<?xml version="1.0" encoding="UTF-8" standalone="no"?>
<!DOCTYPE svg PUBLIC "-//W3C//DTD SVG 1.1//EN"
 "http://www.w3.org/Graphics/SVG/1.1/DTD/svg11.dtd">
<!-- Generated by graphviz version 2.43.0 (0)
 -->
<!-- Title: %3 Pages: 1 -->
<svg width="1180pt" height="832pt"
 viewBox="0.00 0.00 1179.52 831.73" xmlns="http://www.w3.org/2000/svg" xmlns:xlink="http://www.w3.org/1999/xlink">
<g id="graph0" class="graph" transform="scale(1 1) rotate(0) translate(4 827.73)">
<title>%3</title>
<polygon fill="white" stroke="transparent" points="-4,4 -4,-827.73 1175.52,-827.73 1175.52,4 -4,4"/>
<!-- 0,8 (Tar from Coke) -->
<g id="node1" class="node">
<title>0,8 (Tar from Coke)</title>
<ellipse fill="none" stroke="black" cx="872.63" cy="-18" rx="100.98" ry="18"/>
<text text-anchor="middle" x="872.63" y="-14.3" font-family="Times,serif" font-size="14.00">0,8 (Tar from Coke)</text>
</g>
<!-- 2,&#45;8 (Hot air) -->
<g id="node2" class="node">
<title>2,&#45;8 (Hot air)</title>
<ellipse fill="none" stroke="black" cx="417.83" cy="-18" rx="70.69" ry="18"/>
<text text-anchor="middle" x="417.83" y="-14.3" font-family="Times,serif" font-size="14.00">2,&#45;8 (Hot air)</text>
</g>
<!-- 0,8 (Tar from Coke)&#45;&gt;2,&#45;8 (Hot air) -->
<g id="edge1" class="edge">
<title>0,8 (Tar from Coke)&#45;&gt;2,&#45;8 (Hot air)</title>
<path fill="none" stroke="black" stroke-width="1.9" d="M771.7,-18C689.55,-18 575.12,-18 498.87,-18"/>
<polygon fill="black" stroke="black" stroke-width="1.9" points="498.83,-14.5 488.83,-18 498.83,-21.5 498.83,-14.5"/>
<text text-anchor="middle" x="635.28" y="-6.8" font-family="Times,serif" font-size="14.00">combustion&#45;mixture1*1600000</text>
</g>
<!-- 0,0 (LE BUS) -->
<g id="node3" class="node">
<title>0,0 (LE BUS)</title>
<ellipse fill="none" stroke="black" cx="1100.03" cy="-411.87" rx="71.49" ry="18"/>
<text text-anchor="middle" x="1100.03" y="-408.17" font-family="Times,serif" font-size="14.00">0,0 (LE BUS)</text>
</g>
<!-- 0,8 (Tar from Coke)&#45;&gt;0,0 (LE BUS) -->
<g id="edge2" class="edge">
<title>0,8 (Tar from Coke)&#45;&gt;0,0 (LE BUS)</title>
<path fill="none" stroke="black" stroke-width="0.77" d="M882.99,-35.95C919.32,-98.87 1041.06,-309.72 1084.48,-384.93"/>
<polygon fill="black" stroke="black" stroke-width="0.77" points="1081.58,-386.9 1089.61,-393.81 1087.64,-383.4 1081.58,-386.9"/>
<text text-anchor="middle" x="876.74" y="-214.24" font-family="Times,serif" font-size="14.00">combustion&#45;mixture1*650000</text>
</g>
<!-- &#45;4,&#45;3 (Breath Deeply. Exhale. (Hot Air)) -->
<g id="node5" class="node">
<title>&#45;4,&#45;3 (Breath Deeply. Exhale. (Hot Air))</title>
<ellipse fill="none" stroke="black" cx="190.43" cy="-411.87" rx="190.37" ry="18"/>
<text text-anchor="middle" x="190.43" y="-408.17" font-family="Times,serif" font-size="14.00">&#45;4,&#45;3 (Breath Deeply. Exhale. (Hot Air))</text>
</g>
<!-- 0,8 (Tar from Coke)&#45;&gt;&#45;4,&#45;3 (Breath Deeply. Exhale. (Hot Air)) -->
<g id="edge5" class="edge">
<title>0,8 (Tar from Coke)&#45;&gt;&#45;4,&#45;3 (Breath Deeply. Exhale. (Hot Air))</title>
<path fill="none" stroke="black" stroke-width="2.07" d="M842.44,-35.43C732.63,-98.83 354.45,-317.17 230.28,-388.86"/>
<polygon fill="black" stroke="black" stroke-width="2.07" points="228.35,-385.93 221.44,-393.96 231.85,-392 228.35,-385.93"/>
<text text-anchor="middle" x="424.86" y="-215.95" font-family="Times,serif" font-size="14.00">combustion&#45;mixture1*1750000</text>
</g>
<!-- &#45;8,&#45;3 (Duralumin) -->
<g id="node6" class="node">
<title>&#45;8,&#45;3 (Duralumin)</title>
<ellipse fill="none" stroke="black" cx="417.83" cy="-805.73" rx="90.18" ry="18"/>
<text text-anchor="middle" x="417.83" y="-802.03" font-family="Times,serif" font-size="14.00">&#45;8,&#45;3 (Duralumin)</text>
</g>
<!-- 0,8 (Tar from Coke)&#45;&gt;&#45;8,&#45;3 (Duralumin) -->
<g id="edge7" class="edge">
<title>0,8 (Tar from Coke)&#45;&gt;&#45;8,&#45;3 (Duralumin)</title>
<path fill="none" stroke="black" stroke-width="0.47" d="M862.28,-35.93C802.81,-138.94 504.83,-655.05 433.29,-778.96"/>
<polygon fill="black" stroke="black" stroke-width="0.47" points="430.14,-777.42 428.17,-787.83 436.2,-780.92 430.14,-777.42"/>
<text text-anchor="middle" x="540.78" y="-396.25" font-family="Times,serif" font-size="14.00">combustion&#45;mixture1*400000</text>
</g>
<!-- 5,10 (Reserved for More Fluid Recycling) -->
<g id="node4" class="node">
<title>5,10 (Reserved for More Fluid Recycling)</title>
<ellipse fill="none" stroke="black" cx="872.63" cy="-805.73" rx="202.26" ry="18"/>
<text text-anchor="middle" x="872.63" y="-802.03" font-family="Times,serif" font-size="14.00">5,10 (Reserved for More Fluid Recycling)</text>
</g>
<!-- 5,10 (Reserved for More Fluid Recycling)&#45;&gt;2,&#45;8 (Hot air) -->
<g id="edge6" class="edge">
<title>5,10 (Reserved for More Fluid Recycling)&#45;&gt;2,&#45;8 (Hot air)</title>
<path fill="none" stroke="black" stroke-width="1.13" d="M862.06,-787.42C802.07,-683.52 504.66,-168.38 433.26,-44.72"/>
<polygon fill="black" stroke="black" stroke-width="1.13" points="436.18,-42.78 428.15,-35.87 430.12,-46.28 436.18,-42.78"/>
<text text-anchor="middle" x="540.66" y="-419.87" font-family="Times,serif" font-size="14.00">combustion&#45;mixture1*950000</text>
</g>
<!-- 5,10 (Reserved for More Fluid Recycling)&#45;&gt;0,0 (LE BUS) -->
<g id="edge4" class="edge">
<title>5,10 (Reserved for More Fluid Recycling)&#45;&gt;0,0 (LE BUS)</title>
<path fill="none" stroke="black" stroke-width="0.41" d="M883.14,-787.53C919.67,-724.27 1041.18,-513.8 1084.51,-438.75"/>
<polygon fill="black" stroke="black" stroke-width="0.41" points="1087.66,-440.29 1089.63,-429.88 1081.6,-436.79 1087.66,-440.29"/>
<text text-anchor="middle" x="876.83" y="-616.94" font-family="Times,serif" font-size="14.00">combustion&#45;mixture1*350000</text>
</g>
<!-- 5,10 (Reserved for More Fluid Recycling)&#45;&gt;&#45;4,&#45;3 (Breath Deeply. Exhale. (Hot Air)) -->
<g id="edge3" class="edge">
<title>5,10 (Reserved for More Fluid Recycling)&#45;&gt;&#45;4,&#45;3 (Breath Deeply. Exhale. (Hot Air))</title>
<path fill="none" stroke="black" stroke-width="0.95" d="M841.55,-787.79C730.55,-723.7 353.77,-506.17 230.11,-434.77"/>
<polygon fill="black" stroke="black" stroke-width="0.95" points="231.72,-431.66 221.31,-429.69 228.22,-437.73 231.72,-431.66"/>
<text text-anchor="middle" x="428.83" y="-615.08" font-family="Times,serif" font-size="14.00">combustion&#45;mixture1*800000</text>
</g>
<!-- 5,10 (Reserved for More Fluid Recycling)&#45;&gt;&#45;8,&#45;3 (Duralumin) -->
<g id="edge8" class="edge">
<title>5,10 (Reserved for More Fluid Recycling)&#45;&gt;&#45;8,&#45;3 (Duralumin)</title>
<path fill="none" stroke="black" stroke-width="0.3" d="M670.17,-805.73C617.61,-805.73 563.25,-805.73 518.5,-805.73"/>
<polygon fill="black" stroke="black" stroke-width="0.3" points="518.23,-802.23 508.23,-805.73 518.23,-809.23 518.23,-802.23"/>
<text text-anchor="middle" x="594.34" y="-794.53" font-family="Times,serif" font-size="14.00">combustion&#45;mixture1*250000</text>
</g>
</g>
</svg>
