<?xml version="1.0" encoding="UTF-8" standalone="no"?>
<!DOCTYPE svg PUBLIC "-//W3C//DTD SVG 1.1//EN"
 "http://www.w3.org/Graphics/SVG/1.1/DTD/svg11.dtd">
<!-- Generated by graphviz version 2.43.0 (0)
 -->
<!-- Title: %3 Pages: 1 -->
<svg width="1179pt" height="832pt"
 viewBox="0.00 0.00 1178.87 831.73" xmlns="http://www.w3.org/2000/svg" xmlns:xlink="http://www.w3.org/1999/xlink">
<g id="graph0" class="graph" transform="scale(1 1) rotate(0) translate(4 827.73)">
<title>%3</title>
<polygon fill="white" stroke="transparent" points="-4,4 -4,-827.73 1174.87,-827.73 1174.87,4 -4,4"/>
<!-- 5,10 (Reserved for More Fluid Recycling) -->
<g id="node1" class="node">
<title>5,10 (Reserved for More Fluid Recycling)</title>
<ellipse fill="none" stroke="black" cx="872.63" cy="-18" rx="202.26" ry="18"/>
<text text-anchor="middle" x="872.63" y="-14.3" font-family="Times,serif" font-size="14.00">5,10 (Reserved for More Fluid Recycling)</text>
</g>
<!-- &#45;8,&#45;3 (Duralumin) -->
<g id="node2" class="node">
<title>&#45;8,&#45;3 (Duralumin)</title>
<ellipse fill="none" stroke="black" cx="417.83" cy="-18" rx="90.18" ry="18"/>
<text text-anchor="middle" x="417.83" y="-14.3" font-family="Times,serif" font-size="14.00">&#45;8,&#45;3 (Duralumin)</text>
</g>
<!-- 5,10 (Reserved for More Fluid Recycling)&#45;&gt;&#45;8,&#45;3 (Duralumin) -->
<g id="edge1" class="edge">
<title>5,10 (Reserved for More Fluid Recycling)&#45;&gt;&#45;8,&#45;3 (Duralumin)</title>
<path fill="none" stroke="black" stroke-width="0.6" d="M670.17,-18C617.61,-18 563.25,-18 518.5,-18"/>
<polygon fill="black" stroke="black" stroke-width="0.6" points="518.23,-14.5 508.23,-18 518.23,-21.5 518.23,-14.5"/>
<text text-anchor="middle" x="594.34" y="-6.8" font-family="Times,serif" font-size="14.00">combustion&#45;mixture1*500000</text>
</g>
<!-- 2,&#45;8 (Hot air) -->
<g id="node3" class="node">
<title>2,&#45;8 (Hot air)</title>
<ellipse fill="none" stroke="black" cx="1100.03" cy="-411.87" rx="70.69" ry="18"/>
<text text-anchor="middle" x="1100.03" y="-408.17" font-family="Times,serif" font-size="14.00">2,&#45;8 (Hot air)</text>
</g>
<!-- 5,10 (Reserved for More Fluid Recycling)&#45;&gt;2,&#45;8 (Hot air) -->
<g id="edge2" class="edge">
<title>5,10 (Reserved for More Fluid Recycling)&#45;&gt;2,&#45;8 (Hot air)</title>
<path fill="none" stroke="black" stroke-width="1.2" d="M883.14,-36.21C919.67,-99.47 1041.18,-309.93 1084.51,-384.99"/>
<polygon fill="black" stroke="black" stroke-width="1.2" points="1081.6,-386.94 1089.63,-393.85 1087.66,-383.44 1081.6,-386.94"/>
<text text-anchor="middle" x="872.33" y="-214.4" font-family="Times,serif" font-size="14.00">combustion&#45;mixture1*1000000</text>
</g>
<!-- &#45;4,&#45;3 (Breath Deeply. Exhale. (Hot Air)) -->
<g id="node4" class="node">
<title>&#45;4,&#45;3 (Breath Deeply. Exhale. (Hot Air))</title>
<ellipse fill="none" stroke="black" cx="190.43" cy="-411.87" rx="190.37" ry="18"/>
<text text-anchor="middle" x="190.43" y="-408.17" font-family="Times,serif" font-size="14.00">&#45;4,&#45;3 (Breath Deeply. Exhale. (Hot Air))</text>
</g>
<!-- 5,10 (Reserved for More Fluid Recycling)&#45;&gt;&#45;4,&#45;3 (Breath Deeply. Exhale. (Hot Air)) -->
<g id="edge3" class="edge">
<title>5,10 (Reserved for More Fluid Recycling)&#45;&gt;&#45;4,&#45;3 (Breath Deeply. Exhale. (Hot Air))</title>
<path fill="none" stroke="black" stroke-width="0.6" d="M841.55,-35.95C730.55,-100.03 353.77,-317.56 230.11,-388.96"/>
<polygon fill="black" stroke="black" stroke-width="0.6" points="228.22,-386.01 221.31,-394.04 231.72,-392.07 228.22,-386.01"/>
<text text-anchor="middle" x="428.83" y="-216.25" font-family="Times,serif" font-size="14.00">combustion&#45;mixture1*500000</text>
</g>
<!-- 0,0 (LE BUS) -->
<g id="node6" class="node">
<title>0,0 (LE BUS)</title>
<ellipse fill="none" stroke="black" cx="417.83" cy="-805.73" rx="71.49" ry="18"/>
<text text-anchor="middle" x="417.83" y="-802.03" font-family="Times,serif" font-size="14.00">0,0 (LE BUS)</text>
</g>
<!-- 5,10 (Reserved for More Fluid Recycling)&#45;&gt;0,0 (LE BUS) -->
<g id="edge8" class="edge">
<title>5,10 (Reserved for More Fluid Recycling)&#45;&gt;0,0 (LE BUS)</title>
<path fill="none" stroke="black" stroke-width="0.24" d="M862.06,-36.31C802.07,-140.21 504.66,-655.35 433.26,-779.01"/>
<polygon fill="black" stroke="black" stroke-width="0.24" points="430.12,-777.46 428.15,-787.87 436.18,-780.96 430.12,-777.46"/>
<text text-anchor="middle" x="540.66" y="-411.46" font-family="Times,serif" font-size="14.00">combustion&#45;mixture1*200000</text>
</g>
<!-- 0,8 (Tar from Coke) -->
<g id="node5" class="node">
<title>0,8 (Tar from Coke)</title>
<ellipse fill="none" stroke="black" cx="872.63" cy="-805.73" rx="100.98" ry="18"/>
<text text-anchor="middle" x="872.63" y="-802.03" font-family="Times,serif" font-size="14.00">0,8 (Tar from Coke)</text>
</g>
<!-- 0,8 (Tar from Coke)&#45;&gt;&#45;8,&#45;3 (Duralumin) -->
<g id="edge6" class="edge">
<title>0,8 (Tar from Coke)&#45;&gt;&#45;8,&#45;3 (Duralumin)</title>
<path fill="none" stroke="black" stroke-width="0.96" d="M862.28,-787.8C802.81,-684.8 504.83,-168.69 433.29,-44.78"/>
<polygon fill="black" stroke="black" stroke-width="0.96" points="436.2,-42.82 428.17,-35.9 430.14,-46.32 436.2,-42.82"/>
<text text-anchor="middle" x="754.78" y="-420.09" font-family="Times,serif" font-size="14.00">combustion&#45;mixture1*800000</text>
</g>
<!-- 0,8 (Tar from Coke)&#45;&gt;2,&#45;8 (Hot air) -->
<g id="edge7" class="edge">
<title>0,8 (Tar from Coke)&#45;&gt;2,&#45;8 (Hot air)</title>
<path fill="none" stroke="black" stroke-width="1.74" d="M882.99,-787.79C919.32,-724.86 1041.06,-514.01 1084.48,-438.8"/>
<polygon fill="black" stroke="black" stroke-width="1.74" points="1087.64,-440.33 1089.61,-429.92 1081.58,-436.83 1087.64,-440.33"/>
<text text-anchor="middle" x="872.24" y="-617.1" font-family="Times,serif" font-size="14.00">combustion&#45;mixture1*1450000</text>
</g>
<!-- 0,8 (Tar from Coke)&#45;&gt;&#45;4,&#45;3 (Breath Deeply. Exhale. (Hot Air)) -->
<g id="edge4" class="edge">
<title>0,8 (Tar from Coke)&#45;&gt;&#45;4,&#45;3 (Breath Deeply. Exhale. (Hot Air))</title>
<path fill="none" stroke="black" stroke-width="2.35" d="M842.44,-788.3C732.63,-724.9 354.45,-506.56 230.28,-434.87"/>
<polygon fill="black" stroke="black" stroke-width="2.35" points="231.85,-431.74 221.44,-429.77 228.35,-437.8 231.85,-431.74"/>
<text text-anchor="middle" x="424.86" y="-615.39" font-family="Times,serif" font-size="14.00">combustion&#45;mixture1*1950000</text>
</g>
<!-- 0,8 (Tar from Coke)&#45;&gt;0,0 (LE BUS) -->
<g id="edge5" class="edge">
<title>0,8 (Tar from Coke)&#45;&gt;0,0 (LE BUS)</title>
<path fill="none" stroke="black" stroke-width="0.3" d="M771.7,-805.73C689.8,-805.73 575.81,-805.73 499.56,-805.73"/>
<polygon fill="black" stroke="black" stroke-width="0.3" points="499.53,-802.23 489.53,-805.73 499.53,-809.23 499.53,-802.23"/>
<text text-anchor="middle" x="635.63" y="-794.53" font-family="Times,serif" font-size="14.00">combustion&#45;mixture1*250000</text>
</g>
</g>
</svg>
