<?xml version="1.0" encoding="UTF-8" standalone="no"?>
<!DOCTYPE svg PUBLIC "-//W3C//DTD SVG 1.1//EN"
 "http://www.w3.org/Graphics/SVG/1.1/DTD/svg11.dtd">
<!-- Generated by graphviz version 2.43.0 (0)
 -->
<!-- Title: %3 Pages: 1 -->
<svg width="2541pt" height="1677pt"
 viewBox="0.00 0.00 2541.25 1676.68" xmlns="http://www.w3.org/2000/svg" xmlns:xlink="http://www.w3.org/1999/xlink">
<g id="graph0" class="graph" transform="scale(1 1) rotate(0) translate(4 1672.68)">
<title>%3</title>
<polygon fill="white" stroke="transparent" points="-4,4 -4,-1672.68 2537.25,-1672.68 2537.25,4 -4,4"/>
<!-- 0,8 (Tar from Coke) -->
<g id="node1" class="node">
<title>0,8 (Tar from Coke)</title>
<ellipse fill="none" stroke="black" cx="1871.5" cy="-18" rx="100.98" ry="18"/>
<text text-anchor="middle" x="1871.5" y="-14.3" font-family="Times,serif" font-size="14.00">0,8 (Tar from Coke)</text>
</g>
<!-- &#45;8,&#45;3 (Duralumin) -->
<g id="node2" class="node">
<title>&#45;8,&#45;3 (Duralumin)</title>
<ellipse fill="none" stroke="black" cx="928.87" cy="-18" rx="90.18" ry="18"/>
<text text-anchor="middle" x="928.87" y="-14.3" font-family="Times,serif" font-size="14.00">&#45;8,&#45;3 (Duralumin)</text>
</g>
<!-- 0,8 (Tar from Coke)&#45;&gt;&#45;8,&#45;3 (Duralumin) -->
<g id="edge1" class="edge">
<title>0,8 (Tar from Coke)&#45;&gt;&#45;8,&#45;3 (Duralumin)</title>
<path fill="none" stroke="black" stroke-width="0.27" d="M1770.63,-18C1589.3,-18 1210.36,-18 1029.34,-18"/>
<polygon fill="black" stroke="black" stroke-width="0.27" points="1029.28,-14.5 1019.28,-18 1029.28,-21.5 1029.28,-14.5"/>
<text text-anchor="middle" x="1292.98" y="-21.8" font-family="Times,serif" font-size="14.00">combustion&#45;mixture1*300000</text>
</g>
<!-- &#45;4,&#45;3 (Breath Deeply. Exhale. (Hot Air)) -->
<g id="node4" class="node">
<title>&#45;4,&#45;3 (Breath Deeply. Exhale. (Hot Air))</title>
<ellipse fill="none" stroke="black" cx="2342.82" cy="-834.34" rx="190.37" ry="18"/>
<text text-anchor="middle" x="2342.82" y="-830.64" font-family="Times,serif" font-size="14.00">&#45;4,&#45;3 (Breath Deeply. Exhale. (Hot Air))</text>
</g>
<!-- 0,8 (Tar from Coke)&#45;&gt;&#45;4,&#45;3 (Breath Deeply. Exhale. (Hot Air)) -->
<g id="edge6" class="edge">
<title>0,8 (Tar from Coke)&#45;&gt;&#45;4,&#45;3 (Breath Deeply. Exhale. (Hot Air))</title>
<path fill="none" stroke="black" stroke-width="2.32" d="M1882.01,-36.2C1943.23,-142.23 2253.77,-680.1 2327.23,-807.33"/>
<polygon fill="black" stroke="black" stroke-width="2.32" points="2324.26,-809.19 2332.29,-816.1 2330.32,-805.69 2324.26,-809.19"/>
<text text-anchor="middle" x="1993.12" y="-425.56" font-family="Times,serif" font-size="14.00">combustion&#45;mixture1*2550000</text>
</g>
<!-- 1,&#45;1 (fluid=molten&#45;glass Glass, When space, make quartz separate with regular priority, Quartz) -->
<g id="node5" class="node">
<title>1,&#45;1 (fluid=molten&#45;glass Glass, When space, make quartz separate with regular priority, Quartz)</title>
<ellipse fill="none" stroke="black" cx="457.56" cy="-834.34" rx="457.62" ry="18"/>
<text text-anchor="middle" x="457.56" y="-830.64" font-family="Times,serif" font-size="14.00">1,&#45;1 (fluid=molten&#45;glass Glass, When space, make quartz separate with regular priority, Quartz)</text>
</g>
<!-- 0,8 (Tar from Coke)&#45;&gt;1,&#45;1 (fluid=molten&#45;glass Glass, When space, make quartz separate with regular priority, Quartz) -->
<g id="edge3" class="edge">
<title>0,8 (Tar from Coke)&#45;&gt;1,&#45;1 (fluid=molten&#45;glass Glass, When space, make quartz separate with regular priority, Quartz)</title>
<path fill="none" stroke="black" stroke-width="1.05" d="M1841.64,-35.24C1660.08,-140.06 705.18,-691.38 497.47,-811.3"/>
<polygon fill="black" stroke="black" stroke-width="1.05" points="495.61,-808.33 488.7,-816.36 499.11,-814.39 495.61,-808.33"/>
<text text-anchor="middle" x="1058.05" y="-427.07" font-family="Times,serif" font-size="14.00">combustion&#45;mixture1*1150000</text>
</g>
<!-- 0,0 (LE BUS) -->
<g id="node6" class="node">
<title>0,0 (LE BUS)</title>
<ellipse fill="none" stroke="black" cx="928.87" cy="-1650.68" rx="71.49" ry="18"/>
<text text-anchor="middle" x="928.87" y="-1646.98" font-family="Times,serif" font-size="14.00">0,0 (LE BUS)</text>
</g>
<!-- 0,8 (Tar from Coke)&#45;&gt;0,0 (LE BUS) -->
<g id="edge4" class="edge">
<title>0,8 (Tar from Coke)&#45;&gt;0,0 (LE BUS)</title>
<path fill="none" stroke="black" stroke-width="1.18" d="M1861.08,-36.06C1766.55,-199.79 1058.41,-1426.31 944.36,-1623.86"/>
<polygon fill="black" stroke="black" stroke-width="1.18" points="941.21,-1622.32 939.24,-1632.73 947.27,-1625.82 941.21,-1622.32"/>
<text text-anchor="middle" x="1291.22" y="-833.76" font-family="Times,serif" font-size="14.00">combustion&#45;mixture1*1300000</text>
</g>
<!-- 5,10 (Reserved for More Fluid Recycling) -->
<g id="node3" class="node">
<title>5,10 (Reserved for More Fluid Recycling)</title>
<ellipse fill="none" stroke="black" cx="1871.5" cy="-1650.68" rx="202.26" ry="18"/>
<text text-anchor="middle" x="1871.5" y="-1646.98" font-family="Times,serif" font-size="14.00">5,10 (Reserved for More Fluid Recycling)</text>
</g>
<!-- 5,10 (Reserved for More Fluid Recycling)&#45;&gt;&#45;8,&#45;3 (Duralumin) -->
<g id="edge8" class="edge">
<title>5,10 (Reserved for More Fluid Recycling)&#45;&gt;&#45;8,&#45;3 (Duralumin)</title>
<path fill="none" stroke="black" stroke-width="0.23" d="M1861.08,-1632.62C1766.55,-1468.89 1058.41,-242.37 944.36,-44.82"/>
<polygon fill="black" stroke="black" stroke-width="0.23" points="947.27,-42.86 939.24,-35.95 941.21,-46.36 947.27,-42.86"/>
<text text-anchor="middle" x="1509.72" y="-842.52" font-family="Times,serif" font-size="14.00">combustion&#45;mixture1*250000</text>
</g>
<!-- 5,10 (Reserved for More Fluid Recycling)&#45;&gt;&#45;4,&#45;3 (Breath Deeply. Exhale. (Hot Air)) -->
<g id="edge2" class="edge">
<title>5,10 (Reserved for More Fluid Recycling)&#45;&gt;&#45;4,&#45;3 (Breath Deeply. Exhale. (Hot Air))</title>
<path fill="none" stroke="black" stroke-width="1.55" d="M1882.01,-1632.49C1943.23,-1526.45 2253.77,-988.58 2327.23,-861.35"/>
<polygon fill="black" stroke="black" stroke-width="1.55" points="2330.32,-862.99 2332.29,-852.58 2324.26,-859.49 2330.32,-862.99"/>
<text text-anchor="middle" x="1993.12" y="-1250.72" font-family="Times,serif" font-size="14.00">combustion&#45;mixture1*1700000</text>
</g>
<!-- 5,10 (Reserved for More Fluid Recycling)&#45;&gt;1,&#45;1 (fluid=molten&#45;glass Glass, When space, make quartz separate with regular priority, Quartz) -->
<g id="edge7" class="edge">
<title>5,10 (Reserved for More Fluid Recycling)&#45;&gt;1,&#45;1 (fluid=molten&#45;glass Glass, When space, make quartz separate with regular priority, Quartz)</title>
<path fill="none" stroke="black" stroke-width="0.68" d="M1840.66,-1632.87C1656.71,-1526.67 705.46,-977.47 497.68,-857.5"/>
<polygon fill="black" stroke="black" stroke-width="0.68" points="499.32,-854.41 488.91,-852.44 495.82,-860.47 499.32,-854.41"/>
<text text-anchor="middle" x="1062.17" y="-1248.99" font-family="Times,serif" font-size="14.00">combustion&#45;mixture1*750000</text>
</g>
<!-- 5,10 (Reserved for More Fluid Recycling)&#45;&gt;0,0 (LE BUS) -->
<g id="edge5" class="edge">
<title>5,10 (Reserved for More Fluid Recycling)&#45;&gt;0,0 (LE BUS)</title>
<path fill="none" stroke="black" stroke-width="0.73" d="M1669.29,-1650.68C1463.91,-1650.68 1156.03,-1650.68 1010.56,-1650.68"/>
<polygon fill="black" stroke="black" stroke-width="0.73" points="1010.37,-1647.18 1000.37,-1650.68 1010.37,-1654.18 1010.37,-1647.18"/>
<text text-anchor="middle" x="1232.92" y="-1654.48" font-family="Times,serif" font-size="14.00">combustion&#45;mixture1*800000</text>
</g>
</g>
</svg>
