<?xml version="1.0" encoding="UTF-8" standalone="no"?>
<!DOCTYPE svg PUBLIC "-//W3C//DTD SVG 1.1//EN"
 "http://www.w3.org/Graphics/SVG/1.1/DTD/svg11.dtd">
<!-- Generated by graphviz version 2.43.0 (0)
 -->
<!-- Title: %3 Pages: 1 -->
<svg width="1330pt" height="44pt"
 viewBox="0.00 0.00 1329.70 44.00" xmlns="http://www.w3.org/2000/svg" xmlns:xlink="http://www.w3.org/1999/xlink">
<g id="graph0" class="graph" transform="scale(1 1) rotate(0) translate(4 40)">
<title>%3</title>
<polygon fill="white" stroke="transparent" points="-4,4 -4,-40 1325.7,-40 1325.7,4 -4,4"/>
<!-- 3,5 (item=molybdenum&#45;plate Molybdenum plate) -->
<g id="node1" class="node">
<title>3,5 (item=molybdenum&#45;plate Molybdenum plate)</title>
<ellipse fill="none" stroke="black" cx="710.89" cy="-18" rx="239.66" ry="18"/>
<text text-anchor="middle" x="710.89" y="-14.3" font-family="Times,serif" font-size="14.00">3,5 (item=molybdenum&#45;plate Molybdenum plate)</text>
</g>
<!-- &#45;1,&#45;2 (Aramid fiber) -->
<g id="node2" class="node">
<title>&#45;1,&#45;2 (Aramid fiber)</title>
<ellipse fill="none" stroke="black" cx="1222.25" cy="-18" rx="99.38" ry="18"/>
<text text-anchor="middle" x="1222.25" y="-14.3" font-family="Times,serif" font-size="14.00">&#45;1,&#45;2 (Aramid fiber)</text>
</g>
<!-- 3,5 (item=molybdenum&#45;plate Molybdenum plate)&#45;&gt;&#45;1,&#45;2 (Aramid fiber) -->
<g id="edge1" class="edge">
<title>3,5 (item=molybdenum&#45;plate Molybdenum plate)&#45;&gt;&#45;1,&#45;2 (Aramid fiber)</title>
<path fill="none" stroke="black" stroke-width="1.06" d="M950.85,-18C1007.42,-18 1065.02,-18 1112.52,-18"/>
<polygon fill="black" stroke="black" stroke-width="1.06" points="1112.81,-21.5 1122.81,-18 1112.81,-14.5 1112.81,-21.5"/>
<text text-anchor="middle" x="1031.69" y="-6.8" font-family="Times,serif" font-size="14.00">molybdenum&#45;plate*11360</text>
</g>
<!-- 4,6 (Circuit substrate and Doped silicon) -->
<g id="node3" class="node">
<title>4,6 (Circuit substrate and Doped silicon)</title>
<ellipse fill="none" stroke="black" cx="199.53" cy="-18" rx="199.56" ry="18"/>
<text text-anchor="middle" x="199.53" y="-14.3" font-family="Times,serif" font-size="14.00">4,6 (Circuit substrate and Doped silicon)</text>
</g>
<!-- 3,5 (item=molybdenum&#45;plate Molybdenum plate)&#45;&gt;4,6 (Circuit substrate and Doped silicon) -->
<g id="edge2" class="edge">
<title>3,5 (item=molybdenum&#45;plate Molybdenum plate)&#45;&gt;4,6 (Circuit substrate and Doped silicon)</title>
<path fill="none" stroke="black" stroke-width="0.94" d="M470.93,-18C450.4,-18 429.73,-18 409.46,-18"/>
<polygon fill="black" stroke="black" stroke-width="0.94" points="409.22,-14.5 399.22,-18 409.22,-21.5 409.22,-14.5"/>
<text text-anchor="middle" x="393.95" y="-6.8" font-family="Times,serif" font-size="14.00">molybdenum&#45;plate*10000</text>
</g>
</g>
</svg>
