<?xml version="1.0" encoding="UTF-8" standalone="no"?>
<!DOCTYPE svg PUBLIC "-//W3C//DTD SVG 1.1//EN"
 "http://www.w3.org/Graphics/SVG/1.1/DTD/svg11.dtd">
<!-- Generated by graphviz version 2.43.0 (0)
 -->
<!-- Title: %3 Pages: 1 -->
<svg width="1058pt" height="889pt"
 viewBox="0.00 0.00 1058.09 889.17" xmlns="http://www.w3.org/2000/svg" xmlns:xlink="http://www.w3.org/1999/xlink">
<g id="graph0" class="graph" transform="scale(1 1) rotate(0) translate(4 885.17)">
<title>%3</title>
<polygon fill="white" stroke="transparent" points="-4,4 -4,-885.17 1054.09,-885.17 1054.09,4 -4,4"/>
<!-- &#45;3,2 (Lead and Solder) -->
<g id="node1" class="node">
<title>&#45;3,2 (Lead and Solder)</title>
<ellipse fill="none" stroke="black" cx="552.38" cy="-444.01" rx="113.98" ry="18"/>
<text text-anchor="middle" x="552.38" y="-440.31" font-family="Times,serif" font-size="14.00">&#45;3,2 (Lead and Solder)</text>
</g>
<!-- 0,0 (LE BUS) -->
<g id="node2" class="node">
<title>0,0 (LE BUS)</title>
<ellipse fill="none" stroke="black" cx="978.6" cy="-444.01" rx="71.49" ry="18"/>
<text text-anchor="middle" x="978.6" y="-440.31" font-family="Times,serif" font-size="14.00">0,0 (LE BUS)</text>
</g>
<!-- &#45;3,2 (Lead and Solder)&#45;&gt;0,0 (LE BUS) -->
<g id="edge1" class="edge">
<title>&#45;3,2 (Lead and Solder)&#45;&gt;0,0 (LE BUS)</title>
<path fill="none" stroke="black" stroke-width="2.04" d="M666.32,-444.01C738.88,-444.01 831.19,-444.01 896.57,-444.01"/>
<polygon fill="black" stroke="black" stroke-width="2.04" points="896.83,-447.51 906.83,-444.01 896.83,-440.51 896.83,-447.51"/>
<text text-anchor="middle" x="842.95" y="-447.81" font-family="Times,serif" font-size="14.00">lead&#45;plate*86320</text>
</g>
<!-- &#45;5,&#45;7 (fluid=propene Propene) -->
<g id="node3" class="node">
<title>&#45;5,&#45;7 (fluid=propene Propene)</title>
<ellipse fill="none" stroke="black" cx="629.62" cy="-863.17" rx="149.47" ry="18"/>
<text text-anchor="middle" x="629.62" y="-859.47" font-family="Times,serif" font-size="14.00">&#45;5,&#45;7 (fluid=propene Propene)</text>
</g>
<!-- &#45;3,2 (Lead and Solder)&#45;&gt;&#45;5,&#45;7 (fluid=propene Propene) -->
<g id="edge2" class="edge">
<title>&#45;3,2 (Lead and Solder)&#45;&gt;&#45;5,&#45;7 (fluid=propene Propene)</title>
<path fill="none" stroke="black" stroke-width="0.95" d="M555.7,-462.02C567.8,-527.71 609.64,-754.72 624.41,-834.88"/>
<polygon fill="black" stroke="black" stroke-width="0.95" points="620.97,-835.56 626.23,-844.76 627.86,-834.29 620.97,-835.56"/>
<text text-anchor="middle" x="528.55" y="-652.25" font-family="Times,serif" font-size="14.00">lead&#45;plate*40080</text>
</g>
<!-- &#45;7,&#45;2 (Uranium Processing) -->
<g id="node4" class="node">
<title>&#45;7,&#45;2 (Uranium Processing)</title>
<ellipse fill="none" stroke="black" cx="135.84" cy="-534.31" rx="135.68" ry="18"/>
<text text-anchor="middle" x="135.84" y="-530.61" font-family="Times,serif" font-size="14.00">&#45;7,&#45;2 (Uranium Processing)</text>
</g>
<!-- &#45;3,2 (Lead and Solder)&#45;&gt;&#45;7,&#45;2 (Uranium Processing) -->
<g id="edge3" class="edge">
<title>&#45;3,2 (Lead and Solder)&#45;&gt;&#45;7,&#45;2 (Uranium Processing)</title>
<path fill="none" stroke="black" stroke-width="0.05" d="M484.99,-458.62C411.79,-474.49 294.89,-499.83 216.77,-516.77"/>
<polygon fill="black" stroke="black" stroke-width="0.05" points="216,-513.35 206.96,-518.89 217.48,-520.19 216,-513.35"/>
<text text-anchor="middle" x="293.88" y="-491.49" font-family="Times,serif" font-size="14.00">lead&#45;plate*2080</text>
</g>
<!-- 3,3 (Random electronic components, Small Parts) -->
<g id="node5" class="node">
<title>3,3 (Random electronic components, Small Parts)</title>
<ellipse fill="none" stroke="black" cx="539.06" cy="-18" rx="240.46" ry="18"/>
<text text-anchor="middle" x="539.06" y="-14.3" font-family="Times,serif" font-size="14.00">3,3 (Random electronic components, Small Parts)</text>
</g>
<!-- &#45;3,2 (Lead and Solder)&#45;&gt;3,3 (Random electronic components, Small Parts) -->
<g id="edge4" class="edge">
<title>&#45;3,2 (Lead and Solder)&#45;&gt;3,3 (Random electronic components, Small Parts)</title>
<path fill="none" stroke="black" stroke-width="0.96" d="M551.82,-425.98C549.74,-359.58 542.51,-128.34 539.96,-46.76"/>
<polygon fill="black" stroke="black" stroke-width="0.96" points="543.44,-46.16 539.63,-36.28 536.44,-46.38 543.44,-46.16"/>
<text text-anchor="middle" x="484.39" y="-240.17" font-family="Times,serif" font-size="14.00">lead&#45;plate*40400</text>
</g>
</g>
</svg>
