<?xml version="1.0" encoding="UTF-8" standalone="no"?>
<!DOCTYPE svg PUBLIC "-//W3C//DTD SVG 1.1//EN"
 "http://www.w3.org/Graphics/SVG/1.1/DTD/svg11.dtd">
<!-- Generated by graphviz version 2.43.0 (0)
 -->
<!-- Title: %3 Pages: 1 -->
<svg width="725pt" height="44pt"
 viewBox="0.00 0.00 724.60 44.00" xmlns="http://www.w3.org/2000/svg" xmlns:xlink="http://www.w3.org/1999/xlink">
<g id="graph0" class="graph" transform="scale(1 1) rotate(0) translate(4 40)">
<title>%3</title>
<polygon fill="white" stroke="transparent" points="-4,4 -4,-40 720.6,-40 720.6,4 -4,4"/>
<!-- &#45;3,2 (Lead and Solder) -->
<g id="node1" class="node">
<title>&#45;3,2 (Lead and Solder)</title>
<ellipse fill="none" stroke="black" cx="347.58" cy="-18" rx="113.98" ry="18"/>
<text text-anchor="middle" x="347.58" y="-14.3" font-family="Times,serif" font-size="14.00">&#45;3,2 (Lead and Solder)</text>
</g>
<!-- 1,9 (Ammunition) -->
<g id="node2" class="node">
<title>1,9 (Ammunition)</title>
<ellipse fill="none" stroke="black" cx="624.96" cy="-18" rx="91.78" ry="18"/>
<text text-anchor="middle" x="624.96" y="-14.3" font-family="Times,serif" font-size="14.00">1,9 (Ammunition)</text>
</g>
<!-- &#45;3,2 (Lead and Solder)&#45;&gt;1,9 (Ammunition) -->
<g id="edge1" class="edge">
<title>&#45;3,2 (Lead and Solder)&#45;&gt;1,9 (Ammunition)</title>
<path fill="none" stroke="black" stroke-width="1.52" d="M461.6,-18C481.92,-18 502.98,-18 522.94,-18"/>
<polygon fill="black" stroke="black" stroke-width="1.52" points="522.96,-21.5 532.96,-18 522.96,-14.5 522.96,-21.5"/>
<text text-anchor="middle" x="523.02" y="-6.8" font-family="Times,serif" font-size="14.00">lead&#45;plate*20432</text>
</g>
<!-- &#45;2,&#45;3 (Trains) -->
<g id="node3" class="node">
<title>&#45;2,&#45;3 (Trains)</title>
<ellipse fill="none" stroke="black" cx="70.19" cy="-18" rx="70.39" ry="18"/>
<text text-anchor="middle" x="70.19" y="-14.3" font-family="Times,serif" font-size="14.00">&#45;2,&#45;3 (Trains)</text>
</g>
<!-- &#45;3,2 (Lead and Solder)&#45;&gt;&#45;2,&#45;3 (Trains) -->
<g id="edge2" class="edge">
<title>&#45;3,2 (Lead and Solder)&#45;&gt;&#45;2,&#45;3 (Trains)</title>
<path fill="none" stroke="black" stroke-width="0.48" d="M233.55,-18C205.72,-18 176.52,-18 150.62,-18"/>
<polygon fill="black" stroke="black" stroke-width="0.48" points="150.5,-14.5 140.5,-18 150.5,-21.5 150.5,-14.5"/>
<text text-anchor="middle" x="192.09" y="-6.8" font-family="Times,serif" font-size="14.00">lead&#45;plate*6432</text>
</g>
</g>
</svg>
