<?xml version="1.0" encoding="UTF-8" standalone="no"?>
<!DOCTYPE svg PUBLIC "-//W3C//DTD SVG 1.1//EN"
 "http://www.w3.org/Graphics/SVG/1.1/DTD/svg11.dtd">
<!-- Generated by graphviz version 2.43.0 (0)
 -->
<!-- Title: %3 Pages: 1 -->
<svg width="912pt" height="761pt"
 viewBox="0.00 0.00 912.47 761.29" xmlns="http://www.w3.org/2000/svg" xmlns:xlink="http://www.w3.org/1999/xlink">
<g id="graph0" class="graph" transform="scale(1 1) rotate(0) translate(4 757.29)">
<title>%3</title>
<polygon fill="white" stroke="transparent" points="-4,4 -4,-757.29 908.47,-757.29 908.47,4 -4,4"/>
<!-- &#45;5,&#45;4 (low priority (slaked)? lime) -->
<g id="node1" class="node">
<title>&#45;5,&#45;4 (low priority (slaked)? lime)</title>
<ellipse fill="none" stroke="black" cx="430.14" cy="-18" rx="162.47" ry="18"/>
<text text-anchor="middle" x="430.14" y="-14.3" font-family="Times,serif" font-size="14.00">&#45;5,&#45;4 (low priority (slaked)? lime)</text>
</g>
<!-- 0,0 (LE BUS) -->
<g id="node2" class="node">
<title>0,0 (LE BUS)</title>
<ellipse fill="none" stroke="black" cx="71.49" cy="-376.64" rx="71.49" ry="18"/>
<text text-anchor="middle" x="71.49" y="-372.94" font-family="Times,serif" font-size="14.00">0,0 (LE BUS)</text>
</g>
<!-- &#45;5,&#45;4 (low priority (slaked)? lime)&#45;&gt;0,0 (LE BUS) -->
<g id="edge1" class="edge">
<title>&#45;5,&#45;4 (low priority (slaked)? lime)&#45;&gt;0,0 (LE BUS)</title>
<path fill="none" stroke="black" stroke-width="0.5" d="M411.86,-36.28C352.48,-95.66 164.92,-283.21 96.66,-351.48"/>
<polygon fill="black" stroke="black" stroke-width="0.5" points="93.91,-349.28 89.31,-358.83 98.86,-354.23 93.91,-349.28"/>
<text text-anchor="middle" x="164.26" y="-197.68" font-family="Times,serif" font-size="14.00">slacked&#45;lime&#45;barrel*3000</text>
</g>
<!-- &#45;6,&#45;1 (item=agar Agar) -->
<g id="node4" class="node">
<title>&#45;6,&#45;1 (item=agar Agar)</title>
<ellipse fill="none" stroke="black" cx="788.78" cy="-376.64" rx="115.88" ry="18"/>
<text text-anchor="middle" x="788.78" y="-372.94" font-family="Times,serif" font-size="14.00">&#45;6,&#45;1 (item=agar Agar)</text>
</g>
<!-- &#45;5,&#45;4 (low priority (slaked)? lime)&#45;&gt;&#45;6,&#45;1 (item=agar Agar) -->
<g id="edge4" class="edge">
<title>&#45;5,&#45;4 (low priority (slaked)? lime)&#45;&gt;&#45;6,&#45;1 (item=agar Agar)</title>
<path fill="none" stroke="black" stroke-width="0.61" d="M448.42,-36.28C507.79,-95.66 695.35,-283.21 763.62,-351.48"/>
<polygon fill="black" stroke="black" stroke-width="0.61" points="761.42,-354.23 770.97,-358.83 766.37,-349.28 761.42,-354.23"/>
<text text-anchor="middle" x="516.02" y="-197.68" font-family="Times,serif" font-size="14.00">slacked&#45;lime&#45;barrel*3656</text>
</g>
<!-- &#45;2,6 (Wrong ratio of Calcium Carbide to Acetalene) -->
<g id="node3" class="node">
<title>&#45;2,6 (Wrong ratio of Calcium Carbide to Acetalene)</title>
<ellipse fill="none" stroke="black" cx="430.14" cy="-735.29" rx="245.86" ry="18"/>
<text text-anchor="middle" x="430.14" y="-731.59" font-family="Times,serif" font-size="14.00">&#45;2,6 (Wrong ratio of Calcium Carbide to Acetalene)</text>
</g>
<!-- &#45;2,6 (Wrong ratio of Calcium Carbide to Acetalene)&#45;&gt;0,0 (LE BUS) -->
<g id="edge3" class="edge">
<title>&#45;2,6 (Wrong ratio of Calcium Carbide to Acetalene)&#45;&gt;0,0 (LE BUS)</title>
<path fill="none" stroke="black" stroke-width="0.02" d="M411.86,-717.01C352.48,-657.63 164.92,-470.08 96.66,-401.81"/>
<polygon fill="black" stroke="black" stroke-width="0.02" points="98.86,-399.06 89.31,-394.46 93.91,-404.01 98.86,-399.06"/>
<text text-anchor="middle" x="168.76" y="-563.21" font-family="Times,serif" font-size="14.00">slacked&#45;lime&#45;barrel*144</text>
</g>
<!-- &#45;2,6 (Wrong ratio of Calcium Carbide to Acetalene)&#45;&gt;&#45;6,&#45;1 (item=agar Agar) -->
<g id="edge2" class="edge">
<title>&#45;2,6 (Wrong ratio of Calcium Carbide to Acetalene)&#45;&gt;&#45;6,&#45;1 (item=agar Agar)</title>
<path fill="none" stroke="black" stroke-width="2.86" d="M448.42,-717.01C507.79,-657.63 695.35,-470.08 763.62,-401.81"/>
<polygon fill="black" stroke="black" stroke-width="2.86" points="766.37,-404.01 770.97,-394.46 761.42,-399.06 766.37,-404.01"/>
<text text-anchor="middle" x="511.52" y="-563.21" font-family="Times,serif" font-size="14.00">slacked&#45;lime&#45;barrel*17151</text>
</g>
</g>
</svg>
