<?xml version="1.0" encoding="UTF-8" standalone="no"?>
<!DOCTYPE svg PUBLIC "-//W3C//DTD SVG 1.1//EN"
 "http://www.w3.org/Graphics/SVG/1.1/DTD/svg11.dtd">
<!-- Generated by graphviz version 2.43.0 (0)
 -->
<!-- Title: %3 Pages: 1 -->
<svg width="1833pt" height="1482pt"
 viewBox="0.00 0.00 1832.64 1482.39" xmlns="http://www.w3.org/2000/svg" xmlns:xlink="http://www.w3.org/1999/xlink">
<g id="graph0" class="graph" transform="scale(1 1) rotate(0) translate(4 1478.39)">
<title>%3</title>
<polygon fill="white" stroke="transparent" points="-4,4 -4,-1478.39 1828.64,-1478.39 1828.64,4 -4,4"/>
<!-- 4,5 (Yet More Raw Fiber) -->
<g id="node1" class="node">
<title>4,5 (Yet More Raw Fiber)</title>
<ellipse fill="none" stroke="black" cx="128.04" cy="-417.12" rx="128.08" ry="18"/>
<text text-anchor="middle" x="128.04" y="-413.42" font-family="Times,serif" font-size="14.00">4,5 (Yet More Raw Fiber)</text>
</g>
<!-- &#45;5,&#45;2 (item=auog Auog beach resort and cannibal workhouse) -->
<g id="node2" class="node">
<title>&#45;5,&#45;2 (item=auog Auog beach resort and cannibal workhouse)</title>
<ellipse fill="none" stroke="black" cx="1252.61" cy="-1313.94" rx="295.15" ry="18"/>
<text text-anchor="middle" x="1252.61" y="-1310.24" font-family="Times,serif" font-size="14.00">&#45;5,&#45;2 (item=auog Auog beach resort and cannibal workhouse)</text>
</g>
<!-- 4,5 (Yet More Raw Fiber)&#45;&gt;&#45;5,&#45;2 (item=auog Auog beach resort and cannibal workhouse) -->
<g id="edge1" class="edge">
<title>4,5 (Yet More Raw Fiber)&#45;&gt;&#45;5,&#45;2 (item=auog Auog beach resort and cannibal workhouse)</title>
<path fill="none" stroke="black" stroke-width="2.71" d="M150.5,-435.04C291.92,-547.81 1058.36,-1159.03 1221.9,-1289.45"/>
<polygon fill="black" stroke="black" stroke-width="2.71" points="1220.1,-1292.49 1230.1,-1295.98 1224.46,-1287.01 1220.1,-1292.49"/>
<text text-anchor="middle" x="627.2" y="-866.04" font-family="Times,serif" font-size="14.00">raw&#45;fiber*44656</text>
</g>
<!-- &#45;1,7 (Rayon) -->
<g id="node6" class="node">
<title>&#45;1,7 (Rayon)</title>
<ellipse fill="none" stroke="black" cx="628.52" cy="-18" rx="66.89" ry="18"/>
<text text-anchor="middle" x="628.52" y="-14.3" font-family="Times,serif" font-size="14.00">&#45;1,7 (Rayon)</text>
</g>
<!-- 4,5 (Yet More Raw Fiber)&#45;&gt;&#45;1,7 (Rayon) -->
<g id="edge8" class="edge">
<title>4,5 (Yet More Raw Fiber)&#45;&gt;&#45;1,7 (Rayon)</title>
<path fill="none" stroke="black" stroke-width="0.61" d="M150.52,-399.2C231.4,-334.7 507.64,-114.4 598.95,-41.58"/>
<polygon fill="black" stroke="black" stroke-width="0.61" points="601.32,-44.17 606.95,-35.2 596.95,-38.7 601.32,-44.17"/>
<text text-anchor="middle" x="315.74" y="-224.19" font-family="Times,serif" font-size="14.00">raw&#45;fiber*10016</text>
</g>
<!-- 4,1 (item=filtration&#45;media Filtration Media) -->
<g id="node7" class="node">
<title>4,1 (item=filtration&#45;media Filtration Media)</title>
<ellipse fill="none" stroke="black" cx="1252.61" cy="-160.45" rx="214.46" ry="18"/>
<text text-anchor="middle" x="1252.61" y="-156.75" font-family="Times,serif" font-size="14.00">4,1 (item=filtration&#45;media Filtration Media)</text>
</g>
<!-- 4,5 (Yet More Raw Fiber)&#45;&gt;4,1 (item=filtration&#45;media Filtration Media) -->
<g id="edge6" class="edge">
<title>4,5 (Yet More Raw Fiber)&#45;&gt;4,1 (item=filtration&#45;media Filtration Media)</title>
<path fill="none" stroke="black" stroke-width="0.61" d="M195.44,-401.74C390.3,-357.26 954.11,-228.58 1168.51,-179.64"/>
<polygon fill="black" stroke="black" stroke-width="0.61" points="1169.49,-183.01 1178.46,-177.37 1167.93,-176.18 1169.49,-183.01"/>
<text text-anchor="middle" x="622.97" y="-294.49" font-family="Times,serif" font-size="14.00">raw&#45;fiber*10112</text>
</g>
<!-- &#45;1,8 (Fibre via. moss) -->
<g id="node3" class="node">
<title>&#45;1,8 (Fibre via. moss)</title>
<ellipse fill="none" stroke="black" cx="1530.36" cy="-737.19" rx="109.38" ry="18"/>
<text text-anchor="middle" x="1530.36" y="-733.49" font-family="Times,serif" font-size="14.00">&#45;1,8 (Fibre via. moss)</text>
</g>
<!-- &#45;1,8 (Fibre via. moss)&#45;&gt;&#45;5,&#45;2 (item=auog Auog beach resort and cannibal workhouse) -->
<g id="edge5" class="edge">
<title>&#45;1,8 (Fibre via. moss)&#45;&gt;&#45;5,&#45;2 (item=auog Auog beach resort and cannibal workhouse)</title>
<path fill="none" stroke="black" stroke-width="1.87" d="M1521.59,-755.41C1481.34,-838.98 1314.25,-1185.96 1265.82,-1286.52"/>
<polygon fill="black" stroke="black" stroke-width="1.87" points="1262.57,-1285.19 1261.39,-1295.72 1268.88,-1288.23 1262.57,-1285.19"/>
<text text-anchor="middle" x="1334.71" y="-1024.76" font-family="Times,serif" font-size="14.00">raw&#45;fiber*30768</text>
</g>
<!-- 4,2 (More fiberboard) -->
<g id="node4" class="node">
<title>4,2 (More fiberboard)</title>
<ellipse fill="none" stroke="black" cx="1713.5" cy="-737.19" rx="111.28" ry="18"/>
<text text-anchor="middle" x="1713.5" y="-733.49" font-family="Times,serif" font-size="14.00">4,2 (More fiberboard)</text>
</g>
<!-- &#45;1,8 (Fibre via. moss)&#45;&gt;4,2 (More fiberboard) -->
<g id="edge2" class="edge">
<title>&#45;1,8 (Fibre via. moss)&#45;&gt;4,2 (More fiberboard)</title>
<path fill="none" stroke="black" stroke-width="0.78" d="M1639.8,-737.19C1639.88,-737.19 1639.96,-737.19 1640.03,-737.19"/>
<polygon fill="black" stroke="black" stroke-width="0.78" points="1630.26,-740.7 1640.26,-737.19 1630.26,-733.7 1630.26,-740.7"/>
<text text-anchor="middle" x="1698.92" y="-740.99" font-family="Times,serif" font-size="14.00">raw&#45;fiber*12896</text>
</g>
<!-- &#45;1,8 (Fibre via. moss)&#45;&gt;&#45;1,7 (Rayon) -->
<g id="edge4" class="edge">
<title>&#45;1,8 (Fibre via. moss)&#45;&gt;&#45;1,7 (Rayon)</title>
<path fill="none" stroke="black" stroke-width="0.3" d="M1508.07,-719.42C1385.86,-621.95 797.6,-152.84 658.19,-41.66"/>
<polygon fill="black" stroke="black" stroke-width="0.3" points="660.04,-38.66 650.04,-35.16 655.67,-44.13 660.04,-38.66"/>
<text text-anchor="middle" x="1028.63" y="-384.34" font-family="Times,serif" font-size="14.00">raw&#45;fiber*5008</text>
</g>
<!-- &#45;1,8 (Fibre via. moss)&#45;&gt;4,1 (item=filtration&#45;media Filtration Media) -->
<g id="edge9" class="edge">
<title>&#45;1,8 (Fibre via. moss)&#45;&gt;4,1 (item=filtration&#45;media Filtration Media)</title>
<path fill="none" stroke="black" stroke-width="0.61" d="M1521.59,-718.98C1481.34,-635.41 1314.25,-288.43 1265.82,-187.87"/>
<polygon fill="black" stroke="black" stroke-width="0.61" points="1268.88,-186.15 1261.39,-178.66 1262.57,-189.19 1268.88,-186.15"/>
<text text-anchor="middle" x="1334.71" y="-457.22" font-family="Times,serif" font-size="14.00">raw&#45;fiber*10128</text>
</g>
<!-- 2,4 (Formica and Phenolic boards) -->
<g id="node8" class="node">
<title>2,4 (Formica and Phenolic boards)</title>
<ellipse fill="none" stroke="black" cx="628.52" cy="-1456.39" rx="169.77" ry="18"/>
<text text-anchor="middle" x="628.52" y="-1452.69" font-family="Times,serif" font-size="14.00">2,4 (Formica and Phenolic boards)</text>
</g>
<!-- &#45;1,8 (Fibre via. moss)&#45;&gt;2,4 (Formica and Phenolic boards) -->
<g id="edge7" class="edge">
<title>&#45;1,8 (Fibre via. moss)&#45;&gt;2,4 (Formica and Phenolic boards)</title>
<path fill="none" stroke="black" stroke-width="0.92" d="M1508.07,-754.97C1386.13,-852.21 800.27,-1319.43 659.15,-1431.96"/>
<polygon fill="black" stroke="black" stroke-width="0.92" points="656.89,-1429.29 651.25,-1438.26 661.25,-1434.76 656.89,-1429.29"/>
<text text-anchor="middle" x="1024.61" y="-1097.27" font-family="Times,serif" font-size="14.00">raw&#45;fiber*15200</text>
</g>
<!-- 6,2 () -->
<g id="node5" class="node">
<title>6,2 ()</title>
<ellipse fill="none" stroke="black" cx="128.04" cy="-1057.26" rx="35.19" ry="18"/>
<text text-anchor="middle" x="128.04" y="-1053.56" font-family="Times,serif" font-size="14.00">6,2 ()</text>
</g>
<!-- 6,2 ()&#45;&gt;&#45;5,&#45;2 (item=auog Auog beach resort and cannibal workhouse) -->
<g id="edge3" class="edge">
<title>6,2 ()&#45;&gt;&#45;5,&#45;2 (item=auog Auog beach resort and cannibal workhouse)</title>
<path fill="none" stroke="black" stroke-width="0.97" d="M160.18,-1064.6C309.11,-1098.59 934.55,-1241.35 1166.01,-1294.17"/>
<polygon fill="black" stroke="black" stroke-width="0.97" points="1165.54,-1297.66 1176.06,-1296.47 1167.09,-1290.83 1165.54,-1297.66"/>
<text text-anchor="middle" x="604.09" y="-1183.19" font-family="Times,serif" font-size="14.00">raw&#45;fiber*16032</text>
</g>
<!-- 6,2 ()&#45;&gt;2,4 (Formica and Phenolic boards) -->
<g id="edge10" class="edge">
<title>6,2 ()&#45;&gt;2,4 (Formica and Phenolic boards)</title>
<path fill="none" stroke="black" stroke-width="0.61" d="M147.05,-1072.42C222.88,-1132.89 504.17,-1357.22 597.9,-1431.97"/>
<polygon fill="black" stroke="black" stroke-width="0.61" points="595.87,-1434.82 605.87,-1438.32 600.23,-1429.35 595.87,-1434.82"/>
<text text-anchor="middle" x="313.48" y="-1256" font-family="Times,serif" font-size="14.00">raw&#45;fiber*10000</text>
</g>
</g>
</svg>
