<?xml version="1.0" encoding="UTF-8" standalone="no"?>
<!DOCTYPE svg PUBLIC "-//W3C//DTD SVG 1.1//EN"
 "http://www.w3.org/Graphics/SVG/1.1/DTD/svg11.dtd">
<!-- Generated by graphviz version 2.43.0 (0)
 -->
<!-- Title: %3 Pages: 1 -->
<svg width="895pt" height="672pt"
 viewBox="0.00 0.00 895.09 671.87" xmlns="http://www.w3.org/2000/svg" xmlns:xlink="http://www.w3.org/1999/xlink">
<g id="graph0" class="graph" transform="scale(1 1) rotate(0) translate(4 667.87)">
<title>%3</title>
<polygon fill="white" stroke="transparent" points="-4,4 -4,-667.87 891.09,-667.87 891.09,4 -4,4"/>
<!-- 2,0 (Sodium Sulfate) -->
<g id="node1" class="node">
<title>2,0 (Sodium Sulfate)</title>
<ellipse fill="none" stroke="black" cx="448.52" cy="-332.25" rx="106.68" ry="18"/>
<text text-anchor="middle" x="448.52" y="-328.55" font-family="Times,serif" font-size="14.00">2,0 (Sodium Sulfate)</text>
</g>
<!-- &#45;2,5 (Rare Earth Oxides) -->
<g id="node2" class="node">
<title>&#45;2,5 (Rare Earth Oxides)</title>
<ellipse fill="none" stroke="black" cx="762.95" cy="-332.25" rx="124.28" ry="18"/>
<text text-anchor="middle" x="762.95" y="-328.55" font-family="Times,serif" font-size="14.00">&#45;2,5 (Rare Earth Oxides)</text>
</g>
<!-- 2,0 (Sodium Sulfate)&#45;&gt;&#45;2,5 (Rare Earth Oxides) -->
<g id="edge1" class="edge">
<title>2,0 (Sodium Sulfate)&#45;&gt;&#45;2,5 (Rare Earth Oxides)</title>
<path fill="none" stroke="black" stroke-width="2.59" d="M555.41,-332.25C578.96,-332.25 604.19,-332.25 628.67,-332.25"/>
<polygon fill="black" stroke="black" stroke-width="2.59" points="628.74,-335.75 638.74,-332.25 628.74,-328.75 628.74,-335.75"/>
<text text-anchor="middle" x="592.04" y="-321.05" font-family="Times,serif" font-size="14.00">sulfuric&#45;acid&#45;barrel*40500</text>
</g>
<!-- &#45;3,6 () -->
<g id="node3" class="node">
<title>&#45;3,6 ()</title>
<ellipse fill="none" stroke="black" cx="470.92" cy="-645.87" rx="38.19" ry="18"/>
<text text-anchor="middle" x="470.92" y="-642.17" font-family="Times,serif" font-size="14.00">&#45;3,6 ()</text>
</g>
<!-- 2,0 (Sodium Sulfate)&#45;&gt;&#45;3,6 () -->
<g id="edge2" class="edge">
<title>2,0 (Sodium Sulfate)&#45;&gt;&#45;3,6 ()</title>
<path fill="none" stroke="black" stroke-width="0.59" d="M449.82,-350.46C453.57,-402.86 464.38,-554.26 468.9,-617.54"/>
<polygon fill="black" stroke="black" stroke-width="0.59" points="465.42,-617.88 469.62,-627.61 472.4,-617.38 465.42,-617.88"/>
<text text-anchor="middle" x="369.86" y="-487.8" font-family="Times,serif" font-size="14.00">sulfuric&#45;acid&#45;barrel*9255</text>
</g>
<!-- &#45;7,&#45;2 (Uranium Processing) -->
<g id="node4" class="node">
<title>&#45;7,&#45;2 (Uranium Processing)</title>
<ellipse fill="none" stroke="black" cx="135.84" cy="-365.33" rx="135.68" ry="18"/>
<text text-anchor="middle" x="135.84" y="-361.63" font-family="Times,serif" font-size="14.00">&#45;7,&#45;2 (Uranium Processing)</text>
</g>
<!-- 2,0 (Sodium Sulfate)&#45;&gt;&#45;7,&#45;2 (Uranium Processing) -->
<g id="edge3" class="edge">
<title>2,0 (Sodium Sulfate)&#45;&gt;&#45;7,&#45;2 (Uranium Processing)</title>
<path fill="none" stroke="black" stroke-width="0.72" d="M358.08,-341.82C325.08,-345.31 287.29,-349.31 252.35,-353"/>
<polygon fill="black" stroke="black" stroke-width="0.72" points="251.67,-349.56 242.09,-354.09 252.4,-356.52 251.67,-349.56"/>
<text text-anchor="middle" x="211.21" y="-336.21" font-family="Times,serif" font-size="14.00">sulfuric&#45;acid&#45;barrel*11287</text>
</g>
<!-- 0,0 (LE BUS) -->
<g id="node5" class="node">
<title>0,0 (LE BUS)</title>
<ellipse fill="none" stroke="black" cx="437.8" cy="-18" rx="71.49" ry="18"/>
<text text-anchor="middle" x="437.8" y="-14.3" font-family="Times,serif" font-size="14.00">0,0 (LE BUS)</text>
</g>
<!-- 2,0 (Sodium Sulfate)&#45;&gt;0,0 (LE BUS) -->
<g id="edge4" class="edge">
<title>2,0 (Sodium Sulfate)&#45;&gt;0,0 (LE BUS)</title>
<path fill="none" stroke="black" stroke-width="0.09" d="M447.9,-313.99C446.11,-261.49 440.93,-109.79 438.77,-46.39"/>
<polygon fill="black" stroke="black" stroke-width="0.09" points="442.26,-46.18 438.42,-36.3 435.27,-46.42 442.26,-46.18"/>
<text text-anchor="middle" x="353.83" y="-183.99" font-family="Times,serif" font-size="14.00">sulfuric&#45;acid&#45;barrel*1456</text>
</g>
</g>
</svg>
