<?xml version="1.0" encoding="UTF-8" standalone="no"?>
<!DOCTYPE svg PUBLIC "-//W3C//DTD SVG 1.1//EN"
 "http://www.w3.org/Graphics/SVG/1.1/DTD/svg11.dtd">
<!-- Generated by graphviz version 2.43.0 (0)
 -->
<!-- Title: %3 Pages: 1 -->
<svg width="1174pt" height="44pt"
 viewBox="0.00 0.00 1173.71 44.00" xmlns="http://www.w3.org/2000/svg" xmlns:xlink="http://www.w3.org/1999/xlink">
<g id="graph0" class="graph" transform="scale(1 1) rotate(0) translate(4 40)">
<title>%3</title>
<polygon fill="white" stroke="transparent" points="-4,4 -4,-40 1169.71,-40 1169.71,4 -4,4"/>
<!-- &#45;6,&#45;8 (fluid=z3&#45;reagent Help, how do I make Z3?) -->
<g id="node1" class="node">
<title>&#45;6,&#45;8 (fluid=z3&#45;reagent Help, how do I make Z3?)</title>
<ellipse fill="none" stroke="black" cx="237.23" cy="-18" rx="237.46" ry="18"/>
<text text-anchor="middle" x="237.23" y="-14.3" font-family="Times,serif" font-size="14.00">&#45;6,&#45;8 (fluid=z3&#45;reagent Help, how do I make Z3?)</text>
</g>
<!-- &#45;3,2 (Lead and Solder) -->
<g id="node2" class="node">
<title>&#45;3,2 (Lead and Solder)</title>
<ellipse fill="none" stroke="black" cx="660.2" cy="-18" rx="113.98" ry="18"/>
<text text-anchor="middle" x="660.2" y="-14.3" font-family="Times,serif" font-size="14.00">&#45;3,2 (Lead and Solder)</text>
</g>
<!-- &#45;6,&#45;8 (fluid=z3&#45;reagent Help, how do I make Z3?)&#45;&gt;&#45;3,2 (Lead and Solder) -->
<g id="edge1" class="edge">
<title>&#45;6,&#45;8 (fluid=z3&#45;reagent Help, how do I make Z3?)&#45;&gt;&#45;3,2 (Lead and Solder)</title>
<path fill="none" stroke="black" stroke-width="1.69" d="M474.68,-18C495.84,-18 516.66,-18 536.26,-18"/>
<polygon fill="black" stroke="black" stroke-width="1.69" points="536.39,-21.5 546.39,-18 536.39,-14.5 536.39,-21.5"/>
<text text-anchor="middle" x="505.47" y="-6.8" font-family="Times,serif" font-size="14.00">molten&#45;tin&#45;barrel*4492</text>
</g>
<!-- 2,&#45;2 (Tin Plate, Organic Solvent) -->
<g id="node3" class="node">
<title>2,&#45;2 (Tin Plate, Organic Solvent)</title>
<ellipse fill="none" stroke="black" cx="1005.82" cy="-18" rx="159.77" ry="18"/>
<text text-anchor="middle" x="1005.82" y="-14.3" font-family="Times,serif" font-size="14.00">2,&#45;2 (Tin Plate, Organic Solvent)</text>
</g>
<!-- 2,&#45;2 (Tin Plate, Organic Solvent)&#45;&gt;&#45;3,2 (Lead and Solder) -->
<g id="edge2" class="edge">
<title>2,&#45;2 (Tin Plate, Organic Solvent)&#45;&gt;&#45;3,2 (Lead and Solder)</title>
<path fill="none" stroke="black" stroke-width="0.31" d="M845.91,-18C825.2,-18 804.24,-18 784.23,-18"/>
<polygon fill="black" stroke="black" stroke-width="0.31" points="784.17,-14.5 774.17,-18 784.17,-21.5 784.17,-14.5"/>
<text text-anchor="middle" x="776.07" y="-6.8" font-family="Times,serif" font-size="14.00">molten&#45;tin&#45;barrel*832</text>
</g>
</g>
</svg>
