<?xml version="1.0" encoding="UTF-8" standalone="no"?>
<!DOCTYPE svg PUBLIC "-//W3C//DTD SVG 1.1//EN"
 "http://www.w3.org/Graphics/SVG/1.1/DTD/svg11.dtd">
<!-- Generated by graphviz version 2.43.0 (0)
 -->
<!-- Title: %3 Pages: 1 -->
<svg width="1042pt" height="826pt"
 viewBox="0.00 0.00 1042.22 826.01" xmlns="http://www.w3.org/2000/svg" xmlns:xlink="http://www.w3.org/1999/xlink">
<g id="graph0" class="graph" transform="scale(1 1) rotate(0) translate(4 822.01)">
<title>%3</title>
<polygon fill="white" stroke="transparent" points="-4,4 -4,-822.01 1038.22,-822.01 1038.22,4 -4,4"/>
<!-- 2,10 (Nickel plate) -->
<g id="node1" class="node">
<title>2,10 (Nickel plate)</title>
<ellipse fill="none" stroke="black" cx="532.61" cy="-371.63" rx="96.68" ry="18"/>
<text text-anchor="middle" x="532.61" y="-367.93" font-family="Times,serif" font-size="14.00">2,10 (Nickel plate)</text>
</g>
<!-- 4,&#45;1 (Fluid) -->
<g id="node2" class="node">
<title>4,&#45;1 (Fluid)</title>
<ellipse fill="none" stroke="black" cx="972.48" cy="-371.63" rx="61.99" ry="18"/>
<text text-anchor="middle" x="972.48" y="-367.93" font-family="Times,serif" font-size="14.00">4,&#45;1 (Fluid)</text>
</g>
<!-- 2,10 (Nickel plate)&#45;&gt;4,&#45;1 (Fluid) -->
<g id="edge1" class="edge">
<title>2,10 (Nickel plate)&#45;&gt;4,&#45;1 (Fluid)</title>
<path fill="none" stroke="black" stroke-width="0.6" d="M629.69,-371.63C711.48,-371.63 826.65,-371.63 900.44,-371.63"/>
<polygon fill="black" stroke="black" stroke-width="0.6" points="900.57,-375.13 910.57,-371.63 900.57,-368.13 900.57,-375.13"/>
<text text-anchor="middle" x="710.06" y="-375.43" font-family="Times,serif" font-size="14.00">nichrome*2016</text>
</g>
<!-- 1,9 (Ammunition) -->
<g id="node3" class="node">
<title>1,9 (Ammunition)</title>
<ellipse fill="none" stroke="black" cx="432.73" cy="-800.01" rx="91.78" ry="18"/>
<text text-anchor="middle" x="432.73" y="-796.31" font-family="Times,serif" font-size="14.00">1,9 (Ammunition)</text>
</g>
<!-- 2,10 (Nickel plate)&#45;&gt;1,9 (Ammunition) -->
<g id="edge2" class="edge">
<title>2,10 (Nickel plate)&#45;&gt;1,9 (Ammunition)</title>
<path fill="none" stroke="black" stroke-width="0.6" d="M528.38,-389.77C512.78,-456.67 458.38,-690.01 439.36,-771.59"/>
<polygon fill="black" stroke="black" stroke-width="0.6" points="435.88,-771.1 437.02,-781.63 442.7,-772.69 435.88,-771.1"/>
<text text-anchor="middle" x="428.87" y="-584.48" font-family="Times,serif" font-size="14.00">nichrome*2016</text>
</g>
<!-- 4,4 (Hydrogen Chloride, item=nylon Nylon/Nylon parts) -->
<g id="node4" class="node">
<title>4,4 (Hydrogen Chloride, item=nylon Nylon/Nylon parts)</title>
<ellipse fill="none" stroke="black" cx="271.03" cy="-18" rx="271.05" ry="18"/>
<text text-anchor="middle" x="271.03" y="-14.3" font-family="Times,serif" font-size="14.00">4,4 (Hydrogen Chloride, item=nylon Nylon/Nylon parts)</text>
</g>
<!-- 2,10 (Nickel plate)&#45;&gt;4,4 (Hydrogen Chloride, item=nylon Nylon/Nylon parts) -->
<g id="edge3" class="edge">
<title>2,10 (Nickel plate)&#45;&gt;4,4 (Hydrogen Chloride, item=nylon Nylon/Nylon parts)</title>
<path fill="none" stroke="black" stroke-width="1.8" d="M519.28,-353.61C476.25,-295.44 340.91,-112.47 290.34,-44.11"/>
<polygon fill="black" stroke="black" stroke-width="1.8" points="293.09,-41.94 284.33,-35.99 287.46,-46.11 293.09,-41.94"/>
<text text-anchor="middle" x="349.81" y="-202.66" font-family="Times,serif" font-size="14.00">nichrome*6017</text>
</g>
</g>
</svg>
