<?xml version="1.0" encoding="UTF-8" standalone="no"?>
<!DOCTYPE svg PUBLIC "-//W3C//DTD SVG 1.1//EN"
 "http://www.w3.org/Graphics/SVG/1.1/DTD/svg11.dtd">
<!-- Generated by graphviz version 2.43.0 (0)
 -->
<!-- Title: %3 Pages: 1 -->
<svg width="1036pt" height="941pt"
 viewBox="0.00 0.00 1035.82 940.87" xmlns="http://www.w3.org/2000/svg" xmlns:xlink="http://www.w3.org/1999/xlink">
<g id="graph0" class="graph" transform="scale(1 1) rotate(0) translate(4 936.87)">
<title>%3</title>
<polygon fill="white" stroke="transparent" points="-4,4 -4,-936.87 1031.82,-936.87 1031.82,4 -4,4"/>
<!-- 3,11 (Sap, Sodium Hydroxide) -->
<g id="node1" class="node">
<title>3,11 (Sap, Sodium Hydroxide)</title>
<ellipse fill="none" stroke="black" cx="504.11" cy="-466.14" rx="150.57" ry="18"/>
<text text-anchor="middle" x="504.11" y="-462.44" font-family="Times,serif" font-size="14.00">3,11 (Sap, Sodium Hydroxide)</text>
</g>
<!-- 0,0 (LE BUS) -->
<g id="node2" class="node">
<title>0,0 (LE BUS)</title>
<ellipse fill="none" stroke="black" cx="956.33" cy="-466.14" rx="71.49" ry="18"/>
<text text-anchor="middle" x="956.33" y="-462.44" font-family="Times,serif" font-size="14.00">0,0 (LE BUS)</text>
</g>
<!-- 3,11 (Sap, Sodium Hydroxide)&#45;&gt;0,0 (LE BUS) -->
<g id="edge1" class="edge">
<title>3,11 (Sap, Sodium Hydroxide)&#45;&gt;0,0 (LE BUS)</title>
<path fill="none" stroke="black" stroke-width="0.26" d="M655.01,-466.14C728.21,-466.14 813.29,-466.14 874.33,-466.14"/>
<polygon fill="black" stroke="black" stroke-width="0.26" points="874.68,-469.64 884.68,-466.14 874.68,-462.64 874.68,-469.64"/>
<text text-anchor="middle" x="722.17" y="-469.94" font-family="Times,serif" font-size="14.00">saps*12320</text>
</g>
<!-- 0,12 (Latex duplicate) -->
<g id="node3" class="node">
<title>0,12 (Latex duplicate)</title>
<ellipse fill="none" stroke="black" cx="560.19" cy="-914.87" rx="112.38" ry="18"/>
<text text-anchor="middle" x="560.19" y="-911.17" font-family="Times,serif" font-size="14.00">0,12 (Latex duplicate)</text>
</g>
<!-- 3,11 (Sap, Sodium Hydroxide)&#45;&gt;0,12 (Latex duplicate) -->
<g id="edge2" class="edge">
<title>3,11 (Sap, Sodium Hydroxide)&#45;&gt;0,12 (Latex duplicate)</title>
<path fill="none" stroke="black" stroke-width="0.11" d="M506.38,-484.29C515.04,-553.56 546.04,-801.69 556.62,-886.33"/>
<polygon fill="black" stroke="black" stroke-width="0.11" points="553.18,-887 557.89,-896.49 560.12,-886.14 553.18,-887"/>
<text text-anchor="middle" x="493.5" y="-689.11" font-family="Times,serif" font-size="14.00">saps*5136</text>
</g>
<!-- 2,14 (Latex) -->
<g id="node4" class="node">
<title>2,14 (Latex)</title>
<ellipse fill="none" stroke="black" cx="66.94" cy="-581.83" rx="66.89" ry="18"/>
<text text-anchor="middle" x="66.94" y="-578.13" font-family="Times,serif" font-size="14.00">2,14 (Latex)</text>
</g>
<!-- 3,11 (Sap, Sodium Hydroxide)&#45;&gt;2,14 (Latex) -->
<g id="edge3" class="edge">
<title>3,11 (Sap, Sodium Hydroxide)&#45;&gt;2,14 (Latex)</title>
<path fill="none" stroke="black" stroke-width="2.34" d="M441.94,-482.59C357.22,-505.01 206.67,-544.85 124.45,-566.61"/>
<polygon fill="black" stroke="black" stroke-width="2.34" points="123.54,-563.23 114.77,-569.17 125.33,-570 123.54,-563.23"/>
<text text-anchor="middle" x="236.2" y="-528.4" font-family="Times,serif" font-size="14.00">saps*112880</text>
</g>
<!-- &#45;1,12 (I can&#39;t believe it&#39;s more latex duplicates) -->
<g id="node5" class="node">
<title>&#45;1,12 (I can&#39;t believe it&#39;s more latex duplicates)</title>
<ellipse fill="none" stroke="black" cx="443.52" cy="-18" rx="229.36" ry="18"/>
<text text-anchor="middle" x="443.52" y="-14.3" font-family="Times,serif" font-size="14.00">&#45;1,12 (I can&#39;t believe it&#39;s more latex duplicates)</text>
</g>
<!-- 3,11 (Sap, Sodium Hydroxide)&#45;&gt;&#45;1,12 (I can&#39;t believe it&#39;s more latex duplicates) -->
<g id="edge4" class="edge">
<title>3,11 (Sap, Sodium Hydroxide)&#45;&gt;&#45;1,12 (I can&#39;t believe it&#39;s more latex duplicates)</title>
<path fill="none" stroke="black" stroke-width="1.29" d="M501.66,-448.02C492.31,-378.84 458.81,-131.03 447.38,-46.49"/>
<polygon fill="black" stroke="black" stroke-width="1.29" points="450.81,-45.79 446.01,-36.35 443.88,-46.73 450.81,-45.79"/>
<text text-anchor="middle" x="432.02" y="-251.06" font-family="Times,serif" font-size="14.00">saps*62384</text>
</g>
</g>
</svg>
