<?xml version="1.0" encoding="UTF-8" standalone="no"?>
<!DOCTYPE svg PUBLIC "-//W3C//DTD SVG 1.1//EN"
 "http://www.w3.org/Graphics/SVG/1.1/DTD/svg11.dtd">
<!-- Generated by graphviz version 2.43.0 (0)
 -->
<!-- Title: %3 Pages: 1 -->
<svg width="1590pt" height="1120pt"
 viewBox="0.00 0.00 1590.39 1120.02" xmlns="http://www.w3.org/2000/svg" xmlns:xlink="http://www.w3.org/1999/xlink">
<g id="graph0" class="graph" transform="scale(1 1) rotate(0) translate(4 1116.02)">
<title>%3</title>
<polygon fill="white" stroke="transparent" points="-4,4 -4,-1116.02 1586.39,-1116.02 1586.39,4 -4,4"/>
<!-- &#45;3,2 (Lead and Solder) -->
<g id="node1" class="node">
<title>&#45;3,2 (Lead and Solder)</title>
<ellipse fill="none" stroke="black" cx="900.1" cy="-547.67" rx="113.98" ry="18"/>
<text text-anchor="middle" x="900.1" y="-543.97" font-family="Times,serif" font-size="14.00">&#45;3,2 (Lead and Solder)</text>
</g>
<!-- &#45;9,&#45;10 (Bedding and cages) -->
<g id="node2" class="node">
<title>&#45;9,&#45;10 (Bedding and cages)</title>
<ellipse fill="none" stroke="black" cx="1447.85" cy="-547.67" rx="134.58" ry="18"/>
<text text-anchor="middle" x="1447.85" y="-543.97" font-family="Times,serif" font-size="14.00">&#45;9,&#45;10 (Bedding and cages)</text>
</g>
<!-- &#45;3,2 (Lead and Solder)&#45;&gt;&#45;9,&#45;10 (Bedding and cages) -->
<g id="edge1" class="edge">
<title>&#45;3,2 (Lead and Solder)&#45;&gt;&#45;9,&#45;10 (Bedding and cages)</title>
<path fill="none" stroke="black" stroke-width="1.94" d="M1013.93,-547.67C1097.77,-547.67 1212.43,-547.67 1302.84,-547.67"/>
<polygon fill="black" stroke="black" stroke-width="1.94" points="1302.9,-551.17 1312.9,-547.67 1302.9,-544.17 1302.9,-551.17"/>
<text text-anchor="middle" x="1109.88" y="-551.47" font-family="Times,serif" font-size="14.00">solder*25040</text>
</g>
<!-- 0,0 (LE BUS) -->
<g id="node3" class="node">
<title>0,0 (LE BUS)</title>
<ellipse fill="none" stroke="black" cx="1359.75" cy="-845.6" rx="71.49" ry="18"/>
<text text-anchor="middle" x="1359.75" y="-841.9" font-family="Times,serif" font-size="14.00">0,0 (LE BUS)</text>
</g>
<!-- &#45;3,2 (Lead and Solder)&#45;&gt;0,0 (LE BUS) -->
<g id="edge2" class="edge">
<title>&#45;3,2 (Lead and Solder)&#45;&gt;0,0 (LE BUS)</title>
<path fill="none" stroke="black" stroke-width="2.24" d="M927.13,-565.2C1006.2,-616.45 1236.98,-766.03 1325.05,-823.11"/>
<polygon fill="black" stroke="black" stroke-width="2.24" points="1323.31,-826.15 1333.6,-828.66 1327.12,-820.28 1323.31,-826.15"/>
<text text-anchor="middle" x="1077.59" y="-697.95" font-family="Times,serif" font-size="14.00">solder*28960</text>
</g>
<!-- &#45;1,6 (Flimble&#39;s Slaughterhouse and Daycare Centre, Auog Products) -->
<g id="node4" class="node">
<title>&#45;1,6 (Flimble&#39;s Slaughterhouse and Daycare Centre, Auog Products)</title>
<ellipse fill="none" stroke="black" cx="939.38" cy="-1094.02" rx="325.74" ry="18"/>
<text text-anchor="middle" x="939.38" y="-1090.32" font-family="Times,serif" font-size="14.00">&#45;1,6 (Flimble&#39;s Slaughterhouse and Daycare Centre, Auog Products)</text>
</g>
<!-- &#45;3,2 (Lead and Solder)&#45;&gt;&#45;1,6 (Flimble&#39;s Slaughterhouse and Daycare Centre, Auog Products) -->
<g id="edge3" class="edge">
<title>&#45;3,2 (Lead and Solder)&#45;&gt;&#45;1,6 (Flimble&#39;s Slaughterhouse and Daycare Centre, Auog Products)</title>
<path fill="none" stroke="black" stroke-width="0.93" d="M901.4,-565.85C907.17,-645.98 930.32,-968.01 937.35,-1065.75"/>
<polygon fill="black" stroke="black" stroke-width="0.93" points="933.86,-1066.05 938.07,-1075.77 940.85,-1065.55 933.86,-1066.05"/>
<text text-anchor="middle" x="870.88" y="-819.6" font-family="Times,serif" font-size="14.00">solder*12000</text>
</g>
<!-- &#45;7,&#45;4 (Isomer&#39;s Slaughterhouse and Daycare Centre, Bone Meal, Auog theft) -->
<g id="node5" class="node">
<title>&#45;7,&#45;4 (Isomer&#39;s Slaughterhouse and Daycare Centre, Bone Meal, Auog theft)</title>
<ellipse fill="none" stroke="black" cx="362.02" cy="-650.19" rx="362.04" ry="18"/>
<text text-anchor="middle" x="362.02" y="-646.49" font-family="Times,serif" font-size="14.00">&#45;7,&#45;4 (Isomer&#39;s Slaughterhouse and Daycare Centre, Bone Meal, Auog theft)</text>
</g>
<!-- &#45;3,2 (Lead and Solder)&#45;&gt;&#45;7,&#45;4 (Isomer&#39;s Slaughterhouse and Daycare Centre, Bone Meal, Auog theft) -->
<g id="edge4" class="edge">
<title>&#45;3,2 (Lead and Solder)&#45;&gt;&#45;7,&#45;4 (Isomer&#39;s Slaughterhouse and Daycare Centre, Bone Meal, Auog theft)</title>
<path fill="none" stroke="black" stroke-width="0.78" d="M827.25,-561.55C733.38,-579.44 569.68,-610.62 463.62,-630.83"/>
<polygon fill="black" stroke="black" stroke-width="0.78" points="462.71,-627.44 453.54,-632.75 464.02,-634.32 462.71,-627.44"/>
<text text-anchor="middle" x="596.93" y="-599.99" font-family="Times,serif" font-size="14.00">solder*10000</text>
</g>
<!-- &#45;3,8 (Urea) -->
<g id="node6" class="node">
<title>&#45;3,8 (Urea)</title>
<ellipse fill="none" stroke="black" cx="511.89" cy="-161.23" rx="61.19" ry="18"/>
<text text-anchor="middle" x="511.89" y="-157.53" font-family="Times,serif" font-size="14.00">&#45;3,8 (Urea)</text>
</g>
<!-- &#45;3,2 (Lead and Solder)&#45;&gt;&#45;3,8 (Urea) -->
<g id="edge5" class="edge">
<title>&#45;3,2 (Lead and Solder)&#45;&gt;&#45;3,8 (Urea)</title>
<path fill="none" stroke="black" stroke-width="0.72" d="M882.15,-529.81C819.42,-467.36 609.82,-258.72 537.05,-186.27"/>
<polygon fill="black" stroke="black" stroke-width="0.72" points="539.2,-183.48 529.65,-178.91 534.27,-188.44 539.2,-183.48"/>
<text text-anchor="middle" x="665.6" y="-361.84" font-family="Times,serif" font-size="14.00">solder*9280</text>
</g>
<!-- 0,10 (item=meat Meat) -->
<g id="node7" class="node">
<title>0,10 (item=meat Meat)</title>
<ellipse fill="none" stroke="black" cx="760.51" cy="-18" rx="120.48" ry="18"/>
<text text-anchor="middle" x="760.51" y="-14.3" font-family="Times,serif" font-size="14.00">0,10 (item=meat Meat)</text>
</g>
<!-- &#45;3,2 (Lead and Solder)&#45;&gt;0,10 (item=meat Meat) -->
<g id="edge6" class="edge">
<title>&#45;3,2 (Lead and Solder)&#45;&gt;0,10 (item=meat Meat)</title>
<path fill="none" stroke="black" stroke-width="0.39" d="M895.29,-529.44C874.59,-450.89 792.94,-141.05 767.87,-45.93"/>
<polygon fill="black" stroke="black" stroke-width="0.39" points="771.23,-44.93 765.29,-36.16 764.46,-46.72 771.23,-44.93"/>
<text text-anchor="middle" x="787.58" y="-291.48" font-family="Times,serif" font-size="14.00">solder*5040</text>
</g>
<!-- &#45;4,1 (item=ulric Ulrics) -->
<g id="node8" class="node">
<title>&#45;4,1 (item=ulric Ulrics)</title>
<ellipse fill="none" stroke="black" cx="1101.61" cy="-38.33" rx="118.08" ry="18"/>
<text text-anchor="middle" x="1101.61" y="-34.63" font-family="Times,serif" font-size="14.00">&#45;4,1 (item=ulric Ulrics)</text>
</g>
<!-- &#45;3,2 (Lead and Solder)&#45;&gt;&#45;4,1 (item=ulric Ulrics) -->
<g id="edge7" class="edge">
<title>&#45;3,2 (Lead and Solder)&#45;&gt;&#45;4,1 (item=ulric Ulrics)</title>
<path fill="none" stroke="black" stroke-width="0.35" d="M907.27,-529.55C937.44,-453.28 1054.2,-158.16 1090.66,-65.99"/>
<polygon fill="black" stroke="black" stroke-width="0.35" points="1093.99,-67.09 1094.42,-56.5 1087.48,-64.51 1093.99,-67.09"/>
<text text-anchor="middle" x="954.97" y="-301.57" font-family="Times,serif" font-size="14.00">solder*4560</text>
</g>
<!-- 0,9 (Auog Brains) -->
<g id="node9" class="node">
<title>0,9 (Auog Brains)</title>
<ellipse fill="none" stroke="black" cx="1348.48" cy="-233.04" rx="91.78" ry="18"/>
<text text-anchor="middle" x="1348.48" y="-229.34" font-family="Times,serif" font-size="14.00">0,9 (Auog Brains)</text>
</g>
<!-- &#45;3,2 (Lead and Solder)&#45;&gt;0,9 (Auog Brains) -->
<g id="edge8" class="edge">
<title>&#45;3,2 (Lead and Solder)&#45;&gt;0,9 (Auog Brains)</title>
<path fill="none" stroke="black" stroke-width="0.64" d="M925.16,-530.08C1001.21,-476.72 1229.33,-316.65 1315.25,-256.36"/>
<polygon fill="black" stroke="black" stroke-width="0.64" points="1317.41,-259.12 1323.59,-250.51 1313.39,-253.39 1317.41,-259.12"/>
<text text-anchor="middle" x="1076.21" y="-397.02" font-family="Times,serif" font-size="14.00">solder*8320</text>
</g>
</g>
</svg>
