<?xml version="1.0" encoding="UTF-8" standalone="no"?>
<!DOCTYPE svg PUBLIC "-//W3C//DTD SVG 1.1//EN"
 "http://www.w3.org/Graphics/SVG/1.1/DTD/svg11.dtd">
<!-- Generated by graphviz version 2.43.0 (0)
 -->
<!-- Title: %3 Pages: 1 -->
<svg width="1023pt" height="710pt"
 viewBox="0.00 0.00 1023.06 710.20" xmlns="http://www.w3.org/2000/svg" xmlns:xlink="http://www.w3.org/1999/xlink">
<g id="graph0" class="graph" transform="scale(1 1) rotate(0) translate(4 706.2)">
<title>%3</title>
<polygon fill="white" stroke="transparent" points="-4,4 -4,-706.2 1019.06,-706.2 1019.06,4 -4,4"/>
<!-- 2,10 (Nickel plate) -->
<g id="node1" class="node">
<title>2,10 (Nickel plate)</title>
<ellipse fill="none" stroke="black" cx="96.84" cy="-344.7" rx="96.68" ry="18"/>
<text text-anchor="middle" x="96.84" y="-341" font-family="Times,serif" font-size="14.00">2,10 (Nickel plate)</text>
</g>
<!-- &#45;2,&#45;3 (Trains) -->
<g id="node2" class="node">
<title>&#45;2,&#45;3 (Trains)</title>
<ellipse fill="none" stroke="black" cx="586.91" cy="-420.9" rx="70.39" ry="18"/>
<text text-anchor="middle" x="586.91" y="-417.2" font-family="Times,serif" font-size="14.00">&#45;2,&#45;3 (Trains)</text>
</g>
<!-- 2,10 (Nickel plate)&#45;&gt;&#45;2,&#45;3 (Trains) -->
<g id="edge1" class="edge">
<title>2,10 (Nickel plate)&#45;&gt;&#45;2,&#45;3 (Trains)</title>
<path fill="none" stroke="black" stroke-width="0.71" d="M171.27,-356.27C265.09,-370.86 425.14,-395.74 516.85,-410"/>
<polygon fill="black" stroke="black" stroke-width="0.71" points="516.45,-413.48 526.86,-411.56 517.52,-406.56 516.45,-413.48"/>
<text text-anchor="middle" x="295.56" y="-386.94" font-family="Times,serif" font-size="14.00">gravel*15008</text>
</g>
<!-- 1,8 (A copper mine, Salt) -->
<g id="node3" class="node">
<title>1,8 (A copper mine, Salt)</title>
<ellipse fill="none" stroke="black" cx="883.43" cy="-439.7" rx="126.18" ry="18"/>
<text text-anchor="middle" x="883.43" y="-436" font-family="Times,serif" font-size="14.00">1,8 (A copper mine, Salt)</text>
</g>
<!-- &#45;2,&#45;3 (Trains)&#45;&gt;1,8 (A copper mine, Salt) -->
<g id="edge2" class="edge">
<title>&#45;2,&#45;3 (Trains)&#45;&gt;1,8 (A copper mine, Salt)</title>
<path fill="none" stroke="black" stroke-width="2.32" d="M655.31,-425.23C685.75,-427.16 722.58,-429.5 757.69,-431.73"/>
<polygon fill="black" stroke="black" stroke-width="2.32" points="757.82,-435.24 768.03,-432.38 758.27,-428.26 757.82,-435.24"/>
<text text-anchor="middle" x="706.5" y="-417.28" font-family="Times,serif" font-size="14.00">gravel*48885</text>
</g>
<!-- 2,0 (Sodium Sulfate) -->
<g id="node8" class="node">
<title>2,0 (Sodium Sulfate)</title>
<ellipse fill="none" stroke="black" cx="908.47" cy="-662.3" rx="106.68" ry="18"/>
<text text-anchor="middle" x="908.47" y="-658.6" font-family="Times,serif" font-size="14.00">2,0 (Sodium Sulfate)</text>
</g>
<!-- &#45;2,&#45;3 (Trains)&#45;&gt;2,0 (Sodium Sulfate) -->
<g id="edge8" class="edge">
<title>&#45;2,&#45;3 (Trains)&#45;&gt;2,0 (Sodium Sulfate)</title>
<path fill="none" stroke="black" stroke-width="1.11" d="M609.78,-438.06C666.22,-480.43 812.23,-590.04 876.87,-638.57"/>
<polygon fill="black" stroke="black" stroke-width="1.11" points="874.98,-641.52 885.07,-644.73 879.18,-635.93 874.98,-641.52"/>
<text text-anchor="middle" x="694.83" y="-542.12" font-family="Times,serif" font-size="14.00">gravel*23328</text>
</g>
<!-- &#45;6,&#45;1 (item=agar Agar) -->
<g id="node9" class="node">
<title>&#45;6,&#45;1 (item=agar Agar)</title>
<ellipse fill="none" stroke="black" cx="623.19" cy="-684.2" rx="115.88" ry="18"/>
<text text-anchor="middle" x="623.19" y="-680.5" font-family="Times,serif" font-size="14.00">&#45;6,&#45;1 (item=agar Agar)</text>
</g>
<!-- &#45;2,&#45;3 (Trains)&#45;&gt;&#45;6,&#45;1 (item=agar Agar) -->
<g id="edge9" class="edge">
<title>&#45;2,&#45;3 (Trains)&#45;&gt;&#45;6,&#45;1 (item=agar Agar)</title>
<path fill="none" stroke="black" stroke-width="0.1" d="M589.41,-438.99C595.62,-484.09 611.83,-601.72 619.31,-656.01"/>
<polygon fill="black" stroke="black" stroke-width="0.1" points="615.85,-656.55 620.68,-665.98 622.78,-655.59 615.85,-656.55"/>
<text text-anchor="middle" x="560.36" y="-551.3" font-family="Times,serif" font-size="14.00">gravel*2112</text>
</g>
<!-- &#45;6,&#45;3 (Chromite Sand) -->
<g id="node4" class="node">
<title>&#45;6,&#45;3 (Chromite Sand)</title>
<ellipse fill="none" stroke="black" cx="410.83" cy="-487.16" rx="110.48" ry="18"/>
<text text-anchor="middle" x="410.83" y="-483.46" font-family="Times,serif" font-size="14.00">&#45;6,&#45;3 (Chromite Sand)</text>
</g>
<!-- &#45;6,&#45;3 (Chromite Sand)&#45;&gt;&#45;2,&#45;3 (Trains) -->
<g id="edge3" class="edge">
<title>&#45;6,&#45;3 (Chromite Sand)&#45;&gt;&#45;2,&#45;3 (Trains)</title>
<path fill="none" stroke="black" stroke-width="0.14" d="M454.81,-470.61C479.92,-461.16 511.47,-449.29 537.44,-439.51"/>
<polygon fill="black" stroke="black" stroke-width="0.14" points="538.97,-442.68 547.1,-435.88 536.51,-436.13 538.97,-442.68"/>
<text text-anchor="middle" x="452.13" y="-443.86" font-family="Times,serif" font-size="14.00">gravel*3024</text>
</g>
<!-- 3,9 (Copper, molten &amp; plate) -->
<g id="node5" class="node">
<title>3,9 (Copper, molten &amp; plate)</title>
<ellipse fill="none" stroke="black" cx="751.46" cy="-173.5" rx="143.77" ry="18"/>
<text text-anchor="middle" x="751.46" y="-169.8" font-family="Times,serif" font-size="14.00">3,9 (Copper, molten &amp; plate)</text>
</g>
<!-- 3,9 (Copper, molten &amp; plate)&#45;&gt;&#45;2,&#45;3 (Trains) -->
<g id="edge4" class="edge">
<title>3,9 (Copper, molten &amp; plate)&#45;&gt;&#45;2,&#45;3 (Trains)</title>
<path fill="none" stroke="black" stroke-width="0.71" d="M739.36,-191.7C710.59,-234.96 637.97,-344.13 604.41,-394.59"/>
<polygon fill="black" stroke="black" stroke-width="0.71" points="601.43,-392.75 598.81,-403.01 607.26,-396.62 601.43,-392.75"/>
<text text-anchor="middle" x="623.39" y="-296.94" font-family="Times,serif" font-size="14.00">gravel*15008</text>
</g>
<!-- 3,9 (Copper, molten &amp; plate)&#45;&gt;1,8 (A copper mine, Salt) -->
<g id="edge7" class="edge">
<title>3,9 (Copper, molten &amp; plate)&#45;&gt;1,8 (A copper mine, Salt)</title>
<path fill="none" stroke="black" stroke-width="1.77" d="M760.53,-191.8C783.33,-237.79 843.12,-358.39 870,-412.61"/>
<polygon fill="black" stroke="black" stroke-width="1.77" points="866.9,-414.23 874.47,-421.63 873.17,-411.12 866.9,-414.23"/>
<text text-anchor="middle" x="766.77" y="-306.01" font-family="Times,serif" font-size="14.00">gravel*37360</text>
</g>
<!-- &#45;6,7 (Iron ore dust) -->
<g id="node6" class="node">
<title>&#45;6,7 (Iron ore dust)</title>
<ellipse fill="none" stroke="black" cx="406.37" cy="-213.05" rx="98.58" ry="18"/>
<text text-anchor="middle" x="406.37" y="-209.35" font-family="Times,serif" font-size="14.00">&#45;6,7 (Iron ore dust)</text>
</g>
<!-- &#45;6,7 (Iron ore dust)&#45;&gt;&#45;2,&#45;3 (Trains) -->
<g id="edge5" class="edge">
<title>&#45;6,7 (Iron ore dust)&#45;&gt;&#45;2,&#45;3 (Trains)</title>
<path fill="none" stroke="black" stroke-width="1.42" d="M422.07,-231.13C454.31,-268.25 528.02,-353.1 564.96,-395.63"/>
<polygon fill="black" stroke="black" stroke-width="1.42" points="562.43,-398.04 571.63,-403.3 567.71,-393.45 562.43,-398.04"/>
<text text-anchor="middle" x="445.02" y="-317.18" font-family="Times,serif" font-size="14.00">gravel*30016</text>
</g>
<!-- 1,10 (Iron Ore Dust) -->
<g id="node7" class="node">
<title>1,10 (Iron Ore Dust)</title>
<ellipse fill="none" stroke="black" cx="591.23" cy="-18" rx="104.78" ry="18"/>
<text text-anchor="middle" x="591.23" y="-14.3" font-family="Times,serif" font-size="14.00">1,10 (Iron Ore Dust)</text>
</g>
<!-- 1,10 (Iron Ore Dust)&#45;&gt;&#45;2,&#45;3 (Trains) -->
<g id="edge6" class="edge">
<title>1,10 (Iron Ore Dust)&#45;&gt;&#45;2,&#45;3 (Trains)</title>
<path fill="none" stroke="black" stroke-width="0.71" d="M591.03,-36.09C590.35,-99.87 588.05,-314.54 587.22,-392.39"/>
<polygon fill="black" stroke="black" stroke-width="0.71" points="583.71,-392.81 587.11,-402.85 590.71,-392.89 583.71,-392.81"/>
<text text-anchor="middle" x="637.63" y="-218.04" font-family="Times,serif" font-size="14.00">gravel*15001</text>
</g>
</g>
</svg>
