<?xml version="1.0" encoding="UTF-8" standalone="no"?>
<!DOCTYPE svg PUBLIC "-//W3C//DTD SVG 1.1//EN"
 "http://www.w3.org/Graphics/SVG/1.1/DTD/svg11.dtd">
<!-- Generated by graphviz version 2.43.0 (0)
 -->
<!-- Title: %3 Pages: 1 -->
<svg width="1478pt" height="1056pt"
 viewBox="0.00 0.00 1477.74 1056.10" xmlns="http://www.w3.org/2000/svg" xmlns:xlink="http://www.w3.org/1999/xlink">
<g id="graph0" class="graph" transform="scale(1 1) rotate(0) translate(4 1052.1)">
<title>%3</title>
<polygon fill="white" stroke="transparent" points="-4,4 -4,-1052.1 1473.74,-1052.1 1473.74,4 -4,4"/>
<!-- 1,12 (Molten Iron) -->
<g id="node1" class="node">
<title>1,12 (Molten Iron)</title>
<ellipse fill="none" stroke="black" cx="183" cy="-211.29" rx="95.58" ry="18"/>
<text text-anchor="middle" x="183" y="-207.59" font-family="Times,serif" font-size="14.00">1,12 (Molten Iron)</text>
</g>
<!-- &#45;1,11 (Steel Plate (from molten)) -->
<g id="node2" class="node">
<title>&#45;1,11 (Steel Plate (from molten))</title>
<ellipse fill="none" stroke="black" cx="183" cy="-836.81" rx="161.37" ry="18"/>
<text text-anchor="middle" x="183" y="-833.11" font-family="Times,serif" font-size="14.00">&#45;1,11 (Steel Plate (from molten))</text>
</g>
<!-- 1,12 (Molten Iron)&#45;&gt;&#45;1,11 (Steel Plate (from molten)) -->
<g id="edge1" class="edge">
<title>1,12 (Molten Iron)&#45;&gt;&#45;1,11 (Steel Plate (from molten))</title>
<path fill="none" stroke="black" stroke-width="4.69" d="M183,-229.34C183,-317.26 183,-700.88 183,-808.59"/>
<polygon fill="black" stroke="black" stroke-width="4.69" points="178.89,-808.69 183,-818.69 187.11,-808.69 178.89,-808.69"/>
<text text-anchor="middle" x="91.5" y="-522.76" font-family="Times,serif" font-size="14.00">molten&#45;iron&#45;barrel*79008</text>
</g>
<!-- 3,12 (reserved &#45; Candle, reserved &#45; Candle, reserved &#45; Candle) -->
<g id="node5" class="node">
<title>3,12 (reserved &#45; Candle, reserved &#45; Candle, reserved &#45; Candle)</title>
<ellipse fill="none" stroke="black" cx="777.9" cy="-18" rx="298.15" ry="18"/>
<text text-anchor="middle" x="777.9" y="-14.3" font-family="Times,serif" font-size="14.00">3,12 (reserved &#45; Candle, reserved &#45; Candle, reserved &#45; Candle)</text>
</g>
<!-- 1,12 (Molten Iron)&#45;&gt;3,12 (reserved &#45; Candle, reserved &#45; Candle, reserved &#45; Candle) -->
<g id="edge4" class="edge">
<title>1,12 (Molten Iron)&#45;&gt;3,12 (reserved &#45; Candle, reserved &#45; Candle, reserved &#45; Candle)</title>
<path fill="none" stroke="black" stroke-width="0.09" d="M230.93,-195.72C337.3,-161.16 593.18,-78.02 713.42,-38.95"/>
<polygon fill="black" stroke="black" stroke-width="0.09" points="714.8,-42.18 723.23,-35.76 712.64,-35.52 714.8,-42.18"/>
<text text-anchor="middle" x="385.17" y="-121.14" font-family="Times,serif" font-size="14.00">molten&#45;iron&#45;barrel*1536</text>
</g>
<!-- 2,1 (Niobium plates) -->
<g id="node6" class="node">
<title>2,1 (Niobium plates)</title>
<ellipse fill="none" stroke="black" cx="777.9" cy="-1030.1" rx="105.88" ry="18"/>
<text text-anchor="middle" x="777.9" y="-1026.4" font-family="Times,serif" font-size="14.00">2,1 (Niobium plates)</text>
</g>
<!-- 1,12 (Molten Iron)&#45;&gt;2,1 (Niobium plates) -->
<g id="edge7" class="edge">
<title>1,12 (Molten Iron)&#45;&gt;2,1 (Niobium plates)</title>
<path fill="none" stroke="black" stroke-width="0.03" d="M195.98,-229.16C272.72,-334.79 666.91,-877.34 758.75,-1003.75"/>
<polygon fill="black" stroke="black" stroke-width="0.03" points="756.13,-1006.09 764.84,-1012.12 761.79,-1001.97 756.13,-1006.09"/>
<text text-anchor="middle" x="394.87" y="-620.25" font-family="Times,serif" font-size="14.00">molten&#45;iron&#45;barrel*496</text>
</g>
<!-- &#45;5,8 (Moar Molten Iron) -->
<g id="node3" class="node">
<title>&#45;5,8 (Moar Molten Iron)</title>
<ellipse fill="none" stroke="black" cx="1145.56" cy="-524.05" rx="120.48" ry="18"/>
<text text-anchor="middle" x="1145.56" y="-520.35" font-family="Times,serif" font-size="14.00">&#45;5,8 (Moar Molten Iron)</text>
</g>
<!-- &#45;5,8 (Moar Molten Iron)&#45;&gt;&#45;1,11 (Steel Plate (from molten)) -->
<g id="edge2" class="edge">
<title>&#45;5,8 (Moar Molten Iron)&#45;&gt;&#45;1,11 (Steel Plate (from molten))</title>
<path fill="none" stroke="black" stroke-width="1.91" d="M1095.17,-540.42C932.77,-593.19 423.43,-758.69 245.27,-816.57"/>
<polygon fill="black" stroke="black" stroke-width="1.91" points="243.96,-813.32 235.53,-819.74 246.12,-819.98 243.96,-813.32"/>
<text text-anchor="middle" x="578.72" y="-682.3" font-family="Times,serif" font-size="14.00">molten&#45;iron&#45;barrel*32112</text>
</g>
<!-- 6,3 (Things from molten) -->
<g id="node4" class="node">
<title>6,3 (Things from molten)</title>
<ellipse fill="none" stroke="black" cx="1343.65" cy="-524.05" rx="126.18" ry="18"/>
<text text-anchor="middle" x="1343.65" y="-520.35" font-family="Times,serif" font-size="14.00">6,3 (Things from molten)</text>
</g>
<!-- &#45;5,8 (Moar Molten Iron)&#45;&gt;6,3 (Things from molten) -->
<g id="edge3" class="edge">
<title>&#45;5,8 (Moar Molten Iron)&#45;&gt;6,3 (Things from molten)</title>
<path fill="none" stroke="black" stroke-width="0.09" d="M1265.93,-524.05C1266.01,-524.05 1266.09,-524.05 1266.17,-524.05"/>
<polygon fill="black" stroke="black" stroke-width="0.09" points="1256.42,-527.55 1266.42,-524.05 1256.42,-520.55 1256.42,-527.55"/>
<text text-anchor="middle" x="1353.05" y="-527.85" font-family="Times,serif" font-size="14.00">molten&#45;iron&#45;barrel*1536</text>
</g>
<!-- &#45;5,8 (Moar Molten Iron)&#45;&gt;3,12 (reserved &#45; Candle, reserved &#45; Candle, reserved &#45; Candle) -->
<g id="edge6" class="edge">
<title>&#45;5,8 (Moar Molten Iron)&#45;&gt;3,12 (reserved &#45; Candle, reserved &#45; Candle, reserved &#45; Candle)</title>
<path fill="none" stroke="black" stroke-width="0.09" d="M1132.48,-506.04C1077.2,-429.96 862.67,-134.68 797.06,-44.38"/>
<polygon fill="black" stroke="black" stroke-width="0.09" points="799.73,-42.09 791.02,-36.06 794.06,-46.21 799.73,-42.09"/>
<text text-anchor="middle" x="877.77" y="-279.01" font-family="Times,serif" font-size="14.00">molten&#45;iron&#45;barrel*1536</text>
</g>
<!-- &#45;5,8 (Moar Molten Iron)&#45;&gt;2,1 (Niobium plates) -->
<g id="edge5" class="edge">
<title>&#45;5,8 (Moar Molten Iron)&#45;&gt;2,1 (Niobium plates)</title>
<path fill="none" stroke="black" stroke-width="0.1" d="M1132.48,-542.06C1077.2,-618.14 862.67,-913.42 797.06,-1003.72"/>
<polygon fill="black" stroke="black" stroke-width="0.1" points="794.06,-1001.89 791.02,-1012.04 799.73,-1006.01 794.06,-1001.89"/>
<text text-anchor="middle" x="877.77" y="-776.69" font-family="Times,serif" font-size="14.00">molten&#45;iron&#45;barrel*1632</text>
</g>
</g>
</svg>
