<?xml version="1.0" encoding="UTF-8" standalone="no"?>
<!DOCTYPE svg PUBLIC "-//W3C//DTD SVG 1.1//EN"
 "http://www.w3.org/Graphics/SVG/1.1/DTD/svg11.dtd">
<!-- Generated by graphviz version 2.43.0 (0)
 -->
<!-- Title: %3 Pages: 1 -->
<svg width="1139pt" height="1023pt"
 viewBox="0.00 0.00 1139.12 1022.64" xmlns="http://www.w3.org/2000/svg" xmlns:xlink="http://www.w3.org/1999/xlink">
<g id="graph0" class="graph" transform="scale(1 1) rotate(0) translate(4 1018.64)">
<title>%3</title>
<polygon fill="white" stroke="transparent" points="-4,4 -4,-1018.64 1135.12,-1018.64 1135.12,4 -4,4"/>
<!-- &#45;4,0 (item=lens Optical sets) -->
<g id="node1" class="node">
<title>&#45;4,0 (item=lens Optical sets)</title>
<ellipse fill="none" stroke="black" cx="143.64" cy="-436.02" rx="143.77" ry="18"/>
<text text-anchor="middle" x="143.64" y="-432.32" font-family="Times,serif" font-size="14.00">&#45;4,0 (item=lens Optical sets)</text>
</g>
<!-- &#45;6,7 (Iron ore dust) -->
<g id="node2" class="node">
<title>&#45;6,7 (Iron ore dust)</title>
<ellipse fill="none" stroke="black" cx="1024.53" cy="-436.02" rx="98.58" ry="18"/>
<text text-anchor="middle" x="1024.53" y="-432.32" font-family="Times,serif" font-size="14.00">&#45;6,7 (Iron ore dust)</text>
</g>
<!-- &#45;4,0 (item=lens Optical sets)&#45;&gt;&#45;6,7 (Iron ore dust) -->
<g id="edge1" class="edge">
<title>&#45;4,0 (item=lens Optical sets)&#45;&gt;&#45;6,7 (Iron ore dust)</title>
<path fill="none" stroke="black" stroke-width="0.44" d="M287.62,-436.02C463.52,-436.02 757.15,-436.02 915.45,-436.02"/>
<polygon fill="black" stroke="black" stroke-width="0.44" points="915.68,-439.52 925.68,-436.02 915.68,-432.52 915.68,-439.52"/>
<text text-anchor="middle" x="547.04" y="-439.82" font-family="Times,serif" font-size="14.00">iron&#45;ore*82400</text>
</g>
<!-- &#45;10,&#45;4 () -->
<g id="node3" class="node">
<title>&#45;10,&#45;4 ()</title>
<ellipse fill="none" stroke="black" cx="1024.53" cy="-18" rx="46.59" ry="18"/>
<text text-anchor="middle" x="1024.53" y="-14.3" font-family="Times,serif" font-size="14.00">&#45;10,&#45;4 ()</text>
</g>
<!-- &#45;10,&#45;4 ()&#45;&gt;&#45;6,7 (Iron ore dust) -->
<g id="edge2" class="edge">
<title>&#45;10,&#45;4 ()&#45;&gt;&#45;6,7 (Iron ore dust)</title>
<path fill="none" stroke="black" stroke-width="0.31" d="M1024.53,-36.23C1024.53,-101.97 1024.53,-327.17 1024.53,-407.37"/>
<polygon fill="black" stroke="black" stroke-width="0.31" points="1021.03,-407.7 1024.53,-417.7 1028.03,-407.7 1021.03,-407.7"/>
<text text-anchor="middle" x="970.03" y="-225.6" font-family="Times,serif" font-size="14.00">iron&#45;ore*58432</text>
</g>
<!-- 2,13 (Polybutadiene) -->
<g id="node4" class="node">
<title>2,13 (Polybutadiene)</title>
<ellipse fill="none" stroke="black" cx="1024.53" cy="-713.4" rx="106.68" ry="18"/>
<text text-anchor="middle" x="1024.53" y="-709.7" font-family="Times,serif" font-size="14.00">2,13 (Polybutadiene)</text>
</g>
<!-- 2,13 (Polybutadiene)&#45;&gt;&#45;6,7 (Iron ore dust) -->
<g id="edge4" class="edge">
<title>2,13 (Polybutadiene)&#45;&gt;&#45;6,7 (Iron ore dust)</title>
<path fill="none" stroke="black" stroke-width="2.8" d="M1024.53,-695.2C1024.53,-647.99 1024.53,-521.29 1024.53,-464.38"/>
<polygon fill="black" stroke="black" stroke-width="2.8" points="1028.03,-464.29 1024.53,-454.29 1021.03,-464.29 1028.03,-464.29"/>
<text text-anchor="middle" x="965.53" y="-583.59" font-family="Times,serif" font-size="14.00">iron&#45;ore*518880</text>
</g>
<!-- 1,10 (Iron Ore Dust) -->
<g id="node5" class="node">
<title>1,10 (Iron Ore Dust)</title>
<ellipse fill="none" stroke="black" cx="1024.53" cy="-996.64" rx="104.78" ry="18"/>
<text text-anchor="middle" x="1024.53" y="-992.94" font-family="Times,serif" font-size="14.00">1,10 (Iron Ore Dust)</text>
</g>
<!-- 2,13 (Polybutadiene)&#45;&gt;1,10 (Iron Ore Dust) -->
<g id="edge3" class="edge">
<title>2,13 (Polybutadiene)&#45;&gt;1,10 (Iron Ore Dust)</title>
<path fill="none" stroke="black" stroke-width="0.44" d="M1024.53,-731.55C1024.53,-779.5 1024.53,-909.83 1024.53,-967.97"/>
<polygon fill="black" stroke="black" stroke-width="0.44" points="1021.03,-968.27 1024.53,-978.27 1028.03,-968.27 1021.03,-968.27"/>
<text text-anchor="middle" x="970.03" y="-853.56" font-family="Times,serif" font-size="14.00">iron&#45;ore*82464</text>
</g>
</g>
</svg>
