<?xml version="1.0" encoding="UTF-8" standalone="no"?>
<!DOCTYPE svg PUBLIC "-//W3C//DTD SVG 1.1//EN"
 "http://www.w3.org/Graphics/SVG/1.1/DTD/svg11.dtd">
<!-- Generated by graphviz version 2.43.0 (0)
 -->
<!-- Title: %3 Pages: 1 -->
<svg width="836pt" height="669pt"
 viewBox="0.00 0.00 836.22 668.89" xmlns="http://www.w3.org/2000/svg" xmlns:xlink="http://www.w3.org/1999/xlink">
<g id="graph0" class="graph" transform="scale(1 1) rotate(0) translate(4 664.89)">
<title>%3</title>
<polygon fill="white" stroke="transparent" points="-4,4 -4,-664.89 832.22,-664.89 832.22,4 -4,4"/>
<!-- 5,8 (Ulric Food) -->
<g id="node1" class="node">
<title>5,8 (Ulric Food)</title>
<ellipse fill="none" stroke="black" cx="364.95" cy="-337.84" rx="83.39" ry="18"/>
<text text-anchor="middle" x="364.95" y="-334.14" font-family="Times,serif" font-size="14.00">5,8 (Ulric Food)</text>
</g>
<!-- &#45;3,2 (Lead and Solder) -->
<g id="node2" class="node">
<title>&#45;3,2 (Lead and Solder)</title>
<ellipse fill="none" stroke="black" cx="714.48" cy="-337.84" rx="113.98" ry="18"/>
<text text-anchor="middle" x="714.48" y="-334.14" font-family="Times,serif" font-size="14.00">&#45;3,2 (Lead and Solder)</text>
</g>
<!-- 5,8 (Ulric Food)&#45;&gt;&#45;3,2 (Lead and Solder) -->
<g id="edge1" class="edge">
<title>5,8 (Ulric Food)&#45;&gt;&#45;3,2 (Lead and Solder)</title>
<path fill="none" stroke="black" stroke-width="0.43" d="M448.23,-337.84C490.65,-337.84 543.08,-337.84 590.17,-337.84"/>
<polygon fill="black" stroke="black" stroke-width="0.43" points="590.45,-341.34 600.45,-337.84 590.45,-334.34 590.45,-341.34"/>
<text text-anchor="middle" x="519.2" y="-326.64" font-family="Times,serif" font-size="14.00">sand&#45;casting*2040</text>
</g>
<!-- 4,3 (item=nexelit&#45;plate Nexelit platery) -->
<g id="node3" class="node">
<title>4,3 (item=nexelit&#45;plate Nexelit platery)</title>
<ellipse fill="none" stroke="black" cx="194.33" cy="-642.89" rx="194.17" ry="18"/>
<text text-anchor="middle" x="194.33" y="-639.19" font-family="Times,serif" font-size="14.00">4,3 (item=nexelit&#45;plate Nexelit platery)</text>
</g>
<!-- 5,8 (Ulric Food)&#45;&gt;4,3 (item=nexelit&#45;plate Nexelit platery) -->
<g id="edge2" class="edge">
<title>5,8 (Ulric Food)&#45;&gt;4,3 (item=nexelit&#45;plate Nexelit platery)</title>
<path fill="none" stroke="black" stroke-width="0.43" d="M354.79,-356.01C325.98,-407.51 243.68,-554.67 209.5,-615.78"/>
<polygon fill="black" stroke="black" stroke-width="0.43" points="206.27,-614.38 204.44,-624.82 212.38,-617.8 206.27,-614.38"/>
<text text-anchor="middle" x="215.64" y="-489.69" font-family="Times,serif" font-size="14.00">sand&#45;casting*2000</text>
</g>
<!-- &#45;1,11 (Steel Plate (from molten)) -->
<g id="node4" class="node">
<title>&#45;1,11 (Steel Plate (from molten))</title>
<ellipse fill="none" stroke="black" cx="223.99" cy="-18" rx="161.37" ry="18"/>
<text text-anchor="middle" x="223.99" y="-14.3" font-family="Times,serif" font-size="14.00">&#45;1,11 (Steel Plate (from molten))</text>
</g>
<!-- 5,8 (Ulric Food)&#45;&gt;&#45;1,11 (Steel Plate (from molten)) -->
<g id="edge3" class="edge">
<title>5,8 (Ulric Food)&#45;&gt;&#45;1,11 (Steel Plate (from molten))</title>
<path fill="none" stroke="black" stroke-width="2.14" d="M356.97,-319.73C333.47,-266.42 264.44,-109.79 236.22,-45.76"/>
<polygon fill="black" stroke="black" stroke-width="2.14" points="239.29,-44.05 232.06,-36.31 232.89,-46.87 239.29,-44.05"/>
<text text-anchor="middle" x="225.6" y="-186.54" font-family="Times,serif" font-size="14.00">sand&#45;casting*10040</text>
</g>
</g>
</svg>
