<?xml version="1.0" encoding="UTF-8" standalone="no"?>
<!DOCTYPE svg PUBLIC "-//W3C//DTD SVG 1.1//EN"
 "http://www.w3.org/Graphics/SVG/1.1/DTD/svg11.dtd">
<!-- Generated by graphviz version 2.43.0 (0)
 -->
<!-- Title: %3 Pages: 1 -->
<svg width="2563pt" height="1956pt"
 viewBox="0.00 0.00 2563.02 1955.92" xmlns="http://www.w3.org/2000/svg" xmlns:xlink="http://www.w3.org/1999/xlink">
<g id="graph0" class="graph" transform="scale(1 1) rotate(0) translate(4 1951.92)">
<title>%3</title>
<polygon fill="white" stroke="transparent" points="-4,4 -4,-1951.92 2559.02,-1951.92 2559.02,4 -4,4"/>
<!-- &#45;2,7 (item=borax Borax) -->
<g id="node1" class="node">
<title>&#45;2,7 (item=borax Borax)</title>
<ellipse fill="none" stroke="black" cx="2064.46" cy="-973.96" rx="123.48" ry="18"/>
<text text-anchor="middle" x="2064.46" y="-970.26" font-family="Times,serif" font-size="14.00">&#45;2,7 (item=borax Borax)</text>
</g>
<!-- 4,3 (item=nexelit&#45;plate Nexelit platery) -->
<g id="node2" class="node">
<title>4,3 (item=nexelit&#45;plate Nexelit platery)</title>
<ellipse fill="none" stroke="black" cx="1911.14" cy="-1496.1" rx="194.17" ry="18"/>
<text text-anchor="middle" x="1911.14" y="-1492.4" font-family="Times,serif" font-size="14.00">4,3 (item=nexelit&#45;plate Nexelit platery)</text>
</g>
<!-- &#45;2,7 (item=borax Borax)&#45;&gt;4,3 (item=nexelit&#45;plate Nexelit platery) -->
<g id="edge1" class="edge">
<title>&#45;2,7 (item=borax Borax)&#45;&gt;4,3 (item=nexelit&#45;plate Nexelit platery)</title>
<path fill="none" stroke="black" stroke-width="3.8" d="M2059.09,-992.24C2036.23,-1070.09 1946.89,-1374.37 1919.3,-1468.32"/>
<polygon fill="black" stroke="black" stroke-width="3.8" points="1915.92,-1467.39 1916.46,-1477.97 1922.64,-1469.37 1915.92,-1467.39"/>
<text text-anchor="middle" x="1898.69" y="-1234.08" font-family="Times,serif" font-size="14.00">dirty&#45;water&#45;barrel*29872</text>
</g>
<!-- 4,10 (Fluid Recycling) -->
<g id="node4" class="node">
<title>4,10 (Fluid Recycling)</title>
<ellipse fill="none" stroke="black" cx="172" cy="-1246.05" rx="112.38" ry="18"/>
<text text-anchor="middle" x="172" y="-1242.35" font-family="Times,serif" font-size="14.00">4,10 (Fluid Recycling)</text>
</g>
<!-- &#45;2,7 (item=borax Borax)&#45;&gt;4,10 (Fluid Recycling) -->
<g id="edge10" class="edge">
<title>&#45;2,7 (item=borax Borax)&#45;&gt;4,10 (Fluid Recycling)</title>
<path fill="none" stroke="black" stroke-width="1.22" d="M1976.35,-986.63C1661.08,-1031.96 590.68,-1185.86 266.08,-1232.53"/>
<polygon fill="black" stroke="black" stroke-width="1.22" points="265.17,-1229.12 255.77,-1234.01 266.17,-1236.05 265.17,-1229.12"/>
<text text-anchor="middle" x="1035.21" y="-1113.38" font-family="Times,serif" font-size="14.00">dirty&#45;water&#45;barrel*9616</text>
</g>
<!-- 5,2 (Raw Fiber) -->
<g id="node5" class="node">
<title>5,2 (Raw Fiber)</title>
<ellipse fill="none" stroke="black" cx="1911.14" cy="-451.81" rx="83.39" ry="18"/>
<text text-anchor="middle" x="1911.14" y="-448.11" font-family="Times,serif" font-size="14.00">5,2 (Raw Fiber)</text>
</g>
<!-- &#45;2,7 (item=borax Borax)&#45;&gt;5,2 (Raw Fiber) -->
<g id="edge20" class="edge">
<title>&#45;2,7 (item=borax Borax)&#45;&gt;5,2 (Raw Fiber)</title>
<path fill="none" stroke="black" stroke-width="1.38" d="M2059.09,-955.68C2036.23,-877.83 1946.89,-573.55 1919.3,-479.6"/>
<polygon fill="black" stroke="black" stroke-width="1.38" points="1922.64,-478.55 1916.46,-469.94 1915.92,-480.52 1922.64,-478.55"/>
<text text-anchor="middle" x="1898.69" y="-721.44" font-family="Times,serif" font-size="14.00">dirty&#45;water&#45;barrel*10848</text>
</g>
<!-- &#45;2,&#45;3 (Trains) -->
<g id="node8" class="node">
<title>&#45;2,&#45;3 (Trains)</title>
<ellipse fill="none" stroke="black" cx="961.22" cy="-18" rx="70.39" ry="18"/>
<text text-anchor="middle" x="961.22" y="-14.3" font-family="Times,serif" font-size="14.00">&#45;2,&#45;3 (Trains)</text>
</g>
<!-- &#45;2,7 (item=borax Borax)&#45;&gt;&#45;2,&#45;3 (Trains) -->
<g id="edge6" class="edge">
<title>&#45;2,7 (item=borax Borax)&#45;&gt;&#45;2,&#45;3 (Trains)</title>
<path fill="none" stroke="black" stroke-width="1.13" d="M2043.89,-956.14C1908.41,-838.74 1144.8,-177.07 988.98,-42.06"/>
<polygon fill="black" stroke="black" stroke-width="1.13" points="991.06,-39.22 981.21,-35.32 986.48,-44.51 991.06,-39.22"/>
<text text-anchor="middle" x="1430.44" y="-502.9" font-family="Times,serif" font-size="14.00">dirty&#45;water&#45;barrel*8848</text>
</g>
<!-- &#45;3,7 (item=sea&#45;sponge&#45;sprouts Also Borax) -->
<g id="node10" class="node">
<title>&#45;3,7 (item=sea&#45;sponge&#45;sprouts Also Borax)</title>
<ellipse fill="none" stroke="black" cx="2345.74" cy="-973.96" rx="209.06" ry="18"/>
<text text-anchor="middle" x="2345.74" y="-970.26" font-family="Times,serif" font-size="14.00">&#45;3,7 (item=sea&#45;sponge&#45;sprouts Also Borax)</text>
</g>
<!-- &#45;2,7 (item=borax Borax)&#45;&gt;&#45;3,7 (item=sea&#45;sponge&#45;sprouts Also Borax) -->
<g id="edge17" class="edge">
<title>&#45;2,7 (item=borax Borax)&#45;&gt;&#45;3,7 (item=sea&#45;sponge&#45;sprouts Also Borax)</title>
<path fill="none" stroke="black" stroke-width="0.14" d="M2188.24,-973.96C2188.31,-973.96 2188.39,-973.96 2188.46,-973.96"/>
<polygon fill="black" stroke="black" stroke-width="0.14" points="2178.68,-977.46 2188.68,-973.96 2178.68,-970.46 2178.68,-977.46"/>
<text text-anchor="middle" x="2274.35" y="-977.76" font-family="Times,serif" font-size="14.00">dirty&#45;water&#45;barrel*1088</text>
</g>
<!-- 3,9 (Copper, molten &amp; plate) -->
<g id="node3" class="node">
<title>3,9 (Copper, molten &amp; plate)</title>
<ellipse fill="none" stroke="black" cx="1499.87" cy="-95.45" rx="143.77" ry="18"/>
<text text-anchor="middle" x="1499.87" y="-91.75" font-family="Times,serif" font-size="14.00">3,9 (Copper, molten &amp; plate)</text>
</g>
<!-- 3,9 (Copper, molten &amp; plate)&#45;&gt;4,3 (item=nexelit&#45;plate Nexelit platery) -->
<g id="edge8" class="edge">
<title>3,9 (Copper, molten &amp; plate)&#45;&gt;4,3 (item=nexelit&#45;plate Nexelit platery)</title>
<path fill="none" stroke="black" stroke-width="2.39" d="M1505.22,-113.67C1549.09,-263.08 1849.3,-1285.51 1902.95,-1468.2"/>
<polygon fill="black" stroke="black" stroke-width="2.39" points="1899.61,-1469.27 1905.79,-1477.87 1906.33,-1467.29 1899.61,-1469.27"/>
<text text-anchor="middle" x="1613.58" y="-794.73" font-family="Times,serif" font-size="14.00">dirty&#45;water&#45;barrel*18785</text>
</g>
<!-- 3,9 (Copper, molten &amp; plate)&#45;&gt;4,10 (Fluid Recycling) -->
<g id="edge2" class="edge">
<title>3,9 (Copper, molten &amp; plate)&#45;&gt;4,10 (Fluid Recycling)</title>
<path fill="none" stroke="black" stroke-width="1.76" d="M1479.28,-113.29C1327.07,-245.18 377.61,-1067.89 200.45,-1221.4"/>
<polygon fill="black" stroke="black" stroke-width="1.76" points="198.1,-1218.81 192.83,-1228 202.68,-1224.1 198.1,-1218.81"/>
<text text-anchor="middle" x="749.36" y="-671.15" font-family="Times,serif" font-size="14.00">dirty&#45;water&#45;barrel*13832</text>
</g>
<!-- 3,9 (Copper, molten &amp; plate)&#45;&gt;5,2 (Raw Fiber) -->
<g id="edge3" class="edge">
<title>3,9 (Copper, molten &amp; plate)&#45;&gt;5,2 (Raw Fiber)</title>
<path fill="none" stroke="black" stroke-width="1.03" d="M1520.55,-113.36C1588.44,-172.19 1804.65,-359.54 1882.7,-427.17"/>
<polygon fill="black" stroke="black" stroke-width="1.03" points="1880.82,-430.17 1890.67,-434.07 1885.4,-424.88 1880.82,-430.17"/>
<text text-anchor="middle" x="1615.62" y="-274.07" font-family="Times,serif" font-size="14.00">dirty&#45;water&#45;barrel*8061</text>
</g>
<!-- 3,9 (Copper, molten &amp; plate)&#45;&gt;&#45;2,&#45;3 (Trains) -->
<g id="edge13" class="edge">
<title>3,9 (Copper, molten &amp; plate)&#45;&gt;&#45;2,&#45;3 (Trains)</title>
<path fill="none" stroke="black" stroke-width="0.57" d="M1405.43,-81.87C1299.17,-66.59 1128.93,-42.11 1033,-28.32"/>
<polygon fill="black" stroke="black" stroke-width="0.57" points="1033.21,-24.81 1022.81,-26.86 1032.21,-31.74 1033.21,-24.81"/>
<text text-anchor="middle" x="1133.21" y="-58.89" font-family="Times,serif" font-size="14.00">dirty&#45;water&#45;barrel*4500</text>
</g>
<!-- 1,12 (Molten Iron) -->
<g id="node6" class="node">
<title>1,12 (Molten Iron)</title>
<ellipse fill="none" stroke="black" cx="172" cy="-701.86" rx="95.58" ry="18"/>
<text text-anchor="middle" x="172" y="-698.16" font-family="Times,serif" font-size="14.00">1,12 (Molten Iron)</text>
</g>
<!-- 1,12 (Molten Iron)&#45;&gt;4,3 (item=nexelit&#45;plate Nexelit platery) -->
<g id="edge4" class="edge">
<title>1,12 (Molten Iron)&#45;&gt;4,3 (item=nexelit&#45;plate Nexelit platery)</title>
<path fill="none" stroke="black" stroke-width="3.19" d="M208.73,-718.64C432.37,-820.77 1609.95,-1358.56 1863.16,-1474.19"/>
<polygon fill="black" stroke="black" stroke-width="3.19" points="1861.91,-1477.47 1872.46,-1478.44 1864.82,-1471.1 1861.91,-1477.47"/>
<text text-anchor="middle" x="945.44" y="-1085.21" font-family="Times,serif" font-size="14.00">dirty&#45;water&#45;barrel*25072</text>
</g>
<!-- 1,12 (Molten Iron)&#45;&gt;4,10 (Fluid Recycling) -->
<g id="edge21" class="edge">
<title>1,12 (Molten Iron)&#45;&gt;4,10 (Fluid Recycling)</title>
<path fill="none" stroke="black" stroke-width="0.87" d="M172,-719.97C172,-799.7 172,-1119.89 172,-1217.6"/>
<polygon fill="black" stroke="black" stroke-width="0.87" points="168.5,-1217.88 172,-1227.88 175.5,-1217.88 168.5,-1217.88"/>
<text text-anchor="middle" x="86" y="-972.59" font-family="Times,serif" font-size="14.00">dirty&#45;water&#45;barrel*6816</text>
</g>
<!-- 1,12 (Molten Iron)&#45;&gt;5,2 (Raw Fiber) -->
<g id="edge15" class="edge">
<title>1,12 (Molten Iron)&#45;&gt;5,2 (Raw Fiber)</title>
<path fill="none" stroke="black" stroke-width="1.25" d="M248.13,-690.92C533.78,-649.85 1540.32,-505.13 1831.61,-463.25"/>
<polygon fill="black" stroke="black" stroke-width="1.25" points="1832.27,-466.69 1841.67,-461.8 1831.28,-459.76 1832.27,-466.69"/>
<text text-anchor="middle" x="953.87" y="-580.88" font-family="Times,serif" font-size="14.00">dirty&#45;water&#45;barrel*9792</text>
</g>
<!-- 1,12 (Molten Iron)&#45;&gt;&#45;2,&#45;3 (Trains) -->
<g id="edge18" class="edge">
<title>1,12 (Molten Iron)&#45;&gt;&#45;2,&#45;3 (Trains)</title>
<path fill="none" stroke="black" stroke-width="0.34" d="M192.3,-684.27C300.43,-590.58 808.39,-150.43 933.38,-42.12"/>
<polygon fill="black" stroke="black" stroke-width="0.34" points="935.79,-44.67 941.05,-35.48 931.2,-39.38 935.79,-44.67"/>
<text text-anchor="middle" x="476.84" y="-367" font-family="Times,serif" font-size="14.00">dirty&#45;water&#45;barrel*2704</text>
</g>
<!-- &#45;2,9 (molten steel) -->
<g id="node7" class="node">
<title>&#45;2,9 (molten steel)</title>
<ellipse fill="none" stroke="black" cx="466.21" cy="-244.06" rx="95.58" ry="18"/>
<text text-anchor="middle" x="466.21" y="-240.36" font-family="Times,serif" font-size="14.00">&#45;2,9 (molten steel)</text>
</g>
<!-- &#45;2,9 (molten steel)&#45;&gt;4,3 (item=nexelit&#45;plate Nexelit platery) -->
<g id="edge14" class="edge">
<title>&#45;2,9 (molten steel)&#45;&gt;4,3 (item=nexelit&#45;plate Nexelit platery)</title>
<path fill="none" stroke="black" stroke-width="0.94" d="M486.64,-261.76C646.51,-400.29 1695.72,-1309.44 1882.67,-1471.43"/>
<polygon fill="black" stroke="black" stroke-width="0.94" points="1880.58,-1474.25 1890.43,-1478.16 1885.16,-1468.96 1880.58,-1474.25"/>
<text text-anchor="middle" x="1098.65" y="-870.4" font-family="Times,serif" font-size="14.00">dirty&#45;water&#45;barrel*7373</text>
</g>
<!-- &#45;2,9 (molten steel)&#45;&gt;4,10 (Fluid Recycling) -->
<g id="edge5" class="edge">
<title>&#45;2,9 (molten steel)&#45;&gt;4,10 (Fluid Recycling)</title>
<path fill="none" stroke="black" stroke-width="0.3" d="M460.85,-262.31C425.3,-383.4 223.48,-1070.72 180.18,-1218.19"/>
<polygon fill="black" stroke="black" stroke-width="0.3" points="176.8,-1217.28 177.34,-1227.86 183.52,-1219.25 176.8,-1217.28"/>
<text text-anchor="middle" x="234.52" y="-744.05" font-family="Times,serif" font-size="14.00">dirty&#45;water&#45;barrel*2345</text>
</g>
<!-- &#45;2,9 (molten steel)&#45;&gt;5,2 (Raw Fiber) -->
<g id="edge7" class="edge">
<title>&#45;2,9 (molten steel)&#45;&gt;5,2 (Raw Fiber)</title>
<path fill="none" stroke="black" stroke-width="0.32" d="M542.37,-255.01C790.95,-290.76 1577.21,-403.8 1831.19,-440.32"/>
<polygon fill="black" stroke="black" stroke-width="0.32" points="1831.04,-443.83 1841.44,-441.79 1832.04,-436.9 1831.04,-443.83"/>
<text text-anchor="middle" x="1100.78" y="-351.47" font-family="Times,serif" font-size="14.00">dirty&#45;water&#45;barrel*2518</text>
</g>
<!-- &#45;2,9 (molten steel)&#45;&gt;&#45;2,&#45;3 (Trains) -->
<g id="edge16" class="edge">
<title>&#45;2,9 (molten steel)&#45;&gt;&#45;2,&#45;3 (Trains)</title>
<path fill="none" stroke="black" stroke-width="0.15" d="M503.01,-227.26C592.57,-186.36 821.54,-81.79 917.68,-37.89"/>
<polygon fill="black" stroke="black" stroke-width="0.15" points="919.19,-41.04 926.83,-33.71 916.28,-34.68 919.19,-41.04"/>
<text text-anchor="middle" x="624.35" y="-136.37" font-family="Times,serif" font-size="14.00">dirty&#45;water&#45;barrel*1200</text>
</g>
<!-- &#45;1,10 (Iron Plates) -->
<g id="node9" class="node">
<title>&#45;1,10 (Iron Plates)</title>
<ellipse fill="none" stroke="black" cx="466.21" cy="-1703.85" rx="94.78" ry="18"/>
<text text-anchor="middle" x="466.21" y="-1700.15" font-family="Times,serif" font-size="14.00">&#45;1,10 (Iron Plates)</text>
</g>
<!-- &#45;1,10 (Iron Plates)&#45;&gt;4,3 (item=nexelit&#45;plate Nexelit platery) -->
<g id="edge12" class="edge">
<title>&#45;1,10 (Iron Plates)&#45;&gt;4,3 (item=nexelit&#45;plate Nexelit platery)</title>
<path fill="none" stroke="black" stroke-width="1.73" d="M541.86,-1692.98C779.3,-1658.84 1510.84,-1553.66 1795.82,-1512.68"/>
<polygon fill="black" stroke="black" stroke-width="1.73" points="1796.37,-1516.14 1805.77,-1511.25 1795.37,-1509.21 1796.37,-1516.14"/>
<text text-anchor="middle" x="1078.34" y="-1606.63" font-family="Times,serif" font-size="14.00">dirty&#45;water&#45;barrel*13632</text>
</g>
<!-- &#45;1,10 (Iron Plates)&#45;&gt;4,10 (Fluid Recycling) -->
<g id="edge19" class="edge">
<title>&#45;1,10 (Iron Plates)&#45;&gt;4,10 (Fluid Recycling)</title>
<path fill="none" stroke="black" stroke-width="0.99" d="M454.68,-1685.91C409.37,-1615.41 243.42,-1357.19 189.24,-1272.88"/>
<polygon fill="black" stroke="black" stroke-width="0.99" points="192.12,-1270.89 183.77,-1264.37 186.24,-1274.68 192.12,-1270.89"/>
<text text-anchor="middle" x="235.96" y="-1483.19" font-family="Times,serif" font-size="14.00">dirty&#45;water&#45;barrel*7759</text>
</g>
<!-- &#45;1,10 (Iron Plates)&#45;&gt;5,2 (Raw Fiber) -->
<g id="edge9" class="edge">
<title>&#45;1,10 (Iron Plates)&#45;&gt;5,2 (Raw Fiber)</title>
<path fill="none" stroke="black" stroke-width="0.69" d="M486.64,-1686.15C646.68,-1547.48 1697.94,-636.56 1883.26,-475.97"/>
<polygon fill="black" stroke="black" stroke-width="0.69" points="1885.68,-478.51 1890.94,-469.31 1881.09,-473.22 1885.68,-478.51"/>
<text text-anchor="middle" x="1098.95" y="-1069.86" font-family="Times,serif" font-size="14.00">dirty&#45;water&#45;barrel*5456</text>
</g>
<!-- &#45;1,10 (Iron Plates)&#45;&gt;&#45;2,&#45;3 (Trains) -->
<g id="edge11" class="edge">
<title>&#45;1,10 (Iron Plates)&#45;&gt;&#45;2,&#45;3 (Trains)</title>
<path fill="none" stroke="black" stroke-width="0.35" d="M471.52,-1685.78C520.48,-1519.02 893.1,-250.01 953.08,-45.72"/>
<polygon fill="black" stroke="black" stroke-width="0.35" points="956.47,-46.62 955.92,-36.04 949.75,-44.65 956.47,-46.62"/>
<text text-anchor="middle" x="626.3" y="-869.55" font-family="Times,serif" font-size="14.00">dirty&#45;water&#45;barrel*2720</text>
</g>
<!-- 3,5 (item=molybdenum&#45;plate Molybdenum plate) -->
<g id="node11" class="node">
<title>3,5 (item=molybdenum&#45;plate Molybdenum plate)</title>
<ellipse fill="none" stroke="black" cx="961.22" cy="-1929.92" rx="239.66" ry="18"/>
<text text-anchor="middle" x="961.22" y="-1926.22" font-family="Times,serif" font-size="14.00">3,5 (item=molybdenum&#45;plate Molybdenum plate)</text>
</g>
<!-- 3,5 (item=molybdenum&#45;plate Molybdenum plate)&#45;&gt;4,3 (item=nexelit&#45;plate Nexelit platery) -->
<g id="edge22" class="edge">
<title>3,5 (item=molybdenum&#45;plate Molybdenum plate)&#45;&gt;4,3 (item=nexelit&#45;plate Nexelit platery)</title>
<path fill="none" stroke="black" stroke-width="1.25" d="M1000.23,-1912.1C1151.19,-1843.16 1696.83,-1593.98 1862.87,-1518.15"/>
<polygon fill="black" stroke="black" stroke-width="1.25" points="1864.69,-1521.17 1872.33,-1513.83 1861.78,-1514.8 1864.69,-1521.17"/>
<text text-anchor="middle" x="1345.55" y="-1718.93" font-family="Times,serif" font-size="14.00">dirty&#45;water&#45;barrel*9808</text>
</g>
<!-- 3,5 (item=molybdenum&#45;plate Molybdenum plate)&#45;&gt;4,10 (Fluid Recycling) -->
<g id="edge23" class="edge">
<title>3,5 (item=molybdenum&#45;plate Molybdenum plate)&#45;&gt;4,10 (Fluid Recycling)</title>
<path fill="none" stroke="black" stroke-width="0.43" d="M940.52,-1911.98C831.64,-1817.63 325.63,-1379.17 200.19,-1270.48"/>
<polygon fill="black" stroke="black" stroke-width="0.43" points="202.34,-1267.71 192.49,-1263.81 197.75,-1273 202.34,-1267.71"/>
<text text-anchor="middle" x="484.35" y="-1595.03" font-family="Times,serif" font-size="14.00">dirty&#45;water&#45;barrel*3344</text>
</g>
<!-- 3,5 (item=molybdenum&#45;plate Molybdenum plate)&#45;&gt;5,2 (Raw Fiber) -->
<g id="edge25" class="edge">
<title>3,5 (item=molybdenum&#45;plate Molybdenum plate)&#45;&gt;5,2 (Raw Fiber)</title>
<path fill="none" stroke="black" stroke-width="0.28" d="M972.89,-1911.76C1072.15,-1757.31 1774.16,-664.96 1893.82,-478.77"/>
<polygon fill="black" stroke="black" stroke-width="0.28" points="1896.91,-480.43 1899.37,-470.12 1891.02,-476.64 1896.91,-480.43"/>
<text text-anchor="middle" x="1347.35" y="-1199.07" font-family="Times,serif" font-size="14.00">dirty&#45;water&#45;barrel*2176</text>
</g>
<!-- 3,5 (item=molybdenum&#45;plate Molybdenum plate)&#45;&gt;&#45;2,&#45;3 (Trains) -->
<g id="edge24" class="edge">
<title>3,5 (item=molybdenum&#45;plate Molybdenum plate)&#45;&gt;&#45;2,&#45;3 (Trains)</title>
<path fill="none" stroke="black" stroke-width="0.21" d="M961.22,-1911.91C961.22,-1732.59 961.22,-269.64 961.22,-46.5"/>
<polygon fill="black" stroke="black" stroke-width="0.21" points="964.72,-46.27 961.22,-36.27 957.72,-46.27 964.72,-46.27"/>
<text text-anchor="middle" x="875.22" y="-983" font-family="Times,serif" font-size="14.00">dirty&#45;water&#45;barrel*1648</text>
</g>
<!-- &#45;3,&#45;1 (item=boron&#45;trioxide Boron products) -->
<g id="node12" class="node">
<title>&#45;3,&#45;1 (item=boron&#45;trioxide Boron products)</title>
<ellipse fill="none" stroke="black" cx="1499.87" cy="-1852.47" rx="209.86" ry="18"/>
<text text-anchor="middle" x="1499.87" y="-1848.77" font-family="Times,serif" font-size="14.00">&#45;3,&#45;1 (item=boron&#45;trioxide Boron products)</text>
</g>
<!-- &#45;3,&#45;1 (item=boron&#45;trioxide Boron products)&#45;&gt;4,3 (item=nexelit&#45;plate Nexelit platery) -->
<g id="edge26" class="edge">
<title>&#45;3,&#45;1 (item=boron&#45;trioxide Boron products)&#45;&gt;4,3 (item=nexelit&#45;plate Nexelit platery)</title>
<path fill="none" stroke="black" stroke-width="0.76" d="M1520.55,-1834.55C1588.28,-1775.86 1803.65,-1589.24 1882.16,-1521.22"/>
<polygon fill="black" stroke="black" stroke-width="0.76" points="1884.91,-1523.46 1890.18,-1514.27 1880.33,-1518.17 1884.91,-1523.46"/>
<text text-anchor="middle" x="1615.35" y="-1681.69" font-family="Times,serif" font-size="14.00">dirty&#45;water&#45;barrel*6000</text>
</g>
<!-- &#45;3,&#45;1 (item=boron&#45;trioxide Boron products)&#45;&gt;4,10 (Fluid Recycling) -->
<g id="edge28" class="edge">
<title>&#45;3,&#45;1 (item=boron&#45;trioxide Boron products)&#45;&gt;4,10 (Fluid Recycling)</title>
<path fill="none" stroke="black" stroke-width="0.22" d="M1460.85,-1834.65C1268.99,-1747.03 426.6,-1362.32 218.57,-1267.32"/>
<polygon fill="black" stroke="black" stroke-width="0.22" points="219.98,-1264.12 209.43,-1263.15 217.07,-1270.49 219.98,-1264.12"/>
<text text-anchor="middle" x="753.71" y="-1554.79" font-family="Times,serif" font-size="14.00">dirty&#45;water&#45;barrel*1744</text>
</g>
<!-- &#45;3,&#45;1 (item=boron&#45;trioxide Boron products)&#45;&gt;5,2 (Raw Fiber) -->
<g id="edge27" class="edge">
<title>&#45;3,&#45;1 (item=boron&#45;trioxide Boron products)&#45;&gt;5,2 (Raw Fiber)</title>
<path fill="none" stroke="black" stroke-width="0.32" d="M1505.22,-1834.25C1549.09,-1684.84 1849.3,-662.41 1902.95,-479.72"/>
<polygon fill="black" stroke="black" stroke-width="0.32" points="1906.33,-480.62 1905.79,-470.04 1899.61,-478.65 1906.33,-480.62"/>
<text text-anchor="middle" x="1618.08" y="-1160.78" font-family="Times,serif" font-size="14.00">dirty&#45;water&#45;barrel*2520</text>
</g>
</g>
</svg>
