<?xml version="1.0" encoding="UTF-8" standalone="no"?>
<!DOCTYPE svg PUBLIC "-//W3C//DTD SVG 1.1//EN"
 "http://www.w3.org/Graphics/SVG/1.1/DTD/svg11.dtd">
<!-- Generated by graphviz version 2.43.0 (0)
 -->
<!-- Title: %3 Pages: 1 -->
<svg width="956pt" height="740pt"
 viewBox="0.00 0.00 955.95 739.77" xmlns="http://www.w3.org/2000/svg" xmlns:xlink="http://www.w3.org/1999/xlink">
<g id="graph0" class="graph" transform="scale(1 1) rotate(0) translate(4 735.77)">
<title>%3</title>
<polygon fill="white" stroke="transparent" points="-4,4 -4,-735.77 951.95,-735.77 951.95,4 -4,4"/>
<!-- 3,12 (Copper mine, No, Copper OURS, Comrade) -->
<g id="node1" class="node">
<title>3,12 (Copper mine, No, Copper OURS, Comrade)</title>
<ellipse fill="none" stroke="black" cx="491.52" cy="-18" rx="237.46" ry="18"/>
<text text-anchor="middle" x="491.52" y="-14.3" font-family="Times,serif" font-size="14.00">3,12 (Copper mine, No, Copper OURS, Comrade)</text>
</g>
<!-- 3,9 (Copper, molten &amp; plate) -->
<g id="node2" class="node">
<title>3,9 (Copper, molten &amp; plate)</title>
<ellipse fill="none" stroke="black" cx="143.64" cy="-365.89" rx="143.77" ry="18"/>
<text text-anchor="middle" x="143.64" y="-362.19" font-family="Times,serif" font-size="14.00">3,9 (Copper, molten &amp; plate)</text>
</g>
<!-- 3,12 (Copper mine, No, Copper OURS, Comrade)&#45;&gt;3,9 (Copper, molten &amp; plate) -->
<g id="edge1" class="edge">
<title>3,12 (Copper mine, No, Copper OURS, Comrade)&#45;&gt;3,9 (Copper, molten &amp; plate)</title>
<path fill="none" stroke="black" stroke-width="3.3" d="M473.31,-36.21C415.42,-94.1 235.57,-273.96 168.87,-340.66"/>
<polygon fill="black" stroke="black" stroke-width="3.3" points="166.27,-338.31 161.67,-347.85 171.22,-343.26 166.27,-338.31"/>
<text text-anchor="middle" x="252.09" y="-192.24" font-family="Times,serif" font-size="14.00">copper&#45;ore*425760</text>
</g>
<!-- 4,11 (Cobalt Extract) -->
<g id="node4" class="node">
<title>4,11 (Cobalt Extract)</title>
<ellipse fill="none" stroke="black" cx="839.41" cy="-365.89" rx="108.58" ry="18"/>
<text text-anchor="middle" x="839.41" y="-362.19" font-family="Times,serif" font-size="14.00">4,11 (Cobalt Extract)</text>
</g>
<!-- 3,12 (Copper mine, No, Copper OURS, Comrade)&#45;&gt;4,11 (Cobalt Extract) -->
<g id="edge3" class="edge">
<title>3,12 (Copper mine, No, Copper OURS, Comrade)&#45;&gt;4,11 (Cobalt Extract)</title>
<path fill="none" stroke="black" stroke-width="0.29" d="M509.74,-36.21C567.62,-94.1 747.48,-273.96 814.18,-340.66"/>
<polygon fill="black" stroke="black" stroke-width="0.29" points="811.83,-343.26 821.38,-347.85 816.78,-338.31 811.83,-343.26"/>
<text text-anchor="middle" x="597.46" y="-192.24" font-family="Times,serif" font-size="14.00">copper&#45;ore*37680</text>
</g>
<!-- 3,&#45;2 () -->
<g id="node3" class="node">
<title>3,&#45;2 ()</title>
<ellipse fill="none" stroke="black" cx="491.52" cy="-713.77" rx="38.19" ry="18"/>
<text text-anchor="middle" x="491.52" y="-710.07" font-family="Times,serif" font-size="14.00">3,&#45;2 ()</text>
</g>
<!-- 3,&#45;2 ()&#45;&gt;3,9 (Copper, molten &amp; plate) -->
<g id="edge2" class="edge">
<title>3,&#45;2 ()&#45;&gt;3,9 (Copper, molten &amp; plate)</title>
<path fill="none" stroke="black" stroke-width="0.28" d="M475.21,-697.46C419.46,-641.71 236.24,-458.49 168.83,-391.07"/>
<polygon fill="black" stroke="black" stroke-width="0.28" points="171.11,-388.41 161.56,-383.81 166.16,-393.35 171.11,-388.41"/>
<text text-anchor="middle" x="257.52" y="-548.07" font-family="Times,serif" font-size="14.00">copper&#45;ore*36072</text>
</g>
<!-- 3,&#45;2 ()&#45;&gt;4,11 (Cobalt Extract) -->
<g id="edge4" class="edge">
<title>3,&#45;2 ()&#45;&gt;4,11 (Cobalt Extract)</title>
<path fill="none" stroke="black" stroke-width="0.12" d="M507.84,-697.46C563.58,-641.71 746.8,-458.49 814.22,-391.07"/>
<polygon fill="black" stroke="black" stroke-width="0.12" points="816.89,-393.35 821.49,-383.81 811.94,-388.41 816.89,-393.35"/>
<text text-anchor="middle" x="596.53" y="-548.07" font-family="Times,serif" font-size="14.00">copper&#45;ore*16080</text>
</g>
</g>
</svg>
