<?xml version="1.0" encoding="UTF-8" standalone="no"?>
<!DOCTYPE svg PUBLIC "-//W3C//DTD SVG 1.1//EN"
 "http://www.w3.org/Graphics/SVG/1.1/DTD/svg11.dtd">
<!-- Generated by graphviz version 2.43.0 (0)
 -->
<!-- Title: %3 Pages: 1 -->
<svg width="3122pt" height="1774pt"
 viewBox="0.00 0.00 3122.43 1774.01" xmlns="http://www.w3.org/2000/svg" xmlns:xlink="http://www.w3.org/1999/xlink">
<g id="graph0" class="graph" transform="scale(1 1) rotate(0) translate(4 1770.01)">
<title>%3</title>
<polygon fill="white" stroke="transparent" points="-4,4 -4,-1770.01 3118.43,-1770.01 3118.43,4 -4,4"/>
<!-- 2,8 (Graphite) -->
<g id="node1" class="node">
<title>2,8 (Graphite)</title>
<ellipse fill="none" stroke="black" cx="1485.43" cy="-1748.01" rx="76.09" ry="18"/>
<text text-anchor="middle" x="1485.43" y="-1744.31" font-family="Times,serif" font-size="14.00">2,8 (Graphite)</text>
</g>
<!-- &#45;2,8 (syngas from coal dust and also wood) -->
<g id="node2" class="node">
<title>&#45;2,8 (syngas from coal dust and also wood)</title>
<ellipse fill="none" stroke="black" cx="938.77" cy="-1312.06" rx="208.76" ry="18"/>
<text text-anchor="middle" x="938.77" y="-1308.36" font-family="Times,serif" font-size="14.00">&#45;2,8 (syngas from coal dust and also wood)</text>
</g>
<!-- 2,8 (Graphite)&#45;&gt;&#45;2,8 (syngas from coal dust and also wood) -->
<g id="edge1" class="edge">
<title>2,8 (Graphite)&#45;&gt;&#45;2,8 (syngas from coal dust and also wood)</title>
<path fill="none" stroke="black" stroke-width="3.86" d="M1463.66,-1730.65C1378.58,-1662.8 1068.32,-1415.38 969.34,-1336.44"/>
<polygon fill="black" stroke="black" stroke-width="3.86" points="971.5,-1333.69 961.5,-1330.19 967.14,-1339.16 971.5,-1333.69"/>
<text text-anchor="middle" x="1153.5" y="-1537.34" font-family="Times,serif" font-size="14.00">coal&#45;dust*145440</text>
</g>
<!-- 1,7 (Activated Carbon) -->
<g id="node6" class="node">
<title>1,7 (Activated Carbon)</title>
<ellipse fill="none" stroke="black" cx="2167.11" cy="-1592.42" rx="115.88" ry="18"/>
<text text-anchor="middle" x="2167.11" y="-1588.72" font-family="Times,serif" font-size="14.00">1,7 (Activated Carbon)</text>
</g>
<!-- 2,8 (Graphite)&#45;&gt;1,7 (Activated Carbon) -->
<g id="edge8" class="edge">
<title>2,8 (Graphite)&#45;&gt;1,7 (Activated Carbon)</title>
<path fill="none" stroke="black" stroke-width="2.44" d="M1540.35,-1735.47C1661.83,-1707.75 1953.49,-1641.17 2091.84,-1609.6"/>
<polygon fill="black" stroke="black" stroke-width="2.44" points="2092.97,-1612.93 2101.94,-1607.29 2091.41,-1606.11 2092.97,-1612.93"/>
<text text-anchor="middle" x="1757.6" y="-1676.34" font-family="Times,serif" font-size="14.00">coal&#45;dust*92112</text>
</g>
<!-- &#45;3,9 (Silicon Wafers) -->
<g id="node7" class="node">
<title>&#45;3,9 (Silicon Wafers)</title>
<ellipse fill="none" stroke="black" cx="1485.43" cy="-176.91" rx="103.98" ry="18"/>
<text text-anchor="middle" x="1485.43" y="-173.21" font-family="Times,serif" font-size="14.00">&#45;3,9 (Silicon Wafers)</text>
</g>
<!-- 2,8 (Graphite)&#45;&gt;&#45;3,9 (Silicon Wafers) -->
<g id="edge6" class="edge">
<title>2,8 (Graphite)&#45;&gt;&#45;3,9 (Silicon Wafers)</title>
<path fill="none" stroke="black" stroke-width="0.14" d="M1485.43,-1729.82C1485.43,-1569.78 1485.43,-402.89 1485.43,-205.3"/>
<polygon fill="black" stroke="black" stroke-width="0.14" points="1488.93,-205.14 1485.43,-195.14 1481.93,-205.14 1488.93,-205.14"/>
<text text-anchor="middle" x="1431.43" y="-971.36" font-family="Times,serif" font-size="14.00">coal&#45;dust*5392</text>
</g>
<!-- 5,5 (Silicon) -->
<g id="node9" class="node">
<title>5,5 (Silicon)</title>
<ellipse fill="none" stroke="black" cx="2470.48" cy="-962.46" rx="66.09" ry="18"/>
<text text-anchor="middle" x="2470.48" y="-958.76" font-family="Times,serif" font-size="14.00">5,5 (Silicon)</text>
</g>
<!-- 2,8 (Graphite)&#45;&gt;5,5 (Silicon) -->
<g id="edge11" class="edge">
<title>2,8 (Graphite)&#45;&gt;5,5 (Silicon)</title>
<path fill="none" stroke="black" stroke-width="0.52" d="M1507.38,-1730.5C1636.11,-1627.84 2292.29,-1104.56 2440.64,-986.25"/>
<polygon fill="black" stroke="black" stroke-width="0.52" points="2443.26,-988.64 2448.9,-979.67 2438.9,-983.17 2443.26,-988.64"/>
<text text-anchor="middle" x="1915.51" y="-1362.17" font-family="Times,serif" font-size="14.00">coal&#45;dust*19712</text>
</g>
<!-- &#45;5,&#45;1 (Coal and Coke and Syngas and Ash and Coke Oven Gas and...) -->
<g id="node3" class="node">
<title>&#45;5,&#45;1 (Coal and Coke and Syngas and Ash and Coke Oven Gas and...)</title>
<ellipse fill="none" stroke="black" cx="2167.11" cy="-332.49" rx="325.74" ry="18"/>
<text text-anchor="middle" x="2167.11" y="-328.79" font-family="Times,serif" font-size="14.00">&#45;5,&#45;1 (Coal and Coke and Syngas and Ash and Coke Oven Gas and...)</text>
</g>
<!-- &#45;5,&#45;1 (Coal and Coke and Syngas and Ash and Coke Oven Gas and...)&#45;&gt;&#45;2,8 (syngas from coal dust and also wood) -->
<g id="edge2" class="edge">
<title>&#45;5,&#45;1 (Coal and Coke and Syngas and Ash and Coke Oven Gas and...)&#45;&gt;&#45;2,8 (syngas from coal dust and also wood)</title>
<path fill="none" stroke="black" stroke-width="4.02" d="M2144.47,-350.54C1994.32,-470.29 1142.65,-1149.47 969.49,-1287.56"/>
<polygon fill="black" stroke="black" stroke-width="4.02" points="967.16,-1284.92 961.54,-1293.9 971.55,-1290.42 967.16,-1284.92"/>
<text text-anchor="middle" x="1493.98" y="-822.85" font-family="Times,serif" font-size="14.00">coal&#45;dust*151584</text>
</g>
<!-- &#45;5,&#45;1 (Coal and Coke and Syngas and Ash and Coke Oven Gas and...)&#45;&gt;1,7 (Activated Carbon) -->
<g id="edge5" class="edge">
<title>&#45;5,&#45;1 (Coal and Coke and Syngas and Ash and Coke Oven Gas and...)&#45;&gt;1,7 (Activated Carbon)</title>
<path fill="none" stroke="black" stroke-width="0.65" d="M2167.11,-350.79C2167.11,-490.85 2167.11,-1392.32 2167.11,-1564.15"/>
<polygon fill="black" stroke="black" stroke-width="0.65" points="2163.61,-1564.4 2167.11,-1574.4 2170.61,-1564.4 2163.61,-1564.4"/>
<text text-anchor="middle" x="2108.61" y="-961.27" font-family="Times,serif" font-size="14.00">coal&#45;dust*24400</text>
</g>
<!-- &#45;5,&#45;1 (Coal and Coke and Syngas and Ash and Coke Oven Gas and...)&#45;&gt;5,5 (Silicon) -->
<g id="edge15" class="edge">
<title>&#45;5,&#45;1 (Coal and Coke and Syngas and Ash and Coke Oven Gas and...)&#45;&gt;5,5 (Silicon)</title>
<path fill="none" stroke="black" stroke-width="0.06" d="M2175.86,-350.67C2218.68,-439.58 2406.1,-828.76 2457.44,-935.37"/>
<polygon fill="black" stroke="black" stroke-width="0.06" points="2454.34,-937.02 2461.84,-944.51 2460.65,-933.98 2454.34,-937.02"/>
<text text-anchor="middle" x="2262.65" y="-646.82" font-family="Times,serif" font-size="14.00">coal&#45;dust*2128</text>
</g>
<!-- 4,14 (A Coal mine, Coke oven gas wasted by venting, Coke direct from mine, A Coal mine?, A Coal mine?!) -->
<g id="node4" class="node">
<title>4,14 (A Coal mine, Coke oven gas wasted by venting, Coke direct from mine, A Coal mine?, A Coal mine?!)</title>
<ellipse fill="none" stroke="black" cx="503.71" cy="-1711.09" rx="503.91" ry="18"/>
<text text-anchor="middle" x="503.71" y="-1707.39" font-family="Times,serif" font-size="14.00">4,14 (A Coal mine, Coke oven gas wasted by venting, Coke direct from mine, A Coal mine?, A Coal mine?!)</text>
</g>
<!-- 4,14 (A Coal mine, Coke oven gas wasted by venting, Coke direct from mine, A Coal mine?, A Coal mine?!)&#45;&gt;&#45;2,8 (syngas from coal dust and also wood) -->
<g id="edge3" class="edge">
<title>4,14 (A Coal mine, Coke oven gas wasted by venting, Coke direct from mine, A Coal mine?, A Coal mine?!)&#45;&gt;&#45;2,8 (syngas from coal dust and also wood)</title>
<path fill="none" stroke="black" stroke-width="0.29" d="M523.53,-1692.91C593.6,-1628.64 829.74,-1412.05 911.02,-1337.51"/>
<polygon fill="black" stroke="black" stroke-width="0.29" points="913.82,-1339.69 918.83,-1330.35 909.09,-1334.53 913.82,-1339.69"/>
<text text-anchor="middle" x="658.77" y="-1519.01" font-family="Times,serif" font-size="14.00">coal&#45;dust*11120</text>
</g>
<!-- &#45;7,5 () -->
<g id="node5" class="node">
<title>&#45;7,5 ()</title>
<ellipse fill="none" stroke="black" cx="938.77" cy="-612.85" rx="38.19" ry="18"/>
<text text-anchor="middle" x="938.77" y="-609.15" font-family="Times,serif" font-size="14.00">&#45;7,5 ()</text>
</g>
<!-- &#45;7,5 ()&#45;&gt;&#45;2,8 (syngas from coal dust and also wood) -->
<g id="edge4" class="edge">
<title>&#45;7,5 ()&#45;&gt;&#45;2,8 (syngas from coal dust and also wood)</title>
<path fill="none" stroke="black" stroke-width="0.54" d="M938.77,-631.2C938.77,-726.69 938.77,-1167.04 938.77,-1283.66"/>
<polygon fill="black" stroke="black" stroke-width="0.54" points="935.27,-1283.91 938.77,-1293.91 942.27,-1283.91 935.27,-1283.91"/>
<text text-anchor="middle" x="880.27" y="-961.23" font-family="Times,serif" font-size="14.00">coal&#45;dust*20480</text>
</g>
<!-- &#45;7,5 ()&#45;&gt;1,7 (Activated Carbon) -->
<g id="edge9" class="edge">
<title>&#45;7,5 ()&#45;&gt;1,7 (Activated Carbon)</title>
<path fill="none" stroke="black" stroke-width="0.35" d="M958.31,-628.44C1099.47,-741.01 1962.59,-1429.32 2136.56,-1568.06"/>
<polygon fill="black" stroke="black" stroke-width="0.35" points="2134.55,-1570.93 2144.55,-1574.43 2138.91,-1565.46 2134.55,-1570.93"/>
<text text-anchor="middle" x="1488.94" y="-1102.05" font-family="Times,serif" font-size="14.00">coal&#45;dust*13024</text>
</g>
<!-- &#45;7,5 ()&#45;&gt;&#45;3,9 (Silicon Wafers) -->
<g id="edge7" class="edge">
<title>&#45;7,5 ()&#45;&gt;&#45;3,9 (Silicon Wafers)</title>
<path fill="none" stroke="black" stroke-width="0.07" d="M958.22,-597.34C1039.99,-532.13 1356.15,-280 1455.43,-200.83"/>
<polygon fill="black" stroke="black" stroke-width="0.07" points="1457.64,-203.54 1463.27,-194.57 1453.27,-198.07 1457.64,-203.54"/>
<text text-anchor="middle" x="1152.83" y="-402.88" font-family="Times,serif" font-size="14.00">coal&#45;dust*2544</text>
</g>
<!-- 3,16 (More Coke) -->
<g id="node8" class="node">
<title>3,16 (More Coke)</title>
<ellipse fill="none" stroke="black" cx="1449.16" cy="-18" rx="90.98" ry="18"/>
<text text-anchor="middle" x="1449.16" y="-14.3" font-family="Times,serif" font-size="14.00">3,16 (More Coke)</text>
</g>
<!-- 3,16 (More Coke)&#45;&gt;&#45;3,9 (Silicon Wafers) -->
<g id="edge10" class="edge">
<title>3,16 (More Coke)&#45;&gt;&#45;3,9 (Silicon Wafers)</title>
<path fill="none" stroke="black" stroke-width="0.66" d="M1453.32,-36.23C1459.63,-63.89 1471.68,-116.66 1479.09,-149.12"/>
<polygon fill="black" stroke="black" stroke-width="0.66" points="1475.68,-149.92 1481.32,-158.89 1482.5,-148.36 1475.68,-149.92"/>
<text text-anchor="middle" x="1407.7" y="-96.48" font-family="Times,serif" font-size="14.00">coal&#45;dust*25024</text>
</g>
<!-- &#45;6,1 (Coke and Coal Dust from Biomass (needs Iron plates)) -->
<g id="node10" class="node">
<title>&#45;6,1 (Coke and Coal Dust from Biomass (needs Iron plates))</title>
<ellipse fill="none" stroke="black" cx="2828.45" cy="-962.46" rx="285.95" ry="18"/>
<text text-anchor="middle" x="2828.45" y="-958.76" font-family="Times,serif" font-size="14.00">&#45;6,1 (Coke and Coal Dust from Biomass (needs Iron plates))</text>
</g>
<!-- &#45;6,1 (Coke and Coal Dust from Biomass (needs Iron plates))&#45;&gt;5,5 (Silicon) -->
<g id="edge12" class="edge">
<title>&#45;6,1 (Coke and Coal Dust from Biomass (needs Iron plates))&#45;&gt;5,5 (Silicon)</title>
<path fill="none" stroke="black" stroke-width="0.66" d="M2542.06,-962.46C2541.96,-962.46 2541.86,-962.46 2541.75,-962.46"/>
<polygon fill="black" stroke="black" stroke-width="0.66" points="2547.19,-958.96 2537.19,-962.46 2547.19,-965.96 2547.19,-958.96"/>
<text text-anchor="middle" x="2483.41" y="-966.26" font-family="Times,serif" font-size="14.00">coal&#45;dust*25040</text>
</g>
<!-- 3,15 (Even Yet More Coke) -->
<g id="node11" class="node">
<title>3,15 (Even Yet More Coke)</title>
<ellipse fill="none" stroke="black" cx="285.6" cy="-1042.7" rx="135.38" ry="18"/>
<text text-anchor="middle" x="285.6" y="-1039" font-family="Times,serif" font-size="14.00">3,15 (Even Yet More Coke)</text>
</g>
<!-- 3,15 (Even Yet More Coke)&#45;&gt;&#45;2,8 (syngas from coal dust and also wood) -->
<g id="edge13" class="edge">
<title>3,15 (Even Yet More Coke)&#45;&gt;&#45;2,8 (syngas from coal dust and also wood)</title>
<path fill="none" stroke="black" stroke-width="0.59" d="M327.45,-1059.96C442.02,-1107.21 760.59,-1238.58 886.55,-1290.52"/>
<polygon fill="black" stroke="black" stroke-width="0.59" points="885.41,-1293.84 895.99,-1294.42 888.08,-1287.37 885.41,-1293.84"/>
<text text-anchor="middle" x="548.5" y="-1179.04" font-family="Times,serif" font-size="14.00">coal&#45;dust*22400</text>
</g>
<!-- 2,12 (Yet more coke) -->
<g id="node12" class="node">
<title>2,12 (Yet more coke)</title>
<ellipse fill="none" stroke="black" cx="2278.45" cy="-1732.05" rx="106.68" ry="18"/>
<text text-anchor="middle" x="2278.45" y="-1728.35" font-family="Times,serif" font-size="14.00">2,12 (Yet more coke)</text>
</g>
<!-- 2,12 (Yet more coke)&#45;&gt;1,7 (Activated Carbon) -->
<g id="edge14" class="edge">
<title>2,12 (Yet more coke)&#45;&gt;1,7 (Activated Carbon)</title>
<path fill="none" stroke="black" stroke-width="0.14" d="M2264.13,-1714.08C2244.75,-1689.78 2210.07,-1646.29 2187.85,-1618.43"/>
<polygon fill="black" stroke="black" stroke-width="0.14" points="2190.35,-1615.95 2181.38,-1610.32 2184.88,-1620.32 2190.35,-1615.95"/>
<text text-anchor="middle" x="2171.99" y="-1670.05" font-family="Times,serif" font-size="14.00">coal&#45;dust*5360</text>
</g>
</g>
</svg>
