<?xml version="1.0" encoding="UTF-8" standalone="no"?>
<!DOCTYPE svg PUBLIC "-//W3C//DTD SVG 1.1//EN"
 "http://www.w3.org/Graphics/SVG/1.1/DTD/svg11.dtd">
<!-- Generated by graphviz version 2.43.0 (0)
 -->
<!-- Title: %3 Pages: 1 -->
<svg width="1141pt" height="44pt"
 viewBox="0.00 0.00 1140.56 44.00" xmlns="http://www.w3.org/2000/svg" xmlns:xlink="http://www.w3.org/1999/xlink">
<g id="graph0" class="graph" transform="scale(1 1) rotate(0) translate(4 40)">
<title>%3</title>
<polygon fill="white" stroke="transparent" points="-4,4 -4,-40 1136.56,-40 1136.56,4 -4,4"/>
<!-- &#45;2,5 (Rare Earth Oxides) -->
<g id="node1" class="node">
<title>&#45;2,5 (Rare Earth Oxides)</title>
<ellipse fill="none" stroke="black" cx="537.36" cy="-18" rx="124.28" ry="18"/>
<text text-anchor="middle" x="537.36" y="-14.3" font-family="Times,serif" font-size="14.00">&#45;2,5 (Rare Earth Oxides)</text>
</g>
<!-- 4,6 (Circuit substrate and Doped silicon) -->
<g id="node2" class="node">
<title>4,6 (Circuit substrate and Doped silicon)</title>
<ellipse fill="none" stroke="black" cx="933.03" cy="-18" rx="199.56" ry="18"/>
<text text-anchor="middle" x="933.03" y="-14.3" font-family="Times,serif" font-size="14.00">4,6 (Circuit substrate and Doped silicon)</text>
</g>
<!-- &#45;2,5 (Rare Earth Oxides)&#45;&gt;4,6 (Circuit substrate and Doped silicon) -->
<g id="edge1" class="edge">
<title>&#45;2,5 (Rare Earth Oxides)&#45;&gt;4,6 (Circuit substrate and Doped silicon)</title>
<path fill="none" stroke="black" stroke-width="1.08" d="M661.74,-18C681.49,-18 702.39,-18 723.46,-18"/>
<polygon fill="black" stroke="black" stroke-width="1.08" points="723.48,-21.5 733.48,-18 723.48,-14.5 723.48,-21.5"/>
<text text-anchor="middle" x="692.6" y="-6.8" font-family="Times,serif" font-size="14.00">reo*53392</text>
</g>
<!-- 6,4 (Electronic components) -->
<g id="node3" class="node">
<title>6,4 (Electronic components)</title>
<ellipse fill="none" stroke="black" cx="141.69" cy="-18" rx="141.88" ry="18"/>
<text text-anchor="middle" x="141.69" y="-14.3" font-family="Times,serif" font-size="14.00">6,4 (Electronic components)</text>
</g>
<!-- &#45;2,5 (Rare Earth Oxides)&#45;&gt;6,4 (Electronic components) -->
<g id="edge2" class="edge">
<title>&#45;2,5 (Rare Earth Oxides)&#45;&gt;6,4 (Electronic components)</title>
<path fill="none" stroke="black" stroke-width="0.92" d="M412.98,-18C375.15,-18 333.14,-18 293.7,-18"/>
<polygon fill="black" stroke="black" stroke-width="0.92" points="293.47,-14.5 283.47,-18 293.47,-21.5 293.47,-14.5"/>
<text text-anchor="middle" x="372.34" y="-6.8" font-family="Times,serif" font-size="14.00">reo*45712</text>
</g>
</g>
</svg>
