<?xml version="1.0" encoding="UTF-8" standalone="no"?>
<!DOCTYPE svg PUBLIC "-//W3C//DTD SVG 1.1//EN"
 "http://www.w3.org/Graphics/SVG/1.1/DTD/svg11.dtd">
<!-- Generated by graphviz version 2.43.0 (0)
 -->
<!-- Title: %3 Pages: 1 -->
<svg width="1711pt" height="1448pt"
 viewBox="0.00 0.00 1710.89 1448.31" xmlns="http://www.w3.org/2000/svg" xmlns:xlink="http://www.w3.org/1999/xlink">
<g id="graph0" class="graph" transform="scale(1 1) rotate(0) translate(4 1444.31)">
<title>%3</title>
<polygon fill="white" stroke="transparent" points="-4,4 -4,-1444.31 1706.89,-1444.31 1706.89,4 -4,4"/>
<!-- &#45;4,&#45;3 (Breath Deeply. Exhale. (Hot Air)) -->
<g id="node1" class="node">
<title>&#45;4,&#45;3 (Breath Deeply. Exhale. (Hot Air))</title>
<ellipse fill="none" stroke="black" cx="814.91" cy="-703.92" rx="190.37" ry="18"/>
<text text-anchor="middle" x="814.91" y="-700.22" font-family="Times,serif" font-size="14.00">&#45;4,&#45;3 (Breath Deeply. Exhale. (Hot Air))</text>
</g>
<!-- &#45;1,11 (Steel Plate (from molten)) -->
<g id="node2" class="node">
<title>&#45;1,11 (Steel Plate (from molten))</title>
<ellipse fill="none" stroke="black" cx="1541.7" cy="-703.92" rx="161.37" ry="18"/>
<text text-anchor="middle" x="1541.7" y="-700.22" font-family="Times,serif" font-size="14.00">&#45;1,11 (Steel Plate (from molten))</text>
</g>
<!-- &#45;4,&#45;3 (Breath Deeply. Exhale. (Hot Air))&#45;&gt;&#45;1,11 (Steel Plate (from molten)) -->
<g id="edge1" class="edge">
<title>&#45;4,&#45;3 (Breath Deeply. Exhale. (Hot Air))&#45;&gt;&#45;1,11 (Steel Plate (from molten))</title>
<path fill="none" stroke="black" stroke-width="1.88" d="M1005.39,-703.92C1118.47,-703.92 1260.67,-703.92 1370.23,-703.92"/>
<polygon fill="black" stroke="black" stroke-width="1.88" points="1370.4,-707.42 1380.4,-703.92 1370.4,-700.42 1370.4,-707.42"/>
<text text-anchor="middle" x="1113.81" y="-707.72" font-family="Times,serif" font-size="14.00">hot&#45;air&#45;barrel*57176</text>
</g>
<!-- &#45;5,5 (fluid=flue&#45;gas Flue gas) -->
<g id="node3" class="node">
<title>&#45;5,5 (fluid=flue&#45;gas Flue gas)</title>
<ellipse fill="none" stroke="black" cx="1445.22" cy="-1065.78" rx="145.67" ry="18"/>
<text text-anchor="middle" x="1445.22" y="-1062.08" font-family="Times,serif" font-size="14.00">&#45;5,5 (fluid=flue&#45;gas Flue gas)</text>
</g>
<!-- &#45;4,&#45;3 (Breath Deeply. Exhale. (Hot Air))&#45;&gt;&#45;5,5 (fluid=flue&#45;gas Flue gas) -->
<g id="edge2" class="edge">
<title>&#45;4,&#45;3 (Breath Deeply. Exhale. (Hot Air))&#45;&gt;&#45;5,5 (fluid=flue&#45;gas Flue gas)</title>
<path fill="none" stroke="black" stroke-width="5.37" d="M846.17,-721.87C950.89,-781.99 1289.31,-976.27 1405.57,-1043.02"/>
<polygon fill="black" stroke="black" stroke-width="5.37" points="1403.5,-1047.25 1414.51,-1048.15 1408.18,-1039.1 1403.5,-1047.25"/>
<text text-anchor="middle" x="1047.37" y="-886.24" font-family="Times,serif" font-size="14.00">hot&#45;air&#45;barrel*163584</text>
</g>
<!-- &#45;4,0 (item=lens Optical sets) -->
<g id="node4" class="node">
<title>&#45;4,0 (item=lens Optical sets)</title>
<ellipse fill="none" stroke="black" cx="1196.42" cy="-1322.53" rx="143.77" ry="18"/>
<text text-anchor="middle" x="1196.42" y="-1318.83" font-family="Times,serif" font-size="14.00">&#45;4,0 (item=lens Optical sets)</text>
</g>
<!-- &#45;4,&#45;3 (Breath Deeply. Exhale. (Hot Air))&#45;&gt;&#45;4,0 (item=lens Optical sets) -->
<g id="edge3" class="edge">
<title>&#45;4,&#45;3 (Breath Deeply. Exhale. (Hot Air))&#45;&gt;&#45;4,0 (item=lens Optical sets)</title>
<path fill="none" stroke="black" stroke-width="0.86" d="M826.12,-722.1C880.3,-809.95 1115.06,-1190.6 1179.82,-1295.61"/>
<polygon fill="black" stroke="black" stroke-width="0.86" points="1176.98,-1297.68 1185.21,-1304.35 1182.94,-1294 1176.98,-1297.68"/>
<text text-anchor="middle" x="928.97" y="-1012.66" font-family="Times,serif" font-size="14.00">hot&#45;air&#45;barrel*26072</text>
</g>
<!-- 3,13 (Rubber) -->
<g id="node5" class="node">
<title>3,13 (Rubber)</title>
<ellipse fill="none" stroke="black" cx="925.1" cy="-1422.31" rx="75.29" ry="18"/>
<text text-anchor="middle" x="925.1" y="-1418.61" font-family="Times,serif" font-size="14.00">3,13 (Rubber)</text>
</g>
<!-- &#45;4,&#45;3 (Breath Deeply. Exhale. (Hot Air))&#45;&gt;3,13 (Rubber) -->
<g id="edge4" class="edge">
<title>&#45;4,&#45;3 (Breath Deeply. Exhale. (Hot Air))&#45;&gt;3,13 (Rubber)</title>
<path fill="none" stroke="black" stroke-width="2.52" d="M817.69,-722.04C832.55,-818.9 902.6,-1275.62 920.78,-1394.15"/>
<polygon fill="black" stroke="black" stroke-width="2.52" points="917.35,-1394.89 922.33,-1404.24 924.27,-1393.83 917.35,-1394.89"/>
<text text-anchor="middle" x="795.23" y="-1061.9" font-family="Times,serif" font-size="14.00">hot&#45;air&#45;barrel*76768</text>
</g>
<!-- &#45;1,10 (Iron Plates) -->
<g id="node6" class="node">
<title>&#45;1,10 (Iron Plates)</title>
<ellipse fill="none" stroke="black" cx="683.96" cy="-1418.82" rx="94.78" ry="18"/>
<text text-anchor="middle" x="683.96" y="-1415.12" font-family="Times,serif" font-size="14.00">&#45;1,10 (Iron Plates)</text>
</g>
<!-- &#45;4,&#45;3 (Breath Deeply. Exhale. (Hot Air))&#45;&gt;&#45;1,10 (Iron Plates) -->
<g id="edge5" class="edge">
<title>&#45;4,&#45;3 (Breath Deeply. Exhale. (Hot Air))&#45;&gt;&#45;1,10 (Iron Plates)</title>
<path fill="none" stroke="black" stroke-width="0.35" d="M811.61,-721.95C793.97,-818.23 710.88,-1271.85 689.16,-1390.41"/>
<polygon fill="black" stroke="black" stroke-width="0.35" points="685.67,-1390.05 687.31,-1400.51 692.56,-1391.31 685.67,-1390.05"/>
<text text-anchor="middle" x="676.39" y="-1044.98" font-family="Times,serif" font-size="14.00">hot&#45;air&#45;barrel*10776</text>
</g>
<!-- 6,3 (Things from molten) -->
<g id="node7" class="node">
<title>6,3 (Things from molten)</title>
<ellipse fill="none" stroke="black" cx="414.01" cy="-1310.15" rx="126.18" ry="18"/>
<text text-anchor="middle" x="414.01" y="-1306.45" font-family="Times,serif" font-size="14.00">6,3 (Things from molten)</text>
</g>
<!-- &#45;4,&#45;3 (Breath Deeply. Exhale. (Hot Air))&#45;&gt;6,3 (Things from molten) -->
<g id="edge6" class="edge">
<title>&#45;4,&#45;3 (Breath Deeply. Exhale. (Hot Air))&#45;&gt;6,3 (Things from molten)</title>
<path fill="none" stroke="black" stroke-width="0.1" d="M802.91,-722.06C745.62,-808.69 499.88,-1180.3 431.65,-1283.48"/>
<polygon fill="black" stroke="black" stroke-width="0.1" points="428.56,-1281.8 425.96,-1292.08 434.4,-1285.66 428.56,-1281.8"/>
<text text-anchor="middle" x="547.78" y="-1006.57" font-family="Times,serif" font-size="14.00">hot&#45;air&#45;barrel*3024</text>
</g>
<!-- 3,9 (Copper, molten &amp; plate) -->
<g id="node8" class="node">
<title>3,9 (Copper, molten &amp; plate)</title>
<ellipse fill="none" stroke="black" cx="182.87" cy="-1062.74" rx="143.77" ry="18"/>
<text text-anchor="middle" x="182.87" y="-1059.04" font-family="Times,serif" font-size="14.00">3,9 (Copper, molten &amp; plate)</text>
</g>
<!-- &#45;4,&#45;3 (Breath Deeply. Exhale. (Hot Air))&#45;&gt;3,9 (Copper, molten &amp; plate) -->
<g id="edge7" class="edge">
<title>&#45;4,&#45;3 (Breath Deeply. Exhale. (Hot Air))&#45;&gt;3,9 (Copper, molten &amp; plate)</title>
<path fill="none" stroke="black" stroke-width="0.25" d="M783.57,-721.71C678.68,-781.26 339.99,-973.54 223.03,-1039.94"/>
<polygon fill="black" stroke="black" stroke-width="0.25" points="220.99,-1037.07 214.02,-1045.05 224.45,-1043.15 220.99,-1037.07"/>
<text text-anchor="middle" x="433.8" y="-884.63" font-family="Times,serif" font-size="14.00">hot&#45;air&#45;barrel*7752</text>
</g>
<!-- 0,0 (LE BUS) -->
<g id="node9" class="node">
<title>0,0 (LE BUS)</title>
<ellipse fill="none" stroke="black" cx="93.45" cy="-791.84" rx="71.49" ry="18"/>
<text text-anchor="middle" x="93.45" y="-788.14" font-family="Times,serif" font-size="14.00">0,0 (LE BUS)</text>
</g>
<!-- &#45;4,&#45;3 (Breath Deeply. Exhale. (Hot Air))&#45;&gt;0,0 (LE BUS) -->
<g id="edge8" class="edge">
<title>&#45;4,&#45;3 (Breath Deeply. Exhale. (Hot Air))&#45;&gt;0,0 (LE BUS)</title>
<path fill="none" stroke="black" stroke-width="0.9" d="M698.19,-718.15C548.7,-736.36 293.96,-767.41 168.21,-782.73"/>
<polygon fill="black" stroke="black" stroke-width="0.9" points="167.78,-779.26 158.28,-783.94 168.63,-786.21 167.78,-779.26"/>
<text text-anchor="middle" x="359.2" y="-754.24" font-family="Times,serif" font-size="14.00">hot&#45;air&#45;barrel*27504</text>
</g>
<!-- 2,1 (Niobium plates) -->
<g id="node10" class="node">
<title>2,1 (Niobium plates)</title>
<ellipse fill="none" stroke="black" cx="105.94" cy="-543.95" rx="105.88" ry="18"/>
<text text-anchor="middle" x="105.94" y="-540.25" font-family="Times,serif" font-size="14.00">2,1 (Niobium plates)</text>
</g>
<!-- &#45;4,&#45;3 (Breath Deeply. Exhale. (Hot Air))&#45;&gt;2,1 (Niobium plates) -->
<g id="edge9" class="edge">
<title>&#45;4,&#45;3 (Breath Deeply. Exhale. (Hot Air))&#45;&gt;2,1 (Niobium plates)</title>
<path fill="none" stroke="black" stroke-width="0.12" d="M741.04,-687.25C604.89,-656.53 315.87,-591.31 179.75,-560.6"/>
<polygon fill="black" stroke="black" stroke-width="0.12" points="180.35,-557.15 169.83,-558.36 178.81,-563.98 180.35,-557.15"/>
<text text-anchor="middle" x="390.9" y="-627.73" font-family="Times,serif" font-size="14.00">hot&#45;air&#45;barrel*3552</text>
</g>
<!-- 4,13 (Chromium processing) -->
<g id="node11" class="node">
<title>4,13 (Chromium processing)</title>
<ellipse fill="none" stroke="black" cx="242.31" cy="-256.31" rx="142.97" ry="18"/>
<text text-anchor="middle" x="242.31" y="-252.61" font-family="Times,serif" font-size="14.00">4,13 (Chromium processing)</text>
</g>
<!-- &#45;4,&#45;3 (Breath Deeply. Exhale. (Hot Air))&#45;&gt;4,13 (Chromium processing) -->
<g id="edge10" class="edge">
<title>&#45;4,&#45;3 (Breath Deeply. Exhale. (Hot Air))&#45;&gt;4,13 (Chromium processing)</title>
<path fill="none" stroke="black" stroke-width="0.05" d="M791.75,-685.82C701.8,-615.5 375.52,-360.44 273.21,-280.47"/>
<polygon fill="black" stroke="black" stroke-width="0.05" points="275.16,-277.55 265.13,-274.14 270.85,-283.06 275.16,-277.55"/>
<text text-anchor="middle" x="462.98" y="-486.94" font-family="Times,serif" font-size="14.00">hot&#45;air&#45;barrel*1608</text>
</g>
<!-- 4,6 (Circuit substrate and Doped silicon) -->
<g id="node12" class="node">
<title>4,6 (Circuit substrate and Doped silicon)</title>
<ellipse fill="none" stroke="black" cx="574.62" cy="-18" rx="199.56" ry="18"/>
<text text-anchor="middle" x="574.62" y="-14.3" font-family="Times,serif" font-size="14.00">4,6 (Circuit substrate and Doped silicon)</text>
</g>
<!-- &#45;4,&#45;3 (Breath Deeply. Exhale. (Hot Air))&#45;&gt;4,6 (Circuit substrate and Doped silicon) -->
<g id="edge11" class="edge">
<title>&#45;4,&#45;3 (Breath Deeply. Exhale. (Hot Air))&#45;&gt;4,6 (Circuit substrate and Doped silicon)</title>
<path fill="none" stroke="black" stroke-width="0.2" d="M808.61,-685.93C775.79,-592.25 624.48,-160.34 584.39,-45.89"/>
<polygon fill="black" stroke="black" stroke-width="0.2" points="587.57,-44.4 580.96,-36.12 580.97,-46.72 587.57,-44.4"/>
<text text-anchor="middle" x="627" y="-369.71" font-family="Times,serif" font-size="14.00">hot&#45;air&#45;barrel*6144</text>
</g>
<!-- 3,5 (item=molybdenum&#45;plate Molybdenum plate) -->
<g id="node13" class="node">
<title>3,5 (item=molybdenum&#45;plate Molybdenum plate)</title>
<ellipse fill="none" stroke="black" cx="1075.44" cy="-25.43" rx="239.66" ry="18"/>
<text text-anchor="middle" x="1075.44" y="-21.73" font-family="Times,serif" font-size="14.00">3,5 (item=molybdenum&#45;plate Molybdenum plate)</text>
</g>
<!-- &#45;4,&#45;3 (Breath Deeply. Exhale. (Hot Air))&#45;&gt;3,5 (item=molybdenum&#45;plate Molybdenum plate) -->
<g id="edge12" class="edge">
<title>&#45;4,&#45;3 (Breath Deeply. Exhale. (Hot Air))&#45;&gt;3,5 (item=molybdenum&#45;plate Molybdenum plate)</title>
<path fill="none" stroke="black" stroke-width="0.39" d="M821.88,-685.77C857.74,-592.39 1021.46,-166.01 1064.86,-52.99"/>
<polygon fill="black" stroke="black" stroke-width="0.39" points="1068.13,-54.22 1068.45,-43.63 1061.6,-51.71 1068.13,-54.22"/>
<text text-anchor="middle" x="869.37" y="-373.18" font-family="Times,serif" font-size="14.00">hot&#45;air&#45;barrel*12000</text>
</g>
<!-- 2,10 (Nickel plate and Nichrome) -->
<g id="node14" class="node">
<title>2,10 (Nickel plate and Nichrome)</title>
<ellipse fill="none" stroke="black" cx="1435.28" cy="-325.29" rx="165.17" ry="18"/>
<text text-anchor="middle" x="1435.28" y="-321.59" font-family="Times,serif" font-size="14.00">2,10 (Nickel plate and Nichrome)</text>
</g>
<!-- &#45;4,&#45;3 (Breath Deeply. Exhale. (Hot Air))&#45;&gt;2,10 (Nickel plate and Nichrome) -->
<g id="edge13" class="edge">
<title>&#45;4,&#45;3 (Breath Deeply. Exhale. (Hot Air))&#45;&gt;2,10 (Nickel plate and Nichrome)</title>
<path fill="none" stroke="black" stroke-width="0.01" d="M844.41,-685.91C946.28,-623.74 1283.2,-418.11 1397.2,-348.53"/>
<polygon fill="black" stroke="black" stroke-width="0.01" points="1399.25,-351.38 1405.96,-343.18 1395.6,-345.41 1399.25,-351.38"/>
<text text-anchor="middle" x="1055.81" y="-521.02" font-family="Times,serif" font-size="14.00">hot&#45;air&#45;barrel*216</text>
</g>
</g>
</svg>
