<?xml version="1.0" encoding="UTF-8" standalone="no"?>
<!DOCTYPE svg PUBLIC "-//W3C//DTD SVG 1.1//EN"
 "http://www.w3.org/Graphics/SVG/1.1/DTD/svg11.dtd">
<!-- Generated by graphviz version 2.43.0 (0)
 -->
<!-- Title: %3 Pages: 1 -->
<svg width="601pt" height="44pt"
 viewBox="0.00 0.00 601.11 44.00" xmlns="http://www.w3.org/2000/svg" xmlns:xlink="http://www.w3.org/1999/xlink">
<g id="graph0" class="graph" transform="scale(1 1) rotate(0) translate(4 40)">
<title>%3</title>
<polygon fill="white" stroke="transparent" points="-4,4 -4,-40 597.11,-40 597.11,4 -4,4"/>
<!-- 6,&#45;1 (Clay) -->
<g id="node1" class="node">
<title>6,&#45;1 (Clay)</title>
<ellipse fill="none" stroke="black" cx="292.33" cy="-18" rx="58.49" ry="18"/>
<text text-anchor="middle" x="292.33" y="-14.3" font-family="Times,serif" font-size="14.00">6,&#45;1 (Clay)</text>
</g>
<!-- &#45;4,&#45;2 (Crude Oil) -->
<g id="node2" class="node">
<title>&#45;4,&#45;2 (Crude Oil)</title>
<ellipse fill="none" stroke="black" cx="507.97" cy="-18" rx="85.29" ry="18"/>
<text text-anchor="middle" x="507.97" y="-14.3" font-family="Times,serif" font-size="14.00">&#45;4,&#45;2 (Crude Oil)</text>
</g>
<!-- 6,&#45;1 (Clay)&#45;&gt;&#45;4,&#45;2 (Crude Oil) -->
<g id="edge1" class="edge">
<title>6,&#45;1 (Clay)&#45;&gt;&#45;4,&#45;2 (Crude Oil)</title>
<path fill="none" stroke="black" stroke-width="0.78" d="M350.97,-18C369.94,-18 391.5,-18 412.43,-18"/>
<polygon fill="black" stroke="black" stroke-width="0.78" points="412.64,-21.5 422.64,-18 412.64,-14.5 412.64,-21.5"/>
<text text-anchor="middle" x="381.7" y="-6.8" font-family="Times,serif" font-size="14.00">clay*73840</text>
</g>
<!-- 4,&#45;2 (Ceramic) -->
<g id="node3" class="node">
<title>4,&#45;2 (Ceramic)</title>
<ellipse fill="none" stroke="black" cx="76.69" cy="-18" rx="76.89" ry="18"/>
<text text-anchor="middle" x="76.69" y="-14.3" font-family="Times,serif" font-size="14.00">4,&#45;2 (Ceramic)</text>
</g>
<!-- 6,&#45;1 (Clay)&#45;&gt;4,&#45;2 (Ceramic) -->
<g id="edge2" class="edge">
<title>6,&#45;1 (Clay)&#45;&gt;4,&#45;2 (Ceramic)</title>
<path fill="none" stroke="black" stroke-width="1.22" d="M233.69,-18C212.08,-18 187.12,-18 163.55,-18"/>
<polygon fill="black" stroke="black" stroke-width="1.22" points="163.55,-14.5 153.55,-18 163.55,-21.5 163.55,-14.5"/>
<text text-anchor="middle" x="198.62" y="-6.8" font-family="Times,serif" font-size="14.00">clay*115200</text>
</g>
</g>
</svg>
