<?xml version="1.0" encoding="UTF-8" standalone="no"?>
<!DOCTYPE svg PUBLIC "-//W3C//DTD SVG 1.1//EN"
 "http://www.w3.org/Graphics/SVG/1.1/DTD/svg11.dtd">
<!-- Generated by graphviz version 2.43.0 (0)
 -->
<!-- Title: %3 Pages: 1 -->
<svg width="898pt" height="725pt"
 viewBox="0.00 0.00 897.52 725.46" xmlns="http://www.w3.org/2000/svg" xmlns:xlink="http://www.w3.org/1999/xlink">
<g id="graph0" class="graph" transform="scale(1 1) rotate(0) translate(4 721.46)">
<title>%3</title>
<polygon fill="white" stroke="transparent" points="-4,4 -4,-721.46 893.52,-721.46 893.52,4 -4,4"/>
<!-- &#45;3,8 (Urea) -->
<g id="node1" class="node">
<title>&#45;3,8 (Urea)</title>
<ellipse fill="none" stroke="black" cx="425.13" cy="-358.61" rx="61.19" ry="18"/>
<text text-anchor="middle" x="425.13" y="-354.91" font-family="Times,serif" font-size="14.00">&#45;3,8 (Urea)</text>
</g>
<!-- &#45;5,2 (Optical fiber) -->
<g id="node2" class="node">
<title>&#45;5,2 (Optical fiber)</title>
<ellipse fill="none" stroke="black" cx="793.33" cy="-358.61" rx="96.38" ry="18"/>
<text text-anchor="middle" x="793.33" y="-354.91" font-family="Times,serif" font-size="14.00">&#45;5,2 (Optical fiber)</text>
</g>
<!-- &#45;3,8 (Urea)&#45;&gt;&#45;5,2 (Optical fiber) -->
<g id="edge1" class="edge">
<title>&#45;3,8 (Urea)&#45;&gt;&#45;5,2 (Optical fiber)</title>
<path fill="none" stroke="black" stroke-width="1.64" d="M486.34,-358.61C540.79,-358.61 621.63,-358.61 686.68,-358.61"/>
<polygon fill="black" stroke="black" stroke-width="1.64" points="686.98,-362.11 696.98,-358.61 686.98,-355.11 686.98,-362.11"/>
<text text-anchor="middle" x="544.01" y="-362.41" font-family="Times,serif" font-size="14.00">urea*15712</text>
</g>
<!-- 1,4 (Casein and Melamine) -->
<g id="node3" class="node">
<title>1,4 (Casein and Melamine)</title>
<ellipse fill="none" stroke="black" cx="675.25" cy="-628.8" rx="135.38" ry="18"/>
<text text-anchor="middle" x="675.25" y="-625.1" font-family="Times,serif" font-size="14.00">1,4 (Casein and Melamine)</text>
</g>
<!-- &#45;3,8 (Urea)&#45;&gt;1,4 (Casein and Melamine) -->
<g id="edge2" class="edge">
<title>&#45;3,8 (Urea)&#45;&gt;1,4 (Casein and Melamine)</title>
<path fill="none" stroke="black" stroke-width="1.63" d="M441.54,-376.34C484.63,-422.89 601.14,-548.75 651.52,-603.16"/>
<polygon fill="black" stroke="black" stroke-width="1.63" points="649.09,-605.7 658.45,-610.66 654.23,-600.94 649.09,-605.7"/>
<text text-anchor="middle" x="504.03" y="-493.55" font-family="Times,serif" font-size="14.00">urea*15600</text>
</g>
<!-- 4,9 (Cyanic Acid, Ammonia is a by&#45;product) -->
<g id="node4" class="node">
<title>4,9 (Cyanic Acid, Ammonia is a by&#45;product)</title>
<ellipse fill="none" stroke="black" cx="285.89" cy="-699.46" rx="210.66" ry="18"/>
<text text-anchor="middle" x="285.89" y="-695.76" font-family="Times,serif" font-size="14.00">4,9 (Cyanic Acid, Ammonia is a by&#45;product)</text>
</g>
<!-- &#45;3,8 (Urea)&#45;&gt;4,9 (Cyanic Acid, Ammonia is a by&#45;product) -->
<g id="edge3" class="edge">
<title>&#45;3,8 (Urea)&#45;&gt;4,9 (Cyanic Acid, Ammonia is a by&#45;product)</title>
<path fill="none" stroke="black" stroke-width="1.65" d="M417.64,-376.93C394.6,-433.36 324.6,-604.7 297.13,-671.95"/>
<polygon fill="black" stroke="black" stroke-width="1.65" points="293.79,-670.88 293.25,-681.46 300.27,-673.52 293.79,-670.88"/>
<text text-anchor="middle" x="314.89" y="-528.24" font-family="Times,serif" font-size="14.00">urea*15776</text>
</g>
<!-- &#45;1,7 (Rayon) -->
<g id="node5" class="node">
<title>&#45;1,7 (Rayon)</title>
<ellipse fill="none" stroke="black" cx="66.94" cy="-443.87" rx="66.89" ry="18"/>
<text text-anchor="middle" x="66.94" y="-440.17" font-family="Times,serif" font-size="14.00">&#45;1,7 (Rayon)</text>
</g>
<!-- &#45;3,8 (Urea)&#45;&gt;&#45;1,7 (Rayon) -->
<g id="edge4" class="edge">
<title>&#45;3,8 (Urea)&#45;&gt;&#45;1,7 (Rayon)</title>
<path fill="none" stroke="black" stroke-width="0.55" d="M377.57,-369.93C313.09,-385.28 197.91,-412.7 127.38,-429.49"/>
<polygon fill="black" stroke="black" stroke-width="0.55" points="126.22,-426.16 117.3,-431.88 127.84,-432.97 126.22,-426.16"/>
<text text-anchor="middle" x="214.47" y="-403.51" font-family="Times,serif" font-size="14.00">urea*5264</text>
</g>
<!-- &#45;2,&#45;3 (Trains) -->
<g id="node6" class="node">
<title>&#45;2,&#45;3 (Trains)</title>
<ellipse fill="none" stroke="black" cx="77.32" cy="-237.79" rx="70.39" ry="18"/>
<text text-anchor="middle" x="77.32" y="-234.09" font-family="Times,serif" font-size="14.00">&#45;2,&#45;3 (Trains)</text>
</g>
<!-- &#45;3,8 (Urea)&#45;&gt;&#45;2,&#45;3 (Trains) -->
<g id="edge5" class="edge">
<title>&#45;3,8 (Urea)&#45;&gt;&#45;2,&#45;3 (Trains)</title>
<path fill="none" stroke="black" stroke-width="0.67" d="M385.57,-344.87C322.4,-322.92 198.75,-279.97 128.78,-255.67"/>
<polygon fill="black" stroke="black" stroke-width="0.67" points="129.87,-252.34 119.27,-252.37 127.57,-258.96 129.87,-252.34"/>
<text text-anchor="middle" x="219.18" y="-304.07" font-family="Times,serif" font-size="14.00">urea*6432</text>
</g>
<!-- 2,4 (Formica and Phenolic boards) -->
<g id="node7" class="node">
<title>2,4 (Formica and Phenolic boards)</title>
<ellipse fill="none" stroke="black" cx="285.29" cy="-18" rx="169.77" ry="18"/>
<text text-anchor="middle" x="285.29" y="-14.3" font-family="Times,serif" font-size="14.00">2,4 (Formica and Phenolic boards)</text>
</g>
<!-- &#45;3,8 (Urea)&#45;&gt;2,4 (Formica and Phenolic boards) -->
<g id="edge6" class="edge">
<title>&#45;3,8 (Urea)&#45;&gt;2,4 (Formica and Phenolic boards)</title>
<path fill="none" stroke="black" stroke-width="0.6" d="M417.61,-340.29C394.46,-283.91 324.17,-112.69 296.58,-45.49"/>
<polygon fill="black" stroke="black" stroke-width="0.6" points="299.71,-43.91 292.68,-35.99 293.24,-46.57 299.71,-43.91"/>
<text text-anchor="middle" x="319.1" y="-196.69" font-family="Times,serif" font-size="14.00">urea*5728</text>
</g>
<!-- &#45;6,&#45;2 (item=fertilizer Fertiliser) -->
<g id="node8" class="node">
<title>&#45;6,&#45;2 (item=fertilizer Fertiliser)</title>
<ellipse fill="none" stroke="black" cx="659.6" cy="-74.72" rx="155.97" ry="18"/>
<text text-anchor="middle" x="659.6" y="-71.02" font-family="Times,serif" font-size="14.00">&#45;6,&#45;2 (item=fertilizer Fertiliser)</text>
</g>
<!-- &#45;3,8 (Urea)&#45;&gt;&#45;6,&#45;2 (item=fertilizer Fertiliser) -->
<g id="edge7" class="edge">
<title>&#45;3,8 (Urea)&#45;&gt;&#45;6,&#45;2 (item=fertilizer Fertiliser)</title>
<path fill="none" stroke="black" stroke-width="0.27" d="M439.8,-340.85C479.84,-292.37 591.14,-157.61 638.18,-100.65"/>
<polygon fill="black" stroke="black" stroke-width="0.27" points="640.97,-102.78 644.64,-92.84 635.57,-98.32 640.97,-102.78"/>
<text text-anchor="middle" x="500.99" y="-224.55" font-family="Times,serif" font-size="14.00">urea*2544</text>
</g>
</g>
</svg>
