<?xml version="1.0" encoding="UTF-8" standalone="no"?>
<!DOCTYPE svg PUBLIC "-//W3C//DTD SVG 1.1//EN"
 "http://www.w3.org/Graphics/SVG/1.1/DTD/svg11.dtd">
<!-- Generated by graphviz version 2.43.0 (0)
 -->
<!-- Title: %3 Pages: 1 -->
<svg width="5702pt" height="5327pt"
 viewBox="0.00 0.00 5702.21 5326.60" xmlns="http://www.w3.org/2000/svg" xmlns:xlink="http://www.w3.org/1999/xlink">
<g id="graph0" class="graph" transform="scale(1 1) rotate(0) translate(4 5322.6)">
<title>%3</title>
<polygon fill="white" stroke="transparent" points="-4,4 -4,-5322.6 5698.21,-5322.6 5698.21,4 -4,4"/>
<!-- &#45;1,10 (Iron Plates) -->
<g id="node1" class="node">
<title>&#45;1,10 (Iron Plates)</title>
<ellipse fill="none" stroke="black" cx="5022.01" cy="-1283.72" rx="94.78" ry="18"/>
<text text-anchor="middle" x="5022.01" y="-1280.02" font-family="Times,serif" font-size="14.00">&#45;1,10 (Iron Plates)</text>
</g>
<!-- 0,0 (LE BUS) -->
<g id="node2" class="node">
<title>0,0 (LE BUS)</title>
<ellipse fill="none" stroke="black" cx="4567" cy="-724.43" rx="71.49" ry="18"/>
<text text-anchor="middle" x="4567" y="-720.73" font-family="Times,serif" font-size="14.00">0,0 (LE BUS)</text>
</g>
<!-- &#45;1,10 (Iron Plates)&#45;&gt;0,0 (LE BUS) -->
<g id="edge1" class="edge">
<title>&#45;1,10 (Iron Plates)&#45;&gt;0,0 (LE BUS)</title>
<path fill="none" stroke="black" stroke-width="0.43" d="M5007.38,-1265.74C4940.8,-1183.9 4666.16,-846.32 4587.9,-750.12"/>
<polygon fill="black" stroke="black" stroke-width="0.43" points="4590.59,-747.89 4581.56,-742.34 4585.16,-752.31 4590.59,-747.89"/>
<text text-anchor="middle" x="4737.14" y="-1011.73" font-family="Times,serif" font-size="14.00">iron&#45;plate*48400</text>
</g>
<!-- 4,4 (Hydrogen Chloride, item=nylon Nylon/Nylon parts) -->
<g id="node4" class="node">
<title>4,4 (Hydrogen Chloride, item=nylon Nylon/Nylon parts)</title>
<ellipse fill="none" stroke="black" cx="5309.25" cy="-1945.02" rx="271.05" ry="18"/>
<text text-anchor="middle" x="5309.25" y="-1941.32" font-family="Times,serif" font-size="14.00">4,4 (Hydrogen Chloride, item=nylon Nylon/Nylon parts)</text>
</g>
<!-- &#45;1,10 (Iron Plates)&#45;&gt;4,4 (Hydrogen Chloride, item=nylon Nylon/Nylon parts) -->
<g id="edge9" class="edge">
<title>&#45;1,10 (Iron Plates)&#45;&gt;4,4 (Hydrogen Chloride, item=nylon Nylon/Nylon parts)</title>
<path fill="none" stroke="black" stroke-width="2.09" d="M5029.84,-1301.75C5069.6,-1393.29 5249.1,-1806.54 5297.3,-1917.52"/>
<polygon fill="black" stroke="black" stroke-width="2.09" points="5294.23,-1919.23 5301.43,-1927.01 5300.65,-1916.44 5294.23,-1919.23"/>
<text text-anchor="middle" x="5098.57" y="-1613.43" font-family="Times,serif" font-size="14.00">iron&#45;plate*233480</text>
</g>
<!-- 2,0 (Sodium Sulfate) -->
<g id="node5" class="node">
<title>2,0 (Sodium Sulfate)</title>
<ellipse fill="none" stroke="black" cx="3977.96" cy="-308.65" rx="106.68" ry="18"/>
<text text-anchor="middle" x="3977.96" y="-304.95" font-family="Times,serif" font-size="14.00">2,0 (Sodium Sulfate)</text>
</g>
<!-- &#45;1,10 (Iron Plates)&#45;&gt;2,0 (Sodium Sulfate) -->
<g id="edge21" class="edge">
<title>&#45;1,10 (Iron Plates)&#45;&gt;2,0 (Sodium Sulfate)</title>
<path fill="none" stroke="black" stroke-width="0.22" d="M5002.99,-1265.96C4876.2,-1147.54 4153.59,-472.67 4004.77,-333.68"/>
<polygon fill="black" stroke="black" stroke-width="0.22" points="4007.03,-331.01 3997.34,-326.74 4002.25,-336.12 4007.03,-331.01"/>
<text text-anchor="middle" x="4443.38" y="-803.62" font-family="Times,serif" font-size="14.00">iron&#45;plate*25080</text>
</g>
<!-- &#45;6,1 (Coke and Coal Dust from Biomass (needs Iron plates)) -->
<g id="node6" class="node">
<title>&#45;6,1 (Coke and Coal Dust from Biomass (needs Iron plates))</title>
<ellipse fill="none" stroke="black" cx="3298.6" cy="-67.2" rx="285.95" ry="18"/>
<text text-anchor="middle" x="3298.6" y="-63.5" font-family="Times,serif" font-size="14.00">&#45;6,1 (Coke and Coal Dust from Biomass (needs Iron plates))</text>
</g>
<!-- &#45;1,10 (Iron Plates)&#45;&gt;&#45;6,1 (Coke and Coal Dust from Biomass (needs Iron plates)) -->
<g id="edge15" class="edge">
<title>&#45;1,10 (Iron Plates)&#45;&gt;&#45;6,1 (Coke and Coal Dust from Biomass (needs Iron plates))</title>
<path fill="none" stroke="black" stroke-width="0.82" d="M4997.31,-1266.29C4805.53,-1130.91 3555.54,-248.57 3332.59,-91.2"/>
<polygon fill="black" stroke="black" stroke-width="0.82" points="3334.4,-88.19 3324.21,-85.28 3330.36,-93.91 3334.4,-88.19"/>
<text text-anchor="middle" x="4104.45" y="-682.54" font-family="Times,serif" font-size="14.00">iron&#45;plate*91560</text>
</g>
<!-- 3,16 (More Coke) -->
<g id="node7" class="node">
<title>3,16 (More Coke)</title>
<ellipse fill="none" stroke="black" cx="2579.28" cy="-18" rx="90.98" ry="18"/>
<text text-anchor="middle" x="2579.28" y="-14.3" font-family="Times,serif" font-size="14.00">3,16 (More Coke)</text>
</g>
<!-- &#45;1,10 (Iron Plates)&#45;&gt;3,16 (More Coke) -->
<g id="edge5" class="edge">
<title>&#45;1,10 (Iron Plates)&#45;&gt;3,16 (More Coke)</title>
<path fill="none" stroke="black" stroke-width="1.04" d="M4989.32,-1266.78C4723.57,-1129.08 2919.4,-194.23 2621.03,-39.63"/>
<polygon fill="black" stroke="black" stroke-width="1.04" points="2622.34,-36.37 2611.85,-34.88 2619.12,-42.58 2622.34,-36.37"/>
<text text-anchor="middle" x="3740.18" y="-657.01" font-family="Times,serif" font-size="14.00">iron&#45;plate*115920</text>
</g>
<!-- 1,13 (Landfill Drive&#45;Thru) -->
<g id="node8" class="node">
<title>1,13 (Landfill Drive&#45;Thru)</title>
<ellipse fill="none" stroke="black" cx="1873.37" cy="-164.69" rx="129.18" ry="18"/>
<text text-anchor="middle" x="1873.37" y="-160.99" font-family="Times,serif" font-size="14.00">1,13 (Landfill Drive&#45;Thru)</text>
</g>
<!-- &#45;1,10 (Iron Plates)&#45;&gt;1,13 (Landfill Drive&#45;Thru) -->
<g id="edge30" class="edge">
<title>&#45;1,10 (Iron Plates)&#45;&gt;1,13 (Landfill Drive&#45;Thru)</title>
<path fill="none" stroke="black" stroke-width="2.47" d="M4977.19,-1267.79C4626.29,-1143.08 2322.81,-324.42 1930.22,-184.89"/>
<polygon fill="black" stroke="black" stroke-width="2.47" points="1931.36,-181.59 1920.76,-181.53 1929.01,-188.18 1931.36,-181.59"/>
<text text-anchor="middle" x="3388.71" y="-730.14" font-family="Times,serif" font-size="14.00">iron&#45;plate*275000</text>
</g>
<!-- 3,15 (Even Yet More Coke) -->
<g id="node9" class="node">
<title>3,15 (Even Yet More Coke)</title>
<ellipse fill="none" stroke="black" cx="1233.21" cy="-496.4" rx="135.38" ry="18"/>
<text text-anchor="middle" x="1233.21" y="-492.7" font-family="Times,serif" font-size="14.00">3,15 (Even Yet More Coke)</text>
</g>
<!-- &#45;1,10 (Iron Plates)&#45;&gt;3,15 (Even Yet More Coke) -->
<g id="edge7" class="edge">
<title>&#45;1,10 (Iron Plates)&#45;&gt;3,15 (Even Yet More Coke)</title>
<path fill="none" stroke="black" stroke-width="0.97" d="M4957.83,-1270.38C4507.43,-1176.79 1823.79,-619.12 1316.07,-513.61"/>
<polygon fill="black" stroke="black" stroke-width="0.97" points="1316.75,-510.18 1306.25,-511.57 1315.33,-517.04 1316.75,-510.18"/>
<text text-anchor="middle" x="3071.95" y="-895.8" font-family="Times,serif" font-size="14.00">iron&#45;plate*108280</text>
</g>
<!-- 3,3 (Small Parts) -->
<g id="node10" class="node">
<title>3,3 (Small Parts)</title>
<ellipse fill="none" stroke="black" cx="706.28" cy="-988.51" rx="89.08" ry="18"/>
<text text-anchor="middle" x="706.28" y="-984.81" font-family="Times,serif" font-size="14.00">3,3 (Small Parts)</text>
</g>
<!-- &#45;1,10 (Iron Plates)&#45;&gt;3,3 (Small Parts) -->
<g id="edge22" class="edge">
<title>&#45;1,10 (Iron Plates)&#45;&gt;3,3 (Small Parts)</title>
<path fill="none" stroke="black" stroke-width="2.57" d="M4932.36,-1277.59C4373.78,-1239.38 1375.48,-1034.29 801.35,-995.02"/>
<polygon fill="black" stroke="black" stroke-width="2.57" points="801.27,-991.5 791.05,-994.31 800.79,-998.49 801.27,-991.5"/>
<text text-anchor="middle" x="2801.86" y="-1140.1" font-family="Times,serif" font-size="14.00">iron&#45;plate*286640</text>
</g>
<!-- &#45;3,8 (Urea) -->
<g id="node11" class="node">
<title>&#45;3,8 (Urea)</title>
<ellipse fill="none" stroke="black" cx="331.66" cy="-1604.55" rx="61.19" ry="18"/>
<text text-anchor="middle" x="331.66" y="-1600.85" font-family="Times,serif" font-size="14.00">&#45;3,8 (Urea)</text>
</g>
<!-- &#45;1,10 (Iron Plates)&#45;&gt;&#45;3,8 (Urea) -->
<g id="edge38" class="edge">
<title>&#45;1,10 (Iron Plates)&#45;&gt;&#45;3,8 (Urea)</title>
<path fill="none" stroke="black" stroke-width="0.2" d="M4932.5,-1289.84C4335.04,-1330.71 932.74,-1563.43 401.43,-1599.77"/>
<polygon fill="black" stroke="black" stroke-width="0.2" points="400.97,-1596.3 391.23,-1600.47 401.45,-1603.28 400.97,-1596.3"/>
<text text-anchor="middle" x="2606.46" y="-1448.61" font-family="Times,serif" font-size="14.00">iron&#45;plate*22560</text>
</g>
<!-- 2,2 () -->
<g id="node12" class="node">
<title>2,2 ()</title>
<ellipse fill="none" stroke="black" cx="137.14" cy="-2298.8" rx="35.19" ry="18"/>
<text text-anchor="middle" x="137.14" y="-2295.1" font-family="Times,serif" font-size="14.00">2,2 ()</text>
</g>
<!-- &#45;1,10 (Iron Plates)&#45;&gt;2,2 () -->
<g id="edge12" class="edge">
<title>&#45;1,10 (Iron Plates)&#45;&gt;2,2 ()</title>
<path fill="none" stroke="black" stroke-width="0.56" d="M4958.01,-1297.02C4417.49,-1409.34 624.83,-2197.46 179.75,-2289.95"/>
<polygon fill="black" stroke="black" stroke-width="0.56" points="178.94,-2286.54 169.86,-2292 180.36,-2293.4 178.94,-2286.54"/>
<text text-anchor="middle" x="2508.38" y="-1797.28" font-family="Times,serif" font-size="14.00">iron&#45;plate*62040</text>
</g>
<!-- 7,&#45;2 (item=guts Auog guts) -->
<g id="node13" class="node">
<title>7,&#45;2 (item=guts Auog guts)</title>
<ellipse fill="none" stroke="black" cx="137.14" cy="-3019.8" rx="137.28" ry="18"/>
<text text-anchor="middle" x="137.14" y="-3016.1" font-family="Times,serif" font-size="14.00">7,&#45;2 (item=guts Auog guts)</text>
</g>
<!-- &#45;1,10 (Iron Plates)&#45;&gt;7,&#45;2 (item=guts Auog guts) -->
<g id="edge27" class="edge">
<title>&#45;1,10 (Iron Plates)&#45;&gt;7,&#45;2 (item=guts Auog guts)</title>
<path fill="none" stroke="black" stroke-width="0.24" d="M4977.15,-1299.66C4519.79,-1462.21 708.55,-2816.72 194.43,-2999.44"/>
<polygon fill="black" stroke="black" stroke-width="0.24" points="193.24,-2996.15 184.99,-3002.79 195.58,-3002.74 193.24,-2996.15"/>
<text text-anchor="middle" x="2525.29" y="-2153.35" font-family="Times,serif" font-size="14.00">iron&#45;plate*26720</text>
</g>
<!-- &#45;5,0 (item=small&#45;lampitem=petri&#45;dish Lamptri dishes) -->
<g id="node14" class="node">
<title>&#45;5,0 (item=small&#45;lampitem=petri&#45;dish Lamptri dishes)</title>
<ellipse fill="none" stroke="black" cx="331.66" cy="-3714.06" rx="263.75" ry="18"/>
<text text-anchor="middle" x="331.66" y="-3710.36" font-family="Times,serif" font-size="14.00">&#45;5,0 (item=small&#45;lampitem=petri&#45;dish Lamptri dishes)</text>
</g>
<!-- &#45;1,10 (Iron Plates)&#45;&gt;&#45;5,0 (item=small&#45;lampitem=petri&#45;dish Lamptri dishes) -->
<g id="edge45" class="edge">
<title>&#45;1,10 (Iron Plates)&#45;&gt;&#45;5,0 (item=small&#45;lampitem=petri&#45;dish Lamptri dishes)</title>
<path fill="none" stroke="black" stroke-width="0.04" d="M4989.23,-1300.7C4597.81,-1503.52 824.31,-3458.79 375.27,-3691.46"/>
<polygon fill="black" stroke="black" stroke-width="0.04" points="373.44,-3688.47 366.17,-3696.18 376.66,-3694.68 373.44,-3688.47"/>
<text text-anchor="middle" x="2626.25" y="-2499.88" font-family="Times,serif" font-size="14.00">iron&#45;plate*4440</text>
</g>
<!-- 4,1 (item=filtration&#45;media Filtration Media) -->
<g id="node15" class="node">
<title>4,1 (item=filtration&#45;media Filtration Media)</title>
<ellipse fill="none" stroke="black" cx="706.28" cy="-4330.09" rx="214.46" ry="18"/>
<text text-anchor="middle" x="706.28" y="-4326.39" font-family="Times,serif" font-size="14.00">4,1 (item=filtration&#45;media Filtration Media)</text>
</g>
<!-- &#45;1,10 (Iron Plates)&#45;&gt;4,1 (item=filtration&#45;media Filtration Media) -->
<g id="edge18" class="edge">
<title>&#45;1,10 (Iron Plates)&#45;&gt;4,1 (item=filtration&#45;media Filtration Media)</title>
<path fill="none" stroke="black" stroke-width="0.24" d="M4997.2,-1301.23C4666.03,-1534.99 1123.88,-4035.31 739.97,-4306.31"/>
<polygon fill="black" stroke="black" stroke-width="0.24" points="737.89,-4303.49 731.74,-4312.12 741.93,-4309.21 737.89,-4303.49"/>
<text text-anchor="middle" x="2808.08" y="-2807.57" font-family="Times,serif" font-size="14.00">iron&#45;plate*27240</text>
</g>
<!-- &#45;7,&#45;4 (Isomer&#39;s Slaughterhouse and Daycare Centre, Bone Meal) -->
<g id="node16" class="node">
<title>&#45;7,&#45;4 (Isomer&#39;s Slaughterhouse and Daycare Centre, Bone Meal)</title>
<ellipse fill="none" stroke="black" cx="1233.21" cy="-4822.21" rx="307.35" ry="18"/>
<text text-anchor="middle" x="1233.21" y="-4818.51" font-family="Times,serif" font-size="14.00">&#45;7,&#45;4 (Isomer&#39;s Slaughterhouse and Daycare Centre, Bone Meal)</text>
</g>
<!-- &#45;1,10 (Iron Plates)&#45;&gt;&#45;7,&#45;4 (Isomer&#39;s Slaughterhouse and Daycare Centre, Bone Meal) -->
<g id="edge29" class="edge">
<title>&#45;1,10 (Iron Plates)&#45;&gt;&#45;7,&#45;4 (Isomer&#39;s Slaughterhouse and Daycare Centre, Bone Meal)</title>
<path fill="none" stroke="black" stroke-width="0.13" d="M5002.97,-1301.5C4729.02,-1557.34 1585.8,-4492.91 1260.38,-4796.83"/>
<polygon fill="black" stroke="black" stroke-width="0.13" points="1257.73,-4794.52 1252.81,-4803.9 1262.5,-4799.64 1257.73,-4794.52"/>
<text text-anchor="middle" x="3071.18" y="-3052.96" font-family="Times,serif" font-size="14.00">iron&#45;plate*14360</text>
</g>
<!-- 4,3 (item=nexelit&#45;plate Nexelit platery) -->
<g id="node17" class="node">
<title>4,3 (item=nexelit&#45;plate Nexelit platery)</title>
<ellipse fill="none" stroke="black" cx="1873.37" cy="-5153.91" rx="194.17" ry="18"/>
<text text-anchor="middle" x="1873.37" y="-5150.21" font-family="Times,serif" font-size="14.00">4,3 (item=nexelit&#45;plate Nexelit platery)</text>
</g>
<!-- &#45;1,10 (Iron Plates)&#45;&gt;4,3 (item=nexelit&#45;plate Nexelit platery) -->
<g id="edge20" class="edge">
<title>&#45;1,10 (Iron Plates)&#45;&gt;4,3 (item=nexelit&#45;plate Nexelit platery)</title>
<path fill="none" stroke="black" stroke-width="0.27" d="M5007.27,-1301.83C4786.63,-1573.03 2159.13,-4802.66 1894.78,-5127.6"/>
<polygon fill="black" stroke="black" stroke-width="0.27" points="1891.9,-5125.59 1888.3,-5135.55 1897.33,-5130.01 1891.9,-5125.59"/>
<text text-anchor="middle" x="3390.52" y="-3218.52" font-family="Times,serif" font-size="14.00">iron&#45;plate*30600</text>
</g>
<!-- &#45;4,1 (item=ulric Ulrics) -->
<g id="node18" class="node">
<title>&#45;4,1 (item=ulric Ulrics)</title>
<ellipse fill="none" stroke="black" cx="2579.28" cy="-5300.6" rx="118.08" ry="18"/>
<text text-anchor="middle" x="2579.28" y="-5296.9" font-family="Times,serif" font-size="14.00">&#45;4,1 (item=ulric Ulrics)</text>
</g>
<!-- &#45;1,10 (Iron Plates)&#45;&gt;&#45;4,1 (item=ulric Ulrics) -->
<g id="edge40" class="edge">
<title>&#45;1,10 (Iron Plates)&#45;&gt;&#45;4,1 (item=ulric Ulrics)</title>
<path fill="none" stroke="black" stroke-width="0.13" d="M5011.12,-1301.63C4843.69,-1576.94 2799.27,-4938.85 2595.6,-5273.77"/>
<polygon fill="black" stroke="black" stroke-width="0.13" points="2592.57,-5272.01 2590.37,-5282.38 2598.55,-5275.65 2592.57,-5272.01"/>
<text text-anchor="middle" x="3742.86" y="-3291.5" font-family="Times,serif" font-size="14.00">iron&#45;plate*14240</text>
</g>
<!-- 0,9 (Auog Brains) -->
<g id="node19" class="node">
<title>0,9 (Auog Brains)</title>
<ellipse fill="none" stroke="black" cx="3298.6" cy="-5251.4" rx="91.78" ry="18"/>
<text text-anchor="middle" x="3298.6" y="-5247.7" font-family="Times,serif" font-size="14.00">0,9 (Auog Brains)</text>
</g>
<!-- &#45;1,10 (Iron Plates)&#45;&gt;0,9 (Auog Brains) -->
<g id="edge43" class="edge">
<title>&#45;1,10 (Iron Plates)&#45;&gt;0,9 (Auog Brains)</title>
<path fill="none" stroke="black" stroke-width="0.07" d="M5014.13,-1301.85C4894.77,-1576.64 3456.49,-4887.9 3310.53,-5223.94"/>
<polygon fill="black" stroke="black" stroke-width="0.07" points="3307.18,-5222.85 3306.41,-5233.42 3313.6,-5225.64 3307.18,-5222.85"/>
<text text-anchor="middle" x="4106.33" y="-3266.69" font-family="Times,serif" font-size="14.00">iron&#45;plate*8200</text>
</g>
<!-- &#45;1,6 (Flimble&#39;s Slaughterhouse and Daycare Centre, Auog Products) -->
<g id="node20" class="node">
<title>&#45;1,6 (Flimble&#39;s Slaughterhouse and Daycare Centre, Auog Products)</title>
<ellipse fill="none" stroke="black" cx="3977.96" cy="-5009.96" rx="325.74" ry="18"/>
<text text-anchor="middle" x="3977.96" y="-5006.26" font-family="Times,serif" font-size="14.00">&#45;1,6 (Flimble&#39;s Slaughterhouse and Daycare Centre, Auog Products)</text>
</g>
<!-- &#45;1,10 (Iron Plates)&#45;&gt;&#45;1,6 (Flimble&#39;s Slaughterhouse and Daycare Centre, Auog Products) -->
<g id="edge33" class="edge">
<title>&#45;1,10 (Iron Plates)&#45;&gt;&#45;1,6 (Flimble&#39;s Slaughterhouse and Daycare Centre, Auog Products)</title>
<path fill="none" stroke="black" stroke-width="0.14" d="M5016.88,-1302.01C4942.31,-1568.15 4077.69,-4654.02 3985.85,-4981.81"/>
<polygon fill="black" stroke="black" stroke-width="0.14" points="3982.35,-4981.33 3983.02,-4991.91 3989.09,-4983.22 3982.35,-4981.33"/>
<text text-anchor="middle" x="4440.87" y="-3145.71" font-family="Times,serif" font-size="14.00">iron&#45;plate*15280</text>
</g>
<!-- &#45;3,&#45;3 (Zinc Plates, 32 to consume four belts) -->
<g id="node21" class="node">
<title>&#45;3,&#45;3 (Zinc Plates, 32 to consume four belts)</title>
<ellipse fill="none" stroke="black" cx="4567" cy="-4594.17" rx="213.66" ry="18"/>
<text text-anchor="middle" x="4567" y="-4590.47" font-family="Times,serif" font-size="14.00">&#45;3,&#45;3 (Zinc Plates, 32 to consume four belts)</text>
</g>
<!-- &#45;1,10 (Iron Plates)&#45;&gt;&#45;3,&#45;3 (Zinc Plates, 32 to consume four belts) -->
<g id="edge44" class="edge">
<title>&#45;1,10 (Iron Plates)&#45;&gt;&#45;3,&#45;3 (Zinc Plates, 32 to consume four belts)</title>
<path fill="none" stroke="black" stroke-width="0.45" d="M5019.5,-1301.93C4985.38,-1550.17 4613.27,-4257.49 4570.91,-4565.66"/>
<polygon fill="black" stroke="black" stroke-width="0.45" points="4567.39,-4565.59 4569.5,-4575.98 4574.33,-4566.55 4567.39,-4565.59"/>
<text text-anchor="middle" x="4734.71" y="-2937.59" font-family="Times,serif" font-size="14.00">iron&#45;plate*50200</text>
</g>
<!-- 2,14 (Latex) -->
<g id="node22" class="node">
<title>2,14 (Latex)</title>
<ellipse fill="none" stroke="black" cx="5022.01" cy="-4034.89" rx="66.89" ry="18"/>
<text text-anchor="middle" x="5022.01" y="-4031.19" font-family="Times,serif" font-size="14.00">2,14 (Latex)</text>
</g>
<!-- &#45;1,10 (Iron Plates)&#45;&gt;2,14 (Latex) -->
<g id="edge41" class="edge">
<title>&#45;1,10 (Iron Plates)&#45;&gt;2,14 (Latex)</title>
<path fill="none" stroke="black" stroke-width="0.45" d="M5022.01,-1302.01C5022.01,-1525.72 5022.01,-3730.45 5022.01,-4006.54"/>
<polygon fill="black" stroke="black" stroke-width="0.45" points="5018.51,-4006.57 5022.01,-4016.57 5025.51,-4006.57 5018.51,-4006.57"/>
<text text-anchor="middle" x="4961.51" y="-2658.08" font-family="Times,serif" font-size="14.00">iron&#45;plate*50000</text>
</g>
<!-- &#45;4,&#45;2 (For Science!) -->
<g id="node23" class="node">
<title>&#45;4,&#45;2 (For Science!)</title>
<ellipse fill="none" stroke="black" cx="5309.25" cy="-3373.58" rx="98.58" ry="18"/>
<text text-anchor="middle" x="5309.25" y="-3369.88" font-family="Times,serif" font-size="14.00">&#45;4,&#45;2 (For Science!)</text>
</g>
<!-- &#45;1,10 (Iron Plates)&#45;&gt;&#45;4,&#45;2 (For Science!) -->
<g id="edge37" class="edge">
<title>&#45;1,10 (Iron Plates)&#45;&gt;&#45;4,&#45;2 (For Science!)</title>
<path fill="none" stroke="black" stroke-width="0.14" d="M5024.49,-1301.78C5050.52,-1491.17 5273.08,-3110.41 5305.36,-3345.23"/>
<polygon fill="black" stroke="black" stroke-width="0.14" points="5301.92,-3345.93 5306.75,-3355.36 5308.85,-3344.98 5301.92,-3345.93"/>
<text text-anchor="middle" x="5104.42" y="-2327.31" font-family="Times,serif" font-size="14.00">iron&#45;plate*15120</text>
</g>
<!-- 4,6 (Circuit substrate and Doped silicon) -->
<g id="node26" class="node">
<title>4,6 (Circuit substrate and Doped silicon)</title>
<ellipse fill="none" stroke="black" cx="5180.98" cy="-1028.58" rx="199.56" ry="18"/>
<text text-anchor="middle" x="5180.98" y="-1024.88" font-family="Times,serif" font-size="14.00">4,6 (Circuit substrate and Doped silicon)</text>
</g>
<!-- &#45;1,10 (Iron Plates)&#45;&gt;4,6 (Circuit substrate and Doped silicon) -->
<g id="edge42" class="edge">
<title>&#45;1,10 (Iron Plates)&#45;&gt;4,6 (Circuit substrate and Doped silicon)</title>
<path fill="none" stroke="black" stroke-width="0.02" d="M5033.19,-1265.78C5060.65,-1221.69 5131.58,-1107.86 5164.16,-1055.57"/>
<polygon fill="black" stroke="black" stroke-width="0.02" points="5167.28,-1057.18 5169.6,-1046.85 5161.34,-1053.48 5167.28,-1057.18"/>
<text text-anchor="middle" x="5042.67" y="-1164.47" font-family="Times,serif" font-size="14.00">iron&#45;plate*2040</text>
</g>
<!-- &#45;1,&#45;2 (Aramid fiber) -->
<g id="node27" class="node">
<title>&#45;1,&#45;2 (Aramid fiber)</title>
<ellipse fill="none" stroke="black" cx="5368.14" cy="-1348.59" rx="99.38" ry="18"/>
<text text-anchor="middle" x="5368.14" y="-1344.89" font-family="Times,serif" font-size="14.00">&#45;1,&#45;2 (Aramid fiber)</text>
</g>
<!-- &#45;1,10 (Iron Plates)&#45;&gt;&#45;1,&#45;2 (Aramid fiber) -->
<g id="edge46" class="edge">
<title>&#45;1,10 (Iron Plates)&#45;&gt;&#45;1,&#45;2 (Aramid fiber)</title>
<path fill="none" stroke="black" stroke-width="0.02" d="M5089.57,-1296.38C5146.78,-1307.1 5228.87,-1322.49 5289.12,-1333.78"/>
<polygon fill="black" stroke="black" stroke-width="0.02" points="5288.5,-1337.23 5298.97,-1335.63 5289.79,-1330.35 5288.5,-1337.23"/>
<text text-anchor="middle" x="5133.34" y="-1318.88" font-family="Times,serif" font-size="14.00">iron&#45;plate*2080</text>
</g>
<!-- 0,11 () -->
<g id="node3" class="node">
<title>0,11 ()</title>
<ellipse fill="none" stroke="black" cx="5407.43" cy="-2659.3" rx="40.89" ry="18"/>
<text text-anchor="middle" x="5407.43" y="-2655.6" font-family="Times,serif" font-size="14.00">0,11 ()</text>
</g>
<!-- 0,11 ()&#45;&gt;0,0 (LE BUS) -->
<g id="edge13" class="edge">
<title>0,11 ()&#45;&gt;0,0 (LE BUS)</title>
<path fill="none" stroke="black" stroke-width="1.17" d="M5399.64,-2641.38C5321.21,-2460.82 4674.46,-971.83 4578.8,-751.61"/>
<polygon fill="black" stroke="black" stroke-width="1.17" points="4581.98,-750.14 4574.78,-742.36 4575.56,-752.93 4581.98,-750.14"/>
<text text-anchor="middle" x="4924.22" y="-1700.3" font-family="Times,serif" font-size="14.00">iron&#45;plate*130320</text>
</g>
<!-- 0,11 ()&#45;&gt;4,4 (Hydrogen Chloride, item=nylon Nylon/Nylon parts) -->
<g id="edge2" class="edge">
<title>0,11 ()&#45;&gt;4,4 (Hydrogen Chloride, item=nylon Nylon/Nylon parts)</title>
<path fill="none" stroke="black" stroke-width="4.9" d="M5404.95,-2641.29C5391.73,-2545.09 5329.44,-2091.87 5313.15,-1973.41"/>
<polygon fill="black" stroke="black" stroke-width="4.9" points="5317.38,-1972.64 5311.77,-1963.31 5308.88,-1973.8 5317.38,-1972.64"/>
<text text-anchor="middle" x="5294.05" y="-2311.15" font-family="Times,serif" font-size="14.00">iron&#45;plate*546600</text>
</g>
<!-- 0,11 ()&#45;&gt;2,0 (Sodium Sulfate) -->
<g id="edge3" class="edge">
<title>0,11 ()&#45;&gt;2,0 (Sodium Sulfate)</title>
<path fill="none" stroke="black" stroke-width="0.56" d="M5396.74,-2641.73C5274.59,-2440.87 4143.44,-580.76 3994.19,-335.33"/>
<polygon fill="black" stroke="black" stroke-width="0.56" points="3997.11,-333.4 3988.92,-326.67 3991.13,-337.04 3997.11,-333.4"/>
<text text-anchor="middle" x="4634.97" y="-1492.33" font-family="Times,serif" font-size="14.00">iron&#45;plate*62280</text>
</g>
<!-- 0,11 ()&#45;&gt;&#45;6,1 (Coke and Coal Dust from Biomass (needs Iron plates)) -->
<g id="edge4" class="edge">
<title>0,11 ()&#45;&gt;&#45;6,1 (Coke and Coal Dust from Biomass (needs Iron plates))</title>
<path fill="none" stroke="black" stroke-width="1.45" d="M5393.4,-2642.06C5221.85,-2431.2 3530.49,-352.23 3320.05,-93.57"/>
<polygon fill="black" stroke="black" stroke-width="1.45" points="3322.48,-91.02 3313.46,-85.47 3317.05,-95.43 3322.48,-91.02"/>
<text text-anchor="middle" x="4291.73" y="-1371.62" font-family="Times,serif" font-size="14.00">iron&#45;plate*161520</text>
</g>
<!-- 0,11 ()&#45;&gt;3,16 (More Coke) -->
<g id="edge10" class="edge">
<title>0,11 ()&#45;&gt;3,16 (More Coke)</title>
<path fill="none" stroke="black" stroke-width="2.1" d="M5389.74,-2642.78C5165.35,-2433.22 2877.4,-296.42 2605.62,-42.6"/>
<polygon fill="black" stroke="black" stroke-width="2.1" points="2607.87,-39.91 2598.17,-35.64 2603.09,-45.03 2607.87,-39.91"/>
<text text-anchor="middle" x="3932.68" y="-1346.49" font-family="Times,serif" font-size="14.00">iron&#45;plate*234480</text>
</g>
<!-- 0,11 ()&#45;&gt;1,13 (Landfill Drive&#45;Thru) -->
<g id="edge6" class="edge">
<title>0,11 ()&#45;&gt;1,13 (Landfill Drive&#45;Thru)</title>
<path fill="none" stroke="black" stroke-width="4.05" d="M5385.78,-2644.02C5108.28,-2448.14 2251,-431.25 1907.16,-188.55"/>
<polygon fill="black" stroke="black" stroke-width="4.05" points="1909.05,-185.54 1898.84,-182.67 1904.96,-191.33 1909.05,-185.54"/>
<text text-anchor="middle" x="3581.47" y="-1420.08" font-family="Times,serif" font-size="14.00">iron&#45;plate*451440</text>
</g>
<!-- 0,11 ()&#45;&gt;3,15 (Even Yet More Coke) -->
<g id="edge14" class="edge">
<title>0,11 ()&#45;&gt;3,15 (Even Yet More Coke)</title>
<path fill="none" stroke="black" stroke-width="1.2" d="M5380.77,-2645.49C5047.51,-2472.81 1694.28,-735.31 1275.97,-518.55"/>
<polygon fill="black" stroke="black" stroke-width="1.2" points="1277.41,-515.36 1266.92,-513.86 1274.19,-521.57 1277.41,-515.36"/>
<text text-anchor="middle" x="3263.37" y="-1585.82" font-family="Times,serif" font-size="14.00">iron&#45;plate*133320</text>
</g>
<!-- 0,11 ()&#45;&gt;3,3 (Small Parts) -->
<g id="edge8" class="edge">
<title>0,11 ()&#45;&gt;3,3 (Small Parts)</title>
<path fill="none" stroke="black" stroke-width="9.85" d="M5375.53,-2647.97C4991.27,-2511.4 1255.41,-1183.67 760.35,-1007.73"/>
<polygon fill="black" stroke="black" stroke-width="9.85" points="762.9,-999.49 750.59,-1004.26 757.13,-1015.73 762.9,-999.49"/>
<text text-anchor="middle" x="2998.44" y="-1831.65" font-family="Times,serif" font-size="14.00">iron&#45;plate*1098120</text>
</g>
<!-- 0,11 ()&#45;&gt;&#45;3,8 (Urea) -->
<g id="edge11" class="edge">
<title>0,11 ()&#45;&gt;&#45;3,8 (Urea)</title>
<path fill="none" stroke="black" stroke-width="0.33" d="M5370.2,-2651.57C4940.79,-2562.33 930.77,-1729.04 391.53,-1616.99"/>
<polygon fill="black" stroke="black" stroke-width="0.33" points="392.12,-1613.54 381.62,-1614.93 390.7,-1620.39 392.12,-1613.54"/>
<text text-anchor="middle" x="2820.37" y="-2138.08" font-family="Times,serif" font-size="14.00">iron&#45;plate*37080</text>
</g>
<!-- 0,11 ()&#45;&gt;2,2 () -->
<g id="edge24" class="edge">
<title>0,11 ()&#45;&gt;2,2 ()</title>
<path fill="none" stroke="black" stroke-width="1.11" d="M5366.91,-2656.53C4906.39,-2625.03 666.07,-2334.98 182.07,-2301.88"/>
<polygon fill="black" stroke="black" stroke-width="1.11" points="182.19,-2298.38 171.97,-2301.19 181.71,-2305.36 182.19,-2298.38"/>
<text text-anchor="middle" x="2709.49" y="-2483" font-family="Times,serif" font-size="14.00">iron&#45;plate*123600</text>
</g>
<!-- 0,11 ()&#45;&gt;7,&#45;2 (item=guts Auog guts) -->
<g id="edge16" class="edge">
<title>0,11 ()&#45;&gt;7,&#45;2 (item=guts Auog guts)</title>
<path fill="none" stroke="black" stroke-width="0.4" d="M5366.91,-2662.07C4927,-2692.16 1037.98,-2958.18 268.93,-3010.79"/>
<polygon fill="black" stroke="black" stroke-width="0.4" points="268.67,-3007.29 258.93,-3011.47 269.14,-3014.28 268.67,-3007.29"/>
<text text-anchor="middle" x="2757.42" y="-2840.23" font-family="Times,serif" font-size="14.00">iron&#45;plate*44280</text>
</g>
<!-- 0,11 ()&#45;&gt;&#45;5,0 (item=small&#45;lampitem=petri&#45;dish Lamptri dishes) -->
<g id="edge17" class="edge">
<title>0,11 ()&#45;&gt;&#45;5,0 (item=small&#45;lampitem=petri&#45;dish Lamptri dishes)</title>
<path fill="none" stroke="black" stroke-width="0.16" d="M5370.2,-2667.04C4948.54,-2754.66 1074.33,-3559.73 424.07,-3694.86"/>
<polygon fill="black" stroke="black" stroke-width="0.16" points="423.35,-3691.43 414.28,-3696.89 424.78,-3698.28 423.35,-3691.43"/>
<text text-anchor="middle" x="2836.64" y="-3184.75" font-family="Times,serif" font-size="14.00">iron&#45;plate*17400</text>
</g>
<!-- 0,11 ()&#45;&gt;4,1 (item=filtration&#45;media Filtration Media) -->
<g id="edge35" class="edge">
<title>0,11 ()&#45;&gt;4,1 (item=filtration&#45;media Filtration Media)</title>
<path fill="none" stroke="black" stroke-width="1.09" d="M5375.53,-2670.64C4992.48,-2806.77 1278.88,-4126.59 765.12,-4309.18"/>
<polygon fill="black" stroke="black" stroke-width="1.09" points="763.92,-4305.89 755.67,-4312.54 766.27,-4312.49 763.92,-4305.89"/>
<text text-anchor="middle" x="3005.33" y="-3493.71" font-family="Times,serif" font-size="14.00">iron&#45;plate*122040</text>
</g>
<!-- 0,11 ()&#45;&gt;&#45;7,&#45;4 (Isomer&#39;s Slaughterhouse and Daycare Centre, Bone Meal) -->
<g id="edge19" class="edge">
<title>0,11 ()&#45;&gt;&#45;7,&#45;4 (Isomer&#39;s Slaughterhouse and Daycare Centre, Bone Meal)</title>
<path fill="none" stroke="black" stroke-width="0.31" d="M5380.77,-2673.11C5047.77,-2845.66 1699.48,-4580.61 1276.95,-4799.54"/>
<polygon fill="black" stroke="black" stroke-width="0.31" points="1275.07,-4796.58 1267.8,-4804.29 1278.29,-4802.79 1275.07,-4796.58"/>
<text text-anchor="middle" x="3268.36" y="-3740.13" font-family="Times,serif" font-size="14.00">iron&#45;plate*34920</text>
</g>
<!-- 0,11 ()&#45;&gt;4,3 (item=nexelit&#45;plate Nexelit platery) -->
<g id="edge26" class="edge">
<title>0,11 ()&#45;&gt;4,3 (item=nexelit&#45;plate Nexelit platery)</title>
<path fill="none" stroke="black" stroke-width="0.31" d="M5385.78,-2674.59C5108.28,-2870.47 2251,-4887.35 1907.16,-5130.06"/>
<polygon fill="black" stroke="black" stroke-width="0.31" points="1904.99,-5127.31 1898.84,-5135.94 1909.03,-5133.03 1904.99,-5127.31"/>
<text text-anchor="middle" x="3585.97" y="-3906.12" font-family="Times,serif" font-size="14.00">iron&#45;plate*34680</text>
</g>
<!-- 0,11 ()&#45;&gt;&#45;4,1 (item=ulric Ulrics) -->
<g id="edge23" class="edge">
<title>0,11 ()&#45;&gt;&#45;4,1 (item=ulric Ulrics)</title>
<path fill="none" stroke="black" stroke-width="0.29" d="M5389.74,-2675.83C5165.46,-2885.28 2879.75,-5019.98 2606.04,-5275.61"/>
<polygon fill="black" stroke="black" stroke-width="0.29" points="2603.46,-5273.24 2598.54,-5282.62 2608.23,-5278.35 2603.46,-5273.24"/>
<text text-anchor="middle" x="3937.39" y="-3979.52" font-family="Times,serif" font-size="14.00">iron&#45;plate*32640</text>
</g>
<!-- 0,11 ()&#45;&gt;0,9 (Auog Brains) -->
<g id="edge25" class="edge">
<title>0,11 ()&#45;&gt;0,9 (Auog Brains)</title>
<path fill="none" stroke="black" stroke-width="0.17" d="M5393.4,-2676.54C5221.76,-2887.51 3528.75,-4968.51 3319.73,-5225.43"/>
<polygon fill="black" stroke="black" stroke-width="0.17" points="3316.78,-5223.51 3313.18,-5233.47 3322.21,-5227.93 3316.78,-5223.51"/>
<text text-anchor="middle" x="4296.07" y="-3954.79" font-family="Times,serif" font-size="14.00">iron&#45;plate*18720</text>
</g>
<!-- 0,11 ()&#45;&gt;&#45;1,6 (Flimble&#39;s Slaughterhouse and Daycare Centre, Auog Products) -->
<g id="edge28" class="edge">
<title>0,11 ()&#45;&gt;&#45;1,6 (Flimble&#39;s Slaughterhouse and Daycare Centre, Auog Products)</title>
<path fill="none" stroke="black" stroke-width="0.5" d="M5396.74,-2676.87C5274.59,-2877.74 4143.44,-4737.85 3994.19,-4983.27"/>
<polygon fill="black" stroke="black" stroke-width="0.5" points="3991.13,-4981.57 3988.92,-4991.93 3997.11,-4985.21 3991.13,-4981.57"/>
<text text-anchor="middle" x="4634.97" y="-3833.87" font-family="Times,serif" font-size="14.00">iron&#45;plate*56040</text>
</g>
<!-- 0,11 ()&#45;&gt;&#45;3,&#45;3 (Zinc Plates, 32 to consume four belts) -->
<g id="edge31" class="edge">
<title>0,11 ()&#45;&gt;&#45;3,&#45;3 (Zinc Plates, 32 to consume four belts)</title>
<path fill="none" stroke="black" stroke-width="1.58" d="M5399.64,-2677.22C5321.25,-2857.7 4675.13,-4345.23 4578.95,-4566.65"/>
<polygon fill="black" stroke="black" stroke-width="1.58" points="4575.68,-4565.39 4574.91,-4575.96 4582.1,-4568.18 4575.68,-4565.39"/>
<text text-anchor="middle" x="4924.3" y="-3625.74" font-family="Times,serif" font-size="14.00">iron&#45;plate*176280</text>
</g>
<!-- 0,11 ()&#45;&gt;2,14 (Latex) -->
<g id="edge32" class="edge">
<title>0,11 ()&#45;&gt;2,14 (Latex)</title>
<path fill="none" stroke="black" stroke-width="0.45" d="M5402.41,-2677.2C5361.36,-2823.71 5080.83,-3824.95 5029.92,-4006.64"/>
<polygon fill="black" stroke="black" stroke-width="0.45" points="5026.48,-4005.94 5027.16,-4016.51 5033.22,-4007.82 5026.48,-4005.94"/>
<text text-anchor="middle" x="5155.67" y="-3330.72" font-family="Times,serif" font-size="14.00">iron&#45;plate*50160</text>
</g>
<!-- 0,11 ()&#45;&gt;&#45;4,&#45;2 (For Science!) -->
<g id="edge34" class="edge">
<title>0,11 ()&#45;&gt;&#45;4,&#45;2 (For Science!)</title>
<path fill="none" stroke="black" stroke-width="0.18" d="M5404.95,-2677.32C5391.73,-2773.52 5329.44,-3226.74 5313.15,-3345.2"/>
<polygon fill="black" stroke="black" stroke-width="0.18" points="5309.66,-3344.91 5311.77,-3355.29 5316.6,-3345.86 5309.66,-3344.91"/>
<text text-anchor="middle" x="5298.55" y="-3015.06" font-family="Times,serif" font-size="14.00">iron&#45;plate*20160</text>
</g>
<!-- &#45;1,8 (Fibre via. moss) -->
<g id="node24" class="node">
<title>&#45;1,8 (Fibre via. moss)</title>
<ellipse fill="none" stroke="black" cx="5585.02" cy="-2516.77" rx="109.38" ry="18"/>
<text text-anchor="middle" x="5585.02" y="-2513.07" font-family="Times,serif" font-size="14.00">&#45;1,8 (Fibre via. moss)</text>
</g>
<!-- 0,11 ()&#45;&gt;&#45;1,8 (Fibre via. moss) -->
<g id="edge36" class="edge">
<title>0,11 ()&#45;&gt;&#45;1,8 (Fibre via. moss)</title>
<path fill="none" stroke="black" stroke-width="0.07" d="M5427.11,-2643.5C5458.18,-2618.57 5518.78,-2569.94 5555.21,-2540.7"/>
<polygon fill="black" stroke="black" stroke-width="0.07" points="5557.43,-2543.41 5563.03,-2534.42 5553.04,-2537.95 5557.43,-2543.41"/>
<text text-anchor="middle" x="5435.16" y="-2595.9" font-family="Times,serif" font-size="14.00">iron&#45;plate*8160</text>
</g>
<!-- 2,5 (Simple Circuits) -->
<g id="node25" class="node">
<title>2,5 (Simple Circuits)</title>
<ellipse fill="none" stroke="black" cx="5584.89" cy="-2804.43" rx="106.68" ry="18"/>
<text text-anchor="middle" x="5584.89" y="-2800.73" font-family="Times,serif" font-size="14.00">2,5 (Simple Circuits)</text>
</g>
<!-- 0,11 ()&#45;&gt;2,5 (Simple Circuits) -->
<g id="edge39" class="edge">
<title>0,11 ()&#45;&gt;2,5 (Simple Circuits)</title>
<path fill="none" stroke="black" stroke-width="0.05" d="M5427.1,-2675.39C5458.22,-2700.84 5519.02,-2750.56 5555.39,-2780.3"/>
<polygon fill="black" stroke="black" stroke-width="0.05" points="5553.24,-2783.07 5563.2,-2786.69 5557.67,-2777.65 5553.24,-2783.07"/>
<text text-anchor="middle" x="5435.24" y="-2731.65" font-family="Times,serif" font-size="14.00">iron&#45;plate*6120</text>
</g>
</g>
</svg>
