<?xml version="1.0" encoding="UTF-8" standalone="no"?>
<!DOCTYPE svg PUBLIC "-//W3C//DTD SVG 1.1//EN"
 "http://www.w3.org/Graphics/SVG/1.1/DTD/svg11.dtd">
<!-- Generated by graphviz version 2.43.0 (0)
 -->
<!-- Title: %3 Pages: 1 -->
<svg width="7194pt" height="6619pt"
 viewBox="0.00 0.00 7193.51 6618.50" xmlns="http://www.w3.org/2000/svg" xmlns:xlink="http://www.w3.org/1999/xlink">
<g id="graph0" class="graph" transform="scale(1 1) rotate(0) translate(4 6614.5)">
<title>%3</title>
<polygon fill="white" stroke="transparent" points="-4,4 -4,-6614.5 7189.51,-6614.5 7189.51,4 -4,4"/>
<!-- 2,8 (Graphite) -->
<g id="node1" class="node">
<title>2,8 (Graphite)</title>
<ellipse fill="none" stroke="black" cx="273.71" cy="-2733.68" rx="76.09" ry="18"/>
<text text-anchor="middle" x="273.71" y="-2729.98" font-family="Times,serif" font-size="14.00">2,8 (Graphite)</text>
</g>
<!-- 0,8 (Tar from Coke) -->
<g id="node2" class="node">
<title>0,8 (Tar from Coke)</title>
<ellipse fill="none" stroke="black" cx="273.71" cy="-3808.18" rx="100.98" ry="18"/>
<text text-anchor="middle" x="273.71" y="-3804.48" font-family="Times,serif" font-size="14.00">0,8 (Tar from Coke)</text>
</g>
<!-- 2,8 (Graphite)&#45;&gt;0,8 (Tar from Coke) -->
<g id="edge1" class="edge">
<title>2,8 (Graphite)&#45;&gt;0,8 (Tar from Coke)</title>
<path fill="none" stroke="black" stroke-width="8.32" d="M273.71,-2751.88C273.71,-2878.19 273.71,-3623.78 273.71,-3779.63"/>
<polygon fill="black" stroke="black" stroke-width="8.32" points="266.43,-3779.81 273.71,-3789.81 280.99,-3779.82 266.43,-3779.81"/>
<text text-anchor="middle" x="226.71" y="-3269.55" font-family="Times,serif" font-size="14.00">coke*147491</text>
</g>
<!-- &#45;5,&#45;4 (low priority (slaked)? lime) -->
<g id="node4" class="node">
<title>&#45;5,&#45;4 (low priority (slaked)? lime)</title>
<ellipse fill="none" stroke="black" cx="5278.55" cy="-6003.5" rx="162.47" ry="18"/>
<text text-anchor="middle" x="5278.55" y="-5999.8" font-family="Times,serif" font-size="14.00">&#45;5,&#45;4 (low priority (slaked)? lime)</text>
</g>
<!-- 2,8 (Graphite)&#45;&gt;&#45;5,&#45;4 (low priority (slaked)? lime) -->
<g id="edge22" class="edge">
<title>2,8 (Graphite)&#45;&gt;&#45;5,&#45;4 (low priority (slaked)? lime)</title>
<path fill="none" stroke="black" stroke-width="0.37" d="M299.74,-2750.69C667.41,-2990.9 4813.09,-5699.41 5242.64,-5980.05"/>
<polygon fill="black" stroke="black" stroke-width="0.37" points="5240.98,-5983.14 5251.26,-5985.68 5244.81,-5977.28 5240.98,-5983.14"/>
<text text-anchor="middle" x="2733.19" y="-4369.17" font-family="Times,serif" font-size="14.00">coke*6480</text>
</g>
<!-- &#45;2,9 (molten steel) -->
<g id="node6" class="node">
<title>&#45;2,9 (molten steel)</title>
<ellipse fill="none" stroke="black" cx="3223.72" cy="-6523.86" rx="95.58" ry="18"/>
<text text-anchor="middle" x="3223.72" y="-6520.16" font-family="Times,serif" font-size="14.00">&#45;2,9 (molten steel)</text>
</g>
<!-- 2,8 (Graphite)&#45;&gt;&#45;2,9 (molten steel) -->
<g id="edge5" class="edge">
<title>2,8 (Graphite)&#45;&gt;&#45;2,9 (molten steel)</title>
<path fill="none" stroke="black" stroke-width="2.14" d="M287.52,-2751.42C494.13,-3016.88 2953.56,-6176.75 3203.3,-6497.61"/>
<polygon fill="black" stroke="black" stroke-width="2.14" points="3200.82,-6500.14 3209.73,-6505.88 3206.35,-6495.84 3200.82,-6500.14"/>
<text text-anchor="middle" x="1702.91" y="-4628.32" font-family="Times,serif" font-size="14.00">coke*38004</text>
</g>
<!-- 1,12 (Molten Iron) -->
<g id="node8" class="node">
<title>1,12 (Molten Iron)</title>
<ellipse fill="none" stroke="black" cx="622.6" cy="-1717.4" rx="95.58" ry="18"/>
<text text-anchor="middle" x="622.6" y="-1713.7" font-family="Times,serif" font-size="14.00">1,12 (Molten Iron)</text>
</g>
<!-- 2,8 (Graphite)&#45;&gt;1,12 (Molten Iron) -->
<g id="edge24" class="edge">
<title>2,8 (Graphite)&#45;&gt;1,12 (Molten Iron)</title>
<path fill="none" stroke="black" stroke-width="0.47" d="M279.91,-2715.61C321.7,-2593.9 561.94,-1894.1 613.04,-1745.24"/>
<polygon fill="black" stroke="black" stroke-width="0.47" points="616.45,-1746.08 616.39,-1735.49 609.83,-1743.81 616.45,-1746.08"/>
<text text-anchor="middle" x="408.48" y="-2234.22" font-family="Times,serif" font-size="14.00">coke*8386</text>
</g>
<!-- &#45;2,6 (Wrong ratio of Calcium Carbide to Acetalene) -->
<g id="node10" class="node">
<title>&#45;2,6 (Wrong ratio of Calcium Carbide to Acetalene)</title>
<ellipse fill="none" stroke="black" cx="2182.1" cy="-6260.08" rx="245.86" ry="18"/>
<text text-anchor="middle" x="2182.1" y="-6256.38" font-family="Times,serif" font-size="14.00">&#45;2,6 (Wrong ratio of Calcium Carbide to Acetalene)</text>
</g>
<!-- 2,8 (Graphite)&#45;&gt;&#45;2,6 (Wrong ratio of Calcium Carbide to Acetalene) -->
<g id="edge11" class="edge">
<title>2,8 (Graphite)&#45;&gt;&#45;2,6 (Wrong ratio of Calcium Carbide to Acetalene)</title>
<path fill="none" stroke="black" stroke-width="5.81" d="M283.52,-2751.81C422.71,-3009.01 1998.46,-5920.74 2167.44,-6233"/>
<polygon fill="black" stroke="black" stroke-width="5.81" points="2163.01,-6235.48 2172.24,-6241.86 2171.95,-6230.65 2163.01,-6235.48"/>
<text text-anchor="middle" x="1178.48" y="-4496.2" font-family="Times,serif" font-size="14.00">coke*102898</text>
</g>
<!-- &#45;4,&#45;2 (For Science!) -->
<g id="node11" class="node">
<title>&#45;4,&#45;2 (For Science!)</title>
<ellipse fill="none" stroke="black" cx="6069.08" cy="-5275.77" rx="98.58" ry="18"/>
<text text-anchor="middle" x="6069.08" y="-5272.07" font-family="Times,serif" font-size="14.00">&#45;4,&#45;2 (For Science!)</text>
</g>
<!-- 2,8 (Graphite)&#45;&gt;&#45;4,&#45;2 (For Science!) -->
<g id="edge27" class="edge">
<title>2,8 (Graphite)&#45;&gt;&#45;4,&#45;2 (For Science!)</title>
<path fill="none" stroke="black" stroke-width="0.47" d="M309.96,-2749.58C771.71,-2952.12 5497.78,-5025.17 6021.93,-5255.08"/>
<polygon fill="black" stroke="black" stroke-width="0.47" points="6020.54,-5258.3 6031.11,-5259.11 6023.35,-5251.89 6020.54,-5258.3"/>
<text text-anchor="middle" x="3127.94" y="-4006.13" font-family="Times,serif" font-size="14.00">coke*8339</text>
</g>
<!-- 2,5 (Simple Circuits) -->
<g id="node12" class="node">
<title>2,5 (Simple Circuits)</title>
<ellipse fill="none" stroke="black" cx="1282.57" cy="-5672.39" rx="106.68" ry="18"/>
<text text-anchor="middle" x="1282.57" y="-5668.69" font-family="Times,serif" font-size="14.00">2,5 (Simple Circuits)</text>
</g>
<!-- 2,8 (Graphite)&#45;&gt;2,5 (Simple Circuits) -->
<g id="edge19" class="edge">
<title>2,8 (Graphite)&#45;&gt;2,5 (Simple Circuits)</title>
<path fill="none" stroke="black" stroke-width="0.77" d="M279.89,-2751.68C359.14,-2982.53 1175.44,-5360.34 1273.04,-5644.64"/>
<polygon fill="black" stroke="black" stroke-width="0.77" points="1269.77,-5645.89 1276.33,-5654.21 1276.39,-5643.62 1269.77,-5645.89"/>
<text text-anchor="middle" x="733.97" y="-4201.96" font-family="Times,serif" font-size="14.00">coke*13678</text>
</g>
<!-- &#45;6,&#45;4 (High&#45;Power Resistors, Ceramic Capacitor, Inductor) -->
<g id="node13" class="node">
<title>&#45;6,&#45;4 (High&#45;Power Resistors, Ceramic Capacitor, Inductor)</title>
<ellipse fill="none" stroke="black" cx="6580.49" cy="-2211.08" rx="278.35" ry="18"/>
<text text-anchor="middle" x="6580.49" y="-2207.38" font-family="Times,serif" font-size="14.00">&#45;6,&#45;4 (High&#45;Power Resistors, Ceramic Capacitor, Inductor)</text>
</g>
<!-- 2,8 (Graphite)&#45;&gt;&#45;6,&#45;4 (High&#45;Power Resistors, Ceramic Capacitor, Inductor) -->
<g id="edge47" class="edge">
<title>2,8 (Graphite)&#45;&gt;&#45;6,&#45;4 (High&#45;Power Resistors, Ceramic Capacitor, Inductor)</title>
<path fill="none" stroke="black" stroke-width="0.24" d="M345.62,-2727.72C967.67,-2676.18 5438.17,-2305.74 6398.93,-2226.13"/>
<polygon fill="black" stroke="black" stroke-width="0.24" points="6399.36,-2229.61 6409.03,-2225.29 6398.78,-2222.63 6399.36,-2229.61"/>
<text text-anchor="middle" x="3334.27" y="-2480.72" font-family="Times,serif" font-size="14.00">coke*4240</text>
</g>
<!-- &#45;5,1 (Acetylene) -->
<g id="node16" class="node">
<title>&#45;5,1 (Acetylene)</title>
<ellipse fill="none" stroke="black" cx="3223.72" cy="-18" rx="83.39" ry="18"/>
<text text-anchor="middle" x="3223.72" y="-14.3" font-family="Times,serif" font-size="14.00">&#45;5,1 (Acetylene)</text>
</g>
<!-- 2,8 (Graphite)&#45;&gt;&#45;5,1 (Acetylene) -->
<g id="edge21" class="edge">
<title>2,8 (Graphite)&#45;&gt;&#45;5,1 (Acetylene)</title>
<path fill="none" stroke="black" stroke-width="1.45" d="M292.93,-2715.98C531.55,-2496.32 2915.83,-301.44 3196.74,-42.84"/>
<polygon fill="black" stroke="black" stroke-width="1.45" points="3199.44,-45.11 3204.43,-35.76 3194.7,-39.96 3199.44,-45.11"/>
<text text-anchor="middle" x="1702.34" y="-1383.21" font-family="Times,serif" font-size="14.00">coke*25655</text>
</g>
<!-- 4,12 (Molten Glass) -->
<g id="node18" class="node">
<title>4,12 (Molten Glass)</title>
<ellipse fill="none" stroke="black" cx="102.04" cy="-2705.03" rx="102.08" ry="18"/>
<text text-anchor="middle" x="102.04" y="-2701.33" font-family="Times,serif" font-size="14.00">4,12 (Molten Glass)</text>
</g>
<!-- 2,8 (Graphite)&#45;&gt;4,12 (Molten Glass) -->
<g id="edge34" class="edge">
<title>2,8 (Graphite)&#45;&gt;4,12 (Molten Glass)</title>
<path fill="none" stroke="black" stroke-width="0.12" d="M211.25,-2723.26C203.2,-2721.91 194.87,-2720.52 186.54,-2719.13"/>
<polygon fill="black" stroke="black" stroke-width="0.12" points="186.86,-2715.64 176.42,-2717.45 185.71,-2722.54 186.86,-2715.64"/>
<text text-anchor="middle" x="160.9" y="-2725" font-family="Times,serif" font-size="14.00">coke*2080</text>
</g>
<!-- 3,9 (Copper, molten &amp; plate) -->
<g id="node19" class="node">
<title>3,9 (Copper, molten &amp; plate)</title>
<ellipse fill="none" stroke="black" cx="1282.57" cy="-869.47" rx="143.77" ry="18"/>
<text text-anchor="middle" x="1282.57" y="-865.77" font-family="Times,serif" font-size="14.00">3,9 (Copper, molten &amp; plate)</text>
</g>
<!-- 2,8 (Graphite)&#45;&gt;3,9 (Copper, molten &amp; plate) -->
<g id="edge55" class="edge">
<title>2,8 (Graphite)&#45;&gt;3,9 (Copper, molten &amp; plate)</title>
<path fill="none" stroke="black" stroke-width="0.61" d="M283.53,-2715.53C379.67,-2537.89 1151.55,-1111.58 1267.9,-896.57"/>
<polygon fill="black" stroke="black" stroke-width="0.61" points="1271.12,-897.98 1272.8,-887.52 1264.96,-894.65 1271.12,-897.98"/>
<text text-anchor="middle" x="733.22" y="-1809.85" font-family="Times,serif" font-size="14.00">coke*10865</text>
</g>
<!-- 2,12 (Yet more coke) -->
<g id="node3" class="node">
<title>2,12 (Yet more coke)</title>
<ellipse fill="none" stroke="black" cx="4294.55" cy="-6435.13" rx="106.68" ry="18"/>
<text text-anchor="middle" x="4294.55" y="-6431.43" font-family="Times,serif" font-size="14.00">2,12 (Yet more coke)</text>
</g>
<!-- 2,12 (Yet more coke)&#45;&gt;0,8 (Tar from Coke) -->
<g id="edge4" class="edge">
<title>2,12 (Yet more coke)&#45;&gt;0,8 (Tar from Coke)</title>
<path fill="none" stroke="black" stroke-width="2.03" d="M4267.81,-6417.66C3939.17,-6202.94 685.08,-4076.94 309.08,-3831.28"/>
<polygon fill="black" stroke="black" stroke-width="2.03" points="310.77,-3828.21 300.49,-3825.67 306.94,-3834.07 310.77,-3828.21"/>
<text text-anchor="middle" x="2245.94" y="-5128.27" font-family="Times,serif" font-size="14.00">coke*35952</text>
</g>
<!-- 2,12 (Yet more coke)&#45;&gt;&#45;5,&#45;4 (low priority (slaked)? lime) -->
<g id="edge2" class="edge">
<title>2,12 (Yet more coke)&#45;&gt;&#45;5,&#45;4 (low priority (slaked)? lime)</title>
<path fill="none" stroke="black" stroke-width="0.36" d="M4333.13,-6418.21C4487.09,-6350.67 5057.6,-6100.42 5229.33,-6025.1"/>
<polygon fill="black" stroke="black" stroke-width="0.36" points="5230.88,-6028.24 5238.63,-6021.01 5228.07,-6021.83 5230.88,-6028.24"/>
<text text-anchor="middle" x="4743.23" y="-6225.45" font-family="Times,serif" font-size="14.00">coke*6368</text>
</g>
<!-- 2,12 (Yet more coke)&#45;&gt;&#45;2,9 (molten steel) -->
<g id="edge46" class="edge">
<title>2,12 (Yet more coke)&#45;&gt;&#45;2,9 (molten steel)</title>
<path fill="none" stroke="black" stroke-width="0.51" d="M4198.58,-6443.08C3995.89,-6459.87 3526.08,-6498.8 3321.67,-6515.74"/>
<polygon fill="black" stroke="black" stroke-width="0.51" points="3321.22,-6512.27 3311.54,-6516.58 3321.8,-6519.24 3321.22,-6512.27"/>
<text text-anchor="middle" x="3722.12" y="-6483.21" font-family="Times,serif" font-size="14.00">coke*8960</text>
</g>
<!-- 2,12 (Yet more coke)&#45;&gt;1,12 (Molten Iron) -->
<g id="edge48" class="edge">
<title>2,12 (Yet more coke)&#45;&gt;1,12 (Molten Iron)</title>
<path fill="none" stroke="black" stroke-width="0.12" d="M4280.52,-6417.09C4045.17,-6114.72 925.51,-2106.58 643.03,-1743.66"/>
<polygon fill="black" stroke="black" stroke-width="0.12" points="645.62,-1741.28 636.71,-1735.54 640.09,-1745.58 645.62,-1741.28"/>
<text text-anchor="middle" x="2423.77" y="-4084.17" font-family="Times,serif" font-size="14.00">coke*2048</text>
</g>
<!-- 2,12 (Yet more coke)&#45;&gt;&#45;2,6 (Wrong ratio of Calcium Carbide to Acetalene) -->
<g id="edge35" class="edge">
<title>2,12 (Yet more coke)&#45;&gt;&#45;2,6 (Wrong ratio of Calcium Carbide to Acetalene)</title>
<path fill="none" stroke="black" stroke-width="2.91" d="M4198.64,-6427.18C3869.32,-6399.89 2781.55,-6309.76 2355.45,-6274.45"/>
<polygon fill="black" stroke="black" stroke-width="2.91" points="2355.46,-6270.94 2345.2,-6273.6 2354.88,-6277.91 2355.46,-6270.94"/>
<text text-anchor="middle" x="3234.55" y="-6354.61" font-family="Times,serif" font-size="14.00">coke*51600</text>
</g>
<!-- 2,12 (Yet more coke)&#45;&gt;&#45;4,&#45;2 (For Science!) -->
<g id="edge8" class="edge">
<title>2,12 (Yet more coke)&#45;&gt;&#45;4,&#45;2 (For Science!)</title>
<path fill="none" stroke="black" stroke-width="0.11" d="M4321.36,-6417.61C4523.32,-6285.66 5804.23,-5448.8 6033.86,-5298.78"/>
<polygon fill="black" stroke="black" stroke-width="0.11" points="6036.04,-5301.54 6042.5,-5293.14 6032.21,-5295.68 6036.04,-5301.54"/>
<text text-anchor="middle" x="5139.61" y="-5861.99" font-family="Times,serif" font-size="14.00">coke*2016</text>
</g>
<!-- 2,12 (Yet more coke)&#45;&gt;2,5 (Simple Circuits) -->
<g id="edge10" class="edge">
<title>2,12 (Yet more coke)&#45;&gt;2,5 (Simple Circuits)</title>
<path fill="none" stroke="black" stroke-width="0.36" d="M4235.4,-6420.15C3855.38,-6323.91 1760.16,-5793.33 1351.63,-5689.88"/>
<polygon fill="black" stroke="black" stroke-width="0.36" points="1352.28,-5686.43 1341.73,-5687.37 1350.56,-5693.22 1352.28,-5686.43"/>
<text text-anchor="middle" x="2755.52" y="-6058.81" font-family="Times,serif" font-size="14.00">coke*6368</text>
</g>
<!-- 2,12 (Yet more coke)&#45;&gt;&#45;6,&#45;4 (High&#45;Power Resistors, Ceramic Capacitor, Inductor) -->
<g id="edge39" class="edge">
<title>2,12 (Yet more coke)&#45;&gt;&#45;6,&#45;4 (High&#45;Power Resistors, Ceramic Capacitor, Inductor)</title>
<path fill="none" stroke="black" stroke-width="0.37" d="M4304.49,-6416.76C4459.53,-6130.28 6378.32,-2584.66 6565.78,-2238.26"/>
<polygon fill="black" stroke="black" stroke-width="0.37" points="6568.91,-2239.84 6570.59,-2229.38 6562.75,-2236.51 6568.91,-2239.84"/>
<text text-anchor="middle" x="5397.14" y="-4331.31" font-family="Times,serif" font-size="14.00">coke*6576</text>
</g>
<!-- 4,&#45;2 (Ceramic) -->
<g id="node17" class="node">
<title>4,&#45;2 (Ceramic)</title>
<ellipse fill="none" stroke="black" cx="6580.49" cy="-4330.77" rx="76.89" ry="18"/>
<text text-anchor="middle" x="6580.49" y="-4327.07" font-family="Times,serif" font-size="14.00">4,&#45;2 (Ceramic)</text>
</g>
<!-- 2,12 (Yet more coke)&#45;&gt;4,&#45;2 (Ceramic) -->
<g id="edge23" class="edge">
<title>2,12 (Yet more coke)&#45;&gt;4,&#45;2 (Ceramic)</title>
<path fill="none" stroke="black" stroke-width="0.23" d="M4313.97,-6417.25C4520.72,-6226.92 6313.76,-4576.32 6553.93,-4355.22"/>
<polygon fill="black" stroke="black" stroke-width="0.23" points="6556.52,-4357.59 6561.51,-4348.24 6551.78,-4352.44 6556.52,-4357.59"/>
<text text-anchor="middle" x="5395.95" y="-5390.04" font-family="Times,serif" font-size="14.00">coke*4048</text>
</g>
<!-- 0,0 (LE BUS) -->
<g id="node21" class="node">
<title>0,0 (LE BUS)</title>
<ellipse fill="none" stroke="black" cx="5278.55" cy="-538.35" rx="71.49" ry="18"/>
<text text-anchor="middle" x="5278.55" y="-534.65" font-family="Times,serif" font-size="14.00">0,0 (LE BUS)</text>
</g>
<!-- 2,12 (Yet more coke)&#45;&gt;0,0 (LE BUS) -->
<g id="edge49" class="edge">
<title>2,12 (Yet more coke)&#45;&gt;0,0 (LE BUS)</title>
<path fill="none" stroke="black" stroke-width="0.11" d="M4297.6,-6416.88C4354.92,-6073.35 5203.21,-989.82 5273.87,-566.38"/>
<polygon fill="black" stroke="black" stroke-width="0.11" points="5277.33,-566.92 5275.52,-556.48 5270.43,-565.77 5277.33,-566.92"/>
<text text-anchor="middle" x="4747.73" y="-3495.43" font-family="Times,serif" font-size="14.00">coke*2016</text>
</g>
<!-- 8,0 (Moar Depot) -->
<g id="node22" class="node">
<title>8,0 (Moar Depot)</title>
<ellipse fill="none" stroke="black" cx="4334.4" cy="-6592.5" rx="90.18" ry="18"/>
<text text-anchor="middle" x="4334.4" y="-6588.8" font-family="Times,serif" font-size="14.00">8,0 (Moar Depot)</text>
</g>
<!-- 2,12 (Yet more coke)&#45;&gt;8,0 (Moar Depot) -->
<g id="edge45" class="edge">
<title>2,12 (Yet more coke)&#45;&gt;8,0 (Moar Depot)</title>
<path fill="none" stroke="black" stroke-width="1.41" d="M4299.12,-6453.18C4306.02,-6480.43 4319.15,-6532.28 4327.31,-6564.47"/>
<polygon fill="black" stroke="black" stroke-width="1.41" points="4323.91,-6565.34 4329.76,-6574.17 4330.7,-6563.62 4323.91,-6565.34"/>
<text text-anchor="middle" x="4270.71" y="-6512.62" font-family="Times,serif" font-size="14.00">coke*25008</text>
</g>
<!-- 3,16 (More Coke) -->
<g id="node5" class="node">
<title>3,16 (More Coke)</title>
<ellipse fill="none" stroke="black" cx="2182.1" cy="-281.77" rx="90.98" ry="18"/>
<text text-anchor="middle" x="2182.1" y="-278.07" font-family="Times,serif" font-size="14.00">3,16 (More Coke)</text>
</g>
<!-- 3,16 (More Coke)&#45;&gt;0,8 (Tar from Coke) -->
<g id="edge20" class="edge">
<title>3,16 (More Coke)&#45;&gt;0,8 (Tar from Coke)</title>
<path fill="none" stroke="black" stroke-width="1.99" d="M2172.29,-299.91C2033.1,-557.11 457.35,-3468.83 288.37,-3781.09"/>
<polygon fill="black" stroke="black" stroke-width="1.99" points="285.25,-3779.49 283.57,-3789.95 291.41,-3782.82 285.25,-3779.49"/>
<text text-anchor="middle" x="1187.83" y="-2044.3" font-family="Times,serif" font-size="14.00">coke*35248</text>
</g>
<!-- 3,16 (More Coke)&#45;&gt;&#45;2,9 (molten steel) -->
<g id="edge3" class="edge">
<title>3,16 (More Coke)&#45;&gt;&#45;2,9 (molten steel)</title>
<path fill="none" stroke="black" stroke-width="0.98" d="M2185.14,-299.96C2244.19,-653.82 3146.08,-6058.57 3219.04,-6495.8"/>
<polygon fill="black" stroke="black" stroke-width="0.98" points="3215.6,-6496.44 3220.7,-6505.73 3222.5,-6495.29 3215.6,-6496.44"/>
<text text-anchor="middle" x="2659.59" y="-3401.68" font-family="Times,serif" font-size="14.00">coke*17296</text>
</g>
<!-- 3,16 (More Coke)&#45;&gt;1,12 (Molten Iron) -->
<g id="edge14" class="edge">
<title>3,16 (More Coke)&#45;&gt;1,12 (Molten Iron)</title>
<path fill="none" stroke="black" stroke-width="0.35" d="M2162.95,-299.41C1999.5,-449.87 840.61,-1516.71 649.31,-1692.81"/>
<polygon fill="black" stroke="black" stroke-width="0.35" points="646.9,-1690.27 641.91,-1699.62 651.64,-1695.42 646.9,-1690.27"/>
<text text-anchor="middle" x="1368.13" y="-999.91" font-family="Times,serif" font-size="14.00">coke*6208</text>
</g>
<!-- 3,16 (More Coke)&#45;&gt;&#45;2,6 (Wrong ratio of Calcium Carbide to Acetalene) -->
<g id="edge53" class="edge">
<title>3,16 (More Coke)&#45;&gt;&#45;2,6 (Wrong ratio of Calcium Carbide to Acetalene)</title>
<path fill="none" stroke="black" stroke-width="1.45" d="M2182.1,-300C2182.1,-645.84 2182.1,-5802.22 2182.1,-6231.66"/>
<polygon fill="black" stroke="black" stroke-width="1.45" points="2178.6,-6231.96 2182.1,-6241.96 2185.6,-6231.96 2178.6,-6231.96"/>
<text text-anchor="middle" x="2139.6" y="-3269.63" font-family="Times,serif" font-size="14.00">coke*25664</text>
</g>
<!-- 3,16 (More Coke)&#45;&gt;&#45;4,&#45;2 (For Science!) -->
<g id="edge51" class="edge">
<title>3,16 (More Coke)&#45;&gt;&#45;4,&#45;2 (For Science!)</title>
<path fill="none" stroke="black" stroke-width="0.06" d="M2196.18,-299.86C2439.37,-612.31 5756.15,-4873.7 6048.53,-5249.36"/>
<polygon fill="black" stroke="black" stroke-width="0.06" points="6045.96,-5251.76 6054.87,-5257.5 6051.49,-5247.46 6045.96,-5251.76"/>
<text text-anchor="middle" x="4084.35" y="-2778.41" font-family="Times,serif" font-size="14.00">coke*1008</text>
</g>
<!-- 3,16 (More Coke)&#45;&gt;2,5 (Simple Circuits) -->
<g id="edge13" class="edge">
<title>3,16 (More Coke)&#45;&gt;2,5 (Simple Circuits)</title>
<path fill="none" stroke="black" stroke-width="0.25" d="M2179.07,-299.98C2124.59,-626.45 1354.72,-5239.98 1287.28,-5644.16"/>
<polygon fill="black" stroke="black" stroke-width="0.25" points="1283.8,-5643.72 1285.61,-5654.16 1290.71,-5644.87 1283.8,-5643.72"/>
<text text-anchor="middle" x="1695.17" y="-2975.87" font-family="Times,serif" font-size="14.00">coke*4368</text>
</g>
<!-- 3,16 (More Coke)&#45;&gt;&#45;5,1 (Acetylene) -->
<g id="edge50" class="edge">
<title>3,16 (More Coke)&#45;&gt;&#45;5,1 (Acetylene)</title>
<path fill="none" stroke="black" stroke-width="1.42" d="M2238.47,-267.5C2417.19,-222.24 2970.5,-82.13 3159.6,-34.24"/>
<polygon fill="black" stroke="black" stroke-width="1.42" points="3160.56,-37.61 3169.39,-31.76 3158.84,-30.82 3160.56,-37.61"/>
<text text-anchor="middle" x="2656.54" y="-154.67" font-family="Times,serif" font-size="14.00">coke*25216</text>
</g>
<!-- 3,16 (More Coke)&#45;&gt;3,9 (Copper, molten &amp; plate) -->
<g id="edge42" class="edge">
<title>3,16 (More Coke)&#45;&gt;3,9 (Copper, molten &amp; plate)</title>
<path fill="none" stroke="black" stroke-width="0.65" d="M2155.67,-299.04C2027.05,-383.08 1466.83,-749.08 1318.64,-845.9"/>
<polygon fill="black" stroke="black" stroke-width="0.65" points="1316.34,-843.23 1309.88,-851.62 1320.17,-849.09 1316.34,-843.23"/>
<text text-anchor="middle" x="1694.65" y="-576.27" font-family="Times,serif" font-size="14.00">coke*11472</text>
</g>
<!-- 3,10 (Anotherr depot) -->
<g id="node20" class="node">
<title>3,10 (Anotherr depot)</title>
<ellipse fill="none" stroke="black" cx="2108.28" cy="-113.46" rx="111.58" ry="18"/>
<text text-anchor="middle" x="2108.28" y="-109.76" font-family="Times,serif" font-size="14.00">3,10 (Anotherr depot)</text>
</g>
<!-- 3,16 (More Coke)&#45;&gt;3,10 (Anotherr depot) -->
<g id="edge43" class="edge">
<title>3,16 (More Coke)&#45;&gt;3,10 (Anotherr depot)</title>
<path fill="none" stroke="black" stroke-width="1.41" d="M2174.2,-263.76C2161.3,-234.35 2135.63,-175.84 2120.41,-141.13"/>
<polygon fill="black" stroke="black" stroke-width="1.41" points="2123.45,-139.35 2116.23,-131.6 2117.04,-142.16 2123.45,-139.35"/>
<text text-anchor="middle" x="2104.81" y="-206.25" font-family="Times,serif" font-size="14.00">coke*25008</text>
</g>
<!-- 3,15 (Even Yet More Coke) -->
<g id="node7" class="node">
<title>3,15 (Even Yet More Coke)</title>
<ellipse fill="none" stroke="black" cx="4294.55" cy="-106.73" rx="135.38" ry="18"/>
<text text-anchor="middle" x="4294.55" y="-103.03" font-family="Times,serif" font-size="14.00">3,15 (Even Yet More Coke)</text>
</g>
<!-- 3,15 (Even Yet More Coke)&#45;&gt;0,8 (Tar from Coke) -->
<g id="edge9" class="edge">
<title>3,15 (Even Yet More Coke)&#45;&gt;0,8 (Tar from Coke)</title>
<path fill="none" stroke="black" stroke-width="2.55" d="M4274.81,-124.9C3986.78,-390.06 638.02,-3472.8 301.01,-3783.05"/>
<polygon fill="black" stroke="black" stroke-width="2.55" points="298.17,-3780.9 293.18,-3790.25 302.91,-3786.05 298.17,-3780.9"/>
<text text-anchor="middle" x="2245.41" y="-1957.77" font-family="Times,serif" font-size="14.00">coke*45216</text>
</g>
<!-- 3,15 (Even Yet More Coke)&#45;&gt;&#45;2,9 (molten steel) -->
<g id="edge12" class="edge">
<title>3,15 (Even Yet More Coke)&#45;&gt;&#45;2,9 (molten steel)</title>
<path fill="none" stroke="black" stroke-width="1.13" d="M4291.53,-124.86C4231.67,-483.55 3302.68,-6050.67 3228.43,-6495.66"/>
<polygon fill="black" stroke="black" stroke-width="1.13" points="3224.94,-6495.31 3226.74,-6505.75 3231.84,-6496.46 3224.94,-6495.31"/>
<text text-anchor="middle" x="3717.48" y="-3314.06" font-family="Times,serif" font-size="14.00">coke*20016</text>
</g>
<!-- 3,15 (Even Yet More Coke)&#45;&gt;1,12 (Molten Iron) -->
<g id="edge6" class="edge">
<title>3,15 (Even Yet More Coke)&#45;&gt;1,12 (Molten Iron)</title>
<path fill="none" stroke="black" stroke-width="0.46" d="M4255.18,-124C3888.16,-284.99 1069.58,-1521.33 669.72,-1696.73"/>
<polygon fill="black" stroke="black" stroke-width="0.46" points="668.21,-1693.57 660.46,-1700.79 671.02,-1699.98 668.21,-1693.57"/>
<text text-anchor="middle" x="2424.45" y="-914.16" font-family="Times,serif" font-size="14.00">coke*8224</text>
</g>
<!-- 3,15 (Even Yet More Coke)&#45;&gt;&#45;2,6 (Wrong ratio of Calcium Carbide to Acetalene) -->
<g id="edge40" class="edge">
<title>3,15 (Even Yet More Coke)&#45;&gt;&#45;2,6 (Wrong ratio of Calcium Carbide to Acetalene)</title>
<path fill="none" stroke="black" stroke-width="3.66" d="M4288.3,-124.93C4167.68,-476.29 2339.51,-5801.57 2191.6,-6232.43"/>
<polygon fill="black" stroke="black" stroke-width="3.66" points="2188.26,-6231.36 2188.33,-6241.95 2194.88,-6233.63 2188.26,-6231.36"/>
<text text-anchor="middle" x="3197.45" y="-3182.48" font-family="Times,serif" font-size="14.00">coke*64880</text>
</g>
<!-- 3,15 (Even Yet More Coke)&#45;&gt;&#45;4,&#45;2 (For Science!) -->
<g id="edge16" class="edge">
<title>3,15 (Even Yet More Coke)&#45;&gt;&#45;4,&#45;2 (For Science!)</title>
<path fill="none" stroke="black" stroke-width="0.29" d="M4300.8,-124.94C4410.34,-444.02 5924.63,-4854.98 6059.5,-5247.84"/>
<polygon fill="black" stroke="black" stroke-width="0.29" points="6056.2,-5249.02 6062.76,-5257.34 6062.82,-5246.74 6056.2,-5249.02"/>
<text text-anchor="middle" x="5142.15" y="-2690.19" font-family="Times,serif" font-size="14.00">coke*5200</text>
</g>
<!-- 3,15 (Even Yet More Coke)&#45;&gt;2,5 (Simple Circuits) -->
<g id="edge25" class="edge">
<title>3,15 (Even Yet More Coke)&#45;&gt;2,5 (Simple Circuits)</title>
<path fill="none" stroke="black" stroke-width="0.31" d="M4284.81,-124.73C4105.75,-455.61 1515.51,-5241.94 1297.2,-5645.35"/>
<polygon fill="black" stroke="black" stroke-width="0.31" points="1294.04,-5643.84 1292.35,-5654.3 1300.19,-5647.18 1294.04,-5643.84"/>
<text text-anchor="middle" x="2753.01" y="-2888.84" font-family="Times,serif" font-size="14.00">coke*5424</text>
</g>
<!-- 3,15 (Even Yet More Coke)&#45;&gt;&#45;6,&#45;4 (High&#45;Power Resistors, Ceramic Capacitor, Inductor) -->
<g id="edge15" class="edge">
<title>3,15 (Even Yet More Coke)&#45;&gt;&#45;6,&#45;4 (High&#45;Power Resistors, Ceramic Capacitor, Inductor)</title>
<path fill="none" stroke="black" stroke-width="0.13" d="M4313.97,-124.61C4520.51,-314.74 6310.05,-1962.13 6553.18,-2185.95"/>
<polygon fill="black" stroke="black" stroke-width="0.13" points="6551.13,-2188.82 6560.86,-2193.02 6555.88,-2183.67 6551.13,-2188.82"/>
<text text-anchor="middle" x="5395.57" y="-1159.08" font-family="Times,serif" font-size="14.00">coke*2320</text>
</g>
<!-- 6,4 (Electronic components) -->
<g id="node15" class="node">
<title>6,4 (Electronic components)</title>
<ellipse fill="none" stroke="black" cx="6069.08" cy="-1266.09" rx="141.88" ry="18"/>
<text text-anchor="middle" x="6069.08" y="-1262.39" font-family="Times,serif" font-size="14.00">6,4 (Electronic components)</text>
</g>
<!-- 3,15 (Even Yet More Coke)&#45;&gt;6,4 (Electronic components) -->
<g id="edge18" class="edge">
<title>3,15 (Even Yet More Coke)&#45;&gt;6,4 (Electronic components)</title>
<path fill="none" stroke="black" stroke-width="0.56" d="M4321.71,-124.48C4524.6,-257.03 5801.79,-1091.46 6033.16,-1242.62"/>
<polygon fill="black" stroke="black" stroke-width="0.56" points="6031.59,-1245.77 6041.87,-1248.31 6035.41,-1239.91 6031.59,-1245.77"/>
<text text-anchor="middle" x="5139.44" y="-687.35" font-family="Times,serif" font-size="14.00">coke*9888</text>
</g>
<!-- 3,15 (Even Yet More Coke)&#45;&gt;0,0 (LE BUS) -->
<g id="edge57" class="edge">
<title>3,15 (Even Yet More Coke)&#45;&gt;0,0 (LE BUS)</title>
<path fill="none" stroke="black" stroke-width="0.12" d="M4334.04,-124.05C4490.54,-192.7 5066.82,-445.48 5233.26,-518.49"/>
<polygon fill="black" stroke="black" stroke-width="0.12" points="5232.15,-521.82 5242.71,-522.63 5234.96,-515.41 5232.15,-521.82"/>
<text text-anchor="middle" x="4745.65" y="-325.07" font-family="Times,serif" font-size="14.00">coke*2048</text>
</g>
<!-- 4,14 (A Coal mine, Coke oven gas wasted by venting, Coke direct from mine, A Coal mine?, A Coal mine?!) -->
<g id="node9" class="node">
<title>4,14 (A Coal mine, Coke oven gas wasted by venting, Coke direct from mine, A Coal mine?, A Coal mine?!)</title>
<ellipse fill="none" stroke="black" cx="622.6" cy="-4824.46" rx="503.91" ry="18"/>
<text text-anchor="middle" x="622.6" y="-4820.76" font-family="Times,serif" font-size="14.00">4,14 (A Coal mine, Coke oven gas wasted by venting, Coke direct from mine, A Coal mine?, A Coal mine?!)</text>
</g>
<!-- 4,14 (A Coal mine, Coke oven gas wasted by venting, Coke direct from mine, A Coal mine?, A Coal mine?!)&#45;&gt;0,8 (Tar from Coke) -->
<g id="edge28" class="edge">
<title>4,14 (A Coal mine, Coke oven gas wasted by venting, Coke direct from mine, A Coal mine?, A Coal mine?!)&#45;&gt;0,8 (Tar from Coke)</title>
<path fill="none" stroke="black" stroke-width="0.42" d="M616.39,-4806.39C574.61,-4684.68 334.37,-3984.88 283.26,-3836.02"/>
<polygon fill="black" stroke="black" stroke-width="0.42" points="286.48,-3834.59 279.92,-3826.27 279.85,-3836.86 286.48,-3834.59"/>
<text text-anchor="middle" x="411.83" y="-4325" font-family="Times,serif" font-size="14.00">coke*7408</text>
</g>
<!-- 4,14 (A Coal mine, Coke oven gas wasted by venting, Coke direct from mine, A Coal mine?, A Coal mine?!)&#45;&gt;&#45;2,9 (molten steel) -->
<g id="edge56" class="edge">
<title>4,14 (A Coal mine, Coke oven gas wasted by venting, Coke direct from mine, A Coal mine?, A Coal mine?!)&#45;&gt;&#45;2,9 (molten steel)</title>
<path fill="none" stroke="black" stroke-width="0.12" d="M650.48,-4842.68C909.97,-5012.21 2899.29,-6311.89 3188.66,-6500.95"/>
<polygon fill="black" stroke="black" stroke-width="0.12" points="3186.82,-6503.93 3197.1,-6506.47 3190.65,-6498.07 3186.82,-6503.93"/>
<text text-anchor="middle" x="1881.57" y="-5675.61" font-family="Times,serif" font-size="14.00">coke*2096</text>
</g>
<!-- 4,14 (A Coal mine, Coke oven gas wasted by venting, Coke direct from mine, A Coal mine?, A Coal mine?!)&#45;&gt;1,12 (Molten Iron) -->
<g id="edge31" class="edge">
<title>4,14 (A Coal mine, Coke oven gas wasted by venting, Coke direct from mine, A Coal mine?, A Coal mine?!)&#45;&gt;1,12 (Molten Iron)</title>
<path fill="none" stroke="black" stroke-width="0.11" d="M622.6,-4806.21C622.6,-4566.59 622.6,-2042.72 622.6,-1745.86"/>
<polygon fill="black" stroke="black" stroke-width="0.11" points="626.1,-1745.52 622.6,-1735.52 619.1,-1745.52 626.1,-1745.52"/>
<text text-anchor="middle" x="584.6" y="-3279.84" font-family="Times,serif" font-size="14.00">coke*2016</text>
</g>
<!-- 4,14 (A Coal mine, Coke oven gas wasted by venting, Coke direct from mine, A Coal mine?, A Coal mine?!)&#45;&gt;&#45;2,6 (Wrong ratio of Calcium Carbide to Acetalene) -->
<g id="edge7" class="edge">
<title>4,14 (A Coal mine, Coke oven gas wasted by venting, Coke direct from mine, A Coal mine?, A Coal mine?!)&#45;&gt;&#45;2,6 (Wrong ratio of Calcium Carbide to Acetalene)</title>
<path fill="none" stroke="black" stroke-width="2.94" d="M642.32,-4842.61C807.77,-4994.92 1963.31,-6058.67 2155.15,-6235.27"/>
<polygon fill="black" stroke="black" stroke-width="2.94" points="2152.83,-6237.9 2162.56,-6242.1 2157.58,-6232.75 2152.83,-6237.9"/>
<text text-anchor="middle" x="1356.23" y="-5542.74" font-family="Times,serif" font-size="14.00">coke*52192</text>
</g>
<!-- 4,14 (A Coal mine, Coke oven gas wasted by venting, Coke direct from mine, A Coal mine?, A Coal mine?!)&#45;&gt;2,5 (Simple Circuits) -->
<g id="edge29" class="edge">
<title>4,14 (A Coal mine, Coke oven gas wasted by venting, Coke direct from mine, A Coal mine?, A Coal mine?!)&#45;&gt;2,5 (Simple Circuits)</title>
<path fill="none" stroke="black" stroke-width="0.13" d="M636.69,-4842.56C721.33,-4951.31 1161.97,-5517.44 1262.25,-5646.28"/>
<polygon fill="black" stroke="black" stroke-width="0.13" points="1259.71,-5648.71 1268.61,-5654.46 1265.23,-5644.41 1259.71,-5648.71"/>
<text text-anchor="middle" x="911.47" y="-5248.22" font-family="Times,serif" font-size="14.00">coke*2272</text>
</g>
<!-- 4,14 (A Coal mine, Coke oven gas wasted by venting, Coke direct from mine, A Coal mine?, A Coal mine?!)&#45;&gt;6,4 (Electronic components) -->
<g id="edge54" class="edge">
<title>4,14 (A Coal mine, Coke oven gas wasted by venting, Coke direct from mine, A Coal mine?, A Coal mine?!)&#45;&gt;6,4 (Electronic components)</title>
<path fill="none" stroke="black" stroke-width="0.12" d="M650.28,-4806.37C1047.19,-4547.06 5585,-1582.36 6033.45,-1289.37"/>
<polygon fill="black" stroke="black" stroke-width="0.12" points="6035.38,-1292.29 6041.84,-1283.89 6031.55,-1286.43 6035.38,-1292.29"/>
<text text-anchor="middle" x="3303.87" y="-3051.67" font-family="Times,serif" font-size="14.00">coke*2192</text>
</g>
<!-- &#45;6,1 (Coke and Coal Dust from Biomass (needs Iron plates)) -->
<g id="node14" class="node">
<title>&#45;6,1 (Coke and Coal Dust from Biomass (needs Iron plates))</title>
<ellipse fill="none" stroke="black" cx="6757.34" cy="-3270.93" rx="285.95" ry="18"/>
<text text-anchor="middle" x="6757.34" y="-3267.23" font-family="Times,serif" font-size="14.00">&#45;6,1 (Coke and Coal Dust from Biomass (needs Iron plates))</text>
</g>
<!-- &#45;6,1 (Coke and Coal Dust from Biomass (needs Iron plates))&#45;&gt;0,8 (Tar from Coke) -->
<g id="edge32" class="edge">
<title>&#45;6,1 (Coke and Coal Dust from Biomass (needs Iron plates))&#45;&gt;0,8 (Tar from Coke)</title>
<path fill="none" stroke="black" stroke-width="1.53" d="M6584.34,-3285.26C5638.9,-3363.61 1112.7,-3738.66 375.35,-3799.76"/>
<polygon fill="black" stroke="black" stroke-width="1.53" points="374.97,-3796.28 365.29,-3800.59 375.55,-3803.25 374.97,-3796.28"/>
<text text-anchor="middle" x="3437.35" y="-3546.31" font-family="Times,serif" font-size="14.00">coke*27184</text>
</g>
<!-- &#45;6,1 (Coke and Coal Dust from Biomass (needs Iron plates))&#45;&gt;&#45;5,&#45;4 (low priority (slaked)? lime) -->
<g id="edge17" class="edge">
<title>&#45;6,1 (Coke and Coal Dust from Biomass (needs Iron plates))&#45;&gt;&#45;5,&#45;4 (low priority (slaked)? lime)</title>
<path fill="none" stroke="black" stroke-width="0.14" d="M6747.51,-3289.1C6627.15,-3511.52 5439.84,-5705.46 5293.35,-5976.16"/>
<polygon fill="black" stroke="black" stroke-width="0.14" points="5290.08,-5974.85 5288.4,-5985.31 5296.23,-5978.18 5290.08,-5974.85"/>
<text text-anchor="middle" x="5982.43" y="-4636.43" font-family="Times,serif" font-size="14.00">coke*2480</text>
</g>
<!-- &#45;6,1 (Coke and Coal Dust from Biomass (needs Iron plates))&#45;&gt;&#45;2,9 (molten steel) -->
<g id="edge38" class="edge">
<title>&#45;6,1 (Coke and Coal Dust from Biomass (needs Iron plates))&#45;&gt;&#45;2,9 (molten steel)</title>
<path fill="none" stroke="black" stroke-width="0.65" d="M6737.47,-3289.22C6468.87,-3536.49 3562.73,-6211.78 3250.81,-6498.92"/>
<polygon fill="black" stroke="black" stroke-width="0.65" points="3248.11,-6496.65 3243.12,-6506 3252.85,-6501.8 3248.11,-6496.65"/>
<text text-anchor="middle" x="4951.64" y="-4897.87" font-family="Times,serif" font-size="14.00">coke*11472</text>
</g>
<!-- &#45;6,1 (Coke and Coal Dust from Biomass (needs Iron plates))&#45;&gt;&#45;2,6 (Wrong ratio of Calcium Carbide to Acetalene) -->
<g id="edge36" class="edge">
<title>&#45;6,1 (Coke and Coal Dust from Biomass (needs Iron plates))&#45;&gt;&#45;2,6 (Wrong ratio of Calcium Carbide to Acetalene)</title>
<path fill="none" stroke="black" stroke-width="1.46" d="M6729.9,-3288.86C6371.92,-3522.74 2625.94,-5970.11 2218.07,-6236.58"/>
<polygon fill="black" stroke="black" stroke-width="1.46" points="2216.05,-6233.72 2209.59,-6242.12 2219.88,-6239.58 2216.05,-6233.72"/>
<text text-anchor="middle" x="4431.48" y="-4766.52" font-family="Times,serif" font-size="14.00">coke*25872</text>
</g>
<!-- &#45;6,1 (Coke and Coal Dust from Biomass (needs Iron plates))&#45;&gt;&#45;4,&#45;2 (For Science!) -->
<g id="edge33" class="edge">
<title>&#45;6,1 (Coke and Coal Dust from Biomass (needs Iron plates))&#45;&gt;&#45;4,&#45;2 (For Science!)</title>
<path fill="none" stroke="black" stroke-width="0.06" d="M6751.08,-3289.18C6687.27,-3475.05 6156.07,-5022.37 6078.52,-5248.29"/>
<polygon fill="black" stroke="black" stroke-width="0.06" points="6075.2,-5247.16 6075.27,-5257.76 6081.82,-5249.44 6075.2,-5247.16"/>
<text text-anchor="middle" x="6376.8" y="-4272.54" font-family="Times,serif" font-size="14.00">coke*1024</text>
</g>
<!-- &#45;6,1 (Coke and Coal Dust from Biomass (needs Iron plates))&#45;&gt;2,5 (Simple Circuits) -->
<g id="edge30" class="edge">
<title>&#45;6,1 (Coke and Coal Dust from Biomass (needs Iron plates))&#45;&gt;2,5 (Simple Circuits)</title>
<path fill="none" stroke="black" stroke-width="0.23" d="M6716.42,-3288.88C6244.38,-3495.94 1837.79,-5428.85 1330.16,-5651.51"/>
<polygon fill="black" stroke="black" stroke-width="0.23" points="1328.67,-5648.35 1320.91,-5655.57 1331.48,-5654.76 1328.67,-5648.35"/>
<text text-anchor="middle" x="3985.29" y="-4473.99" font-family="Times,serif" font-size="14.00">coke*4160</text>
</g>
<!-- &#45;6,1 (Coke and Coal Dust from Biomass (needs Iron plates))&#45;&gt;&#45;6,&#45;4 (High&#45;Power Resistors, Ceramic Capacitor, Inductor) -->
<g id="edge37" class="edge">
<title>&#45;6,1 (Coke and Coal Dust from Biomass (needs Iron plates))&#45;&gt;&#45;6,&#45;4 (High&#45;Power Resistors, Ceramic Capacitor, Inductor)</title>
<path fill="none" stroke="black" stroke-width="0.11" d="M6754.28,-3252.53C6733.27,-3126.64 6610.78,-2392.6 6585.18,-2239.19"/>
<polygon fill="black" stroke="black" stroke-width="0.11" points="6588.6,-2238.45 6583.5,-2229.16 6581.7,-2239.6 6588.6,-2238.45"/>
<text text-anchor="middle" x="6631.73" y="-2749.66" font-family="Times,serif" font-size="14.00">coke*2016</text>
</g>
<!-- &#45;6,1 (Coke and Coal Dust from Biomass (needs Iron plates))&#45;&gt;6,4 (Electronic components) -->
<g id="edge26" class="edge">
<title>&#45;6,1 (Coke and Coal Dust from Biomass (needs Iron plates))&#45;&gt;6,4 (Electronic components)</title>
<path fill="none" stroke="black" stroke-width="0.16" d="M6751.08,-3252.67C6687.27,-3066.8 6156.07,-1519.48 6078.52,-1293.57"/>
<polygon fill="black" stroke="black" stroke-width="0.16" points="6081.82,-1292.42 6075.27,-1284.1 6075.2,-1294.69 6081.82,-1292.42"/>
<text text-anchor="middle" x="6376.8" y="-2276.92" font-family="Times,serif" font-size="14.00">coke*2896</text>
</g>
<!-- &#45;6,1 (Coke and Coal Dust from Biomass (needs Iron plates))&#45;&gt;4,&#45;2 (Ceramic) -->
<g id="edge41" class="edge">
<title>&#45;6,1 (Coke and Coal Dust from Biomass (needs Iron plates))&#45;&gt;4,&#45;2 (Ceramic)</title>
<path fill="none" stroke="black" stroke-width="0.23" d="M6754.28,-3289.32C6733.27,-3415.22 6610.78,-4149.26 6585.18,-4302.67"/>
<polygon fill="black" stroke="black" stroke-width="0.23" points="6581.7,-4302.26 6583.5,-4312.7 6588.6,-4303.41 6581.7,-4302.26"/>
<text text-anchor="middle" x="6631.73" y="-3799.8" font-family="Times,serif" font-size="14.00">coke*4064</text>
</g>
<!-- &#45;6,1 (Coke and Coal Dust from Biomass (needs Iron plates))&#45;&gt;0,0 (LE BUS) -->
<g id="edge44" class="edge">
<title>&#45;6,1 (Coke and Coal Dust from Biomass (needs Iron plates))&#45;&gt;0,0 (LE BUS)</title>
<path fill="none" stroke="black" stroke-width="0.11" d="M6747.51,-3252.76C6627.08,-3030.23 5438.62,-834.14 5293.12,-565.28"/>
<polygon fill="black" stroke="black" stroke-width="0.11" points="5296.05,-563.33 5288.21,-556.2 5289.89,-566.67 5296.05,-563.33"/>
<text text-anchor="middle" x="5982.32" y="-1912.82" font-family="Times,serif" font-size="14.00">coke*2016</text>
</g>
<!-- 7,2 (advanced sand castings (mold)) -->
<g id="node23" class="node">
<title>7,2 (advanced sand castings (mold))</title>
<ellipse fill="none" stroke="black" cx="7007.43" cy="-3270.93" rx="178.17" ry="18"/>
<text text-anchor="middle" x="7007.43" y="-3267.23" font-family="Times,serif" font-size="14.00">7,2 (advanced sand castings (mold))</text>
</g>
<!-- &#45;6,1 (Coke and Coal Dust from Biomass (needs Iron plates))&#45;&gt;7,2 (advanced sand castings (mold)) -->
<g id="edge52" class="edge">
<title>&#45;6,1 (Coke and Coal Dust from Biomass (needs Iron plates))&#45;&gt;7,2 (advanced sand castings (mold))</title>
<path fill="none" stroke="black" stroke-width="1.41" d="M7007.38,-3270.93C7007.39,-3270.93 7007.4,-3270.93 7007.4,-3270.93"/>
<polygon fill="black" stroke="black" stroke-width="1.41" points="6997.44,-3274.5 7007.42,-3270.93 6997.39,-3267.5 6997.44,-3274.5"/>
<text text-anchor="middle" x="6964.89" y="-3274.73" font-family="Times,serif" font-size="14.00">coke*25056</text>
</g>
</g>
</svg>
