<?xml version="1.0" encoding="UTF-8" standalone="no"?>
<!DOCTYPE svg PUBLIC "-//W3C//DTD SVG 1.1//EN"
 "http://www.w3.org/Graphics/SVG/1.1/DTD/svg11.dtd">
<!-- Generated by graphviz version 2.43.0 (0)
 -->
<!-- Title: %3 Pages: 1 -->
<svg width="740pt" height="529pt"
 viewBox="0.00 0.00 739.79 528.59" xmlns="http://www.w3.org/2000/svg" xmlns:xlink="http://www.w3.org/1999/xlink">
<g id="graph0" class="graph" transform="scale(1 1) rotate(0) translate(4 524.59)">
<title>%3</title>
<polygon fill="white" stroke="transparent" points="-4,4 -4,-524.59 735.79,-524.59 735.79,4 -4,4"/>
<!-- &#45;1,&#45;10 (Petrier dish 2) -->
<g id="node1" class="node">
<title>&#45;1,&#45;10 (Petrier dish 2)</title>
<ellipse fill="none" stroke="black" cx="520.4" cy="-18" rx="110.48" ry="18"/>
<text text-anchor="middle" x="520.4" y="-14.3" font-family="Times,serif" font-size="14.00">&#45;1,&#45;10 (Petrier dish 2)</text>
</g>
<!-- 0,0 (LE BUS) -->
<g id="node2" class="node">
<title>0,0 (LE BUS)</title>
<ellipse fill="none" stroke="black" cx="660.29" cy="-260.29" rx="71.49" ry="18"/>
<text text-anchor="middle" x="660.29" y="-256.59" font-family="Times,serif" font-size="14.00">0,0 (LE BUS)</text>
</g>
<!-- &#45;1,&#45;10 (Petrier dish 2)&#45;&gt;0,0 (LE BUS) -->
<g id="edge1" class="edge">
<title>&#45;1,&#45;10 (Petrier dish 2)&#45;&gt;0,0 (LE BUS)</title>
<path fill="none" stroke="black" stroke-width="1.94" d="M530.92,-36.21C555.33,-78.5 615.97,-183.52 644.71,-233.3"/>
<polygon fill="black" stroke="black" stroke-width="1.94" points="641.82,-235.29 649.85,-242.2 647.88,-231.79 641.82,-235.29"/>
<text text-anchor="middle" x="527.31" y="-138.55" font-family="Times,serif" font-size="14.00">petri&#45;dish*37440</text>
</g>
<!-- &#45;3,7 (Sea sprouts) -->
<g id="node4" class="node">
<title>&#45;3,7 (Sea sprouts)</title>
<ellipse fill="none" stroke="black" cx="240.63" cy="-18" rx="92.88" ry="18"/>
<text text-anchor="middle" x="240.63" y="-14.3" font-family="Times,serif" font-size="14.00">&#45;3,7 (Sea sprouts)</text>
</g>
<!-- &#45;1,&#45;10 (Petrier dish 2)&#45;&gt;&#45;3,7 (Sea sprouts) -->
<g id="edge9" class="edge">
<title>&#45;1,&#45;10 (Petrier dish 2)&#45;&gt;&#45;3,7 (Sea sprouts)</title>
<path fill="none" stroke="black" stroke-width="0.52" d="M409.83,-18C388.07,-18 365.33,-18 343.82,-18"/>
<polygon fill="black" stroke="black" stroke-width="0.52" points="343.71,-14.5 333.71,-18 343.71,-21.5 343.71,-14.5"/>
<text text-anchor="middle" x="346.58" y="-6.8" font-family="Times,serif" font-size="14.00">petri&#45;dish*10080</text>
</g>
<!-- &#45;6,4 (Urea) -->
<g id="node5" class="node">
<title>&#45;6,4 (Urea)</title>
<ellipse fill="none" stroke="black" cx="240.63" cy="-502.59" rx="61.19" ry="18"/>
<text text-anchor="middle" x="240.63" y="-498.89" font-family="Times,serif" font-size="14.00">&#45;6,4 (Urea)</text>
</g>
<!-- &#45;1,&#45;10 (Petrier dish 2)&#45;&gt;&#45;6,4 (Urea) -->
<g id="edge3" class="edge">
<title>&#45;1,&#45;10 (Petrier dish 2)&#45;&gt;&#45;6,4 (Urea)</title>
<path fill="none" stroke="black" stroke-width="0.78" d="M509.95,-36.11C467.36,-109.88 306.81,-387.96 256.09,-475.81"/>
<polygon fill="black" stroke="black" stroke-width="0.78" points="252.96,-474.23 250.99,-484.64 259.02,-477.73 252.96,-474.23"/>
<text text-anchor="middle" x="322.52" y="-244.76" font-family="Times,serif" font-size="14.00">petri&#45;dish*15120</text>
</g>
<!-- &#45;3,&#45;11 (Petri dish 2) -->
<g id="node3" class="node">
<title>&#45;3,&#45;11 (Petri dish 2)</title>
<ellipse fill="none" stroke="black" cx="100.74" cy="-260.29" rx="100.98" ry="18"/>
<text text-anchor="middle" x="100.74" y="-256.59" font-family="Times,serif" font-size="14.00">&#45;3,&#45;11 (Petri dish 2)</text>
</g>
<!-- &#45;3,&#45;11 (Petri dish 2)&#45;&gt;0,0 (LE BUS) -->
<g id="edge6" class="edge">
<title>&#45;3,&#45;11 (Petri dish 2)&#45;&gt;0,0 (LE BUS)</title>
<path fill="none" stroke="black" stroke-width="0.9" d="M201.75,-260.29C309.64,-260.29 478.55,-260.29 578.45,-260.29"/>
<polygon fill="black" stroke="black" stroke-width="0.9" points="578.49,-263.79 588.49,-260.29 578.49,-256.79 578.49,-263.79"/>
<text text-anchor="middle" x="450.6" y="-264.09" font-family="Times,serif" font-size="14.00">petri&#45;dish*17280</text>
</g>
<!-- &#45;3,&#45;11 (Petri dish 2)&#45;&gt;&#45;3,7 (Sea sprouts) -->
<g id="edge2" class="edge">
<title>&#45;3,&#45;11 (Petri dish 2)&#45;&gt;&#45;3,7 (Sea sprouts)</title>
<path fill="none" stroke="black" stroke-width="2.1" d="M111.26,-242.08C135.67,-199.79 196.3,-94.78 225.04,-45"/>
<polygon fill="black" stroke="black" stroke-width="2.1" points="228.21,-46.5 230.18,-36.09 222.15,-43 228.21,-46.5"/>
<text text-anchor="middle" x="107.65" y="-147.34" font-family="Times,serif" font-size="14.00">petri&#45;dish*40560</text>
</g>
<!-- &#45;3,&#45;11 (Petri dish 2)&#45;&gt;&#45;6,4 (Urea) -->
<g id="edge8" class="edge">
<title>&#45;3,&#45;11 (Petri dish 2)&#45;&gt;&#45;6,4 (Urea)</title>
<path fill="none" stroke="black" stroke-width="0.52" d="M111.26,-278.5C135.73,-320.89 196.6,-426.32 225.25,-475.95"/>
<polygon fill="black" stroke="black" stroke-width="0.52" points="222.34,-477.91 230.37,-484.82 228.4,-474.41 222.34,-477.91"/>
<text text-anchor="middle" x="107.75" y="-381.03" font-family="Times,serif" font-size="14.00">petri&#45;dish*10080</text>
</g>
<!-- &#45;5,0 (Petri dishes) -->
<g id="node6" class="node">
<title>&#45;5,0 (Petri dishes)</title>
<ellipse fill="none" stroke="black" cx="520.4" cy="-502.59" rx="92.88" ry="18"/>
<text text-anchor="middle" x="520.4" y="-498.89" font-family="Times,serif" font-size="14.00">&#45;5,0 (Petri dishes)</text>
</g>
<!-- &#45;5,0 (Petri dishes)&#45;&gt;0,0 (LE BUS) -->
<g id="edge4" class="edge">
<title>&#45;5,0 (Petri dishes)&#45;&gt;0,0 (LE BUS)</title>
<path fill="none" stroke="black" stroke-width="1.45" d="M530.92,-484.37C555.33,-442.09 615.97,-337.07 644.71,-287.29"/>
<polygon fill="black" stroke="black" stroke-width="1.45" points="647.88,-288.8 649.85,-278.38 641.82,-285.3 647.88,-288.8"/>
<text text-anchor="middle" x="527.31" y="-389.63" font-family="Times,serif" font-size="14.00">petri&#45;dish*28000</text>
</g>
<!-- &#45;5,0 (Petri dishes)&#45;&gt;&#45;3,7 (Sea sprouts) -->
<g id="edge7" class="edge">
<title>&#45;5,0 (Petri dishes)&#45;&gt;&#45;3,7 (Sea sprouts)</title>
<path fill="none" stroke="black" stroke-width="0.52" d="M509.95,-484.47C467.36,-410.7 306.81,-132.62 256.09,-44.77"/>
<polygon fill="black" stroke="black" stroke-width="0.52" points="259.02,-42.86 250.99,-35.95 252.96,-46.36 259.02,-42.86"/>
<text text-anchor="middle" x="322.52" y="-268.42" font-family="Times,serif" font-size="14.00">petri&#45;dish*10080</text>
</g>
<!-- &#45;5,0 (Petri dishes)&#45;&gt;&#45;6,4 (Urea) -->
<g id="edge5" class="edge">
<title>&#45;5,0 (Petri dishes)&#45;&gt;&#45;6,4 (Urea)</title>
<path fill="none" stroke="black" stroke-width="0.26" d="M427.24,-502.59C389.77,-502.59 347.25,-502.59 312.26,-502.59"/>
<polygon fill="black" stroke="black" stroke-width="0.26" points="312.14,-499.09 302.14,-502.59 312.14,-506.09 312.14,-499.09"/>
<text text-anchor="middle" x="369.75" y="-491.39" font-family="Times,serif" font-size="14.00">petri&#45;dish*5040</text>
</g>
</g>
</svg>
