<?xml version="1.0" encoding="UTF-8" standalone="no"?>
<!DOCTYPE svg PUBLIC "-//W3C//DTD SVG 1.1//EN"
 "http://www.w3.org/Graphics/SVG/1.1/DTD/svg11.dtd">
<!-- Generated by graphviz version 2.43.0 (0)
 -->
<!-- Title: %3 Pages: 1 -->
<svg width="2569pt" height="1887pt"
 viewBox="0.00 0.00 2569.26 1887.18" xmlns="http://www.w3.org/2000/svg" xmlns:xlink="http://www.w3.org/1999/xlink">
<g id="graph0" class="graph" transform="scale(1 1) rotate(0) translate(4 1883.18)">
<title>%3</title>
<polygon fill="white" stroke="transparent" points="-4,4 -4,-1883.18 2565.26,-1883.18 2565.26,4 -4,4"/>
<!-- &#45;2,7 (item=borax Borax) -->
<g id="node1" class="node">
<title>&#45;2,7 (item=borax Borax)</title>
<ellipse fill="none" stroke="black" cx="2099.22" cy="-939.59" rx="123.48" ry="18"/>
<text text-anchor="middle" x="2099.22" y="-935.89" font-family="Times,serif" font-size="14.00">&#45;2,7 (item=borax Borax)</text>
</g>
<!-- 1,12 (Molten Iron) -->
<g id="node2" class="node">
<title>1,12 (Molten Iron)</title>
<ellipse fill="none" stroke="black" cx="1914.16" cy="-370.02" rx="95.58" ry="18"/>
<text text-anchor="middle" x="1914.16" y="-366.32" font-family="Times,serif" font-size="14.00">1,12 (Molten Iron)</text>
</g>
<!-- &#45;2,7 (item=borax Borax)&#45;&gt;1,12 (Molten Iron) -->
<g id="edge1" class="edge">
<title>&#45;2,7 (item=borax Borax)&#45;&gt;1,12 (Molten Iron)</title>
<path fill="none" stroke="black" stroke-width="3.21" d="M2093.38,-921.6C2066.62,-839.24 1955.67,-497.79 1923.15,-397.7"/>
<polygon fill="black" stroke="black" stroke-width="3.21" points="1926.42,-396.44 1920,-388.01 1919.76,-398.6 1926.42,-396.44"/>
<text text-anchor="middle" x="1961.77" y="-663.45" font-family="Times,serif" font-size="14.00">borax*61880</text>
</g>
<!-- &#45;4,&#45;4 (Reserved For Aluminium Ore Drop, Aluminium) -->
<g id="node3" class="node">
<title>&#45;4,&#45;4 (Reserved For Aluminium Ore Drop, Aluminium)</title>
<ellipse fill="none" stroke="black" cx="1914.16" cy="-1509.17" rx="258.05" ry="18"/>
<text text-anchor="middle" x="1914.16" y="-1505.47" font-family="Times,serif" font-size="14.00">&#45;4,&#45;4 (Reserved For Aluminium Ore Drop, Aluminium)</text>
</g>
<!-- &#45;2,7 (item=borax Borax)&#45;&gt;&#45;4,&#45;4 (Reserved For Aluminium Ore Drop, Aluminium) -->
<g id="edge2" class="edge">
<title>&#45;2,7 (item=borax Borax)&#45;&gt;&#45;4,&#45;4 (Reserved For Aluminium Ore Drop, Aluminium)</title>
<path fill="none" stroke="black" stroke-width="0.69" d="M2093.38,-957.58C2066.65,-1039.85 1955.92,-1380.64 1923.26,-1481.14"/>
<polygon fill="black" stroke="black" stroke-width="0.69" points="1919.86,-1480.3 1920.1,-1490.89 1926.51,-1482.46 1919.86,-1480.3"/>
<text text-anchor="middle" x="1961.82" y="-1223.16" font-family="Times,serif" font-size="14.00">borax*13320</text>
</g>
<!-- &#45;2,9 (molten steel) -->
<g id="node5" class="node">
<title>&#45;2,9 (molten steel)</title>
<ellipse fill="none" stroke="black" cx="1429.65" cy="-18" rx="95.58" ry="18"/>
<text text-anchor="middle" x="1429.65" y="-14.3" font-family="Times,serif" font-size="14.00">&#45;2,9 (molten steel)</text>
</g>
<!-- &#45;2,7 (item=borax Borax)&#45;&gt;&#45;2,9 (molten steel) -->
<g id="edge12" class="edge">
<title>&#45;2,7 (item=borax Borax)&#45;&gt;&#45;2,9 (molten steel)</title>
<path fill="none" stroke="black" stroke-width="0.87" d="M2086.15,-921.6C2002.99,-807.14 1548.19,-181.16 1448.83,-44.4"/>
<polygon fill="black" stroke="black" stroke-width="0.87" points="1451.52,-42.14 1442.81,-36.11 1445.85,-46.26 1451.52,-42.14"/>
<text text-anchor="middle" x="1720.99" y="-486.8" font-family="Times,serif" font-size="14.00">borax*16840</text>
</g>
<!-- 2,&#45;2 (Tin Plate, Organic Solvent) -->
<g id="node6" class="node">
<title>2,&#45;2 (Tin Plate, Organic Solvent)</title>
<ellipse fill="none" stroke="black" cx="830.76" cy="-18" rx="159.77" ry="18"/>
<text text-anchor="middle" x="830.76" y="-14.3" font-family="Times,serif" font-size="14.00">2,&#45;2 (Tin Plate, Organic Solvent)</text>
</g>
<!-- &#45;2,7 (item=borax Borax)&#45;&gt;2,&#45;2 (Tin Plate, Organic Solvent) -->
<g id="edge9" class="edge">
<title>&#45;2,7 (item=borax Borax)&#45;&gt;2,&#45;2 (Tin Plate, Organic Solvent)</title>
<path fill="none" stroke="black" stroke-width="1.07" d="M2074.74,-921.8C1917.02,-807.21 1045.14,-173.76 863.8,-42.01"/>
<polygon fill="black" stroke="black" stroke-width="1.07" points="865.6,-38.99 855.46,-35.94 861.49,-44.65 865.6,-38.99"/>
<text text-anchor="middle" x="1422.77" y="-485.7" font-family="Times,serif" font-size="14.00">borax*20600</text>
</g>
<!-- &#45;1,10 (Iron Plates) -->
<g id="node7" class="node">
<title>&#45;1,10 (Iron Plates)</title>
<ellipse fill="none" stroke="black" cx="346.25" cy="-370.02" rx="94.78" ry="18"/>
<text text-anchor="middle" x="346.25" y="-366.32" font-family="Times,serif" font-size="14.00">&#45;1,10 (Iron Plates)</text>
</g>
<!-- &#45;2,7 (item=borax Borax)&#45;&gt;&#45;1,10 (Iron Plates) -->
<g id="edge11" class="edge">
<title>&#45;2,7 (item=borax Borax)&#45;&gt;&#45;1,10 (Iron Plates)</title>
<path fill="none" stroke="black" stroke-width="0.52" d="M2048.65,-923.16C1795.93,-841.05 671.48,-475.69 403.65,-388.67"/>
<polygon fill="black" stroke="black" stroke-width="0.52" points="404.71,-385.33 394.12,-385.57 402.55,-391.99 404.71,-385.33"/>
<text text-anchor="middle" x="1179.65" y="-659.71" font-family="Times,serif" font-size="14.00">borax*10120</text>
</g>
<!-- &#45;1,11 (Steel Plate (from molten)) -->
<g id="node8" class="node">
<title>&#45;1,11 (Steel Plate (from molten))</title>
<ellipse fill="none" stroke="black" cx="161.19" cy="-939.59" rx="161.37" ry="18"/>
<text text-anchor="middle" x="161.19" y="-935.89" font-family="Times,serif" font-size="14.00">&#45;1,11 (Steel Plate (from molten))</text>
</g>
<!-- &#45;2,7 (item=borax Borax)&#45;&gt;&#45;1,11 (Steel Plate (from molten)) -->
<g id="edge7" class="edge">
<title>&#45;2,7 (item=borax Borax)&#45;&gt;&#45;1,11 (Steel Plate (from molten))</title>
<path fill="none" stroke="black" stroke-width="1.33" d="M1975.41,-939.59C1640.68,-939.59 717.12,-939.59 332.64,-939.59"/>
<polygon fill="black" stroke="black" stroke-width="1.33" points="332.54,-936.09 322.54,-939.59 332.54,-943.09 332.54,-936.09"/>
<text text-anchor="middle" x="1107.52" y="-928.39" font-family="Times,serif" font-size="14.00">borax*25600</text>
</g>
<!-- 3,9 (Copper, molten &amp; plate) -->
<g id="node9" class="node">
<title>3,9 (Copper, molten &amp; plate)</title>
<ellipse fill="none" stroke="black" cx="346.25" cy="-1509.17" rx="143.77" ry="18"/>
<text text-anchor="middle" x="346.25" y="-1505.47" font-family="Times,serif" font-size="14.00">3,9 (Copper, molten &amp; plate)</text>
</g>
<!-- &#45;2,7 (item=borax Borax)&#45;&gt;3,9 (Copper, molten &amp; plate) -->
<g id="edge8" class="edge">
<title>&#45;2,7 (item=borax Borax)&#45;&gt;3,9 (Copper, molten &amp; plate)</title>
<path fill="none" stroke="black" stroke-width="2.93" d="M2048.65,-956.02C1797.32,-1037.69 683.79,-1399.49 408.13,-1489.06"/>
<polygon fill="black" stroke="black" stroke-width="2.93" points="406.73,-1485.84 398.3,-1492.25 408.89,-1492.49 406.73,-1485.84"/>
<text text-anchor="middle" x="1181.89" y="-1226.34" font-family="Times,serif" font-size="14.00">borax*56440</text>
</g>
<!-- 4,3 (item=nexelit&#45;plate Nexelit platery) -->
<g id="node10" class="node">
<title>4,3 (item=nexelit&#45;plate Nexelit platery)</title>
<ellipse fill="none" stroke="black" cx="830.76" cy="-1861.18" rx="194.17" ry="18"/>
<text text-anchor="middle" x="830.76" y="-1857.48" font-family="Times,serif" font-size="14.00">4,3 (item=nexelit&#45;plate Nexelit platery)</text>
</g>
<!-- &#45;2,7 (item=borax Borax)&#45;&gt;4,3 (item=nexelit&#45;plate Nexelit platery) -->
<g id="edge14" class="edge">
<title>&#45;2,7 (item=borax Borax)&#45;&gt;4,3 (item=nexelit&#45;plate Nexelit platery)</title>
<path fill="none" stroke="black" stroke-width="0.11" d="M2074.74,-957.38C1917.02,-1071.97 1045.14,-1705.43 863.8,-1837.18"/>
<polygon fill="black" stroke="black" stroke-width="0.11" points="861.49,-1834.53 855.46,-1843.24 865.6,-1840.2 861.49,-1834.53"/>
<text text-anchor="middle" x="1427.27" y="-1401.08" font-family="Times,serif" font-size="14.00">borax*2040</text>
</g>
<!-- &#45;3,2 (Lead and Solder) -->
<g id="node11" class="node">
<title>&#45;3,2 (Lead and Solder)</title>
<ellipse fill="none" stroke="black" cx="2348.46" cy="-705.47" rx="113.98" ry="18"/>
<text text-anchor="middle" x="2348.46" y="-701.77" font-family="Times,serif" font-size="14.00">&#45;3,2 (Lead and Solder)</text>
</g>
<!-- &#45;2,7 (item=borax Borax)&#45;&gt;&#45;3,2 (Lead and Solder) -->
<g id="edge17" class="edge">
<title>&#45;2,7 (item=borax Borax)&#45;&gt;&#45;3,2 (Lead and Solder)</title>
<path fill="none" stroke="black" stroke-width="0.26" d="M2118.37,-921.61C2162.5,-880.16 2271.44,-777.82 2321.95,-730.37"/>
<polygon fill="black" stroke="black" stroke-width="0.26" points="2324.36,-732.91 2329.25,-723.52 2319.57,-727.81 2324.36,-732.91"/>
<text text-anchor="middle" x="2178.16" y="-829.79" font-family="Times,serif" font-size="14.00">borax*5040</text>
</g>
<!-- 4,6 (Circuit substrate and Doped silicon) -->
<g id="node12" class="node">
<title>4,6 (Circuit substrate and Doped silicon)</title>
<ellipse fill="none" stroke="black" cx="2361.73" cy="-1088.97" rx="199.56" ry="18"/>
<text text-anchor="middle" x="2361.73" y="-1085.27" font-family="Times,serif" font-size="14.00">4,6 (Circuit substrate and Doped silicon)</text>
</g>
<!-- &#45;2,7 (item=borax Borax)&#45;&gt;4,6 (Circuit substrate and Doped silicon) -->
<g id="edge18" class="edge">
<title>&#45;2,7 (item=borax Borax)&#45;&gt;4,6 (Circuit substrate and Doped silicon)</title>
<path fill="none" stroke="black" stroke-width="0.13" d="M2130.11,-957.17C2177.64,-984.21 2268.73,-1036.05 2321.41,-1066.02"/>
<polygon fill="black" stroke="black" stroke-width="0.13" points="2319.72,-1069.09 2330.15,-1071 2323.19,-1063.01 2319.72,-1069.09"/>
<text text-anchor="middle" x="2183.76" y="-1015.39" font-family="Times,serif" font-size="14.00">borax*2600</text>
</g>
<!-- 4,0 (item=raw&#45;borax item=borax Borax and raw borax) -->
<g id="node4" class="node">
<title>4,0 (item=raw&#45;borax item=borax Borax and raw borax)</title>
<ellipse fill="none" stroke="black" cx="1429.65" cy="-1861.18" rx="268.35" ry="18"/>
<text text-anchor="middle" x="1429.65" y="-1857.48" font-family="Times,serif" font-size="14.00">4,0 (item=raw&#45;borax item=borax Borax and raw borax)</text>
</g>
<!-- 4,0 (item=raw&#45;borax item=borax Borax and raw borax)&#45;&gt;1,12 (Molten Iron) -->
<g id="edge6" class="edge">
<title>4,0 (item=raw&#45;borax item=borax Borax and raw borax)&#45;&gt;1,12 (Molten Iron)</title>
<path fill="none" stroke="black" stroke-width="1.89" d="M1435.51,-1843.13C1485.77,-1688.46 1843.55,-587.33 1905.14,-397.77"/>
<polygon fill="black" stroke="black" stroke-width="1.89" points="1908.55,-398.6 1908.31,-388.01 1901.89,-396.44 1908.55,-398.6"/>
<text text-anchor="middle" x="1623.83" y="-1124.25" font-family="Times,serif" font-size="14.00">borax*36440</text>
</g>
<!-- 4,0 (item=raw&#45;borax item=borax Borax and raw borax)&#45;&gt;&#45;4,&#45;4 (Reserved For Aluminium Ore Drop, Aluminium) -->
<g id="edge10" class="edge">
<title>4,0 (item=raw&#45;borax item=borax Borax and raw borax)&#45;&gt;&#45;4,&#45;4 (Reserved For Aluminium Ore Drop, Aluminium)</title>
<path fill="none" stroke="black" stroke-width="0.45" d="M1454.34,-1843.24C1534.76,-1784.81 1789.25,-1599.92 1880.88,-1533.35"/>
<polygon fill="black" stroke="black" stroke-width="0.45" points="1883.19,-1535.99 1889.22,-1527.28 1879.08,-1530.33 1883.19,-1535.99"/>
<text text-anchor="middle" x="1625.61" y="-1692.09" font-family="Times,serif" font-size="14.00">borax*8760</text>
</g>
<!-- 4,0 (item=raw&#45;borax item=borax Borax and raw borax)&#45;&gt;&#45;2,9 (molten steel) -->
<g id="edge3" class="edge">
<title>4,0 (item=raw&#45;borax item=borax Borax and raw borax)&#45;&gt;&#45;2,9 (molten steel)</title>
<path fill="none" stroke="black" stroke-width="0.65" d="M1429.65,-1842.94C1429.65,-1666.45 1429.65,-264.18 1429.65,-46.38"/>
<polygon fill="black" stroke="black" stroke-width="0.65" points="1433.15,-46.11 1429.65,-36.11 1426.15,-46.11 1433.15,-46.11"/>
<text text-anchor="middle" x="1383.15" y="-948.46" font-family="Times,serif" font-size="14.00">borax*12600</text>
</g>
<!-- 4,0 (item=raw&#45;borax item=borax Borax and raw borax)&#45;&gt;2,&#45;2 (Tin Plate, Organic Solvent) -->
<g id="edge4" class="edge">
<title>4,0 (item=raw&#45;borax item=borax Borax and raw borax)&#45;&gt;2,&#45;2 (Tin Plate, Organic Solvent)</title>
<path fill="none" stroke="black" stroke-width="0.43" d="M1423.72,-1842.94C1366.32,-1666.28 909.84,-261.39 839.77,-45.74"/>
<polygon fill="black" stroke="black" stroke-width="0.43" points="843.06,-44.54 836.65,-36.11 836.41,-46.7 843.06,-44.54"/>
<text text-anchor="middle" x="1089.75" y="-948.14" font-family="Times,serif" font-size="14.00">borax*8320</text>
</g>
<!-- 4,0 (item=raw&#45;borax item=borax Borax and raw borax)&#45;&gt;&#45;1,10 (Iron Plates) -->
<g id="edge5" class="edge">
<title>4,0 (item=raw&#45;borax item=borax Borax and raw borax)&#45;&gt;&#45;1,10 (Iron Plates)</title>
<path fill="none" stroke="black" stroke-width="0.52" d="M1416.53,-1843.13C1303.88,-1688.08 500.16,-581.85 365.4,-396.37"/>
<polygon fill="black" stroke="black" stroke-width="0.52" points="368.03,-394.04 359.32,-388.01 362.37,-398.15 368.03,-394.04"/>
<text text-anchor="middle" x="844.47" y="-1123.55" font-family="Times,serif" font-size="14.00">borax*10080</text>
</g>
<!-- 4,0 (item=raw&#45;borax item=borax Borax and raw borax)&#45;&gt;&#45;1,11 (Steel Plate (from molten)) -->
<g id="edge15" class="edge">
<title>4,0 (item=raw&#45;borax item=borax Borax and raw borax)&#45;&gt;&#45;1,11 (Steel Plate (from molten))</title>
<path fill="none" stroke="black" stroke-width="0.8" d="M1404.88,-1843.19C1246.39,-1728.04 375.35,-1095.19 194.19,-963.57"/>
<polygon fill="black" stroke="black" stroke-width="0.8" points="196,-960.56 185.85,-957.51 191.89,-966.22 196,-960.56"/>
<text text-anchor="middle" x="753.04" y="-1407.18" font-family="Times,serif" font-size="14.00">borax*15360</text>
</g>
<!-- 4,0 (item=raw&#45;borax item=borax Borax and raw borax)&#45;&gt;3,9 (Copper, molten &amp; plate) -->
<g id="edge13" class="edge">
<title>4,0 (item=raw&#45;borax item=borax Borax and raw borax)&#45;&gt;3,9 (Copper, molten &amp; plate)</title>
<path fill="none" stroke="black" stroke-width="2.03" d="M1375.18,-1843.49C1192.24,-1784.05 600.53,-1591.79 407.66,-1529.12"/>
<polygon fill="black" stroke="black" stroke-width="2.03" points="408.56,-1525.73 397.96,-1525.97 406.39,-1532.39 408.56,-1525.73"/>
<text text-anchor="middle" x="844.92" y="-1690.1" font-family="Times,serif" font-size="14.00">borax*39200</text>
</g>
<!-- 4,0 (item=raw&#45;borax item=borax Borax and raw borax)&#45;&gt;4,3 (item=nexelit&#45;plate Nexelit platery) -->
<g id="edge16" class="edge">
<title>4,0 (item=raw&#45;borax item=borax Borax and raw borax)&#45;&gt;4,3 (item=nexelit&#45;plate Nexelit platery)</title>
<path fill="none" stroke="black" stroke-width="0.1" d="M1160.86,-1861.18C1118.72,-1861.18 1075.76,-1861.18 1035.37,-1861.18"/>
<polygon fill="black" stroke="black" stroke-width="0.1" points="1035.16,-1857.68 1025.16,-1861.18 1035.16,-1864.68 1035.16,-1857.68"/>
<text text-anchor="middle" x="1119.12" y="-1849.98" font-family="Times,serif" font-size="14.00">borax*2000</text>
</g>
</g>
</svg>
