<?xml version="1.0" encoding="UTF-8" standalone="no"?>
<!DOCTYPE svg PUBLIC "-//W3C//DTD SVG 1.1//EN"
 "http://www.w3.org/Graphics/SVG/1.1/DTD/svg11.dtd">
<!-- Generated by graphviz version 2.43.0 (0)
 -->
<!-- Title: %3 Pages: 1 -->
<svg width="715pt" height="622pt"
 viewBox="0.00 0.00 714.99 622.12" xmlns="http://www.w3.org/2000/svg" xmlns:xlink="http://www.w3.org/1999/xlink">
<g id="graph0" class="graph" transform="scale(1 1) rotate(0) translate(4 618.12)">
<title>%3</title>
<polygon fill="white" stroke="transparent" points="-4,4 -4,-618.12 710.99,-618.12 710.99,4 -4,4"/>
<!-- &#45;6,&#45;3 (Chromite Sand) -->
<g id="node1" class="node">
<title>&#45;6,&#45;3 (Chromite Sand)</title>
<ellipse fill="none" stroke="black" cx="311.32" cy="-296.57" rx="110.48" ry="18"/>
<text text-anchor="middle" x="311.32" y="-292.87" font-family="Times,serif" font-size="14.00">&#45;6,&#45;3 (Chromite Sand)</text>
</g>
<!-- &#45;2,&#45;3 (Trains) -->
<g id="node2" class="node">
<title>&#45;2,&#45;3 (Trains)</title>
<ellipse fill="none" stroke="black" cx="636.8" cy="-296.57" rx="70.39" ry="18"/>
<text text-anchor="middle" x="636.8" y="-292.87" font-family="Times,serif" font-size="14.00">&#45;2,&#45;3 (Trains)</text>
</g>
<!-- &#45;6,&#45;3 (Chromite Sand)&#45;&gt;&#45;2,&#45;3 (Trains) -->
<g id="edge1" class="edge">
<title>&#45;6,&#45;3 (Chromite Sand)&#45;&gt;&#45;2,&#45;3 (Trains)</title>
<path fill="none" stroke="black" stroke-width="0.31" d="M421.97,-296.57C465.97,-296.57 515.65,-296.57 556.15,-296.57"/>
<polygon fill="black" stroke="black" stroke-width="0.31" points="556.24,-300.07 566.24,-296.57 556.24,-293.07 556.24,-300.07"/>
<text text-anchor="middle" x="489.06" y="-285.37" font-family="Times,serif" font-size="14.00">chromite&#45;sand*17008</text>
</g>
<!-- 2,10 (Nickel plate) -->
<g id="node3" class="node">
<title>2,10 (Nickel plate)</title>
<ellipse fill="none" stroke="black" cx="184.04" cy="-596.12" rx="96.68" ry="18"/>
<text text-anchor="middle" x="184.04" y="-592.42" font-family="Times,serif" font-size="14.00">2,10 (Nickel plate)</text>
</g>
<!-- &#45;6,&#45;3 (Chromite Sand)&#45;&gt;2,10 (Nickel plate) -->
<g id="edge2" class="edge">
<title>&#45;6,&#45;3 (Chromite Sand)&#45;&gt;2,10 (Nickel plate)</title>
<path fill="none" stroke="black" stroke-width="2.13" d="M303.55,-314.85C281.98,-365.63 221.24,-508.58 195.64,-568.81"/>
<polygon fill="black" stroke="black" stroke-width="2.13" points="192.4,-567.5 191.71,-578.08 198.84,-570.24 192.4,-567.5"/>
<text text-anchor="middle" x="168.1" y="-445.63" font-family="Times,serif" font-size="14.00">chromite&#45;sand*117696</text>
</g>
<!-- 4,13 (Chromium processing) -->
<g id="node4" class="node">
<title>4,13 (Chromium processing)</title>
<ellipse fill="none" stroke="black" cx="142.99" cy="-18" rx="142.97" ry="18"/>
<text text-anchor="middle" x="142.99" y="-14.3" font-family="Times,serif" font-size="14.00">4,13 (Chromium processing)</text>
</g>
<!-- &#45;6,&#45;3 (Chromite Sand)&#45;&gt;4,13 (Chromium processing) -->
<g id="edge3" class="edge">
<title>&#45;6,&#45;3 (Chromite Sand)&#45;&gt;4,13 (Chromium processing)</title>
<path fill="none" stroke="black" stroke-width="0.57" d="M300.28,-278.29C271.31,-230.36 193.08,-100.89 159.1,-44.67"/>
<polygon fill="black" stroke="black" stroke-width="0.57" points="162.02,-42.73 153.85,-35.98 156.03,-46.35 162.02,-42.73"/>
<text text-anchor="middle" x="152.69" y="-165.28" font-family="Times,serif" font-size="14.00">chromite&#45;sand*31280</text>
</g>
</g>
</svg>
