<?xml version="1.0" encoding="UTF-8" standalone="no"?>
<!DOCTYPE svg PUBLIC "-//W3C//DTD SVG 1.1//EN"
 "http://www.w3.org/Graphics/SVG/1.1/DTD/svg11.dtd">
<!-- Generated by graphviz version 2.43.0 (0)
 -->
<!-- Title: %3 Pages: 1 -->
<svg width="1279pt" height="803pt"
 viewBox="0.00 0.00 1278.66 802.70" xmlns="http://www.w3.org/2000/svg" xmlns:xlink="http://www.w3.org/1999/xlink">
<g id="graph0" class="graph" transform="scale(1 1) rotate(0) translate(4 798.7)">
<title>%3</title>
<polygon fill="white" stroke="transparent" points="-4,4 -4,-798.7 1274.66,-798.7 1274.66,4 -4,4"/>
<!-- 1,7 (Activated Carbon) -->
<g id="node1" class="node">
<title>1,7 (Activated Carbon)</title>
<ellipse fill="none" stroke="black" cx="624.11" cy="-398.03" rx="115.88" ry="18"/>
<text text-anchor="middle" x="624.11" y="-394.33" font-family="Times,serif" font-size="14.00">1,7 (Activated Carbon)</text>
</g>
<!-- 0,6 (Flue Gas Disposal, Syngas From Flue Gas) -->
<g id="node2" class="node">
<title>0,6 (Flue Gas Disposal, Syngas From Flue Gas)</title>
<ellipse fill="none" stroke="black" cx="1041.23" cy="-398.03" rx="229.36" ry="18"/>
<text text-anchor="middle" x="1041.23" y="-394.33" font-family="Times,serif" font-size="14.00">0,6 (Flue Gas Disposal, Syngas From Flue Gas)</text>
</g>
<!-- 1,7 (Activated Carbon)&#45;&gt;0,6 (Flue Gas Disposal, Syngas From Flue Gas) -->
<g id="edge1" class="edge">
<title>1,7 (Activated Carbon)&#45;&gt;0,6 (Flue Gas Disposal, Syngas From Flue Gas)</title>
<path fill="none" stroke="black" stroke-width="1.16" d="M740.02,-398.03C759.48,-398.03 780.29,-398.03 801.54,-398.03"/>
<polygon fill="black" stroke="black" stroke-width="1.16" points="801.67,-401.53 811.67,-398.03 801.67,-394.53 801.67,-401.53"/>
<text text-anchor="middle" x="770.78" y="-386.83" font-family="Times,serif" font-size="14.00">active&#45;carbon*16064</text>
</g>
<!-- 2,6 (Refined Syngas) -->
<g id="node3" class="node">
<title>2,6 (Refined Syngas)</title>
<ellipse fill="none" stroke="black" cx="842.53" cy="-753.39" rx="107.48" ry="18"/>
<text text-anchor="middle" x="842.53" y="-749.69" font-family="Times,serif" font-size="14.00">2,6 (Refined Syngas)</text>
</g>
<!-- 1,7 (Activated Carbon)&#45;&gt;2,6 (Refined Syngas) -->
<g id="edge2" class="edge">
<title>1,7 (Activated Carbon)&#45;&gt;2,6 (Refined Syngas)</title>
<path fill="none" stroke="black" stroke-width="2.01" d="M635.24,-416.14C671.1,-474.48 783.72,-657.7 826.14,-726.73"/>
<polygon fill="black" stroke="black" stroke-width="2.01" points="823.2,-728.62 831.42,-735.31 829.17,-724.96 823.2,-728.62"/>
<text text-anchor="middle" x="656.69" y="-575.23" font-family="Times,serif" font-size="14.00">active&#45;carbon*28000</text>
</g>
<!-- 4,1 (item=filtration&#45;media Filtration Media) -->
<g id="node4" class="node">
<title>4,1 (item=filtration&#45;media Filtration Media)</title>
<ellipse fill="none" stroke="black" cx="449.2" cy="-776.7" rx="214.46" ry="18"/>
<text text-anchor="middle" x="449.2" y="-773" font-family="Times,serif" font-size="14.00">4,1 (item=filtration&#45;media Filtration Media)</text>
</g>
<!-- 1,7 (Activated Carbon)&#45;&gt;4,1 (item=filtration&#45;media Filtration Media) -->
<g id="edge3" class="edge">
<title>1,7 (Activated Carbon)&#45;&gt;4,1 (item=filtration&#45;media Filtration Media)</title>
<path fill="none" stroke="black" stroke-width="2.26" d="M615.79,-416.04C587.65,-476.96 495.88,-675.63 461.96,-749.08"/>
<polygon fill="black" stroke="black" stroke-width="2.26" points="458.58,-748.04 457.57,-758.58 464.94,-750.97 458.58,-748.04"/>
<text text-anchor="middle" x="464.87" y="-586.36" font-family="Times,serif" font-size="14.00">active&#45;carbon*31392</text>
</g>
<!-- &#45;2,8 (syngas from coal dust and also wood) -->
<g id="node5" class="node">
<title>&#45;2,8 (syngas from coal dust and also wood)</title>
<ellipse fill="none" stroke="black" cx="208.63" cy="-361.03" rx="208.76" ry="18"/>
<text text-anchor="middle" x="208.63" y="-357.33" font-family="Times,serif" font-size="14.00">&#45;2,8 (syngas from coal dust and also wood)</text>
</g>
<!-- 1,7 (Activated Carbon)&#45;&gt;&#45;2,8 (syngas from coal dust and also wood) -->
<g id="edge4" class="edge">
<title>1,7 (Activated Carbon)&#45;&gt;&#45;2,8 (syngas from coal dust and also wood)</title>
<path fill="none" stroke="black" stroke-width="0.14" d="M523.53,-389.07C475.7,-384.81 417.43,-379.62 364.08,-374.87"/>
<polygon fill="black" stroke="black" stroke-width="0.14" points="364.11,-371.36 353.84,-373.96 363.49,-378.33 364.11,-371.36"/>
<text text-anchor="middle" x="374.31" y="-385.77" font-family="Times,serif" font-size="14.00">active&#45;carbon*2016</text>
</g>
<!-- 0,12 (Phosphate mining) -->
<g id="node6" class="node">
<title>0,12 (Phosphate mining)</title>
<ellipse fill="none" stroke="black" cx="435.16" cy="-26.16" rx="124.58" ry="18"/>
<text text-anchor="middle" x="435.16" y="-22.46" font-family="Times,serif" font-size="14.00">0,12 (Phosphate mining)</text>
</g>
<!-- 1,7 (Activated Carbon)&#45;&gt;0,12 (Phosphate mining) -->
<g id="edge5" class="edge">
<title>1,7 (Activated Carbon)&#45;&gt;0,12 (Phosphate mining)</title>
<path fill="none" stroke="black" stroke-width="0.08" d="M614.87,-379.84C584.16,-319.41 485.44,-125.11 448.92,-53.23"/>
<polygon fill="black" stroke="black" stroke-width="0.08" points="452.03,-51.64 444.38,-44.31 445.79,-54.81 452.03,-51.64"/>
<text text-anchor="middle" x="462.39" y="-220.33" font-family="Times,serif" font-size="14.00">active&#45;carbon*1056</text>
</g>
<!-- 2,&#45;2 (Tin Plate, Organic Solvent) -->
<g id="node7" class="node">
<title>2,&#45;2 (Tin Plate, Organic Solvent)</title>
<ellipse fill="none" stroke="black" cx="796.06" cy="-18" rx="159.77" ry="18"/>
<text text-anchor="middle" x="796.06" y="-14.3" font-family="Times,serif" font-size="14.00">2,&#45;2 (Tin Plate, Organic Solvent)</text>
</g>
<!-- 1,7 (Activated Carbon)&#45;&gt;2,&#45;2 (Tin Plate, Organic Solvent) -->
<g id="edge6" class="edge">
<title>1,7 (Activated Carbon)&#45;&gt;2,&#45;2 (Tin Plate, Organic Solvent)</title>
<path fill="none" stroke="black" stroke-width="0.35" d="M632.28,-379.95C659.95,-318.81 750.16,-119.44 783.52,-45.72"/>
<polygon fill="black" stroke="black" stroke-width="0.35" points="786.9,-46.74 787.83,-36.18 780.52,-43.85 786.9,-46.74"/>
<text text-anchor="middle" x="638.4" y="-216.64" font-family="Times,serif" font-size="14.00">active&#45;carbon*4912</text>
</g>
</g>
</svg>
