<?xml version="1.0" encoding="UTF-8" standalone="no"?>
<!DOCTYPE svg PUBLIC "-//W3C//DTD SVG 1.1//EN"
 "http://www.w3.org/Graphics/SVG/1.1/DTD/svg11.dtd">
<!-- Generated by graphviz version 2.43.0 (0)
 -->
<!-- Title: %3 Pages: 1 -->
<svg width="1965pt" height="44pt"
 viewBox="0.00 0.00 1964.91 44.00" xmlns="http://www.w3.org/2000/svg" xmlns:xlink="http://www.w3.org/1999/xlink">
<g id="graph0" class="graph" transform="scale(1 1) rotate(0) translate(4 40)">
<title>%3</title>
<polygon fill="white" stroke="transparent" points="-4,4 -4,-40 1960.91,-40 1960.91,4 -4,4"/>
<!-- &#45;3,3 (Lead dust (silver plate)) -->
<g id="node1" class="node">
<title>&#45;3,3 (Lead dust (silver plate))</title>
<ellipse fill="none" stroke="black" cx="793.29" cy="-18" rx="145.67" ry="18"/>
<text text-anchor="middle" x="793.29" y="-14.3" font-family="Times,serif" font-size="14.00">&#45;3,3 (Lead dust (silver plate))</text>
</g>
<!-- 0,0 (LE BUS) -->
<g id="node2" class="node">
<title>0,0 (LE BUS)</title>
<ellipse fill="none" stroke="black" cx="1082.37" cy="-18" rx="71.49" ry="18"/>
<text text-anchor="middle" x="1082.37" y="-14.3" font-family="Times,serif" font-size="14.00">0,0 (LE BUS)</text>
</g>
<!-- &#45;3,3 (Lead dust (silver plate))&#45;&gt;0,0 (LE BUS) -->
<g id="edge1" class="edge">
<title>&#45;3,3 (Lead dust (silver plate))&#45;&gt;0,0 (LE BUS)</title>
<path fill="none" stroke="black" stroke-width="0.19" d="M939.1,-18C960.16,-18 981.17,-18 1000.37,-18"/>
<polygon fill="black" stroke="black" stroke-width="0.19" points="1000.53,-21.5 1010.53,-18 1000.53,-14.5 1000.53,-21.5"/>
<text text-anchor="middle" x="1000.74" y="-6.8" font-family="Times,serif" font-size="14.00">silver&#45;plate*2016</text>
</g>
<!-- &#45;8,&#45;11 (Fetal serum) -->
<g id="node5" class="node">
<title>&#45;8,&#45;11 (Fetal serum)</title>
<ellipse fill="none" stroke="black" cx="102.69" cy="-18" rx="102.88" ry="18"/>
<text text-anchor="middle" x="102.69" y="-14.3" font-family="Times,serif" font-size="14.00">&#45;8,&#45;11 (Fetal serum)</text>
</g>
<!-- &#45;3,3 (Lead dust (silver plate))&#45;&gt;&#45;8,&#45;11 (Fetal serum) -->
<g id="edge3" class="edge">
<title>&#45;3,3 (Lead dust (silver plate))&#45;&gt;&#45;8,&#45;11 (Fetal serum)</title>
<path fill="none" stroke="black" stroke-width="2.31" d="M647.68,-18C518.86,-18 333.56,-18 215.66,-18"/>
<polygon fill="black" stroke="black" stroke-width="2.31" points="215.52,-14.5 205.52,-18 215.52,-21.5 215.52,-14.5"/>
<text text-anchor="middle" x="365.17" y="-21.8" font-family="Times,serif" font-size="14.00">silver&#45;plate*25008</text>
</g>
<!-- &#45;4,&#45;8 (item=silver&#45;plate Even even more silver?) -->
<g id="node3" class="node">
<title>&#45;4,&#45;8 (item=silver&#45;plate Even even more silver?)</title>
<ellipse fill="none" stroke="black" cx="1459.2" cy="-18" rx="233.16" ry="18"/>
<text text-anchor="middle" x="1459.2" y="-14.3" font-family="Times,serif" font-size="14.00">&#45;4,&#45;8 (item=silver&#45;plate Even even more silver?)</text>
</g>
<!-- &#45;4,&#45;8 (item=silver&#45;plate Even even more silver?)&#45;&gt;0,0 (LE BUS) -->
<g id="edge4" class="edge">
<title>&#45;4,&#45;8 (item=silver&#45;plate Even even more silver?)&#45;&gt;0,0 (LE BUS)</title>
<path fill="none" stroke="black" stroke-width="0.58" d="M1225.64,-18C1203.95,-18 1183.11,-18 1164.36,-18"/>
<polygon fill="black" stroke="black" stroke-width="0.58" points="1164.16,-14.5 1154.16,-18 1164.16,-21.5 1164.16,-14.5"/>
<text text-anchor="middle" x="1164" y="-6.8" font-family="Times,serif" font-size="14.00">silver&#45;plate*6240</text>
</g>
<!-- &#45;5,2 (Optical fiber) -->
<g id="node4" class="node">
<title>&#45;5,2 (Optical fiber)</title>
<ellipse fill="none" stroke="black" cx="1860.72" cy="-18" rx="96.38" ry="18"/>
<text text-anchor="middle" x="1860.72" y="-14.3" font-family="Times,serif" font-size="14.00">&#45;5,2 (Optical fiber)</text>
</g>
<!-- &#45;4,&#45;8 (item=silver&#45;plate Even even more silver?)&#45;&gt;&#45;5,2 (Optical fiber) -->
<g id="edge2" class="edge">
<title>&#45;4,&#45;8 (item=silver&#45;plate Even even more silver?)&#45;&gt;&#45;5,2 (Optical fiber)</title>
<path fill="none" stroke="black" stroke-width="0.93" d="M1692.76,-18C1713.97,-18 1734.67,-18 1753.89,-18"/>
<polygon fill="black" stroke="black" stroke-width="0.93" points="1754.1,-21.5 1764.1,-18 1754.1,-14.5 1754.1,-21.5"/>
<text text-anchor="middle" x="1723.33" y="-6.8" font-family="Times,serif" font-size="14.00">silver&#45;plate*10008</text>
</g>
</g>
</svg>
