<?xml version="1.0" encoding="UTF-8" standalone="no"?>
<!DOCTYPE svg PUBLIC "-//W3C//DTD SVG 1.1//EN"
 "http://www.w3.org/Graphics/SVG/1.1/DTD/svg11.dtd">
<!-- Generated by graphviz version 2.43.0 (0)
 -->
<!-- Title: %3 Pages: 1 -->
<svg width="1565pt" height="1524pt"
 viewBox="0.00 0.00 1565.00 1523.55" xmlns="http://www.w3.org/2000/svg" xmlns:xlink="http://www.w3.org/1999/xlink">
<g id="graph0" class="graph" transform="scale(1 1) rotate(0) translate(4 1519.55)">
<title>%3</title>
<polygon fill="white" stroke="transparent" points="-4,4 -4,-1519.55 1561,-1519.55 1561,4 -4,4"/>
<!-- 0,0 (LE BUS) -->
<g id="node1" class="node">
<title>0,0 (LE BUS)</title>
<ellipse fill="none" stroke="black" cx="623.79" cy="-755.45" rx="71.49" ry="18"/>
<text text-anchor="middle" x="623.79" y="-751.75" font-family="Times,serif" font-size="14.00">0,0 (LE BUS)</text>
</g>
<!-- 2,0 (Sodium Sulfate) -->
<g id="node2" class="node">
<title>2,0 (Sodium Sulfate)</title>
<ellipse fill="none" stroke="black" cx="106.59" cy="-923.5" rx="106.68" ry="18"/>
<text text-anchor="middle" x="106.59" y="-919.8" font-family="Times,serif" font-size="14.00">2,0 (Sodium Sulfate)</text>
</g>
<!-- 0,0 (LE BUS)&#45;&gt;2,0 (Sodium Sulfate) -->
<g id="edge1" class="edge">
<title>0,0 (LE BUS)&#45;&gt;2,0 (Sodium Sulfate)</title>
<path fill="none" stroke="black" stroke-width="2.02" d="M579.7,-769.78C486.69,-800 270.41,-870.27 165.61,-904.33"/>
<polygon fill="black" stroke="black" stroke-width="2.02" points="164.25,-901.09 155.82,-907.51 166.42,-907.74 164.25,-901.09"/>
<text text-anchor="middle" x="319.65" y="-840.85" font-family="Times,serif" font-size="14.00">gravel*164208</text>
</g>
<!-- 1,8 (A copper mine, Salt) -->
<g id="node4" class="node">
<title>1,8 (A copper mine, Salt)</title>
<ellipse fill="none" stroke="black" cx="426.24" cy="-483.54" rx="126.18" ry="18"/>
<text text-anchor="middle" x="426.24" y="-479.84" font-family="Times,serif" font-size="14.00">1,8 (A copper mine, Salt)</text>
</g>
<!-- 0,0 (LE BUS)&#45;&gt;1,8 (A copper mine, Salt) -->
<g id="edge3" class="edge">
<title>0,0 (LE BUS)&#45;&gt;1,8 (A copper mine, Salt)</title>
<path fill="none" stroke="black" stroke-width="4.31" d="M610.83,-737.61C576.85,-690.85 485.08,-564.54 445.19,-509.63"/>
<polygon fill="black" stroke="black" stroke-width="4.31" points="448.18,-507.33 439.25,-501.45 442.08,-511.76 448.18,-507.33"/>
<text text-anchor="middle" x="475.01" y="-627.42" font-family="Times,serif" font-size="14.00">gravel*349778</text>
</g>
<!-- &#45;6,&#45;1 (item=agar Agar) -->
<g id="node10" class="node">
<title>&#45;6,&#45;1 (item=agar Agar)</title>
<ellipse fill="none" stroke="black" cx="685.94" cy="-18" rx="115.88" ry="18"/>
<text text-anchor="middle" x="685.94" y="-14.3" font-family="Times,serif" font-size="14.00">&#45;6,&#45;1 (item=agar Agar)</text>
</g>
<!-- 0,0 (LE BUS)&#45;&gt;&#45;6,&#45;1 (item=agar Agar) -->
<g id="edge12" class="edge">
<title>0,0 (LE BUS)&#45;&gt;&#45;6,&#45;1 (item=agar Agar)</title>
<path fill="none" stroke="black" stroke-width="0.03" d="M625.33,-737.22C633.65,-638.5 673.31,-167.87 683.53,-46.57"/>
<polygon fill="black" stroke="black" stroke-width="0.03" points="687.05,-46.51 684.4,-36.25 680.07,-45.92 687.05,-46.51"/>
<text text-anchor="middle" x="610.43" y="-395.7" font-family="Times,serif" font-size="14.00">gravel*2304</text>
</g>
<!-- 3,9 (Copper, molten &amp; plate) -->
<g id="node3" class="node">
<title>3,9 (Copper, molten &amp; plate)</title>
<ellipse fill="none" stroke="black" cx="426.24" cy="-1027.36" rx="143.77" ry="18"/>
<text text-anchor="middle" x="426.24" y="-1023.66" font-family="Times,serif" font-size="14.00">3,9 (Copper, molten &amp; plate)</text>
</g>
<!-- 3,9 (Copper, molten &amp; plate)&#45;&gt;0,0 (LE BUS) -->
<g id="edge2" class="edge">
<title>3,9 (Copper, molten &amp; plate)&#45;&gt;0,0 (LE BUS)</title>
<path fill="none" stroke="black" stroke-width="1.29" d="M439.51,-1009.1C473.75,-961.97 565.19,-836.11 604.92,-781.42"/>
<polygon fill="black" stroke="black" stroke-width="1.29" points="607.79,-783.43 610.84,-773.28 602.13,-779.31 607.79,-783.43"/>
<text text-anchor="middle" x="469.21" y="-899.06" font-family="Times,serif" font-size="14.00">gravel*105061</text>
</g>
<!-- 3,9 (Copper, molten &amp; plate)&#45;&gt;2,0 (Sodium Sulfate) -->
<g id="edge9" class="edge">
<title>3,9 (Copper, molten &amp; plate)&#45;&gt;2,0 (Sodium Sulfate)</title>
<path fill="none" stroke="black" stroke-width="0.37" d="M374.53,-1010.56C317.37,-991.99 225.48,-962.13 165.56,-942.66"/>
<polygon fill="black" stroke="black" stroke-width="0.37" points="166.46,-939.27 155.86,-939.51 164.29,-945.93 166.46,-939.27"/>
<text text-anchor="middle" x="221.54" y="-980.41" font-family="Times,serif" font-size="14.00">gravel*30166</text>
</g>
<!-- 3,9 (Copper, molten &amp; plate)&#45;&gt;1,8 (A copper mine, Salt) -->
<g id="edge11" class="edge">
<title>3,9 (Copper, molten &amp; plate)&#45;&gt;1,8 (A copper mine, Salt)</title>
<path fill="none" stroke="black" stroke-width="0.37" d="M426.24,-1009.27C426.24,-929.59 426.24,-609.62 426.24,-511.98"/>
<polygon fill="black" stroke="black" stroke-width="0.37" points="429.74,-511.71 426.24,-501.71 422.74,-511.71 429.74,-511.71"/>
<text text-anchor="middle" x="377.74" y="-764.42" font-family="Times,serif" font-size="14.00">gravel*30304</text>
</g>
<!-- &#45;6,&#45;3 (Chromite Sand) -->
<g id="node5" class="node">
<title>&#45;6,&#45;3 (Chromite Sand)</title>
<ellipse fill="none" stroke="black" cx="926.62" cy="-191.2" rx="110.48" ry="18"/>
<text text-anchor="middle" x="926.62" y="-187.5" font-family="Times,serif" font-size="14.00">&#45;6,&#45;3 (Chromite Sand)</text>
</g>
<!-- &#45;6,&#45;3 (Chromite Sand)&#45;&gt;0,0 (LE BUS) -->
<g id="edge4" class="edge">
<title>&#45;6,&#45;3 (Chromite Sand)&#45;&gt;0,0 (LE BUS)</title>
<path fill="none" stroke="black" stroke-width="0.04" d="M916.88,-209.34C872.75,-291.58 691.26,-629.75 638.34,-728.35"/>
<polygon fill="black" stroke="black" stroke-width="0.04" points="635.13,-726.92 633.49,-737.39 641.3,-730.23 635.13,-726.92"/>
<text text-anchor="middle" x="733.61" y="-472.64" font-family="Times,serif" font-size="14.00">gravel*3005</text>
</g>
<!-- &#45;6,7 (Iron ore dust) -->
<g id="node6" class="node">
<title>&#45;6,7 (Iron ore dust)</title>
<ellipse fill="none" stroke="black" cx="106.59" cy="-587.4" rx="98.58" ry="18"/>
<text text-anchor="middle" x="106.59" y="-583.7" font-family="Times,serif" font-size="14.00">&#45;6,7 (Iron ore dust)</text>
</g>
<!-- &#45;6,7 (Iron ore dust)&#45;&gt;0,0 (LE BUS) -->
<g id="edge5" class="edge">
<title>&#45;6,7 (Iron ore dust)&#45;&gt;0,0 (LE BUS)</title>
<path fill="none" stroke="black" stroke-width="2.39" d="M155.25,-603.21C252.23,-634.72 468.95,-705.14 570,-737.97"/>
<polygon fill="black" stroke="black" stroke-width="2.39" points="569.11,-741.36 579.7,-741.13 571.27,-734.71 569.11,-741.36"/>
<text text-anchor="middle" x="309.62" y="-674.39" font-family="Times,serif" font-size="14.00">gravel*194352</text>
</g>
<!-- &#45;6,7 (Iron ore dust)&#45;&gt;1,8 (A copper mine, Salt) -->
<g id="edge8" class="edge">
<title>&#45;6,7 (Iron ore dust)&#45;&gt;1,8 (A copper mine, Salt)</title>
<path fill="none" stroke="black" stroke-width="0.19" d="M155.14,-571.63C211.59,-553.29 304.8,-523 365.87,-503.16"/>
<polygon fill="black" stroke="black" stroke-width="0.19" points="366.95,-506.49 375.38,-500.07 364.79,-499.83 366.95,-506.49"/>
<text text-anchor="middle" x="212" y="-541.2" font-family="Times,serif" font-size="14.00">gravel*15072</text>
</g>
<!-- 8,1 (Molten Copper) -->
<g id="node7" class="node">
<title>8,1 (Molten Copper)</title>
<ellipse fill="none" stroke="black" cx="1085.09" cy="-428.86" rx="104.78" ry="18"/>
<text text-anchor="middle" x="1085.09" y="-425.16" font-family="Times,serif" font-size="14.00">8,1 (Molten Copper)</text>
</g>
<!-- 8,1 (Molten Copper)&#45;&gt;0,0 (LE BUS) -->
<g id="edge6" class="edge">
<title>8,1 (Molten Copper)&#45;&gt;0,0 (LE BUS)</title>
<path fill="none" stroke="black" stroke-width="0.55" d="M1060.29,-446.42C982.5,-501.49 743.33,-670.82 656.08,-732.6"/>
<polygon fill="black" stroke="black" stroke-width="0.55" points="654.02,-729.77 647.88,-738.4 658.06,-735.48 654.02,-729.77"/>
<text text-anchor="middle" x="809.69" y="-593.31" font-family="Times,serif" font-size="14.00">gravel*45056</text>
</g>
<!-- 1,&#45;1 (fluid=molten&#45;glass Glass, When space, make quartz separate with regular priority, Quartz) -->
<g id="node8" class="node">
<title>1,&#45;1 (fluid=molten&#45;glass Glass, When space, make quartz separate with regular priority, Quartz)</title>
<ellipse fill="none" stroke="black" cx="1099.44" cy="-1047.03" rx="457.62" ry="18"/>
<text text-anchor="middle" x="1099.44" y="-1043.33" font-family="Times,serif" font-size="14.00">1,&#45;1 (fluid=molten&#45;glass Glass, When space, make quartz separate with regular priority, Quartz)</text>
</g>
<!-- 1,&#45;1 (fluid=molten&#45;glass Glass, When space, make quartz separate with regular priority, Quartz)&#45;&gt;0,0 (LE BUS) -->
<g id="edge7" class="edge">
<title>1,&#45;1 (fluid=molten&#45;glass Glass, When space, make quartz separate with regular priority, Quartz)&#45;&gt;0,0 (LE BUS)</title>
<path fill="none" stroke="black" stroke-width="0.07" d="M1070.04,-1029.01C986.93,-978.06 750.41,-833.07 659.76,-777.5"/>
<polygon fill="black" stroke="black" stroke-width="0.07" points="661.55,-774.5 651.2,-772.25 657.89,-780.46 661.55,-774.5"/>
<text text-anchor="middle" x="820.9" y="-907.06" font-family="Times,serif" font-size="14.00">gravel*6012</text>
</g>
<!-- 1,10 (Iron Ore Dust) -->
<g id="node9" class="node">
<title>1,10 (Iron Ore Dust)</title>
<ellipse fill="none" stroke="black" cx="675.92" cy="-1497.55" rx="104.78" ry="18"/>
<text text-anchor="middle" x="675.92" y="-1493.85" font-family="Times,serif" font-size="14.00">1,10 (Iron Ore Dust)</text>
</g>
<!-- 1,10 (Iron Ore Dust)&#45;&gt;0,0 (LE BUS) -->
<g id="edge10" class="edge">
<title>1,10 (Iron Ore Dust)&#45;&gt;0,0 (LE BUS)</title>
<path fill="none" stroke="black" stroke-width="0.36" d="M674.63,-1479.21C667.64,-1379.76 634.31,-905.23 625.78,-783.8"/>
<polygon fill="black" stroke="black" stroke-width="0.36" points="629.25,-783.22 625.06,-773.49 622.27,-783.71 629.25,-783.22"/>
<text text-anchor="middle" x="601.71" y="-1135.31" font-family="Times,serif" font-size="14.00">gravel*29012</text>
</g>
</g>
</svg>
