<?xml version="1.0" encoding="UTF-8" standalone="no"?>
<!DOCTYPE svg PUBLIC "-//W3C//DTD SVG 1.1//EN"
 "http://www.w3.org/Graphics/SVG/1.1/DTD/svg11.dtd">
<!-- Generated by graphviz version 2.43.0 (0)
 -->
<!-- Title: %3 Pages: 1 -->
<svg width="1435pt" height="1084pt"
 viewBox="0.00 0.00 1435.26 1083.67" xmlns="http://www.w3.org/2000/svg" xmlns:xlink="http://www.w3.org/1999/xlink">
<g id="graph0" class="graph" transform="scale(1 1) rotate(0) translate(4 1079.67)">
<title>%3</title>
<polygon fill="white" stroke="transparent" points="-4,4 -4,-1079.67 1431.26,-1079.67 1431.26,4 -4,4"/>
<!-- 2,10 (Nickel plate and Nichrome) -->
<g id="node1" class="node">
<title>2,10 (Nickel plate and Nichrome)</title>
<ellipse fill="none" stroke="black" cx="795.66" cy="-500.44" rx="165.17" ry="18"/>
<text text-anchor="middle" x="795.66" y="-496.74" font-family="Times,serif" font-size="14.00">2,10 (Nickel plate and Nichrome)</text>
</g>
<!-- 4,&#45;1 (Fluid) -->
<g id="node2" class="node">
<title>4,&#45;1 (Fluid)</title>
<ellipse fill="none" stroke="black" cx="1365.51" cy="-500.44" rx="61.99" ry="18"/>
<text text-anchor="middle" x="1365.51" y="-496.74" font-family="Times,serif" font-size="14.00">4,&#45;1 (Fluid)</text>
</g>
<!-- 2,10 (Nickel plate and Nichrome)&#45;&gt;4,&#45;1 (Fluid) -->
<g id="edge1" class="edge">
<title>2,10 (Nickel plate and Nichrome)&#45;&gt;4,&#45;1 (Fluid)</title>
<path fill="none" stroke="black" stroke-width="2.42" d="M960.87,-500.44C1070.98,-500.44 1210.24,-500.44 1293.36,-500.44"/>
<polygon fill="black" stroke="black" stroke-width="2.42" points="1293.47,-503.94 1303.47,-500.44 1293.47,-496.94 1293.47,-503.94"/>
<text text-anchor="middle" x="1067.62" y="-504.24" font-family="Times,serif" font-size="14.00">nichrome*29360</text>
</g>
<!-- 0,0 (LE BUS) -->
<g id="node3" class="node">
<title>0,0 (LE BUS)</title>
<ellipse fill="none" stroke="black" cx="1246.04" cy="-849.56" rx="71.49" ry="18"/>
<text text-anchor="middle" x="1246.04" y="-845.86" font-family="Times,serif" font-size="14.00">0,0 (LE BUS)</text>
</g>
<!-- 2,10 (Nickel plate and Nichrome)&#45;&gt;0,0 (LE BUS) -->
<g id="edge2" class="edge">
<title>2,10 (Nickel plate and Nichrome)&#45;&gt;0,0 (LE BUS)</title>
<path fill="none" stroke="black" stroke-width="0.17" d="M818.92,-518.47C894.23,-576.85 1131.34,-760.65 1215.8,-826.12"/>
<polygon fill="black" stroke="black" stroke-width="0.17" points="1213.67,-828.9 1223.72,-832.26 1217.96,-823.36 1213.67,-828.9"/>
<text text-anchor="middle" x="962.36" y="-676.1" font-family="Times,serif" font-size="14.00">nichrome*2080</text>
</g>
<!-- 8,3 (Nylon mk2) -->
<g id="node4" class="node">
<title>8,3 (Nylon mk2)</title>
<ellipse fill="none" stroke="black" cx="914.95" cy="-1057.67" rx="85.29" ry="18"/>
<text text-anchor="middle" x="914.95" y="-1053.97" font-family="Times,serif" font-size="14.00">8,3 (Nylon mk2)</text>
</g>
<!-- 2,10 (Nickel plate and Nichrome)&#45;&gt;8,3 (Nylon mk2) -->
<g id="edge3" class="edge">
<title>2,10 (Nickel plate and Nichrome)&#45;&gt;8,3 (Nylon mk2)</title>
<path fill="none" stroke="black" stroke-width="1.65" d="M799.56,-518.66C816.99,-600.1 887.84,-931.03 908.98,-1029.74"/>
<polygon fill="black" stroke="black" stroke-width="1.65" points="905.57,-1030.54 911.08,-1039.58 912.41,-1029.07 905.57,-1030.54"/>
<text text-anchor="middle" x="794.77" y="-778" font-family="Times,serif" font-size="14.00">nichrome*20000</text>
</g>
<!-- &#45;6,&#45;8 (Convenient tin ore , fluid=z3&#45;reagent Help, how do I make Z3?) -->
<g id="node5" class="node">
<title>&#45;6,&#45;8 (Convenient tin ore , fluid=z3&#45;reagent Help, how do I make Z3?)</title>
<ellipse fill="none" stroke="black" cx="332.77" cy="-832.81" rx="332.54" ry="18"/>
<text text-anchor="middle" x="332.77" y="-829.11" font-family="Times,serif" font-size="14.00">&#45;6,&#45;8 (Convenient tin ore , fluid=z3&#45;reagent Help, how do I make Z3?)</text>
</g>
<!-- 2,10 (Nickel plate and Nichrome)&#45;&gt;&#45;6,&#45;8 (Convenient tin ore , fluid=z3&#45;reagent Help, how do I make Z3?) -->
<g id="edge4" class="edge">
<title>2,10 (Nickel plate and Nichrome)&#45;&gt;&#45;6,&#45;8 (Convenient tin ore , fluid=z3&#45;reagent Help, how do I make Z3?)</title>
<path fill="none" stroke="black" stroke-width="0.34" d="M770.77,-518.31C692.99,-574.16 454.4,-745.48 366.09,-808.89"/>
<polygon fill="black" stroke="black" stroke-width="0.34" points="363.86,-806.18 357.78,-814.85 367.94,-811.86 363.86,-806.18"/>
<text text-anchor="middle" x="513.43" y="-667.4" font-family="Times,serif" font-size="14.00">nichrome*4160</text>
</g>
<!-- 3,3 (Random electronic components, Small Parts) -->
<g id="node6" class="node">
<title>3,3 (Random electronic components, Small Parts)</title>
<ellipse fill="none" stroke="black" cx="402.26" cy="-88.16" rx="240.46" ry="18"/>
<text text-anchor="middle" x="402.26" y="-84.46" font-family="Times,serif" font-size="14.00">3,3 (Random electronic components, Small Parts)</text>
</g>
<!-- 2,10 (Nickel plate and Nichrome)&#45;&gt;3,3 (Random electronic components, Small Parts) -->
<g id="edge5" class="edge">
<title>2,10 (Nickel plate and Nichrome)&#45;&gt;3,3 (Random electronic components, Small Parts)</title>
<path fill="none" stroke="black" stroke-width="1.08" d="M778.5,-482.46C715.88,-416.83 499.48,-190.05 426.5,-113.57"/>
<polygon fill="black" stroke="black" stroke-width="1.08" points="428.94,-111.05 419.5,-106.24 423.88,-115.89 428.94,-111.05"/>
<text text-anchor="middle" x="543" y="-301.81" font-family="Times,serif" font-size="14.00">nichrome*13040</text>
</g>
<!-- 4,4 (Hydrogen Chloride, item=nylon Nylon/Nylon parts) -->
<g id="node7" class="node">
<title>4,4 (Hydrogen Chloride, item=nylon Nylon/Nylon parts)</title>
<ellipse fill="none" stroke="black" cx="1098.95" cy="-18" rx="271.05" ry="18"/>
<text text-anchor="middle" x="1098.95" y="-14.3" font-family="Times,serif" font-size="14.00">4,4 (Hydrogen Chloride, item=nylon Nylon/Nylon parts)</text>
</g>
<!-- 2,10 (Nickel plate and Nichrome)&#45;&gt;4,4 (Hydrogen Chloride, item=nylon Nylon/Nylon parts) -->
<g id="edge6" class="edge">
<title>2,10 (Nickel plate and Nichrome)&#45;&gt;4,4 (Hydrogen Chloride, item=nylon Nylon/Nylon parts)</title>
<path fill="none" stroke="black" stroke-width="0.34" d="M806.99,-482.41C853.16,-408.97 1027.17,-132.18 1082.18,-44.68"/>
<polygon fill="black" stroke="black" stroke-width="0.34" points="1085.2,-46.45 1087.56,-36.12 1079.27,-42.73 1085.2,-46.45"/>
<text text-anchor="middle" x="889.59" y="-267.34" font-family="Times,serif" font-size="14.00">nichrome*4080</text>
</g>
</g>
</svg>
