<?xml version="1.0" encoding="UTF-8" standalone="no"?>
<!DOCTYPE svg PUBLIC "-//W3C//DTD SVG 1.1//EN"
 "http://www.w3.org/Graphics/SVG/1.1/DTD/svg11.dtd">
<!-- Generated by graphviz version 2.43.0 (0)
 -->
<!-- Title: %3 Pages: 1 -->
<svg width="670pt" height="44pt"
 viewBox="0.00 0.00 670.00 44.00" xmlns="http://www.w3.org/2000/svg" xmlns:xlink="http://www.w3.org/1999/xlink">
<g id="graph0" class="graph" transform="scale(1 1) rotate(0) translate(4 40)">
<title>%3</title>
<polygon fill="white" stroke="transparent" points="-4,4 -4,-40 666,-40 666,4 -4,4"/>
<!-- 4,&#45;1 (Fluid) -->
<g id="node1" class="node">
<title>4,&#45;1 (Fluid)</title>
<ellipse fill="none" stroke="black" cx="332.63" cy="-18" rx="61.99" ry="18"/>
<text text-anchor="middle" x="332.63" y="-14.3" font-family="Times,serif" font-size="14.00">4,&#45;1 (Fluid)</text>
</g>
<!-- &#45;5,2 (Optical fiber) -->
<g id="node2" class="node">
<title>&#45;5,2 (Optical fiber)</title>
<ellipse fill="none" stroke="black" cx="565.81" cy="-18" rx="96.38" ry="18"/>
<text text-anchor="middle" x="565.81" y="-14.3" font-family="Times,serif" font-size="14.00">&#45;5,2 (Optical fiber)</text>
</g>
<!-- 4,&#45;1 (Fluid)&#45;&gt;&#45;5,2 (Optical fiber) -->
<g id="edge1" class="edge">
<title>4,&#45;1 (Fluid)&#45;&gt;&#45;5,2 (Optical fiber)</title>
<path fill="none" stroke="black" stroke-width="1.02" d="M394.5,-18C414.4,-18 437.03,-18 459.19,-18"/>
<polygon fill="black" stroke="black" stroke-width="1.02" points="459.32,-21.5 469.32,-18 459.32,-14.5 459.32,-21.5"/>
<text text-anchor="middle" x="426.85" y="-6.8" font-family="Times,serif" font-size="14.00">tpa&#45;barrel*1040</text>
</g>
<!-- &#45;1,&#45;2 (Aramid fiber) -->
<g id="node3" class="node">
<title>&#45;1,&#45;2 (Aramid fiber)</title>
<ellipse fill="none" stroke="black" cx="99.44" cy="-18" rx="99.38" ry="18"/>
<text text-anchor="middle" x="99.44" y="-14.3" font-family="Times,serif" font-size="14.00">&#45;1,&#45;2 (Aramid fiber)</text>
</g>
<!-- 4,&#45;1 (Fluid)&#45;&gt;&#45;1,&#45;2 (Aramid fiber) -->
<g id="edge2" class="edge">
<title>4,&#45;1 (Fluid)&#45;&gt;&#45;1,&#45;2 (Aramid fiber)</title>
<path fill="none" stroke="black" stroke-width="0.98" d="M270.75,-18C251.76,-18 230.27,-18 209.09,-18"/>
<polygon fill="black" stroke="black" stroke-width="0.98" points="209.06,-14.5 199.06,-18 209.06,-21.5 209.06,-14.5"/>
<text text-anchor="middle" x="211.17" y="-6.8" font-family="Times,serif" font-size="14.00">tpa&#45;barrel*1000</text>
</g>
</g>
</svg>
