<?xml version="1.0" encoding="UTF-8" standalone="no"?>
<!DOCTYPE svg PUBLIC "-//W3C//DTD SVG 1.1//EN"
 "http://www.w3.org/Graphics/SVG/1.1/DTD/svg11.dtd">
<!-- Generated by graphviz version 2.43.0 (0)
 -->
<!-- Title: %3 Pages: 1 -->
<svg width="475pt" height="434pt"
 viewBox="0.00 0.00 474.74 434.04" xmlns="http://www.w3.org/2000/svg" xmlns:xlink="http://www.w3.org/1999/xlink">
<g id="graph0" class="graph" transform="scale(1 1) rotate(0) translate(4 430.04)">
<title>%3</title>
<polygon fill="white" stroke="transparent" points="-4,4 -4,-430.04 470.74,-430.04 470.74,4 -4,4"/>
<!-- 0,0 (LE BUS) -->
<g id="node1" class="node">
<title>0,0 (LE BUS)</title>
<ellipse fill="none" stroke="black" cx="203.01" cy="-203.28" rx="71.49" ry="18"/>
<text text-anchor="middle" x="203.01" y="-199.58" font-family="Times,serif" font-size="14.00">0,0 (LE BUS)</text>
</g>
<!-- &#45;7,&#45;5 () -->
<g id="node2" class="node">
<title>&#45;7,&#45;5 ()</title>
<ellipse fill="none" stroke="black" cx="425.8" cy="-203.28" rx="40.89" ry="18"/>
<text text-anchor="middle" x="425.8" y="-199.58" font-family="Times,serif" font-size="14.00">&#45;7,&#45;5 ()</text>
</g>
<!-- 0,0 (LE BUS)&#45;&gt;&#45;7,&#45;5 () -->
<g id="edge1" class="edge">
<title>0,0 (LE BUS)&#45;&gt;&#45;7,&#45;5 ()</title>
<path fill="none" stroke="black" stroke-width="0.93" d="M274.73,-203.28C307.27,-203.28 345.01,-203.28 374.63,-203.28"/>
<polygon fill="black" stroke="black" stroke-width="0.93" points="374.75,-206.78 384.75,-203.28 374.75,-199.78 374.75,-206.78"/>
<text text-anchor="middle" x="353.68" y="-207.08" font-family="Times,serif" font-size="14.00">rail*112</text>
</g>
<!-- 9,&#45;2 () -->
<g id="node3" class="node">
<title>9,&#45;2 ()</title>
<ellipse fill="none" stroke="black" cx="115.24" cy="-408.04" rx="38.19" ry="18"/>
<text text-anchor="middle" x="115.24" y="-404.34" font-family="Times,serif" font-size="14.00">9,&#45;2 ()</text>
</g>
<!-- 0,0 (LE BUS)&#45;&gt;9,&#45;2 () -->
<g id="edge2" class="edge">
<title>0,0 (LE BUS)&#45;&gt;9,&#45;2 ()</title>
<path fill="none" stroke="black" stroke-width="0.87" d="M195.22,-221.45C179.76,-257.51 145.13,-338.31 126.93,-380.77"/>
<polygon fill="black" stroke="black" stroke-width="0.87" points="123.61,-379.64 122.88,-390.21 130.04,-382.39 123.61,-379.64"/>
<text text-anchor="middle" x="132.07" y="-304.91" font-family="Times,serif" font-size="14.00">rail*104</text>
</g>
<!-- 6,&#45;3 (Mine Me) -->
<g id="node4" class="node">
<title>6,&#45;3 (Mine Me)</title>
<ellipse fill="none" stroke="black" cx="79.29" cy="-18" rx="79.09" ry="18"/>
<text text-anchor="middle" x="79.29" y="-14.3" font-family="Times,serif" font-size="14.00">6,&#45;3 (Mine Me)</text>
</g>
<!-- 0,0 (LE BUS)&#45;&gt;6,&#45;3 (Mine Me) -->
<g id="edge3" class="edge">
<title>0,0 (LE BUS)&#45;&gt;6,&#45;3 (Mine Me)</title>
<path fill="none" stroke="black" stroke-width="1.2" d="M191.15,-185.51C169.31,-152.81 122.65,-82.93 97.03,-44.57"/>
<polygon fill="black" stroke="black" stroke-width="1.2" points="99.77,-42.36 91.3,-35.98 93.94,-46.24 99.77,-42.36"/>
<text text-anchor="middle" x="115.09" y="-118.84" font-family="Times,serif" font-size="14.00">rail*144</text>
</g>
</g>
</svg>
