<?xml version="1.0" encoding="UTF-8" standalone="no"?>
<!DOCTYPE svg PUBLIC "-//W3C//DTD SVG 1.1//EN"
 "http://www.w3.org/Graphics/SVG/1.1/DTD/svg11.dtd">
<!-- Generated by graphviz version 2.43.0 (0)
 -->
<!-- Title: %3 Pages: 1 -->
<svg width="541pt" height="309pt"
 viewBox="0.00 0.00 540.52 308.87" xmlns="http://www.w3.org/2000/svg" xmlns:xlink="http://www.w3.org/1999/xlink">
<g id="graph0" class="graph" transform="scale(1 1) rotate(0) translate(4 304.87)">
<title>%3</title>
<polygon fill="white" stroke="transparent" points="-4,4 -4,-304.87 536.52,-304.87 536.52,4 -4,4"/>
<!-- 2,0 (Sodium Sulfate) -->
<g id="node1" class="node">
<title>2,0 (Sodium Sulfate)</title>
<ellipse fill="none" stroke="black" cx="179" cy="-18" rx="106.68" ry="18"/>
<text text-anchor="middle" x="179" y="-14.3" font-family="Times,serif" font-size="14.00">2,0 (Sodium Sulfate)</text>
</g>
<!-- 0,0 (LE BUS) -->
<g id="node2" class="node">
<title>0,0 (LE BUS)</title>
<ellipse fill="none" stroke="black" cx="179" cy="-282.87" rx="71.49" ry="18"/>
<text text-anchor="middle" x="179" y="-279.17" font-family="Times,serif" font-size="14.00">0,0 (LE BUS)</text>
</g>
<!-- 2,0 (Sodium Sulfate)&#45;&gt;0,0 (LE BUS) -->
<g id="edge1" class="edge">
<title>2,0 (Sodium Sulfate)&#45;&gt;0,0 (LE BUS)</title>
<path fill="none" stroke="black" stroke-width="0.27" d="M179,-36.21C179,-81.57 179,-199.9 179,-254.5"/>
<polygon fill="black" stroke="black" stroke-width="0.27" points="175.5,-254.53 179,-264.53 182.5,-254.53 175.5,-254.53"/>
<text text-anchor="middle" x="89.5" y="-149.15" font-family="Times,serif" font-size="14.00">sulfuric&#45;acid&#45;barrel*6431</text>
</g>
<!-- &#45;2,5 (Rare Earth Oxides) -->
<g id="node3" class="node">
<title>&#45;2,5 (Rare Earth Oxides)</title>
<ellipse fill="none" stroke="black" cx="408.38" cy="-150.43" rx="124.28" ry="18"/>
<text text-anchor="middle" x="408.38" y="-146.73" font-family="Times,serif" font-size="14.00">&#45;2,5 (Rare Earth Oxides)</text>
</g>
<!-- 2,0 (Sodium Sulfate)&#45;&gt;&#45;2,5 (Rare Earth Oxides) -->
<g id="edge2" class="edge">
<title>2,0 (Sodium Sulfate)&#45;&gt;&#45;2,5 (Rare Earth Oxides)</title>
<path fill="none" stroke="black" stroke-width="1.99" d="M208.99,-35.31C250.09,-59.04 323.97,-101.7 369.35,-127.9"/>
<polygon fill="black" stroke="black" stroke-width="1.99" points="367.61,-130.94 378.02,-132.91 371.11,-124.87 367.61,-130.94"/>
<text text-anchor="middle" x="195.17" y="-85.4" font-family="Times,serif" font-size="14.00">sulfuric&#45;acid&#45;barrel*47405</text>
</g>
<!-- 0,0 (LE BUS)&#45;&gt;&#45;2,5 (Rare Earth Oxides) -->
<g id="edge3" class="edge">
<title>0,0 (LE BUS)&#45;&gt;&#45;2,5 (Rare Earth Oxides)</title>
<path fill="none" stroke="black" stroke-width="0.74" d="M207.59,-266.36C248.35,-242.83 323.29,-199.56 369.2,-173.06"/>
<polygon fill="black" stroke="black" stroke-width="0.74" points="371.06,-176.02 377.97,-167.99 367.56,-169.96 371.06,-176.02"/>
<text text-anchor="middle" x="194.39" y="-223.51" font-family="Times,serif" font-size="14.00">sulfuric&#45;acid&#45;barrel*17606</text>
</g>
</g>
</svg>
