<?xml version="1.0" encoding="UTF-8" standalone="no"?>
<!DOCTYPE svg PUBLIC "-//W3C//DTD SVG 1.1//EN"
 "http://www.w3.org/Graphics/SVG/1.1/DTD/svg11.dtd">
<!-- Generated by graphviz version 2.43.0 (0)
 -->
<!-- Title: %3 Pages: 1 -->
<svg width="851pt" height="657pt"
 viewBox="0.00 0.00 850.97 657.39" xmlns="http://www.w3.org/2000/svg" xmlns:xlink="http://www.w3.org/1999/xlink">
<g id="graph0" class="graph" transform="scale(1 1) rotate(0) translate(4 653.39)">
<title>%3</title>
<polygon fill="white" stroke="transparent" points="-4,4 -4,-653.39 846.97,-653.39 846.97,4 -4,4"/>
<!-- 9,0 (Iron / Nickel mine) -->
<g id="node1" class="node">
<title>9,0 (Iron / Nickel mine)</title>
<ellipse fill="none" stroke="black" cx="379.06" cy="-347.66" rx="118.08" ry="18"/>
<text text-anchor="middle" x="379.06" y="-343.96" font-family="Times,serif" font-size="14.00">9,0 (Iron / Nickel mine)</text>
</g>
<!-- 4,11 (Cobalt Extract) -->
<g id="node2" class="node">
<title>4,11 (Cobalt Extract)</title>
<ellipse fill="none" stroke="black" cx="734.43" cy="-347.66" rx="108.58" ry="18"/>
<text text-anchor="middle" x="734.43" y="-343.96" font-family="Times,serif" font-size="14.00">4,11 (Cobalt Extract)</text>
</g>
<!-- 9,0 (Iron / Nickel mine)&#45;&gt;4,11 (Cobalt Extract) -->
<g id="edge1" class="edge">
<title>9,0 (Iron / Nickel mine)&#45;&gt;4,11 (Cobalt Extract)</title>
<path fill="none" stroke="black" stroke-width="1.96" d="M497.39,-347.66C535.39,-347.66 577.48,-347.66 615.51,-347.66"/>
<polygon fill="black" stroke="black" stroke-width="1.96" points="615.61,-351.16 625.61,-347.66 615.61,-344.16 615.61,-351.16"/>
<text text-anchor="middle" x="556.45" y="-336.46" font-family="Times,serif" font-size="14.00">ore&#45;nickel*27000</text>
</g>
<!-- 2,10 (Nickel plate and Nichrome) -->
<g id="node3" class="node">
<title>2,10 (Nickel plate and Nichrome)</title>
<ellipse fill="none" stroke="black" cx="165.09" cy="-631.39" rx="165.17" ry="18"/>
<text text-anchor="middle" x="165.09" y="-627.69" font-family="Times,serif" font-size="14.00">2,10 (Nickel plate and Nichrome)</text>
</g>
<!-- 9,0 (Iron / Nickel mine)&#45;&gt;2,10 (Nickel plate and Nichrome) -->
<g id="edge2" class="edge">
<title>9,0 (Iron / Nickel mine)&#45;&gt;2,10 (Nickel plate and Nichrome)</title>
<path fill="none" stroke="black" stroke-width="0.73" d="M365.35,-365.84C328.59,-414.58 227.71,-548.34 184.81,-605.23"/>
<polygon fill="black" stroke="black" stroke-width="0.73" points="181.91,-603.27 178.68,-613.37 187.5,-607.49 181.91,-603.27"/>
<text text-anchor="middle" x="214.08" y="-489.34" font-family="Times,serif" font-size="14.00">ore&#45;nickel*10080</text>
</g>
<!-- 0,0 (LE BUS) -->
<g id="node4" class="node">
<title>0,0 (LE BUS)</title>
<ellipse fill="none" stroke="black" cx="246.33" cy="-18" rx="71.49" ry="18"/>
<text text-anchor="middle" x="246.33" y="-14.3" font-family="Times,serif" font-size="14.00">0,0 (LE BUS)</text>
</g>
<!-- 9,0 (Iron / Nickel mine)&#45;&gt;0,0 (LE BUS) -->
<g id="edge3" class="edge">
<title>9,0 (Iron / Nickel mine)&#45;&gt;0,0 (LE BUS)</title>
<path fill="none" stroke="black" stroke-width="0.31" d="M371.73,-329.46C349.71,-274.75 283.96,-111.48 257.52,-45.81"/>
<polygon fill="black" stroke="black" stroke-width="0.31" points="260.61,-44.11 253.63,-36.14 254.12,-46.72 260.61,-44.11"/>
<text text-anchor="middle" x="258.13" y="-191.44" font-family="Times,serif" font-size="14.00">ore&#45;nickel*4200</text>
</g>
</g>
</svg>
