<?xml version="1.0" encoding="UTF-8" standalone="no"?>
<!DOCTYPE svg PUBLIC "-//W3C//DTD SVG 1.1//EN"
 "http://www.w3.org/Graphics/SVG/1.1/DTD/svg11.dtd">
<!-- Generated by graphviz version 2.43.0 (0)
 -->
<!-- Title: %3 Pages: 1 -->
<svg width="2797pt" height="2558pt"
 viewBox="0.00 0.00 2797.25 2557.68" xmlns="http://www.w3.org/2000/svg" xmlns:xlink="http://www.w3.org/1999/xlink">
<g id="graph0" class="graph" transform="scale(1 1) rotate(0) translate(4 2553.68)">
<title>%3</title>
<polygon fill="white" stroke="transparent" points="-4,4 -4,-2553.68 2793.25,-2553.68 2793.25,4 -4,4"/>
<!-- 3,1 (Mining Brick) -->
<g id="node1" class="node">
<title>3,1 (Mining Brick)</title>
<ellipse fill="none" stroke="black" cx="2345.74" cy="-386.12" rx="94.78" ry="18"/>
<text text-anchor="middle" x="2345.74" y="-382.42" font-family="Times,serif" font-size="14.00">3,1 (Mining Brick)</text>
</g>
<!-- 0,0 (LE BUS) -->
<g id="node2" class="node">
<title>0,0 (LE BUS)</title>
<ellipse fill="none" stroke="black" cx="1457.02" cy="-18" rx="71.49" ry="18"/>
<text text-anchor="middle" x="1457.02" y="-14.3" font-family="Times,serif" font-size="14.00">0,0 (LE BUS)</text>
</g>
<!-- 3,1 (Mining Brick)&#45;&gt;0,0 (LE BUS) -->
<g id="edge1" class="edge">
<title>3,1 (Mining Brick)&#45;&gt;0,0 (LE BUS)</title>
<path fill="none" stroke="black" stroke-width="5.37" d="M2306.12,-369.71C2161.11,-309.64 1659.69,-101.95 1503.71,-37.34"/>
<polygon fill="black" stroke="black" stroke-width="5.37" points="1505.41,-32.95 1494.37,-33.47 1501.81,-41.64 1505.41,-32.95"/>
<text text-anchor="middle" x="1844.41" y="-207.32" font-family="Times,serif" font-size="14.00">tar&#45;barrel*29288</text>
</g>
<!-- 3,13 (Rubber) -->
<g id="node5" class="node">
<title>3,13 (Rubber)</title>
<ellipse fill="none" stroke="black" cx="2713.86" cy="-1274.84" rx="75.29" ry="18"/>
<text text-anchor="middle" x="2713.86" y="-1271.14" font-family="Times,serif" font-size="14.00">3,13 (Rubber)</text>
</g>
<!-- 3,1 (Mining Brick)&#45;&gt;3,13 (Rubber) -->
<g id="edge3" class="edge">
<title>3,1 (Mining Brick)&#45;&gt;3,13 (Rubber)</title>
<path fill="none" stroke="black" stroke-width="2.05" d="M2353.26,-404.27C2399.62,-516.19 2646.39,-1111.96 2702.5,-1247.42"/>
<polygon fill="black" stroke="black" stroke-width="2.05" points="2699.29,-1248.81 2706.35,-1256.71 2705.76,-1246.13 2699.29,-1248.81"/>
<text text-anchor="middle" x="2467.38" y="-829.65" font-family="Times,serif" font-size="14.00">tar&#45;barrel*11184</text>
</g>
<!-- &#45;3,2 (Lead and Solder) -->
<g id="node7" class="node">
<title>&#45;3,2 (Lead and Solder)</title>
<ellipse fill="none" stroke="black" cx="568.3" cy="-386.12" rx="113.98" ry="18"/>
<text text-anchor="middle" x="568.3" y="-382.42" font-family="Times,serif" font-size="14.00">&#45;3,2 (Lead and Solder)</text>
</g>
<!-- 3,1 (Mining Brick)&#45;&gt;&#45;3,2 (Lead and Solder) -->
<g id="edge8" class="edge">
<title>3,1 (Mining Brick)&#45;&gt;&#45;3,2 (Lead and Solder)</title>
<path fill="none" stroke="black" stroke-width="0.62" d="M2250.81,-386.12C1951.67,-386.12 1028.68,-386.12 692.45,-386.12"/>
<polygon fill="black" stroke="black" stroke-width="0.62" points="692.19,-382.62 682.19,-386.12 692.19,-389.62 692.19,-382.62"/>
<text text-anchor="middle" x="1415.63" y="-389.92" font-family="Times,serif" font-size="14.00">tar&#45;barrel*3368</text>
</g>
<!-- 3,6 (Phosphoric Acid and Phosphine gas) -->
<g id="node8" class="node">
<title>3,6 (Phosphoric Acid and Phosphine gas)</title>
<ellipse fill="none" stroke="black" cx="200.18" cy="-1274.84" rx="200.36" ry="18"/>
<text text-anchor="middle" x="200.18" y="-1271.14" font-family="Times,serif" font-size="14.00">3,6 (Phosphoric Acid and Phosphine gas)</text>
</g>
<!-- 3,1 (Mining Brick)&#45;&gt;3,6 (Phosphoric Acid and Phosphine gas) -->
<g id="edge5" class="edge">
<title>3,1 (Mining Brick)&#45;&gt;3,6 (Phosphoric Acid and Phosphine gas)</title>
<path fill="none" stroke="black" stroke-width="0.11" d="M2306.2,-402.5C2043.49,-511.32 551.27,-1129.41 252.32,-1253.24"/>
<polygon fill="black" stroke="black" stroke-width="0.11" points="250.91,-1250.04 243.01,-1257.1 253.59,-1256.51 250.91,-1250.04"/>
<text text-anchor="middle" x="1227.76" y="-831.67" font-family="Times,serif" font-size="14.00">tar&#45;barrel*584</text>
</g>
<!-- 0,7 (Coal Gas) -->
<g id="node9" class="node">
<title>0,7 (Coal Gas)</title>
<ellipse fill="none" stroke="black" cx="568.3" cy="-2163.56" rx="76.09" ry="18"/>
<text text-anchor="middle" x="568.3" y="-2159.86" font-family="Times,serif" font-size="14.00">0,7 (Coal Gas)</text>
</g>
<!-- 3,1 (Mining Brick)&#45;&gt;0,7 (Coal Gas) -->
<g id="edge9" class="edge">
<title>3,1 (Mining Brick)&#45;&gt;0,7 (Coal Gas)</title>
<path fill="none" stroke="black" stroke-width="2.75" d="M2327.86,-404C2155.75,-576.11 794.78,-1937.08 593.21,-2138.64"/>
<polygon fill="black" stroke="black" stroke-width="2.75" points="590.62,-2136.29 586.02,-2145.84 595.57,-2141.24 590.62,-2136.29"/>
<text text-anchor="middle" x="1400.04" y="-1275.12" font-family="Times,serif" font-size="14.00">tar&#45;barrel*15000</text>
</g>
<!-- 1,&#45;1 (fluid=molten&#45;glass Glass, When space, make quartz separate with regular priority, Quartz) -->
<g id="node10" class="node">
<title>1,&#45;1 (fluid=molten&#45;glass Glass, When space, make quartz separate with regular priority, Quartz)</title>
<ellipse fill="none" stroke="black" cx="1457.02" cy="-2531.68" rx="457.62" ry="18"/>
<text text-anchor="middle" x="1457.02" y="-2527.98" font-family="Times,serif" font-size="14.00">1,&#45;1 (fluid=molten&#45;glass Glass, When space, make quartz separate with regular priority, Quartz)</text>
</g>
<!-- 3,1 (Mining Brick)&#45;&gt;1,&#45;1 (fluid=molten&#45;glass Glass, When space, make quartz separate with regular priority, Quartz) -->
<g id="edge7" class="edge">
<title>3,1 (Mining Brick)&#45;&gt;1,&#45;1 (fluid=molten&#45;glass Glass, When space, make quartz separate with regular priority, Quartz)</title>
<path fill="none" stroke="black" stroke-width="0.75" d="M2338.19,-404.34C2258.13,-597.63 1566.25,-2267.98 1468.49,-2504"/>
<polygon fill="black" stroke="black" stroke-width="0.75" points="1465.12,-2502.98 1464.52,-2513.56 1471.58,-2505.66 1465.12,-2502.98"/>
<text text-anchor="middle" x="1847.34" y="-1457.97" font-family="Times,serif" font-size="14.00">tar&#45;barrel*4112</text>
</g>
<!-- &#45;6,7 (Iron ore dust) -->
<g id="node3" class="node">
<title>&#45;6,7 (Iron ore dust)</title>
<ellipse fill="none" stroke="black" cx="508.48" cy="-1862.84" rx="98.58" ry="18"/>
<text text-anchor="middle" x="508.48" y="-1859.14" font-family="Times,serif" font-size="14.00">&#45;6,7 (Iron ore dust)</text>
</g>
<!-- 1,12 (Molten Iron) -->
<g id="node4" class="node">
<title>1,12 (Molten Iron)</title>
<ellipse fill="none" stroke="black" cx="774.81" cy="-1862.84" rx="95.58" ry="18"/>
<text text-anchor="middle" x="774.81" y="-1859.14" font-family="Times,serif" font-size="14.00">1,12 (Molten Iron)</text>
</g>
<!-- &#45;6,7 (Iron ore dust)&#45;&gt;1,12 (Molten Iron) -->
<g id="edge2" class="edge">
<title>&#45;6,7 (Iron ore dust)&#45;&gt;1,12 (Molten Iron)</title>
<path fill="none" stroke="black" stroke-width="0.11" d="M607.27,-1862.84C627.28,-1862.84 648.4,-1862.84 668.65,-1862.84"/>
<polygon fill="black" stroke="black" stroke-width="0.11" points="668.83,-1866.34 678.83,-1862.84 668.83,-1859.34 668.83,-1866.34"/>
<text text-anchor="middle" x="663.71" y="-1851.64" font-family="Times,serif" font-size="14.00">tar&#45;barrel*576</text>
</g>
<!-- 0,8 (Tar from Coke) -->
<g id="node6" class="node">
<title>0,8 (Tar from Coke)</title>
<ellipse fill="none" stroke="black" cx="2345.74" cy="-2163.56" rx="100.98" ry="18"/>
<text text-anchor="middle" x="2345.74" y="-2159.86" font-family="Times,serif" font-size="14.00">0,8 (Tar from Coke)</text>
</g>
<!-- 0,8 (Tar from Coke)&#45;&gt;0,0 (LE BUS) -->
<g id="edge10" class="edge">
<title>0,8 (Tar from Coke)&#45;&gt;0,0 (LE BUS)</title>
<path fill="none" stroke="black" stroke-width="0.62" d="M2338.19,-2145.33C2258.13,-1952.04 1566.25,-281.7 1468.49,-45.68"/>
<polygon fill="black" stroke="black" stroke-width="0.62" points="1471.58,-44.01 1464.52,-36.12 1465.12,-46.69 1471.58,-44.01"/>
<text text-anchor="middle" x="1847.34" y="-1099.31" font-family="Times,serif" font-size="14.00">tar&#45;barrel*3392</text>
</g>
<!-- 0,8 (Tar from Coke)&#45;&gt;3,13 (Rubber) -->
<g id="edge13" class="edge">
<title>0,8 (Tar from Coke)&#45;&gt;3,13 (Rubber)</title>
<path fill="none" stroke="black" stroke-width="0.16" d="M2353.26,-2145.4C2399.62,-2033.49 2646.39,-1437.71 2702.5,-1302.25"/>
<polygon fill="black" stroke="black" stroke-width="0.16" points="2705.76,-1303.54 2706.35,-1292.97 2699.29,-1300.86 2705.76,-1303.54"/>
<text text-anchor="middle" x="2476.38" y="-1727.63" font-family="Times,serif" font-size="14.00">tar&#45;barrel*880</text>
</g>
<!-- 0,8 (Tar from Coke)&#45;&gt;&#45;3,2 (Lead and Solder) -->
<g id="edge4" class="edge">
<title>0,8 (Tar from Coke)&#45;&gt;&#45;3,2 (Lead and Solder)</title>
<path fill="none" stroke="black" stroke-width="0.08" d="M2327.86,-2145.68C2155.84,-1973.66 796.2,-614.01 593.53,-411.35"/>
<polygon fill="black" stroke="black" stroke-width="0.08" points="595.84,-408.71 586.29,-404.11 590.89,-413.66 595.84,-408.71"/>
<text text-anchor="middle" x="1512.2" y="-1282.31" font-family="Times,serif" font-size="14.00">tar&#45;barrel*432</text>
</g>
<!-- 0,8 (Tar from Coke)&#45;&gt;3,6 (Phosphoric Acid and Phosphine gas) -->
<g id="edge12" class="edge">
<title>0,8 (Tar from Coke)&#45;&gt;3,6 (Phosphoric Acid and Phosphine gas)</title>
<path fill="none" stroke="black" stroke-width="0.04" d="M2305.74,-2146.99C2041.71,-2037.62 550.92,-1420.12 252.27,-1296.41"/>
<polygon fill="black" stroke="black" stroke-width="0.04" points="253.54,-1293.15 242.96,-1292.56 250.86,-1299.62 253.54,-1293.15"/>
<text text-anchor="middle" x="1227.5" y="-1725.5" font-family="Times,serif" font-size="14.00">tar&#45;barrel*232</text>
</g>
<!-- 0,8 (Tar from Coke)&#45;&gt;0,7 (Coal Gas) -->
<g id="edge6" class="edge">
<title>0,8 (Tar from Coke)&#45;&gt;0,7 (Coal Gas)</title>
<path fill="none" stroke="black" stroke-width="0.18" d="M2244.76,-2163.56C1927.06,-2163.56 951.44,-2163.56 654.78,-2163.56"/>
<polygon fill="black" stroke="black" stroke-width="0.18" points="654.51,-2160.06 644.51,-2163.56 654.51,-2167.06 654.51,-2160.06"/>
<text text-anchor="middle" x="1393.77" y="-2167.36" font-family="Times,serif" font-size="14.00">tar&#45;barrel*1000</text>
</g>
<!-- 0,8 (Tar from Coke)&#45;&gt;1,&#45;1 (fluid=molten&#45;glass Glass, When space, make quartz separate with regular priority, Quartz) -->
<g id="edge11" class="edge">
<title>0,8 (Tar from Coke)&#45;&gt;1,&#45;1 (fluid=molten&#45;glass Glass, When space, make quartz separate with regular priority, Quartz)</title>
<path fill="none" stroke="black" stroke-width="0.15" d="M2305.83,-2180.09C2162.27,-2239.55 1672.12,-2442.58 1509.74,-2509.84"/>
<polygon fill="black" stroke="black" stroke-width="0.15" points="1508.34,-2506.63 1500.44,-2513.69 1511.01,-2513.1 1508.34,-2506.63"/>
<text text-anchor="middle" x="1856.29" y="-2348.76" font-family="Times,serif" font-size="14.00">tar&#45;barrel*816</text>
</g>
</g>
</svg>
