<?xml version="1.0" encoding="UTF-8" standalone="no"?>
<!DOCTYPE svg PUBLIC "-//W3C//DTD SVG 1.1//EN"
 "http://www.w3.org/Graphics/SVG/1.1/DTD/svg11.dtd">
<!-- Generated by graphviz version 2.43.0 (0)
 -->
<!-- Title: %3 Pages: 1 -->
<svg width="3361pt" height="2935pt"
 viewBox="0.00 0.00 3361.00 2935.13" xmlns="http://www.w3.org/2000/svg" xmlns:xlink="http://www.w3.org/1999/xlink">
<g id="graph0" class="graph" transform="scale(1 1) rotate(0) translate(4 2931.13)">
<title>%3</title>
<polygon fill="white" stroke="transparent" points="-4,4 -4,-2931.13 3357,-2931.13 3357,4 -4,4"/>
<!-- &#45;2,7 (item=borax Borax) -->
<g id="node1" class="node">
<title>&#45;2,7 (item=borax Borax)</title>
<ellipse fill="none" stroke="black" cx="2958.91" cy="-872.36" rx="123.48" ry="18"/>
<text text-anchor="middle" x="2958.91" y="-868.66" font-family="Times,serif" font-size="14.00">&#45;2,7 (item=borax Borax)</text>
</g>
<!-- 4,3 (item=nexelit&#45;plate Nexelit platery) -->
<g id="node2" class="node">
<title>4,3 (item=nexelit&#45;plate Nexelit platery)</title>
<ellipse fill="none" stroke="black" cx="904.28" cy="-2722.36" rx="194.17" ry="18"/>
<text text-anchor="middle" x="904.28" y="-2718.66" font-family="Times,serif" font-size="14.00">4,3 (item=nexelit&#45;plate Nexelit platery)</text>
</g>
<!-- &#45;2,7 (item=borax Borax)&#45;&gt;4,3 (item=nexelit&#45;plate Nexelit platery) -->
<g id="edge1" class="edge">
<title>&#45;2,7 (item=borax Borax)&#45;&gt;4,3 (item=nexelit&#45;plate Nexelit platery)</title>
<path fill="none" stroke="black" stroke-width="5.79" d="M2938.91,-890.37C2742.44,-1067.27 1160.19,-2491.94 931.73,-2697.64"/>
<polygon fill="black" stroke="black" stroke-width="5.79" points="928.22,-2693.99 924.18,-2704.44 935,-2701.51 928.22,-2693.99"/>
<text text-anchor="middle" x="1840.32" y="-1797.81" font-family="Times,serif" font-size="14.00">dirty&#45;water&#45;barrel*100800</text>
</g>
<!-- 7,&#45;1 (Aromatics, Need more Benzene? Look no further!) -->
<g id="node9" class="node">
<title>7,&#45;1 (Aromatics, Need more Benzene? Look no further!)</title>
<ellipse fill="none" stroke="black" cx="2603.65" cy="-383.38" rx="268.35" ry="18"/>
<text text-anchor="middle" x="2603.65" y="-379.68" font-family="Times,serif" font-size="14.00">7,&#45;1 (Aromatics, Need more Benzene? Look no further!)</text>
</g>
<!-- &#45;2,7 (item=borax Borax)&#45;&gt;7,&#45;1 (Aromatics, Need more Benzene? Look no further!) -->
<g id="edge11" class="edge">
<title>&#45;2,7 (item=borax Borax)&#45;&gt;7,&#45;1 (Aromatics, Need more Benzene? Look no further!)</title>
<path fill="none" stroke="black" stroke-width="2.93" d="M2945.84,-854.38C2891.93,-780.18 2686.61,-497.57 2622.73,-409.65"/>
<polygon fill="black" stroke="black" stroke-width="2.93" points="2625.54,-407.56 2616.83,-401.53 2619.88,-411.68 2625.54,-407.56"/>
<text text-anchor="middle" x="2693.79" y="-635.82" font-family="Times,serif" font-size="14.00">dirty&#45;water&#45;barrel*51063</text>
</g>
<!-- 5,2 (Raw Fiber) -->
<g id="node11" class="node">
<title>5,2 (Raw Fiber)</title>
<ellipse fill="none" stroke="black" cx="904.28" cy="-204.77" rx="83.39" ry="18"/>
<text text-anchor="middle" x="904.28" y="-201.07" font-family="Times,serif" font-size="14.00">5,2 (Raw Fiber)</text>
</g>
<!-- &#45;2,7 (item=borax Borax)&#45;&gt;5,2 (Raw Fiber) -->
<g id="edge37" class="edge">
<title>&#45;2,7 (item=borax Borax)&#45;&gt;5,2 (Raw Fiber)</title>
<path fill="none" stroke="black" stroke-width="0.23" d="M2908.12,-855.86C2626.14,-764.24 1255.1,-318.76 960.22,-222.95"/>
<polygon fill="black" stroke="black" stroke-width="0.23" points="961.19,-219.58 950.6,-219.82 959.03,-226.24 961.19,-219.58"/>
<text text-anchor="middle" x="1848.17" y="-543.2" font-family="Times,serif" font-size="14.00">dirty&#45;water&#45;barrel*4016</text>
</g>
<!-- &#45;3,7 (item=sea&#45;sponge&#45;sprouts Also Borax) -->
<g id="node14" class="node">
<title>&#45;3,7 (item=sea&#45;sponge&#45;sprouts Also Borax)</title>
<ellipse fill="none" stroke="black" cx="209.28" cy="-1161.36" rx="209.06" ry="18"/>
<text text-anchor="middle" x="209.28" y="-1157.66" font-family="Times,serif" font-size="14.00">&#45;3,7 (item=sea&#45;sponge&#45;sprouts Also Borax)</text>
</g>
<!-- &#45;2,7 (item=borax Borax)&#45;&gt;&#45;3,7 (item=sea&#45;sponge&#45;sprouts Also Borax) -->
<g id="edge28" class="edge">
<title>&#45;2,7 (item=borax Borax)&#45;&gt;&#45;3,7 (item=sea&#45;sponge&#45;sprouts Also Borax)</title>
<path fill="none" stroke="black" stroke-width="0.39" d="M2858.61,-882.9C2441.32,-926.76 841.8,-1094.88 352.4,-1146.32"/>
<polygon fill="black" stroke="black" stroke-width="0.39" points="351.68,-1142.87 342.1,-1147.4 352.41,-1149.84 351.68,-1142.87"/>
<text text-anchor="middle" x="1519.5" y="-1018.41" font-family="Times,serif" font-size="14.00">dirty&#45;water&#45;barrel*6744</text>
</g>
<!-- 1,12 (Molten Iron) -->
<g id="node3" class="node">
<title>1,12 (Molten Iron)</title>
<ellipse fill="none" stroke="black" cx="1479.11" cy="-2909.13" rx="95.58" ry="18"/>
<text text-anchor="middle" x="1479.11" y="-2905.43" font-family="Times,serif" font-size="14.00">1,12 (Molten Iron)</text>
</g>
<!-- 1,12 (Molten Iron)&#45;&gt;4,3 (item=nexelit&#45;plate Nexelit platery) -->
<g id="edge2" class="edge">
<title>1,12 (Molten Iron)&#45;&gt;4,3 (item=nexelit&#45;plate Nexelit platery)</title>
<path fill="none" stroke="black" stroke-width="5.19" d="M1431.09,-2893.53C1327.66,-2859.92 1083.81,-2780.69 967.78,-2742.99"/>
<polygon fill="black" stroke="black" stroke-width="5.19" points="968.88,-2738.57 957.96,-2739.8 966.07,-2747.21 968.88,-2738.57"/>
<text text-anchor="middle" x="1108.93" y="-2822.06" font-family="Times,serif" font-size="14.00">dirty&#45;water&#45;barrel*90352</text>
</g>
<!-- 4,10 (Fluid Recycling) -->
<g id="node5" class="node">
<title>4,10 (Fluid Recycling)</title>
<ellipse fill="none" stroke="black" cx="2603.65" cy="-2543.75" rx="112.38" ry="18"/>
<text text-anchor="middle" x="2603.65" y="-2540.05" font-family="Times,serif" font-size="14.00">4,10 (Fluid Recycling)</text>
</g>
<!-- 1,12 (Molten Iron)&#45;&gt;4,10 (Fluid Recycling) -->
<g id="edge19" class="edge">
<title>1,12 (Molten Iron)&#45;&gt;4,10 (Fluid Recycling)</title>
<path fill="none" stroke="black" stroke-width="2.63" d="M1527.07,-2893.55C1707.54,-2834.91 2345.59,-2627.59 2544.19,-2563.07"/>
<polygon fill="black" stroke="black" stroke-width="2.63" points="2545.44,-2566.34 2553.87,-2559.92 2543.28,-2559.68 2545.44,-2566.34"/>
<text text-anchor="middle" x="1945.13" y="-2732.11" font-family="Times,serif" font-size="14.00">dirty&#45;water&#45;barrel*45784</text>
</g>
<!-- 1,12 (Molten Iron)&#45;&gt;7,&#45;1 (Aromatics, Need more Benzene? Look no further!) -->
<g id="edge17" class="edge">
<title>1,12 (Molten Iron)&#45;&gt;7,&#45;1 (Aromatics, Need more Benzene? Look no further!)</title>
<path fill="none" stroke="black" stroke-width="3.35" d="M1487.2,-2890.96C1581.79,-2678.51 2476.01,-670.05 2591.4,-410.88"/>
<polygon fill="black" stroke="black" stroke-width="3.35" points="2594.74,-412 2595.61,-401.44 2588.34,-409.15 2594.74,-412"/>
<text text-anchor="middle" x="1948.8" y="-1654.72" font-family="Times,serif" font-size="14.00">dirty&#45;water&#45;barrel*58280</text>
</g>
<!-- 1,12 (Molten Iron)&#45;&gt;5,2 (Raw Fiber) -->
<g id="edge21" class="edge">
<title>1,12 (Molten Iron)&#45;&gt;5,2 (Raw Fiber)</title>
<path fill="none" stroke="black" stroke-width="0.24" d="M1475.21,-2890.78C1428.04,-2668.87 967.83,-503.73 910.2,-232.61"/>
<polygon fill="black" stroke="black" stroke-width="0.24" points="913.61,-231.82 908.11,-222.77 906.76,-233.27 913.61,-231.82"/>
<text text-anchor="middle" x="1106.71" y="-1565.5" font-family="Times,serif" font-size="14.00">dirty&#45;water&#45;barrel*4128</text>
</g>
<!-- 1,12 (Molten Iron)&#45;&gt;&#45;3,7 (item=sea&#45;sponge&#45;sprouts Also Borax) -->
<g id="edge40" class="edge">
<title>1,12 (Molten Iron)&#45;&gt;&#45;3,7 (item=sea&#45;sponge&#45;sprouts Also Borax)</title>
<path fill="none" stroke="black" stroke-width="0.39" d="M1466.13,-2891.26C1342.66,-2721.32 376.82,-1391.96 228.4,-1187.67"/>
<polygon fill="black" stroke="black" stroke-width="0.39" points="231.22,-1185.61 222.51,-1179.57 225.56,-1189.72 231.22,-1185.61"/>
<text text-anchor="middle" x="761.26" y="-2043.27" font-family="Times,serif" font-size="14.00">dirty&#45;water&#45;barrel*6800</text>
</g>
<!-- &#45;3,1 (Logistic science pack, Automation Science) -->
<g id="node15" class="node">
<title>&#45;3,1 (Logistic science pack, Automation Science)</title>
<ellipse fill="none" stroke="black" cx="2958.91" cy="-2054.77" rx="233.96" ry="18"/>
<text text-anchor="middle" x="2958.91" y="-2051.07" font-family="Times,serif" font-size="14.00">&#45;3,1 (Logistic science pack, Automation Science)</text>
</g>
<!-- 1,12 (Molten Iron)&#45;&gt;&#45;3,1 (Logistic science pack, Automation Science) -->
<g id="edge30" class="edge">
<title>1,12 (Molten Iron)&#45;&gt;&#45;3,1 (Logistic science pack, Automation Science)</title>
<path fill="none" stroke="black" stroke-width="0.03" d="M1509.01,-2891.87C1696.12,-2783.84 2705.13,-2201.29 2919.04,-2077.79"/>
<polygon fill="black" stroke="black" stroke-width="0.03" points="2920.85,-2080.78 2927.76,-2072.75 2917.35,-2074.72 2920.85,-2080.78"/>
<text text-anchor="middle" x="2132.52" y="-2488.63" font-family="Times,serif" font-size="14.00">dirty&#45;water&#45;barrel*512</text>
</g>
<!-- &#45;5,8 (Moar Molten Iron) -->
<g id="node4" class="node">
<title>&#45;5,8 (Moar Molten Iron)</title>
<ellipse fill="none" stroke="black" cx="455.12" cy="-609.2" rx="120.48" ry="18"/>
<text text-anchor="middle" x="455.12" y="-605.5" font-family="Times,serif" font-size="14.00">&#45;5,8 (Moar Molten Iron)</text>
</g>
<!-- &#45;5,8 (Moar Molten Iron)&#45;&gt;4,3 (item=nexelit&#45;plate Nexelit platery) -->
<g id="edge18" class="edge">
<title>&#45;5,8 (Moar Molten Iron)&#45;&gt;4,3 (item=nexelit&#45;plate Nexelit platery)</title>
<path fill="none" stroke="black" stroke-width="2.07" d="M459,-627.47C499.75,-819.16 848.43,-2459.57 898.34,-2694.41"/>
<polygon fill="black" stroke="black" stroke-width="2.07" points="894.93,-2695.18 900.43,-2704.23 901.77,-2693.72 894.93,-2695.18"/>
<text text-anchor="middle" x="588.17" y="-1664.74" font-family="Times,serif" font-size="14.00">dirty&#45;water&#45;barrel*36024</text>
</g>
<!-- &#45;5,8 (Moar Molten Iron)&#45;&gt;4,10 (Fluid Recycling) -->
<g id="edge3" class="edge">
<title>&#45;5,8 (Moar Molten Iron)&#45;&gt;4,10 (Fluid Recycling)</title>
<path fill="none" stroke="black" stroke-width="1.22" d="M475.02,-627.12C676.22,-808.28 2340.42,-2306.74 2575.97,-2518.82"/>
<polygon fill="black" stroke="black" stroke-width="1.22" points="2573.96,-2521.73 2583.74,-2525.82 2578.65,-2516.53 2573.96,-2521.73"/>
<text text-anchor="middle" x="1434.99" y="-1576.77" font-family="Times,serif" font-size="14.00">dirty&#45;water&#45;barrel*21304</text>
</g>
<!-- &#45;5,8 (Moar Molten Iron)&#45;&gt;7,&#45;1 (Aromatics, Need more Benzene? Look no further!) -->
<g id="edge7" class="edge">
<title>&#45;5,8 (Moar Molten Iron)&#45;&gt;7,&#45;1 (Aromatics, Need more Benzene? Look no further!)</title>
<path fill="none" stroke="black" stroke-width="1.34" d="M553.73,-598.84C895.73,-562.89 2032.66,-443.4 2449.08,-399.63"/>
<polygon fill="black" stroke="black" stroke-width="1.34" points="2449.51,-403.1 2459.09,-398.58 2448.78,-396.14 2449.51,-403.1"/>
<text text-anchor="middle" x="1410.91" y="-503.03" font-family="Times,serif" font-size="14.00">dirty&#45;water&#45;barrel*23320</text>
</g>
<!-- &#45;5,8 (Moar Molten Iron)&#45;&gt;5,2 (Raw Fiber) -->
<g id="edge38" class="edge">
<title>&#45;5,8 (Moar Molten Iron)&#45;&gt;5,2 (Raw Fiber)</title>
<path fill="none" stroke="black" stroke-width="0.1" d="M475,-591.3C547.04,-526.44 794.51,-303.62 877.16,-229.19"/>
<polygon fill="black" stroke="black" stroke-width="0.1" points="879.54,-231.76 884.63,-222.47 874.86,-226.56 879.54,-231.76"/>
<text text-anchor="middle" x="590.08" y="-414.05" font-family="Times,serif" font-size="14.00">dirty&#45;water&#45;barrel*1664</text>
</g>
<!-- &#45;5,8 (Moar Molten Iron)&#45;&gt;&#45;3,7 (item=sea&#45;sponge&#45;sprouts Also Borax) -->
<g id="edge32" class="edge">
<title>&#45;5,8 (Moar Molten Iron)&#45;&gt;&#45;3,7 (item=sea&#45;sponge&#45;sprouts Also Borax)</title>
<path fill="none" stroke="black" stroke-width="0.23" d="M447.08,-627.26C411.12,-708.03 264.89,-1036.47 221.48,-1133.95"/>
<polygon fill="black" stroke="black" stroke-width="0.23" points="218.25,-1132.6 217.38,-1143.16 224.65,-1135.45 218.25,-1132.6"/>
<text text-anchor="middle" x="248.28" y="-884.41" font-family="Times,serif" font-size="14.00">dirty&#45;water&#45;barrel*3992</text>
</g>
<!-- &#45;1,10 (Iron Plates) -->
<g id="node6" class="node">
<title>&#45;1,10 (Iron Plates)</title>
<ellipse fill="none" stroke="black" cx="2080.21" cy="-81.18" rx="94.78" ry="18"/>
<text text-anchor="middle" x="2080.21" y="-77.48" font-family="Times,serif" font-size="14.00">&#45;1,10 (Iron Plates)</text>
</g>
<!-- &#45;1,10 (Iron Plates)&#45;&gt;4,3 (item=nexelit&#45;plate Nexelit platery) -->
<g id="edge4" class="edge">
<title>&#45;1,10 (Iron Plates)&#45;&gt;4,3 (item=nexelit&#45;plate Nexelit platery)</title>
<path fill="none" stroke="black" stroke-width="3.58" d="M2072.07,-99.45C1974.76,-318.03 1035.15,-2428.42 916.56,-2694.77"/>
<polygon fill="black" stroke="black" stroke-width="3.58" points="913.27,-2693.57 912.4,-2704.13 919.66,-2696.41 913.27,-2693.57"/>
<text text-anchor="middle" x="1403.82" y="-1400.91" font-family="Times,serif" font-size="14.00">dirty&#45;water&#45;barrel*62320</text>
</g>
<!-- &#45;1,10 (Iron Plates)&#45;&gt;7,&#45;1 (Aromatics, Need more Benzene? Look no further!) -->
<g id="edge26" class="edge">
<title>&#45;1,10 (Iron Plates)&#45;&gt;7,&#45;1 (Aromatics, Need more Benzene? Look no further!)</title>
<path fill="none" stroke="black" stroke-width="1.7" d="M2109.85,-98.29C2198.65,-149.56 2462.61,-301.96 2563.67,-360.3"/>
<polygon fill="black" stroke="black" stroke-width="1.7" points="2561.95,-363.35 2572.36,-365.32 2565.45,-357.29 2561.95,-363.35"/>
<text text-anchor="middle" x="2246.26" y="-233.1" font-family="Times,serif" font-size="14.00">dirty&#45;water&#45;barrel*29664</text>
</g>
<!-- &#45;1,10 (Iron Plates)&#45;&gt;5,2 (Raw Fiber) -->
<g id="edge10" class="edge">
<title>&#45;1,10 (Iron Plates)&#45;&gt;5,2 (Raw Fiber)</title>
<path fill="none" stroke="black" stroke-width="0.35" d="M1997.05,-89.92C1781.55,-112.57 1206.65,-172.99 989.2,-195.85"/>
<polygon fill="black" stroke="black" stroke-width="0.35" points="988.7,-192.38 979.12,-196.91 989.43,-199.34 988.7,-192.38"/>
<text text-anchor="middle" x="1407.13" y="-146.68" font-family="Times,serif" font-size="14.00">dirty&#45;water&#45;barrel*6032</text>
</g>
<!-- &#45;1,10 (Iron Plates)&#45;&gt;&#45;3,7 (item=sea&#45;sponge&#45;sprouts Also Borax) -->
<g id="edge31" class="edge">
<title>&#45;1,10 (Iron Plates)&#45;&gt;&#45;3,7 (item=sea&#45;sponge&#45;sprouts Also Borax)</title>
<path fill="none" stroke="black" stroke-width="0.19" d="M2050.45,-98.36C1833.54,-223.59 497.56,-994.92 249.05,-1138.4"/>
<polygon fill="black" stroke="black" stroke-width="0.19" points="247.25,-1135.4 240.34,-1143.43 250.75,-1141.46 247.25,-1135.4"/>
<text text-anchor="middle" x="1063.75" y="-622.18" font-family="Times,serif" font-size="14.00">dirty&#45;water&#45;barrel*3232</text>
</g>
<!-- &#45;6,8 (Copper plate duplicate) -->
<g id="node7" class="node">
<title>&#45;6,8 (Copper plate duplicate)</title>
<ellipse fill="none" stroke="black" cx="455.12" cy="-2317.93" rx="143.77" ry="18"/>
<text text-anchor="middle" x="455.12" y="-2314.23" font-family="Times,serif" font-size="14.00">&#45;6,8 (Copper plate duplicate)</text>
</g>
<!-- &#45;6,8 (Copper plate duplicate)&#45;&gt;4,3 (item=nexelit&#45;plate Nexelit platery) -->
<g id="edge20" class="edge">
<title>&#45;6,8 (Copper plate duplicate)&#45;&gt;4,3 (item=nexelit&#45;plate Nexelit platery)</title>
<path fill="none" stroke="black" stroke-width="1.64" d="M475,-2335.83C546.95,-2400.62 793.94,-2623.01 876.88,-2697.68"/>
<polygon fill="black" stroke="black" stroke-width="1.64" points="874.6,-2700.35 884.38,-2704.44 879.29,-2695.14 874.6,-2700.35"/>
<text text-anchor="middle" x="585.44" y="-2520.55" font-family="Times,serif" font-size="14.00">dirty&#45;water&#45;barrel*28504</text>
</g>
<!-- &#45;6,8 (Copper plate duplicate)&#45;&gt;4,10 (Fluid Recycling) -->
<g id="edge5" class="edge">
<title>&#45;6,8 (Copper plate duplicate)&#45;&gt;4,10 (Fluid Recycling)</title>
<path fill="none" stroke="black" stroke-width="1.36" d="M565.36,-2329.51C936.49,-2368.52 2137.41,-2494.74 2499.42,-2532.79"/>
<polygon fill="black" stroke="black" stroke-width="1.36" points="2499.05,-2536.27 2509.36,-2533.84 2499.78,-2529.31 2499.05,-2536.27"/>
<text text-anchor="middle" x="1441.89" y="-2434.95" font-family="Times,serif" font-size="14.00">dirty&#45;water&#45;barrel*23640</text>
</g>
<!-- &#45;6,8 (Copper plate duplicate)&#45;&gt;7,&#45;1 (Aromatics, Need more Benzene? Look no further!) -->
<g id="edge14" class="edge">
<title>&#45;6,8 (Copper plate duplicate)&#45;&gt;7,&#45;1 (Aromatics, Need more Benzene? Look no further!)</title>
<path fill="none" stroke="black" stroke-width="1.22" d="M475.02,-2300.01C676.21,-2118.85 2340.34,-620.47 2575.95,-408.32"/>
<polygon fill="black" stroke="black" stroke-width="1.22" points="2578.33,-410.89 2583.42,-401.6 2573.65,-405.69 2578.33,-410.89"/>
<text text-anchor="middle" x="1434.98" y="-1357.97" font-family="Times,serif" font-size="14.00">dirty&#45;water&#45;barrel*21304</text>
</g>
<!-- &#45;6,8 (Copper plate duplicate)&#45;&gt;5,2 (Raw Fiber) -->
<g id="edge36" class="edge">
<title>&#45;6,8 (Copper plate duplicate)&#45;&gt;5,2 (Raw Fiber)</title>
<path fill="none" stroke="black" stroke-width="0.26" d="M459,-2299.66C499.75,-2107.97 848.43,-467.56 898.34,-232.72"/>
<polygon fill="black" stroke="black" stroke-width="0.26" points="901.77,-233.41 900.43,-222.9 894.93,-231.95 901.77,-233.41"/>
<text text-anchor="middle" x="592.67" y="-1269.99" font-family="Times,serif" font-size="14.00">dirty&#45;water&#45;barrel*4560</text>
</g>
<!-- &#45;6,8 (Copper plate duplicate)&#45;&gt;&#45;3,7 (item=sea&#45;sponge&#45;sprouts Also Borax) -->
<g id="edge29" class="edge">
<title>&#45;6,8 (Copper plate duplicate)&#45;&gt;&#45;3,7 (item=sea&#45;sponge&#45;sprouts Also Borax)</title>
<path fill="none" stroke="black" stroke-width="0.28" d="M451.26,-2299.76C423.13,-2167.44 249.91,-1352.51 215.3,-1189.66"/>
<polygon fill="black" stroke="black" stroke-width="0.28" points="218.64,-1188.54 213.13,-1179.49 211.79,-1190 218.64,-1188.54"/>
<text text-anchor="middle" x="247.28" y="-1733.51" font-family="Times,serif" font-size="14.00">dirty&#45;water&#45;barrel*4856</text>
</g>
<!-- 3,9 (Copper, molten &amp; plate) -->
<g id="node8" class="node">
<title>3,9 (Copper, molten &amp; plate)</title>
<ellipse fill="none" stroke="black" cx="209.28" cy="-1765.77" rx="143.77" ry="18"/>
<text text-anchor="middle" x="209.28" y="-1762.07" font-family="Times,serif" font-size="14.00">3,9 (Copper, molten &amp; plate)</text>
</g>
<!-- 3,9 (Copper, molten &amp; plate)&#45;&gt;4,3 (item=nexelit&#45;plate Nexelit platery) -->
<g id="edge6" class="edge">
<title>3,9 (Copper, molten &amp; plate)&#45;&gt;4,3 (item=nexelit&#45;plate Nexelit platery)</title>
<path fill="none" stroke="black" stroke-width="1.59" d="M222.54,-1784.03C308.21,-1901.93 783.02,-2555.45 884.99,-2695.81"/>
<polygon fill="black" stroke="black" stroke-width="1.59" points="882.45,-2698.27 891.16,-2704.3 888.12,-2694.15 882.45,-2698.27"/>
<text text-anchor="middle" x="463.27" y="-2243.72" font-family="Times,serif" font-size="14.00">dirty&#45;water&#45;barrel*27605</text>
</g>
<!-- 3,9 (Copper, molten &amp; plate)&#45;&gt;4,10 (Fluid Recycling) -->
<g id="edge12" class="edge">
<title>3,9 (Copper, molten &amp; plate)&#45;&gt;4,10 (Fluid Recycling)</title>
<path fill="none" stroke="black" stroke-width="1.13" d="M261.24,-1782.65C574.52,-1884.44 2209.48,-2415.67 2543.87,-2524.32"/>
<polygon fill="black" stroke="black" stroke-width="1.13" points="2543.25,-2527.8 2553.84,-2527.56 2545.41,-2521.15 2543.25,-2527.8"/>
<text text-anchor="middle" x="1312.05" y="-2157.29" font-family="Times,serif" font-size="14.00">dirty&#45;water&#45;barrel*19719</text>
</g>
<!-- 3,9 (Copper, molten &amp; plate)&#45;&gt;7,&#45;1 (Aromatics, Need more Benzene? Look no further!) -->
<g id="edge27" class="edge">
<title>3,9 (Copper, molten &amp; plate)&#45;&gt;7,&#45;1 (Aromatics, Need more Benzene? Look no further!)</title>
<path fill="none" stroke="black" stroke-width="0.85" d="M239.99,-1748.04C495.97,-1600.25 2272.99,-574.29 2563.52,-406.55"/>
<polygon fill="black" stroke="black" stroke-width="0.85" points="2565.54,-409.42 2572.45,-401.39 2562.04,-403.36 2565.54,-409.42"/>
<text text-anchor="middle" x="1311.25" y="-1081.1" font-family="Times,serif" font-size="14.00">dirty&#45;water&#45;barrel*14888</text>
</g>
<!-- 3,9 (Copper, molten &amp; plate)&#45;&gt;5,2 (Raw Fiber) -->
<g id="edge9" class="edge">
<title>3,9 (Copper, molten &amp; plate)&#45;&gt;5,2 (Raw Fiber)</title>
<path fill="none" stroke="black" stroke-width="0.2" d="M217.33,-1747.7C288.23,-1588.45 805.85,-425.85 892.11,-232.11"/>
<polygon fill="black" stroke="black" stroke-width="0.2" points="895.35,-233.45 896.22,-222.89 888.95,-230.6 895.35,-233.45"/>
<text text-anchor="middle" x="468.72" y="-993.7" font-family="Times,serif" font-size="14.00">dirty&#45;water&#45;barrel*3568</text>
</g>
<!-- 3,9 (Copper, molten &amp; plate)&#45;&gt;&#45;3,7 (item=sea&#45;sponge&#45;sprouts Also Borax) -->
<g id="edge33" class="edge">
<title>3,9 (Copper, molten &amp; plate)&#45;&gt;&#45;3,7 (item=sea&#45;sponge&#45;sprouts Also Borax)</title>
<path fill="none" stroke="black" stroke-width="0.22" d="M209.28,-1747.68C209.28,-1661.75 209.28,-1294.54 209.28,-1189.52"/>
<polygon fill="black" stroke="black" stroke-width="0.22" points="212.78,-1189.38 209.28,-1179.38 205.78,-1189.38 212.78,-1189.38"/>
<text text-anchor="middle" x="123.28" y="-1472.4" font-family="Times,serif" font-size="14.00">dirty&#45;water&#45;barrel*3808</text>
</g>
<!-- 4,0 (item=raw&#45;borax item=borax Borax and raw borax) -->
<g id="node10" class="node">
<title>4,0 (item=raw&#45;borax item=borax Borax and raw borax)</title>
<ellipse fill="none" stroke="black" cx="3084.57" cy="-1463.57" rx="268.35" ry="18"/>
<text text-anchor="middle" x="3084.57" y="-1459.87" font-family="Times,serif" font-size="14.00">4,0 (item=raw&#45;borax item=borax Borax and raw borax)</text>
</g>
<!-- 4,0 (item=raw&#45;borax item=borax Borax and raw borax)&#45;&gt;4,3 (item=nexelit&#45;plate Nexelit platery) -->
<g id="edge8" class="edge">
<title>4,0 (item=raw&#45;borax item=borax Borax and raw borax)&#45;&gt;4,3 (item=nexelit&#45;plate Nexelit platery)</title>
<path fill="none" stroke="black" stroke-width="0.92" d="M3053.33,-1481.6C2809.71,-1622.26 1216.34,-2542.19 943.88,-2699.49"/>
<polygon fill="black" stroke="black" stroke-width="0.92" points="942.02,-2696.53 935.11,-2704.56 945.52,-2702.59 942.02,-2696.53"/>
<text text-anchor="middle" x="1908.11" y="-2094.35" font-family="Times,serif" font-size="14.00">dirty&#45;water&#45;barrel*16096</text>
</g>
<!-- 4,0 (item=raw&#45;borax item=borax Borax and raw borax)&#45;&gt;4,10 (Fluid Recycling) -->
<g id="edge15" class="edge">
<title>4,0 (item=raw&#45;borax item=borax Borax and raw borax)&#45;&gt;4,10 (Fluid Recycling)</title>
<path fill="none" stroke="black" stroke-width="0.66" d="M3076.43,-1481.86C3019.72,-1609.23 2684.13,-2362.98 2615.79,-2516.47"/>
<polygon fill="black" stroke="black" stroke-width="0.66" points="2612.55,-2515.14 2611.68,-2525.7 2618.95,-2517.99 2612.55,-2515.14"/>
<text text-anchor="middle" x="2755.61" y="-2002.97" font-family="Times,serif" font-size="14.00">dirty&#45;water&#45;barrel*11560</text>
</g>
<!-- 4,0 (item=raw&#45;borax item=borax Borax and raw borax)&#45;&gt;7,&#45;1 (Aromatics, Need more Benzene? Look no further!) -->
<g id="edge22" class="edge">
<title>4,0 (item=raw&#45;borax item=borax Borax and raw borax)&#45;&gt;7,&#45;1 (Aromatics, Need more Benzene? Look no further!)</title>
<path fill="none" stroke="black" stroke-width="0.49" d="M3076.43,-1445.27C3019.72,-1317.9 2684.13,-564.15 2615.79,-410.66"/>
<polygon fill="black" stroke="black" stroke-width="0.49" points="2618.95,-409.14 2611.68,-401.43 2612.55,-411.99 2618.95,-409.14"/>
<text text-anchor="middle" x="2760.11" y="-931.76" font-family="Times,serif" font-size="14.00">dirty&#45;water&#45;barrel*8490</text>
</g>
<!-- 4,0 (item=raw&#45;borax item=borax Borax and raw borax)&#45;&gt;5,2 (Raw Fiber) -->
<g id="edge24" class="edge">
<title>4,0 (item=raw&#45;borax item=borax Borax and raw borax)&#45;&gt;5,2 (Raw Fiber)</title>
<path fill="none" stroke="black" stroke-width="0.2" d="M3053.33,-1445.53C2809.32,-1304.65 1211.18,-381.96 942.57,-226.88"/>
<polygon fill="black" stroke="black" stroke-width="0.2" points="943.99,-223.66 933.58,-221.69 940.49,-229.72 943.99,-223.66"/>
<text text-anchor="middle" x="1911.95" y="-840" font-family="Times,serif" font-size="14.00">dirty&#45;water&#45;barrel*3519</text>
</g>
<!-- 4,0 (item=raw&#45;borax item=borax Borax and raw borax)&#45;&gt;&#45;3,7 (item=sea&#45;sponge&#45;sprouts Also Borax) -->
<g id="edge39" class="edge">
<title>4,0 (item=raw&#45;borax item=borax Borax and raw borax)&#45;&gt;&#45;3,7 (item=sea&#45;sponge&#45;sprouts Also Borax)</title>
<path fill="none" stroke="black" stroke-width="0.06" d="M2940.02,-1448.37C2448.01,-1396.66 841.9,-1227.85 352.27,-1176.39"/>
<polygon fill="black" stroke="black" stroke-width="0.06" points="352.28,-1172.87 341.97,-1175.31 351.55,-1179.83 352.28,-1172.87"/>
<text text-anchor="middle" x="1560.14" y="-1316.18" font-family="Times,serif" font-size="14.00">dirty&#45;water&#45;barrel*1120</text>
</g>
<!-- 4,0 (item=raw&#45;borax item=borax Borax and raw borax)&#45;&gt;&#45;3,1 (Logistic science pack, Automation Science) -->
<g id="edge43" class="edge">
<title>4,0 (item=raw&#45;borax item=borax Borax and raw borax)&#45;&gt;&#45;3,1 (Logistic science pack, Automation Science)</title>
<path fill="none" stroke="black" stroke-width="0.03" d="M3080.74,-1481.58C3062.79,-1566.06 2986.88,-1923.18 2964.9,-2026.6"/>
<polygon fill="black" stroke="black" stroke-width="0.03" points="2961.43,-2026.09 2962.77,-2036.6 2968.27,-2027.55 2961.43,-2026.09"/>
<text text-anchor="middle" x="2941.32" y="-1757.89" font-family="Times,serif" font-size="14.00">dirty&#45;water&#45;barrel*560</text>
</g>
<!-- 7,1 (item=aerogel item=clean&#45;rf&#45;gel Aerogel) -->
<g id="node12" class="node">
<title>7,1 (item=aerogel item=clean&#45;rf&#45;gel Aerogel)</title>
<ellipse fill="none" stroke="black" cx="2080.21" cy="-2845.95" rx="220.96" ry="18"/>
<text text-anchor="middle" x="2080.21" y="-2842.25" font-family="Times,serif" font-size="14.00">7,1 (item=aerogel item=clean&#45;rf&#45;gel Aerogel)</text>
</g>
<!-- 7,1 (item=aerogel item=clean&#45;rf&#45;gel Aerogel)&#45;&gt;4,3 (item=nexelit&#45;plate Nexelit platery) -->
<g id="edge23" class="edge">
<title>7,1 (item=aerogel item=clean&#45;rf&#45;gel Aerogel)&#45;&gt;4,3 (item=nexelit&#45;plate Nexelit platery)</title>
<path fill="none" stroke="black" stroke-width="0.16" d="M1944.74,-2831.71C1719.51,-2808.04 1270.33,-2760.83 1042.97,-2736.93"/>
<polygon fill="black" stroke="black" stroke-width="0.16" points="1043.29,-2733.45 1032.98,-2735.88 1042.56,-2740.41 1043.29,-2733.45"/>
<text text-anchor="middle" x="1407.86" y="-2788.12" font-family="Times,serif" font-size="14.00">dirty&#45;water&#45;barrel*2870</text>
</g>
<!-- 7,1 (item=aerogel item=clean&#45;rf&#45;gel Aerogel)&#45;&gt;4,10 (Fluid Recycling) -->
<g id="edge25" class="edge">
<title>7,1 (item=aerogel item=clean&#45;rf&#45;gel Aerogel)&#45;&gt;4,10 (Fluid Recycling)</title>
<path fill="none" stroke="black" stroke-width="0.26" d="M2111.39,-2827.95C2201.88,-2775.71 2464.49,-2624.09 2564.42,-2566.4"/>
<polygon fill="black" stroke="black" stroke-width="0.26" points="2566.38,-2569.3 2573.29,-2561.27 2562.88,-2563.24 2566.38,-2569.3"/>
<text text-anchor="middle" x="2251.9" y="-2700.97" font-family="Times,serif" font-size="14.00">dirty&#45;water&#45;barrel*4539</text>
</g>
<!-- 7,1 (item=aerogel item=clean&#45;rf&#45;gel Aerogel)&#45;&gt;7,&#45;1 (Aromatics, Need more Benzene? Look no further!) -->
<g id="edge42" class="edge">
<title>7,1 (item=aerogel item=clean&#45;rf&#45;gel Aerogel)&#45;&gt;7,&#45;1 (Aromatics, Need more Benzene? Look no further!)</title>
<path fill="none" stroke="black" stroke-width="0.05" d="M2084.05,-2827.89C2128.37,-2619.37 2542.62,-670.49 2597.62,-411.72"/>
<polygon fill="black" stroke="black" stroke-width="0.05" points="2601.11,-412.13 2599.77,-401.62 2594.27,-410.68 2601.11,-412.13"/>
<text text-anchor="middle" x="2259.34" y="-1623.6" font-family="Times,serif" font-size="14.00">dirty&#45;water&#45;barrel*784</text>
</g>
<!-- 7,1 (item=aerogel item=clean&#45;rf&#45;gel Aerogel)&#45;&gt;5,2 (Raw Fiber) -->
<g id="edge13" class="edge">
<title>7,1 (item=aerogel item=clean&#45;rf&#45;gel Aerogel)&#45;&gt;5,2 (Raw Fiber)</title>
<path fill="none" stroke="black" stroke-width="0.12" d="M2072.07,-2827.68C1974.76,-2609.1 1035.15,-498.71 916.56,-232.36"/>
<polygon fill="black" stroke="black" stroke-width="0.12" points="919.66,-230.72 912.4,-223 913.27,-233.56 919.66,-230.72"/>
<text text-anchor="middle" x="1408.32" y="-1533.82" font-family="Times,serif" font-size="14.00">dirty&#45;water&#45;barrel*2167</text>
</g>
<!-- 7,1 (item=aerogel item=clean&#45;rf&#45;gel Aerogel)&#45;&gt;&#45;3,7 (item=sea&#45;sponge&#45;sprouts Also Borax) -->
<g id="edge44" class="edge">
<title>7,1 (item=aerogel item=clean&#45;rf&#45;gel Aerogel)&#45;&gt;&#45;3,7 (item=sea&#45;sponge&#45;sprouts Also Borax)</title>
<path fill="none" stroke="black" stroke-width="0.04" d="M2060.15,-2827.89C1874.17,-2660.43 452.74,-1380.57 236.75,-1186.1"/>
<polygon fill="black" stroke="black" stroke-width="0.04" points="239.08,-1183.48 229.3,-1179.39 234.39,-1188.68 239.08,-1183.48"/>
<text text-anchor="middle" x="1066.95" y="-2010.79" font-family="Times,serif" font-size="14.00">dirty&#45;water&#45;barrel*768</text>
</g>
<!-- 7,1 (item=aerogel item=clean&#45;rf&#45;gel Aerogel)&#45;&gt;&#45;3,1 (Logistic science pack, Automation Science) -->
<g id="edge34" class="edge">
<title>7,1 (item=aerogel item=clean&#45;rf&#45;gel Aerogel)&#45;&gt;&#45;3,1 (Logistic science pack, Automation Science)</title>
<path fill="none" stroke="black" stroke-width="0.03" d="M2100.21,-2827.94C2215.81,-2723.86 2797.76,-2199.87 2931.49,-2079.46"/>
<polygon fill="black" stroke="black" stroke-width="0.03" points="2933.85,-2082.04 2938.94,-2072.75 2929.16,-2076.84 2933.85,-2082.04"/>
<text text-anchor="middle" x="2434.35" y="-2457.5" font-family="Times,serif" font-size="14.00">dirty&#45;water&#45;barrel*523</text>
</g>
<!-- 4,13 (Chromium processing) -->
<g id="node13" class="node">
<title>4,13 (Chromium processing)</title>
<ellipse fill="none" stroke="black" cx="1479.11" cy="-18" rx="142.97" ry="18"/>
<text text-anchor="middle" x="1479.11" y="-14.3" font-family="Times,serif" font-size="14.00">4,13 (Chromium processing)</text>
</g>
<!-- 4,13 (Chromium processing)&#45;&gt;4,3 (item=nexelit&#45;plate Nexelit platery) -->
<g id="edge16" class="edge">
<title>4,13 (Chromium processing)&#45;&gt;4,3 (item=nexelit&#45;plate Nexelit platery)</title>
<path fill="none" stroke="black" stroke-width="0.79" d="M1475.21,-36.35C1428.07,-258.15 968.3,-2421.17 910.29,-2694.1"/>
<polygon fill="black" stroke="black" stroke-width="0.79" points="906.84,-2693.51 908.18,-2704.02 913.68,-2694.97 906.84,-2693.51"/>
<text text-anchor="middle" x="1102.25" y="-1369.02" font-family="Times,serif" font-size="14.00">dirty&#45;water&#45;barrel*13707</text>
</g>
<!-- 4,13 (Chromium processing)&#45;&gt;7,&#45;1 (Aromatics, Need more Benzene? Look no further!) -->
<g id="edge35" class="edge">
<title>4,13 (Chromium processing)&#45;&gt;7,&#45;1 (Aromatics, Need more Benzene? Look no further!)</title>
<path fill="none" stroke="black" stroke-width="0.33" d="M1531.09,-34.89C1715.44,-94.79 2337.63,-296.95 2539.69,-362.6"/>
<polygon fill="black" stroke="black" stroke-width="0.33" points="2538.68,-365.96 2549.28,-365.72 2540.85,-359.3 2538.68,-365.96"/>
<text text-anchor="middle" x="1949.39" y="-202.55" font-family="Times,serif" font-size="14.00">dirty&#45;water&#45;barrel*5811</text>
</g>
<!-- 4,13 (Chromium processing)&#45;&gt;5,2 (Raw Fiber) -->
<g id="edge45" class="edge">
<title>4,13 (Chromium processing)&#45;&gt;5,2 (Raw Fiber)</title>
<path fill="none" stroke="black" stroke-width="0.04" d="M1427.34,-34.82C1319.52,-69.86 1071.66,-150.39 960.28,-186.58"/>
<polygon fill="black" stroke="black" stroke-width="0.04" points="959.01,-183.31 950.58,-189.73 961.17,-189.97 959.01,-183.31"/>
<text text-anchor="middle" x="1112.31" y="-114.5" font-family="Times,serif" font-size="14.00">dirty&#45;water&#45;barrel*764</text>
</g>
<!-- 4,13 (Chromium processing)&#45;&gt;&#45;3,7 (item=sea&#45;sponge&#45;sprouts Also Borax) -->
<g id="edge41" class="edge">
<title>4,13 (Chromium processing)&#45;&gt;&#45;3,7 (item=sea&#45;sponge&#45;sprouts Also Borax)</title>
<path fill="none" stroke="black" stroke-width="0.11" d="M1459.17,-35.96C1312.87,-167.68 406.6,-983.69 236.71,-1136.66"/>
<polygon fill="black" stroke="black" stroke-width="0.11" points="234.27,-1134.15 229.18,-1143.44 238.96,-1139.35 234.27,-1134.15"/>
<text text-anchor="middle" x="761.94" y="-590.11" font-family="Times,serif" font-size="14.00">dirty&#45;water&#45;barrel*1916</text>
</g>
</g>
</svg>
