<?xml version="1.0" encoding="UTF-8" standalone="no"?>
<!DOCTYPE svg PUBLIC "-//W3C//DTD SVG 1.1//EN"
 "http://www.w3.org/Graphics/SVG/1.1/DTD/svg11.dtd">
<!-- Generated by graphviz version 2.43.0 (0)
 -->
<!-- Title: %3 Pages: 1 -->
<svg width="724pt" height="553pt"
 viewBox="0.00 0.00 723.99 552.63" xmlns="http://www.w3.org/2000/svg" xmlns:xlink="http://www.w3.org/1999/xlink">
<g id="graph0" class="graph" transform="scale(1 1) rotate(0) translate(4 548.63)">
<title>%3</title>
<polygon fill="white" stroke="transparent" points="-4,4 -4,-548.63 719.99,-548.63 719.99,4 -4,4"/>
<!-- 1,1 (Moondrops) -->
<g id="node1" class="node">
<title>1,1 (Moondrops)</title>
<ellipse fill="none" stroke="black" cx="330.72" cy="-246.45" rx="87.18" ry="18"/>
<text text-anchor="middle" x="330.72" y="-242.75" font-family="Times,serif" font-size="14.00">1,1 (Moondrops)</text>
</g>
<!-- 4,7 (Cottonguts) -->
<g id="node2" class="node">
<title>4,7 (Cottonguts)</title>
<ellipse fill="none" stroke="black" cx="628.9" cy="-246.45" rx="87.18" ry="18"/>
<text text-anchor="middle" x="628.9" y="-242.75" font-family="Times,serif" font-size="14.00">4,7 (Cottonguts)</text>
</g>
<!-- 1,1 (Moondrops)&#45;&gt;4,7 (Cottonguts) -->
<g id="edge1" class="edge">
<title>1,1 (Moondrops)&#45;&gt;4,7 (Cottonguts)</title>
<path fill="none" stroke="black" stroke-width="2.18" d="M418.17,-246.45C453.75,-246.45 495.01,-246.45 531.54,-246.45"/>
<polygon fill="black" stroke="black" stroke-width="2.18" points="531.71,-249.95 541.71,-246.45 531.71,-242.95 531.71,-249.95"/>
<text text-anchor="middle" x="474.85" y="-235.25" font-family="Times,serif" font-size="14.00">moondrop*48320</text>
</g>
<!-- 1,0 () -->
<g id="node3" class="node">
<title>1,0 ()</title>
<ellipse fill="none" stroke="black" cx="228.69" cy="-526.63" rx="35.19" ry="18"/>
<text text-anchor="middle" x="228.69" y="-522.93" font-family="Times,serif" font-size="14.00">1,0 ()</text>
</g>
<!-- 1,1 (Moondrops)&#45;&gt;1,0 () -->
<g id="edge2" class="edge">
<title>1,1 (Moondrops)&#45;&gt;1,0 ()</title>
<path fill="none" stroke="black" stroke-width="0.55" d="M324.18,-264.4C306.8,-312.14 259.34,-442.46 238.61,-499.4"/>
<polygon fill="black" stroke="black" stroke-width="0.55" points="235.31,-498.23 235.17,-508.83 241.88,-500.63 235.31,-498.23"/>
<text text-anchor="middle" x="219.39" y="-385.7" font-family="Times,serif" font-size="14.00">moondrop*12064</text>
</g>
<!-- &#45;3,4 (Lard from Cottonguts) -->
<g id="node4" class="node">
<title>&#45;3,4 (Lard from Cottonguts)</title>
<ellipse fill="none" stroke="black" cx="139.09" cy="-18" rx="139.18" ry="18"/>
<text text-anchor="middle" x="139.09" y="-14.3" font-family="Times,serif" font-size="14.00">&#45;3,4 (Lard from Cottonguts)</text>
</g>
<!-- 1,1 (Moondrops)&#45;&gt;&#45;3,4 (Lard from Cottonguts) -->
<g id="edge3" class="edge">
<title>1,1 (Moondrops)&#45;&gt;&#45;3,4 (Lard from Cottonguts)</title>
<path fill="none" stroke="black" stroke-width="0.27" d="M315.68,-228.52C281.97,-188.34 200.24,-90.9 160.92,-44.03"/>
<polygon fill="black" stroke="black" stroke-width="0.27" points="163.43,-41.57 154.32,-36.16 158.07,-46.07 163.43,-41.57"/>
<text text-anchor="middle" x="180.8" y="-140.08" font-family="Times,serif" font-size="14.00">moondrop*6016</text>
</g>
</g>
</svg>
