<?xml version="1.0" encoding="UTF-8" standalone="no"?>
<!DOCTYPE svg PUBLIC "-//W3C//DTD SVG 1.1//EN"
 "http://www.w3.org/Graphics/SVG/1.1/DTD/svg11.dtd">
<!-- Generated by graphviz version 2.43.0 (0)
 -->
<!-- Title: %3 Pages: 1 -->
<svg width="1571pt" height="1300pt"
 viewBox="0.00 0.00 1570.60 1299.83" xmlns="http://www.w3.org/2000/svg" xmlns:xlink="http://www.w3.org/1999/xlink">
<g id="graph0" class="graph" transform="scale(1 1) rotate(0) translate(4 1295.83)">
<title>%3</title>
<polygon fill="white" stroke="transparent" points="-4,4 -4,-1295.83 1566.6,-1295.83 1566.6,4 -4,4"/>
<!-- &#45;3,8 (Urea) -->
<g id="node1" class="node">
<title>&#45;3,8 (Urea)</title>
<ellipse fill="none" stroke="black" cx="1168.11" cy="-201.91" rx="61.19" ry="18"/>
<text text-anchor="middle" x="1168.11" y="-198.21" font-family="Times,serif" font-size="14.00">&#45;3,8 (Urea)</text>
</g>
<!-- 1,4 (Casein and Melamine) -->
<g id="node2" class="node">
<title>1,4 (Casein and Melamine)</title>
<ellipse fill="none" stroke="black" cx="724.11" cy="-18" rx="135.38" ry="18"/>
<text text-anchor="middle" x="724.11" y="-14.3" font-family="Times,serif" font-size="14.00">1,4 (Casein and Melamine)</text>
</g>
<!-- &#45;3,8 (Urea)&#45;&gt;1,4 (Casein and Melamine) -->
<g id="edge1" class="edge">
<title>&#45;3,8 (Urea)&#45;&gt;1,4 (Casein and Melamine)</title>
<path fill="none" stroke="black" stroke-width="0.63" d="M1132.52,-187.17C1054.02,-154.65 865.75,-76.67 774.88,-39.03"/>
<polygon fill="black" stroke="black" stroke-width="0.63" points="776.18,-35.78 765.61,-35.19 773.51,-42.25 776.18,-35.78"/>
<text text-anchor="middle" x="911.2" y="-116.9" font-family="Times,serif" font-size="14.00">urea*37520</text>
</g>
<!-- 4,9 (Cyanic Acid, Ammonia is a by&#45;product) -->
<g id="node3" class="node">
<title>4,9 (Cyanic Acid, Ammonia is a by&#45;product)</title>
<ellipse fill="none" stroke="black" cx="1352.02" cy="-645.91" rx="210.66" ry="18"/>
<text text-anchor="middle" x="1352.02" y="-642.21" font-family="Times,serif" font-size="14.00">4,9 (Cyanic Acid, Ammonia is a by&#45;product)</text>
</g>
<!-- &#45;3,8 (Urea)&#45;&gt;4,9 (Cyanic Acid, Ammonia is a by&#45;product) -->
<g id="edge2" class="edge">
<title>&#45;3,8 (Urea)&#45;&gt;4,9 (Cyanic Acid, Ammonia is a by&#45;product)</title>
<path fill="none" stroke="black" stroke-width="0.99" d="M1175.55,-219.87C1204.02,-288.62 1306.26,-535.43 1340.64,-618.45"/>
<polygon fill="black" stroke="black" stroke-width="0.99" points="1337.43,-619.84 1344.49,-627.74 1343.9,-617.16 1337.43,-619.84"/>
<text text-anchor="middle" x="1215.59" y="-422.96" font-family="Times,serif" font-size="14.00">urea*58912</text>
</g>
<!-- 2,4 (Formica and Phenolic boards) -->
<g id="node4" class="node">
<title>2,4 (Formica and Phenolic boards)</title>
<ellipse fill="none" stroke="black" cx="724.11" cy="-1273.83" rx="169.77" ry="18"/>
<text text-anchor="middle" x="724.11" y="-1270.13" font-family="Times,serif" font-size="14.00">2,4 (Formica and Phenolic boards)</text>
</g>
<!-- &#45;3,8 (Urea)&#45;&gt;2,4 (Formica and Phenolic boards) -->
<g id="edge3" class="edge">
<title>&#45;3,8 (Urea)&#45;&gt;2,4 (Formica and Phenolic boards)</title>
<path fill="none" stroke="black" stroke-width="0.34" d="M1160.59,-220.07C1108.34,-346.2 799.68,-1091.36 735.71,-1245.81"/>
<polygon fill="black" stroke="black" stroke-width="0.34" points="732.29,-1244.93 731.69,-1255.51 738.75,-1247.61 732.29,-1244.93"/>
<text text-anchor="middle" x="905.65" y="-736.74" font-family="Times,serif" font-size="14.00">urea*20448</text>
</g>
<!-- 0,0 (LE BUS) -->
<g id="node5" class="node">
<title>0,0 (LE BUS)</title>
<ellipse fill="none" stroke="black" cx="1168.11" cy="-1089.92" rx="71.49" ry="18"/>
<text text-anchor="middle" x="1168.11" y="-1086.22" font-family="Times,serif" font-size="14.00">0,0 (LE BUS)</text>
</g>
<!-- &#45;3,8 (Urea)&#45;&gt;0,0 (LE BUS) -->
<g id="edge4" class="edge">
<title>&#45;3,8 (Urea)&#45;&gt;0,0 (LE BUS)</title>
<path fill="none" stroke="black" stroke-width="0.04" d="M1168.11,-220.05C1168.11,-331.65 1168.11,-924.79 1168.11,-1061.7"/>
<polygon fill="black" stroke="black" stroke-width="0.04" points="1164.61,-1061.8 1168.11,-1071.8 1171.61,-1061.8 1164.61,-1061.8"/>
<text text-anchor="middle" x="1130.11" y="-629.68" font-family="Times,serif" font-size="14.00">urea*2160</text>
</g>
<!-- &#45;1,7 (Rayon) -->
<g id="node7" class="node">
<title>&#45;1,7 (Rayon)</title>
<ellipse fill="none" stroke="black" cx="280.1" cy="-201.91" rx="66.89" ry="18"/>
<text text-anchor="middle" x="280.1" y="-198.21" font-family="Times,serif" font-size="14.00">&#45;1,7 (Rayon)</text>
</g>
<!-- &#45;3,8 (Urea)&#45;&gt;&#45;1,7 (Rayon) -->
<g id="edge10" class="edge">
<title>&#45;3,8 (Urea)&#45;&gt;&#45;1,7 (Rayon)</title>
<path fill="none" stroke="black" stroke-width="0.01" d="M1106.72,-201.91C949.19,-201.91 530.87,-201.91 357.28,-201.91"/>
<polygon fill="black" stroke="black" stroke-width="0.01" points="357.2,-198.41 347.2,-201.91 357.2,-205.41 357.2,-198.41"/>
<text text-anchor="middle" x="698.5" y="-205.71" font-family="Times,serif" font-size="14.00">urea*688</text>
</g>
<!-- &#45;5,2 (Optical fiber) -->
<g id="node8" class="node">
<title>&#45;5,2 (Optical fiber)</title>
<ellipse fill="none" stroke="black" cx="96.19" cy="-645.91" rx="96.38" ry="18"/>
<text text-anchor="middle" x="96.19" y="-642.21" font-family="Times,serif" font-size="14.00">&#45;5,2 (Optical fiber)</text>
</g>
<!-- &#45;3,8 (Urea)&#45;&gt;&#45;5,2 (Optical fiber) -->
<g id="edge12" class="edge">
<title>&#45;3,8 (Urea)&#45;&gt;&#45;5,2 (Optical fiber)</title>
<path fill="none" stroke="black" stroke-width="0.16" d="M1132.44,-216.68C973.45,-282.54 329.07,-549.45 145.32,-625.56"/>
<polygon fill="black" stroke="black" stroke-width="0.16" points="143.8,-622.4 135.9,-629.46 146.48,-628.87 143.8,-622.4"/>
<text text-anchor="middle" x="600.88" y="-424.92" font-family="Times,serif" font-size="14.00">urea*9584</text>
</g>
<!-- 0,0 (LE BUS)&#45;&gt;4,9 (Cyanic Acid, Ammonia is a by&#45;product) -->
<g id="edge11" class="edge">
<title>0,0 (LE BUS)&#45;&gt;4,9 (Cyanic Acid, Ammonia is a by&#45;product)</title>
<path fill="none" stroke="black" stroke-width="0.14" d="M1175.55,-1071.96C1204.02,-1003.21 1306.26,-756.4 1340.64,-673.38"/>
<polygon fill="black" stroke="black" stroke-width="0.14" points="1343.9,-674.67 1344.49,-664.09 1337.43,-671.99 1343.9,-674.67"/>
<text text-anchor="middle" x="1220.09" y="-876.47" font-family="Times,serif" font-size="14.00">urea*8525</text>
</g>
<!-- 0,0 (LE BUS)&#45;&gt;2,4 (Formica and Phenolic boards) -->
<g id="edge14" class="edge">
<title>0,0 (LE BUS)&#45;&gt;2,4 (Formica and Phenolic boards)</title>
<path fill="none" stroke="black" stroke-width="0.04" d="M1130.64,-1105.44C1051.28,-1138.31 866.16,-1214.99 775.7,-1252.46"/>
<polygon fill="black" stroke="black" stroke-width="0.04" points="774.36,-1249.22 766.46,-1256.28 777.04,-1255.69 774.36,-1249.22"/>
<text text-anchor="middle" x="915.17" y="-1182.75" font-family="Times,serif" font-size="14.00">urea*2352</text>
</g>
<!-- &#45;6,4 (Urea) -->
<g id="node6" class="node">
<title>&#45;6,4 (Urea)</title>
<ellipse fill="none" stroke="black" cx="280.1" cy="-1089.92" rx="61.19" ry="18"/>
<text text-anchor="middle" x="280.1" y="-1086.22" font-family="Times,serif" font-size="14.00">&#45;6,4 (Urea)</text>
</g>
<!-- &#45;6,4 (Urea)&#45;&gt;1,4 (Casein and Melamine) -->
<g id="edge8" class="edge">
<title>&#45;6,4 (Urea)&#45;&gt;1,4 (Casein and Melamine)</title>
<path fill="none" stroke="black" stroke-width="3.59" d="M287.62,-1071.76C339.87,-945.63 648.53,-200.46 712.5,-46.02"/>
<polygon fill="black" stroke="black" stroke-width="3.59" points="715.92,-46.9 716.52,-36.32 709.46,-44.22 715.92,-46.9"/>
<text text-anchor="middle" x="453.06" y="-562.69" font-family="Times,serif" font-size="14.00">urea*213200</text>
</g>
<!-- &#45;6,4 (Urea)&#45;&gt;4,9 (Cyanic Acid, Ammonia is a by&#45;product) -->
<g id="edge6" class="edge">
<title>&#45;6,4 (Urea)&#45;&gt;4,9 (Cyanic Acid, Ammonia is a by&#45;product)</title>
<path fill="none" stroke="black" stroke-width="5.88" d="M315.77,-1075.14C473.95,-1009.62 1112.56,-745.1 1300.04,-667.45"/>
<polygon fill="black" stroke="black" stroke-width="5.88" points="1302.13,-672.15 1309.4,-663.57 1298.19,-662.64 1302.13,-672.15"/>
<text text-anchor="middle" x="760.9" y="-875.1" font-family="Times,serif" font-size="14.00">urea*349160</text>
</g>
<!-- &#45;6,4 (Urea)&#45;&gt;2,4 (Formica and Phenolic boards) -->
<g id="edge9" class="edge">
<title>&#45;6,4 (Urea)&#45;&gt;2,4 (Formica and Phenolic boards)</title>
<path fill="none" stroke="black" stroke-width="1.04" d="M315.69,-1104.66C393.99,-1137.09 581.51,-1214.76 672.64,-1252.51"/>
<polygon fill="black" stroke="black" stroke-width="1.04" points="671.37,-1255.77 681.94,-1256.36 674.04,-1249.3 671.37,-1255.77"/>
<text text-anchor="middle" x="451.66" y="-1182.38" font-family="Times,serif" font-size="14.00">urea*61520</text>
</g>
<!-- &#45;6,4 (Urea)&#45;&gt;0,0 (LE BUS) -->
<g id="edge5" class="edge">
<title>&#45;6,4 (Urea)&#45;&gt;0,0 (LE BUS)</title>
<path fill="none" stroke="black" stroke-width="0.24" d="M341.49,-1089.92C497.57,-1089.92 909.69,-1089.92 1086.1,-1089.92"/>
<polygon fill="black" stroke="black" stroke-width="0.24" points="1086.35,-1093.42 1096.35,-1089.92 1086.35,-1086.42 1086.35,-1093.42"/>
<text text-anchor="middle" x="671.29" y="-1093.72" font-family="Times,serif" font-size="14.00">urea*13960</text>
</g>
<!-- &#45;6,4 (Urea)&#45;&gt;&#45;1,7 (Rayon) -->
<g id="edge7" class="edge">
<title>&#45;6,4 (Urea)&#45;&gt;&#45;1,7 (Rayon)</title>
<path fill="none" stroke="black" stroke-width="0.18" d="M280.1,-1071.78C280.1,-960.18 280.1,-367.04 280.1,-230.12"/>
<polygon fill="black" stroke="black" stroke-width="0.18" points="283.6,-230.02 280.1,-220.02 276.6,-230.02 283.6,-230.02"/>
<text text-anchor="middle" x="237.6" y="-654.75" font-family="Times,serif" font-size="14.00">urea*10400</text>
</g>
<!-- &#45;6,4 (Urea)&#45;&gt;&#45;5,2 (Optical fiber) -->
<g id="edge13" class="edge">
<title>&#45;6,4 (Urea)&#45;&gt;&#45;5,2 (Optical fiber)</title>
<path fill="none" stroke="black" stroke-width="0.72" d="M272.67,-1071.96C244.19,-1003.21 141.96,-756.4 107.57,-673.38"/>
<polygon fill="black" stroke="black" stroke-width="0.72" points="110.78,-671.99 103.72,-664.09 104.31,-674.67 110.78,-671.99"/>
<text text-anchor="middle" x="147.62" y="-876.47" font-family="Times,serif" font-size="14.00">urea*42480</text>
</g>
</g>
</svg>
