<?xml version="1.0" encoding="UTF-8" standalone="no"?>
<!DOCTYPE svg PUBLIC "-//W3C//DTD SVG 1.1//EN"
 "http://www.w3.org/Graphics/SVG/1.1/DTD/svg11.dtd">
<!-- Generated by graphviz version 2.43.0 (0)
 -->
<!-- Title: %3 Pages: 1 -->
<svg width="1132pt" height="971pt"
 viewBox="0.00 0.00 1132.26 970.71" xmlns="http://www.w3.org/2000/svg" xmlns:xlink="http://www.w3.org/1999/xlink">
<g id="graph0" class="graph" transform="scale(1 1) rotate(0) translate(4 966.71)">
<title>%3</title>
<polygon fill="white" stroke="transparent" points="-4,4 -4,-966.71 1128.26,-966.71 1128.26,4 -4,4"/>
<!-- 0,0 (LE BUS) -->
<g id="node1" class="node">
<title>0,0 (LE BUS)</title>
<ellipse fill="none" stroke="black" cx="534.91" cy="-482.77" rx="71.49" ry="18"/>
<text text-anchor="middle" x="534.91" y="-479.07" font-family="Times,serif" font-size="14.00">0,0 (LE BUS)</text>
</g>
<!-- 0,10 (item=meat Meat) -->
<g id="node2" class="node">
<title>0,10 (item=meat Meat)</title>
<ellipse fill="none" stroke="black" cx="1004.03" cy="-482.77" rx="120.48" ry="18"/>
<text text-anchor="middle" x="1004.03" y="-479.07" font-family="Times,serif" font-size="14.00">0,10 (item=meat Meat)</text>
</g>
<!-- 0,0 (LE BUS)&#45;&gt;0,10 (item=meat Meat) -->
<g id="edge1" class="edge">
<title>0,0 (LE BUS)&#45;&gt;0,10 (item=meat Meat)</title>
<path fill="none" stroke="black" stroke-width="1.15" d="M606.41,-482.77C677.1,-482.77 786.89,-482.77 873.21,-482.77"/>
<polygon fill="black" stroke="black" stroke-width="1.15" points="873.34,-486.27 883.34,-482.77 873.34,-479.27 873.34,-486.27"/>
<text text-anchor="middle" x="695.31" y="-486.57" font-family="Times,serif" font-size="14.00">moss*40608</text>
</g>
<!-- &#45;7,&#45;4 (Isomer&#39;s Slaughterhouse and Daycare Centre, Bone Meal) -->
<g id="node3" class="node">
<title>&#45;7,&#45;4 (Isomer&#39;s Slaughterhouse and Daycare Centre, Bone Meal)</title>
<ellipse fill="none" stroke="black" cx="616.61" cy="-944.71" rx="307.35" ry="18"/>
<text text-anchor="middle" x="616.61" y="-941.01" font-family="Times,serif" font-size="14.00">&#45;7,&#45;4 (Isomer&#39;s Slaughterhouse and Daycare Centre, Bone Meal)</text>
</g>
<!-- 0,0 (LE BUS)&#45;&gt;&#45;7,&#45;4 (Isomer&#39;s Slaughterhouse and Daycare Centre, Bone Meal) -->
<g id="edge2" class="edge">
<title>0,0 (LE BUS)&#45;&gt;&#45;7,&#45;4 (Isomer&#39;s Slaughterhouse and Daycare Centre, Bone Meal)</title>
<path fill="none" stroke="black" stroke-width="1.43" d="M538.11,-500.87C550.65,-571.73 596.42,-830.52 611.65,-916.63"/>
<polygon fill="black" stroke="black" stroke-width="1.43" points="608.2,-917.24 613.39,-926.48 615.09,-916.02 608.2,-917.24"/>
<text text-anchor="middle" x="530.38" y="-712.55" font-family="Times,serif" font-size="14.00">moss*50320</text>
</g>
<!-- &#45;3,8 (Urea) -->
<g id="node4" class="node">
<title>&#45;3,8 (Urea)</title>
<ellipse fill="none" stroke="black" cx="117.99" cy="-697.81" rx="61.19" ry="18"/>
<text text-anchor="middle" x="117.99" y="-694.11" font-family="Times,serif" font-size="14.00">&#45;3,8 (Urea)</text>
</g>
<!-- 0,0 (LE BUS)&#45;&gt;&#45;3,8 (Urea) -->
<g id="edge3" class="edge">
<title>0,0 (LE BUS)&#45;&gt;&#45;3,8 (Urea)</title>
<path fill="none" stroke="black" stroke-width="1.22" d="M503.23,-499.11C428.21,-537.8 239.84,-634.96 157.52,-677.42"/>
<polygon fill="black" stroke="black" stroke-width="1.22" points="155.77,-674.38 148.49,-682.08 158.98,-680.6 155.77,-674.38"/>
<text text-anchor="middle" x="285.88" y="-592.06" font-family="Times,serif" font-size="14.00">moss*42880</text>
</g>
<!-- 0,9 (Auog Brains) -->
<g id="node5" class="node">
<title>0,9 (Auog Brains)</title>
<ellipse fill="none" stroke="black" cx="91.64" cy="-329.2" rx="91.78" ry="18"/>
<text text-anchor="middle" x="91.64" y="-325.5" font-family="Times,serif" font-size="14.00">0,9 (Auog Brains)</text>
</g>
<!-- 0,0 (LE BUS)&#45;&gt;0,9 (Auog Brains) -->
<g id="edge4" class="edge">
<title>0,0 (LE BUS)&#45;&gt;0,9 (Auog Brains)</title>
<path fill="none" stroke="black" stroke-width="1.14" d="M492.81,-468.18C412.22,-440.26 236.21,-379.29 146.53,-348.22"/>
<polygon fill="black" stroke="black" stroke-width="1.14" points="147.67,-344.91 137.08,-344.95 145.38,-351.53 147.67,-344.91"/>
<text text-anchor="middle" x="275.17" y="-412" font-family="Times,serif" font-size="14.00">moss*40000</text>
</g>
<!-- &#45;1,6 (Flimble&#39;s Slaughterhouse and Daycare Centre, Auog Products) -->
<g id="node6" class="node">
<title>&#45;1,6 (Flimble&#39;s Slaughterhouse and Daycare Centre, Auog Products)</title>
<ellipse fill="none" stroke="black" cx="598.64" cy="-18" rx="325.74" ry="18"/>
<text text-anchor="middle" x="598.64" y="-14.3" font-family="Times,serif" font-size="14.00">&#45;1,6 (Flimble&#39;s Slaughterhouse and Daycare Centre, Auog Products)</text>
</g>
<!-- 0,0 (LE BUS)&#45;&gt;&#45;1,6 (Flimble&#39;s Slaughterhouse and Daycare Centre, Auog Products) -->
<g id="edge5" class="edge">
<title>0,0 (LE BUS)&#45;&gt;&#45;1,6 (Flimble&#39;s Slaughterhouse and Daycare Centre, Auog Products)</title>
<path fill="none" stroke="black" stroke-width="0.06" d="M537.41,-464.55C547.19,-393.25 582.89,-132.83 594.77,-46.22"/>
<polygon fill="black" stroke="black" stroke-width="0.06" points="598.27,-46.48 596.16,-36.09 591.33,-45.53 598.27,-46.48"/>
<text text-anchor="middle" x="526.09" y="-259.19" font-family="Times,serif" font-size="14.00">moss*2192</text>
</g>
</g>
</svg>
