<?xml version="1.0" encoding="UTF-8" standalone="no"?>
<!DOCTYPE svg PUBLIC "-//W3C//DTD SVG 1.1//EN"
 "http://www.w3.org/Graphics/SVG/1.1/DTD/svg11.dtd">
<!-- Generated by graphviz version 2.43.0 (0)
 -->
<!-- Title: %3 Pages: 1 -->
<svg width="1006pt" height="44pt"
 viewBox="0.00 0.00 1005.58 44.00" xmlns="http://www.w3.org/2000/svg" xmlns:xlink="http://www.w3.org/1999/xlink">
<g id="graph0" class="graph" transform="scale(1 1) rotate(0) translate(4 40)">
<title>%3</title>
<polygon fill="white" stroke="transparent" points="-4,4 -4,-40 1001.58,-40 1001.58,4 -4,4"/>
<!-- &#45;3,1 (Logistic science pack, Automation Science) -->
<g id="node1" class="node">
<title>&#45;3,1 (Logistic science pack, Automation Science)</title>
<ellipse fill="none" stroke="black" cx="233.98" cy="-18" rx="233.96" ry="18"/>
<text text-anchor="middle" x="233.98" y="-14.3" font-family="Times,serif" font-size="14.00">&#45;3,1 (Logistic science pack, Automation Science)</text>
</g>
<!-- &#45;4,&#45;2 (For Science!) -->
<g id="node2" class="node">
<title>&#45;4,&#45;2 (For Science!)</title>
<ellipse fill="none" stroke="black" cx="638.75" cy="-18" rx="98.58" ry="18"/>
<text text-anchor="middle" x="638.75" y="-14.3" font-family="Times,serif" font-size="14.00">&#45;4,&#45;2 (For Science!)</text>
</g>
<!-- &#45;3,1 (Logistic science pack, Automation Science)&#45;&gt;&#45;4,&#45;2 (For Science!) -->
<g id="edge1" class="edge">
<title>&#45;3,1 (Logistic science pack, Automation Science)&#45;&gt;&#45;4,&#45;2 (For Science!)</title>
<path fill="none" stroke="black" stroke-width="1.55" d="M467.97,-18C489.19,-18 509.93,-18 529.24,-18"/>
<polygon fill="black" stroke="black" stroke-width="1.55" points="529.5,-21.5 539.5,-18 529.5,-14.5 529.5,-21.5"/>
<text text-anchor="middle" x="498.6" y="-6.8" font-family="Times,serif" font-size="14.00">automation&#45;science&#45;pack*7104</text>
</g>
<!-- 0,0 (LE BUS) -->
<g id="node3" class="node">
<title>0,0 (LE BUS)</title>
<ellipse fill="none" stroke="black" cx="881.03" cy="-18" rx="71.49" ry="18"/>
<text text-anchor="middle" x="881.03" y="-14.3" font-family="Times,serif" font-size="14.00">0,0 (LE BUS)</text>
</g>
<!-- 0,0 (LE BUS)&#45;&gt;&#45;4,&#45;2 (For Science!) -->
<g id="edge2" class="edge">
<title>0,0 (LE BUS)&#45;&gt;&#45;4,&#45;2 (For Science!)</title>
<path fill="none" stroke="black" stroke-width="0.45" d="M809.32,-18C790.02,-18 768.69,-18 747.84,-18"/>
<polygon fill="black" stroke="black" stroke-width="0.45" points="747.66,-14.5 737.66,-18 747.66,-21.5 747.66,-14.5"/>
<text text-anchor="middle" x="888.08" y="-21.8" font-family="Times,serif" font-size="14.00">automation&#45;science&#45;pack*2064</text>
</g>
</g>
</svg>
