<?xml version="1.0" encoding="UTF-8" standalone="no"?>
<!DOCTYPE svg PUBLIC "-//W3C//DTD SVG 1.1//EN"
 "http://www.w3.org/Graphics/SVG/1.1/DTD/svg11.dtd">
<!-- Generated by graphviz version 2.43.0 (0)
 -->
<!-- Title: %3 Pages: 1 -->
<svg width="1787pt" height="934pt"
 viewBox="0.00 0.00 1787.04 933.68" xmlns="http://www.w3.org/2000/svg" xmlns:xlink="http://www.w3.org/1999/xlink">
<g id="graph0" class="graph" transform="scale(1 1) rotate(0) translate(4 929.68)">
<title>%3</title>
<polygon fill="white" stroke="transparent" points="-4,4 -4,-929.68 1783.04,-929.68 1783.04,4 -4,4"/>
<!-- 0,0 (LE BUS) -->
<g id="node1" class="node">
<title>0,0 (LE BUS)</title>
<ellipse fill="none" stroke="black" cx="71.49" cy="-459.33" rx="71.49" ry="18"/>
<text text-anchor="middle" x="71.49" y="-455.63" font-family="Times,serif" font-size="14.00">0,0 (LE BUS)</text>
</g>
<!-- &#45;1,10 (Iron Plates) -->
<g id="node2" class="node">
<title>&#45;1,10 (Iron Plates)</title>
<ellipse fill="none" stroke="black" cx="309.88" cy="-459.33" rx="94.78" ry="18"/>
<text text-anchor="middle" x="309.88" y="-455.63" font-family="Times,serif" font-size="14.00">&#45;1,10 (Iron Plates)</text>
</g>
<!-- 0,0 (LE BUS)&#45;&gt;&#45;1,10 (Iron Plates) -->
<g id="edge1" class="edge">
<title>0,0 (LE BUS)&#45;&gt;&#45;1,10 (Iron Plates)</title>
<path fill="none" stroke="black" stroke-width="0.74" d="M143.02,-459.33C162.35,-459.33 183.68,-459.33 204.44,-459.33"/>
<polygon fill="black" stroke="black" stroke-width="0.74" points="204.58,-462.83 214.58,-459.33 204.58,-455.83 204.58,-462.83"/>
<text text-anchor="middle" x="173.73" y="-448.13" font-family="Times,serif" font-size="14.00">sand&#45;casting*10032</text>
</g>
<!-- 5,8 (Ulric Food) -->
<g id="node3" class="node">
<title>5,8 (Ulric Food)</title>
<ellipse fill="none" stroke="black" cx="1186.16" cy="-459.33" rx="83.39" ry="18"/>
<text text-anchor="middle" x="1186.16" y="-455.63" font-family="Times,serif" font-size="14.00">5,8 (Ulric Food)</text>
</g>
<!-- 5,8 (Ulric Food)&#45;&gt;&#45;1,10 (Iron Plates) -->
<g id="edge4" class="edge">
<title>5,8 (Ulric Food)&#45;&gt;&#45;1,10 (Iron Plates)</title>
<path fill="none" stroke="black" stroke-width="1.47" d="M1102.93,-459.33C942.63,-459.33 591.37,-459.33 415.12,-459.33"/>
<polygon fill="black" stroke="black" stroke-width="1.47" points="415.06,-455.83 405.06,-459.33 415.06,-462.83 415.06,-455.83"/>
<text text-anchor="middle" x="688.03" y="-463.13" font-family="Times,serif" font-size="14.00">sand&#45;casting*20080</text>
</g>
<!-- 3,9 (Copper, molten &amp; plate) -->
<g id="node4" class="node">
<title>3,9 (Copper, molten &amp; plate)</title>
<ellipse fill="none" stroke="black" cx="795.52" cy="-233.22" rx="143.77" ry="18"/>
<text text-anchor="middle" x="795.52" y="-229.52" font-family="Times,serif" font-size="14.00">3,9 (Copper, molten &amp; plate)</text>
</g>
<!-- 5,8 (Ulric Food)&#45;&gt;3,9 (Copper, molten &amp; plate) -->
<g id="edge2" class="edge">
<title>5,8 (Ulric Food)&#45;&gt;3,9 (Copper, molten &amp; plate)</title>
<path fill="none" stroke="black" stroke-width="1.18" d="M1156.8,-442.33C1087.49,-402.22 913.65,-301.59 835.12,-256.14"/>
<polygon fill="black" stroke="black" stroke-width="1.18" points="836.44,-252.86 826.03,-250.88 832.93,-258.91 836.44,-252.86"/>
<text text-anchor="middle" x="924.96" y="-353.04" font-family="Times,serif" font-size="14.00">sand&#45;casting*16160</text>
</g>
<!-- &#45;1,11 (Steel Plate (from molten)) -->
<g id="node5" class="node">
<title>&#45;1,11 (Steel Plate (from molten))</title>
<ellipse fill="none" stroke="black" cx="1091.52" cy="-18" rx="161.37" ry="18"/>
<text text-anchor="middle" x="1091.52" y="-14.3" font-family="Times,serif" font-size="14.00">&#45;1,11 (Steel Plate (from molten))</text>
</g>
<!-- 5,8 (Ulric Food)&#45;&gt;&#45;1,11 (Steel Plate (from molten)) -->
<g id="edge3" class="edge">
<title>5,8 (Ulric Food)&#45;&gt;&#45;1,11 (Steel Plate (from molten))</title>
<path fill="none" stroke="black" stroke-width="4.42" d="M1182.27,-441.21C1167.58,-372.68 1115.35,-129.09 1097.53,-46"/>
<polygon fill="black" stroke="black" stroke-width="4.42" points="1101.27,-45 1095.39,-36.03 1093.71,-46.62 1101.27,-45"/>
<text text-anchor="middle" x="1068.9" y="-247.4" font-family="Times,serif" font-size="14.00">sand&#45;casting*60280</text>
</g>
<!-- 2,&#45;2 (Tin Plate, Organic Solvent) -->
<g id="node6" class="node">
<title>2,&#45;2 (Tin Plate, Organic Solvent)</title>
<ellipse fill="none" stroke="black" cx="1462.76" cy="-102.65" rx="159.77" ry="18"/>
<text text-anchor="middle" x="1462.76" y="-98.95" font-family="Times,serif" font-size="14.00">2,&#45;2 (Tin Plate, Organic Solvent)</text>
</g>
<!-- 5,8 (Ulric Food)&#45;&gt;2,&#45;2 (Tin Plate, Organic Solvent) -->
<g id="edge5" class="edge">
<title>5,8 (Ulric Food)&#45;&gt;2,&#45;2 (Tin Plate, Organic Solvent)</title>
<path fill="none" stroke="black" stroke-width="0.3" d="M1200.26,-441.15C1245.76,-382.48 1388.87,-197.94 1442.34,-128.99"/>
<polygon fill="black" stroke="black" stroke-width="0.3" points="1445.33,-130.84 1448.69,-120.79 1439.8,-126.55 1445.33,-130.84"/>
<text text-anchor="middle" x="1254.8" y="-288.87" font-family="Times,serif" font-size="14.00">sand&#45;casting*4080</text>
</g>
<!-- 4,13 (Chromium processing) -->
<g id="node7" class="node">
<title>4,13 (Chromium processing)</title>
<ellipse fill="none" stroke="black" cx="1636.06" cy="-422.97" rx="142.97" ry="18"/>
<text text-anchor="middle" x="1636.06" y="-419.27" font-family="Times,serif" font-size="14.00">4,13 (Chromium processing)</text>
</g>
<!-- 5,8 (Ulric Food)&#45;&gt;4,13 (Chromium processing) -->
<g id="edge6" class="edge">
<title>5,8 (Ulric Food)&#45;&gt;4,13 (Chromium processing)</title>
<path fill="none" stroke="black" stroke-width="0.44" d="M1264.27,-453.02C1330.49,-447.67 1426.87,-439.88 1504.9,-433.57"/>
<polygon fill="black" stroke="black" stroke-width="0.44" points="1505.61,-437.03 1515.3,-432.73 1505.05,-430.05 1505.61,-437.03"/>
<text text-anchor="middle" x="1451.09" y="-447.09" font-family="Times,serif" font-size="14.00">sand&#45;casting*6040</text>
</g>
<!-- 2,1 (Niobium plates) -->
<g id="node8" class="node">
<title>2,1 (Niobium plates)</title>
<ellipse fill="none" stroke="black" cx="1550.77" cy="-725.39" rx="105.88" ry="18"/>
<text text-anchor="middle" x="1550.77" y="-721.69" font-family="Times,serif" font-size="14.00">2,1 (Niobium plates)</text>
</g>
<!-- 5,8 (Ulric Food)&#45;&gt;2,1 (Niobium plates) -->
<g id="edge7" class="edge">
<title>5,8 (Ulric Food)&#45;&gt;2,1 (Niobium plates)</title>
<path fill="none" stroke="black" stroke-width="0.15" d="M1210.08,-476.79C1273.42,-523 1445.53,-648.59 1517.96,-701.44"/>
<polygon fill="black" stroke="black" stroke-width="0.15" points="1516.14,-704.45 1526.28,-707.52 1520.27,-698.8 1516.14,-704.45"/>
<text text-anchor="middle" x="1297.52" y="-592.91" font-family="Times,serif" font-size="14.00">sand&#45;casting*2040</text>
</g>
<!-- 4,3 (item=nexelit&#45;plate Nexelit platery) -->
<g id="node9" class="node">
<title>4,3 (item=nexelit&#45;plate Nexelit platery)</title>
<ellipse fill="none" stroke="black" cx="1238.24" cy="-907.68" rx="194.17" ry="18"/>
<text text-anchor="middle" x="1238.24" y="-903.98" font-family="Times,serif" font-size="14.00">4,3 (item=nexelit&#45;plate Nexelit platery)</text>
</g>
<!-- 5,8 (Ulric Food)&#45;&gt;4,3 (item=nexelit&#45;plate Nexelit platery) -->
<g id="edge8" class="edge">
<title>5,8 (Ulric Food)&#45;&gt;4,3 (item=nexelit&#45;plate Nexelit platery)</title>
<path fill="none" stroke="black" stroke-width="0.15" d="M1188.27,-477.46C1196.31,-546.67 1225.1,-794.59 1234.93,-879.17"/>
<polygon fill="black" stroke="black" stroke-width="0.15" points="1231.47,-879.79 1236.11,-889.32 1238.43,-878.98 1231.47,-879.79"/>
<text text-anchor="middle" x="1145.1" y="-682.12" font-family="Times,serif" font-size="14.00">sand&#45;casting*2000</text>
</g>
<!-- &#45;4,&#45;4 (Reserved For Aluminium Ore Drop, Aluminium) -->
<g id="node10" class="node">
<title>&#45;4,&#45;4 (Reserved For Aluminium Ore Drop, Aluminium)</title>
<ellipse fill="none" stroke="black" cx="795.52" cy="-685.44" rx="258.05" ry="18"/>
<text text-anchor="middle" x="795.52" y="-681.74" font-family="Times,serif" font-size="14.00">&#45;4,&#45;4 (Reserved For Aluminium Ore Drop, Aluminium)</text>
</g>
<!-- 5,8 (Ulric Food)&#45;&gt;&#45;4,&#45;4 (Reserved For Aluminium Ore Drop, Aluminium) -->
<g id="edge9" class="edge">
<title>5,8 (Ulric Food)&#45;&gt;&#45;4,&#45;4 (Reserved For Aluminium Ore Drop, Aluminium)</title>
<path fill="none" stroke="black" stroke-width="0.15" d="M1156.8,-476.33C1087.66,-516.35 914.5,-616.57 835.7,-662.19"/>
<polygon fill="black" stroke="black" stroke-width="0.15" points="833.47,-659.43 826.57,-667.47 836.98,-665.49 833.47,-659.43"/>
<text text-anchor="middle" x="929.75" y="-573.06" font-family="Times,serif" font-size="14.00">sand&#45;casting*2040</text>
</g>
</g>
</svg>
