<?xml version="1.0" encoding="UTF-8" standalone="no"?>
<!DOCTYPE svg PUBLIC "-//W3C//DTD SVG 1.1//EN"
 "http://www.w3.org/Graphics/SVG/1.1/DTD/svg11.dtd">
<!-- Generated by graphviz version 2.43.0 (0)
 -->
<!-- Title: %3 Pages: 1 -->
<svg width="804pt" height="643pt"
 viewBox="0.00 0.00 804.07 643.24" xmlns="http://www.w3.org/2000/svg" xmlns:xlink="http://www.w3.org/1999/xlink">
<g id="graph0" class="graph" transform="scale(1 1) rotate(0) translate(4 639.24)">
<title>%3</title>
<polygon fill="white" stroke="transparent" points="-4,4 -4,-639.24 800.07,-639.24 800.07,4 -4,4"/>
<!-- 3,0 (Zinc Chloride) -->
<g id="node1" class="node">
<title>3,0 (Zinc Chloride)</title>
<ellipse fill="none" stroke="black" cx="341.26" cy="-310.49" rx="97.48" ry="18"/>
<text text-anchor="middle" x="341.26" y="-306.79" font-family="Times,serif" font-size="14.00">3,0 (Zinc Chloride)</text>
</g>
<!-- 1,7 (Activated Carbon) -->
<g id="node2" class="node">
<title>1,7 (Activated Carbon)</title>
<ellipse fill="none" stroke="black" cx="680.38" cy="-310.49" rx="115.88" ry="18"/>
<text text-anchor="middle" x="680.38" y="-306.79" font-family="Times,serif" font-size="14.00">1,7 (Activated Carbon)</text>
</g>
<!-- 3,0 (Zinc Chloride)&#45;&gt;1,7 (Activated Carbon) -->
<g id="edge1" class="edge">
<title>3,0 (Zinc Chloride)&#45;&gt;1,7 (Activated Carbon)</title>
<path fill="none" stroke="black" stroke-width="1.35" d="M438.89,-310.49C474.91,-310.49 516.23,-310.49 554.4,-310.49"/>
<polygon fill="black" stroke="black" stroke-width="1.35" points="554.55,-313.99 564.55,-310.49 554.55,-306.99 554.55,-313.99"/>
<text text-anchor="middle" x="496.65" y="-299.29" font-family="Times,serif" font-size="14.00">zinc&#45;chloride*81142</text>
</g>
<!-- &#45;4,&#45;13 (Carbon activationer) -->
<g id="node3" class="node">
<title>&#45;4,&#45;13 (Carbon activationer)</title>
<ellipse fill="none" stroke="black" cx="196.64" cy="-617.24" rx="139.18" ry="18"/>
<text text-anchor="middle" x="196.64" y="-613.54" font-family="Times,serif" font-size="14.00">&#45;4,&#45;13 (Carbon activationer)</text>
</g>
<!-- 3,0 (Zinc Chloride)&#45;&gt;&#45;4,&#45;13 (Carbon activationer) -->
<g id="edge2" class="edge">
<title>3,0 (Zinc Chloride)&#45;&gt;&#45;4,&#45;13 (Carbon activationer)</title>
<path fill="none" stroke="black" stroke-width="1.44" d="M332.64,-328.76C308.23,-380.55 238.47,-528.52 209.5,-589.97"/>
<polygon fill="black" stroke="black" stroke-width="1.44" points="206.31,-588.53 205.21,-599.06 212.64,-591.51 206.31,-588.53"/>
<text text-anchor="middle" x="199.57" y="-463.17" font-family="Times,serif" font-size="14.00">zinc&#45;chloride*86389</text>
</g>
<!-- 2,4 (Formica and Phenolic boards) -->
<g id="node4" class="node">
<title>2,4 (Formica and Phenolic boards)</title>
<ellipse fill="none" stroke="black" cx="169.63" cy="-18" rx="169.77" ry="18"/>
<text text-anchor="middle" x="169.63" y="-14.3" font-family="Times,serif" font-size="14.00">2,4 (Formica and Phenolic boards)</text>
</g>
<!-- 3,0 (Zinc Chloride)&#45;&gt;2,4 (Formica and Phenolic boards) -->
<g id="edge3" class="edge">
<title>3,0 (Zinc Chloride)&#45;&gt;2,4 (Formica and Phenolic boards)</title>
<path fill="none" stroke="black" stroke-width="0.21" d="M330.52,-292.2C301.27,-242.34 220.02,-103.88 185.49,-45.03"/>
<polygon fill="black" stroke="black" stroke-width="0.21" points="188.45,-43.14 180.37,-36.29 182.41,-46.69 188.45,-43.14"/>
<text text-anchor="middle" x="186.51" y="-172.41" font-family="Times,serif" font-size="14.00">zinc&#45;chloride*12688</text>
</g>
</g>
</svg>
