<?xml version="1.0" encoding="UTF-8" standalone="no"?>
<!DOCTYPE svg PUBLIC "-//W3C//DTD SVG 1.1//EN"
 "http://www.w3.org/Graphics/SVG/1.1/DTD/svg11.dtd">
<!-- Generated by graphviz version 2.43.0 (0)
 -->
<!-- Title: %3 Pages: 1 -->
<svg width="760pt" height="546pt"
 viewBox="0.00 0.00 759.65 545.79" xmlns="http://www.w3.org/2000/svg" xmlns:xlink="http://www.w3.org/1999/xlink">
<g id="graph0" class="graph" transform="scale(1 1) rotate(0) translate(4 541.79)">
<title>%3</title>
<polygon fill="white" stroke="transparent" points="-4,4 -4,-541.79 755.65,-541.79 755.65,4 -4,4"/>
<!-- 3,&#45;8 (Agar) -->
<g id="node1" class="node">
<title>3,&#45;8 (Agar)</title>
<ellipse fill="none" stroke="black" cx="506.05" cy="-18" rx="59.59" ry="18"/>
<text text-anchor="middle" x="506.05" y="-14.3" font-family="Times,serif" font-size="14.00">3,&#45;8 (Agar)</text>
</g>
<!-- &#45;5,0 (Petri dishes) -->
<g id="node2" class="node">
<title>&#45;5,0 (Petri dishes)</title>
<ellipse fill="none" stroke="black" cx="216.35" cy="-18" rx="92.88" ry="18"/>
<text text-anchor="middle" x="216.35" y="-14.3" font-family="Times,serif" font-size="14.00">&#45;5,0 (Petri dishes)</text>
</g>
<!-- 3,&#45;8 (Agar)&#45;&gt;&#45;5,0 (Petri dishes) -->
<g id="edge1" class="edge">
<title>3,&#45;8 (Agar)&#45;&gt;&#45;5,0 (Petri dishes)</title>
<path fill="none" stroke="black" stroke-width="1.52" d="M446.03,-18C409.51,-18 361.89,-18 319.48,-18"/>
<polygon fill="black" stroke="black" stroke-width="1.52" points="319.39,-14.5 309.39,-18 319.39,-21.5 319.39,-14.5"/>
<text text-anchor="middle" x="404" y="-6.8" font-family="Times,serif" font-size="14.00">agar*83680</text>
</g>
<!-- &#45;3,&#45;11 (Petri dish 2) -->
<g id="node4" class="node">
<title>&#45;3,&#45;11 (Petri dish 2)</title>
<ellipse fill="none" stroke="black" cx="650.91" cy="-268.89" rx="100.98" ry="18"/>
<text text-anchor="middle" x="650.91" y="-265.19" font-family="Times,serif" font-size="14.00">&#45;3,&#45;11 (Petri dish 2)</text>
</g>
<!-- 3,&#45;8 (Agar)&#45;&gt;&#45;3,&#45;11 (Petri dish 2) -->
<g id="edge3" class="edge">
<title>3,&#45;8 (Agar)&#45;&gt;&#45;3,&#45;11 (Petri dish 2)</title>
<path fill="none" stroke="black" stroke-width="2.3" d="M516.47,-36.04C541.57,-79.52 605.51,-190.26 635.25,-241.78"/>
<polygon fill="black" stroke="black" stroke-width="2.3" points="632.36,-243.77 640.39,-250.68 638.42,-240.27 632.36,-243.77"/>
<text text-anchor="middle" x="528.86" y="-142.71" font-family="Times,serif" font-size="14.00">agar*126160</text>
</g>
<!-- 0,0 (LE BUS) -->
<g id="node5" class="node">
<title>0,0 (LE BUS)</title>
<ellipse fill="none" stroke="black" cx="71.49" cy="-268.89" rx="71.49" ry="18"/>
<text text-anchor="middle" x="71.49" y="-265.19" font-family="Times,serif" font-size="14.00">0,0 (LE BUS)</text>
</g>
<!-- 3,&#45;8 (Agar)&#45;&gt;0,0 (LE BUS) -->
<g id="edge4" class="edge">
<title>3,&#45;8 (Agar)&#45;&gt;0,0 (LE BUS)</title>
<path fill="none" stroke="black" stroke-width="0.27" d="M478.21,-34.08C402.84,-77.59 194.77,-197.72 109.1,-247.18"/>
<polygon fill="black" stroke="black" stroke-width="0.27" points="107.15,-244.27 100.24,-252.3 110.65,-250.33 107.15,-244.27"/>
<text text-anchor="middle" x="251.15" y="-144.43" font-family="Times,serif" font-size="14.00">agar*14960</text>
</g>
<!-- &#45;1,&#45;10 (Petrier dish 2) -->
<g id="node6" class="node">
<title>&#45;1,&#45;10 (Petrier dish 2)</title>
<ellipse fill="none" stroke="black" cx="216.35" cy="-519.79" rx="110.48" ry="18"/>
<text text-anchor="middle" x="216.35" y="-516.09" font-family="Times,serif" font-size="14.00">&#45;1,&#45;10 (Petrier dish 2)</text>
</g>
<!-- 3,&#45;8 (Agar)&#45;&gt;&#45;1,&#45;10 (Petrier dish 2) -->
<g id="edge8" class="edge">
<title>3,&#45;8 (Agar)&#45;&gt;&#45;1,&#45;10 (Petrier dish 2)</title>
<path fill="none" stroke="black" stroke-width="0.46" d="M495.74,-35.86C452.32,-111.06 284.2,-402.26 231.94,-492.78"/>
<polygon fill="black" stroke="black" stroke-width="0.46" points="228.81,-491.21 226.84,-501.62 234.87,-494.71 228.81,-491.21"/>
<text text-anchor="middle" x="321.34" y="-253.12" font-family="Times,serif" font-size="14.00">agar*25120</text>
</g>
<!-- &#45;6,&#45;1 (item=agar Agar) -->
<g id="node3" class="node">
<title>&#45;6,&#45;1 (item=agar Agar)</title>
<ellipse fill="none" stroke="black" cx="506.05" cy="-519.79" rx="115.88" ry="18"/>
<text text-anchor="middle" x="506.05" y="-516.09" font-family="Times,serif" font-size="14.00">&#45;6,&#45;1 (item=agar Agar)</text>
</g>
<!-- &#45;6,&#45;1 (item=agar Agar)&#45;&gt;&#45;5,0 (Petri dishes) -->
<g id="edge2" class="edge">
<title>&#45;6,&#45;1 (item=agar Agar)&#45;&gt;&#45;5,0 (Petri dishes)</title>
<path fill="none" stroke="black" stroke-width="0.96" d="M495.57,-501.63C451.87,-425.95 284.06,-135.29 231.91,-44.95"/>
<polygon fill="black" stroke="black" stroke-width="0.96" points="234.85,-43.04 226.81,-36.13 228.78,-46.54 234.85,-43.04"/>
<text text-anchor="middle" x="321.24" y="-277.09" font-family="Times,serif" font-size="14.00">agar*52720</text>
</g>
<!-- &#45;6,&#45;1 (item=agar Agar)&#45;&gt;&#45;3,&#45;11 (Petri dish 2) -->
<g id="edge6" class="edge">
<title>&#45;6,&#45;1 (item=agar Agar)&#45;&gt;&#45;3,&#45;11 (Petri dish 2)</title>
<path fill="none" stroke="black" stroke-width="0.46" d="M516.47,-501.74C541.57,-458.27 605.51,-347.53 635.25,-296.01"/>
<polygon fill="black" stroke="black" stroke-width="0.46" points="638.42,-297.52 640.39,-287.11 632.36,-294.02 638.42,-297.52"/>
<text text-anchor="middle" x="533.36" y="-402.68" font-family="Times,serif" font-size="14.00">agar*25040</text>
</g>
<!-- &#45;6,&#45;1 (item=agar Agar)&#45;&gt;0,0 (LE BUS) -->
<g id="edge7" class="edge">
<title>&#45;6,&#45;1 (item=agar Agar)&#45;&gt;0,0 (LE BUS)</title>
<path fill="none" stroke="black" stroke-width="0.2" d="M475.84,-502.34C398.49,-457.69 193.47,-339.32 108.84,-290.46"/>
<polygon fill="black" stroke="black" stroke-width="0.2" points="110.49,-287.37 100.08,-285.4 106.99,-293.43 110.49,-287.37"/>
<text text-anchor="middle" x="249.84" y="-400.2" font-family="Times,serif" font-size="14.00">agar*10720</text>
</g>
<!-- &#45;6,&#45;1 (item=agar Agar)&#45;&gt;&#45;1,&#45;10 (Petrier dish 2) -->
<g id="edge5" class="edge">
<title>&#45;6,&#45;1 (item=agar Agar)&#45;&gt;&#45;1,&#45;10 (Petrier dish 2)</title>
<path fill="none" stroke="black" stroke-width="1.84" d="M390.3,-519.79C372.91,-519.79 354.94,-519.79 337.44,-519.79"/>
<polygon fill="black" stroke="black" stroke-width="1.84" points="337.2,-516.29 327.2,-519.79 337.2,-523.29 337.2,-516.29"/>
<text text-anchor="middle" x="340.37" y="-508.59" font-family="Times,serif" font-size="14.00">agar*101040</text>
</g>
</g>
</svg>
