<?xml version="1.0" encoding="UTF-8" standalone="no"?>
<!DOCTYPE svg PUBLIC "-//W3C//DTD SVG 1.1//EN"
 "http://www.w3.org/Graphics/SVG/1.1/DTD/svg11.dtd">
<!-- Generated by graphviz version 2.43.0 (0)
 -->
<!-- Title: %3 Pages: 1 -->
<svg width="1029pt" height="1065pt"
 viewBox="0.00 0.00 1029.03 1064.95" xmlns="http://www.w3.org/2000/svg" xmlns:xlink="http://www.w3.org/1999/xlink">
<g id="graph0" class="graph" transform="scale(1 1) rotate(0) translate(4 1060.95)">
<title>%3</title>
<polygon fill="white" stroke="transparent" points="-4,4 -4,-1060.95 1025.03,-1060.95 1025.03,4 -4,4"/>
<!-- 3,7 (Wood) -->
<g id="node1" class="node">
<title>3,7 (Wood)</title>
<ellipse fill="none" stroke="black" cx="560.38" cy="-541.26" rx="61.19" ry="18"/>
<text text-anchor="middle" x="560.38" y="-537.56" font-family="Times,serif" font-size="14.00">3,7 (Wood)</text>
</g>
<!-- 6,&#45;2 (item=yaedols Yaedlols (self priming)) -->
<g id="node2" class="node">
<title>6,&#45;2 (item=yaedols Yaedlols (self priming))</title>
<ellipse fill="none" stroke="black" cx="265.09" cy="-18" rx="208.76" ry="18"/>
<text text-anchor="middle" x="265.09" y="-14.3" font-family="Times,serif" font-size="14.00">6,&#45;2 (item=yaedols Yaedlols (self priming))</text>
</g>
<!-- 3,7 (Wood)&#45;&gt;6,&#45;2 (item=yaedols Yaedlols (self priming)) -->
<g id="edge1" class="edge">
<title>3,7 (Wood)&#45;&gt;6,&#45;2 (item=yaedols Yaedlols (self priming))</title>
<path fill="none" stroke="black" stroke-width="4.61" d="M550.22,-523.25C506.34,-445.5 333.02,-138.38 280.35,-45.05"/>
<polygon fill="black" stroke="black" stroke-width="4.61" points="283.79,-42.93 275.36,-36.21 276.76,-46.9 283.79,-42.93"/>
<text text-anchor="middle" x="464.78" y="-287.95" font-family="Times,serif" font-size="14.00">wood*125840</text>
</g>
<!-- &#45;6,4 (Urea) -->
<g id="node3" class="node">
<title>&#45;6,4 (Urea)</title>
<ellipse fill="none" stroke="black" cx="592.13" cy="-93.93" rx="61.19" ry="18"/>
<text text-anchor="middle" x="592.13" y="-90.23" font-family="Times,serif" font-size="14.00">&#45;6,4 (Urea)</text>
</g>
<!-- 3,7 (Wood)&#45;&gt;&#45;6,4 (Urea) -->
<g id="edge2" class="edge">
<title>3,7 (Wood)&#45;&gt;&#45;6,4 (Urea)</title>
<path fill="none" stroke="black" stroke-width="1.48" d="M561.67,-523.17C566.57,-454.11 584.12,-206.76 590.11,-122.37"/>
<polygon fill="black" stroke="black" stroke-width="1.48" points="593.61,-122.47 590.83,-112.24 586.63,-121.97 593.61,-122.47"/>
<text text-anchor="middle" x="530.89" y="-326.57" font-family="Times,serif" font-size="14.00">wood*40360</text>
</g>
<!-- 0,0 (LE BUS) -->
<g id="node4" class="node">
<title>0,0 (LE BUS)</title>
<ellipse fill="none" stroke="black" cx="71.49" cy="-541.26" rx="71.49" ry="18"/>
<text text-anchor="middle" x="71.49" y="-537.56" font-family="Times,serif" font-size="14.00">0,0 (LE BUS)</text>
</g>
<!-- 3,7 (Wood)&#45;&gt;0,0 (LE BUS) -->
<g id="edge3" class="edge">
<title>3,7 (Wood)&#45;&gt;0,0 (LE BUS)</title>
<path fill="none" stroke="black" stroke-width="1.19" d="M498.96,-541.26C411.52,-541.26 250.99,-541.26 153.48,-541.26"/>
<polygon fill="black" stroke="black" stroke-width="1.19" points="153.37,-537.76 143.37,-541.26 153.37,-544.76 153.37,-537.76"/>
<text text-anchor="middle" x="281.22" y="-545.06" font-family="Times,serif" font-size="14.00">wood*32360</text>
</g>
<!-- 5,8 (Ulric Food) -->
<g id="node5" class="node">
<title>5,8 (Ulric Food)</title>
<ellipse fill="none" stroke="black" cx="315.94" cy="-296.82" rx="83.39" ry="18"/>
<text text-anchor="middle" x="315.94" y="-293.12" font-family="Times,serif" font-size="14.00">5,8 (Ulric Food)</text>
</g>
<!-- 3,7 (Wood)&#45;&gt;5,8 (Ulric Food) -->
<g id="edge10" class="edge">
<title>3,7 (Wood)&#45;&gt;5,8 (Ulric Food)</title>
<path fill="none" stroke="black" stroke-width="0.67" d="M542.8,-523.68C500.01,-480.89 390.3,-371.18 340.82,-321.69"/>
<polygon fill="black" stroke="black" stroke-width="0.67" points="343.23,-319.16 333.69,-314.57 338.28,-324.11 343.23,-319.16"/>
<text text-anchor="middle" x="396.81" y="-426.49" font-family="Times,serif" font-size="14.00">wood*18240</text>
</g>
<!-- &#45;3,4 (Lard from Cottonguts) -->
<g id="node6" class="node">
<title>&#45;3,4 (Lard from Cottonguts)</title>
<ellipse fill="none" stroke="black" cx="777.32" cy="-289.24" rx="139.18" ry="18"/>
<text text-anchor="middle" x="777.32" y="-285.54" font-family="Times,serif" font-size="14.00">&#45;3,4 (Lard from Cottonguts)</text>
</g>
<!-- 3,7 (Wood)&#45;&gt;&#45;3,4 (Lard from Cottonguts) -->
<g id="edge5" class="edge">
<title>3,7 (Wood)&#45;&gt;&#45;3,4 (Lard from Cottonguts)</title>
<path fill="none" stroke="black" stroke-width="0.37" d="M575.64,-523.54C613.35,-479.72 711.12,-366.15 755.2,-314.94"/>
<polygon fill="black" stroke="black" stroke-width="0.37" points="757.92,-317.14 761.79,-307.28 752.62,-312.58 757.92,-317.14"/>
<text text-anchor="middle" x="620.42" y="-423.04" font-family="Times,serif" font-size="14.00">wood*10000</text>
</g>
<!-- 3,6 (Phosphoric Acid and Phosphine gas) -->
<g id="node7" class="node">
<title>3,6 (Phosphoric Acid and Phosphine gas)</title>
<ellipse fill="none" stroke="black" cx="820.85" cy="-687.74" rx="200.36" ry="18"/>
<text text-anchor="middle" x="820.85" y="-684.04" font-family="Times,serif" font-size="14.00">3,6 (Phosphoric Acid and Phosphine gas)</text>
</g>
<!-- 3,7 (Wood)&#45;&gt;3,6 (Phosphoric Acid and Phosphine gas) -->
<g id="edge6" class="edge">
<title>3,7 (Wood)&#45;&gt;3,6 (Phosphoric Acid and Phosphine gas)</title>
<path fill="none" stroke="black" stroke-width="0.37" d="M588.75,-557.22C634.99,-583.22 726.78,-634.84 780.03,-664.78"/>
<polygon fill="black" stroke="black" stroke-width="0.37" points="778.43,-667.9 788.86,-669.75 781.86,-661.8 778.43,-667.9"/>
<text text-anchor="middle" x="639.39" y="-614.8" font-family="Times,serif" font-size="14.00">wood*10120</text>
</g>
<!-- &#45;3,7 (item=sea&#45;sponge&#45;sprouts Also Borax) -->
<g id="node8" class="node">
<title>&#45;3,7 (item=sea&#45;sponge&#45;sprouts Also Borax)</title>
<ellipse fill="none" stroke="black" cx="507.34" cy="-1030.91" rx="209.06" ry="18"/>
<text text-anchor="middle" x="507.34" y="-1027.21" font-family="Times,serif" font-size="14.00">&#45;3,7 (item=sea&#45;sponge&#45;sprouts Also Borax)</text>
</g>
<!-- 3,7 (Wood)&#45;&gt;&#45;3,7 (item=sea&#45;sponge&#45;sprouts Also Borax) -->
<g id="edge7" class="edge">
<title>3,7 (Wood)&#45;&gt;&#45;3,7 (item=sea&#45;sponge&#45;sprouts Also Borax)</title>
<path fill="none" stroke="black" stroke-width="1.1" d="M558.43,-559.27C550.44,-633.05 520.16,-912.57 510.39,-1002.71"/>
<polygon fill="black" stroke="black" stroke-width="1.1" points="506.91,-1002.42 509.31,-1012.74 513.87,-1003.17 506.91,-1002.42"/>
<text text-anchor="middle" x="579.41" y="-784.79" font-family="Times,serif" font-size="14.00">wood*30000</text>
</g>
<!-- 4,7 (Cottonguts) -->
<g id="node9" class="node">
<title>4,7 (Cottonguts)</title>
<ellipse fill="none" stroke="black" cx="146.55" cy="-1038.95" rx="87.18" ry="18"/>
<text text-anchor="middle" x="146.55" y="-1035.25" font-family="Times,serif" font-size="14.00">4,7 (Cottonguts)</text>
</g>
<!-- 3,7 (Wood)&#45;&gt;4,7 (Cottonguts) -->
<g id="edge8" class="edge">
<title>3,7 (Wood)&#45;&gt;4,7 (Cottonguts)</title>
<path fill="none" stroke="black" stroke-width="0.37" d="M545.65,-558.97C483.37,-633.87 241.47,-924.79 167.9,-1013.27"/>
<polygon fill="black" stroke="black" stroke-width="0.37" points="165.02,-1011.26 161.31,-1021.19 170.4,-1015.74 165.02,-1011.26"/>
<text text-anchor="middle" x="311.78" y="-789.92" font-family="Times,serif" font-size="14.00">wood*10000</text>
</g>
<!-- &#45;6,&#45;2 (item=fertilizer Fertiliser) -->
<g id="node10" class="node">
<title>&#45;6,&#45;2 (item=fertilizer Fertiliser)</title>
<ellipse fill="none" stroke="black" cx="315.94" cy="-785.71" rx="155.97" ry="18"/>
<text text-anchor="middle" x="315.94" y="-782.01" font-family="Times,serif" font-size="14.00">&#45;6,&#45;2 (item=fertilizer Fertiliser)</text>
</g>
<!-- 3,7 (Wood)&#45;&gt;&#45;6,&#45;2 (item=fertilizer Fertiliser) -->
<g id="edge9" class="edge">
<title>3,7 (Wood)&#45;&gt;&#45;6,&#45;2 (item=fertilizer Fertiliser)</title>
<path fill="none" stroke="black" stroke-width="0.22" d="M542.8,-558.84C500.11,-601.53 390.84,-710.81 341.18,-760.47"/>
<polygon fill="black" stroke="black" stroke-width="0.22" points="338.61,-758.08 334.02,-767.63 343.56,-763.03 338.61,-758.08"/>
<text text-anchor="middle" x="401.49" y="-663.45" font-family="Times,serif" font-size="14.00">wood*6120</text>
</g>
<!-- 0,0 (LE BUS)&#45;&gt;5,8 (Ulric Food) -->
<g id="edge4" class="edge">
<title>0,0 (LE BUS)&#45;&gt;5,8 (Ulric Food)</title>
<path fill="none" stroke="black" stroke-width="0.56" d="M89.07,-523.68C131.87,-480.89 241.57,-371.18 291.06,-321.69"/>
<polygon fill="black" stroke="black" stroke-width="0.56" points="293.59,-324.11 298.19,-314.57 288.64,-319.16 293.59,-324.11"/>
<text text-anchor="middle" x="145.07" y="-426.49" font-family="Times,serif" font-size="14.00">wood*15229</text>
</g>
<!-- 0,0 (LE BUS)&#45;&gt;&#45;6,&#45;2 (item=fertilizer Fertiliser) -->
<g id="edge11" class="edge">
<title>0,0 (LE BUS)&#45;&gt;&#45;6,&#45;2 (item=fertilizer Fertiliser)</title>
<path fill="none" stroke="black" stroke-width="0.07" d="M89.07,-558.84C131.76,-601.53 241.04,-710.81 290.7,-760.47"/>
<polygon fill="black" stroke="black" stroke-width="0.07" points="288.31,-763.03 297.86,-767.63 293.26,-758.08 288.31,-763.03"/>
<text text-anchor="middle" x="149.39" y="-663.45" font-family="Times,serif" font-size="14.00">wood*2016</text>
</g>
</g>
</svg>
