<?xml version="1.0" encoding="UTF-8" standalone="no"?>
<!DOCTYPE svg PUBLIC "-//W3C//DTD SVG 1.1//EN"
 "http://www.w3.org/Graphics/SVG/1.1/DTD/svg11.dtd">
<!-- Generated by graphviz version 2.43.0 (0)
 -->
<!-- Title: %3 Pages: 1 -->
<svg width="1222pt" height="946pt"
 viewBox="0.00 0.00 1222.16 946.01" xmlns="http://www.w3.org/2000/svg" xmlns:xlink="http://www.w3.org/1999/xlink">
<g id="graph0" class="graph" transform="scale(1 1) rotate(0) translate(4 942.01)">
<title>%3</title>
<polygon fill="white" stroke="transparent" points="-4,4 -4,-942.01 1218.16,-942.01 1218.16,4 -4,4"/>
<!-- &#45;3,2 (Lead and Solder) -->
<g id="node1" class="node">
<title>&#45;3,2 (Lead and Solder)</title>
<ellipse fill="none" stroke="black" cx="611.16" cy="-471.83" rx="113.98" ry="18"/>
<text text-anchor="middle" x="611.16" y="-468.13" font-family="Times,serif" font-size="14.00">&#45;3,2 (Lead and Solder)</text>
</g>
<!-- 0,9 (Auog Brains) -->
<g id="node2" class="node">
<title>0,9 (Auog Brains)</title>
<ellipse fill="none" stroke="black" cx="1122.52" cy="-471.83" rx="91.78" ry="18"/>
<text text-anchor="middle" x="1122.52" y="-468.13" font-family="Times,serif" font-size="14.00">0,9 (Auog Brains)</text>
</g>
<!-- &#45;3,2 (Lead and Solder)&#45;&gt;0,9 (Auog Brains) -->
<g id="edge1" class="edge">
<title>&#45;3,2 (Lead and Solder)&#45;&gt;0,9 (Auog Brains)</title>
<path fill="none" stroke="black" stroke-width="0.64" d="M724.96,-471.83C813.48,-471.83 935.19,-471.83 1020.55,-471.83"/>
<polygon fill="black" stroke="black" stroke-width="0.64" points="1020.78,-475.33 1030.78,-471.83 1020.78,-468.33 1020.78,-475.33"/>
<text text-anchor="middle" x="828.76" y="-475.63" font-family="Times,serif" font-size="14.00">solder*8064</text>
</g>
<!-- &#45;7,&#45;4 (Isomer&#39;s Slaughterhouse and Daycare Centre, Bone Meal) -->
<g id="node3" class="node">
<title>&#45;7,&#45;4 (Isomer&#39;s Slaughterhouse and Daycare Centre, Bone Meal)</title>
<ellipse fill="none" stroke="black" cx="862.8" cy="-916.99" rx="307.35" ry="18"/>
<text text-anchor="middle" x="862.8" y="-913.29" font-family="Times,serif" font-size="14.00">&#45;7,&#45;4 (Isomer&#39;s Slaughterhouse and Daycare Centre, Bone Meal)</text>
</g>
<!-- &#45;3,2 (Lead and Solder)&#45;&gt;&#45;7,&#45;4 (Isomer&#39;s Slaughterhouse and Daycare Centre, Bone Meal) -->
<g id="edge2" class="edge">
<title>&#45;3,2 (Lead and Solder)&#45;&gt;&#45;7,&#45;4 (Isomer&#39;s Slaughterhouse and Daycare Centre, Bone Meal)</title>
<path fill="none" stroke="black" stroke-width="1.13" d="M621.33,-489.83C660.38,-558.9 800.75,-807.22 847.52,-889.95"/>
<polygon fill="black" stroke="black" stroke-width="1.13" points="844.53,-891.78 852.5,-898.76 850.62,-888.33 844.53,-891.78"/>
<text text-anchor="middle" x="685.93" y="-693.69" font-family="Times,serif" font-size="14.00">solder*14112</text>
</g>
<!-- 0,0 (LE BUS) -->
<g id="node4" class="node">
<title>0,0 (LE BUS)</title>
<ellipse fill="none" stroke="black" cx="364.93" cy="-920.01" rx="71.49" ry="18"/>
<text text-anchor="middle" x="364.93" y="-916.31" font-family="Times,serif" font-size="14.00">0,0 (LE BUS)</text>
</g>
<!-- &#45;3,2 (Lead and Solder)&#45;&gt;0,0 (LE BUS) -->
<g id="edge3" class="edge">
<title>&#45;3,2 (Lead and Solder)&#45;&gt;0,0 (LE BUS)</title>
<path fill="none" stroke="black" stroke-width="0.32" d="M601.2,-489.95C562.91,-559.65 425.02,-810.63 379.57,-893.35"/>
<polygon fill="black" stroke="black" stroke-width="0.32" points="376.49,-891.7 374.74,-902.15 382.62,-895.07 376.49,-891.7"/>
<text text-anchor="middle" x="446.39" y="-695.45" font-family="Times,serif" font-size="14.00">solder*4032</text>
</g>
<!-- 7,&#45;2 (item=guts Auog guts) -->
<g id="node5" class="node">
<title>7,&#45;2 (item=guts Auog guts)</title>
<ellipse fill="none" stroke="black" cx="137.14" cy="-663.65" rx="137.28" ry="18"/>
<text text-anchor="middle" x="137.14" y="-659.95" font-family="Times,serif" font-size="14.00">7,&#45;2 (item=guts Auog guts)</text>
</g>
<!-- &#45;3,2 (Lead and Solder)&#45;&gt;7,&#45;2 (item=guts Auog guts) -->
<g id="edge4" class="edge">
<title>&#45;3,2 (Lead and Solder)&#45;&gt;7,&#45;2 (item=guts Auog guts)</title>
<path fill="none" stroke="black" stroke-width="1.46" d="M569.51,-488.68C482.91,-523.73 283.62,-604.38 188.92,-642.7"/>
<polygon fill="black" stroke="black" stroke-width="1.46" points="187.5,-639.49 179.54,-646.49 190.13,-645.98 187.5,-639.49"/>
<text text-anchor="middle" x="330.71" y="-569.49" font-family="Times,serif" font-size="14.00">solder*18240</text>
</g>
<!-- &#45;3,8 (Urea) -->
<g id="node6" class="node">
<title>&#45;3,8 (Urea)</title>
<ellipse fill="none" stroke="black" cx="119.57" cy="-330.99" rx="61.19" ry="18"/>
<text text-anchor="middle" x="119.57" y="-327.29" font-family="Times,serif" font-size="14.00">&#45;3,8 (Urea)</text>
</g>
<!-- &#45;3,2 (Lead and Solder)&#45;&gt;&#45;3,8 (Urea) -->
<g id="edge5" class="edge">
<title>&#45;3,2 (Lead and Solder)&#45;&gt;&#45;3,8 (Urea)</title>
<path fill="none" stroke="black" stroke-width="1.29" d="M555.72,-455.95C460.63,-428.7 267.6,-373.4 173.53,-346.45"/>
<polygon fill="black" stroke="black" stroke-width="1.29" points="174.23,-343.01 163.66,-343.62 172.3,-349.74 174.23,-343.01"/>
<text text-anchor="middle" x="316.13" y="-405" font-family="Times,serif" font-size="14.00">solder*16160</text>
</g>
<!-- &#45;4,1 (item=ulric Ulrics) -->
<g id="node7" class="node">
<title>&#45;4,1 (item=ulric Ulrics)</title>
<ellipse fill="none" stroke="black" cx="295.59" cy="-69.46" rx="118.08" ry="18"/>
<text text-anchor="middle" x="295.59" y="-65.76" font-family="Times,serif" font-size="14.00">&#45;4,1 (item=ulric Ulrics)</text>
</g>
<!-- &#45;3,2 (Lead and Solder)&#45;&gt;&#45;4,1 (item=ulric Ulrics) -->
<g id="edge6" class="edge">
<title>&#45;3,2 (Lead and Solder)&#45;&gt;&#45;4,1 (item=ulric Ulrics)</title>
<path fill="none" stroke="black" stroke-width="0.96" d="M596.99,-453.76C546.52,-389.41 375.43,-171.26 316.07,-95.58"/>
<polygon fill="black" stroke="black" stroke-width="0.96" points="318.65,-93.19 309.72,-87.48 313.14,-97.51 318.65,-93.19"/>
<text text-anchor="middle" x="408.03" y="-278.47" font-family="Times,serif" font-size="14.00">solder*12016</text>
</g>
<!-- &#45;1,6 (Flimble&#39;s Slaughterhouse and Daycare Centre, Auog Products) -->
<g id="node8" class="node">
<title>&#45;1,6 (Flimble&#39;s Slaughterhouse and Daycare Centre, Auog Products)</title>
<ellipse fill="none" stroke="black" cx="846.8" cy="-18" rx="325.74" ry="18"/>
<text text-anchor="middle" x="846.8" y="-14.3" font-family="Times,serif" font-size="14.00">&#45;1,6 (Flimble&#39;s Slaughterhouse and Daycare Centre, Auog Products)</text>
</g>
<!-- &#45;3,2 (Lead and Solder)&#45;&gt;&#45;1,6 (Flimble&#39;s Slaughterhouse and Daycare Centre, Auog Products) -->
<g id="edge7" class="edge">
<title>&#45;3,2 (Lead and Solder)&#45;&gt;&#45;1,6 (Flimble&#39;s Slaughterhouse and Daycare Centre, Auog Products)</title>
<path fill="none" stroke="black" stroke-width="1.2" d="M620.54,-453.76C656.97,-383.6 789.18,-128.98 832.76,-45.05"/>
<polygon fill="black" stroke="black" stroke-width="1.2" points="835.89,-46.61 837.39,-36.12 829.68,-43.38 835.89,-46.61"/>
<text text-anchor="middle" x="678.15" y="-253.2" font-family="Times,serif" font-size="14.00">solder*15072</text>
</g>
</g>
</svg>
