<?xml version="1.0" encoding="UTF-8" standalone="no"?>
<!DOCTYPE svg PUBLIC "-//W3C//DTD SVG 1.1//EN"
 "http://www.w3.org/Graphics/SVG/1.1/DTD/svg11.dtd">
<!-- Generated by graphviz version 2.43.0 (0)
 -->
<!-- Title: %3 Pages: 1 -->
<svg width="1141pt" height="44pt"
 viewBox="0.00 0.00 1140.56 44.00" xmlns="http://www.w3.org/2000/svg" xmlns:xlink="http://www.w3.org/1999/xlink">
<g id="graph0" class="graph" transform="scale(1 1) rotate(0) translate(4 40)">
<title>%3</title>
<polygon fill="white" stroke="transparent" points="-4,4 -4,-40 1136.56,-40 1136.56,4 -4,4"/>
<!-- &#45;2,5 (Rare Earth Oxides) -->
<g id="node1" class="node">
<title>&#45;2,5 (Rare Earth Oxides)</title>
<ellipse fill="none" stroke="black" cx="595.2" cy="-18" rx="124.28" ry="18"/>
<text text-anchor="middle" x="595.2" y="-14.3" font-family="Times,serif" font-size="14.00">&#45;2,5 (Rare Earth Oxides)</text>
</g>
<!-- 6,4 (Electronic components) -->
<g id="node2" class="node">
<title>6,4 (Electronic components)</title>
<ellipse fill="none" stroke="black" cx="990.87" cy="-18" rx="141.88" ry="18"/>
<text text-anchor="middle" x="990.87" y="-14.3" font-family="Times,serif" font-size="14.00">6,4 (Electronic components)</text>
</g>
<!-- &#45;2,5 (Rare Earth Oxides)&#45;&gt;6,4 (Electronic components) -->
<g id="edge1" class="edge">
<title>&#45;2,5 (Rare Earth Oxides)&#45;&gt;6,4 (Electronic components)</title>
<path fill="none" stroke="black" stroke-width="0.37" d="M719.58,-18C757.41,-18 799.42,-18 838.86,-18"/>
<polygon fill="black" stroke="black" stroke-width="0.37" points="839.09,-21.5 849.09,-18 839.09,-14.5 839.09,-21.5"/>
<text text-anchor="middle" x="812.72" y="-21.8" font-family="Times,serif" font-size="14.00">reo*2080</text>
</g>
<!-- 4,6 (Circuit substrate and Doped silicon) -->
<g id="node3" class="node">
<title>4,6 (Circuit substrate and Doped silicon)</title>
<ellipse fill="none" stroke="black" cx="199.53" cy="-18" rx="199.56" ry="18"/>
<text text-anchor="middle" x="199.53" y="-14.3" font-family="Times,serif" font-size="14.00">4,6 (Circuit substrate and Doped silicon)</text>
</g>
<!-- &#45;2,5 (Rare Earth Oxides)&#45;&gt;4,6 (Circuit substrate and Doped silicon) -->
<g id="edge2" class="edge">
<title>&#45;2,5 (Rare Earth Oxides)&#45;&gt;4,6 (Circuit substrate and Doped silicon)</title>
<path fill="none" stroke="black" stroke-width="1.63" d="M470.83,-18C451.07,-18 430.17,-18 409.1,-18"/>
<polygon fill="black" stroke="black" stroke-width="1.63" points="409.08,-14.5 399.08,-18 409.08,-21.5 409.08,-14.5"/>
<text text-anchor="middle" x="439.96" y="-6.8" font-family="Times,serif" font-size="14.00">reo*9200</text>
</g>
</g>
</svg>
