<?xml version="1.0" encoding="UTF-8" standalone="no"?>
<!DOCTYPE svg PUBLIC "-//W3C//DTD SVG 1.1//EN"
 "http://www.w3.org/Graphics/SVG/1.1/DTD/svg11.dtd">
<!-- Generated by graphviz version 2.43.0 (0)
 -->
<!-- Title: %3 Pages: 1 -->
<svg width="714pt" height="44pt"
 viewBox="0.00 0.00 713.55 44.00" xmlns="http://www.w3.org/2000/svg" xmlns:xlink="http://www.w3.org/1999/xlink">
<g id="graph0" class="graph" transform="scale(1 1) rotate(0) translate(4 40)">
<title>%3</title>
<polygon fill="white" stroke="transparent" points="-4,4 -4,-40 709.55,-40 709.55,4 -4,4"/>
<!-- 4,&#45;1 (Fluid) -->
<g id="node1" class="node">
<title>4,&#45;1 (Fluid)</title>
<ellipse fill="none" stroke="black" cx="378.12" cy="-18" rx="61.99" ry="18"/>
<text text-anchor="middle" x="378.12" y="-14.3" font-family="Times,serif" font-size="14.00">4,&#45;1 (Fluid)</text>
</g>
<!-- 0,0 (LE BUS) -->
<g id="node2" class="node">
<title>0,0 (LE BUS)</title>
<ellipse fill="none" stroke="black" cx="634.06" cy="-18" rx="71.49" ry="18"/>
<text text-anchor="middle" x="634.06" y="-14.3" font-family="Times,serif" font-size="14.00">0,0 (LE BUS)</text>
</g>
<!-- 4,&#45;1 (Fluid)&#45;&gt;0,0 (LE BUS) -->
<g id="edge1" class="edge">
<title>4,&#45;1 (Fluid)&#45;&gt;0,0 (LE BUS)</title>
<path fill="none" stroke="black" stroke-width="0.42" d="M440.08,-18C473.75,-18 515.82,-18 552.16,-18"/>
<polygon fill="black" stroke="black" stroke-width="0.42" points="552.25,-21.5 562.25,-18 552.25,-14.5 552.25,-21.5"/>
<text text-anchor="middle" x="496.12" y="-6.8" font-family="Times,serif" font-size="14.00">liquid&#45;nitrogen&#45;barrel*3600</text>
</g>
<!-- 3,5 (Molybdenum plate) -->
<g id="node3" class="node">
<title>3,5 (Molybdenum plate)</title>
<ellipse fill="none" stroke="black" cx="122.19" cy="-18" rx="122.38" ry="18"/>
<text text-anchor="middle" x="122.19" y="-14.3" font-family="Times,serif" font-size="14.00">3,5 (Molybdenum plate)</text>
</g>
<!-- 4,&#45;1 (Fluid)&#45;&gt;3,5 (Molybdenum plate) -->
<g id="edge2" class="edge">
<title>4,&#45;1 (Fluid)&#45;&gt;3,5 (Molybdenum plate)</title>
<path fill="none" stroke="black" stroke-width="1.58" d="M316.17,-18C297.46,-18 276.16,-18 254.68,-18"/>
<polygon fill="black" stroke="black" stroke-width="1.58" points="254.48,-14.5 244.48,-18 254.48,-21.5 254.48,-14.5"/>
<text text-anchor="middle" x="388.43" y="-21.8" font-family="Times,serif" font-size="14.00">liquid&#45;nitrogen&#45;barrel*13680</text>
</g>
</g>
</svg>
