<?xml version="1.0" encoding="UTF-8" standalone="no"?>
<!DOCTYPE svg PUBLIC "-//W3C//DTD SVG 1.1//EN"
 "http://www.w3.org/Graphics/SVG/1.1/DTD/svg11.dtd">
<!-- Generated by graphviz version 2.43.0 (0)
 -->
<!-- Title: %3 Pages: 1 -->
<svg width="1020pt" height="806pt"
 viewBox="0.00 0.00 1019.73 805.98" xmlns="http://www.w3.org/2000/svg" xmlns:xlink="http://www.w3.org/1999/xlink">
<g id="graph0" class="graph" transform="scale(1 1) rotate(0) translate(4 801.98)">
<title>%3</title>
<polygon fill="white" stroke="transparent" points="-4,4 -4,-801.98 1015.73,-801.98 1015.73,4 -4,4"/>
<!-- 2,8 (Graphite) -->
<g id="node1" class="node">
<title>2,8 (Graphite)</title>
<ellipse fill="none" stroke="black" cx="491.92" cy="-400.45" rx="76.09" ry="18"/>
<text text-anchor="middle" x="491.92" y="-396.75" font-family="Times,serif" font-size="14.00">2,8 (Graphite)</text>
</g>
<!-- &#45;3,2 (Lead and Solder) -->
<g id="node2" class="node">
<title>&#45;3,2 (Lead and Solder)</title>
<ellipse fill="none" stroke="black" cx="897.99" cy="-400.45" rx="113.98" ry="18"/>
<text text-anchor="middle" x="897.99" y="-396.75" font-family="Times,serif" font-size="14.00">&#45;3,2 (Lead and Solder)</text>
</g>
<!-- 2,8 (Graphite)&#45;&gt;&#45;3,2 (Lead and Solder) -->
<g id="edge1" class="edge">
<title>2,8 (Graphite)&#45;&gt;&#45;3,2 (Lead and Solder)</title>
<path fill="none" stroke="black" stroke-width="0.19" d="M568.3,-400.45C626.1,-400.45 706.7,-400.45 773.74,-400.45"/>
<polygon fill="black" stroke="black" stroke-width="0.19" points="773.95,-403.95 783.95,-400.45 773.95,-396.95 773.95,-403.95"/>
<text text-anchor="middle" x="727.52" y="-404.25" font-family="Times,serif" font-size="14.00">graphite*12208</text>
</g>
<!-- &#45;4,&#45;4 (Reserved For Aluminium Ore Drop, Aluminium) -->
<g id="node3" class="node">
<title>&#45;4,&#45;4 (Reserved For Aluminium Ore Drop, Aluminium)</title>
<ellipse fill="none" stroke="black" cx="636.31" cy="-779.98" rx="258.05" ry="18"/>
<text text-anchor="middle" x="636.31" y="-776.28" font-family="Times,serif" font-size="14.00">&#45;4,&#45;4 (Reserved For Aluminium Ore Drop, Aluminium)</text>
</g>
<!-- 2,8 (Graphite)&#45;&gt;&#45;4,&#45;4 (Reserved For Aluminium Ore Drop, Aluminium) -->
<g id="edge2" class="edge">
<title>2,8 (Graphite)&#45;&gt;&#45;4,&#45;4 (Reserved For Aluminium Ore Drop, Aluminium)</title>
<path fill="none" stroke="black" stroke-width="3.32" d="M498.78,-418.5C522.02,-479.57 597.77,-678.68 625.78,-752.3"/>
<polygon fill="black" stroke="black" stroke-width="3.32" points="622.57,-753.72 629.4,-761.82 629.12,-751.23 622.57,-753.72"/>
<text text-anchor="middle" x="501.28" y="-589.2" font-family="Times,serif" font-size="14.00">graphite*216624</text>
</g>
<!-- 2,&#45;2 (Tin Plate, Organic Solvent) -->
<g id="node4" class="node">
<title>2,&#45;2 (Tin Plate, Organic Solvent)</title>
<ellipse fill="none" stroke="black" cx="159.89" cy="-634.22" rx="159.77" ry="18"/>
<text text-anchor="middle" x="159.89" y="-630.52" font-family="Times,serif" font-size="14.00">2,&#45;2 (Tin Plate, Organic Solvent)</text>
</g>
<!-- 2,8 (Graphite)&#45;&gt;2,&#45;2 (Tin Plate, Organic Solvent) -->
<g id="edge3" class="edge">
<title>2,8 (Graphite)&#45;&gt;2,&#45;2 (Tin Plate, Organic Solvent)</title>
<path fill="none" stroke="black" stroke-width="2.04" d="M467.5,-417.64C409.02,-458.81 260.83,-563.15 193.77,-610.37"/>
<polygon fill="black" stroke="black" stroke-width="2.04" points="191.4,-607.75 185.24,-616.37 195.43,-613.47 191.4,-607.75"/>
<text text-anchor="middle" x="269.64" y="-517.8" font-family="Times,serif" font-size="14.00">graphite*132768</text>
</g>
<!-- &#45;3,9 (Silicon Wafers) -->
<g id="node5" class="node">
<title>&#45;3,9 (Silicon Wafers)</title>
<ellipse fill="none" stroke="black" cx="107.51" cy="-269.59" rx="103.98" ry="18"/>
<text text-anchor="middle" x="107.51" y="-265.89" font-family="Times,serif" font-size="14.00">&#45;3,9 (Silicon Wafers)</text>
</g>
<!-- 2,8 (Graphite)&#45;&gt;&#45;3,9 (Silicon Wafers) -->
<g id="edge4" class="edge">
<title>2,8 (Graphite)&#45;&gt;&#45;3,9 (Silicon Wafers)</title>
<path fill="none" stroke="black" stroke-width="0.22" d="M448.2,-385.57C378.37,-361.8 241.7,-315.28 164.38,-288.95"/>
<polygon fill="black" stroke="black" stroke-width="0.22" points="165.38,-285.6 154.79,-285.69 163.13,-292.22 165.38,-285.6"/>
<text text-anchor="middle" x="249.79" y="-341.06" font-family="Times,serif" font-size="14.00">graphite*14528</text>
</g>
<!-- 4,13 (Chromium processing) -->
<g id="node6" class="node">
<title>4,13 (Chromium processing)</title>
<ellipse fill="none" stroke="black" cx="355.45" cy="-18" rx="142.97" ry="18"/>
<text text-anchor="middle" x="355.45" y="-14.3" font-family="Times,serif" font-size="14.00">4,13 (Chromium processing)</text>
</g>
<!-- 2,8 (Graphite)&#45;&gt;4,13 (Chromium processing) -->
<g id="edge5" class="edge">
<title>2,8 (Graphite)&#45;&gt;4,13 (Chromium processing)</title>
<path fill="none" stroke="black" stroke-width="0.2" d="M485.43,-382.26C463.47,-320.73 391.88,-120.09 365.41,-45.9"/>
<polygon fill="black" stroke="black" stroke-width="0.2" points="368.64,-44.54 361.98,-36.3 362.05,-46.9 368.64,-44.54"/>
<text text-anchor="middle" x="368.92" y="-217.88" font-family="Times,serif" font-size="14.00">graphite*12720</text>
</g>
<!-- 6,4 (Electronic components) -->
<g id="node7" class="node">
<title>6,4 (Electronic components)</title>
<ellipse fill="none" stroke="black" cx="737.68" cy="-77.2" rx="141.88" ry="18"/>
<text text-anchor="middle" x="737.68" y="-73.5" font-family="Times,serif" font-size="14.00">6,4 (Electronic components)</text>
</g>
<!-- 2,8 (Graphite)&#45;&gt;6,4 (Electronic components) -->
<g id="edge6" class="edge">
<title>2,8 (Graphite)&#45;&gt;6,4 (Electronic components)</title>
<path fill="none" stroke="black" stroke-width="0.04" d="M505.48,-382.61C546.42,-328.76 668.92,-167.63 717.51,-103.73"/>
<polygon fill="black" stroke="black" stroke-width="0.04" points="720.59,-105.46 723.86,-95.38 715.02,-101.22 720.59,-105.46"/>
<text text-anchor="middle" x="559.49" y="-246.97" font-family="Times,serif" font-size="14.00">graphite*2336</text>
</g>
</g>
</svg>
