<?xml version="1.0" encoding="UTF-8" standalone="no"?>
<!DOCTYPE svg PUBLIC "-//W3C//DTD SVG 1.1//EN"
 "http://www.w3.org/Graphics/SVG/1.1/DTD/svg11.dtd">
<!-- Generated by graphviz version 2.43.0 (0)
 -->
<!-- Title: %3 Pages: 1 -->
<svg width="791pt" height="437pt"
 viewBox="0.00 0.00 790.72 436.89" xmlns="http://www.w3.org/2000/svg" xmlns:xlink="http://www.w3.org/1999/xlink">
<g id="graph0" class="graph" transform="scale(1 1) rotate(0) translate(4 432.89)">
<title>%3</title>
<polygon fill="white" stroke="transparent" points="-4,4 -4,-432.89 786.72,-432.89 786.72,4 -4,4"/>
<!-- 9,0 (Iron / Nickel mine) -->
<g id="node1" class="node">
<title>9,0 (Iron / Nickel mine)</title>
<ellipse fill="none" stroke="black" cx="301.09" cy="-410.89" rx="118.08" ry="18"/>
<text text-anchor="middle" x="301.09" y="-407.19" font-family="Times,serif" font-size="14.00">9,0 (Iron / Nickel mine)</text>
</g>
<!-- &#45;6,7 (Iron ore dust) -->
<g id="node2" class="node">
<title>&#45;6,7 (Iron ore dust)</title>
<ellipse fill="none" stroke="black" cx="497.54" cy="-214.45" rx="98.58" ry="18"/>
<text text-anchor="middle" x="497.54" y="-210.75" font-family="Times,serif" font-size="14.00">&#45;6,7 (Iron ore dust)</text>
</g>
<!-- 9,0 (Iron / Nickel mine)&#45;&gt;&#45;6,7 (Iron ore dust) -->
<g id="edge1" class="edge">
<title>9,0 (Iron / Nickel mine)&#45;&gt;&#45;6,7 (Iron ore dust)</title>
<path fill="none" stroke="black" stroke-width="3.07" d="M319.22,-392.77C354.39,-357.59 431.97,-280.02 472.21,-239.78"/>
<polygon fill="black" stroke="black" stroke-width="3.07" points="475.14,-241.8 479.73,-232.25 470.19,-236.85 475.14,-241.8"/>
<text text-anchor="middle" x="336.71" y="-320.07" font-family="Times,serif" font-size="14.00">iron&#45;ore*605280</text>
</g>
<!-- 1,10 (Iron Ore Dust) -->
<g id="node3" class="node">
<title>1,10 (Iron Ore Dust)</title>
<ellipse fill="none" stroke="black" cx="104.64" cy="-214.45" rx="104.78" ry="18"/>
<text text-anchor="middle" x="104.64" y="-210.75" font-family="Times,serif" font-size="14.00">1,10 (Iron Ore Dust)</text>
</g>
<!-- 9,0 (Iron / Nickel mine)&#45;&gt;1,10 (Iron Ore Dust) -->
<g id="edge2" class="edge">
<title>9,0 (Iron / Nickel mine)&#45;&gt;1,10 (Iron Ore Dust)</title>
<path fill="none" stroke="black" stroke-width="0.41" d="M282.96,-392.77C247.78,-357.59 170.21,-280.02 129.97,-239.78"/>
<polygon fill="black" stroke="black" stroke-width="0.41" points="131.99,-236.85 122.44,-232.25 127.04,-241.8 131.99,-236.85"/>
<text text-anchor="middle" x="151.96" y="-320.07" font-family="Times,serif" font-size="14.00">iron&#45;ore*80880</text>
</g>
<!-- &#45;10,&#45;4 () -->
<g id="node4" class="node">
<title>&#45;10,&#45;4 ()</title>
<ellipse fill="none" stroke="black" cx="301.09" cy="-18" rx="46.59" ry="18"/>
<text text-anchor="middle" x="301.09" y="-14.3" font-family="Times,serif" font-size="14.00">&#45;10,&#45;4 ()</text>
</g>
<!-- &#45;10,&#45;4 ()&#45;&gt;&#45;6,7 (Iron ore dust) -->
<g id="edge3" class="edge">
<title>&#45;10,&#45;4 ()&#45;&gt;&#45;6,7 (Iron ore dust)</title>
<path fill="none" stroke="black" stroke-width="0.97" d="M318.18,-35.09C352.98,-69.89 432.19,-149.1 472.69,-189.6"/>
<polygon fill="black" stroke="black" stroke-width="0.97" points="470.23,-192.1 479.78,-196.69 475.18,-187.15 470.23,-192.1"/>
<text text-anchor="middle" x="336.43" y="-116.14" font-family="Times,serif" font-size="14.00">iron&#45;ore*191376</text>
</g>
<!-- &#45;10,&#45;4 ()&#45;&gt;1,10 (Iron Ore Dust) -->
<g id="edge5" class="edge">
<title>&#45;10,&#45;4 ()&#45;&gt;1,10 (Iron Ore Dust)</title>
<path fill="none" stroke="black" stroke-width="0.41" d="M284,-35.09C249.2,-69.89 169.99,-149.1 129.49,-189.6"/>
<polygon fill="black" stroke="black" stroke-width="0.41" points="126.99,-187.15 122.4,-196.69 131.94,-192.1 126.99,-187.15"/>
<text text-anchor="middle" x="152.24" y="-116.14" font-family="Times,serif" font-size="14.00">iron&#45;ore*80848</text>
</g>
<!-- 2,13 (Polybutadiene) -->
<g id="node5" class="node">
<title>2,13 (Polybutadiene)</title>
<ellipse fill="none" stroke="black" cx="676.13" cy="-214.45" rx="106.68" ry="18"/>
<text text-anchor="middle" x="676.13" y="-210.75" font-family="Times,serif" font-size="14.00">2,13 (Polybutadiene)</text>
</g>
<!-- 2,13 (Polybutadiene)&#45;&gt;&#45;6,7 (Iron ore dust) -->
<g id="edge4" class="edge">
<title>2,13 (Polybutadiene)&#45;&gt;&#45;6,7 (Iron ore dust)</title>
<path fill="none" stroke="black" stroke-width="0.13" d="M569.4,-214.45C569.33,-214.45 569.25,-214.45 569.18,-214.45"/>
<polygon fill="black" stroke="black" stroke-width="0.13" points="578.96,-210.95 568.96,-214.45 578.96,-217.95 578.96,-210.95"/>
<text text-anchor="middle" x="514.79" y="-218.25" font-family="Times,serif" font-size="14.00">iron&#45;ore*26592</text>
</g>
</g>
</svg>
