<?xml version="1.0" encoding="UTF-8" standalone="no"?>
<!DOCTYPE svg PUBLIC "-//W3C//DTD SVG 1.1//EN"
 "http://www.w3.org/Graphics/SVG/1.1/DTD/svg11.dtd">
<!-- Generated by graphviz version 2.43.0 (0)
 -->
<!-- Title: %3 Pages: 1 -->
<svg width="1310pt" height="948pt"
 viewBox="0.00 0.00 1309.83 947.62" xmlns="http://www.w3.org/2000/svg" xmlns:xlink="http://www.w3.org/1999/xlink">
<g id="graph0" class="graph" transform="scale(1 1) rotate(0) translate(4 943.62)">
<title>%3</title>
<polygon fill="white" stroke="transparent" points="-4,4 -4,-943.62 1305.83,-943.62 1305.83,4 -4,4"/>
<!-- 10,7 (Sulfur) -->
<g id="node1" class="node">
<title>10,7 (Sulfur)</title>
<ellipse fill="none" stroke="black" cx="789.91" cy="-472.83" rx="69.59" ry="18"/>
<text text-anchor="middle" x="789.91" y="-469.13" font-family="Times,serif" font-size="14.00">10,7 (Sulfur)</text>
</g>
<!-- &#45;3,6 (Mining brick) -->
<g id="node2" class="node">
<title>&#45;3,6 (Mining brick)</title>
<ellipse fill="none" stroke="black" cx="141.06" cy="-488.52" rx="96.68" ry="18"/>
<text text-anchor="middle" x="141.06" y="-484.82" font-family="Times,serif" font-size="14.00">&#45;3,6 (Mining brick)</text>
</g>
<!-- 10,7 (Sulfur)&#45;&gt;&#45;3,6 (Mining brick) -->
<g id="edge1" class="edge">
<title>10,7 (Sulfur)&#45;&gt;&#45;3,6 (Mining brick)</title>
<path fill="none" stroke="black" stroke-width="0.28" d="M720.47,-474.51C607.04,-477.25 381.27,-482.71 247.5,-485.95"/>
<polygon fill="black" stroke="black" stroke-width="0.28" points="247.15,-482.45 237.24,-486.19 247.32,-489.45 247.15,-482.45"/>
<text text-anchor="middle" x="530.98" y="-484.03" font-family="Times,serif" font-size="14.00">sulfur*25040</text>
</g>
<!-- 2,0 (Sodium Sulfate) -->
<g id="node3" class="node">
<title>2,0 (Sodium Sulfate)</title>
<ellipse fill="none" stroke="black" cx="209.27" cy="-225.54" rx="106.68" ry="18"/>
<text text-anchor="middle" x="209.27" y="-221.84" font-family="Times,serif" font-size="14.00">2,0 (Sodium Sulfate)</text>
</g>
<!-- 10,7 (Sulfur)&#45;&gt;2,0 (Sodium Sulfate) -->
<g id="edge2" class="edge">
<title>10,7 (Sulfur)&#45;&gt;2,0 (Sodium Sulfate)</title>
<path fill="none" stroke="black" stroke-width="4.89" d="M753.58,-457.36C653.23,-414.62 372.07,-294.87 258.14,-246.35"/>
<polygon fill="black" stroke="black" stroke-width="4.89" points="259.49,-242.28 248.61,-242.3 256.14,-250.15 259.49,-242.28"/>
<text text-anchor="middle" x="454.36" y="-355.66" font-family="Times,serif" font-size="14.00">sulfur*444560</text>
</g>
<!-- 4,12 (Molten Glass) -->
<g id="node4" class="node">
<title>4,12 (Molten Glass)</title>
<ellipse fill="none" stroke="black" cx="413.82" cy="-39.25" rx="102.08" ry="18"/>
<text text-anchor="middle" x="413.82" y="-35.55" font-family="Times,serif" font-size="14.00">4,12 (Molten Glass)</text>
</g>
<!-- 10,7 (Sulfur)&#45;&gt;4,12 (Molten Glass) -->
<g id="edge3" class="edge">
<title>10,7 (Sulfur)&#45;&gt;4,12 (Molten Glass)</title>
<path fill="none" stroke="black" stroke-width="0.71" d="M774.46,-455.02C715.66,-387.24 505.62,-145.08 436.24,-65.1"/>
<polygon fill="black" stroke="black" stroke-width="0.71" points="438.8,-62.71 429.6,-57.45 433.51,-67.29 438.8,-62.71"/>
<text text-anchor="middle" x="558.35" y="-263.86" font-family="Times,serif" font-size="14.00">sulfur*64560</text>
</g>
<!-- &#45;5,2 (Optical fiber) -->
<g id="node5" class="node">
<title>&#45;5,2 (Optical fiber)</title>
<ellipse fill="none" stroke="black" cx="621.59" cy="-304.52" rx="96.38" ry="18"/>
<text text-anchor="middle" x="621.59" y="-300.82" font-family="Times,serif" font-size="14.00">&#45;5,2 (Optical fiber)</text>
</g>
<!-- 10,7 (Sulfur)&#45;&gt;&#45;5,2 (Optical fiber) -->
<g id="edge4" class="edge">
<title>10,7 (Sulfur)&#45;&gt;&#45;5,2 (Optical fiber)</title>
<path fill="none" stroke="black" stroke-width="0.63" d="M772.21,-455.13C742.16,-425.08 681.06,-363.98 646.63,-329.56"/>
<polygon fill="black" stroke="black" stroke-width="0.63" points="648.85,-326.82 639.3,-322.23 643.9,-331.77 648.85,-326.82"/>
<text text-anchor="middle" x="662.42" y="-396.14" font-family="Times,serif" font-size="14.00">sulfur*57520</text>
</g>
<!-- &#45;1,7 (Rayon) -->
<g id="node6" class="node">
<title>&#45;1,7 (Rayon)</title>
<ellipse fill="none" stroke="black" cx="621.59" cy="-641.14" rx="66.89" ry="18"/>
<text text-anchor="middle" x="621.59" y="-637.44" font-family="Times,serif" font-size="14.00">&#45;1,7 (Rayon)</text>
</g>
<!-- 10,7 (Sulfur)&#45;&gt;&#45;1,7 (Rayon) -->
<g id="edge5" class="edge">
<title>10,7 (Sulfur)&#45;&gt;&#45;1,7 (Rayon)</title>
<path fill="none" stroke="black" stroke-width="3.14" d="M772.21,-490.52C742.08,-520.65 680.74,-581.99 646.36,-616.37"/>
<polygon fill="black" stroke="black" stroke-width="3.14" points="643.65,-614.14 639.05,-623.68 648.6,-619.09 643.65,-614.14"/>
<text text-anchor="middle" x="657.79" y="-557.25" font-family="Times,serif" font-size="14.00">sulfur*285440</text>
</g>
<!-- 4,6 (Circuit substrate and Doped silicon) -->
<g id="node7" class="node">
<title>4,6 (Circuit substrate and Doped silicon)</title>
<ellipse fill="none" stroke="black" cx="777.45" cy="-18" rx="199.56" ry="18"/>
<text text-anchor="middle" x="777.45" y="-14.3" font-family="Times,serif" font-size="14.00">4,6 (Circuit substrate and Doped silicon)</text>
</g>
<!-- 10,7 (Sulfur)&#45;&gt;4,6 (Circuit substrate and Doped silicon) -->
<g id="edge6" class="edge">
<title>10,7 (Sulfur)&#45;&gt;4,6 (Circuit substrate and Doped silicon)</title>
<path fill="none" stroke="black" stroke-width="0.22" d="M789.41,-454.72C787.49,-384.76 780.56,-131.81 778.22,-46.4"/>
<polygon fill="black" stroke="black" stroke-width="0.22" points="781.72,-46.06 777.94,-36.16 774.72,-46.25 781.72,-46.06"/>
<text text-anchor="middle" x="736.82" y="-254.36" font-family="Times,serif" font-size="14.00">sulfur*19680</text>
</g>
<!-- &#45;5,&#45;8 (fluid=molten&#45;silver Even more silver) -->
<g id="node8" class="node">
<title>&#45;5,&#45;8 (fluid=molten&#45;silver Even more silver)</title>
<ellipse fill="none" stroke="black" cx="1089.3" cy="-361.41" rx="212.56" ry="18"/>
<text text-anchor="middle" x="1089.3" y="-357.71" font-family="Times,serif" font-size="14.00">&#45;5,&#45;8 (fluid=molten&#45;silver Even more silver)</text>
</g>
<!-- 10,7 (Sulfur)&#45;&gt;&#45;5,&#45;8 (fluid=molten&#45;silver Even more silver) -->
<g id="edge7" class="edge">
<title>10,7 (Sulfur)&#45;&gt;&#45;5,&#45;8 (fluid=molten&#45;silver Even more silver)</title>
<path fill="none" stroke="black" stroke-width="0.88" d="M829.66,-458.03C881.64,-438.69 973.05,-404.67 1032.37,-382.6"/>
<polygon fill="black" stroke="black" stroke-width="0.88" points="1033.81,-385.79 1041.96,-379.03 1031.37,-379.23 1033.81,-385.79"/>
<text text-anchor="middle" x="884.01" y="-424.11" font-family="Times,serif" font-size="14.00">sulfur*80240</text>
</g>
<!-- &#45;1,&#45;2 (Aramid fiber) -->
<g id="node10" class="node">
<title>&#45;1,&#45;2 (Aramid fiber)</title>
<ellipse fill="none" stroke="black" cx="1027.72" cy="-730.15" rx="99.38" ry="18"/>
<text text-anchor="middle" x="1027.72" y="-726.45" font-family="Times,serif" font-size="14.00">&#45;1,&#45;2 (Aramid fiber)</text>
</g>
<!-- 10,7 (Sulfur)&#45;&gt;&#45;1,&#45;2 (Aramid fiber) -->
<g id="edge9" class="edge">
<title>10,7 (Sulfur)&#45;&gt;&#45;1,&#45;2 (Aramid fiber)</title>
<path fill="none" stroke="black" stroke-width="0.32" d="M806.25,-490.52C847.58,-535.23 956.34,-652.92 1004.37,-704.88"/>
<polygon fill="black" stroke="black" stroke-width="0.32" points="1001.91,-707.38 1011.26,-712.34 1007.05,-702.62 1001.91,-707.38"/>
<text text-anchor="middle" x="858.31" y="-601.5" font-family="Times,serif" font-size="14.00">sulfur*28960</text>
</g>
<!-- &#45;7,&#45;2 (Uranium Processing) -->
<g id="node11" class="node">
<title>&#45;7,&#45;2 (Uranium Processing)</title>
<ellipse fill="none" stroke="black" cx="794.07" cy="-921.62" rx="135.68" ry="18"/>
<text text-anchor="middle" x="794.07" y="-917.92" font-family="Times,serif" font-size="14.00">&#45;7,&#45;2 (Uranium Processing)</text>
</g>
<!-- 10,7 (Sulfur)&#45;&gt;&#45;7,&#45;2 (Uranium Processing) -->
<g id="edge10" class="edge">
<title>10,7 (Sulfur)&#45;&gt;&#45;7,&#45;2 (Uranium Processing)</title>
<path fill="none" stroke="black" stroke-width="0.11" d="M790.07,-490.98C790.72,-560.26 793.02,-808.42 793.81,-893.08"/>
<polygon fill="black" stroke="black" stroke-width="0.11" points="790.31,-893.27 793.9,-903.24 797.31,-893.21 790.31,-893.27"/>
<text text-anchor="middle" x="744.94" y="-695.83" font-family="Times,serif" font-size="14.00">sulfur*10080</text>
</g>
<!-- 3,3 (Random electronic components, Small Parts) -->
<g id="node12" class="node">
<title>3,3 (Random electronic components, Small Parts)</title>
<ellipse fill="none" stroke="black" cx="363.95" cy="-878.76" rx="240.46" ry="18"/>
<text text-anchor="middle" x="363.95" y="-875.06" font-family="Times,serif" font-size="14.00">3,3 (Random electronic components, Small Parts)</text>
</g>
<!-- 10,7 (Sulfur)&#45;&gt;3,3 (Random electronic components, Small Parts) -->
<g id="edge12" class="edge">
<title>10,7 (Sulfur)&#45;&gt;3,3 (Random electronic components, Small Parts)</title>
<path fill="none" stroke="black" stroke-width="0.82" d="M771.6,-490.27C704.33,-554.39 470.5,-777.22 390.81,-853.17"/>
<polygon fill="black" stroke="black" stroke-width="0.82" points="387.98,-851.03 383.15,-860.46 392.81,-856.1 387.98,-851.03"/>
<text text-anchor="middle" x="534.2" y="-675.52" font-family="Times,serif" font-size="14.00">sulfur*74800</text>
</g>
<!-- 6,4 (Electronic components) -->
<g id="node13" class="node">
<title>6,4 (Electronic components)</title>
<ellipse fill="none" stroke="black" cx="141.69" cy="-501.96" rx="141.88" ry="18"/>
<text text-anchor="middle" x="141.69" y="-498.26" font-family="Times,serif" font-size="14.00">6,4 (Electronic components)</text>
</g>
<!-- 10,7 (Sulfur)&#45;&gt;6,4 (Electronic components) -->
<g id="edge13" class="edge">
<title>10,7 (Sulfur)&#45;&gt;6,4 (Electronic components)</title>
<path fill="none" stroke="black" stroke-width="0.34" d="M721.15,-475.92C618,-480.56 420.87,-489.42 285.42,-495.5"/>
<polygon fill="black" stroke="black" stroke-width="0.34" points="285.2,-492.01 275.37,-495.95 285.51,-499 285.2,-492.01"/>
<text text-anchor="middle" x="456.28" y="-489.51" font-family="Times,serif" font-size="14.00">sulfur*30720</text>
</g>
<!-- 5,&#45;2 (Lubricant) -->
<g id="node9" class="node">
<title>5,&#45;2 (Lubricant)</title>
<ellipse fill="none" stroke="black" cx="453.28" cy="-472.83" rx="83.39" ry="18"/>
<text text-anchor="middle" x="453.28" y="-469.13" font-family="Times,serif" font-size="14.00">5,&#45;2 (Lubricant)</text>
</g>
<!-- 5,&#45;2 (Lubricant)&#45;&gt;&#45;5,2 (Optical fiber) -->
<g id="edge11" class="edge">
<title>5,&#45;2 (Lubricant)&#45;&gt;&#45;5,2 (Optical fiber)</title>
<path fill="none" stroke="black" stroke-width="0.05" d="M470.98,-455.13C501.03,-425.08 562.13,-363.98 596.56,-329.56"/>
<polygon fill="black" stroke="black" stroke-width="0.05" points="599.29,-331.77 603.88,-322.23 594.34,-326.82 599.29,-331.77"/>
<text text-anchor="middle" x="491.27" y="-396.14" font-family="Times,serif" font-size="14.00">sulfur*4720</text>
</g>
<!-- 5,&#45;2 (Lubricant)&#45;&gt;&#45;1,7 (Rayon) -->
<g id="edge8" class="edge">
<title>5,&#45;2 (Lubricant)&#45;&gt;&#45;1,7 (Rayon)</title>
<path fill="none" stroke="black" stroke-width="0.61" d="M470.98,-490.52C501.11,-520.65 562.45,-581.99 596.82,-616.37"/>
<polygon fill="black" stroke="black" stroke-width="0.61" points="594.59,-619.09 604.14,-623.68 599.54,-614.14 594.59,-619.09"/>
<text text-anchor="middle" x="486.9" y="-557.25" font-family="Times,serif" font-size="14.00">sulfur*55920</text>
</g>
</g>
</svg>
