<?xml version="1.0" encoding="UTF-8" standalone="no"?>
<!DOCTYPE svg PUBLIC "-//W3C//DTD SVG 1.1//EN"
 "http://www.w3.org/Graphics/SVG/1.1/DTD/svg11.dtd">
<!-- Generated by graphviz version 2.43.0 (0)
 -->
<!-- Title: %3 Pages: 1 -->
<svg width="887pt" height="645pt"
 viewBox="0.00 0.00 886.81 645.43" xmlns="http://www.w3.org/2000/svg" xmlns:xlink="http://www.w3.org/1999/xlink">
<g id="graph0" class="graph" transform="scale(1 1) rotate(0) translate(4 641.43)">
<title>%3</title>
<polygon fill="white" stroke="transparent" points="-4,4 -4,-641.43 882.81,-641.43 882.81,4 -4,4"/>
<!-- 5,3 (Ash) -->
<g id="node1" class="node">
<title>5,3 (Ash)</title>
<ellipse fill="none" stroke="black" cx="52" cy="-318.72" rx="51.99" ry="18"/>
<text text-anchor="middle" x="52" y="-315.02" font-family="Times,serif" font-size="14.00">5,3 (Ash)</text>
</g>
<!-- 3,6 (Phosphoric Acid and Phosphine gas) -->
<g id="node2" class="node">
<title>3,6 (Phosphoric Acid and Phosphine gas)</title>
<ellipse fill="none" stroke="black" cx="352.71" cy="-619.43" rx="200.36" ry="18"/>
<text text-anchor="middle" x="352.71" y="-615.73" font-family="Times,serif" font-size="14.00">3,6 (Phosphoric Acid and Phosphine gas)</text>
</g>
<!-- 5,3 (Ash)&#45;&gt;3,6 (Phosphoric Acid and Phosphine gas) -->
<g id="edge1" class="edge">
<title>5,3 (Ash)&#45;&gt;3,6 (Phosphoric Acid and Phosphine gas)</title>
<path fill="none" stroke="black" stroke-width="1.08" d="M69.02,-335.75C119.43,-386.15 268.04,-534.76 327.6,-594.32"/>
<polygon fill="black" stroke="black" stroke-width="1.08" points="325.19,-596.87 334.74,-601.46 330.14,-591.92 325.19,-596.87"/>
<text text-anchor="middle" x="159.81" y="-468.83" font-family="Times,serif" font-size="14.00">ash*41088</text>
</g>
<!-- 5,2 (Raw Fiber) -->
<g id="node3" class="node">
<title>5,2 (Raw Fiber)</title>
<ellipse fill="none" stroke="black" cx="352.71" cy="-18" rx="83.39" ry="18"/>
<text text-anchor="middle" x="352.71" y="-14.3" font-family="Times,serif" font-size="14.00">5,2 (Raw Fiber)</text>
</g>
<!-- 5,3 (Ash)&#45;&gt;5,2 (Raw Fiber) -->
<g id="edge4" class="edge">
<title>5,3 (Ash)&#45;&gt;5,2 (Raw Fiber)</title>
<path fill="none" stroke="black" stroke-width="0.88" d="M69.02,-301.69C119.43,-251.29 268.04,-102.67 327.6,-43.11"/>
<polygon fill="black" stroke="black" stroke-width="0.88" points="330.14,-45.52 334.74,-35.97 325.19,-40.57 330.14,-45.52"/>
<text text-anchor="middle" x="159.81" y="-176.2" font-family="Times,serif" font-size="14.00">ash*33232</text>
</g>
<!-- 3,6 (Phosphoric Acid and Phosphine gas)&#45;&gt;5,2 (Raw Fiber) -->
<g id="edge2" class="edge">
<title>3,6 (Phosphoric Acid and Phosphine gas)&#45;&gt;5,2 (Raw Fiber)</title>
<path fill="none" stroke="black" stroke-width="1.75" d="M352.71,-601.11C352.71,-515.07 352.71,-151.06 352.71,-46.31"/>
<polygon fill="black" stroke="black" stroke-width="1.75" points="356.21,-46.19 352.71,-36.19 349.21,-46.19 356.21,-46.19"/>
<text text-anchor="middle" x="314.21" y="-327.51" font-family="Times,serif" font-size="14.00">ash*66464</text>
</g>
<!-- 4,15 (Half an Ash) -->
<g id="node4" class="node">
<title>4,15 (Half an Ash)</title>
<ellipse fill="none" stroke="black" cx="653.43" cy="-318.72" rx="94.78" ry="18"/>
<text text-anchor="middle" x="653.43" y="-315.02" font-family="Times,serif" font-size="14.00">4,15 (Half an Ash)</text>
</g>
<!-- 4,15 (Half an Ash)&#45;&gt;3,6 (Phosphoric Acid and Phosphine gas) -->
<g id="edge3" class="edge">
<title>4,15 (Half an Ash)&#45;&gt;3,6 (Phosphoric Acid and Phosphine gas)</title>
<path fill="none" stroke="black" stroke-width="0.53" d="M635.52,-336.63C584.35,-387.8 437.38,-534.76 378.03,-594.12"/>
<polygon fill="black" stroke="black" stroke-width="0.53" points="375.51,-591.69 370.91,-601.24 380.45,-596.64 375.51,-591.69"/>
<text text-anchor="middle" x="468.27" y="-469.17" font-family="Times,serif" font-size="14.00">ash*20224</text>
</g>
<!-- 4,15 (Half an Ash)&#45;&gt;5,2 (Raw Fiber) -->
<g id="edge5" class="edge">
<title>4,15 (Half an Ash)&#45;&gt;5,2 (Raw Fiber)</title>
<path fill="none" stroke="black" stroke-width="0.88" d="M635.52,-300.81C584.23,-249.51 436.69,-101.98 377.61,-42.9"/>
<polygon fill="black" stroke="black" stroke-width="0.88" points="380.07,-40.41 370.53,-35.82 375.12,-45.36 380.07,-40.41"/>
<text text-anchor="middle" x="468.06" y="-175.65" font-family="Times,serif" font-size="14.00">ash*33232</text>
</g>
<!-- 4,&#45;2 (Ceramic) -->
<g id="node5" class="node">
<title>4,&#45;2 (Ceramic)</title>
<ellipse fill="none" stroke="black" cx="802.12" cy="-318.72" rx="76.89" ry="18"/>
<text text-anchor="middle" x="802.12" y="-315.02" font-family="Times,serif" font-size="14.00">4,&#45;2 (Ceramic)</text>
</g>
<!-- 4,15 (Half an Ash)&#45;&gt;4,&#45;2 (Ceramic) -->
<g id="edge6" class="edge">
<title>4,15 (Half an Ash)&#45;&gt;4,&#45;2 (Ceramic)</title>
<path fill="none" stroke="black" stroke-width="0.88" d="M748.44,-318.72C748.5,-318.72 748.55,-318.72 748.61,-318.72"/>
<polygon fill="black" stroke="black" stroke-width="0.88" points="738.78,-322.22 748.78,-318.72 738.78,-315.22 738.78,-322.22"/>
<text text-anchor="middle" x="787.03" y="-322.52" font-family="Times,serif" font-size="14.00">ash*33232</text>
</g>
</g>
</svg>
