<?xml version="1.0" encoding="UTF-8" standalone="no"?>
<!DOCTYPE svg PUBLIC "-//W3C//DTD SVG 1.1//EN"
 "http://www.w3.org/Graphics/SVG/1.1/DTD/svg11.dtd">
<!-- Generated by graphviz version 2.43.0 (0)
 -->
<!-- Title: %3 Pages: 1 -->
<svg width="2486pt" height="2082pt"
 viewBox="0.00 0.00 2485.98 2082.06" xmlns="http://www.w3.org/2000/svg" xmlns:xlink="http://www.w3.org/1999/xlink">
<g id="graph0" class="graph" transform="scale(1 1) rotate(0) translate(4 2078.06)">
<title>%3</title>
<polygon fill="white" stroke="transparent" points="-4,4 -4,-2078.06 2481.98,-2078.06 2481.98,4 -4,4"/>
<!-- &#45;2,7 (item=borax Borax) -->
<g id="node1" class="node">
<title>&#45;2,7 (item=borax Borax)</title>
<ellipse fill="none" stroke="black" cx="2178.5" cy="-1037.03" rx="123.48" ry="18"/>
<text text-anchor="middle" x="2178.5" y="-1033.33" font-family="Times,serif" font-size="14.00">&#45;2,7 (item=borax Borax)</text>
</g>
<!-- 4,3 (item=nexelit&#45;plate Nexelit platery) -->
<g id="node2" class="node">
<title>4,3 (item=nexelit&#45;plate Nexelit platery)</title>
<ellipse fill="none" stroke="black" cx="2015.07" cy="-480.44" rx="194.17" ry="18"/>
<text text-anchor="middle" x="2015.07" y="-476.74" font-family="Times,serif" font-size="14.00">4,3 (item=nexelit&#45;plate Nexelit platery)</text>
</g>
<!-- &#45;2,7 (item=borax Borax)&#45;&gt;4,3 (item=nexelit&#45;plate Nexelit platery) -->
<g id="edge1" class="edge">
<title>&#45;2,7 (item=borax Borax)&#45;&gt;4,3 (item=nexelit&#45;plate Nexelit platery)</title>
<path fill="none" stroke="black" stroke-width="0.13" d="M2173.16,-1018.83C2149.27,-937.48 2052.21,-606.93 2023.26,-508.33"/>
<polygon fill="black" stroke="black" stroke-width="0.13" points="2026.55,-507.11 2020.37,-498.5 2019.83,-509.08 2026.55,-507.11"/>
<text text-anchor="middle" x="2056.21" y="-767.38" font-family="Times,serif" font-size="14.00">borax*2720</text>
</g>
<!-- &#45;1,10 (Iron Plates) -->
<g id="node3" class="node">
<title>&#45;1,10 (Iron Plates)</title>
<ellipse fill="none" stroke="black" cx="2015.07" cy="-1593.62" rx="94.78" ry="18"/>
<text text-anchor="middle" x="2015.07" y="-1589.92" font-family="Times,serif" font-size="14.00">&#45;1,10 (Iron Plates)</text>
</g>
<!-- &#45;2,7 (item=borax Borax)&#45;&gt;&#45;1,10 (Iron Plates) -->
<g id="edge2" class="edge">
<title>&#45;2,7 (item=borax Borax)&#45;&gt;&#45;1,10 (Iron Plates)</title>
<path fill="none" stroke="black" stroke-width="3.19" d="M2173.16,-1055.23C2149.27,-1136.58 2052.21,-1467.13 2023.26,-1565.73"/>
<polygon fill="black" stroke="black" stroke-width="3.19" points="2019.83,-1564.98 2020.37,-1575.56 2026.55,-1566.95 2019.83,-1564.98"/>
<text text-anchor="middle" x="2051.71" y="-1314.28" font-family="Times,serif" font-size="14.00">borax*67984</text>
</g>
<!-- &#45;4,&#45;4 (Reserved For Aluminium Ore Drop, Aluminium) -->
<g id="node5" class="node">
<title>&#45;4,&#45;4 (Reserved For Aluminium Ore Drop, Aluminium)</title>
<ellipse fill="none" stroke="black" cx="1576.67" cy="-100.56" rx="258.05" ry="18"/>
<text text-anchor="middle" x="1576.67" y="-96.86" font-family="Times,serif" font-size="14.00">&#45;4,&#45;4 (Reserved For Aluminium Ore Drop, Aluminium)</text>
</g>
<!-- &#45;2,7 (item=borax Borax)&#45;&gt;&#45;4,&#45;4 (Reserved For Aluminium Ore Drop, Aluminium) -->
<g id="edge10" class="edge">
<title>&#45;2,7 (item=borax Borax)&#45;&gt;&#45;4,&#45;4 (Reserved For Aluminium Ore Drop, Aluminium)</title>
<path fill="none" stroke="black" stroke-width="2.25" d="M2166.75,-1018.74C2092,-902.43 1683.16,-266.26 1593.89,-127.35"/>
<polygon fill="black" stroke="black" stroke-width="2.25" points="1596.6,-125.1 1588.25,-118.58 1590.71,-128.88 1596.6,-125.1"/>
<text text-anchor="middle" x="1833.82" y="-576.85" font-family="Times,serif" font-size="14.00">borax*48000</text>
</g>
<!-- 1,12 (Molten Iron) -->
<g id="node6" class="node">
<title>1,12 (Molten Iron)</title>
<ellipse fill="none" stroke="black" cx="1002.48" cy="-18" rx="95.58" ry="18"/>
<text text-anchor="middle" x="1002.48" y="-14.3" font-family="Times,serif" font-size="14.00">1,12 (Molten Iron)</text>
</g>
<!-- &#45;2,7 (item=borax Borax)&#45;&gt;1,12 (Molten Iron) -->
<g id="edge4" class="edge">
<title>&#45;2,7 (item=borax Borax)&#45;&gt;1,12 (Molten Iron)</title>
<path fill="none" stroke="black" stroke-width="3.62" d="M2157.84,-1019.13C2016.59,-896.73 1194.02,-183.97 1030.67,-42.43"/>
<polygon fill="black" stroke="black" stroke-width="3.62" points="1032.82,-39.66 1022.97,-35.76 1028.24,-44.95 1032.82,-39.66"/>
<text text-anchor="middle" x="1547.76" y="-534.58" font-family="Times,serif" font-size="14.00">borax*77040</text>
</g>
<!-- 3,9 (Copper, molten &amp; plate) -->
<g id="node7" class="node">
<title>3,9 (Copper, molten &amp; plate)</title>
<ellipse fill="none" stroke="black" cx="474.81" cy="-258.98" rx="143.77" ry="18"/>
<text text-anchor="middle" x="474.81" y="-255.28" font-family="Times,serif" font-size="14.00">3,9 (Copper, molten &amp; plate)</text>
</g>
<!-- &#45;2,7 (item=borax Borax)&#45;&gt;3,9 (Copper, molten &amp; plate) -->
<g id="edge5" class="edge">
<title>&#45;2,7 (item=borax Borax)&#45;&gt;3,9 (Copper, molten &amp; plate)</title>
<path fill="none" stroke="black" stroke-width="2.66" d="M2140.93,-1019.87C1917.97,-918.05 769.9,-393.75 522.02,-280.54"/>
<polygon fill="black" stroke="black" stroke-width="2.66" points="523.46,-277.35 512.91,-276.38 520.55,-283.72 523.46,-277.35"/>
<text text-anchor="middle" x="1284.98" y="-654.01" font-family="Times,serif" font-size="14.00">borax*56672</text>
</g>
<!-- &#45;1,11 (Steel Plate (from molten)) -->
<g id="node8" class="node">
<title>&#45;1,11 (Steel Plate (from molten))</title>
<ellipse fill="none" stroke="black" cx="161.19" cy="-746.98" rx="161.37" ry="18"/>
<text text-anchor="middle" x="161.19" y="-743.28" font-family="Times,serif" font-size="14.00">&#45;1,11 (Steel Plate (from molten))</text>
</g>
<!-- &#45;2,7 (item=borax Borax)&#45;&gt;&#45;1,11 (Steel Plate (from molten)) -->
<g id="edge6" class="edge">
<title>&#45;2,7 (item=borax Borax)&#45;&gt;&#45;1,11 (Steel Plate (from molten))</title>
<path fill="none" stroke="black" stroke-width="1.91" d="M2090.52,-1024.38C1764.91,-977.56 628.56,-814.18 270.27,-762.67"/>
<polygon fill="black" stroke="black" stroke-width="1.91" points="270.55,-759.17 260.15,-761.21 269.55,-766.1 270.55,-759.17"/>
<text text-anchor="middle" x="1133.9" y="-897.32" font-family="Times,serif" font-size="14.00">borax*40736</text>
</g>
<!-- &#45;2,9 (molten steel) -->
<g id="node9" class="node">
<title>&#45;2,9 (molten steel)</title>
<ellipse fill="none" stroke="black" cx="161.19" cy="-1327.08" rx="95.58" ry="18"/>
<text text-anchor="middle" x="161.19" y="-1323.38" font-family="Times,serif" font-size="14.00">&#45;2,9 (molten steel)</text>
</g>
<!-- &#45;2,7 (item=borax Borax)&#45;&gt;&#45;2,9 (molten steel) -->
<g id="edge7" class="edge">
<title>&#45;2,7 (item=borax Borax)&#45;&gt;&#45;2,9 (molten steel)</title>
<path fill="none" stroke="black" stroke-width="1.07" d="M2090.52,-1049.68C1757.55,-1097.55 576.79,-1267.32 247.19,-1314.71"/>
<polygon fill="black" stroke="black" stroke-width="1.07" points="246.62,-1311.26 237.22,-1316.14 247.62,-1318.19 246.62,-1311.26"/>
<text text-anchor="middle" x="1122.36" y="-1186" font-family="Times,serif" font-size="14.00">borax*22720</text>
</g>
<!-- 2,&#45;2 (Tin Plate, Organic Solvent) -->
<g id="node10" class="node">
<title>2,&#45;2 (Tin Plate, Organic Solvent)</title>
<ellipse fill="none" stroke="black" cx="474.81" cy="-1815.08" rx="159.77" ry="18"/>
<text text-anchor="middle" x="474.81" y="-1811.38" font-family="Times,serif" font-size="14.00">2,&#45;2 (Tin Plate, Organic Solvent)</text>
</g>
<!-- &#45;2,7 (item=borax Borax)&#45;&gt;2,&#45;2 (Tin Plate, Organic Solvent) -->
<g id="edge8" class="edge">
<title>&#45;2,7 (item=borax Borax)&#45;&gt;2,&#45;2 (Tin Plate, Organic Solvent)</title>
<path fill="none" stroke="black" stroke-width="1.48" d="M2140.93,-1054.19C1918.09,-1155.95 771.15,-1679.75 522.43,-1793.33"/>
<polygon fill="black" stroke="black" stroke-width="1.48" points="520.92,-1790.17 513.28,-1797.51 523.83,-1796.54 520.92,-1790.17"/>
<text text-anchor="middle" x="1285.18" y="-1427.56" font-family="Times,serif" font-size="14.00">borax*31408</text>
</g>
<!-- 2,10 (Nickel plate) -->
<g id="node11" class="node">
<title>2,10 (Nickel plate)</title>
<ellipse fill="none" stroke="black" cx="1002.48" cy="-2056.06" rx="96.68" ry="18"/>
<text text-anchor="middle" x="1002.48" y="-2052.36" font-family="Times,serif" font-size="14.00">2,10 (Nickel plate)</text>
</g>
<!-- &#45;2,7 (item=borax Borax)&#45;&gt;2,10 (Nickel plate) -->
<g id="edge11" class="edge">
<title>&#45;2,7 (item=borax Borax)&#45;&gt;2,10 (Nickel plate)</title>
<path fill="none" stroke="black" stroke-width="0.34" d="M2157.84,-1054.93C2016.59,-1177.33 1194.02,-1890.09 1030.67,-2031.63"/>
<polygon fill="black" stroke="black" stroke-width="0.34" points="1028.24,-2029.11 1022.97,-2038.3 1032.82,-2034.4 1028.24,-2029.11"/>
<text text-anchor="middle" x="1552.26" y="-1547.08" font-family="Times,serif" font-size="14.00">borax*7200</text>
</g>
<!-- &#45;3,2 (Lead and Solder) -->
<g id="node12" class="node">
<title>&#45;3,2 (Lead and Solder)</title>
<ellipse fill="none" stroke="black" cx="2364.24" cy="-1037.03" rx="113.98" ry="18"/>
<text text-anchor="middle" x="2364.24" y="-1033.33" font-family="Times,serif" font-size="14.00">&#45;3,2 (Lead and Solder)</text>
</g>
<!-- &#45;2,7 (item=borax Borax)&#45;&gt;&#45;3,2 (Lead and Solder) -->
<g id="edge17" class="edge">
<title>&#45;2,7 (item=borax Borax)&#45;&gt;&#45;3,2 (Lead and Solder)</title>
<path fill="none" stroke="black" stroke-width="0.24" d="M2302.13,-1037.03C2302.2,-1037.03 2302.27,-1037.03 2302.33,-1037.03"/>
<polygon fill="black" stroke="black" stroke-width="0.24" points="2292.54,-1040.54 2302.53,-1037.03 2292.53,-1033.54 2292.54,-1040.54"/>
<text text-anchor="middle" x="2344.23" y="-1040.83" font-family="Times,serif" font-size="14.00">borax*5040</text>
</g>
<!-- &#45;3,&#45;1 (item=boron&#45;trioxide Boron products) -->
<g id="node4" class="node">
<title>&#45;3,&#45;1 (item=boron&#45;trioxide Boron products)</title>
<ellipse fill="none" stroke="black" cx="1576.67" cy="-1973.5" rx="209.86" ry="18"/>
<text text-anchor="middle" x="1576.67" y="-1969.8" font-family="Times,serif" font-size="14.00">&#45;3,&#45;1 (item=boron&#45;trioxide Boron products)</text>
</g>
<!-- &#45;3,&#45;1 (item=boron&#45;trioxide Boron products)&#45;&gt;4,3 (item=nexelit&#45;plate Nexelit platery) -->
<g id="edge16" class="edge">
<title>&#45;3,&#45;1 (item=boron&#45;trioxide Boron products)&#45;&gt;4,3 (item=nexelit&#45;plate Nexelit platery)</title>
<path fill="none" stroke="black" stroke-width="0.05" d="M1581.97,-1955.43C1627.45,-1800.56 1951.18,-698.03 2006.91,-508.22"/>
<polygon fill="black" stroke="black" stroke-width="0.05" points="2010.32,-509.03 2009.78,-498.45 2003.61,-507.06 2010.32,-509.03"/>
<text text-anchor="middle" x="1752.44" y="-1235.63" font-family="Times,serif" font-size="14.00">borax*1072</text>
</g>
<!-- &#45;3,&#45;1 (item=boron&#45;trioxide Boron products)&#45;&gt;&#45;1,10 (Iron Plates) -->
<g id="edge13" class="edge">
<title>&#45;3,&#45;1 (item=boron&#45;trioxide Boron products)&#45;&gt;&#45;1,10 (Iron Plates)</title>
<path fill="none" stroke="black" stroke-width="0.35" d="M1597.52,-1955.44C1669.08,-1893.43 1904.8,-1689.17 1986.72,-1618.19"/>
<polygon fill="black" stroke="black" stroke-width="0.35" points="1989.34,-1620.55 1994.6,-1611.36 1984.75,-1615.26 1989.34,-1620.55"/>
<text text-anchor="middle" x="1750.12" y="-1790.61" font-family="Times,serif" font-size="14.00">borax*7376</text>
</g>
<!-- &#45;3,&#45;1 (item=boron&#45;trioxide Boron products)&#45;&gt;&#45;4,&#45;4 (Reserved For Aluminium Ore Drop, Aluminium) -->
<g id="edge3" class="edge">
<title>&#45;3,&#45;1 (item=boron&#45;trioxide Boron products)&#45;&gt;&#45;4,&#45;4 (Reserved For Aluminium Ore Drop, Aluminium)</title>
<path fill="none" stroke="black" stroke-width="0.44" d="M1576.67,-1955.27C1576.67,-1777.06 1576.67,-348.06 1576.67,-128.76"/>
<polygon fill="black" stroke="black" stroke-width="0.44" points="1580.17,-128.7 1576.67,-118.7 1573.17,-128.7 1580.17,-128.7"/>
<text text-anchor="middle" x="1534.67" y="-1045.81" font-family="Times,serif" font-size="14.00">borax*9344</text>
</g>
<!-- &#45;3,&#45;1 (item=boron&#45;trioxide Boron products)&#45;&gt;1,12 (Molten Iron) -->
<g id="edge14" class="edge">
<title>&#45;3,&#45;1 (item=boron&#45;trioxide Boron products)&#45;&gt;1,12 (Molten Iron)</title>
<path fill="none" stroke="black" stroke-width="0.4" d="M1571.35,-1955.39C1517.79,-1772.99 1076.33,-269.53 1010.64,-45.8"/>
<polygon fill="black" stroke="black" stroke-width="0.4" points="1013.97,-44.73 1007.8,-36.12 1007.26,-46.7 1013.97,-44.73"/>
<text text-anchor="middle" x="1248.99" y="-1004.4" font-family="Times,serif" font-size="14.00">borax*8496</text>
</g>
<!-- &#45;3,&#45;1 (item=boron&#45;trioxide Boron products)&#45;&gt;3,9 (Copper, molten &amp; plate) -->
<g id="edge9" class="edge">
<title>&#45;3,&#45;1 (item=boron&#45;trioxide Boron products)&#45;&gt;3,9 (Copper, molten &amp; plate)</title>
<path fill="none" stroke="black" stroke-width="0.49" d="M1565.04,-1955.41C1456.53,-1786.58 622.43,-488.68 491.95,-285.65"/>
<polygon fill="black" stroke="black" stroke-width="0.49" points="494.79,-283.6 486.44,-277.08 488.9,-287.38 494.79,-283.6"/>
<text text-anchor="middle" x="981.99" y="-1124.33" font-family="Times,serif" font-size="14.00">borax*10352</text>
</g>
<!-- &#45;3,&#45;1 (item=boron&#45;trioxide Boron products)&#45;&gt;&#45;1,11 (Steel Plate (from molten)) -->
<g id="edge19" class="edge">
<title>&#45;3,&#45;1 (item=boron&#45;trioxide Boron products)&#45;&gt;&#45;1,11 (Steel Plate (from molten))</title>
<path fill="none" stroke="black" stroke-width="0.05" d="M1555.84,-1955.45C1396.63,-1817.51 373.75,-931.17 189.57,-771.58"/>
<polygon fill="black" stroke="black" stroke-width="0.05" points="191.77,-768.86 181.92,-764.95 187.19,-774.15 191.77,-768.86"/>
<text text-anchor="middle" x="830.7" y="-1367.32" font-family="Times,serif" font-size="14.00">borax*1072</text>
</g>
<!-- &#45;3,&#45;1 (item=boron&#45;trioxide Boron products)&#45;&gt;&#45;2,9 (molten steel) -->
<g id="edge12" class="edge">
<title>&#45;3,&#45;1 (item=boron&#45;trioxide Boron products)&#45;&gt;&#45;2,9 (molten steel)</title>
<path fill="none" stroke="black" stroke-width="0.15" d="M1537.7,-1955.71C1337.19,-1864.14 422.66,-1446.49 206.89,-1347.95"/>
<polygon fill="black" stroke="black" stroke-width="0.15" points="208.29,-1344.74 197.74,-1343.77 205.38,-1351.11 208.29,-1344.74"/>
<text text-anchor="middle" x="830.3" y="-1655.63" font-family="Times,serif" font-size="14.00">borax*3104</text>
</g>
<!-- &#45;3,&#45;1 (item=boron&#45;trioxide Boron products)&#45;&gt;2,&#45;2 (Tin Plate, Organic Solvent) -->
<g id="edge18" class="edge">
<title>&#45;3,&#45;1 (item=boron&#45;trioxide Boron products)&#45;&gt;2,&#45;2 (Tin Plate, Organic Solvent)</title>
<path fill="none" stroke="black" stroke-width="0.1" d="M1469.01,-1958.03C1258.69,-1927.79 795.36,-1861.17 583.9,-1830.77"/>
<polygon fill="black" stroke="black" stroke-width="0.1" points="584.11,-1827.26 573.71,-1829.3 583.11,-1834.19 584.11,-1827.26"/>
<text text-anchor="middle" x="984.45" y="-1898.2" font-family="Times,serif" font-size="14.00">borax*2112</text>
</g>
<!-- &#45;3,&#45;1 (item=boron&#45;trioxide Boron products)&#45;&gt;2,10 (Nickel plate) -->
<g id="edge15" class="edge">
<title>&#45;3,&#45;1 (item=boron&#45;trioxide Boron products)&#45;&gt;2,10 (Nickel plate)</title>
<path fill="none" stroke="black" stroke-width="0.1" d="M1469,-1988.98C1359.17,-2004.78 1190.85,-2028.98 1089.26,-2043.58"/>
<polygon fill="black" stroke="black" stroke-width="0.1" points="1088.73,-2040.12 1079.33,-2045.01 1089.73,-2047.05 1088.73,-2040.12"/>
<text text-anchor="middle" x="1237.13" y="-2020.08" font-family="Times,serif" font-size="14.00">borax*2080</text>
</g>
</g>
</svg>
