<?xml version="1.0" encoding="UTF-8" standalone="no"?>
<!DOCTYPE svg PUBLIC "-//W3C//DTD SVG 1.1//EN"
 "http://www.w3.org/Graphics/SVG/1.1/DTD/svg11.dtd">
<!-- Generated by graphviz version 2.43.0 (0)
 -->
<!-- Title: %3 Pages: 1 -->
<svg width="726pt" height="44pt"
 viewBox="0.00 0.00 725.90 44.00" xmlns="http://www.w3.org/2000/svg" xmlns:xlink="http://www.w3.org/1999/xlink">
<g id="graph0" class="graph" transform="scale(1 1) rotate(0) translate(4 40)">
<title>%3</title>
<polygon fill="white" stroke="transparent" points="-4,4 -4,-40 721.9,-40 721.9,4 -4,4"/>
<!-- &#45;3,2 (Lead and Solder) -->
<g id="node1" class="node">
<title>&#45;3,2 (Lead and Solder)</title>
<ellipse fill="none" stroke="black" cx="348.88" cy="-18" rx="113.98" ry="18"/>
<text text-anchor="middle" x="348.88" y="-14.3" font-family="Times,serif" font-size="14.00">&#45;3,2 (Lead and Solder)</text>
</g>
<!-- 1,9 (Ammunition) -->
<g id="node2" class="node">
<title>1,9 (Ammunition)</title>
<ellipse fill="none" stroke="black" cx="626.26" cy="-18" rx="91.78" ry="18"/>
<text text-anchor="middle" x="626.26" y="-14.3" font-family="Times,serif" font-size="14.00">1,9 (Ammunition)</text>
</g>
<!-- &#45;3,2 (Lead and Solder)&#45;&gt;1,9 (Ammunition) -->
<g id="edge1" class="edge">
<title>&#45;3,2 (Lead and Solder)&#45;&gt;1,9 (Ammunition)</title>
<path fill="none" stroke="black" stroke-width="1.11" d="M462.9,-18C483.22,-18 504.28,-18 524.24,-18"/>
<polygon fill="black" stroke="black" stroke-width="1.11" points="524.26,-21.5 534.26,-18 524.26,-14.5 524.26,-21.5"/>
<text text-anchor="middle" x="524.32" y="-6.8" font-family="Times,serif" font-size="14.00">lead&#45;plate*10064</text>
</g>
<!-- 0,0 (LE BUS) -->
<g id="node3" class="node">
<title>0,0 (LE BUS)</title>
<ellipse fill="none" stroke="black" cx="71.49" cy="-18" rx="71.49" ry="18"/>
<text text-anchor="middle" x="71.49" y="-14.3" font-family="Times,serif" font-size="14.00">0,0 (LE BUS)</text>
</g>
<!-- &#45;3,2 (Lead and Solder)&#45;&gt;0,0 (LE BUS) -->
<g id="edge2" class="edge">
<title>&#45;3,2 (Lead and Solder)&#45;&gt;0,0 (LE BUS)</title>
<path fill="none" stroke="black" stroke-width="0.89" d="M234.85,-18C207.41,-18 178.65,-18 153.03,-18"/>
<polygon fill="black" stroke="black" stroke-width="0.89" points="153.01,-14.5 143.01,-18 153.01,-21.5 153.01,-14.5"/>
<text text-anchor="middle" x="193.94" y="-6.8" font-family="Times,serif" font-size="14.00">lead&#45;plate*8112</text>
</g>
</g>
</svg>
