<?xml version="1.0" encoding="UTF-8" standalone="no"?>
<!DOCTYPE svg PUBLIC "-//W3C//DTD SVG 1.1//EN"
 "http://www.w3.org/Graphics/SVG/1.1/DTD/svg11.dtd">
<!-- Generated by graphviz version 2.43.0 (0)
 -->
<!-- Title: %3 Pages: 1 -->
<svg width="2132pt" height="1261pt"
 viewBox="0.00 0.00 2132.44 1260.67" xmlns="http://www.w3.org/2000/svg" xmlns:xlink="http://www.w3.org/1999/xlink">
<g id="graph0" class="graph" transform="scale(1 1) rotate(0) translate(4 1256.67)">
<title>%3</title>
<polygon fill="white" stroke="transparent" points="-4,4 -4,-1256.67 2128.44,-1256.67 2128.44,4 -4,4"/>
<!-- 7,5 (Manurer) -->
<g id="node1" class="node">
<title>7,5 (Manurer)</title>
<ellipse fill="none" stroke="black" cx="575.65" cy="-1052.98" rx="75.29" ry="18"/>
<text text-anchor="middle" x="575.65" y="-1049.28" font-family="Times,serif" font-size="14.00">7,5 (Manurer)</text>
</g>
<!-- &#45;4,2 (This line not currently using manure, Ralesia seeds) -->
<g id="node2" class="node">
<title>&#45;4,2 (This line not currently using manure, Ralesia seeds)</title>
<ellipse fill="none" stroke="black" cx="276.88" cy="-535.49" rx="276.75" ry="18"/>
<text text-anchor="middle" x="276.88" y="-531.79" font-family="Times,serif" font-size="14.00">&#45;4,2 (This line not currently using manure, Ralesia seeds)</text>
</g>
<!-- 7,5 (Manurer)&#45;&gt;&#45;4,2 (This line not currently using manure, Ralesia seeds) -->
<g id="edge1" class="edge">
<title>7,5 (Manurer)&#45;&gt;&#45;4,2 (This line not currently using manure, Ralesia seeds)</title>
<path fill="none" stroke="black" stroke-width="0.63" d="M565.19,-1034.87C520.56,-957.56 345.86,-654.98 292.47,-562.5"/>
<polygon fill="black" stroke="black" stroke-width="0.63" points="295.43,-560.64 287.4,-553.73 289.37,-564.14 295.43,-560.64"/>
<text text-anchor="middle" x="375.33" y="-802.48" font-family="Times,serif" font-size="14.00">manure*28720</text>
</g>
<!-- &#45;6,4 (Urea) -->
<g id="node4" class="node">
<title>&#45;6,4 (Urea)</title>
<ellipse fill="none" stroke="black" cx="1173.2" cy="-1052.98" rx="61.19" ry="18"/>
<text text-anchor="middle" x="1173.2" y="-1049.28" font-family="Times,serif" font-size="14.00">&#45;6,4 (Urea)</text>
</g>
<!-- 7,5 (Manurer)&#45;&gt;&#45;6,4 (Urea) -->
<g id="edge3" class="edge">
<title>7,5 (Manurer)&#45;&gt;&#45;6,4 (Urea)</title>
<path fill="none" stroke="black" stroke-width="1.88" d="M651.33,-1052.98C767.36,-1052.98 987.68,-1052.98 1101.36,-1052.98"/>
<polygon fill="black" stroke="black" stroke-width="1.88" points="1101.69,-1056.48 1111.69,-1052.98 1101.69,-1049.48 1101.69,-1056.48"/>
<text text-anchor="middle" x="822.84" y="-1056.78" font-family="Times,serif" font-size="14.00">manure*85680</text>
</g>
<!-- 0,&#45;8 (Raw fibre 2 duplicate) -->
<g id="node7" class="node">
<title>0,&#45;8 (Raw fibre 2 duplicate)</title>
<ellipse fill="none" stroke="black" cx="470.76" cy="-1234.67" rx="137.58" ry="18"/>
<text text-anchor="middle" x="470.76" y="-1230.97" font-family="Times,serif" font-size="14.00">0,&#45;8 (Raw fibre 2 duplicate)</text>
</g>
<!-- 7,5 (Manurer)&#45;&gt;0,&#45;8 (Raw fibre 2 duplicate) -->
<g id="edge6" class="edge">
<title>7,5 (Manurer)&#45;&gt;0,&#45;8 (Raw fibre 2 duplicate)</title>
<path fill="none" stroke="black" stroke-width="1.1" d="M565.21,-1071.07C546.67,-1103.17 507.94,-1170.26 486.27,-1207.79"/>
<polygon fill="black" stroke="black" stroke-width="1.1" points="483.12,-1206.24 481.15,-1216.65 489.19,-1209.74 483.12,-1206.24"/>
<text text-anchor="middle" x="472.24" y="-1143.23" font-family="Times,serif" font-size="14.00">manure*50080</text>
</g>
<!-- &#45;7,0 (Ulric manure duplicate) -->
<g id="node3" class="node">
<title>&#45;7,0 (Ulric manure duplicate)</title>
<ellipse fill="none" stroke="black" cx="1471.97" cy="-535.49" rx="145.67" ry="18"/>
<text text-anchor="middle" x="1471.97" y="-531.79" font-family="Times,serif" font-size="14.00">&#45;7,0 (Ulric manure duplicate)</text>
</g>
<!-- &#45;7,0 (Ulric manure duplicate)&#45;&gt;&#45;4,2 (This line not currently using manure, Ralesia seeds) -->
<g id="edge2" class="edge">
<title>&#45;7,0 (Ulric manure duplicate)&#45;&gt;&#45;4,2 (This line not currently using manure, Ralesia seeds)</title>
<path fill="none" stroke="black" stroke-width="0.33" d="M1326.33,-535.49C1137.66,-535.49 804.51,-535.49 564.1,-535.49"/>
<polygon fill="black" stroke="black" stroke-width="0.33" points="563.8,-531.99 553.8,-535.49 563.8,-538.99 563.8,-531.99"/>
<text text-anchor="middle" x="891.72" y="-539.29" font-family="Times,serif" font-size="14.00">manure*15200</text>
</g>
<!-- &#45;7,0 (Ulric manure duplicate)&#45;&gt;&#45;6,4 (Urea) -->
<g id="edge4" class="edge">
<title>&#45;7,0 (Ulric manure duplicate)&#45;&gt;&#45;6,4 (Urea)</title>
<path fill="none" stroke="black" stroke-width="1.86" d="M1461.51,-553.61C1416.83,-631 1241.8,-934.17 1188.61,-1026.29"/>
<polygon fill="black" stroke="black" stroke-width="1.86" points="1185.54,-1024.61 1183.57,-1035.02 1191.6,-1028.11 1185.54,-1024.61"/>
<text text-anchor="middle" x="1271.56" y="-793.75" font-family="Times,serif" font-size="14.00">manure*84880</text>
</g>
<!-- 7,8 (Raw fibre 2) -->
<g id="node6" class="node">
<title>7,8 (Raw fibre 2)</title>
<ellipse fill="none" stroke="black" cx="1173.2" cy="-18" rx="89.08" ry="18"/>
<text text-anchor="middle" x="1173.2" y="-14.3" font-family="Times,serif" font-size="14.00">7,8 (Raw fibre 2)</text>
</g>
<!-- &#45;7,0 (Ulric manure duplicate)&#45;&gt;7,8 (Raw fibre 2) -->
<g id="edge11" class="edge">
<title>&#45;7,0 (Ulric manure duplicate)&#45;&gt;7,8 (Raw fibre 2)</title>
<path fill="none" stroke="black" stroke-width="0.55" d="M1461.51,-517.38C1416.83,-439.98 1241.8,-136.81 1188.61,-44.69"/>
<polygon fill="black" stroke="black" stroke-width="0.55" points="1191.6,-42.88 1183.57,-35.97 1185.54,-46.38 1191.6,-42.88"/>
<text text-anchor="middle" x="1271.56" y="-284.84" font-family="Times,serif" font-size="14.00">manure*25040</text>
</g>
<!-- 11,6 (Ralesia 2) -->
<g id="node10" class="node">
<title>11,6 (Ralesia 2)</title>
<ellipse fill="none" stroke="black" cx="1627.16" cy="-535.49" rx="83.39" ry="18"/>
<text text-anchor="middle" x="1627.16" y="-531.79" font-family="Times,serif" font-size="14.00">11,6 (Ralesia 2)</text>
</g>
<!-- &#45;7,0 (Ulric manure duplicate)&#45;&gt;11,6 (Ralesia 2) -->
<g id="edge10" class="edge">
<title>&#45;7,0 (Ulric manure duplicate)&#45;&gt;11,6 (Ralesia 2)</title>
<path fill="none" stroke="black" stroke-width="0.55" d="M1617.92,-535.49C1617.97,-535.49 1618.01,-535.49 1618.06,-535.49"/>
<polygon fill="black" stroke="black" stroke-width="0.55" points="1608.19,-539 1618.19,-535.49 1608.19,-532 1608.19,-539"/>
<text text-anchor="middle" x="1671.49" y="-539.29" font-family="Times,serif" font-size="14.00">manure*25040</text>
</g>
<!-- &#45;7,&#45;3 (Ulric Manure) -->
<g id="node5" class="node">
<title>&#45;7,&#45;3 (Ulric Manure)</title>
<ellipse fill="none" stroke="black" cx="575.65" cy="-18" rx="102.88" ry="18"/>
<text text-anchor="middle" x="575.65" y="-14.3" font-family="Times,serif" font-size="14.00">&#45;7,&#45;3 (Ulric Manure)</text>
</g>
<!-- &#45;7,&#45;3 (Ulric Manure)&#45;&gt;&#45;4,2 (This line not currently using manure, Ralesia seeds) -->
<g id="edge7" class="edge">
<title>&#45;7,&#45;3 (Ulric Manure)&#45;&gt;&#45;4,2 (This line not currently using manure, Ralesia seeds)</title>
<path fill="none" stroke="black" stroke-width="0.67" d="M565.19,-36.11C520.56,-113.42 345.86,-416 292.47,-508.49"/>
<polygon fill="black" stroke="black" stroke-width="0.67" points="289.37,-506.85 287.4,-517.26 295.43,-510.35 289.37,-506.85"/>
<text text-anchor="middle" x="375.33" y="-276.1" font-family="Times,serif" font-size="14.00">manure*30720</text>
</g>
<!-- &#45;7,&#45;3 (Ulric Manure)&#45;&gt;&#45;6,4 (Urea) -->
<g id="edge9" class="edge">
<title>&#45;7,&#45;3 (Ulric Manure)&#45;&gt;&#45;6,4 (Urea)</title>
<path fill="none" stroke="black" stroke-width="2.88" d="M586.02,-35.96C657.07,-159.02 1071.63,-877.06 1157.59,-1025.96"/>
<polygon fill="black" stroke="black" stroke-width="2.88" points="1154.74,-1028.02 1162.77,-1034.93 1160.81,-1024.52 1154.74,-1028.02"/>
<text text-anchor="middle" x="813.81" y="-519.76" font-family="Times,serif" font-size="14.00">manure*131600</text>
</g>
<!-- &#45;7,&#45;3 (Ulric Manure)&#45;&gt;7,8 (Raw fibre 2) -->
<g id="edge5" class="edge">
<title>&#45;7,&#45;3 (Ulric Manure)&#45;&gt;7,8 (Raw fibre 2)</title>
<path fill="none" stroke="black" stroke-width="0.55" d="M678.37,-18C789.2,-18 964.47,-18 1073.93,-18"/>
<polygon fill="black" stroke="black" stroke-width="0.55" points="1073.99,-21.5 1083.99,-18 1073.99,-14.5 1073.99,-21.5"/>
<text text-anchor="middle" x="822.65" y="-21.8" font-family="Times,serif" font-size="14.00">manure*25040</text>
</g>
<!-- &#45;4,&#45;3 (Breath Deeply. Exhale. (Hot Air)) -->
<g id="node8" class="node">
<title>&#45;4,&#45;3 (Breath Deeply. Exhale. (Hot Air))</title>
<ellipse fill="none" stroke="black" cx="1570.84" cy="-1053.49" rx="190.37" ry="18"/>
<text text-anchor="middle" x="1570.84" y="-1049.79" font-family="Times,serif" font-size="14.00">&#45;4,&#45;3 (Breath Deeply. Exhale. (Hot Air))</text>
</g>
<!-- &#45;5,5 (fluid=flue&#45;gas Flue gas) -->
<g id="node9" class="node">
<title>&#45;5,5 (fluid=flue&#45;gas Flue gas)</title>
<ellipse fill="none" stroke="black" cx="1978.86" cy="-1053.49" rx="145.67" ry="18"/>
<text text-anchor="middle" x="1978.86" y="-1049.79" font-family="Times,serif" font-size="14.00">&#45;5,5 (fluid=flue&#45;gas Flue gas)</text>
</g>
<!-- &#45;4,&#45;3 (Breath Deeply. Exhale. (Hot Air))&#45;&gt;&#45;5,5 (fluid=flue&#45;gas Flue gas) -->
<g id="edge8" class="edge">
<title>&#45;4,&#45;3 (Breath Deeply. Exhale. (Hot Air))&#45;&gt;&#45;5,5 (fluid=flue&#45;gas Flue gas)</title>
<path fill="none" stroke="black" stroke-width="0.01" d="M1761.41,-1053.49C1782.01,-1053.49 1802.79,-1053.49 1822.91,-1053.49"/>
<polygon fill="black" stroke="black" stroke-width="0.01" points="1823.05,-1056.99 1833.05,-1053.49 1823.05,-1049.99 1823.05,-1056.99"/>
<text text-anchor="middle" x="1792.16" y="-1042.29" font-family="Times,serif" font-size="14.00">manure*640</text>
</g>
</g>
</svg>
