<?xml version="1.0" encoding="UTF-8" standalone="no"?>
<!DOCTYPE svg PUBLIC "-//W3C//DTD SVG 1.1//EN"
 "http://www.w3.org/Graphics/SVG/1.1/DTD/svg11.dtd">
<!-- Generated by graphviz version 2.43.0 (0)
 -->
<!-- Title: %3 Pages: 1 -->
<svg width="1043pt" height="876pt"
 viewBox="0.00 0.00 1043.00 876.16" xmlns="http://www.w3.org/2000/svg" xmlns:xlink="http://www.w3.org/1999/xlink">
<g id="graph0" class="graph" transform="scale(1 1) rotate(0) translate(4 872.16)">
<title>%3</title>
<polygon fill="white" stroke="transparent" points="-4,4 -4,-872.16 1039,-872.16 1039,4 -4,4"/>
<!-- &#45;5,&#45;4 (low priority (slaked)? lime) -->
<g id="node1" class="node">
<title>&#45;5,&#45;4 (low priority (slaked)? lime)</title>
<ellipse fill="none" stroke="black" cx="495.69" cy="-405.32" rx="162.47" ry="18"/>
<text text-anchor="middle" x="495.69" y="-401.62" font-family="Times,serif" font-size="14.00">&#45;5,&#45;4 (low priority (slaked)? lime)</text>
</g>
<!-- 0,0 (LE BUS) -->
<g id="node2" class="node">
<title>0,0 (LE BUS)</title>
<ellipse fill="none" stroke="black" cx="963.51" cy="-405.32" rx="71.49" ry="18"/>
<text text-anchor="middle" x="963.51" y="-401.62" font-family="Times,serif" font-size="14.00">0,0 (LE BUS)</text>
</g>
<!-- &#45;5,&#45;4 (low priority (slaked)? lime)&#45;&gt;0,0 (LE BUS) -->
<g id="edge1" class="edge">
<title>&#45;5,&#45;4 (low priority (slaked)? lime)&#45;&gt;0,0 (LE BUS)</title>
<path fill="none" stroke="black" stroke-width="0.44" d="M658.32,-405.32C733.79,-405.32 820.2,-405.32 881.76,-405.32"/>
<polygon fill="black" stroke="black" stroke-width="0.44" points="881.81,-408.82 891.81,-405.32 881.81,-401.82 881.81,-408.82"/>
<text text-anchor="middle" x="728.54" y="-409.12" font-family="Times,serif" font-size="14.00">lime*42480</text>
</g>
<!-- 4,12 (Molten Glass) -->
<g id="node3" class="node">
<title>4,12 (Molten Glass)</title>
<ellipse fill="none" stroke="black" cx="350.87" cy="-850.16" rx="102.08" ry="18"/>
<text text-anchor="middle" x="350.87" y="-846.46" font-family="Times,serif" font-size="14.00">4,12 (Molten Glass)</text>
</g>
<!-- &#45;5,&#45;4 (low priority (slaked)? lime)&#45;&gt;4,12 (Molten Glass) -->
<g id="edge2" class="edge">
<title>&#45;5,&#45;4 (low priority (slaked)? lime)&#45;&gt;4,12 (Molten Glass)</title>
<path fill="none" stroke="black" stroke-width="2.14" d="M489.83,-423.31C467.43,-492.12 387.07,-738.96 359.91,-822.38"/>
<polygon fill="black" stroke="black" stroke-width="2.14" points="356.57,-821.35 356.8,-831.94 363.22,-823.52 356.57,-821.35"/>
<text text-anchor="middle" x="378.87" y="-626.65" font-family="Times,serif" font-size="14.00">lime*204480</text>
</g>
<!-- &#45;4,&#45;8 (item=silver&#45;plate Even even more silver?) -->
<g id="node4" class="node">
<title>&#45;4,&#45;8 (item=silver&#45;plate Even even more silver?)</title>
<ellipse fill="none" stroke="black" cx="233.33" cy="-18" rx="233.16" ry="18"/>
<text text-anchor="middle" x="233.33" y="-14.3" font-family="Times,serif" font-size="14.00">&#45;4,&#45;8 (item=silver&#45;plate Even even more silver?)</text>
</g>
<!-- &#45;5,&#45;4 (low priority (slaked)? lime)&#45;&gt;&#45;4,&#45;8 (item=silver&#45;plate Even even more silver?) -->
<g id="edge3" class="edge">
<title>&#45;5,&#45;4 (low priority (slaked)? lime)&#45;&gt;&#45;4,&#45;8 (item=silver&#45;plate Even even more silver?)</title>
<path fill="none" stroke="black" stroke-width="0.42" d="M483.39,-387.16C441.04,-324.64 301.16,-118.14 251.24,-44.43"/>
<polygon fill="black" stroke="black" stroke-width="0.42" points="254.11,-42.44 245.61,-36.12 248.32,-46.36 254.11,-42.44"/>
<text text-anchor="middle" x="325.81" y="-219.6" font-family="Times,serif" font-size="14.00">lime*40080</text>
</g>
</g>
</svg>
