<?xml version="1.0" encoding="UTF-8" standalone="no"?>
<!DOCTYPE svg PUBLIC "-//W3C//DTD SVG 1.1//EN"
 "http://www.w3.org/Graphics/SVG/1.1/DTD/svg11.dtd">
<!-- Generated by graphviz version 2.43.0 (0)
 -->
<!-- Title: %3 Pages: 1 -->
<svg width="868pt" height="124pt"
 viewBox="0.00 0.00 867.86 124.00" xmlns="http://www.w3.org/2000/svg" xmlns:xlink="http://www.w3.org/1999/xlink">
<g id="graph0" class="graph" transform="scale(1 1) rotate(0) translate(4 120)">
<title>%3</title>
<polygon fill="white" stroke="transparent" points="-4,4 -4,-120 863.86,-120 863.86,4 -4,4"/>
<!-- 4,2 (More fiberboard) -->
<g id="node1" class="node">
<title>4,2 (More fiberboard)</title>
<ellipse fill="none" stroke="black" cx="510.33" cy="-98" rx="111.28" ry="18"/>
<text text-anchor="middle" x="510.33" y="-94.3" font-family="Times,serif" font-size="14.00">4,2 (More fiberboard)</text>
</g>
<!-- 5,&#45;2 (Lubricant) -->
<g id="node2" class="node">
<title>5,&#45;2 (Lubricant)</title>
<ellipse fill="none" stroke="black" cx="776.66" cy="-98" rx="83.39" ry="18"/>
<text text-anchor="middle" x="776.66" y="-94.3" font-family="Times,serif" font-size="14.00">5,&#45;2 (Lubricant)</text>
</g>
<!-- 4,2 (More fiberboard)&#45;&gt;5,&#45;2 (Lubricant) -->
<g id="edge1" class="edge">
<title>4,2 (More fiberboard)&#45;&gt;5,&#45;2 (Lubricant)</title>
<path fill="none" stroke="black" stroke-width="0.14" d="M621.74,-98C642.13,-98 663.22,-98 683.03,-98"/>
<polygon fill="black" stroke="black" stroke-width="0.14" points="683.26,-101.5 693.26,-98 683.26,-94.5 683.26,-101.5"/>
<text text-anchor="middle" x="652.38" y="-86.8" font-family="Times,serif" font-size="14.00">silicon&#45;wafer*3440</text>
</g>
<!-- &#45;3,9 (Silicon Wafers) -->
<g id="node3" class="node">
<title>&#45;3,9 (Silicon Wafers)</title>
<ellipse fill="none" stroke="black" cx="103.99" cy="-18" rx="103.98" ry="18"/>
<text text-anchor="middle" x="103.99" y="-14.3" font-family="Times,serif" font-size="14.00">&#45;3,9 (Silicon Wafers)</text>
</g>
<!-- 4,6 (Circuit substrate and Doped silicon) -->
<g id="node4" class="node">
<title>4,6 (Circuit substrate and Doped silicon)</title>
<ellipse fill="none" stroke="black" cx="479.51" cy="-18" rx="199.56" ry="18"/>
<text text-anchor="middle" x="479.51" y="-14.3" font-family="Times,serif" font-size="14.00">4,6 (Circuit substrate and Doped silicon)</text>
</g>
<!-- &#45;3,9 (Silicon Wafers)&#45;&gt;4,6 (Circuit substrate and Doped silicon) -->
<g id="edge2" class="edge">
<title>&#45;3,9 (Silicon Wafers)&#45;&gt;4,6 (Circuit substrate and Doped silicon)</title>
<path fill="none" stroke="black" stroke-width="1.86" d="M208.1,-18C227.49,-18 248.38,-18 269.66,-18"/>
<polygon fill="black" stroke="black" stroke-width="1.86" points="269.79,-21.5 279.79,-18 269.79,-14.5 269.79,-21.5"/>
<text text-anchor="middle" x="238.88" y="-6.8" font-family="Times,serif" font-size="14.00">silicon&#45;wafer*46000</text>
</g>
</g>
</svg>
