<?xml version="1.0" encoding="UTF-8" standalone="no"?>
<!DOCTYPE svg PUBLIC "-//W3C//DTD SVG 1.1//EN"
 "http://www.w3.org/Graphics/SVG/1.1/DTD/svg11.dtd">
<!-- Generated by graphviz version 2.43.0 (0)
 -->
<!-- Title: %3 Pages: 1 -->
<svg width="880pt" height="741pt"
 viewBox="0.00 0.00 880.44 741.29" xmlns="http://www.w3.org/2000/svg" xmlns:xlink="http://www.w3.org/1999/xlink">
<g id="graph0" class="graph" transform="scale(1 1) rotate(0) translate(4 737.29)">
<title>%3</title>
<polygon fill="white" stroke="transparent" points="-4,4 -4,-737.29 876.44,-737.29 876.44,4 -4,4"/>
<!-- &#45;4,&#45;7 (Nexelit from raw) -->
<g id="node1" class="node">
<title>&#45;4,&#45;7 (Nexelit from raw)</title>
<ellipse fill="none" stroke="black" cx="557.39" cy="-18" rx="120.48" ry="18"/>
<text text-anchor="middle" x="557.39" y="-14.3" font-family="Times,serif" font-size="14.00">&#45;4,&#45;7 (Nexelit from raw)</text>
</g>
<!-- 0,0 (LE BUS) -->
<g id="node2" class="node">
<title>0,0 (LE BUS)</title>
<ellipse fill="none" stroke="black" cx="147.54" cy="-151.17" rx="71.49" ry="18"/>
<text text-anchor="middle" x="147.54" y="-147.47" font-family="Times,serif" font-size="14.00">0,0 (LE BUS)</text>
</g>
<!-- &#45;4,&#45;7 (Nexelit from raw)&#45;&gt;0,0 (LE BUS) -->
<g id="edge1" class="edge">
<title>&#45;4,&#45;7 (Nexelit from raw)&#45;&gt;0,0 (LE BUS)</title>
<path fill="none" stroke="black" stroke-width="3.67" d="M506.73,-34.46C428.99,-59.72 280.95,-107.82 201.35,-133.68"/>
<polygon fill="black" stroke="black" stroke-width="3.67" points="199.96,-130.46 191.53,-136.88 202.12,-137.11 199.96,-130.46"/>
<text text-anchor="middle" x="283.04" y="-87.87" font-family="Times,serif" font-size="14.00">nexelit&#45;plate*99920</text>
</g>
<!-- 4,&#45;1 (Fluid) -->
<g id="node3" class="node">
<title>4,&#45;1 (Fluid)</title>
<ellipse fill="none" stroke="black" cx="810.7" cy="-366.64" rx="61.99" ry="18"/>
<text text-anchor="middle" x="810.7" y="-362.94" font-family="Times,serif" font-size="14.00">4,&#45;1 (Fluid)</text>
</g>
<!-- &#45;4,&#45;7 (Nexelit from raw)&#45;&gt;4,&#45;1 (Fluid) -->
<g id="edge2" class="edge">
<title>&#45;4,&#45;7 (Nexelit from raw)&#45;&gt;4,&#45;1 (Fluid)</title>
<path fill="none" stroke="black" stroke-width="1.41" d="M570.65,-36.25C612.64,-94.05 742.77,-273.15 791.77,-340.6"/>
<polygon fill="black" stroke="black" stroke-width="1.41" points="789.16,-342.95 797.87,-348.99 794.82,-338.84 789.16,-342.95"/>
<text text-anchor="middle" x="610.21" y="-192.23" font-family="Times,serif" font-size="14.00">nexelit&#45;plate*38400</text>
</g>
<!-- 2,7 (Mystery petrochemicals) -->
<g id="node5" class="node">
<title>2,7 (Mystery petrochemicals)</title>
<ellipse fill="none" stroke="black" cx="147.54" cy="-582.12" rx="147.57" ry="18"/>
<text text-anchor="middle" x="147.54" y="-578.42" font-family="Times,serif" font-size="14.00">2,7 (Mystery petrochemicals)</text>
</g>
<!-- &#45;4,&#45;7 (Nexelit from raw)&#45;&gt;2,7 (Mystery petrochemicals) -->
<g id="edge5" class="edge">
<title>&#45;4,&#45;7 (Nexelit from raw)&#45;&gt;2,7 (Mystery petrochemicals)</title>
<path fill="none" stroke="black" stroke-width="0.62" d="M544.22,-36.13C484.3,-118.6 237.36,-458.49 166.58,-555.91"/>
<polygon fill="black" stroke="black" stroke-width="0.62" points="163.71,-553.91 160.66,-564.05 169.37,-558.02 163.71,-553.91"/>
<text text-anchor="middle" x="284.4" y="-299.82" font-family="Times,serif" font-size="14.00">nexelit&#45;plate*16880</text>
</g>
<!-- 4,3 (item=nexelit&#45;plate Nexelit platery) -->
<g id="node4" class="node">
<title>4,3 (item=nexelit&#45;plate Nexelit platery)</title>
<ellipse fill="none" stroke="black" cx="557.39" cy="-715.29" rx="194.17" ry="18"/>
<text text-anchor="middle" x="557.39" y="-711.59" font-family="Times,serif" font-size="14.00">4,3 (item=nexelit&#45;plate Nexelit platery)</text>
</g>
<!-- 4,3 (item=nexelit&#45;plate Nexelit platery)&#45;&gt;0,0 (LE BUS) -->
<g id="edge3" class="edge">
<title>4,3 (item=nexelit&#45;plate Nexelit platery)&#45;&gt;0,0 (LE BUS)</title>
<path fill="none" stroke="black" stroke-width="0.08" d="M544.22,-697.16C484.24,-614.6 236.81,-274.04 166.34,-177.05"/>
<polygon fill="black" stroke="black" stroke-width="0.08" points="169.17,-174.98 160.46,-168.95 163.5,-179.1 169.17,-174.98"/>
<text text-anchor="middle" x="288.78" y="-440.91" font-family="Times,serif" font-size="14.00">nexelit&#45;plate*2064</text>
</g>
<!-- 4,3 (item=nexelit&#45;plate Nexelit platery)&#45;&gt;4,&#45;1 (Fluid) -->
<g id="edge6" class="edge">
<title>4,3 (item=nexelit&#45;plate Nexelit platery)&#45;&gt;4,&#45;1 (Fluid)</title>
<path fill="none" stroke="black" stroke-width="0.15" d="M570.65,-697.03C612.64,-639.24 742.77,-460.13 791.77,-392.69"/>
<polygon fill="black" stroke="black" stroke-width="0.15" points="794.82,-394.45 797.87,-384.3 789.16,-390.33 794.82,-394.45"/>
<text text-anchor="middle" x="614.71" y="-548.66" font-family="Times,serif" font-size="14.00">nexelit&#45;plate*4128</text>
</g>
<!-- 4,3 (item=nexelit&#45;plate Nexelit platery)&#45;&gt;2,7 (Mystery petrochemicals) -->
<g id="edge4" class="edge">
<title>4,3 (item=nexelit&#45;plate Nexelit platery)&#45;&gt;2,7 (Mystery petrochemicals)</title>
<path fill="none" stroke="black" stroke-width="0.08" d="M503.81,-697.88C427.96,-673.23 289.62,-628.28 209.47,-602.24"/>
<polygon fill="black" stroke="black" stroke-width="0.08" points="210.11,-598.77 199.51,-599.01 207.94,-605.42 210.11,-598.77"/>
<text text-anchor="middle" x="290.14" y="-653.86" font-family="Times,serif" font-size="14.00">nexelit&#45;plate*2080</text>
</g>
</g>
</svg>
