<?xml version="1.0" encoding="UTF-8" standalone="no"?>
<!DOCTYPE svg PUBLIC "-//W3C//DTD SVG 1.1//EN"
 "http://www.w3.org/Graphics/SVG/1.1/DTD/svg11.dtd">
<!-- Generated by graphviz version 2.43.0 (0)
 -->
<!-- Title: %3 Pages: 1 -->
<svg width="1354pt" height="44pt"
 viewBox="0.00 0.00 1354.39 44.00" xmlns="http://www.w3.org/2000/svg" xmlns:xlink="http://www.w3.org/1999/xlink">
<g id="graph0" class="graph" transform="scale(1 1) rotate(0) translate(4 40)">
<title>%3</title>
<polygon fill="white" stroke="transparent" points="-4,4 -4,-40 1350.39,-40 1350.39,4 -4,4"/>
<!-- 2,4 (Formica and Phenolic boards) -->
<g id="node1" class="node">
<title>2,4 (Formica and Phenolic boards)</title>
<ellipse fill="none" stroke="black" cx="722.59" cy="-18" rx="169.77" ry="18"/>
<text text-anchor="middle" x="722.59" y="-14.3" font-family="Times,serif" font-size="14.00">2,4 (Formica and Phenolic boards)</text>
</g>
<!-- 6,4 (Electronic components) -->
<g id="node2" class="node">
<title>6,4 (Electronic components)</title>
<ellipse fill="none" stroke="black" cx="1204.71" cy="-18" rx="141.88" ry="18"/>
<text text-anchor="middle" x="1204.71" y="-14.3" font-family="Times,serif" font-size="14.00">6,4 (Electronic components)</text>
</g>
<!-- 2,4 (Formica and Phenolic boards)&#45;&gt;6,4 (Electronic components) -->
<g id="edge1" class="edge">
<title>2,4 (Formica and Phenolic boards)&#45;&gt;6,4 (Electronic components)</title>
<path fill="none" stroke="black" stroke-width="1.07" d="M892.23,-18C944.48,-18 1001.65,-18 1052.64,-18"/>
<polygon fill="black" stroke="black" stroke-width="1.07" points="1052.75,-21.5 1062.75,-18 1052.75,-14.5 1052.75,-21.5"/>
<text text-anchor="middle" x="972.44" y="-6.8" font-family="Times,serif" font-size="14.00">melamine&#45;resin*8640</text>
</g>
<!-- 3,3 (Random electronic components, Small Parts) -->
<g id="node3" class="node">
<title>3,3 (Random electronic components, Small Parts)</title>
<ellipse fill="none" stroke="black" cx="240.48" cy="-18" rx="240.46" ry="18"/>
<text text-anchor="middle" x="240.48" y="-14.3" font-family="Times,serif" font-size="14.00">3,3 (Random electronic components, Small Parts)</text>
</g>
<!-- 2,4 (Formica and Phenolic boards)&#45;&gt;3,3 (Random electronic components, Small Parts) -->
<g id="edge2" class="edge">
<title>2,4 (Formica and Phenolic boards)&#45;&gt;3,3 (Random electronic components, Small Parts)</title>
<path fill="none" stroke="black" stroke-width="0.93" d="M552.96,-18C532.91,-18 512.14,-18 491.28,-18"/>
<polygon fill="black" stroke="black" stroke-width="0.93" points="491.03,-14.5 481.03,-18 491.03,-21.5 491.03,-14.5"/>
<text text-anchor="middle" x="483.62" y="-6.8" font-family="Times,serif" font-size="14.00">melamine&#45;resin*7440</text>
</g>
</g>
</svg>
