<?xml version="1.0" encoding="UTF-8" standalone="no"?>
<!DOCTYPE svg PUBLIC "-//W3C//DTD SVG 1.1//EN"
 "http://www.w3.org/Graphics/SVG/1.1/DTD/svg11.dtd">
<!-- Generated by graphviz version 2.43.0 (0)
 -->
<!-- Title: %3 Pages: 1 -->
<svg width="1794pt" height="1378pt"
 viewBox="0.00 0.00 1794.48 1377.91" xmlns="http://www.w3.org/2000/svg" xmlns:xlink="http://www.w3.org/1999/xlink">
<g id="graph0" class="graph" transform="scale(1 1) rotate(0) translate(4 1373.91)">
<title>%3</title>
<polygon fill="white" stroke="transparent" points="-4,4 -4,-1373.91 1790.48,-1373.91 1790.48,4 -4,4"/>
<!-- 4,&#45;1 (Fluid) -->
<g id="node1" class="node">
<title>4,&#45;1 (Fluid)</title>
<ellipse fill="none" stroke="black" cx="1571.49" cy="-684.95" rx="61.99" ry="18"/>
<text text-anchor="middle" x="1571.49" y="-681.25" font-family="Times,serif" font-size="14.00">4,&#45;1 (Fluid)</text>
</g>
<!-- 8,3 (Nylon mk2) -->
<g id="node2" class="node">
<title>8,3 (Nylon mk2)</title>
<ellipse fill="none" stroke="black" cx="1313.92" cy="-1219.81" rx="85.29" ry="18"/>
<text text-anchor="middle" x="1313.92" y="-1216.11" font-family="Times,serif" font-size="14.00">8,3 (Nylon mk2)</text>
</g>
<!-- 4,&#45;1 (Fluid)&#45;&gt;8,3 (Nylon mk2) -->
<g id="edge1" class="edge">
<title>4,&#45;1 (Fluid)&#45;&gt;8,3 (Nylon mk2)</title>
<path fill="none" stroke="black" stroke-width="4.84" d="M1562.77,-703.06C1524.71,-782.1 1372.93,-1097.28 1327.09,-1192.45"/>
<polygon fill="black" stroke="black" stroke-width="4.84" points="1323.16,-1190.87 1322.63,-1201.71 1330.78,-1194.54 1323.16,-1190.87"/>
<text text-anchor="middle" x="1364.93" y="-951.55" font-family="Times,serif" font-size="14.00">benzene&#45;barrel*11744</text>
</g>
<!-- 0,0 (LE BUS) -->
<g id="node3" class="node">
<title>0,0 (LE BUS)</title>
<ellipse fill="none" stroke="black" cx="1714.98" cy="-684.95" rx="71.49" ry="18"/>
<text text-anchor="middle" x="1714.98" y="-681.25" font-family="Times,serif" font-size="14.00">0,0 (LE BUS)</text>
</g>
<!-- 4,&#45;1 (Fluid)&#45;&gt;0,0 (LE BUS) -->
<g id="edge2" class="edge">
<title>4,&#45;1 (Fluid)&#45;&gt;0,0 (LE BUS)</title>
<path fill="none" stroke="black" stroke-width="0.41" d="M1633.59,-684.95C1633.69,-684.95 1633.79,-684.95 1633.89,-684.95"/>
<polygon fill="black" stroke="black" stroke-width="0.41" points="1633.19,-688.45 1643.19,-684.95 1633.19,-681.45 1633.19,-688.45"/>
<text text-anchor="middle" x="1558.24" y="-688.75" font-family="Times,serif" font-size="14.00">benzene&#45;barrel*1000</text>
</g>
<!-- 4,4 (Hydrogen Chloride, item=nylon Nylon/Nylon parts) -->
<g id="node4" class="node">
<title>4,4 (Hydrogen Chloride, item=nylon Nylon/Nylon parts)</title>
<ellipse fill="none" stroke="black" cx="271.03" cy="-388.13" rx="271.05" ry="18"/>
<text text-anchor="middle" x="271.03" y="-384.43" font-family="Times,serif" font-size="14.00">4,4 (Hydrogen Chloride, item=nylon Nylon/Nylon parts)</text>
</g>
<!-- 4,&#45;1 (Fluid)&#45;&gt;4,4 (Hydrogen Chloride, item=nylon Nylon/Nylon parts) -->
<g id="edge3" class="edge">
<title>4,&#45;1 (Fluid)&#45;&gt;4,4 (Hydrogen Chloride, item=nylon Nylon/Nylon parts)</title>
<path fill="none" stroke="black" stroke-width="0.55" d="M1522.49,-673.77C1327.71,-629.31 606.71,-464.75 356.9,-407.73"/>
<polygon fill="black" stroke="black" stroke-width="0.55" points="357.67,-404.32 347.14,-405.5 356.11,-411.14 357.67,-404.32"/>
<text text-anchor="middle" x="864.19" y="-544.55" font-family="Times,serif" font-size="14.00">benzene&#45;barrel*1328</text>
</g>
<!-- &#45;5,2 (Optical fiber) -->
<g id="node6" class="node">
<title>&#45;5,2 (Optical fiber)</title>
<ellipse fill="none" stroke="black" cx="271.03" cy="-981.78" rx="96.38" ry="18"/>
<text text-anchor="middle" x="271.03" y="-978.08" font-family="Times,serif" font-size="14.00">&#45;5,2 (Optical fiber)</text>
</g>
<!-- 4,&#45;1 (Fluid)&#45;&gt;&#45;5,2 (Optical fiber) -->
<g id="edge5" class="edge">
<title>4,&#45;1 (Fluid)&#45;&gt;&#45;5,2 (Optical fiber)</title>
<path fill="none" stroke="black" stroke-width="1.07" d="M1522.49,-696.14C1323.68,-741.51 576.68,-912.01 342.02,-965.57"/>
<polygon fill="black" stroke="black" stroke-width="1.07" points="341.2,-962.17 332.23,-967.81 342.76,-968.99 341.2,-962.17"/>
<text text-anchor="middle" x="856.76" y="-834.65" font-family="Times,serif" font-size="14.00">benzene&#45;barrel*2592</text>
</g>
<!-- 3,3 (Random electronic components, Small Parts) -->
<g id="node7" class="node">
<title>3,3 (Random electronic components, Small Parts)</title>
<ellipse fill="none" stroke="black" cx="1313.92" cy="-150.1" rx="240.46" ry="18"/>
<text text-anchor="middle" x="1313.92" y="-146.4" font-family="Times,serif" font-size="14.00">3,3 (Random electronic components, Small Parts)</text>
</g>
<!-- 4,&#45;1 (Fluid)&#45;&gt;3,3 (Random electronic components, Small Parts) -->
<g id="edge8" class="edge">
<title>4,&#45;1 (Fluid)&#45;&gt;3,3 (Random electronic components, Small Parts)</title>
<path fill="none" stroke="black" stroke-width="1.84" d="M1562.77,-666.85C1524.71,-587.81 1372.93,-272.63 1327.09,-177.45"/>
<polygon fill="black" stroke="black" stroke-width="1.84" points="1330.12,-175.69 1322.63,-168.2 1323.82,-178.72 1330.12,-175.69"/>
<text text-anchor="middle" x="1369.43" y="-425.95" font-family="Times,serif" font-size="14.00">benzene&#45;barrel*4464</text>
</g>
<!-- 7,&#45;1 (Aromatics, Need more Benzene? Look no further!) -->
<g id="node5" class="node">
<title>7,&#45;1 (Aromatics, Need more Benzene? Look no further!)</title>
<ellipse fill="none" stroke="black" cx="735.16" cy="-1351.91" rx="268.35" ry="18"/>
<text text-anchor="middle" x="735.16" y="-1348.21" font-family="Times,serif" font-size="14.00">7,&#45;1 (Aromatics, Need more Benzene? Look no further!)</text>
</g>
<!-- 7,&#45;1 (Aromatics, Need more Benzene? Look no further!)&#45;&gt;8,3 (Nylon mk2) -->
<g id="edge9" class="edge">
<title>7,&#45;1 (Aromatics, Need more Benzene? Look no further!)&#45;&gt;8,3 (Nylon mk2)</title>
<path fill="none" stroke="black" stroke-width="1.22" d="M811.12,-1334.57C924.72,-1308.64 1137.14,-1260.16 1245.91,-1235.33"/>
<polygon fill="black" stroke="black" stroke-width="1.22" points="1246.82,-1238.71 1255.79,-1233.08 1245.26,-1231.89 1246.82,-1238.71"/>
<text text-anchor="middle" x="953.01" y="-1288.75" font-family="Times,serif" font-size="14.00">benzene&#45;barrel*2960</text>
</g>
<!-- 7,&#45;1 (Aromatics, Need more Benzene? Look no further!)&#45;&gt;4,4 (Hydrogen Chloride, item=nylon Nylon/Nylon parts) -->
<g id="edge13" class="edge">
<title>7,&#45;1 (Aromatics, Need more Benzene? Look no further!)&#45;&gt;4,4 (Hydrogen Chloride, item=nylon Nylon/Nylon parts)</title>
<path fill="none" stroke="black" stroke-width="0.09" d="M726.3,-1333.52C669.21,-1214.96 353.27,-558.92 284.32,-415.73"/>
<polygon fill="black" stroke="black" stroke-width="0.09" points="287.28,-413.82 279.79,-406.33 280.97,-416.85 287.28,-413.82"/>
<text text-anchor="middle" x="434.31" y="-878.43" font-family="Times,serif" font-size="14.00">benzene&#45;barrel*224</text>
</g>
<!-- 7,&#45;1 (Aromatics, Need more Benzene? Look no further!)&#45;&gt;&#45;5,2 (Optical fiber) -->
<g id="edge4" class="edge">
<title>7,&#45;1 (Aromatics, Need more Benzene? Look no further!)&#45;&gt;&#45;5,2 (Optical fiber)</title>
<path fill="none" stroke="black" stroke-width="0.22" d="M712.46,-1333.8C635.94,-1272.78 387.42,-1074.6 300.99,-1005.67"/>
<polygon fill="black" stroke="black" stroke-width="0.22" points="303.14,-1002.91 293.14,-999.41 298.78,-1008.38 303.14,-1002.91"/>
<text text-anchor="middle" x="435.72" y="-1173.54" font-family="Times,serif" font-size="14.00">benzene&#45;barrel*528</text>
</g>
<!-- 7,&#45;1 (Aromatics, Need more Benzene? Look no further!)&#45;&gt;3,3 (Random electronic components, Small Parts) -->
<g id="edge6" class="edge">
<title>7,&#45;1 (Aromatics, Need more Benzene? Look no further!)&#45;&gt;3,3 (Random electronic components, Small Parts)</title>
<path fill="none" stroke="black" stroke-width="0.47" d="M744.02,-1333.51C809.7,-1197.12 1220.57,-343.93 1300.47,-178.03"/>
<polygon fill="black" stroke="black" stroke-width="0.47" points="1303.86,-179.06 1305.04,-168.53 1297.55,-176.02 1303.86,-179.06"/>
<text text-anchor="middle" x="946.74" y="-759.57" font-family="Times,serif" font-size="14.00">benzene&#45;barrel*1152</text>
</g>
<!-- 4,10 (Fluid Recycling) -->
<g id="node8" class="node">
<title>4,10 (Fluid Recycling)</title>
<ellipse fill="none" stroke="black" cx="735.16" cy="-18" rx="112.38" ry="18"/>
<text text-anchor="middle" x="735.16" y="-14.3" font-family="Times,serif" font-size="14.00">4,10 (Fluid Recycling)</text>
</g>
<!-- 4,10 (Fluid Recycling)&#45;&gt;8,3 (Nylon mk2) -->
<g id="edge11" class="edge">
<title>4,10 (Fluid Recycling)&#45;&gt;8,3 (Nylon mk2)</title>
<path fill="none" stroke="black" stroke-width="1.23" d="M744.02,-36.4C809.77,-172.93 1221.45,-1027.79 1300.72,-1192.4"/>
<polygon fill="black" stroke="black" stroke-width="1.23" points="1297.76,-1194.33 1305.25,-1201.82 1304.07,-1191.29 1297.76,-1194.33"/>
<text text-anchor="middle" x="946.87" y="-618.2" font-family="Times,serif" font-size="14.00">benzene&#45;barrel*2980</text>
</g>
<!-- 4,10 (Fluid Recycling)&#45;&gt;4,4 (Hydrogen Chloride, item=nylon Nylon/Nylon parts) -->
<g id="edge7" class="edge">
<title>4,10 (Fluid Recycling)&#45;&gt;4,4 (Hydrogen Chloride, item=nylon Nylon/Nylon parts)</title>
<path fill="none" stroke="black" stroke-width="0.29" d="M712.77,-35.85C636.81,-96.43 388.81,-294.2 301.65,-363.71"/>
<polygon fill="black" stroke="black" stroke-width="0.29" points="299.37,-361.05 293.73,-370.02 303.73,-366.53 299.37,-361.05"/>
<text text-anchor="middle" x="436.21" y="-203.58" font-family="Times,serif" font-size="14.00">benzene&#45;barrel*700</text>
</g>
<!-- 4,10 (Fluid Recycling)&#45;&gt;&#45;5,2 (Optical fiber) -->
<g id="edge12" class="edge">
<title>4,10 (Fluid Recycling)&#45;&gt;&#45;5,2 (Optical fiber)</title>
<path fill="none" stroke="black" stroke-width="0.43" d="M726.5,-35.97C669.97,-153.36 353.44,-810.65 284.35,-954.12"/>
<polygon fill="black" stroke="black" stroke-width="0.43" points="280.99,-953.02 279.81,-963.54 287.3,-956.05 280.99,-953.02"/>
<text text-anchor="middle" x="429.92" y="-498.84" font-family="Times,serif" font-size="14.00">benzene&#45;barrel*1055</text>
</g>
<!-- 4,10 (Fluid Recycling)&#45;&gt;3,3 (Random electronic components, Small Parts) -->
<g id="edge10" class="edge">
<title>4,10 (Fluid Recycling)&#45;&gt;3,3 (Random electronic components, Small Parts)</title>
<path fill="none" stroke="black" stroke-width="0.35" d="M799.86,-32.77C904.76,-56.71 1111.95,-104 1228.72,-130.65"/>
<polygon fill="black" stroke="black" stroke-width="0.35" points="1228.16,-134.12 1238.69,-132.93 1229.72,-127.29 1228.16,-134.12"/>
<text text-anchor="middle" x="943.29" y="-85.51" font-family="Times,serif" font-size="14.00">benzene&#45;barrel*848</text>
</g>
</g>
</svg>
