<?xml version="1.0" encoding="UTF-8" standalone="no"?>
<!DOCTYPE svg PUBLIC "-//W3C//DTD SVG 1.1//EN"
 "http://www.w3.org/Graphics/SVG/1.1/DTD/svg11.dtd">
<!-- Generated by graphviz version 2.43.0 (0)
 -->
<!-- Title: %3 Pages: 1 -->
<svg width="5416pt" height="4624pt"
 viewBox="0.00 0.00 5415.89 4623.91" xmlns="http://www.w3.org/2000/svg" xmlns:xlink="http://www.w3.org/1999/xlink">
<g id="graph0" class="graph" transform="scale(1 1) rotate(0) translate(4 4619.91)">
<title>%3</title>
<polygon fill="white" stroke="transparent" points="-4,4 -4,-4619.91 5411.89,-4619.91 5411.89,4 -4,4"/>
<!-- 0,11 () -->
<g id="node1" class="node">
<title>0,11 ()</title>
<ellipse fill="none" stroke="black" cx="3943.35" cy="-643.17" rx="40.89" ry="18"/>
<text text-anchor="middle" x="3943.35" y="-639.47" font-family="Times,serif" font-size="14.00">0,11 ()</text>
</g>
<!-- 3,3 (electrolysis power, DO NOT CONNECT THESE WIRES, Landfill Drive&#45;Thru, Small Parts) -->
<g id="node2" class="node">
<title>3,3 (electrolysis power, DO NOT CONNECT THESE WIRES, Landfill Drive&#45;Thru, Small Parts)</title>
<ellipse fill="none" stroke="black" cx="3123.78" cy="-169.99" rx="440.82" ry="18"/>
<text text-anchor="middle" x="3123.78" y="-166.29" font-family="Times,serif" font-size="14.00">3,3 (electrolysis power, DO NOT CONNECT THESE WIRES, Landfill Drive&#45;Thru, Small Parts)</text>
</g>
<!-- 0,11 ()&#45;&gt;3,3 (electrolysis power, DO NOT CONNECT THESE WIRES, Landfill Drive&#45;Thru, Small Parts) -->
<g id="edge1" class="edge">
<title>0,11 ()&#45;&gt;3,3 (electrolysis power, DO NOT CONNECT THESE WIRES, Landfill Drive&#45;Thru, Small Parts)</title>
<path fill="none" stroke="black" stroke-width="6.54" d="M3918.38,-628.75C3801.56,-561.31 3308.71,-276.76 3163.93,-193.17"/>
<polygon fill="black" stroke="black" stroke-width="6.54" points="3166.42,-188.01 3154.9,-187.96 3160.7,-197.91 3166.42,-188.01"/>
<text text-anchor="middle" x="3476.15" y="-414.76" font-family="Times,serif" font-size="14.00">iron&#45;plate*184200</text>
</g>
<!-- 4,4 (Hydrogen Chloride, item=nylon Nylon/Nylon parts) -->
<g id="node3" class="node">
<title>4,4 (Hydrogen Chloride, item=nylon Nylon/Nylon parts)</title>
<ellipse fill="none" stroke="black" cx="4499.61" cy="-1408.8" rx="271.05" ry="18"/>
<text text-anchor="middle" x="4499.61" y="-1405.1" font-family="Times,serif" font-size="14.00">4,4 (Hydrogen Chloride, item=nylon Nylon/Nylon parts)</text>
</g>
<!-- 0,11 ()&#45;&gt;4,4 (Hydrogen Chloride, item=nylon Nylon/Nylon parts) -->
<g id="edge2" class="edge">
<title>0,11 ()&#45;&gt;4,4 (Hydrogen Chloride, item=nylon Nylon/Nylon parts)</title>
<path fill="none" stroke="black" stroke-width="2.52" d="M3956.02,-660.6C4028.67,-760.6 4392.35,-1261.17 4480.4,-1382.35"/>
<polygon fill="black" stroke="black" stroke-width="2.52" points="4477.77,-1384.69 4486.48,-1390.73 4483.44,-1380.58 4477.77,-1384.69"/>
<text text-anchor="middle" x="4157.71" y="-1025.28" font-family="Times,serif" font-size="14.00">iron&#45;plate*71040</text>
</g>
<!-- 0,10 (item=meat Meat) -->
<g id="node5" class="node">
<title>0,10 (item=meat Meat)</title>
<ellipse fill="none" stroke="black" cx="2182.59" cy="-71.07" rx="120.48" ry="18"/>
<text text-anchor="middle" x="2182.59" y="-67.37" font-family="Times,serif" font-size="14.00">0,10 (item=meat Meat)</text>
</g>
<!-- 0,11 ()&#45;&gt;0,10 (item=meat Meat) -->
<g id="edge21" class="edge">
<title>0,11 ()&#45;&gt;0,10 (item=meat Meat)</title>
<path fill="none" stroke="black" stroke-width="0.14" d="M3910.14,-632.38C3697.16,-563.18 2523.24,-181.75 2242.78,-90.63"/>
<polygon fill="black" stroke="black" stroke-width="0.14" points="2243.78,-87.27 2233.19,-87.51 2241.62,-93.93 2243.78,-87.27"/>
<text text-anchor="middle" x="3020.46" y="-365.3" font-family="Times,serif" font-size="14.00">iron&#45;plate*4080</text>
</g>
<!-- &#45;2,&#45;3 (Trains) -->
<g id="node6" class="node">
<title>&#45;2,&#45;3 (Trains)</title>
<ellipse fill="none" stroke="black" cx="1282.54" cy="-363.51" rx="70.39" ry="18"/>
<text text-anchor="middle" x="1282.54" y="-359.81" font-family="Times,serif" font-size="14.00">&#45;2,&#45;3 (Trains)</text>
</g>
<!-- 0,11 ()&#45;&gt;&#45;2,&#45;3 (Trains) -->
<g id="edge4" class="edge">
<title>0,11 ()&#45;&gt;&#45;2,&#45;3 (Trains)</title>
<path fill="none" stroke="black" stroke-width="0.54" d="M3903.41,-638.98C3607.41,-607.87 1755.25,-413.2 1357.65,-371.41"/>
<polygon fill="black" stroke="black" stroke-width="0.54" points="1358.01,-367.92 1347.7,-370.36 1357.28,-374.89 1358.01,-367.92"/>
<text text-anchor="middle" x="2570.03" y="-508.99" font-family="Times,serif" font-size="14.00">iron&#45;plate*15240</text>
</g>
<!-- 2,5 (Simple Circuits) -->
<g id="node7" class="node">
<title>2,5 (Simple Circuits)</title>
<ellipse fill="none" stroke="black" cx="579.26" cy="-996.76" rx="106.68" ry="18"/>
<text text-anchor="middle" x="579.26" y="-993.06" font-family="Times,serif" font-size="14.00">2,5 (Simple Circuits)</text>
</g>
<!-- 0,11 ()&#45;&gt;2,5 (Simple Circuits) -->
<g id="edge13" class="edge">
<title>0,11 ()&#45;&gt;2,5 (Simple Circuits)</title>
<path fill="none" stroke="black" stroke-width="0.86" d="M3903.53,-647.36C3567.07,-682.72 1199.69,-931.55 679.97,-986.17"/>
<polygon fill="black" stroke="black" stroke-width="0.86" points="679.45,-982.71 669.87,-987.23 680.18,-989.67 679.45,-982.71"/>
<text text-anchor="middle" x="2231.25" y="-820.57" font-family="Times,serif" font-size="14.00">iron&#45;plate*24160</text>
</g>
<!-- 2,12 (Yet more coke) -->
<g id="node8" class="node">
<title>2,12 (Yet more coke)</title>
<ellipse fill="none" stroke="black" cx="194.33" cy="-1861.31" rx="106.68" ry="18"/>
<text text-anchor="middle" x="194.33" y="-1857.61" font-family="Times,serif" font-size="14.00">2,12 (Yet more coke)</text>
</g>
<!-- 0,11 ()&#45;&gt;2,12 (Yet more coke) -->
<g id="edge6" class="edge">
<title>0,11 ()&#45;&gt;2,12 (Yet more coke)</title>
<path fill="none" stroke="black" stroke-width="1.18" d="M3910.37,-653.89C3570.08,-764.46 701.89,-1696.39 253.25,-1842.16"/>
<polygon fill="black" stroke="black" stroke-width="1.18" points="252.15,-1838.84 243.72,-1845.26 254.31,-1845.5 252.15,-1838.84"/>
<text text-anchor="middle" x="2021.31" y="-1251.83" font-family="Times,serif" font-size="14.00">iron&#45;plate*33360</text>
</g>
<!-- 4,3 (item=nexelit&#45;plate Nexelit platery) -->
<g id="node9" class="node">
<title>4,3 (item=nexelit&#45;plate Nexelit platery)</title>
<ellipse fill="none" stroke="black" cx="194.33" cy="-2807.67" rx="194.17" ry="18"/>
<text text-anchor="middle" x="194.33" y="-2803.97" font-family="Times,serif" font-size="14.00">4,3 (item=nexelit&#45;plate Nexelit platery)</text>
</g>
<!-- 0,11 ()&#45;&gt;4,3 (item=nexelit&#45;plate Nexelit platery) -->
<g id="edge22" class="edge">
<title>0,11 ()&#45;&gt;4,3 (item=nexelit&#45;plate Nexelit platery)</title>
<path fill="none" stroke="black" stroke-width="0.29" d="M3918.42,-657.57C3613.88,-833.39 615.23,-2564.67 234.1,-2784.71"/>
<polygon fill="black" stroke="black" stroke-width="0.29" points="232.25,-2781.74 225.34,-2789.77 235.75,-2787.8 232.25,-2781.74"/>
<text text-anchor="middle" x="2020.26" y="-1724.94" font-family="Times,serif" font-size="14.00">iron&#45;plate*8280</text>
</g>
<!-- 3,16 (More Coke) -->
<g id="node10" class="node">
<title>3,16 (More Coke)</title>
<ellipse fill="none" stroke="black" cx="579.26" cy="-3672.22" rx="90.98" ry="18"/>
<text text-anchor="middle" x="579.26" y="-3668.52" font-family="Times,serif" font-size="14.00">3,16 (More Coke)</text>
</g>
<!-- 0,11 ()&#45;&gt;3,16 (More Coke) -->
<g id="edge9" class="edge">
<title>0,11 ()&#45;&gt;3,16 (More Coke)</title>
<path fill="none" stroke="black" stroke-width="1.28" d="M3925.25,-659.47C3675.09,-884.72 911.14,-3373.39 606.48,-3647.71"/>
<polygon fill="black" stroke="black" stroke-width="1.28" points="604.05,-3645.19 598.96,-3654.48 608.73,-3650.39 604.05,-3645.19"/>
<text text-anchor="middle" x="2205.37" y="-2157.39" font-family="Times,serif" font-size="14.00">iron&#45;plate*36120</text>
</g>
<!-- &#45;6,1 (Coke and Coal Dust from Biomass (needs Iron plates)) -->
<g id="node11" class="node">
<title>&#45;6,1 (Coke and Coal Dust from Biomass (needs Iron plates))</title>
<ellipse fill="none" stroke="black" cx="1282.54" cy="-4305.47" rx="285.95" ry="18"/>
<text text-anchor="middle" x="1282.54" y="-4301.77" font-family="Times,serif" font-size="14.00">&#45;6,1 (Coke and Coal Dust from Biomass (needs Iron plates))</text>
</g>
<!-- 0,11 ()&#45;&gt;&#45;6,1 (Coke and Coal Dust from Biomass (needs Iron plates)) -->
<g id="edge12" class="edge">
<title>0,11 ()&#45;&gt;&#45;6,1 (Coke and Coal Dust from Biomass (needs Iron plates))</title>
<path fill="none" stroke="black" stroke-width="1.52" d="M3930.6,-660.73C3742.35,-919.84 1530.49,-3964.19 1301.64,-4279.18"/>
<polygon fill="black" stroke="black" stroke-width="1.52" points="1298.78,-4277.16 1295.74,-4287.31 1304.45,-4281.27 1298.78,-4277.16"/>
<text text-anchor="middle" x="2555.62" y="-2473.76" font-family="Times,serif" font-size="14.00">iron&#45;plate*42760</text>
</g>
<!-- 2,2 () -->
<g id="node12" class="node">
<title>2,2 ()</title>
<ellipse fill="none" stroke="black" cx="2182.59" cy="-4597.91" rx="35.19" ry="18"/>
<text text-anchor="middle" x="2182.59" y="-4594.21" font-family="Times,serif" font-size="14.00">2,2 ()</text>
</g>
<!-- 0,11 ()&#45;&gt;2,2 () -->
<g id="edge14" class="edge">
<title>0,11 ()&#45;&gt;2,2 ()</title>
<path fill="none" stroke="black" stroke-width="0.74" d="M3935.31,-661.24C3813.36,-935.14 2343.91,-4235.59 2194.78,-4570.53"/>
<polygon fill="black" stroke="black" stroke-width="0.74" points="2191.44,-4569.42 2190.57,-4579.98 2197.84,-4572.27 2191.44,-4569.42"/>
<text text-anchor="middle" x="3004.54" y="-2619.69" font-family="Times,serif" font-size="14.00">iron&#45;plate*20880</text>
</g>
<!-- &#45;3,8 (Urea) -->
<g id="node13" class="node">
<title>&#45;3,8 (Urea)</title>
<ellipse fill="none" stroke="black" cx="3123.78" cy="-4498.99" rx="61.19" ry="18"/>
<text text-anchor="middle" x="3123.78" y="-4495.29" font-family="Times,serif" font-size="14.00">&#45;3,8 (Urea)</text>
</g>
<!-- 0,11 ()&#45;&gt;&#45;3,8 (Urea) -->
<g id="edge15" class="edge">
<title>0,11 ()&#45;&gt;&#45;3,8 (Urea)</title>
<path fill="none" stroke="black" stroke-width="0.15" d="M3939.52,-661.22C3882.2,-930.88 3200.85,-4136.37 3129.76,-4470.82"/>
<polygon fill="black" stroke="black" stroke-width="0.15" points="3126.32,-4470.19 3127.66,-4480.7 3133.17,-4471.64 3126.32,-4470.19"/>
<text text-anchor="middle" x="3478.64" y="-2569.82" font-family="Times,serif" font-size="14.00">iron&#45;plate*4200</text>
</g>
<!-- &#45;4,1 () -->
<g id="node15" class="node">
<title>&#45;4,1 ()</title>
<ellipse fill="none" stroke="black" cx="3943.35" cy="-4025.8" rx="38.19" ry="18"/>
<text text-anchor="middle" x="3943.35" y="-4022.1" font-family="Times,serif" font-size="14.00">&#45;4,1 ()</text>
</g>
<!-- 0,11 ()&#45;&gt;&#45;4,1 () -->
<g id="edge20" class="edge">
<title>0,11 ()&#45;&gt;&#45;4,1 ()</title>
<path fill="none" stroke="black" stroke-width="0.22" d="M3943.35,-661.37C3943.35,-912.68 3943.35,-3687.02 3943.35,-3997.58"/>
<polygon fill="black" stroke="black" stroke-width="0.22" points="3939.85,-3997.59 3943.35,-4007.59 3946.85,-3997.59 3939.85,-3997.59"/>
<text text-anchor="middle" x="3887.35" y="-2333.28" font-family="Times,serif" font-size="14.00">iron&#45;plate*6280</text>
</g>
<!-- &#45;1,8 (Fibre via. moss) -->
<g id="node16" class="node">
<title>&#45;1,8 (Fibre via. moss)</title>
<ellipse fill="none" stroke="black" cx="3514.23" cy="-18" rx="109.38" ry="18"/>
<text text-anchor="middle" x="3514.23" y="-14.3" font-family="Times,serif" font-size="14.00">&#45;1,8 (Fibre via. moss)</text>
</g>
<!-- 0,11 ()&#45;&gt;&#45;1,8 (Fibre via. moss) -->
<g id="edge23" class="edge">
<title>0,11 ()&#45;&gt;&#45;1,8 (Fibre via. moss)</title>
<path fill="none" stroke="black" stroke-width="0.07" d="M3931.43,-625.8C3871.71,-538.8 3605.19,-150.51 3532.56,-44.7"/>
<polygon fill="black" stroke="black" stroke-width="0.07" points="3535.26,-42.45 3526.72,-36.19 3529.49,-46.41 3535.26,-42.45"/>
<text text-anchor="middle" x="3676" y="-339.05" font-family="Times,serif" font-size="14.00">iron&#45;plate*2040</text>
</g>
<!-- &#45;3,&#45;3 (Zinc Plates, 32 to consume four belts) -->
<g id="node17" class="node">
<title>&#45;3,&#45;3 (Zinc Plates, 32 to consume four belts)</title>
<ellipse fill="none" stroke="black" cx="3857.05" cy="-213.48" rx="213.66" ry="18"/>
<text text-anchor="middle" x="3857.05" y="-209.78" font-family="Times,serif" font-size="14.00">&#45;3,&#45;3 (Zinc Plates, 32 to consume four belts)</text>
</g>
<!-- 0,11 ()&#45;&gt;&#45;3,&#45;3 (Zinc Plates, 32 to consume four belts) -->
<g id="edge25" class="edge">
<title>0,11 ()&#45;&gt;&#45;3,&#45;3 (Zinc Plates, 32 to consume four belts)</title>
<path fill="none" stroke="black" stroke-width="1.78" d="M3939.7,-624.99C3926.22,-557.87 3879.21,-323.81 3862.77,-241.98"/>
<polygon fill="black" stroke="black" stroke-width="1.78" points="3866.15,-241.03 3860.75,-231.91 3859.29,-242.4 3866.15,-241.03"/>
<text text-anchor="middle" x="3840.74" y="-437.28" font-family="Times,serif" font-size="14.00">iron&#45;plate*50280</text>
</g>
<!-- 2,0 (Sodium Sulfate) -->
<g id="node18" class="node">
<title>2,0 (Sodium Sulfate)</title>
<ellipse fill="none" stroke="black" cx="4499.61" cy="-3260.18" rx="106.68" ry="18"/>
<text text-anchor="middle" x="4499.61" y="-3256.48" font-family="Times,serif" font-size="14.00">2,0 (Sodium Sulfate)</text>
</g>
<!-- 0,11 ()&#45;&gt;2,0 (Sodium Sulfate) -->
<g id="edge27" class="edge">
<title>0,11 ()&#45;&gt;2,0 (Sodium Sulfate)</title>
<path fill="none" stroke="black" stroke-width="0.07" d="M3947.2,-661.28C3993.19,-877.65 4436.83,-2964.79 4493.64,-3232.06"/>
<polygon fill="black" stroke="black" stroke-width="0.07" points="4490.27,-3233.06 4495.78,-3242.11 4497.12,-3231.6 4490.27,-3233.06"/>
<text text-anchor="middle" x="4164.42" y="-1950.47" font-family="Times,serif" font-size="14.00">iron&#45;plate*2040</text>
</g>
<!-- 0,9 (Auog Brains) -->
<g id="node19" class="node">
<title>0,9 (Auog Brains)</title>
<ellipse fill="none" stroke="black" cx="4152.89" cy="-447.38" rx="91.78" ry="18"/>
<text text-anchor="middle" x="4152.89" y="-443.68" font-family="Times,serif" font-size="14.00">0,9 (Auog Brains)</text>
</g>
<!-- 0,11 ()&#45;&gt;0,9 (Auog Brains) -->
<g id="edge28" class="edge">
<title>0,11 ()&#45;&gt;0,9 (Auog Brains)</title>
<path fill="none" stroke="black" stroke-width="0.07" d="M3960.86,-626.82C3997.6,-592.48 4082.95,-512.72 4126.42,-472.1"/>
<polygon fill="black" stroke="black" stroke-width="0.07" points="4128.86,-474.61 4133.78,-465.23 4124.08,-469.5 4128.86,-474.61"/>
<text text-anchor="middle" x="3987.64" y="-553.26" font-family="Times,serif" font-size="14.00">iron&#45;plate*2040</text>
</g>
<!-- 4,6 (Circuit substrate and Doped silicon) -->
<g id="node20" class="node">
<title>4,6 (Circuit substrate and Doped silicon)</title>
<ellipse fill="none" stroke="black" cx="4402.15" cy="-711.09" rx="199.56" ry="18"/>
<text text-anchor="middle" x="4402.15" y="-707.39" font-family="Times,serif" font-size="14.00">4,6 (Circuit substrate and Doped silicon)</text>
</g>
<!-- 0,11 ()&#45;&gt;4,6 (Circuit substrate and Doped silicon) -->
<g id="edge30" class="edge">
<title>0,11 ()&#45;&gt;4,6 (Circuit substrate and Doped silicon)</title>
<path fill="none" stroke="black" stroke-width="0.07" d="M3982.47,-648.96C4049.41,-658.87 4188.33,-679.44 4288.01,-694.19"/>
<polygon fill="black" stroke="black" stroke-width="0.07" points="4287.74,-697.69 4298.14,-695.69 4288.76,-690.77 4287.74,-697.69"/>
<text text-anchor="middle" x="4079.24" y="-675.38" font-family="Times,serif" font-size="14.00">iron&#45;plate*2040</text>
</g>
<!-- &#45;4,&#45;2 (For Science!) -->
<g id="node21" class="node">
<title>&#45;4,&#45;2 (For Science!)</title>
<ellipse fill="none" stroke="black" cx="4615.34" cy="-1013.49" rx="98.58" ry="18"/>
<text text-anchor="middle" x="4615.34" y="-1009.79" font-family="Times,serif" font-size="14.00">&#45;4,&#45;2 (For Science!)</text>
</g>
<!-- 0,11 ()&#45;&gt;&#45;4,&#45;2 (For Science!) -->
<g id="edge32" class="edge">
<title>0,11 ()&#45;&gt;&#45;4,&#45;2 (For Science!)</title>
<path fill="none" stroke="black" stroke-width="0.18" d="M3969.28,-657.46C4072,-714.07 4450.77,-922.8 4575.34,-991.45"/>
<polygon fill="black" stroke="black" stroke-width="0.18" points="4573.76,-994.58 4584.21,-996.34 4577.14,-988.44 4573.76,-994.58"/>
<text text-anchor="middle" x="4216.31" y="-828.26" font-family="Times,serif" font-size="14.00">iron&#45;plate*5040</text>
</g>
<!-- &#45;1,10 (Iron Plates) -->
<g id="node4" class="node">
<title>&#45;1,10 (Iron Plates)</title>
<ellipse fill="none" stroke="black" cx="4696.38" cy="-2334.49" rx="94.78" ry="18"/>
<text text-anchor="middle" x="4696.38" y="-2330.79" font-family="Times,serif" font-size="14.00">&#45;1,10 (Iron Plates)</text>
</g>
<!-- &#45;1,10 (Iron Plates)&#45;&gt;3,3 (electrolysis power, DO NOT CONNECT THESE WIRES, Landfill Drive&#45;Thru, Small Parts) -->
<g id="edge11" class="edge">
<title>&#45;1,10 (Iron Plates)&#45;&gt;3,3 (electrolysis power, DO NOT CONNECT THESE WIRES, Landfill Drive&#45;Thru, Small Parts)</title>
<path fill="none" stroke="black" stroke-width="6.99" d="M4683.25,-2316.43C4542.43,-2122.61 3312.38,-429.59 3143.07,-196.54"/>
<polygon fill="black" stroke="black" stroke-width="6.99" points="3147.89,-192.78 3137.07,-188.28 3138,-199.97 3147.89,-192.78"/>
<text text-anchor="middle" x="3848.16" y="-1260.29" font-family="Times,serif" font-size="14.00">iron&#45;plate*196920</text>
</g>
<!-- &#45;1,10 (Iron Plates)&#45;&gt;4,4 (Hydrogen Chloride, item=nylon Nylon/Nylon parts) -->
<g id="edge10" class="edge">
<title>&#45;1,10 (Iron Plates)&#45;&gt;4,4 (Hydrogen Chloride, item=nylon Nylon/Nylon parts)</title>
<path fill="none" stroke="black" stroke-width="1.9" d="M4692.53,-2316.41C4668.19,-2201.91 4535.52,-1577.7 4505.61,-1436.99"/>
<polygon fill="black" stroke="black" stroke-width="1.9" points="4508.98,-1436.05 4503.48,-1426.99 4502.14,-1437.5 4508.98,-1436.05"/>
<text text-anchor="middle" x="4538.57" y="-1880.5" font-family="Times,serif" font-size="14.00">iron&#45;plate*53640</text>
</g>
<!-- &#45;1,10 (Iron Plates)&#45;&gt;0,10 (item=meat Meat) -->
<g id="edge3" class="edge">
<title>&#45;1,10 (Iron Plates)&#45;&gt;0,10 (item=meat Meat)</title>
<path fill="none" stroke="black" stroke-width="0.29" d="M4676.51,-2316.6C4455.98,-2118.04 2468.97,-328.92 2210.31,-96.02"/>
<polygon fill="black" stroke="black" stroke-width="0.29" points="2212.27,-93.08 2202.5,-88.99 2207.59,-98.28 2212.27,-93.08"/>
<text text-anchor="middle" x="3387.41" y="-1210.11" font-family="Times,serif" font-size="14.00">iron&#45;plate*8240</text>
</g>
<!-- &#45;1,10 (Iron Plates)&#45;&gt;&#45;2,&#45;3 (Trains) -->
<g id="edge8" class="edge">
<title>&#45;1,10 (Iron Plates)&#45;&gt;&#45;2,&#45;3 (Trains)</title>
<path fill="none" stroke="black" stroke-width="0.63" d="M4666.6,-2317.3C4353.53,-2136.55 1669.85,-587.12 1320.07,-385.18"/>
<polygon fill="black" stroke="black" stroke-width="0.63" points="1321.73,-382.1 1311.32,-380.13 1318.23,-388.16 1321.73,-382.1"/>
<text text-anchor="middle" x="2932.84" y="-1355.04" font-family="Times,serif" font-size="14.00">iron&#45;plate*17680</text>
</g>
<!-- &#45;1,10 (Iron Plates)&#45;&gt;2,5 (Simple Circuits) -->
<g id="edge5" class="edge">
<title>&#45;1,10 (Iron Plates)&#45;&gt;2,5 (Simple Circuits)</title>
<path fill="none" stroke="black" stroke-width="0.62" d="M4648.36,-2318.89C4223.21,-2180.75 1107.52,-1168.4 638.34,-1015.95"/>
<polygon fill="black" stroke="black" stroke-width="0.62" points="639.3,-1012.59 628.71,-1012.83 637.14,-1019.24 639.3,-1012.59"/>
<text text-anchor="middle" x="2582.85" y="-1671.22" font-family="Times,serif" font-size="14.00">iron&#45;plate*17520</text>
</g>
<!-- &#45;1,10 (Iron Plates)&#45;&gt;2,12 (Yet more coke) -->
<g id="edge16" class="edge">
<title>&#45;1,10 (Iron Plates)&#45;&gt;2,12 (Yet more coke)</title>
<path fill="none" stroke="black" stroke-width="0.91" d="M4612.93,-2325.72C4057.72,-2267.36 901.55,-1935.64 295.11,-1871.9"/>
<polygon fill="black" stroke="black" stroke-width="0.91" points="295.4,-1868.41 285.08,-1870.84 294.66,-1875.37 295.4,-1868.41"/>
<text text-anchor="middle" x="2393.52" y="-2102.61" font-family="Times,serif" font-size="14.00">iron&#45;plate*25760</text>
</g>
<!-- &#45;1,10 (Iron Plates)&#45;&gt;4,3 (item=nexelit&#45;plate Nexelit platery) -->
<g id="edge7" class="edge">
<title>&#45;1,10 (Iron Plates)&#45;&gt;4,3 (item=nexelit&#45;plate Nexelit platery)</title>
<path fill="none" stroke="black" stroke-width="0.07" d="M4612.93,-2343.26C4068.44,-2400.49 1022.44,-2720.64 333.05,-2793.09"/>
<polygon fill="black" stroke="black" stroke-width="0.07" points="332.65,-2789.62 323.07,-2794.14 333.38,-2796.58 332.65,-2789.62"/>
<text text-anchor="middle" x="2416.99" y="-2571.98" font-family="Times,serif" font-size="14.00">iron&#45;plate*2040</text>
</g>
<!-- &#45;1,10 (Iron Plates)&#45;&gt;3,16 (More Coke) -->
<g id="edge19" class="edge">
<title>&#45;1,10 (Iron Plates)&#45;&gt;3,16 (More Coke)</title>
<path fill="none" stroke="black" stroke-width="0.93" d="M4648.36,-2350.09C4222.65,-2488.41 1099.24,-3503.27 636.49,-3653.63"/>
<polygon fill="black" stroke="black" stroke-width="0.93" points="635.11,-3650.39 626.68,-3656.81 637.28,-3657.05 635.11,-3650.39"/>
<text text-anchor="middle" x="2581.92" y="-3005.66" font-family="Times,serif" font-size="14.00">iron&#45;plate*26160</text>
</g>
<!-- &#45;1,10 (Iron Plates)&#45;&gt;&#45;6,1 (Coke and Coal Dust from Biomass (needs Iron plates)) -->
<g id="edge18" class="edge">
<title>&#45;1,10 (Iron Plates)&#45;&gt;&#45;6,1 (Coke and Coal Dust from Biomass (needs Iron plates))</title>
<path fill="none" stroke="black" stroke-width="0.55" d="M4666.6,-2351.68C4354.27,-2532 1682.41,-4074.6 1322.57,-4282.36"/>
<polygon fill="black" stroke="black" stroke-width="0.55" points="1320.7,-4279.4 1313.79,-4287.43 1324.2,-4285.46 1320.7,-4279.4"/>
<text text-anchor="middle" x="2934.09" y="-3320.82" font-family="Times,serif" font-size="14.00">iron&#45;plate*15600</text>
</g>
<!-- &#45;1,10 (Iron Plates)&#45;&gt;2,2 () -->
<g id="edge26" class="edge">
<title>&#45;1,10 (Iron Plates)&#45;&gt;2,2 ()</title>
<path fill="none" stroke="black" stroke-width="0.37" d="M4676.51,-2352.38C4455.29,-2551.56 2456.54,-4351.24 2207.93,-4575.09"/>
<polygon fill="black" stroke="black" stroke-width="0.37" points="2205.23,-4572.81 2200.15,-4582.11 2209.92,-4578.01 2205.23,-4572.81"/>
<text text-anchor="middle" x="3381.72" y="-3467.54" font-family="Times,serif" font-size="14.00">iron&#45;plate*10360</text>
</g>
<!-- &#45;1,10 (Iron Plates)&#45;&gt;&#45;3,8 (Urea) -->
<g id="edge24" class="edge">
<title>&#45;1,10 (Iron Plates)&#45;&gt;&#45;3,8 (Urea)</title>
<path fill="none" stroke="black" stroke-width="0.22" d="M4683.25,-2352.55C4542.29,-2546.57 3309.84,-4242.9 3142.54,-4473.15"/>
<polygon fill="black" stroke="black" stroke-width="0.22" points="3139.67,-4471.16 3136.62,-4481.3 3145.33,-4475.27 3139.67,-4471.16"/>
<text text-anchor="middle" x="3856.9" y="-3416.65" font-family="Times,serif" font-size="14.00">iron&#45;plate*6240</text>
</g>
<!-- 4,1 (item=filtration&#45;media Filtration Media) -->
<g id="node14" class="node">
<title>4,1 (item=filtration&#45;media Filtration Media)</title>
<ellipse fill="none" stroke="black" cx="5069.58" cy="-1973.97" rx="214.46" ry="18"/>
<text text-anchor="middle" x="5069.58" y="-1970.27" font-family="Times,serif" font-size="14.00">4,1 (item=filtration&#45;media Filtration Media)</text>
</g>
<!-- &#45;1,10 (Iron Plates)&#45;&gt;4,1 (item=filtration&#45;media Filtration Media) -->
<g id="edge17" class="edge">
<title>&#45;1,10 (Iron Plates)&#45;&gt;4,1 (item=filtration&#45;media Filtration Media)</title>
<path fill="none" stroke="black" stroke-width="0.91" d="M4714.88,-2316.61C4776.19,-2257.39 4972.75,-2067.51 5043.71,-1998.95"/>
<polygon fill="black" stroke="black" stroke-width="0.91" points="5046.2,-2001.42 5050.96,-1991.96 5041.33,-1996.39 5046.2,-2001.42"/>
<text text-anchor="middle" x="4818.8" y="-2161.58" font-family="Times,serif" font-size="14.00">iron&#45;plate*25600</text>
</g>
<!-- &#45;1,10 (Iron Plates)&#45;&gt;&#45;4,1 () -->
<g id="edge31" class="edge">
<title>&#45;1,10 (Iron Plates)&#45;&gt;&#45;4,1 ()</title>
<path fill="none" stroke="black" stroke-width="0.07" d="M4688.3,-2352.62C4613.74,-2520.09 4045.83,-3795.64 3955.46,-3998.62"/>
<polygon fill="black" stroke="black" stroke-width="0.07" points="3952.16,-3997.41 3951.29,-4007.97 3958.56,-4000.26 3952.16,-3997.41"/>
<text text-anchor="middle" x="4265.88" y="-3179.42" font-family="Times,serif" font-size="14.00">iron&#45;plate*2040</text>
</g>
<!-- &#45;1,10 (Iron Plates)&#45;&gt;2,0 (Sodium Sulfate) -->
<g id="edge29" class="edge">
<title>&#45;1,10 (Iron Plates)&#45;&gt;2,0 (Sodium Sulfate)</title>
<path fill="none" stroke="black" stroke-width="0.11" d="M4692.53,-2352.57C4668.19,-2467.07 4535.52,-3091.27 4505.61,-3231.99"/>
<polygon fill="black" stroke="black" stroke-width="0.11" points="4502.14,-3231.48 4503.48,-3241.98 4508.98,-3232.93 4502.14,-3231.48"/>
<text text-anchor="middle" x="4543.07" y="-2796.08" font-family="Times,serif" font-size="14.00">iron&#45;plate*3200</text>
</g>
<!-- &#45;1,6 (Flimble&#39;s Slaughterhouse and Daycare Centre, Auog Products) -->
<g id="node22" class="node">
<title>&#45;1,6 (Flimble&#39;s Slaughterhouse and Daycare Centre, Auog Products)</title>
<ellipse fill="none" stroke="black" cx="5082.27" cy="-2584.6" rx="325.74" ry="18"/>
<text text-anchor="middle" x="5082.27" y="-2580.9" font-family="Times,serif" font-size="14.00">&#45;1,6 (Flimble&#39;s Slaughterhouse and Daycare Centre, Auog Products)</text>
</g>
<!-- &#45;1,10 (Iron Plates)&#45;&gt;&#45;1,6 (Flimble&#39;s Slaughterhouse and Daycare Centre, Auog Products) -->
<g id="edge33" class="edge">
<title>&#45;1,10 (Iron Plates)&#45;&gt;&#45;1,6 (Flimble&#39;s Slaughterhouse and Daycare Centre, Auog Products)</title>
<path fill="none" stroke="black" stroke-width="0.18" d="M4723.2,-2351.88C4791.01,-2395.83 4969.31,-2511.39 5046.17,-2561.2"/>
<polygon fill="black" stroke="black" stroke-width="0.18" points="5044.29,-2564.16 5054.59,-2566.66 5048.1,-2558.29 5044.29,-2564.16"/>
<text text-anchor="middle" x="4828.69" y="-2460.34" font-family="Times,serif" font-size="14.00">iron&#45;plate*5080</text>
</g>
</g>
</svg>
