<?xml version="1.0" encoding="UTF-8" standalone="no"?>
<!DOCTYPE svg PUBLIC "-//W3C//DTD SVG 1.1//EN"
 "http://www.w3.org/Graphics/SVG/1.1/DTD/svg11.dtd">
<!-- Generated by graphviz version 2.43.0 (0)
 -->
<!-- Title: %3 Pages: 1 -->
<svg width="949pt" height="718pt"
 viewBox="0.00 0.00 948.80 717.80" xmlns="http://www.w3.org/2000/svg" xmlns:xlink="http://www.w3.org/1999/xlink">
<g id="graph0" class="graph" transform="scale(1 1) rotate(0) translate(4 713.8)">
<title>%3</title>
<polygon fill="white" stroke="transparent" points="-4,4 -4,-713.8 944.8,-713.8 944.8,4 -4,4"/>
<!-- 2,8 (Graphite) -->
<g id="node1" class="node">
<title>2,8 (Graphite)</title>
<ellipse fill="none" stroke="black" cx="435.89" cy="-357.66" rx="76.09" ry="18"/>
<text text-anchor="middle" x="435.89" y="-353.96" font-family="Times,serif" font-size="14.00">2,8 (Graphite)</text>
</g>
<!-- 2,&#45;2 (Tin Plate, Organic Solvent) -->
<g id="node2" class="node">
<title>2,&#45;2 (Tin Plate, Organic Solvent)</title>
<ellipse fill="none" stroke="black" cx="780.91" cy="-357.66" rx="159.77" ry="18"/>
<text text-anchor="middle" x="780.91" y="-353.96" font-family="Times,serif" font-size="14.00">2,&#45;2 (Tin Plate, Organic Solvent)</text>
</g>
<!-- 2,8 (Graphite)&#45;&gt;2,&#45;2 (Tin Plate, Organic Solvent) -->
<g id="edge1" class="edge">
<title>2,8 (Graphite)&#45;&gt;2,&#45;2 (Tin Plate, Organic Solvent)</title>
<path fill="none" stroke="black" stroke-width="0.04" d="M512.03,-357.66C541.29,-357.66 576,-357.66 610.59,-357.66"/>
<polygon fill="black" stroke="black" stroke-width="0.04" points="610.82,-361.16 620.82,-357.66 610.82,-354.16 610.82,-361.16"/>
<text text-anchor="middle" x="561.31" y="-346.46" font-family="Times,serif" font-size="14.00">graphite*2160</text>
</g>
<!-- &#45;4,&#45;4 (Aluminium) -->
<g id="node3" class="node">
<title>&#45;4,&#45;4 (Aluminium)</title>
<ellipse fill="none" stroke="black" cx="640.55" cy="-635.44" rx="90.98" ry="18"/>
<text text-anchor="middle" x="640.55" y="-631.74" font-family="Times,serif" font-size="14.00">&#45;4,&#45;4 (Aluminium)</text>
</g>
<!-- 2,8 (Graphite)&#45;&gt;&#45;4,&#45;4 (Aluminium) -->
<g id="edge2" class="edge">
<title>2,8 (Graphite)&#45;&gt;&#45;4,&#45;4 (Aluminium)</title>
<path fill="none" stroke="black" stroke-width="2.48" d="M449,-375.46C484.01,-422.97 579.79,-552.97 621.13,-609.08"/>
<polygon fill="black" stroke="black" stroke-width="2.48" points="618.53,-611.45 627.28,-617.43 624.16,-607.3 618.53,-611.45"/>
<text text-anchor="middle" x="474.07" y="-496.07" font-family="Times,serif" font-size="14.00">graphite*126800</text>
</g>
<!-- 4,13 (Chromium processing) -->
<g id="node4" class="node">
<title>4,13 (Chromium processing)</title>
<ellipse fill="none" stroke="black" cx="349.91" cy="-691.8" rx="142.97" ry="18"/>
<text text-anchor="middle" x="349.91" y="-688.1" font-family="Times,serif" font-size="14.00">4,13 (Chromium processing)</text>
</g>
<!-- 2,8 (Graphite)&#45;&gt;4,13 (Chromium processing) -->
<g id="edge3" class="edge">
<title>2,8 (Graphite)&#45;&gt;4,13 (Chromium processing)</title>
<path fill="none" stroke="black" stroke-width="0.98" d="M431.14,-376.11C416.88,-431.56 374.29,-597.06 357.16,-663.62"/>
<polygon fill="black" stroke="black" stroke-width="0.98" points="353.74,-662.86 354.64,-673.42 360.52,-664.61 353.74,-662.86"/>
<text text-anchor="middle" x="337.65" y="-523.66" font-family="Times,serif" font-size="14.00">graphite*50080</text>
</g>
<!-- &#45;3,2 (Lead and Solder) -->
<g id="node5" class="node">
<title>&#45;3,2 (Lead and Solder)</title>
<ellipse fill="none" stroke="black" cx="113.74" cy="-481.2" rx="113.98" ry="18"/>
<text text-anchor="middle" x="113.74" y="-477.5" font-family="Times,serif" font-size="14.00">&#45;3,2 (Lead and Solder)</text>
</g>
<!-- 2,8 (Graphite)&#45;&gt;&#45;3,2 (Lead and Solder) -->
<g id="edge4" class="edge">
<title>2,8 (Graphite)&#45;&gt;&#45;3,2 (Lead and Solder)</title>
<path fill="none" stroke="black" stroke-width="0.41" d="M395.74,-373.06C337.9,-395.24 231.05,-436.22 166.78,-460.86"/>
<polygon fill="black" stroke="black" stroke-width="0.41" points="165.31,-457.68 157.23,-464.52 167.82,-464.21 165.31,-457.68"/>
<text text-anchor="middle" x="224.76" y="-420.76" font-family="Times,serif" font-size="14.00">graphite*20720</text>
</g>
<!-- &#45;3,9 (Silicon Wafers) -->
<g id="node6" class="node">
<title>&#45;3,9 (Silicon Wafers)</title>
<ellipse fill="none" stroke="black" cx="128.83" cy="-200.31" rx="103.98" ry="18"/>
<text text-anchor="middle" x="128.83" y="-196.61" font-family="Times,serif" font-size="14.00">&#45;3,9 (Silicon Wafers)</text>
</g>
<!-- 2,8 (Graphite)&#45;&gt;&#45;3,9 (Silicon Wafers) -->
<g id="edge5" class="edge">
<title>2,8 (Graphite)&#45;&gt;&#45;3,9 (Silicon Wafers)</title>
<path fill="none" stroke="black" stroke-width="0.74" d="M403.9,-341.27C348.23,-312.74 233.56,-253.98 171.31,-222.08"/>
<polygon fill="black" stroke="black" stroke-width="0.74" points="172.64,-218.83 162.15,-217.39 169.45,-225.06 172.64,-218.83"/>
<text text-anchor="middle" x="231.1" y="-285.47" font-family="Times,serif" font-size="14.00">graphite*38080</text>
</g>
<!-- 6,4 (Electronic components) -->
<g id="node7" class="node">
<title>6,4 (Electronic components)</title>
<ellipse fill="none" stroke="black" cx="375.31" cy="-18" rx="141.88" ry="18"/>
<text text-anchor="middle" x="375.31" y="-14.3" font-family="Times,serif" font-size="14.00">6,4 (Electronic components)</text>
</g>
<!-- 2,8 (Graphite)&#45;&gt;6,4 (Electronic components) -->
<g id="edge6" class="edge">
<title>2,8 (Graphite)&#45;&gt;6,4 (Electronic components)</title>
<path fill="none" stroke="black" stroke-width="0.12" d="M432.63,-339.4C422.65,-283.42 392.42,-113.92 380.36,-46.3"/>
<polygon fill="black" stroke="black" stroke-width="0.12" points="383.78,-45.58 378.58,-36.35 376.89,-46.81 383.78,-45.58"/>
<text text-anchor="middle" x="354.49" y="-196.65" font-family="Times,serif" font-size="14.00">graphite*6320</text>
</g>
<!-- &#45;7,&#45;8 (Tin mk2) -->
<g id="node8" class="node">
<title>&#45;7,&#45;8 (Tin mk2)</title>
<ellipse fill="none" stroke="black" cx="650.35" cy="-87.39" rx="78.79" ry="18"/>
<text text-anchor="middle" x="650.35" y="-83.69" font-family="Times,serif" font-size="14.00">&#45;7,&#45;8 (Tin mk2)</text>
</g>
<!-- 2,8 (Graphite)&#45;&gt;&#45;7,&#45;8 (Tin mk2) -->
<g id="edge7" class="edge">
<title>2,8 (Graphite)&#45;&gt;&#45;7,&#45;8 (Tin mk2)</title>
<path fill="none" stroke="black" stroke-width="2.23" d="M449.96,-339.93C486.85,-293.45 586.47,-167.9 629.78,-113.32"/>
<polygon fill="black" stroke="black" stroke-width="2.23" points="632.76,-115.2 636.23,-105.19 627.27,-110.85 632.76,-115.2"/>
<text text-anchor="middle" x="478.87" y="-230.43" font-family="Times,serif" font-size="14.00">graphite*113920</text>
</g>
</g>
</svg>
