<?xml version="1.0" encoding="UTF-8" standalone="no"?>
<!DOCTYPE svg PUBLIC "-//W3C//DTD SVG 1.1//EN"
 "http://www.w3.org/Graphics/SVG/1.1/DTD/svg11.dtd">
<!-- Generated by graphviz version 2.43.0 (0)
 -->
<!-- Title: %3 Pages: 1 -->
<svg width="1198pt" height="865pt"
 viewBox="0.00 0.00 1198.15 864.98" xmlns="http://www.w3.org/2000/svg" xmlns:xlink="http://www.w3.org/1999/xlink">
<g id="graph0" class="graph" transform="scale(1 1) rotate(0) translate(4 860.98)">
<title>%3</title>
<polygon fill="white" stroke="transparent" points="-4,4 -4,-860.98 1194.15,-860.98 1194.15,4 -4,4"/>
<!-- 4,5 (Yet More Raw Fiber) -->
<g id="node1" class="node">
<title>4,5 (Yet More Raw Fiber)</title>
<ellipse fill="none" stroke="black" cx="488.56" cy="-655.84" rx="128.08" ry="18"/>
<text text-anchor="middle" x="488.56" y="-652.14" font-family="Times,serif" font-size="14.00">4,5 (Yet More Raw Fiber)</text>
</g>
<!-- 4,1 (item=filtration&#45;media Filtration Media) -->
<g id="node2" class="node">
<title>4,1 (item=filtration&#45;media Filtration Media)</title>
<ellipse fill="none" stroke="black" cx="807.48" cy="-336.92" rx="214.46" ry="18"/>
<text text-anchor="middle" x="807.48" y="-333.22" font-family="Times,serif" font-size="14.00">4,1 (item=filtration&#45;media Filtration Media)</text>
</g>
<!-- 4,5 (Yet More Raw Fiber)&#45;&gt;4,1 (item=filtration&#45;media Filtration Media) -->
<g id="edge1" class="edge">
<title>4,5 (Yet More Raw Fiber)&#45;&gt;4,1 (item=filtration&#45;media Filtration Media)</title>
<path fill="none" stroke="black" stroke-width="0.9" d="M506.62,-637.78C560.43,-583.97 719.82,-424.58 782.12,-362.28"/>
<polygon fill="black" stroke="black" stroke-width="0.9" points="784.63,-364.73 789.22,-355.18 779.68,-359.78 784.63,-364.73"/>
<text text-anchor="middle" x="585.37" y="-503.83" font-family="Times,serif" font-size="14.00">raw&#45;fiber*13360</text>
</g>
<!-- 2,4 (Formica and Phenolic boards) -->
<g id="node4" class="node">
<title>2,4 (Formica and Phenolic boards)</title>
<ellipse fill="none" stroke="black" cx="169.63" cy="-336.92" rx="169.77" ry="18"/>
<text text-anchor="middle" x="169.63" y="-333.22" font-family="Times,serif" font-size="14.00">2,4 (Formica and Phenolic boards)</text>
</g>
<!-- 4,5 (Yet More Raw Fiber)&#45;&gt;2,4 (Formica and Phenolic boards) -->
<g id="edge3" class="edge">
<title>4,5 (Yet More Raw Fiber)&#45;&gt;2,4 (Formica and Phenolic boards)</title>
<path fill="none" stroke="black" stroke-width="0.68" d="M470.5,-637.78C416.68,-583.97 257.29,-424.58 195,-362.28"/>
<polygon fill="black" stroke="black" stroke-width="0.68" points="197.44,-359.78 187.89,-355.18 192.49,-364.73 197.44,-359.78"/>
<text text-anchor="middle" x="273.75" y="-503.83" font-family="Times,serif" font-size="14.00">raw&#45;fiber*10176</text>
</g>
<!-- 4,2 (More fiberboard) -->
<g id="node6" class="node">
<title>4,2 (More fiberboard)</title>
<ellipse fill="none" stroke="black" cx="488.56" cy="-838.98" rx="111.28" ry="18"/>
<text text-anchor="middle" x="488.56" y="-835.28" font-family="Times,serif" font-size="14.00">4,2 (More fiberboard)</text>
</g>
<!-- 4,5 (Yet More Raw Fiber)&#45;&gt;4,2 (More fiberboard) -->
<g id="edge6" class="edge">
<title>4,5 (Yet More Raw Fiber)&#45;&gt;4,2 (More fiberboard)</title>
<path fill="none" stroke="black" stroke-width="0.53" d="M488.56,-674.07C488.56,-706.02 488.56,-772.35 488.56,-810.44"/>
<polygon fill="black" stroke="black" stroke-width="0.53" points="485.06,-810.83 488.56,-820.83 492.06,-810.83 485.06,-810.83"/>
<text text-anchor="middle" x="434.06" y="-746.06" font-family="Times,serif" font-size="14.00">raw&#45;fiber*7904</text>
</g>
<!-- &#45;1,8 (Fibre via. moss) -->
<g id="node3" class="node">
<title>&#45;1,8 (Fibre via. moss)</title>
<ellipse fill="none" stroke="black" cx="488.56" cy="-18" rx="109.38" ry="18"/>
<text text-anchor="middle" x="488.56" y="-14.3" font-family="Times,serif" font-size="14.00">&#45;1,8 (Fibre via. moss)</text>
</g>
<!-- &#45;1,8 (Fibre via. moss)&#45;&gt;4,1 (item=filtration&#45;media Filtration Media) -->
<g id="edge2" class="edge">
<title>&#45;1,8 (Fibre via. moss)&#45;&gt;4,1 (item=filtration&#45;media Filtration Media)</title>
<path fill="none" stroke="black" stroke-width="0.69" d="M506.62,-36.06C560.43,-89.87 719.82,-249.26 782.12,-311.56"/>
<polygon fill="black" stroke="black" stroke-width="0.69" points="779.68,-314.07 789.22,-318.66 784.63,-309.12 779.68,-314.07"/>
<text text-anchor="middle" x="585.37" y="-177.61" font-family="Times,serif" font-size="14.00">raw&#45;fiber*10272</text>
</g>
<!-- &#45;1,8 (Fibre via. moss)&#45;&gt;2,4 (Formica and Phenolic boards) -->
<g id="edge5" class="edge">
<title>&#45;1,8 (Fibre via. moss)&#45;&gt;2,4 (Formica and Phenolic boards)</title>
<path fill="none" stroke="black" stroke-width="1.68" d="M470.5,-36.06C416.68,-89.87 257.29,-249.26 195,-311.56"/>
<polygon fill="black" stroke="black" stroke-width="1.68" points="192.49,-309.12 187.89,-318.66 197.44,-314.07 192.49,-309.12"/>
<text text-anchor="middle" x="273.75" y="-177.61" font-family="Times,serif" font-size="14.00">raw&#45;fiber*25072</text>
</g>
<!-- 6,2 (Raw Fiber&#39;s cojoined twin) -->
<g id="node5" class="node">
<title>6,2 (Raw Fiber&#39;s cojoined twin)</title>
<ellipse fill="none" stroke="black" cx="1034.82" cy="-336.92" rx="155.17" ry="18"/>
<text text-anchor="middle" x="1034.82" y="-333.22" font-family="Times,serif" font-size="14.00">6,2 (Raw Fiber&#39;s cojoined twin)</text>
</g>
<!-- 6,2 (Raw Fiber&#39;s cojoined twin)&#45;&gt;4,1 (item=filtration&#45;media Filtration Media) -->
<g id="edge4" class="edge">
<title>6,2 (Raw Fiber&#39;s cojoined twin)&#45;&gt;4,1 (item=filtration&#45;media Filtration Media)</title>
<path fill="none" stroke="black" stroke-width="1.52" d="M879.41,-336.92C879.33,-336.92 879.25,-336.92 879.18,-336.92"/>
<polygon fill="black" stroke="black" stroke-width="1.52" points="888.94,-333.43 878.94,-336.92 888.94,-340.43 888.94,-333.43"/>
<text text-anchor="middle" x="820.29" y="-340.72" font-family="Times,serif" font-size="14.00">raw&#45;fiber*22720</text>
</g>
</g>
</svg>
