<?xml version="1.0" encoding="UTF-8" standalone="no"?>
<!DOCTYPE svg PUBLIC "-//W3C//DTD SVG 1.1//EN"
 "http://www.w3.org/Graphics/SVG/1.1/DTD/svg11.dtd">
<!-- Generated by graphviz version 2.43.0 (0)
 -->
<!-- Title: %3 Pages: 1 -->
<svg width="2083pt" height="1882pt"
 viewBox="0.00 0.00 2083.30 1882.43" xmlns="http://www.w3.org/2000/svg" xmlns:xlink="http://www.w3.org/1999/xlink">
<g id="graph0" class="graph" transform="scale(1 1) rotate(0) translate(4 1878.43)">
<title>%3</title>
<polygon fill="white" stroke="transparent" points="-4,4 -4,-1878.43 2079.3,-1878.43 2079.3,4 -4,4"/>
<!-- &#45;2,&#45;10 (Iron ore dust duplicate) -->
<g id="node1" class="node">
<title>&#45;2,&#45;10 (Iron ore dust duplicate)</title>
<ellipse fill="none" stroke="black" cx="254.19" cy="-1255.78" rx="153.27" ry="18"/>
<text text-anchor="middle" x="254.19" y="-1252.08" font-family="Times,serif" font-size="14.00">&#45;2,&#45;10 (Iron ore dust duplicate)</text>
</g>
<!-- 1,8 (HCl, Salt) -->
<g id="node2" class="node">
<title>1,8 (HCl, Salt)</title>
<ellipse fill="none" stroke="black" cx="556.23" cy="-1557.82" rx="77.19" ry="18"/>
<text text-anchor="middle" x="556.23" y="-1554.12" font-family="Times,serif" font-size="14.00">1,8 (HCl, Salt)</text>
</g>
<!-- &#45;2,&#45;10 (Iron ore dust duplicate)&#45;&gt;1,8 (HCl, Salt) -->
<g id="edge1" class="edge">
<title>&#45;2,&#45;10 (Iron ore dust duplicate)&#45;&gt;1,8 (HCl, Salt)</title>
<path fill="none" stroke="black" stroke-width="3.95" d="M272.18,-1273.77C323.7,-1325.29 471.89,-1473.48 531.23,-1532.82"/>
<polygon fill="black" stroke="black" stroke-width="3.95" points="528.79,-1535.33 538.34,-1539.93 533.74,-1530.38 528.79,-1535.33"/>
<text text-anchor="middle" x="348.7" y="-1407.1" font-family="Times,serif" font-size="14.00">gravel*168457</text>
</g>
<!-- 2,0 (Sodium Sulfate) -->
<g id="node7" class="node">
<title>2,0 (Sodium Sulfate)</title>
<ellipse fill="none" stroke="black" cx="1794.02" cy="-843.19" rx="106.68" ry="18"/>
<text text-anchor="middle" x="1794.02" y="-839.49" font-family="Times,serif" font-size="14.00">2,0 (Sodium Sulfate)</text>
</g>
<!-- &#45;2,&#45;10 (Iron ore dust duplicate)&#45;&gt;2,0 (Sodium Sulfate) -->
<g id="edge13" class="edge">
<title>&#45;2,&#45;10 (Iron ore dust duplicate)&#45;&gt;2,0 (Sodium Sulfate)</title>
<path fill="none" stroke="black" stroke-width="1.43" d="M315.98,-1239.23C562.2,-1173.25 1472.35,-929.38 1727.27,-861.07"/>
<polygon fill="black" stroke="black" stroke-width="1.43" points="1728.38,-864.4 1737.13,-858.43 1726.56,-857.64 1728.38,-864.4"/>
<text text-anchor="middle" x="973.12" y="-1053.95" font-family="Times,serif" font-size="14.00">gravel*61139</text>
</g>
<!-- &#45;6,7 (Iron ore dust) -->
<g id="node3" class="node">
<title>&#45;6,7 (Iron ore dust)</title>
<ellipse fill="none" stroke="black" cx="968.83" cy="-18" rx="98.58" ry="18"/>
<text text-anchor="middle" x="968.83" y="-14.3" font-family="Times,serif" font-size="14.00">&#45;6,7 (Iron ore dust)</text>
</g>
<!-- &#45;6,7 (Iron ore dust)&#45;&gt;1,8 (HCl, Salt) -->
<g id="edge5" class="edge">
<title>&#45;6,7 (Iron ore dust)&#45;&gt;1,8 (HCl, Salt)</title>
<path fill="none" stroke="black" stroke-width="2.15" d="M963.98,-36.09C921.67,-193.99 615.54,-1336.49 563.68,-1530.01"/>
<polygon fill="black" stroke="black" stroke-width="2.15" points="560.29,-1529.15 561.08,-1539.72 567.05,-1530.96 560.29,-1529.15"/>
<text text-anchor="middle" x="715.33" y="-786.85" font-family="Times,serif" font-size="14.00">gravel*91760</text>
</g>
<!-- 0,&#45;7 (Salt (stone/gravel destruction)) -->
<g id="node4" class="node">
<title>0,&#45;7 (Salt (stone/gravel destruction))</title>
<ellipse fill="none" stroke="black" cx="254.19" cy="-430.59" rx="180.07" ry="18"/>
<text text-anchor="middle" x="254.19" y="-426.89" font-family="Times,serif" font-size="14.00">0,&#45;7 (Salt (stone/gravel destruction))</text>
</g>
<!-- &#45;6,7 (Iron ore dust)&#45;&gt;0,&#45;7 (Salt (stone/gravel destruction)) -->
<g id="edge2" class="edge">
<title>&#45;6,7 (Iron ore dust)&#45;&gt;0,&#45;7 (Salt (stone/gravel destruction))</title>
<path fill="none" stroke="black" stroke-width="0.35" d="M939.03,-35.2C825.78,-100.59 422.03,-333.69 293.67,-407.8"/>
<polygon fill="black" stroke="black" stroke-width="0.35" points="291.82,-404.83 284.91,-412.86 295.32,-410.89 291.82,-404.83"/>
<text text-anchor="middle" x="567.85" y="-225.3" font-family="Times,serif" font-size="14.00">gravel*15040</text>
</g>
<!-- &#45;6,7 (Iron ore dust)&#45;&gt;2,0 (Sodium Sulfate) -->
<g id="edge11" class="edge">
<title>&#45;6,7 (Iron ore dust)&#45;&gt;2,0 (Sodium Sulfate)</title>
<path fill="none" stroke="black" stroke-width="2.49" d="M986.83,-36C1093.72,-142.89 1644.54,-693.71 1769,-818.17"/>
<polygon fill="black" stroke="black" stroke-width="2.49" points="1766.7,-820.83 1776.25,-825.42 1771.65,-815.88 1766.7,-820.83"/>
<text text-anchor="middle" x="1324.91" y="-430.89" font-family="Times,serif" font-size="14.00">gravel*106240</text>
</g>
<!-- &#45;6,&#45;1 (item=agar Agar) -->
<g id="node11" class="node">
<title>&#45;6,&#45;1 (item=agar Agar)</title>
<ellipse fill="none" stroke="black" cx="556.23" cy="-128.55" rx="115.88" ry="18"/>
<text text-anchor="middle" x="556.23" y="-124.85" font-family="Times,serif" font-size="14.00">&#45;6,&#45;1 (item=agar Agar)</text>
</g>
<!-- &#45;6,7 (Iron ore dust)&#45;&gt;&#45;6,&#45;1 (item=agar Agar) -->
<g id="edge22" class="edge">
<title>&#45;6,7 (Iron ore dust)&#45;&gt;&#45;6,&#45;1 (item=agar Agar)</title>
<path fill="none" stroke="black" stroke-width="0.35" d="M913.18,-32.91C838.4,-52.95 705.56,-88.54 624.72,-110.2"/>
<polygon fill="black" stroke="black" stroke-width="0.35" points="623.4,-106.93 614.65,-112.9 625.21,-113.69 623.4,-106.93"/>
<text text-anchor="middle" x="720.45" y="-75.36" font-family="Times,serif" font-size="14.00">gravel*15120</text>
</g>
<!-- 0,0 (LE BUS) -->
<g id="node5" class="node">
<title>0,0 (LE BUS)</title>
<ellipse fill="none" stroke="black" cx="1381.42" cy="-128.55" rx="71.49" ry="18"/>
<text text-anchor="middle" x="1381.42" y="-124.85" font-family="Times,serif" font-size="14.00">0,0 (LE BUS)</text>
</g>
<!-- 0,0 (LE BUS)&#45;&gt;1,8 (HCl, Salt) -->
<g id="edge3" class="edge">
<title>0,0 (LE BUS)&#45;&gt;1,8 (HCl, Salt)</title>
<path fill="none" stroke="black" stroke-width="2.35" d="M1370.99,-146.63C1283.79,-297.66 676.87,-1348.87 571.73,-1530.97"/>
<polygon fill="black" stroke="black" stroke-width="2.35" points="568.68,-1529.26 566.71,-1539.67 574.74,-1532.76 568.68,-1529.26"/>
<text text-anchor="middle" x="918.36" y="-842.6" font-family="Times,serif" font-size="14.00">gravel*100302</text>
</g>
<!-- 0,0 (LE BUS)&#45;&gt;0,&#45;7 (Salt (stone/gravel destruction)) -->
<g id="edge20" class="edge">
<title>0,0 (LE BUS)&#45;&gt;0,&#45;7 (Salt (stone/gravel destruction))</title>
<path fill="none" stroke="black" stroke-width="0.45" d="M1332.26,-141.73C1153.83,-189.54 539.75,-354.08 327.25,-411.02"/>
<polygon fill="black" stroke="black" stroke-width="0.45" points="326.19,-407.68 317.43,-413.65 328,-414.44 326.19,-407.68"/>
<text text-anchor="middle" x="781.25" y="-280.17" font-family="Times,serif" font-size="14.00">gravel*19152</text>
</g>
<!-- 0,0 (LE BUS)&#45;&gt;2,0 (Sodium Sulfate) -->
<g id="edge6" class="edge">
<title>0,0 (LE BUS)&#45;&gt;2,0 (Sodium Sulfate)</title>
<path fill="none" stroke="black" stroke-width="1.39" d="M1391.83,-146.58C1447.62,-243.22 1711.35,-700.01 1778.45,-816.24"/>
<polygon fill="black" stroke="black" stroke-width="1.39" points="1775.61,-818.31 1783.64,-825.22 1781.67,-814.8 1775.61,-818.31"/>
<text text-anchor="middle" x="1536.64" y="-485.21" font-family="Times,serif" font-size="14.00">gravel*59437</text>
</g>
<!-- 0,0 (LE BUS)&#45;&gt;&#45;6,&#45;1 (item=agar Agar) -->
<g id="edge19" class="edge">
<title>0,0 (LE BUS)&#45;&gt;&#45;6,&#45;1 (item=agar Agar)</title>
<path fill="none" stroke="black" stroke-width="0.08" d="M1309.63,-128.55C1169.43,-128.55 857.61,-128.55 682.26,-128.55"/>
<polygon fill="black" stroke="black" stroke-width="0.08" points="682.2,-125.05 672.2,-128.55 682.2,-132.05 682.2,-125.05"/>
<text text-anchor="middle" x="951.95" y="-132.35" font-family="Times,serif" font-size="14.00">gravel*3360</text>
</g>
<!-- 8,1 (Molten Copper) -->
<g id="node6" class="node">
<title>8,1 (Molten Copper)</title>
<ellipse fill="none" stroke="black" cx="968.83" cy="-1668.38" rx="104.78" ry="18"/>
<text text-anchor="middle" x="968.83" y="-1664.68" font-family="Times,serif" font-size="14.00">8,1 (Molten Copper)</text>
</g>
<!-- 8,1 (Molten Copper)&#45;&gt;1,8 (HCl, Salt) -->
<g id="edge12" class="edge">
<title>8,1 (Molten Copper)&#45;&gt;1,8 (HCl, Salt)</title>
<path fill="none" stroke="black" stroke-width="1.06" d="M911.89,-1653.12C834.4,-1632.36 696.33,-1595.36 616.93,-1574.09"/>
<polygon fill="black" stroke="black" stroke-width="1.06" points="617.64,-1570.66 607.08,-1571.45 615.83,-1577.42 617.64,-1570.66"/>
<text text-anchor="middle" x="715.91" y="-1617.41" font-family="Times,serif" font-size="14.00">gravel*45248</text>
</g>
<!-- 8,1 (Molten Copper)&#45;&gt;2,0 (Sodium Sulfate) -->
<g id="edge4" class="edge">
<title>8,1 (Molten Copper)&#45;&gt;2,0 (Sodium Sulfate)</title>
<path fill="none" stroke="black" stroke-width="1.06" d="M986.83,-1650.38C1093.72,-1543.49 1644.54,-992.67 1769,-868.2"/>
<polygon fill="black" stroke="black" stroke-width="1.06" points="1771.65,-870.5 1776.25,-860.95 1766.7,-865.55 1771.65,-870.5"/>
<text text-anchor="middle" x="1329.41" y="-1263.09" font-family="Times,serif" font-size="14.00">gravel*45296</text>
</g>
<!-- 9,&#45;10 (Copper plate yet again) -->
<g id="node8" class="node">
<title>9,&#45;10 (Copper plate yet again)</title>
<ellipse fill="none" stroke="black" cx="1381.42" cy="-1557.82" rx="149.47" ry="18"/>
<text text-anchor="middle" x="1381.42" y="-1554.12" font-family="Times,serif" font-size="14.00">9,&#45;10 (Copper plate yet again)</text>
</g>
<!-- 9,&#45;10 (Copper plate yet again)&#45;&gt;1,8 (HCl, Salt) -->
<g id="edge15" class="edge">
<title>9,&#45;10 (Copper plate yet again)&#45;&gt;1,8 (HCl, Salt)</title>
<path fill="none" stroke="black" stroke-width="1.07" d="M1231.51,-1557.82C1059.7,-1557.82 783.87,-1557.82 643.86,-1557.82"/>
<polygon fill="black" stroke="black" stroke-width="1.07" points="643.61,-1554.32 633.61,-1557.82 643.61,-1561.32 643.61,-1554.32"/>
<text text-anchor="middle" x="889.18" y="-1561.62" font-family="Times,serif" font-size="14.00">gravel*45600</text>
</g>
<!-- 9,&#45;10 (Copper plate yet again)&#45;&gt;2,0 (Sodium Sulfate) -->
<g id="edge7" class="edge">
<title>9,&#45;10 (Copper plate yet again)&#45;&gt;2,0 (Sodium Sulfate)</title>
<path fill="none" stroke="black" stroke-width="1.43" d="M1391.83,-1539.8C1447.62,-1443.16 1711.35,-986.37 1778.45,-870.14"/>
<polygon fill="black" stroke="black" stroke-width="1.43" points="1781.67,-871.57 1783.64,-861.16 1775.61,-868.07 1781.67,-871.57"/>
<text text-anchor="middle" x="1536.64" y="-1208.77" font-family="Times,serif" font-size="14.00">gravel*60960</text>
</g>
<!-- 3,9 (Copper, molten &amp; plate) -->
<g id="node9" class="node">
<title>3,9 (Copper, molten &amp; plate)</title>
<ellipse fill="none" stroke="black" cx="1683.46" cy="-430.59" rx="143.77" ry="18"/>
<text text-anchor="middle" x="1683.46" y="-426.89" font-family="Times,serif" font-size="14.00">3,9 (Copper, molten &amp; plate)</text>
</g>
<!-- 3,9 (Copper, molten &amp; plate)&#45;&gt;1,8 (HCl, Salt) -->
<g id="edge8" class="edge">
<title>3,9 (Copper, molten &amp; plate)&#45;&gt;1,8 (HCl, Salt)</title>
<path fill="none" stroke="black" stroke-width="2.06" d="M1665.3,-448.76C1534.13,-579.92 732.64,-1381.42 580.98,-1533.07"/>
<polygon fill="black" stroke="black" stroke-width="2.06" points="578.46,-1530.65 573.86,-1540.19 583.41,-1535.6 578.46,-1530.65"/>
<text text-anchor="middle" x="1074.64" y="-994.72" font-family="Times,serif" font-size="14.00">gravel*87904</text>
</g>
<!-- 3,9 (Copper, molten &amp; plate)&#45;&gt;2,0 (Sodium Sulfate) -->
<g id="edge9" class="edge">
<title>3,9 (Copper, molten &amp; plate)&#45;&gt;2,0 (Sodium Sulfate)</title>
<path fill="none" stroke="black" stroke-width="1.06" d="M1688.28,-448.59C1705.7,-513.6 1765.47,-736.66 1786.57,-815.4"/>
<polygon fill="black" stroke="black" stroke-width="1.06" points="1783.2,-816.35 1789.17,-825.1 1789.96,-814.54 1783.2,-816.35"/>
<text text-anchor="middle" x="1688.93" y="-635.79" font-family="Times,serif" font-size="14.00">gravel*45296</text>
</g>
<!-- 3,9 (Copper, molten &amp; plate)&#45;&gt;&#45;6,&#45;1 (item=agar Agar) -->
<g id="edge25" class="edge">
<title>3,9 (Copper, molten &amp; plate)&#45;&gt;&#45;6,&#45;1 (item=agar Agar)</title>
<path fill="none" stroke="black" stroke-width="0.36" d="M1622.46,-414.25C1428.63,-362.31 827.68,-201.29 624.31,-146.8"/>
<polygon fill="black" stroke="black" stroke-width="0.36" points="624.92,-143.33 614.35,-144.13 623.1,-150.1 624.92,-143.33"/>
<text text-anchor="middle" x="1074.88" y="-284.32" font-family="Times,serif" font-size="14.00">gravel*15184</text>
</g>
<!-- &#45;6,8 (Copper plate duplicate) -->
<g id="node10" class="node">
<title>&#45;6,8 (Copper plate duplicate)</title>
<ellipse fill="none" stroke="black" cx="143.64" cy="-843.19" rx="143.77" ry="18"/>
<text text-anchor="middle" x="143.64" y="-839.49" font-family="Times,serif" font-size="14.00">&#45;6,8 (Copper plate duplicate)</text>
</g>
<!-- &#45;6,8 (Copper plate duplicate)&#45;&gt;1,8 (HCl, Salt) -->
<g id="edge17" class="edge">
<title>&#45;6,8 (Copper plate duplicate)&#45;&gt;1,8 (HCl, Salt)</title>
<path fill="none" stroke="black" stroke-width="0.71" d="M154.04,-861.21C209.84,-957.86 473.57,-1414.65 540.67,-1530.87"/>
<polygon fill="black" stroke="black" stroke-width="0.71" points="537.82,-1532.94 545.85,-1539.85 543.89,-1529.44 537.82,-1532.94"/>
<text text-anchor="middle" x="298.86" y="-1199.84" font-family="Times,serif" font-size="14.00">gravel*30416</text>
</g>
<!-- &#45;6,8 (Copper plate duplicate)&#45;&gt;0,&#45;7 (Salt (stone/gravel destruction)) -->
<g id="edge23" class="edge">
<title>&#45;6,8 (Copper plate duplicate)&#45;&gt;0,&#45;7 (Salt (stone/gravel destruction))</title>
<path fill="none" stroke="black" stroke-width="0.35" d="M148.46,-825.2C165.88,-760.18 225.65,-537.13 246.74,-458.39"/>
<polygon fill="black" stroke="black" stroke-width="0.35" points="250.14,-459.25 249.34,-448.68 243.38,-457.44 250.14,-459.25"/>
<text text-anchor="middle" x="149.1" y="-645.59" font-family="Times,serif" font-size="14.00">gravel*15008</text>
</g>
<!-- &#45;6,8 (Copper plate duplicate)&#45;&gt;2,0 (Sodium Sulfate) -->
<g id="edge27" class="edge">
<title>&#45;6,8 (Copper plate duplicate)&#45;&gt;2,0 (Sodium Sulfate)</title>
<path fill="none" stroke="black" stroke-width="0.36" d="M287.57,-843.19C609.45,-843.19 1382.3,-843.19 1677.08,-843.19"/>
<polygon fill="black" stroke="black" stroke-width="0.36" points="1677.36,-846.69 1687.36,-843.19 1677.36,-839.69 1677.36,-846.69"/>
<text text-anchor="middle" x="1030.83" y="-846.99" font-family="Times,serif" font-size="14.00">gravel*15360</text>
</g>
<!-- &#45;6,8 (Copper plate duplicate)&#45;&gt;&#45;6,&#45;1 (item=agar Agar) -->
<g id="edge10" class="edge">
<title>&#45;6,8 (Copper plate duplicate)&#45;&gt;&#45;6,&#45;1 (item=agar Agar)</title>
<path fill="none" stroke="black" stroke-width="0.35" d="M154.04,-825.17C209.84,-728.52 473.57,-271.73 540.67,-155.51"/>
<polygon fill="black" stroke="black" stroke-width="0.35" points="543.89,-156.94 545.85,-146.53 537.82,-153.44 543.89,-156.94"/>
<text text-anchor="middle" x="298.86" y="-494.14" font-family="Times,serif" font-size="14.00">gravel*15120</text>
</g>
<!-- 8,&#45;10 (Copper plate duplicater) -->
<g id="node12" class="node">
<title>8,&#45;10 (Copper plate duplicater)</title>
<ellipse fill="none" stroke="black" cx="688.81" cy="-1856.43" rx="154.07" ry="18"/>
<text text-anchor="middle" x="688.81" y="-1852.73" font-family="Times,serif" font-size="14.00">8,&#45;10 (Copper plate duplicater)</text>
</g>
<!-- 8,&#45;10 (Copper plate duplicater)&#45;&gt;1,8 (HCl, Salt) -->
<g id="edge14" class="edge">
<title>8,&#45;10 (Copper plate duplicater)&#45;&gt;1,8 (HCl, Salt)</title>
<path fill="none" stroke="black" stroke-width="0.71" d="M680.72,-1838.2C658.24,-1787.59 594.98,-1645.1 568.32,-1585.05"/>
<polygon fill="black" stroke="black" stroke-width="0.71" points="571.48,-1583.53 564.22,-1575.82 565.08,-1586.38 571.48,-1583.53"/>
<text text-anchor="middle" x="576.02" y="-1715.43" font-family="Times,serif" font-size="14.00">gravel*30352</text>
</g>
<!-- &#45;3,&#45;8 () -->
<g id="node13" class="node">
<title>&#45;3,&#45;8 ()</title>
<ellipse fill="none" stroke="black" cx="443.21" cy="-1753.58" rx="40.89" ry="18"/>
<text text-anchor="middle" x="443.21" y="-1749.88" font-family="Times,serif" font-size="14.00">&#45;3,&#45;8 ()</text>
</g>
<!-- &#45;3,&#45;8 ()&#45;&gt;1,8 (HCl, Salt) -->
<g id="edge16" class="edge">
<title>&#45;3,&#45;8 ()&#45;&gt;1,8 (HCl, Salt)</title>
<path fill="none" stroke="black" stroke-width="0.43" d="M453.44,-1735.86C473.3,-1701.46 517.2,-1625.44 540.68,-1584.75"/>
<polygon fill="black" stroke="black" stroke-width="0.43" points="543.81,-1586.34 545.78,-1575.93 537.75,-1582.84 543.81,-1586.34"/>
<text text-anchor="middle" x="448.56" y="-1664.11" font-family="Times,serif" font-size="14.00">gravel*18240</text>
</g>
<!-- 1,10 (Iron Ore Dust) -->
<g id="node14" class="node">
<title>1,10 (Iron Ore Dust)</title>
<ellipse fill="none" stroke="black" cx="1970.66" cy="-843.19" rx="104.78" ry="18"/>
<text text-anchor="middle" x="1970.66" y="-839.49" font-family="Times,serif" font-size="14.00">1,10 (Iron Ore Dust)</text>
</g>
<!-- 1,10 (Iron Ore Dust)&#45;&gt;2,0 (Sodium Sulfate) -->
<g id="edge18" class="edge">
<title>1,10 (Iron Ore Dust)&#45;&gt;2,0 (Sodium Sulfate)</title>
<path fill="none" stroke="black" stroke-width="0.35" d="M1865.86,-843.19C1865.79,-843.19 1865.71,-843.19 1865.64,-843.19"/>
<polygon fill="black" stroke="black" stroke-width="0.35" points="1875.42,-839.69 1865.42,-843.19 1875.42,-846.69 1875.42,-839.69"/>
<text text-anchor="middle" x="1817.25" y="-846.99" font-family="Times,serif" font-size="14.00">gravel*15004</text>
</g>
<!-- &#45;6,&#45;3 (Chromite Sand) -->
<g id="node15" class="node">
<title>&#45;6,&#45;3 (Chromite Sand)</title>
<ellipse fill="none" stroke="black" cx="1683.46" cy="-1255.78" rx="110.48" ry="18"/>
<text text-anchor="middle" x="1683.46" y="-1252.08" font-family="Times,serif" font-size="14.00">&#45;6,&#45;3 (Chromite Sand)</text>
</g>
<!-- &#45;6,&#45;3 (Chromite Sand)&#45;&gt;1,8 (HCl, Salt) -->
<g id="edge21" class="edge">
<title>&#45;6,&#45;3 (Chromite Sand)&#45;&gt;1,8 (HCl, Salt)</title>
<path fill="none" stroke="black" stroke-width="0.21" d="M1626.01,-1271.18C1433.74,-1322.7 813.86,-1488.79 616.9,-1541.57"/>
<polygon fill="black" stroke="black" stroke-width="0.21" points="615.77,-1538.25 607.02,-1544.22 617.58,-1545.01 615.77,-1538.25"/>
<text text-anchor="middle" x="1077.46" y="-1410.17" font-family="Times,serif" font-size="14.00">gravel*9072</text>
</g>
<!-- &#45;6,&#45;3 (Chromite Sand)&#45;&gt;2,0 (Sodium Sulfate) -->
<g id="edge24" class="edge">
<title>&#45;6,&#45;3 (Chromite Sand)&#45;&gt;2,0 (Sodium Sulfate)</title>
<path fill="none" stroke="black" stroke-width="0.07" d="M1688.28,-1237.79C1705.7,-1172.77 1765.47,-949.72 1786.57,-870.98"/>
<polygon fill="black" stroke="black" stroke-width="0.07" points="1789.96,-871.84 1789.17,-861.28 1783.2,-870.03 1789.96,-871.84"/>
<text text-anchor="middle" x="1693.43" y="-1058.19" font-family="Times,serif" font-size="14.00">gravel*3008</text>
</g>
<!-- 4,&#45;8 (REOOOOOOOOOOOOOO) -->
<g id="node16" class="node">
<title>4,&#45;8 (REOOOOOOOOOOOOOO)</title>
<ellipse fill="none" stroke="black" cx="231.34" cy="-1592.31" rx="154.07" ry="18"/>
<text text-anchor="middle" x="231.34" y="-1588.61" font-family="Times,serif" font-size="14.00">4,&#45;8 (REOOOOOOOOOOOOOO)</text>
</g>
<!-- 4,&#45;8 (REOOOOOOOOOOOOOO)&#45;&gt;1,8 (HCl, Salt) -->
<g id="edge26" class="edge">
<title>4,&#45;8 (REOOOOOOOOOOOOOO)&#45;&gt;1,8 (HCl, Salt)</title>
<path fill="none" stroke="black" stroke-width="0.36" d="M345.43,-1580.2C388.32,-1575.65 436.16,-1570.57 475.41,-1566.4"/>
<polygon fill="black" stroke="black" stroke-width="0.36" points="475.88,-1569.87 485.45,-1565.34 475.14,-1562.91 475.88,-1569.87"/>
<text text-anchor="middle" x="361.92" y="-1562.1" font-family="Times,serif" font-size="14.00">gravel*15240</text>
</g>
</g>
</svg>
