<?xml version="1.0" encoding="UTF-8" standalone="no"?>
<!DOCTYPE svg PUBLIC "-//W3C//DTD SVG 1.1//EN"
 "http://www.w3.org/Graphics/SVG/1.1/DTD/svg11.dtd">
<!-- Generated by graphviz version 2.43.0 (0)
 -->
<!-- Title: %3 Pages: 1 -->
<svg width="1585pt" height="1341pt"
 viewBox="0.00 0.00 1584.56 1341.17" xmlns="http://www.w3.org/2000/svg" xmlns:xlink="http://www.w3.org/1999/xlink">
<g id="graph0" class="graph" transform="scale(1 1) rotate(0) translate(4 1337.17)">
<title>%3</title>
<polygon fill="white" stroke="transparent" points="-4,4 -4,-1337.17 1580.56,-1337.17 1580.56,4 -4,4"/>
<!-- 5,8 (Ulric Food, Sandcastings) -->
<g id="node1" class="node">
<title>5,8 (Ulric Food, Sandcastings)</title>
<ellipse fill="none" stroke="black" cx="828.94" cy="-668.29" rx="151.37" ry="18"/>
<text text-anchor="middle" x="828.94" y="-664.59" font-family="Times,serif" font-size="14.00">5,8 (Ulric Food, Sandcastings)</text>
</g>
<!-- &#45;8,&#45;3 (Duralumin) -->
<g id="node2" class="node">
<title>&#45;8,&#45;3 (Duralumin)</title>
<ellipse fill="none" stroke="black" cx="1486.22" cy="-668.29" rx="90.18" ry="18"/>
<text text-anchor="middle" x="1486.22" y="-664.59" font-family="Times,serif" font-size="14.00">&#45;8,&#45;3 (Duralumin)</text>
</g>
<!-- 5,8 (Ulric Food, Sandcastings)&#45;&gt;&#45;8,&#45;3 (Duralumin) -->
<g id="edge1" class="edge">
<title>5,8 (Ulric Food, Sandcastings)&#45;&gt;&#45;8,&#45;3 (Duralumin)</title>
<path fill="none" stroke="black" stroke-width="0.64" d="M980.56,-668.29C1104.88,-668.29 1277.38,-668.29 1385.35,-668.29"/>
<polygon fill="black" stroke="black" stroke-width="0.64" points="1385.59,-671.79 1395.59,-668.29 1385.59,-664.79 1385.59,-671.79"/>
<text text-anchor="middle" x="1116.45" y="-672.09" font-family="Times,serif" font-size="14.00">sand&#45;casting*8400</text>
</g>
<!-- 0,0 (LE BUS) -->
<g id="node3" class="node">
<title>0,0 (LE BUS)</title>
<ellipse fill="none" stroke="black" cx="1445.06" cy="-897.23" rx="71.49" ry="18"/>
<text text-anchor="middle" x="1445.06" y="-893.53" font-family="Times,serif" font-size="14.00">0,0 (LE BUS)</text>
</g>
<!-- 5,8 (Ulric Food, Sandcastings)&#45;&gt;0,0 (LE BUS) -->
<g id="edge2" class="edge">
<title>5,8 (Ulric Food, Sandcastings)&#45;&gt;0,0 (LE BUS)</title>
<path fill="none" stroke="black" stroke-width="1.26" d="M875.25,-685.5C988.49,-727.58 1278.62,-835.38 1395.33,-878.75"/>
<polygon fill="black" stroke="black" stroke-width="1.26" points="1394.16,-882.05 1404.76,-882.25 1396.6,-875.49 1394.16,-882.05"/>
<text text-anchor="middle" x="1064.29" y="-785.93" font-family="Times,serif" font-size="14.00">sand&#45;casting*16640</text>
</g>
<!-- &#45;1,11 (Steel Plate (from molten)) -->
<g id="node4" class="node">
<title>&#45;1,11 (Steel Plate (from molten))</title>
<ellipse fill="none" stroke="black" cx="1277.69" cy="-1148.55" rx="161.37" ry="18"/>
<text text-anchor="middle" x="1277.69" y="-1144.85" font-family="Times,serif" font-size="14.00">&#45;1,11 (Steel Plate (from molten))</text>
</g>
<!-- 5,8 (Ulric Food, Sandcastings)&#45;&gt;&#45;1,11 (Steel Plate (from molten)) -->
<g id="edge3" class="edge">
<title>5,8 (Ulric Food, Sandcastings)&#45;&gt;&#45;1,11 (Steel Plate (from molten))</title>
<path fill="none" stroke="black" stroke-width="4.59" d="M845.71,-686.24C914.3,-759.64 1173.57,-1037.12 1253.84,-1123.04"/>
<polygon fill="black" stroke="black" stroke-width="4.59" points="1251.07,-1125.95 1260.83,-1130.51 1256.94,-1120.46 1251.07,-1125.95"/>
<text text-anchor="middle" x="978.78" y="-908.44" font-family="Times,serif" font-size="14.00">sand&#45;casting*60560</text>
</g>
<!-- 3,9 (Copper, molten &amp; plate) -->
<g id="node5" class="node">
<title>3,9 (Copper, molten &amp; plate)</title>
<ellipse fill="none" stroke="black" cx="945.44" cy="-1315.17" rx="143.77" ry="18"/>
<text text-anchor="middle" x="945.44" y="-1311.47" font-family="Times,serif" font-size="14.00">3,9 (Copper, molten &amp; plate)</text>
</g>
<!-- 5,8 (Ulric Food, Sandcastings)&#45;&gt;3,9 (Copper, molten &amp; plate) -->
<g id="edge4" class="edge">
<title>5,8 (Ulric Food, Sandcastings)&#45;&gt;3,9 (Copper, molten &amp; plate)</title>
<path fill="none" stroke="black" stroke-width="0.96" d="M832.24,-686.61C848.55,-777.15 920.53,-1176.87 940.37,-1286.99"/>
<polygon fill="black" stroke="black" stroke-width="0.96" points="936.95,-1287.79 942.17,-1297.01 943.84,-1286.55 936.95,-1287.79"/>
<text text-anchor="middle" x="815.3" y="-990.6" font-family="Times,serif" font-size="14.00">sand&#45;casting*12720</text>
</g>
<!-- &#45;6,8 (Copper plate duplicate) -->
<g id="node6" class="node">
<title>&#45;6,8 (Copper plate duplicate)</title>
<ellipse fill="none" stroke="black" cx="592.22" cy="-1281.47" rx="143.77" ry="18"/>
<text text-anchor="middle" x="592.22" y="-1277.77" font-family="Times,serif" font-size="14.00">&#45;6,8 (Copper plate duplicate)</text>
</g>
<!-- 5,8 (Ulric Food, Sandcastings)&#45;&gt;&#45;6,8 (Copper plate duplicate) -->
<g id="edge5" class="edge">
<title>5,8 (Ulric Food, Sandcastings)&#45;&gt;&#45;6,8 (Copper plate duplicate)</title>
<path fill="none" stroke="black" stroke-width="0.93" d="M821.99,-686.31C788.47,-773.13 643.59,-1148.42 602.89,-1253.84"/>
<polygon fill="black" stroke="black" stroke-width="0.93" points="599.52,-1252.86 599.18,-1263.45 606.05,-1255.38 599.52,-1252.86"/>
<text text-anchor="middle" x="641.44" y="-973.87" font-family="Times,serif" font-size="14.00">sand&#45;casting*12240</text>
</g>
<!-- &#45;3,2 (Lead and Solder) -->
<g id="node7" class="node">
<title>&#45;3,2 (Lead and Solder)</title>
<ellipse fill="none" stroke="black" cx="326.76" cy="-1092.35" rx="113.98" ry="18"/>
<text text-anchor="middle" x="326.76" y="-1088.65" font-family="Times,serif" font-size="14.00">&#45;3,2 (Lead and Solder)</text>
</g>
<!-- 5,8 (Ulric Food, Sandcastings)&#45;&gt;&#45;3,2 (Lead and Solder) -->
<g id="edge6" class="edge">
<title>5,8 (Ulric Food, Sandcastings)&#45;&gt;&#45;3,2 (Lead and Solder)</title>
<path fill="none" stroke="black" stroke-width="0.32" d="M807.68,-686.24C727.95,-753.58 446.57,-991.18 355.46,-1068.12"/>
<polygon fill="black" stroke="black" stroke-width="0.32" points="353.12,-1065.51 347.74,-1074.64 357.64,-1070.86 353.12,-1065.51"/>
<text text-anchor="middle" x="515.07" y="-880.98" font-family="Times,serif" font-size="14.00">sand&#45;casting*4160</text>
</g>
<!-- &#45;4,&#45;4 (Aluminium) -->
<g id="node8" class="node">
<title>&#45;4,&#45;4 (Aluminium)</title>
<ellipse fill="none" stroke="black" cx="197.3" cy="-850.08" rx="90.98" ry="18"/>
<text text-anchor="middle" x="197.3" y="-846.38" font-family="Times,serif" font-size="14.00">&#45;4,&#45;4 (Aluminium)</text>
</g>
<!-- 5,8 (Ulric Food, Sandcastings)&#45;&gt;&#45;4,&#45;4 (Aluminium) -->
<g id="edge7" class="edge">
<title>5,8 (Ulric Food, Sandcastings)&#45;&gt;&#45;4,&#45;4 (Aluminium)</title>
<path fill="none" stroke="black" stroke-width="0.32" d="M770.93,-684.99C651.98,-719.22 381.37,-797.1 259.19,-832.27"/>
<polygon fill="black" stroke="black" stroke-width="0.32" points="257.89,-829 249.25,-835.13 259.83,-835.73 257.89,-829"/>
<text text-anchor="middle" x="448.56" y="-762.43" font-family="Times,serif" font-size="14.00">sand&#45;casting*4160</text>
</g>
<!-- 4,3 (item=nexelit&#45;plate Nexelit platery) -->
<g id="node9" class="node">
<title>4,3 (item=nexelit&#45;plate Nexelit platery)</title>
<ellipse fill="none" stroke="black" cx="194.33" cy="-497.15" rx="194.17" ry="18"/>
<text text-anchor="middle" x="194.33" y="-493.45" font-family="Times,serif" font-size="14.00">4,3 (item=nexelit&#45;plate Nexelit platery)</text>
</g>
<!-- 5,8 (Ulric Food, Sandcastings)&#45;&gt;4,3 (item=nexelit&#45;plate Nexelit platery) -->
<g id="edge8" class="edge">
<title>5,8 (Ulric Food, Sandcastings)&#45;&gt;4,3 (item=nexelit&#45;plate Nexelit platery)</title>
<path fill="none" stroke="black" stroke-width="0.3" d="M767.8,-651.81C650.45,-620.16 394.08,-551.02 267.72,-516.94"/>
<polygon fill="black" stroke="black" stroke-width="0.3" points="268.31,-513.48 257.74,-514.25 266.49,-520.23 268.31,-513.48"/>
<text text-anchor="middle" x="451.26" y="-588.17" font-family="Times,serif" font-size="14.00">sand&#45;casting*4000</text>
</g>
<!-- 2,10 (Nickel plate and Nichrome) -->
<g id="node10" class="node">
<title>2,10 (Nickel plate and Nichrome)</title>
<ellipse fill="none" stroke="black" cx="430.63" cy="-145.45" rx="165.17" ry="18"/>
<text text-anchor="middle" x="430.63" y="-141.75" font-family="Times,serif" font-size="14.00">2,10 (Nickel plate and Nichrome)</text>
</g>
<!-- 5,8 (Ulric Food, Sandcastings)&#45;&gt;2,10 (Nickel plate and Nichrome) -->
<g id="edge9" class="edge">
<title>5,8 (Ulric Food, Sandcastings)&#45;&gt;2,10 (Nickel plate and Nichrome)</title>
<path fill="none" stroke="black" stroke-width="0.62" d="M815.23,-650.3C755.87,-572.37 520.85,-263.87 450.58,-171.63"/>
<polygon fill="black" stroke="black" stroke-width="0.62" points="453.34,-169.47 444.49,-163.64 447.77,-173.71 453.34,-169.47"/>
<text text-anchor="middle" x="566.41" y="-414.76" font-family="Times,serif" font-size="14.00">sand&#45;casting*8160</text>
</g>
<!-- &#45;1,10 (Iron Plates) -->
<g id="node11" class="node">
<title>&#45;1,10 (Iron Plates)</title>
<ellipse fill="none" stroke="black" cx="733.36" cy="-18" rx="94.78" ry="18"/>
<text text-anchor="middle" x="733.36" y="-14.3" font-family="Times,serif" font-size="14.00">&#45;1,10 (Iron Plates)</text>
</g>
<!-- 5,8 (Ulric Food, Sandcastings)&#45;&gt;&#45;1,10 (Iron Plates) -->
<g id="edge10" class="edge">
<title>5,8 (Ulric Food, Sandcastings)&#45;&gt;&#45;1,10 (Iron Plates)</title>
<path fill="none" stroke="black" stroke-width="1.53" d="M826.29,-650.22C813.01,-559.9 753.84,-157.31 737.53,-46.38"/>
<polygon fill="black" stroke="black" stroke-width="1.53" points="740.97,-45.68 736.05,-36.29 734.04,-46.69 740.97,-45.68"/>
<text text-anchor="middle" x="710.91" y="-352.1" font-family="Times,serif" font-size="14.00">sand&#45;casting*20160</text>
</g>
<!-- 2,1 (Niobium plates) -->
<g id="node12" class="node">
<title>2,1 (Niobium plates)</title>
<ellipse fill="none" stroke="black" cx="1003.72" cy="-34.68" rx="105.88" ry="18"/>
<text text-anchor="middle" x="1003.72" y="-30.98" font-family="Times,serif" font-size="14.00">2,1 (Niobium plates)</text>
</g>
<!-- 5,8 (Ulric Food, Sandcastings)&#45;&gt;2,1 (Niobium plates) -->
<g id="edge11" class="edge">
<title>5,8 (Ulric Food, Sandcastings)&#45;&gt;2,1 (Niobium plates)</title>
<path fill="none" stroke="black" stroke-width="0.32" d="M833.98,-650.01C858.6,-560.77 966.2,-170.72 996.03,-62.57"/>
<polygon fill="black" stroke="black" stroke-width="0.32" points="999.46,-63.3 998.74,-52.73 992.71,-61.44 999.46,-63.3"/>
<text text-anchor="middle" x="848.51" y="-360.09" font-family="Times,serif" font-size="14.00">sand&#45;casting*4240</text>
</g>
<!-- &#45;7,&#45;8 (Tin mk2) -->
<g id="node13" class="node">
<title>&#45;7,&#45;8 (Tin mk2)</title>
<ellipse fill="none" stroke="black" cx="1231.69" cy="-148.86" rx="78.79" ry="18"/>
<text text-anchor="middle" x="1231.69" y="-145.16" font-family="Times,serif" font-size="14.00">&#45;7,&#45;8 (Tin mk2)</text>
</g>
<!-- 5,8 (Ulric Food, Sandcastings)&#45;&gt;&#45;7,&#45;8 (Tin mk2) -->
<g id="edge12" class="edge">
<title>5,8 (Ulric Food, Sandcastings)&#45;&gt;&#45;7,&#45;8 (Tin mk2)</title>
<path fill="none" stroke="black" stroke-width="0.76" d="M843.04,-650.11C903.46,-572.18 1140.7,-266.2 1211.58,-174.79"/>
<polygon fill="black" stroke="black" stroke-width="0.76" points="1214.55,-176.67 1217.91,-166.62 1209.02,-172.38 1214.55,-176.67"/>
<text text-anchor="middle" x="956.31" y="-416.25" font-family="Times,serif" font-size="14.00">sand&#45;casting*10000</text>
</g>
<!-- 4,13 (Chromium processing) -->
<g id="node14" class="node">
<title>4,13 (Chromium processing)</title>
<ellipse fill="none" stroke="black" cx="1416.57" cy="-373.83" rx="142.97" ry="18"/>
<text text-anchor="middle" x="1416.57" y="-370.13" font-family="Times,serif" font-size="14.00">4,13 (Chromium processing)</text>
</g>
<!-- 5,8 (Ulric Food, Sandcastings)&#45;&gt;4,13 (Chromium processing) -->
<g id="edge13" class="edge">
<title>5,8 (Ulric Food, Sandcastings)&#45;&gt;4,13 (Chromium processing)</title>
<path fill="none" stroke="black" stroke-width="0.46" d="M863.94,-650.76C965.48,-599.87 1260.03,-452.27 1372.35,-395.99"/>
<polygon fill="black" stroke="black" stroke-width="0.46" points="1374.01,-399.07 1381.38,-391.46 1370.88,-392.81 1374.01,-399.07"/>
<text text-anchor="middle" x="1051.65" y="-527.17" font-family="Times,serif" font-size="14.00">sand&#45;casting*6080</text>
</g>
</g>
</svg>
