<?xml version="1.0" encoding="UTF-8" standalone="no"?>
<!DOCTYPE svg PUBLIC "-//W3C//DTD SVG 1.1//EN"
 "http://www.w3.org/Graphics/SVG/1.1/DTD/svg11.dtd">
<!-- Generated by graphviz version 2.43.0 (0)
 -->
<!-- Title: %3 Pages: 1 -->
<svg width="1606pt" height="717pt"
 viewBox="0.00 0.00 1605.59 716.85" xmlns="http://www.w3.org/2000/svg" xmlns:xlink="http://www.w3.org/1999/xlink">
<g id="graph0" class="graph" transform="scale(1 1) rotate(0) translate(4 712.85)">
<title>%3</title>
<polygon fill="white" stroke="transparent" points="-4,4 -4,-712.85 1601.59,-712.85 1601.59,4 -4,4"/>
<!-- 1,5 (Limestone) -->
<g id="node1" class="node">
<title>1,5 (Limestone)</title>
<ellipse fill="none" stroke="black" cx="502.69" cy="-204.73" rx="83.39" ry="18"/>
<text text-anchor="middle" x="502.69" y="-201.03" font-family="Times,serif" font-size="14.00">1,5 (Limestone)</text>
</g>
<!-- 2,14 (Latex) -->
<g id="node2" class="node">
<title>2,14 (Latex)</title>
<ellipse fill="none" stroke="black" cx="502.69" cy="-576.09" rx="66.89" ry="18"/>
<text text-anchor="middle" x="502.69" y="-572.39" font-family="Times,serif" font-size="14.00">2,14 (Latex)</text>
</g>
<!-- 1,5 (Limestone)&#45;&gt;2,14 (Latex) -->
<g id="edge1" class="edge">
<title>1,5 (Limestone)&#45;&gt;2,14 (Latex)</title>
<path fill="none" stroke="black" stroke-width="2.29" d="M502.69,-222.89C502.69,-282.86 502.69,-474.9 502.69,-547.72"/>
<polygon fill="black" stroke="black" stroke-width="2.29" points="499.19,-547.96 502.69,-557.96 506.19,-547.96 499.19,-547.96"/>
<text text-anchor="middle" x="437.19" y="-389.11" font-family="Times,serif" font-size="14.00">limestone*213600</text>
</g>
<!-- 4,12 (Molten Glass) -->
<g id="node5" class="node">
<title>4,12 (Molten Glass)</title>
<ellipse fill="none" stroke="black" cx="855.87" cy="-89.97" rx="102.08" ry="18"/>
<text text-anchor="middle" x="855.87" y="-86.27" font-family="Times,serif" font-size="14.00">4,12 (Molten Glass)</text>
</g>
<!-- 1,5 (Limestone)&#45;&gt;4,12 (Molten Glass) -->
<g id="edge8" class="edge">
<title>1,5 (Limestone)&#45;&gt;4,12 (Molten Glass)</title>
<path fill="none" stroke="black" stroke-width="0.2" d="M548.86,-189.72C612.7,-168.98 727.93,-131.54 797.62,-108.9"/>
<polygon fill="black" stroke="black" stroke-width="0.2" points="798.71,-112.22 807.14,-105.8 796.54,-105.57 798.71,-112.22"/>
<text text-anchor="middle" x="612.24" y="-153.11" font-family="Times,serif" font-size="14.00">limestone*18720</text>
</g>
<!-- &#45;5,&#45;4 (low priority (slaked)? lime) -->
<g id="node6" class="node">
<title>&#45;5,&#45;4 (low priority (slaked)? lime)</title>
<ellipse fill="none" stroke="black" cx="855.87" cy="-690.85" rx="162.47" ry="18"/>
<text text-anchor="middle" x="855.87" y="-687.15" font-family="Times,serif" font-size="14.00">&#45;5,&#45;4 (low priority (slaked)? lime)</text>
</g>
<!-- 1,5 (Limestone)&#45;&gt;&#45;5,&#45;4 (low priority (slaked)? lime) -->
<g id="edge9" class="edge">
<title>1,5 (Limestone)&#45;&gt;&#45;5,&#45;4 (low priority (slaked)? lime)</title>
<path fill="none" stroke="black" stroke-width="0.6" d="M515.67,-222.6C569.22,-296.3 772.98,-576.76 836.71,-664.47"/>
<polygon fill="black" stroke="black" stroke-width="0.6" points="834.06,-666.77 842.76,-672.81 839.72,-662.66 834.06,-666.77"/>
<text text-anchor="middle" x="615.19" y="-447.34" font-family="Times,serif" font-size="14.00">limestone*56320</text>
</g>
<!-- &#45;2,6 (Wrong ratio of Calcium Carbide to Acetalene) -->
<g id="node8" class="node">
<title>&#45;2,6 (Wrong ratio of Calcium Carbide to Acetalene)</title>
<ellipse fill="none" stroke="black" cx="245.68" cy="-18" rx="245.86" ry="18"/>
<text text-anchor="middle" x="245.68" y="-14.3" font-family="Times,serif" font-size="14.00">&#45;2,6 (Wrong ratio of Calcium Carbide to Acetalene)</text>
</g>
<!-- 1,5 (Limestone)&#45;&gt;&#45;2,6 (Wrong ratio of Calcium Carbide to Acetalene) -->
<g id="edge7" class="edge">
<title>1,5 (Limestone)&#45;&gt;&#45;2,6 (Wrong ratio of Calcium Carbide to Acetalene)</title>
<path fill="none" stroke="black" stroke-width="0.32" d="M478.51,-187.16C432.22,-153.53 331.06,-80.04 278.64,-41.95"/>
<polygon fill="black" stroke="black" stroke-width="0.32" points="280.5,-38.98 270.36,-35.93 276.39,-44.64 280.5,-38.98"/>
<text text-anchor="middle" x="317.57" y="-118.35" font-family="Times,serif" font-size="14.00">limestone*30240</text>
</g>
<!-- 10,6 (Limestone 2) -->
<g id="node3" class="node">
<title>10,6 (Limestone 2)</title>
<ellipse fill="none" stroke="black" cx="1074.15" cy="-390.41" rx="98.28" ry="18"/>
<text text-anchor="middle" x="1074.15" y="-386.71" font-family="Times,serif" font-size="14.00">10,6 (Limestone 2)</text>
</g>
<!-- 10,6 (Limestone 2)&#45;&gt;2,14 (Latex) -->
<g id="edge5" class="edge">
<title>10,6 (Limestone 2)&#45;&gt;2,14 (Latex)</title>
<path fill="none" stroke="black" stroke-width="0.96" d="M1025.43,-406.24C918.66,-440.93 664.85,-523.4 554.93,-559.11"/>
<polygon fill="black" stroke="black" stroke-width="0.96" points="553.81,-555.8 545.38,-562.22 555.97,-562.46 553.81,-555.8"/>
<text text-anchor="middle" x="729.18" y="-486.48" font-family="Times,serif" font-size="14.00">limestone*89120</text>
</g>
<!-- 3,&#45;8 (Agar) -->
<g id="node4" class="node">
<title>3,&#45;8 (Agar)</title>
<ellipse fill="none" stroke="black" cx="1319.39" cy="-133.08" rx="59.59" ry="18"/>
<text text-anchor="middle" x="1319.39" y="-129.38" font-family="Times,serif" font-size="14.00">3,&#45;8 (Agar)</text>
</g>
<!-- 10,6 (Limestone 2)&#45;&gt;3,&#45;8 (Agar) -->
<g id="edge2" class="edge">
<title>10,6 (Limestone 2)&#45;&gt;3,&#45;8 (Agar)</title>
<path fill="none" stroke="black" stroke-width="0.81" d="M1091.4,-372.31C1134.43,-327.15 1246.63,-209.43 1295.77,-157.87"/>
<polygon fill="black" stroke="black" stroke-width="0.81" points="1298.45,-160.13 1302.82,-150.48 1293.38,-155.3 1298.45,-160.13"/>
<text text-anchor="middle" x="1132.58" y="-268.89" font-family="Times,serif" font-size="14.00">limestone*75120</text>
</g>
<!-- 10,6 (Limestone 2)&#45;&gt;4,12 (Molten Glass) -->
<g id="edge3" class="edge">
<title>10,6 (Limestone 2)&#45;&gt;4,12 (Molten Glass)</title>
<path fill="none" stroke="black" stroke-width="0.25" d="M1061.15,-372.51C1024.24,-321.7 918.63,-176.35 875.05,-116.36"/>
<polygon fill="black" stroke="black" stroke-width="0.25" points="877.79,-114.18 869.08,-108.15 872.13,-118.3 877.79,-114.18"/>
<text text-anchor="middle" x="907.1" y="-248.24" font-family="Times,serif" font-size="14.00">limestone*23120</text>
</g>
<!-- 10,6 (Limestone 2)&#45;&gt;&#45;5,&#45;4 (low priority (slaked)? lime) -->
<g id="edge4" class="edge">
<title>10,6 (Limestone 2)&#45;&gt;&#45;5,&#45;4 (low priority (slaked)? lime)</title>
<path fill="none" stroke="black" stroke-width="2.75" d="M1061.15,-408.3C1024.24,-459.11 918.63,-604.46 875.05,-664.46"/>
<polygon fill="black" stroke="black" stroke-width="2.75" points="872.13,-662.52 869.08,-672.67 877.79,-666.63 872.13,-662.52"/>
<text text-anchor="middle" x="902.6" y="-540.18" font-family="Times,serif" font-size="14.00">limestone*256320</text>
</g>
<!-- &#45;1,12 (I can&#39;t believe it&#39;s more latex duplicates) -->
<g id="node7" class="node">
<title>&#45;1,12 (I can&#39;t believe it&#39;s more latex duplicates)</title>
<ellipse fill="none" stroke="black" cx="1368.17" cy="-485.82" rx="229.36" ry="18"/>
<text text-anchor="middle" x="1368.17" y="-482.12" font-family="Times,serif" font-size="14.00">&#45;1,12 (I can&#39;t believe it&#39;s more latex duplicates)</text>
</g>
<!-- 10,6 (Limestone 2)&#45;&gt;&#45;1,12 (I can&#39;t believe it&#39;s more latex duplicates) -->
<g id="edge6" class="edge">
<title>10,6 (Limestone 2)&#45;&gt;&#45;1,12 (I can&#39;t believe it&#39;s more latex duplicates)</title>
<path fill="none" stroke="black" stroke-width="0.81" d="M1122.7,-406.16C1172.4,-422.29 1249.88,-447.43 1304.48,-465.15"/>
<polygon fill="black" stroke="black" stroke-width="0.81" points="1303.46,-468.5 1314.05,-468.26 1305.62,-461.84 1303.46,-468.5"/>
<text text-anchor="middle" x="1152.59" y="-439.46" font-family="Times,serif" font-size="14.00">limestone*75680</text>
</g>
</g>
</svg>
