<?xml version="1.0" encoding="UTF-8" standalone="no"?>
<!DOCTYPE svg PUBLIC "-//W3C//DTD SVG 1.1//EN"
 "http://www.w3.org/Graphics/SVG/1.1/DTD/svg11.dtd">
<!-- Generated by graphviz version 2.43.0 (0)
 -->
<!-- Title: %3 Pages: 1 -->
<svg width="1035pt" height="758pt"
 viewBox="0.00 0.00 1035.09 757.92" xmlns="http://www.w3.org/2000/svg" xmlns:xlink="http://www.w3.org/1999/xlink">
<g id="graph0" class="graph" transform="scale(1 1) rotate(0) translate(4 753.92)">
<title>%3</title>
<polygon fill="white" stroke="transparent" points="-4,4 -4,-753.92 1031.09,-753.92 1031.09,4 -4,4"/>
<!-- 2,8 (Graphite) -->
<g id="node1" class="node">
<title>2,8 (Graphite)</title>
<ellipse fill="none" stroke="black" cx="517.02" cy="-403.62" rx="76.09" ry="18"/>
<text text-anchor="middle" x="517.02" y="-399.92" font-family="Times,serif" font-size="14.00">2,8 (Graphite)</text>
</g>
<!-- &#45;3,9 (Silicon Wafers) -->
<g id="node2" class="node">
<title>&#45;3,9 (Silicon Wafers)</title>
<ellipse fill="none" stroke="black" cx="923.1" cy="-403.62" rx="103.98" ry="18"/>
<text text-anchor="middle" x="923.1" y="-399.92" font-family="Times,serif" font-size="14.00">&#45;3,9 (Silicon Wafers)</text>
</g>
<!-- 2,8 (Graphite)&#45;&gt;&#45;3,9 (Silicon Wafers) -->
<g id="edge1" class="edge">
<title>2,8 (Graphite)&#45;&gt;&#45;3,9 (Silicon Wafers)</title>
<path fill="none" stroke="black" stroke-width="1.1" d="M593.4,-403.62C654.17,-403.62 740.14,-403.62 809.05,-403.62"/>
<polygon fill="black" stroke="black" stroke-width="1.1" points="809.09,-407.12 819.09,-403.62 809.09,-400.12 809.09,-407.12"/>
<text text-anchor="middle" x="757.73" y="-407.42" font-family="Times,serif" font-size="14.00">graphite*50800</text>
</g>
<!-- 2,&#45;2 (Tin Plate, Organic Solvent) -->
<g id="node3" class="node">
<title>2,&#45;2 (Tin Plate, Organic Solvent)</title>
<ellipse fill="none" stroke="black" cx="756.01" cy="-731.92" rx="159.77" ry="18"/>
<text text-anchor="middle" x="756.01" y="-728.22" font-family="Times,serif" font-size="14.00">2,&#45;2 (Tin Plate, Organic Solvent)</text>
</g>
<!-- 2,8 (Graphite)&#45;&gt;2,&#45;2 (Tin Plate, Organic Solvent) -->
<g id="edge2" class="edge">
<title>2,8 (Graphite)&#45;&gt;2,&#45;2 (Tin Plate, Organic Solvent)</title>
<path fill="none" stroke="black" stroke-width="2.68" d="M530.21,-421.74C570.12,-476.56 689.71,-640.84 736.72,-705.43"/>
<polygon fill="black" stroke="black" stroke-width="2.68" points="734.15,-707.83 742.86,-713.86 739.8,-703.71 734.15,-707.83"/>
<text text-anchor="middle" x="572.47" y="-567.38" font-family="Times,serif" font-size="14.00">graphite*123872</text>
</g>
<!-- &#45;4,&#45;4 (Reserved For Aluminium Ore Drop, Aluminium) -->
<g id="node4" class="node">
<title>&#45;4,&#45;4 (Reserved For Aluminium Ore Drop, Aluminium)</title>
<ellipse fill="none" stroke="black" cx="258.03" cy="-716.37" rx="258.05" ry="18"/>
<text text-anchor="middle" x="258.03" y="-712.67" font-family="Times,serif" font-size="14.00">&#45;4,&#45;4 (Reserved For Aluminium Ore Drop, Aluminium)</text>
</g>
<!-- 2,8 (Graphite)&#45;&gt;&#45;4,&#45;4 (Reserved For Aluminium Ore Drop, Aluminium) -->
<g id="edge3" class="edge">
<title>2,8 (Graphite)&#45;&gt;&#45;4,&#45;4 (Reserved For Aluminium Ore Drop, Aluminium)</title>
<path fill="none" stroke="black" stroke-width="1.68" d="M502.36,-421.33C458.94,-473.76 330.87,-628.41 279.6,-690.31"/>
<polygon fill="black" stroke="black" stroke-width="1.68" points="276.86,-688.14 273.18,-698.07 282.25,-692.6 276.86,-688.14"/>
<text text-anchor="middle" x="334.48" y="-559.62" font-family="Times,serif" font-size="14.00">graphite*77424</text>
</g>
<!-- &#45;3,2 (Lead and Solder) -->
<g id="node5" class="node">
<title>&#45;3,2 (Lead and Solder)</title>
<ellipse fill="none" stroke="black" cx="132.62" cy="-272.76" rx="113.98" ry="18"/>
<text text-anchor="middle" x="132.62" y="-269.06" font-family="Times,serif" font-size="14.00">&#45;3,2 (Lead and Solder)</text>
</g>
<!-- 2,8 (Graphite)&#45;&gt;&#45;3,2 (Lead and Solder) -->
<g id="edge4" class="edge">
<title>2,8 (Graphite)&#45;&gt;&#45;3,2 (Lead and Solder)</title>
<path fill="none" stroke="black" stroke-width="0.22" d="M473.3,-388.73C403.76,-365.06 267.92,-318.82 190.43,-292.44"/>
<polygon fill="black" stroke="black" stroke-width="0.22" points="191.41,-289.07 180.81,-289.17 189.15,-295.7 191.41,-289.07"/>
<text text-anchor="middle" x="275.36" y="-344.39" font-family="Times,serif" font-size="14.00">graphite*10096</text>
</g>
<!-- 4,13 (Chromium processing) -->
<g id="node6" class="node">
<title>4,13 (Chromium processing)</title>
<ellipse fill="none" stroke="black" cx="389.78" cy="-18" rx="142.97" ry="18"/>
<text text-anchor="middle" x="389.78" y="-14.3" font-family="Times,serif" font-size="14.00">4,13 (Chromium processing)</text>
</g>
<!-- 2,8 (Graphite)&#45;&gt;4,13 (Chromium processing) -->
<g id="edge5" class="edge">
<title>2,8 (Graphite)&#45;&gt;4,13 (Chromium processing)</title>
<path fill="none" stroke="black" stroke-width="0.27" d="M511.06,-385.54C490.64,-323.67 423.51,-120.21 398.91,-45.68"/>
<polygon fill="black" stroke="black" stroke-width="0.27" points="402.19,-44.44 395.73,-36.04 395.54,-46.64 402.19,-44.44"/>
<text text-anchor="middle" x="398.49" y="-219.41" font-family="Times,serif" font-size="14.00">graphite*12656</text>
</g>
<!-- 6,4 (Electronic components) -->
<g id="node7" class="node">
<title>6,4 (Electronic components)</title>
<ellipse fill="none" stroke="black" cx="770.48" cy="-86.36" rx="141.88" ry="18"/>
<text text-anchor="middle" x="770.48" y="-82.66" font-family="Times,serif" font-size="14.00">6,4 (Electronic components)</text>
</g>
<!-- 2,8 (Graphite)&#45;&gt;6,4 (Electronic components) -->
<g id="edge6" class="edge">
<title>2,8 (Graphite)&#45;&gt;6,4 (Electronic components)</title>
<path fill="none" stroke="black" stroke-width="0.04" d="M531.38,-385.65C573.97,-332.34 699.78,-174.85 749.71,-112.35"/>
<polygon fill="black" stroke="black" stroke-width="0.04" points="752.46,-114.52 755.97,-104.52 746.99,-110.15 752.46,-114.52"/>
<text text-anchor="middle" x="588.55" y="-252.8" font-family="Times,serif" font-size="14.00">graphite*2016</text>
</g>
</g>
</svg>
