<?xml version="1.0" encoding="UTF-8" standalone="no"?>
<!DOCTYPE svg PUBLIC "-//W3C//DTD SVG 1.1//EN"
 "http://www.w3.org/Graphics/SVG/1.1/DTD/svg11.dtd">
<!-- Generated by graphviz version 2.43.0 (0)
 -->
<!-- Title: %3 Pages: 1 -->
<svg width="984pt" height="653pt"
 viewBox="0.00 0.00 983.84 652.93" xmlns="http://www.w3.org/2000/svg" xmlns:xlink="http://www.w3.org/1999/xlink">
<g id="graph0" class="graph" transform="scale(1 1) rotate(0) translate(4 648.93)">
<title>%3</title>
<polygon fill="white" stroke="transparent" points="-4,4 -4,-648.93 979.84,-648.93 979.84,4 -4,4"/>
<!-- 1,0 (Moondrops?) -->
<g id="node1" class="node">
<title>1,0 (Moondrops?)</title>
<ellipse fill="none" stroke="black" cx="442.38" cy="-356.02" rx="92.08" ry="18"/>
<text text-anchor="middle" x="442.38" y="-352.32" font-family="Times,serif" font-size="14.00">1,0 (Moondrops?)</text>
</g>
<!-- 2,4 (Formica and Phenolic boards) -->
<g id="node2" class="node">
<title>2,4 (Formica and Phenolic boards)</title>
<ellipse fill="none" stroke="black" cx="806.2" cy="-356.02" rx="169.77" ry="18"/>
<text text-anchor="middle" x="806.2" y="-352.32" font-family="Times,serif" font-size="14.00">2,4 (Formica and Phenolic boards)</text>
</g>
<!-- 1,0 (Moondrops?)&#45;&gt;2,4 (Formica and Phenolic boards) -->
<g id="edge1" class="edge">
<title>1,0 (Moondrops?)&#45;&gt;2,4 (Formica and Phenolic boards)</title>
<path fill="none" stroke="black" stroke-width="2.05" d="M535.13,-356.02C563.05,-356.02 594.7,-356.02 626.27,-356.02"/>
<polygon fill="black" stroke="black" stroke-width="2.05" points="626.52,-359.52 636.52,-356.02 626.52,-352.52 626.52,-359.52"/>
<text text-anchor="middle" x="580.7" y="-344.82" font-family="Times,serif" font-size="14.00">methane&#45;barrel*25176</text>
</g>
<!-- 4,6 (Circuit substrate and Doped silicon) -->
<g id="node3" class="node">
<title>4,6 (Circuit substrate and Doped silicon)</title>
<ellipse fill="none" stroke="black" cx="199.53" cy="-626.93" rx="199.56" ry="18"/>
<text text-anchor="middle" x="199.53" y="-623.23" font-family="Times,serif" font-size="14.00">4,6 (Circuit substrate and Doped silicon)</text>
</g>
<!-- 1,0 (Moondrops?)&#45;&gt;4,6 (Circuit substrate and Doped silicon) -->
<g id="edge2" class="edge">
<title>1,0 (Moondrops?)&#45;&gt;4,6 (Circuit substrate and Doped silicon)</title>
<path fill="none" stroke="black" stroke-width="0.62" d="M426.44,-373.79C384.61,-420.47 271.48,-546.66 222.58,-601.22"/>
<polygon fill="black" stroke="black" stroke-width="0.62" points="219.91,-598.95 215.84,-608.74 225.12,-603.63 219.91,-598.95"/>
<text text-anchor="middle" x="247.51" y="-491.31" font-family="Times,serif" font-size="14.00">methane&#45;barrel*7608</text>
</g>
<!-- 0,0 (LE BUS) -->
<g id="node4" class="node">
<title>0,0 (LE BUS)</title>
<ellipse fill="none" stroke="black" cx="307.8" cy="-18" rx="71.49" ry="18"/>
<text text-anchor="middle" x="307.8" y="-14.3" font-family="Times,serif" font-size="14.00">0,0 (LE BUS)</text>
</g>
<!-- 1,0 (Moondrops?)&#45;&gt;0,0 (LE BUS) -->
<g id="edge3" class="edge">
<title>1,0 (Moondrops?)&#45;&gt;0,0 (LE BUS)</title>
<path fill="none" stroke="black" stroke-width="0.33" d="M435.14,-337.85C412.92,-282.02 345.53,-112.76 318.85,-45.75"/>
<polygon fill="black" stroke="black" stroke-width="0.33" points="322.02,-44.26 315.07,-36.26 315.52,-46.85 322.02,-44.26"/>
<text text-anchor="middle" x="300" y="-195.6" font-family="Times,serif" font-size="14.00">methane&#45;barrel*4000</text>
</g>
</g>
</svg>
