<?xml version="1.0" encoding="UTF-8" standalone="no"?>
<!DOCTYPE svg PUBLIC "-//W3C//DTD SVG 1.1//EN"
 "http://www.w3.org/Graphics/SVG/1.1/DTD/svg11.dtd">
<!-- Generated by graphviz version 2.43.0 (0)
 -->
<!-- Title: %3 Pages: 1 -->
<svg width="2980pt" height="2102pt"
 viewBox="0.00 0.00 2980.21 2101.52" xmlns="http://www.w3.org/2000/svg" xmlns:xlink="http://www.w3.org/1999/xlink">
<g id="graph0" class="graph" transform="scale(1 1) rotate(0) translate(4 2097.52)">
<title>%3</title>
<polygon fill="white" stroke="transparent" points="-4,4 -4,-2097.52 2976.21,-2097.52 2976.21,4 -4,4"/>
<!-- &#45;2,&#45;10 (Iron ore dust duplicate) -->
<g id="node1" class="node">
<title>&#45;2,&#45;10 (Iron ore dust duplicate)</title>
<ellipse fill="none" stroke="black" cx="2394.05" cy="-1046.76" rx="153.27" ry="18"/>
<text text-anchor="middle" x="2394.05" y="-1043.06" font-family="Times,serif" font-size="14.00">&#45;2,&#45;10 (Iron ore dust duplicate)</text>
</g>
<!-- 1,8 (HCl, Salt) -->
<g id="node2" class="node">
<title>1,8 (HCl, Salt)</title>
<ellipse fill="none" stroke="black" cx="336.52" cy="-1046.76" rx="77.19" ry="18"/>
<text text-anchor="middle" x="336.52" y="-1043.06" font-family="Times,serif" font-size="14.00">1,8 (HCl, Salt)</text>
</g>
<!-- &#45;2,&#45;10 (Iron ore dust duplicate)&#45;&gt;1,8 (HCl, Salt) -->
<g id="edge1" class="edge">
<title>&#45;2,&#45;10 (Iron ore dust duplicate)&#45;&gt;1,8 (HCl, Salt)</title>
<path fill="none" stroke="black" stroke-width="5.34" d="M2240.66,-1046.76C1834.69,-1046.76 741.61,-1046.76 424.11,-1046.76"/>
<polygon fill="black" stroke="black" stroke-width="5.34" points="424.05,-1042.09 414.05,-1046.76 424.05,-1051.44 424.05,-1042.09"/>
<text text-anchor="middle" x="1282.39" y="-1050.56" font-family="Times,serif" font-size="14.00">stone*435920</text>
</g>
<!-- 0,&#45;7 (Salt (stone/gravel destruction)) -->
<g id="node4" class="node">
<title>0,&#45;7 (Salt (stone/gravel destruction))</title>
<ellipse fill="none" stroke="black" cx="2256.22" cy="-1561.14" rx="180.07" ry="18"/>
<text text-anchor="middle" x="2256.22" y="-1557.44" font-family="Times,serif" font-size="14.00">0,&#45;7 (Salt (stone/gravel destruction))</text>
</g>
<!-- &#45;2,&#45;10 (Iron ore dust duplicate)&#45;&gt;0,&#45;7 (Salt (stone/gravel destruction)) -->
<g id="edge5" class="edge">
<title>&#45;2,&#45;10 (Iron ore dust duplicate)&#45;&gt;0,&#45;7 (Salt (stone/gravel destruction))</title>
<path fill="none" stroke="black" stroke-width="2.45" d="M2389.22,-1064.77C2368.71,-1141.3 2288.69,-1439.94 2263.71,-1533.18"/>
<polygon fill="black" stroke="black" stroke-width="2.45" points="2260.28,-1532.45 2261.08,-1543.02 2267.04,-1534.26 2260.28,-1532.45"/>
<text text-anchor="middle" x="2276.47" y="-1302.77" font-family="Times,serif" font-size="14.00">stone*200320</text>
</g>
<!-- 2,14 (Latex) -->
<g id="node7" class="node">
<title>2,14 (Latex)</title>
<ellipse fill="none" stroke="black" cx="1879.67" cy="-155.83" rx="66.89" ry="18"/>
<text text-anchor="middle" x="1879.67" y="-152.13" font-family="Times,serif" font-size="14.00">2,14 (Latex)</text>
</g>
<!-- &#45;2,&#45;10 (Iron ore dust duplicate)&#45;&gt;2,14 (Latex) -->
<g id="edge16" class="edge">
<title>&#45;2,&#45;10 (Iron ore dust duplicate)&#45;&gt;2,14 (Latex)</title>
<path fill="none" stroke="black" stroke-width="0.62" d="M2383.54,-1028.56C2318.63,-916.14 1972.5,-316.62 1895.05,-182.47"/>
<polygon fill="black" stroke="black" stroke-width="0.62" points="1897.97,-180.54 1889.94,-173.63 1891.91,-184.04 1897.97,-180.54"/>
<text text-anchor="middle" x="2093.79" y="-609.32" font-family="Times,serif" font-size="14.00">stone*50640</text>
</g>
<!-- &#45;1,12 (I can&#39;t believe it&#39;s more latex duplicates) -->
<g id="node10" class="node">
<title>&#45;1,12 (I can&#39;t believe it&#39;s more latex duplicates)</title>
<ellipse fill="none" stroke="black" cx="850.9" cy="-155.83" rx="229.36" ry="18"/>
<text text-anchor="middle" x="850.9" y="-152.13" font-family="Times,serif" font-size="14.00">&#45;1,12 (I can&#39;t believe it&#39;s more latex duplicates)</text>
</g>
<!-- &#45;2,&#45;10 (Iron ore dust duplicate)&#45;&gt;&#45;1,12 (I can&#39;t believe it&#39;s more latex duplicates) -->
<g id="edge20" class="edge">
<title>&#45;2,&#45;10 (Iron ore dust duplicate)&#45;&gt;&#45;1,12 (I can&#39;t believe it&#39;s more latex duplicates)</title>
<path fill="none" stroke="black" stroke-width="0.31" d="M2363.22,-1028.97C2168.49,-916.54 1110.13,-305.49 890.73,-178.82"/>
<polygon fill="black" stroke="black" stroke-width="0.31" points="892.21,-175.64 881.8,-173.67 888.71,-181.7 892.21,-175.64"/>
<text text-anchor="middle" x="1581.48" y="-607.69" font-family="Times,serif" font-size="14.00">stone*25360</text>
</g>
<!-- 0,12 (Latex duplicate) -->
<g id="node19" class="node">
<title>0,12 (Latex duplicate)</title>
<ellipse fill="none" stroke="black" cx="2578.49" cy="-1046.76" rx="112.38" ry="18"/>
<text text-anchor="middle" x="2578.49" y="-1043.06" font-family="Times,serif" font-size="14.00">0,12 (Latex duplicate)</text>
</g>
<!-- &#45;2,&#45;10 (Iron ore dust duplicate)&#45;&gt;0,12 (Latex duplicate) -->
<g id="edge28" class="edge">
<title>&#45;2,&#45;10 (Iron ore dust duplicate)&#45;&gt;0,12 (Latex duplicate)</title>
<path fill="none" stroke="black" stroke-width="0.31" d="M2547.62,-1046.76C2547.69,-1046.76 2547.76,-1046.76 2547.83,-1046.76"/>
<polygon fill="black" stroke="black" stroke-width="0.31" points="2538.05,-1050.27 2548.05,-1046.76 2538.04,-1043.27 2538.05,-1050.27"/>
<text text-anchor="middle" x="2593.22" y="-1050.56" font-family="Times,serif" font-size="14.00">stone*25280</text>
</g>
<!-- &#45;6,7 (Iron ore dust) -->
<g id="node3" class="node">
<title>&#45;6,7 (Iron ore dust)</title>
<ellipse fill="none" stroke="black" cx="2256.22" cy="-532.38" rx="98.58" ry="18"/>
<text text-anchor="middle" x="2256.22" y="-528.68" font-family="Times,serif" font-size="14.00">&#45;6,7 (Iron ore dust)</text>
</g>
<!-- &#45;6,7 (Iron ore dust)&#45;&gt;1,8 (HCl, Salt) -->
<g id="edge4" class="edge">
<title>&#45;6,7 (Iron ore dust)&#45;&gt;1,8 (HCl, Salt)</title>
<path fill="none" stroke="black" stroke-width="4.45" d="M2200.58,-547.29C1922.72,-621.74 687.22,-952.79 397.48,-1030.43"/>
<polygon fill="black" stroke="black" stroke-width="4.45" points="396.22,-1026.73 387.57,-1033.08 398.24,-1034.26 396.22,-1026.73"/>
<text text-anchor="middle" x="1249.03" y="-792.66" font-family="Times,serif" font-size="14.00">stone*363449</text>
</g>
<!-- &#45;6,7 (Iron ore dust)&#45;&gt;0,&#45;7 (Salt (stone/gravel destruction)) -->
<g id="edge2" class="edge">
<title>&#45;6,7 (Iron ore dust)&#45;&gt;0,&#45;7 (Salt (stone/gravel destruction))</title>
<path fill="none" stroke="black" stroke-width="2.76" d="M2256.22,-550.67C2256.22,-673.76 2256.22,-1380.86 2256.22,-1532.51"/>
<polygon fill="black" stroke="black" stroke-width="2.76" points="2252.72,-1532.83 2256.22,-1542.83 2259.72,-1532.83 2252.72,-1532.83"/>
<text text-anchor="middle" x="2206.22" y="-1030.39" font-family="Times,serif" font-size="14.00">stone*225360</text>
</g>
<!-- &#45;6,7 (Iron ore dust)&#45;&gt;2,14 (Latex) -->
<g id="edge7" class="edge">
<title>&#45;6,7 (Iron ore dust)&#45;&gt;2,14 (Latex)</title>
<path fill="none" stroke="black" stroke-width="1.24" d="M2238.06,-514.22C2176.4,-452.56 1975,-251.16 1904.39,-180.56"/>
<polygon fill="black" stroke="black" stroke-width="1.24" points="1906.75,-177.97 1897.21,-173.37 1901.81,-182.92 1906.75,-177.97"/>
<text text-anchor="middle" x="2021.22" y="-351.19" font-family="Times,serif" font-size="14.00">stone*100880</text>
</g>
<!-- &#45;6,7 (Iron ore dust)&#45;&gt;&#45;1,12 (I can&#39;t believe it&#39;s more latex duplicates) -->
<g id="edge10" class="edge">
<title>&#45;6,7 (Iron ore dust)&#45;&gt;&#45;1,12 (I can&#39;t believe it&#39;s more latex duplicates)</title>
<path fill="none" stroke="black" stroke-width="0.94" d="M2200.26,-517.39C1980.37,-458.47 1175.41,-242.78 925.46,-175.8"/>
<polygon fill="black" stroke="black" stroke-width="0.94" points="926.3,-172.41 915.74,-173.2 924.49,-179.17 926.3,-172.41"/>
<text text-anchor="middle" x="1517.36" y="-350.4" font-family="Times,serif" font-size="14.00">stone*76320</text>
</g>
<!-- 0,0 (LE BUS) -->
<g id="node5" class="node">
<title>0,0 (LE BUS)</title>
<ellipse fill="none" stroke="black" cx="265.73" cy="-1651.33" rx="71.49" ry="18"/>
<text text-anchor="middle" x="265.73" y="-1647.63" font-family="Times,serif" font-size="14.00">0,0 (LE BUS)</text>
</g>
<!-- 0,0 (LE BUS)&#45;&gt;1,8 (HCl, Salt) -->
<g id="edge3" class="edge">
<title>0,0 (LE BUS)&#45;&gt;1,8 (HCl, Salt)</title>
<path fill="none" stroke="black" stroke-width="0.26" d="M267.85,-1633.24C277.92,-1547.28 320.92,-1179.98 333.22,-1074.93"/>
<polygon fill="black" stroke="black" stroke-width="0.26" points="336.73,-1075.12 334.41,-1064.79 329.77,-1074.31 336.73,-1075.12"/>
<text text-anchor="middle" x="255.04" y="-1342.88" font-family="Times,serif" font-size="14.00">stone*21330</text>
</g>
<!-- 3,9 (Copper, molten &amp; plate) -->
<g id="node6" class="node">
<title>3,9 (Copper, molten &amp; plate)</title>
<ellipse fill="none" stroke="black" cx="474.35" cy="-1561.14" rx="143.77" ry="18"/>
<text text-anchor="middle" x="474.35" y="-1557.44" font-family="Times,serif" font-size="14.00">3,9 (Copper, molten &amp; plate)</text>
</g>
<!-- 3,9 (Copper, molten &amp; plate)&#45;&gt;1,8 (HCl, Salt) -->
<g id="edge6" class="edge">
<title>3,9 (Copper, molten &amp; plate)&#45;&gt;1,8 (HCl, Salt)</title>
<path fill="none" stroke="black" stroke-width="0.89" d="M469.53,-1543.14C449.02,-1466.6 369,-1167.96 344.02,-1074.73"/>
<polygon fill="black" stroke="black" stroke-width="0.89" points="347.35,-1073.64 341.38,-1064.89 340.59,-1075.45 347.35,-1073.64"/>
<text text-anchor="middle" x="361.27" y="-1312.73" font-family="Times,serif" font-size="14.00">stone*72360</text>
</g>
<!-- 3,9 (Copper, molten &amp; plate)&#45;&gt;0,&#45;7 (Salt (stone/gravel destruction)) -->
<g id="edge18" class="edge">
<title>3,9 (Copper, molten &amp; plate)&#45;&gt;0,&#45;7 (Salt (stone/gravel destruction))</title>
<path fill="none" stroke="black" stroke-width="0.61" d="M618.28,-1561.14C937.87,-1561.14 1706.68,-1561.14 2065.62,-1561.14"/>
<polygon fill="black" stroke="black" stroke-width="0.61" points="2065.86,-1564.64 2075.86,-1561.14 2065.86,-1557.64 2065.86,-1564.64"/>
<text text-anchor="middle" x="1296.45" y="-1564.94" font-family="Times,serif" font-size="14.00">stone*50016</text>
</g>
<!-- 8,1 (Molten Copper) -->
<g id="node8" class="node">
<title>8,1 (Molten Copper)</title>
<ellipse fill="none" stroke="black" cx="474.35" cy="-532.38" rx="104.78" ry="18"/>
<text text-anchor="middle" x="474.35" y="-528.68" font-family="Times,serif" font-size="14.00">8,1 (Molten Copper)</text>
</g>
<!-- 8,1 (Molten Copper)&#45;&gt;1,8 (HCl, Salt) -->
<g id="edge11" class="edge">
<title>8,1 (Molten Copper)&#45;&gt;1,8 (HCl, Salt)</title>
<path fill="none" stroke="black" stroke-width="0.31" d="M469.53,-550.39C449.02,-626.92 369,-925.56 344.02,-1018.8"/>
<polygon fill="black" stroke="black" stroke-width="0.31" points="340.59,-1018.07 341.38,-1028.64 347.35,-1019.88 340.59,-1018.07"/>
<text text-anchor="middle" x="361.27" y="-788.39" font-family="Times,serif" font-size="14.00">stone*25408</text>
</g>
<!-- 8,1 (Molten Copper)&#45;&gt;0,&#45;7 (Salt (stone/gravel destruction)) -->
<g id="edge8" class="edge">
<title>8,1 (Molten Copper)&#45;&gt;0,&#45;7 (Salt (stone/gravel destruction))</title>
<path fill="none" stroke="black" stroke-width="0.61" d="M504.53,-549.81C716.18,-672 1976.41,-1399.6 2216.66,-1538.31"/>
<polygon fill="black" stroke="black" stroke-width="0.61" points="2215.01,-1541.39 2225.42,-1543.36 2218.51,-1535.33 2215.01,-1541.39"/>
<text text-anchor="middle" x="1315.1" y="-1032.86" font-family="Times,serif" font-size="14.00">stone*50016</text>
</g>
<!-- &#45;4,&#45;8 (item=silver&#45;plate Even even more silver?) -->
<g id="node9" class="node">
<title>&#45;4,&#45;8 (item=silver&#45;plate Even even more silver?)</title>
<ellipse fill="none" stroke="black" cx="1365.28" cy="-18" rx="233.16" ry="18"/>
<text text-anchor="middle" x="1365.28" y="-14.3" font-family="Times,serif" font-size="14.00">&#45;4,&#45;8 (item=silver&#45;plate Even even more silver?)</text>
</g>
<!-- &#45;4,&#45;8 (item=silver&#45;plate Even even more silver?)&#45;&gt;1,8 (HCl, Salt) -->
<g id="edge9" class="edge">
<title>&#45;4,&#45;8 (item=silver&#45;plate Even even more silver?)&#45;&gt;1,8 (HCl, Salt)</title>
<path fill="none" stroke="black" stroke-width="0.64" d="M1346.99,-36.29C1222.91,-160.37 505.34,-877.95 361.59,-1021.7"/>
<polygon fill="black" stroke="black" stroke-width="0.64" points="359.03,-1019.31 354.43,-1028.85 363.98,-1024.26 359.03,-1019.31"/>
<text text-anchor="middle" x="808.79" y="-532.79" font-family="Times,serif" font-size="14.00">stone*52176</text>
</g>
<!-- &#45;4,&#45;8 (item=silver&#45;plate Even even more silver?)&#45;&gt;2,14 (Latex) -->
<g id="edge26" class="edge">
<title>&#45;4,&#45;8 (item=silver&#45;plate Even even more silver?)&#45;&gt;2,14 (Latex)</title>
<path fill="none" stroke="black" stroke-width="0.31" d="M1429.91,-35.32C1531.16,-62.45 1725.56,-114.53 1822.2,-140.43"/>
<polygon fill="black" stroke="black" stroke-width="0.31" points="1821.52,-143.87 1832.08,-143.08 1823.33,-137.11 1821.52,-143.87"/>
<text text-anchor="middle" x="1580.55" y="-91.67" font-family="Times,serif" font-size="14.00">stone*25416</text>
</g>
<!-- &#45;4,&#45;8 (item=silver&#45;plate Even even more silver?)&#45;&gt;&#45;1,12 (I can&#39;t believe it&#39;s more latex duplicates) -->
<g id="edge23" class="edge">
<title>&#45;4,&#45;8 (item=silver&#45;plate Even even more silver?)&#45;&gt;&#45;1,12 (I can&#39;t believe it&#39;s more latex duplicates)</title>
<path fill="none" stroke="black" stroke-width="0.63" d="M1300.66,-35.32C1205.08,-60.93 1026.5,-108.78 925.5,-135.84"/>
<polygon fill="black" stroke="black" stroke-width="0.63" points="924.42,-132.5 915.67,-138.47 926.23,-139.27 924.42,-132.5"/>
<text text-anchor="middle" x="1067.58" y="-89.38" font-family="Times,serif" font-size="14.00">stone*51432</text>
</g>
<!-- &#45;7,&#45;8 (Tin mk2) -->
<g id="node11" class="node">
<title>&#45;7,&#45;8 (Tin mk2)</title>
<ellipse fill="none" stroke="black" cx="850.9" cy="-1937.7" rx="78.79" ry="18"/>
<text text-anchor="middle" x="850.9" y="-1934" font-family="Times,serif" font-size="14.00">&#45;7,&#45;8 (Tin mk2)</text>
</g>
<!-- &#45;7,&#45;8 (Tin mk2)&#45;&gt;1,8 (HCl, Salt) -->
<g id="edge12" class="edge">
<title>&#45;7,&#45;8 (Tin mk2)&#45;&gt;1,8 (HCl, Salt)</title>
<path fill="none" stroke="black" stroke-width="1.07" d="M840.4,-1919.5C775.56,-1807.19 430.1,-1208.85 352.16,-1073.84"/>
<polygon fill="black" stroke="black" stroke-width="1.07" points="355.04,-1071.84 347.01,-1064.93 348.98,-1075.34 355.04,-1071.84"/>
<text text-anchor="middle" x="550.78" y="-1500.47" font-family="Times,serif" font-size="14.00">stone*86992</text>
</g>
<!-- &#45;7,&#45;8 (Tin mk2)&#45;&gt;0,&#45;7 (Salt (stone/gravel destruction)) -->
<g id="edge22" class="edge">
<title>&#45;7,&#45;8 (Tin mk2)&#45;&gt;0,&#45;7 (Salt (stone/gravel destruction))</title>
<path fill="none" stroke="black" stroke-width="1.23" d="M902.17,-1923.96C1115.53,-1866.79 1933.63,-1647.58 2183.39,-1580.66"/>
<polygon fill="black" stroke="black" stroke-width="1.23" points="2184.34,-1584.03 2193.09,-1578.06 2182.52,-1577.27 2184.34,-1584.03"/>
<text text-anchor="middle" x="1492.78" y="-1756.11" font-family="Times,serif" font-size="14.00">stone*100032</text>
</g>
<!-- 8,&#45;10 (Copper plate duplicater) -->
<g id="node12" class="node">
<title>8,&#45;10 (Copper plate duplicater)</title>
<ellipse fill="none" stroke="black" cx="154.49" cy="-1376.13" rx="154.07" ry="18"/>
<text text-anchor="middle" x="154.49" y="-1372.43" font-family="Times,serif" font-size="14.00">8,&#45;10 (Copper plate duplicater)</text>
</g>
<!-- 8,&#45;10 (Copper plate duplicater)&#45;&gt;1,8 (HCl, Salt) -->
<g id="edge13" class="edge">
<title>8,&#45;10 (Copper plate duplicater)&#45;&gt;1,8 (HCl, Salt)</title>
<path fill="none" stroke="black" stroke-width="0.33" d="M164.53,-1357.96C194.87,-1303.07 285.65,-1138.81 321.61,-1073.74"/>
<polygon fill="black" stroke="black" stroke-width="0.33" points="324.73,-1075.33 326.51,-1064.88 318.61,-1071.94 324.73,-1075.33"/>
<text text-anchor="middle" x="197.57" y="-1219.65" font-family="Times,serif" font-size="14.00">stone*27188</text>
</g>
<!-- 9,&#45;10 (Copper plate yet again) -->
<g id="node13" class="node">
<title>9,&#45;10 (Copper plate yet again)</title>
<ellipse fill="none" stroke="black" cx="1365.28" cy="-2075.52" rx="149.47" ry="18"/>
<text text-anchor="middle" x="1365.28" y="-2071.82" font-family="Times,serif" font-size="14.00">9,&#45;10 (Copper plate yet again)</text>
</g>
<!-- 9,&#45;10 (Copper plate yet again)&#45;&gt;1,8 (HCl, Salt) -->
<g id="edge14" class="edge">
<title>9,&#45;10 (Copper plate yet again)&#45;&gt;1,8 (HCl, Salt)</title>
<path fill="none" stroke="black" stroke-width="0.31" d="M1346.99,-2057.23C1222.91,-1933.15 505.34,-1215.58 361.59,-1071.83"/>
<polygon fill="black" stroke="black" stroke-width="0.31" points="363.98,-1069.27 354.43,-1064.67 359.03,-1074.22 363.98,-1069.27"/>
<text text-anchor="middle" x="808.79" y="-1568.33" font-family="Times,serif" font-size="14.00">stone*25536</text>
</g>
<!-- 9,&#45;10 (Copper plate yet again)&#45;&gt;0,&#45;7 (Salt (stone/gravel destruction)) -->
<g id="edge15" class="edge">
<title>9,&#45;10 (Copper plate yet again)&#45;&gt;0,&#45;7 (Salt (stone/gravel destruction))</title>
<path fill="none" stroke="black" stroke-width="0.61" d="M1395.95,-2057.82C1530.07,-1980.38 2065.05,-1671.52 2216.24,-1584.23"/>
<polygon fill="black" stroke="black" stroke-width="0.61" points="2218.31,-1587.07 2225.22,-1579.04 2214.81,-1581.01 2218.31,-1587.07"/>
<text text-anchor="middle" x="1760.59" y="-1824.82" font-family="Times,serif" font-size="14.00">stone*50016</text>
</g>
<!-- &#45;6,8 (Copper plate duplicate) -->
<g id="node14" class="node">
<title>&#45;6,8 (Copper plate duplicate)</title>
<ellipse fill="none" stroke="black" cx="1879.67" cy="-1937.7" rx="143.77" ry="18"/>
<text text-anchor="middle" x="1879.67" y="-1934" font-family="Times,serif" font-size="14.00">&#45;6,8 (Copper plate duplicate)</text>
</g>
<!-- &#45;6,8 (Copper plate duplicate)&#45;&gt;1,8 (HCl, Salt) -->
<g id="edge17" class="edge">
<title>&#45;6,8 (Copper plate duplicate)&#45;&gt;1,8 (HCl, Salt)</title>
<path fill="none" stroke="black" stroke-width="0.31" d="M1849.19,-1920.1C1654.76,-1807.85 589.17,-1192.63 374.29,-1068.57"/>
<polygon fill="black" stroke="black" stroke-width="0.31" points="375.98,-1065.5 365.56,-1063.53 372.48,-1071.56 375.98,-1065.5"/>
<text text-anchor="middle" x="1066.24" y="-1498.13" font-family="Times,serif" font-size="14.00">stone*25211</text>
</g>
<!-- &#45;6,8 (Copper plate duplicate)&#45;&gt;0,&#45;7 (Salt (stone/gravel destruction)) -->
<g id="edge24" class="edge">
<title>&#45;6,8 (Copper plate duplicate)&#45;&gt;0,&#45;7 (Salt (stone/gravel destruction))</title>
<path fill="none" stroke="black" stroke-width="0.31" d="M1897.83,-1919.53C1959.34,-1858.02 2159.96,-1657.4 2231,-1586.36"/>
<polygon fill="black" stroke="black" stroke-width="0.31" points="2233.64,-1588.67 2238.24,-1579.12 2228.69,-1583.72 2233.64,-1588.67"/>
<text text-anchor="middle" x="2018.91" y="-1756.75" font-family="Times,serif" font-size="14.00">stone*25008</text>
</g>
<!-- &#45;6,&#45;3 (Chromite Sand) -->
<g id="node15" class="node">
<title>&#45;6,&#45;3 (Chromite Sand)</title>
<ellipse fill="none" stroke="black" cx="110.49" cy="-1043.51" rx="110.48" ry="18"/>
<text text-anchor="middle" x="110.49" y="-1039.81" font-family="Times,serif" font-size="14.00">&#45;6,&#45;3 (Chromite Sand)</text>
</g>
<!-- &#45;6,&#45;3 (Chromite Sand)&#45;&gt;1,8 (HCl, Salt) -->
<g id="edge19" class="edge">
<title>&#45;6,&#45;3 (Chromite Sand)&#45;&gt;1,8 (HCl, Salt)</title>
<path fill="none" stroke="black" stroke-width="0.24" d="M220.86,-1045.1C230.4,-1045.24 239.98,-1045.37 249.3,-1045.51"/>
<polygon fill="black" stroke="black" stroke-width="0.24" points="249.26,-1049.01 259.31,-1045.65 249.36,-1042.01 249.26,-1049.01"/>
<text text-anchor="middle" x="212.33" y="-1034.1" font-family="Times,serif" font-size="14.00">stone*19498</text>
</g>
<!-- 4,&#45;8 (REOOOOOOOOOOOOOO) -->
<g id="node16" class="node">
<title>4,&#45;8 (REOOOOOOOOOOOOOO)</title>
<ellipse fill="none" stroke="black" cx="2451.97" cy="-1674.16" rx="154.07" ry="18"/>
<text text-anchor="middle" x="2451.97" y="-1670.46" font-family="Times,serif" font-size="14.00">4,&#45;8 (REOOOOOOOOOOOOOO)</text>
</g>
<!-- 4,&#45;8 (REOOOOOOOOOOOOOO)&#45;&gt;0,&#45;7 (Salt (stone/gravel destruction)) -->
<g id="edge21" class="edge">
<title>4,&#45;8 (REOOOOOOOOOOOOOO)&#45;&gt;0,&#45;7 (Salt (stone/gravel destruction))</title>
<path fill="none" stroke="black" stroke-width="0.31" d="M2421.39,-1656.5C2387.68,-1637.04 2333.34,-1605.67 2296.27,-1584.27"/>
<polygon fill="black" stroke="black" stroke-width="0.31" points="2297.65,-1581.02 2287.24,-1579.05 2294.15,-1587.08 2297.65,-1581.02"/>
<text text-anchor="middle" x="2313.33" y="-1624.18" font-family="Times,serif" font-size="14.00">stone*25040</text>
</g>
<!-- &#45;3,2 (Lead and Solder) -->
<g id="node17" class="node">
<title>&#45;3,2 (Lead and Solder)</title>
<ellipse fill="none" stroke="black" cx="146.05" cy="-750.12" rx="113.98" ry="18"/>
<text text-anchor="middle" x="146.05" y="-746.42" font-family="Times,serif" font-size="14.00">&#45;3,2 (Lead and Solder)</text>
</g>
<!-- &#45;3,2 (Lead and Solder)&#45;&gt;1,8 (HCl, Salt) -->
<g id="edge25" class="edge">
<title>&#45;3,2 (Lead and Solder)&#45;&gt;1,8 (HCl, Salt)</title>
<path fill="none" stroke="black" stroke-width="0.95" d="M157.68,-768.23C190.1,-818.72 281.61,-961.23 319.63,-1020.45"/>
<polygon fill="black" stroke="black" stroke-width="0.95" points="316.7,-1022.37 325.05,-1028.89 322.59,-1018.58 316.7,-1022.37"/>
<text text-anchor="middle" x="193.16" y="-898.14" font-family="Times,serif" font-size="14.00">stone*77360</text>
</g>
<!-- 1,10 (Iron Ore Dust) -->
<g id="node18" class="node">
<title>1,10 (Iron Ore Dust)</title>
<ellipse fill="none" stroke="black" cx="2867.57" cy="-1046.76" rx="104.78" ry="18"/>
<text text-anchor="middle" x="2867.57" y="-1043.06" font-family="Times,serif" font-size="14.00">1,10 (Iron Ore Dust)</text>
</g>
<!-- 1,10 (Iron Ore Dust)&#45;&gt;0,12 (Latex duplicate) -->
<g id="edge27" class="edge">
<title>1,10 (Iron Ore Dust)&#45;&gt;0,12 (Latex duplicate)</title>
<path fill="none" stroke="black" stroke-width="0.31" d="M2762.79,-1046.76C2742.8,-1046.76 2721.7,-1046.76 2701.2,-1046.76"/>
<polygon fill="black" stroke="black" stroke-width="0.31" points="2701.2,-1043.26 2691.2,-1046.76 2701.2,-1050.26 2701.2,-1043.26"/>
<text text-anchor="middle" x="2709.25" y="-1035.56" font-family="Times,serif" font-size="14.00">stone*25104</text>
</g>
<!-- 4,11 (Cobalt Extract) -->
<g id="node20" class="node">
<title>4,11 (Cobalt Extract)</title>
<ellipse fill="none" stroke="black" cx="248.37" cy="-474.91" rx="108.58" ry="18"/>
<text text-anchor="middle" x="248.37" y="-471.21" font-family="Times,serif" font-size="14.00">4,11 (Cobalt Extract)</text>
</g>
<!-- 4,11 (Cobalt Extract)&#45;&gt;1,8 (HCl, Salt) -->
<g id="edge29" class="edge">
<title>4,11 (Cobalt Extract)&#45;&gt;1,8 (HCl, Salt)</title>
<path fill="none" stroke="black" stroke-width="0.34" d="M251.15,-492.97C263.88,-575.58 316.64,-917.78 332.19,-1018.66"/>
<polygon fill="black" stroke="black" stroke-width="0.34" points="328.75,-1019.35 333.74,-1028.7 335.67,-1018.28 328.75,-1019.35"/>
<text text-anchor="middle" x="337.17" y="-759.62" font-family="Times,serif" font-size="14.00">stone*27760</text>
</g>
</g>
</svg>
