<?xml version="1.0" encoding="UTF-8" standalone="no"?>
<!DOCTYPE svg PUBLIC "-//W3C//DTD SVG 1.1//EN"
 "http://www.w3.org/Graphics/SVG/1.1/DTD/svg11.dtd">
<!-- Generated by graphviz version 2.43.0 (0)
 -->
<!-- Title: %3 Pages: 1 -->
<svg width="1495pt" height="919pt"
 viewBox="0.00 0.00 1495.15 919.05" xmlns="http://www.w3.org/2000/svg" xmlns:xlink="http://www.w3.org/1999/xlink">
<g id="graph0" class="graph" transform="scale(1 1) rotate(0) translate(4 915.05)">
<title>%3</title>
<polygon fill="white" stroke="transparent" points="-4,4 -4,-915.05 1491.15,-915.05 1491.15,4 -4,4"/>
<!-- 0,0 (LE BUS) -->
<g id="node1" class="node">
<title>0,0 (LE BUS)</title>
<ellipse fill="none" stroke="black" cx="564.03" cy="-588.15" rx="71.49" ry="18"/>
<text text-anchor="middle" x="564.03" y="-584.45" font-family="Times,serif" font-size="14.00">0,0 (LE BUS)</text>
</g>
<!-- 2,0 (Sodium Sulfate) -->
<g id="node2" class="node">
<title>2,0 (Sodium Sulfate)</title>
<ellipse fill="none" stroke="black" cx="106.59" cy="-588.15" rx="106.68" ry="18"/>
<text text-anchor="middle" x="106.59" y="-584.45" font-family="Times,serif" font-size="14.00">2,0 (Sodium Sulfate)</text>
</g>
<!-- 0,0 (LE BUS)&#45;&gt;2,0 (Sodium Sulfate) -->
<g id="edge1" class="edge">
<title>0,0 (LE BUS)&#45;&gt;2,0 (Sodium Sulfate)</title>
<path fill="none" stroke="black" stroke-width="0.91" d="M492.31,-588.15C420.42,-588.15 308.56,-588.15 223.78,-588.15"/>
<polygon fill="black" stroke="black" stroke-width="0.91" points="223.58,-584.65 213.58,-588.15 223.58,-591.65 223.58,-584.65"/>
<text text-anchor="middle" x="309.54" y="-591.95" font-family="Times,serif" font-size="14.00">gravel*27552</text>
</g>
<!-- 1,8 (A copper mine, Salt) -->
<g id="node4" class="node">
<title>1,8 (A copper mine, Salt)</title>
<ellipse fill="none" stroke="black" cx="835.23" cy="-18" rx="126.18" ry="18"/>
<text text-anchor="middle" x="835.23" y="-14.3" font-family="Times,serif" font-size="14.00">1,8 (A copper mine, Salt)</text>
</g>
<!-- 0,0 (LE BUS)&#45;&gt;1,8 (A copper mine, Salt) -->
<g id="edge3" class="edge">
<title>0,0 (LE BUS)&#45;&gt;1,8 (A copper mine, Salt)</title>
<path fill="none" stroke="black" stroke-width="1.21" d="M572.6,-570.14C611.89,-487.53 775.05,-144.52 822.33,-45.11"/>
<polygon fill="black" stroke="black" stroke-width="1.21" points="825.53,-46.54 826.66,-36.01 819.21,-43.54 825.53,-46.54"/>
<text text-anchor="middle" x="648.97" y="-311.43" font-family="Times,serif" font-size="14.00">gravel*36806</text>
</g>
<!-- &#45;6,&#45;1 (item=agar Agar) -->
<g id="node5" class="node">
<title>&#45;6,&#45;1 (item=agar Agar)</title>
<ellipse fill="none" stroke="black" cx="1022.29" cy="-267.14" rx="115.88" ry="18"/>
<text text-anchor="middle" x="1022.29" y="-263.44" font-family="Times,serif" font-size="14.00">&#45;6,&#45;1 (item=agar Agar)</text>
</g>
<!-- 0,0 (LE BUS)&#45;&gt;&#45;6,&#45;1 (item=agar Agar) -->
<g id="edge4" class="edge">
<title>0,0 (LE BUS)&#45;&gt;&#45;6,&#45;1 (item=agar Agar)</title>
<path fill="none" stroke="black" stroke-width="0.81" d="M588.35,-571.12C664.9,-517.49 901.08,-352.05 988.93,-290.51"/>
<polygon fill="black" stroke="black" stroke-width="0.81" points="991.01,-293.32 997.2,-284.71 987,-287.59 991.01,-293.32"/>
<text text-anchor="middle" x="740.14" y="-434.61" font-family="Times,serif" font-size="14.00">gravel*24480</text>
</g>
<!-- 3,9 (Copper, molten &amp; plate) -->
<g id="node3" class="node">
<title>3,9 (Copper, molten &amp; plate)</title>
<ellipse fill="none" stroke="black" cx="335.31" cy="-359.43" rx="143.77" ry="18"/>
<text text-anchor="middle" x="335.31" y="-355.73" font-family="Times,serif" font-size="14.00">3,9 (Copper, molten &amp; plate)</text>
</g>
<!-- 3,9 (Copper, molten &amp; plate)&#45;&gt;0,0 (LE BUS) -->
<g id="edge2" class="edge">
<title>3,9 (Copper, molten &amp; plate)&#45;&gt;0,0 (LE BUS)</title>
<path fill="none" stroke="black" stroke-width="2.97" d="M353.26,-377.38C393.86,-417.98 492.83,-516.94 539.24,-563.36"/>
<polygon fill="black" stroke="black" stroke-width="2.97" points="536.94,-566 546.48,-570.6 541.89,-561.05 536.94,-566"/>
<text text-anchor="middle" x="397.75" y="-474.17" font-family="Times,serif" font-size="14.00">gravel*90048</text>
</g>
<!-- 3,9 (Copper, molten &amp; plate)&#45;&gt;2,0 (Sodium Sulfate) -->
<g id="edge8" class="edge">
<title>3,9 (Copper, molten &amp; plate)&#45;&gt;2,0 (Sodium Sulfate)</title>
<path fill="none" stroke="black" stroke-width="0.5" d="M317.36,-377.38C276.86,-417.88 178.28,-516.46 131.73,-563.01"/>
<polygon fill="black" stroke="black" stroke-width="0.5" points="129.05,-560.74 124.45,-570.29 134,-565.69 129.05,-560.74"/>
<text text-anchor="middle" x="176.05" y="-473.99" font-family="Times,serif" font-size="14.00">gravel*15264</text>
</g>
<!-- 1,&#45;1 (fluid=molten&#45;glass Glass, When space, make quartz separate with regular priority, Quartz) -->
<g id="node6" class="node">
<title>1,&#45;1 (fluid=molten&#45;glass Glass, When space, make quartz separate with regular priority, Quartz)</title>
<ellipse fill="none" stroke="black" cx="1029.59" cy="-893.05" rx="457.62" ry="18"/>
<text text-anchor="middle" x="1029.59" y="-889.35" font-family="Times,serif" font-size="14.00">1,&#45;1 (fluid=molten&#45;glass Glass, When space, make quartz separate with regular priority, Quartz)</text>
</g>
<!-- 1,&#45;1 (fluid=molten&#45;glass Glass, When space, make quartz separate with regular priority, Quartz)&#45;&gt;0,0 (LE BUS) -->
<g id="edge5" class="edge">
<title>1,&#45;1 (fluid=molten&#45;glass Glass, When space, make quartz separate with regular priority, Quartz)&#45;&gt;0,0 (LE BUS)</title>
<path fill="none" stroke="black" stroke-width="0.1" d="M1001.86,-874.89C921.24,-822.09 687.02,-668.69 598.48,-610.71"/>
<polygon fill="black" stroke="black" stroke-width="0.1" points="600.17,-607.63 589.88,-605.08 596.33,-613.49 600.17,-607.63"/>
<text text-anchor="middle" x="756.17" y="-746.6" font-family="Times,serif" font-size="14.00">gravel*3008</text>
</g>
<!-- &#45;6,7 (Iron ore dust) -->
<g id="node7" class="node">
<title>&#45;6,7 (Iron ore dust)</title>
<ellipse fill="none" stroke="black" cx="335.31" cy="-816.87" rx="98.58" ry="18"/>
<text text-anchor="middle" x="335.31" y="-813.17" font-family="Times,serif" font-size="14.00">&#45;6,7 (Iron ore dust)</text>
</g>
<!-- &#45;6,7 (Iron ore dust)&#45;&gt;0,0 (LE BUS) -->
<g id="edge6" class="edge">
<title>&#45;6,7 (Iron ore dust)&#45;&gt;0,0 (LE BUS)</title>
<path fill="none" stroke="black" stroke-width="0.5" d="M353.26,-798.92C393.86,-758.32 492.83,-659.36 539.24,-612.94"/>
<polygon fill="black" stroke="black" stroke-width="0.5" points="541.89,-615.25 546.48,-605.7 536.94,-610.3 541.89,-615.25"/>
<text text-anchor="middle" x="397.75" y="-709.73" font-family="Times,serif" font-size="14.00">gravel*15008</text>
</g>
<!-- &#45;6,7 (Iron ore dust)&#45;&gt;2,0 (Sodium Sulfate) -->
<g id="edge7" class="edge">
<title>&#45;6,7 (Iron ore dust)&#45;&gt;2,0 (Sodium Sulfate)</title>
<path fill="none" stroke="black" stroke-width="1" d="M317.36,-798.92C276.86,-758.42 178.28,-659.84 131.73,-613.29"/>
<polygon fill="black" stroke="black" stroke-width="1" points="134,-610.61 124.45,-606.01 129.05,-615.56 134,-610.61"/>
<text text-anchor="middle" x="176.05" y="-709.91" font-family="Times,serif" font-size="14.00">gravel*30240</text>
</g>
</g>
</svg>
