<?xml version="1.0" encoding="UTF-8" standalone="no"?>
<!DOCTYPE svg PUBLIC "-//W3C//DTD SVG 1.1//EN"
 "http://www.w3.org/Graphics/SVG/1.1/DTD/svg11.dtd">
<!-- Generated by graphviz version 2.43.0 (0)
 -->
<!-- Title: %3 Pages: 1 -->
<svg width="2800pt" height="2608pt"
 viewBox="0.00 0.00 2800.37 2607.99" xmlns="http://www.w3.org/2000/svg" xmlns:xlink="http://www.w3.org/1999/xlink">
<g id="graph0" class="graph" transform="scale(1 1) rotate(0) translate(4 2603.99)">
<title>%3</title>
<polygon fill="white" stroke="transparent" points="-4,4 -4,-2603.99 2796.37,-2603.99 2796.37,4 -4,4"/>
<!-- 1,6 (Sodium Hydroxide, Limestone) -->
<g id="node1" class="node">
<title>1,6 (Sodium Hydroxide, Limestone)</title>
<ellipse fill="none" stroke="black" cx="175.48" cy="-1568" rx="175.47" ry="18"/>
<text text-anchor="middle" x="175.48" y="-1564.3" font-family="Times,serif" font-size="14.00">1,6 (Sodium Hydroxide, Limestone)</text>
</g>
<!-- &#45;4,&#45;13 (Carbon activationer) -->
<g id="node2" class="node">
<title>&#45;4,&#45;13 (Carbon activationer)</title>
<ellipse fill="none" stroke="black" cx="1301.63" cy="-18" rx="139.18" ry="18"/>
<text text-anchor="middle" x="1301.63" y="-14.3" font-family="Times,serif" font-size="14.00">&#45;4,&#45;13 (Carbon activationer)</text>
</g>
<!-- 1,6 (Sodium Hydroxide, Limestone)&#45;&gt;&#45;4,&#45;13 (Carbon activationer) -->
<g id="edge1" class="edge">
<title>1,6 (Sodium Hydroxide, Limestone)&#45;&gt;&#45;4,&#45;13 (Carbon activationer)</title>
<path fill="none" stroke="black" stroke-width="2.17" d="M188.72,-1549.79C304.54,-1390.38 1144.8,-233.86 1282.55,-44.26"/>
<polygon fill="black" stroke="black" stroke-width="2.17" points="1285.52,-46.12 1288.57,-35.97 1279.86,-42.01 1285.52,-46.12"/>
<text text-anchor="middle" x="645.63" y="-800.83" font-family="Times,serif" font-size="14.00">sodium&#45;hydroxide*60528</text>
</g>
<!-- 0,0 (LE BUS) -->
<g id="node4" class="node">
<title>0,0 (LE BUS)</title>
<ellipse fill="none" stroke="black" cx="1301.63" cy="-2581.99" rx="71.49" ry="18"/>
<text text-anchor="middle" x="1301.63" y="-2578.29" font-family="Times,serif" font-size="14.00">0,0 (LE BUS)</text>
</g>
<!-- 1,6 (Sodium Hydroxide, Limestone)&#45;&gt;0,0 (LE BUS) -->
<g id="edge8" class="edge">
<title>1,6 (Sodium Hydroxide, Limestone)&#45;&gt;0,0 (LE BUS)</title>
<path fill="none" stroke="black" stroke-width="2.44" d="M195.51,-1586.03C331.33,-1708.33 1116.83,-2415.6 1274.19,-2557.28"/>
<polygon fill="black" stroke="black" stroke-width="2.44" points="1272.25,-2560.25 1282.03,-2564.34 1276.94,-2555.05 1272.25,-2560.25"/>
<text text-anchor="middle" x="644.85" y="-2075.46" font-family="Times,serif" font-size="14.00">sodium&#45;hydroxide*68128</text>
</g>
<!-- 4,12 (Molten Glass) -->
<g id="node5" class="node">
<title>4,12 (Molten Glass)</title>
<ellipse fill="none" stroke="black" cx="2298.92" cy="-342.04" rx="102.08" ry="18"/>
<text text-anchor="middle" x="2298.92" y="-338.34" font-family="Times,serif" font-size="14.00">4,12 (Molten Glass)</text>
</g>
<!-- 1,6 (Sodium Hydroxide, Limestone)&#45;&gt;4,12 (Molten Glass) -->
<g id="edge19" class="edge">
<title>1,6 (Sodium Hydroxide, Limestone)&#45;&gt;4,12 (Molten Glass)</title>
<path fill="none" stroke="black" stroke-width="2.54" d="M206.32,-1550.2C444.86,-1412.48 1993.77,-518.22 2260,-364.51"/>
<polygon fill="black" stroke="black" stroke-width="2.54" points="2262.01,-367.39 2268.92,-359.36 2258.51,-361.33 2262.01,-367.39"/>
<text text-anchor="middle" x="1143.16" y="-961.16" font-family="Times,serif" font-size="14.00">sodium&#45;hydroxide*70784</text>
</g>
<!-- 1,7 (Activated Carbon) -->
<g id="node7" class="node">
<title>1,7 (Activated Carbon)</title>
<ellipse fill="none" stroke="black" cx="1834.71" cy="-74.03" rx="115.88" ry="18"/>
<text text-anchor="middle" x="1834.71" y="-70.33" font-family="Times,serif" font-size="14.00">1,7 (Activated Carbon)</text>
</g>
<!-- 1,6 (Sodium Hydroxide, Limestone)&#45;&gt;1,7 (Activated Carbon) -->
<g id="edge5" class="edge">
<title>1,6 (Sodium Hydroxide, Limestone)&#45;&gt;1,7 (Activated Carbon)</title>
<path fill="none" stroke="black" stroke-width="1.13" d="M195.57,-1549.92C368.71,-1394.03 1607.64,-278.48 1807.52,-98.51"/>
<polygon fill="black" stroke="black" stroke-width="1.13" points="1809.88,-101.1 1814.97,-91.81 1805.19,-95.9 1809.88,-101.1"/>
<text text-anchor="middle" x="911.54" y="-828.02" font-family="Times,serif" font-size="14.00">sodium&#45;hydroxide*31520</text>
</g>
<!-- &#45;1,7 (Rayon) -->
<g id="node8" class="node">
<title>&#45;1,7 (Rayon)</title>
<ellipse fill="none" stroke="black" cx="2725.43" cy="-1299.99" rx="66.89" ry="18"/>
<text text-anchor="middle" x="2725.43" y="-1296.29" font-family="Times,serif" font-size="14.00">&#45;1,7 (Rayon)</text>
</g>
<!-- 1,6 (Sodium Hydroxide, Limestone)&#45;&gt;&#45;1,7 (Rayon) -->
<g id="edge13" class="edge">
<title>1,6 (Sodium Hydroxide, Limestone)&#45;&gt;&#45;1,7 (Rayon)</title>
<path fill="none" stroke="black" stroke-width="1.16" d="M298.47,-1555.08C748.55,-1507.77 2298.16,-1344.9 2652.75,-1307.63"/>
<polygon fill="black" stroke="black" stroke-width="1.16" points="2653.31,-1311.09 2662.89,-1306.57 2652.58,-1304.13 2653.31,-1311.09"/>
<text text-anchor="middle" x="1385.61" y="-1435.16" font-family="Times,serif" font-size="14.00">sodium&#45;hydroxide*32368</text>
</g>
<!-- 4,2 (More fiberboard) -->
<g id="node10" class="node">
<title>4,2 (More fiberboard)</title>
<ellipse fill="none" stroke="black" cx="393.5" cy="-542.31" rx="111.28" ry="18"/>
<text text-anchor="middle" x="393.5" y="-538.61" font-family="Times,serif" font-size="14.00">4,2 (More fiberboard)</text>
</g>
<!-- 1,6 (Sodium Hydroxide, Limestone)&#45;&gt;4,2 (More fiberboard) -->
<g id="edge44" class="edge">
<title>1,6 (Sodium Hydroxide, Limestone)&#45;&gt;4,2 (More fiberboard)</title>
<path fill="none" stroke="black" stroke-width="0.15" d="M179.36,-1549.77C205.47,-1426.93 355.6,-720.64 387.53,-570.4"/>
<polygon fill="black" stroke="black" stroke-width="0.15" points="390.97,-571.07 389.62,-560.56 384.12,-569.62 390.97,-571.07"/>
<text text-anchor="middle" x="197.95" y="-1063.88" font-family="Times,serif" font-size="14.00">sodium&#45;hydroxide*4320</text>
</g>
<!-- &#45;1,&#45;2 (Aramid fiber) -->
<g id="node12" class="node">
<title>&#45;1,&#45;2 (Aramid fiber)</title>
<ellipse fill="none" stroke="black" cx="175.48" cy="-1031.98" rx="99.38" ry="18"/>
<text text-anchor="middle" x="175.48" y="-1028.28" font-family="Times,serif" font-size="14.00">&#45;1,&#45;2 (Aramid fiber)</text>
</g>
<!-- 1,6 (Sodium Hydroxide, Limestone)&#45;&gt;&#45;1,&#45;2 (Aramid fiber) -->
<g id="edge28" class="edge">
<title>1,6 (Sodium Hydroxide, Limestone)&#45;&gt;&#45;1,&#45;2 (Aramid fiber)</title>
<path fill="none" stroke="black" stroke-width="0.16" d="M175.48,-1549.86C175.48,-1470.89 175.48,-1156.7 175.48,-1060.27"/>
<polygon fill="black" stroke="black" stroke-width="0.16" points="178.98,-1060.12 175.48,-1050.12 171.98,-1060.12 178.98,-1060.12"/>
<text text-anchor="middle" x="89.98" y="-1308.87" font-family="Times,serif" font-size="14.00">sodium&#45;hydroxide*4544</text>
</g>
<!-- 9,&#45;7 (Filtration mediaer) -->
<g id="node13" class="node">
<title>9,&#45;7 (Filtration mediaer)</title>
<ellipse fill="none" stroke="black" cx="393.5" cy="-2057.68" rx="122.68" ry="18"/>
<text text-anchor="middle" x="393.5" y="-2053.98" font-family="Times,serif" font-size="14.00">9,&#45;7 (Filtration mediaer)</text>
</g>
<!-- 1,6 (Sodium Hydroxide, Limestone)&#45;&gt;9,&#45;7 (Filtration mediaer) -->
<g id="edge24" class="edge">
<title>1,6 (Sodium Hydroxide, Limestone)&#45;&gt;9,&#45;7 (Filtration mediaer)</title>
<path fill="none" stroke="black" stroke-width="0.69" d="M183.5,-1586.01C216.45,-1660.02 341.57,-1941.05 381.31,-2030.3"/>
<polygon fill="black" stroke="black" stroke-width="0.69" points="378.15,-2031.8 385.41,-2039.51 384.54,-2028.95 378.15,-2031.8"/>
<text text-anchor="middle" x="192.41" y="-1811.96" font-family="Times,serif" font-size="14.00">sodium&#45;hydroxide*19168</text>
</g>
<!-- &#45;3,1 (Logistic science pack, Automation Science) -->
<g id="node14" class="node">
<title>&#45;3,1 (Logistic science pack, Automation Science)</title>
<ellipse fill="none" stroke="black" cx="791.84" cy="-2416.35" rx="233.96" ry="18"/>
<text text-anchor="middle" x="791.84" y="-2412.65" font-family="Times,serif" font-size="14.00">&#45;3,1 (Logistic science pack, Automation Science)</text>
</g>
<!-- 1,6 (Sodium Hydroxide, Limestone)&#45;&gt;&#45;3,1 (Logistic science pack, Automation Science) -->
<g id="edge22" class="edge">
<title>1,6 (Sodium Hydroxide, Limestone)&#45;&gt;&#45;3,1 (Logistic science pack, Automation Science)</title>
<path fill="none" stroke="black" stroke-width="0.07" d="M188.64,-1586.12C267.61,-1694.8 678.32,-2260.1 772.56,-2389.81"/>
<polygon fill="black" stroke="black" stroke-width="0.07" points="769.84,-2392.01 778.55,-2398.05 775.5,-2387.9 769.84,-2392.01"/>
<text text-anchor="middle" x="395.1" y="-1991.76" font-family="Times,serif" font-size="14.00">sodium&#45;hydroxide*2016</text>
</g>
<!-- 4,1 (item=filtration&#45;media Filtration Media) -->
<g id="node15" class="node">
<title>4,1 (item=filtration&#45;media Filtration Media)</title>
<ellipse fill="none" stroke="black" cx="1834.71" cy="-2525.96" rx="214.46" ry="18"/>
<text text-anchor="middle" x="1834.71" y="-2522.26" font-family="Times,serif" font-size="14.00">4,1 (item=filtration&#45;media Filtration Media)</text>
</g>
<!-- 1,6 (Sodium Hydroxide, Limestone)&#45;&gt;4,1 (item=filtration&#45;media Filtration Media) -->
<g id="edge27" class="edge">
<title>1,6 (Sodium Hydroxide, Limestone)&#45;&gt;4,1 (item=filtration&#45;media Filtration Media)</title>
<path fill="none" stroke="black" stroke-width="0.68" d="M206.42,-1585.86C410.76,-1703.84 1565.2,-2370.36 1794.95,-2503"/>
<polygon fill="black" stroke="black" stroke-width="0.68" points="1793.25,-2506.06 1803.66,-2508.03 1796.75,-2500 1793.25,-2506.06"/>
<text text-anchor="middle" x="910.68" y="-2048.23" font-family="Times,serif" font-size="14.00">sodium&#45;hydroxide*18992</text>
</g>
<!-- &#45;5,2 (Optical fiber) -->
<g id="node3" class="node">
<title>&#45;5,2 (Optical fiber)</title>
<ellipse fill="none" stroke="black" cx="2613.98" cy="-1824.3" rx="96.38" ry="18"/>
<text text-anchor="middle" x="2613.98" y="-1820.6" font-family="Times,serif" font-size="14.00">&#45;5,2 (Optical fiber)</text>
</g>
<!-- &#45;5,2 (Optical fiber)&#45;&gt;&#45;4,&#45;13 (Carbon activationer) -->
<g id="edge43" class="edge">
<title>&#45;5,2 (Optical fiber)&#45;&gt;&#45;4,&#45;13 (Carbon activationer)</title>
<path fill="none" stroke="black" stroke-width="0.2" d="M2600.99,-1806.42C2475.02,-1633.04 1472,-252.49 1320.71,-44.26"/>
<polygon fill="black" stroke="black" stroke-width="0.2" points="1323.43,-42.06 1314.72,-36.02 1317.77,-46.17 1323.43,-42.06"/>
<text text-anchor="middle" x="1875.35" y="-929.14" font-family="Times,serif" font-size="14.00">sodium&#45;hydroxide*5488</text>
</g>
<!-- &#45;5,2 (Optical fiber)&#45;&gt;0,0 (LE BUS) -->
<g id="edge2" class="edge">
<title>&#45;5,2 (Optical fiber)&#45;&gt;0,0 (LE BUS)</title>
<path fill="none" stroke="black" stroke-width="0.5" d="M2584.11,-1841.55C2410.49,-1941.79 1532.45,-2448.72 1339.26,-2560.26"/>
<polygon fill="black" stroke="black" stroke-width="0.5" points="1337.23,-2557.39 1330.32,-2565.42 1340.73,-2563.45 1337.23,-2557.39"/>
<text text-anchor="middle" x="1871.68" y="-2204.71" font-family="Times,serif" font-size="14.00">sodium&#45;hydroxide*13940</text>
</g>
<!-- &#45;5,2 (Optical fiber)&#45;&gt;1,7 (Activated Carbon) -->
<g id="edge41" class="edge">
<title>&#45;5,2 (Optical fiber)&#45;&gt;1,7 (Activated Carbon)</title>
<path fill="none" stroke="black" stroke-width="0.32" d="M2605.89,-1806.12C2529.73,-1635.06 1939.77,-310 1846.98,-101.58"/>
<polygon fill="black" stroke="black" stroke-width="0.32" points="1850.09,-99.96 1842.82,-92.25 1843.69,-102.81 1850.09,-99.96"/>
<text text-anchor="middle" x="2140.93" y="-957.65" font-family="Times,serif" font-size="14.00">sodium&#45;hydroxide*8960</text>
</g>
<!-- &#45;5,2 (Optical fiber)&#45;&gt;&#45;1,7 (Rayon) -->
<g id="edge34" class="edge">
<title>&#45;5,2 (Optical fiber)&#45;&gt;&#45;1,7 (Rayon)</title>
<path fill="none" stroke="black" stroke-width="0.93" d="M2617.82,-1806.25C2634.33,-1728.58 2699.41,-1422.42 2719.49,-1327.92"/>
<polygon fill="black" stroke="black" stroke-width="0.93" points="2722.95,-1328.48 2721.61,-1317.97 2716.1,-1327.02 2722.95,-1328.48"/>
<text text-anchor="middle" x="2578.65" y="-1570.89" font-family="Times,serif" font-size="14.00">sodium&#45;hydroxide*25940</text>
</g>
<!-- &#45;5,2 (Optical fiber)&#45;&gt;4,2 (More fiberboard) -->
<g id="edge16" class="edge">
<title>&#45;5,2 (Optical fiber)&#45;&gt;4,2 (More fiberboard)</title>
<path fill="none" stroke="black" stroke-width="0.14" d="M2584.27,-1807.15C2343.07,-1667.89 707.75,-723.73 432.72,-564.95"/>
<polygon fill="black" stroke="black" stroke-width="0.14" points="434.29,-561.82 423.88,-559.85 430.79,-567.88 434.29,-561.82"/>
<text text-anchor="middle" x="1423" y="-1189.85" font-family="Times,serif" font-size="14.00">sodium&#45;hydroxide*3984</text>
</g>
<!-- 2,4 (Formica and Phenolic boards) -->
<g id="node11" class="node">
<title>2,4 (Formica and Phenolic boards)</title>
<ellipse fill="none" stroke="black" cx="2298.92" cy="-2257.95" rx="169.77" ry="18"/>
<text text-anchor="middle" x="2298.92" y="-2254.25" font-family="Times,serif" font-size="14.00">2,4 (Formica and Phenolic boards)</text>
</g>
<!-- &#45;5,2 (Optical fiber)&#45;&gt;2,4 (Formica and Phenolic boards) -->
<g id="edge40" class="edge">
<title>&#45;5,2 (Optical fiber)&#45;&gt;2,4 (Formica and Phenolic boards)</title>
<path fill="none" stroke="black" stroke-width="0.12" d="M2600.85,-1842.38C2551.4,-1910.43 2376.37,-2151.34 2318.01,-2231.67"/>
<polygon fill="black" stroke="black" stroke-width="0.12" points="2315.16,-2229.64 2312.11,-2239.79 2320.82,-2233.76 2315.16,-2229.64"/>
<text text-anchor="middle" x="2373.93" y="-2040.82" font-family="Times,serif" font-size="14.00">sodium&#45;hydroxide*3312</text>
</g>
<!-- &#45;5,2 (Optical fiber)&#45;&gt;4,1 (item=filtration&#45;media Filtration Media) -->
<g id="edge45" class="edge">
<title>&#45;5,2 (Optical fiber)&#45;&gt;4,1 (item=filtration&#45;media Filtration Media)</title>
<path fill="none" stroke="black" stroke-width="0.11" d="M2594.33,-1842C2488.43,-1937.35 1985.92,-2389.81 1862.26,-2501.16"/>
<polygon fill="black" stroke="black" stroke-width="0.11" points="1859.76,-2498.7 1854.67,-2507.99 1864.44,-2503.9 1859.76,-2498.7"/>
<text text-anchor="middle" x="2142.79" y="-2175.38" font-family="Times,serif" font-size="14.00">sodium&#45;hydroxide*2960</text>
</g>
<!-- 0,0 (LE BUS)&#45;&gt;&#45;4,&#45;13 (Carbon activationer) -->
<g id="edge15" class="edge">
<title>0,0 (LE BUS)&#45;&gt;&#45;4,&#45;13 (Carbon activationer)</title>
<path fill="none" stroke="black" stroke-width="3.46" d="M1301.63,-2563.9C1301.63,-2350.23 1301.63,-311.24 1301.63,-46.32"/>
<polygon fill="black" stroke="black" stroke-width="3.46" points="1305.13,-46.01 1301.63,-36.01 1298.13,-46.01 1305.13,-46.01"/>
<text text-anchor="middle" x="1211.63" y="-1308.91" font-family="Times,serif" font-size="14.00">sodium&#45;hydroxide*96544</text>
</g>
<!-- 0,0 (LE BUS)&#45;&gt;0,0 (LE BUS) -->
<g id="edge9" class="edge">
<title>0,0 (LE BUS)&#45;&gt;0,0 (LE BUS)</title>
<path fill="none" stroke="black" stroke-width="0.33" d="M1368.37,-2588.46C1381.65,-2587.73 1391.12,-2585.57 1391.12,-2581.99 1391.12,-2579.41 1386.23,-2577.57 1378.54,-2576.47"/>
<polygon fill="black" stroke="black" stroke-width="0.33" points="1378.65,-2572.97 1368.37,-2575.52 1378,-2579.93 1378.65,-2572.97"/>
<text text-anchor="middle" x="1476.62" y="-2578.29" font-family="Times,serif" font-size="14.00">sodium&#45;hydroxide*9328</text>
</g>
<!-- 0,0 (LE BUS)&#45;&gt;4,12 (Molten Glass) -->
<g id="edge3" class="edge">
<title>0,0 (LE BUS)&#45;&gt;4,12 (Molten Glass)</title>
<path fill="none" stroke="black" stroke-width="2.15" d="M1309.66,-2563.96C1397.52,-2366.61 2179.18,-610.99 2286.68,-369.52"/>
<polygon fill="black" stroke="black" stroke-width="2.15" points="2290.02,-370.62 2290.89,-360.07 2283.63,-367.78 2290.02,-370.62"/>
<text text-anchor="middle" x="1708.17" y="-1470.54" font-family="Times,serif" font-size="14.00">sodium&#45;hydroxide*60032</text>
</g>
<!-- 0,0 (LE BUS)&#45;&gt;1,7 (Activated Carbon) -->
<g id="edge7" class="edge">
<title>0,0 (LE BUS)&#45;&gt;1,7 (Activated Carbon)</title>
<path fill="none" stroke="black" stroke-width="3.19" d="M1305.46,-2563.95C1350.26,-2353.21 1773.35,-362.7 1828.74,-102.12"/>
<polygon fill="black" stroke="black" stroke-width="3.19" points="1832.17,-102.8 1830.83,-92.29 1825.33,-101.34 1832.17,-102.8"/>
<text text-anchor="middle" x="1477.1" y="-1336.83" font-family="Times,serif" font-size="14.00">sodium&#45;hydroxide*89056</text>
</g>
<!-- 0,0 (LE BUS)&#45;&gt;&#45;1,7 (Rayon) -->
<g id="edge6" class="edge">
<title>0,0 (LE BUS)&#45;&gt;&#45;1,7 (Rayon)</title>
<path fill="none" stroke="black" stroke-width="8.57" d="M1320.95,-2564.6C1476.01,-2424.98 2516.9,-1487.75 2698.45,-1324.29"/>
<polygon fill="black" stroke="black" stroke-width="8.57" points="2703.55,-1329.78 2705.97,-1317.52 2693.52,-1318.64 2703.55,-1329.78"/>
<text text-anchor="middle" x="1915.2" y="-1948.24" font-family="Times,serif" font-size="14.00">sodium&#45;hydroxide*239184</text>
</g>
<!-- 0,0 (LE BUS)&#45;&gt;4,2 (More fiberboard) -->
<g id="edge12" class="edge">
<title>0,0 (LE BUS)&#45;&gt;4,2 (More fiberboard)</title>
<path fill="none" stroke="black" stroke-width="0.23" d="M1293.64,-2564.05C1210.66,-2377.66 507.08,-797.41 405.66,-569.62"/>
<polygon fill="black" stroke="black" stroke-width="0.23" points="408.81,-568.08 401.54,-560.37 402.41,-570.93 408.81,-568.08"/>
<text text-anchor="middle" x="764.15" y="-1570.63" font-family="Times,serif" font-size="14.00">sodium&#45;hydroxide*6464</text>
</g>
<!-- 0,0 (LE BUS)&#45;&gt;2,4 (Formica and Phenolic boards) -->
<g id="edge14" class="edge">
<title>0,0 (LE BUS)&#45;&gt;2,4 (Formica and Phenolic boards)</title>
<path fill="none" stroke="black" stroke-width="0.6" d="M1345.44,-2567.75C1504.35,-2516.12 2050.72,-2338.59 2236.51,-2278.23"/>
<polygon fill="black" stroke="black" stroke-width="0.6" points="2237.7,-2281.52 2246.13,-2275.1 2235.54,-2274.86 2237.7,-2281.52"/>
<text text-anchor="middle" x="1700.98" y="-2426.79" font-family="Times,serif" font-size="14.00">sodium&#45;hydroxide*16752</text>
</g>
<!-- 0,0 (LE BUS)&#45;&gt;&#45;1,&#45;2 (Aramid fiber) -->
<g id="edge17" class="edge">
<title>0,0 (LE BUS)&#45;&gt;&#45;1,&#45;2 (Aramid fiber)</title>
<path fill="none" stroke="black" stroke-width="0.72" d="M1288.59,-2564.05C1173.54,-2405.68 332.47,-1248.06 194.58,-1058.27"/>
<polygon fill="black" stroke="black" stroke-width="0.72" points="197.27,-1056.01 188.56,-1049.98 191.6,-1060.12 197.27,-1056.01"/>
<text text-anchor="middle" x="651.59" y="-1814.96" font-family="Times,serif" font-size="14.00">sodium&#45;hydroxide*20208</text>
</g>
<!-- 0,0 (LE BUS)&#45;&gt;9,&#45;7 (Filtration mediaer) -->
<g id="edge20" class="edge">
<title>0,0 (LE BUS)&#45;&gt;9,&#45;7 (Filtration mediaer)</title>
<path fill="none" stroke="black" stroke-width="1.4" d="M1272.95,-2565.43C1140.36,-2488.88 586.67,-2169.21 433.13,-2080.56"/>
<polygon fill="black" stroke="black" stroke-width="1.4" points="434.43,-2077.27 424.02,-2075.3 430.93,-2083.33 434.43,-2077.27"/>
<text text-anchor="middle" x="763.04" y="-2326.8" font-family="Times,serif" font-size="14.00">sodium&#45;hydroxide*39072</text>
</g>
<!-- 0,0 (LE BUS)&#45;&gt;&#45;3,1 (Logistic science pack, Automation Science) -->
<g id="edge26" class="edge">
<title>0,0 (LE BUS)&#45;&gt;&#45;3,1 (Logistic science pack, Automation Science)</title>
<path fill="none" stroke="black" stroke-width="0.04" d="M1257.72,-2567.72C1167.44,-2538.39 960.63,-2471.19 855.59,-2437.06"/>
<polygon fill="black" stroke="black" stroke-width="0.04" points="856.65,-2433.73 846.06,-2433.96 854.49,-2440.38 856.65,-2433.73"/>
<text text-anchor="middle" x="971.16" y="-2506.19" font-family="Times,serif" font-size="14.00">sodium&#45;hydroxide*1008</text>
</g>
<!-- 0,0 (LE BUS)&#45;&gt;4,1 (item=filtration&#45;media Filtration Media) -->
<g id="edge23" class="edge">
<title>0,0 (LE BUS)&#45;&gt;4,1 (item=filtration&#45;media Filtration Media)</title>
<path fill="none" stroke="black" stroke-width="1.09" d="M1367.8,-2575.03C1448.02,-2566.6 1585.53,-2552.15 1690.6,-2541.11"/>
<polygon fill="black" stroke="black" stroke-width="1.09" points="1691.09,-2544.57 1700.67,-2540.05 1690.36,-2537.61 1691.09,-2544.57"/>
<text text-anchor="middle" x="1439.2" y="-2546.87" font-family="Times,serif" font-size="14.00">sodium&#45;hydroxide*30384</text>
</g>
<!-- 8,3 (Nylon mk2) -->
<g id="node6" class="node">
<title>8,3 (Nylon mk2)</title>
<ellipse fill="none" stroke="black" cx="791.84" cy="-183.64" rx="85.29" ry="18"/>
<text text-anchor="middle" x="791.84" y="-179.94" font-family="Times,serif" font-size="14.00">8,3 (Nylon mk2)</text>
</g>
<!-- 8,3 (Nylon mk2)&#45;&gt;&#45;4,&#45;13 (Carbon activationer) -->
<g id="edge32" class="edge">
<title>8,3 (Nylon mk2)&#45;&gt;&#45;4,&#45;13 (Carbon activationer)</title>
<path fill="none" stroke="black" stroke-width="0.73" d="M838.43,-168.5C930.82,-138.48 1137.2,-71.43 1240.41,-37.89"/>
<polygon fill="black" stroke="black" stroke-width="0.73" points="1241.63,-41.17 1250.06,-34.75 1239.47,-34.52 1241.63,-41.17"/>
<text text-anchor="middle" x="949.42" y="-107" font-family="Times,serif" font-size="14.00">sodium&#45;hydroxide*20320</text>
</g>
<!-- 8,3 (Nylon mk2)&#45;&gt;0,0 (LE BUS) -->
<g id="edge11" class="edge">
<title>8,3 (Nylon mk2)&#45;&gt;0,0 (LE BUS)</title>
<path fill="none" stroke="black" stroke-width="1.69" d="M795.73,-201.91C839.62,-408.4 1241.9,-2300.97 1295.69,-2554.06"/>
<polygon fill="black" stroke="black" stroke-width="1.69" points="1292.29,-2554.89 1297.79,-2563.94 1299.14,-2553.43 1292.29,-2554.89"/>
<text text-anchor="middle" x="955.71" y="-1381.78" font-family="Times,serif" font-size="14.00">sodium&#45;hydroxide*47040</text>
</g>
<!-- 8,3 (Nylon mk2)&#45;&gt;4,12 (Molten Glass) -->
<g id="edge4" class="edge">
<title>8,3 (Nylon mk2)&#45;&gt;4,12 (Molten Glass)</title>
<path fill="none" stroke="black" stroke-width="1.42" d="M868.13,-191.66C1119.33,-218.06 1920.52,-302.27 2200.9,-331.74"/>
<polygon fill="black" stroke="black" stroke-width="1.42" points="2200.74,-335.24 2211.05,-332.8 2201.47,-328.28 2200.74,-335.24"/>
<text text-anchor="middle" x="1444.51" y="-265.5" font-family="Times,serif" font-size="14.00">sodium&#45;hydroxide*39680</text>
</g>
<!-- 8,3 (Nylon mk2)&#45;&gt;1,7 (Activated Carbon) -->
<g id="edge25" class="edge">
<title>8,3 (Nylon mk2)&#45;&gt;1,7 (Activated Carbon)</title>
<path fill="none" stroke="black" stroke-width="1.48" d="M868.11,-175.62C1051.51,-156.35 1517.65,-107.35 1728.39,-85.2"/>
<polygon fill="black" stroke="black" stroke-width="1.48" points="1728.96,-88.66 1738.54,-84.14 1728.23,-81.7 1728.96,-88.66"/>
<text text-anchor="middle" x="1208.25" y="-134.21" font-family="Times,serif" font-size="14.00">sodium&#45;hydroxide*41200</text>
</g>
<!-- 8,3 (Nylon mk2)&#45;&gt;&#45;1,7 (Rayon) -->
<g id="edge38" class="edge">
<title>8,3 (Nylon mk2)&#45;&gt;&#45;1,7 (Rayon)</title>
<path fill="none" stroke="black" stroke-width="0.97" d="M821.44,-200.73C1042.98,-328.63 2439.98,-1135.19 2687.85,-1278.3"/>
<polygon fill="black" stroke="black" stroke-width="0.97" points="2686.43,-1281.52 2696.84,-1283.49 2689.93,-1275.46 2686.43,-1281.52"/>
<text text-anchor="middle" x="1664.65" y="-743.31" font-family="Times,serif" font-size="14.00">sodium&#45;hydroxide*27158</text>
</g>
<!-- 8,3 (Nylon mk2)&#45;&gt;4,2 (More fiberboard) -->
<g id="edge29" class="edge">
<title>8,3 (Nylon mk2)&#45;&gt;4,2 (More fiberboard)</title>
<path fill="none" stroke="black" stroke-width="0.23" d="M772.36,-201.18C707.25,-259.8 497.07,-449.05 421.17,-517.4"/>
<polygon fill="black" stroke="black" stroke-width="0.23" points="418.51,-515.08 413.42,-524.37 423.19,-520.28 418.51,-515.08"/>
<text text-anchor="middle" x="511.26" y="-363.09" font-family="Times,serif" font-size="14.00">sodium&#45;hydroxide*6400</text>
</g>
<!-- 8,3 (Nylon mk2)&#45;&gt;2,4 (Formica and Phenolic boards) -->
<g id="edge37" class="edge">
<title>8,3 (Nylon mk2)&#45;&gt;2,4 (Formica and Phenolic boards)</title>
<path fill="none" stroke="black" stroke-width="0.24" d="M804.87,-201.57C941.78,-390.02 2114.93,-2004.71 2279.72,-2231.52"/>
<polygon fill="black" stroke="black" stroke-width="0.24" points="2277.07,-2233.83 2285.78,-2239.86 2282.73,-2229.71 2277.07,-2233.83"/>
<text text-anchor="middle" x="1456.79" y="-1220.35" font-family="Times,serif" font-size="14.00">sodium&#45;hydroxide*6800</text>
</g>
<!-- 8,3 (Nylon mk2)&#45;&gt;&#45;1,&#45;2 (Aramid fiber) -->
<g id="edge30" class="edge">
<title>8,3 (Nylon mk2)&#45;&gt;&#45;1,&#45;2 (Aramid fiber)</title>
<path fill="none" stroke="black" stroke-width="0.18" d="M778.68,-201.75C699.64,-310.55 288.12,-876.96 194.46,-1005.86"/>
<polygon fill="black" stroke="black" stroke-width="0.18" points="191.57,-1003.9 188.52,-1014.04 197.23,-1008.01 191.57,-1003.9"/>
<text text-anchor="middle" x="401.07" y="-607.61" font-family="Times,serif" font-size="14.00">sodium&#45;hydroxide*5040</text>
</g>
<!-- 8,3 (Nylon mk2)&#45;&gt;9,&#45;7 (Filtration mediaer) -->
<g id="edge21" class="edge">
<title>8,3 (Nylon mk2)&#45;&gt;9,&#45;7 (Filtration mediaer)</title>
<path fill="none" stroke="black" stroke-width="0.66" d="M787.97,-201.89C750.06,-380.2 446.14,-1810.03 399.5,-2029.47"/>
<polygon fill="black" stroke="black" stroke-width="0.66" points="396.02,-2029.02 397.36,-2039.53 402.86,-2030.48 396.02,-2029.02"/>
<text text-anchor="middle" x="503.73" y="-1119.48" font-family="Times,serif" font-size="14.00">sodium&#45;hydroxide*18400</text>
</g>
<!-- 8,3 (Nylon mk2)&#45;&gt;&#45;3,1 (Logistic science pack, Automation Science) -->
<g id="edge35" class="edge">
<title>8,3 (Nylon mk2)&#45;&gt;&#45;3,1 (Logistic science pack, Automation Science)</title>
<path fill="none" stroke="black" stroke-width="0.04" d="M791.84,-201.94C791.84,-399.97 791.84,-2143.27 791.84,-2387.88"/>
<polygon fill="black" stroke="black" stroke-width="0.04" points="788.34,-2388.09 791.84,-2398.09 795.34,-2388.09 788.34,-2388.09"/>
<text text-anchor="middle" x="706.34" y="-1298.71" font-family="Times,serif" font-size="14.00">sodium&#45;hydroxide*1040</text>
</g>
<!-- 8,3 (Nylon mk2)&#45;&gt;4,1 (item=filtration&#45;media Filtration Media) -->
<g id="edge36" class="edge">
<title>8,3 (Nylon mk2)&#45;&gt;4,1 (item=filtration&#45;media Filtration Media)</title>
<path fill="none" stroke="black" stroke-width="0.54" d="M799.94,-201.81C890.44,-405.09 1711.75,-2249.79 1822.4,-2498.31"/>
<polygon fill="black" stroke="black" stroke-width="0.54" points="1819.32,-2500 1826.59,-2507.72 1825.72,-2497.16 1819.32,-2500"/>
<text text-anchor="middle" x="1221.17" y="-1353.86" font-family="Times,serif" font-size="14.00">sodium&#45;hydroxide*15200</text>
</g>
<!-- 9,5 (Niobium complex 2) -->
<g id="node9" class="node">
<title>9,5 (Niobium complex 2)</title>
<ellipse fill="none" stroke="black" cx="2613.98" cy="-775.69" rx="124.58" ry="18"/>
<text text-anchor="middle" x="2613.98" y="-771.99" font-family="Times,serif" font-size="14.00">9,5 (Niobium complex 2)</text>
</g>
<!-- 9,5 (Niobium complex 2)&#45;&gt;&#45;4,&#45;13 (Carbon activationer) -->
<g id="edge31" class="edge">
<title>9,5 (Niobium complex 2)&#45;&gt;&#45;4,&#45;13 (Carbon activationer)</title>
<path fill="none" stroke="black" stroke-width="0.4" d="M2583.47,-758.07C2408.92,-657.3 1537.74,-154.32 1341.11,-40.79"/>
<polygon fill="black" stroke="black" stroke-width="0.4" points="1342.67,-37.65 1332.26,-35.68 1339.17,-43.71 1342.67,-37.65"/>
<text text-anchor="middle" x="1872.29" y="-403.23" font-family="Times,serif" font-size="14.00">sodium&#45;hydroxide*11120</text>
</g>
<!-- 9,5 (Niobium complex 2)&#45;&gt;0,0 (LE BUS) -->
<g id="edge18" class="edge">
<title>9,5 (Niobium complex 2)&#45;&gt;0,0 (LE BUS)</title>
<path fill="none" stroke="black" stroke-width="0.18" d="M2600.78,-793.86C2473.83,-968.59 1470.78,-2349.17 1320.46,-2556.08"/>
<polygon fill="black" stroke="black" stroke-width="0.18" points="1317.56,-2554.11 1314.51,-2564.26 1323.22,-2558.22 1317.56,-2554.11"/>
<text text-anchor="middle" x="1875.12" y="-1678.77" font-family="Times,serif" font-size="14.00">sodium&#45;hydroxide*5120</text>
</g>
<!-- 9,5 (Niobium complex 2)&#45;&gt;4,12 (Molten Glass) -->
<g id="edge33" class="edge">
<title>9,5 (Niobium complex 2)&#45;&gt;4,12 (Molten Glass)</title>
<path fill="none" stroke="black" stroke-width="0.46" d="M2600.85,-757.61C2551.4,-689.56 2376.37,-448.65 2318.01,-368.32"/>
<polygon fill="black" stroke="black" stroke-width="0.46" points="2320.82,-366.23 2312.11,-360.2 2315.16,-370.34 2320.82,-366.23"/>
<text text-anchor="middle" x="2369.43" y="-566.76" font-family="Times,serif" font-size="14.00">sodium&#45;hydroxide*12720</text>
</g>
<!-- 9,5 (Niobium complex 2)&#45;&gt;1,7 (Activated Carbon) -->
<g id="edge39" class="edge">
<title>9,5 (Niobium complex 2)&#45;&gt;1,7 (Activated Carbon)</title>
<path fill="none" stroke="black" stroke-width="0.25" d="M2593.94,-757.64C2487.17,-661.51 1985.61,-209.9 1862.2,-98.78"/>
<polygon fill="black" stroke="black" stroke-width="0.25" points="1864.4,-96.05 1854.63,-91.96 1859.71,-101.25 1864.4,-96.05"/>
<text text-anchor="middle" x="2142.57" y="-432.01" font-family="Times,serif" font-size="14.00">sodium&#45;hydroxide*6960</text>
</g>
<!-- 9,5 (Niobium complex 2)&#45;&gt;4,2 (More fiberboard) -->
<g id="edge10" class="edge">
<title>9,5 (Niobium complex 2)&#45;&gt;4,2 (More fiberboard)</title>
<path fill="none" stroke="black" stroke-width="0.14" d="M2512.8,-765.05C2143.4,-726.23 869.63,-592.35 496.8,-553.16"/>
<polygon fill="black" stroke="black" stroke-width="0.14" points="497.14,-549.68 486.83,-552.12 496.41,-556.64 497.14,-549.68"/>
<text text-anchor="middle" x="1419.3" y="-662.91" font-family="Times,serif" font-size="14.00">sodium&#45;hydroxide*3920</text>
</g>
<!-- 9,5 (Niobium complex 2)&#45;&gt;4,1 (item=filtration&#45;media Filtration Media) -->
<g id="edge42" class="edge">
<title>9,5 (Niobium complex 2)&#45;&gt;4,1 (item=filtration&#45;media Filtration Media)</title>
<path fill="none" stroke="black" stroke-width="0.1" d="M2605.89,-793.87C2529.73,-964.93 1939.77,-2289.99 1846.98,-2498.41"/>
<polygon fill="black" stroke="black" stroke-width="0.1" points="1843.69,-2497.18 1842.82,-2507.74 1850.09,-2500.03 1843.69,-2497.18"/>
<text text-anchor="middle" x="2140.93" y="-1649.94" font-family="Times,serif" font-size="14.00">sodium&#45;hydroxide*2880</text>
</g>
</g>
</svg>
