<?xml version="1.0" encoding="UTF-8" standalone="no"?>
<!DOCTYPE svg PUBLIC "-//W3C//DTD SVG 1.1//EN"
 "http://www.w3.org/Graphics/SVG/1.1/DTD/svg11.dtd">
<!-- Generated by graphviz version 2.43.0 (0)
 -->
<!-- Title: %3 Pages: 1 -->
<svg width="1607pt" height="1227pt"
 viewBox="0.00 0.00 1607.23 1226.87" xmlns="http://www.w3.org/2000/svg" xmlns:xlink="http://www.w3.org/1999/xlink">
<g id="graph0" class="graph" transform="scale(1 1) rotate(0) translate(4 1222.87)">
<title>%3</title>
<polygon fill="white" stroke="transparent" points="-4,4 -4,-1222.87 1603.23,-1222.87 1603.23,4 -4,4"/>
<!-- &#45;1,10 (Iron Plates) -->
<g id="node1" class="node">
<title>&#45;1,10 (Iron Plates)</title>
<ellipse fill="none" stroke="black" cx="891.81" cy="-592.65" rx="94.78" ry="18"/>
<text text-anchor="middle" x="891.81" y="-588.95" font-family="Times,serif" font-size="14.00">&#45;1,10 (Iron Plates)</text>
</g>
<!-- &#45;4,&#45;2 (For Science!) -->
<g id="node2" class="node">
<title>&#45;4,&#45;2 (For Science!)</title>
<ellipse fill="none" stroke="black" cx="1500.44" cy="-592.65" rx="98.58" ry="18"/>
<text text-anchor="middle" x="1500.44" y="-588.95" font-family="Times,serif" font-size="14.00">&#45;4,&#45;2 (For Science!)</text>
</g>
<!-- &#45;1,10 (Iron Plates)&#45;&gt;&#45;4,&#45;2 (For Science!) -->
<g id="edge1" class="edge">
<title>&#45;1,10 (Iron Plates)&#45;&gt;&#45;4,&#45;2 (For Science!)</title>
<path fill="none" stroke="black" stroke-width="0.69" d="M986.91,-592.65C1096.44,-592.65 1276.05,-592.65 1391.22,-592.65"/>
<polygon fill="black" stroke="black" stroke-width="0.69" points="1391.46,-596.15 1401.46,-592.65 1391.46,-589.15 1391.46,-596.15"/>
<text text-anchor="middle" x="1128.56" y="-596.45" font-family="Times,serif" font-size="14.00">iron&#45;plate*10000</text>
</g>
<!-- 2,0 (Sodium Sulfate) -->
<g id="node3" class="node">
<title>2,0 (Sodium Sulfate)</title>
<ellipse fill="none" stroke="black" cx="1438.31" cy="-860.53" rx="106.68" ry="18"/>
<text text-anchor="middle" x="1438.31" y="-856.83" font-family="Times,serif" font-size="14.00">2,0 (Sodium Sulfate)</text>
</g>
<!-- &#45;1,10 (Iron Plates)&#45;&gt;2,0 (Sodium Sulfate) -->
<g id="edge2" class="edge">
<title>&#45;1,10 (Iron Plates)&#45;&gt;2,0 (Sodium Sulfate)</title>
<path fill="none" stroke="black" stroke-width="0.28" d="M926.41,-609.61C1021.84,-656.39 1288.69,-787.19 1394.39,-839"/>
<polygon fill="black" stroke="black" stroke-width="0.28" points="1392.99,-842.21 1403.51,-843.47 1396.07,-835.92 1392.99,-842.21"/>
<text text-anchor="middle" x="1104.4" y="-728.1" font-family="Times,serif" font-size="14.00">iron&#45;plate*4040</text>
</g>
<!-- 0,0 (LE BUS) -->
<g id="node4" class="node">
<title>0,0 (LE BUS)</title>
<ellipse fill="none" stroke="black" cx="1285.82" cy="-1056.52" rx="71.49" ry="18"/>
<text text-anchor="middle" x="1285.82" y="-1052.82" font-family="Times,serif" font-size="14.00">0,0 (LE BUS)</text>
</g>
<!-- &#45;1,10 (Iron Plates)&#45;&gt;0,0 (LE BUS) -->
<g id="edge3" class="edge">
<title>&#45;1,10 (Iron Plates)&#45;&gt;0,0 (LE BUS)</title>
<path fill="none" stroke="black" stroke-width="2.19" d="M907.01,-610.55C967.71,-682.01 1192.85,-947.06 1264.07,-1030.92"/>
<polygon fill="black" stroke="black" stroke-width="2.19" points="1261.52,-1033.32 1270.67,-1038.68 1266.86,-1028.79 1261.52,-1033.32"/>
<text text-anchor="middle" x="1025.04" y="-824.53" font-family="Times,serif" font-size="14.00">iron&#45;plate*31720</text>
</g>
<!-- &#45;7,&#45;4 (Isomer&#39;s Slaughterhouse and Daycare Centre, Bone Meal) -->
<g id="node5" class="node">
<title>&#45;7,&#45;4 (Isomer&#39;s Slaughterhouse and Daycare Centre, Bone Meal)</title>
<ellipse fill="none" stroke="black" cx="869.46" cy="-1200.87" rx="307.35" ry="18"/>
<text text-anchor="middle" x="869.46" y="-1197.17" font-family="Times,serif" font-size="14.00">&#45;7,&#45;4 (Isomer&#39;s Slaughterhouse and Daycare Centre, Bone Meal)</text>
</g>
<!-- &#45;1,10 (Iron Plates)&#45;&gt;&#45;7,&#45;4 (Isomer&#39;s Slaughterhouse and Daycare Centre, Bone Meal) -->
<g id="edge4" class="edge">
<title>&#45;1,10 (Iron Plates)&#45;&gt;&#45;7,&#45;4 (Isomer&#39;s Slaughterhouse and Daycare Centre, Bone Meal)</title>
<path fill="none" stroke="black" stroke-width="0.21" d="M891.14,-610.85C887.96,-697.33 874.39,-1066.85 870.5,-1172.53"/>
<polygon fill="black" stroke="black" stroke-width="0.21" points="867,-1172.61 870.13,-1182.73 873.99,-1172.87 867,-1172.61"/>
<text text-anchor="middle" x="824.82" y="-895.49" font-family="Times,serif" font-size="14.00">iron&#45;plate*3000</text>
</g>
<!-- &#45;1,6 (Flimble&#39;s Slaughterhouse and Daycare Centre, Auog Products) -->
<g id="node6" class="node">
<title>&#45;1,6 (Flimble&#39;s Slaughterhouse and Daycare Centre, Auog Products)</title>
<ellipse fill="none" stroke="black" cx="325.62" cy="-815.94" rx="325.74" ry="18"/>
<text text-anchor="middle" x="325.62" y="-812.24" font-family="Times,serif" font-size="14.00">&#45;1,6 (Flimble&#39;s Slaughterhouse and Daycare Centre, Auog Products)</text>
</g>
<!-- &#45;1,10 (Iron Plates)&#45;&gt;&#45;1,6 (Flimble&#39;s Slaughterhouse and Daycare Centre, Auog Products) -->
<g id="edge5" class="edge">
<title>&#45;1,10 (Iron Plates)&#45;&gt;&#45;1,6 (Flimble&#39;s Slaughterhouse and Daycare Centre, Auog Products)</title>
<path fill="none" stroke="black" stroke-width="0.69" d="M850.63,-608.89C750.37,-648.43 493.5,-749.74 380.44,-794.33"/>
<polygon fill="black" stroke="black" stroke-width="0.69" points="378.94,-791.15 370.92,-798.08 381.51,-797.66 378.94,-791.15"/>
<text text-anchor="middle" x="555.03" y="-705.41" font-family="Times,serif" font-size="14.00">iron&#45;plate*10000</text>
</g>
<!-- 2,5 (Simple Circuits) -->
<g id="node7" class="node">
<title>2,5 (Simple Circuits)</title>
<ellipse fill="none" stroke="black" cx="344.51" cy="-326.39" rx="106.68" ry="18"/>
<text text-anchor="middle" x="344.51" y="-322.69" font-family="Times,serif" font-size="14.00">2,5 (Simple Circuits)</text>
</g>
<!-- &#45;1,10 (Iron Plates)&#45;&gt;2,5 (Simple Circuits) -->
<g id="edge6" class="edge">
<title>&#45;1,10 (Iron Plates)&#45;&gt;2,5 (Simple Circuits)</title>
<path fill="none" stroke="black" stroke-width="0.35" d="M857.16,-575.79C761.7,-529.35 494.99,-399.6 388.87,-347.98"/>
<polygon fill="black" stroke="black" stroke-width="0.35" points="390.24,-344.75 379.71,-343.52 387.18,-351.04 390.24,-344.75"/>
<text text-anchor="middle" x="567.02" y="-465.68" font-family="Times,serif" font-size="14.00">iron&#45;plate*5000</text>
</g>
<!-- 2,14 (Latex) -->
<g id="node8" class="node">
<title>2,14 (Latex)</title>
<ellipse fill="none" stroke="black" cx="492.97" cy="-132.91" rx="66.89" ry="18"/>
<text text-anchor="middle" x="492.97" y="-129.21" font-family="Times,serif" font-size="14.00">2,14 (Latex)</text>
</g>
<!-- &#45;1,10 (Iron Plates)&#45;&gt;2,14 (Latex) -->
<g id="edge7" class="edge">
<title>&#45;1,10 (Iron Plates)&#45;&gt;2,14 (Latex)</title>
<path fill="none" stroke="black" stroke-width="1.73" d="M876.17,-574.63C814.43,-503.45 587.4,-241.76 515.18,-158.52"/>
<polygon fill="black" stroke="black" stroke-width="1.73" points="517.69,-156.07 508.49,-150.81 512.4,-160.66 517.69,-156.07"/>
<text text-anchor="middle" x="635.18" y="-370.37" font-family="Times,serif" font-size="14.00">iron&#45;plate*25000</text>
</g>
<!-- 1,9 (Ammunition) -->
<g id="node9" class="node">
<title>1,9 (Ammunition)</title>
<ellipse fill="none" stroke="black" cx="691.29" cy="-18" rx="91.78" ry="18"/>
<text text-anchor="middle" x="691.29" y="-14.3" font-family="Times,serif" font-size="14.00">1,9 (Ammunition)</text>
</g>
<!-- &#45;1,10 (Iron Plates)&#45;&gt;1,9 (Ammunition) -->
<g id="edge8" class="edge">
<title>&#45;1,10 (Iron Plates)&#45;&gt;1,9 (Ammunition)</title>
<path fill="none" stroke="black" stroke-width="0.42" d="M885.48,-574.5C856.45,-491.32 736.03,-146.22 700.93,-45.63"/>
<polygon fill="black" stroke="black" stroke-width="0.42" points="704.22,-44.44 697.62,-36.15 697.61,-46.75 704.22,-44.44"/>
<text text-anchor="middle" x="737.2" y="-313.87" font-family="Times,serif" font-size="14.00">iron&#45;plate*6080</text>
</g>
<!-- &#45;6,1 (Coke and Coal Dust from Biomass (needs Iron plates)) -->
<g id="node10" class="node">
<title>&#45;6,1 (Coke and Coal Dust from Biomass (needs Iron plates))</title>
<ellipse fill="none" stroke="black" cx="1130.5" cy="-32.78" rx="285.95" ry="18"/>
<text text-anchor="middle" x="1130.5" y="-29.08" font-family="Times,serif" font-size="14.00">&#45;6,1 (Coke and Coal Dust from Biomass (needs Iron plates))</text>
</g>
<!-- &#45;1,10 (Iron Plates)&#45;&gt;&#45;6,1 (Coke and Coal Dust from Biomass (needs Iron plates)) -->
<g id="edge9" class="edge">
<title>&#45;1,10 (Iron Plates)&#45;&gt;&#45;6,1 (Coke and Coal Dust from Biomass (needs Iron plates))</title>
<path fill="none" stroke="black" stroke-width="1.73" d="M899.48,-574.65C934.2,-493.23 1076.72,-158.93 1118.77,-60.3"/>
<polygon fill="black" stroke="black" stroke-width="1.73" points="1122.04,-61.56 1122.74,-50.99 1115.6,-58.81 1122.04,-61.56"/>
<text text-anchor="middle" x="948.63" y="-321.28" font-family="Times,serif" font-size="14.00">iron&#45;plate*25000</text>
</g>
<!-- 3,16 (More Coke) -->
<g id="node11" class="node">
<title>3,16 (More Coke)</title>
<ellipse fill="none" stroke="black" cx="1445" cy="-338.86" rx="90.98" ry="18"/>
<text text-anchor="middle" x="1445" y="-335.16" font-family="Times,serif" font-size="14.00">3,16 (More Coke)</text>
</g>
<!-- &#45;1,10 (Iron Plates)&#45;&gt;3,16 (More Coke) -->
<g id="edge10" class="edge">
<title>&#45;1,10 (Iron Plates)&#45;&gt;3,16 (More Coke)</title>
<path fill="none" stroke="black" stroke-width="1.73" d="M928.1,-576C1025.52,-531.31 1292.57,-408.79 1399.68,-359.65"/>
<polygon fill="black" stroke="black" stroke-width="1.73" points="1401.3,-362.76 1408.93,-355.41 1398.38,-356.4 1401.3,-362.76"/>
<text text-anchor="middle" x="1103.39" y="-471.63" font-family="Times,serif" font-size="14.00">iron&#45;plate*25000</text>
</g>
</g>
</svg>
