<?xml version="1.0" encoding="UTF-8" standalone="no"?>
<!DOCTYPE svg PUBLIC "-//W3C//DTD SVG 1.1//EN"
 "http://www.w3.org/Graphics/SVG/1.1/DTD/svg11.dtd">
<!-- Generated by graphviz version 2.43.0 (0)
 -->
<!-- Title: %3 Pages: 1 -->
<svg width="1093pt" height="838pt"
 viewBox="0.00 0.00 1093.12 837.94" xmlns="http://www.w3.org/2000/svg" xmlns:xlink="http://www.w3.org/1999/xlink">
<g id="graph0" class="graph" transform="scale(1 1) rotate(0) translate(4 833.94)">
<title>%3</title>
<polygon fill="white" stroke="transparent" points="-4,4 -4,-833.94 1089.12,-833.94 1089.12,4 -4,4"/>
<!-- &#45;5,5 (fluid=flue&#45;gas Flue gas) -->
<g id="node1" class="node">
<title>&#45;5,5 (fluid=flue&#45;gas Flue gas)</title>
<ellipse fill="none" stroke="black" cx="145.59" cy="-414.97" rx="145.67" ry="18"/>
<text text-anchor="middle" x="145.59" y="-411.27" font-family="Times,serif" font-size="14.00">&#45;5,5 (fluid=flue&#45;gas Flue gas)</text>
</g>
<!-- 0,6 (Flue Gas Disposal, Syngas From Flue Gas) -->
<g id="node2" class="node">
<title>0,6 (Flue Gas Disposal, Syngas From Flue Gas)</title>
<ellipse fill="none" stroke="black" cx="855.69" cy="-414.97" rx="229.36" ry="18"/>
<text text-anchor="middle" x="855.69" y="-411.27" font-family="Times,serif" font-size="14.00">0,6 (Flue Gas Disposal, Syngas From Flue Gas)</text>
</g>
<!-- &#45;5,5 (fluid=flue&#45;gas Flue gas)&#45;&gt;0,6 (Flue Gas Disposal, Syngas From Flue Gas) -->
<g id="edge1" class="edge">
<title>&#45;5,5 (fluid=flue&#45;gas Flue gas)&#45;&gt;0,6 (Flue Gas Disposal, Syngas From Flue Gas)</title>
<path fill="none" stroke="black" stroke-width="1.34" d="M291.43,-414.97C384.91,-414.97 508.46,-414.97 616.12,-414.97"/>
<polygon fill="black" stroke="black" stroke-width="1.34" points="616.15,-418.47 626.15,-414.97 616.15,-411.47 616.15,-418.47"/>
<text text-anchor="middle" x="375.27" y="-418.77" font-family="Times,serif" font-size="14.00">flue&#45;gas&#45;barrel*37300</text>
</g>
<!-- &#45;2,9 (molten steel) -->
<g id="node3" class="node">
<title>&#45;2,9 (molten steel)</title>
<ellipse fill="none" stroke="black" cx="855.69" cy="-18" rx="95.58" ry="18"/>
<text text-anchor="middle" x="855.69" y="-14.3" font-family="Times,serif" font-size="14.00">&#45;2,9 (molten steel)</text>
</g>
<!-- &#45;2,9 (molten steel)&#45;&gt;0,6 (Flue Gas Disposal, Syngas From Flue Gas) -->
<g id="edge2" class="edge">
<title>&#45;2,9 (molten steel)&#45;&gt;0,6 (Flue Gas Disposal, Syngas From Flue Gas)</title>
<path fill="none" stroke="black" stroke-width="1.4" d="M855.69,-36.09C855.69,-99.12 855.69,-309.43 855.69,-386.42"/>
<polygon fill="black" stroke="black" stroke-width="1.4" points="852.19,-386.78 855.69,-396.78 859.19,-386.78 852.19,-386.78"/>
<text text-anchor="middle" x="777.19" y="-215.05" font-family="Times,serif" font-size="14.00">flue&#45;gas&#45;barrel*38880</text>
</g>
<!-- 0,7 (Coal Gas) -->
<g id="node4" class="node">
<title>0,7 (Coal Gas)</title>
<ellipse fill="none" stroke="black" cx="855.69" cy="-811.94" rx="76.09" ry="18"/>
<text text-anchor="middle" x="855.69" y="-808.24" font-family="Times,serif" font-size="14.00">0,7 (Coal Gas)</text>
</g>
<!-- 0,7 (Coal Gas)&#45;&gt;0,6 (Flue Gas Disposal, Syngas From Flue Gas) -->
<g id="edge3" class="edge">
<title>0,7 (Coal Gas)&#45;&gt;0,6 (Flue Gas Disposal, Syngas From Flue Gas)</title>
<path fill="none" stroke="black" stroke-width="0.27" d="M855.69,-793.85C855.69,-730.82 855.69,-520.51 855.69,-443.52"/>
<polygon fill="black" stroke="black" stroke-width="0.27" points="859.19,-443.17 855.69,-433.17 852.19,-443.17 859.19,-443.17"/>
<text text-anchor="middle" x="781.69" y="-622.49" font-family="Times,serif" font-size="14.00">flue&#45;gas&#45;barrel*7399</text>
</g>
</g>
</svg>
