<?xml version="1.0" encoding="UTF-8" standalone="no"?>
<!DOCTYPE svg PUBLIC "-//W3C//DTD SVG 1.1//EN"
 "http://www.w3.org/Graphics/SVG/1.1/DTD/svg11.dtd">
<!-- Generated by graphviz version 2.43.0 (0)
 -->
<!-- Title: %3 Pages: 1 -->
<svg width="4178pt" height="3815pt"
 viewBox="0.00 0.00 4178.09 3814.52" xmlns="http://www.w3.org/2000/svg" xmlns:xlink="http://www.w3.org/1999/xlink">
<g id="graph0" class="graph" transform="scale(1 1) rotate(0) translate(4 3810.52)">
<title>%3</title>
<polygon fill="white" stroke="transparent" points="-4,4 -4,-3810.52 4174.09,-3810.52 4174.09,4 -4,4"/>
<!-- &#45;4,7 (Powdered Quartz/Salt) -->
<g id="node1" class="node">
<title>&#45;4,7 (Powdered Quartz/Salt)</title>
<ellipse fill="none" stroke="black" cx="348.77" cy="-960.63" rx="139.98" ry="18"/>
<text text-anchor="middle" x="348.77" y="-956.93" font-family="Times,serif" font-size="14.00">&#45;4,7 (Powdered Quartz/Salt)</text>
</g>
<!-- 2,0 (Sodium Sulfate) -->
<g id="node2" class="node">
<title>2,0 (Sodium Sulfate)</title>
<ellipse fill="none" stroke="black" cx="348.77" cy="-2845.89" rx="106.68" ry="18"/>
<text text-anchor="middle" x="348.77" y="-2842.19" font-family="Times,serif" font-size="14.00">2,0 (Sodium Sulfate)</text>
</g>
<!-- &#45;4,7 (Powdered Quartz/Salt)&#45;&gt;2,0 (Sodium Sulfate) -->
<g id="edge1" class="edge">
<title>&#45;4,7 (Powdered Quartz/Salt)&#45;&gt;2,0 (Sodium Sulfate)</title>
<path fill="none" stroke="black" stroke-width="1.49" d="M348.77,-978.68C348.77,-1156.74 348.77,-2596.51 348.77,-2817.47"/>
<polygon fill="black" stroke="black" stroke-width="1.49" points="345.27,-2817.61 348.77,-2827.61 352.27,-2817.61 345.27,-2817.61"/>
<text text-anchor="middle" x="309.27" y="-1901.88" font-family="Times,serif" font-size="14.00">salt*66944</text>
</g>
<!-- 2,7 (Mystery petrochemicals) -->
<g id="node4" class="node">
<title>2,7 (Mystery petrochemicals)</title>
<ellipse fill="none" stroke="black" cx="3614.13" cy="-2845.89" rx="147.57" ry="18"/>
<text text-anchor="middle" x="3614.13" y="-2842.19" font-family="Times,serif" font-size="14.00">2,7 (Mystery petrochemicals)</text>
</g>
<!-- &#45;4,7 (Powdered Quartz/Salt)&#45;&gt;2,7 (Mystery petrochemicals) -->
<g id="edge14" class="edge">
<title>&#45;4,7 (Powdered Quartz/Salt)&#45;&gt;2,7 (Mystery petrochemicals)</title>
<path fill="none" stroke="black" stroke-width="0.34" d="M379.26,-978.24C686.97,-1155.89 3226.64,-2622.17 3574.67,-2823.1"/>
<polygon fill="black" stroke="black" stroke-width="0.34" points="3572.99,-2826.18 3583.4,-2828.15 3576.49,-2820.12 3572.99,-2826.18"/>
<text text-anchor="middle" x="1937.47" y="-1889.47" font-family="Times,serif" font-size="14.00">salt*15184</text>
</g>
<!-- 4,4 (Hydrogen Chloride, item=nylon Nylon/Nylon parts) -->
<g id="node5" class="node">
<title>4,4 (Hydrogen Chloride, item=nylon Nylon/Nylon parts)</title>
<ellipse fill="none" stroke="black" cx="3614.13" cy="-960.63" rx="271.05" ry="18"/>
<text text-anchor="middle" x="3614.13" y="-956.93" font-family="Times,serif" font-size="14.00">4,4 (Hydrogen Chloride, item=nylon Nylon/Nylon parts)</text>
</g>
<!-- &#45;4,7 (Powdered Quartz/Salt)&#45;&gt;4,4 (Hydrogen Chloride, item=nylon Nylon/Nylon parts) -->
<g id="edge10" class="edge">
<title>&#45;4,7 (Powdered Quartz/Salt)&#45;&gt;4,4 (Hydrogen Chloride, item=nylon Nylon/Nylon parts)</title>
<path fill="none" stroke="black" stroke-width="2.23" d="M488.55,-960.63C983.82,-960.63 2661.17,-960.63 3332.73,-960.63"/>
<polygon fill="black" stroke="black" stroke-width="2.23" points="3333.04,-964.13 3343.04,-960.63 3333.04,-957.13 3333.04,-964.13"/>
<text text-anchor="middle" x="1866.64" y="-964.43" font-family="Times,serif" font-size="14.00">salt*100000</text>
</g>
<!-- 1,6 (Sodium Hydroxide, These new bullets are fun, Limestone) -->
<g id="node7" class="node">
<title>1,6 (Sodium Hydroxide, These new bullets are fun, Limestone)</title>
<ellipse fill="none" stroke="black" cx="1981.45" cy="-18" rx="301.65" ry="18"/>
<text text-anchor="middle" x="1981.45" y="-14.3" font-family="Times,serif" font-size="14.00">1,6 (Sodium Hydroxide, These new bullets are fun, Limestone)</text>
</g>
<!-- &#45;4,7 (Powdered Quartz/Salt)&#45;&gt;1,6 (Sodium Hydroxide, These new bullets are fun, Limestone) -->
<g id="edge13" class="edge">
<title>&#45;4,7 (Powdered Quartz/Salt)&#45;&gt;1,6 (Sodium Hydroxide, These new bullets are fun, Limestone)</title>
<path fill="none" stroke="black" stroke-width="1.43" d="M379.21,-943.05C579.96,-827.15 1712.7,-173.16 1941.25,-41.21"/>
<polygon fill="black" stroke="black" stroke-width="1.43" points="1943.32,-44.05 1950.23,-36.02 1939.82,-37.99 1943.32,-44.05"/>
<text text-anchor="middle" x="1120.73" y="-495.93" font-family="Times,serif" font-size="14.00">salt*64000</text>
</g>
<!-- 2,1 (Niobium plates) -->
<g id="node8" class="node">
<title>2,1 (Niobium plates)</title>
<ellipse fill="none" stroke="black" cx="1038.82" cy="-270.58" rx="105.88" ry="18"/>
<text text-anchor="middle" x="1038.82" y="-266.88" font-family="Times,serif" font-size="14.00">2,1 (Niobium plates)</text>
</g>
<!-- &#45;4,7 (Powdered Quartz/Salt)&#45;&gt;2,1 (Niobium plates) -->
<g id="edge11" class="edge">
<title>&#45;4,7 (Powdered Quartz/Salt)&#45;&gt;2,1 (Niobium plates)</title>
<path fill="none" stroke="black" stroke-width="0.16" d="M366.87,-942.53C461.88,-847.52 902.73,-406.66 1013.51,-295.89"/>
<polygon fill="black" stroke="black" stroke-width="0.16" points="1016.31,-298.04 1020.91,-288.49 1011.36,-293.09 1016.31,-298.04"/>
<text text-anchor="middle" x="655.19" y="-623.01" font-family="Times,serif" font-size="14.00">salt*7376</text>
</g>
<!-- &#45;5,2 (Optical fiber) -->
<g id="node13" class="node">
<title>&#45;5,2 (Optical fiber)</title>
<ellipse fill="none" stroke="black" cx="96.19" cy="-1903.26" rx="96.38" ry="18"/>
<text text-anchor="middle" x="96.19" y="-1899.56" font-family="Times,serif" font-size="14.00">&#45;5,2 (Optical fiber)</text>
</g>
<!-- &#45;4,7 (Powdered Quartz/Salt)&#45;&gt;&#45;5,2 (Optical fiber) -->
<g id="edge20" class="edge">
<title>&#45;4,7 (Powdered Quartz/Salt)&#45;&gt;&#45;5,2 (Optical fiber)</title>
<path fill="none" stroke="black" stroke-width="0.56" d="M343.84,-979.04C312.53,-1095.88 141.57,-1733.91 103.64,-1875.44"/>
<polygon fill="black" stroke="black" stroke-width="0.56" points="100.26,-1874.55 101.05,-1885.12 107.02,-1876.36 100.26,-1874.55"/>
<text text-anchor="middle" x="184.24" y="-1431.04" font-family="Times,serif" font-size="14.00">salt*25008</text>
</g>
<!-- 1,8 (A copper mine, Salt) -->
<g id="node3" class="node">
<title>1,8 (A copper mine, Salt)</title>
<ellipse fill="none" stroke="black" cx="3866.71" cy="-1903.26" rx="126.18" ry="18"/>
<text text-anchor="middle" x="3866.71" y="-1899.56" font-family="Times,serif" font-size="14.00">1,8 (A copper mine, Salt)</text>
</g>
<!-- 1,8 (A copper mine, Salt)&#45;&gt;2,0 (Sodium Sulfate) -->
<g id="edge3" class="edge">
<title>1,8 (A copper mine, Salt)&#45;&gt;2,0 (Sodium Sulfate)</title>
<path fill="none" stroke="black" stroke-width="2.79" d="M3807.12,-1919.22C3385.86,-2032.1 860.54,-2708.76 415.68,-2827.96"/>
<polygon fill="black" stroke="black" stroke-width="2.79" points="414.62,-2824.62 405.87,-2830.59 416.43,-2831.38 414.62,-2824.62"/>
<text text-anchor="middle" x="2067.4" y="-2377.39" font-family="Times,serif" font-size="14.00">salt*125120</text>
</g>
<!-- 1,8 (A copper mine, Salt)&#45;&gt;2,7 (Mystery petrochemicals) -->
<g id="edge2" class="edge">
<title>1,8 (A copper mine, Salt)&#45;&gt;2,7 (Mystery petrochemicals)</title>
<path fill="none" stroke="black" stroke-width="2.52" d="M3861.89,-1921.25C3830.88,-2036.96 3659.6,-2676.2 3621.6,-2818.01"/>
<polygon fill="black" stroke="black" stroke-width="2.52" points="3618.21,-2817.14 3619,-2827.71 3624.97,-2818.96 3618.21,-2817.14"/>
<text text-anchor="middle" x="3697.74" y="-2373.43" font-family="Times,serif" font-size="14.00">salt*113240</text>
</g>
<!-- 1,8 (A copper mine, Salt)&#45;&gt;4,4 (Hydrogen Chloride, item=nylon Nylon/Nylon parts) -->
<g id="edge4" class="edge">
<title>1,8 (A copper mine, Salt)&#45;&gt;4,4 (Hydrogen Chloride, item=nylon Nylon/Nylon parts)</title>
<path fill="none" stroke="black" stroke-width="3.54" d="M3861.89,-1885.27C3830.88,-1769.56 3659.6,-1130.32 3621.6,-988.5"/>
<polygon fill="black" stroke="black" stroke-width="3.54" points="3624.97,-987.56 3619,-978.81 3618.21,-989.37 3624.97,-987.56"/>
<text text-anchor="middle" x="3697.74" y="-1440.69" font-family="Times,serif" font-size="14.00">salt*158760</text>
</g>
<!-- 1,8 (A copper mine, Salt)&#45;&gt;1,6 (Sodium Hydroxide, These new bullets are fun, Limestone) -->
<g id="edge9" class="edge">
<title>1,8 (A copper mine, Salt)&#45;&gt;1,6 (Sodium Hydroxide, These new bullets are fun, Limestone)</title>
<path fill="none" stroke="black" stroke-width="4.81" d="M3848.65,-1885.2C3669.71,-1706.26 2216.42,-252.97 2006.65,-43.2"/>
<polygon fill="black" stroke="black" stroke-width="4.81" points="2009.49,-40.09 1999.44,-35.99 2003.54,-46.04 2009.49,-40.09"/>
<text text-anchor="middle" x="2883.65" y="-968" font-family="Times,serif" font-size="14.00">salt*215723</text>
</g>
<!-- 1,8 (A copper mine, Salt)&#45;&gt;2,1 (Niobium plates) -->
<g id="edge6" class="edge">
<title>1,8 (A copper mine, Salt)&#45;&gt;2,1 (Niobium plates)</title>
<path fill="none" stroke="black" stroke-width="1.02" d="M3836.39,-1885.75C3554.59,-1723.05 1396.17,-476.89 1077.96,-293.17"/>
<polygon fill="black" stroke="black" stroke-width="1.02" points="1079.49,-290.02 1069.08,-288.05 1075.99,-296.08 1079.49,-290.02"/>
<text text-anchor="middle" x="2417.67" y="-1093.26" font-family="Times,serif" font-size="14.00">salt*45960</text>
</g>
<!-- &#45;6,&#45;1 (item=agar Agar) -->
<g id="node10" class="node">
<title>&#45;6,&#45;1 (item=agar Agar)</title>
<ellipse fill="none" stroke="black" cx="4054.4" cy="-1903.26" rx="115.88" ry="18"/>
<text text-anchor="middle" x="4054.4" y="-1899.56" font-family="Times,serif" font-size="14.00">&#45;6,&#45;1 (item=agar Agar)</text>
</g>
<!-- 1,8 (A copper mine, Salt)&#45;&gt;&#45;6,&#45;1 (item=agar Agar) -->
<g id="edge8" class="edge">
<title>1,8 (A copper mine, Salt)&#45;&gt;&#45;6,&#45;1 (item=agar Agar)</title>
<path fill="none" stroke="black" stroke-width="1.01" d="M3992.94,-1903.26C3993.01,-1903.26 3993.07,-1903.26 3993.14,-1903.26"/>
<polygon fill="black" stroke="black" stroke-width="1.01" points="3983.34,-1906.76 3993.34,-1903.26 3983.34,-1899.76 3983.34,-1906.76"/>
<text text-anchor="middle" x="4032.54" y="-1907.06" font-family="Times,serif" font-size="14.00">salt*45520</text>
</g>
<!-- 1,&#45;1 (fluid=molten&#45;glass Glass, When space, make quartz separate with regular priority, Quartz) -->
<g id="node12" class="node">
<title>1,&#45;1 (fluid=molten&#45;glass Glass, When space, make quartz separate with regular priority, Quartz)</title>
<ellipse fill="none" stroke="black" cx="1981.45" cy="-3788.52" rx="457.62" ry="18"/>
<text text-anchor="middle" x="1981.45" y="-3784.82" font-family="Times,serif" font-size="14.00">1,&#45;1 (fluid=molten&#45;glass Glass, When space, make quartz separate with regular priority, Quartz)</text>
</g>
<!-- 1,8 (A copper mine, Salt)&#45;&gt;1,&#45;1 (fluid=molten&#45;glass Glass, When space, make quartz separate with regular priority, Quartz) -->
<g id="edge17" class="edge">
<title>1,8 (A copper mine, Salt)&#45;&gt;1,&#45;1 (fluid=molten&#45;glass Glass, When space, make quartz separate with regular priority, Quartz)</title>
<path fill="none" stroke="black" stroke-width="1.18" d="M3848.65,-1921.31C3669.71,-2100.26 2216.42,-3553.54 2006.65,-3763.32"/>
<polygon fill="black" stroke="black" stroke-width="1.18" points="2004.04,-3760.98 1999.44,-3770.52 2008.99,-3765.93 2004.04,-3760.98"/>
<text text-anchor="middle" x="2888.15" y="-2846.12" font-family="Times,serif" font-size="14.00">salt*52760</text>
</g>
<!-- 1,8 (A copper mine, Salt)&#45;&gt;&#45;5,2 (Optical fiber) -->
<g id="edge21" class="edge">
<title>1,8 (A copper mine, Salt)&#45;&gt;&#45;5,2 (Optical fiber)</title>
<path fill="none" stroke="black" stroke-width="1.17" d="M3740.45,-1903.26C3158.57,-1903.26 740.93,-1903.26 202.71,-1903.26"/>
<polygon fill="black" stroke="black" stroke-width="1.17" points="202.62,-1899.76 192.62,-1903.26 202.62,-1906.76 202.62,-1899.76"/>
<text text-anchor="middle" x="1932.08" y="-1907.06" font-family="Times,serif" font-size="14.00">salt*52640</text>
</g>
<!-- 0,5 (Titanium Processing (Grade 4)) -->
<g id="node6" class="node">
<title>0,5 (Titanium Processing (Grade 4))</title>
<ellipse fill="none" stroke="black" cx="2924.08" cy="-270.58" rx="176.57" ry="18"/>
<text text-anchor="middle" x="2924.08" y="-266.88" font-family="Times,serif" font-size="14.00">0,5 (Titanium Processing (Grade 4))</text>
</g>
<!-- 0,5 (Titanium Processing (Grade 4))&#45;&gt;4,4 (Hydrogen Chloride, item=nylon Nylon/Nylon parts) -->
<g id="edge19" class="edge">
<title>0,5 (Titanium Processing (Grade 4))&#45;&gt;4,4 (Hydrogen Chloride, item=nylon Nylon/Nylon parts)</title>
<path fill="none" stroke="black" stroke-width="0.45" d="M2942.18,-288.68C3037.18,-383.68 3477.96,-824.46 3588.79,-935.29"/>
<polygon fill="black" stroke="black" stroke-width="0.45" points="3586.35,-937.8 3595.9,-942.4 3591.3,-932.85 3586.35,-937.8"/>
<text text-anchor="middle" x="3225.99" y="-615.78" font-family="Times,serif" font-size="14.00">salt*20000</text>
</g>
<!-- 0,5 (Titanium Processing (Grade 4))&#45;&gt;1,6 (Sodium Hydroxide, These new bullets are fun, Limestone) -->
<g id="edge5" class="edge">
<title>0,5 (Titanium Processing (Grade 4))&#45;&gt;1,6 (Sodium Hydroxide, These new bullets are fun, Limestone)</title>
<path fill="none" stroke="black" stroke-width="0.18" d="M2861.13,-253.71C2693.65,-208.83 2237.56,-86.62 2056.75,-38.18"/>
<polygon fill="black" stroke="black" stroke-width="0.18" points="2057.62,-34.79 2047.05,-35.58 2055.8,-41.55 2057.62,-34.79"/>
<text text-anchor="middle" x="2423.94" y="-149.74" font-family="Times,serif" font-size="14.00">salt*8000</text>
</g>
<!-- 0,0 (LE BUS) -->
<g id="node9" class="node">
<title>0,0 (LE BUS)</title>
<ellipse fill="none" stroke="black" cx="2924.08" cy="-3535.94" rx="71.49" ry="18"/>
<text text-anchor="middle" x="2924.08" y="-3532.24" font-family="Times,serif" font-size="14.00">0,0 (LE BUS)</text>
</g>
<!-- 0,0 (LE BUS)&#45;&gt;2,7 (Mystery petrochemicals) -->
<g id="edge12" class="edge">
<title>0,0 (LE BUS)&#45;&gt;2,7 (Mystery petrochemicals)</title>
<path fill="none" stroke="black" stroke-width="0.22" d="M2941.83,-3518.19C3036.17,-3423.84 3478.65,-2981.37 3589.1,-2870.92"/>
<polygon fill="black" stroke="black" stroke-width="0.22" points="3591.58,-2873.38 3596.18,-2863.84 3586.63,-2868.43 3591.58,-2873.38"/>
<text text-anchor="middle" x="3225.97" y="-3198.35" font-family="Times,serif" font-size="14.00">salt*10080</text>
</g>
<!-- 0,0 (LE BUS)&#45;&gt;4,4 (Hydrogen Chloride, item=nylon Nylon/Nylon parts) -->
<g id="edge7" class="edge">
<title>0,0 (LE BUS)&#45;&gt;4,4 (Hydrogen Chloride, item=nylon Nylon/Nylon parts)</title>
<path fill="none" stroke="black" stroke-width="0.34" d="M2928.95,-3517.77C2986.48,-3303.05 3535.76,-1253.13 3606.61,-988.68"/>
<polygon fill="black" stroke="black" stroke-width="0.34" points="3610.08,-989.29 3609.28,-978.72 3603.31,-987.47 3610.08,-989.29"/>
<text text-anchor="middle" x="3228.28" y="-2257.02" font-family="Times,serif" font-size="14.00">salt*15163</text>
</g>
<!-- 0,0 (LE BUS)&#45;&gt;1,6 (Sodium Hydroxide, These new bullets are fun, Limestone) -->
<g id="edge23" class="edge">
<title>0,0 (LE BUS)&#45;&gt;1,6 (Sodium Hydroxide, These new bullets are fun, Limestone)</title>
<path fill="none" stroke="black" stroke-width="0.11" d="M2919.23,-3517.85C2850.55,-3261.52 2073.69,-362.26 1988.94,-45.95"/>
<polygon fill="black" stroke="black" stroke-width="0.11" points="1992.29,-44.93 1986.32,-36.18 1985.53,-46.75 1992.29,-44.93"/>
<text text-anchor="middle" x="2419.09" y="-1785.7" font-family="Times,serif" font-size="14.00">salt*5065</text>
</g>
<!-- 0,0 (LE BUS)&#45;&gt;2,1 (Niobium plates) -->
<g id="edge25" class="edge">
<title>0,0 (LE BUS)&#45;&gt;2,1 (Niobium plates)</title>
<path fill="none" stroke="black" stroke-width="0.27" d="M2913.71,-3517.98C2772.13,-3272.75 1225.98,-594.74 1054.29,-297.36"/>
<polygon fill="black" stroke="black" stroke-width="0.27" points="1057.21,-295.43 1049.18,-288.52 1051.15,-298.93 1057.21,-295.43"/>
<text text-anchor="middle" x="2023.5" y="-1911.47" font-family="Times,serif" font-size="14.00">salt*12096</text>
</g>
<!-- 0,0 (LE BUS)&#45;&gt;1,&#45;1 (fluid=molten&#45;glass Glass, When space, make quartz separate with regular priority, Quartz) -->
<g id="edge28" class="edge">
<title>0,0 (LE BUS)&#45;&gt;1,&#45;1 (fluid=molten&#45;glass Glass, When space, make quartz separate with regular priority, Quartz)</title>
<path fill="none" stroke="black" stroke-width="0.11" d="M2875.06,-3549.08C2720.79,-3590.41 2244.51,-3718.03 2057.73,-3768.08"/>
<polygon fill="black" stroke="black" stroke-width="0.11" points="2056.73,-3764.72 2047.98,-3770.69 2058.55,-3771.48 2056.73,-3764.72"/>
<text text-anchor="middle" x="2431.39" y="-3662.38" font-family="Times,serif" font-size="14.00">salt*5084</text>
</g>
<!-- 0,0 (LE BUS)&#45;&gt;&#45;5,2 (Optical fiber) -->
<g id="edge18" class="edge">
<title>0,0 (LE BUS)&#45;&gt;&#45;5,2 (Optical fiber)</title>
<path fill="none" stroke="black" stroke-width="0.06" d="M2895.17,-3519.25C2619.12,-3359.87 452.36,-2108.89 134.95,-1925.63"/>
<polygon fill="black" stroke="black" stroke-width="0.06" points="136.51,-1922.5 126.1,-1920.53 133.01,-1928.56 136.51,-1922.5"/>
<text text-anchor="middle" x="1480.06" y="-2726.24" font-family="Times,serif" font-size="14.00">salt*2688</text>
</g>
<!-- 3,5 (item=molybdenum&#45;plate Molybdenum plate) -->
<g id="node11" class="node">
<title>3,5 (item=molybdenum&#45;plate Molybdenum plate)</title>
<ellipse fill="none" stroke="black" cx="1038.82" cy="-3535.94" rx="239.66" ry="18"/>
<text text-anchor="middle" x="1038.82" y="-3532.24" font-family="Times,serif" font-size="14.00">3,5 (item=molybdenum&#45;plate Molybdenum plate)</text>
</g>
<!-- 3,5 (item=molybdenum&#45;plate Molybdenum plate)&#45;&gt;2,0 (Sodium Sulfate) -->
<g id="edge16" class="edge">
<title>3,5 (item=molybdenum&#45;plate Molybdenum plate)&#45;&gt;2,0 (Sodium Sulfate)</title>
<path fill="none" stroke="black" stroke-width="0.41" d="M1020.72,-3517.84C925.71,-3422.83 484.86,-2981.97 374.08,-2871.2"/>
<polygon fill="black" stroke="black" stroke-width="0.41" points="376.23,-2868.4 366.68,-2863.8 371.28,-2873.35 376.23,-2868.4"/>
<text text-anchor="middle" x="657.9" y="-3198.32" font-family="Times,serif" font-size="14.00">salt*18432</text>
</g>
<!-- 3,5 (item=molybdenum&#45;plate Molybdenum plate)&#45;&gt;2,7 (Mystery petrochemicals) -->
<g id="edge26" class="edge">
<title>3,5 (item=molybdenum&#45;plate Molybdenum plate)&#45;&gt;2,7 (Mystery petrochemicals)</title>
<path fill="none" stroke="black" stroke-width="0.34" d="M1103.77,-3518.54C1459.76,-3423.15 3171.75,-2964.42 3543.01,-2864.94"/>
<polygon fill="black" stroke="black" stroke-width="0.34" points="3544.07,-2868.28 3552.82,-2862.31 3542.26,-2861.52 3544.07,-2868.28"/>
<text text-anchor="middle" x="2283.89" y="-3195.54" font-family="Times,serif" font-size="14.00">salt*15136</text>
</g>
<!-- 3,5 (item=molybdenum&#45;plate Molybdenum plate)&#45;&gt;4,4 (Hydrogen Chloride, item=nylon Nylon/Nylon parts) -->
<g id="edge15" class="edge">
<title>3,5 (item=molybdenum&#45;plate Molybdenum plate)&#45;&gt;4,4 (Hydrogen Chloride, item=nylon Nylon/Nylon parts)</title>
<path fill="none" stroke="black" stroke-width="0.51" d="M1056.99,-3517.77C1272.45,-3302.31 3335.86,-1238.9 3588.77,-985.99"/>
<polygon fill="black" stroke="black" stroke-width="0.51" points="3591.44,-988.27 3596.04,-978.72 3586.49,-983.32 3591.44,-988.27"/>
<text text-anchor="middle" x="2283.38" y="-2255.68" font-family="Times,serif" font-size="14.00">salt*22688</text>
</g>
<!-- 3,5 (item=molybdenum&#45;plate Molybdenum plate)&#45;&gt;1,6 (Sodium Hydroxide, These new bullets are fun, Limestone) -->
<g id="edge24" class="edge">
<title>3,5 (item=molybdenum&#45;plate Molybdenum plate)&#45;&gt;1,6 (Sodium Hydroxide, These new bullets are fun, Limestone)</title>
<path fill="none" stroke="black" stroke-width="0.34" d="M1043.67,-3517.85C1112.35,-3261.52 1889.21,-362.26 1973.96,-45.95"/>
<polygon fill="black" stroke="black" stroke-width="0.34" points="1977.37,-46.75 1976.58,-36.18 1970.61,-44.93 1977.37,-46.75"/>
<text text-anchor="middle" x="1469.31" y="-1785.7" font-family="Times,serif" font-size="14.00">salt*15152</text>
</g>
<!-- 3,5 (item=molybdenum&#45;plate Molybdenum plate)&#45;&gt;2,1 (Niobium plates) -->
<g id="edge27" class="edge">
<title>3,5 (item=molybdenum&#45;plate Molybdenum plate)&#45;&gt;2,1 (Niobium plates)</title>
<path fill="none" stroke="black" stroke-width="0.09" d="M1038.82,-3517.58C1038.82,-3270.35 1038.82,-605.07 1038.82,-299.14"/>
<polygon fill="black" stroke="black" stroke-width="0.09" points="1042.32,-298.89 1038.82,-288.89 1035.32,-298.89 1042.32,-298.89"/>
<text text-anchor="middle" x="1003.82" y="-1912.16" font-family="Times,serif" font-size="14.00">salt*4000</text>
</g>
<!-- 3,5 (item=molybdenum&#45;plate Molybdenum plate)&#45;&gt;&#45;5,2 (Optical fiber) -->
<g id="edge22" class="edge">
<title>3,5 (item=molybdenum&#45;plate Molybdenum plate)&#45;&gt;&#45;5,2 (Optical fiber)</title>
<path fill="none" stroke="black" stroke-width="0.34" d="M1028.4,-3517.88C933.87,-3354.15 225.73,-2127.63 111.68,-1930.08"/>
<polygon fill="black" stroke="black" stroke-width="0.34" points="114.59,-1928.12 106.56,-1921.21 108.53,-1931.62 114.59,-1928.12"/>
<text text-anchor="middle" x="530.54" y="-2727.78" font-family="Times,serif" font-size="14.00">salt*15040</text>
</g>
</g>
</svg>
