<?xml version="1.0" encoding="UTF-8" standalone="no"?>
<!DOCTYPE svg PUBLIC "-//W3C//DTD SVG 1.1//EN"
 "http://www.w3.org/Graphics/SVG/1.1/DTD/svg11.dtd">
<!-- Generated by graphviz version 2.43.0 (0)
 -->
<!-- Title: %3 Pages: 1 -->
<svg width="3025pt" height="2712pt"
 viewBox="0.00 0.00 3025.20 2711.82" xmlns="http://www.w3.org/2000/svg" xmlns:xlink="http://www.w3.org/1999/xlink">
<g id="graph0" class="graph" transform="scale(1 1) rotate(0) translate(4 2707.82)">
<title>%3</title>
<polygon fill="white" stroke="transparent" points="-4,4 -4,-2707.82 3021.2,-2707.82 3021.2,4 -4,4"/>
<!-- 8,3 (Nylon mk2) -->
<g id="node1" class="node">
<title>8,3 (Nylon mk2)</title>
<ellipse fill="none" stroke="black" cx="1842.3" cy="-2685.82" rx="85.29" ry="18"/>
<text text-anchor="middle" x="1842.3" y="-2682.12" font-family="Times,serif" font-size="14.00">8,3 (Nylon mk2)</text>
</g>
<!-- 1,7 (Activated Carbon) -->
<g id="node2" class="node">
<title>1,7 (Activated Carbon)</title>
<ellipse fill="none" stroke="black" cx="1233.39" cy="-2685.82" rx="115.88" ry="18"/>
<text text-anchor="middle" x="1233.39" y="-2682.12" font-family="Times,serif" font-size="14.00">1,7 (Activated Carbon)</text>
</g>
<!-- 8,3 (Nylon mk2)&#45;&gt;1,7 (Activated Carbon) -->
<g id="edge1" class="edge">
<title>8,3 (Nylon mk2)&#45;&gt;1,7 (Activated Carbon)</title>
<path fill="none" stroke="black" stroke-width="3.71" d="M1756.99,-2685.82C1653.63,-2685.82 1478.58,-2685.82 1359.6,-2685.82"/>
<polygon fill="black" stroke="black" stroke-width="3.71" points="1359.34,-2682.32 1349.34,-2685.82 1359.34,-2689.32 1359.34,-2682.32"/>
<text text-anchor="middle" x="1463.8" y="-2689.62" font-family="Times,serif" font-size="14.00">sodium&#45;hydroxide*130160</text>
</g>
<!-- 2,4 (Formica and Phenolic boards) -->
<g id="node3" class="node">
<title>2,4 (Formica and Phenolic boards)</title>
<ellipse fill="none" stroke="black" cx="169.63" cy="-1351.91" rx="169.77" ry="18"/>
<text text-anchor="middle" x="169.63" y="-1348.21" font-family="Times,serif" font-size="14.00">2,4 (Formica and Phenolic boards)</text>
</g>
<!-- 8,3 (Nylon mk2)&#45;&gt;2,4 (Formica and Phenolic boards) -->
<g id="edge2" class="edge">
<title>8,3 (Nylon mk2)&#45;&gt;2,4 (Formica and Phenolic boards)</title>
<path fill="none" stroke="black" stroke-width="0.95" d="M1820.23,-2668.22C1639.91,-2524.41 410.16,-1543.72 200.12,-1376.22"/>
<polygon fill="black" stroke="black" stroke-width="0.95" points="202.25,-1373.44 192.25,-1369.94 197.89,-1378.91 202.25,-1373.44"/>
<text text-anchor="middle" x="920.18" y="-2026.02" font-family="Times,serif" font-size="14.00">sodium&#45;hydroxide*33280</text>
</g>
<!-- 7,1 (item=aerogel item=clean&#45;rf&#45;gel Aerogel) -->
<g id="node5" class="node">
<title>7,1 (item=aerogel item=clean&#45;rf&#45;gel Aerogel)</title>
<ellipse fill="none" stroke="black" cx="1842.3" cy="-18" rx="220.96" ry="18"/>
<text text-anchor="middle" x="1842.3" y="-14.3" font-family="Times,serif" font-size="14.00">7,1 (item=aerogel item=clean&#45;rf&#45;gel Aerogel)</text>
</g>
<!-- 8,3 (Nylon mk2)&#45;&gt;7,1 (item=aerogel item=clean&#45;rf&#45;gel Aerogel) -->
<g id="edge16" class="edge">
<title>8,3 (Nylon mk2)&#45;&gt;7,1 (item=aerogel item=clean&#45;rf&#45;gel Aerogel)</title>
<path fill="none" stroke="black" stroke-width="0.66" d="M1842.3,-2667.72C1842.3,-2449.02 1842.3,-317.23 1842.3,-46.27"/>
<polygon fill="black" stroke="black" stroke-width="0.66" points="1845.8,-46.09 1842.3,-36.09 1838.8,-46.09 1845.8,-46.09"/>
<text text-anchor="middle" x="1752.3" y="-1360.8" font-family="Times,serif" font-size="14.00">sodium&#45;hydroxide*23200</text>
</g>
<!-- 4,1 (item=filtration&#45;media Filtration Media) -->
<g id="node6" class="node">
<title>4,1 (item=filtration&#45;media Filtration Media)</title>
<ellipse fill="none" stroke="black" cx="684.78" cy="-282.2" rx="214.46" ry="18"/>
<text text-anchor="middle" x="684.78" y="-278.5" font-family="Times,serif" font-size="14.00">4,1 (item=filtration&#45;media Filtration Media)</text>
</g>
<!-- 8,3 (Nylon mk2)&#45;&gt;4,1 (item=filtration&#45;media Filtration Media) -->
<g id="edge4" class="edge">
<title>8,3 (Nylon mk2)&#45;&gt;4,1 (item=filtration&#45;media Filtration Media)</title>
<path fill="none" stroke="black" stroke-width="1.16" d="M1833.65,-2667.85C1734.74,-2462.45 818.73,-560.35 697.91,-309.47"/>
<polygon fill="black" stroke="black" stroke-width="1.16" points="700.99,-307.79 693.5,-300.3 694.69,-310.83 700.99,-307.79"/>
<text text-anchor="middle" x="1175.78" y="-1492.46" font-family="Times,serif" font-size="14.00">sodium&#45;hydroxide*40560</text>
</g>
<!-- 4,2 (More fiberboard) -->
<g id="node8" class="node">
<title>4,2 (More fiberboard)</title>
<ellipse fill="none" stroke="black" cx="2906.06" cy="-1351.91" rx="111.28" ry="18"/>
<text text-anchor="middle" x="2906.06" y="-1348.21" font-family="Times,serif" font-size="14.00">4,2 (More fiberboard)</text>
</g>
<!-- 8,3 (Nylon mk2)&#45;&gt;4,2 (More fiberboard) -->
<g id="edge15" class="edge">
<title>8,3 (Nylon mk2)&#45;&gt;4,2 (More fiberboard)</title>
<path fill="none" stroke="black" stroke-width="0.95" d="M1856.54,-2667.97C1971.46,-2523.86 2747.02,-1551.33 2885.06,-1378.23"/>
<polygon fill="black" stroke="black" stroke-width="0.95" points="2888.01,-1380.16 2891.5,-1370.16 2882.53,-1375.79 2888.01,-1380.16"/>
<text text-anchor="middle" x="2280.8" y="-2026.9" font-family="Times,serif" font-size="14.00">sodium&#45;hydroxide*33520</text>
</g>
<!-- 4,12 (Molten Glass) -->
<g id="node9" class="node">
<title>4,12 (Molten Glass)</title>
<ellipse fill="none" stroke="black" cx="684.78" cy="-2421.62" rx="102.08" ry="18"/>
<text text-anchor="middle" x="684.78" y="-2417.92" font-family="Times,serif" font-size="14.00">4,12 (Molten Glass)</text>
</g>
<!-- 8,3 (Nylon mk2)&#45;&gt;4,12 (Molten Glass) -->
<g id="edge13" class="edge">
<title>8,3 (Nylon mk2)&#45;&gt;4,12 (Molten Glass)</title>
<path fill="none" stroke="black" stroke-width="1.09" d="M1784.11,-2672.53C1590.73,-2628.4 969.85,-2486.68 757.1,-2438.13"/>
<polygon fill="black" stroke="black" stroke-width="1.09" points="757.81,-2434.7 747.29,-2435.88 756.26,-2441.52 757.81,-2434.7"/>
<text text-anchor="middle" x="1180.61" y="-2559.13" font-family="Times,serif" font-size="14.00">sodium&#45;hydroxide*38160</text>
</g>
<!-- &#45;1,7 (Rayon) -->
<g id="node11" class="node">
<title>&#45;1,7 (Rayon)</title>
<ellipse fill="none" stroke="black" cx="2390.91" cy="-2421.62" rx="66.89" ry="18"/>
<text text-anchor="middle" x="2390.91" y="-2417.92" font-family="Times,serif" font-size="14.00">&#45;1,7 (Rayon)</text>
</g>
<!-- 8,3 (Nylon mk2)&#45;&gt;&#45;1,7 (Rayon) -->
<g id="edge22" class="edge">
<title>8,3 (Nylon mk2)&#45;&gt;&#45;1,7 (Rayon)</title>
<path fill="none" stroke="black" stroke-width="3.18" d="M1876.62,-2669.29C1972.71,-2623.01 2244.25,-2492.25 2348.98,-2441.81"/>
<polygon fill="black" stroke="black" stroke-width="3.18" points="2350.51,-2444.96 2358,-2437.47 2347.47,-2438.65 2350.51,-2444.96"/>
<text text-anchor="middle" x="2018.3" y="-2559.35" font-family="Times,serif" font-size="14.00">sodium&#45;hydroxide*111760</text>
</g>
<!-- 1,8 (HCl, Salt) -->
<g id="node4" class="node">
<title>1,8 (HCl, Salt)</title>
<ellipse fill="none" stroke="black" cx="1233.39" cy="-18" rx="77.19" ry="18"/>
<text text-anchor="middle" x="1233.39" y="-14.3" font-family="Times,serif" font-size="14.00">1,8 (HCl, Salt)</text>
</g>
<!-- 1,8 (HCl, Salt)&#45;&gt;1,7 (Activated Carbon) -->
<g id="edge5" class="edge">
<title>1,8 (HCl, Salt)&#45;&gt;1,7 (Activated Carbon)</title>
<path fill="none" stroke="black" stroke-width="0.83" d="M1233.39,-36.1C1233.39,-254.8 1233.39,-2386.59 1233.39,-2657.54"/>
<polygon fill="black" stroke="black" stroke-width="0.83" points="1229.89,-2657.73 1233.39,-2667.73 1236.89,-2657.73 1229.89,-2657.73"/>
<text text-anchor="middle" x="1143.39" y="-1350.62" font-family="Times,serif" font-size="14.00">sodium&#45;hydroxide*29280</text>
</g>
<!-- 1,8 (HCl, Salt)&#45;&gt;2,4 (Formica and Phenolic boards) -->
<g id="edge14" class="edge">
<title>1,8 (HCl, Salt)&#45;&gt;2,4 (Formica and Phenolic boards)</title>
<path fill="none" stroke="black" stroke-width="0.41" d="M1219.16,-35.85C1104.24,-179.96 328.67,-1152.48 190.63,-1325.58"/>
<polygon fill="black" stroke="black" stroke-width="0.41" points="187.69,-1323.66 184.19,-1333.66 193.16,-1328.02 187.69,-1323.66"/>
<text text-anchor="middle" x="614.89" y="-684.51" font-family="Times,serif" font-size="14.00">sodium&#45;hydroxide*14320</text>
</g>
<!-- 1,8 (HCl, Salt)&#45;&gt;7,1 (item=aerogel item=clean&#45;rf&#45;gel Aerogel) -->
<g id="edge3" class="edge">
<title>1,8 (HCl, Salt)&#45;&gt;7,1 (item=aerogel item=clean&#45;rf&#45;gel Aerogel)</title>
<path fill="none" stroke="black" stroke-width="0.6" d="M1310.82,-18C1386.3,-18 1504.89,-18 1610.91,-18"/>
<polygon fill="black" stroke="black" stroke-width="0.6" points="1611.13,-21.5 1621.13,-18 1611.13,-14.5 1611.13,-21.5"/>
<text text-anchor="middle" x="1505.86" y="-6.8" font-family="Times,serif" font-size="14.00">sodium&#45;hydroxide*21056</text>
</g>
<!-- 1,8 (HCl, Salt)&#45;&gt;4,1 (item=filtration&#45;media Filtration Media) -->
<g id="edge29" class="edge">
<title>1,8 (HCl, Salt)&#45;&gt;4,1 (item=filtration&#45;media Filtration Media)</title>
<path fill="none" stroke="black" stroke-width="0.51" d="M1199.49,-34.33C1105.04,-79.81 838.81,-208.02 730.99,-259.94"/>
<polygon fill="black" stroke="black" stroke-width="0.51" points="729.16,-256.94 721.67,-264.43 732.19,-263.25 729.16,-256.94"/>
<text text-anchor="middle" x="875.24" y="-150.94" font-family="Times,serif" font-size="14.00">sodium&#45;hydroxide*17760</text>
</g>
<!-- 1,8 (HCl, Salt)&#45;&gt;4,2 (More fiberboard) -->
<g id="edge10" class="edge">
<title>1,8 (HCl, Salt)&#45;&gt;4,2 (More fiberboard)</title>
<path fill="none" stroke="black" stroke-width="0.47" d="M1255.15,-35.35C1434.46,-178.35 2666.59,-1160.94 2875.88,-1327.84"/>
<polygon fill="black" stroke="black" stroke-width="0.47" points="2873.71,-1330.59 2883.71,-1334.09 2878.07,-1325.12 2873.71,-1330.59"/>
<text text-anchor="middle" x="1975.51" y="-685.4" font-family="Times,serif" font-size="14.00">sodium&#45;hydroxide*16576</text>
</g>
<!-- 1,8 (HCl, Salt)&#45;&gt;4,12 (Molten Glass) -->
<g id="edge23" class="edge">
<title>1,8 (HCl, Salt)&#45;&gt;4,12 (Molten Glass)</title>
<path fill="none" stroke="black" stroke-width="0.36" d="M1229.21,-36.31C1181.98,-243.26 749.06,-2139.98 691.17,-2393.63"/>
<polygon fill="black" stroke="black" stroke-width="0.36" points="687.72,-2393 688.91,-2403.53 694.55,-2394.56 687.72,-2393"/>
<text text-anchor="middle" x="870.19" y="-1218.77" font-family="Times,serif" font-size="14.00">sodium&#45;hydroxide*12592</text>
</g>
<!-- 1,8 (HCl, Salt)&#45;&gt;&#45;1,7 (Rayon) -->
<g id="edge17" class="edge">
<title>1,8 (HCl, Salt)&#45;&gt;&#45;1,7 (Rayon)</title>
<path fill="none" stroke="black" stroke-width="1.32" d="M1242.04,-35.97C1340.96,-241.36 2256.96,-2143.46 2377.78,-2394.35"/>
<polygon fill="black" stroke="black" stroke-width="1.32" points="2374.7,-2396.02 2382.19,-2403.51 2381.01,-2392.98 2374.7,-2396.02"/>
<text text-anchor="middle" x="1719.91" y="-1218.96" font-family="Times,serif" font-size="14.00">sodium&#45;hydroxide*46448</text>
</g>
<!-- &#45;1,&#45;2 (Aramid fiber) -->
<g id="node14" class="node">
<title>&#45;1,&#45;2 (Aramid fiber)</title>
<ellipse fill="none" stroke="black" cx="2770.56" cy="-758.26" rx="99.38" ry="18"/>
<text text-anchor="middle" x="2770.56" y="-754.56" font-family="Times,serif" font-size="14.00">&#45;1,&#45;2 (Aramid fiber)</text>
</g>
<!-- 1,8 (HCl, Salt)&#45;&gt;&#45;1,&#45;2 (Aramid fiber) -->
<g id="edge25" class="edge">
<title>1,8 (HCl, Salt)&#45;&gt;&#45;1,&#45;2 (Aramid fiber)</title>
<path fill="none" stroke="black" stroke-width="0.15" d="M1267.29,-34.32C1467.94,-130.95 2499,-627.49 2726.23,-736.91"/>
<polygon fill="black" stroke="black" stroke-width="0.15" points="2724.99,-740.2 2735.51,-741.38 2728.02,-733.89 2724.99,-740.2"/>
<text text-anchor="middle" x="1911.26" y="-389.42" font-family="Times,serif" font-size="14.00">sodium&#45;hydroxide*5152</text>
</g>
<!-- 0,0 (LE BUS) -->
<g id="node7" class="node">
<title>0,0 (LE BUS)</title>
<ellipse fill="none" stroke="black" cx="305.13" cy="-1945.55" rx="71.49" ry="18"/>
<text text-anchor="middle" x="305.13" y="-1941.85" font-family="Times,serif" font-size="14.00">0,0 (LE BUS)</text>
</g>
<!-- 0,0 (LE BUS)&#45;&gt;1,7 (Activated Carbon) -->
<g id="edge9" class="edge">
<title>0,0 (LE BUS)&#45;&gt;1,7 (Activated Carbon)</title>
<path fill="none" stroke="black" stroke-width="3.24" d="M326.71,-1962.76C449.48,-2060.67 1059.51,-2547.15 1203.09,-2661.65"/>
<polygon fill="black" stroke="black" stroke-width="3.24" points="1201.11,-2664.55 1211.11,-2668.05 1205.47,-2659.07 1201.11,-2664.55"/>
<text text-anchor="middle" x="670.4" y="-2316.01" font-family="Times,serif" font-size="14.00">sodium&#45;hydroxide*113704</text>
</g>
<!-- 0,0 (LE BUS)&#45;&gt;2,4 (Formica and Phenolic boards) -->
<g id="edge20" class="edge">
<title>0,0 (LE BUS)&#45;&gt;2,4 (Formica and Phenolic boards)</title>
<path fill="none" stroke="black" stroke-width="1.86" d="M301,-1927.46C281.64,-1842.63 199.79,-1484.04 176.09,-1380.19"/>
<polygon fill="black" stroke="black" stroke-width="1.86" points="179.44,-1379.12 173.8,-1370.15 172.61,-1380.68 179.44,-1379.12"/>
<text text-anchor="middle" x="148.55" y="-1657.63" font-family="Times,serif" font-size="14.00">sodium&#45;hydroxide*65156</text>
</g>
<!-- 0,0 (LE BUS)&#45;&gt;7,1 (item=aerogel item=clean&#45;rf&#45;gel Aerogel) -->
<g id="edge7" class="edge">
<title>0,0 (LE BUS)&#45;&gt;7,1 (item=aerogel item=clean&#45;rf&#45;gel Aerogel)</title>
<path fill="none" stroke="black" stroke-width="1.08" d="M319.37,-1927.7C463.03,-1747.55 1649.22,-260.12 1821.47,-44.12"/>
<polygon fill="black" stroke="black" stroke-width="1.08" points="1824.33,-46.15 1827.83,-36.15 1818.86,-41.78 1824.33,-46.15"/>
<text text-anchor="middle" x="980.42" y="-989.71" font-family="Times,serif" font-size="14.00">sodium&#45;hydroxide*37800</text>
</g>
<!-- 0,0 (LE BUS)&#45;&gt;4,1 (item=filtration&#45;media Filtration Media) -->
<g id="edge11" class="edge">
<title>0,0 (LE BUS)&#45;&gt;4,1 (item=filtration&#45;media Filtration Media)</title>
<path fill="none" stroke="black" stroke-width="0.98" d="M309.26,-1927.44C347.04,-1761.93 632,-513.43 678.4,-310.14"/>
<polygon fill="black" stroke="black" stroke-width="0.98" points="681.85,-310.77 680.66,-300.24 675.02,-309.21 681.85,-310.77"/>
<text text-anchor="middle" x="403.83" y="-1122.59" font-family="Times,serif" font-size="14.00">sodium&#45;hydroxide*34352</text>
</g>
<!-- 0,0 (LE BUS)&#45;&gt;4,2 (More fiberboard) -->
<g id="edge6" class="edge">
<title>0,0 (LE BUS)&#45;&gt;4,2 (More fiberboard)</title>
<path fill="none" stroke="black" stroke-width="0.84" d="M358.26,-1933.43C687.45,-1858.29 2447.14,-1456.65 2831.76,-1368.87"/>
<polygon fill="black" stroke="black" stroke-width="0.84" points="2832.69,-1372.24 2841.66,-1366.61 2831.13,-1365.42 2832.69,-1372.24"/>
<text text-anchor="middle" x="1505.01" y="-1654.95" font-family="Times,serif" font-size="14.00">sodium&#45;hydroxide*29504</text>
</g>
<!-- 0,0 (LE BUS)&#45;&gt;4,12 (Molten Glass) -->
<g id="edge8" class="edge">
<title>0,0 (LE BUS)&#45;&gt;4,12 (Molten Glass)</title>
<path fill="none" stroke="black" stroke-width="2.52" d="M319.32,-1963.35C377.23,-2035.96 595.81,-2310.06 664.2,-2395.81"/>
<polygon fill="black" stroke="black" stroke-width="2.52" points="661.55,-2398.1 670.52,-2403.74 667.02,-2393.74 661.55,-2398.1"/>
<text text-anchor="middle" x="401.76" y="-2183.38" font-family="Times,serif" font-size="14.00">sodium&#45;hydroxide*88608</text>
</g>
<!-- 0,0 (LE BUS)&#45;&gt;&#45;1,7 (Rayon) -->
<g id="edge24" class="edge">
<title>0,0 (LE BUS)&#45;&gt;&#45;1,7 (Rayon)</title>
<path fill="none" stroke="black" stroke-width="4.76" d="M358.26,-1957.68C646.48,-2023.46 2020.86,-2337.16 2329.35,-2407.57"/>
<polygon fill="black" stroke="black" stroke-width="4.76" points="2328.77,-2411.71 2339.45,-2409.87 2330.63,-2403.59 2328.77,-2411.71"/>
<text text-anchor="middle" x="1249.31" y="-2186.42" font-family="Times,serif" font-size="14.00">sodium&#45;hydroxide*167140</text>
</g>
<!-- 0,0 (LE BUS)&#45;&gt;&#45;1,&#45;2 (Aramid fiber) -->
<g id="edge27" class="edge">
<title>0,0 (LE BUS)&#45;&gt;&#45;1,&#45;2 (Aramid fiber)</title>
<path fill="none" stroke="black" stroke-width="0.43" d="M338.58,-1929.44C607.86,-1799.77 2419.84,-927.16 2726.51,-779.48"/>
<polygon fill="black" stroke="black" stroke-width="0.43" points="2728.06,-782.61 2735.56,-775.12 2725.03,-776.31 2728.06,-782.61"/>
<text text-anchor="middle" x="1442.55" y="-1358.26" font-family="Times,serif" font-size="14.00">sodium&#45;hydroxide*15120</text>
</g>
<!-- 4,4 (Hydrogen Chloride, item=nylon Nylon/Nylon parts) -->
<g id="node10" class="node">
<title>4,4 (Hydrogen Chloride, item=nylon Nylon/Nylon parts)</title>
<ellipse fill="none" stroke="black" cx="2390.91" cy="-282.2" rx="271.05" ry="18"/>
<text text-anchor="middle" x="2390.91" y="-278.5" font-family="Times,serif" font-size="14.00">4,4 (Hydrogen Chloride, item=nylon Nylon/Nylon parts)</text>
</g>
<!-- 4,4 (Hydrogen Chloride, item=nylon Nylon/Nylon parts)&#45;&gt;7,1 (item=aerogel item=clean&#45;rf&#45;gel Aerogel) -->
<g id="edge12" class="edge">
<title>4,4 (Hydrogen Chloride, item=nylon Nylon/Nylon parts)&#45;&gt;7,1 (item=aerogel item=clean&#45;rf&#45;gel Aerogel)</title>
<path fill="none" stroke="black" stroke-width="0.06" d="M2353.64,-264.25C2256.37,-217.4 1995.04,-91.55 1888.49,-40.24"/>
<polygon fill="black" stroke="black" stroke-width="0.06" points="1889.8,-36.99 1879.27,-35.8 1886.76,-43.29 1889.8,-36.99"/>
<text text-anchor="middle" x="2035.56" y="-156.04" font-family="Times,serif" font-size="14.00">sodium&#45;hydroxide*2064</text>
</g>
<!-- 4,4 (Hydrogen Chloride, item=nylon Nylon/Nylon parts)&#45;&gt;&#45;1,&#45;2 (Aramid fiber) -->
<g id="edge34" class="edge">
<title>4,4 (Hydrogen Chloride, item=nylon Nylon/Nylon parts)&#45;&gt;&#45;1,&#45;2 (Aramid fiber)</title>
<path fill="none" stroke="black" stroke-width="0.15" d="M2405.33,-300.28C2463.53,-373.26 2681.29,-646.31 2749.79,-732.22"/>
<polygon fill="black" stroke="black" stroke-width="0.15" points="2747.16,-734.53 2756.13,-740.16 2752.63,-730.16 2747.16,-734.53"/>
<text text-anchor="middle" x="2492.06" y="-520.05" font-family="Times,serif" font-size="14.00">sodium&#45;hydroxide*5151</text>
</g>
<!-- &#45;5,2 (Optical fiber) -->
<g id="node12" class="node">
<title>&#45;5,2 (Optical fiber)</title>
<ellipse fill="none" stroke="black" cx="305.13" cy="-758.26" rx="96.38" ry="18"/>
<text text-anchor="middle" x="305.13" y="-754.56" font-family="Times,serif" font-size="14.00">&#45;5,2 (Optical fiber)</text>
</g>
<!-- &#45;5,2 (Optical fiber)&#45;&gt;1,7 (Activated Carbon) -->
<g id="edge19" class="edge">
<title>&#45;5,2 (Optical fiber)&#45;&gt;1,7 (Activated Carbon)</title>
<path fill="none" stroke="black" stroke-width="0.46" d="M313.87,-776.42C401.11,-957.57 1114.08,-2438.06 1220.2,-2658.43"/>
<polygon fill="black" stroke="black" stroke-width="0.46" points="1217.17,-2660.2 1224.66,-2667.69 1223.48,-2657.16 1217.17,-2660.2"/>
<text text-anchor="middle" x="677.04" y="-1721.22" font-family="Times,serif" font-size="14.00">sodium&#45;hydroxide*16144</text>
</g>
<!-- &#45;5,2 (Optical fiber)&#45;&gt;2,4 (Formica and Phenolic boards) -->
<g id="edge32" class="edge">
<title>&#45;5,2 (Optical fiber)&#45;&gt;2,4 (Formica and Phenolic boards)</title>
<path fill="none" stroke="black" stroke-width="0.06" d="M301,-776.35C281.64,-861.18 199.79,-1219.78 176.09,-1323.62"/>
<polygon fill="black" stroke="black" stroke-width="0.06" points="172.61,-1323.14 173.8,-1333.67 179.44,-1324.7 172.61,-1323.14"/>
<text text-anchor="middle" x="153.05" y="-1053.79" font-family="Times,serif" font-size="14.00">sodium&#45;hydroxide*2016</text>
</g>
<!-- &#45;5,2 (Optical fiber)&#45;&gt;7,1 (item=aerogel item=clean&#45;rf&#45;gel Aerogel) -->
<g id="edge18" class="edge">
<title>&#45;5,2 (Optical fiber)&#45;&gt;7,1 (item=aerogel item=clean&#45;rf&#45;gel Aerogel)</title>
<path fill="none" stroke="black" stroke-width="0.24" d="M340.12,-741.41C542.88,-643.77 1565.91,-151.11 1796.21,-40.2"/>
<polygon fill="black" stroke="black" stroke-width="0.24" points="1797.84,-43.3 1805.33,-35.81 1794.8,-36.99 1797.84,-43.3"/>
<text text-anchor="middle" x="982.67" y="-394.6" font-family="Times,serif" font-size="14.00">sodium&#45;hydroxide*8432</text>
</g>
<!-- &#45;5,2 (Optical fiber)&#45;&gt;4,1 (item=filtration&#45;media Filtration Media) -->
<g id="edge33" class="edge">
<title>&#45;5,2 (Optical fiber)&#45;&gt;4,1 (item=filtration&#45;media Filtration Media)</title>
<path fill="none" stroke="black" stroke-width="0.12" d="M319.55,-740.18C377.75,-667.2 595.5,-394.15 664.01,-308.24"/>
<polygon fill="black" stroke="black" stroke-width="0.12" points="666.85,-310.3 670.35,-300.3 661.38,-305.93 666.85,-310.3"/>
<text text-anchor="middle" x="406.28" y="-528.01" font-family="Times,serif" font-size="14.00">sodium&#45;hydroxide*4208</text>
</g>
<!-- &#45;5,2 (Optical fiber)&#45;&gt;&#45;1,7 (Rayon) -->
<g id="edge28" class="edge">
<title>&#45;5,2 (Optical fiber)&#45;&gt;&#45;1,7 (Rayon)</title>
<path fill="none" stroke="black" stroke-width="0.87" d="M327.14,-775.82C533.36,-940.27 2124.11,-2208.85 2361.36,-2398.05"/>
<polygon fill="black" stroke="black" stroke-width="0.87" points="2359.22,-2400.82 2369.22,-2404.32 2363.59,-2395.35 2359.22,-2400.82"/>
<text text-anchor="middle" x="1254.25" y="-1590.73" font-family="Times,serif" font-size="14.00">sodium&#45;hydroxide*30656</text>
</g>
<!-- 9,5 (Niobium complex 2) -->
<g id="node13" class="node">
<title>9,5 (Niobium complex 2)</title>
<ellipse fill="none" stroke="black" cx="2770.56" cy="-1945.55" rx="124.58" ry="18"/>
<text text-anchor="middle" x="2770.56" y="-1941.85" font-family="Times,serif" font-size="14.00">9,5 (Niobium complex 2)</text>
</g>
<!-- 9,5 (Niobium complex 2)&#45;&gt;1,7 (Activated Carbon) -->
<g id="edge26" class="edge">
<title>9,5 (Niobium complex 2)&#45;&gt;1,7 (Activated Carbon)</title>
<path fill="none" stroke="black" stroke-width="0.14" d="M2734.46,-1962.94C2528.82,-2061.97 1506.63,-2554.23 1278.56,-2664.06"/>
<polygon fill="black" stroke="black" stroke-width="0.14" points="1276.72,-2661.06 1269.23,-2668.56 1279.76,-2667.37 1276.72,-2661.06"/>
<text text-anchor="middle" x="1921.01" y="-2317.3" font-family="Times,serif" font-size="14.00">sodium&#45;hydroxide*4880</text>
</g>
<!-- 9,5 (Niobium complex 2)&#45;&gt;2,4 (Formica and Phenolic boards) -->
<g id="edge35" class="edge">
<title>9,5 (Niobium complex 2)&#45;&gt;2,4 (Formica and Phenolic boards)</title>
<path fill="none" stroke="black" stroke-width="0.08" d="M2703.66,-1930.28C2344.27,-1848.25 644.67,-1460.33 251.12,-1370.51"/>
<polygon fill="black" stroke="black" stroke-width="0.08" points="251.77,-1367.06 241.24,-1368.25 250.21,-1373.89 251.77,-1367.06"/>
<text text-anchor="middle" x="1391.89" y="-1639.19" font-family="Times,serif" font-size="14.00">sodium&#45;hydroxide*2720</text>
</g>
<!-- 9,5 (Niobium complex 2)&#45;&gt;7,1 (item=aerogel item=clean&#45;rf&#45;gel Aerogel) -->
<g id="edge30" class="edge">
<title>9,5 (Niobium complex 2)&#45;&gt;7,1 (item=aerogel item=clean&#45;rf&#45;gel Aerogel)</title>
<path fill="none" stroke="black" stroke-width="0.12" d="M2761.82,-1927.4C2674.58,-1746.24 1961.62,-265.76 1855.49,-45.39"/>
<polygon fill="black" stroke="black" stroke-width="0.12" points="1858.52,-43.62 1851.03,-36.13 1852.22,-46.66 1858.52,-43.62"/>
<text text-anchor="middle" x="2223.16" y="-990.19" font-family="Times,serif" font-size="14.00">sodium&#45;hydroxide*4320</text>
</g>
<!-- 9,5 (Niobium complex 2)&#45;&gt;4,2 (More fiberboard) -->
<g id="edge21" class="edge">
<title>9,5 (Niobium complex 2)&#45;&gt;4,2 (More fiberboard)</title>
<path fill="none" stroke="black" stroke-width="0.12" d="M2774.69,-1927.46C2794.05,-1842.63 2875.9,-1484.04 2899.6,-1380.19"/>
<polygon fill="black" stroke="black" stroke-width="0.12" points="2903.08,-1380.68 2901.89,-1370.15 2896.26,-1379.12 2903.08,-1380.68"/>
<text text-anchor="middle" x="2751.65" y="-1657.63" font-family="Times,serif" font-size="14.00">sodium&#45;hydroxide*4240</text>
</g>
<!-- 9,5 (Niobium complex 2)&#45;&gt;&#45;1,7 (Rayon) -->
<g id="edge31" class="edge">
<title>9,5 (Niobium complex 2)&#45;&gt;&#45;1,7 (Rayon)</title>
<path fill="none" stroke="black" stroke-width="0.53" d="M2756.14,-1963.63C2697.94,-2036.61 2480.19,-2309.67 2411.68,-2395.57"/>
<polygon fill="black" stroke="black" stroke-width="0.53" points="2408.84,-2393.52 2405.35,-2403.52 2414.32,-2397.88 2408.84,-2393.52"/>
<text text-anchor="middle" x="2493.91" y="-2183.4" font-family="Times,serif" font-size="14.00">sodium&#45;hydroxide*18480</text>
</g>
</g>
</svg>
