<?xml version="1.0" encoding="UTF-8" standalone="no"?>
<!DOCTYPE svg PUBLIC "-//W3C//DTD SVG 1.1//EN"
 "http://www.w3.org/Graphics/SVG/1.1/DTD/svg11.dtd">
<!-- Generated by graphviz version 2.43.0 (0)
 -->
<!-- Title: %3 Pages: 1 -->
<svg width="1330pt" height="44pt"
 viewBox="0.00 0.00 1329.70 44.00" xmlns="http://www.w3.org/2000/svg" xmlns:xlink="http://www.w3.org/1999/xlink">
<g id="graph0" class="graph" transform="scale(1 1) rotate(0) translate(4 40)">
<title>%3</title>
<polygon fill="white" stroke="transparent" points="-4,4 -4,-40 1325.7,-40 1325.7,4 -4,4"/>
<!-- 3,5 (item=molybdenum&#45;plate Molybdenum plate) -->
<g id="node1" class="node">
<title>3,5 (item=molybdenum&#45;plate Molybdenum plate)</title>
<ellipse fill="none" stroke="black" cx="610.8" cy="-18" rx="239.66" ry="18"/>
<text text-anchor="middle" x="610.8" y="-14.3" font-family="Times,serif" font-size="14.00">3,5 (item=molybdenum&#45;plate Molybdenum plate)</text>
</g>
<!-- 4,6 (Circuit substrate and Doped silicon) -->
<g id="node2" class="node">
<title>4,6 (Circuit substrate and Doped silicon)</title>
<ellipse fill="none" stroke="black" cx="1122.16" cy="-18" rx="199.56" ry="18"/>
<text text-anchor="middle" x="1122.16" y="-14.3" font-family="Times,serif" font-size="14.00">4,6 (Circuit substrate and Doped silicon)</text>
</g>
<!-- 3,5 (item=molybdenum&#45;plate Molybdenum plate)&#45;&gt;4,6 (Circuit substrate and Doped silicon) -->
<g id="edge1" class="edge">
<title>3,5 (item=molybdenum&#45;plate Molybdenum plate)&#45;&gt;4,6 (Circuit substrate and Doped silicon)</title>
<path fill="none" stroke="black" stroke-width="1.28" d="M850.76,-18C871.29,-18 891.96,-18 912.24,-18"/>
<polygon fill="black" stroke="black" stroke-width="1.28" points="912.48,-21.5 922.48,-18 912.48,-14.5 912.48,-21.5"/>
<text text-anchor="middle" x="881.5" y="-6.8" font-family="Times,serif" font-size="14.00">molybdenum&#45;plate*20002</text>
</g>
<!-- &#45;1,&#45;2 (Aramid fiber) -->
<g id="node3" class="node">
<title>&#45;1,&#45;2 (Aramid fiber)</title>
<ellipse fill="none" stroke="black" cx="99.44" cy="-18" rx="99.38" ry="18"/>
<text text-anchor="middle" x="99.44" y="-14.3" font-family="Times,serif" font-size="14.00">&#45;1,&#45;2 (Aramid fiber)</text>
</g>
<!-- 3,5 (item=molybdenum&#45;plate Molybdenum plate)&#45;&gt;&#45;1,&#45;2 (Aramid fiber) -->
<g id="edge2" class="edge">
<title>3,5 (item=molybdenum&#45;plate Molybdenum plate)&#45;&gt;&#45;1,&#45;2 (Aramid fiber)</title>
<path fill="none" stroke="black" stroke-width="0.72" d="M370.84,-18C314.27,-18 256.67,-18 209.18,-18"/>
<polygon fill="black" stroke="black" stroke-width="0.72" points="208.89,-14.5 198.89,-18 208.89,-21.5 208.89,-14.5"/>
<text text-anchor="middle" x="290.01" y="-6.8" font-family="Times,serif" font-size="14.00">molybdenum&#45;plate*11312</text>
</g>
</g>
</svg>
