<?xml version="1.0" encoding="UTF-8" standalone="no"?>
<!DOCTYPE svg PUBLIC "-//W3C//DTD SVG 1.1//EN"
 "http://www.w3.org/Graphics/SVG/1.1/DTD/svg11.dtd">
<!-- Generated by graphviz version 2.43.0 (0)
 -->
<!-- Title: %3 Pages: 1 -->
<svg width="1148pt" height="757pt"
 viewBox="0.00 0.00 1148.09 757.03" xmlns="http://www.w3.org/2000/svg" xmlns:xlink="http://www.w3.org/1999/xlink">
<g id="graph0" class="graph" transform="scale(1 1) rotate(0) translate(4 753.03)">
<title>%3</title>
<polygon fill="white" stroke="transparent" points="-4,4 -4,-753.03 1144.09,-753.03 1144.09,4 -4,4"/>
<!-- 0,0 (LE BUS) -->
<g id="node1" class="node">
<title>0,0 (LE BUS)</title>
<ellipse fill="none" stroke="black" cx="106.59" cy="-154.18" rx="71.49" ry="18"/>
<text text-anchor="middle" x="106.59" y="-150.48" font-family="Times,serif" font-size="14.00">0,0 (LE BUS)</text>
</g>
<!-- 2,0 (Sodium Sulfate) -->
<g id="node2" class="node">
<title>2,0 (Sodium Sulfate)</title>
<ellipse fill="none" stroke="black" cx="106.59" cy="-594.85" rx="106.68" ry="18"/>
<text text-anchor="middle" x="106.59" y="-591.15" font-family="Times,serif" font-size="14.00">2,0 (Sodium Sulfate)</text>
</g>
<!-- 0,0 (LE BUS)&#45;&gt;2,0 (Sodium Sulfate) -->
<g id="edge1" class="edge">
<title>0,0 (LE BUS)&#45;&gt;2,0 (Sodium Sulfate)</title>
<path fill="none" stroke="black" stroke-width="0.52" d="M106.59,-172.27C106.59,-240.63 106.59,-483.43 106.59,-566.64"/>
<polygon fill="black" stroke="black" stroke-width="0.52" points="103.09,-566.85 106.59,-576.85 110.09,-566.85 103.09,-566.85"/>
<text text-anchor="middle" x="59.59" y="-373.25" font-family="Times,serif" font-size="14.00">sulfur*33232</text>
</g>
<!-- &#45;5,2 (Optical fiber) -->
<g id="node4" class="node">
<title>&#45;5,2 (Optical fiber)</title>
<ellipse fill="none" stroke="black" cx="525.7" cy="-18" rx="96.38" ry="18"/>
<text text-anchor="middle" x="525.7" y="-14.3" font-family="Times,serif" font-size="14.00">&#45;5,2 (Optical fiber)</text>
</g>
<!-- 0,0 (LE BUS)&#45;&gt;&#45;5,2 (Optical fiber) -->
<g id="edge3" class="edge">
<title>0,0 (LE BUS)&#45;&gt;&#45;5,2 (Optical fiber)</title>
<path fill="none" stroke="black" stroke-width="0.07" d="M150.65,-139.86C226.76,-115.13 382.85,-64.41 467.69,-36.85"/>
<polygon fill="black" stroke="black" stroke-width="0.07" points="468.99,-40.1 477.42,-33.69 466.83,-33.45 468.99,-40.1"/>
<text text-anchor="middle" x="266.67" y="-92.15" font-family="Times,serif" font-size="14.00">sulfur*4336</text>
</g>
<!-- 4,6 (Circuit substrate and Doped silicon) -->
<g id="node6" class="node">
<title>4,6 (Circuit substrate and Doped silicon)</title>
<ellipse fill="none" stroke="black" cx="525.7" cy="-731.03" rx="199.56" ry="18"/>
<text text-anchor="middle" x="525.7" y="-727.33" font-family="Times,serif" font-size="14.00">4,6 (Circuit substrate and Doped silicon)</text>
</g>
<!-- 0,0 (LE BUS)&#45;&gt;4,6 (Circuit substrate and Doped silicon) -->
<g id="edge9" class="edge">
<title>0,0 (LE BUS)&#45;&gt;4,6 (Circuit substrate and Doped silicon)</title>
<path fill="none" stroke="black" stroke-width="0.03" d="M119.59,-172.07C180.15,-255.42 434.6,-605.64 506.63,-704.78"/>
<polygon fill="black" stroke="black" stroke-width="0.03" points="503.93,-707.02 512.64,-713.06 509.59,-702.91 503.93,-707.02"/>
<text text-anchor="middle" x="270.61" y="-442.23" font-family="Times,serif" font-size="14.00">sulfur*2064</text>
</g>
<!-- 5,3 (Ash) -->
<g id="node3" class="node">
<title>5,3 (Ash)</title>
<ellipse fill="none" stroke="black" cx="784.72" cy="-374.51" rx="51.99" ry="18"/>
<text text-anchor="middle" x="784.72" y="-370.81" font-family="Times,serif" font-size="14.00">5,3 (Ash)</text>
</g>
<!-- 5,3 (Ash)&#45;&gt;2,0 (Sodium Sulfate) -->
<g id="edge2" class="edge">
<title>5,3 (Ash)&#45;&gt;2,0 (Sodium Sulfate)</title>
<path fill="none" stroke="black" stroke-width="7.63" d="M746.81,-386.83C634.29,-423.39 301.64,-531.48 165.59,-575.68"/>
<polygon fill="black" stroke="black" stroke-width="7.63" points="163.2,-569.44 155.75,-578.88 167.33,-582.14 163.2,-569.44"/>
<text text-anchor="middle" x="404.7" y="-485.06" font-family="Times,serif" font-size="14.00">sulfur*484560</text>
</g>
<!-- 5,3 (Ash)&#45;&gt;&#45;5,2 (Optical fiber) -->
<g id="edge4" class="edge">
<title>5,3 (Ash)&#45;&gt;&#45;5,2 (Optical fiber)</title>
<path fill="none" stroke="black" stroke-width="0.17" d="M771.88,-356.83C729.68,-298.76 595.18,-113.64 544.9,-44.44"/>
<polygon fill="black" stroke="black" stroke-width="0.17" points="547.64,-42.24 538.93,-36.21 541.98,-46.36 547.64,-42.24"/>
<text text-anchor="middle" x="611.39" y="-204.43" font-family="Times,serif" font-size="14.00">sulfur*10480</text>
</g>
<!-- 4,12 (Molten Glass) -->
<g id="node5" class="node">
<title>4,12 (Molten Glass)</title>
<ellipse fill="none" stroke="black" cx="917.06" cy="-75.95" rx="102.08" ry="18"/>
<text text-anchor="middle" x="917.06" y="-72.25" font-family="Times,serif" font-size="14.00">4,12 (Molten Glass)</text>
</g>
<!-- 5,3 (Ash)&#45;&gt;4,12 (Molten Glass) -->
<g id="edge5" class="edge">
<title>5,3 (Ash)&#45;&gt;4,12 (Molten Glass)</title>
<path fill="none" stroke="black" stroke-width="0.2" d="M792.8,-356.29C815.23,-305.68 878.38,-163.21 904.99,-103.17"/>
<polygon fill="black" stroke="black" stroke-width="0.2" points="908.23,-104.5 909.08,-93.94 901.83,-101.66 908.23,-104.5"/>
<text text-anchor="middle" x="801.9" y="-233.53" font-family="Times,serif" font-size="14.00">sulfur*12520</text>
</g>
<!-- 5,3 (Ash)&#45;&gt;4,6 (Circuit substrate and Doped silicon) -->
<g id="edge6" class="edge">
<title>5,3 (Ash)&#45;&gt;4,6 (Circuit substrate and Doped silicon)</title>
<path fill="none" stroke="black" stroke-width="0.07" d="M771.88,-392.19C729.68,-450.27 595.18,-635.39 544.9,-704.59"/>
<polygon fill="black" stroke="black" stroke-width="0.07" points="541.98,-702.67 538.93,-712.82 547.64,-706.78 541.98,-702.67"/>
<text text-anchor="middle" x="615.89" y="-552.19" font-family="Times,serif" font-size="14.00">sulfur*4160</text>
</g>
<!-- 6,4 (Electronic components) -->
<g id="node7" class="node">
<title>6,4 (Electronic components)</title>
<ellipse fill="none" stroke="black" cx="998.4" cy="-377.11" rx="141.88" ry="18"/>
<text text-anchor="middle" x="998.4" y="-373.41" font-family="Times,serif" font-size="14.00">6,4 (Electronic components)</text>
</g>
<!-- 5,3 (Ash)&#45;&gt;6,4 (Electronic components) -->
<g id="edge7" class="edge">
<title>5,3 (Ash)&#45;&gt;6,4 (Electronic components)</title>
<path fill="none" stroke="black" stroke-width="0.16" d="M836.72,-375.15C840.1,-375.19 843.57,-375.23 847.13,-375.27"/>
<polygon fill="black" stroke="black" stroke-width="0.16" points="847.3,-378.78 857.35,-375.4 847.39,-371.78 847.3,-378.78"/>
<text text-anchor="middle" x="841.92" y="-364.01" font-family="Times,serif" font-size="14.00">sulfur*10000</text>
</g>
<!-- &#45;1,&#45;2 (Aramid fiber) -->
<g id="node8" class="node">
<title>&#45;1,&#45;2 (Aramid fiber)</title>
<ellipse fill="none" stroke="black" cx="915.73" cy="-675.32" rx="99.38" ry="18"/>
<text text-anchor="middle" x="915.73" y="-671.62" font-family="Times,serif" font-size="14.00">&#45;1,&#45;2 (Aramid fiber)</text>
</g>
<!-- 5,3 (Ash)&#45;&gt;&#45;1,&#45;2 (Aramid fiber) -->
<g id="edge8" class="edge">
<title>5,3 (Ash)&#45;&gt;&#45;1,&#45;2 (Aramid fiber)</title>
<path fill="none" stroke="black" stroke-width="0.16" d="M792.52,-392.43C814.54,-442.99 877.29,-587.04 903.74,-647.78"/>
<polygon fill="black" stroke="black" stroke-width="0.16" points="900.6,-649.34 907.81,-657.11 907.02,-646.55 900.6,-649.34"/>
<text text-anchor="middle" x="801.13" y="-523.9" font-family="Times,serif" font-size="14.00">sulfur*10080</text>
</g>
</g>
</svg>
