<?xml version="1.0" encoding="UTF-8" standalone="no"?>
<!DOCTYPE svg PUBLIC "-//W3C//DTD SVG 1.1//EN"
 "http://www.w3.org/Graphics/SVG/1.1/DTD/svg11.dtd">
<!-- Generated by graphviz version 2.43.0 (0)
 -->
<!-- Title: %3 Pages: 1 -->
<svg width="1157pt" height="44pt"
 viewBox="0.00 0.00 1156.81 44.00" xmlns="http://www.w3.org/2000/svg" xmlns:xlink="http://www.w3.org/1999/xlink">
<g id="graph0" class="graph" transform="scale(1 1) rotate(0) translate(4 40)">
<title>%3</title>
<polygon fill="white" stroke="transparent" points="-4,4 -4,-40 1152.81,-40 1152.81,4 -4,4"/>
<!-- 0,10 (item=meat Meat) -->
<g id="node1" class="node">
<title>0,10 (item=meat Meat)</title>
<ellipse fill="none" stroke="black" cx="120.24" cy="-18" rx="120.48" ry="18"/>
<text text-anchor="middle" x="120.24" y="-14.3" font-family="Times,serif" font-size="14.00">0,10 (item=meat Meat)</text>
</g>
<!-- &#45;5,&#45;2 (item=auog Auog beach resort and cannibal workhouse) -->
<g id="node2" class="node">
<title>&#45;5,&#45;2 (item=auog Auog beach resort and cannibal workhouse)</title>
<ellipse fill="none" stroke="black" cx="607.55" cy="-18" rx="295.15" ry="18"/>
<text text-anchor="middle" x="607.55" y="-14.3" font-family="Times,serif" font-size="14.00">&#45;5,&#45;2 (item=auog Auog beach resort and cannibal workhouse)</text>
</g>
<!-- 0,10 (item=meat Meat)&#45;&gt;&#45;5,&#45;2 (item=auog Auog beach resort and cannibal workhouse) -->
<g id="edge1" class="edge">
<title>0,10 (item=meat Meat)&#45;&gt;&#45;5,&#45;2 (item=auog Auog beach resort and cannibal workhouse)</title>
<path fill="none" stroke="black" stroke-width="0.92" d="M240.7,-18C260.04,-18 280.79,-18 302.22,-18"/>
<polygon fill="black" stroke="black" stroke-width="0.92" points="302.45,-21.5 312.45,-18 302.45,-14.5 302.45,-21.5"/>
<text text-anchor="middle" x="271.46" y="-6.8" font-family="Times,serif" font-size="14.00">meat*51424</text>
</g>
<!-- 4,7 (Cottonguts) -->
<g id="node3" class="node">
<title>4,7 (Cottonguts)</title>
<ellipse fill="none" stroke="black" cx="1061.72" cy="-18" rx="87.18" ry="18"/>
<text text-anchor="middle" x="1061.72" y="-14.3" font-family="Times,serif" font-size="14.00">4,7 (Cottonguts)</text>
</g>
<!-- 4,7 (Cottonguts)&#45;&gt;&#45;5,&#45;2 (item=auog Auog beach resort and cannibal workhouse) -->
<g id="edge2" class="edge">
<title>4,7 (Cottonguts)&#45;&gt;&#45;5,&#45;2 (item=auog Auog beach resort and cannibal workhouse)</title>
<path fill="none" stroke="black" stroke-width="1.08" d="M974.42,-18C955.65,-18 934.8,-18 912.83,-18"/>
<polygon fill="black" stroke="black" stroke-width="1.08" points="912.66,-14.5 902.66,-18 912.66,-21.5 912.66,-14.5"/>
<text text-anchor="middle" x="921.62" y="-6.8" font-family="Times,serif" font-size="14.00">meat*60400</text>
</g>
</g>
</svg>
