<?xml version="1.0" encoding="UTF-8" standalone="no"?>
<!DOCTYPE svg PUBLIC "-//W3C//DTD SVG 1.1//EN"
 "http://www.w3.org/Graphics/SVG/1.1/DTD/svg11.dtd">
<!-- Generated by graphviz version 2.43.0 (0)
 -->
<!-- Title: %3 Pages: 1 -->
<svg width="1230pt" height="1244pt"
 viewBox="0.00 0.00 1230.30 1244.44" xmlns="http://www.w3.org/2000/svg" xmlns:xlink="http://www.w3.org/1999/xlink">
<g id="graph0" class="graph" transform="scale(1 1) rotate(0) translate(4 1240.44)">
<title>%3</title>
<polygon fill="white" stroke="transparent" points="-4,4 -4,-1240.44 1226.3,-1240.44 1226.3,4 -4,4"/>
<!-- 4,4 (Hydrogen Chloride, item=nylon Nylon/Nylon parts) -->
<g id="node1" class="node">
<title>4,4 (Hydrogen Chloride, item=nylon Nylon/Nylon parts)</title>
<ellipse fill="none" stroke="black" cx="518.56" cy="-681.98" rx="271.05" ry="18"/>
<text text-anchor="middle" x="518.56" y="-678.28" font-family="Times,serif" font-size="14.00">4,4 (Hydrogen Chloride, item=nylon Nylon/Nylon parts)</text>
</g>
<!-- 2,1 (Niobium plates) -->
<g id="node2" class="node">
<title>2,1 (Niobium plates)</title>
<ellipse fill="none" stroke="black" cx="1116.36" cy="-681.98" rx="105.88" ry="18"/>
<text text-anchor="middle" x="1116.36" y="-678.28" font-family="Times,serif" font-size="14.00">2,1 (Niobium plates)</text>
</g>
<!-- 4,4 (Hydrogen Chloride, item=nylon Nylon/Nylon parts)&#45;&gt;2,1 (Niobium plates) -->
<g id="edge1" class="edge">
<title>4,4 (Hydrogen Chloride, item=nylon Nylon/Nylon parts)&#45;&gt;2,1 (Niobium plates)</title>
<path fill="none" stroke="black" stroke-width="0.21" d="M789.91,-681.98C863.74,-681.98 939.83,-681.98 999.95,-681.98"/>
<polygon fill="black" stroke="black" stroke-width="0.21" points="1000.22,-685.48 1010.22,-681.98 1000.22,-678.48 1000.22,-685.48"/>
<text text-anchor="middle" x="894.93" y="-670.78" font-family="Times,serif" font-size="14.00">hydrogen&#45;chloride&#45;barrel*3960</text>
</g>
<!-- &#45;4,4 (item=ammonium&#45;chloride Ammonium chloride) -->
<g id="node3" class="node">
<title>&#45;4,4 (item=ammonium&#45;chloride Ammonium chloride)</title>
<ellipse fill="none" stroke="black" cx="254.78" cy="-1218.44" rx="254.55" ry="18"/>
<text text-anchor="middle" x="254.78" y="-1214.74" font-family="Times,serif" font-size="14.00">&#45;4,4 (item=ammonium&#45;chloride Ammonium chloride)</text>
</g>
<!-- 4,4 (Hydrogen Chloride, item=nylon Nylon/Nylon parts)&#45;&gt;&#45;4,4 (item=ammonium&#45;chloride Ammonium chloride) -->
<g id="edge2" class="edge">
<title>4,4 (Hydrogen Chloride, item=nylon Nylon/Nylon parts)&#45;&gt;&#45;4,4 (item=ammonium&#45;chloride Ammonium chloride)</title>
<path fill="none" stroke="black" stroke-width="1.82" d="M509.63,-700.14C470.61,-779.5 314.89,-1096.18 268.13,-1191.29"/>
<polygon fill="black" stroke="black" stroke-width="1.82" points="264.97,-1189.77 263.7,-1200.29 271.26,-1192.86 264.97,-1189.77"/>
<text text-anchor="middle" x="273.88" y="-949.52" font-family="Times,serif" font-size="14.00">hydrogen&#45;chloride&#45;barrel*34466</text>
</g>
<!-- 3,0 (Zinc Chloride) -->
<g id="node4" class="node">
<title>3,0 (Zinc Chloride)</title>
<ellipse fill="none" stroke="black" cx="327.8" cy="-268.67" rx="97.48" ry="18"/>
<text text-anchor="middle" x="327.8" y="-264.97" font-family="Times,serif" font-size="14.00">3,0 (Zinc Chloride)</text>
</g>
<!-- 4,4 (Hydrogen Chloride, item=nylon Nylon/Nylon parts)&#45;&gt;3,0 (Zinc Chloride) -->
<g id="edge3" class="edge">
<title>4,4 (Hydrogen Chloride, item=nylon Nylon/Nylon parts)&#45;&gt;3,0 (Zinc Chloride)</title>
<path fill="none" stroke="black" stroke-width="1.95" d="M510.24,-663.96C480.12,-598.7 376.63,-374.48 340.43,-296.03"/>
<polygon fill="black" stroke="black" stroke-width="1.95" points="343.53,-294.4 336.16,-286.79 337.17,-297.34 343.53,-294.4"/>
<text text-anchor="middle" x="310.33" y="-483.8" font-family="Times,serif" font-size="14.00">hydrogen&#45;chloride&#45;barrel*36840</text>
</g>
<!-- 2,0 (Sodium Sulfate) -->
<g id="node5" class="node">
<title>2,0 (Sodium Sulfate)</title>
<ellipse fill="none" stroke="black" cx="212.1" cy="-18" rx="106.68" ry="18"/>
<text text-anchor="middle" x="212.1" y="-14.3" font-family="Times,serif" font-size="14.00">2,0 (Sodium Sulfate)</text>
</g>
<!-- 2,0 (Sodium Sulfate)&#45;&gt;3,0 (Zinc Chloride) -->
<g id="edge4" class="edge">
<title>2,0 (Sodium Sulfate)&#45;&gt;3,0 (Zinc Chloride)</title>
<path fill="none" stroke="black" stroke-width="0.02" d="M220.42,-36.03C240.43,-79.37 291.33,-189.65 315.14,-241.26"/>
<polygon fill="black" stroke="black" stroke-width="0.02" points="312.03,-242.86 319.4,-250.47 318.38,-239.92 312.03,-242.86"/>
<text text-anchor="middle" x="161.78" y="-142.44" font-family="Times,serif" font-size="14.00">hydrogen&#45;chloride&#45;barrel*336</text>
</g>
</g>
</svg>
