<?xml version="1.0" encoding="UTF-8" standalone="no"?>
<!DOCTYPE svg PUBLIC "-//W3C//DTD SVG 1.1//EN"
 "http://www.w3.org/Graphics/SVG/1.1/DTD/svg11.dtd">
<!-- Generated by graphviz version 2.43.0 (0)
 -->
<!-- Title: %3 Pages: 1 -->
<svg width="1298pt" height="581pt"
 viewBox="0.00 0.00 1297.72 581.00" xmlns="http://www.w3.org/2000/svg" xmlns:xlink="http://www.w3.org/1999/xlink">
<g id="graph0" class="graph" transform="scale(1 1) rotate(0) translate(4 577)">
<title>%3</title>
<polygon fill="white" stroke="transparent" points="-4,4 -4,-577 1293.72,-577 1293.72,4 -4,4"/>
<!-- &#45;2,&#45;3 (Trains) -->
<g id="node1" class="node">
<title>&#45;2,&#45;3 (Trains)</title>
<ellipse fill="none" stroke="black" cx="693.42" cy="-266" rx="70.39" ry="18"/>
<text text-anchor="middle" x="693.42" y="-262.3" font-family="Times,serif" font-size="14.00">&#45;2,&#45;3 (Trains)</text>
</g>
<!-- &#45;5,0 (item=small&#45;lampitem=petri&#45;dish Lamptri dishes) -->
<g id="node2" class="node">
<title>&#45;5,0 (item=small&#45;lampitem=petri&#45;dish Lamptri dishes)</title>
<ellipse fill="none" stroke="black" cx="263.88" cy="-18" rx="263.75" ry="18"/>
<text text-anchor="middle" x="263.88" y="-14.3" font-family="Times,serif" font-size="14.00">&#45;5,0 (item=small&#45;lampitem=petri&#45;dish Lamptri dishes)</text>
</g>
<!-- &#45;2,&#45;3 (Trains)&#45;&gt;&#45;5,0 (item=small&#45;lampitem=petri&#45;dish Lamptri dishes) -->
<g id="edge1" class="edge">
<title>&#45;2,&#45;3 (Trains)&#45;&gt;&#45;5,0 (item=small&#45;lampitem=petri&#45;dish Lamptri dishes)</title>
<path fill="none" stroke="black" stroke-width="2.66" d="M664.9,-249.53C590.34,-206.48 389.45,-90.5 303.63,-40.95"/>
<polygon fill="black" stroke="black" stroke-width="2.66" points="305.37,-37.91 294.96,-35.95 301.87,-43.98 305.37,-37.91"/>
<text text-anchor="middle" x="357.77" y="-149.04" font-family="Times,serif" font-size="14.00">combustion&#45;mixture1&#45;barrel*51795</text>
</g>
<!-- &#45;6,6 (coal pickup train station, titanium pickup station) -->
<g id="node4" class="node">
<title>&#45;6,6 (coal pickup train station, titanium pickup station)</title>
<ellipse fill="none" stroke="black" cx="1025.2" cy="-189.25" rx="264.55" ry="18"/>
<text text-anchor="middle" x="1025.2" y="-185.55" font-family="Times,serif" font-size="14.00">&#45;6,6 (coal pickup train station, titanium pickup station)</text>
</g>
<!-- &#45;2,&#45;3 (Trains)&#45;&gt;&#45;6,6 (coal pickup train station, titanium pickup station) -->
<g id="edge3" class="edge">
<title>&#45;2,&#45;3 (Trains)&#45;&gt;&#45;6,6 (coal pickup train station, titanium pickup station)</title>
<path fill="none" stroke="black" stroke-width="0" d="M745.62,-253.92C797.83,-241.84 878.98,-223.07 940.43,-208.86"/>
<polygon fill="black" stroke="black" stroke-width="0" points="941.54,-212.19 950.5,-206.53 939.96,-205.37 941.54,-212.19"/>
<text text-anchor="middle" x="730.02" y="-235.19" font-family="Times,serif" font-size="14.00">combustion&#45;mixture1&#45;barrel*48</text>
</g>
<!-- 6,13 () -->
<g id="node5" class="node">
<title>6,13 ()</title>
<ellipse fill="none" stroke="black" cx="958.84" cy="-555" rx="40.89" ry="18"/>
<text text-anchor="middle" x="958.84" y="-551.3" font-family="Times,serif" font-size="14.00">6,13 ()</text>
</g>
<!-- &#45;2,&#45;3 (Trains)&#45;&gt;6,13 () -->
<g id="edge4" class="edge">
<title>&#45;2,&#45;3 (Trains)&#45;&gt;6,13 ()</title>
<path fill="none" stroke="black" stroke-width="0" d="M709.62,-283.64C755.09,-333.15 883.97,-473.48 936.32,-530.48"/>
<polygon fill="black" stroke="black" stroke-width="0" points="933.84,-532.95 943.18,-537.95 939,-528.22 933.84,-532.95"/>
<text text-anchor="middle" x="709.97" y="-410.86" font-family="Times,serif" font-size="14.00">combustion&#45;mixture1&#45;barrel*48</text>
</g>
<!-- 4,10 (Fluid Recycling) -->
<g id="node3" class="node">
<title>4,10 (Fluid Recycling)</title>
<ellipse fill="none" stroke="black" cx="263.88" cy="-513.99" rx="112.38" ry="18"/>
<text text-anchor="middle" x="263.88" y="-510.29" font-family="Times,serif" font-size="14.00">4,10 (Fluid Recycling)</text>
</g>
<!-- 4,10 (Fluid Recycling)&#45;&gt;&#45;2,&#45;3 (Trains) -->
<g id="edge2" class="edge">
<title>4,10 (Fluid Recycling)&#45;&gt;&#45;2,&#45;3 (Trains)</title>
<path fill="none" stroke="black" stroke-width="2.09" d="M294.08,-496.55C370.64,-452.35 572.13,-336.02 655.98,-287.61"/>
<polygon fill="black" stroke="black" stroke-width="2.09" points="657.75,-290.63 664.66,-282.6 654.25,-284.57 657.75,-290.63"/>
<text text-anchor="middle" x="348.53" y="-395.88" font-family="Times,serif" font-size="14.00">combustion&#45;mixture1&#45;barrel*40660</text>
</g>
<!-- 4,10 (Fluid Recycling)&#45;&gt;&#45;5,0 (item=small&#45;lampitem=petri&#45;dish Lamptri dishes) -->
<g id="edge5" class="edge">
<title>4,10 (Fluid Recycling)&#45;&gt;&#45;5,0 (item=small&#45;lampitem=petri&#45;dish Lamptri dishes)</title>
<path fill="none" stroke="black" stroke-width="0.25" d="M263.88,-495.75C263.88,-420.93 263.88,-137.23 263.88,-46.26"/>
<polygon fill="black" stroke="black" stroke-width="0.25" points="267.38,-46.14 263.88,-36.14 260.38,-46.14 267.38,-46.14"/>
<text text-anchor="middle" x="141.88" y="-274.8" font-family="Times,serif" font-size="14.00">combustion&#45;mixture1&#45;barrel*4900</text>
</g>
</g>
</svg>
