<?xml version="1.0" encoding="UTF-8" standalone="no"?>
<!DOCTYPE svg PUBLIC "-//W3C//DTD SVG 1.1//EN"
 "http://www.w3.org/Graphics/SVG/1.1/DTD/svg11.dtd">
<!-- Generated by graphviz version 2.43.0 (0)
 -->
<!-- Title: %3 Pages: 1 -->
<svg width="706pt" height="482pt"
 viewBox="0.00 0.00 705.56 481.58" xmlns="http://www.w3.org/2000/svg" xmlns:xlink="http://www.w3.org/1999/xlink">
<g id="graph0" class="graph" transform="scale(1 1) rotate(0) translate(4 477.58)">
<title>%3</title>
<polygon fill="white" stroke="transparent" points="-4,4 -4,-477.58 701.56,-477.58 701.56,4 -4,4"/>
<!-- 2,0 (Sodium Sulfate) -->
<g id="node1" class="node">
<title>2,0 (Sodium Sulfate)</title>
<ellipse fill="none" stroke="black" cx="342.93" cy="-18" rx="106.68" ry="18"/>
<text text-anchor="middle" x="342.93" y="-14.3" font-family="Times,serif" font-size="14.00">2,0 (Sodium Sulfate)</text>
</g>
<!-- &#45;2,5 (Rare Earth Oxides) -->
<g id="node2" class="node">
<title>&#45;2,5 (Rare Earth Oxides)</title>
<ellipse fill="none" stroke="black" cx="124.14" cy="-236.79" rx="124.28" ry="18"/>
<text text-anchor="middle" x="124.14" y="-233.09" font-family="Times,serif" font-size="14.00">&#45;2,5 (Rare Earth Oxides)</text>
</g>
<!-- 2,0 (Sodium Sulfate)&#45;&gt;&#45;2,5 (Rare Earth Oxides) -->
<g id="edge1" class="edge">
<title>2,0 (Sodium Sulfate)&#45;&gt;&#45;2,5 (Rare Earth Oxides)</title>
<path fill="none" stroke="black" stroke-width="3.15" d="M325.03,-35.9C286.15,-74.78 193.91,-167.02 149.24,-211.69"/>
<polygon fill="black" stroke="black" stroke-width="3.15" points="146.58,-209.4 141.98,-218.95 151.53,-214.35 146.58,-209.4"/>
<text text-anchor="middle" x="143.13" y="-127.6" font-family="Times,serif" font-size="14.00">sulfuric&#45;acid&#45;barrel*64014</text>
</g>
<!-- 0,0 (LE BUS) -->
<g id="node3" class="node">
<title>0,0 (LE BUS)</title>
<ellipse fill="none" stroke="black" cx="342.93" cy="-455.58" rx="71.49" ry="18"/>
<text text-anchor="middle" x="342.93" y="-451.88" font-family="Times,serif" font-size="14.00">0,0 (LE BUS)</text>
</g>
<!-- 2,0 (Sodium Sulfate)&#45;&gt;0,0 (LE BUS) -->
<g id="edge4" class="edge">
<title>2,0 (Sodium Sulfate)&#45;&gt;0,0 (LE BUS)</title>
<path fill="none" stroke="black" stroke-width="0.57" d="M342.93,-36.25C342.93,-104.36 342.93,-344.08 342.93,-427.06"/>
<polygon fill="black" stroke="black" stroke-width="0.57" points="339.43,-427.26 342.93,-437.26 346.43,-427.26 339.43,-427.26"/>
<text text-anchor="middle" x="342.93" y="-220.45" font-family="Times,serif" font-size="14.00">sulfuric&#45;acid&#45;barrel*11525</text>
</g>
<!-- &#45;7,&#45;2 (Uranium Processing) -->
<g id="node4" class="node">
<title>&#45;7,&#45;2 (Uranium Processing)</title>
<ellipse fill="none" stroke="black" cx="561.72" cy="-236.79" rx="135.68" ry="18"/>
<text text-anchor="middle" x="561.72" y="-233.09" font-family="Times,serif" font-size="14.00">&#45;7,&#45;2 (Uranium Processing)</text>
</g>
<!-- 2,0 (Sodium Sulfate)&#45;&gt;&#45;7,&#45;2 (Uranium Processing) -->
<g id="edge3" class="edge">
<title>2,0 (Sodium Sulfate)&#45;&gt;&#45;7,&#45;2 (Uranium Processing)</title>
<path fill="none" stroke="black" stroke-width="0.1" d="M360.83,-35.9C399.71,-74.78 491.95,-167.02 536.62,-211.69"/>
<polygon fill="black" stroke="black" stroke-width="0.1" points="534.33,-214.35 543.88,-218.95 539.28,-209.4 534.33,-214.35"/>
<text text-anchor="middle" x="359.23" y="-127.6" font-family="Times,serif" font-size="14.00">sulfuric&#45;acid&#45;barrel*1936</text>
</g>
<!-- 0,0 (LE BUS)&#45;&gt;&#45;2,5 (Rare Earth Oxides) -->
<g id="edge2" class="edge">
<title>0,0 (LE BUS)&#45;&gt;&#45;2,5 (Rare Earth Oxides)</title>
<path fill="none" stroke="black" stroke-width="1.18" d="M325.4,-438.05C286.76,-399.42 194.2,-306.85 149.35,-262"/>
<polygon fill="black" stroke="black" stroke-width="1.18" points="151.61,-259.31 142.06,-254.72 146.66,-264.26 151.61,-259.31"/>
<text text-anchor="middle" x="143.37" y="-353.82" font-family="Times,serif" font-size="14.00">sulfuric&#45;acid&#45;barrel*24080</text>
</g>
<!-- 0,0 (LE BUS)&#45;&gt;&#45;7,&#45;2 (Uranium Processing) -->
<g id="edge5" class="edge">
<title>0,0 (LE BUS)&#45;&gt;&#45;7,&#45;2 (Uranium Processing)</title>
<path fill="none" stroke="black" stroke-width="0.01" d="M360.46,-438.05C399.1,-399.42 491.66,-306.85 536.51,-262"/>
<polygon fill="black" stroke="black" stroke-width="0.01" points="539.2,-264.26 543.8,-254.72 534.25,-259.31 539.2,-264.26"/>
<text text-anchor="middle" x="363.49" y="-353.82" font-family="Times,serif" font-size="14.00">sulfuric&#45;acid&#45;barrel*160</text>
</g>
</g>
</svg>
