<?xml version="1.0" encoding="UTF-8" standalone="no"?>
<!DOCTYPE svg PUBLIC "-//W3C//DTD SVG 1.1//EN"
 "http://www.w3.org/Graphics/SVG/1.1/DTD/svg11.dtd">
<!-- Generated by graphviz version 2.43.0 (0)
 -->
<!-- Title: %3 Pages: 1 -->
<svg width="733pt" height="402pt"
 viewBox="0.00 0.00 732.56 402.14" xmlns="http://www.w3.org/2000/svg" xmlns:xlink="http://www.w3.org/1999/xlink">
<g id="graph0" class="graph" transform="scale(1 1) rotate(0) translate(4 398.14)">
<title>%3</title>
<polygon fill="white" stroke="transparent" points="-4,4 -4,-398.14 728.56,-398.14 728.56,4 -4,4"/>
<!-- 1,10 (Iron Ore Dust) -->
<g id="node1" class="node">
<title>1,10 (Iron Ore Dust)</title>
<ellipse fill="none" stroke="black" cx="104.64" cy="-197.07" rx="104.78" ry="18"/>
<text text-anchor="middle" x="104.64" y="-193.37" font-family="Times,serif" font-size="14.00">1,10 (Iron Ore Dust)</text>
</g>
<!-- 1,12 (Molten Iron) -->
<g id="node2" class="node">
<title>1,12 (Molten Iron)</title>
<ellipse fill="none" stroke="black" cx="283.71" cy="-376.14" rx="95.58" ry="18"/>
<text text-anchor="middle" x="283.71" y="-372.44" font-family="Times,serif" font-size="14.00">1,12 (Molten Iron)</text>
</g>
<!-- 1,10 (Iron Ore Dust)&#45;&gt;1,12 (Molten Iron) -->
<g id="edge1" class="edge">
<title>1,10 (Iron Ore Dust)&#45;&gt;1,12 (Molten Iron)</title>
<path fill="none" stroke="black" stroke-width="0.58" d="M122.47,-214.89C154.51,-246.94 221.92,-314.35 258.62,-351.05"/>
<polygon fill="black" stroke="black" stroke-width="0.58" points="256.41,-353.79 265.96,-358.39 261.36,-348.84 256.41,-353.79"/>
<text text-anchor="middle" x="118.04" y="-286.77" font-family="Times,serif" font-size="14.00">iron&#45;ore&#45;dust*27232</text>
</g>
<!-- &#45;2,9 (molten steel) -->
<g id="node4" class="node">
<title>&#45;2,9 (molten steel)</title>
<ellipse fill="none" stroke="black" cx="283.71" cy="-18" rx="95.58" ry="18"/>
<text text-anchor="middle" x="283.71" y="-14.3" font-family="Times,serif" font-size="14.00">&#45;2,9 (molten steel)</text>
</g>
<!-- 1,10 (Iron Ore Dust)&#45;&gt;&#45;2,9 (molten steel) -->
<g id="edge4" class="edge">
<title>1,10 (Iron Ore Dust)&#45;&gt;&#45;2,9 (molten steel)</title>
<path fill="none" stroke="black" stroke-width="0.22" d="M122.47,-179.24C154.51,-147.2 221.92,-79.79 258.62,-43.09"/>
<polygon fill="black" stroke="black" stroke-width="0.22" points="261.36,-45.3 265.96,-35.75 256.41,-40.35 261.36,-45.3"/>
<text text-anchor="middle" x="118.04" y="-114.97" font-family="Times,serif" font-size="14.00">iron&#45;ore&#45;dust*10448</text>
</g>
<!-- &#45;6,7 (Iron ore dust) -->
<g id="node3" class="node">
<title>&#45;6,7 (Iron ore dust)</title>
<ellipse fill="none" stroke="black" cx="462.78" cy="-197.07" rx="98.58" ry="18"/>
<text text-anchor="middle" x="462.78" y="-193.37" font-family="Times,serif" font-size="14.00">&#45;6,7 (Iron ore dust)</text>
</g>
<!-- &#45;6,7 (Iron ore dust)&#45;&gt;1,12 (Molten Iron) -->
<g id="edge2" class="edge">
<title>&#45;6,7 (Iron ore dust)&#45;&gt;1,12 (Molten Iron)</title>
<path fill="none" stroke="black" stroke-width="2.92" d="M444.95,-214.89C412.91,-246.94 345.5,-314.35 308.8,-351.05"/>
<polygon fill="black" stroke="black" stroke-width="2.92" points="306.06,-348.84 301.46,-358.39 311.01,-353.79 306.06,-348.84"/>
<text text-anchor="middle" x="299.88" y="-286.77" font-family="Times,serif" font-size="14.00">iron&#45;ore&#45;dust*138240</text>
</g>
<!-- &#45;6,7 (Iron ore dust)&#45;&gt;&#45;2,9 (molten steel) -->
<g id="edge3" class="edge">
<title>&#45;6,7 (Iron ore dust)&#45;&gt;&#45;2,9 (molten steel)</title>
<path fill="none" stroke="black" stroke-width="0.75" d="M444.95,-179.24C412.91,-147.2 345.5,-79.79 308.8,-43.09"/>
<polygon fill="black" stroke="black" stroke-width="0.75" points="311.01,-40.35 301.46,-35.75 306.06,-45.3 311.01,-40.35"/>
<text text-anchor="middle" x="304.38" y="-114.97" font-family="Times,serif" font-size="14.00">iron&#45;ore&#45;dust*35664</text>
</g>
<!-- &#45;1,10 (Iron Plates) -->
<g id="node5" class="node">
<title>&#45;1,10 (Iron Plates)</title>
<ellipse fill="none" stroke="black" cx="629.67" cy="-197.07" rx="94.78" ry="18"/>
<text text-anchor="middle" x="629.67" y="-193.37" font-family="Times,serif" font-size="14.00">&#45;1,10 (Iron Plates)</text>
</g>
<!-- &#45;6,7 (Iron ore dust)&#45;&gt;&#45;1,10 (Iron Plates) -->
<g id="edge5" class="edge">
<title>&#45;6,7 (Iron ore dust)&#45;&gt;&#45;1,10 (Iron Plates)</title>
<path fill="none" stroke="black" stroke-width="0.53" d="M561.79,-197.07C561.86,-197.07 561.93,-197.07 562,-197.07"/>
<polygon fill="black" stroke="black" stroke-width="0.53" points="552.21,-200.57 562.21,-197.07 552.21,-193.57 552.21,-200.57"/>
<text text-anchor="middle" x="634.4" y="-200.87" font-family="Times,serif" font-size="14.00">iron&#45;ore&#45;dust*25200</text>
</g>
</g>
</svg>
