<?xml version="1.0" encoding="UTF-8" standalone="no"?>
<!DOCTYPE svg PUBLIC "-//W3C//DTD SVG 1.1//EN"
 "http://www.w3.org/Graphics/SVG/1.1/DTD/svg11.dtd">
<!-- Generated by graphviz version 2.43.0 (0)
 -->
<!-- Title: %3 Pages: 1 -->
<svg width="2814pt" height="2558pt"
 viewBox="0.00 0.00 2813.84 2557.68" xmlns="http://www.w3.org/2000/svg" xmlns:xlink="http://www.w3.org/1999/xlink">
<g id="graph0" class="graph" transform="scale(1 1) rotate(0) translate(4 2553.68)">
<title>%3</title>
<polygon fill="white" stroke="transparent" points="-4,4 -4,-2553.68 2809.84,-2553.68 2809.84,4 -4,4"/>
<!-- 3,1 (Mining Brick) -->
<g id="node1" class="node">
<title>3,1 (Mining Brick)</title>
<ellipse fill="none" stroke="black" cx="2589.72" cy="-1274.84" rx="94.78" ry="18"/>
<text text-anchor="middle" x="2589.72" y="-1271.14" font-family="Times,serif" font-size="14.00">3,1 (Mining Brick)</text>
</g>
<!-- 0,3 () -->
<g id="node2" class="node">
<title>0,3 ()</title>
<ellipse fill="none" stroke="black" cx="2221.6" cy="-2163.56" rx="35.19" ry="18"/>
<text text-anchor="middle" x="2221.6" y="-2159.86" font-family="Times,serif" font-size="14.00">0,3 ()</text>
</g>
<!-- 3,1 (Mining Brick)&#45;&gt;0,3 () -->
<g id="edge1" class="edge">
<title>3,1 (Mining Brick)&#45;&gt;0,3 ()</title>
<path fill="none" stroke="black" stroke-width="4.97" d="M2582.2,-1292.99C2535.84,-1404.91 2289.03,-2000.77 2232.94,-2136.17"/>
<polygon fill="black" stroke="black" stroke-width="4.97" points="2228.77,-2134.9 2228.96,-2145.8 2236.8,-2138.23 2228.77,-2134.9"/>
<text text-anchor="middle" x="2347.07" y="-1718.38" font-family="Times,serif" font-size="14.00">tar&#45;barrel*46256</text>
</g>
<!-- 3,6 (Phosphoric Acid and Phosphine gas) -->
<g id="node3" class="node">
<title>3,6 (Phosphoric Acid and Phosphine gas)</title>
<ellipse fill="none" stroke="black" cx="1332.88" cy="-2531.68" rx="200.36" ry="18"/>
<text text-anchor="middle" x="1332.88" y="-2527.98" font-family="Times,serif" font-size="14.00">3,6 (Phosphoric Acid and Phosphine gas)</text>
</g>
<!-- 3,1 (Mining Brick)&#45;&gt;3,6 (Phosphoric Acid and Phosphine gas) -->
<g id="edge2" class="edge">
<title>3,1 (Mining Brick)&#45;&gt;3,6 (Phosphoric Acid and Phosphine gas)</title>
<path fill="none" stroke="black" stroke-width="0.07" d="M2571.95,-1292.61C2433.03,-1431.53 1522.07,-2342.49 1358.13,-2506.43"/>
<polygon fill="black" stroke="black" stroke-width="0.07" points="1355.49,-2504.12 1350.9,-2513.66 1360.44,-2509.07 1355.49,-2504.12"/>
<text text-anchor="middle" x="1913.54" y="-1903.32" font-family="Times,serif" font-size="14.00">tar&#45;barrel*680</text>
</g>
<!-- 0,7 (Coal Gas) -->
<g id="node5" class="node">
<title>0,7 (Coal Gas)</title>
<ellipse fill="none" stroke="black" cx="76.04" cy="-1274.84" rx="76.09" ry="18"/>
<text text-anchor="middle" x="76.04" y="-1271.14" font-family="Times,serif" font-size="14.00">0,7 (Coal Gas)</text>
</g>
<!-- 3,1 (Mining Brick)&#45;&gt;0,7 (Coal Gas) -->
<g id="edge4" class="edge">
<title>3,1 (Mining Brick)&#45;&gt;0,7 (Coal Gas)</title>
<path fill="none" stroke="black" stroke-width="4.19" d="M2494.63,-1274.84C2093.89,-1274.84 545.76,-1274.84 162.33,-1274.84"/>
<polygon fill="black" stroke="black" stroke-width="4.19" points="162.13,-1271.17 152.13,-1274.84 162.13,-1278.51 162.13,-1271.17"/>
<text text-anchor="middle" x="1267.98" y="-1278.64" font-family="Times,serif" font-size="14.00">tar&#45;barrel*39000</text>
</g>
<!-- &#45;3,2 (Lead and Solder) -->
<g id="node6" class="node">
<title>&#45;3,2 (Lead and Solder)</title>
<ellipse fill="none" stroke="black" cx="444.16" cy="-386.12" rx="113.98" ry="18"/>
<text text-anchor="middle" x="444.16" y="-382.42" font-family="Times,serif" font-size="14.00">&#45;3,2 (Lead and Solder)</text>
</g>
<!-- 3,1 (Mining Brick)&#45;&gt;&#45;3,2 (Lead and Solder) -->
<g id="edge5" class="edge">
<title>3,1 (Mining Brick)&#45;&gt;&#45;3,2 (Lead and Solder)</title>
<path fill="none" stroke="black" stroke-width="0.41" d="M2550.18,-1258.46C2286.89,-1149.4 788.71,-528.83 494.35,-406.91"/>
<polygon fill="black" stroke="black" stroke-width="0.41" points="495.37,-403.54 484.79,-402.95 492.69,-410.01 495.37,-403.54"/>
<text text-anchor="middle" x="1466.27" y="-836.49" font-family="Times,serif" font-size="14.00">tar&#45;barrel*3848</text>
</g>
<!-- 4,&#45;1 (Fluid) -->
<g id="node8" class="node">
<title>4,&#45;1 (Fluid)</title>
<ellipse fill="none" stroke="black" cx="2723.47" cy="-1274.84" rx="61.99" ry="18"/>
<text text-anchor="middle" x="2723.47" y="-1271.14" font-family="Times,serif" font-size="14.00">4,&#45;1 (Fluid)</text>
</g>
<!-- 3,1 (Mining Brick)&#45;&gt;4,&#45;1 (Fluid) -->
<g id="edge8" class="edge">
<title>3,1 (Mining Brick)&#45;&gt;4,&#45;1 (Fluid)</title>
<path fill="none" stroke="black" stroke-width="1.5" d="M2684.78,-1274.84C2684.82,-1274.84 2684.87,-1274.84 2684.91,-1274.84"/>
<polygon fill="black" stroke="black" stroke-width="1.5" points="2675.04,-1278.35 2685.04,-1274.84 2675.03,-1271.35 2675.04,-1278.35"/>
<text text-anchor="middle" x="2745.34" y="-1278.64" font-family="Times,serif" font-size="14.00">tar&#45;barrel*14000</text>
</g>
<!-- 1,&#45;1 (fluid=molten&#45;glass Glass, When space, make quartz separate with regular priority, Quartz) -->
<g id="node9" class="node">
<title>1,&#45;1 (fluid=molten&#45;glass Glass, When space, make quartz separate with regular priority, Quartz)</title>
<ellipse fill="none" stroke="black" cx="2221.6" cy="-386.12" rx="457.62" ry="18"/>
<text text-anchor="middle" x="2221.6" y="-382.42" font-family="Times,serif" font-size="14.00">1,&#45;1 (fluid=molten&#45;glass Glass, When space, make quartz separate with regular priority, Quartz)</text>
</g>
<!-- 3,1 (Mining Brick)&#45;&gt;1,&#45;1 (fluid=molten&#45;glass Glass, When space, make quartz separate with regular priority, Quartz) -->
<g id="edge11" class="edge">
<title>3,1 (Mining Brick)&#45;&gt;1,&#45;1 (fluid=molten&#45;glass Glass, When space, make quartz separate with regular priority, Quartz)</title>
<path fill="none" stroke="black" stroke-width="0.27" d="M2582.2,-1256.68C2535.85,-1144.77 2289.07,-548.99 2232.96,-413.54"/>
<polygon fill="black" stroke="black" stroke-width="0.27" points="2236.17,-412.15 2229.11,-404.25 2229.7,-414.82 2236.17,-412.15"/>
<text text-anchor="middle" x="2351.58" y="-838.91" font-family="Times,serif" font-size="14.00">tar&#45;barrel*2488</text>
</g>
<!-- 0,8 (Tar from Coke) -->
<g id="node4" class="node">
<title>0,8 (Tar from Coke)</title>
<ellipse fill="none" stroke="black" cx="444.16" cy="-2163.56" rx="100.98" ry="18"/>
<text text-anchor="middle" x="444.16" y="-2159.86" font-family="Times,serif" font-size="14.00">0,8 (Tar from Coke)</text>
</g>
<!-- 0,8 (Tar from Coke)&#45;&gt;0,3 () -->
<g id="edge3" class="edge">
<title>0,8 (Tar from Coke)&#45;&gt;0,3 ()</title>
<path fill="none" stroke="black" stroke-width="0.09" d="M545.14,-2163.56C879.66,-2163.56 1943.62,-2163.56 2176.34,-2163.56"/>
<polygon fill="black" stroke="black" stroke-width="0.09" points="2176.48,-2167.06 2186.48,-2163.56 2176.48,-2160.06 2176.48,-2167.06"/>
<text text-anchor="middle" x="1309.24" y="-2167.36" font-family="Times,serif" font-size="14.00">tar&#45;barrel*803</text>
</g>
<!-- 0,8 (Tar from Coke)&#45;&gt;3,6 (Phosphoric Acid and Phosphine gas) -->
<g id="edge12" class="edge">
<title>0,8 (Tar from Coke)&#45;&gt;3,6 (Phosphoric Acid and Phosphine gas)</title>
<path fill="none" stroke="black" stroke-width="0.01" d="M484.08,-2180.09C627.88,-2239.66 1119.48,-2443.29 1281,-2510.19"/>
<polygon fill="black" stroke="black" stroke-width="0.01" points="1279.67,-2513.43 1290.25,-2514.02 1282.35,-2506.96 1279.67,-2513.43"/>
<text text-anchor="middle" x="831.04" y="-2348.94" font-family="Times,serif" font-size="14.00">tar&#45;barrel*116</text>
</g>
<!-- 0,8 (Tar from Coke)&#45;&gt;0,7 (Coal Gas) -->
<g id="edge6" class="edge">
<title>0,8 (Tar from Coke)&#45;&gt;0,7 (Coal Gas)</title>
<path fill="none" stroke="black" stroke-width="0.11" d="M436.64,-2145.4C390.29,-2033.49 143.51,-1437.71 87.4,-1302.25"/>
<polygon fill="black" stroke="black" stroke-width="0.11" points="90.61,-1300.86 83.55,-1292.97 84.14,-1303.54 90.61,-1300.86"/>
<text text-anchor="middle" x="206.02" y="-1727.63" font-family="Times,serif" font-size="14.00">tar&#45;barrel*1000</text>
</g>
<!-- 2,&#45;1 (Ammonia) -->
<g id="node7" class="node">
<title>2,&#45;1 (Ammonia)</title>
<ellipse fill="none" stroke="black" cx="1332.88" cy="-18" rx="81.49" ry="18"/>
<text text-anchor="middle" x="1332.88" y="-14.3" font-family="Times,serif" font-size="14.00">2,&#45;1 (Ammonia)</text>
</g>
<!-- 2,&#45;1 (Ammonia)&#45;&gt;0,3 () -->
<g id="edge9" class="edge">
<title>2,&#45;1 (Ammonia)&#45;&gt;0,3 ()</title>
<path fill="none" stroke="black" stroke-width="0.27" d="M1340.43,-36.22C1420.54,-229.61 2113.09,-1901.59 2210.29,-2136.24"/>
<polygon fill="black" stroke="black" stroke-width="0.27" points="2207.16,-2137.85 2214.22,-2145.75 2213.63,-2135.17 2207.16,-2137.85"/>
<text text-anchor="middle" x="1719.36" y="-1090.03" font-family="Times,serif" font-size="14.00">tar&#45;barrel*2480</text>
</g>
<!-- 2,&#45;1 (Ammonia)&#45;&gt;&#45;3,2 (Lead and Solder) -->
<g id="edge7" class="edge">
<title>2,&#45;1 (Ammonia)&#45;&gt;&#45;3,2 (Lead and Solder)</title>
<path fill="none" stroke="black" stroke-width="0.09" d="M1294.41,-33.94C1152.05,-92.9 655.1,-298.75 494.58,-365.24"/>
<polygon fill="black" stroke="black" stroke-width="0.09" points="492.84,-362.17 484.94,-369.23 495.52,-368.63 492.84,-362.17"/>
<text text-anchor="middle" x="842.99" y="-203.39" font-family="Times,serif" font-size="14.00">tar&#45;barrel*832</text>
</g>
<!-- 2,&#45;1 (Ammonia)&#45;&gt;1,&#45;1 (fluid=molten&#45;glass Glass, When space, make quartz separate with regular priority, Quartz) -->
<g id="edge10" class="edge">
<title>2,&#45;1 (Ammonia)&#45;&gt;1,&#45;1 (fluid=molten&#45;glass Glass, When space, make quartz separate with regular priority, Quartz)</title>
<path fill="none" stroke="black" stroke-width="0.02" d="M1371.35,-33.94C1513.04,-92.62 2005.96,-296.8 2168.88,-364.28"/>
<polygon fill="black" stroke="black" stroke-width="0.02" points="2167.64,-367.56 2178.22,-368.15 2170.32,-361.09 2167.64,-367.56"/>
<text text-anchor="middle" x="1718.62" y="-202.91" font-family="Times,serif" font-size="14.00">tar&#45;barrel*172</text>
</g>
</g>
</svg>
