<?xml version="1.0" encoding="UTF-8" standalone="no"?>
<!DOCTYPE svg PUBLIC "-//W3C//DTD SVG 1.1//EN"
 "http://www.w3.org/Graphics/SVG/1.1/DTD/svg11.dtd">
<!-- Generated by graphviz version 2.43.0 (0)
 -->
<!-- Title: %3 Pages: 1 -->
<svg width="929pt" height="633pt"
 viewBox="0.00 0.00 929.33 632.56" xmlns="http://www.w3.org/2000/svg" xmlns:xlink="http://www.w3.org/1999/xlink">
<g id="graph0" class="graph" transform="scale(1 1) rotate(0) translate(4 628.56)">
<title>%3</title>
<polygon fill="white" stroke="transparent" points="-4,4 -4,-628.56 925.33,-628.56 925.33,4 -4,4"/>
<!-- 2,&#45;9 (Cocoons duplicater) -->
<g id="node1" class="node">
<title>2,&#45;9 (Cocoons duplicater)</title>
<ellipse fill="none" stroke="black" cx="126.74" cy="-312.28" rx="126.98" ry="18"/>
<text text-anchor="middle" x="126.74" y="-308.58" font-family="Times,serif" font-size="14.00">2,&#45;9 (Cocoons duplicater)</text>
</g>
<!-- 0,0 (LE BUS) -->
<g id="node2" class="node">
<title>0,0 (LE BUS)</title>
<ellipse fill="none" stroke="black" cx="770.54" cy="-312.28" rx="71.49" ry="18"/>
<text text-anchor="middle" x="770.54" y="-308.58" font-family="Times,serif" font-size="14.00">0,0 (LE BUS)</text>
</g>
<!-- 2,&#45;9 (Cocoons duplicater)&#45;&gt;0,0 (LE BUS) -->
<g id="edge1" class="edge">
<title>2,&#45;9 (Cocoons duplicater)&#45;&gt;0,0 (LE BUS)</title>
<path fill="none" stroke="black" stroke-width="0.94" d="M253.55,-312.28C382.68,-312.28 579.05,-312.28 688.88,-312.28"/>
<polygon fill="black" stroke="black" stroke-width="0.94" points="688.9,-315.78 698.9,-312.28 688.9,-308.78 688.9,-315.78"/>
<text text-anchor="middle" x="420.71" y="-316.08" font-family="Times,serif" font-size="14.00">cocoon*21415</text>
</g>
<!-- 8,5 (Vrauk cocoons) -->
<g id="node3" class="node">
<title>8,5 (Vrauk cocoons)</title>
<ellipse fill="none" stroke="black" cx="770.54" cy="-18" rx="102.08" ry="18"/>
<text text-anchor="middle" x="770.54" y="-14.3" font-family="Times,serif" font-size="14.00">8,5 (Vrauk cocoons)</text>
</g>
<!-- 8,5 (Vrauk cocoons)&#45;&gt;0,0 (LE BUS) -->
<g id="edge2" class="edge">
<title>8,5 (Vrauk cocoons)&#45;&gt;0,0 (LE BUS)</title>
<path fill="none" stroke="black" stroke-width="1.07" d="M770.54,-36.41C770.54,-86.28 770.54,-224.25 770.54,-284.04"/>
<polygon fill="black" stroke="black" stroke-width="1.07" points="767.04,-284.25 770.54,-294.25 774.04,-284.25 767.04,-284.25"/>
<text text-anchor="middle" x="720.04" y="-164.02" font-family="Times,serif" font-size="14.00">cocoon*24366</text>
</g>
<!-- 3,&#45;7 (Vrauk cocoons duplicate) -->
<g id="node4" class="node">
<title>3,&#45;7 (Vrauk cocoons duplicate)</title>
<ellipse fill="none" stroke="black" cx="770.54" cy="-606.56" rx="150.57" ry="18"/>
<text text-anchor="middle" x="770.54" y="-602.86" font-family="Times,serif" font-size="14.00">3,&#45;7 (Vrauk cocoons duplicate)</text>
</g>
<!-- 3,&#45;7 (Vrauk cocoons duplicate)&#45;&gt;0,0 (LE BUS) -->
<g id="edge3" class="edge">
<title>3,&#45;7 (Vrauk cocoons duplicate)&#45;&gt;0,0 (LE BUS)</title>
<path fill="none" stroke="black" stroke-width="0.98" d="M770.54,-588.15C770.54,-538.28 770.54,-400.31 770.54,-340.52"/>
<polygon fill="black" stroke="black" stroke-width="0.98" points="774.04,-340.31 770.54,-330.31 767.04,-340.31 774.04,-340.31"/>
<text text-anchor="middle" x="720.04" y="-468.14" font-family="Times,serif" font-size="14.00">cocoon*22299</text>
</g>
</g>
</svg>
