<?xml version="1.0" encoding="UTF-8" standalone="no"?>
<!DOCTYPE svg PUBLIC "-//W3C//DTD SVG 1.1//EN"
 "http://www.w3.org/Graphics/SVG/1.1/DTD/svg11.dtd">
<!-- Generated by graphviz version 2.43.0 (0)
 -->
<!-- Title: %3 Pages: 1 -->
<svg width="893pt" height="44pt"
 viewBox="0.00 0.00 892.93 44.00" xmlns="http://www.w3.org/2000/svg" xmlns:xlink="http://www.w3.org/1999/xlink">
<g id="graph0" class="graph" transform="scale(1 1) rotate(0) translate(4 40)">
<title>%3</title>
<polygon fill="white" stroke="transparent" points="-4,4 -4,-40 888.93,-40 888.93,4 -4,4"/>
<!-- 4,16 () -->
<g id="node1" class="node">
<title>4,16 ()</title>
<ellipse fill="none" stroke="black" cx="40.95" cy="-18" rx="40.89" ry="18"/>
<text text-anchor="middle" x="40.95" y="-14.3" font-family="Times,serif" font-size="14.00">4,16 ()</text>
</g>
<!-- &#45;6,&#45;3 (Chromite Sand) -->
<g id="node2" class="node">
<title>&#45;6,&#45;3 (Chromite Sand)</title>
<ellipse fill="none" stroke="black" cx="264.38" cy="-18" rx="110.48" ry="18"/>
<text text-anchor="middle" x="264.38" y="-14.3" font-family="Times,serif" font-size="14.00">&#45;6,&#45;3 (Chromite Sand)</text>
</g>
<!-- 4,16 ()&#45;&gt;&#45;6,&#45;3 (Chromite Sand) -->
<g id="edge1" class="edge">
<title>4,16 ()&#45;&gt;&#45;6,&#45;3 (Chromite Sand)</title>
<path fill="none" stroke="black" stroke-width="1.2" d="M81.93,-18C99.63,-18 121.35,-18 143.56,-18"/>
<polygon fill="black" stroke="black" stroke-width="1.2" points="143.78,-21.5 153.78,-18 143.78,-14.5 143.78,-21.5"/>
<text text-anchor="middle" x="112.74" y="-6.8" font-family="Times,serif" font-size="14.00">ore&#45;chromium*90760</text>
</g>
<!-- &#45;3,&#45;1 (item=boron&#45;trioxide Boron products 2) -->
<g id="node3" class="node">
<title>&#45;3,&#45;1 (item=boron&#45;trioxide Boron products 2)</title>
<ellipse fill="none" stroke="black" cx="665.9" cy="-18" rx="219.06" ry="18"/>
<text text-anchor="middle" x="665.9" y="-14.3" font-family="Times,serif" font-size="14.00">&#45;3,&#45;1 (item=boron&#45;trioxide Boron products 2)</text>
</g>
<!-- &#45;3,&#45;1 (item=boron&#45;trioxide Boron products 2)&#45;&gt;&#45;6,&#45;3 (Chromite Sand) -->
<g id="edge2" class="edge">
<title>&#45;3,&#45;1 (item=boron&#45;trioxide Boron products 2)&#45;&gt;&#45;6,&#45;3 (Chromite Sand)</title>
<path fill="none" stroke="black" stroke-width="0.8" d="M446.64,-18C425.57,-18 404.77,-18 385.19,-18"/>
<polygon fill="black" stroke="black" stroke-width="0.8" points="385.06,-14.5 375.06,-18 385.06,-21.5 385.06,-14.5"/>
<text text-anchor="middle" x="377.91" y="-6.8" font-family="Times,serif" font-size="14.00">ore&#45;chromium*60120</text>
</g>
</g>
</svg>
