<?xml version="1.0" encoding="UTF-8" standalone="no"?>
<!DOCTYPE svg PUBLIC "-//W3C//DTD SVG 1.1//EN"
 "http://www.w3.org/Graphics/SVG/1.1/DTD/svg11.dtd">
<!-- Generated by graphviz version 2.43.0 (0)
 -->
<!-- Title: %3 Pages: 1 -->
<svg width="1442pt" height="44pt"
 viewBox="0.00 0.00 1442.25 44.00" xmlns="http://www.w3.org/2000/svg" xmlns:xlink="http://www.w3.org/1999/xlink">
<g id="graph0" class="graph" transform="scale(1 1) rotate(0) translate(4 40)">
<title>%3</title>
<polygon fill="white" stroke="transparent" points="-4,4 -4,-40 1438.25,-40 1438.25,4 -4,4"/>
<!-- 4,&#45;2 (Ceramic) -->
<g id="node1" class="node">
<title>4,&#45;2 (Ceramic)</title>
<ellipse fill="none" stroke="black" cx="600.01" cy="-18" rx="76.89" ry="18"/>
<text text-anchor="middle" x="600.01" y="-14.3" font-family="Times,serif" font-size="14.00">4,&#45;2 (Ceramic)</text>
</g>
<!-- 2,10 (Nickel plate) -->
<g id="node2" class="node">
<title>2,10 (Nickel plate)</title>
<ellipse fill="none" stroke="black" cx="845.54" cy="-18" rx="96.68" ry="18"/>
<text text-anchor="middle" x="845.54" y="-14.3" font-family="Times,serif" font-size="14.00">2,10 (Nickel plate)</text>
</g>
<!-- 4,&#45;2 (Ceramic)&#45;&gt;2,10 (Nickel plate) -->
<g id="edge1" class="edge">
<title>4,&#45;2 (Ceramic)&#45;&gt;2,10 (Nickel plate)</title>
<path fill="none" stroke="black" stroke-width="1.89" d="M677.02,-18C696.48,-18 717.73,-18 738.38,-18"/>
<polygon fill="black" stroke="black" stroke-width="1.89" points="738.46,-21.5 748.46,-18 738.46,-14.5 738.46,-21.5"/>
<text text-anchor="middle" x="707.7" y="-6.8" font-family="Times,serif" font-size="14.00">ore&#45;nickel*60496</text>
</g>
<!-- 4,11 (Cobalt Extract) -->
<g id="node3" class="node">
<title>4,11 (Cobalt Extract)</title>
<ellipse fill="none" stroke="black" cx="108.54" cy="-18" rx="108.58" ry="18"/>
<text text-anchor="middle" x="108.54" y="-14.3" font-family="Times,serif" font-size="14.00">4,11 (Cobalt Extract)</text>
</g>
<!-- 4,&#45;2 (Ceramic)&#45;&gt;4,11 (Cobalt Extract) -->
<g id="edge2" class="edge">
<title>4,&#45;2 (Ceramic)&#45;&gt;4,11 (Cobalt Extract)</title>
<path fill="none" stroke="black" stroke-width="0.16" d="M523.21,-18C443.98,-18 319.32,-18 227.36,-18"/>
<polygon fill="black" stroke="black" stroke-width="0.16" points="227.16,-14.5 217.16,-18 227.16,-21.5 227.16,-14.5"/>
<text text-anchor="middle" x="318.79" y="-21.8" font-family="Times,serif" font-size="14.00">ore&#45;nickel*5152</text>
</g>
<!-- &#45;3,&#45;1 (item=boron&#45;trioxide Boron products) -->
<g id="node4" class="node">
<title>&#45;3,&#45;1 (item=boron&#45;trioxide Boron products)</title>
<ellipse fill="none" stroke="black" cx="1224.31" cy="-18" rx="209.86" ry="18"/>
<text text-anchor="middle" x="1224.31" y="-14.3" font-family="Times,serif" font-size="14.00">&#45;3,&#45;1 (item=boron&#45;trioxide Boron products)</text>
</g>
<!-- &#45;3,&#45;1 (item=boron&#45;trioxide Boron products)&#45;&gt;2,10 (Nickel plate) -->
<g id="edge3" class="edge">
<title>&#45;3,&#45;1 (item=boron&#45;trioxide Boron products)&#45;&gt;2,10 (Nickel plate)</title>
<path fill="none" stroke="black" stroke-width="0.95" d="M1014.16,-18C992.96,-18 972.12,-18 952.7,-18"/>
<polygon fill="black" stroke="black" stroke-width="0.95" points="952.69,-14.5 942.69,-18 952.69,-21.5 952.69,-14.5"/>
<text text-anchor="middle" x="952.93" y="-6.8" font-family="Times,serif" font-size="14.00">ore&#45;nickel*30416</text>
</g>
</g>
</svg>
