<?xml version="1.0" encoding="UTF-8" standalone="no"?>
<!DOCTYPE svg PUBLIC "-//W3C//DTD SVG 1.1//EN"
 "http://www.w3.org/Graphics/SVG/1.1/DTD/svg11.dtd">
<!-- Generated by graphviz version 2.43.0 (0)
 -->
<!-- Title: %3 Pages: 1 -->
<svg width="834pt" height="44pt"
 viewBox="0.00 0.00 834.44 44.00" xmlns="http://www.w3.org/2000/svg" xmlns:xlink="http://www.w3.org/1999/xlink">
<g id="graph0" class="graph" transform="scale(1 1) rotate(0) translate(4 40)">
<title>%3</title>
<polygon fill="white" stroke="transparent" points="-4,4 -4,-40 830.44,-40 830.44,4 -4,4"/>
<!-- 1,2 (Korlex milking) -->
<g id="node1" class="node">
<title>1,2 (Korlex milking)</title>
<ellipse fill="none" stroke="black" cx="381.37" cy="-18" rx="102.88" ry="18"/>
<text text-anchor="middle" x="381.37" y="-14.3" font-family="Times,serif" font-size="14.00">1,2 (Korlex milking)</text>
</g>
<!-- 1,4 (Casein and Melamine) -->
<g id="node2" class="node">
<title>1,4 (Casein and Melamine)</title>
<ellipse fill="none" stroke="black" cx="691.25" cy="-18" rx="135.38" ry="18"/>
<text text-anchor="middle" x="691.25" y="-14.3" font-family="Times,serif" font-size="14.00">1,4 (Casein and Melamine)</text>
</g>
<!-- 1,2 (Korlex milking)&#45;&gt;1,4 (Casein and Melamine) -->
<g id="edge1" class="edge">
<title>1,2 (Korlex milking)&#45;&gt;1,4 (Casein and Melamine)</title>
<path fill="none" stroke="black" stroke-width="1.06" d="M484.13,-18C503.89,-18 524.93,-18 545.74,-18"/>
<polygon fill="black" stroke="black" stroke-width="1.06" points="545.93,-21.5 555.93,-18 545.93,-14.5 545.93,-21.5"/>
<text text-anchor="middle" x="545.43" y="-6.8" font-family="Times,serif" font-size="14.00">milk&#45;barrel*3368</text>
</g>
<!-- 0,0 (LE BUS) -->
<g id="node3" class="node">
<title>0,0 (LE BUS)</title>
<ellipse fill="none" stroke="black" cx="71.49" cy="-18" rx="71.49" ry="18"/>
<text text-anchor="middle" x="71.49" y="-14.3" font-family="Times,serif" font-size="14.00">0,0 (LE BUS)</text>
</g>
<!-- 1,2 (Korlex milking)&#45;&gt;0,0 (LE BUS) -->
<g id="edge2" class="edge">
<title>1,2 (Korlex milking)&#45;&gt;0,0 (LE BUS)</title>
<path fill="none" stroke="black" stroke-width="0.94" d="M278.62,-18C237.86,-18 191.65,-18 153.24,-18"/>
<polygon fill="black" stroke="black" stroke-width="0.94" points="153.14,-14.5 143.14,-18 153.14,-21.5 153.14,-14.5"/>
<text text-anchor="middle" x="215.93" y="-6.8" font-family="Times,serif" font-size="14.00">milk&#45;barrel*3000</text>
</g>
</g>
</svg>
