<?xml version="1.0" encoding="UTF-8" standalone="no"?>
<!DOCTYPE svg PUBLIC "-//W3C//DTD SVG 1.1//EN"
 "http://www.w3.org/Graphics/SVG/1.1/DTD/svg11.dtd">
<!-- Generated by graphviz version 2.43.0 (0)
 -->
<!-- Title: %3 Pages: 1 -->
<svg width="1390pt" height="44pt"
 viewBox="0.00 0.00 1390.14 44.00" xmlns="http://www.w3.org/2000/svg" xmlns:xlink="http://www.w3.org/1999/xlink">
<g id="graph0" class="graph" transform="scale(1 1) rotate(0) translate(4 40)">
<title>%3</title>
<polygon fill="white" stroke="transparent" points="-4,4 -4,-40 1386.14,-40 1386.14,4 -4,4"/>
<!-- 4,2 (More fiberboard) -->
<g id="node1" class="node">
<title>4,2 (More fiberboard)</title>
<ellipse fill="none" stroke="black" cx="747.29" cy="-18" rx="111.28" ry="18"/>
<text text-anchor="middle" x="747.29" y="-14.3" font-family="Times,serif" font-size="14.00">4,2 (More fiberboard)</text>
</g>
<!-- 2,4 (Formica and Phenolic boards) -->
<g id="node2" class="node">
<title>2,4 (Formica and Phenolic boards)</title>
<ellipse fill="none" stroke="black" cx="1212.51" cy="-18" rx="169.77" ry="18"/>
<text text-anchor="middle" x="1212.51" y="-14.3" font-family="Times,serif" font-size="14.00">2,4 (Formica and Phenolic boards)</text>
</g>
<!-- 4,2 (More fiberboard)&#45;&gt;2,4 (Formica and Phenolic boards) -->
<g id="edge1" class="edge">
<title>4,2 (More fiberboard)&#45;&gt;2,4 (Formica and Phenolic boards)</title>
<path fill="none" stroke="black" stroke-width="1.78" d="M858.72,-18C910.69,-18 973.85,-18 1032.34,-18"/>
<polygon fill="black" stroke="black" stroke-width="1.78" points="1032.44,-21.5 1042.44,-18 1032.44,-14.5 1032.44,-21.5"/>
<text text-anchor="middle" x="945.53" y="-6.8" font-family="Times,serif" font-size="14.00">fiberboard*118848</text>
</g>
<!-- 5,&#45;1 (Drilling Fluid Type 2, I think my maths is backwards) -->
<g id="node3" class="node">
<title>5,&#45;1 (Drilling Fluid Type 2, I think my maths is backwards)</title>
<ellipse fill="none" stroke="black" cx="282.07" cy="-18" rx="282.15" ry="18"/>
<text text-anchor="middle" x="282.07" y="-14.3" font-family="Times,serif" font-size="14.00">5,&#45;1 (Drilling Fluid Type 2, I think my maths is backwards)</text>
</g>
<!-- 4,2 (More fiberboard)&#45;&gt;5,&#45;1 (Drilling Fluid Type 2, I think my maths is backwards) -->
<g id="edge2" class="edge">
<title>4,2 (More fiberboard)&#45;&gt;5,&#45;1 (Drilling Fluid Type 2, I think my maths is backwards)</title>
<path fill="none" stroke="black" stroke-width="0.22" d="M635.86,-18C616.71,-18 596.05,-18 574.66,-18"/>
<polygon fill="black" stroke="black" stroke-width="0.22" points="574.45,-14.5 564.45,-18 574.45,-21.5 574.45,-14.5"/>
<text text-anchor="middle" x="573.51" y="-6.8" font-family="Times,serif" font-size="14.00">fiberboard*15040</text>
</g>
</g>
</svg>
