<?xml version="1.0" encoding="UTF-8" standalone="no"?>
<!DOCTYPE svg PUBLIC "-//W3C//DTD SVG 1.1//EN"
 "http://www.w3.org/Graphics/SVG/1.1/DTD/svg11.dtd">
<!-- Generated by graphviz version 2.43.0 (0)
 -->
<!-- Title: %3 Pages: 1 -->
<svg width="1005pt" height="44pt"
 viewBox="0.00 0.00 1005.37 44.00" xmlns="http://www.w3.org/2000/svg" xmlns:xlink="http://www.w3.org/1999/xlink">
<g id="graph0" class="graph" transform="scale(1 1) rotate(0) translate(4 40)">
<title>%3</title>
<polygon fill="white" stroke="transparent" points="-4,4 -4,-40 1001.37,-40 1001.37,4 -4,4"/>
<!-- &#45;4,2 (This line not currently using manure, Ralesia seeds) -->
<g id="node1" class="node">
<title>&#45;4,2 (This line not currently using manure, Ralesia seeds)</title>
<ellipse fill="none" stroke="black" cx="523.06" cy="-18" rx="276.75" ry="18"/>
<text text-anchor="middle" x="523.06" y="-14.3" font-family="Times,serif" font-size="14.00">&#45;4,2 (This line not currently using manure, Ralesia seeds)</text>
</g>
<!-- &#45;4,1 () -->
<g id="node2" class="node">
<title>&#45;4,1 ()</title>
<ellipse fill="none" stroke="black" cx="959.03" cy="-18" rx="38.19" ry="18"/>
<text text-anchor="middle" x="959.03" y="-14.3" font-family="Times,serif" font-size="14.00">&#45;4,1 ()</text>
</g>
<!-- &#45;4,2 (This line not currently using manure, Ralesia seeds)&#45;&gt;&#45;4,1 () -->
<g id="edge1" class="edge">
<title>&#45;4,2 (This line not currently using manure, Ralesia seeds)&#45;&gt;&#45;4,1 ()</title>
<path fill="none" stroke="black" stroke-width="1.55" d="M800.09,-18C842.49,-18 881.66,-18 910.5,-18"/>
<polygon fill="black" stroke="black" stroke-width="1.55" points="910.65,-21.5 920.65,-18 910.65,-14.5 910.65,-21.5"/>
<text text-anchor="middle" x="855.3" y="-6.8" font-family="Times,serif" font-size="14.00">ralesia&#45;seeds*103520</text>
</g>
<!-- 4,7 (Cottonguts) -->
<g id="node3" class="node">
<title>4,7 (Cottonguts)</title>
<ellipse fill="none" stroke="black" cx="87.09" cy="-18" rx="87.18" ry="18"/>
<text text-anchor="middle" x="87.09" y="-14.3" font-family="Times,serif" font-size="14.00">4,7 (Cottonguts)</text>
</g>
<!-- &#45;4,2 (This line not currently using manure, Ralesia seeds)&#45;&gt;4,7 (Cottonguts) -->
<g id="edge2" class="edge">
<title>&#45;4,2 (This line not currently using manure, Ralesia seeds)&#45;&gt;4,7 (Cottonguts)</title>
<path fill="none" stroke="black" stroke-width="0.45" d="M246.03,-18C224.36,-18 203.53,-18 184.49,-18"/>
<polygon fill="black" stroke="black" stroke-width="0.45" points="184.4,-14.5 174.4,-18 184.4,-21.5 184.4,-14.5"/>
<text text-anchor="middle" x="179.01" y="-6.8" font-family="Times,serif" font-size="14.00">ralesia&#45;seeds*30272</text>
</g>
</g>
</svg>
