<?xml version="1.0" encoding="UTF-8" standalone="no"?>
<!DOCTYPE svg PUBLIC "-//W3C//DTD SVG 1.1//EN"
 "http://www.w3.org/Graphics/SVG/1.1/DTD/svg11.dtd">
<!-- Generated by graphviz version 2.43.0 (0)
 -->
<!-- Title: %3 Pages: 1 -->
<svg width="881pt" height="788pt"
 viewBox="0.00 0.00 880.73 787.63" xmlns="http://www.w3.org/2000/svg" xmlns:xlink="http://www.w3.org/1999/xlink">
<g id="graph0" class="graph" transform="scale(1 1) rotate(0) translate(4 783.63)">
<title>%3</title>
<polygon fill="white" stroke="transparent" points="-4,4 -4,-783.63 876.73,-783.63 876.73,4 -4,4"/>
<!-- &#45;3,4 (Lard from Cottonguts) -->
<g id="node1" class="node">
<title>&#45;3,4 (Lard from Cottonguts)</title>
<ellipse fill="none" stroke="black" cx="390.61" cy="-398.18" rx="139.18" ry="18"/>
<text text-anchor="middle" x="390.61" y="-394.48" font-family="Times,serif" font-size="14.00">&#45;3,4 (Lard from Cottonguts)</text>
</g>
<!-- 0,0 (LE BUS) -->
<g id="node2" class="node">
<title>0,0 (LE BUS)</title>
<ellipse fill="none" stroke="black" cx="801.23" cy="-398.18" rx="71.49" ry="18"/>
<text text-anchor="middle" x="801.23" y="-394.48" font-family="Times,serif" font-size="14.00">0,0 (LE BUS)</text>
</g>
<!-- &#45;3,4 (Lard from Cottonguts)&#45;&gt;0,0 (LE BUS) -->
<g id="edge1" class="edge">
<title>&#45;3,4 (Lard from Cottonguts)&#45;&gt;0,0 (LE BUS)</title>
<path fill="none" stroke="black" stroke-width="1.26" d="M529.92,-398.18C592.95,-398.18 665.28,-398.18 719.4,-398.18"/>
<polygon fill="black" stroke="black" stroke-width="1.26" points="719.63,-401.68 729.63,-398.18 719.63,-394.68 719.63,-401.68"/>
<text text-anchor="middle" x="624.66" y="-386.98" font-family="Times,serif" font-size="14.00">mukmoux&#45;fat*32880</text>
</g>
<!-- 4,6 (Circuit substrate and Doped silicon) -->
<g id="node3" class="node">
<title>4,6 (Circuit substrate and Doped silicon)</title>
<ellipse fill="none" stroke="black" cx="199.53" cy="-761.63" rx="199.56" ry="18"/>
<text text-anchor="middle" x="199.53" y="-757.93" font-family="Times,serif" font-size="14.00">4,6 (Circuit substrate and Doped silicon)</text>
</g>
<!-- &#45;3,4 (Lard from Cottonguts)&#45;&gt;4,6 (Circuit substrate and Doped silicon) -->
<g id="edge2" class="edge">
<title>&#45;3,4 (Lard from Cottonguts)&#45;&gt;4,6 (Circuit substrate and Doped silicon)</title>
<path fill="none" stroke="black" stroke-width="0.78" d="M381.14,-416.2C350.07,-475.3 251.14,-663.47 213.9,-734.31"/>
<polygon fill="black" stroke="black" stroke-width="0.78" points="210.62,-733.02 209.07,-743.5 216.82,-736.28 210.62,-733.02"/>
<text text-anchor="middle" x="225.02" y="-579.05" font-family="Times,serif" font-size="14.00">mukmoux&#45;fat*20416</text>
</g>
<!-- 2,&#45;2 (Tin Plate, Organic Solvent) -->
<g id="node4" class="node">
<title>2,&#45;2 (Tin Plate, Organic Solvent)</title>
<ellipse fill="none" stroke="black" cx="235.46" cy="-18" rx="159.77" ry="18"/>
<text text-anchor="middle" x="235.46" y="-14.3" font-family="Times,serif" font-size="14.00">2,&#45;2 (Tin Plate, Organic Solvent)</text>
</g>
<!-- &#45;3,4 (Lard from Cottonguts)&#45;&gt;2,&#45;2 (Tin Plate, Organic Solvent) -->
<g id="edge3" class="edge">
<title>&#45;3,4 (Lard from Cottonguts)&#45;&gt;2,&#45;2 (Tin Plate, Organic Solvent)</title>
<path fill="none" stroke="black" stroke-width="0.96" d="M383.23,-380.1C358.27,-318.93 276.87,-119.48 246.78,-45.74"/>
<polygon fill="black" stroke="black" stroke-width="0.96" points="249.9,-44.13 242.88,-36.19 243.42,-46.77 249.9,-44.13"/>
<text text-anchor="middle" x="242.51" y="-216.72" font-family="Times,serif" font-size="14.00">mukmoux&#45;fat*25040</text>
</g>
</g>
</svg>
