<?xml version="1.0" encoding="UTF-8" standalone="no"?>
<!DOCTYPE svg PUBLIC "-//W3C//DTD SVG 1.1//EN"
 "http://www.w3.org/Graphics/SVG/1.1/DTD/svg11.dtd">
<!-- Generated by graphviz version 2.43.0 (0)
 -->
<!-- Title: %3 Pages: 1 -->
<svg width="888pt" height="625pt"
 viewBox="0.00 0.00 888.29 624.99" xmlns="http://www.w3.org/2000/svg" xmlns:xlink="http://www.w3.org/1999/xlink">
<g id="graph0" class="graph" transform="scale(1 1) rotate(0) translate(4 620.99)">
<title>%3</title>
<polygon fill="white" stroke="transparent" points="-4,4 -4,-620.99 884.29,-620.99 884.29,4 -4,4"/>
<!-- 1,0 () -->
<g id="node1" class="node">
<title>1,0 ()</title>
<ellipse fill="none" stroke="black" cx="382.57" cy="-303.52" rx="35.19" ry="18"/>
<text text-anchor="middle" x="382.57" y="-299.82" font-family="Times,serif" font-size="14.00">1,0 ()</text>
</g>
<!-- 2,4 (Formica and Phenolic boards) -->
<g id="node2" class="node">
<title>2,4 (Formica and Phenolic boards)</title>
<ellipse fill="none" stroke="black" cx="710.65" cy="-303.52" rx="169.77" ry="18"/>
<text text-anchor="middle" x="710.65" y="-299.82" font-family="Times,serif" font-size="14.00">2,4 (Formica and Phenolic boards)</text>
</g>
<!-- 1,0 ()&#45;&gt;2,4 (Formica and Phenolic boards) -->
<g id="edge1" class="edge">
<title>1,0 ()&#45;&gt;2,4 (Formica and Phenolic boards)</title>
<path fill="none" stroke="black" stroke-width="2.36" d="M417.68,-303.52C445.75,-303.52 487.41,-303.52 530.57,-303.52"/>
<polygon fill="black" stroke="black" stroke-width="2.36" points="530.68,-307.02 540.68,-303.52 530.68,-300.02 530.68,-307.02"/>
<text text-anchor="middle" x="474.13" y="-292.32" font-family="Times,serif" font-size="14.00">methane&#45;barrel*7784</text>
</g>
<!-- 4,6 (Circuit substrate and Doped silicon) -->
<g id="node3" class="node">
<title>4,6 (Circuit substrate and Doped silicon)</title>
<ellipse fill="none" stroke="black" cx="239.98" cy="-598.99" rx="199.56" ry="18"/>
<text text-anchor="middle" x="239.98" y="-595.29" font-family="Times,serif" font-size="14.00">4,6 (Circuit substrate and Doped silicon)</text>
</g>
<!-- 1,0 ()&#45;&gt;4,6 (Circuit substrate and Doped silicon) -->
<g id="edge2" class="edge">
<title>1,0 ()&#45;&gt;4,6 (Circuit substrate and Doped silicon)</title>
<path fill="none" stroke="black" stroke-width="0.56" d="M374.08,-321.12C350.17,-370.66 282.15,-511.61 253.24,-571.51"/>
<polygon fill="black" stroke="black" stroke-width="0.56" points="249.98,-570.21 248.79,-580.73 256.29,-573.25 249.98,-570.21"/>
<text text-anchor="middle" x="236.66" y="-450.12" font-family="Times,serif" font-size="14.00">methane&#45;barrel*1864</text>
</g>
<!-- 7,1 (item=aerogel item=clean&#45;rf&#45;gel Aerogel) -->
<g id="node4" class="node">
<title>7,1 (item=aerogel item=clean&#45;rf&#45;gel Aerogel)</title>
<ellipse fill="none" stroke="black" cx="220.98" cy="-18" rx="220.96" ry="18"/>
<text text-anchor="middle" x="220.98" y="-14.3" font-family="Times,serif" font-size="14.00">7,1 (item=aerogel item=clean&#45;rf&#45;gel Aerogel)</text>
</g>
<!-- 1,0 ()&#45;&gt;7,1 (item=aerogel item=clean&#45;rf&#45;gel Aerogel) -->
<g id="edge3" class="edge">
<title>1,0 ()&#45;&gt;7,1 (item=aerogel item=clean&#45;rf&#45;gel Aerogel)</title>
<path fill="none" stroke="black" stroke-width="0.08" d="M372.71,-286.09C345.51,-238.03 269.3,-103.38 236.41,-45.27"/>
<polygon fill="black" stroke="black" stroke-width="0.08" points="239.31,-43.28 231.34,-36.3 233.22,-46.73 239.31,-43.28"/>
<text text-anchor="middle" x="232.06" y="-169.48" font-family="Times,serif" font-size="14.00">methane&#45;barrel*256</text>
</g>
</g>
</svg>
