<?xml version="1.0" encoding="UTF-8" standalone="no"?>
<!DOCTYPE svg PUBLIC "-//W3C//DTD SVG 1.1//EN"
 "http://www.w3.org/Graphics/SVG/1.1/DTD/svg11.dtd">
<!-- Generated by graphviz version 2.43.0 (0)
 -->
<!-- Title: %3 Pages: 1 -->
<svg width="1050pt" height="747pt"
 viewBox="0.00 0.00 1049.75 747.02" xmlns="http://www.w3.org/2000/svg" xmlns:xlink="http://www.w3.org/1999/xlink">
<g id="graph0" class="graph" transform="scale(1 1) rotate(0) translate(4 743.02)">
<title>%3</title>
<polygon fill="white" stroke="transparent" points="-4,4 -4,-743.02 1045.75,-743.02 1045.75,4 -4,4"/>
<!-- &#45;6,7 (Iron ore dust) -->
<g id="node1" class="node">
<title>&#45;6,7 (Iron ore dust)</title>
<ellipse fill="none" stroke="black" cx="250.48" cy="-204.18" rx="98.58" ry="18"/>
<text text-anchor="middle" x="250.48" y="-200.48" font-family="Times,serif" font-size="14.00">&#45;6,7 (Iron ore dust)</text>
</g>
<!-- 1,12 (Molten Iron) -->
<g id="node2" class="node">
<title>1,12 (Molten Iron)</title>
<ellipse fill="none" stroke="black" cx="101.28" cy="-462.6" rx="95.58" ry="18"/>
<text text-anchor="middle" x="101.28" y="-458.9" font-family="Times,serif" font-size="14.00">1,12 (Molten Iron)</text>
</g>
<!-- &#45;6,7 (Iron ore dust)&#45;&gt;1,12 (Molten Iron) -->
<g id="edge1" class="edge">
<title>&#45;6,7 (Iron ore dust)&#45;&gt;1,12 (Molten Iron)</title>
<path fill="none" stroke="black" stroke-width="3.25" d="M239.99,-222.36C214.15,-267.12 147.32,-382.87 116.84,-435.65"/>
<polygon fill="black" stroke="black" stroke-width="3.25" points="113.73,-434.04 111.76,-444.45 119.79,-437.54 113.73,-434.04"/>
<text text-anchor="middle" x="101.42" y="-332.8" font-family="Times,serif" font-size="14.00">iron&#45;ore&#45;dust*352896</text>
</g>
<!-- &#45;5,8 (Moar Molten Iron) -->
<g id="node3" class="node">
<title>&#45;5,8 (Moar Molten Iron)</title>
<ellipse fill="none" stroke="black" cx="548.88" cy="-204.18" rx="120.48" ry="18"/>
<text text-anchor="middle" x="548.88" y="-200.48" font-family="Times,serif" font-size="14.00">&#45;5,8 (Moar Molten Iron)</text>
</g>
<!-- &#45;6,7 (Iron ore dust)&#45;&gt;&#45;5,8 (Moar Molten Iron) -->
<g id="edge2" class="edge">
<title>&#45;6,7 (Iron ore dust)&#45;&gt;&#45;5,8 (Moar Molten Iron)</title>
<path fill="none" stroke="black" stroke-width="1.11" d="M349.43,-204.18C371.45,-204.18 395.12,-204.18 418.19,-204.18"/>
<polygon fill="black" stroke="black" stroke-width="1.11" points="418.39,-207.68 428.39,-204.18 418.39,-200.68 418.39,-207.68"/>
<text text-anchor="middle" x="383.81" y="-192.98" font-family="Times,serif" font-size="14.00">iron&#45;ore&#45;dust*120480</text>
</g>
<!-- &#45;1,10 (Iron Plates) -->
<g id="node5" class="node">
<title>&#45;1,10 (Iron Plates)</title>
<ellipse fill="none" stroke="black" cx="250.48" cy="-721.02" rx="94.78" ry="18"/>
<text text-anchor="middle" x="250.48" y="-717.32" font-family="Times,serif" font-size="14.00">&#45;1,10 (Iron Plates)</text>
</g>
<!-- &#45;6,7 (Iron ore dust)&#45;&gt;&#45;1,10 (Iron Plates) -->
<g id="edge8" class="edge">
<title>&#45;6,7 (Iron ore dust)&#45;&gt;&#45;1,10 (Iron Plates)</title>
<path fill="none" stroke="black" stroke-width="1.16" d="M250.48,-222.28C250.48,-299.1 250.48,-598.63 250.48,-692.64"/>
<polygon fill="black" stroke="black" stroke-width="1.16" points="246.98,-692.81 250.48,-702.81 253.98,-692.81 246.98,-692.81"/>
<text text-anchor="middle" x="327.48" y="-446.26" font-family="Times,serif" font-size="14.00">iron&#45;ore&#45;dust*125568</text>
</g>
<!-- &#45;2,9 (molten steel) -->
<g id="node6" class="node">
<title>&#45;2,9 (molten steel)</title>
<ellipse fill="none" stroke="black" cx="548.88" cy="-721.02" rx="95.58" ry="18"/>
<text text-anchor="middle" x="548.88" y="-717.32" font-family="Times,serif" font-size="14.00">&#45;2,9 (molten steel)</text>
</g>
<!-- &#45;6,7 (Iron ore dust)&#45;&gt;&#45;2,9 (molten steel) -->
<g id="edge6" class="edge">
<title>&#45;6,7 (Iron ore dust)&#45;&gt;&#45;2,9 (molten steel)</title>
<path fill="none" stroke="black" stroke-width="0.92" d="M260.93,-222.28C305.55,-299.57 480.37,-602.36 533.48,-694.36"/>
<polygon fill="black" stroke="black" stroke-width="0.92" points="530.48,-696.17 538.52,-703.08 536.55,-692.67 530.48,-696.17"/>
<text text-anchor="middle" x="320.2" y="-462.12" font-family="Times,serif" font-size="14.00">iron&#45;ore&#45;dust*100176</text>
</g>
<!-- 4,13 (Chromium processing) -->
<g id="node8" class="node">
<title>4,13 (Chromium processing)</title>
<ellipse fill="none" stroke="black" cx="142.99" cy="-18" rx="142.97" ry="18"/>
<text text-anchor="middle" x="142.99" y="-14.3" font-family="Times,serif" font-size="14.00">4,13 (Chromium processing)</text>
</g>
<!-- &#45;6,7 (Iron ore dust)&#45;&gt;4,13 (Chromium processing) -->
<g id="edge10" class="edge">
<title>&#45;6,7 (Iron ore dust)&#45;&gt;4,13 (Chromium processing)</title>
<path fill="none" stroke="black" stroke-width="0.18" d="M239.98,-185.99C220.98,-153.1 180.84,-83.56 158.61,-45.07"/>
<polygon fill="black" stroke="black" stroke-width="0.18" points="161.41,-42.9 153.37,-35.99 155.34,-46.4 161.41,-42.9"/>
<text text-anchor="middle" x="126.8" y="-119.33" font-family="Times,serif" font-size="14.00">iron&#45;ore&#45;dust*20064</text>
</g>
<!-- 1,10 (Iron Ore Dust) -->
<g id="node4" class="node">
<title>1,10 (Iron Ore Dust)</title>
<ellipse fill="none" stroke="black" cx="698.07" cy="-462.6" rx="104.78" ry="18"/>
<text text-anchor="middle" x="698.07" y="-458.9" font-family="Times,serif" font-size="14.00">1,10 (Iron Ore Dust)</text>
</g>
<!-- 1,10 (Iron Ore Dust)&#45;&gt;1,12 (Molten Iron) -->
<g id="edge5" class="edge">
<title>1,10 (Iron Ore Dust)&#45;&gt;1,12 (Molten Iron)</title>
<path fill="none" stroke="black" stroke-width="1.03" d="M593.1,-462.6C484.61,-462.6 316.18,-462.6 207.31,-462.6"/>
<polygon fill="black" stroke="black" stroke-width="1.03" points="207.29,-459.1 197.29,-462.6 207.29,-466.1 207.29,-459.1"/>
<text text-anchor="middle" x="477.2" y="-466.4" font-family="Times,serif" font-size="14.00">iron&#45;ore&#45;dust*112416</text>
</g>
<!-- 1,10 (Iron Ore Dust)&#45;&gt;&#45;5,8 (Moar Molten Iron) -->
<g id="edge3" class="edge">
<title>1,10 (Iron Ore Dust)&#45;&gt;&#45;5,8 (Moar Molten Iron)</title>
<path fill="none" stroke="black" stroke-width="0.68" d="M687.58,-444.43C661.74,-399.67 594.91,-283.92 564.44,-231.13"/>
<polygon fill="black" stroke="black" stroke-width="0.68" points="567.39,-229.25 559.36,-222.34 561.32,-232.75 567.39,-229.25"/>
<text text-anchor="middle" x="553.51" y="-341.58" font-family="Times,serif" font-size="14.00">iron&#45;ore&#45;dust*74080</text>
</g>
<!-- 1,10 (Iron Ore Dust)&#45;&gt;&#45;1,10 (Iron Plates) -->
<g id="edge4" class="edge">
<title>1,10 (Iron Ore Dust)&#45;&gt;&#45;1,10 (Iron Plates)</title>
<path fill="none" stroke="black" stroke-width="0.93" d="M668.01,-479.96C589.16,-525.48 376.48,-648.27 288.93,-698.82"/>
<polygon fill="black" stroke="black" stroke-width="0.93" points="287.03,-695.88 280.12,-703.91 290.53,-701.94 287.03,-695.88"/>
<text text-anchor="middle" x="401.47" y="-593.19" font-family="Times,serif" font-size="14.00">iron&#45;ore&#45;dust*100752</text>
</g>
<!-- 1,10 (Iron Ore Dust)&#45;&gt;&#45;2,9 (molten steel) -->
<g id="edge9" class="edge">
<title>1,10 (Iron Ore Dust)&#45;&gt;&#45;2,9 (molten steel)</title>
<path fill="none" stroke="black" stroke-width="0.69" d="M687.58,-480.77C661.74,-525.53 594.91,-641.29 564.44,-694.07"/>
<polygon fill="black" stroke="black" stroke-width="0.69" points="561.32,-692.46 559.36,-702.87 567.39,-695.96 561.32,-692.46"/>
<text text-anchor="middle" x="553.51" y="-591.22" font-family="Times,serif" font-size="14.00">iron&#45;ore&#45;dust*75312</text>
</g>
<!-- &#45;7,&#45;2 (Uranium Processing) -->
<g id="node7" class="node">
<title>&#45;7,&#45;2 (Uranium Processing)</title>
<ellipse fill="none" stroke="black" cx="905.91" cy="-462.6" rx="135.68" ry="18"/>
<text text-anchor="middle" x="905.91" y="-458.9" font-family="Times,serif" font-size="14.00">&#45;7,&#45;2 (Uranium Processing)</text>
</g>
<!-- 1,10 (Iron Ore Dust)&#45;&gt;&#45;7,&#45;2 (Uranium Processing) -->
<g id="edge7" class="edge">
<title>1,10 (Iron Ore Dust)&#45;&gt;&#45;7,&#45;2 (Uranium Processing)</title>
<path fill="none" stroke="black" stroke-width="0.05" d="M802.91,-462.6C802.96,-462.6 803.01,-462.6 803.06,-462.6"/>
<polygon fill="black" stroke="black" stroke-width="0.05" points="793.21,-466.11 803.21,-462.6 793.21,-459.11 793.21,-466.11"/>
<text text-anchor="middle" x="870.98" y="-466.4" font-family="Times,serif" font-size="14.00">iron&#45;ore&#45;dust*5008</text>
</g>
</g>
</svg>
