<?xml version="1.0" encoding="UTF-8" standalone="no"?>
<!DOCTYPE svg PUBLIC "-//W3C//DTD SVG 1.1//EN"
 "http://www.w3.org/Graphics/SVG/1.1/DTD/svg11.dtd">
<!-- Generated by graphviz version 2.43.0 (0)
 -->
<!-- Title: %3 Pages: 1 -->
<svg width="1951pt" height="1193pt"
 viewBox="0.00 0.00 1950.89 1192.87" xmlns="http://www.w3.org/2000/svg" xmlns:xlink="http://www.w3.org/1999/xlink">
<g id="graph0" class="graph" transform="scale(1 1) rotate(0) translate(4 1188.87)">
<title>%3</title>
<polygon fill="white" stroke="transparent" points="-4,4 -4,-1188.87 1946.89,-1188.87 1946.89,4 -4,4"/>
<!-- &#45;5,0 (item=small&#45;lampitem=petri&#45;dish Lamptri dishes) -->
<g id="node1" class="node">
<title>&#45;5,0 (item=small&#45;lampitem=petri&#45;dish Lamptri dishes)</title>
<ellipse fill="none" stroke="black" cx="347.46" cy="-125.01" rx="263.75" ry="18"/>
<text text-anchor="middle" x="347.46" y="-121.31" font-family="Times,serif" font-size="14.00">&#45;5,0 (item=small&#45;lampitem=petri&#45;dish Lamptri dishes)</text>
</g>
<!-- &#45;6,4 (Urea) -->
<g id="node2" class="node">
<title>&#45;6,4 (Urea)</title>
<ellipse fill="none" stroke="black" cx="61.09" cy="-621" rx="61.19" ry="18"/>
<text text-anchor="middle" x="61.09" y="-617.3" font-family="Times,serif" font-size="14.00">&#45;6,4 (Urea)</text>
</g>
<!-- &#45;5,0 (item=small&#45;lampitem=petri&#45;dish Lamptri dishes)&#45;&gt;&#45;6,4 (Urea) -->
<g id="edge1" class="edge">
<title>&#45;5,0 (item=small&#45;lampitem=petri&#45;dish Lamptri dishes)&#45;&gt;&#45;6,4 (Urea)</title>
<path fill="none" stroke="black" stroke-width="0.05" d="M336.92,-143.25C293.46,-218.53 127.89,-505.3 76.44,-594.42"/>
<polygon fill="black" stroke="black" stroke-width="0.05" points="73.39,-592.71 71.42,-603.12 79.45,-596.21 73.39,-592.71"/>
<text text-anchor="middle" x="150.68" y="-372.63" font-family="Times,serif" font-size="14.00">small&#45;lamp*526</text>
</g>
<!-- 0,0 (LE BUS) -->
<g id="node3" class="node">
<title>0,0 (LE BUS)</title>
<ellipse fill="none" stroke="black" cx="920.18" cy="-125.01" rx="71.49" ry="18"/>
<text text-anchor="middle" x="920.18" y="-121.31" font-family="Times,serif" font-size="14.00">0,0 (LE BUS)</text>
</g>
<!-- &#45;5,0 (item=small&#45;lampitem=petri&#45;dish Lamptri dishes)&#45;&gt;0,0 (LE BUS) -->
<g id="edge2" class="edge">
<title>&#45;5,0 (item=small&#45;lampitem=petri&#45;dish Lamptri dishes)&#45;&gt;0,0 (LE BUS)</title>
<path fill="none" stroke="black" stroke-width="0.05" d="M611.6,-125.01C693.82,-125.01 778.5,-125.01 838.3,-125.01"/>
<polygon fill="black" stroke="black" stroke-width="0.05" points="838.42,-128.51 848.42,-125.01 838.42,-121.51 838.42,-128.51"/>
<text text-anchor="middle" x="668.95" y="-128.81" font-family="Times,serif" font-size="14.00">small&#45;lamp*568</text>
</g>
<!-- 0,&#45;8 (Raw fibre 2 duplicate) -->
<g id="node6" class="node">
<title>0,&#45;8 (Raw fibre 2 duplicate)</title>
<ellipse fill="none" stroke="black" cx="347.46" cy="-1116.99" rx="137.58" ry="18"/>
<text text-anchor="middle" x="347.46" y="-1113.29" font-family="Times,serif" font-size="14.00">0,&#45;8 (Raw fibre 2 duplicate)</text>
</g>
<!-- &#45;5,0 (item=small&#45;lampitem=petri&#45;dish Lamptri dishes)&#45;&gt;0,&#45;8 (Raw fibre 2 duplicate) -->
<g id="edge8" class="edge">
<title>&#45;5,0 (item=small&#45;lampitem=petri&#45;dish Lamptri dishes)&#45;&gt;0,&#45;8 (Raw fibre 2 duplicate)</title>
<path fill="none" stroke="black" stroke-width="0.4" d="M347.46,-143.07C347.46,-262.84 347.46,-942.05 347.46,-1088.97"/>
<polygon fill="black" stroke="black" stroke-width="0.4" points="343.96,-1088.98 347.46,-1098.98 350.96,-1088.98 343.96,-1088.98"/>
<text text-anchor="middle" x="286.96" y="-619.82" font-family="Times,serif" font-size="14.00">small&#45;lamp*4329</text>
</g>
<!-- 8,3 (Nylon mk2) -->
<g id="node7" class="node">
<title>8,3 (Nylon mk2)</title>
<ellipse fill="none" stroke="black" cx="920.18" cy="-1116.99" rx="85.29" ry="18"/>
<text text-anchor="middle" x="920.18" y="-1113.29" font-family="Times,serif" font-size="14.00">8,3 (Nylon mk2)</text>
</g>
<!-- &#45;5,0 (item=small&#45;lampitem=petri&#45;dish Lamptri dishes)&#45;&gt;8,3 (Nylon mk2) -->
<g id="edge6" class="edge">
<title>&#45;5,0 (item=small&#45;lampitem=petri&#45;dish Lamptri dishes)&#45;&gt;8,3 (Nylon mk2)</title>
<path fill="none" stroke="black" stroke-width="0.23" d="M357.89,-143.07C427.24,-263.2 821.53,-946.13 904.75,-1090.28"/>
<polygon fill="black" stroke="black" stroke-width="0.23" points="901.75,-1092.07 909.78,-1098.98 907.81,-1088.57 901.75,-1092.07"/>
<text text-anchor="middle" x="570.82" y="-605.48" font-family="Times,serif" font-size="14.00">small&#45;lamp*2507</text>
</g>
<!-- 8,8 (Glass and lamps) -->
<g id="node4" class="node">
<title>8,8 (Glass and lamps)</title>
<ellipse fill="none" stroke="black" cx="1206.54" cy="-621" rx="111.28" ry="18"/>
<text text-anchor="middle" x="1206.54" y="-617.3" font-family="Times,serif" font-size="14.00">8,8 (Glass and lamps)</text>
</g>
<!-- 8,8 (Glass and lamps)&#45;&gt;&#45;6,4 (Urea) -->
<g id="edge5" class="edge">
<title>8,8 (Glass and lamps)&#45;&gt;&#45;6,4 (Urea)</title>
<path fill="none" stroke="black" stroke-width="2.71" d="M1095.15,-621C861.52,-621 325.93,-621 132.46,-621"/>
<polygon fill="black" stroke="black" stroke-width="2.71" points="132.41,-617.5 122.41,-621 132.41,-624.5 132.41,-617.5"/>
<text text-anchor="middle" x="548.8" y="-624.8" font-family="Times,serif" font-size="14.00">small&#45;lamp*29440</text>
</g>
<!-- 8,8 (Glass and lamps)&#45;&gt;0,0 (LE BUS) -->
<g id="edge11" class="edge">
<title>8,8 (Glass and lamps)&#45;&gt;0,0 (LE BUS)</title>
<path fill="none" stroke="black" stroke-width="2.07" d="M1196.18,-603.05C1152.99,-528.24 987.11,-240.94 935.56,-151.65"/>
<polygon fill="black" stroke="black" stroke-width="2.07" points="938.56,-149.84 930.52,-142.93 932.49,-153.34 938.56,-149.84"/>
<text text-anchor="middle" x="1000.87" y="-381.15" font-family="Times,serif" font-size="14.00">small&#45;lamp*22400</text>
</g>
<!-- 1,3 (item=korlex&#45;food&#45;01 Korlex food) -->
<g id="node5" class="node">
<title>1,3 (item=korlex&#45;food&#45;01 Korlex food)</title>
<ellipse fill="none" stroke="black" cx="1354.48" cy="-162.78" rx="185.77" ry="18"/>
<text text-anchor="middle" x="1354.48" y="-159.08" font-family="Times,serif" font-size="14.00">1,3 (item=korlex&#45;food&#45;01 Korlex food)</text>
</g>
<!-- 8,8 (Glass and lamps)&#45;&gt;1,3 (item=korlex&#45;food&#45;01 Korlex food) -->
<g id="edge3" class="edge">
<title>8,8 (Glass and lamps)&#45;&gt;1,3 (item=korlex&#45;food&#45;01 Korlex food)</title>
<path fill="none" stroke="black" stroke-width="1.15" d="M1212.43,-602.75C1235.25,-532.06 1317.96,-275.88 1345.5,-190.6"/>
<polygon fill="black" stroke="black" stroke-width="1.15" points="1348.83,-191.67 1348.57,-181.08 1342.17,-189.52 1348.83,-191.67"/>
<text text-anchor="middle" x="1213.96" y="-400.48" font-family="Times,serif" font-size="14.00">small&#45;lamp*12480</text>
</g>
<!-- 8,8 (Glass and lamps)&#45;&gt;0,&#45;8 (Raw fibre 2 duplicate) -->
<g id="edge4" class="edge">
<title>8,8 (Glass and lamps)&#45;&gt;0,&#45;8 (Raw fibre 2 duplicate)</title>
<path fill="none" stroke="black" stroke-width="1.89" d="M1176.47,-638.36C1046.59,-713.35 533.72,-1009.45 386.91,-1094.21"/>
<polygon fill="black" stroke="black" stroke-width="1.89" points="385.09,-1091.22 378.18,-1099.26 388.59,-1097.29 385.09,-1091.22"/>
<text text-anchor="middle" x="716.69" y="-870.09" font-family="Times,serif" font-size="14.00">small&#45;lamp*20480</text>
</g>
<!-- 8,8 (Glass and lamps)&#45;&gt;8,3 (Nylon mk2) -->
<g id="edge13" class="edge">
<title>8,8 (Glass and lamps)&#45;&gt;8,3 (Nylon mk2)</title>
<path fill="none" stroke="black" stroke-width="0.24" d="M1196.18,-638.95C1152.99,-713.76 987.11,-1001.06 935.56,-1090.35"/>
<polygon fill="black" stroke="black" stroke-width="0.24" points="932.49,-1088.66 930.52,-1099.07 938.56,-1092.16 932.49,-1088.66"/>
<text text-anchor="middle" x="1005.37" y="-868.45" font-family="Times,serif" font-size="14.00">small&#45;lamp*2560</text>
</g>
<!-- &#45;3,7 (item=sea&#45;sponge&#45;sprouts Also Borax) -->
<g id="node8" class="node">
<title>&#45;3,7 (item=sea&#45;sponge&#45;sprouts Also Borax)</title>
<ellipse fill="none" stroke="black" cx="1487.66" cy="-604.5" rx="209.06" ry="18"/>
<text text-anchor="middle" x="1487.66" y="-600.8" font-family="Times,serif" font-size="14.00">&#45;3,7 (item=sea&#45;sponge&#45;sprouts Also Borax)</text>
</g>
<!-- 8,8 (Glass and lamps)&#45;&gt;&#45;3,7 (item=sea&#45;sponge&#45;sprouts Also Borax) -->
<g id="edge7" class="edge">
<title>8,8 (Glass and lamps)&#45;&gt;&#45;3,7 (item=sea&#45;sponge&#45;sprouts Also Borax)</title>
<path fill="none" stroke="black" stroke-width="2.98" d="M1311.22,-614.86C1311.35,-614.85 1311.49,-614.84 1311.63,-614.83"/>
<polygon fill="black" stroke="black" stroke-width="2.98" points="1304.73,-618.74 1314.51,-614.66 1304.32,-611.76 1304.73,-618.74"/>
<text text-anchor="middle" x="1376.42" y="-618.64" font-family="Times,serif" font-size="14.00">small&#45;lamp*32320</text>
</g>
<!-- 7,8 (Raw fibre 2) -->
<g id="node11" class="node">
<title>7,8 (Raw fibre 2)</title>
<ellipse fill="none" stroke="black" cx="1415.57" cy="-964.79" rx="89.08" ry="18"/>
<text text-anchor="middle" x="1415.57" y="-961.09" font-family="Times,serif" font-size="14.00">7,8 (Raw fibre 2)</text>
</g>
<!-- 8,8 (Glass and lamps)&#45;&gt;7,8 (Raw fibre 2) -->
<g id="edge10" class="edge">
<title>8,8 (Glass and lamps)&#45;&gt;7,8 (Raw fibre 2)</title>
<path fill="none" stroke="black" stroke-width="0.94" d="M1217.48,-639C1251.9,-695.61 1358.09,-870.25 1399.13,-937.76"/>
<polygon fill="black" stroke="black" stroke-width="0.94" points="1396.29,-939.82 1404.48,-946.55 1402.27,-936.19 1396.29,-939.82"/>
<text text-anchor="middle" x="1243.31" y="-792.18" font-family="Times,serif" font-size="14.00">small&#45;lamp*10240</text>
</g>
<!-- 1,8 (HCl, Salt) -->
<g id="node12" class="node">
<title>1,8 (HCl, Salt)</title>
<ellipse fill="none" stroke="black" cx="1290.59" cy="-1166.87" rx="77.19" ry="18"/>
<text text-anchor="middle" x="1290.59" y="-1163.17" font-family="Times,serif" font-size="14.00">1,8 (HCl, Salt)</text>
</g>
<!-- 8,8 (Glass and lamps)&#45;&gt;1,8 (HCl, Salt) -->
<g id="edge12" class="edge">
<title>8,8 (Glass and lamps)&#45;&gt;1,8 (HCl, Salt)</title>
<path fill="none" stroke="black" stroke-width="0.19" d="M1209.34,-639.16C1221.66,-719.22 1271.2,-1040.97 1286.24,-1138.63"/>
<polygon fill="black" stroke="black" stroke-width="0.19" points="1282.8,-1139.29 1287.78,-1148.64 1289.72,-1138.23 1282.8,-1139.29"/>
<text text-anchor="middle" x="1187.29" y="-892.7" font-family="Times,serif" font-size="14.00">small&#45;lamp*2080</text>
</g>
<!-- 4,6 (Circuit substrate and Doped silicon) -->
<g id="node9" class="node">
<title>4,6 (Circuit substrate and Doped silicon)</title>
<ellipse fill="none" stroke="black" cx="1376.28" cy="-18" rx="199.56" ry="18"/>
<text text-anchor="middle" x="1376.28" y="-14.3" font-family="Times,serif" font-size="14.00">4,6 (Circuit substrate and Doped silicon)</text>
</g>
<!-- 2,7 (Mystery petrochemicals) -->
<g id="node10" class="node">
<title>2,7 (Mystery petrochemicals)</title>
<ellipse fill="none" stroke="black" cx="1795.35" cy="-18" rx="147.57" ry="18"/>
<text text-anchor="middle" x="1795.35" y="-14.3" font-family="Times,serif" font-size="14.00">2,7 (Mystery petrochemicals)</text>
</g>
<!-- 4,6 (Circuit substrate and Doped silicon)&#45;&gt;2,7 (Mystery petrochemicals) -->
<g id="edge9" class="edge">
<title>4,6 (Circuit substrate and Doped silicon)&#45;&gt;2,7 (Mystery petrochemicals)</title>
<path fill="none" stroke="black" stroke-width="0.1" d="M1576,-18C1596.64,-18 1617.42,-18 1637.52,-18"/>
<polygon fill="black" stroke="black" stroke-width="0.1" points="1637.65,-21.5 1647.65,-18 1637.65,-14.5 1637.65,-21.5"/>
<text text-anchor="middle" x="1606.76" y="-6.8" font-family="Times,serif" font-size="14.00">small&#45;lamp*1040</text>
</g>
</g>
</svg>
