<?xml version="1.0" encoding="UTF-8" standalone="no"?>
<!DOCTYPE svg PUBLIC "-//W3C//DTD SVG 1.1//EN"
 "http://www.w3.org/Graphics/SVG/1.1/DTD/svg11.dtd">
<!-- Generated by graphviz version 2.43.0 (0)
 -->
<!-- Title: %3 Pages: 1 -->
<svg width="1464pt" height="1125pt"
 viewBox="0.00 0.00 1464.03 1124.67" xmlns="http://www.w3.org/2000/svg" xmlns:xlink="http://www.w3.org/1999/xlink">
<g id="graph0" class="graph" transform="scale(1 1) rotate(0) translate(4 1120.67)">
<title>%3</title>
<polygon fill="white" stroke="transparent" points="-4,4 -4,-1120.67 1460.03,-1120.67 1460.03,4 -4,4"/>
<!-- 0,5 (Titanium Processing (Grade 4)) -->
<g id="node1" class="node">
<title>0,5 (Titanium Processing (Grade 4))</title>
<ellipse fill="none" stroke="black" cx="843.28" cy="-529.03" rx="176.57" ry="18"/>
<text text-anchor="middle" x="843.28" y="-525.33" font-family="Times,serif" font-size="14.00">0,5 (Titanium Processing (Grade 4))</text>
</g>
<!-- &#45;4,1 () -->
<g id="node2" class="node">
<title>&#45;4,1 ()</title>
<ellipse fill="none" stroke="black" cx="1417.68" cy="-529.03" rx="38.19" ry="18"/>
<text text-anchor="middle" x="1417.68" y="-525.33" font-family="Times,serif" font-size="14.00">&#45;4,1 ()</text>
</g>
<!-- 0,5 (Titanium Processing (Grade 4))&#45;&gt;&#45;4,1 () -->
<g id="edge1" class="edge">
<title>0,5 (Titanium Processing (Grade 4))&#45;&gt;&#45;4,1 ()</title>
<path fill="none" stroke="black" stroke-width="0.99" d="M1020.31,-529.03C1141.2,-529.03 1292.79,-529.03 1369.07,-529.03"/>
<polygon fill="black" stroke="black" stroke-width="0.99" points="1369.33,-532.53 1379.33,-529.03 1369.33,-525.53 1369.33,-532.53"/>
<text text-anchor="middle" x="1117.69" y="-532.83" font-family="Times,serif" font-size="14.00">titanium&#45;plate*30240</text>
</g>
<!-- &#45;3,8 (Urea) -->
<g id="node3" class="node">
<title>&#45;3,8 (Urea)</title>
<ellipse fill="none" stroke="black" cx="1294.31" cy="-884.72" rx="61.19" ry="18"/>
<text text-anchor="middle" x="1294.31" y="-881.02" font-family="Times,serif" font-size="14.00">&#45;3,8 (Urea)</text>
</g>
<!-- 0,5 (Titanium Processing (Grade 4))&#45;&gt;&#45;3,8 (Urea) -->
<g id="edge2" class="edge">
<title>0,5 (Titanium Processing (Grade 4))&#45;&gt;&#45;3,8 (Urea)</title>
<path fill="none" stroke="black" stroke-width="0.99" d="M865.95,-546.91C940.91,-606.02 1180.69,-795.12 1264.81,-861.45"/>
<polygon fill="black" stroke="black" stroke-width="0.99" points="1262.89,-864.4 1272.91,-867.84 1267.22,-858.9 1262.89,-864.4"/>
<text text-anchor="middle" x="988.38" y="-707.98" font-family="Times,serif" font-size="14.00">titanium&#45;plate*30336</text>
</g>
<!-- &#45;1,&#45;2 (Aramid fiber) -->
<g id="node4" class="node">
<title>&#45;1,&#45;2 (Aramid fiber)</title>
<ellipse fill="none" stroke="black" cx="917.12" cy="-1098.67" rx="99.38" ry="18"/>
<text text-anchor="middle" x="917.12" y="-1094.97" font-family="Times,serif" font-size="14.00">&#45;1,&#45;2 (Aramid fiber)</text>
</g>
<!-- 0,5 (Titanium Processing (Grade 4))&#45;&gt;&#45;1,&#45;2 (Aramid fiber) -->
<g id="edge3" class="edge">
<title>0,5 (Titanium Processing (Grade 4))&#45;&gt;&#45;1,&#45;2 (Aramid fiber)</title>
<path fill="none" stroke="black" stroke-width="1.54" d="M845.65,-547.34C856.38,-630.11 900.4,-969.69 913.45,-1070.4"/>
<polygon fill="black" stroke="black" stroke-width="1.54" points="909.99,-1070.96 914.75,-1080.43 916.94,-1070.06 909.99,-1070.96"/>
<text text-anchor="middle" x="802.55" y="-812.67" font-family="Times,serif" font-size="14.00">titanium&#45;plate*47120</text>
</g>
<!-- 0,10 (item=meat Meat) -->
<g id="node5" class="node">
<title>0,10 (item=meat Meat)</title>
<ellipse fill="none" stroke="black" cx="452.5" cy="-950.02" rx="120.48" ry="18"/>
<text text-anchor="middle" x="452.5" y="-946.32" font-family="Times,serif" font-size="14.00">0,10 (item=meat Meat)</text>
</g>
<!-- 0,5 (Titanium Processing (Grade 4))&#45;&gt;0,10 (item=meat Meat) -->
<g id="edge4" class="edge">
<title>0,5 (Titanium Processing (Grade 4))&#45;&gt;0,10 (item=meat Meat)</title>
<path fill="none" stroke="black" stroke-width="0.93" d="M826.49,-547.12C764.48,-613.91 548.29,-846.83 476.14,-924.55"/>
<polygon fill="black" stroke="black" stroke-width="0.93" points="473.47,-922.29 469.23,-932 478.6,-927.05 473.47,-922.29"/>
<text text-anchor="middle" x="574.31" y="-739.63" font-family="Times,serif" font-size="14.00">titanium&#45;plate*28432</text>
</g>
<!-- &#45;1,6 (Flimble&#39;s Slaughterhouse and Daycare Centre, Auog Products) -->
<g id="node6" class="node">
<title>&#45;1,6 (Flimble&#39;s Slaughterhouse and Daycare Centre, Auog Products)</title>
<ellipse fill="none" stroke="black" cx="325.62" cy="-280.08" rx="325.74" ry="18"/>
<text text-anchor="middle" x="325.62" y="-276.38" font-family="Times,serif" font-size="14.00">&#45;1,6 (Flimble&#39;s Slaughterhouse and Daycare Centre, Auog Products)</text>
</g>
<!-- 0,5 (Titanium Processing (Grade 4))&#45;&gt;&#45;1,6 (Flimble&#39;s Slaughterhouse and Daycare Centre, Auog Products) -->
<g id="edge5" class="edge">
<title>0,5 (Titanium Processing (Grade 4))&#45;&gt;&#45;1,6 (Flimble&#39;s Slaughterhouse and Daycare Centre, Auog Products)</title>
<path fill="none" stroke="black" stroke-width="0.82" d="M806.46,-511.32C714.29,-467 473.71,-351.3 372.05,-302.41"/>
<polygon fill="black" stroke="black" stroke-width="0.82" points="373.47,-299.21 362.94,-298.03 370.44,-305.52 373.47,-299.21"/>
<text text-anchor="middle" x="512.26" y="-410.67" font-family="Times,serif" font-size="14.00">titanium&#45;plate*25216</text>
</g>
<!-- &#45;7,&#45;4 (Isomer&#39;s Slaughterhouse and Daycare Centre, Bone Meal) -->
<g id="node7" class="node">
<title>&#45;7,&#45;4 (Isomer&#39;s Slaughterhouse and Daycare Centre, Bone Meal)</title>
<ellipse fill="none" stroke="black" cx="1105.56" cy="-18" rx="307.35" ry="18"/>
<text text-anchor="middle" x="1105.56" y="-14.3" font-family="Times,serif" font-size="14.00">&#45;7,&#45;4 (Isomer&#39;s Slaughterhouse and Daycare Centre, Bone Meal)</text>
</g>
<!-- 0,5 (Titanium Processing (Grade 4))&#45;&gt;&#45;7,&#45;4 (Isomer&#39;s Slaughterhouse and Daycare Centre, Bone Meal) -->
<g id="edge6" class="edge">
<title>0,5 (Titanium Processing (Grade 4))&#45;&gt;&#45;7,&#45;4 (Isomer&#39;s Slaughterhouse and Daycare Centre, Bone Meal)</title>
<path fill="none" stroke="black" stroke-width="0.73" d="M852.61,-510.84C891.97,-434.16 1044.47,-137.03 1091.6,-45.2"/>
<polygon fill="black" stroke="black" stroke-width="0.73" points="1094.75,-46.73 1096.2,-36.24 1088.52,-43.53 1094.75,-46.73"/>
<text text-anchor="middle" x="895.11" y="-281.82" font-family="Times,serif" font-size="14.00">titanium&#45;plate*22224</text>
</g>
</g>
</svg>
