<?xml version="1.0" encoding="UTF-8" standalone="no"?>
<!DOCTYPE svg PUBLIC "-//W3C//DTD SVG 1.1//EN"
 "http://www.w3.org/Graphics/SVG/1.1/DTD/svg11.dtd">
<!-- Generated by graphviz version 2.43.0 (0)
 -->
<!-- Title: %3 Pages: 1 -->
<svg width="855pt" height="711pt"
 viewBox="0.00 0.00 854.96 711.16" xmlns="http://www.w3.org/2000/svg" xmlns:xlink="http://www.w3.org/1999/xlink">
<g id="graph0" class="graph" transform="scale(1 1) rotate(0) translate(4 707.16)">
<title>%3</title>
<polygon fill="white" stroke="transparent" points="-4,4 -4,-707.16 850.96,-707.16 850.96,4 -4,4"/>
<!-- 6,3 (Things from molten) -->
<g id="node1" class="node">
<title>6,3 (Things from molten)</title>
<ellipse fill="none" stroke="black" cx="390.84" cy="-349.34" rx="126.18" ry="18"/>
<text text-anchor="middle" x="390.84" y="-345.64" font-family="Times,serif" font-size="14.00">6,3 (Things from molten)</text>
</g>
<!-- &#45;4,&#45;7 (Nexelit from raw) -->
<g id="node2" class="node">
<title>&#45;4,&#45;7 (Nexelit from raw)</title>
<ellipse fill="none" stroke="black" cx="726.72" cy="-349.34" rx="120.48" ry="18"/>
<text text-anchor="middle" x="726.72" y="-345.64" font-family="Times,serif" font-size="14.00">&#45;4,&#45;7 (Nexelit from raw)</text>
</g>
<!-- 6,3 (Things from molten)&#45;&gt;&#45;4,&#45;7 (Nexelit from raw) -->
<g id="edge1" class="edge">
<title>6,3 (Things from molten)&#45;&gt;&#45;4,&#45;7 (Nexelit from raw)</title>
<path fill="none" stroke="black" stroke-width="3.39" d="M517.34,-349.34C543.12,-349.34 570.28,-349.34 596.19,-349.34"/>
<polygon fill="black" stroke="black" stroke-width="3.39" points="596.44,-352.84 606.44,-349.34 596.44,-345.84 596.44,-352.84"/>
<text text-anchor="middle" x="556.77" y="-338.14" font-family="Times,serif" font-size="14.00">iron&#45;stick*168400</text>
</g>
<!-- 7,8 (Raw fibre 2) -->
<g id="node3" class="node">
<title>7,8 (Raw fibre 2)</title>
<ellipse fill="none" stroke="black" cx="384.34" cy="-685.16" rx="89.08" ry="18"/>
<text text-anchor="middle" x="384.34" y="-681.46" font-family="Times,serif" font-size="14.00">7,8 (Raw fibre 2)</text>
</g>
<!-- 6,3 (Things from molten)&#45;&gt;7,8 (Raw fibre 2) -->
<g id="edge2" class="edge">
<title>6,3 (Things from molten)&#45;&gt;7,8 (Raw fibre 2)</title>
<path fill="none" stroke="black" stroke-width="0.2" d="M390.49,-367.4C389.42,-422.63 386.19,-589.64 384.89,-656.77"/>
<polygon fill="black" stroke="black" stroke-width="0.2" points="381.39,-656.95 384.69,-667.01 388.39,-657.08 381.39,-656.95"/>
<text text-anchor="middle" x="328.19" y="-515.88" font-family="Times,serif" font-size="14.00">iron&#45;stick*10080</text>
</g>
<!-- 6,&#45;1 (Clay) -->
<g id="node4" class="node">
<title>6,&#45;1 (Clay)</title>
<ellipse fill="none" stroke="black" cx="58.49" cy="-397.92" rx="58.49" ry="18"/>
<text text-anchor="middle" x="58.49" y="-394.22" font-family="Times,serif" font-size="14.00">6,&#45;1 (Clay)</text>
</g>
<!-- 6,3 (Things from molten)&#45;&gt;6,&#45;1 (Clay) -->
<g id="edge3" class="edge">
<title>6,3 (Things from molten)&#45;&gt;6,&#45;1 (Clay)</title>
<path fill="none" stroke="black" stroke-width="0.2" d="M302.65,-362.23C245.68,-370.56 172.9,-381.2 121.67,-388.68"/>
<polygon fill="black" stroke="black" stroke-width="0.2" points="121.11,-385.23 111.72,-390.14 122.13,-392.16 121.11,-385.23"/>
<text text-anchor="middle" x="152.66" y="-364.26" font-family="Times,serif" font-size="14.00">iron&#45;stick*10080</text>
</g>
<!-- 0,&#45;8 (Raw fibre 2 duplicate) -->
<g id="node5" class="node">
<title>0,&#45;8 (Raw fibre 2 duplicate)</title>
<ellipse fill="none" stroke="black" cx="335.84" cy="-18" rx="137.58" ry="18"/>
<text text-anchor="middle" x="335.84" y="-14.3" font-family="Times,serif" font-size="14.00">0,&#45;8 (Raw fibre 2 duplicate)</text>
</g>
<!-- 6,3 (Things from molten)&#45;&gt;0,&#45;8 (Raw fibre 2 duplicate) -->
<g id="edge4" class="edge">
<title>6,3 (Things from molten)&#45;&gt;0,&#45;8 (Raw fibre 2 duplicate)</title>
<path fill="none" stroke="black" stroke-width="0.2" d="M387.81,-331.06C378.7,-276.18 351.55,-112.63 340.55,-46.36"/>
<polygon fill="black" stroke="black" stroke-width="0.2" points="343.96,-45.52 338.87,-36.23 337.05,-46.67 343.96,-45.52"/>
<text text-anchor="middle" x="304.68" y="-192.51" font-family="Times,serif" font-size="14.00">iron&#45;stick*10080</text>
</g>
</g>
</svg>
