<?xml version="1.0" encoding="UTF-8" standalone="no"?>
<!DOCTYPE svg PUBLIC "-//W3C//DTD SVG 1.1//EN"
 "http://www.w3.org/Graphics/SVG/1.1/DTD/svg11.dtd">
<!-- Generated by graphviz version 2.43.0 (0)
 -->
<!-- Title: %3 Pages: 1 -->
<svg width="5671pt" height="5354pt"
 viewBox="0.00 0.00 5670.72 5354.42" xmlns="http://www.w3.org/2000/svg" xmlns:xlink="http://www.w3.org/1999/xlink">
<g id="graph0" class="graph" transform="scale(1 1) rotate(0) translate(4 5350.42)">
<title>%3</title>
<polygon fill="white" stroke="transparent" points="-4,4 -4,-5350.42 5666.72,-5350.42 5666.72,4 -4,4"/>
<!-- &#45;4,&#45;3 (Breath Deeply. Exhale. (Hot Air)) -->
<g id="node1" class="node">
<title>&#45;4,&#45;3 (Breath Deeply. Exhale. (Hot Air))</title>
<ellipse fill="none" stroke="black" cx="2960.57" cy="-5328.42" rx="190.37" ry="18"/>
<text text-anchor="middle" x="2960.57" y="-5324.72" font-family="Times,serif" font-size="14.00">&#45;4,&#45;3 (Breath Deeply. Exhale. (Hot Air))</text>
</g>
<!-- &#45;1,&#45;10 (Petrier dish 2) -->
<g id="node2" class="node">
<title>&#45;1,&#45;10 (Petrier dish 2)</title>
<ellipse fill="none" stroke="black" cx="3615.65" cy="-5203.46" rx="110.48" ry="18"/>
<text text-anchor="middle" x="3615.65" y="-5199.76" font-family="Times,serif" font-size="14.00">&#45;1,&#45;10 (Petrier dish 2)</text>
</g>
<!-- &#45;4,&#45;3 (Breath Deeply. Exhale. (Hot Air))&#45;&gt;&#45;1,&#45;10 (Petrier dish 2) -->
<g id="edge1" class="edge">
<title>&#45;4,&#45;3 (Breath Deeply. Exhale. (Hot Air))&#45;&gt;&#45;1,&#45;10 (Petrier dish 2)</title>
<path fill="none" stroke="black" stroke-width="2.79" d="M3045.2,-5312.28C3171.82,-5288.13 3409.01,-5242.88 3533.92,-5219.05"/>
<polygon fill="black" stroke="black" stroke-width="2.79" points="3534.64,-5222.48 3543.81,-5217.17 3533.33,-5215.6 3534.64,-5222.48"/>
<text text-anchor="middle" x="3215.56" y="-5269.47" font-family="Times,serif" font-size="14.00">hot&#45;air&#45;barrel*30816</text>
</g>
<!-- 3,13 (Rubber) -->
<g id="node6" class="node">
<title>3,13 (Rubber)</title>
<ellipse fill="none" stroke="black" cx="2295" cy="-5286.55" rx="75.29" ry="18"/>
<text text-anchor="middle" x="2295" y="-5282.85" font-family="Times,serif" font-size="14.00">3,13 (Rubber)</text>
</g>
<!-- &#45;4,&#45;3 (Breath Deeply. Exhale. (Hot Air))&#45;&gt;3,13 (Rubber) -->
<g id="edge22" class="edge">
<title>&#45;4,&#45;3 (Breath Deeply. Exhale. (Hot Air))&#45;&gt;3,13 (Rubber)</title>
<path fill="none" stroke="black" stroke-width="1.22" d="M2802,-5318.45C2668.83,-5310.07 2483.84,-5298.43 2378.07,-5291.78"/>
<polygon fill="black" stroke="black" stroke-width="1.22" points="2378.29,-5288.28 2368.09,-5291.15 2377.85,-5295.27 2378.29,-5288.28"/>
<text text-anchor="middle" x="2516.03" y="-5308.91" font-family="Times,serif" font-size="14.00">hot&#45;air&#45;barrel*13536</text>
</g>
<!-- 8,8 (Glass and lamps) -->
<g id="node7" class="node">
<title>8,8 (Glass and lamps)</title>
<ellipse fill="none" stroke="black" cx="4219.07" cy="-4919.51" rx="111.28" ry="18"/>
<text text-anchor="middle" x="4219.07" y="-4915.81" font-family="Times,serif" font-size="14.00">8,8 (Glass and lamps)</text>
</g>
<!-- &#45;4,&#45;3 (Breath Deeply. Exhale. (Hot Air))&#45;&gt;8,8 (Glass and lamps) -->
<g id="edge4" class="edge">
<title>&#45;4,&#45;3 (Breath Deeply. Exhale. (Hot Air))&#45;&gt;8,8 (Glass and lamps)</title>
<path fill="none" stroke="black" stroke-width="2.08" d="M3013.84,-5311.12C3217.4,-5244.98 3945.34,-5008.45 4159.44,-4938.89"/>
<polygon fill="black" stroke="black" stroke-width="2.08" points="4160.81,-4942.12 4169.24,-4935.7 4158.65,-4935.47 4160.81,-4942.12"/>
<text text-anchor="middle" x="3512.64" y="-5128.8" font-family="Times,serif" font-size="14.00">hot&#45;air&#45;barrel*22944</text>
</g>
<!-- &#45;3,&#45;11 (Petri dish 2) -->
<g id="node8" class="node">
<title>&#45;3,&#45;11 (Petri dish 2)</title>
<ellipse fill="none" stroke="black" cx="4732.91" cy="-4494.42" rx="100.98" ry="18"/>
<text text-anchor="middle" x="4732.91" y="-4490.72" font-family="Times,serif" font-size="14.00">&#45;3,&#45;11 (Petri dish 2)</text>
</g>
<!-- &#45;4,&#45;3 (Breath Deeply. Exhale. (Hot Air))&#45;&gt;&#45;3,&#45;11 (Petri dish 2) -->
<g id="edge5" class="edge">
<title>&#45;4,&#45;3 (Breath Deeply. Exhale. (Hot Air))&#45;&gt;&#45;3,&#45;11 (Petri dish 2)</title>
<path fill="none" stroke="black" stroke-width="3.69" d="M2998.41,-5310.62C3228.48,-5202.36 4437.98,-4633.21 4687.76,-4515.67"/>
<polygon fill="black" stroke="black" stroke-width="3.69" points="4689.36,-4518.79 4696.91,-4511.36 4686.38,-4512.45 4689.36,-4518.79"/>
<text text-anchor="middle" x="3769.08" y="-4916.95" font-family="Times,serif" font-size="14.00">hot&#45;air&#45;barrel*40800</text>
</g>
<!-- &#45;4,0 (item=lens Optical sets) -->
<g id="node9" class="node">
<title>&#45;4,0 (item=lens Optical sets)</title>
<ellipse fill="none" stroke="black" cx="5124.9" cy="-3954.9" rx="143.77" ry="18"/>
<text text-anchor="middle" x="5124.9" y="-3951.2" font-family="Times,serif" font-size="14.00">&#45;4,0 (item=lens Optical sets)</text>
</g>
<!-- &#45;4,&#45;3 (Breath Deeply. Exhale. (Hot Air))&#45;&gt;&#45;4,0 (item=lens Optical sets) -->
<g id="edge10" class="edge">
<title>&#45;4,&#45;3 (Breath Deeply. Exhale. (Hot Air))&#45;&gt;&#45;4,0 (item=lens Optical sets)</title>
<path fill="none" stroke="black" stroke-width="3.81" d="M2988.73,-5310.56C3221.45,-5162.87 4824.73,-4145.39 5088.28,-3978.14"/>
<polygon fill="black" stroke="black" stroke-width="3.81" points="5090.17,-3981.09 5096.73,-3972.78 5086.41,-3975.18 5090.17,-3981.09"/>
<text text-anchor="middle" x="3964.5" y="-4648.15" font-family="Times,serif" font-size="14.00">hot&#45;air&#45;barrel*42144</text>
</g>
<!-- 0,0 (LE BUS) -->
<g id="node10" class="node">
<title>0,0 (LE BUS)</title>
<ellipse fill="none" stroke="black" cx="5370.4" cy="-3334.84" rx="71.49" ry="18"/>
<text text-anchor="middle" x="5370.4" y="-3331.14" font-family="Times,serif" font-size="14.00">0,0 (LE BUS)</text>
</g>
<!-- &#45;4,&#45;3 (Breath Deeply. Exhale. (Hot Air))&#45;&gt;0,0 (LE BUS) -->
<g id="edge7" class="edge">
<title>&#45;4,&#45;3 (Breath Deeply. Exhale. (Hot Air))&#45;&gt;0,0 (LE BUS)</title>
<path fill="none" stroke="black" stroke-width="3.25" d="M2982.51,-5310.27C3207.16,-5124.43 5086.35,-3569.83 5341.71,-3358.58"/>
<polygon fill="black" stroke="black" stroke-width="3.25" points="5343.98,-3361.24 5349.45,-3352.17 5339.51,-3355.85 5343.98,-3361.24"/>
<text text-anchor="middle" x="4088.11" y="-4338.22" font-family="Times,serif" font-size="14.00">hot&#45;air&#45;barrel*35880</text>
</g>
<!-- &#45;7,&#45;8 (Tin mk2) -->
<g id="node11" class="node">
<title>&#45;7,&#45;8 (Tin mk2)</title>
<ellipse fill="none" stroke="black" cx="5453.98" cy="-2673.21" rx="78.79" ry="18"/>
<text text-anchor="middle" x="5453.98" y="-2669.51" font-family="Times,serif" font-size="14.00">&#45;7,&#45;8 (Tin mk2)</text>
</g>
<!-- &#45;4,&#45;3 (Breath Deeply. Exhale. (Hot Air))&#45;&gt;&#45;7,&#45;8 (Tin mk2) -->
<g id="edge8" class="edge">
<title>&#45;4,&#45;3 (Breath Deeply. Exhale. (Hot Air))&#45;&gt;&#45;7,&#45;8 (Tin mk2)</title>
<path fill="none" stroke="black" stroke-width="0.4" d="M2977.49,-5310.41C3182.7,-5091.88 5190.21,-2954.1 5430.5,-2698.22"/>
<polygon fill="black" stroke="black" stroke-width="0.4" points="5433.1,-2700.56 5437.39,-2690.88 5428,-2695.77 5433.1,-2700.56"/>
<text text-anchor="middle" x="4134.49" y="-4008.12" font-family="Times,serif" font-size="14.00">hot&#45;air&#45;barrel*4416</text>
</g>
<!-- &#45;1,11 (Steel Plate (from molten)) -->
<g id="node12" class="node">
<title>&#45;1,11 (Steel Plate (from molten))</title>
<ellipse fill="none" stroke="black" cx="5370.4" cy="-2011.58" rx="161.37" ry="18"/>
<text text-anchor="middle" x="5370.4" y="-2007.88" font-family="Times,serif" font-size="14.00">&#45;1,11 (Steel Plate (from molten))</text>
</g>
<!-- &#45;4,&#45;3 (Breath Deeply. Exhale. (Hot Air))&#45;&gt;&#45;1,11 (Steel Plate (from molten)) -->
<g id="edge16" class="edge">
<title>&#45;4,&#45;3 (Breath Deeply. Exhale. (Hot Air))&#45;&gt;&#45;1,11 (Steel Plate (from molten))</title>
<path fill="none" stroke="black" stroke-width="2.2" d="M2973.83,-5310.18C3154.98,-5060.84 5135.07,-2335.49 5351.27,-2037.9"/>
<polygon fill="black" stroke="black" stroke-width="2.2" points="5354.11,-2039.96 5357.15,-2029.81 5348.44,-2035.85 5354.11,-2039.96"/>
<text text-anchor="middle" x="4088.55" y="-3677.84" font-family="Times,serif" font-size="14.00">hot&#45;air&#45;barrel*24336</text>
</g>
<!-- 9,&#45;10 (Copper plate yet again) -->
<g id="node13" class="node">
<title>9,&#45;10 (Copper plate yet again)</title>
<ellipse fill="none" stroke="black" cx="5124.9" cy="-1391.52" rx="149.47" ry="18"/>
<text text-anchor="middle" x="5124.9" y="-1387.82" font-family="Times,serif" font-size="14.00">9,&#45;10 (Copper plate yet again)</text>
</g>
<!-- &#45;4,&#45;3 (Breath Deeply. Exhale. (Hot Air))&#45;&gt;9,&#45;10 (Copper plate yet again) -->
<g id="edge36" class="edge">
<title>&#45;4,&#45;3 (Breath Deeply. Exhale. (Hot Air))&#45;&gt;9,&#45;10 (Copper plate yet again)</title>
<path fill="none" stroke="black" stroke-width="0.17" d="M2970.46,-5310.44C3120.36,-5037.78 4926.56,-1752.31 5109.91,-1418.79"/>
<polygon fill="black" stroke="black" stroke-width="0.17" points="5113.11,-1420.24 5114.86,-1409.79 5106.97,-1416.87 5113.11,-1420.24"/>
<text text-anchor="middle" x="3970.69" y="-3368.42" font-family="Times,serif" font-size="14.00">hot&#45;air&#45;barrel*1920</text>
</g>
<!-- &#45;2,0 (Glassware) -->
<g id="node14" class="node">
<title>&#45;2,0 (Glassware)</title>
<ellipse fill="none" stroke="black" cx="4732.91" cy="-852" rx="86.38" ry="18"/>
<text text-anchor="middle" x="4732.91" y="-848.3" font-family="Times,serif" font-size="14.00">&#45;2,0 (Glassware)</text>
</g>
<!-- &#45;4,&#45;3 (Breath Deeply. Exhale. (Hot Air))&#45;&gt;&#45;2,0 (Glassware) -->
<g id="edge13" class="edge">
<title>&#45;4,&#45;3 (Breath Deeply. Exhale. (Hot Air))&#45;&gt;&#45;2,0 (Glassware)</title>
<path fill="none" stroke="black" stroke-width="1.45" d="M2967.71,-5310.39C3083.85,-5017.06 4579.52,-1239.43 4722.03,-879.5"/>
<polygon fill="black" stroke="black" stroke-width="1.45" points="4725.33,-880.65 4725.76,-870.07 4718.82,-878.08 4725.33,-880.65"/>
<text text-anchor="middle" x="3770.87" y="-3098.74" font-family="Times,serif" font-size="14.00">hot&#45;air&#45;barrel*16056</text>
</g>
<!-- 2,10 (Nickel plate and Nichrome) -->
<g id="node15" class="node">
<title>2,10 (Nickel plate and Nichrome)</title>
<ellipse fill="none" stroke="black" cx="4219.07" cy="-426.91" rx="165.17" ry="18"/>
<text text-anchor="middle" x="4219.07" y="-423.21" font-family="Times,serif" font-size="14.00">2,10 (Nickel plate and Nichrome)</text>
</g>
<!-- &#45;4,&#45;3 (Breath Deeply. Exhale. (Hot Air))&#45;&gt;2,10 (Nickel plate and Nichrome) -->
<g id="edge15" class="edge">
<title>&#45;4,&#45;3 (Breath Deeply. Exhale. (Hot Air))&#45;&gt;2,10 (Nickel plate and Nichrome)</title>
<path fill="none" stroke="black" stroke-width="0.16" d="M2965.25,-5310.19C3044.85,-5000.19 4113.6,-837.69 4211.84,-455.04"/>
<polygon fill="black" stroke="black" stroke-width="0.16" points="4215.25,-455.85 4214.35,-445.29 4208.47,-454.11 4215.25,-455.85"/>
<text text-anchor="middle" x="3519.05" y="-2886.41" font-family="Times,serif" font-size="14.00">hot&#45;air&#45;barrel*1800</text>
</g>
<!-- 3,9 (Copper, molten &amp; plate) -->
<g id="node16" class="node">
<title>3,9 (Copper, molten &amp; plate)</title>
<ellipse fill="none" stroke="black" cx="3615.65" cy="-142.96" rx="143.77" ry="18"/>
<text text-anchor="middle" x="3615.65" y="-139.26" font-family="Times,serif" font-size="14.00">3,9 (Copper, molten &amp; plate)</text>
</g>
<!-- &#45;4,&#45;3 (Breath Deeply. Exhale. (Hot Air))&#45;&gt;3,9 (Copper, molten &amp; plate) -->
<g id="edge34" class="edge">
<title>&#45;4,&#45;3 (Breath Deeply. Exhale. (Hot Air))&#45;&gt;3,9 (Copper, molten &amp; plate)</title>
<path fill="none" stroke="black" stroke-width="0.35" d="M2962.85,-5310.41C3003.02,-4992.4 3562.31,-565.17 3612.11,-170.97"/>
<polygon fill="black" stroke="black" stroke-width="0.35" points="3615.59,-171.33 3613.37,-160.97 3608.65,-170.45 3615.59,-171.33"/>
<text text-anchor="middle" x="3217.98" y="-2744.49" font-family="Times,serif" font-size="14.00">hot&#45;air&#45;barrel*3912</text>
</g>
<!-- &#45;4,&#45;7 (Nexelit from raw) -->
<g id="node17" class="node">
<title>&#45;4,&#45;7 (Nexelit from raw)</title>
<ellipse fill="none" stroke="black" cx="2960.57" cy="-18" rx="120.48" ry="18"/>
<text text-anchor="middle" x="2960.57" y="-14.3" font-family="Times,serif" font-size="14.00">&#45;4,&#45;7 (Nexelit from raw)</text>
</g>
<!-- &#45;4,&#45;3 (Breath Deeply. Exhale. (Hot Air))&#45;&gt;&#45;4,&#45;7 (Nexelit from raw) -->
<g id="edge19" class="edge">
<title>&#45;4,&#45;3 (Breath Deeply. Exhale. (Hot Air))&#45;&gt;&#45;4,&#45;7 (Nexelit from raw)</title>
<path fill="none" stroke="black" stroke-width="0.22" d="M2960.57,-5310.24C2960.57,-4986.63 2960.57,-448.3 2960.57,-46.39"/>
<polygon fill="black" stroke="black" stroke-width="0.22" points="2964.07,-46.2 2960.57,-36.2 2957.07,-46.2 2964.07,-46.2"/>
<text text-anchor="middle" x="2891.07" y="-2682.12" font-family="Times,serif" font-size="14.00">hot&#45;air&#45;barrel*2424</text>
</g>
<!-- 3,12 (reserved &#45; Candle, reserved &#45; Candle, reserved &#45; Candle) -->
<g id="node18" class="node">
<title>3,12 (reserved &#45; Candle, reserved &#45; Candle, reserved &#45; Candle)</title>
<ellipse fill="none" stroke="black" cx="2295" cy="-59.87" rx="298.15" ry="18"/>
<text text-anchor="middle" x="2295" y="-56.17" font-family="Times,serif" font-size="14.00">3,12 (reserved &#45; Candle, reserved &#45; Candle, reserved &#45; Candle)</text>
</g>
<!-- &#45;4,&#45;3 (Breath Deeply. Exhale. (Hot Air))&#45;&gt;3,12 (reserved &#45; Candle, reserved &#45; Candle, reserved &#45; Candle) -->
<g id="edge20" class="edge">
<title>&#45;4,&#45;3 (Breath Deeply. Exhale. (Hot Air))&#45;&gt;3,12 (reserved &#45; Candle, reserved &#45; Candle, reserved &#45; Candle)</title>
<path fill="none" stroke="black" stroke-width="0.13" d="M2958.29,-5310.38C2917.74,-4989.41 2349.22,-489.06 2298.6,-88.35"/>
<polygon fill="black" stroke="black" stroke-width="0.13" points="2302.04,-87.66 2297.31,-78.18 2295.09,-88.54 2302.04,-87.66"/>
<text text-anchor="middle" x="2558.94" y="-2703.16" font-family="Times,serif" font-size="14.00">hot&#45;air&#45;barrel*1488</text>
</g>
<!-- 6,3 (Things from molten) -->
<g id="node19" class="node">
<title>6,3 (Things from molten)</title>
<ellipse fill="none" stroke="black" cx="1660.75" cy="-265.95" rx="126.18" ry="18"/>
<text text-anchor="middle" x="1660.75" y="-262.25" font-family="Times,serif" font-size="14.00">6,3 (Things from molten)</text>
</g>
<!-- &#45;4,&#45;3 (Breath Deeply. Exhale. (Hot Air))&#45;&gt;6,3 (Things from molten) -->
<g id="edge39" class="edge">
<title>&#45;4,&#45;3 (Breath Deeply. Exhale. (Hot Air))&#45;&gt;6,3 (Things from molten)</title>
<path fill="none" stroke="black" stroke-width="0.13" d="M2955.87,-5310.09C2874.62,-4993.66 1767.55,-681.91 1667.91,-293.85"/>
<polygon fill="black" stroke="black" stroke-width="0.13" points="1671.26,-292.8 1665.38,-283.98 1664.48,-294.54 1671.26,-292.8"/>
<text text-anchor="middle" x="2242.39" y="-2805.77" font-family="Times,serif" font-size="14.00">hot&#45;air&#45;barrel*1464</text>
</g>
<!-- 4,6 (Circuit substrate and Doped silicon) -->
<g id="node20" class="node">
<title>4,6 (Circuit substrate and Doped silicon)</title>
<ellipse fill="none" stroke="black" cx="1097.68" cy="-623.29" rx="199.56" ry="18"/>
<text text-anchor="middle" x="1097.68" y="-619.59" font-family="Times,serif" font-size="14.00">4,6 (Circuit substrate and Doped silicon)</text>
</g>
<!-- &#45;4,&#45;3 (Breath Deeply. Exhale. (Hot Air))&#45;&gt;4,6 (Circuit substrate and Doped silicon) -->
<g id="edge25" class="edge">
<title>&#45;4,&#45;3 (Breath Deeply. Exhale. (Hot Air))&#45;&gt;4,6 (Circuit substrate and Doped silicon)</title>
<path fill="none" stroke="black" stroke-width="0.45" d="M2953.26,-5309.96C2832.52,-5005 1255.09,-1020.87 1108.57,-650.8"/>
<polygon fill="black" stroke="black" stroke-width="0.45" points="1111.77,-649.37 1104.83,-641.36 1105.26,-651.95 1111.77,-649.37"/>
<text text-anchor="middle" x="1961.41" y="-2984.18" font-family="Times,serif" font-size="14.00">hot&#45;air&#45;barrel*5016</text>
</g>
<!-- 3,5 (Molybdenum plate) -->
<g id="node21" class="node">
<title>3,5 (Molybdenum plate)</title>
<ellipse fill="none" stroke="black" cx="641.16" cy="-1109.43" rx="122.38" ry="18"/>
<text text-anchor="middle" x="641.16" y="-1105.73" font-family="Times,serif" font-size="14.00">3,5 (Molybdenum plate)</text>
</g>
<!-- &#45;4,&#45;3 (Breath Deeply. Exhale. (Hot Air))&#45;&gt;3,5 (Molybdenum plate) -->
<g id="edge37" class="edge">
<title>&#45;4,&#45;3 (Breath Deeply. Exhale. (Hot Air))&#45;&gt;3,5 (Molybdenum plate)</title>
<path fill="none" stroke="black" stroke-width="0.4" d="M2950.48,-5310.08C2793.18,-5023.94 846.29,-1482.56 656.09,-1136.58"/>
<polygon fill="black" stroke="black" stroke-width="0.4" points="659.09,-1134.78 651.21,-1127.71 652.96,-1138.16 659.09,-1134.78"/>
<text text-anchor="middle" x="1733.78" y="-3227.13" font-family="Times,serif" font-size="14.00">hot&#45;air&#45;barrel*4368</text>
</g>
<!-- &#45;6,8 (Copper plate duplicate) -->
<g id="node22" class="node">
<title>&#45;6,8 (Copper plate duplicate)</title>
<ellipse fill="none" stroke="black" cx="319.88" cy="-1693.83" rx="143.77" ry="18"/>
<text text-anchor="middle" x="319.88" y="-1690.13" font-family="Times,serif" font-size="14.00">&#45;6,8 (Copper plate duplicate)</text>
</g>
<!-- &#45;4,&#45;3 (Breath Deeply. Exhale. (Hot Air))&#45;&gt;&#45;6,8 (Copper plate duplicate) -->
<g id="edge28" class="edge">
<title>&#45;4,&#45;3 (Breath Deeply. Exhale. (Hot Air))&#45;&gt;&#45;6,8 (Copper plate duplicate)</title>
<path fill="none" stroke="black" stroke-width="0.13" d="M2947.3,-5310.16C2756.46,-5047.49 567.63,-2034.82 339.14,-1720.33"/>
<polygon fill="black" stroke="black" stroke-width="0.13" points="341.66,-1717.85 332.95,-1711.82 336,-1721.97 341.66,-1717.85"/>
<text text-anchor="middle" x="1573.72" y="-3519.05" font-family="Times,serif" font-size="14.00">hot&#45;air&#45;barrel*1464</text>
</g>
<!-- 2,1 (Niobium plates) -->
<g id="node23" class="node">
<title>2,1 (Niobium plates)</title>
<ellipse fill="none" stroke="black" cx="154.04" cy="-2339.77" rx="105.88" ry="18"/>
<text text-anchor="middle" x="154.04" y="-2336.07" font-family="Times,serif" font-size="14.00">2,1 (Niobium plates)</text>
</g>
<!-- &#45;4,&#45;3 (Breath Deeply. Exhale. (Hot Air))&#45;&gt;2,1 (Niobium plates) -->
<g id="edge35" class="edge">
<title>&#45;4,&#45;3 (Breath Deeply. Exhale. (Hot Air))&#45;&gt;2,1 (Niobium plates)</title>
<path fill="none" stroke="black" stroke-width="0.57" d="M2943.38,-5310.11C2722.26,-5074.64 438.47,-2642.66 178.16,-2365.46"/>
<polygon fill="black" stroke="black" stroke-width="0.57" points="180.45,-2362.78 171.05,-2357.89 175.35,-2367.57 180.45,-2362.78"/>
<text text-anchor="middle" x="1491.27" y="-3841.59" font-family="Times,serif" font-size="14.00">hot&#45;air&#45;barrel*6312</text>
</g>
<!-- 8,&#45;10 (Copper plate duplicater) -->
<g id="node24" class="node">
<title>8,&#45;10 (Copper plate duplicater)</title>
<ellipse fill="none" stroke="black" cx="154.04" cy="-3006.66" rx="154.07" ry="18"/>
<text text-anchor="middle" x="154.04" y="-3002.96" font-family="Times,serif" font-size="14.00">8,&#45;10 (Copper plate duplicater)</text>
</g>
<!-- &#45;4,&#45;3 (Breath Deeply. Exhale. (Hot Air))&#45;&gt;8,&#45;10 (Copper plate duplicater) -->
<g id="edge30" class="edge">
<title>&#45;4,&#45;3 (Breath Deeply. Exhale. (Hot Air))&#45;&gt;8,&#45;10 (Copper plate duplicater)</title>
<path fill="none" stroke="black" stroke-width="0.05" d="M2938.79,-5310.41C2694.27,-5108.12 467.4,-3265.89 183.72,-3031.21"/>
<polygon fill="black" stroke="black" stroke-width="0.05" points="185.83,-3028.42 175.9,-3024.74 181.37,-3033.81 185.83,-3028.42"/>
<text text-anchor="middle" x="1496.26" y="-4174.61" font-family="Times,serif" font-size="14.00">hot&#45;air&#45;barrel*504</text>
</g>
<!-- &#45;1,10 (Iron Plates) -->
<g id="node25" class="node">
<title>&#45;1,10 (Iron Plates)</title>
<ellipse fill="none" stroke="black" cx="319.88" cy="-3652.59" rx="94.78" ry="18"/>
<text text-anchor="middle" x="319.88" y="-3648.89" font-family="Times,serif" font-size="14.00">&#45;1,10 (Iron Plates)</text>
</g>
<!-- &#45;4,&#45;3 (Breath Deeply. Exhale. (Hot Air))&#45;&gt;&#45;1,10 (Iron Plates) -->
<g id="edge48" class="edge">
<title>&#45;4,&#45;3 (Breath Deeply. Exhale. (Hot Air))&#45;&gt;&#45;1,10 (Iron Plates)</title>
<path fill="none" stroke="black" stroke-width="0.09" d="M2932.26,-5310.46C2668.97,-5143.37 651.36,-3862.95 355.94,-3675.48"/>
<polygon fill="black" stroke="black" stroke-width="0.09" points="357.64,-3672.41 347.32,-3670 353.89,-3678.32 357.64,-3672.41"/>
<text text-anchor="middle" x="1579.1" y="-4496.77" font-family="Times,serif" font-size="14.00">hot&#45;air&#45;barrel*960</text>
</g>
<!-- &#45;5,5 (fluid=flue&#45;gas Flue gas) -->
<g id="node26" class="node">
<title>&#45;5,5 (fluid=flue&#45;gas Flue gas)</title>
<ellipse fill="none" stroke="black" cx="641.16" cy="-4236.99" rx="145.67" ry="18"/>
<text text-anchor="middle" x="641.16" y="-4233.29" font-family="Times,serif" font-size="14.00">&#45;5,5 (fluid=flue&#45;gas Flue gas)</text>
</g>
<!-- &#45;4,&#45;3 (Breath Deeply. Exhale. (Hot Air))&#45;&gt;&#45;5,5 (fluid=flue&#45;gas Flue gas) -->
<g id="edge32" class="edge">
<title>&#45;4,&#45;3 (Breath Deeply. Exhale. (Hot Air))&#45;&gt;&#45;5,5 (fluid=flue&#45;gas Flue gas)</title>
<path fill="none" stroke="black" stroke-width="1.71" d="M2922.73,-5310.62C2650.05,-5182.3 987.62,-4400.02 687.56,-4258.82"/>
<polygon fill="black" stroke="black" stroke-width="1.71" points="688.81,-4255.54 678.27,-4254.45 685.82,-4261.88 688.81,-4255.54"/>
<text text-anchor="middle" x="1731.14" y="-4788.52" font-family="Times,serif" font-size="14.00">hot&#45;air&#45;barrel*18936</text>
</g>
<!-- 4,13 (Chromium processing) -->
<g id="node28" class="node">
<title>4,13 (Chromium processing)</title>
<ellipse fill="none" stroke="black" cx="1097.68" cy="-4723.13" rx="142.97" ry="18"/>
<text text-anchor="middle" x="1097.68" y="-4719.43" font-family="Times,serif" font-size="14.00">4,13 (Chromium processing)</text>
</g>
<!-- &#45;4,&#45;3 (Breath Deeply. Exhale. (Hot Air))&#45;&gt;4,13 (Chromium processing) -->
<g id="edge42" class="edge">
<title>&#45;4,&#45;3 (Breath Deeply. Exhale. (Hot Air))&#45;&gt;4,13 (Chromium processing)</title>
<path fill="none" stroke="black" stroke-width="0.25" d="M2907.32,-5311.12C2639.92,-5224.24 1445.09,-4836.02 1159.26,-4743.14"/>
<polygon fill="black" stroke="black" stroke-width="0.25" points="1160.07,-4739.72 1149.47,-4739.96 1157.9,-4746.38 1160.07,-4739.72"/>
<text text-anchor="middle" x="1963.79" y="-5030.93" font-family="Times,serif" font-size="14.00">hot&#45;air&#45;barrel*2808</text>
</g>
<!-- &#45;6,4 (Urea) -->
<g id="node3" class="node">
<title>&#45;6,4 (Urea)</title>
<ellipse fill="none" stroke="black" cx="5100.38" cy="-18.21" rx="61.19" ry="18"/>
<text text-anchor="middle" x="5100.38" y="-14.51" font-family="Times,serif" font-size="14.00">&#45;6,4 (Urea)</text>
</g>
<!-- 1,4 (Casein and Melamine) -->
<g id="node4" class="node">
<title>1,4 (Casein and Melamine)</title>
<ellipse fill="none" stroke="black" cx="5368.66" cy="-18.21" rx="135.38" ry="18"/>
<text text-anchor="middle" x="5368.66" y="-14.51" font-family="Times,serif" font-size="14.00">1,4 (Casein and Melamine)</text>
</g>
<!-- &#45;6,4 (Urea)&#45;&gt;1,4 (Casein and Melamine) -->
<g id="edge2" class="edge">
<title>&#45;6,4 (Urea)&#45;&gt;1,4 (Casein and Melamine)</title>
<path fill="none" stroke="black" stroke-width="0.04" d="M5161.59,-18.21C5180.23,-18.21 5201.57,-18.21 5223.31,-18.21"/>
<polygon fill="black" stroke="black" stroke-width="0.04" points="5223.32,-21.71 5233.32,-18.21 5223.32,-14.71 5223.32,-21.71"/>
<text text-anchor="middle" x="5192.45" y="-7.01" font-family="Times,serif" font-size="14.00">hot&#45;air&#45;barrel*480</text>
</g>
<!-- 2,&#45;8 (Hot air) -->
<g id="node5" class="node">
<title>2,&#45;8 (Hot air)</title>
<ellipse fill="none" stroke="black" cx="1660.75" cy="-5080.47" rx="70.69" ry="18"/>
<text text-anchor="middle" x="1660.75" y="-5076.77" font-family="Times,serif" font-size="14.00">2,&#45;8 (Hot air)</text>
</g>
<!-- 2,&#45;8 (Hot air)&#45;&gt;&#45;1,&#45;10 (Petrier dish 2) -->
<g id="edge18" class="edge">
<title>2,&#45;8 (Hot air)&#45;&gt;&#45;1,&#45;10 (Petrier dish 2)</title>
<path fill="none" stroke="black" stroke-width="3.15" d="M1729.75,-5084.81C2019.6,-5103.05 3140.27,-5173.55 3502.22,-5196.33"/>
<polygon fill="black" stroke="black" stroke-width="3.15" points="3502.25,-5199.83 3512.45,-5196.97 3502.69,-5192.85 3502.25,-5199.83"/>
<text text-anchor="middle" x="2541.99" y="-5144.37" font-family="Times,serif" font-size="14.00">hot&#45;air&#45;barrel*34776</text>
</g>
<!-- 2,&#45;8 (Hot air)&#45;&gt;3,13 (Rubber) -->
<g id="edge3" class="edge">
<title>2,&#45;8 (Hot air)&#45;&gt;3,13 (Rubber)</title>
<path fill="none" stroke="black" stroke-width="1.06" d="M1704.59,-5094.72C1817.35,-5131.35 2117.16,-5228.77 2240.66,-5268.9"/>
<polygon fill="black" stroke="black" stroke-width="1.06" points="2239.71,-5272.27 2250.3,-5272.03 2241.87,-5265.61 2239.71,-5272.27"/>
<text text-anchor="middle" x="1898.63" y="-5185.61" font-family="Times,serif" font-size="14.00">hot&#45;air&#45;barrel*11760</text>
</g>
<!-- 2,&#45;8 (Hot air)&#45;&gt;8,8 (Glass and lamps) -->
<g id="edge11" class="edge">
<title>2,&#45;8 (Hot air)&#45;&gt;8,8 (Glass and lamps)</title>
<path fill="none" stroke="black" stroke-width="1.98" d="M1729.84,-5076.12C2080.57,-5054.06 3664.49,-4954.41 4105.05,-4926.69"/>
<polygon fill="black" stroke="black" stroke-width="1.98" points="4105.48,-4930.17 4115.24,-4926.05 4105.04,-4923.18 4105.48,-4930.17"/>
<text text-anchor="middle" x="2843.44" y="-5005.21" font-family="Times,serif" font-size="14.00">hot&#45;air&#45;barrel*21864</text>
</g>
<!-- 2,&#45;8 (Hot air)&#45;&gt;&#45;3,&#45;11 (Petri dish 2) -->
<g id="edge23" class="edge">
<title>2,&#45;8 (Hot air)&#45;&gt;&#45;3,&#45;11 (Petri dish 2)</title>
<path fill="none" stroke="black" stroke-width="2.38" d="M1717.69,-5069.61C2093.49,-4997.92 4215.5,-4593.13 4653.73,-4509.53"/>
<polygon fill="black" stroke="black" stroke-width="2.38" points="4654.6,-4512.93 4663.77,-4507.61 4653.29,-4506.05 4654.6,-4512.93"/>
<text text-anchor="middle" x="3111.71" y="-4793.37" font-family="Times,serif" font-size="14.00">hot&#45;air&#45;barrel*26280</text>
</g>
<!-- 2,&#45;8 (Hot air)&#45;&gt;&#45;4,0 (item=lens Optical sets) -->
<g id="edge6" class="edge">
<title>2,&#45;8 (Hot air)&#45;&gt;&#45;4,0 (item=lens Optical sets)</title>
<path fill="none" stroke="black" stroke-width="2.92" d="M1704.55,-5066.24C2071.53,-4947 4631.41,-4115.24 5063.14,-3974.97"/>
<polygon fill="black" stroke="black" stroke-width="2.92" points="5064.51,-3978.2 5072.94,-3971.78 5062.35,-3971.54 5064.51,-3978.2"/>
<text text-anchor="middle" x="3309.85" y="-4524.4" font-family="Times,serif" font-size="14.00">hot&#45;air&#45;barrel*32256</text>
</g>
<!-- 2,&#45;8 (Hot air)&#45;&gt;0,0 (LE BUS) -->
<g id="edge14" class="edge">
<title>2,&#45;8 (Hot air)&#45;&gt;0,0 (LE BUS)</title>
<path fill="none" stroke="black" stroke-width="1.78" d="M1694.53,-5064.58C2040.66,-4901.7 4938.39,-3538.13 5327.3,-3355.12"/>
<polygon fill="black" stroke="black" stroke-width="1.78" points="5328.98,-3358.2 5336.54,-3350.78 5326,-3351.87 5328.98,-3358.2"/>
<text text-anchor="middle" x="3436.91" y="-4213.65" font-family="Times,serif" font-size="14.00">hot&#45;air&#45;barrel*19656</text>
</g>
<!-- 2,&#45;8 (Hot air)&#45;&gt;&#45;7,&#45;8 (Tin mk2) -->
<g id="edge41" class="edge">
<title>2,&#45;8 (Hot air)&#45;&gt;&#45;7,&#45;8 (Tin mk2)</title>
<path fill="none" stroke="black" stroke-width="0.44" d="M1687.26,-5063.65C2003.66,-4862.85 5052.77,-2927.83 5418.21,-2695.91"/>
<polygon fill="black" stroke="black" stroke-width="0.44" points="5420.26,-2698.76 5426.82,-2690.45 5416.5,-2692.85 5420.26,-2698.76"/>
<text text-anchor="middle" x="3483.24" y="-3883.58" font-family="Times,serif" font-size="14.00">hot&#45;air&#45;barrel*4872</text>
</g>
<!-- 2,&#45;8 (Hot air)&#45;&gt;&#45;1,11 (Steel Plate (from molten)) -->
<g id="edge9" class="edge">
<title>2,&#45;8 (Hot air)&#45;&gt;&#45;1,11 (Steel Plate (from molten))</title>
<path fill="none" stroke="black" stroke-width="2.17" d="M1681.61,-5063.21C1963.3,-4830.18 5008.14,-2311.27 5340.93,-2035.96"/>
<polygon fill="black" stroke="black" stroke-width="2.17" points="5343.24,-2038.59 5348.72,-2029.52 5338.78,-2033.2 5343.24,-2038.59"/>
<text text-anchor="middle" x="3437.27" y="-3553.39" font-family="Times,serif" font-size="14.00">hot&#45;air&#45;barrel*24024</text>
</g>
<!-- 2,&#45;8 (Hot air)&#45;&gt;9,&#45;10 (Copper plate yet again) -->
<g id="edge12" class="edge">
<title>2,&#45;8 (Hot air)&#45;&gt;9,&#45;10 (Copper plate yet again)</title>
<path fill="none" stroke="black" stroke-width="0.31" d="M1677.36,-5062.78C1922.56,-4801.67 4804.93,-1732.26 5100.47,-1417.54"/>
<polygon fill="black" stroke="black" stroke-width="0.31" points="5103.43,-1419.5 5107.72,-1409.82 5098.33,-1414.71 5103.43,-1419.5"/>
<text text-anchor="middle" x="3319.42" y="-3243.96" font-family="Times,serif" font-size="14.00">hot&#45;air&#45;barrel*3432</text>
</g>
<!-- 2,&#45;8 (Hot air)&#45;&gt;&#45;2,0 (Glassware) -->
<g id="edge33" class="edge">
<title>2,&#45;8 (Hot air)&#45;&gt;&#45;2,0 (Glassware)</title>
<path fill="none" stroke="black" stroke-width="0.88" d="M1673.78,-5062.54C1879.91,-4778.82 4466.12,-1219.22 4713.88,-878.2"/>
<polygon fill="black" stroke="black" stroke-width="0.88" points="4716.87,-880.04 4719.91,-869.9 4711.2,-875.93 4716.87,-880.04"/>
<text text-anchor="middle" x="3124.33" y="-2974.17" font-family="Times,serif" font-size="14.00">hot&#45;air&#45;barrel*9744</text>
</g>
<!-- 2,&#45;8 (Hot air)&#45;&gt;2,10 (Nickel plate and Nichrome) -->
<g id="edge26" class="edge">
<title>2,&#45;8 (Hot air)&#45;&gt;2,10 (Nickel plate and Nichrome)</title>
<path fill="none" stroke="black" stroke-width="0.11" d="M1670.79,-5062.2C1836.6,-4760.6 4002.83,-820.25 4204.1,-454.14"/>
<polygon fill="black" stroke="black" stroke-width="0.11" points="4207.24,-455.69 4208.99,-445.24 4201.1,-452.32 4207.24,-455.69"/>
<text text-anchor="middle" x="2867.95" y="-2761.97" font-family="Times,serif" font-size="14.00">hot&#45;air&#45;barrel*1248</text>
</g>
<!-- 2,&#45;8 (Hot air)&#45;&gt;3,9 (Copper, molten &amp; plate) -->
<g id="edge17" class="edge">
<title>2,&#45;8 (Hot air)&#45;&gt;3,9 (Copper, molten &amp; plate)</title>
<path fill="none" stroke="black" stroke-width="0.31" d="M1667.93,-5062.35C1790.87,-4751.82 3454.24,-550.64 3604.77,-170.45"/>
<polygon fill="black" stroke="black" stroke-width="0.31" points="3608.08,-171.6 3608.5,-161.01 3601.57,-169.02 3608.08,-171.6"/>
<text text-anchor="middle" x="2566.85" y="-2620.2" font-family="Times,serif" font-size="14.00">hot&#45;air&#45;barrel*3432</text>
</g>
<!-- 2,&#45;8 (Hot air)&#45;&gt;&#45;4,&#45;7 (Nexelit from raw) -->
<g id="edge24" class="edge">
<title>2,&#45;8 (Hot air)&#45;&gt;&#45;4,&#45;7 (Nexelit from raw)</title>
<path fill="none" stroke="black" stroke-width="0.36" d="M1665.46,-5062.14C1746.7,-4745.71 2853.77,-433.95 2953.41,-45.89"/>
<polygon fill="black" stroke="black" stroke-width="0.36" points="2956.85,-46.59 2955.94,-36.03 2950.07,-44.85 2956.85,-46.59"/>
<text text-anchor="middle" x="2239.93" y="-2557.82" font-family="Times,serif" font-size="14.00">hot&#45;air&#45;barrel*3960</text>
</g>
<!-- 2,&#45;8 (Hot air)&#45;&gt;3,12 (reserved &#45; Candle, reserved &#45; Candle, reserved &#45; Candle) -->
<g id="edge46" class="edge">
<title>2,&#45;8 (Hot air)&#45;&gt;3,12 (reserved &#45; Candle, reserved &#45; Candle, reserved &#45; Candle)</title>
<path fill="none" stroke="black" stroke-width="0.22" d="M1663.05,-5062.29C1702.66,-4748.71 2242.07,-478.82 2291.39,-88.41"/>
<polygon fill="black" stroke="black" stroke-width="0.22" points="2294.9,-88.6 2292.68,-78.24 2287.95,-87.72 2294.9,-88.6"/>
<text text-anchor="middle" x="1907.72" y="-2579.15" font-family="Times,serif" font-size="14.00">hot&#45;air&#45;barrel*2448</text>
</g>
<!-- 2,&#45;8 (Hot air)&#45;&gt;6,3 (Things from molten) -->
<g id="edge21" class="edge">
<title>2,&#45;8 (Hot air)&#45;&gt;6,3 (Things from molten)</title>
<path fill="none" stroke="black" stroke-width="0.05" d="M1660.75,-5062.07C1660.75,-4753.87 1660.75,-673.07 1660.75,-294.12"/>
<polygon fill="black" stroke="black" stroke-width="0.05" points="1664.25,-293.99 1660.75,-283.99 1657.25,-293.99 1664.25,-293.99"/>
<text text-anchor="middle" x="1595.75" y="-2681.89" font-family="Times,serif" font-size="14.00">hot&#45;air&#45;barrel*504</text>
</g>
<!-- 2,&#45;8 (Hot air)&#45;&gt;4,6 (Circuit substrate and Doped silicon) -->
<g id="edge44" class="edge">
<title>2,&#45;8 (Hot air)&#45;&gt;4,6 (Circuit substrate and Doped silicon)</title>
<path fill="none" stroke="black" stroke-width="0.22" d="M1658.42,-5062.04C1621.11,-4766.72 1147.31,-1016.19 1101.27,-651.72"/>
<polygon fill="black" stroke="black" stroke-width="0.22" points="1104.73,-651.2 1100.01,-641.72 1097.79,-652.08 1104.73,-651.2"/>
<text text-anchor="middle" x="1310.35" y="-2860.68" font-family="Times,serif" font-size="14.00">hot&#45;air&#45;barrel*2472</text>
</g>
<!-- 2,&#45;8 (Hot air)&#45;&gt;3,5 (Molybdenum plate) -->
<g id="edge27" class="edge">
<title>2,&#45;8 (Hot air)&#45;&gt;3,5 (Molybdenum plate)</title>
<path fill="none" stroke="black" stroke-width="0.56" d="M1656.09,-5062.33C1585.51,-4787.44 735.41,-1476.51 648.35,-1137.42"/>
<polygon fill="black" stroke="black" stroke-width="0.56" points="651.66,-1136.25 645.78,-1127.43 644.88,-1137.99 651.66,-1136.25"/>
<text text-anchor="middle" x="1082.72" y="-3103.67" font-family="Times,serif" font-size="14.00">hot&#45;air&#45;barrel*6144</text>
</g>
<!-- 2,&#45;8 (Hot air)&#45;&gt;&#45;6,8 (Copper plate duplicate) -->
<g id="edge45" class="edge">
<title>2,&#45;8 (Hot air)&#45;&gt;&#45;6,8 (Copper plate duplicate)</title>
<path fill="none" stroke="black" stroke-width="0.18" d="M1653.54,-5062.25C1553.87,-4810.52 453.09,-2030.27 330.89,-1721.62"/>
<polygon fill="black" stroke="black" stroke-width="0.18" points="334.04,-1720.08 327.11,-1712.07 327.53,-1722.66 334.04,-1720.08"/>
<text text-anchor="middle" x="922.71" y="-3395.74" font-family="Times,serif" font-size="14.00">hot&#45;air&#45;barrel*2016</text>
</g>
<!-- 2,&#45;8 (Hot air)&#45;&gt;2,1 (Niobium plates) -->
<g id="edge29" class="edge">
<title>2,&#45;8 (Hot air)&#45;&gt;2,1 (Niobium plates)</title>
<path fill="none" stroke="black" stroke-width="0.79" d="M1650.93,-5062.61C1529.36,-4841.47 317.29,-2636.73 168.9,-2366.8"/>
<polygon fill="black" stroke="black" stroke-width="0.79" points="171.77,-2364.77 163.89,-2357.69 165.64,-2368.14 171.77,-2364.77"/>
<text text-anchor="middle" x="840.42" y="-3718.51" font-family="Times,serif" font-size="14.00">hot&#45;air&#45;barrel*8784</text>
</g>
<!-- 2,&#45;8 (Hot air)&#45;&gt;8,&#45;10 (Copper plate duplicater) -->
<g id="edge43" class="edge">
<title>2,&#45;8 (Hot air)&#45;&gt;8,&#45;10 (Copper plate duplicater)</title>
<path fill="none" stroke="black" stroke-width="0.09" d="M1647.72,-5062.54C1510.85,-4874.14 337.98,-3259.83 173.23,-3033.08"/>
<polygon fill="black" stroke="black" stroke-width="0.09" points="175.88,-3030.77 167.17,-3024.74 170.22,-3034.89 175.88,-3030.77"/>
<text text-anchor="middle" x="845.48" y="-4051.61" font-family="Times,serif" font-size="14.00">hot&#45;air&#45;barrel*984</text>
</g>
<!-- 2,&#45;8 (Hot air)&#45;&gt;&#45;1,10 (Iron Plates) -->
<g id="edge31" class="edge">
<title>2,&#45;8 (Hot air)&#45;&gt;&#45;1,10 (Iron Plates)</title>
<path fill="none" stroke="black" stroke-width="0.14" d="M1644.28,-5062.93C1504.04,-4913.59 511.39,-3856.53 343.87,-3678.13"/>
<polygon fill="black" stroke="black" stroke-width="0.14" points="346.34,-3675.66 336.95,-3670.76 341.24,-3680.45 346.34,-3675.66"/>
<text text-anchor="middle" x="924.57" y="-4374.33" font-family="Times,serif" font-size="14.00">hot&#45;air&#45;barrel*1512</text>
</g>
<!-- 2,&#45;8 (Hot air)&#45;&gt;&#45;5,5 (fluid=flue&#45;gas Flue gas) -->
<g id="edge38" class="edge">
<title>2,&#45;8 (Hot air)&#45;&gt;&#45;5,5 (fluid=flue&#45;gas Flue gas)</title>
<path fill="none" stroke="black" stroke-width="1.62" d="M1639.92,-5063.24C1511.04,-4956.62 822.76,-4387.23 670.85,-4261.55"/>
<polygon fill="black" stroke="black" stroke-width="1.62" points="672.75,-4258.58 662.81,-4254.91 668.29,-4263.98 672.75,-4258.58"/>
<text text-anchor="middle" x="1081.38" y="-4666.2" font-family="Times,serif" font-size="14.00">hot&#45;air&#45;barrel*17952</text>
</g>
<!-- 2,&#45;8 (Hot air)&#45;&gt;4,13 (Chromium processing) -->
<g id="edge47" class="edge">
<title>2,&#45;8 (Hot air)&#45;&gt;4,13 (Chromium processing)</title>
<path fill="none" stroke="black" stroke-width="0.48" d="M1634.35,-5063.71C1542.97,-5005.73 1240.04,-4813.48 1134.4,-4746.44"/>
<polygon fill="black" stroke="black" stroke-width="0.48" points="1135.99,-4743.3 1125.67,-4740.9 1132.24,-4749.21 1135.99,-4743.3"/>
<text text-anchor="middle" x="1314.87" y="-4908.88" font-family="Times,serif" font-size="14.00">hot&#45;air&#45;barrel*5328</text>
</g>
<!-- 8,2 (Tar) -->
<g id="node27" class="node">
<title>8,2 (Tar)</title>
<ellipse fill="none" stroke="black" cx="5576.03" cy="-2673.21" rx="50.09" ry="18"/>
<text text-anchor="middle" x="5576.03" y="-2669.51" font-family="Times,serif" font-size="14.00">8,2 (Tar)</text>
</g>
<!-- &#45;7,&#45;8 (Tin mk2)&#45;&gt;8,2 (Tar) -->
<g id="edge40" class="edge">
<title>&#45;7,&#45;8 (Tin mk2)&#45;&gt;8,2 (Tar)</title>
<path fill="none" stroke="black" stroke-width="0.05" d="M5532.66,-2673.21C5532.7,-2673.21 5532.75,-2673.21 5532.79,-2673.21"/>
<polygon fill="black" stroke="black" stroke-width="0.05" points="5522.93,-2676.72 5532.93,-2673.21 5522.93,-2669.72 5522.93,-2676.72"/>
<text text-anchor="middle" x="5597.72" y="-2677.01" font-family="Times,serif" font-size="14.00">hot&#45;air&#45;barrel*504</text>
</g>
</g>
</svg>
