<?xml version="1.0" encoding="UTF-8" standalone="no"?>
<!DOCTYPE svg PUBLIC "-//W3C//DTD SVG 1.1//EN"
 "http://www.w3.org/Graphics/SVG/1.1/DTD/svg11.dtd">
<!-- Generated by graphviz version 2.43.0 (0)
 -->
<!-- Title: %3 Pages: 1 -->
<svg width="1148pt" height="863pt"
 viewBox="0.00 0.00 1147.66 863.23" xmlns="http://www.w3.org/2000/svg" xmlns:xlink="http://www.w3.org/1999/xlink">
<g id="graph0" class="graph" transform="scale(1 1) rotate(0) translate(4 859.23)">
<title>%3</title>
<polygon fill="white" stroke="transparent" points="-4,4 -4,-859.23 1143.66,-859.23 1143.66,4 -4,4"/>
<!-- 1,7 (Activated Carbon) -->
<g id="node1" class="node">
<title>1,7 (Activated Carbon)</title>
<ellipse fill="none" stroke="black" cx="615.3" cy="-420.14" rx="115.88" ry="18"/>
<text text-anchor="middle" x="615.3" y="-416.44" font-family="Times,serif" font-size="14.00">1,7 (Activated Carbon)</text>
</g>
<!-- 2,6 (Refined Syngas) -->
<g id="node2" class="node">
<title>2,6 (Refined Syngas)</title>
<ellipse fill="none" stroke="black" cx="1032.42" cy="-420.14" rx="107.48" ry="18"/>
<text text-anchor="middle" x="1032.42" y="-416.44" font-family="Times,serif" font-size="14.00">2,6 (Refined Syngas)</text>
</g>
<!-- 1,7 (Activated Carbon)&#45;&gt;2,6 (Refined Syngas) -->
<g id="edge1" class="edge">
<title>1,7 (Activated Carbon)&#45;&gt;2,6 (Refined Syngas)</title>
<path fill="none" stroke="black" stroke-width="1.57" d="M731.22,-420.14C788.41,-420.14 857.28,-420.14 914.72,-420.14"/>
<polygon fill="black" stroke="black" stroke-width="1.57" points="914.93,-423.64 924.93,-420.14 914.93,-416.64 914.93,-423.64"/>
<text text-anchor="middle" x="822.97" y="-408.94" font-family="Times,serif" font-size="14.00">active&#45;carbon*124000</text>
</g>
<!-- 0,6 (Flue Gas Disposal, Syngas From Flue Gas) -->
<g id="node3" class="node">
<title>0,6 (Flue Gas Disposal, Syngas From Flue Gas)</title>
<ellipse fill="none" stroke="black" cx="610.43" cy="-837.23" rx="229.36" ry="18"/>
<text text-anchor="middle" x="610.43" y="-833.53" font-family="Times,serif" font-size="14.00">0,6 (Flue Gas Disposal, Syngas From Flue Gas)</text>
</g>
<!-- 1,7 (Activated Carbon)&#45;&gt;0,6 (Flue Gas Disposal, Syngas From Flue Gas) -->
<g id="edge2" class="edge">
<title>1,7 (Activated Carbon)&#45;&gt;0,6 (Flue Gas Disposal, Syngas From Flue Gas)</title>
<path fill="none" stroke="black" stroke-width="1.11" d="M615.09,-438.33C614.32,-503.92 611.7,-728.62 610.76,-808.65"/>
<polygon fill="black" stroke="black" stroke-width="1.11" points="607.26,-808.91 610.64,-818.95 614.26,-808.99 607.26,-808.91"/>
<text text-anchor="middle" x="538.93" y="-627.29" font-family="Times,serif" font-size="14.00">active&#45;carbon*87520</text>
</g>
<!-- 4,1 (item=filtration&#45;media Filtration Media) -->
<g id="node4" class="node">
<title>4,1 (item=filtration&#45;media Filtration Media)</title>
<ellipse fill="none" stroke="black" cx="214.48" cy="-304.68" rx="214.46" ry="18"/>
<text text-anchor="middle" x="214.48" y="-300.98" font-family="Times,serif" font-size="14.00">4,1 (item=filtration&#45;media Filtration Media)</text>
</g>
<!-- 1,7 (Activated Carbon)&#45;&gt;4,1 (item=filtration&#45;media Filtration Media) -->
<g id="edge3" class="edge">
<title>1,7 (Activated Carbon)&#45;&gt;4,1 (item=filtration&#45;media Filtration Media)</title>
<path fill="none" stroke="black" stroke-width="1.14" d="M559.99,-404.21C488.22,-383.53 362.93,-347.44 284.57,-324.87"/>
<polygon fill="black" stroke="black" stroke-width="1.14" points="285.36,-321.46 274.78,-322.05 283.42,-328.18 285.36,-321.46"/>
<text text-anchor="middle" x="348.28" y="-368.34" font-family="Times,serif" font-size="14.00">active&#45;carbon*89936</text>
</g>
<!-- 4,10 (Fluid Recycling) -->
<g id="node5" class="node">
<title>4,10 (Fluid Recycling)</title>
<ellipse fill="none" stroke="black" cx="726.07" cy="-18" rx="112.38" ry="18"/>
<text text-anchor="middle" x="726.07" y="-14.3" font-family="Times,serif" font-size="14.00">4,10 (Fluid Recycling)</text>
</g>
<!-- 1,7 (Activated Carbon)&#45;&gt;4,10 (Fluid Recycling) -->
<g id="edge4" class="edge">
<title>1,7 (Activated Carbon)&#45;&gt;4,10 (Fluid Recycling)</title>
<path fill="none" stroke="black" stroke-width="0.19" d="M620.28,-402.08C637.85,-338.29 697.07,-123.28 718.37,-45.97"/>
<polygon fill="black" stroke="black" stroke-width="0.19" points="721.83,-46.58 721.11,-36.01 715.08,-44.72 721.83,-46.58"/>
<text text-anchor="middle" x="595.32" y="-227.83" font-family="Times,serif" font-size="14.00">active&#45;carbon*15072</text>
</g>
</g>
</svg>
