<?xml version="1.0" encoding="UTF-8" standalone="no"?>
<!DOCTYPE svg PUBLIC "-//W3C//DTD SVG 1.1//EN"
 "http://www.w3.org/Graphics/SVG/1.1/DTD/svg11.dtd">
<!-- Generated by graphviz version 2.43.0 (0)
 -->
<!-- Title: %3 Pages: 1 -->
<svg width="871pt" height="44pt"
 viewBox="0.00 0.00 870.84 44.00" xmlns="http://www.w3.org/2000/svg" xmlns:xlink="http://www.w3.org/1999/xlink">
<g id="graph0" class="graph" transform="scale(1 1) rotate(0) translate(4 40)">
<title>%3</title>
<polygon fill="white" stroke="transparent" points="-4,4 -4,-40 866.84,-40 866.84,4 -4,4"/>
<!-- &#45;6,&#45;2 (item=fertilizer Fertiliser) -->
<g id="node1" class="node">
<title>&#45;6,&#45;2 (item=fertilizer Fertiliser)</title>
<ellipse fill="none" stroke="black" cx="403.47" cy="-18" rx="155.97" ry="18"/>
<text text-anchor="middle" x="403.47" y="-14.3" font-family="Times,serif" font-size="14.00">&#45;6,&#45;2 (item=fertilizer Fertiliser)</text>
</g>
<!-- &#45;6,&#45;1 (item=agar Agar) -->
<g id="node2" class="node">
<title>&#45;6,&#45;1 (item=agar Agar)</title>
<ellipse fill="none" stroke="black" cx="747.15" cy="-18" rx="115.88" ry="18"/>
<text text-anchor="middle" x="747.15" y="-14.3" font-family="Times,serif" font-size="14.00">&#45;6,&#45;1 (item=agar Agar)</text>
</g>
<!-- &#45;6,&#45;2 (item=fertilizer Fertiliser)&#45;&gt;&#45;6,&#45;1 (item=agar Agar) -->
<g id="edge1" class="edge">
<title>&#45;6,&#45;2 (item=fertilizer Fertiliser)&#45;&gt;&#45;6,&#45;1 (item=agar Agar)</title>
<path fill="none" stroke="black" stroke-width="1" d="M559.47,-18C580.12,-18 601.07,-18 621.13,-18"/>
<polygon fill="black" stroke="black" stroke-width="1" points="621.21,-21.5 631.21,-18 621.21,-14.5 621.21,-21.5"/>
<text text-anchor="middle" x="590.3" y="-6.8" font-family="Times,serif" font-size="14.00">fertilizer*25032</text>
</g>
<!-- 3,&#45;8 (Agar) -->
<g id="node3" class="node">
<title>3,&#45;8 (Agar)</title>
<ellipse fill="none" stroke="black" cx="59.79" cy="-18" rx="59.59" ry="18"/>
<text text-anchor="middle" x="59.79" y="-14.3" font-family="Times,serif" font-size="14.00">3,&#45;8 (Agar)</text>
</g>
<!-- &#45;6,&#45;2 (item=fertilizer Fertiliser)&#45;&gt;3,&#45;8 (Agar) -->
<g id="edge2" class="edge">
<title>&#45;6,&#45;2 (item=fertilizer Fertiliser)&#45;&gt;3,&#45;8 (Agar)</title>
<path fill="none" stroke="black" stroke-width="1" d="M247.47,-18C206.46,-18 164.24,-18 130.25,-18"/>
<polygon fill="black" stroke="black" stroke-width="1" points="129.98,-14.5 119.98,-18 129.98,-21.5 129.98,-14.5"/>
<text text-anchor="middle" x="188.86" y="-6.8" font-family="Times,serif" font-size="14.00">fertilizer*25008</text>
</g>
</g>
</svg>
