<?xml version="1.0" encoding="UTF-8" standalone="no"?>
<!DOCTYPE svg PUBLIC "-//W3C//DTD SVG 1.1//EN"
 "http://www.w3.org/Graphics/SVG/1.1/DTD/svg11.dtd">
<!-- Generated by graphviz version 2.43.0 (0)
 -->
<!-- Title: %3 Pages: 1 -->
<svg width="1237pt" height="44pt"
 viewBox="0.00 0.00 1236.61 44.00" xmlns="http://www.w3.org/2000/svg" xmlns:xlink="http://www.w3.org/1999/xlink">
<g id="graph0" class="graph" transform="scale(1 1) rotate(0) translate(4 40)">
<title>%3</title>
<polygon fill="white" stroke="transparent" points="-4,4 -4,-40 1232.61,-40 1232.61,4 -4,4"/>
<!-- 0,8 (Tar from Coke) -->
<g id="node1" class="node">
<title>0,8 (Tar from Coke)</title>
<ellipse fill="none" stroke="black" cx="100.74" cy="-18" rx="100.98" ry="18"/>
<text text-anchor="middle" x="100.74" y="-14.3" font-family="Times,serif" font-size="14.00">0,8 (Tar from Coke)</text>
</g>
<!-- 0,0 (LE BUS) -->
<g id="node2" class="node">
<title>0,0 (LE BUS)</title>
<ellipse fill="none" stroke="black" cx="344.98" cy="-18" rx="71.49" ry="18"/>
<text text-anchor="middle" x="344.98" y="-14.3" font-family="Times,serif" font-size="14.00">0,0 (LE BUS)</text>
</g>
<!-- 0,8 (Tar from Coke)&#45;&gt;0,0 (LE BUS) -->
<g id="edge1" class="edge">
<title>0,8 (Tar from Coke)&#45;&gt;0,0 (LE BUS)</title>
<path fill="none" stroke="black" stroke-width="0.06" d="M201.49,-18C221.97,-18 243.27,-18 263,-18"/>
<polygon fill="black" stroke="black" stroke-width="0.06" points="263.16,-21.5 273.16,-18 263.16,-14.5 263.16,-21.5"/>
<text text-anchor="middle" x="232.25" y="-6.8" font-family="Times,serif" font-size="14.00">coal&#45;gas&#45;barrel*800</text>
</g>
<!-- 0,7 (Coal Gas) -->
<g id="node3" class="node">
<title>0,7 (Coal Gas)</title>
<ellipse fill="none" stroke="black" cx="564.51" cy="-18" rx="76.09" ry="18"/>
<text text-anchor="middle" x="564.51" y="-14.3" font-family="Times,serif" font-size="14.00">0,7 (Coal Gas)</text>
</g>
<!-- 0,7 (Coal Gas)&#45;&gt;0,0 (LE BUS) -->
<g id="edge3" class="edge">
<title>0,7 (Coal Gas)&#45;&gt;0,0 (LE BUS)</title>
<path fill="none" stroke="black" stroke-width="1.14" d="M488.35,-18C468.43,-18 446.88,-18 426.68,-18"/>
<polygon fill="black" stroke="black" stroke-width="1.14" points="426.58,-14.5 416.58,-18 426.58,-21.5 426.58,-14.5"/>
<text text-anchor="middle" x="418.01" y="-6.8" font-family="Times,serif" font-size="14.00">coal&#45;gas&#45;barrel*15270</text>
</g>
<!-- &#45;4,&#45;4 (Reserved For Aluminium Ore Drop, Aluminium) -->
<g id="node4" class="node">
<title>&#45;4,&#45;4 (Reserved For Aluminium Ore Drop, Aluminium)</title>
<ellipse fill="none" stroke="black" cx="970.58" cy="-18" rx="258.05" ry="18"/>
<text text-anchor="middle" x="970.58" y="-14.3" font-family="Times,serif" font-size="14.00">&#45;4,&#45;4 (Reserved For Aluminium Ore Drop, Aluminium)</text>
</g>
<!-- 0,7 (Coal Gas)&#45;&gt;&#45;4,&#45;4 (Reserved For Aluminium Ore Drop, Aluminium) -->
<g id="edge2" class="edge">
<title>0,7 (Coal Gas)&#45;&gt;&#45;4,&#45;4 (Reserved For Aluminium Ore Drop, Aluminium)</title>
<path fill="none" stroke="black" stroke-width="1.8" d="M640.89,-18C659.42,-18 680.29,-18 702.31,-18"/>
<polygon fill="black" stroke="black" stroke-width="1.8" points="702.5,-21.5 712.5,-18 702.5,-14.5 702.5,-21.5"/>
<text text-anchor="middle" x="671.6" y="-6.8" font-family="Times,serif" font-size="14.00">coal&#45;gas&#45;barrel*24118</text>
</g>
</g>
</svg>
