<?xml version="1.0" encoding="UTF-8" standalone="no"?>
<!DOCTYPE svg PUBLIC "-//W3C//DTD SVG 1.1//EN"
 "http://www.w3.org/Graphics/SVG/1.1/DTD/svg11.dtd">
<!-- Generated by graphviz version 2.43.0 (0)
 -->
<!-- Title: %3 Pages: 1 -->
<svg width="1383pt" height="588pt"
 viewBox="0.00 0.00 1383.49 587.82" xmlns="http://www.w3.org/2000/svg" xmlns:xlink="http://www.w3.org/1999/xlink">
<g id="graph0" class="graph" transform="scale(1 1) rotate(0) translate(4 583.82)">
<title>%3</title>
<polygon fill="white" stroke="transparent" points="-4,4 -4,-583.82 1379.49,-583.82 1379.49,4 -4,4"/>
<!-- 1,&#45;9 (Cocoon duplicatest) -->
<g id="node1" class="node">
<title>1,&#45;9 (Cocoon duplicatest)</title>
<ellipse fill="none" stroke="black" cx="463.28" cy="-561.82" rx="126.18" ry="18"/>
<text text-anchor="middle" x="463.28" y="-558.12" font-family="Times,serif" font-size="14.00">1,&#45;9 (Cocoon duplicatest)</text>
</g>
<!-- 0,0 (LE BUS) -->
<g id="node2" class="node">
<title>0,0 (LE BUS)</title>
<ellipse fill="none" stroke="black" cx="660.84" cy="-289.91" rx="71.49" ry="18"/>
<text text-anchor="middle" x="660.84" y="-286.21" font-family="Times,serif" font-size="14.00">0,0 (LE BUS)</text>
</g>
<!-- 1,&#45;9 (Cocoon duplicatest)&#45;&gt;0,0 (LE BUS) -->
<g id="edge1" class="edge">
<title>1,&#45;9 (Cocoon duplicatest)&#45;&gt;0,0 (LE BUS)</title>
<path fill="none" stroke="black" stroke-width="1.89" d="M476.55,-543.55C510.8,-496.42 602.24,-370.57 641.97,-315.88"/>
<polygon fill="black" stroke="black" stroke-width="1.89" points="644.84,-317.88 647.88,-307.74 639.18,-313.77 644.84,-317.88"/>
<text text-anchor="middle" x="508.76" y="-433.52" font-family="Times,serif" font-size="14.00">cocoon*20301</text>
</g>
<!-- 5,&#45;9 (Chitin, Phosphate rock) -->
<g id="node5" class="node">
<title>5,&#45;9 (Chitin, Phosphate rock)</title>
<ellipse fill="none" stroke="black" cx="143.64" cy="-121.86" rx="143.77" ry="18"/>
<text text-anchor="middle" x="143.64" y="-118.16" font-family="Times,serif" font-size="14.00">5,&#45;9 (Chitin, Phosphate rock)</text>
</g>
<!-- 1,&#45;9 (Cocoon duplicatest)&#45;&gt;5,&#45;9 (Chitin, Phosphate rock) -->
<g id="edge6" class="edge">
<title>1,&#45;9 (Cocoon duplicatest)&#45;&gt;5,&#45;9 (Chitin, Phosphate rock)</title>
<path fill="none" stroke="black" stroke-width="0.14" d="M450.16,-543.75C400.17,-474.95 221.57,-229.13 162.65,-148.03"/>
<polygon fill="black" stroke="black" stroke-width="0.14" points="165.41,-145.87 156.7,-139.83 159.74,-149.98 165.41,-145.87"/>
<text text-anchor="middle" x="260.4" y="-349.69" font-family="Times,serif" font-size="14.00">cocoon*1520</text>
</g>
<!-- 8,5 (Vrauk cocoons) -->
<g id="node3" class="node">
<title>8,5 (Vrauk cocoons)</title>
<ellipse fill="none" stroke="black" cx="463.28" cy="-18" rx="102.08" ry="18"/>
<text text-anchor="middle" x="463.28" y="-14.3" font-family="Times,serif" font-size="14.00">8,5 (Vrauk cocoons)</text>
</g>
<!-- 8,5 (Vrauk cocoons)&#45;&gt;0,0 (LE BUS) -->
<g id="edge2" class="edge">
<title>8,5 (Vrauk cocoons)&#45;&gt;0,0 (LE BUS)</title>
<path fill="none" stroke="black" stroke-width="1.24" d="M476.55,-36.26C510.8,-83.39 602.24,-209.25 641.97,-263.94"/>
<polygon fill="black" stroke="black" stroke-width="1.24" points="639.18,-266.05 647.88,-272.08 644.84,-261.93 639.18,-266.05"/>
<text text-anchor="middle" x="508.76" y="-153.9" font-family="Times,serif" font-size="14.00">cocoon*13282</text>
</g>
<!-- 8,5 (Vrauk cocoons)&#45;&gt;5,&#45;9 (Chitin, Phosphate rock) -->
<g id="edge7" class="edge">
<title>8,5 (Vrauk cocoons)&#45;&gt;5,&#45;9 (Chitin, Phosphate rock)</title>
<path fill="none" stroke="black" stroke-width="0.72" d="M414.39,-33.89C358.31,-52.11 266.28,-82.01 205.32,-101.82"/>
<polygon fill="black" stroke="black" stroke-width="0.72" points="203.87,-98.61 195.44,-105.03 206.04,-105.27 203.87,-98.61"/>
<text text-anchor="middle" x="263.86" y="-71.65" font-family="Times,serif" font-size="14.00">cocoon*7680</text>
</g>
<!-- 2,&#45;9 (Cocoons duplicater) -->
<g id="node4" class="node">
<title>2,&#45;9 (Cocoons duplicater)</title>
<ellipse fill="none" stroke="black" cx="143.64" cy="-457.96" rx="126.98" ry="18"/>
<text text-anchor="middle" x="143.64" y="-454.26" font-family="Times,serif" font-size="14.00">2,&#45;9 (Cocoons duplicater)</text>
</g>
<!-- 2,&#45;9 (Cocoons duplicater)&#45;&gt;0,0 (LE BUS) -->
<g id="edge5" class="edge">
<title>2,&#45;9 (Cocoons duplicater)&#45;&gt;0,0 (LE BUS)</title>
<path fill="none" stroke="black" stroke-width="1.51" d="M194.64,-441.38C292.8,-409.49 507.11,-339.86 607.26,-307.32"/>
<polygon fill="black" stroke="black" stroke-width="1.51" points="608.45,-310.61 616.88,-304.19 606.29,-303.95 608.45,-310.61"/>
<text text-anchor="middle" x="350.45" y="-378.15" font-family="Times,serif" font-size="14.00">cocoon*16160</text>
</g>
<!-- 2,&#45;9 (Cocoons duplicater)&#45;&gt;5,&#45;9 (Chitin, Phosphate rock) -->
<g id="edge3" class="edge">
<title>2,&#45;9 (Cocoons duplicater)&#45;&gt;5,&#45;9 (Chitin, Phosphate rock)</title>
<path fill="none" stroke="black" stroke-width="0.65" d="M143.64,-439.89C143.64,-384.61 143.64,-217.46 143.64,-150.27"/>
<polygon fill="black" stroke="black" stroke-width="0.65" points="147.14,-150.02 143.64,-140.02 140.14,-150.02 147.14,-150.02"/>
<text text-anchor="middle" x="97.64" y="-298.88" font-family="Times,serif" font-size="14.00">cocoon*6960</text>
</g>
<!-- 3,&#45;7 (Vrauk cocoons duplicate) -->
<g id="node6" class="node">
<title>3,&#45;7 (Vrauk cocoons duplicate)</title>
<ellipse fill="none" stroke="black" cx="883.62" cy="-289.91" rx="150.57" ry="18"/>
<text text-anchor="middle" x="883.62" y="-286.21" font-family="Times,serif" font-size="14.00">3,&#45;7 (Vrauk cocoons duplicate)</text>
</g>
<!-- 3,&#45;7 (Vrauk cocoons duplicate)&#45;&gt;0,0 (LE BUS) -->
<g id="edge4" class="edge">
<title>3,&#45;7 (Vrauk cocoons duplicate)&#45;&gt;0,0 (LE BUS)</title>
<path fill="none" stroke="black" stroke-width="1.62" d="M732.56,-289.91C732.48,-289.91 732.4,-289.91 732.32,-289.91"/>
<polygon fill="black" stroke="black" stroke-width="1.62" points="742.09,-286.41 732.09,-289.91 742.09,-293.41 742.09,-286.41"/>
<text text-anchor="middle" x="681.94" y="-293.71" font-family="Times,serif" font-size="14.00">cocoon*17380</text>
</g>
<!-- &#45;9,&#45;10 (Bedding and cages) -->
<g id="node7" class="node">
<title>&#45;9,&#45;10 (Bedding and cages)</title>
<ellipse fill="none" stroke="black" cx="1240.95" cy="-289.91" rx="134.58" ry="18"/>
<text text-anchor="middle" x="1240.95" y="-286.21" font-family="Times,serif" font-size="14.00">&#45;9,&#45;10 (Bedding and cages)</text>
</g>
<!-- 3,&#45;7 (Vrauk cocoons duplicate)&#45;&gt;&#45;9,&#45;10 (Bedding and cages) -->
<g id="edge8" class="edge">
<title>3,&#45;7 (Vrauk cocoons duplicate)&#45;&gt;&#45;9,&#45;10 (Bedding and cages)</title>
<path fill="none" stroke="black" stroke-width="0.24" d="M1034.64,-289.91C1055.01,-289.91 1075.87,-289.91 1096.13,-289.91"/>
<polygon fill="black" stroke="black" stroke-width="0.24" points="1096.34,-293.41 1106.34,-289.91 1096.34,-286.41 1096.34,-293.41"/>
<text text-anchor="middle" x="1065.39" y="-278.71" font-family="Times,serif" font-size="14.00">cocoon*2560</text>
</g>
</g>
</svg>
