<?xml version="1.0" encoding="UTF-8" standalone="no"?>
<!DOCTYPE svg PUBLIC "-//W3C//DTD SVG 1.1//EN"
 "http://www.w3.org/Graphics/SVG/1.1/DTD/svg11.dtd">
<!-- Generated by graphviz version 2.43.0 (0)
 -->
<!-- Title: %3 Pages: 1 -->
<svg width="860pt" height="489pt"
 viewBox="0.00 0.00 859.72 489.44" xmlns="http://www.w3.org/2000/svg" xmlns:xlink="http://www.w3.org/1999/xlink">
<g id="graph0" class="graph" transform="scale(1 1) rotate(0) translate(4 485.44)">
<title>%3</title>
<polygon fill="white" stroke="transparent" points="-4,4 -4,-485.44 855.72,-485.44 855.72,4 -4,4"/>
<!-- 4,2 (More fiberboard) -->
<g id="node1" class="node">
<title>4,2 (More fiberboard)</title>
<ellipse fill="none" stroke="black" cx="152" cy="-103.07" rx="111.28" ry="18"/>
<text text-anchor="middle" x="152" y="-99.37" font-family="Times,serif" font-size="14.00">4,2 (More fiberboard)</text>
</g>
<!-- 0,0 (LE BUS) -->
<g id="node2" class="node">
<title>0,0 (LE BUS)</title>
<ellipse fill="none" stroke="black" cx="575.64" cy="-240.72" rx="71.49" ry="18"/>
<text text-anchor="middle" x="575.64" y="-237.02" font-family="Times,serif" font-size="14.00">0,0 (LE BUS)</text>
</g>
<!-- 4,2 (More fiberboard)&#45;&gt;0,0 (LE BUS) -->
<g id="edge1" class="edge">
<title>4,2 (More fiberboard)&#45;&gt;0,0 (LE BUS)</title>
<path fill="none" stroke="black" stroke-width="4.45" d="M201.84,-119.27C282.13,-145.35 439.43,-196.46 522.05,-223.31"/>
<polygon fill="black" stroke="black" stroke-width="4.45" points="521.03,-227.07 531.74,-226.46 523.43,-219.66 521.03,-227.07"/>
<text text-anchor="middle" x="281.44" y="-175.09" font-family="Times,serif" font-size="14.00">creosote&#45;barrel*74000</text>
</g>
<!-- 5,8 (Ulric Food) -->
<g id="node3" class="node">
<title>5,8 (Ulric Food)</title>
<ellipse fill="none" stroke="black" cx="152" cy="-378.37" rx="83.39" ry="18"/>
<text text-anchor="middle" x="152" y="-374.67" font-family="Times,serif" font-size="14.00">5,8 (Ulric Food)</text>
</g>
<!-- 4,2 (More fiberboard)&#45;&gt;5,8 (Ulric Food) -->
<g id="edge6" class="edge">
<title>4,2 (More fiberboard)&#45;&gt;5,8 (Ulric Food)</title>
<path fill="none" stroke="black" stroke-width="0.25" d="M152,-121.13C152,-168 152,-293.74 152,-350.22"/>
<polygon fill="black" stroke="black" stroke-width="0.25" points="148.5,-350.24 152,-360.24 155.5,-350.24 148.5,-350.24"/>
<text text-anchor="middle" x="76" y="-239.48" font-family="Times,serif" font-size="14.00">creosote&#45;barrel*4160</text>
</g>
<!-- 5,&#45;2 (Lubricant) -->
<g id="node5" class="node">
<title>5,&#45;2 (Lubricant)</title>
<ellipse fill="none" stroke="black" cx="413.82" cy="-18" rx="83.39" ry="18"/>
<text text-anchor="middle" x="413.82" y="-14.3" font-family="Times,serif" font-size="14.00">5,&#45;2 (Lubricant)</text>
</g>
<!-- 4,2 (More fiberboard)&#45;&gt;5,&#45;2 (Lubricant) -->
<g id="edge5" class="edge">
<title>4,2 (More fiberboard)&#45;&gt;5,&#45;2 (Lubricant)</title>
<path fill="none" stroke="black" stroke-width="0.5" d="M201.86,-86.87C246.47,-72.38 311.76,-51.16 358.08,-36.11"/>
<polygon fill="black" stroke="black" stroke-width="0.5" points="359.23,-39.42 367.66,-33 357.06,-32.76 359.23,-39.42"/>
<text text-anchor="middle" x="203.97" y="-65.29" font-family="Times,serif" font-size="14.00">creosote&#45;barrel*8240</text>
</g>
<!-- 4,&#45;1 (Fluid) -->
<g id="node6" class="node">
<title>4,&#45;1 (Fluid)</title>
<ellipse fill="none" stroke="black" cx="413.82" cy="-463.44" rx="61.99" ry="18"/>
<text text-anchor="middle" x="413.82" y="-459.74" font-family="Times,serif" font-size="14.00">4,&#45;1 (Fluid)</text>
</g>
<!-- 4,2 (More fiberboard)&#45;&gt;4,&#45;1 (Fluid) -->
<g id="edge8" class="edge">
<title>4,2 (More fiberboard)&#45;&gt;4,&#45;1 (Fluid)</title>
<path fill="none" stroke="black" stroke-width="0.42" d="M165.34,-121.44C208.51,-180.86 344.5,-368.03 394.84,-437.31"/>
<polygon fill="black" stroke="black" stroke-width="0.42" points="392.11,-439.5 400.82,-445.54 397.77,-435.39 392.11,-439.5"/>
<text text-anchor="middle" x="204.09" y="-283.18" font-family="Times,serif" font-size="14.00">creosote&#45;barrel*7000</text>
</g>
<!-- 0,0 (LE BUS)&#45;&gt;5,8 (Ulric Food) -->
<g id="edge2" class="edge">
<title>0,0 (LE BUS)&#45;&gt;5,8 (Ulric Food)</title>
<path fill="none" stroke="black" stroke-width="1.29" d="M531.5,-255.06C453.93,-280.26 293.33,-332.45 208.05,-360.16"/>
<polygon fill="black" stroke="black" stroke-width="1.29" points="206.71,-356.91 198.28,-363.33 208.88,-363.57 206.71,-356.91"/>
<text text-anchor="middle" x="289.27" y="-311.41" font-family="Times,serif" font-size="14.00">creosote&#45;barrel*21440</text>
</g>
<!-- 4,12 (Molten Glass) -->
<g id="node4" class="node">
<title>4,12 (Molten Glass)</title>
<ellipse fill="none" stroke="black" cx="749.68" cy="-240.72" rx="102.08" ry="18"/>
<text text-anchor="middle" x="749.68" y="-237.02" font-family="Times,serif" font-size="14.00">4,12 (Molten Glass)</text>
</g>
<!-- 0,0 (LE BUS)&#45;&gt;4,12 (Molten Glass) -->
<g id="edge3" class="edge">
<title>0,0 (LE BUS)&#45;&gt;4,12 (Molten Glass)</title>
<path fill="none" stroke="black" stroke-width="0.3" d="M647.18,-240.72C647.23,-240.72 647.27,-240.72 647.32,-240.72"/>
<polygon fill="black" stroke="black" stroke-width="0.3" points="637.46,-244.23 647.46,-240.72 637.46,-237.23 637.46,-244.23"/>
<text text-anchor="middle" x="571.25" y="-244.52" font-family="Times,serif" font-size="14.00">creosote&#45;barrel*5000</text>
</g>
<!-- 0,0 (LE BUS)&#45;&gt;5,&#45;2 (Lubricant) -->
<g id="edge4" class="edge">
<title>0,0 (LE BUS)&#45;&gt;5,&#45;2 (Lubricant)</title>
<path fill="none" stroke="black" stroke-width="0.61" d="M562.67,-222.87C534.2,-183.69 466.15,-90.02 432.84,-44.18"/>
<polygon fill="black" stroke="black" stroke-width="0.61" points="435.56,-41.97 426.85,-35.93 429.9,-46.08 435.56,-41.97"/>
<text text-anchor="middle" x="417.25" y="-137.32" font-family="Times,serif" font-size="14.00">creosote&#45;barrel*10192</text>
</g>
<!-- 0,0 (LE BUS)&#45;&gt;4,&#45;1 (Fluid) -->
<g id="edge7" class="edge">
<title>0,0 (LE BUS)&#45;&gt;4,&#45;1 (Fluid)</title>
<path fill="none" stroke="black" stroke-width="0.18" d="M562.67,-258.57C534.13,-297.84 465.81,-391.88 432.59,-437.6"/>
<polygon fill="black" stroke="black" stroke-width="0.18" points="429.67,-435.67 426.63,-445.81 435.34,-439.78 429.67,-435.67"/>
<text text-anchor="middle" x="421.63" y="-351.89" font-family="Times,serif" font-size="14.00">creosote&#45;barrel*3000</text>
</g>
</g>
</svg>
