<?xml version="1.0" encoding="UTF-8" standalone="no"?>
<!DOCTYPE svg PUBLIC "-//W3C//DTD SVG 1.1//EN"
 "http://www.w3.org/Graphics/SVG/1.1/DTD/svg11.dtd">
<!-- Generated by graphviz version 2.43.0 (0)
 -->
<!-- Title: %3 Pages: 1 -->
<svg width="1029pt" height="44pt"
 viewBox="0.00 0.00 1028.77 44.00" xmlns="http://www.w3.org/2000/svg" xmlns:xlink="http://www.w3.org/1999/xlink">
<g id="graph0" class="graph" transform="scale(1 1) rotate(0) translate(4 40)">
<title>%3</title>
<polygon fill="white" stroke="transparent" points="-4,4 -4,-40 1024.77,-40 1024.77,4 -4,4"/>
<!-- 4,2 (More fiberboard) -->
<g id="node1" class="node">
<title>4,2 (More fiberboard)</title>
<ellipse fill="none" stroke="black" cx="571.81" cy="-18" rx="111.28" ry="18"/>
<text text-anchor="middle" x="571.81" y="-14.3" font-family="Times,serif" font-size="14.00">4,2 (More fiberboard)</text>
</g>
<!-- 0,0 (LE BUS) -->
<g id="node2" class="node">
<title>0,0 (LE BUS)</title>
<ellipse fill="none" stroke="black" cx="949.28" cy="-18" rx="71.49" ry="18"/>
<text text-anchor="middle" x="949.28" y="-14.3" font-family="Times,serif" font-size="14.00">0,0 (LE BUS)</text>
</g>
<!-- 4,2 (More fiberboard)&#45;&gt;0,0 (LE BUS) -->
<g id="edge1" class="edge">
<title>4,2 (More fiberboard)&#45;&gt;0,0 (LE BUS)</title>
<path fill="none" stroke="black" stroke-width="1.11" d="M683.02,-18C742.06,-18 813.36,-18 867.31,-18"/>
<polygon fill="black" stroke="black" stroke-width="1.11" points="867.52,-21.5 877.52,-18 867.52,-14.5 867.52,-21.5"/>
<text text-anchor="middle" x="775.16" y="-6.8" font-family="Times,serif" font-size="14.00">treated&#45;wood*12688</text>
</g>
<!-- 4,3 (item=nexelit&#45;plate Nexelit platery) -->
<g id="node3" class="node">
<title>4,3 (item=nexelit&#45;plate Nexelit platery)</title>
<ellipse fill="none" stroke="black" cx="194.33" cy="-18" rx="194.17" ry="18"/>
<text text-anchor="middle" x="194.33" y="-14.3" font-family="Times,serif" font-size="14.00">4,3 (item=nexelit&#45;plate Nexelit platery)</text>
</g>
<!-- 4,2 (More fiberboard)&#45;&gt;4,3 (item=nexelit&#45;plate Nexelit platery) -->
<g id="edge2" class="edge">
<title>4,2 (More fiberboard)&#45;&gt;4,3 (item=nexelit&#45;plate Nexelit platery)</title>
<path fill="none" stroke="black" stroke-width="0.89" d="M460.59,-18C441.07,-18 420.2,-18 399.07,-18"/>
<polygon fill="black" stroke="black" stroke-width="0.89" points="399.01,-14.5 389.01,-18 399.01,-21.5 399.01,-14.5"/>
<text text-anchor="middle" x="393.08" y="-6.8" font-family="Times,serif" font-size="14.00">treated&#45;wood*10080</text>
</g>
</g>
</svg>
