<?xml version="1.0" encoding="UTF-8" standalone="no"?>
<!DOCTYPE svg PUBLIC "-//W3C//DTD SVG 1.1//EN"
 "http://www.w3.org/Graphics/SVG/1.1/DTD/svg11.dtd">
<!-- Generated by graphviz version 2.43.0 (0)
 -->
<!-- Title: %3 Pages: 1 -->
<svg width="1441pt" height="1111pt"
 viewBox="0.00 0.00 1441.39 1111.08" xmlns="http://www.w3.org/2000/svg" xmlns:xlink="http://www.w3.org/1999/xlink">
<g id="graph0" class="graph" transform="scale(1 1) rotate(0) translate(4 1107.08)">
<title>%3</title>
<polygon fill="white" stroke="transparent" points="-4,4 -4,-1107.08 1437.39,-1107.08 1437.39,4 -4,4"/>
<!-- 3,9 (Copper, molten &amp; plate) -->
<g id="node1" class="node">
<title>3,9 (Copper, molten &amp; plate)</title>
<ellipse fill="none" stroke="black" cx="792.9" cy="-567.2" rx="143.77" ry="18"/>
<text text-anchor="middle" x="792.9" y="-563.5" font-family="Times,serif" font-size="14.00">3,9 (Copper, molten &amp; plate)</text>
</g>
<!-- 3,3 (Small Parts) -->
<g id="node2" class="node">
<title>3,3 (Small Parts)</title>
<ellipse fill="none" stroke="black" cx="1344.35" cy="-567.2" rx="89.08" ry="18"/>
<text text-anchor="middle" x="1344.35" y="-563.5" font-family="Times,serif" font-size="14.00">3,3 (Small Parts)</text>
</g>
<!-- 3,9 (Copper, molten &amp; plate)&#45;&gt;3,3 (Small Parts) -->
<g id="edge1" class="edge">
<title>3,9 (Copper, molten &amp; plate)&#45;&gt;3,3 (Small Parts)</title>
<path fill="none" stroke="black" stroke-width="2.62" d="M936.71,-567.2C1033.71,-567.2 1159.21,-567.2 1245.18,-567.2"/>
<polygon fill="black" stroke="black" stroke-width="2.62" points="1245.2,-570.7 1255.2,-567.2 1245.2,-563.7 1245.2,-570.7"/>
<text text-anchor="middle" x="1015.44" y="-571" font-family="Times,serif" font-size="14.00">copper&#45;plate*106200</text>
</g>
<!-- 0,0 (LE BUS) -->
<g id="node3" class="node">
<title>0,0 (LE BUS)</title>
<ellipse fill="none" stroke="black" cx="1296.04" cy="-792.91" rx="71.49" ry="18"/>
<text text-anchor="middle" x="1296.04" y="-789.21" font-family="Times,serif" font-size="14.00">0,0 (LE BUS)</text>
</g>
<!-- 3,9 (Copper, molten &amp; plate)&#45;&gt;0,0 (LE BUS) -->
<g id="edge2" class="edge">
<title>3,9 (Copper, molten &amp; plate)&#45;&gt;0,0 (LE BUS)</title>
<path fill="none" stroke="black" stroke-width="1.52" d="M831.96,-584.73C924.02,-626.02 1154.14,-729.25 1251.46,-772.91"/>
<polygon fill="black" stroke="black" stroke-width="1.52" points="1250.18,-776.17 1260.73,-777.07 1253.04,-769.78 1250.18,-776.17"/>
<text text-anchor="middle" x="970.71" y="-682.62" font-family="Times,serif" font-size="14.00">copper&#45;plate*61600</text>
</g>
<!-- 7,1 (item=aerogel item=clean&#45;rf&#45;gel Aerogel) -->
<g id="node4" class="node">
<title>7,1 (item=aerogel item=clean&#45;rf&#45;gel Aerogel)</title>
<ellipse fill="none" stroke="black" cx="1051.54" cy="-1054.24" rx="220.96" ry="18"/>
<text text-anchor="middle" x="1051.54" y="-1050.54" font-family="Times,serif" font-size="14.00">7,1 (item=aerogel item=clean&#45;rf&#45;gel Aerogel)</text>
</g>
<!-- 3,9 (Copper, molten &amp; plate)&#45;&gt;7,1 (item=aerogel item=clean&#45;rf&#45;gel Aerogel) -->
<g id="edge3" class="edge">
<title>3,9 (Copper, molten &amp; plate)&#45;&gt;7,1 (item=aerogel item=clean&#45;rf&#45;gel Aerogel)</title>
<path fill="none" stroke="black" stroke-width="0.49" d="M802.57,-585.41C841.94,-659.55 990.36,-939.04 1037.25,-1027.33"/>
<polygon fill="black" stroke="black" stroke-width="0.49" points="1034.18,-1029.01 1041.96,-1036.2 1040.36,-1025.73 1034.18,-1029.01"/>
<text text-anchor="middle" x="848.91" y="-810.17" font-family="Times,serif" font-size="14.00">copper&#45;plate*20000</text>
</g>
<!-- 2,4 (Formica and Phenolic boards) -->
<g id="node5" class="node">
<title>2,4 (Formica and Phenolic boards)</title>
<ellipse fill="none" stroke="black" cx="603.43" cy="-1085.08" rx="169.77" ry="18"/>
<text text-anchor="middle" x="603.43" y="-1081.38" font-family="Times,serif" font-size="14.00">2,4 (Formica and Phenolic boards)</text>
</g>
<!-- 3,9 (Copper, molten &amp; plate)&#45;&gt;2,4 (Formica and Phenolic boards) -->
<g id="edge4" class="edge">
<title>3,9 (Copper, molten &amp; plate)&#45;&gt;2,4 (Formica and Phenolic boards)</title>
<path fill="none" stroke="black" stroke-width="1.7" d="M786.27,-585.33C758.05,-662.46 647.85,-963.67 613.63,-1057.21"/>
<polygon fill="black" stroke="black" stroke-width="1.7" points="610.25,-1056.24 610.11,-1066.83 616.83,-1058.64 610.25,-1056.24"/>
<text text-anchor="middle" x="628.95" y="-825.07" font-family="Times,serif" font-size="14.00">copper&#45;plate*69000</text>
</g>
<!-- 6,4 (Electronic components) -->
<g id="node6" class="node">
<title>6,4 (Electronic components)</title>
<ellipse fill="none" stroke="black" cx="315.7" cy="-843.57" rx="141.88" ry="18"/>
<text text-anchor="middle" x="315.7" y="-839.87" font-family="Times,serif" font-size="14.00">6,4 (Electronic components)</text>
</g>
<!-- 3,9 (Copper, molten &amp; plate)&#45;&gt;6,4 (Electronic components) -->
<g id="edge5" class="edge">
<title>3,9 (Copper, molten &amp; plate)&#45;&gt;6,4 (Electronic components)</title>
<path fill="none" stroke="black" stroke-width="0.17" d="M762.32,-584.91C679.01,-633.16 448.03,-766.93 355.14,-820.73"/>
<polygon fill="black" stroke="black" stroke-width="0.17" points="353.23,-817.79 346.33,-825.83 356.74,-823.85 353.23,-817.79"/>
<text text-anchor="middle" x="492.23" y="-706.62" font-family="Times,serif" font-size="14.00">copper&#45;plate*6920</text>
</g>
<!-- &#45;6,&#45;4 (High&#45;Power Resistors, Ceramic Capacitor, Inductor) -->
<g id="node7" class="node">
<title>&#45;6,&#45;4 (High&#45;Power Resistors, Ceramic Capacitor, Inductor)</title>
<ellipse fill="none" stroke="black" cx="278.18" cy="-369.33" rx="278.35" ry="18"/>
<text text-anchor="middle" x="278.18" y="-365.63" font-family="Times,serif" font-size="14.00">&#45;6,&#45;4 (High&#45;Power Resistors, Ceramic Capacitor, Inductor)</text>
</g>
<!-- 3,9 (Copper, molten &amp; plate)&#45;&gt;&#45;6,&#45;4 (High&#45;Power Resistors, Ceramic Capacitor, Inductor) -->
<g id="edge6" class="edge">
<title>3,9 (Copper, molten &amp; plate)&#45;&gt;&#45;6,&#45;4 (High&#45;Power Resistors, Ceramic Capacitor, Inductor)</title>
<path fill="none" stroke="black" stroke-width="0.46" d="M748.12,-549.99C654.29,-513.92 437.24,-430.48 334.3,-390.9"/>
<polygon fill="black" stroke="black" stroke-width="0.46" points="335.29,-387.54 324.7,-387.21 332.78,-394.07 335.29,-387.54"/>
<text text-anchor="middle" x="470.21" y="-474.25" font-family="Times,serif" font-size="14.00">copper&#45;plate*18600</text>
</g>
<!-- &#45;5,0 (item=small&#45;lampitem=petri&#45;dish Lamptri dishes) -->
<g id="node8" class="node">
<title>&#45;5,0 (item=small&#45;lampitem=petri&#45;dish Lamptri dishes)</title>
<ellipse fill="none" stroke="black" cx="743.19" cy="-18" rx="263.75" ry="18"/>
<text text-anchor="middle" x="743.19" y="-14.3" font-family="Times,serif" font-size="14.00">&#45;5,0 (item=small&#45;lampitem=petri&#45;dish Lamptri dishes)</text>
</g>
<!-- 3,9 (Copper, molten &amp; plate)&#45;&gt;&#45;5,0 (item=small&#45;lampitem=petri&#45;dish Lamptri dishes) -->
<g id="edge7" class="edge">
<title>3,9 (Copper, molten &amp; plate)&#45;&gt;&#45;5,0 (item=small&#45;lampitem=petri&#45;dish Lamptri dishes)</title>
<path fill="none" stroke="black" stroke-width="0.87" d="M791.25,-548.93C783.95,-468.29 754.59,-143.94 745.73,-46.09"/>
<polygon fill="black" stroke="black" stroke-width="0.87" points="749.21,-45.71 744.83,-36.06 742.24,-46.34 749.21,-45.71"/>
<text text-anchor="middle" x="697.49" y="-301.31" font-family="Times,serif" font-size="14.00">copper&#45;plate*35240</text>
</g>
<!-- 2,5 (Simple Circuits) -->
<g id="node9" class="node">
<title>2,5 (Simple Circuits)</title>
<ellipse fill="none" stroke="black" cx="1153.23" cy="-149.77" rx="106.68" ry="18"/>
<text text-anchor="middle" x="1153.23" y="-146.07" font-family="Times,serif" font-size="14.00">2,5 (Simple Circuits)</text>
</g>
<!-- 3,9 (Copper, molten &amp; plate)&#45;&gt;2,5 (Simple Circuits) -->
<g id="edge8" class="edge">
<title>3,9 (Copper, molten &amp; plate)&#45;&gt;2,5 (Simple Circuits)</title>
<path fill="none" stroke="black" stroke-width="0.54" d="M808.38,-549.27C865.44,-483.17 1064.11,-253.02 1131.03,-175.49"/>
<polygon fill="black" stroke="black" stroke-width="0.54" points="1133.92,-177.49 1137.81,-167.64 1128.62,-172.92 1133.92,-177.49"/>
<text text-anchor="middle" x="898.71" y="-366.18" font-family="Times,serif" font-size="14.00">copper&#45;plate*22000</text>
</g>
<!-- 2,14 (Latex) -->
<g id="node10" class="node">
<title>2,14 (Latex)</title>
<ellipse fill="none" stroke="black" cx="1297.89" cy="-345.66" rx="66.89" ry="18"/>
<text text-anchor="middle" x="1297.89" y="-341.96" font-family="Times,serif" font-size="14.00">2,14 (Latex)</text>
</g>
<!-- 3,9 (Copper, molten &amp; plate)&#45;&gt;2,14 (Latex) -->
<g id="edge9" class="edge">
<title>3,9 (Copper, molten &amp; plate)&#45;&gt;2,14 (Latex)</title>
<path fill="none" stroke="black" stroke-width="0.62" d="M832.53,-549.82C925.35,-509.1 1156.33,-407.76 1253.6,-365.09"/>
<polygon fill="black" stroke="black" stroke-width="0.62" points="1255.11,-368.25 1262.86,-361.02 1252.3,-361.84 1255.11,-368.25"/>
<text text-anchor="middle" x="972.06" y="-461.25" font-family="Times,serif" font-size="14.00">copper&#45;plate*25000</text>
</g>
</g>
</svg>
