<?xml version="1.0" encoding="UTF-8" standalone="no"?>
<!DOCTYPE svg PUBLIC "-//W3C//DTD SVG 1.1//EN"
 "http://www.w3.org/Graphics/SVG/1.1/DTD/svg11.dtd">
<!-- Generated by graphviz version 2.43.0 (0)
 -->
<!-- Title: %3 Pages: 1 -->
<svg width="2547pt" height="2096pt"
 viewBox="0.00 0.00 2547.03 2096.24" xmlns="http://www.w3.org/2000/svg" xmlns:xlink="http://www.w3.org/1999/xlink">
<g id="graph0" class="graph" transform="scale(1 1) rotate(0) translate(4 2092.24)">
<title>%3</title>
<polygon fill="white" stroke="transparent" points="-4,4 -4,-2092.24 2543.03,-2092.24 2543.03,4 -4,4"/>
<!-- 3,7 (Wood) -->
<g id="node1" class="node">
<title>3,7 (Wood)</title>
<ellipse fill="none" stroke="black" cx="489.22" cy="-221.24" rx="61.19" ry="18"/>
<text text-anchor="middle" x="489.22" y="-217.54" font-family="Times,serif" font-size="14.00">3,7 (Wood)</text>
</g>
<!-- 5,8 (Ulric Food, Sandcastings) -->
<g id="node2" class="node">
<title>5,8 (Ulric Food, Sandcastings)</title>
<ellipse fill="none" stroke="black" cx="197.17" cy="-587.45" rx="151.37" ry="18"/>
<text text-anchor="middle" x="197.17" y="-583.75" font-family="Times,serif" font-size="14.00">5,8 (Ulric Food, Sandcastings)</text>
</g>
<!-- 3,7 (Wood)&#45;&gt;5,8 (Ulric Food, Sandcastings) -->
<g id="edge1" class="edge">
<title>3,7 (Wood)&#45;&gt;5,8 (Ulric Food, Sandcastings)</title>
<path fill="none" stroke="black" stroke-width="1.66" d="M475.14,-238.9C427.84,-298.21 274.51,-490.48 218.18,-561.11"/>
<polygon fill="black" stroke="black" stroke-width="1.66" points="215.3,-559.1 211.81,-569.1 220.78,-563.47 215.3,-559.1"/>
<text text-anchor="middle" x="301.66" y="-403.8" font-family="Times,serif" font-size="14.00">wood*79360</text>
</g>
<!-- 0,0 (LE BUS) -->
<g id="node3" class="node">
<title>0,0 (LE BUS)</title>
<ellipse fill="none" stroke="black" cx="911.24" cy="-18" rx="71.49" ry="18"/>
<text text-anchor="middle" x="911.24" y="-14.3" font-family="Times,serif" font-size="14.00">0,0 (LE BUS)</text>
</g>
<!-- 3,7 (Wood)&#45;&gt;0,0 (LE BUS) -->
<g id="edge2" class="edge">
<title>3,7 (Wood)&#45;&gt;0,0 (LE BUS)</title>
<path fill="none" stroke="black" stroke-width="2.29" d="M521.29,-205.79C596.56,-169.54 784.57,-79 869.02,-38.34"/>
<polygon fill="black" stroke="black" stroke-width="2.29" points="870.57,-41.47 878.06,-33.98 867.54,-35.16 870.57,-41.47"/>
<text text-anchor="middle" x="645.65" y="-125.86" font-family="Times,serif" font-size="14.00">wood*109360</text>
</g>
<!-- &#45;4,8 (Moar Ulric Food) -->
<g id="node5" class="node">
<title>&#45;4,8 (Moar Ulric Food)</title>
<ellipse fill="none" stroke="black" cx="1801.68" cy="-221.24" rx="113.98" ry="18"/>
<text text-anchor="middle" x="1801.68" y="-217.54" font-family="Times,serif" font-size="14.00">&#45;4,8 (Moar Ulric Food)</text>
</g>
<!-- 3,7 (Wood)&#45;&gt;&#45;4,8 (Moar Ulric Food) -->
<g id="edge19" class="edge">
<title>3,7 (Wood)&#45;&gt;&#45;4,8 (Moar Ulric Food)</title>
<path fill="none" stroke="black" stroke-width="0.84" d="M550.33,-221.24C752.57,-221.24 1402.89,-221.24 1677.48,-221.24"/>
<polygon fill="black" stroke="black" stroke-width="0.84" points="1677.88,-224.74 1687.88,-221.24 1677.88,-217.74 1677.88,-224.74"/>
<text text-anchor="middle" x="1068.9" y="-225.04" font-family="Times,serif" font-size="14.00">wood*40000</text>
</g>
<!-- 3,6 (Phosphoric Acid and Phosphine gas) -->
<g id="node7" class="node">
<title>3,6 (Phosphoric Acid and Phosphine gas)</title>
<ellipse fill="none" stroke="black" cx="1379.65" cy="-18" rx="200.36" ry="18"/>
<text text-anchor="middle" x="1379.65" y="-14.3" font-family="Times,serif" font-size="14.00">3,6 (Phosphoric Acid and Phosphine gas)</text>
</g>
<!-- 3,7 (Wood)&#45;&gt;3,6 (Phosphoric Acid and Phosphine gas) -->
<g id="edge23" class="edge">
<title>3,7 (Wood)&#45;&gt;3,6 (Phosphoric Acid and Phosphine gas)</title>
<path fill="none" stroke="black" stroke-width="1.57" d="M537.73,-210.16C682.68,-177.08 1113.82,-78.68 1296.44,-36.99"/>
<polygon fill="black" stroke="black" stroke-width="1.57" points="1297.29,-40.39 1306.26,-34.75 1295.73,-33.56 1297.29,-40.39"/>
<text text-anchor="middle" x="872.08" y="-127.38" font-family="Times,serif" font-size="14.00">wood*75200</text>
</g>
<!-- &#45;3,7 (Sea sprouts) -->
<g id="node8" class="node">
<title>&#45;3,7 (Sea sprouts)</title>
<ellipse fill="none" stroke="black" cx="92.94" cy="-1044.12" rx="92.88" ry="18"/>
<text text-anchor="middle" x="92.94" y="-1040.42" font-family="Times,serif" font-size="14.00">&#45;3,7 (Sea sprouts)</text>
</g>
<!-- 3,7 (Wood)&#45;&gt;&#45;3,7 (Sea sprouts) -->
<g id="edge15" class="edge">
<title>3,7 (Wood)&#45;&gt;&#45;3,7 (Sea sprouts)</title>
<path fill="none" stroke="black" stroke-width="1.05" d="M480.58,-239.19C429.56,-345.13 167.92,-888.42 106.06,-1016.87"/>
<polygon fill="black" stroke="black" stroke-width="1.05" points="102.83,-1015.52 101.64,-1026.05 109.14,-1018.56 102.83,-1015.52"/>
<text text-anchor="middle" x="248.32" y="-631.83" font-family="Times,serif" font-size="14.00">wood*50000</text>
</g>
<!-- &#45;6,&#45;2 (item=fertilizer Fertiliser) -->
<g id="node9" class="node">
<title>&#45;6,&#45;2 (item=fertilizer Fertiliser)</title>
<ellipse fill="none" stroke="black" cx="197.17" cy="-1500.79" rx="155.97" ry="18"/>
<text text-anchor="middle" x="197.17" y="-1497.09" font-family="Times,serif" font-size="14.00">&#45;6,&#45;2 (item=fertilizer Fertiliser)</text>
</g>
<!-- 3,7 (Wood)&#45;&gt;&#45;6,&#45;2 (item=fertilizer Fertiliser) -->
<g id="edge8" class="edge">
<title>3,7 (Wood)&#45;&gt;&#45;6,&#45;2 (item=fertilizer Fertiliser)</title>
<path fill="none" stroke="black" stroke-width="0.22" d="M485.09,-239.32C452.97,-380.05 243.23,-1299 203.62,-1472.54"/>
<polygon fill="black" stroke="black" stroke-width="0.22" points="200.17,-1471.92 201.36,-1482.44 207,-1473.47 200.17,-1471.92"/>
<text text-anchor="middle" x="299.36" y="-859.73" font-family="Times,serif" font-size="14.00">wood*10560</text>
</g>
<!-- &#45;3,4 (Lard from Cottonguts) -->
<g id="node10" class="node">
<title>&#45;3,4 (Lard from Cottonguts)</title>
<ellipse fill="none" stroke="black" cx="2093.73" cy="-1500.79" rx="139.18" ry="18"/>
<text text-anchor="middle" x="2093.73" y="-1497.09" font-family="Times,serif" font-size="14.00">&#45;3,4 (Lard from Cottonguts)</text>
</g>
<!-- 3,7 (Wood)&#45;&gt;&#45;3,4 (Lard from Cottonguts) -->
<g id="edge9" class="edge">
<title>3,7 (Wood)&#45;&gt;&#45;3,4 (Lard from Cottonguts)</title>
<path fill="none" stroke="black" stroke-width="0.42" d="M510.69,-238.36C684.37,-376.86 1858.35,-1313.08 2063.25,-1476.48"/>
<polygon fill="black" stroke="black" stroke-width="0.42" points="2061.21,-1479.33 2071.21,-1482.83 2065.57,-1473.86 2061.21,-1479.33"/>
<text text-anchor="middle" x="1241.97" y="-861.22" font-family="Times,serif" font-size="14.00">wood*20000</text>
</g>
<!-- 4,7 (Cottonguts) -->
<g id="node12" class="node">
<title>4,7 (Cottonguts)</title>
<ellipse fill="none" stroke="black" cx="2093.73" cy="-587.45" rx="87.18" ry="18"/>
<text text-anchor="middle" x="2093.73" y="-583.75" font-family="Times,serif" font-size="14.00">4,7 (Cottonguts)</text>
</g>
<!-- 3,7 (Wood)&#45;&gt;4,7 (Cottonguts) -->
<g id="edge30" class="edge">
<title>3,7 (Wood)&#45;&gt;4,7 (Cottonguts)</title>
<path fill="none" stroke="black" stroke-width="0.21" d="M537.68,-232.3C768.24,-284.92 1754.24,-509.97 2024.81,-571.72"/>
<polygon fill="black" stroke="black" stroke-width="0.21" points="2024.36,-575.21 2034.89,-574.02 2025.92,-568.39 2024.36,-575.21"/>
<text text-anchor="middle" x="1236.24" y="-405.81" font-family="Times,serif" font-size="14.00">wood*10000</text>
</g>
<!-- &#45;6,4 (Urea) -->
<g id="node13" class="node">
<title>&#45;6,4 (Urea)</title>
<ellipse fill="none" stroke="black" cx="489.22" cy="-1867" rx="61.19" ry="18"/>
<text text-anchor="middle" x="489.22" y="-1863.3" font-family="Times,serif" font-size="14.00">&#45;6,4 (Urea)</text>
</g>
<!-- 3,7 (Wood)&#45;&gt;&#45;6,4 (Urea) -->
<g id="edge14" class="edge">
<title>3,7 (Wood)&#45;&gt;&#45;6,4 (Urea)</title>
<path fill="none" stroke="black" stroke-width="0.51" d="M489.22,-239.44C489.22,-404.15 489.22,-1635.93 489.22,-1838.77"/>
<polygon fill="black" stroke="black" stroke-width="0.51" points="485.72,-1838.91 489.22,-1848.91 492.72,-1838.91 485.72,-1838.91"/>
<text text-anchor="middle" x="444.22" y="-1042.9" font-family="Times,serif" font-size="14.00">wood*24560</text>
</g>
<!-- 9,4 (Ulric fooder) -->
<g id="node14" class="node">
<title>9,4 (Ulric fooder)</title>
<ellipse fill="none" stroke="black" cx="911.24" cy="-2070.24" rx="90.98" ry="18"/>
<text text-anchor="middle" x="911.24" y="-2066.54" font-family="Times,serif" font-size="14.00">9,4 (Ulric fooder)</text>
</g>
<!-- 3,7 (Wood)&#45;&gt;9,4 (Ulric fooder) -->
<g id="edge24" class="edge">
<title>3,7 (Wood)&#45;&gt;9,4 (Ulric fooder)</title>
<path fill="none" stroke="black" stroke-width="1.05" d="M493.33,-239.24C533.46,-415.08 855.14,-1824.43 904.81,-2042.06"/>
<polygon fill="black" stroke="black" stroke-width="1.05" points="901.46,-2043.08 907.09,-2052.05 908.28,-2041.52 901.46,-2043.08"/>
<text text-anchor="middle" x="654.07" y="-1144.45" font-family="Times,serif" font-size="14.00">wood*50000</text>
</g>
<!-- 5,&#45;3 (Wood duplicate) -->
<g id="node4" class="node">
<title>5,&#45;3 (Wood duplicate)</title>
<ellipse fill="none" stroke="black" cx="2197.96" cy="-1044.12" rx="109.68" ry="18"/>
<text text-anchor="middle" x="2197.96" y="-1040.42" font-family="Times,serif" font-size="14.00">5,&#45;3 (Wood duplicate)</text>
</g>
<!-- 5,&#45;3 (Wood duplicate)&#45;&gt;5,8 (Ulric Food, Sandcastings) -->
<g id="edge17" class="edge">
<title>5,&#45;3 (Wood duplicate)&#45;&gt;5,8 (Ulric Food, Sandcastings)</title>
<path fill="none" stroke="black" stroke-width="1.05" d="M2133.65,-1029.44C1837.4,-961.82 604.57,-680.44 277.25,-605.73"/>
<polygon fill="black" stroke="black" stroke-width="1.05" points="277.9,-602.29 267.38,-603.48 276.35,-609.11 277.9,-602.29"/>
<text text-anchor="middle" x="1160.45" y="-821.39" font-family="Times,serif" font-size="14.00">wood*50000</text>
</g>
<!-- 5,&#45;3 (Wood duplicate)&#45;&gt;0,0 (LE BUS) -->
<g id="edge4" class="edge">
<title>5,&#45;3 (Wood duplicate)&#45;&gt;0,0 (LE BUS)</title>
<path fill="none" stroke="black" stroke-width="1.91" d="M2175.62,-1026.31C2021.56,-903.44 1117.31,-182.33 941.03,-41.75"/>
<polygon fill="black" stroke="black" stroke-width="1.91" points="943.19,-39 933.19,-35.5 938.83,-44.47 943.19,-39"/>
<text text-anchor="middle" x="1513.33" y="-537.83" font-family="Times,serif" font-size="14.00">wood*91280</text>
</g>
<!-- 5,&#45;3 (Wood duplicate)&#45;&gt;&#45;4,8 (Moar Ulric Food) -->
<g id="edge3" class="edge">
<title>5,&#45;3 (Wood duplicate)&#45;&gt;&#45;4,8 (Moar Ulric Food)</title>
<path fill="none" stroke="black" stroke-width="0.84" d="M2189.31,-1026.17C2138.29,-920.22 1876.66,-376.94 1814.8,-248.48"/>
<polygon fill="black" stroke="black" stroke-width="0.84" points="1817.87,-246.79 1810.38,-239.3 1811.56,-249.83 1817.87,-246.79"/>
<text text-anchor="middle" x="1957.06" y="-641.13" font-family="Times,serif" font-size="14.00">wood*40000</text>
</g>
<!-- 5,&#45;3 (Wood duplicate)&#45;&gt;3,6 (Phosphoric Acid and Phosphine gas) -->
<g id="edge12" class="edge">
<title>5,&#45;3 (Wood duplicate)&#45;&gt;3,6 (Phosphoric Acid and Phosphine gas)</title>
<path fill="none" stroke="black" stroke-width="2.2" d="M2183.41,-1025.87C2085.01,-902.49 1517.42,-190.75 1400.65,-44.33"/>
<polygon fill="black" stroke="black" stroke-width="2.2" points="1403.19,-41.9 1394.22,-36.26 1397.72,-46.26 1403.19,-41.9"/>
<text text-anchor="middle" x="1742.53" y="-538.9" font-family="Times,serif" font-size="14.00">wood*105280</text>
</g>
<!-- 5,&#45;3 (Wood duplicate)&#45;&gt;&#45;3,7 (Sea sprouts) -->
<g id="edge6" class="edge">
<title>5,&#45;3 (Wood duplicate)&#45;&gt;&#45;3,7 (Sea sprouts)</title>
<path fill="none" stroke="black" stroke-width="1.26" d="M2088.11,-1044.12C1722.71,-1044.12 551.12,-1044.12 195.96,-1044.12"/>
<polygon fill="black" stroke="black" stroke-width="1.26" points="195.95,-1040.62 185.95,-1044.12 195.95,-1047.62 195.95,-1040.62"/>
<text text-anchor="middle" x="1097.04" y="-1047.92" font-family="Times,serif" font-size="14.00">wood*60000</text>
</g>
<!-- 5,&#45;3 (Wood duplicate)&#45;&gt;&#45;6,&#45;2 (item=fertilizer Fertiliser) -->
<g id="edge18" class="edge">
<title>5,&#45;3 (Wood duplicate)&#45;&gt;&#45;6,&#45;2 (item=fertilizer Fertiliser)</title>
<path fill="none" stroke="black" stroke-width="0.12" d="M2133.65,-1058.8C1837.48,-1126.4 605.26,-1407.64 277.53,-1482.44"/>
<polygon fill="black" stroke="black" stroke-width="0.12" points="276.61,-1479.07 267.64,-1484.7 278.16,-1485.89 276.61,-1479.07"/>
<text text-anchor="middle" x="1165.09" y="-1274.42" font-family="Times,serif" font-size="14.00">wood*5920</text>
</g>
<!-- 5,&#45;3 (Wood duplicate)&#45;&gt;&#45;3,4 (Lard from Cottonguts) -->
<g id="edge21" class="edge">
<title>5,&#45;3 (Wood duplicate)&#45;&gt;&#45;3,4 (Lard from Cottonguts)</title>
<path fill="none" stroke="black" stroke-width="0.42" d="M2193.81,-1062.3C2177.74,-1132.69 2119.57,-1387.55 2100.12,-1472.79"/>
<polygon fill="black" stroke="black" stroke-width="0.42" points="2096.7,-1472.02 2097.89,-1482.55 2103.53,-1473.58 2096.7,-1472.02"/>
<text text-anchor="middle" x="2101.96" y="-1271.35" font-family="Times,serif" font-size="14.00">wood*20000</text>
</g>
<!-- 6,&#45;2 (Yaedlols) -->
<g id="node11" class="node">
<title>6,&#45;2 (Yaedlols)</title>
<ellipse fill="none" stroke="black" cx="1801.68" cy="-1867" rx="76.09" ry="18"/>
<text text-anchor="middle" x="1801.68" y="-1863.3" font-family="Times,serif" font-size="14.00">6,&#45;2 (Yaedlols)</text>
</g>
<!-- 5,&#45;3 (Wood duplicate)&#45;&gt;6,&#45;2 (Yaedlols) -->
<g id="edge27" class="edge">
<title>5,&#45;3 (Wood duplicate)&#45;&gt;6,&#45;2 (Yaedlols)</title>
<path fill="none" stroke="black" stroke-width="0.53" d="M2189.31,-1062.07C2138.29,-1168.02 1876.66,-1711.3 1814.8,-1839.76"/>
<polygon fill="black" stroke="black" stroke-width="0.53" points="1811.56,-1838.41 1810.38,-1848.94 1817.87,-1841.44 1811.56,-1838.41"/>
<text text-anchor="middle" x="1957.06" y="-1454.71" font-family="Times,serif" font-size="14.00">wood*25280</text>
</g>
<!-- 5,&#45;3 (Wood duplicate)&#45;&gt;4,7 (Cottonguts) -->
<g id="edge13" class="edge">
<title>5,&#45;3 (Wood duplicate)&#45;&gt;4,7 (Cottonguts)</title>
<path fill="none" stroke="black" stroke-width="0.63" d="M2193.81,-1025.94C2177.74,-955.55 2119.57,-700.69 2100.12,-615.44"/>
<polygon fill="black" stroke="black" stroke-width="0.63" points="2103.53,-614.66 2097.89,-605.69 2096.7,-616.22 2103.53,-614.66"/>
<text text-anchor="middle" x="2101.96" y="-824.49" font-family="Times,serif" font-size="14.00">wood*30000</text>
</g>
<!-- 5,&#45;3 (Wood duplicate)&#45;&gt;&#45;6,4 (Urea) -->
<g id="edge25" class="edge">
<title>5,&#45;3 (Wood duplicate)&#45;&gt;&#45;6,4 (Urea)</title>
<path fill="none" stroke="black" stroke-width="0.67" d="M2162.27,-1061.31C1941.75,-1167.5 766.4,-1733.52 530.48,-1847.14"/>
<polygon fill="black" stroke="black" stroke-width="0.67" points="528.71,-1844.1 521.21,-1851.6 531.74,-1850.41 528.71,-1844.1"/>
<text text-anchor="middle" x="1301.37" y="-1458.02" font-family="Times,serif" font-size="14.00">wood*31840</text>
</g>
<!-- &#45;9,&#45;10 (Bedding and cages) -->
<g id="node15" class="node">
<title>&#45;9,&#45;10 (Bedding and cages)</title>
<ellipse fill="none" stroke="black" cx="2404.5" cy="-1044.12" rx="134.58" ry="18"/>
<text text-anchor="middle" x="2404.5" y="-1040.42" font-family="Times,serif" font-size="14.00">&#45;9,&#45;10 (Bedding and cages)</text>
</g>
<!-- 5,&#45;3 (Wood duplicate)&#45;&gt;&#45;9,&#45;10 (Bedding and cages) -->
<g id="edge20" class="edge">
<title>5,&#45;3 (Wood duplicate)&#45;&gt;&#45;9,&#45;10 (Bedding and cages)</title>
<path fill="none" stroke="black" stroke-width="1.05" d="M2307.88,-1044.12C2307.93,-1044.12 2307.97,-1044.12 2308.02,-1044.12"/>
<polygon fill="black" stroke="black" stroke-width="1.05" points="2298.17,-1047.63 2308.17,-1044.12 2298.17,-1040.63 2298.17,-1047.63"/>
<text text-anchor="middle" x="2352.95" y="-1047.92" font-family="Times,serif" font-size="14.00">wood*50080</text>
</g>
<!-- 9,&#45;3 (Woodier) -->
<g id="node6" class="node">
<title>9,&#45;3 (Woodier)</title>
<ellipse fill="none" stroke="black" cx="1379.65" cy="-2070.24" rx="76.89" ry="18"/>
<text text-anchor="middle" x="1379.65" y="-2066.54" font-family="Times,serif" font-size="14.00">9,&#45;3 (Woodier)</text>
</g>
<!-- 9,&#45;3 (Woodier)&#45;&gt;5,8 (Ulric Food, Sandcastings) -->
<g id="edge29" class="edge">
<title>9,&#45;3 (Woodier)&#45;&gt;5,8 (Ulric Food, Sandcastings)</title>
<path fill="none" stroke="black" stroke-width="0.21" d="M1365.34,-2052.29C1242.39,-1898.11 365.26,-798.22 218.1,-613.69"/>
<polygon fill="black" stroke="black" stroke-width="0.21" points="220.81,-611.47 211.83,-605.84 215.33,-615.84 220.81,-611.47"/>
<text text-anchor="middle" x="746.72" y="-1336.79" font-family="Times,serif" font-size="14.00">wood*10000</text>
</g>
<!-- 9,&#45;3 (Woodier)&#45;&gt;0,0 (LE BUS) -->
<g id="edge7" class="edge">
<title>9,&#45;3 (Woodier)&#45;&gt;0,0 (LE BUS)</title>
<path fill="none" stroke="black" stroke-width="2.61" d="M1375.53,-2052.18C1332.77,-1864.84 970.55,-277.83 917.67,-46.17"/>
<polygon fill="black" stroke="black" stroke-width="2.61" points="921.03,-45.14 915.39,-36.17 914.21,-46.7 921.03,-45.14"/>
<text text-anchor="middle" x="1196.1" y="-1052.98" font-family="Times,serif" font-size="14.00">wood*124480</text>
</g>
<!-- 9,&#45;3 (Woodier)&#45;&gt;&#45;4,8 (Moar Ulric Food) -->
<g id="edge10" class="edge">
<title>9,&#45;3 (Woodier)&#45;&gt;&#45;4,8 (Moar Ulric Food)</title>
<path fill="none" stroke="black" stroke-width="1.26" d="M1383.76,-2052.24C1423.9,-1876.4 1745.57,-467.04 1795.25,-249.41"/>
<polygon fill="black" stroke="black" stroke-width="1.26" points="1798.71,-249.95 1797.53,-239.42 1791.89,-248.39 1798.71,-249.95"/>
<text text-anchor="middle" x="1544.5" y="-1154.63" font-family="Times,serif" font-size="14.00">wood*60000</text>
</g>
<!-- 9,&#45;3 (Woodier)&#45;&gt;3,6 (Phosphoric Acid and Phosphine gas) -->
<g id="edge5" class="edge">
<title>9,&#45;3 (Woodier)&#45;&gt;3,6 (Phosphoric Acid and Phosphine gas)</title>
<path fill="none" stroke="black" stroke-width="0.94" d="M1379.65,-2052.18C1379.65,-1864.93 1379.65,-279.4 1379.65,-46.51"/>
<polygon fill="black" stroke="black" stroke-width="0.94" points="1383.15,-46.17 1379.65,-36.17 1376.15,-46.17 1383.15,-46.17"/>
<text text-anchor="middle" x="1334.65" y="-1053.15" font-family="Times,serif" font-size="14.00">wood*45120</text>
</g>
<!-- 9,&#45;3 (Woodier)&#45;&gt;&#45;3,7 (Sea sprouts) -->
<g id="edge26" class="edge">
<title>9,&#45;3 (Woodier)&#45;&gt;&#45;3,7 (Sea sprouts)</title>
<path fill="none" stroke="black" stroke-width="0.63" d="M1357.86,-2052.86C1205.4,-1931.27 299.42,-1208.78 122.79,-1067.92"/>
<polygon fill="black" stroke="black" stroke-width="0.63" points="124.93,-1065.15 114.93,-1061.66 120.57,-1070.63 124.93,-1065.15"/>
<text text-anchor="middle" x="695.32" y="-1564.19" font-family="Times,serif" font-size="14.00">wood*30000</text>
</g>
<!-- 9,&#45;3 (Woodier)&#45;&gt;&#45;6,&#45;2 (item=fertilizer Fertiliser) -->
<g id="edge22" class="edge">
<title>9,&#45;3 (Woodier)&#45;&gt;&#45;6,&#45;2 (item=fertilizer Fertiliser)</title>
<path fill="none" stroke="black" stroke-width="0.19" d="M1345.86,-2053.96C1178.16,-1973.21 435.88,-1615.74 243.06,-1522.89"/>
<polygon fill="black" stroke="black" stroke-width="0.19" points="244.3,-1519.6 233.77,-1518.41 241.27,-1525.9 244.3,-1519.6"/>
<text text-anchor="middle" x="753.96" y="-1792.22" font-family="Times,serif" font-size="14.00">wood*9200</text>
</g>
<!-- 9,&#45;3 (Woodier)&#45;&gt;6,&#45;2 (Yaedlols) -->
<g id="edge11" class="edge">
<title>9,&#45;3 (Woodier)&#45;&gt;6,&#45;2 (Yaedlols)</title>
<path fill="none" stroke="black" stroke-width="2.13" d="M1413.48,-2053.95C1489.74,-2017.23 1674.96,-1928.03 1758.98,-1887.57"/>
<polygon fill="black" stroke="black" stroke-width="2.13" points="1760.5,-1890.72 1767.99,-1883.23 1757.46,-1884.41 1760.5,-1890.72"/>
<text text-anchor="middle" x="1536.73" y="-1974.56" font-family="Times,serif" font-size="14.00">wood*101920</text>
</g>
<!-- 9,&#45;3 (Woodier)&#45;&gt;&#45;6,4 (Urea) -->
<g id="edge28" class="edge">
<title>9,&#45;3 (Woodier)&#45;&gt;&#45;6,4 (Urea)</title>
<path fill="none" stroke="black" stroke-width="0.28" d="M1324.63,-2057.68C1166.13,-2021.5 709.62,-1917.31 547.33,-1880.27"/>
<polygon fill="black" stroke="black" stroke-width="0.28" points="548.06,-1876.84 537.53,-1878.03 546.5,-1883.67 548.06,-1876.84"/>
<text text-anchor="middle" x="890.98" y="-1972.77" font-family="Times,serif" font-size="14.00">wood*13280</text>
</g>
<!-- 9,&#45;3 (Woodier)&#45;&gt;9,4 (Ulric fooder) -->
<g id="edge16" class="edge">
<title>9,&#45;3 (Woodier)&#45;&gt;9,4 (Ulric fooder)</title>
<path fill="none" stroke="black" stroke-width="1.26" d="M1302.83,-2070.24C1223.69,-2070.24 1099.92,-2070.24 1012.76,-2070.24"/>
<polygon fill="black" stroke="black" stroke-width="1.26" points="1012.58,-2066.74 1002.58,-2070.24 1012.58,-2073.74 1012.58,-2066.74"/>
<text text-anchor="middle" x="1112.79" y="-2074.04" font-family="Times,serif" font-size="14.00">wood*60000</text>
</g>
</g>
</svg>
