<?xml version="1.0" encoding="UTF-8" standalone="no"?>
<!DOCTYPE svg PUBLIC "-//W3C//DTD SVG 1.1//EN"
 "http://www.w3.org/Graphics/SVG/1.1/DTD/svg11.dtd">
<!-- Generated by graphviz version 2.43.0 (0)
 -->
<!-- Title: %3 Pages: 1 -->
<svg width="1113pt" height="44pt"
 viewBox="0.00 0.00 1113.26 44.00" xmlns="http://www.w3.org/2000/svg" xmlns:xlink="http://www.w3.org/1999/xlink">
<g id="graph0" class="graph" transform="scale(1 1) rotate(0) translate(4 40)">
<title>%3</title>
<polygon fill="white" stroke="transparent" points="-4,4 -4,-40 1109.26,-40 1109.26,4 -4,4"/>
<!-- 0,7 (Coal Gas) -->
<g id="node1" class="node">
<title>0,7 (Coal Gas)</title>
<ellipse fill="none" stroke="black" cx="664.1" cy="-18" rx="76.09" ry="18"/>
<text text-anchor="middle" x="664.1" y="-14.3" font-family="Times,serif" font-size="14.00">0,7 (Coal Gas)</text>
</g>
<!-- 0,3 () -->
<g id="node2" class="node">
<title>0,3 ()</title>
<ellipse fill="none" stroke="black" cx="1070.17" cy="-18" rx="35.19" ry="18"/>
<text text-anchor="middle" x="1070.17" y="-14.3" font-family="Times,serif" font-size="14.00">0,3 ()</text>
</g>
<!-- 0,7 (Coal Gas)&#45;&gt;0,3 () -->
<g id="edge1" class="edge">
<title>0,7 (Coal Gas)&#45;&gt;0,3 ()</title>
<path fill="none" stroke="black" stroke-width="0.49" d="M740.48,-18C824.28,-18 956.02,-18 1024.85,-18"/>
<polygon fill="black" stroke="black" stroke-width="0.49" points="1024.94,-21.5 1034.94,-18 1024.94,-14.5 1024.94,-21.5"/>
<text text-anchor="middle" x="957.16" y="-21.8" font-family="Times,serif" font-size="14.00">coal&#45;gas&#45;barrel*6512</text>
</g>
<!-- &#45;4,&#45;4 (Reserved For Aluminium Ore Drop, Aluminium) -->
<g id="node3" class="node">
<title>&#45;4,&#45;4 (Reserved For Aluminium Ore Drop, Aluminium)</title>
<ellipse fill="none" stroke="black" cx="258.03" cy="-18" rx="258.05" ry="18"/>
<text text-anchor="middle" x="258.03" y="-14.3" font-family="Times,serif" font-size="14.00">&#45;4,&#45;4 (Reserved For Aluminium Ore Drop, Aluminium)</text>
</g>
<!-- 0,7 (Coal Gas)&#45;&gt;&#45;4,&#45;4 (Reserved For Aluminium Ore Drop, Aluminium) -->
<g id="edge2" class="edge">
<title>0,7 (Coal Gas)&#45;&gt;&#45;4,&#45;4 (Reserved For Aluminium Ore Drop, Aluminium)</title>
<path fill="none" stroke="black" stroke-width="1.51" d="M587.72,-18C569.19,-18 548.32,-18 526.3,-18"/>
<polygon fill="black" stroke="black" stroke-width="1.51" points="526.11,-14.5 516.11,-18 526.11,-21.5 526.11,-14.5"/>
<text text-anchor="middle" x="517.51" y="-6.8" font-family="Times,serif" font-size="14.00">coal&#45;gas&#45;barrel*20000</text>
</g>
</g>
</svg>
