<?xml version="1.0" encoding="UTF-8" standalone="no"?>
<!DOCTYPE svg PUBLIC "-//W3C//DTD SVG 1.1//EN"
 "http://www.w3.org/Graphics/SVG/1.1/DTD/svg11.dtd">
<!-- Generated by graphviz version 2.43.0 (0)
 -->
<!-- Title: %3 Pages: 1 -->
<svg width="1386pt" height="1063pt"
 viewBox="0.00 0.00 1385.87 1062.93" xmlns="http://www.w3.org/2000/svg" xmlns:xlink="http://www.w3.org/1999/xlink">
<g id="graph0" class="graph" transform="scale(1 1) rotate(0) translate(4 1058.93)">
<title>%3</title>
<polygon fill="white" stroke="transparent" points="-4,4 -4,-1058.93 1381.87,-1058.93 1381.87,4 -4,4"/>
<!-- 0,5 (Titanium Processing (Grade 4)) -->
<g id="node1" class="node">
<title>0,5 (Titanium Processing (Grade 4))</title>
<ellipse fill="none" stroke="black" cx="706.29" cy="-582.44" rx="176.57" ry="18"/>
<text text-anchor="middle" x="706.29" y="-578.74" font-family="Times,serif" font-size="14.00">0,5 (Titanium Processing (Grade 4))</text>
</g>
<!-- &#45;3,8 (Urea) -->
<g id="node2" class="node">
<title>&#45;3,8 (Urea)</title>
<ellipse fill="none" stroke="black" cx="1280.69" cy="-582.44" rx="61.19" ry="18"/>
<text text-anchor="middle" x="1280.69" y="-578.74" font-family="Times,serif" font-size="14.00">&#45;3,8 (Urea)</text>
</g>
<!-- 0,5 (Titanium Processing (Grade 4))&#45;&gt;&#45;3,8 (Urea) -->
<g id="edge1" class="edge">
<title>0,5 (Titanium Processing (Grade 4))&#45;&gt;&#45;3,8 (Urea)</title>
<path fill="none" stroke="black" stroke-width="1.27" d="M883.32,-582.44C993.17,-582.44 1128.36,-582.44 1209.38,-582.44"/>
<polygon fill="black" stroke="black" stroke-width="1.27" points="1209.47,-585.94 1219.47,-582.44 1209.47,-578.94 1209.47,-585.94"/>
<text text-anchor="middle" x="969.35" y="-586.24" font-family="Times,serif" font-size="14.00">titanium&#45;plate*40976</text>
</g>
<!-- &#45;7,&#45;4 (Isomer&#39;s Slaughterhouse and Daycare Centre, Bone Meal) -->
<g id="node3" class="node">
<title>&#45;7,&#45;4 (Isomer&#39;s Slaughterhouse and Daycare Centre, Bone Meal)</title>
<ellipse fill="none" stroke="black" cx="1070.44" cy="-1026.66" rx="307.35" ry="18"/>
<text text-anchor="middle" x="1070.44" y="-1022.96" font-family="Times,serif" font-size="14.00">&#45;7,&#45;4 (Isomer&#39;s Slaughterhouse and Daycare Centre, Bone Meal)</text>
</g>
<!-- 0,5 (Titanium Processing (Grade 4))&#45;&gt;&#45;7,&#45;4 (Isomer&#39;s Slaughterhouse and Daycare Centre, Bone Meal) -->
<g id="edge2" class="edge">
<title>0,5 (Titanium Processing (Grade 4))&#45;&gt;&#45;7,&#45;4 (Isomer&#39;s Slaughterhouse and Daycare Centre, Bone Meal)</title>
<path fill="none" stroke="black" stroke-width="1.07" d="M721.02,-600.4C777.75,-669.61 982.3,-919.14 1049.15,-1000.68"/>
<polygon fill="black" stroke="black" stroke-width="1.07" points="1046.49,-1002.96 1055.53,-1008.47 1051.9,-998.52 1046.49,-1002.96"/>
<text text-anchor="middle" x="808.08" y="-804.34" font-family="Times,serif" font-size="14.00">titanium&#45;plate*34448</text>
</g>
<!-- &#45;1,6 (Flimble&#39;s Slaughterhouse and Daycare Centre, Auog Products) -->
<g id="node4" class="node">
<title>&#45;1,6 (Flimble&#39;s Slaughterhouse and Daycare Centre, Auog Products)</title>
<ellipse fill="none" stroke="black" cx="355.03" cy="-1036.93" rx="325.74" ry="18"/>
<text text-anchor="middle" x="355.03" y="-1033.23" font-family="Times,serif" font-size="14.00">&#45;1,6 (Flimble&#39;s Slaughterhouse and Daycare Centre, Auog Products)</text>
</g>
<!-- 0,5 (Titanium Processing (Grade 4))&#45;&gt;&#45;1,6 (Flimble&#39;s Slaughterhouse and Daycare Centre, Auog Products) -->
<g id="edge3" class="edge">
<title>0,5 (Titanium Processing (Grade 4))&#45;&gt;&#45;1,6 (Flimble&#39;s Slaughterhouse and Daycare Centre, Auog Products)</title>
<path fill="none" stroke="black" stroke-width="1.56" d="M692.3,-600.54C637.78,-671.09 439.33,-927.86 375.18,-1010.86"/>
<polygon fill="black" stroke="black" stroke-width="1.56" points="372.41,-1008.73 369.06,-1018.78 377.94,-1013.01 372.41,-1008.73"/>
<text text-anchor="middle" x="456.74" y="-809.5" font-family="Times,serif" font-size="14.00">titanium&#45;plate*50384</text>
</g>
<!-- 7,&#45;2 (item=guts Auog guts) -->
<g id="node5" class="node">
<title>7,&#45;2 (item=guts Auog guts)</title>
<ellipse fill="none" stroke="black" cx="137.14" cy="-504.92" rx="137.28" ry="18"/>
<text text-anchor="middle" x="137.14" y="-501.22" font-family="Times,serif" font-size="14.00">7,&#45;2 (item=guts Auog guts)</text>
</g>
<!-- 0,5 (Titanium Processing (Grade 4))&#45;&gt;7,&#45;2 (item=guts Auog guts) -->
<g id="edge4" class="edge">
<title>0,5 (Titanium Processing (Grade 4))&#45;&gt;7,&#45;2 (item=guts Auog guts)</title>
<path fill="none" stroke="black" stroke-width="1.45" d="M600.24,-568C498.15,-554.09 344.64,-533.18 242.71,-519.3"/>
<polygon fill="black" stroke="black" stroke-width="1.45" points="243.09,-515.82 232.71,-517.94 242.14,-522.76 243.09,-515.82"/>
<text text-anchor="middle" x="344.48" y="-547.45" font-family="Times,serif" font-size="14.00">titanium&#45;plate*46944</text>
</g>
<!-- 0,9 (Auog Brains) -->
<g id="node6" class="node">
<title>0,9 (Auog Brains)</title>
<ellipse fill="none" stroke="black" cx="296.41" cy="-180.02" rx="91.78" ry="18"/>
<text text-anchor="middle" x="296.41" y="-176.32" font-family="Times,serif" font-size="14.00">0,9 (Auog Brains)</text>
</g>
<!-- 0,5 (Titanium Processing (Grade 4))&#45;&gt;0,9 (Auog Brains) -->
<g id="edge5" class="edge">
<title>0,5 (Titanium Processing (Grade 4))&#45;&gt;0,9 (Auog Brains)</title>
<path fill="none" stroke="black" stroke-width="0.5" d="M687.88,-564.37C622.07,-499.75 398.31,-280.07 322.09,-205.23"/>
<polygon fill="black" stroke="black" stroke-width="0.5" points="324.35,-202.55 314.77,-198.04 319.45,-207.55 324.35,-202.55"/>
<text text-anchor="middle" x="427.98" y="-388.6" font-family="Times,serif" font-size="14.00">titanium&#45;plate*16176</text>
</g>
<!-- &#45;4,1 (item=ulric Ulrics) -->
<g id="node7" class="node">
<title>&#45;4,1 (item=ulric Ulrics)</title>
<ellipse fill="none" stroke="black" cx="599.75" cy="-18" rx="118.08" ry="18"/>
<text text-anchor="middle" x="599.75" y="-14.3" font-family="Times,serif" font-size="14.00">&#45;4,1 (item=ulric Ulrics)</text>
</g>
<!-- 0,5 (Titanium Processing (Grade 4))&#45;&gt;&#45;4,1 (item=ulric Ulrics) -->
<g id="edge6" class="edge">
<title>0,5 (Titanium Processing (Grade 4))&#45;&gt;&#45;4,1 (item=ulric Ulrics)</title>
<path fill="none" stroke="black" stroke-width="0.94" d="M702.86,-564.3C687.38,-482.28 623.87,-145.79 605.04,-46.01"/>
<polygon fill="black" stroke="black" stroke-width="0.94" points="608.46,-45.25 603.17,-36.07 601.58,-46.55 608.46,-45.25"/>
<text text-anchor="middle" x="576.95" y="-308.96" font-family="Times,serif" font-size="14.00">titanium&#45;plate*30240</text>
</g>
<!-- 2,13 (Polybutadiene) -->
<g id="node8" class="node">
<title>2,13 (Polybutadiene)</title>
<ellipse fill="none" stroke="black" cx="954.85" cy="-64.6" rx="106.68" ry="18"/>
<text text-anchor="middle" x="954.85" y="-60.9" font-family="Times,serif" font-size="14.00">2,13 (Polybutadiene)</text>
</g>
<!-- 0,5 (Titanium Processing (Grade 4))&#45;&gt;2,13 (Polybutadiene) -->
<g id="edge7" class="edge">
<title>0,5 (Titanium Processing (Grade 4))&#45;&gt;2,13 (Polybutadiene)</title>
<path fill="none" stroke="black" stroke-width="0.78" d="M714.99,-564.31C752.09,-487.02 897.19,-184.72 941.76,-91.87"/>
<polygon fill="black" stroke="black" stroke-width="0.78" points="945.04,-93.11 946.22,-82.58 938.73,-90.08 945.04,-93.11"/>
<text text-anchor="middle" x="751.37" y="-331.89" font-family="Times,serif" font-size="14.00">titanium&#45;plate*25008</text>
</g>
<!-- &#45;1,&#45;2 (Aramid fiber) -->
<g id="node9" class="node">
<title>&#45;1,&#45;2 (Aramid fiber)</title>
<ellipse fill="none" stroke="black" cx="1204.19" cy="-296.01" rx="99.38" ry="18"/>
<text text-anchor="middle" x="1204.19" y="-292.31" font-family="Times,serif" font-size="14.00">&#45;1,&#45;2 (Aramid fiber)</text>
</g>
<!-- 0,5 (Titanium Processing (Grade 4))&#45;&gt;&#45;1,&#45;2 (Aramid fiber) -->
<g id="edge8" class="edge">
<title>0,5 (Titanium Processing (Grade 4))&#45;&gt;&#45;1,&#45;2 (Aramid fiber)</title>
<path fill="none" stroke="black" stroke-width="0.43" d="M737.43,-564.52C824.47,-514.45 1070.09,-373.15 1165.56,-318.23"/>
<polygon fill="black" stroke="black" stroke-width="0.43" points="1167.39,-321.22 1174.32,-313.19 1163.9,-315.15 1167.39,-321.22"/>
<text text-anchor="middle" x="874.5" y="-445.18" font-family="Times,serif" font-size="14.00">titanium&#45;plate*13936</text>
</g>
</g>
</svg>
