<?xml version="1.0" encoding="UTF-8" standalone="no"?>
<!DOCTYPE svg PUBLIC "-//W3C//DTD SVG 1.1//EN"
 "http://www.w3.org/Graphics/SVG/1.1/DTD/svg11.dtd">
<!-- Generated by graphviz version 2.43.0 (0)
 -->
<!-- Title: %3 Pages: 1 -->
<svg width="1178pt" height="842pt"
 viewBox="0.00 0.00 1178.31 841.98" xmlns="http://www.w3.org/2000/svg" xmlns:xlink="http://www.w3.org/1999/xlink">
<g id="graph0" class="graph" transform="scale(1 1) rotate(0) translate(4 837.98)">
<title>%3</title>
<polygon fill="white" stroke="transparent" points="-4,4 -4,-837.98 1174.31,-837.98 1174.31,4 -4,4"/>
<!-- 3,&#45;1 (Nitrogen, Oxygen) -->
<g id="node1" class="node">
<title>3,&#45;1 (Nitrogen, Oxygen)</title>
<ellipse fill="none" stroke="black" cx="604.35" cy="-418.74" rx="120.48" ry="18"/>
<text text-anchor="middle" x="604.35" y="-415.04" font-family="Times,serif" font-size="14.00">3,&#45;1 (Nitrogen, Oxygen)</text>
</g>
<!-- 2,10 (Nickel plate and Nichrome) -->
<g id="node2" class="node">
<title>2,10 (Nickel plate and Nichrome)</title>
<ellipse fill="none" stroke="black" cx="1005.22" cy="-418.74" rx="165.17" ry="18"/>
<text text-anchor="middle" x="1005.22" y="-415.04" font-family="Times,serif" font-size="14.00">2,10 (Nickel plate and Nichrome)</text>
</g>
<!-- 3,&#45;1 (Nitrogen, Oxygen)&#45;&gt;2,10 (Nickel plate and Nichrome) -->
<g id="edge1" class="edge">
<title>3,&#45;1 (Nitrogen, Oxygen)&#45;&gt;2,10 (Nickel plate and Nichrome)</title>
<path fill="none" stroke="black" stroke-width="0.72" d="M724.62,-418.74C757.58,-418.74 793.99,-418.74 829.37,-418.74"/>
<polygon fill="black" stroke="black" stroke-width="0.72" points="829.82,-422.24 839.82,-418.74 829.82,-415.24 829.82,-422.24"/>
<text text-anchor="middle" x="777" y="-407.54" font-family="Times,serif" font-size="14.00">oxygen&#45;barrel*24085</text>
</g>
<!-- &#45;2,9 (molten steel) -->
<g id="node3" class="node">
<title>&#45;2,9 (molten steel)</title>
<ellipse fill="none" stroke="black" cx="658.13" cy="-815.98" rx="95.58" ry="18"/>
<text text-anchor="middle" x="658.13" y="-812.28" font-family="Times,serif" font-size="14.00">&#45;2,9 (molten steel)</text>
</g>
<!-- 3,&#45;1 (Nitrogen, Oxygen)&#45;&gt;&#45;2,9 (molten steel) -->
<g id="edge2" class="edge">
<title>3,&#45;1 (Nitrogen, Oxygen)&#45;&gt;&#45;2,9 (molten steel)</title>
<path fill="none" stroke="black" stroke-width="3.02" d="M606.8,-436.84C615.34,-499.91 643.83,-710.37 654.26,-787.41"/>
<polygon fill="black" stroke="black" stroke-width="3.02" points="650.86,-788.34 655.67,-797.78 657.79,-787.4 650.86,-788.34"/>
<text text-anchor="middle" x="550.53" y="-615.92" font-family="Times,serif" font-size="14.00">oxygen&#45;barrel*101470</text>
</g>
<!-- &#45;2,8 (syngas from coal dust and also wood) -->
<g id="node4" class="node">
<title>&#45;2,8 (syngas from coal dust and also wood)</title>
<ellipse fill="none" stroke="black" cx="208.63" cy="-482.8" rx="208.76" ry="18"/>
<text text-anchor="middle" x="208.63" y="-479.1" font-family="Times,serif" font-size="14.00">&#45;2,8 (syngas from coal dust and also wood)</text>
</g>
<!-- 3,&#45;1 (Nitrogen, Oxygen)&#45;&gt;&#45;2,8 (syngas from coal dust and also wood) -->
<g id="edge3" class="edge">
<title>3,&#45;1 (Nitrogen, Oxygen)&#45;&gt;&#45;2,8 (syngas from coal dust and also wood)</title>
<path fill="none" stroke="black" stroke-width="0.01" d="M522.36,-432.01C462.94,-441.63 382,-454.74 317.22,-465.22"/>
<polygon fill="black" stroke="black" stroke-width="0.01" points="316.28,-461.83 306.96,-466.88 317.39,-468.74 316.28,-461.83"/>
<text text-anchor="middle" x="353.29" y="-452.42" font-family="Times,serif" font-size="14.00">oxygen&#45;barrel*224</text>
</g>
<!-- 2,&#45;2 (Tin Plate, Organic Solvent) -->
<g id="node5" class="node">
<title>2,&#45;2 (Tin Plate, Organic Solvent)</title>
<ellipse fill="none" stroke="black" cx="593.95" cy="-18" rx="159.77" ry="18"/>
<text text-anchor="middle" x="593.95" y="-14.3" font-family="Times,serif" font-size="14.00">2,&#45;2 (Tin Plate, Organic Solvent)</text>
</g>
<!-- 3,&#45;1 (Nitrogen, Oxygen)&#45;&gt;2,&#45;2 (Tin Plate, Organic Solvent) -->
<g id="edge4" class="edge">
<title>3,&#45;1 (Nitrogen, Oxygen)&#45;&gt;2,&#45;2 (Tin Plate, Organic Solvent)</title>
<path fill="none" stroke="black" stroke-width="0.25" d="M603.88,-400.48C602.22,-336.85 596.72,-124.54 594.7,-46.82"/>
<polygon fill="black" stroke="black" stroke-width="0.25" points="598.19,-46.27 594.43,-36.37 591.19,-46.45 598.19,-46.27"/>
<text text-anchor="middle" x="528.29" y="-227.45" font-family="Times,serif" font-size="14.00">oxygen&#45;barrel*8532</text>
</g>
</g>
</svg>
