<?xml version="1.0" encoding="UTF-8" standalone="no"?>
<!DOCTYPE svg PUBLIC "-//W3C//DTD SVG 1.1//EN"
 "http://www.w3.org/Graphics/SVG/1.1/DTD/svg11.dtd">
<!-- Generated by graphviz version 2.43.0 (0)
 -->
<!-- Title: %3 Pages: 1 -->
<svg width="1399pt" height="808pt"
 viewBox="0.00 0.00 1399.08 807.63" xmlns="http://www.w3.org/2000/svg" xmlns:xlink="http://www.w3.org/1999/xlink">
<g id="graph0" class="graph" transform="scale(1 1) rotate(0) translate(4 803.63)">
<title>%3</title>
<polygon fill="white" stroke="transparent" points="-4,4 -4,-803.63 1395.08,-803.63 1395.08,4 -4,4"/>
<!-- &#45;6,4 (Urea) -->
<g id="node1" class="node">
<title>&#45;6,4 (Urea)</title>
<ellipse fill="none" stroke="black" cx="876.07" cy="-399.81" rx="61.19" ry="18"/>
<text text-anchor="middle" x="876.07" y="-396.11" font-family="Times,serif" font-size="14.00">&#45;6,4 (Urea)</text>
</g>
<!-- &#45;5,0 (item=small&#45;lampitem=petri&#45;dish Lamptri dishes) -->
<g id="node2" class="node">
<title>&#45;5,0 (item=small&#45;lampitem=petri&#45;dish Lamptri dishes)</title>
<ellipse fill="none" stroke="black" cx="494.25" cy="-18" rx="263.75" ry="18"/>
<text text-anchor="middle" x="494.25" y="-14.3" font-family="Times,serif" font-size="14.00">&#45;5,0 (item=small&#45;lampitem=petri&#45;dish Lamptri dishes)</text>
</g>
<!-- &#45;6,4 (Urea)&#45;&gt;&#45;5,0 (item=small&#45;lampitem=petri&#45;dish Lamptri dishes) -->
<g id="edge1" class="edge">
<title>&#45;6,4 (Urea)&#45;&gt;&#45;5,0 (item=small&#45;lampitem=petri&#45;dish Lamptri dishes)</title>
<path fill="none" stroke="black" stroke-width="3.26" d="M858.67,-382.42C797.58,-321.33 592.66,-116.41 520.04,-43.79"/>
<polygon fill="black" stroke="black" stroke-width="3.26" points="522.19,-40.98 512.64,-36.39 517.24,-45.93 522.19,-40.98"/>
<text text-anchor="middle" x="558.36" y="-216.9" font-family="Times,serif" font-size="14.00">combustion&#45;mixture1&#45;barrel*152160</text>
</g>
<!-- 0,0 (LE BUS) -->
<g id="node3" class="node">
<title>0,0 (LE BUS)</title>
<ellipse fill="none" stroke="black" cx="494.25" cy="-781.63" rx="71.49" ry="18"/>
<text text-anchor="middle" x="494.25" y="-777.93" font-family="Times,serif" font-size="14.00">0,0 (LE BUS)</text>
</g>
<!-- &#45;6,4 (Urea)&#45;&gt;0,0 (LE BUS) -->
<g id="edge2" class="edge">
<title>&#45;6,4 (Urea)&#45;&gt;0,0 (LE BUS)</title>
<path fill="none" stroke="black" stroke-width="2.08" d="M858.67,-417.21C797.3,-478.58 590.77,-685.11 519.04,-756.84"/>
<polygon fill="black" stroke="black" stroke-width="2.08" points="516.35,-754.58 511.75,-764.13 521.3,-759.53 516.35,-754.58"/>
<text text-anchor="middle" x="562.36" y="-590.83" font-family="Times,serif" font-size="14.00">combustion&#45;mixture1&#45;barrel*97200</text>
</g>
<!-- &#45;8,&#45;10 () -->
<g id="node4" class="node">
<title>&#45;8,&#45;10 ()</title>
<ellipse fill="none" stroke="black" cx="994.87" cy="-399.81" rx="46.59" ry="18"/>
<text text-anchor="middle" x="994.87" y="-396.11" font-family="Times,serif" font-size="14.00">&#45;8,&#45;10 ()</text>
</g>
<!-- &#45;6,4 (Urea)&#45;&gt;&#45;8,&#45;10 () -->
<g id="edge3" class="edge">
<title>&#45;6,4 (Urea)&#45;&gt;&#45;8,&#45;10 ()</title>
<path fill="none" stroke="black" stroke-width="0" d="M937.21,-399.81C937.43,-399.81 937.66,-399.81 937.89,-399.81"/>
<polygon fill="black" stroke="black" stroke-width="0" points="938.04,-403.31 948.04,-399.81 938.04,-396.31 938.04,-403.31"/>
<text text-anchor="middle" x="1055.05" y="-403.61" font-family="Times,serif" font-size="14.00">combustion&#45;mixture1&#45;barrel*160</text>
</g>
<!-- 4,10 (Fluid Recycling) -->
<g id="node5" class="node">
<title>4,10 (Fluid Recycling)</title>
<ellipse fill="none" stroke="black" cx="112.44" cy="-399.81" rx="112.38" ry="18"/>
<text text-anchor="middle" x="112.44" y="-396.11" font-family="Times,serif" font-size="14.00">4,10 (Fluid Recycling)</text>
</g>
<!-- 4,10 (Fluid Recycling)&#45;&gt;&#45;5,0 (item=small&#45;lampitem=petri&#45;dish Lamptri dishes) -->
<g id="edge4" class="edge">
<title>4,10 (Fluid Recycling)&#45;&gt;&#45;5,0 (item=small&#45;lampitem=petri&#45;dish Lamptri dishes)</title>
<path fill="none" stroke="black" stroke-width="0.45" d="M130.34,-381.91C192.08,-320.17 396.25,-116.01 468.58,-43.68"/>
<polygon fill="black" stroke="black" stroke-width="0.45" points="471.35,-45.86 475.95,-36.31 466.4,-40.91 471.35,-45.86"/>
<text text-anchor="middle" x="172.96" y="-216.59" font-family="Times,serif" font-size="14.00">combustion&#45;mixture1&#45;barrel*20830</text>
</g>
<!-- 4,10 (Fluid Recycling)&#45;&gt;0,0 (LE BUS) -->
<g id="edge6" class="edge">
<title>4,10 (Fluid Recycling)&#45;&gt;0,0 (LE BUS)</title>
<path fill="none" stroke="black" stroke-width="0.19" d="M130.34,-417.72C192.22,-479.6 397.19,-684.57 469.08,-756.45"/>
<polygon fill="black" stroke="black" stroke-width="0.19" points="466.84,-759.17 476.39,-763.76 471.79,-754.22 466.84,-759.17"/>
<text text-anchor="middle" x="177.71" y="-590.88" font-family="Times,serif" font-size="14.00">combustion&#45;mixture1&#45;barrel*8960</text>
</g>
<!-- &#45;5,&#45;7 (fluid=propene Propene) -->
<g id="node6" class="node">
<title>&#45;5,&#45;7 (fluid=propene Propene)</title>
<ellipse fill="none" stroke="black" cx="952.51" cy="-163.81" rx="149.47" ry="18"/>
<text text-anchor="middle" x="952.51" y="-160.11" font-family="Times,serif" font-size="14.00">&#45;5,&#45;7 (fluid=propene Propene)</text>
</g>
<!-- 4,11 (Cobalt Extract) -->
<g id="node7" class="node">
<title>4,11 (Cobalt Extract)</title>
<ellipse fill="none" stroke="black" cx="1282.54" cy="-163.81" rx="108.58" ry="18"/>
<text text-anchor="middle" x="1282.54" y="-160.11" font-family="Times,serif" font-size="14.00">4,11 (Cobalt Extract)</text>
</g>
<!-- &#45;5,&#45;7 (fluid=propene Propene)&#45;&gt;4,11 (Cobalt Extract) -->
<g id="edge5" class="edge">
<title>&#45;5,&#45;7 (fluid=propene Propene)&#45;&gt;4,11 (Cobalt Extract)</title>
<path fill="none" stroke="black" stroke-width="0.01" d="M1102.07,-163.81C1122.79,-163.81 1143.84,-163.81 1163.89,-163.81"/>
<polygon fill="black" stroke="black" stroke-width="0.01" points="1163.96,-167.31 1173.96,-163.81 1163.96,-160.31 1163.96,-167.31"/>
<text text-anchor="middle" x="1132.98" y="-152.61" font-family="Times,serif" font-size="14.00">combustion&#45;mixture1&#45;barrel*560</text>
</g>
</g>
</svg>
