<?xml version="1.0" encoding="UTF-8" standalone="no"?>
<!DOCTYPE svg PUBLIC "-//W3C//DTD SVG 1.1//EN"
 "http://www.w3.org/Graphics/SVG/1.1/DTD/svg11.dtd">
<!-- Generated by graphviz version 2.43.0 (0)
 -->
<!-- Title: %3 Pages: 1 -->
<svg width="652pt" height="44pt"
 viewBox="0.00 0.00 651.75 44.00" xmlns="http://www.w3.org/2000/svg" xmlns:xlink="http://www.w3.org/1999/xlink">
<g id="graph0" class="graph" transform="scale(1 1) rotate(0) translate(4 40)">
<title>%3</title>
<polygon fill="white" stroke="transparent" points="-4,4 -4,-40 647.75,-40 647.75,4 -4,4"/>
<!-- 0,0 (LE BUS) -->
<g id="node1" class="node">
<title>0,0 (LE BUS)</title>
<ellipse fill="none" stroke="black" cx="341.67" cy="-18" rx="71.49" ry="18"/>
<text text-anchor="middle" x="341.67" y="-14.3" font-family="Times,serif" font-size="14.00">0,0 (LE BUS)</text>
</g>
<!-- 6,&#45;3 (Mine Me) -->
<g id="node2" class="node">
<title>6,&#45;3 (Mine Me)</title>
<ellipse fill="none" stroke="black" cx="564.45" cy="-18" rx="79.09" ry="18"/>
<text text-anchor="middle" x="564.45" y="-14.3" font-family="Times,serif" font-size="14.00">6,&#45;3 (Mine Me)</text>
</g>
<!-- 0,0 (LE BUS)&#45;&gt;6,&#45;3 (Mine Me) -->
<g id="edge1" class="edge">
<title>0,0 (LE BUS)&#45;&gt;6,&#45;3 (Mine Me)</title>
<path fill="none" stroke="black" stroke-width="0.91" d="M413.39,-18C432.97,-18 454.44,-18 474.89,-18"/>
<polygon fill="black" stroke="black" stroke-width="0.91" points="475.15,-21.5 485.15,-18 475.15,-14.5 475.15,-21.5"/>
<text text-anchor="middle" x="334.14" y="-21.8" font-family="Times,serif" font-size="14.00">piercing&#45;rounds&#45;magazine*240</text>
</g>
<!-- 6,13 () -->
<g id="node3" class="node">
<title>6,13 ()</title>
<ellipse fill="none" stroke="black" cx="118.88" cy="-18" rx="40.89" ry="18"/>
<text text-anchor="middle" x="118.88" y="-14.3" font-family="Times,serif" font-size="14.00">6,13 ()</text>
</g>
<!-- 0,0 (LE BUS)&#45;&gt;6,13 () -->
<g id="edge2" class="edge">
<title>0,0 (LE BUS)&#45;&gt;6,13 ()</title>
<path fill="none" stroke="black" stroke-width="1.09" d="M269.95,-18C237.41,-18 199.67,-18 170.05,-18"/>
<polygon fill="black" stroke="black" stroke-width="1.09" points="169.93,-14.5 159.93,-18 169.93,-21.5 169.93,-14.5"/>
<text text-anchor="middle" x="110" y="-21.8" font-family="Times,serif" font-size="14.00">piercing&#45;rounds&#45;magazine*288</text>
</g>
</g>
</svg>
