<?xml version="1.0" encoding="UTF-8" standalone="no"?>
<!DOCTYPE svg PUBLIC "-//W3C//DTD SVG 1.1//EN"
 "http://www.w3.org/Graphics/SVG/1.1/DTD/svg11.dtd">
<!-- Generated by graphviz version 2.43.0 (0)
 -->
<!-- Title: %3 Pages: 1 -->
<svg width="2620pt" height="2435pt"
 viewBox="0.00 0.00 2620.44 2435.10" xmlns="http://www.w3.org/2000/svg" xmlns:xlink="http://www.w3.org/1999/xlink">
<g id="graph0" class="graph" transform="scale(1 1) rotate(0) translate(4 2431.1)">
<title>%3</title>
<polygon fill="white" stroke="transparent" points="-4,4 -4,-2431.1 2616.44,-2431.1 2616.44,4 -4,4"/>
<!-- 5,&#45;7 (Emergency Salt) -->
<g id="node1" class="node">
<title>5,&#45;7 (Emergency Salt)</title>
<ellipse fill="none" stroke="black" cx="306.93" cy="-581.48" rx="112.38" ry="18"/>
<text text-anchor="middle" x="306.93" y="-577.78" font-family="Times,serif" font-size="14.00">5,&#45;7 (Emergency Salt)</text>
</g>
<!-- 0,0 (LE BUS) -->
<g id="node2" class="node">
<title>0,0 (LE BUS)</title>
<ellipse fill="none" stroke="black" cx="2528.44" cy="-1213.55" rx="71.49" ry="18"/>
<text text-anchor="middle" x="2528.44" y="-1209.85" font-family="Times,serif" font-size="14.00">0,0 (LE BUS)</text>
</g>
<!-- 5,&#45;7 (Emergency Salt)&#45;&gt;0,0 (LE BUS) -->
<g id="edge1" class="edge">
<title>5,&#45;7 (Emergency Salt)&#45;&gt;0,0 (LE BUS)</title>
<path fill="none" stroke="black" stroke-width="2.74" d="M362.12,-597.18C668.62,-684.39 2158.82,-1108.38 2471.01,-1197.21"/>
<polygon fill="black" stroke="black" stroke-width="2.74" points="2470.18,-1200.61 2480.76,-1199.98 2472.1,-1193.88 2470.18,-1200.61"/>
<text text-anchor="middle" x="1372.57" y="-901" font-family="Times,serif" font-size="14.00">salt*122080</text>
</g>
<!-- 2,1 (Niobium plates) -->
<g id="node4" class="node">
<title>2,1 (Niobium plates)</title>
<ellipse fill="none" stroke="black" cx="1438.55" cy="-18" rx="105.88" ry="18"/>
<text text-anchor="middle" x="1438.55" y="-14.3" font-family="Times,serif" font-size="14.00">2,1 (Niobium plates)</text>
</g>
<!-- 5,&#45;7 (Emergency Salt)&#45;&gt;2,1 (Niobium plates) -->
<g id="edge25" class="edge">
<title>5,&#45;7 (Emergency Salt)&#45;&gt;2,1 (Niobium plates)</title>
<path fill="none" stroke="black" stroke-width="1.44" d="M341.42,-564.31C506.16,-482.27 1212.59,-130.51 1395.28,-39.54"/>
<polygon fill="black" stroke="black" stroke-width="1.44" points="1396.94,-42.63 1404.33,-35.04 1393.82,-36.36 1396.94,-42.63"/>
<text text-anchor="middle" x="828.85" y="-305.72" font-family="Times,serif" font-size="14.00">salt*64000</text>
</g>
<!-- 1,6 (Sodium Hydroxide, Limestone) -->
<g id="node5" class="node">
<title>1,6 (Sodium Hydroxide, Limestone)</title>
<ellipse fill="none" stroke="black" cx="604.2" cy="-255.39" rx="175.47" ry="18"/>
<text text-anchor="middle" x="604.2" y="-251.69" font-family="Times,serif" font-size="14.00">1,6 (Sodium Hydroxide, Limestone)</text>
</g>
<!-- 5,&#45;7 (Emergency Salt)&#45;&gt;1,6 (Sodium Hydroxide, Limestone) -->
<g id="edge3" class="edge">
<title>5,&#45;7 (Emergency Salt)&#45;&gt;1,6 (Sodium Hydroxide, Limestone)</title>
<path fill="none" stroke="black" stroke-width="2" d="M323.34,-563.48C373.18,-508.81 522.95,-344.52 580.92,-280.92"/>
<polygon fill="black" stroke="black" stroke-width="2" points="583.69,-283.08 587.84,-273.33 578.52,-278.37 583.69,-283.08"/>
<text text-anchor="middle" x="412.63" y="-426" font-family="Times,serif" font-size="14.00">salt*89200</text>
</g>
<!-- &#45;5,2 (Optical fiber) -->
<g id="node7" class="node">
<title>&#45;5,2 (Optical fiber)</title>
<ellipse fill="none" stroke="black" cx="1862.95" cy="-2288.35" rx="96.38" ry="18"/>
<text text-anchor="middle" x="1862.95" y="-2284.65" font-family="Times,serif" font-size="14.00">&#45;5,2 (Optical fiber)</text>
</g>
<!-- 5,&#45;7 (Emergency Salt)&#45;&gt;&#45;5,2 (Optical fiber) -->
<g id="edge12" class="edge">
<title>5,&#45;7 (Emergency Salt)&#45;&gt;&#45;5,2 (Optical fiber)</title>
<path fill="none" stroke="black" stroke-width="2.73" d="M323.36,-599.49C476.89,-767.91 1659.23,-2064.87 1839.84,-2263"/>
<polygon fill="black" stroke="black" stroke-width="2.73" points="1837.44,-2265.56 1846.77,-2270.6 1842.62,-2260.85 1837.44,-2265.56"/>
<text text-anchor="middle" x="1037.6" y="-1435.04" font-family="Times,serif" font-size="14.00">salt*121520</text>
</g>
<!-- 1,3 (item=korlex&#45;food&#45;01 Korlex food) -->
<g id="node11" class="node">
<title>1,3 (item=korlex&#45;food&#45;01 Korlex food)</title>
<ellipse fill="none" stroke="black" cx="604.2" cy="-2171.71" rx="185.77" ry="18"/>
<text text-anchor="middle" x="604.2" y="-2168.01" font-family="Times,serif" font-size="14.00">1,3 (item=korlex&#45;food&#45;01 Korlex food)</text>
</g>
<!-- 5,&#45;7 (Emergency Salt)&#45;&gt;1,3 (item=korlex&#45;food&#45;01 Korlex food) -->
<g id="edge23" class="edge">
<title>5,&#45;7 (Emergency Salt)&#45;&gt;1,3 (item=korlex&#45;food&#45;01 Korlex food)</title>
<path fill="none" stroke="black" stroke-width="0.29" d="M310.32,-599.61C340.43,-760.68 561.85,-1945.15 598.94,-2143.55"/>
<polygon fill="black" stroke="black" stroke-width="0.29" points="595.51,-2144.3 600.79,-2153.49 602.4,-2143.01 595.51,-2144.3"/>
<text text-anchor="middle" x="415.13" y="-1375.38" font-family="Times,serif" font-size="14.00">salt*13120</text>
</g>
<!-- &#45;6,&#45;1 (item=agar Agar) -->
<g id="node13" class="node">
<title>&#45;6,&#45;1 (item=agar Agar)</title>
<ellipse fill="none" stroke="black" cx="2447.36" cy="-779.82" rx="115.88" ry="18"/>
<text text-anchor="middle" x="2447.36" y="-776.12" font-family="Times,serif" font-size="14.00">&#45;6,&#45;1 (item=agar Agar)</text>
</g>
<!-- 5,&#45;7 (Emergency Salt)&#45;&gt;&#45;6,&#45;1 (item=agar Agar) -->
<g id="edge31" class="edge">
<title>5,&#45;7 (Emergency Salt)&#45;&gt;&#45;6,&#45;1 (item=agar Agar)</title>
<path fill="none" stroke="black" stroke-width="1.7" d="M404.46,-590.52C757.22,-623.2 1965.51,-735.17 2337.48,-769.64"/>
<polygon fill="black" stroke="black" stroke-width="1.7" points="2337.43,-773.15 2347.71,-770.58 2338.08,-766.18 2337.43,-773.15"/>
<text text-anchor="middle" x="1331.47" y="-683.88" font-family="Times,serif" font-size="14.00">salt*75680</text>
</g>
<!-- 4,&#45;2 (Ceramic) -->
<g id="node14" class="node">
<title>4,&#45;2 (Ceramic)</title>
<ellipse fill="none" stroke="black" cx="147.54" cy="-1434.17" rx="76.89" ry="18"/>
<text text-anchor="middle" x="147.54" y="-1430.47" font-family="Times,serif" font-size="14.00">4,&#45;2 (Ceramic)</text>
</g>
<!-- 5,&#45;7 (Emergency Salt)&#45;&gt;4,&#45;2 (Ceramic) -->
<g id="edge21" class="edge">
<title>5,&#45;7 (Emergency Salt)&#45;&gt;4,&#45;2 (Ceramic)</title>
<path fill="none" stroke="black" stroke-width="0.46" d="M303.53,-599.68C283.19,-708.49 177.73,-1272.68 152.81,-1405.94"/>
<polygon fill="black" stroke="black" stroke-width="0.46" points="149.31,-1405.67 150.91,-1416.14 156.19,-1406.95 149.31,-1405.67"/>
<text text-anchor="middle" x="267.67" y="-1006.61" font-family="Times,serif" font-size="14.00">salt*20480</text>
</g>
<!-- 2,0 (Sodium Sulfate) -->
<g id="node15" class="node">
<title>2,0 (Sodium Sulfate)</title>
<ellipse fill="none" stroke="black" cx="1862.95" cy="-138.75" rx="106.68" ry="18"/>
<text text-anchor="middle" x="1862.95" y="-135.05" font-family="Times,serif" font-size="14.00">2,0 (Sodium Sulfate)</text>
</g>
<!-- 5,&#45;7 (Emergency Salt)&#45;&gt;2,0 (Sodium Sulfate) -->
<g id="edge17" class="edge">
<title>5,&#45;7 (Emergency Salt)&#45;&gt;2,0 (Sodium Sulfate)</title>
<path fill="none" stroke="black" stroke-width="1.13" d="M362.31,-565.72C601.12,-497.77 1542.29,-229.99 1798.34,-157.14"/>
<polygon fill="black" stroke="black" stroke-width="1.13" points="1799.57,-160.42 1808.23,-154.32 1797.66,-153.69 1799.57,-160.42"/>
<text text-anchor="middle" x="1040.83" y="-365.23" font-family="Times,serif" font-size="14.00">salt*50320</text>
</g>
<!-- 3,&#45;8 (Agar) -->
<g id="node16" class="node">
<title>3,&#45;8 (Agar)</title>
<ellipse fill="none" stroke="black" cx="1438.55" cy="-2409.1" rx="59.59" ry="18"/>
<text text-anchor="middle" x="1438.55" y="-2405.4" font-family="Times,serif" font-size="14.00">3,&#45;8 (Agar)</text>
</g>
<!-- 5,&#45;7 (Emergency Salt)&#45;&gt;3,&#45;8 (Agar) -->
<g id="edge18" class="edge">
<title>5,&#45;7 (Emergency Salt)&#45;&gt;3,&#45;8 (Agar)</title>
<path fill="none" stroke="black" stroke-width="2.81" d="M318.13,-599.57C426.76,-775 1291.69,-2171.91 1422.1,-2382.54"/>
<polygon fill="black" stroke="black" stroke-width="2.81" points="1419.19,-2384.48 1427.43,-2391.14 1425.14,-2380.8 1419.19,-2384.48"/>
<text text-anchor="middle" x="826.12" y="-1494.85" font-family="Times,serif" font-size="14.00">salt*125200</text>
</g>
<!-- 2,7 (Mystery petrochemicals) -->
<g id="node17" class="node">
<title>2,7 (Mystery petrochemicals)</title>
<ellipse fill="none" stroke="black" cx="147.54" cy="-992.93" rx="147.57" ry="18"/>
<text text-anchor="middle" x="147.54" y="-989.23" font-family="Times,serif" font-size="14.00">2,7 (Mystery petrochemicals)</text>
</g>
<!-- 5,&#45;7 (Emergency Salt)&#45;&gt;2,7 (Mystery petrochemicals) -->
<g id="edge24" class="edge">
<title>5,&#45;7 (Emergency Salt)&#45;&gt;2,7 (Mystery petrochemicals)</title>
<path fill="none" stroke="black" stroke-width="0.19" d="M299.88,-599.69C274.62,-664.88 188.61,-886.91 158.25,-965.27"/>
<polygon fill="black" stroke="black" stroke-width="0.19" points="154.86,-964.34 154.51,-974.93 161.39,-966.87 154.86,-964.34"/>
<text text-anchor="middle" x="194.07" y="-786.28" font-family="Times,serif" font-size="14.00">salt*8640</text>
</g>
<!-- 0,&#45;7 (Salt (stone/gravel destruction)) -->
<g id="node3" class="node">
<title>0,&#45;7 (Salt (stone/gravel destruction))</title>
<ellipse fill="none" stroke="black" cx="2215.07" cy="-404.66" rx="180.07" ry="18"/>
<text text-anchor="middle" x="2215.07" y="-400.96" font-family="Times,serif" font-size="14.00">0,&#45;7 (Salt (stone/gravel destruction))</text>
</g>
<!-- 0,&#45;7 (Salt (stone/gravel destruction))&#45;&gt;0,0 (LE BUS) -->
<g id="edge4" class="edge">
<title>0,&#45;7 (Salt (stone/gravel destruction))&#45;&gt;0,0 (LE BUS)</title>
<path fill="none" stroke="black" stroke-width="3.14" d="M2222.06,-422.69C2262.68,-527.55 2468.4,-1058.59 2517.77,-1186.03"/>
<polygon fill="black" stroke="black" stroke-width="3.14" points="2514.56,-1187.42 2521.43,-1195.48 2521.09,-1184.89 2514.56,-1187.42"/>
<text text-anchor="middle" x="2325.91" y="-808.16" font-family="Times,serif" font-size="14.00">salt*140000</text>
</g>
<!-- 0,&#45;7 (Salt (stone/gravel destruction))&#45;&gt;2,1 (Niobium plates) -->
<g id="edge2" class="edge">
<title>0,&#45;7 (Salt (stone/gravel destruction))&#45;&gt;2,1 (Niobium plates)</title>
<path fill="none" stroke="black" stroke-width="0.99" d="M2179.43,-386.92C2052.2,-323.56 1620.59,-108.65 1481.87,-39.57"/>
<polygon fill="black" stroke="black" stroke-width="0.99" points="1483.29,-36.37 1472.78,-35.04 1480.17,-42.63 1483.29,-36.37"/>
<text text-anchor="middle" x="1791.15" y="-217.04" font-family="Times,serif" font-size="14.00">salt*44240</text>
</g>
<!-- 0,&#45;7 (Salt (stone/gravel destruction))&#45;&gt;1,6 (Sodium Hydroxide, Limestone) -->
<g id="edge20" class="edge">
<title>0,&#45;7 (Salt (stone/gravel destruction))&#45;&gt;1,6 (Sodium Hydroxide, Limestone)</title>
<path fill="none" stroke="black" stroke-width="1.26" d="M2082.9,-392.42C1782.97,-364.62 1053,-296.98 745,-268.44"/>
<polygon fill="black" stroke="black" stroke-width="1.26" points="744.95,-264.92 734.67,-267.48 744.3,-271.89 744.95,-264.92"/>
<text text-anchor="middle" x="1374.45" y="-334.23" font-family="Times,serif" font-size="14.00">salt*56080</text>
</g>
<!-- 0,&#45;7 (Salt (stone/gravel destruction))&#45;&gt;&#45;5,2 (Optical fiber) -->
<g id="edge22" class="edge">
<title>0,&#45;7 (Salt (stone/gravel destruction))&#45;&gt;&#45;5,2 (Optical fiber)</title>
<path fill="none" stroke="black" stroke-width="0.65" d="M2211.7,-422.7C2178.44,-600.61 1909.53,-2039.18 1868.26,-2259.96"/>
<polygon fill="black" stroke="black" stroke-width="0.65" points="1864.76,-2259.61 1866.36,-2270.08 1871.64,-2260.9 1864.76,-2259.61"/>
<text text-anchor="middle" x="2000.48" y="-1345.13" font-family="Times,serif" font-size="14.00">salt*29040</text>
</g>
<!-- 0,&#45;7 (Salt (stone/gravel destruction))&#45;&gt;1,3 (item=korlex&#45;food&#45;01 Korlex food) -->
<g id="edge19" class="edge">
<title>0,&#45;7 (Salt (stone/gravel destruction))&#45;&gt;1,3 (item=korlex&#45;food&#45;01 Korlex food)</title>
<path fill="none" stroke="black" stroke-width="0.48" d="M2198.6,-422.73C2041.74,-594.8 813.03,-1942.63 627.6,-2146.03"/>
<polygon fill="black" stroke="black" stroke-width="0.48" points="624.88,-2143.82 620.73,-2153.57 630.06,-2148.53 624.88,-2143.82"/>
<text text-anchor="middle" x="1373.6" y="-1288.18" font-family="Times,serif" font-size="14.00">salt*21520</text>
</g>
<!-- 0,&#45;7 (Salt (stone/gravel destruction))&#45;&gt;&#45;6,&#45;1 (item=agar Agar) -->
<g id="edge14" class="edge">
<title>0,&#45;7 (Salt (stone/gravel destruction))&#45;&gt;&#45;6,&#45;1 (item=agar Agar)</title>
<path fill="none" stroke="black" stroke-width="1.14" d="M2226.27,-422.76C2263.91,-483.53 2385.91,-680.58 2430.69,-752.89"/>
<polygon fill="black" stroke="black" stroke-width="1.14" points="2427.75,-754.8 2435.99,-761.46 2433.7,-751.12 2427.75,-754.8"/>
<text text-anchor="middle" x="2288.98" y="-591.62" font-family="Times,serif" font-size="14.00">salt*50960</text>
</g>
<!-- 0,&#45;7 (Salt (stone/gravel destruction))&#45;&gt;4,&#45;2 (Ceramic) -->
<g id="edge28" class="edge">
<title>0,&#45;7 (Salt (stone/gravel destruction))&#45;&gt;4,&#45;2 (Ceramic)</title>
<path fill="none" stroke="black" stroke-width="0.32" d="M2179.62,-422.31C1931.58,-545.82 458.04,-1279.56 189.52,-1413.27"/>
<polygon fill="black" stroke="black" stroke-width="0.32" points="187.87,-1410.18 180.48,-1417.77 190.99,-1416.45 187.87,-1410.18"/>
<text text-anchor="middle" x="1145.07" y="-921.59" font-family="Times,serif" font-size="14.00">salt*14480</text>
</g>
<!-- 0,&#45;7 (Salt (stone/gravel destruction))&#45;&gt;2,0 (Sodium Sulfate) -->
<g id="edge33" class="edge">
<title>0,&#45;7 (Salt (stone/gravel destruction))&#45;&gt;2,0 (Sodium Sulfate)</title>
<path fill="none" stroke="black" stroke-width="0.56" d="M2191.42,-386.8C2129.78,-340.25 1964.16,-215.18 1894.5,-162.58"/>
<polygon fill="black" stroke="black" stroke-width="0.56" points="1896.59,-159.77 1886.5,-156.53 1892.37,-165.35 1896.59,-159.77"/>
<text text-anchor="middle" x="2003.46" y="-278.49" font-family="Times,serif" font-size="14.00">salt*25120</text>
</g>
<!-- 0,&#45;7 (Salt (stone/gravel destruction))&#45;&gt;2,7 (Mystery petrochemicals) -->
<g id="edge46" class="edge">
<title>0,&#45;7 (Salt (stone/gravel destruction))&#45;&gt;2,7 (Mystery petrochemicals)</title>
<path fill="none" stroke="black" stroke-width="0.2" d="M2155.15,-421.71C1856.74,-506.62 532.82,-883.3 215.88,-973.48"/>
<polygon fill="black" stroke="black" stroke-width="0.2" points="214.57,-970.21 205.91,-976.32 216.49,-976.95 214.57,-970.21"/>
<text text-anchor="middle" x="1150.51" y="-701.4" font-family="Times,serif" font-size="14.00">salt*8720</text>
</g>
<!-- 1,8 (HCl, Salt) -->
<g id="node6" class="node">
<title>1,8 (HCl, Salt)</title>
<ellipse fill="none" stroke="black" cx="306.93" cy="-1845.62" rx="77.19" ry="18"/>
<text text-anchor="middle" x="306.93" y="-1841.92" font-family="Times,serif" font-size="14.00">1,8 (HCl, Salt)</text>
</g>
<!-- 1,8 (HCl, Salt)&#45;&gt;0,0 (LE BUS) -->
<g id="edge15" class="edge">
<title>1,8 (HCl, Salt)&#45;&gt;0,0 (LE BUS)</title>
<path fill="none" stroke="black" stroke-width="4.98" d="M355.92,-1831.68C647.85,-1748.62 2156.09,-1319.49 2470.83,-1229.94"/>
<polygon fill="black" stroke="black" stroke-width="4.98" points="2472.23,-1234.07 2480.66,-1227.14 2469.85,-1225.69 2472.23,-1234.07"/>
<text text-anchor="middle" x="1369.38" y="-1534.61" font-family="Times,serif" font-size="14.00">salt*222080</text>
</g>
<!-- 1,8 (HCl, Salt)&#45;&gt;2,1 (Niobium plates) -->
<g id="edge6" class="edge">
<title>1,8 (HCl, Salt)&#45;&gt;2,1 (Niobium plates)</title>
<path fill="none" stroke="black" stroke-width="3.61" d="M318.13,-1827.53C426.76,-1652.1 1291.69,-255.19 1422.1,-44.56"/>
<polygon fill="black" stroke="black" stroke-width="3.61" points="1425.14,-46.3 1427.43,-35.96 1419.19,-42.62 1425.14,-46.3"/>
<text text-anchor="middle" x="826.12" y="-939.85" font-family="Times,serif" font-size="14.00">salt*160960</text>
</g>
<!-- 1,8 (HCl, Salt)&#45;&gt;1,6 (Sodium Hydroxide, Limestone) -->
<g id="edge11" class="edge">
<title>1,8 (HCl, Salt)&#45;&gt;1,6 (Sodium Hydroxide, Limestone)</title>
<path fill="none" stroke="black" stroke-width="3.24" d="M310.32,-1827.49C340.43,-1666.41 561.85,-481.94 598.94,-283.55"/>
<polygon fill="black" stroke="black" stroke-width="3.24" points="602.4,-284.08 600.79,-273.61 595.51,-282.8 602.4,-284.08"/>
<text text-anchor="middle" x="410.63" y="-1059.32" font-family="Times,serif" font-size="14.00">salt*144480</text>
</g>
<!-- 1,8 (HCl, Salt)&#45;&gt;&#45;5,2 (Optical fiber) -->
<g id="edge5" class="edge">
<title>1,8 (HCl, Salt)&#45;&gt;&#45;5,2 (Optical fiber)</title>
<path fill="none" stroke="black" stroke-width="3.04" d="M356.07,-1859.6C584.71,-1924.65 1544.06,-2197.61 1799.98,-2270.43"/>
<polygon fill="black" stroke="black" stroke-width="3.04" points="1799.28,-2273.87 1809.85,-2273.24 1801.19,-2267.14 1799.28,-2273.87"/>
<text text-anchor="middle" x="1034.02" y="-2068.82" font-family="Times,serif" font-size="14.00">salt*135440</text>
</g>
<!-- 1,8 (HCl, Salt)&#45;&gt;1,3 (item=korlex&#45;food&#45;01 Korlex food) -->
<g id="edge26" class="edge">
<title>1,8 (HCl, Salt)&#45;&gt;1,3 (item=korlex&#45;food&#45;01 Korlex food)</title>
<path fill="none" stroke="black" stroke-width="0.73" d="M323.34,-1863.62C373.18,-1918.29 522.95,-2082.58 580.92,-2146.17"/>
<polygon fill="black" stroke="black" stroke-width="0.73" points="578.52,-2148.73 587.84,-2153.76 583.69,-2144.02 578.52,-2148.73"/>
<text text-anchor="middle" x="412.63" y="-2008.7" font-family="Times,serif" font-size="14.00">salt*32320</text>
</g>
<!-- 1,8 (HCl, Salt)&#45;&gt;4,&#45;2 (Ceramic) -->
<g id="edge16" class="edge">
<title>1,8 (HCl, Salt)&#45;&gt;4,&#45;2 (Ceramic)</title>
<path fill="none" stroke="black" stroke-width="0.42" d="M299.98,-1827.68C274.86,-1762.84 188.69,-1540.41 158.27,-1461.89"/>
<polygon fill="black" stroke="black" stroke-width="0.42" points="161.4,-1460.27 154.53,-1452.21 154.87,-1462.8 161.4,-1460.27"/>
<text text-anchor="middle" x="189.63" y="-1648.58" font-family="Times,serif" font-size="14.00">salt*18800</text>
</g>
<!-- 1,8 (HCl, Salt)&#45;&gt;2,0 (Sodium Sulfate) -->
<g id="edge29" class="edge">
<title>1,8 (HCl, Salt)&#45;&gt;2,0 (Sodium Sulfate)</title>
<path fill="none" stroke="black" stroke-width="1.71" d="M323.1,-1827.89C475.47,-1660.75 1657.79,-363.8 1839.53,-164.44"/>
<polygon fill="black" stroke="black" stroke-width="1.71" points="1842.36,-166.54 1846.51,-156.79 1837.19,-161.82 1842.36,-166.54"/>
<text text-anchor="middle" x="1041.82" y="-999.96" font-family="Times,serif" font-size="14.00">salt*76320</text>
</g>
<!-- 1,8 (HCl, Salt)&#45;&gt;3,&#45;8 (Agar) -->
<g id="edge38" class="edge">
<title>1,8 (HCl, Salt)&#45;&gt;3,&#45;8 (Agar)</title>
<path fill="none" stroke="black" stroke-width="1.12" d="M339.88,-1862.03C502.65,-1943.08 1220.16,-2300.35 1398.37,-2389.09"/>
<polygon fill="black" stroke="black" stroke-width="1.12" points="1396.91,-2392.27 1407.42,-2393.6 1400.03,-2386.01 1396.91,-2392.27"/>
<text text-anchor="middle" x="829.63" y="-2129.36" font-family="Times,serif" font-size="14.00">salt*50080</text>
</g>
<!-- 1,8 (HCl, Salt)&#45;&gt;2,7 (Mystery petrochemicals) -->
<g id="edge37" class="edge">
<title>1,8 (HCl, Salt)&#45;&gt;2,7 (Mystery petrochemicals)</title>
<path fill="none" stroke="black" stroke-width="0.39" d="M303.53,-1827.42C283.19,-1718.61 177.73,-1154.42 152.81,-1021.16"/>
<polygon fill="black" stroke="black" stroke-width="0.39" points="156.19,-1020.15 150.91,-1010.96 149.31,-1021.43 156.19,-1020.15"/>
<text text-anchor="middle" x="267.67" y="-1428.09" font-family="Times,serif" font-size="14.00">salt*17280</text>
</g>
<!-- 3,5 (Molybdenum plate) -->
<g id="node8" class="node">
<title>3,5 (Molybdenum plate)</title>
<ellipse fill="none" stroke="black" cx="999.19" cy="-58.71" rx="122.38" ry="18"/>
<text text-anchor="middle" x="999.19" y="-55.01" font-family="Times,serif" font-size="14.00">3,5 (Molybdenum plate)</text>
</g>
<!-- 3,5 (Molybdenum plate)&#45;&gt;0,0 (LE BUS) -->
<g id="edge27" class="edge">
<title>3,5 (Molybdenum plate)&#45;&gt;0,0 (LE BUS)</title>
<path fill="none" stroke="black" stroke-width="0.45" d="M1022.59,-76.39C1197.45,-208.44 2298.24,-1039.71 2497.52,-1190.2"/>
<polygon fill="black" stroke="black" stroke-width="0.45" points="2495.46,-1193.03 2505.55,-1196.26 2499.68,-1187.44 2495.46,-1193.03"/>
<text text-anchor="middle" x="1720.56" y="-637.1" font-family="Times,serif" font-size="14.00">salt*20000</text>
</g>
<!-- 3,5 (Molybdenum plate)&#45;&gt;2,1 (Niobium plates) -->
<g id="edge49" class="edge">
<title>3,5 (Molybdenum plate)&#45;&gt;2,1 (Niobium plates)</title>
<path fill="none" stroke="black" stroke-width="0.05" d="M1102.75,-49.12C1172.88,-42.62 1265.15,-34.07 1335.23,-27.57"/>
<polygon fill="black" stroke="black" stroke-width="0.05" points="1335.76,-31.04 1345.4,-26.63 1335.12,-24.07 1335.76,-31.04"/>
<text text-anchor="middle" x="1183.99" y="-42.15" font-family="Times,serif" font-size="14.00">salt*2336</text>
</g>
<!-- 3,5 (Molybdenum plate)&#45;&gt;1,6 (Sodium Hydroxide, Limestone) -->
<g id="edge7" class="edge">
<title>3,5 (Molybdenum plate)&#45;&gt;1,6 (Sodium Hydroxide, Limestone)</title>
<path fill="none" stroke="black" stroke-width="0.2" d="M964.48,-75.99C892.84,-111.66 728.68,-193.41 649.09,-233.04"/>
<polygon fill="black" stroke="black" stroke-width="0.2" points="647.21,-230.07 639.82,-237.66 650.33,-236.33 647.21,-230.07"/>
<text text-anchor="middle" x="771.79" y="-158.32" font-family="Times,serif" font-size="14.00">salt*8816</text>
</g>
<!-- 3,5 (Molybdenum plate)&#45;&gt;&#45;5,2 (Optical fiber) -->
<g id="edge47" class="edge">
<title>3,5 (Molybdenum plate)&#45;&gt;&#45;5,2 (Optical fiber)</title>
<path fill="none" stroke="black" stroke-width="0.33" d="M1006.26,-76.99C1082.95,-274.94 1758.64,-2019.1 1852.22,-2260.64"/>
<polygon fill="black" stroke="black" stroke-width="0.33" points="1849.01,-2262.05 1855.89,-2270.11 1855.54,-2259.52 1849.01,-2262.05"/>
<text text-anchor="middle" x="1389.74" y="-1172.61" font-family="Times,serif" font-size="14.00">salt*14768</text>
</g>
<!-- 3,5 (Molybdenum plate)&#45;&gt;1,3 (item=korlex&#45;food&#45;01 Korlex food) -->
<g id="edge39" class="edge">
<title>3,5 (Molybdenum plate)&#45;&gt;1,3 (item=korlex&#45;food&#45;01 Korlex food)</title>
<path fill="none" stroke="black" stroke-width="0.23" d="M995.77,-76.98C959.96,-268.56 653.62,-1907.31 609.49,-2143.41"/>
<polygon fill="black" stroke="black" stroke-width="0.23" points="605.98,-2143.11 607.59,-2153.58 612.86,-2144.4 605.98,-2143.11"/>
<text text-anchor="middle" x="763.13" y="-1114" font-family="Times,serif" font-size="14.00">salt*10464</text>
</g>
<!-- 3,5 (Molybdenum plate)&#45;&gt;2,0 (Sodium Sulfate) -->
<g id="edge45" class="edge">
<title>3,5 (Molybdenum plate)&#45;&gt;2,0 (Sodium Sulfate)</title>
<path fill="none" stroke="black" stroke-width="0.57" d="M1102.95,-68.33C1269.13,-83.73 1593.13,-113.75 1759.26,-129.14"/>
<polygon fill="black" stroke="black" stroke-width="0.57" points="1759.21,-132.65 1769.49,-130.09 1759.85,-125.68 1759.21,-132.65"/>
<text text-anchor="middle" x="1391.61" y="-102.54" font-family="Times,serif" font-size="14.00">salt*25264</text>
</g>
<!-- 3,5 (Molybdenum plate)&#45;&gt;2,7 (Mystery petrochemicals) -->
<g id="edge48" class="edge">
<title>3,5 (Molybdenum plate)&#45;&gt;2,7 (Mystery petrochemicals)</title>
<path fill="none" stroke="black" stroke-width="0.09" d="M982.55,-76.96C876.46,-193.33 294.76,-831.43 170.78,-967.43"/>
<polygon fill="black" stroke="black" stroke-width="0.09" points="168.08,-965.2 163.93,-974.95 173.25,-969.92 168.08,-965.2"/>
<text text-anchor="middle" x="541.67" y="-525.99" font-family="Times,serif" font-size="14.00">salt*4144</text>
</g>
<!-- 2,10 (Nickel plate and Nichrome) -->
<g id="node9" class="node">
<title>2,10 (Nickel plate and Nichrome)</title>
<ellipse fill="none" stroke="black" cx="2447.36" cy="-1647.28" rx="165.17" ry="18"/>
<text text-anchor="middle" x="2447.36" y="-1643.58" font-family="Times,serif" font-size="14.00">2,10 (Nickel plate and Nichrome)</text>
</g>
<!-- 2,10 (Nickel plate and Nichrome)&#45;&gt;0,0 (LE BUS) -->
<g id="edge8" class="edge">
<title>2,10 (Nickel plate and Nichrome)&#45;&gt;0,0 (LE BUS)</title>
<path fill="none" stroke="black" stroke-width="0.45" d="M2450.74,-1629.2C2463.37,-1561.62 2507.87,-1323.58 2523.2,-1241.57"/>
<polygon fill="black" stroke="black" stroke-width="0.45" points="2526.64,-1242.18 2525.04,-1231.71 2519.76,-1240.9 2526.64,-1242.18"/>
<text text-anchor="middle" x="2447.47" y="-1439.18" font-family="Times,serif" font-size="14.00">salt*20000</text>
</g>
<!-- 2,10 (Nickel plate and Nichrome)&#45;&gt;&#45;5,2 (Optical fiber) -->
<g id="edge51" class="edge">
<title>2,10 (Nickel plate and Nichrome)&#45;&gt;&#45;5,2 (Optical fiber)</title>
<path fill="none" stroke="black" stroke-width="0.06" d="M2430.81,-1665.43C2348.44,-1755.79 1982.78,-2156.9 1886.33,-2262.69"/>
<polygon fill="black" stroke="black" stroke-width="0.06" points="1883.5,-2260.6 1879.35,-2270.35 1888.68,-2265.32 1883.5,-2260.6"/>
<text text-anchor="middle" x="2123.57" y="-1967.86" font-family="Times,serif" font-size="14.00">salt*2560</text>
</g>
<!-- &#45;4,7 (Powdered Quartz/Salt) -->
<g id="node10" class="node">
<title>&#45;4,7 (Powdered Quartz/Salt)</title>
<ellipse fill="none" stroke="black" cx="2215.07" cy="-2022.44" rx="139.98" ry="18"/>
<text text-anchor="middle" x="2215.07" y="-2018.74" font-family="Times,serif" font-size="14.00">&#45;4,7 (Powdered Quartz/Salt)</text>
</g>
<!-- &#45;4,7 (Powdered Quartz/Salt)&#45;&gt;0,0 (LE BUS) -->
<g id="edge40" class="edge">
<title>&#45;4,7 (Powdered Quartz/Salt)&#45;&gt;0,0 (LE BUS)</title>
<path fill="none" stroke="black" stroke-width="1.79" d="M2222.06,-2004.41C2262.68,-1899.55 2468.4,-1368.51 2517.77,-1241.07"/>
<polygon fill="black" stroke="black" stroke-width="1.79" points="2521.09,-1242.21 2521.43,-1231.62 2514.56,-1239.68 2521.09,-1242.21"/>
<text text-anchor="middle" x="2330.41" y="-1611.54" font-family="Times,serif" font-size="14.00">salt*80000</text>
</g>
<!-- &#45;4,7 (Powdered Quartz/Salt)&#45;&gt;2,1 (Niobium plates) -->
<g id="edge43" class="edge">
<title>&#45;4,7 (Powdered Quartz/Salt)&#45;&gt;2,1 (Niobium plates)</title>
<path fill="none" stroke="black" stroke-width="0.28" d="M2208,-2004.19C2136.01,-1818.35 1536.69,-271.34 1449.19,-45.47"/>
<polygon fill="black" stroke="black" stroke-width="0.28" points="1452.4,-44.06 1445.52,-36 1445.87,-46.59 1452.4,-44.06"/>
<text text-anchor="middle" x="1789.1" y="-1028.63" font-family="Times,serif" font-size="14.00">salt*12544</text>
</g>
<!-- &#45;4,7 (Powdered Quartz/Salt)&#45;&gt;1,6 (Sodium Hydroxide, Limestone) -->
<g id="edge13" class="edge">
<title>&#45;4,7 (Powdered Quartz/Salt)&#45;&gt;1,6 (Sodium Hydroxide, Limestone)</title>
<path fill="none" stroke="black" stroke-width="0.55" d="M2198.6,-2004.37C2041.74,-1832.3 813.03,-484.47 627.6,-281.07"/>
<polygon fill="black" stroke="black" stroke-width="0.55" points="630.06,-278.56 620.73,-273.53 624.88,-283.28 630.06,-278.56"/>
<text text-anchor="middle" x="1373.6" y="-1146.52" font-family="Times,serif" font-size="14.00">salt*24688</text>
</g>
<!-- &#45;4,7 (Powdered Quartz/Salt)&#45;&gt;&#45;5,2 (Optical fiber) -->
<g id="edge44" class="edge">
<title>&#45;4,7 (Powdered Quartz/Salt)&#45;&gt;&#45;5,2 (Optical fiber)</title>
<path fill="none" stroke="black" stroke-width="0.17" d="M2191.42,-2040.3C2129.78,-2086.85 1964.16,-2211.92 1894.5,-2264.52"/>
<polygon fill="black" stroke="black" stroke-width="0.17" points="1892.37,-2261.74 1886.5,-2270.56 1896.59,-2267.33 1892.37,-2261.74"/>
<text text-anchor="middle" x="2007.96" y="-2156.21" font-family="Times,serif" font-size="14.00">salt*7360</text>
</g>
<!-- &#45;4,7 (Powdered Quartz/Salt)&#45;&gt;1,3 (item=korlex&#45;food&#45;01 Korlex food) -->
<g id="edge9" class="edge">
<title>&#45;4,7 (Powdered Quartz/Salt)&#45;&gt;1,3 (item=korlex&#45;food&#45;01 Korlex food)</title>
<path fill="none" stroke="black" stroke-width="0.23" d="M2101.48,-2032.96C1815.44,-2059.47 1065.77,-2128.93 748.91,-2158.3"/>
<polygon fill="black" stroke="black" stroke-width="0.23" points="748.37,-2154.83 738.74,-2159.24 749.02,-2161.8 748.37,-2154.83"/>
<text text-anchor="middle" x="1385.69" y="-2099.43" font-family="Times,serif" font-size="14.00">salt*10176</text>
</g>
<!-- &#45;4,7 (Powdered Quartz/Salt)&#45;&gt;3,&#45;8 (Agar) -->
<g id="edge30" class="edge">
<title>&#45;4,7 (Powdered Quartz/Salt)&#45;&gt;3,&#45;8 (Agar)</title>
<path fill="none" stroke="black" stroke-width="0.56" d="M2179.94,-2039.93C2052.51,-2103.38 1614.9,-2321.28 1479.09,-2388.91"/>
<polygon fill="black" stroke="black" stroke-width="0.56" points="1477.23,-2385.93 1469.84,-2393.52 1480.35,-2392.19 1477.23,-2385.93"/>
<text text-anchor="middle" x="1790.01" y="-2218.22" font-family="Times,serif" font-size="14.00">salt*25008</text>
</g>
<!-- &#45;4,7 (Powdered Quartz/Salt)&#45;&gt;2,7 (Mystery petrochemicals) -->
<g id="edge50" class="edge">
<title>&#45;4,7 (Powdered Quartz/Salt)&#45;&gt;2,7 (Mystery petrochemicals)</title>
<path fill="none" stroke="black" stroke-width="0.05" d="M2180.05,-2005C1934.1,-1882.53 467.74,-1152.37 192.17,-1015.15"/>
<polygon fill="black" stroke="black" stroke-width="0.05" points="193.38,-1011.85 182.87,-1010.52 190.26,-1018.11 193.38,-1011.85"/>
<text text-anchor="middle" x="1151.11" y="-1513.87" font-family="Times,serif" font-size="14.00">salt*2080</text>
</g>
<!-- &#45;3,7 (Sea sprouts) -->
<g id="node12" class="node">
<title>&#45;3,7 (Sea sprouts)</title>
<ellipse fill="none" stroke="black" cx="999.19" cy="-2368.39" rx="92.88" ry="18"/>
<text text-anchor="middle" x="999.19" y="-2364.69" font-family="Times,serif" font-size="14.00">&#45;3,7 (Sea sprouts)</text>
</g>
<!-- &#45;3,7 (Sea sprouts)&#45;&gt;0,0 (LE BUS) -->
<g id="edge42" class="edge">
<title>&#45;3,7 (Sea sprouts)&#45;&gt;0,0 (LE BUS)</title>
<path fill="none" stroke="black" stroke-width="0.45" d="M1022.29,-2350.94C1196.26,-2219.56 2299.17,-1386.68 2497.81,-1236.68"/>
<polygon fill="black" stroke="black" stroke-width="0.45" points="2499.93,-1239.46 2505.8,-1230.64 2495.71,-1233.88 2499.93,-1239.46"/>
<text text-anchor="middle" x="1720.55" y="-1797.61" font-family="Times,serif" font-size="14.00">salt*20000</text>
</g>
<!-- &#45;3,7 (Sea sprouts)&#45;&gt;2,1 (Niobium plates) -->
<g id="edge34" class="edge">
<title>&#45;3,7 (Sea sprouts)&#45;&gt;2,1 (Niobium plates)</title>
<path fill="none" stroke="black" stroke-width="0.33" d="M1002.59,-2350.15C1040.69,-2146.37 1386.06,-298.78 1433.22,-46.49"/>
<polygon fill="black" stroke="black" stroke-width="0.33" points="1436.73,-46.78 1435.13,-36.31 1429.85,-45.49 1436.73,-46.78"/>
<text text-anchor="middle" x="1178.41" y="-1202.12" font-family="Times,serif" font-size="14.00">salt*14720</text>
</g>
<!-- &#45;3,7 (Sea sprouts)&#45;&gt;1,6 (Sodium Hydroxide, Limestone) -->
<g id="edge36" class="edge">
<title>&#45;3,7 (Sea sprouts)&#45;&gt;1,6 (Sodium Hydroxide, Limestone)</title>
<path fill="none" stroke="black" stroke-width="0.56" d="M995.77,-2350.12C959.96,-2158.54 653.62,-519.78 609.49,-283.69"/>
<polygon fill="black" stroke="black" stroke-width="0.56" points="612.86,-282.7 607.59,-273.52 605.98,-283.99 612.86,-282.7"/>
<text text-anchor="middle" x="763.13" y="-1320.7" font-family="Times,serif" font-size="14.00">salt*24976</text>
</g>
<!-- &#45;3,7 (Sea sprouts)&#45;&gt;&#45;5,2 (Optical fiber) -->
<g id="edge10" class="edge">
<title>&#45;3,7 (Sea sprouts)&#45;&gt;&#45;5,2 (Optical fiber)</title>
<path fill="none" stroke="black" stroke-width="0.31" d="M1083.18,-2360.6C1244.36,-2345.67 1596.11,-2313.07 1766.55,-2297.28"/>
<polygon fill="black" stroke="black" stroke-width="0.31" points="1766.88,-2300.76 1776.52,-2296.36 1766.24,-2293.79 1766.88,-2300.76"/>
<text text-anchor="middle" x="1385.37" y="-2332.74" font-family="Times,serif" font-size="14.00">salt*13712</text>
</g>
<!-- &#45;3,7 (Sea sprouts)&#45;&gt;1,3 (item=korlex&#45;food&#45;01 Korlex food) -->
<g id="edge35" class="edge">
<title>&#45;3,7 (Sea sprouts)&#45;&gt;1,3 (item=korlex&#45;food&#45;01 Korlex food)</title>
<path fill="none" stroke="black" stroke-width="0.05" d="M965.17,-2351.45C893.87,-2315.94 728.79,-2233.74 648.99,-2194.01"/>
<polygon fill="black" stroke="black" stroke-width="0.05" points="650.2,-2190.7 639.69,-2189.38 647.08,-2196.97 650.2,-2190.7"/>
<text text-anchor="middle" x="772.08" y="-2276.53" font-family="Times,serif" font-size="14.00">salt*2128</text>
</g>
<!-- &#45;3,7 (Sea sprouts)&#45;&gt;4,&#45;2 (Ceramic) -->
<g id="edge32" class="edge">
<title>&#45;3,7 (Sea sprouts)&#45;&gt;4,&#45;2 (Ceramic)</title>
<path fill="none" stroke="black" stroke-width="0.05" d="M982.93,-2350.56C877.75,-2235.18 293.81,-1594.62 170.43,-1459.29"/>
<polygon fill="black" stroke="black" stroke-width="0.05" points="172.94,-1456.84 163.62,-1451.81 167.77,-1461.56 172.94,-1456.84"/>
<text text-anchor="middle" x="541.68" y="-1908.72" font-family="Times,serif" font-size="14.00">salt*2224</text>
</g>
<!-- &#45;3,7 (Sea sprouts)&#45;&gt;3,&#45;8 (Agar) -->
<g id="edge52" class="edge">
<title>&#45;3,7 (Sea sprouts)&#45;&gt;3,&#45;8 (Agar)</title>
<path fill="none" stroke="black" stroke-width="0.56" d="M1083.12,-2376.16C1166.79,-2383.92 1293.66,-2395.67 1371.04,-2402.84"/>
<polygon fill="black" stroke="black" stroke-width="0.56" points="1370.87,-2406.34 1381.15,-2403.78 1371.52,-2399.37 1370.87,-2406.34"/>
<text text-anchor="middle" x="1187.58" y="-2393.3" font-family="Times,serif" font-size="14.00">salt*25008</text>
</g>
<!-- &#45;3,7 (Sea sprouts)&#45;&gt;2,7 (Mystery petrochemicals) -->
<g id="edge41" class="edge">
<title>&#45;3,7 (Sea sprouts)&#45;&gt;2,7 (Mystery petrochemicals)</title>
<path fill="none" stroke="black" stroke-width="0.15" d="M988.11,-2350.49C897.17,-2203.63 274.42,-1197.85 164.19,-1019.83"/>
<polygon fill="black" stroke="black" stroke-width="0.15" points="167.16,-1017.96 158.92,-1011.3 161.2,-1021.65 167.16,-1017.96"/>
<text text-anchor="middle" x="541.15" y="-1688.96" font-family="Times,serif" font-size="14.00">salt*6704</text>
</g>
</g>
</svg>
