<?xml version="1.0" encoding="UTF-8" standalone="no"?>
<!DOCTYPE svg PUBLIC "-//W3C//DTD SVG 1.1//EN"
 "http://www.w3.org/Graphics/SVG/1.1/DTD/svg11.dtd">
<!-- Generated by graphviz version 2.43.0 (0)
 -->
<!-- Title: %3 Pages: 1 -->
<svg width="951pt" height="757pt"
 viewBox="0.00 0.00 951.22 756.67" xmlns="http://www.w3.org/2000/svg" xmlns:xlink="http://www.w3.org/1999/xlink">
<g id="graph0" class="graph" transform="scale(1 1) rotate(0) translate(4 752.67)">
<title>%3</title>
<polygon fill="white" stroke="transparent" points="-4,4 -4,-752.67 947.22,-752.67 947.22,4 -4,4"/>
<!-- 2,&#45;2 (Tin Plate, Organic Solvent) -->
<g id="node1" class="node">
<title>2,&#45;2 (Tin Plate, Organic Solvent)</title>
<ellipse fill="none" stroke="black" cx="480.61" cy="-374.01" rx="159.77" ry="18"/>
<text text-anchor="middle" x="480.61" y="-370.31" font-family="Times,serif" font-size="14.00">2,&#45;2 (Tin Plate, Organic Solvent)</text>
</g>
<!-- 2,1 (Niobium plates) -->
<g id="node2" class="node">
<title>2,1 (Niobium plates)</title>
<ellipse fill="none" stroke="black" cx="837.28" cy="-374.01" rx="105.88" ry="18"/>
<text text-anchor="middle" x="837.28" y="-370.31" font-family="Times,serif" font-size="14.00">2,1 (Niobium plates)</text>
</g>
<!-- 2,&#45;2 (Tin Plate, Organic Solvent)&#45;&gt;2,1 (Niobium plates) -->
<g id="edge1" class="edge">
<title>2,&#45;2 (Tin Plate, Organic Solvent)&#45;&gt;2,1 (Niobium plates)</title>
<path fill="none" stroke="black" stroke-width="0.64" d="M640.69,-374.01C667.75,-374.01 695.37,-374.01 721.03,-374.01"/>
<polygon fill="black" stroke="black" stroke-width="0.64" points="721.15,-377.51 731.15,-374.01 721.15,-370.51 721.15,-377.51"/>
<text text-anchor="middle" x="680.86" y="-362.81" font-family="Times,serif" font-size="14.00">organic&#45;solvent&#45;barrel*3872</text>
</g>
<!-- &#45;5,2 (Optical fiber) -->
<g id="node3" class="node">
<title>&#45;5,2 (Optical fiber)</title>
<ellipse fill="none" stroke="black" cx="477.68" cy="-730.67" rx="96.38" ry="18"/>
<text text-anchor="middle" x="477.68" y="-726.97" font-family="Times,serif" font-size="14.00">&#45;5,2 (Optical fiber)</text>
</g>
<!-- 2,&#45;2 (Tin Plate, Organic Solvent)&#45;&gt;&#45;5,2 (Optical fiber) -->
<g id="edge2" class="edge">
<title>2,&#45;2 (Tin Plate, Organic Solvent)&#45;&gt;&#45;5,2 (Optical fiber)</title>
<path fill="none" stroke="black" stroke-width="1.5" d="M480.46,-392.19C479.98,-450.26 478.5,-631.64 477.92,-702.2"/>
<polygon fill="black" stroke="black" stroke-width="1.5" points="474.42,-702.5 477.83,-712.53 481.41,-702.56 474.42,-702.5"/>
<text text-anchor="middle" x="378.69" y="-550.99" font-family="Times,serif" font-size="14.00">organic&#45;solvent&#45;barrel*9000</text>
</g>
<!-- 9,5 (Niobium complex 2) -->
<g id="node4" class="node">
<title>9,5 (Niobium complex 2)</title>
<ellipse fill="none" stroke="black" cx="124.79" cy="-349.33" rx="124.58" ry="18"/>
<text text-anchor="middle" x="124.79" y="-345.63" font-family="Times,serif" font-size="14.00">9,5 (Niobium complex 2)</text>
</g>
<!-- 2,&#45;2 (Tin Plate, Organic Solvent)&#45;&gt;9,5 (Niobium complex 2) -->
<g id="edge3" class="edge">
<title>2,&#45;2 (Tin Plate, Organic Solvent)&#45;&gt;9,5 (Niobium complex 2)</title>
<path fill="none" stroke="black" stroke-width="0.7" d="M344.31,-364.56C312.46,-362.35 278.73,-360.01 247.51,-357.84"/>
<polygon fill="black" stroke="black" stroke-width="0.7" points="247.69,-354.35 237.47,-357.15 247.2,-361.33 247.69,-354.35"/>
<text text-anchor="middle" x="396.41" y="-350" font-family="Times,serif" font-size="14.00">organic&#45;solvent&#45;barrel*4200</text>
</g>
<!-- 0,0 (LE BUS) -->
<g id="node5" class="node">
<title>0,0 (LE BUS)</title>
<ellipse fill="none" stroke="black" cx="502.37" cy="-18" rx="71.49" ry="18"/>
<text text-anchor="middle" x="502.37" y="-14.3" font-family="Times,serif" font-size="14.00">0,0 (LE BUS)</text>
</g>
<!-- 2,&#45;2 (Tin Plate, Organic Solvent)&#45;&gt;0,0 (LE BUS) -->
<g id="edge4" class="edge">
<title>2,&#45;2 (Tin Plate, Organic Solvent)&#45;&gt;0,0 (LE BUS)</title>
<path fill="none" stroke="black" stroke-width="1.16" d="M481.72,-355.87C485.26,-297.9 496.33,-116.85 500.63,-46.42"/>
<polygon fill="black" stroke="black" stroke-width="1.16" points="504.15,-46.3 501.26,-36.11 497.16,-45.88 504.15,-46.3"/>
<text text-anchor="middle" x="390.67" y="-204.95" font-family="Times,serif" font-size="14.00">organic&#45;solvent&#45;barrel*7000</text>
</g>
</g>
</svg>
