<?xml version="1.0" encoding="UTF-8" standalone="no"?>
<!DOCTYPE svg PUBLIC "-//W3C//DTD SVG 1.1//EN"
 "http://www.w3.org/Graphics/SVG/1.1/DTD/svg11.dtd">
<!-- Generated by graphviz version 2.43.0 (0)
 -->
<!-- Title: %3 Pages: 1 -->
<svg width="1211pt" height="44pt"
 viewBox="0.00 0.00 1211.41 44.00" xmlns="http://www.w3.org/2000/svg" xmlns:xlink="http://www.w3.org/1999/xlink">
<g id="graph0" class="graph" transform="scale(1 1) rotate(0) translate(4 40)">
<title>%3</title>
<polygon fill="white" stroke="transparent" points="-4,4 -4,-40 1207.41,-40 1207.41,4 -4,4"/>
<!-- 4,&#45;2 (Ceramic) -->
<g id="node1" class="node">
<title>4,&#45;2 (Ceramic)</title>
<ellipse fill="none" stroke="black" cx="705.04" cy="-18" rx="76.89" ry="18"/>
<text text-anchor="middle" x="705.04" y="-14.3" font-family="Times,serif" font-size="14.00">4,&#45;2 (Ceramic)</text>
</g>
<!-- 0,0 (LE BUS) -->
<g id="node2" class="node">
<title>0,0 (LE BUS)</title>
<ellipse fill="none" stroke="black" cx="1131.91" cy="-18" rx="71.49" ry="18"/>
<text text-anchor="middle" x="1131.91" y="-14.3" font-family="Times,serif" font-size="14.00">0,0 (LE BUS)</text>
</g>
<!-- 4,&#45;2 (Ceramic)&#45;&gt;0,0 (LE BUS) -->
<g id="edge1" class="edge">
<title>4,&#45;2 (Ceramic)&#45;&gt;0,0 (LE BUS)</title>
<path fill="none" stroke="black" stroke-width="0.45" d="M781.85,-18C857.55,-18 972.79,-18 1050.15,-18"/>
<polygon fill="black" stroke="black" stroke-width="0.45" points="1050.34,-21.5 1060.34,-18 1050.34,-14.5 1050.34,-21.5"/>
<text text-anchor="middle" x="866" y="-21.8" font-family="Times,serif" font-size="14.00">ceramic*6064</text>
</g>
<!-- &#45;6,&#45;4 (High&#45;Power Resistors, Ceramic Capacitor, Inductor) -->
<g id="node3" class="node">
<title>&#45;6,&#45;4 (High&#45;Power Resistors, Ceramic Capacitor, Inductor)</title>
<ellipse fill="none" stroke="black" cx="278.18" cy="-18" rx="278.35" ry="18"/>
<text text-anchor="middle" x="278.18" y="-14.3" font-family="Times,serif" font-size="14.00">&#45;6,&#45;4 (High&#45;Power Resistors, Ceramic Capacitor, Inductor)</text>
</g>
<!-- 4,&#45;2 (Ceramic)&#45;&gt;&#45;6,&#45;4 (High&#45;Power Resistors, Ceramic Capacitor, Inductor) -->
<g id="edge2" class="edge">
<title>4,&#45;2 (Ceramic)&#45;&gt;&#45;6,&#45;4 (High&#45;Power Resistors, Ceramic Capacitor, Inductor)</title>
<path fill="none" stroke="black" stroke-width="1.55" d="M628.24,-18C609.71,-18 588.81,-18 566.69,-18"/>
<polygon fill="black" stroke="black" stroke-width="1.55" points="566.44,-14.5 556.44,-18 566.44,-21.5 566.44,-14.5"/>
<text text-anchor="middle" x="570.21" y="-6.8" font-family="Times,serif" font-size="14.00">ceramic*20752</text>
</g>
</g>
</svg>
