<?xml version="1.0" encoding="UTF-8" standalone="no"?>
<!DOCTYPE svg PUBLIC "-//W3C//DTD SVG 1.1//EN"
 "http://www.w3.org/Graphics/SVG/1.1/DTD/svg11.dtd">
<!-- Generated by graphviz version 2.43.0 (0)
 -->
<!-- Title: %3 Pages: 1 -->
<svg width="2003pt" height="1615pt"
 viewBox="0.00 0.00 2002.96 1615.10" xmlns="http://www.w3.org/2000/svg" xmlns:xlink="http://www.w3.org/1999/xlink">
<g id="graph0" class="graph" transform="scale(1 1) rotate(0) translate(4 1611.1)">
<title>%3</title>
<polygon fill="white" stroke="transparent" points="-4,4 -4,-1611.1 1998.96,-1611.1 1998.96,4 -4,4"/>
<!-- 7,&#45;6 (Coalier &#39;n&#39; dustier) -->
<g id="node1" class="node">
<title>7,&#45;6 (Coalier &#39;n&#39; dustier)</title>
<ellipse fill="none" stroke="black" cx="120.89" cy="-453.95" rx="120.78" ry="18"/>
<text text-anchor="middle" x="120.89" y="-450.25" font-family="Times,serif" font-size="14.00">7,&#45;6 (Coalier &#39;n&#39; dustier)</text>
</g>
<!-- 1,7 (Activated Carbon) -->
<g id="node2" class="node">
<title>1,7 (Activated Carbon)</title>
<ellipse fill="none" stroke="black" cx="1349.23" cy="-173.59" rx="115.88" ry="18"/>
<text text-anchor="middle" x="1349.23" y="-169.89" font-family="Times,serif" font-size="14.00">1,7 (Activated Carbon)</text>
</g>
<!-- 7,&#45;6 (Coalier &#39;n&#39; dustier)&#45;&gt;1,7 (Activated Carbon) -->
<g id="edge1" class="edge">
<title>7,&#45;6 (Coalier &#39;n&#39; dustier)&#45;&gt;1,7 (Activated Carbon)</title>
<path fill="none" stroke="black" stroke-width="2.59" d="M187.37,-438.78C398.28,-390.64 1051.57,-241.53 1274.1,-190.74"/>
<polygon fill="black" stroke="black" stroke-width="2.59" points="1275.08,-194.1 1284.05,-188.46 1273.52,-187.28 1275.08,-194.1"/>
<text text-anchor="middle" x="685.73" y="-318.56" font-family="Times,serif" font-size="14.00">coal*225360</text>
</g>
<!-- &#45;4,&#45;13 (Carbon activationer) -->
<g id="node4" class="node">
<title>&#45;4,&#45;13 (Carbon activationer)</title>
<ellipse fill="none" stroke="black" cx="1349.23" cy="-1433.51" rx="139.18" ry="18"/>
<text text-anchor="middle" x="1349.23" y="-1429.81" font-family="Times,serif" font-size="14.00">&#45;4,&#45;13 (Carbon activationer)</text>
</g>
<!-- 7,&#45;6 (Coalier &#39;n&#39; dustier)&#45;&gt;&#45;4,&#45;13 (Carbon activationer) -->
<g id="edge9" class="edge">
<title>7,&#45;6 (Coalier &#39;n&#39; dustier)&#45;&gt;&#45;4,&#45;13 (Carbon activationer)</title>
<path fill="none" stroke="black" stroke-width="0.58" d="M143.26,-471.79C292.82,-591.06 1146.96,-1272.21 1319.03,-1409.43"/>
<polygon fill="black" stroke="black" stroke-width="0.58" points="1316.92,-1412.23 1326.93,-1415.73 1321.29,-1406.76 1316.92,-1412.23"/>
<text text-anchor="middle" x="690.64" y="-944.41" font-family="Times,serif" font-size="14.00">coal*50080</text>
</g>
<!-- 0,0 (LE BUS) -->
<g id="node7" class="node">
<title>0,0 (LE BUS)</title>
<ellipse fill="none" stroke="black" cx="667.55" cy="-18" rx="71.49" ry="18"/>
<text text-anchor="middle" x="667.55" y="-14.3" font-family="Times,serif" font-size="14.00">0,0 (LE BUS)</text>
</g>
<!-- 7,&#45;6 (Coalier &#39;n&#39; dustier)&#45;&gt;0,0 (LE BUS) -->
<g id="edge7" class="edge">
<title>7,&#45;6 (Coalier &#39;n&#39; dustier)&#45;&gt;0,0 (LE BUS)</title>
<path fill="none" stroke="black" stroke-width="0.05" d="M143.34,-436.05C229.63,-367.23 540.01,-119.71 637.81,-41.71"/>
<polygon fill="black" stroke="black" stroke-width="0.05" points="640.18,-44.31 645.81,-35.33 635.81,-38.83 640.18,-44.31"/>
<text text-anchor="middle" x="354.58" y="-242.68" font-family="Times,serif" font-size="14.00">coal*4080</text>
</g>
<!-- 9,&#45;6 (Coal &#39;n&#39; dust) -->
<g id="node3" class="node">
<title>9,&#45;6 (Coal &#39;n&#39; dust)</title>
<ellipse fill="none" stroke="black" cx="120.89" cy="-1153.15" rx="95.58" ry="18"/>
<text text-anchor="middle" x="120.89" y="-1149.45" font-family="Times,serif" font-size="14.00">9,&#45;6 (Coal &#39;n&#39; dust)</text>
</g>
<!-- 9,&#45;6 (Coal &#39;n&#39; dust)&#45;&gt;1,7 (Activated Carbon) -->
<g id="edge4" class="edge">
<title>9,&#45;6 (Coal &#39;n&#39; dust)&#45;&gt;1,7 (Activated Carbon)</title>
<path fill="none" stroke="black" stroke-width="0.29" d="M142.99,-1135.53C291.8,-1016.86 1146.76,-335.05 1319,-197.7"/>
<polygon fill="black" stroke="black" stroke-width="0.29" points="1321.27,-200.36 1326.9,-191.39 1316.9,-194.89 1321.27,-200.36"/>
<text text-anchor="middle" x="690.49" y="-670.41" font-family="Times,serif" font-size="14.00">coal*25040</text>
</g>
<!-- 9,&#45;6 (Coal &#39;n&#39; dust)&#45;&gt;&#45;4,&#45;13 (Carbon activationer) -->
<g id="edge2" class="edge">
<title>9,&#45;6 (Coal &#39;n&#39; dust)&#45;&gt;&#45;4,&#45;13 (Carbon activationer)</title>
<path fill="none" stroke="black" stroke-width="1.44" d="M181.8,-1167.06C385.48,-1213.55 1042.77,-1363.57 1270.6,-1415.57"/>
<polygon fill="black" stroke="black" stroke-width="1.44" points="1269.95,-1419.01 1280.47,-1417.82 1271.5,-1412.18 1269.95,-1419.01"/>
<text text-anchor="middle" x="681.2" y="-1295.11" font-family="Times,serif" font-size="14.00">coal*125200</text>
</g>
<!-- &#45;2,0 (Glassware) -->
<g id="node6" class="node">
<title>&#45;2,0 (Glassware)</title>
<ellipse fill="none" stroke="black" cx="667.55" cy="-1589.1" rx="86.38" ry="18"/>
<text text-anchor="middle" x="667.55" y="-1585.4" font-family="Times,serif" font-size="14.00">&#45;2,0 (Glassware)</text>
</g>
<!-- 9,&#45;6 (Coal &#39;n&#39; dust)&#45;&gt;&#45;2,0 (Glassware) -->
<g id="edge11" class="edge">
<title>9,&#45;6 (Coal &#39;n&#39; dust)&#45;&gt;&#45;2,0 (Glassware)</title>
<path fill="none" stroke="black" stroke-width="0.58" d="M143,-1170.78C228.69,-1239.12 539.04,-1486.62 637.42,-1565.07"/>
<polygon fill="black" stroke="black" stroke-width="0.58" points="635.47,-1567.99 645.47,-1571.49 639.83,-1562.52 635.47,-1567.99"/>
<text text-anchor="middle" x="349.71" y="-1371.73" font-family="Times,serif" font-size="14.00">coal*50080</text>
</g>
<!-- &#45;5,&#45;1 (Coal and Coke and Syngas and Ash and Coke Oven Gas and...) -->
<g id="node5" class="node">
<title>&#45;5,&#45;1 (Coal and Coke and Syngas and Ash and Coke Oven Gas and...)</title>
<ellipse fill="none" stroke="black" cx="1652.6" cy="-803.55" rx="325.74" ry="18"/>
<text text-anchor="middle" x="1652.6" y="-799.85" font-family="Times,serif" font-size="14.00">&#45;5,&#45;1 (Coal and Coke and Syngas and Ash and Coke Oven Gas and...)</text>
</g>
<!-- &#45;5,&#45;1 (Coal and Coke and Syngas and Ash and Coke Oven Gas and...)&#45;&gt;1,7 (Activated Carbon) -->
<g id="edge5" class="edge">
<title>&#45;5,&#45;1 (Coal and Coke and Syngas and Ash and Coke Oven Gas and...)&#45;&gt;1,7 (Activated Carbon)</title>
<path fill="none" stroke="black" stroke-width="1.15" d="M1643.85,-785.38C1601.08,-696.56 1414.02,-308.14 1362.44,-201.03"/>
<polygon fill="black" stroke="black" stroke-width="1.15" points="1365.51,-199.33 1358.01,-191.84 1359.2,-202.36 1365.51,-199.33"/>
<text text-anchor="middle" x="1458.14" y="-497" font-family="Times,serif" font-size="14.00">coal*100160</text>
</g>
<!-- &#45;5,&#45;1 (Coal and Coke and Syngas and Ash and Coke Oven Gas and...)&#45;&gt;&#45;4,&#45;13 (Carbon activationer) -->
<g id="edge3" class="edge">
<title>&#45;5,&#45;1 (Coal and Coke and Syngas and Ash and Coke Oven Gas and...)&#45;&gt;&#45;4,&#45;13 (Carbon activationer)</title>
<path fill="none" stroke="black" stroke-width="2.88" d="M1643.85,-821.73C1601.08,-910.54 1414.02,-1298.96 1362.44,-1406.07"/>
<polygon fill="black" stroke="black" stroke-width="2.88" points="1359.2,-1404.74 1358.01,-1415.27 1365.51,-1407.78 1359.2,-1404.74"/>
<text text-anchor="middle" x="1458.14" y="-1117.7" font-family="Times,serif" font-size="14.00">coal*250400</text>
</g>
<!-- &#45;5,&#45;1 (Coal and Coke and Syngas and Ash and Coke Oven Gas and...)&#45;&gt;&#45;2,0 (Glassware) -->
<g id="edge6" class="edge">
<title>&#45;5,&#45;1 (Coal and Coke and Syngas and Ash and Coke Oven Gas and...)&#45;&gt;&#45;2,0 (Glassware)</title>
<path fill="none" stroke="black" stroke-width="0.86" d="M1629.7,-821.81C1498.72,-926.27 845.13,-1447.49 697.3,-1565.38"/>
<polygon fill="black" stroke="black" stroke-width="0.86" points="695.1,-1562.65 689.47,-1571.62 699.47,-1568.13 695.1,-1562.65"/>
<text text-anchor="middle" x="1123" y="-1197.39" font-family="Times,serif" font-size="14.00">coal*75120</text>
</g>
<!-- &#45;5,&#45;1 (Coal and Coke and Syngas and Ash and Coke Oven Gas and...)&#45;&gt;0,0 (LE BUS) -->
<g id="edge12" class="edge">
<title>&#45;5,&#45;1 (Coal and Coke and Syngas and Ash and Coke Oven Gas and...)&#45;&gt;0,0 (LE BUS)</title>
<path fill="none" stroke="black" stroke-width="0.02" d="M1629.7,-785.29C1498.72,-680.84 845.13,-159.61 697.3,-41.73"/>
<polygon fill="black" stroke="black" stroke-width="0.02" points="699.47,-38.98 689.47,-35.48 695.1,-44.45 699.47,-38.98"/>
<text text-anchor="middle" x="1127.5" y="-417.31" font-family="Times,serif" font-size="14.00">coal*2080</text>
</g>
<!-- 9,&#45;8 (Cyanic acid from coal) -->
<g id="node8" class="node">
<title>9,&#45;8 (Cyanic acid from coal)</title>
<ellipse fill="none" stroke="black" cx="1857.18" cy="-700.78" rx="137.58" ry="18"/>
<text text-anchor="middle" x="1857.18" y="-697.08" font-family="Times,serif" font-size="14.00">9,&#45;8 (Cyanic acid from coal)</text>
</g>
<!-- &#45;5,&#45;1 (Coal and Coke and Syngas and Ash and Coke Oven Gas and...)&#45;&gt;9,&#45;8 (Cyanic acid from coal) -->
<g id="edge8" class="edge">
<title>&#45;5,&#45;1 (Coal and Coke and Syngas and Ash and Coke Oven Gas and...)&#45;&gt;9,&#45;8 (Cyanic acid from coal)</title>
<path fill="none" stroke="black" stroke-width="1.21" d="M1688.23,-785.65C1722.96,-768.21 1775.82,-741.65 1813.16,-722.9"/>
<polygon fill="black" stroke="black" stroke-width="1.21" points="1814.93,-725.92 1822.29,-718.31 1811.78,-719.67 1814.93,-725.92"/>
<text text-anchor="middle" x="1705.69" y="-758.07" font-family="Times,serif" font-size="14.00">coal*105440</text>
</g>
<!-- &#45;1,7 (Rayon) -->
<g id="node9" class="node">
<title>&#45;1,7 (Rayon)</title>
<ellipse fill="none" stroke="black" cx="1847.55" cy="-976.49" rx="66.89" ry="18"/>
<text text-anchor="middle" x="1847.55" y="-972.79" font-family="Times,serif" font-size="14.00">&#45;1,7 (Rayon)</text>
</g>
<!-- &#45;5,&#45;1 (Coal and Coke and Syngas and Ash and Coke Oven Gas and...)&#45;&gt;&#45;1,7 (Rayon) -->
<g id="edge10" class="edge">
<title>&#45;5,&#45;1 (Coal and Coke and Syngas and Ash and Coke Oven Gas and...)&#45;&gt;&#45;1,7 (Rayon)</title>
<path fill="none" stroke="black" stroke-width="0.35" d="M1673.1,-821.73C1708.33,-852.98 1780.39,-916.91 1819.98,-952.03"/>
<polygon fill="black" stroke="black" stroke-width="0.35" points="1818.11,-955.05 1827.91,-959.07 1822.76,-949.81 1818.11,-955.05"/>
<text text-anchor="middle" x="1706.04" y="-890.68" font-family="Times,serif" font-size="14.00">coal*30240</text>
</g>
</g>
</svg>
