<?xml version="1.0" encoding="UTF-8" standalone="no"?>
<!DOCTYPE svg PUBLIC "-//W3C//DTD SVG 1.1//EN"
 "http://www.w3.org/Graphics/SVG/1.1/DTD/svg11.dtd">
<!-- Generated by graphviz version 2.43.0 (0)
 -->
<!-- Title: %3 Pages: 1 -->
<svg width="1066pt" height="44pt"
 viewBox="0.00 0.00 1066.47 44.00" xmlns="http://www.w3.org/2000/svg" xmlns:xlink="http://www.w3.org/1999/xlink">
<g id="graph0" class="graph" transform="scale(1 1) rotate(0) translate(4 40)">
<title>%3</title>
<polygon fill="white" stroke="transparent" points="-4,4 -4,-40 1062.47,-40 1062.47,4 -4,4"/>
<!-- 4,&#45;1 (Fluid) -->
<g id="node1" class="node">
<title>4,&#45;1 (Fluid)</title>
<ellipse fill="none" stroke="black" cx="613.4" cy="-18" rx="61.99" ry="18"/>
<text text-anchor="middle" x="613.4" y="-14.3" font-family="Times,serif" font-size="14.00">4,&#45;1 (Fluid)</text>
</g>
<!-- 0,0 (LE BUS) -->
<g id="node2" class="node">
<title>0,0 (LE BUS)</title>
<ellipse fill="none" stroke="black" cx="986.98" cy="-18" rx="71.49" ry="18"/>
<text text-anchor="middle" x="986.98" y="-14.3" font-family="Times,serif" font-size="14.00">0,0 (LE BUS)</text>
</g>
<!-- 4,&#45;1 (Fluid)&#45;&gt;0,0 (LE BUS) -->
<g id="edge1" class="edge">
<title>4,&#45;1 (Fluid)&#45;&gt;0,0 (LE BUS)</title>
<path fill="none" stroke="black" stroke-width="0.34" d="M675.51,-18C738.36,-18 835.88,-18 905.04,-18"/>
<polygon fill="black" stroke="black" stroke-width="0.34" points="905.46,-21.5 915.46,-18 905.46,-14.5 905.46,-21.5"/>
<text text-anchor="middle" x="790.27" y="-6.8" font-family="Times,serif" font-size="14.00">liquid&#45;nitrogen&#45;barrel*3363</text>
</g>
<!-- 3,5 (item=molybdenum&#45;plate Molybdenum plate) -->
<g id="node3" class="node">
<title>3,5 (item=molybdenum&#45;plate Molybdenum plate)</title>
<ellipse fill="none" stroke="black" cx="239.83" cy="-18" rx="239.66" ry="18"/>
<text text-anchor="middle" x="239.83" y="-14.3" font-family="Times,serif" font-size="14.00">3,5 (item=molybdenum&#45;plate Molybdenum plate)</text>
</g>
<!-- 4,&#45;1 (Fluid)&#45;&gt;3,5 (item=molybdenum&#45;plate Molybdenum plate) -->
<g id="edge2" class="edge">
<title>4,&#45;1 (Fluid)&#45;&gt;3,5 (item=molybdenum&#45;plate Molybdenum plate)</title>
<path fill="none" stroke="black" stroke-width="1.66" d="M551.29,-18C533.3,-18 512.47,-18 490.28,-18"/>
<polygon fill="black" stroke="black" stroke-width="1.66" points="489.99,-14.5 479.99,-18 489.99,-21.5 489.99,-14.5"/>
<text text-anchor="middle" x="623.79" y="-21.8" font-family="Times,serif" font-size="14.00">liquid&#45;nitrogen&#45;barrel*16352</text>
</g>
</g>
</svg>
