<?xml version="1.0" encoding="UTF-8" standalone="no"?>
<!DOCTYPE svg PUBLIC "-//W3C//DTD SVG 1.1//EN"
 "http://www.w3.org/Graphics/SVG/1.1/DTD/svg11.dtd">
<!-- Generated by graphviz version 2.43.0 (0)
 -->
<!-- Title: %3 Pages: 1 -->
<svg width="810pt" height="597pt"
 viewBox="0.00 0.00 809.63 597.46" xmlns="http://www.w3.org/2000/svg" xmlns:xlink="http://www.w3.org/1999/xlink">
<g id="graph0" class="graph" transform="scale(1 1) rotate(0) translate(4 593.46)">
<title>%3</title>
<polygon fill="white" stroke="transparent" points="-4,4 -4,-593.46 805.63,-593.46 805.63,4 -4,4"/>
<!-- 1,12 (Molten Iron) -->
<g id="node1" class="node">
<title>1,12 (Molten Iron)</title>
<ellipse fill="none" stroke="black" cx="311.72" cy="-300.16" rx="95.58" ry="18"/>
<text text-anchor="middle" x="311.72" y="-296.46" font-family="Times,serif" font-size="14.00">1,12 (Molten Iron)</text>
</g>
<!-- &#45;1,11 (Steel Plate (from molten)) -->
<g id="node2" class="node">
<title>&#45;1,11 (Steel Plate (from molten))</title>
<ellipse fill="none" stroke="black" cx="640.44" cy="-300.16" rx="161.37" ry="18"/>
<text text-anchor="middle" x="640.44" y="-296.46" font-family="Times,serif" font-size="14.00">&#45;1,11 (Steel Plate (from molten))</text>
</g>
<!-- 1,12 (Molten Iron)&#45;&gt;&#45;1,11 (Steel Plate (from molten)) -->
<g id="edge1" class="edge">
<title>1,12 (Molten Iron)&#45;&gt;&#45;1,11 (Steel Plate (from molten))</title>
<path fill="none" stroke="black" stroke-width="2.88" d="M407.68,-300.16C427.07,-300.16 448,-300.16 469.08,-300.16"/>
<polygon fill="black" stroke="black" stroke-width="2.88" points="469.11,-303.66 479.11,-300.16 469.11,-296.66 469.11,-303.66"/>
<text text-anchor="middle" x="438.38" y="-288.96" font-family="Times,serif" font-size="14.00">molten&#45;iron&#45;barrel*109444</text>
</g>
<!-- 6,3 (Things from molten) -->
<g id="node3" class="node">
<title>6,3 (Things from molten)</title>
<ellipse fill="none" stroke="black" cx="126.09" cy="-571.46" rx="126.18" ry="18"/>
<text text-anchor="middle" x="126.09" y="-567.76" font-family="Times,serif" font-size="14.00">6,3 (Things from molten)</text>
</g>
<!-- 1,12 (Molten Iron)&#45;&gt;6,3 (Things from molten) -->
<g id="edge2" class="edge">
<title>1,12 (Molten Iron)&#45;&gt;6,3 (Things from molten)</title>
<path fill="none" stroke="black" stroke-width="0.11" d="M299.25,-318.38C267.21,-365.2 181.92,-489.87 144.32,-544.82"/>
<polygon fill="black" stroke="black" stroke-width="0.11" points="141.26,-543.09 138.5,-553.32 147.04,-547.04 141.26,-543.09"/>
<text text-anchor="middle" x="134.78" y="-435.4" font-family="Times,serif" font-size="14.00">molten&#45;iron&#45;barrel*4092</text>
</g>
<!-- 2,1 (Niobium plates) -->
<g id="node4" class="node">
<title>2,1 (Niobium plates)</title>
<ellipse fill="none" stroke="black" cx="143.06" cy="-18" rx="105.88" ry="18"/>
<text text-anchor="middle" x="143.06" y="-14.3" font-family="Times,serif" font-size="14.00">2,1 (Niobium plates)</text>
</g>
<!-- 1,12 (Molten Iron)&#45;&gt;2,1 (Niobium plates) -->
<g id="edge3" class="edge">
<title>1,12 (Molten Iron)&#45;&gt;2,1 (Niobium plates)</title>
<path fill="none" stroke="black" stroke-width="0.01" d="M300.91,-282.08C272.05,-233.81 193.07,-101.68 159.02,-44.72"/>
<polygon fill="black" stroke="black" stroke-width="0.01" points="161.91,-42.72 153.77,-35.93 155.9,-46.31 161.91,-42.72"/>
<text text-anchor="middle" x="147.47" y="-167.2" font-family="Times,serif" font-size="14.00">molten&#45;iron&#45;barrel*544</text>
</g>
</g>
</svg>
