<?xml version="1.0" encoding="UTF-8" standalone="no"?>
<!DOCTYPE svg PUBLIC "-//W3C//DTD SVG 1.1//EN"
 "http://www.w3.org/Graphics/SVG/1.1/DTD/svg11.dtd">
<!-- Generated by graphviz version 2.43.0 (0)
 -->
<!-- Title: %3 Pages: 1 -->
<svg width="759pt" height="44pt"
 viewBox="0.00 0.00 759.05 44.00" xmlns="http://www.w3.org/2000/svg" xmlns:xlink="http://www.w3.org/1999/xlink">
<g id="graph0" class="graph" transform="scale(1 1) rotate(0) translate(4 40)">
<title>%3</title>
<polygon fill="white" stroke="transparent" points="-4,4 -4,-40 755.05,-40 755.05,4 -4,4"/>
<!-- &#45;1,&#45;2 (Aramid fiber) -->
<g id="node1" class="node">
<title>&#45;1,&#45;2 (Aramid fiber)</title>
<ellipse fill="none" stroke="black" cx="371.62" cy="-18" rx="99.38" ry="18"/>
<text text-anchor="middle" x="371.62" y="-14.3" font-family="Times,serif" font-size="14.00">&#45;1,&#45;2 (Aramid fiber)</text>
</g>
<!-- &#45;3,9 (Silicon Wafers) -->
<g id="node2" class="node">
<title>&#45;3,9 (Silicon Wafers)</title>
<ellipse fill="none" stroke="black" cx="647.06" cy="-18" rx="103.98" ry="18"/>
<text text-anchor="middle" x="647.06" y="-14.3" font-family="Times,serif" font-size="14.00">&#45;3,9 (Silicon Wafers)</text>
</g>
<!-- &#45;1,&#45;2 (Aramid fiber)&#45;&gt;&#45;3,9 (Silicon Wafers) -->
<g id="edge1" class="edge">
<title>&#45;1,&#45;2 (Aramid fiber)&#45;&gt;&#45;3,9 (Silicon Wafers)</title>
<path fill="none" stroke="black" stroke-width="1.2" d="M471.45,-18C491.34,-18 512.37,-18 532.7,-18"/>
<polygon fill="black" stroke="black" stroke-width="1.2" points="532.93,-21.5 542.93,-18 532.93,-14.5 532.93,-21.5"/>
<text text-anchor="middle" x="502.07" y="-6.8" font-family="Times,serif" font-size="14.00">aramid*15168</text>
</g>
<!-- &#45;5,2 (Optical fiber) -->
<g id="node3" class="node">
<title>&#45;5,2 (Optical fiber)</title>
<ellipse fill="none" stroke="black" cx="96.19" cy="-18" rx="96.38" ry="18"/>
<text text-anchor="middle" x="96.19" y="-14.3" font-family="Times,serif" font-size="14.00">&#45;5,2 (Optical fiber)</text>
</g>
<!-- &#45;1,&#45;2 (Aramid fiber)&#45;&gt;&#45;5,2 (Optical fiber) -->
<g id="edge2" class="edge">
<title>&#45;1,&#45;2 (Aramid fiber)&#45;&gt;&#45;5,2 (Optical fiber)</title>
<path fill="none" stroke="black" stroke-width="0.8" d="M271.8,-18C249.27,-18 225.27,-18 202.48,-18"/>
<polygon fill="black" stroke="black" stroke-width="0.8" points="202.46,-14.5 192.46,-18 202.46,-21.5 202.46,-14.5"/>
<text text-anchor="middle" x="237.14" y="-6.8" font-family="Times,serif" font-size="14.00">aramid*10016</text>
</g>
</g>
</svg>
