<?xml version="1.0" encoding="UTF-8" standalone="no"?>
<!DOCTYPE svg PUBLIC "-//W3C//DTD SVG 1.1//EN"
 "http://www.w3.org/Graphics/SVG/1.1/DTD/svg11.dtd">
<!-- Generated by graphviz version 2.43.0 (0)
 -->
<!-- Title: %3 Pages: 1 -->
<svg width="2033pt" height="1511pt"
 viewBox="0.00 0.00 2033.21 1510.62" xmlns="http://www.w3.org/2000/svg" xmlns:xlink="http://www.w3.org/1999/xlink">
<g id="graph0" class="graph" transform="scale(1 1) rotate(0) translate(4 1506.62)">
<title>%3</title>
<polygon fill="white" stroke="transparent" points="-4,4 -4,-1506.62 2029.21,-1506.62 2029.21,4 -4,4"/>
<!-- 1,6 (Sodium Hydroxide, These new bullets are fun, Limestone) -->
<g id="node1" class="node">
<title>1,6 (Sodium Hydroxide, These new bullets are fun, Limestone)</title>
<ellipse fill="none" stroke="black" cx="301.57" cy="-1077.67" rx="301.65" ry="18"/>
<text text-anchor="middle" x="301.57" y="-1073.97" font-family="Times,serif" font-size="14.00">1,6 (Sodium Hydroxide, These new bullets are fun, Limestone)</text>
</g>
<!-- 1,7 (Activated Carbon) -->
<g id="node2" class="node">
<title>1,7 (Activated Carbon)</title>
<ellipse fill="none" stroke="black" cx="301.57" cy="-424.96" rx="115.88" ry="18"/>
<text text-anchor="middle" x="301.57" y="-421.26" font-family="Times,serif" font-size="14.00">1,7 (Activated Carbon)</text>
</g>
<!-- 1,6 (Sodium Hydroxide, These new bullets are fun, Limestone)&#45;&gt;1,7 (Activated Carbon) -->
<g id="edge1" class="edge">
<title>1,6 (Sodium Hydroxide, These new bullets are fun, Limestone)&#45;&gt;1,7 (Activated Carbon)</title>
<path fill="none" stroke="black" stroke-width="3.57" d="M301.57,-1059.53C301.57,-968.77 301.57,-563.9 301.57,-453.08"/>
<polygon fill="black" stroke="black" stroke-width="3.57" points="305.07,-453.01 301.57,-443.01 298.07,-453.01 305.07,-453.01"/>
<text text-anchor="middle" x="207.07" y="-760.1" font-family="Times,serif" font-size="14.00">sodium&#45;hydroxide*113850</text>
</g>
<!-- 4,1 (item=filtration&#45;media Filtration Media) -->
<g id="node4" class="node">
<title>4,1 (item=filtration&#45;media Filtration Media)</title>
<ellipse fill="none" stroke="black" cx="1448.23" cy="-163.24" rx="214.46" ry="18"/>
<text text-anchor="middle" x="1448.23" y="-159.54" font-family="Times,serif" font-size="14.00">4,1 (item=filtration&#45;media Filtration Media)</text>
</g>
<!-- 1,6 (Sodium Hydroxide, These new bullets are fun, Limestone)&#45;&gt;4,1 (item=filtration&#45;media Filtration Media) -->
<g id="edge4" class="edge">
<title>1,6 (Sodium Hydroxide, These new bullets are fun, Limestone)&#45;&gt;4,1 (item=filtration&#45;media Filtration Media)</title>
<path fill="none" stroke="black" stroke-width="1.17" d="M324.22,-1059.61C467.88,-945.04 1251.64,-320.01 1417.42,-187.81"/>
<polygon fill="black" stroke="black" stroke-width="1.17" points="1420.08,-190.16 1425.71,-181.19 1415.71,-184.69 1420.08,-190.16"/>
<text text-anchor="middle" x="780.82" y="-627.51" font-family="Times,serif" font-size="14.00">sodium&#45;hydroxide*37236</text>
</g>
<!-- &#45;3,1 (Logistic science pack, Automation Science) -->
<g id="node7" class="node">
<title>&#45;3,1 (Logistic science pack, Automation Science)</title>
<ellipse fill="none" stroke="black" cx="811.88" cy="-1484.62" rx="233.96" ry="18"/>
<text text-anchor="middle" x="811.88" y="-1480.92" font-family="Times,serif" font-size="14.00">&#45;3,1 (Logistic science pack, Automation Science)</text>
</g>
<!-- 1,6 (Sodium Hydroxide, These new bullets are fun, Limestone)&#45;&gt;&#45;3,1 (Logistic science pack, Automation Science) -->
<g id="edge11" class="edge">
<title>1,6 (Sodium Hydroxide, These new bullets are fun, Limestone)&#45;&gt;&#45;3,1 (Logistic science pack, Automation Science)</title>
<path fill="none" stroke="black" stroke-width="0.03" d="M324.16,-1095.68C406.08,-1161 687.65,-1385.55 781.31,-1460.25"/>
<polygon fill="black" stroke="black" stroke-width="0.03" points="779.27,-1463.09 789.27,-1466.59 783.63,-1457.62 779.27,-1463.09"/>
<text text-anchor="middle" x="467.24" y="-1281.76" font-family="Times,serif" font-size="14.00">sodium&#45;hydroxide*1008</text>
</g>
<!-- &#45;1,&#45;2 (Aramid fiber) -->
<g id="node10" class="node">
<title>&#45;1,&#45;2 (Aramid fiber)</title>
<ellipse fill="none" stroke="black" cx="1448.23" cy="-1339.38" rx="99.38" ry="18"/>
<text text-anchor="middle" x="1448.23" y="-1335.68" font-family="Times,serif" font-size="14.00">&#45;1,&#45;2 (Aramid fiber)</text>
</g>
<!-- 1,6 (Sodium Hydroxide, These new bullets are fun, Limestone)&#45;&gt;&#45;1,&#45;2 (Aramid fiber) -->
<g id="edge12" class="edge">
<title>1,6 (Sodium Hydroxide, These new bullets are fun, Limestone)&#45;&gt;&#45;1,&#45;2 (Aramid fiber)</title>
<path fill="none" stroke="black" stroke-width="0.08" d="M378.14,-1095.14C588.22,-1143.09 1171.56,-1276.23 1376.17,-1322.94"/>
<polygon fill="black" stroke="black" stroke-width="0.08" points="1375.68,-1326.41 1386.21,-1325.23 1377.24,-1319.59 1375.68,-1326.41"/>
<text text-anchor="middle" x="791.66" y="-1212.84" font-family="Times,serif" font-size="14.00">sodium&#45;hydroxide*2560</text>
</g>
<!-- 4,4 (Hydrogen Chloride, item=nylon Nylon/Nylon parts) -->
<g id="node3" class="node">
<title>4,4 (Hydrogen Chloride, item=nylon Nylon/Nylon parts)</title>
<ellipse fill="none" stroke="black" cx="1731.43" cy="-751.31" rx="271.05" ry="18"/>
<text text-anchor="middle" x="1731.43" y="-747.61" font-family="Times,serif" font-size="14.00">4,4 (Hydrogen Chloride, item=nylon Nylon/Nylon parts)</text>
</g>
<!-- 4,4 (Hydrogen Chloride, item=nylon Nylon/Nylon parts)&#45;&gt;1,7 (Activated Carbon) -->
<g id="edge5" class="edge">
<title>4,4 (Hydrogen Chloride, item=nylon Nylon/Nylon parts)&#45;&gt;1,7 (Activated Carbon)</title>
<path fill="none" stroke="black" stroke-width="4.48" d="M1655.56,-734C1407.7,-677.42 623.58,-498.45 376.74,-442.11"/>
<polygon fill="black" stroke="black" stroke-width="4.48" points="377.41,-438.24 366.79,-439.84 375.66,-445.89 377.41,-438.24"/>
<text text-anchor="middle" x="921.65" y="-591.85" font-family="Times,serif" font-size="14.00">sodium&#45;hydroxide*143168</text>
</g>
<!-- 4,4 (Hydrogen Chloride, item=nylon Nylon/Nylon parts)&#45;&gt;4,1 (item=filtration&#45;media Filtration Media) -->
<g id="edge2" class="edge">
<title>4,4 (Hydrogen Chloride, item=nylon Nylon/Nylon parts)&#45;&gt;4,1 (item=filtration&#45;media Filtration Media)</title>
<path fill="none" stroke="black" stroke-width="1.88" d="M1722.64,-733.07C1681.8,-648.26 1510.44,-292.43 1461.39,-190.58"/>
<polygon fill="black" stroke="black" stroke-width="1.88" points="1464.4,-188.76 1456.91,-181.27 1458.09,-191.8 1464.4,-188.76"/>
<text text-anchor="middle" x="1502.02" y="-465.63" font-family="Times,serif" font-size="14.00">sodium&#45;hydroxide*60096</text>
</g>
<!-- 4,12 (Molten Glass) -->
<g id="node6" class="node">
<title>4,12 (Molten Glass)</title>
<ellipse fill="none" stroke="black" cx="1880.12" cy="-499.81" rx="102.08" ry="18"/>
<text text-anchor="middle" x="1880.12" y="-496.11" font-family="Times,serif" font-size="14.00">4,12 (Molten Glass)</text>
</g>
<!-- 4,4 (Hydrogen Chloride, item=nylon Nylon/Nylon parts)&#45;&gt;4,12 (Molten Glass) -->
<g id="edge6" class="edge">
<title>4,4 (Hydrogen Chloride, item=nylon Nylon/Nylon parts)&#45;&gt;4,12 (Molten Glass)</title>
<path fill="none" stroke="black" stroke-width="0.79" d="M1742.12,-733.22C1767.95,-689.54 1833.84,-578.09 1864.27,-526.62"/>
<polygon fill="black" stroke="black" stroke-width="0.79" points="1867.44,-528.12 1869.52,-517.74 1861.42,-524.56 1867.44,-528.12"/>
<text text-anchor="middle" x="1713.19" y="-633.72" font-family="Times,serif" font-size="14.00">sodium&#45;hydroxide*25280</text>
</g>
<!-- 4,4 (Hydrogen Chloride, item=nylon Nylon/Nylon parts)&#45;&gt;&#45;3,1 (Logistic science pack, Automation Science) -->
<g id="edge8" class="edge">
<title>4,4 (Hydrogen Chloride, item=nylon Nylon/Nylon parts)&#45;&gt;&#45;3,1 (Logistic science pack, Automation Science)</title>
<path fill="none" stroke="black" stroke-width="0.03" d="M1708.7,-769.44C1584.23,-868.7 985.69,-1346.01 842.64,-1460.09"/>
<polygon fill="black" stroke="black" stroke-width="0.03" points="840.28,-1457.5 834.64,-1466.47 844.64,-1462.98 840.28,-1457.5"/>
<text text-anchor="middle" x="1190.17" y="-1118.57" font-family="Times,serif" font-size="14.00">sodium&#45;hydroxide*1008</text>
</g>
<!-- 4,2 (More fiberboard) -->
<g id="node8" class="node">
<title>4,2 (More fiberboard)</title>
<ellipse fill="none" stroke="black" cx="1914.07" cy="-781.85" rx="111.28" ry="18"/>
<text text-anchor="middle" x="1914.07" y="-778.15" font-family="Times,serif" font-size="14.00">4,2 (More fiberboard)</text>
</g>
<!-- 4,4 (Hydrogen Chloride, item=nylon Nylon/Nylon parts)&#45;&gt;4,2 (More fiberboard) -->
<g id="edge9" class="edge">
<title>4,4 (Hydrogen Chloride, item=nylon Nylon/Nylon parts)&#45;&gt;4,2 (More fiberboard)</title>
<path fill="none" stroke="black" stroke-width="0.13" d="M1831.56,-768.06C1831.67,-768.07 1831.77,-768.09 1831.87,-768.11"/>
<polygon fill="black" stroke="black" stroke-width="0.13" points="1826.09,-770.69 1836.53,-768.89 1827.25,-763.79 1826.09,-770.69"/>
<text text-anchor="middle" x="1746.22" y="-771.88" font-family="Times,serif" font-size="14.00">sodium&#45;hydroxide*4096</text>
</g>
<!-- 0,0 (LE BUS) -->
<g id="node9" class="node">
<title>0,0 (LE BUS)</title>
<ellipse fill="none" stroke="black" cx="1871.42" cy="-1032.09" rx="71.49" ry="18"/>
<text text-anchor="middle" x="1871.42" y="-1028.39" font-family="Times,serif" font-size="14.00">0,0 (LE BUS)</text>
</g>
<!-- 4,4 (Hydrogen Chloride, item=nylon Nylon/Nylon parts)&#45;&gt;0,0 (LE BUS) -->
<g id="edge10" class="edge">
<title>4,4 (Hydrogen Chloride, item=nylon Nylon/Nylon parts)&#45;&gt;0,0 (LE BUS)</title>
<path fill="none" stroke="black" stroke-width="0.13" d="M1740.4,-769.3C1764.24,-817.13 1829.32,-947.66 1857.79,-1004.75"/>
<polygon fill="black" stroke="black" stroke-width="0.13" points="1854.75,-1006.5 1862.35,-1013.89 1861.02,-1003.38 1854.75,-1006.5"/>
<text text-anchor="middle" x="1713.59" y="-890.83" font-family="Times,serif" font-size="14.00">sodium&#45;hydroxide*4096</text>
</g>
<!-- 4,4 (Hydrogen Chloride, item=nylon Nylon/Nylon parts)&#45;&gt;&#45;1,&#45;2 (Aramid fiber) -->
<g id="edge13" class="edge">
<title>4,4 (Hydrogen Chloride, item=nylon Nylon/Nylon parts)&#45;&gt;&#45;1,&#45;2 (Aramid fiber)</title>
<path fill="none" stroke="black" stroke-width="0.16" d="M1722.64,-769.56C1681.8,-854.36 1510.44,-1210.19 1461.39,-1312.04"/>
<polygon fill="black" stroke="black" stroke-width="0.16" points="1458.09,-1310.82 1456.91,-1321.35 1464.4,-1313.86 1458.09,-1310.82"/>
<text text-anchor="middle" x="1506.52" y="-1044.6" font-family="Times,serif" font-size="14.00">sodium&#45;hydroxide*5040</text>
</g>
<!-- 3,11 (Sap, Sodium Hydroxide) -->
<g id="node5" class="node">
<title>3,11 (Sap, Sodium Hydroxide)</title>
<ellipse fill="none" stroke="black" cx="811.88" cy="-18" rx="150.57" ry="18"/>
<text text-anchor="middle" x="811.88" y="-14.3" font-family="Times,serif" font-size="14.00">3,11 (Sap, Sodium Hydroxide)</text>
</g>
<!-- 3,11 (Sap, Sodium Hydroxide)&#45;&gt;1,7 (Activated Carbon) -->
<g id="edge3" class="edge">
<title>3,11 (Sap, Sodium Hydroxide)&#45;&gt;1,7 (Activated Carbon)</title>
<path fill="none" stroke="black" stroke-width="0.39" d="M789.3,-36.01C707.28,-101.41 425.16,-326.4 331.82,-400.83"/>
<polygon fill="black" stroke="black" stroke-width="0.39" points="329.53,-398.18 323.9,-407.15 333.9,-403.66 329.53,-398.18"/>
<text text-anchor="middle" x="470.56" y="-222.22" font-family="Times,serif" font-size="14.00">sodium&#45;hydroxide*12528</text>
</g>
<!-- 3,11 (Sap, Sodium Hydroxide)&#45;&gt;4,1 (item=filtration&#45;media Filtration Media) -->
<g id="edge7" class="edge">
<title>3,11 (Sap, Sodium Hydroxide)&#45;&gt;4,1 (item=filtration&#45;media Filtration Media)</title>
<path fill="none" stroke="black" stroke-width="0.16" d="M881.8,-33.96C999.53,-60.83 1236.85,-115 1363.71,-143.95"/>
<polygon fill="black" stroke="black" stroke-width="0.16" points="1363.25,-147.44 1373.77,-146.25 1364.8,-140.61 1363.25,-147.44"/>
<text text-anchor="middle" x="1037.26" y="-92.76" font-family="Times,serif" font-size="14.00">sodium&#45;hydroxide*5184</text>
</g>
</g>
</svg>
