<?xml version="1.0" encoding="UTF-8" standalone="no"?>
<!DOCTYPE svg PUBLIC "-//W3C//DTD SVG 1.1//EN"
 "http://www.w3.org/Graphics/SVG/1.1/DTD/svg11.dtd">
<!-- Generated by graphviz version 2.43.0 (0)
 -->
<!-- Title: %3 Pages: 1 -->
<svg width="1677pt" height="892pt"
 viewBox="0.00 0.00 1676.84 892.39" xmlns="http://www.w3.org/2000/svg" xmlns:xlink="http://www.w3.org/1999/xlink">
<g id="graph0" class="graph" transform="scale(1 1) rotate(0) translate(4 888.39)">
<title>%3</title>
<polygon fill="white" stroke="transparent" points="-4,4 -4,-888.39 1672.84,-888.39 1672.84,4 -4,4"/>
<!-- &#45;5,&#45;4 (low priority (slaked)? lime) -->
<g id="node1" class="node">
<title>&#45;5,&#45;4 (low priority (slaked)? lime)</title>
<ellipse fill="none" stroke="black" cx="162.49" cy="-442.2" rx="162.47" ry="18"/>
<text text-anchor="middle" x="162.49" y="-438.5" font-family="Times,serif" font-size="14.00">&#45;5,&#45;4 (low priority (slaked)? lime)</text>
</g>
<!-- &#45;3,5 (fluid=arqad&#45;honey Honey) -->
<g id="node2" class="node">
<title>&#45;3,5 (fluid=arqad&#45;honey Honey)</title>
<ellipse fill="none" stroke="black" cx="1117.61" cy="-442.2" rx="157.07" ry="18"/>
<text text-anchor="middle" x="1117.61" y="-438.5" font-family="Times,serif" font-size="14.00">&#45;3,5 (fluid=arqad&#45;honey Honey)</text>
</g>
<!-- &#45;5,&#45;4 (low priority (slaked)? lime)&#45;&gt;&#45;3,5 (fluid=arqad&#45;honey Honey) -->
<g id="edge1" class="edge">
<title>&#45;5,&#45;4 (low priority (slaked)? lime)&#45;&gt;&#45;3,5 (fluid=arqad&#45;honey Honey)</title>
<path fill="none" stroke="black" stroke-width="0.79" d="M325.05,-442.2C499.13,-442.2 774.02,-442.2 950.01,-442.2"/>
<polygon fill="black" stroke="black" stroke-width="0.79" points="950.15,-445.7 960.15,-442.2 950.15,-438.7 950.15,-445.7"/>
<text text-anchor="middle" x="557.53" y="-446" font-family="Times,serif" font-size="14.00">acetylene&#45;barrel*7962</text>
</g>
<!-- &#45;2,6 (Wrong ratio of Calcium Carbide to Acetalene) -->
<g id="node3" class="node">
<title>&#45;2,6 (Wrong ratio of Calcium Carbide to Acetalene)</title>
<ellipse fill="none" stroke="black" cx="903.96" cy="-18" rx="245.86" ry="18"/>
<text text-anchor="middle" x="903.96" y="-14.3" font-family="Times,serif" font-size="14.00">&#45;2,6 (Wrong ratio of Calcium Carbide to Acetalene)</text>
</g>
<!-- &#45;2,6 (Wrong ratio of Calcium Carbide to Acetalene)&#45;&gt;&#45;3,5 (fluid=arqad&#45;honey Honey) -->
<g id="edge2" class="edge">
<title>&#45;2,6 (Wrong ratio of Calcium Carbide to Acetalene)&#45;&gt;&#45;3,5 (fluid=arqad&#45;honey Honey)</title>
<path fill="none" stroke="black" stroke-width="1.42" d="M913.14,-36.23C946.83,-103.13 1063.81,-335.38 1103.96,-415.09"/>
<polygon fill="black" stroke="black" stroke-width="1.42" points="1100.84,-416.68 1108.47,-424.04 1107.09,-413.53 1100.84,-416.68"/>
<text text-anchor="middle" x="924.05" y="-229.46" font-family="Times,serif" font-size="14.00">acetylene&#45;barrel*14368</text>
</g>
<!-- &#45;6,5 (Acetelyne) -->
<g id="node4" class="node">
<title>&#45;6,5 (Acetelyne)</title>
<ellipse fill="none" stroke="black" cx="1585.65" cy="-523.04" rx="83.39" ry="18"/>
<text text-anchor="middle" x="1585.65" y="-519.34" font-family="Times,serif" font-size="14.00">&#45;6,5 (Acetelyne)</text>
</g>
<!-- &#45;6,5 (Acetelyne)&#45;&gt;&#45;3,5 (fluid=arqad&#45;honey Honey) -->
<g id="edge3" class="edge">
<title>&#45;6,5 (Acetelyne)&#45;&gt;&#45;3,5 (fluid=arqad&#45;honey Honey)</title>
<path fill="none" stroke="black" stroke-width="1.55" d="M1520.57,-511.8C1441.28,-498.11 1306.59,-474.84 1214.95,-459.01"/>
<polygon fill="black" stroke="black" stroke-width="1.55" points="1215.28,-455.52 1204.83,-457.26 1214.09,-462.41 1215.28,-455.52"/>
<text text-anchor="middle" x="1283.26" y="-489.21" font-family="Times,serif" font-size="14.00">acetylene&#45;barrel*15616</text>
</g>
<!-- &#45;5,1 (Acetylene) -->
<g id="node5" class="node">
<title>&#45;5,1 (Acetylene)</title>
<ellipse fill="none" stroke="black" cx="903.96" cy="-866.39" rx="83.39" ry="18"/>
<text text-anchor="middle" x="903.96" y="-862.69" font-family="Times,serif" font-size="14.00">&#45;5,1 (Acetylene)</text>
</g>
<!-- &#45;5,1 (Acetylene)&#45;&gt;&#45;3,5 (fluid=arqad&#45;honey Honey) -->
<g id="edge4" class="edge">
<title>&#45;5,1 (Acetylene)&#45;&gt;&#45;3,5 (fluid=arqad&#45;honey Honey)</title>
<path fill="none" stroke="black" stroke-width="0.24" d="M913,-848.44C946.51,-781.91 1063.7,-549.23 1103.93,-469.36"/>
<polygon fill="black" stroke="black" stroke-width="0.24" points="1107.08,-470.9 1108.45,-460.39 1100.82,-467.75 1107.08,-470.9"/>
<text text-anchor="middle" x="928.47" y="-662.7" font-family="Times,serif" font-size="14.00">acetylene&#45;barrel*2464</text>
</g>
</g>
</svg>
