<?xml version="1.0" encoding="UTF-8" standalone="no"?>
<!DOCTYPE svg PUBLIC "-//W3C//DTD SVG 1.1//EN"
 "http://www.w3.org/Graphics/SVG/1.1/DTD/svg11.dtd">
<!-- Generated by graphviz version 2.43.0 (0)
 -->
<!-- Title: %3 Pages: 1 -->
<svg width="3023pt" height="2551pt"
 viewBox="0.00 0.00 3023.33 2550.59" xmlns="http://www.w3.org/2000/svg" xmlns:xlink="http://www.w3.org/1999/xlink">
<g id="graph0" class="graph" transform="scale(1 1) rotate(0) translate(4 2546.59)">
<title>%3</title>
<polygon fill="white" stroke="transparent" points="-4,4 -4,-2546.59 3019.33,-2546.59 3019.33,4 -4,4"/>
<!-- &#45;5,&#45;1 (Coal and Coke and Syngas and Ash and Coke Oven Gas and...) -->
<g id="node1" class="node">
<title>&#45;5,&#45;1 (Coal and Coke and Syngas and Ash and Coke Oven Gas and...)</title>
<ellipse fill="none" stroke="black" cx="2689.71" cy="-1271.3" rx="325.74" ry="18"/>
<text text-anchor="middle" x="2689.71" y="-1267.6" font-family="Times,serif" font-size="14.00">&#45;5,&#45;1 (Coal and Coke and Syngas and Ash and Coke Oven Gas and...)</text>
</g>
<!-- 0,0 (LE BUS) -->
<g id="node2" class="node">
<title>0,0 (LE BUS)</title>
<ellipse fill="none" stroke="black" cx="208.63" cy="-1628.02" rx="71.49" ry="18"/>
<text text-anchor="middle" x="208.63" y="-1624.32" font-family="Times,serif" font-size="14.00">0,0 (LE BUS)</text>
</g>
<!-- &#45;5,&#45;1 (Coal and Coke and Syngas and Ash and Coke Oven Gas and...)&#45;&gt;0,0 (LE BUS) -->
<g id="edge1" class="edge">
<title>&#45;5,&#45;1 (Coal and Coke and Syngas and Ash and Coke Oven Gas and...)&#45;&gt;0,0 (LE BUS)</title>
<path fill="none" stroke="black" stroke-width="4.62" d="M2572.54,-1288.14C2138.46,-1350.55 629,-1567.58 280.71,-1617.66"/>
<polygon fill="black" stroke="black" stroke-width="4.62" points="280.07,-1613.66 270.75,-1619.09 281.23,-1621.67 280.07,-1613.66"/>
<text text-anchor="middle" x="1351.63" y="-1456.7" font-family="Times,serif" font-size="14.00">syngas&#45;barrel*11856</text>
</g>
<!-- 2,6 (Refined Syngas) -->
<g id="node3" class="node">
<title>2,6 (Refined Syngas)</title>
<ellipse fill="none" stroke="black" cx="594.35" cy="-2228.21" rx="107.48" ry="18"/>
<text text-anchor="middle" x="594.35" y="-2224.51" font-family="Times,serif" font-size="14.00">2,6 (Refined Syngas)</text>
</g>
<!-- &#45;5,&#45;1 (Coal and Coke and Syngas and Ash and Coke Oven Gas and...)&#45;&gt;2,6 (Refined Syngas) -->
<g id="edge2" class="edge">
<title>&#45;5,&#45;1 (Coal and Coke and Syngas and Ash and Coke Oven Gas and...)&#45;&gt;2,6 (Refined Syngas)</title>
<path fill="none" stroke="black" stroke-width="2.53" d="M2650.18,-1289.35C2389.78,-1408.27 922.2,-2078.49 640.95,-2206.93"/>
<polygon fill="black" stroke="black" stroke-width="2.53" points="639.1,-2203.93 631.45,-2211.27 642,-2210.3 639.1,-2203.93"/>
<text text-anchor="middle" x="1575.07" y="-1751.94" font-family="Times,serif" font-size="14.00">syngas&#45;barrel*6480</text>
</g>
<!-- 3,1 (Mining Brick) -->
<g id="node4" class="node">
<title>3,1 (Mining Brick)</title>
<ellipse fill="none" stroke="black" cx="594.35" cy="-314.38" rx="94.78" ry="18"/>
<text text-anchor="middle" x="594.35" y="-310.68" font-family="Times,serif" font-size="14.00">3,1 (Mining Brick)</text>
</g>
<!-- &#45;5,&#45;1 (Coal and Coke and Syngas and Ash and Coke Oven Gas and...)&#45;&gt;3,1 (Mining Brick) -->
<g id="edge17" class="edge">
<title>&#45;5,&#45;1 (Coal and Coke and Syngas and Ash and Coke Oven Gas and...)&#45;&gt;3,1 (Mining Brick)</title>
<path fill="none" stroke="black" stroke-width="2.12" d="M2650.18,-1253.24C2389.64,-1134.26 920.63,-463.39 640.5,-335.45"/>
<polygon fill="black" stroke="black" stroke-width="2.12" points="641.59,-332.11 631.04,-331.13 638.69,-338.47 641.59,-332.11"/>
<text text-anchor="middle" x="1574.84" y="-798.15" font-family="Times,serif" font-size="14.00">syngas&#45;barrel*5440</text>
</g>
<!-- &#45;2,7 (item=borax Borax) -->
<g id="node7" class="node">
<title>&#45;2,7 (item=borax Borax)</title>
<ellipse fill="none" stroke="black" cx="1243.33" cy="-18" rx="123.48" ry="18"/>
<text text-anchor="middle" x="1243.33" y="-14.3" font-family="Times,serif" font-size="14.00">&#45;2,7 (item=borax Borax)</text>
</g>
<!-- &#45;5,&#45;1 (Coal and Coke and Syngas and Ash and Coke Oven Gas and...)&#45;&gt;&#45;2,7 (item=borax Borax) -->
<g id="edge7" class="edge">
<title>&#45;5,&#45;1 (Coal and Coke and Syngas and Ash and Coke Oven Gas and...)&#45;&gt;&#45;2,7 (item=borax Borax)</title>
<path fill="none" stroke="black" stroke-width="1.4" d="M2668.7,-1253.1C2506.79,-1112.8 1458.54,-204.48 1271.77,-42.65"/>
<polygon fill="black" stroke="black" stroke-width="1.4" points="1273.87,-39.83 1264.02,-35.93 1269.28,-45.12 1273.87,-39.83"/>
<text text-anchor="middle" x="1899.74" y="-651.67" font-family="Times,serif" font-size="14.00">syngas&#45;barrel*3584</text>
</g>
<!-- 4,0 (item=raw&#45;borax item=borax Borax and raw borax) -->
<g id="node8" class="node">
<title>4,0 (item=raw&#45;borax item=borax Borax and raw borax)</title>
<ellipse fill="none" stroke="black" cx="1949.52" cy="-2423.06" rx="268.35" ry="18"/>
<text text-anchor="middle" x="1949.52" y="-2419.36" font-family="Times,serif" font-size="14.00">4,0 (item=raw&#45;borax item=borax Borax and raw borax)</text>
</g>
<!-- &#45;5,&#45;1 (Coal and Coke and Syngas and Ash and Coke Oven Gas and...)&#45;&gt;4,0 (item=raw&#45;borax item=borax Borax and raw borax) -->
<g id="edge8" class="edge">
<title>&#45;5,&#45;1 (Coal and Coke and Syngas and Ash and Coke Oven Gas and...)&#45;&gt;4,0 (item=raw&#45;borax item=borax Borax and raw borax)</title>
<path fill="none" stroke="black" stroke-width="1.36" d="M2678.08,-1289.39C2593.15,-1421.55 2068.72,-2237.57 1966.71,-2396.31"/>
<polygon fill="black" stroke="black" stroke-width="1.36" points="1963.58,-2394.7 1961.12,-2405 1969.47,-2398.48 1963.58,-2394.7"/>
<text text-anchor="middle" x="2251.89" y="-1846.65" font-family="Times,serif" font-size="14.00">syngas&#45;barrel*3488</text>
</g>
<!-- 4,&#45;2 (Ceramic) -->
<g id="node10" class="node">
<title>4,&#45;2 (Ceramic)</title>
<ellipse fill="none" stroke="black" cx="2838.4" cy="-1271.3" rx="76.89" ry="18"/>
<text text-anchor="middle" x="2838.4" y="-1267.6" font-family="Times,serif" font-size="14.00">4,&#45;2 (Ceramic)</text>
</g>
<!-- &#45;5,&#45;1 (Coal and Coke and Syngas and Ash and Coke Oven Gas and...)&#45;&gt;4,&#45;2 (Ceramic) -->
<g id="edge13" class="edge">
<title>&#45;5,&#45;1 (Coal and Coke and Syngas and Ash and Coke Oven Gas and...)&#45;&gt;4,&#45;2 (Ceramic)</title>
<path fill="none" stroke="black" stroke-width="0.26" d="M2838.29,-1271.3C2838.31,-1271.3 2838.33,-1271.3 2838.34,-1271.3"/>
<polygon fill="black" stroke="black" stroke-width="0.26" points="2828.39,-1274.82 2838.37,-1271.3 2828.36,-1267.82 2828.39,-1274.82"/>
<text text-anchor="middle" x="2772.32" y="-1275.1" font-family="Times,serif" font-size="14.00">syngas&#45;barrel*672</text>
</g>
<!-- 2,&#45;2 (Tin Plate, Organic Solvent) -->
<g id="node12" class="node">
<title>2,&#45;2 (Tin Plate, Organic Solvent)</title>
<ellipse fill="none" stroke="black" cx="2488.71" cy="-586.75" rx="159.77" ry="18"/>
<text text-anchor="middle" x="2488.71" y="-583.05" font-family="Times,serif" font-size="14.00">2,&#45;2 (Tin Plate, Organic Solvent)</text>
</g>
<!-- &#45;5,&#45;1 (Coal and Coke and Syngas and Ash and Coke Oven Gas and...)&#45;&gt;2,&#45;2 (Tin Plate, Organic Solvent) -->
<g id="edge31" class="edge">
<title>&#45;5,&#45;1 (Coal and Coke and Syngas and Ash and Coke Oven Gas and...)&#45;&gt;2,&#45;2 (Tin Plate, Organic Solvent)</title>
<path fill="none" stroke="black" stroke-width="0.06" d="M2684.33,-1252.99C2656.66,-1158.76 2530.33,-728.51 2496.86,-614.52"/>
<polygon fill="black" stroke="black" stroke-width="0.06" points="2500.18,-613.4 2494.01,-604.79 2493.47,-615.37 2500.18,-613.4"/>
<text text-anchor="middle" x="2524.6" y="-937.55" font-family="Times,serif" font-size="14.00">syngas&#45;barrel*160</text>
</g>
<!-- 0,0 (LE BUS)&#45;&gt;0,0 (LE BUS) -->
<g id="edge10" class="edge">
<title>0,0 (LE BUS)&#45;&gt;0,0 (LE BUS)</title>
<path fill="none" stroke="black" stroke-width="0.13" d="M275.37,-1634.49C288.65,-1633.76 298.13,-1631.61 298.13,-1628.02 298.13,-1625.44 293.23,-1623.6 285.55,-1622.5"/>
<polygon fill="black" stroke="black" stroke-width="0.13" points="285.65,-1619 275.37,-1621.55 285,-1625.97 285.65,-1619"/>
<text text-anchor="middle" x="364.13" y="-1624.32" font-family="Times,serif" font-size="14.00">syngas&#45;barrel*346</text>
</g>
<!-- 0,0 (LE BUS)&#45;&gt;2,6 (Refined Syngas) -->
<g id="edge6" class="edge">
<title>0,0 (LE BUS)&#45;&gt;2,6 (Refined Syngas)</title>
<path fill="none" stroke="black" stroke-width="0.29" d="M220.18,-1645.98C275.23,-1731.66 511.21,-2098.85 577.17,-2201.47"/>
<polygon fill="black" stroke="black" stroke-width="0.29" points="574.31,-2203.51 582.66,-2210.03 580.2,-2199.72 574.31,-2203.51"/>
<text text-anchor="middle" x="332.67" y="-1927.53" font-family="Times,serif" font-size="14.00">syngas&#45;barrel*740</text>
</g>
<!-- 0,0 (LE BUS)&#45;&gt;3,1 (Mining Brick) -->
<g id="edge3" class="edge">
<title>0,0 (LE BUS)&#45;&gt;3,1 (Mining Brick)</title>
<path fill="none" stroke="black" stroke-width="0.05" d="M213.94,-1609.95C255.92,-1466.96 534.26,-519.02 586.06,-342.61"/>
<polygon fill="black" stroke="black" stroke-width="0.05" points="589.49,-343.36 588.95,-332.78 582.77,-341.39 589.49,-343.36"/>
<text text-anchor="middle" x="334" y="-980.08" font-family="Times,serif" font-size="14.00">syngas&#45;barrel*128</text>
</g>
<!-- 0,0 (LE BUS)&#45;&gt;&#45;2,7 (item=borax Borax) -->
<g id="edge28" class="edge">
<title>0,0 (LE BUS)&#45;&gt;&#45;2,7 (item=borax Borax)</title>
<path fill="none" stroke="black" stroke-width="0.04" d="M220.07,-1610.21C323.83,-1448.76 1101.09,-239.32 1226.32,-44.47"/>
<polygon fill="black" stroke="black" stroke-width="0.04" points="1229.32,-46.27 1231.79,-35.96 1223.43,-42.48 1229.32,-46.27"/>
<text text-anchor="middle" x="657.2" y="-831.14" font-family="Times,serif" font-size="14.00">syngas&#45;barrel*109</text>
</g>
<!-- 0,6 (Flue Gas Disposal, Syngas From Flue Gas) -->
<g id="node5" class="node">
<title>0,6 (Flue Gas Disposal, Syngas From Flue Gas)</title>
<ellipse fill="none" stroke="black" cx="1949.52" cy="-119.53" rx="229.36" ry="18"/>
<text text-anchor="middle" x="1949.52" y="-115.83" font-family="Times,serif" font-size="14.00">0,6 (Flue Gas Disposal, Syngas From Flue Gas)</text>
</g>
<!-- 0,6 (Flue Gas Disposal, Syngas From Flue Gas)&#45;&gt;0,0 (LE BUS) -->
<g id="edge21" class="edge">
<title>0,6 (Flue Gas Disposal, Syngas From Flue Gas)&#45;&gt;0,0 (LE BUS)</title>
<path fill="none" stroke="black" stroke-width="3.05" d="M1928.75,-137.53C1748.08,-294.08 444.38,-1423.74 236.54,-1603.84"/>
<polygon fill="black" stroke="black" stroke-width="3.05" points="234.06,-1601.35 228.8,-1610.55 238.65,-1606.64 234.06,-1601.35"/>
<text text-anchor="middle" x="1012.14" y="-874.48" font-family="Times,serif" font-size="14.00">syngas&#45;barrel*7826</text>
</g>
<!-- 0,6 (Flue Gas Disposal, Syngas From Flue Gas)&#45;&gt;2,6 (Refined Syngas) -->
<g id="edge4" class="edge">
<title>0,6 (Flue Gas Disposal, Syngas From Flue Gas)&#45;&gt;2,6 (Refined Syngas)</title>
<path fill="none" stroke="black" stroke-width="0.8" d="M1937.8,-137.76C1814.63,-329.43 758.7,-1972.48 611.39,-2201.7"/>
<polygon fill="black" stroke="black" stroke-width="0.8" points="608.44,-2199.82 605.97,-2210.13 614.33,-2203.61 608.44,-2199.82"/>
<text text-anchor="middle" x="1204.09" y="-1173.53" font-family="Times,serif" font-size="14.00">syngas&#45;barrel*2056</text>
</g>
<!-- 0,6 (Flue Gas Disposal, Syngas From Flue Gas)&#45;&gt;3,1 (Mining Brick) -->
<g id="edge23" class="edge">
<title>0,6 (Flue Gas Disposal, Syngas From Flue Gas)&#45;&gt;3,1 (Mining Brick)</title>
<path fill="none" stroke="black" stroke-width="0.66" d="M1839.48,-135.36C1576.66,-173.14 916.71,-268.03 680.29,-302.02"/>
<polygon fill="black" stroke="black" stroke-width="0.66" points="679.76,-298.56 670.36,-303.45 680.76,-305.49 679.76,-298.56"/>
<text text-anchor="middle" x="1189.38" y="-222.49" font-family="Times,serif" font-size="14.00">syngas&#45;barrel*1692</text>
</g>
<!-- 0,6 (Flue Gas Disposal, Syngas From Flue Gas)&#45;&gt;&#45;2,7 (item=borax Borax) -->
<g id="edge25" class="edge">
<title>0,6 (Flue Gas Disposal, Syngas From Flue Gas)&#45;&gt;&#45;2,7 (item=borax Borax)</title>
<path fill="none" stroke="black" stroke-width="0.65" d="M1839.56,-103.73C1702.98,-84.09 1472.04,-50.88 1341.28,-32.08"/>
<polygon fill="black" stroke="black" stroke-width="0.65" points="1341.66,-28.6 1331.27,-30.64 1340.67,-35.53 1341.66,-28.6"/>
<text text-anchor="middle" x="1519.92" y="-71.7" font-family="Times,serif" font-size="14.00">syngas&#45;barrel*1680</text>
</g>
<!-- 0,6 (Flue Gas Disposal, Syngas From Flue Gas)&#45;&gt;4,0 (item=raw&#45;borax item=borax Borax and raw borax) -->
<g id="edge9" class="edge">
<title>0,6 (Flue Gas Disposal, Syngas From Flue Gas)&#45;&gt;4,0 (item=raw&#45;borax item=borax Borax and raw borax)</title>
<path fill="none" stroke="black" stroke-width="0.16" d="M1949.52,-137.74C1949.52,-339.03 1949.52,-2146.28 1949.52,-2394.78"/>
<polygon fill="black" stroke="black" stroke-width="0.16" points="1946.02,-2394.82 1949.52,-2404.82 1953.02,-2394.82 1946.02,-2394.82"/>
<text text-anchor="middle" x="1883.52" y="-1270.06" font-family="Times,serif" font-size="14.00">syngas&#45;barrel*416</text>
</g>
<!-- 0,6 (Flue Gas Disposal, Syngas From Flue Gas)&#45;&gt;2,&#45;2 (Tin Plate, Organic Solvent) -->
<g id="edge26" class="edge">
<title>0,6 (Flue Gas Disposal, Syngas From Flue Gas)&#45;&gt;2,&#45;2 (Tin Plate, Organic Solvent)</title>
<path fill="none" stroke="black" stroke-width="0.04" d="M1970.32,-137.56C2053.81,-209.9 2364.59,-479.2 2460.4,-562.22"/>
<polygon fill="black" stroke="black" stroke-width="0.04" points="2458.11,-564.87 2467.96,-568.77 2462.7,-559.58 2458.11,-564.87"/>
<text text-anchor="middle" x="2149.36" y="-353.69" font-family="Times,serif" font-size="14.00">syngas&#45;barrel*112</text>
</g>
<!-- &#45;2,8 (syngas from coal dust and also wood) -->
<g id="node6" class="node">
<title>&#45;2,8 (syngas from coal dust and also wood)</title>
<ellipse fill="none" stroke="black" cx="208.63" cy="-914.57" rx="208.76" ry="18"/>
<text text-anchor="middle" x="208.63" y="-910.87" font-family="Times,serif" font-size="14.00">&#45;2,8 (syngas from coal dust and also wood)</text>
</g>
<!-- &#45;2,8 (syngas from coal dust and also wood)&#45;&gt;0,0 (LE BUS) -->
<g id="edge5" class="edge">
<title>&#45;2,8 (syngas from coal dust and also wood)&#45;&gt;0,0 (LE BUS)</title>
<path fill="none" stroke="black" stroke-width="3.3" d="M208.63,-932.92C208.63,-1029.79 208.63,-1481.64 208.63,-1599.73"/>
<polygon fill="black" stroke="black" stroke-width="3.3" points="205.13,-1599.79 208.63,-1609.79 212.13,-1599.79 205.13,-1599.79"/>
<text text-anchor="middle" x="138.13" y="-1270.12" font-family="Times,serif" font-size="14.00">syngas&#45;barrel*8462</text>
</g>
<!-- &#45;2,8 (syngas from coal dust and also wood)&#45;&gt;2,6 (Refined Syngas) -->
<g id="edge12" class="edge">
<title>&#45;2,8 (syngas from coal dust and also wood)&#45;&gt;2,6 (Refined Syngas)</title>
<path fill="none" stroke="black" stroke-width="0.4" d="M213.94,-932.64C255.92,-1075.63 534.26,-2023.57 586.06,-2199.98"/>
<polygon fill="black" stroke="black" stroke-width="0.4" points="582.77,-2201.2 588.95,-2209.81 589.49,-2199.23 582.77,-2201.2"/>
<text text-anchor="middle" x="329.5" y="-1570.11" font-family="Times,serif" font-size="14.00">syngas&#45;barrel*1024</text>
</g>
<!-- &#45;2,8 (syngas from coal dust and also wood)&#45;&gt;3,1 (Mining Brick) -->
<g id="edge24" class="edge">
<title>&#45;2,8 (syngas from coal dust and also wood)&#45;&gt;3,1 (Mining Brick)</title>
<path fill="none" stroke="black" stroke-width="1.69" d="M220.39,-896.28C275.84,-809.99 511.38,-443.48 577.2,-341.06"/>
<polygon fill="black" stroke="black" stroke-width="1.69" points="580.23,-342.83 582.69,-332.53 574.34,-339.05 580.23,-342.83"/>
<text text-anchor="middle" x="328.29" y="-622.47" font-family="Times,serif" font-size="14.00">syngas&#45;barrel*4336</text>
</g>
<!-- &#45;2,8 (syngas from coal dust and also wood)&#45;&gt;&#45;2,7 (item=borax Borax) -->
<g id="edge19" class="edge">
<title>&#45;2,8 (syngas from coal dust and also wood)&#45;&gt;&#45;2,7 (item=borax Borax)</title>
<path fill="none" stroke="black" stroke-width="1.22" d="M229.77,-896.25C360.99,-782.55 1063.56,-173.77 1214.68,-42.82"/>
<polygon fill="black" stroke="black" stroke-width="1.22" points="1217.39,-45.11 1222.65,-35.91 1212.8,-39.82 1217.39,-45.11"/>
<text text-anchor="middle" x="651.73" y="-473.34" font-family="Times,serif" font-size="14.00">syngas&#45;barrel*3136</text>
</g>
<!-- 4,10 (Fluid Recycling) -->
<g id="node9" class="node">
<title>4,10 (Fluid Recycling)</title>
<ellipse fill="none" stroke="black" cx="1243.33" cy="-2524.59" rx="112.38" ry="18"/>
<text text-anchor="middle" x="1243.33" y="-2520.89" font-family="Times,serif" font-size="14.00">4,10 (Fluid Recycling)</text>
</g>
<!-- 4,10 (Fluid Recycling)&#45;&gt;0,0 (LE BUS) -->
<g id="edge11" class="edge">
<title>4,10 (Fluid Recycling)&#45;&gt;0,0 (LE BUS)</title>
<path fill="none" stroke="black" stroke-width="1.49" d="M1222.66,-2506.68C1092.53,-2393.93 387.25,-1782.79 236.85,-1652.47"/>
<polygon fill="black" stroke="black" stroke-width="1.49" points="238.77,-1649.51 228.92,-1645.6 234.19,-1654.8 238.77,-1649.51"/>
<text text-anchor="middle" x="659.26" y="-2083.38" font-family="Times,serif" font-size="14.00">syngas&#45;barrel*3812</text>
</g>
<!-- 4,10 (Fluid Recycling)&#45;&gt;2,6 (Refined Syngas) -->
<g id="edge27" class="edge">
<title>4,10 (Fluid Recycling)&#45;&gt;2,6 (Refined Syngas)</title>
<path fill="none" stroke="black" stroke-width="0.38" d="M1206.11,-2507.59C1094.55,-2456.64 763.11,-2305.28 640.57,-2249.32"/>
<polygon fill="black" stroke="black" stroke-width="0.38" points="641.97,-2246.11 631.42,-2245.14 639.07,-2252.48 641.97,-2246.11"/>
<text text-anchor="middle" x="857.34" y="-2382.26" font-family="Times,serif" font-size="14.00">syngas&#45;barrel*980</text>
</g>
<!-- 4,10 (Fluid Recycling)&#45;&gt;3,1 (Mining Brick) -->
<g id="edge14" class="edge">
<title>4,10 (Fluid Recycling)&#45;&gt;3,1 (Mining Brick)</title>
<path fill="none" stroke="black" stroke-width="1.38" d="M1238.01,-2506.47C1180.42,-2310.34 673.22,-582.99 602.52,-342.2"/>
<polygon fill="black" stroke="black" stroke-width="1.38" points="605.84,-341.06 599.66,-332.45 599.12,-343.04 605.84,-341.06"/>
<text text-anchor="middle" x="849.76" y="-1428.14" font-family="Times,serif" font-size="14.00">syngas&#45;barrel*3552</text>
</g>
<!-- 4,10 (Fluid Recycling)&#45;&gt;&#45;2,7 (item=borax Borax) -->
<g id="edge30" class="edge">
<title>4,10 (Fluid Recycling)&#45;&gt;&#45;2,7 (item=borax Borax)</title>
<path fill="none" stroke="black" stroke-width="0.29" d="M1243.33,-2506.56C1243.33,-2296.04 1243.33,-308.49 1243.33,-46.46"/>
<polygon fill="black" stroke="black" stroke-width="0.29" points="1246.83,-46.25 1243.33,-36.25 1239.83,-46.25 1246.83,-46.25"/>
<text text-anchor="middle" x="1177.33" y="-1280.31" font-family="Times,serif" font-size="14.00">syngas&#45;barrel*740</text>
</g>
<!-- 4,10 (Fluid Recycling)&#45;&gt;4,0 (item=raw&#45;borax item=borax Borax and raw borax) -->
<g id="edge29" class="edge">
<title>4,10 (Fluid Recycling)&#45;&gt;4,0 (item=raw&#45;borax item=borax Borax and raw borax)</title>
<path fill="none" stroke="black" stroke-width="0.24" d="M1327.11,-2512.54C1450.65,-2494.78 1682.48,-2461.45 1825.68,-2440.86"/>
<polygon fill="black" stroke="black" stroke-width="0.24" points="1826.44,-2444.29 1835.84,-2439.4 1825.44,-2437.36 1826.44,-2444.29"/>
<text text-anchor="middle" x="1510.4" y="-2480.5" font-family="Times,serif" font-size="14.00">syngas&#45;barrel*604</text>
</g>
<!-- 2,7 (Mystery petrochemicals) -->
<g id="node11" class="node">
<title>2,7 (Mystery petrochemicals)</title>
<ellipse fill="none" stroke="black" cx="2488.71" cy="-1955.85" rx="147.57" ry="18"/>
<text text-anchor="middle" x="2488.71" y="-1952.15" font-family="Times,serif" font-size="14.00">2,7 (Mystery petrochemicals)</text>
</g>
<!-- 2,7 (Mystery petrochemicals)&#45;&gt;0,0 (LE BUS) -->
<g id="edge20" class="edge">
<title>2,7 (Mystery petrochemicals)&#45;&gt;0,0 (LE BUS)</title>
<path fill="none" stroke="black" stroke-width="1.11" d="M2392.92,-1942.07C2012.81,-1887.42 615.26,-1686.48 280.86,-1638.41"/>
<polygon fill="black" stroke="black" stroke-width="1.11" points="281.21,-1634.92 270.82,-1636.96 280.22,-1641.85 281.21,-1634.92"/>
<text text-anchor="middle" x="1266.39" y="-1794.04" font-family="Times,serif" font-size="14.00">syngas&#45;barrel*2838</text>
</g>
<!-- 2,7 (Mystery petrochemicals)&#45;&gt;2,6 (Refined Syngas) -->
<g id="edge15" class="edge">
<title>2,7 (Mystery petrochemicals)&#45;&gt;2,6 (Refined Syngas)</title>
<path fill="none" stroke="black" stroke-width="0.29" d="M2393.14,-1969.59C2067.74,-2016.37 1005.41,-2169.11 686,-2215.04"/>
<polygon fill="black" stroke="black" stroke-width="0.29" points="685.26,-2211.61 675.86,-2216.49 686.26,-2218.54 685.26,-2211.61"/>
<text text-anchor="middle" x="1473.57" y="-2096.11" font-family="Times,serif" font-size="14.00">syngas&#45;barrel*752</text>
</g>
<!-- 2,7 (Mystery petrochemicals)&#45;&gt;3,1 (Mining Brick) -->
<g id="edge18" class="edge">
<title>2,7 (Mystery petrochemicals)&#45;&gt;3,1 (Mining Brick)</title>
<path fill="none" stroke="black" stroke-width="0.26" d="M2468.08,-1937.97C2278.56,-1773.75 842.11,-529.06 622.48,-338.75"/>
<polygon fill="black" stroke="black" stroke-width="0.26" points="624.75,-336.09 614.9,-332.19 620.17,-341.38 624.75,-336.09"/>
<text text-anchor="middle" x="1479.28" y="-1142.16" font-family="Times,serif" font-size="14.00">syngas&#45;barrel*656</text>
</g>
<!-- 2,7 (Mystery petrochemicals)&#45;&gt;&#45;2,7 (item=borax Borax) -->
<g id="edge22" class="edge">
<title>2,7 (Mystery petrochemicals)&#45;&gt;&#45;2,7 (item=borax Borax)</title>
<path fill="none" stroke="black" stroke-width="0.2" d="M2477.17,-1937.9C2360.84,-1756.87 1400.67,-262.82 1260.4,-44.56"/>
<polygon fill="black" stroke="black" stroke-width="0.2" points="1263.22,-42.48 1254.87,-35.96 1257.33,-46.26 1263.22,-42.48"/>
<text text-anchor="middle" x="1802.79" y="-995.03" font-family="Times,serif" font-size="14.00">syngas&#45;barrel*520</text>
</g>
<!-- 2,7 (Mystery petrochemicals)&#45;&gt;4,0 (item=raw&#45;borax item=borax Borax and raw borax) -->
<g id="edge16" class="edge">
<title>2,7 (Mystery petrochemicals)&#45;&gt;4,0 (item=raw&#45;borax item=borax Borax and raw borax)</title>
<path fill="none" stroke="black" stroke-width="0.52" d="M2467.9,-1973.87C2384.41,-2046.22 2073.63,-2315.51 1977.82,-2398.53"/>
<polygon fill="black" stroke="black" stroke-width="0.52" points="1975.53,-2395.89 1970.26,-2405.08 1980.11,-2401.18 1975.53,-2395.89"/>
<text text-anchor="middle" x="2152.36" y="-2190" font-family="Times,serif" font-size="14.00">syngas&#45;barrel*1328</text>
</g>
</g>
</svg>
