<?xml version="1.0" encoding="UTF-8" standalone="no"?>
<!DOCTYPE svg PUBLIC "-//W3C//DTD SVG 1.1//EN"
 "http://www.w3.org/Graphics/SVG/1.1/DTD/svg11.dtd">
<!-- Generated by graphviz version 2.43.0 (0)
 -->
<!-- Title: %3 Pages: 1 -->
<svg width="1965pt" height="1511pt"
 viewBox="0.00 0.00 1965.45 1510.62" xmlns="http://www.w3.org/2000/svg" xmlns:xlink="http://www.w3.org/1999/xlink">
<g id="graph0" class="graph" transform="scale(1 1) rotate(0) translate(4 1506.62)">
<title>%3</title>
<polygon fill="white" stroke="transparent" points="-4,4 -4,-1506.62 1961.45,-1506.62 1961.45,4 -4,4"/>
<!-- 4,4 (Hydrogen Chloride, item=nylon Nylon/Nylon parts) -->
<g id="node1" class="node">
<title>4,4 (Hydrogen Chloride, item=nylon Nylon/Nylon parts)</title>
<ellipse fill="none" stroke="black" cx="724.79" cy="-18" rx="271.05" ry="18"/>
<text text-anchor="middle" x="724.79" y="-14.3" font-family="Times,serif" font-size="14.00">4,4 (Hydrogen Chloride, item=nylon Nylon/Nylon parts)</text>
</g>
<!-- 1,7 (Activated Carbon) -->
<g id="node2" class="node">
<title>1,7 (Activated Carbon)</title>
<ellipse fill="none" stroke="black" cx="214.48" cy="-424.96" rx="115.88" ry="18"/>
<text text-anchor="middle" x="214.48" y="-421.26" font-family="Times,serif" font-size="14.00">1,7 (Activated Carbon)</text>
</g>
<!-- 4,4 (Hydrogen Chloride, item=nylon Nylon/Nylon parts)&#45;&gt;1,7 (Activated Carbon) -->
<g id="edge1" class="edge">
<title>4,4 (Hydrogen Chloride, item=nylon Nylon/Nylon parts)&#45;&gt;1,7 (Activated Carbon)</title>
<path fill="none" stroke="black" stroke-width="3.09" d="M702.2,-36.01C620.19,-101.41 338.07,-326.4 244.73,-400.83"/>
<polygon fill="black" stroke="black" stroke-width="3.09" points="242.44,-398.18 236.81,-407.15 246.81,-403.66 242.44,-398.18"/>
<text text-anchor="middle" x="383.47" y="-222.22" font-family="Times,serif" font-size="14.00">sodium&#45;hydroxide*32592</text>
</g>
<!-- &#45;1,7 (Rayon) -->
<g id="node4" class="node">
<title>&#45;1,7 (Rayon)</title>
<ellipse fill="none" stroke="black" cx="1361.13" cy="-163.24" rx="66.89" ry="18"/>
<text text-anchor="middle" x="1361.13" y="-159.54" font-family="Times,serif" font-size="14.00">&#45;1,7 (Rayon)</text>
</g>
<!-- 4,4 (Hydrogen Chloride, item=nylon Nylon/Nylon parts)&#45;&gt;&#45;1,7 (Rayon) -->
<g id="edge3" class="edge">
<title>4,4 (Hydrogen Chloride, item=nylon Nylon/Nylon parts)&#45;&gt;&#45;1,7 (Rayon)</title>
<path fill="none" stroke="black" stroke-width="1.01" d="M800.6,-35.3C928.21,-64.43 1183.4,-122.68 1300.22,-149.34"/>
<polygon fill="black" stroke="black" stroke-width="1.01" points="1299.54,-152.77 1310.07,-151.59 1301.1,-145.95 1299.54,-152.77"/>
<text text-anchor="middle" x="960.41" y="-96.12" font-family="Times,serif" font-size="14.00">sodium&#45;hydroxide*10720</text>
</g>
<!-- 4,1 (item=filtration&#45;media Filtration Media) -->
<g id="node5" class="node">
<title>4,1 (item=filtration&#45;media Filtration Media)</title>
<ellipse fill="none" stroke="black" cx="214.48" cy="-1077.67" rx="214.46" ry="18"/>
<text text-anchor="middle" x="214.48" y="-1073.97" font-family="Times,serif" font-size="14.00">4,1 (item=filtration&#45;media Filtration Media)</text>
</g>
<!-- 4,4 (Hydrogen Chloride, item=nylon Nylon/Nylon parts)&#45;&gt;4,1 (item=filtration&#45;media Filtration Media) -->
<g id="edge5" class="edge">
<title>4,4 (Hydrogen Chloride, item=nylon Nylon/Nylon parts)&#45;&gt;4,1 (item=filtration&#45;media Filtration Media)</title>
<path fill="none" stroke="black" stroke-width="0.39" d="M715.93,-36.39C655.19,-162.52 300.46,-899.12 227.57,-1050.48"/>
<polygon fill="black" stroke="black" stroke-width="0.39" points="224.37,-1049.07 223.18,-1059.59 230.68,-1052.1 224.37,-1049.07"/>
<text text-anchor="middle" x="386.25" y="-547.24" font-family="Times,serif" font-size="14.00">sodium&#45;hydroxide*4128</text>
</g>
<!-- 2,4 (Formica and Phenolic boards) -->
<g id="node6" class="node">
<title>2,4 (Formica and Phenolic boards)</title>
<ellipse fill="none" stroke="black" cx="724.79" cy="-1484.62" rx="169.77" ry="18"/>
<text text-anchor="middle" x="724.79" y="-1480.92" font-family="Times,serif" font-size="14.00">2,4 (Formica and Phenolic boards)</text>
</g>
<!-- 4,4 (Hydrogen Chloride, item=nylon Nylon/Nylon parts)&#45;&gt;2,4 (Formica and Phenolic boards) -->
<g id="edge6" class="edge">
<title>4,4 (Hydrogen Chloride, item=nylon Nylon/Nylon parts)&#45;&gt;2,4 (Formica and Phenolic boards)</title>
<path fill="none" stroke="black" stroke-width="1.17" d="M724.79,-36.01C724.79,-188.81 724.79,-1266.68 724.79,-1456.2"/>
<polygon fill="black" stroke="black" stroke-width="1.17" points="721.29,-1456.46 724.79,-1466.46 728.29,-1456.46 721.29,-1456.46"/>
<text text-anchor="middle" x="634.79" y="-749.91" font-family="Times,serif" font-size="14.00">sodium&#45;hydroxide*12384</text>
</g>
<!-- 4,2 (More fiberboard) -->
<g id="node7" class="node">
<title>4,2 (More fiberboard)</title>
<ellipse fill="none" stroke="black" cx="1361.13" cy="-1339.38" rx="111.28" ry="18"/>
<text text-anchor="middle" x="1361.13" y="-1335.68" font-family="Times,serif" font-size="14.00">4,2 (More fiberboard)</text>
</g>
<!-- 4,4 (Hydrogen Chloride, item=nylon Nylon/Nylon parts)&#45;&gt;4,2 (More fiberboard) -->
<g id="edge11" class="edge">
<title>4,4 (Hydrogen Chloride, item=nylon Nylon/Nylon parts)&#45;&gt;4,2 (More fiberboard)</title>
<path fill="none" stroke="black" stroke-width="0.4" d="M733.54,-36.18C802.99,-180.38 1264.35,-1138.41 1348.1,-1312.33"/>
<polygon fill="black" stroke="black" stroke-width="0.4" points="1344.95,-1313.85 1352.44,-1321.34 1351.26,-1310.81 1344.95,-1313.85"/>
<text text-anchor="middle" x="955.32" y="-678.05" font-family="Times,serif" font-size="14.00">sodium&#45;hydroxide*4208</text>
</g>
<!-- 1,6 (Sodium Hydroxide, These new bullets are fun, Limestone) -->
<g id="node3" class="node">
<title>1,6 (Sodium Hydroxide, These new bullets are fun, Limestone)</title>
<ellipse fill="none" stroke="black" cx="1644.33" cy="-751.31" rx="301.65" ry="18"/>
<text text-anchor="middle" x="1644.33" y="-747.61" font-family="Times,serif" font-size="14.00">1,6 (Sodium Hydroxide, These new bullets are fun, Limestone)</text>
</g>
<!-- 1,6 (Sodium Hydroxide, These new bullets are fun, Limestone)&#45;&gt;1,7 (Activated Carbon) -->
<g id="edge2" class="edge">
<title>1,6 (Sodium Hydroxide, These new bullets are fun, Limestone)&#45;&gt;1,7 (Activated Carbon)</title>
<path fill="none" stroke="black" stroke-width="3.07" d="M1567.96,-733.88C1319.67,-677.21 537.05,-498.58 289.99,-442.19"/>
<polygon fill="black" stroke="black" stroke-width="3.07" points="290.56,-438.73 280.03,-439.92 289,-445.56 290.56,-438.73"/>
<text text-anchor="middle" x="838.98" y="-591.84" font-family="Times,serif" font-size="14.00">sodium&#45;hydroxide*32384</text>
</g>
<!-- 1,6 (Sodium Hydroxide, These new bullets are fun, Limestone)&#45;&gt;&#45;1,7 (Rayon) -->
<g id="edge4" class="edge">
<title>1,6 (Sodium Hydroxide, These new bullets are fun, Limestone)&#45;&gt;&#45;1,7 (Rayon)</title>
<path fill="none" stroke="black" stroke-width="0.19" d="M1635.55,-733.07C1594.71,-648.26 1423.35,-292.43 1374.3,-190.58"/>
<polygon fill="black" stroke="black" stroke-width="0.19" points="1377.31,-188.76 1369.82,-181.27 1371,-191.8 1377.31,-188.76"/>
<text text-anchor="middle" x="1419.42" y="-465.63" font-family="Times,serif" font-size="14.00">sodium&#45;hydroxide*2032</text>
</g>
<!-- 1,6 (Sodium Hydroxide, These new bullets are fun, Limestone)&#45;&gt;4,1 (item=filtration&#45;media Filtration Media) -->
<g id="edge7" class="edge">
<title>1,6 (Sodium Hydroxide, These new bullets are fun, Limestone)&#45;&gt;4,1 (item=filtration&#45;media Filtration Media)</title>
<path fill="none" stroke="black" stroke-width="0.42" d="M1567.96,-768.74C1322.54,-824.76 555.1,-999.92 298.79,-1058.42"/>
<polygon fill="black" stroke="black" stroke-width="0.42" points="297.76,-1055.07 288.79,-1060.71 299.32,-1061.89 297.76,-1055.07"/>
<text text-anchor="middle" x="847.88" y="-917.38" font-family="Times,serif" font-size="14.00">sodium&#45;hydroxide*4480</text>
</g>
<!-- 1,6 (Sodium Hydroxide, These new bullets are fun, Limestone)&#45;&gt;2,4 (Formica and Phenolic boards) -->
<g id="edge8" class="edge">
<title>1,6 (Sodium Hydroxide, These new bullets are fun, Limestone)&#45;&gt;2,4 (Formica and Phenolic boards)</title>
<path fill="none" stroke="black" stroke-width="0.86" d="M1621.6,-769.44C1497.14,-868.7 898.6,-1346.01 755.55,-1460.09"/>
<polygon fill="black" stroke="black" stroke-width="0.86" points="753.18,-1457.5 747.55,-1466.47 757.55,-1462.98 753.18,-1457.5"/>
<text text-anchor="middle" x="1103.08" y="-1118.57" font-family="Times,serif" font-size="14.00">sodium&#45;hydroxide*9088</text>
</g>
<!-- 1,6 (Sodium Hydroxide, These new bullets are fun, Limestone)&#45;&gt;4,2 (More fiberboard) -->
<g id="edge9" class="edge">
<title>1,6 (Sodium Hydroxide, These new bullets are fun, Limestone)&#45;&gt;4,2 (More fiberboard)</title>
<path fill="none" stroke="black" stroke-width="0.2" d="M1635.55,-769.56C1594.71,-854.36 1423.35,-1210.19 1374.3,-1312.04"/>
<polygon fill="black" stroke="black" stroke-width="0.2" points="1371,-1310.82 1369.82,-1321.35 1377.31,-1313.86 1371,-1310.82"/>
<text text-anchor="middle" x="1419.42" y="-1044.6" font-family="Times,serif" font-size="14.00">sodium&#45;hydroxide*2112</text>
</g>
<!-- &#45;2,&#45;3 (Trains) -->
<g id="node8" class="node">
<title>&#45;2,&#45;3 (Trains)</title>
<ellipse fill="none" stroke="black" cx="1786.53" cy="-751.31" rx="70.39" ry="18"/>
<text text-anchor="middle" x="1786.53" y="-747.61" font-family="Times,serif" font-size="14.00">&#45;2,&#45;3 (Trains)</text>
</g>
<!-- 1,6 (Sodium Hydroxide, These new bullets are fun, Limestone)&#45;&gt;&#45;2,&#45;3 (Trains) -->
<g id="edge10" class="edge">
<title>1,6 (Sodium Hydroxide, These new bullets are fun, Limestone)&#45;&gt;&#45;2,&#45;3 (Trains)</title>
<path fill="none" stroke="black" stroke-width="0.2" d="M1786.42,-751.31C1786.44,-751.31 1786.46,-751.31 1786.47,-751.31"/>
<polygon fill="black" stroke="black" stroke-width="0.2" points="1776.51,-754.84 1786.5,-751.31 1776.49,-747.84 1776.51,-754.84"/>
<text text-anchor="middle" x="1871.95" y="-755.11" font-family="Times,serif" font-size="14.00">sodium&#45;hydroxide*2080</text>
</g>
</g>
</svg>
