<?xml version="1.0" encoding="UTF-8" standalone="no"?>
<!DOCTYPE svg PUBLIC "-//W3C//DTD SVG 1.1//EN"
 "http://www.w3.org/Graphics/SVG/1.1/DTD/svg11.dtd">
<!-- Generated by graphviz version 2.43.0 (0)
 -->
<!-- Title: %3 Pages: 1 -->
<svg width="1262pt" height="866pt"
 viewBox="0.00 0.00 1262.30 865.78" xmlns="http://www.w3.org/2000/svg" xmlns:xlink="http://www.w3.org/1999/xlink">
<g id="graph0" class="graph" transform="scale(1 1) rotate(0) translate(4 861.78)">
<title>%3</title>
<polygon fill="white" stroke="transparent" points="-4,4 -4,-861.78 1258.3,-861.78 1258.3,4 -4,4"/>
<!-- 2,&#45;2 (Tin Plate, Organic Solvent) -->
<g id="node1" class="node">
<title>2,&#45;2 (Tin Plate, Organic Solvent)</title>
<ellipse fill="none" stroke="black" cx="466.07" cy="-411.63" rx="159.77" ry="18"/>
<text text-anchor="middle" x="466.07" y="-407.93" font-family="Times,serif" font-size="14.00">2,&#45;2 (Tin Plate, Organic Solvent)</text>
</g>
<!-- &#45;6,&#45;4 (High&#45;Power Resistors, Ceramic Capacitor, Inductor) -->
<g id="node2" class="node">
<title>&#45;6,&#45;4 (High&#45;Power Resistors, Ceramic Capacitor, Inductor)</title>
<ellipse fill="none" stroke="black" cx="976.13" cy="-411.63" rx="278.35" ry="18"/>
<text text-anchor="middle" x="976.13" y="-407.93" font-family="Times,serif" font-size="14.00">&#45;6,&#45;4 (High&#45;Power Resistors, Ceramic Capacitor, Inductor)</text>
</g>
<!-- 2,&#45;2 (Tin Plate, Organic Solvent)&#45;&gt;&#45;6,&#45;4 (High&#45;Power Resistors, Ceramic Capacitor, Inductor) -->
<g id="edge1" class="edge">
<title>2,&#45;2 (Tin Plate, Organic Solvent)&#45;&gt;&#45;6,&#45;4 (High&#45;Power Resistors, Ceramic Capacitor, Inductor)</title>
<path fill="none" stroke="black" stroke-width="0.61" d="M626.05,-411.63C645.76,-411.63 666.35,-411.63 687.26,-411.63"/>
<polygon fill="black" stroke="black" stroke-width="0.61" points="687.54,-415.13 697.54,-411.63 687.54,-408.13 687.54,-415.13"/>
<text text-anchor="middle" x="656.65" y="-400.43" font-family="Times,serif" font-size="14.00">tin&#45;plate*8496</text>
</g>
<!-- 5,8 (Ulric Food) -->
<g id="node3" class="node">
<title>5,8 (Ulric Food)</title>
<ellipse fill="none" stroke="black" cx="188.86" cy="-839.78" rx="83.39" ry="18"/>
<text text-anchor="middle" x="188.86" y="-836.08" font-family="Times,serif" font-size="14.00">5,8 (Ulric Food)</text>
</g>
<!-- 2,&#45;2 (Tin Plate, Organic Solvent)&#45;&gt;5,8 (Ulric Food) -->
<g id="edge2" class="edge">
<title>2,&#45;2 (Tin Plate, Organic Solvent)&#45;&gt;5,8 (Ulric Food)</title>
<path fill="none" stroke="black" stroke-width="1.29" d="M454.33,-429.75C410.67,-497.18 257.49,-733.78 205.94,-813.41"/>
<polygon fill="black" stroke="black" stroke-width="1.29" points="202.94,-811.6 200.44,-821.89 208.82,-815.4 202.94,-811.6"/>
<text text-anchor="middle" x="274.14" y="-625.38" font-family="Times,serif" font-size="14.00">tin&#45;plate*18016</text>
</g>
<!-- 6,4 (Electronic components) -->
<g id="node4" class="node">
<title>6,4 (Electronic components)</title>
<ellipse fill="none" stroke="black" cx="141.69" cy="-18" rx="141.88" ry="18"/>
<text text-anchor="middle" x="141.69" y="-14.3" font-family="Times,serif" font-size="14.00">6,4 (Electronic components)</text>
</g>
<!-- 2,&#45;2 (Tin Plate, Organic Solvent)&#45;&gt;6,4 (Electronic components) -->
<g id="edge3" class="edge">
<title>2,&#45;2 (Tin Plate, Organic Solvent)&#45;&gt;6,4 (Electronic components)</title>
<path fill="none" stroke="black" stroke-width="1.11" d="M451.28,-393.69C399.25,-330.55 224.4,-118.36 163.12,-44.01"/>
<polygon fill="black" stroke="black" stroke-width="1.11" points="165.62,-41.53 156.55,-36.04 160.21,-45.98 165.62,-41.53"/>
<text text-anchor="middle" x="251.2" y="-222.65" font-family="Times,serif" font-size="14.00">tin&#45;plate*15488</text>
</g>
</g>
</svg>
