<?xml version="1.0" encoding="UTF-8" standalone="no"?>
<!DOCTYPE svg PUBLIC "-//W3C//DTD SVG 1.1//EN"
 "http://www.w3.org/Graphics/SVG/1.1/DTD/svg11.dtd">
<!-- Generated by graphviz version 2.43.0 (0)
 -->
<!-- Title: %3 Pages: 1 -->
<svg width="4733pt" height="4301pt"
 viewBox="0.00 0.00 4732.55 4300.74" xmlns="http://www.w3.org/2000/svg" xmlns:xlink="http://www.w3.org/1999/xlink">
<g id="graph0" class="graph" transform="scale(1 1) rotate(0) translate(4 4296.74)">
<title>%3</title>
<polygon fill="white" stroke="transparent" points="-4,4 -4,-4296.74 4728.55,-4296.74 4728.55,4 -4,4"/>
<!-- &#45;4,&#45;3 (Breath Deeply. Exhale. (Hot Air)) -->
<g id="node1" class="node">
<title>&#45;4,&#45;3 (Breath Deeply. Exhale. (Hot Air))</title>
<ellipse fill="none" stroke="black" cx="3993.89" cy="-895.35" rx="190.37" ry="18"/>
<text text-anchor="middle" x="3993.89" y="-891.65" font-family="Times,serif" font-size="14.00">&#45;4,&#45;3 (Breath Deeply. Exhale. (Hot Air))</text>
</g>
<!-- &#45;5,5 (fluid=flue&#45;gas Flue gas) -->
<g id="node2" class="node">
<title>&#45;5,5 (fluid=flue&#45;gas Flue gas)</title>
<ellipse fill="none" stroke="black" cx="3523.03" cy="-424.48" rx="145.67" ry="18"/>
<text text-anchor="middle" x="3523.03" y="-420.78" font-family="Times,serif" font-size="14.00">&#45;5,5 (fluid=flue&#45;gas Flue gas)</text>
</g>
<!-- &#45;4,&#45;3 (Breath Deeply. Exhale. (Hot Air))&#45;&gt;&#45;5,5 (fluid=flue&#45;gas Flue gas) -->
<g id="edge1" class="edge">
<title>&#45;4,&#45;3 (Breath Deeply. Exhale. (Hot Air))&#45;&gt;&#45;5,5 (fluid=flue&#45;gas Flue gas)</title>
<path fill="none" stroke="black" stroke-width="4.25" d="M3975.72,-877.18C3902.96,-804.42 3632.51,-533.96 3548.26,-449.71"/>
<polygon fill="black" stroke="black" stroke-width="4.25" points="3550.85,-447.04 3541.15,-442.6 3545.59,-452.3 3550.85,-447.04"/>
<text text-anchor="middle" x="3687.99" y="-667.24" font-family="Times,serif" font-size="14.00">hot&#45;air&#45;barrel*57472</text>
</g>
<!-- &#45;4,0 (item=lens Optical sets) -->
<g id="node4" class="node">
<title>&#45;4,0 (item=lens Optical sets)</title>
<ellipse fill="none" stroke="black" cx="4296.21" cy="-1488.67" rx="143.77" ry="18"/>
<text text-anchor="middle" x="4296.21" y="-1484.97" font-family="Times,serif" font-size="14.00">&#45;4,0 (item=lens Optical sets)</text>
</g>
<!-- &#45;4,&#45;3 (Breath Deeply. Exhale. (Hot Air))&#45;&gt;&#45;4,0 (item=lens Optical sets) -->
<g id="edge8" class="edge">
<title>&#45;4,&#45;3 (Breath Deeply. Exhale. (Hot Air))&#45;&gt;&#45;4,0 (item=lens Optical sets)</title>
<path fill="none" stroke="black" stroke-width="7.42" d="M4003.11,-913.43C4046.44,-998.47 4230.03,-1358.79 4282.28,-1461.33"/>
<polygon fill="black" stroke="black" stroke-width="7.42" points="4276.59,-1464.47 4286.92,-1470.44 4288.16,-1458.58 4276.59,-1464.47"/>
<text text-anchor="middle" x="4064.19" y="-1191.18" font-family="Times,serif" font-size="14.00">hot&#45;air&#45;barrel*100376</text>
</g>
<!-- 0,0 (LE BUS) -->
<g id="node5" class="node">
<title>0,0 (LE BUS)</title>
<ellipse fill="none" stroke="black" cx="2929.71" cy="-122.17" rx="71.49" ry="18"/>
<text text-anchor="middle" x="2929.71" y="-118.47" font-family="Times,serif" font-size="14.00">0,0 (LE BUS)</text>
</g>
<!-- &#45;4,&#45;3 (Breath Deeply. Exhale. (Hot Air))&#45;&gt;0,0 (LE BUS) -->
<g id="edge3" class="edge">
<title>&#45;4,&#45;3 (Breath Deeply. Exhale. (Hot Air))&#45;&gt;0,0 (LE BUS)</title>
<path fill="none" stroke="black" stroke-width="0.81" d="M3969.16,-877.37C3827.65,-774.56 3121.55,-261.55 2961.85,-145.52"/>
<polygon fill="black" stroke="black" stroke-width="0.81" points="2963.53,-142.42 2953.39,-139.37 2959.42,-148.08 2963.53,-142.42"/>
<text text-anchor="middle" x="3391.5" y="-515.25" font-family="Times,serif" font-size="14.00">hot&#45;air&#45;barrel*11000</text>
</g>
<!-- 3,13 (Rubber) -->
<g id="node6" class="node">
<title>3,13 (Rubber)</title>
<ellipse fill="none" stroke="black" cx="2272.01" cy="-18" rx="75.29" ry="18"/>
<text text-anchor="middle" x="2272.01" y="-14.3" font-family="Times,serif" font-size="14.00">3,13 (Rubber)</text>
</g>
<!-- &#45;4,&#45;3 (Breath Deeply. Exhale. (Hot Air))&#45;&gt;3,13 (Rubber) -->
<g id="edge4" class="edge">
<title>&#45;4,&#45;3 (Breath Deeply. Exhale. (Hot Air))&#45;&gt;3,13 (Rubber)</title>
<path fill="none" stroke="black" stroke-width="1.84" d="M3959.11,-877.62C3739.76,-765.86 2549.72,-159.5 2312.98,-38.87"/>
<polygon fill="black" stroke="black" stroke-width="1.84" points="2314.5,-35.72 2304,-34.3 2311.32,-41.96 2314.5,-35.72"/>
<text text-anchor="middle" x="3062.04" y="-462.05" font-family="Times,serif" font-size="14.00">hot&#45;air&#45;barrel*24872</text>
</g>
<!-- 8,8 (Glass and lamps) -->
<g id="node7" class="node">
<title>8,8 (Glass and lamps)</title>
<ellipse fill="none" stroke="black" cx="1614.3" cy="-122.17" rx="111.28" ry="18"/>
<text text-anchor="middle" x="1614.3" y="-118.47" font-family="Times,serif" font-size="14.00">8,8 (Glass and lamps)</text>
</g>
<!-- &#45;4,&#45;3 (Breath Deeply. Exhale. (Hot Air))&#45;&gt;8,8 (Glass and lamps) -->
<g id="edge7" class="edge">
<title>&#45;4,&#45;3 (Breath Deeply. Exhale. (Hot Air))&#45;&gt;8,8 (Glass and lamps)</title>
<path fill="none" stroke="black" stroke-width="1.62" d="M3940.57,-878.02C3625.12,-775.52 2005.72,-249.35 1673.8,-141.5"/>
<polygon fill="black" stroke="black" stroke-width="1.62" points="1674.49,-138.04 1663.9,-138.28 1672.33,-144.7 1674.49,-138.04"/>
<text text-anchor="middle" x="2733.18" y="-513.56" font-family="Times,serif" font-size="14.00">hot&#45;air&#45;barrel*21936</text>
</g>
<!-- &#45;4,&#45;7 (Nexelit from raw) -->
<g id="node8" class="node">
<title>&#45;4,&#45;7 (Nexelit from raw)</title>
<ellipse fill="none" stroke="black" cx="1020.98" cy="-424.48" rx="120.48" ry="18"/>
<text text-anchor="middle" x="1020.98" y="-420.78" font-family="Times,serif" font-size="14.00">&#45;4,&#45;7 (Nexelit from raw)</text>
</g>
<!-- &#45;4,&#45;3 (Breath Deeply. Exhale. (Hot Air))&#45;&gt;&#45;4,&#45;7 (Nexelit from raw) -->
<g id="edge6" class="edge">
<title>&#45;4,&#45;3 (Breath Deeply. Exhale. (Hot Air))&#45;&gt;&#45;4,&#45;7 (Nexelit from raw)</title>
<path fill="none" stroke="black" stroke-width="0.23" d="M3896.25,-879.88C3443.96,-808.24 1555.92,-509.21 1113.86,-439.19"/>
<polygon fill="black" stroke="black" stroke-width="0.23" points="1114.12,-435.69 1103.69,-437.58 1113.02,-442.6 1114.12,-435.69"/>
<text text-anchor="middle" x="2435.56" y="-663.34" font-family="Times,serif" font-size="14.00">hot&#45;air&#45;barrel*3120</text>
</g>
<!-- &#45;1,11 (Steel Plate (from molten)) -->
<g id="node9" class="node">
<title>&#45;1,11 (Steel Plate (from molten))</title>
<ellipse fill="none" stroke="black" cx="550.12" cy="-895.35" rx="161.37" ry="18"/>
<text text-anchor="middle" x="550.12" y="-891.65" font-family="Times,serif" font-size="14.00">&#45;1,11 (Steel Plate (from molten))</text>
</g>
<!-- &#45;4,&#45;3 (Breath Deeply. Exhale. (Hot Air))&#45;&gt;&#45;1,11 (Steel Plate (from molten)) -->
<g id="edge19" class="edge">
<title>&#45;4,&#45;3 (Breath Deeply. Exhale. (Hot Air))&#45;&gt;&#45;1,11 (Steel Plate (from molten))</title>
<path fill="none" stroke="black" stroke-width="2.38" d="M3803.22,-895.35C3194.32,-895.35 1302.57,-895.35 721.59,-895.35"/>
<polygon fill="black" stroke="black" stroke-width="2.38" points="721.45,-891.85 711.45,-895.35 721.45,-898.85 721.45,-891.85"/>
<text text-anchor="middle" x="2188.4" y="-899.15" font-family="Times,serif" font-size="14.00">hot&#45;air&#45;barrel*32192</text>
</g>
<!-- 3,9 (Copper, molten &amp; plate) -->
<g id="node11" class="node">
<title>3,9 (Copper, molten &amp; plate)</title>
<ellipse fill="none" stroke="black" cx="247.81" cy="-1488.67" rx="143.77" ry="18"/>
<text text-anchor="middle" x="247.81" y="-1484.97" font-family="Times,serif" font-size="14.00">3,9 (Copper, molten &amp; plate)</text>
</g>
<!-- &#45;4,&#45;3 (Breath Deeply. Exhale. (Hot Air))&#45;&gt;3,9 (Copper, molten &amp; plate) -->
<g id="edge12" class="edge">
<title>&#45;4,&#45;3 (Breath Deeply. Exhale. (Hot Air))&#45;&gt;3,9 (Copper, molten &amp; plate)</title>
<path fill="none" stroke="black" stroke-width="0.52" d="M3896.1,-910.83C3369.64,-994.22 876.88,-1389.03 346.99,-1472.96"/>
<polygon fill="black" stroke="black" stroke-width="0.52" points="346.4,-1469.51 337.07,-1474.53 347.5,-1476.42 346.4,-1469.51"/>
<text text-anchor="middle" x="2052.04" y="-1195.7" font-family="Times,serif" font-size="14.00">hot&#45;air&#45;barrel*7040</text>
</g>
<!-- &#45;6,8 (Copper plate duplicate) -->
<g id="node12" class="node">
<title>&#45;6,8 (Copper plate duplicate)</title>
<ellipse fill="none" stroke="black" cx="143.64" cy="-2146.37" rx="143.77" ry="18"/>
<text text-anchor="middle" x="143.64" y="-2142.67" font-family="Times,serif" font-size="14.00">&#45;6,8 (Copper plate duplicate)</text>
</g>
<!-- &#45;4,&#45;3 (Breath Deeply. Exhale. (Hot Air))&#45;&gt;&#45;6,8 (Copper plate duplicate) -->
<g id="edge22" class="edge">
<title>&#45;4,&#45;3 (Breath Deeply. Exhale. (Hot Air))&#45;&gt;&#45;6,8 (Copper plate duplicate)</title>
<path fill="none" stroke="black" stroke-width="0.42" d="M3940.57,-912.67C3514.08,-1051.25 661.76,-1978.02 205.22,-2126.36"/>
<polygon fill="black" stroke="black" stroke-width="0.42" points="203.94,-2123.1 195.51,-2129.52 206.1,-2129.75 203.94,-2123.1"/>
<text text-anchor="middle" x="2003.39" y="-1523.32" font-family="Times,serif" font-size="14.00">hot&#45;air&#45;barrel*5736</text>
</g>
<!-- &#45;1,10 (Iron Plates) -->
<g id="node13" class="node">
<title>&#45;1,10 (Iron Plates)</title>
<ellipse fill="none" stroke="black" cx="247.81" cy="-2804.07" rx="94.78" ry="18"/>
<text text-anchor="middle" x="247.81" y="-2800.37" font-family="Times,serif" font-size="14.00">&#45;1,10 (Iron Plates)</text>
</g>
<!-- &#45;4,&#45;3 (Breath Deeply. Exhale. (Hot Air))&#45;&gt;&#45;1,10 (Iron Plates) -->
<g id="edge14" class="edge">
<title>&#45;4,&#45;3 (Breath Deeply. Exhale. (Hot Air))&#45;&gt;&#45;1,10 (Iron Plates)</title>
<path fill="none" stroke="black" stroke-width="0.34" d="M3958.91,-913.17C3605,-1093.49 677.41,-2585.18 290.06,-2782.54"/>
<polygon fill="black" stroke="black" stroke-width="0.34" points="288.45,-2779.43 281.13,-2787.09 291.63,-2785.67 288.45,-2779.43"/>
<text text-anchor="middle" x="2054.99" y="-1851.66" font-family="Times,serif" font-size="14.00">hot&#45;air&#45;barrel*4656</text>
</g>
<!-- &#45;2,0 (Glassware) -->
<g id="node14" class="node">
<title>&#45;2,0 (Glassware)</title>
<ellipse fill="none" stroke="black" cx="550.12" cy="-3397.39" rx="86.38" ry="18"/>
<text text-anchor="middle" x="550.12" y="-3393.69" font-family="Times,serif" font-size="14.00">&#45;2,0 (Glassware)</text>
</g>
<!-- &#45;4,&#45;3 (Breath Deeply. Exhale. (Hot Air))&#45;&gt;&#45;2,0 (Glassware) -->
<g id="edge27" class="edge">
<title>&#45;4,&#45;3 (Breath Deeply. Exhale. (Hot Air))&#45;&gt;&#45;2,0 (Glassware)</title>
<path fill="none" stroke="black" stroke-width="0.46" d="M3969.12,-913.35C3678.02,-1124.84 913.7,-3133.24 582.52,-3373.85"/>
<polygon fill="black" stroke="black" stroke-width="0.46" points="580.32,-3371.12 574.29,-3379.83 584.44,-3376.79 580.32,-3371.12"/>
<text text-anchor="middle" x="2206.32" y="-2147.4" font-family="Times,serif" font-size="14.00">hot&#45;air&#45;barrel*6168</text>
</g>
<!-- 3,12 (reserved &#45; Candle, reserved &#45; Candle, reserved &#45; Candle) -->
<g id="node15" class="node">
<title>3,12 (reserved &#45; Candle, reserved &#45; Candle, reserved &#45; Candle)</title>
<ellipse fill="none" stroke="black" cx="1020.98" cy="-3868.26" rx="298.15" ry="18"/>
<text text-anchor="middle" x="1020.98" y="-3864.56" font-family="Times,serif" font-size="14.00">3,12 (reserved &#45; Candle, reserved &#45; Candle, reserved &#45; Candle)</text>
</g>
<!-- &#45;4,&#45;3 (Breath Deeply. Exhale. (Hot Air))&#45;&gt;3,12 (reserved &#45; Candle, reserved &#45; Candle, reserved &#45; Candle) -->
<g id="edge34" class="edge">
<title>&#45;4,&#45;3 (Breath Deeply. Exhale. (Hot Air))&#45;&gt;3,12 (reserved &#45; Candle, reserved &#45; Candle, reserved &#45; Candle)</title>
<path fill="none" stroke="black" stroke-width="0.11" d="M3975.68,-913.56C3741.34,-1147.9 1319.89,-3569.34 1046.13,-3843.11"/>
<polygon fill="black" stroke="black" stroke-width="0.11" points="1043.6,-3840.69 1039.01,-3850.23 1048.55,-3845.64 1043.6,-3840.69"/>
<text text-anchor="middle" x="2441.4" y="-2382.13" font-family="Times,serif" font-size="14.00">hot&#45;air&#45;barrel*1512</text>
</g>
<!-- 2,1 (Niobium plates) -->
<g id="node16" class="node">
<title>2,1 (Niobium plates)</title>
<ellipse fill="none" stroke="black" cx="1614.3" cy="-4170.57" rx="105.88" ry="18"/>
<text text-anchor="middle" x="1614.3" y="-4166.87" font-family="Times,serif" font-size="14.00">2,1 (Niobium plates)</text>
</g>
<!-- &#45;4,&#45;3 (Breath Deeply. Exhale. (Hot Air))&#45;&gt;2,1 (Niobium plates) -->
<g id="edge20" class="edge">
<title>&#45;4,&#45;3 (Breath Deeply. Exhale. (Hot Air))&#45;&gt;2,1 (Niobium plates)</title>
<path fill="none" stroke="black" stroke-width="0.57" d="M3980.8,-913.36C3802.01,-1159.45 1848.61,-3848.08 1633.51,-4144.14"/>
<polygon fill="black" stroke="black" stroke-width="0.57" points="1630.43,-4142.42 1627.38,-4152.57 1636.09,-4146.53 1630.43,-4142.42"/>
<text text-anchor="middle" x="2737.65" y="-2532.55" font-family="Times,serif" font-size="14.00">hot&#45;air&#45;barrel*7728</text>
</g>
<!-- 4,13 (Chromium processing) -->
<g id="node17" class="node">
<title>4,13 (Chromium processing)</title>
<ellipse fill="none" stroke="black" cx="2272.01" cy="-4274.74" rx="142.97" ry="18"/>
<text text-anchor="middle" x="2272.01" y="-4271.04" font-family="Times,serif" font-size="14.00">4,13 (Chromium processing)</text>
</g>
<!-- &#45;4,&#45;3 (Breath Deeply. Exhale. (Hot Air))&#45;&gt;4,13 (Chromium processing) -->
<g id="edge29" class="edge">
<title>&#45;4,&#45;3 (Breath Deeply. Exhale. (Hot Air))&#45;&gt;4,13 (Chromium processing)</title>
<path fill="none" stroke="black" stroke-width="0.19" d="M3984.63,-913.53C3856.58,-1164.84 2441.67,-3941.76 2285.91,-4247.46"/>
<polygon fill="black" stroke="black" stroke-width="0.19" points="2282.7,-4246.04 2281.28,-4256.54 2288.94,-4249.22 2282.7,-4246.04"/>
<text text-anchor="middle" x="3065.77" y="-2584.29" font-family="Times,serif" font-size="14.00">hot&#45;air&#45;barrel*2584</text>
</g>
<!-- &#45;5,&#45;8 (fluid=molten&#45;silver Even more silver) -->
<g id="node18" class="node">
<title>&#45;5,&#45;8 (fluid=molten&#45;silver Even more silver)</title>
<ellipse fill="none" stroke="black" cx="2929.71" cy="-4170.57" rx="212.56" ry="18"/>
<text text-anchor="middle" x="2929.71" y="-4166.87" font-family="Times,serif" font-size="14.00">&#45;5,&#45;8 (fluid=molten&#45;silver Even more silver)</text>
</g>
<!-- &#45;4,&#45;3 (Breath Deeply. Exhale. (Hot Air))&#45;&gt;&#45;5,&#45;8 (fluid=molten&#45;silver Even more silver) -->
<g id="edge28" class="edge">
<title>&#45;4,&#45;3 (Breath Deeply. Exhale. (Hot Air))&#45;&gt;&#45;5,&#45;8 (fluid=molten&#45;silver Even more silver)</title>
<path fill="none" stroke="black" stroke-width="0.67" d="M3988.04,-913.36C3908.2,-1159.08 3037.08,-3840.12 2938.73,-4142.81"/>
<polygon fill="black" stroke="black" stroke-width="0.67" points="2935.32,-4141.98 2935.56,-4152.57 2941.98,-4144.14 2935.32,-4141.98"/>
<text text-anchor="middle" x="3393.88" y="-2531.89" font-family="Times,serif" font-size="14.00">hot&#45;air&#45;barrel*9080</text>
</g>
<!-- 4,6 (Circuit substrate and Doped silicon) -->
<g id="node19" class="node">
<title>4,6 (Circuit substrate and Doped silicon)</title>
<ellipse fill="none" stroke="black" cx="3523.03" cy="-3868.26" rx="199.56" ry="18"/>
<text text-anchor="middle" x="3523.03" y="-3864.56" font-family="Times,serif" font-size="14.00">4,6 (Circuit substrate and Doped silicon)</text>
</g>
<!-- &#45;4,&#45;3 (Breath Deeply. Exhale. (Hot Air))&#45;&gt;4,6 (Circuit substrate and Doped silicon) -->
<g id="edge25" class="edge">
<title>&#45;4,&#45;3 (Breath Deeply. Exhale. (Hot Air))&#45;&gt;4,6 (Circuit substrate and Doped silicon)</title>
<path fill="none" stroke="black" stroke-width="0.38" d="M3991.01,-913.56C3954.02,-1147.1 3573.02,-3552.66 3527.47,-3840.2"/>
<polygon fill="black" stroke="black" stroke-width="0.38" points="3523.99,-3839.81 3525.89,-3850.23 3530.91,-3840.9 3523.99,-3839.81"/>
<text text-anchor="middle" x="3689.74" y="-2380.68" font-family="Times,serif" font-size="14.00">hot&#45;air&#45;barrel*5104</text>
</g>
<!-- 2,10 (Nickel plate and Nichrome) -->
<g id="node20" class="node">
<title>2,10 (Nickel plate and Nichrome)</title>
<ellipse fill="none" stroke="black" cx="3993.89" cy="-3397.39" rx="165.17" ry="18"/>
<text text-anchor="middle" x="3993.89" y="-3393.69" font-family="Times,serif" font-size="14.00">2,10 (Nickel plate and Nichrome)</text>
</g>
<!-- &#45;4,&#45;3 (Breath Deeply. Exhale. (Hot Air))&#45;&gt;2,10 (Nickel plate and Nichrome) -->
<g id="edge26" class="edge">
<title>&#45;4,&#45;3 (Breath Deeply. Exhale. (Hot Air))&#45;&gt;2,10 (Nickel plate and Nichrome)</title>
<path fill="none" stroke="black" stroke-width="0.1" d="M3993.89,-913.35C3993.89,-1123.48 3993.89,-3107.43 3993.89,-3368.98"/>
<polygon fill="black" stroke="black" stroke-width="0.1" points="3990.39,-3369.18 3993.89,-3379.18 3997.39,-3369.18 3990.39,-3369.18"/>
<text text-anchor="middle" x="3924.39" y="-2144.96" font-family="Times,serif" font-size="14.00">hot&#45;air&#45;barrel*1368</text>
</g>
<!-- &#45;7,&#45;8 (Tin mk2) -->
<g id="node21" class="node">
<title>&#45;7,&#45;8 (Tin mk2)</title>
<ellipse fill="none" stroke="black" cx="4296.21" cy="-2804.07" rx="78.79" ry="18"/>
<text text-anchor="middle" x="4296.21" y="-2800.37" font-family="Times,serif" font-size="14.00">&#45;7,&#45;8 (Tin mk2)</text>
</g>
<!-- &#45;4,&#45;3 (Breath Deeply. Exhale. (Hot Air))&#45;&gt;&#45;7,&#45;8 (Tin mk2) -->
<g id="edge36" class="edge">
<title>&#45;4,&#45;3 (Breath Deeply. Exhale. (Hot Air))&#45;&gt;&#45;7,&#45;8 (Tin mk2)</title>
<path fill="none" stroke="black" stroke-width="0.19" d="M3996.79,-913.62C4025.36,-1093.99 4256.46,-2553.11 4291.71,-2775.65"/>
<polygon fill="black" stroke="black" stroke-width="0.19" points="4288.3,-2776.52 4293.32,-2785.85 4295.21,-2775.43 4288.3,-2776.52"/>
<text text-anchor="middle" x="4074.75" y="-1848.44" font-family="Times,serif" font-size="14.00">hot&#45;air&#45;barrel*2616</text>
</g>
<!-- 2,&#45;8 (Hot air) -->
<g id="node3" class="node">
<title>2,&#45;8 (Hot air)</title>
<ellipse fill="none" stroke="black" cx="4400.38" cy="-2146.37" rx="70.69" ry="18"/>
<text text-anchor="middle" x="4400.38" y="-2142.67" font-family="Times,serif" font-size="14.00">2,&#45;8 (Hot air)</text>
</g>
<!-- 2,&#45;8 (Hot air)&#45;&gt;&#45;5,5 (fluid=flue&#45;gas Flue gas) -->
<g id="edge10" class="edge">
<title>2,&#45;8 (Hot air)&#45;&gt;&#45;5,5 (fluid=flue&#45;gas Flue gas)</title>
<path fill="none" stroke="black" stroke-width="2.71" d="M4391.26,-2128.48C4305.52,-1960.2 3641.35,-656.69 3536.85,-451.6"/>
<polygon fill="black" stroke="black" stroke-width="2.71" points="3539.96,-450 3532.3,-442.68 3533.72,-453.17 3539.96,-450"/>
<text text-anchor="middle" x="3890.06" y="-1293.84" font-family="Times,serif" font-size="14.00">hot&#45;air&#45;barrel*36696</text>
</g>
<!-- 2,&#45;8 (Hot air)&#45;&gt;&#45;4,0 (item=lens Optical sets) -->
<g id="edge2" class="edge">
<title>2,&#45;8 (Hot air)&#45;&gt;&#45;4,0 (item=lens Optical sets)</title>
<path fill="none" stroke="black" stroke-width="3.41" d="M4397.48,-2128.09C4383,-2036.64 4318.38,-1628.67 4300.69,-1517"/>
<polygon fill="black" stroke="black" stroke-width="3.41" points="4304.11,-1516.19 4299.09,-1506.86 4297.2,-1517.28 4304.11,-1516.19"/>
<text text-anchor="middle" x="4275.09" y="-1826.35" font-family="Times,serif" font-size="14.00">hot&#45;air&#45;barrel*46104</text>
</g>
<!-- 2,&#45;8 (Hot air)&#45;&gt;0,0 (LE BUS) -->
<g id="edge35" class="edge">
<title>2,&#45;8 (Hot air)&#45;&gt;0,0 (LE BUS)</title>
<path fill="none" stroke="black" stroke-width="0.22" d="M4387.44,-2128.56C4252.85,-1943.32 3110.26,-370.67 2948.68,-148.28"/>
<polygon fill="black" stroke="black" stroke-width="0.22" points="2951.44,-146.13 2942.73,-140.09 2945.78,-150.24 2951.44,-146.13"/>
<text text-anchor="middle" x="3598.56" y="-1142.22" font-family="Times,serif" font-size="14.00">hot&#45;air&#45;barrel*3000</text>
</g>
<!-- 2,&#45;8 (Hot air)&#45;&gt;3,13 (Rubber) -->
<g id="edge15" class="edge">
<title>2,&#45;8 (Hot air)&#45;&gt;3,13 (Rubber)</title>
<path fill="none" stroke="black" stroke-width="1.27" d="M4382.62,-2128.61C4191.74,-1937.74 2522.25,-268.24 2297.09,-43.08"/>
<polygon fill="black" stroke="black" stroke-width="1.27" points="2299.24,-40.28 2289.69,-35.69 2294.29,-45.23 2299.24,-40.28"/>
<text text-anchor="middle" x="3265.85" y="-1089.65" font-family="Times,serif" font-size="14.00">hot&#45;air&#45;barrel*17160</text>
</g>
<!-- 2,&#45;8 (Hot air)&#45;&gt;8,8 (Glass and lamps) -->
<g id="edge5" class="edge">
<title>2,&#45;8 (Hot air)&#45;&gt;8,8 (Glass and lamps)</title>
<path fill="none" stroke="black" stroke-width="1.38" d="M4376.71,-2129.18C4124.74,-1946.11 1939.71,-358.59 1646.74,-145.73"/>
<polygon fill="black" stroke="black" stroke-width="1.38" points="1648.77,-142.88 1638.62,-139.84 1644.66,-148.55 1648.77,-142.88"/>
<text text-anchor="middle" x="2937.72" y="-1141.25" font-family="Times,serif" font-size="14.00">hot&#45;air&#45;barrel*18704</text>
</g>
<!-- 2,&#45;8 (Hot air)&#45;&gt;&#45;4,&#45;7 (Nexelit from raw) -->
<g id="edge17" class="edge">
<title>2,&#45;8 (Hot air)&#45;&gt;&#45;4,&#45;7 (Nexelit from raw)</title>
<path fill="none" stroke="black" stroke-width="0.15" d="M4368.55,-2130.15C4049.57,-1967.63 1432.79,-634.31 1064.09,-446.45"/>
<polygon fill="black" stroke="black" stroke-width="0.15" points="1065.56,-443.27 1055.07,-441.85 1062.39,-449.51 1065.56,-443.27"/>
<text text-anchor="middle" x="2646.82" y="-1292.1" font-family="Times,serif" font-size="14.00">hot&#45;air&#45;barrel*2064</text>
</g>
<!-- 2,&#45;8 (Hot air)&#45;&gt;&#45;1,11 (Steel Plate (from molten)) -->
<g id="edge9" class="edge">
<title>2,&#45;8 (Hot air)&#45;&gt;&#45;1,11 (Steel Plate (from molten))</title>
<path fill="none" stroke="black" stroke-width="1.91" d="M4356.47,-2132.1C3964.9,-2004.87 1075.32,-1065.99 612.56,-915.63"/>
<polygon fill="black" stroke="black" stroke-width="1.91" points="613.3,-912.19 602.71,-912.43 611.14,-918.85 613.3,-912.19"/>
<text text-anchor="middle" x="2410.51" y="-1527.67" font-family="Times,serif" font-size="14.00">hot&#45;air&#45;barrel*25824</text>
</g>
<!-- 6,3 (Things from molten) -->
<g id="node10" class="node">
<title>6,3 (Things from molten)</title>
<ellipse fill="none" stroke="black" cx="4598.47" cy="-2146.37" rx="126.18" ry="18"/>
<text text-anchor="middle" x="4598.47" y="-2142.67" font-family="Times,serif" font-size="14.00">6,3 (Things from molten)</text>
</g>
<!-- 2,&#45;8 (Hot air)&#45;&gt;6,3 (Things from molten) -->
<g id="edge11" class="edge">
<title>2,&#45;8 (Hot air)&#45;&gt;6,3 (Things from molten)</title>
<path fill="none" stroke="black" stroke-width="0.11" d="M4471.33,-2146.37C4471.42,-2146.37 4471.5,-2146.37 4471.58,-2146.37"/>
<polygon fill="black" stroke="black" stroke-width="0.11" points="4462.33,-2149.87 4472.33,-2146.37 4462.33,-2142.87 4462.33,-2149.87"/>
<text text-anchor="middle" x="4540.96" y="-2150.17" font-family="Times,serif" font-size="14.00">hot&#45;air&#45;barrel*1512</text>
</g>
<!-- 2,&#45;8 (Hot air)&#45;&gt;3,9 (Copper, molten &amp; plate) -->
<g id="edge21" class="edge">
<title>2,&#45;8 (Hot air)&#45;&gt;3,9 (Copper, molten &amp; plate)</title>
<path fill="none" stroke="black" stroke-width="0.35" d="M4340.07,-2136.82C3880.12,-2063.97 928.85,-1596.53 347.25,-1504.42"/>
<polygon fill="black" stroke="black" stroke-width="0.35" points="347.64,-1500.94 337.21,-1502.83 346.54,-1507.85 347.64,-1500.94"/>
<text text-anchor="middle" x="2274.16" y="-1824.42" font-family="Times,serif" font-size="14.00">hot&#45;air&#45;barrel*4752</text>
</g>
<!-- 2,&#45;8 (Hot air)&#45;&gt;&#45;6,8 (Copper plate duplicate) -->
<g id="edge13" class="edge">
<title>2,&#45;8 (Hot air)&#45;&gt;&#45;6,8 (Copper plate duplicate)</title>
<path fill="none" stroke="black" stroke-width="0.42" d="M4329.16,-2146.37C3841.57,-2146.37 994.36,-2146.37 297.51,-2146.37"/>
<polygon fill="black" stroke="black" stroke-width="0.42" points="297.41,-2142.87 287.41,-2146.37 297.41,-2149.87 297.41,-2142.87"/>
<text text-anchor="middle" x="2382.84" y="-2150.17" font-family="Times,serif" font-size="14.00">hot&#45;air&#45;barrel*5712</text>
</g>
<!-- 2,&#45;8 (Hot air)&#45;&gt;&#45;1,10 (Iron Plates) -->
<g id="edge31" class="edge">
<title>2,&#45;8 (Hot air)&#45;&gt;&#45;1,10 (Iron Plates)</title>
<path fill="none" stroke="black" stroke-width="0.42" d="M4340.07,-2155.92C3875.64,-2229.48 871.1,-2705.35 330.93,-2790.91"/>
<polygon fill="black" stroke="black" stroke-width="0.42" points="330.21,-2787.48 320.88,-2792.5 331.3,-2794.39 330.21,-2787.48"/>
<text text-anchor="middle" x="2266" y="-2477.21" font-family="Times,serif" font-size="14.00">hot&#45;air&#45;barrel*5720</text>
</g>
<!-- 2,&#45;8 (Hot air)&#45;&gt;&#45;2,0 (Glassware) -->
<g id="edge16" class="edge">
<title>2,&#45;8 (Hot air)&#45;&gt;&#45;2,0 (Glassware)</title>
<path fill="none" stroke="black" stroke-width="0.69" d="M4356.47,-2160.63C3963.14,-2288.44 1049.28,-3235.21 606.46,-3379.09"/>
<polygon fill="black" stroke="black" stroke-width="0.69" points="605.19,-3375.82 596.76,-3382.24 607.36,-3382.48 605.19,-3375.82"/>
<text text-anchor="middle" x="2411.97" y="-2773.66" font-family="Times,serif" font-size="14.00">hot&#45;air&#45;barrel*9360</text>
</g>
<!-- 2,&#45;8 (Hot air)&#45;&gt;3,12 (reserved &#45; Candle, reserved &#45; Candle, reserved &#45; Candle) -->
<g id="edge18" class="edge">
<title>2,&#45;8 (Hot air)&#45;&gt;3,12 (reserved &#45; Candle, reserved &#45; Candle, reserved &#45; Candle)</title>
<path fill="none" stroke="black" stroke-width="0.15" d="M4368.55,-2162.59C4049.9,-2324.94 1438.24,-3655.65 1065.25,-3845.7"/>
<polygon fill="black" stroke="black" stroke-width="0.15" points="1063.43,-3842.7 1056.11,-3850.36 1066.61,-3848.94 1063.43,-3842.7"/>
<text text-anchor="middle" x="2647.4" y="-3007.94" font-family="Times,serif" font-size="14.00">hot&#45;air&#45;barrel*2016</text>
</g>
<!-- 2,&#45;8 (Hot air)&#45;&gt;2,1 (Niobium plates) -->
<g id="edge30" class="edge">
<title>2,&#45;8 (Hot air)&#45;&gt;2,1 (Niobium plates)</title>
<path fill="none" stroke="black" stroke-width="0.27" d="M4376.71,-2163.56C4124.74,-2346.63 1939.71,-3934.15 1646.74,-4147.01"/>
<polygon fill="black" stroke="black" stroke-width="0.27" points="1644.66,-4144.19 1638.62,-4152.9 1648.77,-4149.85 1644.66,-4144.19"/>
<text text-anchor="middle" x="2942.22" y="-3159.09" font-family="Times,serif" font-size="14.00">hot&#45;air&#45;barrel*3632</text>
</g>
<!-- 2,&#45;8 (Hot air)&#45;&gt;4,13 (Chromium processing) -->
<g id="edge23" class="edge">
<title>2,&#45;8 (Hot air)&#45;&gt;4,13 (Chromium processing)</title>
<path fill="none" stroke="black" stroke-width="0.17" d="M4382.62,-2164.13C4191.75,-2355 2522.33,-4024.42 2297.11,-4249.64"/>
<polygon fill="black" stroke="black" stroke-width="0.17" points="2294.59,-4247.21 2290,-4256.75 2299.54,-4252.16 2294.59,-4247.21"/>
<text text-anchor="middle" x="3270.36" y="-3210.69" font-family="Times,serif" font-size="14.00">hot&#45;air&#45;barrel*2232</text>
</g>
<!-- 2,&#45;8 (Hot air)&#45;&gt;&#45;5,&#45;8 (fluid=molten&#45;silver Even more silver) -->
<g id="edge24" class="edge">
<title>2,&#45;8 (Hot air)&#45;&gt;&#45;5,&#45;8 (fluid=molten&#45;silver Even more silver)</title>
<path fill="none" stroke="black" stroke-width="0.28" d="M4387.44,-2164.18C4252.92,-2349.33 3111.44,-3920.43 2948.93,-4144.11"/>
<polygon fill="black" stroke="black" stroke-width="0.28" points="2945.99,-4142.2 2942.95,-4152.35 2951.66,-4146.32 2945.99,-4142.2"/>
<text text-anchor="middle" x="3598.68" y="-3157.95" font-family="Times,serif" font-size="14.00">hot&#45;air&#45;barrel*3792</text>
</g>
<!-- 2,&#45;8 (Hot air)&#45;&gt;4,6 (Circuit substrate and Doped silicon) -->
<g id="edge32" class="edge">
<title>2,&#45;8 (Hot air)&#45;&gt;4,6 (Circuit substrate and Doped silicon)</title>
<path fill="none" stroke="black" stroke-width="0.34" d="M4391.26,-2164.26C4305.52,-2332.54 3641.35,-3636.05 3536.85,-3841.14"/>
<polygon fill="black" stroke="black" stroke-width="0.34" points="3533.72,-3839.56 3532.3,-3850.06 3539.96,-3842.74 3533.72,-3839.56"/>
<text text-anchor="middle" x="3894.56" y="-3006.5" font-family="Times,serif" font-size="14.00">hot&#45;air&#45;barrel*4608</text>
</g>
<!-- 2,&#45;8 (Hot air)&#45;&gt;2,10 (Nickel plate and Nichrome) -->
<g id="edge33" class="edge">
<title>2,&#45;8 (Hot air)&#45;&gt;2,10 (Nickel plate and Nichrome)</title>
<path fill="none" stroke="black" stroke-width="0.1" d="M4394.47,-2164.54C4349.29,-2303.6 4058.49,-3198.6 4003.02,-3369.29"/>
<polygon fill="black" stroke="black" stroke-width="0.1" points="3999.62,-3368.46 3999.86,-3379.05 4006.27,-3370.62 3999.62,-3368.46"/>
<text text-anchor="middle" x="4129.25" y="-2770.71" font-family="Times,serif" font-size="14.00">hot&#45;air&#45;barrel*1392</text>
</g>
<!-- 2,&#45;8 (Hot air)&#45;&gt;&#45;7,&#45;8 (Tin mk2) -->
<g id="edge37" class="edge">
<title>2,&#45;8 (Hot air)&#45;&gt;&#45;7,&#45;8 (Tin mk2)</title>
<path fill="none" stroke="black" stroke-width="0.12" d="M4397.48,-2164.65C4383,-2256.1 4318.38,-2664.07 4300.69,-2775.74"/>
<polygon fill="black" stroke="black" stroke-width="0.12" points="4297.2,-2775.46 4299.09,-2785.88 4304.11,-2776.55 4297.2,-2775.46"/>
<text text-anchor="middle" x="4279.59" y="-2473.99" font-family="Times,serif" font-size="14.00">hot&#45;air&#45;barrel*1560</text>
</g>
</g>
</svg>
