<?xml version="1.0" encoding="UTF-8" standalone="no"?>
<!DOCTYPE svg PUBLIC "-//W3C//DTD SVG 1.1//EN"
 "http://www.w3.org/Graphics/SVG/1.1/DTD/svg11.dtd">
<!-- Generated by graphviz version 2.43.0 (0)
 -->
<!-- Title: %3 Pages: 1 -->
<svg width="851pt" height="657pt"
 viewBox="0.00 0.00 850.97 657.39" xmlns="http://www.w3.org/2000/svg" xmlns:xlink="http://www.w3.org/1999/xlink">
<g id="graph0" class="graph" transform="scale(1 1) rotate(0) translate(4 653.39)">
<title>%3</title>
<polygon fill="white" stroke="transparent" points="-4,4 -4,-653.39 846.97,-653.39 846.97,4 -4,4"/>
<!-- 9,0 (Iron / Nickel mine) -->
<g id="node1" class="node">
<title>9,0 (Iron / Nickel mine)</title>
<ellipse fill="none" stroke="black" cx="379.06" cy="-301.74" rx="118.08" ry="18"/>
<text text-anchor="middle" x="379.06" y="-298.04" font-family="Times,serif" font-size="14.00">9,0 (Iron / Nickel mine)</text>
</g>
<!-- 4,11 (Cobalt Extract) -->
<g id="node2" class="node">
<title>4,11 (Cobalt Extract)</title>
<ellipse fill="none" stroke="black" cx="734.43" cy="-301.74" rx="108.58" ry="18"/>
<text text-anchor="middle" x="734.43" y="-298.04" font-family="Times,serif" font-size="14.00">4,11 (Cobalt Extract)</text>
</g>
<!-- 9,0 (Iron / Nickel mine)&#45;&gt;4,11 (Cobalt Extract) -->
<g id="edge1" class="edge">
<title>9,0 (Iron / Nickel mine)&#45;&gt;4,11 (Cobalt Extract)</title>
<path fill="none" stroke="black" stroke-width="0.59" d="M497.39,-301.74C535.39,-301.74 577.48,-301.74 615.51,-301.74"/>
<polygon fill="black" stroke="black" stroke-width="0.59" points="615.61,-305.24 625.61,-301.74 615.61,-298.24 615.61,-305.24"/>
<text text-anchor="middle" x="556.45" y="-290.54" font-family="Times,serif" font-size="14.00">ore&#45;nickel*47760</text>
</g>
<!-- 0,0 (LE BUS) -->
<g id="node3" class="node">
<title>0,0 (LE BUS)</title>
<ellipse fill="none" stroke="black" cx="246.33" cy="-631.39" rx="71.49" ry="18"/>
<text text-anchor="middle" x="246.33" y="-627.69" font-family="Times,serif" font-size="14.00">0,0 (LE BUS)</text>
</g>
<!-- 9,0 (Iron / Nickel mine)&#45;&gt;0,0 (LE BUS) -->
<g id="edge2" class="edge">
<title>9,0 (Iron / Nickel mine)&#45;&gt;0,0 (LE BUS)</title>
<path fill="none" stroke="black" stroke-width="0.1" d="M371.73,-319.93C349.71,-374.64 283.96,-537.92 257.52,-603.59"/>
<polygon fill="black" stroke="black" stroke-width="0.1" points="254.12,-602.67 253.63,-613.26 260.61,-605.29 254.12,-602.67"/>
<text text-anchor="middle" x="258.13" y="-465.56" font-family="Times,serif" font-size="14.00">ore&#45;nickel*8400</text>
</g>
<!-- 2,10 (Nickel plate and Nichrome) -->
<g id="node4" class="node">
<title>2,10 (Nickel plate and Nichrome)</title>
<ellipse fill="none" stroke="black" cx="165.09" cy="-18" rx="165.17" ry="18"/>
<text text-anchor="middle" x="165.09" y="-14.3" font-family="Times,serif" font-size="14.00">2,10 (Nickel plate and Nichrome)</text>
</g>
<!-- 9,0 (Iron / Nickel mine)&#45;&gt;2,10 (Nickel plate and Nichrome) -->
<g id="edge3" class="edge">
<title>9,0 (Iron / Nickel mine)&#45;&gt;2,10 (Nickel plate and Nichrome)</title>
<path fill="none" stroke="black" stroke-width="2.31" d="M365.35,-283.56C328.59,-234.81 227.71,-101.05 184.81,-44.16"/>
<polygon fill="black" stroke="black" stroke-width="2.31" points="187.5,-41.91 178.68,-36.03 181.91,-46.12 187.5,-41.91"/>
<text text-anchor="middle" x="209.58" y="-167.66" font-family="Times,serif" font-size="14.00">ore&#45;nickel*188520</text>
</g>
</g>
</svg>
