<?xml version="1.0" encoding="UTF-8" standalone="no"?>
<!DOCTYPE svg PUBLIC "-//W3C//DTD SVG 1.1//EN"
 "http://www.w3.org/Graphics/SVG/1.1/DTD/svg11.dtd">
<!-- Generated by graphviz version 2.43.0 (0)
 -->
<!-- Title: %3 Pages: 1 -->
<svg width="932pt" height="44pt"
 viewBox="0.00 0.00 931.93 44.00" xmlns="http://www.w3.org/2000/svg" xmlns:xlink="http://www.w3.org/1999/xlink">
<g id="graph0" class="graph" transform="scale(1 1) rotate(0) translate(4 40)">
<title>%3</title>
<polygon fill="white" stroke="transparent" points="-4,4 -4,-40 927.93,-40 927.93,4 -4,4"/>
<!-- &#45;7,&#45;2 (Uranium Processing) -->
<g id="node1" class="node">
<title>&#45;7,&#45;2 (Uranium Processing)</title>
<ellipse fill="none" stroke="black" cx="424.92" cy="-18" rx="135.68" ry="18"/>
<text text-anchor="middle" x="424.92" y="-14.3" font-family="Times,serif" font-size="14.00">&#45;7,&#45;2 (Uranium Processing)</text>
</g>
<!-- 7,0 (item=bhoddos Bhoddos) -->
<g id="node2" class="node">
<title>7,0 (item=bhoddos Bhoddos)</title>
<ellipse fill="none" stroke="black" cx="778.34" cy="-18" rx="145.67" ry="18"/>
<text text-anchor="middle" x="778.34" y="-14.3" font-family="Times,serif" font-size="14.00">7,0 (item=bhoddos Bhoddos)</text>
</g>
<!-- &#45;7,&#45;2 (Uranium Processing)&#45;&gt;7,0 (item=bhoddos Bhoddos) -->
<g id="edge1" class="edge">
<title>&#45;7,&#45;2 (Uranium Processing)&#45;&gt;7,0 (item=bhoddos Bhoddos)</title>
<path fill="none" stroke="black" stroke-width="0.86" d="M560.8,-18C581.04,-18 602.02,-18 622.62,-18"/>
<polygon fill="black" stroke="black" stroke-width="0.86" points="622.7,-21.5 632.7,-18 622.7,-14.5 622.7,-21.5"/>
<text text-anchor="middle" x="591.71" y="-6.8" font-family="Times,serif" font-size="14.00">fuelrod&#45;mk01*12222</text>
</g>
<!-- 0,0 (LE BUS) -->
<g id="node3" class="node">
<title>0,0 (LE BUS)</title>
<ellipse fill="none" stroke="black" cx="71.49" cy="-18" rx="71.49" ry="18"/>
<text text-anchor="middle" x="71.49" y="-14.3" font-family="Times,serif" font-size="14.00">0,0 (LE BUS)</text>
</g>
<!-- &#45;7,&#45;2 (Uranium Processing)&#45;&gt;0,0 (LE BUS) -->
<g id="edge2" class="edge">
<title>&#45;7,&#45;2 (Uranium Processing)&#45;&gt;0,0 (LE BUS)</title>
<path fill="none" stroke="black" stroke-width="1.14" d="M289.03,-18C243.3,-18 193.7,-18 153.43,-18"/>
<polygon fill="black" stroke="black" stroke-width="1.14" points="153.4,-14.5 143.4,-18 153.4,-21.5 153.4,-14.5"/>
<text text-anchor="middle" x="221.23" y="-6.8" font-family="Times,serif" font-size="14.00">fuelrod&#45;mk01*16339</text>
</g>
</g>
</svg>
