<?xml version="1.0" encoding="UTF-8" standalone="no"?>
<!DOCTYPE svg PUBLIC "-//W3C//DTD SVG 1.1//EN"
 "http://www.w3.org/Graphics/SVG/1.1/DTD/svg11.dtd">
<!-- Generated by graphviz version 2.43.0 (0)
 -->
<!-- Title: %3 Pages: 1 -->
<svg width="1200pt" height="859pt"
 viewBox="0.00 0.00 1200.23 858.57" xmlns="http://www.w3.org/2000/svg" xmlns:xlink="http://www.w3.org/1999/xlink">
<g id="graph0" class="graph" transform="scale(1 1) rotate(0) translate(4 854.57)">
<title>%3</title>
<polygon fill="white" stroke="transparent" points="-4,4 -4,-854.57 1196.23,-854.57 1196.23,4 -4,4"/>
<!-- 3,7 (Wood) -->
<g id="node1" class="node">
<title>3,7 (Wood)</title>
<ellipse fill="none" stroke="black" cx="704.84" cy="-403.33" rx="61.19" ry="18"/>
<text text-anchor="middle" x="704.84" y="-399.63" font-family="Times,serif" font-size="14.00">3,7 (Wood)</text>
</g>
<!-- 5,8 (Ulric Food) -->
<g id="node2" class="node">
<title>5,8 (Ulric Food)</title>
<ellipse fill="none" stroke="black" cx="493.71" cy="-112.73" rx="83.39" ry="18"/>
<text text-anchor="middle" x="493.71" y="-109.03" font-family="Times,serif" font-size="14.00">5,8 (Ulric Food)</text>
</g>
<!-- 3,7 (Wood)&#45;&gt;5,8 (Ulric Food) -->
<g id="edge1" class="edge">
<title>3,7 (Wood)&#45;&gt;5,8 (Ulric Food)</title>
<path fill="none" stroke="black" stroke-width="1.35" d="M691.95,-385.59C656.1,-336.24 555.06,-197.18 512.73,-138.92"/>
<polygon fill="black" stroke="black" stroke-width="1.35" points="515.41,-136.64 506.7,-130.61 509.74,-140.75 515.41,-136.64"/>
<text text-anchor="middle" x="557.34" y="-266.05" font-family="Times,serif" font-size="14.00">wood*27120</text>
</g>
<!-- 3,6 (Phosphoric Acid and Phosphine gas) -->
<g id="node3" class="node">
<title>3,6 (Phosphoric Acid and Phosphine gas)</title>
<ellipse fill="none" stroke="black" cx="841.89" cy="-18" rx="200.36" ry="18"/>
<text text-anchor="middle" x="841.89" y="-14.3" font-family="Times,serif" font-size="14.00">3,6 (Phosphoric Acid and Phosphine gas)</text>
</g>
<!-- 3,7 (Wood)&#45;&gt;3,6 (Phosphoric Acid and Phosphine gas) -->
<g id="edge2" class="edge">
<title>3,7 (Wood)&#45;&gt;3,6 (Phosphoric Acid and Phosphine gas)</title>
<path fill="none" stroke="black" stroke-width="1" d="M711.27,-385.26C733.25,-323.44 805.57,-120.13 832.05,-45.65"/>
<polygon fill="black" stroke="black" stroke-width="1" points="835.42,-46.62 835.48,-36.03 828.83,-44.28 835.42,-46.62"/>
<text text-anchor="middle" x="726.66" y="-219.26" font-family="Times,serif" font-size="14.00">wood*20160</text>
</g>
<!-- &#45;3,7 (item=sea&#45;sponge&#45;sprouts Also Borax) -->
<g id="node4" class="node">
<title>&#45;3,7 (item=sea&#45;sponge&#45;sprouts Also Borax)</title>
<ellipse fill="none" stroke="black" cx="982.95" cy="-464.31" rx="209.06" ry="18"/>
<text text-anchor="middle" x="982.95" y="-460.61" font-family="Times,serif" font-size="14.00">&#45;3,7 (item=sea&#45;sponge&#45;sprouts Also Borax)</text>
</g>
<!-- 3,7 (Wood)&#45;&gt;&#45;3,7 (item=sea&#45;sponge&#45;sprouts Also Borax) -->
<g id="edge3" class="edge">
<title>3,7 (Wood)&#45;&gt;&#45;3,7 (item=sea&#45;sponge&#45;sprouts Also Borax)</title>
<path fill="none" stroke="black" stroke-width="1" d="M753.92,-414.09C793.3,-422.73 849.55,-435.06 896.45,-445.35"/>
<polygon fill="black" stroke="black" stroke-width="1" points="895.79,-448.78 906.3,-447.51 897.29,-441.95 895.79,-448.78"/>
<text text-anchor="middle" x="780.18" y="-433.52" font-family="Times,serif" font-size="14.00">wood*20000</text>
</g>
<!-- &#45;6,&#45;2 (item=fertilizer Fertiliser) -->
<g id="node5" class="node">
<title>&#45;6,&#45;2 (item=fertilizer Fertiliser)</title>
<ellipse fill="none" stroke="black" cx="493.71" cy="-693.93" rx="155.97" ry="18"/>
<text text-anchor="middle" x="493.71" y="-690.23" font-family="Times,serif" font-size="14.00">&#45;6,&#45;2 (item=fertilizer Fertiliser)</text>
</g>
<!-- 3,7 (Wood)&#45;&gt;&#45;6,&#45;2 (item=fertilizer Fertiliser) -->
<g id="edge4" class="edge">
<title>3,7 (Wood)&#45;&gt;&#45;6,&#45;2 (item=fertilizer Fertiliser)</title>
<path fill="none" stroke="black" stroke-width="0.61" d="M691.95,-421.07C656.18,-470.3 555.54,-608.82 513.04,-667.33"/>
<polygon fill="black" stroke="black" stroke-width="0.61" points="510.01,-665.53 506.97,-675.68 515.68,-669.65 510.01,-665.53"/>
<text text-anchor="middle" x="557.49" y="-548" font-family="Times,serif" font-size="14.00">wood*12240</text>
</g>
<!-- 4,7 (Cottonguts) -->
<g id="node6" class="node">
<title>4,7 (Cottonguts)</title>
<ellipse fill="none" stroke="black" cx="152.09" cy="-223.73" rx="87.18" ry="18"/>
<text text-anchor="middle" x="152.09" y="-220.03" font-family="Times,serif" font-size="14.00">4,7 (Cottonguts)</text>
</g>
<!-- 3,7 (Wood)&#45;&gt;4,7 (Cottonguts) -->
<g id="edge5" class="edge">
<title>3,7 (Wood)&#45;&gt;4,7 (Cottonguts)</title>
<path fill="none" stroke="black" stroke-width="2.49" d="M663.75,-389.98C566.11,-358.25 320.09,-278.32 208.58,-242.09"/>
<polygon fill="black" stroke="black" stroke-width="2.49" points="209.45,-238.69 198.86,-238.93 207.29,-245.35 209.45,-238.69"/>
<text text-anchor="middle" x="391.16" y="-319.83" font-family="Times,serif" font-size="14.00">wood*50000</text>
</g>
<!-- &#45;3,4 (Lard from Cottonguts) -->
<g id="node8" class="node">
<title>&#45;3,4 (Lard from Cottonguts)</title>
<ellipse fill="none" stroke="black" cx="799.45" cy="-832.57" rx="139.18" ry="18"/>
<text text-anchor="middle" x="799.45" y="-828.87" font-family="Times,serif" font-size="14.00">&#45;3,4 (Lard from Cottonguts)</text>
</g>
<!-- 3,7 (Wood)&#45;&gt;&#45;3,4 (Lard from Cottonguts) -->
<g id="edge9" class="edge">
<title>3,7 (Wood)&#45;&gt;&#45;3,4 (Lard from Cottonguts)</title>
<path fill="none" stroke="black" stroke-width="0.5" d="M708.85,-421.5C723.62,-488.54 775.16,-722.35 793.17,-804.09"/>
<polygon fill="black" stroke="black" stroke-width="0.5" points="789.82,-805.14 795.39,-814.15 796.66,-803.64 789.82,-805.14"/>
<text text-anchor="middle" x="706.01" y="-616.6" font-family="Times,serif" font-size="14.00">wood*10000</text>
</g>
<!-- &#45;1,5 (Train stops for bus brick) -->
<g id="node7" class="node">
<title>&#45;1,5 (Train stops for bus brick)</title>
<ellipse fill="none" stroke="black" cx="152.09" cy="-582.93" rx="152.17" ry="18"/>
<text text-anchor="middle" x="152.09" y="-579.23" font-family="Times,serif" font-size="14.00">&#45;1,5 (Train stops for bus brick)</text>
</g>
<!-- &#45;1,5 (Train stops for bus brick)&#45;&gt;5,8 (Ulric Food) -->
<g id="edge7" class="edge">
<title>&#45;1,5 (Train stops for bus brick)&#45;&gt;5,8 (Ulric Food)</title>
<path fill="none" stroke="black" stroke-width="1.35" d="M165.27,-564.79C217.85,-492.41 412.75,-224.16 474.68,-138.91"/>
<polygon fill="black" stroke="black" stroke-width="1.35" points="477.7,-140.71 480.75,-130.57 472.04,-136.6 477.7,-140.71"/>
<text text-anchor="middle" x="274.98" y="-355.65" font-family="Times,serif" font-size="14.00">wood*27118</text>
</g>
<!-- &#45;1,5 (Train stops for bus brick)&#45;&gt;&#45;6,&#45;2 (item=fertilizer Fertiliser) -->
<g id="edge6" class="edge">
<title>&#45;1,5 (Train stops for bus brick)&#45;&gt;&#45;6,&#45;2 (item=fertilizer Fertiliser)</title>
<path fill="none" stroke="black" stroke-width="0.2" d="M204.34,-599.91C265.5,-619.78 366.67,-652.65 431.73,-673.79"/>
<polygon fill="black" stroke="black" stroke-width="0.2" points="430.86,-677.19 441.46,-676.95 433.03,-670.53 430.86,-677.19"/>
<text text-anchor="middle" x="277.54" y="-640.65" font-family="Times,serif" font-size="14.00">wood*4032</text>
</g>
<!-- &#45;1,5 (Train stops for bus brick)&#45;&gt;4,7 (Cottonguts) -->
<g id="edge8" class="edge">
<title>&#45;1,5 (Train stops for bus brick)&#45;&gt;4,7 (Cottonguts)</title>
<path fill="none" stroke="black" stroke-width="0.5" d="M152.09,-564.62C152.09,-506.13 152.09,-323.46 152.09,-252.41"/>
<polygon fill="black" stroke="black" stroke-width="0.5" points="155.59,-252 152.09,-242 148.59,-252 155.59,-252"/>
<text text-anchor="middle" x="107.09" y="-412.32" font-family="Times,serif" font-size="14.00">wood*10010</text>
</g>
</g>
</svg>
