<?xml version="1.0" encoding="UTF-8" standalone="no"?>
<!DOCTYPE svg PUBLIC "-//W3C//DTD SVG 1.1//EN"
 "http://www.w3.org/Graphics/SVG/1.1/DTD/svg11.dtd">
<!-- Generated by graphviz version 2.43.0 (0)
 -->
<!-- Title: %3 Pages: 1 -->
<svg width="1247pt" height="900pt"
 viewBox="0.00 0.00 1246.67 899.79" xmlns="http://www.w3.org/2000/svg" xmlns:xlink="http://www.w3.org/1999/xlink">
<g id="graph0" class="graph" transform="scale(1 1) rotate(0) translate(4 895.79)">
<title>%3</title>
<polygon fill="white" stroke="transparent" points="-4,4 -4,-895.79 1242.67,-895.79 1242.67,4 -4,4"/>
<!-- 4,15 (Half an Ash) -->
<g id="node1" class="node">
<title>4,15 (Half an Ash)</title>
<ellipse fill="none" stroke="black" cx="94.89" cy="-596.44" rx="94.78" ry="18"/>
<text text-anchor="middle" x="94.89" y="-592.74" font-family="Times,serif" font-size="14.00">4,15 (Half an Ash)</text>
</g>
<!-- 3,6 (Phosphoric Acid and Phosphine gas) -->
<g id="node2" class="node">
<title>3,6 (Phosphoric Acid and Phosphine gas)</title>
<ellipse fill="none" stroke="black" cx="774.89" cy="-375.5" rx="200.36" ry="18"/>
<text text-anchor="middle" x="774.89" y="-371.8" font-family="Times,serif" font-size="14.00">3,6 (Phosphoric Acid and Phosphine gas)</text>
</g>
<!-- 4,15 (Half an Ash)&#45;&gt;3,6 (Phosphoric Acid and Phosphine gas) -->
<g id="edge1" class="edge">
<title>4,15 (Half an Ash)&#45;&gt;3,6 (Phosphoric Acid and Phosphine gas)</title>
<path fill="none" stroke="black" stroke-width="1.6" d="M142.98,-580.82C263.09,-541.79 576.25,-440.04 711.34,-396.15"/>
<polygon fill="black" stroke="black" stroke-width="1.6" points="712.71,-399.38 721.14,-392.96 710.55,-392.72 712.71,-399.38"/>
<text text-anchor="middle" x="384.16" y="-492.28" font-family="Times,serif" font-size="14.00">ash*118480</text>
</g>
<!-- 5,2 (Raw Fiber) -->
<g id="node4" class="node">
<title>5,2 (Raw Fiber)</title>
<ellipse fill="none" stroke="black" cx="515.16" cy="-733" rx="83.39" ry="18"/>
<text text-anchor="middle" x="515.16" y="-729.3" font-family="Times,serif" font-size="14.00">5,2 (Raw Fiber)</text>
</g>
<!-- 4,15 (Half an Ash)&#45;&gt;5,2 (Raw Fiber) -->
<g id="edge7" class="edge">
<title>4,15 (Half an Ash)&#45;&gt;5,2 (Raw Fiber)</title>
<path fill="none" stroke="black" stroke-width="1.04" d="M143.1,-612.11C221.5,-637.58 376.18,-687.84 459.27,-714.84"/>
<polygon fill="black" stroke="black" stroke-width="1.04" points="458.2,-718.17 468.79,-717.93 460.36,-711.51 458.2,-718.17"/>
<text text-anchor="middle" x="262.68" y="-667.27" font-family="Times,serif" font-size="14.00">ash*76704</text>
</g>
<!-- 4,&#45;2 (Ceramic) -->
<g id="node6" class="node">
<title>4,&#45;2 (Ceramic)</title>
<ellipse fill="none" stroke="black" cx="94.89" cy="-154.55" rx="76.89" ry="18"/>
<text text-anchor="middle" x="94.89" y="-150.85" font-family="Times,serif" font-size="14.00">4,&#45;2 (Ceramic)</text>
</g>
<!-- 4,15 (Half an Ash)&#45;&gt;4,&#45;2 (Ceramic) -->
<g id="edge6" class="edge">
<title>4,15 (Half an Ash)&#45;&gt;4,&#45;2 (Ceramic)</title>
<path fill="none" stroke="black" stroke-width="0.16" d="M94.89,-578.3C94.89,-509.75 94.89,-266.28 94.89,-182.85"/>
<polygon fill="black" stroke="black" stroke-width="0.16" points="98.39,-182.61 94.89,-172.61 91.39,-182.61 98.39,-182.61"/>
<text text-anchor="middle" x="56.39" y="-384.37" font-family="Times,serif" font-size="14.00">ash*11616</text>
</g>
<!-- 3,6 (Phosphoric Acid and Phosphine gas)&#45;&gt;3,6 (Phosphoric Acid and Phosphine gas) -->
<g id="edge4" class="edge">
<title>3,6 (Phosphoric Acid and Phosphine gas)&#45;&gt;3,6 (Phosphoric Acid and Phosphine gas)</title>
<path fill="none" stroke="black" stroke-width="4.45" d="M966.38,-380.76C982.81,-379.64 993.08,-377.89 993.08,-375.5 993.08,-373.65 986.94,-372.18 976.55,-371.09"/>
<polygon fill="black" stroke="black" stroke-width="4.45" points="976.67,-367.19 966.38,-370.23 976.01,-374.95 976.67,-367.19"/>
<text text-anchor="middle" x="1036.08" y="-371.8" font-family="Times,serif" font-size="14.00">ash*328576</text>
</g>
<!-- 3,6 (Phosphoric Acid and Phosphine gas)&#45;&gt;5,2 (Raw Fiber) -->
<g id="edge5" class="edge">
<title>3,6 (Phosphoric Acid and Phosphine gas)&#45;&gt;5,2 (Raw Fiber)</title>
<path fill="none" stroke="black" stroke-width="1.51" d="M761.66,-393.72C718.93,-452.53 584.55,-637.49 534.33,-706.6"/>
<polygon fill="black" stroke="black" stroke-width="1.51" points="531.41,-704.67 528.37,-714.81 537.08,-708.78 531.41,-704.67"/>
<text text-anchor="middle" x="604.99" y="-553.96" font-family="Times,serif" font-size="14.00">ash*111328</text>
</g>
<!-- 3,6 (Phosphoric Acid and Phosphine gas)&#45;&gt;4,&#45;2 (Ceramic) -->
<g id="edge12" class="edge">
<title>3,6 (Phosphoric Acid and Phosphine gas)&#45;&gt;4,&#45;2 (Ceramic)</title>
<path fill="none" stroke="black" stroke-width="0.45" d="M721.25,-358.07C594.41,-316.85 277.09,-213.75 149.39,-172.26"/>
<polygon fill="black" stroke="black" stroke-width="0.45" points="150.4,-168.91 139.8,-169.14 148.23,-175.56 150.4,-168.91"/>
<text text-anchor="middle" x="396.82" y="-268.96" font-family="Times,serif" font-size="14.00">ash*33232</text>
</g>
<!-- 0,7 (Coal Gas) -->
<g id="node3" class="node">
<title>0,7 (Coal Gas)</title>
<ellipse fill="none" stroke="black" cx="560.9" cy="-873.79" rx="76.09" ry="18"/>
<text text-anchor="middle" x="560.9" y="-870.09" font-family="Times,serif" font-size="14.00">0,7 (Coal Gas)</text>
</g>
<!-- 0,7 (Coal Gas)&#45;&gt;5,2 (Raw Fiber) -->
<g id="edge2" class="edge">
<title>0,7 (Coal Gas)&#45;&gt;5,2 (Raw Fiber)</title>
<path fill="none" stroke="black" stroke-width="0.14" d="M555.02,-855.68C547.19,-831.6 533.3,-788.83 524.15,-760.69"/>
<polygon fill="black" stroke="black" stroke-width="0.14" points="527.44,-759.47 521.02,-751.05 520.78,-761.64 527.44,-759.47"/>
<text text-anchor="middle" x="501.09" y="-811.98" font-family="Times,serif" font-size="14.00">ash*10196</text>
</g>
<!-- 5,3 (Ash) -->
<g id="node5" class="node">
<title>5,3 (Ash)</title>
<ellipse fill="none" stroke="black" cx="515.16" cy="-18" rx="51.99" ry="18"/>
<text text-anchor="middle" x="515.16" y="-14.3" font-family="Times,serif" font-size="14.00">5,3 (Ash)</text>
</g>
<!-- 5,3 (Ash)&#45;&gt;3,6 (Phosphoric Acid and Phosphine gas) -->
<g id="edge11" class="edge">
<title>5,3 (Ash)&#45;&gt;3,6 (Phosphoric Acid and Phosphine gas)</title>
<path fill="none" stroke="black" stroke-width="1.1" d="M528.04,-35.73C570.34,-93.96 705.22,-279.6 755.63,-348.99"/>
<polygon fill="black" stroke="black" stroke-width="1.1" points="752.92,-351.2 761.63,-357.24 758.58,-347.09 752.92,-351.2"/>
<text text-anchor="middle" x="603.34" y="-196.16" font-family="Times,serif" font-size="14.00">ash*81056</text>
</g>
<!-- 5,3 (Ash)&#45;&gt;5,2 (Raw Fiber) -->
<g id="edge3" class="edge">
<title>5,3 (Ash)&#45;&gt;5,2 (Raw Fiber)</title>
<path fill="none" stroke="black" stroke-width="0.72" d="M515.16,-36.03C515.16,-132.33 515.16,-586.01 515.16,-704.58"/>
<polygon fill="black" stroke="black" stroke-width="0.72" points="511.66,-704.69 515.16,-714.69 518.66,-704.69 511.66,-704.69"/>
<text text-anchor="middle" x="476.66" y="-374.11" font-family="Times,serif" font-size="14.00">ash*53440</text>
</g>
<!-- 5,3 (Ash)&#45;&gt;4,&#45;2 (Ceramic) -->
<g id="edge9" class="edge">
<title>5,3 (Ash)&#45;&gt;4,&#45;2 (Ceramic)</title>
<path fill="none" stroke="black" stroke-width="0.42" d="M477.12,-30.36C402.41,-54.63 236.26,-108.62 149.71,-136.74"/>
<polygon fill="black" stroke="black" stroke-width="0.42" points="148.5,-133.45 140.07,-139.87 150.66,-140.11 148.5,-133.45"/>
<text text-anchor="middle" x="274.91" y="-87.35" font-family="Times,serif" font-size="14.00">ash*31296</text>
</g>
<!-- &#45;2,8 (syngas from coal dust and also wood) -->
<g id="node7" class="node">
<title>&#45;2,8 (syngas from coal dust and also wood)</title>
<ellipse fill="none" stroke="black" cx="1030.04" cy="-194.34" rx="208.76" ry="18"/>
<text text-anchor="middle" x="1030.04" y="-190.64" font-family="Times,serif" font-size="14.00">&#45;2,8 (syngas from coal dust and also wood)</text>
</g>
<!-- &#45;2,8 (syngas from coal dust and also wood)&#45;&gt;3,6 (Phosphoric Acid and Phosphine gas) -->
<g id="edge8" class="edge">
<title>&#45;2,8 (syngas from coal dust and also wood)&#45;&gt;3,6 (Phosphoric Acid and Phosphine gas)</title>
<path fill="none" stroke="black" stroke-width="0.14" d="M1004.64,-212.37C958.31,-245.27 860.11,-314.99 808.38,-351.72"/>
<polygon fill="black" stroke="black" stroke-width="0.14" points="806.32,-348.9 800.19,-357.54 810.37,-354.6 806.32,-348.9"/>
<text text-anchor="middle" x="868.01" y="-285.85" font-family="Times,serif" font-size="14.00">ash*10148</text>
</g>
<!-- 2,7 (Mystery petrochemicals) -->
<g id="node8" class="node">
<title>2,7 (Mystery petrochemicals)</title>
<ellipse fill="none" stroke="black" cx="1010.47" cy="-614.51" rx="147.57" ry="18"/>
<text text-anchor="middle" x="1010.47" y="-610.81" font-family="Times,serif" font-size="14.00">2,7 (Mystery petrochemicals)</text>
</g>
<!-- 2,7 (Mystery petrochemicals)&#45;&gt;3,6 (Phosphoric Acid and Phosphine gas) -->
<g id="edge10" class="edge">
<title>2,7 (Mystery petrochemicals)&#45;&gt;3,6 (Phosphoric Acid and Phosphine gas)</title>
<path fill="none" stroke="black" stroke-width="0.28" d="M992.77,-596.54C951.33,-554.5 847.92,-449.59 800,-400.97"/>
<polygon fill="black" stroke="black" stroke-width="0.28" points="802.32,-398.34 792.81,-393.67 797.33,-403.25 802.32,-398.34"/>
<text text-anchor="middle" x="857.88" y="-502.56" font-family="Times,serif" font-size="14.00">ash*20368</text>
</g>
</g>
</svg>
