<?xml version="1.0" encoding="UTF-8" standalone="no"?>
<!DOCTYPE svg PUBLIC "-//W3C//DTD SVG 1.1//EN"
 "http://www.w3.org/Graphics/SVG/1.1/DTD/svg11.dtd">
<!-- Generated by graphviz version 2.43.0 (0)
 -->
<!-- Title: %3 Pages: 1 -->
<svg width="637pt" height="517pt"
 viewBox="0.00 0.00 637.50 517.40" xmlns="http://www.w3.org/2000/svg" xmlns:xlink="http://www.w3.org/1999/xlink">
<g id="graph0" class="graph" transform="scale(1 1) rotate(0) translate(4 513.4)">
<title>%3</title>
<polygon fill="white" stroke="transparent" points="-4,4 -4,-513.4 633.5,-513.4 633.5,4 -4,4"/>
<!-- &#45;1,&#45;2 (Aramid fiber) -->
<g id="node1" class="node">
<title>&#45;1,&#45;2 (Aramid fiber)</title>
<ellipse fill="none" stroke="black" cx="257.87" cy="-246.43" rx="99.38" ry="18"/>
<text text-anchor="middle" x="257.87" y="-242.73" font-family="Times,serif" font-size="14.00">&#45;1,&#45;2 (Aramid fiber)</text>
</g>
<!-- &#45;5,2 (Optical fiber) -->
<g id="node2" class="node">
<title>&#45;5,2 (Optical fiber)</title>
<ellipse fill="none" stroke="black" cx="533.31" cy="-246.43" rx="96.38" ry="18"/>
<text text-anchor="middle" x="533.31" y="-242.73" font-family="Times,serif" font-size="14.00">&#45;5,2 (Optical fiber)</text>
</g>
<!-- &#45;1,&#45;2 (Aramid fiber)&#45;&gt;&#45;5,2 (Optical fiber) -->
<g id="edge1" class="edge">
<title>&#45;1,&#45;2 (Aramid fiber)&#45;&gt;&#45;5,2 (Optical fiber)</title>
<path fill="none" stroke="black" stroke-width="1.38" d="M357.7,-246.43C380.23,-246.43 404.23,-246.43 427.01,-246.43"/>
<polygon fill="black" stroke="black" stroke-width="1.38" points="427.04,-249.94 437.04,-246.43 427.04,-242.94 427.04,-249.94"/>
<text text-anchor="middle" x="392.36" y="-235.23" font-family="Times,serif" font-size="14.00">aramid*10016</text>
</g>
<!-- 0,0 (LE BUS) -->
<g id="node3" class="node">
<title>0,0 (LE BUS)</title>
<ellipse fill="none" stroke="black" cx="131.95" cy="-491.4" rx="71.49" ry="18"/>
<text text-anchor="middle" x="131.95" y="-487.7" font-family="Times,serif" font-size="14.00">0,0 (LE BUS)</text>
</g>
<!-- &#45;1,&#45;2 (Aramid fiber)&#45;&gt;0,0 (LE BUS) -->
<g id="edge2" class="edge">
<title>&#45;1,&#45;2 (Aramid fiber)&#45;&gt;0,0 (LE BUS)</title>
<path fill="none" stroke="black" stroke-width="0.57" d="M248.62,-264.45C226.74,-307.01 171.75,-413.97 145.85,-464.35"/>
<polygon fill="black" stroke="black" stroke-width="0.57" points="142.68,-462.86 141.22,-473.36 148.91,-466.06 142.68,-462.86"/>
<text text-anchor="middle" x="150.23" y="-368.2" font-family="Times,serif" font-size="14.00">aramid*4112</text>
</g>
<!-- &#45;3,9 (Silicon Wafers) -->
<g id="node4" class="node">
<title>&#45;3,9 (Silicon Wafers)</title>
<ellipse fill="none" stroke="black" cx="103.99" cy="-18" rx="103.98" ry="18"/>
<text text-anchor="middle" x="103.99" y="-14.3" font-family="Times,serif" font-size="14.00">&#45;3,9 (Silicon Wafers)</text>
</g>
<!-- &#45;1,&#45;2 (Aramid fiber)&#45;&gt;&#45;3,9 (Silicon Wafers) -->
<g id="edge3" class="edge">
<title>&#45;1,&#45;2 (Aramid fiber)&#45;&gt;&#45;3,9 (Silicon Wafers)</title>
<path fill="none" stroke="black" stroke-width="1.05" d="M245.8,-228.51C218.84,-188.49 153.64,-91.7 121.92,-44.61"/>
<polygon fill="black" stroke="black" stroke-width="1.05" points="124.71,-42.5 116.22,-36.16 118.91,-46.41 124.71,-42.5"/>
<text text-anchor="middle" x="136.86" y="-140.36" font-family="Times,serif" font-size="14.00">aramid*7568</text>
</g>
</g>
</svg>
