<?xml version="1.0" encoding="UTF-8" standalone="no"?>
<!DOCTYPE svg PUBLIC "-//W3C//DTD SVG 1.1//EN"
 "http://www.w3.org/Graphics/SVG/1.1/DTD/svg11.dtd">
<!-- Generated by graphviz version 2.43.0 (0)
 -->
<!-- Title: %3 Pages: 1 -->
<svg width="810pt" height="44pt"
 viewBox="0.00 0.00 809.74 44.00" xmlns="http://www.w3.org/2000/svg" xmlns:xlink="http://www.w3.org/1999/xlink">
<g id="graph0" class="graph" transform="scale(1 1) rotate(0) translate(4 40)">
<title>%3</title>
<polygon fill="white" stroke="transparent" points="-4,4 -4,-40 805.74,-40 805.74,4 -4,4"/>
<!-- 8,&#45;2 (Lead mine) -->
<g id="node1" class="node">
<title>8,&#45;2 (Lead mine)</title>
<ellipse fill="none" stroke="black" cx="86.44" cy="-18" rx="86.38" ry="18"/>
<text text-anchor="middle" x="86.44" y="-14.3" font-family="Times,serif" font-size="14.00">8,&#45;2 (Lead mine)</text>
</g>
<!-- &#45;3,3 (Lead dust (silver plate)) -->
<g id="node2" class="node">
<title>&#45;3,3 (Lead dust (silver plate))</title>
<ellipse fill="none" stroke="black" cx="390.47" cy="-18" rx="145.67" ry="18"/>
<text text-anchor="middle" x="390.47" y="-14.3" font-family="Times,serif" font-size="14.00">&#45;3,3 (Lead dust (silver plate))</text>
</g>
<!-- 8,&#45;2 (Lead mine)&#45;&gt;&#45;3,3 (Lead dust (silver plate)) -->
<g id="edge1" class="edge">
<title>8,&#45;2 (Lead mine)&#45;&gt;&#45;3,3 (Lead dust (silver plate))</title>
<path fill="none" stroke="black" stroke-width="1.62" d="M173.16,-18C192.48,-18 213.53,-18 234.69,-18"/>
<polygon fill="black" stroke="black" stroke-width="1.62" points="234.74,-21.5 244.74,-18 234.74,-14.5 234.74,-21.5"/>
<text text-anchor="middle" x="203.92" y="-6.8" font-family="Times,serif" font-size="14.00">grade&#45;1&#45;lead*425136</text>
</g>
<!-- &#45;3,6 (Mining brick) -->
<g id="node3" class="node">
<title>&#45;3,6 (Mining brick)</title>
<ellipse fill="none" stroke="black" cx="704.9" cy="-18" rx="96.68" ry="18"/>
<text text-anchor="middle" x="704.9" y="-14.3" font-family="Times,serif" font-size="14.00">&#45;3,6 (Mining brick)</text>
</g>
<!-- &#45;3,6 (Mining brick)&#45;&gt;&#45;3,3 (Lead dust (silver plate)) -->
<g id="edge2" class="edge">
<title>&#45;3,6 (Mining brick)&#45;&gt;&#45;3,3 (Lead dust (silver plate))</title>
<path fill="none" stroke="black" stroke-width="0.38" d="M608,-18C588.37,-18 567.26,-18 546.19,-18"/>
<polygon fill="black" stroke="black" stroke-width="0.38" points="546.19,-14.5 536.19,-18 546.19,-21.5 546.19,-14.5"/>
<text text-anchor="middle" x="539.34" y="-6.8" font-family="Times,serif" font-size="14.00">grade&#45;1&#45;lead*100160</text>
</g>
</g>
</svg>
