<?xml version="1.0" encoding="UTF-8" standalone="no"?>
<!DOCTYPE svg PUBLIC "-//W3C//DTD SVG 1.1//EN"
 "http://www.w3.org/Graphics/SVG/1.1/DTD/svg11.dtd">
<!-- Generated by graphviz version 2.43.0 (0)
 -->
<!-- Title: %3 Pages: 1 -->
<svg width="1961pt" height="1705pt"
 viewBox="0.00 0.00 1961.18 1704.91" xmlns="http://www.w3.org/2000/svg" xmlns:xlink="http://www.w3.org/1999/xlink">
<g id="graph0" class="graph" transform="scale(1 1) rotate(0) translate(4 1700.91)">
<title>%3</title>
<polygon fill="white" stroke="transparent" points="-4,4 -4,-1700.91 1957.18,-1700.91 1957.18,4 -4,4"/>
<!-- &#45;5,&#45;1 (Coal and Coke and Syngas and Ash and Coke Oven Gas and...) -->
<g id="node1" class="node">
<title>&#45;5,&#45;1 (Coal and Coke and Syngas and Ash and Coke Oven Gas and...)</title>
<ellipse fill="none" stroke="black" cx="1155.61" cy="-172.66" rx="325.74" ry="18"/>
<text text-anchor="middle" x="1155.61" y="-168.96" font-family="Times,serif" font-size="14.00">&#45;5,&#45;1 (Coal and Coke and Syngas and Ash and Coke Oven Gas and...)</text>
</g>
<!-- 1,7 (Activated Carbon) -->
<g id="node2" class="node">
<title>1,7 (Activated Carbon)</title>
<ellipse fill="none" stroke="black" cx="1500.93" cy="-770.78" rx="115.88" ry="18"/>
<text text-anchor="middle" x="1500.93" y="-767.08" font-family="Times,serif" font-size="14.00">1,7 (Activated Carbon)</text>
</g>
<!-- &#45;5,&#45;1 (Coal and Coke and Syngas and Ash and Coke Oven Gas and...)&#45;&gt;1,7 (Activated Carbon) -->
<g id="edge1" class="edge">
<title>&#45;5,&#45;1 (Coal and Coke and Syngas and Ash and Coke Oven Gas and...)&#45;&gt;1,7 (Activated Carbon)</title>
<path fill="none" stroke="black" stroke-width="1.42" d="M1166.13,-190.89C1215.73,-276.8 1426.23,-641.39 1485.4,-743.88"/>
<polygon fill="black" stroke="black" stroke-width="1.42" points="1482.46,-745.79 1490.49,-752.7 1488.52,-742.29 1482.46,-745.79"/>
<text text-anchor="middle" x="1267.26" y="-471.19" font-family="Times,serif" font-size="14.00">coal&#45;dust*33824</text>
</g>
<!-- &#45;2,8 (syngas from coal dust and also wood) -->
<g id="node3" class="node">
<title>&#45;2,8 (syngas from coal dust and also wood)</title>
<ellipse fill="none" stroke="black" cx="464.96" cy="-172.66" rx="208.76" ry="18"/>
<text text-anchor="middle" x="464.96" y="-168.96" font-family="Times,serif" font-size="14.00">&#45;2,8 (syngas from coal dust and also wood)</text>
</g>
<!-- &#45;5,&#45;1 (Coal and Coke and Syngas and Ash and Coke Oven Gas and...)&#45;&gt;&#45;2,8 (syngas from coal dust and also wood) -->
<g id="edge2" class="edge">
<title>&#45;5,&#45;1 (Coal and Coke and Syngas and Ash and Coke Oven Gas and...)&#45;&gt;&#45;2,8 (syngas from coal dust and also wood)</title>
<path fill="none" stroke="black" stroke-width="0.97" d="M829.75,-172.66C780.27,-172.66 730.26,-172.66 683.79,-172.66"/>
<polygon fill="black" stroke="black" stroke-width="0.97" points="683.62,-169.16 673.62,-172.66 683.62,-176.16 683.62,-169.16"/>
<text text-anchor="middle" x="756.77" y="-161.46" font-family="Times,serif" font-size="14.00">coal&#45;dust*23088</text>
</g>
<!-- &#45;3,9 (Silicon Wafers) -->
<g id="node5" class="node">
<title>&#45;3,9 (Silicon Wafers)</title>
<ellipse fill="none" stroke="black" cx="464.96" cy="-1368.9" rx="103.98" ry="18"/>
<text text-anchor="middle" x="464.96" y="-1365.2" font-family="Times,serif" font-size="14.00">&#45;3,9 (Silicon Wafers)</text>
</g>
<!-- &#45;5,&#45;1 (Coal and Coke and Syngas and Ash and Coke Oven Gas and...)&#45;&gt;&#45;3,9 (Silicon Wafers) -->
<g id="edge11" class="edge">
<title>&#45;5,&#45;1 (Coal and Coke and Syngas and Ash and Coke Oven Gas and...)&#45;&gt;&#45;3,9 (Silicon Wafers)</title>
<path fill="none" stroke="black" stroke-width="0.18" d="M1145.04,-190.98C1066.58,-326.86 575.37,-1177.66 480.73,-1341.59"/>
<polygon fill="black" stroke="black" stroke-width="0.18" points="477.52,-1340.14 475.55,-1350.55 483.58,-1343.64 477.52,-1340.14"/>
<text text-anchor="middle" x="758.88" y="-755.08" font-family="Times,serif" font-size="14.00">coal&#45;dust*4240</text>
</g>
<!-- 2,8 (Graphite) -->
<g id="node4" class="node">
<title>2,8 (Graphite)</title>
<ellipse fill="none" stroke="black" cx="119.64" cy="-770.78" rx="76.09" ry="18"/>
<text text-anchor="middle" x="119.64" y="-767.08" font-family="Times,serif" font-size="14.00">2,8 (Graphite)</text>
</g>
<!-- 2,8 (Graphite)&#45;&gt;1,7 (Activated Carbon) -->
<g id="edge3" class="edge">
<title>2,8 (Graphite)&#45;&gt;1,7 (Activated Carbon)</title>
<path fill="none" stroke="black" stroke-width="1.76" d="M195.87,-770.78C422.48,-770.78 1093.65,-770.78 1374.8,-770.78"/>
<polygon fill="black" stroke="black" stroke-width="1.76" points="1375.04,-774.28 1385.04,-770.78 1375.04,-767.28 1375.04,-774.28"/>
<text text-anchor="middle" x="726.84" y="-774.58" font-family="Times,serif" font-size="14.00">coal&#45;dust*42000</text>
</g>
<!-- 2,8 (Graphite)&#45;&gt;&#45;2,8 (syngas from coal dust and also wood) -->
<g id="edge5" class="edge">
<title>2,8 (Graphite)&#45;&gt;&#45;2,8 (syngas from coal dust and also wood)</title>
<path fill="none" stroke="black" stroke-width="3.53" d="M129.97,-752.88C179.22,-667.59 390.11,-302.32 449.4,-199.62"/>
<polygon fill="black" stroke="black" stroke-width="3.53" points="452.53,-201.2 454.5,-190.79 446.47,-197.7 452.53,-201.2"/>
<text text-anchor="middle" x="231.19" y="-480.05" font-family="Times,serif" font-size="14.00">coal&#45;dust*84416</text>
</g>
<!-- 2,8 (Graphite)&#45;&gt;&#45;3,9 (Silicon Wafers) -->
<g id="edge4" class="edge">
<title>2,8 (Graphite)&#45;&gt;&#45;3,9 (Silicon Wafers)</title>
<path fill="none" stroke="black" stroke-width="2.21" d="M129.97,-788.68C179.22,-873.97 390.11,-1239.24 449.4,-1341.94"/>
<polygon fill="black" stroke="black" stroke-width="2.21" points="446.47,-1343.86 454.5,-1350.77 452.53,-1340.36 446.47,-1343.86"/>
<text text-anchor="middle" x="231.19" y="-1069.11" font-family="Times,serif" font-size="14.00">coal&#45;dust*52848</text>
</g>
<!-- &#45;7,5 (item=ore&#45;chromium The loneliest chromium) -->
<g id="node6" class="node">
<title>&#45;7,5 (item=ore&#45;chromium The loneliest chromium)</title>
<ellipse fill="none" stroke="black" cx="1155.61" cy="-1368.9" rx="243.96" ry="18"/>
<text text-anchor="middle" x="1155.61" y="-1365.2" font-family="Times,serif" font-size="14.00">&#45;7,5 (item=ore&#45;chromium The loneliest chromium)</text>
</g>
<!-- &#45;7,5 (item=ore&#45;chromium The loneliest chromium)&#45;&gt;1,7 (Activated Carbon) -->
<g id="edge10" class="edge">
<title>&#45;7,5 (item=ore&#45;chromium The loneliest chromium)&#45;&gt;1,7 (Activated Carbon)</title>
<path fill="none" stroke="black" stroke-width="0.21" d="M1166.13,-1350.67C1215.73,-1264.76 1426.23,-900.17 1485.4,-797.68"/>
<polygon fill="black" stroke="black" stroke-width="0.21" points="1488.52,-799.28 1490.49,-788.87 1482.46,-795.78 1488.52,-799.28"/>
<text text-anchor="middle" x="1271.76" y="-1077.98" font-family="Times,serif" font-size="14.00">coal&#45;dust*5104</text>
</g>
<!-- &#45;7,5 (item=ore&#45;chromium The loneliest chromium)&#45;&gt;&#45;2,8 (syngas from coal dust and also wood) -->
<g id="edge7" class="edge">
<title>&#45;7,5 (item=ore&#45;chromium The loneliest chromium)&#45;&gt;&#45;2,8 (syngas from coal dust and also wood)</title>
<path fill="none" stroke="black" stroke-width="0.42" d="M1145.04,-1350.59C1066.58,-1214.7 575.37,-363.9 480.73,-199.97"/>
<polygon fill="black" stroke="black" stroke-width="0.42" points="483.58,-197.92 475.55,-191.01 477.52,-201.42 483.58,-197.92"/>
<text text-anchor="middle" x="871.38" y="-779.08" font-family="Times,serif" font-size="14.00">coal&#45;dust*10144</text>
</g>
<!-- &#45;7,5 (item=ore&#45;chromium The loneliest chromium)&#45;&gt;&#45;3,9 (Silicon Wafers) -->
<g id="edge6" class="edge">
<title>&#45;7,5 (item=ore&#45;chromium The loneliest chromium)&#45;&gt;&#45;3,9 (Silicon Wafers)</title>
<path fill="none" stroke="black" stroke-width="0.21" d="M911.63,-1368.9C798.55,-1368.9 669.57,-1368.9 579.38,-1368.9"/>
<polygon fill="black" stroke="black" stroke-width="0.21" points="579.13,-1365.4 569.13,-1368.9 579.13,-1372.4 579.13,-1365.4"/>
<text text-anchor="middle" x="691.5" y="-1372.7" font-family="Times,serif" font-size="14.00">coal&#45;dust*5024</text>
</g>
<!-- &#45;6,1 (Coke and Coal Dust from Biomass (needs Iron plates)) -->
<g id="node7" class="node">
<title>&#45;6,1 (Coke and Coal Dust from Biomass (needs Iron plates))</title>
<ellipse fill="none" stroke="black" cx="285.97" cy="-1678.91" rx="285.95" ry="18"/>
<text text-anchor="middle" x="285.97" y="-1675.21" font-family="Times,serif" font-size="14.00">&#45;6,1 (Coke and Coal Dust from Biomass (needs Iron plates))</text>
</g>
<!-- &#45;6,1 (Coke and Coal Dust from Biomass (needs Iron plates))&#45;&gt;&#45;3,9 (Silicon Wafers) -->
<g id="edge8" class="edge">
<title>&#45;6,1 (Coke and Coal Dust from Biomass (needs Iron plates))&#45;&gt;&#45;3,9 (Silicon Wafers)</title>
<path fill="none" stroke="black" stroke-width="1.05" d="M296.37,-1660.9C326.46,-1608.79 413.75,-1457.6 449.46,-1395.75"/>
<polygon fill="black" stroke="black" stroke-width="1.05" points="452.57,-1397.36 454.54,-1386.95 446.51,-1393.86 452.57,-1397.36"/>
<text text-anchor="middle" x="314.42" y="-1532.13" font-family="Times,serif" font-size="14.00">coal&#45;dust*25024</text>
</g>
<!-- 4,3 (item=nexelit&#45;plate Nexelit platery) -->
<g id="node8" class="node">
<title>4,3 (item=nexelit&#45;plate Nexelit platery)</title>
<ellipse fill="none" stroke="black" cx="1758.85" cy="-644.16" rx="194.17" ry="18"/>
<text text-anchor="middle" x="1758.85" y="-640.46" font-family="Times,serif" font-size="14.00">4,3 (item=nexelit&#45;plate Nexelit platery)</text>
</g>
<!-- 4,3 (item=nexelit&#45;plate Nexelit platery)&#45;&gt;1,7 (Activated Carbon) -->
<g id="edge9" class="edge">
<title>4,3 (item=nexelit&#45;plate Nexelit platery)&#45;&gt;1,7 (Activated Carbon)</title>
<path fill="none" stroke="black" stroke-width="0.27" d="M1722.72,-661.9C1676.12,-684.77 1595.14,-724.53 1544.98,-749.15"/>
<polygon fill="black" stroke="black" stroke-width="0.27" points="1543.43,-746.02 1535.99,-753.57 1546.51,-752.3 1543.43,-746.02"/>
<text text-anchor="middle" x="1579.85" y="-709.33" font-family="Times,serif" font-size="14.00">coal&#45;dust*6544</text>
</g>
<!-- 2,12 (Yet more coke) -->
<g id="node9" class="node">
<title>2,12 (Yet more coke)</title>
<ellipse fill="none" stroke="black" cx="375.67" cy="-18" rx="106.68" ry="18"/>
<text text-anchor="middle" x="375.67" y="-14.3" font-family="Times,serif" font-size="14.00">2,12 (Yet more coke)</text>
</g>
<!-- 2,12 (Yet more coke)&#45;&gt;&#45;2,8 (syngas from coal dust and also wood) -->
<g id="edge12" class="edge">
<title>2,12 (Yet more coke)&#45;&gt;&#45;2,8 (syngas from coal dust and also wood)</title>
<path fill="none" stroke="black" stroke-width="0.45" d="M386.08,-36.04C401.66,-63.02 431.13,-114.06 449.31,-145.55"/>
<polygon fill="black" stroke="black" stroke-width="0.45" points="446.3,-147.34 454.33,-154.25 452.36,-143.84 446.3,-147.34"/>
<text text-anchor="middle" x="359.2" y="-94.6" font-family="Times,serif" font-size="14.00">coal&#45;dust*10752</text>
</g>
<!-- 3,16 (More Coke) -->
<g id="node10" class="node">
<title>3,16 (More Coke)</title>
<ellipse fill="none" stroke="black" cx="1739.68" cy="-998.9" rx="90.98" ry="18"/>
<text text-anchor="middle" x="1739.68" y="-995.2" font-family="Times,serif" font-size="14.00">3,16 (More Coke)</text>
</g>
<!-- 3,16 (More Coke)&#45;&gt;1,7 (Activated Carbon) -->
<g id="edge13" class="edge">
<title>3,16 (More Coke)&#45;&gt;1,7 (Activated Carbon)</title>
<path fill="none" stroke="black" stroke-width="0.31" d="M1720.94,-981C1678.58,-940.52 1575.34,-841.88 1526.87,-795.56"/>
<polygon fill="black" stroke="black" stroke-width="0.31" points="1529.23,-792.97 1519.58,-788.6 1524.39,-798.04 1529.23,-792.97"/>
<text text-anchor="middle" x="1569.91" y="-892.08" font-family="Times,serif" font-size="14.00">coal&#45;dust*7440</text>
</g>
</g>
</svg>
