<?xml version="1.0" encoding="UTF-8" standalone="no"?>
<!DOCTYPE svg PUBLIC "-//W3C//DTD SVG 1.1//EN"
 "http://www.w3.org/Graphics/SVG/1.1/DTD/svg11.dtd">
<!-- Generated by graphviz version 2.43.0 (0)
 -->
<!-- Title: %3 Pages: 1 -->
<svg width="7005pt" height="6842pt"
 viewBox="0.00 0.00 7004.83 6842.02" xmlns="http://www.w3.org/2000/svg" xmlns:xlink="http://www.w3.org/1999/xlink">
<g id="graph0" class="graph" transform="scale(1 1) rotate(0) translate(4 6838.02)">
<title>%3</title>
<polygon fill="white" stroke="transparent" points="-4,4 -4,-6838.02 7000.83,-6838.02 7000.83,4 -4,4"/>
<!-- 0,11 () -->
<g id="node1" class="node">
<title>0,11 ()</title>
<ellipse fill="none" stroke="black" cx="2652.63" cy="-4144.68" rx="40.89" ry="18"/>
<text text-anchor="middle" x="2652.63" y="-4140.98" font-family="Times,serif" font-size="14.00">0,11 ()</text>
</g>
<!-- 0,0 (LE BUS) -->
<g id="node2" class="node">
<title>0,0 (LE BUS)</title>
<ellipse fill="none" stroke="black" cx="2099.02" cy="-3825.05" rx="71.49" ry="18"/>
<text text-anchor="middle" x="2099.02" y="-3821.35" font-family="Times,serif" font-size="14.00">0,0 (LE BUS)</text>
</g>
<!-- 0,11 ()&#45;&gt;0,0 (LE BUS) -->
<g id="edge1" class="edge">
<title>0,11 ()&#45;&gt;0,0 (LE BUS)</title>
<path fill="none" stroke="black" stroke-width="5.78" d="M2627.76,-4130.33C2539.65,-4079.45 2241.92,-3907.56 2136.45,-3846.66"/>
<polygon fill="black" stroke="black" stroke-width="5.78" points="2138.91,-3842.25 2127.72,-3841.63 2133.85,-3851.01 2138.91,-3842.25"/>
<text text-anchor="middle" x="2317.1" y="-3992.29" font-family="Times,serif" font-size="14.00">iron&#45;plate*587440</text>
</g>
<!-- 4,&#45;6 () -->
<g id="node3" class="node">
<title>4,&#45;6 ()</title>
<ellipse fill="none" stroke="black" cx="1301.6" cy="-27.84" rx="38.19" ry="18"/>
<text text-anchor="middle" x="1301.6" y="-24.14" font-family="Times,serif" font-size="14.00">4,&#45;6 ()</text>
</g>
<!-- 0,11 ()&#45;&gt;4,&#45;6 () -->
<g id="edge2" class="edge">
<title>0,11 ()&#45;&gt;4,&#45;6 ()</title>
<path fill="none" stroke="black" stroke-width="5.09" d="M2646.75,-4126.78C2555.21,-3847.84 1423.32,-398.74 1310.62,-55.34"/>
<polygon fill="black" stroke="black" stroke-width="5.09" points="1314.8,-53.78 1307.45,-45.67 1306.33,-56.56 1314.8,-53.78"/>
<text text-anchor="middle" x="1913.68" y="-2094.86" font-family="Times,serif" font-size="14.00">iron&#45;plate*517440</text>
</g>
<!-- 4,3 (item=nexelit&#45;plate Nexelit platery) -->
<g id="node4" class="node">
<title>4,3 (item=nexelit&#45;plate Nexelit platery)</title>
<ellipse fill="none" stroke="black" cx="1606.07" cy="-18" rx="194.17" ry="18"/>
<text text-anchor="middle" x="1606.07" y="-14.3" font-family="Times,serif" font-size="14.00">4,3 (item=nexelit&#45;plate Nexelit platery)</text>
</g>
<!-- 0,11 ()&#45;&gt;4,3 (item=nexelit&#45;plate Nexelit platery) -->
<g id="edge3" class="edge">
<title>0,11 ()&#45;&gt;4,3 (item=nexelit&#45;plate Nexelit platery)</title>
<path fill="none" stroke="black" stroke-width="0.26" d="M2648.07,-4126.73C2577.2,-3847.28 1701.25,-393.31 1613.2,-46.09"/>
<polygon fill="black" stroke="black" stroke-width="0.26" points="1616.57,-45.14 1610.72,-36.31 1609.78,-46.86 1616.57,-45.14"/>
<text text-anchor="middle" x="2070.14" y="-2090.21" font-family="Times,serif" font-size="14.00">iron&#45;plate*26160</text>
</g>
<!-- 9,&#45;7 (Filtration mediaer) -->
<g id="node5" class="node">
<title>9,&#45;7 (Filtration mediaer)</title>
<ellipse fill="none" stroke="black" cx="3028.37" cy="-4661.85" rx="122.68" ry="18"/>
<text text-anchor="middle" x="3028.37" y="-4658.15" font-family="Times,serif" font-size="14.00">9,&#45;7 (Filtration mediaer)</text>
</g>
<!-- 0,11 ()&#45;&gt;9,&#45;7 (Filtration mediaer) -->
<g id="edge4" class="edge">
<title>0,11 ()&#45;&gt;9,&#45;7 (Filtration mediaer)</title>
<path fill="none" stroke="black" stroke-width="0.9" d="M2665.13,-4161.89C2720.33,-4237.87 2942.47,-4543.61 3009.27,-4635.56"/>
<polygon fill="black" stroke="black" stroke-width="0.9" points="3006.53,-4637.74 3015.24,-4643.78 3012.19,-4633.63 3006.53,-4637.74"/>
<text text-anchor="middle" x="2776.7" y="-4402.52" font-family="Times,serif" font-size="14.00">iron&#45;plate*91440</text>
</g>
<!-- &#45;1,8 (Fibre via. moss) -->
<g id="node6" class="node">
<title>&#45;1,8 (Fibre via. moss)</title>
<ellipse fill="none" stroke="black" cx="1981.32" cy="-30.1" rx="109.38" ry="18"/>
<text text-anchor="middle" x="1981.32" y="-26.4" font-family="Times,serif" font-size="14.00">&#45;1,8 (Fibre via. moss)</text>
</g>
<!-- 0,11 ()&#45;&gt;&#45;1,8 (Fibre via. moss) -->
<g id="edge5" class="edge">
<title>0,11 ()&#45;&gt;&#45;1,8 (Fibre via. moss)</title>
<path fill="none" stroke="black" stroke-width="0.05" d="M2649.63,-4126.34C2603.66,-3844.53 2042.59,-405.63 1985.93,-58.34"/>
<polygon fill="black" stroke="black" stroke-width="0.05" points="1989.36,-57.64 1984.3,-48.34 1982.45,-58.77 1989.36,-57.64"/>
<text text-anchor="middle" x="2261.78" y="-2096.14" font-family="Times,serif" font-size="14.00">iron&#45;plate*5520</text>
</g>
<!-- &#45;6,1 (Coke and Coal Dust from Biomass (needs Iron plates)) -->
<g id="node7" class="node">
<title>&#45;6,1 (Coke and Coal Dust from Biomass (needs Iron plates))</title>
<ellipse fill="none" stroke="black" cx="1463.27" cy="-3758.23" rx="285.95" ry="18"/>
<text text-anchor="middle" x="1463.27" y="-3754.53" font-family="Times,serif" font-size="14.00">&#45;6,1 (Coke and Coal Dust from Biomass (needs Iron plates))</text>
</g>
<!-- 0,11 ()&#45;&gt;&#45;6,1 (Coke and Coal Dust from Biomass (needs Iron plates)) -->
<g id="edge6" class="edge">
<title>0,11 ()&#45;&gt;&#45;6,1 (Coke and Coal Dust from Biomass (needs Iron plates))</title>
<path fill="none" stroke="black" stroke-width="1.38" d="M2619.57,-4133.94C2457.55,-4081.3 1746.19,-3850.16 1527.47,-3779.1"/>
<polygon fill="black" stroke="black" stroke-width="1.38" points="1528.33,-3775.7 1517.74,-3775.93 1526.17,-3782.35 1528.33,-3775.7"/>
<text text-anchor="middle" x="2008.52" y="-3960.32" font-family="Times,serif" font-size="14.00">iron&#45;plate*139920</text>
</g>
<!-- 4,6 (Circuit substrate and Doped silicon) -->
<g id="node8" class="node">
<title>4,6 (Circuit substrate and Doped silicon)</title>
<ellipse fill="none" stroke="black" cx="2359.91" cy="-69.62" rx="199.56" ry="18"/>
<text text-anchor="middle" x="2359.91" y="-65.92" font-family="Times,serif" font-size="14.00">4,6 (Circuit substrate and Doped silicon)</text>
</g>
<!-- 0,11 ()&#45;&gt;4,6 (Circuit substrate and Doped silicon) -->
<g id="edge7" class="edge">
<title>0,11 ()&#45;&gt;4,6 (Circuit substrate and Doped silicon)</title>
<path fill="none" stroke="black" stroke-width="0.05" d="M2651.32,-4126.51C2631.28,-3847.48 2386.74,-443.22 2361.93,-97.84"/>
<polygon fill="black" stroke="black" stroke-width="0.05" points="2365.41,-97.4 2361.2,-87.68 2358.43,-97.9 2365.41,-97.4"/>
<text text-anchor="middle" x="2450.63" y="-2115.98" font-family="Times,serif" font-size="14.00">iron&#45;plate*5040</text>
</g>
<!-- &#45;3,&#45;3 (Zinc Plates) -->
<g id="node10" class="node">
<title>&#45;3,&#45;3 (Zinc Plates)</title>
<ellipse fill="none" stroke="black" cx="2718.76" cy="-132.96" rx="92.88" ry="18"/>
<text text-anchor="middle" x="2718.76" y="-129.26" font-family="Times,serif" font-size="14.00">&#45;3,&#45;3 (Zinc Plates)</text>
</g>
<!-- 0,11 ()&#45;&gt;&#45;3,&#45;3 (Zinc Plates) -->
<g id="edge9" class="edge">
<title>0,11 ()&#45;&gt;&#45;3,&#45;3 (Zinc Plates)</title>
<path fill="none" stroke="black" stroke-width="4.89" d="M2652.93,-4126.35C2657.51,-3848.64 2712.65,-503.8 2718.29,-161.24"/>
<polygon fill="black" stroke="black" stroke-width="4.89" points="2722.57,-161.22 2718.46,-151.15 2714.02,-161.07 2722.57,-161.22"/>
<text text-anchor="middle" x="2620.61" y="-2147.59" font-family="Times,serif" font-size="14.00">iron&#45;plate*497360</text>
</g>
<!-- 3,3 (Random electronic components, Small Parts) -->
<g id="node11" class="node">
<title>3,3 (Random electronic components, Small Parts)</title>
<ellipse fill="none" stroke="black" cx="855.3" cy="-3955.77" rx="240.46" ry="18"/>
<text text-anchor="middle" x="855.3" y="-3952.07" font-family="Times,serif" font-size="14.00">3,3 (Random electronic components, Small Parts)</text>
</g>
<!-- 0,11 ()&#45;&gt;3,3 (Random electronic components, Small Parts) -->
<g id="edge10" class="edge">
<title>0,11 ()&#45;&gt;3,3 (Random electronic components, Small Parts)</title>
<path fill="none" stroke="black" stroke-width="7.21" d="M2612.57,-4140.47C2399.06,-4118.03 1390.27,-4012 1005.18,-3971.53"/>
<polygon fill="black" stroke="black" stroke-width="7.21" points="1005.69,-3965.24 995.09,-3970.47 1004.37,-3977.78 1005.69,-3965.24"/>
<text text-anchor="middle" x="1743.87" y="-4059.8" font-family="Times,serif" font-size="14.00">iron&#45;plate*732720</text>
</g>
<!-- 2,&#45;6 (Hydrogen Chloride (bus)) -->
<g id="node12" class="node">
<title>2,&#45;6 (Hydrogen Chloride (bus))</title>
<ellipse fill="none" stroke="black" cx="380.25" cy="-4383.52" rx="152.97" ry="18"/>
<text text-anchor="middle" x="380.25" y="-4379.82" font-family="Times,serif" font-size="14.00">2,&#45;6 (Hydrogen Chloride (bus))</text>
</g>
<!-- 0,11 ()&#45;&gt;2,&#45;6 (Hydrogen Chloride (bus)) -->
<g id="edge11" class="edge">
<title>0,11 ()&#45;&gt;2,&#45;6 (Hydrogen Chloride (bus))</title>
<path fill="none" stroke="black" stroke-width="6.6" d="M2612.7,-4148.88C2356.06,-4175.85 935.46,-4325.16 504.33,-4370.48"/>
<polygon fill="black" stroke="black" stroke-width="6.6" points="503.68,-4364.74 494.33,-4371.53 504.88,-4376.22 503.68,-4364.74"/>
<text text-anchor="middle" x="1493.52" y="-4263.48" font-family="Times,serif" font-size="14.00">iron&#45;plate*671040</text>
</g>
<!-- 0,10 (item=meat Meat) -->
<g id="node13" class="node">
<title>0,10 (item=meat Meat)</title>
<ellipse fill="none" stroke="black" cx="120.24" cy="-4967.5" rx="120.48" ry="18"/>
<text text-anchor="middle" x="120.24" y="-4963.8" font-family="Times,serif" font-size="14.00">0,10 (item=meat Meat)</text>
</g>
<!-- 0,11 ()&#45;&gt;0,10 (item=meat Meat) -->
<g id="edge33" class="edge">
<title>0,11 ()&#45;&gt;0,10 (item=meat Meat)</title>
<path fill="none" stroke="black" stroke-width="0.15" d="M2619.68,-4155.38C2352.02,-4242.35 534.81,-4832.8 180.17,-4948.03"/>
<polygon fill="black" stroke="black" stroke-width="0.15" points="179.03,-4944.72 170.6,-4951.14 181.19,-4951.38 179.03,-4944.72"/>
<text text-anchor="middle" x="1339.43" y="-4555.51" font-family="Times,serif" font-size="14.00">iron&#45;plate*15360</text>
</g>
<!-- 2,5 (Simple Circuits) -->
<g id="node14" class="node">
<title>2,5 (Simple Circuits)</title>
<ellipse fill="none" stroke="black" cx="120.24" cy="-5606.75" rx="106.68" ry="18"/>
<text text-anchor="middle" x="120.24" y="-5603.05" font-family="Times,serif" font-size="14.00">2,5 (Simple Circuits)</text>
</g>
<!-- 0,11 ()&#45;&gt;2,5 (Simple Circuits) -->
<g id="edge13" class="edge">
<title>0,11 ()&#45;&gt;2,5 (Simple Circuits)</title>
<path fill="none" stroke="black" stroke-width="0.42" d="M2627.56,-4159.15C2385.05,-4299.17 457.93,-5411.79 159.11,-5584.31"/>
<polygon fill="black" stroke="black" stroke-width="0.42" points="157.26,-5581.34 150.35,-5589.37 160.76,-5587.4 157.26,-5581.34"/>
<text text-anchor="middle" x="1332.84" y="-4875.53" font-family="Times,serif" font-size="14.00">iron&#45;plate*42720</text>
</g>
<!-- &#45;7,&#45;4 (Isomer&#39;s Slaughterhouse and Daycare Centre, Bone Meal, Auog theft) -->
<g id="node15" class="node">
<title>&#45;7,&#45;4 (Isomer&#39;s Slaughterhouse and Daycare Centre, Bone Meal, Auog theft)</title>
<ellipse fill="none" stroke="black" cx="3227.89" cy="-268.02" rx="362.04" ry="18"/>
<text text-anchor="middle" x="3227.89" y="-264.32" font-family="Times,serif" font-size="14.00">&#45;7,&#45;4 (Isomer&#39;s Slaughterhouse and Daycare Centre, Bone Meal, Auog theft)</text>
</g>
<!-- 0,11 ()&#45;&gt;&#45;7,&#45;4 (Isomer&#39;s Slaughterhouse and Daycare Centre, Bone Meal, Auog theft) -->
<g id="edge14" class="edge">
<title>0,11 ()&#45;&gt;&#45;7,&#45;4 (Isomer&#39;s Slaughterhouse and Daycare Centre, Bone Meal, Auog theft)</title>
<path fill="none" stroke="black" stroke-width="0.31" d="M2655.32,-4126.53C2695.55,-3855.42 3173.79,-632.59 3223.69,-296.34"/>
<polygon fill="black" stroke="black" stroke-width="0.31" points="3227.15,-296.82 3225.16,-286.41 3220.23,-295.79 3227.15,-296.82"/>
<text text-anchor="middle" x="2879" y="-2215.24" font-family="Times,serif" font-size="14.00">iron&#45;plate*31200</text>
</g>
<!-- 2,2 () -->
<g id="node16" class="node">
<title>2,2 ()</title>
<ellipse fill="none" stroke="black" cx="3667.8" cy="-430.51" rx="35.19" ry="18"/>
<text text-anchor="middle" x="3667.8" y="-426.81" font-family="Times,serif" font-size="14.00">2,2 ()</text>
</g>
<!-- 0,11 ()&#45;&gt;2,2 () -->
<g id="edge15" class="edge">
<title>0,11 ()&#45;&gt;2,2 ()</title>
<path fill="none" stroke="black" stroke-width="0.91" d="M2657.61,-4126.45C2730.12,-3861.17 3570.83,-785.29 3660.13,-458.56"/>
<polygon fill="black" stroke="black" stroke-width="0.91" points="3663.62,-459.07 3662.88,-448.5 3656.87,-457.22 3663.62,-459.07"/>
<text text-anchor="middle" x="3098.37" y="-2296.3" font-family="Times,serif" font-size="14.00">iron&#45;plate*92640</text>
</g>
<!-- &#45;3,8 (Urea) -->
<g id="node17" class="node">
<title>&#45;3,8 (Urea)</title>
<ellipse fill="none" stroke="black" cx="3821.76" cy="-498.21" rx="61.19" ry="18"/>
<text text-anchor="middle" x="3821.76" y="-494.51" font-family="Times,serif" font-size="14.00">&#45;3,8 (Urea)</text>
</g>
<!-- 0,11 ()&#45;&gt;&#45;3,8 (Urea) -->
<g id="edge16" class="edge">
<title>0,11 ()&#45;&gt;&#45;3,8 (Urea)</title>
<path fill="none" stroke="black" stroke-width="0.28" d="M2658.36,-4126.78C2741.83,-3866.47 3709.09,-849.6 3812.77,-526.24"/>
<polygon fill="black" stroke="black" stroke-width="0.28" points="3816.24,-526.87 3815.96,-516.28 3809.58,-524.73 3816.24,-526.87"/>
<text text-anchor="middle" x="3175.07" y="-2330.31" font-family="Times,serif" font-size="14.00">iron&#45;plate*28080</text>
</g>
<!-- 3,16 (More Coke) -->
<g id="node18" class="node">
<title>3,16 (More Coke)</title>
<ellipse fill="none" stroke="black" cx="380.25" cy="-6190.74" rx="90.98" ry="18"/>
<text text-anchor="middle" x="380.25" y="-6187.04" font-family="Times,serif" font-size="14.00">3,16 (More Coke)</text>
</g>
<!-- 0,11 ()&#45;&gt;3,16 (More Coke) -->
<g id="edge17" class="edge">
<title>0,11 ()&#45;&gt;3,16 (More Coke)</title>
<path fill="none" stroke="black" stroke-width="1.36" d="M2634.33,-4161.15C2433.95,-4341.58 649.89,-5947.95 407.47,-6166.22"/>
<polygon fill="black" stroke="black" stroke-width="1.36" points="404.9,-6163.83 399.81,-6173.12 409.59,-6169.03 404.9,-6163.83"/>
<text text-anchor="middle" x="1455.9" y="-5167.49" font-family="Times,serif" font-size="14.00">iron&#45;plate*138000</text>
</g>
<!-- 3,15 (Even Yet More Coke) -->
<g id="node19" class="node">
<title>3,15 (Even Yet More Coke)</title>
<ellipse fill="none" stroke="black" cx="855.3" cy="-6618.48" rx="135.38" ry="18"/>
<text text-anchor="middle" x="855.3" y="-6614.78" font-family="Times,serif" font-size="14.00">3,15 (Even Yet More Coke)</text>
</g>
<!-- 0,11 ()&#45;&gt;3,15 (Even Yet More Coke) -->
<g id="edge18" class="edge">
<title>0,11 ()&#45;&gt;3,15 (Even Yet More Coke)</title>
<path fill="none" stroke="black" stroke-width="1.25" d="M2639.94,-4162.14C2489.95,-4368.58 1056.73,-6341.25 874.36,-6592.26"/>
<polygon fill="black" stroke="black" stroke-width="1.25" points="871.45,-6590.31 868.4,-6600.45 877.11,-6594.42 871.45,-6590.31"/>
<text text-anchor="middle" x="1692.15" y="-5381" font-family="Times,serif" font-size="14.00">iron&#45;plate*126960</text>
</g>
<!-- &#45;7,&#45;12 () -->
<g id="node20" class="node">
<title>&#45;7,&#45;12 ()</title>
<ellipse fill="none" stroke="black" cx="3983.94" cy="-576.02" rx="46.59" ry="18"/>
<text text-anchor="middle" x="3983.94" y="-572.32" font-family="Times,serif" font-size="14.00">&#45;7,&#45;12 ()</text>
</g>
<!-- 0,11 ()&#45;&gt;&#45;7,&#45;12 () -->
<g id="edge19" class="edge">
<title>0,11 ()&#45;&gt;&#45;7,&#45;12 ()</title>
<path fill="none" stroke="black" stroke-width="0.04" d="M2659.32,-4126.75C2755.34,-3869.35 3854.65,-922.58 3973.53,-603.91"/>
<polygon fill="black" stroke="black" stroke-width="0.04" points="3976.98,-604.67 3977.2,-594.08 3970.43,-602.23 3976.98,-604.67"/>
<text text-anchor="middle" x="3260.42" y="-2369.13" font-family="Times,serif" font-size="14.00">iron&#45;plate*3600</text>
</g>
<!-- 5,&#45;7 (Emergency Salt) -->
<g id="node21" class="node">
<title>5,&#45;7 (Emergency Salt)</title>
<ellipse fill="none" stroke="black" cx="4188.35" cy="-684.09" rx="112.38" ry="18"/>
<text text-anchor="middle" x="4188.35" y="-680.39" font-family="Times,serif" font-size="14.00">5,&#45;7 (Emergency Salt)</text>
</g>
<!-- 0,11 ()&#45;&gt;5,&#45;7 (Emergency Salt) -->
<g id="edge21" class="edge">
<title>0,11 ()&#45;&gt;5,&#45;7 (Emergency Salt)</title>
<path fill="none" stroke="black" stroke-width="2.66" d="M2660.52,-4126.89C2772.42,-3874.74 4038.02,-1022.84 4176.14,-711.6"/>
<polygon fill="black" stroke="black" stroke-width="2.66" points="4179.38,-712.93 4180.23,-702.37 4172.98,-710.09 4179.38,-712.93"/>
<text text-anchor="middle" x="3353.33" y="-2423.04" font-family="Times,serif" font-size="14.00">iron&#45;plate*270000</text>
</g>
<!-- &#45;1,7 (Rayon) -->
<g id="node22" class="node">
<title>&#45;1,7 (Rayon)</title>
<ellipse fill="none" stroke="black" cx="4404.95" cy="-811.62" rx="66.89" ry="18"/>
<text text-anchor="middle" x="4404.95" y="-807.92" font-family="Times,serif" font-size="14.00">&#45;1,7 (Rayon)</text>
</g>
<!-- 0,11 ()&#45;&gt;&#45;1,7 (Rayon) -->
<g id="edge22" class="edge">
<title>0,11 ()&#45;&gt;&#45;1,7 (Rayon)</title>
<path fill="none" stroke="black" stroke-width="0.61" d="M2662.05,-4126.75C2792.37,-3878.88 4232.29,-1140.04 4390.8,-838.53"/>
<polygon fill="black" stroke="black" stroke-width="0.61" points="4393.96,-840.06 4395.51,-829.58 4387.76,-836.8 4393.96,-840.06"/>
<text text-anchor="middle" x="3465.93" y="-2486.44" font-family="Times,serif" font-size="14.00">iron&#45;plate*62400</text>
</g>
<!-- 8,3 (Nylon mk2) -->
<g id="node23" class="node">
<title>8,3 (Nylon mk2)</title>
<ellipse fill="none" stroke="black" cx="1463.27" cy="-6816.02" rx="85.29" ry="18"/>
<text text-anchor="middle" x="1463.27" y="-6812.32" font-family="Times,serif" font-size="14.00">8,3 (Nylon mk2)</text>
</g>
<!-- 0,11 ()&#45;&gt;8,3 (Nylon mk2) -->
<g id="edge23" class="edge">
<title>0,11 ()&#45;&gt;8,3 (Nylon mk2)</title>
<path fill="none" stroke="black" stroke-width="4.28" d="M2644.72,-4162.45C2548.01,-4379.66 1594.92,-6520.34 1475.53,-6788.48"/>
<polygon fill="black" stroke="black" stroke-width="4.28" points="1471.98,-6787.23 1471.34,-6797.89 1478.83,-6790.28 1471.98,-6787.23"/>
<text text-anchor="middle" x="1995.12" y="-5479.26" font-family="Times,serif" font-size="14.00">iron&#45;plate*435600</text>
</g>
<!-- 4,1 (item=filtration&#45;media Filtration Media) -->
<g id="node24" class="node">
<title>4,1 (item=filtration&#45;media Filtration Media)</title>
<ellipse fill="none" stroke="black" cx="2099.02" cy="-6749.2" rx="214.46" ry="18"/>
<text text-anchor="middle" x="2099.02" y="-6745.5" font-family="Times,serif" font-size="14.00">4,1 (item=filtration&#45;media Filtration Media)</text>
</g>
<!-- 0,11 ()&#45;&gt;4,1 (item=filtration&#45;media Filtration Media) -->
<g id="edge30" class="edge">
<title>0,11 ()&#45;&gt;4,1 (item=filtration&#45;media Filtration Media)</title>
<path fill="none" stroke="black" stroke-width="0.89" d="M2648.79,-4162.7C2603.05,-4377.93 2161.96,-6453.09 2105.05,-6720.81"/>
<polygon fill="black" stroke="black" stroke-width="0.89" points="2101.57,-6720.38 2102.91,-6730.89 2108.41,-6721.83 2101.57,-6720.38"/>
<text text-anchor="middle" x="2316.42" y="-5445.55" font-family="Times,serif" font-size="14.00">iron&#45;plate*90720</text>
</g>
<!-- &#45;5,0 (Petri dishes) -->
<g id="node25" class="node">
<title>&#45;5,0 (Petri dishes)</title>
<ellipse fill="none" stroke="black" cx="4599.15" cy="-938.3" rx="92.88" ry="18"/>
<text text-anchor="middle" x="4599.15" y="-934.6" font-family="Times,serif" font-size="14.00">&#45;5,0 (Petri dishes)</text>
</g>
<!-- 0,11 ()&#45;&gt;&#45;5,0 (Petri dishes) -->
<g id="edge25" class="edge">
<title>0,11 ()&#45;&gt;&#45;5,0 (Petri dishes)</title>
<path fill="none" stroke="black" stroke-width="0.14" d="M2663.33,-4127.04C2809.44,-3886.37 4404.28,-1259.3 4582.91,-965.06"/>
<polygon fill="black" stroke="black" stroke-width="0.14" points="4586.03,-966.67 4588.22,-956.3 4580.04,-963.03 4586.03,-966.67"/>
<text text-anchor="middle" x="3562.62" y="-2549.85" font-family="Times,serif" font-size="14.00">iron&#45;plate*14640</text>
</g>
<!-- &#45;4,1 (item=ulric Ulrics) -->
<g id="node26" class="node">
<title>&#45;4,1 (item=ulric Ulrics)</title>
<ellipse fill="none" stroke="black" cx="4828.5" cy="-1104.43" rx="118.08" ry="18"/>
<text text-anchor="middle" x="4828.5" y="-1100.73" font-family="Times,serif" font-size="14.00">&#45;4,1 (item=ulric Ulrics)</text>
</g>
<!-- 0,11 ()&#45;&gt;&#45;4,1 (item=ulric Ulrics) -->
<g id="edge26" class="edge">
<title>0,11 ()&#45;&gt;&#45;4,1 (item=ulric Ulrics)</title>
<path fill="none" stroke="black" stroke-width="0.18" d="M2665.13,-4127.21C2831.52,-3894.71 4605.64,-1415.83 4809.45,-1131.05"/>
<polygon fill="black" stroke="black" stroke-width="0.18" points="4812.56,-1132.72 4815.53,-1122.55 4806.87,-1128.65 4812.56,-1132.72"/>
<text text-anchor="middle" x="3676.79" y="-2632.93" font-family="Times,serif" font-size="14.00">iron&#45;plate*18480</text>
</g>
<!-- 9,5 (Niobium complex 2) -->
<g id="node27" class="node">
<title>9,5 (Niobium complex 2)</title>
<ellipse fill="none" stroke="black" cx="5072.74" cy="-1303.41" rx="124.58" ry="18"/>
<text text-anchor="middle" x="5072.74" y="-1299.71" font-family="Times,serif" font-size="14.00">9,5 (Niobium complex 2)</text>
</g>
<!-- 0,11 ()&#45;&gt;9,5 (Niobium complex 2) -->
<g id="edge27" class="edge">
<title>0,11 ()&#45;&gt;9,5 (Niobium complex 2)</title>
<path fill="none" stroke="black" stroke-width="0.7" d="M2667.14,-4127.64C2855.7,-3906.27 4821.24,-1598.68 5050.88,-1329.08"/>
<polygon fill="black" stroke="black" stroke-width="0.7" points="5053.63,-1331.24 5057.45,-1321.36 5048.31,-1326.7 5053.63,-1331.24"/>
<text text-anchor="middle" x="3798.51" y="-2732.16" font-family="Times,serif" font-size="14.00">iron&#45;plate*71520</text>
</g>
<!-- 8,8 (Glass and lamps) -->
<g id="node28" class="node">
<title>8,8 (Glass and lamps)</title>
<ellipse fill="none" stroke="black" cx="5299.53" cy="-1511.65" rx="111.28" ry="18"/>
<text text-anchor="middle" x="5299.53" y="-1507.95" font-family="Times,serif" font-size="14.00">8,8 (Glass and lamps)</text>
</g>
<!-- 0,11 ()&#45;&gt;8,8 (Glass and lamps) -->
<g id="edge28" class="edge">
<title>0,11 ()&#45;&gt;8,8 (Glass and lamps)</title>
<path fill="none" stroke="black" stroke-width="1.24" d="M2669.18,-4128.21C2878.98,-3919.51 5016.2,-1793.49 5274.1,-1536.94"/>
<polygon fill="black" stroke="black" stroke-width="1.24" points="5276.88,-1539.11 5281.51,-1529.57 5271.95,-1534.14 5276.88,-1539.11"/>
<text text-anchor="middle" x="3906.64" y="-2836.37" font-family="Times,serif" font-size="14.00">iron&#45;plate*126000</text>
</g>
<!-- 2,0 (Sodium Sulfate) -->
<g id="node29" class="node">
<title>2,0 (Sodium Sulfate)</title>
<ellipse fill="none" stroke="black" cx="5501.46" cy="-1719.36" rx="106.68" ry="18"/>
<text text-anchor="middle" x="5501.46" y="-1715.66" font-family="Times,serif" font-size="14.00">2,0 (Sodium Sulfate)</text>
</g>
<!-- 0,11 ()&#45;&gt;2,0 (Sodium Sulfate) -->
<g id="edge29" class="edge">
<title>0,11 ()&#45;&gt;2,0 (Sodium Sulfate)</title>
<path fill="none" stroke="black" stroke-width="0.74" d="M2671.57,-4128.55C2903.42,-3931.17 5190.26,-1984.3 5472.87,-1743.7"/>
<polygon fill="black" stroke="black" stroke-width="0.74" points="5475.29,-1746.23 5480.64,-1737.09 5470.76,-1740.9 5475.29,-1746.23"/>
<text text-anchor="middle" x="4011.72" y="-2939.93" font-family="Times,serif" font-size="14.00">iron&#45;plate*75600</text>
</g>
<!-- &#45;1,6 (Flimble&#39;s Slaughterhouse and Daycare Centre, Auog Products) -->
<g id="node30" class="node">
<title>&#45;1,6 (Flimble&#39;s Slaughterhouse and Daycare Centre, Auog Products)</title>
<ellipse fill="none" stroke="black" cx="5824.61" cy="-2106.16" rx="325.74" ry="18"/>
<text text-anchor="middle" x="5824.61" y="-2102.46" font-family="Times,serif" font-size="14.00">&#45;1,6 (Flimble&#39;s Slaughterhouse and Daycare Centre, Auog Products)</text>
</g>
<!-- 0,11 ()&#45;&gt;&#45;1,6 (Flimble&#39;s Slaughterhouse and Daycare Centre, Auog Products) -->
<g id="edge31" class="edge">
<title>0,11 ()&#45;&gt;&#45;1,6 (Flimble&#39;s Slaughterhouse and Daycare Centre, Auog Products)</title>
<path fill="none" stroke="black" stroke-width="0.27" d="M2675.89,-4129.73C2944.42,-3957.15 5453.63,-2344.57 5787.88,-2129.76"/>
<polygon fill="black" stroke="black" stroke-width="0.27" points="5790.18,-2132.44 5796.7,-2124.09 5786.39,-2126.56 5790.18,-2132.44"/>
<text text-anchor="middle" x="4171.39" y="-3133.54" font-family="Times,serif" font-size="14.00">iron&#45;plate*27360</text>
</g>
<!-- 2,14 (Latex) -->
<g id="node31" class="node">
<title>2,14 (Latex)</title>
<ellipse fill="none" stroke="black" cx="6088.39" cy="-2488.39" rx="66.89" ry="18"/>
<text text-anchor="middle" x="6088.39" y="-2484.69" font-family="Times,serif" font-size="14.00">2,14 (Latex)</text>
</g>
<!-- 0,11 ()&#45;&gt;2,14 (Latex) -->
<g id="edge32" class="edge">
<title>0,11 ()&#45;&gt;2,14 (Latex)</title>
<path fill="none" stroke="black" stroke-width="0.74" d="M2680.28,-4131.35C2983.06,-3985.39 5677.13,-2686.64 6046.49,-2508.59"/>
<polygon fill="black" stroke="black" stroke-width="0.74" points="6048.03,-2511.73 6055.52,-2504.23 6044.99,-2505.42 6048.03,-2511.73"/>
<text text-anchor="middle" x="4302.89" y="-3323.77" font-family="Times,serif" font-size="14.00">iron&#45;plate*75600</text>
</g>
<!-- &#45;1,&#45;2 (Aramid fiber) -->
<g id="node32" class="node">
<title>&#45;1,&#45;2 (Aramid fiber)</title>
<ellipse fill="none" stroke="black" cx="6210.39" cy="-2693.16" rx="99.38" ry="18"/>
<text text-anchor="middle" x="6210.39" y="-2689.46" font-family="Times,serif" font-size="14.00">&#45;1,&#45;2 (Aramid fiber)</text>
</g>
<!-- 0,11 ()&#45;&gt;&#45;1,&#45;2 (Aramid fiber) -->
<g id="edge34" class="edge">
<title>0,11 ()&#45;&gt;&#45;1,&#45;2 (Aramid fiber)</title>
<path fill="none" stroke="black" stroke-width="0.06" d="M2682.85,-4132.35C3002.33,-4002.01 5755.34,-2878.82 6160.65,-2713.46"/>
<polygon fill="black" stroke="black" stroke-width="0.06" points="6162.12,-2716.64 6170.05,-2709.62 6159.47,-2710.16 6162.12,-2716.64"/>
<text text-anchor="middle" x="4365.75" y="-3426.7" font-family="Times,serif" font-size="14.00">iron&#45;plate*6000</text>
</g>
<!-- &#45;4,&#45;2 (Crude Oil) -->
<g id="node33" class="node">
<title>&#45;4,&#45;2 (Crude Oil)</title>
<ellipse fill="none" stroke="black" cx="6331.22" cy="-2919.49" rx="85.29" ry="18"/>
<text text-anchor="middle" x="6331.22" y="-2915.79" font-family="Times,serif" font-size="14.00">&#45;4,&#45;2 (Crude Oil)</text>
</g>
<!-- 0,11 ()&#45;&gt;&#45;4,&#45;2 (Crude Oil) -->
<g id="edge35" class="edge">
<title>0,11 ()&#45;&gt;&#45;4,&#45;2 (Crude Oil)</title>
<path fill="none" stroke="black" stroke-width="0.06" d="M2685.27,-4133.81C3021.02,-4021.98 5842.51,-3082.26 6275.54,-2938.03"/>
<polygon fill="black" stroke="black" stroke-width="0.06" points="6276.95,-2941.25 6285.33,-2934.77 6274.73,-2934.61 6276.95,-2941.25"/>
<text text-anchor="middle" x="4424.41" y="-3539.72" font-family="Times,serif" font-size="14.00">iron&#45;plate*6000</text>
</g>
<!-- &#45;9,&#45;10 (Bedding and cages) -->
<g id="node34" class="node">
<title>&#45;9,&#45;10 (Bedding and cages)</title>
<ellipse fill="none" stroke="black" cx="6455.01" cy="-3183.56" rx="134.58" ry="18"/>
<text text-anchor="middle" x="6455.01" y="-3179.86" font-family="Times,serif" font-size="14.00">&#45;9,&#45;10 (Bedding and cages)</text>
</g>
<!-- 0,11 ()&#45;&gt;&#45;9,&#45;10 (Bedding and cages) -->
<g id="edge36" class="edge">
<title>0,11 ()&#45;&gt;&#45;9,&#45;10 (Bedding and cages)</title>
<path fill="none" stroke="black" stroke-width="0.5" d="M2688.14,-4135.7C3039.31,-4046.94 5887.11,-3327.1 6381.87,-3202.04"/>
<polygon fill="black" stroke="black" stroke-width="0.5" points="6382.91,-3205.39 6391.75,-3199.55 6381.19,-3198.6 6382.91,-3205.39"/>
<text text-anchor="middle" x="4474.5" y="-3672.67" font-family="Times,serif" font-size="14.00">iron&#45;plate*50400</text>
</g>
<!-- 0,9 (Auog Brains) -->
<g id="node35" class="node">
<title>0,9 (Auog Brains)</title>
<ellipse fill="none" stroke="black" cx="2652.63" cy="-6429.58" rx="91.78" ry="18"/>
<text text-anchor="middle" x="2652.63" y="-6425.88" font-family="Times,serif" font-size="14.00">0,9 (Auog Brains)</text>
</g>
<!-- 0,11 ()&#45;&gt;0,9 (Auog Brains) -->
<g id="edge46" class="edge">
<title>0,11 ()&#45;&gt;0,9 (Auog Brains)</title>
<path fill="none" stroke="black" stroke-width="0.15" d="M2652.63,-4162.74C2652.63,-4362.3 2652.63,-6153.26 2652.63,-6401.16"/>
<polygon fill="black" stroke="black" stroke-width="0.15" points="2649.13,-6401.49 2652.63,-6411.49 2656.13,-6401.49 2649.13,-6401.49"/>
<text text-anchor="middle" x="2592.13" y="-5285.75" font-family="Times,serif" font-size="14.00">iron&#45;plate*15600</text>
</g>
<!-- 4,&#45;8 (REOOOOOOOOOOOOOO) -->
<g id="node36" class="node">
<title>4,&#45;8 (REOOOOOOOOOOOOOO)</title>
<ellipse fill="none" stroke="black" cx="6587.54" cy="-3518.82" rx="154.07" ry="18"/>
<text text-anchor="middle" x="6587.54" y="-3515.12" font-family="Times,serif" font-size="14.00">4,&#45;8 (REOOOOOOOOOOOOOO)</text>
</g>
<!-- 0,11 ()&#45;&gt;4,&#45;8 (REOOOOOOOOOOOOOO) -->
<g id="edge38" class="edge">
<title>0,11 ()&#45;&gt;4,&#45;8 (REOOOOOOOOOOOOOO)</title>
<path fill="none" stroke="black" stroke-width="0.25" d="M2691.25,-4138.54C3057.01,-4080.36 5909.54,-3626.65 6486.13,-3534.94"/>
<polygon fill="black" stroke="black" stroke-width="0.25" points="6486.76,-3538.39 6496.09,-3533.36 6485.66,-3531.48 6486.76,-3538.39"/>
<text text-anchor="middle" x="4528.19" y="-3840.54" font-family="Times,serif" font-size="14.00">iron&#45;plate*25200</text>
</g>
<!-- &#45;1,12 (I can&#39;t believe it&#39;s more latex duplicates) -->
<g id="node37" class="node">
<title>&#45;1,12 (I can&#39;t believe it&#39;s more latex duplicates)</title>
<ellipse fill="none" stroke="black" cx="3028.37" cy="-5912.41" rx="229.36" ry="18"/>
<text text-anchor="middle" x="3028.37" y="-5908.71" font-family="Times,serif" font-size="14.00">&#45;1,12 (I can&#39;t believe it&#39;s more latex duplicates)</text>
</g>
<!-- 0,11 ()&#45;&gt;&#45;1,12 (I can&#39;t believe it&#39;s more latex duplicates) -->
<g id="edge40" class="edge">
<title>0,11 ()&#45;&gt;&#45;1,12 (I can&#39;t believe it&#39;s more latex duplicates)</title>
<path fill="none" stroke="black" stroke-width="0.25" d="M2656.47,-4162.75C2692.91,-4334.21 2977.39,-5672.59 3022.38,-5884.26"/>
<polygon fill="black" stroke="black" stroke-width="0.25" points="3019.01,-5885.21 3024.51,-5894.27 3025.86,-5883.76 3019.01,-5885.21"/>
<text text-anchor="middle" x="2778.93" y="-5027.31" font-family="Times,serif" font-size="14.00">iron&#45;plate*25200</text>
</g>
<!-- &#45;7,&#45;2 (Uranium Processing) -->
<g id="node38" class="node">
<title>&#45;7,&#45;2 (Uranium Processing)</title>
<ellipse fill="none" stroke="black" cx="6697.19" cy="-3863.6" rx="135.68" ry="18"/>
<text text-anchor="middle" x="6697.19" y="-3859.9" font-family="Times,serif" font-size="14.00">&#45;7,&#45;2 (Uranium Processing)</text>
</g>
<!-- 0,11 ()&#45;&gt;&#45;7,&#45;2 (Uranium Processing) -->
<g id="edge41" class="edge">
<title>0,11 ()&#45;&gt;&#45;7,&#45;2 (Uranium Processing)</title>
<path fill="none" stroke="black" stroke-width="0.1" d="M2693.31,-4141.85C3067.97,-4115.82 5918.44,-3917.72 6566.42,-3872.69"/>
<polygon fill="black" stroke="black" stroke-width="0.1" points="6566.99,-3876.16 6576.72,-3871.98 6566.5,-3869.18 6566.99,-3876.16"/>
<text text-anchor="middle" x="4569.36" y="-4011.07" font-family="Times,serif" font-size="14.00">iron&#45;plate*10320</text>
</g>
<!-- 4,12 (Molten Glass) -->
<g id="node39" class="node">
<title>4,12 (Molten Glass)</title>
<ellipse fill="none" stroke="black" cx="6772.08" cy="-4164.25" rx="102.08" ry="18"/>
<text text-anchor="middle" x="6772.08" y="-4160.55" font-family="Times,serif" font-size="14.00">4,12 (Molten Glass)</text>
</g>
<!-- 0,11 ()&#45;&gt;4,12 (Molten Glass) -->
<g id="edge42" class="edge">
<title>0,11 ()&#45;&gt;4,12 (Molten Glass)</title>
<path fill="none" stroke="black" stroke-width="0.14" d="M2693.73,-4144.88C3078.08,-4146.7 6041.91,-4160.78 6659.54,-4163.71"/>
<polygon fill="black" stroke="black" stroke-width="0.14" points="6659.76,-4167.21 6669.77,-4163.76 6659.79,-4160.21 6659.76,-4167.21"/>
<text text-anchor="middle" x="4616.13" y="-4158.09" font-family="Times,serif" font-size="14.00">iron&#45;plate*14640</text>
</g>
<!-- &#45;5,2 (Optical fiber) -->
<g id="node40" class="node">
<title>&#45;5,2 (Optical fiber)</title>
<ellipse fill="none" stroke="black" cx="6822.88" cy="-4429.63" rx="96.38" ry="18"/>
<text text-anchor="middle" x="6822.88" y="-4425.93" font-family="Times,serif" font-size="14.00">&#45;5,2 (Optical fiber)</text>
</g>
<!-- 0,11 ()&#45;&gt;&#45;5,2 (Optical fiber) -->
<g id="edge43" class="edge">
<title>0,11 ()&#45;&gt;&#45;5,2 (Optical fiber)</title>
<path fill="none" stroke="black" stroke-width="0.1" d="M2693.23,-4147.45C3080.9,-4173.94 6126.9,-4382.08 6722.19,-4422.75"/>
<polygon fill="black" stroke="black" stroke-width="0.1" points="6722.24,-4426.27 6732.45,-4423.46 6722.72,-4419.28 6722.24,-4426.27"/>
<text text-anchor="middle" x="4647.21" y="-4288.9" font-family="Times,serif" font-size="14.00">iron&#45;plate*10560</text>
</g>
<!-- &#45;8,&#45;11 (Fetal serum) -->
<g id="node41" class="node">
<title>&#45;8,&#45;11 (Fetal serum)</title>
<ellipse fill="none" stroke="black" cx="6860.07" cy="-4697.92" rx="102.88" ry="18"/>
<text text-anchor="middle" x="6860.07" y="-4694.22" font-family="Times,serif" font-size="14.00">&#45;8,&#45;11 (Fetal serum)</text>
</g>
<!-- 0,11 ()&#45;&gt;&#45;8,&#45;11 (Fetal serum) -->
<g id="edge44" class="edge">
<title>0,11 ()&#45;&gt;&#45;8,&#45;11 (Fetal serum)</title>
<path fill="none" stroke="black" stroke-width="0.25" d="M2691.92,-4149.85C3077.89,-4200.6 6189.4,-4609.73 6767.74,-4685.78"/>
<polygon fill="black" stroke="black" stroke-width="0.25" points="6767.33,-4689.26 6777.7,-4687.09 6768.24,-4682.31 6767.33,-4689.26"/>
<text text-anchor="middle" x="4669.33" y="-4421.61" font-family="Times,serif" font-size="14.00">iron&#45;plate*25200</text>
</g>
<!-- 0,12 (Latex duplicate) -->
<g id="node43" class="node">
<title>0,12 (Latex duplicate)</title>
<ellipse fill="none" stroke="black" cx="6884.39" cy="-4983.98" rx="112.38" ry="18"/>
<text text-anchor="middle" x="6884.39" y="-4980.28" font-family="Times,serif" font-size="14.00">0,12 (Latex duplicate)</text>
</g>
<!-- 0,11 ()&#45;&gt;0,12 (Latex duplicate) -->
<g id="edge49" class="edge">
<title>0,11 ()&#45;&gt;0,12 (Latex duplicate)</title>
<path fill="none" stroke="black" stroke-width="0.25" d="M2690.18,-4152.13C3072.31,-4227.92 6253.48,-4858.85 6803.52,-4967.95"/>
<polygon fill="black" stroke="black" stroke-width="0.25" points="6802.87,-4971.38 6813.36,-4969.9 6804.23,-4964.52 6802.87,-4971.38"/>
<text text-anchor="middle" x="4686.35" y="-4563.84" font-family="Times,serif" font-size="14.00">iron&#45;plate*25200</text>
</g>
<!-- &#45;1,10 (Iron Plates) -->
<g id="node9" class="node">
<title>&#45;1,10 (Iron Plates)</title>
<ellipse fill="none" stroke="black" cx="3161.28" cy="-5287.13" rx="94.78" ry="18"/>
<text text-anchor="middle" x="3161.28" y="-5283.43" font-family="Times,serif" font-size="14.00">&#45;1,10 (Iron Plates)</text>
</g>
<!-- &#45;1,10 (Iron Plates)&#45;&gt;0,0 (LE BUS) -->
<g id="edge8" class="edge">
<title>&#45;1,10 (Iron Plates)&#45;&gt;0,0 (LE BUS)</title>
<path fill="none" stroke="black" stroke-width="0.28" d="M3148.23,-5269.17C3037.17,-5116.31 2251.42,-4034.82 2118.19,-3851.44"/>
<polygon fill="black" stroke="black" stroke-width="0.28" points="2120.88,-3849.2 2112.18,-3843.16 2115.22,-3853.31 2120.88,-3849.2"/>
<text text-anchor="middle" x="2572.71" y="-4564.11" font-family="Times,serif" font-size="14.00">iron&#45;plate*28240</text>
</g>
<!-- &#45;1,10 (Iron Plates)&#45;&gt;9,&#45;7 (Filtration mediaer) -->
<g id="edge20" class="edge">
<title>&#45;1,10 (Iron Plates)&#45;&gt;9,&#45;7 (Filtration mediaer)</title>
<path fill="none" stroke="black" stroke-width="0.27" d="M3157.44,-5269.09C3138.76,-5181.2 3057.25,-4797.72 3034.36,-4690.05"/>
<polygon fill="black" stroke="black" stroke-width="0.27" points="3037.72,-4689.01 3032.22,-4679.96 3030.87,-4690.47 3037.72,-4689.01"/>
<text text-anchor="middle" x="3035.4" y="-4983.37" font-family="Times,serif" font-size="14.00">iron&#45;plate*27600</text>
</g>
<!-- &#45;1,10 (Iron Plates)&#45;&gt;&#45;6,1 (Coke and Coal Dust from Biomass (needs Iron plates)) -->
<g id="edge52" class="edge">
<title>&#45;1,10 (Iron Plates)&#45;&gt;&#45;6,1 (Coke and Coal Dust from Biomass (needs Iron plates))</title>
<path fill="none" stroke="black" stroke-width="0.21" d="M3141.62,-5269.43C2967.8,-5112.92 1695.01,-3966.9 1490.86,-3783.08"/>
<polygon fill="black" stroke="black" stroke-width="0.21" points="1493.03,-3780.32 1483.25,-3776.23 1488.34,-3785.52 1493.03,-3780.32"/>
<text text-anchor="middle" x="2255.74" y="-4530.05" font-family="Times,serif" font-size="14.00">iron&#45;plate*21520</text>
</g>
<!-- &#45;1,10 (Iron Plates)&#45;&gt;3,3 (Random electronic components, Small Parts) -->
<g id="edge50" class="edge">
<title>&#45;1,10 (Iron Plates)&#45;&gt;3,3 (Random electronic components, Small Parts)</title>
<path fill="none" stroke="black" stroke-width="0.16" d="M3131.28,-5269.81C2883.6,-5126.81 1178.82,-4142.56 895.24,-3978.83"/>
<polygon fill="black" stroke="black" stroke-width="0.16" points="896.92,-3975.76 886.51,-3973.79 893.42,-3981.82 896.92,-3975.76"/>
<text text-anchor="middle" x="1952.76" y="-4628.12" font-family="Times,serif" font-size="14.00">iron&#45;plate*15920</text>
</g>
<!-- &#45;1,10 (Iron Plates)&#45;&gt;2,&#45;6 (Hydrogen Chloride (bus)) -->
<g id="edge39" class="edge">
<title>&#45;1,10 (Iron Plates)&#45;&gt;2,&#45;6 (Hydrogen Chloride (bus))</title>
<path fill="none" stroke="black" stroke-width="0.25" d="M3113.3,-5271.54C2780.38,-5163.37 816.52,-4525.27 441.95,-4403.57"/>
<polygon fill="black" stroke="black" stroke-width="0.25" points="442.96,-4400.21 432.37,-4400.45 440.8,-4406.87 442.96,-4400.21"/>
<text text-anchor="middle" x="1717.13" y="-4841.35" font-family="Times,serif" font-size="14.00">iron&#45;plate*25200</text>
</g>
<!-- &#45;1,10 (Iron Plates)&#45;&gt;0,10 (item=meat Meat) -->
<g id="edge12" class="edge">
<title>&#45;1,10 (Iron Plates)&#45;&gt;0,10 (item=meat Meat)</title>
<path fill="none" stroke="black" stroke-width="0.03" d="M3077.96,-5278.37C2651.21,-5233.52 711.54,-5029.65 229.12,-4978.95"/>
<polygon fill="black" stroke="black" stroke-width="0.03" points="229.34,-4975.45 219.03,-4977.89 228.6,-4982.41 229.34,-4975.45"/>
<text text-anchor="middle" x="1597.54" y="-5132.46" font-family="Times,serif" font-size="14.00">iron&#45;plate*2960</text>
</g>
<!-- &#45;1,10 (Iron Plates)&#45;&gt;2,5 (Simple Circuits) -->
<g id="edge48" class="edge">
<title>&#45;1,10 (Iron Plates)&#45;&gt;2,5 (Simple Circuits)</title>
<path fill="none" stroke="black" stroke-width="0.05" d="M3077.96,-5295.89C2648.83,-5340.99 689.85,-5546.89 221.19,-5596.14"/>
<polygon fill="black" stroke="black" stroke-width="0.05" points="220.64,-5592.68 211.06,-5597.21 221.37,-5599.64 220.64,-5592.68"/>
<text text-anchor="middle" x="1593.57" y="-5449.81" font-family="Times,serif" font-size="14.00">iron&#45;plate*5040</text>
</g>
<!-- &#45;1,10 (Iron Plates)&#45;&gt;3,16 (More Coke) -->
<g id="edge53" class="edge">
<title>&#45;1,10 (Iron Plates)&#45;&gt;3,16 (More Coke)</title>
<path fill="none" stroke="black" stroke-width="0.1" d="M3113.3,-5302.72C2779.03,-5411.33 800.56,-6054.17 437.47,-6172.15"/>
<polygon fill="black" stroke="black" stroke-width="0.1" points="436.13,-6168.9 427.7,-6175.32 438.29,-6175.56 436.13,-6168.9"/>
<text text-anchor="middle" x="1719.39" y="-5741.23" font-family="Times,serif" font-size="14.00">iron&#45;plate*9680</text>
</g>
<!-- &#45;1,10 (Iron Plates)&#45;&gt;3,15 (Even Yet More Coke) -->
<g id="edge45" class="edge">
<title>&#45;1,10 (Iron Plates)&#45;&gt;3,15 (Even Yet More Coke)</title>
<path fill="none" stroke="black" stroke-width="0.23" d="M3131.28,-5304.45C2883.46,-5447.53 1176.91,-6432.8 894.77,-6595.7"/>
<polygon fill="black" stroke="black" stroke-width="0.23" points="892.62,-6592.9 885.71,-6600.93 896.12,-6598.96 892.62,-6592.9"/>
<text text-anchor="middle" x="1952.52" y="-5953.87" font-family="Times,serif" font-size="14.00">iron&#45;plate*22880</text>
</g>
<!-- &#45;1,10 (Iron Plates)&#45;&gt;8,3 (Nylon mk2) -->
<g id="edge54" class="edge">
<title>&#45;1,10 (Iron Plates)&#45;&gt;8,3 (Nylon mk2)</title>
<path fill="none" stroke="black" stroke-width="0.25" d="M3141.62,-5304.83C2967.71,-5461.42 1693.67,-6608.56 1490.54,-6791.47"/>
<polygon fill="black" stroke="black" stroke-width="0.25" points="1488.07,-6788.98 1482.98,-6798.28 1492.75,-6794.19 1488.07,-6788.98"/>
<text text-anchor="middle" x="2255.58" y="-6051.95" font-family="Times,serif" font-size="14.00">iron&#45;plate*25280</text>
</g>
<!-- &#45;1,10 (Iron Plates)&#45;&gt;4,1 (item=filtration&#45;media Filtration Media) -->
<g id="edge24" class="edge">
<title>&#45;1,10 (Iron Plates)&#45;&gt;4,1 (item=filtration&#45;media Filtration Media)</title>
<path fill="none" stroke="black" stroke-width="0.18" d="M3148.23,-5305.09C3037.17,-5457.94 2251.42,-6539.44 2118.19,-6722.81"/>
<polygon fill="black" stroke="black" stroke-width="0.18" points="2115.22,-6720.94 2112.18,-6731.09 2120.88,-6725.06 2115.22,-6720.94"/>
<text text-anchor="middle" x="2572.71" y="-6017.75" font-family="Times,serif" font-size="14.00">iron&#45;plate*18240</text>
</g>
<!-- &#45;1,10 (Iron Plates)&#45;&gt;0,9 (Auog Brains) -->
<g id="edge37" class="edge">
<title>&#45;1,10 (Iron Plates)&#45;&gt;0,9 (Auog Brains)</title>
<path fill="none" stroke="black" stroke-width="0.03" d="M3153.29,-5305.07C3095.04,-5435.9 2736.02,-6242.26 2664.87,-6402.07"/>
<polygon fill="black" stroke="black" stroke-width="0.03" points="2661.66,-6400.68 2660.79,-6411.24 2668.05,-6403.53 2661.66,-6400.68"/>
<text text-anchor="middle" x="2853.08" y="-5857.37" font-family="Times,serif" font-size="14.00">iron&#45;plate*3040</text>
</g>
<!-- &#45;1,10 (Iron Plates)&#45;&gt;&#45;1,12 (I can&#39;t believe it&#39;s more latex duplicates) -->
<g id="edge51" class="edge">
<title>&#45;1,10 (Iron Plates)&#45;&gt;&#45;1,12 (I can&#39;t believe it&#39;s more latex duplicates)</title>
<path fill="none" stroke="black" stroke-width="0.25" d="M3157.44,-5305.17C3138.76,-5393.06 3057.25,-5776.53 3034.36,-5884.2"/>
<polygon fill="black" stroke="black" stroke-width="0.25" points="3030.87,-5883.79 3032.22,-5894.3 3037.72,-5885.25 3030.87,-5883.79"/>
<text text-anchor="middle" x="3035.4" y="-5598.49" font-family="Times,serif" font-size="14.00">iron&#45;plate*25040</text>
</g>
<!-- &#45;9,&#45;11 (Bones mk2) -->
<g id="node42" class="node">
<title>&#45;9,&#45;11 (Bones mk2)</title>
<ellipse fill="none" stroke="black" cx="6187.81" cy="-5287.13" rx="98.28" ry="18"/>
<text text-anchor="middle" x="6187.81" y="-5283.43" font-family="Times,serif" font-size="14.00">&#45;9,&#45;11 (Bones mk2)</text>
</g>
<!-- &#45;1,10 (Iron Plates)&#45;&gt;&#45;9,&#45;11 (Bones mk2) -->
<g id="edge47" class="edge">
<title>&#45;1,10 (Iron Plates)&#45;&gt;&#45;9,&#45;11 (Bones mk2)</title>
<path fill="none" stroke="black" stroke-width="0.25" d="M3256.43,-5287.13C3704.61,-5287.13 5603.14,-5287.13 6079.2,-5287.13"/>
<polygon fill="black" stroke="black" stroke-width="0.25" points="6079.5,-5290.63 6089.5,-5287.13 6079.5,-5283.63 6079.5,-5290.63"/>
<text text-anchor="middle" x="4607.31" y="-5290.93" font-family="Times,serif" font-size="14.00">iron&#45;plate*25040</text>
</g>
</g>
</svg>
