<?xml version="1.0" encoding="UTF-8" standalone="no"?>
<!DOCTYPE svg PUBLIC "-//W3C//DTD SVG 1.1//EN"
 "http://www.w3.org/Graphics/SVG/1.1/DTD/svg11.dtd">
<!-- Generated by graphviz version 2.43.0 (0)
 -->
<!-- Title: %3 Pages: 1 -->
<svg width="1583pt" height="1244pt"
 viewBox="0.00 0.00 1583.08 1243.56" xmlns="http://www.w3.org/2000/svg" xmlns:xlink="http://www.w3.org/1999/xlink">
<g id="graph0" class="graph" transform="scale(1 1) rotate(0) translate(4 1239.56)">
<title>%3</title>
<polygon fill="white" stroke="transparent" points="-4,4 -4,-1239.56 1579.08,-1239.56 1579.08,4 -4,4"/>
<!-- 0,0 (LE BUS) -->
<g id="node1" class="node">
<title>0,0 (LE BUS)</title>
<ellipse fill="none" stroke="black" cx="699.22" cy="-18" rx="71.49" ry="18"/>
<text text-anchor="middle" x="699.22" y="-14.3" font-family="Times,serif" font-size="14.00">0,0 (LE BUS)</text>
</g>
<!-- 2,0 (Sodium Sulfate) -->
<g id="node2" class="node">
<title>2,0 (Sodium Sulfate)</title>
<ellipse fill="none" stroke="black" cx="275.11" cy="-193.67" rx="106.68" ry="18"/>
<text text-anchor="middle" x="275.11" y="-189.97" font-family="Times,serif" font-size="14.00">2,0 (Sodium Sulfate)</text>
</g>
<!-- 0,0 (LE BUS)&#45;&gt;2,0 (Sodium Sulfate) -->
<g id="edge1" class="edge">
<title>0,0 (LE BUS)&#45;&gt;2,0 (Sodium Sulfate)</title>
<path fill="none" stroke="black" stroke-width="1.55" d="M661.95,-33.44C585.49,-65.11 410.82,-137.46 324.82,-173.08"/>
<polygon fill="black" stroke="black" stroke-width="1.55" points="323.43,-169.87 315.53,-176.93 326.11,-176.34 323.43,-169.87"/>
<text text-anchor="middle" x="446.39" y="-107.06" font-family="Times,serif" font-size="14.00">sulfur*33232</text>
</g>
<!-- 6,4 (Electronic components) -->
<g id="node3" class="node">
<title>6,4 (Electronic components)</title>
<ellipse fill="none" stroke="black" cx="1123.33" cy="-193.67" rx="141.88" ry="18"/>
<text text-anchor="middle" x="1123.33" y="-189.97" font-family="Times,serif" font-size="14.00">6,4 (Electronic components)</text>
</g>
<!-- 0,0 (LE BUS)&#45;&gt;6,4 (Electronic components) -->
<g id="edge2" class="edge">
<title>0,0 (LE BUS)&#45;&gt;6,4 (Electronic components)</title>
<path fill="none" stroke="black" stroke-width="0.46" d="M736.48,-33.44C812.56,-64.95 985.85,-136.72 1072.3,-172.54"/>
<polygon fill="black" stroke="black" stroke-width="0.46" points="1071.07,-175.81 1081.65,-176.41 1073.75,-169.35 1071.07,-175.81"/>
<text text-anchor="middle" x="857.39" y="-106.79" font-family="Times,serif" font-size="14.00">sulfur*10000</text>
</g>
<!-- &#45;1,&#45;2 (Aramid fiber) -->
<g id="node5" class="node">
<title>&#45;1,&#45;2 (Aramid fiber)</title>
<ellipse fill="none" stroke="black" cx="99.44" cy="-617.78" rx="99.38" ry="18"/>
<text text-anchor="middle" x="99.44" y="-614.08" font-family="Times,serif" font-size="14.00">&#45;1,&#45;2 (Aramid fiber)</text>
</g>
<!-- 0,0 (LE BUS)&#45;&gt;&#45;1,&#45;2 (Aramid fiber) -->
<g id="edge11" class="edge">
<title>0,0 (LE BUS)&#45;&gt;&#45;1,&#45;2 (Aramid fiber)</title>
<path fill="none" stroke="black" stroke-width="0.13" d="M681.59,-35.63C596.17,-121.05 225.2,-492.02 124.66,-592.56"/>
<polygon fill="black" stroke="black" stroke-width="0.13" points="121.96,-590.31 117.36,-599.86 126.9,-595.26 121.96,-590.31"/>
<text text-anchor="middle" x="360.63" y="-317.89" font-family="Times,serif" font-size="14.00">sulfur*2816</text>
</g>
<!-- 4,6 (Circuit substrate and Doped silicon) -->
<g id="node6" class="node">
<title>4,6 (Circuit substrate and Doped silicon)</title>
<ellipse fill="none" stroke="black" cx="275.11" cy="-1041.89" rx="199.56" ry="18"/>
<text text-anchor="middle" x="275.11" y="-1038.19" font-family="Times,serif" font-size="14.00">4,6 (Circuit substrate and Doped silicon)</text>
</g>
<!-- 0,0 (LE BUS)&#45;&gt;4,6 (Circuit substrate and Doped silicon) -->
<g id="edge12" class="edge">
<title>0,0 (LE BUS)&#45;&gt;4,6 (Circuit substrate and Doped silicon)</title>
<path fill="none" stroke="black" stroke-width="0.47" d="M691.68,-36.21C640.84,-158.95 348.27,-865.28 286.54,-1014.29"/>
<polygon fill="black" stroke="black" stroke-width="0.47" points="283.25,-1013.08 282.66,-1023.66 289.72,-1015.76 283.25,-1013.08"/>
<text text-anchor="middle" x="442.11" y="-529.05" font-family="Times,serif" font-size="14.00">sulfur*10160</text>
</g>
<!-- &#45;1,7 (Rayon) -->
<g id="node7" class="node">
<title>&#45;1,7 (Rayon)</title>
<ellipse fill="none" stroke="black" cx="699.22" cy="-1217.56" rx="66.89" ry="18"/>
<text text-anchor="middle" x="699.22" y="-1213.86" font-family="Times,serif" font-size="14.00">&#45;1,7 (Rayon)</text>
</g>
<!-- 0,0 (LE BUS)&#45;&gt;&#45;1,7 (Rayon) -->
<g id="edge13" class="edge">
<title>0,0 (LE BUS)&#45;&gt;&#45;1,7 (Rayon)</title>
<path fill="none" stroke="black" stroke-width="0.49" d="M699.22,-36.36C699.22,-172.29 699.22,-1021.55 699.22,-1188.93"/>
<polygon fill="black" stroke="black" stroke-width="0.49" points="695.72,-1189.16 699.22,-1199.16 702.72,-1189.16 695.72,-1189.16"/>
<text text-anchor="middle" x="652.22" y="-601.45" font-family="Times,serif" font-size="14.00">sulfur*10464</text>
</g>
<!-- &#45;5,2 (Optical fiber) -->
<g id="node9" class="node">
<title>&#45;5,2 (Optical fiber)</title>
<ellipse fill="none" stroke="black" cx="1123.33" cy="-1041.89" rx="96.38" ry="18"/>
<text text-anchor="middle" x="1123.33" y="-1038.19" font-family="Times,serif" font-size="14.00">&#45;5,2 (Optical fiber)</text>
</g>
<!-- 0,0 (LE BUS)&#45;&gt;&#45;5,2 (Optical fiber) -->
<g id="edge9" class="edge">
<title>0,0 (LE BUS)&#45;&gt;&#45;5,2 (Optical fiber)</title>
<path fill="none" stroke="black" stroke-width="0.48" d="M706.76,-36.21C757.6,-158.95 1050.17,-865.28 1111.89,-1014.29"/>
<polygon fill="black" stroke="black" stroke-width="0.48" points="1108.72,-1015.76 1115.78,-1023.66 1115.18,-1013.08 1108.72,-1015.76"/>
<text text-anchor="middle" x="862.33" y="-529.05" font-family="Times,serif" font-size="14.00">sulfur*10304</text>
</g>
<!-- 1,7 (Activated Carbon) -->
<g id="node4" class="node">
<title>1,7 (Activated Carbon)</title>
<ellipse fill="none" stroke="black" cx="1299" cy="-617.78" rx="115.88" ry="18"/>
<text text-anchor="middle" x="1299" y="-614.08" font-family="Times,serif" font-size="14.00">1,7 (Activated Carbon)</text>
</g>
<!-- 1,7 (Activated Carbon)&#45;&gt;2,0 (Sodium Sulfate) -->
<g id="edge7" class="edge">
<title>1,7 (Activated Carbon)&#45;&gt;2,0 (Sodium Sulfate)</title>
<path fill="none" stroke="black" stroke-width="4.64" d="M1258.23,-600.89C1096.62,-533.95 501.27,-287.35 324.75,-214.23"/>
<polygon fill="black" stroke="black" stroke-width="4.64" points="326.23,-210.46 315.44,-210.38 323.13,-217.95 326.23,-210.46"/>
<text text-anchor="middle" x="744.49" y="-411.36" font-family="Times,serif" font-size="14.00">sulfur*99696</text>
</g>
<!-- 1,7 (Activated Carbon)&#45;&gt;6,4 (Electronic components) -->
<g id="edge8" class="edge">
<title>1,7 (Activated Carbon)&#45;&gt;6,4 (Electronic components)</title>
<path fill="none" stroke="black" stroke-width="0.46" d="M1291.45,-599.55C1263.8,-532.81 1167.95,-301.41 1134.75,-221.26"/>
<polygon fill="black" stroke="black" stroke-width="0.46" points="1137.91,-219.73 1130.85,-211.83 1131.44,-222.4 1137.91,-219.73"/>
<text text-anchor="middle" x="1166.1" y="-414.21" font-family="Times,serif" font-size="14.00">sulfur*10000</text>
</g>
<!-- 1,7 (Activated Carbon)&#45;&gt;&#45;1,&#45;2 (Aramid fiber) -->
<g id="edge3" class="edge">
<title>1,7 (Activated Carbon)&#45;&gt;&#45;1,&#45;2 (Aramid fiber)</title>
<path fill="none" stroke="black" stroke-width="1.43" d="M1183.16,-617.78C951.83,-617.78 435.48,-617.78 209.22,-617.78"/>
<polygon fill="black" stroke="black" stroke-width="1.43" points="209,-614.28 199,-617.78 209,-621.28 209,-614.28"/>
<text text-anchor="middle" x="649.19" y="-621.58" font-family="Times,serif" font-size="14.00">sulfur*30736</text>
</g>
<!-- 1,7 (Activated Carbon)&#45;&gt;4,6 (Circuit substrate and Doped silicon) -->
<g id="edge4" class="edge">
<title>1,7 (Activated Carbon)&#45;&gt;4,6 (Circuit substrate and Doped silicon)</title>
<path fill="none" stroke="black" stroke-width="0.48" d="M1258.23,-634.67C1097.35,-701.3 506.64,-945.98 327.17,-1020.32"/>
<polygon fill="black" stroke="black" stroke-width="0.48" points="325.59,-1017.19 317.69,-1024.25 328.27,-1023.66 325.59,-1017.19"/>
<text text-anchor="middle" x="745.7" y="-831.29" font-family="Times,serif" font-size="14.00">sulfur*10320</text>
</g>
<!-- 1,7 (Activated Carbon)&#45;&gt;&#45;1,7 (Rayon) -->
<g id="edge5" class="edge">
<title>1,7 (Activated Carbon)&#45;&gt;&#45;1,7 (Rayon)</title>
<path fill="none" stroke="black" stroke-width="1.34" d="M1281.05,-635.73C1194.9,-721.88 823.9,-1092.87 724.05,-1192.72"/>
<polygon fill="black" stroke="black" stroke-width="1.34" points="721.4,-1190.42 716.81,-1199.97 726.35,-1195.37 721.4,-1190.42"/>
<text text-anchor="middle" x="955.55" y="-918.03" font-family="Times,serif" font-size="14.00">sulfur*28736</text>
</g>
<!-- 4,12 (Molten Glass) -->
<g id="node8" class="node">
<title>4,12 (Molten Glass)</title>
<ellipse fill="none" stroke="black" cx="1473.04" cy="-617.78" rx="102.08" ry="18"/>
<text text-anchor="middle" x="1473.04" y="-614.08" font-family="Times,serif" font-size="14.00">4,12 (Molten Glass)</text>
</g>
<!-- 1,7 (Activated Carbon)&#45;&gt;4,12 (Molten Glass) -->
<g id="edge6" class="edge">
<title>1,7 (Activated Carbon)&#45;&gt;4,12 (Molten Glass)</title>
<path fill="none" stroke="black" stroke-width="0.58" d="M1415.09,-617.78C1415.15,-617.78 1415.21,-617.78 1415.27,-617.78"/>
<polygon fill="black" stroke="black" stroke-width="0.58" points="1405.46,-621.28 1415.46,-617.78 1405.46,-614.28 1405.46,-621.28"/>
<text text-anchor="middle" x="1462.18" y="-621.58" font-family="Times,serif" font-size="14.00">sulfur*12528</text>
</g>
<!-- 1,7 (Activated Carbon)&#45;&gt;&#45;5,2 (Optical fiber) -->
<g id="edge10" class="edge">
<title>1,7 (Activated Carbon)&#45;&gt;&#45;5,2 (Optical fiber)</title>
<path fill="none" stroke="black" stroke-width="0.49" d="M1291.45,-636C1263.8,-702.75 1167.95,-934.15 1134.75,-1014.3"/>
<polygon fill="black" stroke="black" stroke-width="0.49" points="1131.44,-1013.15 1130.85,-1023.73 1137.91,-1015.83 1131.44,-1013.15"/>
<text text-anchor="middle" x="1166.1" y="-828.95" font-family="Times,serif" font-size="14.00">sulfur*10608</text>
</g>
</g>
</svg>
