<?xml version="1.0" encoding="UTF-8" standalone="no"?>
<!DOCTYPE svg PUBLIC "-//W3C//DTD SVG 1.1//EN"
 "http://www.w3.org/Graphics/SVG/1.1/DTD/svg11.dtd">
<!-- Generated by graphviz version 2.43.0 (0)
 -->
<!-- Title: %3 Pages: 1 -->
<svg width="1220pt" height="1174pt"
 viewBox="0.00 0.00 1219.92 1174.28" xmlns="http://www.w3.org/2000/svg" xmlns:xlink="http://www.w3.org/1999/xlink">
<g id="graph0" class="graph" transform="scale(1 1) rotate(0) translate(4 1170.28)">
<title>%3</title>
<polygon fill="white" stroke="transparent" points="-4,4 -4,-1170.28 1215.92,-1170.28 1215.92,4 -4,4"/>
<!-- 0,5 (Titanium Processing (Grade 4)) -->
<g id="node1" class="node">
<title>0,5 (Titanium Processing (Grade 4))</title>
<ellipse fill="none" stroke="black" cx="599.17" cy="-585.16" rx="176.57" ry="18"/>
<text text-anchor="middle" x="599.17" y="-581.46" font-family="Times,serif" font-size="14.00">0,5 (Titanium Processing (Grade 4))</text>
</g>
<!-- &#45;4,1 () -->
<g id="node2" class="node">
<title>&#45;4,1 ()</title>
<ellipse fill="none" stroke="black" cx="1173.58" cy="-585.16" rx="38.19" ry="18"/>
<text text-anchor="middle" x="1173.58" y="-581.46" font-family="Times,serif" font-size="14.00">&#45;4,1 ()</text>
</g>
<!-- 0,5 (Titanium Processing (Grade 4))&#45;&gt;&#45;4,1 () -->
<g id="edge1" class="edge">
<title>0,5 (Titanium Processing (Grade 4))&#45;&gt;&#45;4,1 ()</title>
<path fill="none" stroke="black" stroke-width="1.05" d="M776.2,-585.16C897.09,-585.16 1048.69,-585.16 1124.97,-585.16"/>
<polygon fill="black" stroke="black" stroke-width="1.05" points="1125.22,-588.66 1135.22,-585.16 1125.22,-581.66 1125.22,-588.66"/>
<text text-anchor="middle" x="873.58" y="-588.96" font-family="Times,serif" font-size="14.00">titanium&#45;plate*12128</text>
</g>
<!-- 0,10 (item=meat Meat) -->
<g id="node3" class="node">
<title>0,10 (item=meat Meat)</title>
<ellipse fill="none" stroke="black" cx="712.49" cy="-1148.28" rx="120.48" ry="18"/>
<text text-anchor="middle" x="712.49" y="-1144.58" font-family="Times,serif" font-size="14.00">0,10 (item=meat Meat)</text>
</g>
<!-- 0,5 (Titanium Processing (Grade 4))&#45;&gt;0,10 (item=meat Meat) -->
<g id="edge2" class="edge">
<title>0,5 (Titanium Processing (Grade 4))&#45;&gt;0,10 (item=meat Meat)</title>
<path fill="none" stroke="black" stroke-width="1.27" d="M602.81,-603.26C619.28,-685.09 686.83,-1020.78 706.86,-1120.33"/>
<polygon fill="black" stroke="black" stroke-width="1.27" points="703.46,-1121.14 708.86,-1130.25 710.32,-1119.75 703.46,-1121.14"/>
<text text-anchor="middle" x="577.84" y="-865.6" font-family="Times,serif" font-size="14.00">titanium&#45;plate*14608</text>
</g>
<!-- &#45;3,8 (Urea) -->
<g id="node4" class="node">
<title>&#45;3,8 (Urea)</title>
<ellipse fill="none" stroke="black" cx="61.09" cy="-786.2" rx="61.19" ry="18"/>
<text text-anchor="middle" x="61.09" y="-782.5" font-family="Times,serif" font-size="14.00">&#45;3,8 (Urea)</text>
</g>
<!-- 0,5 (Titanium Processing (Grade 4))&#45;&gt;&#45;3,8 (Urea) -->
<g id="edge3" class="edge">
<title>0,5 (Titanium Processing (Grade 4))&#45;&gt;&#45;3,8 (Urea)</title>
<path fill="none" stroke="black" stroke-width="1.24" d="M552.36,-602.65C450.68,-640.64 210.59,-730.34 108.43,-768.51"/>
<polygon fill="black" stroke="black" stroke-width="1.24" points="107.13,-765.26 98.99,-772.04 109.58,-771.82 107.13,-765.26"/>
<text text-anchor="middle" x="253.4" y="-689.38" font-family="Times,serif" font-size="14.00">titanium&#45;plate*14336</text>
</g>
<!-- &#45;1,6 (Flimble&#39;s Slaughterhouse and Daycare Centre, Auog Products) -->
<g id="node5" class="node">
<title>&#45;1,6 (Flimble&#39;s Slaughterhouse and Daycare Centre, Auog Products)</title>
<ellipse fill="none" stroke="black" cx="508.24" cy="-18" rx="325.74" ry="18"/>
<text text-anchor="middle" x="508.24" y="-14.3" font-family="Times,serif" font-size="14.00">&#45;1,6 (Flimble&#39;s Slaughterhouse and Daycare Centre, Auog Products)</text>
</g>
<!-- 0,5 (Titanium Processing (Grade 4))&#45;&gt;&#45;1,6 (Flimble&#39;s Slaughterhouse and Daycare Centre, Auog Products) -->
<g id="edge4" class="edge">
<title>0,5 (Titanium Processing (Grade 4))&#45;&gt;&#45;1,6 (Flimble&#39;s Slaughterhouse and Daycare Centre, Auog Products)</title>
<path fill="none" stroke="black" stroke-width="0.44" d="M596.25,-566.93C583.04,-484.52 528.83,-146.41 512.75,-46.15"/>
<polygon fill="black" stroke="black" stroke-width="0.44" points="516.19,-45.48 511.15,-36.16 509.28,-46.59 516.19,-45.48"/>
<text text-anchor="middle" x="482" y="-310.34" font-family="Times,serif" font-size="14.00">titanium&#45;plate*5072</text>
</g>
</g>
</svg>
