<?xml version="1.0" encoding="UTF-8" standalone="no"?>
<!DOCTYPE svg PUBLIC "-//W3C//DTD SVG 1.1//EN"
 "http://www.w3.org/Graphics/SVG/1.1/DTD/svg11.dtd">
<!-- Generated by graphviz version 2.43.0 (0)
 -->
<!-- Title: %3 Pages: 1 -->
<svg width="1457pt" height="808pt"
 viewBox="0.00 0.00 1457.18 807.63" xmlns="http://www.w3.org/2000/svg" xmlns:xlink="http://www.w3.org/1999/xlink">
<g id="graph0" class="graph" transform="scale(1 1) rotate(0) translate(4 803.63)">
<title>%3</title>
<polygon fill="white" stroke="transparent" points="-4,4 -4,-803.63 1453.18,-803.63 1453.18,4 -4,4"/>
<!-- &#45;5,0 (item=small&#45;lampitem=petri&#45;dish Lamptri dishes) -->
<g id="node1" class="node">
<title>&#45;5,0 (item=small&#45;lampitem=petri&#45;dish Lamptri dishes)</title>
<ellipse fill="none" stroke="black" cx="835.12" cy="-399.81" rx="263.75" ry="18"/>
<text text-anchor="middle" x="835.12" y="-396.11" font-family="Times,serif" font-size="14.00">&#45;5,0 (item=small&#45;lampitem=petri&#45;dish Lamptri dishes)</text>
</g>
<!-- 4,4 (Hydrogen Chloride, item=nylon Nylon/Nylon parts) -->
<g id="node2" class="node">
<title>4,4 (Hydrogen Chloride, item=nylon Nylon/Nylon parts)</title>
<ellipse fill="none" stroke="black" cx="1178.15" cy="-399.81" rx="271.05" ry="18"/>
<text text-anchor="middle" x="1178.15" y="-396.11" font-family="Times,serif" font-size="14.00">4,4 (Hydrogen Chloride, item=nylon Nylon/Nylon parts)</text>
</g>
<!-- &#45;5,0 (item=small&#45;lampitem=petri&#45;dish Lamptri dishes)&#45;&gt;4,4 (Hydrogen Chloride, item=nylon Nylon/Nylon parts) -->
<g id="edge1" class="edge">
<title>&#45;5,0 (item=small&#45;lampitem=petri&#45;dish Lamptri dishes)&#45;&gt;4,4 (Hydrogen Chloride, item=nylon Nylon/Nylon parts)</title>
<path fill="none" stroke="black" stroke-width="0.23" d="M1099.02,-399.81C1099.07,-399.81 1099.11,-399.81 1099.16,-399.81"/>
<polygon fill="black" stroke="black" stroke-width="0.23" points="1089.29,-403.32 1099.29,-399.81 1089.29,-396.32 1089.29,-403.32"/>
<text text-anchor="middle" x="1159.59" y="-403.61" font-family="Times,serif" font-size="14.00">small&#45;lamp*2016</text>
</g>
<!-- &#45;6,4 (Urea) -->
<g id="node3" class="node">
<title>&#45;6,4 (Urea)</title>
<ellipse fill="none" stroke="black" cx="453.31" cy="-18" rx="61.19" ry="18"/>
<text text-anchor="middle" x="453.31" y="-14.3" font-family="Times,serif" font-size="14.00">&#45;6,4 (Urea)</text>
</g>
<!-- &#45;5,0 (item=small&#45;lampitem=petri&#45;dish Lamptri dishes)&#45;&gt;&#45;6,4 (Urea) -->
<g id="edge2" class="edge">
<title>&#45;5,0 (item=small&#45;lampitem=petri&#45;dish Lamptri dishes)&#45;&gt;&#45;6,4 (Urea)</title>
<path fill="none" stroke="black" stroke-width="2.01" d="M816.96,-381.66C754.62,-319.31 549.23,-113.92 477.94,-42.63"/>
<polygon fill="black" stroke="black" stroke-width="2.01" points="480.24,-39.98 470.7,-35.39 475.29,-44.93 480.24,-39.98"/>
<text text-anchor="middle" x="582.45" y="-215.94" font-family="Times,serif" font-size="14.00">small&#45;lamp*17296</text>
</g>
<!-- &#45;3,7 (item=sea&#45;sponge&#45;sprouts Also Borax) -->
<g id="node4" class="node">
<title>&#45;3,7 (item=sea&#45;sponge&#45;sprouts Also Borax)</title>
<ellipse fill="none" stroke="black" cx="453.31" cy="-781.63" rx="209.06" ry="18"/>
<text text-anchor="middle" x="453.31" y="-777.93" font-family="Times,serif" font-size="14.00">&#45;3,7 (item=sea&#45;sponge&#45;sprouts Also Borax)</text>
</g>
<!-- &#45;5,0 (item=small&#45;lampitem=petri&#45;dish Lamptri dishes)&#45;&gt;&#45;3,7 (item=sea&#45;sponge&#45;sprouts Also Borax) -->
<g id="edge3" class="edge">
<title>&#45;5,0 (item=small&#45;lampitem=petri&#45;dish Lamptri dishes)&#45;&gt;&#45;3,7 (item=sea&#45;sponge&#45;sprouts Also Borax)</title>
<path fill="none" stroke="black" stroke-width="1.94" d="M816.96,-417.97C754.91,-480.03 551.11,-683.83 478.93,-756.01"/>
<polygon fill="black" stroke="black" stroke-width="1.94" points="476.17,-753.81 471.58,-763.36 481.12,-758.76 476.17,-753.81"/>
<text text-anchor="middle" x="582.95" y="-590.79" font-family="Times,serif" font-size="14.00">small&#45;lamp*16695</text>
</g>
<!-- 0,0 (LE BUS) -->
<g id="node5" class="node">
<title>0,0 (LE BUS)</title>
<ellipse fill="none" stroke="black" cx="71.49" cy="-399.81" rx="71.49" ry="18"/>
<text text-anchor="middle" x="71.49" y="-396.11" font-family="Times,serif" font-size="14.00">0,0 (LE BUS)</text>
</g>
<!-- 0,0 (LE BUS)&#45;&gt;&#45;6,4 (Urea) -->
<g id="edge4" class="edge">
<title>0,0 (LE BUS)&#45;&gt;&#45;6,4 (Urea)</title>
<path fill="none" stroke="black" stroke-width="0.33" d="M89.14,-382.16C150.84,-320.47 356.99,-114.32 428.57,-42.74"/>
<polygon fill="black" stroke="black" stroke-width="0.33" points="431.25,-45.01 435.85,-35.46 426.3,-40.06 431.25,-45.01"/>
<text text-anchor="middle" x="198.36" y="-216.25" font-family="Times,serif" font-size="14.00">small&#45;lamp*2832</text>
</g>
<!-- 0,0 (LE BUS)&#45;&gt;&#45;3,7 (item=sea&#45;sponge&#45;sprouts Also Borax) -->
<g id="edge5" class="edge">
<title>0,0 (LE BUS)&#45;&gt;&#45;3,7 (item=sea&#45;sponge&#45;sprouts Also Borax)</title>
<path fill="none" stroke="black" stroke-width="0.49" d="M89.14,-417.46C150.56,-478.88 355.1,-683.42 427.58,-755.9"/>
<polygon fill="black" stroke="black" stroke-width="0.49" points="425.41,-758.68 434.96,-763.28 430.36,-753.74 425.41,-758.68"/>
<text text-anchor="middle" x="197.86" y="-590.48" font-family="Times,serif" font-size="14.00">small&#45;lamp*4176</text>
</g>
</g>
</svg>
