<?xml version="1.0" encoding="UTF-8" standalone="no"?>
<!DOCTYPE svg PUBLIC "-//W3C//DTD SVG 1.1//EN"
 "http://www.w3.org/Graphics/SVG/1.1/DTD/svg11.dtd">
<!-- Generated by graphviz version 2.43.0 (0)
 -->
<!-- Title: %3 Pages: 1 -->
<svg width="1249pt" height="44pt"
 viewBox="0.00 0.00 1249.10 44.00" xmlns="http://www.w3.org/2000/svg" xmlns:xlink="http://www.w3.org/1999/xlink">
<g id="graph0" class="graph" transform="scale(1 1) rotate(0) translate(4 40)">
<title>%3</title>
<polygon fill="white" stroke="transparent" points="-4,4 -4,-40 1245.1,-40 1245.1,4 -4,4"/>
<!-- &#45;7,&#45;3 (Ulric Manure) -->
<g id="node1" class="node">
<title>&#45;7,&#45;3 (Ulric Manure)</title>
<ellipse fill="none" stroke="black" cx="512.66" cy="-18" rx="102.88" ry="18"/>
<text text-anchor="middle" x="512.66" y="-14.3" font-family="Times,serif" font-size="14.00">&#45;7,&#45;3 (Ulric Manure)</text>
</g>
<!-- &#45;4,2 (This line not currently using manure, Ralesia seeds) -->
<g id="node2" class="node">
<title>&#45;4,2 (This line not currently using manure, Ralesia seeds)</title>
<ellipse fill="none" stroke="black" cx="964.23" cy="-18" rx="276.75" ry="18"/>
<text text-anchor="middle" x="964.23" y="-14.3" font-family="Times,serif" font-size="14.00">&#45;4,2 (This line not currently using manure, Ralesia seeds)</text>
</g>
<!-- &#45;7,&#45;3 (Ulric Manure)&#45;&gt;&#45;4,2 (This line not currently using manure, Ralesia seeds) -->
<g id="edge1" class="edge">
<title>&#45;7,&#45;3 (Ulric Manure)&#45;&gt;&#45;4,2 (This line not currently using manure, Ralesia seeds)</title>
<path fill="none" stroke="black" stroke-width="0.43" d="M615.41,-18C634.59,-18 655.48,-18 677.19,-18"/>
<polygon fill="black" stroke="black" stroke-width="0.43" points="677.22,-21.5 687.22,-18 677.22,-14.5 677.22,-21.5"/>
<text text-anchor="middle" x="646.3" y="-6.8" font-family="Times,serif" font-size="14.00">manure*73208</text>
</g>
<!-- &#45;6,4 (Urea) -->
<g id="node3" class="node">
<title>&#45;6,4 (Urea)</title>
<ellipse fill="none" stroke="black" cx="61.09" cy="-18" rx="61.19" ry="18"/>
<text text-anchor="middle" x="61.09" y="-14.3" font-family="Times,serif" font-size="14.00">&#45;6,4 (Urea)</text>
</g>
<!-- &#45;7,&#45;3 (Ulric Manure)&#45;&gt;&#45;6,4 (Urea) -->
<g id="edge2" class="edge">
<title>&#45;7,&#45;3 (Ulric Manure)&#45;&gt;&#45;6,4 (Urea)</title>
<path fill="none" stroke="black" stroke-width="1.57" d="M409.91,-18C325.27,-18 207.43,-18 132.71,-18"/>
<polygon fill="black" stroke="black" stroke-width="1.57" points="132.46,-14.5 122.46,-18 132.46,-21.5 132.46,-14.5"/>
<text text-anchor="middle" x="213.31" y="-21.8" font-family="Times,serif" font-size="14.00">manure*264208</text>
</g>
</g>
</svg>
