<?xml version="1.0" encoding="UTF-8" standalone="no"?>
<!DOCTYPE svg PUBLIC "-//W3C//DTD SVG 1.1//EN"
 "http://www.w3.org/Graphics/SVG/1.1/DTD/svg11.dtd">
<!-- Generated by graphviz version 2.43.0 (0)
 -->
<!-- Title: %3 Pages: 1 -->
<svg width="1038pt" height="707pt"
 viewBox="0.00 0.00 1038.42 706.85" xmlns="http://www.w3.org/2000/svg" xmlns:xlink="http://www.w3.org/1999/xlink">
<g id="graph0" class="graph" transform="scale(1 1) rotate(0) translate(4 702.85)">
<title>%3</title>
<polygon fill="white" stroke="transparent" points="-4,4 -4,-702.85 1034.42,-702.85 1034.42,4 -4,4"/>
<!-- 4,&#45;2 (Ceramic) -->
<g id="node1" class="node">
<title>4,&#45;2 (Ceramic)</title>
<ellipse fill="none" stroke="black" cx="499.56" cy="-308.4" rx="76.89" ry="18"/>
<text text-anchor="middle" x="499.56" y="-304.7" font-family="Times,serif" font-size="14.00">4,&#45;2 (Ceramic)</text>
</g>
<!-- 6,4 (Electronic components) -->
<g id="node2" class="node">
<title>6,4 (Electronic components)</title>
<ellipse fill="none" stroke="black" cx="888.73" cy="-308.4" rx="141.88" ry="18"/>
<text text-anchor="middle" x="888.73" y="-304.7" font-family="Times,serif" font-size="14.00">6,4 (Electronic components)</text>
</g>
<!-- 4,&#45;2 (Ceramic)&#45;&gt;6,4 (Electronic components) -->
<g id="edge1" class="edge">
<title>4,&#45;2 (Ceramic)&#45;&gt;6,4 (Electronic components)</title>
<path fill="none" stroke="black" stroke-width="1.44" d="M576.45,-308.4C622.22,-308.4 681.91,-308.4 736.83,-308.4"/>
<polygon fill="black" stroke="black" stroke-width="1.44" points="737.03,-311.9 747.03,-308.4 737.03,-304.9 737.03,-311.9"/>
<text text-anchor="middle" x="682.39" y="-297.2" font-family="Times,serif" font-size="14.00">cermet*27104</text>
</g>
<!-- 0,0 (LE BUS) -->
<g id="node3" class="node">
<title>0,0 (LE BUS)</title>
<ellipse fill="none" stroke="black" cx="386.69" cy="-680.85" rx="71.49" ry="18"/>
<text text-anchor="middle" x="386.69" y="-677.15" font-family="Times,serif" font-size="14.00">0,0 (LE BUS)</text>
</g>
<!-- 4,&#45;2 (Ceramic)&#45;&gt;0,0 (LE BUS) -->
<g id="edge2" class="edge">
<title>4,&#45;2 (Ceramic)&#45;&gt;0,0 (LE BUS)</title>
<path fill="none" stroke="black" stroke-width="0.21" d="M494.11,-326.36C475.94,-386.33 417.27,-579.94 395.2,-652.79"/>
<polygon fill="black" stroke="black" stroke-width="0.21" points="391.76,-652.04 392.21,-662.63 398.46,-654.07 391.76,-652.04"/>
<text text-anchor="middle" x="397.66" y="-493.37" font-family="Times,serif" font-size="14.00">cermet*4048</text>
</g>
<!-- 3,3 (Random electronic components, Small Parts) -->
<g id="node4" class="node">
<title>3,3 (Random electronic components, Small Parts)</title>
<ellipse fill="none" stroke="black" cx="240.48" cy="-18" rx="240.46" ry="18"/>
<text text-anchor="middle" x="240.48" y="-14.3" font-family="Times,serif" font-size="14.00">3,3 (Random electronic components, Small Parts)</text>
</g>
<!-- 4,&#45;2 (Ceramic)&#45;&gt;3,3 (Random electronic components, Small Parts) -->
<g id="edge3" class="edge">
<title>4,&#45;2 (Ceramic)&#45;&gt;3,3 (Random electronic components, Small Parts)</title>
<path fill="none" stroke="black" stroke-width="1.35" d="M483.74,-290.67C439.67,-241.27 315.34,-101.91 263.56,-43.87"/>
<polygon fill="black" stroke="black" stroke-width="1.35" points="266.02,-41.37 256.75,-36.24 260.8,-46.03 266.02,-41.37"/>
<text text-anchor="middle" x="322.15" y="-171.07" font-family="Times,serif" font-size="14.00">cermet*25424</text>
</g>
</g>
</svg>
