<?xml version="1.0" encoding="UTF-8" standalone="no"?>
<!DOCTYPE svg PUBLIC "-//W3C//DTD SVG 1.1//EN"
 "http://www.w3.org/Graphics/SVG/1.1/DTD/svg11.dtd">
<!-- Generated by graphviz version 2.43.0 (0)
 -->
<!-- Title: %3 Pages: 1 -->
<svg width="621pt" height="422pt"
 viewBox="0.00 0.00 621.23 422.00" xmlns="http://www.w3.org/2000/svg" xmlns:xlink="http://www.w3.org/1999/xlink">
<g id="graph0" class="graph" transform="scale(1 1) rotate(0) translate(4 418)">
<title>%3</title>
<polygon fill="white" stroke="transparent" points="-4,4 -4,-418 617.23,-418 617.23,4 -4,4"/>
<!-- &#45;6,4 (Urea) -->
<g id="node1" class="node">
<title>&#45;6,4 (Urea)</title>
<ellipse fill="none" stroke="black" cx="352.74" cy="-18" rx="61.19" ry="18"/>
<text text-anchor="middle" x="352.74" y="-14.3" font-family="Times,serif" font-size="14.00">&#45;6,4 (Urea)</text>
</g>
<!-- &#45;5,0 (Petri dishes) -->
<g id="node2" class="node">
<title>&#45;5,0 (Petri dishes)</title>
<ellipse fill="none" stroke="black" cx="163.74" cy="-207" rx="92.88" ry="18"/>
<text text-anchor="middle" x="163.74" y="-203.3" font-family="Times,serif" font-size="14.00">&#45;5,0 (Petri dishes)</text>
</g>
<!-- &#45;6,4 (Urea)&#45;&gt;&#45;5,0 (Petri dishes) -->
<g id="edge1" class="edge">
<title>&#45;6,4 (Urea)&#45;&gt;&#45;5,0 (Petri dishes)</title>
<path fill="none" stroke="black" stroke-width="2.2" d="M335.3,-35.44C301.63,-69.11 227.58,-143.16 188.7,-182.04"/>
<polygon fill="black" stroke="black" stroke-width="2.2" points="186.01,-179.78 181.42,-189.33 190.96,-184.73 186.01,-179.78"/>
<text text-anchor="middle" x="131" y="-112.54" font-family="Times,serif" font-size="14.00">combustion&#45;mixture1&#45;barrel*114652</text>
</g>
<!-- 0,0 (LE BUS) -->
<g id="node3" class="node">
<title>0,0 (LE BUS)</title>
<ellipse fill="none" stroke="black" cx="541.74" cy="-207" rx="71.49" ry="18"/>
<text text-anchor="middle" x="541.74" y="-203.3" font-family="Times,serif" font-size="14.00">0,0 (LE BUS)</text>
</g>
<!-- &#45;6,4 (Urea)&#45;&gt;0,0 (LE BUS) -->
<g id="edge2" class="edge">
<title>&#45;6,4 (Urea)&#45;&gt;0,0 (LE BUS)</title>
<path fill="none" stroke="black" stroke-width="1.31" d="M370.18,-35.44C403.85,-69.11 477.9,-143.16 516.78,-182.04"/>
<polygon fill="black" stroke="black" stroke-width="1.31" points="514.52,-184.73 524.07,-189.33 519.47,-179.78 514.52,-184.73"/>
<text text-anchor="middle" x="316.98" y="-97.54" font-family="Times,serif" font-size="14.00">combustion&#45;mixture1&#45;barrel*68120</text>
</g>
<!-- 4,10 (Fluid Recycling) -->
<g id="node4" class="node">
<title>4,10 (Fluid Recycling)</title>
<ellipse fill="none" stroke="black" cx="352.74" cy="-396" rx="112.38" ry="18"/>
<text text-anchor="middle" x="352.74" y="-392.3" font-family="Times,serif" font-size="14.00">4,10 (Fluid Recycling)</text>
</g>
<!-- 4,10 (Fluid Recycling)&#45;&gt;&#45;5,0 (Petri dishes) -->
<g id="edge3" class="edge">
<title>4,10 (Fluid Recycling)&#45;&gt;&#45;5,0 (Petri dishes)</title>
<path fill="none" stroke="black" stroke-width="0.36" d="M334.96,-378.22C301.19,-344.45 227.69,-270.95 188.89,-232.15"/>
<polygon fill="black" stroke="black" stroke-width="0.36" points="191.16,-229.47 181.61,-224.87 186.21,-234.42 191.16,-229.47"/>
<text text-anchor="middle" x="135.42" y="-308.98" font-family="Times,serif" font-size="14.00">combustion&#45;mixture1&#45;barrel*18652</text>
</g>
<!-- 4,10 (Fluid Recycling)&#45;&gt;0,0 (LE BUS) -->
<g id="edge4" class="edge">
<title>4,10 (Fluid Recycling)&#45;&gt;0,0 (LE BUS)</title>
<path fill="none" stroke="black" stroke-width="0.13" d="M370.52,-378.22C404.38,-344.36 478.17,-270.57 516.89,-231.85"/>
<polygon fill="black" stroke="black" stroke-width="0.13" points="519.55,-234.14 524.15,-224.6 514.6,-229.19 519.55,-234.14"/>
<text text-anchor="middle" x="321.71" y="-293.83" font-family="Times,serif" font-size="14.00">combustion&#45;mixture1&#45;barrel*6900</text>
</g>
</g>
</svg>
