<?xml version="1.0" encoding="UTF-8" standalone="no"?>
<!DOCTYPE svg PUBLIC "-//W3C//DTD SVG 1.1//EN"
 "http://www.w3.org/Graphics/SVG/1.1/DTD/svg11.dtd">
<!-- Generated by graphviz version 2.43.0 (0)
 -->
<!-- Title: %3 Pages: 1 -->
<svg width="1087pt" height="860pt"
 viewBox="0.00 0.00 1086.94 859.85" xmlns="http://www.w3.org/2000/svg" xmlns:xlink="http://www.w3.org/1999/xlink">
<g id="graph0" class="graph" transform="scale(1 1) rotate(0) translate(4 855.85)">
<title>%3</title>
<polygon fill="white" stroke="transparent" points="-4,4 -4,-855.85 1082.94,-855.85 1082.94,4 -4,4"/>
<!-- 4,1 (item=filtration&#45;media Filtration Media) -->
<g id="node1" class="node">
<title>4,1 (item=filtration&#45;media Filtration Media)</title>
<ellipse fill="none" stroke="black" cx="392.09" cy="-427.16" rx="214.46" ry="18"/>
<text text-anchor="middle" x="392.09" y="-423.46" font-family="Times,serif" font-size="14.00">4,1 (item=filtration&#45;media Filtration Media)</text>
</g>
<!-- 3,6 (Phosphoric Acid and Phosphine gas) -->
<g id="node2" class="node">
<title>3,6 (Phosphoric Acid and Phosphine gas)</title>
<ellipse fill="none" stroke="black" cx="878.75" cy="-427.16" rx="200.36" ry="18"/>
<text text-anchor="middle" x="878.75" y="-423.46" font-family="Times,serif" font-size="14.00">3,6 (Phosphoric Acid and Phosphine gas)</text>
</g>
<!-- 4,1 (item=filtration&#45;media Filtration Media)&#45;&gt;3,6 (Phosphoric Acid and Phosphine gas) -->
<g id="edge1" class="edge">
<title>4,1 (item=filtration&#45;media Filtration Media)&#45;&gt;3,6 (Phosphoric Acid and Phosphine gas)</title>
<path fill="none" stroke="black" stroke-width="0.83" d="M606.61,-427.16C627.09,-427.16 647.84,-427.16 668.27,-427.16"/>
<polygon fill="black" stroke="black" stroke-width="0.83" points="668.28,-430.66 678.28,-427.16 668.28,-423.66 668.28,-430.66"/>
<text text-anchor="middle" x="637.44" y="-415.96" font-family="Times,serif" font-size="14.00">filtration&#45;media*4272</text>
</g>
<!-- 0,12 (Phosphate mining) -->
<g id="node3" class="node">
<title>0,12 (Phosphate mining)</title>
<ellipse fill="none" stroke="black" cx="124.79" cy="-833.85" rx="124.58" ry="18"/>
<text text-anchor="middle" x="124.79" y="-830.15" font-family="Times,serif" font-size="14.00">0,12 (Phosphate mining)</text>
</g>
<!-- 4,1 (item=filtration&#45;media Filtration Media)&#45;&gt;0,12 (Phosphate mining) -->
<g id="edge2" class="edge">
<title>4,1 (item=filtration&#45;media Filtration Media)&#45;&gt;0,12 (Phosphate mining)</title>
<path fill="none" stroke="black" stroke-width="0.12" d="M380.26,-445.16C337.83,-509.72 193.15,-729.84 142.49,-806.92"/>
<polygon fill="black" stroke="black" stroke-width="0.12" points="139.35,-805.31 136.79,-815.59 145.2,-809.16 139.35,-805.31"/>
<text text-anchor="middle" x="188.87" y="-629.84" font-family="Times,serif" font-size="14.00">filtration&#45;media*624</text>
</g>
<!-- 3,&#45;1 (Nitrogen, Oxygen) -->
<g id="node4" class="node">
<title>3,&#45;1 (Nitrogen, Oxygen)</title>
<ellipse fill="none" stroke="black" cx="128.6" cy="-18" rx="120.48" ry="18"/>
<text text-anchor="middle" x="128.6" y="-14.3" font-family="Times,serif" font-size="14.00">3,&#45;1 (Nitrogen, Oxygen)</text>
</g>
<!-- 4,1 (item=filtration&#45;media Filtration Media)&#45;&gt;3,&#45;1 (Nitrogen, Oxygen) -->
<g id="edge3" class="edge">
<title>4,1 (item=filtration&#45;media Filtration Media)&#45;&gt;3,&#45;1 (Nitrogen, Oxygen)</title>
<path fill="none" stroke="black" stroke-width="2.05" d="M380.43,-409.05C338.61,-344.11 195.99,-122.64 146.05,-45.09"/>
<polygon fill="black" stroke="black" stroke-width="2.05" points="148.79,-42.88 140.43,-36.36 142.9,-46.67 148.79,-42.88"/>
<text text-anchor="middle" x="181.74" y="-230.87" font-family="Times,serif" font-size="14.00">filtration&#45;media*10608</text>
</g>
</g>
</svg>
