<?xml version="1.0" encoding="UTF-8" standalone="no"?>
<!DOCTYPE svg PUBLIC "-//W3C//DTD SVG 1.1//EN"
 "http://www.w3.org/Graphics/SVG/1.1/DTD/svg11.dtd">
<!-- Generated by graphviz version 2.43.0 (0)
 -->
<!-- Title: %3 Pages: 1 -->
<svg width="1751pt" height="1307pt"
 viewBox="0.00 0.00 1751.45 1307.33" xmlns="http://www.w3.org/2000/svg" xmlns:xlink="http://www.w3.org/1999/xlink">
<g id="graph0" class="graph" transform="scale(1 1) rotate(0) translate(4 1303.33)">
<title>%3</title>
<polygon fill="white" stroke="transparent" points="-4,4 -4,-1303.33 1747.45,-1303.33 1747.45,4 -4,4"/>
<!-- 3,9 (Copper, molten &amp; plate) -->
<g id="node1" class="node">
<title>3,9 (Copper, molten &amp; plate)</title>
<ellipse fill="none" stroke="black" cx="781.63" cy="-18" rx="143.77" ry="18"/>
<text text-anchor="middle" x="781.63" y="-14.3" font-family="Times,serif" font-size="14.00">3,9 (Copper, molten &amp; plate)</text>
</g>
<!-- 0,0 (LE BUS) -->
<g id="node2" class="node">
<title>0,0 (LE BUS)</title>
<ellipse fill="none" stroke="black" cx="403.96" cy="-319.18" rx="71.49" ry="18"/>
<text text-anchor="middle" x="403.96" y="-315.48" font-family="Times,serif" font-size="14.00">0,0 (LE BUS)</text>
</g>
<!-- 3,9 (Copper, molten &amp; plate)&#45;&gt;0,0 (LE BUS) -->
<g id="edge1" class="edge">
<title>3,9 (Copper, molten &amp; plate)&#45;&gt;0,0 (LE BUS)</title>
<path fill="none" stroke="black" stroke-width="2.37" d="M759.14,-35.94C694.31,-87.64 507.03,-236.98 433.81,-295.38"/>
<polygon fill="black" stroke="black" stroke-width="2.37" points="431.5,-292.74 425.87,-301.71 435.87,-298.22 431.5,-292.74"/>
<text text-anchor="middle" x="550.98" y="-169.46" font-family="Times,serif" font-size="14.00">stone*75120</text>
</g>
<!-- 1,8 (A copper mine, Salt) -->
<g id="node3" class="node">
<title>1,8 (A copper mine, Salt)</title>
<ellipse fill="none" stroke="black" cx="1462.17" cy="-560.71" rx="126.18" ry="18"/>
<text text-anchor="middle" x="1462.17" y="-557.01" font-family="Times,serif" font-size="14.00">1,8 (A copper mine, Salt)</text>
</g>
<!-- 3,9 (Copper, molten &amp; plate)&#45;&gt;1,8 (A copper mine, Salt) -->
<g id="edge2" class="edge">
<title>3,9 (Copper, molten &amp; plate)&#45;&gt;1,8 (A copper mine, Salt)</title>
<path fill="none" stroke="black" stroke-width="0.81" d="M804.28,-36.06C905.41,-116.71 1315.92,-444.08 1431.66,-536.38"/>
<polygon fill="black" stroke="black" stroke-width="0.81" points="1429.79,-539.36 1439.79,-542.86 1434.15,-533.89 1429.79,-539.36"/>
<text text-anchor="middle" x="1072.47" y="-290.02" font-family="Times,serif" font-size="14.00">stone*25584</text>
</g>
<!-- &#45;3,2 (Lead and Solder) -->
<g id="node4" class="node">
<title>&#45;3,2 (Lead and Solder)</title>
<ellipse fill="none" stroke="black" cx="113.74" cy="-412.85" rx="113.98" ry="18"/>
<text text-anchor="middle" x="113.74" y="-409.15" font-family="Times,serif" font-size="14.00">&#45;3,2 (Lead and Solder)</text>
</g>
<!-- &#45;3,2 (Lead and Solder)&#45;&gt;0,0 (LE BUS) -->
<g id="edge3" class="edge">
<title>&#45;3,2 (Lead and Solder)&#45;&gt;0,0 (LE BUS)</title>
<path fill="none" stroke="black" stroke-width="0.95" d="M163.96,-396.64C215.89,-379.88 296.69,-353.8 349.97,-336.61"/>
<polygon fill="black" stroke="black" stroke-width="0.95" points="351.14,-339.91 359.58,-333.51 348.99,-333.25 351.14,-339.91"/>
<text text-anchor="middle" x="211.46" y="-370.43" font-family="Times,serif" font-size="14.00">stone*30160</text>
</g>
<!-- &#45;6,7 (Iron ore dust) -->
<g id="node5" class="node">
<title>&#45;6,7 (Iron ore dust)</title>
<ellipse fill="none" stroke="black" cx="403.96" cy="-802.24" rx="98.58" ry="18"/>
<text text-anchor="middle" x="403.96" y="-798.54" font-family="Times,serif" font-size="14.00">&#45;6,7 (Iron ore dust)</text>
</g>
<!-- &#45;6,7 (Iron ore dust)&#45;&gt;0,0 (LE BUS) -->
<g id="edge4" class="edge">
<title>&#45;6,7 (Iron ore dust)&#45;&gt;0,0 (LE BUS)</title>
<path fill="none" stroke="black" stroke-width="3.99" d="M403.96,-784.18C403.96,-711.1 403.96,-436.86 403.96,-347.51"/>
<polygon fill="black" stroke="black" stroke-width="3.99" points="407.46,-347.33 403.96,-337.33 400.46,-347.33 407.46,-347.33"/>
<text text-anchor="middle" x="353.96" y="-569.65" font-family="Times,serif" font-size="14.00">stone*126272</text>
</g>
<!-- 3,11 (Sap, Sodium Hydroxide) -->
<g id="node7" class="node">
<title>3,11 (Sap, Sodium Hydroxide)</title>
<ellipse fill="none" stroke="black" cx="781.63" cy="-1103.42" rx="150.57" ry="18"/>
<text text-anchor="middle" x="781.63" y="-1099.72" font-family="Times,serif" font-size="14.00">3,11 (Sap, Sodium Hydroxide)</text>
</g>
<!-- &#45;6,7 (Iron ore dust)&#45;&gt;3,11 (Sap, Sodium Hydroxide) -->
<g id="edge8" class="edge">
<title>&#45;6,7 (Iron ore dust)&#45;&gt;3,11 (Sap, Sodium Hydroxide)</title>
<path fill="none" stroke="black" stroke-width="0.79" d="M426.18,-819.95C490.58,-871.31 677.46,-1020.35 751.2,-1079.15"/>
<polygon fill="black" stroke="black" stroke-width="0.79" points="749.21,-1082.04 759.21,-1085.54 753.57,-1076.56 749.21,-1082.04"/>
<text text-anchor="middle" x="543.19" y="-953.35" font-family="Times,serif" font-size="14.00">stone*25072</text>
</g>
<!-- 2,14 (Latex) -->
<g id="node8" class="node">
<title>2,14 (Latex)</title>
<ellipse fill="none" stroke="black" cx="278.78" cy="-862.52" rx="66.89" ry="18"/>
<text text-anchor="middle" x="278.78" y="-858.82" font-family="Times,serif" font-size="14.00">2,14 (Latex)</text>
</g>
<!-- &#45;6,7 (Iron ore dust)&#45;&gt;2,14 (Latex) -->
<g id="edge6" class="edge">
<title>&#45;6,7 (Iron ore dust)&#45;&gt;2,14 (Latex)</title>
<path fill="none" stroke="black" stroke-width="0.12" d="M368.76,-819.19C353.91,-826.34 336.49,-834.73 320.96,-842.21"/>
<polygon fill="black" stroke="black" stroke-width="0.12" points="319.06,-839.24 311.57,-846.73 322.1,-845.54 319.06,-839.24"/>
<text text-anchor="middle" x="385.86" y="-834.5" font-family="Times,serif" font-size="14.00">stone*3744</text>
</g>
<!-- &#45;3,&#45;3 (Zinc Plates, 32 to consume four belts) -->
<g id="node6" class="node">
<title>&#45;3,&#45;3 (Zinc Plates, 32 to consume four belts)</title>
<ellipse fill="none" stroke="black" cx="1252.58" cy="-995.93" rx="213.66" ry="18"/>
<text text-anchor="middle" x="1252.58" y="-992.23" font-family="Times,serif" font-size="14.00">&#45;3,&#45;3 (Zinc Plates, 32 to consume four belts)</text>
</g>
<!-- &#45;3,&#45;3 (Zinc Plates, 32 to consume four belts)&#45;&gt;1,8 (A copper mine, Salt) -->
<g id="edge10" class="edge">
<title>&#45;3,&#45;3 (Zinc Plates, 32 to consume four belts)&#45;&gt;1,8 (A copper mine, Salt)</title>
<path fill="none" stroke="black" stroke-width="0.32" d="M1261.32,-977.78C1294.07,-909.76 1409.7,-669.66 1448.99,-588.07"/>
<polygon fill="black" stroke="black" stroke-width="0.32" points="1452.21,-589.46 1453.39,-578.93 1445.9,-586.42 1452.21,-589.46"/>
<text text-anchor="middle" x="1309.65" y="-786.73" font-family="Times,serif" font-size="14.00">stone*10112</text>
</g>
<!-- &#45;3,&#45;3 (Zinc Plates, 32 to consume four belts)&#45;&gt;3,11 (Sap, Sodium Hydroxide) -->
<g id="edge5" class="edge">
<title>&#45;3,&#45;3 (Zinc Plates, 32 to consume four belts)&#45;&gt;3,11 (Sap, Sodium Hydroxide)</title>
<path fill="none" stroke="black" stroke-width="0.32" d="M1178.47,-1012.84C1092.3,-1032.51 950.57,-1064.86 861.86,-1085.11"/>
<polygon fill="black" stroke="black" stroke-width="0.32" points="860.82,-1081.75 851.85,-1087.39 862.37,-1088.58 860.82,-1081.75"/>
<text text-anchor="middle" x="974.67" y="-1052.77" font-family="Times,serif" font-size="14.00">stone*10080</text>
</g>
<!-- &#45;3,3 (Lead dust (silver plate)) -->
<g id="node9" class="node">
<title>&#45;3,3 (Lead dust (silver plate))</title>
<ellipse fill="none" stroke="black" cx="1252.58" cy="-125.49" rx="145.67" ry="18"/>
<text text-anchor="middle" x="1252.58" y="-121.79" font-family="Times,serif" font-size="14.00">&#45;3,3 (Lead dust (silver plate))</text>
</g>
<!-- &#45;3,3 (Lead dust (silver plate))&#45;&gt;1,8 (A copper mine, Salt) -->
<g id="edge7" class="edge">
<title>&#45;3,3 (Lead dust (silver plate))&#45;&gt;1,8 (A copper mine, Salt)</title>
<path fill="none" stroke="black" stroke-width="0.79" d="M1261.32,-143.64C1294.07,-211.66 1409.7,-451.76 1448.99,-533.34"/>
<polygon fill="black" stroke="black" stroke-width="0.79" points="1445.9,-534.99 1453.39,-542.48 1452.21,-531.96 1445.9,-534.99"/>
<text text-anchor="middle" x="1309.65" y="-342.29" font-family="Times,serif" font-size="14.00">stone*25024</text>
</g>
<!-- &#45;3,3 (Lead dust (silver plate))&#45;&gt;3,11 (Sap, Sodium Hydroxide) -->
<g id="edge13" class="edge">
<title>&#45;3,3 (Lead dust (silver plate))&#45;&gt;3,11 (Sap, Sodium Hydroxide)</title>
<path fill="none" stroke="black" stroke-width="0.79" d="M1243.8,-143.72C1186.31,-263.09 863.92,-932.54 794.72,-1076.25"/>
<polygon fill="black" stroke="black" stroke-width="0.79" points="791.54,-1074.78 790.35,-1085.31 797.85,-1077.82 791.54,-1074.78"/>
<text text-anchor="middle" x="973.76" y="-613.79" font-family="Times,serif" font-size="14.00">stone*25120</text>
</g>
<!-- 0,5 (Titanium Processing (Grade 4)) -->
<g id="node10" class="node">
<title>0,5 (Titanium Processing (Grade 4))</title>
<ellipse fill="none" stroke="black" cx="256.92" cy="-83.12" rx="176.57" ry="18"/>
<text text-anchor="middle" x="256.92" y="-79.42" font-family="Times,serif" font-size="14.00">0,5 (Titanium Processing (Grade 4))</text>
</g>
<!-- 0,5 (Titanium Processing (Grade 4))&#45;&gt;0,0 (LE BUS) -->
<g id="edge9" class="edge">
<title>0,5 (Titanium Processing (Grade 4))&#45;&gt;0,0 (LE BUS)</title>
<path fill="none" stroke="black" stroke-width="0.79" d="M268.21,-101.25C293.99,-142.64 357.25,-244.19 387.43,-292.64"/>
<polygon fill="black" stroke="black" stroke-width="0.79" points="384.57,-294.67 392.83,-301.31 390.52,-290.97 384.57,-294.67"/>
<text text-anchor="middle" x="282.32" y="-200.75" font-family="Times,serif" font-size="14.00">stone*25026</text>
</g>
<!-- &#45;6,&#45;3 (Chromite Sand) -->
<g id="node11" class="node">
<title>&#45;6,&#45;3 (Chromite Sand)</title>
<ellipse fill="none" stroke="black" cx="741.02" cy="-1281.33" rx="110.48" ry="18"/>
<text text-anchor="middle" x="741.02" y="-1277.63" font-family="Times,serif" font-size="14.00">&#45;6,&#45;3 (Chromite Sand)</text>
</g>
<!-- &#45;6,&#45;3 (Chromite Sand)&#45;&gt;3,11 (Sap, Sodium Hydroxide) -->
<g id="edge11" class="edge">
<title>&#45;6,&#45;3 (Chromite Sand)&#45;&gt;3,11 (Sap, Sodium Hydroxide)</title>
<path fill="none" stroke="black" stroke-width="0.16" d="M745.14,-1263.29C752.23,-1232.26 766.77,-1168.54 775.2,-1131.6"/>
<polygon fill="black" stroke="black" stroke-width="0.16" points="778.69,-1132.03 777.5,-1121.5 771.87,-1130.47 778.69,-1132.03"/>
<text text-anchor="middle" x="719.17" y="-1201.25" font-family="Times,serif" font-size="14.00">stone*5024</text>
</g>
<!-- 1,10 (Iron Ore Dust) -->
<g id="node12" class="node">
<title>1,10 (Iron Ore Dust)</title>
<ellipse fill="none" stroke="black" cx="1638.81" cy="-560.71" rx="104.78" ry="18"/>
<text text-anchor="middle" x="1638.81" y="-557.01" font-family="Times,serif" font-size="14.00">1,10 (Iron Ore Dust)</text>
</g>
<!-- 1,10 (Iron Ore Dust)&#45;&gt;1,8 (A copper mine, Salt) -->
<g id="edge12" class="edge">
<title>1,10 (Iron Ore Dust)&#45;&gt;1,8 (A copper mine, Salt)</title>
<path fill="none" stroke="black" stroke-width="0.79" d="M1534.01,-560.71C1533.94,-560.71 1533.87,-560.71 1533.79,-560.71"/>
<polygon fill="black" stroke="black" stroke-width="0.79" points="1543.57,-557.21 1533.57,-560.71 1543.57,-564.21 1543.57,-557.21"/>
<text text-anchor="middle" x="1488.4" y="-564.51" font-family="Times,serif" font-size="14.00">stone*25056</text>
</g>
</g>
</svg>
