<?xml version="1.0" encoding="UTF-8" standalone="no"?>
<!DOCTYPE svg PUBLIC "-//W3C//DTD SVG 1.1//EN"
 "http://www.w3.org/Graphics/SVG/1.1/DTD/svg11.dtd">
<!-- Generated by graphviz version 2.43.0 (0)
 -->
<!-- Title: %3 Pages: 1 -->
<svg width="1594pt" height="44pt"
 viewBox="0.00 0.00 1593.68 44.00" xmlns="http://www.w3.org/2000/svg" xmlns:xlink="http://www.w3.org/1999/xlink">
<g id="graph0" class="graph" transform="scale(1 1) rotate(0) translate(4 40)">
<title>%3</title>
<polygon fill="white" stroke="transparent" points="-4,4 -4,-40 1589.68,-40 1589.68,4 -4,4"/>
<!-- &#45;4,&#45;8 (item=silver&#45;plate Even even more silver?) -->
<g id="node1" class="node">
<title>&#45;4,&#45;8 (item=silver&#45;plate Even even more silver?)</title>
<ellipse fill="none" stroke="black" cx="724.8" cy="-18" rx="233.16" ry="18"/>
<text text-anchor="middle" x="724.8" y="-14.3" font-family="Times,serif" font-size="14.00">&#45;4,&#45;8 (item=silver&#45;plate Even even more silver?)</text>
</g>
<!-- 4,12 (Molten Glass) -->
<g id="node2" class="node">
<title>4,12 (Molten Glass)</title>
<ellipse fill="none" stroke="black" cx="1132.17" cy="-18" rx="102.08" ry="18"/>
<text text-anchor="middle" x="1132.17" y="-14.3" font-family="Times,serif" font-size="14.00">4,12 (Molten Glass)</text>
</g>
<!-- &#45;4,&#45;8 (item=silver&#45;plate Even even more silver?)&#45;&gt;4,12 (Molten Glass) -->
<g id="edge1" class="edge">
<title>&#45;4,&#45;8 (item=silver&#45;plate Even even more silver?)&#45;&gt;4,12 (Molten Glass)</title>
<path fill="none" stroke="black" stroke-width="2.41" d="M958.22,-18C979.57,-18 1000.47,-18 1019.96,-18"/>
<polygon fill="black" stroke="black" stroke-width="2.41" points="1020.02,-21.5 1030.02,-18 1020.02,-14.5 1020.02,-21.5"/>
<text text-anchor="middle" x="989.09" y="-6.8" font-family="Times,serif" font-size="14.00">powdered&#45;quartz*226176</text>
</g>
<!-- 6,4 (Electronic components) -->
<g id="node4" class="node">
<title>6,4 (Electronic components)</title>
<ellipse fill="none" stroke="black" cx="141.69" cy="-18" rx="141.88" ry="18"/>
<text text-anchor="middle" x="141.69" y="-14.3" font-family="Times,serif" font-size="14.00">6,4 (Electronic components)</text>
</g>
<!-- &#45;4,&#45;8 (item=silver&#45;plate Even even more silver?)&#45;&gt;6,4 (Electronic components) -->
<g id="edge3" class="edge">
<title>&#45;4,&#45;8 (item=silver&#45;plate Even even more silver?)&#45;&gt;6,4 (Electronic components)</title>
<path fill="none" stroke="black" stroke-width="0.05" d="M491.4,-18C424.87,-18 354.12,-18 293.8,-18"/>
<polygon fill="black" stroke="black" stroke-width="0.05" points="293.44,-14.5 283.44,-18 293.44,-21.5 293.44,-14.5"/>
<text text-anchor="middle" x="392.6" y="-6.8" font-family="Times,serif" font-size="14.00">powdered&#45;quartz*4320</text>
</g>
<!-- &#45;4,7 (Powdered Quartz/Salt) -->
<g id="node3" class="node">
<title>&#45;4,7 (Powdered Quartz/Salt)</title>
<ellipse fill="none" stroke="black" cx="1445.94" cy="-18" rx="139.98" ry="18"/>
<text text-anchor="middle" x="1445.94" y="-14.3" font-family="Times,serif" font-size="14.00">&#45;4,7 (Powdered Quartz/Salt)</text>
</g>
<!-- &#45;4,7 (Powdered Quartz/Salt)&#45;&gt;4,12 (Molten Glass) -->
<g id="edge2" class="edge">
<title>&#45;4,7 (Powdered Quartz/Salt)&#45;&gt;4,12 (Molten Glass)</title>
<path fill="none" stroke="black" stroke-width="0.55" d="M1306.03,-18C1285.57,-18 1264.73,-18 1244.9,-18"/>
<polygon fill="black" stroke="black" stroke-width="0.55" points="1244.64,-14.5 1234.64,-18 1244.64,-21.5 1244.64,-14.5"/>
<text text-anchor="middle" x="1231.97" y="-6.8" font-family="Times,serif" font-size="14.00">powdered&#45;quartz*51360</text>
</g>
</g>
</svg>
