<?xml version="1.0" encoding="UTF-8" standalone="no"?>
<!DOCTYPE svg PUBLIC "-//W3C//DTD SVG 1.1//EN"
 "http://www.w3.org/Graphics/SVG/1.1/DTD/svg11.dtd">
<!-- Generated by graphviz version 2.43.0 (0)
 -->
<!-- Title: %3 Pages: 1 -->
<svg width="1609pt" height="685pt"
 viewBox="0.00 0.00 1608.88 684.56" xmlns="http://www.w3.org/2000/svg" xmlns:xlink="http://www.w3.org/1999/xlink">
<g id="graph0" class="graph" transform="scale(1 1) rotate(0) translate(4 680.56)">
<title>%3</title>
<polygon fill="white" stroke="transparent" points="-4,4 -4,-680.56 1604.88,-680.56 1604.88,4 -4,4"/>
<!-- 2,13 () -->
<g id="node1" class="node">
<title>2,13 ()</title>
<ellipse fill="none" stroke="black" cx="747.8" cy="-338.28" rx="40.89" ry="18"/>
<text text-anchor="middle" x="747.8" y="-334.58" font-family="Times,serif" font-size="14.00">2,13 ()</text>
</g>
<!-- &#45;6,7 () -->
<g id="node2" class="node">
<title>&#45;6,7 ()</title>
<ellipse fill="none" stroke="black" cx="1390.95" cy="-338.28" rx="38.19" ry="18"/>
<text text-anchor="middle" x="1390.95" y="-334.58" font-family="Times,serif" font-size="14.00">&#45;6,7 ()</text>
</g>
<!-- 2,13 ()&#45;&gt;&#45;6,7 () -->
<g id="edge1" class="edge">
<title>2,13 ()&#45;&gt;&#45;6,7 ()</title>
<path fill="none" stroke="black" stroke-width="2.3" d="M789.01,-338.28C902.69,-338.28 1220.37,-338.28 1342.38,-338.28"/>
<polygon fill="black" stroke="black" stroke-width="2.3" points="1342.54,-341.78 1352.54,-338.28 1342.54,-334.78 1342.54,-341.78"/>
<text text-anchor="middle" x="1006.69" y="-342.08" font-family="Times,serif" font-size="14.00">iron&#45;ore*494736</text>
</g>
<!-- 1,10 (Iron Ore Dust) -->
<g id="node5" class="node">
<title>1,10 (Iron Ore Dust)</title>
<ellipse fill="none" stroke="black" cx="104.64" cy="-338.28" rx="104.78" ry="18"/>
<text text-anchor="middle" x="104.64" y="-334.58" font-family="Times,serif" font-size="14.00">1,10 (Iron Ore Dust)</text>
</g>
<!-- 2,13 ()&#45;&gt;1,10 (Iron Ore Dust) -->
<g id="edge4" class="edge">
<title>2,13 ()&#45;&gt;1,10 (Iron Ore Dust)</title>
<path fill="none" stroke="black" stroke-width="0.38" d="M706.59,-338.28C609.93,-338.28 365.81,-338.28 219.86,-338.28"/>
<polygon fill="black" stroke="black" stroke-width="0.38" points="219.53,-334.78 209.53,-338.28 219.53,-341.78 219.53,-334.78"/>
<text text-anchor="middle" x="408.72" y="-342.08" font-family="Times,serif" font-size="14.00">iron&#45;ore*80880</text>
</g>
<!-- &#45;4,0 (IRON PATCH, item=lens Optical sets) -->
<g id="node3" class="node">
<title>&#45;4,0 (IRON PATCH, item=lens Optical sets)</title>
<ellipse fill="none" stroke="black" cx="1390.95" cy="-18" rx="209.86" ry="18"/>
<text text-anchor="middle" x="1390.95" y="-14.3" font-family="Times,serif" font-size="14.00">&#45;4,0 (IRON PATCH, item=lens Optical sets)</text>
</g>
<!-- &#45;4,0 (IRON PATCH, item=lens Optical sets)&#45;&gt;&#45;6,7 () -->
<g id="edge2" class="edge">
<title>&#45;4,0 (IRON PATCH, item=lens Optical sets)&#45;&gt;&#45;6,7 ()</title>
<path fill="none" stroke="black" stroke-width="1.07" d="M1390.95,-36.14C1390.95,-89.3 1390.95,-245.07 1390.95,-309.68"/>
<polygon fill="black" stroke="black" stroke-width="1.07" points="1387.45,-309.94 1390.95,-319.94 1394.45,-309.94 1387.45,-309.94"/>
<text text-anchor="middle" x="1331.95" y="-176.71" font-family="Times,serif" font-size="14.00">iron&#45;ore*230450</text>
</g>
<!-- &#45;10,&#45;4 () -->
<g id="node4" class="node">
<title>&#45;10,&#45;4 ()</title>
<ellipse fill="none" stroke="black" cx="1390.95" cy="-658.56" rx="46.59" ry="18"/>
<text text-anchor="middle" x="1390.95" y="-654.86" font-family="Times,serif" font-size="14.00">&#45;10,&#45;4 ()</text>
</g>
<!-- &#45;10,&#45;4 ()&#45;&gt;&#45;6,7 () -->
<g id="edge3" class="edge">
<title>&#45;10,&#45;4 ()&#45;&gt;&#45;6,7 ()</title>
<path fill="none" stroke="black" stroke-width="0.25" d="M1390.95,-640.42C1390.95,-587.25 1390.95,-431.49 1390.95,-366.87"/>
<polygon fill="black" stroke="black" stroke-width="0.25" points="1394.45,-366.61 1390.95,-356.61 1387.45,-366.61 1394.45,-366.61"/>
<text text-anchor="middle" x="1336.45" y="-507.45" font-family="Times,serif" font-size="14.00">iron&#45;ore*52656</text>
</g>
</g>
</svg>
