<?xml version="1.0" encoding="UTF-8" standalone="no"?>
<!DOCTYPE svg PUBLIC "-//W3C//DTD SVG 1.1//EN"
 "http://www.w3.org/Graphics/SVG/1.1/DTD/svg11.dtd">
<!-- Generated by graphviz version 2.43.0 (0)
 -->
<!-- Title: %3 Pages: 1 -->
<svg width="1151pt" height="991pt"
 viewBox="0.00 0.00 1151.24 991.17" xmlns="http://www.w3.org/2000/svg" xmlns:xlink="http://www.w3.org/1999/xlink">
<g id="graph0" class="graph" transform="scale(1 1) rotate(0) translate(4 987.17)">
<title>%3</title>
<polygon fill="white" stroke="transparent" points="-4,4 -4,-987.17 1147.24,-987.17 1147.24,4 -4,4"/>
<!-- &#45;4,2 (This line not currently using manure, Ralesia seeds) -->
<g id="node1" class="node">
<title>&#45;4,2 (This line not currently using manure, Ralesia seeds)</title>
<ellipse fill="none" stroke="black" cx="708.17" cy="-18" rx="276.75" ry="18"/>
<text text-anchor="middle" x="708.17" y="-14.3" font-family="Times,serif" font-size="14.00">&#45;4,2 (This line not currently using manure, Ralesia seeds)</text>
</g>
<!-- &#45;4,8 (Moar Ulric Food) -->
<g id="node2" class="node">
<title>&#45;4,8 (Moar Ulric Food)</title>
<ellipse fill="none" stroke="black" cx="151.44" cy="-198.89" rx="113.98" ry="18"/>
<text text-anchor="middle" x="151.44" y="-195.19" font-family="Times,serif" font-size="14.00">&#45;4,8 (Moar Ulric Food)</text>
</g>
<!-- &#45;4,2 (This line not currently using manure, Ralesia seeds)&#45;&gt;&#45;4,8 (Moar Ulric Food) -->
<g id="edge1" class="edge">
<title>&#45;4,2 (This line not currently using manure, Ralesia seeds)&#45;&gt;&#45;4,8 (Moar Ulric Food)</title>
<path fill="none" stroke="black" stroke-width="1.85" d="M653.77,-35.67C549,-69.72 319.94,-144.14 211.13,-179.5"/>
<polygon fill="black" stroke="black" stroke-width="1.85" points="210.04,-176.17 201.61,-182.59 212.2,-182.83 210.04,-176.17"/>
<text text-anchor="middle" x="378.45" y="-111.39" font-family="Times,serif" font-size="14.00">ralesias*48816</text>
</g>
<!-- 9,4 (Ulric fooder) -->
<g id="node3" class="node">
<title>9,4 (Ulric fooder)</title>
<ellipse fill="none" stroke="black" cx="1052.25" cy="-491.58" rx="90.98" ry="18"/>
<text text-anchor="middle" x="1052.25" y="-487.88" font-family="Times,serif" font-size="14.00">9,4 (Ulric fooder)</text>
</g>
<!-- &#45;4,2 (This line not currently using manure, Ralesia seeds)&#45;&gt;9,4 (Ulric fooder) -->
<g id="edge2" class="edge">
<title>&#45;4,2 (This line not currently using manure, Ralesia seeds)&#45;&gt;9,4 (Ulric fooder)</title>
<path fill="none" stroke="black" stroke-width="1.61" d="M721.24,-35.99C773.93,-108.51 970.94,-379.67 1033.24,-465.42"/>
<polygon fill="black" stroke="black" stroke-width="1.61" points="1030.46,-467.55 1039.17,-473.58 1036.12,-463.43 1030.46,-467.55"/>
<text text-anchor="middle" x="823.24" y="-254.5" font-family="Times,serif" font-size="14.00">ralesias*42576</text>
</g>
<!-- 5,8 (Ulric Food, Sandcastings) -->
<g id="node4" class="node">
<title>5,8 (Ulric Food, Sandcastings)</title>
<ellipse fill="none" stroke="black" cx="151.44" cy="-784.28" rx="151.37" ry="18"/>
<text text-anchor="middle" x="151.44" y="-780.58" font-family="Times,serif" font-size="14.00">5,8 (Ulric Food, Sandcastings)</text>
</g>
<!-- &#45;4,2 (This line not currently using manure, Ralesia seeds)&#45;&gt;5,8 (Ulric Food, Sandcastings) -->
<g id="edge3" class="edge">
<title>&#45;4,2 (This line not currently using manure, Ralesia seeds)&#45;&gt;5,8 (Ulric Food, Sandcastings)</title>
<path fill="none" stroke="black" stroke-width="1.37" d="M694.96,-36.19C620.98,-138.01 258.35,-637.12 170.59,-757.91"/>
<polygon fill="black" stroke="black" stroke-width="1.37" points="167.57,-756.11 164.53,-766.26 173.24,-760.23 167.57,-756.11"/>
<text text-anchor="middle" x="378.77" y="-400.85" font-family="Times,serif" font-size="14.00">ralesias*36288</text>
</g>
<!-- 11,6 (Ralesia 2) -->
<g id="node5" class="node">
<title>11,6 (Ralesia 2)</title>
<ellipse fill="none" stroke="black" cx="708.17" cy="-965.17" rx="83.39" ry="18"/>
<text text-anchor="middle" x="708.17" y="-961.47" font-family="Times,serif" font-size="14.00">11,6 (Ralesia 2)</text>
</g>
<!-- 11,6 (Ralesia 2)&#45;&gt;&#45;4,8 (Moar Ulric Food) -->
<g id="edge5" class="edge">
<title>11,6 (Ralesia 2)&#45;&gt;&#45;4,8 (Moar Ulric Food)</title>
<path fill="none" stroke="black" stroke-width="0.23" d="M695.23,-947.36C621.88,-846.4 258.57,-346.35 170.63,-225.31"/>
<polygon fill="black" stroke="black" stroke-width="0.23" points="173.26,-222.98 164.55,-216.95 167.6,-227.09 173.26,-222.98"/>
<text text-anchor="middle" x="383.43" y="-590.13" font-family="Times,serif" font-size="14.00">ralesias*6192</text>
</g>
<!-- 11,6 (Ralesia 2)&#45;&gt;9,4 (Ulric fooder) -->
<g id="edge6" class="edge">
<title>11,6 (Ralesia 2)&#45;&gt;9,4 (Ulric fooder)</title>
<path fill="none" stroke="black" stroke-width="0.23" d="M721.24,-947.18C773.93,-874.66 970.94,-603.5 1033.24,-517.75"/>
<polygon fill="black" stroke="black" stroke-width="0.23" points="1036.12,-519.74 1039.17,-509.59 1030.46,-515.62 1036.12,-519.74"/>
<text text-anchor="middle" x="827.74" y="-736.27" font-family="Times,serif" font-size="14.00">ralesias*6096</text>
</g>
<!-- 11,6 (Ralesia 2)&#45;&gt;5,8 (Ulric Food, Sandcastings) -->
<g id="edge4" class="edge">
<title>11,6 (Ralesia 2)&#45;&gt;5,8 (Ulric Food, Sandcastings)</title>
<path fill="none" stroke="black" stroke-width="0.7" d="M661.66,-950.06C561.61,-917.55 325.91,-840.97 213.36,-804.4"/>
<polygon fill="black" stroke="black" stroke-width="0.7" points="214.43,-801.07 203.84,-801.3 212.27,-807.72 214.43,-801.07"/>
<text text-anchor="middle" x="383.51" y="-881.03" font-family="Times,serif" font-size="14.00">ralesias*18384</text>
</g>
</g>
</svg>
