<?xml version="1.0" encoding="UTF-8" standalone="no"?>
<!DOCTYPE svg PUBLIC "-//W3C//DTD SVG 1.1//EN"
 "http://www.w3.org/Graphics/SVG/1.1/DTD/svg11.dtd">
<!-- Generated by graphviz version 2.43.0 (0)
 -->
<!-- Title: %3 Pages: 1 -->
<svg width="622pt" height="44pt"
 viewBox="0.00 0.00 621.91 44.00" xmlns="http://www.w3.org/2000/svg" xmlns:xlink="http://www.w3.org/1999/xlink">
<g id="graph0" class="graph" transform="scale(1 1) rotate(0) translate(4 40)">
<title>%3</title>
<polygon fill="white" stroke="transparent" points="-4,4 -4,-40 617.91,-40 617.91,4 -4,4"/>
<!-- 2,10 (Nickel plate) -->
<g id="node1" class="node">
<title>2,10 (Nickel plate)</title>
<ellipse fill="none" stroke="black" cx="302.08" cy="-18" rx="96.68" ry="18"/>
<text text-anchor="middle" x="302.08" y="-14.3" font-family="Times,serif" font-size="14.00">2,10 (Nickel plate)</text>
</g>
<!-- 0,0 (LE BUS) -->
<g id="node2" class="node">
<title>0,0 (LE BUS)</title>
<ellipse fill="none" stroke="black" cx="542.41" cy="-18" rx="71.49" ry="18"/>
<text text-anchor="middle" x="542.41" y="-14.3" font-family="Times,serif" font-size="14.00">0,0 (LE BUS)</text>
</g>
<!-- 2,10 (Nickel plate)&#45;&gt;0,0 (LE BUS) -->
<g id="edge1" class="edge">
<title>2,10 (Nickel plate)&#45;&gt;0,0 (LE BUS)</title>
<path fill="none" stroke="black" stroke-width="1.78" d="M399.14,-18C419.55,-18 440.89,-18 460.67,-18"/>
<polygon fill="black" stroke="black" stroke-width="1.78" points="460.87,-21.5 470.87,-18 460.87,-14.5 460.87,-21.5"/>
<text text-anchor="middle" x="429.91" y="-6.8" font-family="Times,serif" font-size="14.00">nickel&#45;plate*69488</text>
</g>
<!-- 4,&#45;1 (Fluid) -->
<g id="node3" class="node">
<title>4,&#45;1 (Fluid)</title>
<ellipse fill="none" stroke="black" cx="61.74" cy="-18" rx="61.99" ry="18"/>
<text text-anchor="middle" x="61.74" y="-14.3" font-family="Times,serif" font-size="14.00">4,&#45;1 (Fluid)</text>
</g>
<!-- 2,10 (Nickel plate)&#45;&gt;4,&#45;1 (Fluid) -->
<g id="edge2" class="edge">
<title>2,10 (Nickel plate)&#45;&gt;4,&#45;1 (Fluid)</title>
<path fill="none" stroke="black" stroke-width="0.22" d="M205.02,-18C181.18,-18 156.08,-18 133.67,-18"/>
<polygon fill="black" stroke="black" stroke-width="0.22" points="133.57,-14.5 123.57,-18 133.57,-21.5 133.57,-14.5"/>
<text text-anchor="middle" x="137.84" y="-6.8" font-family="Times,serif" font-size="14.00">nickel&#45;plate*8672</text>
</g>
</g>
</svg>
