<?xml version="1.0" encoding="UTF-8" standalone="no"?>
<!DOCTYPE svg PUBLIC "-//W3C//DTD SVG 1.1//EN"
 "http://www.w3.org/Graphics/SVG/1.1/DTD/svg11.dtd">
<!-- Generated by graphviz version 2.43.0 (0)
 -->
<!-- Title: %3 Pages: 1 -->
<svg width="933pt" height="876pt"
 viewBox="0.00 0.00 932.87 876.06" xmlns="http://www.w3.org/2000/svg" xmlns:xlink="http://www.w3.org/1999/xlink">
<g id="graph0" class="graph" transform="scale(1 1) rotate(0) translate(4 872.06)">
<title>%3</title>
<polygon fill="white" stroke="transparent" points="-4,4 -4,-872.06 928.87,-872.06 928.87,4 -4,4"/>
<!-- &#45;4,&#45;4 (Reserved For Aluminium Ore Drop, Aluminium) -->
<g id="node1" class="node">
<title>&#45;4,&#45;4 (Reserved For Aluminium Ore Drop, Aluminium)</title>
<ellipse fill="none" stroke="black" cx="381.66" cy="-443.95" rx="258.05" ry="18"/>
<text text-anchor="middle" x="381.66" y="-440.25" font-family="Times,serif" font-size="14.00">&#45;4,&#45;4 (Reserved For Aluminium Ore Drop, Aluminium)</text>
</g>
<!-- 0,0 (LE BUS) -->
<g id="node2" class="node">
<title>0,0 (LE BUS)</title>
<ellipse fill="none" stroke="black" cx="853.37" cy="-443.95" rx="71.49" ry="18"/>
<text text-anchor="middle" x="853.37" y="-440.25" font-family="Times,serif" font-size="14.00">0,0 (LE BUS)</text>
</g>
<!-- &#45;4,&#45;4 (Reserved For Aluminium Ore Drop, Aluminium)&#45;&gt;0,0 (LE BUS) -->
<g id="edge1" class="edge">
<title>&#45;4,&#45;4 (Reserved For Aluminium Ore Drop, Aluminium)&#45;&gt;0,0 (LE BUS)</title>
<path fill="none" stroke="black" stroke-width="2.54" d="M639.94,-443.95C687.66,-443.95 734.15,-443.95 771.49,-443.95"/>
<polygon fill="black" stroke="black" stroke-width="2.54" points="771.77,-447.45 781.77,-443.95 771.77,-440.45 771.77,-447.45"/>
<text text-anchor="middle" x="705.72" y="-432.75" font-family="Times,serif" font-size="14.00">aluminium&#45;plate*29488</text>
</g>
<!-- 6,4 (Electronic components) -->
<g id="node3" class="node">
<title>6,4 (Electronic components)</title>
<ellipse fill="none" stroke="black" cx="141.69" cy="-850.06" rx="141.88" ry="18"/>
<text text-anchor="middle" x="141.69" y="-846.36" font-family="Times,serif" font-size="14.00">6,4 (Electronic components)</text>
</g>
<!-- &#45;4,&#45;4 (Reserved For Aluminium Ore Drop, Aluminium)&#45;&gt;6,4 (Electronic components) -->
<g id="edge2" class="edge">
<title>&#45;4,&#45;4 (Reserved For Aluminium Ore Drop, Aluminium)&#45;&gt;6,4 (Electronic components)</title>
<path fill="none" stroke="black" stroke-width="0.18" d="M370.88,-462.19C332.59,-527 202.93,-746.41 157.54,-823.23"/>
<polygon fill="black" stroke="black" stroke-width="0.18" points="154.51,-821.48 152.44,-831.87 160.54,-825.04 154.51,-821.48"/>
<text text-anchor="middle" x="184.21" y="-646.51" font-family="Times,serif" font-size="14.00">aluminium&#45;plate*2064</text>
</g>
<!-- &#45;1,&#45;2 (Aramid fiber) -->
<g id="node4" class="node">
<title>&#45;1,&#45;2 (Aramid fiber)</title>
<ellipse fill="none" stroke="black" cx="178.97" cy="-18" rx="99.38" ry="18"/>
<text text-anchor="middle" x="178.97" y="-14.3" font-family="Times,serif" font-size="14.00">&#45;1,&#45;2 (Aramid fiber)</text>
</g>
<!-- &#45;4,&#45;4 (Reserved For Aluminium Ore Drop, Aluminium)&#45;&gt;&#45;1,&#45;2 (Aramid fiber) -->
<g id="edge3" class="edge">
<title>&#45;4,&#45;4 (Reserved For Aluminium Ore Drop, Aluminium)&#45;&gt;&#45;1,&#45;2 (Aramid fiber)</title>
<path fill="none" stroke="black" stroke-width="0.29" d="M373.08,-425.92C341.36,-359.26 230.57,-126.43 192.18,-45.76"/>
<polygon fill="black" stroke="black" stroke-width="0.29" points="195.12,-43.8 187.67,-36.27 188.8,-46.81 195.12,-43.8"/>
<text text-anchor="middle" x="202.63" y="-239.64" font-family="Times,serif" font-size="14.00">aluminium&#45;plate*3344</text>
</g>
</g>
</svg>
