<?xml version="1.0" encoding="UTF-8" standalone="no"?>
<!DOCTYPE svg PUBLIC "-//W3C//DTD SVG 1.1//EN"
 "http://www.w3.org/Graphics/SVG/1.1/DTD/svg11.dtd">
<!-- Generated by graphviz version 2.43.0 (0)
 -->
<!-- Title: %3 Pages: 1 -->
<svg width="1222pt" height="44pt"
 viewBox="0.00 0.00 1221.81 44.00" xmlns="http://www.w3.org/2000/svg" xmlns:xlink="http://www.w3.org/1999/xlink">
<g id="graph0" class="graph" transform="scale(1 1) rotate(0) translate(4 40)">
<title>%3</title>
<polygon fill="white" stroke="transparent" points="-4,4 -4,-40 1217.81,-40 1217.81,4 -4,4"/>
<!-- &#45;5,&#45;1 (Coal and Coke and Syngas and Ash and Coke Oven Gas and...) -->
<g id="node1" class="node">
<title>&#45;5,&#45;1 (Coal and Coke and Syngas and Ash and Coke Oven Gas and...)</title>
<ellipse fill="none" stroke="black" cx="629" cy="-18" rx="325.74" ry="18"/>
<text text-anchor="middle" x="629" y="-14.3" font-family="Times,serif" font-size="14.00">&#45;5,&#45;1 (Coal and Coke and Syngas and Ash and Coke Oven Gas and...)</text>
</g>
<!-- 0,0 (LE BUS) -->
<g id="node2" class="node">
<title>0,0 (LE BUS)</title>
<ellipse fill="none" stroke="black" cx="1142.31" cy="-18" rx="71.49" ry="18"/>
<text text-anchor="middle" x="1142.31" y="-14.3" font-family="Times,serif" font-size="14.00">0,0 (LE BUS)</text>
</g>
<!-- &#45;5,&#45;1 (Coal and Coke and Syngas and Ash and Coke Oven Gas and...)&#45;&gt;0,0 (LE BUS) -->
<g id="edge1" class="edge">
<title>&#45;5,&#45;1 (Coal and Coke and Syngas and Ash and Coke Oven Gas and...)&#45;&gt;0,0 (LE BUS)</title>
<path fill="none" stroke="black" stroke-width="0.97" d="M954.82,-18C993.66,-18 1030.23,-18 1060.57,-18"/>
<polygon fill="black" stroke="black" stroke-width="0.97" points="1060.61,-21.5 1070.61,-18 1060.61,-14.5 1060.61,-21.5"/>
<text text-anchor="middle" x="1025.69" y="-6.8" font-family="Times,serif" font-size="14.00">coal*4064</text>
</g>
<!-- 1,7 (Activated Carbon) -->
<g id="node3" class="node">
<title>1,7 (Activated Carbon)</title>
<ellipse fill="none" stroke="black" cx="115.69" cy="-18" rx="115.88" ry="18"/>
<text text-anchor="middle" x="115.69" y="-14.3" font-family="Times,serif" font-size="14.00">1,7 (Activated Carbon)</text>
</g>
<!-- &#45;5,&#45;1 (Coal and Coke and Syngas and Ash and Coke Oven Gas and...)&#45;&gt;1,7 (Activated Carbon) -->
<g id="edge2" class="edge">
<title>&#45;5,&#45;1 (Coal and Coke and Syngas and Ash and Coke Oven Gas and...)&#45;&gt;1,7 (Activated Carbon)</title>
<path fill="none" stroke="black" stroke-width="1.03" d="M303.19,-18C281.73,-18 260.98,-18 241.59,-18"/>
<polygon fill="black" stroke="black" stroke-width="1.03" points="241.57,-14.5 231.57,-18 241.57,-21.5 241.57,-14.5"/>
<text text-anchor="middle" x="272.39" y="-6.8" font-family="Times,serif" font-size="14.00">coal*4320</text>
</g>
</g>
</svg>
