<?xml version="1.0" encoding="UTF-8" standalone="no"?>
<!DOCTYPE svg PUBLIC "-//W3C//DTD SVG 1.1//EN"
 "http://www.w3.org/Graphics/SVG/1.1/DTD/svg11.dtd">
<!-- Generated by graphviz version 2.43.0 (0)
 -->
<!-- Title: %3 Pages: 1 -->
<svg width="710pt" height="44pt"
 viewBox="0.00 0.00 709.65 44.00" xmlns="http://www.w3.org/2000/svg" xmlns:xlink="http://www.w3.org/1999/xlink">
<g id="graph0" class="graph" transform="scale(1 1) rotate(0) translate(4 40)">
<title>%3</title>
<polygon fill="white" stroke="transparent" points="-4,4 -4,-40 705.65,-40 705.65,4 -4,4"/>
<!-- 3,&#45;2 () -->
<g id="node1" class="node">
<title>3,&#45;2 ()</title>
<ellipse fill="none" stroke="black" cx="358.62" cy="-18" rx="38.19" ry="18"/>
<text text-anchor="middle" x="358.62" y="-14.3" font-family="Times,serif" font-size="14.00">3,&#45;2 ()</text>
</g>
<!-- 4,11 (Cobalt Extract) -->
<g id="node2" class="node">
<title>4,11 (Cobalt Extract)</title>
<ellipse fill="none" stroke="black" cx="593.11" cy="-18" rx="108.58" ry="18"/>
<text text-anchor="middle" x="593.11" y="-14.3" font-family="Times,serif" font-size="14.00">4,11 (Cobalt Extract)</text>
</g>
<!-- 3,&#45;2 ()&#45;&gt;4,11 (Cobalt Extract) -->
<g id="edge1" class="edge">
<title>3,&#45;2 ()&#45;&gt;4,11 (Cobalt Extract)</title>
<path fill="none" stroke="black" stroke-width="0.87" d="M397.08,-18C418.43,-18 446.27,-18 474.23,-18"/>
<polygon fill="black" stroke="black" stroke-width="0.87" points="474.53,-21.5 484.53,-18 474.53,-14.5 474.53,-21.5"/>
<text text-anchor="middle" x="435.66" y="-6.8" font-family="Times,serif" font-size="14.00">rare&#45;earth&#45;ore*20512</text>
</g>
<!-- &#45;2,5 (Rare Earth Oxides) -->
<g id="node3" class="node">
<title>&#45;2,5 (Rare Earth Oxides)</title>
<ellipse fill="none" stroke="black" cx="124.14" cy="-18" rx="124.28" ry="18"/>
<text text-anchor="middle" x="124.14" y="-14.3" font-family="Times,serif" font-size="14.00">&#45;2,5 (Rare Earth Oxides)</text>
</g>
<!-- 3,&#45;2 ()&#45;&gt;&#45;2,5 (Rare Earth Oxides) -->
<g id="edge2" class="edge">
<title>3,&#45;2 ()&#45;&gt;&#45;2,5 (Rare Earth Oxides)</title>
<path fill="none" stroke="black" stroke-width="1.13" d="M320.17,-18C302.74,-18 280.98,-18 258.37,-18"/>
<polygon fill="black" stroke="black" stroke-width="1.13" points="258.28,-14.5 248.28,-18 258.28,-21.5 258.28,-14.5"/>
<text text-anchor="middle" x="365.77" y="-21.8" font-family="Times,serif" font-size="14.00">rare&#45;earth&#45;ore*26640</text>
</g>
</g>
</svg>
