<?xml version="1.0" encoding="UTF-8" standalone="no"?>
<!DOCTYPE svg PUBLIC "-//W3C//DTD SVG 1.1//EN"
 "http://www.w3.org/Graphics/SVG/1.1/DTD/svg11.dtd">
<!-- Generated by graphviz version 2.43.0 (0)
 -->
<!-- Title: %3 Pages: 1 -->
<svg width="1077pt" height="849pt"
 viewBox="0.00 0.00 1076.62 848.59" xmlns="http://www.w3.org/2000/svg" xmlns:xlink="http://www.w3.org/1999/xlink">
<g id="graph0" class="graph" transform="scale(1 1) rotate(0) translate(4 844.59)">
<title>%3</title>
<polygon fill="white" stroke="transparent" points="-4,4 -4,-844.59 1072.62,-844.59 1072.62,4 -4,4"/>
<!-- 4,12 (Molten Glass) -->
<g id="node1" class="node">
<title>4,12 (Molten Glass)</title>
<ellipse fill="none" stroke="black" cx="510.47" cy="-409.27" rx="102.08" ry="18"/>
<text text-anchor="middle" x="510.47" y="-405.57" font-family="Times,serif" font-size="14.00">4,12 (Molten Glass)</text>
</g>
<!-- &#45;4,0 (item=lens Optical sets) -->
<g id="node2" class="node">
<title>&#45;4,0 (item=lens Optical sets)</title>
<ellipse fill="none" stroke="black" cx="924.99" cy="-409.27" rx="143.77" ry="18"/>
<text text-anchor="middle" x="924.99" y="-405.57" font-family="Times,serif" font-size="14.00">&#45;4,0 (item=lens Optical sets)</text>
</g>
<!-- 4,12 (Molten Glass)&#45;&gt;&#45;4,0 (item=lens Optical sets) -->
<g id="edge1" class="edge">
<title>4,12 (Molten Glass)&#45;&gt;&#45;4,0 (item=lens Optical sets)</title>
<path fill="none" stroke="black" stroke-width="2.26" d="M612.67,-409.27C660.41,-409.27 718.27,-409.27 771.15,-409.27"/>
<polygon fill="black" stroke="black" stroke-width="2.26" points="771.31,-412.77 781.31,-409.27 771.31,-405.77 771.31,-412.77"/>
<text text-anchor="middle" x="691.91" y="-398.07" font-family="Times,serif" font-size="14.00">molten&#45;glass&#45;barrel*65631</text>
</g>
<!-- &#45;2,0 (Glassware) -->
<g id="node3" class="node">
<title>&#45;2,0 (Glassware)</title>
<ellipse fill="none" stroke="black" cx="780.08" cy="-724.12" rx="86.38" ry="18"/>
<text text-anchor="middle" x="780.08" y="-720.42" font-family="Times,serif" font-size="14.00">&#45;2,0 (Glassware)</text>
</g>
<!-- 4,12 (Molten Glass)&#45;&gt;&#45;2,0 (Glassware) -->
<g id="edge2" class="edge">
<title>4,12 (Molten Glass)&#45;&gt;&#45;2,0 (Glassware)</title>
<path fill="none" stroke="black" stroke-width="2.16" d="M525.73,-427.1C571.04,-480.01 704.88,-636.3 757.99,-698.33"/>
<polygon fill="black" stroke="black" stroke-width="2.16" points="755.48,-700.78 764.64,-706.1 760.8,-696.23 755.48,-700.78"/>
<text text-anchor="middle" x="546.36" y="-566.51" font-family="Times,serif" font-size="14.00">molten&#45;glass&#45;barrel*62898</text>
</g>
<!-- 8,8 (Glass and lamps) -->
<g id="node4" class="node">
<title>8,8 (Glass and lamps)</title>
<ellipse fill="none" stroke="black" cx="478.94" cy="-822.59" rx="111.28" ry="18"/>
<text text-anchor="middle" x="478.94" y="-818.89" font-family="Times,serif" font-size="14.00">8,8 (Glass and lamps)</text>
</g>
<!-- 4,12 (Molten Glass)&#45;&gt;8,8 (Glass and lamps) -->
<g id="edge3" class="edge">
<title>4,12 (Molten Glass)&#45;&gt;8,8 (Glass and lamps)</title>
<path fill="none" stroke="black" stroke-width="1.36" d="M509.09,-427.29C504.13,-492.29 487.15,-714.96 481.11,-794.26"/>
<polygon fill="black" stroke="black" stroke-width="1.36" points="477.6,-794.23 480.33,-804.47 484.58,-794.76 477.6,-794.23"/>
<text text-anchor="middle" x="399.6" y="-614.58" font-family="Times,serif" font-size="14.00">molten&#45;glass&#45;barrel*39614</text>
</g>
<!-- 0,0 (LE BUS) -->
<g id="node5" class="node">
<title>0,0 (LE BUS)</title>
<ellipse fill="none" stroke="black" cx="206.18" cy="-690.75" rx="71.49" ry="18"/>
<text text-anchor="middle" x="206.18" y="-687.05" font-family="Times,serif" font-size="14.00">0,0 (LE BUS)</text>
</g>
<!-- 4,12 (Molten Glass)&#45;&gt;0,0 (LE BUS) -->
<g id="edge4" class="edge">
<title>4,12 (Molten Glass)&#45;&gt;0,0 (LE BUS)</title>
<path fill="none" stroke="black" stroke-width="0.49" d="M490.97,-427.3C438.24,-476.08 292.78,-610.64 232.68,-666.23"/>
<polygon fill="black" stroke="black" stroke-width="0.49" points="230.08,-663.87 225.12,-673.23 234.84,-669 230.08,-663.87"/>
<text text-anchor="middle" x="266.33" y="-550.57" font-family="Times,serif" font-size="14.00">molten&#45;glass&#45;barrel*14137</text>
</g>
<!-- &#45;5,2 (Optical fiber) -->
<g id="node6" class="node">
<title>&#45;5,2 (Optical fiber)</title>
<ellipse fill="none" stroke="black" cx="96.19" cy="-423.5" rx="96.38" ry="18"/>
<text text-anchor="middle" x="96.19" y="-419.8" font-family="Times,serif" font-size="14.00">&#45;5,2 (Optical fiber)</text>
</g>
<!-- 4,12 (Molten Glass)&#45;&gt;&#45;5,2 (Optical fiber) -->
<g id="edge5" class="edge">
<title>4,12 (Molten Glass)&#45;&gt;&#45;5,2 (Optical fiber)</title>
<path fill="none" stroke="black" stroke-width="0.57" d="M410.18,-412.71C346.88,-414.89 265.24,-417.69 201.07,-419.9"/>
<polygon fill="black" stroke="black" stroke-width="0.57" points="200.8,-416.41 190.93,-420.25 201.04,-423.4 200.8,-416.41"/>
<text text-anchor="middle" x="305.63" y="-405.11" font-family="Times,serif" font-size="14.00">molten&#45;glass&#45;barrel*16669</text>
</g>
<!-- 2,5 (Simple Circuits) -->
<g id="node7" class="node">
<title>2,5 (Simple Circuits)</title>
<ellipse fill="none" stroke="black" cx="210.71" cy="-122.96" rx="106.68" ry="18"/>
<text text-anchor="middle" x="210.71" y="-119.26" font-family="Times,serif" font-size="14.00">2,5 (Simple Circuits)</text>
</g>
<!-- 4,12 (Molten Glass)&#45;&gt;2,5 (Simple Circuits) -->
<g id="edge6" class="edge">
<title>4,12 (Molten Glass)&#45;&gt;2,5 (Simple Circuits)</title>
<path fill="none" stroke="black" stroke-width="0.06" d="M491.72,-391.36C440.2,-342.15 296.38,-204.78 236.93,-148.01"/>
<polygon fill="black" stroke="black" stroke-width="0.06" points="239.1,-145.24 229.45,-140.86 234.27,-150.3 239.1,-145.24"/>
<text text-anchor="middle" x="273.32" y="-273.48" font-family="Times,serif" font-size="14.00">molten&#45;glass&#45;barrel*1828</text>
</g>
<!-- 3,3 (Random electronic components, Small Parts) -->
<g id="node8" class="node">
<title>3,3 (Random electronic components, Small Parts)</title>
<ellipse fill="none" stroke="black" cx="647.35" cy="-18" rx="240.46" ry="18"/>
<text text-anchor="middle" x="647.35" y="-14.3" font-family="Times,serif" font-size="14.00">3,3 (Random electronic components, Small Parts)</text>
</g>
<!-- 4,12 (Molten Glass)&#45;&gt;3,3 (Random electronic components, Small Parts) -->
<g id="edge7" class="edge">
<title>4,12 (Molten Glass)&#45;&gt;3,3 (Random electronic components, Small Parts)</title>
<path fill="none" stroke="black" stroke-width="0.1" d="M516.79,-391.18C538.64,-328.74 611,-121.92 637.51,-46.14"/>
<polygon fill="black" stroke="black" stroke-width="0.1" points="640.93,-46.94 640.93,-36.35 634.33,-44.63 640.93,-46.94"/>
<text text-anchor="middle" x="486.15" y="-222.46" font-family="Times,serif" font-size="14.00">molten&#45;glass&#45;barrel*2880</text>
</g>
</g>
</svg>
