<?xml version="1.0" encoding="UTF-8" standalone="no"?>
<!DOCTYPE svg PUBLIC "-//W3C//DTD SVG 1.1//EN"
 "http://www.w3.org/Graphics/SVG/1.1/DTD/svg11.dtd">
<!-- Generated by graphviz version 2.43.0 (0)
 -->
<!-- Title: %3 Pages: 1 -->
<svg width="1221pt" height="44pt"
 viewBox="0.00 0.00 1220.51 44.00" xmlns="http://www.w3.org/2000/svg" xmlns:xlink="http://www.w3.org/1999/xlink">
<g id="graph0" class="graph" transform="scale(1 1) rotate(0) translate(4 40)">
<title>%3</title>
<polygon fill="white" stroke="transparent" points="-4,4 -4,-40 1216.51,-40 1216.51,4 -4,4"/>
<!-- &#45;1,6 (Flimble&#39;s Slaughterhouse and Daycare Centre, Auog Products) -->
<g id="node1" class="node">
<title>&#45;1,6 (Flimble&#39;s Slaughterhouse and Daycare Centre, Auog Products)</title>
<ellipse fill="none" stroke="black" cx="325.62" cy="-18" rx="325.74" ry="18"/>
<text text-anchor="middle" x="325.62" y="-14.3" font-family="Times,serif" font-size="14.00">&#45;1,6 (Flimble&#39;s Slaughterhouse and Daycare Centre, Auog Products)</text>
</g>
<!-- 0,0 (LE BUS) -->
<g id="node2" class="node">
<title>0,0 (LE BUS)</title>
<ellipse fill="none" stroke="black" cx="794.74" cy="-18" rx="71.49" ry="18"/>
<text text-anchor="middle" x="794.74" y="-14.3" font-family="Times,serif" font-size="14.00">0,0 (LE BUS)</text>
</g>
<!-- &#45;1,6 (Flimble&#39;s Slaughterhouse and Daycare Centre, Auog Products)&#45;&gt;0,0 (LE BUS) -->
<g id="edge1" class="edge">
<title>&#45;1,6 (Flimble&#39;s Slaughterhouse and Daycare Centre, Auog Products)&#45;&gt;0,0 (LE BUS)</title>
<path fill="none" stroke="black" stroke-width="0.17" d="M651.44,-18C673.6,-18 694.47,-18 713.07,-18"/>
<polygon fill="black" stroke="black" stroke-width="0.17" points="713.17,-21.5 723.17,-18 713.17,-14.5 713.17,-21.5"/>
<text text-anchor="middle" x="682.26" y="-6.8" font-family="Times,serif" font-size="14.00">guts*2016</text>
</g>
<!-- 7,&#45;2 (item=guts Auog guts) -->
<g id="node3" class="node">
<title>7,&#45;2 (item=guts Auog guts)</title>
<ellipse fill="none" stroke="black" cx="1075.37" cy="-18" rx="137.28" ry="18"/>
<text text-anchor="middle" x="1075.37" y="-14.3" font-family="Times,serif" font-size="14.00">7,&#45;2 (item=guts Auog guts)</text>
</g>
<!-- 7,&#45;2 (item=guts Auog guts)&#45;&gt;0,0 (LE BUS) -->
<g id="edge2" class="edge">
<title>7,&#45;2 (item=guts Auog guts)&#45;&gt;0,0 (LE BUS)</title>
<path fill="none" stroke="black" stroke-width="1.83" d="M937.93,-18C916.98,-18 895.94,-18 876.68,-18"/>
<polygon fill="black" stroke="black" stroke-width="1.83" points="876.48,-14.5 866.48,-18 876.48,-21.5 876.48,-14.5"/>
<text text-anchor="middle" x="907.31" y="-6.8" font-family="Times,serif" font-size="14.00">guts*22352</text>
</g>
</g>
</svg>
