<?xml version="1.0" encoding="UTF-8" standalone="no"?>
<!DOCTYPE svg PUBLIC "-//W3C//DTD SVG 1.1//EN"
 "http://www.w3.org/Graphics/SVG/1.1/DTD/svg11.dtd">
<!-- Generated by graphviz version 2.43.0 (0)
 -->
<!-- Title: %3 Pages: 1 -->
<svg width="3117pt" height="2664pt"
 viewBox="0.00 0.00 3117.40 2663.54" xmlns="http://www.w3.org/2000/svg" xmlns:xlink="http://www.w3.org/1999/xlink">
<g id="graph0" class="graph" transform="scale(1 1) rotate(0) translate(4 2659.54)">
<title>%3</title>
<polygon fill="white" stroke="transparent" points="-4,4 -4,-2659.54 3113.4,-2659.54 3113.4,4 -4,4"/>
<!-- 0,&#45;7 (Salt (stone/gravel destruction)) -->
<g id="node1" class="node">
<title>0,&#45;7 (Salt (stone/gravel destruction))</title>
<ellipse fill="none" stroke="black" cx="869.54" cy="-187.23" rx="180.07" ry="18"/>
<text text-anchor="middle" x="869.54" y="-183.53" font-family="Times,serif" font-size="14.00">0,&#45;7 (Salt (stone/gravel destruction))</text>
</g>
<!-- 0,0 (LE BUS) -->
<g id="node2" class="node">
<title>0,0 (LE BUS)</title>
<ellipse fill="none" stroke="black" cx="462.57" cy="-553.67" rx="71.49" ry="18"/>
<text text-anchor="middle" x="462.57" y="-549.97" font-family="Times,serif" font-size="14.00">0,0 (LE BUS)</text>
</g>
<!-- 0,&#45;7 (Salt (stone/gravel destruction))&#45;&gt;0,0 (LE BUS) -->
<g id="edge1" class="edge">
<title>0,&#45;7 (Salt (stone/gravel destruction))&#45;&gt;0,0 (LE BUS)</title>
<path fill="none" stroke="black" stroke-width="2.46" d="M849.64,-205.15C782.81,-265.32 566.39,-460.19 489.77,-529.18"/>
<polygon fill="black" stroke="black" stroke-width="2.46" points="487.05,-526.91 481.96,-536.21 491.74,-532.12 487.05,-526.91"/>
<text text-anchor="middle" x="625.7" y="-370.96" font-family="Times,serif" font-size="14.00">salt*186000</text>
</g>
<!-- 1,3 (item=korlex&#45;food&#45;01 Korlex food) -->
<g id="node4" class="node">
<title>1,3 (item=korlex&#45;food&#45;01 Korlex food)</title>
<ellipse fill="none" stroke="black" cx="1935.01" cy="-75.24" rx="185.77" ry="18"/>
<text text-anchor="middle" x="1935.01" y="-71.54" font-family="Times,serif" font-size="14.00">1,3 (item=korlex&#45;food&#45;01 Korlex food)</text>
</g>
<!-- 0,&#45;7 (Salt (stone/gravel destruction))&#45;&gt;1,3 (item=korlex&#45;food&#45;01 Korlex food) -->
<g id="edge30" class="edge">
<title>0,&#45;7 (Salt (stone/gravel destruction))&#45;&gt;1,3 (item=korlex&#45;food&#45;01 Korlex food)</title>
<path fill="none" stroke="black" stroke-width="0.17" d="M993.85,-174.16C1195.03,-153.02 1590.44,-111.46 1798.92,-89.55"/>
<polygon fill="black" stroke="black" stroke-width="0.17" points="1799.44,-93.01 1809.02,-88.49 1798.7,-86.05 1799.44,-93.01"/>
<text text-anchor="middle" x="1356.89" y="-135.65" font-family="Times,serif" font-size="14.00">salt*12640</text>
</g>
<!-- 3,&#45;8 (Agar) -->
<g id="node7" class="node">
<title>3,&#45;8 (Agar)</title>
<ellipse fill="none" stroke="black" cx="1390.37" cy="-18" rx="59.59" ry="18"/>
<text text-anchor="middle" x="1390.37" y="-14.3" font-family="Times,serif" font-size="14.00">3,&#45;8 (Agar)</text>
</g>
<!-- 0,&#45;7 (Salt (stone/gravel destruction))&#45;&gt;3,&#45;8 (Agar) -->
<g id="edge38" class="edge">
<title>0,&#45;7 (Salt (stone/gravel destruction))&#45;&gt;3,&#45;8 (Agar)</title>
<path fill="none" stroke="black" stroke-width="0.33" d="M922.83,-169.91C1023.72,-137.13 1241.33,-66.43 1339.95,-34.38"/>
<polygon fill="black" stroke="black" stroke-width="0.33" points="1341.25,-37.64 1349.68,-31.22 1339.09,-30.98 1341.25,-37.64"/>
<text text-anchor="middle" x="1091.89" y="-105.95" font-family="Times,serif" font-size="14.00">salt*25040</text>
</g>
<!-- 2,7 (Mystery petrochemicals) -->
<g id="node8" class="node">
<title>2,7 (Mystery petrochemicals)</title>
<ellipse fill="none" stroke="black" cx="462.57" cy="-2101.87" rx="147.57" ry="18"/>
<text text-anchor="middle" x="462.57" y="-2098.17" font-family="Times,serif" font-size="14.00">2,7 (Mystery petrochemicals)</text>
</g>
<!-- 0,&#45;7 (Salt (stone/gravel destruction))&#45;&gt;2,7 (Mystery petrochemicals) -->
<g id="edge14" class="edge">
<title>0,&#45;7 (Salt (stone/gravel destruction))&#45;&gt;2,7 (Mystery petrochemicals)</title>
<path fill="none" stroke="black" stroke-width="0.26" d="M865.71,-205.26C827.5,-385.02 515.5,-1852.86 468.49,-2074.02"/>
<polygon fill="black" stroke="black" stroke-width="0.26" points="465.05,-2073.36 466.4,-2083.87 471.9,-2074.81 465.05,-2073.36"/>
<text text-anchor="middle" x="627.6" y="-1143.44" font-family="Times,serif" font-size="14.00">salt*19520</text>
</g>
<!-- 1,8 (HCl, Salt) -->
<g id="node9" class="node">
<title>1,8 (HCl, Salt)</title>
<ellipse fill="none" stroke="black" cx="2845.02" cy="-1327.77" rx="77.19" ry="18"/>
<text text-anchor="middle" x="2845.02" y="-1324.07" font-family="Times,serif" font-size="14.00">1,8 (HCl, Salt)</text>
</g>
<!-- 0,&#45;7 (Salt (stone/gravel destruction))&#45;&gt;1,8 (HCl, Salt) -->
<g id="edge16" class="edge">
<title>0,&#45;7 (Salt (stone/gravel destruction))&#45;&gt;1,8 (HCl, Salt)</title>
<path fill="none" stroke="black" stroke-width="1.59" d="M900.57,-205.14C1129.55,-337.35 2555.39,-1160.55 2807.08,-1305.87"/>
<polygon fill="black" stroke="black" stroke-width="1.59" points="2805.46,-1308.97 2815.87,-1310.94 2808.96,-1302.91 2805.46,-1308.97"/>
<text text-anchor="middle" x="1809.83" y="-759.31" font-family="Times,serif" font-size="14.00">salt*120000</text>
</g>
<!-- 2,1 (Niobium plates) -->
<g id="node11" class="node">
<title>2,1 (Niobium plates)</title>
<ellipse fill="none" stroke="black" cx="1935.01" cy="-2580.3" rx="105.88" ry="18"/>
<text text-anchor="middle" x="1935.01" y="-2576.6" font-family="Times,serif" font-size="14.00">2,1 (Niobium plates)</text>
</g>
<!-- 0,&#45;7 (Salt (stone/gravel destruction))&#45;&gt;2,1 (Niobium plates) -->
<g id="edge10" class="edge">
<title>0,&#45;7 (Salt (stone/gravel destruction))&#45;&gt;2,1 (Niobium plates)</title>
<path fill="none" stroke="black" stroke-width="0.47" d="M877.66,-205.45C969.44,-411.6 1811,-2301.77 1922.76,-2552.8"/>
<polygon fill="black" stroke="black" stroke-width="0.47" points="1919.72,-2554.58 1926.99,-2562.29 1926.12,-2551.73 1919.72,-2554.58"/>
<text text-anchor="middle" x="1360.71" y="-1382.93" font-family="Times,serif" font-size="14.00">salt*35680</text>
</g>
<!-- &#45;5,2 (Optical fiber) -->
<g id="node12" class="node">
<title>&#45;5,2 (Optical fiber)</title>
<ellipse fill="none" stroke="black" cx="2731.16" cy="-1863.44" rx="96.38" ry="18"/>
<text text-anchor="middle" x="2731.16" y="-1859.74" font-family="Times,serif" font-size="14.00">&#45;5,2 (Optical fiber)</text>
</g>
<!-- 0,&#45;7 (Salt (stone/gravel destruction))&#45;&gt;&#45;5,2 (Optical fiber) -->
<g id="edge18" class="edge">
<title>0,&#45;7 (Salt (stone/gravel destruction))&#45;&gt;&#45;5,2 (Optical fiber)</title>
<path fill="none" stroke="black" stroke-width="0.78" d="M889.5,-205.2C1074.56,-371.83 2488.99,-1645.39 2703.84,-1838.84"/>
<polygon fill="black" stroke="black" stroke-width="0.78" points="2701.76,-1841.67 2711.53,-1845.76 2706.44,-1836.47 2701.76,-1841.67"/>
<text text-anchor="middle" x="1757.17" y="-1025.82" font-family="Times,serif" font-size="14.00">salt*58640</text>
</g>
<!-- &#45;4,7 (Powdered Quartz/Salt) -->
<g id="node3" class="node">
<title>&#45;4,7 (Powdered Quartz/Salt)</title>
<ellipse fill="none" stroke="black" cx="869.54" cy="-2468.31" rx="139.98" ry="18"/>
<text text-anchor="middle" x="869.54" y="-2464.61" font-family="Times,serif" font-size="14.00">&#45;4,7 (Powdered Quartz/Salt)</text>
</g>
<!-- &#45;4,7 (Powdered Quartz/Salt)&#45;&gt;0,0 (LE BUS) -->
<g id="edge12" class="edge">
<title>&#45;4,7 (Powdered Quartz/Salt)&#45;&gt;0,0 (LE BUS)</title>
<path fill="none" stroke="black" stroke-width="0.79" d="M865.71,-2450.28C827.5,-2270.52 515.5,-802.68 468.49,-581.52"/>
<polygon fill="black" stroke="black" stroke-width="0.79" points="471.9,-580.73 466.4,-571.67 465.05,-582.18 471.9,-580.73"/>
<text text-anchor="middle" x="627.6" y="-1519.7" font-family="Times,serif" font-size="14.00">salt*60000</text>
</g>
<!-- &#45;4,7 (Powdered Quartz/Salt)&#45;&gt;1,3 (item=korlex&#45;food&#45;01 Korlex food) -->
<g id="edge2" class="edge">
<title>&#45;4,7 (Powdered Quartz/Salt)&#45;&gt;1,3 (item=korlex&#45;food&#45;01 Korlex food)</title>
<path fill="none" stroke="black" stroke-width="0.03" d="M877.66,-2450.09C969.44,-2243.94 1811,-353.77 1922.76,-102.74"/>
<polygon fill="black" stroke="black" stroke-width="0.03" points="1926.12,-103.81 1926.99,-93.25 1919.72,-100.96 1926.12,-103.81"/>
<text text-anchor="middle" x="1365.21" y="-1280.21" font-family="Times,serif" font-size="14.00">salt*2064</text>
</g>
<!-- &#45;4,7 (Powdered Quartz/Salt)&#45;&gt;2,7 (Mystery petrochemicals) -->
<g id="edge34" class="edge">
<title>&#45;4,7 (Powdered Quartz/Salt)&#45;&gt;2,7 (Mystery petrochemicals)</title>
<path fill="none" stroke="black" stroke-width="0.05" d="M849.64,-2450.39C782.97,-2390.36 567.39,-2196.25 490.3,-2126.84"/>
<polygon fill="black" stroke="black" stroke-width="0.05" points="492.21,-2123.85 482.44,-2119.76 487.53,-2129.05 492.21,-2123.85"/>
<text text-anchor="middle" x="634.97" y="-2292.42" font-family="Times,serif" font-size="14.00">salt*4144</text>
</g>
<!-- &#45;4,7 (Powdered Quartz/Salt)&#45;&gt;1,8 (HCl, Salt) -->
<g id="edge37" class="edge">
<title>&#45;4,7 (Powdered Quartz/Salt)&#45;&gt;1,8 (HCl, Salt)</title>
<path fill="none" stroke="black" stroke-width="0.79" d="M900.18,-2450.63C1127.89,-2319.16 2555.1,-1495.16 2807.04,-1349.7"/>
<polygon fill="black" stroke="black" stroke-width="0.79" points="2808.93,-1352.65 2815.84,-1344.62 2805.43,-1346.59 2808.93,-1352.65"/>
<text text-anchor="middle" x="1814.11" y="-1903.96" font-family="Times,serif" font-size="14.00">salt*60000</text>
</g>
<!-- &#45;4,7 (Powdered Quartz/Salt)&#45;&gt;2,1 (Niobium plates) -->
<g id="edge24" class="edge">
<title>&#45;4,7 (Powdered Quartz/Salt)&#45;&gt;2,1 (Niobium plates)</title>
<path fill="none" stroke="black" stroke-width="0.1" d="M978.06,-2479.72C1185.15,-2501.49 1633.93,-2548.65 1834.56,-2569.74"/>
<polygon fill="black" stroke="black" stroke-width="0.1" points="1834.48,-2573.25 1844.8,-2570.82 1835.22,-2566.29 1834.48,-2573.25"/>
<text text-anchor="middle" x="1371.31" y="-2528.53" font-family="Times,serif" font-size="14.00">salt*7648</text>
</g>
<!-- &#45;4,7 (Powdered Quartz/Salt)&#45;&gt;&#45;5,2 (Optical fiber) -->
<g id="edge40" class="edge">
<title>&#45;4,7 (Powdered Quartz/Salt)&#45;&gt;&#45;5,2 (Optical fiber)</title>
<path fill="none" stroke="black" stroke-width="0.04" d="M921.28,-2451.5C1186.79,-2365.23 2394.77,-1972.73 2673.61,-1882.13"/>
<polygon fill="black" stroke="black" stroke-width="0.04" points="2674.71,-1885.46 2683.14,-1879.04 2672.54,-1878.8 2674.71,-1885.46"/>
<text text-anchor="middle" x="1762.44" y="-2170.62" font-family="Times,serif" font-size="14.00">salt*2752</text>
</g>
<!-- 5,&#45;7 (Emergency Salt) -->
<g id="node5" class="node">
<title>5,&#45;7 (Emergency Salt)</title>
<ellipse fill="none" stroke="black" cx="2409.27" cy="-349.06" rx="112.38" ry="18"/>
<text text-anchor="middle" x="2409.27" y="-345.36" font-family="Times,serif" font-size="14.00">5,&#45;7 (Emergency Salt)</text>
</g>
<!-- 5,&#45;7 (Emergency Salt)&#45;&gt;0,0 (LE BUS) -->
<g id="edge3" class="edge">
<title>5,&#45;7 (Emergency Salt)&#45;&gt;0,0 (LE BUS)</title>
<path fill="none" stroke="black" stroke-width="14.41" d="M2315.05,-358.96C1979.13,-394.27 843.95,-513.58 538.69,-545.67"/>
<polygon fill="black" stroke="black" stroke-width="14.41" points="537.24,-533.14 528.61,-546.73 539.87,-558.22 537.24,-533.14"/>
<text text-anchor="middle" x="1378.37" y="-456.11" font-family="Times,serif" font-size="14.00">salt*1089280</text>
</g>
<!-- 5,&#45;7 (Emergency Salt)&#45;&gt;1,3 (item=korlex&#45;food&#45;01 Korlex food) -->
<g id="edge11" class="edge">
<title>5,&#45;7 (Emergency Salt)&#45;&gt;1,3 (item=korlex&#45;food&#45;01 Korlex food)</title>
<path fill="none" stroke="black" stroke-width="0.39" d="M2378.88,-331.51C2296.18,-283.77 2067.07,-151.49 1974.53,-98.07"/>
<polygon fill="black" stroke="black" stroke-width="0.39" points="1976.17,-94.97 1965.75,-93 1972.67,-101.03 1976.17,-94.97"/>
<text text-anchor="middle" x="2137.21" y="-218.59" font-family="Times,serif" font-size="14.00">salt*29680</text>
</g>
<!-- &#45;6,&#45;1 (item=agar Agar) -->
<g id="node6" class="node">
<title>&#45;6,&#45;1 (item=agar Agar)</title>
<ellipse fill="none" stroke="black" cx="2731.16" cy="-792.1" rx="115.88" ry="18"/>
<text text-anchor="middle" x="2731.16" y="-788.4" font-family="Times,serif" font-size="14.00">&#45;6,&#45;1 (item=agar Agar)</text>
</g>
<!-- 5,&#45;7 (Emergency Salt)&#45;&gt;&#45;6,&#45;1 (item=agar Agar) -->
<g id="edge4" class="edge">
<title>5,&#45;7 (Emergency Salt)&#45;&gt;&#45;6,&#45;1 (item=agar Agar)</title>
<path fill="none" stroke="black" stroke-width="1.66" d="M2422.29,-366.98C2472.33,-435.86 2652.52,-683.86 2711.97,-765.7"/>
<polygon fill="black" stroke="black" stroke-width="1.66" points="2709.27,-767.93 2717.98,-773.96 2714.93,-763.82 2709.27,-767.93"/>
<text text-anchor="middle" x="2523.13" y="-570.14" font-family="Times,serif" font-size="14.00">salt*125680</text>
</g>
<!-- 5,&#45;7 (Emergency Salt)&#45;&gt;3,&#45;8 (Agar) -->
<g id="edge5" class="edge">
<title>5,&#45;7 (Emergency Salt)&#45;&gt;3,&#45;8 (Agar)</title>
<path fill="none" stroke="black" stroke-width="1.32" d="M2359.44,-332.87C2186.69,-276.74 1614.66,-90.88 1440.88,-34.41"/>
<polygon fill="black" stroke="black" stroke-width="1.32" points="1441.81,-31.03 1431.22,-31.27 1439.65,-37.69 1441.81,-31.03"/>
<text text-anchor="middle" x="1856.16" y="-187.44" font-family="Times,serif" font-size="14.00">salt*100160</text>
</g>
<!-- 5,&#45;7 (Emergency Salt)&#45;&gt;2,7 (Mystery petrochemicals) -->
<g id="edge6" class="edge">
<title>5,&#45;7 (Emergency Salt)&#45;&gt;2,7 (Mystery petrochemicals)</title>
<path fill="none" stroke="black" stroke-width="0.63" d="M2389.37,-366.98C2199.61,-537.84 712,-1877.29 490.19,-2077"/>
<polygon fill="black" stroke="black" stroke-width="0.63" points="487.64,-2074.59 482.55,-2083.88 492.33,-2079.79 487.64,-2074.59"/>
<text text-anchor="middle" x="1400.28" y="-1225.79" font-family="Times,serif" font-size="14.00">salt*47680</text>
</g>
<!-- 5,&#45;7 (Emergency Salt)&#45;&gt;1,8 (HCl, Salt) -->
<g id="edge22" class="edge">
<title>5,&#45;7 (Emergency Salt)&#45;&gt;1,8 (HCl, Salt)</title>
<path fill="none" stroke="black" stroke-width="5.82" d="M2417.39,-367.31C2470.53,-486.65 2768.29,-1155.42 2832.72,-1300.15"/>
<polygon fill="black" stroke="black" stroke-width="5.82" points="2828.23,-1302.58 2836.95,-1309.65 2837.54,-1298.44 2828.23,-1302.58"/>
<text text-anchor="middle" x="2581.06" y="-837.53" font-family="Times,serif" font-size="14.00">salt*440000</text>
</g>
<!-- 5,&#45;7 (Emergency Salt)&#45;&gt;2,1 (Niobium plates) -->
<g id="edge17" class="edge">
<title>5,&#45;7 (Emergency Salt)&#45;&gt;2,1 (Niobium plates)</title>
<path fill="none" stroke="black" stroke-width="1.73" d="M2405.38,-367.35C2363.3,-565.35 1992.64,-2309.13 1940.97,-2552.21"/>
<polygon fill="black" stroke="black" stroke-width="1.73" points="1937.54,-2551.54 1938.88,-2562.05 1944.39,-2553 1937.54,-2551.54"/>
<text text-anchor="middle" x="2129.18" y="-1463.58" font-family="Times,serif" font-size="14.00">salt*131040</text>
</g>
<!-- 5,&#45;7 (Emergency Salt)&#45;&gt;&#45;5,2 (Optical fiber) -->
<g id="edge19" class="edge">
<title>5,&#45;7 (Emergency Salt)&#45;&gt;&#45;5,2 (Optical fiber)</title>
<path fill="none" stroke="black" stroke-width="1.92" d="M2413.11,-367.12C2446.3,-523.27 2684.45,-1643.69 2725.23,-1835.53"/>
<polygon fill="black" stroke="black" stroke-width="1.92" points="2721.82,-1836.34 2727.33,-1845.4 2728.67,-1834.89 2721.82,-1836.34"/>
<text text-anchor="middle" x="2525.17" y="-1105.12" font-family="Times,serif" font-size="14.00">salt*144960</text>
</g>
<!-- 1,8 (HCl, Salt)&#45;&gt;0,0 (LE BUS) -->
<g id="edge20" class="edge">
<title>1,8 (HCl, Salt)&#45;&gt;0,0 (LE BUS)</title>
<path fill="none" stroke="black" stroke-width="2.61" d="M2799.82,-1313.08C2503.2,-1216.71 837.34,-675.44 516.16,-571.08"/>
<polygon fill="black" stroke="black" stroke-width="2.61" points="517.21,-567.74 506.62,-567.98 515.05,-574.4 517.21,-567.74"/>
<text text-anchor="middle" x="1613.99" y="-945.88" font-family="Times,serif" font-size="14.00">salt*197440</text>
</g>
<!-- 1,8 (HCl, Salt)&#45;&gt;1,3 (item=korlex&#45;food&#45;01 Korlex food) -->
<g id="edge15" class="edge">
<title>1,8 (HCl, Salt)&#45;&gt;1,3 (item=korlex&#45;food&#45;01 Korlex food)</title>
<path fill="none" stroke="black" stroke-width="0.08" d="M2831.8,-1309.58C2730.35,-1169.93 2075.71,-268.91 1954.35,-101.86"/>
<polygon fill="black" stroke="black" stroke-width="0.08" points="1957.06,-99.64 1948.35,-93.61 1951.4,-103.76 1957.06,-99.64"/>
<text text-anchor="middle" x="2358.08" y="-709.52" font-family="Times,serif" font-size="14.00">salt*6240</text>
</g>
<!-- 1,8 (HCl, Salt)&#45;&gt;&#45;6,&#45;1 (item=agar Agar) -->
<g id="edge33" class="edge">
<title>1,8 (HCl, Salt)&#45;&gt;&#45;6,&#45;1 (item=agar Agar)</title>
<path fill="none" stroke="black" stroke-width="0.33" d="M2841.17,-1309.64C2824.37,-1230.64 2757.52,-916.1 2737.11,-820.08"/>
<polygon fill="black" stroke="black" stroke-width="0.33" points="2740.52,-819.28 2735.01,-810.23 2733.67,-820.74 2740.52,-819.28"/>
<text text-anchor="middle" x="2749.64" y="-1068.66" font-family="Times,serif" font-size="14.00">salt*25120</text>
</g>
<!-- 1,8 (HCl, Salt)&#45;&gt;2,7 (Mystery petrochemicals) -->
<g id="edge7" class="edge">
<title>1,8 (HCl, Salt)&#45;&gt;2,7 (Mystery petrochemicals)</title>
<path fill="none" stroke="black" stroke-width="0.3" d="M2799.82,-1342.46C2505.6,-1438.06 864.16,-1971.39 524.21,-2081.85"/>
<polygon fill="black" stroke="black" stroke-width="0.3" points="522.96,-2078.57 514.53,-2084.99 525.12,-2085.23 522.96,-2078.57"/>
<text text-anchor="middle" x="1622.51" y="-1715.95" font-family="Times,serif" font-size="14.00">salt*22480</text>
</g>
<!-- 1,8 (HCl, Salt)&#45;&gt;1,8 (HCl, Salt) -->
<g id="edge13" class="edge">
<title>1,8 (HCl, Salt)&#45;&gt;1,8 (HCl, Salt)</title>
<path fill="none" stroke="black" stroke-width="2.64" d="M2917.36,-1334.17C2930.86,-1333.39 2940.36,-1331.25 2940.36,-1327.77 2940.36,-1325.24 2935.34,-1323.42 2927.42,-1322.32"/>
<polygon fill="black" stroke="black" stroke-width="2.64" points="2927.64,-1318.82 2917.36,-1321.37 2926.99,-1325.79 2927.64,-1318.82"/>
<text text-anchor="middle" x="2984.36" y="-1324.07" font-family="Times,serif" font-size="14.00">salt*200000</text>
</g>
<!-- 1,8 (HCl, Salt)&#45;&gt;2,1 (Niobium plates) -->
<g id="edge21" class="edge">
<title>1,8 (HCl, Salt)&#45;&gt;2,1 (Niobium plates)</title>
<path fill="none" stroke="black" stroke-width="0.36" d="M2831.8,-1345.96C2730.24,-1485.75 2074.32,-2388.54 1953.96,-2554.2"/>
<polygon fill="black" stroke="black" stroke-width="0.36" points="1951.07,-2552.23 1948.02,-2562.38 1956.73,-2556.35 1951.07,-2552.23"/>
<text text-anchor="middle" x="2353.38" y="-1953.88" font-family="Times,serif" font-size="14.00">salt*26880</text>
</g>
<!-- 1,8 (HCl, Salt)&#45;&gt;&#45;5,2 (Optical fiber) -->
<g id="edge36" class="edge">
<title>1,8 (HCl, Salt)&#45;&gt;&#45;5,2 (Optical fiber)</title>
<path fill="none" stroke="black" stroke-width="0.56" d="M2841.17,-1345.9C2824.37,-1424.9 2757.52,-1739.44 2737.11,-1835.46"/>
<polygon fill="black" stroke="black" stroke-width="0.56" points="2733.67,-1834.8 2735.01,-1845.31 2740.52,-1836.26 2733.67,-1834.8"/>
<text text-anchor="middle" x="2749.64" y="-1594.48" font-family="Times,serif" font-size="14.00">salt*42640</text>
</g>
<!-- 2,10 (Nickel plate and Nichrome) -->
<g id="node10" class="node">
<title>2,10 (Nickel plate and Nichrome)</title>
<ellipse fill="none" stroke="black" cx="239.83" cy="-1601.59" rx="165.17" ry="18"/>
<text text-anchor="middle" x="239.83" y="-1597.89" font-family="Times,serif" font-size="14.00">2,10 (Nickel plate and Nichrome)</text>
</g>
<!-- 2,10 (Nickel plate and Nichrome)&#45;&gt;0,0 (LE BUS) -->
<g id="edge9" class="edge">
<title>2,10 (Nickel plate and Nichrome)&#45;&gt;0,0 (LE BUS)</title>
<path fill="none" stroke="black" stroke-width="0.22" d="M243.69,-1583.4C270.13,-1459.05 424.09,-734.69 456.56,-581.94"/>
<polygon fill="black" stroke="black" stroke-width="0.22" points="460.03,-582.45 458.69,-571.94 453.18,-581 460.03,-582.45"/>
<text text-anchor="middle" x="310.63" y="-1086.47" font-family="Times,serif" font-size="14.00">salt*16320</text>
</g>
<!-- 2,10 (Nickel plate and Nichrome)&#45;&gt;1,3 (item=korlex&#45;food&#45;01 Korlex food) -->
<g id="edge39" class="edge">
<title>2,10 (Nickel plate and Nichrome)&#45;&gt;1,3 (item=korlex&#45;food&#45;01 Korlex food)</title>
<path fill="none" stroke="black" stroke-width="0.03" d="M259.75,-1583.65C434.43,-1426.36 1703.88,-283.35 1907.49,-100.02"/>
<polygon fill="black" stroke="black" stroke-width="0.03" points="1909.98,-102.48 1915.07,-93.19 1905.3,-97.28 1909.98,-102.48"/>
<text text-anchor="middle" x="1048.62" y="-845.64" font-family="Times,serif" font-size="14.00">salt*2080</text>
</g>
<!-- 2,10 (Nickel plate and Nichrome)&#45;&gt;2,7 (Mystery petrochemicals) -->
<g id="edge26" class="edge">
<title>2,10 (Nickel plate and Nichrome)&#45;&gt;2,7 (Mystery petrochemicals)</title>
<path fill="none" stroke="black" stroke-width="0.11" d="M247.89,-1619.69C281.42,-1694.99 409.99,-1983.77 450.36,-2074.46"/>
<polygon fill="black" stroke="black" stroke-width="0.11" points="447.26,-2076.09 454.52,-2083.8 453.65,-2073.24 447.26,-2076.09"/>
<text text-anchor="middle" x="314.13" y="-1850.87" font-family="Times,serif" font-size="14.00">salt*8320</text>
</g>
<!-- 2,10 (Nickel plate and Nichrome)&#45;&gt;1,8 (HCl, Salt) -->
<g id="edge8" class="edge">
<title>2,10 (Nickel plate and Nichrome)&#45;&gt;1,8 (HCl, Salt)</title>
<path fill="none" stroke="black" stroke-width="0.53" d="M358.97,-1589.07C807.52,-1541.92 2388.17,-1375.79 2764.27,-1336.26"/>
<polygon fill="black" stroke="black" stroke-width="0.53" points="2764.68,-1339.73 2774.26,-1335.21 2763.94,-1332.77 2764.68,-1339.73"/>
<text text-anchor="middle" x="1522.12" y="-1466.46" font-family="Times,serif" font-size="14.00">salt*40000</text>
</g>
<!-- 2,10 (Nickel plate and Nichrome)&#45;&gt;2,1 (Niobium plates) -->
<g id="edge42" class="edge">
<title>2,10 (Nickel plate and Nichrome)&#45;&gt;2,1 (Niobium plates)</title>
<path fill="none" stroke="black" stroke-width="0.14" d="M270.7,-1619.41C477.94,-1739.06 1665.43,-2424.66 1896.17,-2557.87"/>
<polygon fill="black" stroke="black" stroke-width="0.14" points="1894.49,-2560.95 1904.9,-2562.91 1897.99,-2554.88 1894.49,-2560.95"/>
<text text-anchor="middle" x="1043.93" y="-2092.44" font-family="Times,serif" font-size="14.00">salt*10240</text>
</g>
<!-- 2,10 (Nickel plate and Nichrome)&#45;&gt;&#45;5,2 (Optical fiber) -->
<g id="edge29" class="edge">
<title>2,10 (Nickel plate and Nichrome)&#45;&gt;&#45;5,2 (Optical fiber)</title>
<path fill="none" stroke="black" stroke-width="0.12" d="M358.73,-1614.08C787.74,-1659.17 2250.89,-1812.96 2637.07,-1853.55"/>
<polygon fill="black" stroke="black" stroke-width="0.12" points="2636.77,-1857.04 2647.09,-1854.6 2637.51,-1850.07 2636.77,-1857.04"/>
<text text-anchor="middle" x="1462.9" y="-1737.62" font-family="Times,serif" font-size="14.00">salt*9280</text>
</g>
<!-- &#45;3,7 (item=sea&#45;sponge&#45;sprouts Also Borax) -->
<g id="node13" class="node">
<title>&#45;3,7 (item=sea&#45;sponge&#45;sprouts Also Borax)</title>
<ellipse fill="none" stroke="black" cx="1390.37" cy="-2637.54" rx="209.06" ry="18"/>
<text text-anchor="middle" x="1390.37" y="-2633.84" font-family="Times,serif" font-size="14.00">&#45;3,7 (item=sea&#45;sponge&#45;sprouts Also Borax)</text>
</g>
<!-- &#45;3,7 (item=sea&#45;sponge&#45;sprouts Also Borax)&#45;&gt;0,0 (LE BUS) -->
<g id="edge23" class="edge">
<title>&#45;3,7 (item=sea&#45;sponge&#45;sprouts Also Borax)&#45;&gt;0,0 (LE BUS)</title>
<path fill="none" stroke="black" stroke-width="1.14" d="M1382.35,-2619.53C1298.19,-2430.49 577.98,-812.88 474.85,-581.24"/>
<polygon fill="black" stroke="black" stroke-width="1.14" points="477.93,-579.55 470.66,-571.84 471.53,-582.4 477.93,-579.55"/>
<text text-anchor="middle" x="889.1" y="-1604.18" font-family="Times,serif" font-size="14.00">salt*86304</text>
</g>
<!-- &#45;3,7 (item=sea&#45;sponge&#45;sprouts Also Borax)&#45;&gt;1,3 (item=korlex&#45;food&#45;01 Korlex food) -->
<g id="edge47" class="edge">
<title>&#45;3,7 (item=sea&#45;sponge&#45;sprouts Also Borax)&#45;&gt;1,3 (item=korlex&#45;food&#45;01 Korlex food)</title>
<path fill="none" stroke="black" stroke-width="0.03" d="M1394.22,-2619.46C1439.62,-2405.83 1873.15,-366.27 1929.07,-103.15"/>
<polygon fill="black" stroke="black" stroke-width="0.03" points="1932.52,-103.75 1931.18,-93.24 1925.68,-102.3 1932.52,-103.75"/>
<text text-anchor="middle" x="1626.64" y="-1365.11" font-family="Times,serif" font-size="14.00">salt*2032</text>
</g>
<!-- &#45;3,7 (item=sea&#45;sponge&#45;sprouts Also Borax)&#45;&gt;2,7 (Mystery petrochemicals) -->
<g id="edge28" class="edge">
<title>&#45;3,7 (item=sea&#45;sponge&#45;sprouts Also Borax)&#45;&gt;2,7 (Mystery petrochemicals)</title>
<path fill="none" stroke="black" stroke-width="0.11" d="M1359.5,-2619.72C1220.93,-2539.71 656.34,-2213.75 501.83,-2124.54"/>
<polygon fill="black" stroke="black" stroke-width="0.11" points="503.5,-2121.46 493.09,-2119.49 500,-2127.52 503.5,-2121.46"/>
<text text-anchor="middle" x="895.66" y="-2375.93" font-family="Times,serif" font-size="14.00">salt*8640</text>
</g>
<!-- &#45;3,7 (item=sea&#45;sponge&#45;sprouts Also Borax)&#45;&gt;1,8 (HCl, Salt) -->
<g id="edge41" class="edge">
<title>&#45;3,7 (item=sea&#45;sponge&#45;sprouts Also Borax)&#45;&gt;1,8 (HCl, Salt)</title>
<path fill="none" stroke="black" stroke-width="0.26" d="M1410.38,-2619.52C1569.85,-2475.94 2633.31,-1518.39 2817.77,-1352.3"/>
<polygon fill="black" stroke="black" stroke-width="0.26" points="2820.32,-1354.72 2825.41,-1345.43 2815.64,-1349.52 2820.32,-1354.72"/>
<text text-anchor="middle" x="2074.58" y="-1989.71" font-family="Times,serif" font-size="14.00">salt*20000</text>
</g>
<!-- &#45;3,7 (item=sea&#45;sponge&#45;sprouts Also Borax)&#45;&gt;2,1 (Niobium plates) -->
<g id="edge27" class="edge">
<title>&#45;3,7 (item=sea&#45;sponge&#45;sprouts Also Borax)&#45;&gt;2,1 (Niobium plates)</title>
<path fill="none" stroke="black" stroke-width="0.07" d="M1523.26,-2623.57C1619.28,-2613.48 1746.97,-2600.06 1834.55,-2590.86"/>
<polygon fill="black" stroke="black" stroke-width="0.07" points="1835.18,-2594.31 1844.76,-2589.78 1834.45,-2587.35 1835.18,-2594.31"/>
<text text-anchor="middle" x="1643.9" y="-2611.02" font-family="Times,serif" font-size="14.00">salt*5168</text>
</g>
<!-- &#45;3,7 (item=sea&#45;sponge&#45;sprouts Also Borax)&#45;&gt;&#45;5,2 (Optical fiber) -->
<g id="edge25" class="edge">
<title>&#45;3,7 (item=sea&#45;sponge&#45;sprouts Also Borax)&#45;&gt;&#45;5,2 (Optical fiber)</title>
<path fill="none" stroke="black" stroke-width="0.58" d="M1421.22,-2619.73C1599.26,-2516.94 2494.53,-2000.06 2692.41,-1885.81"/>
<polygon fill="black" stroke="black" stroke-width="0.58" points="2694.39,-1888.71 2701.3,-1880.68 2690.89,-1882.65 2694.39,-1888.71"/>
<text text-anchor="middle" x="2017.31" y="-2256.57" font-family="Times,serif" font-size="14.00">salt*44080</text>
</g>
<!-- 0,5 (Titanium Processing (Grade 4)) -->
<g id="node14" class="node">
<title>0,5 (Titanium Processing (Grade 4))</title>
<ellipse fill="none" stroke="black" cx="2409.27" cy="-2306.48" rx="176.57" ry="18"/>
<text text-anchor="middle" x="2409.27" y="-2302.78" font-family="Times,serif" font-size="14.00">0,5 (Titanium Processing (Grade 4))</text>
</g>
<!-- 0,5 (Titanium Processing (Grade 4))&#45;&gt;&#45;6,&#45;1 (item=agar Agar) -->
<g id="edge43" class="edge">
<title>0,5 (Titanium Processing (Grade 4))&#45;&gt;&#45;6,&#45;1 (item=agar Agar)</title>
<path fill="none" stroke="black" stroke-width="0.33" d="M2413.11,-2288.42C2446.3,-2132.27 2684.45,-1011.85 2725.23,-820.01"/>
<polygon fill="black" stroke="black" stroke-width="0.33" points="2728.67,-820.65 2727.33,-810.14 2721.82,-819.2 2728.67,-820.65"/>
<text text-anchor="middle" x="2529.67" y="-1558.02" font-family="Times,serif" font-size="14.00">salt*25120</text>
</g>
<!-- 0,5 (Titanium Processing (Grade 4))&#45;&gt;2,7 (Mystery petrochemicals) -->
<g id="edge31" class="edge">
<title>0,5 (Titanium Processing (Grade 4))&#45;&gt;2,7 (Mystery petrochemicals)</title>
<path fill="none" stroke="black" stroke-width="0.06" d="M2286.02,-2293.53C1935.21,-2256.66 934.11,-2151.44 584.69,-2114.71"/>
<polygon fill="black" stroke="black" stroke-width="0.06" points="584.86,-2111.21 574.55,-2113.64 584.13,-2118.17 584.86,-2111.21"/>
<text text-anchor="middle" x="1400.36" y="-2207.92" font-family="Times,serif" font-size="14.00">salt*4304</text>
</g>
<!-- 0,5 (Titanium Processing (Grade 4))&#45;&gt;2,1 (Niobium plates) -->
<g id="edge45" class="edge">
<title>0,5 (Titanium Processing (Grade 4))&#45;&gt;2,1 (Niobium plates)</title>
<path fill="none" stroke="black" stroke-width="0.03" d="M2378.52,-2324.24C2295.28,-2372.29 2065.7,-2504.84 1973.79,-2557.91"/>
<polygon fill="black" stroke="black" stroke-width="0.03" points="1971.99,-2554.91 1965.08,-2562.94 1975.49,-2560.97 1971.99,-2554.91"/>
<text text-anchor="middle" x="2141.15" y="-2444.87" font-family="Times,serif" font-size="14.00">salt*2064</text>
</g>
<!-- 0,5 (Titanium Processing (Grade 4))&#45;&gt;&#45;5,2 (Optical fiber) -->
<g id="edge32" class="edge">
<title>0,5 (Titanium Processing (Grade 4))&#45;&gt;&#45;5,2 (Optical fiber)</title>
<path fill="none" stroke="black" stroke-width="0.06" d="M2422.49,-2288.29C2472.83,-2219 2652.68,-1971.46 2712.02,-1889.79"/>
<polygon fill="black" stroke="black" stroke-width="0.06" points="2714.96,-1891.69 2718.01,-1881.54 2709.3,-1887.57 2714.96,-1891.69"/>
<text text-anchor="middle" x="2532.25" y="-2092.84" font-family="Times,serif" font-size="14.00">salt*4592</text>
</g>
<!-- &#45;2,2 (Sea sponges) -->
<g id="node15" class="node">
<title>&#45;2,2 (Sea sponges)</title>
<ellipse fill="none" stroke="black" cx="3013.21" cy="-1327.77" rx="96.38" ry="18"/>
<text text-anchor="middle" x="3013.21" y="-1324.07" font-family="Times,serif" font-size="14.00">&#45;2,2 (Sea sponges)</text>
</g>
<!-- &#45;2,2 (Sea sponges)&#45;&gt;1,8 (HCl, Salt) -->
<g id="edge35" class="edge">
<title>&#45;2,2 (Sea sponges)&#45;&gt;1,8 (HCl, Salt)</title>
<path fill="none" stroke="black" stroke-width="0.26" d="M2916.84,-1327.77C2916.76,-1327.77 2916.69,-1327.77 2916.62,-1327.77"/>
<polygon fill="black" stroke="black" stroke-width="0.26" points="2926.4,-1324.28 2916.4,-1327.77 2926.39,-1331.28 2926.4,-1324.28"/>
<text text-anchor="middle" x="2877.23" y="-1331.57" font-family="Times,serif" font-size="14.00">salt*20000</text>
</g>
<!-- 3,5 (item=molybdenum&#45;plate Molybdenum plate) -->
<g id="node16" class="node">
<title>3,5 (item=molybdenum&#45;plate Molybdenum plate)</title>
<ellipse fill="none" stroke="black" cx="239.83" cy="-1053.95" rx="239.66" ry="18"/>
<text text-anchor="middle" x="239.83" y="-1050.25" font-family="Times,serif" font-size="14.00">3,5 (item=molybdenum&#45;plate Molybdenum plate)</text>
</g>
<!-- 3,5 (item=molybdenum&#45;plate Molybdenum plate)&#45;&gt;0,0 (LE BUS) -->
<g id="edge46" class="edge">
<title>3,5 (item=molybdenum&#45;plate Molybdenum plate)&#45;&gt;0,0 (LE BUS)</title>
<path fill="none" stroke="black" stroke-width="0.26" d="M247.89,-1035.85C281.42,-960.55 409.99,-671.78 450.36,-581.09"/>
<polygon fill="black" stroke="black" stroke-width="0.26" points="453.65,-582.3 454.52,-571.74 447.26,-579.45 453.65,-582.3"/>
<text text-anchor="middle" x="309.63" y="-812.27" font-family="Times,serif" font-size="14.00">salt*20000</text>
</g>
<!-- 3,5 (item=molybdenum&#45;plate Molybdenum plate)&#45;&gt;2,7 (Mystery petrochemicals) -->
<g id="edge44" class="edge">
<title>3,5 (item=molybdenum&#45;plate Molybdenum plate)&#45;&gt;2,7 (Mystery petrochemicals)</title>
<path fill="none" stroke="black" stroke-width="0.03" d="M243.69,-1072.14C270.13,-1196.49 424.09,-1920.85 456.56,-2073.6"/>
<polygon fill="black" stroke="black" stroke-width="0.03" points="453.18,-2074.54 458.69,-2083.6 460.03,-2073.09 453.18,-2074.54"/>
<text text-anchor="middle" x="315.13" y="-1561.67" font-family="Times,serif" font-size="14.00">salt*2064</text>
</g>
</g>
</svg>
