<?xml version="1.0" encoding="UTF-8" standalone="no"?>
<!DOCTYPE svg PUBLIC "-//W3C//DTD SVG 1.1//EN"
 "http://www.w3.org/Graphics/SVG/1.1/DTD/svg11.dtd">
<!-- Generated by graphviz version 2.43.0 (0)
 -->
<!-- Title: %3 Pages: 1 -->
<svg width="914pt" height="44pt"
 viewBox="0.00 0.00 913.73 44.00" xmlns="http://www.w3.org/2000/svg" xmlns:xlink="http://www.w3.org/1999/xlink">
<g id="graph0" class="graph" transform="scale(1 1) rotate(0) translate(4 40)">
<title>%3</title>
<polygon fill="white" stroke="transparent" points="-4,4 -4,-40 909.73,-40 909.73,4 -4,4"/>
<!-- &#45;3,&#45;3 (Zinc Plates, 32 to consume four belts) -->
<g id="node1" class="node">
<title>&#45;3,&#45;3 (Zinc Plates, 32 to consume four belts)</title>
<ellipse fill="none" stroke="black" cx="213.83" cy="-18" rx="213.66" ry="18"/>
<text text-anchor="middle" x="213.83" y="-14.3" font-family="Times,serif" font-size="14.00">&#45;3,&#45;3 (Zinc Plates, 32 to consume four belts)</text>
</g>
<!-- &#45;2,&#45;3 (Trains) -->
<g id="node2" class="node">
<title>&#45;2,&#45;3 (Trains)</title>
<ellipse fill="none" stroke="black" cx="569.86" cy="-18" rx="70.39" ry="18"/>
<text text-anchor="middle" x="569.86" y="-14.3" font-family="Times,serif" font-size="14.00">&#45;2,&#45;3 (Trains)</text>
</g>
<!-- &#45;3,&#45;3 (Zinc Plates, 32 to consume four belts)&#45;&gt;&#45;2,&#45;3 (Trains) -->
<g id="edge1" class="edge">
<title>&#45;3,&#45;3 (Zinc Plates, 32 to consume four belts)&#45;&gt;&#45;2,&#45;3 (Trains)</title>
<path fill="none" stroke="black" stroke-width="0.6" d="M427.87,-18C449.52,-18 470.43,-18 489.24,-18"/>
<polygon fill="black" stroke="black" stroke-width="0.6" points="489.47,-21.5 499.47,-18 489.47,-14.5 489.47,-21.5"/>
<text text-anchor="middle" x="458.55" y="-6.8" font-family="Times,serif" font-size="14.00">sand*7615</text>
</g>
<!-- 2,10 (Nickel plate) -->
<g id="node3" class="node">
<title>2,10 (Nickel plate)</title>
<ellipse fill="none" stroke="black" cx="808.89" cy="-18" rx="96.68" ry="18"/>
<text text-anchor="middle" x="808.89" y="-14.3" font-family="Times,serif" font-size="14.00">2,10 (Nickel plate)</text>
</g>
<!-- 2,10 (Nickel plate)&#45;&gt;&#45;2,&#45;3 (Trains) -->
<g id="edge2" class="edge">
<title>2,10 (Nickel plate)&#45;&gt;&#45;2,&#45;3 (Trains)</title>
<path fill="none" stroke="black" stroke-width="1.4" d="M712.01,-18C691.51,-18 670.09,-18 650.28,-18"/>
<polygon fill="black" stroke="black" stroke-width="1.4" points="650.08,-14.5 640.08,-18 650.08,-21.5 650.08,-14.5"/>
<text text-anchor="middle" x="681.15" y="-6.8" font-family="Times,serif" font-size="14.00">sand*17840</text>
</g>
</g>
</svg>
