<?xml version="1.0" encoding="UTF-8" standalone="no"?>
<!DOCTYPE svg PUBLIC "-//W3C//DTD SVG 1.1//EN"
 "http://www.w3.org/Graphics/SVG/1.1/DTD/svg11.dtd">
<!-- Generated by graphviz version 2.43.0 (0)
 -->
<!-- Title: %3 Pages: 1 -->
<svg width="1715pt" height="1367pt"
 viewBox="0.00 0.00 1715.36 1366.61" xmlns="http://www.w3.org/2000/svg" xmlns:xlink="http://www.w3.org/1999/xlink">
<g id="graph0" class="graph" transform="scale(1 1) rotate(0) translate(4 1362.61)">
<title>%3</title>
<polygon fill="white" stroke="transparent" points="-4,4 -4,-1362.61 1711.36,-1362.61 1711.36,4 -4,4"/>
<!-- 4,0 (item=raw&#45;borax item=borax Borax and raw borax) -->
<g id="node1" class="node">
<title>4,0 (item=raw&#45;borax item=borax Borax and raw borax)</title>
<ellipse fill="none" stroke="black" cx="1193.95" cy="-148.98" rx="268.35" ry="18"/>
<text text-anchor="middle" x="1193.95" y="-145.28" font-family="Times,serif" font-size="14.00">4,0 (item=raw&#45;borax item=borax Borax and raw borax)</text>
</g>
<!-- &#45;2,9 (molten steel) -->
<g id="node2" class="node">
<title>&#45;2,9 (molten steel)</title>
<ellipse fill="none" stroke="black" cx="620.09" cy="-18" rx="95.58" ry="18"/>
<text text-anchor="middle" x="620.09" y="-14.3" font-family="Times,serif" font-size="14.00">&#45;2,9 (molten steel)</text>
</g>
<!-- 4,0 (item=raw&#45;borax item=borax Borax and raw borax)&#45;&gt;&#45;2,9 (molten steel) -->
<g id="edge1" class="edge">
<title>4,0 (item=raw&#45;borax item=borax Borax and raw borax)&#45;&gt;&#45;2,9 (molten steel)</title>
<path fill="none" stroke="black" stroke-width="0.64" d="M1118.04,-131.65C1006.53,-106.2 799.92,-59.05 691.2,-34.23"/>
<polygon fill="black" stroke="black" stroke-width="0.64" points="691.84,-30.79 681.31,-31.98 690.28,-37.61 691.84,-30.79"/>
<text text-anchor="middle" x="862.62" y="-86.74" font-family="Times,serif" font-size="14.00">borax*8200</text>
</g>
<!-- &#45;4,&#45;4 (Reserved For Aluminium Ore Drop, Aluminium) -->
<g id="node4" class="node">
<title>&#45;4,&#45;4 (Reserved For Aluminium Ore Drop, Aluminium)</title>
<ellipse fill="none" stroke="black" cx="1449.34" cy="-679.31" rx="258.05" ry="18"/>
<text text-anchor="middle" x="1449.34" y="-675.61" font-family="Times,serif" font-size="14.00">&#45;4,&#45;4 (Reserved For Aluminium Ore Drop, Aluminium)</text>
</g>
<!-- 4,0 (item=raw&#45;borax item=borax Borax and raw borax)&#45;&gt;&#45;4,&#45;4 (Reserved For Aluminium Ore Drop, Aluminium) -->
<g id="edge10" class="edge">
<title>4,0 (item=raw&#45;borax item=borax Borax and raw borax)&#45;&gt;&#45;4,&#45;4 (Reserved For Aluminium Ore Drop, Aluminium)</title>
<path fill="none" stroke="black" stroke-width="0.16" d="M1202.74,-167.23C1240.69,-246.04 1390.61,-557.36 1436.15,-651.92"/>
<polygon fill="black" stroke="black" stroke-width="0.16" points="1433.09,-653.64 1440.58,-661.13 1439.4,-650.6 1433.09,-653.64"/>
<text text-anchor="middle" x="1277.44" y="-413.38" font-family="Times,serif" font-size="14.00">borax*2040</text>
</g>
<!-- 2,&#45;2 (Tin Plate, Organic Solvent) -->
<g id="node5" class="node">
<title>2,&#45;2 (Tin Plate, Organic Solvent)</title>
<ellipse fill="none" stroke="black" cx="159.89" cy="-385" rx="159.77" ry="18"/>
<text text-anchor="middle" x="159.89" y="-381.3" font-family="Times,serif" font-size="14.00">2,&#45;2 (Tin Plate, Organic Solvent)</text>
</g>
<!-- 4,0 (item=raw&#45;borax item=borax Borax and raw borax)&#45;&gt;2,&#45;2 (Tin Plate, Organic Solvent) -->
<g id="edge3" class="edge">
<title>4,0 (item=raw&#45;borax item=borax Borax and raw borax)&#45;&gt;2,&#45;2 (Tin Plate, Organic Solvent)</title>
<path fill="none" stroke="black" stroke-width="0.48" d="M1117.91,-166.33C928.23,-209.63 435.45,-322.1 240.74,-366.54"/>
<polygon fill="black" stroke="black" stroke-width="0.48" points="239.83,-363.16 230.86,-368.8 241.39,-369.98 239.83,-363.16"/>
<text text-anchor="middle" x="637.33" y="-270.24" font-family="Times,serif" font-size="14.00">borax*6160</text>
</g>
<!-- &#45;1,10 (Iron Plates) -->
<g id="node6" class="node">
<title>&#45;1,10 (Iron Plates)</title>
<ellipse fill="none" stroke="black" cx="159.89" cy="-973.62" rx="94.78" ry="18"/>
<text text-anchor="middle" x="159.89" y="-969.92" font-family="Times,serif" font-size="14.00">&#45;1,10 (Iron Plates)</text>
</g>
<!-- 4,0 (item=raw&#45;borax item=borax Borax and raw borax)&#45;&gt;&#45;1,10 (Iron Plates) -->
<g id="edge8" class="edge">
<title>4,0 (item=raw&#45;borax item=borax Borax and raw borax)&#45;&gt;&#45;1,10 (Iron Plates)</title>
<path fill="none" stroke="black" stroke-width="0.79" d="M1171.39,-166.97C1037.18,-274 344.45,-826.43 190.31,-949.36"/>
<polygon fill="black" stroke="black" stroke-width="0.79" points="187.78,-946.89 182.15,-955.86 192.15,-952.36 187.78,-946.89"/>
<text text-anchor="middle" x="634.35" y="-561.96" font-family="Times,serif" font-size="14.00">borax*10120</text>
</g>
<!-- 3,9 (Copper, molten &amp; plate) -->
<g id="node7" class="node">
<title>3,9 (Copper, molten &amp; plate)</title>
<ellipse fill="none" stroke="black" cx="620.09" cy="-1340.61" rx="143.77" ry="18"/>
<text text-anchor="middle" x="620.09" y="-1336.91" font-family="Times,serif" font-size="14.00">3,9 (Copper, molten &amp; plate)</text>
</g>
<!-- 4,0 (item=raw&#45;borax item=borax Borax and raw borax)&#45;&gt;3,9 (Copper, molten &amp; plate) -->
<g id="edge9" class="edge">
<title>4,0 (item=raw&#45;borax item=borax Borax and raw borax)&#45;&gt;3,9 (Copper, molten &amp; plate)</title>
<path fill="none" stroke="black" stroke-width="0.5" d="M1185.16,-167.22C1120.04,-302.45 712.64,-1148.43 633.42,-1312.92"/>
<polygon fill="black" stroke="black" stroke-width="0.5" points="630.07,-1311.81 628.89,-1322.34 636.38,-1314.85 630.07,-1311.81"/>
<text text-anchor="middle" x="867.29" y="-743.87" font-family="Times,serif" font-size="14.00">borax*6480</text>
</g>
<!-- &#45;2,7 (item=borax Borax) -->
<g id="node3" class="node">
<title>&#45;2,7 (item=borax Borax)</title>
<ellipse fill="none" stroke="black" cx="1193.95" cy="-1209.63" rx="123.48" ry="18"/>
<text text-anchor="middle" x="1193.95" y="-1205.93" font-family="Times,serif" font-size="14.00">&#45;2,7 (item=borax Borax)</text>
</g>
<!-- &#45;2,7 (item=borax Borax)&#45;&gt;&#45;2,9 (molten steel) -->
<g id="edge5" class="edge">
<title>&#45;2,7 (item=borax Borax)&#45;&gt;&#45;2,9 (molten steel)</title>
<path fill="none" stroke="black" stroke-width="1.12" d="M1185.16,-1191.39C1120.04,-1056.16 712.64,-210.19 633.42,-45.7"/>
<polygon fill="black" stroke="black" stroke-width="1.12" points="636.38,-43.76 628.89,-36.27 630.07,-46.8 636.38,-43.76"/>
<text text-anchor="middle" x="862.79" y="-622.34" font-family="Times,serif" font-size="14.00">borax*14440</text>
</g>
<!-- &#45;2,7 (item=borax Borax)&#45;&gt;&#45;4,&#45;4 (Reserved For Aluminium Ore Drop, Aluminium) -->
<g id="edge2" class="edge">
<title>&#45;2,7 (item=borax Borax)&#45;&gt;&#45;4,&#45;4 (Reserved For Aluminium Ore Drop, Aluminium)</title>
<path fill="none" stroke="black" stroke-width="1.03" d="M1202.74,-1191.38C1240.69,-1112.57 1390.61,-801.25 1436.15,-706.69"/>
<polygon fill="black" stroke="black" stroke-width="1.03" points="1439.4,-708.01 1440.58,-697.48 1433.09,-704.98 1439.4,-708.01"/>
<text text-anchor="middle" x="1272.94" y="-952.83" font-family="Times,serif" font-size="14.00">borax*13320</text>
</g>
<!-- &#45;2,7 (item=borax Borax)&#45;&gt;2,&#45;2 (Tin Plate, Organic Solvent) -->
<g id="edge7" class="edge">
<title>&#45;2,7 (item=borax Borax)&#45;&gt;2,&#45;2 (Tin Plate, Organic Solvent)</title>
<path fill="none" stroke="black" stroke-width="0.8" d="M1171.39,-1191.64C1037.32,-1084.73 345.94,-533.37 190.81,-409.66"/>
<polygon fill="black" stroke="black" stroke-width="0.8" points="192.59,-406.6 182.59,-403.1 188.23,-412.08 192.59,-406.6"/>
<text text-anchor="middle" x="634.6" y="-804.45" font-family="Times,serif" font-size="14.00">borax*10280</text>
</g>
<!-- &#45;2,7 (item=borax Borax)&#45;&gt;&#45;1,10 (Iron Plates) -->
<g id="edge4" class="edge">
<title>&#45;2,7 (item=borax Borax)&#45;&gt;&#45;1,10 (Iron Plates)</title>
<path fill="none" stroke="black" stroke-width="1.19" d="M1127.29,-1194.42C941.79,-1152.08 420.69,-1033.14 230.5,-989.73"/>
<polygon fill="black" stroke="black" stroke-width="1.19" points="231.14,-986.29 220.61,-987.48 229.58,-993.11 231.14,-986.29"/>
<text text-anchor="middle" x="632.4" y="-1095.88" font-family="Times,serif" font-size="14.00">borax*15320</text>
</g>
<!-- &#45;2,7 (item=borax Borax)&#45;&gt;3,9 (Copper, molten &amp; plate) -->
<g id="edge6" class="edge">
<title>&#45;2,7 (item=borax Borax)&#45;&gt;3,9 (Copper, molten &amp; plate)</title>
<path fill="none" stroke="black" stroke-width="3.29" d="M1127.28,-1224.85C1020.91,-1249.13 813.25,-1296.52 699.41,-1322.51"/>
<polygon fill="black" stroke="black" stroke-width="3.29" points="698.34,-1319.16 689.37,-1324.8 699.89,-1325.99 698.34,-1319.16"/>
<text text-anchor="middle" x="866.84" y="-1277.48" font-family="Times,serif" font-size="14.00">borax*42400</text>
</g>
</g>
</svg>
