<?xml version="1.0" encoding="UTF-8" standalone="no"?>
<!DOCTYPE svg PUBLIC "-//W3C//DTD SVG 1.1//EN"
 "http://www.w3.org/Graphics/SVG/1.1/DTD/svg11.dtd">
<!-- Generated by graphviz version 2.43.0 (0)
 -->
<!-- Title: %3 Pages: 1 -->
<svg width="1042pt" height="722pt"
 viewBox="0.00 0.00 1042.34 721.70" xmlns="http://www.w3.org/2000/svg" xmlns:xlink="http://www.w3.org/1999/xlink">
<g id="graph0" class="graph" transform="scale(1 1) rotate(0) translate(4 717.7)">
<title>%3</title>
<polygon fill="white" stroke="transparent" points="-4,4 -4,-717.7 1038.34,-717.7 1038.34,4 -4,4"/>
<!-- &#45;3,4 (Lard from Cottonguts) -->
<g id="node1" class="node">
<title>&#45;3,4 (Lard from Cottonguts)</title>
<ellipse fill="none" stroke="black" cx="424.19" cy="-332.25" rx="139.18" ry="18"/>
<text text-anchor="middle" x="424.19" y="-328.55" font-family="Times,serif" font-size="14.00">&#45;3,4 (Lard from Cottonguts)</text>
</g>
<!-- 4,6 (Circuit substrate and Doped silicon) -->
<g id="node2" class="node">
<title>4,6 (Circuit substrate and Doped silicon)</title>
<ellipse fill="none" stroke="black" cx="834.81" cy="-332.25" rx="199.56" ry="18"/>
<text text-anchor="middle" x="834.81" y="-328.55" font-family="Times,serif" font-size="14.00">4,6 (Circuit substrate and Doped silicon)</text>
</g>
<!-- &#45;3,4 (Lard from Cottonguts)&#45;&gt;4,6 (Circuit substrate and Doped silicon) -->
<g id="edge1" class="edge">
<title>&#45;3,4 (Lard from Cottonguts)&#45;&gt;4,6 (Circuit substrate and Doped silicon)</title>
<path fill="none" stroke="black" stroke-width="0.53" d="M563.5,-332.25C583.28,-332.25 603.99,-332.25 624.75,-332.25"/>
<polygon fill="black" stroke="black" stroke-width="0.53" points="624.95,-335.75 634.95,-332.25 624.95,-328.75 624.95,-335.75"/>
<text text-anchor="middle" x="594.13" y="-321.05" font-family="Times,serif" font-size="14.00">mukmoux&#45;fat*14352</text>
</g>
<!-- 0,0 (LE BUS) -->
<g id="node3" class="node">
<title>0,0 (LE BUS)</title>
<ellipse fill="none" stroke="black" cx="233.11" cy="-695.7" rx="71.49" ry="18"/>
<text text-anchor="middle" x="233.11" y="-692" font-family="Times,serif" font-size="14.00">0,0 (LE BUS)</text>
</g>
<!-- &#45;3,4 (Lard from Cottonguts)&#45;&gt;0,0 (LE BUS) -->
<g id="edge2" class="edge">
<title>&#45;3,4 (Lard from Cottonguts)&#45;&gt;0,0 (LE BUS)</title>
<path fill="none" stroke="black" stroke-width="1.18" d="M414.72,-350.27C383.65,-409.37 284.72,-597.54 247.48,-668.37"/>
<polygon fill="black" stroke="black" stroke-width="1.18" points="244.2,-667.09 242.64,-677.57 250.4,-670.34 244.2,-667.09"/>
<text text-anchor="middle" x="258.6" y="-513.12" font-family="Times,serif" font-size="14.00">mukmoux&#45;fat*32144</text>
</g>
<!-- 2,&#45;2 (Tin Plate, Organic Solvent) -->
<g id="node4" class="node">
<title>2,&#45;2 (Tin Plate, Organic Solvent)</title>
<ellipse fill="none" stroke="black" cx="159.89" cy="-18" rx="159.77" ry="18"/>
<text text-anchor="middle" x="159.89" y="-14.3" font-family="Times,serif" font-size="14.00">2,&#45;2 (Tin Plate, Organic Solvent)</text>
</g>
<!-- &#45;3,4 (Lard from Cottonguts)&#45;&gt;2,&#45;2 (Tin Plate, Organic Solvent) -->
<g id="edge3" class="edge">
<title>&#45;3,4 (Lard from Cottonguts)&#45;&gt;2,&#45;2 (Tin Plate, Organic Solvent)</title>
<path fill="none" stroke="black" stroke-width="1.29" d="M408.84,-313.99C364.13,-260.84 233.92,-106.02 181.81,-44.07"/>
<polygon fill="black" stroke="black" stroke-width="1.29" points="184.4,-41.7 175.28,-36.3 179.04,-46.21 184.4,-41.7"/>
<text text-anchor="middle" x="222.83" y="-182.83" font-family="Times,serif" font-size="14.00">mukmoux&#45;fat*35056</text>
</g>
</g>
</svg>
