<?xml version="1.0" encoding="UTF-8" standalone="no"?>
<!DOCTYPE svg PUBLIC "-//W3C//DTD SVG 1.1//EN"
 "http://www.w3.org/Graphics/SVG/1.1/DTD/svg11.dtd">
<!-- Generated by graphviz version 2.43.0 (0)
 -->
<!-- Title: %3 Pages: 1 -->
<svg width="3250pt" height="3015pt"
 viewBox="0.00 0.00 3250.44 3014.98" xmlns="http://www.w3.org/2000/svg" xmlns:xlink="http://www.w3.org/1999/xlink">
<g id="graph0" class="graph" transform="scale(1 1) rotate(0) translate(4 3010.98)">
<title>%3</title>
<polygon fill="white" stroke="transparent" points="-4,4 -4,-3010.98 3246.44,-3010.98 3246.44,4 -4,4"/>
<!-- &#45;2,4 (fluid=drilling&#45;fluid&#45;0 Drilling fluid 1, Biomass) -->
<g id="node1" class="node">
<title>&#45;2,4 (fluid=drilling&#45;fluid&#45;0 Drilling fluid 1, Biomass)</title>
<ellipse fill="none" stroke="black" cx="2933.9" cy="-808.08" rx="248.86" ry="18"/>
<text text-anchor="middle" x="2933.9" y="-804.38" font-family="Times,serif" font-size="14.00">&#45;2,4 (fluid=drilling&#45;fluid&#45;0 Drilling fluid 1, Biomass)</text>
</g>
<!-- &#45;1,6 (Flimble&#39;s Slaughterhouse and Daycare Centre, Auog Products) -->
<g id="node2" class="node">
<title>&#45;1,6 (Flimble&#39;s Slaughterhouse and Daycare Centre, Auog Products)</title>
<ellipse fill="none" stroke="black" cx="488.83" cy="-2495.78" rx="325.74" ry="18"/>
<text text-anchor="middle" x="488.83" y="-2492.08" font-family="Times,serif" font-size="14.00">&#45;1,6 (Flimble&#39;s Slaughterhouse and Daycare Centre, Auog Products)</text>
</g>
<!-- &#45;2,4 (fluid=drilling&#45;fluid&#45;0 Drilling fluid 1, Biomass)&#45;&gt;&#45;1,6 (Flimble&#39;s Slaughterhouse and Daycare Centre, Auog Products) -->
<g id="edge1" class="edge">
<title>&#45;2,4 (fluid=drilling&#45;fluid&#45;0 Drilling fluid 1, Biomass)&#45;&gt;&#45;1,6 (Flimble&#39;s Slaughterhouse and Daycare Centre, Auog Products)</title>
<path fill="none" stroke="black" stroke-width="2.26" d="M2907.68,-826.17C2664.27,-994.19 801.49,-2279.97 523.49,-2471.86"/>
<polygon fill="black" stroke="black" stroke-width="2.26" points="521.24,-2469.16 515,-2477.72 525.22,-2474.92 521.24,-2469.16"/>
<text text-anchor="middle" x="1660.09" y="-1652.82" font-family="Times,serif" font-size="14.00">biomass*71520</text>
</g>
<!-- 7,&#45;2 (item=guts Auog guts) -->
<g id="node4" class="node">
<title>7,&#45;2 (item=guts Auog guts)</title>
<ellipse fill="none" stroke="black" cx="3105.3" cy="-1503.49" rx="137.28" ry="18"/>
<text text-anchor="middle" x="3105.3" y="-1499.79" font-family="Times,serif" font-size="14.00">7,&#45;2 (item=guts Auog guts)</text>
</g>
<!-- &#45;2,4 (fluid=drilling&#45;fluid&#45;0 Drilling fluid 1, Biomass)&#45;&gt;7,&#45;2 (item=guts Auog guts) -->
<g id="edge9" class="edge">
<title>&#45;2,4 (fluid=drilling&#45;fluid&#45;0 Drilling fluid 1, Biomass)&#45;&gt;7,&#45;2 (item=guts Auog guts)</title>
<path fill="none" stroke="black" stroke-width="1.28" d="M2938.39,-826.32C2961.83,-921.39 3069.97,-1360.14 3098.42,-1475.59"/>
<polygon fill="black" stroke="black" stroke-width="1.28" points="3095.06,-1476.56 3100.85,-1485.44 3101.86,-1474.89 3095.06,-1476.56"/>
<text text-anchor="middle" x="2962.91" y="-1154.75" font-family="Times,serif" font-size="14.00">biomass*40560</text>
</g>
<!-- &#45;3,8 (Urea) -->
<g id="node5" class="node">
<title>&#45;3,8 (Urea)</title>
<ellipse fill="none" stroke="black" cx="155.99" cy="-1145.38" rx="61.19" ry="18"/>
<text text-anchor="middle" x="155.99" y="-1141.68" font-family="Times,serif" font-size="14.00">&#45;3,8 (Urea)</text>
</g>
<!-- &#45;2,4 (fluid=drilling&#45;fluid&#45;0 Drilling fluid 1, Biomass)&#45;&gt;&#45;3,8 (Urea) -->
<g id="edge3" class="edge">
<title>&#45;2,4 (fluid=drilling&#45;fluid&#45;0 Drilling fluid 1, Biomass)&#45;&gt;&#45;3,8 (Urea)</title>
<path fill="none" stroke="black" stroke-width="1.4" d="M2806.4,-823.56C2319.28,-882.71 584.85,-1093.3 222.6,-1137.29"/>
<polygon fill="black" stroke="black" stroke-width="1.4" points="222.04,-1133.83 212.54,-1138.51 222.89,-1140.78 222.04,-1133.83"/>
<text text-anchor="middle" x="1459" y="-984.22" font-family="Times,serif" font-size="14.00">biomass*44160</text>
</g>
<!-- &#45;7,&#45;4 (Isomer&#39;s Slaughterhouse and Daycare Centre, Bone Meal) -->
<g id="node6" class="node">
<title>&#45;7,&#45;4 (Isomer&#39;s Slaughterhouse and Daycare Centre, Bone Meal)</title>
<ellipse fill="none" stroke="black" cx="1078.27" cy="-2902.64" rx="307.35" ry="18"/>
<text text-anchor="middle" x="1078.27" y="-2898.94" font-family="Times,serif" font-size="14.00">&#45;7,&#45;4 (Isomer&#39;s Slaughterhouse and Daycare Centre, Bone Meal)</text>
</g>
<!-- &#45;2,4 (fluid=drilling&#45;fluid&#45;0 Drilling fluid 1, Biomass)&#45;&gt;&#45;7,&#45;4 (Isomer&#39;s Slaughterhouse and Daycare Centre, Bone Meal) -->
<g id="edge10" class="edge">
<title>&#45;2,4 (fluid=drilling&#45;fluid&#45;0 Drilling fluid 1, Biomass)&#45;&gt;&#45;7,&#45;4 (Isomer&#39;s Slaughterhouse and Daycare Centre, Bone Meal)</title>
<path fill="none" stroke="black" stroke-width="0.69" d="M2917.86,-826.18C2749.11,-1016.66 1301.95,-2650.16 1101.31,-2876.63"/>
<polygon fill="black" stroke="black" stroke-width="0.69" points="1098.46,-2874.57 1094.45,-2884.38 1103.7,-2879.22 1098.46,-2874.57"/>
<text text-anchor="middle" x="1954.08" y="-1855.21" font-family="Times,serif" font-size="14.00">biomass*21800</text>
</g>
<!-- &#45;4,2 (This line not currently using manure, Ralesia seeds) -->
<g id="node7" class="node">
<title>&#45;4,2 (This line not currently using manure, Ralesia seeds)</title>
<ellipse fill="none" stroke="black" cx="1789.27" cy="-2988.98" rx="276.75" ry="18"/>
<text text-anchor="middle" x="1789.27" y="-2985.28" font-family="Times,serif" font-size="14.00">&#45;4,2 (This line not currently using manure, Ralesia seeds)</text>
</g>
<!-- &#45;2,4 (fluid=drilling&#45;fluid&#45;0 Drilling fluid 1, Biomass)&#45;&gt;&#45;4,2 (This line not currently using manure, Ralesia seeds) -->
<g id="edge5" class="edge">
<title>&#45;2,4 (fluid=drilling&#45;fluid&#45;0 Drilling fluid 1, Biomass)&#45;&gt;&#45;4,2 (This line not currently using manure, Ralesia seeds)</title>
<path fill="none" stroke="black" stroke-width="0.45" d="M2924.35,-826.28C2821.9,-1021.47 1927.4,-2725.8 1803.49,-2961.89"/>
<polygon fill="black" stroke="black" stroke-width="0.45" points="1800.33,-2960.37 1798.79,-2970.85 1806.53,-2963.62 1800.33,-2960.37"/>
<text text-anchor="middle" x="2308.42" y="-1897.88" font-family="Times,serif" font-size="14.00">biomass*14360</text>
</g>
<!-- &#45;6,&#45;2 (item=fertilizer Fertiliser) -->
<g id="node9" class="node">
<title>&#45;6,&#45;2 (item=fertilizer Fertiliser)</title>
<ellipse fill="none" stroke="black" cx="2458.95" cy="-271.98" rx="155.97" ry="18"/>
<text text-anchor="middle" x="2458.95" y="-268.28" font-family="Times,serif" font-size="14.00">&#45;6,&#45;2 (item=fertilizer Fertiliser)</text>
</g>
<!-- &#45;2,4 (fluid=drilling&#45;fluid&#45;0 Drilling fluid 1, Biomass)&#45;&gt;&#45;6,&#45;2 (item=fertilizer Fertiliser) -->
<g id="edge7" class="edge">
<title>&#45;2,4 (fluid=drilling&#45;fluid&#45;0 Drilling fluid 1, Biomass)&#45;&gt;&#45;6,&#45;2 (item=fertilizer Fertiliser)</title>
<path fill="none" stroke="black" stroke-width="0.32" d="M2917.82,-789.93C2847.21,-710.22 2564.36,-390.95 2481.73,-297.68"/>
<polygon fill="black" stroke="black" stroke-width="0.32" points="2484.27,-295.28 2475.02,-290.12 2479.04,-299.92 2484.27,-295.28"/>
<text text-anchor="middle" x="2644.28" y="-547.61" font-family="Times,serif" font-size="14.00">biomass*10000</text>
</g>
<!-- &#45;5,5 (fluid=flue&#45;gas Flue gas) -->
<g id="node10" class="node">
<title>&#45;5,5 (fluid=flue&#45;gas Flue gas)</title>
<ellipse fill="none" stroke="black" cx="1789.27" cy="-18" rx="145.67" ry="18"/>
<text text-anchor="middle" x="1789.27" y="-14.3" font-family="Times,serif" font-size="14.00">&#45;5,5 (fluid=flue&#45;gas Flue gas)</text>
</g>
<!-- &#45;2,4 (fluid=drilling&#45;fluid&#45;0 Drilling fluid 1, Biomass)&#45;&gt;&#45;5,5 (fluid=flue&#45;gas Flue gas) -->
<g id="edge23" class="edge">
<title>&#45;2,4 (fluid=drilling&#45;fluid&#45;0 Drilling fluid 1, Biomass)&#45;&gt;&#45;5,5 (fluid=flue&#45;gas Flue gas)</title>
<path fill="none" stroke="black" stroke-width="7.73" d="M2907.84,-790.09C2756.81,-685.84 1994.59,-159.72 1823.43,-41.57"/>
<polygon fill="black" stroke="black" stroke-width="7.73" points="1827.11,-35.9 1815.04,-35.79 1819.43,-47.04 1827.11,-35.9"/>
<text text-anchor="middle" x="2305.63" y="-419.63" font-family="Times,serif" font-size="14.00">biomass*244400</text>
</g>
<!-- 0,10 (item=meat Meat) -->
<g id="node11" class="node">
<title>0,10 (item=meat Meat)</title>
<ellipse fill="none" stroke="black" cx="1078.27" cy="-104.33" rx="120.48" ry="18"/>
<text text-anchor="middle" x="1078.27" y="-100.63" font-family="Times,serif" font-size="14.00">0,10 (item=meat Meat)</text>
</g>
<!-- &#45;2,4 (fluid=drilling&#45;fluid&#45;0 Drilling fluid 1, Biomass)&#45;&gt;0,10 (item=meat Meat) -->
<g id="edge14" class="edge">
<title>&#45;2,4 (fluid=drilling&#45;fluid&#45;0 Drilling fluid 1, Biomass)&#45;&gt;0,10 (item=meat Meat)</title>
<path fill="none" stroke="black" stroke-width="0.32" d="M2887.1,-790.33C2631.41,-693.36 1404.92,-228.21 1132.12,-124.75"/>
<polygon fill="black" stroke="black" stroke-width="0.32" points="1133.04,-121.36 1122.45,-121.08 1130.55,-127.9 1133.04,-121.36"/>
<text text-anchor="middle" x="1954.11" y="-461.34" font-family="Times,serif" font-size="14.00">biomass*10200</text>
</g>
<!-- 4,6 (Circuit substrate and Doped silicon) -->
<g id="node12" class="node">
<title>4,6 (Circuit substrate and Doped silicon)</title>
<ellipse fill="none" stroke="black" cx="488.83" cy="-511.19" rx="199.56" ry="18"/>
<text text-anchor="middle" x="488.83" y="-507.49" font-family="Times,serif" font-size="14.00">4,6 (Circuit substrate and Doped silicon)</text>
</g>
<!-- &#45;2,4 (fluid=drilling&#45;fluid&#45;0 Drilling fluid 1, Biomass)&#45;&gt;4,6 (Circuit substrate and Doped silicon) -->
<g id="edge17" class="edge">
<title>&#45;2,4 (fluid=drilling&#45;fluid&#45;0 Drilling fluid 1, Biomass)&#45;&gt;4,6 (Circuit substrate and Doped silicon)</title>
<path fill="none" stroke="black" stroke-width="0.32" d="M2806.31,-792.59C2385.14,-741.45 1041.92,-578.35 618.19,-526.9"/>
<polygon fill="black" stroke="black" stroke-width="0.32" points="618.39,-523.4 608.04,-525.67 617.55,-530.35 618.39,-523.4"/>
<text text-anchor="middle" x="1656.75" y="-663.54" font-family="Times,serif" font-size="14.00">biomass*10000</text>
</g>
<!-- 0,9 (Auog Brains) -->
<g id="node13" class="node">
<title>0,9 (Auog Brains)</title>
<ellipse fill="none" stroke="black" cx="2458.95" cy="-2735" rx="91.78" ry="18"/>
<text text-anchor="middle" x="2458.95" y="-2731.3" font-family="Times,serif" font-size="14.00">0,9 (Auog Brains)</text>
</g>
<!-- &#45;2,4 (fluid=drilling&#45;fluid&#45;0 Drilling fluid 1, Biomass)&#45;&gt;0,9 (Auog Brains) -->
<g id="edge18" class="edge">
<title>&#45;2,4 (fluid=drilling&#45;fluid&#45;0 Drilling fluid 1, Biomass)&#45;&gt;0,9 (Auog Brains)</title>
<path fill="none" stroke="black" stroke-width="0.54" d="M2929.42,-826.23C2884.83,-1007.14 2520.72,-2484.39 2465.86,-2706.96"/>
<polygon fill="black" stroke="black" stroke-width="0.54" points="2462.41,-2706.33 2463.42,-2716.88 2469.21,-2708.01 2462.41,-2706.33"/>
<text text-anchor="middle" x="2642.14" y="-1770.39" font-family="Times,serif" font-size="14.00">biomass*17160</text>
</g>
<!-- &#45;5,&#45;3 (Biomass (from Seaweed)) -->
<g id="node3" class="node">
<title>&#45;5,&#45;3 (Biomass (from Seaweed))</title>
<ellipse fill="none" stroke="black" cx="155.99" cy="-1861.6" rx="155.97" ry="18"/>
<text text-anchor="middle" x="155.99" y="-1857.9" font-family="Times,serif" font-size="14.00">&#45;5,&#45;3 (Biomass (from Seaweed))</text>
</g>
<!-- &#45;5,&#45;3 (Biomass (from Seaweed))&#45;&gt;&#45;1,6 (Flimble&#39;s Slaughterhouse and Daycare Centre, Auog Products) -->
<g id="edge15" class="edge">
<title>&#45;5,&#45;3 (Biomass (from Seaweed))&#45;&gt;&#45;1,6 (Flimble&#39;s Slaughterhouse and Daycare Centre, Auog Products)</title>
<path fill="none" stroke="black" stroke-width="1.8" d="M165.59,-1879.9C212.61,-1969.49 418.61,-2361.98 474.69,-2468.84"/>
<polygon fill="black" stroke="black" stroke-width="1.8" points="471.6,-2470.49 479.35,-2477.72 477.8,-2467.24 471.6,-2470.49"/>
<text text-anchor="middle" x="264.64" y="-2178.17" font-family="Times,serif" font-size="14.00">biomass*56920</text>
</g>
<!-- &#45;5,&#45;3 (Biomass (from Seaweed))&#45;&gt;7,&#45;2 (item=guts Auog guts) -->
<g id="edge2" class="edge">
<title>&#45;5,&#45;3 (Biomass (from Seaweed))&#45;&gt;7,&#45;2 (item=guts Auog guts)</title>
<path fill="none" stroke="black" stroke-width="1.78" d="M263.57,-1848.54C724.17,-1792.61 2527.6,-1573.63 2994.46,-1516.95"/>
<polygon fill="black" stroke="black" stroke-width="1.78" points="2995.07,-1520.4 3004.57,-1515.72 2994.22,-1513.45 2995.07,-1520.4"/>
<text text-anchor="middle" x="1573.52" y="-1686.54" font-family="Times,serif" font-size="14.00">biomass*56200</text>
</g>
<!-- &#45;5,&#45;3 (Biomass (from Seaweed))&#45;&gt;&#45;3,8 (Urea) -->
<g id="edge13" class="edge">
<title>&#45;5,&#45;3 (Biomass (from Seaweed))&#45;&gt;&#45;3,8 (Urea)</title>
<path fill="none" stroke="black" stroke-width="1.04" d="M155.99,-1843.54C155.99,-1746.97 155.99,-1291.63 155.99,-1173.45"/>
<polygon fill="black" stroke="black" stroke-width="1.04" points="159.49,-1173.39 155.99,-1163.39 152.49,-1173.39 159.49,-1173.39"/>
<text text-anchor="middle" x="100.49" y="-1512.29" font-family="Times,serif" font-size="14.00">biomass*32760</text>
</g>
<!-- &#45;5,&#45;3 (Biomass (from Seaweed))&#45;&gt;&#45;7,&#45;4 (Isomer&#39;s Slaughterhouse and Daycare Centre, Bone Meal) -->
<g id="edge4" class="edge">
<title>&#45;5,&#45;3 (Biomass (from Seaweed))&#45;&gt;&#45;7,&#45;4 (Isomer&#39;s Slaughterhouse and Daycare Centre, Bone Meal)</title>
<path fill="none" stroke="black" stroke-width="1.24" d="M171.99,-1879.67C281.98,-2003.82 925.34,-2730.02 1055.37,-2876.79"/>
<polygon fill="black" stroke="black" stroke-width="1.24" points="1052.93,-2879.32 1062.18,-2884.49 1058.17,-2874.68 1052.93,-2879.32"/>
<text text-anchor="middle" x="558.18" y="-2382.03" font-family="Times,serif" font-size="14.00">biomass*39240</text>
</g>
<!-- &#45;5,&#45;3 (Biomass (from Seaweed))&#45;&gt;&#45;4,2 (This line not currently using manure, Ralesia seeds) -->
<g id="edge8" class="edge">
<title>&#45;5,&#45;3 (Biomass (from Seaweed))&#45;&gt;&#45;4,2 (This line not currently using manure, Ralesia seeds)</title>
<path fill="none" stroke="black" stroke-width="0.47" d="M181.97,-1879.54C371.35,-2010.25 1537.87,-2815.45 1754.63,-2965.06"/>
<polygon fill="black" stroke="black" stroke-width="0.47" points="1752.87,-2968.1 1763.09,-2970.9 1756.85,-2962.34 1752.87,-2968.1"/>
<text text-anchor="middle" x="912.8" y="-2426.1" font-family="Times,serif" font-size="14.00">biomass*14920</text>
</g>
<!-- &#45;5,&#45;3 (Biomass (from Seaweed))&#45;&gt;&#45;6,&#45;2 (item=fertilizer Fertiliser) -->
<g id="edge22" class="edge">
<title>&#45;5,&#45;3 (Biomass (from Seaweed))&#45;&gt;&#45;6,&#45;2 (item=fertilizer Fertiliser)</title>
<path fill="none" stroke="black" stroke-width="0.19" d="M181.85,-1843.75C415.28,-1682.62 2156.33,-480.86 2424.36,-295.86"/>
<polygon fill="black" stroke="black" stroke-width="0.19" points="2426.67,-298.51 2432.92,-289.95 2422.7,-292.75 2426.67,-298.51"/>
<text text-anchor="middle" x="1252.1" y="-1073.6" font-family="Times,serif" font-size="14.00">biomass*6000</text>
</g>
<!-- &#45;5,&#45;3 (Biomass (from Seaweed))&#45;&gt;&#45;5,5 (fluid=flue&#45;gas Flue gas) -->
<g id="edge11" class="edge">
<title>&#45;5,&#45;3 (Biomass (from Seaweed))&#45;&gt;&#45;5,5 (fluid=flue&#45;gas Flue gas)</title>
<path fill="none" stroke="black" stroke-width="1.95" d="M171.89,-1843.65C327.75,-1667.71 1580.81,-253.3 1766.35,-43.88"/>
<polygon fill="black" stroke="black" stroke-width="1.95" points="1769.2,-45.94 1773.21,-36.13 1763.96,-41.3 1769.2,-45.94"/>
<text text-anchor="middle" x="913.62" y="-947.56" font-family="Times,serif" font-size="14.00">biomass*61760</text>
</g>
<!-- &#45;5,&#45;3 (Biomass (from Seaweed))&#45;&gt;0,10 (item=meat Meat) -->
<g id="edge26" class="edge">
<title>&#45;5,&#45;3 (Biomass (from Seaweed))&#45;&gt;0,10 (item=meat Meat)</title>
<path fill="none" stroke="black" stroke-width="0.06" d="M165.57,-1843.35C255.8,-1671.43 955.35,-338.53 1064.09,-131.36"/>
<polygon fill="black" stroke="black" stroke-width="0.06" points="1067.27,-132.83 1068.81,-122.35 1061.07,-129.58 1067.27,-132.83"/>
<text text-anchor="middle" x="563.83" y="-991.15" font-family="Times,serif" font-size="14.00">biomass*2040</text>
</g>
<!-- &#45;5,&#45;3 (Biomass (from Seaweed))&#45;&gt;4,6 (Circuit substrate and Doped silicon) -->
<g id="edge25" class="edge">
<title>&#45;5,&#45;3 (Biomass (from Seaweed))&#45;&gt;4,6 (Circuit substrate and Doped silicon)</title>
<path fill="none" stroke="black" stroke-width="0.32" d="M160.44,-1843.53C196.31,-1697.99 437.89,-717.85 481.95,-539.13"/>
<polygon fill="black" stroke="black" stroke-width="0.32" points="485.4,-539.74 484.39,-529.2 478.6,-538.07 485.4,-539.74"/>
<text text-anchor="middle" x="265.69" y="-1195.13" font-family="Times,serif" font-size="14.00">biomass*10000</text>
</g>
<!-- &#45;5,&#45;3 (Biomass (from Seaweed))&#45;&gt;0,9 (Auog Brains) -->
<g id="edge20" class="edge">
<title>&#45;5,&#45;3 (Biomass (from Seaweed))&#45;&gt;0,9 (Auog Brains)</title>
<path fill="none" stroke="black" stroke-width="0.41" d="M201.47,-1878.85C492.95,-1989.39 2096.38,-2597.5 2406.88,-2715.25"/>
<polygon fill="black" stroke="black" stroke-width="0.41" points="2405.94,-2718.64 2416.53,-2718.91 2408.42,-2712.09 2405.94,-2718.64"/>
<text text-anchor="middle" x="1248.67" y="-2300.85" font-family="Times,serif" font-size="14.00">biomass*12920</text>
</g>
<!-- 5,&#45;1 (Drilling Fluid Type 2, I think my maths is backwards) -->
<g id="node8" class="node">
<title>5,&#45;1 (Drilling Fluid Type 2, I think my maths is backwards)</title>
<ellipse fill="none" stroke="black" cx="2933.9" cy="-2198.9" rx="282.15" ry="18"/>
<text text-anchor="middle" x="2933.9" y="-2195.2" font-family="Times,serif" font-size="14.00">5,&#45;1 (Drilling Fluid Type 2, I think my maths is backwards)</text>
</g>
<!-- 5,&#45;1 (Drilling Fluid Type 2, I think my maths is backwards)&#45;&gt;&#45;1,6 (Flimble&#39;s Slaughterhouse and Daycare Centre, Auog Products) -->
<g id="edge21" class="edge">
<title>5,&#45;1 (Drilling Fluid Type 2, I think my maths is backwards)&#45;&gt;&#45;1,6 (Flimble&#39;s Slaughterhouse and Daycare Centre, Auog Products)</title>
<path fill="none" stroke="black" stroke-width="0.27" d="M2802.44,-2214.86C2382.2,-2265.89 1073.29,-2424.82 634.15,-2478.14"/>
<polygon fill="black" stroke="black" stroke-width="0.27" points="633.44,-2474.7 623.94,-2479.38 634.29,-2481.65 633.44,-2474.7"/>
<text text-anchor="middle" x="1667.29" y="-2350.3" font-family="Times,serif" font-size="14.00">biomass*8576</text>
</g>
<!-- 5,&#45;1 (Drilling Fluid Type 2, I think my maths is backwards)&#45;&gt;7,&#45;2 (item=guts Auog guts) -->
<g id="edge12" class="edge">
<title>5,&#45;1 (Drilling Fluid Type 2, I think my maths is backwards)&#45;&gt;7,&#45;2 (item=guts Auog guts)</title>
<path fill="none" stroke="black" stroke-width="0.21" d="M2938.39,-2180.66C2961.83,-2085.58 3069.97,-1646.83 3098.42,-1531.39"/>
<polygon fill="black" stroke="black" stroke-width="0.21" points="3101.86,-1532.09 3100.85,-1521.54 3095.06,-1530.41 3101.86,-1532.09"/>
<text text-anchor="middle" x="2967.41" y="-1859.82" font-family="Times,serif" font-size="14.00">biomass*6512</text>
</g>
<!-- 5,&#45;1 (Drilling Fluid Type 2, I think my maths is backwards)&#45;&gt;&#45;3,8 (Urea) -->
<g id="edge16" class="edge">
<title>5,&#45;1 (Drilling Fluid Type 2, I think my maths is backwards)&#45;&gt;&#45;3,8 (Urea)</title>
<path fill="none" stroke="black" stroke-width="0.4" d="M2886.85,-2181.06C2552.38,-2054.21 538.2,-1290.33 203.2,-1163.28"/>
<polygon fill="black" stroke="black" stroke-width="0.4" points="204.37,-1159.98 193.78,-1159.71 201.89,-1166.53 204.37,-1159.98"/>
<text text-anchor="middle" x="1489.52" y="-1660.97" font-family="Times,serif" font-size="14.00">biomass*12688</text>
</g>
<!-- 5,&#45;1 (Drilling Fluid Type 2, I think my maths is backwards)&#45;&gt;&#45;7,&#45;4 (Isomer&#39;s Slaughterhouse and Daycare Centre, Bone Meal) -->
<g id="edge6" class="edge">
<title>5,&#45;1 (Drilling Fluid Type 2, I think my maths is backwards)&#45;&gt;&#45;7,&#45;4 (Isomer&#39;s Slaughterhouse and Daycare Centre, Bone Meal)</title>
<path fill="none" stroke="black" stroke-width="0.4" d="M2886.63,-2216.82C2630.76,-2313.87 1412.69,-2775.82 1134.8,-2881.21"/>
<polygon fill="black" stroke="black" stroke-width="0.4" points="1133.43,-2877.98 1125.32,-2884.8 1135.91,-2884.53 1133.43,-2877.98"/>
<text text-anchor="middle" x="1955.22" y="-2552.82" font-family="Times,serif" font-size="14.00">biomass*12720</text>
</g>
<!-- 5,&#45;1 (Drilling Fluid Type 2, I think my maths is backwards)&#45;&gt;&#45;4,2 (This line not currently using manure, Ralesia seeds) -->
<g id="edge19" class="edge">
<title>5,&#45;1 (Drilling Fluid Type 2, I think my maths is backwards)&#45;&gt;&#45;4,2 (This line not currently using manure, Ralesia seeds)</title>
<path fill="none" stroke="black" stroke-width="0.07" d="M2907.84,-2216.89C2756.89,-2321.08 1995.42,-2846.69 1823.71,-2965.21"/>
<polygon fill="black" stroke="black" stroke-width="0.07" points="1821.53,-2962.46 1815.29,-2971.02 1825.51,-2968.22 1821.53,-2962.46"/>
<text text-anchor="middle" x="2314.77" y="-2594.85" font-family="Times,serif" font-size="14.00">biomass*2176</text>
</g>
<!-- 5,&#45;1 (Drilling Fluid Type 2, I think my maths is backwards)&#45;&gt;0,9 (Auog Brains) -->
<g id="edge24" class="edge">
<title>5,&#45;1 (Drilling Fluid Type 2, I think my maths is backwards)&#45;&gt;0,9 (Auog Brains)</title>
<path fill="none" stroke="black" stroke-width="0.07" d="M2917.82,-2217.04C2847.13,-2296.84 2563.73,-2616.74 2481.45,-2709.6"/>
<polygon fill="black" stroke="black" stroke-width="0.07" points="2478.79,-2707.33 2474.78,-2717.13 2484.03,-2711.97 2478.79,-2707.33"/>
<text text-anchor="middle" x="2648.64" y="-2467.12" font-family="Times,serif" font-size="14.00">biomass*2128</text>
</g>
</g>
</svg>
