<?xml version="1.0" encoding="UTF-8" standalone="no"?>
<!DOCTYPE svg PUBLIC "-//W3C//DTD SVG 1.1//EN"
 "http://www.w3.org/Graphics/SVG/1.1/DTD/svg11.dtd">
<!-- Generated by graphviz version 2.43.0 (0)
 -->
<!-- Title: %3 Pages: 1 -->
<svg width="1398pt" height="1299pt"
 viewBox="0.00 0.00 1397.81 1298.80" xmlns="http://www.w3.org/2000/svg" xmlns:xlink="http://www.w3.org/1999/xlink">
<g id="graph0" class="graph" transform="scale(1 1) rotate(0) translate(4 1294.8)">
<title>%3</title>
<polygon fill="white" stroke="transparent" points="-4,4 -4,-1294.8 1393.81,-1294.8 1393.81,4 -4,4"/>
<!-- 3,&#45;1 (Nitrogen, Oxygen) -->
<g id="node1" class="node">
<title>3,&#45;1 (Nitrogen, Oxygen)</title>
<ellipse fill="none" stroke="black" cx="658.76" cy="-647.43" rx="120.48" ry="18"/>
<text text-anchor="middle" x="658.76" y="-643.73" font-family="Times,serif" font-size="14.00">3,&#45;1 (Nitrogen, Oxygen)</text>
</g>
<!-- 2,&#45;1 (Ammonia) -->
<g id="node2" class="node">
<title>2,&#45;1 (Ammonia)</title>
<ellipse fill="none" stroke="black" cx="1308.56" cy="-647.43" rx="81.49" ry="18"/>
<text text-anchor="middle" x="1308.56" y="-643.73" font-family="Times,serif" font-size="14.00">2,&#45;1 (Ammonia)</text>
</g>
<!-- 3,&#45;1 (Nitrogen, Oxygen)&#45;&gt;2,&#45;1 (Ammonia) -->
<g id="edge1" class="edge">
<title>3,&#45;1 (Nitrogen, Oxygen)&#45;&gt;2,&#45;1 (Ammonia)</title>
<path fill="none" stroke="black" stroke-width="0.7" d="M779.08,-647.43C905.68,-647.43 1102.15,-647.43 1216.8,-647.43"/>
<polygon fill="black" stroke="black" stroke-width="0.7" points="1216.95,-650.93 1226.95,-647.43 1216.95,-643.93 1216.95,-650.93"/>
<text text-anchor="middle" x="921.94" y="-651.23" font-family="Times,serif" font-size="14.00">nitrogen&#45;barrel*4650</text>
</g>
<!-- 1,7 (Activated Carbon) -->
<g id="node3" class="node">
<title>1,7 (Activated Carbon)</title>
<ellipse fill="none" stroke="black" cx="835.25" cy="-1272.8" rx="115.88" ry="18"/>
<text text-anchor="middle" x="835.25" y="-1269.1" font-family="Times,serif" font-size="14.00">1,7 (Activated Carbon)</text>
</g>
<!-- 3,&#45;1 (Nitrogen, Oxygen)&#45;&gt;1,7 (Activated Carbon) -->
<g id="edge2" class="edge">
<title>3,&#45;1 (Nitrogen, Oxygen)&#45;&gt;1,7 (Activated Carbon)</title>
<path fill="none" stroke="black" stroke-width="1.87" d="M663.86,-665.47C688.69,-753.46 797.12,-1137.68 827.38,-1244.91"/>
<polygon fill="black" stroke="black" stroke-width="1.87" points="824.06,-1246.01 830.14,-1254.69 830.79,-1244.11 824.06,-1246.01"/>
<text text-anchor="middle" x="665.12" y="-958.99" font-family="Times,serif" font-size="14.00">nitrogen&#45;barrel*12450</text>
</g>
<!-- 2,10 (Nickel plate) -->
<g id="node4" class="node">
<title>2,10 (Nickel plate)</title>
<ellipse fill="none" stroke="black" cx="96.84" cy="-973.74" rx="96.68" ry="18"/>
<text text-anchor="middle" x="96.84" y="-970.04" font-family="Times,serif" font-size="14.00">2,10 (Nickel plate)</text>
</g>
<!-- 3,&#45;1 (Nitrogen, Oxygen)&#45;&gt;2,10 (Nickel plate) -->
<g id="edge3" class="edge">
<title>3,&#45;1 (Nitrogen, Oxygen)&#45;&gt;2,10 (Nickel plate)</title>
<path fill="none" stroke="black" stroke-width="1.1" d="M628.55,-664.97C533.53,-720.16 240.78,-890.15 135.26,-951.43"/>
<polygon fill="black" stroke="black" stroke-width="1.1" points="133.41,-948.46 126.52,-956.51 136.93,-954.51 133.41,-948.46"/>
<text text-anchor="middle" x="305.91" y="-812" font-family="Times,serif" font-size="14.00">nitrogen&#45;barrel*7300</text>
</g>
<!-- 1,&#45;1 (fluid=molten&#45;glass Glass, When space, make quartz separate with regular priority, Quartz) -->
<g id="node5" class="node">
<title>1,&#45;1 (fluid=molten&#45;glass Glass, When space, make quartz separate with regular priority, Quartz)</title>
<ellipse fill="none" stroke="black" cx="497.34" cy="-18" rx="457.62" ry="18"/>
<text text-anchor="middle" x="497.34" y="-14.3" font-family="Times,serif" font-size="14.00">1,&#45;1 (fluid=molten&#45;glass Glass, When space, make quartz separate with regular priority, Quartz)</text>
</g>
<!-- 3,&#45;1 (Nitrogen, Oxygen)&#45;&gt;1,&#45;1 (fluid=molten&#45;glass Glass, When space, make quartz separate with regular priority, Quartz) -->
<g id="edge4" class="edge">
<title>3,&#45;1 (Nitrogen, Oxygen)&#45;&gt;1,&#45;1 (fluid=molten&#45;glass Glass, When space, make quartz separate with regular priority, Quartz)</title>
<path fill="none" stroke="black" stroke-width="0.34" d="M654.11,-629.27C631.39,-540.71 532.22,-154 504.53,-46.07"/>
<polygon fill="black" stroke="black" stroke-width="0.34" points="507.89,-45.05 502.01,-36.23 501.11,-46.79 507.89,-45.05"/>
<text text-anchor="middle" x="503.32" y="-341.47" font-family="Times,serif" font-size="14.00">nitrogen&#45;barrel*2250</text>
</g>
</g>
</svg>
