<?xml version="1.0" encoding="UTF-8" standalone="no"?>
<!DOCTYPE svg PUBLIC "-//W3C//DTD SVG 1.1//EN"
 "http://www.w3.org/Graphics/SVG/1.1/DTD/svg11.dtd">
<!-- Generated by graphviz version 2.43.0 (0)
 -->
<!-- Title: %3 Pages: 1 -->
<svg width="3079pt" height="2233pt"
 viewBox="0.00 0.00 3078.89 2233.48" xmlns="http://www.w3.org/2000/svg" xmlns:xlink="http://www.w3.org/1999/xlink">
<g id="graph0" class="graph" transform="scale(1 1) rotate(0) translate(4 2229.48)">
<title>%3</title>
<polygon fill="white" stroke="transparent" points="-4,4 -4,-2229.48 3074.89,-2229.48 3074.89,4 -4,4"/>
<!-- &#45;5,&#45;1 (Coal and Coke and Syngas and Ash and Coke Oven Gas and...) -->
<g id="node1" class="node">
<title>&#45;5,&#45;1 (Coal and Coke and Syngas and Ash and Coke Oven Gas and...)</title>
<ellipse fill="none" stroke="black" cx="955.26" cy="-18" rx="325.74" ry="18"/>
<text text-anchor="middle" x="955.26" y="-14.3" font-family="Times,serif" font-size="14.00">&#45;5,&#45;1 (Coal and Coke and Syngas and Ash and Coke Oven Gas and...)</text>
</g>
<!-- &#45;1,5 (Train stops for bus brick) -->
<g id="node2" class="node">
<title>&#45;1,5 (Train stops for bus brick)</title>
<ellipse fill="none" stroke="black" cx="1666.66" cy="-2207.48" rx="152.17" ry="18"/>
<text text-anchor="middle" x="1666.66" y="-2203.78" font-family="Times,serif" font-size="14.00">&#45;1,5 (Train stops for bus brick)</text>
</g>
<!-- &#45;5,&#45;1 (Coal and Coke and Syngas and Ash and Coke Oven Gas and...)&#45;&gt;&#45;1,5 (Train stops for bus brick) -->
<g id="edge1" class="edge">
<title>&#45;5,&#45;1 (Coal and Coke and Syngas and Ash and Coke Oven Gas and...)&#45;&gt;&#45;1,5 (Train stops for bus brick)</title>
<path fill="none" stroke="black" stroke-width="2.64" d="M961.2,-36.27C1024.81,-232.04 1579.72,-1939.88 1657.6,-2179.57"/>
<polygon fill="black" stroke="black" stroke-width="2.64" points="1654.33,-2180.85 1660.75,-2189.28 1660.99,-2178.69 1654.33,-2180.85"/>
<text text-anchor="middle" x="1238.9" y="-1096.72" font-family="Times,serif" font-size="14.00">syngas&#45;barrel*8576</text>
</g>
<!-- 2,6 (Refined Syngas) -->
<g id="node4" class="node">
<title>2,6 (Refined Syngas)</title>
<ellipse fill="none" stroke="black" cx="2242.2" cy="-1789.32" rx="107.48" ry="18"/>
<text text-anchor="middle" x="2242.2" y="-1785.62" font-family="Times,serif" font-size="14.00">2,6 (Refined Syngas)</text>
</g>
<!-- &#45;5,&#45;1 (Coal and Coke and Syngas and Ash and Coke Oven Gas and...)&#45;&gt;2,6 (Refined Syngas) -->
<g id="edge6" class="edge">
<title>&#45;5,&#45;1 (Coal and Coke and Syngas and Ash and Coke Oven Gas and...)&#45;&gt;2,6 (Refined Syngas)</title>
<path fill="none" stroke="black" stroke-width="2.04" d="M968.42,-36.11C1093.68,-208.52 2074.44,-1558.43 2223.29,-1763.3"/>
<polygon fill="black" stroke="black" stroke-width="2.04" points="2220.48,-1765.38 2229.19,-1771.41 2226.14,-1761.27 2220.48,-1765.38"/>
<text text-anchor="middle" x="1525.36" y="-903.5" font-family="Times,serif" font-size="14.00">syngas&#45;barrel*6608</text>
</g>
<!-- 3,1 (Mining Brick) -->
<g id="node6" class="node">
<title>3,1 (Mining Brick)</title>
<ellipse fill="none" stroke="black" cx="379.72" cy="-436.15" rx="94.78" ry="18"/>
<text text-anchor="middle" x="379.72" y="-432.45" font-family="Times,serif" font-size="14.00">3,1 (Mining Brick)</text>
</g>
<!-- &#45;5,&#45;1 (Coal and Coke and Syngas and Ash and Coke Oven Gas and...)&#45;&gt;3,1 (Mining Brick) -->
<g id="edge12" class="edge">
<title>&#45;5,&#45;1 (Coal and Coke and Syngas and Ash and Coke Oven Gas and...)&#45;&gt;3,1 (Mining Brick)</title>
<path fill="none" stroke="black" stroke-width="1.47" d="M930.53,-35.97C838.45,-102.87 515.46,-337.53 411.92,-412.76"/>
<polygon fill="black" stroke="black" stroke-width="1.47" points="409.75,-410.01 403.72,-418.72 413.87,-415.67 409.75,-410.01"/>
<text text-anchor="middle" x="600.73" y="-228.16" font-family="Times,serif" font-size="14.00">syngas&#45;barrel*4784</text>
</g>
<!-- 2,&#45;2 (Tin Plate, Organic Solvent) -->
<g id="node8" class="node">
<title>2,&#45;2 (Tin Plate, Organic Solvent)</title>
<ellipse fill="none" stroke="black" cx="159.89" cy="-1112.74" rx="159.77" ry="18"/>
<text text-anchor="middle" x="159.89" y="-1109.04" font-family="Times,serif" font-size="14.00">2,&#45;2 (Tin Plate, Organic Solvent)</text>
</g>
<!-- &#45;5,&#45;1 (Coal and Coke and Syngas and Ash and Coke Oven Gas and...)&#45;&gt;2,&#45;2 (Tin Plate, Organic Solvent) -->
<g id="edge22" class="edge">
<title>&#45;5,&#45;1 (Coal and Coke and Syngas and Ash and Coke Oven Gas and...)&#45;&gt;2,&#45;2 (Tin Plate, Organic Solvent)</title>
<path fill="none" stroke="black" stroke-width="0.04" d="M942.12,-36.09C849.14,-164.06 291.04,-932.23 179.34,-1085.97"/>
<polygon fill="black" stroke="black" stroke-width="0.04" points="176.25,-1084.26 173.2,-1094.41 181.91,-1088.38 176.25,-1084.26"/>
<text text-anchor="middle" x="494.73" y="-564.83" font-family="Times,serif" font-size="14.00">syngas&#45;barrel*144</text>
</g>
<!-- 4,&#45;2 (Ceramic) -->
<g id="node9" class="node">
<title>4,&#45;2 (Ceramic)</title>
<ellipse fill="none" stroke="black" cx="2242.2" cy="-436.15" rx="76.89" ry="18"/>
<text text-anchor="middle" x="2242.2" y="-432.45" font-family="Times,serif" font-size="14.00">4,&#45;2 (Ceramic)</text>
</g>
<!-- &#45;5,&#45;1 (Coal and Coke and Syngas and Ash and Coke Oven Gas and...)&#45;&gt;4,&#45;2 (Ceramic) -->
<g id="edge11" class="edge">
<title>&#45;5,&#45;1 (Coal and Coke and Syngas and Ash and Coke Oven Gas and...)&#45;&gt;4,&#45;2 (Ceramic)</title>
<path fill="none" stroke="black" stroke-width="0.72" d="M1010.15,-35.83C1220.9,-104.31 1976.93,-349.96 2187.45,-418.36"/>
<polygon fill="black" stroke="black" stroke-width="0.72" points="2186.47,-421.72 2197.06,-421.48 2188.63,-415.07 2186.47,-421.72"/>
<text text-anchor="middle" x="1528.3" y="-230.9" font-family="Times,serif" font-size="14.00">syngas&#45;barrel*2330</text>
</g>
<!-- &#45;2,7 (item=borax Borax) -->
<g id="node10" class="node">
<title>&#45;2,7 (item=borax Borax)</title>
<ellipse fill="none" stroke="black" cx="1666.66" cy="-18" rx="123.48" ry="18"/>
<text text-anchor="middle" x="1666.66" y="-14.3" font-family="Times,serif" font-size="14.00">&#45;2,7 (item=borax Borax)</text>
</g>
<!-- &#45;5,&#45;1 (Coal and Coke and Syngas and Ash and Coke Oven Gas and...)&#45;&gt;&#45;2,7 (item=borax Borax) -->
<g id="edge9" class="edge">
<title>&#45;5,&#45;1 (Coal and Coke and Syngas and Ash and Coke Oven Gas and...)&#45;&gt;&#45;2,7 (item=borax Borax)</title>
<path fill="none" stroke="black" stroke-width="1.05" d="M1281.03,-18C1369.74,-18 1460.96,-18 1532.39,-18"/>
<polygon fill="black" stroke="black" stroke-width="1.05" points="1532.78,-21.5 1542.78,-18 1532.78,-14.5 1532.78,-21.5"/>
<text text-anchor="middle" x="1441.96" y="-6.8" font-family="Times,serif" font-size="14.00">syngas&#45;barrel*3408</text>
</g>
<!-- 2,7 (Mystery petrochemicals) -->
<g id="node3" class="node">
<title>2,7 (Mystery petrochemicals)</title>
<ellipse fill="none" stroke="black" cx="2462.04" cy="-1112.74" rx="147.57" ry="18"/>
<text text-anchor="middle" x="2462.04" y="-1109.04" font-family="Times,serif" font-size="14.00">2,7 (Mystery petrochemicals)</text>
</g>
<!-- 2,7 (Mystery petrochemicals)&#45;&gt;&#45;1,5 (Train stops for bus brick) -->
<g id="edge10" class="edge">
<title>2,7 (Mystery petrochemicals)&#45;&gt;&#45;1,5 (Train stops for bus brick)</title>
<path fill="none" stroke="black" stroke-width="1.6" d="M2448.9,-1130.83C2355.92,-1258.8 1797.81,-2026.96 1686.11,-2180.7"/>
<polygon fill="black" stroke="black" stroke-width="1.6" points="1683.02,-2179 1679.98,-2189.15 1688.69,-2183.12 1683.02,-2179"/>
<text text-anchor="middle" x="1997.01" y="-1659.57" font-family="Times,serif" font-size="14.00">syngas&#45;barrel*5184</text>
</g>
<!-- 2,7 (Mystery petrochemicals)&#45;&gt;2,6 (Refined Syngas) -->
<g id="edge2" class="edge">
<title>2,7 (Mystery petrochemicals)&#45;&gt;2,6 (Refined Syngas)</title>
<path fill="none" stroke="black" stroke-width="2.14" d="M2456.16,-1130.84C2425.93,-1223.86 2288.03,-1648.28 2251.24,-1761.5"/>
<polygon fill="black" stroke="black" stroke-width="2.14" points="2247.86,-1760.58 2248.1,-1771.17 2254.52,-1762.74 2247.86,-1760.58"/>
<text text-anchor="middle" x="2283.2" y="-1449.97" font-family="Times,serif" font-size="14.00">syngas&#45;barrel*6957</text>
</g>
<!-- 2,7 (Mystery petrochemicals)&#45;&gt;3,1 (Mining Brick) -->
<g id="edge4" class="edge">
<title>2,7 (Mystery petrochemicals)&#45;&gt;3,1 (Mining Brick)</title>
<path fill="none" stroke="black" stroke-width="1.12" d="M2410.04,-1095.84C2123.55,-1002.76 739.42,-553.02 437.82,-455.03"/>
<polygon fill="black" stroke="black" stroke-width="1.12" points="438.56,-451.59 427.97,-451.83 436.4,-458.25 438.56,-451.59"/>
<text text-anchor="middle" x="1353.43" y="-779.24" font-family="Times,serif" font-size="14.00">syngas&#45;barrel*3648</text>
</g>
<!-- 2,7 (Mystery petrochemicals)&#45;&gt;4,&#45;2 (Ceramic) -->
<g id="edge8" class="edge">
<title>2,7 (Mystery petrochemicals)&#45;&gt;4,&#45;2 (Ceramic)</title>
<path fill="none" stroke="black" stroke-width="0.7" d="M2456.16,-1094.64C2425.93,-1001.61 2288.03,-577.2 2251.24,-463.98"/>
<polygon fill="black" stroke="black" stroke-width="0.7" points="2254.52,-462.73 2248.1,-454.31 2247.86,-464.9 2254.52,-462.73"/>
<text text-anchor="middle" x="2283.2" y="-783.11" font-family="Times,serif" font-size="14.00">syngas&#45;barrel*2288</text>
</g>
<!-- 2,7 (Mystery petrochemicals)&#45;&gt;&#45;2,7 (item=borax Borax) -->
<g id="edge13" class="edge">
<title>2,7 (Mystery petrochemicals)&#45;&gt;&#45;2,7 (item=borax Borax)</title>
<path fill="none" stroke="black" stroke-width="0.63" d="M2448.9,-1094.65C2355.82,-966.54 1796.62,-196.88 1685.76,-44.28"/>
<polygon fill="black" stroke="black" stroke-width="0.63" points="1688.38,-41.94 1679.67,-35.91 1682.72,-46.06 1688.38,-41.94"/>
<text text-anchor="middle" x="1996.83" y="-573.27" font-family="Times,serif" font-size="14.00">syngas&#45;barrel*2048</text>
</g>
<!-- 4,0 (item=raw&#45;borax Raw Borax mine (no consumers?)) -->
<g id="node11" class="node">
<title>4,0 (item=raw&#45;borax Raw Borax mine (no consumers?))</title>
<ellipse fill="none" stroke="black" cx="2802.46" cy="-1112.74" rx="268.35" ry="18"/>
<text text-anchor="middle" x="2802.46" y="-1109.04" font-family="Times,serif" font-size="14.00">4,0 (item=raw&#45;borax Raw Borax mine (no consumers?))</text>
</g>
<!-- 2,7 (Mystery petrochemicals)&#45;&gt;4,0 (item=raw&#45;borax Raw Borax mine (no consumers?)) -->
<g id="edge19" class="edge">
<title>2,7 (Mystery petrochemicals)&#45;&gt;4,0 (item=raw&#45;borax Raw Borax mine (no consumers?))</title>
<path fill="none" stroke="black" stroke-width="0.05" d="M2609.87,-1112.74C2609.91,-1112.74 2609.96,-1112.74 2610,-1112.74"/>
<polygon fill="black" stroke="black" stroke-width="0.05" points="2600.14,-1116.25 2610.14,-1112.74 2600.13,-1109.25 2600.14,-1116.25"/>
<text text-anchor="middle" x="2675.94" y="-1116.54" font-family="Times,serif" font-size="14.00">syngas&#45;barrel*176</text>
</g>
<!-- &#45;2,8 (syngas from coal dust and also wood) -->
<g id="node5" class="node">
<title>&#45;2,8 (syngas from coal dust and also wood)</title>
<ellipse fill="none" stroke="black" cx="955.26" cy="-2207.48" rx="208.76" ry="18"/>
<text text-anchor="middle" x="955.26" y="-2203.78" font-family="Times,serif" font-size="14.00">&#45;2,8 (syngas from coal dust and also wood)</text>
</g>
<!-- &#45;2,8 (syngas from coal dust and also wood)&#45;&gt;&#45;1,5 (Train stops for bus brick) -->
<g id="edge5" class="edge">
<title>&#45;2,8 (syngas from coal dust and also wood)&#45;&gt;&#45;1,5 (Train stops for bus brick)</title>
<path fill="none" stroke="black" stroke-width="3.26" d="M1163.9,-2207.48C1272.5,-2207.48 1403.31,-2207.48 1504.28,-2207.48"/>
<polygon fill="black" stroke="black" stroke-width="3.26" points="1504.57,-2210.98 1514.57,-2207.48 1504.57,-2203.98 1504.57,-2210.98"/>
<text text-anchor="middle" x="1259.09" y="-2211.28" font-family="Times,serif" font-size="14.00">syngas&#45;barrel*10576</text>
</g>
<!-- &#45;2,8 (syngas from coal dust and also wood)&#45;&gt;2,6 (Refined Syngas) -->
<g id="edge3" class="edge">
<title>&#45;2,8 (syngas from coal dust and also wood)&#45;&gt;2,6 (Refined Syngas)</title>
<path fill="none" stroke="black" stroke-width="2.1" d="M1008.92,-2190.04C1216.59,-2122.57 1966.68,-1878.85 2183.26,-1808.47"/>
<polygon fill="black" stroke="black" stroke-width="2.1" points="2184.44,-1811.77 2192.87,-1805.35 2182.28,-1805.11 2184.44,-1811.77"/>
<text text-anchor="middle" x="1525.59" y="-2003.06" font-family="Times,serif" font-size="14.00">syngas&#45;barrel*6815</text>
</g>
<!-- &#45;2,8 (syngas from coal dust and also wood)&#45;&gt;3,1 (Mining Brick) -->
<g id="edge18" class="edge">
<title>&#45;2,8 (syngas from coal dust and also wood)&#45;&gt;3,1 (Mining Brick)</title>
<path fill="none" stroke="black" stroke-width="0.86" d="M949.38,-2189.37C893.52,-2017.47 457.37,-675.13 388.79,-464.05"/>
<polygon fill="black" stroke="black" stroke-width="0.86" points="392.05,-462.76 385.63,-454.34 385.39,-464.93 392.05,-462.76"/>
<text text-anchor="middle" x="598.58" y="-1330.51" font-family="Times,serif" font-size="14.00">syngas&#45;barrel*2784</text>
</g>
<!-- &#45;2,8 (syngas from coal dust and also wood)&#45;&gt;2,&#45;2 (Tin Plate, Organic Solvent) -->
<g id="edge24" class="edge">
<title>&#45;2,8 (syngas from coal dust and also wood)&#45;&gt;2,&#45;2 (Tin Plate, Organic Solvent)</title>
<path fill="none" stroke="black" stroke-width="0.18" d="M942.12,-2189.39C849.14,-2061.42 291.04,-1293.25 179.34,-1139.51"/>
<polygon fill="black" stroke="black" stroke-width="0.18" points="181.91,-1137.1 173.2,-1131.06 176.25,-1141.21 181.91,-1137.1"/>
<text text-anchor="middle" x="494.73" y="-1668.25" font-family="Times,serif" font-size="14.00">syngas&#45;barrel*592</text>
</g>
<!-- &#45;2,8 (syngas from coal dust and also wood)&#45;&gt;4,&#45;2 (Ceramic) -->
<g id="edge21" class="edge">
<title>&#45;2,8 (syngas from coal dust and also wood)&#45;&gt;4,&#45;2 (Ceramic)</title>
<path fill="none" stroke="black" stroke-width="0.34" d="M968.42,-2189.37C1093.68,-2016.96 2074.44,-667.05 2223.29,-462.18"/>
<polygon fill="black" stroke="black" stroke-width="0.34" points="2226.14,-464.21 2229.19,-454.06 2220.48,-460.1 2226.14,-464.21"/>
<text text-anchor="middle" x="1525.36" y="-1329.57" font-family="Times,serif" font-size="14.00">syngas&#45;barrel*1088</text>
</g>
<!-- &#45;2,8 (syngas from coal dust and also wood)&#45;&gt;&#45;2,7 (item=borax Borax) -->
<g id="edge17" class="edge">
<title>&#45;2,8 (syngas from coal dust and also wood)&#45;&gt;&#45;2,7 (item=borax Borax)</title>
<path fill="none" stroke="black" stroke-width="0.34" d="M961.2,-2189.21C1024.81,-1993.43 1579.72,-285.6 1657.6,-45.9"/>
<polygon fill="black" stroke="black" stroke-width="0.34" points="1660.99,-46.79 1660.75,-36.2 1654.33,-44.62 1660.99,-46.79"/>
<text text-anchor="middle" x="1238.9" y="-1121.35" font-family="Times,serif" font-size="14.00">syngas&#45;barrel*1088</text>
</g>
<!-- 0,6 (Flue Gas Disposal, Syngas From Flue Gas) -->
<g id="node7" class="node">
<title>0,6 (Flue Gas Disposal, Syngas From Flue Gas)</title>
<ellipse fill="none" stroke="black" cx="379.72" cy="-1789.32" rx="229.36" ry="18"/>
<text text-anchor="middle" x="379.72" y="-1785.62" font-family="Times,serif" font-size="14.00">0,6 (Flue Gas Disposal, Syngas From Flue Gas)</text>
</g>
<!-- 0,6 (Flue Gas Disposal, Syngas From Flue Gas)&#45;&gt;&#45;1,5 (Train stops for bus brick) -->
<g id="edge20" class="edge">
<title>0,6 (Flue Gas Disposal, Syngas From Flue Gas)&#45;&gt;&#45;1,5 (Train stops for bus brick)</title>
<path fill="none" stroke="black" stroke-width="0.29" d="M433.79,-1806.89C641.11,-1874.25 1384.67,-2115.85 1604.83,-2187.38"/>
<polygon fill="black" stroke="black" stroke-width="0.29" points="1604.01,-2190.8 1614.6,-2190.56 1606.18,-2184.14 1604.01,-2190.8"/>
<text text-anchor="middle" x="953.31" y="-2000.94" font-family="Times,serif" font-size="14.00">syngas&#45;barrel*926</text>
</g>
<!-- 0,6 (Flue Gas Disposal, Syngas From Flue Gas)&#45;&gt;2,6 (Refined Syngas) -->
<g id="edge14" class="edge">
<title>0,6 (Flue Gas Disposal, Syngas From Flue Gas)&#45;&gt;2,6 (Refined Syngas)</title>
<path fill="none" stroke="black" stroke-width="0.86" d="M609.5,-1789.32C1009.87,-1789.32 1821.59,-1789.32 2124.61,-1789.32"/>
<polygon fill="black" stroke="black" stroke-width="0.86" points="2124.74,-1792.82 2134.74,-1789.32 2124.74,-1785.82 2124.74,-1792.82"/>
<text text-anchor="middle" x="1296.56" y="-1793.12" font-family="Times,serif" font-size="14.00">syngas&#45;barrel*2786</text>
</g>
<!-- 0,6 (Flue Gas Disposal, Syngas From Flue Gas)&#45;&gt;3,1 (Mining Brick) -->
<g id="edge15" class="edge">
<title>0,6 (Flue Gas Disposal, Syngas From Flue Gas)&#45;&gt;3,1 (Mining Brick)</title>
<path fill="none" stroke="black" stroke-width="0.69" d="M379.72,-1771.22C379.72,-1625.46 379.72,-644.21 379.72,-464.42"/>
<polygon fill="black" stroke="black" stroke-width="0.69" points="383.22,-464.19 379.72,-454.19 376.22,-464.19 383.22,-464.19"/>
<text text-anchor="middle" x="450.22" y="-1121.62" font-family="Times,serif" font-size="14.00">syngas&#45;barrel*2228</text>
</g>
<!-- 0,6 (Flue Gas Disposal, Syngas From Flue Gas)&#45;&gt;2,&#45;2 (Tin Plate, Organic Solvent) -->
<g id="edge7" class="edge">
<title>0,6 (Flue Gas Disposal, Syngas From Flue Gas)&#45;&gt;2,&#45;2 (Tin Plate, Organic Solvent)</title>
<path fill="none" stroke="black" stroke-width="0.16" d="M373.84,-1771.23C343.61,-1678.2 205.71,-1253.78 168.93,-1140.57"/>
<polygon fill="black" stroke="black" stroke-width="0.16" points="172.2,-1139.32 165.78,-1130.89 165.55,-1141.48 172.2,-1139.32"/>
<text text-anchor="middle" x="205.38" y="-1459.7" font-family="Times,serif" font-size="14.00">syngas&#45;barrel*506</text>
</g>
<!-- 0,6 (Flue Gas Disposal, Syngas From Flue Gas)&#45;&gt;4,&#45;2 (Ceramic) -->
<g id="edge23" class="edge">
<title>0,6 (Flue Gas Disposal, Syngas From Flue Gas)&#45;&gt;4,&#45;2 (Ceramic)</title>
<path fill="none" stroke="black" stroke-width="0.17" d="M404.64,-1771.22C607.19,-1624.06 1981.78,-625.36 2210.1,-459.48"/>
<polygon fill="black" stroke="black" stroke-width="0.17" points="2212.3,-462.21 2218.33,-453.5 2208.18,-456.54 2212.3,-462.21"/>
<text text-anchor="middle" x="1373.37" y="-1104.15" font-family="Times,serif" font-size="14.00">syngas&#45;barrel*562</text>
</g>
<!-- 0,6 (Flue Gas Disposal, Syngas From Flue Gas)&#45;&gt;&#45;2,7 (item=borax Borax) -->
<g id="edge16" class="edge">
<title>0,6 (Flue Gas Disposal, Syngas From Flue Gas)&#45;&gt;&#45;2,7 (item=borax Borax)</title>
<path fill="none" stroke="black" stroke-width="0.55" d="M392.88,-1771.22C518.14,-1598.81 1498.91,-248.9 1647.76,-44.02"/>
<polygon fill="black" stroke="black" stroke-width="0.55" points="1650.6,-46.06 1653.65,-35.91 1644.94,-41.94 1650.6,-46.06"/>
<text text-anchor="middle" x="949.82" y="-911.42" font-family="Times,serif" font-size="14.00">syngas&#45;barrel*1790</text>
</g>
</g>
</svg>
