<?xml version="1.0" encoding="UTF-8" standalone="no"?>
<!DOCTYPE svg PUBLIC "-//W3C//DTD SVG 1.1//EN"
 "http://www.w3.org/Graphics/SVG/1.1/DTD/svg11.dtd">
<!-- Generated by graphviz version 2.43.0 (0)
 -->
<!-- Title: %3 Pages: 1 -->
<svg width="1055pt" height="44pt"
 viewBox="0.00 0.00 1054.77 44.00" xmlns="http://www.w3.org/2000/svg" xmlns:xlink="http://www.w3.org/1999/xlink">
<g id="graph0" class="graph" transform="scale(1 1) rotate(0) translate(4 40)">
<title>%3</title>
<polygon fill="white" stroke="transparent" points="-4,4 -4,-40 1050.77,-40 1050.77,4 -4,4"/>
<!-- 4,3 (item=nexelit&#45;plate Nexelit platery) -->
<g id="node1" class="node">
<title>4,3 (item=nexelit&#45;plate Nexelit platery)</title>
<ellipse fill="none" stroke="black" cx="561.41" cy="-18" rx="194.17" ry="18"/>
<text text-anchor="middle" x="561.41" y="-14.3" font-family="Times,serif" font-size="14.00">4,3 (item=nexelit&#45;plate Nexelit platery)</text>
</g>
<!-- 0,0 (LE BUS) -->
<g id="node2" class="node">
<title>0,0 (LE BUS)</title>
<ellipse fill="none" stroke="black" cx="975.28" cy="-18" rx="71.49" ry="18"/>
<text text-anchor="middle" x="975.28" y="-14.3" font-family="Times,serif" font-size="14.00">0,0 (LE BUS)</text>
</g>
<!-- 4,3 (item=nexelit&#45;plate Nexelit platery)&#45;&gt;0,0 (LE BUS) -->
<g id="edge1" class="edge">
<title>4,3 (item=nexelit&#45;plate Nexelit platery)&#45;&gt;0,0 (LE BUS)</title>
<path fill="none" stroke="black" stroke-width="0.64" d="M755.92,-18C804.37,-18 853.74,-18 893.33,-18"/>
<polygon fill="black" stroke="black" stroke-width="0.64" points="893.45,-21.5 903.45,-18 893.45,-14.5 893.45,-21.5"/>
<text text-anchor="middle" x="824.63" y="-6.8" font-family="Times,serif" font-size="14.00">nexelit&#45;plate*2112</text>
</g>
<!-- 2,7 (Mystery petrochemicals) -->
<g id="node3" class="node">
<title>2,7 (Mystery petrochemicals)</title>
<ellipse fill="none" stroke="black" cx="147.54" cy="-18" rx="147.57" ry="18"/>
<text text-anchor="middle" x="147.54" y="-14.3" font-family="Times,serif" font-size="14.00">2,7 (Mystery petrochemicals)</text>
</g>
<!-- 4,3 (item=nexelit&#45;plate Nexelit platery)&#45;&gt;2,7 (Mystery petrochemicals) -->
<g id="edge2" class="edge">
<title>4,3 (item=nexelit&#45;plate Nexelit platery)&#45;&gt;2,7 (Mystery petrochemicals)</title>
<path fill="none" stroke="black" stroke-width="1.36" d="M366.89,-18C346.25,-18 325.44,-18 305.29,-18"/>
<polygon fill="black" stroke="black" stroke-width="1.36" points="305.14,-14.5 295.14,-18 305.14,-21.5 305.14,-14.5"/>
<text text-anchor="middle" x="302.84" y="-6.8" font-family="Times,serif" font-size="14.00">nexelit&#45;plate*4512</text>
</g>
</g>
</svg>
