<?xml version="1.0" encoding="UTF-8" standalone="no"?>
<!DOCTYPE svg PUBLIC "-//W3C//DTD SVG 1.1//EN"
 "http://www.w3.org/Graphics/SVG/1.1/DTD/svg11.dtd">
<!-- Generated by graphviz version 2.43.0 (0)
 -->
<!-- Title: %3 Pages: 1 -->
<svg width="917pt" height="755pt"
 viewBox="0.00 0.00 917.50 755.29" xmlns="http://www.w3.org/2000/svg" xmlns:xlink="http://www.w3.org/1999/xlink">
<g id="graph0" class="graph" transform="scale(1 1) rotate(0) translate(4 751.29)">
<title>%3</title>
<polygon fill="white" stroke="transparent" points="-4,4 -4,-751.29 913.5,-751.29 913.5,4 -4,4"/>
<!-- 2,&#45;2 (Tin Plate, Organic Solvent) -->
<g id="node1" class="node">
<title>2,&#45;2 (Tin Plate, Organic Solvent)</title>
<ellipse fill="none" stroke="black" cx="428.04" cy="-373.28" rx="159.77" ry="18"/>
<text text-anchor="middle" x="428.04" y="-369.58" font-family="Times,serif" font-size="14.00">2,&#45;2 (Tin Plate, Organic Solvent)</text>
</g>
<!-- 9,5 (Niobium complex 2) -->
<g id="node2" class="node">
<title>9,5 (Niobium complex 2)</title>
<ellipse fill="none" stroke="black" cx="784.71" cy="-373.28" rx="124.58" ry="18"/>
<text text-anchor="middle" x="784.71" y="-369.58" font-family="Times,serif" font-size="14.00">9,5 (Niobium complex 2)</text>
</g>
<!-- 2,&#45;2 (Tin Plate, Organic Solvent)&#45;&gt;9,5 (Niobium complex 2) -->
<g id="edge1" class="edge">
<title>2,&#45;2 (Tin Plate, Organic Solvent)&#45;&gt;9,5 (Niobium complex 2)</title>
<path fill="none" stroke="black" stroke-width="0.68" d="M588.11,-373.28C608.71,-373.28 629.63,-373.28 649.77,-373.28"/>
<polygon fill="black" stroke="black" stroke-width="0.68" points="649.91,-376.78 659.91,-373.28 649.91,-369.78 649.91,-376.78"/>
<text text-anchor="middle" x="618.94" y="-362.08" font-family="Times,serif" font-size="14.00">organic&#45;solvent&#45;barrel*4992</text>
</g>
<!-- &#45;5,2 (Optical fiber) -->
<g id="node3" class="node">
<title>&#45;5,2 (Optical fiber)</title>
<ellipse fill="none" stroke="black" cx="406.28" cy="-729.29" rx="96.38" ry="18"/>
<text text-anchor="middle" x="406.28" y="-725.59" font-family="Times,serif" font-size="14.00">&#45;5,2 (Optical fiber)</text>
</g>
<!-- 2,&#45;2 (Tin Plate, Organic Solvent)&#45;&gt;&#45;5,2 (Optical fiber) -->
<g id="edge2" class="edge">
<title>2,&#45;2 (Tin Plate, Organic Solvent)&#45;&gt;&#45;5,2 (Optical fiber)</title>
<path fill="none" stroke="black" stroke-width="1.28" d="M426.93,-391.43C423.38,-449.4 412.32,-630.45 408.01,-700.87"/>
<polygon fill="black" stroke="black" stroke-width="1.28" points="404.5,-700.99 407.38,-711.19 411.49,-701.42 404.5,-700.99"/>
<text text-anchor="middle" x="316.97" y="-549.95" font-family="Times,serif" font-size="14.00">organic&#45;solvent&#45;barrel*9384</text>
</g>
<!-- 0,0 (LE BUS) -->
<g id="node4" class="node">
<title>0,0 (LE BUS)</title>
<ellipse fill="none" stroke="black" cx="71.49" cy="-383.03" rx="71.49" ry="18"/>
<text text-anchor="middle" x="71.49" y="-379.33" font-family="Times,serif" font-size="14.00">0,0 (LE BUS)</text>
</g>
<!-- 2,&#45;2 (Tin Plate, Organic Solvent)&#45;&gt;0,0 (LE BUS) -->
<g id="edge3" class="edge">
<title>2,&#45;2 (Tin Plate, Organic Solvent)&#45;&gt;0,0 (LE BUS)</title>
<path fill="none" stroke="black" stroke-width="1.23" d="M272.43,-377.54C231.3,-378.66 188.53,-379.83 153.08,-380.8"/>
<polygon fill="black" stroke="black" stroke-width="1.23" points="152.7,-377.31 142.8,-381.08 152.89,-384.31 152.7,-377.31"/>
<text text-anchor="middle" x="162.5" y="-367.97" font-family="Times,serif" font-size="14.00">organic&#45;solvent&#45;barrel*9000</text>
</g>
<!-- 2,1 (Niobium plates) -->
<g id="node5" class="node">
<title>2,1 (Niobium plates)</title>
<ellipse fill="none" stroke="black" cx="396.55" cy="-18" rx="105.88" ry="18"/>
<text text-anchor="middle" x="396.55" y="-14.3" font-family="Times,serif" font-size="14.00">2,1 (Niobium plates)</text>
</g>
<!-- 2,&#45;2 (Tin Plate, Organic Solvent)&#45;&gt;2,1 (Niobium plates) -->
<g id="edge4" class="edge">
<title>2,&#45;2 (Tin Plate, Organic Solvent)&#45;&gt;2,1 (Niobium plates)</title>
<path fill="none" stroke="black" stroke-width="0.82" d="M426.43,-355.18C421.3,-297.32 405.29,-116.65 399.07,-46.37"/>
<polygon fill="black" stroke="black" stroke-width="0.82" points="402.52,-45.72 398.16,-36.07 395.55,-46.34 402.52,-45.72"/>
<text text-anchor="middle" x="312.25" y="-204.57" font-family="Times,serif" font-size="14.00">organic&#45;solvent&#45;barrel*6008</text>
</g>
</g>
</svg>
