<?xml version="1.0" encoding="UTF-8" standalone="no"?>
<!DOCTYPE svg PUBLIC "-//W3C//DTD SVG 1.1//EN"
 "http://www.w3.org/Graphics/SVG/1.1/DTD/svg11.dtd">
<!-- Generated by graphviz version 2.43.0 (0)
 -->
<!-- Title: %3 Pages: 1 -->
<svg width="1347pt" height="44pt"
 viewBox="0.00 0.00 1346.59 44.00" xmlns="http://www.w3.org/2000/svg" xmlns:xlink="http://www.w3.org/1999/xlink">
<g id="graph0" class="graph" transform="scale(1 1) rotate(0) translate(4 40)">
<title>%3</title>
<polygon fill="white" stroke="transparent" points="-4,4 -4,-40 1342.59,-40 1342.59,4 -4,4"/>
<!-- 8,1 (Molten Copper) -->
<g id="node1" class="node">
<title>8,1 (Molten Copper)</title>
<ellipse fill="none" stroke="black" cx="773.29" cy="-18" rx="104.78" ry="18"/>
<text text-anchor="middle" x="773.29" y="-14.3" font-family="Times,serif" font-size="14.00">8,1 (Molten Copper)</text>
</g>
<!-- &#45;8,&#45;3 (Duralumin) -->
<g id="node2" class="node">
<title>&#45;8,&#45;3 (Duralumin)</title>
<ellipse fill="none" stroke="black" cx="1248.25" cy="-18" rx="90.18" ry="18"/>
<text text-anchor="middle" x="1248.25" y="-14.3" font-family="Times,serif" font-size="14.00">&#45;8,&#45;3 (Duralumin)</text>
</g>
<!-- 8,1 (Molten Copper)&#45;&gt;&#45;8,&#45;3 (Duralumin) -->
<g id="edge1" class="edge">
<title>8,1 (Molten Copper)&#45;&gt;&#45;8,&#45;3 (Duralumin)</title>
<path fill="none" stroke="black" stroke-width="1.66" d="M878.11,-18C958.24,-18 1068.05,-18 1147.23,-18"/>
<polygon fill="black" stroke="black" stroke-width="1.66" points="1147.7,-21.5 1157.7,-18 1147.7,-14.5 1147.7,-21.5"/>
<text text-anchor="middle" x="1012.67" y="-6.8" font-family="Times,serif" font-size="14.00">molten&#45;copper&#45;barrel*8160</text>
</g>
<!-- 3,12 (reserved &#45; Candle, reserved &#45; Candle, reserved &#45; Candle) -->
<g id="node3" class="node">
<title>3,12 (reserved &#45; Candle, reserved &#45; Candle, reserved &#45; Candle)</title>
<ellipse fill="none" stroke="black" cx="298.32" cy="-18" rx="298.15" ry="18"/>
<text text-anchor="middle" x="298.32" y="-14.3" font-family="Times,serif" font-size="14.00">3,12 (reserved &#45; Candle, reserved &#45; Candle, reserved &#45; Candle)</text>
</g>
<!-- 8,1 (Molten Copper)&#45;&gt;3,12 (reserved &#45; Candle, reserved &#45; Candle, reserved &#45; Candle) -->
<g id="edge2" class="edge">
<title>8,1 (Molten Copper)&#45;&gt;3,12 (reserved &#45; Candle, reserved &#45; Candle, reserved &#45; Candle)</title>
<path fill="none" stroke="black" stroke-width="0.34" d="M668.47,-18C649.48,-18 628.83,-18 607.32,-18"/>
<polygon fill="black" stroke="black" stroke-width="0.34" points="607.03,-14.5 597.03,-18 607.03,-21.5 607.03,-14.5"/>
<text text-anchor="middle" x="589.39" y="-6.8" font-family="Times,serif" font-size="14.00">molten&#45;copper&#45;barrel*1680</text>
</g>
</g>
</svg>
