<?xml version="1.0" encoding="UTF-8" standalone="no"?>
<!DOCTYPE svg PUBLIC "-//W3C//DTD SVG 1.1//EN"
 "http://www.w3.org/Graphics/SVG/1.1/DTD/svg11.dtd">
<!-- Generated by graphviz version 2.43.0 (0)
 -->
<!-- Title: %3 Pages: 1 -->
<svg width="1087pt" height="44pt"
 viewBox="0.00 0.00 1086.62 44.00" xmlns="http://www.w3.org/2000/svg" xmlns:xlink="http://www.w3.org/1999/xlink">
<g id="graph0" class="graph" transform="scale(1 1) rotate(0) translate(4 40)">
<title>%3</title>
<polygon fill="white" stroke="transparent" points="-4,4 -4,-40 1082.62,-40 1082.62,4 -4,4"/>
<!-- &#45;3,&#45;1 (item=boron&#45;trioxide Boron products 2) -->
<g id="node1" class="node">
<title>&#45;3,&#45;1 (item=boron&#45;trioxide Boron products 2)</title>
<ellipse fill="none" stroke="black" cx="219.03" cy="-18" rx="219.06" ry="18"/>
<text text-anchor="middle" x="219.03" y="-14.3" font-family="Times,serif" font-size="14.00">&#45;3,&#45;1 (item=boron&#45;trioxide Boron products 2)</text>
</g>
<!-- &#45;6,&#45;3 (Chromite Sand) -->
<g id="node2" class="node">
<title>&#45;6,&#45;3 (Chromite Sand)</title>
<ellipse fill="none" stroke="black" cx="620.55" cy="-18" rx="110.48" ry="18"/>
<text text-anchor="middle" x="620.55" y="-14.3" font-family="Times,serif" font-size="14.00">&#45;6,&#45;3 (Chromite Sand)</text>
</g>
<!-- &#45;3,&#45;1 (item=boron&#45;trioxide Boron products 2)&#45;&gt;&#45;6,&#45;3 (Chromite Sand) -->
<g id="edge1" class="edge">
<title>&#45;3,&#45;1 (item=boron&#45;trioxide Boron products 2)&#45;&gt;&#45;6,&#45;3 (Chromite Sand)</title>
<path fill="none" stroke="black" stroke-width="1.34" d="M438.29,-18C459.37,-18 480.16,-18 499.75,-18"/>
<polygon fill="black" stroke="black" stroke-width="1.34" points="499.87,-21.5 509.87,-18 499.87,-14.5 499.87,-21.5"/>
<text text-anchor="middle" x="469.02" y="-6.8" font-family="Times,serif" font-size="14.00">ore&#45;chromium*254101</text>
</g>
<!-- &#45;2,2 (Robutt superhighway) -->
<g id="node3" class="node">
<title>&#45;2,2 (Robutt superhighway)</title>
<ellipse fill="none" stroke="black" cx="940.83" cy="-18" rx="137.58" ry="18"/>
<text text-anchor="middle" x="940.83" y="-14.3" font-family="Times,serif" font-size="14.00">&#45;2,2 (Robutt superhighway)</text>
</g>
<!-- &#45;2,2 (Robutt superhighway)&#45;&gt;&#45;6,&#45;3 (Chromite Sand) -->
<g id="edge2" class="edge">
<title>&#45;2,2 (Robutt superhighway)&#45;&gt;&#45;6,&#45;3 (Chromite Sand)</title>
<path fill="none" stroke="black" stroke-width="0.66" d="M802.68,-18C782.26,-18 761.35,-18 741.32,-18"/>
<polygon fill="black" stroke="black" stroke-width="0.66" points="741.25,-14.5 731.25,-18 741.25,-21.5 741.25,-14.5"/>
<text text-anchor="middle" x="812.25" y="-6.8" font-family="Times,serif" font-size="14.00">ore&#45;chromium*126200</text>
</g>
</g>
</svg>
