<?xml version="1.0" encoding="UTF-8" standalone="no"?>
<!DOCTYPE svg PUBLIC "-//W3C//DTD SVG 1.1//EN"
 "http://www.w3.org/Graphics/SVG/1.1/DTD/svg11.dtd">
<!-- Generated by graphviz version 2.43.0 (0)
 -->
<!-- Title: %3 Pages: 1 -->
<svg width="1066pt" height="44pt"
 viewBox="0.00 0.00 1066.47 44.00" xmlns="http://www.w3.org/2000/svg" xmlns:xlink="http://www.w3.org/1999/xlink">
<g id="graph0" class="graph" transform="scale(1 1) rotate(0) translate(4 40)">
<title>%3</title>
<polygon fill="white" stroke="transparent" points="-4,4 -4,-40 1062.47,-40 1062.47,4 -4,4"/>
<!-- 4,&#45;1 (Fluid) -->
<g id="node1" class="node">
<title>4,&#45;1 (Fluid)</title>
<ellipse fill="none" stroke="black" cx="445.07" cy="-18" rx="61.99" ry="18"/>
<text text-anchor="middle" x="445.07" y="-14.3" font-family="Times,serif" font-size="14.00">4,&#45;1 (Fluid)</text>
</g>
<!-- 3,5 (item=molybdenum&#45;plate Molybdenum plate) -->
<g id="node2" class="node">
<title>3,5 (item=molybdenum&#45;plate Molybdenum plate)</title>
<ellipse fill="none" stroke="black" cx="818.64" cy="-18" rx="239.66" ry="18"/>
<text text-anchor="middle" x="818.64" y="-14.3" font-family="Times,serif" font-size="14.00">3,5 (item=molybdenum&#45;plate Molybdenum plate)</text>
</g>
<!-- 4,&#45;1 (Fluid)&#45;&gt;3,5 (item=molybdenum&#45;plate Molybdenum plate) -->
<g id="edge1" class="edge">
<title>4,&#45;1 (Fluid)&#45;&gt;3,5 (item=molybdenum&#45;plate Molybdenum plate)</title>
<path fill="none" stroke="black" stroke-width="1.51" d="M507.17,-18C525.17,-18 546,-18 568.19,-18"/>
<polygon fill="black" stroke="black" stroke-width="1.51" points="568.48,-21.5 578.48,-18 568.48,-14.5 568.48,-21.5"/>
<text text-anchor="middle" x="439.18" y="-6.8" font-family="Times,serif" font-size="14.00">liquid&#45;nitrogen&#45;barrel*6140</text>
</g>
<!-- 0,0 (LE BUS) -->
<g id="node3" class="node">
<title>0,0 (LE BUS)</title>
<ellipse fill="none" stroke="black" cx="71.49" cy="-18" rx="71.49" ry="18"/>
<text text-anchor="middle" x="71.49" y="-14.3" font-family="Times,serif" font-size="14.00">0,0 (LE BUS)</text>
</g>
<!-- 4,&#45;1 (Fluid)&#45;&gt;0,0 (LE BUS) -->
<g id="edge2" class="edge">
<title>4,&#45;1 (Fluid)&#45;&gt;0,0 (LE BUS)</title>
<path fill="none" stroke="black" stroke-width="0.49" d="M382.96,-18C320.11,-18 222.59,-18 153.43,-18"/>
<polygon fill="black" stroke="black" stroke-width="0.49" points="153.01,-14.5 143.01,-18 153.01,-21.5 153.01,-14.5"/>
<text text-anchor="middle" x="218.95" y="-6.8" font-family="Times,serif" font-size="14.00">liquid&#45;nitrogen&#45;barrel*2000</text>
</g>
</g>
</svg>
