<?xml version="1.0" encoding="UTF-8" standalone="no"?>
<!DOCTYPE svg PUBLIC "-//W3C//DTD SVG 1.1//EN"
 "http://www.w3.org/Graphics/SVG/1.1/DTD/svg11.dtd">
<!-- Generated by graphviz version 2.43.0 (0)
 -->
<!-- Title: %3 Pages: 1 -->
<svg width="2735pt" height="2082pt"
 viewBox="0.00 0.00 2735.37 2082.06" xmlns="http://www.w3.org/2000/svg" xmlns:xlink="http://www.w3.org/1999/xlink">
<g id="graph0" class="graph" transform="scale(1 1) rotate(0) translate(4 2078.06)">
<title>%3</title>
<polygon fill="white" stroke="transparent" points="-4,4 -4,-2078.06 2731.37,-2078.06 2731.37,4 -4,4"/>
<!-- &#45;2,7 (item=borax Borax) -->
<g id="node1" class="node">
<title>&#45;2,7 (item=borax Borax)</title>
<ellipse fill="none" stroke="black" cx="2275.34" cy="-1037.03" rx="123.48" ry="18"/>
<text text-anchor="middle" x="2275.34" y="-1033.33" font-family="Times,serif" font-size="14.00">&#45;2,7 (item=borax Borax)</text>
</g>
<!-- 4,3 (item=nexelit&#45;plate Nexelit platery) -->
<g id="node2" class="node">
<title>4,3 (item=nexelit&#45;plate Nexelit platery)</title>
<ellipse fill="none" stroke="black" cx="2533.03" cy="-887.62" rx="194.17" ry="18"/>
<text text-anchor="middle" x="2533.03" y="-883.92" font-family="Times,serif" font-size="14.00">4,3 (item=nexelit&#45;plate Nexelit platery)</text>
</g>
<!-- &#45;2,7 (item=borax Borax)&#45;&gt;4,3 (item=nexelit&#45;plate Nexelit platery) -->
<g id="edge1" class="edge">
<title>&#45;2,7 (item=borax Borax)&#45;&gt;4,3 (item=nexelit&#45;plate Nexelit platery)</title>
<path fill="none" stroke="black" stroke-width="0.38" d="M2305.66,-1019.45C2352.22,-992.45 2441.37,-940.77 2493.13,-910.76"/>
<polygon fill="black" stroke="black" stroke-width="0.38" points="2495.13,-913.64 2502.03,-905.6 2491.62,-907.59 2495.13,-913.64"/>
<text text-anchor="middle" x="2352.9" y="-968.91" font-family="Times,serif" font-size="14.00">borax*22320</text>
</g>
<!-- 1,12 (Molten Iron) -->
<g id="node3" class="node">
<title>1,12 (Molten Iron)</title>
<ellipse fill="none" stroke="black" cx="2111.91" cy="-480.44" rx="95.58" ry="18"/>
<text text-anchor="middle" x="2111.91" y="-476.74" font-family="Times,serif" font-size="14.00">1,12 (Molten Iron)</text>
</g>
<!-- &#45;2,7 (item=borax Borax)&#45;&gt;1,12 (Molten Iron) -->
<g id="edge2" class="edge">
<title>&#45;2,7 (item=borax Borax)&#45;&gt;1,12 (Molten Iron)</title>
<path fill="none" stroke="black" stroke-width="3" d="M2270,-1018.83C2246.11,-937.48 2149.06,-606.93 2120.1,-508.33"/>
<polygon fill="black" stroke="black" stroke-width="3" points="2123.39,-507.11 2117.22,-498.5 2116.68,-509.08 2123.39,-507.11"/>
<text text-anchor="middle" x="2144.05" y="-767.38" font-family="Times,serif" font-size="14.00">borax*175920</text>
</g>
<!-- &#45;1,10 (Iron Plates) -->
<g id="node4" class="node">
<title>&#45;1,10 (Iron Plates)</title>
<ellipse fill="none" stroke="black" cx="2111.91" cy="-1593.62" rx="94.78" ry="18"/>
<text text-anchor="middle" x="2111.91" y="-1589.92" font-family="Times,serif" font-size="14.00">&#45;1,10 (Iron Plates)</text>
</g>
<!-- &#45;2,7 (item=borax Borax)&#45;&gt;&#45;1,10 (Iron Plates) -->
<g id="edge3" class="edge">
<title>&#45;2,7 (item=borax Borax)&#45;&gt;&#45;1,10 (Iron Plates)</title>
<path fill="none" stroke="black" stroke-width="4.62" d="M2270,-1055.23C2246.11,-1136.58 2149.06,-1467.13 2120.1,-1565.73"/>
<polygon fill="black" stroke="black" stroke-width="4.62" points="2116.15,-1564.83 2117.22,-1575.56 2123.92,-1567.11 2116.15,-1564.83"/>
<text text-anchor="middle" x="2144.05" y="-1314.28" font-family="Times,serif" font-size="14.00">borax*270840</text>
</g>
<!-- 2,10 (Nickel plate) -->
<g id="node6" class="node">
<title>2,10 (Nickel plate)</title>
<ellipse fill="none" stroke="black" cx="1673.51" cy="-100.56" rx="96.68" ry="18"/>
<text text-anchor="middle" x="1673.51" y="-96.86" font-family="Times,serif" font-size="14.00">2,10 (Nickel plate)</text>
</g>
<!-- &#45;2,7 (item=borax Borax)&#45;&gt;2,10 (Nickel plate) -->
<g id="edge16" class="edge">
<title>&#45;2,7 (item=borax Borax)&#45;&gt;2,10 (Nickel plate)</title>
<path fill="none" stroke="black" stroke-width="0.21" d="M2263.59,-1018.74C2188.84,-902.43 1780,-266.26 1690.73,-127.35"/>
<polygon fill="black" stroke="black" stroke-width="0.21" points="1693.44,-125.1 1685.09,-118.58 1687.55,-128.88 1693.44,-125.1"/>
<text text-anchor="middle" x="1930.66" y="-576.85" font-family="Times,serif" font-size="14.00">borax*12240</text>
</g>
<!-- 3,9 (Copper, molten &amp; plate) -->
<g id="node7" class="node">
<title>3,9 (Copper, molten &amp; plate)</title>
<ellipse fill="none" stroke="black" cx="1099.32" cy="-18" rx="143.77" ry="18"/>
<text text-anchor="middle" x="1099.32" y="-14.3" font-family="Times,serif" font-size="14.00">3,9 (Copper, molten &amp; plate)</text>
</g>
<!-- &#45;2,7 (item=borax Borax)&#45;&gt;3,9 (Copper, molten &amp; plate) -->
<g id="edge5" class="edge">
<title>&#45;2,7 (item=borax Borax)&#45;&gt;3,9 (Copper, molten &amp; plate)</title>
<path fill="none" stroke="black" stroke-width="3.18" d="M2254.68,-1019.13C2113.58,-896.86 1292.62,-185.49 1128.04,-42.89"/>
<polygon fill="black" stroke="black" stroke-width="3.18" points="1130.12,-40.06 1120.27,-36.16 1125.54,-45.35 1130.12,-40.06"/>
<text text-anchor="middle" x="1640.36" y="-534.81" font-family="Times,serif" font-size="14.00">borax*186040</text>
</g>
<!-- &#45;3,2 (Lead and Solder) -->
<g id="node8" class="node">
<title>&#45;3,2 (Lead and Solder)</title>
<ellipse fill="none" stroke="black" cx="2521.26" cy="-1266.15" rx="113.98" ry="18"/>
<text text-anchor="middle" x="2521.26" y="-1262.45" font-family="Times,serif" font-size="14.00">&#45;3,2 (Lead and Solder)</text>
</g>
<!-- &#45;2,7 (item=borax Borax)&#45;&gt;&#45;3,2 (Lead and Solder) -->
<g id="edge7" class="edge">
<title>&#45;2,7 (item=borax Borax)&#45;&gt;&#45;3,2 (Lead and Solder)</title>
<path fill="none" stroke="black" stroke-width="0.26" d="M2294.64,-1055.01C2338.28,-1095.66 2444.61,-1194.74 2494.54,-1241.26"/>
<polygon fill="black" stroke="black" stroke-width="0.26" points="2492.35,-1244 2502.05,-1248.26 2497.12,-1238.88 2492.35,-1244"/>
<text text-anchor="middle" x="2348.09" y="-1151.93" font-family="Times,serif" font-size="14.00">borax*15160</text>
</g>
<!-- &#45;2,9 (molten steel) -->
<g id="node9" class="node">
<title>&#45;2,9 (molten steel)</title>
<ellipse fill="none" stroke="black" cx="571.65" cy="-258.98" rx="95.58" ry="18"/>
<text text-anchor="middle" x="571.65" y="-255.28" font-family="Times,serif" font-size="14.00">&#45;2,9 (molten steel)</text>
</g>
<!-- &#45;2,7 (item=borax Borax)&#45;&gt;&#45;2,9 (molten steel) -->
<g id="edge8" class="edge">
<title>&#45;2,7 (item=borax Borax)&#45;&gt;&#45;2,9 (molten steel)</title>
<path fill="none" stroke="black" stroke-width="1.68" d="M2237.77,-1019.87C2014.44,-917.88 862.91,-391.99 617.63,-279.98"/>
<polygon fill="black" stroke="black" stroke-width="1.68" points="618.84,-276.68 608.29,-275.71 615.93,-283.05 618.84,-276.68"/>
<text text-anchor="middle" x="1381.2" y="-653.73" font-family="Times,serif" font-size="14.00">borax*98240</text>
</g>
<!-- 2,&#45;2 (Tin Plate, Organic Solvent) -->
<g id="node10" class="node">
<title>2,&#45;2 (Tin Plate, Organic Solvent)</title>
<ellipse fill="none" stroke="black" cx="258.03" cy="-746.98" rx="159.77" ry="18"/>
<text text-anchor="middle" x="258.03" y="-743.28" font-family="Times,serif" font-size="14.00">2,&#45;2 (Tin Plate, Organic Solvent)</text>
</g>
<!-- &#45;2,7 (item=borax Borax)&#45;&gt;2,&#45;2 (Tin Plate, Organic Solvent) -->
<g id="edge9" class="edge">
<title>&#45;2,7 (item=borax Borax)&#45;&gt;2,&#45;2 (Tin Plate, Organic Solvent)</title>
<path fill="none" stroke="black" stroke-width="1.27" d="M2187.36,-1024.38C1861.66,-977.55 724.75,-814.09 366.8,-762.62"/>
<polygon fill="black" stroke="black" stroke-width="1.27" points="367.09,-759.13 356.7,-761.17 366.1,-766.06 367.09,-759.13"/>
<text text-anchor="middle" x="1230.58" y="-897.3" font-family="Times,serif" font-size="14.00">borax*74160</text>
</g>
<!-- &#45;4,&#45;4 (Reserved For Aluminium Ore Drop, Aluminium) -->
<g id="node11" class="node">
<title>&#45;4,&#45;4 (Reserved For Aluminium Ore Drop, Aluminium)</title>
<ellipse fill="none" stroke="black" cx="258.03" cy="-1327.08" rx="258.05" ry="18"/>
<text text-anchor="middle" x="258.03" y="-1323.38" font-family="Times,serif" font-size="14.00">&#45;4,&#45;4 (Reserved For Aluminium Ore Drop, Aluminium)</text>
</g>
<!-- &#45;2,7 (item=borax Borax)&#45;&gt;&#45;4,&#45;4 (Reserved For Aluminium Ore Drop, Aluminium) -->
<g id="edge10" class="edge">
<title>&#45;2,7 (item=borax Borax)&#45;&gt;&#45;4,&#45;4 (Reserved For Aluminium Ore Drop, Aluminium)</title>
<path fill="none" stroke="black" stroke-width="1.12" d="M2187.36,-1049.68C1865.82,-1095.91 753.66,-1255.82 380.9,-1309.41"/>
<polygon fill="black" stroke="black" stroke-width="1.12" points="380.29,-1305.96 370.89,-1310.85 381.28,-1312.89 380.29,-1305.96"/>
<text text-anchor="middle" x="1237.63" y="-1183.34" font-family="Times,serif" font-size="14.00">borax*65560</text>
</g>
<!-- &#45;1,11 (Steel Plate (from molten)) -->
<g id="node12" class="node">
<title>&#45;1,11 (Steel Plate (from molten))</title>
<ellipse fill="none" stroke="black" cx="571.65" cy="-1815.08" rx="161.37" ry="18"/>
<text text-anchor="middle" x="571.65" y="-1811.38" font-family="Times,serif" font-size="14.00">&#45;1,11 (Steel Plate (from molten))</text>
</g>
<!-- &#45;2,7 (item=borax Borax)&#45;&gt;&#45;1,11 (Steel Plate (from molten)) -->
<g id="edge11" class="edge">
<title>&#45;2,7 (item=borax Borax)&#45;&gt;&#45;1,11 (Steel Plate (from molten))</title>
<path fill="none" stroke="black" stroke-width="1.38" d="M2237.77,-1054.19C2014.94,-1155.95 867.99,-1679.75 619.27,-1793.33"/>
<polygon fill="black" stroke="black" stroke-width="1.38" points="617.76,-1790.17 610.12,-1797.51 620.67,-1796.54 617.76,-1790.17"/>
<text text-anchor="middle" x="1382.02" y="-1427.56" font-family="Times,serif" font-size="14.00">borax*80720</text>
</g>
<!-- 4,6 (Circuit substrate and Doped silicon) -->
<g id="node13" class="node">
<title>4,6 (Circuit substrate and Doped silicon)</title>
<ellipse fill="none" stroke="black" cx="1099.32" cy="-2056.06" rx="199.56" ry="18"/>
<text text-anchor="middle" x="1099.32" y="-2052.36" font-family="Times,serif" font-size="14.00">4,6 (Circuit substrate and Doped silicon)</text>
</g>
<!-- &#45;2,7 (item=borax Borax)&#45;&gt;4,6 (Circuit substrate and Doped silicon) -->
<g id="edge19" class="edge">
<title>&#45;2,7 (item=borax Borax)&#45;&gt;4,6 (Circuit substrate and Doped silicon)</title>
<path fill="none" stroke="black" stroke-width="0.15" d="M2254.68,-1054.93C2113.58,-1177.2 1292.62,-1888.57 1128.04,-2031.17"/>
<polygon fill="black" stroke="black" stroke-width="0.15" points="1125.54,-2028.71 1120.27,-2037.9 1130.12,-2034 1125.54,-2028.71"/>
<text text-anchor="middle" x="1649.36" y="-1546.85" font-family="Times,serif" font-size="14.00">borax*8800</text>
</g>
<!-- &#45;3,&#45;1 (item=boron&#45;trioxide Boron products 2) -->
<g id="node5" class="node">
<title>&#45;3,&#45;1 (item=boron&#45;trioxide Boron products 2)</title>
<ellipse fill="none" stroke="black" cx="1673.51" cy="-1973.5" rx="219.06" ry="18"/>
<text text-anchor="middle" x="1673.51" y="-1969.8" font-family="Times,serif" font-size="14.00">&#45;3,&#45;1 (item=boron&#45;trioxide Boron products 2)</text>
</g>
<!-- &#45;3,&#45;1 (item=boron&#45;trioxide Boron products 2)&#45;&gt;1,12 (Molten Iron) -->
<g id="edge6" class="edge">
<title>&#45;3,&#45;1 (item=boron&#45;trioxide Boron products 2)&#45;&gt;1,12 (Molten Iron)</title>
<path fill="none" stroke="black" stroke-width="0.85" d="M1678.81,-1955.43C1724.29,-1800.56 2048.02,-698.03 2103.75,-508.22"/>
<polygon fill="black" stroke="black" stroke-width="0.85" points="2107.16,-509.03 2106.62,-498.45 2100.45,-507.06 2107.16,-509.03"/>
<text text-anchor="middle" x="1844.78" y="-1235.63" font-family="Times,serif" font-size="14.00">borax*49552</text>
</g>
<!-- &#45;3,&#45;1 (item=boron&#45;trioxide Boron products 2)&#45;&gt;&#45;1,10 (Iron Plates) -->
<g id="edge13" class="edge">
<title>&#45;3,&#45;1 (item=boron&#45;trioxide Boron products 2)&#45;&gt;&#45;1,10 (Iron Plates)</title>
<path fill="none" stroke="black" stroke-width="0.41" d="M1694.36,-1955.44C1765.92,-1893.43 2001.64,-1689.17 2083.56,-1618.19"/>
<polygon fill="black" stroke="black" stroke-width="0.41" points="2086.18,-1620.55 2091.44,-1611.36 2081.59,-1615.26 2086.18,-1620.55"/>
<text text-anchor="middle" x="1842.46" y="-1790.61" font-family="Times,serif" font-size="14.00">borax*23856</text>
</g>
<!-- &#45;3,&#45;1 (item=boron&#45;trioxide Boron products 2)&#45;&gt;2,10 (Nickel plate) -->
<g id="edge4" class="edge">
<title>&#45;3,&#45;1 (item=boron&#45;trioxide Boron products 2)&#45;&gt;2,10 (Nickel plate)</title>
<path fill="none" stroke="black" stroke-width="0.09" d="M1673.51,-1955.27C1673.51,-1777.06 1673.51,-348.06 1673.51,-128.76"/>
<polygon fill="black" stroke="black" stroke-width="0.09" points="1677.01,-128.7 1673.51,-118.7 1670.01,-128.7 1677.01,-128.7"/>
<text text-anchor="middle" x="1631.51" y="-1045.81" font-family="Times,serif" font-size="14.00">borax*5440</text>
</g>
<!-- &#45;3,&#45;1 (item=boron&#45;trioxide Boron products 2)&#45;&gt;3,9 (Copper, molten &amp; plate) -->
<g id="edge18" class="edge">
<title>&#45;3,&#45;1 (item=boron&#45;trioxide Boron products 2)&#45;&gt;3,9 (Copper, molten &amp; plate)</title>
<path fill="none" stroke="black" stroke-width="0.53" d="M1668.19,-1955.39C1614.63,-1772.99 1173.18,-269.53 1107.48,-45.8"/>
<polygon fill="black" stroke="black" stroke-width="0.53" points="1110.82,-44.73 1104.64,-36.12 1104.1,-46.7 1110.82,-44.73"/>
<text text-anchor="middle" x="1341.34" y="-1004.4" font-family="Times,serif" font-size="14.00">borax*31288</text>
</g>
<!-- &#45;3,&#45;1 (item=boron&#45;trioxide Boron products 2)&#45;&gt;&#45;2,9 (molten steel) -->
<g id="edge15" class="edge">
<title>&#45;3,&#45;1 (item=boron&#45;trioxide Boron products 2)&#45;&gt;&#45;2,9 (molten steel)</title>
<path fill="none" stroke="black" stroke-width="0.43" d="M1661.88,-1955.41C1553.38,-1786.58 719.27,-488.68 588.79,-285.65"/>
<polygon fill="black" stroke="black" stroke-width="0.43" points="591.63,-283.6 583.28,-277.08 585.74,-287.38 591.63,-283.6"/>
<text text-anchor="middle" x="1078.83" y="-1124.33" font-family="Times,serif" font-size="14.00">borax*25216</text>
</g>
<!-- &#45;3,&#45;1 (item=boron&#45;trioxide Boron products 2)&#45;&gt;2,&#45;2 (Tin Plate, Organic Solvent) -->
<g id="edge20" class="edge">
<title>&#45;3,&#45;1 (item=boron&#45;trioxide Boron products 2)&#45;&gt;2,&#45;2 (Tin Plate, Organic Solvent)</title>
<path fill="none" stroke="black" stroke-width="0.12" d="M1652.68,-1955.45C1493.47,-1817.51 470.59,-931.17 286.42,-771.58"/>
<polygon fill="black" stroke="black" stroke-width="0.12" points="288.61,-768.86 278.76,-764.95 284.03,-774.15 288.61,-768.86"/>
<text text-anchor="middle" x="927.55" y="-1367.32" font-family="Times,serif" font-size="14.00">borax*7088</text>
</g>
<!-- &#45;3,&#45;1 (item=boron&#45;trioxide Boron products 2)&#45;&gt;&#45;4,&#45;4 (Reserved For Aluminium Ore Drop, Aluminium) -->
<g id="edge12" class="edge">
<title>&#45;3,&#45;1 (item=boron&#45;trioxide Boron products 2)&#45;&gt;&#45;4,&#45;4 (Reserved For Aluminium Ore Drop, Aluminium)</title>
<path fill="none" stroke="black" stroke-width="0.19" d="M1634.54,-1955.71C1434.91,-1864.54 527.49,-1450.13 306.6,-1349.26"/>
<polygon fill="black" stroke="black" stroke-width="0.19" points="307.76,-1345.94 297.21,-1344.97 304.86,-1352.31 307.76,-1345.94"/>
<text text-anchor="middle" x="924.07" y="-1656.29" font-family="Times,serif" font-size="14.00">borax*10960</text>
</g>
<!-- &#45;3,&#45;1 (item=boron&#45;trioxide Boron products 2)&#45;&gt;&#45;1,11 (Steel Plate (from molten)) -->
<g id="edge17" class="edge">
<title>&#45;3,&#45;1 (item=boron&#45;trioxide Boron products 2)&#45;&gt;&#45;1,11 (Steel Plate (from molten))</title>
<path fill="none" stroke="black" stroke-width="0.09" d="M1564.59,-1957.84C1353.72,-1927.53 891.92,-1861.13 680.83,-1830.78"/>
<polygon fill="black" stroke="black" stroke-width="0.09" points="681.06,-1827.28 670.67,-1829.32 680.07,-1834.21 681.06,-1827.28"/>
<text text-anchor="middle" x="1080.71" y="-1898.11" font-family="Times,serif" font-size="14.00">borax*5344</text>
</g>
<!-- &#45;3,&#45;1 (item=boron&#45;trioxide Boron products 2)&#45;&gt;4,6 (Circuit substrate and Doped silicon) -->
<g id="edge14" class="edge">
<title>&#45;3,&#45;1 (item=boron&#45;trioxide Boron products 2)&#45;&gt;4,6 (Circuit substrate and Doped silicon)</title>
<path fill="none" stroke="black" stroke-width="0.05" d="M1564.49,-1989.18C1464.71,-2003.52 1317.5,-2024.69 1215.51,-2039.35"/>
<polygon fill="black" stroke="black" stroke-width="0.05" points="1214.88,-2035.91 1205.48,-2040.8 1215.88,-2042.84 1214.88,-2035.91"/>
<text text-anchor="middle" x="1348" y="-2018.07" font-family="Times,serif" font-size="14.00">borax*2640</text>
</g>
</g>
</svg>
