<?xml version="1.0" encoding="UTF-8" standalone="no"?>
<!DOCTYPE svg PUBLIC "-//W3C//DTD SVG 1.1//EN"
 "http://www.w3.org/Graphics/SVG/1.1/DTD/svg11.dtd">
<!-- Generated by graphviz version 2.43.0 (0)
 -->
<!-- Title: %3 Pages: 1 -->
<svg width="1331pt" height="965pt"
 viewBox="0.00 0.00 1330.52 964.86" xmlns="http://www.w3.org/2000/svg" xmlns:xlink="http://www.w3.org/1999/xlink">
<g id="graph0" class="graph" transform="scale(1 1) rotate(0) translate(4 960.86)">
<title>%3</title>
<polygon fill="white" stroke="transparent" points="-4,4 -4,-960.86 1326.52,-960.86 1326.52,4 -4,4"/>
<!-- 4,14 () -->
<g id="node1" class="node">
<title>4,14 ()</title>
<ellipse fill="none" stroke="black" cx="536.47" cy="-18" rx="40.89" ry="18"/>
<text text-anchor="middle" x="536.47" y="-14.3" font-family="Times,serif" font-size="14.00">4,14 ()</text>
</g>
<!-- 2,8 (Graphite) -->
<g id="node2" class="node">
<title>2,8 (Graphite)</title>
<ellipse fill="none" stroke="black" cx="76.04" cy="-478.43" rx="76.09" ry="18"/>
<text text-anchor="middle" x="76.04" y="-474.73" font-family="Times,serif" font-size="14.00">2,8 (Graphite)</text>
</g>
<!-- 4,14 ()&#45;&gt;2,8 (Graphite) -->
<g id="edge1" class="edge">
<title>4,14 ()&#45;&gt;2,8 (Graphite)</title>
<path fill="none" stroke="black" stroke-width="1.23" d="M519.81,-34.66C450.47,-104 184.45,-370.03 101.14,-453.34"/>
<polygon fill="black" stroke="black" stroke-width="1.23" points="98.26,-451.27 93.66,-460.81 103.21,-456.22 98.26,-451.27"/>
<text text-anchor="middle" x="249.98" y="-247.8" font-family="Times,serif" font-size="14.00">raw&#45;coal*291834</text>
</g>
<!-- &#45;5,&#45;1 (Coal and Coke and Syngas and Ash and Coke Oven Gas and...) -->
<g id="node4" class="node">
<title>&#45;5,&#45;1 (Coal and Coke and Syngas and Ash and Coke Oven Gas and...)</title>
<ellipse fill="none" stroke="black" cx="996.9" cy="-478.43" rx="325.74" ry="18"/>
<text text-anchor="middle" x="996.9" y="-474.73" font-family="Times,serif" font-size="14.00">&#45;5,&#45;1 (Coal and Coke and Syngas and Ash and Coke Oven Gas and...)</text>
</g>
<!-- 4,14 ()&#45;&gt;&#45;5,&#45;1 (Coal and Coke and Syngas and Ash and Coke Oven Gas and...) -->
<g id="edge4" class="edge">
<title>4,14 ()&#45;&gt;&#45;5,&#45;1 (Coal and Coke and Syngas and Ash and Coke Oven Gas and...)</title>
<path fill="none" stroke="black" stroke-width="1.17" d="M553.13,-34.66C622.39,-103.92 887.84,-369.37 971.5,-453.02"/>
<polygon fill="black" stroke="black" stroke-width="1.17" points="969.24,-455.72 978.79,-460.32 974.19,-450.77 969.24,-455.72"/>
<text text-anchor="middle" x="701.81" y="-247.64" font-family="Times,serif" font-size="14.00">raw&#45;coal*278442</text>
</g>
<!-- &#45;6,6 (coal pickup train station, titanium pickup station) -->
<g id="node3" class="node">
<title>&#45;6,6 (coal pickup train station, titanium pickup station)</title>
<ellipse fill="none" stroke="black" cx="536.47" cy="-938.86" rx="264.55" ry="18"/>
<text text-anchor="middle" x="536.47" y="-935.16" font-family="Times,serif" font-size="14.00">&#45;6,6 (coal pickup train station, titanium pickup station)</text>
</g>
<!-- &#45;6,6 (coal pickup train station, titanium pickup station)&#45;&gt;2,8 (Graphite) -->
<g id="edge3" class="edge">
<title>&#45;6,6 (coal pickup train station, titanium pickup station)&#45;&gt;2,8 (Graphite)</title>
<path fill="none" stroke="black" stroke-width="0.75" d="M518.42,-920.81C446.99,-849.38 183.94,-586.32 101.16,-503.54"/>
<polygon fill="black" stroke="black" stroke-width="0.75" points="103.27,-500.7 93.72,-496.11 98.32,-505.65 103.27,-500.7"/>
<text text-anchor="middle" x="249.29" y="-715.98" font-family="Times,serif" font-size="14.00">raw&#45;coal*178240</text>
</g>
<!-- &#45;6,6 (coal pickup train station, titanium pickup station)&#45;&gt;&#45;5,&#45;1 (Coal and Coke and Syngas and Ash and Coke Oven Gas and...) -->
<g id="edge2" class="edge">
<title>&#45;6,6 (coal pickup train station, titanium pickup station)&#45;&gt;&#45;5,&#45;1 (Coal and Coke and Syngas and Ash and Coke Oven Gas and...)</title>
<path fill="none" stroke="black" stroke-width="0.85" d="M554.52,-920.81C625.8,-849.54 887.83,-587.51 971.23,-504.11"/>
<polygon fill="black" stroke="black" stroke-width="0.85" points="974.13,-506.15 978.73,-496.6 969.18,-501.2 974.13,-506.15"/>
<text text-anchor="middle" x="702.38" y="-716.26" font-family="Times,serif" font-size="14.00">raw&#45;coal*202400</text>
</g>
</g>
</svg>
