<?xml version="1.0" encoding="UTF-8" standalone="no"?>
<!DOCTYPE svg PUBLIC "-//W3C//DTD SVG 1.1//EN"
 "http://www.w3.org/Graphics/SVG/1.1/DTD/svg11.dtd">
<!-- Generated by graphviz version 2.43.0 (0)
 -->
<!-- Title: %3 Pages: 1 -->
<svg width="1413pt" height="976pt"
 viewBox="0.00 0.00 1412.80 975.78" xmlns="http://www.w3.org/2000/svg" xmlns:xlink="http://www.w3.org/1999/xlink">
<g id="graph0" class="graph" transform="scale(1 1) rotate(0) translate(4 971.78)">
<title>%3</title>
<polygon fill="white" stroke="transparent" points="-4,4 -4,-971.78 1408.8,-971.78 1408.8,4 -4,4"/>
<!-- &#45;5,&#45;4 (low priority (slaked)? lime) -->
<g id="node1" class="node">
<title>&#45;5,&#45;4 (low priority (slaked)? lime)</title>
<ellipse fill="none" stroke="black" cx="1052.63" cy="-18" rx="162.47" ry="18"/>
<text text-anchor="middle" x="1052.63" y="-14.3" font-family="Times,serif" font-size="14.00">&#45;5,&#45;4 (low priority (slaked)? lime)</text>
</g>
<!-- &#45;3,5 (fluid=arqad&#45;honey Honey) -->
<g id="node2" class="node">
<title>&#45;3,5 (fluid=arqad&#45;honey Honey)</title>
<ellipse fill="none" stroke="black" cx="514.66" cy="-18" rx="157.07" ry="18"/>
<text text-anchor="middle" x="514.66" y="-14.3" font-family="Times,serif" font-size="14.00">&#45;3,5 (fluid=arqad&#45;honey Honey)</text>
</g>
<!-- &#45;5,&#45;4 (low priority (slaked)? lime)&#45;&gt;&#45;3,5 (fluid=arqad&#45;honey Honey) -->
<g id="edge1" class="edge">
<title>&#45;5,&#45;4 (low priority (slaked)? lime)&#45;&gt;&#45;3,5 (fluid=arqad&#45;honey Honey)</title>
<path fill="none" stroke="black" stroke-width="0.75" d="M890.12,-18C824.37,-18 748.49,-18 682.23,-18"/>
<polygon fill="black" stroke="black" stroke-width="0.75" points="682.1,-14.5 672.1,-18 682.1,-21.5 682.1,-14.5"/>
<text text-anchor="middle" x="786.18" y="-6.8" font-family="Times,serif" font-size="14.00">acetylene&#45;barrel*26365</text>
</g>
<!-- 0,0 (LE BUS) -->
<g id="node6" class="node">
<title>0,0 (LE BUS)</title>
<ellipse fill="none" stroke="black" cx="1052.63" cy="-949.78" rx="71.49" ry="18"/>
<text text-anchor="middle" x="1052.63" y="-946.08" font-family="Times,serif" font-size="14.00">0,0 (LE BUS)</text>
</g>
<!-- &#45;5,&#45;4 (low priority (slaked)? lime)&#45;&gt;0,0 (LE BUS) -->
<g id="edge5" class="edge">
<title>&#45;5,&#45;4 (low priority (slaked)? lime)&#45;&gt;0,0 (LE BUS)</title>
<path fill="none" stroke="black" stroke-width="0.68" d="M1052.63,-36.19C1052.63,-151.45 1052.63,-779.77 1052.63,-921.41"/>
<polygon fill="black" stroke="black" stroke-width="0.68" points="1049.13,-921.47 1052.63,-931.47 1056.13,-921.47 1049.13,-921.47"/>
<text text-anchor="middle" x="968.13" y="-482.6" font-family="Times,serif" font-size="14.00">acetylene&#45;barrel*23613</text>
</g>
<!-- &#45;2,6 (Wrong ratio of Calcium Carbide to Acetalene) -->
<g id="node3" class="node">
<title>&#45;2,6 (Wrong ratio of Calcium Carbide to Acetalene)</title>
<ellipse fill="none" stroke="black" cx="245.68" cy="-483.89" rx="245.86" ry="18"/>
<text text-anchor="middle" x="245.68" y="-480.19" font-family="Times,serif" font-size="14.00">&#45;2,6 (Wrong ratio of Calcium Carbide to Acetalene)</text>
</g>
<!-- &#45;2,6 (Wrong ratio of Calcium Carbide to Acetalene)&#45;&gt;&#45;3,5 (fluid=arqad&#45;honey Honey) -->
<g id="edge2" class="edge">
<title>&#45;2,6 (Wrong ratio of Calcium Carbide to Acetalene)&#45;&gt;&#45;3,5 (fluid=arqad&#45;honey Honey)</title>
<path fill="none" stroke="black" stroke-width="1.7" d="M256.22,-465.63C297.7,-393.79 449.74,-130.45 499.08,-44.98"/>
<polygon fill="black" stroke="black" stroke-width="1.7" points="502.22,-46.55 504.19,-36.14 496.16,-43.05 502.22,-46.55"/>
<text text-anchor="middle" x="293.15" y="-259.1" font-family="Times,serif" font-size="14.00">acetylene&#45;barrel*59392</text>
</g>
<!-- &#45;2,6 (Wrong ratio of Calcium Carbide to Acetalene)&#45;&gt;0,0 (LE BUS) -->
<g id="edge8" class="edge">
<title>&#45;2,6 (Wrong ratio of Calcium Carbide to Acetalene)&#45;&gt;0,0 (LE BUS)</title>
<path fill="none" stroke="black" stroke-width="0.56" d="M276.82,-501.87C403.1,-574.78 876.86,-848.3 1014.75,-927.92"/>
<polygon fill="black" stroke="black" stroke-width="0.56" points="1013.31,-931.12 1023.72,-933.09 1016.81,-925.06 1013.31,-931.12"/>
<text text-anchor="middle" x="561.28" y="-718.69" font-family="Times,serif" font-size="14.00">acetylene&#45;barrel*19512</text>
</g>
<!-- &#45;6,5 (Acetelyne) -->
<g id="node4" class="node">
<title>&#45;6,5 (Acetelyne)</title>
<ellipse fill="none" stroke="black" cx="1321.61" cy="-483.89" rx="83.39" ry="18"/>
<text text-anchor="middle" x="1321.61" y="-480.19" font-family="Times,serif" font-size="14.00">&#45;6,5 (Acetelyne)</text>
</g>
<!-- &#45;6,5 (Acetelyne)&#45;&gt;&#45;3,5 (fluid=arqad&#45;honey Honey) -->
<g id="edge3" class="edge">
<title>&#45;6,5 (Acetelyne)&#45;&gt;&#45;3,5 (fluid=arqad&#45;honey Honey)</title>
<path fill="none" stroke="black" stroke-width="2.47" d="M1292.41,-467.04C1169.65,-396.16 695.21,-122.24 554.33,-40.9"/>
<polygon fill="black" stroke="black" stroke-width="2.47" points="555.95,-37.79 545.53,-35.83 552.45,-43.86 555.95,-37.79"/>
<text text-anchor="middle" x="838.87" y="-257.77" font-family="Times,serif" font-size="14.00">acetylene&#45;barrel*86136</text>
</g>
<!-- &#45;6,5 (Acetelyne)&#45;&gt;0,0 (LE BUS) -->
<g id="edge7" class="edge">
<title>&#45;6,5 (Acetelyne)&#45;&gt;0,0 (LE BUS)</title>
<path fill="none" stroke="black" stroke-width="0.65" d="M1311.23,-501.87C1269.96,-573.36 1117.34,-837.7 1068.07,-923.04"/>
<polygon fill="black" stroke="black" stroke-width="0.65" points="1064.94,-921.45 1062.98,-931.86 1071.01,-924.95 1064.94,-921.45"/>
<text text-anchor="middle" x="1105.15" y="-716.25" font-family="Times,serif" font-size="14.00">acetylene&#45;barrel*22816</text>
</g>
<!-- &#45;5,1 (Acetylene) -->
<g id="node5" class="node">
<title>&#45;5,1 (Acetylene)</title>
<ellipse fill="none" stroke="black" cx="514.66" cy="-949.78" rx="83.39" ry="18"/>
<text text-anchor="middle" x="514.66" y="-946.08" font-family="Times,serif" font-size="14.00">&#45;5,1 (Acetylene)</text>
</g>
<!-- &#45;5,1 (Acetylene)&#45;&gt;&#45;3,5 (fluid=arqad&#45;honey Honey) -->
<g id="edge6" class="edge">
<title>&#45;5,1 (Acetylene)&#45;&gt;&#45;3,5 (fluid=arqad&#45;honey Honey)</title>
<path fill="none" stroke="black" stroke-width="0.76" d="M514.66,-931.59C514.66,-816.33 514.66,-188.01 514.66,-46.37"/>
<polygon fill="black" stroke="black" stroke-width="0.76" points="518.16,-46.31 514.66,-36.31 511.16,-46.31 518.16,-46.31"/>
<text text-anchor="middle" x="599.16" y="-492.78" font-family="Times,serif" font-size="14.00">acetylene&#45;barrel*26480</text>
</g>
<!-- &#45;5,1 (Acetylene)&#45;&gt;0,0 (LE BUS) -->
<g id="edge4" class="edge">
<title>&#45;5,1 (Acetylene)&#45;&gt;0,0 (LE BUS)</title>
<path fill="none" stroke="black" stroke-width="0.43" d="M598.13,-949.78C699.7,-949.78 870.1,-949.78 970.89,-949.78"/>
<polygon fill="black" stroke="black" stroke-width="0.43" points="971.02,-953.28 981.02,-949.78 971.02,-946.28 971.02,-953.28"/>
<text text-anchor="middle" x="700.01" y="-953.58" font-family="Times,serif" font-size="14.00">acetylene&#45;barrel*15168</text>
</g>
</g>
</svg>
