<?xml version="1.0" encoding="UTF-8" standalone="no"?>
<!DOCTYPE svg PUBLIC "-//W3C//DTD SVG 1.1//EN"
 "http://www.w3.org/Graphics/SVG/1.1/DTD/svg11.dtd">
<!-- Generated by graphviz version 2.43.0 (0)
 -->
<!-- Title: %3 Pages: 1 -->
<svg width="966pt" height="870pt"
 viewBox="0.00 0.00 966.11 870.25" xmlns="http://www.w3.org/2000/svg" xmlns:xlink="http://www.w3.org/1999/xlink">
<g id="graph0" class="graph" transform="scale(1 1) rotate(0) translate(4 866.25)">
<title>%3</title>
<polygon fill="white" stroke="transparent" points="-4,4 -4,-866.25 962.11,-866.25 962.11,4 -4,4"/>
<!-- 4,3 (item=nexelit&#45;plate Nexelit platery) -->
<g id="node1" class="node">
<title>4,3 (item=nexelit&#45;plate Nexelit platery)</title>
<ellipse fill="none" stroke="black" cx="472.75" cy="-430.84" rx="194.17" ry="18"/>
<text text-anchor="middle" x="472.75" y="-427.14" font-family="Times,serif" font-size="14.00">4,3 (item=nexelit&#45;plate Nexelit platery)</text>
</g>
<!-- 0,0 (LE BUS) -->
<g id="node2" class="node">
<title>0,0 (LE BUS)</title>
<ellipse fill="none" stroke="black" cx="886.62" cy="-430.84" rx="71.49" ry="18"/>
<text text-anchor="middle" x="886.62" y="-427.14" font-family="Times,serif" font-size="14.00">0,0 (LE BUS)</text>
</g>
<!-- 4,3 (item=nexelit&#45;plate Nexelit platery)&#45;&gt;0,0 (LE BUS) -->
<g id="edge1" class="edge">
<title>4,3 (item=nexelit&#45;plate Nexelit platery)&#45;&gt;0,0 (LE BUS)</title>
<path fill="none" stroke="black" stroke-width="0.25" d="M667.26,-430.84C715.71,-430.84 765.08,-430.84 804.67,-430.84"/>
<polygon fill="black" stroke="black" stroke-width="0.25" points="804.79,-434.34 814.79,-430.84 804.79,-427.34 804.79,-434.34"/>
<text text-anchor="middle" x="735.97" y="-419.64" font-family="Times,serif" font-size="14.00">nexelit&#45;plate*4912</text>
</g>
<!-- &#45;4,&#45;2 (For Science!) -->
<g id="node3" class="node">
<title>&#45;4,&#45;2 (For Science!)</title>
<ellipse fill="none" stroke="black" cx="492.24" cy="-844.25" rx="98.58" ry="18"/>
<text text-anchor="middle" x="492.24" y="-840.55" font-family="Times,serif" font-size="14.00">&#45;4,&#45;2 (For Science!)</text>
</g>
<!-- 4,3 (item=nexelit&#45;plate Nexelit platery)&#45;&gt;&#45;4,&#45;2 (For Science!) -->
<g id="edge2" class="edge">
<title>4,3 (item=nexelit&#45;plate Nexelit platery)&#45;&gt;&#45;4,&#45;2 (For Science!)</title>
<path fill="none" stroke="black" stroke-width="0.99" d="M473.6,-448.87C476.66,-513.88 487.16,-736.59 490.9,-815.91"/>
<polygon fill="black" stroke="black" stroke-width="0.99" points="487.42,-816.3 491.38,-826.12 494.41,-815.97 487.42,-816.3"/>
<text text-anchor="middle" x="411.25" y="-636.19" font-family="Times,serif" font-size="14.00">nexelit&#45;plate*19312</text>
</g>
<!-- 4,&#45;1 (Fluid) -->
<g id="node4" class="node">
<title>4,&#45;1 (Fluid)</title>
<ellipse fill="none" stroke="black" cx="61.74" cy="-479.47" rx="61.99" ry="18"/>
<text text-anchor="middle" x="61.74" y="-475.77" font-family="Times,serif" font-size="14.00">4,&#45;1 (Fluid)</text>
</g>
<!-- 4,3 (item=nexelit&#45;plate Nexelit platery)&#45;&gt;4,&#45;1 (Fluid) -->
<g id="edge3" class="edge">
<title>4,3 (item=nexelit&#45;plate Nexelit platery)&#45;&gt;4,&#45;1 (Fluid)</title>
<path fill="none" stroke="black" stroke-width="1.37" d="M352.76,-445.03C279.97,-453.65 189.75,-464.32 129.23,-471.48"/>
<polygon fill="black" stroke="black" stroke-width="1.37" points="128.55,-468.04 119.03,-472.69 129.37,-474.99 128.55,-468.04"/>
<text text-anchor="middle" x="170" y="-447.06" font-family="Times,serif" font-size="14.00">nexelit&#45;plate*26656</text>
</g>
<!-- 2,7 (Mystery petrochemicals) -->
<g id="node5" class="node">
<title>2,7 (Mystery petrochemicals)</title>
<ellipse fill="none" stroke="black" cx="443.52" cy="-18" rx="147.57" ry="18"/>
<text text-anchor="middle" x="443.52" y="-14.3" font-family="Times,serif" font-size="14.00">2,7 (Mystery petrochemicals)</text>
</g>
<!-- 4,3 (item=nexelit&#45;plate Nexelit platery)&#45;&gt;2,7 (Mystery petrochemicals) -->
<g id="edge4" class="edge">
<title>4,3 (item=nexelit&#45;plate Nexelit platery)&#45;&gt;2,7 (Mystery petrochemicals)</title>
<path fill="none" stroke="black" stroke-width="1.39" d="M471.47,-412.83C466.88,-347.91 451.13,-125.5 445.53,-46.29"/>
<polygon fill="black" stroke="black" stroke-width="1.39" points="449,-45.83 444.8,-36.1 442.02,-46.32 449,-45.83"/>
<text text-anchor="middle" x="387.5" y="-233.36" font-family="Times,serif" font-size="14.00">nexelit&#45;plate*27216</text>
</g>
</g>
</svg>
