<?xml version="1.0" encoding="UTF-8" standalone="no"?>
<!DOCTYPE svg PUBLIC "-//W3C//DTD SVG 1.1//EN"
 "http://www.w3.org/Graphics/SVG/1.1/DTD/svg11.dtd">
<!-- Generated by graphviz version 2.43.0 (0)
 -->
<!-- Title: %3 Pages: 1 -->
<svg width="1260pt" height="1028pt"
 viewBox="0.00 0.00 1260.36 1027.98" xmlns="http://www.w3.org/2000/svg" xmlns:xlink="http://www.w3.org/1999/xlink">
<g id="graph0" class="graph" transform="scale(1 1) rotate(0) translate(4 1023.98)">
<title>%3</title>
<polygon fill="white" stroke="transparent" points="-4,4 -4,-1023.98 1256.36,-1023.98 1256.36,4 -4,4"/>
<!-- &#45;1,5 (Train stops for bus brick) -->
<g id="node1" class="node">
<title>&#45;1,5 (Train stops for bus brick)</title>
<ellipse fill="none" stroke="black" cx="641.55" cy="-467.85" rx="152.17" ry="18"/>
<text text-anchor="middle" x="641.55" y="-464.15" font-family="Times,serif" font-size="14.00">&#45;1,5 (Train stops for bus brick)</text>
</g>
<!-- &#45;3,8 (Urea) -->
<g id="node2" class="node">
<title>&#45;3,8 (Urea)</title>
<ellipse fill="none" stroke="black" cx="1191.26" cy="-467.85" rx="61.19" ry="18"/>
<text text-anchor="middle" x="1191.26" y="-464.15" font-family="Times,serif" font-size="14.00">&#45;3,8 (Urea)</text>
</g>
<!-- &#45;1,5 (Train stops for bus brick)&#45;&gt;&#45;3,8 (Urea) -->
<g id="edge1" class="edge">
<title>&#45;1,5 (Train stops for bus brick)&#45;&gt;&#45;3,8 (Urea)</title>
<path fill="none" stroke="black" stroke-width="1.4" d="M793.95,-467.85C900.44,-467.85 1037.77,-467.85 1119.93,-467.85"/>
<polygon fill="black" stroke="black" stroke-width="1.4" points="1120.16,-471.35 1130.16,-467.85 1120.16,-464.35 1120.16,-471.35"/>
<text text-anchor="middle" x="912.44" y="-471.65" font-family="Times,serif" font-size="14.00">moss*32912</text>
</g>
<!-- 0,10 (item=meat Meat) -->
<g id="node3" class="node">
<title>0,10 (item=meat Meat)</title>
<ellipse fill="none" stroke="black" cx="511.61" cy="-1001.98" rx="120.48" ry="18"/>
<text text-anchor="middle" x="511.61" y="-998.28" font-family="Times,serif" font-size="14.00">0,10 (item=meat Meat)</text>
</g>
<!-- &#45;1,5 (Train stops for bus brick)&#45;&gt;0,10 (item=meat Meat) -->
<g id="edge2" class="edge">
<title>&#45;1,5 (Train stops for bus brick)&#45;&gt;0,10 (item=meat Meat)</title>
<path fill="none" stroke="black" stroke-width="1.51" d="M637.16,-485.93C617.99,-564.7 541.69,-878.34 518.39,-974.08"/>
<polygon fill="black" stroke="black" stroke-width="1.51" points="514.97,-973.36 516,-983.9 521.77,-975.01 514.97,-973.36"/>
<text text-anchor="middle" x="533.28" y="-733.8" font-family="Times,serif" font-size="14.00">moss*35632</text>
</g>
<!-- &#45;1,6 (Flimble&#39;s Slaughterhouse and Daycare Centre, Auog Products) -->
<g id="node4" class="node">
<title>&#45;1,6 (Flimble&#39;s Slaughterhouse and Daycare Centre, Auog Products)</title>
<ellipse fill="none" stroke="black" cx="325.62" cy="-18" rx="325.74" ry="18"/>
<text text-anchor="middle" x="325.62" y="-14.3" font-family="Times,serif" font-size="14.00">&#45;1,6 (Flimble&#39;s Slaughterhouse and Daycare Centre, Auog Products)</text>
</g>
<!-- &#45;1,5 (Train stops for bus brick)&#45;&gt;&#45;1,6 (Flimble&#39;s Slaughterhouse and Daycare Centre, Auog Products) -->
<g id="edge3" class="edge">
<title>&#45;1,5 (Train stops for bus brick)&#45;&gt;&#45;1,6 (Flimble&#39;s Slaughterhouse and Daycare Centre, Auog Products)</title>
<path fill="none" stroke="black" stroke-width="0.09" d="M628.78,-449.66C579.66,-379.72 402.81,-127.9 344.45,-44.81"/>
<polygon fill="black" stroke="black" stroke-width="0.09" points="347.17,-42.59 338.56,-36.42 341.44,-46.61 347.17,-42.59"/>
<text text-anchor="middle" x="446.61" y="-251.03" font-family="Times,serif" font-size="14.00">moss*2016</text>
</g>
</g>
</svg>
