<?xml version="1.0" encoding="UTF-8" standalone="no"?>
<!DOCTYPE svg PUBLIC "-//W3C//DTD SVG 1.1//EN"
 "http://www.w3.org/Graphics/SVG/1.1/DTD/svg11.dtd">
<!-- Generated by graphviz version 2.43.0 (0)
 -->
<!-- Title: %3 Pages: 1 -->
<svg width="692pt" height="558pt"
 viewBox="0.00 0.00 692.22 558.42" xmlns="http://www.w3.org/2000/svg" xmlns:xlink="http://www.w3.org/1999/xlink">
<g id="graph0" class="graph" transform="scale(1 1) rotate(0) translate(4 554.42)">
<title>%3</title>
<polygon fill="white" stroke="transparent" points="-4,4 -4,-554.42 688.22,-554.42 688.22,4 -4,4"/>
<!-- 2,6 (Refined Syngas, Nisi) -->
<g id="node1" class="node">
<title>2,6 (Refined Syngas, Nisi)</title>
<ellipse fill="none" stroke="black" cx="278.8" cy="-289.51" rx="131.88" ry="18"/>
<text text-anchor="middle" x="278.8" y="-285.81" font-family="Times,serif" font-size="14.00">2,6 (Refined Syngas, Nisi)</text>
</g>
<!-- 0,8 (Tar from Coke) -->
<g id="node2" class="node">
<title>0,8 (Tar from Coke)</title>
<ellipse fill="none" stroke="black" cx="583.48" cy="-289.51" rx="100.98" ry="18"/>
<text text-anchor="middle" x="583.48" y="-285.81" font-family="Times,serif" font-size="14.00">0,8 (Tar from Coke)</text>
</g>
<!-- 2,6 (Refined Syngas, Nisi)&#45;&gt;0,8 (Tar from Coke) -->
<g id="edge1" class="edge">
<title>2,6 (Refined Syngas, Nisi)&#45;&gt;0,8 (Tar from Coke)</title>
<path fill="none" stroke="black" stroke-width="2.25" d="M411.11,-289.51C431.58,-289.51 452.54,-289.51 472.48,-289.51"/>
<polygon fill="black" stroke="black" stroke-width="2.25" points="472.49,-293.01 482.49,-289.51 472.49,-286.01 472.49,-293.01"/>
<text text-anchor="middle" x="441.8" y="-278.31" font-family="Times,serif" font-size="14.00">refsyngas&#45;barrel*54840</text>
</g>
<!-- 3,1 (Mining Brick) -->
<g id="node3" class="node">
<title>3,1 (Mining Brick)</title>
<ellipse fill="none" stroke="black" cx="94.89" cy="-532.42" rx="94.78" ry="18"/>
<text text-anchor="middle" x="94.89" y="-528.72" font-family="Times,serif" font-size="14.00">3,1 (Mining Brick)</text>
</g>
<!-- 2,6 (Refined Syngas, Nisi)&#45;&gt;3,1 (Mining Brick) -->
<g id="edge2" class="edge">
<title>2,6 (Refined Syngas, Nisi)&#45;&gt;3,1 (Mining Brick)</title>
<path fill="none" stroke="black" stroke-width="0.6" d="M264.98,-307.77C232.68,-350.42 152.17,-456.76 114.68,-506.28"/>
<polygon fill="black" stroke="black" stroke-width="0.6" points="111.87,-504.2 108.62,-514.28 117.45,-508.42 111.87,-504.2"/>
<text text-anchor="middle" x="104.83" y="-410.82" font-family="Times,serif" font-size="14.00">refsyngas&#45;barrel*14536</text>
</g>
<!-- 1,11 () -->
<g id="node4" class="node">
<title>1,11 ()</title>
<ellipse fill="none" stroke="black" cx="140.55" cy="-18" rx="40.89" ry="18"/>
<text text-anchor="middle" x="140.55" y="-14.3" font-family="Times,serif" font-size="14.00">1,11 ()</text>
</g>
<!-- 2,6 (Refined Syngas, Nisi)&#45;&gt;1,11 () -->
<g id="edge3" class="edge">
<title>2,6 (Refined Syngas, Nisi)&#45;&gt;1,11 ()</title>
<path fill="none" stroke="black" stroke-width="0.16" d="M269.52,-271.27C245.7,-224.5 182.35,-100.09 154.28,-44.95"/>
<polygon fill="black" stroke="black" stroke-width="0.16" points="157.27,-43.13 149.62,-35.8 151.03,-46.3 157.27,-43.13"/>
<text text-anchor="middle" x="131.4" y="-161.91" font-family="Times,serif" font-size="14.00">refsyngas&#45;barrel*3784</text>
</g>
</g>
</svg>
