<?xml version="1.0" encoding="UTF-8" standalone="no"?>
<!DOCTYPE svg PUBLIC "-//W3C//DTD SVG 1.1//EN"
 "http://www.w3.org/Graphics/SVG/1.1/DTD/svg11.dtd">
<!-- Generated by graphviz version 2.43.0 (0)
 -->
<!-- Title: %3 Pages: 1 -->
<svg width="978pt" height="540pt"
 viewBox="0.00 0.00 978.42 539.99" xmlns="http://www.w3.org/2000/svg" xmlns:xlink="http://www.w3.org/1999/xlink">
<g id="graph0" class="graph" transform="scale(1 1) rotate(0) translate(4 535.99)">
<title>%3</title>
<polygon fill="white" stroke="transparent" points="-4,4 -4,-535.99 974.42,-535.99 974.42,4 -4,4"/>
<!-- &#45;6,4 (Urea) -->
<g id="node1" class="node">
<title>&#45;6,4 (Urea)</title>
<ellipse fill="none" stroke="black" cx="244" cy="-513.99" rx="61.19" ry="18"/>
<text text-anchor="middle" x="244" y="-510.29" font-family="Times,serif" font-size="14.00">&#45;6,4 (Urea)</text>
</g>
<!-- &#45;5,0 (item=small&#45;lampitem=petri&#45;dish Lamptri dishes) -->
<g id="node2" class="node">
<title>&#45;5,0 (item=small&#45;lampitem=petri&#45;dish Lamptri dishes)</title>
<ellipse fill="none" stroke="black" cx="673.54" cy="-266" rx="263.75" ry="18"/>
<text text-anchor="middle" x="673.54" y="-262.3" font-family="Times,serif" font-size="14.00">&#45;5,0 (item=small&#45;lampitem=petri&#45;dish Lamptri dishes)</text>
</g>
<!-- &#45;6,4 (Urea)&#45;&gt;&#45;5,0 (item=small&#45;lampitem=petri&#45;dish Lamptri dishes) -->
<g id="edge1" class="edge">
<title>&#45;6,4 (Urea)&#45;&gt;&#45;5,0 (item=small&#45;lampitem=petri&#45;dish Lamptri dishes)</title>
<path fill="none" stroke="black" stroke-width="2.23" d="M271.85,-497.91C345.83,-455.2 547.44,-338.8 633.62,-289.05"/>
<polygon fill="black" stroke="black" stroke-width="2.23" points="635.41,-292.05 642.32,-284.02 631.91,-285.99 635.41,-292.05"/>
<text text-anchor="middle" x="326.24" y="-397.28" font-family="Times,serif" font-size="14.00">combustion&#45;mixture1&#45;barrel*20440</text>
</g>
<!-- 0,0 (LE BUS) -->
<g id="node4" class="node">
<title>0,0 (LE BUS)</title>
<ellipse fill="none" stroke="black" cx="244" cy="-18" rx="71.49" ry="18"/>
<text text-anchor="middle" x="244" y="-14.3" font-family="Times,serif" font-size="14.00">0,0 (LE BUS)</text>
</g>
<!-- &#45;6,4 (Urea)&#45;&gt;0,0 (LE BUS) -->
<g id="edge4" class="edge">
<title>&#45;6,4 (Urea)&#45;&gt;0,0 (LE BUS)</title>
<path fill="none" stroke="black" stroke-width="0.11" d="M244,-495.75C244,-420.93 244,-137.23 244,-46.26"/>
<polygon fill="black" stroke="black" stroke-width="0.11" points="247.5,-46.14 244,-36.14 240.5,-46.14 247.5,-46.14"/>
<text text-anchor="middle" x="122" y="-274.8" font-family="Times,serif" font-size="14.00">combustion&#45;mixture1&#45;barrel*1000</text>
</g>
<!-- 4,10 (Fluid Recycling) -->
<g id="node3" class="node">
<title>4,10 (Fluid Recycling)</title>
<ellipse fill="none" stroke="black" cx="857.98" cy="-266" rx="112.38" ry="18"/>
<text text-anchor="middle" x="857.98" y="-262.3" font-family="Times,serif" font-size="14.00">4,10 (Fluid Recycling)</text>
</g>
<!-- 4,10 (Fluid Recycling)&#45;&gt;&#45;5,0 (item=small&#45;lampitem=petri&#45;dish Lamptri dishes) -->
<g id="edge2" class="edge">
<title>4,10 (Fluid Recycling)&#45;&gt;&#45;5,0 (item=small&#45;lampitem=petri&#45;dish Lamptri dishes)</title>
<path fill="none" stroke="black" stroke-width="1.5" d="M745.38,-266C745.3,-266 745.23,-266 745.15,-266"/>
<polygon fill="black" stroke="black" stroke-width="1.5" points="754.93,-262.5 744.93,-266 754.93,-269.5 754.93,-262.5"/>
<text text-anchor="middle" x="618.77" y="-269.8" font-family="Times,serif" font-size="14.00">combustion&#45;mixture1&#45;barrel*13766</text>
</g>
<!-- 0,0 (LE BUS)&#45;&gt;&#45;5,0 (item=small&#45;lampitem=petri&#45;dish Lamptri dishes) -->
<g id="edge3" class="edge">
<title>0,0 (LE BUS)&#45;&gt;&#45;5,0 (item=small&#45;lampitem=petri&#45;dish Lamptri dishes)</title>
<path fill="none" stroke="black" stroke-width="0.15" d="M272.85,-34.66C347.62,-77.83 547.82,-193.41 633.62,-242.94"/>
<polygon fill="black" stroke="black" stroke-width="0.15" points="632.12,-246.12 642.53,-248.09 635.62,-240.06 632.12,-246.12"/>
<text text-anchor="middle" x="331.23" y="-142.6" font-family="Times,serif" font-size="14.00">combustion&#45;mixture1&#45;barrel*1419</text>
</g>
</g>
</svg>
