<?xml version="1.0" encoding="UTF-8" standalone="no"?>
<!DOCTYPE svg PUBLIC "-//W3C//DTD SVG 1.1//EN"
 "http://www.w3.org/Graphics/SVG/1.1/DTD/svg11.dtd">
<!-- Generated by graphviz version 2.43.0 (0)
 -->
<!-- Title: %3 Pages: 1 -->
<svg width="1596pt" height="1497pt"
 viewBox="0.00 0.00 1596.32 1496.50" xmlns="http://www.w3.org/2000/svg" xmlns:xlink="http://www.w3.org/1999/xlink">
<g id="graph0" class="graph" transform="scale(1 1) rotate(0) translate(4 1492.5)">
<title>%3</title>
<polygon fill="white" stroke="transparent" points="-4,4 -4,-1492.5 1592.32,-1492.5 1592.32,4 -4,4"/>
<!-- 3,12 (reserved &#45; Candle, reserved &#45; Candle, reserved &#45; Candle) -->
<g id="node1" class="node">
<title>3,12 (reserved &#45; Candle, reserved &#45; Candle, reserved &#45; Candle)</title>
<ellipse fill="none" stroke="black" cx="1220.76" cy="-161.84" rx="298.15" ry="18"/>
<text text-anchor="middle" x="1220.76" y="-158.14" font-family="Times,serif" font-size="14.00">3,12 (reserved &#45; Candle, reserved &#45; Candle, reserved &#45; Candle)</text>
</g>
<!-- 0,0 (LE BUS) -->
<g id="node2" class="node">
<title>0,0 (LE BUS)</title>
<ellipse fill="none" stroke="black" cx="590.54" cy="-18" rx="71.49" ry="18"/>
<text text-anchor="middle" x="590.54" y="-14.3" font-family="Times,serif" font-size="14.00">0,0 (LE BUS)</text>
</g>
<!-- 3,12 (reserved &#45; Candle, reserved &#45; Candle, reserved &#45; Candle)&#45;&gt;0,0 (LE BUS) -->
<g id="edge1" class="edge">
<title>3,12 (reserved &#45; Candle, reserved &#45; Candle, reserved &#45; Candle)&#45;&gt;0,0 (LE BUS)</title>
<path fill="none" stroke="black" stroke-width="0.76" d="M1144.42,-144.42C1018.64,-115.71 770.18,-59 653.66,-32.41"/>
<polygon fill="black" stroke="black" stroke-width="0.76" points="654.34,-28.97 643.81,-30.16 652.78,-35.8 654.34,-28.97"/>
<text text-anchor="middle" x="821.54" y="-92.21" font-family="Times,serif" font-size="14.00">small&#45;parts&#45;01*41232</text>
</g>
<!-- 3,2 (Fiberboard) -->
<g id="node3" class="node">
<title>3,2 (Fiberboard)</title>
<ellipse fill="none" stroke="black" cx="1501.23" cy="-744.25" rx="87.18" ry="18"/>
<text text-anchor="middle" x="1501.23" y="-740.55" font-family="Times,serif" font-size="14.00">3,2 (Fiberboard)</text>
</g>
<!-- 3,12 (reserved &#45; Candle, reserved &#45; Candle, reserved &#45; Candle)&#45;&gt;3,2 (Fiberboard) -->
<g id="edge2" class="edge">
<title>3,12 (reserved &#45; Candle, reserved &#45; Candle, reserved &#45; Candle)&#45;&gt;3,2 (Fiberboard)</title>
<path fill="none" stroke="black" stroke-width="1.28" d="M1229.46,-179.91C1269.86,-263.81 1439.24,-615.53 1488.03,-716.84"/>
<polygon fill="black" stroke="black" stroke-width="1.28" points="1485,-718.62 1492.49,-726.11 1491.31,-715.58 1485,-718.62"/>
<text text-anchor="middle" x="1281.24" y="-452.18" font-family="Times,serif" font-size="14.00">small&#45;parts&#45;01*69648</text>
</g>
<!-- &#45;4,&#45;2 (Crude Oil) -->
<g id="node5" class="node">
<title>&#45;4,&#45;2 (Crude Oil)</title>
<ellipse fill="none" stroke="black" cx="85.14" cy="-421.04" rx="85.29" ry="18"/>
<text text-anchor="middle" x="85.14" y="-417.34" font-family="Times,serif" font-size="14.00">&#45;4,&#45;2 (Crude Oil)</text>
</g>
<!-- 3,12 (reserved &#45; Candle, reserved &#45; Candle, reserved &#45; Candle)&#45;&gt;&#45;4,&#45;2 (Crude Oil) -->
<g id="edge10" class="edge">
<title>3,12 (reserved &#45; Candle, reserved &#45; Candle, reserved &#45; Candle)&#45;&gt;&#45;4,&#45;2 (Crude Oil)</title>
<path fill="none" stroke="black" stroke-width="0.22" d="M1144.48,-179.25C934.8,-227.11 352.07,-360.11 152.9,-405.57"/>
<polygon fill="black" stroke="black" stroke-width="0.22" points="152.11,-402.16 143.14,-407.8 153.67,-408.99 152.11,-402.16"/>
<text text-anchor="middle" x="571.19" y="-296.21" font-family="Times,serif" font-size="14.00">small&#45;parts&#45;01*11872</text>
</g>
<!-- &#45;6,&#45;12 () -->
<g id="node6" class="node">
<title>&#45;6,&#45;12 ()</title>
<ellipse fill="none" stroke="black" cx="85.14" cy="-1067.47" rx="46.59" ry="18"/>
<text text-anchor="middle" x="85.14" y="-1063.77" font-family="Times,serif" font-size="14.00">&#45;6,&#45;12 ()</text>
</g>
<!-- 3,12 (reserved &#45; Candle, reserved &#45; Candle, reserved &#45; Candle)&#45;&gt;&#45;6,&#45;12 () -->
<g id="edge5" class="edge">
<title>3,12 (reserved &#45; Candle, reserved &#45; Candle, reserved &#45; Candle)&#45;&gt;&#45;6,&#45;12 ()</title>
<path fill="none" stroke="black" stroke-width="0.16" d="M1198.07,-179.93C1054.5,-294.43 272.96,-917.68 113.54,-1044.82"/>
<polygon fill="black" stroke="black" stroke-width="0.16" points="111.23,-1042.19 105.59,-1051.16 115.59,-1047.66 111.23,-1042.19"/>
<text text-anchor="middle" x="582.81" y="-616.17" font-family="Times,serif" font-size="14.00">small&#45;parts&#45;01*8752</text>
</g>
<!-- 8,2 (Tar) -->
<g id="node7" class="node">
<title>8,2 (Tar)</title>
<ellipse fill="none" stroke="black" cx="590.54" cy="-1470.5" rx="50.09" ry="18"/>
<text text-anchor="middle" x="590.54" y="-1466.8" font-family="Times,serif" font-size="14.00">8,2 (Tar)</text>
</g>
<!-- 3,12 (reserved &#45; Candle, reserved &#45; Candle, reserved &#45; Candle)&#45;&gt;8,2 (Tar) -->
<g id="edge7" class="edge">
<title>3,12 (reserved &#45; Candle, reserved &#45; Candle, reserved &#45; Candle)&#45;&gt;8,2 (Tar)</title>
<path fill="none" stroke="black" stroke-width="0.94" d="M1212.09,-179.84C1143.35,-322.59 686.84,-1270.52 603.57,-1443.45"/>
<polygon fill="black" stroke="black" stroke-width="0.94" points="600.33,-1442.11 599.14,-1452.64 606.64,-1445.15 600.33,-1442.11"/>
<text text-anchor="middle" x="830.33" y="-815.45" font-family="Times,serif" font-size="14.00">small&#45;parts&#45;01*50720</text>
</g>
<!-- 3,3 (Random electronic components, Small Parts) -->
<g id="node4" class="node">
<title>3,3 (Random electronic components, Small Parts)</title>
<ellipse fill="none" stroke="black" cx="1220.76" cy="-1326.66" rx="240.46" ry="18"/>
<text text-anchor="middle" x="1220.76" y="-1322.96" font-family="Times,serif" font-size="14.00">3,3 (Random electronic components, Small Parts)</text>
</g>
<!-- 3,3 (Random electronic components, Small Parts)&#45;&gt;0,0 (LE BUS) -->
<g id="edge6" class="edge">
<title>3,3 (Random electronic components, Small Parts)&#45;&gt;0,0 (LE BUS)</title>
<path fill="none" stroke="black" stroke-width="0.48" d="M1212.09,-1308.66C1143.38,-1165.99 687.35,-219.04 603.71,-45.34"/>
<polygon fill="black" stroke="black" stroke-width="0.48" points="606.86,-43.82 599.37,-36.33 600.55,-46.86 606.86,-43.82"/>
<text text-anchor="middle" x="830.4" y="-680.8" font-family="Times,serif" font-size="14.00">small&#45;parts&#45;01*26240</text>
</g>
<!-- 3,3 (Random electronic components, Small Parts)&#45;&gt;3,2 (Fiberboard) -->
<g id="edge4" class="edge">
<title>3,3 (Random electronic components, Small Parts)&#45;&gt;3,2 (Fiberboard)</title>
<path fill="none" stroke="black" stroke-width="5.44" d="M1229.46,-1308.59C1269.86,-1224.7 1439.24,-872.98 1488.03,-771.67"/>
<polygon fill="black" stroke="black" stroke-width="5.44" points="1492.44,-773.47 1492.49,-762.4 1483.86,-769.34 1492.44,-773.47"/>
<text text-anchor="middle" x="1276.74" y="-1043.93" font-family="Times,serif" font-size="14.00">small&#45;parts&#45;01*295200</text>
</g>
<!-- 3,3 (Random electronic components, Small Parts)&#45;&gt;&#45;4,&#45;2 (Crude Oil) -->
<g id="edge3" class="edge">
<title>3,3 (Random electronic components, Small Parts)&#45;&gt;&#45;4,&#45;2 (Crude Oil)</title>
<path fill="none" stroke="black" stroke-width="0.3" d="M1198.07,-1308.57C1055.11,-1194.57 279.64,-576.14 115.62,-445.35"/>
<polygon fill="black" stroke="black" stroke-width="0.3" points="117.41,-442.3 107.41,-438.8 113.05,-447.77 117.41,-442.3"/>
<text text-anchor="middle" x="579.35" y="-880.76" font-family="Times,serif" font-size="14.00">small&#45;parts&#45;01*16240</text>
</g>
<!-- 3,3 (Random electronic components, Small Parts)&#45;&gt;&#45;6,&#45;12 () -->
<g id="edge8" class="edge">
<title>3,3 (Random electronic components, Small Parts)&#45;&gt;&#45;6,&#45;12 ()</title>
<path fill="none" stroke="black" stroke-width="0.04" d="M1145.81,-1309.55C930.83,-1260.49 316.03,-1120.16 135.54,-1078.97"/>
<polygon fill="black" stroke="black" stroke-width="0.04" points="136.05,-1075.5 125.53,-1076.68 134.5,-1082.32 136.05,-1075.5"/>
<text text-anchor="middle" x="567.67" y="-1198.06" font-family="Times,serif" font-size="14.00">small&#45;parts&#45;01*2240</text>
</g>
<!-- 3,3 (Random electronic components, Small Parts)&#45;&gt;8,2 (Tar) -->
<g id="edge9" class="edge">
<title>3,3 (Random electronic components, Small Parts)&#45;&gt;8,2 (Tar)</title>
<path fill="none" stroke="black" stroke-width="0.37" d="M1145.68,-1343.8C1016.38,-1373.31 754.85,-1433 643.1,-1458.51"/>
<polygon fill="black" stroke="black" stroke-width="0.37" points="642.05,-1455.16 633.08,-1460.8 643.61,-1461.98 642.05,-1455.16"/>
<text text-anchor="middle" x="816.89" y="-1404.95" font-family="Times,serif" font-size="14.00">small&#45;parts&#45;01*20160</text>
</g>
</g>
</svg>
