<?xml version="1.0" encoding="UTF-8" standalone="no"?>
<!DOCTYPE svg PUBLIC "-//W3C//DTD SVG 1.1//EN"
 "http://www.w3.org/Graphics/SVG/1.1/DTD/svg11.dtd">
<!-- Generated by graphviz version 2.43.0 (0)
 -->
<!-- Title: %3 Pages: 1 -->
<svg width="1074pt" height="44pt"
 viewBox="0.00 0.00 1073.62 44.00" xmlns="http://www.w3.org/2000/svg" xmlns:xlink="http://www.w3.org/1999/xlink">
<g id="graph0" class="graph" transform="scale(1 1) rotate(0) translate(4 40)">
<title>%3</title>
<polygon fill="white" stroke="transparent" points="-4,4 -4,-40 1069.62,-40 1069.62,4 -4,4"/>
<!-- 0,12 (Phosphate mining) -->
<g id="node1" class="node">
<title>0,12 (Phosphate mining)</title>
<ellipse fill="none" stroke="black" cx="468.46" cy="-18" rx="124.58" ry="18"/>
<text text-anchor="middle" x="468.46" y="-14.3" font-family="Times,serif" font-size="14.00">0,12 (Phosphate mining)</text>
</g>
<!-- 3,6 (Phosphoric Acid and Phosphine gas) -->
<g id="node2" class="node">
<title>3,6 (Phosphoric Acid and Phosphine gas)</title>
<ellipse fill="none" stroke="black" cx="865.44" cy="-18" rx="200.36" ry="18"/>
<text text-anchor="middle" x="865.44" y="-14.3" font-family="Times,serif" font-size="14.00">3,6 (Phosphoric Acid and Phosphine gas)</text>
</g>
<!-- 0,12 (Phosphate mining)&#45;&gt;3,6 (Phosphoric Acid and Phosphine gas) -->
<g id="edge1" class="edge">
<title>0,12 (Phosphate mining)&#45;&gt;3,6 (Phosphoric Acid and Phosphine gas)</title>
<path fill="none" stroke="black" stroke-width="0.78" d="M593.52,-18C613.15,-18 633.9,-18 654.82,-18"/>
<polygon fill="black" stroke="black" stroke-width="0.78" points="655.1,-21.5 665.1,-18 655.1,-14.5 655.1,-21.5"/>
<text text-anchor="middle" x="624.17" y="-6.8" font-family="Times,serif" font-size="14.00">phosphate&#45;rock*14864</text>
</g>
<!-- 0,0 (LE BUS) -->
<g id="node3" class="node">
<title>0,0 (LE BUS)</title>
<ellipse fill="none" stroke="black" cx="71.49" cy="-18" rx="71.49" ry="18"/>
<text text-anchor="middle" x="71.49" y="-14.3" font-family="Times,serif" font-size="14.00">0,0 (LE BUS)</text>
</g>
<!-- 0,12 (Phosphate mining)&#45;&gt;0,0 (LE BUS) -->
<g id="edge2" class="edge">
<title>0,12 (Phosphate mining)&#45;&gt;0,0 (LE BUS)</title>
<path fill="none" stroke="black" stroke-width="1.22" d="M343.41,-18C281.25,-18 207.92,-18 153.08,-18"/>
<polygon fill="black" stroke="black" stroke-width="1.22" points="153.06,-14.5 143.06,-18 153.06,-21.5 153.06,-14.5"/>
<text text-anchor="middle" x="248.24" y="-6.8" font-family="Times,serif" font-size="14.00">phosphate&#45;rock*23024</text>
</g>
</g>
</svg>
