<?xml version="1.0" encoding="UTF-8" standalone="no"?>
<!DOCTYPE svg PUBLIC "-//W3C//DTD SVG 1.1//EN"
 "http://www.w3.org/Graphics/SVG/1.1/DTD/svg11.dtd">
<!-- Generated by graphviz version 2.43.0 (0)
 -->
<!-- Title: %3 Pages: 1 -->
<svg width="2299pt" height="1654pt"
 viewBox="0.00 0.00 2299.24 1654.24" xmlns="http://www.w3.org/2000/svg" xmlns:xlink="http://www.w3.org/1999/xlink">
<g id="graph0" class="graph" transform="scale(1 1) rotate(0) translate(4 1650.24)">
<title>%3</title>
<polygon fill="white" stroke="transparent" points="-4,4 -4,-1650.24 2295.24,-1650.24 2295.24,4 -4,4"/>
<!-- 3,6 (Phosphoric Acid and Phosphine gas) -->
<g id="node1" class="node">
<title>3,6 (Phosphoric Acid and Phosphine gas)</title>
<ellipse fill="none" stroke="black" cx="988.88" cy="-1398.34" rx="200.36" ry="18"/>
<text text-anchor="middle" x="988.88" y="-1394.64" font-family="Times,serif" font-size="14.00">3,6 (Phosphoric Acid and Phosphine gas)</text>
</g>
<!-- 3,6 (Phosphoric Acid and Phosphine gas)&#45;&gt;3,6 (Phosphoric Acid and Phosphine gas) -->
<g id="edge9" class="edge">
<title>3,6 (Phosphoric Acid and Phosphine gas)&#45;&gt;3,6 (Phosphoric Acid and Phosphine gas)</title>
<path fill="none" stroke="black" stroke-width="3.42" d="M1180.36,-1403.61C1196.8,-1402.49 1207.06,-1400.73 1207.06,-1398.34 1207.06,-1396.49 1200.92,-1395.02 1190.54,-1393.93"/>
<polygon fill="black" stroke="black" stroke-width="3.42" points="1190.62,-1390.43 1180.36,-1393.07 1190.03,-1397.4 1190.62,-1390.43"/>
<text text-anchor="middle" x="1250.06" y="-1394.64" font-family="Times,serif" font-size="14.00">ash*122912</text>
</g>
<!-- 0,0 (LE BUS) -->
<g id="node2" class="node">
<title>0,0 (LE BUS)</title>
<ellipse fill="none" stroke="black" cx="516.78" cy="-101.24" rx="71.49" ry="18"/>
<text text-anchor="middle" x="516.78" y="-97.54" font-family="Times,serif" font-size="14.00">0,0 (LE BUS)</text>
</g>
<!-- 3,6 (Phosphoric Acid and Phosphine gas)&#45;&gt;0,0 (LE BUS) -->
<g id="edge1" class="edge">
<title>3,6 (Phosphoric Acid and Phosphine gas)&#45;&gt;0,0 (LE BUS)</title>
<path fill="none" stroke="black" stroke-width="2.36" d="M982.21,-1380.01C930.18,-1237.05 589.83,-301.97 526.81,-128.8"/>
<polygon fill="black" stroke="black" stroke-width="2.36" points="530.08,-127.58 523.37,-119.38 523.51,-129.97 530.08,-127.58"/>
<text text-anchor="middle" x="716.01" y="-758.2" font-family="Times,serif" font-size="14.00">ash*84672</text>
</g>
<!-- 4,&#45;2 (Ceramic) -->
<g id="node6" class="node">
<title>4,&#45;2 (Ceramic)</title>
<ellipse fill="none" stroke="black" cx="516.78" cy="-1315.1" rx="76.89" ry="18"/>
<text text-anchor="middle" x="516.78" y="-1311.4" font-family="Times,serif" font-size="14.00">4,&#45;2 (Ceramic)</text>
</g>
<!-- 3,6 (Phosphoric Acid and Phosphine gas)&#45;&gt;4,&#45;2 (Ceramic) -->
<g id="edge17" class="edge">
<title>3,6 (Phosphoric Acid and Phosphine gas)&#45;&gt;4,&#45;2 (Ceramic)</title>
<path fill="none" stroke="black" stroke-width="0.93" d="M897.85,-1382.29C807.57,-1366.37 671.08,-1342.3 588.29,-1327.71"/>
<polygon fill="black" stroke="black" stroke-width="0.93" points="588.68,-1324.22 578.22,-1325.93 587.46,-1331.11 588.68,-1324.22"/>
<text text-anchor="middle" x="704.57" y="-1358.8" font-family="Times,serif" font-size="14.00">ash*33232</text>
</g>
<!-- 5,2 (Raw Fiber) -->
<g id="node8" class="node">
<title>5,2 (Raw Fiber)</title>
<ellipse fill="none" stroke="black" cx="1568" cy="-708.17" rx="83.39" ry="18"/>
<text text-anchor="middle" x="1568" y="-704.47" font-family="Times,serif" font-size="14.00">5,2 (Raw Fiber)</text>
</g>
<!-- 3,6 (Phosphoric Acid and Phosphine gas)&#45;&gt;5,2 (Raw Fiber) -->
<g id="edge20" class="edge">
<title>3,6 (Phosphoric Acid and Phosphine gas)&#45;&gt;5,2 (Raw Fiber)</title>
<path fill="none" stroke="black" stroke-width="1.85" d="M1004.07,-1380.24C1083.73,-1285.31 1453.05,-845.16 1546.48,-733.82"/>
<polygon fill="black" stroke="black" stroke-width="1.85" points="1549.22,-736 1552.97,-726.09 1543.86,-731.5 1549.22,-736"/>
<text text-anchor="middle" x="1236.78" y="-1060.83" font-family="Times,serif" font-size="14.00">ash*66464</text>
</g>
<!-- 0,7 (Coal Gas) -->
<g id="node3" class="node">
<title>0,7 (Coal Gas)</title>
<ellipse fill="none" stroke="black" cx="988.88" cy="-18" rx="76.09" ry="18"/>
<text text-anchor="middle" x="988.88" y="-14.3" font-family="Times,serif" font-size="14.00">0,7 (Coal Gas)</text>
</g>
<!-- 0,7 (Coal Gas)&#45;&gt;3,6 (Phosphoric Acid and Phosphine gas) -->
<g id="edge5" class="edge">
<title>0,7 (Coal Gas)&#45;&gt;3,6 (Phosphoric Acid and Phosphine gas)</title>
<path fill="none" stroke="black" stroke-width="0.54" d="M988.88,-36.21C988.88,-184.07 988.88,-1186.89 988.88,-1369.75"/>
<polygon fill="black" stroke="black" stroke-width="0.54" points="985.38,-1369.92 988.88,-1379.92 992.38,-1369.92 985.38,-1369.92"/>
<text text-anchor="middle" x="950.38" y="-706.78" font-family="Times,serif" font-size="14.00">ash*19355</text>
</g>
<!-- 0,7 (Coal Gas)&#45;&gt;0,0 (LE BUS) -->
<g id="edge2" class="edge">
<title>0,7 (Coal Gas)&#45;&gt;0,0 (LE BUS)</title>
<path fill="none" stroke="black" stroke-width="0.2" d="M927.64,-28.8C839.63,-44.32 677.85,-72.84 585.73,-89.09"/>
<polygon fill="black" stroke="black" stroke-width="0.2" points="584.92,-85.68 575.67,-90.86 586.13,-92.57 584.92,-85.68"/>
<text text-anchor="middle" x="722.69" y="-62.74" font-family="Times,serif" font-size="14.00">ash*7272</text>
</g>
<!-- 0,7 (Coal Gas)&#45;&gt;4,&#45;2 (Ceramic) -->
<g id="edge21" class="edge">
<title>0,7 (Coal Gas)&#45;&gt;4,&#45;2 (Ceramic)</title>
<path fill="none" stroke="black" stroke-width="0.51" d="M982.21,-36.34C930.18,-179.29 589.83,-1114.37 526.81,-1287.54"/>
<polygon fill="black" stroke="black" stroke-width="0.51" points="523.51,-1286.37 523.37,-1296.97 530.08,-1288.77 523.51,-1286.37"/>
<text text-anchor="middle" x="716.01" y="-665.74" font-family="Times,serif" font-size="14.00">ash*18175</text>
</g>
<!-- 0,8 (Tar from Coke) -->
<g id="node4" class="node">
<title>0,8 (Tar from Coke)</title>
<ellipse fill="none" stroke="black" cx="208.63" cy="-468.48" rx="100.98" ry="18"/>
<text text-anchor="middle" x="208.63" y="-464.78" font-family="Times,serif" font-size="14.00">0,8 (Tar from Coke)</text>
</g>
<!-- 0,8 (Tar from Coke)&#45;&gt;0,0 (LE BUS) -->
<g id="edge3" class="edge">
<title>0,8 (Tar from Coke)&#45;&gt;0,0 (LE BUS)</title>
<path fill="none" stroke="black" stroke-width="0.06" d="M223.7,-450.52C273.98,-390.6 436.09,-197.4 495.07,-127.12"/>
<polygon fill="black" stroke="black" stroke-width="0.06" points="497.99,-129.08 501.73,-119.17 492.62,-124.58 497.99,-129.08"/>
<text text-anchor="middle" x="325.39" y="-292.62" font-family="Times,serif" font-size="14.00">ash*2160</text>
</g>
<!-- 0,8 (Tar from Coke)&#45;&gt;4,&#45;2 (Ceramic) -->
<g id="edge24" class="edge">
<title>0,8 (Tar from Coke)&#45;&gt;4,&#45;2 (Ceramic)</title>
<path fill="none" stroke="black" stroke-width="0.56" d="M215.21,-486.55C254.57,-594.69 458.79,-1155.79 506.71,-1287.43"/>
<polygon fill="black" stroke="black" stroke-width="0.56" points="503.42,-1288.63 510.13,-1296.83 510,-1286.24 503.42,-1288.63"/>
<text text-anchor="middle" x="322.46" y="-890.79" font-family="Times,serif" font-size="14.00">ash*20176</text>
</g>
<!-- 0,8 (Tar from Coke)&#45;&gt;5,2 (Raw Fiber) -->
<g id="edge14" class="edge">
<title>0,8 (Tar from Coke)&#45;&gt;5,2 (Raw Fiber)</title>
<path fill="none" stroke="black" stroke-width="0.93" d="M280.76,-481.19C515.33,-522.56 1255.15,-653.01 1493.33,-695"/>
<polygon fill="black" stroke="black" stroke-width="0.93" points="1492.83,-698.47 1503.28,-696.76 1494.04,-691.58 1492.83,-698.47"/>
<text text-anchor="middle" x="848.55" y="-591.9" font-family="Times,serif" font-size="14.00">ash*33232</text>
</g>
<!-- 4,15 (Half an Ash) -->
<g id="node5" class="node">
<title>4,15 (Half an Ash)</title>
<ellipse fill="none" stroke="black" cx="1404.04" cy="-1158.65" rx="94.78" ry="18"/>
<text text-anchor="middle" x="1404.04" y="-1154.95" font-family="Times,serif" font-size="14.00">4,15 (Half an Ash)</text>
</g>
<!-- 4,15 (Half an Ash)&#45;&gt;3,6 (Phosphoric Acid and Phosphine gas) -->
<g id="edge23" class="edge">
<title>4,15 (Half an Ash)&#45;&gt;3,6 (Phosphoric Acid and Phosphine gas)</title>
<path fill="none" stroke="black" stroke-width="0.56" d="M1374.18,-1175.89C1300.8,-1218.25 1111.58,-1327.5 1028.73,-1375.34"/>
<polygon fill="black" stroke="black" stroke-width="0.56" points="1026.78,-1372.42 1019.87,-1380.45 1030.28,-1378.48 1026.78,-1372.42"/>
<text text-anchor="middle" x="1162.96" y="-1279.41" font-family="Times,serif" font-size="14.00">ash*20080</text>
</g>
<!-- 4,15 (Half an Ash)&#45;&gt;0,0 (LE BUS) -->
<g id="edge10" class="edge">
<title>4,15 (Half an Ash)&#45;&gt;0,0 (LE BUS)</title>
<path fill="none" stroke="black" stroke-width="0.93" d="M1389.01,-1140.74C1284.08,-1015.69 661.55,-273.77 538.06,-126.61"/>
<polygon fill="black" stroke="black" stroke-width="0.93" points="540.71,-124.32 531.6,-118.91 535.34,-128.82 540.71,-124.32"/>
<text text-anchor="middle" x="925.04" y="-637.47" font-family="Times,serif" font-size="14.00">ash*33248</text>
</g>
<!-- 4,15 (Half an Ash)&#45;&gt;4,&#45;2 (Ceramic) -->
<g id="edge4" class="edge">
<title>4,15 (Half an Ash)&#45;&gt;4,&#45;2 (Ceramic)</title>
<path fill="none" stroke="black" stroke-width="1.85" d="M1334.42,-1170.92C1169.28,-1200.04 755.22,-1273.05 588.24,-1302.5"/>
<polygon fill="black" stroke="black" stroke-width="1.85" points="587.56,-1299.06 578.32,-1304.24 588.78,-1305.95 587.56,-1299.06"/>
<text text-anchor="middle" x="922.83" y="-1240.51" font-family="Times,serif" font-size="14.00">ash*66464</text>
</g>
<!-- 4,15 (Half an Ash)&#45;&gt;5,2 (Raw Fiber) -->
<g id="edge18" class="edge">
<title>4,15 (Half an Ash)&#45;&gt;5,2 (Raw Fiber)</title>
<path fill="none" stroke="black" stroke-width="1.82" d="M1410.67,-1140.43C1436.09,-1070.59 1527.43,-819.64 1557.97,-735.72"/>
<polygon fill="black" stroke="black" stroke-width="1.82" points="1561.34,-736.71 1561.47,-726.12 1554.76,-734.32 1561.34,-736.71"/>
<text text-anchor="middle" x="1445.82" y="-941.88" font-family="Times,serif" font-size="14.00">ash*65248</text>
</g>
<!-- &#45;5,&#45;1 (Coal and Coke and Syngas and Ash and Coke Oven Gas and...) -->
<g id="node7" class="node">
<title>&#45;5,&#45;1 (Coal and Coke and Syngas and Ash and Coke Oven Gas and...)</title>
<ellipse fill="none" stroke="black" cx="1965.62" cy="-708.17" rx="325.74" ry="18"/>
<text text-anchor="middle" x="1965.62" y="-704.47" font-family="Times,serif" font-size="14.00">&#45;5,&#45;1 (Coal and Coke and Syngas and Ash and Coke Oven Gas and...)</text>
</g>
<!-- &#45;5,&#45;1 (Coal and Coke and Syngas and Ash and Coke Oven Gas and...)&#45;&gt;5,2 (Raw Fiber) -->
<g id="edge6" class="edge">
<title>&#45;5,&#45;1 (Coal and Coke and Syngas and Ash and Coke Oven Gas and...)&#45;&gt;5,2 (Raw Fiber)</title>
<path fill="none" stroke="black" stroke-width="0.93" d="M1639.55,-708.17C1639.47,-708.17 1639.38,-708.17 1639.3,-708.17"/>
<polygon fill="black" stroke="black" stroke-width="0.93" points="1649.05,-704.67 1639.05,-708.17 1649.05,-711.67 1649.05,-704.67"/>
<text text-anchor="middle" x="1600.92" y="-711.97" font-family="Times,serif" font-size="14.00">ash*33232</text>
</g>
<!-- 5,3 (Ash) -->
<g id="node9" class="node">
<title>5,3 (Ash)</title>
<ellipse fill="none" stroke="black" cx="1404.04" cy="-257.69" rx="51.99" ry="18"/>
<text text-anchor="middle" x="1404.04" y="-253.99" font-family="Times,serif" font-size="14.00">5,3 (Ash)</text>
</g>
<!-- 5,3 (Ash)&#45;&gt;3,6 (Phosphoric Acid and Phosphine gas) -->
<g id="edge19" class="edge">
<title>5,3 (Ash)&#45;&gt;3,6 (Phosphoric Acid and Phosphine gas)</title>
<path fill="none" stroke="black" stroke-width="1.14" d="M1397.52,-275.61C1350.03,-406.1 1057.53,-1209.72 999.05,-1370.4"/>
<polygon fill="black" stroke="black" stroke-width="1.14" points="995.67,-1369.44 995.54,-1380.04 1002.25,-1371.84 995.67,-1369.44"/>
<text text-anchor="middle" x="1159.79" y="-826.8" font-family="Times,serif" font-size="14.00">ash*40944</text>
</g>
<!-- 5,3 (Ash)&#45;&gt;0,0 (LE BUS) -->
<g id="edge7" class="edge">
<title>5,3 (Ash)&#45;&gt;0,0 (LE BUS)</title>
<path fill="none" stroke="black" stroke-width="0.61" d="M1357.59,-249.5C1211.19,-223.69 758.91,-143.94 585.46,-113.36"/>
<polygon fill="black" stroke="black" stroke-width="0.61" points="585.89,-109.88 575.43,-111.59 584.67,-116.77 585.89,-109.88"/>
<text text-anchor="middle" x="933.02" y="-185.23" font-family="Times,serif" font-size="14.00">ash*21808</text>
</g>
<!-- 5,3 (Ash)&#45;&gt;4,&#45;2 (Ceramic) -->
<g id="edge22" class="edge">
<title>5,3 (Ash)&#45;&gt;4,&#45;2 (Ceramic)</title>
<path fill="none" stroke="black" stroke-width="0.57" d="M1389.38,-275.16C1285.56,-398.9 661.84,-1142.22 538.1,-1289.68"/>
<polygon fill="black" stroke="black" stroke-width="0.57" points="535.38,-1287.49 531.63,-1297.4 540.74,-1291.98 535.38,-1287.49"/>
<text text-anchor="middle" x="925.24" y="-786.22" font-family="Times,serif" font-size="14.00">ash*20400</text>
</g>
<!-- 5,3 (Ash)&#45;&gt;5,2 (Raw Fiber) -->
<g id="edge11" class="edge">
<title>5,3 (Ash)&#45;&gt;5,2 (Raw Fiber)</title>
<path fill="none" stroke="black" stroke-width="1.85" d="M1410.57,-275.63C1435.84,-345.06 1527.35,-596.47 1557.95,-680.56"/>
<polygon fill="black" stroke="black" stroke-width="1.85" points="1554.75,-681.98 1561.45,-690.18 1561.32,-679.59 1554.75,-681.98"/>
<text text-anchor="middle" x="1445.76" y="-481.9" font-family="Times,serif" font-size="14.00">ash*66464</text>
</g>
<!-- &#45;2,8 (syngas from coal dust and also wood) -->
<g id="node10" class="node">
<title>&#45;2,8 (syngas from coal dust and also wood)</title>
<ellipse fill="none" stroke="black" cx="208.63" cy="-947.86" rx="208.76" ry="18"/>
<text text-anchor="middle" x="208.63" y="-944.16" font-family="Times,serif" font-size="14.00">&#45;2,8 (syngas from coal dust and also wood)</text>
</g>
<!-- &#45;2,8 (syngas from coal dust and also wood)&#45;&gt;3,6 (Phosphoric Acid and Phosphine gas) -->
<g id="edge13" class="edge">
<title>&#45;2,8 (syngas from coal dust and also wood)&#45;&gt;3,6 (Phosphoric Acid and Phosphine gas)</title>
<path fill="none" stroke="black" stroke-width="0.32" d="M239.7,-965.8C362.16,-1036.51 811.47,-1295.91 948.76,-1375.18"/>
<polygon fill="black" stroke="black" stroke-width="0.32" points="947.31,-1378.38 957.72,-1380.35 950.81,-1372.32 947.31,-1378.38"/>
<text text-anchor="middle" x="555.73" y="-1174.29" font-family="Times,serif" font-size="14.00">ash*11568</text>
</g>
<!-- &#45;2,8 (syngas from coal dust and also wood)&#45;&gt;0,0 (LE BUS) -->
<g id="edge8" class="edge">
<title>&#45;2,8 (syngas from coal dust and also wood)&#45;&gt;0,0 (LE BUS)</title>
<path fill="none" stroke="black" stroke-width="0.12" d="M215.21,-929.79C254.57,-821.65 458.79,-260.55 506.71,-128.91"/>
<polygon fill="black" stroke="black" stroke-width="0.12" points="510,-130.1 510.13,-119.51 503.42,-127.71 510,-130.1"/>
<text text-anchor="middle" x="326.96" y="-533.15" font-family="Times,serif" font-size="14.00">ash*4224</text>
</g>
<!-- &#45;2,8 (syngas from coal dust and also wood)&#45;&gt;4,&#45;2 (Ceramic) -->
<g id="edge12" class="edge">
<title>&#45;2,8 (syngas from coal dust and also wood)&#45;&gt;4,&#45;2 (Ceramic)</title>
<path fill="none" stroke="black" stroke-width="0.28" d="M223.7,-965.83C273.98,-1025.74 436.09,-1218.94 495.07,-1289.23"/>
<polygon fill="black" stroke="black" stroke-width="0.28" points="492.62,-1291.76 501.73,-1297.17 497.99,-1287.26 492.62,-1291.76"/>
<text text-anchor="middle" x="320.89" y="-1131.33" font-family="Times,serif" font-size="14.00">ash*10160</text>
</g>
<!-- 2,7 (Mystery petrochemicals) -->
<g id="node11" class="node">
<title>2,7 (Mystery petrochemicals)</title>
<ellipse fill="none" stroke="black" cx="1155.09" cy="-1582.33" rx="147.57" ry="18"/>
<text text-anchor="middle" x="1155.09" y="-1578.63" font-family="Times,serif" font-size="14.00">2,7 (Mystery petrochemicals)</text>
</g>
<!-- 2,7 (Mystery petrochemicals)&#45;&gt;3,6 (Phosphoric Acid and Phosphine gas) -->
<g id="edge15" class="edge">
<title>2,7 (Mystery petrochemicals)&#45;&gt;3,6 (Phosphoric Acid and Phosphine gas)</title>
<path fill="none" stroke="black" stroke-width="1.12" d="M1138.85,-1564.36C1109.19,-1531.52 1046.15,-1461.74 1012.01,-1423.95"/>
<polygon fill="black" stroke="black" stroke-width="1.12" points="1014.49,-1421.47 1005.19,-1416.39 1009.29,-1426.16 1014.49,-1421.47"/>
<text text-anchor="middle" x="1036.93" y="-1497.95" font-family="Times,serif" font-size="14.00">ash*40288</text>
</g>
<!-- &#45;6,&#45;9 (Burnination) -->
<g id="node12" class="node">
<title>&#45;6,&#45;9 (Burnination)</title>
<ellipse fill="none" stroke="black" cx="844.28" cy="-1628.24" rx="96.38" ry="18"/>
<text text-anchor="middle" x="844.28" y="-1624.54" font-family="Times,serif" font-size="14.00">&#45;6,&#45;9 (Burnination)</text>
</g>
<!-- &#45;6,&#45;9 (Burnination)&#45;&gt;3,6 (Phosphoric Acid and Phosphine gas) -->
<g id="edge16" class="edge">
<title>&#45;6,&#45;9 (Burnination)&#45;&gt;3,6 (Phosphoric Acid and Phosphine gas)</title>
<path fill="none" stroke="black" stroke-width="0.56" d="M855.63,-1610.2C880.96,-1569.93 942.23,-1472.51 972.03,-1425.13"/>
<polygon fill="black" stroke="black" stroke-width="0.56" points="975.03,-1426.94 977.39,-1416.62 969.1,-1423.22 975.03,-1426.94"/>
<text text-anchor="middle" x="875.33" y="-1521.46" font-family="Times,serif" font-size="14.00">ash*20080</text>
</g>
</g>
</svg>
