<?xml version="1.0" encoding="UTF-8" standalone="no"?>
<!DOCTYPE svg PUBLIC "-//W3C//DTD SVG 1.1//EN"
 "http://www.w3.org/Graphics/SVG/1.1/DTD/svg11.dtd">
<!-- Generated by graphviz version 2.43.0 (0)
 -->
<!-- Title: %3 Pages: 1 -->
<svg width="1136pt" height="1021pt"
 viewBox="0.00 0.00 1136.42 1021.49" xmlns="http://www.w3.org/2000/svg" xmlns:xlink="http://www.w3.org/1999/xlink">
<g id="graph0" class="graph" transform="scale(1 1) rotate(0) translate(4 1017.49)">
<title>%3</title>
<polygon fill="white" stroke="transparent" points="-4,4 -4,-1017.49 1132.42,-1017.49 1132.42,4 -4,4"/>
<!-- &#45;3,2 (Lead and Solder) -->
<g id="node1" class="node">
<title>&#45;3,2 (Lead and Solder)</title>
<ellipse fill="none" stroke="black" cx="546.87" cy="-529.24" rx="113.98" ry="18"/>
<text text-anchor="middle" x="546.87" y="-525.54" font-family="Times,serif" font-size="14.00">&#45;3,2 (Lead and Solder)</text>
</g>
<!-- &#45;2,&#45;3 (Trains) -->
<g id="node2" class="node">
<title>&#45;2,&#45;3 (Trains)</title>
<ellipse fill="none" stroke="black" cx="1058.23" cy="-529.24" rx="70.39" ry="18"/>
<text text-anchor="middle" x="1058.23" y="-525.54" font-family="Times,serif" font-size="14.00">&#45;2,&#45;3 (Trains)</text>
</g>
<!-- &#45;3,2 (Lead and Solder)&#45;&gt;&#45;2,&#45;3 (Trains) -->
<g id="edge1" class="edge">
<title>&#45;3,2 (Lead and Solder)&#45;&gt;&#45;2,&#45;3 (Trains)</title>
<path fill="none" stroke="black" stroke-width="1.53" d="M660.67,-529.24C756.97,-529.24 892.55,-529.24 977.87,-529.24"/>
<polygon fill="black" stroke="black" stroke-width="1.53" points="978.03,-532.74 988.03,-529.24 978.03,-525.74 978.03,-532.74"/>
<text text-anchor="middle" x="775.27" y="-533.04" font-family="Times,serif" font-size="14.00">solder*8464</text>
</g>
<!-- 0,10 (item=meat Meat) -->
<g id="node3" class="node">
<title>0,10 (item=meat Meat)</title>
<ellipse fill="none" stroke="black" cx="756.88" cy="-995.49" rx="120.48" ry="18"/>
<text text-anchor="middle" x="756.88" y="-991.79" font-family="Times,serif" font-size="14.00">0,10 (item=meat Meat)</text>
</g>
<!-- &#45;3,2 (Lead and Solder)&#45;&gt;0,10 (item=meat Meat) -->
<g id="edge2" class="edge">
<title>&#45;3,2 (Lead and Solder)&#45;&gt;0,10 (item=meat Meat)</title>
<path fill="none" stroke="black" stroke-width="1.1" d="M554.97,-547.23C587.13,-618.62 705.85,-882.19 744.57,-968.17"/>
<polygon fill="black" stroke="black" stroke-width="1.1" points="741.39,-969.62 748.69,-977.3 747.77,-966.74 741.39,-969.62"/>
<text text-anchor="middle" x="605.77" y="-761.5" font-family="Times,serif" font-size="14.00">solder*6064</text>
</g>
<!-- &#45;3,8 (Urea) -->
<g id="node4" class="node">
<title>&#45;3,8 (Urea)</title>
<ellipse fill="none" stroke="black" cx="214.87" cy="-918.18" rx="61.19" ry="18"/>
<text text-anchor="middle" x="214.87" y="-914.48" font-family="Times,serif" font-size="14.00">&#45;3,8 (Urea)</text>
</g>
<!-- &#45;3,2 (Lead and Solder)&#45;&gt;&#45;3,8 (Urea) -->
<g id="edge3" class="edge">
<title>&#45;3,2 (Lead and Solder)&#45;&gt;&#45;3,8 (Urea)</title>
<path fill="none" stroke="black" stroke-width="0.73" d="M531.52,-547.22C477.98,-609.94 299.35,-819.21 236.76,-892.53"/>
<polygon fill="black" stroke="black" stroke-width="0.73" points="233.89,-890.51 230.06,-900.39 239.21,-895.05 233.89,-890.51"/>
<text text-anchor="middle" x="340.14" y="-723.68" font-family="Times,serif" font-size="14.00">solder*4032</text>
</g>
<!-- &#45;4,1 () -->
<g id="node5" class="node">
<title>&#45;4,1 ()</title>
<ellipse fill="none" stroke="black" cx="38.35" cy="-475.43" rx="38.19" ry="18"/>
<text text-anchor="middle" x="38.35" y="-471.73" font-family="Times,serif" font-size="14.00">&#45;4,1 ()</text>
</g>
<!-- &#45;3,2 (Lead and Solder)&#45;&gt;&#45;4,1 () -->
<g id="edge4" class="edge">
<title>&#45;3,2 (Lead and Solder)&#45;&gt;&#45;4,1 ()</title>
<path fill="none" stroke="black" stroke-width="0.73" d="M452.11,-519.22C343.4,-507.71 169.44,-489.3 86.01,-480.47"/>
<polygon fill="black" stroke="black" stroke-width="0.73" points="86.12,-476.97 75.81,-479.39 85.39,-483.93 86.12,-476.97"/>
<text text-anchor="middle" x="225.06" y="-503.64" font-family="Times,serif" font-size="14.00">solder*4016</text>
</g>
<!-- &#45;1,6 (Flimble&#39;s Slaughterhouse and Daycare Centre, Auog Products) -->
<g id="node6" class="node">
<title>&#45;1,6 (Flimble&#39;s Slaughterhouse and Daycare Centre, Auog Products)</title>
<ellipse fill="none" stroke="black" cx="557.9" cy="-18" rx="325.74" ry="18"/>
<text text-anchor="middle" x="557.9" y="-14.3" font-family="Times,serif" font-size="14.00">&#45;1,6 (Flimble&#39;s Slaughterhouse and Daycare Centre, Auog Products)</text>
</g>
<!-- &#45;3,2 (Lead and Solder)&#45;&gt;&#45;1,6 (Flimble&#39;s Slaughterhouse and Daycare Centre, Auog Products) -->
<g id="edge5" class="edge">
<title>&#45;3,2 (Lead and Solder)&#45;&gt;&#45;1,6 (Flimble&#39;s Slaughterhouse and Daycare Centre, Auog Products)</title>
<path fill="none" stroke="black" stroke-width="0.91" d="M547.26,-511.05C548.91,-434.65 555.28,-139.48 557.29,-46.33"/>
<polygon fill="black" stroke="black" stroke-width="0.91" points="560.79,-46.32 557.51,-36.24 553.79,-46.17 560.79,-46.32"/>
<text text-anchor="middle" x="508.27" y="-282.49" font-family="Times,serif" font-size="14.00">solder*5024</text>
</g>
</g>
</svg>
