<?xml version="1.0" encoding="UTF-8" standalone="no"?>
<!DOCTYPE svg PUBLIC "-//W3C//DTD SVG 1.1//EN"
 "http://www.w3.org/Graphics/SVG/1.1/DTD/svg11.dtd">
<!-- Generated by graphviz version 2.43.0 (0)
 -->
<!-- Title: %3 Pages: 1 -->
<svg width="1624pt" height="1907pt"
 viewBox="0.00 0.00 1624.11 1907.38" xmlns="http://www.w3.org/2000/svg" xmlns:xlink="http://www.w3.org/1999/xlink">
<g id="graph0" class="graph" transform="scale(1 1) rotate(0) translate(4 1903.38)">
<title>%3</title>
<polygon fill="white" stroke="transparent" points="-4,4 -4,-1903.38 1620.11,-1903.38 1620.11,4 -4,4"/>
<!-- 0,7 (Coal Gas) -->
<g id="node1" class="node">
<title>0,7 (Coal Gas)</title>
<ellipse fill="none" stroke="black" cx="374.5" cy="-98.37" rx="76.09" ry="18"/>
<text text-anchor="middle" x="374.5" y="-94.67" font-family="Times,serif" font-size="14.00">0,7 (Coal Gas)</text>
</g>
<!-- 0,0 (LE BUS) -->
<g id="node2" class="node">
<title>0,0 (LE BUS)</title>
<ellipse fill="none" stroke="black" cx="1389.42" cy="-684.33" rx="71.49" ry="18"/>
<text text-anchor="middle" x="1389.42" y="-680.63" font-family="Times,serif" font-size="14.00">0,0 (LE BUS)</text>
</g>
<!-- 0,7 (Coal Gas)&#45;&gt;0,0 (LE BUS) -->
<g id="edge1" class="edge">
<title>0,7 (Coal Gas)&#45;&gt;0,0 (LE BUS)</title>
<path fill="none" stroke="black" stroke-width="0.14" d="M403.51,-115.12C547.95,-198.51 1189.05,-568.65 1351.77,-662.59"/>
<polygon fill="black" stroke="black" stroke-width="0.14" points="1350.07,-665.65 1360.48,-667.62 1353.57,-659.59 1350.07,-665.65"/>
<text text-anchor="middle" x="843.64" y="-392.66" font-family="Times,serif" font-size="14.00">ash*7224</text>
</g>
<!-- 3,6 (Phosphoric Acid and Phosphine gas) -->
<g id="node5" class="node">
<title>3,6 (Phosphoric Acid and Phosphine gas)</title>
<ellipse fill="none" stroke="black" cx="830.3" cy="-1350.67" rx="200.36" ry="18"/>
<text text-anchor="middle" x="830.3" y="-1346.97" font-family="Times,serif" font-size="14.00">3,6 (Phosphoric Acid and Phosphine gas)</text>
</g>
<!-- 0,7 (Coal Gas)&#45;&gt;3,6 (Phosphoric Acid and Phosphine gas) -->
<g id="edge17" class="edge">
<title>0,7 (Coal Gas)&#45;&gt;3,6 (Phosphoric Acid and Phosphine gas)</title>
<path fill="none" stroke="black" stroke-width="0.39" d="M381.12,-116.56C431.81,-255.83 758.2,-1152.57 820.15,-1322.79"/>
<polygon fill="black" stroke="black" stroke-width="0.39" points="816.91,-1324.1 823.62,-1332.3 823.48,-1321.71 816.91,-1324.1"/>
<text text-anchor="middle" x="562.14" y="-723.47" font-family="Times,serif" font-size="14.00">ash*20009</text>
</g>
<!-- 4,&#45;2 (Ceramic) -->
<g id="node6" class="node">
<title>4,&#45;2 (Ceramic)</title>
<ellipse fill="none" stroke="black" cx="77" cy="-452.92" rx="76.89" ry="18"/>
<text text-anchor="middle" x="77" y="-449.22" font-family="Times,serif" font-size="14.00">4,&#45;2 (Ceramic)</text>
</g>
<!-- 0,7 (Coal Gas)&#45;&gt;4,&#45;2 (Ceramic) -->
<g id="edge21" class="edge">
<title>0,7 (Coal Gas)&#45;&gt;4,&#45;2 (Ceramic)</title>
<path fill="none" stroke="black" stroke-width="0.41" d="M359.34,-116.44C310.3,-174.88 155.85,-358.95 98.62,-427.16"/>
<polygon fill="black" stroke="black" stroke-width="0.41" points="95.88,-424.97 92.13,-434.88 101.24,-429.47 95.88,-424.97"/>
<text text-anchor="middle" x="190.48" y="-275.6" font-family="Times,serif" font-size="14.00">ash*21196</text>
</g>
<!-- 4,15 (Half an Ash) -->
<g id="node3" class="node">
<title>4,15 (Half an Ash)</title>
<ellipse fill="none" stroke="black" cx="374.5" cy="-1270.3" rx="94.78" ry="18"/>
<text text-anchor="middle" x="374.5" y="-1266.6" font-family="Times,serif" font-size="14.00">4,15 (Half an Ash)</text>
</g>
<!-- 4,15 (Half an Ash)&#45;&gt;0,0 (LE BUS) -->
<g id="edge2" class="edge">
<title>4,15 (Half an Ash)&#45;&gt;0,0 (LE BUS)</title>
<path fill="none" stroke="black" stroke-width="0.78" d="M404.33,-1253.08C550.38,-1168.75 1189.66,-799.66 1351.89,-706"/>
<polygon fill="black" stroke="black" stroke-width="0.78" points="1353.66,-709.02 1360.57,-700.99 1350.16,-702.96 1353.66,-709.02"/>
<text text-anchor="middle" x="839.61" y="-983.34" font-family="Times,serif" font-size="14.00">ash*40448</text>
</g>
<!-- 4,15 (Half an Ash)&#45;&gt;3,6 (Phosphoric Acid and Phosphine gas) -->
<g id="edge8" class="edge">
<title>4,15 (Half an Ash)&#45;&gt;3,6 (Phosphoric Acid and Phosphine gas)</title>
<path fill="none" stroke="black" stroke-width="2.36" d="M444.22,-1282.59C520.27,-1296 642.67,-1317.58 729.24,-1332.85"/>
<polygon fill="black" stroke="black" stroke-width="2.36" points="728.9,-1336.34 739.35,-1334.63 730.11,-1329.45 728.9,-1336.34"/>
<text text-anchor="middle" x="543.73" y="-1311.52" font-family="Times,serif" font-size="14.00">ash*122512</text>
</g>
<!-- 4,15 (Half an Ash)&#45;&gt;4,&#45;2 (Ceramic) -->
<g id="edge19" class="edge">
<title>4,15 (Half an Ash)&#45;&gt;4,&#45;2 (Ceramic)</title>
<path fill="none" stroke="black" stroke-width="0.64" d="M367.87,-1252.08C329.31,-1146.12 133.99,-609.51 87.12,-480.73"/>
<polygon fill="black" stroke="black" stroke-width="0.64" points="90.36,-479.38 83.65,-471.18 83.78,-481.77 90.36,-479.38"/>
<text text-anchor="middle" x="189" y="-870.2" font-family="Times,serif" font-size="14.00">ash*33232</text>
</g>
<!-- &#45;6,&#45;2 (item=fertilizer Fertiliser) -->
<g id="node12" class="node">
<title>&#45;6,&#45;2 (item=fertilizer Fertiliser)</title>
<ellipse fill="none" stroke="black" cx="207.81" cy="-1559.01" rx="155.97" ry="18"/>
<text text-anchor="middle" x="207.81" y="-1555.31" font-family="Times,serif" font-size="14.00">&#45;6,&#45;2 (item=fertilizer Fertiliser)</text>
</g>
<!-- 4,15 (Half an Ash)&#45;&gt;&#45;6,&#45;2 (item=fertilizer Fertiliser) -->
<g id="edge15" class="edge">
<title>4,15 (Half an Ash)&#45;&gt;&#45;6,&#45;2 (item=fertilizer Fertiliser)</title>
<path fill="none" stroke="black" stroke-width="0.64" d="M364.07,-1288.36C335.72,-1337.47 257.08,-1473.68 223.42,-1531.98"/>
<polygon fill="black" stroke="black" stroke-width="0.64" points="220.2,-1530.55 218.23,-1540.96 226.26,-1534.05 220.2,-1530.55"/>
<text text-anchor="middle" x="255.25" y="-1413.97" font-family="Times,serif" font-size="14.00">ash*33232</text>
</g>
<!-- 0,8 (Tar from Coke) -->
<g id="node4" class="node">
<title>0,8 (Tar from Coke)</title>
<ellipse fill="none" stroke="black" cx="1231.12" cy="-1119.25" rx="100.98" ry="18"/>
<text text-anchor="middle" x="1231.12" y="-1115.55" font-family="Times,serif" font-size="14.00">0,8 (Tar from Coke)</text>
</g>
<!-- 0,8 (Tar from Coke)&#45;&gt;0,0 (LE BUS) -->
<g id="edge3" class="edge">
<title>0,8 (Tar from Coke)&#45;&gt;0,0 (LE BUS)</title>
<path fill="none" stroke="black" stroke-width="0.38" d="M1237.72,-1101.12C1262.41,-1033.28 1349.44,-794.18 1379.28,-712.18"/>
<polygon fill="black" stroke="black" stroke-width="0.38" points="1382.66,-713.14 1382.79,-702.54 1376.08,-710.74 1382.66,-713.14"/>
<text text-anchor="middle" x="1270" y="-910.45" font-family="Times,serif" font-size="14.00">ash*19936</text>
</g>
<!-- 0,8 (Tar from Coke)&#45;&gt;3,6 (Phosphoric Acid and Phosphine gas) -->
<g id="edge5" class="edge">
<title>0,8 (Tar from Coke)&#45;&gt;3,6 (Phosphoric Acid and Phosphine gas)</title>
<path fill="none" stroke="black" stroke-width="0.78" d="M1201.32,-1136.46C1130.13,-1177.56 950.15,-1281.47 869.94,-1327.78"/>
<polygon fill="black" stroke="black" stroke-width="0.78" points="868.03,-1324.84 861.12,-1332.87 871.53,-1330.9 868.03,-1324.84"/>
<text text-anchor="middle" x="997.13" y="-1235.92" font-family="Times,serif" font-size="14.00">ash*40352</text>
</g>
<!-- 3,6 (Phosphoric Acid and Phosphine gas)&#45;&gt;0,0 (LE BUS) -->
<g id="edge4" class="edge">
<title>3,6 (Phosphoric Acid and Phosphine gas)&#45;&gt;0,0 (LE BUS)</title>
<path fill="none" stroke="black" stroke-width="2.6" d="M845.55,-1332.5C923.41,-1239.7 1276.63,-818.75 1367.86,-710.02"/>
<polygon fill="black" stroke="black" stroke-width="2.6" points="1370.7,-712.08 1374.45,-702.17 1365.34,-707.58 1370.7,-712.08"/>
<text text-anchor="middle" x="1063.7" y="-1025.06" font-family="Times,serif" font-size="14.00">ash*135104</text>
</g>
<!-- 3,6 (Phosphoric Acid and Phosphine gas)&#45;&gt;3,6 (Phosphoric Acid and Phosphine gas) -->
<g id="edge11" class="edge">
<title>3,6 (Phosphoric Acid and Phosphine gas)&#45;&gt;3,6 (Phosphoric Acid and Phosphine gas)</title>
<path fill="none" stroke="black" stroke-width="2.75" d="M1021.78,-1355.93C1038.22,-1354.81 1048.48,-1353.06 1048.48,-1350.67 1048.48,-1348.82 1042.34,-1347.35 1031.96,-1346.26"/>
<polygon fill="black" stroke="black" stroke-width="2.75" points="1032.04,-1342.75 1021.78,-1345.4 1031.45,-1349.73 1032.04,-1342.75"/>
<text text-anchor="middle" x="1091.48" y="-1346.97" font-family="Times,serif" font-size="14.00">ash*142416</text>
</g>
<!-- 3,6 (Phosphoric Acid and Phosphine gas)&#45;&gt;4,&#45;2 (Ceramic) -->
<g id="edge6" class="edge">
<title>3,6 (Phosphoric Acid and Phosphine gas)&#45;&gt;4,&#45;2 (Ceramic)</title>
<path fill="none" stroke="black" stroke-width="1.28" d="M814.91,-1332.33C719.57,-1218.7 209.91,-611.31 98.52,-478.56"/>
<polygon fill="black" stroke="black" stroke-width="1.28" points="101.16,-476.27 92.05,-470.86 95.8,-480.77 101.16,-476.27"/>
<text text-anchor="middle" x="418.21" y="-909.24" font-family="Times,serif" font-size="14.00">ash*66464</text>
</g>
<!-- 5,2 (Raw Fiber) -->
<g id="node8" class="node">
<title>5,2 (Raw Fiber)</title>
<ellipse fill="none" stroke="black" cx="1231.12" cy="-249.42" rx="83.39" ry="18"/>
<text text-anchor="middle" x="1231.12" y="-245.72" font-family="Times,serif" font-size="14.00">5,2 (Raw Fiber)</text>
</g>
<!-- 3,6 (Phosphoric Acid and Phosphine gas)&#45;&gt;5,2 (Raw Fiber) -->
<g id="edge18" class="edge">
<title>3,6 (Phosphoric Acid and Phosphine gas)&#45;&gt;5,2 (Raw Fiber)</title>
<path fill="none" stroke="black" stroke-width="1.28" d="M836.92,-1332.47C883.69,-1203.98 1163.95,-433.98 1220.99,-277.25"/>
<polygon fill="black" stroke="black" stroke-width="1.28" points="1224.43,-278.02 1224.57,-267.43 1217.86,-275.63 1224.43,-278.02"/>
<text text-anchor="middle" x="990.46" y="-808.66" font-family="Times,serif" font-size="14.00">ash*66464</text>
</g>
<!-- &#45;6,&#45;8 (Convenient tin ore , fluid=z3&#45;reagent Help, how do I make Z3?) -->
<g id="node13" class="node">
<title>&#45;6,&#45;8 (Convenient tin ore , fluid=z3&#45;reagent Help, how do I make Z3?)</title>
<ellipse fill="none" stroke="black" cx="1157.45" cy="-1806.85" rx="332.54" ry="18"/>
<text text-anchor="middle" x="1157.45" y="-1803.15" font-family="Times,serif" font-size="14.00">&#45;6,&#45;8 (Convenient tin ore , fluid=z3&#45;reagent Help, how do I make Z3?)</text>
</g>
<!-- 3,6 (Phosphoric Acid and Phosphine gas)&#45;&gt;&#45;6,&#45;8 (Convenient tin ore , fluid=z3&#45;reagent Help, how do I make Z3?) -->
<g id="edge20" class="edge">
<title>3,6 (Phosphoric Acid and Phosphine gas)&#45;&gt;&#45;6,&#45;8 (Convenient tin ore , fluid=z3&#45;reagent Help, how do I make Z3?)</title>
<path fill="none" stroke="black" stroke-width="0.64" d="M843.33,-1368.83C894.06,-1439.57 1078.56,-1696.85 1138.5,-1780.43"/>
<polygon fill="black" stroke="black" stroke-width="0.64" points="1135.71,-1782.55 1144.38,-1788.64 1141.4,-1778.47 1135.71,-1782.55"/>
<text text-anchor="middle" x="952.41" y="-1578.43" font-family="Times,serif" font-size="14.00">ash*33232</text>
</g>
<!-- 2,7 (Mystery petrochemicals) -->
<g id="node7" class="node">
<title>2,7 (Mystery petrochemicals)</title>
<ellipse fill="none" stroke="black" cx="830.3" cy="-18" rx="147.57" ry="18"/>
<text text-anchor="middle" x="830.3" y="-14.3" font-family="Times,serif" font-size="14.00">2,7 (Mystery petrochemicals)</text>
</g>
<!-- 2,7 (Mystery petrochemicals)&#45;&gt;0,0 (LE BUS) -->
<g id="edge16" class="edge">
<title>2,7 (Mystery petrochemicals)&#45;&gt;0,0 (LE BUS)</title>
<path fill="none" stroke="black" stroke-width="0.38" d="M845.55,-36.17C923.41,-128.97 1276.63,-549.92 1367.86,-658.64"/>
<polygon fill="black" stroke="black" stroke-width="0.38" points="1365.34,-661.08 1374.45,-666.49 1370.7,-656.58 1365.34,-661.08"/>
<text text-anchor="middle" x="1068.2" y="-351.21" font-family="Times,serif" font-size="14.00">ash*19552</text>
</g>
<!-- 2,7 (Mystery petrochemicals)&#45;&gt;5,2 (Raw Fiber) -->
<g id="edge7" class="edge">
<title>2,7 (Mystery petrochemicals)&#45;&gt;5,2 (Raw Fiber)</title>
<path fill="none" stroke="black" stroke-width="0.64" d="M861.09,-35.77C933.46,-77.56 1114.22,-181.92 1193.2,-227.52"/>
<polygon fill="black" stroke="black" stroke-width="0.64" points="1191.45,-230.55 1201.86,-232.52 1194.95,-224.49 1191.45,-230.55"/>
<text text-anchor="middle" x="988.64" y="-135.45" font-family="Times,serif" font-size="14.00">ash*33232</text>
</g>
<!-- 5,3 (Ash) -->
<g id="node9" class="node">
<title>5,3 (Ash)</title>
<ellipse fill="none" stroke="black" cx="77" cy="-915.75" rx="51.99" ry="18"/>
<text text-anchor="middle" x="77" y="-912.05" font-family="Times,serif" font-size="14.00">5,3 (Ash)</text>
</g>
<!-- 5,3 (Ash)&#45;&gt;0,0 (LE BUS) -->
<g id="edge9" class="edge">
<title>5,3 (Ash)&#45;&gt;0,0 (LE BUS)</title>
<path fill="none" stroke="black" stroke-width="1.22" d="M123.71,-907.51C320.9,-872.74 1085.83,-737.86 1320.54,-696.48"/>
<polygon fill="black" stroke="black" stroke-width="1.22" points="1321.42,-699.88 1330.66,-694.69 1320.2,-692.98 1321.42,-699.88"/>
<text text-anchor="middle" x="683.63" y="-805.79" font-family="Times,serif" font-size="14.00">ash*63344</text>
</g>
<!-- 5,3 (Ash)&#45;&gt;3,6 (Phosphoric Acid and Phosphine gas) -->
<g id="edge14" class="edge">
<title>5,3 (Ash)&#45;&gt;3,6 (Phosphoric Acid and Phosphine gas)</title>
<path fill="none" stroke="black" stroke-width="1.17" d="M103.81,-931.23C216.93,-996.53 655.54,-1249.77 790.54,-1327.71"/>
<polygon fill="black" stroke="black" stroke-width="1.17" points="788.94,-1330.83 799.35,-1332.8 792.44,-1324.77 788.94,-1330.83"/>
<text text-anchor="middle" x="408.67" y="-1133.27" font-family="Times,serif" font-size="14.00">ash*60720</text>
</g>
<!-- 5,3 (Ash)&#45;&gt;4,&#45;2 (Ceramic) -->
<g id="edge12" class="edge">
<title>5,3 (Ash)&#45;&gt;4,&#45;2 (Ceramic)</title>
<path fill="none" stroke="black" stroke-width="1.92" d="M77,-897.6C77,-826.6 77,-567.27 77,-481.02"/>
<polygon fill="black" stroke="black" stroke-width="1.92" points="80.5,-480.94 77,-470.94 73.5,-480.94 80.5,-480.94"/>
<text text-anchor="middle" x="38.5" y="-693.11" font-family="Times,serif" font-size="14.00">ash*99696</text>
</g>
<!-- 1,8 (HCl, Salt) -->
<g id="node10" class="node">
<title>1,8 (HCl, Salt)</title>
<ellipse fill="none" stroke="black" cx="1538.76" cy="-684.33" rx="77.19" ry="18"/>
<text text-anchor="middle" x="1538.76" y="-680.63" font-family="Times,serif" font-size="14.00">1,8 (HCl, Salt)</text>
</g>
<!-- 1,8 (HCl, Salt)&#45;&gt;0,0 (LE BUS) -->
<g id="edge10" class="edge">
<title>1,8 (HCl, Salt)&#45;&gt;0,0 (LE BUS)</title>
<path fill="none" stroke="black" stroke-width="0.4" d="M1461.03,-684.33C1460.96,-684.33 1460.89,-684.33 1460.82,-684.33"/>
<polygon fill="black" stroke="black" stroke-width="0.4" points="1470.61,-680.84 1460.6,-684.33 1470.6,-687.84 1470.61,-680.84"/>
<text text-anchor="middle" x="1499.42" y="-688.13" font-family="Times,serif" font-size="14.00">ash*20496</text>
</g>
<!-- &#45;2,8 (syngas from coal dust and also wood) -->
<g id="node11" class="node">
<title>&#45;2,8 (syngas from coal dust and also wood)</title>
<ellipse fill="none" stroke="black" cx="555.21" cy="-1881.38" rx="208.76" ry="18"/>
<text text-anchor="middle" x="555.21" y="-1877.68" font-family="Times,serif" font-size="14.00">&#45;2,8 (syngas from coal dust and also wood)</text>
</g>
<!-- &#45;2,8 (syngas from coal dust and also wood)&#45;&gt;3,6 (Phosphoric Acid and Phosphine gas) -->
<g id="edge13" class="edge">
<title>&#45;2,8 (syngas from coal dust and also wood)&#45;&gt;3,6 (Phosphoric Acid and Phosphine gas)</title>
<path fill="none" stroke="black" stroke-width="0.2" d="M564.68,-1863.11C605.6,-1784.17 767.37,-1472.07 816.24,-1377.78"/>
<polygon fill="black" stroke="black" stroke-width="0.2" points="819.38,-1379.35 820.87,-1368.86 813.16,-1376.13 819.38,-1379.35"/>
<text text-anchor="middle" x="651.96" y="-1624.25" font-family="Times,serif" font-size="14.00">ash*10384</text>
</g>
</g>
</svg>
