<?xml version="1.0" encoding="UTF-8" standalone="no"?>
<!DOCTYPE svg PUBLIC "-//W3C//DTD SVG 1.1//EN"
 "http://www.w3.org/Graphics/SVG/1.1/DTD/svg11.dtd">
<!-- Generated by graphviz version 2.43.0 (0)
 -->
<!-- Title: %3 Pages: 1 -->
<svg width="678pt" height="500pt"
 viewBox="0.00 0.00 678.27 499.79" xmlns="http://www.w3.org/2000/svg" xmlns:xlink="http://www.w3.org/1999/xlink">
<g id="graph0" class="graph" transform="scale(1 1) rotate(0) translate(4 495.79)">
<title>%3</title>
<polygon fill="white" stroke="transparent" points="-4,4 -4,-495.79 674.27,-495.79 674.27,4 -4,4"/>
<!-- &#45;2,5 (Rare Earth Oxides) -->
<g id="node1" class="node">
<title>&#45;2,5 (Rare Earth Oxides)</title>
<ellipse fill="none" stroke="black" cx="299.39" cy="-18" rx="124.28" ry="18"/>
<text text-anchor="middle" x="299.39" y="-14.3" font-family="Times,serif" font-size="14.00">&#45;2,5 (Rare Earth Oxides)</text>
</g>
<!-- 0,0 (LE BUS) -->
<g id="node2" class="node">
<title>0,0 (LE BUS)</title>
<ellipse fill="none" stroke="black" cx="71.49" cy="-245.89" rx="71.49" ry="18"/>
<text text-anchor="middle" x="71.49" y="-242.19" font-family="Times,serif" font-size="14.00">0,0 (LE BUS)</text>
</g>
<!-- &#45;2,5 (Rare Earth Oxides)&#45;&gt;0,0 (LE BUS) -->
<g id="edge1" class="edge">
<title>&#45;2,5 (Rare Earth Oxides)&#45;&gt;0,0 (LE BUS)</title>
<path fill="none" stroke="black" stroke-width="0.2" d="M281.5,-35.88C241.05,-76.34 142.44,-174.95 96.2,-221.19"/>
<polygon fill="black" stroke="black" stroke-width="0.2" points="93.58,-218.86 88.98,-228.41 98.53,-223.81 93.58,-218.86"/>
<text text-anchor="middle" x="116.35" y="-132.34" font-family="Times,serif" font-size="14.00">chromite&#45;sand*6112</text>
</g>
<!-- 4,13 (Chromium processing) -->
<g id="node4" class="node">
<title>4,13 (Chromium processing)</title>
<ellipse fill="none" stroke="black" cx="527.28" cy="-245.89" rx="142.97" ry="18"/>
<text text-anchor="middle" x="527.28" y="-242.19" font-family="Times,serif" font-size="14.00">4,13 (Chromium processing)</text>
</g>
<!-- &#45;2,5 (Rare Earth Oxides)&#45;&gt;4,13 (Chromium processing) -->
<g id="edge4" class="edge">
<title>&#45;2,5 (Rare Earth Oxides)&#45;&gt;4,13 (Chromium processing)</title>
<path fill="none" stroke="black" stroke-width="0.25" d="M317.27,-35.88C357.53,-76.14 455.37,-173.98 501.89,-220.5"/>
<polygon fill="black" stroke="black" stroke-width="0.25" points="499.62,-223.18 509.17,-227.78 504.57,-218.23 499.62,-223.18"/>
<text text-anchor="middle" x="337.08" y="-131.99" font-family="Times,serif" font-size="14.00">chromite&#45;sand*7836</text>
</g>
<!-- &#45;6,&#45;3 (Chromite Sand) -->
<g id="node3" class="node">
<title>&#45;6,&#45;3 (Chromite Sand)</title>
<ellipse fill="none" stroke="black" cx="299.39" cy="-473.79" rx="110.48" ry="18"/>
<text text-anchor="middle" x="299.39" y="-470.09" font-family="Times,serif" font-size="14.00">&#45;6,&#45;3 (Chromite Sand)</text>
</g>
<!-- &#45;6,&#45;3 (Chromite Sand)&#45;&gt;0,0 (LE BUS) -->
<g id="edge2" class="edge">
<title>&#45;6,&#45;3 (Chromite Sand)&#45;&gt;0,0 (LE BUS)</title>
<path fill="none" stroke="black" stroke-width="1.45" d="M281.5,-455.91C241.05,-415.45 142.44,-316.84 96.2,-270.6"/>
<polygon fill="black" stroke="black" stroke-width="1.45" points="98.53,-267.98 88.98,-263.38 93.58,-272.93 98.53,-267.98"/>
<text text-anchor="middle" x="111.85" y="-367.05" font-family="Times,serif" font-size="14.00">chromite&#45;sand*44576</text>
</g>
<!-- &#45;6,&#45;3 (Chromite Sand)&#45;&gt;4,13 (Chromium processing) -->
<g id="edge3" class="edge">
<title>&#45;6,&#45;3 (Chromite Sand)&#45;&gt;4,13 (Chromium processing)</title>
<path fill="none" stroke="black" stroke-width="2.1" d="M317.27,-455.91C357.53,-415.65 455.37,-317.81 501.89,-271.28"/>
<polygon fill="black" stroke="black" stroke-width="2.1" points="504.57,-273.55 509.17,-264.01 499.62,-268.6 504.57,-273.55"/>
<text text-anchor="middle" x="332.58" y="-367.39" font-family="Times,serif" font-size="14.00">chromite&#45;sand*64720</text>
</g>
</g>
</svg>
