<?xml version="1.0" encoding="UTF-8" standalone="no"?>
<!DOCTYPE svg PUBLIC "-//W3C//DTD SVG 1.1//EN"
 "http://www.w3.org/Graphics/SVG/1.1/DTD/svg11.dtd">
<!-- Generated by graphviz version 2.43.0 (0)
 -->
<!-- Title: %3 Pages: 1 -->
<svg width="2257pt" height="1780pt"
 viewBox="0.00 0.00 2256.67 1780.07" xmlns="http://www.w3.org/2000/svg" xmlns:xlink="http://www.w3.org/1999/xlink">
<g id="graph0" class="graph" transform="scale(1 1) rotate(0) translate(4 1776.07)">
<title>%3</title>
<polygon fill="white" stroke="transparent" points="-4,4 -4,-1776.07 2252.67,-1776.07 2252.67,4 -4,4"/>
<!-- &#45;1,10 (Iron Plates) -->
<g id="node1" class="node">
<title>&#45;1,10 (Iron Plates)</title>
<ellipse fill="none" stroke="black" cx="1684.48" cy="-319.47" rx="94.78" ry="18"/>
<text text-anchor="middle" x="1684.48" y="-315.77" font-family="Times,serif" font-size="14.00">&#45;1,10 (Iron Plates)</text>
</g>
<!-- 5,2 (Raw Fiber) -->
<g id="node2" class="node">
<title>5,2 (Raw Fiber)</title>
<ellipse fill="none" stroke="black" cx="181" cy="-584.57" rx="83.39" ry="18"/>
<text text-anchor="middle" x="181" y="-580.87" font-family="Times,serif" font-size="14.00">5,2 (Raw Fiber)</text>
</g>
<!-- &#45;1,10 (Iron Plates)&#45;&gt;5,2 (Raw Fiber) -->
<g id="edge1" class="edge">
<title>&#45;1,10 (Iron Plates)&#45;&gt;5,2 (Raw Fiber)</title>
<path fill="none" stroke="black" stroke-width="1.32" d="M1614.48,-331.81C1364.06,-375.96 513.94,-525.86 255.89,-571.37"/>
<polygon fill="black" stroke="black" stroke-width="1.32" points="255.1,-567.95 245.86,-573.13 256.32,-574.84 255.1,-567.95"/>
<text text-anchor="middle" x="844.68" y="-455.39" font-family="Times,serif" font-size="14.00">dirty&#45;water&#45;barrel*11888</text>
</g>
<!-- 4,3 (item=nexelit&#45;plate Nexelit platery) -->
<g id="node4" class="node">
<title>4,3 (item=nexelit&#45;plate Nexelit platery)</title>
<ellipse fill="none" stroke="black" cx="1890.7" cy="-886.04" rx="194.17" ry="18"/>
<text text-anchor="middle" x="1890.7" y="-882.34" font-family="Times,serif" font-size="14.00">4,3 (item=nexelit&#45;plate Nexelit platery)</text>
</g>
<!-- &#45;1,10 (Iron Plates)&#45;&gt;4,3 (item=nexelit&#45;plate Nexelit platery) -->
<g id="edge5" class="edge">
<title>&#45;1,10 (Iron Plates)&#45;&gt;4,3 (item=nexelit&#45;plate Nexelit platery)</title>
<path fill="none" stroke="black" stroke-width="2.09" d="M1691.11,-337.67C1721.1,-420.09 1844.26,-758.44 1880.57,-858.22"/>
<polygon fill="black" stroke="black" stroke-width="2.09" points="1877.38,-859.69 1884.09,-867.89 1883.96,-857.3 1877.38,-859.69"/>
<text text-anchor="middle" x="1695.34" y="-601.75" font-family="Times,serif" font-size="14.00">dirty&#45;water&#45;barrel*18840</text>
</g>
<!-- &#45;2,7 (item=borax Borax) -->
<g id="node3" class="node">
<title>&#45;2,7 (item=borax Borax)</title>
<ellipse fill="none" stroke="black" cx="1684.48" cy="-1452.61" rx="123.48" ry="18"/>
<text text-anchor="middle" x="1684.48" y="-1448.91" font-family="Times,serif" font-size="14.00">&#45;2,7 (item=borax Borax)</text>
</g>
<!-- &#45;2,7 (item=borax Borax)&#45;&gt;5,2 (Raw Fiber) -->
<g id="edge11" class="edge">
<title>&#45;2,7 (item=borax Borax)&#45;&gt;5,2 (Raw Fiber)</title>
<path fill="none" stroke="black" stroke-width="1.01" d="M1654.11,-1435.07C1463.38,-1324.95 432.11,-729.55 219.39,-606.74"/>
<polygon fill="black" stroke="black" stroke-width="1.01" points="220.87,-603.54 210.46,-601.58 217.37,-609.61 220.87,-603.54"/>
<text text-anchor="middle" x="850.75" y="-1024.7" font-family="Times,serif" font-size="14.00">dirty&#45;water&#45;barrel*9124</text>
</g>
<!-- &#45;2,7 (item=borax Borax)&#45;&gt;4,3 (item=nexelit&#45;plate Nexelit platery) -->
<g id="edge2" class="edge">
<title>&#45;2,7 (item=borax Borax)&#45;&gt;4,3 (item=nexelit&#45;plate Nexelit platery)</title>
<path fill="none" stroke="black" stroke-width="3.82" d="M1691.11,-1434.4C1721.1,-1351.98 1844.26,-1013.63 1880.57,-913.85"/>
<polygon fill="black" stroke="black" stroke-width="3.82" points="1883.96,-914.77 1884.09,-904.18 1877.38,-912.38 1883.96,-914.77"/>
<text text-anchor="middle" x="1695.34" y="-1177.92" font-family="Times,serif" font-size="14.00">dirty&#45;water&#45;barrel*34406</text>
</g>
<!-- &#45;3,1 (Logistic science pack, Automation Science (TODO)) -->
<g id="node10" class="node">
<title>&#45;3,1 (Logistic science pack, Automation Science (TODO))</title>
<ellipse fill="none" stroke="black" cx="1162.33" cy="-1754.07" rx="271.85" ry="18"/>
<text text-anchor="middle" x="1162.33" y="-1750.37" font-family="Times,serif" font-size="14.00">&#45;3,1 (Logistic science pack, Automation Science (TODO))</text>
</g>
<!-- &#45;2,7 (item=borax Borax)&#45;&gt;&#45;3,1 (Logistic science pack, Automation Science (TODO)) -->
<g id="edge16" class="edge">
<title>&#45;2,7 (item=borax Borax)&#45;&gt;&#45;3,1 (Logistic science pack, Automation Science (TODO))</title>
<path fill="none" stroke="black" stroke-width="0.06" d="M1654.15,-1470.12C1564.87,-1521.66 1302.97,-1672.87 1202.34,-1730.97"/>
<polygon fill="black" stroke="black" stroke-width="0.06" points="1200.31,-1728.1 1193.4,-1736.13 1203.81,-1734.16 1200.31,-1728.1"/>
<text text-anchor="middle" x="1346.75" y="-1604.34" font-family="Times,serif" font-size="14.00">dirty&#45;water&#45;barrel*512</text>
</g>
<!-- &#45;2,9 (molten steel) -->
<g id="node5" class="node">
<title>&#45;2,9 (molten steel)</title>
<ellipse fill="none" stroke="black" cx="568.56" cy="-1649.37" rx="95.58" ry="18"/>
<text text-anchor="middle" x="568.56" y="-1645.67" font-family="Times,serif" font-size="14.00">&#45;2,9 (molten steel)</text>
</g>
<!-- &#45;2,9 (molten steel)&#45;&gt;5,2 (Raw Fiber) -->
<g id="edge12" class="edge">
<title>&#45;2,9 (molten steel)&#45;&gt;5,2 (Raw Fiber)</title>
<path fill="none" stroke="black" stroke-width="0.22" d="M561.99,-1631.34C516.39,-1506.05 246.97,-765.82 191.13,-612.4"/>
<polygon fill="black" stroke="black" stroke-width="0.22" points="194.33,-610.97 187.62,-602.77 187.75,-613.36 194.33,-610.97"/>
<text text-anchor="middle" x="290.56" y="-1125.67" font-family="Times,serif" font-size="14.00">dirty&#45;water&#45;barrel*1944</text>
</g>
<!-- &#45;2,9 (molten steel)&#45;&gt;4,3 (item=nexelit&#45;plate Nexelit platery) -->
<g id="edge3" class="edge">
<title>&#45;2,9 (molten steel)&#45;&gt;4,3 (item=nexelit&#45;plate Nexelit platery)</title>
<path fill="none" stroke="black" stroke-width="0.89" d="M598.34,-1632.18C771.91,-1531.97 1652.1,-1023.79 1850.8,-909.07"/>
<polygon fill="black" stroke="black" stroke-width="0.89" points="1852.83,-911.94 1859.74,-903.91 1849.33,-905.88 1852.83,-911.94"/>
<text text-anchor="middle" x="1138.57" y="-1274.42" font-family="Times,serif" font-size="14.00">dirty&#45;water&#45;barrel*7965</text>
</g>
<!-- &#45;2,9 (molten steel)&#45;&gt;&#45;3,1 (Logistic science pack, Automation Science (TODO)) -->
<g id="edge15" class="edge">
<title>&#45;2,9 (molten steel)&#45;&gt;&#45;3,1 (Logistic science pack, Automation Science (TODO))</title>
<path fill="none" stroke="black" stroke-width="0.02" d="M638.42,-1661.69C741.66,-1679.9 935.76,-1714.12 1056.52,-1735.42"/>
<polygon fill="black" stroke="black" stroke-width="0.02" points="1056.07,-1738.89 1066.53,-1737.18 1057.29,-1732 1056.07,-1738.89"/>
<text text-anchor="middle" x="765.97" y="-1702.35" font-family="Times,serif" font-size="14.00">dirty&#45;water&#45;barrel*187</text>
</g>
<!-- 3,9 (Copper, molten &amp; plate) -->
<g id="node6" class="node">
<title>3,9 (Copper, molten &amp; plate)</title>
<ellipse fill="none" stroke="black" cx="181" cy="-1187.5" rx="143.77" ry="18"/>
<text text-anchor="middle" x="181" y="-1183.8" font-family="Times,serif" font-size="14.00">3,9 (Copper, molten &amp; plate)</text>
</g>
<!-- 3,9 (Copper, molten &amp; plate)&#45;&gt;5,2 (Raw Fiber) -->
<g id="edge4" class="edge">
<title>3,9 (Copper, molten &amp; plate)&#45;&gt;5,2 (Raw Fiber)</title>
<path fill="none" stroke="black" stroke-width="1.36" d="M181,-1169.46C181,-1083.83 181,-718.23 181,-613.01"/>
<polygon fill="black" stroke="black" stroke-width="1.36" points="184.5,-612.84 181,-602.84 177.5,-612.84 184.5,-612.84"/>
<text text-anchor="middle" x="90.5" y="-895.03" font-family="Times,serif" font-size="14.00">dirty&#45;water&#45;barrel*12270</text>
</g>
<!-- 3,9 (Copper, molten &amp; plate)&#45;&gt;4,3 (item=nexelit&#45;plate Nexelit platery) -->
<g id="edge6" class="edge">
<title>3,9 (Copper, molten &amp; plate)&#45;&gt;4,3 (item=nexelit&#45;plate Nexelit platery)</title>
<path fill="none" stroke="black" stroke-width="1.59" d="M264.33,-1172.81C548.76,-1122.65 1480.78,-958.32 1789.99,-903.79"/>
<polygon fill="black" stroke="black" stroke-width="1.59" points="1791.05,-907.16 1800.29,-901.98 1789.83,-900.27 1791.05,-907.16"/>
<text text-anchor="middle" x="936.66" y="-1042.1" font-family="Times,serif" font-size="14.00">dirty&#45;water&#45;barrel*14290</text>
</g>
<!-- 3,9 (Copper, molten &amp; plate)&#45;&gt;&#45;3,1 (Logistic science pack, Automation Science (TODO)) -->
<g id="edge14" class="edge">
<title>3,9 (Copper, molten &amp; plate)&#45;&gt;&#45;3,1 (Logistic science pack, Automation Science (TODO))</title>
<path fill="none" stroke="black" stroke-width="0.06" d="M211.72,-1205.24C355.42,-1288.2 961.13,-1637.91 1122.62,-1731.15"/>
<polygon fill="black" stroke="black" stroke-width="0.06" points="1120.89,-1734.19 1131.3,-1736.16 1124.39,-1728.12 1120.89,-1734.19"/>
<text text-anchor="middle" x="585.67" y="-1471.99" font-family="Times,serif" font-size="14.00">dirty&#45;water&#45;barrel*520</text>
</g>
<!-- &#45;3,&#45;1 (item=boron&#45;trioxide Boron products 2) -->
<g id="node7" class="node">
<title>&#45;3,&#45;1 (item=boron&#45;trioxide Boron products 2)</title>
<ellipse fill="none" stroke="black" cx="1162.33" cy="-18" rx="219.06" ry="18"/>
<text text-anchor="middle" x="1162.33" y="-14.3" font-family="Times,serif" font-size="14.00">&#45;3,&#45;1 (item=boron&#45;trioxide Boron products 2)</text>
</g>
<!-- &#45;3,&#45;1 (item=boron&#45;trioxide Boron products 2)&#45;&gt;5,2 (Raw Fiber) -->
<g id="edge7" class="edge">
<title>&#45;3,&#45;1 (item=boron&#45;trioxide Boron products 2)&#45;&gt;5,2 (Raw Fiber)</title>
<path fill="none" stroke="black" stroke-width="0.39" d="M1131.34,-35.89C986.8,-119.34 379.17,-470.15 219.55,-562.32"/>
<polygon fill="black" stroke="black" stroke-width="0.39" points="217.46,-559.48 210.55,-567.51 220.96,-565.54 217.46,-559.48"/>
<text text-anchor="middle" x="589.44" y="-302.9" font-family="Times,serif" font-size="14.00">dirty&#45;water&#45;barrel*3528</text>
</g>
<!-- &#45;3,&#45;1 (item=boron&#45;trioxide Boron products 2)&#45;&gt;4,3 (item=nexelit&#45;plate Nexelit platery) -->
<g id="edge9" class="edge">
<title>&#45;3,&#45;1 (item=boron&#45;trioxide Boron products 2)&#45;&gt;4,3 (item=nexelit&#45;plate Nexelit platery)</title>
<path fill="none" stroke="black" stroke-width="1.4" d="M1177.54,-36.13C1270.29,-146.67 1759.35,-729.51 1868.91,-860.07"/>
<polygon fill="black" stroke="black" stroke-width="1.4" points="1866.46,-862.59 1875.57,-868.01 1871.82,-858.1 1866.46,-862.59"/>
<text text-anchor="middle" x="1432.72" y="-451.9" font-family="Times,serif" font-size="14.00">dirty&#45;water&#45;barrel*12600</text>
</g>
<!-- 1,12 (Molten Iron) -->
<g id="node8" class="node">
<title>1,12 (Molten Iron)</title>
<ellipse fill="none" stroke="black" cx="568.56" cy="-122.7" rx="95.58" ry="18"/>
<text text-anchor="middle" x="568.56" y="-119" font-family="Times,serif" font-size="14.00">1,12 (Molten Iron)</text>
</g>
<!-- 1,12 (Molten Iron)&#45;&gt;5,2 (Raw Fiber) -->
<g id="edge10" class="edge">
<title>1,12 (Molten Iron)&#45;&gt;5,2 (Raw Fiber)</title>
<path fill="none" stroke="black" stroke-width="0.22" d="M553.6,-140.52C493.89,-211.68 272.45,-475.58 202.39,-559.07"/>
<polygon fill="black" stroke="black" stroke-width="0.22" points="199.66,-556.89 195.91,-566.8 205.02,-561.39 199.66,-556.89"/>
<text text-anchor="middle" x="292" y="-353.6" font-family="Times,serif" font-size="14.00">dirty&#45;water&#45;barrel*2000</text>
</g>
<!-- 1,12 (Molten Iron)&#45;&gt;4,3 (item=nexelit&#45;plate Nexelit platery) -->
<g id="edge8" class="edge">
<title>1,12 (Molten Iron)&#45;&gt;4,3 (item=nexelit&#45;plate Nexelit platery)</title>
<path fill="none" stroke="black" stroke-width="1.44" d="M598.34,-139.89C771.91,-240.11 1652.1,-748.28 1850.8,-863"/>
<polygon fill="black" stroke="black" stroke-width="1.44" points="1849.33,-866.2 1859.74,-868.16 1852.83,-860.13 1849.33,-866.2"/>
<text text-anchor="middle" x="1134.07" y="-505.25" font-family="Times,serif" font-size="14.00">dirty&#45;water&#45;barrel*13000</text>
</g>
<!-- 4,13 (Chromium processing) -->
<g id="node9" class="node">
<title>4,13 (Chromium processing)</title>
<ellipse fill="none" stroke="black" cx="2105.68" cy="-886.04" rx="142.97" ry="18"/>
<text text-anchor="middle" x="2105.68" y="-882.34" font-family="Times,serif" font-size="14.00">4,13 (Chromium processing)</text>
</g>
<!-- 4,13 (Chromium processing)&#45;&gt;4,3 (item=nexelit&#45;plate Nexelit platery) -->
<g id="edge13" class="edge">
<title>4,13 (Chromium processing)&#45;&gt;4,3 (item=nexelit&#45;plate Nexelit platery)</title>
<path fill="none" stroke="black" stroke-width="0.1" d="M1962.58,-886.04C1962.51,-886.04 1962.43,-886.04 1962.35,-886.04"/>
<polygon fill="black" stroke="black" stroke-width="0.1" points="1972.12,-882.54 1962.12,-886.04 1972.12,-889.54 1972.12,-882.54"/>
<text text-anchor="middle" x="1880.97" y="-889.84" font-family="Times,serif" font-size="14.00">dirty&#45;water&#45;barrel*891</text>
</g>
</g>
</svg>
