<?xml version="1.0" encoding="UTF-8" standalone="no"?>
<!DOCTYPE svg PUBLIC "-//W3C//DTD SVG 1.1//EN"
 "http://www.w3.org/Graphics/SVG/1.1/DTD/svg11.dtd">
<!-- Generated by graphviz version 2.43.0 (0)
 -->
<!-- Title: %3 Pages: 1 -->
<svg width="1157pt" height="625pt"
 viewBox="0.00 0.00 1156.51 625.20" xmlns="http://www.w3.org/2000/svg" xmlns:xlink="http://www.w3.org/1999/xlink">
<g id="graph0" class="graph" transform="scale(1 1) rotate(0) translate(4 621.2)">
<title>%3</title>
<polygon fill="white" stroke="transparent" points="-4,4 -4,-621.2 1152.51,-621.2 1152.51,4 -4,4"/>
<!-- 3,7 (Wood) -->
<g id="node1" class="node">
<title>3,7 (Wood)</title>
<ellipse fill="none" stroke="black" cx="704.84" cy="-308.6" rx="61.19" ry="18"/>
<text text-anchor="middle" x="704.84" y="-304.9" font-family="Times,serif" font-size="14.00">3,7 (Wood)</text>
</g>
<!-- 5,8 (Ulric Food) -->
<g id="node2" class="node">
<title>5,8 (Ulric Food)</title>
<ellipse fill="none" stroke="black" cx="493.71" cy="-18" rx="83.39" ry="18"/>
<text text-anchor="middle" x="493.71" y="-14.3" font-family="Times,serif" font-size="14.00">5,8 (Ulric Food)</text>
</g>
<!-- 3,7 (Wood)&#45;&gt;5,8 (Ulric Food) -->
<g id="edge1" class="edge">
<title>3,7 (Wood)&#45;&gt;5,8 (Ulric Food)</title>
<path fill="none" stroke="black" stroke-width="1.7" d="M691.95,-290.86C656.1,-241.51 555.06,-102.45 512.73,-44.19"/>
<polygon fill="black" stroke="black" stroke-width="1.7" points="515.41,-41.91 506.7,-35.88 509.74,-46.03 515.41,-41.91"/>
<text text-anchor="middle" x="557.34" y="-171.32" font-family="Times,serif" font-size="14.00">wood*27120</text>
</g>
<!-- 3,6 (Phosphoric Acid and Phosphine gas) -->
<g id="node3" class="node">
<title>3,6 (Phosphoric Acid and Phosphine gas)</title>
<ellipse fill="none" stroke="black" cx="935.6" cy="-70.4" rx="200.36" ry="18"/>
<text text-anchor="middle" x="935.6" y="-66.7" font-family="Times,serif" font-size="14.00">3,6 (Phosphoric Acid and Phosphine gas)</text>
</g>
<!-- 3,7 (Wood)&#45;&gt;3,6 (Phosphoric Acid and Phosphine gas) -->
<g id="edge2" class="edge">
<title>3,7 (Wood)&#45;&gt;3,6 (Phosphoric Acid and Phosphine gas)</title>
<path fill="none" stroke="black" stroke-width="0.63" d="M721.81,-291.08C762.12,-249.48 863.77,-144.55 910.9,-95.9"/>
<polygon fill="black" stroke="black" stroke-width="0.63" points="913.54,-98.21 917.98,-88.59 908.51,-93.34 913.54,-98.21"/>
<text text-anchor="middle" x="771.36" y="-197.29" font-family="Times,serif" font-size="14.00">wood*10040</text>
</g>
<!-- &#45;3,7 (item=sea&#45;sponge&#45;sprouts Also Borax) -->
<g id="node4" class="node">
<title>&#45;3,7 (item=sea&#45;sponge&#45;sprouts Also Borax)</title>
<ellipse fill="none" stroke="black" cx="939.23" cy="-538.46" rx="209.06" ry="18"/>
<text text-anchor="middle" x="939.23" y="-534.76" font-family="Times,serif" font-size="14.00">&#45;3,7 (item=sea&#45;sponge&#45;sprouts Also Borax)</text>
</g>
<!-- 3,7 (Wood)&#45;&gt;&#45;3,7 (item=sea&#45;sponge&#45;sprouts Also Borax) -->
<g id="edge3" class="edge">
<title>3,7 (Wood)&#45;&gt;&#45;3,7 (item=sea&#45;sponge&#45;sprouts Also Borax)</title>
<path fill="none" stroke="black" stroke-width="0.63" d="M722.46,-325.88C763.49,-366.11 865.57,-466.22 913.55,-513.27"/>
<polygon fill="black" stroke="black" stroke-width="0.63" points="911.17,-515.84 920.76,-520.35 916.08,-510.85 911.17,-515.84"/>
<text text-anchor="middle" x="773" y="-423.37" font-family="Times,serif" font-size="14.00">wood*10000</text>
</g>
<!-- &#45;6,&#45;2 (item=fertilizer Fertiliser) -->
<g id="node5" class="node">
<title>&#45;6,&#45;2 (item=fertilizer Fertiliser)</title>
<ellipse fill="none" stroke="black" cx="493.71" cy="-599.2" rx="155.97" ry="18"/>
<text text-anchor="middle" x="493.71" y="-595.5" font-family="Times,serif" font-size="14.00">&#45;6,&#45;2 (item=fertilizer Fertiliser)</text>
</g>
<!-- 3,7 (Wood)&#45;&gt;&#45;6,&#45;2 (item=fertilizer Fertiliser) -->
<g id="edge4" class="edge">
<title>3,7 (Wood)&#45;&gt;&#45;6,&#45;2 (item=fertilizer Fertiliser)</title>
<path fill="none" stroke="black" stroke-width="0.51" d="M691.95,-326.34C656.18,-375.57 555.54,-514.09 513.04,-572.6"/>
<polygon fill="black" stroke="black" stroke-width="0.51" points="510.01,-570.8 506.97,-580.95 515.68,-574.92 510.01,-570.8"/>
<text text-anchor="middle" x="561.99" y="-453.27" font-family="Times,serif" font-size="14.00">wood*8160</text>
</g>
<!-- 4,7 (Cottonguts) -->
<g id="node6" class="node">
<title>4,7 (Cottonguts)</title>
<ellipse fill="none" stroke="black" cx="152.09" cy="-129" rx="87.18" ry="18"/>
<text text-anchor="middle" x="152.09" y="-125.3" font-family="Times,serif" font-size="14.00">4,7 (Cottonguts)</text>
</g>
<!-- 3,7 (Wood)&#45;&gt;4,7 (Cottonguts) -->
<g id="edge5" class="edge">
<title>3,7 (Wood)&#45;&gt;4,7 (Cottonguts)</title>
<path fill="none" stroke="black" stroke-width="2.51" d="M663.75,-295.25C566.11,-263.52 320.09,-183.59 208.58,-147.36"/>
<polygon fill="black" stroke="black" stroke-width="2.51" points="209.45,-143.96 198.86,-144.2 207.29,-150.62 209.45,-143.96"/>
<text text-anchor="middle" x="391.16" y="-225.1" font-family="Times,serif" font-size="14.00">wood*40000</text>
</g>
<!-- &#45;1,5 (Train stops for bus brick) -->
<g id="node7" class="node">
<title>&#45;1,5 (Train stops for bus brick)</title>
<ellipse fill="none" stroke="black" cx="152.09" cy="-488.2" rx="152.17" ry="18"/>
<text text-anchor="middle" x="152.09" y="-484.5" font-family="Times,serif" font-size="14.00">&#45;1,5 (Train stops for bus brick)</text>
</g>
<!-- &#45;1,5 (Train stops for bus brick)&#45;&gt;5,8 (Ulric Food) -->
<g id="edge7" class="edge">
<title>&#45;1,5 (Train stops for bus brick)&#45;&gt;5,8 (Ulric Food)</title>
<path fill="none" stroke="black" stroke-width="1.14" d="M165.27,-470.06C217.85,-397.68 412.75,-129.43 474.68,-44.18"/>
<polygon fill="black" stroke="black" stroke-width="1.14" points="477.7,-45.99 480.75,-35.84 472.04,-41.87 477.7,-45.99"/>
<text text-anchor="middle" x="274.98" y="-260.92" font-family="Times,serif" font-size="14.00">wood*18088</text>
</g>
<!-- &#45;1,5 (Train stops for bus brick)&#45;&gt;&#45;6,&#45;2 (item=fertilizer Fertiliser) -->
<g id="edge6" class="edge">
<title>&#45;1,5 (Train stops for bus brick)&#45;&gt;&#45;6,&#45;2 (item=fertilizer Fertiliser)</title>
<path fill="none" stroke="black" stroke-width="0.25" d="M204.34,-505.18C265.5,-525.05 366.67,-557.92 431.73,-579.06"/>
<polygon fill="black" stroke="black" stroke-width="0.25" points="430.86,-582.46 441.46,-582.22 433.03,-575.8 430.86,-582.46"/>
<text text-anchor="middle" x="277.54" y="-545.92" font-family="Times,serif" font-size="14.00">wood*4032</text>
</g>
<!-- &#45;1,5 (Train stops for bus brick)&#45;&gt;4,7 (Cottonguts) -->
<g id="edge8" class="edge">
<title>&#45;1,5 (Train stops for bus brick)&#45;&gt;4,7 (Cottonguts)</title>
<path fill="none" stroke="black" stroke-width="0.63" d="M152.09,-469.89C152.09,-411.41 152.09,-228.73 152.09,-157.68"/>
<polygon fill="black" stroke="black" stroke-width="0.63" points="155.59,-157.27 152.09,-147.27 148.59,-157.27 155.59,-157.27"/>
<text text-anchor="middle" x="107.09" y="-317.59" font-family="Times,serif" font-size="14.00">wood*10010</text>
</g>
</g>
</svg>
