<?xml version="1.0" encoding="UTF-8" standalone="no"?>
<!DOCTYPE svg PUBLIC "-//W3C//DTD SVG 1.1//EN"
 "http://www.w3.org/Graphics/SVG/1.1/DTD/svg11.dtd">
<!-- Generated by graphviz version 2.43.0 (0)
 -->
<!-- Title: %3 Pages: 1 -->
<svg width="1630pt" height="1344pt"
 viewBox="0.00 0.00 1629.72 1344.30" xmlns="http://www.w3.org/2000/svg" xmlns:xlink="http://www.w3.org/1999/xlink">
<g id="graph0" class="graph" transform="scale(1 1) rotate(0) translate(4 1340.3)">
<title>%3</title>
<polygon fill="white" stroke="transparent" points="-4,4 -4,-1340.3 1625.72,-1340.3 1625.72,4 -4,4"/>
<!-- &#45;4,&#45;3 (Breath Deeply. Exhale. (Hot Air)) -->
<g id="node1" class="node">
<title>&#45;4,&#45;3 (Breath Deeply. Exhale. (Hot Air))</title>
<ellipse fill="none" stroke="black" cx="808.88" cy="-671.98" rx="190.37" ry="18"/>
<text text-anchor="middle" x="808.88" y="-668.28" font-family="Times,serif" font-size="14.00">&#45;4,&#45;3 (Breath Deeply. Exhale. (Hot Air))</text>
</g>
<!-- 3,9 (Copper, molten &amp; plate) -->
<g id="node2" class="node">
<title>3,9 (Copper, molten &amp; plate)</title>
<ellipse fill="none" stroke="black" cx="1478.08" cy="-671.98" rx="143.77" ry="18"/>
<text text-anchor="middle" x="1478.08" y="-668.28" font-family="Times,serif" font-size="14.00">3,9 (Copper, molten &amp; plate)</text>
</g>
<!-- &#45;4,&#45;3 (Breath Deeply. Exhale. (Hot Air))&#45;&gt;3,9 (Copper, molten &amp; plate) -->
<g id="edge1" class="edge">
<title>&#45;4,&#45;3 (Breath Deeply. Exhale. (Hot Air))&#45;&gt;3,9 (Copper, molten &amp; plate)</title>
<path fill="none" stroke="black" stroke-width="0.64" d="M999.75,-671.98C1102.55,-671.98 1227.68,-671.98 1324.18,-671.98"/>
<polygon fill="black" stroke="black" stroke-width="0.64" points="1324.32,-675.48 1334.32,-671.98 1324.32,-668.48 1324.32,-675.48"/>
<text text-anchor="middle" x="1087.97" y="-675.78" font-family="Times,serif" font-size="14.00">hot&#45;air&#45;barrel*12432</text>
</g>
<!-- &#45;1,11 (Steel Plate (from molten)) -->
<g id="node3" class="node">
<title>&#45;1,11 (Steel Plate (from molten))</title>
<ellipse fill="none" stroke="black" cx="1374.76" cy="-1029.2" rx="161.37" ry="18"/>
<text text-anchor="middle" x="1374.76" y="-1025.5" font-family="Times,serif" font-size="14.00">&#45;1,11 (Steel Plate (from molten))</text>
</g>
<!-- &#45;4,&#45;3 (Breath Deeply. Exhale. (Hot Air))&#45;&gt;&#45;1,11 (Steel Plate (from molten)) -->
<g id="edge2" class="edge">
<title>&#45;4,&#45;3 (Breath Deeply. Exhale. (Hot Air))&#45;&gt;&#45;1,11 (Steel Plate (from molten))</title>
<path fill="none" stroke="black" stroke-width="1.98" d="M837.33,-689.94C931.41,-749.33 1232.47,-939.38 1337.88,-1005.92"/>
<polygon fill="black" stroke="black" stroke-width="1.98" points="1336.27,-1009.04 1346.59,-1011.42 1340,-1003.12 1336.27,-1009.04"/>
<text text-anchor="middle" x="1013.61" y="-851.73" font-family="Times,serif" font-size="14.00">hot&#45;air&#45;barrel*38672</text>
</g>
<!-- 4,6 (Circuit substrate and Doped silicon) -->
<g id="node4" class="node">
<title>4,6 (Circuit substrate and Doped silicon)</title>
<ellipse fill="none" stroke="black" cx="1045.3" cy="-1298.03" rx="199.56" ry="18"/>
<text text-anchor="middle" x="1045.3" y="-1294.33" font-family="Times,serif" font-size="14.00">4,6 (Circuit substrate and Doped silicon)</text>
</g>
<!-- &#45;4,&#45;3 (Breath Deeply. Exhale. (Hot Air))&#45;&gt;4,6 (Circuit substrate and Doped silicon) -->
<g id="edge3" class="edge">
<title>&#45;4,&#45;3 (Breath Deeply. Exhale. (Hot Air))&#45;&gt;4,6 (Circuit substrate and Doped silicon)</title>
<path fill="none" stroke="black" stroke-width="0.93" d="M815.7,-690.04C849,-778.22 994.51,-1163.54 1034.88,-1270.44"/>
<polygon fill="black" stroke="black" stroke-width="0.93" points="1031.64,-1271.77 1038.45,-1279.89 1038.19,-1269.3 1031.64,-1271.77"/>
<text text-anchor="middle" x="851.29" y="-984.04" font-family="Times,serif" font-size="14.00">hot&#45;air&#45;barrel*18128</text>
</g>
<!-- &#45;5,5 (fluid=flue&#45;gas Flue gas) -->
<g id="node5" class="node">
<title>&#45;5,5 (fluid=flue&#45;gas Flue gas)</title>
<ellipse fill="none" stroke="black" cx="635.4" cy="-1318.3" rx="145.67" ry="18"/>
<text text-anchor="middle" x="635.4" y="-1314.6" font-family="Times,serif" font-size="14.00">&#45;5,5 (fluid=flue&#45;gas Flue gas)</text>
</g>
<!-- &#45;4,&#45;3 (Breath Deeply. Exhale. (Hot Air))&#45;&gt;&#45;5,5 (fluid=flue&#45;gas Flue gas) -->
<g id="edge4" class="edge">
<title>&#45;4,&#45;3 (Breath Deeply. Exhale. (Hot Air))&#45;&gt;&#45;5,5 (fluid=flue&#45;gas Flue gas)</title>
<path fill="none" stroke="black" stroke-width="1.51" d="M803.97,-690.28C779.66,-780.83 672.27,-1180.93 642.87,-1290.49"/>
<polygon fill="black" stroke="black" stroke-width="1.51" points="639.48,-1289.6 640.27,-1300.16 646.24,-1291.41 639.48,-1289.6"/>
<text text-anchor="middle" x="649.42" y="-994.18" font-family="Times,serif" font-size="14.00">hot&#45;air&#45;barrel*29544</text>
</g>
<!-- 0,12 (Phosphate mining) -->
<g id="node6" class="node">
<title>0,12 (Phosphate mining)</title>
<ellipse fill="none" stroke="black" cx="341.18" cy="-1150.61" rx="124.58" ry="18"/>
<text text-anchor="middle" x="341.18" y="-1146.91" font-family="Times,serif" font-size="14.00">0,12 (Phosphate mining)</text>
</g>
<!-- &#45;4,&#45;3 (Breath Deeply. Exhale. (Hot Air))&#45;&gt;0,12 (Phosphate mining) -->
<g id="edge5" class="edge">
<title>&#45;4,&#45;3 (Breath Deeply. Exhale. (Hot Air))&#45;&gt;0,12 (Phosphate mining)</title>
<path fill="none" stroke="black" stroke-width="1.01" d="M791.12,-690.16C719.12,-763.84 448.93,-1040.34 365.73,-1125.49"/>
<polygon fill="black" stroke="black" stroke-width="1.01" points="363.2,-1123.07 358.71,-1132.67 368.21,-1127.96 363.2,-1123.07"/>
<text text-anchor="middle" x="504.42" y="-911.63" font-family="Times,serif" font-size="14.00">hot&#45;air&#45;barrel*19656</text>
</g>
<!-- 2,10 (Nickel plate) -->
<g id="node7" class="node">
<title>2,10 (Nickel plate)</title>
<ellipse fill="none" stroke="black" cx="182.15" cy="-906.57" rx="96.68" ry="18"/>
<text text-anchor="middle" x="182.15" y="-902.87" font-family="Times,serif" font-size="14.00">2,10 (Nickel plate)</text>
</g>
<!-- &#45;4,&#45;3 (Breath Deeply. Exhale. (Hot Air))&#45;&gt;2,10 (Nickel plate) -->
<g id="edge6" class="edge">
<title>&#45;4,&#45;3 (Breath Deeply. Exhale. (Hot Air))&#45;&gt;2,10 (Nickel plate)</title>
<path fill="none" stroke="black" stroke-width="0.13" d="M762.03,-689.52C647.74,-732.3 355.18,-841.81 234.95,-886.81"/>
<polygon fill="black" stroke="black" stroke-width="0.13" points="233.37,-883.67 225.23,-890.45 235.82,-890.22 233.37,-883.67"/>
<text text-anchor="middle" x="428.99" y="-791.96" font-family="Times,serif" font-size="14.00">hot&#45;air&#45;barrel*2616</text>
</g>
<!-- &#45;4,0 (item=lens Optical sets) -->
<g id="node8" class="node">
<title>&#45;4,0 (item=lens Optical sets)</title>
<ellipse fill="none" stroke="black" cx="143.64" cy="-599.33" rx="143.77" ry="18"/>
<text text-anchor="middle" x="143.64" y="-595.63" font-family="Times,serif" font-size="14.00">&#45;4,0 (item=lens Optical sets)</text>
</g>
<!-- &#45;4,&#45;3 (Breath Deeply. Exhale. (Hot Air))&#45;&gt;&#45;4,0 (item=lens Optical sets) -->
<g id="edge7" class="edge">
<title>&#45;4,&#45;3 (Breath Deeply. Exhale. (Hot Air))&#45;&gt;&#45;4,0 (item=lens Optical sets)</title>
<path fill="none" stroke="black" stroke-width="3.65" d="M684.14,-658.36C563.23,-645.15 381.15,-625.27 262.33,-612.29"/>
<polygon fill="black" stroke="black" stroke-width="3.65" points="262.43,-608.78 252.1,-611.18 261.67,-615.74 262.43,-608.78"/>
<text text-anchor="middle" x="399.24" y="-639.13" font-family="Times,serif" font-size="14.00">hot&#45;air&#45;barrel*71232</text>
</g>
<!-- &#45;1,10 (Iron Plates) -->
<g id="node9" class="node">
<title>&#45;1,10 (Iron Plates)</title>
<ellipse fill="none" stroke="black" cx="246.5" cy="-309.28" rx="94.78" ry="18"/>
<text text-anchor="middle" x="246.5" y="-305.58" font-family="Times,serif" font-size="14.00">&#45;1,10 (Iron Plates)</text>
</g>
<!-- &#45;4,&#45;3 (Breath Deeply. Exhale. (Hot Air))&#45;&gt;&#45;1,10 (Iron Plates) -->
<g id="edge8" class="edge">
<title>&#45;4,&#45;3 (Breath Deeply. Exhale. (Hot Air))&#45;&gt;&#45;1,10 (Iron Plates)</title>
<path fill="none" stroke="black" stroke-width="0.74" d="M780.99,-653.99C687.63,-593.78 386.12,-399.33 282.14,-332.27"/>
<polygon fill="black" stroke="black" stroke-width="0.74" points="283.86,-329.21 273.56,-326.73 280.07,-335.1 283.86,-329.21"/>
<text text-anchor="middle" x="457.57" y="-496.93" font-family="Times,serif" font-size="14.00">hot&#45;air&#45;barrel*14376</text>
</g>
<!-- 0,0 (LE BUS) -->
<g id="node10" class="node">
<title>0,0 (LE BUS)</title>
<ellipse fill="none" stroke="black" cx="408.29" cy="-135.93" rx="71.49" ry="18"/>
<text text-anchor="middle" x="408.29" y="-132.23" font-family="Times,serif" font-size="14.00">0,0 (LE BUS)</text>
</g>
<!-- &#45;4,&#45;3 (Breath Deeply. Exhale. (Hot Air))&#45;&gt;0,0 (LE BUS) -->
<g id="edge9" class="edge">
<title>&#45;4,&#45;3 (Breath Deeply. Exhale. (Hot Air))&#45;&gt;0,0 (LE BUS)</title>
<path fill="none" stroke="black" stroke-width="0.98" d="M795.32,-653.84C735.82,-574.21 497.62,-255.47 427.69,-161.88"/>
<polygon fill="black" stroke="black" stroke-width="0.98" points="430.43,-159.71 421.64,-153.79 424.82,-163.9 430.43,-159.71"/>
<text text-anchor="middle" x="537.51" y="-411.66" font-family="Times,serif" font-size="14.00">hot&#45;air&#45;barrel*19192</text>
</g>
<!-- 4,13 (Chromium processing) -->
<g id="node11" class="node">
<title>4,13 (Chromium processing)</title>
<ellipse fill="none" stroke="black" cx="666.98" cy="-18" rx="142.97" ry="18"/>
<text text-anchor="middle" x="666.98" y="-14.3" font-family="Times,serif" font-size="14.00">4,13 (Chromium processing)</text>
</g>
<!-- &#45;4,&#45;3 (Breath Deeply. Exhale. (Hot Air))&#45;&gt;4,13 (Chromium processing) -->
<g id="edge10" class="edge">
<title>&#45;4,&#45;3 (Breath Deeply. Exhale. (Hot Air))&#45;&gt;4,13 (Chromium processing)</title>
<path fill="none" stroke="black" stroke-width="0.14" d="M804.94,-653.81C785.21,-562.87 697.19,-157.21 673.09,-46.18"/>
<polygon fill="black" stroke="black" stroke-width="0.14" points="676.44,-45.12 670.9,-36.09 669.6,-46.6 676.44,-45.12"/>
<text text-anchor="middle" x="669.52" y="-353.79" font-family="Times,serif" font-size="14.00">hot&#45;air&#45;barrel*2688</text>
</g>
<!-- 3,5 (item=molybdenum&#45;plate Molybdenum plate) -->
<g id="node12" class="node">
<title>3,5 (item=molybdenum&#45;plate Molybdenum plate)</title>
<ellipse fill="none" stroke="black" cx="1109.55" cy="-74.13" rx="239.66" ry="18"/>
<text text-anchor="middle" x="1109.55" y="-70.43" font-family="Times,serif" font-size="14.00">3,5 (item=molybdenum&#45;plate Molybdenum plate)</text>
</g>
<!-- &#45;4,&#45;3 (Breath Deeply. Exhale. (Hot Air))&#45;&gt;3,5 (item=molybdenum&#45;plate Molybdenum plate) -->
<g id="edge11" class="edge">
<title>&#45;4,&#45;3 (Breath Deeply. Exhale. (Hot Air))&#45;&gt;3,5 (item=molybdenum&#45;plate Molybdenum plate)</title>
<path fill="none" stroke="black" stroke-width="0.26" d="M818.04,-653.76C861.19,-567.98 1044.13,-204.2 1095.87,-101.33"/>
<polygon fill="black" stroke="black" stroke-width="0.26" points="1099.09,-102.71 1100.46,-92.21 1092.84,-99.57 1099.09,-102.71"/>
<text text-anchor="middle" x="887.46" y="-381.35" font-family="Times,serif" font-size="14.00">hot&#45;air&#45;barrel*5000</text>
</g>
<!-- 2,1 (Niobium plates) -->
<g id="node13" class="node">
<title>2,1 (Niobium plates)</title>
<ellipse fill="none" stroke="black" cx="1402.29" cy="-362.64" rx="105.88" ry="18"/>
<text text-anchor="middle" x="1402.29" y="-358.94" font-family="Times,serif" font-size="14.00">2,1 (Niobium plates)</text>
</g>
<!-- &#45;4,&#45;3 (Breath Deeply. Exhale. (Hot Air))&#45;&gt;2,1 (Niobium plates) -->
<g id="edge12" class="edge">
<title>&#45;4,&#45;3 (Breath Deeply. Exhale. (Hot Air))&#45;&gt;2,1 (Niobium plates)</title>
<path fill="none" stroke="black" stroke-width="0.04" d="M842.92,-654.24C944.96,-601.04 1248.19,-442.97 1360.15,-384.61"/>
<polygon fill="black" stroke="black" stroke-width="0.04" points="1361.88,-387.65 1369.13,-379.93 1358.64,-381.45 1361.88,-387.65"/>
<text text-anchor="middle" x="1036.53" y="-523.22" font-family="Times,serif" font-size="14.00">hot&#45;air&#45;barrel*752</text>
</g>
</g>
</svg>
