<?xml version="1.0" encoding="UTF-8" standalone="no"?>
<!DOCTYPE svg PUBLIC "-//W3C//DTD SVG 1.1//EN"
 "http://www.w3.org/Graphics/SVG/1.1/DTD/svg11.dtd">
<!-- Generated by graphviz version 2.43.0 (0)
 -->
<!-- Title: %3 Pages: 1 -->
<svg width="1373pt" height="44pt"
 viewBox="0.00 0.00 1373.24 44.00" xmlns="http://www.w3.org/2000/svg" xmlns:xlink="http://www.w3.org/1999/xlink">
<g id="graph0" class="graph" transform="scale(1 1) rotate(0) translate(4 40)">
<title>%3</title>
<polygon fill="white" stroke="transparent" points="-4,4 -4,-40 1369.24,-40 1369.24,4 -4,4"/>
<!-- &#45;3,2 (Lead and Solder) -->
<g id="node1" class="node">
<title>&#45;3,2 (Lead and Solder)</title>
<ellipse fill="none" stroke="black" cx="800.59" cy="-18" rx="113.98" ry="18"/>
<text text-anchor="middle" x="800.59" y="-14.3" font-family="Times,serif" font-size="14.00">&#45;3,2 (Lead and Solder)</text>
</g>
<!-- 0,0 (LE BUS) -->
<g id="node2" class="node">
<title>0,0 (LE BUS)</title>
<ellipse fill="none" stroke="black" cx="1293.75" cy="-18" rx="71.49" ry="18"/>
<text text-anchor="middle" x="1293.75" y="-14.3" font-family="Times,serif" font-size="14.00">0,0 (LE BUS)</text>
</g>
<!-- &#45;3,2 (Lead and Solder)&#45;&gt;0,0 (LE BUS) -->
<g id="edge1" class="edge">
<title>&#45;3,2 (Lead and Solder)&#45;&gt;0,0 (LE BUS)</title>
<path fill="none" stroke="black" stroke-width="0.99" d="M914.35,-18C1005.32,-18 1130.68,-18 1211.97,-18"/>
<polygon fill="black" stroke="black" stroke-width="0.99" points="1212.15,-21.5 1222.15,-18 1212.15,-14.5 1212.15,-21.5"/>
<text text-anchor="middle" x="1019.16" y="-21.8" font-family="Times,serif" font-size="14.00">solder*2016</text>
</g>
<!-- &#45;7,&#45;4 (Isomer&#39;s Slaughterhouse and Daycare Centre, Bone Meal) -->
<g id="node3" class="node">
<title>&#45;7,&#45;4 (Isomer&#39;s Slaughterhouse and Daycare Centre, Bone Meal)</title>
<ellipse fill="none" stroke="black" cx="307.42" cy="-18" rx="307.35" ry="18"/>
<text text-anchor="middle" x="307.42" y="-14.3" font-family="Times,serif" font-size="14.00">&#45;7,&#45;4 (Isomer&#39;s Slaughterhouse and Daycare Centre, Bone Meal)</text>
</g>
<!-- &#45;3,2 (Lead and Solder)&#45;&gt;&#45;7,&#45;4 (Isomer&#39;s Slaughterhouse and Daycare Centre, Bone Meal) -->
<g id="edge2" class="edge">
<title>&#45;3,2 (Lead and Solder)&#45;&gt;&#45;7,&#45;4 (Isomer&#39;s Slaughterhouse and Daycare Centre, Bone Meal)</title>
<path fill="none" stroke="black" stroke-width="1.01" d="M686.82,-18C667.67,-18 646.99,-18 625.52,-18"/>
<polygon fill="black" stroke="black" stroke-width="1.01" points="625.26,-14.5 615.26,-18 625.26,-21.5 625.26,-14.5"/>
<text text-anchor="middle" x="634.17" y="-6.8" font-family="Times,serif" font-size="14.00">solder*2048</text>
</g>
</g>
</svg>
