<?xml version="1.0" encoding="UTF-8" standalone="no"?>
<!DOCTYPE svg PUBLIC "-//W3C//DTD SVG 1.1//EN"
 "http://www.w3.org/Graphics/SVG/1.1/DTD/svg11.dtd">
<!-- Generated by graphviz version 2.43.0 (0)
 -->
<!-- Title: %3 Pages: 1 -->
<svg width="926pt" height="44pt"
 viewBox="0.00 0.00 926.08 44.00" xmlns="http://www.w3.org/2000/svg" xmlns:xlink="http://www.w3.org/1999/xlink">
<g id="graph0" class="graph" transform="scale(1 1) rotate(0) translate(4 40)">
<title>%3</title>
<polygon fill="white" stroke="transparent" points="-4,4 -4,-40 922.08,-40 922.08,4 -4,4"/>
<!-- 5,5 (Silicon) -->
<g id="node1" class="node">
<title>5,5 (Silicon)</title>
<ellipse fill="none" stroke="black" cx="494.46" cy="-18" rx="66.09" ry="18"/>
<text text-anchor="middle" x="494.46" y="-14.3" font-family="Times,serif" font-size="14.00">5,5 (Silicon)</text>
</g>
<!-- 2,6 (Refined Syngas) -->
<g id="node2" class="node">
<title>2,6 (Refined Syngas)</title>
<ellipse fill="none" stroke="black" cx="810.84" cy="-18" rx="107.48" ry="18"/>
<text text-anchor="middle" x="810.84" y="-14.3" font-family="Times,serif" font-size="14.00">2,6 (Refined Syngas)</text>
</g>
<!-- 5,5 (Silicon)&#45;&gt;2,6 (Refined Syngas) -->
<g id="edge1" class="edge">
<title>5,5 (Silicon)&#45;&gt;2,6 (Refined Syngas)</title>
<path fill="none" stroke="black" stroke-width="1.04" d="M560.79,-18C599.19,-18 648.66,-18 693.44,-18"/>
<polygon fill="black" stroke="black" stroke-width="1.04" points="693.52,-21.5 703.52,-18 693.52,-14.5 693.52,-21.5"/>
<text text-anchor="middle" x="651.61" y="-6.8" font-family="Times,serif" font-size="14.00">silicon*10928</text>
</g>
<!-- 7,2 (advanced sand castings (mold)) -->
<g id="node3" class="node">
<title>7,2 (advanced sand castings (mold))</title>
<ellipse fill="none" stroke="black" cx="178.08" cy="-18" rx="178.17" ry="18"/>
<text text-anchor="middle" x="178.08" y="-14.3" font-family="Times,serif" font-size="14.00">7,2 (advanced sand castings (mold))</text>
</g>
<!-- 5,5 (Silicon)&#45;&gt;7,2 (advanced sand castings (mold)) -->
<g id="edge2" class="edge">
<title>5,5 (Silicon)&#45;&gt;7,2 (advanced sand castings (mold))</title>
<path fill="none" stroke="black" stroke-width="0.96" d="M428.14,-18C409.6,-18 388.48,-18 366.56,-18"/>
<polygon fill="black" stroke="black" stroke-width="0.96" points="366.43,-14.5 356.43,-18 366.43,-21.5 366.43,-14.5"/>
<text text-anchor="middle" x="372.85" y="-6.8" font-family="Times,serif" font-size="14.00">silicon*10000</text>
</g>
</g>
</svg>
