<?xml version="1.0" encoding="UTF-8" standalone="no"?>
<!DOCTYPE svg PUBLIC "-//W3C//DTD SVG 1.1//EN"
 "http://www.w3.org/Graphics/SVG/1.1/DTD/svg11.dtd">
<!-- Generated by graphviz version 2.43.0 (0)
 -->
<!-- Title: %3 Pages: 1 -->
<svg width="621pt" height="506pt"
 viewBox="0.00 0.00 620.54 506.41" xmlns="http://www.w3.org/2000/svg" xmlns:xlink="http://www.w3.org/1999/xlink">
<g id="graph0" class="graph" transform="scale(1 1) rotate(0) translate(4 502.41)">
<title>%3</title>
<polygon fill="white" stroke="transparent" points="-4,4 -4,-502.41 616.54,-502.41 616.54,4 -4,4"/>
<!-- 8,&#45;8 (Moar bhoddos) -->
<g id="node1" class="node">
<title>8,&#45;8 (Moar bhoddos)</title>
<ellipse fill="none" stroke="black" cx="302.7" cy="-18" rx="104.78" ry="18"/>
<text text-anchor="middle" x="302.7" y="-14.3" font-family="Times,serif" font-size="14.00">8,&#45;8 (Moar bhoddos)</text>
</g>
<!-- 0,0 (LE BUS) -->
<g id="node2" class="node">
<title>0,0 (LE BUS)</title>
<ellipse fill="none" stroke="black" cx="71.49" cy="-249.2" rx="71.49" ry="18"/>
<text text-anchor="middle" x="71.49" y="-245.5" font-family="Times,serif" font-size="14.00">0,0 (LE BUS)</text>
</g>
<!-- 8,&#45;8 (Moar bhoddos)&#45;&gt;0,0 (LE BUS) -->
<g id="edge1" class="edge">
<title>8,&#45;8 (Moar bhoddos)&#45;&gt;0,0 (LE BUS)</title>
<path fill="none" stroke="black" stroke-width="0.74" d="M284.94,-35.76C244.07,-76.63 143.28,-177.42 96.32,-224.38"/>
<polygon fill="black" stroke="black" stroke-width="0.74" points="93.59,-222.16 89,-231.7 98.54,-227.11 93.59,-222.16"/>
<text text-anchor="middle" x="134.63" y="-133.87" font-family="Times,serif" font-size="14.00">bhoddos*10016</text>
</g>
<!-- 8,4 (Phagnots) -->
<g id="node4" class="node">
<title>8,4 (Phagnots)</title>
<ellipse fill="none" stroke="black" cx="533.9" cy="-249.2" rx="78.79" ry="18"/>
<text text-anchor="middle" x="533.9" y="-245.5" font-family="Times,serif" font-size="14.00">8,4 (Phagnots)</text>
</g>
<!-- 8,&#45;8 (Moar bhoddos)&#45;&gt;8,4 (Phagnots) -->
<g id="edge3" class="edge">
<title>8,&#45;8 (Moar bhoddos)&#45;&gt;8,4 (Phagnots)</title>
<path fill="none" stroke="black" stroke-width="1.33" d="M320.46,-35.76C361.22,-76.53 461.62,-176.92 508.73,-224.03"/>
<polygon fill="black" stroke="black" stroke-width="1.33" points="506.54,-226.79 516.08,-231.39 511.49,-221.84 506.54,-226.79"/>
<text text-anchor="middle" x="358.59" y="-133.7" font-family="Times,serif" font-size="14.00">bhoddos*18112</text>
</g>
<!-- 7,0 (item=bhoddos Bhoddos) -->
<g id="node3" class="node">
<title>7,0 (item=bhoddos Bhoddos)</title>
<ellipse fill="none" stroke="black" cx="302.7" cy="-480.41" rx="145.67" ry="18"/>
<text text-anchor="middle" x="302.7" y="-476.71" font-family="Times,serif" font-size="14.00">7,0 (item=bhoddos Bhoddos)</text>
</g>
<!-- 7,0 (item=bhoddos Bhoddos)&#45;&gt;0,0 (LE BUS) -->
<g id="edge4" class="edge">
<title>7,0 (item=bhoddos Bhoddos)&#45;&gt;0,0 (LE BUS)</title>
<path fill="none" stroke="black" stroke-width="0.59" d="M284.56,-462.27C243.51,-421.22 143.47,-321.18 96.56,-274.27"/>
<polygon fill="black" stroke="black" stroke-width="0.59" points="98.78,-271.54 89.23,-266.94 93.83,-276.49 98.78,-271.54"/>
<text text-anchor="middle" x="139.06" y="-372.07" font-family="Times,serif" font-size="14.00">bhoddos*8000</text>
</g>
<!-- 7,0 (item=bhoddos Bhoddos)&#45;&gt;8,4 (Phagnots) -->
<g id="edge2" class="edge">
<title>7,0 (item=bhoddos Bhoddos)&#45;&gt;8,4 (Phagnots)</title>
<path fill="none" stroke="black" stroke-width="1.34" d="M320.84,-462.27C361.88,-421.22 461.92,-321.18 508.84,-274.27"/>
<polygon fill="black" stroke="black" stroke-width="1.34" points="511.56,-276.49 516.16,-266.94 506.62,-271.54 511.56,-276.49"/>
<text text-anchor="middle" x="358.84" y="-372.07" font-family="Times,serif" font-size="14.00">bhoddos*18192</text>
</g>
</g>
</svg>
