<?xml version="1.0" encoding="UTF-8" standalone="no"?>
<!DOCTYPE svg PUBLIC "-//W3C//DTD SVG 1.1//EN"
 "http://www.w3.org/Graphics/SVG/1.1/DTD/svg11.dtd">
<!-- Generated by graphviz version 2.43.0 (0)
 -->
<!-- Title: %3 Pages: 1 -->
<svg width="1641pt" height="1152pt"
 viewBox="0.00 0.00 1641.46 1152.23" xmlns="http://www.w3.org/2000/svg" xmlns:xlink="http://www.w3.org/1999/xlink">
<g id="graph0" class="graph" transform="scale(1 1) rotate(0) translate(4 1148.23)">
<title>%3</title>
<polygon fill="white" stroke="transparent" points="-4,4 -4,-1148.23 1637.46,-1148.23 1637.46,4 -4,4"/>
<!-- 3,9 (Copper, molten &amp; plate) -->
<g id="node1" class="node">
<title>3,9 (Copper, molten &amp; plate)</title>
<ellipse fill="none" stroke="black" cx="821.58" cy="-569.76" rx="143.77" ry="18"/>
<text text-anchor="middle" x="821.58" y="-566.06" font-family="Times,serif" font-size="14.00">3,9 (Copper, molten &amp; plate)</text>
</g>
<!-- 3,3 (Small Parts) -->
<g id="node2" class="node">
<title>3,3 (Small Parts)</title>
<ellipse fill="none" stroke="black" cx="1224.14" cy="-569.76" rx="89.08" ry="18"/>
<text text-anchor="middle" x="1224.14" y="-566.06" font-family="Times,serif" font-size="14.00">3,3 (Small Parts)</text>
</g>
<!-- 3,9 (Copper, molten &amp; plate)&#45;&gt;3,3 (Small Parts) -->
<g id="edge1" class="edge">
<title>3,9 (Copper, molten &amp; plate)&#45;&gt;3,3 (Small Parts)</title>
<path fill="none" stroke="black" stroke-width="5.36" d="M965.49,-569.76C1018.28,-569.76 1076.8,-569.76 1124.81,-569.76"/>
<polygon fill="black" stroke="black" stroke-width="5.36" points="1124.89,-574.45 1134.89,-569.76 1124.89,-565.07 1124.89,-574.45"/>
<text text-anchor="middle" x="1045.15" y="-558.56" font-family="Times,serif" font-size="14.00">copper&#45;plate*385080</text>
</g>
<!-- 0,0 (LE BUS) -->
<g id="node3" class="node">
<title>0,0 (LE BUS)</title>
<ellipse fill="none" stroke="black" cx="1252.74" cy="-931.33" rx="71.49" ry="18"/>
<text text-anchor="middle" x="1252.74" y="-927.63" font-family="Times,serif" font-size="14.00">0,0 (LE BUS)</text>
</g>
<!-- 3,9 (Copper, molten &amp; plate)&#45;&gt;0,0 (LE BUS) -->
<g id="edge2" class="edge">
<title>3,9 (Copper, molten &amp; plate)&#45;&gt;0,0 (LE BUS)</title>
<path fill="none" stroke="black" stroke-width="1.64" d="M842.96,-587.69C914.17,-647.41 1143.37,-839.62 1224.2,-907.4"/>
<polygon fill="black" stroke="black" stroke-width="1.64" points="1222.08,-910.19 1231.99,-913.93 1226.57,-904.82 1222.08,-910.19"/>
<text text-anchor="middle" x="958.08" y="-751.34" font-family="Times,serif" font-size="14.00">copper&#45;plate*117920</text>
</g>
<!-- &#45;5,0 (item=small&#45;lampitem=petri&#45;dish Lamptri dishes) -->
<g id="node4" class="node">
<title>&#45;5,0 (item=small&#45;lampitem=petri&#45;dish Lamptri dishes)</title>
<ellipse fill="none" stroke="black" cx="905.11" cy="-1126.23" rx="263.75" ry="18"/>
<text text-anchor="middle" x="905.11" y="-1122.53" font-family="Times,serif" font-size="14.00">&#45;5,0 (item=small&#45;lampitem=petri&#45;dish Lamptri dishes)</text>
</g>
<!-- 3,9 (Copper, molten &amp; plate)&#45;&gt;&#45;5,0 (item=small&#45;lampitem=petri&#45;dish Lamptri dishes) -->
<g id="edge3" class="edge">
<title>3,9 (Copper, molten &amp; plate)&#45;&gt;&#45;5,0 (item=small&#45;lampitem=petri&#45;dish Lamptri dishes)</title>
<path fill="none" stroke="black" stroke-width="0.77" d="M824.31,-587.96C836.51,-669.2 886.03,-999.09 900.88,-1098.04"/>
<polygon fill="black" stroke="black" stroke-width="0.77" points="897.45,-1098.8 902.4,-1108.17 904.38,-1097.76 897.45,-1098.8"/>
<text text-anchor="middle" x="791.6" y="-846.8" font-family="Times,serif" font-size="14.00">copper&#45;plate*55040</text>
</g>
<!-- 2,14 (Latex) -->
<g id="node6" class="node">
<title>2,14 (Latex)</title>
<ellipse fill="none" stroke="black" cx="519.41" cy="-1044.45" rx="66.89" ry="18"/>
<text text-anchor="middle" x="519.41" y="-1040.75" font-family="Times,serif" font-size="14.00">2,14 (Latex)</text>
</g>
<!-- 3,9 (Copper, molten &amp; plate)&#45;&gt;2,14 (Latex) -->
<g id="edge5" class="edge">
<title>3,9 (Copper, molten &amp; plate)&#45;&gt;2,14 (Latex)</title>
<path fill="none" stroke="black" stroke-width="1.39" d="M810.1,-587.79C763.87,-660.41 591.17,-931.72 536.27,-1017.96"/>
<polygon fill="black" stroke="black" stroke-width="1.39" points="533.32,-1016.08 530.9,-1026.4 539.22,-1019.84 533.32,-1016.08"/>
<text text-anchor="middle" x="597.69" y="-806.67" font-family="Times,serif" font-size="14.00">copper&#45;plate*100000</text>
</g>
<!-- &#45;6,&#45;4 (High&#45;Power Resistors, Ceramic Capacitor, Inductor) -->
<g id="node7" class="node">
<title>&#45;6,&#45;4 (High&#45;Power Resistors, Ceramic Capacitor, Inductor)</title>
<ellipse fill="none" stroke="black" cx="278.18" cy="-715.86" rx="278.35" ry="18"/>
<text text-anchor="middle" x="278.18" y="-712.16" font-family="Times,serif" font-size="14.00">&#45;6,&#45;4 (High&#45;Power Resistors, Ceramic Capacitor, Inductor)</text>
</g>
<!-- 3,9 (Copper, molten &amp; plate)&#45;&gt;&#45;6,&#45;4 (High&#45;Power Resistors, Ceramic Capacitor, Inductor) -->
<g id="edge6" class="edge">
<title>3,9 (Copper, molten &amp; plate)&#45;&gt;&#45;6,&#45;4 (High&#45;Power Resistors, Ceramic Capacitor, Inductor)</title>
<path fill="none" stroke="black" stroke-width="0.24" d="M760.83,-586.09C660.92,-612.95 462.2,-666.38 353.5,-695.6"/>
<polygon fill="black" stroke="black" stroke-width="0.24" points="352.34,-692.29 343.59,-698.27 354.16,-699.05 352.34,-692.29"/>
<text text-anchor="middle" x="486.16" y="-644.65" font-family="Times,serif" font-size="14.00">copper&#45;plate*17440</text>
</g>
<!-- 2,5 (Simple Circuits) -->
<g id="node8" class="node">
<title>2,5 (Simple Circuits)</title>
<ellipse fill="none" stroke="black" cx="341.6" cy="-276.08" rx="106.68" ry="18"/>
<text text-anchor="middle" x="341.6" y="-272.38" font-family="Times,serif" font-size="14.00">2,5 (Simple Circuits)</text>
</g>
<!-- 3,9 (Copper, molten &amp; plate)&#45;&gt;2,5 (Simple Circuits) -->
<g id="edge7" class="edge">
<title>3,9 (Copper, molten &amp; plate)&#45;&gt;2,5 (Simple Circuits)</title>
<path fill="none" stroke="black" stroke-width="0.09" d="M792.63,-552.05C709.66,-501.28 471.03,-355.28 378.7,-298.78"/>
<polygon fill="black" stroke="black" stroke-width="0.09" points="380.33,-295.67 369.97,-293.44 376.68,-301.65 380.33,-295.67"/>
<text text-anchor="middle" x="519.17" y="-429.22" font-family="Times,serif" font-size="14.00">copper&#45;plate*6520</text>
</g>
<!-- 2,4 (Formica and Phenolic boards) -->
<g id="node9" class="node">
<title>2,4 (Formica and Phenolic boards)</title>
<ellipse fill="none" stroke="black" cx="600.97" cy="-52.11" rx="169.77" ry="18"/>
<text text-anchor="middle" x="600.97" y="-48.41" font-family="Times,serif" font-size="14.00">2,4 (Formica and Phenolic boards)</text>
</g>
<!-- 3,9 (Copper, molten &amp; plate)&#45;&gt;2,4 (Formica and Phenolic boards) -->
<g id="edge8" class="edge">
<title>3,9 (Copper, molten &amp; plate)&#45;&gt;2,4 (Formica and Phenolic boards)</title>
<path fill="none" stroke="black" stroke-width="0.1" d="M813.86,-551.64C780.97,-474.46 652.43,-172.86 612.73,-79.68"/>
<polygon fill="black" stroke="black" stroke-width="0.1" points="615.89,-78.18 608.75,-70.35 609.45,-80.92 615.89,-78.18"/>
<text text-anchor="middle" x="646.79" y="-319.46" font-family="Times,serif" font-size="14.00">copper&#45;plate*6840</text>
</g>
<!-- &#45;5,2 (Optical fiber) -->
<g id="node10" class="node">
<title>&#45;5,2 (Optical fiber)</title>
<ellipse fill="none" stroke="black" cx="932" cy="-18" rx="96.38" ry="18"/>
<text text-anchor="middle" x="932" y="-14.3" font-family="Times,serif" font-size="14.00">&#45;5,2 (Optical fiber)</text>
</g>
<!-- 3,9 (Copper, molten &amp; plate)&#45;&gt;&#45;5,2 (Optical fiber) -->
<g id="edge9" class="edge">
<title>3,9 (Copper, molten &amp; plate)&#45;&gt;&#45;5,2 (Optical fiber)</title>
<path fill="none" stroke="black" stroke-width="0.14" d="M825.19,-551.72C841.29,-471.25 906.62,-144.79 926.34,-46.28"/>
<polygon fill="black" stroke="black" stroke-width="0.14" points="929.83,-46.68 928.36,-36.19 922.96,-45.3 929.83,-46.68"/>
<text text-anchor="middle" x="804.76" y="-302.8" font-family="Times,serif" font-size="14.00">copper&#45;plate*10080</text>
</g>
<!-- 6,4 (Electronic components) -->
<g id="node11" class="node">
<title>6,4 (Electronic components)</title>
<ellipse fill="none" stroke="black" cx="1204.4" cy="-157.35" rx="141.88" ry="18"/>
<text text-anchor="middle" x="1204.4" y="-153.65" font-family="Times,serif" font-size="14.00">6,4 (Electronic components)</text>
</g>
<!-- 3,9 (Copper, molten &amp; plate)&#45;&gt;6,4 (Electronic components) -->
<g id="edge10" class="edge">
<title>3,9 (Copper, molten &amp; plate)&#45;&gt;6,4 (Electronic components)</title>
<path fill="none" stroke="black" stroke-width="0.12" d="M838.27,-551.77C899.21,-486.12 1109.79,-259.27 1180.81,-182.77"/>
<polygon fill="black" stroke="black" stroke-width="0.12" points="1183.38,-185.14 1187.62,-175.43 1178.25,-180.38 1183.38,-185.14"/>
<text text-anchor="middle" x="943.04" y="-371.07" font-family="Times,serif" font-size="14.00">copper&#45;plate*8880</text>
</g>
<!-- &#45;2,5 (Rare Earth Oxides) -->
<g id="node5" class="node">
<title>&#45;2,5 (Rare Earth Oxides)</title>
<ellipse fill="none" stroke="black" cx="1509.32" cy="-569.76" rx="124.28" ry="18"/>
<text text-anchor="middle" x="1509.32" y="-566.06" font-family="Times,serif" font-size="14.00">&#45;2,5 (Rare Earth Oxides)</text>
</g>
<!-- &#45;2,5 (Rare Earth Oxides)&#45;&gt;3,3 (Small Parts) -->
<g id="edge4" class="edge">
<title>&#45;2,5 (Rare Earth Oxides)&#45;&gt;3,3 (Small Parts)</title>
<path fill="none" stroke="black" stroke-width="0.15" d="M1385.07,-569.76C1364.49,-569.76 1343.39,-569.76 1323.53,-569.76"/>
<polygon fill="black" stroke="black" stroke-width="0.15" points="1323.26,-566.26 1313.26,-569.76 1323.26,-573.26 1323.26,-566.26"/>
<text text-anchor="middle" x="1318.8" y="-558.56" font-family="Times,serif" font-size="14.00">copper&#45;plate*10592</text>
</g>
</g>
</svg>
