<?xml version="1.0" encoding="UTF-8" standalone="no"?>
<!DOCTYPE svg PUBLIC "-//W3C//DTD SVG 1.1//EN"
 "http://www.w3.org/Graphics/SVG/1.1/DTD/svg11.dtd">
<!-- Generated by graphviz version 2.43.0 (0)
 -->
<!-- Title: %3 Pages: 1 -->
<svg width="1015pt" height="44pt"
 viewBox="0.00 0.00 1014.58 44.00" xmlns="http://www.w3.org/2000/svg" xmlns:xlink="http://www.w3.org/1999/xlink">
<g id="graph0" class="graph" transform="scale(1 1) rotate(0) translate(4 40)">
<title>%3</title>
<polygon fill="white" stroke="transparent" points="-4,4 -4,-40 1010.58,-40 1010.58,4 -4,4"/>
<!-- 0,0 (LE BUS) -->
<g id="node1" class="node">
<title>0,0 (LE BUS)</title>
<ellipse fill="none" stroke="black" cx="125.55" cy="-18" rx="71.49" ry="18"/>
<text text-anchor="middle" x="125.55" y="-14.3" font-family="Times,serif" font-size="14.00">0,0 (LE BUS)</text>
</g>
<!-- &#45;4,&#45;2 (For Science!) -->
<g id="node2" class="node">
<title>&#45;4,&#45;2 (For Science!)</title>
<ellipse fill="none" stroke="black" cx="367.83" cy="-18" rx="98.58" ry="18"/>
<text text-anchor="middle" x="367.83" y="-14.3" font-family="Times,serif" font-size="14.00">&#45;4,&#45;2 (For Science!)</text>
</g>
<!-- 0,0 (LE BUS)&#45;&gt;&#45;4,&#45;2 (For Science!) -->
<g id="edge1" class="edge">
<title>0,0 (LE BUS)&#45;&gt;&#45;4,&#45;2 (For Science!)</title>
<path fill="none" stroke="black" stroke-width="1.5" d="M197.26,-18C216.57,-18 237.89,-18 258.74,-18"/>
<polygon fill="black" stroke="black" stroke-width="1.5" points="258.93,-21.5 268.93,-18 258.93,-14.5 258.93,-21.5"/>
<text text-anchor="middle" x="114" y="-21.8" font-family="Times,serif" font-size="14.00">automation&#45;science&#45;pack*24208</text>
</g>
<!-- &#45;3,1 (Logistic science pack, Automation Science) -->
<g id="node3" class="node">
<title>&#45;3,1 (Logistic science pack, Automation Science)</title>
<ellipse fill="none" stroke="black" cx="772.6" cy="-18" rx="233.96" ry="18"/>
<text text-anchor="middle" x="772.6" y="-14.3" font-family="Times,serif" font-size="14.00">&#45;3,1 (Logistic science pack, Automation Science)</text>
</g>
<!-- &#45;3,1 (Logistic science pack, Automation Science)&#45;&gt;&#45;4,&#45;2 (For Science!) -->
<g id="edge2" class="edge">
<title>&#45;3,1 (Logistic science pack, Automation Science)&#45;&gt;&#45;4,&#45;2 (For Science!)</title>
<path fill="none" stroke="black" stroke-width="0.5" d="M538.61,-18C517.39,-18 496.65,-18 477.34,-18"/>
<polygon fill="black" stroke="black" stroke-width="0.5" points="477.08,-14.5 467.08,-18 477.08,-21.5 477.08,-14.5"/>
<text text-anchor="middle" x="453.23" y="-6.8" font-family="Times,serif" font-size="14.00">automation&#45;science&#45;pack*8144</text>
</g>
</g>
</svg>
