<?xml version="1.0" encoding="UTF-8" standalone="no"?>
<!DOCTYPE svg PUBLIC "-//W3C//DTD SVG 1.1//EN"
 "http://www.w3.org/Graphics/SVG/1.1/DTD/svg11.dtd">
<!-- Generated by graphviz version 2.43.0 (0)
 -->
<!-- Title: %3 Pages: 1 -->
<svg width="1081pt" height="812pt"
 viewBox="0.00 0.00 1081.39 811.97" xmlns="http://www.w3.org/2000/svg" xmlns:xlink="http://www.w3.org/1999/xlink">
<g id="graph0" class="graph" transform="scale(1 1) rotate(0) translate(4 807.97)">
<title>%3</title>
<polygon fill="white" stroke="transparent" points="-4,4 -4,-807.97 1077.39,-807.97 1077.39,4 -4,4"/>
<!-- 1,7 (Activated Carbon) -->
<g id="node1" class="node">
<title>1,7 (Activated Carbon)</title>
<ellipse fill="none" stroke="black" cx="486.64" cy="-401.69" rx="115.88" ry="18"/>
<text text-anchor="middle" x="486.64" y="-397.99" font-family="Times,serif" font-size="14.00">1,7 (Activated Carbon)</text>
</g>
<!-- 4,6 (Circuit substrate and Doped silicon) -->
<g id="node2" class="node">
<title>4,6 (Circuit substrate and Doped silicon)</title>
<ellipse fill="none" stroke="black" cx="873.86" cy="-401.69" rx="199.56" ry="18"/>
<text text-anchor="middle" x="873.86" y="-397.99" font-family="Times,serif" font-size="14.00">4,6 (Circuit substrate and Doped silicon)</text>
</g>
<!-- 1,7 (Activated Carbon)&#45;&gt;4,6 (Circuit substrate and Doped silicon) -->
<g id="edge1" class="edge">
<title>1,7 (Activated Carbon)&#45;&gt;4,6 (Circuit substrate and Doped silicon)</title>
<path fill="none" stroke="black" stroke-width="0.65" d="M602.55,-401.69C622.17,-401.69 643.07,-401.69 664.22,-401.69"/>
<polygon fill="black" stroke="black" stroke-width="0.65" points="664.29,-405.19 674.29,-401.69 664.29,-398.19 664.29,-405.19"/>
<text text-anchor="middle" x="633.39" y="-390.49" font-family="Times,serif" font-size="14.00">sulfur*10864</text>
</g>
<!-- 4,12 (Molten Glass) -->
<g id="node3" class="node">
<title>4,12 (Molten Glass)</title>
<ellipse fill="none" stroke="black" cx="438.99" cy="-785.97" rx="102.08" ry="18"/>
<text text-anchor="middle" x="438.99" y="-782.27" font-family="Times,serif" font-size="14.00">4,12 (Molten Glass)</text>
</g>
<!-- 1,7 (Activated Carbon)&#45;&gt;4,12 (Molten Glass) -->
<g id="edge2" class="edge">
<title>1,7 (Activated Carbon)&#45;&gt;4,12 (Molten Glass)</title>
<path fill="none" stroke="black" stroke-width="0.78" d="M484.4,-419.71C476.79,-481.09 451.83,-682.36 442.53,-757.42"/>
<polygon fill="black" stroke="black" stroke-width="0.78" points="439.03,-757.19 441.27,-767.54 445.98,-758.05 439.03,-757.19"/>
<text text-anchor="middle" x="416.46" y="-592.37" font-family="Times,serif" font-size="14.00">sulfur*13056</text>
</g>
<!-- &#45;1,&#45;2 (Aramid fiber) -->
<g id="node4" class="node">
<title>&#45;1,&#45;2 (Aramid fiber)</title>
<ellipse fill="none" stroke="black" cx="99.44" cy="-406.24" rx="99.38" ry="18"/>
<text text-anchor="middle" x="99.44" y="-402.54" font-family="Times,serif" font-size="14.00">&#45;1,&#45;2 (Aramid fiber)</text>
</g>
<!-- 1,7 (Activated Carbon)&#45;&gt;&#45;1,&#45;2 (Aramid fiber) -->
<g id="edge3" class="edge">
<title>1,7 (Activated Carbon)&#45;&gt;&#45;1,&#45;2 (Aramid fiber)</title>
<path fill="none" stroke="black" stroke-width="0.59" d="M371.25,-403.05C319.85,-403.65 259.61,-404.36 208.91,-404.96"/>
<polygon fill="black" stroke="black" stroke-width="0.59" points="208.87,-401.46 198.91,-405.07 208.95,-408.46 208.87,-401.46"/>
<text text-anchor="middle" x="247.58" y="-407.8" font-family="Times,serif" font-size="14.00">sulfur*9808</text>
</g>
<!-- 2,0 (Sodium Sulfate) -->
<g id="node5" class="node">
<title>2,0 (Sodium Sulfate)</title>
<ellipse fill="none" stroke="black" cx="434.48" cy="-18" rx="106.68" ry="18"/>
<text text-anchor="middle" x="434.48" y="-14.3" font-family="Times,serif" font-size="14.00">2,0 (Sodium Sulfate)</text>
</g>
<!-- 1,7 (Activated Carbon)&#45;&gt;2,0 (Sodium Sulfate) -->
<g id="edge4" class="edge">
<title>1,7 (Activated Carbon)&#45;&gt;2,0 (Sodium Sulfate)</title>
<path fill="none" stroke="black" stroke-width="1.99" d="M484.16,-383.44C475.78,-321.84 448.51,-121.24 438.34,-46.45"/>
<polygon fill="black" stroke="black" stroke-width="1.99" points="441.79,-45.8 436.97,-36.36 434.85,-46.74 441.79,-45.8"/>
<text text-anchor="middle" x="414.25" y="-218.75" font-family="Times,serif" font-size="14.00">sulfur*33232</text>
</g>
</g>
</svg>
