<?xml version="1.0" encoding="UTF-8" standalone="no"?>
<!DOCTYPE svg PUBLIC "-//W3C//DTD SVG 1.1//EN"
 "http://www.w3.org/Graphics/SVG/1.1/DTD/svg11.dtd">
<!-- Generated by graphviz version 2.43.0 (0)
 -->
<!-- Title: %3 Pages: 1 -->
<svg width="3623pt" height="2935pt"
 viewBox="0.00 0.00 3622.78 2935.13" xmlns="http://www.w3.org/2000/svg" xmlns:xlink="http://www.w3.org/1999/xlink">
<g id="graph0" class="graph" transform="scale(1 1) rotate(0) translate(4 2931.13)">
<title>%3</title>
<polygon fill="white" stroke="transparent" points="-4,4 -4,-2931.13 3618.78,-2931.13 3618.78,4 -4,4"/>
<!-- &#45;2,7 (item=borax Borax) -->
<g id="node1" class="node">
<title>&#45;2,7 (item=borax Borax)</title>
<ellipse fill="none" stroke="black" cx="3143.72" cy="-1463.57" rx="123.48" ry="18"/>
<text text-anchor="middle" x="3143.72" y="-1459.87" font-family="Times,serif" font-size="14.00">&#45;2,7 (item=borax Borax)</text>
</g>
<!-- 1,12 (Molten Iron) -->
<g id="node2" class="node">
<title>1,12 (Molten Iron)</title>
<ellipse fill="none" stroke="black" cx="963.43" cy="-2722.36" rx="95.58" ry="18"/>
<text text-anchor="middle" x="963.43" y="-2718.66" font-family="Times,serif" font-size="14.00">1,12 (Molten Iron)</text>
</g>
<!-- &#45;2,7 (item=borax Borax)&#45;&gt;1,12 (Molten Iron) -->
<g id="edge1" class="edge">
<title>&#45;2,7 (item=borax Borax)&#45;&gt;1,12 (Molten Iron)</title>
<path fill="none" stroke="black" stroke-width="5.93" d="M3113.31,-1481.12C2872.28,-1620.28 1272.63,-2543.84 1002.22,-2699.96"/>
<polygon fill="black" stroke="black" stroke-width="5.93" points="999.23,-2695.69 993.17,-2705.19 1004.42,-2704.68 999.23,-2695.69"/>
<text text-anchor="middle" x="2006.77" y="-2094.34" font-family="Times,serif" font-size="14.00">borax*249600</text>
</g>
<!-- &#45;2,9 (molten steel) -->
<g id="node4" class="node">
<title>&#45;2,9 (molten steel)</title>
<ellipse fill="none" stroke="black" cx="3018.05" cy="-872.36" rx="95.58" ry="18"/>
<text text-anchor="middle" x="3018.05" y="-868.66" font-family="Times,serif" font-size="14.00">&#45;2,9 (molten steel)</text>
</g>
<!-- &#45;2,7 (item=borax Borax)&#45;&gt;&#45;2,9 (molten steel) -->
<g id="edge19" class="edge">
<title>&#45;2,7 (item=borax Borax)&#45;&gt;&#45;2,9 (molten steel)</title>
<path fill="none" stroke="black" stroke-width="0.46" d="M3139.89,-1445.55C3121.93,-1361.07 3046.02,-1003.95 3024.04,-900.53"/>
<polygon fill="black" stroke="black" stroke-width="0.46" points="3027.42,-899.58 3021.92,-890.53 3020.57,-901.04 3027.42,-899.58"/>
<text text-anchor="middle" x="3035.47" y="-1176.84" font-family="Times,serif" font-size="14.00">borax*19240</text>
</g>
<!-- &#45;1,10 (Iron Plates) -->
<g id="node6" class="node">
<title>&#45;1,10 (Iron Plates)</title>
<ellipse fill="none" stroke="black" cx="3018.05" cy="-2054.77" rx="94.78" ry="18"/>
<text text-anchor="middle" x="3018.05" y="-2051.07" font-family="Times,serif" font-size="14.00">&#45;1,10 (Iron Plates)</text>
</g>
<!-- &#45;2,7 (item=borax Borax)&#45;&gt;&#45;1,10 (Iron Plates) -->
<g id="edge8" class="edge">
<title>&#45;2,7 (item=borax Borax)&#45;&gt;&#45;1,10 (Iron Plates)</title>
<path fill="none" stroke="black" stroke-width="2.68" d="M3139.89,-1481.58C3121.93,-1566.06 3046.02,-1923.18 3024.04,-2026.6"/>
<polygon fill="black" stroke="black" stroke-width="2.68" points="3020.57,-2026.09 3021.92,-2036.6 3027.42,-2027.55 3020.57,-2026.09"/>
<text text-anchor="middle" x="3030.97" y="-1757.89" font-family="Times,serif" font-size="14.00">borax*112840</text>
</g>
<!-- &#45;4,&#45;4 (Reserved For Aluminium Ore Drop, Aluminium) -->
<g id="node7" class="node">
<title>&#45;4,&#45;4 (Reserved For Aluminium Ore Drop, Aluminium)</title>
<ellipse fill="none" stroke="black" cx="1538.26" cy="-2909.13" rx="258.05" ry="18"/>
<text text-anchor="middle" x="1538.26" y="-2905.43" font-family="Times,serif" font-size="14.00">&#45;4,&#45;4 (Reserved For Aluminium Ore Drop, Aluminium)</text>
</g>
<!-- &#45;2,7 (item=borax Borax)&#45;&gt;&#45;4,&#45;4 (Reserved For Aluminium Ore Drop, Aluminium) -->
<g id="edge11" class="edge">
<title>&#45;2,7 (item=borax Borax)&#45;&gt;&#45;4,&#45;4 (Reserved For Aluminium Ore Drop, Aluminium)</title>
<path fill="none" stroke="black" stroke-width="2.78" d="M3123.71,-1481.58C2954.46,-1633.98 1763.72,-2706.12 1566.04,-2884.12"/>
<polygon fill="black" stroke="black" stroke-width="2.78" points="1563.48,-2881.71 1558.39,-2891 1568.17,-2886.91 1563.48,-2881.71"/>
<text text-anchor="middle" x="2293.87" y="-2186.65" font-family="Times,serif" font-size="14.00">borax*117080</text>
</g>
<!-- 8,1 (Molten Copper) -->
<g id="node8" class="node">
<title>8,1 (Molten Copper)</title>
<ellipse fill="none" stroke="black" cx="2139.36" cy="-2845.95" rx="104.78" ry="18"/>
<text text-anchor="middle" x="2139.36" y="-2842.25" font-family="Times,serif" font-size="14.00">8,1 (Molten Copper)</text>
</g>
<!-- &#45;2,7 (item=borax Borax)&#45;&gt;8,1 (Molten Copper) -->
<g id="edge9" class="edge">
<title>&#45;2,7 (item=borax Borax)&#45;&gt;8,1 (Molten Copper)</title>
<path fill="none" stroke="black" stroke-width="0.43" d="M3130.65,-1481.55C3023.25,-1629.38 2286.71,-2643.13 2158.4,-2819.74"/>
<polygon fill="black" stroke="black" stroke-width="0.43" points="2155.47,-2817.81 2152.43,-2827.96 2161.14,-2821.93 2155.47,-2817.81"/>
<text text-anchor="middle" x="2598.03" y="-2154.45" font-family="Times,serif" font-size="14.00">borax*18280</text>
</g>
<!-- &#45;3,2 (Lead and Solder) -->
<g id="node9" class="node">
<title>&#45;3,2 (Lead and Solder)</title>
<ellipse fill="none" stroke="black" cx="2662.79" cy="-2543.75" rx="113.98" ry="18"/>
<text text-anchor="middle" x="2662.79" y="-2540.05" font-family="Times,serif" font-size="14.00">&#45;3,2 (Lead and Solder)</text>
</g>
<!-- &#45;2,7 (item=borax Borax)&#45;&gt;&#45;3,2 (Lead and Solder) -->
<g id="edge10" class="edge">
<title>&#45;2,7 (item=borax Borax)&#45;&gt;&#45;3,2 (Lead and Solder)</title>
<path fill="none" stroke="black" stroke-width="0.12" d="M3135.57,-1481.86C3078.87,-1609.23 2743.27,-2362.98 2674.93,-2516.47"/>
<polygon fill="black" stroke="black" stroke-width="0.12" points="2671.7,-2515.14 2670.83,-2525.7 2678.09,-2517.99 2671.7,-2515.14"/>
<text text-anchor="middle" x="2863.25" y="-2002.97" font-family="Times,serif" font-size="14.00">borax*5080</text>
</g>
<!-- 2,&#45;2 (Tin Plate, Organic Solvent) -->
<g id="node10" class="node">
<title>2,&#45;2 (Tin Plate, Organic Solvent)</title>
<ellipse fill="none" stroke="black" cx="2662.79" cy="-383.38" rx="159.77" ry="18"/>
<text text-anchor="middle" x="2662.79" y="-379.68" font-family="Times,serif" font-size="14.00">2,&#45;2 (Tin Plate, Organic Solvent)</text>
</g>
<!-- &#45;2,7 (item=borax Borax)&#45;&gt;2,&#45;2 (Tin Plate, Organic Solvent) -->
<g id="edge26" class="edge">
<title>&#45;2,7 (item=borax Borax)&#45;&gt;2,&#45;2 (Tin Plate, Organic Solvent)</title>
<path fill="none" stroke="black" stroke-width="0.92" d="M3135.57,-1445.27C3078.87,-1317.9 2743.27,-564.15 2674.93,-410.66"/>
<polygon fill="black" stroke="black" stroke-width="0.92" points="2678.09,-409.14 2670.83,-401.43 2671.7,-411.99 2678.09,-409.14"/>
<text text-anchor="middle" x="2858.75" y="-931.76" font-family="Times,serif" font-size="14.00">borax*38840</text>
</g>
<!-- &#45;1,11 (Steel Plate (from molten)) -->
<g id="node11" class="node">
<title>&#45;1,11 (Steel Plate (from molten))</title>
<ellipse fill="none" stroke="black" cx="2139.36" cy="-81.18" rx="161.37" ry="18"/>
<text text-anchor="middle" x="2139.36" y="-77.48" font-family="Times,serif" font-size="14.00">&#45;1,11 (Steel Plate (from molten))</text>
</g>
<!-- &#45;2,7 (item=borax Borax)&#45;&gt;&#45;1,11 (Steel Plate (from molten)) -->
<g id="edge14" class="edge">
<title>&#45;2,7 (item=borax Borax)&#45;&gt;&#45;1,11 (Steel Plate (from molten))</title>
<path fill="none" stroke="black" stroke-width="1.93" d="M3130.65,-1445.58C3023.25,-1297.75 2286.71,-284 2158.4,-107.39"/>
<polygon fill="black" stroke="black" stroke-width="1.93" points="2161.14,-105.2 2152.43,-99.17 2155.47,-109.32 2161.14,-105.2"/>
<text text-anchor="middle" x="2598.03" y="-780.29" font-family="Times,serif" font-size="14.00">borax*81080</text>
</g>
<!-- 3,9 (Copper, molten &amp; plate) -->
<g id="node12" class="node">
<title>3,9 (Copper, molten &amp; plate)</title>
<ellipse fill="none" stroke="black" cx="1538.26" cy="-18" rx="143.77" ry="18"/>
<text text-anchor="middle" x="1538.26" y="-14.3" font-family="Times,serif" font-size="14.00">3,9 (Copper, molten &amp; plate)</text>
</g>
<!-- &#45;2,7 (item=borax Borax)&#45;&gt;3,9 (Copper, molten &amp; plate) -->
<g id="edge20" class="edge">
<title>&#45;2,7 (item=borax Borax)&#45;&gt;3,9 (Copper, molten &amp; plate)</title>
<path fill="none" stroke="black" stroke-width="1.73" d="M3123.71,-1445.55C2954.37,-1293.07 1762.47,-219.88 1565.72,-42.73"/>
<polygon fill="black" stroke="black" stroke-width="1.73" points="1567.9,-39.98 1558.12,-35.89 1563.21,-45.18 1567.9,-39.98"/>
<text text-anchor="middle" x="2298.22" y="-747.94" font-family="Times,serif" font-size="14.00">borax*72840</text>
</g>
<!-- 4,3 (item=nexelit&#45;plate Nexelit platery) -->
<g id="node13" class="node">
<title>4,3 (item=nexelit&#45;plate Nexelit platery)</title>
<ellipse fill="none" stroke="black" cx="963.43" cy="-204.77" rx="194.17" ry="18"/>
<text text-anchor="middle" x="963.43" y="-201.07" font-family="Times,serif" font-size="14.00">4,3 (item=nexelit&#45;plate Nexelit platery)</text>
</g>
<!-- &#45;2,7 (item=borax Borax)&#45;&gt;4,3 (item=nexelit&#45;plate Nexelit platery) -->
<g id="edge16" class="edge">
<title>&#45;2,7 (item=borax Borax)&#45;&gt;4,3 (item=nexelit&#45;plate Nexelit platery)</title>
<path fill="none" stroke="black" stroke-width="0.53" d="M3113.31,-1446.01C2872.55,-1307 1276.12,-385.3 1003.11,-227.68"/>
<polygon fill="black" stroke="black" stroke-width="0.53" points="1004.73,-224.58 994.32,-222.61 1001.23,-230.64 1004.73,-224.58"/>
<text text-anchor="middle" x="2011.71" y="-840.65" font-family="Times,serif" font-size="14.00">borax*22280</text>
</g>
<!-- 6,3 (Things from molten) -->
<g id="node14" class="node">
<title>6,3 (Things from molten)</title>
<ellipse fill="none" stroke="black" cx="514.26" cy="-609.2" rx="126.18" ry="18"/>
<text text-anchor="middle" x="514.26" y="-605.5" font-family="Times,serif" font-size="14.00">6,3 (Things from molten)</text>
</g>
<!-- &#45;2,7 (item=borax Borax)&#45;&gt;6,3 (Things from molten) -->
<g id="edge27" class="edge">
<title>&#45;2,7 (item=borax Borax)&#45;&gt;6,3 (Things from molten)</title>
<path fill="none" stroke="black" stroke-width="0.15" d="M3092.96,-1447.07C2763.65,-1340.07 932.49,-745.09 574.84,-628.89"/>
<polygon fill="black" stroke="black" stroke-width="0.15" points="575.78,-625.51 565.18,-625.75 573.61,-632.17 575.78,-625.51"/>
<text text-anchor="middle" x="1791.9" y="-1041.78" font-family="Times,serif" font-size="14.00">borax*6120</text>
</g>
<!-- 2,10 (Nickel plate and Nichrome) -->
<g id="node15" class="node">
<title>2,10 (Nickel plate and Nichrome)</title>
<ellipse fill="none" stroke="black" cx="514.26" cy="-2317.93" rx="165.17" ry="18"/>
<text text-anchor="middle" x="514.26" y="-2314.23" font-family="Times,serif" font-size="14.00">2,10 (Nickel plate and Nichrome)</text>
</g>
<!-- &#45;2,7 (item=borax Borax)&#45;&gt;2,10 (Nickel plate and Nichrome) -->
<g id="edge29" class="edge">
<title>&#45;2,7 (item=borax Borax)&#45;&gt;2,10 (Nickel plate and Nichrome)</title>
<path fill="none" stroke="black" stroke-width="0.2" d="M3092.96,-1480.06C2764.18,-1586.88 938.38,-2180.12 576.58,-2297.68"/>
<polygon fill="black" stroke="black" stroke-width="0.2" points="575.23,-2294.44 566.8,-2300.86 577.4,-2301.09 575.23,-2294.44"/>
<text text-anchor="middle" x="1792.77" y="-1892.67" font-family="Times,serif" font-size="14.00">borax*8520</text>
</g>
<!-- 4,6 (Circuit substrate and Doped silicon) -->
<g id="node16" class="node">
<title>4,6 (Circuit substrate and Doped silicon)</title>
<ellipse fill="none" stroke="black" cx="3415.25" cy="-1463.57" rx="199.56" ry="18"/>
<text text-anchor="middle" x="3415.25" y="-1459.87" font-family="Times,serif" font-size="14.00">4,6 (Circuit substrate and Doped silicon)</text>
</g>
<!-- &#45;2,7 (item=borax Borax)&#45;&gt;4,6 (Circuit substrate and Doped silicon) -->
<g id="edge31" class="edge">
<title>&#45;2,7 (item=borax Borax)&#45;&gt;4,6 (Circuit substrate and Doped silicon)</title>
<path fill="none" stroke="black" stroke-width="0.1" d="M3267.57,-1463.57C3267.64,-1463.57 3267.71,-1463.57 3267.78,-1463.57"/>
<polygon fill="black" stroke="black" stroke-width="0.1" points="3257.99,-1467.07 3267.99,-1463.57 3257.98,-1460.07 3257.99,-1467.07"/>
<text text-anchor="middle" x="3309.67" y="-1467.37" font-family="Times,serif" font-size="14.00">borax*4240</text>
</g>
<!-- &#45;3,&#45;1 (item=boron&#45;trioxide Boron products 2) -->
<g id="node3" class="node">
<title>&#45;3,&#45;1 (item=boron&#45;trioxide Boron products 2)</title>
<ellipse fill="none" stroke="black" cx="268.43" cy="-1765.77" rx="219.06" ry="18"/>
<text text-anchor="middle" x="268.43" y="-1762.07" font-family="Times,serif" font-size="14.00">&#45;3,&#45;1 (item=boron&#45;trioxide Boron products 2)</text>
</g>
<!-- &#45;3,&#45;1 (item=boron&#45;trioxide Boron products 2)&#45;&gt;1,12 (Molten Iron) -->
<g id="edge12" class="edge">
<title>&#45;3,&#45;1 (item=boron&#45;trioxide Boron products 2)&#45;&gt;1,12 (Molten Iron)</title>
<path fill="none" stroke="black" stroke-width="1.23" d="M281.69,-1784.03C367.35,-1901.93 842.16,-2555.45 944.14,-2695.81"/>
<polygon fill="black" stroke="black" stroke-width="1.23" points="941.6,-2698.27 950.31,-2704.3 947.26,-2694.15 941.6,-2698.27"/>
<text text-anchor="middle" x="566.41" y="-2243.72" font-family="Times,serif" font-size="14.00">borax*51792</text>
</g>
<!-- &#45;3,&#45;1 (item=boron&#45;trioxide Boron products 2)&#45;&gt;&#45;2,9 (molten steel) -->
<g id="edge2" class="edge">
<title>&#45;3,&#45;1 (item=boron&#45;trioxide Boron products 2)&#45;&gt;&#45;2,9 (molten steel)</title>
<path fill="none" stroke="black" stroke-width="0.03" d="M322.43,-1748.23C671.05,-1634.95 2600.91,-1007.9 2960.4,-891.1"/>
<polygon fill="black" stroke="black" stroke-width="0.03" points="2961.65,-894.37 2970.08,-887.95 2959.49,-887.71 2961.65,-894.37"/>
<text text-anchor="middle" x="1599.41" y="-1323.46" font-family="Times,serif" font-size="14.00">borax*1152</text>
</g>
<!-- &#45;3,&#45;1 (item=boron&#45;trioxide Boron products 2)&#45;&gt;&#45;1,10 (Iron Plates) -->
<g id="edge6" class="edge">
<title>&#45;3,&#45;1 (item=boron&#45;trioxide Boron products 2)&#45;&gt;&#45;1,10 (Iron Plates)</title>
<path fill="none" stroke="black" stroke-width="0.99" d="M403.37,-1779.95C885.68,-1830.65 2517.09,-2002.11 2925.01,-2044.99"/>
<polygon fill="black" stroke="black" stroke-width="0.99" points="2924.68,-2048.47 2934.99,-2046.04 2925.41,-2041.51 2924.68,-2048.47"/>
<text text-anchor="middle" x="1617.69" y="-1916.27" font-family="Times,serif" font-size="14.00">borax*41856</text>
</g>
<!-- &#45;3,&#45;1 (item=boron&#45;trioxide Boron products 2)&#45;&gt;&#45;4,&#45;4 (Reserved For Aluminium Ore Drop, Aluminium) -->
<g id="edge4" class="edge">
<title>&#45;3,&#45;1 (item=boron&#45;trioxide Boron products 2)&#45;&gt;&#45;4,&#45;4 (Reserved For Aluminium Ore Drop, Aluminium)</title>
<path fill="none" stroke="black" stroke-width="0.49" d="M288.37,-1783.73C434.51,-1915.31 1339.01,-2729.73 1510.28,-2883.94"/>
<polygon fill="black" stroke="black" stroke-width="0.49" points="1508.11,-2886.69 1517.88,-2890.78 1512.79,-2881.49 1508.11,-2886.69"/>
<text text-anchor="middle" x="852.83" y="-2337.64" font-family="Times,serif" font-size="14.00">borax*20416</text>
</g>
<!-- &#45;3,&#45;1 (item=boron&#45;trioxide Boron products 2)&#45;&gt;8,1 (Molten Copper) -->
<g id="edge24" class="edge">
<title>&#45;3,&#45;1 (item=boron&#45;trioxide Boron products 2)&#45;&gt;8,1 (Molten Copper)</title>
<path fill="none" stroke="black" stroke-width="0.1" d="M299.34,-1783.62C520.04,-1911.04 1854.89,-2681.71 2100.52,-2823.53"/>
<polygon fill="black" stroke="black" stroke-width="0.1" points="2099.05,-2826.72 2109.46,-2828.69 2102.55,-2820.66 2099.05,-2826.72"/>
<text text-anchor="middle" x="1157.93" y="-2307.38" font-family="Times,serif" font-size="14.00">borax*4192</text>
</g>
<!-- &#45;3,&#45;1 (item=boron&#45;trioxide Boron products 2)&#45;&gt;&#45;3,2 (Lead and Solder) -->
<g id="edge32" class="edge">
<title>&#45;3,&#45;1 (item=boron&#45;trioxide Boron products 2)&#45;&gt;&#45;3,2 (Lead and Solder)</title>
<path fill="none" stroke="black" stroke-width="0.12" d="M322.36,-1783.3C640.47,-1886.66 2269.15,-2415.85 2602.96,-2524.31"/>
<polygon fill="black" stroke="black" stroke-width="0.12" points="2602.32,-2527.78 2612.92,-2527.54 2604.49,-2521.12 2602.32,-2527.78"/>
<text text-anchor="middle" x="1420.66" y="-2157.6" font-family="Times,serif" font-size="14.00">borax*5008</text>
</g>
<!-- &#45;3,&#45;1 (item=boron&#45;trioxide Boron products 2)&#45;&gt;2,&#45;2 (Tin Plate, Organic Solvent) -->
<g id="edge13" class="edge">
<title>&#45;3,&#45;1 (item=boron&#45;trioxide Boron products 2)&#45;&gt;2,&#45;2 (Tin Plate, Organic Solvent)</title>
<path fill="none" stroke="black" stroke-width="0.53" d="M299.58,-1747.79C557.29,-1599 2334.34,-573.01 2623.16,-406.26"/>
<polygon fill="black" stroke="black" stroke-width="0.53" points="2625.13,-409.17 2632.04,-401.14 2621.63,-403.11 2625.13,-409.17"/>
<text text-anchor="middle" x="1414.87" y="-1080.83" font-family="Times,serif" font-size="14.00">borax*22240</text>
</g>
<!-- &#45;3,&#45;1 (item=boron&#45;trioxide Boron products 2)&#45;&gt;&#45;1,11 (Steel Plate (from molten)) -->
<g id="edge34" class="edge">
<title>&#45;3,&#45;1 (item=boron&#45;trioxide Boron products 2)&#45;&gt;&#45;1,11 (Steel Plate (from molten))</title>
<path fill="none" stroke="black" stroke-width="0.12" d="M288.48,-1747.71C474.47,-1580.25 1895.9,-300.39 2111.88,-105.91"/>
<polygon fill="black" stroke="black" stroke-width="0.12" points="2114.24,-108.5 2119.33,-99.21 2109.56,-103.3 2114.24,-108.5"/>
<text text-anchor="middle" x="1158.18" y="-930.61" font-family="Times,serif" font-size="14.00">borax*5008</text>
</g>
<!-- &#45;3,&#45;1 (item=boron&#45;trioxide Boron products 2)&#45;&gt;3,9 (Copper, molten &amp; plate) -->
<g id="edge25" class="edge">
<title>&#45;3,&#45;1 (item=boron&#45;trioxide Boron products 2)&#45;&gt;3,9 (Copper, molten &amp; plate)</title>
<path fill="none" stroke="black" stroke-width="0.79" d="M281.62,-1747.62C405.97,-1576.46 1370.88,-248.37 1519.16,-44.29"/>
<polygon fill="black" stroke="black" stroke-width="0.79" points="1521.99,-46.34 1525.04,-36.19 1516.33,-42.23 1521.99,-46.34"/>
<text text-anchor="middle" x="853.89" y="-899.75" font-family="Times,serif" font-size="14.00">borax*33072</text>
</g>
<!-- &#45;3,&#45;1 (item=boron&#45;trioxide Boron products 2)&#45;&gt;4,3 (item=nexelit&#45;plate Nexelit platery) -->
<g id="edge28" class="edge">
<title>&#45;3,&#45;1 (item=boron&#45;trioxide Boron products 2)&#45;&gt;4,3 (item=nexelit&#45;plate Nexelit platery)</title>
<path fill="none" stroke="black" stroke-width="0.1" d="M276.47,-1747.7C347.37,-1588.45 865,-425.85 951.26,-232.11"/>
<polygon fill="black" stroke="black" stroke-width="0.1" points="954.49,-233.45 955.36,-222.89 948.1,-230.6 954.49,-233.45"/>
<text text-anchor="middle" x="571.86" y="-993.7" font-family="Times,serif" font-size="14.00">borax*4032</text>
</g>
<!-- &#45;3,&#45;1 (item=boron&#45;trioxide Boron products 2)&#45;&gt;2,10 (Nickel plate and Nichrome) -->
<g id="edge30" class="edge">
<title>&#45;3,&#45;1 (item=boron&#45;trioxide Boron products 2)&#45;&gt;2,10 (Nickel plate and Nichrome)</title>
<path fill="none" stroke="black" stroke-width="0.13" d="M276.47,-1783.83C312.43,-1864.6 458.66,-2193.04 502.06,-2290.52"/>
<polygon fill="black" stroke="black" stroke-width="0.13" points="498.89,-2292.02 506.16,-2299.73 505.29,-2289.17 498.89,-2292.02"/>
<text text-anchor="middle" x="347.26" y="-2040.98" font-family="Times,serif" font-size="14.00">borax*5440</text>
</g>
<!-- 4,0 (item=raw&#45;borax item=borax Borax and raw borax) -->
<g id="node5" class="node">
<title>4,0 (item=raw&#45;borax item=borax Borax and raw borax)</title>
<ellipse fill="none" stroke="black" cx="268.43" cy="-1161.36" rx="268.35" ry="18"/>
<text text-anchor="middle" x="268.43" y="-1157.66" font-family="Times,serif" font-size="14.00">4,0 (item=raw&#45;borax item=borax Borax and raw borax)</text>
</g>
<!-- 4,0 (item=raw&#45;borax item=borax Borax and raw borax)&#45;&gt;1,12 (Molten Iron) -->
<g id="edge7" class="edge">
<title>4,0 (item=raw&#45;borax item=borax Borax and raw borax)&#45;&gt;1,12 (Molten Iron)</title>
<path fill="none" stroke="black" stroke-width="3.88" d="M276.47,-1179.43C347.37,-1338.68 865,-2501.29 951.26,-2695.02"/>
<polygon fill="black" stroke="black" stroke-width="3.88" points="948.1,-2696.53 955.36,-2704.24 954.49,-2693.68 948.1,-2696.53"/>
<text text-anchor="middle" x="562.86" y="-1941.03" font-family="Times,serif" font-size="14.00">borax*163320</text>
</g>
<!-- 4,0 (item=raw&#45;borax item=borax Borax and raw borax)&#45;&gt;&#45;2,9 (molten steel) -->
<g id="edge5" class="edge">
<title>4,0 (item=raw&#45;borax item=borax Borax and raw borax)&#45;&gt;&#45;2,9 (molten steel)</title>
<path fill="none" stroke="black" stroke-width="0.26" d="M412.87,-1146.18C906.45,-1094.3 2518.02,-924.92 2924.37,-882.21"/>
<polygon fill="black" stroke="black" stroke-width="0.26" points="2925.02,-885.66 2934.6,-881.13 2924.29,-878.7 2925.02,-885.66"/>
<text text-anchor="middle" x="1622.12" y="-1017.99" font-family="Times,serif" font-size="14.00">borax*11120</text>
</g>
<!-- 4,0 (item=raw&#45;borax item=borax Borax and raw borax)&#45;&gt;&#45;1,10 (Iron Plates) -->
<g id="edge3" class="edge">
<title>4,0 (item=raw&#45;borax item=borax Borax and raw borax)&#45;&gt;&#45;1,10 (Iron Plates)</title>
<path fill="none" stroke="black" stroke-width="2.19" d="M322.73,-1179.01C672.19,-1292.55 2601.13,-1919.3 2960.43,-2036.04"/>
<polygon fill="black" stroke="black" stroke-width="2.19" points="2959.51,-2039.43 2970.1,-2039.19 2961.68,-2032.77 2959.51,-2039.43"/>
<text text-anchor="middle" x="1595.08" y="-1611.32" font-family="Times,serif" font-size="14.00">borax*92200</text>
</g>
<!-- 4,0 (item=raw&#45;borax item=borax Borax and raw borax)&#45;&gt;&#45;4,&#45;4 (Reserved For Aluminium Ore Drop, Aluminium) -->
<g id="edge17" class="edge">
<title>4,0 (item=raw&#45;borax item=borax Borax and raw borax)&#45;&gt;&#45;4,&#45;4 (Reserved For Aluminium Ore Drop, Aluminium)</title>
<path fill="none" stroke="black" stroke-width="1.71" d="M281.62,-1179.52C405.97,-1350.67 1370.88,-2678.76 1519.16,-2882.85"/>
<polygon fill="black" stroke="black" stroke-width="1.71" points="1516.33,-2884.9 1525.04,-2890.94 1521.99,-2880.79 1516.33,-2884.9"/>
<text text-anchor="middle" x="853.89" y="-2034.98" font-family="Times,serif" font-size="14.00">borax*72160</text>
</g>
<!-- 4,0 (item=raw&#45;borax item=borax Borax and raw borax)&#45;&gt;8,1 (Molten Copper) -->
<g id="edge23" class="edge">
<title>4,0 (item=raw&#45;borax item=borax Borax and raw borax)&#45;&gt;8,1 (Molten Copper)</title>
<path fill="none" stroke="black" stroke-width="0.43" d="M288.48,-1179.42C474.47,-1346.88 1895.98,-2626.81 2111.9,-2821.23"/>
<polygon fill="black" stroke="black" stroke-width="0.43" points="2109.85,-2824.1 2119.63,-2828.19 2114.54,-2818.9 2109.85,-2824.1"/>
<text text-anchor="middle" x="1153.69" y="-2004.13" font-family="Times,serif" font-size="14.00">borax*18040</text>
</g>
<!-- 4,0 (item=raw&#45;borax item=borax Borax and raw borax)&#45;&gt;&#45;3,2 (Lead and Solder) -->
<g id="edge35" class="edge">
<title>4,0 (item=raw&#45;borax item=borax Borax and raw borax)&#45;&gt;&#45;3,2 (Lead and Solder)</title>
<path fill="none" stroke="black" stroke-width="0.12" d="M299.58,-1179.34C557.43,-1328.21 2336.21,-2355.2 2623.62,-2521.13"/>
<polygon fill="black" stroke="black" stroke-width="0.12" points="2622.04,-2524.26 2632.45,-2526.23 2625.54,-2518.2 2622.04,-2524.26"/>
<text text-anchor="middle" x="1419.6" y="-1854.04" font-family="Times,serif" font-size="14.00">borax*5040</text>
</g>
<!-- 4,0 (item=raw&#45;borax item=borax Borax and raw borax)&#45;&gt;2,&#45;2 (Tin Plate, Organic Solvent) -->
<g id="edge22" class="edge">
<title>4,0 (item=raw&#45;borax item=borax Borax and raw borax)&#45;&gt;2,&#45;2 (Tin Plate, Organic Solvent)</title>
<path fill="none" stroke="black" stroke-width="0.58" d="M322.93,-1143.65C641.74,-1040.06 2262.39,-513.48 2600.8,-403.53"/>
<polygon fill="black" stroke="black" stroke-width="0.58" points="2602.01,-406.81 2610.44,-400.39 2599.84,-400.16 2602.01,-406.81"/>
<text text-anchor="middle" x="1415.37" y="-777.39" font-family="Times,serif" font-size="14.00">borax*24560</text>
</g>
<!-- 4,0 (item=raw&#45;borax item=borax Borax and raw borax)&#45;&gt;&#45;1,11 (Steel Plate (from molten)) -->
<g id="edge21" class="edge">
<title>4,0 (item=raw&#45;borax item=borax Borax and raw borax)&#45;&gt;&#45;1,11 (Steel Plate (from molten))</title>
<path fill="none" stroke="black" stroke-width="1.81" d="M299.73,-1143.29C521.36,-1015.33 1852.24,-246.94 2099.75,-104.04"/>
<polygon fill="black" stroke="black" stroke-width="1.81" points="2101.52,-107.07 2108.43,-99.04 2098.02,-101 2101.52,-107.07"/>
<text text-anchor="middle" x="1153.24" y="-627.47" font-family="Times,serif" font-size="14.00">borax*76120</text>
</g>
<!-- 4,0 (item=raw&#45;borax item=borax Borax and raw borax)&#45;&gt;3,9 (Copper, molten &amp; plate) -->
<g id="edge15" class="edge">
<title>4,0 (item=raw&#45;borax item=borax Borax and raw borax)&#45;&gt;3,9 (Copper, molten &amp; plate)</title>
<path fill="none" stroke="black" stroke-width="1.28" d="M288.37,-1143.4C434.66,-1011.68 1340.93,-195.67 1510.83,-42.7"/>
<polygon fill="black" stroke="black" stroke-width="1.28" points="1513.26,-45.21 1518.35,-35.92 1508.58,-40.01 1513.26,-45.21"/>
<text text-anchor="middle" x="853.1" y="-596.85" font-family="Times,serif" font-size="14.00">borax*53920</text>
</g>
<!-- 4,0 (item=raw&#45;borax item=borax Borax and raw borax)&#45;&gt;4,3 (item=nexelit&#45;plate Nexelit platery) -->
<g id="edge18" class="edge">
<title>4,0 (item=raw&#45;borax item=borax Borax and raw borax)&#45;&gt;4,3 (item=nexelit&#45;plate Nexelit platery)</title>
<path fill="none" stroke="black" stroke-width="0.1" d="M281.69,-1143.11C367.35,-1025.2 842.16,-371.68 944.14,-231.32"/>
<polygon fill="black" stroke="black" stroke-width="0.1" points="947.26,-232.98 950.31,-222.83 941.6,-228.87 947.26,-232.98"/>
<text text-anchor="middle" x="570.91" y="-691.01" font-family="Times,serif" font-size="14.00">borax*4040</text>
</g>
<!-- 4,0 (item=raw&#45;borax item=borax Borax and raw borax)&#45;&gt;6,3 (Things from molten) -->
<g id="edge33" class="edge">
<title>4,0 (item=raw&#45;borax item=borax Borax and raw borax)&#45;&gt;6,3 (Things from molten)</title>
<path fill="none" stroke="black" stroke-width="0.05" d="M276.47,-1143.3C312.43,-1062.53 458.66,-734.09 502.06,-636.61"/>
<polygon fill="black" stroke="black" stroke-width="0.05" points="505.29,-637.96 506.16,-627.4 498.89,-635.11 505.29,-637.96"/>
<text text-anchor="middle" x="347.26" y="-893.76" font-family="Times,serif" font-size="14.00">borax*2040</text>
</g>
</g>
</svg>
