<?xml version="1.0" encoding="UTF-8" standalone="no"?>
<!DOCTYPE svg PUBLIC "-//W3C//DTD SVG 1.1//EN"
 "http://www.w3.org/Graphics/SVG/1.1/DTD/svg11.dtd">
<!-- Generated by graphviz version 2.43.0 (0)
 -->
<!-- Title: %3 Pages: 1 -->
<svg width="1688pt" height="850pt"
 viewBox="0.00 0.00 1688.40 849.87" xmlns="http://www.w3.org/2000/svg" xmlns:xlink="http://www.w3.org/1999/xlink">
<g id="graph0" class="graph" transform="scale(1 1) rotate(0) translate(4 845.87)">
<title>%3</title>
<polygon fill="white" stroke="transparent" points="-4,4 -4,-845.87 1684.4,-845.87 1684.4,4 -4,4"/>
<!-- 7,3 (Copper mine) -->
<g id="node1" class="node">
<title>7,3 (Copper mine)</title>
<ellipse fill="none" stroke="black" cx="424.04" cy="-823.87" rx="94.78" ry="18"/>
<text text-anchor="middle" x="424.04" y="-820.17" font-family="Times,serif" font-size="14.00">7,3 (Copper mine)</text>
</g>
<!-- &#45;6,8 (Copper plate duplicate) -->
<g id="node2" class="node">
<title>&#45;6,8 (Copper plate duplicate)</title>
<ellipse fill="none" stroke="black" cx="143.64" cy="-600.26" rx="143.77" ry="18"/>
<text text-anchor="middle" x="143.64" y="-596.56" font-family="Times,serif" font-size="14.00">&#45;6,8 (Copper plate duplicate)</text>
</g>
<!-- 7,3 (Copper mine)&#45;&gt;&#45;6,8 (Copper plate duplicate) -->
<g id="edge1" class="edge">
<title>7,3 (Copper mine)&#45;&gt;&#45;6,8 (Copper plate duplicate)</title>
<path fill="none" stroke="black" stroke-width="0.47" d="M402.03,-806.32C352.32,-766.68 231.23,-670.11 174.24,-624.66"/>
<polygon fill="black" stroke="black" stroke-width="0.47" points="176.32,-621.84 166.32,-618.34 171.95,-627.31 176.32,-621.84"/>
<text text-anchor="middle" x="223.64" y="-719.29" font-family="Times,serif" font-size="14.00">copper&#45;ore*83920</text>
</g>
<!-- 4,11 (Cobalt Extract) -->
<g id="node9" class="node">
<title>4,11 (Cobalt Extract)</title>
<ellipse fill="none" stroke="black" cx="773.69" cy="-744.06" rx="108.58" ry="18"/>
<text text-anchor="middle" x="773.69" y="-740.36" font-family="Times,serif" font-size="14.00">4,11 (Cobalt Extract)</text>
</g>
<!-- 7,3 (Copper mine)&#45;&gt;4,11 (Cobalt Extract) -->
<g id="edge10" class="edge">
<title>7,3 (Copper mine)&#45;&gt;4,11 (Cobalt Extract)</title>
<path fill="none" stroke="black" stroke-width="0.06" d="M484.94,-809.97C544.65,-796.34 635.77,-775.54 699.63,-760.96"/>
<polygon fill="black" stroke="black" stroke-width="0.06" points="700.67,-764.32 709.64,-758.68 699.11,-757.49 700.67,-764.32"/>
<text text-anchor="middle" x="527.79" y="-789.27" font-family="Times,serif" font-size="14.00">copper&#45;ore*10720</text>
</g>
<!-- 10,5 () -->
<g id="node3" class="node">
<title>10,5 ()</title>
<ellipse fill="none" stroke="black" cx="929.3" cy="-420.93" rx="40.89" ry="18"/>
<text text-anchor="middle" x="929.3" y="-417.23" font-family="Times,serif" font-size="14.00">10,5 ()</text>
</g>
<!-- 10,5 ()&#45;&gt;&#45;6,8 (Copper plate duplicate) -->
<g id="edge3" class="edge">
<title>10,5 ()&#45;&gt;&#45;6,8 (Copper plate duplicate)</title>
<path fill="none" stroke="black" stroke-width="2.56" d="M892.72,-429.28C772.85,-456.64 390.02,-544.02 222.92,-582.16"/>
<polygon fill="black" stroke="black" stroke-width="2.56" points="221.92,-578.8 212.95,-584.44 223.48,-585.62 221.92,-578.8"/>
<text text-anchor="middle" x="488.82" y="-509.52" font-family="Times,serif" font-size="14.00">copper&#45;ore*454080</text>
</g>
<!-- 3,9 (Copper, molten &amp; plate) -->
<g id="node4" class="node">
<title>3,9 (Copper, molten &amp; plate)</title>
<ellipse fill="none" stroke="black" cx="773.69" cy="-97.81" rx="143.77" ry="18"/>
<text text-anchor="middle" x="773.69" y="-94.11" font-family="Times,serif" font-size="14.00">3,9 (Copper, molten &amp; plate)</text>
</g>
<!-- 10,5 ()&#45;&gt;3,9 (Copper, molten &amp; plate) -->
<g id="edge2" class="edge">
<title>10,5 ()&#45;&gt;3,9 (Copper, molten &amp; plate)</title>
<path fill="none" stroke="black" stroke-width="2.75" d="M920.71,-403.1C894.89,-349.49 817.86,-189.52 786.84,-125.12"/>
<polygon fill="black" stroke="black" stroke-width="2.75" points="789.94,-123.47 782.44,-115.98 783.63,-126.51 789.94,-123.47"/>
<text text-anchor="middle" x="784.78" y="-267.91" font-family="Times,serif" font-size="14.00">copper&#45;ore*487680</text>
</g>
<!-- 8,1 (Molten Copper) -->
<g id="node6" class="node">
<title>8,1 (Molten Copper)</title>
<ellipse fill="none" stroke="black" cx="143.64" cy="-241.61" rx="104.78" ry="18"/>
<text text-anchor="middle" x="143.64" y="-237.91" font-family="Times,serif" font-size="14.00">8,1 (Molten Copper)</text>
</g>
<!-- 10,5 ()&#45;&gt;8,1 (Molten Copper) -->
<g id="edge7" class="edge">
<title>10,5 ()&#45;&gt;8,1 (Molten Copper)</title>
<path fill="none" stroke="black" stroke-width="0.46" d="M892.72,-412.58C771.35,-384.88 380.42,-295.65 216.76,-258.3"/>
<polygon fill="black" stroke="black" stroke-width="0.46" points="217.31,-254.84 206.78,-256.02 215.75,-261.66 217.31,-254.84"/>
<text text-anchor="middle" x="490.24" y="-339.24" font-family="Times,serif" font-size="14.00">copper&#45;ore*82320</text>
</g>
<!-- 10,5 ()&#45;&gt;4,11 (Cobalt Extract) -->
<g id="edge9" class="edge">
<title>10,5 ()&#45;&gt;4,11 (Cobalt Extract)</title>
<path fill="none" stroke="black" stroke-width="0.42" d="M920.71,-438.77C894.89,-492.38 817.86,-652.34 786.84,-716.75"/>
<polygon fill="black" stroke="black" stroke-width="0.42" points="783.63,-715.36 782.44,-725.89 789.94,-718.39 783.63,-715.36"/>
<text text-anchor="middle" x="789.28" y="-581.56" font-family="Times,serif" font-size="14.00">copper&#45;ore*73920</text>
</g>
<!-- 5,&#45;1 (Drilling Fluid Type 2, I think my maths is backwards) -->
<g id="node10" class="node">
<title>5,&#45;1 (Drilling Fluid Type 2, I think my maths is backwards)</title>
<ellipse fill="none" stroke="black" cx="1283.37" cy="-420.93" rx="282.15" ry="18"/>
<text text-anchor="middle" x="1283.37" y="-417.23" font-family="Times,serif" font-size="14.00">5,&#45;1 (Drilling Fluid Type 2, I think my maths is backwards)</text>
</g>
<!-- 10,5 ()&#45;&gt;5,&#45;1 (Drilling Fluid Type 2, I think my maths is backwards) -->
<g id="edge12" class="edge">
<title>10,5 ()&#45;&gt;5,&#45;1 (Drilling Fluid Type 2, I think my maths is backwards)</title>
<path fill="none" stroke="black" stroke-width="0.28" d="M970.26,-420.93C976.65,-420.93 983.64,-420.93 991.11,-420.93"/>
<polygon fill="black" stroke="black" stroke-width="0.28" points="991.21,-424.43 1001.21,-420.93 991.21,-417.43 991.21,-424.43"/>
<text text-anchor="middle" x="916.19" y="-424.73" font-family="Times,serif" font-size="14.00">copper&#45;ore*50400</text>
</g>
<!-- &#45;5,&#45;7 (fluid=propene Propene) -->
<g id="node5" class="node">
<title>&#45;5,&#45;7 (fluid=propene Propene)</title>
<ellipse fill="none" stroke="black" cx="424.04" cy="-18" rx="149.47" ry="18"/>
<text text-anchor="middle" x="424.04" y="-14.3" font-family="Times,serif" font-size="14.00">&#45;5,&#45;7 (fluid=propene Propene)</text>
</g>
<!-- &#45;5,&#45;7 (fluid=propene Propene)&#45;&gt;&#45;6,8 (Copper plate duplicate) -->
<g id="edge8" class="edge">
<title>&#45;5,&#45;7 (fluid=propene Propene)&#45;&gt;&#45;6,8 (Copper plate duplicate)</title>
<path fill="none" stroke="black" stroke-width="1.41" d="M415.34,-36.06C374.95,-119.94 205.61,-471.57 156.84,-572.85"/>
<polygon fill="black" stroke="black" stroke-width="1.41" points="153.56,-571.59 152.37,-582.11 159.87,-574.62 153.56,-571.59"/>
<text text-anchor="middle" x="217.09" y="-308.26" font-family="Times,serif" font-size="14.00">copper&#45;ore*250800</text>
</g>
<!-- &#45;5,&#45;7 (fluid=propene Propene)&#45;&gt;3,9 (Copper, molten &amp; plate) -->
<g id="edge6" class="edge">
<title>&#45;5,&#45;7 (fluid=propene Propene)&#45;&gt;3,9 (Copper, molten &amp; plate)</title>
<path fill="none" stroke="black" stroke-width="2.83" d="M493.95,-33.96C551.91,-47.19 634.28,-65.99 694.62,-79.76"/>
<polygon fill="black" stroke="black" stroke-width="2.83" points="693.96,-83.2 704.49,-82.01 695.52,-76.37 693.96,-83.2"/>
<text text-anchor="middle" x="525.29" y="-60.66" font-family="Times,serif" font-size="14.00">copper&#45;ore*502224</text>
</g>
<!-- &#45;5,&#45;7 (fluid=propene Propene)&#45;&gt;8,1 (Molten Copper) -->
<g id="edge4" class="edge">
<title>&#45;5,&#45;7 (fluid=propene Propene)&#45;&gt;8,1 (Molten Copper)</title>
<path fill="none" stroke="black" stroke-width="0.52" d="M401.56,-35.92C351.4,-75.93 230.27,-172.53 173.69,-217.65"/>
<polygon fill="black" stroke="black" stroke-width="0.52" points="171.46,-214.94 165.83,-223.92 175.83,-220.42 171.46,-214.94"/>
<text text-anchor="middle" x="223.13" y="-130.58" font-family="Times,serif" font-size="14.00">copper&#45;ore*92688</text>
</g>
<!-- &#45;5,&#45;7 (fluid=propene Propene)&#45;&gt;4,11 (Cobalt Extract) -->
<g id="edge11" class="edge">
<title>&#45;5,&#45;7 (fluid=propene Propene)&#45;&gt;4,11 (Cobalt Extract)</title>
<path fill="none" stroke="black" stroke-width="0.18" d="M432.85,-36.31C480.14,-134.5 703.64,-598.59 760.5,-716.68"/>
<polygon fill="black" stroke="black" stroke-width="0.18" points="757.4,-718.31 764.9,-725.8 763.71,-715.27 757.4,-718.31"/>
<text text-anchor="middle" x="532.18" y="-380.29" font-family="Times,serif" font-size="14.00">copper&#45;ore*32544</text>
</g>
<!-- 5,&#45;7 (Emergency Salt) -->
<g id="node7" class="node">
<title>5,&#45;7 (Emergency Salt)</title>
<ellipse fill="none" stroke="black" cx="1124.2" cy="-293.93" rx="112.38" ry="18"/>
<text text-anchor="middle" x="1124.2" y="-290.23" font-family="Times,serif" font-size="14.00">5,&#45;7 (Emergency Salt)</text>
</g>
<!-- 1,3 (item=korlex&#45;food&#45;01 Korlex food) -->
<g id="node8" class="node">
<title>1,3 (item=korlex&#45;food&#45;01 Korlex food)</title>
<ellipse fill="none" stroke="black" cx="1494.52" cy="-293.93" rx="185.77" ry="18"/>
<text text-anchor="middle" x="1494.52" y="-290.23" font-family="Times,serif" font-size="14.00">1,3 (item=korlex&#45;food&#45;01 Korlex food)</text>
</g>
<!-- 5,&#45;7 (Emergency Salt)&#45;&gt;1,3 (item=korlex&#45;food&#45;01 Korlex food) -->
<g id="edge5" class="edge">
<title>5,&#45;7 (Emergency Salt)&#45;&gt;1,3 (item=korlex&#45;food&#45;01 Korlex food)</title>
<path fill="none" stroke="black" stroke-width="0.06" d="M1236.81,-293.93C1256.47,-293.93 1277.42,-293.93 1298.56,-293.93"/>
<polygon fill="black" stroke="black" stroke-width="0.06" points="1298.61,-297.43 1308.61,-293.93 1298.61,-290.43 1298.61,-297.43"/>
<text text-anchor="middle" x="1267.69" y="-282.73" font-family="Times,serif" font-size="14.00">copper&#45;ore*10512</text>
</g>
</g>
</svg>
