<?xml version="1.0" encoding="UTF-8" standalone="no"?>
<!DOCTYPE svg PUBLIC "-//W3C//DTD SVG 1.1//EN"
 "http://www.w3.org/Graphics/SVG/1.1/DTD/svg11.dtd">
<!-- Generated by graphviz version 2.43.0 (0)
 -->
<!-- Title: %3 Pages: 1 -->
<svg width="967pt" height="862pt"
 viewBox="0.00 0.00 967.09 861.56" xmlns="http://www.w3.org/2000/svg" xmlns:xlink="http://www.w3.org/1999/xlink">
<g id="graph0" class="graph" transform="scale(1 1) rotate(0) translate(4 857.56)">
<title>%3</title>
<polygon fill="white" stroke="transparent" points="-4,4 -4,-857.56 963.09,-857.56 963.09,4 -4,4"/>
<!-- 4,13 (Chromium processing) -->
<g id="node1" class="node">
<title>4,13 (Chromium processing)</title>
<ellipse fill="none" stroke="black" cx="473.07" cy="-427.59" rx="142.97" ry="18"/>
<text text-anchor="middle" x="473.07" y="-423.89" font-family="Times,serif" font-size="14.00">4,13 (Chromium processing)</text>
</g>
<!-- 0,0 (LE BUS) -->
<g id="node2" class="node">
<title>0,0 (LE BUS)</title>
<ellipse fill="none" stroke="black" cx="887.59" cy="-427.59" rx="71.49" ry="18"/>
<text text-anchor="middle" x="887.59" y="-423.89" font-family="Times,serif" font-size="14.00">0,0 (LE BUS)</text>
</g>
<!-- 4,13 (Chromium processing)&#45;&gt;0,0 (LE BUS) -->
<g id="edge1" class="edge">
<title>4,13 (Chromium processing)&#45;&gt;0,0 (LE BUS)</title>
<path fill="none" stroke="black" stroke-width="2" d="M616.31,-427.59C679.62,-427.59 751.78,-427.59 805.75,-427.59"/>
<polygon fill="black" stroke="black" stroke-width="2" points="805.95,-431.09 815.95,-427.59 805.95,-424.09 805.95,-431.09"/>
<text text-anchor="middle" x="742.03" y="-416.39" font-family="Times,serif" font-size="14.00">chromium*47040</text>
</g>
<!-- 4,&#45;1 (Fluid) -->
<g id="node3" class="node">
<title>4,&#45;1 (Fluid)</title>
<ellipse fill="none" stroke="black" cx="546.45" cy="-835.56" rx="61.99" ry="18"/>
<text text-anchor="middle" x="546.45" y="-831.86" font-family="Times,serif" font-size="14.00">4,&#45;1 (Fluid)</text>
</g>
<!-- 4,13 (Chromium processing)&#45;&gt;4,&#45;1 (Fluid) -->
<g id="edge2" class="edge">
<title>4,13 (Chromium processing)&#45;&gt;4,&#45;1 (Fluid)</title>
<path fill="none" stroke="black" stroke-width="0.47" d="M476.32,-445.64C487.9,-510 527.2,-728.54 541.34,-807.12"/>
<polygon fill="black" stroke="black" stroke-width="0.47" points="537.94,-808.03 543.16,-817.25 544.83,-806.79 537.94,-808.03"/>
<text text-anchor="middle" x="446.83" y="-630.18" font-family="Times,serif" font-size="14.00">chromium*11040</text>
</g>
<!-- 2,&#45;1 (Ammonia) -->
<g id="node4" class="node">
<title>2,&#45;1 (Ammonia)</title>
<ellipse fill="none" stroke="black" cx="81.24" cy="-562.85" rx="81.49" ry="18"/>
<text text-anchor="middle" x="81.24" y="-559.15" font-family="Times,serif" font-size="14.00">2,&#45;1 (Ammonia)</text>
</g>
<!-- 4,13 (Chromium processing)&#45;&gt;2,&#45;1 (Ammonia) -->
<g id="edge3" class="edge">
<title>4,13 (Chromium processing)&#45;&gt;2,&#45;1 (Ammonia)</title>
<path fill="none" stroke="black" stroke-width="0.26" d="M423.84,-444.58C350.08,-470.05 211.39,-517.92 135.04,-544.28"/>
<polygon fill="black" stroke="black" stroke-width="0.26" points="133.46,-541.12 125.15,-547.69 135.74,-547.74 133.46,-541.12"/>
<text text-anchor="middle" x="221.94" y="-498.23" font-family="Times,serif" font-size="14.00">chromium*6120</text>
</g>
<!-- 4,6 (Circuit substrate and Doped silicon) -->
<g id="node5" class="node">
<title>4,6 (Circuit substrate and Doped silicon)</title>
<ellipse fill="none" stroke="black" cx="409.31" cy="-18" rx="199.56" ry="18"/>
<text text-anchor="middle" x="409.31" y="-14.3" font-family="Times,serif" font-size="14.00">4,6 (Circuit substrate and Doped silicon)</text>
</g>
<!-- 4,13 (Chromium processing)&#45;&gt;4,6 (Circuit substrate and Doped silicon) -->
<g id="edge4" class="edge">
<title>4,13 (Chromium processing)&#45;&gt;4,6 (Circuit substrate and Doped silicon)</title>
<path fill="none" stroke="black" stroke-width="1.27" d="M470.25,-409.46C460.19,-344.84 426.03,-125.45 413.75,-46.55"/>
<polygon fill="black" stroke="black" stroke-width="1.27" points="417.17,-45.73 412.17,-36.38 410.25,-46.8 417.17,-45.73"/>
<text text-anchor="middle" x="380" y="-231.81" font-family="Times,serif" font-size="14.00">chromium*30000</text>
</g>
</g>
</svg>
