<?xml version="1.0" encoding="UTF-8" standalone="no"?>
<!DOCTYPE svg PUBLIC "-//W3C//DTD SVG 1.1//EN"
 "http://www.w3.org/Graphics/SVG/1.1/DTD/svg11.dtd">
<!-- Generated by graphviz version 2.43.0 (0)
 -->
<!-- Title: %3 Pages: 1 -->
<svg width="3098pt" height="2861pt"
 viewBox="0.00 0.00 3097.52 2861.20" xmlns="http://www.w3.org/2000/svg" xmlns:xlink="http://www.w3.org/1999/xlink">
<g id="graph0" class="graph" transform="scale(1 1) rotate(0) translate(4 2857.2)">
<title>%3</title>
<polygon fill="white" stroke="transparent" points="-4,4 -4,-2857.2 3093.52,-2857.2 3093.52,4 -4,4"/>
<!-- 0,6 (Flue Gas Disposal, Syngas From Flue Gas) -->
<g id="node1" class="node">
<title>0,6 (Flue Gas Disposal, Syngas From Flue Gas)</title>
<ellipse fill="none" stroke="black" cx="864.19" cy="-2646.48" rx="229.36" ry="18"/>
<text text-anchor="middle" x="864.19" y="-2642.78" font-family="Times,serif" font-size="14.00">0,6 (Flue Gas Disposal, Syngas From Flue Gas)</text>
</g>
<!-- 2,6 (Refined Syngas, Nisi) -->
<g id="node2" class="node">
<title>2,6 (Refined Syngas, Nisi)</title>
<ellipse fill="none" stroke="black" cx="1568.49" cy="-18" rx="131.88" ry="18"/>
<text text-anchor="middle" x="1568.49" y="-14.3" font-family="Times,serif" font-size="14.00">2,6 (Refined Syngas, Nisi)</text>
</g>
<!-- 0,6 (Flue Gas Disposal, Syngas From Flue Gas)&#45;&gt;2,6 (Refined Syngas, Nisi) -->
<g id="edge1" class="edge">
<title>0,6 (Flue Gas Disposal, Syngas From Flue Gas)&#45;&gt;2,6 (Refined Syngas, Nisi)</title>
<path fill="none" stroke="black" stroke-width="3.38" d="M869.06,-2628.29C927.32,-2410.87 1489.55,-312.6 1561.02,-45.84"/>
<polygon fill="black" stroke="black" stroke-width="3.38" points="1564.42,-46.71 1563.62,-36.14 1557.65,-44.9 1564.42,-46.71"/>
<text text-anchor="middle" x="1140.04" y="-1340.87" font-family="Times,serif" font-size="14.00">syngas&#45;barrel*22308</text>
</g>
<!-- 4,0 (item=raw&#45;borax item=borax Borax and raw borax) -->
<g id="node4" class="node">
<title>4,0 (item=raw&#45;borax item=borax Borax and raw borax)</title>
<ellipse fill="none" stroke="black" cx="2272.78" cy="-206.72" rx="268.35" ry="18"/>
<text text-anchor="middle" x="2272.78" y="-203.02" font-family="Times,serif" font-size="14.00">4,0 (item=raw&#45;borax item=borax Borax and raw borax)</text>
</g>
<!-- 0,6 (Flue Gas Disposal, Syngas From Flue Gas)&#45;&gt;4,0 (item=raw&#45;borax item=borax Borax and raw borax) -->
<g id="edge3" class="edge">
<title>0,6 (Flue Gas Disposal, Syngas From Flue Gas)&#45;&gt;4,0 (item=raw&#45;borax item=borax Borax and raw borax)</title>
<path fill="none" stroke="black" stroke-width="1.42" d="M874.71,-2628.25C995.2,-2419.55 2112.03,-485.15 2257.25,-233.63"/>
<polygon fill="black" stroke="black" stroke-width="1.42" points="2260.39,-235.18 2262.36,-224.77 2254.33,-231.68 2260.39,-235.18"/>
<text text-anchor="middle" x="1495.48" y="-1434.74" font-family="Times,serif" font-size="14.00">syngas&#45;barrel*9359</text>
</g>
<!-- 4,&#45;2 (Ceramic) -->
<g id="node6" class="node">
<title>4,&#45;2 (Ceramic)</title>
<ellipse fill="none" stroke="black" cx="2788.37" cy="-2130.9" rx="76.89" ry="18"/>
<text text-anchor="middle" x="2788.37" y="-2127.2" font-family="Times,serif" font-size="14.00">4,&#45;2 (Ceramic)</text>
</g>
<!-- 0,6 (Flue Gas Disposal, Syngas From Flue Gas)&#45;&gt;4,&#45;2 (Ceramic) -->
<g id="edge23" class="edge">
<title>0,6 (Flue Gas Disposal, Syngas From Flue Gas)&#45;&gt;4,&#45;2 (Ceramic)</title>
<path fill="none" stroke="black" stroke-width="0.31" d="M928.76,-2629.18C1223.78,-2550.13 2441.45,-2223.86 2727.85,-2147.11"/>
<polygon fill="black" stroke="black" stroke-width="0.31" points="2728.89,-2150.46 2737.64,-2144.49 2727.08,-2143.7 2728.89,-2150.46"/>
<text text-anchor="middle" x="1757.8" y="-2391.95" font-family="Times,serif" font-size="14.00">syngas&#45;barrel*2032</text>
</g>
<!-- &#45;2,7 (item=borax Borax) -->
<g id="node7" class="node">
<title>&#45;2,7 (item=borax Borax)</title>
<ellipse fill="none" stroke="black" cx="348.6" cy="-2130.9" rx="123.48" ry="18"/>
<text text-anchor="middle" x="348.6" y="-2127.2" font-family="Times,serif" font-size="14.00">&#45;2,7 (item=borax Borax)</text>
</g>
<!-- 0,6 (Flue Gas Disposal, Syngas From Flue Gas)&#45;&gt;&#45;2,7 (item=borax Borax) -->
<g id="edge7" class="edge">
<title>0,6 (Flue Gas Disposal, Syngas From Flue Gas)&#45;&gt;&#45;2,7 (item=borax Borax)</title>
<path fill="none" stroke="black" stroke-width="0.92" d="M846.14,-2628.43C768.64,-2550.93 463.92,-2246.22 373.82,-2156.12"/>
<polygon fill="black" stroke="black" stroke-width="0.92" points="376.05,-2153.4 366.5,-2148.8 371.1,-2158.35 376.05,-2153.4"/>
<text text-anchor="middle" x="539.48" y="-2396.08" font-family="Times,serif" font-size="14.00">syngas&#45;barrel*6060</text>
</g>
<!-- 7,3 (Copper mine) -->
<g id="node9" class="node">
<title>7,3 (Copper mine)</title>
<ellipse fill="none" stroke="black" cx="348.6" cy="-722.3" rx="94.78" ry="18"/>
<text text-anchor="middle" x="348.6" y="-718.6" font-family="Times,serif" font-size="14.00">7,3 (Copper mine)</text>
</g>
<!-- 0,6 (Flue Gas Disposal, Syngas From Flue Gas)&#45;&gt;7,3 (Copper mine) -->
<g id="edge16" class="edge">
<title>0,6 (Flue Gas Disposal, Syngas From Flue Gas)&#45;&gt;7,3 (Copper mine)</title>
<path fill="none" stroke="black" stroke-width="0.48" d="M859.33,-2628.36C810.92,-2447.7 415.66,-972.55 356.1,-750.3"/>
<polygon fill="black" stroke="black" stroke-width="0.48" points="359.42,-749.15 353.45,-740.4 352.66,-750.96 359.42,-749.15"/>
<text text-anchor="middle" x="537.22" y="-1693.13" font-family="Times,serif" font-size="14.00">syngas&#45;barrel*3145</text>
</g>
<!-- 2,&#45;2 (Tin Plate, Organic Solvent) -->
<g id="node10" class="node">
<title>2,&#45;2 (Tin Plate, Organic Solvent)</title>
<ellipse fill="none" stroke="black" cx="159.89" cy="-1426.6" rx="159.77" ry="18"/>
<text text-anchor="middle" x="159.89" y="-1422.9" font-family="Times,serif" font-size="14.00">2,&#45;2 (Tin Plate, Organic Solvent)</text>
</g>
<!-- 0,6 (Flue Gas Disposal, Syngas From Flue Gas)&#45;&gt;2,&#45;2 (Tin Plate, Organic Solvent) -->
<g id="edge20" class="edge">
<title>0,6 (Flue Gas Disposal, Syngas From Flue Gas)&#45;&gt;2,&#45;2 (Tin Plate, Organic Solvent)</title>
<path fill="none" stroke="black" stroke-width="0.2" d="M853.68,-2628.29C774.49,-2491.13 271.64,-1620.16 175.69,-1453.98"/>
<polygon fill="black" stroke="black" stroke-width="0.2" points="178.48,-1451.81 170.45,-1444.9 172.42,-1455.31 178.48,-1451.81"/>
<text text-anchor="middle" x="444.19" y="-2044.93" font-family="Times,serif" font-size="14.00">syngas&#45;barrel*1344</text>
</g>
<!-- &#45;6,&#45;8 (Convenient tin ore , fluid=z3&#45;reagent Help, how do I make Z3?) -->
<g id="node11" class="node">
<title>&#45;6,&#45;8 (Convenient tin ore , fluid=z3&#45;reagent Help, how do I make Z3?)</title>
<ellipse fill="none" stroke="black" cx="1568.49" cy="-2835.2" rx="332.54" ry="18"/>
<text text-anchor="middle" x="1568.49" y="-2831.5" font-family="Times,serif" font-size="14.00">&#45;6,&#45;8 (Convenient tin ore , fluid=z3&#45;reagent Help, how do I make Z3?)</text>
</g>
<!-- 0,6 (Flue Gas Disposal, Syngas From Flue Gas)&#45;&gt;&#45;6,&#45;8 (Convenient tin ore , fluid=z3&#45;reagent Help, how do I make Z3?) -->
<g id="edge29" class="edge">
<title>0,6 (Flue Gas Disposal, Syngas From Flue Gas)&#45;&gt;&#45;6,&#45;8 (Convenient tin ore , fluid=z3&#45;reagent Help, how do I make Z3?)</title>
<path fill="none" stroke="black" stroke-width="0.73" d="M928.87,-2663.81C1059.38,-2698.78 1353.62,-2777.63 1492.8,-2814.92"/>
<polygon fill="black" stroke="black" stroke-width="0.73" points="1491.98,-2818.32 1502.55,-2817.53 1493.8,-2811.56 1491.98,-2818.32"/>
<text text-anchor="middle" x="1140.33" y="-2743.17" font-family="Times,serif" font-size="14.00">syngas&#45;barrel*4832</text>
</g>
<!-- &#45;5,&#45;7 (fluid=propene Propene) -->
<g id="node12" class="node">
<title>&#45;5,&#45;7 (fluid=propene Propene)</title>
<ellipse fill="none" stroke="black" cx="2272.78" cy="-2646.48" rx="149.47" ry="18"/>
<text text-anchor="middle" x="2272.78" y="-2642.78" font-family="Times,serif" font-size="14.00">&#45;5,&#45;7 (fluid=propene Propene)</text>
</g>
<!-- 0,6 (Flue Gas Disposal, Syngas From Flue Gas)&#45;&gt;&#45;5,&#45;7 (fluid=propene Propene) -->
<g id="edge26" class="edge">
<title>0,6 (Flue Gas Disposal, Syngas From Flue Gas)&#45;&gt;&#45;5,&#45;7 (fluid=propene Propene)</title>
<path fill="none" stroke="black" stroke-width="0.31" d="M1093.64,-2646.48C1380.25,-2646.48 1863.25,-2646.48 2112.81,-2646.48"/>
<polygon fill="black" stroke="black" stroke-width="0.31" points="2113.05,-2649.98 2123.05,-2646.48 2113.05,-2642.98 2113.05,-2649.98"/>
<text text-anchor="middle" x="1532.72" y="-2650.28" font-family="Times,serif" font-size="14.00">syngas&#45;barrel*2064</text>
</g>
<!-- 2,7 (Mystery petrochemicals) -->
<g id="node3" class="node">
<title>2,7 (Mystery petrochemicals)</title>
<ellipse fill="none" stroke="black" cx="2788.37" cy="-722.3" rx="147.57" ry="18"/>
<text text-anchor="middle" x="2788.37" y="-718.6" font-family="Times,serif" font-size="14.00">2,7 (Mystery petrochemicals)</text>
</g>
<!-- 2,7 (Mystery petrochemicals)&#45;&gt;2,6 (Refined Syngas, Nisi) -->
<g id="edge2" class="edge">
<title>2,7 (Mystery petrochemicals)&#45;&gt;2,6 (Refined Syngas, Nisi)</title>
<path fill="none" stroke="black" stroke-width="4.06" d="M2757.6,-704.54C2590.64,-608.14 1793.93,-148.16 1607.55,-40.55"/>
<polygon fill="black" stroke="black" stroke-width="4.06" points="1609.33,-37.48 1598.89,-35.55 1605.78,-43.63 1609.33,-37.48"/>
<text text-anchor="middle" x="2107.58" y="-376.35" font-family="Times,serif" font-size="14.00">syngas&#45;barrel*26764</text>
</g>
<!-- 2,7 (Mystery petrochemicals)&#45;&gt;4,0 (item=raw&#45;borax item=borax Borax and raw borax) -->
<g id="edge4" class="edge">
<title>2,7 (Mystery petrochemicals)&#45;&gt;4,0 (item=raw&#45;borax item=borax Borax and raw borax)</title>
<path fill="none" stroke="black" stroke-width="1.52" d="M2770.32,-704.25C2692.83,-626.76 2388.17,-322.11 2298.04,-231.97"/>
<polygon fill="black" stroke="black" stroke-width="1.52" points="2300.5,-229.48 2290.95,-224.88 2295.55,-234.43 2300.5,-229.48"/>
<text text-anchor="middle" x="2459.18" y="-471.91" font-family="Times,serif" font-size="14.00">syngas&#45;barrel*10032</text>
</g>
<!-- 2,7 (Mystery petrochemicals)&#45;&gt;4,&#45;2 (Ceramic) -->
<g id="edge6" class="edge">
<title>2,7 (Mystery petrochemicals)&#45;&gt;4,&#45;2 (Ceramic)</title>
<path fill="none" stroke="black" stroke-width="0.19" d="M2788.37,-740.37C2788.37,-889.62 2788.37,-1917.87 2788.37,-2102.53"/>
<polygon fill="black" stroke="black" stroke-width="0.19" points="2784.87,-2102.55 2788.37,-2112.55 2791.87,-2102.55 2784.87,-2102.55"/>
<text text-anchor="middle" x="2717.87" y="-1425.25" font-family="Times,serif" font-size="14.00">syngas&#45;barrel*1280</text>
</g>
<!-- 2,7 (Mystery petrochemicals)&#45;&gt;&#45;2,7 (item=borax Borax) -->
<g id="edge9" class="edge">
<title>2,7 (Mystery petrochemicals)&#45;&gt;&#45;2,7 (item=borax Borax)</title>
<path fill="none" stroke="black" stroke-width="1.63" d="M2757.52,-740.11C2497.91,-890 680.13,-1939.49 388.14,-2108.07"/>
<polygon fill="black" stroke="black" stroke-width="1.63" points="386.08,-2105.22 379.17,-2113.25 389.58,-2111.28 386.08,-2105.22"/>
<text text-anchor="middle" x="1647.83" y="-1412.89" font-family="Times,serif" font-size="14.00">syngas&#45;barrel*10784</text>
</g>
<!-- 2,7 (Mystery petrochemicals)&#45;&gt;7,3 (Copper mine) -->
<g id="edge10" class="edge">
<title>2,7 (Mystery petrochemicals)&#45;&gt;7,3 (Copper mine)</title>
<path fill="none" stroke="black" stroke-width="1.3" d="M2640.79,-722.3C2190.48,-722.3 841.22,-722.3 453.72,-722.3"/>
<polygon fill="black" stroke="black" stroke-width="1.3" points="453.64,-718.8 443.64,-722.3 453.64,-725.8 453.64,-718.8"/>
<text text-anchor="middle" x="1476.76" y="-726.1" font-family="Times,serif" font-size="14.00">syngas&#45;barrel*8576</text>
</g>
<!-- 2,7 (Mystery petrochemicals)&#45;&gt;2,&#45;2 (Tin Plate, Organic Solvent) -->
<g id="edge12" class="edge">
<title>2,7 (Mystery petrochemicals)&#45;&gt;2,&#45;2 (Tin Plate, Organic Solvent)</title>
<path fill="none" stroke="black" stroke-width="0.32" d="M2726.95,-738.76C2374.45,-833.21 611.13,-1305.69 231.83,-1407.32"/>
<polygon fill="black" stroke="black" stroke-width="0.32" points="230.83,-1403.97 222.07,-1409.94 232.64,-1410.73 230.83,-1403.97"/>
<text text-anchor="middle" x="1408.89" y="-1076.84" font-family="Times,serif" font-size="14.00">syngas&#45;barrel*2080</text>
</g>
<!-- 2,7 (Mystery petrochemicals)&#45;&gt;&#45;6,&#45;8 (Convenient tin ore , fluid=z3&#45;reagent Help, how do I make Z3?) -->
<g id="edge17" class="edge">
<title>2,7 (Mystery petrochemicals)&#45;&gt;&#45;6,&#45;8 (Convenient tin ore , fluid=z3&#45;reagent Help, how do I make Z3?)</title>
<path fill="none" stroke="black" stroke-width="0.56" d="M2777.82,-740.57C2667,-932.52 1717.37,-2577.33 1584.02,-2808.3"/>
<polygon fill="black" stroke="black" stroke-width="0.56" points="1580.92,-2806.67 1578.95,-2817.08 1586.98,-2810.17 1580.92,-2806.67"/>
<text text-anchor="middle" x="2110.42" y="-1778.23" font-family="Times,serif" font-size="14.00">syngas&#45;barrel*3712</text>
</g>
<!-- 2,7 (Mystery petrochemicals)&#45;&gt;&#45;5,&#45;7 (fluid=propene Propene) -->
<g id="edge25" class="edge">
<title>2,7 (Mystery petrochemicals)&#45;&gt;&#45;5,&#45;7 (fluid=propene Propene)</title>
<path fill="none" stroke="black" stroke-width="0.07" d="M2783.51,-740.42C2735.11,-921.08 2339.84,-2396.23 2280.29,-2618.48"/>
<polygon fill="black" stroke="black" stroke-width="0.07" points="2276.84,-2617.82 2277.63,-2628.39 2283.6,-2619.63 2276.84,-2617.82"/>
<text text-anchor="middle" x="2465.9" y="-1683.25" font-family="Times,serif" font-size="14.00">syngas&#45;barrel*448</text>
</g>
<!-- &#45;2,8 (syngas from coal dust and also wood) -->
<g id="node5" class="node">
<title>&#45;2,8 (syngas from coal dust and also wood)</title>
<ellipse fill="none" stroke="black" cx="864.19" cy="-206.72" rx="208.76" ry="18"/>
<text text-anchor="middle" x="864.19" y="-203.02" font-family="Times,serif" font-size="14.00">&#45;2,8 (syngas from coal dust and also wood)</text>
</g>
<!-- &#45;2,8 (syngas from coal dust and also wood)&#45;&gt;2,6 (Refined Syngas, Nisi) -->
<g id="edge5" class="edge">
<title>&#45;2,8 (syngas from coal dust and also wood)&#45;&gt;2,6 (Refined Syngas, Nisi)</title>
<path fill="none" stroke="black" stroke-width="3.57" d="M928.24,-189.55C1060.24,-154.18 1361.6,-73.44 1498.5,-36.75"/>
<polygon fill="black" stroke="black" stroke-width="3.57" points="1499.71,-40.05 1508.46,-34.08 1497.9,-33.29 1499.71,-40.05"/>
<text text-anchor="middle" x="1138.37" y="-116.95" font-family="Times,serif" font-size="14.00">syngas&#45;barrel*23578</text>
</g>
<!-- &#45;2,8 (syngas from coal dust and also wood)&#45;&gt;4,0 (item=raw&#45;borax item=borax Borax and raw borax) -->
<g id="edge15" class="edge">
<title>&#45;2,8 (syngas from coal dust and also wood)&#45;&gt;4,0 (item=raw&#45;borax item=borax Borax and raw borax)</title>
<path fill="none" stroke="black" stroke-width="2.01" d="M1073.17,-206.72C1317.48,-206.72 1722.84,-206.72 1993.84,-206.72"/>
<polygon fill="black" stroke="black" stroke-width="2.01" points="1994.23,-210.22 2004.23,-206.72 1994.23,-203.22 1994.23,-210.22"/>
<text text-anchor="middle" x="1458.5" y="-210.52" font-family="Times,serif" font-size="14.00">syngas&#45;barrel*13237</text>
</g>
<!-- &#45;2,8 (syngas from coal dust and also wood)&#45;&gt;&#45;2,7 (item=borax Borax) -->
<g id="edge13" class="edge">
<title>&#45;2,8 (syngas from coal dust and also wood)&#45;&gt;&#45;2,7 (item=borax Borax)</title>
<path fill="none" stroke="black" stroke-width="1.46" d="M859.33,-224.84C810.92,-405.5 415.66,-1880.64 356.1,-2102.9"/>
<polygon fill="black" stroke="black" stroke-width="1.46" points="352.66,-2102.24 353.45,-2112.8 359.42,-2104.05 352.66,-2102.24"/>
<text text-anchor="middle" x="537.22" y="-1167.67" font-family="Times,serif" font-size="14.00">syngas&#45;barrel*9627</text>
</g>
<!-- &#45;2,8 (syngas from coal dust and also wood)&#45;&gt;7,3 (Copper mine) -->
<g id="edge14" class="edge">
<title>&#45;2,8 (syngas from coal dust and also wood)&#45;&gt;7,3 (Copper mine)</title>
<path fill="none" stroke="black" stroke-width="1.26" d="M846.14,-224.76C768.64,-302.26 463.92,-606.98 373.82,-697.08"/>
<polygon fill="black" stroke="black" stroke-width="1.26" points="371.1,-694.85 366.5,-704.4 376.05,-699.8 371.1,-694.85"/>
<text text-anchor="middle" x="539.48" y="-464.72" font-family="Times,serif" font-size="14.00">syngas&#45;barrel*8332</text>
</g>
<!-- &#45;2,8 (syngas from coal dust and also wood)&#45;&gt;2,&#45;2 (Tin Plate, Organic Solvent) -->
<g id="edge24" class="edge">
<title>&#45;2,8 (syngas from coal dust and also wood)&#45;&gt;2,&#45;2 (Tin Plate, Organic Solvent)</title>
<path fill="none" stroke="black" stroke-width="0.33" d="M853.68,-224.91C774.49,-362.07 271.64,-1233.04 175.69,-1399.22"/>
<polygon fill="black" stroke="black" stroke-width="0.33" points="172.42,-1397.89 170.45,-1408.3 178.48,-1401.39 172.42,-1397.89"/>
<text text-anchor="middle" x="444.19" y="-815.87" font-family="Times,serif" font-size="14.00">syngas&#45;barrel*2184</text>
</g>
<!-- &#45;2,8 (syngas from coal dust and also wood)&#45;&gt;&#45;6,&#45;8 (Convenient tin ore , fluid=z3&#45;reagent Help, how do I make Z3?) -->
<g id="edge22" class="edge">
<title>&#45;2,8 (syngas from coal dust and also wood)&#45;&gt;&#45;6,&#45;8 (Convenient tin ore , fluid=z3&#45;reagent Help, how do I make Z3?)</title>
<path fill="none" stroke="black" stroke-width="0.69" d="M869.06,-224.9C927.32,-442.33 1489.55,-2540.59 1561.02,-2807.35"/>
<polygon fill="black" stroke="black" stroke-width="0.69" points="1557.65,-2808.3 1563.62,-2817.06 1564.42,-2806.49 1557.65,-2808.3"/>
<text text-anchor="middle" x="1144.54" y="-1519.93" font-family="Times,serif" font-size="14.00">syngas&#45;barrel*4560</text>
</g>
<!-- &#45;2,8 (syngas from coal dust and also wood)&#45;&gt;&#45;5,&#45;7 (fluid=propene Propene) -->
<g id="edge19" class="edge">
<title>&#45;2,8 (syngas from coal dust and also wood)&#45;&gt;&#45;5,&#45;7 (fluid=propene Propene)</title>
<path fill="none" stroke="black" stroke-width="0.29" d="M874.71,-224.95C995.2,-433.65 2112.03,-2368.05 2257.25,-2619.57"/>
<polygon fill="black" stroke="black" stroke-width="0.29" points="2254.33,-2621.52 2262.36,-2628.43 2260.39,-2618.02 2254.33,-2621.52"/>
<text text-anchor="middle" x="1495.48" y="-1411.06" font-family="Times,serif" font-size="14.00">syngas&#45;barrel*1930</text>
</g>
<!-- 4,10 (Fluid Recycling) -->
<g id="node8" class="node">
<title>4,10 (Fluid Recycling)</title>
<ellipse fill="none" stroke="black" cx="2977.08" cy="-1426.6" rx="112.38" ry="18"/>
<text text-anchor="middle" x="2977.08" y="-1422.9" font-family="Times,serif" font-size="14.00">4,10 (Fluid Recycling)</text>
</g>
<!-- 4,10 (Fluid Recycling)&#45;&gt;2,6 (Refined Syngas, Nisi) -->
<g id="edge18" class="edge">
<title>4,10 (Fluid Recycling)&#45;&gt;2,6 (Refined Syngas, Nisi)</title>
<path fill="none" stroke="black" stroke-width="1.58" d="M2959.27,-1408.79C2810.06,-1259.57 1769.26,-218.78 1593.63,-43.14"/>
<polygon fill="black" stroke="black" stroke-width="1.58" points="1595.92,-40.48 1586.37,-35.89 1590.97,-45.43 1595.92,-40.48"/>
<text text-anchor="middle" x="2201.45" y="-729.77" font-family="Times,serif" font-size="14.00">syngas&#45;barrel*10430</text>
</g>
<!-- 4,10 (Fluid Recycling)&#45;&gt;4,0 (item=raw&#45;borax item=borax Borax and raw borax) -->
<g id="edge11" class="edge">
<title>4,10 (Fluid Recycling)&#45;&gt;4,0 (item=raw&#45;borax item=borax Borax and raw borax)</title>
<path fill="none" stroke="black" stroke-width="0.62" d="M2966.58,-1408.41C2887.39,-1271.25 2384.54,-400.28 2288.59,-234.09"/>
<polygon fill="black" stroke="black" stroke-width="0.62" points="2291.38,-231.92 2283.35,-225.01 2285.32,-235.42 2291.38,-231.92"/>
<text text-anchor="middle" x="2557.09" y="-825.05" font-family="Times,serif" font-size="14.00">syngas&#45;barrel*4122</text>
</g>
<!-- 4,10 (Fluid Recycling)&#45;&gt;4,&#45;2 (Ceramic) -->
<g id="edge30" class="edge">
<title>4,10 (Fluid Recycling)&#45;&gt;4,&#45;2 (Ceramic)</title>
<path fill="none" stroke="black" stroke-width="0.16" d="M2972.23,-1444.72C2946.61,-1540.34 2827.09,-1986.4 2795.85,-2102.97"/>
<polygon fill="black" stroke="black" stroke-width="0.16" points="2792.4,-2102.34 2793.19,-2112.9 2799.16,-2104.15 2792.4,-2102.34"/>
<text text-anchor="middle" x="2813.54" y="-1777.64" font-family="Times,serif" font-size="14.00">syngas&#45;barrel*1056</text>
</g>
<!-- 4,10 (Fluid Recycling)&#45;&gt;&#45;2,7 (item=borax Borax) -->
<g id="edge21" class="edge">
<title>4,10 (Fluid Recycling)&#45;&gt;&#45;2,7 (item=borax Borax)</title>
<path fill="none" stroke="black" stroke-width="0.27" d="M2919.12,-1442.13C2573.96,-1534.62 791.69,-2012.17 417.55,-2112.42"/>
<polygon fill="black" stroke="black" stroke-width="0.27" points="416.43,-2109.1 407.67,-2115.07 418.24,-2115.86 416.43,-2109.1"/>
<text text-anchor="middle" x="1597.84" y="-1781.08" font-family="Times,serif" font-size="14.00">syngas&#45;barrel*1802</text>
</g>
<!-- 4,10 (Fluid Recycling)&#45;&gt;7,3 (Copper mine) -->
<g id="edge8" class="edge">
<title>4,10 (Fluid Recycling)&#45;&gt;7,3 (Copper mine)</title>
<path fill="none" stroke="black" stroke-width="0.61" d="M2919.12,-1411.07C2572.64,-1318.23 778.08,-837.38 413.34,-739.64"/>
<polygon fill="black" stroke="black" stroke-width="0.61" points="414.03,-736.21 403.47,-737 412.22,-742.97 414.03,-736.21"/>
<text text-anchor="middle" x="1595.73" y="-1079.16" font-family="Times,serif" font-size="14.00">syngas&#45;barrel*4000</text>
</g>
<!-- 4,10 (Fluid Recycling)&#45;&gt;2,&#45;2 (Tin Plate, Organic Solvent) -->
<g id="edge28" class="edge">
<title>4,10 (Fluid Recycling)&#45;&gt;2,&#45;2 (Tin Plate, Organic Solvent)</title>
<path fill="none" stroke="black" stroke-width="0.17" d="M2864.47,-1426.6C2428.97,-1426.6 853.42,-1426.6 330.15,-1426.6"/>
<polygon fill="black" stroke="black" stroke-width="0.17" points="329.87,-1423.1 319.87,-1426.6 329.87,-1430.1 329.87,-1423.1"/>
<text text-anchor="middle" x="1667.81" y="-1430.4" font-family="Times,serif" font-size="14.00">syngas&#45;barrel*1104</text>
</g>
<!-- 4,10 (Fluid Recycling)&#45;&gt;&#45;6,&#45;8 (Convenient tin ore , fluid=z3&#45;reagent Help, how do I make Z3?) -->
<g id="edge31" class="edge">
<title>4,10 (Fluid Recycling)&#45;&gt;&#45;6,&#45;8 (Convenient tin ore , fluid=z3&#45;reagent Help, how do I make Z3?)</title>
<path fill="none" stroke="black" stroke-width="0.43" d="M2959.27,-1444.41C2810.22,-1593.47 1771.45,-2632.23 1594.18,-2809.5"/>
<polygon fill="black" stroke="black" stroke-width="0.43" points="1591.45,-2807.28 1586.85,-2816.83 1596.4,-2812.23 1591.45,-2807.28"/>
<text text-anchor="middle" x="2206.23" y="-2130.75" font-family="Times,serif" font-size="14.00">syngas&#45;barrel*2844</text>
</g>
<!-- 4,10 (Fluid Recycling)&#45;&gt;&#45;5,&#45;7 (fluid=propene Propene) -->
<g id="edge27" class="edge">
<title>4,10 (Fluid Recycling)&#45;&gt;&#45;5,&#45;7 (fluid=propene Propene)</title>
<path fill="none" stroke="black" stroke-width="0.13" d="M2966.58,-1444.79C2887.39,-1581.95 2384.54,-2452.92 2288.59,-2619.11"/>
<polygon fill="black" stroke="black" stroke-width="0.13" points="2285.32,-2617.78 2283.35,-2628.19 2291.38,-2621.28 2285.32,-2617.78"/>
<text text-anchor="middle" x="2561.59" y="-2035.75" font-family="Times,serif" font-size="14.00">syngas&#45;barrel*864</text>
</g>
</g>
</svg>
