<?xml version="1.0" encoding="UTF-8" standalone="no"?>
<!DOCTYPE svg PUBLIC "-//W3C//DTD SVG 1.1//EN"
 "http://www.w3.org/Graphics/SVG/1.1/DTD/svg11.dtd">
<!-- Generated by graphviz version 2.43.0 (0)
 -->
<!-- Title: %3 Pages: 1 -->
<svg width="3818pt" height="2829pt"
 viewBox="0.00 0.00 3818.43 2828.93" xmlns="http://www.w3.org/2000/svg" xmlns:xlink="http://www.w3.org/1999/xlink">
<g id="graph0" class="graph" transform="scale(1 1) rotate(0) translate(4 2824.93)">
<title>%3</title>
<polygon fill="white" stroke="transparent" points="-4,4 -4,-2824.93 3814.43,-2824.93 3814.43,4 -4,4"/>
<!-- 3,1 (Mining Brick) -->
<g id="node1" class="node">
<title>3,1 (Mining Brick)</title>
<ellipse fill="none" stroke="black" cx="3200.18" cy="-1410.46" rx="94.78" ry="18"/>
<text text-anchor="middle" x="3200.18" y="-1406.76" font-family="Times,serif" font-size="14.00">3,1 (Mining Brick)</text>
</g>
<!-- 0,7 (Coal Gas) -->
<g id="node2" class="node">
<title>0,7 (Coal Gas)</title>
<ellipse fill="none" stroke="black" cx="2031.76" cy="-2802.93" rx="76.09" ry="18"/>
<text text-anchor="middle" x="2031.76" y="-2799.23" font-family="Times,serif" font-size="14.00">0,7 (Coal Gas)</text>
</g>
<!-- 3,1 (Mining Brick)&#45;&gt;0,7 (Coal Gas) -->
<g id="edge1" class="edge">
<title>3,1 (Mining Brick)&#45;&gt;0,7 (Coal Gas)</title>
<path fill="none" stroke="black" stroke-width="6.59" d="M3185.19,-1428.32C3060.76,-1576.61 2199.85,-2602.61 2053.03,-2777.58"/>
<polygon fill="black" stroke="black" stroke-width="6.59" points="2048.59,-2773.89 2046.58,-2785.26 2057.43,-2781.31 2048.59,-2773.89"/>
<text text-anchor="middle" x="2554.11" y="-2106.75" font-family="Times,serif" font-size="14.00">tar&#45;barrel*257625</text>
</g>
<!-- 0,0 (LE BUS) -->
<g id="node4" class="node">
<title>0,0 (LE BUS)</title>
<ellipse fill="none" stroke="black" cx="2869.38" cy="-501.6" rx="71.49" ry="18"/>
<text text-anchor="middle" x="2869.38" y="-497.9" font-family="Times,serif" font-size="14.00">0,0 (LE BUS)</text>
</g>
<!-- 3,1 (Mining Brick)&#45;&gt;0,0 (LE BUS) -->
<g id="edge7" class="edge">
<title>3,1 (Mining Brick)&#45;&gt;0,0 (LE BUS)</title>
<path fill="none" stroke="black" stroke-width="3.55" d="M3193.57,-1392.31C3152.26,-1278.81 2929.64,-667.19 2879.44,-529.25"/>
<polygon fill="black" stroke="black" stroke-width="3.55" points="2882.71,-528 2876,-519.8 2876.13,-530.39 2882.71,-528"/>
<text text-anchor="middle" x="2971.5" y="-964.58" font-family="Times,serif" font-size="14.00">tar&#45;barrel*138629</text>
</g>
<!-- &#45;3,2 (Lead and Solder) -->
<g id="node7" class="node">
<title>&#45;3,2 (Lead and Solder)</title>
<ellipse fill="none" stroke="black" cx="457.56" cy="-1894.06" rx="113.98" ry="18"/>
<text text-anchor="middle" x="457.56" y="-1890.36" font-family="Times,serif" font-size="14.00">&#45;3,2 (Lead and Solder)</text>
</g>
<!-- 3,1 (Mining Brick)&#45;&gt;&#45;3,2 (Lead and Solder) -->
<g id="edge4" class="edge">
<title>3,1 (Mining Brick)&#45;&gt;&#45;3,2 (Lead and Solder)</title>
<path fill="none" stroke="black" stroke-width="0.25" d="M3130.66,-1422.72C2754.02,-1489.13 959.44,-1805.57 543.69,-1878.87"/>
<polygon fill="black" stroke="black" stroke-width="0.25" points="543.08,-1875.43 533.84,-1880.61 544.29,-1882.32 543.08,-1875.43"/>
<text text-anchor="middle" x="1781.18" y="-1654.6" font-family="Times,serif" font-size="14.00">tar&#45;barrel*9952</text>
</g>
<!-- 3,13 (Rubber) -->
<g id="node8" class="node">
<title>3,13 (Rubber)</title>
<ellipse fill="none" stroke="black" cx="2869.38" cy="-2319.33" rx="75.29" ry="18"/>
<text text-anchor="middle" x="2869.38" y="-2315.63" font-family="Times,serif" font-size="14.00">3,13 (Rubber)</text>
</g>
<!-- 3,1 (Mining Brick)&#45;&gt;3,13 (Rubber) -->
<g id="edge6" class="edge">
<title>3,1 (Mining Brick)&#45;&gt;3,13 (Rubber)</title>
<path fill="none" stroke="black" stroke-width="3.32" d="M3193.57,-1428.62C3152.26,-1542.11 2929.64,-2153.74 2879.44,-2291.68"/>
<polygon fill="black" stroke="black" stroke-width="3.32" points="2876.13,-2290.54 2876,-2301.13 2882.71,-2292.93 2876.13,-2290.54"/>
<text text-anchor="middle" x="2971.5" y="-1863.95" font-family="Times,serif" font-size="14.00">tar&#45;barrel*129748</text>
</g>
<!-- 1,&#45;1 (fluid=molten&#45;glass Glass, When space, make quartz separate with regular priority, Quartz) -->
<g id="node10" class="node">
<title>1,&#45;1 (fluid=molten&#45;glass Glass, When space, make quartz separate with regular priority, Quartz)</title>
<ellipse fill="none" stroke="black" cx="457.56" cy="-926.87" rx="457.62" ry="18"/>
<text text-anchor="middle" x="457.56" y="-923.17" font-family="Times,serif" font-size="14.00">1,&#45;1 (fluid=molten&#45;glass Glass, When space, make quartz separate with regular priority, Quartz)</text>
</g>
<!-- 3,1 (Mining Brick)&#45;&gt;1,&#45;1 (fluid=molten&#45;glass Glass, When space, make quartz separate with regular priority, Quartz) -->
<g id="edge14" class="edge">
<title>3,1 (Mining Brick)&#45;&gt;1,&#45;1 (fluid=molten&#45;glass Glass, When space, make quartz separate with regular priority, Quartz)</title>
<path fill="none" stroke="black" stroke-width="0.23" d="M3130.66,-1398.21C2760.77,-1332.98 1023.34,-1026.63 567.37,-946.23"/>
<polygon fill="black" stroke="black" stroke-width="0.23" points="567.94,-942.78 557.49,-944.49 566.73,-949.67 567.94,-942.78"/>
<text text-anchor="middle" x="1793.02" y="-1176.02" font-family="Times,serif" font-size="14.00">tar&#45;barrel*9152</text>
</g>
<!-- 4,&#45;1 (Fluid) -->
<g id="node11" class="node">
<title>4,&#45;1 (Fluid)</title>
<ellipse fill="none" stroke="black" cx="2031.76" cy="-18" rx="61.99" ry="18"/>
<text text-anchor="middle" x="2031.76" y="-14.3" font-family="Times,serif" font-size="14.00">4,&#45;1 (Fluid)</text>
</g>
<!-- 3,1 (Mining Brick)&#45;&gt;4,&#45;1 (Fluid) -->
<g id="edge15" class="edge">
<title>3,1 (Mining Brick)&#45;&gt;4,&#45;1 (Fluid)</title>
<path fill="none" stroke="black" stroke-width="1.74" d="M3185.19,-1392.6C3060.76,-1244.31 2199.85,-218.32 2053.03,-43.35"/>
<polygon fill="black" stroke="black" stroke-width="1.74" points="2055.69,-41.08 2046.58,-35.66 2050.33,-45.58 2055.69,-41.08"/>
<text text-anchor="middle" x="2558.61" y="-721.77" font-family="Times,serif" font-size="14.00">tar&#45;barrel*68120</text>
</g>
<!-- 3,6 (Phosphoric Acid and Phosphine gas) -->
<g id="node12" class="node">
<title>3,6 (Phosphoric Acid and Phosphine gas)</title>
<ellipse fill="none" stroke="black" cx="3472.36" cy="-1410.46" rx="200.36" ry="18"/>
<text text-anchor="middle" x="3472.36" y="-1406.76" font-family="Times,serif" font-size="14.00">3,6 (Phosphoric Acid and Phosphine gas)</text>
</g>
<!-- 3,1 (Mining Brick)&#45;&gt;3,6 (Phosphoric Acid and Phosphine gas) -->
<g id="edge16" class="edge">
<title>3,1 (Mining Brick)&#45;&gt;3,6 (Phosphoric Acid and Phosphine gas)</title>
<path fill="none" stroke="black" stroke-width="0.04" d="M3295.37,-1410.46C3295.45,-1410.46 3295.52,-1410.46 3295.6,-1410.46"/>
<polygon fill="black" stroke="black" stroke-width="0.04" points="3285.83,-1413.97 3295.83,-1410.46 3285.83,-1406.97 3285.83,-1413.97"/>
<text text-anchor="middle" x="3351.49" y="-1414.26" font-family="Times,serif" font-size="14.00">tar&#45;barrel*1752</text>
</g>
<!-- 8,2 (Tar) -->
<g id="node3" class="node">
<title>8,2 (Tar)</title>
<ellipse fill="none" stroke="black" cx="1079.26" cy="-2634.97" rx="50.09" ry="18"/>
<text text-anchor="middle" x="1079.26" y="-2631.27" font-family="Times,serif" font-size="14.00">8,2 (Tar)</text>
</g>
<!-- 8,2 (Tar)&#45;&gt;0,7 (Coal Gas) -->
<g id="edge5" class="edge">
<title>8,2 (Tar)&#45;&gt;0,7 (Coal Gas)</title>
<path fill="none" stroke="black" stroke-width="1.28" d="M1124.24,-2642.91C1276.68,-2669.78 1774.58,-2757.58 1960.71,-2790.4"/>
<polygon fill="black" stroke="black" stroke-width="1.28" points="1960.2,-2793.86 1970.66,-2792.15 1961.42,-2786.97 1960.2,-2793.86"/>
<text text-anchor="middle" x="1481.97" y="-2720.45" font-family="Times,serif" font-size="14.00">tar&#45;barrel*49991</text>
</g>
<!-- 8,2 (Tar)&#45;&gt;0,0 (LE BUS) -->
<g id="edge2" class="edge">
<title>8,2 (Tar)&#45;&gt;0,0 (LE BUS)</title>
<path fill="none" stroke="black" stroke-width="0.63" d="M1093.93,-2617.49C1253.1,-2427.8 2657.3,-754.33 2847.98,-527.1"/>
<polygon fill="black" stroke="black" stroke-width="0.63" points="2850.74,-529.25 2854.48,-519.34 2845.37,-524.76 2850.74,-529.25"/>
<text text-anchor="middle" x="1910.45" y="-1576.09" font-family="Times,serif" font-size="14.00">tar&#45;barrel*24804</text>
</g>
<!-- 8,2 (Tar)&#45;&gt;&#45;3,2 (Lead and Solder) -->
<g id="edge11" class="edge">
<title>8,2 (Tar)&#45;&gt;&#45;3,2 (Lead and Solder)</title>
<path fill="none" stroke="black" stroke-width="0.08" d="M1064.51,-2617.39C981.99,-2519.05 577.9,-2037.48 479.29,-1919.96"/>
<polygon fill="black" stroke="black" stroke-width="0.08" points="481.84,-1917.55 472.73,-1912.14 476.48,-1922.05 481.84,-1917.55"/>
<text text-anchor="middle" x="715.9" y="-2272.48" font-family="Times,serif" font-size="14.00">tar&#45;barrel*3232</text>
</g>
<!-- 8,2 (Tar)&#45;&gt;3,13 (Rubber) -->
<g id="edge8" class="edge">
<title>8,2 (Tar)&#45;&gt;3,13 (Rubber)</title>
<path fill="none" stroke="black" stroke-width="0.5" d="M1124.41,-2627.01C1365.55,-2584.49 2501.86,-2384.13 2798.43,-2331.84"/>
<polygon fill="black" stroke="black" stroke-width="0.5" points="2799.38,-2335.22 2808.63,-2330.04 2798.17,-2328.33 2799.38,-2335.22"/>
<text text-anchor="middle" x="1900.92" y="-2483.23" font-family="Times,serif" font-size="14.00">tar&#45;barrel*19618</text>
</g>
<!-- 8,2 (Tar)&#45;&gt;4,&#45;1 (Fluid) -->
<g id="edge19" class="edge">
<title>8,2 (Tar)&#45;&gt;4,&#45;1 (Fluid)</title>
<path fill="none" stroke="black" stroke-width="0.2" d="M1085.85,-2616.86C1164.64,-2400.4 1925,-311.31 2021.67,-45.72"/>
<polygon fill="black" stroke="black" stroke-width="0.2" points="2025.05,-46.66 2025.19,-36.06 2018.48,-44.26 2025.05,-46.66"/>
<text text-anchor="middle" x="1497.76" y="-1335.09" font-family="Times,serif" font-size="14.00">tar&#45;barrel*7918</text>
</g>
<!-- &#45;5,5 (fluid=flue&#45;gas Flue gas) -->
<g id="node5" class="node">
<title>&#45;5,5 (fluid=flue&#45;gas Flue gas)</title>
<ellipse fill="none" stroke="black" cx="3133.98" cy="-2757.46" rx="145.67" ry="18"/>
<text text-anchor="middle" x="3133.98" y="-2753.76" font-family="Times,serif" font-size="14.00">&#45;5,5 (fluid=flue&#45;gas Flue gas)</text>
</g>
<!-- 0,6 (Flue Gas Disposal, Syngas From Flue Gas) -->
<g id="node6" class="node">
<title>0,6 (Flue Gas Disposal, Syngas From Flue Gas)</title>
<ellipse fill="none" stroke="black" cx="3581" cy="-2757.46" rx="229.36" ry="18"/>
<text text-anchor="middle" x="3581" y="-2753.76" font-family="Times,serif" font-size="14.00">0,6 (Flue Gas Disposal, Syngas From Flue Gas)</text>
</g>
<!-- &#45;5,5 (fluid=flue&#45;gas Flue gas)&#45;&gt;0,6 (Flue Gas Disposal, Syngas From Flue Gas) -->
<g id="edge3" class="edge">
<title>&#45;5,5 (fluid=flue&#45;gas Flue gas)&#45;&gt;0,6 (Flue Gas Disposal, Syngas From Flue Gas)</title>
<path fill="none" stroke="black" stroke-width="0.03" d="M3279.74,-2757.46C3299.64,-2757.46 3320.49,-2757.46 3341.52,-2757.46"/>
<polygon fill="black" stroke="black" stroke-width="0.03" points="3341.53,-2760.96 3351.53,-2757.46 3341.53,-2753.96 3341.53,-2760.96"/>
<text text-anchor="middle" x="3310.63" y="-2746.26" font-family="Times,serif" font-size="14.00">tar&#45;barrel*1000</text>
</g>
<!-- 0,8 (Tar from Coke) -->
<g id="node9" class="node">
<title>0,8 (Tar from Coke)</title>
<ellipse fill="none" stroke="black" cx="1079.26" cy="-185.95" rx="100.98" ry="18"/>
<text text-anchor="middle" x="1079.26" y="-182.25" font-family="Times,serif" font-size="14.00">0,8 (Tar from Coke)</text>
</g>
<!-- 0,8 (Tar from Coke)&#45;&gt;0,7 (Coal Gas) -->
<g id="edge10" class="edge">
<title>0,8 (Tar from Coke)&#45;&gt;0,7 (Coal Gas)</title>
<path fill="none" stroke="black" stroke-width="0.31" d="M1085.85,-204.06C1164.64,-420.53 1925,-2509.61 2021.67,-2775.2"/>
<polygon fill="black" stroke="black" stroke-width="0.31" points="2018.48,-2776.66 2025.19,-2784.86 2025.05,-2774.27 2018.48,-2776.66"/>
<text text-anchor="middle" x="1493.26" y="-1493.43" font-family="Times,serif" font-size="14.00">tar&#45;barrel*12272</text>
</g>
<!-- 0,8 (Tar from Coke)&#45;&gt;0,0 (LE BUS) -->
<g id="edge12" class="edge">
<title>0,8 (Tar from Coke)&#45;&gt;0,0 (LE BUS)</title>
<path fill="none" stroke="black" stroke-width="0.02" d="M1151.09,-198.62C1440.19,-249.59 2516.65,-439.4 2800.43,-489.44"/>
<polygon fill="black" stroke="black" stroke-width="0.02" points="2800.13,-492.94 2810.59,-491.23 2801.35,-486.05 2800.13,-492.94"/>
<text text-anchor="middle" x="1924.26" y="-347.83" font-family="Times,serif" font-size="14.00">tar&#45;barrel*864</text>
</g>
<!-- 0,8 (Tar from Coke)&#45;&gt;&#45;3,2 (Lead and Solder) -->
<g id="edge17" class="edge">
<title>0,8 (Tar from Coke)&#45;&gt;&#45;3,2 (Lead and Solder)</title>
<path fill="none" stroke="black" stroke-width="0.01" d="M1072.7,-203.98C1011.57,-371.93 542.25,-1661.38 467.56,-1866.58"/>
<polygon fill="black" stroke="black" stroke-width="0.01" points="464.25,-1865.44 464.12,-1876.03 470.83,-1867.83 464.25,-1865.44"/>
<text text-anchor="middle" x="718.63" y="-1039.08" font-family="Times,serif" font-size="14.00">tar&#45;barrel*576</text>
</g>
<!-- 0,8 (Tar from Coke)&#45;&gt;3,13 (Rubber) -->
<g id="edge13" class="edge">
<title>0,8 (Tar from Coke)&#45;&gt;3,13 (Rubber)</title>
<path fill="none" stroke="black" stroke-width="0.12" d="M1094.2,-203.75C1254.66,-394.98 2657.52,-2066.84 2848,-2293.85"/>
<polygon fill="black" stroke="black" stroke-width="0.12" points="2845.39,-2296.19 2854.5,-2301.6 2850.75,-2291.69 2845.39,-2296.19"/>
<text text-anchor="middle" x="1915.1" y="-1252.6" font-family="Times,serif" font-size="14.00">tar&#45;barrel*4640</text>
</g>
<!-- 0,8 (Tar from Coke)&#45;&gt;1,&#45;1 (fluid=molten&#45;glass Glass, When space, make quartz separate with regular priority, Quartz) -->
<g id="edge9" class="edge">
<title>0,8 (Tar from Coke)&#45;&gt;1,&#45;1 (fluid=molten&#45;glass Glass, When space, make quartz separate with regular priority, Quartz)</title>
<path fill="none" stroke="black" stroke-width="0.02" d="M1064.2,-203.9C980.99,-303.07 577.66,-783.74 479.25,-901.02"/>
<polygon fill="black" stroke="black" stroke-width="0.02" points="476.45,-898.91 472.7,-908.82 481.81,-903.41 476.45,-898.91"/>
<text text-anchor="middle" x="720.22" y="-556.26" font-family="Times,serif" font-size="14.00">tar&#45;barrel*816</text>
</g>
<!-- 0,8 (Tar from Coke)&#45;&gt;4,&#45;1 (Fluid) -->
<g id="edge18" class="edge">
<title>0,8 (Tar from Coke)&#45;&gt;4,&#45;1 (Fluid)</title>
<path fill="none" stroke="black" stroke-width="0.04" d="M1151.24,-173.26C1331.22,-141.52 1798.48,-59.13 1968.62,-29.13"/>
<polygon fill="black" stroke="black" stroke-width="0.04" points="1969.43,-32.54 1978.67,-27.36 1968.21,-25.65 1969.43,-32.54"/>
<text text-anchor="middle" x="1503.93" y="-105" font-family="Times,serif" font-size="14.00">tar&#45;barrel*1632</text>
</g>
</g>
</svg>
