<?xml version="1.0" encoding="UTF-8" standalone="no"?>
<!DOCTYPE svg PUBLIC "-//W3C//DTD SVG 1.1//EN"
 "http://www.w3.org/Graphics/SVG/1.1/DTD/svg11.dtd">
<!-- Generated by graphviz version 2.43.0 (0)
 -->
<!-- Title: %3 Pages: 1 -->
<svg width="828pt" height="590pt"
 viewBox="0.00 0.00 828.11 589.56" xmlns="http://www.w3.org/2000/svg" xmlns:xlink="http://www.w3.org/1999/xlink">
<g id="graph0" class="graph" transform="scale(1 1) rotate(0) translate(4 585.56)">
<title>%3</title>
<polygon fill="white" stroke="transparent" points="-4,4 -4,-585.56 824.11,-585.56 824.11,4 -4,4"/>
<!-- &#45;2,9 (molten steel) -->
<g id="node1" class="node">
<title>&#45;2,9 (molten steel)</title>
<ellipse fill="none" stroke="black" cx="330.2" cy="-275.68" rx="95.58" ry="18"/>
<text text-anchor="middle" x="330.2" y="-271.98" font-family="Times,serif" font-size="14.00">&#45;2,9 (molten steel)</text>
</g>
<!-- &#45;1,11 (Steel Plate (from molten)) -->
<g id="node2" class="node">
<title>&#45;1,11 (Steel Plate (from molten))</title>
<ellipse fill="none" stroke="black" cx="658.93" cy="-275.68" rx="161.37" ry="18"/>
<text text-anchor="middle" x="658.93" y="-271.98" font-family="Times,serif" font-size="14.00">&#45;1,11 (Steel Plate (from molten))</text>
</g>
<!-- &#45;2,9 (molten steel)&#45;&gt;&#45;1,11 (Steel Plate (from molten)) -->
<g id="edge1" class="edge">
<title>&#45;2,9 (molten steel)&#45;&gt;&#45;1,11 (Steel Plate (from molten))</title>
<path fill="none" stroke="black" stroke-width="1.49" d="M426.17,-275.68C445.55,-275.68 466.48,-275.68 487.57,-275.68"/>
<polygon fill="black" stroke="black" stroke-width="1.49" points="487.59,-279.18 497.59,-275.68 487.59,-272.18 487.59,-279.18"/>
<text text-anchor="middle" x="456.87" y="-264.48" font-family="Times,serif" font-size="14.00">molten&#45;steel&#45;barrel*14950</text>
</g>
<!-- 0,0 (LE BUS) -->
<g id="node3" class="node">
<title>0,0 (LE BUS)</title>
<ellipse fill="none" stroke="black" cx="171.5" cy="-563.56" rx="71.49" ry="18"/>
<text text-anchor="middle" x="171.5" y="-559.86" font-family="Times,serif" font-size="14.00">0,0 (LE BUS)</text>
</g>
<!-- &#45;2,9 (molten steel)&#45;&gt;0,0 (LE BUS) -->
<g id="edge2" class="edge">
<title>&#45;2,9 (molten steel)&#45;&gt;0,0 (LE BUS)</title>
<path fill="none" stroke="black" stroke-width="1.45" d="M320.27,-293.69C293.27,-342.66 218.4,-478.48 186.36,-536.6"/>
<polygon fill="black" stroke="black" stroke-width="1.45" points="183.18,-535.11 181.42,-545.56 189.31,-538.49 183.18,-535.11"/>
<text text-anchor="middle" x="158.82" y="-418.95" font-family="Times,serif" font-size="14.00">molten&#45;steel&#45;barrel*14552</text>
</g>
<!-- 6,3 (Things from molten) -->
<g id="node4" class="node">
<title>6,3 (Things from molten)</title>
<ellipse fill="none" stroke="black" cx="126.09" cy="-18" rx="126.18" ry="18"/>
<text text-anchor="middle" x="126.09" y="-14.3" font-family="Times,serif" font-size="14.00">6,3 (Things from molten)</text>
</g>
<!-- &#45;2,9 (molten steel)&#45;&gt;6,3 (Things from molten) -->
<g id="edge3" class="edge">
<title>&#45;2,9 (molten steel)&#45;&gt;6,3 (Things from molten)</title>
<path fill="none" stroke="black" stroke-width="0.06" d="M315.85,-257.56C280.35,-212.74 188.31,-96.55 146.86,-44.22"/>
<polygon fill="black" stroke="black" stroke-width="0.06" points="149.38,-41.77 140.43,-36.1 143.89,-46.11 149.38,-41.77"/>
<text text-anchor="middle" x="145.85" y="-154.69" font-family="Times,serif" font-size="14.00">molten&#45;steel&#45;barrel*560</text>
</g>
</g>
</svg>
