<?xml version="1.0" encoding="UTF-8" standalone="no"?>
<!DOCTYPE svg PUBLIC "-//W3C//DTD SVG 1.1//EN"
 "http://www.w3.org/Graphics/SVG/1.1/DTD/svg11.dtd">
<!-- Generated by graphviz version 2.43.0 (0)
 -->
<!-- Title: %3 Pages: 1 -->
<svg width="1682pt" height="1474pt"
 viewBox="0.00 0.00 1681.87 1473.99" xmlns="http://www.w3.org/2000/svg" xmlns:xlink="http://www.w3.org/1999/xlink">
<g id="graph0" class="graph" transform="scale(1 1) rotate(0) translate(4 1469.99)">
<title>%3</title>
<polygon fill="white" stroke="transparent" points="-4,4 -4,-1469.99 1677.87,-1469.99 1677.87,4 -4,4"/>
<!-- 0,0 (LE BUS) -->
<g id="node1" class="node">
<title>0,0 (LE BUS)</title>
<ellipse fill="none" stroke="black" cx="218.97" cy="-1174.89" rx="71.49" ry="18"/>
<text text-anchor="middle" x="218.97" y="-1171.19" font-family="Times,serif" font-size="14.00">0,0 (LE BUS)</text>
</g>
<!-- &#45;3,2 (Lead and Solder) -->
<g id="node2" class="node">
<title>&#45;3,2 (Lead and Solder)</title>
<ellipse fill="none" stroke="black" cx="1435.4" cy="-291.1" rx="113.98" ry="18"/>
<text text-anchor="middle" x="1435.4" y="-287.4" font-family="Times,serif" font-size="14.00">&#45;3,2 (Lead and Solder)</text>
</g>
<!-- 0,0 (LE BUS)&#45;&gt;&#45;3,2 (Lead and Solder) -->
<g id="edge1" class="edge">
<title>0,0 (LE BUS)&#45;&gt;&#45;3,2 (Lead and Solder)</title>
<path fill="none" stroke="black" stroke-width="0.62" d="M242.46,-1157.83C393.46,-1048.11 1227.12,-442.43 1402.87,-314.74"/>
<polygon fill="black" stroke="black" stroke-width="0.62" points="1404.93,-317.56 1410.96,-308.86 1400.82,-311.9 1404.93,-317.56"/>
<text text-anchor="middle" x="762.16" y="-740.08" font-family="Times,serif" font-size="14.00">tar&#45;barrel*15276</text>
</g>
<!-- 3,13 (Rubber) -->
<g id="node4" class="node">
<title>3,13 (Rubber)</title>
<ellipse fill="none" stroke="black" cx="75.39" cy="-733" rx="75.29" ry="18"/>
<text text-anchor="middle" x="75.39" y="-729.3" font-family="Times,serif" font-size="14.00">3,13 (Rubber)</text>
</g>
<!-- 0,0 (LE BUS)&#45;&gt;3,13 (Rubber) -->
<g id="edge3" class="edge">
<title>0,0 (LE BUS)&#45;&gt;3,13 (Rubber)</title>
<path fill="none" stroke="black" stroke-width="2.97" d="M213.08,-1156.74C190.76,-1088.06 111.37,-843.73 84.42,-760.78"/>
<polygon fill="black" stroke="black" stroke-width="2.97" points="87.68,-759.48 81.26,-751.05 81.02,-761.64 87.68,-759.48"/>
<text text-anchor="middle" x="88.25" y="-962.56" font-family="Times,serif" font-size="14.00">tar&#45;barrel*73658</text>
</g>
<!-- 3,6 (Phosphoric Acid and Phosphine gas) -->
<g id="node6" class="node">
<title>3,6 (Phosphoric Acid and Phosphine gas)</title>
<ellipse fill="none" stroke="black" cx="594.87" cy="-18" rx="200.36" ry="18"/>
<text text-anchor="middle" x="594.87" y="-14.3" font-family="Times,serif" font-size="14.00">3,6 (Phosphoric Acid and Phosphine gas)</text>
</g>
<!-- 0,0 (LE BUS)&#45;&gt;3,6 (Phosphoric Acid and Phosphine gas) -->
<g id="edge5" class="edge">
<title>0,0 (LE BUS)&#45;&gt;3,6 (Phosphoric Acid and Phosphine gas)</title>
<path fill="none" stroke="black" stroke-width="0.17" d="M224.88,-1156.72C267.92,-1024.23 533.27,-207.58 585.83,-45.82"/>
<polygon fill="black" stroke="black" stroke-width="0.17" points="589.22,-46.72 588.98,-36.13 582.56,-44.56 589.22,-46.72"/>
<text text-anchor="middle" x="349.35" y="-605.07" font-family="Times,serif" font-size="14.00">tar&#45;barrel*4330</text>
</g>
<!-- 0,7 (Coal Gas) -->
<g id="node7" class="node">
<title>0,7 (Coal Gas)</title>
<ellipse fill="none" stroke="black" cx="594.87" cy="-1447.99" rx="76.09" ry="18"/>
<text text-anchor="middle" x="594.87" y="-1444.29" font-family="Times,serif" font-size="14.00">0,7 (Coal Gas)</text>
</g>
<!-- 0,0 (LE BUS)&#45;&gt;0,7 (Coal Gas) -->
<g id="edge8" class="edge">
<title>0,0 (LE BUS)&#45;&gt;0,7 (Coal Gas)</title>
<path fill="none" stroke="black" stroke-width="2.9" d="M242.49,-1191.97C307.2,-1238.99 488.05,-1370.38 562.36,-1424.37"/>
<polygon fill="black" stroke="black" stroke-width="2.9" points="560.73,-1427.52 570.88,-1430.56 564.85,-1421.85 560.73,-1427.52"/>
<text text-anchor="middle" x="341.92" y="-1311.97" font-family="Times,serif" font-size="14.00">tar&#45;barrel*72081</text>
</g>
<!-- 4,&#45;1 (Fluid) -->
<g id="node8" class="node">
<title>4,&#45;1 (Fluid)</title>
<ellipse fill="none" stroke="black" cx="1435.4" cy="-1174.89" rx="61.99" ry="18"/>
<text text-anchor="middle" x="1435.4" y="-1171.19" font-family="Times,serif" font-size="14.00">4,&#45;1 (Fluid)</text>
</g>
<!-- 0,0 (LE BUS)&#45;&gt;4,&#45;1 (Fluid) -->
<g id="edge7" class="edge">
<title>0,0 (LE BUS)&#45;&gt;4,&#45;1 (Fluid)</title>
<path fill="none" stroke="black" stroke-width="2.77" d="M290.52,-1174.89C505.98,-1174.89 1147.08,-1174.89 1363.28,-1174.89"/>
<polygon fill="black" stroke="black" stroke-width="2.77" points="1363.56,-1178.39 1373.56,-1174.89 1363.56,-1171.39 1363.56,-1178.39"/>
<text text-anchor="middle" x="766.4" y="-1178.69" font-family="Times,serif" font-size="14.00">tar&#45;barrel*68751</text>
</g>
<!-- 8,2 (Tar) -->
<g id="node3" class="node">
<title>8,2 (Tar)</title>
<ellipse fill="none" stroke="black" cx="1059.5" cy="-18" rx="50.09" ry="18"/>
<text text-anchor="middle" x="1059.5" y="-14.3" font-family="Times,serif" font-size="14.00">8,2 (Tar)</text>
</g>
<!-- 8,2 (Tar)&#45;&gt;0,0 (LE BUS) -->
<g id="edge2" class="edge">
<title>8,2 (Tar)&#45;&gt;0,0 (LE BUS)</title>
<path fill="none" stroke="black" stroke-width="9.83" d="M1046.63,-35.71C951.06,-167.26 352.15,-991.58 237.82,-1148.95"/>
<polygon fill="black" stroke="black" stroke-width="9.83" points="230.78,-1144 231.86,-1157.15 244.7,-1154.11 230.78,-1144"/>
<text text-anchor="middle" x="577.23" y="-596.13" font-family="Times,serif" font-size="14.00">tar&#45;barrel*244029</text>
</g>
<!-- 8,2 (Tar)&#45;&gt;&#45;3,2 (Lead and Solder) -->
<g id="edge10" class="edge">
<title>8,2 (Tar)&#45;&gt;&#45;3,2 (Lead and Solder)</title>
<path fill="none" stroke="black" stroke-width="0.06" d="M1081.89,-34.27C1145.5,-80.48 1327.56,-212.76 1402.53,-267.22"/>
<polygon fill="black" stroke="black" stroke-width="0.06" points="1400.56,-270.12 1410.71,-273.17 1404.67,-264.46 1400.56,-270.12"/>
<text text-anchor="middle" x="1186.21" y="-154.54" font-family="Times,serif" font-size="14.00">tar&#45;barrel*1568</text>
</g>
<!-- 8,2 (Tar)&#45;&gt;3,13 (Rubber) -->
<g id="edge11" class="edge">
<title>8,2 (Tar)&#45;&gt;3,13 (Rubber)</title>
<path fill="none" stroke="black" stroke-width="0.22" d="M1037.1,-34.28C908.06,-128.03 260.11,-598.79 107.58,-709.61"/>
<polygon fill="black" stroke="black" stroke-width="0.22" points="105.1,-707.09 99.07,-715.8 109.21,-712.75 105.1,-707.09"/>
<text text-anchor="middle" x="516.34" y="-375.74" font-family="Times,serif" font-size="14.00">tar&#45;barrel*5384</text>
</g>
<!-- 8,2 (Tar)&#45;&gt;3,6 (Phosphoric Acid and Phosphine gas) -->
<g id="edge23" class="edge">
<title>8,2 (Tar)&#45;&gt;3,6 (Phosphoric Acid and Phosphine gas)</title>
<path fill="none" stroke="black" stroke-width="0.01" d="M1009.34,-18C959.93,-18 881.07,-18 805.33,-18"/>
<polygon fill="black" stroke="black" stroke-width="0.01" points="805.15,-14.5 795.15,-18 805.15,-21.5 805.15,-14.5"/>
<text text-anchor="middle" x="855.83" y="-21.8" font-family="Times,serif" font-size="14.00">tar&#45;barrel*272</text>
</g>
<!-- 8,2 (Tar)&#45;&gt;0,7 (Coal Gas) -->
<g id="edge6" class="edge">
<title>8,2 (Tar)&#45;&gt;0,7 (Coal Gas)</title>
<path fill="none" stroke="black" stroke-width="0.69" d="M1053.63,-36.08C1004.6,-186.96 663.81,-1235.8 603.86,-1420.31"/>
<polygon fill="black" stroke="black" stroke-width="0.69" points="600.53,-1419.24 600.77,-1429.83 607.19,-1421.4 600.53,-1419.24"/>
<text text-anchor="middle" x="768.25" y="-716.99" font-family="Times,serif" font-size="14.00">tar&#45;barrel*17247</text>
</g>
<!-- 8,2 (Tar)&#45;&gt;4,&#45;1 (Fluid) -->
<g id="edge20" class="edge">
<title>8,2 (Tar)&#45;&gt;4,&#45;1 (Fluid)</title>
<path fill="none" stroke="black" stroke-width="0.35" d="M1065.41,-36.17C1108.45,-168.66 1373.8,-985.31 1426.36,-1147.06"/>
<polygon fill="black" stroke="black" stroke-width="0.35" points="1423.09,-1148.33 1429.51,-1156.76 1429.74,-1146.16 1423.09,-1148.33"/>
<text text-anchor="middle" x="1189.88" y="-595.42" font-family="Times,serif" font-size="14.00">tar&#45;barrel*8712</text>
</g>
<!-- 0,8 (Tar from Coke) -->
<g id="node5" class="node">
<title>0,8 (Tar from Coke)</title>
<ellipse fill="none" stroke="black" cx="1059.5" cy="-1447.99" rx="100.98" ry="18"/>
<text text-anchor="middle" x="1059.5" y="-1444.29" font-family="Times,serif" font-size="14.00">0,8 (Tar from Coke)</text>
</g>
<!-- 0,8 (Tar from Coke)&#45;&gt;0,0 (LE BUS) -->
<g id="edge4" class="edge">
<title>0,8 (Tar from Coke)&#45;&gt;0,0 (LE BUS)</title>
<path fill="none" stroke="black" stroke-width="0.36" d="M1010.68,-1432.13C863.6,-1384.34 425.5,-1241.99 272.46,-1192.27"/>
<polygon fill="black" stroke="black" stroke-width="0.36" points="273.39,-1188.89 262.79,-1189.13 271.22,-1195.55 273.39,-1188.89"/>
<text text-anchor="middle" x="585.57" y="-1316" font-family="Times,serif" font-size="14.00">tar&#45;barrel*8975</text>
</g>
<!-- 0,8 (Tar from Coke)&#45;&gt;3,13 (Rubber) -->
<g id="edge13" class="edge">
<title>0,8 (Tar from Coke)&#45;&gt;3,13 (Rubber)</title>
<path fill="none" stroke="black" stroke-width="0.07" d="M1035.17,-1430.32C901.83,-1333.43 260.01,-867.13 107.81,-756.55"/>
<polygon fill="black" stroke="black" stroke-width="0.07" points="109.46,-753.42 99.31,-750.37 105.34,-759.08 109.46,-753.42"/>
<text text-anchor="middle" x="515.49" y="-1097.23" font-family="Times,serif" font-size="14.00">tar&#45;barrel*1632</text>
</g>
<!-- 0,8 (Tar from Coke)&#45;&gt;0,7 (Coal Gas) -->
<g id="edge16" class="edge">
<title>0,8 (Tar from Coke)&#45;&gt;0,7 (Coal Gas)</title>
<path fill="none" stroke="black" stroke-width="0.03" d="M958.68,-1447.99C875.92,-1447.99 759.97,-1447.99 681.38,-1447.99"/>
<polygon fill="black" stroke="black" stroke-width="0.03" points="681.02,-1444.49 671.02,-1447.99 681.02,-1451.49 681.02,-1444.49"/>
<text text-anchor="middle" x="768.53" y="-1451.79" font-family="Times,serif" font-size="14.00">tar&#45;barrel*816</text>
</g>
<!-- 0,8 (Tar from Coke)&#45;&gt;4,&#45;1 (Fluid) -->
<g id="edge22" class="edge">
<title>0,8 (Tar from Coke)&#45;&gt;4,&#45;1 (Fluid)</title>
<path fill="none" stroke="black" stroke-width="0.1" d="M1083.59,-1430.49C1148.98,-1382.98 1329.88,-1251.55 1403.56,-1198.02"/>
<polygon fill="black" stroke="black" stroke-width="0.1" points="1405.96,-1200.6 1411.99,-1191.89 1401.85,-1194.94 1405.96,-1200.6"/>
<text text-anchor="middle" x="1187.57" y="-1318.06" font-family="Times,serif" font-size="14.00">tar&#45;barrel*2432</text>
</g>
<!-- 2,&#45;1 (Ammonia) -->
<g id="node9" class="node">
<title>2,&#45;1 (Ammonia)</title>
<ellipse fill="none" stroke="black" cx="218.97" cy="-291.1" rx="81.49" ry="18"/>
<text text-anchor="middle" x="218.97" y="-287.4" font-family="Times,serif" font-size="14.00">2,&#45;1 (Ammonia)</text>
</g>
<!-- 2,&#45;1 (Ammonia)&#45;&gt;0,0 (LE BUS) -->
<g id="edge9" class="edge">
<title>2,&#45;1 (Ammonia)&#45;&gt;0,0 (LE BUS)</title>
<path fill="none" stroke="black" stroke-width="2.06" d="M218.97,-309.16C218.97,-420.23 218.97,-1010.55 218.97,-1146.81"/>
<polygon fill="black" stroke="black" stroke-width="2.06" points="215.47,-1146.86 218.97,-1156.86 222.47,-1146.86 215.47,-1146.86"/>
<text text-anchor="middle" x="279.47" y="-731.78" font-family="Times,serif" font-size="14.00">tar&#45;barrel*51168</text>
</g>
<!-- 2,&#45;1 (Ammonia)&#45;&gt;&#45;3,2 (Lead and Solder) -->
<g id="edge21" class="edge">
<title>2,&#45;1 (Ammonia)&#45;&gt;&#45;3,2 (Lead and Solder)</title>
<path fill="none" stroke="black" stroke-width="0.02" d="M300.67,-291.1C509.26,-291.1 1062.5,-291.1 1311.22,-291.1"/>
<polygon fill="black" stroke="black" stroke-width="0.02" points="1311.38,-294.6 1321.38,-291.1 1311.38,-287.6 1311.38,-294.6"/>
<text text-anchor="middle" x="754.45" y="-294.9" font-family="Times,serif" font-size="14.00">tar&#45;barrel*512</text>
</g>
<!-- 2,&#45;1 (Ammonia)&#45;&gt;3,13 (Rubber) -->
<g id="edge12" class="edge">
<title>2,&#45;1 (Ammonia)&#45;&gt;3,13 (Rubber)</title>
<path fill="none" stroke="black" stroke-width="0.14" d="M213.08,-309.25C190.76,-377.93 111.37,-622.26 84.42,-705.21"/>
<polygon fill="black" stroke="black" stroke-width="0.14" points="81.02,-704.35 81.26,-714.94 87.68,-706.51 81.02,-704.35"/>
<text text-anchor="middle" x="92.75" y="-511.03" font-family="Times,serif" font-size="14.00">tar&#45;barrel*3440</text>
</g>
<!-- 2,&#45;1 (Ammonia)&#45;&gt;3,6 (Phosphoric Acid and Phosphine gas) -->
<g id="edge14" class="edge">
<title>2,&#45;1 (Ammonia)&#45;&gt;3,6 (Phosphoric Acid and Phosphine gas)</title>
<path fill="none" stroke="black" stroke-width="0.01" d="M242.77,-273.81C307.57,-226.73 487.28,-96.17 561.82,-42.01"/>
<polygon fill="black" stroke="black" stroke-width="0.01" points="563.92,-44.81 569.95,-36.1 559.8,-39.15 563.92,-44.81"/>
<text text-anchor="middle" x="350.79" y="-161.71" font-family="Times,serif" font-size="14.00">tar&#45;barrel*208</text>
</g>
<!-- 2,&#45;1 (Ammonia)&#45;&gt;0,7 (Coal Gas) -->
<g id="edge19" class="edge">
<title>2,&#45;1 (Ammonia)&#45;&gt;0,7 (Coal Gas)</title>
<path fill="none" stroke="black" stroke-width="0.17" d="M224.88,-309.28C267.92,-441.76 533.27,-1258.42 585.83,-1420.17"/>
<polygon fill="black" stroke="black" stroke-width="0.17" points="582.56,-1421.43 588.98,-1429.86 589.22,-1419.27 582.56,-1421.43"/>
<text text-anchor="middle" x="349.35" y="-868.52" font-family="Times,serif" font-size="14.00">tar&#45;barrel*4288</text>
</g>
<!-- 2,&#45;1 (Ammonia)&#45;&gt;4,&#45;1 (Fluid) -->
<g id="edge15" class="edge">
<title>2,&#45;1 (Ammonia)&#45;&gt;4,&#45;1 (Fluid)</title>
<path fill="none" stroke="black" stroke-width="0.14" d="M242.73,-308.36C394.71,-418.79 1230.09,-1025.72 1403.76,-1151.91"/>
<polygon fill="black" stroke="black" stroke-width="0.14" points="1401.84,-1154.83 1411.99,-1157.88 1405.95,-1149.17 1401.84,-1154.83"/>
<text text-anchor="middle" x="879.24" y="-733.93" font-family="Times,serif" font-size="14.00">tar&#45;barrel*3552</text>
</g>
<!-- 3,1 (Mining Brick) -->
<g id="node10" class="node">
<title>3,1 (Mining Brick)</title>
<ellipse fill="none" stroke="black" cx="1578.98" cy="-733" rx="94.78" ry="18"/>
<text text-anchor="middle" x="1578.98" y="-729.3" font-family="Times,serif" font-size="14.00">3,1 (Mining Brick)</text>
</g>
<!-- 3,1 (Mining Brick)&#45;&gt;0,0 (LE BUS) -->
<g id="edge18" class="edge">
<title>3,1 (Mining Brick)&#45;&gt;0,0 (LE BUS)</title>
<path fill="none" stroke="black" stroke-width="0.22" d="M1530.97,-748.59C1322.05,-816.48 492.67,-1085.96 272.74,-1157.42"/>
<polygon fill="black" stroke="black" stroke-width="0.22" points="271.46,-1154.15 263.03,-1160.57 273.62,-1160.81 271.46,-1154.15"/>
<text text-anchor="middle" x="845.85" y="-956.81" font-family="Times,serif" font-size="14.00">tar&#45;barrel*5540</text>
</g>
<!-- 3,1 (Mining Brick)&#45;&gt;0,7 (Coal Gas) -->
<g id="edge17" class="edge">
<title>3,1 (Mining Brick)&#45;&gt;0,7 (Coal Gas)</title>
<path fill="none" stroke="black" stroke-width="0.04" d="M1554.65,-750.67C1421.3,-847.55 779.49,-1313.86 627.29,-1424.44"/>
<polygon fill="black" stroke="black" stroke-width="0.04" points="624.82,-1421.91 618.78,-1430.62 628.93,-1427.57 624.82,-1421.91"/>
<text text-anchor="middle" x="1039.47" y="-1091.35" font-family="Times,serif" font-size="14.00">tar&#45;barrel*960</text>
</g>
<!-- 3,1 (Mining Brick)&#45;&gt;4,&#45;1 (Fluid) -->
<g id="edge24" class="edge">
<title>3,1 (Mining Brick)&#45;&gt;4,&#45;1 (Fluid)</title>
<path fill="none" stroke="black" stroke-width="0.04" d="M1573.08,-751.14C1550.76,-819.83 1471.38,-1064.16 1444.42,-1147.1"/>
<polygon fill="black" stroke="black" stroke-width="0.04" points="1441.02,-1146.24 1441.26,-1156.83 1447.68,-1148.41 1441.02,-1146.24"/>
<text text-anchor="middle" x="1457.25" y="-952.92" font-family="Times,serif" font-size="14.00">tar&#45;barrel*960</text>
</g>
</g>
</svg>
