<?xml version="1.0" encoding="UTF-8" standalone="no"?>
<!DOCTYPE svg PUBLIC "-//W3C//DTD SVG 1.1//EN"
 "http://www.w3.org/Graphics/SVG/1.1/DTD/svg11.dtd">
<!-- Generated by graphviz version 2.43.0 (0)
 -->
<!-- Title: %3 Pages: 1 -->
<svg width="827pt" height="44pt"
 viewBox="0.00 0.00 827.29 44.00" xmlns="http://www.w3.org/2000/svg" xmlns:xlink="http://www.w3.org/1999/xlink">
<g id="graph0" class="graph" transform="scale(1 1) rotate(0) translate(4 40)">
<title>%3</title>
<polygon fill="white" stroke="transparent" points="-4,4 -4,-40 823.29,-40 823.29,4 -4,4"/>
<!-- &#45;9,&#45;10 (Bedding and cages) -->
<g id="node1" class="node">
<title>&#45;9,&#45;10 (Bedding and cages)</title>
<ellipse fill="none" stroke="black" cx="411.92" cy="-18" rx="134.58" ry="18"/>
<text text-anchor="middle" x="411.92" y="-14.3" font-family="Times,serif" font-size="14.00">&#45;9,&#45;10 (Bedding and cages)</text>
</g>
<!-- &#45;9,&#45;11 (Bones mk2) -->
<g id="node2" class="node">
<title>&#45;9,&#45;11 (Bones mk2)</title>
<ellipse fill="none" stroke="black" cx="721.15" cy="-18" rx="98.28" ry="18"/>
<text text-anchor="middle" x="721.15" y="-14.3" font-family="Times,serif" font-size="14.00">&#45;9,&#45;11 (Bones mk2)</text>
</g>
<!-- &#45;9,&#45;10 (Bedding and cages)&#45;&gt;&#45;9,&#45;11 (Bones mk2) -->
<g id="edge1" class="edge">
<title>&#45;9,&#45;10 (Bedding and cages)&#45;&gt;&#45;9,&#45;11 (Bones mk2)</title>
<path fill="none" stroke="black" d="M546.65,-18C568.71,-18 591.32,-18 612.64,-18"/>
<polygon fill="black" stroke="black" points="612.67,-21.5 622.67,-18 612.67,-14.5 612.67,-21.5"/>
<text text-anchor="middle" x="579.65" y="-6.8" font-family="Times,serif" font-size="14.00">bedding*5024</text>
</g>
<!-- &#45;8,&#45;11 (Fetal serum) -->
<g id="node3" class="node">
<title>&#45;8,&#45;11 (Fetal serum)</title>
<ellipse fill="none" stroke="black" cx="102.69" cy="-18" rx="102.88" ry="18"/>
<text text-anchor="middle" x="102.69" y="-14.3" font-family="Times,serif" font-size="14.00">&#45;8,&#45;11 (Fetal serum)</text>
</g>
<!-- &#45;9,&#45;10 (Bedding and cages)&#45;&gt;&#45;8,&#45;11 (Fetal serum) -->
<g id="edge2" class="edge">
<title>&#45;9,&#45;10 (Bedding and cages)&#45;&gt;&#45;8,&#45;11 (Fetal serum)</title>
<path fill="none" stroke="black" d="M277.19,-18C256.72,-18 235.78,-18 215.83,-18"/>
<polygon fill="black" stroke="black" points="215.82,-14.5 205.82,-18 215.82,-21.5 215.82,-14.5"/>
<text text-anchor="middle" x="221.26" y="-6.8" font-family="Times,serif" font-size="14.00">bedding*5024</text>
</g>
</g>
</svg>
