<?xml version="1.0" encoding="UTF-8" standalone="no"?>
<!DOCTYPE svg PUBLIC "-//W3C//DTD SVG 1.1//EN"
 "http://www.w3.org/Graphics/SVG/1.1/DTD/svg11.dtd">
<!-- Generated by graphviz version 2.43.0 (0)
 -->
<!-- Title: %3 Pages: 1 -->
<svg width="1672pt" height="1493pt"
 viewBox="0.00 0.00 1672.15 1493.49" xmlns="http://www.w3.org/2000/svg" xmlns:xlink="http://www.w3.org/1999/xlink">
<g id="graph0" class="graph" transform="scale(1 1) rotate(0) translate(4 1489.49)">
<title>%3</title>
<polygon fill="white" stroke="transparent" points="-4,4 -4,-1489.49 1668.15,-1489.49 1668.15,4 -4,4"/>
<!-- 5,8 (Ulric Food, Sandcastings) -->
<g id="node1" class="node">
<title>5,8 (Ulric Food, Sandcastings)</title>
<ellipse fill="none" stroke="black" cx="838.66" cy="-744.43" rx="151.37" ry="18"/>
<text text-anchor="middle" x="838.66" y="-740.73" font-family="Times,serif" font-size="14.00">5,8 (Ulric Food, Sandcastings)</text>
</g>
<!-- &#45;8,&#45;3 (Duralumin) -->
<g id="node2" class="node">
<title>&#45;8,&#45;3 (Duralumin)</title>
<ellipse fill="none" stroke="black" cx="1573.81" cy="-744.43" rx="90.18" ry="18"/>
<text text-anchor="middle" x="1573.81" y="-740.73" font-family="Times,serif" font-size="14.00">&#45;8,&#45;3 (Duralumin)</text>
</g>
<!-- 5,8 (Ulric Food, Sandcastings)&#45;&gt;&#45;8,&#45;3 (Duralumin) -->
<g id="edge1" class="edge">
<title>5,8 (Ulric Food, Sandcastings)&#45;&gt;&#45;8,&#45;3 (Duralumin)</title>
<path fill="none" stroke="black" stroke-width="1.13" d="M990.54,-744.43C1135.1,-744.43 1348.54,-744.43 1473.16,-744.43"/>
<polygon fill="black" stroke="black" stroke-width="1.13" points="1473.46,-747.93 1483.46,-744.43 1473.46,-740.93 1473.46,-747.93"/>
<text text-anchor="middle" x="1160.85" y="-748.23" font-family="Times,serif" font-size="14.00">sand&#45;casting*17280</text>
</g>
<!-- 0,0 (LE BUS) -->
<g id="node3" class="node">
<title>0,0 (LE BUS)</title>
<ellipse fill="none" stroke="black" cx="1536.93" cy="-974.34" rx="71.49" ry="18"/>
<text text-anchor="middle" x="1536.93" y="-970.64" font-family="Times,serif" font-size="14.00">0,0 (LE BUS)</text>
</g>
<!-- 5,8 (Ulric Food, Sandcastings)&#45;&gt;0,0 (LE BUS) -->
<g id="edge2" class="edge">
<title>5,8 (Ulric Food, Sandcastings)&#45;&gt;0,0 (LE BUS)</title>
<path fill="none" stroke="black" stroke-width="1.65" d="M890.29,-761.43C1018.98,-803.8 1353,-913.78 1483.54,-956.76"/>
<polygon fill="black" stroke="black" stroke-width="1.65" points="1482.73,-960.18 1493.32,-959.98 1484.92,-953.53 1482.73,-960.18"/>
<text text-anchor="middle" x="1115.92" y="-862.9" font-family="Times,serif" font-size="14.00">sand&#45;casting*25120</text>
</g>
<!-- &#45;6,8 (Copper plate duplicate) -->
<g id="node4" class="node">
<title>&#45;6,8 (Copper plate duplicate)</title>
<ellipse fill="none" stroke="black" cx="1396.81" cy="-1222.87" rx="143.77" ry="18"/>
<text text-anchor="middle" x="1396.81" y="-1219.17" font-family="Times,serif" font-size="14.00">&#45;6,8 (Copper plate duplicate)</text>
</g>
<!-- 5,8 (Ulric Food, Sandcastings)&#45;&gt;&#45;6,8 (Copper plate duplicate) -->
<g id="edge3" class="edge">
<title>5,8 (Ulric Food, Sandcastings)&#45;&gt;&#45;6,8 (Copper plate duplicate)</title>
<path fill="none" stroke="black" stroke-width="0.53" d="M859.52,-762.31C945.08,-835.66 1269.26,-1113.54 1368.06,-1198.23"/>
<polygon fill="black" stroke="black" stroke-width="0.53" points="1365.98,-1201.05 1375.85,-1204.9 1370.53,-1195.74 1365.98,-1201.05"/>
<text text-anchor="middle" x="1047.29" y="-984.07" font-family="Times,serif" font-size="14.00">sand&#45;casting*8160</text>
</g>
<!-- 2,10 (Nickel plate and Nichrome) -->
<g id="node5" class="node">
<title>2,10 (Nickel plate and Nichrome)</title>
<ellipse fill="none" stroke="black" cx="1086.77" cy="-1436.44" rx="165.17" ry="18"/>
<text text-anchor="middle" x="1086.77" y="-1432.74" font-family="Times,serif" font-size="14.00">2,10 (Nickel plate and Nichrome)</text>
</g>
<!-- 5,8 (Ulric Food, Sandcastings)&#45;&gt;2,10 (Nickel plate and Nichrome) -->
<g id="edge4" class="edge">
<title>5,8 (Ulric Food, Sandcastings)&#45;&gt;2,10 (Nickel plate and Nichrome)</title>
<path fill="none" stroke="black" stroke-width="0.81" d="M845.17,-762.58C879.09,-857.18 1035.6,-1293.72 1076.81,-1408.65"/>
<polygon fill="black" stroke="black" stroke-width="0.81" points="1073.55,-1409.93 1080.22,-1418.16 1080.14,-1407.57 1073.55,-1409.93"/>
<text text-anchor="middle" x="889.99" y="-1089.42" font-family="Times,serif" font-size="14.00">sand&#45;casting*12320</text>
</g>
<!-- 9,&#45;10 (Copper plate yet again) -->
<g id="node6" class="node">
<title>9,&#45;10 (Copper plate yet again)</title>
<ellipse fill="none" stroke="black" cx="705.9" cy="-1467.49" rx="149.47" ry="18"/>
<text text-anchor="middle" x="705.9" y="-1463.79" font-family="Times,serif" font-size="14.00">9,&#45;10 (Copper plate yet again)</text>
</g>
<!-- 5,8 (Ulric Food, Sandcastings)&#45;&gt;9,&#45;10 (Copper plate yet again) -->
<g id="edge5" class="edge">
<title>5,8 (Ulric Food, Sandcastings)&#45;&gt;9,&#45;10 (Copper plate yet again)</title>
<path fill="none" stroke="black" stroke-width="0.53" d="M835.31,-762.66C817.41,-860.15 733.01,-1319.84 711.1,-1439.15"/>
<polygon fill="black" stroke="black" stroke-width="0.53" points="707.6,-1438.84 709.24,-1449.31 714.49,-1440.1 707.6,-1438.84"/>
<text text-anchor="middle" x="706.71" y="-1104.71" font-family="Times,serif" font-size="14.00">sand&#45;casting*8160</text>
</g>
<!-- &#45;1,11 (Steel Plate (from molten)) -->
<g id="node7" class="node">
<title>&#45;1,11 (Steel Plate (from molten))</title>
<ellipse fill="none" stroke="black" cx="363.87" cy="-1305.7" rx="161.37" ry="18"/>
<text text-anchor="middle" x="363.87" y="-1302" font-family="Times,serif" font-size="14.00">&#45;1,11 (Steel Plate (from molten))</text>
</g>
<!-- 5,8 (Ulric Food, Sandcastings)&#45;&gt;&#45;1,11 (Steel Plate (from molten)) -->
<g id="edge6" class="edge">
<title>5,8 (Ulric Food, Sandcastings)&#45;&gt;&#45;1,11 (Steel Plate (from molten))</title>
<path fill="none" stroke="black" stroke-width="5.99" d="M823.4,-762.47C753.92,-844.6 467.35,-1183.37 385.68,-1279.91"/>
<polygon fill="black" stroke="black" stroke-width="5.99" points="381.53,-1276.7 379.07,-1287.73 389.54,-1283.48 381.53,-1276.7"/>
<text text-anchor="middle" x="533.54" y="-1024.99" font-family="Times,serif" font-size="14.00">sand&#45;casting*91440</text>
</g>
<!-- 3,9 (Copper, molten &amp; plate) -->
<g id="node8" class="node">
<title>3,9 (Copper, molten &amp; plate)</title>
<ellipse fill="none" stroke="black" cx="149.63" cy="-1000.71" rx="143.77" ry="18"/>
<text text-anchor="middle" x="149.63" y="-997.01" font-family="Times,serif" font-size="14.00">3,9 (Copper, molten &amp; plate)</text>
</g>
<!-- 5,8 (Ulric Food, Sandcastings)&#45;&gt;3,9 (Copper, molten &amp; plate) -->
<g id="edge7" class="edge">
<title>5,8 (Ulric Food, Sandcastings)&#45;&gt;3,9 (Copper, molten &amp; plate)</title>
<path fill="none" stroke="black" stroke-width="0.81" d="M792.38,-761.64C669.92,-807.19 337.75,-930.74 205.27,-980.02"/>
<polygon fill="black" stroke="black" stroke-width="0.81" points="203.86,-976.81 195.71,-983.58 206.3,-983.37 203.86,-976.81"/>
<text text-anchor="middle" x="427.83" y="-874.63" font-family="Times,serif" font-size="14.00">sand&#45;casting*12320</text>
</g>
<!-- 2,1 (Niobium plates) -->
<g id="node9" class="node">
<title>2,1 (Niobium plates)</title>
<ellipse fill="none" stroke="black" cx="105.94" cy="-684.7" rx="105.88" ry="18"/>
<text text-anchor="middle" x="105.94" y="-681" font-family="Times,serif" font-size="14.00">2,1 (Niobium plates)</text>
</g>
<!-- 5,8 (Ulric Food, Sandcastings)&#45;&gt;2,1 (Niobium plates) -->
<g id="edge8" class="edge">
<title>5,8 (Ulric Food, Sandcastings)&#45;&gt;2,1 (Niobium plates)</title>
<path fill="none" stroke="black" stroke-width="0.42" d="M713.53,-734.23C572.22,-722.71 344.69,-704.16 211.83,-693.33"/>
<polygon fill="black" stroke="black" stroke-width="0.42" points="211.89,-689.83 201.64,-692.5 211.32,-696.8 211.89,-689.83"/>
<text text-anchor="middle" x="396.18" y="-717.58" font-family="Times,serif" font-size="14.00">sand&#45;casting*6400</text>
</g>
<!-- 4,3 (item=nexelit&#45;plate Nexelit platery) -->
<g id="node10" class="node">
<title>4,3 (item=nexelit&#45;plate Nexelit platery)</title>
<ellipse fill="none" stroke="black" cx="226.87" cy="-336.81" rx="194.17" ry="18"/>
<text text-anchor="middle" x="226.87" y="-333.11" font-family="Times,serif" font-size="14.00">4,3 (item=nexelit&#45;plate Nexelit platery)</text>
</g>
<!-- 5,8 (Ulric Food, Sandcastings)&#45;&gt;4,3 (item=nexelit&#45;plate Nexelit platery) -->
<g id="edge9" class="edge">
<title>5,8 (Ulric Food, Sandcastings)&#45;&gt;4,3 (item=nexelit&#45;plate Nexelit platery)</title>
<path fill="none" stroke="black" stroke-width="0.14" d="M811.98,-726.65C713.9,-661.31 373.29,-434.36 262.2,-360.35"/>
<polygon fill="black" stroke="black" stroke-width="0.14" points="263.95,-357.31 253.69,-354.68 260.07,-363.14 263.95,-357.31"/>
<text text-anchor="middle" x="470.59" y="-547.3" font-family="Times,serif" font-size="14.00">sand&#45;casting*2080</text>
</g>
<!-- &#45;7,&#45;8 (Tin mk2) -->
<g id="node11" class="node">
<title>&#45;7,&#45;8 (Tin mk2)</title>
<ellipse fill="none" stroke="black" cx="477.34" cy="-104.2" rx="78.79" ry="18"/>
<text text-anchor="middle" x="477.34" y="-100.5" font-family="Times,serif" font-size="14.00">&#45;7,&#45;8 (Tin mk2)</text>
</g>
<!-- 5,8 (Ulric Food, Sandcastings)&#45;&gt;&#45;7,&#45;8 (Tin mk2) -->
<g id="edge10" class="edge">
<title>5,8 (Ulric Food, Sandcastings)&#45;&gt;&#45;7,&#45;8 (Tin mk2)</title>
<path fill="none" stroke="black" stroke-width="0.66" d="M828.43,-726.3C777.7,-636.42 553.23,-238.68 492.52,-131.11"/>
<polygon fill="black" stroke="black" stroke-width="0.66" points="495.44,-129.16 487.48,-122.17 489.34,-132.6 495.44,-129.16"/>
<text text-anchor="middle" x="589.47" y="-432.5" font-family="Times,serif" font-size="14.00">sand&#45;casting*10000</text>
</g>
<!-- &#45;3,2 (Lead and Solder) -->
<g id="node12" class="node">
<title>&#45;3,2 (Lead and Solder)</title>
<ellipse fill="none" stroke="black" cx="725.76" cy="-18" rx="113.98" ry="18"/>
<text text-anchor="middle" x="725.76" y="-14.3" font-family="Times,serif" font-size="14.00">&#45;3,2 (Lead and Solder)</text>
</g>
<!-- 5,8 (Ulric Food, Sandcastings)&#45;&gt;&#45;3,2 (Lead and Solder) -->
<g id="edge11" class="edge">
<title>5,8 (Ulric Food, Sandcastings)&#45;&gt;&#45;3,2 (Lead and Solder)</title>
<path fill="none" stroke="black" stroke-width="0.14" d="M835.81,-726.11C820.59,-628.17 748.82,-166.33 730.19,-46.47"/>
<polygon fill="black" stroke="black" stroke-width="0.14" points="733.6,-45.61 728.6,-36.27 726.68,-46.69 733.6,-45.61"/>
<text text-anchor="middle" x="716.5" y="-390.09" font-family="Times,serif" font-size="14.00">sand&#45;casting*2080</text>
</g>
<!-- &#45;4,&#45;4 (Aluminium) -->
<g id="node13" class="node">
<title>&#45;4,&#45;4 (Aluminium)</title>
<ellipse fill="none" stroke="black" cx="1000.71" cy="-27.36" rx="90.98" ry="18"/>
<text text-anchor="middle" x="1000.71" y="-23.66" font-family="Times,serif" font-size="14.00">&#45;4,&#45;4 (Aluminium)</text>
</g>
<!-- 5,8 (Ulric Food, Sandcastings)&#45;&gt;&#45;4,&#45;4 (Aluminium) -->
<g id="edge12" class="edge">
<title>5,8 (Ulric Food, Sandcastings)&#45;&gt;&#45;4,&#45;4 (Aluminium)</title>
<path fill="none" stroke="black" stroke-width="0.14" d="M842.75,-726.35C864.59,-629.66 967.62,-173.78 994.35,-55.47"/>
<polygon fill="black" stroke="black" stroke-width="0.14" points="997.84,-55.92 996.63,-45.4 991.01,-54.38 997.84,-55.92"/>
<text text-anchor="middle" x="852.05" y="-394.71" font-family="Times,serif" font-size="14.00">sand&#45;casting*2080</text>
</g>
<!-- 8,&#45;10 (Copper plate duplicater) -->
<g id="node14" class="node">
<title>8,&#45;10 (Copper plate duplicater)</title>
<ellipse fill="none" stroke="black" cx="1285.61" cy="-160.75" rx="154.07" ry="18"/>
<text text-anchor="middle" x="1285.61" y="-157.05" font-family="Times,serif" font-size="14.00">8,&#45;10 (Copper plate duplicater)</text>
</g>
<!-- 5,8 (Ulric Food, Sandcastings)&#45;&gt;8,&#45;10 (Copper plate duplicater) -->
<g id="edge13" class="edge">
<title>5,8 (Ulric Food, Sandcastings)&#45;&gt;8,&#45;10 (Copper plate duplicater)</title>
<path fill="none" stroke="black" stroke-width="0.27" d="M852.53,-726.32C917.17,-641.9 1189,-286.9 1265.5,-187"/>
<polygon fill="black" stroke="black" stroke-width="0.27" points="1268.38,-189 1271.68,-178.93 1262.82,-184.74 1268.38,-189"/>
<text text-anchor="middle" x="992.51" y="-460.46" font-family="Times,serif" font-size="14.00">sand&#45;casting*4080</text>
</g>
<!-- 4,13 (Chromium processing) -->
<g id="node15" class="node">
<title>4,13 (Chromium processing)</title>
<ellipse fill="none" stroke="black" cx="1511.31" cy="-447.8" rx="142.97" ry="18"/>
<text text-anchor="middle" x="1511.31" y="-444.1" font-family="Times,serif" font-size="14.00">4,13 (Chromium processing)</text>
</g>
<!-- 5,8 (Ulric Food, Sandcastings)&#45;&gt;4,13 (Chromium processing) -->
<g id="edge14" class="edge">
<title>5,8 (Ulric Food, Sandcastings)&#45;&gt;4,13 (Chromium processing)</title>
<path fill="none" stroke="black" stroke-width="0.8" d="M878.23,-726.98C994.46,-675.72 1334.71,-525.68 1462.26,-469.43"/>
<polygon fill="black" stroke="black" stroke-width="0.8" points="1464.06,-472.47 1471.79,-465.23 1461.23,-466.06 1464.06,-472.47"/>
<text text-anchor="middle" x="1099.25" y="-602.01" font-family="Times,serif" font-size="14.00">sand&#45;casting*12160</text>
</g>
</g>
</svg>
