<?xml version="1.0" encoding="UTF-8" standalone="no"?>
<!DOCTYPE svg PUBLIC "-//W3C//DTD SVG 1.1//EN"
 "http://www.w3.org/Graphics/SVG/1.1/DTD/svg11.dtd">
<!-- Generated by graphviz version 2.43.0 (0)
 -->
<!-- Title: %3 Pages: 1 -->
<svg width="1294pt" height="1142pt"
 viewBox="0.00 0.00 1294.30 1141.81" xmlns="http://www.w3.org/2000/svg" xmlns:xlink="http://www.w3.org/1999/xlink">
<g id="graph0" class="graph" transform="scale(1 1) rotate(0) translate(4 1137.81)">
<title>%3</title>
<polygon fill="white" stroke="transparent" points="-4,4 -4,-1137.81 1290.3,-1137.81 1290.3,4 -4,4"/>
<!-- 0,5 (Titanium Processing (Grade 4)) -->
<g id="node1" class="node">
<title>0,5 (Titanium Processing (Grade 4))</title>
<ellipse fill="none" stroke="black" cx="612.45" cy="-579.68" rx="176.57" ry="18"/>
<text text-anchor="middle" x="612.45" y="-575.98" font-family="Times,serif" font-size="14.00">0,5 (Titanium Processing (Grade 4))</text>
</g>
<!-- &#45;1,&#45;2 (Aramid fiber) -->
<g id="node2" class="node">
<title>&#45;1,&#45;2 (Aramid fiber)</title>
<ellipse fill="none" stroke="black" cx="1186.85" cy="-579.68" rx="99.38" ry="18"/>
<text text-anchor="middle" x="1186.85" y="-575.98" font-family="Times,serif" font-size="14.00">&#45;1,&#45;2 (Aramid fiber)</text>
</g>
<!-- 0,5 (Titanium Processing (Grade 4))&#45;&gt;&#45;1,&#45;2 (Aramid fiber) -->
<g id="edge1" class="edge">
<title>0,5 (Titanium Processing (Grade 4))&#45;&gt;&#45;1,&#45;2 (Aramid fiber)</title>
<path fill="none" stroke="black" stroke-width="2.1" d="M789.48,-579.68C883.36,-579.68 995.76,-579.68 1077.03,-579.68"/>
<polygon fill="black" stroke="black" stroke-width="2.1" points="1077.28,-583.18 1087.28,-579.68 1077.28,-576.18 1077.28,-583.18"/>
<text text-anchor="middle" x="1010.25" y="-583.48" font-family="Times,serif" font-size="14.00">titanium&#45;plate*14704</text>
</g>
<!-- 0,10 (item=meat Meat) -->
<g id="node3" class="node">
<title>0,10 (item=meat Meat)</title>
<ellipse fill="none" stroke="black" cx="921.68" cy="-1063.74" rx="120.48" ry="18"/>
<text text-anchor="middle" x="921.68" y="-1060.04" font-family="Times,serif" font-size="14.00">0,10 (item=meat Meat)</text>
</g>
<!-- 0,5 (Titanium Processing (Grade 4))&#45;&gt;0,10 (item=meat Meat) -->
<g id="edge2" class="edge">
<title>0,5 (Titanium Processing (Grade 4))&#45;&gt;0,10 (item=meat Meat)</title>
<path fill="none" stroke="black" stroke-width="1.16" d="M624.01,-597.77C671.13,-671.53 848.9,-949.8 904.77,-1037.26"/>
<polygon fill="black" stroke="black" stroke-width="1.16" points="901.9,-1039.27 910.23,-1045.81 907.8,-1035.5 901.9,-1039.27"/>
<text text-anchor="middle" x="691.89" y="-821.31" font-family="Times,serif" font-size="14.00">titanium&#45;plate*8128</text>
</g>
<!-- &#45;3,8 (Urea) -->
<g id="node4" class="node">
<title>&#45;3,8 (Urea)</title>
<ellipse fill="none" stroke="black" cx="406.3" cy="-1115.81" rx="61.19" ry="18"/>
<text text-anchor="middle" x="406.3" y="-1112.11" font-family="Times,serif" font-size="14.00">&#45;3,8 (Urea)</text>
</g>
<!-- 0,5 (Titanium Processing (Grade 4))&#45;&gt;&#45;3,8 (Urea) -->
<g id="edge3" class="edge">
<title>0,5 (Titanium Processing (Grade 4))&#45;&gt;&#45;3,8 (Urea)</title>
<path fill="none" stroke="black" stroke-width="0.87" d="M605.47,-597.82C575.04,-676.97 453.78,-992.35 416.96,-1088.1"/>
<polygon fill="black" stroke="black" stroke-width="0.87" points="413.6,-1087.08 413.28,-1097.67 420.13,-1089.6 413.6,-1087.08"/>
<text text-anchor="middle" x="438.71" y="-846.76" font-family="Times,serif" font-size="14.00">titanium&#45;plate*6096</text>
</g>
<!-- &#45;4,1 () -->
<g id="node5" class="node">
<title>&#45;4,1 ()</title>
<ellipse fill="none" stroke="black" cx="85.82" cy="-809.03" rx="38.19" ry="18"/>
<text text-anchor="middle" x="85.82" y="-805.33" font-family="Times,serif" font-size="14.00">&#45;4,1 ()</text>
</g>
<!-- 0,5 (Titanium Processing (Grade 4))&#45;&gt;&#45;4,1 () -->
<g id="edge4" class="edge">
<title>0,5 (Titanium Processing (Grade 4))&#45;&gt;&#45;4,1 ()</title>
<path fill="none" stroke="black" stroke-width="0.86" d="M572,-597.29C472.92,-640.44 219.2,-750.94 123.29,-792.71"/>
<polygon fill="black" stroke="black" stroke-width="0.86" points="121.76,-789.56 113.98,-796.76 124.55,-795.98 121.76,-789.56"/>
<text text-anchor="middle" x="275.15" y="-698.8" font-family="Times,serif" font-size="14.00">titanium&#45;plate*6016</text>
</g>
<!-- 0,9 (Auog Brains) -->
<g id="node6" class="node">
<title>0,9 (Auog Brains)</title>
<ellipse fill="none" stroke="black" cx="91.64" cy="-337.39" rx="91.78" ry="18"/>
<text text-anchor="middle" x="91.64" y="-333.69" font-family="Times,serif" font-size="14.00">0,9 (Auog Brains)</text>
</g>
<!-- 0,5 (Titanium Processing (Grade 4))&#45;&gt;0,9 (Auog Brains) -->
<g id="edge5" class="edge">
<title>0,5 (Titanium Processing (Grade 4))&#45;&gt;0,9 (Auog Brains)</title>
<path fill="none" stroke="black" stroke-width="0.29" d="M574.57,-562.06C480.7,-518.38 237.57,-405.28 136.61,-358.31"/>
<polygon fill="black" stroke="black" stroke-width="0.29" points="137.84,-355.02 127.3,-353.98 134.89,-361.37 137.84,-355.02"/>
<text text-anchor="middle" x="283.09" y="-463.98" font-family="Times,serif" font-size="14.00">titanium&#45;plate*2016</text>
</g>
<!-- &#45;1,6 (Flimble&#39;s Slaughterhouse and Daycare Centre, Auog Products) -->
<g id="node7" class="node">
<title>&#45;1,6 (Flimble&#39;s Slaughterhouse and Daycare Centre, Auog Products)</title>
<ellipse fill="none" stroke="black" cx="732.71" cy="-18" rx="325.74" ry="18"/>
<text text-anchor="middle" x="732.71" y="-14.3" font-family="Times,serif" font-size="14.00">&#45;1,6 (Flimble&#39;s Slaughterhouse and Daycare Centre, Auog Products)</text>
</g>
<!-- 0,5 (Titanium Processing (Grade 4))&#45;&gt;&#45;1,6 (Flimble&#39;s Slaughterhouse and Daycare Centre, Auog Products) -->
<g id="edge6" class="edge">
<title>0,5 (Titanium Processing (Grade 4))&#45;&gt;&#45;1,6 (Flimble&#39;s Slaughterhouse and Daycare Centre, Auog Products)</title>
<path fill="none" stroke="black" stroke-width="0.72" d="M616.31,-561.62C633.77,-480.1 705.32,-145.91 726.67,-46.21"/>
<polygon fill="black" stroke="black" stroke-width="0.72" points="730.13,-46.78 728.8,-36.27 723.28,-45.31 730.13,-46.78"/>
<text text-anchor="middle" x="598.99" y="-307.72" font-family="Times,serif" font-size="14.00">titanium&#45;plate*5056</text>
</g>
</g>
</svg>
