<?xml version="1.0" encoding="UTF-8" standalone="no"?>
<!DOCTYPE svg PUBLIC "-//W3C//DTD SVG 1.1//EN"
 "http://www.w3.org/Graphics/SVG/1.1/DTD/svg11.dtd">
<!-- Generated by graphviz version 2.43.0 (0)
 -->
<!-- Title: %3 Pages: 1 -->
<svg width="1029pt" height="898pt"
 viewBox="0.00 0.00 1028.95 898.44" xmlns="http://www.w3.org/2000/svg" xmlns:xlink="http://www.w3.org/1999/xlink">
<g id="graph0" class="graph" transform="scale(1 1) rotate(0) translate(4 894.44)">
<title>%3</title>
<polygon fill="white" stroke="transparent" points="-4,4 -4,-894.44 1024.95,-894.44 1024.95,4 -4,4"/>
<!-- 1,4 (Casein and Melamine) -->
<g id="node1" class="node">
<title>1,4 (Casein and Melamine)</title>
<ellipse fill="none" stroke="black" cx="521.28" cy="-445.96" rx="135.38" ry="18"/>
<text text-anchor="middle" x="521.28" y="-442.26" font-family="Times,serif" font-size="14.00">1,4 (Casein and Melamine)</text>
</g>
<!-- 0,0 (LE BUS) -->
<g id="node2" class="node">
<title>0,0 (LE BUS)</title>
<ellipse fill="none" stroke="black" cx="949.45" cy="-445.96" rx="71.49" ry="18"/>
<text text-anchor="middle" x="949.45" y="-442.26" font-family="Times,serif" font-size="14.00">0,0 (LE BUS)</text>
</g>
<!-- 1,4 (Casein and Melamine)&#45;&gt;0,0 (LE BUS) -->
<g id="edge1" class="edge">
<title>1,4 (Casein and Melamine)&#45;&gt;0,0 (LE BUS)</title>
<path fill="none" stroke="black" stroke-width="0.09" d="M656.76,-445.96C726.01,-445.96 808,-445.96 867.56,-445.96"/>
<polygon fill="black" stroke="black" stroke-width="0.09" points="867.67,-449.46 877.67,-445.96 867.67,-442.46 867.67,-449.46"/>
<text text-anchor="middle" x="792.66" y="-434.76" font-family="Times,serif" font-size="14.00">melamine*10320</text>
</g>
<!-- 2,4 (Formica and Phenolic boards) -->
<g id="node3" class="node">
<title>2,4 (Formica and Phenolic boards)</title>
<ellipse fill="none" stroke="black" cx="559.26" cy="-872.44" rx="169.77" ry="18"/>
<text text-anchor="middle" x="559.26" y="-868.74" font-family="Times,serif" font-size="14.00">2,4 (Formica and Phenolic boards)</text>
</g>
<!-- 1,4 (Casein and Melamine)&#45;&gt;2,4 (Formica and Phenolic boards) -->
<g id="edge2" class="edge">
<title>1,4 (Casein and Melamine)&#45;&gt;2,4 (Formica and Phenolic boards)</title>
<path fill="none" stroke="black" stroke-width="1.78" d="M522.89,-464.01C528.82,-530.62 549.51,-762.93 556.74,-844.15"/>
<polygon fill="black" stroke="black" stroke-width="1.78" points="553.25,-844.5 557.63,-854.15 560.23,-843.88 553.25,-844.5"/>
<text text-anchor="middle" x="474.31" y="-657.88" font-family="Times,serif" font-size="14.00">melamine*194473</text>
</g>
<!-- &#45;5,2 (Optical fiber) -->
<g id="node4" class="node">
<title>&#45;5,2 (Optical fiber)</title>
<ellipse fill="none" stroke="black" cx="96.19" cy="-497.18" rx="96.38" ry="18"/>
<text text-anchor="middle" x="96.19" y="-493.48" font-family="Times,serif" font-size="14.00">&#45;5,2 (Optical fiber)</text>
</g>
<!-- 1,4 (Casein and Melamine)&#45;&gt;&#45;5,2 (Optical fiber) -->
<g id="edge3" class="edge">
<title>1,4 (Casein and Melamine)&#45;&gt;&#45;5,2 (Optical fiber)</title>
<path fill="none" stroke="black" stroke-width="1.71" d="M420.81,-458.07C349.92,-466.61 255.72,-477.96 187.06,-486.23"/>
<polygon fill="black" stroke="black" stroke-width="1.71" points="186.63,-482.76 177.12,-487.43 187.47,-489.71 186.63,-482.76"/>
<text text-anchor="middle" x="238.44" y="-460.95" font-family="Times,serif" font-size="14.00">melamine*185997</text>
</g>
<!-- 7,1 (item=aerogel item=clean&#45;rf&#45;gel Aerogel) -->
<g id="node5" class="node">
<title>7,1 (item=aerogel item=clean&#45;rf&#45;gel Aerogel)</title>
<ellipse fill="none" stroke="black" cx="507.96" cy="-18" rx="220.96" ry="18"/>
<text text-anchor="middle" x="507.96" y="-14.3" font-family="Times,serif" font-size="14.00">7,1 (item=aerogel item=clean&#45;rf&#45;gel Aerogel)</text>
</g>
<!-- 1,4 (Casein and Melamine)&#45;&gt;7,1 (item=aerogel item=clean&#45;rf&#45;gel Aerogel) -->
<g id="edge4" class="edge">
<title>1,4 (Casein and Melamine)&#45;&gt;7,1 (item=aerogel item=clean&#45;rf&#45;gel Aerogel)</title>
<path fill="none" stroke="black" stroke-width="0.42" d="M520.72,-427.85C518.64,-361 511.38,-127.89 508.85,-46.39"/>
<polygon fill="black" stroke="black" stroke-width="0.42" points="512.34,-46.25 508.53,-36.36 505.35,-46.46 512.34,-46.25"/>
<text text-anchor="middle" x="453.78" y="-240.92" font-family="Times,serif" font-size="14.00">melamine*45392</text>
</g>
</g>
</svg>
