<?xml version="1.0" encoding="UTF-8" standalone="no"?>
<!DOCTYPE svg PUBLIC "-//W3C//DTD SVG 1.1//EN"
 "http://www.w3.org/Graphics/SVG/1.1/DTD/svg11.dtd">
<!-- Generated by graphviz version 2.43.0 (0)
 -->
<!-- Title: %3 Pages: 1 -->
<svg width="1491pt" height="1227pt"
 viewBox="0.00 0.00 1491.05 1226.91" xmlns="http://www.w3.org/2000/svg" xmlns:xlink="http://www.w3.org/1999/xlink">
<g id="graph0" class="graph" transform="scale(1 1) rotate(0) translate(4 1222.91)">
<title>%3</title>
<polygon fill="white" stroke="transparent" points="-4,4 -4,-1222.91 1487.05,-1222.91 1487.05,4 -4,4"/>
<!-- &#45;4,&#45;3 (Breath Deeply. Exhale. (Hot Air)) -->
<g id="node1" class="node">
<title>&#45;4,&#45;3 (Breath Deeply. Exhale. (Hot Air))</title>
<ellipse fill="none" stroke="black" cx="736.45" cy="-607.91" rx="190.37" ry="18"/>
<text text-anchor="middle" x="736.45" y="-604.21" font-family="Times,serif" font-size="14.00">&#45;4,&#45;3 (Breath Deeply. Exhale. (Hot Air))</text>
</g>
<!-- 4,13 (Chromium processing) -->
<g id="node2" class="node">
<title>4,13 (Chromium processing)</title>
<ellipse fill="none" stroke="black" cx="1340.07" cy="-607.91" rx="142.97" ry="18"/>
<text text-anchor="middle" x="1340.07" y="-604.21" font-family="Times,serif" font-size="14.00">4,13 (Chromium processing)</text>
</g>
<!-- &#45;4,&#45;3 (Breath Deeply. Exhale. (Hot Air))&#45;&gt;4,13 (Chromium processing) -->
<g id="edge1" class="edge">
<title>&#45;4,&#45;3 (Breath Deeply. Exhale. (Hot Air))&#45;&gt;4,13 (Chromium processing)</title>
<path fill="none" stroke="black" stroke-width="0.37" d="M927.02,-607.91C1010.84,-607.91 1107.98,-607.91 1186.98,-607.91"/>
<polygon fill="black" stroke="black" stroke-width="0.37" points="1187.01,-611.41 1197.01,-607.91 1187.01,-604.41 1187.01,-611.41"/>
<text text-anchor="middle" x="1126.5" y="-611.71" font-family="Times,serif" font-size="14.00">hot&#45;air&#45;barrel*1656</text>
</g>
<!-- &#45;5,5 (fluid=flue&#45;gas Flue gas) -->
<g id="node3" class="node">
<title>&#45;5,5 (fluid=flue&#45;gas Flue gas)</title>
<ellipse fill="none" stroke="black" cx="1235.53" cy="-947.42" rx="145.67" ry="18"/>
<text text-anchor="middle" x="1235.53" y="-943.72" font-family="Times,serif" font-size="14.00">&#45;5,5 (fluid=flue&#45;gas Flue gas)</text>
</g>
<!-- &#45;4,&#45;3 (Breath Deeply. Exhale. (Hot Air))&#45;&gt;&#45;5,5 (fluid=flue&#45;gas Flue gas) -->
<g id="edge2" class="edge">
<title>&#45;4,&#45;3 (Breath Deeply. Exhale. (Hot Air))&#45;&gt;&#45;5,5 (fluid=flue&#45;gas Flue gas)</title>
<path fill="none" stroke="black" stroke-width="2.23" d="M762.93,-625.93C846.86,-683.02 1106.98,-859.97 1201.1,-924"/>
<polygon fill="black" stroke="black" stroke-width="2.23" points="1199.18,-926.93 1209.42,-929.66 1203.12,-921.14 1199.18,-926.93"/>
<text text-anchor="middle" x="908.01" y="-778.76" font-family="Times,serif" font-size="14.00">hot&#45;air&#45;barrel*10080</text>
</g>
<!-- 2,1 (Niobium plates) -->
<g id="node4" class="node">
<title>2,1 (Niobium plates)</title>
<ellipse fill="none" stroke="black" cx="992.16" cy="-1154.69" rx="105.88" ry="18"/>
<text text-anchor="middle" x="992.16" y="-1150.99" font-family="Times,serif" font-size="14.00">2,1 (Niobium plates)</text>
</g>
<!-- &#45;4,&#45;3 (Breath Deeply. Exhale. (Hot Air))&#45;&gt;2,1 (Niobium plates) -->
<g id="edge3" class="edge">
<title>&#45;4,&#45;3 (Breath Deeply. Exhale. (Hot Air))&#45;&gt;2,1 (Niobium plates)</title>
<path fill="none" stroke="black" stroke-width="0.05" d="M744.96,-626.11C782.62,-706.63 934.44,-1031.27 979.5,-1127.61"/>
<polygon fill="black" stroke="black" stroke-width="0.05" points="976.35,-1129.13 983.75,-1136.71 982.69,-1126.16 976.35,-1129.13"/>
<text text-anchor="middle" x="797.23" y="-880.66" font-family="Times,serif" font-size="14.00">hot&#45;air&#45;barrel*216</text>
</g>
<!-- 4,6 (Circuit substrate and Doped silicon) -->
<g id="node5" class="node">
<title>4,6 (Circuit substrate and Doped silicon)</title>
<ellipse fill="none" stroke="black" cx="623.7" cy="-1200.91" rx="199.56" ry="18"/>
<text text-anchor="middle" x="623.7" y="-1197.21" font-family="Times,serif" font-size="14.00">4,6 (Circuit substrate and Doped silicon)</text>
</g>
<!-- &#45;4,&#45;3 (Breath Deeply. Exhale. (Hot Air))&#45;&gt;4,6 (Circuit substrate and Doped silicon) -->
<g id="edge4" class="edge">
<title>&#45;4,&#45;3 (Breath Deeply. Exhale. (Hot Air))&#45;&gt;4,6 (Circuit substrate and Doped silicon)</title>
<path fill="none" stroke="black" stroke-width="1.69" d="M733.01,-625.98C716.9,-710.72 648.79,-1068.92 629.07,-1172.65"/>
<polygon fill="black" stroke="black" stroke-width="1.69" points="625.59,-1172.21 627.16,-1182.69 632.47,-1173.52 625.59,-1172.21"/>
<text text-anchor="middle" x="611.54" y="-903.12" font-family="Times,serif" font-size="14.00">hot&#45;air&#45;barrel*7624</text>
</g>
<!-- 0,12 (Phosphate mining) -->
<g id="node6" class="node">
<title>0,12 (Phosphate mining)</title>
<ellipse fill="none" stroke="black" cx="285.17" cy="-1008.79" rx="124.58" ry="18"/>
<text text-anchor="middle" x="285.17" y="-1005.09" font-family="Times,serif" font-size="14.00">0,12 (Phosphate mining)</text>
</g>
<!-- &#45;4,&#45;3 (Breath Deeply. Exhale. (Hot Air))&#45;&gt;0,12 (Phosphate mining) -->
<g id="edge5" class="edge">
<title>&#45;4,&#45;3 (Breath Deeply. Exhale. (Hot Air))&#45;&gt;0,12 (Phosphate mining)</title>
<path fill="none" stroke="black" stroke-width="2" d="M716.18,-625.92C643.58,-690.41 396.37,-910.01 312.94,-984.13"/>
<polygon fill="black" stroke="black" stroke-width="2" points="310.54,-981.58 305.38,-990.84 315.18,-986.81 310.54,-981.58"/>
<text text-anchor="middle" x="445.06" y="-808.82" font-family="Times,serif" font-size="14.00">hot&#45;air&#45;barrel*9024</text>
</g>
<!-- &#45;2,&#45;3 (Trains) -->
<g id="node7" class="node">
<title>&#45;2,&#45;3 (Trains)</title>
<ellipse fill="none" stroke="black" cx="157.01" cy="-777.06" rx="70.39" ry="18"/>
<text text-anchor="middle" x="157.01" y="-773.36" font-family="Times,serif" font-size="14.00">&#45;2,&#45;3 (Trains)</text>
</g>
<!-- &#45;4,&#45;3 (Breath Deeply. Exhale. (Hot Air))&#45;&gt;&#45;2,&#45;3 (Trains) -->
<g id="edge6" class="edge">
<title>&#45;4,&#45;3 (Breath Deeply. Exhale. (Hot Air))&#45;&gt;&#45;2,&#45;3 (Trains)</title>
<path fill="none" stroke="black" stroke-width="0.88" d="M677.7,-625.06C565.82,-657.72 323.54,-728.45 213.47,-760.58"/>
<polygon fill="black" stroke="black" stroke-width="0.88" points="212.17,-757.31 203.55,-763.47 214.13,-764.03 212.17,-757.31"/>
<text text-anchor="middle" x="376.08" y="-696.62" font-family="Times,serif" font-size="14.00">hot&#45;air&#45;barrel*4000</text>
</g>
<!-- &#45;4,0 (item=lens Optical sets) -->
<g id="node8" class="node">
<title>&#45;4,0 (item=lens Optical sets)</title>
<ellipse fill="none" stroke="black" cx="143.64" cy="-494.21" rx="143.77" ry="18"/>
<text text-anchor="middle" x="143.64" y="-490.51" font-family="Times,serif" font-size="14.00">&#45;4,0 (item=lens Optical sets)</text>
</g>
<!-- &#45;4,&#45;3 (Breath Deeply. Exhale. (Hot Air))&#45;&gt;&#45;4,0 (item=lens Optical sets) -->
<g id="edge7" class="edge">
<title>&#45;4,&#45;3 (Breath Deeply. Exhale. (Hot Air))&#45;&gt;&#45;4,0 (item=lens Optical sets)</title>
<path fill="none" stroke="black" stroke-width="0.81" d="M652.14,-591.74C540.9,-570.41 345.97,-533.01 232.5,-511.25"/>
<polygon fill="black" stroke="black" stroke-width="0.81" points="232.93,-507.77 222.45,-509.32 231.61,-514.64 232.93,-507.77"/>
<text text-anchor="middle" x="372.82" y="-555.3" font-family="Times,serif" font-size="14.00">hot&#45;air&#45;barrel*3672</text>
</g>
<!-- &#45;1,11 (Steel Plate (from molten)) -->
<g id="node9" class="node">
<title>&#45;1,11 (Steel Plate (from molten))</title>
<ellipse fill="none" stroke="black" cx="321.91" cy="-169.15" rx="161.37" ry="18"/>
<text text-anchor="middle" x="321.91" y="-165.45" font-family="Times,serif" font-size="14.00">&#45;1,11 (Steel Plate (from molten))</text>
</g>
<!-- &#45;4,&#45;3 (Breath Deeply. Exhale. (Hot Air))&#45;&gt;&#45;1,11 (Steel Plate (from molten)) -->
<g id="edge8" class="edge">
<title>&#45;4,&#45;3 (Breath Deeply. Exhale. (Hot Air))&#45;&gt;&#45;1,11 (Steel Plate (from molten))</title>
<path fill="none" stroke="black" stroke-width="1.76" d="M719.43,-589.89C654.47,-521.14 422.04,-275.13 346.1,-194.76"/>
<polygon fill="black" stroke="black" stroke-width="1.76" points="348.26,-191.94 338.85,-187.08 343.17,-196.75 348.26,-191.94"/>
<text text-anchor="middle" x="463.26" y="-396.13" font-family="Times,serif" font-size="14.00">hot&#45;air&#45;barrel*7968</text>
</g>
<!-- &#45;1,10 (Iron Plates) -->
<g id="node10" class="node">
<title>&#45;1,10 (Iron Plates)</title>
<ellipse fill="none" stroke="black" cx="608.56" cy="-18" rx="94.78" ry="18"/>
<text text-anchor="middle" x="608.56" y="-14.3" font-family="Times,serif" font-size="14.00">&#45;1,10 (Iron Plates)</text>
</g>
<!-- &#45;4,&#45;3 (Breath Deeply. Exhale. (Hot Air))&#45;&gt;&#45;1,10 (Iron Plates) -->
<g id="edge9" class="edge">
<title>&#45;4,&#45;3 (Breath Deeply. Exhale. (Hot Air))&#45;&gt;&#45;1,10 (Iron Plates)</title>
<path fill="none" stroke="black" stroke-width="0.71" d="M732.48,-589.61C714.07,-504.71 636.96,-149.03 614.64,-46.05"/>
<polygon fill="black" stroke="black" stroke-width="0.71" points="618.02,-45.12 612.48,-36.09 611.17,-46.6 618.02,-45.12"/>
<text text-anchor="middle" x="604.06" y="-321.63" font-family="Times,serif" font-size="14.00">hot&#45;air&#45;barrel*3224</text>
</g>
<!-- 3,9 (Copper, molten &amp; plate) -->
<g id="node11" class="node">
<title>3,9 (Copper, molten &amp; plate)</title>
<ellipse fill="none" stroke="black" cx="915.38" cy="-31.43" rx="143.77" ry="18"/>
<text text-anchor="middle" x="915.38" y="-27.73" font-family="Times,serif" font-size="14.00">3,9 (Copper, molten &amp; plate)</text>
</g>
<!-- &#45;4,&#45;3 (Breath Deeply. Exhale. (Hot Air))&#45;&gt;3,9 (Copper, molten &amp; plate) -->
<g id="edge10" class="edge">
<title>&#45;4,&#45;3 (Breath Deeply. Exhale. (Hot Air))&#45;&gt;3,9 (Copper, molten &amp; plate)</title>
<path fill="none" stroke="black" stroke-width="0.72" d="M742.1,-589.71C767.97,-506.34 875.24,-160.75 906.68,-59.45"/>
<polygon fill="black" stroke="black" stroke-width="0.72" points="910.1,-60.22 909.73,-49.63 903.42,-58.15 910.1,-60.22"/>
<text text-anchor="middle" x="754.89" y="-328.38" font-family="Times,serif" font-size="14.00">hot&#45;air&#45;barrel*3248</text>
</g>
<!-- 2,10 (Nickel plate) -->
<g id="node12" class="node">
<title>2,10 (Nickel plate)</title>
<ellipse fill="none" stroke="black" cx="1177.21" cy="-195.51" rx="96.68" ry="18"/>
<text text-anchor="middle" x="1177.21" y="-191.81" font-family="Times,serif" font-size="14.00">2,10 (Nickel plate)</text>
</g>
<!-- &#45;4,&#45;3 (Breath Deeply. Exhale. (Hot Air))&#45;&gt;2,10 (Nickel plate) -->
<g id="edge11" class="edge">
<title>&#45;4,&#45;3 (Breath Deeply. Exhale. (Hot Air))&#45;&gt;2,10 (Nickel plate)</title>
<path fill="none" stroke="black" stroke-width="0.24" d="M755.67,-589.93C825.98,-524.15 1069.27,-296.51 1150.54,-220.46"/>
<polygon fill="black" stroke="black" stroke-width="0.24" points="1152.98,-222.98 1157.89,-213.59 1148.2,-217.86 1152.98,-222.98"/>
<text text-anchor="middle" x="883.61" y="-408.99" font-family="Times,serif" font-size="14.00">hot&#45;air&#45;barrel*1080</text>
</g>
<!-- 0,3 () -->
<g id="node13" class="node">
<title>0,3 ()</title>
<ellipse fill="none" stroke="black" cx="1289" cy="-364.92" rx="35.19" ry="18"/>
<text text-anchor="middle" x="1289" y="-361.22" font-family="Times,serif" font-size="14.00">0,3 ()</text>
</g>
<!-- &#45;4,&#45;3 (Breath Deeply. Exhale. (Hot Air))&#45;&gt;0,3 () -->
<g id="edge12" class="edge">
<title>&#45;4,&#45;3 (Breath Deeply. Exhale. (Hot Air))&#45;&gt;0,3 ()</title>
<path fill="none" stroke="black" stroke-width="0.54" d="M776.63,-590.24C880.1,-544.74 1154.44,-424.1 1253.05,-380.73"/>
<polygon fill="black" stroke="black" stroke-width="0.54" points="1254.56,-383.89 1262.31,-376.66 1251.75,-377.48 1254.56,-383.89"/>
<text text-anchor="middle" x="945.34" y="-489.29" font-family="Times,serif" font-size="14.00">hot&#45;air&#45;barrel*2448</text>
</g>
</g>
</svg>
