<?xml version="1.0" encoding="UTF-8" standalone="no"?>
<!DOCTYPE svg PUBLIC "-//W3C//DTD SVG 1.1//EN"
 "http://www.w3.org/Graphics/SVG/1.1/DTD/svg11.dtd">
<!-- Generated by graphviz version 2.43.0 (0)
 -->
<!-- Title: %3 Pages: 1 -->
<svg width="2240pt" height="1776pt"
 viewBox="0.00 0.00 2239.89 1776.40" xmlns="http://www.w3.org/2000/svg" xmlns:xlink="http://www.w3.org/1999/xlink">
<g id="graph0" class="graph" transform="scale(1 1) rotate(0) translate(4 1772.4)">
<title>%3</title>
<polygon fill="white" stroke="transparent" points="-4,4 -4,-1772.4 2235.89,-1772.4 2235.89,4 -4,4"/>
<!-- 2,&#45;1 (Ammonia) -->
<g id="node1" class="node">
<title>2,&#45;1 (Ammonia)</title>
<ellipse fill="none" stroke="black" cx="1771.33" cy="-318.83" rx="81.49" ry="18"/>
<text text-anchor="middle" x="1771.33" y="-315.13" font-family="Times,serif" font-size="14.00">2,&#45;1 (Ammonia)</text>
</g>
<!-- 0,0 (LE BUS) -->
<g id="node2" class="node">
<title>0,0 (LE BUS)</title>
<ellipse fill="none" stroke="black" cx="1250.28" cy="-18" rx="71.49" ry="18"/>
<text text-anchor="middle" x="1250.28" y="-14.3" font-family="Times,serif" font-size="14.00">0,0 (LE BUS)</text>
</g>
<!-- 2,&#45;1 (Ammonia)&#45;&gt;0,0 (LE BUS) -->
<g id="edge1" class="edge">
<title>2,&#45;1 (Ammonia)&#45;&gt;0,0 (LE BUS)</title>
<path fill="none" stroke="black" stroke-width="0.21" d="M1742.2,-302.01C1653.46,-250.77 1386.51,-96.65 1287.64,-39.57"/>
<polygon fill="black" stroke="black" stroke-width="0.21" points="1289.3,-36.48 1278.89,-34.52 1285.8,-42.55 1289.3,-36.48"/>
<text text-anchor="middle" x="1436.42" y="-174.59" font-family="Times,serif" font-size="14.00">ammonia&#45;barrel*2000</text>
</g>
<!-- &#45;4,4 (item=ammonium&#45;chloride Ammonium chloride) -->
<g id="node3" class="node">
<title>&#45;4,4 (item=ammonium&#45;chloride Ammonium chloride)</title>
<ellipse fill="none" stroke="black" cx="1977.11" cy="-884.2" rx="254.55" ry="18"/>
<text text-anchor="middle" x="1977.11" y="-880.5" font-family="Times,serif" font-size="14.00">&#45;4,4 (item=ammonium&#45;chloride Ammonium chloride)</text>
</g>
<!-- 2,&#45;1 (Ammonia)&#45;&gt;&#45;4,4 (item=ammonium&#45;chloride Ammonium chloride) -->
<g id="edge2" class="edge">
<title>2,&#45;1 (Ammonia)&#45;&gt;&#45;4,4 (item=ammonium&#45;chloride Ammonium chloride)</title>
<path fill="none" stroke="black" stroke-width="6.02" d="M1777.95,-337C1807.88,-419.24 1930.77,-756.88 1967.01,-856.44"/>
<polygon fill="black" stroke="black" stroke-width="6.02" points="1962.15,-858.5 1970.52,-866.1 1972.05,-854.9 1962.15,-858.5"/>
<text text-anchor="middle" x="1789.48" y="-600.52" font-family="Times,serif" font-size="14.00">ammonia&#45;barrel*57000</text>
</g>
<!-- 2,1 (Niobium plates) -->
<g id="node4" class="node">
<title>2,1 (Niobium plates)</title>
<ellipse fill="none" stroke="black" cx="657.76" cy="-122.48" rx="105.88" ry="18"/>
<text text-anchor="middle" x="657.76" y="-118.78" font-family="Times,serif" font-size="14.00">2,1 (Niobium plates)</text>
</g>
<!-- 2,&#45;1 (Ammonia)&#45;&gt;2,1 (Niobium plates) -->
<g id="edge3" class="edge">
<title>2,&#45;1 (Ammonia)&#45;&gt;2,1 (Niobium plates)</title>
<path fill="none" stroke="black" stroke-width="2.14" d="M1707.46,-307.57C1517.3,-274.04 954.84,-174.86 741.29,-137.2"/>
<polygon fill="black" stroke="black" stroke-width="2.14" points="741.84,-133.75 731.38,-135.46 740.62,-140.64 741.84,-133.75"/>
<text text-anchor="middle" x="1141.37" y="-226.19" font-family="Times,serif" font-size="14.00">ammonia&#45;barrel*20288</text>
</g>
<!-- 8,3 (Nylon mk2) -->
<g id="node5" class="node">
<title>8,3 (Nylon mk2)</title>
<ellipse fill="none" stroke="black" cx="271.03" cy="-583.37" rx="85.29" ry="18"/>
<text text-anchor="middle" x="271.03" y="-579.67" font-family="Times,serif" font-size="14.00">8,3 (Nylon mk2)</text>
</g>
<!-- 2,&#45;1 (Ammonia)&#45;&gt;8,3 (Nylon mk2) -->
<g id="edge4" class="edge">
<title>2,&#45;1 (Ammonia)&#45;&gt;8,3 (Nylon mk2)</title>
<path fill="none" stroke="black" stroke-width="1.63" d="M1707.35,-330.11C1465.46,-372.76 607.43,-524.06 346.71,-570.03"/>
<polygon fill="black" stroke="black" stroke-width="1.63" points="345.83,-566.63 336.59,-571.81 347.04,-573.52 345.83,-566.63"/>
<text text-anchor="middle" x="944.03" y="-453.87" font-family="Times,serif" font-size="14.00">ammonia&#45;barrel*15408</text>
</g>
<!-- 4,4 (Hydrogen Chloride, item=nylon Nylon/Nylon parts) -->
<g id="node6" class="node">
<title>4,4 (Hydrogen Chloride, item=nylon Nylon/Nylon parts)</title>
<ellipse fill="none" stroke="black" cx="271.03" cy="-1185.03" rx="271.05" ry="18"/>
<text text-anchor="middle" x="271.03" y="-1181.33" font-family="Times,serif" font-size="14.00">4,4 (Hydrogen Chloride, item=nylon Nylon/Nylon parts)</text>
</g>
<!-- 2,&#45;1 (Ammonia)&#45;&gt;4,4 (Hydrogen Chloride, item=nylon Nylon/Nylon parts) -->
<g id="edge5" class="edge">
<title>2,&#45;1 (Ammonia)&#45;&gt;4,4 (Hydrogen Chloride, item=nylon Nylon/Nylon parts)</title>
<path fill="none" stroke="black" stroke-width="0.24" d="M1742.04,-335.74C1554.82,-443.83 526.89,-1037.31 310.87,-1162.03"/>
<polygon fill="black" stroke="black" stroke-width="0.24" points="308.98,-1159.08 302.07,-1167.11 312.48,-1165.14 308.98,-1159.08"/>
<text text-anchor="middle" x="947.95" y="-752.69" font-family="Times,serif" font-size="14.00">ammonia&#45;barrel*2296</text>
</g>
<!-- 2,4 (Formica and Phenolic boards) -->
<g id="node8" class="node">
<title>2,4 (Formica and Phenolic boards)</title>
<ellipse fill="none" stroke="black" cx="657.76" cy="-1645.93" rx="169.77" ry="18"/>
<text text-anchor="middle" x="657.76" y="-1642.23" font-family="Times,serif" font-size="14.00">2,4 (Formica and Phenolic boards)</text>
</g>
<!-- 2,&#45;1 (Ammonia)&#45;&gt;2,4 (Formica and Phenolic boards) -->
<g id="edge8" class="edge">
<title>2,&#45;1 (Ammonia)&#45;&gt;2,4 (Formica and Phenolic boards)</title>
<path fill="none" stroke="black" stroke-width="0.53" d="M1756.43,-336.59C1636.07,-480.03 823.44,-1448.48 679.53,-1619.99"/>
<polygon fill="black" stroke="black" stroke-width="0.53" points="676.75,-1617.86 673,-1627.77 682.11,-1622.36 676.75,-1617.86"/>
<text text-anchor="middle" x="1139.48" y="-982.09" font-family="Times,serif" font-size="14.00">ammonia&#45;barrel*5000</text>
</g>
<!-- 3,3 (Random electronic components, Small Parts) -->
<g id="node9" class="node">
<title>3,3 (Random electronic components, Small Parts)</title>
<ellipse fill="none" stroke="black" cx="1250.28" cy="-1750.4" rx="240.46" ry="18"/>
<text text-anchor="middle" x="1250.28" y="-1746.7" font-family="Times,serif" font-size="14.00">3,3 (Random electronic components, Small Parts)</text>
</g>
<!-- 2,&#45;1 (Ammonia)&#45;&gt;3,3 (Random electronic components, Small Parts) -->
<g id="edge14" class="edge">
<title>2,&#45;1 (Ammonia)&#45;&gt;3,3 (Random electronic components, Small Parts)</title>
<path fill="none" stroke="black" stroke-width="0.11" d="M1764.74,-336.93C1709.77,-487.98 1327.6,-1537.98 1260.37,-1722.69"/>
<polygon fill="black" stroke="black" stroke-width="0.11" points="1257.03,-1721.63 1256.9,-1732.22 1263.61,-1724.02 1257.03,-1721.63"/>
<text text-anchor="middle" x="1434.06" y="-1033.61" font-family="Times,serif" font-size="14.00">ammonia&#45;barrel*1000</text>
</g>
<!-- 4,9 (Cyanic Acid, Ammonia is a by&#45;product) -->
<g id="node7" class="node">
<title>4,9 (Cyanic Acid, Ammonia is a by&#45;product)</title>
<ellipse fill="none" stroke="black" cx="1771.33" cy="-1449.58" rx="210.66" ry="18"/>
<text text-anchor="middle" x="1771.33" y="-1445.88" font-family="Times,serif" font-size="14.00">4,9 (Cyanic Acid, Ammonia is a by&#45;product)</text>
</g>
<!-- 4,9 (Cyanic Acid, Ammonia is a by&#45;product)&#45;&gt;0,0 (LE BUS) -->
<g id="edge11" class="edge">
<title>4,9 (Cyanic Acid, Ammonia is a by&#45;product)&#45;&gt;0,0 (LE BUS)</title>
<path fill="none" stroke="black" stroke-width="0.06" d="M1764.74,-1431.47C1709.77,-1280.43 1327.6,-230.43 1260.37,-45.72"/>
<polygon fill="black" stroke="black" stroke-width="0.06" points="1263.61,-44.38 1256.9,-36.18 1257.03,-46.77 1263.61,-44.38"/>
<text text-anchor="middle" x="1438.56" y="-742.4" font-family="Times,serif" font-size="14.00">ammonia&#45;barrel*528</text>
</g>
<!-- 4,9 (Cyanic Acid, Ammonia is a by&#45;product)&#45;&gt;&#45;4,4 (item=ammonium&#45;chloride Ammonium chloride) -->
<g id="edge7" class="edge">
<title>4,9 (Cyanic Acid, Ammonia is a by&#45;product)&#45;&gt;&#45;4,4 (item=ammonium&#45;chloride Ammonium chloride)</title>
<path fill="none" stroke="black" stroke-width="0.85" d="M1777.95,-1431.4C1807.88,-1349.17 1930.77,-1011.53 1967.01,-911.96"/>
<polygon fill="black" stroke="black" stroke-width="0.85" points="1970.39,-912.9 1970.52,-902.31 1963.81,-910.5 1970.39,-912.9"/>
<text text-anchor="middle" x="1793.98" y="-1175.48" font-family="Times,serif" font-size="14.00">ammonia&#45;barrel*8096</text>
</g>
<!-- 4,9 (Cyanic Acid, Ammonia is a by&#45;product)&#45;&gt;2,1 (Niobium plates) -->
<g id="edge6" class="edge">
<title>4,9 (Cyanic Acid, Ammonia is a by&#45;product)&#45;&gt;2,1 (Niobium plates)</title>
<path fill="none" stroke="black" stroke-width="1.46" d="M1756.01,-1431.32C1634.19,-1286.13 823.11,-319.53 679.48,-148.36"/>
<polygon fill="black" stroke="black" stroke-width="1.46" points="682.08,-146.01 672.97,-140.6 676.72,-150.51 682.08,-146.01"/>
<text text-anchor="middle" x="1134.75" y="-793.64" font-family="Times,serif" font-size="14.00">ammonia&#45;barrel*13822</text>
</g>
<!-- 4,9 (Cyanic Acid, Ammonia is a by&#45;product)&#45;&gt;8,3 (Nylon mk2) -->
<g id="edge9" class="edge">
<title>4,9 (Cyanic Acid, Ammonia is a by&#45;product)&#45;&gt;8,3 (Nylon mk2)</title>
<path fill="none" stroke="black" stroke-width="0.51" d="M1740.34,-1431.68C1548.22,-1320.76 521.1,-727.75 309.26,-605.45"/>
<polygon fill="black" stroke="black" stroke-width="0.51" points="310.77,-602.28 300.36,-600.31 307.27,-608.34 310.77,-602.28"/>
<text text-anchor="middle" x="946.3" y="-1022.36" font-family="Times,serif" font-size="14.00">ammonia&#45;barrel*4872</text>
</g>
<!-- 4,9 (Cyanic Acid, Ammonia is a by&#45;product)&#45;&gt;4,4 (Hydrogen Chloride, item=nylon Nylon/Nylon parts) -->
<g id="edge12" class="edge">
<title>4,9 (Cyanic Acid, Ammonia is a by&#45;product)&#45;&gt;4,4 (Hydrogen Chloride, item=nylon Nylon/Nylon parts)</title>
<path fill="none" stroke="black" stroke-width="0.03" d="M1679.46,-1433.38C1415.71,-1386.87 657.17,-1253.12 376.82,-1203.69"/>
<polygon fill="black" stroke="black" stroke-width="0.03" points="377.11,-1200.18 366.65,-1201.89 375.89,-1207.08 377.11,-1200.18"/>
<text text-anchor="middle" x="954.14" y="-1322.33" font-family="Times,serif" font-size="14.00">ammonia&#45;barrel*272</text>
</g>
<!-- 4,9 (Cyanic Acid, Ammonia is a by&#45;product)&#45;&gt;2,4 (Formica and Phenolic boards) -->
<g id="edge10" class="edge">
<title>4,9 (Cyanic Acid, Ammonia is a by&#45;product)&#45;&gt;2,4 (Formica and Phenolic boards)</title>
<path fill="none" stroke="black" stroke-width="0.12" d="M1679.26,-1465.81C1471.51,-1502.44 967.96,-1591.23 755.21,-1628.74"/>
<polygon fill="black" stroke="black" stroke-width="0.12" points="754.55,-1625.31 745.31,-1630.49 755.76,-1632.2 754.55,-1625.31"/>
<text text-anchor="middle" x="1138.74" y="-1551.08" font-family="Times,serif" font-size="14.00">ammonia&#45;barrel*1104</text>
</g>
<!-- 4,9 (Cyanic Acid, Ammonia is a by&#45;product)&#45;&gt;3,3 (Random electronic components, Small Parts) -->
<g id="edge13" class="edge">
<title>4,9 (Cyanic Acid, Ammonia is a by&#45;product)&#45;&gt;3,3 (Random electronic components, Small Parts)</title>
<path fill="none" stroke="black" stroke-width="0.1" d="M1740.3,-1467.49C1650.54,-1519.32 1390.65,-1669.36 1290.39,-1727.24"/>
<polygon fill="black" stroke="black" stroke-width="0.1" points="1288.39,-1724.36 1281.48,-1732.39 1291.89,-1730.42 1288.39,-1724.36"/>
<text text-anchor="middle" x="1441.35" y="-1601.17" font-family="Times,serif" font-size="14.00">ammonia&#45;barrel*912</text>
</g>
</g>
</svg>
