<?xml version="1.0" encoding="UTF-8" standalone="no"?>
<!DOCTYPE svg PUBLIC "-//W3C//DTD SVG 1.1//EN"
 "http://www.w3.org/Graphics/SVG/1.1/DTD/svg11.dtd">
<!-- Generated by graphviz version 2.43.0 (0)
 -->
<!-- Title: %3 Pages: 1 -->
<svg width="1850pt" height="1525pt"
 viewBox="0.00 0.00 1849.64 1524.92" xmlns="http://www.w3.org/2000/svg" xmlns:xlink="http://www.w3.org/1999/xlink">
<g id="graph0" class="graph" transform="scale(1 1) rotate(0) translate(4 1520.92)">
<title>%3</title>
<polygon fill="white" stroke="transparent" points="-4,4 -4,-1520.92 1845.64,-1520.92 1845.64,4 -4,4"/>
<!-- 0,0 (LE BUS) -->
<g id="node1" class="node">
<title>0,0 (LE BUS)</title>
<ellipse fill="none" stroke="black" cx="1518.82" cy="-234.88" rx="71.49" ry="18"/>
<text text-anchor="middle" x="1518.82" y="-231.18" font-family="Times,serif" font-size="14.00">0,0 (LE BUS)</text>
</g>
<!-- 3,0 (Zinc Chloride) -->
<g id="node2" class="node">
<title>3,0 (Zinc Chloride)</title>
<ellipse fill="none" stroke="black" cx="995.24" cy="-1498.92" rx="97.48" ry="18"/>
<text text-anchor="middle" x="995.24" y="-1495.22" font-family="Times,serif" font-size="14.00">3,0 (Zinc Chloride)</text>
</g>
<!-- 0,0 (LE BUS)&#45;&gt;3,0 (Zinc Chloride) -->
<g id="edge1" class="edge">
<title>0,0 (LE BUS)&#45;&gt;3,0 (Zinc Chloride)</title>
<path fill="none" stroke="black" stroke-width="0.78" d="M1511.22,-253.23C1452.89,-394.03 1076.89,-1301.78 1006.56,-1471.58"/>
<polygon fill="black" stroke="black" stroke-width="0.78" points="1003.32,-1470.26 1002.73,-1480.83 1009.79,-1472.94 1003.32,-1470.26"/>
<text text-anchor="middle" x="1148.39" y="-866.2" font-family="Times,serif" font-size="14.00">hydrogen&#45;chloride&#45;barrel*6646</text>
</g>
<!-- 1,4 (Casein and Melamine) -->
<g id="node4" class="node">
<title>1,4 (Casein and Melamine)</title>
<ellipse fill="none" stroke="black" cx="995.24" cy="-18" rx="135.38" ry="18"/>
<text text-anchor="middle" x="995.24" y="-14.3" font-family="Times,serif" font-size="14.00">1,4 (Casein and Melamine)</text>
</g>
<!-- 0,0 (LE BUS)&#45;&gt;1,4 (Casein and Melamine) -->
<g id="edge3" class="edge">
<title>0,0 (LE BUS)&#45;&gt;1,4 (Casein and Melamine)</title>
<path fill="none" stroke="black" stroke-width="0.22" d="M1481.58,-219.45C1389.6,-181.35 1151.5,-82.73 1046.39,-39.19"/>
<polygon fill="black" stroke="black" stroke-width="0.22" points="1047.52,-35.87 1036.95,-35.28 1044.84,-42.34 1047.52,-35.87"/>
<text text-anchor="middle" x="1153.49" y="-133.12" font-family="Times,serif" font-size="14.00">hydrogen&#45;chloride&#45;barrel*1888</text>
</g>
<!-- 2,1 (Niobium plates) -->
<g id="node5" class="node">
<title>2,1 (Niobium plates)</title>
<ellipse fill="none" stroke="black" cx="1735.69" cy="-758.46" rx="105.88" ry="18"/>
<text text-anchor="middle" x="1735.69" y="-754.76" font-family="Times,serif" font-size="14.00">2,1 (Niobium plates)</text>
</g>
<!-- 0,0 (LE BUS)&#45;&gt;2,1 (Niobium plates) -->
<g id="edge4" class="edge">
<title>0,0 (LE BUS)&#45;&gt;2,1 (Niobium plates)</title>
<path fill="none" stroke="black" stroke-width="0.39" d="M1526.28,-252.9C1558.44,-330.54 1685.29,-636.76 1724.25,-730.83"/>
<polygon fill="black" stroke="black" stroke-width="0.39" points="1721.09,-732.34 1728.15,-740.24 1727.56,-729.66 1721.09,-732.34"/>
<text text-anchor="middle" x="1514.77" y="-495.66" font-family="Times,serif" font-size="14.00">hydrogen&#45;chloride&#45;barrel*3296</text>
</g>
<!-- &#45;4,4 (item=ammonium&#45;chloride Ammonium chloride) -->
<g id="node6" class="node">
<title>&#45;4,4 (item=ammonium&#45;chloride Ammonium chloride)</title>
<ellipse fill="none" stroke="black" cx="254.78" cy="-758.46" rx="254.55" ry="18"/>
<text text-anchor="middle" x="254.78" y="-754.76" font-family="Times,serif" font-size="14.00">&#45;4,4 (item=ammonium&#45;chloride Ammonium chloride)</text>
</g>
<!-- 0,0 (LE BUS)&#45;&gt;&#45;4,4 (item=ammonium&#45;chloride Ammonium chloride) -->
<g id="edge5" class="edge">
<title>0,0 (LE BUS)&#45;&gt;&#45;4,4 (item=ammonium&#45;chloride Ammonium chloride)</title>
<path fill="none" stroke="black" stroke-width="1.47" d="M1481.67,-250.26C1301.34,-324.96 517.32,-649.71 306.91,-736.87"/>
<polygon fill="black" stroke="black" stroke-width="1.47" points="305.52,-733.65 297.62,-740.71 308.2,-740.12 305.52,-733.65"/>
<text text-anchor="middle" x="779.29" y="-497.36" font-family="Times,serif" font-size="14.00">hydrogen&#45;chloride&#45;barrel*12499</text>
</g>
<!-- 8,3 (Nylon mk2) -->
<g id="node3" class="node">
<title>8,3 (Nylon mk2)</title>
<ellipse fill="none" stroke="black" cx="471.65" cy="-234.88" rx="85.29" ry="18"/>
<text text-anchor="middle" x="471.65" y="-231.18" font-family="Times,serif" font-size="14.00">8,3 (Nylon mk2)</text>
</g>
<!-- 8,3 (Nylon mk2)&#45;&gt;3,0 (Zinc Chloride) -->
<g id="edge2" class="edge">
<title>8,3 (Nylon mk2)&#45;&gt;3,0 (Zinc Chloride)</title>
<path fill="none" stroke="black" stroke-width="1.41" d="M479.26,-253.23C537.58,-394.03 913.58,-1301.78 983.91,-1471.58"/>
<polygon fill="black" stroke="black" stroke-width="1.41" points="980.69,-1472.94 987.75,-1480.83 987.15,-1470.26 980.69,-1472.94"/>
<text text-anchor="middle" x="616.58" y="-866.2" font-family="Times,serif" font-size="14.00">hydrogen&#45;chloride&#45;barrel*11955</text>
</g>
<!-- 8,3 (Nylon mk2)&#45;&gt;1,4 (Casein and Melamine) -->
<g id="edge8" class="edge">
<title>8,3 (Nylon mk2)&#45;&gt;1,4 (Casein and Melamine)</title>
<path fill="none" stroke="black" stroke-width="0.41" d="M510.58,-218.75C603.77,-180.15 839.69,-82.43 944.14,-39.17"/>
<polygon fill="black" stroke="black" stroke-width="0.41" points="945.63,-42.34 953.52,-35.28 942.95,-35.87 945.63,-42.34"/>
<text text-anchor="middle" x="616.86" y="-132.76" font-family="Times,serif" font-size="14.00">hydrogen&#45;chloride&#45;barrel*3440</text>
</g>
<!-- 8,3 (Nylon mk2)&#45;&gt;2,1 (Niobium plates) -->
<g id="edge9" class="edge">
<title>8,3 (Nylon mk2)&#45;&gt;2,1 (Niobium plates)</title>
<path fill="none" stroke="black" stroke-width="0.8" d="M510.52,-250.97C694.76,-327.29 1479.8,-652.47 1685.95,-737.85"/>
<polygon fill="black" stroke="black" stroke-width="0.8" points="1684.75,-741.14 1695.32,-741.74 1687.43,-734.68 1684.75,-741.14"/>
<text text-anchor="middle" x="1208.74" y="-498.21" font-family="Times,serif" font-size="14.00">hydrogen&#45;chloride&#45;barrel*6777</text>
</g>
<!-- 8,3 (Nylon mk2)&#45;&gt;&#45;4,4 (item=ammonium&#45;chloride Ammonium chloride) -->
<g id="edge7" class="edge">
<title>8,3 (Nylon mk2)&#45;&gt;&#45;4,4 (item=ammonium&#45;chloride Ammonium chloride)</title>
<path fill="none" stroke="black" stroke-width="1.78" d="M464.19,-252.9C432.03,-330.54 305.19,-636.76 266.22,-730.83"/>
<polygon fill="black" stroke="black" stroke-width="1.78" points="262.92,-729.66 262.32,-740.24 269.38,-732.34 262.92,-729.66"/>
<text text-anchor="middle" x="250.21" y="-495.66" font-family="Times,serif" font-size="14.00">hydrogen&#45;chloride&#45;barrel*15122</text>
</g>
<!-- 2,&#45;6 (Hydrogen Chloride (bus)) -->
<g id="node7" class="node">
<title>2,&#45;6 (Hydrogen Chloride (bus))</title>
<ellipse fill="none" stroke="black" cx="471.65" cy="-1282.04" rx="152.97" ry="18"/>
<text text-anchor="middle" x="471.65" y="-1278.34" font-family="Times,serif" font-size="14.00">2,&#45;6 (Hydrogen Chloride (bus))</text>
</g>
<!-- 2,&#45;6 (Hydrogen Chloride (bus))&#45;&gt;3,0 (Zinc Chloride) -->
<g id="edge10" class="edge">
<title>2,&#45;6 (Hydrogen Chloride (bus))&#45;&gt;3,0 (Zinc Chloride)</title>
<path fill="none" stroke="black" stroke-width="1.25" d="M513.61,-1299.42C609.29,-1339.05 843.22,-1435.95 945.74,-1478.41"/>
<polygon fill="black" stroke="black" stroke-width="1.25" points="944.66,-1481.76 955.24,-1482.35 947.34,-1475.29 944.66,-1481.76"/>
<text text-anchor="middle" x="614.68" y="-1392.72" font-family="Times,serif" font-size="14.00">hydrogen&#45;chloride&#45;barrel*10586</text>
</g>
<!-- 2,&#45;6 (Hydrogen Chloride (bus))&#45;&gt;1,4 (Casein and Melamine) -->
<g id="edge6" class="edge">
<title>2,&#45;6 (Hydrogen Chloride (bus))&#45;&gt;1,4 (Casein and Melamine)</title>
<path fill="none" stroke="black" stroke-width="0.32" d="M479.26,-1263.69C537.58,-1122.89 913.58,-215.14 983.91,-45.34"/>
<polygon fill="black" stroke="black" stroke-width="0.32" points="987.15,-46.66 987.75,-36.08 980.69,-43.98 987.15,-46.66"/>
<text text-anchor="middle" x="621.08" y="-658.31" font-family="Times,serif" font-size="14.00">hydrogen&#45;chloride&#45;barrel*2677</text>
</g>
<!-- 2,&#45;6 (Hydrogen Chloride (bus))&#45;&gt;2,1 (Niobium plates) -->
<g id="edge12" class="edge">
<title>2,&#45;6 (Hydrogen Chloride (bus))&#45;&gt;2,1 (Niobium plates)</title>
<path fill="none" stroke="black" stroke-width="0.2" d="M513.71,-1264.62C703.68,-1185.93 1481.29,-863.84 1686.08,-779.01"/>
<polygon fill="black" stroke="black" stroke-width="0.2" points="1687.49,-782.21 1695.39,-775.15 1684.81,-775.75 1687.49,-782.21"/>
<text text-anchor="middle" x="989.39" y="-1010.62" font-family="Times,serif" font-size="14.00">hydrogen&#45;chloride&#45;barrel*1680</text>
</g>
<!-- 2,&#45;6 (Hydrogen Chloride (bus))&#45;&gt;&#45;4,4 (item=ammonium&#45;chloride Ammonium chloride) -->
<g id="edge11" class="edge">
<title>2,&#45;6 (Hydrogen Chloride (bus))&#45;&gt;&#45;4,4 (item=ammonium&#45;chloride Ammonium chloride)</title>
<path fill="none" stroke="black" stroke-width="0.8" d="M464.19,-1264.02C432.03,-1186.38 305.19,-880.16 266.22,-786.09"/>
<polygon fill="black" stroke="black" stroke-width="0.8" points="269.38,-784.58 262.32,-776.68 262.92,-787.25 269.38,-784.58"/>
<text text-anchor="middle" x="254.71" y="-1028.86" font-family="Times,serif" font-size="14.00">hydrogen&#45;chloride&#45;barrel*6802</text>
</g>
<!-- 4,&#45;6 () -->
<g id="node8" class="node">
<title>4,&#45;6 ()</title>
<ellipse fill="none" stroke="black" cx="1518.82" cy="-1282.04" rx="38.19" ry="18"/>
<text text-anchor="middle" x="1518.82" y="-1278.34" font-family="Times,serif" font-size="14.00">4,&#45;6 ()</text>
</g>
<!-- 4,&#45;6 ()&#45;&gt;3,0 (Zinc Chloride) -->
<g id="edge13" class="edge">
<title>4,&#45;6 ()&#45;&gt;3,0 (Zinc Chloride)</title>
<path fill="none" stroke="black" stroke-width="2.61" d="M1489.92,-1294.01C1404.39,-1329.44 1151.79,-1434.07 1044.42,-1478.54"/>
<polygon fill="black" stroke="black" stroke-width="2.61" points="1043,-1475.34 1035.11,-1482.4 1045.68,-1481.81 1043,-1475.34"/>
<text text-anchor="middle" x="1152.17" y="-1390.08" font-family="Times,serif" font-size="14.00">hydrogen&#45;chloride&#45;barrel*22160</text>
</g>
<!-- 4,&#45;6 ()&#45;&gt;1,4 (Casein and Melamine) -->
<g id="edge15" class="edge">
<title>4,&#45;6 ()&#45;&gt;1,4 (Casein and Melamine)</title>
<path fill="none" stroke="black" stroke-width="0.18" d="M1511.42,-1264.17C1453.77,-1125.01 1077.06,-215.53 1006.58,-45.39"/>
<polygon fill="black" stroke="black" stroke-width="0.18" points="1009.8,-44.02 1002.74,-36.12 1003.33,-46.7 1009.8,-44.02"/>
<text text-anchor="middle" x="1148.5" y="-658.58" font-family="Times,serif" font-size="14.00">hydrogen&#45;chloride&#45;barrel*1520</text>
</g>
<!-- 4,&#45;6 ()&#45;&gt;2,1 (Niobium plates) -->
<g id="edge16" class="edge">
<title>4,&#45;6 ()&#45;&gt;2,1 (Niobium plates)</title>
<path fill="none" stroke="black" stroke-width="0.32" d="M1526.16,-1264.32C1558.14,-1187.11 1685.47,-879.72 1724.36,-785.83"/>
<polygon fill="black" stroke="black" stroke-width="0.32" points="1727.65,-787.02 1728.24,-776.44 1721.18,-784.34 1727.65,-787.02"/>
<text text-anchor="middle" x="1514.76" y="-1028.88" font-family="Times,serif" font-size="14.00">hydrogen&#45;chloride&#45;barrel*2720</text>
</g>
<!-- 4,&#45;6 ()&#45;&gt;&#45;4,4 (item=ammonium&#45;chloride Ammonium chloride) -->
<g id="edge14" class="edge">
<title>4,&#45;6 ()&#45;&gt;&#45;4,4 (item=ammonium&#45;chloride Ammonium chloride)</title>
<path fill="none" stroke="black" stroke-width="3.07" d="M1490.04,-1270.12C1327.27,-1202.7 521.62,-868.99 307.25,-780.19"/>
<polygon fill="black" stroke="black" stroke-width="3.07" points="308.37,-776.87 297.79,-776.27 305.69,-783.33 308.37,-776.87"/>
<text text-anchor="middle" x="783.65" y="-1028.96" font-family="Times,serif" font-size="14.00">hydrogen&#45;chloride&#45;barrel*26079</text>
</g>
</g>
</svg>
