<?xml version="1.0" encoding="UTF-8" standalone="no"?>
<!DOCTYPE svg PUBLIC "-//W3C//DTD SVG 1.1//EN"
 "http://www.w3.org/Graphics/SVG/1.1/DTD/svg11.dtd">
<!-- Generated by graphviz version 2.43.0 (0)
 -->
<!-- Title: %3 Pages: 1 -->
<svg width="1017pt" height="44pt"
 viewBox="0.00 0.00 1017.07 44.00" xmlns="http://www.w3.org/2000/svg" xmlns:xlink="http://www.w3.org/1999/xlink">
<g id="graph0" class="graph" transform="scale(1 1) rotate(0) translate(4 40)">
<title>%3</title>
<polygon fill="white" stroke="transparent" points="-4,4 -4,-40 1013.07,-40 1013.07,4 -4,4"/>
<!-- &#45;3,5 (fluid=arqad&#45;honey Honey) -->
<g id="node1" class="node">
<title>&#45;3,5 (fluid=arqad&#45;honey Honey)</title>
<ellipse fill="none" stroke="black" cx="520.46" cy="-18" rx="157.07" ry="18"/>
<text text-anchor="middle" x="520.46" y="-14.3" font-family="Times,serif" font-size="14.00">&#45;3,5 (fluid=arqad&#45;honey Honey)</text>
</g>
<!-- &#45;3,2 (Lead and Solder) -->
<g id="node2" class="node">
<title>&#45;3,2 (Lead and Solder)</title>
<ellipse fill="none" stroke="black" cx="895.33" cy="-18" rx="113.98" ry="18"/>
<text text-anchor="middle" x="895.33" y="-14.3" font-family="Times,serif" font-size="14.00">&#45;3,2 (Lead and Solder)</text>
</g>
<!-- &#45;3,5 (fluid=arqad&#45;honey Honey)&#45;&gt;&#45;3,2 (Lead and Solder) -->
<g id="edge1" class="edge">
<title>&#45;3,5 (fluid=arqad&#45;honey Honey)&#45;&gt;&#45;3,2 (Lead and Solder)</title>
<path fill="none" stroke="black" stroke-width="0.93" d="M677.81,-18C709.04,-18 741.42,-18 771.35,-18"/>
<polygon fill="black" stroke="black" stroke-width="0.93" points="771.4,-21.5 781.4,-18 771.4,-14.5 771.4,-21.5"/>
<text text-anchor="middle" x="724.58" y="-6.8" font-family="Times,serif" font-size="14.00">ore&#45;lead*329880</text>
</g>
<!-- &#45;3,3 (Lead dust (silver plate)) -->
<g id="node3" class="node">
<title>&#45;3,3 (Lead dust (silver plate))</title>
<ellipse fill="none" stroke="black" cx="145.59" cy="-18" rx="145.67" ry="18"/>
<text text-anchor="middle" x="145.59" y="-14.3" font-family="Times,serif" font-size="14.00">&#45;3,3 (Lead dust (silver plate))</text>
</g>
<!-- &#45;3,5 (fluid=arqad&#45;honey Honey)&#45;&gt;&#45;3,3 (Lead dust (silver plate)) -->
<g id="edge2" class="edge">
<title>&#45;3,5 (fluid=arqad&#45;honey Honey)&#45;&gt;&#45;3,3 (Lead dust (silver plate))</title>
<path fill="none" stroke="black" stroke-width="1.07" d="M363.11,-18C342.71,-18 321.83,-18 301.45,-18"/>
<polygon fill="black" stroke="black" stroke-width="1.07" points="301.18,-14.5 291.18,-18 301.18,-21.5 301.18,-14.5"/>
<text text-anchor="middle" x="302.53" y="-6.8" font-family="Times,serif" font-size="14.00">ore&#45;lead*380760</text>
</g>
</g>
</svg>
