<?xml version="1.0" encoding="UTF-8" standalone="no"?>
<!DOCTYPE svg PUBLIC "-//W3C//DTD SVG 1.1//EN"
 "http://www.w3.org/Graphics/SVG/1.1/DTD/svg11.dtd">
<!-- Generated by graphviz version 2.43.0 (0)
 -->
<!-- Title: %3 Pages: 1 -->
<svg width="541pt" height="44pt"
 viewBox="0.00 0.00 540.63 44.00" xmlns="http://www.w3.org/2000/svg" xmlns:xlink="http://www.w3.org/1999/xlink">
<g id="graph0" class="graph" transform="scale(1 1) rotate(0) translate(4 40)">
<title>%3</title>
<polygon fill="white" stroke="transparent" points="-4,4 -4,-40 536.63,-40 536.63,4 -4,4"/>
<!-- 0,0 (LE BUS) -->
<g id="node1" class="node">
<title>0,0 (LE BUS)</title>
<ellipse fill="none" stroke="black" cx="266.31" cy="-18" rx="71.49" ry="18"/>
<text text-anchor="middle" x="266.31" y="-14.3" font-family="Times,serif" font-size="14.00">0,0 (LE BUS)</text>
</g>
<!-- &#45;7,&#45;5 () -->
<g id="node2" class="node">
<title>&#45;7,&#45;5 ()</title>
<ellipse fill="none" stroke="black" cx="450.75" cy="-18" rx="40.89" ry="18"/>
<text text-anchor="middle" x="450.75" y="-14.3" font-family="Times,serif" font-size="14.00">&#45;7,&#45;5 ()</text>
</g>
<!-- 0,0 (LE BUS)&#45;&gt;&#45;7,&#45;5 () -->
<g id="edge1" class="edge">
<title>0,0 (LE BUS)&#45;&gt;&#45;7,&#45;5 ()</title>
<path fill="none" stroke="black" stroke-width="0.7" d="M337.89,-18C358.39,-18 380.33,-18 399.36,-18"/>
<polygon fill="black" stroke="black" stroke-width="0.7" points="399.61,-21.5 409.61,-18 399.61,-14.5 399.61,-21.5"/>
<text text-anchor="middle" x="450.63" y="-21.8" font-family="Times,serif" font-size="14.00">py&#45;logistic&#45;robot&#45;01*52</text>
</g>
<!-- &#45;8,&#45;2 () -->
<g id="node3" class="node">
<title>&#45;8,&#45;2 ()</title>
<ellipse fill="none" stroke="black" cx="81.87" cy="-18" rx="40.89" ry="18"/>
<text text-anchor="middle" x="81.87" y="-14.3" font-family="Times,serif" font-size="14.00">&#45;8,&#45;2 ()</text>
</g>
<!-- 0,0 (LE BUS)&#45;&gt;&#45;8,&#45;2 () -->
<g id="edge2" class="edge">
<title>0,0 (LE BUS)&#45;&gt;&#45;8,&#45;2 ()</title>
<path fill="none" stroke="black" stroke-width="1.3" d="M194.74,-18C174.23,-18 152.29,-18 133.26,-18"/>
<polygon fill="black" stroke="black" stroke-width="1.3" points="133.01,-14.5 123.01,-18 133.01,-21.5 133.01,-14.5"/>
<text text-anchor="middle" x="82" y="-21.8" font-family="Times,serif" font-size="14.00">py&#45;logistic&#45;robot&#45;01*96</text>
</g>
</g>
</svg>
