<?xml version="1.0" encoding="UTF-8" standalone="no"?>
<!DOCTYPE svg PUBLIC "-//W3C//DTD SVG 1.1//EN"
 "http://www.w3.org/Graphics/SVG/1.1/DTD/svg11.dtd">
<!-- Generated by graphviz version 2.43.0 (0)
 -->
<!-- Title: %3 Pages: 1 -->
<svg width="1600pt" height="1497pt"
 viewBox="0.00 0.00 1599.91 1496.57" xmlns="http://www.w3.org/2000/svg" xmlns:xlink="http://www.w3.org/1999/xlink">
<g id="graph0" class="graph" transform="scale(1 1) rotate(0) translate(4 1492.57)">
<title>%3</title>
<polygon fill="white" stroke="transparent" points="-4,4 -4,-1492.57 1595.91,-1492.57 1595.91,4 -4,4"/>
<!-- &#45;5,&#45;1 (Coal and Coke and Syngas and Ash and Coke Oven Gas and...) -->
<g id="node1" class="node">
<title>&#45;5,&#45;1 (Coal and Coke and Syngas and Ash and Coke Oven Gas and...)</title>
<ellipse fill="none" stroke="black" cx="762.47" cy="-748.98" rx="325.74" ry="18"/>
<text text-anchor="middle" x="762.47" y="-745.28" font-family="Times,serif" font-size="14.00">&#45;5,&#45;1 (Coal and Coke and Syngas and Ash and Coke Oven Gas and...)</text>
</g>
<!-- 0,0 (LE BUS) -->
<g id="node2" class="node">
<title>0,0 (LE BUS)</title>
<ellipse fill="none" stroke="black" cx="1520.41" cy="-748.98" rx="71.49" ry="18"/>
<text text-anchor="middle" x="1520.41" y="-745.28" font-family="Times,serif" font-size="14.00">0,0 (LE BUS)</text>
</g>
<!-- &#45;5,&#45;1 (Coal and Coke and Syngas and Ash and Coke Oven Gas and...)&#45;&gt;0,0 (LE BUS) -->
<g id="edge1" class="edge">
<title>&#45;5,&#45;1 (Coal and Coke and Syngas and Ash and Coke Oven Gas and...)&#45;&gt;0,0 (LE BUS)</title>
<path fill="none" stroke="black" stroke-width="0.58" d="M1088.3,-748.98C1217.08,-748.98 1354.21,-748.98 1438.61,-748.98"/>
<polygon fill="black" stroke="black" stroke-width="0.58" points="1438.64,-752.48 1448.64,-748.98 1438.64,-745.48 1438.64,-752.48"/>
<text text-anchor="middle" x="1222.96" y="-752.78" font-family="Times,serif" font-size="14.00">coal*22608</text>
</g>
<!-- 1,7 (Activated Carbon) -->
<g id="node3" class="node">
<title>1,7 (Activated Carbon)</title>
<ellipse fill="none" stroke="black" cx="449.94" cy="-1156.17" rx="115.88" ry="18"/>
<text text-anchor="middle" x="449.94" y="-1152.47" font-family="Times,serif" font-size="14.00">1,7 (Activated Carbon)</text>
</g>
<!-- &#45;5,&#45;1 (Coal and Coke and Syngas and Ash and Coke Oven Gas and...)&#45;&gt;1,7 (Activated Carbon) -->
<g id="edge2" class="edge">
<title>&#45;5,&#45;1 (Coal and Coke and Syngas and Ash and Coke Oven Gas and...)&#45;&gt;1,7 (Activated Carbon)</title>
<path fill="none" stroke="black" stroke-width="2.94" d="M748.64,-767C698.93,-831.76 529.18,-1052.93 470.27,-1129.68"/>
<polygon fill="black" stroke="black" stroke-width="2.94" points="467.28,-1127.83 463.96,-1137.9 472.83,-1132.1 467.28,-1127.83"/>
<text text-anchor="middle" x="564.45" y="-952.14" font-family="Times,serif" font-size="14.00">coal*113952</text>
</g>
<!-- &#45;1,7 (Rayon) -->
<g id="node5" class="node">
<title>&#45;1,7 (Rayon)</title>
<ellipse fill="none" stroke="black" cx="562.09" cy="-18" rx="66.89" ry="18"/>
<text text-anchor="middle" x="562.09" y="-14.3" font-family="Times,serif" font-size="14.00">&#45;1,7 (Rayon)</text>
</g>
<!-- &#45;5,&#45;1 (Coal and Coke and Syngas and Ash and Coke Oven Gas and...)&#45;&gt;&#45;1,7 (Rayon) -->
<g id="edge4" class="edge">
<title>&#45;5,&#45;1 (Coal and Coke and Syngas and Ash and Coke Oven Gas and...)&#45;&gt;&#45;1,7 (Rayon)</title>
<path fill="none" stroke="black" stroke-width="0.13" d="M757.52,-730.91C730.67,-632.95 602.56,-165.61 569.76,-45.96"/>
<polygon fill="black" stroke="black" stroke-width="0.13" points="573.07,-44.81 567.05,-36.09 566.32,-46.66 573.07,-44.81"/>
<text text-anchor="middle" x="627.64" y="-392.23" font-family="Times,serif" font-size="14.00">coal*5056</text>
</g>
<!-- &#45;2,8 (syngas from coal dust and also wood) -->
<g id="node4" class="node">
<title>&#45;2,8 (syngas from coal dust and also wood)</title>
<ellipse fill="none" stroke="black" cx="208.63" cy="-1470.57" rx="208.76" ry="18"/>
<text text-anchor="middle" x="208.63" y="-1466.87" font-family="Times,serif" font-size="14.00">&#45;2,8 (syngas from coal dust and also wood)</text>
</g>
<!-- &#45;2,8 (syngas from coal dust and also wood)&#45;&gt;1,7 (Activated Carbon) -->
<g id="edge3" class="edge">
<title>&#45;2,8 (syngas from coal dust and also wood)&#45;&gt;1,7 (Activated Carbon)</title>
<path fill="none" stroke="black" stroke-width="0.35" d="M222.65,-1452.3C263.48,-1399.11 382.42,-1244.14 429.96,-1182.2"/>
<polygon fill="black" stroke="black" stroke-width="0.35" points="432.87,-1184.16 436.18,-1174.09 427.32,-1179.9 432.87,-1184.16"/>
<text text-anchor="middle" x="285.81" y="-1321.05" font-family="Times,serif" font-size="14.00">coal*13616</text>
</g>
</g>
</svg>
