<?xml version="1.0" encoding="UTF-8" standalone="no"?>
<!DOCTYPE svg PUBLIC "-//W3C//DTD SVG 1.1//EN"
 "http://www.w3.org/Graphics/SVG/1.1/DTD/svg11.dtd">
<!-- Generated by graphviz version 2.43.0 (0)
 -->
<!-- Title: %3 Pages: 1 -->
<svg width="6907pt" height="6855pt"
 viewBox="0.00 0.00 6906.93 6854.79" xmlns="http://www.w3.org/2000/svg" xmlns:xlink="http://www.w3.org/1999/xlink">
<g id="graph0" class="graph" transform="scale(1 1) rotate(0) translate(4 6850.79)">
<title>%3</title>
<polygon fill="white" stroke="transparent" points="-4,4 -4,-6850.79 6902.93,-6850.79 6902.93,4 -4,4"/>
<!-- &#45;6,1 (Coke and Coal Dust from Biomass (needs Iron plates)) -->
<g id="node1" class="node">
<title>&#45;6,1 (Coke and Coal Dust from Biomass (needs Iron plates))</title>
<ellipse fill="none" stroke="black" cx="3091.7" cy="-6523.86" rx="285.95" ry="18"/>
<text text-anchor="middle" x="3091.7" y="-6520.16" font-family="Times,serif" font-size="14.00">&#45;6,1 (Coke and Coal Dust from Biomass (needs Iron plates))</text>
</g>
<!-- 1,12 (Molten Iron) -->
<g id="node2" class="node">
<title>1,12 (Molten Iron)</title>
<ellipse fill="none" stroke="black" cx="2050.08" cy="-281.77" rx="95.58" ry="18"/>
<text text-anchor="middle" x="2050.08" y="-278.07" font-family="Times,serif" font-size="14.00">1,12 (Molten Iron)</text>
</g>
<!-- &#45;6,1 (Coke and Coal Dust from Biomass (needs Iron plates))&#45;&gt;1,12 (Molten Iron) -->
<g id="edge1" class="edge">
<title>&#45;6,1 (Coke and Coal Dust from Biomass (needs Iron plates))&#45;&gt;1,12 (Molten Iron)</title>
<path fill="none" stroke="black" stroke-width="0.38" d="M3088.67,-6505.67C3029.62,-6151.81 2127.72,-747.06 2054.76,-309.83"/>
<polygon fill="black" stroke="black" stroke-width="0.38" points="2058.21,-309.19 2053.11,-299.91 2051.3,-310.35 2058.21,-309.19"/>
<text text-anchor="middle" x="2529.22" y="-3411.55" font-family="Times,serif" font-size="14.00">coke*22384</text>
</g>
<!-- 0,8 (Tar from Coke) -->
<g id="node4" class="node">
<title>0,8 (Tar from Coke)</title>
<ellipse fill="none" stroke="black" cx="490.58" cy="-1717.4" rx="100.98" ry="18"/>
<text text-anchor="middle" x="490.58" y="-1713.7" font-family="Times,serif" font-size="14.00">0,8 (Tar from Coke)</text>
</g>
<!-- &#45;6,1 (Coke and Coal Dust from Biomass (needs Iron plates))&#45;&gt;0,8 (Tar from Coke) -->
<g id="edge12" class="edge">
<title>&#45;6,1 (Coke and Coal Dust from Biomass (needs Iron plates))&#45;&gt;0,8 (Tar from Coke)</title>
<path fill="none" stroke="black" stroke-width="1.7" d="M3081.76,-6505.49C2915.08,-6197.5 706.18,-2115.79 505.19,-1744.41"/>
<polygon fill="black" stroke="black" stroke-width="1.7" points="508.16,-1742.54 500.32,-1735.41 502,-1745.87 508.16,-1742.54"/>
<text text-anchor="middle" x="1746.48" y="-4128.75" font-family="Times,serif" font-size="14.00">coke*100432</text>
</g>
<!-- &#45;2,9 (molten steel) -->
<g id="node6" class="node">
<title>&#45;2,9 (molten steel)</title>
<ellipse fill="none" stroke="black" cx="141.69" cy="-2733.68" rx="95.58" ry="18"/>
<text text-anchor="middle" x="141.69" y="-2729.98" font-family="Times,serif" font-size="14.00">&#45;2,9 (molten steel)</text>
</g>
<!-- &#45;6,1 (Coke and Coal Dust from Biomass (needs Iron plates))&#45;&gt;&#45;2,9 (molten steel) -->
<g id="edge4" class="edge">
<title>&#45;6,1 (Coke and Coal Dust from Biomass (needs Iron plates))&#45;&gt;&#45;2,9 (molten steel)</title>
<path fill="none" stroke="black" stroke-width="0.4" d="M3077.56,-6505.69C2868.63,-6237.26 411.58,-3080.44 162.09,-2759.9"/>
<polygon fill="black" stroke="black" stroke-width="0.4" points="164.57,-2757.38 155.67,-2751.64 159.05,-2761.68 164.57,-2757.38"/>
<text text-anchor="middle" x="1577.33" y="-4636.59" font-family="Times,serif" font-size="14.00">coke*23840</text>
</g>
<!-- &#45;2,6 (Wrong ratio of Calcium Carbide to Acetalene) -->
<g id="node8" class="node">
<title>&#45;2,6 (Wrong ratio of Calcium Carbide to Acetalene)</title>
<ellipse fill="none" stroke="black" cx="1150.55" cy="-5672.39" rx="245.86" ry="18"/>
<text text-anchor="middle" x="1150.55" y="-5668.69" font-family="Times,serif" font-size="14.00">&#45;2,6 (Wrong ratio of Calcium Carbide to Acetalene)</text>
</g>
<!-- &#45;6,1 (Coke and Coal Dust from Biomass (needs Iron plates))&#45;&gt;&#45;2,6 (Wrong ratio of Calcium Carbide to Acetalene) -->
<g id="edge22" class="edge">
<title>&#45;6,1 (Coke and Coal Dust from Biomass (needs Iron plates))&#45;&gt;&#45;2,6 (Wrong ratio of Calcium Carbide to Acetalene)</title>
<path fill="none" stroke="black" stroke-width="1.98" d="M3050.71,-6505.88C2800.03,-6395.92 1475.56,-5814.95 1200.57,-5694.33"/>
<polygon fill="black" stroke="black" stroke-width="1.98" points="1201.8,-5691.05 1191.23,-5690.24 1198.99,-5697.46 1201.8,-5691.05"/>
<text text-anchor="middle" x="2078.64" y="-6103.9" font-family="Times,serif" font-size="14.00">coke*117056</text>
</g>
<!-- 8,0 (Moar Depot) -->
<g id="node9" class="node">
<title>8,0 (Moar Depot)</title>
<ellipse fill="none" stroke="black" cx="3091.7" cy="-18" rx="90.18" ry="18"/>
<text text-anchor="middle" x="3091.7" y="-14.3" font-family="Times,serif" font-size="14.00">8,0 (Moar Depot)</text>
</g>
<!-- &#45;6,1 (Coke and Coal Dust from Biomass (needs Iron plates))&#45;&gt;8,0 (Moar Depot) -->
<g id="edge25" class="edge">
<title>&#45;6,1 (Coke and Coal Dust from Biomass (needs Iron plates))&#45;&gt;8,0 (Moar Depot)</title>
<path fill="none" stroke="black" stroke-width="0.85" d="M3091.7,-6505.77C3091.7,-6144.71 3091.7,-495.12 3091.7,-46.26"/>
<polygon fill="black" stroke="black" stroke-width="0.85" points="3095.2,-46.09 3091.7,-36.09 3088.2,-46.09 3095.2,-46.09"/>
<text text-anchor="middle" x="3049.2" y="-3279.81" font-family="Times,serif" font-size="14.00">coke*50016</text>
</g>
<!-- &#45;4,&#45;2 (For Science!) -->
<g id="node10" class="node">
<title>&#45;4,&#45;2 (For Science!)</title>
<ellipse fill="none" stroke="black" cx="2050.08" cy="-6260.08" rx="98.58" ry="18"/>
<text text-anchor="middle" x="2050.08" y="-6256.38" font-family="Times,serif" font-size="14.00">&#45;4,&#45;2 (For Science!)</text>
</g>
<!-- &#45;6,1 (Coke and Coal Dust from Biomass (needs Iron plates))&#45;&gt;&#45;4,&#45;2 (For Science!) -->
<g id="edge26" class="edge">
<title>&#45;6,1 (Coke and Coal Dust from Biomass (needs Iron plates))&#45;&gt;&#45;4,&#45;2 (For Science!)</title>
<path fill="none" stroke="black" stroke-width="0.18" d="M3022.55,-6506.35C2832.84,-6458.3 2305.83,-6324.85 2117.81,-6277.23"/>
<polygon fill="black" stroke="black" stroke-width="0.18" points="2118.6,-6273.82 2108.05,-6274.76 2116.88,-6280.61 2118.6,-6273.82"/>
<text text-anchor="middle" x="2527.68" y="-6395.59" font-family="Times,serif" font-size="14.00">coke*10368</text>
</g>
<!-- 4,12 (Molten Glass) -->
<g id="node12" class="node">
<title>4,12 (Molten Glass)</title>
<ellipse fill="none" stroke="black" cx="6448.47" cy="-2211.08" rx="102.08" ry="18"/>
<text text-anchor="middle" x="6448.47" y="-2207.38" font-family="Times,serif" font-size="14.00">4,12 (Molten Glass)</text>
</g>
<!-- &#45;6,1 (Coke and Coal Dust from Biomass (needs Iron plates))&#45;&gt;4,12 (Molten Glass) -->
<g id="edge39" class="edge">
<title>&#45;6,1 (Coke and Coal Dust from Biomass (needs Iron plates))&#45;&gt;4,12 (Molten Glass)</title>
<path fill="none" stroke="black" stroke-width="0.07" d="M3105.94,-6505.57C3331.28,-6216.05 6159.74,-2582.04 6428.06,-2237.3"/>
<polygon fill="black" stroke="black" stroke-width="0.07" points="6430.88,-2239.38 6434.26,-2229.34 6425.36,-2235.08 6430.88,-2239.38"/>
<text text-anchor="middle" x="4729" y="-4375.23" font-family="Times,serif" font-size="14.00">coke*4128</text>
</g>
<!-- 3,9 (Copper, molten &amp; plate) -->
<g id="node13" class="node">
<title>3,9 (Copper, molten &amp; plate)</title>
<ellipse fill="none" stroke="black" cx="4162.53" cy="-6435.13" rx="143.77" ry="18"/>
<text text-anchor="middle" x="4162.53" y="-6431.43" font-family="Times,serif" font-size="14.00">3,9 (Copper, molten &amp; plate)</text>
</g>
<!-- &#45;6,1 (Coke and Coal Dust from Biomass (needs Iron plates))&#45;&gt;3,9 (Copper, molten &amp; plate) -->
<g id="edge53" class="edge">
<title>&#45;6,1 (Coke and Coal Dust from Biomass (needs Iron plates))&#45;&gt;3,9 (Copper, molten &amp; plate)</title>
<path fill="none" stroke="black" stroke-width="0.17" d="M3264.94,-6509.5C3479.52,-6491.72 3840.21,-6461.83 4032.54,-6445.9"/>
<polygon fill="black" stroke="black" stroke-width="0.17" points="4033.03,-6449.37 4042.7,-6445.06 4032.45,-6442.39 4033.03,-6449.37"/>
<text text-anchor="middle" x="3606.24" y="-6481.5" font-family="Times,serif" font-size="14.00">coke*10016</text>
</g>
<!-- &#45;5,&#45;4 (low priority (slaked)? lime) -->
<g id="node14" class="node">
<title>&#45;5,&#45;4 (low priority (slaked)? lime)</title>
<ellipse fill="none" stroke="black" cx="5146.53" cy="-6003.5" rx="162.47" ry="18"/>
<text text-anchor="middle" x="5146.53" y="-5999.8" font-family="Times,serif" font-size="14.00">&#45;5,&#45;4 (low priority (slaked)? lime)</text>
</g>
<!-- &#45;6,1 (Coke and Coal Dust from Biomass (needs Iron plates))&#45;&gt;&#45;5,&#45;4 (low priority (slaked)? lime) -->
<g id="edge29" class="edge">
<title>&#45;6,1 (Coke and Coal Dust from Biomass (needs Iron plates))&#45;&gt;&#45;5,&#45;4 (low priority (slaked)? lime)</title>
<path fill="none" stroke="black" stroke-width="0.18" d="M3160.95,-6506.32C3473.1,-6427.27 4748.12,-6104.4 5071.62,-6022.47"/>
<polygon fill="black" stroke="black" stroke-width="0.18" points="5072.53,-6025.85 5081.37,-6020.01 5070.82,-6019.07 5072.53,-6025.85"/>
<text text-anchor="middle" x="4073.79" y="-6268.2" font-family="Times,serif" font-size="14.00">coke*10608</text>
</g>
<!-- 4,&#45;2 (Ceramic) -->
<g id="node15" class="node">
<title>4,&#45;2 (Ceramic)</title>
<ellipse fill="none" stroke="black" cx="5937.06" cy="-5275.77" rx="76.89" ry="18"/>
<text text-anchor="middle" x="5937.06" y="-5272.07" font-family="Times,serif" font-size="14.00">4,&#45;2 (Ceramic)</text>
</g>
<!-- &#45;6,1 (Coke and Coal Dust from Biomass (needs Iron plates))&#45;&gt;4,&#45;2 (Ceramic) -->
<g id="edge52" class="edge">
<title>&#45;6,1 (Coke and Coal Dust from Biomass (needs Iron plates))&#45;&gt;4,&#45;2 (Ceramic)</title>
<path fill="none" stroke="black" stroke-width="0.03" d="M3132.47,-6505.97C3452.22,-6365.72 5553.63,-5443.95 5891.31,-5295.84"/>
<polygon fill="black" stroke="black" stroke-width="0.03" points="5893.03,-5298.9 5900.78,-5291.68 5890.22,-5292.49 5893.03,-5298.9"/>
<text text-anchor="middle" x="4473.89" y="-5904.71" font-family="Times,serif" font-size="14.00">coke*2048</text>
</g>
<!-- 2,5 (Simple Circuits) -->
<g id="node16" class="node">
<title>2,5 (Simple Circuits)</title>
<ellipse fill="none" stroke="black" cx="5937.06" cy="-1266.09" rx="106.68" ry="18"/>
<text text-anchor="middle" x="5937.06" y="-1262.39" font-family="Times,serif" font-size="14.00">2,5 (Simple Circuits)</text>
</g>
<!-- &#45;6,1 (Coke and Coal Dust from Biomass (needs Iron plates))&#45;&gt;2,5 (Simple Circuits) -->
<g id="edge31" class="edge">
<title>&#45;6,1 (Coke and Coal Dust from Biomass (needs Iron plates))&#45;&gt;2,5 (Simple Circuits)</title>
<path fill="none" stroke="black" stroke-width="0.07" d="M3101.45,-6505.85C3274.96,-6185.22 5710.07,-1685.54 5922.32,-1293.34"/>
<polygon fill="black" stroke="black" stroke-width="0.07" points="5925.5,-1294.82 5927.18,-1284.36 5919.34,-1291.48 5925.5,-1294.82"/>
<text text-anchor="middle" x="4473.88" y="-3903.39" font-family="Times,serif" font-size="14.00">coke*4368</text>
</g>
<!-- &#45;3,1 (Logistic science pack, Automation Science) -->
<g id="node20" class="node">
<title>&#45;3,1 (Logistic science pack, Automation Science)</title>
<ellipse fill="none" stroke="black" cx="3066.43" cy="-6828.79" rx="233.96" ry="18"/>
<text text-anchor="middle" x="3066.43" y="-6825.09" font-family="Times,serif" font-size="14.00">&#45;3,1 (Logistic science pack, Automation Science)</text>
</g>
<!-- &#45;6,1 (Coke and Coal Dust from Biomass (needs Iron plates))&#45;&gt;&#45;3,1 (Logistic science pack, Automation Science) -->
<g id="edge43" class="edge">
<title>&#45;6,1 (Coke and Coal Dust from Biomass (needs Iron plates))&#45;&gt;&#45;3,1 (Logistic science pack, Automation Science)</title>
<path fill="none" stroke="black" stroke-width="0.42" d="M3090.2,-6542.02C3085.96,-6593.18 3073.89,-6738.79 3068.77,-6800.55"/>
<polygon fill="black" stroke="black" stroke-width="0.42" points="3065.27,-6800.47 3067.93,-6810.72 3072.24,-6801.05 3065.27,-6800.47"/>
<text text-anchor="middle" x="3036.99" y="-6675.08" font-family="Times,serif" font-size="14.00">coke*25008</text>
</g>
<!-- 2,8 (Graphite) -->
<g id="node3" class="node">
<title>2,8 (Graphite)</title>
<ellipse fill="none" stroke="black" cx="6625.32" cy="-3270.93" rx="76.09" ry="18"/>
<text text-anchor="middle" x="6625.32" y="-3267.23" font-family="Times,serif" font-size="14.00">2,8 (Graphite)</text>
</g>
<!-- 2,8 (Graphite)&#45;&gt;1,12 (Molten Iron) -->
<g id="edge14" class="edge">
<title>2,8 (Graphite)&#45;&gt;1,12 (Molten Iron)</title>
<path fill="none" stroke="black" stroke-width="0.74" d="M6599.31,-3253.93C6249.8,-3025.59 2489.25,-568.69 2085.2,-304.72"/>
<polygon fill="black" stroke="black" stroke-width="0.74" points="2087.1,-301.78 2076.81,-299.24 2083.27,-307.64 2087.1,-301.78"/>
<text text-anchor="middle" x="4299.76" y="-1783.13" font-family="Times,serif" font-size="14.00">coke*43680</text>
</g>
<!-- 2,8 (Graphite)&#45;&gt;0,8 (Tar from Coke) -->
<g id="edge2" class="edge">
<title>2,8 (Graphite)&#45;&gt;0,8 (Tar from Coke)</title>
<path fill="none" stroke="black" stroke-width="8.31" d="M6573.21,-3257.73C6017.51,-3117.01 1191.95,-1895.01 558.97,-1734.72"/>
<polygon fill="black" stroke="black" stroke-width="8.31" points="560.56,-1727.62 549.09,-1732.22 556.99,-1741.72 560.56,-1727.62"/>
<text text-anchor="middle" x="3519.09" y="-2500.03" font-family="Times,serif" font-size="14.00">coke*491640</text>
</g>
<!-- 2,8 (Graphite)&#45;&gt;&#45;2,9 (molten steel) -->
<g id="edge5" class="edge">
<title>2,8 (Graphite)&#45;&gt;&#45;2,9 (molten steel)</title>
<path fill="none" stroke="black" stroke-width="0.6" d="M6553.34,-3264.96C5899.52,-3210.79 994.88,-2804.38 239.29,-2741.77"/>
<polygon fill="black" stroke="black" stroke-width="0.6" points="239.52,-2738.27 229.26,-2740.94 238.94,-2745.25 239.52,-2738.27"/>
<text text-anchor="middle" x="3353.82" y="-3007.17" font-family="Times,serif" font-size="14.00">coke*35285</text>
</g>
<!-- 2,8 (Graphite)&#45;&gt;&#45;2,6 (Wrong ratio of Calcium Carbide to Acetalene) -->
<g id="edge11" class="edge">
<title>2,8 (Graphite)&#45;&gt;&#45;2,6 (Wrong ratio of Calcium Carbide to Acetalene)</title>
<path fill="none" stroke="black" stroke-width="15.54" d="M6588.92,-3286.9C6142.04,-3482.92 1722.78,-5421.38 1200.82,-5650.33"/>
<polygon fill="black" stroke="black" stroke-width="15.54" points="1195,-5638.05 1191.3,-5654.51 1205.92,-5662.94 1195,-5638.05"/>
<text text-anchor="middle" x="3847.87" y="-4472.42" font-family="Times,serif" font-size="14.00">coke*919208</text>
</g>
<!-- 2,8 (Graphite)&#45;&gt;&#45;4,&#45;2 (For Science!) -->
<g id="edge16" class="edge">
<title>2,8 (Graphite)&#45;&gt;&#45;4,&#45;2 (For Science!)</title>
<path fill="none" stroke="black" stroke-width="0.57" d="M6599.31,-3287.92C6249.8,-3516.27 2489.25,-5973.16 2085.2,-6237.14"/>
<polygon fill="black" stroke="black" stroke-width="0.57" points="2083.27,-6234.22 2076.81,-6242.62 2087.1,-6240.08 2083.27,-6234.22"/>
<text text-anchor="middle" x="4299.76" y="-4766.33" font-family="Times,serif" font-size="14.00">coke*34000</text>
</g>
<!-- &#45;5,1 (Acetylene) -->
<g id="node11" class="node">
<title>&#45;5,1 (Acetylene)</title>
<ellipse fill="none" stroke="black" cx="4162.53" cy="-106.73" rx="83.39" ry="18"/>
<text text-anchor="middle" x="4162.53" y="-103.03" font-family="Times,serif" font-size="14.00">&#45;5,1 (Acetylene)</text>
</g>
<!-- 2,8 (Graphite)&#45;&gt;&#45;5,1 (Acetylene) -->
<g id="edge36" class="edge">
<title>2,8 (Graphite)&#45;&gt;&#45;5,1 (Acetylene)</title>
<path fill="none" stroke="black" stroke-width="0.86" d="M6611.47,-3253.13C6424.74,-3013.21 4408.92,-423.29 4183.07,-133.12"/>
<polygon fill="black" stroke="black" stroke-width="0.86" points="4185.54,-130.59 4176.63,-124.85 4180.01,-134.89 4185.54,-130.59"/>
<text text-anchor="middle" x="5354.77" y="-1696.93" font-family="Times,serif" font-size="14.00">coke*50679</text>
</g>
<!-- 2,8 (Graphite)&#45;&gt;4,12 (Molten Glass) -->
<g id="edge35" class="edge">
<title>2,8 (Graphite)&#45;&gt;4,12 (Molten Glass)</title>
<path fill="none" stroke="black" stroke-width="0.04" d="M6622.25,-3252.53C6601.25,-3126.64 6478.76,-2392.6 6453.16,-2239.19"/>
<polygon fill="black" stroke="black" stroke-width="0.04" points="6456.58,-2238.45 6451.48,-2229.16 6449.68,-2239.6 6456.58,-2238.45"/>
<text text-anchor="middle" x="6499.71" y="-2749.66" font-family="Times,serif" font-size="14.00">coke*2080</text>
</g>
<!-- 2,8 (Graphite)&#45;&gt;3,9 (Copper, molten &amp; plate) -->
<g id="edge20" class="edge">
<title>2,8 (Graphite)&#45;&gt;3,9 (Copper, molten &amp; plate)</title>
<path fill="none" stroke="black" stroke-width="0.17" d="M6611.47,-3288.72C6424.74,-3528.64 4408.92,-6118.57 4183.07,-6408.74"/>
<polygon fill="black" stroke="black" stroke-width="0.17" points="4180.01,-6406.97 4176.63,-6417.01 4185.54,-6411.27 4180.01,-6406.97"/>
<text text-anchor="middle" x="5354.77" y="-4852.53" font-family="Times,serif" font-size="14.00">coke*10073</text>
</g>
<!-- 2,8 (Graphite)&#45;&gt;&#45;5,&#45;4 (low priority (slaked)? lime) -->
<g id="edge21" class="edge">
<title>2,8 (Graphite)&#45;&gt;&#45;5,&#45;4 (low priority (slaked)? lime)</title>
<path fill="none" stroke="black" stroke-width="0.29" d="M6615.49,-3289.1C6495.12,-3511.52 5307.82,-5705.46 5161.33,-5976.16"/>
<polygon fill="black" stroke="black" stroke-width="0.29" points="5158.06,-5974.85 5156.38,-5985.31 5164.21,-5978.18 5158.06,-5974.85"/>
<text text-anchor="middle" x="5845.91" y="-4636.43" font-family="Times,serif" font-size="14.00">coke*17440</text>
</g>
<!-- 2,8 (Graphite)&#45;&gt;4,&#45;2 (Ceramic) -->
<g id="edge27" class="edge">
<title>2,8 (Graphite)&#45;&gt;4,&#45;2 (Ceramic)</title>
<path fill="none" stroke="black" stroke-width="0.07" d="M6619.16,-3288.87C6555.84,-3473.32 6024.14,-5022.12 5946.51,-5248.26"/>
<polygon fill="black" stroke="black" stroke-width="0.07" points="5943.19,-5247.15 5943.25,-5257.74 5949.81,-5249.42 5943.19,-5247.15"/>
<text text-anchor="middle" x="6244.83" y="-4272.37" font-family="Times,serif" font-size="14.00">coke*4160</text>
</g>
<!-- &#45;6,&#45;4 (High&#45;Power Resistors, Ceramic Capacitor, Inductor) -->
<g id="node17" class="node">
<title>&#45;6,&#45;4 (High&#45;Power Resistors, Ceramic Capacitor, Inductor)</title>
<ellipse fill="none" stroke="black" cx="6448.47" cy="-4330.77" rx="278.35" ry="18"/>
<text text-anchor="middle" x="6448.47" y="-4327.07" font-family="Times,serif" font-size="14.00">&#45;6,&#45;4 (High&#45;Power Resistors, Ceramic Capacitor, Inductor)</text>
</g>
<!-- 2,8 (Graphite)&#45;&gt;&#45;6,&#45;4 (High&#45;Power Resistors, Ceramic Capacitor, Inductor) -->
<g id="edge32" class="edge">
<title>2,8 (Graphite)&#45;&gt;&#45;6,&#45;4 (High&#45;Power Resistors, Ceramic Capacitor, Inductor)</title>
<path fill="none" stroke="black" stroke-width="0.08" d="M6622.25,-3289.32C6601.25,-3415.22 6478.76,-4149.26 6453.16,-4302.67"/>
<polygon fill="black" stroke="black" stroke-width="0.08" points="6449.68,-4302.26 6451.48,-4312.7 6456.58,-4303.41 6449.68,-4302.26"/>
<text text-anchor="middle" x="6499.71" y="-3799.8" font-family="Times,serif" font-size="14.00">coke*4661</text>
</g>
<!-- 8,1 (Molten Copper) -->
<g id="node18" class="node">
<title>8,1 (Molten Copper)</title>
<ellipse fill="none" stroke="black" cx="6794.28" cy="-3041.16" rx="104.78" ry="18"/>
<text text-anchor="middle" x="6794.28" y="-3037.46" font-family="Times,serif" font-size="14.00">8,1 (Molten Copper)</text>
</g>
<!-- 2,8 (Graphite)&#45;&gt;8,1 (Molten Copper) -->
<g id="edge38" class="edge">
<title>2,8 (Graphite)&#45;&gt;8,1 (Molten Copper)</title>
<path fill="none" stroke="black" stroke-width="0.17" d="M6638.58,-3252.9C6668.32,-3212.46 6740.43,-3114.41 6775.07,-3067.29"/>
<polygon fill="black" stroke="black" stroke-width="0.17" points="6777.98,-3069.24 6781.09,-3059.11 6772.34,-3065.09 6777.98,-3069.24"/>
<text text-anchor="middle" x="6664.33" y="-3163.89" font-family="Times,serif" font-size="14.00">coke*10044</text>
</g>
<!-- &#45;1,10 (Iron Plates) -->
<g id="node19" class="node">
<title>&#45;1,10 (Iron Plates)</title>
<ellipse fill="none" stroke="black" cx="6801.71" cy="-3312.52" rx="94.78" ry="18"/>
<text text-anchor="middle" x="6801.71" y="-3308.82" font-family="Times,serif" font-size="14.00">&#45;1,10 (Iron Plates)</text>
</g>
<!-- 2,8 (Graphite)&#45;&gt;&#45;1,10 (Iron Plates) -->
<g id="edge42" class="edge">
<title>2,8 (Graphite)&#45;&gt;&#45;1,10 (Iron Plates)</title>
<path fill="none" stroke="black" stroke-width="0.42" d="M6679.21,-3283.63C6695.8,-3287.55 6714.33,-3291.92 6731.84,-3296.05"/>
<polygon fill="black" stroke="black" stroke-width="0.42" points="6731.47,-3299.56 6742.01,-3298.45 6733.08,-3292.74 6731.47,-3299.56"/>
<text text-anchor="middle" x="6663.02" y="-3293.64" font-family="Times,serif" font-size="14.00">coke*25033</text>
</g>
<!-- 6,4 (Electronic components) -->
<g id="node22" class="node">
<title>6,4 (Electronic components)</title>
<ellipse fill="none" stroke="black" cx="141.69" cy="-3808.18" rx="141.88" ry="18"/>
<text text-anchor="middle" x="141.69" y="-3804.48" font-family="Times,serif" font-size="14.00">6,4 (Electronic components)</text>
</g>
<!-- 2,8 (Graphite)&#45;&gt;6,4 (Electronic components) -->
<g id="edge46" class="edge">
<title>2,8 (Graphite)&#45;&gt;6,4 (Electronic components)</title>
<path fill="none" stroke="black" stroke-width="0.04" d="M6553.34,-3276.89C5907.99,-3330.37 1121.21,-3727.01 270.72,-3797.49"/>
<polygon fill="black" stroke="black" stroke-width="0.04" points="270.27,-3794.01 260.59,-3798.33 270.85,-3800.99 270.27,-3794.01"/>
<text text-anchor="middle" x="3374.03" y="-3540.99" font-family="Times,serif" font-size="14.00">coke*2080</text>
</g>
<!-- 3,4 (Depot) -->
<g id="node23" class="node">
<title>3,4 (Depot)</title>
<ellipse fill="none" stroke="black" cx="6791.26" cy="-3542.18" rx="63.09" ry="18"/>
<text text-anchor="middle" x="6791.26" y="-3538.48" font-family="Times,serif" font-size="14.00">3,4 (Depot)</text>
</g>
<!-- 2,8 (Graphite)&#45;&gt;3,4 (Depot) -->
<g id="edge50" class="edge">
<title>2,8 (Graphite)&#45;&gt;3,4 (Depot)</title>
<path fill="none" stroke="black" stroke-width="0.42" d="M6636.47,-3289.15C6665.11,-3335.97 6741.4,-3460.68 6774.99,-3515.59"/>
<polygon fill="black" stroke="black" stroke-width="0.42" points="6772.17,-3517.69 6780.38,-3524.39 6778.14,-3514.04 6772.17,-3517.69"/>
<text text-anchor="middle" x="6663.23" y="-3406.17" font-family="Times,serif" font-size="14.00">coke*25017</text>
</g>
<!-- 3,15 (Even Yet More Coke) -->
<g id="node5" class="node">
<title>3,15 (Even Yet More Coke)</title>
<ellipse fill="none" stroke="black" cx="5146.53" cy="-538.35" rx="135.38" ry="18"/>
<text text-anchor="middle" x="5146.53" y="-534.65" font-family="Times,serif" font-size="14.00">3,15 (Even Yet More Coke)</text>
</g>
<!-- 3,15 (Even Yet More Coke)&#45;&gt;1,12 (Molten Iron) -->
<g id="edge34" class="edge">
<title>3,15 (Even Yet More Coke)&#45;&gt;1,12 (Molten Iron)</title>
<path fill="none" stroke="black" stroke-width="0.34" d="M5031.72,-528.84C4538.85,-488 2606.48,-327.88 2148.03,-289.89"/>
<polygon fill="black" stroke="black" stroke-width="0.34" points="2148.05,-286.38 2137.79,-289.04 2147.47,-293.36 2148.05,-286.38"/>
<text text-anchor="middle" x="3547.37" y="-413.16" font-family="Times,serif" font-size="14.00">coke*20320</text>
</g>
<!-- 3,15 (Even Yet More Coke)&#45;&gt;0,8 (Tar from Coke) -->
<g id="edge6" class="edge">
<title>3,15 (Even Yet More Coke)&#45;&gt;0,8 (Tar from Coke)</title>
<path fill="none" stroke="black" stroke-width="3.32" d="M5083.36,-554.35C4570.26,-684.28 1091.18,-1565.31 558.85,-1700.11"/>
<polygon fill="black" stroke="black" stroke-width="3.32" points="557.84,-1696.75 549.01,-1702.6 559.56,-1703.54 557.84,-1696.75"/>
<text text-anchor="middle" x="2774.1" y="-1131.03" font-family="Times,serif" font-size="14.00">coke*196544</text>
</g>
<!-- 3,15 (Even Yet More Coke)&#45;&gt;&#45;2,9 (molten steel) -->
<g id="edge3" class="edge">
<title>3,15 (Even Yet More Coke)&#45;&gt;&#45;2,9 (molten steel)</title>
<path fill="none" stroke="black" stroke-width="0.3" d="M5106.97,-555.7C4665.61,-749.3 670.25,-2501.83 189.05,-2712.91"/>
<polygon fill="black" stroke="black" stroke-width="0.3" points="187.36,-2709.82 179.61,-2717.04 190.17,-2716.23 187.36,-2709.82"/>
<text text-anchor="middle" x="2605.51" y="-1638.11" font-family="Times,serif" font-size="14.00">coke*17872</text>
</g>
<!-- 3,15 (Even Yet More Coke)&#45;&gt;&#45;2,6 (Wrong ratio of Calcium Carbide to Acetalene) -->
<g id="edge9" class="edge">
<title>3,15 (Even Yet More Coke)&#45;&gt;&#45;2,6 (Wrong ratio of Calcium Carbide to Acetalene)</title>
<path fill="none" stroke="black" stroke-width="1.74" d="M5132.45,-556.44C4885.48,-873.75 1467.44,-5265.25 1171.03,-5646.08"/>
<polygon fill="black" stroke="black" stroke-width="1.74" points="1168.17,-5644.04 1164.79,-5654.09 1173.7,-5648.34 1168.17,-5644.04"/>
<text text-anchor="middle" x="3104.74" y="-3105.06" font-family="Times,serif" font-size="14.00">coke*103008</text>
</g>
<!-- 3,15 (Even Yet More Coke)&#45;&gt;8,0 (Moar Depot) -->
<g id="edge15" class="edge">
<title>3,15 (Even Yet More Coke)&#45;&gt;8,0 (Moar Depot)</title>
<path fill="none" stroke="black" stroke-width="0.42" d="M5083.34,-522.35C4779.18,-445.33 3467.75,-113.23 3157.62,-34.69"/>
<polygon fill="black" stroke="black" stroke-width="0.42" points="3158.43,-31.29 3147.88,-32.23 3156.71,-38.07 3158.43,-31.29"/>
<text text-anchor="middle" x="4077.98" y="-282.32" font-family="Times,serif" font-size="14.00">coke*25008</text>
</g>
<!-- 3,15 (Even Yet More Coke)&#45;&gt;&#45;4,&#45;2 (For Science!) -->
<g id="edge18" class="edge">
<title>3,15 (Even Yet More Coke)&#45;&gt;&#45;4,&#45;2 (For Science!)</title>
<path fill="none" stroke="black" stroke-width="0.21" d="M5136.8,-556.32C4955.11,-892.07 2285.79,-5824.54 2064.64,-6233.19"/>
<polygon fill="black" stroke="black" stroke-width="0.21" points="2061.55,-6231.53 2059.87,-6241.99 2067.71,-6234.86 2061.55,-6231.53"/>
<text text-anchor="middle" x="3558.22" y="-3398.55" font-family="Times,serif" font-size="14.00">coke*12448</text>
</g>
<!-- 3,15 (Even Yet More Coke)&#45;&gt;&#45;5,1 (Acetylene) -->
<g id="edge17" class="edge">
<title>3,15 (Even Yet More Coke)&#45;&gt;&#45;5,1 (Acetylene)</title>
<path fill="none" stroke="black" stroke-width="0.86" d="M5107.04,-521.03C4950.89,-452.54 4376.84,-200.74 4208.95,-127.09"/>
<polygon fill="black" stroke="black" stroke-width="0.86" points="4209.97,-123.72 4199.4,-122.9 4207.15,-130.13 4209.97,-123.72"/>
<text text-anchor="middle" x="4615.49" y="-327.86" font-family="Times,serif" font-size="14.00">coke*50896</text>
</g>
<!-- 3,15 (Even Yet More Coke)&#45;&gt;3,9 (Copper, molten &amp; plate) -->
<g id="edge40" class="edge">
<title>3,15 (Even Yet More Coke)&#45;&gt;3,9 (Copper, molten &amp; plate)</title>
<path fill="none" stroke="black" stroke-width="0.17" d="M5143.48,-556.6C5086.16,-900.13 4237.87,-5983.66 4167.21,-6407.1"/>
<polygon fill="black" stroke="black" stroke-width="0.17" points="4163.75,-6406.56 4165.56,-6417 4170.65,-6407.71 4163.75,-6406.56"/>
<text text-anchor="middle" x="4612.85" y="-3485.65" font-family="Times,serif" font-size="14.00">coke*10016</text>
</g>
<!-- 3,15 (Even Yet More Coke)&#45;&gt;&#45;5,&#45;4 (low priority (slaked)? lime) -->
<g id="edge24" class="edge">
<title>3,15 (Even Yet More Coke)&#45;&gt;&#45;5,&#45;4 (low priority (slaked)? lime)</title>
<path fill="none" stroke="black" stroke-width="0.26" d="M5146.53,-556.55C5146.53,-885.32 5146.53,-5564.9 5146.53,-5974.87"/>
<polygon fill="black" stroke="black" stroke-width="0.26" points="5143.03,-5975.01 5146.53,-5985.01 5150.03,-5975.01 5143.03,-5975.01"/>
<text text-anchor="middle" x="5104.03" y="-3269.51" font-family="Times,serif" font-size="14.00">coke*15552</text>
</g>
<!-- 3,15 (Even Yet More Coke)&#45;&gt;4,&#45;2 (Ceramic) -->
<g id="edge47" class="edge">
<title>3,15 (Even Yet More Coke)&#45;&gt;4,&#45;2 (Ceramic)</title>
<path fill="none" stroke="black" stroke-width="0.03" d="M5149.55,-556.46C5200.13,-859.57 5869.54,-4871.1 5932.34,-5247.48"/>
<polygon fill="black" stroke="black" stroke-width="0.03" points="5928.92,-5248.27 5934.02,-5257.55 5935.83,-5247.11 5928.92,-5248.27"/>
<text text-anchor="middle" x="5502.95" y="-2905.77" font-family="Times,serif" font-size="14.00">coke*2032</text>
</g>
<!-- 3,15 (Even Yet More Coke)&#45;&gt;2,5 (Simple Circuits) -->
<g id="edge30" class="edge">
<title>3,15 (Even Yet More Coke)&#45;&gt;2,5 (Simple Circuits)</title>
<path fill="none" stroke="black" stroke-width="0.04" d="M5166.07,-556.34C5272.86,-654.65 5785.59,-1126.65 5909.88,-1241.07"/>
<polygon fill="black" stroke="black" stroke-width="0.04" points="5907.77,-1243.88 5917.5,-1248.08 5912.51,-1238.73 5907.77,-1243.88"/>
<text text-anchor="middle" x="5499.97" y="-902.5" font-family="Times,serif" font-size="14.00">coke*2096</text>
</g>
<!-- &#45;3,&#45;2 (Depot) -->
<g id="node24" class="node">
<title>&#45;3,&#45;2 (Depot)</title>
<ellipse fill="none" stroke="black" cx="5223.59" cy="-420.4" rx="68.79" ry="18"/>
<text text-anchor="middle" x="5223.59" y="-416.7" font-family="Times,serif" font-size="14.00">&#45;3,&#45;2 (Depot)</text>
</g>
<!-- 3,15 (Even Yet More Coke)&#45;&gt;&#45;3,&#45;2 (Depot) -->
<g id="edge54" class="edge">
<title>3,15 (Even Yet More Coke)&#45;&gt;&#45;3,&#45;2 (Depot)</title>
<path fill="none" stroke="black" stroke-width="0.42" d="M5158.4,-520.18C5171.16,-500.64 5191.59,-469.39 5206.17,-447.06"/>
<polygon fill="black" stroke="black" stroke-width="0.42" points="5209.29,-448.69 5211.83,-438.4 5203.43,-444.86 5209.29,-448.69"/>
<text text-anchor="middle" x="5139.78" y="-487.42" font-family="Times,serif" font-size="14.00">coke*25008</text>
</g>
<!-- 3,16 (More Coke) -->
<g id="node7" class="node">
<title>3,16 (More Coke)</title>
<ellipse fill="none" stroke="black" cx="490.58" cy="-4824.46" rx="90.98" ry="18"/>
<text text-anchor="middle" x="490.58" y="-4820.76" font-family="Times,serif" font-size="14.00">3,16 (More Coke)</text>
</g>
<!-- 3,16 (More Coke)&#45;&gt;1,12 (Molten Iron) -->
<g id="edge8" class="edge">
<title>3,16 (More Coke)&#45;&gt;1,12 (Molten Iron)</title>
<path fill="none" stroke="black" stroke-width="0.55" d="M496.86,-4806.15C599.05,-4508.48 1915.11,-674.94 2040.5,-309.68"/>
<polygon fill="black" stroke="black" stroke-width="0.55" points="2043.85,-310.7 2043.79,-300.11 2037.23,-308.43 2043.85,-310.7"/>
<text text-anchor="middle" x="1226.18" y="-2561.72" font-family="Times,serif" font-size="14.00">coke*32528</text>
</g>
<!-- 3,16 (More Coke)&#45;&gt;0,8 (Tar from Coke) -->
<g id="edge10" class="edge">
<title>3,16 (More Coke)&#45;&gt;0,8 (Tar from Coke)</title>
<path fill="none" stroke="black" stroke-width="4.26" d="M490.58,-4806.21C490.58,-4566.59 490.58,-2042.72 490.58,-1745.86"/>
<polygon fill="black" stroke="black" stroke-width="4.26" points="494.3,-1745.52 490.58,-1735.52 486.85,-1745.52 494.3,-1745.52"/>
<text text-anchor="middle" x="443.58" y="-3279.84" font-family="Times,serif" font-size="14.00">coke*252048</text>
</g>
<!-- 3,16 (More Coke)&#45;&gt;&#45;2,9 (molten steel) -->
<g id="edge13" class="edge">
<title>3,16 (More Coke)&#45;&gt;&#45;2,9 (molten steel)</title>
<path fill="none" stroke="black" stroke-width="0.31" d="M487.56,-4806.38C455.94,-4616.91 185.62,-2996.97 146.42,-2762.04"/>
<polygon fill="black" stroke="black" stroke-width="0.31" points="149.83,-2761.2 144.73,-2751.91 142.92,-2762.35 149.83,-2761.2"/>
<text text-anchor="middle" x="274.49" y="-3773.01" font-family="Times,serif" font-size="14.00">coke*18176</text>
</g>
<!-- 3,16 (More Coke)&#45;&gt;&#45;2,6 (Wrong ratio of Calcium Carbide to Acetalene) -->
<g id="edge7" class="edge">
<title>3,16 (More Coke)&#45;&gt;&#45;2,6 (Wrong ratio of Calcium Carbide to Acetalene)</title>
<path fill="none" stroke="black" stroke-width="3.93" d="M504.67,-4842.56C589.22,-4951.19 1029,-5516.22 1129.9,-5645.86"/>
<polygon fill="black" stroke="black" stroke-width="3.93" points="1127.41,-5648.35 1136.31,-5654.1 1132.93,-5644.05 1127.41,-5648.35"/>
<text text-anchor="middle" x="770.28" y="-5248.01" font-family="Times,serif" font-size="14.00">coke*232672</text>
</g>
<!-- 3,16 (More Coke)&#45;&gt;8,0 (Moar Depot) -->
<g id="edge37" class="edge">
<title>3,16 (More Coke)&#45;&gt;8,0 (Moar Depot)</title>
<path fill="none" stroke="black" stroke-width="0.85" d="M500.52,-4806.09C667.19,-4498.1 2876.1,-416.39 3077.09,-45.01"/>
<polygon fill="black" stroke="black" stroke-width="0.85" points="3080.27,-46.47 3081.96,-36.01 3074.12,-43.14 3080.27,-46.47"/>
<text text-anchor="middle" x="1746.3" y="-2429.35" font-family="Times,serif" font-size="14.00">coke*50016</text>
</g>
<!-- 3,16 (More Coke)&#45;&gt;&#45;4,&#45;2 (For Science!) -->
<g id="edge23" class="edge">
<title>3,16 (More Coke)&#45;&gt;&#45;4,&#45;2 (For Science!)</title>
<path fill="none" stroke="black" stroke-width="0.21" d="M509.73,-4842.09C673.18,-4992.55 1832.07,-6059.39 2023.37,-6235.5"/>
<polygon fill="black" stroke="black" stroke-width="0.21" points="2021.04,-6238.1 2030.76,-6242.3 2025.78,-6232.95 2021.04,-6238.1"/>
<text text-anchor="middle" x="1224.05" y="-5542.59" font-family="Times,serif" font-size="14.00">coke*12448</text>
</g>
<!-- 3,16 (More Coke)&#45;&gt;&#45;5,1 (Acetylene) -->
<g id="edge41" class="edge">
<title>3,16 (More Coke)&#45;&gt;&#45;5,1 (Acetylene)</title>
<path fill="none" stroke="black" stroke-width="1.27" d="M504.61,-4806.42C739.96,-4504.05 3859.62,-495.91 4142.09,-132.99"/>
<polygon fill="black" stroke="black" stroke-width="1.27" points="4145.03,-134.91 4148.41,-124.87 4139.51,-130.61 4145.03,-134.91"/>
<text text-anchor="middle" x="2280.85" y="-2473.51" font-family="Times,serif" font-size="14.00">coke*75408</text>
</g>
<!-- 3,16 (More Coke)&#45;&gt;4,12 (Molten Glass) -->
<g id="edge19" class="edge">
<title>3,16 (More Coke)&#45;&gt;4,12 (Molten Glass)</title>
<path fill="none" stroke="black" stroke-width="0.07" d="M528.23,-4807.94C1005.43,-4598.62 5866.42,-2466.39 6400.84,-2231.98"/>
<polygon fill="black" stroke="black" stroke-width="0.07" points="6402.44,-2235.09 6410.19,-2227.87 6399.63,-2228.68 6402.44,-2235.09"/>
<text text-anchor="middle" x="3426.54" y="-3523.76" font-family="Times,serif" font-size="14.00">coke*4064</text>
</g>
<!-- 3,16 (More Coke)&#45;&gt;3,9 (Copper, molten &amp; plate) -->
<g id="edge48" class="edge">
<title>3,16 (More Coke)&#45;&gt;3,9 (Copper, molten &amp; plate)</title>
<path fill="none" stroke="black" stroke-width="0.17" d="M528.12,-4840.92C886.98,-4998.34 3706.75,-6235.2 4113.66,-6413.69"/>
<polygon fill="black" stroke="black" stroke-width="0.17" points="4112.26,-6416.9 4122.82,-6417.71 4115.07,-6410.49 4112.26,-6416.9"/>
<text text-anchor="middle" x="2278.39" y="-5631.11" font-family="Times,serif" font-size="14.00">coke*10016</text>
</g>
<!-- 3,16 (More Coke)&#45;&gt;&#45;5,&#45;4 (low priority (slaked)? lime) -->
<g id="edge28" class="edge">
<title>3,16 (More Coke)&#45;&gt;&#45;5,&#45;4 (low priority (slaked)? lime)</title>
<path fill="none" stroke="black" stroke-width="0.26" d="M546.93,-4838.73C1033.05,-4961.83 4513.34,-5843.16 5071.18,-5984.42"/>
<polygon fill="black" stroke="black" stroke-width="0.26" points="5070.57,-5987.88 5081.13,-5986.94 5072.29,-5981.1 5070.57,-5987.88"/>
<text text-anchor="middle" x="2766.56" y="-5415.38" font-family="Times,serif" font-size="14.00">coke*15472</text>
</g>
<!-- 3,16 (More Coke)&#45;&gt;&#45;6,&#45;4 (High&#45;Power Resistors, Ceramic Capacitor, Inductor) -->
<g id="edge33" class="edge">
<title>3,16 (More Coke)&#45;&gt;&#45;6,&#45;4 (High&#45;Power Resistors, Ceramic Capacitor, Inductor)</title>
<path fill="none" stroke="black" stroke-width="0.04" d="M574.51,-4817.5C1216.42,-4764.31 5347.69,-4421.99 6267.24,-4345.79"/>
<polygon fill="black" stroke="black" stroke-width="0.04" points="6267.58,-4349.27 6277.25,-4344.96 6267,-4342.3 6267.58,-4349.27"/>
<text text-anchor="middle" x="3382.88" y="-4585.45" font-family="Times,serif" font-size="14.00">coke*2416</text>
</g>
<!-- 3,16 (More Coke)&#45;&gt;6,4 (Electronic components) -->
<g id="edge45" class="edge">
<title>3,16 (More Coke)&#45;&gt;6,4 (Electronic components)</title>
<path fill="none" stroke="black" stroke-width="0.05" d="M484.37,-4806.39C442.59,-4684.68 202.35,-3984.88 151.24,-3836.02"/>
<polygon fill="black" stroke="black" stroke-width="0.05" points="154.45,-3834.59 147.9,-3826.27 147.83,-3836.86 154.45,-3834.59"/>
<text text-anchor="middle" x="279.81" y="-4325" font-family="Times,serif" font-size="14.00">coke*3168</text>
</g>
<!-- 4,14 (A Coal mine, Coke oven gas wasted by venting, Coke direct from mine, A Coal mine?, A Coal mine?!) -->
<g id="node21" class="node">
<title>4,14 (A Coal mine, Coke oven gas wasted by venting, Coke direct from mine, A Coal mine?, A Coal mine?!)</title>
<ellipse fill="none" stroke="black" cx="1150.55" cy="-869.47" rx="503.91" ry="18"/>
<text text-anchor="middle" x="1150.55" y="-865.77" font-family="Times,serif" font-size="14.00">4,14 (A Coal mine, Coke oven gas wasted by venting, Coke direct from mine, A Coal mine?, A Coal mine?!)</text>
</g>
<!-- 4,14 (A Coal mine, Coke oven gas wasted by venting, Coke direct from mine, A Coal mine?, A Coal mine?!)&#45;&gt;1,12 (Molten Iron) -->
<g id="edge49" class="edge">
<title>4,14 (A Coal mine, Coke oven gas wasted by venting, Coke direct from mine, A Coal mine?, A Coal mine?!)&#45;&gt;1,12 (Molten Iron)</title>
<path fill="none" stroke="black" stroke-width="0.03" d="M1178.46,-851.24C1310.04,-765.27 1868.17,-400.62 2014.72,-304.88"/>
<polygon fill="black" stroke="black" stroke-width="0.03" points="2016.92,-307.62 2023.38,-299.22 2013.09,-301.76 2016.92,-307.62"/>
<text text-anchor="middle" x="1558.59" y="-581.86" font-family="Times,serif" font-size="14.00">coke*2032</text>
</g>
<!-- 4,14 (A Coal mine, Coke oven gas wasted by venting, Coke direct from mine, A Coal mine?, A Coal mine?!)&#45;&gt;0,8 (Tar from Coke) -->
<g id="edge55" class="edge">
<title>4,14 (A Coal mine, Coke oven gas wasted by venting, Coke direct from mine, A Coal mine?, A Coal mine?!)&#45;&gt;0,8 (Tar from Coke)</title>
<path fill="none" stroke="black" stroke-width="0.04" d="M1136.46,-887.57C1051.82,-996.32 611.18,-1562.45 510.9,-1691.29"/>
<polygon fill="black" stroke="black" stroke-width="0.04" points="507.91,-1689.43 504.53,-1699.47 513.44,-1693.72 507.91,-1689.43"/>
<text text-anchor="middle" x="785.68" y="-1293.23" font-family="Times,serif" font-size="14.00">coke*2432</text>
</g>
<!-- 4,14 (A Coal mine, Coke oven gas wasted by venting, Coke direct from mine, A Coal mine?, A Coal mine?!)&#45;&gt;&#45;2,9 (molten steel) -->
<g id="edge51" class="edge">
<title>4,14 (A Coal mine, Coke oven gas wasted by venting, Coke direct from mine, A Coal mine?, A Coal mine?!)&#45;&gt;&#45;2,9 (molten steel)</title>
<path fill="none" stroke="black" stroke-width="0.05" d="M1140.72,-887.62C1044.59,-1065.26 272.71,-2491.57 156.35,-2706.58"/>
<polygon fill="black" stroke="black" stroke-width="0.05" points="153.14,-2705.16 151.46,-2715.62 159.3,-2708.5 153.14,-2705.16"/>
<text text-anchor="middle" x="610.54" y="-1800.9" font-family="Times,serif" font-size="14.00">coke*2720</text>
</g>
<!-- 4,14 (A Coal mine, Coke oven gas wasted by venting, Coke direct from mine, A Coal mine?, A Coal mine?!)&#45;&gt;6,4 (Electronic components) -->
<g id="edge44" class="edge">
<title>4,14 (A Coal mine, Coke oven gas wasted by venting, Coke direct from mine, A Coal mine?, A Coal mine?!)&#45;&gt;6,4 (Electronic components)</title>
<path fill="none" stroke="black" stroke-width="0.04" d="M1144.37,-887.47C1065.12,-1118.32 248.81,-3496.13 151.21,-3780.43"/>
<polygon fill="black" stroke="black" stroke-width="0.04" points="147.86,-3779.41 147.93,-3790 154.48,-3781.68 147.86,-3779.41"/>
<text text-anchor="middle" x="609.79" y="-2337.75" font-family="Times,serif" font-size="14.00">coke*2320</text>
</g>
</g>
</svg>
