<?xml version="1.0" encoding="UTF-8" standalone="no"?>
<!DOCTYPE svg PUBLIC "-//W3C//DTD SVG 1.1//EN"
 "http://www.w3.org/Graphics/SVG/1.1/DTD/svg11.dtd">
<!-- Generated by graphviz version 2.43.0 (0)
 -->
<!-- Title: %3 Pages: 1 -->
<svg width="2596pt" height="1886pt"
 viewBox="0.00 0.00 2596.36 1885.72" xmlns="http://www.w3.org/2000/svg" xmlns:xlink="http://www.w3.org/1999/xlink">
<g id="graph0" class="graph" transform="scale(1 1) rotate(0) translate(4 1881.72)">
<title>%3</title>
<polygon fill="white" stroke="transparent" points="-4,4 -4,-1881.72 2592.36,-1881.72 2592.36,4 -4,4"/>
<!-- &#45;5,&#45;1 (Coal and Coke and Syngas and Ash and Coke Oven Gas and...) -->
<g id="node1" class="node">
<title>&#45;5,&#45;1 (Coal and Coke and Syngas and Ash and Coke Oven Gas and...)</title>
<ellipse fill="none" stroke="black" cx="730.38" cy="-287.71" rx="325.74" ry="18"/>
<text text-anchor="middle" x="730.38" y="-284.01" font-family="Times,serif" font-size="14.00">&#45;5,&#45;1 (Coal and Coke and Syngas and Ash and Coke Oven Gas and...)</text>
</g>
<!-- &#45;2,8 (syngas from coal dust and also wood) -->
<g id="node2" class="node">
<title>&#45;2,8 (syngas from coal dust and also wood)</title>
<ellipse fill="none" stroke="black" cx="460.67" cy="-938.86" rx="208.76" ry="18"/>
<text text-anchor="middle" x="460.67" y="-935.16" font-family="Times,serif" font-size="14.00">&#45;2,8 (syngas from coal dust and also wood)</text>
</g>
<!-- &#45;5,&#45;1 (Coal and Coke and Syngas and Ash and Coke Oven Gas and...)&#45;&gt;&#45;2,8 (syngas from coal dust and also wood) -->
<g id="edge1" class="edge">
<title>&#45;5,&#45;1 (Coal and Coke and Syngas and Ash and Coke Oven Gas and...)&#45;&gt;&#45;2,8 (syngas from coal dust and also wood)</title>
<path fill="none" stroke="black" stroke-width="5.73" d="M722.88,-305.81C685.3,-396.54 517.4,-801.89 472.01,-911.47"/>
<polygon fill="black" stroke="black" stroke-width="5.73" points="467.32,-909.7 468.12,-920.85 476.58,-913.53 467.32,-909.7"/>
<text text-anchor="middle" x="529.95" y="-612.44" font-family="Times,serif" font-size="14.00">coal&#45;dust*1357153</text>
</g>
<!-- 1,7 (Activated Carbon) -->
<g id="node3" class="node">
<title>1,7 (Activated Carbon)</title>
<ellipse fill="none" stroke="black" cx="2032.67" cy="-287.71" rx="115.88" ry="18"/>
<text text-anchor="middle" x="2032.67" y="-284.01" font-family="Times,serif" font-size="14.00">1,7 (Activated Carbon)</text>
</g>
<!-- &#45;5,&#45;1 (Coal and Coke and Syngas and Ash and Coke Oven Gas and...)&#45;&gt;1,7 (Activated Carbon) -->
<g id="edge2" class="edge">
<title>&#45;5,&#45;1 (Coal and Coke and Syngas and Ash and Coke Oven Gas and...)&#45;&gt;1,7 (Activated Carbon)</title>
<path fill="none" stroke="black" stroke-width="2.59" d="M1056.06,-287.71C1331.59,-287.71 1711.76,-287.71 1906.52,-287.71"/>
<polygon fill="black" stroke="black" stroke-width="2.59" points="1906.8,-291.21 1916.8,-287.71 1906.8,-284.21 1906.8,-291.21"/>
<text text-anchor="middle" x="1418.29" y="-291.51" font-family="Times,serif" font-size="14.00">coal&#45;dust*613872</text>
</g>
<!-- &#45;3,9 (Silicon Wafers) -->
<g id="node11" class="node">
<title>&#45;3,9 (Silicon Wafers)</title>
<ellipse fill="none" stroke="black" cx="605.94" cy="-163.27" rx="103.98" ry="18"/>
<text text-anchor="middle" x="605.94" y="-159.57" font-family="Times,serif" font-size="14.00">&#45;3,9 (Silicon Wafers)</text>
</g>
<!-- &#45;5,&#45;1 (Coal and Coke and Syngas and Ash and Coke Oven Gas and...)&#45;&gt;&#45;3,9 (Silicon Wafers) -->
<g id="edge15" class="edge">
<title>&#45;5,&#45;1 (Coal and Coke and Syngas and Ash and Coke Oven Gas and...)&#45;&gt;&#45;3,9 (Silicon Wafers)</title>
<path fill="none" stroke="black" stroke-width="0.21" d="M712.28,-269.62C690.99,-248.33 655.5,-212.84 631.43,-188.77"/>
<polygon fill="black" stroke="black" stroke-width="0.21" points="633.6,-185.98 624.05,-181.39 628.65,-190.93 633.6,-185.98"/>
<text text-anchor="middle" x="613.36" y="-232.99" font-family="Times,serif" font-size="14.00">coal&#45;dust*50304</text>
</g>
<!-- 2,8 (Graphite) -->
<g id="node4" class="node">
<title>2,8 (Graphite)</title>
<ellipse fill="none" stroke="black" cx="730.38" cy="-1590.01" rx="76.09" ry="18"/>
<text text-anchor="middle" x="730.38" y="-1586.31" font-family="Times,serif" font-size="14.00">2,8 (Graphite)</text>
</g>
<!-- 2,8 (Graphite)&#45;&gt;&#45;2,8 (syngas from coal dust and also wood) -->
<g id="edge3" class="edge">
<title>2,8 (Graphite)&#45;&gt;&#45;2,8 (syngas from coal dust and also wood)</title>
<path fill="none" stroke="black" stroke-width="4.03" d="M722.88,-1571.91C685.3,-1481.18 517.4,-1075.83 472.01,-966.25"/>
<polygon fill="black" stroke="black" stroke-width="4.03" points="475.21,-964.76 468.12,-956.87 468.7,-967.46 475.21,-964.76"/>
<text text-anchor="middle" x="534.45" y="-1272.88" font-family="Times,serif" font-size="14.00">coal&#45;dust*954096</text>
</g>
<!-- 2,8 (Graphite)&#45;&gt;1,7 (Activated Carbon) -->
<g id="edge7" class="edge">
<title>2,8 (Graphite)&#45;&gt;1,7 (Activated Carbon)</title>
<path fill="none" stroke="black" stroke-width="0.88" d="M748.29,-1572.09C890.69,-1429.7 1838.25,-482.14 2006.99,-313.4"/>
<polygon fill="black" stroke="black" stroke-width="0.88" points="2009.84,-315.5 2014.43,-305.95 2004.89,-310.55 2009.84,-315.5"/>
<text text-anchor="middle" x="1314.64" y="-946.54" font-family="Times,serif" font-size="14.00">coal&#45;dust*207856</text>
</g>
<!-- 4,3 (item=nexelit&#45;plate Nexelit platery) -->
<g id="node5" class="node">
<title>4,3 (item=nexelit&#45;plate Nexelit platery)</title>
<ellipse fill="none" stroke="black" cx="194.33" cy="-938.86" rx="194.17" ry="18"/>
<text text-anchor="middle" x="194.33" y="-935.16" font-family="Times,serif" font-size="14.00">4,3 (item=nexelit&#45;plate Nexelit platery)</text>
</g>
<!-- 4,3 (item=nexelit&#45;plate Nexelit platery)&#45;&gt;&#45;2,8 (syngas from coal dust and also wood) -->
<g id="edge4" class="edge">
<title>4,3 (item=nexelit&#45;plate Nexelit platery)&#45;&gt;&#45;2,8 (syngas from coal dust and also wood)</title>
<path fill="none" stroke="black" stroke-width="0.03" d="M388.94,-938.86C389.02,-938.86 389.1,-938.86 389.18,-938.86"/>
<polygon fill="black" stroke="black" stroke-width="0.03" points="379.42,-942.36 389.42,-938.86 379.42,-935.36 379.42,-942.36"/>
<text text-anchor="middle" x="443.06" y="-942.66" font-family="Times,serif" font-size="14.00">coal&#45;dust*7104</text>
</g>
<!-- 3,15 (Even Yet More Coke) -->
<g id="node6" class="node">
<title>3,15 (Even Yet More Coke)</title>
<ellipse fill="none" stroke="black" cx="1381.53" cy="-18" rx="135.38" ry="18"/>
<text text-anchor="middle" x="1381.53" y="-14.3" font-family="Times,serif" font-size="14.00">3,15 (Even Yet More Coke)</text>
</g>
<!-- 3,15 (Even Yet More Coke)&#45;&gt;&#45;2,8 (syngas from coal dust and also wood) -->
<g id="edge9" class="edge">
<title>3,15 (Even Yet More Coke)&#45;&gt;&#45;2,8 (syngas from coal dust and also wood)</title>
<path fill="none" stroke="black" stroke-width="0.2" d="M1363.54,-35.98C1248.95,-150.57 621.2,-778.32 486.23,-913.29"/>
<polygon fill="black" stroke="black" stroke-width="0.2" points="483.36,-911.22 478.76,-920.76 488.31,-916.17 483.36,-911.22"/>
<text text-anchor="middle" x="866.39" y="-478.44" font-family="Times,serif" font-size="14.00">coal&#45;dust*47648</text>
</g>
<!-- 3,15 (Even Yet More Coke)&#45;&gt;1,7 (Activated Carbon) -->
<g id="edge5" class="edge">
<title>3,15 (Even Yet More Coke)&#45;&gt;1,7 (Activated Carbon)</title>
<path fill="none" stroke="black" stroke-width="0.06" d="M1423.25,-35.28C1538.01,-82.82 1858.09,-215.4 1982.41,-266.89"/>
<polygon fill="black" stroke="black" stroke-width="0.06" points="1981.14,-270.16 1991.72,-270.75 1983.82,-263.69 1981.14,-270.16"/>
<text text-anchor="middle" x="1644.33" y="-154.89" font-family="Times,serif" font-size="14.00">coal&#45;dust*14944</text>
</g>
<!-- &#45;7,5 () -->
<g id="node7" class="node">
<title>&#45;7,5 ()</title>
<ellipse fill="none" stroke="black" cx="1381.53" cy="-1859.72" rx="38.19" ry="18"/>
<text text-anchor="middle" x="1381.53" y="-1856.02" font-family="Times,serif" font-size="14.00">&#45;7,5 ()</text>
</g>
<!-- &#45;7,5 ()&#45;&gt;&#45;2,8 (syngas from coal dust and also wood) -->
<g id="edge10" class="edge">
<title>&#45;7,5 ()&#45;&gt;&#45;2,8 (syngas from coal dust and also wood)</title>
<path fill="none" stroke="black" stroke-width="0.35" d="M1365.15,-1843.35C1254.91,-1733.1 621.24,-1099.44 486.04,-964.23"/>
<polygon fill="black" stroke="black" stroke-width="0.35" points="488.46,-961.7 478.91,-957.11 483.51,-966.65 488.46,-961.7"/>
<text text-anchor="middle" x="867.1" y="-1407.59" font-family="Times,serif" font-size="14.00">coal&#45;dust*82480</text>
</g>
<!-- &#45;7,5 ()&#45;&gt;1,7 (Activated Carbon) -->
<g id="edge6" class="edge">
<title>&#45;7,5 ()&#45;&gt;1,7 (Activated Carbon)</title>
<path fill="none" stroke="black" stroke-width="0.32" d="M1388.95,-1841.8C1454.97,-1682.41 1940.87,-509.34 2021.39,-314.96"/>
<polygon fill="black" stroke="black" stroke-width="0.32" points="2024.62,-316.3 2025.21,-305.72 2018.15,-313.62 2024.62,-316.3"/>
<text text-anchor="middle" x="1646.67" y="-1082.18" font-family="Times,serif" font-size="14.00">coal&#45;dust*74816</text>
</g>
<!-- 3,16 (More Coke) -->
<g id="node8" class="node">
<title>3,16 (More Coke)</title>
<ellipse fill="none" stroke="black" cx="2032.67" cy="-1590.01" rx="90.98" ry="18"/>
<text text-anchor="middle" x="2032.67" y="-1586.31" font-family="Times,serif" font-size="14.00">3,16 (More Coke)</text>
</g>
<!-- 3,16 (More Coke)&#45;&gt;&#45;2,8 (syngas from coal dust and also wood) -->
<g id="edge11" class="edge">
<title>3,16 (More Coke)&#45;&gt;&#45;2,8 (syngas from coal dust and also wood)</title>
<path fill="none" stroke="black" stroke-width="0.26" d="M1993.42,-1573.75C1779.67,-1485.21 756.6,-1061.44 512.87,-960.48"/>
<polygon fill="black" stroke="black" stroke-width="0.26" points="514.1,-957.21 503.52,-956.61 511.42,-963.67 514.1,-957.21"/>
<text text-anchor="middle" x="1194.65" y="-1270.92" font-family="Times,serif" font-size="14.00">coal&#45;dust*62080</text>
</g>
<!-- 3,16 (More Coke)&#45;&gt;1,7 (Activated Carbon) -->
<g id="edge8" class="edge">
<title>3,16 (More Coke)&#45;&gt;1,7 (Activated Carbon)</title>
<path fill="none" stroke="black" stroke-width="0.1" d="M2032.67,-1571.6C2032.67,-1428.29 2032.67,-492.05 2032.67,-316.17"/>
<polygon fill="black" stroke="black" stroke-width="0.1" points="2036.17,-315.92 2032.67,-305.92 2029.17,-315.92 2036.17,-315.92"/>
<text text-anchor="middle" x="1974.17" y="-947.68" font-family="Times,serif" font-size="14.00">coal&#45;dust*23280</text>
</g>
<!-- &#45;6,1 (Coke and Coal Dust from Biomass (needs Iron plates)) -->
<g id="node9" class="node">
<title>&#45;6,1 (Coke and Coal Dust from Biomass (needs Iron plates))</title>
<ellipse fill="none" stroke="black" cx="2302.39" cy="-938.86" rx="285.95" ry="18"/>
<text text-anchor="middle" x="2302.39" y="-935.16" font-family="Times,serif" font-size="14.00">&#45;6,1 (Coke and Coal Dust from Biomass (needs Iron plates))</text>
</g>
<!-- &#45;6,1 (Coke and Coal Dust from Biomass (needs Iron plates))&#45;&gt;&#45;2,8 (syngas from coal dust and also wood) -->
<g id="edge13" class="edge">
<title>&#45;6,1 (Coke and Coal Dust from Biomass (needs Iron plates))&#45;&gt;&#45;2,8 (syngas from coal dust and also wood)</title>
<path fill="none" stroke="black" stroke-width="0.1" d="M2016.39,-938.86C1647.2,-938.86 1012.77,-938.86 679.61,-938.86"/>
<polygon fill="black" stroke="black" stroke-width="0.1" points="679.35,-935.36 669.35,-938.86 679.35,-942.36 679.35,-935.36"/>
<text text-anchor="middle" x="1289.5" y="-927.66" font-family="Times,serif" font-size="14.00">coal&#45;dust*22816</text>
</g>
<!-- &#45;6,1 (Coke and Coal Dust from Biomass (needs Iron plates))&#45;&gt;1,7 (Activated Carbon) -->
<g id="edge14" class="edge">
<title>&#45;6,1 (Coke and Coal Dust from Biomass (needs Iron plates))&#45;&gt;1,7 (Activated Carbon)</title>
<path fill="none" stroke="black" stroke-width="0.05" d="M2294.89,-920.77C2257.31,-830.04 2089.41,-424.69 2044.02,-315.1"/>
<polygon fill="black" stroke="black" stroke-width="0.05" points="2047.19,-313.62 2040.13,-305.72 2040.73,-316.3 2047.19,-313.62"/>
<text text-anchor="middle" x="2110.95" y="-621.73" font-family="Times,serif" font-size="14.00">coal&#45;dust*10880</text>
</g>
<!-- 5,5 (Silicon) -->
<g id="node10" class="node">
<title>5,5 (Silicon)</title>
<ellipse fill="none" stroke="black" cx="2440.68" cy="-938.86" rx="66.09" ry="18"/>
<text text-anchor="middle" x="2440.68" y="-935.16" font-family="Times,serif" font-size="14.00">5,5 (Silicon)</text>
</g>
<!-- &#45;6,1 (Coke and Coal Dust from Biomass (needs Iron plates))&#45;&gt;5,5 (Silicon) -->
<g id="edge12" class="edge">
<title>&#45;6,1 (Coke and Coal Dust from Biomass (needs Iron plates))&#45;&gt;5,5 (Silicon)</title>
<path fill="none" stroke="black" stroke-width="0.11" d="M2440.58,-938.86C2440.6,-938.86 2440.61,-938.86 2440.62,-938.86"/>
<polygon fill="black" stroke="black" stroke-width="0.11" points="2430.67,-942.39 2440.66,-938.86 2430.64,-935.39 2430.67,-942.39"/>
<text text-anchor="middle" x="2382.1" y="-942.66" font-family="Times,serif" font-size="14.00">coal&#45;dust*25040</text>
</g>
</g>
</svg>
