<?xml version="1.0" encoding="UTF-8" standalone="no"?>
<!DOCTYPE svg PUBLIC "-//W3C//DTD SVG 1.1//EN"
 "http://www.w3.org/Graphics/SVG/1.1/DTD/svg11.dtd">
<!-- Generated by graphviz version 2.43.0 (0)
 -->
<!-- Title: %3 Pages: 1 -->
<svg width="898pt" height="44pt"
 viewBox="0.00 0.00 898.13 44.00" xmlns="http://www.w3.org/2000/svg" xmlns:xlink="http://www.w3.org/1999/xlink">
<g id="graph0" class="graph" transform="scale(1 1) rotate(0) translate(4 40)">
<title>%3</title>
<polygon fill="white" stroke="transparent" points="-4,4 -4,-40 894.13,-40 894.13,4 -4,4"/>
<!-- &#45;2,9 (molten steel) -->
<g id="node1" class="node">
<title>&#45;2,9 (molten steel)</title>
<ellipse fill="none" stroke="black" cx="400.22" cy="-18" rx="95.58" ry="18"/>
<text text-anchor="middle" x="400.22" y="-14.3" font-family="Times,serif" font-size="14.00">&#45;2,9 (molten steel)</text>
</g>
<!-- &#45;1,11 (Steel Plate (from molten)) -->
<g id="node2" class="node">
<title>&#45;1,11 (Steel Plate (from molten))</title>
<ellipse fill="none" stroke="black" cx="728.95" cy="-18" rx="161.37" ry="18"/>
<text text-anchor="middle" x="728.95" y="-14.3" font-family="Times,serif" font-size="14.00">&#45;1,11 (Steel Plate (from molten))</text>
</g>
<!-- &#45;2,9 (molten steel)&#45;&gt;&#45;1,11 (Steel Plate (from molten)) -->
<g id="edge1" class="edge">
<title>&#45;2,9 (molten steel)&#45;&gt;&#45;1,11 (Steel Plate (from molten))</title>
<path fill="none" stroke="black" stroke-width="1.84" d="M496.19,-18C515.57,-18 536.5,-18 557.59,-18"/>
<polygon fill="black" stroke="black" stroke-width="1.84" points="557.61,-21.5 567.61,-18 557.61,-14.5 557.61,-21.5"/>
<text text-anchor="middle" x="526.89" y="-6.8" font-family="Times,serif" font-size="14.00">molten&#45;steel&#45;barrel*25694</text>
</g>
<!-- 0,0 (LE BUS) -->
<g id="node3" class="node">
<title>0,0 (LE BUS)</title>
<ellipse fill="none" stroke="black" cx="71.49" cy="-18" rx="71.49" ry="18"/>
<text text-anchor="middle" x="71.49" y="-14.3" font-family="Times,serif" font-size="14.00">0,0 (LE BUS)</text>
</g>
<!-- &#45;2,9 (molten steel)&#45;&gt;0,0 (LE BUS) -->
<g id="edge2" class="edge">
<title>&#45;2,9 (molten steel)&#45;&gt;0,0 (LE BUS)</title>
<path fill="none" stroke="black" stroke-width="0.16" d="M304.26,-18C256.33,-18 198.97,-18 153.18,-18"/>
<polygon fill="black" stroke="black" stroke-width="0.16" points="153,-14.5 143,-18 153,-21.5 153,-14.5"/>
<text text-anchor="middle" x="228.72" y="-6.8" font-family="Times,serif" font-size="14.00">molten&#45;steel&#45;barrel*2230</text>
</g>
</g>
</svg>
