<?xml version="1.0" encoding="UTF-8" standalone="no"?>
<!DOCTYPE svg PUBLIC "-//W3C//DTD SVG 1.1//EN"
 "http://www.w3.org/Graphics/SVG/1.1/DTD/svg11.dtd">
<!-- Generated by graphviz version 2.43.0 (0)
 -->
<!-- Title: %3 Pages: 1 -->
<svg width="1834pt" height="1066pt"
 viewBox="0.00 0.00 1833.73 1065.94" xmlns="http://www.w3.org/2000/svg" xmlns:xlink="http://www.w3.org/1999/xlink">
<g id="graph0" class="graph" transform="scale(1 1) rotate(0) translate(4 1061.94)">
<title>%3</title>
<polygon fill="white" stroke="transparent" points="-4,4 -4,-1061.94 1829.73,-1061.94 1829.73,4 -4,4"/>
<!-- 1,6 (Sodium Hydroxide, These new bullets are fun, Limestone) -->
<g id="node1" class="node">
<title>1,6 (Sodium Hydroxide, These new bullets are fun, Limestone)</title>
<ellipse fill="none" stroke="black" cx="301.57" cy="-213.17" rx="301.65" ry="18"/>
<text text-anchor="middle" x="301.57" y="-209.47" font-family="Times,serif" font-size="14.00">1,6 (Sodium Hydroxide, These new bullets are fun, Limestone)</text>
</g>
<!-- &#45;5,&#45;4 (low priority (slaked)? lime) -->
<g id="node2" class="node">
<title>&#45;5,&#45;4 (low priority (slaked)? lime)</title>
<ellipse fill="none" stroke="black" cx="301.57" cy="-844.77" rx="162.47" ry="18"/>
<text text-anchor="middle" x="301.57" y="-841.07" font-family="Times,serif" font-size="14.00">&#45;5,&#45;4 (low priority (slaked)? lime)</text>
</g>
<!-- 1,6 (Sodium Hydroxide, These new bullets are fun, Limestone)&#45;&gt;&#45;5,&#45;4 (low priority (slaked)? lime) -->
<g id="edge1" class="edge">
<title>1,6 (Sodium Hydroxide, These new bullets are fun, Limestone)&#45;&gt;&#45;5,&#45;4 (low priority (slaked)? lime)</title>
<path fill="none" stroke="black" stroke-width="0.11" d="M301.57,-231.39C301.57,-320.17 301.57,-707.52 301.57,-816.27"/>
<polygon fill="black" stroke="black" stroke-width="0.11" points="298.07,-816.47 301.57,-826.47 305.07,-816.47 298.07,-816.47"/>
<text text-anchor="middle" x="245.07" y="-527.63" font-family="Times,serif" font-size="14.00">limestone*2224</text>
</g>
<!-- 0,0 (LE BUS) -->
<g id="node5" class="node">
<title>0,0 (LE BUS)</title>
<ellipse fill="none" stroke="black" cx="902.25" cy="-18" rx="71.49" ry="18"/>
<text text-anchor="middle" x="902.25" y="-14.3" font-family="Times,serif" font-size="14.00">0,0 (LE BUS)</text>
</g>
<!-- 1,6 (Sodium Hydroxide, These new bullets are fun, Limestone)&#45;&gt;0,0 (LE BUS) -->
<g id="edge4" class="edge">
<title>1,6 (Sodium Hydroxide, These new bullets are fun, Limestone)&#45;&gt;0,0 (LE BUS)</title>
<path fill="none" stroke="black" stroke-width="0.37" d="M356.21,-195.42C470.86,-158.17 735.34,-72.23 848.89,-35.34"/>
<polygon fill="black" stroke="black" stroke-width="0.37" points="849.99,-38.66 858.42,-32.24 847.83,-32 849.99,-38.66"/>
<text text-anchor="middle" x="546.05" y="-119.18" font-family="Times,serif" font-size="14.00">limestone*7728</text>
</g>
<!-- 2,14 (Latex) -->
<g id="node6" class="node">
<title>2,14 (Latex)</title>
<ellipse fill="none" stroke="black" cx="902.25" cy="-1039.94" rx="66.89" ry="18"/>
<text text-anchor="middle" x="902.25" y="-1036.24" font-family="Times,serif" font-size="14.00">2,14 (Latex)</text>
</g>
<!-- 1,6 (Sodium Hydroxide, These new bullets are fun, Limestone)&#45;&gt;2,14 (Latex) -->
<g id="edge8" class="edge">
<title>1,6 (Sodium Hydroxide, These new bullets are fun, Limestone)&#45;&gt;2,14 (Latex)</title>
<path fill="none" stroke="black" stroke-width="0.15" d="M314.68,-231.21C392.25,-337.98 791.05,-886.88 883.22,-1013.74"/>
<polygon fill="black" stroke="black" stroke-width="0.15" points="880.61,-1016.11 889.32,-1022.14 886.27,-1011.99 880.61,-1016.11"/>
<text text-anchor="middle" x="542.45" y="-626.28" font-family="Times,serif" font-size="14.00">limestone*3136</text>
</g>
<!-- 1,5 (Limestone) -->
<g id="node3" class="node">
<title>1,5 (Limestone)</title>
<ellipse fill="none" stroke="black" cx="1273.49" cy="-528.97" rx="83.39" ry="18"/>
<text text-anchor="middle" x="1273.49" y="-525.27" font-family="Times,serif" font-size="14.00">1,5 (Limestone)</text>
</g>
<!-- 1,5 (Limestone)&#45;&gt;&#45;5,&#45;4 (low priority (slaked)? lime) -->
<g id="edge2" class="edge">
<title>1,5 (Limestone)&#45;&gt;&#45;5,&#45;4 (low priority (slaked)? lime)</title>
<path fill="none" stroke="black" stroke-width="0.37" d="M1227.27,-543.99C1068.45,-595.59 544.92,-765.7 363.85,-824.53"/>
<polygon fill="black" stroke="black" stroke-width="0.37" points="362.64,-821.24 354.21,-827.66 364.8,-827.9 362.64,-821.24"/>
<text text-anchor="middle" x="739.06" y="-688.06" font-family="Times,serif" font-size="14.00">limestone*7760</text>
</g>
<!-- &#45;2,6 (Wrong ratio of Calcium Carbide to Acetalene) -->
<g id="node4" class="node">
<title>&#45;2,6 (Wrong ratio of Calcium Carbide to Acetalene)</title>
<ellipse fill="none" stroke="black" cx="1580.05" cy="-391.53" rx="245.86" ry="18"/>
<text text-anchor="middle" x="1580.05" y="-387.83" font-family="Times,serif" font-size="14.00">&#45;2,6 (Wrong ratio of Calcium Carbide to Acetalene)</text>
</g>
<!-- 1,5 (Limestone)&#45;&gt;&#45;2,6 (Wrong ratio of Calcium Carbide to Acetalene) -->
<g id="edge3" class="edge">
<title>1,5 (Limestone)&#45;&gt;&#45;2,6 (Wrong ratio of Calcium Carbide to Acetalene)</title>
<path fill="none" stroke="black" stroke-width="1.46" d="M1309.86,-512.66C1364.93,-487.98 1469.55,-441.07 1531.2,-413.43"/>
<polygon fill="black" stroke="black" stroke-width="1.46" points="1532.65,-416.62 1540.34,-409.33 1529.78,-410.23 1532.65,-416.62"/>
<text text-anchor="middle" x="1359.53" y="-466.85" font-family="Times,serif" font-size="14.00">limestone*30240</text>
</g>
<!-- 1,5 (Limestone)&#45;&gt;0,0 (LE BUS) -->
<g id="edge6" class="edge">
<title>1,5 (Limestone)&#45;&gt;0,0 (LE BUS)</title>
<path fill="none" stroke="black" stroke-width="4.19" d="M1260.5,-511.08C1204.92,-434.59 987.05,-134.71 921.2,-44.08"/>
<polygon fill="black" stroke="black" stroke-width="4.19" points="923.99,-41.67 915.14,-35.74 918.05,-45.99 923.99,-41.67"/>
<text text-anchor="middle" x="1029.85" y="-281.38" font-family="Times,serif" font-size="14.00">limestone*87088</text>
</g>
<!-- 1,5 (Limestone)&#45;&gt;2,14 (Latex) -->
<g id="edge5" class="edge">
<title>1,5 (Limestone)&#45;&gt;2,14 (Latex)</title>
<path fill="none" stroke="black" stroke-width="1.24" d="M1260.5,-546.85C1204.92,-623.35 987.05,-923.23 921.2,-1013.86"/>
<polygon fill="black" stroke="black" stroke-width="1.24" points="918.19,-1012.05 915.14,-1022.2 923.85,-1016.16 918.19,-1012.05"/>
<text text-anchor="middle" x="1029.85" y="-784.16" font-family="Times,serif" font-size="14.00">limestone*25840</text>
</g>
<!-- 4,12 (Molten Glass) -->
<g id="node7" class="node">
<title>4,12 (Molten Glass)</title>
<ellipse fill="none" stroke="black" cx="1545.19" cy="-805.58" rx="102.08" ry="18"/>
<text text-anchor="middle" x="1545.19" y="-801.88" font-family="Times,serif" font-size="14.00">4,12 (Molten Glass)</text>
</g>
<!-- 1,5 (Limestone)&#45;&gt;4,12 (Molten Glass) -->
<g id="edge7" class="edge">
<title>1,5 (Limestone)&#45;&gt;4,12 (Molten Glass)</title>
<path fill="none" stroke="black" stroke-width="0.1" d="M1290.9,-546.69C1337.66,-594.3 1466.1,-725.06 1520.42,-780.36"/>
<polygon fill="black" stroke="black" stroke-width="0.1" points="1518.07,-782.96 1527.57,-787.64 1523.06,-778.06 1518.07,-782.96"/>
<text text-anchor="middle" x="1349.16" y="-667.33" font-family="Times,serif" font-size="14.00">limestone*2064</text>
</g>
</g>
</svg>
