<?xml version="1.0" encoding="UTF-8" standalone="no"?>
<!DOCTYPE svg PUBLIC "-//W3C//DTD SVG 1.1//EN"
 "http://www.w3.org/Graphics/SVG/1.1/DTD/svg11.dtd">
<!-- Generated by graphviz version 2.43.0 (0)
 -->
<!-- Title: %3 Pages: 1 -->
<svg width="629pt" height="582pt"
 viewBox="0.00 0.00 629.45 582.41" xmlns="http://www.w3.org/2000/svg" xmlns:xlink="http://www.w3.org/1999/xlink">
<g id="graph0" class="graph" transform="scale(1 1) rotate(0) translate(4 578.41)">
<title>%3</title>
<polygon fill="white" stroke="transparent" points="-4,4 -4,-578.41 625.45,-578.41 625.45,4 -4,4"/>
<!-- 1,1 (Moondrops) -->
<g id="node1" class="node">
<title>1,1 (Moondrops)</title>
<ellipse fill="none" stroke="black" cx="288.18" cy="-298.18" rx="87.18" ry="18"/>
<text text-anchor="middle" x="288.18" y="-294.48" font-family="Times,serif" font-size="14.00">1,1 (Moondrops)</text>
</g>
<!-- 1,0 () -->
<g id="node2" class="node">
<title>1,0 ()</title>
<ellipse fill="none" stroke="black" cx="586.36" cy="-298.18" rx="35.19" ry="18"/>
<text text-anchor="middle" x="586.36" y="-294.48" font-family="Times,serif" font-size="14.00">1,0 ()</text>
</g>
<!-- 1,1 (Moondrops)&#45;&gt;1,0 () -->
<g id="edge1" class="edge">
<title>1,1 (Moondrops)&#45;&gt;1,0 ()</title>
<path fill="none" stroke="black" stroke-width="1.72" d="M375.63,-298.18C429.88,-298.18 497.34,-298.18 541.1,-298.18"/>
<polygon fill="black" stroke="black" stroke-width="1.72" points="541.15,-301.68 551.15,-298.18 541.15,-294.68 541.15,-301.68"/>
<text text-anchor="middle" x="489.36" y="-286.98" font-family="Times,serif" font-size="14.00">moondrop*24112</text>
</g>
<!-- &#45;3,4 (Lard from Cottonguts) -->
<g id="node3" class="node">
<title>&#45;3,4 (Lard from Cottonguts)</title>
<ellipse fill="none" stroke="black" cx="139.09" cy="-556.41" rx="139.18" ry="18"/>
<text text-anchor="middle" x="139.09" y="-552.71" font-family="Times,serif" font-size="14.00">&#45;3,4 (Lard from Cottonguts)</text>
</g>
<!-- 1,1 (Moondrops)&#45;&gt;&#45;3,4 (Lard from Cottonguts) -->
<g id="edge2" class="edge">
<title>1,1 (Moondrops)&#45;&gt;&#45;3,4 (Lard from Cottonguts)</title>
<path fill="none" stroke="black" stroke-width="0.86" d="M277.69,-316.34C251.87,-361.07 185.09,-476.74 154.64,-529.48"/>
<polygon fill="black" stroke="black" stroke-width="0.86" points="151.53,-527.86 149.56,-538.27 157.59,-531.36 151.53,-527.86"/>
<text text-anchor="middle" x="154.16" y="-426.71" font-family="Times,serif" font-size="14.00">moondrop*12048</text>
</g>
<!-- 4,7 (Cottonguts) -->
<g id="node4" class="node">
<title>4,7 (Cottonguts)</title>
<ellipse fill="none" stroke="black" cx="186.15" cy="-18" rx="87.18" ry="18"/>
<text text-anchor="middle" x="186.15" y="-14.3" font-family="Times,serif" font-size="14.00">4,7 (Cottonguts)</text>
</g>
<!-- 1,1 (Moondrops)&#45;&gt;4,7 (Cottonguts) -->
<g id="edge3" class="edge">
<title>1,1 (Moondrops)&#45;&gt;4,7 (Cottonguts)</title>
<path fill="none" stroke="black" stroke-width="0.43" d="M281.64,-280.23C264.3,-232.6 217.03,-102.79 196.22,-45.64"/>
<polygon fill="black" stroke="black" stroke-width="0.43" points="199.48,-44.36 192.77,-36.17 192.9,-46.76 199.48,-44.36"/>
<text text-anchor="middle" x="181.43" y="-166.73" font-family="Times,serif" font-size="14.00">moondrop*6016</text>
</g>
</g>
</svg>
