<?xml version="1.0" encoding="UTF-8" standalone="no"?>
<!DOCTYPE svg PUBLIC "-//W3C//DTD SVG 1.1//EN"
 "http://www.w3.org/Graphics/SVG/1.1/DTD/svg11.dtd">
<!-- Generated by graphviz version 2.43.0 (0)
 -->
<!-- Title: %3 Pages: 1 -->
<svg width="1407pt" height="1150pt"
 viewBox="0.00 0.00 1406.56 1149.93" xmlns="http://www.w3.org/2000/svg" xmlns:xlink="http://www.w3.org/1999/xlink">
<g id="graph0" class="graph" transform="scale(1 1) rotate(0) translate(4 1145.93)">
<title>%3</title>
<polygon fill="white" stroke="transparent" points="-4,4 -4,-1145.93 1402.56,-1145.93 1402.56,4 -4,4"/>
<!-- 3,3 (Random electronic components, Small Parts) -->
<g id="node1" class="node">
<title>3,3 (Random electronic components, Small Parts)</title>
<ellipse fill="none" stroke="black" cx="1007.81" cy="-18" rx="240.46" ry="18"/>
<text text-anchor="middle" x="1007.81" y="-14.3" font-family="Times,serif" font-size="14.00">3,3 (Random electronic components, Small Parts)</text>
</g>
<!-- 3,2 (Fiberboard) -->
<g id="node2" class="node">
<title>3,2 (Fiberboard)</title>
<ellipse fill="none" stroke="black" cx="369.3" cy="-18" rx="87.18" ry="18"/>
<text text-anchor="middle" x="369.3" y="-14.3" font-family="Times,serif" font-size="14.00">3,2 (Fiberboard)</text>
</g>
<!-- 3,3 (Random electronic components, Small Parts)&#45;&gt;3,2 (Fiberboard) -->
<g id="edge1" class="edge">
<title>3,3 (Random electronic components, Small Parts)&#45;&gt;3,2 (Fiberboard)</title>
<path fill="none" stroke="black" stroke-width="5.69" d="M767.33,-18C662.91,-18 546.51,-18 466.69,-18"/>
<polygon fill="black" stroke="black" stroke-width="5.69" points="466.66,-13.02 456.66,-18 466.66,-22.98 466.66,-13.02"/>
<text text-anchor="middle" x="658.01" y="-6.8" font-family="Times,serif" font-size="14.00">small&#45;parts&#45;01*456400</text>
</g>
<!-- 0,0 (LE BUS) -->
<g id="node3" class="node">
<title>0,0 (LE BUS)</title>
<ellipse fill="none" stroke="black" cx="1327.07" cy="-570.97" rx="71.49" ry="18"/>
<text text-anchor="middle" x="1327.07" y="-567.27" font-family="Times,serif" font-size="14.00">0,0 (LE BUS)</text>
</g>
<!-- 3,3 (Random electronic components, Small Parts)&#45;&gt;0,0 (LE BUS) -->
<g id="edge2" class="edge">
<title>3,3 (Random electronic components, Small Parts)&#45;&gt;0,0 (LE BUS)</title>
<path fill="none" stroke="black" stroke-width="0.16" d="M1018.25,-36.08C1065.05,-117.14 1255.66,-447.29 1311.58,-544.14"/>
<polygon fill="black" stroke="black" stroke-width="0.16" points="1308.68,-546.11 1316.71,-553.02 1314.74,-542.61 1308.68,-546.11"/>
<text text-anchor="middle" x="1087.42" y="-293.91" font-family="Times,serif" font-size="14.00">small&#45;parts&#45;01*12480</text>
</g>
<!-- 8,2 (Tar) -->
<g id="node5" class="node">
<title>8,2 (Tar)</title>
<ellipse fill="none" stroke="black" cx="50.05" cy="-570.97" rx="50.09" ry="18"/>
<text text-anchor="middle" x="50.05" y="-567.27" font-family="Times,serif" font-size="14.00">8,2 (Tar)</text>
</g>
<!-- 3,3 (Random electronic components, Small Parts)&#45;&gt;8,2 (Tar) -->
<g id="edge7" class="edge">
<title>3,3 (Random electronic components, Small Parts)&#45;&gt;8,2 (Tar)</title>
<path fill="none" stroke="black" stroke-width="0.25" d="M976.76,-35.93C833.57,-118.6 237.51,-462.74 85.47,-550.52"/>
<polygon fill="black" stroke="black" stroke-width="0.25" points="83.42,-547.66 76.51,-555.69 86.92,-553.72 83.42,-547.66"/>
<text text-anchor="middle" x="453.61" y="-297.02" font-family="Times,serif" font-size="14.00">small&#45;parts&#45;01*20160</text>
</g>
<!-- &#45;4,&#45;2 (Crude Oil) -->
<g id="node6" class="node">
<title>&#45;4,&#45;2 (Crude Oil)</title>
<ellipse fill="none" stroke="black" cx="369.3" cy="-1123.93" rx="85.29" ry="18"/>
<text text-anchor="middle" x="369.3" y="-1120.23" font-family="Times,serif" font-size="14.00">&#45;4,&#45;2 (Crude Oil)</text>
</g>
<!-- 3,3 (Random electronic components, Small Parts)&#45;&gt;&#45;4,&#45;2 (Crude Oil) -->
<g id="edge6" class="edge">
<title>3,3 (Random electronic components, Small Parts)&#45;&gt;&#45;4,&#45;2 (Crude Oil)</title>
<path fill="none" stroke="black" stroke-width="0.11" d="M997.26,-36.27C922.62,-165.56 474.52,-941.68 384.9,-1096.92"/>
<polygon fill="black" stroke="black" stroke-width="0.11" points="381.72,-1095.43 379.75,-1105.84 387.78,-1098.93 381.72,-1095.43"/>
<text text-anchor="middle" x="618.08" y="-570.4" font-family="Times,serif" font-size="14.00">small&#45;parts&#45;01*8720</text>
</g>
<!-- 3,12 (reserved &#45; Candle, reserved &#45; Candle, reserved &#45; Candle) -->
<g id="node4" class="node">
<title>3,12 (reserved &#45; Candle, reserved &#45; Candle, reserved &#45; Candle)</title>
<ellipse fill="none" stroke="black" cx="1007.81" cy="-1123.93" rx="298.15" ry="18"/>
<text text-anchor="middle" x="1007.81" y="-1120.23" font-family="Times,serif" font-size="14.00">3,12 (reserved &#45; Candle, reserved &#45; Candle, reserved &#45; Candle)</text>
</g>
<!-- 3,12 (reserved &#45; Candle, reserved &#45; Candle, reserved &#45; Candle)&#45;&gt;3,2 (Fiberboard) -->
<g id="edge3" class="edge">
<title>3,12 (reserved &#45; Candle, reserved &#45; Candle, reserved &#45; Candle)&#45;&gt;3,2 (Fiberboard)</title>
<path fill="none" stroke="black" stroke-width="0.53" d="M997.26,-1105.66C922.62,-976.37 474.52,-200.25 384.9,-45.01"/>
<polygon fill="black" stroke="black" stroke-width="0.53" points="387.78,-43 379.75,-36.09 381.72,-46.5 387.78,-43"/>
<text text-anchor="middle" x="768.58" y="-579.14" font-family="Times,serif" font-size="14.00">small&#45;parts&#45;01*42336</text>
</g>
<!-- 3,12 (reserved &#45; Candle, reserved &#45; Candle, reserved &#45; Candle)&#45;&gt;0,0 (LE BUS) -->
<g id="edge5" class="edge">
<title>3,12 (reserved &#45; Candle, reserved &#45; Candle, reserved &#45; Candle)&#45;&gt;0,0 (LE BUS)</title>
<path fill="none" stroke="black" stroke-width="0.31" d="M1018.25,-1105.85C1065.05,-1024.79 1255.66,-694.64 1311.58,-597.79"/>
<polygon fill="black" stroke="black" stroke-width="0.31" points="1314.74,-599.32 1316.71,-588.91 1308.68,-595.82 1314.74,-599.32"/>
<text text-anchor="middle" x="1087.42" y="-855.62" font-family="Times,serif" font-size="14.00">small&#45;parts&#45;01*25248</text>
</g>
<!-- 3,12 (reserved &#45; Candle, reserved &#45; Candle, reserved &#45; Candle)&#45;&gt;8,2 (Tar) -->
<g id="edge4" class="edge">
<title>3,12 (reserved &#45; Candle, reserved &#45; Candle, reserved &#45; Candle)&#45;&gt;8,2 (Tar)</title>
<path fill="none" stroke="black" stroke-width="0.88" d="M976.76,-1106.01C833.57,-1023.34 237.51,-679.2 85.47,-591.42"/>
<polygon fill="black" stroke="black" stroke-width="0.88" points="86.92,-588.21 76.51,-586.25 83.42,-594.28 86.92,-588.21"/>
<text text-anchor="middle" x="453.61" y="-852.51" font-family="Times,serif" font-size="14.00">small&#45;parts&#45;01*70304</text>
</g>
<!-- 3,12 (reserved &#45; Candle, reserved &#45; Candle, reserved &#45; Candle)&#45;&gt;&#45;4,&#45;2 (Crude Oil) -->
<g id="edge8" class="edge">
<title>3,12 (reserved &#45; Candle, reserved &#45; Candle, reserved &#45; Candle)&#45;&gt;&#45;4,&#45;2 (Crude Oil)</title>
<path fill="none" stroke="black" stroke-width="0.08" d="M709.12,-1123.93C620.7,-1123.93 530.17,-1123.93 464.8,-1123.93"/>
<polygon fill="black" stroke="black" stroke-width="0.08" points="464.53,-1120.43 454.53,-1123.93 464.53,-1127.43 464.53,-1120.43"/>
<text text-anchor="middle" x="623.46" y="-1112.73" font-family="Times,serif" font-size="14.00">small&#45;parts&#45;01*6288</text>
</g>
</g>
</svg>
