<?xml version="1.0" encoding="UTF-8" standalone="no"?>
<!DOCTYPE svg PUBLIC "-//W3C//DTD SVG 1.1//EN"
 "http://www.w3.org/Graphics/SVG/1.1/DTD/svg11.dtd">
<!-- Generated by graphviz version 2.43.0 (0)
 -->
<!-- Title: %3 Pages: 1 -->
<svg width="990pt" height="44pt"
 viewBox="0.00 0.00 990.43 44.00" xmlns="http://www.w3.org/2000/svg" xmlns:xlink="http://www.w3.org/1999/xlink">
<g id="graph0" class="graph" transform="scale(1 1) rotate(0) translate(4 40)">
<title>%3</title>
<polygon fill="white" stroke="transparent" points="-4,4 -4,-40 986.43,-40 986.43,4 -4,4"/>
<!-- 1,0 () -->
<g id="node1" class="node">
<title>1,0 ()</title>
<ellipse fill="none" stroke="black" cx="476.26" cy="-18" rx="35.19" ry="18"/>
<text text-anchor="middle" x="476.26" y="-14.3" font-family="Times,serif" font-size="14.00">1,0 ()</text>
</g>
<!-- 4,6 (Circuit substrate and Doped silicon) -->
<g id="node2" class="node">
<title>4,6 (Circuit substrate and Doped silicon)</title>
<ellipse fill="none" stroke="black" cx="782.89" cy="-18" rx="199.56" ry="18"/>
<text text-anchor="middle" x="782.89" y="-14.3" font-family="Times,serif" font-size="14.00">4,6 (Circuit substrate and Doped silicon)</text>
</g>
<!-- 1,0 ()&#45;&gt;4,6 (Circuit substrate and Doped silicon) -->
<g id="edge1" class="edge">
<title>1,0 ()&#45;&gt;4,6 (Circuit substrate and Doped silicon)</title>
<path fill="none" stroke="black" stroke-width="0.88" d="M511.44,-18C528.09,-18 549.47,-18 572.9,-18"/>
<polygon fill="black" stroke="black" stroke-width="0.88" points="573.06,-21.5 583.06,-18 573.06,-14.5 573.06,-21.5"/>
<text text-anchor="middle" x="460.67" y="-21.8" font-family="Times,serif" font-size="14.00">methane&#45;barrel*18320</text>
</g>
<!-- 2,4 (Formica and Phenolic boards) -->
<g id="node3" class="node">
<title>2,4 (Formica and Phenolic boards)</title>
<ellipse fill="none" stroke="black" cx="169.63" cy="-18" rx="169.77" ry="18"/>
<text text-anchor="middle" x="169.63" y="-14.3" font-family="Times,serif" font-size="14.00">2,4 (Formica and Phenolic boards)</text>
</g>
<!-- 1,0 ()&#45;&gt;2,4 (Formica and Phenolic boards) -->
<g id="edge2" class="edge">
<title>1,0 ()&#45;&gt;2,4 (Formica and Phenolic boards)</title>
<path fill="none" stroke="black" stroke-width="1.12" d="M441.09,-18C417.54,-18 384.55,-18 349.65,-18"/>
<polygon fill="black" stroke="black" stroke-width="1.12" points="349.27,-14.5 339.27,-18 349.27,-21.5 349.27,-14.5"/>
<text text-anchor="middle" x="354.62" y="-6.8" font-family="Times,serif" font-size="14.00">methane&#45;barrel*23088</text>
</g>
</g>
</svg>
