<?xml version="1.0" encoding="UTF-8" standalone="no"?>
<!DOCTYPE svg PUBLIC "-//W3C//DTD SVG 1.1//EN"
 "http://www.w3.org/Graphics/SVG/1.1/DTD/svg11.dtd">
<!-- Generated by graphviz version 2.43.0 (0)
 -->
<!-- Title: %3 Pages: 1 -->
<svg width="2152pt" height="1918pt"
 viewBox="0.00 0.00 2151.54 1917.81" xmlns="http://www.w3.org/2000/svg" xmlns:xlink="http://www.w3.org/1999/xlink">
<g id="graph0" class="graph" transform="scale(1 1) rotate(0) translate(4 1913.81)">
<title>%3</title>
<polygon fill="white" stroke="transparent" points="-4,4 -4,-1913.81 2147.54,-1913.81 2147.54,4 -4,4"/>
<!-- 3,7 (Wood) -->
<g id="node1" class="node">
<title>3,7 (Wood)</title>
<ellipse fill="none" stroke="black" cx="1862.03" cy="-486.45" rx="61.19" ry="18"/>
<text text-anchor="middle" x="1862.03" y="-482.75" font-family="Times,serif" font-size="14.00">3,7 (Wood)</text>
</g>
<!-- 0,0 (LE BUS) -->
<g id="node2" class="node">
<title>0,0 (LE BUS)</title>
<ellipse fill="none" stroke="black" cx="1519.1" cy="-143.52" rx="71.49" ry="18"/>
<text text-anchor="middle" x="1519.1" y="-139.82" font-family="Times,serif" font-size="14.00">0,0 (LE BUS)</text>
</g>
<!-- 3,7 (Wood)&#45;&gt;0,0 (LE BUS) -->
<g id="edge1" class="edge">
<title>3,7 (Wood)&#45;&gt;0,0 (LE BUS)</title>
<path fill="none" stroke="black" stroke-width="2.23" d="M1844.55,-468.98C1788.04,-412.46 1610.09,-234.52 1544.07,-168.5"/>
<polygon fill="black" stroke="black" stroke-width="2.23" points="1546.5,-165.97 1536.95,-161.38 1541.55,-170.92 1546.5,-165.97"/>
<text text-anchor="middle" x="1644.81" y="-322.54" font-family="Times,serif" font-size="14.00">wood*122960</text>
</g>
<!-- &#45;6,&#45;2 (item=fertilizer Fertiliser) -->
<g id="node4" class="node">
<title>&#45;6,&#45;2 (item=fertilizer Fertiliser)</title>
<ellipse fill="none" stroke="black" cx="1987.55" cy="-954.91" rx="155.97" ry="18"/>
<text text-anchor="middle" x="1987.55" y="-951.21" font-family="Times,serif" font-size="14.00">&#45;6,&#45;2 (item=fertilizer Fertiliser)</text>
</g>
<!-- 3,7 (Wood)&#45;&gt;&#45;6,&#45;2 (item=fertilizer Fertiliser) -->
<g id="edge8" class="edge">
<title>3,7 (Wood)&#45;&gt;&#45;6,&#45;2 (item=fertilizer Fertiliser)</title>
<path fill="none" stroke="black" stroke-width="0.42" d="M1866.87,-504.53C1886.06,-576.12 1956.78,-840.06 1980.06,-926.96"/>
<polygon fill="black" stroke="black" stroke-width="0.42" points="1976.75,-928.13 1982.72,-936.88 1983.52,-926.32 1976.75,-928.13"/>
<text text-anchor="middle" x="1878.47" y="-719.54" font-family="Times,serif" font-size="14.00">wood*22880</text>
</g>
<!-- 3,6 (Phosphoric Acid and Phosphine gas) -->
<g id="node5" class="node">
<title>3,6 (Phosphoric Acid and Phosphine gas)</title>
<ellipse fill="none" stroke="black" cx="1050.65" cy="-18" rx="200.36" ry="18"/>
<text text-anchor="middle" x="1050.65" y="-14.3" font-family="Times,serif" font-size="14.00">3,6 (Phosphoric Acid and Phosphine gas)</text>
</g>
<!-- 3,7 (Wood)&#45;&gt;3,6 (Phosphoric Acid and Phosphine gas) -->
<g id="edge16" class="edge">
<title>3,7 (Wood)&#45;&gt;3,6 (Phosphoric Acid and Phosphine gas)</title>
<path fill="none" stroke="black" stroke-width="0.99" d="M1834.1,-470.33C1713.03,-400.43 1233.31,-123.46 1090.78,-41.17"/>
<polygon fill="black" stroke="black" stroke-width="0.99" points="1092.3,-38.01 1081.89,-36.04 1088.8,-44.07 1092.3,-38.01"/>
<text text-anchor="middle" x="1417.44" y="-259.55" font-family="Times,serif" font-size="14.00">wood*54800</text>
</g>
<!-- 4,7 (Cottonguts) -->
<g id="node6" class="node">
<title>4,7 (Cottonguts)</title>
<ellipse fill="none" stroke="black" cx="582.19" cy="-143.52" rx="87.18" ry="18"/>
<text text-anchor="middle" x="582.19" y="-139.82" font-family="Times,serif" font-size="14.00">4,7 (Cottonguts)</text>
</g>
<!-- 3,7 (Wood)&#45;&gt;4,7 (Cottonguts) -->
<g id="edge4" class="edge">
<title>3,7 (Wood)&#45;&gt;4,7 (Cottonguts)</title>
<path fill="none" stroke="black" stroke-width="0.18" d="M1816.48,-474.25C1623.08,-422.43 869.61,-220.53 645.44,-160.47"/>
<polygon fill="black" stroke="black" stroke-width="0.18" points="646.05,-157.01 635.49,-157.8 644.24,-163.77 646.05,-157.01"/>
<text text-anchor="middle" x="1185.96" y="-321.16" font-family="Times,serif" font-size="14.00">wood*10000</text>
</g>
<!-- &#45;6,4 (Urea) -->
<g id="node7" class="node">
<title>&#45;6,4 (Urea)</title>
<ellipse fill="none" stroke="black" cx="239.26" cy="-486.45" rx="61.19" ry="18"/>
<text text-anchor="middle" x="239.26" y="-482.75" font-family="Times,serif" font-size="14.00">&#45;6,4 (Urea)</text>
</g>
<!-- 3,7 (Wood)&#45;&gt;&#45;6,4 (Urea) -->
<g id="edge13" class="edge">
<title>3,7 (Wood)&#45;&gt;&#45;6,4 (Urea)</title>
<path fill="none" stroke="black" stroke-width="1.7" d="M1800.89,-486.45C1547.74,-486.45 582.29,-486.45 310.72,-486.45"/>
<polygon fill="black" stroke="black" stroke-width="1.7" points="310.59,-482.95 300.59,-486.45 310.59,-489.95 310.59,-482.95"/>
<text text-anchor="middle" x="1010.8" y="-490.25" font-family="Times,serif" font-size="14.00">wood*93760</text>
</g>
<!-- &#45;4,8 (Moar Ulric Food) -->
<g id="node8" class="node">
<title>&#45;4,8 (Moar Ulric Food)</title>
<ellipse fill="none" stroke="black" cx="113.74" cy="-954.91" rx="113.98" ry="18"/>
<text text-anchor="middle" x="113.74" y="-951.21" font-family="Times,serif" font-size="14.00">&#45;4,8 (Moar Ulric Food)</text>
</g>
<!-- 3,7 (Wood)&#45;&gt;&#45;4,8 (Moar Ulric Food) -->
<g id="edge9" class="edge">
<title>3,7 (Wood)&#45;&gt;&#45;4,8 (Moar Ulric Food)</title>
<path fill="none" stroke="black" stroke-width="1.16" d="M1816.61,-498.62C1577.97,-562.57 469.12,-859.68 181.85,-936.66"/>
<polygon fill="black" stroke="black" stroke-width="1.16" points="180.73,-933.33 171.98,-939.3 182.55,-940.09 180.73,-933.33"/>
<text text-anchor="middle" x="954.23" y="-721.44" font-family="Times,serif" font-size="14.00">wood*64000</text>
</g>
<!-- 5,8 (Ulric Food, Sandcastings) -->
<g id="node9" class="node">
<title>5,8 (Ulric Food, Sandcastings)</title>
<ellipse fill="none" stroke="black" cx="239.26" cy="-1423.36" rx="151.37" ry="18"/>
<text text-anchor="middle" x="239.26" y="-1419.66" font-family="Times,serif" font-size="14.00">5,8 (Ulric Food, Sandcastings)</text>
</g>
<!-- 3,7 (Wood)&#45;&gt;5,8 (Ulric Food, Sandcastings) -->
<g id="edge7" class="edge">
<title>3,7 (Wood)&#45;&gt;5,8 (Ulric Food, Sandcastings)</title>
<path fill="none" stroke="black" stroke-width="1.17" d="M1834.21,-502.52C1641.46,-613.8 505.84,-1269.45 278.77,-1400.55"/>
<polygon fill="black" stroke="black" stroke-width="1.17" points="276.76,-1397.67 269.85,-1405.7 280.26,-1403.73 276.76,-1397.67"/>
<text text-anchor="middle" x="1011.49" y="-940.33" font-family="Times,serif" font-size="14.00">wood*64320</text>
</g>
<!-- &#45;3,4 (Lard from Cottonguts) -->
<g id="node10" class="node">
<title>&#45;3,4 (Lard from Cottonguts)</title>
<ellipse fill="none" stroke="black" cx="582.19" cy="-1766.29" rx="139.18" ry="18"/>
<text text-anchor="middle" x="582.19" y="-1762.59" font-family="Times,serif" font-size="14.00">&#45;3,4 (Lard from Cottonguts)</text>
</g>
<!-- 3,7 (Wood)&#45;&gt;&#45;3,4 (Lard from Cottonguts) -->
<g id="edge10" class="edge">
<title>3,7 (Wood)&#45;&gt;&#45;3,4 (Lard from Cottonguts)</title>
<path fill="none" stroke="black" stroke-width="0.36" d="M1844.43,-504.06C1704.49,-644 773.27,-1575.22 607.43,-1741.05"/>
<polygon fill="black" stroke="black" stroke-width="0.36" points="604.72,-1738.82 600.12,-1748.36 609.67,-1743.77 604.72,-1738.82"/>
<text text-anchor="middle" x="1180.93" y="-1126.36" font-family="Times,serif" font-size="14.00">wood*20000</text>
</g>
<!-- 6,&#45;2 (Yaedlols) -->
<g id="node11" class="node">
<title>6,&#45;2 (Yaedlols)</title>
<ellipse fill="none" stroke="black" cx="1050.65" cy="-1891.81" rx="76.09" ry="18"/>
<text text-anchor="middle" x="1050.65" y="-1888.11" font-family="Times,serif" font-size="14.00">6,&#45;2 (Yaedlols)</text>
</g>
<!-- 3,7 (Wood)&#45;&gt;6,&#45;2 (Yaedlols) -->
<g id="edge17" class="edge">
<title>3,7 (Wood)&#45;&gt;6,&#45;2 (Yaedlols)</title>
<path fill="none" stroke="black" stroke-width="1.37" d="M1851.77,-504.22C1766.08,-652.65 1169.86,-1685.33 1066.04,-1865.14"/>
<polygon fill="black" stroke="black" stroke-width="1.37" points="1062.92,-1863.56 1060.95,-1873.97 1068.98,-1867.06 1062.92,-1863.56"/>
<text text-anchor="middle" x="1413.91" y="-1188.48" font-family="Times,serif" font-size="14.00">wood*75360</text>
</g>
<!-- &#45;3,7 (item=sea&#45;sponge&#45;sprouts Also Borax) -->
<g id="node12" class="node">
<title>&#45;3,7 (item=sea&#45;sponge&#45;sprouts Also Borax)</title>
<ellipse fill="none" stroke="black" cx="1519.1" cy="-1766.29" rx="209.06" ry="18"/>
<text text-anchor="middle" x="1519.1" y="-1762.59" font-family="Times,serif" font-size="14.00">&#45;3,7 (item=sea&#45;sponge&#45;sprouts Also Borax)</text>
</g>
<!-- 3,7 (Wood)&#45;&gt;&#45;3,7 (item=sea&#45;sponge&#45;sprouts Also Borax) -->
<g id="edge14" class="edge">
<title>3,7 (Wood)&#45;&gt;&#45;3,7 (item=sea&#45;sponge&#45;sprouts Also Borax)</title>
<path fill="none" stroke="black" stroke-width="2" d="M1857.18,-504.55C1819.47,-645.31 1573.18,-1564.46 1526.67,-1738.04"/>
<polygon fill="black" stroke="black" stroke-width="2" points="1523.22,-1737.38 1524.01,-1747.94 1529.98,-1739.19 1523.22,-1737.38"/>
<text text-anchor="middle" x="1642.43" y="-1125.09" font-family="Times,serif" font-size="14.00">wood*110000</text>
</g>
<!-- 5,&#45;3 (Wood duplicate) -->
<g id="node3" class="node">
<title>5,&#45;3 (Wood duplicate)</title>
<ellipse fill="none" stroke="black" cx="1862.03" cy="-1423.36" rx="109.68" ry="18"/>
<text text-anchor="middle" x="1862.03" y="-1419.66" font-family="Times,serif" font-size="14.00">5,&#45;3 (Wood duplicate)</text>
</g>
<!-- 5,&#45;3 (Wood duplicate)&#45;&gt;0,0 (LE BUS) -->
<g id="edge15" class="edge">
<title>5,&#45;3 (Wood duplicate)&#45;&gt;0,0 (LE BUS)</title>
<path fill="none" stroke="black" stroke-width="1.29" d="M1857.18,-1405.27C1819.47,-1264.51 1573.18,-345.36 1526.67,-171.78"/>
<polygon fill="black" stroke="black" stroke-width="1.29" points="1529.98,-170.62 1524.01,-161.87 1523.22,-172.43 1529.98,-170.62"/>
<text text-anchor="middle" x="1646.93" y="-792.32" font-family="Times,serif" font-size="14.00">wood*70960</text>
</g>
<!-- 5,&#45;3 (Wood duplicate)&#45;&gt;&#45;6,&#45;2 (item=fertilizer Fertiliser) -->
<g id="edge2" class="edge">
<title>5,&#45;3 (Wood duplicate)&#45;&gt;&#45;6,&#45;2 (item=fertilizer Fertiliser)</title>
<path fill="none" stroke="black" stroke-width="0.23" d="M1866.87,-1405.28C1886.06,-1333.7 1956.78,-1069.75 1980.06,-982.85"/>
<polygon fill="black" stroke="black" stroke-width="0.23" points="1983.52,-983.49 1982.72,-972.93 1976.75,-981.68 1983.52,-983.49"/>
<text text-anchor="middle" x="1878.47" y="-1197.87" font-family="Times,serif" font-size="14.00">wood*12480</text>
</g>
<!-- 5,&#45;3 (Wood duplicate)&#45;&gt;3,6 (Phosphoric Acid and Phosphine gas) -->
<g id="edge3" class="edge">
<title>5,&#45;3 (Wood duplicate)&#45;&gt;3,6 (Phosphoric Acid and Phosphine gas)</title>
<path fill="none" stroke="black" stroke-width="1.11" d="M1851.62,-1405.33C1765.48,-1256.13 1170.99,-226.45 1066.36,-45.21"/>
<polygon fill="black" stroke="black" stroke-width="1.11" points="1069.25,-43.22 1061.22,-36.31 1063.19,-46.72 1069.25,-43.22"/>
<text text-anchor="middle" x="1413.99" y="-729.07" font-family="Times,serif" font-size="14.00">wood*61120</text>
</g>
<!-- 5,&#45;3 (Wood duplicate)&#45;&gt;4,7 (Cottonguts) -->
<g id="edge19" class="edge">
<title>5,&#45;3 (Wood duplicate)&#45;&gt;4,7 (Cottonguts)</title>
<path fill="none" stroke="black" stroke-width="0.18" d="M1843.94,-1405.27C1702.33,-1263.65 772.88,-334.21 607.38,-168.71"/>
<polygon fill="black" stroke="black" stroke-width="0.18" points="609.63,-166.01 600.08,-161.41 604.68,-170.96 609.63,-166.01"/>
<text text-anchor="middle" x="1180.66" y="-790.79" font-family="Times,serif" font-size="14.00">wood*10000</text>
</g>
<!-- 5,&#45;3 (Wood duplicate)&#45;&gt;&#45;6,4 (Urea) -->
<g id="edge5" class="edge">
<title>5,&#45;3 (Wood duplicate)&#45;&gt;&#45;6,4 (Urea)</title>
<path fill="none" stroke="black" stroke-width="1.14" d="M1831.77,-1405.89C1631.27,-1290.13 495.41,-634.34 275.96,-507.64"/>
<polygon fill="black" stroke="black" stroke-width="1.14" points="277.49,-504.48 267.08,-502.51 273.99,-510.54 277.49,-504.48"/>
<text text-anchor="middle" x="1008.87" y="-960.57" font-family="Times,serif" font-size="14.00">wood*62800</text>
</g>
<!-- 5,&#45;3 (Wood duplicate)&#45;&gt;&#45;4,8 (Moar Ulric Food) -->
<g id="edge6" class="edge">
<title>5,&#45;3 (Wood duplicate)&#45;&gt;&#45;4,8 (Moar Ulric Food)</title>
<path fill="none" stroke="black" stroke-width="0.99" d="M1804.36,-1407.91C1542.19,-1337.66 463.42,-1048.6 181.44,-973.05"/>
<polygon fill="black" stroke="black" stroke-width="0.99" points="182.31,-969.66 171.74,-970.45 180.5,-976.42 182.31,-969.66"/>
<text text-anchor="middle" x="947.9" y="-1194.28" font-family="Times,serif" font-size="14.00">wood*54800</text>
</g>
<!-- 5,&#45;3 (Wood duplicate)&#45;&gt;5,8 (Ulric Food, Sandcastings) -->
<g id="edge20" class="edge">
<title>5,&#45;3 (Wood duplicate)&#45;&gt;5,8 (Ulric Food, Sandcastings)</title>
<path fill="none" stroke="black" stroke-width="0.66" d="M1752.08,-1423.36C1471.96,-1423.36 730.37,-1423.36 400.92,-1423.36"/>
<polygon fill="black" stroke="black" stroke-width="0.66" points="400.81,-1419.86 390.81,-1423.36 400.81,-1426.86 400.81,-1419.86"/>
<text text-anchor="middle" x="1031.5" y="-1427.16" font-family="Times,serif" font-size="14.00">wood*36560</text>
</g>
<!-- 5,&#45;3 (Wood duplicate)&#45;&gt;&#45;3,4 (Lard from Cottonguts) -->
<g id="edge18" class="edge">
<title>5,&#45;3 (Wood duplicate)&#45;&gt;&#45;3,4 (Lard from Cottonguts)</title>
<path fill="none" stroke="black" stroke-width="0.36" d="M1804.55,-1438.76C1596.19,-1494.59 880.8,-1686.28 652.68,-1747.4"/>
<polygon fill="black" stroke="black" stroke-width="0.36" points="651.59,-1744.07 642.83,-1750.04 653.4,-1750.83 651.59,-1744.07"/>
<text text-anchor="middle" x="1183.62" y="-1596.88" font-family="Times,serif" font-size="14.00">wood*20000</text>
</g>
<!-- 5,&#45;3 (Wood duplicate)&#45;&gt;6,&#45;2 (Yaedlols) -->
<g id="edge11" class="edge">
<title>5,&#45;3 (Wood duplicate)&#45;&gt;6,&#45;2 (Yaedlols)</title>
<path fill="none" stroke="black" stroke-width="1.37" d="M1831.7,-1440.87C1706.27,-1513.28 1228.11,-1789.35 1088.89,-1869.73"/>
<polygon fill="black" stroke="black" stroke-width="1.37" points="1086.75,-1866.93 1079.84,-1874.96 1090.25,-1872.99 1086.75,-1866.93"/>
<text text-anchor="middle" x="1415.3" y="-1659.1" font-family="Times,serif" font-size="14.00">wood*75440</text>
</g>
<!-- 5,&#45;3 (Wood duplicate)&#45;&gt;&#45;3,7 (item=sea&#45;sponge&#45;sprouts Also Borax) -->
<g id="edge12" class="edge">
<title>5,&#45;3 (Wood duplicate)&#45;&gt;&#45;3,7 (item=sea&#45;sponge&#45;sprouts Also Borax)</title>
<path fill="none" stroke="black" stroke-width="1.09" d="M1844.08,-1441.31C1787.15,-1498.24 1610.54,-1674.85 1544.43,-1740.96"/>
<polygon fill="black" stroke="black" stroke-width="1.09" points="1541.89,-1738.55 1537.29,-1748.1 1546.84,-1743.5 1541.89,-1738.55"/>
<text text-anchor="middle" x="1649.25" y="-1594.94" font-family="Times,serif" font-size="14.00">wood*60000</text>
</g>
</g>
</svg>
