<?xml version="1.0" encoding="UTF-8" standalone="no"?>
<!DOCTYPE svg PUBLIC "-//W3C//DTD SVG 1.1//EN"
 "http://www.w3.org/Graphics/SVG/1.1/DTD/svg11.dtd">
<!-- Generated by graphviz version 2.43.0 (0)
 -->
<!-- Title: %3 Pages: 1 -->
<svg width="1042pt" height="808pt"
 viewBox="0.00 0.00 1042.01 807.63" xmlns="http://www.w3.org/2000/svg" xmlns:xlink="http://www.w3.org/1999/xlink">
<g id="graph0" class="graph" transform="scale(1 1) rotate(0) translate(4 803.63)">
<title>%3</title>
<polygon fill="white" stroke="transparent" points="-4,4 -4,-803.63 1038.01,-803.63 1038.01,4 -4,4"/>
<!-- 0,0 (LE BUS) -->
<g id="node1" class="node">
<title>0,0 (LE BUS)</title>
<ellipse fill="none" stroke="black" cx="591.1" cy="-18" rx="71.49" ry="18"/>
<text text-anchor="middle" x="591.1" y="-14.3" font-family="Times,serif" font-size="14.00">0,0 (LE BUS)</text>
</g>
<!-- &#45;3,7 (item=sea&#45;sponge&#45;sprouts Also Borax) -->
<g id="node2" class="node">
<title>&#45;3,7 (item=sea&#45;sponge&#45;sprouts Also Borax)</title>
<ellipse fill="none" stroke="black" cx="209.28" cy="-399.81" rx="209.06" ry="18"/>
<text text-anchor="middle" x="209.28" y="-396.11" font-family="Times,serif" font-size="14.00">&#45;3,7 (item=sea&#45;sponge&#45;sprouts Also Borax)</text>
</g>
<!-- 0,0 (LE BUS)&#45;&gt;&#45;3,7 (item=sea&#45;sponge&#45;sprouts Also Borax) -->
<g id="edge1" class="edge">
<title>0,0 (LE BUS)&#45;&gt;&#45;3,7 (item=sea&#45;sponge&#45;sprouts Also Borax)</title>
<path fill="none" stroke="black" stroke-width="1.08" d="M573.45,-35.65C512.03,-97.06 307.49,-301.61 235.01,-374.08"/>
<polygon fill="black" stroke="black" stroke-width="1.08" points="232.23,-371.92 227.63,-381.47 237.18,-376.87 232.23,-371.92"/>
<text text-anchor="middle" x="343.73" y="-208.67" font-family="Times,serif" font-size="14.00">small&#45;lamp*2087</text>
</g>
<!-- &#45;6,4 (Urea) -->
<g id="node4" class="node">
<title>&#45;6,4 (Urea)</title>
<ellipse fill="none" stroke="black" cx="972.91" cy="-399.81" rx="61.19" ry="18"/>
<text text-anchor="middle" x="972.91" y="-396.11" font-family="Times,serif" font-size="14.00">&#45;6,4 (Urea)</text>
</g>
<!-- 0,0 (LE BUS)&#45;&gt;&#45;6,4 (Urea) -->
<g id="edge3" class="edge">
<title>0,0 (LE BUS)&#45;&gt;&#45;6,4 (Urea)</title>
<path fill="none" stroke="black" stroke-width="1.33" d="M608.75,-35.65C670.44,-97.35 876.59,-303.5 948.17,-375.08"/>
<polygon fill="black" stroke="black" stroke-width="1.33" points="945.9,-377.76 955.45,-382.35 950.85,-372.81 945.9,-377.76"/>
<text text-anchor="middle" x="717.96" y="-209.16" font-family="Times,serif" font-size="14.00">small&#45;lamp*2564</text>
</g>
<!-- &#45;5,0 (item=small&#45;lampitem=petri&#45;dish Lamptri dishes) -->
<g id="node3" class="node">
<title>&#45;5,0 (item=small&#45;lampitem=petri&#45;dish Lamptri dishes)</title>
<ellipse fill="none" stroke="black" cx="591.1" cy="-781.63" rx="263.75" ry="18"/>
<text text-anchor="middle" x="591.1" y="-777.93" font-family="Times,serif" font-size="14.00">&#45;5,0 (item=small&#45;lampitem=petri&#45;dish Lamptri dishes)</text>
</g>
<!-- &#45;5,0 (item=small&#45;lampitem=petri&#45;dish Lamptri dishes)&#45;&gt;&#45;3,7 (item=sea&#45;sponge&#45;sprouts Also Borax) -->
<g id="edge4" class="edge">
<title>&#45;5,0 (item=small&#45;lampitem=petri&#45;dish Lamptri dishes)&#45;&gt;&#45;3,7 (item=sea&#45;sponge&#45;sprouts Also Borax)</title>
<path fill="none" stroke="black" stroke-width="1.06" d="M572.94,-763.47C510.88,-701.41 307.09,-497.62 234.9,-425.44"/>
<polygon fill="black" stroke="black" stroke-width="1.06" points="237.1,-422.68 227.55,-418.08 232.15,-427.63 237.1,-422.68"/>
<text text-anchor="middle" x="343.42" y="-598.25" font-family="Times,serif" font-size="14.00">small&#45;lamp*2041</text>
</g>
<!-- &#45;5,0 (item=small&#45;lampitem=petri&#45;dish Lamptri dishes)&#45;&gt;&#45;6,4 (Urea) -->
<g id="edge2" class="edge">
<title>&#45;5,0 (item=small&#45;lampitem=petri&#45;dish Lamptri dishes)&#45;&gt;&#45;6,4 (Urea)</title>
<path fill="none" stroke="black" stroke-width="0.53" d="M609.26,-763.47C671.6,-701.13 876.99,-495.74 948.28,-424.45"/>
<polygon fill="black" stroke="black" stroke-width="0.53" points="950.93,-426.75 955.52,-417.2 945.98,-421.8 950.93,-426.75"/>
<text text-anchor="middle" x="718.27" y="-597.76" font-family="Times,serif" font-size="14.00">small&#45;lamp*1022</text>
</g>
</g>
</svg>
