<?xml version="1.0" encoding="UTF-8" standalone="no"?>
<!DOCTYPE svg PUBLIC "-//W3C//DTD SVG 1.1//EN"
 "http://www.w3.org/Graphics/SVG/1.1/DTD/svg11.dtd">
<!-- Generated by graphviz version 2.43.0 (0)
 -->
<!-- Title: %3 Pages: 1 -->
<svg width="2071pt" height="1677pt"
 viewBox="0.00 0.00 2071.34 1676.68" xmlns="http://www.w3.org/2000/svg" xmlns:xlink="http://www.w3.org/1999/xlink">
<g id="graph0" class="graph" transform="scale(1 1) rotate(0) translate(4 1672.68)">
<title>%3</title>
<polygon fill="white" stroke="transparent" points="-4,4 -4,-1672.68 2067.34,-1672.68 2067.34,4 -4,4"/>
<!-- 1,&#45;1 (fluid=molten&#45;glass Glass, When space, make quartz separate with regular priority, Quartz) -->
<g id="node1" class="node">
<title>1,&#45;1 (fluid=molten&#45;glass Glass, When space, make quartz separate with regular priority, Quartz)</title>
<ellipse fill="none" stroke="black" cx="1520.53" cy="-18" rx="457.62" ry="18"/>
<text text-anchor="middle" x="1520.53" y="-14.3" font-family="Times,serif" font-size="14.00">1,&#45;1 (fluid=molten&#45;glass Glass, When space, make quartz separate with regular priority, Quartz)</text>
</g>
<!-- &#45;4,0 (item=lens Optical sets) -->
<g id="node2" class="node">
<title>&#45;4,0 (item=lens Optical sets)</title>
<ellipse fill="none" stroke="black" cx="577.91" cy="-18" rx="143.77" ry="18"/>
<text text-anchor="middle" x="577.91" y="-14.3" font-family="Times,serif" font-size="14.00">&#45;4,0 (item=lens Optical sets)</text>
</g>
<!-- 1,&#45;1 (fluid=molten&#45;glass Glass, When space, make quartz separate with regular priority, Quartz)&#45;&gt;&#45;4,0 (item=lens Optical sets) -->
<g id="edge1" class="edge">
<title>1,&#45;1 (fluid=molten&#45;glass Glass, When space, make quartz separate with regular priority, Quartz)&#45;&gt;&#45;4,0 (item=lens Optical sets)</title>
<path fill="none" stroke="black" stroke-width="0.77" d="M1062.68,-18C943.26,-18 822.69,-18 731.66,-18"/>
<polygon fill="black" stroke="black" stroke-width="0.77" points="731.55,-14.5 721.55,-18 731.55,-21.5 731.55,-14.5"/>
<text text-anchor="middle" x="942.67" y="-6.8" font-family="Times,serif" font-size="14.00">molten&#45;glass&#45;barrel*8217</text>
</g>
<!-- 0,0 (LE BUS) -->
<g id="node4" class="node">
<title>0,0 (LE BUS)</title>
<ellipse fill="none" stroke="black" cx="1991.85" cy="-834.34" rx="71.49" ry="18"/>
<text text-anchor="middle" x="1991.85" y="-830.64" font-family="Times,serif" font-size="14.00">0,0 (LE BUS)</text>
</g>
<!-- 1,&#45;1 (fluid=molten&#45;glass Glass, When space, make quartz separate with regular priority, Quartz)&#45;&gt;0,0 (LE BUS) -->
<g id="edge3" class="edge">
<title>1,&#45;1 (fluid=molten&#45;glass Glass, When space, make quartz separate with regular priority, Quartz)&#45;&gt;0,0 (LE BUS)</title>
<path fill="none" stroke="black" stroke-width="0.61" d="M1531.04,-36.2C1592.32,-142.34 1903.47,-681.27 1976.49,-807.75"/>
<polygon fill="black" stroke="black" stroke-width="0.61" points="1973.49,-809.54 1981.52,-816.45 1979.55,-806.04 1973.49,-809.54"/>
<text text-anchor="middle" x="1662.77" y="-425.77" font-family="Times,serif" font-size="14.00">molten&#45;glass&#45;barrel*6436</text>
</g>
<!-- 2,5 (Simple Circuits) -->
<g id="node5" class="node">
<title>2,5 (Simple Circuits)</title>
<ellipse fill="none" stroke="black" cx="106.59" cy="-834.34" rx="106.68" ry="18"/>
<text text-anchor="middle" x="106.59" y="-830.64" font-family="Times,serif" font-size="14.00">2,5 (Simple Circuits)</text>
</g>
<!-- 1,&#45;1 (fluid=molten&#45;glass Glass, When space, make quartz separate with regular priority, Quartz)&#45;&gt;2,5 (Simple Circuits) -->
<g id="edge4" class="edge">
<title>1,&#45;1 (fluid=molten&#45;glass Glass, When space, make quartz separate with regular priority, Quartz)&#45;&gt;2,5 (Simple Circuits)</title>
<path fill="none" stroke="black" stroke-width="0.08" d="M1489.35,-36C1304.27,-142.86 351.07,-693.19 145.64,-811.8"/>
<polygon fill="black" stroke="black" stroke-width="0.08" points="143.61,-808.93 136.7,-816.96 147.11,-814.99 143.61,-808.93"/>
<text text-anchor="middle" x="731" y="-427.7" font-family="Times,serif" font-size="14.00">molten&#45;glass&#45;barrel*816</text>
</g>
<!-- &#45;5,2 (Optical fiber) -->
<g id="node6" class="node">
<title>&#45;5,2 (Optical fiber)</title>
<ellipse fill="none" stroke="black" cx="577.91" cy="-1650.68" rx="96.38" ry="18"/>
<text text-anchor="middle" x="577.91" y="-1646.98" font-family="Times,serif" font-size="14.00">&#45;5,2 (Optical fiber)</text>
</g>
<!-- 1,&#45;1 (fluid=molten&#45;glass Glass, When space, make quartz separate with regular priority, Quartz)&#45;&gt;&#45;5,2 (Optical fiber) -->
<g id="edge8" class="edge">
<title>1,&#45;1 (fluid=molten&#45;glass Glass, When space, make quartz separate with regular priority, Quartz)&#45;&gt;&#45;5,2 (Optical fiber)</title>
<path fill="none" stroke="black" stroke-width="0.05" d="M1510.11,-36.06C1415.58,-199.79 707.44,-1426.31 593.39,-1623.86"/>
<polygon fill="black" stroke="black" stroke-width="0.05" points="590.24,-1622.32 588.27,-1632.73 596.3,-1625.82 590.24,-1622.32"/>
<text text-anchor="middle" x="965.25" y="-833.76" font-family="Times,serif" font-size="14.00">molten&#45;glass&#45;barrel*528</text>
</g>
<!-- 4,12 (Molten Glass) -->
<g id="node3" class="node">
<title>4,12 (Molten Glass)</title>
<ellipse fill="none" stroke="black" cx="1520.53" cy="-1650.68" rx="102.08" ry="18"/>
<text text-anchor="middle" x="1520.53" y="-1646.98" font-family="Times,serif" font-size="14.00">4,12 (Molten Glass)</text>
</g>
<!-- 4,12 (Molten Glass)&#45;&gt;&#45;4,0 (item=lens Optical sets) -->
<g id="edge5" class="edge">
<title>4,12 (Molten Glass)&#45;&gt;&#45;4,0 (item=lens Optical sets)</title>
<path fill="none" stroke="black" stroke-width="3" d="M1510.11,-1632.62C1415.58,-1468.89 707.44,-242.37 593.39,-44.82"/>
<polygon fill="black" stroke="black" stroke-width="3" points="596.3,-42.86 588.27,-35.95 590.24,-46.36 596.3,-42.86"/>
<text text-anchor="middle" x="1147.25" y="-842.52" font-family="Times,serif" font-size="14.00">molten&#45;glass&#45;barrel*31910</text>
</g>
<!-- 4,12 (Molten Glass)&#45;&gt;0,0 (LE BUS) -->
<g id="edge2" class="edge">
<title>4,12 (Molten Glass)&#45;&gt;0,0 (LE BUS)</title>
<path fill="none" stroke="black" stroke-width="2.35" d="M1531.04,-1632.49C1592.32,-1526.34 1903.47,-987.42 1976.49,-860.94"/>
<polygon fill="black" stroke="black" stroke-width="2.35" points="1979.55,-862.64 1981.52,-852.23 1973.49,-859.14 1979.55,-862.64"/>
<text text-anchor="middle" x="1658.27" y="-1250.51" font-family="Times,serif" font-size="14.00">molten&#45;glass&#45;barrel*24930</text>
</g>
<!-- 4,12 (Molten Glass)&#45;&gt;2,5 (Simple Circuits) -->
<g id="edge6" class="edge">
<title>4,12 (Molten Glass)&#45;&gt;2,5 (Simple Circuits)</title>
<path fill="none" stroke="black" stroke-width="0.64" d="M1490.68,-1633.44C1308.81,-1528.44 351.03,-975.47 145.46,-856.78"/>
<polygon fill="black" stroke="black" stroke-width="0.64" points="146.94,-853.59 136.53,-851.62 143.44,-859.65 146.94,-853.59"/>
<text text-anchor="middle" x="727.07" y="-1248.91" font-family="Times,serif" font-size="14.00">molten&#45;glass&#45;barrel*6800</text>
</g>
<!-- 4,12 (Molten Glass)&#45;&gt;&#45;5,2 (Optical fiber) -->
<g id="edge7" class="edge">
<title>4,12 (Molten Glass)&#45;&gt;&#45;5,2 (Optical fiber)</title>
<path fill="none" stroke="black" stroke-width="0.51" d="M1418.31,-1650.68C1238.45,-1650.68 867.19,-1650.68 684.37,-1650.68"/>
<polygon fill="black" stroke="black" stroke-width="0.51" points="684.2,-1647.18 674.2,-1650.68 684.2,-1654.18 684.2,-1647.18"/>
<text text-anchor="middle" x="960.34" y="-1654.48" font-family="Times,serif" font-size="14.00">molten&#45;glass&#45;barrel*5400</text>
</g>
</g>
</svg>
