<?xml version="1.0" encoding="UTF-8" standalone="no"?>
<!DOCTYPE svg PUBLIC "-//W3C//DTD SVG 1.1//EN"
 "http://www.w3.org/Graphics/SVG/1.1/DTD/svg11.dtd">
<!-- Generated by graphviz version 2.43.0 (0)
 -->
<!-- Title: %3 Pages: 1 -->
<svg width="1077pt" height="817pt"
 viewBox="0.00 0.00 1076.74 817.30" xmlns="http://www.w3.org/2000/svg" xmlns:xlink="http://www.w3.org/1999/xlink">
<g id="graph0" class="graph" transform="scale(1 1) rotate(0) translate(4 813.3)">
<title>%3</title>
<polygon fill="white" stroke="transparent" points="-4,4 -4,-813.3 1072.74,-813.3 1072.74,4 -4,4"/>
<!-- &#45;2,&#45;3 (Trains) -->
<g id="node1" class="node">
<title>&#45;2,&#45;3 (Trains)</title>
<ellipse fill="none" stroke="black" cx="524.88" cy="-392.17" rx="70.39" ry="18"/>
<text text-anchor="middle" x="524.88" y="-388.47" font-family="Times,serif" font-size="14.00">&#45;2,&#45;3 (Trains)</text>
</g>
<!-- 3,9 (Copper, molten &amp; plate) -->
<g id="node2" class="node">
<title>3,9 (Copper, molten &amp; plate)</title>
<ellipse fill="none" stroke="black" cx="925.1" cy="-392.17" rx="143.77" ry="18"/>
<text text-anchor="middle" x="925.1" y="-388.47" font-family="Times,serif" font-size="14.00">3,9 (Copper, molten &amp; plate)</text>
</g>
<!-- &#45;2,&#45;3 (Trains)&#45;&gt;3,9 (Copper, molten &amp; plate) -->
<g id="edge1" class="edge">
<title>&#45;2,&#45;3 (Trains)&#45;&gt;3,9 (Copper, molten &amp; plate)</title>
<path fill="none" stroke="black" stroke-width="0.61" d="M595.51,-392.17C644.19,-392.17 710.78,-392.17 771.37,-392.17"/>
<polygon fill="black" stroke="black" stroke-width="0.61" points="771.43,-395.67 781.43,-392.17 771.43,-388.67 771.43,-395.67"/>
<text text-anchor="middle" x="683.44" y="-380.97" font-family="Times,serif" font-size="14.00">sand&#45;casting*4080</text>
</g>
<!-- &#45;1,10 (Iron Plates) -->
<g id="node3" class="node">
<title>&#45;1,10 (Iron Plates)</title>
<ellipse fill="none" stroke="black" cx="803.61" cy="-679.37" rx="94.78" ry="18"/>
<text text-anchor="middle" x="803.61" y="-675.67" font-family="Times,serif" font-size="14.00">&#45;1,10 (Iron Plates)</text>
</g>
<!-- &#45;2,&#45;3 (Trains)&#45;&gt;&#45;1,10 (Iron Plates) -->
<g id="edge2" class="edge">
<title>&#45;2,&#45;3 (Trains)&#45;&gt;&#45;1,10 (Iron Plates)</title>
<path fill="none" stroke="black" stroke-width="1.49" d="M541.9,-409.7C589.41,-458.65 723.62,-596.94 779.12,-654.13"/>
<polygon fill="black" stroke="black" stroke-width="1.49" points="776.63,-656.59 786.11,-661.33 781.65,-651.71 776.63,-656.59"/>
<text text-anchor="middle" x="589.51" y="-535.72" font-family="Times,serif" font-size="14.00">sand&#45;casting*10032</text>
</g>
<!-- &#45;1,11 (Steel Plate (from molten)) -->
<g id="node4" class="node">
<title>&#45;1,11 (Steel Plate (from molten))</title>
<ellipse fill="none" stroke="black" cx="495.38" cy="-791.3" rx="161.37" ry="18"/>
<text text-anchor="middle" x="495.38" y="-787.6" font-family="Times,serif" font-size="14.00">&#45;1,11 (Steel Plate (from molten))</text>
</g>
<!-- &#45;2,&#45;3 (Trains)&#45;&gt;&#45;1,11 (Steel Plate (from molten)) -->
<g id="edge3" class="edge">
<title>&#45;2,&#45;3 (Trains)&#45;&gt;&#45;1,11 (Steel Plate (from molten))</title>
<path fill="none" stroke="black" stroke-width="3" d="M523.53,-410.35C518.85,-473.73 503.23,-685.18 497.51,-762.59"/>
<polygon fill="black" stroke="black" stroke-width="3" points="493.98,-762.77 496.74,-773 500.96,-763.29 493.98,-762.77"/>
<text text-anchor="middle" x="439.52" y="-590.27" font-family="Times,serif" font-size="14.00">sand&#45;casting*20160</text>
</g>
<!-- 2,&#45;2 (Tin Plate, Organic Solvent) -->
<g id="node5" class="node">
<title>2,&#45;2 (Tin Plate, Organic Solvent)</title>
<ellipse fill="none" stroke="black" cx="171.83" cy="-580.67" rx="159.77" ry="18"/>
<text text-anchor="middle" x="171.83" y="-576.97" font-family="Times,serif" font-size="14.00">2,&#45;2 (Tin Plate, Organic Solvent)</text>
</g>
<!-- &#45;2,&#45;3 (Trains)&#45;&gt;2,&#45;2 (Tin Plate, Organic Solvent) -->
<g id="edge4" class="edge">
<title>&#45;2,&#45;3 (Trains)&#45;&gt;2,&#45;2 (Tin Plate, Organic Solvent)</title>
<path fill="none" stroke="black" stroke-width="0.3" d="M494.47,-408.4C431.4,-442.08 286.24,-519.59 214.1,-558.1"/>
<polygon fill="black" stroke="black" stroke-width="0.3" points="212.02,-555.25 204.84,-563.05 215.31,-561.42 212.02,-555.25"/>
<text text-anchor="middle" x="287.79" y="-487.05" font-family="Times,serif" font-size="14.00">sand&#45;casting*2016</text>
</g>
<!-- 4,3 (item=nexelit&#45;plate Nexelit platery) -->
<g id="node6" class="node">
<title>4,3 (item=nexelit&#45;plate Nexelit platery)</title>
<ellipse fill="none" stroke="black" cx="194.33" cy="-166.52" rx="194.17" ry="18"/>
<text text-anchor="middle" x="194.33" y="-162.82" font-family="Times,serif" font-size="14.00">4,3 (item=nexelit&#45;plate Nexelit platery)</text>
</g>
<!-- &#45;2,&#45;3 (Trains)&#45;&gt;4,3 (item=nexelit&#45;plate Nexelit platery) -->
<g id="edge5" class="edge">
<title>&#45;2,&#45;3 (Trains)&#45;&gt;4,3 (item=nexelit&#45;plate Nexelit platery)</title>
<path fill="none" stroke="black" stroke-width="0.3" d="M500.03,-375.21C441.84,-335.48 296.56,-236.3 229.4,-190.46"/>
<polygon fill="black" stroke="black" stroke-width="0.3" points="231.07,-187.36 220.84,-184.61 227.12,-193.14 231.07,-187.36"/>
<text text-anchor="middle" x="298.22" y="-286.63" font-family="Times,serif" font-size="14.00">sand&#45;casting*2016</text>
</g>
<!-- &#45;4,&#45;4 (Reserved For Aluminium Ore Drop, Aluminium) -->
<g id="node7" class="node">
<title>&#45;4,&#45;4 (Reserved For Aluminium Ore Drop, Aluminium)</title>
<ellipse fill="none" stroke="black" cx="666.92" cy="-18" rx="258.05" ry="18"/>
<text text-anchor="middle" x="666.92" y="-14.3" font-family="Times,serif" font-size="14.00">&#45;4,&#45;4 (Reserved For Aluminium Ore Drop, Aluminium)</text>
</g>
<!-- &#45;2,&#45;3 (Trains)&#45;&gt;&#45;4,&#45;4 (Reserved For Aluminium Ore Drop, Aluminium) -->
<g id="edge6" class="edge">
<title>&#45;2,&#45;3 (Trains)&#45;&gt;&#45;4,&#45;4 (Reserved For Aluminium Ore Drop, Aluminium)</title>
<path fill="none" stroke="black" stroke-width="0.3" d="M531.73,-374.12C554.65,-313.75 628.74,-118.57 656.39,-45.74"/>
<polygon fill="black" stroke="black" stroke-width="0.3" points="659.7,-46.9 659.98,-36.3 653.15,-44.41 659.7,-46.9"/>
<text text-anchor="middle" x="527.56" y="-213.73" font-family="Times,serif" font-size="14.00">sand&#45;casting*2016</text>
</g>
</g>
</svg>
