<?xml version="1.0" encoding="UTF-8" standalone="no"?>
<!DOCTYPE svg PUBLIC "-//W3C//DTD SVG 1.1//EN"
 "http://www.w3.org/Graphics/SVG/1.1/DTD/svg11.dtd">
<!-- Generated by graphviz version 2.43.0 (0)
 -->
<!-- Title: %3 Pages: 1 -->
<svg width="2137pt" height="1058pt"
 viewBox="0.00 0.00 2136.97 1057.61" xmlns="http://www.w3.org/2000/svg" xmlns:xlink="http://www.w3.org/1999/xlink">
<g id="graph0" class="graph" transform="scale(1 1) rotate(0) translate(4 1053.61)">
<title>%3</title>
<polygon fill="white" stroke="transparent" points="-4,4 -4,-1053.61 2132.97,-1053.61 2132.97,4 -4,4"/>
<!-- 0,0 (LE BUS) -->
<g id="node1" class="node">
<title>0,0 (LE BUS)</title>
<ellipse fill="none" stroke="black" cx="1141.85" cy="-524.8" rx="71.49" ry="18"/>
<text text-anchor="middle" x="1141.85" y="-521.1" font-family="Times,serif" font-size="14.00">0,0 (LE BUS)</text>
</g>
<!-- 2,0 (Sodium Sulfate) -->
<g id="node2" class="node">
<title>2,0 (Sodium Sulfate)</title>
<ellipse fill="none" stroke="black" cx="369.91" cy="-79.13" rx="106.68" ry="18"/>
<text text-anchor="middle" x="369.91" y="-75.43" font-family="Times,serif" font-size="14.00">2,0 (Sodium Sulfate)</text>
</g>
<!-- 0,0 (LE BUS)&#45;&gt;2,0 (Sodium Sulfate) -->
<g id="edge1" class="edge">
<title>0,0 (LE BUS)&#45;&gt;2,0 (Sodium Sulfate)</title>
<path fill="none" stroke="black" stroke-width="2.27" d="M1113,-508.15C994.47,-439.71 544.86,-180.13 409.02,-101.7"/>
<polygon fill="black" stroke="black" stroke-width="2.27" points="410.57,-98.56 400.16,-96.59 407.07,-104.62 410.57,-98.56"/>
<text text-anchor="middle" x="708.01" y="-308.73" font-family="Times,serif" font-size="14.00">gravel*114023</text>
</g>
<!-- 1,8 (A copper mine, Salt) -->
<g id="node6" class="node">
<title>1,8 (A copper mine, Salt)</title>
<ellipse fill="none" stroke="black" cx="369.91" cy="-970.48" rx="126.18" ry="18"/>
<text text-anchor="middle" x="369.91" y="-966.78" font-family="Times,serif" font-size="14.00">1,8 (A copper mine, Salt)</text>
</g>
<!-- 0,0 (LE BUS)&#45;&gt;1,8 (A copper mine, Salt) -->
<g id="edge6" class="edge">
<title>0,0 (LE BUS)&#45;&gt;1,8 (A copper mine, Salt)</title>
<path fill="none" stroke="black" stroke-width="3.91" d="M1113,-541.46C994.6,-609.82 545.87,-868.89 409.48,-947.64"/>
<polygon fill="black" stroke="black" stroke-width="3.91" points="407.49,-944.75 400.58,-952.78 410.99,-950.81 407.49,-944.75"/>
<text text-anchor="middle" x="708.24" y="-748.35" font-family="Times,serif" font-size="14.00">gravel*196605</text>
</g>
<!-- &#45;6,&#45;1 (item=agar Agar) -->
<g id="node10" class="node">
<title>&#45;6,&#45;1 (item=agar Agar)</title>
<ellipse fill="none" stroke="black" cx="1021.45" cy="-194.01" rx="115.88" ry="18"/>
<text text-anchor="middle" x="1021.45" y="-190.31" font-family="Times,serif" font-size="14.00">&#45;6,&#45;1 (item=agar Agar)</text>
</g>
<!-- 0,0 (LE BUS)&#45;&gt;&#45;6,&#45;1 (item=agar Agar) -->
<g id="edge13" class="edge">
<title>0,0 (LE BUS)&#45;&gt;&#45;6,&#45;1 (item=agar Agar)</title>
<path fill="none" stroke="black" stroke-width="0.37" d="M1135.2,-506.55C1115.22,-451.65 1055.59,-287.81 1031.6,-221.91"/>
<polygon fill="black" stroke="black" stroke-width="0.37" points="1034.78,-220.41 1028.07,-212.21 1028.2,-222.81 1034.78,-220.41"/>
<text text-anchor="middle" x="1034.9" y="-368.03" font-family="Times,serif" font-size="14.00">gravel*18768</text>
</g>
<!-- 2,10 (Nickel plate) -->
<g id="node3" class="node">
<title>2,10 (Nickel plate)</title>
<ellipse fill="none" stroke="black" cx="143.64" cy="-348.79" rx="96.68" ry="18"/>
<text text-anchor="middle" x="143.64" y="-345.09" font-family="Times,serif" font-size="14.00">2,10 (Nickel plate)</text>
</g>
<!-- 2,10 (Nickel plate)&#45;&gt;0,0 (LE BUS) -->
<g id="edge2" class="edge">
<title>2,10 (Nickel plate)&#45;&gt;0,0 (LE BUS)</title>
<path fill="none" stroke="black" stroke-width="0.54" d="M214.23,-361.24C398.26,-393.69 891.01,-480.58 1073.03,-512.67"/>
<polygon fill="black" stroke="black" stroke-width="0.54" points="1072.56,-516.14 1083.02,-514.43 1073.78,-509.25 1072.56,-516.14"/>
<text text-anchor="middle" x="595.13" y="-440.76" font-family="Times,serif" font-size="14.00">gravel*27008</text>
</g>
<!-- 2,10 (Nickel plate)&#45;&gt;2,0 (Sodium Sulfate) -->
<g id="edge3" class="edge">
<title>2,10 (Nickel plate)&#45;&gt;2,0 (Sodium Sulfate)</title>
<path fill="none" stroke="black" stroke-width="0.19" d="M158.84,-330.68C198.04,-283.95 302.72,-159.21 348.25,-104.94"/>
<polygon fill="black" stroke="black" stroke-width="0.19" points="351.03,-107.07 354.78,-97.16 345.67,-102.57 351.03,-107.07"/>
<text text-anchor="middle" x="209.54" y="-221.61" font-family="Times,serif" font-size="14.00">gravel*9312</text>
</g>
<!-- 3,9 (Copper, molten &amp; plate) -->
<g id="node4" class="node">
<title>3,9 (Copper, molten &amp; plate)</title>
<ellipse fill="none" stroke="black" cx="143.64" cy="-700.82" rx="143.77" ry="18"/>
<text text-anchor="middle" x="143.64" y="-697.12" font-family="Times,serif" font-size="14.00">3,9 (Copper, molten &amp; plate)</text>
</g>
<!-- 3,9 (Copper, molten &amp; plate)&#45;&gt;0,0 (LE BUS) -->
<g id="edge4" class="edge">
<title>3,9 (Copper, molten &amp; plate)&#45;&gt;0,0 (LE BUS)</title>
<path fill="none" stroke="black" stroke-width="3.5" d="M227.03,-686.11C420.2,-652.05 895.37,-568.26 1073.2,-536.91"/>
<polygon fill="black" stroke="black" stroke-width="3.5" points="1073.98,-540.33 1083.22,-535.14 1072.76,-533.43 1073.98,-540.33"/>
<text text-anchor="middle" x="597.11" y="-615.31" font-family="Times,serif" font-size="14.00">gravel*175920</text>
</g>
<!-- 3,9 (Copper, molten &amp; plate)&#45;&gt;1,8 (A copper mine, Salt) -->
<g id="edge11" class="edge">
<title>3,9 (Copper, molten &amp; plate)&#45;&gt;1,8 (A copper mine, Salt)</title>
<path fill="none" stroke="black" stroke-width="0.69" d="M158.84,-718.93C198.04,-765.66 302.72,-890.4 348.25,-944.67"/>
<polygon fill="black" stroke="black" stroke-width="0.69" points="345.67,-947.04 354.78,-952.45 351.03,-942.54 345.67,-947.04"/>
<text text-anchor="middle" x="205.04" y="-835.6" font-family="Times,serif" font-size="14.00">gravel*34432</text>
</g>
<!-- &#45;6,7 (Iron ore dust) -->
<g id="node5" class="node">
<title>&#45;6,7 (Iron ore dust)</title>
<ellipse fill="none" stroke="black" cx="716.59" cy="-18" rx="98.58" ry="18"/>
<text text-anchor="middle" x="716.59" y="-14.3" font-family="Times,serif" font-size="14.00">&#45;6,7 (Iron ore dust)</text>
</g>
<!-- &#45;6,7 (Iron ore dust)&#45;&gt;0,0 (LE BUS) -->
<g id="edge10" class="edge">
<title>&#45;6,7 (Iron ore dust)&#45;&gt;0,0 (LE BUS)</title>
<path fill="none" stroke="black" stroke-width="2.18" d="M731.72,-36.04C795.86,-112.47 1045.36,-409.81 1120.39,-499.23"/>
<polygon fill="black" stroke="black" stroke-width="2.18" points="1117.78,-501.57 1126.89,-506.98 1123.15,-497.07 1117.78,-501.57"/>
<text text-anchor="middle" x="873.06" y="-271.43" font-family="Times,serif" font-size="14.00">gravel*109488</text>
</g>
<!-- &#45;6,7 (Iron ore dust)&#45;&gt;2,0 (Sodium Sulfate) -->
<g id="edge8" class="edge">
<title>&#45;6,7 (Iron ore dust)&#45;&gt;2,0 (Sodium Sulfate)</title>
<path fill="none" stroke="black" stroke-width="0.16" d="M645.6,-30.52C589.98,-40.32 512.46,-53.99 453.79,-64.34"/>
<polygon fill="black" stroke="black" stroke-width="0.16" points="453.04,-60.92 443.8,-66.1 454.26,-67.81 453.04,-60.92"/>
<text text-anchor="middle" x="505.69" y="-36.23" font-family="Times,serif" font-size="14.00">gravel*7936</text>
</g>
<!-- &#45;6,7 (Iron ore dust)&#45;&gt;1,8 (A copper mine, Salt) -->
<g id="edge5" class="edge">
<title>&#45;6,7 (Iron ore dust)&#45;&gt;1,8 (A copper mine, Salt)</title>
<path fill="none" stroke="black" stroke-width="0.9" d="M709.97,-36.18C667.37,-153.23 431.82,-800.4 380,-942.78"/>
<polygon fill="black" stroke="black" stroke-width="0.9" points="376.59,-941.91 376.46,-952.5 383.17,-944.3 376.59,-941.91"/>
<text text-anchor="middle" x="496.48" y="-493.28" font-family="Times,serif" font-size="14.00">gravel*45200</text>
</g>
<!-- &#45;6,7 (Iron ore dust)&#45;&gt;&#45;6,&#45;1 (item=agar Agar) -->
<g id="edge16" class="edge">
<title>&#45;6,7 (Iron ore dust)&#45;&gt;&#45;6,&#45;1 (item=agar Agar)</title>
<path fill="none" stroke="black" stroke-width="0.04" d="M746.37,-35.2C801.78,-67.19 920.66,-135.82 982.41,-171.47"/>
<polygon fill="black" stroke="black" stroke-width="0.04" points="980.68,-174.51 991.09,-176.48 984.18,-168.45 980.68,-174.51"/>
<text text-anchor="middle" x="820.39" y="-107.13" font-family="Times,serif" font-size="14.00">gravel*2032</text>
</g>
<!-- &#45;6,&#45;3 (Chromite Sand) -->
<g id="node7" class="node">
<title>&#45;6,&#45;3 (Chromite Sand)</title>
<ellipse fill="none" stroke="black" cx="716.59" cy="-1031.61" rx="110.48" ry="18"/>
<text text-anchor="middle" x="716.59" y="-1027.91" font-family="Times,serif" font-size="14.00">&#45;6,&#45;3 (Chromite Sand)</text>
</g>
<!-- &#45;6,&#45;3 (Chromite Sand)&#45;&gt;0,0 (LE BUS) -->
<g id="edge7" class="edge">
<title>&#45;6,&#45;3 (Chromite Sand)&#45;&gt;0,0 (LE BUS)</title>
<path fill="none" stroke="black" stroke-width="0.12" d="M731.72,-1013.57C795.86,-937.14 1045.36,-639.8 1120.39,-550.38"/>
<polygon fill="black" stroke="black" stroke-width="0.12" points="1123.15,-552.54 1126.89,-542.63 1117.78,-548.04 1123.15,-552.54"/>
<text text-anchor="middle" x="882.06" y="-785.78" font-family="Times,serif" font-size="14.00">gravel*6013</text>
</g>
<!-- &#45;6,&#45;3 (Chromite Sand)&#45;&gt;1,8 (A copper mine, Salt) -->
<g id="edge14" class="edge">
<title>&#45;6,&#45;3 (Chromite Sand)&#45;&gt;1,8 (A copper mine, Salt)</title>
<path fill="none" stroke="black" stroke-width="0.06" d="M641.36,-1018.35C587.92,-1008.92 515.92,-996.23 459.5,-986.28"/>
<polygon fill="black" stroke="black" stroke-width="0.06" points="459.97,-982.81 449.51,-984.52 458.75,-989.7 459.97,-982.81"/>
<text text-anchor="middle" x="506.43" y="-1006.11" font-family="Times,serif" font-size="14.00">gravel*3014</text>
</g>
<!-- 1,&#45;1 (fluid=molten&#45;glass Glass, When space, make quartz separate with regular priority, Quartz) -->
<g id="node8" class="node">
<title>1,&#45;1 (fluid=molten&#45;glass Glass, When space, make quartz separate with regular priority, Quartz)</title>
<ellipse fill="none" stroke="black" cx="1671.41" cy="-524.8" rx="457.62" ry="18"/>
<text text-anchor="middle" x="1671.41" y="-521.1" font-family="Times,serif" font-size="14.00">1,&#45;1 (fluid=molten&#45;glass Glass, When space, make quartz separate with regular priority, Quartz)</text>
</g>
<!-- 1,&#45;1 (fluid=molten&#45;glass Glass, When space, make quartz separate with regular priority, Quartz)&#45;&gt;0,0 (LE BUS) -->
<g id="edge9" class="edge">
<title>1,&#45;1 (fluid=molten&#45;glass Glass, When space, make quartz separate with regular priority, Quartz)&#45;&gt;0,0 (LE BUS)</title>
<path fill="none" stroke="black" stroke-width="0.18" d="M1213.82,-524.8C1213.77,-524.8 1213.73,-524.8 1213.69,-524.8"/>
<polygon fill="black" stroke="black" stroke-width="0.18" points="1223.56,-521.31 1213.56,-524.8 1223.56,-528.31 1223.56,-521.31"/>
<text text-anchor="middle" x="1169.75" y="-528.6" font-family="Times,serif" font-size="14.00">gravel*9072</text>
</g>
<!-- 1,10 (Iron Ore Dust) -->
<g id="node9" class="node">
<title>1,10 (Iron Ore Dust)</title>
<ellipse fill="none" stroke="black" cx="1021.45" cy="-855.6" rx="104.78" ry="18"/>
<text text-anchor="middle" x="1021.45" y="-851.9" font-family="Times,serif" font-size="14.00">1,10 (Iron Ore Dust)</text>
</g>
<!-- 1,10 (Iron Ore Dust)&#45;&gt;0,0 (LE BUS) -->
<g id="edge12" class="edge">
<title>1,10 (Iron Ore Dust)&#45;&gt;0,0 (LE BUS)</title>
<path fill="none" stroke="black" stroke-width="0.6" d="M1028.09,-837.34C1048.07,-782.44 1107.71,-618.6 1131.69,-552.71"/>
<polygon fill="black" stroke="black" stroke-width="0.6" points="1135.09,-553.6 1135.22,-543 1128.51,-551.2 1135.09,-553.6"/>
<text text-anchor="middle" x="1031.39" y="-698.82" font-family="Times,serif" font-size="14.00">gravel*30016</text>
</g>
<!-- 1,10 (Iron Ore Dust)&#45;&gt;1,8 (A copper mine, Salt) -->
<g id="edge15" class="edge">
<title>1,10 (Iron Ore Dust)&#45;&gt;1,8 (A copper mine, Salt)</title>
<path fill="none" stroke="black" stroke-width="0.3" d="M948.29,-868.5C828.09,-889.69 589.21,-931.81 459.22,-954.73"/>
<polygon fill="black" stroke="black" stroke-width="0.3" points="458.53,-951.3 449.29,-956.49 459.74,-958.2 458.53,-951.3"/>
<text text-anchor="middle" x="655.26" y="-915.42" font-family="Times,serif" font-size="14.00">gravel*15008</text>
</g>
</g>
</svg>
