<?xml version="1.0" encoding="UTF-8" standalone="no"?>
<!DOCTYPE svg PUBLIC "-//W3C//DTD SVG 1.1//EN"
 "http://www.w3.org/Graphics/SVG/1.1/DTD/svg11.dtd">
<!-- Generated by graphviz version 2.43.0 (0)
 -->
<!-- Title: %3 Pages: 1 -->
<svg width="1115pt" height="965pt"
 viewBox="0.00 0.00 1114.74 964.86" xmlns="http://www.w3.org/2000/svg" xmlns:xlink="http://www.w3.org/1999/xlink">
<g id="graph0" class="graph" transform="scale(1 1) rotate(0) translate(4 960.86)">
<title>%3</title>
<polygon fill="white" stroke="transparent" points="-4,4 -4,-960.86 1110.74,-960.86 1110.74,4 -4,4"/>
<!-- &#45;2,8 (syngas from coal dust and also wood) -->
<g id="node1" class="node">
<title>&#45;2,8 (syngas from coal dust and also wood)</title>
<ellipse fill="none" stroke="black" cx="576.12" cy="-18" rx="208.76" ry="18"/>
<text text-anchor="middle" x="576.12" y="-14.3" font-family="Times,serif" font-size="14.00">&#45;2,8 (syngas from coal dust and also wood)</text>
</g>
<!-- 1,7 (Activated Carbon) -->
<g id="node2" class="node">
<title>1,7 (Activated Carbon)</title>
<ellipse fill="none" stroke="black" cx="115.69" cy="-478.43" rx="115.88" ry="18"/>
<text text-anchor="middle" x="115.69" y="-474.73" font-family="Times,serif" font-size="14.00">1,7 (Activated Carbon)</text>
</g>
<!-- &#45;2,8 (syngas from coal dust and also wood)&#45;&gt;1,7 (Activated Carbon) -->
<g id="edge1" class="edge">
<title>&#45;2,8 (syngas from coal dust and also wood)&#45;&gt;1,7 (Activated Carbon)</title>
<path fill="none" stroke="black" stroke-width="1.35" d="M558.07,-36.05C486.72,-107.4 224.18,-369.94 141.08,-453.04"/>
<polygon fill="black" stroke="black" stroke-width="1.35" points="138.21,-450.96 133.61,-460.51 143.16,-455.91 138.21,-450.96"/>
<text text-anchor="middle" x="309.08" y="-248.34" font-family="Times,serif" font-size="14.00">coal*56032</text>
</g>
<!-- &#45;2,&#45;3 (Trains) -->
<g id="node4" class="node">
<title>&#45;2,&#45;3 (Trains)</title>
<ellipse fill="none" stroke="black" cx="1036.55" cy="-478.43" rx="70.39" ry="18"/>
<text text-anchor="middle" x="1036.55" y="-474.73" font-family="Times,serif" font-size="14.00">&#45;2,&#45;3 (Trains)</text>
</g>
<!-- &#45;2,8 (syngas from coal dust and also wood)&#45;&gt;&#45;2,&#45;3 (Trains) -->
<g id="edge3" class="edge">
<title>&#45;2,8 (syngas from coal dust and also wood)&#45;&gt;&#45;2,&#45;3 (Trains)</title>
<path fill="none" stroke="black" stroke-width="0.1" d="M594.17,-36.05C665.6,-107.48 928.66,-370.54 1011.44,-453.32"/>
<polygon fill="black" stroke="black" stroke-width="0.1" points="1009.33,-456.16 1018.87,-460.75 1014.28,-451.21 1009.33,-456.16"/>
<text text-anchor="middle" x="766.8" y="-248.48" font-family="Times,serif" font-size="14.00">coal*4048</text>
</g>
<!-- &#45;5,&#45;1 (Coal and Coke and Syngas and Ash and Coke Oven Gas and...) -->
<g id="node3" class="node">
<title>&#45;5,&#45;1 (Coal and Coke and Syngas and Ash and Coke Oven Gas and...)</title>
<ellipse fill="none" stroke="black" cx="576.12" cy="-938.86" rx="325.74" ry="18"/>
<text text-anchor="middle" x="576.12" y="-935.16" font-family="Times,serif" font-size="14.00">&#45;5,&#45;1 (Coal and Coke and Syngas and Ash and Coke Oven Gas and...)</text>
</g>
<!-- &#45;5,&#45;1 (Coal and Coke and Syngas and Ash and Coke Oven Gas and...)&#45;&gt;1,7 (Activated Carbon) -->
<g id="edge2" class="edge">
<title>&#45;5,&#45;1 (Coal and Coke and Syngas and Ash and Coke Oven Gas and...)&#45;&gt;1,7 (Activated Carbon)</title>
<path fill="none" stroke="black" stroke-width="2.5" d="M558.07,-920.81C486.72,-849.46 224.18,-586.92 141.08,-503.82"/>
<polygon fill="black" stroke="black" stroke-width="2.5" points="143.16,-500.95 133.61,-496.35 138.21,-505.9 143.16,-500.95"/>
<text text-anchor="middle" x="304.58" y="-716.12" font-family="Times,serif" font-size="14.00">coal*103712</text>
</g>
<!-- &#45;5,&#45;1 (Coal and Coke and Syngas and Ash and Coke Oven Gas and...)&#45;&gt;&#45;2,&#45;3 (Trains) -->
<g id="edge4" class="edge">
<title>&#45;5,&#45;1 (Coal and Coke and Syngas and Ash and Coke Oven Gas and...)&#45;&gt;&#45;2,&#45;3 (Trains)</title>
<path fill="none" stroke="black" stroke-width="0.05" d="M594.17,-920.81C665.6,-849.38 928.66,-586.32 1011.44,-503.54"/>
<polygon fill="black" stroke="black" stroke-width="0.05" points="1014.28,-505.65 1018.87,-496.11 1009.33,-500.7 1014.28,-505.65"/>
<text text-anchor="middle" x="766.8" y="-715.98" font-family="Times,serif" font-size="14.00">coal*2032</text>
</g>
</g>
</svg>
