<?xml version="1.0" encoding="UTF-8" standalone="no"?>
<!DOCTYPE svg PUBLIC "-//W3C//DTD SVG 1.1//EN"
 "http://www.w3.org/Graphics/SVG/1.1/DTD/svg11.dtd">
<!-- Generated by graphviz version 2.43.0 (0)
 -->
<!-- Title: %3 Pages: 1 -->
<svg width="1051pt" height="911pt"
 viewBox="0.00 0.00 1051.35 911.44" xmlns="http://www.w3.org/2000/svg" xmlns:xlink="http://www.w3.org/1999/xlink">
<g id="graph0" class="graph" transform="scale(1 1) rotate(0) translate(4 907.44)">
<title>%3</title>
<polygon fill="white" stroke="transparent" points="-4,4 -4,-907.44 1047.35,-907.44 1047.35,4 -4,4"/>
<!-- 2,4 (Formica and Phenolic boards) -->
<g id="node1" class="node">
<title>2,4 (Formica and Phenolic boards)</title>
<ellipse fill="none" stroke="black" cx="489.74" cy="-472.76" rx="169.77" ry="18"/>
<text text-anchor="middle" x="489.74" y="-469.06" font-family="Times,serif" font-size="14.00">2,4 (Formica and Phenolic boards)</text>
</g>
<!-- 0,0 (LE BUS) -->
<g id="node2" class="node">
<title>0,0 (LE BUS)</title>
<ellipse fill="none" stroke="black" cx="971.86" cy="-472.76" rx="71.49" ry="18"/>
<text text-anchor="middle" x="971.86" y="-469.06" font-family="Times,serif" font-size="14.00">0,0 (LE BUS)</text>
</g>
<!-- 2,4 (Formica and Phenolic boards)&#45;&gt;0,0 (LE BUS) -->
<g id="edge1" class="edge">
<title>2,4 (Formica and Phenolic boards)&#45;&gt;0,0 (LE BUS)</title>
<path fill="none" stroke="black" stroke-width="0.48" d="M659.38,-472.76C737.61,-472.76 826.87,-472.76 889.9,-472.76"/>
<polygon fill="black" stroke="black" stroke-width="0.48" points="890.18,-476.26 900.18,-472.76 890.18,-469.26 890.18,-476.26"/>
<text text-anchor="middle" x="813.14" y="-461.56" font-family="Times,serif" font-size="14.00">melamine&#45;resin*4240</text>
</g>
<!-- 3,3 (Random electronic components, Small Parts) -->
<g id="node3" class="node">
<title>3,3 (Random electronic components, Small Parts)</title>
<ellipse fill="none" stroke="black" cx="240.48" cy="-885.44" rx="240.46" ry="18"/>
<text text-anchor="middle" x="240.48" y="-881.74" font-family="Times,serif" font-size="14.00">3,3 (Random electronic components, Small Parts)</text>
</g>
<!-- 2,4 (Formica and Phenolic boards)&#45;&gt;3,3 (Random electronic components, Small Parts) -->
<g id="edge2" class="edge">
<title>2,4 (Formica and Phenolic boards)&#45;&gt;3,3 (Random electronic components, Small Parts)</title>
<path fill="none" stroke="black" stroke-width="1.49" d="M478.87,-490.76C439.43,-556.05 303.74,-780.71 256.69,-858.59"/>
<polygon fill="black" stroke="black" stroke-width="1.49" points="253.58,-856.98 251.41,-867.35 259.57,-860.59 253.58,-856.98"/>
<text text-anchor="middle" x="286.28" y="-678.48" font-family="Times,serif" font-size="14.00">melamine&#45;resin*13200</text>
</g>
<!-- 6,4 (Electronic components) -->
<g id="node4" class="node">
<title>6,4 (Electronic components)</title>
<ellipse fill="none" stroke="black" cx="329.67" cy="-18" rx="141.88" ry="18"/>
<text text-anchor="middle" x="329.67" y="-14.3" font-family="Times,serif" font-size="14.00">6,4 (Electronic components)</text>
</g>
<!-- 2,4 (Formica and Phenolic boards)&#45;&gt;6,4 (Electronic components) -->
<g id="edge3" class="edge">
<title>2,4 (Formica and Phenolic boards)&#45;&gt;6,4 (Electronic components)</title>
<path fill="none" stroke="black" stroke-width="1.04" d="M483.37,-454.65C458.67,-384.49 369.18,-130.24 339.39,-45.62"/>
<polygon fill="black" stroke="black" stroke-width="1.04" points="342.68,-44.43 336.06,-36.16 336.08,-46.75 342.68,-44.43"/>
<text text-anchor="middle" x="334.38" y="-253.93" font-family="Times,serif" font-size="14.00">melamine&#45;resin*9200</text>
</g>
</g>
</svg>
