<?xml version="1.0" encoding="UTF-8" standalone="no"?>
<!DOCTYPE svg PUBLIC "-//W3C//DTD SVG 1.1//EN"
 "http://www.w3.org/Graphics/SVG/1.1/DTD/svg11.dtd">
<!-- Generated by graphviz version 2.43.0 (0)
 -->
<!-- Title: %3 Pages: 1 -->
<svg width="617pt" height="44pt"
 viewBox="0.00 0.00 617.36 44.00" xmlns="http://www.w3.org/2000/svg" xmlns:xlink="http://www.w3.org/1999/xlink">
<g id="graph0" class="graph" transform="scale(1 1) rotate(0) translate(4 40)">
<title>%3</title>
<polygon fill="white" stroke="transparent" points="-4,4 -4,-40 613.36,-40 613.36,4 -4,4"/>
<!-- &#45;3,&#45;8 () -->
<g id="node1" class="node">
<title>&#45;3,&#45;8 ()</title>
<ellipse fill="none" stroke="black" cx="320.93" cy="-18" rx="40.89" ry="18"/>
<text text-anchor="middle" x="320.93" y="-14.3" font-family="Times,serif" font-size="14.00">&#45;3,&#45;8 ()</text>
</g>
<!-- 0,0 (LE BUS) -->
<g id="node2" class="node">
<title>0,0 (LE BUS)</title>
<ellipse fill="none" stroke="black" cx="537.87" cy="-18" rx="71.49" ry="18"/>
<text text-anchor="middle" x="537.87" y="-14.3" font-family="Times,serif" font-size="14.00">0,0 (LE BUS)</text>
</g>
<!-- &#45;3,&#45;8 ()&#45;&gt;0,0 (LE BUS) -->
<g id="edge1" class="edge">
<title>&#45;3,&#45;8 ()&#45;&gt;0,0 (LE BUS)</title>
<path fill="none" stroke="black" stroke-width="0.5" d="M361.99,-18C388.48,-18 423.86,-18 455.94,-18"/>
<polygon fill="black" stroke="black" stroke-width="0.5" points="456.22,-21.5 466.22,-18 456.22,-14.5 456.22,-21.5"/>
<text text-anchor="middle" x="408.96" y="-6.8" font-family="Times,serif" font-size="14.00">crushed&#45;quartz*10320</text>
</g>
<!-- &#45;3,9 (Silicon Wafers) -->
<g id="node3" class="node">
<title>&#45;3,9 (Silicon Wafers)</title>
<ellipse fill="none" stroke="black" cx="103.99" cy="-18" rx="103.98" ry="18"/>
<text text-anchor="middle" x="103.99" y="-14.3" font-family="Times,serif" font-size="14.00">&#45;3,9 (Silicon Wafers)</text>
</g>
<!-- &#45;3,&#45;8 ()&#45;&gt;&#45;3,9 (Silicon Wafers) -->
<g id="edge2" class="edge">
<title>&#45;3,&#45;8 ()&#45;&gt;&#45;3,9 (Silicon Wafers)</title>
<path fill="none" stroke="black" stroke-width="1.5" d="M279.87,-18C262.08,-18 240.28,-18 218.17,-18"/>
<polygon fill="black" stroke="black" stroke-width="1.5" points="218,-14.5 208,-18 218,-21.5 218,-14.5"/>
<text text-anchor="middle" x="329.02" y="-21.8" font-family="Times,serif" font-size="14.00">crushed&#45;quartz*30720</text>
</g>
</g>
</svg>
