<?xml version="1.0" encoding="UTF-8" standalone="no"?>
<!DOCTYPE svg PUBLIC "-//W3C//DTD SVG 1.1//EN"
 "http://www.w3.org/Graphics/SVG/1.1/DTD/svg11.dtd">
<!-- Generated by graphviz version 2.43.0 (0)
 -->
<!-- Title: %3 Pages: 1 -->
<svg width="1137pt" height="808pt"
 viewBox="0.00 0.00 1136.60 807.80" xmlns="http://www.w3.org/2000/svg" xmlns:xlink="http://www.w3.org/1999/xlink">
<g id="graph0" class="graph" transform="scale(1 1) rotate(0) translate(4 803.8)">
<title>%3</title>
<polygon fill="white" stroke="transparent" points="-4,4 -4,-803.8 1132.6,-803.8 1132.6,4 -4,4"/>
<!-- 1,7 (Activated Carbon) -->
<g id="node1" class="node">
<title>1,7 (Activated Carbon)</title>
<ellipse fill="none" stroke="black" cx="639.99" cy="-430.59" rx="115.88" ry="18"/>
<text text-anchor="middle" x="639.99" y="-426.89" font-family="Times,serif" font-size="14.00">1,7 (Activated Carbon)</text>
</g>
<!-- 0,0 (LE BUS) -->
<g id="node2" class="node">
<title>0,0 (LE BUS)</title>
<ellipse fill="none" stroke="black" cx="1057.11" cy="-430.59" rx="71.49" ry="18"/>
<text text-anchor="middle" x="1057.11" y="-426.89" font-family="Times,serif" font-size="14.00">0,0 (LE BUS)</text>
</g>
<!-- 1,7 (Activated Carbon)&#45;&gt;0,0 (LE BUS) -->
<g id="edge1" class="edge">
<title>1,7 (Activated Carbon)&#45;&gt;0,0 (LE BUS)</title>
<path fill="none" stroke="black" stroke-width="0.95" d="M755.9,-430.59C825.67,-430.59 912.79,-430.59 975.37,-430.59"/>
<polygon fill="black" stroke="black" stroke-width="0.95" points="975.58,-434.09 985.58,-430.59 975.58,-427.09 975.58,-434.09"/>
<text text-anchor="middle" x="902.63" y="-419.39" font-family="Times,serif" font-size="14.00">active&#45;carbon*58080</text>
</g>
<!-- 4,1 (item=filtration&#45;media Filtration Media) -->
<g id="node3" class="node">
<title>4,1 (item=filtration&#45;media Filtration Media)</title>
<ellipse fill="none" stroke="black" cx="866.11" cy="-781.1" rx="214.46" ry="18"/>
<text text-anchor="middle" x="866.11" y="-777.4" font-family="Times,serif" font-size="14.00">4,1 (item=filtration&#45;media Filtration Media)</text>
</g>
<!-- 1,7 (Activated Carbon)&#45;&gt;4,1 (item=filtration&#45;media Filtration Media) -->
<g id="edge2" class="edge">
<title>1,7 (Activated Carbon)&#45;&gt;4,1 (item=filtration&#45;media Filtration Media)</title>
<path fill="none" stroke="black" stroke-width="1.65" d="M651.82,-448.94C689.22,-506.9 804.93,-686.27 848.91,-754.44"/>
<polygon fill="black" stroke="black" stroke-width="1.65" points="846.02,-756.42 854.39,-762.93 851.91,-752.63 846.02,-756.42"/>
<text text-anchor="middle" x="671.87" y="-605.49" font-family="Times,serif" font-size="14.00">active&#45;carbon*101021</text>
</g>
<!-- 2,6 (Refined Syngas, Nisi) -->
<g id="node4" class="node">
<title>2,6 (Refined Syngas, Nisi)</title>
<ellipse fill="none" stroke="black" cx="414.96" cy="-781.8" rx="131.88" ry="18"/>
<text text-anchor="middle" x="414.96" y="-778.1" font-family="Times,serif" font-size="14.00">2,6 (Refined Syngas, Nisi)</text>
</g>
<!-- 1,7 (Activated Carbon)&#45;&gt;2,6 (Refined Syngas, Nisi) -->
<g id="edge3" class="edge">
<title>1,7 (Activated Carbon)&#45;&gt;2,6 (Refined Syngas, Nisi)</title>
<path fill="none" stroke="black" stroke-width="2.09" d="M628.2,-448.97C590.99,-507.06 475.83,-686.78 432.07,-755.09"/>
<polygon fill="black" stroke="black" stroke-width="2.09" points="429.07,-753.28 426.62,-763.59 434.96,-757.06 429.07,-753.28"/>
<text text-anchor="middle" x="451.64" y="-605.83" font-family="Times,serif" font-size="14.00">active&#45;carbon*128000</text>
</g>
<!-- 0,6 (Flue Gas Disposal, Syngas From Flue Gas) -->
<g id="node5" class="node">
<title>0,6 (Flue Gas Disposal, Syngas From Flue Gas)</title>
<ellipse fill="none" stroke="black" cx="229.43" cy="-356.88" rx="229.36" ry="18"/>
<text text-anchor="middle" x="229.43" y="-353.18" font-family="Times,serif" font-size="14.00">0,6 (Flue Gas Disposal, Syngas From Flue Gas)</text>
</g>
<!-- 1,7 (Activated Carbon)&#45;&gt;0,6 (Flue Gas Disposal, Syngas From Flue Gas) -->
<g id="edge4" class="edge">
<title>1,7 (Activated Carbon)&#45;&gt;0,6 (Flue Gas Disposal, Syngas From Flue Gas)</title>
<path fill="none" stroke="black" stroke-width="0.7" d="M564.2,-416.98C498.81,-405.24 403.79,-388.18 331.68,-375.24"/>
<polygon fill="black" stroke="black" stroke-width="0.7" points="332.12,-371.76 321.66,-373.44 330.88,-378.65 332.12,-371.76"/>
<text text-anchor="middle" x="373.94" y="-399.91" font-family="Times,serif" font-size="14.00">active&#45;carbon*43040</text>
</g>
<!-- 2,&#45;2 (Tin Plate, Organic Solvent) -->
<g id="node6" class="node">
<title>2,&#45;2 (Tin Plate, Organic Solvent)</title>
<ellipse fill="none" stroke="black" cx="578.66" cy="-18" rx="159.77" ry="18"/>
<text text-anchor="middle" x="578.66" y="-14.3" font-family="Times,serif" font-size="14.00">2,&#45;2 (Tin Plate, Organic Solvent)</text>
</g>
<!-- 1,7 (Activated Carbon)&#45;&gt;2,&#45;2 (Tin Plate, Organic Solvent) -->
<g id="edge5" class="edge">
<title>1,7 (Activated Carbon)&#45;&gt;2,&#45;2 (Tin Plate, Organic Solvent)</title>
<path fill="none" stroke="black" stroke-width="0.23" d="M637.27,-412.33C627.57,-347.09 594.6,-125.22 582.85,-46.22"/>
<polygon fill="black" stroke="black" stroke-width="0.23" points="586.27,-45.43 581.34,-36.05 579.35,-46.46 586.27,-45.43"/>
<text text-anchor="middle" x="536.06" y="-233.07" font-family="Times,serif" font-size="14.00">active&#45;carbon*14080</text>
</g>
<!-- 4,10 (Fluid Recycling) -->
<g id="node7" class="node">
<title>4,10 (Fluid Recycling)</title>
<ellipse fill="none" stroke="black" cx="944.27" cy="-145.28" rx="112.38" ry="18"/>
<text text-anchor="middle" x="944.27" y="-141.58" font-family="Times,serif" font-size="14.00">4,10 (Fluid Recycling)</text>
</g>
<!-- 1,7 (Activated Carbon)&#45;&gt;4,10 (Fluid Recycling) -->
<g id="edge6" class="edge">
<title>1,7 (Activated Carbon)&#45;&gt;4,10 (Fluid Recycling)</title>
<path fill="none" stroke="black" stroke-width="0.37" d="M659.02,-412.74C711.32,-363.7 857.31,-226.82 917.65,-170.24"/>
<polygon fill="black" stroke="black" stroke-width="0.37" points="920.34,-172.51 925.24,-163.12 915.55,-167.41 920.34,-172.51"/>
<text text-anchor="middle" x="714.33" y="-295.29" font-family="Times,serif" font-size="14.00">active&#45;carbon*22560</text>
</g>
</g>
</svg>
