<?xml version="1.0" encoding="UTF-8" standalone="no"?>
<!DOCTYPE svg PUBLIC "-//W3C//DTD SVG 1.1//EN"
 "http://www.w3.org/Graphics/SVG/1.1/DTD/svg11.dtd">
<!-- Generated by graphviz version 2.43.0 (0)
 -->
<!-- Title: %3 Pages: 1 -->
<svg width="960pt" height="863pt"
 viewBox="0.00 0.00 960.41 862.95" xmlns="http://www.w3.org/2000/svg" xmlns:xlink="http://www.w3.org/1999/xlink">
<g id="graph0" class="graph" transform="scale(1 1) rotate(0) translate(4 858.95)">
<title>%3</title>
<polygon fill="white" stroke="transparent" points="-4,4 -4,-858.95 956.41,-858.95 956.41,4 -4,4"/>
<!-- 4,13 (Chromium processing) -->
<g id="node1" class="node">
<title>4,13 (Chromium processing)</title>
<ellipse fill="none" stroke="black" cx="456.65" cy="-425.97" rx="142.97" ry="18"/>
<text text-anchor="middle" x="456.65" y="-422.27" font-family="Times,serif" font-size="14.00">4,13 (Chromium processing)</text>
</g>
<!-- 2,&#45;1 (Ammonia) -->
<g id="node2" class="node">
<title>2,&#45;1 (Ammonia)</title>
<ellipse fill="none" stroke="black" cx="871.17" cy="-425.97" rx="81.49" ry="18"/>
<text text-anchor="middle" x="871.17" y="-422.27" font-family="Times,serif" font-size="14.00">2,&#45;1 (Ammonia)</text>
</g>
<!-- 4,13 (Chromium processing)&#45;&gt;2,&#45;1 (Ammonia) -->
<g id="edge1" class="edge">
<title>4,13 (Chromium processing)&#45;&gt;2,&#45;1 (Ammonia)</title>
<path fill="none" stroke="black" stroke-width="0.91" d="M599.88,-425.97C659.57,-425.97 727.11,-425.97 779.87,-425.97"/>
<polygon fill="black" stroke="black" stroke-width="0.91" points="779.88,-429.47 789.88,-425.97 779.88,-422.47 779.88,-429.47"/>
<text text-anchor="middle" x="720.88" y="-414.77" font-family="Times,serif" font-size="14.00">chromium*36480</text>
</g>
<!-- 0,0 (LE BUS) -->
<g id="node3" class="node">
<title>0,0 (LE BUS)</title>
<ellipse fill="none" stroke="black" cx="510.76" cy="-836.95" rx="71.49" ry="18"/>
<text text-anchor="middle" x="510.76" y="-833.25" font-family="Times,serif" font-size="14.00">0,0 (LE BUS)</text>
</g>
<!-- 4,13 (Chromium processing)&#45;&gt;0,0 (LE BUS) -->
<g id="edge2" class="edge">
<title>4,13 (Chromium processing)&#45;&gt;0,0 (LE BUS)</title>
<path fill="none" stroke="black" stroke-width="1.72" d="M459.04,-444.16C467.58,-509 496.57,-729.14 506.99,-808.3"/>
<polygon fill="black" stroke="black" stroke-width="1.72" points="503.56,-809.04 508.33,-818.5 510.5,-808.13 503.56,-809.04"/>
<text text-anchor="middle" x="421.02" y="-630.03" font-family="Times,serif" font-size="14.00">chromium*68640</text>
</g>
<!-- 4,&#45;1 (Fluid) -->
<g id="node4" class="node">
<title>4,&#45;1 (Fluid)</title>
<ellipse fill="none" stroke="black" cx="61.74" cy="-551.99" rx="61.99" ry="18"/>
<text text-anchor="middle" x="61.74" y="-548.29" font-family="Times,serif" font-size="14.00">4,&#45;1 (Fluid)</text>
</g>
<!-- 4,13 (Chromium processing)&#45;&gt;4,&#45;1 (Fluid) -->
<g id="edge3" class="edge">
<title>4,13 (Chromium processing)&#45;&gt;4,&#45;1 (Fluid)</title>
<path fill="none" stroke="black" stroke-width="0.87" d="M403.8,-442.84C327.77,-467.1 188.42,-511.56 113.18,-535.57"/>
<polygon fill="black" stroke="black" stroke-width="0.87" points="111.91,-532.3 103.44,-538.68 114.03,-538.97 111.91,-532.3"/>
<text text-anchor="middle" x="196.49" y="-493" font-family="Times,serif" font-size="14.00">chromium*34560</text>
</g>
<!-- 4,6 (Circuit substrate and Doped silicon) -->
<g id="node5" class="node">
<title>4,6 (Circuit substrate and Doped silicon)</title>
<ellipse fill="none" stroke="black" cx="383.27" cy="-18" rx="199.56" ry="18"/>
<text text-anchor="middle" x="383.27" y="-14.3" font-family="Times,serif" font-size="14.00">4,6 (Circuit substrate and Doped silicon)</text>
</g>
<!-- 4,13 (Chromium processing)&#45;&gt;4,6 (Circuit substrate and Doped silicon) -->
<g id="edge4" class="edge">
<title>4,13 (Chromium processing)&#45;&gt;4,6 (Circuit substrate and Doped silicon)</title>
<path fill="none" stroke="black" stroke-width="0.5" d="M453.4,-407.92C441.82,-343.55 402.52,-125.02 388.38,-46.44"/>
<polygon fill="black" stroke="black" stroke-width="0.5" points="391.78,-45.53 386.56,-36.31 384.89,-46.77 391.78,-45.53"/>
<text text-anchor="middle" x="358.89" y="-230.98" font-family="Times,serif" font-size="14.00">chromium*20000</text>
</g>
</g>
</svg>
