<?xml version="1.0" encoding="UTF-8" standalone="no"?>
<!DOCTYPE svg PUBLIC "-//W3C//DTD SVG 1.1//EN"
 "http://www.w3.org/Graphics/SVG/1.1/DTD/svg11.dtd">
<!-- Generated by graphviz version 2.43.0 (0)
 -->
<!-- Title: %3 Pages: 1 -->
<svg width="972pt" height="44pt"
 viewBox="0.00 0.00 971.58 44.00" xmlns="http://www.w3.org/2000/svg" xmlns:xlink="http://www.w3.org/1999/xlink">
<g id="graph0" class="graph" transform="scale(1 1) rotate(0) translate(4 40)">
<title>%3</title>
<polygon fill="white" stroke="transparent" points="-4,4 -4,-40 967.58,-40 967.58,4 -4,4"/>
<!-- 3,0 (Zinc Chloride) -->
<g id="node1" class="node">
<title>3,0 (Zinc Chloride)</title>
<ellipse fill="none" stroke="black" cx="508.76" cy="-18" rx="97.48" ry="18"/>
<text text-anchor="middle" x="508.76" y="-14.3" font-family="Times,serif" font-size="14.00">3,0 (Zinc Chloride)</text>
</g>
<!-- 1,7 (Activated Carbon) -->
<g id="node2" class="node">
<title>1,7 (Activated Carbon)</title>
<ellipse fill="none" stroke="black" cx="847.89" cy="-18" rx="115.88" ry="18"/>
<text text-anchor="middle" x="847.89" y="-14.3" font-family="Times,serif" font-size="14.00">1,7 (Activated Carbon)</text>
</g>
<!-- 3,0 (Zinc Chloride)&#45;&gt;1,7 (Activated Carbon) -->
<g id="edge1" class="edge">
<title>3,0 (Zinc Chloride)&#45;&gt;1,7 (Activated Carbon)</title>
<path fill="none" stroke="black" stroke-width="1.19" d="M606.4,-18C642.41,-18 683.74,-18 721.91,-18"/>
<polygon fill="black" stroke="black" stroke-width="1.19" points="722.06,-21.5 732.06,-18 722.06,-14.5 722.06,-21.5"/>
<text text-anchor="middle" x="664.15" y="-6.8" font-family="Times,serif" font-size="14.00">zinc&#45;chloride*32272</text>
</g>
<!-- 2,4 (Formica and Phenolic boards) -->
<g id="node3" class="node">
<title>2,4 (Formica and Phenolic boards)</title>
<ellipse fill="none" stroke="black" cx="169.63" cy="-18" rx="169.77" ry="18"/>
<text text-anchor="middle" x="169.63" y="-14.3" font-family="Times,serif" font-size="14.00">2,4 (Formica and Phenolic boards)</text>
</g>
<!-- 3,0 (Zinc Chloride)&#45;&gt;2,4 (Formica and Phenolic boards) -->
<g id="edge2" class="edge">
<title>3,0 (Zinc Chloride)&#45;&gt;2,4 (Formica and Phenolic boards)</title>
<path fill="none" stroke="black" stroke-width="0.81" d="M411.13,-18C391.7,-18 370.73,-18 349.54,-18"/>
<polygon fill="black" stroke="black" stroke-width="0.81" points="349.46,-14.5 339.46,-18 349.46,-21.5 349.46,-14.5"/>
<text text-anchor="middle" x="344.58" y="-6.8" font-family="Times,serif" font-size="14.00">zinc&#45;chloride*21968</text>
</g>
</g>
</svg>
