<?xml version="1.0" encoding="UTF-8" standalone="no"?>
<!DOCTYPE svg PUBLIC "-//W3C//DTD SVG 1.1//EN"
 "http://www.w3.org/Graphics/SVG/1.1/DTD/svg11.dtd">
<!-- Generated by graphviz version 2.43.0 (0)
 -->
<!-- Title: %3 Pages: 1 -->
<svg width="762pt" height="44pt"
 viewBox="0.00 0.00 761.65 44.00" xmlns="http://www.w3.org/2000/svg" xmlns:xlink="http://www.w3.org/1999/xlink">
<g id="graph0" class="graph" transform="scale(1 1) rotate(0) translate(4 40)">
<title>%3</title>
<polygon fill="white" stroke="transparent" points="-4,4 -4,-40 757.65,-40 757.65,4 -4,4"/>
<!-- 9,5 (Niobium complex 2) -->
<g id="node1" class="node">
<title>9,5 (Niobium complex 2)</title>
<ellipse fill="none" stroke="black" cx="364.47" cy="-18" rx="124.58" ry="18"/>
<text text-anchor="middle" x="364.47" y="-14.3" font-family="Times,serif" font-size="14.00">9,5 (Niobium complex 2)</text>
</g>
<!-- &#45;5,2 (Optical fiber) -->
<g id="node2" class="node">
<title>&#45;5,2 (Optical fiber)</title>
<ellipse fill="none" stroke="black" cx="657.45" cy="-18" rx="96.38" ry="18"/>
<text text-anchor="middle" x="657.45" y="-14.3" font-family="Times,serif" font-size="14.00">&#45;5,2 (Optical fiber)</text>
</g>
<!-- 9,5 (Niobium complex 2)&#45;&gt;&#45;5,2 (Optical fiber) -->
<g id="edge1" class="edge">
<title>9,5 (Niobium complex 2)&#45;&gt;&#45;5,2 (Optical fiber)</title>
<path fill="none" stroke="black" stroke-width="1.77" d="M489.57,-18C510.06,-18 531.12,-18 551.1,-18"/>
<polygon fill="black" stroke="black" stroke-width="1.77" points="551.13,-21.5 561.13,-18 551.13,-14.5 551.13,-21.5"/>
<text text-anchor="middle" x="520.34" y="-6.8" font-family="Times,serif" font-size="14.00">niobium&#45;complex&#45;barrel*7880</text>
</g>
<!-- 0,0 (LE BUS) -->
<g id="node3" class="node">
<title>0,0 (LE BUS)</title>
<ellipse fill="none" stroke="black" cx="71.49" cy="-18" rx="71.49" ry="18"/>
<text text-anchor="middle" x="71.49" y="-14.3" font-family="Times,serif" font-size="14.00">0,0 (LE BUS)</text>
</g>
<!-- 9,5 (Niobium complex 2)&#45;&gt;0,0 (LE BUS) -->
<g id="edge2" class="edge">
<title>9,5 (Niobium complex 2)&#45;&gt;0,0 (LE BUS)</title>
<path fill="none" stroke="black" stroke-width="0.23" d="M239.37,-18C210.27,-18 180.02,-18 153.35,-18"/>
<polygon fill="black" stroke="black" stroke-width="0.23" points="153.31,-14.5 143.31,-18 153.31,-21.5 153.31,-14.5"/>
<text text-anchor="middle" x="143.36" y="-6.8" font-family="Times,serif" font-size="14.00">niobium&#45;complex&#45;barrel*1000</text>
</g>
</g>
</svg>
