<?xml version="1.0" encoding="UTF-8" standalone="no"?>
<!DOCTYPE svg PUBLIC "-//W3C//DTD SVG 1.1//EN"
 "http://www.w3.org/Graphics/SVG/1.1/DTD/svg11.dtd">
<!-- Generated by graphviz version 2.43.0 (0)
 -->
<!-- Title: %3 Pages: 1 -->
<svg width="648pt" height="453pt"
 viewBox="0.00 0.00 648.18 453.45" xmlns="http://www.w3.org/2000/svg" xmlns:xlink="http://www.w3.org/1999/xlink">
<g id="graph0" class="graph" transform="scale(1 1) rotate(0) translate(4 449.45)">
<title>%3</title>
<polygon fill="white" stroke="transparent" points="-4,4 -4,-449.45 644.18,-449.45 644.18,4 -4,4"/>
<!-- 1,11 () -->
<g id="node1" class="node">
<title>1,11 ()</title>
<ellipse fill="none" stroke="black" cx="310.66" cy="-18" rx="40.89" ry="18"/>
<text text-anchor="middle" x="310.66" y="-14.3" font-family="Times,serif" font-size="14.00">1,11 ()</text>
</g>
<!-- 2,1 (Niobium plates) -->
<g id="node2" class="node">
<title>2,1 (Niobium plates)</title>
<ellipse fill="none" stroke="black" cx="105.94" cy="-222.72" rx="105.88" ry="18"/>
<text text-anchor="middle" x="105.94" y="-219.02" font-family="Times,serif" font-size="14.00">2,1 (Niobium plates)</text>
</g>
<!-- 1,11 ()&#45;&gt;2,1 (Niobium plates) -->
<g id="edge1" class="edge">
<title>1,11 ()&#45;&gt;2,1 (Niobium plates)</title>
<path fill="none" stroke="black" stroke-width="0.31" d="M293.91,-34.75C257.97,-70.7 173.28,-155.38 130.95,-197.72"/>
<polygon fill="black" stroke="black" stroke-width="0.31" points="128.4,-195.32 123.8,-204.86 133.35,-200.27 128.4,-195.32"/>
<text text-anchor="middle" x="143.43" y="-120.03" font-family="Times,serif" font-size="14.00">niobium&#45;ore*13120</text>
</g>
<!-- 9,5 (Niobium complex 2) -->
<g id="node4" class="node">
<title>9,5 (Niobium complex 2)</title>
<ellipse fill="none" stroke="black" cx="515.39" cy="-222.72" rx="124.58" ry="18"/>
<text text-anchor="middle" x="515.39" y="-219.02" font-family="Times,serif" font-size="14.00">9,5 (Niobium complex 2)</text>
</g>
<!-- 1,11 ()&#45;&gt;9,5 (Niobium complex 2) -->
<g id="edge3" class="edge">
<title>1,11 ()&#45;&gt;9,5 (Niobium complex 2)</title>
<path fill="none" stroke="black" stroke-width="0.6" d="M327.42,-34.75C363.36,-70.7 448.05,-155.38 490.38,-197.72"/>
<polygon fill="black" stroke="black" stroke-width="0.6" points="487.98,-200.27 497.53,-204.86 492.93,-195.32 487.98,-200.27"/>
<text text-anchor="middle" x="339.9" y="-120.03" font-family="Times,serif" font-size="14.00">niobium&#45;ore*25120</text>
</g>
<!-- 3,1 (Mining Brick) -->
<g id="node3" class="node">
<title>3,1 (Mining Brick)</title>
<ellipse fill="none" stroke="black" cx="310.66" cy="-427.45" rx="94.78" ry="18"/>
<text text-anchor="middle" x="310.66" y="-423.75" font-family="Times,serif" font-size="14.00">3,1 (Mining Brick)</text>
</g>
<!-- 3,1 (Mining Brick)&#45;&gt;2,1 (Niobium plates) -->
<g id="edge2" class="edge">
<title>3,1 (Mining Brick)&#45;&gt;2,1 (Niobium plates)</title>
<path fill="none" stroke="black" stroke-width="1.88" d="M292.85,-409.64C256.33,-373.11 172.86,-289.64 130.94,-247.72"/>
<polygon fill="black" stroke="black" stroke-width="1.88" points="133.4,-245.23 123.85,-240.64 128.45,-250.18 133.4,-245.23"/>
<text text-anchor="middle" x="142.9" y="-332.48" font-family="Times,serif" font-size="14.00">niobium&#45;ore*78960</text>
</g>
<!-- 3,1 (Mining Brick)&#45;&gt;9,5 (Niobium complex 2) -->
<g id="edge4" class="edge">
<title>3,1 (Mining Brick)&#45;&gt;9,5 (Niobium complex 2)</title>
<path fill="none" stroke="black" stroke-width="1.22" d="M328.47,-409.64C365,-373.11 448.47,-289.64 490.39,-247.72"/>
<polygon fill="black" stroke="black" stroke-width="1.22" points="492.88,-250.18 497.47,-240.64 487.93,-245.23 492.88,-250.18"/>
<text text-anchor="middle" x="340.43" y="-332.48" font-family="Times,serif" font-size="14.00">niobium&#45;ore*51200</text>
</g>
</g>
</svg>
