<?xml version="1.0" encoding="UTF-8" standalone="no"?>
<!DOCTYPE svg PUBLIC "-//W3C//DTD SVG 1.1//EN"
 "http://www.w3.org/Graphics/SVG/1.1/DTD/svg11.dtd">
<!-- Generated by graphviz version 2.43.0 (0)
 -->
<!-- Title: %3 Pages: 1 -->
<svg width="2409pt" height="2262pt"
 viewBox="0.00 0.00 2409.43 2262.07" xmlns="http://www.w3.org/2000/svg" xmlns:xlink="http://www.w3.org/1999/xlink">
<g id="graph0" class="graph" transform="scale(1 1) rotate(0) translate(4 2258.07)">
<title>%3</title>
<polygon fill="white" stroke="transparent" points="-4,4 -4,-2258.07 2405.43,-2258.07 2405.43,4 -4,4"/>
<!-- 0,&#45;8 (Raw fibre 2 duplicate) -->
<g id="node1" class="node">
<title>0,&#45;8 (Raw fibre 2 duplicate)</title>
<ellipse fill="none" stroke="black" cx="2145.43" cy="-607.86" rx="137.58" ry="18"/>
<text text-anchor="middle" x="2145.43" y="-604.16" font-family="Times,serif" font-size="14.00">0,&#45;8 (Raw fibre 2 duplicate)</text>
</g>
<!-- 0,0 (LE BUS) -->
<g id="node2" class="node">
<title>0,0 (LE BUS)</title>
<ellipse fill="none" stroke="black" cx="71.49" cy="-1394.4" rx="71.49" ry="18"/>
<text text-anchor="middle" x="71.49" y="-1390.7" font-family="Times,serif" font-size="14.00">0,0 (LE BUS)</text>
</g>
<!-- 0,&#45;8 (Raw fibre 2 duplicate)&#45;&gt;0,0 (LE BUS) -->
<g id="edge1" class="edge">
<title>0,&#45;8 (Raw fibre 2 duplicate)&#45;&gt;0,0 (LE BUS)</title>
<path fill="none" stroke="black" stroke-width="7.79" d="M2100.18,-625.02C1827.52,-728.42 405.49,-1267.73 121.05,-1375.6"/>
<polygon fill="black" stroke="black" stroke-width="7.79" points="118.34,-1369.34 111.41,-1379.26 123.18,-1382.08 118.34,-1369.34"/>
<text text-anchor="middle" x="1047.11" y="-1004.11" font-family="Times,serif" font-size="14.00">raw&#45;fiber*240720</text>
</g>
<!-- &#45;1,7 (Rayon) -->
<g id="node3" class="node">
<title>&#45;1,7 (Rayon)</title>
<ellipse fill="none" stroke="black" cx="71.49" cy="-859.68" rx="66.89" ry="18"/>
<text text-anchor="middle" x="71.49" y="-855.98" font-family="Times,serif" font-size="14.00">&#45;1,7 (Rayon)</text>
</g>
<!-- 0,&#45;8 (Raw fibre 2 duplicate)&#45;&gt;&#45;1,7 (Rayon) -->
<g id="edge2" class="edge">
<title>0,&#45;8 (Raw fibre 2 duplicate)&#45;&gt;&#45;1,7 (Rayon)</title>
<path fill="none" stroke="black" stroke-width="1.98" d="M2044.35,-620.13C1681.95,-664.13 452.94,-813.36 142.95,-851"/>
<polygon fill="black" stroke="black" stroke-width="1.98" points="142.25,-847.56 132.75,-852.24 143.1,-854.51 142.25,-847.56"/>
<text text-anchor="middle" x="1034.65" y="-739.37" font-family="Times,serif" font-size="14.00">raw&#45;fiber*61280</text>
</g>
<!-- 9,&#45;7 (Filtration mediaer) -->
<g id="node5" class="node">
<title>9,&#45;7 (Filtration mediaer)</title>
<ellipse fill="none" stroke="black" cx="760.05" cy="-2171.62" rx="122.68" ry="18"/>
<text text-anchor="middle" x="760.05" y="-2167.92" font-family="Times,serif" font-size="14.00">9,&#45;7 (Filtration mediaer)</text>
</g>
<!-- 0,&#45;8 (Raw fibre 2 duplicate)&#45;&gt;9,&#45;7 (Filtration mediaer) -->
<g id="edge4" class="edge">
<title>0,&#45;8 (Raw fibre 2 duplicate)&#45;&gt;9,&#45;7 (Filtration mediaer)</title>
<path fill="none" stroke="black" stroke-width="1.71" d="M2129.39,-625.96C1987.63,-785.97 950.04,-1957.17 782.79,-2145.96"/>
<polygon fill="black" stroke="black" stroke-width="1.71" points="779.92,-2143.92 775.91,-2153.72 785.16,-2148.56 779.92,-2143.92"/>
<text text-anchor="middle" x="1397.09" y="-1389.76" font-family="Times,serif" font-size="14.00">raw&#45;fiber*52800</text>
</g>
<!-- 4,2 (More fiberboard) -->
<g id="node6" class="node">
<title>4,2 (More fiberboard)</title>
<ellipse fill="none" stroke="black" cx="1290.87" cy="-18" rx="111.28" ry="18"/>
<text text-anchor="middle" x="1290.87" y="-14.3" font-family="Times,serif" font-size="14.00">4,2 (More fiberboard)</text>
</g>
<!-- 0,&#45;8 (Raw fibre 2 duplicate)&#45;&gt;4,2 (More fiberboard) -->
<g id="edge9" class="edge">
<title>0,&#45;8 (Raw fibre 2 duplicate)&#45;&gt;4,2 (More fiberboard)</title>
<path fill="none" stroke="black" stroke-width="0.35" d="M2119.39,-589.88C1995.27,-504.21 1464.04,-137.53 1324.54,-41.24"/>
<polygon fill="black" stroke="black" stroke-width="0.35" points="1326.51,-38.35 1316.3,-35.55 1322.54,-44.11 1326.51,-38.35"/>
<text text-anchor="middle" x="1662.96" y="-319.36" font-family="Times,serif" font-size="14.00">raw&#45;fiber*10720</text>
</g>
<!-- 2,4 (Formica and Phenolic boards) -->
<g id="node8" class="node">
<title>2,4 (Formica and Phenolic boards)</title>
<ellipse fill="none" stroke="black" cx="760.05" cy="-82.45" rx="169.77" ry="18"/>
<text text-anchor="middle" x="760.05" y="-78.75" font-family="Times,serif" font-size="14.00">2,4 (Formica and Phenolic boards)</text>
</g>
<!-- 0,&#45;8 (Raw fibre 2 duplicate)&#45;&gt;2,4 (Formica and Phenolic boards) -->
<g id="edge7" class="edge">
<title>0,&#45;8 (Raw fibre 2 duplicate)&#45;&gt;2,4 (Formica and Phenolic boards)</title>
<path fill="none" stroke="black" stroke-width="0.5" d="M2100.51,-590.82C1894.67,-512.76 1041.84,-189.32 815.44,-103.46"/>
<polygon fill="black" stroke="black" stroke-width="0.5" points="816.35,-100.06 805.76,-99.79 813.87,-106.61 816.35,-100.06"/>
<text text-anchor="middle" x="1398.98" y="-350.94" font-family="Times,serif" font-size="14.00">raw&#45;fiber*15440</text>
</g>
<!-- 4,1 (item=filtration&#45;media Filtration Media) -->
<g id="node10" class="node">
<title>4,1 (item=filtration&#45;media Filtration Media)</title>
<ellipse fill="none" stroke="black" cx="1790.84" cy="-2046.46" rx="214.46" ry="18"/>
<text text-anchor="middle" x="1790.84" y="-2042.76" font-family="Times,serif" font-size="14.00">4,1 (item=filtration&#45;media Filtration Media)</text>
</g>
<!-- 0,&#45;8 (Raw fibre 2 duplicate)&#45;&gt;4,1 (item=filtration&#45;media Filtration Media) -->
<g id="edge12" class="edge">
<title>0,&#45;8 (Raw fibre 2 duplicate)&#45;&gt;4,1 (item=filtration&#45;media Filtration Media)</title>
<path fill="none" stroke="black" stroke-width="3.15" d="M2140.94,-626.05C2103.55,-777.76 1843.72,-1831.94 1797.78,-2018.33"/>
<polygon fill="black" stroke="black" stroke-width="3.15" points="1794.34,-2017.64 1795.35,-2028.19 1801.14,-2019.32 1794.34,-2017.64"/>
<text text-anchor="middle" x="1910.36" y="-1325.99" font-family="Times,serif" font-size="14.00">raw&#45;fiber*97520</text>
</g>
<!-- &#45;3,1 (Logistic science pack, Automation Science) -->
<g id="node11" class="node">
<title>&#45;3,1 (Logistic science pack, Automation Science)</title>
<ellipse fill="none" stroke="black" cx="2145.43" cy="-1646.22" rx="233.96" ry="18"/>
<text text-anchor="middle" x="2145.43" y="-1642.52" font-family="Times,serif" font-size="14.00">&#45;3,1 (Logistic science pack, Automation Science)</text>
</g>
<!-- 0,&#45;8 (Raw fibre 2 duplicate)&#45;&gt;&#45;3,1 (Logistic science pack, Automation Science) -->
<g id="edge13" class="edge">
<title>0,&#45;8 (Raw fibre 2 duplicate)&#45;&gt;&#45;3,1 (Logistic science pack, Automation Science)</title>
<path fill="none" stroke="black" stroke-width="0.1" d="M2145.43,-625.88C2145.43,-748.97 2145.43,-1465.41 2145.43,-1617.75"/>
<polygon fill="black" stroke="black" stroke-width="0.1" points="2141.93,-1618.1 2145.43,-1628.1 2148.93,-1618.1 2141.93,-1618.1"/>
<text text-anchor="middle" x="2090.93" y="-1125.61" font-family="Times,serif" font-size="14.00">raw&#45;fiber*3120</text>
</g>
<!-- &#45;9,&#45;10 (Bedding and cages) -->
<g id="node13" class="node">
<title>&#45;9,&#45;10 (Bedding and cages)</title>
<ellipse fill="none" stroke="black" cx="1790.84" cy="-207.61" rx="134.58" ry="18"/>
<text text-anchor="middle" x="1790.84" y="-203.91" font-family="Times,serif" font-size="14.00">&#45;9,&#45;10 (Bedding and cages)</text>
</g>
<!-- 0,&#45;8 (Raw fibre 2 duplicate)&#45;&gt;&#45;9,&#45;10 (Bedding and cages) -->
<g id="edge33" class="edge">
<title>0,&#45;8 (Raw fibre 2 duplicate)&#45;&gt;&#45;9,&#45;10 (Bedding and cages)</title>
<path fill="none" stroke="black" stroke-width="0.81" d="M2129.5,-589.88C2072.68,-525.75 1879.78,-308 1813.46,-233.14"/>
<polygon fill="black" stroke="black" stroke-width="0.81" points="1815.98,-230.7 1806.72,-225.54 1810.74,-235.35 1815.98,-230.7"/>
<text text-anchor="middle" x="1912.48" y="-415.31" font-family="Times,serif" font-size="14.00">raw&#45;fiber*25040</text>
</g>
<!-- 7,8 (Raw fibre 2) -->
<g id="node4" class="node">
<title>7,8 (Raw fibre 2)</title>
<ellipse fill="none" stroke="black" cx="319.99" cy="-386.21" rx="89.08" ry="18"/>
<text text-anchor="middle" x="319.99" y="-382.51" font-family="Times,serif" font-size="14.00">7,8 (Raw fibre 2)</text>
</g>
<!-- 7,8 (Raw fibre 2)&#45;&gt;0,0 (LE BUS) -->
<g id="edge3" class="edge">
<title>7,8 (Raw fibre 2)&#45;&gt;0,0 (LE BUS)</title>
<path fill="none" stroke="black" stroke-width="1.14" d="M315.46,-404.57C285.43,-526.41 114.98,-1217.98 78.4,-1366.36"/>
<polygon fill="black" stroke="black" stroke-width="1.14" points="75,-1365.54 76.01,-1376.09 81.8,-1367.22 75,-1365.54"/>
<text text-anchor="middle" x="137.93" y="-889.26" font-family="Times,serif" font-size="14.00">raw&#45;fiber*35120</text>
</g>
<!-- 7,8 (Raw fibre 2)&#45;&gt;&#45;1,7 (Rayon) -->
<g id="edge25" class="edge">
<title>7,8 (Raw fibre 2)&#45;&gt;&#45;1,7 (Rayon)</title>
<path fill="none" stroke="black" stroke-width="2" d="M310.55,-404.19C272.61,-476.48 131.08,-746.15 85.64,-832.73"/>
<polygon fill="black" stroke="black" stroke-width="2" points="82.49,-831.2 80.94,-841.68 88.69,-834.45 82.49,-831.2"/>
<text text-anchor="middle" x="139.09" y="-622.26" font-family="Times,serif" font-size="14.00">raw&#45;fiber*61680</text>
</g>
<!-- 7,8 (Raw fibre 2)&#45;&gt;9,&#45;7 (Filtration mediaer) -->
<g id="edge8" class="edge">
<title>7,8 (Raw fibre 2)&#45;&gt;9,&#45;7 (Filtration mediaer)</title>
<path fill="none" stroke="black" stroke-width="2.95" d="M324.49,-404.46C367.22,-577.81 701.03,-1932.15 753.21,-2143.83"/>
<polygon fill="black" stroke="black" stroke-width="2.95" points="749.81,-2144.7 755.6,-2153.57 756.61,-2143.02 749.81,-2144.7"/>
<text text-anchor="middle" x="479.85" y="-1277.95" font-family="Times,serif" font-size="14.00">raw&#45;fiber*91280</text>
</g>
<!-- 7,8 (Raw fibre 2)&#45;&gt;4,2 (More fiberboard) -->
<g id="edge5" class="edge">
<title>7,8 (Raw fibre 2)&#45;&gt;4,2 (More fiberboard)</title>
<path fill="none" stroke="black" stroke-width="0.35" d="M362.02,-370.27C518.12,-311.07 1064.48,-103.86 1237.74,-38.15"/>
<polygon fill="black" stroke="black" stroke-width="0.35" points="1239.05,-41.4 1247.16,-34.58 1236.57,-34.85 1239.05,-41.4"/>
<text text-anchor="middle" x="740.88" y="-208.01" font-family="Times,serif" font-size="14.00">raw&#45;fiber*10800</text>
</g>
<!-- 7,8 (Raw fibre 2)&#45;&gt;2,4 (Formica and Phenolic boards) -->
<g id="edge28" class="edge">
<title>7,8 (Raw fibre 2)&#45;&gt;2,4 (Formica and Phenolic boards)</title>
<path fill="none" stroke="black" stroke-width="0.24" d="M345.23,-368.79C420.01,-317.17 640.47,-165 725.79,-106.11"/>
<polygon fill="black" stroke="black" stroke-width="0.24" points="727.85,-108.94 734.09,-100.38 723.87,-103.18 727.85,-108.94"/>
<text text-anchor="middle" x="481.01" y="-241.25" font-family="Times,serif" font-size="14.00">raw&#45;fiber*7520</text>
</g>
<!-- 7,8 (Raw fibre 2)&#45;&gt;4,1 (item=filtration&#45;media Filtration Media) -->
<g id="edge14" class="edge">
<title>7,8 (Raw fibre 2)&#45;&gt;4,1 (item=filtration&#45;media Filtration Media)</title>
<path fill="none" stroke="black" stroke-width="1.77" d="M335.76,-404.01C481.68,-568.72 1594.97,-1825.36 1768.21,-2020.92"/>
<polygon fill="black" stroke="black" stroke-width="1.77" points="1765.62,-2023.27 1774.87,-2028.43 1770.86,-2018.62 1765.62,-2023.27"/>
<text text-anchor="middle" x="992.99" y="-1216.26" font-family="Times,serif" font-size="14.00">raw&#45;fiber*54560</text>
</g>
<!-- 7,8 (Raw fibre 2)&#45;&gt;&#45;3,1 (Logistic science pack, Automation Science) -->
<g id="edge16" class="edge">
<title>7,8 (Raw fibre 2)&#45;&gt;&#45;3,1 (Logistic science pack, Automation Science)</title>
<path fill="none" stroke="black" stroke-width="0.17" d="M345.1,-403.54C545.08,-541.58 1878,-1461.62 2110.78,-1622.3"/>
<polygon fill="black" stroke="black" stroke-width="0.17" points="2108.99,-1625.32 2119.21,-1628.12 2112.97,-1619.56 2108.99,-1625.32"/>
<text text-anchor="middle" x="1173.44" y="-1016.72" font-family="Times,serif" font-size="14.00">raw&#45;fiber*5280</text>
</g>
<!-- 7,8 (Raw fibre 2)&#45;&gt;&#45;9,&#45;10 (Bedding and cages) -->
<g id="edge24" class="edge">
<title>7,8 (Raw fibre 2)&#45;&gt;&#45;9,&#45;10 (Bedding and cages)</title>
<path fill="none" stroke="black" stroke-width="0.81" d="M396.48,-376.92C639.67,-347.39 1395.74,-255.59 1680.69,-220.99"/>
<polygon fill="black" stroke="black" stroke-width="0.81" points="1681.53,-224.41 1691.04,-219.73 1680.69,-217.46 1681.53,-224.41"/>
<text text-anchor="middle" x="979.59" y="-302.75" font-family="Times,serif" font-size="14.00">raw&#45;fiber*25040</text>
</g>
<!-- &#45;1,8 (Fibre via. moss) -->
<g id="node7" class="node">
<title>&#45;1,8 (Fibre via. moss)</title>
<ellipse fill="none" stroke="black" cx="319.99" cy="-1867.86" rx="109.38" ry="18"/>
<text text-anchor="middle" x="319.99" y="-1864.16" font-family="Times,serif" font-size="14.00">&#45;1,8 (Fibre via. moss)</text>
</g>
<!-- &#45;1,8 (Fibre via. moss)&#45;&gt;0,0 (LE BUS) -->
<g id="edge6" class="edge">
<title>&#45;1,8 (Fibre via. moss)&#45;&gt;0,0 (LE BUS)</title>
<path fill="none" stroke="black" stroke-width="0.74" d="M310.55,-1849.88C272.61,-1777.59 131.08,-1507.92 85.64,-1421.34"/>
<polygon fill="black" stroke="black" stroke-width="0.74" points="88.69,-1419.62 80.94,-1412.4 82.49,-1422.88 88.69,-1419.62"/>
<text text-anchor="middle" x="139.09" y="-1639.41" font-family="Times,serif" font-size="14.00">raw&#45;fiber*22960</text>
</g>
<!-- &#45;1,8 (Fibre via. moss)&#45;&gt;&#45;1,7 (Rayon) -->
<g id="edge11" class="edge">
<title>&#45;1,8 (Fibre via. moss)&#45;&gt;&#45;1,7 (Rayon)</title>
<path fill="none" stroke="black" stroke-width="0.5" d="M315.46,-1849.51C285.43,-1727.66 114.98,-1036.1 78.4,-887.71"/>
<polygon fill="black" stroke="black" stroke-width="0.5" points="81.8,-886.85 76.01,-877.98 75,-888.53 81.8,-886.85"/>
<text text-anchor="middle" x="137.93" y="-1357.41" font-family="Times,serif" font-size="14.00">raw&#45;fiber*15360</text>
</g>
<!-- &#45;1,8 (Fibre via. moss)&#45;&gt;9,&#45;7 (Filtration mediaer) -->
<g id="edge18" class="edge">
<title>&#45;1,8 (Fibre via. moss)&#45;&gt;9,&#45;7 (Filtration mediaer)</title>
<path fill="none" stroke="black" stroke-width="0.84" d="M345.55,-1885.51C420.75,-1937.41 641.23,-2089.6 726.16,-2148.23"/>
<polygon fill="black" stroke="black" stroke-width="0.84" points="724.2,-2151.13 734.42,-2153.93 728.18,-2145.37 724.2,-2151.13"/>
<text text-anchor="middle" x="476.86" y="-2020.67" font-family="Times,serif" font-size="14.00">raw&#45;fiber*25840</text>
</g>
<!-- &#45;1,8 (Fibre via. moss)&#45;&gt;2,4 (Formica and Phenolic boards) -->
<g id="edge32" class="edge">
<title>&#45;1,8 (Fibre via. moss)&#45;&gt;2,4 (Formica and Phenolic boards)</title>
<path fill="none" stroke="black" stroke-width="0.14" d="M324.49,-1849.61C367.22,-1676.26 701.03,-321.92 753.21,-110.24"/>
<polygon fill="black" stroke="black" stroke-width="0.14" points="756.61,-111.05 755.6,-100.51 749.81,-109.38 756.61,-111.05"/>
<text text-anchor="middle" x="484.35" y="-983.73" font-family="Times,serif" font-size="14.00">raw&#45;fiber*4480</text>
</g>
<!-- &#45;1,8 (Fibre via. moss)&#45;&gt;4,1 (item=filtration&#45;media Filtration Media) -->
<g id="edge23" class="edge">
<title>&#45;1,8 (Fibre via. moss)&#45;&gt;4,1 (item=filtration&#45;media Filtration Media)</title>
<path fill="none" stroke="black" stroke-width="0.49" d="M408.14,-1878.57C656.51,-1908.73 1363.17,-1994.53 1658.54,-2030.39"/>
<polygon fill="black" stroke="black" stroke-width="0.49" points="1658.53,-2033.92 1668.88,-2031.65 1659.37,-2026.97 1658.53,-2033.92"/>
<text text-anchor="middle" x="974.34" y="-1958.28" font-family="Times,serif" font-size="14.00">raw&#45;fiber*15040</text>
</g>
<!-- 6,2 (Raw Fiber&#39;s cojoined twin) -->
<g id="node9" class="node">
<title>6,2 (Raw Fiber&#39;s cojoined twin)</title>
<ellipse fill="none" stroke="black" cx="1290.87" cy="-2236.07" rx="155.17" ry="18"/>
<text text-anchor="middle" x="1290.87" y="-2232.37" font-family="Times,serif" font-size="14.00">6,2 (Raw Fiber&#39;s cojoined twin)</text>
</g>
<!-- 6,2 (Raw Fiber&#39;s cojoined twin)&#45;&gt;0,0 (LE BUS) -->
<g id="edge22" class="edge">
<title>6,2 (Raw Fiber&#39;s cojoined twin)&#45;&gt;0,0 (LE BUS)</title>
<path fill="none" stroke="black" stroke-width="0.2" d="M1265.12,-2218.3C1108.1,-2109.91 280.3,-1538.53 104.38,-1417.1"/>
<polygon fill="black" stroke="black" stroke-width="0.2" points="106.25,-1414.13 96.03,-1411.33 102.28,-1419.9 106.25,-1414.13"/>
<text text-anchor="middle" x="630.25" y="-1821.5" font-family="Times,serif" font-size="14.00">raw&#45;fiber*6096</text>
</g>
<!-- 6,2 (Raw Fiber&#39;s cojoined twin)&#45;&gt;&#45;1,7 (Rayon) -->
<g id="edge15" class="edge">
<title>6,2 (Raw Fiber&#39;s cojoined twin)&#45;&gt;&#45;1,7 (Rayon)</title>
<path fill="none" stroke="black" stroke-width="1.51" d="M1275.01,-2218.17C1144.48,-2070.83 248.62,-1059.61 94.15,-885.25"/>
<polygon fill="black" stroke="black" stroke-width="1.51" points="96.61,-882.75 87.36,-877.59 91.37,-887.4 96.61,-882.75"/>
<text text-anchor="middle" x="625.58" y="-1555.51" font-family="Times,serif" font-size="14.00">raw&#45;fiber*46800</text>
</g>
<!-- 6,2 (Raw Fiber&#39;s cojoined twin)&#45;&gt;9,&#45;7 (Filtration mediaer) -->
<g id="edge21" class="edge">
<title>6,2 (Raw Fiber&#39;s cojoined twin)&#45;&gt;9,&#45;7 (Filtration mediaer)</title>
<path fill="none" stroke="black" stroke-width="0.31" d="M1183.45,-2223.03C1090.6,-2211.75 957.18,-2195.55 865.04,-2184.37"/>
<polygon fill="black" stroke="black" stroke-width="0.31" points="865.21,-2180.86 854.86,-2183.13 864.36,-2187.81 865.21,-2180.86"/>
<text text-anchor="middle" x="969.75" y="-2207.5" font-family="Times,serif" font-size="14.00">raw&#45;fiber*9648</text>
</g>
<!-- 6,2 (Raw Fiber&#39;s cojoined twin)&#45;&gt;2,4 (Formica and Phenolic boards) -->
<g id="edge10" class="edge">
<title>6,2 (Raw Fiber&#39;s cojoined twin)&#45;&gt;2,4 (Formica and Phenolic boards)</title>
<path fill="none" stroke="black" stroke-width="0.25" d="M1286.36,-2217.78C1238.57,-2023.86 825.7,-348.8 766.99,-110.59"/>
<polygon fill="black" stroke="black" stroke-width="0.25" points="770.33,-109.51 764.54,-100.64 763.53,-111.18 770.33,-109.51"/>
<text text-anchor="middle" x="972.18" y="-1167.99" font-family="Times,serif" font-size="14.00">raw&#45;fiber*7840</text>
</g>
<!-- 6,2 (Raw Fiber&#39;s cojoined twin)&#45;&gt;4,1 (item=filtration&#45;media Filtration Media) -->
<g id="edge27" class="edge">
<title>6,2 (Raw Fiber&#39;s cojoined twin)&#45;&gt;4,1 (item=filtration&#45;media Filtration Media)</title>
<path fill="none" stroke="black" stroke-width="0.08" d="M1336.57,-2218.74C1428.37,-2183.93 1634.92,-2105.59 1734.74,-2067.74"/>
<polygon fill="black" stroke="black" stroke-width="0.08" points="1736.24,-2070.91 1744.35,-2064.09 1733.76,-2064.37 1736.24,-2070.91"/>
<text text-anchor="middle" x="1481.15" y="-2147.04" font-family="Times,serif" font-size="14.00">raw&#45;fiber*2512</text>
</g>
<!-- 6,2 (Raw Fiber&#39;s cojoined twin)&#45;&gt;&#45;3,1 (Logistic science pack, Automation Science) -->
<g id="edge19" class="edge">
<title>6,2 (Raw Fiber&#39;s cojoined twin)&#45;&gt;&#45;3,1 (Logistic science pack, Automation Science)</title>
<path fill="none" stroke="black" stroke-width="0.03" d="M1316.92,-2218.1C1440.76,-2132.62 1969.92,-1767.36 2110.84,-1670.09"/>
<polygon fill="black" stroke="black" stroke-width="0.03" points="2112.93,-1672.9 2119.17,-1664.34 2108.95,-1667.14 2112.93,-1672.9"/>
<text text-anchor="middle" x="1659.38" y="-1947.9" font-family="Times,serif" font-size="14.00">raw&#45;fiber*1008</text>
</g>
<!-- 4,5 (Yet More Raw Fiber) -->
<g id="node12" class="node">
<title>4,5 (Yet More Raw Fiber)</title>
<ellipse fill="none" stroke="black" cx="2273.39" cy="-1127.04" rx="128.08" ry="18"/>
<text text-anchor="middle" x="2273.39" y="-1123.34" font-family="Times,serif" font-size="14.00">4,5 (Yet More Raw Fiber)</text>
</g>
<!-- 4,5 (Yet More Raw Fiber)&#45;&gt;0,0 (LE BUS) -->
<g id="edge30" class="edge">
<title>4,5 (Yet More Raw Fiber)&#45;&gt;0,0 (LE BUS)</title>
<path fill="none" stroke="black" stroke-width="0.34" d="M2176.3,-1138.83C1804.65,-1183.95 476.8,-1345.18 146.37,-1385.3"/>
<polygon fill="black" stroke="black" stroke-width="0.34" points="145.46,-1381.89 135.96,-1386.57 146.31,-1388.84 145.46,-1381.89"/>
<text text-anchor="middle" x="1102.33" y="-1265.87" font-family="Times,serif" font-size="14.00">raw&#45;fiber*10592</text>
</g>
<!-- 4,5 (Yet More Raw Fiber)&#45;&gt;&#45;1,7 (Rayon) -->
<g id="edge20" class="edge">
<title>4,5 (Yet More Raw Fiber)&#45;&gt;&#45;1,7 (Rayon)</title>
<path fill="none" stroke="black" stroke-width="0.49" d="M2176.3,-1115.25C1803.31,-1069.96 467.24,-907.73 142.84,-868.34"/>
<polygon fill="black" stroke="black" stroke-width="0.49" points="142.98,-864.83 132.63,-867.1 142.14,-871.78 142.98,-864.83"/>
<text text-anchor="middle" x="1100.57" y="-980.59" font-family="Times,serif" font-size="14.00">raw&#45;fiber*15040</text>
</g>
<!-- 4,5 (Yet More Raw Fiber)&#45;&gt;9,&#45;7 (Filtration mediaer) -->
<g id="edge17" class="edge">
<title>4,5 (Yet More Raw Fiber)&#45;&gt;9,&#45;7 (Filtration mediaer)</title>
<path fill="none" stroke="black" stroke-width="0.5" d="M2247.76,-1144.73C2068.08,-1268.75 998.59,-2006.97 793.9,-2148.25"/>
<polygon fill="black" stroke="black" stroke-width="0.5" points="791.87,-2145.41 785.63,-2153.97 795.84,-2151.17 791.87,-2145.41"/>
<text text-anchor="middle" x="1461.83" y="-1650.29" font-family="Times,serif" font-size="14.00">raw&#45;fiber*15472</text>
</g>
<!-- 4,5 (Yet More Raw Fiber)&#45;&gt;4,2 (More fiberboard) -->
<g id="edge29" class="edge">
<title>4,5 (Yet More Raw Fiber)&#45;&gt;4,2 (More fiberboard)</title>
<path fill="none" stroke="black" stroke-width="0.07" d="M2257.56,-1109.17C2143.59,-980.52 1448.98,-196.46 1313.7,-43.76"/>
<polygon fill="black" stroke="black" stroke-width="0.07" points="1316.23,-41.34 1306.98,-36.18 1310.99,-45.99 1316.23,-41.34"/>
<text text-anchor="middle" x="1731.13" y="-580.26" font-family="Times,serif" font-size="14.00">raw&#45;fiber*2016</text>
</g>
<!-- 4,5 (Yet More Raw Fiber)&#45;&gt;4,1 (item=filtration&#45;media Filtration Media) -->
<g id="edge31" class="edge">
<title>4,5 (Yet More Raw Fiber)&#45;&gt;4,1 (item=filtration&#45;media Filtration Media)</title>
<path fill="none" stroke="black" stroke-width="0.66" d="M2263.97,-1144.99C2204.16,-1258.95 1877.59,-1881.19 1805.1,-2019.3"/>
<polygon fill="black" stroke="black" stroke-width="0.66" points="1801.88,-2017.91 1800.33,-2028.39 1808.07,-2021.16 1801.88,-2017.91"/>
<text text-anchor="middle" x="1975.54" y="-1585.94" font-family="Times,serif" font-size="14.00">raw&#45;fiber*20432</text>
</g>
<!-- 4,5 (Yet More Raw Fiber)&#45;&gt;&#45;3,1 (Logistic science pack, Automation Science) -->
<g id="edge26" class="edge">
<title>4,5 (Yet More Raw Fiber)&#45;&gt;&#45;3,1 (Logistic science pack, Automation Science)</title>
<path fill="none" stroke="black" stroke-width="0.03" d="M2268.91,-1145.21C2249.85,-1222.54 2175.41,-1524.56 2152.31,-1618.3"/>
<polygon fill="black" stroke="black" stroke-width="0.03" points="2148.87,-1617.64 2149.87,-1628.19 2155.66,-1619.32 2148.87,-1617.64"/>
<text text-anchor="middle" x="2156.11" y="-1385.56" font-family="Times,serif" font-size="14.00">raw&#45;fiber*1024</text>
</g>
</g>
</svg>
