<?xml version="1.0" encoding="UTF-8" standalone="no"?>
<!DOCTYPE svg PUBLIC "-//W3C//DTD SVG 1.1//EN"
 "http://www.w3.org/Graphics/SVG/1.1/DTD/svg11.dtd">
<!-- Generated by graphviz version 2.43.0 (0)
 -->
<!-- Title: %3 Pages: 1 -->
<svg width="1294pt" height="918pt"
 viewBox="0.00 0.00 1293.54 917.73" xmlns="http://www.w3.org/2000/svg" xmlns:xlink="http://www.w3.org/1999/xlink">
<g id="graph0" class="graph" transform="scale(1 1) rotate(0) translate(4 913.73)">
<title>%3</title>
<polygon fill="white" stroke="transparent" points="-4,4 -4,-913.73 1289.54,-913.73 1289.54,4 -4,4"/>
<!-- &#45;1,5 (Train stops for bus brick) -->
<g id="node1" class="node">
<title>&#45;1,5 (Train stops for bus brick)</title>
<ellipse fill="none" stroke="black" cx="674.74" cy="-451.98" rx="152.17" ry="18"/>
<text text-anchor="middle" x="674.74" y="-448.28" font-family="Times,serif" font-size="14.00">&#45;1,5 (Train stops for bus brick)</text>
</g>
<!-- &#45;3,8 (Urea) -->
<g id="node2" class="node">
<title>&#45;3,8 (Urea)</title>
<ellipse fill="none" stroke="black" cx="1224.44" cy="-451.98" rx="61.19" ry="18"/>
<text text-anchor="middle" x="1224.44" y="-448.28" font-family="Times,serif" font-size="14.00">&#45;3,8 (Urea)</text>
</g>
<!-- &#45;1,5 (Train stops for bus brick)&#45;&gt;&#45;3,8 (Urea) -->
<g id="edge1" class="edge">
<title>&#45;1,5 (Train stops for bus brick)&#45;&gt;&#45;3,8 (Urea)</title>
<path fill="none" stroke="black" stroke-width="1.59" d="M827.13,-451.98C933.63,-451.98 1070.95,-451.98 1153.11,-451.98"/>
<polygon fill="black" stroke="black" stroke-width="1.59" points="1153.34,-455.48 1163.34,-451.98 1153.34,-448.48 1153.34,-455.48"/>
<text text-anchor="middle" x="945.62" y="-455.78" font-family="Times,serif" font-size="14.00">moss*14464</text>
</g>
<!-- 0,10 (item=meat Meat) -->
<g id="node3" class="node">
<title>0,10 (item=meat Meat)</title>
<ellipse fill="none" stroke="black" cx="1004.59" cy="-891.73" rx="120.48" ry="18"/>
<text text-anchor="middle" x="1004.59" y="-888.03" font-family="Times,serif" font-size="14.00">0,10 (item=meat Meat)</text>
</g>
<!-- &#45;1,5 (Train stops for bus brick)&#45;&gt;0,10 (item=meat Meat) -->
<g id="edge2" class="edge">
<title>&#45;1,5 (Train stops for bus brick)&#45;&gt;0,10 (item=meat Meat)</title>
<path fill="none" stroke="black" stroke-width="1.85" d="M688.28,-470.04C739.86,-538.81 924.16,-784.51 984.97,-865.57"/>
<polygon fill="black" stroke="black" stroke-width="1.85" points="982.31,-867.86 991.11,-873.76 987.91,-863.66 982.31,-867.86"/>
<text text-anchor="middle" x="792.13" y="-671.61" font-family="Times,serif" font-size="14.00">moss*16848</text>
</g>
<!-- &#45;7,&#45;4 (Isomer&#39;s Slaughterhouse and Daycare Centre, Bone Meal) -->
<g id="node4" class="node">
<title>&#45;7,&#45;4 (Isomer&#39;s Slaughterhouse and Daycare Centre, Bone Meal)</title>
<ellipse fill="none" stroke="black" cx="307.42" cy="-860.95" rx="307.35" ry="18"/>
<text text-anchor="middle" x="307.42" y="-857.25" font-family="Times,serif" font-size="14.00">&#45;7,&#45;4 (Isomer&#39;s Slaughterhouse and Daycare Centre, Bone Meal)</text>
</g>
<!-- &#45;1,5 (Train stops for bus brick)&#45;&gt;&#45;7,&#45;4 (Isomer&#39;s Slaughterhouse and Daycare Centre, Bone Meal) -->
<g id="edge3" class="edge">
<title>&#45;1,5 (Train stops for bus brick)&#45;&gt;&#45;7,&#45;4 (Isomer&#39;s Slaughterhouse and Daycare Centre, Bone Meal)</title>
<path fill="none" stroke="black" stroke-width="1.13" d="M658.48,-470.08C599.94,-535.26 399.74,-758.17 330.9,-834.82"/>
<polygon fill="black" stroke="black" stroke-width="1.13" points="327.99,-832.82 323.91,-842.6 333.19,-837.5 327.99,-832.82"/>
<text text-anchor="middle" x="450.19" y="-656.25" font-family="Times,serif" font-size="14.00">moss*10288</text>
</g>
<!-- &#45;1,6 (Flimble&#39;s Slaughterhouse and Daycare Centre, Auog Products) -->
<g id="node5" class="node">
<title>&#45;1,6 (Flimble&#39;s Slaughterhouse and Daycare Centre, Auog Products)</title>
<ellipse fill="none" stroke="black" cx="337.34" cy="-18" rx="325.74" ry="18"/>
<text text-anchor="middle" x="337.34" y="-14.3" font-family="Times,serif" font-size="14.00">&#45;1,6 (Flimble&#39;s Slaughterhouse and Daycare Centre, Auog Products)</text>
</g>
<!-- &#45;1,5 (Train stops for bus brick)&#45;&gt;&#45;1,6 (Flimble&#39;s Slaughterhouse and Daycare Centre, Auog Products) -->
<g id="edge4" class="edge">
<title>&#45;1,5 (Train stops for bus brick)&#45;&gt;&#45;1,6 (Flimble&#39;s Slaughterhouse and Daycare Centre, Auog Products)</title>
<path fill="none" stroke="black" stroke-width="0.22" d="M660.67,-433.89C607.72,-365.78 420.28,-124.69 357.78,-44.3"/>
<polygon fill="black" stroke="black" stroke-width="0.22" points="360.36,-41.92 351.46,-36.17 354.84,-46.22 360.36,-41.92"/>
<text text-anchor="middle" x="469.23" y="-242.89" font-family="Times,serif" font-size="14.00">moss*2000</text>
</g>
<!-- 0,9 (Auog Brains) -->
<g id="node6" class="node">
<title>0,9 (Auog Brains)</title>
<ellipse fill="none" stroke="black" cx="1027.01" cy="-29.98" rx="91.78" ry="18"/>
<text text-anchor="middle" x="1027.01" y="-26.28" font-family="Times,serif" font-size="14.00">0,9 (Auog Brains)</text>
</g>
<!-- &#45;1,5 (Train stops for bus brick)&#45;&gt;0,9 (Auog Brains) -->
<g id="edge5" class="edge">
<title>&#45;1,5 (Train stops for bus brick)&#45;&gt;0,9 (Auog Brains)</title>
<path fill="none" stroke="black" stroke-width="0.22" d="M689.87,-433.85C745.65,-367.03 939.87,-134.36 1005.3,-55.98"/>
<polygon fill="black" stroke="black" stroke-width="0.22" points="1008.21,-57.97 1011.93,-48.05 1002.83,-53.48 1008.21,-57.97"/>
<text text-anchor="middle" x="807.59" y="-248.72" font-family="Times,serif" font-size="14.00">moss*2016</text>
</g>
</g>
</svg>
