<?xml version="1.0" encoding="UTF-8" standalone="no"?>
<!DOCTYPE svg PUBLIC "-//W3C//DTD SVG 1.1//EN"
 "http://www.w3.org/Graphics/SVG/1.1/DTD/svg11.dtd">
<!-- Generated by graphviz version 2.43.0 (0)
 -->
<!-- Title: %3 Pages: 1 -->
<svg width="761pt" height="44pt"
 viewBox="0.00 0.00 761.00 44.00" xmlns="http://www.w3.org/2000/svg" xmlns:xlink="http://www.w3.org/1999/xlink">
<g id="graph0" class="graph" transform="scale(1 1) rotate(0) translate(4 40)">
<title>%3</title>
<polygon fill="white" stroke="transparent" points="-4,4 -4,-40 757,-40 757,4 -4,4"/>
<!-- 4,3 (item=nexelit&#45;plate Nexelit platery) -->
<g id="node1" class="node">
<title>4,3 (item=nexelit&#45;plate Nexelit platery)</title>
<ellipse fill="none" stroke="black" cx="389.82" cy="-18" rx="194.17" ry="18"/>
<text text-anchor="middle" x="389.82" y="-14.3" font-family="Times,serif" font-size="14.00">4,3 (item=nexelit&#45;plate Nexelit platery)</text>
</g>
<!-- 2,7 () -->
<g id="node2" class="node">
<title>2,7 ()</title>
<ellipse fill="none" stroke="black" cx="717.9" cy="-18" rx="35.19" ry="18"/>
<text text-anchor="middle" x="717.9" y="-14.3" font-family="Times,serif" font-size="14.00">2,7 ()</text>
</g>
<!-- 4,3 (item=nexelit&#45;plate Nexelit platery)&#45;&gt;2,7 () -->
<g id="edge1" class="edge">
<title>4,3 (item=nexelit&#45;plate Nexelit platery)&#45;&gt;2,7 ()</title>
<path fill="none" stroke="black" stroke-width="1.61" d="M584.46,-18C617.39,-18 648.62,-18 672.57,-18"/>
<polygon fill="black" stroke="black" stroke-width="1.61" points="672.71,-21.5 682.71,-18 672.71,-14.5 672.71,-21.5"/>
<text text-anchor="middle" x="628.51" y="-6.8" font-family="Times,serif" font-size="14.00">nexelit&#45;plate*8304</text>
</g>
<!-- 4,&#45;1 (Fluid) -->
<g id="node3" class="node">
<title>4,&#45;1 (Fluid)</title>
<ellipse fill="none" stroke="black" cx="61.74" cy="-18" rx="61.99" ry="18"/>
<text text-anchor="middle" x="61.74" y="-14.3" font-family="Times,serif" font-size="14.00">4,&#45;1 (Fluid)</text>
</g>
<!-- 4,3 (item=nexelit&#45;plate Nexelit platery)&#45;&gt;4,&#45;1 (Fluid) -->
<g id="edge2" class="edge">
<title>4,3 (item=nexelit&#45;plate Nexelit platery)&#45;&gt;4,&#45;1 (Fluid)</title>
<path fill="none" stroke="black" stroke-width="0.39" d="M195.19,-18C173.42,-18 152.39,-18 133.72,-18"/>
<polygon fill="black" stroke="black" stroke-width="0.39" points="133.6,-14.5 123.6,-18 133.6,-21.5 133.6,-14.5"/>
<text text-anchor="middle" x="131.2" y="-6.8" font-family="Times,serif" font-size="14.00">nexelit&#45;plate*2032</text>
</g>
</g>
</svg>
