<?xml version="1.0" encoding="UTF-8" standalone="no"?>
<!DOCTYPE svg PUBLIC "-//W3C//DTD SVG 1.1//EN"
 "http://www.w3.org/Graphics/SVG/1.1/DTD/svg11.dtd">
<!-- Generated by graphviz version 2.43.0 (0)
 -->
<!-- Title: %3 Pages: 1 -->
<svg width="1644pt" height="1538pt"
 viewBox="0.00 0.00 1644.16 1538.16" xmlns="http://www.w3.org/2000/svg" xmlns:xlink="http://www.w3.org/1999/xlink">
<g id="graph0" class="graph" transform="scale(1 1) rotate(0) translate(4 1534.16)">
<title>%3</title>
<polygon fill="white" stroke="transparent" points="-4,4 -4,-1534.16 1640.16,-1534.16 1640.16,4 -4,4"/>
<!-- 1,&#45;1 (fluid=molten&#45;glass Glass, When space, make quartz separate with regular priority, Quartz) -->
<g id="node1" class="node">
<title>1,&#45;1 (fluid=molten&#45;glass Glass, When space, make quartz separate with regular priority, Quartz)</title>
<ellipse fill="none" stroke="black" cx="1021.88" cy="-18" rx="457.62" ry="18"/>
<text text-anchor="middle" x="1021.88" y="-14.3" font-family="Times,serif" font-size="14.00">1,&#45;1 (fluid=molten&#45;glass Glass, When space, make quartz separate with regular priority, Quartz)</text>
</g>
<!-- &#45;4,0 (item=lens Optical sets) -->
<g id="node2" class="node">
<title>&#45;4,0 (item=lens Optical sets)</title>
<ellipse fill="none" stroke="black" cx="143.64" cy="-303.36" rx="143.77" ry="18"/>
<text text-anchor="middle" x="143.64" y="-299.66" font-family="Times,serif" font-size="14.00">&#45;4,0 (item=lens Optical sets)</text>
</g>
<!-- 1,&#45;1 (fluid=molten&#45;glass Glass, When space, make quartz separate with regular priority, Quartz)&#45;&gt;&#45;4,0 (item=lens Optical sets) -->
<g id="edge1" class="edge">
<title>1,&#45;1 (fluid=molten&#45;glass Glass, When space, make quartz separate with regular priority, Quartz)&#45;&gt;&#45;4,0 (item=lens Optical sets)</title>
<path fill="none" stroke="black" stroke-width="1.87" d="M966.61,-35.96C810.79,-86.59 368.72,-230.22 205.33,-283.31"/>
<polygon fill="black" stroke="black" stroke-width="1.87" points="203.87,-280.11 195.44,-286.53 206.03,-286.77 203.87,-280.11"/>
<text text-anchor="middle" x="490.47" y="-163.44" font-family="Times,serif" font-size="14.00">molten&#45;glass&#45;barrel*10837</text>
</g>
<!-- 0,0 (LE BUS) -->
<g id="node4" class="node">
<title>0,0 (LE BUS)</title>
<ellipse fill="none" stroke="black" cx="1564.66" cy="-765.08" rx="71.49" ry="18"/>
<text text-anchor="middle" x="1564.66" y="-761.38" font-family="Times,serif" font-size="14.00">0,0 (LE BUS)</text>
</g>
<!-- 1,&#45;1 (fluid=molten&#45;glass Glass, When space, make quartz separate with regular priority, Quartz)&#45;&gt;0,0 (LE BUS) -->
<g id="edge5" class="edge">
<title>1,&#45;1 (fluid=molten&#45;glass Glass, When space, make quartz separate with regular priority, Quartz)&#45;&gt;0,0 (LE BUS)</title>
<path fill="none" stroke="black" stroke-width="2.17" d="M1035.03,-36.1C1107.68,-136.1 1459.87,-620.84 1545.75,-739.05"/>
<polygon fill="black" stroke="black" stroke-width="2.17" points="1542.98,-741.19 1551.69,-747.22 1548.64,-737.07 1542.98,-741.19"/>
<text text-anchor="middle" x="1194.89" y="-391.37" font-family="Times,serif" font-size="14.00">molten&#45;glass&#45;barrel*12576</text>
</g>
<!-- 2,5 (Simple Circuits) -->
<g id="node5" class="node">
<title>2,5 (Simple Circuits)</title>
<ellipse fill="none" stroke="black" cx="143.64" cy="-1226.8" rx="106.68" ry="18"/>
<text text-anchor="middle" x="143.64" y="-1223.1" font-family="Times,serif" font-size="14.00">2,5 (Simple Circuits)</text>
</g>
<!-- 1,&#45;1 (fluid=molten&#45;glass Glass, When space, make quartz separate with regular priority, Quartz)&#45;&gt;2,5 (Simple Circuits) -->
<g id="edge4" class="edge">
<title>1,&#45;1 (fluid=molten&#45;glass Glass, When space, make quartz separate with regular priority, Quartz)&#45;&gt;2,5 (Simple Circuits)</title>
<path fill="none" stroke="black" stroke-width="0.41" d="M1008.78,-36.03C909.94,-172.08 281.74,-1036.71 162.99,-1200.16"/>
<polygon fill="black" stroke="black" stroke-width="0.41" points="159.86,-1198.52 156.81,-1208.67 165.52,-1202.63 159.86,-1198.52"/>
<text text-anchor="middle" x="494.89" y="-621.89" font-family="Times,serif" font-size="14.00">molten&#45;glass&#45;barrel*2397</text>
</g>
<!-- 4,12 (Molten Glass) -->
<g id="node3" class="node">
<title>4,12 (Molten Glass)</title>
<ellipse fill="none" stroke="black" cx="1021.88" cy="-1512.16" rx="102.08" ry="18"/>
<text text-anchor="middle" x="1021.88" y="-1508.46" font-family="Times,serif" font-size="14.00">4,12 (Molten Glass)</text>
</g>
<!-- 4,12 (Molten Glass)&#45;&gt;&#45;4,0 (item=lens Optical sets) -->
<g id="edge3" class="edge">
<title>4,12 (Molten Glass)&#45;&gt;&#45;4,0 (item=lens Optical sets)</title>
<path fill="none" stroke="black" stroke-width="0.28" d="M1008.78,-1494.13C909.94,-1358.08 281.74,-493.44 162.99,-330"/>
<polygon fill="black" stroke="black" stroke-width="0.28" points="165.52,-327.52 156.81,-321.49 159.86,-331.64 165.52,-327.52"/>
<text text-anchor="middle" x="494.89" y="-915.86" font-family="Times,serif" font-size="14.00">molten&#45;glass&#45;barrel*1640</text>
</g>
<!-- 4,12 (Molten Glass)&#45;&gt;0,0 (LE BUS) -->
<g id="edge2" class="edge">
<title>4,12 (Molten Glass)&#45;&gt;0,0 (LE BUS)</title>
<path fill="none" stroke="black" stroke-width="1.1" d="M1035.03,-1494.06C1107.68,-1394.06 1459.87,-909.31 1545.75,-791.11"/>
<polygon fill="black" stroke="black" stroke-width="1.1" points="1548.64,-793.08 1551.69,-782.94 1542.98,-788.97 1548.64,-793.08"/>
<text text-anchor="middle" x="1199.39" y="-1146.38" font-family="Times,serif" font-size="14.00">molten&#45;glass&#45;barrel*6360</text>
</g>
<!-- 4,12 (Molten Glass)&#45;&gt;2,5 (Simple Circuits) -->
<g id="edge6" class="edge">
<title>4,12 (Molten Glass)&#45;&gt;2,5 (Simple Circuits)</title>
<path fill="none" stroke="black" stroke-width="0.17" d="M973.1,-1496.3C822.71,-1447.44 366.54,-1299.22 202.88,-1246.05"/>
<polygon fill="black" stroke="black" stroke-width="0.17" points="203.58,-1242.59 192.99,-1242.83 201.41,-1249.25 203.58,-1242.59"/>
<text text-anchor="middle" x="496.99" y="-1374.98" font-family="Times,serif" font-size="14.00">molten&#45;glass&#45;barrel*1000</text>
</g>
</g>
</svg>
