<?xml version="1.0" encoding="UTF-8" standalone="no"?>
<!DOCTYPE svg PUBLIC "-//W3C//DTD SVG 1.1//EN"
 "http://www.w3.org/Graphics/SVG/1.1/DTD/svg11.dtd">
<!-- Generated by graphviz version 2.43.0 (0)
 -->
<!-- Title: %3 Pages: 1 -->
<svg width="704pt" height="44pt"
 viewBox="0.00 0.00 704.45 44.00" xmlns="http://www.w3.org/2000/svg" xmlns:xlink="http://www.w3.org/1999/xlink">
<g id="graph0" class="graph" transform="scale(1 1) rotate(0) translate(4 40)">
<title>%3</title>
<polygon fill="white" stroke="transparent" points="-4,4 -4,-40 700.45,-40 700.45,4 -4,4"/>
<!-- &#45;2,0 (Glassware) -->
<g id="node1" class="node">
<title>&#45;2,0 (Glassware)</title>
<ellipse fill="none" stroke="black" cx="363.82" cy="-18" rx="86.38" ry="18"/>
<text text-anchor="middle" x="363.82" y="-14.3" font-family="Times,serif" font-size="14.00">&#45;2,0 (Glassware)</text>
</g>
<!-- 0,0 (LE BUS) -->
<g id="node2" class="node">
<title>0,0 (LE BUS)</title>
<ellipse fill="none" stroke="black" cx="624.96" cy="-18" rx="71.49" ry="18"/>
<text text-anchor="middle" x="624.96" y="-14.3" font-family="Times,serif" font-size="14.00">0,0 (LE BUS)</text>
</g>
<!-- &#45;2,0 (Glassware)&#45;&gt;0,0 (LE BUS) -->
<g id="edge1" class="edge">
<title>&#45;2,0 (Glassware)&#45;&gt;0,0 (LE BUS)</title>
<path fill="none" stroke="black" stroke-width="1.77" d="M450.41,-18C480.3,-18 513.66,-18 543.14,-18"/>
<polygon fill="black" stroke="black" stroke-width="1.77" points="543.4,-21.5 553.4,-18 543.4,-14.5 543.4,-21.5"/>
<text text-anchor="middle" x="496.78" y="-6.8" font-family="Times,serif" font-size="14.00">flask*38191</text>
</g>
<!-- &#45;8,&#45;11 (Fetal serum) -->
<g id="node3" class="node">
<title>&#45;8,&#45;11 (Fetal serum)</title>
<ellipse fill="none" stroke="black" cx="102.69" cy="-18" rx="102.88" ry="18"/>
<text text-anchor="middle" x="102.69" y="-14.3" font-family="Times,serif" font-size="14.00">&#45;8,&#45;11 (Fetal serum)</text>
</g>
<!-- &#45;2,0 (Glassware)&#45;&gt;&#45;8,&#45;11 (Fetal serum) -->
<g id="edge2" class="edge">
<title>&#45;2,0 (Glassware)&#45;&gt;&#45;8,&#45;11 (Fetal serum)</title>
<path fill="none" stroke="black" stroke-width="0.23" d="M277.23,-18C257.58,-18 236.43,-18 215.87,-18"/>
<polygon fill="black" stroke="black" stroke-width="0.23" points="215.83,-14.5 205.83,-18 215.83,-21.5 215.83,-14.5"/>
<text text-anchor="middle" x="246.55" y="-6.8" font-family="Times,serif" font-size="14.00">flask*4912</text>
</g>
</g>
</svg>
