<?xml version="1.0" encoding="UTF-8" standalone="no"?>
<!DOCTYPE svg PUBLIC "-//W3C//DTD SVG 1.1//EN"
 "http://www.w3.org/Graphics/SVG/1.1/DTD/svg11.dtd">
<!-- Generated by graphviz version 2.43.0 (0)
 -->
<!-- Title: %3 Pages: 1 -->
<svg width="1464pt" height="1243pt"
 viewBox="0.00 0.00 1463.52 1242.63" xmlns="http://www.w3.org/2000/svg" xmlns:xlink="http://www.w3.org/1999/xlink">
<g id="graph0" class="graph" transform="scale(1 1) rotate(0) translate(4 1238.63)">
<title>%3</title>
<polygon fill="white" stroke="transparent" points="-4,4 -4,-1238.63 1459.52,-1238.63 1459.52,4 -4,4"/>
<!-- 8,3 (Nylon mk2) -->
<g id="node1" class="node">
<title>8,3 (Nylon mk2)</title>
<ellipse fill="none" stroke="black" cx="778.17" cy="-615.28" rx="85.29" ry="18"/>
<text text-anchor="middle" x="778.17" y="-611.58" font-family="Times,serif" font-size="14.00">8,3 (Nylon mk2)</text>
</g>
<!-- 0,0 (LE BUS) -->
<g id="node2" class="node">
<title>0,0 (LE BUS)</title>
<ellipse fill="none" stroke="black" cx="1384.03" cy="-615.28" rx="71.49" ry="18"/>
<text text-anchor="middle" x="1384.03" y="-611.58" font-family="Times,serif" font-size="14.00">0,0 (LE BUS)</text>
</g>
<!-- 8,3 (Nylon mk2)&#45;&gt;0,0 (LE BUS) -->
<g id="edge1" class="edge">
<title>8,3 (Nylon mk2)&#45;&gt;0,0 (LE BUS)</title>
<path fill="none" stroke="black" stroke-width="2" d="M863.37,-615.28C979.79,-615.28 1187.2,-615.28 1301.97,-615.28"/>
<polygon fill="black" stroke="black" stroke-width="2" points="1302.1,-618.78 1312.1,-615.28 1302.1,-611.78 1302.1,-618.78"/>
<text text-anchor="middle" x="1037.17" y="-619.08" font-family="Times,serif" font-size="14.00">nylon*31120</text>
</g>
<!-- &#45;5,2 (Optical fiber) -->
<g id="node3" class="node">
<title>&#45;5,2 (Optical fiber)</title>
<ellipse fill="none" stroke="black" cx="704.37" cy="-1216.63" rx="96.38" ry="18"/>
<text text-anchor="middle" x="704.37" y="-1212.93" font-family="Times,serif" font-size="14.00">&#45;5,2 (Optical fiber)</text>
</g>
<!-- 8,3 (Nylon mk2)&#45;&gt;&#45;5,2 (Optical fiber) -->
<g id="edge2" class="edge">
<title>8,3 (Nylon mk2)&#45;&gt;&#45;5,2 (Optical fiber)</title>
<path fill="none" stroke="black" stroke-width="1.3" d="M775.96,-633.28C765.48,-718.69 720.73,-1083.32 707.86,-1188.26"/>
<polygon fill="black" stroke="black" stroke-width="1.3" points="704.36,-1188.05 706.61,-1198.41 711.3,-1188.91 704.36,-1188.05"/>
<text text-anchor="middle" x="696.41" y="-914.57" font-family="Times,serif" font-size="14.00">nylon*20160</text>
</g>
<!-- 6,4 (Electronic components) -->
<g id="node4" class="node">
<title>6,4 (Electronic components)</title>
<ellipse fill="none" stroke="black" cx="584.75" cy="-387.49" rx="141.88" ry="18"/>
<text text-anchor="middle" x="584.75" y="-383.79" font-family="Times,serif" font-size="14.00">6,4 (Electronic components)</text>
</g>
<!-- 8,3 (Nylon mk2)&#45;&gt;6,4 (Electronic components) -->
<g id="edge3" class="edge">
<title>8,3 (Nylon mk2)&#45;&gt;6,4 (Electronic components)</title>
<path fill="none" stroke="black" stroke-width="0.56" d="M762.99,-597.41C728.97,-557.34 646.47,-460.18 606.79,-413.44"/>
<polygon fill="black" stroke="black" stroke-width="0.56" points="609.27,-410.95 600.13,-405.6 603.93,-415.48 609.27,-410.95"/>
<text text-anchor="middle" x="643.89" y="-509.23" font-family="Times,serif" font-size="14.00">nylon*8720</text>
</g>
<!-- 4,4 (Hydrogen Chloride, item=nylon Nylon/Nylon parts) -->
<g id="node5" class="node">
<title>4,4 (Hydrogen Chloride, item=nylon Nylon/Nylon parts)</title>
<ellipse fill="none" stroke="black" cx="271.03" cy="-18" rx="271.05" ry="18"/>
<text text-anchor="middle" x="271.03" y="-14.3" font-family="Times,serif" font-size="14.00">4,4 (Hydrogen Chloride, item=nylon Nylon/Nylon parts)</text>
</g>
<!-- 4,4 (Hydrogen Chloride, item=nylon Nylon/Nylon parts)&#45;&gt;6,4 (Electronic components) -->
<g id="edge4" class="edge">
<title>4,4 (Hydrogen Chloride, item=nylon Nylon/Nylon parts)&#45;&gt;6,4 (Electronic components)</title>
<path fill="none" stroke="black" stroke-width="0.14" d="M286.37,-36.07C337.56,-96.36 502.61,-290.74 562.65,-361.46"/>
<polygon fill="black" stroke="black" stroke-width="0.14" points="560.3,-364.09 569.44,-369.45 565.63,-359.56 560.3,-364.09"/>
<text text-anchor="middle" x="383.51" y="-202.57" font-family="Times,serif" font-size="14.00">nylon*2160</text>
</g>
</g>
</svg>
