<?xml version="1.0" encoding="UTF-8" standalone="no"?>
<!DOCTYPE svg PUBLIC "-//W3C//DTD SVG 1.1//EN"
 "http://www.w3.org/Graphics/SVG/1.1/DTD/svg11.dtd">
<!-- Generated by graphviz version 2.43.0 (0)
 -->
<!-- Title: %3 Pages: 1 -->
<svg width="1211pt" height="119pt"
 viewBox="0.00 0.00 1211.41 119.00" xmlns="http://www.w3.org/2000/svg" xmlns:xlink="http://www.w3.org/1999/xlink">
<g id="graph0" class="graph" transform="scale(1 1) rotate(0) translate(4 115)">
<title>%3</title>
<polygon fill="white" stroke="transparent" points="-4,4 -4,-115 1207.41,-115 1207.41,4 -4,4"/>
<!-- 4,&#45;2 (Ceramic) -->
<g id="node1" class="node">
<title>4,&#45;2 (Ceramic)</title>
<ellipse fill="none" stroke="black" cx="498.36" cy="-18" rx="76.89" ry="18"/>
<text text-anchor="middle" x="498.36" y="-14.3" font-family="Times,serif" font-size="14.00">4,&#45;2 (Ceramic)</text>
</g>
<!-- &#45;6,&#45;4 (High&#45;Power Resistors, Ceramic Capacitor, Inductor) -->
<g id="node2" class="node">
<title>&#45;6,&#45;4 (High&#45;Power Resistors, Ceramic Capacitor, Inductor)</title>
<ellipse fill="none" stroke="black" cx="925.23" cy="-18" rx="278.35" ry="18"/>
<text text-anchor="middle" x="925.23" y="-14.3" font-family="Times,serif" font-size="14.00">&#45;6,&#45;4 (High&#45;Power Resistors, Ceramic Capacitor, Inductor)</text>
</g>
<!-- 4,&#45;2 (Ceramic)&#45;&gt;&#45;6,&#45;4 (High&#45;Power Resistors, Ceramic Capacitor, Inductor) -->
<g id="edge1" class="edge">
<title>4,&#45;2 (Ceramic)&#45;&gt;&#45;6,&#45;4 (High&#45;Power Resistors, Ceramic Capacitor, Inductor)</title>
<path fill="none" stroke="black" stroke-width="2.42" d="M575.17,-18C593.7,-18 614.59,-18 636.72,-18"/>
<polygon fill="black" stroke="black" stroke-width="2.42" points="636.97,-21.5 646.97,-18 636.97,-14.5 636.97,-21.5"/>
<text text-anchor="middle" x="605.95" y="-6.8" font-family="Times,serif" font-size="14.00">ceramic*53760</text>
</g>
<!-- 0,0 (LE BUS) -->
<g id="node3" class="node">
<title>0,0 (LE BUS)</title>
<ellipse fill="none" stroke="black" cx="71.49" cy="-18" rx="71.49" ry="18"/>
<text text-anchor="middle" x="71.49" y="-14.3" font-family="Times,serif" font-size="14.00">0,0 (LE BUS)</text>
</g>
<!-- 4,&#45;2 (Ceramic)&#45;&gt;0,0 (LE BUS) -->
<g id="edge2" class="edge">
<title>4,&#45;2 (Ceramic)&#45;&gt;0,0 (LE BUS)</title>
<path fill="none" stroke="black" stroke-width="0.47" d="M421.55,-18C345.86,-18 230.62,-18 153.25,-18"/>
<polygon fill="black" stroke="black" stroke-width="0.47" points="153.07,-14.5 143.07,-18 153.07,-21.5 153.07,-14.5"/>
<text text-anchor="middle" x="232.9" y="-21.8" font-family="Times,serif" font-size="14.00">ceramic*10560</text>
</g>
<!-- 1,9 (Ammunition) -->
<g id="node4" class="node">
<title>1,9 (Ammunition)</title>
<ellipse fill="none" stroke="black" cx="742.17" cy="-93" rx="91.78" ry="18"/>
<text text-anchor="middle" x="742.17" y="-89.3" font-family="Times,serif" font-size="14.00">1,9 (Ammunition)</text>
</g>
<!-- 5,&#45;2 (Lubricant) -->
<g id="node5" class="node">
<title>5,&#45;2 (Lubricant)</title>
<ellipse fill="none" stroke="black" cx="989" cy="-93" rx="83.39" ry="18"/>
<text text-anchor="middle" x="989" y="-89.3" font-family="Times,serif" font-size="14.00">5,&#45;2 (Lubricant)</text>
</g>
<!-- 1,9 (Ammunition)&#45;&gt;5,&#45;2 (Lubricant) -->
<g id="edge3" class="edge">
<title>1,9 (Ammunition)&#45;&gt;5,&#45;2 (Lubricant)</title>
<path fill="none" stroke="black" stroke-width="0.11" d="M834.08,-93C854.13,-93 875.37,-93 895.49,-93"/>
<polygon fill="black" stroke="black" stroke-width="0.11" points="895.57,-96.5 905.57,-93 895.57,-89.5 895.57,-96.5"/>
<text text-anchor="middle" x="864.78" y="-81.8" font-family="Times,serif" font-size="14.00">ceramic*2400</text>
</g>
</g>
</svg>
