<?xml version="1.0" encoding="UTF-8" standalone="no"?>
<!DOCTYPE svg PUBLIC "-//W3C//DTD SVG 1.1//EN"
 "http://www.w3.org/Graphics/SVG/1.1/DTD/svg11.dtd">
<!-- Generated by graphviz version 2.43.0 (0)
 -->
<!-- Title: %3 Pages: 1 -->
<svg width="1389pt" height="44pt"
 viewBox="0.00 0.00 1388.95 44.00" xmlns="http://www.w3.org/2000/svg" xmlns:xlink="http://www.w3.org/1999/xlink">
<g id="graph0" class="graph" transform="scale(1 1) rotate(0) translate(4 40)">
<title>%3</title>
<polygon fill="white" stroke="transparent" points="-4,4 -4,-40 1384.95,-40 1384.95,4 -4,4"/>
<!-- 3,12 (Copper mine, No, Copper OURS, Comrade) -->
<g id="node1" class="node">
<title>3,12 (Copper mine, No, Copper OURS, Comrade)</title>
<ellipse fill="none" stroke="black" cx="635.75" cy="-18" rx="237.46" ry="18"/>
<text text-anchor="middle" x="635.75" y="-14.3" font-family="Times,serif" font-size="14.00">3,12 (Copper mine, No, Copper OURS, Comrade)</text>
</g>
<!-- 3,9 (Copper, molten &amp; plate) -->
<g id="node2" class="node">
<title>3,9 (Copper, molten &amp; plate)</title>
<ellipse fill="none" stroke="black" cx="1088.62" cy="-18" rx="143.77" ry="18"/>
<text text-anchor="middle" x="1088.62" y="-14.3" font-family="Times,serif" font-size="14.00">3,9 (Copper, molten &amp; plate)</text>
</g>
<!-- 3,12 (Copper mine, No, Copper OURS, Comrade)&#45;&gt;3,9 (Copper, molten &amp; plate) -->
<g id="edge1" class="edge">
<title>3,12 (Copper mine, No, Copper OURS, Comrade)&#45;&gt;3,9 (Copper, molten &amp; plate)</title>
<path fill="none" stroke="black" stroke-width="2.24" d="M873.13,-18C894.07,-18 914.88,-18 934.85,-18"/>
<polygon fill="black" stroke="black" stroke-width="2.24" points="934.9,-21.5 944.9,-18 934.9,-14.5 934.9,-21.5"/>
<text text-anchor="middle" x="903.99" y="-6.8" font-family="Times,serif" font-size="14.00">copper&#45;ore*236200</text>
</g>
<!-- 4,11 (Cobalt Extract) -->
<g id="node4" class="node">
<title>4,11 (Cobalt Extract)</title>
<ellipse fill="none" stroke="black" cx="108.54" cy="-18" rx="108.58" ry="18"/>
<text text-anchor="middle" x="108.54" y="-14.3" font-family="Times,serif" font-size="14.00">4,11 (Cobalt Extract)</text>
</g>
<!-- 3,12 (Copper mine, No, Copper OURS, Comrade)&#45;&gt;4,11 (Cobalt Extract) -->
<g id="edge3" class="edge">
<title>3,12 (Copper mine, No, Copper OURS, Comrade)&#45;&gt;4,11 (Cobalt Extract)</title>
<path fill="none" stroke="black" stroke-width="0.25" d="M398.37,-18C339.05,-18 277.94,-18 227.22,-18"/>
<polygon fill="black" stroke="black" stroke-width="0.25" points="227.22,-14.5 217.22,-18 227.22,-21.5 227.22,-14.5"/>
<text text-anchor="middle" x="312.79" y="-6.8" font-family="Times,serif" font-size="14.00">copper&#45;ore*26000</text>
</g>
<!-- 3,&#45;2 () -->
<g id="node3" class="node">
<title>3,&#45;2 ()</title>
<ellipse fill="none" stroke="black" cx="1342.6" cy="-18" rx="38.19" ry="18"/>
<text text-anchor="middle" x="1342.6" y="-14.3" font-family="Times,serif" font-size="14.00">3,&#45;2 ()</text>
</g>
<!-- 3,&#45;2 ()&#45;&gt;3,9 (Copper, molten &amp; plate) -->
<g id="edge2" class="edge">
<title>3,&#45;2 ()&#45;&gt;3,9 (Copper, molten &amp; plate)</title>
<path fill="none" stroke="black" stroke-width="0.52" d="M1304.03,-18C1286.8,-18 1265.27,-18 1242.53,-18"/>
<polygon fill="black" stroke="black" stroke-width="0.52" points="1242.36,-14.5 1232.36,-18 1242.36,-21.5 1242.36,-14.5"/>
<text text-anchor="middle" x="1241.03" y="-6.8" font-family="Times,serif" font-size="14.00">copper&#45;ore*54504</text>
</g>
</g>
</svg>
