<?xml version="1.0" encoding="UTF-8" standalone="no"?>
<!DOCTYPE svg PUBLIC "-//W3C//DTD SVG 1.1//EN"
 "http://www.w3.org/Graphics/SVG/1.1/DTD/svg11.dtd">
<!-- Generated by graphviz version 2.43.0 (0)
 -->
<!-- Title: %3 Pages: 1 -->
<svg width="695pt" height="497pt"
 viewBox="0.00 0.00 695.10 496.94" xmlns="http://www.w3.org/2000/svg" xmlns:xlink="http://www.w3.org/1999/xlink">
<g id="graph0" class="graph" transform="scale(1 1) rotate(0) translate(4 492.94)">
<title>%3</title>
<polygon fill="white" stroke="transparent" points="-4,4 -4,-492.94 691.1,-492.94 691.1,4 -4,4"/>
<!-- 9,7 () -->
<g id="node1" class="node">
<title>9,7 ()</title>
<ellipse fill="none" stroke="black" cx="301.82" cy="-233.29" rx="35.19" ry="18"/>
<text text-anchor="middle" x="301.82" y="-229.59" font-family="Times,serif" font-size="14.00">9,7 ()</text>
</g>
<!-- &#45;2,5 (Rare Earth Oxides) -->
<g id="node2" class="node">
<title>&#45;2,5 (Rare Earth Oxides)</title>
<ellipse fill="none" stroke="black" cx="562.96" cy="-233.29" rx="124.28" ry="18"/>
<text text-anchor="middle" x="562.96" y="-229.59" font-family="Times,serif" font-size="14.00">&#45;2,5 (Rare Earth Oxides)</text>
</g>
<!-- 9,7 ()&#45;&gt;&#45;2,5 (Rare Earth Oxides) -->
<g id="edge1" class="edge">
<title>9,7 ()&#45;&gt;&#45;2,5 (Rare Earth Oxides)</title>
<path fill="none" stroke="black" stroke-width="1.49" d="M337.04,-233.29C361.12,-233.29 394.7,-233.29 428.62,-233.29"/>
<polygon fill="black" stroke="black" stroke-width="1.49" points="428.67,-236.79 438.67,-233.29 428.67,-229.79 428.67,-236.79"/>
<text text-anchor="middle" x="382.83" y="-222.09" font-family="Times,serif" font-size="14.00">rare&#45;earth&#45;ore*100560</text>
</g>
<!-- 4,11 (Cobalt Extract) -->
<g id="node3" class="node">
<title>4,11 (Cobalt Extract)</title>
<ellipse fill="none" stroke="black" cx="193.59" cy="-470.94" rx="108.58" ry="18"/>
<text text-anchor="middle" x="193.59" y="-467.24" font-family="Times,serif" font-size="14.00">4,11 (Cobalt Extract)</text>
</g>
<!-- 9,7 ()&#45;&gt;4,11 (Cobalt Extract) -->
<g id="edge2" class="edge">
<title>9,7 ()&#45;&gt;4,11 (Cobalt Extract)</title>
<path fill="none" stroke="black" stroke-width="0.74" d="M293.69,-251.15C274.92,-292.35 228.51,-394.28 206.1,-443.48"/>
<polygon fill="black" stroke="black" stroke-width="0.74" points="202.78,-442.32 201.82,-452.87 209.15,-445.22 202.78,-442.32"/>
<text text-anchor="middle" x="173.39" y="-351.12" font-family="Times,serif" font-size="14.00">rare&#45;earth&#45;ore*49920</text>
</g>
<!-- 4,&#45;8 (REOOOOOOOOOOOOOO) -->
<g id="node4" class="node">
<title>4,&#45;8 (REOOOOOOOOOOOOOO)</title>
<ellipse fill="none" stroke="black" cx="154.04" cy="-18" rx="154.07" ry="18"/>
<text text-anchor="middle" x="154.04" y="-14.3" font-family="Times,serif" font-size="14.00">4,&#45;8 (REOOOOOOOOOOOOOO)</text>
</g>
<!-- 9,7 ()&#45;&gt;4,&#45;8 (REOOOOOOOOOOOOOO) -->
<g id="edge3" class="edge">
<title>9,7 ()&#45;&gt;4,&#45;8 (REOOOOOOOOOOOOOO)</title>
<path fill="none" stroke="black" stroke-width="0.76" d="M289.98,-216.03C264.23,-178.52 203,-89.33 172.28,-44.58"/>
<polygon fill="black" stroke="black" stroke-width="0.76" points="175.11,-42.51 166.56,-36.25 169.34,-46.47 175.11,-42.51"/>
<text text-anchor="middle" x="154.63" y="-134.11" font-family="Times,serif" font-size="14.00">rare&#45;earth&#45;ore*51360</text>
</g>
</g>
</svg>
