<?xml version="1.0" encoding="UTF-8" standalone="no"?>
<!DOCTYPE svg PUBLIC "-//W3C//DTD SVG 1.1//EN"
 "http://www.w3.org/Graphics/SVG/1.1/DTD/svg11.dtd">
<!-- Generated by graphviz version 2.43.0 (0)
 -->
<!-- Title: %3 Pages: 1 -->
<svg width="1188pt" height="848pt"
 viewBox="0.00 0.00 1187.52 847.54" xmlns="http://www.w3.org/2000/svg" xmlns:xlink="http://www.w3.org/1999/xlink">
<g id="graph0" class="graph" transform="scale(1 1) rotate(0) translate(4 843.54)">
<title>%3</title>
<polygon fill="white" stroke="transparent" points="-4,4 -4,-843.54 1183.52,-843.54 1183.52,4 -4,4"/>
<!-- &#45;6,&#45;6 (Seaweed (no biomass)) -->
<g id="node1" class="node">
<title>&#45;6,&#45;6 (Seaweed (no biomass))</title>
<ellipse fill="none" stroke="black" cx="658.19" cy="-18" rx="144.07" ry="18"/>
<text text-anchor="middle" x="658.19" y="-14.3" font-family="Times,serif" font-size="14.00">&#45;6,&#45;6 (Seaweed (no biomass))</text>
</g>
<!-- 2,14 (Latex) -->
<g id="node2" class="node">
<title>2,14 (Latex)</title>
<ellipse fill="none" stroke="black" cx="185.88" cy="-171.46" rx="66.89" ry="18"/>
<text text-anchor="middle" x="185.88" y="-167.76" font-family="Times,serif" font-size="14.00">2,14 (Latex)</text>
</g>
<!-- &#45;6,&#45;6 (Seaweed (no biomass))&#45;&gt;2,14 (Latex) -->
<g id="edge1" class="edge">
<title>&#45;6,&#45;6 (Seaweed (no biomass))&#45;&gt;2,14 (Latex)</title>
<path fill="none" stroke="black" stroke-width="3.47" d="M606.29,-34.86C515.66,-64.31 329.52,-124.79 238.43,-154.39"/>
<polygon fill="black" stroke="black" stroke-width="3.47" points="237.29,-151.08 228.86,-157.5 239.45,-157.74 237.29,-151.08"/>
<text text-anchor="middle" x="360.86" y="-98.43" font-family="Times,serif" font-size="14.00">seaweed*262240</text>
</g>
<!-- &#45;1,12 (I can&#39;t believe it&#39;s more latex duplicates) -->
<g id="node3" class="node">
<title>&#45;1,12 (I can&#39;t believe it&#39;s more latex duplicates)</title>
<ellipse fill="none" stroke="black" cx="950.09" cy="-419.77" rx="229.36" ry="18"/>
<text text-anchor="middle" x="950.09" y="-416.07" font-family="Times,serif" font-size="14.00">&#45;1,12 (I can&#39;t believe it&#39;s more latex duplicates)</text>
</g>
<!-- &#45;6,&#45;6 (Seaweed (no biomass))&#45;&gt;&#45;1,12 (I can&#39;t believe it&#39;s more latex duplicates) -->
<g id="edge2" class="edge">
<title>&#45;6,&#45;6 (Seaweed (no biomass))&#45;&gt;&#45;1,12 (I can&#39;t believe it&#39;s more latex duplicates)</title>
<path fill="none" stroke="black" stroke-width="1.79" d="M671.3,-36.04C717.89,-100.16 875.59,-317.23 930.81,-393.23"/>
<polygon fill="black" stroke="black" stroke-width="1.79" points="928.31,-395.74 937.02,-401.77 933.97,-391.63 928.31,-395.74"/>
<text text-anchor="middle" x="739.55" y="-218.43" font-family="Times,serif" font-size="14.00">seaweed*134880</text>
</g>
<!-- 1,3 (item=korlex&#45;food&#45;01 Korlex food) -->
<g id="node5" class="node">
<title>1,3 (item=korlex&#45;food&#45;01 Korlex food)</title>
<ellipse fill="none" stroke="black" cx="185.88" cy="-668.08" rx="185.77" ry="18"/>
<text text-anchor="middle" x="185.88" y="-664.38" font-family="Times,serif" font-size="14.00">1,3 (item=korlex&#45;food&#45;01 Korlex food)</text>
</g>
<!-- &#45;6,&#45;6 (Seaweed (no biomass))&#45;&gt;1,3 (item=korlex&#45;food&#45;01 Korlex food) -->
<g id="edge5" class="edge">
<title>&#45;6,&#45;6 (Seaweed (no biomass))&#45;&gt;1,3 (item=korlex&#45;food&#45;01 Korlex food)</title>
<path fill="none" stroke="black" stroke-width="0.18" d="M645.07,-36.07C579.06,-126.92 283.46,-533.77 205.03,-641.72"/>
<polygon fill="black" stroke="black" stroke-width="0.18" points="201.99,-639.95 198.95,-650.1 207.65,-644.06 201.99,-639.95"/>
<text text-anchor="middle" x="368.05" y="-342.69" font-family="Times,serif" font-size="14.00">seaweed*13680</text>
</g>
<!-- &#45;5,&#45;3 (Biomass (from Seaweed)) -->
<g id="node4" class="node">
<title>&#45;5,&#45;3 (Biomass (from Seaweed))</title>
<ellipse fill="none" stroke="black" cx="658.19" cy="-821.54" rx="155.97" ry="18"/>
<text text-anchor="middle" x="658.19" y="-817.84" font-family="Times,serif" font-size="14.00">&#45;5,&#45;3 (Biomass (from Seaweed))</text>
</g>
<!-- &#45;5,&#45;3 (Biomass (from Seaweed))&#45;&gt;2,14 (Latex) -->
<g id="edge6" class="edge">
<title>&#45;5,&#45;3 (Biomass (from Seaweed))&#45;&gt;2,14 (Latex)</title>
<path fill="none" stroke="black" stroke-width="0.12" d="M645.07,-803.47C578.99,-712.52 282.81,-304.87 204.78,-197.47"/>
<polygon fill="black" stroke="black" stroke-width="0.12" points="207.43,-195.17 198.72,-189.13 201.77,-199.28 207.43,-195.17"/>
<text text-anchor="middle" x="372.42" y="-504.27" font-family="Times,serif" font-size="14.00">seaweed*9264</text>
</g>
<!-- &#45;5,&#45;3 (Biomass (from Seaweed))&#45;&gt;&#45;1,12 (I can&#39;t believe it&#39;s more latex duplicates) -->
<g id="edge3" class="edge">
<title>&#45;5,&#45;3 (Biomass (from Seaweed))&#45;&gt;&#45;1,12 (I can&#39;t believe it&#39;s more latex duplicates)</title>
<path fill="none" stroke="black" stroke-width="0.41" d="M671.3,-803.49C717.89,-739.37 875.59,-522.31 930.81,-446.31"/>
<polygon fill="black" stroke="black" stroke-width="0.41" points="933.97,-447.91 937.02,-437.76 928.31,-443.8 933.97,-447.91"/>
<text text-anchor="middle" x="744.05" y="-628.7" font-family="Times,serif" font-size="14.00">seaweed*30640</text>
</g>
<!-- &#45;5,&#45;3 (Biomass (from Seaweed))&#45;&gt;1,3 (item=korlex&#45;food&#45;01 Korlex food) -->
<g id="edge4" class="edge">
<title>&#45;5,&#45;3 (Biomass (from Seaweed))&#45;&gt;1,3 (item=korlex&#45;food&#45;01 Korlex food)</title>
<path fill="none" stroke="black" stroke-width="0.03" d="M605.84,-804.53C518.39,-776.11 342.93,-719.1 248.86,-688.54"/>
<polygon fill="black" stroke="black" stroke-width="0.03" points="249.78,-685.16 239.19,-685.4 247.62,-691.81 249.78,-685.16"/>
<text text-anchor="middle" x="374.85" y="-750.33" font-family="Times,serif" font-size="14.00">seaweed*2352</text>
</g>
</g>
</svg>
