<?xml version="1.0" encoding="UTF-8" standalone="no"?>
<!DOCTYPE svg PUBLIC "-//W3C//DTD SVG 1.1//EN"
 "http://www.w3.org/Graphics/SVG/1.1/DTD/svg11.dtd">
<!-- Generated by graphviz version 2.43.0 (0)
 -->
<!-- Title: %3 Pages: 1 -->
<svg width="755pt" height="44pt"
 viewBox="0.00 0.00 755.15 44.00" xmlns="http://www.w3.org/2000/svg" xmlns:xlink="http://www.w3.org/1999/xlink">
<g id="graph0" class="graph" transform="scale(1 1) rotate(0) translate(4 40)">
<title>%3</title>
<polygon fill="white" stroke="transparent" points="-4,4 -4,-40 751.15,-40 751.15,4 -4,4"/>
<!-- &#45;5,2 (Optical fiber) -->
<g id="node1" class="node">
<title>&#45;5,2 (Optical fiber)</title>
<ellipse fill="none" stroke="black" cx="394.37" cy="-18" rx="96.38" ry="18"/>
<text text-anchor="middle" x="394.37" y="-14.3" font-family="Times,serif" font-size="14.00">&#45;5,2 (Optical fiber)</text>
</g>
<!-- 0,0 (LE BUS) -->
<g id="node2" class="node">
<title>0,0 (LE BUS)</title>
<ellipse fill="none" stroke="black" cx="675.65" cy="-18" rx="71.49" ry="18"/>
<text text-anchor="middle" x="675.65" y="-14.3" font-family="Times,serif" font-size="14.00">0,0 (LE BUS)</text>
</g>
<!-- &#45;5,2 (Optical fiber)&#45;&gt;0,0 (LE BUS) -->
<g id="edge1" class="edge">
<title>&#45;5,2 (Optical fiber)&#45;&gt;0,0 (LE BUS)</title>
<path fill="none" stroke="black" stroke-width="1.66" d="M490.78,-18C524.22,-18 561.37,-18 593.54,-18"/>
<polygon fill="black" stroke="black" stroke-width="1.66" points="593.8,-21.5 603.8,-18 593.8,-14.5 593.8,-21.5"/>
<text text-anchor="middle" x="542.16" y="-6.8" font-family="Times,serif" font-size="14.00">optical&#45;fiber*49580</text>
</g>
<!-- 5,1 (Complex circuits) -->
<g id="node3" class="node">
<title>5,1 (Complex circuits)</title>
<ellipse fill="none" stroke="black" cx="113.09" cy="-18" rx="113.18" ry="18"/>
<text text-anchor="middle" x="113.09" y="-14.3" font-family="Times,serif" font-size="14.00">5,1 (Complex circuits)</text>
</g>
<!-- &#45;5,2 (Optical fiber)&#45;&gt;5,1 (Complex circuits) -->
<g id="edge2" class="edge">
<title>&#45;5,2 (Optical fiber)&#45;&gt;5,1 (Complex circuits)</title>
<path fill="none" stroke="black" stroke-width="0.34" d="M297.96,-18C278.15,-18 257.03,-18 236.41,-18"/>
<polygon fill="black" stroke="black" stroke-width="0.34" points="236.34,-14.5 226.34,-18 236.33,-21.5 236.34,-14.5"/>
<text text-anchor="middle" x="232.44" y="-6.8" font-family="Times,serif" font-size="14.00">optical&#45;fiber*10080</text>
</g>
</g>
</svg>
