<?xml version="1.0" encoding="UTF-8" standalone="no"?>
<!DOCTYPE svg PUBLIC "-//W3C//DTD SVG 1.1//EN"
 "http://www.w3.org/Graphics/SVG/1.1/DTD/svg11.dtd">
<!-- Generated by graphviz version 2.43.0 (0)
 -->
<!-- Title: %3 Pages: 1 -->
<svg width="2177pt" height="1887pt"
 viewBox="0.00 0.00 2176.77 1887.18" xmlns="http://www.w3.org/2000/svg" xmlns:xlink="http://www.w3.org/1999/xlink">
<g id="graph0" class="graph" transform="scale(1 1) rotate(0) translate(4 1883.18)">
<title>%3</title>
<polygon fill="white" stroke="transparent" points="-4,4 -4,-1883.18 2172.77,-1883.18 2172.77,4 -4,4"/>
<!-- 2,7 (Mystery petrochemicals) -->
<g id="node1" class="node">
<title>2,7 (Mystery petrochemicals)</title>
<ellipse fill="none" stroke="black" cx="1860.21" cy="-370.02" rx="147.57" ry="18"/>
<text text-anchor="middle" x="1860.21" y="-366.32" font-family="Times,serif" font-size="14.00">2,7 (Mystery petrochemicals)</text>
</g>
<!-- 0,0 (LE BUS) -->
<g id="node2" class="node">
<title>0,0 (LE BUS)</title>
<ellipse fill="none" stroke="black" cx="292.31" cy="-1509.17" rx="71.49" ry="18"/>
<text text-anchor="middle" x="292.31" y="-1505.47" font-family="Times,serif" font-size="14.00">0,0 (LE BUS)</text>
</g>
<!-- 2,7 (Mystery petrochemicals)&#45;&gt;0,0 (LE BUS) -->
<g id="edge1" class="edge">
<title>2,7 (Mystery petrochemicals)&#45;&gt;0,0 (LE BUS)</title>
<path fill="none" stroke="black" stroke-width="1.5" d="M1835.58,-387.91C1654.3,-519.62 527.85,-1338.04 323.94,-1486.19"/>
<polygon fill="black" stroke="black" stroke-width="1.5" points="321.76,-1483.44 315.73,-1492.15 325.87,-1489.1 321.76,-1483.44"/>
<text text-anchor="middle" x="1004.76" y="-940.85" font-family="Times,serif" font-size="14.00">syngas&#45;barrel*21456</text>
</g>
<!-- 2,6 (Refined Syngas) -->
<g id="node4" class="node">
<title>2,6 (Refined Syngas)</title>
<ellipse fill="none" stroke="black" cx="107.24" cy="-939.59" rx="107.48" ry="18"/>
<text text-anchor="middle" x="107.24" y="-935.89" font-family="Times,serif" font-size="14.00">2,6 (Refined Syngas)</text>
</g>
<!-- 2,7 (Mystery petrochemicals)&#45;&gt;2,6 (Refined Syngas) -->
<g id="edge6" class="edge">
<title>2,7 (Mystery petrochemicals)&#45;&gt;2,6 (Refined Syngas)</title>
<path fill="none" stroke="black" stroke-width="2.52" d="M1808.22,-386.91C1553.26,-469.75 436.38,-832.65 166.23,-920.42"/>
<polygon fill="black" stroke="black" stroke-width="2.52" points="165.03,-917.13 156.6,-923.55 167.2,-923.79 165.03,-917.13"/>
<text text-anchor="middle" x="912.23" y="-657.47" font-family="Times,serif" font-size="14.00">syngas&#45;barrel*36176</text>
</g>
<!-- &#45;2,7 (item=borax Borax) -->
<g id="node5" class="node">
<title>&#45;2,7 (item=borax Borax)</title>
<ellipse fill="none" stroke="black" cx="2045.28" cy="-939.59" rx="123.48" ry="18"/>
<text text-anchor="middle" x="2045.28" y="-935.89" font-family="Times,serif" font-size="14.00">&#45;2,7 (item=borax Borax)</text>
</g>
<!-- 2,7 (Mystery petrochemicals)&#45;&gt;&#45;2,7 (item=borax Borax) -->
<g id="edge3" class="edge">
<title>2,7 (Mystery petrochemicals)&#45;&gt;&#45;2,7 (item=borax Borax)</title>
<path fill="none" stroke="black" stroke-width="0.44" d="M1866.06,-388C1892.82,-470.37 2003.76,-811.82 2036.28,-911.9"/>
<polygon fill="black" stroke="black" stroke-width="0.44" points="2033.01,-913.17 2039.43,-921.6 2039.67,-911.01 2033.01,-913.17"/>
<text text-anchor="middle" x="1880.67" y="-653.75" font-family="Times,serif" font-size="14.00">syngas&#45;barrel*6304</text>
</g>
<!-- 4,0 (item=raw&#45;borax item=borax Borax and raw borax) -->
<g id="node6" class="node">
<title>4,0 (item=raw&#45;borax item=borax Borax and raw borax)</title>
<ellipse fill="none" stroke="black" cx="776.82" cy="-18" rx="268.35" ry="18"/>
<text text-anchor="middle" x="776.82" y="-14.3" font-family="Times,serif" font-size="14.00">4,0 (item=raw&#45;borax item=borax Borax and raw borax)</text>
</g>
<!-- 2,7 (Mystery petrochemicals)&#45;&gt;4,0 (item=raw&#45;borax item=borax Borax and raw borax) -->
<g id="edge5" class="edge">
<title>2,7 (Mystery petrochemicals)&#45;&gt;4,0 (item=raw&#45;borax item=borax Borax and raw borax)</title>
<path fill="none" stroke="black" stroke-width="0.39" d="M1808.32,-353.16C1629.21,-294.96 1037.17,-102.59 840.76,-38.78"/>
<polygon fill="black" stroke="black" stroke-width="0.39" points="841.75,-35.42 831.16,-35.66 839.59,-42.08 841.75,-35.42"/>
<text text-anchor="middle" x="1254.04" y="-199.77" font-family="Times,serif" font-size="14.00">syngas&#45;barrel*5552</text>
</g>
<!-- 3,1 (Mining Brick) -->
<g id="node7" class="node">
<title>3,1 (Mining Brick)</title>
<ellipse fill="none" stroke="black" cx="1375.7" cy="-1861.18" rx="94.78" ry="18"/>
<text text-anchor="middle" x="1375.7" y="-1857.48" font-family="Times,serif" font-size="14.00">3,1 (Mining Brick)</text>
</g>
<!-- 2,7 (Mystery petrochemicals)&#45;&gt;3,1 (Mining Brick) -->
<g id="edge18" class="edge">
<title>2,7 (Mystery petrochemicals)&#45;&gt;3,1 (Mining Brick)</title>
<path fill="none" stroke="black" stroke-width="1.16" d="M1854.35,-388.07C1804.09,-542.74 1446.31,-1643.87 1384.72,-1833.43"/>
<polygon fill="black" stroke="black" stroke-width="1.16" points="1381.31,-1832.6 1381.55,-1843.19 1387.97,-1834.76 1381.31,-1832.6"/>
<text text-anchor="middle" x="1544.53" y="-1114.55" font-family="Times,serif" font-size="14.00">syngas&#45;barrel*16640</text>
</g>
<!-- 4,&#45;2 (Ceramic) -->
<g id="node10" class="node">
<title>4,&#45;2 (Ceramic)</title>
<ellipse fill="none" stroke="black" cx="1375.7" cy="-18" rx="76.89" ry="18"/>
<text text-anchor="middle" x="1375.7" y="-14.3" font-family="Times,serif" font-size="14.00">4,&#45;2 (Ceramic)</text>
</g>
<!-- 2,7 (Mystery petrochemicals)&#45;&gt;4,&#45;2 (Ceramic) -->
<g id="edge22" class="edge">
<title>2,7 (Mystery petrochemicals)&#45;&gt;4,&#45;2 (Ceramic)</title>
<path fill="none" stroke="black" stroke-width="0.01" d="M1835.52,-352.08C1754.72,-293.37 1498.24,-107.03 1407.72,-41.26"/>
<polygon fill="black" stroke="black" stroke-width="0.01" points="1409.63,-38.33 1399.49,-35.28 1405.52,-43.99 1409.63,-38.33"/>
<text text-anchor="middle" x="1555.62" y="-200.47" font-family="Times,serif" font-size="14.00">syngas&#45;barrel*176</text>
</g>
<!-- 0,0 (LE BUS)&#45;&gt;0,0 (LE BUS) -->
<g id="edge14" class="edge">
<title>0,0 (LE BUS)&#45;&gt;0,0 (LE BUS)</title>
<path fill="none" stroke="black" stroke-width="0.02" d="M359.05,-1515.64C372.33,-1514.91 381.8,-1512.75 381.8,-1509.17 381.8,-1506.59 376.91,-1504.75 369.22,-1503.65"/>
<polygon fill="black" stroke="black" stroke-width="0.02" points="369.33,-1500.14 359.05,-1502.69 368.68,-1507.11 369.33,-1500.14"/>
<text text-anchor="middle" x="447.8" y="-1505.47" font-family="Times,serif" font-size="14.00">syngas&#45;barrel*220</text>
</g>
<!-- 0,6 (Flue Gas Disposal, Syngas From Flue Gas) -->
<g id="node3" class="node">
<title>0,6 (Flue Gas Disposal, Syngas From Flue Gas)</title>
<ellipse fill="none" stroke="black" cx="292.31" cy="-370.02" rx="229.36" ry="18"/>
<text text-anchor="middle" x="292.31" y="-366.32" font-family="Times,serif" font-size="14.00">0,6 (Flue Gas Disposal, Syngas From Flue Gas)</text>
</g>
<!-- 0,6 (Flue Gas Disposal, Syngas From Flue Gas)&#45;&gt;0,0 (LE BUS) -->
<g id="edge4" class="edge">
<title>0,6 (Flue Gas Disposal, Syngas From Flue Gas)&#45;&gt;0,0 (LE BUS)</title>
<path fill="none" stroke="black" stroke-width="2.96" d="M292.31,-388.37C292.31,-519.99 292.31,-1319.57 292.31,-1480.83"/>
<polygon fill="black" stroke="black" stroke-width="2.96" points="288.81,-1480.92 292.31,-1490.92 295.81,-1480.92 288.81,-1480.92"/>
<text text-anchor="middle" x="367.31" y="-938.4" font-family="Times,serif" font-size="14.00">syngas&#45;barrel*42461</text>
</g>
<!-- 0,6 (Flue Gas Disposal, Syngas From Flue Gas)&#45;&gt;2,6 (Refined Syngas) -->
<g id="edge2" class="edge">
<title>0,6 (Flue Gas Disposal, Syngas From Flue Gas)&#45;&gt;2,6 (Refined Syngas)</title>
<path fill="none" stroke="black" stroke-width="1.71" d="M286.36,-388.32C259.44,-471.17 148.92,-811.32 116.33,-911.63"/>
<polygon fill="black" stroke="black" stroke-width="1.71" points="112.93,-910.76 113.17,-921.35 119.59,-912.92 112.93,-910.76"/>
<text text-anchor="middle" x="126.34" y="-653.78" font-family="Times,serif" font-size="14.00">syngas&#45;barrel*24454</text>
</g>
<!-- 0,6 (Flue Gas Disposal, Syngas From Flue Gas)&#45;&gt;&#45;2,7 (item=borax Borax) -->
<g id="edge9" class="edge">
<title>0,6 (Flue Gas Disposal, Syngas From Flue Gas)&#45;&gt;&#45;2,7 (item=borax Borax)</title>
<path fill="none" stroke="black" stroke-width="0.76" d="M346.21,-387.53C604.31,-471.39 1712.6,-831.5 1984.75,-919.92"/>
<polygon fill="black" stroke="black" stroke-width="0.76" points="1983.86,-923.32 1994.45,-923.08 1986.02,-916.66 1983.86,-923.32"/>
<text text-anchor="middle" x="1090.48" y="-657.53" font-family="Times,serif" font-size="14.00">syngas&#45;barrel*10909</text>
</g>
<!-- 0,6 (Flue Gas Disposal, Syngas From Flue Gas)&#45;&gt;4,0 (item=raw&#45;borax item=borax Borax and raw borax) -->
<g id="edge11" class="edge">
<title>0,6 (Flue Gas Disposal, Syngas From Flue Gas)&#45;&gt;4,0 (item=raw&#45;borax item=borax Borax and raw borax)</title>
<path fill="none" stroke="black" stroke-width="0.58" d="M317,-352.08C397.42,-293.65 651.91,-108.75 743.54,-42.18"/>
<polygon fill="black" stroke="black" stroke-width="0.58" points="745.85,-44.82 751.88,-36.11 741.74,-39.16 745.85,-44.82"/>
<text text-anchor="middle" x="459.77" y="-200.93" font-family="Times,serif" font-size="14.00">syngas&#45;barrel*8269</text>
</g>
<!-- 0,6 (Flue Gas Disposal, Syngas From Flue Gas)&#45;&gt;3,1 (Mining Brick) -->
<g id="edge7" class="edge">
<title>0,6 (Flue Gas Disposal, Syngas From Flue Gas)&#45;&gt;3,1 (Mining Brick)</title>
<path fill="none" stroke="black" stroke-width="1.34" d="M305.42,-388.07C418.08,-543.12 1221.8,-1649.35 1356.55,-1834.83"/>
<polygon fill="black" stroke="black" stroke-width="1.34" points="1353.92,-1837.16 1362.63,-1843.19 1359.58,-1833.04 1353.92,-1837.16"/>
<text text-anchor="middle" x="755.99" y="-1115.25" font-family="Times,serif" font-size="14.00">syngas&#45;barrel*19267</text>
</g>
<!-- 0,6 (Flue Gas Disposal, Syngas From Flue Gas)&#45;&gt;4,&#45;2 (Ceramic) -->
<g id="edge21" class="edge">
<title>0,6 (Flue Gas Disposal, Syngas From Flue Gas)&#45;&gt;4,&#45;2 (Ceramic)</title>
<path fill="none" stroke="black" stroke-width="0.01" d="M346.4,-352.44C531.11,-292.42 1135.64,-96 1321.1,-35.74"/>
<polygon fill="black" stroke="black" stroke-width="0.01" points="1322.22,-39.06 1330.65,-32.64 1320.06,-32.4 1322.22,-39.06"/>
<text text-anchor="middle" x="767.75" y="-197.89" font-family="Times,serif" font-size="14.00">syngas&#45;barrel*144</text>
</g>
<!-- &#45;2,8 (syngas from coal dust and also wood) -->
<g id="node8" class="node">
<title>&#45;2,8 (syngas from coal dust and also wood)</title>
<ellipse fill="none" stroke="black" cx="776.82" cy="-1861.18" rx="208.76" ry="18"/>
<text text-anchor="middle" x="776.82" y="-1857.48" font-family="Times,serif" font-size="14.00">&#45;2,8 (syngas from coal dust and also wood)</text>
</g>
<!-- &#45;2,8 (syngas from coal dust and also wood)&#45;&gt;0,0 (LE BUS) -->
<g id="edge8" class="edge">
<title>&#45;2,8 (syngas from coal dust and also wood)&#45;&gt;0,0 (LE BUS)</title>
<path fill="none" stroke="black" stroke-width="4.05" d="M752.12,-1843.24C671.23,-1784.47 414.25,-1597.76 324.01,-1532.2"/>
<polygon fill="black" stroke="black" stroke-width="4.05" points="325.98,-1529.25 315.81,-1526.24 321.81,-1534.99 325.98,-1529.25"/>
<text text-anchor="middle" x="463.07" y="-1691.52" font-family="Times,serif" font-size="14.00">syngas&#45;barrel*58112</text>
</g>
<!-- &#45;2,8 (syngas from coal dust and also wood)&#45;&gt;2,6 (Refined Syngas) -->
<g id="edge17" class="edge">
<title>&#45;2,8 (syngas from coal dust and also wood)&#45;&gt;2,6 (Refined Syngas)</title>
<path fill="none" stroke="black" stroke-width="1.27" d="M763.74,-1843.19C680.58,-1728.73 225.79,-1102.76 126.42,-965.99"/>
<polygon fill="black" stroke="black" stroke-width="1.27" points="129.11,-963.74 120.4,-957.7 123.45,-967.85 129.11,-963.74"/>
<text text-anchor="middle" x="370.08" y="-1408.39" font-family="Times,serif" font-size="14.00">syngas&#45;barrel*18240</text>
</g>
<!-- &#45;2,8 (syngas from coal dust and also wood)&#45;&gt;&#45;2,7 (item=borax Borax) -->
<g id="edge10" class="edge">
<title>&#45;2,8 (syngas from coal dust and also wood)&#45;&gt;&#45;2,7 (item=borax Borax)</title>
<path fill="none" stroke="black" stroke-width="1.01" d="M801.59,-1843.19C960.15,-1727.98 1832.05,-1094.51 2012.56,-963.36"/>
<polygon fill="black" stroke="black" stroke-width="1.01" points="2014.83,-966.04 2020.87,-957.33 2010.72,-960.37 2014.83,-966.04"/>
<text text-anchor="middle" x="1332.07" y="-1407.07" font-family="Times,serif" font-size="14.00">syngas&#45;barrel*14512</text>
</g>
<!-- &#45;2,8 (syngas from coal dust and also wood)&#45;&gt;4,0 (item=raw&#45;borax item=borax Borax and raw borax) -->
<g id="edge15" class="edge">
<title>&#45;2,8 (syngas from coal dust and also wood)&#45;&gt;4,0 (item=raw&#45;borax item=borax Borax and raw borax)</title>
<path fill="none" stroke="black" stroke-width="0.83" d="M776.82,-1842.94C776.82,-1666.45 776.82,-264.18 776.82,-46.38"/>
<polygon fill="black" stroke="black" stroke-width="0.83" points="780.32,-46.11 776.82,-36.11 773.32,-46.11 780.32,-46.11"/>
<text text-anchor="middle" x="701.82" y="-948.46" font-family="Times,serif" font-size="14.00">syngas&#45;barrel*11840</text>
</g>
<!-- &#45;2,8 (syngas from coal dust and also wood)&#45;&gt;3,1 (Mining Brick) -->
<g id="edge13" class="edge">
<title>&#45;2,8 (syngas from coal dust and also wood)&#45;&gt;3,1 (Mining Brick)</title>
<path fill="none" stroke="black" stroke-width="1.06" d="M985.86,-1861.18C1081.93,-1861.18 1191.71,-1861.18 1270.24,-1861.18"/>
<polygon fill="black" stroke="black" stroke-width="1.06" points="1270.62,-1864.68 1280.62,-1861.18 1270.62,-1857.68 1270.62,-1864.68"/>
<text text-anchor="middle" x="1203.05" y="-1864.98" font-family="Times,serif" font-size="14.00">syngas&#45;barrel*15152</text>
</g>
<!-- 4,10 (Fluid Recycling) -->
<g id="node9" class="node">
<title>4,10 (Fluid Recycling)</title>
<ellipse fill="none" stroke="black" cx="1860.21" cy="-1509.17" rx="112.38" ry="18"/>
<text text-anchor="middle" x="1860.21" y="-1505.47" font-family="Times,serif" font-size="14.00">4,10 (Fluid Recycling)</text>
</g>
<!-- 4,10 (Fluid Recycling)&#45;&gt;0,0 (LE BUS) -->
<g id="edge12" class="edge">
<title>4,10 (Fluid Recycling)&#45;&gt;0,0 (LE BUS)</title>
<path fill="none" stroke="black" stroke-width="0.75" d="M1747.77,-1509.17C1448.01,-1509.17 634.88,-1509.17 374.03,-1509.17"/>
<polygon fill="black" stroke="black" stroke-width="0.75" points="373.87,-1505.67 363.87,-1509.17 373.87,-1512.67 373.87,-1505.67"/>
<text text-anchor="middle" x="985.9" y="-1512.97" font-family="Times,serif" font-size="14.00">syngas&#45;barrel*10824</text>
</g>
<!-- 4,10 (Fluid Recycling)&#45;&gt;2,6 (Refined Syngas) -->
<g id="edge20" class="edge">
<title>4,10 (Fluid Recycling)&#45;&gt;2,6 (Refined Syngas)</title>
<path fill="none" stroke="black" stroke-width="0.28" d="M1810.11,-1492.89C1558.88,-1411.26 437.73,-1046.98 166.48,-958.84"/>
<polygon fill="black" stroke="black" stroke-width="0.28" points="167.4,-955.46 156.81,-955.7 165.24,-962.12 167.4,-955.46"/>
<text text-anchor="middle" x="917.79" y="-1229.66" font-family="Times,serif" font-size="14.00">syngas&#45;barrel*3980</text>
</g>
<!-- 4,10 (Fluid Recycling)&#45;&gt;&#45;2,7 (item=borax Borax) -->
<g id="edge19" class="edge">
<title>4,10 (Fluid Recycling)&#45;&gt;&#45;2,7 (item=borax Borax)</title>
<path fill="none" stroke="black" stroke-width="0.18" d="M1866.06,-1491.18C1892.82,-1408.81 2003.76,-1067.37 2036.28,-967.28"/>
<polygon fill="black" stroke="black" stroke-width="0.18" points="2039.67,-968.17 2039.43,-957.58 2033.01,-966.01 2039.67,-968.17"/>
<text text-anchor="middle" x="1880.67" y="-1233.03" font-family="Times,serif" font-size="14.00">syngas&#45;barrel*2542</text>
</g>
<!-- 4,10 (Fluid Recycling)&#45;&gt;4,0 (item=raw&#45;borax item=borax Borax and raw borax) -->
<g id="edge23" class="edge">
<title>4,10 (Fluid Recycling)&#45;&gt;4,0 (item=raw&#45;borax item=borax Borax and raw borax)</title>
<path fill="none" stroke="black" stroke-width="0.04" d="M1847.1,-1491.12C1734.44,-1336.06 930.72,-229.83 795.96,-44.35"/>
<polygon fill="black" stroke="black" stroke-width="0.04" points="798.6,-42.02 789.89,-35.99 792.93,-46.14 798.6,-42.02"/>
<text text-anchor="middle" x="1255.53" y="-771.54" font-family="Times,serif" font-size="14.00">syngas&#45;barrel*624</text>
</g>
<!-- 4,10 (Fluid Recycling)&#45;&gt;3,1 (Mining Brick) -->
<g id="edge16" class="edge">
<title>4,10 (Fluid Recycling)&#45;&gt;3,1 (Mining Brick)</title>
<path fill="none" stroke="black" stroke-width="0.14" d="M1835.85,-1526.86C1755.54,-1585.21 1499.09,-1771.54 1408.1,-1837.64"/>
<polygon fill="black" stroke="black" stroke-width="0.14" points="1405.86,-1834.95 1399.82,-1843.66 1409.97,-1840.61 1405.86,-1834.95"/>
<text text-anchor="middle" x="1551.48" y="-1686.05" font-family="Times,serif" font-size="14.00">syngas&#45;barrel*1970</text>
</g>
</g>
</svg>
