<?xml version="1.0" encoding="UTF-8" standalone="no"?>
<!DOCTYPE svg PUBLIC "-//W3C//DTD SVG 1.1//EN"
 "http://www.w3.org/Graphics/SVG/1.1/DTD/svg11.dtd">
<!-- Generated by graphviz version 2.43.0 (0)
 -->
<!-- Title: %3 Pages: 1 -->
<svg width="803pt" height="44pt"
 viewBox="0.00 0.00 803.24 44.00" xmlns="http://www.w3.org/2000/svg" xmlns:xlink="http://www.w3.org/1999/xlink">
<g id="graph0" class="graph" transform="scale(1 1) rotate(0) translate(4 40)">
<title>%3</title>
<polygon fill="white" stroke="transparent" points="-4,4 -4,-40 799.24,-40 799.24,4 -4,4"/>
<!-- 0,0 (LE BUS) -->
<g id="node1" class="node">
<title>0,0 (LE BUS)</title>
<ellipse fill="none" stroke="black" cx="419.07" cy="-18" rx="71.49" ry="18"/>
<text text-anchor="middle" x="419.07" y="-14.3" font-family="Times,serif" font-size="14.00">0,0 (LE BUS)</text>
</g>
<!-- 3,1 (Mining Brick) -->
<g id="node2" class="node">
<title>3,1 (Mining Brick)</title>
<ellipse fill="none" stroke="black" cx="700.35" cy="-18" rx="94.78" ry="18"/>
<text text-anchor="middle" x="700.35" y="-14.3" font-family="Times,serif" font-size="14.00">3,1 (Mining Brick)</text>
</g>
<!-- 0,0 (LE BUS)&#45;&gt;3,1 (Mining Brick) -->
<g id="edge1" class="edge">
<title>0,0 (LE BUS)&#45;&gt;3,1 (Mining Brick)</title>
<path fill="none" stroke="black" stroke-width="0.25" d="M490.78,-18C522.48,-18 560.39,-18 595.2,-18"/>
<polygon fill="black" stroke="black" stroke-width="0.25" points="595.41,-21.5 605.41,-18 595.41,-14.5 595.41,-21.5"/>
<text text-anchor="middle" x="542.99" y="-6.8" font-family="Times,serif" font-size="14.00">drill&#45;head*800</text>
</g>
<!-- &#45;2,2 (Robutt superhighway) -->
<g id="node3" class="node">
<title>&#45;2,2 (Robutt superhighway)</title>
<ellipse fill="none" stroke="black" cx="137.79" cy="-18" rx="137.58" ry="18"/>
<text text-anchor="middle" x="137.79" y="-14.3" font-family="Times,serif" font-size="14.00">&#45;2,2 (Robutt superhighway)</text>
</g>
<!-- 0,0 (LE BUS)&#45;&gt;&#45;2,2 (Robutt superhighway) -->
<g id="edge2" class="edge">
<title>0,0 (LE BUS)&#45;&gt;&#45;2,2 (Robutt superhighway)</title>
<path fill="none" stroke="black" stroke-width="1.75" d="M347.36,-18C328.39,-18 307.2,-18 285.78,-18"/>
<polygon fill="black" stroke="black" stroke-width="1.75" points="285.59,-14.5 275.59,-18 285.59,-21.5 285.59,-14.5"/>
<text text-anchor="middle" x="288.57" y="-6.8" font-family="Times,serif" font-size="14.00">drill&#45;head*5720</text>
</g>
</g>
</svg>
