<?xml version="1.0" encoding="UTF-8" standalone="no"?>
<!DOCTYPE svg PUBLIC "-//W3C//DTD SVG 1.1//EN"
 "http://www.w3.org/Graphics/SVG/1.1/DTD/svg11.dtd">
<!-- Generated by graphviz version 2.43.0 (0)
 -->
<!-- Title: %3 Pages: 1 -->
<svg width="1027pt" height="44pt"
 viewBox="0.00 0.00 1027.47 44.00" xmlns="http://www.w3.org/2000/svg" xmlns:xlink="http://www.w3.org/1999/xlink">
<g id="graph0" class="graph" transform="scale(1 1) rotate(0) translate(4 40)">
<title>%3</title>
<polygon fill="white" stroke="transparent" points="-4,4 -4,-40 1023.47,-40 1023.47,4 -4,4"/>
<!-- 1,4 (Casein and Melamine) -->
<g id="node1" class="node">
<title>1,4 (Casein and Melamine)</title>
<ellipse fill="none" stroke="black" cx="473.01" cy="-18" rx="135.38" ry="18"/>
<text text-anchor="middle" x="473.01" y="-14.3" font-family="Times,serif" font-size="14.00">1,4 (Casein and Melamine)</text>
</g>
<!-- 2,4 (Formica and Phenolic boards) -->
<g id="node2" class="node">
<title>2,4 (Formica and Phenolic boards)</title>
<ellipse fill="none" stroke="black" cx="849.84" cy="-18" rx="169.77" ry="18"/>
<text text-anchor="middle" x="849.84" y="-14.3" font-family="Times,serif" font-size="14.00">2,4 (Formica and Phenolic boards)</text>
</g>
<!-- 1,4 (Casein and Melamine)&#45;&gt;2,4 (Formica and Phenolic boards) -->
<g id="edge1" class="edge">
<title>1,4 (Casein and Melamine)&#45;&gt;2,4 (Formica and Phenolic boards)</title>
<path fill="none" stroke="black" stroke-width="0.48" d="M608.26,-18C628.3,-18 649.22,-18 670,-18"/>
<polygon fill="black" stroke="black" stroke-width="0.48" points="670.19,-21.5 680.19,-18 670.19,-14.5 670.19,-21.5"/>
<text text-anchor="middle" x="669.63" y="-6.8" font-family="Times,serif" font-size="14.00">melamine*13480</text>
</g>
<!-- &#45;5,2 (Optical fiber) -->
<g id="node3" class="node">
<title>&#45;5,2 (Optical fiber)</title>
<ellipse fill="none" stroke="black" cx="96.19" cy="-18" rx="96.38" ry="18"/>
<text text-anchor="middle" x="96.19" y="-14.3" font-family="Times,serif" font-size="14.00">&#45;5,2 (Optical fiber)</text>
</g>
<!-- 1,4 (Casein and Melamine)&#45;&gt;&#45;5,2 (Optical fiber) -->
<g id="edge2" class="edge">
<title>1,4 (Casein and Melamine)&#45;&gt;&#45;5,2 (Optical fiber)</title>
<path fill="none" stroke="black" stroke-width="1.52" d="M337.77,-18C293.41,-18 244.76,-18 202.82,-18"/>
<polygon fill="black" stroke="black" stroke-width="1.52" points="202.59,-14.5 192.59,-18 202.59,-21.5 202.59,-14.5"/>
<text text-anchor="middle" x="270.29" y="-6.8" font-family="Times,serif" font-size="14.00">melamine*42720</text>
</g>
</g>
</svg>
