<?xml version="1.0" encoding="UTF-8" standalone="no"?>
<!DOCTYPE svg PUBLIC "-//W3C//DTD SVG 1.1//EN"
 "http://www.w3.org/Graphics/SVG/1.1/DTD/svg11.dtd">
<!-- Generated by graphviz version 2.43.0 (0)
 -->
<!-- Title: %3 Pages: 1 -->
<svg width="1100pt" height="44pt"
 viewBox="0.00 0.00 1099.62 44.00" xmlns="http://www.w3.org/2000/svg" xmlns:xlink="http://www.w3.org/1999/xlink">
<g id="graph0" class="graph" transform="scale(1 1) rotate(0) translate(4 40)">
<title>%3</title>
<polygon fill="white" stroke="transparent" points="-4,4 -4,-40 1095.62,-40 1095.62,4 -4,4"/>
<!-- &#45;6,&#45;4 (High&#45;Power Resistors, Ceramic Capacitor, Inductor) -->
<g id="node1" class="node">
<title>&#45;6,&#45;4 (High&#45;Power Resistors, Ceramic Capacitor, Inductor)</title>
<ellipse fill="none" stroke="black" cx="528.26" cy="-18" rx="278.35" ry="18"/>
<text text-anchor="middle" x="528.26" y="-14.3" font-family="Times,serif" font-size="14.00">&#45;6,&#45;4 (High&#45;Power Resistors, Ceramic Capacitor, Inductor)</text>
</g>
<!-- 2,5 (Simple Circuits) -->
<g id="node2" class="node">
<title>2,5 (Simple Circuits)</title>
<ellipse fill="none" stroke="black" cx="985.03" cy="-18" rx="106.68" ry="18"/>
<text text-anchor="middle" x="985.03" y="-14.3" font-family="Times,serif" font-size="14.00">2,5 (Simple Circuits)</text>
</g>
<!-- &#45;6,&#45;4 (High&#45;Power Resistors, Ceramic Capacitor, Inductor)&#45;&gt;2,5 (Simple Circuits) -->
<g id="edge1" class="edge">
<title>&#45;6,&#45;4 (High&#45;Power Resistors, Ceramic Capacitor, Inductor)&#45;&gt;2,5 (Simple Circuits)</title>
<path fill="none" stroke="black" stroke-width="1.94" d="M806.47,-18C827.88,-18 848.68,-18 868.06,-18"/>
<polygon fill="black" stroke="black" stroke-width="1.94" points="868.06,-21.5 878.06,-18 868.06,-14.5 868.06,-21.5"/>
<text text-anchor="middle" x="837.26" y="-6.8" font-family="Times,serif" font-size="14.00">resistor1*69523</text>
</g>
<!-- 0,0 (LE BUS) -->
<g id="node3" class="node">
<title>0,0 (LE BUS)</title>
<ellipse fill="none" stroke="black" cx="71.49" cy="-18" rx="71.49" ry="18"/>
<text text-anchor="middle" x="71.49" y="-14.3" font-family="Times,serif" font-size="14.00">0,0 (LE BUS)</text>
</g>
<!-- &#45;6,&#45;4 (High&#45;Power Resistors, Ceramic Capacitor, Inductor)&#45;&gt;0,0 (LE BUS) -->
<g id="edge2" class="edge">
<title>&#45;6,&#45;4 (High&#45;Power Resistors, Ceramic Capacitor, Inductor)&#45;&gt;0,0 (LE BUS)</title>
<path fill="none" stroke="black" stroke-width="0.06" d="M250.05,-18C215.05,-18 181.68,-18 153.47,-18"/>
<polygon fill="black" stroke="black" stroke-width="0.06" points="153.32,-14.5 143.32,-18 153.32,-21.5 153.32,-14.5"/>
<text text-anchor="middle" x="201.76" y="-6.8" font-family="Times,serif" font-size="14.00">resistor1*2004</text>
</g>
</g>
</svg>
