<?xml version="1.0" encoding="UTF-8" standalone="no"?>
<!DOCTYPE svg PUBLIC "-//W3C//DTD SVG 1.1//EN"
 "http://www.w3.org/Graphics/SVG/1.1/DTD/svg11.dtd">
<!-- Generated by graphviz version 2.43.0 (0)
 -->
<!-- Title: %3 Pages: 1 -->
<svg width="1382pt" height="1032pt"
 viewBox="0.00 0.00 1382.33 1031.59" xmlns="http://www.w3.org/2000/svg" xmlns:xlink="http://www.w3.org/1999/xlink">
<g id="graph0" class="graph" transform="scale(1 1) rotate(0) translate(4 1027.59)">
<title>%3</title>
<polygon fill="white" stroke="transparent" points="-4,4 -4,-1027.59 1378.33,-1027.59 1378.33,4 -4,4"/>
<!-- &#45;3,2 (Lead and Solder) -->
<g id="node1" class="node">
<title>&#45;3,2 (Lead and Solder)</title>
<ellipse fill="none" stroke="black" cx="801.87" cy="-494.79" rx="113.98" ry="18"/>
<text text-anchor="middle" x="801.87" y="-491.09" font-family="Times,serif" font-size="14.00">&#45;3,2 (Lead and Solder)</text>
</g>
<!-- &#45;3,8 (Urea) -->
<g id="node2" class="node">
<title>&#45;3,8 (Urea)</title>
<ellipse fill="none" stroke="black" cx="1313.23" cy="-494.79" rx="61.19" ry="18"/>
<text text-anchor="middle" x="1313.23" y="-491.09" font-family="Times,serif" font-size="14.00">&#45;3,8 (Urea)</text>
</g>
<!-- &#45;3,2 (Lead and Solder)&#45;&gt;&#45;3,8 (Urea) -->
<g id="edge1" class="edge">
<title>&#45;3,2 (Lead and Solder)&#45;&gt;&#45;3,8 (Urea)</title>
<path fill="none" stroke="black" stroke-width="1.03" d="M915.68,-494.79C1015.51,-494.79 1157.56,-494.79 1242.07,-494.79"/>
<polygon fill="black" stroke="black" stroke-width="1.03" points="1242.08,-498.29 1252.08,-494.79 1242.08,-491.29 1242.08,-498.29"/>
<text text-anchor="middle" x="1030.37" y="-498.59" font-family="Times,serif" font-size="14.00">solder*12112</text>
</g>
<!-- 0,0 (LE BUS) -->
<g id="node3" class="node">
<title>0,0 (LE BUS)</title>
<ellipse fill="none" stroke="black" cx="1191.65" cy="-825.79" rx="71.49" ry="18"/>
<text text-anchor="middle" x="1191.65" y="-822.09" font-family="Times,serif" font-size="14.00">0,0 (LE BUS)</text>
</g>
<!-- &#45;3,2 (Lead and Solder)&#45;&gt;0,0 (LE BUS) -->
<g id="edge2" class="edge">
<title>&#45;3,2 (Lead and Solder)&#45;&gt;0,0 (LE BUS)</title>
<path fill="none" stroke="black" stroke-width="1.73" d="M822.83,-512.59C888.28,-568.17 1088.96,-738.58 1163.44,-801.83"/>
<polygon fill="black" stroke="black" stroke-width="1.73" points="1161.18,-804.5 1171.07,-808.31 1165.71,-799.17 1161.18,-804.5"/>
<text text-anchor="middle" x="944.63" y="-661.01" font-family="Times,serif" font-size="14.00">solder*20432</text>
</g>
<!-- 0,10 (item=meat Meat) -->
<g id="node4" class="node">
<title>0,10 (item=meat Meat)</title>
<ellipse fill="none" stroke="black" cx="825.94" cy="-1005.59" rx="120.48" ry="18"/>
<text text-anchor="middle" x="825.94" y="-1001.89" font-family="Times,serif" font-size="14.00">0,10 (item=meat Meat)</text>
</g>
<!-- &#45;3,2 (Lead and Solder)&#45;&gt;0,10 (item=meat Meat) -->
<g id="edge3" class="edge">
<title>&#45;3,2 (Lead and Solder)&#45;&gt;0,10 (item=meat Meat)</title>
<path fill="none" stroke="black" stroke-width="0.85" d="M802.73,-512.97C806.32,-589.3 820.22,-884.21 824.6,-977.28"/>
<polygon fill="black" stroke="black" stroke-width="0.85" points="821.11,-977.53 825.08,-987.36 828.11,-977.2 821.11,-977.53"/>
<text text-anchor="middle" x="765.17" y="-748.93" font-family="Times,serif" font-size="14.00">solder*10080</text>
</g>
<!-- &#45;4,1 () -->
<g id="node5" class="node">
<title>&#45;4,1 ()</title>
<ellipse fill="none" stroke="black" cx="469.41" cy="-883.33" rx="38.19" ry="18"/>
<text text-anchor="middle" x="469.41" y="-879.63" font-family="Times,serif" font-size="14.00">&#45;4,1 ()</text>
</g>
<!-- &#45;3,2 (Lead and Solder)&#45;&gt;&#45;4,1 () -->
<g id="edge4" class="edge">
<title>&#45;3,2 (Lead and Solder)&#45;&gt;&#45;4,1 ()</title>
<path fill="none" stroke="black" stroke-width="0.85" d="M786.5,-512.75C732.64,-575.7 552.36,-786.38 490.47,-858.71"/>
<polygon fill="black" stroke="black" stroke-width="0.85" points="487.7,-856.56 483.86,-866.44 493.02,-861.11 487.7,-856.56"/>
<text text-anchor="middle" x="589.99" y="-689.53" font-family="Times,serif" font-size="14.00">solder*10064</text>
</g>
<!-- &#45;7,&#45;4 (Isomer&#39;s Slaughterhouse and Daycare Centre, Bone Meal) -->
<g id="node6" class="node">
<title>&#45;7,&#45;4 (Isomer&#39;s Slaughterhouse and Daycare Centre, Bone Meal)</title>
<ellipse fill="none" stroke="black" cx="307.42" cy="-364.37" rx="307.35" ry="18"/>
<text text-anchor="middle" x="307.42" y="-360.67" font-family="Times,serif" font-size="14.00">&#45;7,&#45;4 (Isomer&#39;s Slaughterhouse and Daycare Centre, Bone Meal)</text>
</g>
<!-- &#45;3,2 (Lead and Solder)&#45;&gt;&#45;7,&#45;4 (Isomer&#39;s Slaughterhouse and Daycare Centre, Bone Meal) -->
<g id="edge5" class="edge">
<title>&#45;3,2 (Lead and Solder)&#45;&gt;&#45;7,&#45;4 (Isomer&#39;s Slaughterhouse and Daycare Centre, Bone Meal)</title>
<path fill="none" stroke="black" stroke-width="0.68" d="M743.21,-479.32C653.81,-455.73 483.4,-410.79 384.24,-384.63"/>
<polygon fill="black" stroke="black" stroke-width="0.68" points="384.84,-381.17 374.28,-382 383.05,-387.94 384.84,-381.17"/>
<text text-anchor="middle" x="519.72" y="-435.77" font-family="Times,serif" font-size="14.00">solder*8080</text>
</g>
<!-- &#45;1,6 (Flimble&#39;s Slaughterhouse and Daycare Centre, Auog Products) -->
<g id="node7" class="node">
<title>&#45;1,6 (Flimble&#39;s Slaughterhouse and Daycare Centre, Auog Products)</title>
<ellipse fill="none" stroke="black" cx="986.7" cy="-18" rx="325.74" ry="18"/>
<text text-anchor="middle" x="986.7" y="-14.3" font-family="Times,serif" font-size="14.00">&#45;1,6 (Flimble&#39;s Slaughterhouse and Daycare Centre, Auog Products)</text>
</g>
<!-- &#45;3,2 (Lead and Solder)&#45;&gt;&#45;1,6 (Flimble&#39;s Slaughterhouse and Daycare Centre, Auog Products) -->
<g id="edge6" class="edge">
<title>&#45;3,2 (Lead and Solder)&#45;&gt;&#45;1,6 (Flimble&#39;s Slaughterhouse and Daycare Centre, Auog Products)</title>
<path fill="none" stroke="black" stroke-width="0.85" d="M808.89,-476.68C837.05,-404.03 941.95,-133.42 975.97,-45.67"/>
<polygon fill="black" stroke="black" stroke-width="0.85" points="979.32,-46.72 979.67,-36.13 972.79,-44.19 979.32,-46.72"/>
<text text-anchor="middle" x="843.93" y="-264.98" font-family="Times,serif" font-size="14.00">solder*10048</text>
</g>
</g>
</svg>
