<?xml version="1.0" encoding="UTF-8" standalone="no"?>
<!DOCTYPE svg PUBLIC "-//W3C//DTD SVG 1.1//EN"
 "http://www.w3.org/Graphics/SVG/1.1/DTD/svg11.dtd">
<!-- Generated by graphviz version 2.43.0 (0)
 -->
<!-- Title: %3 Pages: 1 -->
<svg width="821pt" height="44pt"
 viewBox="0.00 0.00 820.79 44.00" xmlns="http://www.w3.org/2000/svg" xmlns:xlink="http://www.w3.org/1999/xlink">
<g id="graph0" class="graph" transform="scale(1 1) rotate(0) translate(4 40)">
<title>%3</title>
<polygon fill="white" stroke="transparent" points="-4,4 -4,-40 816.79,-40 816.79,4 -4,4"/>
<!-- &#45;1,11 (Steel Plate (from molten)) -->
<g id="node1" class="node">
<title>&#45;1,11 (Steel Plate (from molten))</title>
<ellipse fill="none" stroke="black" cx="396.32" cy="-18" rx="161.37" ry="18"/>
<text text-anchor="middle" x="396.32" y="-14.3" font-family="Times,serif" font-size="14.00">&#45;1,11 (Steel Plate (from molten))</text>
</g>
<!-- 1,9 (Ammunition) -->
<g id="node2" class="node">
<title>1,9 (Ammunition)</title>
<ellipse fill="none" stroke="black" cx="721.15" cy="-18" rx="91.78" ry="18"/>
<text text-anchor="middle" x="721.15" y="-14.3" font-family="Times,serif" font-size="14.00">1,9 (Ammunition)</text>
</g>
<!-- &#45;1,11 (Steel Plate (from molten))&#45;&gt;1,9 (Ammunition) -->
<g id="edge1" class="edge">
<title>&#45;1,11 (Steel Plate (from molten))&#45;&gt;1,9 (Ammunition)</title>
<path fill="none" stroke="black" stroke-width="0.27" d="M557.78,-18C578.66,-18 599.57,-18 619.11,-18"/>
<polygon fill="black" stroke="black" stroke-width="0.27" points="619.2,-21.5 629.2,-18 619.2,-14.5 619.2,-21.5"/>
<text text-anchor="middle" x="588.45" y="-6.8" font-family="Times,serif" font-size="14.00">steel&#45;plate*10032</text>
</g>
<!-- 0,0 (LE BUS) -->
<g id="node3" class="node">
<title>0,0 (LE BUS)</title>
<ellipse fill="none" stroke="black" cx="71.49" cy="-18" rx="71.49" ry="18"/>
<text text-anchor="middle" x="71.49" y="-14.3" font-family="Times,serif" font-size="14.00">0,0 (LE BUS)</text>
</g>
<!-- &#45;1,11 (Steel Plate (from molten))&#45;&gt;0,0 (LE BUS) -->
<g id="edge2" class="edge">
<title>&#45;1,11 (Steel Plate (from molten))&#45;&gt;0,0 (LE BUS)</title>
<path fill="none" stroke="black" stroke-width="1.73" d="M234.86,-18C206.59,-18 178.28,-18 153.36,-18"/>
<polygon fill="black" stroke="black" stroke-width="1.73" points="153.27,-14.5 143.27,-18 153.27,-21.5 153.27,-14.5"/>
<text text-anchor="middle" x="194.11" y="-6.8" font-family="Times,serif" font-size="14.00">steel&#45;plate*63728</text>
</g>
</g>
</svg>
