<?xml version="1.0" encoding="UTF-8" standalone="no"?>
<!DOCTYPE svg PUBLIC "-//W3C//DTD SVG 1.1//EN"
 "http://www.w3.org/Graphics/SVG/1.1/DTD/svg11.dtd">
<!-- Generated by graphviz version 2.43.0 (0)
 -->
<!-- Title: %3 Pages: 1 -->
<svg width="770pt" height="44pt"
 viewBox="0.00 0.00 770.10 44.00" xmlns="http://www.w3.org/2000/svg" xmlns:xlink="http://www.w3.org/1999/xlink">
<g id="graph0" class="graph" transform="scale(1 1) rotate(0) translate(4 40)">
<title>%3</title>
<polygon fill="white" stroke="transparent" points="-4,4 -4,-40 766.1,-40 766.1,4 -4,4"/>
<!-- 2,0 (Sodium Sulfate) -->
<g id="node1" class="node">
<title>2,0 (Sodium Sulfate)</title>
<ellipse fill="none" stroke="black" cx="400.87" cy="-18" rx="106.68" ry="18"/>
<text text-anchor="middle" x="400.87" y="-14.3" font-family="Times,serif" font-size="14.00">2,0 (Sodium Sulfate)</text>
</g>
<!-- 0,0 (LE BUS) -->
<g id="node2" class="node">
<title>0,0 (LE BUS)</title>
<ellipse fill="none" stroke="black" cx="690.6" cy="-18" rx="71.49" ry="18"/>
<text text-anchor="middle" x="690.6" y="-14.3" font-family="Times,serif" font-size="14.00">0,0 (LE BUS)</text>
</g>
<!-- 2,0 (Sodium Sulfate)&#45;&gt;0,0 (LE BUS) -->
<g id="edge1" class="edge">
<title>2,0 (Sodium Sulfate)&#45;&gt;0,0 (LE BUS)</title>
<path fill="none" stroke="black" stroke-width="0.4" d="M507.52,-18C541.01,-18 577.43,-18 608.9,-18"/>
<polygon fill="black" stroke="black" stroke-width="0.4" points="608.94,-21.5 618.94,-18 608.94,-14.5 608.94,-21.5"/>
<text text-anchor="middle" x="558.21" y="-6.8" font-family="Times,serif" font-size="14.00">sodium&#45;sulfate*4016</text>
</g>
<!-- 4,2 (More fiberboard) -->
<g id="node3" class="node">
<title>4,2 (More fiberboard)</title>
<ellipse fill="none" stroke="black" cx="111.14" cy="-18" rx="111.28" ry="18"/>
<text text-anchor="middle" x="111.14" y="-14.3" font-family="Times,serif" font-size="14.00">4,2 (More fiberboard)</text>
</g>
<!-- 2,0 (Sodium Sulfate)&#45;&gt;4,2 (More fiberboard) -->
<g id="edge2" class="edge">
<title>2,0 (Sodium Sulfate)&#45;&gt;4,2 (More fiberboard)</title>
<path fill="none" stroke="black" stroke-width="1.6" d="M294.22,-18C274.11,-18 252.95,-18 232.44,-18"/>
<polygon fill="black" stroke="black" stroke-width="1.6" points="232.42,-14.5 222.42,-18 232.42,-21.5 232.42,-14.5"/>
<text text-anchor="middle" x="224.08" y="-6.8" font-family="Times,serif" font-size="14.00">sodium&#45;sulfate*16128</text>
</g>
</g>
</svg>
