<?xml version="1.0" encoding="UTF-8" standalone="no"?>
<!DOCTYPE svg PUBLIC "-//W3C//DTD SVG 1.1//EN"
 "http://www.w3.org/Graphics/SVG/1.1/DTD/svg11.dtd">
<!-- Generated by graphviz version 2.43.0 (0)
 -->
<!-- Title: %3 Pages: 1 -->
<svg width="3083pt" height="2551pt"
 viewBox="0.00 0.00 3083.12 2550.59" xmlns="http://www.w3.org/2000/svg" xmlns:xlink="http://www.w3.org/1999/xlink">
<g id="graph0" class="graph" transform="scale(1 1) rotate(0) translate(4 2546.59)">
<title>%3</title>
<polygon fill="white" stroke="transparent" points="-4,4 -4,-2546.59 3079.12,-2546.59 3079.12,4 -4,4"/>
<!-- &#45;2,8 (syngas from coal dust and also wood) -->
<g id="node1" class="node">
<title>&#45;2,8 (syngas from coal dust and also wood)</title>
<ellipse fill="none" stroke="black" cx="268.43" cy="-1628.02" rx="208.76" ry="18"/>
<text text-anchor="middle" x="268.43" y="-1624.32" font-family="Times,serif" font-size="14.00">&#45;2,8 (syngas from coal dust and also wood)</text>
</g>
<!-- &#45;2,7 (item=borax Borax) -->
<g id="node2" class="node">
<title>&#45;2,7 (item=borax Borax)</title>
<ellipse fill="none" stroke="black" cx="2548.5" cy="-586.75" rx="123.48" ry="18"/>
<text text-anchor="middle" x="2548.5" y="-583.05" font-family="Times,serif" font-size="14.00">&#45;2,7 (item=borax Borax)</text>
</g>
<!-- &#45;2,8 (syngas from coal dust and also wood)&#45;&gt;&#45;2,7 (item=borax Borax) -->
<g id="edge1" class="edge">
<title>&#45;2,8 (syngas from coal dust and also wood)&#45;&gt;&#45;2,7 (item=borax Borax)</title>
<path fill="none" stroke="black" stroke-width="1.68" d="M307.52,-1610.17C580.9,-1485.32 2204.11,-744.02 2501.66,-608.13"/>
<polygon fill="black" stroke="black" stroke-width="1.68" points="2503.24,-611.26 2510.89,-603.92 2500.34,-604.89 2503.24,-611.26"/>
<text text-anchor="middle" x="1329.59" y="-1112.95" font-family="Times,serif" font-size="14.00">syngas&#45;barrel*13433</text>
</g>
<!-- 2,6 (Refined Syngas, Nisi) -->
<g id="node3" class="node">
<title>2,6 (Refined Syngas, Nisi)</title>
<ellipse fill="none" stroke="black" cx="1303.12" cy="-2524.59" rx="131.88" ry="18"/>
<text text-anchor="middle" x="1303.12" y="-2520.89" font-family="Times,serif" font-size="14.00">2,6 (Refined Syngas, Nisi)</text>
</g>
<!-- &#45;2,8 (syngas from coal dust and also wood)&#45;&gt;2,6 (Refined Syngas, Nisi) -->
<g id="edge2" class="edge">
<title>&#45;2,8 (syngas from coal dust and also wood)&#45;&gt;2,6 (Refined Syngas, Nisi)</title>
<path fill="none" stroke="black" stroke-width="6.72" d="M289.56,-1646.34C420.78,-1760.04 1123.36,-2368.82 1274.48,-2499.77"/>
<polygon fill="black" stroke="black" stroke-width="6.72" points="1271.04,-2504.57 1282.45,-2506.68 1278.74,-2495.68 1271.04,-2504.57"/>
<text text-anchor="middle" x="707.02" y="-2076.85" font-family="Times,serif" font-size="14.00">syngas&#45;barrel*53916</text>
</g>
<!-- 2,&#45;2 (Tin Plate, Organic Solvent) -->
<g id="node4" class="node">
<title>2,&#45;2 (Tin Plate, Organic Solvent)</title>
<ellipse fill="none" stroke="black" cx="1303.12" cy="-18" rx="159.77" ry="18"/>
<text text-anchor="middle" x="1303.12" y="-14.3" font-family="Times,serif" font-size="14.00">2,&#45;2 (Tin Plate, Organic Solvent)</text>
</g>
<!-- &#45;2,8 (syngas from coal dust and also wood)&#45;&gt;2,&#45;2 (Tin Plate, Organic Solvent) -->
<g id="edge3" class="edge">
<title>&#45;2,8 (syngas from coal dust and also wood)&#45;&gt;2,&#45;2 (Tin Plate, Organic Solvent)</title>
<path fill="none" stroke="black" stroke-width="0.7" d="M280.05,-1609.94C384.46,-1447.47 1160.22,-240.36 1285.94,-44.74"/>
<polygon fill="black" stroke="black" stroke-width="0.7" points="1288.96,-46.51 1291.43,-36.2 1283.07,-42.72 1288.96,-46.51"/>
<text text-anchor="middle" x="712.49" y="-831.14" font-family="Times,serif" font-size="14.00">syngas&#45;barrel*5600</text>
</g>
<!-- 4,0 (item=raw&#45;borax item=borax Borax and raw borax) -->
<g id="node5" class="node">
<title>4,0 (item=raw&#45;borax item=borax Borax and raw borax)</title>
<ellipse fill="none" stroke="black" cx="268.43" cy="-914.57" rx="268.35" ry="18"/>
<text text-anchor="middle" x="268.43" y="-910.87" font-family="Times,serif" font-size="14.00">4,0 (item=raw&#45;borax item=borax Borax and raw borax)</text>
</g>
<!-- &#45;2,8 (syngas from coal dust and also wood)&#45;&gt;4,0 (item=raw&#45;borax item=borax Borax and raw borax) -->
<g id="edge4" class="edge">
<title>&#45;2,8 (syngas from coal dust and also wood)&#45;&gt;4,0 (item=raw&#45;borax item=borax Borax and raw borax)</title>
<path fill="none" stroke="black" stroke-width="1.48" d="M268.43,-1609.67C268.43,-1512.8 268.43,-1060.95 268.43,-942.86"/>
<polygon fill="black" stroke="black" stroke-width="1.48" points="271.93,-942.8 268.43,-932.8 264.93,-942.8 271.93,-942.8"/>
<text text-anchor="middle" x="193.43" y="-1280.07" font-family="Times,serif" font-size="14.00">syngas&#45;barrel*11832</text>
</g>
<!-- 4,&#45;2 (Ceramic) -->
<g id="node9" class="node">
<title>4,&#45;2 (Ceramic)</title>
<ellipse fill="none" stroke="black" cx="654.15" cy="-2228.21" rx="76.89" ry="18"/>
<text text-anchor="middle" x="654.15" y="-2224.51" font-family="Times,serif" font-size="14.00">4,&#45;2 (Ceramic)</text>
</g>
<!-- &#45;2,8 (syngas from coal dust and also wood)&#45;&gt;4,&#45;2 (Ceramic) -->
<g id="edge16" class="edge">
<title>&#45;2,8 (syngas from coal dust and also wood)&#45;&gt;4,&#45;2 (Ceramic)</title>
<path fill="none" stroke="black" stroke-width="0.14" d="M280.18,-1646.31C335.7,-1732.7 571.7,-2099.92 637.22,-2201.87"/>
<polygon fill="black" stroke="black" stroke-width="0.14" points="634.32,-2203.84 642.67,-2210.36 640.21,-2200.05 634.32,-2203.84"/>
<text text-anchor="middle" x="388.2" y="-1927.89" font-family="Times,serif" font-size="14.00">syngas&#45;barrel*1120</text>
</g>
<!-- 7,3 (Copper mine) -->
<g id="node11" class="node">
<title>7,3 (Copper mine)</title>
<ellipse fill="none" stroke="black" cx="2548.5" cy="-1955.85" rx="94.78" ry="18"/>
<text text-anchor="middle" x="2548.5" y="-1952.15" font-family="Times,serif" font-size="14.00">7,3 (Copper mine)</text>
</g>
<!-- &#45;2,8 (syngas from coal dust and also wood)&#45;&gt;7,3 (Copper mine) -->
<g id="edge15" class="edge">
<title>&#45;2,8 (syngas from coal dust and also wood)&#45;&gt;7,3 (Copper mine)</title>
<path fill="none" stroke="black" stroke-width="2.59" d="M376.1,-1643.5C767.47,-1699.77 2110.02,-1892.8 2462.95,-1943.54"/>
<polygon fill="black" stroke="black" stroke-width="2.59" points="2462.45,-1947.01 2472.85,-1944.97 2463.45,-1940.08 2462.45,-1947.01"/>
<text text-anchor="middle" x="1344.52" y="-1797.32" font-family="Times,serif" font-size="14.00">syngas&#45;barrel*20729</text>
</g>
<!-- 0,6 (Flue Gas Disposal, Syngas From Flue Gas) -->
<g id="node6" class="node">
<title>0,6 (Flue Gas Disposal, Syngas From Flue Gas)</title>
<ellipse fill="none" stroke="black" cx="2009.31" cy="-119.53" rx="229.36" ry="18"/>
<text text-anchor="middle" x="2009.31" y="-115.83" font-family="Times,serif" font-size="14.00">0,6 (Flue Gas Disposal, Syngas From Flue Gas)</text>
</g>
<!-- 0,6 (Flue Gas Disposal, Syngas From Flue Gas)&#45;&gt;&#45;2,7 (item=borax Borax) -->
<g id="edge21" class="edge">
<title>0,6 (Flue Gas Disposal, Syngas From Flue Gas)&#45;&gt;&#45;2,7 (item=borax Borax)</title>
<path fill="none" stroke="black" stroke-width="0.13" d="M2030.12,-137.56C2113.6,-209.9 2424.39,-479.2 2520.2,-562.22"/>
<polygon fill="black" stroke="black" stroke-width="0.13" points="2517.91,-564.87 2527.76,-568.77 2522.49,-559.58 2517.91,-564.87"/>
<text text-anchor="middle" x="2204.66" y="-353.69" font-family="Times,serif" font-size="14.00">syngas&#45;barrel*1056</text>
</g>
<!-- 0,6 (Flue Gas Disposal, Syngas From Flue Gas)&#45;&gt;2,6 (Refined Syngas, Nisi) -->
<g id="edge5" class="edge">
<title>0,6 (Flue Gas Disposal, Syngas From Flue Gas)&#45;&gt;2,6 (Refined Syngas, Nisi)</title>
<path fill="none" stroke="black" stroke-width="2.74" d="M2003.93,-137.85C1943.13,-344.93 1385.87,-2242.78 1311.35,-2496.58"/>
<polygon fill="black" stroke="black" stroke-width="2.74" points="1307.9,-2495.91 1308.44,-2506.49 1314.61,-2497.88 1307.9,-2495.91"/>
<text text-anchor="middle" x="1582.64" y="-1321.02" font-family="Times,serif" font-size="14.00">syngas&#45;barrel*21952</text>
</g>
<!-- 0,6 (Flue Gas Disposal, Syngas From Flue Gas)&#45;&gt;2,&#45;2 (Tin Plate, Organic Solvent) -->
<g id="edge11" class="edge">
<title>0,6 (Flue Gas Disposal, Syngas From Flue Gas)&#45;&gt;2,&#45;2 (Tin Plate, Organic Solvent)</title>
<path fill="none" stroke="black" stroke-width="0.2" d="M1899.36,-103.73C1766.46,-84.62 1544.22,-52.67 1411.87,-33.64"/>
<polygon fill="black" stroke="black" stroke-width="0.2" points="1412.11,-30.13 1401.71,-32.17 1411.11,-37.06 1412.11,-30.13"/>
<text text-anchor="middle" x="1585.11" y="-72.48" font-family="Times,serif" font-size="14.00">syngas&#45;barrel*1584</text>
</g>
<!-- 0,6 (Flue Gas Disposal, Syngas From Flue Gas)&#45;&gt;4,0 (item=raw&#45;borax item=borax Borax and raw borax) -->
<g id="edge6" class="edge">
<title>0,6 (Flue Gas Disposal, Syngas From Flue Gas)&#45;&gt;4,0 (item=raw&#45;borax item=borax Borax and raw borax)</title>
<path fill="none" stroke="black" stroke-width="0.21" d="M1970.1,-137.44C1740.37,-242.36 570.62,-776.56 316.98,-892.39"/>
<polygon fill="black" stroke="black" stroke-width="0.21" points="315.3,-889.32 307.66,-896.65 318.21,-895.68 315.3,-889.32"/>
<text text-anchor="middle" x="1073.04" y="-518.72" font-family="Times,serif" font-size="14.00">syngas&#45;barrel*1680</text>
</g>
<!-- 0,6 (Flue Gas Disposal, Syngas From Flue Gas)&#45;&gt;4,&#45;2 (Ceramic) -->
<g id="edge10" class="edge">
<title>0,6 (Flue Gas Disposal, Syngas From Flue Gas)&#45;&gt;4,&#45;2 (Ceramic)</title>
<path fill="none" stroke="black" stroke-width="0.34" d="M1997.6,-137.76C1874.42,-329.43 818.49,-1972.48 671.18,-2201.7"/>
<polygon fill="black" stroke="black" stroke-width="0.34" points="668.23,-2199.82 665.77,-2210.13 674.12,-2203.61 668.23,-2199.82"/>
<text text-anchor="middle" x="1263.89" y="-1173.53" font-family="Times,serif" font-size="14.00">syngas&#45;barrel*2752</text>
</g>
<!-- 0,6 (Flue Gas Disposal, Syngas From Flue Gas)&#45;&gt;7,3 (Copper mine) -->
<g id="edge20" class="edge">
<title>0,6 (Flue Gas Disposal, Syngas From Flue Gas)&#45;&gt;7,3 (Copper mine)</title>
<path fill="none" stroke="black" stroke-width="0.94" d="M2014.65,-137.71C2066.3,-313.63 2476.89,-1711.97 2540.29,-1927.89"/>
<polygon fill="black" stroke="black" stroke-width="0.94" points="2537.03,-1929.19 2543.2,-1937.8 2543.74,-1927.22 2537.03,-1929.19"/>
<text text-anchor="middle" x="2206.97" y="-1036.6" font-family="Times,serif" font-size="14.00">syngas&#45;barrel*7568</text>
</g>
<!-- 2,7 (Mystery petrochemicals) -->
<g id="node7" class="node">
<title>2,7 (Mystery petrochemicals)</title>
<ellipse fill="none" stroke="black" cx="654.15" cy="-314.38" rx="147.57" ry="18"/>
<text text-anchor="middle" x="654.15" y="-310.68" font-family="Times,serif" font-size="14.00">2,7 (Mystery petrochemicals)</text>
</g>
<!-- 2,7 (Mystery petrochemicals)&#45;&gt;&#45;2,7 (item=borax Borax) -->
<g id="edge12" class="edge">
<title>2,7 (Mystery petrochemicals)&#45;&gt;&#45;2,7 (item=borax Borax)</title>
<path fill="none" stroke="black" stroke-width="0.26" d="M749.71,-328.12C1072.95,-374.59 2123.36,-525.62 2450.39,-572.64"/>
<polygon fill="black" stroke="black" stroke-width="0.26" points="2449.92,-576.11 2460.32,-574.07 2450.92,-569.18 2449.92,-576.11"/>
<text text-anchor="middle" x="1529.55" y="-454.18" font-family="Times,serif" font-size="14.00">syngas&#45;barrel*2064</text>
</g>
<!-- 2,7 (Mystery petrochemicals)&#45;&gt;2,6 (Refined Syngas, Nisi) -->
<g id="edge9" class="edge">
<title>2,7 (Mystery petrochemicals)&#45;&gt;2,6 (Refined Syngas, Nisi)</title>
<path fill="none" stroke="black" stroke-width="1.97" d="M659.47,-332.49C717.06,-528.63 1224.25,-2255.98 1294.95,-2496.77"/>
<polygon fill="black" stroke="black" stroke-width="1.97" points="1291.64,-2497.91 1297.82,-2506.51 1298.36,-2495.93 1291.64,-2497.91"/>
<text text-anchor="middle" x="902.21" y="-1418.43" font-family="Times,serif" font-size="14.00">syngas&#45;barrel*15776</text>
</g>
<!-- 2,7 (Mystery petrochemicals)&#45;&gt;2,&#45;2 (Tin Plate, Organic Solvent) -->
<g id="edge7" class="edge">
<title>2,7 (Mystery petrochemicals)&#45;&gt;2,&#45;2 (Tin Plate, Organic Solvent)</title>
<path fill="none" stroke="black" stroke-width="0.13" d="M692.32,-296.94C804.33,-245.79 1131.97,-96.16 1255.37,-39.81"/>
<polygon fill="black" stroke="black" stroke-width="0.13" points="1256.95,-42.94 1264.59,-35.6 1254.04,-36.57 1256.95,-42.94"/>
<text text-anchor="middle" x="903.34" y="-172.18" font-family="Times,serif" font-size="14.00">syngas&#45;barrel*1072</text>
</g>
<!-- 2,7 (Mystery petrochemicals)&#45;&gt;4,0 (item=raw&#45;borax item=borax Borax and raw borax) -->
<g id="edge17" class="edge">
<title>2,7 (Mystery petrochemicals)&#45;&gt;4,0 (item=raw&#45;borax item=borax Borax and raw borax)</title>
<path fill="none" stroke="black" stroke-width="0.61" d="M642.6,-332.34C587.54,-418.01 351.57,-785.2 285.61,-887.83"/>
<polygon fill="black" stroke="black" stroke-width="0.61" points="282.58,-886.08 280.11,-896.38 288.46,-889.86 282.58,-886.08"/>
<text text-anchor="middle" x="393.61" y="-613.89" font-family="Times,serif" font-size="14.00">syngas&#45;barrel*4864</text>
</g>
<!-- 2,7 (Mystery petrochemicals)&#45;&gt;7,3 (Copper mine) -->
<g id="edge19" class="edge">
<title>2,7 (Mystery petrochemicals)&#45;&gt;7,3 (Copper mine)</title>
<path fill="none" stroke="black" stroke-width="0.92" d="M674.78,-332.25C864.3,-496.47 2300.74,-1741.16 2520.37,-1931.47"/>
<polygon fill="black" stroke="black" stroke-width="0.92" points="2518.1,-1934.13 2527.95,-1938.04 2522.69,-1928.84 2518.1,-1934.13"/>
<text text-anchor="middle" x="1527.07" y="-1135.66" font-family="Times,serif" font-size="14.00">syngas&#45;barrel*7376</text>
</g>
<!-- 4,10 (Fluid Recycling) -->
<g id="node8" class="node">
<title>4,10 (Fluid Recycling)</title>
<ellipse fill="none" stroke="black" cx="2009.31" cy="-2423.06" rx="112.38" ry="18"/>
<text text-anchor="middle" x="2009.31" y="-2419.36" font-family="Times,serif" font-size="14.00">4,10 (Fluid Recycling)</text>
</g>
<!-- 4,10 (Fluid Recycling)&#45;&gt;2,6 (Refined Syngas, Nisi) -->
<g id="edge8" class="edge">
<title>4,10 (Fluid Recycling)&#45;&gt;2,6 (Refined Syngas, Nisi)</title>
<path fill="none" stroke="black" stroke-width="1.48" d="M1925.53,-2435.1C1795.25,-2453.83 1544.55,-2489.88 1404.35,-2510.04"/>
<polygon fill="black" stroke="black" stroke-width="1.48" points="1403.44,-2506.63 1394.04,-2511.52 1404.43,-2513.56 1403.44,-2506.63"/>
<text text-anchor="middle" x="1589.94" y="-2476.37" font-family="Times,serif" font-size="14.00">syngas&#45;barrel*11833</text>
</g>
<!-- 4,10 (Fluid Recycling)&#45;&gt;4,0 (item=raw&#45;borax item=borax Borax and raw borax) -->
<g id="edge14" class="edge">
<title>4,10 (Fluid Recycling)&#45;&gt;4,0 (item=raw&#45;borax item=borax Borax and raw borax)</title>
<path fill="none" stroke="black" stroke-width="0.14" d="M1988.85,-2405.33C1809.55,-2249.96 507.15,-1121.42 297.02,-939.34"/>
<polygon fill="black" stroke="black" stroke-width="0.14" points="299.03,-936.46 289.18,-932.56 294.45,-941.75 299.03,-936.46"/>
<text text-anchor="middle" x="1072.44" y="-1676.14" font-family="Times,serif" font-size="14.00">syngas&#45;barrel*1084</text>
</g>
<!-- 4,10 (Fluid Recycling)&#45;&gt;4,&#45;2 (Ceramic) -->
<g id="edge23" class="edge">
<title>4,10 (Fluid Recycling)&#45;&gt;4,&#45;2 (Ceramic)</title>
<path fill="none" stroke="black" stroke-width="0.07" d="M1925.56,-2411.01C1680.07,-2375.72 964.74,-2272.87 729.85,-2239.1"/>
<polygon fill="black" stroke="black" stroke-width="0.07" points="730.09,-2235.6 719.7,-2237.64 729.1,-2242.53 730.09,-2235.6"/>
<text text-anchor="middle" x="1261.71" y="-2328.86" font-family="Times,serif" font-size="14.00">syngas&#45;barrel*576</text>
</g>
<!-- 4,10 (Fluid Recycling)&#45;&gt;7,3 (Copper mine) -->
<g id="edge18" class="edge">
<title>4,10 (Fluid Recycling)&#45;&gt;7,3 (Copper mine)</title>
<path fill="none" stroke="black" stroke-width="0.36" d="M2029.79,-2405.31C2112.78,-2333.4 2424.21,-2063.55 2520.17,-1980.39"/>
<polygon fill="black" stroke="black" stroke-width="0.36" points="2522.74,-1982.8 2528,-1973.61 2518.15,-1977.51 2522.74,-1982.8"/>
<text text-anchor="middle" x="2204.48" y="-2196.65" font-family="Times,serif" font-size="14.00">syngas&#45;barrel*2902</text>
</g>
<!-- &#45;5,&#45;1 (Coal and Coke and Syngas and Ash and Coke Oven Gas and...) -->
<g id="node10" class="node">
<title>&#45;5,&#45;1 (Coal and Coke and Syngas and Ash and Coke Oven Gas and...)</title>
<ellipse fill="none" stroke="black" cx="2749.5" cy="-1271.3" rx="325.74" ry="18"/>
<text text-anchor="middle" x="2749.5" y="-1267.6" font-family="Times,serif" font-size="14.00">&#45;5,&#45;1 (Coal and Coke and Syngas and Ash and Coke Oven Gas and...)</text>
</g>
<!-- &#45;5,&#45;1 (Coal and Coke and Syngas and Ash and Coke Oven Gas and...)&#45;&gt;2,6 (Refined Syngas, Nisi) -->
<g id="edge13" class="edge">
<title>&#45;5,&#45;1 (Coal and Coke and Syngas and Ash and Coke Oven Gas and...)&#45;&gt;2,6 (Refined Syngas, Nisi)</title>
<path fill="none" stroke="black" stroke-width="0.08" d="M2728.5,-1289.5C2566.59,-1429.79 1518.33,-2338.11 1331.57,-2499.94"/>
<polygon fill="black" stroke="black" stroke-width="0.08" points="1329.08,-2497.47 1323.81,-2506.66 1333.66,-2502.76 1329.08,-2497.47"/>
<text text-anchor="middle" x="1964.03" y="-1898.52" font-family="Times,serif" font-size="14.00">syngas&#45;barrel*656</text>
</g>
<!-- &#45;5,&#45;1 (Coal and Coke and Syngas and Ash and Coke Oven Gas and...)&#45;&gt;2,&#45;2 (Tin Plate, Organic Solvent) -->
<g id="edge22" class="edge">
<title>&#45;5,&#45;1 (Coal and Coke and Syngas and Ash and Coke Oven Gas and...)&#45;&gt;2,&#45;2 (Tin Plate, Organic Solvent)</title>
<path fill="none" stroke="black" stroke-width="0.06" d="M2728.5,-1253.1C2566.59,-1112.8 1518.33,-204.48 1331.57,-42.65"/>
<polygon fill="black" stroke="black" stroke-width="0.06" points="1333.66,-39.83 1323.81,-35.93 1329.08,-45.12 1333.66,-39.83"/>
<text text-anchor="middle" x="1964.03" y="-651.67" font-family="Times,serif" font-size="14.00">syngas&#45;barrel*512</text>
</g>
<!-- &#45;5,&#45;1 (Coal and Coke and Syngas and Ash and Coke Oven Gas and...)&#45;&gt;7,3 (Copper mine) -->
<g id="edge24" class="edge">
<title>&#45;5,&#45;1 (Coal and Coke and Syngas and Ash and Coke Oven Gas and...)&#45;&gt;7,3 (Copper mine)</title>
<path fill="none" stroke="black" stroke-width="0.06" d="M2744.13,-1289.61C2716.46,-1383.83 2590.13,-1814.08 2556.66,-1928.07"/>
<polygon fill="black" stroke="black" stroke-width="0.06" points="2553.26,-1927.22 2553.8,-1937.8 2559.98,-1929.19 2553.26,-1927.22"/>
<text text-anchor="middle" x="2584.39" y="-1612.64" font-family="Times,serif" font-size="14.00">syngas&#45;barrel*512</text>
</g>
</g>
</svg>
