<?xml version="1.0" encoding="UTF-8" standalone="no"?>
<!DOCTYPE svg PUBLIC "-//W3C//DTD SVG 1.1//EN"
 "http://www.w3.org/Graphics/SVG/1.1/DTD/svg11.dtd">
<!-- Generated by graphviz version 2.43.0 (0)
 -->
<!-- Title: %3 Pages: 1 -->
<svg width="1804pt" height="44pt"
 viewBox="0.00 0.00 1803.61 44.00" xmlns="http://www.w3.org/2000/svg" xmlns:xlink="http://www.w3.org/1999/xlink">
<g id="graph0" class="graph" transform="scale(1 1) rotate(0) translate(4 40)">
<title>%3</title>
<polygon fill="white" stroke="transparent" points="-4,4 -4,-40 1799.61,-40 1799.61,4 -4,4"/>
<!-- &#45;9,&#45;11 (Bones mk2) -->
<g id="node1" class="node">
<title>&#45;9,&#45;11 (Bones mk2)</title>
<ellipse fill="none" stroke="black" cx="759.24" cy="-18" rx="98.28" ry="18"/>
<text text-anchor="middle" x="759.24" y="-14.3" font-family="Times,serif" font-size="14.00">&#45;9,&#45;11 (Bones mk2)</text>
</g>
<!-- 0,0 (LE BUS) -->
<g id="node2" class="node">
<title>0,0 (LE BUS)</title>
<ellipse fill="none" stroke="black" cx="1000.88" cy="-18" rx="71.49" ry="18"/>
<text text-anchor="middle" x="1000.88" y="-14.3" font-family="Times,serif" font-size="14.00">0,0 (LE BUS)</text>
</g>
<!-- &#45;9,&#45;11 (Bones mk2)&#45;&gt;0,0 (LE BUS) -->
<g id="edge1" class="edge">
<title>&#45;9,&#45;11 (Bones mk2)&#45;&gt;0,0 (LE BUS)</title>
<path fill="none" stroke="black" stroke-width="2.24" d="M857.52,-18C878,-18 899.37,-18 919.16,-18"/>
<polygon fill="black" stroke="black" stroke-width="2.24" points="919.36,-21.5 929.36,-18 919.36,-14.5 919.36,-21.5"/>
<text text-anchor="middle" x="888.34" y="-6.8" font-family="Times,serif" font-size="14.00">bones*102896</text>
</g>
<!-- &#45;6,&#45;2 (item=fertilizer Fertiliser) -->
<g id="node4" class="node">
<title>&#45;6,&#45;2 (item=fertilizer Fertiliser)</title>
<ellipse fill="none" stroke="black" cx="155.99" cy="-18" rx="155.97" ry="18"/>
<text text-anchor="middle" x="155.99" y="-14.3" font-family="Times,serif" font-size="14.00">&#45;6,&#45;2 (item=fertilizer Fertiliser)</text>
</g>
<!-- &#45;9,&#45;11 (Bones mk2)&#45;&gt;&#45;6,&#45;2 (item=fertilizer Fertiliser) -->
<g id="edge3" class="edge">
<title>&#45;9,&#45;11 (Bones mk2)&#45;&gt;&#45;6,&#45;2 (item=fertilizer Fertiliser)</title>
<path fill="none" stroke="black" stroke-width="0.66" d="M660.98,-18C569.35,-18 430.87,-18 322.08,-18"/>
<polygon fill="black" stroke="black" stroke-width="0.66" points="321.98,-14.5 311.98,-18 321.98,-21.5 321.98,-14.5"/>
<text text-anchor="middle" x="444.53" y="-21.8" font-family="Times,serif" font-size="14.00">bones*30176</text>
</g>
<!-- &#45;1,6 (Flimble&#39;s Slaughterhouse and Daycare Centre, Auog Products) -->
<g id="node3" class="node">
<title>&#45;1,6 (Flimble&#39;s Slaughterhouse and Daycare Centre, Auog Products)</title>
<ellipse fill="none" stroke="black" cx="1469.99" cy="-18" rx="325.74" ry="18"/>
<text text-anchor="middle" x="1469.99" y="-14.3" font-family="Times,serif" font-size="14.00">&#45;1,6 (Flimble&#39;s Slaughterhouse and Daycare Centre, Auog Products)</text>
</g>
<!-- &#45;1,6 (Flimble&#39;s Slaughterhouse and Daycare Centre, Auog Products)&#45;&gt;0,0 (LE BUS) -->
<g id="edge2" class="edge">
<title>&#45;1,6 (Flimble&#39;s Slaughterhouse and Daycare Centre, Auog Products)&#45;&gt;0,0 (LE BUS)</title>
<path fill="none" stroke="black" stroke-width="0.11" d="M1144.18,-18C1122.01,-18 1101.14,-18 1082.54,-18"/>
<polygon fill="black" stroke="black" stroke-width="0.11" points="1082.44,-14.5 1072.44,-18 1082.44,-21.5 1082.44,-14.5"/>
<text text-anchor="middle" x="1113.36" y="-6.8" font-family="Times,serif" font-size="14.00">bones*4885</text>
</g>
</g>
</svg>
