<?xml version="1.0" encoding="UTF-8" standalone="no"?>
<!DOCTYPE svg PUBLIC "-//W3C//DTD SVG 1.1//EN"
 "http://www.w3.org/Graphics/SVG/1.1/DTD/svg11.dtd">
<!-- Generated by graphviz version 2.43.0 (0)
 -->
<!-- Title: %3 Pages: 1 -->
<svg width="7894pt" height="7139pt"
 viewBox="0.00 0.00 7893.67 7138.81" xmlns="http://www.w3.org/2000/svg" xmlns:xlink="http://www.w3.org/1999/xlink">
<g id="graph0" class="graph" transform="scale(1 1) rotate(0) translate(4 7134.81)">
<title>%3</title>
<polygon fill="white" stroke="transparent" points="-4,4 -4,-7134.81 7889.67,-7134.81 7889.67,4 -4,4"/>
<!-- 0,11 () -->
<g id="node1" class="node">
<title>0,11 ()</title>
<ellipse fill="none" stroke="black" cx="7016.58" cy="-2026.24" rx="40.89" ry="18"/>
<text text-anchor="middle" x="7016.58" y="-2022.54" font-family="Times,serif" font-size="14.00">0,11 ()</text>
</g>
<!-- 3,3 (Random electronic components, Small Parts) -->
<g id="node2" class="node">
<title>3,3 (Random electronic components, Small Parts)</title>
<ellipse fill="none" stroke="black" cx="6593.95" cy="-1353.63" rx="240.46" ry="18"/>
<text text-anchor="middle" x="6593.95" y="-1349.93" font-family="Times,serif" font-size="14.00">3,3 (Random electronic components, Small Parts)</text>
</g>
<!-- 0,11 ()&#45;&gt;3,3 (Random electronic components, Small Parts) -->
<g id="edge1" class="edge">
<title>0,11 ()&#45;&gt;3,3 (Random electronic components, Small Parts)</title>
<path fill="none" stroke="black" stroke-width="8.4" d="M7005.5,-2008.6C6947.67,-1916.57 6680.63,-1491.58 6610.74,-1380.34"/>
<polygon fill="black" stroke="black" stroke-width="8.4" points="6616.86,-1376.27 6605.32,-1371.72 6604.41,-1384.1 6616.86,-1376.27"/>
<text text-anchor="middle" x="6743.12" y="-1698.27" font-family="Times,serif" font-size="14.00">iron&#45;plate*734640</text>
</g>
<!-- 0,0 (LE BUS) -->
<g id="node3" class="node">
<title>0,0 (LE BUS)</title>
<ellipse fill="none" stroke="black" cx="7278.95" cy="-2776.03" rx="71.49" ry="18"/>
<text text-anchor="middle" x="7278.95" y="-2772.33" font-family="Times,serif" font-size="14.00">0,0 (LE BUS)</text>
</g>
<!-- 0,11 ()&#45;&gt;0,0 (LE BUS) -->
<g id="edge2" class="edge">
<title>0,11 ()&#45;&gt;0,0 (LE BUS)</title>
<path fill="none" stroke="black" stroke-width="6.3" d="M7022.81,-2044.04C7057.49,-2143.16 7226.83,-2627.08 7269.28,-2748.41"/>
<polygon fill="black" stroke="black" stroke-width="6.3" points="7264.15,-2750.45 7272.66,-2758.07 7274.56,-2746.81 7264.15,-2750.45"/>
<text text-anchor="middle" x="7081.04" y="-2400.02" font-family="Times,serif" font-size="14.00">iron&#45;plate*551040</text>
</g>
<!-- 3,15 (Even Yet More Coke) -->
<g id="node5" class="node">
<title>3,15 (Even Yet More Coke)</title>
<ellipse fill="none" stroke="black" cx="6032.25" cy="-791.93" rx="135.38" ry="18"/>
<text text-anchor="middle" x="6032.25" y="-788.23" font-family="Times,serif" font-size="14.00">3,15 (Even Yet More Coke)</text>
</g>
<!-- 0,11 ()&#45;&gt;3,15 (Even Yet More Coke) -->
<g id="edge9" class="edge">
<title>0,11 ()&#45;&gt;3,15 (Even Yet More Coke)</title>
<path fill="none" stroke="black" stroke-width="1.72" d="M7002.67,-2008.79C6894.2,-1872.78 6184.75,-983.16 6053.22,-818.22"/>
<polygon fill="black" stroke="black" stroke-width="1.72" points="6055.69,-815.71 6046.72,-810.07 6050.22,-820.07 6055.69,-815.71"/>
<text text-anchor="middle" x="6462.94" y="-1417.31" font-family="Times,serif" font-size="14.00">iron&#45;plate*150240</text>
</g>
<!-- &#45;6,1 (Coke and Coal Dust from Biomass (needs Iron plates)) -->
<g id="node6" class="node">
<title>&#45;6,1 (Coke and Coal Dust from Biomass (needs Iron plates))</title>
<ellipse fill="none" stroke="black" cx="5359.64" cy="-369.3" rx="285.95" ry="18"/>
<text text-anchor="middle" x="5359.64" y="-365.6" font-family="Times,serif" font-size="14.00">&#45;6,1 (Coke and Coal Dust from Biomass (needs Iron plates))</text>
</g>
<!-- 0,11 ()&#45;&gt;&#45;6,1 (Coke and Coal Dust from Biomass (needs Iron plates)) -->
<g id="edge4" class="edge">
<title>0,11 ()&#45;&gt;&#45;6,1 (Coke and Coal Dust from Biomass (needs Iron plates))</title>
<path fill="none" stroke="black" stroke-width="1.83" d="M6999.91,-2009.58C6840.05,-1849.71 5579.93,-589.59 5384.95,-394.61"/>
<polygon fill="black" stroke="black" stroke-width="1.83" points="5387.26,-391.97 5377.71,-387.37 5382.31,-396.92 5387.26,-391.97"/>
<text text-anchor="middle" x="6127.43" y="-1205.89" font-family="Times,serif" font-size="14.00">iron&#45;plate*160080</text>
</g>
<!-- 4,3 (item=nexelit&#45;plate Nexelit platery) -->
<g id="node7" class="node">
<title>4,3 (item=nexelit&#45;plate Nexelit platery)</title>
<ellipse fill="none" stroke="black" cx="4609.85" cy="-106.94" rx="194.17" ry="18"/>
<text text-anchor="middle" x="4609.85" y="-103.24" font-family="Times,serif" font-size="14.00">4,3 (item=nexelit&#45;plate Nexelit platery)</text>
</g>
<!-- 0,11 ()&#45;&gt;4,3 (item=nexelit&#45;plate Nexelit platery) -->
<g id="edge26" class="edge">
<title>0,11 ()&#45;&gt;4,3 (item=nexelit&#45;plate Nexelit platery)</title>
<path fill="none" stroke="black" stroke-width="0.32" d="M6996.5,-2010.23C6781.23,-1838.56 4902.78,-340.54 4640.27,-131.19"/>
<polygon fill="black" stroke="black" stroke-width="0.32" points="4642.29,-128.33 4632.29,-124.83 4637.93,-133.81 4642.29,-128.33"/>
<text text-anchor="middle" x="5757.88" y="-1074.51" font-family="Times,serif" font-size="14.00">iron&#45;plate*28080</text>
</g>
<!-- 3,16 (More Coke) -->
<g id="node8" class="node">
<title>3,16 (More Coke)</title>
<ellipse fill="none" stroke="black" cx="3820.48" cy="-18" rx="90.98" ry="18"/>
<text text-anchor="middle" x="3820.48" y="-14.3" font-family="Times,serif" font-size="14.00">3,16 (More Coke)</text>
</g>
<!-- 0,11 ()&#45;&gt;3,16 (More Coke) -->
<g id="edge15" class="edge">
<title>0,11 ()&#45;&gt;3,16 (More Coke)</title>
<path fill="none" stroke="black" stroke-width="1.34" d="M6992.69,-2011.23C6719.63,-1839.66 4191.29,-250.99 3856.93,-40.9"/>
<polygon fill="black" stroke="black" stroke-width="1.34" points="3858.45,-37.72 3848.12,-35.36 3854.72,-43.65 3858.45,-37.72"/>
<text text-anchor="middle" x="5359.81" y="-1029.87" font-family="Times,serif" font-size="14.00">iron&#45;plate*117360</text>
</g>
<!-- 2,2 () -->
<g id="node9" class="node">
<title>2,2 ()</title>
<ellipse fill="none" stroke="black" cx="3031.11" cy="-106.94" rx="35.19" ry="18"/>
<text text-anchor="middle" x="3031.11" y="-103.24" font-family="Times,serif" font-size="14.00">2,2 ()</text>
</g>
<!-- 0,11 ()&#45;&gt;2,2 () -->
<g id="edge14" class="edge">
<title>0,11 ()&#45;&gt;2,2 ()</title>
<path fill="none" stroke="black" stroke-width="1.09" d="M6988.73,-2012.83C6655.6,-1852.4 3439.3,-303.51 3066.33,-123.9"/>
<polygon fill="black" stroke="black" stroke-width="1.09" points="3067.61,-120.63 3057.08,-119.45 3064.57,-126.94 3067.61,-120.63"/>
<text text-anchor="middle" x="4967.03" y="-1072.17" font-family="Times,serif" font-size="14.00">iron&#45;plate*95040</text>
</g>
<!-- &#45;4,1 (item=ulric Ulrics) -->
<g id="node10" class="node">
<title>&#45;4,1 (item=ulric Ulrics)</title>
<ellipse fill="none" stroke="black" cx="2281.32" cy="-369.3" rx="118.08" ry="18"/>
<text text-anchor="middle" x="2281.32" y="-365.6" font-family="Times,serif" font-size="14.00">&#45;4,1 (item=ulric Ulrics)</text>
</g>
<!-- 0,11 ()&#45;&gt;&#45;4,1 (item=ulric Ulrics) -->
<g id="edge8" class="edge">
<title>0,11 ()&#45;&gt;&#45;4,1 (item=ulric Ulrics)</title>
<path fill="none" stroke="black" stroke-width="0.22" d="M6984.46,-2015C6598.12,-1879.82 2848.21,-567.67 2338.56,-389.33"/>
<polygon fill="black" stroke="black" stroke-width="0.22" points="2339.44,-385.93 2328.85,-385.93 2337.13,-392.54 2339.44,-385.93"/>
<text text-anchor="middle" x="4601.01" y="-1205.97" font-family="Times,serif" font-size="14.00">iron&#45;plate*19440</text>
</g>
<!-- 8,3 (Nylon mk2) -->
<g id="node11" class="node">
<title>8,3 (Nylon mk2)</title>
<ellipse fill="none" stroke="black" cx="1608.71" cy="-791.93" rx="85.29" ry="18"/>
<text text-anchor="middle" x="1608.71" y="-788.23" font-family="Times,serif" font-size="14.00">8,3 (Nylon mk2)</text>
</g>
<!-- 0,11 ()&#45;&gt;8,3 (Nylon mk2) -->
<g id="edge23" class="edge">
<title>0,11 ()&#45;&gt;8,3 (Nylon mk2)</title>
<path fill="none" stroke="black" stroke-width="6.74" d="M6979.89,-2017.87C6539.39,-1917.33 2269.88,-942.84 1676.92,-807.5"/>
<polygon fill="black" stroke="black" stroke-width="6.74" points="1677.88,-801.67 1666.82,-805.19 1675.26,-813.17 1677.88,-801.67"/>
<text text-anchor="middle" x="4263.41" y="-1416.48" font-family="Times,serif" font-size="14.00">iron&#45;plate*588960</text>
</g>
<!-- 5,&#45;7 (Emergency Salt) -->
<g id="node12" class="node">
<title>5,&#45;7 (Emergency Salt)</title>
<ellipse fill="none" stroke="black" cx="1047.01" cy="-1353.63" rx="112.38" ry="18"/>
<text text-anchor="middle" x="1047.01" y="-1349.93" font-family="Times,serif" font-size="14.00">5,&#45;7 (Emergency Salt)</text>
</g>
<!-- 0,11 ()&#45;&gt;5,&#45;7 (Emergency Salt) -->
<g id="edge11" class="edge">
<title>0,11 ()&#45;&gt;5,&#45;7 (Emergency Salt)</title>
<path fill="none" stroke="black" stroke-width="6.75" d="M6976.88,-2021.77C6501.18,-1968.17 1897.16,-1449.42 1149.4,-1365.17"/>
<polygon fill="black" stroke="black" stroke-width="6.75" points="1149.79,-1359.27 1139.19,-1364.02 1148.47,-1371.01 1149.79,-1359.27"/>
<text text-anchor="middle" x="3998.14" y="-1697.27" font-family="Times,serif" font-size="14.00">iron&#45;plate*590400</text>
</g>
<!-- 4,4 (Hydrogen Chloride, item=nylon Nylon/Nylon parts) -->
<g id="node13" class="node">
<title>4,4 (Hydrogen Chloride, item=nylon Nylon/Nylon parts)</title>
<ellipse fill="none" stroke="black" cx="624.38" cy="-2026.24" rx="271.05" ry="18"/>
<text text-anchor="middle" x="624.38" y="-2022.54" font-family="Times,serif" font-size="14.00">4,4 (Hydrogen Chloride, item=nylon Nylon/Nylon parts)</text>
</g>
<!-- 0,11 ()&#45;&gt;4,4 (Hydrogen Chloride, item=nylon Nylon/Nylon parts) -->
<g id="edge56" class="edge">
<title>0,11 ()&#45;&gt;4,4 (Hydrogen Chloride, item=nylon Nylon/Nylon parts)</title>
<path fill="none" stroke="black" stroke-width="0.1" d="M6975.34,-2026.24C6501.09,-2026.24 2074.43,-2026.24 906.03,-2026.24"/>
<polygon fill="black" stroke="black" stroke-width="0.1" points="905.82,-2022.74 895.82,-2026.24 905.82,-2029.74 905.82,-2022.74"/>
<text text-anchor="middle" x="3884.69" y="-2030.04" font-family="Times,serif" font-size="14.00">iron&#45;plate*8880</text>
</g>
<!-- &#45;3,&#45;3 (Zinc Plates) -->
<g id="node14" class="node">
<title>&#45;3,&#45;3 (Zinc Plates)</title>
<ellipse fill="none" stroke="black" cx="362.02" cy="-2776.03" rx="92.88" ry="18"/>
<text text-anchor="middle" x="362.02" y="-2772.33" font-family="Times,serif" font-size="14.00">&#45;3,&#45;3 (Zinc Plates)</text>
</g>
<!-- 0,11 ()&#45;&gt;&#45;3,&#45;3 (Zinc Plates) -->
<g id="edge13" class="edge">
<title>0,11 ()&#45;&gt;&#45;3,&#45;3 (Zinc Plates)</title>
<path fill="none" stroke="black" stroke-width="3.2" d="M6976.66,-2030.74C6465.7,-2088.31 1208.94,-2680.61 452.5,-2765.84"/>
<polygon fill="black" stroke="black" stroke-width="3.2" points="452.03,-2762.37 442.48,-2766.97 452.81,-2769.33 452.03,-2762.37"/>
<text text-anchor="middle" x="3649.58" y="-2402.09" font-family="Times,serif" font-size="14.00">iron&#45;plate*279600</text>
</g>
<!-- 4,1 (item=filtration&#45;media Filtration Media) -->
<g id="node15" class="node">
<title>4,1 (item=filtration&#45;media Filtration Media)</title>
<ellipse fill="none" stroke="black" cx="273.08" cy="-3565.4" rx="214.46" ry="18"/>
<text text-anchor="middle" x="273.08" y="-3561.7" font-family="Times,serif" font-size="14.00">4,1 (item=filtration&#45;media Filtration Media)</text>
</g>
<!-- 0,11 ()&#45;&gt;4,1 (item=filtration&#45;media Filtration Media) -->
<g id="edge16" class="edge">
<title>0,11 ()&#45;&gt;4,1 (item=filtration&#45;media Filtration Media)</title>
<path fill="none" stroke="black" stroke-width="1.57" d="M6979.89,-2034.62C6483.07,-2148.01 1095.83,-3377.62 356.89,-3546.27"/>
<polygon fill="black" stroke="black" stroke-width="1.57" points="356.09,-3542.87 347.12,-3548.5 357.65,-3549.69 356.09,-3542.87"/>
<text text-anchor="middle" x="3603.39" y="-2794.25" font-family="Times,serif" font-size="14.00">iron&#45;plate*137280</text>
</g>
<!-- &#45;7,&#45;4 (Isomer&#39;s Slaughterhouse and Daycare Centre, Bone Meal, Auog theft) -->
<g id="node16" class="node">
<title>&#45;7,&#45;4 (Isomer&#39;s Slaughterhouse and Daycare Centre, Bone Meal, Auog theft)</title>
<ellipse fill="none" stroke="black" cx="362.02" cy="-4354.78" rx="362.04" ry="18"/>
<text text-anchor="middle" x="362.02" y="-4351.08" font-family="Times,serif" font-size="14.00">&#45;7,&#45;4 (Isomer&#39;s Slaughterhouse and Daycare Centre, Bone Meal, Auog theft)</text>
</g>
<!-- 0,11 ()&#45;&gt;&#45;7,&#45;4 (Isomer&#39;s Slaughterhouse and Daycare Centre, Bone Meal, Auog theft) -->
<g id="edge17" class="edge">
<title>0,11 ()&#45;&gt;&#45;7,&#45;4 (Isomer&#39;s Slaughterhouse and Daycare Centre, Bone Meal, Auog theft)</title>
<path fill="none" stroke="black" stroke-width="0.35" d="M6984.3,-2037.54C6514.25,-2202.02 1059.89,-4110.58 422.66,-4333.56"/>
<polygon fill="black" stroke="black" stroke-width="0.35" points="421.47,-4330.26 413.19,-4336.87 423.78,-4336.87 421.47,-4330.26"/>
<text text-anchor="middle" x="3642.98" y="-3189.35" font-family="Times,serif" font-size="14.00">iron&#45;plate*30240</text>
</g>
<!-- 7,&#45;2 (item=guts Auog guts) -->
<g id="node17" class="node">
<title>7,&#45;2 (item=guts Auog guts)</title>
<ellipse fill="none" stroke="black" cx="624.38" cy="-5104.57" rx="137.28" ry="18"/>
<text text-anchor="middle" x="624.38" y="-5100.87" font-family="Times,serif" font-size="14.00">7,&#45;2 (item=guts Auog guts)</text>
</g>
<!-- 0,11 ()&#45;&gt;7,&#45;2 (item=guts Auog guts) -->
<g id="edge18" class="edge">
<title>0,11 ()&#45;&gt;7,&#45;2 (item=guts Auog guts)</title>
<path fill="none" stroke="black" stroke-width="0.32" d="M6988.78,-2039.63C6556.42,-2247.85 1218.38,-4818.51 669.82,-5082.68"/>
<polygon fill="black" stroke="black" stroke-width="0.32" points="668.12,-5079.62 660.62,-5087.11 671.15,-5085.93 668.12,-5079.62"/>
<text text-anchor="middle" x="3768.8" y="-3564.96" font-family="Times,serif" font-size="14.00">iron&#45;plate*28080</text>
</g>
<!-- &#45;3,8 (Urea) -->
<g id="node19" class="node">
<title>&#45;3,8 (Urea)</title>
<ellipse fill="none" stroke="black" cx="1047.01" cy="-5777.18" rx="61.19" ry="18"/>
<text text-anchor="middle" x="1047.01" y="-5773.48" font-family="Times,serif" font-size="14.00">&#45;3,8 (Urea)</text>
</g>
<!-- 0,11 ()&#45;&gt;&#45;3,8 (Urea) -->
<g id="edge21" class="edge">
<title>0,11 ()&#45;&gt;&#45;3,8 (Urea)</title>
<path fill="none" stroke="black" stroke-width="0.32" d="M6992.84,-2041.16C6603.49,-2285.81 1549.5,-5461.44 1081.66,-5755.4"/>
<polygon fill="black" stroke="black" stroke-width="0.32" points="1079.56,-5752.59 1072.96,-5760.87 1083.29,-5758.51 1079.56,-5752.59"/>
<text text-anchor="middle" x="3976.75" y="-3902.08" font-family="Times,serif" font-size="14.00">iron&#45;plate*28080</text>
</g>
<!-- 0,9 (Auog Brains) -->
<g id="node20" class="node">
<title>0,9 (Auog Brains)</title>
<ellipse fill="none" stroke="black" cx="1608.71" cy="-6338.88" rx="91.78" ry="18"/>
<text text-anchor="middle" x="1608.71" y="-6335.18" font-family="Times,serif" font-size="14.00">0,9 (Auog Brains)</text>
</g>
<!-- 0,11 ()&#45;&gt;0,9 (Auog Brains) -->
<g id="edge25" class="edge">
<title>0,11 ()&#45;&gt;0,9 (Auog Brains)</title>
<path fill="none" stroke="black" stroke-width="0.22" d="M6996.73,-2042.07C6656.65,-2313.28 2055.85,-5982.29 1638.9,-6314.8"/>
<polygon fill="black" stroke="black" stroke-width="0.22" points="1636.53,-6312.22 1630.89,-6321.19 1640.89,-6317.69 1636.53,-6312.22"/>
<text text-anchor="middle" x="4257.32" y="-4182.24" font-family="Times,serif" font-size="14.00">iron&#45;plate*19440</text>
</g>
<!-- &#45;5,0 (item=small&#45;lampitem=petri&#45;dish Lamptri dishes) -->
<g id="node21" class="node">
<title>&#45;5,0 (item=small&#45;lampitem=petri&#45;dish Lamptri dishes)</title>
<ellipse fill="none" stroke="black" cx="2281.32" cy="-6761.51" rx="263.75" ry="18"/>
<text text-anchor="middle" x="2281.32" y="-6757.81" font-family="Times,serif" font-size="14.00">&#45;5,0 (item=small&#45;lampitem=petri&#45;dish Lamptri dishes)</text>
</g>
<!-- 0,11 ()&#45;&gt;&#45;5,0 (item=small&#45;lampitem=petri&#45;dish Lamptri dishes) -->
<g id="edge28" class="edge">
<title>0,11 ()&#45;&gt;&#45;5,0 (item=small&#45;lampitem=petri&#45;dish Lamptri dishes)</title>
<path fill="none" stroke="black" stroke-width="0.24" d="M6999.9,-2042.92C6707.54,-2335.29 2665.16,-6377.66 2306.68,-6736.14"/>
<polygon fill="black" stroke="black" stroke-width="0.24" points="2304.18,-6733.7 2299.58,-6743.25 2309.13,-6738.65 2304.18,-6733.7"/>
<text text-anchor="middle" x="4592.79" y="-4393.33" font-family="Times,serif" font-size="14.00">iron&#45;plate*20640</text>
</g>
<!-- 2,5 (Simple Circuits) -->
<g id="node22" class="node">
<title>2,5 (Simple Circuits)</title>
<ellipse fill="none" stroke="black" cx="3031.11" cy="-7023.87" rx="106.68" ry="18"/>
<text text-anchor="middle" x="3031.11" y="-7020.17" font-family="Times,serif" font-size="14.00">2,5 (Simple Circuits)</text>
</g>
<!-- 0,11 ()&#45;&gt;2,5 (Simple Circuits) -->
<g id="edge30" class="edge">
<title>0,11 ()&#45;&gt;2,5 (Simple Circuits)</title>
<path fill="none" stroke="black" stroke-width="0.18" d="M7002.93,-2043.36C6759.95,-2348.05 3350.94,-6622.82 3052.01,-6997.66"/>
<polygon fill="black" stroke="black" stroke-width="0.18" points="3049.21,-6995.55 3045.71,-7005.55 3054.69,-6999.92 3049.21,-6995.55"/>
<text text-anchor="middle" x="4966.97" y="-4524.31" font-family="Times,serif" font-size="14.00">iron&#45;plate*16080</text>
</g>
<!-- 2,0 (Sodium Sulfate) -->
<g id="node23" class="node">
<title>2,0 (Sodium Sulfate)</title>
<ellipse fill="none" stroke="black" cx="6494.89" cy="-676.32" rx="106.68" ry="18"/>
<text text-anchor="middle" x="6494.89" y="-672.62" font-family="Times,serif" font-size="14.00">2,0 (Sodium Sulfate)</text>
</g>
<!-- 0,11 ()&#45;&gt;2,0 (Sodium Sulfate) -->
<g id="edge31" class="edge">
<title>0,11 ()&#45;&gt;2,0 (Sodium Sulfate)</title>
<path fill="none" stroke="black" stroke-width="0.86" d="M7009.7,-2008.43C6953.76,-1863.69 6574.05,-881.16 6505.49,-703.75"/>
<polygon fill="black" stroke="black" stroke-width="0.86" points="6508.72,-702.4 6501.85,-694.34 6502.19,-704.93 6508.72,-702.4"/>
<text text-anchor="middle" x="6818.09" y="-1359.89" font-family="Times,serif" font-size="14.00">iron&#45;plate*75600</text>
</g>
<!-- &#45;1,6 (Flimble&#39;s Slaughterhouse and Daycare Centre, Auog Products) -->
<g id="node24" class="node">
<title>&#45;1,6 (Flimble&#39;s Slaughterhouse and Daycare Centre, Auog Products)</title>
<ellipse fill="none" stroke="black" cx="3820.48" cy="-7112.81" rx="325.74" ry="18"/>
<text text-anchor="middle" x="3820.48" y="-7109.11" font-family="Times,serif" font-size="14.00">&#45;1,6 (Flimble&#39;s Slaughterhouse and Daycare Centre, Auog Products)</text>
</g>
<!-- 0,11 ()&#45;&gt;&#45;1,6 (Flimble&#39;s Slaughterhouse and Daycare Centre, Auog Products) -->
<g id="edge32" class="edge">
<title>0,11 ()&#45;&gt;&#45;1,6 (Flimble&#39;s Slaughterhouse and Daycare Centre, Auog Products)</title>
<path fill="none" stroke="black" stroke-width="0.29" d="M7005.64,-2043.66C6810.78,-2353.78 4076.88,-6704.75 3837.23,-7086.15"/>
<polygon fill="black" stroke="black" stroke-width="0.29" points="3834.24,-7084.33 3831.89,-7094.66 3840.17,-7088.05 3834.24,-7084.33"/>
<text text-anchor="middle" x="5360.93" y="-4568.71" font-family="Times,serif" font-size="14.00">iron&#45;plate*25440</text>
</g>
<!-- 9,5 (Niobium complex 2) -->
<g id="node25" class="node">
<title>9,5 (Niobium complex 2)</title>
<ellipse fill="none" stroke="black" cx="4609.85" cy="-7023.87" rx="124.58" ry="18"/>
<text text-anchor="middle" x="4609.85" y="-7020.17" font-family="Times,serif" font-size="14.00">9,5 (Niobium complex 2)</text>
</g>
<!-- 0,11 ()&#45;&gt;9,5 (Niobium complex 2) -->
<g id="edge33" class="edge">
<title>0,11 ()&#45;&gt;9,5 (Niobium complex 2)</title>
<path fill="none" stroke="black" stroke-width="0.58" d="M7007.87,-2044.34C6857.44,-2356.71 4807.66,-6613.12 4623.12,-6996.32"/>
<polygon fill="black" stroke="black" stroke-width="0.58" points="4619.84,-6995.06 4618.66,-7005.59 4626.15,-6998.1 4619.84,-6995.06"/>
<text text-anchor="middle" x="5754.99" y="-4524.13" font-family="Times,serif" font-size="14.00">iron&#45;plate*50880</text>
</g>
<!-- &#45;1,12 (I can&#39;t believe it&#39;s more latex duplicates) -->
<g id="node26" class="node">
<title>&#45;1,12 (I can&#39;t believe it&#39;s more latex duplicates)</title>
<ellipse fill="none" stroke="black" cx="6779.42" cy="-968.5" rx="229.36" ry="18"/>
<text text-anchor="middle" x="6779.42" y="-964.8" font-family="Times,serif" font-size="14.00">&#45;1,12 (I can&#39;t believe it&#39;s more latex duplicates)</text>
</g>
<!-- 0,11 ()&#45;&gt;&#45;1,12 (I can&#39;t believe it&#39;s more latex duplicates) -->
<g id="edge35" class="edge">
<title>0,11 ()&#45;&gt;&#45;1,12 (I can&#39;t believe it&#39;s more latex duplicates)</title>
<path fill="none" stroke="black" stroke-width="0.58" d="M7012.57,-2008.33C6984.69,-1883.99 6820.12,-1150.02 6785.73,-996.61"/>
<polygon fill="black" stroke="black" stroke-width="0.58" points="6789.08,-995.57 6783.48,-986.58 6782.25,-997.1 6789.08,-995.57"/>
<text text-anchor="middle" x="6838.65" y="-1506.27" font-family="Times,serif" font-size="14.00">iron&#45;plate*50400</text>
</g>
<!-- 0,10 (item=meat Meat) -->
<g id="node27" class="node">
<title>0,10 (item=meat Meat)</title>
<ellipse fill="none" stroke="black" cx="5359.64" cy="-6761.51" rx="120.48" ry="18"/>
<text text-anchor="middle" x="5359.64" y="-6757.81" font-family="Times,serif" font-size="14.00">0,10 (item=meat Meat)</text>
</g>
<!-- 0,11 ()&#45;&gt;0,10 (item=meat Meat) -->
<g id="edge37" class="edge">
<title>0,11 ()&#45;&gt;0,10 (item=meat Meat)</title>
<path fill="none" stroke="black" stroke-width="0.1" d="M7010.25,-2044.34C6904.18,-2347.47 5499.79,-6360.98 5369.34,-6733.79"/>
<polygon fill="black" stroke="black" stroke-width="0.1" points="5366.01,-6732.71 5366.01,-6743.3 5372.62,-6735.02 5366.01,-6732.71"/>
<text text-anchor="middle" x="6133.8" y="-4392.87" font-family="Times,serif" font-size="14.00">iron&#45;plate*8640</text>
</g>
<!-- 4,12 (Molten Glass) -->
<g id="node28" class="node">
<title>4,12 (Molten Glass)</title>
<ellipse fill="none" stroke="black" cx="7029.57" cy="-1284.84" rx="102.08" ry="18"/>
<text text-anchor="middle" x="7029.57" y="-1281.14" font-family="Times,serif" font-size="14.00">4,12 (Molten Glass)</text>
</g>
<!-- 0,11 ()&#45;&gt;4,12 (Molten Glass) -->
<g id="edge42" class="edge">
<title>0,11 ()&#45;&gt;4,12 (Molten Glass)</title>
<path fill="none" stroke="black" stroke-width="0.15" d="M7016.9,-2007.92C7018.65,-1908.56 7026.95,-1434.48 7029.08,-1313.17"/>
<polygon fill="black" stroke="black" stroke-width="0.15" points="7032.58,-1312.92 7029.26,-1302.86 7025.58,-1312.8 7032.58,-1312.92"/>
<text text-anchor="middle" x="6962.49" y="-1664.34" font-family="Times,serif" font-size="14.00">iron&#45;plate*12720</text>
</g>
<!-- 2,14 (Latex) -->
<g id="node29" class="node">
<title>2,14 (Latex)</title>
<ellipse fill="none" stroke="black" cx="6032.25" cy="-6338.88" rx="66.89" ry="18"/>
<text text-anchor="middle" x="6032.25" y="-6335.18" font-family="Times,serif" font-size="14.00">2,14 (Latex)</text>
</g>
<!-- 0,11 ()&#45;&gt;2,14 (Latex) -->
<g id="edge43" class="edge">
<title>0,11 ()&#45;&gt;2,14 (Latex)</title>
<path fill="none" stroke="black" stroke-width="0.86" d="M7012.41,-2044.53C6946.44,-2333.55 6119.77,-5955.42 6038.65,-6310.85"/>
<polygon fill="black" stroke="black" stroke-width="0.86" points="6035.23,-6310.1 6036.42,-6320.63 6042.06,-6311.66 6035.23,-6310.1"/>
<text text-anchor="middle" x="6465.03" y="-4181.49" font-family="Times,serif" font-size="14.00">iron&#45;plate*75600</text>
</g>
<!-- &#45;1,&#45;2 (Aramid fiber) -->
<g id="node30" class="node">
<title>&#45;1,&#45;2 (Aramid fiber)</title>
<ellipse fill="none" stroke="black" cx="7180.13" cy="-1513.09" rx="99.38" ry="18"/>
<text text-anchor="middle" x="7180.13" y="-1509.39" font-family="Times,serif" font-size="14.00">&#45;1,&#45;2 (Aramid fiber)</text>
</g>
<!-- 0,11 ()&#45;&gt;&#45;1,&#45;2 (Aramid fiber) -->
<g id="edge44" class="edge">
<title>0,11 ()&#45;&gt;&#45;1,&#45;2 (Aramid fiber)</title>
<path fill="none" stroke="black" stroke-width="0.06" d="M7022.31,-2008.28C7046.67,-1931.85 7141.79,-1633.39 7171.33,-1540.7"/>
<polygon fill="black" stroke="black" stroke-width="0.06" points="7174.66,-1541.76 7174.37,-1531.17 7167.99,-1539.64 7174.66,-1541.76"/>
<text text-anchor="middle" x="7040.82" y="-1778.29" font-family="Times,serif" font-size="14.00">iron&#45;plate*5520</text>
</g>
<!-- &#45;1,7 (Rayon) -->
<g id="node31" class="node">
<title>&#45;1,7 (Rayon)</title>
<ellipse fill="none" stroke="black" cx="6593.95" cy="-5777.18" rx="66.89" ry="18"/>
<text text-anchor="middle" x="6593.95" y="-5773.48" font-family="Times,serif" font-size="14.00">&#45;1,7 (Rayon)</text>
</g>
<!-- 0,11 ()&#45;&gt;&#45;1,7 (Rayon) -->
<g id="edge45" class="edge">
<title>0,11 ()&#45;&gt;&#45;1,7 (Rayon)</title>
<path fill="none" stroke="black" stroke-width="0.35" d="M7014.56,-2044.23C6984.7,-2309.21 6634.36,-5418.53 6597.15,-5748.82"/>
<polygon fill="black" stroke="black" stroke-width="0.35" points="6593.65,-5748.66 6596,-5758.99 6600.6,-5749.44 6593.65,-5748.66"/>
<text text-anchor="middle" x="6745.35" y="-3900.32" font-family="Times,serif" font-size="14.00">iron&#45;plate*30720</text>
</g>
<!-- 4,6 (Circuit substrate and Doped silicon) -->
<g id="node32" class="node">
<title>4,6 (Circuit substrate and Doped silicon)</title>
<ellipse fill="none" stroke="black" cx="7016.58" cy="-5104.57" rx="199.56" ry="18"/>
<text text-anchor="middle" x="7016.58" y="-5100.87" font-family="Times,serif" font-size="14.00">4,6 (Circuit substrate and Doped silicon)</text>
</g>
<!-- 0,11 ()&#45;&gt;4,6 (Circuit substrate and Doped silicon) -->
<g id="edge62" class="edge">
<title>0,11 ()&#45;&gt;4,6 (Circuit substrate and Doped silicon)</title>
<path fill="none" stroke="black" stroke-width="0.02" d="M7016.58,-2044.32C7016.58,-2281.6 7016.58,-4779.69 7016.58,-5075.91"/>
<polygon fill="black" stroke="black" stroke-width="0.02" points="7013.08,-5076.24 7016.58,-5086.24 7020.08,-5076.24 7013.08,-5076.24"/>
<text text-anchor="middle" x="6960.58" y="-3563.92" font-family="Times,serif" font-size="14.00">iron&#45;plate*2160</text>
</g>
<!-- &#45;9,&#45;10 (Bedding and cages) -->
<g id="node33" class="node">
<title>&#45;9,&#45;10 (Bedding and cages)</title>
<ellipse fill="none" stroke="black" cx="7329.33" cy="-1780.13" rx="134.58" ry="18"/>
<text text-anchor="middle" x="7329.33" y="-1776.43" font-family="Times,serif" font-size="14.00">&#45;9,&#45;10 (Bedding and cages)</text>
</g>
<!-- 0,11 ()&#45;&gt;&#45;9,&#45;10 (Bedding and cages) -->
<g id="edge48" class="edge">
<title>0,11 ()&#45;&gt;&#45;9,&#45;10 (Bedding and cages)</title>
<path fill="none" stroke="black" stroke-width="0.29" d="M7036.62,-2010.47C7089.78,-1968.64 7234.66,-1854.63 7298.47,-1804.42"/>
<polygon fill="black" stroke="black" stroke-width="0.29" points="7300.86,-1806.99 7306.55,-1798.06 7296.53,-1801.49 7300.86,-1806.99"/>
<text text-anchor="middle" x="7107.04" y="-1911.25" font-family="Times,serif" font-size="14.00">iron&#45;plate*25200</text>
</g>
<!-- 8,8 (Glass and lamps) -->
<g id="node34" class="node">
<title>8,8 (Glass and lamps)</title>
<ellipse fill="none" stroke="black" cx="7278.95" cy="-4354.78" rx="111.28" ry="18"/>
<text text-anchor="middle" x="7278.95" y="-4351.08" font-family="Times,serif" font-size="14.00">8,8 (Glass and lamps)</text>
</g>
<!-- 0,11 ()&#45;&gt;8,8 (Glass and lamps) -->
<g id="edge49" class="edge">
<title>0,11 ()&#45;&gt;8,8 (Glass and lamps)</title>
<path fill="none" stroke="black" stroke-width="1.15" d="M7018.62,-2044.31C7041.37,-2246.19 7247.6,-4076.61 7275.77,-4326.55"/>
<polygon fill="black" stroke="black" stroke-width="1.15" points="7272.3,-4327.1 7276.9,-4336.64 7279.26,-4326.31 7272.3,-4327.1"/>
<text text-anchor="middle" x="7082.19" y="-3189.23" font-family="Times,serif" font-size="14.00">iron&#45;plate*100800</text>
</g>
<!-- &#45;1,8 (Fibre via. moss) -->
<g id="node35" class="node">
<title>&#45;1,8 (Fibre via. moss)</title>
<ellipse fill="none" stroke="black" cx="7461.08" cy="-2066.97" rx="109.38" ry="18"/>
<text text-anchor="middle" x="7461.08" y="-2063.27" font-family="Times,serif" font-size="14.00">&#45;1,8 (Fibre via. moss)</text>
</g>
<!-- 0,11 ()&#45;&gt;&#45;1,8 (Fibre via. moss) -->
<g id="edge50" class="edge">
<title>0,11 ()&#45;&gt;&#45;1,8 (Fibre via. moss)</title>
<path fill="none" stroke="black" stroke-width="0.07" d="M7056.81,-2029.93C7123.69,-2036.06 7259.83,-2048.53 7355.58,-2057.3"/>
<polygon fill="black" stroke="black" stroke-width="0.07" points="7355.32,-2060.79 7365.59,-2058.22 7355.95,-2053.82 7355.32,-2060.79"/>
<text text-anchor="middle" x="7150.2" y="-2047.42" font-family="Times,serif" font-size="14.00">iron&#45;plate*6480</text>
</g>
<!-- &#45;7,&#45;2 (Uranium Processing) -->
<g id="node36" class="node">
<title>&#45;7,&#45;2 (Uranium Processing)</title>
<ellipse fill="none" stroke="black" cx="7569.81" cy="-2364.68" rx="135.68" ry="18"/>
<text text-anchor="middle" x="7569.81" y="-2360.98" font-family="Times,serif" font-size="14.00">&#45;7,&#45;2 (Uranium Processing)</text>
</g>
<!-- 0,11 ()&#45;&gt;&#45;7,&#45;2 (Uranium Processing) -->
<g id="edge54" class="edge">
<title>0,11 ()&#45;&gt;&#45;7,&#45;2 (Uranium Processing)</title>
<path fill="none" stroke="black" stroke-width="0.06" d="M7040.71,-2041C7127.81,-2094.28 7426.42,-2276.96 7532.25,-2341.7"/>
<polygon fill="black" stroke="black" stroke-width="0.06" points="7530.65,-2344.82 7541.01,-2347.05 7534.3,-2338.85 7530.65,-2344.82"/>
<text text-anchor="middle" x="7230.48" y="-2195.15" font-family="Times,serif" font-size="14.00">iron&#45;plate*5040</text>
</g>
<!-- &#45;9,&#45;11 (Bones mk2) -->
<g id="node37" class="node">
<title>&#45;9,&#45;11 (Bones mk2)</title>
<ellipse fill="none" stroke="black" cx="7651.72" cy="-2659.41" rx="98.28" ry="18"/>
<text text-anchor="middle" x="7651.72" y="-2655.71" font-family="Times,serif" font-size="14.00">&#45;9,&#45;11 (Bones mk2)</text>
</g>
<!-- 0,11 ()&#45;&gt;&#45;9,&#45;11 (Bones mk2) -->
<g id="edge59" class="edge">
<title>0,11 ()&#45;&gt;&#45;9,&#45;11 (Bones mk2)</title>
<path fill="none" stroke="black" stroke-width="0.29" d="M7033.24,-2042.85C7120.13,-2129.46 7521.24,-2529.33 7626.41,-2634.18"/>
<polygon fill="black" stroke="black" stroke-width="0.29" points="7624.19,-2636.91 7633.74,-2641.49 7629.13,-2631.95 7624.19,-2636.91"/>
<text text-anchor="middle" x="7269.33" y="-2342.32" font-family="Times,serif" font-size="14.00">iron&#45;plate*25200</text>
</g>
<!-- &#45;8,&#45;11 (Fetal serum) -->
<g id="node38" class="node">
<title>&#45;8,&#45;11 (Fetal serum)</title>
<ellipse fill="none" stroke="black" cx="7705.26" cy="-2926.88" rx="102.88" ry="18"/>
<text text-anchor="middle" x="7705.26" y="-2923.18" font-family="Times,serif" font-size="14.00">&#45;8,&#45;11 (Fetal serum)</text>
</g>
<!-- 0,11 ()&#45;&gt;&#45;8,&#45;11 (Fetal serum) -->
<g id="edge60" class="edge">
<title>0,11 ()&#45;&gt;&#45;8,&#45;11 (Fetal serum)</title>
<path fill="none" stroke="black" stroke-width="0.29" d="M7029.73,-2043.43C7114.34,-2154.08 7582.08,-2765.79 7685.16,-2900.59"/>
<polygon fill="black" stroke="black" stroke-width="0.29" points="7682.56,-2902.95 7691.42,-2908.77 7688.12,-2898.7 7682.56,-2902.95"/>
<text text-anchor="middle" x="7296.94" y="-2475.81" font-family="Times,serif" font-size="14.00">iron&#45;plate*25200</text>
</g>
<!-- 6,4 (Electronic components) -->
<g id="node39" class="node">
<title>6,4 (Electronic components)</title>
<ellipse fill="none" stroke="black" cx="7743.98" cy="-3240.79" rx="141.88" ry="18"/>
<text text-anchor="middle" x="7743.98" y="-3237.09" font-family="Times,serif" font-size="14.00">6,4 (Electronic components)</text>
</g>
<!-- 0,11 ()&#45;&gt;6,4 (Electronic components) -->
<g id="edge63" class="edge">
<title>0,11 ()&#45;&gt;6,4 (Electronic components)</title>
<path fill="none" stroke="black" stroke-width="0.12" d="M7027.15,-2043.88C7108,-2178.88 7628.33,-3047.69 7727.63,-3213.48"/>
<polygon fill="black" stroke="black" stroke-width="0.12" points="7724.91,-3215.76 7733.05,-3222.54 7730.92,-3212.16 7724.91,-3215.76"/>
<text text-anchor="middle" x="7316.89" y="-2632.48" font-family="Times,serif" font-size="14.00">iron&#45;plate*10080</text>
</g>
<!-- &#45;1,10 (Iron Plates) -->
<g id="node4" class="node">
<title>&#45;1,10 (Iron Plates)</title>
<ellipse fill="none" stroke="black" cx="7367.89" cy="-3565.4" rx="94.78" ry="18"/>
<text text-anchor="middle" x="7367.89" y="-3561.7" font-family="Times,serif" font-size="14.00">&#45;1,10 (Iron Plates)</text>
</g>
<!-- &#45;1,10 (Iron Plates)&#45;&gt;3,3 (Random electronic components, Small Parts) -->
<g id="edge22" class="edge">
<title>&#45;1,10 (Iron Plates)&#45;&gt;3,3 (Random electronic components, Small Parts)</title>
<path fill="none" stroke="black" stroke-width="2.05" d="M7361.54,-3547.28C7292.86,-3351.01 6688.01,-1622.44 6603.7,-1381.47"/>
<polygon fill="black" stroke="black" stroke-width="2.05" points="6606.89,-1380.01 6600.28,-1371.72 6600.28,-1382.32 6606.89,-1380.01"/>
<text text-anchor="middle" x="6917.62" y="-2468.17" font-family="Times,serif" font-size="14.00">iron&#45;plate*179440</text>
</g>
<!-- &#45;1,10 (Iron Plates)&#45;&gt;0,0 (LE BUS) -->
<g id="edge24" class="edge">
<title>&#45;1,10 (Iron Plates)&#45;&gt;0,0 (LE BUS)</title>
<path fill="none" stroke="black" stroke-width="0.66" d="M7365.82,-3547.05C7354.14,-3443.36 7296.4,-2930.94 7282.14,-2804.35"/>
<polygon fill="black" stroke="black" stroke-width="0.66" points="7285.6,-2803.83 7281,-2794.28 7278.64,-2804.61 7285.6,-2803.83"/>
<text text-anchor="middle" x="7263.48" y="-3179.5" font-family="Times,serif" font-size="14.00">iron&#45;plate*57520</text>
</g>
<!-- &#45;1,10 (Iron Plates)&#45;&gt;3,15 (Even Yet More Coke) -->
<g id="edge3" class="edge">
<title>&#45;1,10 (Iron Plates)&#45;&gt;3,15 (Even Yet More Coke)</title>
<path fill="none" stroke="black" stroke-width="0.67" d="M7359.18,-3547.33C7251.41,-3323.54 6176.97,-1092.44 6045.43,-819.29"/>
<polygon fill="black" stroke="black" stroke-width="0.67" points="6048.48,-817.56 6040.99,-810.07 6042.17,-820.6 6048.48,-817.56"/>
<text text-anchor="middle" x="6641.8" y="-2187.11" font-family="Times,serif" font-size="14.00">iron&#45;plate*58240</text>
</g>
<!-- &#45;1,10 (Iron Plates)&#45;&gt;&#45;6,1 (Coke and Coal Dust from Biomass (needs Iron plates)) -->
<g id="edge36" class="edge">
<title>&#45;1,10 (Iron Plates)&#45;&gt;&#45;6,1 (Coke and Coal Dust from Biomass (needs Iron plates))</title>
<path fill="none" stroke="black" stroke-width="0.54" d="M7356.59,-3547.43C7204.4,-3305.21 5562.18,-691.64 5376.67,-396.4"/>
<polygon fill="black" stroke="black" stroke-width="0.54" points="5379.43,-394.21 5371.14,-387.6 5373.5,-397.93 5379.43,-394.21"/>
<text text-anchor="middle" x="6306.13" y="-1975.71" font-family="Times,serif" font-size="14.00">iron&#45;plate*47280</text>
</g>
<!-- &#45;1,10 (Iron Plates)&#45;&gt;4,3 (item=nexelit&#45;plate Nexelit platery) -->
<g id="edge5" class="edge">
<title>&#45;1,10 (Iron Plates)&#45;&gt;4,3 (item=nexelit&#45;plate Nexelit platery)</title>
<path fill="none" stroke="black" stroke-width="0.07" d="M7353.38,-3547.21C7149.99,-3292.17 4872.83,-436.71 4630.67,-133.04"/>
<polygon fill="black" stroke="black" stroke-width="0.07" points="4633.38,-130.83 4624.41,-125.19 4627.9,-135.19 4633.38,-130.83"/>
<text text-anchor="middle" x="5936.02" y="-1843.93" font-family="Times,serif" font-size="14.00">iron&#45;plate*6240</text>
</g>
<!-- &#45;1,10 (Iron Plates)&#45;&gt;3,16 (More Coke) -->
<g id="edge6" class="edge">
<title>&#45;1,10 (Iron Plates)&#45;&gt;3,16 (More Coke)</title>
<path fill="none" stroke="black" stroke-width="1.04" d="M7350.06,-3547.58C7093.57,-3291.08 4150.5,-348.02 3845.91,-43.43"/>
<polygon fill="black" stroke="black" stroke-width="1.04" points="3847.98,-40.55 3838.43,-35.95 3843.03,-45.5 3847.98,-40.55"/>
<text text-anchor="middle" x="5537.49" y="-1799.3" font-family="Times,serif" font-size="14.00">iron&#45;plate*90720</text>
</g>
<!-- &#45;1,10 (Iron Plates)&#45;&gt;2,2 () -->
<g id="edge7" class="edge">
<title>&#45;1,10 (Iron Plates)&#45;&gt;2,2 ()</title>
<path fill="none" stroke="black" stroke-width="0.34" d="M7345.84,-3547.82C7029.39,-3295.46 3406.96,-406.67 3058.07,-128.44"/>
<polygon fill="black" stroke="black" stroke-width="0.34" points="3060.22,-125.68 3050.22,-122.18 3055.86,-131.16 3060.22,-125.68"/>
<text text-anchor="middle" x="5141.46" y="-1841.93" font-family="Times,serif" font-size="14.00">iron&#45;plate*29440</text>
</g>
<!-- &#45;1,10 (Iron Plates)&#45;&gt;&#45;4,1 (item=ulric Ulrics) -->
<g id="edge34" class="edge">
<title>&#45;1,10 (Iron Plates)&#45;&gt;&#45;4,1 (item=ulric Ulrics)</title>
<path fill="none" stroke="black" stroke-width="0.1" d="M7340.21,-3548.02C6958.77,-3308.34 2755.59,-667.3 2318.07,-392.4"/>
<polygon fill="black" stroke="black" stroke-width="0.1" points="2319.62,-389.24 2309.29,-386.88 2315.9,-395.16 2319.62,-389.24"/>
<text text-anchor="middle" x="4773.14" y="-1974.01" font-family="Times,serif" font-size="14.00">iron&#45;plate*8320</text>
</g>
<!-- &#45;1,10 (Iron Plates)&#45;&gt;8,3 (Nylon mk2) -->
<g id="edge10" class="edge">
<title>&#45;1,10 (Iron Plates)&#45;&gt;8,3 (Nylon mk2)</title>
<path fill="none" stroke="black" stroke-width="2.64" d="M7332.97,-3548.59C6879.61,-3330.26 2155.42,-1055.21 1652.07,-812.81"/>
<polygon fill="black" stroke="black" stroke-width="2.64" points="1653.48,-809.6 1642.95,-808.42 1650.44,-815.91 1653.48,-809.6"/>
<text text-anchor="middle" x="4427.52" y="-2184.5" font-family="Times,serif" font-size="14.00">iron&#45;plate*230720</text>
</g>
<!-- &#45;1,10 (Iron Plates)&#45;&gt;5,&#45;7 (Emergency Salt) -->
<g id="edge41" class="edge">
<title>&#45;1,10 (Iron Plates)&#45;&gt;5,&#45;7 (Emergency Salt)</title>
<path fill="none" stroke="black" stroke-width="2.93" d="M7322.41,-3549.49C6787.22,-3362.22 1697.56,-1581.27 1103.5,-1373.4"/>
<polygon fill="black" stroke="black" stroke-width="2.93" points="1104.47,-1370.03 1093.87,-1370.03 1102.15,-1376.64 1104.47,-1370.03"/>
<text text-anchor="middle" x="4147.96" y="-2465.25" font-family="Times,serif" font-size="14.00">iron&#45;plate*256320</text>
</g>
<!-- &#45;1,10 (Iron Plates)&#45;&gt;4,4 (Hydrogen Chloride, item=nylon Nylon/Nylon parts) -->
<g id="edge12" class="edge">
<title>&#45;1,10 (Iron Plates)&#45;&gt;4,4 (Hydrogen Chloride, item=nylon Nylon/Nylon parts)</title>
<path fill="none" stroke="black" stroke-width="0.05" d="M7307.01,-3551.51C6682.39,-3408.94 1446.63,-2213.92 710.3,-2045.85"/>
<polygon fill="black" stroke="black" stroke-width="0.05" points="710.83,-2042.38 700.3,-2043.57 709.27,-2049.21 710.83,-2042.38"/>
<text text-anchor="middle" x="3952.65" y="-2802.48" font-family="Times,serif" font-size="14.00">iron&#45;plate*4240</text>
</g>
<!-- &#45;1,10 (Iron Plates)&#45;&gt;&#45;3,&#45;3 (Zinc Plates) -->
<g id="edge27" class="edge">
<title>&#45;1,10 (Iron Plates)&#45;&gt;&#45;3,&#45;3 (Zinc Plates)</title>
<path fill="none" stroke="black" stroke-width="2.32" d="M7286.17,-3556.2C6559.63,-3474.34 1215.35,-2872.18 452.54,-2786.23"/>
<polygon fill="black" stroke="black" stroke-width="2.32" points="452.77,-2782.74 442.44,-2785.09 451.98,-2789.69 452.77,-2782.74"/>
<text text-anchor="middle" x="3804.36" y="-3175.01" font-family="Times,serif" font-size="14.00">iron&#45;plate*202480</text>
</g>
<!-- &#45;1,10 (Iron Plates)&#45;&gt;4,1 (item=filtration&#45;media Filtration Media) -->
<g id="edge20" class="edge">
<title>&#45;1,10 (Iron Plates)&#45;&gt;4,1 (item=filtration&#45;media Filtration Media)</title>
<path fill="none" stroke="black" stroke-width="0.26" d="M7272.96,-3565.4C6527.37,-3565.4 1612.51,-3565.4 497.69,-3565.4"/>
<polygon fill="black" stroke="black" stroke-width="0.26" points="497.56,-3561.9 487.56,-3565.4 497.56,-3568.9 497.56,-3561.9"/>
<text text-anchor="middle" x="3945.82" y="-3569.2" font-family="Times,serif" font-size="14.00">iron&#45;plate*22960</text>
</g>
<!-- &#45;1,10 (Iron Plates)&#45;&gt;&#45;7,&#45;4 (Isomer&#39;s Slaughterhouse and Daycare Centre, Bone Meal, Auog theft) -->
<g id="edge57" class="edge">
<title>&#45;1,10 (Iron Plates)&#45;&gt;&#45;7,&#45;4 (Isomer&#39;s Slaughterhouse and Daycare Centre, Bone Meal, Auog theft)</title>
<path fill="none" stroke="black" stroke-width="0.07" d="M7286.17,-3574.61C6577.86,-3654.42 1480.67,-4228.73 518.48,-4337.15"/>
<polygon fill="black" stroke="black" stroke-width="0.07" points="517.92,-4333.69 508.38,-4338.29 518.71,-4340.64 517.92,-4333.69"/>
<text text-anchor="middle" x="3846.32" y="-3959.68" font-family="Times,serif" font-size="14.00">iron&#45;plate*6320</text>
</g>
<!-- &#45;1,10 (Iron Plates)&#45;&gt;7,&#45;2 (item=guts Auog guts) -->
<g id="edge58" class="edge">
<title>&#45;1,10 (Iron Plates)&#45;&gt;7,&#45;2 (item=guts Auog guts)</title>
<path fill="none" stroke="black" stroke-width="0.1" d="M7307.01,-3579.3C6680.18,-3722.37 1409.53,-4925.36 702.65,-5086.7"/>
<polygon fill="black" stroke="black" stroke-width="0.1" points="701.8,-5083.31 692.82,-5088.94 703.35,-5090.13 701.8,-5083.31"/>
<text text-anchor="middle" x="3948.83" y="-4336.8" font-family="Times,serif" font-size="14.00">iron&#45;plate*8320</text>
</g>
<!-- 2,13 (Polybutadiene) -->
<g id="node18" class="node">
<title>2,13 (Polybutadiene)</title>
<ellipse fill="none" stroke="black" cx="7631.74" cy="-3565.4" rx="106.68" ry="18"/>
<text text-anchor="middle" x="7631.74" y="-3561.7" font-family="Times,serif" font-size="14.00">2,13 (Polybutadiene)</text>
</g>
<!-- &#45;1,10 (Iron Plates)&#45;&gt;2,13 (Polybutadiene) -->
<g id="edge19" class="edge">
<title>&#45;1,10 (Iron Plates)&#45;&gt;2,13 (Polybutadiene)</title>
<path fill="none" stroke="black" stroke-width="0.29" d="M7463.14,-3565.4C7479.92,-3565.4 7497.57,-3565.4 7514.86,-3565.4"/>
<polygon fill="black" stroke="black" stroke-width="0.29" points="7514.99,-3568.9 7524.99,-3565.4 7514.99,-3561.9 7514.99,-3568.9"/>
<text text-anchor="middle" x="7458.75" y="-3554.2" font-family="Times,serif" font-size="14.00">iron&#45;plate*25040</text>
</g>
<!-- &#45;1,10 (Iron Plates)&#45;&gt;&#45;3,8 (Urea) -->
<g id="edge40" class="edge">
<title>&#45;1,10 (Iron Plates)&#45;&gt;&#45;3,8 (Urea)</title>
<path fill="none" stroke="black" stroke-width="0.1" d="M7322.41,-3581.32C6785,-3769.36 1655.25,-5564.34 1096.34,-5759.91"/>
<polygon fill="black" stroke="black" stroke-width="0.1" points="1094.85,-5756.73 1086.57,-5763.33 1097.16,-5763.33 1094.85,-5756.73"/>
<text text-anchor="middle" x="4153.38" y="-4674.41" font-family="Times,serif" font-size="14.00">iron&#45;plate*8320</text>
</g>
<!-- &#45;1,10 (Iron Plates)&#45;&gt;0,9 (Auog Brains) -->
<g id="edge38" class="edge">
<title>&#45;1,10 (Iron Plates)&#45;&gt;0,9 (Auog Brains)</title>
<path fill="none" stroke="black" stroke-width="0.02" d="M7332.97,-3582.22C6879.84,-3800.44 2160.26,-6073.26 1652.85,-6317.62"/>
<polygon fill="black" stroke="black" stroke-width="0.02" points="1651.14,-6314.56 1643.65,-6322.05 1654.17,-6320.87 1651.14,-6314.56"/>
<text text-anchor="middle" x="4436.91" y="-4953.72" font-family="Times,serif" font-size="14.00">iron&#45;plate*2080</text>
</g>
<!-- &#45;1,10 (Iron Plates)&#45;&gt;&#45;5,0 (item=small&#45;lampitem=petri&#45;dish Lamptri dishes) -->
<g id="edge53" class="edge">
<title>&#45;1,10 (Iron Plates)&#45;&gt;&#45;5,0 (item=small&#45;lampitem=petri&#45;dish Lamptri dishes)</title>
<path fill="none" stroke="black" stroke-width="0.1" d="M7340.21,-3582.79C6958.87,-3822.41 2757.82,-6462.1 2318.42,-6738.19"/>
<polygon fill="black" stroke="black" stroke-width="0.1" points="2316.49,-6735.27 2309.89,-6743.56 2320.22,-6741.2 2316.49,-6735.27"/>
<text text-anchor="middle" x="4773.32" y="-5164.29" font-family="Times,serif" font-size="14.00">iron&#45;plate*8320</text>
</g>
<!-- &#45;1,10 (Iron Plates)&#45;&gt;2,5 (Simple Circuits) -->
<g id="edge29" class="edge">
<title>&#45;1,10 (Iron Plates)&#45;&gt;2,5 (Simple Circuits)</title>
<path fill="none" stroke="black" stroke-width="0.1" d="M7345.84,-3582.98C7030.36,-3834.57 3429.18,-6706.42 3061.38,-6999.73"/>
<polygon fill="black" stroke="black" stroke-width="0.1" points="3059.17,-6997.01 3053.53,-7005.99 3063.53,-7002.49 3059.17,-6997.01"/>
<text text-anchor="middle" x="5147.61" y="-5295.16" font-family="Times,serif" font-size="14.00">iron&#45;plate*8320</text>
</g>
<!-- &#45;1,10 (Iron Plates)&#45;&gt;&#45;1,6 (Flimble&#39;s Slaughterhouse and Daycare Centre, Auog Products) -->
<g id="edge51" class="edge">
<title>&#45;1,10 (Iron Plates)&#45;&gt;&#45;1,6 (Flimble&#39;s Slaughterhouse and Daycare Centre, Auog Products)</title>
<path fill="none" stroke="black" stroke-width="0.12" d="M7350.06,-3583.23C7093.57,-3839.72 4150.61,-6782.69 3845.93,-7087.36"/>
<polygon fill="black" stroke="black" stroke-width="0.12" points="3843.43,-7084.91 3838.83,-7094.46 3848.38,-7089.86 3843.43,-7084.91"/>
<text text-anchor="middle" x="5537.49" y="-5339.1" font-family="Times,serif" font-size="14.00">iron&#45;plate*10080</text>
</g>
<!-- &#45;1,10 (Iron Plates)&#45;&gt;9,5 (Niobium complex 2) -->
<g id="edge47" class="edge">
<title>&#45;1,10 (Iron Plates)&#45;&gt;9,5 (Niobium complex 2)</title>
<path fill="none" stroke="black" stroke-width="0.29" d="M7353.38,-3583.6C7149.99,-3838.64 4872.83,-6694.1 4630.67,-6997.77"/>
<polygon fill="black" stroke="black" stroke-width="0.29" points="4627.9,-6995.62 4624.41,-7005.62 4633.38,-6999.98 4627.9,-6995.62"/>
<text text-anchor="middle" x="5931.52" y="-5294.48" font-family="Times,serif" font-size="14.00">iron&#45;plate*25680</text>
</g>
<!-- &#45;1,10 (Iron Plates)&#45;&gt;0,10 (item=meat Meat) -->
<g id="edge39" class="edge">
<title>&#45;1,10 (Iron Plates)&#45;&gt;0,10 (item=meat Meat)</title>
<path fill="none" stroke="black" stroke-width="0.05" d="M7356.59,-3583.38C7204.32,-3825.72 5560.5,-6441.85 5376.38,-6734.87"/>
<polygon fill="black" stroke="black" stroke-width="0.05" points="5373.26,-6733.25 5370.9,-6743.58 5379.19,-6736.98 5373.26,-6733.25"/>
<text text-anchor="middle" x="6310.49" y="-5162.92" font-family="Times,serif" font-size="14.00">iron&#45;plate*4160</text>
</g>
<!-- &#45;1,10 (Iron Plates)&#45;&gt;2,14 (Latex) -->
<g id="edge52" class="edge">
<title>&#45;1,10 (Iron Plates)&#45;&gt;2,14 (Latex)</title>
<path fill="none" stroke="black" stroke-width="0.29" d="M7359.18,-3583.48C7251.41,-3807.26 6176.97,-6038.37 6045.43,-6311.52"/>
<polygon fill="black" stroke="black" stroke-width="0.29" points="6042.17,-6310.21 6040.99,-6320.74 6048.48,-6313.25 6042.17,-6310.21"/>
<text text-anchor="middle" x="6641.8" y="-4951.3" font-family="Times,serif" font-size="14.00">iron&#45;plate*25040</text>
</g>
<!-- &#45;1,10 (Iron Plates)&#45;&gt;&#45;1,7 (Rayon) -->
<g id="edge55" class="edge">
<title>&#45;1,10 (Iron Plates)&#45;&gt;&#45;1,7 (Rayon)</title>
<path fill="none" stroke="black" stroke-width="0.18" d="M7361.54,-3583.53C7292.86,-3779.8 6688.01,-5508.37 6603.7,-5749.34"/>
<polygon fill="black" stroke="black" stroke-width="0.18" points="6600.28,-5748.49 6600.28,-5759.09 6606.89,-5750.8 6600.28,-5748.49"/>
<text text-anchor="middle" x="6922.12" y="-4670.23" font-family="Times,serif" font-size="14.00">iron&#45;plate*15920</text>
</g>
<!-- &#45;1,10 (Iron Plates)&#45;&gt;4,6 (Circuit substrate and Doped silicon) -->
<g id="edge46" class="edge">
<title>&#45;1,10 (Iron Plates)&#45;&gt;4,6 (Circuit substrate and Doped silicon)</title>
<path fill="none" stroke="black" stroke-width="0.02" d="M7363.76,-3583.49C7327.75,-3741.24 7067.34,-4882.2 7022.99,-5076.48"/>
<polygon fill="black" stroke="black" stroke-width="0.02" points="7019.53,-5075.94 7020.71,-5086.47 7026.35,-5077.5 7019.53,-5075.94"/>
<text text-anchor="middle" x="7137.38" y="-4318.78" font-family="Times,serif" font-size="14.00">iron&#45;plate*2080</text>
</g>
<!-- &#45;1,10 (Iron Plates)&#45;&gt;8,8 (Glass and lamps) -->
<g id="edge61" class="edge">
<title>&#45;1,10 (Iron Plates)&#45;&gt;8,8 (Glass and lamps)</title>
<path fill="none" stroke="black" stroke-width="0.29" d="M7365.82,-3583.76C7354.14,-3687.45 7296.4,-4199.87 7282.14,-4326.46"/>
<polygon fill="black" stroke="black" stroke-width="0.29" points="7278.64,-4326.2 7281,-4336.53 7285.6,-4326.98 7278.64,-4326.2"/>
<text text-anchor="middle" x="7263.48" y="-3958.91" font-family="Times,serif" font-size="14.00">iron&#45;plate*25040</text>
</g>
</g>
</svg>
