<?xml version="1.0" encoding="UTF-8" standalone="no"?>
<!DOCTYPE svg PUBLIC "-//W3C//DTD SVG 1.1//EN"
 "http://www.w3.org/Graphics/SVG/1.1/DTD/svg11.dtd">
<!-- Generated by graphviz version 2.43.0 (0)
 -->
<!-- Title: %3 Pages: 1 -->
<svg width="1325pt" height="44pt"
 viewBox="0.00 0.00 1325.15 44.00" xmlns="http://www.w3.org/2000/svg" xmlns:xlink="http://www.w3.org/1999/xlink">
<g id="graph0" class="graph" transform="scale(1 1) rotate(0) translate(4 40)">
<title>%3</title>
<polygon fill="white" stroke="transparent" points="-4,4 -4,-40 1321.15,-40 1321.15,4 -4,4"/>
<!-- &#45;4,2 (This line not currently using manure, Ralesia seeds) -->
<g id="node1" class="node">
<title>&#45;4,2 (This line not currently using manure, Ralesia seeds)</title>
<ellipse fill="none" stroke="black" cx="610.8" cy="-18" rx="276.75" ry="18"/>
<text text-anchor="middle" x="610.8" y="-14.3" font-family="Times,serif" font-size="14.00">&#45;4,2 (This line not currently using manure, Ralesia seeds)</text>
</g>
<!-- &#45;4,5 (item=arqad Arqad, Lead mine) -->
<g id="node2" class="node">
<title>&#45;4,5 (item=arqad Arqad, Lead mine)</title>
<ellipse fill="none" stroke="black" cx="1138.41" cy="-18" rx="178.97" ry="18"/>
<text text-anchor="middle" x="1138.41" y="-14.3" font-family="Times,serif" font-size="14.00">&#45;4,5 (item=arqad Arqad, Lead mine)</text>
</g>
<!-- &#45;4,2 (This line not currently using manure, Ralesia seeds)&#45;&gt;&#45;4,5 (item=arqad Arqad, Lead mine) -->
<g id="edge1" class="edge">
<title>&#45;4,2 (This line not currently using manure, Ralesia seeds)&#45;&gt;&#45;4,5 (item=arqad Arqad, Lead mine)</title>
<path fill="none" stroke="black" stroke-width="1.11" d="M887.74,-18C908.6,-18 929.35,-18 949.46,-18"/>
<polygon fill="black" stroke="black" stroke-width="1.11" points="949.6,-21.5 959.6,-18 949.6,-14.5 949.6,-21.5"/>
<text text-anchor="middle" x="918.6" y="-6.8" font-family="Times,serif" font-size="14.00">ralesias*7520</text>
</g>
<!-- 5,8 (Ulric Food) -->
<g id="node3" class="node">
<title>5,8 (Ulric Food)</title>
<ellipse fill="none" stroke="black" cx="83.19" cy="-18" rx="83.39" ry="18"/>
<text text-anchor="middle" x="83.19" y="-14.3" font-family="Times,serif" font-size="14.00">5,8 (Ulric Food)</text>
</g>
<!-- &#45;4,2 (This line not currently using manure, Ralesia seeds)&#45;&gt;5,8 (Ulric Food) -->
<g id="edge2" class="edge">
<title>&#45;4,2 (This line not currently using manure, Ralesia seeds)&#45;&gt;5,8 (Ulric Food)</title>
<path fill="none" stroke="black" stroke-width="0.89" d="M333.86,-18C277.2,-18 221.34,-18 176.79,-18"/>
<polygon fill="black" stroke="black" stroke-width="0.89" points="176.59,-14.5 166.59,-18 176.59,-21.5 176.59,-14.5"/>
<text text-anchor="middle" x="280.08" y="-6.8" font-family="Times,serif" font-size="14.00">ralesias*6032</text>
</g>
</g>
</svg>
