<?xml version="1.0" encoding="UTF-8" standalone="no"?>
<!DOCTYPE svg PUBLIC "-//W3C//DTD SVG 1.1//EN"
 "http://www.w3.org/Graphics/SVG/1.1/DTD/svg11.dtd">
<!-- Generated by graphviz version 2.43.0 (0)
 -->
<!-- Title: %3 Pages: 1 -->
<svg width="836pt" height="44pt"
 viewBox="0.00 0.00 835.74 44.00" xmlns="http://www.w3.org/2000/svg" xmlns:xlink="http://www.w3.org/1999/xlink">
<g id="graph0" class="graph" transform="scale(1 1) rotate(0) translate(4 40)">
<title>%3</title>
<polygon fill="white" stroke="transparent" points="-4,4 -4,-40 831.74,-40 831.74,4 -4,4"/>
<!-- &#45;3,3 (Lead dust (silver plate)) -->
<g id="node1" class="node">
<title>&#45;3,3 (Lead dust (silver plate))</title>
<ellipse fill="none" stroke="black" cx="412.57" cy="-18" rx="145.67" ry="18"/>
<text text-anchor="middle" x="412.57" y="-14.3" font-family="Times,serif" font-size="14.00">&#45;3,3 (Lead dust (silver plate))</text>
</g>
<!-- &#45;4,&#45;2 (For Science!) -->
<g id="node2" class="node">
<title>&#45;4,&#45;2 (For Science!)</title>
<ellipse fill="none" stroke="black" cx="728.95" cy="-18" rx="98.58" ry="18"/>
<text text-anchor="middle" x="728.95" y="-14.3" font-family="Times,serif" font-size="14.00">&#45;4,&#45;2 (For Science!)</text>
</g>
<!-- &#45;3,3 (Lead dust (silver plate))&#45;&gt;&#45;4,&#45;2 (For Science!) -->
<g id="edge1" class="edge">
<title>&#45;3,3 (Lead dust (silver plate))&#45;&gt;&#45;4,&#45;2 (For Science!)</title>
<path fill="none" stroke="black" stroke-width="1.06" d="M558.26,-18C578.97,-18 599.98,-18 619.83,-18"/>
<polygon fill="black" stroke="black" stroke-width="1.06" points="620.11,-21.5 630.11,-18 620.11,-14.5 620.11,-21.5"/>
<text text-anchor="middle" x="589.05" y="-6.8" font-family="Times,serif" font-size="14.00">silver&#45;plate*11184</text>
</g>
<!-- &#45;5,2 (Optical fiber) -->
<g id="node3" class="node">
<title>&#45;5,2 (Optical fiber)</title>
<ellipse fill="none" stroke="black" cx="96.19" cy="-18" rx="96.38" ry="18"/>
<text text-anchor="middle" x="96.19" y="-14.3" font-family="Times,serif" font-size="14.00">&#45;5,2 (Optical fiber)</text>
</g>
<!-- &#45;3,3 (Lead dust (silver plate))&#45;&gt;&#45;5,2 (Optical fiber) -->
<g id="edge2" class="edge">
<title>&#45;3,3 (Lead dust (silver plate))&#45;&gt;&#45;5,2 (Optical fiber)</title>
<path fill="none" stroke="black" stroke-width="0.94" d="M266.88,-18C245.28,-18 223.36,-18 202.76,-18"/>
<polygon fill="black" stroke="black" stroke-width="0.94" points="202.76,-14.5 192.76,-18 202.76,-21.5 202.76,-14.5"/>
<text text-anchor="middle" x="201.57" y="-6.8" font-family="Times,serif" font-size="14.00">silver&#45;plate*10000</text>
</g>
</g>
</svg>
