<?xml version="1.0" encoding="UTF-8" standalone="no"?>
<!DOCTYPE svg PUBLIC "-//W3C//DTD SVG 1.1//EN"
 "http://www.w3.org/Graphics/SVG/1.1/DTD/svg11.dtd">
<!-- Generated by graphviz version 2.43.0 (0)
 -->
<!-- Title: %3 Pages: 1 -->
<svg width="1110pt" height="897pt"
 viewBox="0.00 0.00 1110.17 896.73" xmlns="http://www.w3.org/2000/svg" xmlns:xlink="http://www.w3.org/1999/xlink">
<g id="graph0" class="graph" transform="scale(1 1) rotate(0) translate(4 892.73)">
<title>%3</title>
<polygon fill="white" stroke="transparent" points="-4,4 -4,-892.73 1106.17,-892.73 1106.17,4 -4,4"/>
<!-- &#45;2,6 (Wrong ratio of Calcium Carbide to Acetalene) -->
<g id="node1" class="node">
<title>&#45;2,6 (Wrong ratio of Calcium Carbide to Acetalene)</title>
<ellipse fill="none" stroke="black" cx="616.91" cy="-18" rx="245.86" ry="18"/>
<text text-anchor="middle" x="616.91" y="-14.3" font-family="Times,serif" font-size="14.00">&#45;2,6 (Wrong ratio of Calcium Carbide to Acetalene)</text>
</g>
<!-- &#45;6,&#45;1 (item=agar Agar) -->
<g id="node2" class="node">
<title>&#45;6,&#45;1 (item=agar Agar)</title>
<ellipse fill="none" stroke="black" cx="115.69" cy="-180.86" rx="115.88" ry="18"/>
<text text-anchor="middle" x="115.69" y="-177.16" font-family="Times,serif" font-size="14.00">&#45;6,&#45;1 (item=agar Agar)</text>
</g>
<!-- &#45;2,6 (Wrong ratio of Calcium Carbide to Acetalene)&#45;&gt;&#45;6,&#45;1 (item=agar Agar) -->
<g id="edge1" class="edge">
<title>&#45;2,6 (Wrong ratio of Calcium Carbide to Acetalene)&#45;&gt;&#45;6,&#45;1 (item=agar Agar)</title>
<path fill="none" stroke="black" stroke-width="1.29" d="M562.79,-35.58C468.33,-66.28 274.04,-129.4 175.63,-161.38"/>
<polygon fill="black" stroke="black" stroke-width="1.29" points="174.27,-158.14 165.84,-164.56 176.43,-164.8 174.27,-158.14"/>
<text text-anchor="middle" x="279.21" y="-102.28" font-family="Times,serif" font-size="14.00">slacked&#45;lime&#45;barrel*6400</text>
</g>
<!-- 1,6 (Sodium Hydroxide, Limestone) -->
<g id="node4" class="node">
<title>1,6 (Sodium Hydroxide, Limestone)</title>
<ellipse fill="none" stroke="black" cx="926.68" cy="-444.36" rx="175.47" ry="18"/>
<text text-anchor="middle" x="926.68" y="-440.66" font-family="Times,serif" font-size="14.00">1,6 (Sodium Hydroxide, Limestone)</text>
</g>
<!-- &#45;2,6 (Wrong ratio of Calcium Carbide to Acetalene)&#45;&gt;1,6 (Sodium Hydroxide, Limestone) -->
<g id="edge4" class="edge">
<title>&#45;2,6 (Wrong ratio of Calcium Carbide to Acetalene)&#45;&gt;1,6 (Sodium Hydroxide, Limestone)</title>
<path fill="none" stroke="black" stroke-width="1.82" d="M630.02,-36.05C678.7,-103.05 849.21,-337.73 907.2,-417.55"/>
<polygon fill="black" stroke="black" stroke-width="1.82" points="904.68,-420.04 913.39,-426.07 910.35,-415.92 904.68,-420.04"/>
<text text-anchor="middle" x="678.61" y="-230.6" font-family="Times,serif" font-size="14.00">slacked&#45;lime&#45;barrel*9008</text>
</g>
<!-- 0,0 (LE BUS) -->
<g id="node5" class="node">
<title>0,0 (LE BUS)</title>
<ellipse fill="none" stroke="black" cx="115.69" cy="-707.87" rx="71.49" ry="18"/>
<text text-anchor="middle" x="115.69" y="-704.17" font-family="Times,serif" font-size="14.00">0,0 (LE BUS)</text>
</g>
<!-- &#45;2,6 (Wrong ratio of Calcium Carbide to Acetalene)&#45;&gt;0,0 (LE BUS) -->
<g id="edge6" class="edge">
<title>&#45;2,6 (Wrong ratio of Calcium Carbide to Acetalene)&#45;&gt;0,0 (LE BUS)</title>
<path fill="none" stroke="black" stroke-width="0.33" d="M603.76,-36.1C534.96,-130.79 216.46,-569.18 134.8,-681.56"/>
<polygon fill="black" stroke="black" stroke-width="0.33" points="131.75,-679.81 128.7,-689.96 137.41,-683.93 131.75,-679.81"/>
<text text-anchor="middle" x="279.28" y="-362.63" font-family="Times,serif" font-size="14.00">slacked&#45;lime&#45;barrel*1648</text>
</g>
<!-- &#45;5,&#45;4 (low priority (slaked)? lime) -->
<g id="node3" class="node">
<title>&#45;5,&#45;4 (low priority (slaked)? lime)</title>
<ellipse fill="none" stroke="black" cx="616.91" cy="-870.73" rx="162.47" ry="18"/>
<text text-anchor="middle" x="616.91" y="-867.03" font-family="Times,serif" font-size="14.00">&#45;5,&#45;4 (low priority (slaked)? lime)</text>
</g>
<!-- &#45;5,&#45;4 (low priority (slaked)? lime)&#45;&gt;&#45;6,&#45;1 (item=agar Agar) -->
<g id="edge5" class="edge">
<title>&#45;5,&#45;4 (low priority (slaked)? lime)&#45;&gt;&#45;6,&#45;1 (item=agar Agar)</title>
<path fill="none" stroke="black" stroke-width="1.19" d="M603.76,-852.63C534.96,-757.93 216.46,-319.55 134.8,-207.16"/>
<polygon fill="black" stroke="black" stroke-width="1.19" points="137.41,-204.8 128.7,-198.76 131.75,-208.91 137.41,-204.8"/>
<text text-anchor="middle" x="279.28" y="-533.7" font-family="Times,serif" font-size="14.00">slacked&#45;lime&#45;barrel*5904</text>
</g>
<!-- &#45;5,&#45;4 (low priority (slaked)? lime)&#45;&gt;1,6 (Sodium Hydroxide, Limestone) -->
<g id="edge2" class="edge">
<title>&#45;5,&#45;4 (low priority (slaked)? lime)&#45;&gt;1,6 (Sodium Hydroxide, Limestone)</title>
<path fill="none" stroke="black" stroke-width="1.15" d="M630.02,-852.68C678.7,-785.68 849.21,-550.99 907.2,-471.17"/>
<polygon fill="black" stroke="black" stroke-width="1.15" points="910.35,-472.8 913.39,-462.65 904.68,-468.69 910.35,-472.8"/>
<text text-anchor="middle" x="678.61" y="-665.73" font-family="Times,serif" font-size="14.00">slacked&#45;lime&#45;barrel*5712</text>
</g>
<!-- &#45;5,&#45;4 (low priority (slaked)? lime)&#45;&gt;0,0 (LE BUS) -->
<g id="edge3" class="edge">
<title>&#45;5,&#45;4 (low priority (slaked)? lime)&#45;&gt;0,0 (LE BUS)</title>
<path fill="none" stroke="black" stroke-width="0.22" d="M564.22,-853.61C468.23,-822.42 265.91,-756.68 169.27,-725.28"/>
<polygon fill="black" stroke="black" stroke-width="0.22" points="170.29,-721.93 159.7,-722.17 168.13,-728.59 170.29,-721.93"/>
<text text-anchor="middle" x="276.74" y="-793.24" font-family="Times,serif" font-size="14.00">slacked&#45;lime&#45;barrel*1088</text>
</g>
</g>
</svg>
