<?xml version="1.0" encoding="UTF-8" standalone="no"?>
<!DOCTYPE svg PUBLIC "-//W3C//DTD SVG 1.1//EN"
 "http://www.w3.org/Graphics/SVG/1.1/DTD/svg11.dtd">
<!-- Generated by graphviz version 2.43.0 (0)
 -->
<!-- Title: %3 Pages: 1 -->
<svg width="953pt" height="611pt"
 viewBox="0.00 0.00 953.08 611.43" xmlns="http://www.w3.org/2000/svg" xmlns:xlink="http://www.w3.org/1999/xlink">
<g id="graph0" class="graph" transform="scale(1 1) rotate(0) translate(4 607.43)">
<title>%3</title>
<polygon fill="white" stroke="transparent" points="-4,4 -4,-607.43 949.08,-607.43 949.08,4 -4,4"/>
<!-- 5,8 (Ulric Food, Sandcastings) -->
<g id="node1" class="node">
<title>5,8 (Ulric Food, Sandcastings)</title>
<ellipse fill="none" stroke="black" cx="151.44" cy="-477.06" rx="151.37" ry="18"/>
<text text-anchor="middle" x="151.44" y="-473.36" font-family="Times,serif" font-size="14.00">5,8 (Ulric Food, Sandcastings)</text>
</g>
<!-- 7,5 (Manurer) -->
<g id="node2" class="node">
<title>7,5 (Manurer)</title>
<ellipse fill="none" stroke="black" cx="484.96" cy="-585.43" rx="75.29" ry="18"/>
<text text-anchor="middle" x="484.96" y="-581.73" font-family="Times,serif" font-size="14.00">7,5 (Manurer)</text>
</g>
<!-- 5,8 (Ulric Food, Sandcastings)&#45;&gt;7,5 (Manurer) -->
<g id="edge1" class="edge">
<title>5,8 (Ulric Food, Sandcastings)&#45;&gt;7,5 (Manurer)</title>
<path fill="none" stroke="black" stroke-width="1.4" d="M203.55,-493.99C265.29,-514.05 367.66,-547.31 430.43,-567.71"/>
<polygon fill="black" stroke="black" stroke-width="1.4" points="429.56,-571.11 440.15,-570.87 431.73,-564.45 429.56,-571.11"/>
<text text-anchor="middle" x="245.99" y="-534.65" font-family="Times,serif" font-size="14.00">ulric&#45;food&#45;01*30000</text>
</g>
<!-- &#45;7,&#45;3 (Ulric Manure) -->
<g id="node3" class="node">
<title>&#45;7,&#45;3 (Ulric Manure)</title>
<ellipse fill="none" stroke="black" cx="151.44" cy="-126.37" rx="102.88" ry="18"/>
<text text-anchor="middle" x="151.44" y="-122.67" font-family="Times,serif" font-size="14.00">&#45;7,&#45;3 (Ulric Manure)</text>
</g>
<!-- 5,8 (Ulric Food, Sandcastings)&#45;&gt;&#45;7,&#45;3 (Ulric Manure) -->
<g id="edge2" class="edge">
<title>5,8 (Ulric Food, Sandcastings)&#45;&gt;&#45;7,&#45;3 (Ulric Manure)</title>
<path fill="none" stroke="black" stroke-width="1.4" d="M151.44,-458.7C151.44,-401.17 151.44,-224.16 151.44,-154.73"/>
<polygon fill="black" stroke="black" stroke-width="1.4" points="154.94,-154.55 151.44,-144.55 147.94,-154.55 154.94,-154.55"/>
<text text-anchor="middle" x="80.44" y="-310.52" font-family="Times,serif" font-size="14.00">ulric&#45;food&#45;01*30000</text>
</g>
<!-- &#45;7,0 (Ulric manure duplicate) -->
<g id="node5" class="node">
<title>&#45;7,0 (Ulric manure duplicate)</title>
<ellipse fill="none" stroke="black" cx="691.09" cy="-301.71" rx="145.67" ry="18"/>
<text text-anchor="middle" x="691.09" y="-298.01" font-family="Times,serif" font-size="14.00">&#45;7,0 (Ulric manure duplicate)</text>
</g>
<!-- 5,8 (Ulric Food, Sandcastings)&#45;&gt;&#45;7,0 (Ulric manure duplicate) -->
<g id="edge5" class="edge">
<title>5,8 (Ulric Food, Sandcastings)&#45;&gt;&#45;7,0 (Ulric manure duplicate)</title>
<path fill="none" stroke="black" stroke-width="0.93" d="M203.67,-460.09C303.84,-427.54 522.46,-356.5 629.53,-321.72"/>
<polygon fill="black" stroke="black" stroke-width="0.93" points="630.8,-324.99 639.23,-318.57 628.63,-318.33 630.8,-324.99"/>
<text text-anchor="middle" x="345.6" y="-394.7" font-family="Times,serif" font-size="14.00">ulric&#45;food&#45;01*20000</text>
</g>
<!-- &#45;4,8 (Moar Ulric Food) -->
<g id="node4" class="node">
<title>&#45;4,8 (Moar Ulric Food)</title>
<ellipse fill="none" stroke="black" cx="484.96" cy="-18" rx="113.98" ry="18"/>
<text text-anchor="middle" x="484.96" y="-14.3" font-family="Times,serif" font-size="14.00">&#45;4,8 (Moar Ulric Food)</text>
</g>
<!-- &#45;4,8 (Moar Ulric Food)&#45;&gt;7,5 (Manurer) -->
<g id="edge6" class="edge">
<title>&#45;4,8 (Moar Ulric Food)&#45;&gt;7,5 (Manurer)</title>
<path fill="none" stroke="black" stroke-width="0.93" d="M484.96,-36.24C484.96,-118.61 484.96,-456.27 484.96,-556.96"/>
<polygon fill="black" stroke="black" stroke-width="0.93" points="481.46,-557.26 484.96,-567.26 488.46,-557.26 481.46,-557.26"/>
<text text-anchor="middle" x="413.96" y="-300.4" font-family="Times,serif" font-size="14.00">ulric&#45;food&#45;01*20000</text>
</g>
<!-- &#45;4,8 (Moar Ulric Food)&#45;&gt;&#45;7,&#45;3 (Ulric Manure) -->
<g id="edge4" class="edge">
<title>&#45;4,8 (Moar Ulric Food)&#45;&gt;&#45;7,&#45;3 (Ulric Manure)</title>
<path fill="none" stroke="black" stroke-width="0.93" d="M435.03,-34.22C374.79,-53.8 273.68,-86.65 209.87,-107.38"/>
<polygon fill="black" stroke="black" stroke-width="0.93" points="208.78,-104.06 200.35,-110.48 210.94,-110.71 208.78,-104.06"/>
<text text-anchor="middle" x="251.45" y="-74.6" font-family="Times,serif" font-size="14.00">ulric&#45;food&#45;01*20000</text>
</g>
<!-- &#45;4,8 (Moar Ulric Food)&#45;&gt;&#45;7,0 (Ulric manure duplicate) -->
<g id="edge3" class="edge">
<title>&#45;4,8 (Moar Ulric Food)&#45;&gt;&#45;7,0 (Ulric manure duplicate)</title>
<path fill="none" stroke="black" stroke-width="0.93" d="M498.17,-36.18C533.58,-84.92 630.76,-218.67 672.09,-275.56"/>
<polygon fill="black" stroke="black" stroke-width="0.93" points="669.29,-277.65 677.99,-283.69 674.95,-273.54 669.29,-277.65"/>
<text text-anchor="middle" x="514.13" y="-159.67" font-family="Times,serif" font-size="14.00">ulric&#45;food&#45;01*20000</text>
</g>
<!-- 9,4 (Ulric fooder) -->
<g id="node6" class="node">
<title>9,4 (Ulric fooder)</title>
<ellipse fill="none" stroke="black" cx="854.08" cy="-301.71" rx="90.98" ry="18"/>
<text text-anchor="middle" x="854.08" y="-298.01" font-family="Times,serif" font-size="14.00">9,4 (Ulric fooder)</text>
</g>
<!-- 9,4 (Ulric fooder)&#45;&gt;&#45;7,0 (Ulric manure duplicate) -->
<g id="edge7" class="edge">
<title>9,4 (Ulric fooder)&#45;&gt;&#45;7,0 (Ulric manure duplicate)</title>
<path fill="none" stroke="black" stroke-width="0.47" d="M763.06,-301.71C762.98,-301.71 762.91,-301.71 762.84,-301.71"/>
<polygon fill="black" stroke="black" stroke-width="0.47" points="772.62,-298.22 762.62,-301.71 772.62,-305.22 772.62,-298.22"/>
<text text-anchor="middle" x="691.95" y="-305.51" font-family="Times,serif" font-size="14.00">ulric&#45;food&#45;01*10000</text>
</g>
</g>
</svg>
