<?xml version="1.0" encoding="UTF-8" standalone="no"?>
<!DOCTYPE svg PUBLIC "-//W3C//DTD SVG 1.1//EN"
 "http://www.w3.org/Graphics/SVG/1.1/DTD/svg11.dtd">
<!-- Generated by graphviz version 2.43.0 (0)
 -->
<!-- Title: %3 Pages: 1 -->
<svg width="1809pt" height="1311pt"
 viewBox="0.00 0.00 1809.41 1311.41" xmlns="http://www.w3.org/2000/svg" xmlns:xlink="http://www.w3.org/1999/xlink">
<g id="graph0" class="graph" transform="scale(1 1) rotate(0) translate(4 1307.41)">
<title>%3</title>
<polygon fill="white" stroke="transparent" points="-4,4 -4,-1307.41 1805.41,-1307.41 1805.41,4 -4,4"/>
<!-- 1,6 (Sodium Hydroxide, These new bullets are fun, Limestone) -->
<g id="node1" class="node">
<title>1,6 (Sodium Hydroxide, These new bullets are fun, Limestone)</title>
<ellipse fill="none" stroke="black" cx="491.99" cy="-168.72" rx="301.65" ry="18"/>
<text text-anchor="middle" x="491.99" y="-165.02" font-family="Times,serif" font-size="14.00">1,6 (Sodium Hydroxide, These new bullets are fun, Limestone)</text>
</g>
<!-- 2,4 (Formica and Phenolic boards) -->
<g id="node2" class="node">
<title>2,4 (Formica and Phenolic boards)</title>
<ellipse fill="none" stroke="black" cx="169.63" cy="-727.07" rx="169.77" ry="18"/>
<text text-anchor="middle" x="169.63" y="-723.37" font-family="Times,serif" font-size="14.00">2,4 (Formica and Phenolic boards)</text>
</g>
<!-- 1,6 (Sodium Hydroxide, These new bullets are fun, Limestone)&#45;&gt;2,4 (Formica and Phenolic boards) -->
<g id="edge1" class="edge">
<title>1,6 (Sodium Hydroxide, These new bullets are fun, Limestone)&#45;&gt;2,4 (Formica and Phenolic boards)</title>
<path fill="none" stroke="black" stroke-width="0.96" d="M481.45,-186.98C434.15,-268.91 241.35,-602.86 185.1,-700.27"/>
<polygon fill="black" stroke="black" stroke-width="0.96" points="182.07,-698.53 180.1,-708.95 188.13,-702.04 182.07,-698.53"/>
<text text-anchor="middle" x="247.78" y="-447.43" font-family="Times,serif" font-size="14.00">sodium&#45;hydroxide*9664</text>
</g>
<!-- 1,7 (Activated Carbon) -->
<g id="node4" class="node">
<title>1,7 (Activated Carbon)</title>
<ellipse fill="none" stroke="black" cx="1136.71" cy="-168.72" rx="115.88" ry="18"/>
<text text-anchor="middle" x="1136.71" y="-165.02" font-family="Times,serif" font-size="14.00">1,7 (Activated Carbon)</text>
</g>
<!-- 1,6 (Sodium Hydroxide, These new bullets are fun, Limestone)&#45;&gt;1,7 (Activated Carbon) -->
<g id="edge3" class="edge">
<title>1,6 (Sodium Hydroxide, These new bullets are fun, Limestone)&#45;&gt;1,7 (Activated Carbon)</title>
<path fill="none" stroke="black" stroke-width="0.86" d="M793.59,-168.72C870.11,-168.72 948.2,-168.72 1010.52,-168.72"/>
<polygon fill="black" stroke="black" stroke-width="0.86" points="1010.77,-172.22 1020.77,-168.72 1010.77,-165.22 1010.77,-172.22"/>
<text text-anchor="middle" x="902.05" y="-157.52" font-family="Times,serif" font-size="14.00">sodium&#45;hydroxide*8720</text>
</g>
<!-- 4,12 (Molten Glass) -->
<g id="node5" class="node">
<title>4,12 (Molten Glass)</title>
<ellipse fill="none" stroke="black" cx="404.97" cy="-18" rx="102.08" ry="18"/>
<text text-anchor="middle" x="404.97" y="-14.3" font-family="Times,serif" font-size="14.00">4,12 (Molten Glass)</text>
</g>
<!-- 1,6 (Sodium Hydroxide, These new bullets are fun, Limestone)&#45;&gt;4,12 (Molten Glass) -->
<g id="edge4" class="edge">
<title>1,6 (Sodium Hydroxide, These new bullets are fun, Limestone)&#45;&gt;4,12 (Molten Glass)</title>
<path fill="none" stroke="black" stroke-width="0.88" d="M481.5,-150.54C466.34,-124.29 438.21,-75.57 420.61,-45.08"/>
<polygon fill="black" stroke="black" stroke-width="0.88" points="423.54,-43.16 415.51,-36.25 417.48,-46.66 423.54,-43.16"/>
<text text-anchor="middle" x="365.55" y="-101.61" font-family="Times,serif" font-size="14.00">sodium&#45;hydroxide*8928</text>
</g>
<!-- 4,1 (item=filtration&#45;media Filtration Media) -->
<g id="node7" class="node">
<title>4,1 (item=filtration&#45;media Filtration Media)</title>
<ellipse fill="none" stroke="black" cx="491.99" cy="-1285.41" rx="214.46" ry="18"/>
<text text-anchor="middle" x="491.99" y="-1281.71" font-family="Times,serif" font-size="14.00">4,1 (item=filtration&#45;media Filtration Media)</text>
</g>
<!-- 1,6 (Sodium Hydroxide, These new bullets are fun, Limestone)&#45;&gt;4,1 (item=filtration&#45;media Filtration Media) -->
<g id="edge6" class="edge">
<title>1,6 (Sodium Hydroxide, These new bullets are fun, Limestone)&#45;&gt;4,1 (item=filtration&#45;media Filtration Media)</title>
<path fill="none" stroke="black" stroke-width="0.44" d="M491.99,-187.17C491.99,-317.33 491.99,-1096.7 491.99,-1256.71"/>
<polygon fill="black" stroke="black" stroke-width="0.44" points="488.49,-1257.14 491.99,-1267.14 495.49,-1257.14 488.49,-1257.14"/>
<text text-anchor="middle" x="577.49" y="-725.74" font-family="Times,serif" font-size="14.00">sodium&#45;hydroxide*4480</text>
</g>
<!-- 4,2 (More fiberboard) -->
<g id="node8" class="node">
<title>4,2 (More fiberboard)</title>
<ellipse fill="none" stroke="black" cx="1136.71" cy="-1285.41" rx="111.28" ry="18"/>
<text text-anchor="middle" x="1136.71" y="-1281.71" font-family="Times,serif" font-size="14.00">4,2 (More fiberboard)</text>
</g>
<!-- 1,6 (Sodium Hydroxide, These new bullets are fun, Limestone)&#45;&gt;4,2 (More fiberboard) -->
<g id="edge9" class="edge">
<title>1,6 (Sodium Hydroxide, These new bullets are fun, Limestone)&#45;&gt;4,2 (More fiberboard)</title>
<path fill="none" stroke="black" stroke-width="0.21" d="M502.38,-186.72C576.94,-315.86 1030.25,-1101.01 1120.93,-1258.07"/>
<polygon fill="black" stroke="black" stroke-width="0.21" points="1118.11,-1260.19 1126.14,-1267.1 1124.17,-1256.69 1118.11,-1260.19"/>
<text text-anchor="middle" x="897.16" y="-726.2" font-family="Times,serif" font-size="14.00">sodium&#45;hydroxide*2168</text>
</g>
<!-- 4,4 (Hydrogen Chloride, item=nylon Nylon/Nylon parts) -->
<g id="node3" class="node">
<title>4,4 (Hydrogen Chloride, item=nylon Nylon/Nylon parts)</title>
<ellipse fill="none" stroke="black" cx="1459.07" cy="-727.07" rx="271.05" ry="18"/>
<text text-anchor="middle" x="1459.07" y="-723.37" font-family="Times,serif" font-size="14.00">4,4 (Hydrogen Chloride, item=nylon Nylon/Nylon parts)</text>
</g>
<!-- 4,4 (Hydrogen Chloride, item=nylon Nylon/Nylon parts)&#45;&gt;2,4 (Formica and Phenolic boards) -->
<g id="edge10" class="edge">
<title>4,4 (Hydrogen Chloride, item=nylon Nylon/Nylon parts)&#45;&gt;2,4 (Formica and Phenolic boards)</title>
<path fill="none" stroke="black" stroke-width="1.1" d="M1187.98,-727.07C935.84,-727.07 567.29,-727.07 349.61,-727.07"/>
<polygon fill="black" stroke="black" stroke-width="1.1" points="349.36,-723.57 339.36,-727.07 349.36,-730.57 349.36,-723.57"/>
<text text-anchor="middle" x="768.79" y="-715.87" font-family="Times,serif" font-size="14.00">sodium&#45;hydroxide*11120</text>
</g>
<!-- 4,4 (Hydrogen Chloride, item=nylon Nylon/Nylon parts)&#45;&gt;1,7 (Activated Carbon) -->
<g id="edge2" class="edge">
<title>4,4 (Hydrogen Chloride, item=nylon Nylon/Nylon parts)&#45;&gt;1,7 (Activated Carbon)</title>
<path fill="none" stroke="black" stroke-width="3.03" d="M1448.53,-708.81C1401.22,-626.87 1208.42,-292.93 1152.18,-195.52"/>
<polygon fill="black" stroke="black" stroke-width="3.03" points="1155.2,-193.75 1147.17,-186.84 1149.14,-197.25 1155.2,-193.75"/>
<text text-anchor="middle" x="1210.35" y="-455.96" font-family="Times,serif" font-size="14.00">sodium&#45;hydroxide*30608</text>
</g>
<!-- &#45;1,&#45;2 (Aramid fiber) -->
<g id="node6" class="node">
<title>&#45;1,&#45;2 (Aramid fiber)</title>
<ellipse fill="none" stroke="black" cx="1630.51" cy="-727.07" rx="99.38" ry="18"/>
<text text-anchor="middle" x="1630.51" y="-723.37" font-family="Times,serif" font-size="14.00">&#45;1,&#45;2 (Aramid fiber)</text>
</g>
<!-- 4,4 (Hydrogen Chloride, item=nylon Nylon/Nylon parts)&#45;&gt;&#45;1,&#45;2 (Aramid fiber) -->
<g id="edge5" class="edge">
<title>4,4 (Hydrogen Chloride, item=nylon Nylon/Nylon parts)&#45;&gt;&#45;1,&#45;2 (Aramid fiber)</title>
<path fill="none" stroke="black" stroke-width="0.97" d="M1630.39,-727.07C1630.41,-727.07 1630.43,-727.07 1630.44,-727.07"/>
<polygon fill="black" stroke="black" stroke-width="0.97" points="1620.49,-730.59 1630.48,-727.07 1620.47,-723.59 1620.49,-730.59"/>
<text text-anchor="middle" x="1715.91" y="-730.87" font-family="Times,serif" font-size="14.00">sodium&#45;hydroxide*9776</text>
</g>
<!-- 4,4 (Hydrogen Chloride, item=nylon Nylon/Nylon parts)&#45;&gt;4,1 (item=filtration&#45;media Filtration Media) -->
<g id="edge8" class="edge">
<title>4,4 (Hydrogen Chloride, item=nylon Nylon/Nylon parts)&#45;&gt;4,1 (item=filtration&#45;media Filtration Media)</title>
<path fill="none" stroke="black" stroke-width="0.75" d="M1427.99,-745.01C1285.19,-827.46 692.16,-1169.84 532.01,-1262.3"/>
<polygon fill="black" stroke="black" stroke-width="0.75" points="529.87,-1259.5 522.96,-1267.53 533.37,-1265.56 529.87,-1259.5"/>
<text text-anchor="middle" x="894.5" y="-1007.46" font-family="Times,serif" font-size="14.00">sodium&#45;hydroxide*7616</text>
</g>
<!-- 4,4 (Hydrogen Chloride, item=nylon Nylon/Nylon parts)&#45;&gt;4,2 (More fiberboard) -->
<g id="edge7" class="edge">
<title>4,4 (Hydrogen Chloride, item=nylon Nylon/Nylon parts)&#45;&gt;4,2 (More fiberboard)</title>
<path fill="none" stroke="black" stroke-width="0.79" d="M1448.53,-745.33C1401.22,-827.26 1208.42,-1161.2 1152.18,-1258.61"/>
<polygon fill="black" stroke="black" stroke-width="0.79" points="1149.14,-1256.88 1147.17,-1267.29 1155.2,-1260.38 1149.14,-1256.88"/>
<text text-anchor="middle" x="1214.85" y="-1005.77" font-family="Times,serif" font-size="14.00">sodium&#45;hydroxide*7952</text>
</g>
</g>
</svg>
