<?xml version="1.0" encoding="UTF-8" standalone="no"?>
<!DOCTYPE svg PUBLIC "-//W3C//DTD SVG 1.1//EN"
 "http://www.w3.org/Graphics/SVG/1.1/DTD/svg11.dtd">
<!-- Generated by graphviz version 2.43.0 (0)
 -->
<!-- Title: %3 Pages: 1 -->
<svg width="2360pt" height="1824pt"
 viewBox="0.00 0.00 2360.17 1824.22" xmlns="http://www.w3.org/2000/svg" xmlns:xlink="http://www.w3.org/1999/xlink">
<g id="graph0" class="graph" transform="scale(1 1) rotate(0) translate(4 1820.22)">
<title>%3</title>
<polygon fill="white" stroke="transparent" points="-4,4 -4,-1820.22 2356.17,-1820.22 2356.17,4 -4,4"/>
<!-- &#45;2,7 (item=borax Borax) -->
<g id="node1" class="node">
<title>&#45;2,7 (item=borax Borax)</title>
<ellipse fill="none" stroke="black" cx="1967.38" cy="-908.11" rx="123.48" ry="18"/>
<text text-anchor="middle" x="1967.38" y="-904.41" font-family="Times,serif" font-size="14.00">&#45;2,7 (item=borax Borax)</text>
</g>
<!-- 4,3 (item=nexelit&#45;plate Nexelit platery) -->
<g id="node2" class="node">
<title>4,3 (item=nexelit&#45;plate Nexelit platery)</title>
<ellipse fill="none" stroke="black" cx="1788.63" cy="-357.99" rx="194.17" ry="18"/>
<text text-anchor="middle" x="1788.63" y="-354.29" font-family="Times,serif" font-size="14.00">4,3 (item=nexelit&#45;plate Nexelit platery)</text>
</g>
<!-- &#45;2,7 (item=borax Borax)&#45;&gt;4,3 (item=nexelit&#45;plate Nexelit platery) -->
<g id="edge1" class="edge">
<title>&#45;2,7 (item=borax Borax)&#45;&gt;4,3 (item=nexelit&#45;plate Nexelit platery)</title>
<path fill="none" stroke="black" stroke-width="0.15" d="M1961.53,-890.12C1935.44,-809.81 1829.49,-483.74 1797.7,-385.89"/>
<polygon fill="black" stroke="black" stroke-width="0.15" points="1800.94,-384.55 1794.52,-376.12 1794.28,-386.72 1800.94,-384.55"/>
<text text-anchor="middle" x="1837.61" y="-641.8" font-family="Times,serif" font-size="14.00">borax*2720</text>
</g>
<!-- &#45;1,10 (Iron Plates) -->
<g id="node3" class="node">
<title>&#45;1,10 (Iron Plates)</title>
<ellipse fill="none" stroke="black" cx="1788.63" cy="-1458.23" rx="94.78" ry="18"/>
<text text-anchor="middle" x="1788.63" y="-1454.53" font-family="Times,serif" font-size="14.00">&#45;1,10 (Iron Plates)</text>
</g>
<!-- &#45;2,7 (item=borax Borax)&#45;&gt;&#45;1,10 (Iron Plates) -->
<g id="edge2" class="edge">
<title>&#45;2,7 (item=borax Borax)&#45;&gt;&#45;1,10 (Iron Plates)</title>
<path fill="none" stroke="black" stroke-width="3.08" d="M1961.53,-926.1C1935.44,-1006.41 1829.49,-1332.48 1797.7,-1430.33"/>
<polygon fill="black" stroke="black" stroke-width="3.08" points="1794.28,-1429.51 1794.52,-1440.1 1800.94,-1431.67 1794.28,-1429.51"/>
<text text-anchor="middle" x="1833.11" y="-1182.02" font-family="Times,serif" font-size="14.00">borax*57280</text>
</g>
<!-- &#45;4,&#45;4 (Reserved For Aluminium Ore Drop, Aluminium) -->
<g id="node5" class="node">
<title>&#45;4,&#45;4 (Reserved For Aluminium Ore Drop, Aluminium)</title>
<ellipse fill="none" stroke="black" cx="1320.67" cy="-18" rx="258.05" ry="18"/>
<text text-anchor="middle" x="1320.67" y="-14.3" font-family="Times,serif" font-size="14.00">&#45;4,&#45;4 (Reserved For Aluminium Ore Drop, Aluminium)</text>
</g>
<!-- &#45;2,7 (item=borax Borax)&#45;&gt;&#45;4,&#45;4 (Reserved For Aluminium Ore Drop, Aluminium) -->
<g id="edge10" class="edge">
<title>&#45;2,7 (item=borax Borax)&#45;&gt;&#45;4,&#45;4 (Reserved For Aluminium Ore Drop, Aluminium)</title>
<path fill="none" stroke="black" stroke-width="2.15" d="M1954.17,-889.93C1872.48,-777.5 1436.59,-177.54 1339.74,-44.25"/>
<polygon fill="black" stroke="black" stroke-width="2.15" points="1342.57,-42.19 1333.86,-36.15 1336.91,-46.3 1342.57,-42.19"/>
<text text-anchor="middle" x="1600.45" y="-470.89" font-family="Times,serif" font-size="14.00">borax*40000</text>
</g>
<!-- 1,12 (Molten Iron) -->
<g id="node6" class="node">
<title>1,12 (Molten Iron)</title>
<ellipse fill="none" stroke="black" cx="742.24" cy="-18" rx="95.58" ry="18"/>
<text text-anchor="middle" x="742.24" y="-14.3" font-family="Times,serif" font-size="14.00">1,12 (Molten Iron)</text>
</g>
<!-- &#45;2,7 (item=borax Borax)&#45;&gt;1,12 (Molten Iron) -->
<g id="edge4" class="edge">
<title>&#45;2,7 (item=borax Borax)&#45;&gt;1,12 (Molten Iron)</title>
<path fill="none" stroke="black" stroke-width="3.04" d="M1942.9,-890.33C1788.52,-778.17 950.41,-169.24 774.6,-41.51"/>
<polygon fill="black" stroke="black" stroke-width="3.04" points="776.42,-38.5 766.27,-35.46 772.3,-44.17 776.42,-38.5"/>
<text text-anchor="middle" x="1312.25" y="-469.72" font-family="Times,serif" font-size="14.00">borax*56432</text>
</g>
<!-- 3,9 (Copper, molten &amp; plate) -->
<g id="node7" class="node">
<title>3,9 (Copper, molten &amp; plate)</title>
<ellipse fill="none" stroke="black" cx="274.29" cy="-357.99" rx="143.77" ry="18"/>
<text text-anchor="middle" x="274.29" y="-354.29" font-family="Times,serif" font-size="14.00">3,9 (Copper, molten &amp; plate)</text>
</g>
<!-- &#45;2,7 (item=borax Borax)&#45;&gt;3,9 (Copper, molten &amp; plate) -->
<g id="edge5" class="edge">
<title>&#45;2,7 (item=borax Borax)&#45;&gt;3,9 (Copper, molten &amp; plate)</title>
<path fill="none" stroke="black" stroke-width="3.05" d="M1916.71,-891.65C1670.91,-811.78 603.68,-465.02 335.57,-377.91"/>
<polygon fill="black" stroke="black" stroke-width="3.05" points="336.59,-374.56 326,-374.8 334.43,-381.21 336.59,-374.56"/>
<text text-anchor="middle" x="1079.64" y="-638.58" font-family="Times,serif" font-size="14.00">borax*56672</text>
</g>
<!-- &#45;1,11 (Steel Plate (from molten)) -->
<g id="node8" class="node">
<title>&#45;1,11 (Steel Plate (from molten))</title>
<ellipse fill="none" stroke="black" cx="2190.99" cy="-758.78" rx="161.37" ry="18"/>
<text text-anchor="middle" x="2190.99" y="-755.08" font-family="Times,serif" font-size="14.00">&#45;1,11 (Steel Plate (from molten))</text>
</g>
<!-- &#45;2,7 (item=borax Borax)&#45;&gt;&#45;1,11 (Steel Plate (from molten)) -->
<g id="edge6" class="edge">
<title>&#45;2,7 (item=borax Borax)&#45;&gt;&#45;1,11 (Steel Plate (from molten))</title>
<path fill="none" stroke="black" stroke-width="1.92" d="M1993.91,-890.39C2034.14,-863.52 2110.66,-812.42 2155.6,-782.41"/>
<polygon fill="black" stroke="black" stroke-width="1.92" points="2157.77,-785.17 2164.14,-776.71 2153.88,-779.35 2157.77,-785.17"/>
<text text-anchor="middle" x="2028.25" y="-840.2" font-family="Times,serif" font-size="14.00">borax*35728</text>
</g>
<!-- &#45;2,9 (molten steel) -->
<g id="node9" class="node">
<title>&#45;2,9 (molten steel)</title>
<ellipse fill="none" stroke="black" cx="95.54" cy="-908.11" rx="95.58" ry="18"/>
<text text-anchor="middle" x="95.54" y="-904.41" font-family="Times,serif" font-size="14.00">&#45;2,9 (molten steel)</text>
</g>
<!-- &#45;2,7 (item=borax Borax)&#45;&gt;&#45;2,9 (molten steel) -->
<g id="edge7" class="edge">
<title>&#45;2,7 (item=borax Borax)&#45;&gt;&#45;2,9 (molten steel)</title>
<path fill="none" stroke="black" stroke-width="0.79" d="M1843.84,-908.11C1498.08,-908.11 524.86,-908.11 201.49,-908.11"/>
<polygon fill="black" stroke="black" stroke-width="0.79" points="201.19,-904.61 191.19,-908.11 201.19,-911.61 201.19,-904.61"/>
<text text-anchor="middle" x="976.16" y="-911.91" font-family="Times,serif" font-size="14.00">borax*14704</text>
</g>
<!-- 2,&#45;2 (Tin Plate, Organic Solvent) -->
<g id="node10" class="node">
<title>2,&#45;2 (Tin Plate, Organic Solvent)</title>
<ellipse fill="none" stroke="black" cx="274.29" cy="-1458.23" rx="159.77" ry="18"/>
<text text-anchor="middle" x="274.29" y="-1454.53" font-family="Times,serif" font-size="14.00">2,&#45;2 (Tin Plate, Organic Solvent)</text>
</g>
<!-- &#45;2,7 (item=borax Borax)&#45;&gt;2,&#45;2 (Tin Plate, Organic Solvent) -->
<g id="edge8" class="edge">
<title>&#45;2,7 (item=borax Borax)&#45;&gt;2,&#45;2 (Tin Plate, Organic Solvent)</title>
<path fill="none" stroke="black" stroke-width="1.49" d="M1916.71,-924.57C1671.18,-1004.35 606.04,-1350.44 336.46,-1438.03"/>
<polygon fill="black" stroke="black" stroke-width="1.49" points="335.27,-1434.73 326.84,-1441.15 337.43,-1441.39 335.27,-1434.73"/>
<text text-anchor="middle" x="1080.08" y="-1185.1" font-family="Times,serif" font-size="14.00">borax*27792</text>
</g>
<!-- 2,10 (Nickel plate) -->
<g id="node11" class="node">
<title>2,10 (Nickel plate)</title>
<ellipse fill="none" stroke="black" cx="742.24" cy="-1798.22" rx="96.68" ry="18"/>
<text text-anchor="middle" x="742.24" y="-1794.52" font-family="Times,serif" font-size="14.00">2,10 (Nickel plate)</text>
</g>
<!-- &#45;2,7 (item=borax Borax)&#45;&gt;2,10 (Nickel plate) -->
<g id="edge11" class="edge">
<title>&#45;2,7 (item=borax Borax)&#45;&gt;2,10 (Nickel plate)</title>
<path fill="none" stroke="black" stroke-width="0.26" d="M1942.9,-925.89C1788.52,-1038.06 950.41,-1646.98 774.6,-1774.71"/>
<polygon fill="black" stroke="black" stroke-width="0.26" points="772.3,-1772.05 766.27,-1780.76 776.42,-1777.72 772.3,-1772.05"/>
<text text-anchor="middle" x="1316.75" y="-1354.1" font-family="Times,serif" font-size="14.00">borax*4896</text>
</g>
<!-- &#45;3,2 (Lead and Solder) -->
<g id="node12" class="node">
<title>&#45;3,2 (Lead and Solder)</title>
<ellipse fill="none" stroke="black" cx="2183.97" cy="-1104.36" rx="113.98" ry="18"/>
<text text-anchor="middle" x="2183.97" y="-1100.66" font-family="Times,serif" font-size="14.00">&#45;3,2 (Lead and Solder)</text>
</g>
<!-- &#45;2,7 (item=borax Borax)&#45;&gt;&#45;3,2 (Lead and Solder) -->
<g id="edge17" class="edge">
<title>&#45;2,7 (item=borax Borax)&#45;&gt;&#45;3,2 (Lead and Solder)</title>
<path fill="none" stroke="black" stroke-width="0.27" d="M1987.36,-926.22C2026.39,-961.58 2112.75,-1039.83 2156.87,-1079.81"/>
<polygon fill="black" stroke="black" stroke-width="0.27" points="2154.58,-1082.46 2164.34,-1086.58 2159.28,-1077.27 2154.58,-1082.46"/>
<text text-anchor="middle" x="2030.12" y="-1006.81" font-family="Times,serif" font-size="14.00">borax*5040</text>
</g>
<!-- &#45;3,&#45;1 (item=boron&#45;trioxide Boron products) -->
<g id="node4" class="node">
<title>&#45;3,&#45;1 (item=boron&#45;trioxide Boron products)</title>
<ellipse fill="none" stroke="black" cx="1320.67" cy="-1798.22" rx="209.86" ry="18"/>
<text text-anchor="middle" x="1320.67" y="-1794.52" font-family="Times,serif" font-size="14.00">&#45;3,&#45;1 (item=boron&#45;trioxide Boron products)</text>
</g>
<!-- &#45;3,&#45;1 (item=boron&#45;trioxide Boron products)&#45;&gt;4,3 (item=nexelit&#45;plate Nexelit platery) -->
<g id="edge16" class="edge">
<title>&#45;3,&#45;1 (item=boron&#45;trioxide Boron products)&#45;&gt;4,3 (item=nexelit&#45;plate Nexelit platery)</title>
<path fill="none" stroke="black" stroke-width="0.06" d="M1326.59,-1780.01C1375.97,-1628.05 1719.19,-571.7 1779.57,-385.88"/>
<polygon fill="black" stroke="black" stroke-width="0.06" points="1782.93,-386.87 1782.69,-376.28 1776.27,-384.71 1782.93,-386.87"/>
<text text-anchor="middle" x="1511.08" y="-1086.74" font-family="Times,serif" font-size="14.00">borax*1072</text>
</g>
<!-- &#45;3,&#45;1 (item=boron&#45;trioxide Boron products)&#45;&gt;&#45;1,10 (Iron Plates) -->
<g id="edge13" class="edge">
<title>&#45;3,&#45;1 (item=boron&#45;trioxide Boron products)&#45;&gt;&#45;1,10 (Iron Plates)</title>
<path fill="none" stroke="black" stroke-width="0.28" d="M1345.5,-1780.18C1424.13,-1723.05 1667.68,-1546.1 1756.12,-1481.85"/>
<polygon fill="black" stroke="black" stroke-width="0.28" points="1758.39,-1484.52 1764.43,-1475.82 1754.28,-1478.86 1758.39,-1484.52"/>
<text text-anchor="middle" x="1508.81" y="-1634.82" font-family="Times,serif" font-size="14.00">borax*5232</text>
</g>
<!-- &#45;3,&#45;1 (item=boron&#45;trioxide Boron products)&#45;&gt;&#45;4,&#45;4 (Reserved For Aluminium Ore Drop, Aluminium) -->
<g id="edge3" class="edge">
<title>&#45;3,&#45;1 (item=boron&#45;trioxide Boron products)&#45;&gt;&#45;4,&#45;4 (Reserved For Aluminium Ore Drop, Aluminium)</title>
<path fill="none" stroke="black" stroke-width="0.39" d="M1320.67,-1780.02C1320.67,-1607.35 1320.67,-259.52 1320.67,-46.35"/>
<polygon fill="black" stroke="black" stroke-width="0.39" points="1324.17,-46.27 1320.67,-36.27 1317.17,-46.27 1324.17,-46.27"/>
<text text-anchor="middle" x="1278.67" y="-916.99" font-family="Times,serif" font-size="14.00">borax*7232</text>
</g>
<!-- &#45;3,&#45;1 (item=boron&#45;trioxide Boron products)&#45;&gt;1,12 (Molten Iron) -->
<g id="edge14" class="edge">
<title>&#45;3,&#45;1 (item=boron&#45;trioxide Boron products)&#45;&gt;1,12 (Molten Iron)</title>
<path fill="none" stroke="black" stroke-width="0.4" d="M1314.76,-1780.02C1258.6,-1607.17 819.83,-256.77 751.25,-45.7"/>
<polygon fill="black" stroke="black" stroke-width="0.4" points="754.51,-44.43 748.09,-36 747.85,-46.59 754.51,-44.43"/>
<text text-anchor="middle" x="1075" y="-916.66" font-family="Times,serif" font-size="14.00">borax*7424</text>
</g>
<!-- &#45;3,&#45;1 (item=boron&#45;trioxide Boron products)&#45;&gt;3,9 (Copper, molten &amp; plate) -->
<g id="edge9" class="edge">
<title>&#45;3,&#45;1 (item=boron&#45;trioxide Boron products)&#45;&gt;3,9 (Copper, molten &amp; plate)</title>
<path fill="none" stroke="black" stroke-width="0.33" d="M1307.44,-1780.01C1196.76,-1627.67 425.73,-566.44 293.55,-384.5"/>
<polygon fill="black" stroke="black" stroke-width="0.33" points="296.28,-382.31 287.57,-376.28 290.62,-386.43 296.28,-382.31"/>
<text text-anchor="middle" x="758.5" y="-1086.06" font-family="Times,serif" font-size="14.00">borax*6176</text>
</g>
<!-- &#45;3,&#45;1 (item=boron&#45;trioxide Boron products)&#45;&gt;&#45;2,9 (molten steel) -->
<g id="edge12" class="edge">
<title>&#45;3,&#45;1 (item=boron&#45;trioxide Boron products)&#45;&gt;&#45;2,9 (molten steel)</title>
<path fill="none" stroke="black" stroke-width="0.17" d="M1295.92,-1780.24C1140.81,-1667.54 303.49,-1059.2 127.87,-931.6"/>
<polygon fill="black" stroke="black" stroke-width="0.17" points="129.69,-928.6 119.54,-925.55 125.58,-934.26 129.69,-928.6"/>
<text text-anchor="middle" x="669.89" y="-1359.72" font-family="Times,serif" font-size="14.00">borax*3104</text>
</g>
<!-- &#45;3,&#45;1 (item=boron&#45;trioxide Boron products)&#45;&gt;2,&#45;2 (Tin Plate, Organic Solvent) -->
<g id="edge18" class="edge">
<title>&#45;3,&#45;1 (item=boron&#45;trioxide Boron products)&#45;&gt;2,&#45;2 (Tin Plate, Organic Solvent)</title>
<path fill="none" stroke="black" stroke-width="0.06" d="M1266.98,-1780.78C1090,-1723.27 525.58,-1539.88 336.61,-1478.48"/>
<polygon fill="black" stroke="black" stroke-width="0.06" points="337.42,-1475.06 326.83,-1475.3 335.26,-1481.72 337.42,-1475.06"/>
<text text-anchor="middle" x="759.79" y="-1633.43" font-family="Times,serif" font-size="14.00">borax*1040</text>
</g>
<!-- &#45;3,&#45;1 (item=boron&#45;trioxide Boron products)&#45;&gt;2,10 (Nickel plate) -->
<g id="edge15" class="edge">
<title>&#45;3,&#45;1 (item=boron&#45;trioxide Boron products)&#45;&gt;2,10 (Nickel plate)</title>
<path fill="none" stroke="black" stroke-width="0.11" d="M1110.62,-1798.22C1022.04,-1798.22 922.72,-1798.22 849.55,-1798.22"/>
<polygon fill="black" stroke="black" stroke-width="0.11" points="849.41,-1794.72 839.4,-1798.22 849.4,-1801.72 849.41,-1794.72"/>
<text text-anchor="middle" x="938.09" y="-1802.02" font-family="Times,serif" font-size="14.00">borax*2080</text>
</g>
</g>
</svg>
