<?xml version="1.0" encoding="UTF-8" standalone="no"?>
<!DOCTYPE svg PUBLIC "-//W3C//DTD SVG 1.1//EN"
 "http://www.w3.org/Graphics/SVG/1.1/DTD/svg11.dtd">
<!-- Generated by graphviz version 2.43.0 (0)
 -->
<!-- Title: %3 Pages: 1 -->
<svg width="1438pt" height="44pt"
 viewBox="0.00 0.00 1437.70 44.00" xmlns="http://www.w3.org/2000/svg" xmlns:xlink="http://www.w3.org/1999/xlink">
<g id="graph0" class="graph" transform="scale(1 1) rotate(0) translate(4 40)">
<title>%3</title>
<polygon fill="white" stroke="transparent" points="-4,4 -4,-40 1433.7,-40 1433.7,4 -4,4"/>
<!-- 4,3 (item=nexelit&#45;plate Nexelit platery) -->
<g id="node1" class="node">
<title>4,3 (item=nexelit&#45;plate Nexelit platery)</title>
<ellipse fill="none" stroke="black" cx="765.99" cy="-18" rx="194.17" ry="18"/>
<text text-anchor="middle" x="765.99" y="-14.3" font-family="Times,serif" font-size="14.00">4,3 (item=nexelit&#45;plate Nexelit platery)</text>
</g>
<!-- 2,7 (Mystery petrochemicals) -->
<g id="node2" class="node">
<title>2,7 (Mystery petrochemicals)</title>
<ellipse fill="none" stroke="black" cx="1282.16" cy="-18" rx="147.57" ry="18"/>
<text text-anchor="middle" x="1282.16" y="-14.3" font-family="Times,serif" font-size="14.00">2,7 (Mystery petrochemicals)</text>
</g>
<!-- 4,3 (item=nexelit&#45;plate Nexelit platery)&#45;&gt;2,7 (Mystery petrochemicals) -->
<g id="edge1" class="edge">
<title>4,3 (item=nexelit&#45;plate Nexelit platery)&#45;&gt;2,7 (Mystery petrochemicals)</title>
<path fill="none" stroke="black" stroke-width="1.92" d="M960.4,-18C1014.52,-18 1072.62,-18 1124.36,-18"/>
<polygon fill="black" stroke="black" stroke-width="1.92" points="1124.62,-21.5 1134.62,-18 1124.62,-14.5 1124.62,-21.5"/>
<text text-anchor="middle" x="1042.38" y="-6.8" font-family="Times,serif" font-size="14.00">nexelit&#45;plate*14608</text>
</g>
<!-- 4,&#45;1 (Fluid) -->
<g id="node4" class="node">
<title>4,&#45;1 (Fluid)</title>
<ellipse fill="none" stroke="black" cx="437.92" cy="-18" rx="61.99" ry="18"/>
<text text-anchor="middle" x="437.92" y="-14.3" font-family="Times,serif" font-size="14.00">4,&#45;1 (Fluid)</text>
</g>
<!-- 4,3 (item=nexelit&#45;plate Nexelit platery)&#45;&gt;4,&#45;1 (Fluid) -->
<g id="edge3" class="edge">
<title>4,3 (item=nexelit&#45;plate Nexelit platery)&#45;&gt;4,&#45;1 (Fluid)</title>
<path fill="none" stroke="black" stroke-width="0.53" d="M571.36,-18C549.59,-18 528.56,-18 509.89,-18"/>
<polygon fill="black" stroke="black" stroke-width="0.53" points="509.77,-14.5 499.77,-18 509.77,-21.5 509.77,-14.5"/>
<text text-anchor="middle" x="507.38" y="-6.8" font-family="Times,serif" font-size="14.00">nexelit&#45;plate*4032</text>
</g>
<!-- &#45;1,5 (Train stops for bus brick) -->
<g id="node3" class="node">
<title>&#45;1,5 (Train stops for bus brick)</title>
<ellipse fill="none" stroke="black" cx="152.09" cy="-18" rx="152.17" ry="18"/>
<text text-anchor="middle" x="152.09" y="-14.3" font-family="Times,serif" font-size="14.00">&#45;1,5 (Train stops for bus brick)</text>
</g>
<!-- &#45;1,5 (Train stops for bus brick)&#45;&gt;4,&#45;1 (Fluid) -->
<g id="edge2" class="edge">
<title>&#45;1,5 (Train stops for bus brick)&#45;&gt;4,&#45;1 (Fluid)</title>
<path fill="none" stroke="black" stroke-width="0.55" d="M304.21,-18C325.58,-18 346.68,-18 365.58,-18"/>
<polygon fill="black" stroke="black" stroke-width="0.55" points="365.84,-21.5 375.84,-18 365.84,-14.5 365.84,-21.5"/>
<text text-anchor="middle" x="334.89" y="-6.8" font-family="Times,serif" font-size="14.00">nexelit&#45;plate*4160</text>
</g>
</g>
</svg>
