<?xml version="1.0" encoding="UTF-8" standalone="no"?>
<!DOCTYPE svg PUBLIC "-//W3C//DTD SVG 1.1//EN"
 "http://www.w3.org/Graphics/SVG/1.1/DTD/svg11.dtd">
<!-- Generated by graphviz version 2.43.0 (0)
 -->
<!-- Title: %3 Pages: 1 -->
<svg width="1469pt" height="1170pt"
 viewBox="0.00 0.00 1469.22 1170.24" xmlns="http://www.w3.org/2000/svg" xmlns:xlink="http://www.w3.org/1999/xlink">
<g id="graph0" class="graph" transform="scale(1 1) rotate(0) translate(4 1166.24)">
<title>%3</title>
<polygon fill="white" stroke="transparent" points="-4,4 -4,-1166.24 1465.22,-1166.24 1465.22,4 -4,4"/>
<!-- &#45;4,&#45;3 (Breath Deeply. Exhale. (Hot Air)) -->
<g id="node1" class="node">
<title>&#45;4,&#45;3 (Breath Deeply. Exhale. (Hot Air))</title>
<ellipse fill="none" stroke="black" cx="741.42" cy="-589.83" rx="190.37" ry="18"/>
<text text-anchor="middle" x="741.42" y="-586.13" font-family="Times,serif" font-size="14.00">&#45;4,&#45;3 (Breath Deeply. Exhale. (Hot Air))</text>
</g>
<!-- 0,3 () -->
<g id="node2" class="node">
<title>0,3 ()</title>
<ellipse fill="none" stroke="black" cx="1322" cy="-589.83" rx="35.19" ry="18"/>
<text text-anchor="middle" x="1322" y="-586.13" font-family="Times,serif" font-size="14.00">0,3 ()</text>
</g>
<!-- &#45;4,&#45;3 (Breath Deeply. Exhale. (Hot Air))&#45;&gt;0,3 () -->
<g id="edge1" class="edge">
<title>&#45;4,&#45;3 (Breath Deeply. Exhale. (Hot Air))&#45;&gt;0,3 ()</title>
<path fill="none" stroke="black" stroke-width="0.45" d="M931.93,-589.83C1054.03,-589.83 1202.95,-589.83 1276.46,-589.83"/>
<polygon fill="black" stroke="black" stroke-width="0.45" points="1276.74,-593.33 1286.74,-589.83 1276.74,-586.33 1276.74,-593.33"/>
<text text-anchor="middle" x="1034.69" y="-593.63" font-family="Times,serif" font-size="14.00">hot&#45;air&#45;barrel*3248</text>
</g>
<!-- &#45;5,5 (fluid=flue&#45;gas Flue gas) -->
<g id="node3" class="node">
<title>&#45;5,5 (fluid=flue&#45;gas Flue gas)</title>
<ellipse fill="none" stroke="black" cx="1267.87" cy="-834.61" rx="145.67" ry="18"/>
<text text-anchor="middle" x="1267.87" y="-830.91" font-family="Times,serif" font-size="14.00">&#45;5,5 (fluid=flue&#45;gas Flue gas)</text>
</g>
<!-- &#45;4,&#45;3 (Breath Deeply. Exhale. (Hot Air))&#45;&gt;&#45;5,5 (fluid=flue&#45;gas Flue gas) -->
<g id="edge2" class="edge">
<title>&#45;4,&#45;3 (Breath Deeply. Exhale. (Hot Air))&#45;&gt;&#45;5,5 (fluid=flue&#45;gas Flue gas)</title>
<path fill="none" stroke="black" stroke-width="6.01" d="M779.71,-607.63C874.24,-651.59 1118.49,-765.16 1221.23,-812.93"/>
<polygon fill="black" stroke="black" stroke-width="6.01" points="1219.15,-817.76 1230.43,-817.21 1223.58,-808.23 1219.15,-817.76"/>
<text text-anchor="middle" x="926.47" y="-714.08" font-family="Times,serif" font-size="14.00">hot&#45;air&#45;barrel*43706</text>
</g>
<!-- &#45;4,0 (IRON PATCH, item=lens Optical sets) -->
<g id="node4" class="node">
<title>&#45;4,0 (IRON PATCH, item=lens Optical sets)</title>
<ellipse fill="none" stroke="black" cx="967.08" cy="-1124.76" rx="209.86" ry="18"/>
<text text-anchor="middle" x="967.08" y="-1121.06" font-family="Times,serif" font-size="14.00">&#45;4,0 (IRON PATCH, item=lens Optical sets)</text>
</g>
<!-- &#45;4,&#45;3 (Breath Deeply. Exhale. (Hot Air))&#45;&gt;&#45;4,0 (IRON PATCH, item=lens Optical sets) -->
<g id="edge3" class="edge">
<title>&#45;4,&#45;3 (Breath Deeply. Exhale. (Hot Air))&#45;&gt;&#45;4,0 (IRON PATCH, item=lens Optical sets)</title>
<path fill="none" stroke="black" stroke-width="0.66" d="M749.06,-607.94C782.41,-686.99 915.38,-1002.21 955.53,-1097.4"/>
<polygon fill="black" stroke="black" stroke-width="0.66" points="952.33,-1098.81 959.44,-1106.66 958.78,-1096.08 952.33,-1098.81"/>
<text text-anchor="middle" x="782.8" y="-856.47" font-family="Times,serif" font-size="14.00">hot&#45;air&#45;barrel*4832</text>
</g>
<!-- 0,12 (Phosphate mining) -->
<g id="node5" class="node">
<title>0,12 (Phosphate mining)</title>
<ellipse fill="none" stroke="black" cx="569.1" cy="-1144.24" rx="124.58" ry="18"/>
<text text-anchor="middle" x="569.1" y="-1140.54" font-family="Times,serif" font-size="14.00">0,12 (Phosphate mining)</text>
</g>
<!-- &#45;4,&#45;3 (Breath Deeply. Exhale. (Hot Air))&#45;&gt;0,12 (Phosphate mining) -->
<g id="edge4" class="edge">
<title>&#45;4,&#45;3 (Breath Deeply. Exhale. (Hot Air))&#45;&gt;0,12 (Phosphate mining)</title>
<path fill="none" stroke="black" stroke-width="0.26" d="M735.79,-607.96C710.6,-688.99 608.26,-1018.24 577.73,-1116.46"/>
<polygon fill="black" stroke="black" stroke-width="0.26" points="574.32,-1115.66 574.69,-1126.25 581,-1117.74 574.32,-1115.66"/>
<text text-anchor="middle" x="587.26" y="-866.01" font-family="Times,serif" font-size="14.00">hot&#45;air&#45;barrel*1920</text>
</g>
<!-- 3,9 (Copper, molten &amp; plate) -->
<g id="node6" class="node">
<title>3,9 (Copper, molten &amp; plate)</title>
<ellipse fill="none" stroke="black" cx="291.11" cy="-956.28" rx="143.77" ry="18"/>
<text text-anchor="middle" x="291.11" y="-952.58" font-family="Times,serif" font-size="14.00">3,9 (Copper, molten &amp; plate)</text>
</g>
<!-- &#45;4,&#45;3 (Breath Deeply. Exhale. (Hot Air))&#45;&gt;3,9 (Copper, molten &amp; plate) -->
<g id="edge5" class="edge">
<title>&#45;4,&#45;3 (Breath Deeply. Exhale. (Hot Air))&#45;&gt;3,9 (Copper, molten &amp; plate)</title>
<path fill="none" stroke="black" stroke-width="0.46" d="M719.4,-607.76C645.4,-667.97 405.64,-863.08 321.02,-931.94"/>
<polygon fill="black" stroke="black" stroke-width="0.46" points="318.64,-929.36 313.09,-938.39 323.06,-934.79 318.64,-929.36"/>
<text text-anchor="middle" x="450.71" y="-773.65" font-family="Times,serif" font-size="14.00">hot&#45;air&#45;barrel*3312</text>
</g>
<!-- &#45;1,11 (Steel Plate (from molten)) -->
<g id="node7" class="node">
<title>&#45;1,11 (Steel Plate (from molten))</title>
<ellipse fill="none" stroke="black" cx="161.19" cy="-609.58" rx="161.37" ry="18"/>
<text text-anchor="middle" x="161.19" y="-605.88" font-family="Times,serif" font-size="14.00">&#45;1,11 (Steel Plate (from molten))</text>
</g>
<!-- &#45;4,&#45;3 (Breath Deeply. Exhale. (Hot Air))&#45;&gt;&#45;1,11 (Steel Plate (from molten)) -->
<g id="edge6" class="edge">
<title>&#45;4,&#45;3 (Breath Deeply. Exhale. (Hot Air))&#45;&gt;&#45;1,11 (Steel Plate (from molten))</title>
<path fill="none" stroke="black" stroke-width="1.77" d="M562.2,-595.93C486.85,-598.5 399.74,-601.46 326,-603.97"/>
<polygon fill="black" stroke="black" stroke-width="1.77" points="325.57,-600.48 315.69,-604.32 325.8,-607.48 325.57,-600.48"/>
<text text-anchor="middle" x="444.1" y="-588.75" font-family="Times,serif" font-size="14.00">hot&#45;air&#45;barrel*12888</text>
</g>
<!-- &#45;1,10 (Iron Plates) -->
<g id="node8" class="node">
<title>&#45;1,10 (Iron Plates)</title>
<ellipse fill="none" stroke="black" cx="240.82" cy="-295.8" rx="94.78" ry="18"/>
<text text-anchor="middle" x="240.82" y="-292.1" font-family="Times,serif" font-size="14.00">&#45;1,10 (Iron Plates)</text>
</g>
<!-- &#45;4,&#45;3 (Breath Deeply. Exhale. (Hot Air))&#45;&gt;&#45;1,10 (Iron Plates) -->
<g id="edge7" class="edge">
<title>&#45;4,&#45;3 (Breath Deeply. Exhale. (Hot Air))&#45;&gt;&#45;1,10 (Iron Plates)</title>
<path fill="none" stroke="black" stroke-width="0.45" d="M710.86,-571.88C623.77,-520.73 374.44,-374.28 278.8,-318.11"/>
<polygon fill="black" stroke="black" stroke-width="0.45" points="280.43,-315.01 270.03,-312.96 276.88,-321.04 280.43,-315.01"/>
<text text-anchor="middle" x="425.33" y="-448.79" font-family="Times,serif" font-size="14.00">hot&#45;air&#45;barrel*3264</text>
</g>
<!-- 2,10 (Nickel plate) -->
<g id="node9" class="node">
<title>2,10 (Nickel plate)</title>
<ellipse fill="none" stroke="black" cx="420.61" cy="-105.95" rx="96.68" ry="18"/>
<text text-anchor="middle" x="420.61" y="-102.25" font-family="Times,serif" font-size="14.00">2,10 (Nickel plate)</text>
</g>
<!-- &#45;4,&#45;3 (Breath Deeply. Exhale. (Hot Air))&#45;&gt;2,10 (Nickel plate) -->
<g id="edge8" class="edge">
<title>&#45;4,&#45;3 (Breath Deeply. Exhale. (Hot Air))&#45;&gt;2,10 (Nickel plate)</title>
<path fill="none" stroke="black" stroke-width="0.15" d="M729.43,-571.75C680.54,-498.01 496.12,-219.84 438.16,-132.42"/>
<polygon fill="black" stroke="black" stroke-width="0.15" points="440.93,-130.27 432.49,-123.87 435.1,-134.14 440.93,-130.27"/>
<text text-anchor="middle" x="514.29" y="-355.88" font-family="Times,serif" font-size="14.00">hot&#45;air&#45;barrel*1096</text>
</g>
<!-- &#45;2,&#45;3 (Trains) -->
<g id="node10" class="node">
<title>&#45;2,&#45;3 (Trains)</title>
<ellipse fill="none" stroke="black" cx="641.06" cy="-18" rx="70.39" ry="18"/>
<text text-anchor="middle" x="641.06" y="-14.3" font-family="Times,serif" font-size="14.00">&#45;2,&#45;3 (Trains)</text>
</g>
<!-- &#45;4,&#45;3 (Breath Deeply. Exhale. (Hot Air))&#45;&gt;&#45;2,&#45;3 (Trains) -->
<g id="edge9" class="edge">
<title>&#45;4,&#45;3 (Breath Deeply. Exhale. (Hot Air))&#45;&gt;&#45;2,&#45;3 (Trains)</title>
<path fill="none" stroke="black" stroke-width="0.4" d="M738.25,-571.77C723.75,-489.16 663.7,-146.97 645.99,-46.1"/>
<polygon fill="black" stroke="black" stroke-width="0.4" points="649.41,-45.31 644.23,-36.06 642.51,-46.52 649.41,-45.31"/>
<text text-anchor="middle" x="622.62" y="-312.74" font-family="Times,serif" font-size="14.00">hot&#45;air&#45;barrel*2910</text>
</g>
<!-- 2,1 (Niobium plates) -->
<g id="node11" class="node">
<title>2,1 (Niobium plates)</title>
<ellipse fill="none" stroke="black" cx="887.12" cy="-27.84" rx="105.88" ry="18"/>
<text text-anchor="middle" x="887.12" y="-24.14" font-family="Times,serif" font-size="14.00">2,1 (Niobium plates)</text>
</g>
<!-- &#45;4,&#45;3 (Breath Deeply. Exhale. (Hot Air))&#45;&gt;2,1 (Niobium plates) -->
<g id="edge10" class="edge">
<title>&#45;4,&#45;3 (Breath Deeply. Exhale. (Hot Air))&#45;&gt;2,1 (Niobium plates)</title>
<path fill="none" stroke="black" stroke-width="0.12" d="M746.11,-571.77C767.28,-490.11 854.13,-155.08 879.88,-55.73"/>
<polygon fill="black" stroke="black" stroke-width="0.12" points="883.33,-56.39 882.45,-45.83 876.55,-54.63 883.33,-56.39"/>
<text text-anchor="middle" x="877.99" y="-317.55" font-family="Times,serif" font-size="14.00">hot&#45;air&#45;barrel*864</text>
</g>
<!-- 3,5 (item=molybdenum&#45;plate Molybdenum plate) -->
<g id="node12" class="node">
<title>3,5 (item=molybdenum&#45;plate Molybdenum plate)</title>
<ellipse fill="none" stroke="black" cx="1221.39" cy="-263.19" rx="239.66" ry="18"/>
<text text-anchor="middle" x="1221.39" y="-259.49" font-family="Times,serif" font-size="14.00">3,5 (item=molybdenum&#45;plate Molybdenum plate)</text>
</g>
<!-- &#45;4,&#45;3 (Breath Deeply. Exhale. (Hot Air))&#45;&gt;3,5 (item=molybdenum&#45;plate Molybdenum plate) -->
<g id="edge11" class="edge">
<title>&#45;4,&#45;3 (Breath Deeply. Exhale. (Hot Air))&#45;&gt;3,5 (item=molybdenum&#45;plate Molybdenum plate)</title>
<path fill="none" stroke="black" stroke-width="0.27" d="M767.91,-571.81C849.2,-516.48 1095.14,-349.11 1186.62,-286.85"/>
<polygon fill="black" stroke="black" stroke-width="0.27" points="1188.68,-289.68 1194.98,-281.16 1184.75,-283.89 1188.68,-289.68"/>
<text text-anchor="middle" x="907.77" y="-433.13" font-family="Times,serif" font-size="14.00">hot&#45;air&#45;barrel*2000</text>
</g>
</g>
</svg>
