<?xml version="1.0" encoding="UTF-8" standalone="no"?>
<!DOCTYPE svg PUBLIC "-//W3C//DTD SVG 1.1//EN"
 "http://www.w3.org/Graphics/SVG/1.1/DTD/svg11.dtd">
<!-- Generated by graphviz version 2.43.0 (0)
 -->
<!-- Title: %3 Pages: 1 -->
<svg width="677pt" height="44pt"
 viewBox="0.00 0.00 676.50 44.00" xmlns="http://www.w3.org/2000/svg" xmlns:xlink="http://www.w3.org/1999/xlink">
<g id="graph0" class="graph" transform="scale(1 1) rotate(0) translate(4 40)">
<title>%3</title>
<polygon fill="white" stroke="transparent" points="-4,4 -4,-40 672.5,-40 672.5,4 -4,4"/>
<!-- &#45;2,&#45;1 () -->
<g id="node1" class="node">
<title>&#45;2,&#45;1 ()</title>
<ellipse fill="none" stroke="black" cx="361.22" cy="-18" rx="40.89" ry="18"/>
<text text-anchor="middle" x="361.22" y="-14.3" font-family="Times,serif" font-size="14.00">&#45;2,&#45;1 ()</text>
</g>
<!-- &#45;2,&#45;3 (Trains) -->
<g id="node2" class="node">
<title>&#45;2,&#45;3 (Trains)</title>
<ellipse fill="none" stroke="black" cx="598.31" cy="-18" rx="70.39" ry="18"/>
<text text-anchor="middle" x="598.31" y="-14.3" font-family="Times,serif" font-size="14.00">&#45;2,&#45;3 (Trains)</text>
</g>
<!-- &#45;2,&#45;1 ()&#45;&gt;&#45;2,&#45;3 (Trains) -->
<g id="edge1" class="edge">
<title>&#45;2,&#45;1 ()&#45;&gt;&#45;2,&#45;3 (Trains)</title>
<path fill="none" stroke="black" d="M402.25,-18C434,-18 478.97,-18 517.83,-18"/>
<polygon fill="black" stroke="black" points="518.09,-21.5 528.09,-18 518.09,-14.5 518.09,-21.5"/>
<text text-anchor="middle" x="460.04" y="-6.8" font-family="Times,serif" font-size="14.00">rare&#45;earth&#45;ore*2032</text>
</g>
<!-- &#45;2,5 (Rare Earth Oxides) -->
<g id="node3" class="node">
<title>&#45;2,5 (Rare Earth Oxides)</title>
<ellipse fill="none" stroke="black" cx="124.14" cy="-18" rx="124.28" ry="18"/>
<text text-anchor="middle" x="124.14" y="-14.3" font-family="Times,serif" font-size="14.00">&#45;2,5 (Rare Earth Oxides)</text>
</g>
<!-- &#45;2,&#45;1 ()&#45;&gt;&#45;2,5 (Rare Earth Oxides) -->
<g id="edge2" class="edge">
<title>&#45;2,&#45;1 ()&#45;&gt;&#45;2,5 (Rare Earth Oxides)</title>
<path fill="none" stroke="black" d="M320.2,-18C302.59,-18 280.92,-18 258.49,-18"/>
<polygon fill="black" stroke="black" points="258.49,-14.5 248.49,-18 258.49,-21.5 258.49,-14.5"/>
<text text-anchor="middle" x="253.34" y="-6.8" font-family="Times,serif" font-size="14.00">rare&#45;earth&#45;ore*2032</text>
</g>
</g>
</svg>
