<?xml version="1.0" encoding="UTF-8" standalone="no"?>
<!DOCTYPE svg PUBLIC "-//W3C//DTD SVG 1.1//EN"
 "http://www.w3.org/Graphics/SVG/1.1/DTD/svg11.dtd">
<!-- Generated by graphviz version 2.43.0 (0)
 -->
<!-- Title: %3 Pages: 1 -->
<svg width="4917pt" height="4167pt"
 viewBox="0.00 0.00 4917.33 4167.04" xmlns="http://www.w3.org/2000/svg" xmlns:xlink="http://www.w3.org/1999/xlink">
<g id="graph0" class="graph" transform="scale(1 1) rotate(0) translate(4 4163.04)">
<title>%3</title>
<polygon fill="white" stroke="transparent" points="-4,4 -4,-4163.04 4913.33,-4163.04 4913.33,4 -4,4"/>
<!-- &#45;5,&#45;1 (Coal and Coke and Syngas and Ash and Coke Oven Gas and...) -->
<g id="node1" class="node">
<title>&#45;5,&#45;1 (Coal and Coke and Syngas and Ash and Coke Oven Gas and...)</title>
<ellipse fill="none" stroke="black" cx="325.62" cy="-2079.52" rx="325.74" ry="18"/>
<text text-anchor="middle" x="325.62" y="-2075.82" font-family="Times,serif" font-size="14.00">&#45;5,&#45;1 (Coal and Coke and Syngas and Ash and Coke Oven Gas and...)</text>
</g>
<!-- &#45;2,8 (syngas from coal dust and also wood) -->
<g id="node2" class="node">
<title>&#45;2,8 (syngas from coal dust and also wood)</title>
<ellipse fill="none" stroke="black" cx="1356.38" cy="-294.19" rx="208.76" ry="18"/>
<text text-anchor="middle" x="1356.38" y="-290.49" font-family="Times,serif" font-size="14.00">&#45;2,8 (syngas from coal dust and also wood)</text>
</g>
<!-- &#45;5,&#45;1 (Coal and Coke and Syngas and Ash and Coke Oven Gas and...)&#45;&gt;&#45;2,8 (syngas from coal dust and also wood) -->
<g id="edge1" class="edge">
<title>&#45;5,&#45;1 (Coal and Coke and Syngas and Ash and Coke Oven Gas and...)&#45;&gt;&#45;2,8 (syngas from coal dust and also wood)</title>
<path fill="none" stroke="black" stroke-width="5.83" d="M336.16,-2061.27C436.39,-1887.67 1220.46,-529.61 1340.88,-321.04"/>
<polygon fill="black" stroke="black" stroke-width="5.83" points="1345.38,-323.46 1345.96,-312.24 1336.54,-318.35 1345.38,-323.46"/>
<text text-anchor="middle" x="775.52" y="-1194.95" font-family="Times,serif" font-size="14.00">coal&#45;dust*590880</text>
</g>
<!-- 1,7 (Activated Carbon) -->
<g id="node5" class="node">
<title>1,7 (Activated Carbon)</title>
<ellipse fill="none" stroke="black" cx="4448.67" cy="-2079.52" rx="115.88" ry="18"/>
<text text-anchor="middle" x="4448.67" y="-2075.82" font-family="Times,serif" font-size="14.00">1,7 (Activated Carbon)</text>
</g>
<!-- &#45;5,&#45;1 (Coal and Coke and Syngas and Ash and Coke Oven Gas and...)&#45;&gt;1,7 (Activated Carbon) -->
<g id="edge4" class="edge">
<title>&#45;5,&#45;1 (Coal and Coke and Syngas and Ash and Coke Oven Gas and...)&#45;&gt;1,7 (Activated Carbon)</title>
<path fill="none" stroke="black" stroke-width="4.96" d="M651.3,-2079.52C1502.12,-2079.52 3764.16,-2079.52 4322.66,-2079.52"/>
<polygon fill="black" stroke="black" stroke-width="4.96" points="4322.76,-2083.86 4332.76,-2079.52 4322.76,-2075.19 4322.76,-2083.86"/>
<text text-anchor="middle" x="2423.98" y="-2068.32" font-family="Times,serif" font-size="14.00">coal&#45;dust*501920</text>
</g>
<!-- &#45;3,9 (Silicon Wafers) -->
<g id="node8" class="node">
<title>&#45;3,9 (Silicon Wafers)</title>
<ellipse fill="none" stroke="black" cx="1356.38" cy="-3864.85" rx="103.98" ry="18"/>
<text text-anchor="middle" x="1356.38" y="-3861.15" font-family="Times,serif" font-size="14.00">&#45;3,9 (Silicon Wafers)</text>
</g>
<!-- &#45;5,&#45;1 (Coal and Coke and Syngas and Ash and Coke Oven Gas and...)&#45;&gt;&#45;3,9 (Silicon Wafers) -->
<g id="edge10" class="edge">
<title>&#45;5,&#45;1 (Coal and Coke and Syngas and Ash and Coke Oven Gas and...)&#45;&gt;&#45;3,9 (Silicon Wafers)</title>
<path fill="none" stroke="black" stroke-width="0.31" d="M336.16,-2097.77C436.39,-2271.37 1220.46,-3629.43 1340.88,-3838.01"/>
<polygon fill="black" stroke="black" stroke-width="0.31" points="1337.93,-3839.89 1345.96,-3846.8 1343.99,-3836.39 1337.93,-3839.89"/>
<text text-anchor="middle" x="780.02" y="-2971.69" font-family="Times,serif" font-size="14.00">coal&#45;dust*30960</text>
</g>
<!-- 5,5 (Silicon) -->
<g id="node9" class="node">
<title>5,5 (Silicon)</title>
<ellipse fill="none" stroke="black" cx="601.81" cy="-3110.28" rx="66.09" ry="18"/>
<text text-anchor="middle" x="601.81" y="-3106.58" font-family="Times,serif" font-size="14.00">5,5 (Silicon)</text>
</g>
<!-- &#45;5,&#45;1 (Coal and Coke and Syngas and Ash and Coke Oven Gas and...)&#45;&gt;5,5 (Silicon) -->
<g id="edge12" class="edge">
<title>&#45;5,&#45;1 (Coal and Coke and Syngas and Ash and Coke Oven Gas and...)&#45;&gt;5,5 (Silicon)</title>
<path fill="none" stroke="black" stroke-width="0.2" d="M330.53,-2097.85C363.61,-2221.3 553.79,-2931.07 594.25,-3082.05"/>
<polygon fill="black" stroke="black" stroke-width="0.2" points="590.93,-3083.18 596.9,-3091.94 597.69,-3081.37 590.93,-3083.18"/>
<text text-anchor="middle" x="403.89" y="-2593.75" font-family="Times,serif" font-size="14.00">coal&#45;dust*20480</text>
</g>
<!-- 2,8 (Graphite) -->
<g id="node3" class="node">
<title>2,8 (Graphite)</title>
<ellipse fill="none" stroke="black" cx="2387.14" cy="-4141.04" rx="76.09" ry="18"/>
<text text-anchor="middle" x="2387.14" y="-4137.34" font-family="Times,serif" font-size="14.00">2,8 (Graphite)</text>
</g>
<!-- 2,8 (Graphite)&#45;&gt;&#45;2,8 (syngas from coal dust and also wood) -->
<g id="edge2" class="edge">
<title>2,8 (Graphite)&#45;&gt;&#45;2,8 (syngas from coal dust and also wood)</title>
<path fill="none" stroke="black" stroke-width="4.1" d="M2382.32,-4123.04C2310.23,-3854 1453.32,-655.96 1363.91,-322.29"/>
<polygon fill="black" stroke="black" stroke-width="4.1" points="1367.33,-321.17 1361.27,-312.44 1360.39,-323.03 1367.33,-321.17"/>
<text text-anchor="middle" x="1810.11" y="-2226.46" font-family="Times,serif" font-size="14.00">coal&#45;dust*415760</text>
</g>
<!-- 2,8 (Graphite)&#45;&gt;1,7 (Activated Carbon) -->
<g id="edge6" class="edge">
<title>2,8 (Graphite)&#45;&gt;1,7 (Activated Carbon)</title>
<path fill="none" stroke="black" stroke-width="2.76" d="M2404.97,-4123.22C2592.53,-3935.66 4201.76,-2326.43 4423.4,-2104.79"/>
<polygon fill="black" stroke="black" stroke-width="2.76" points="4426.09,-2107.04 4430.69,-2097.5 4421.14,-2102.09 4426.09,-2107.04"/>
<text text-anchor="middle" x="3351.18" y="-3117.81" font-family="Times,serif" font-size="14.00">coal&#45;dust*279440</text>
</g>
<!-- 2,8 (Graphite)&#45;&gt;&#45;3,9 (Silicon Wafers) -->
<g id="edge9" class="edge">
<title>2,8 (Graphite)&#45;&gt;&#45;3,9 (Silicon Wafers)</title>
<path fill="none" stroke="black" stroke-width="0.36" d="M2336.73,-4127.54C2166.69,-4081.98 1614.23,-3933.94 1422.58,-3882.59"/>
<polygon fill="black" stroke="black" stroke-width="0.36" points="1423.48,-3879.21 1412.92,-3880 1421.67,-3885.97 1423.48,-3879.21"/>
<text text-anchor="middle" x="1821.16" y="-4008.86" font-family="Times,serif" font-size="14.00">coal&#45;dust*36880</text>
</g>
<!-- 2,8 (Graphite)&#45;&gt;5,5 (Silicon) -->
<g id="edge14" class="edge">
<title>2,8 (Graphite)&#45;&gt;5,5 (Silicon)</title>
<path fill="none" stroke="black" stroke-width="0.11" d="M2358.01,-4124.23C2148.53,-4003.28 873.45,-3267.11 638.88,-3131.68"/>
<polygon fill="black" stroke="black" stroke-width="0.11" points="640.45,-3128.55 630.04,-3126.58 636.95,-3134.61 640.45,-3128.55"/>
<text text-anchor="middle" x="1439.95" y="-3631.76" font-family="Times,serif" font-size="14.00">coal&#45;dust*10640</text>
</g>
<!-- &#45;7,5 () -->
<g id="node4" class="node">
<title>&#45;7,5 ()</title>
<ellipse fill="none" stroke="black" cx="3417.9" cy="-3864.85" rx="38.19" ry="18"/>
<text text-anchor="middle" x="3417.9" y="-3861.15" font-family="Times,serif" font-size="14.00">&#45;7,5 ()</text>
</g>
<!-- &#45;7,5 ()&#45;&gt;&#45;2,8 (syngas from coal dust and also wood) -->
<g id="edge5" class="edge">
<title>&#45;7,5 ()&#45;&gt;&#45;2,8 (syngas from coal dust and also wood)</title>
<path fill="none" stroke="black" stroke-width="0.72" d="M3407.79,-3847.33C3260.55,-3592.3 1553.41,-635.46 1371.97,-321.19"/>
<polygon fill="black" stroke="black" stroke-width="0.72" points="1374.86,-319.19 1366.83,-312.28 1368.79,-322.69 1374.86,-319.19"/>
<text text-anchor="middle" x="2331.38" y="-2088.06" font-family="Times,serif" font-size="14.00">coal&#45;dust*73232</text>
</g>
<!-- &#45;7,5 ()&#45;&gt;1,7 (Activated Carbon) -->
<g id="edge3" class="edge">
<title>&#45;7,5 ()&#45;&gt;1,7 (Activated Carbon)</title>
<path fill="none" stroke="black" stroke-width="0.69" d="M3427.94,-3847.47C3526.01,-3677.61 4312.34,-2315.65 4433.12,-2106.45"/>
<polygon fill="black" stroke="black" stroke-width="0.69" points="4436.24,-2108.04 4438.21,-2097.63 4430.18,-2104.54 4436.24,-2108.04"/>
<text text-anchor="middle" x="3872.03" y="-2980.76" font-family="Times,serif" font-size="14.00">coal&#45;dust*70288</text>
</g>
<!-- &#45;7,5 ()&#45;&gt;&#45;3,9 (Silicon Wafers) -->
<g id="edge24" class="edge">
<title>&#45;7,5 ()&#45;&gt;&#45;3,9 (Silicon Wafers)</title>
<path fill="none" stroke="black" stroke-width="0.03" d="M3379.47,-3864.85C3141.19,-3864.85 1863.07,-3864.85 1470.89,-3864.85"/>
<polygon fill="black" stroke="black" stroke-width="0.03" points="1470.66,-3861.35 1460.66,-3864.85 1470.66,-3868.35 1470.66,-3861.35"/>
<text text-anchor="middle" x="2371.18" y="-3868.65" font-family="Times,serif" font-size="14.00">coal&#45;dust*2656</text>
</g>
<!-- &#45;7,5 ()&#45;&gt;5,5 (Silicon) -->
<g id="edge11" class="edge">
<title>&#45;7,5 ()&#45;&gt;5,5 (Silicon)</title>
<path fill="none" stroke="black" stroke-width="0.1" d="M3384.32,-3855.85C3095.29,-3778.41 1029.55,-3224.9 658.74,-3125.54"/>
<polygon fill="black" stroke="black" stroke-width="0.1" points="659.59,-3122.14 649.02,-3122.93 657.78,-3128.9 659.59,-3122.14"/>
<text text-anchor="middle" x="1963.03" y="-3494.5" font-family="Times,serif" font-size="14.00">coal&#45;dust*10560</text>
</g>
<!-- 3,16 (More Coke) -->
<g id="node6" class="node">
<title>3,16 (More Coke)</title>
<ellipse fill="none" stroke="black" cx="601.81" cy="-1048.76" rx="90.98" ry="18"/>
<text text-anchor="middle" x="601.81" y="-1045.06" font-family="Times,serif" font-size="14.00">3,16 (More Coke)</text>
</g>
<!-- 3,16 (More Coke)&#45;&gt;&#45;2,8 (syngas from coal dust and also wood) -->
<g id="edge20" class="edge">
<title>3,16 (More Coke)&#45;&gt;&#45;2,8 (syngas from coal dust and also wood)</title>
<path fill="none" stroke="black" stroke-width="0.25" d="M619.72,-1030.85C720.18,-930.4 1213.35,-437.22 1331.1,-319.47"/>
<polygon fill="black" stroke="black" stroke-width="0.25" points="1333.71,-321.81 1338.31,-312.27 1328.76,-316.86 1333.71,-321.81"/>
<text text-anchor="middle" x="916.91" y="-678.96" font-family="Times,serif" font-size="14.00">coal&#45;dust*25040</text>
</g>
<!-- 3,16 (More Coke)&#45;&gt;1,7 (Activated Carbon) -->
<g id="edge7" class="edge">
<title>3,16 (More Coke)&#45;&gt;1,7 (Activated Carbon)</title>
<path fill="none" stroke="black" stroke-width="0.3" d="M656.19,-1063.33C1084.06,-1177.98 3904.73,-1933.77 4380.56,-2061.27"/>
<polygon fill="black" stroke="black" stroke-width="0.3" points="4379.81,-2064.7 4390.38,-2063.9 4381.63,-2057.94 4379.81,-2064.7"/>
<text text-anchor="middle" x="2459.88" y="-1566.1" font-family="Times,serif" font-size="14.00">coal&#45;dust*30560</text>
</g>
<!-- 3,&#45;2 (Steam for tin, Coke from raw coal) -->
<g id="node7" class="node">
<title>3,&#45;2 (Steam for tin, Coke from raw coal)</title>
<ellipse fill="none" stroke="black" cx="4172.47" cy="-1048.76" rx="194.97" ry="18"/>
<text text-anchor="middle" x="4172.47" y="-1045.06" font-family="Times,serif" font-size="14.00">3,&#45;2 (Steam for tin, Coke from raw coal)</text>
</g>
<!-- 3,&#45;2 (Steam for tin, Coke from raw coal)&#45;&gt;&#45;2,8 (syngas from coal dust and also wood) -->
<g id="edge8" class="edge">
<title>3,&#45;2 (Steam for tin, Coke from raw coal)&#45;&gt;&#45;2,8 (syngas from coal dust and also wood)</title>
<path fill="none" stroke="black" stroke-width="1.49" d="M4108.7,-1031.67C3734.82,-931.49 1830.17,-421.14 1430.15,-313.96"/>
<polygon fill="black" stroke="black" stroke-width="1.49" points="1430.99,-310.56 1420.42,-311.35 1429.18,-317.32 1430.99,-310.56"/>
<text text-anchor="middle" x="2706.43" y="-676.62" font-family="Times,serif" font-size="14.00">coal&#45;dust*150880</text>
</g>
<!-- 3,&#45;2 (Steam for tin, Coke from raw coal)&#45;&gt;1,7 (Activated Carbon) -->
<g id="edge23" class="edge">
<title>3,&#45;2 (Steam for tin, Coke from raw coal)&#45;&gt;1,7 (Activated Carbon)</title>
<path fill="none" stroke="black" stroke-width="0.24" d="M4177.39,-1067.09C4210.46,-1190.53 4400.65,-1900.31 4441.1,-2051.29"/>
<polygon fill="black" stroke="black" stroke-width="0.24" points="4437.78,-2052.42 4443.75,-2061.18 4444.54,-2050.61 4437.78,-2052.42"/>
<text text-anchor="middle" x="4250.74" y="-1562.99" font-family="Times,serif" font-size="14.00">coal&#45;dust*24080</text>
</g>
<!-- 3,&#45;2 (Steam for tin, Coke from raw coal)&#45;&gt;&#45;3,9 (Silicon Wafers) -->
<g id="edge18" class="edge">
<title>3,&#45;2 (Steam for tin, Coke from raw coal)&#45;&gt;&#45;3,9 (Silicon Wafers)</title>
<path fill="none" stroke="black" stroke-width="0.5" d="M4154.49,-1066.74C3928.71,-1292.53 1648.25,-3572.98 1381.76,-3839.48"/>
<polygon fill="black" stroke="black" stroke-width="0.5" points="1379.06,-3837.23 1374.46,-3846.77 1384.01,-3842.18 1379.06,-3837.23"/>
<text text-anchor="middle" x="2709.62" y="-2456.91" font-family="Times,serif" font-size="14.00">coal&#45;dust*50400</text>
</g>
<!-- 4,14 (A Coal mine, Coke oven gas wasted by venting, Coke direct from mine, A Coal mine?, A Coal mine?!) -->
<g id="node10" class="node">
<title>4,14 (A Coal mine, Coke oven gas wasted by venting, Coke direct from mine, A Coal mine?, A Coal mine?!)</title>
<ellipse fill="none" stroke="black" cx="4172.47" cy="-3110.28" rx="503.91" ry="18"/>
<text text-anchor="middle" x="4172.47" y="-3106.58" font-family="Times,serif" font-size="14.00">4,14 (A Coal mine, Coke oven gas wasted by venting, Coke direct from mine, A Coal mine?, A Coal mine?!)</text>
</g>
<!-- 4,14 (A Coal mine, Coke oven gas wasted by venting, Coke direct from mine, A Coal mine?, A Coal mine?!)&#45;&gt;&#45;2,8 (syngas from coal dust and also wood) -->
<g id="edge13" class="edge">
<title>4,14 (A Coal mine, Coke oven gas wasted by venting, Coke direct from mine, A Coal mine?, A Coal mine?!)&#45;&gt;&#45;2,8 (syngas from coal dust and also wood)</title>
<path fill="none" stroke="black" stroke-width="0.5" d="M4154.12,-3091.93C3926.22,-2864.03 1647.96,-585.77 1381.73,-319.54"/>
<polygon fill="black" stroke="black" stroke-width="0.5" points="1383.99,-316.85 1374.45,-312.25 1379.04,-321.8 1383.99,-316.85"/>
<text text-anchor="middle" x="2709.43" y="-1709.54" font-family="Times,serif" font-size="14.00">coal&#45;dust*50288</text>
</g>
<!-- 4,14 (A Coal mine, Coke oven gas wasted by venting, Coke direct from mine, A Coal mine?, A Coal mine?!)&#45;&gt;1,7 (Activated Carbon) -->
<g id="edge16" class="edge">
<title>4,14 (A Coal mine, Coke oven gas wasted by venting, Coke direct from mine, A Coal mine?, A Coal mine?!)&#45;&gt;1,7 (Activated Carbon)</title>
<path fill="none" stroke="black" stroke-width="0.34" d="M4177.39,-3091.96C4210.46,-2968.51 4400.65,-2258.74 4441.1,-2107.76"/>
<polygon fill="black" stroke="black" stroke-width="0.34" points="4444.54,-2108.43 4443.75,-2097.87 4437.78,-2106.62 4444.54,-2108.43"/>
<text text-anchor="middle" x="4250.74" y="-2603.66" font-family="Times,serif" font-size="14.00">coal&#45;dust*34512</text>
</g>
<!-- 4,14 (A Coal mine, Coke oven gas wasted by venting, Coke direct from mine, A Coal mine?, A Coal mine?!)&#45;&gt;5,5 (Silicon) -->
<g id="edge21" class="edge">
<title>4,14 (A Coal mine, Coke oven gas wasted by venting, Coke direct from mine, A Coal mine?, A Coal mine?!)&#45;&gt;5,5 (Silicon)</title>
<path fill="none" stroke="black" stroke-width="0.25" d="M3668.46,-3110.28C2796.44,-3110.28 1062.46,-3110.28 678.33,-3110.28"/>
<polygon fill="black" stroke="black" stroke-width="0.25" points="678.17,-3106.78 668.17,-3110.28 678.17,-3113.78 678.17,-3106.78"/>
<text text-anchor="middle" x="2114.9" y="-3114.08" font-family="Times,serif" font-size="14.00">coal&#45;dust*25072</text>
</g>
<!-- 3,15 (Even Yet More Coke) -->
<g id="node11" class="node">
<title>3,15 (Even Yet More Coke)</title>
<ellipse fill="none" stroke="black" cx="3417.9" cy="-294.19" rx="135.38" ry="18"/>
<text text-anchor="middle" x="3417.9" y="-290.49" font-family="Times,serif" font-size="14.00">3,15 (Even Yet More Coke)</text>
</g>
<!-- 3,15 (Even Yet More Coke)&#45;&gt;&#45;2,8 (syngas from coal dust and also wood) -->
<g id="edge22" class="edge">
<title>3,15 (Even Yet More Coke)&#45;&gt;&#45;2,8 (syngas from coal dust and also wood)</title>
<path fill="none" stroke="black" stroke-width="0.25" d="M3282.64,-294.19C2934,-294.19 2002.28,-294.19 1575.44,-294.19"/>
<polygon fill="black" stroke="black" stroke-width="0.25" points="1575.14,-290.69 1565.14,-294.19 1575.14,-297.69 1575.14,-290.69"/>
<text text-anchor="middle" x="2370.54" y="-297.99" font-family="Times,serif" font-size="14.00">coal&#45;dust*25023</text>
</g>
<!-- 3,15 (Even Yet More Coke)&#45;&gt;1,7 (Activated Carbon) -->
<g id="edge15" class="edge">
<title>3,15 (Even Yet More Coke)&#45;&gt;1,7 (Activated Carbon)</title>
<path fill="none" stroke="black" stroke-width="0.22" d="M3428.27,-312.15C3527.78,-484.51 4312.61,-1843.87 4433.15,-2052.65"/>
<polygon fill="black" stroke="black" stroke-width="0.22" points="4430.2,-2054.54 4438.23,-2061.45 4436.26,-2051.04 4430.2,-2054.54"/>
<text text-anchor="middle" x="3872.21" y="-1186.2" font-family="Times,serif" font-size="14.00">coal&#45;dust*22080</text>
</g>
<!-- &#45;6,1 (Coke and Coal Dust from Biomass (needs Iron plates)) -->
<g id="node12" class="node">
<title>&#45;6,1 (Coke and Coal Dust from Biomass (needs Iron plates))</title>
<ellipse fill="none" stroke="black" cx="2387.14" cy="-18" rx="285.95" ry="18"/>
<text text-anchor="middle" x="2387.14" y="-14.3" font-family="Times,serif" font-size="14.00">&#45;6,1 (Coke and Coal Dust from Biomass (needs Iron plates))</text>
</g>
<!-- &#45;6,1 (Coke and Coal Dust from Biomass (needs Iron plates))&#45;&gt;&#45;2,8 (syngas from coal dust and also wood) -->
<g id="edge17" class="edge">
<title>&#45;6,1 (Coke and Coal Dust from Biomass (needs Iron plates))&#45;&gt;&#45;2,8 (syngas from coal dust and also wood)</title>
<path fill="none" stroke="black" stroke-width="0.25" d="M2321.49,-35.59C2138.43,-84.64 1623.14,-222.71 1430.39,-274.36"/>
<polygon fill="black" stroke="black" stroke-width="0.25" points="1429.38,-271.01 1420.63,-276.98 1431.19,-277.77 1429.38,-271.01"/>
<text text-anchor="middle" x="1817.44" y="-158.78" font-family="Times,serif" font-size="14.00">coal&#45;dust*25017</text>
</g>
<!-- &#45;6,1 (Coke and Coal Dust from Biomass (needs Iron plates))&#45;&gt;1,7 (Activated Carbon) -->
<g id="edge25" class="edge">
<title>&#45;6,1 (Coke and Coal Dust from Biomass (needs Iron plates))&#45;&gt;1,7 (Activated Carbon)</title>
<path fill="none" stroke="black" stroke-width="0.18" d="M2405.28,-36.14C2594.32,-225.17 4202,-1832.86 4423.42,-2054.28"/>
<polygon fill="black" stroke="black" stroke-width="0.18" points="4421.16,-2056.97 4430.71,-2061.56 4426.11,-2052.02 4421.16,-2056.97"/>
<text text-anchor="middle" x="3355.85" y="-1049.01" font-family="Times,serif" font-size="14.00">coal&#45;dust*18000</text>
</g>
<!-- 4,3 (item=nexelit&#45;plate Nexelit platery) -->
<g id="node13" class="node">
<title>4,3 (item=nexelit&#45;plate Nexelit platery)</title>
<ellipse fill="none" stroke="black" cx="4715" cy="-2079.52" rx="194.17" ry="18"/>
<text text-anchor="middle" x="4715" y="-2075.82" font-family="Times,serif" font-size="14.00">4,3 (item=nexelit&#45;plate Nexelit platery)</text>
</g>
<!-- 4,3 (item=nexelit&#45;plate Nexelit platery)&#45;&gt;1,7 (Activated Carbon) -->
<g id="edge19" class="edge">
<title>4,3 (item=nexelit&#45;plate Nexelit platery)&#45;&gt;1,7 (Activated Carbon)</title>
<path fill="none" stroke="black" stroke-width="0.07" d="M4520.39,-2079.52C4520.31,-2079.52 4520.23,-2079.52 4520.15,-2079.52"/>
<polygon fill="black" stroke="black" stroke-width="0.07" points="4529.91,-2076.03 4519.91,-2079.52 4529.91,-2083.03 4529.91,-2076.03"/>
<text text-anchor="middle" x="4466.27" y="-2083.32" font-family="Times,serif" font-size="14.00">coal&#45;dust*7504</text>
</g>
</g>
</svg>
