<?xml version="1.0" encoding="UTF-8" standalone="no"?>
<!DOCTYPE svg PUBLIC "-//W3C//DTD SVG 1.1//EN"
 "http://www.w3.org/Graphics/SVG/1.1/DTD/svg11.dtd">
<!-- Generated by graphviz version 2.43.0 (0)
 -->
<!-- Title: %3 Pages: 1 -->
<svg width="933pt" height="876pt"
 viewBox="0.00 0.00 932.87 876.06" xmlns="http://www.w3.org/2000/svg" xmlns:xlink="http://www.w3.org/1999/xlink">
<g id="graph0" class="graph" transform="scale(1 1) rotate(0) translate(4 872.06)">
<title>%3</title>
<polygon fill="white" stroke="transparent" points="-4,4 -4,-872.06 928.87,-872.06 928.87,4 -4,4"/>
<!-- &#45;4,&#45;4 (Reserved For Aluminium Ore Drop, Aluminium) -->
<g id="node1" class="node">
<title>&#45;4,&#45;4 (Reserved For Aluminium Ore Drop, Aluminium)</title>
<ellipse fill="none" stroke="black" cx="381.66" cy="-424.11" rx="258.05" ry="18"/>
<text text-anchor="middle" x="381.66" y="-420.41" font-family="Times,serif" font-size="14.00">&#45;4,&#45;4 (Reserved For Aluminium Ore Drop, Aluminium)</text>
</g>
<!-- 0,0 (LE BUS) -->
<g id="node2" class="node">
<title>0,0 (LE BUS)</title>
<ellipse fill="none" stroke="black" cx="853.37" cy="-424.11" rx="71.49" ry="18"/>
<text text-anchor="middle" x="853.37" y="-420.41" font-family="Times,serif" font-size="14.00">0,0 (LE BUS)</text>
</g>
<!-- &#45;4,&#45;4 (Reserved For Aluminium Ore Drop, Aluminium)&#45;&gt;0,0 (LE BUS) -->
<g id="edge1" class="edge">
<title>&#45;4,&#45;4 (Reserved For Aluminium Ore Drop, Aluminium)&#45;&gt;0,0 (LE BUS)</title>
<path fill="none" stroke="black" stroke-width="2.72" d="M639.94,-424.11C687.66,-424.11 734.15,-424.11 771.49,-424.11"/>
<polygon fill="black" stroke="black" stroke-width="2.72" points="771.77,-427.61 781.77,-424.11 771.77,-420.61 771.77,-427.61"/>
<text text-anchor="middle" x="705.72" y="-412.91" font-family="Times,serif" font-size="14.00">aluminium&#45;plate*118672</text>
</g>
<!-- &#45;1,&#45;2 (Aramid fiber) -->
<g id="node3" class="node">
<title>&#45;1,&#45;2 (Aramid fiber)</title>
<ellipse fill="none" stroke="black" cx="178.97" cy="-850.06" rx="99.38" ry="18"/>
<text text-anchor="middle" x="178.97" y="-846.36" font-family="Times,serif" font-size="14.00">&#45;1,&#45;2 (Aramid fiber)</text>
</g>
<!-- &#45;4,&#45;4 (Reserved For Aluminium Ore Drop, Aluminium)&#45;&gt;&#45;1,&#45;2 (Aramid fiber) -->
<g id="edge2" class="edge">
<title>&#45;4,&#45;4 (Reserved For Aluminium Ore Drop, Aluminium)&#45;&gt;&#45;1,&#45;2 (Aramid fiber)</title>
<path fill="none" stroke="black" stroke-width="0.23" d="M373.08,-442.14C341.36,-508.81 230.57,-741.64 192.18,-822.3"/>
<polygon fill="black" stroke="black" stroke-width="0.23" points="188.8,-821.25 187.67,-831.79 195.12,-824.26 188.8,-821.25"/>
<text text-anchor="middle" x="198.13" y="-636.02" font-family="Times,serif" font-size="14.00">aluminium&#45;plate*10144</text>
</g>
<!-- 6,4 (Electronic components) -->
<g id="node4" class="node">
<title>6,4 (Electronic components)</title>
<ellipse fill="none" stroke="black" cx="141.69" cy="-18" rx="141.88" ry="18"/>
<text text-anchor="middle" x="141.69" y="-14.3" font-family="Times,serif" font-size="14.00">6,4 (Electronic components)</text>
</g>
<!-- &#45;4,&#45;4 (Reserved For Aluminium Ore Drop, Aluminium)&#45;&gt;6,4 (Electronic components) -->
<g id="edge3" class="edge">
<title>&#45;4,&#45;4 (Reserved For Aluminium Ore Drop, Aluminium)&#45;&gt;6,4 (Electronic components)</title>
<path fill="none" stroke="black" stroke-width="0.05" d="M370.88,-405.87C332.59,-341.06 202.93,-121.65 157.54,-44.83"/>
<polygon fill="black" stroke="black" stroke-width="0.05" points="160.54,-43.02 152.44,-36.19 154.51,-46.58 160.54,-43.02"/>
<text text-anchor="middle" x="184.21" y="-229.15" font-family="Times,serif" font-size="14.00">aluminium&#45;plate*2016</text>
</g>
</g>
</svg>
