<?xml version="1.0" encoding="UTF-8" standalone="no"?>
<!DOCTYPE svg PUBLIC "-//W3C//DTD SVG 1.1//EN"
 "http://www.w3.org/Graphics/SVG/1.1/DTD/svg11.dtd">
<!-- Generated by graphviz version 2.43.0 (0)
 -->
<!-- Title: %3 Pages: 1 -->
<svg width="747pt" height="529pt"
 viewBox="0.00 0.00 747.35 528.57" xmlns="http://www.w3.org/2000/svg" xmlns:xlink="http://www.w3.org/1999/xlink">
<g id="graph0" class="graph" transform="scale(1 1) rotate(0) translate(4 524.57)">
<title>%3</title>
<polygon fill="white" stroke="transparent" points="-4,4 -4,-524.57 743.35,-524.57 743.35,4 -4,4"/>
<!-- &#45;3,2 (Lead and Solder) -->
<g id="node1" class="node">
<title>&#45;3,2 (Lead and Solder)</title>
<ellipse fill="none" stroke="black" cx="113.74" cy="-260.28" rx="113.98" ry="18"/>
<text text-anchor="middle" x="113.74" y="-256.58" font-family="Times,serif" font-size="14.00">&#45;3,2 (Lead and Solder)</text>
</g>
<!-- 0,0 (LE BUS) -->
<g id="node2" class="node">
<title>0,0 (LE BUS)</title>
<ellipse fill="none" stroke="black" cx="640.56" cy="-260.28" rx="71.49" ry="18"/>
<text text-anchor="middle" x="640.56" y="-256.58" font-family="Times,serif" font-size="14.00">0,0 (LE BUS)</text>
</g>
<!-- &#45;3,2 (Lead and Solder)&#45;&gt;0,0 (LE BUS) -->
<g id="edge1" class="edge">
<title>&#45;3,2 (Lead and Solder)&#45;&gt;0,0 (LE BUS)</title>
<path fill="none" stroke="black" stroke-width="1.28" d="M227.73,-260.28C327.5,-260.28 470.02,-260.28 558.83,-260.28"/>
<polygon fill="black" stroke="black" stroke-width="1.28" points="558.85,-263.78 568.85,-260.28 558.85,-256.78 558.85,-263.78"/>
<text text-anchor="middle" x="326.78" y="-264.08" font-family="Times,serif" font-size="14.00">silver&#45;plate*13008</text>
</g>
<!-- &#45;4,&#45;2 (For Science!) -->
<g id="node3" class="node">
<title>&#45;4,&#45;2 (For Science!)</title>
<ellipse fill="none" stroke="black" cx="640.56" cy="-18" rx="98.58" ry="18"/>
<text text-anchor="middle" x="640.56" y="-14.3" font-family="Times,serif" font-size="14.00">&#45;4,&#45;2 (For Science!)</text>
</g>
<!-- 0,0 (LE BUS)&#45;&gt;&#45;4,&#45;2 (For Science!) -->
<g id="edge2" class="edge">
<title>0,0 (LE BUS)&#45;&gt;&#45;4,&#45;2 (For Science!)</title>
<path fill="none" stroke="black" stroke-width="1.1" d="M640.56,-242.07C640.56,-200.14 640.56,-96.52 640.56,-46.25"/>
<polygon fill="black" stroke="black" stroke-width="1.1" points="644.06,-46.09 640.56,-36.09 637.06,-46.09 644.06,-46.09"/>
<text text-anchor="middle" x="574.06" y="-147.96" font-family="Times,serif" font-size="14.00">silver&#45;plate*11217</text>
</g>
<!-- &#45;5,2 (Optical fiber) -->
<g id="node4" class="node">
<title>&#45;5,2 (Optical fiber)</title>
<ellipse fill="none" stroke="black" cx="640.56" cy="-502.57" rx="96.38" ry="18"/>
<text text-anchor="middle" x="640.56" y="-498.87" font-family="Times,serif" font-size="14.00">&#45;5,2 (Optical fiber)</text>
</g>
<!-- 0,0 (LE BUS)&#45;&gt;&#45;5,2 (Optical fiber) -->
<g id="edge3" class="edge">
<title>0,0 (LE BUS)&#45;&gt;&#45;5,2 (Optical fiber)</title>
<path fill="none" stroke="black" stroke-width="0.61" d="M640.56,-278.5C640.56,-320.43 640.56,-424.05 640.56,-474.32"/>
<polygon fill="black" stroke="black" stroke-width="0.61" points="637.06,-474.48 640.56,-484.48 644.06,-474.48 637.06,-474.48"/>
<text text-anchor="middle" x="578.56" y="-380.21" font-family="Times,serif" font-size="14.00">silver&#45;plate*6240</text>
</g>
</g>
</svg>
