<?xml version="1.0" encoding="UTF-8" standalone="no"?>
<!DOCTYPE svg PUBLIC "-//W3C//DTD SVG 1.1//EN"
 "http://www.w3.org/Graphics/SVG/1.1/DTD/svg11.dtd">
<!-- Generated by graphviz version 2.43.0 (0)
 -->
<!-- Title: %3 Pages: 1 -->
<svg width="977pt" height="752pt"
 viewBox="0.00 0.00 977.50 752.39" xmlns="http://www.w3.org/2000/svg" xmlns:xlink="http://www.w3.org/1999/xlink">
<g id="graph0" class="graph" transform="scale(1 1) rotate(0) translate(4 748.39)">
<title>%3</title>
<polygon fill="white" stroke="transparent" points="-4,4 -4,-748.39 973.5,-748.39 973.5,4 -4,4"/>
<!-- 3,&#45;1 (Nitrogen, Oxygen) -->
<g id="node1" class="node">
<title>3,&#45;1 (Nitrogen, Oxygen)</title>
<ellipse fill="none" stroke="black" cx="516.63" cy="-375.32" rx="120.48" ry="18"/>
<text text-anchor="middle" x="516.63" y="-371.62" font-family="Times,serif" font-size="14.00">3,&#45;1 (Nitrogen, Oxygen)</text>
</g>
<!-- &#45;2,9 (molten steel) -->
<g id="node2" class="node">
<title>&#45;2,9 (molten steel)</title>
<ellipse fill="none" stroke="black" cx="873.96" cy="-375.32" rx="95.58" ry="18"/>
<text text-anchor="middle" x="873.96" y="-371.62" font-family="Times,serif" font-size="14.00">&#45;2,9 (molten steel)</text>
</g>
<!-- 3,&#45;1 (Nitrogen, Oxygen)&#45;&gt;&#45;2,9 (molten steel) -->
<g id="edge1" class="edge">
<title>3,&#45;1 (Nitrogen, Oxygen)&#45;&gt;&#45;2,9 (molten steel)</title>
<path fill="none" stroke="black" stroke-width="2.01" d="M637.11,-375.32C679.6,-375.32 727.01,-375.32 768.19,-375.32"/>
<polygon fill="black" stroke="black" stroke-width="2.01" points="768.25,-378.82 778.25,-375.32 768.25,-371.82 768.25,-378.82"/>
<text text-anchor="middle" x="702.65" y="-364.12" font-family="Times,serif" font-size="14.00">oxygen&#45;barrel*31520</text>
</g>
<!-- 1,12 (Molten Iron) -->
<g id="node3" class="node">
<title>1,12 (Molten Iron)</title>
<ellipse fill="none" stroke="black" cx="583.19" cy="-726.39" rx="95.58" ry="18"/>
<text text-anchor="middle" x="583.19" y="-722.69" font-family="Times,serif" font-size="14.00">1,12 (Molten Iron)</text>
</g>
<!-- 3,&#45;1 (Nitrogen, Oxygen)&#45;&gt;1,12 (Molten Iron) -->
<g id="edge2" class="edge">
<title>3,&#45;1 (Nitrogen, Oxygen)&#45;&gt;1,12 (Molten Iron)</title>
<path fill="none" stroke="black" stroke-width="1.92" d="M520.12,-393.7C531.03,-451.28 564.63,-628.49 577.8,-697.99"/>
<polygon fill="black" stroke="black" stroke-width="1.92" points="574.43,-699.02 579.74,-708.19 581.31,-697.71 574.43,-699.02"/>
<text text-anchor="middle" x="473.46" y="-549.64" font-family="Times,serif" font-size="14.00">oxygen&#45;barrel*30112</text>
</g>
<!-- 2,10 (Nickel plate and Nichrome) -->
<g id="node4" class="node">
<title>2,10 (Nickel plate and Nichrome)</title>
<ellipse fill="none" stroke="black" cx="165.09" cy="-439.31" rx="165.17" ry="18"/>
<text text-anchor="middle" x="165.09" y="-435.61" font-family="Times,serif" font-size="14.00">2,10 (Nickel plate and Nichrome)</text>
</g>
<!-- 3,&#45;1 (Nitrogen, Oxygen)&#45;&gt;2,10 (Nickel plate and Nichrome) -->
<g id="edge3" class="edge">
<title>3,&#45;1 (Nitrogen, Oxygen)&#45;&gt;2,10 (Nickel plate and Nichrome)</title>
<path fill="none" stroke="black" stroke-width="0.03" d="M439.92,-389.28C387.03,-398.91 316.38,-411.77 259.95,-422.04"/>
<polygon fill="black" stroke="black" stroke-width="0.03" points="259.16,-418.63 249.95,-423.86 260.42,-425.52 259.16,-418.63"/>
<text text-anchor="middle" x="283.44" y="-409.46" font-family="Times,serif" font-size="14.00">oxygen&#45;barrel*528</text>
</g>
<!-- 2,&#45;2 (Tin Plate, Organic Solvent) -->
<g id="node5" class="node">
<title>2,&#45;2 (Tin Plate, Organic Solvent)</title>
<ellipse fill="none" stroke="black" cx="519.23" cy="-18" rx="159.77" ry="18"/>
<text text-anchor="middle" x="519.23" y="-14.3" font-family="Times,serif" font-size="14.00">2,&#45;2 (Tin Plate, Organic Solvent)</text>
</g>
<!-- 3,&#45;1 (Nitrogen, Oxygen)&#45;&gt;2,&#45;2 (Tin Plate, Organic Solvent) -->
<g id="edge4" class="edge">
<title>3,&#45;1 (Nitrogen, Oxygen)&#45;&gt;2,&#45;2 (Tin Plate, Organic Solvent)</title>
<path fill="none" stroke="black" stroke-width="0.03" d="M516.76,-357.1C517.19,-298.92 518.51,-117.21 519.02,-46.53"/>
<polygon fill="black" stroke="black" stroke-width="0.03" points="522.53,-46.2 519.1,-36.17 515.53,-46.15 522.53,-46.2"/>
<text text-anchor="middle" x="451.39" y="-205.62" font-family="Times,serif" font-size="14.00">oxygen&#45;barrel*516</text>
</g>
</g>
</svg>
