<?xml version="1.0" encoding="UTF-8" standalone="no"?>
<!DOCTYPE svg PUBLIC "-//W3C//DTD SVG 1.1//EN"
 "http://www.w3.org/Graphics/SVG/1.1/DTD/svg11.dtd">
<!-- Generated by graphviz version 2.43.0 (0)
 -->
<!-- Title: %3 Pages: 1 -->
<svg width="972pt" height="44pt"
 viewBox="0.00 0.00 971.58 44.00" xmlns="http://www.w3.org/2000/svg" xmlns:xlink="http://www.w3.org/1999/xlink">
<g id="graph0" class="graph" transform="scale(1 1) rotate(0) translate(4 40)">
<title>%3</title>
<polygon fill="white" stroke="transparent" points="-4,4 -4,-40 967.58,-40 967.58,4 -4,4"/>
<!-- 3,0 (Zinc Chloride) -->
<g id="node1" class="node">
<title>3,0 (Zinc Chloride)</title>
<ellipse fill="none" stroke="black" cx="454.82" cy="-18" rx="97.48" ry="18"/>
<text text-anchor="middle" x="454.82" y="-14.3" font-family="Times,serif" font-size="14.00">3,0 (Zinc Chloride)</text>
</g>
<!-- 2,4 (Formica and Phenolic boards) -->
<g id="node2" class="node">
<title>2,4 (Formica and Phenolic boards)</title>
<ellipse fill="none" stroke="black" cx="793.94" cy="-18" rx="169.77" ry="18"/>
<text text-anchor="middle" x="793.94" y="-14.3" font-family="Times,serif" font-size="14.00">2,4 (Formica and Phenolic boards)</text>
</g>
<!-- 3,0 (Zinc Chloride)&#45;&gt;2,4 (Formica and Phenolic boards) -->
<g id="edge1" class="edge">
<title>3,0 (Zinc Chloride)&#45;&gt;2,4 (Formica and Phenolic boards)</title>
<path fill="none" stroke="black" stroke-width="0.48" d="M552.45,-18C571.88,-18 592.85,-18 614.04,-18"/>
<polygon fill="black" stroke="black" stroke-width="0.48" points="614.11,-21.5 624.11,-18 614.11,-14.5 614.11,-21.5"/>
<text text-anchor="middle" x="583.24" y="-6.8" font-family="Times,serif" font-size="14.00">zinc&#45;chloride*12624</text>
</g>
<!-- 1,7 (Activated Carbon) -->
<g id="node3" class="node">
<title>1,7 (Activated Carbon)</title>
<ellipse fill="none" stroke="black" cx="115.69" cy="-18" rx="115.88" ry="18"/>
<text text-anchor="middle" x="115.69" y="-14.3" font-family="Times,serif" font-size="14.00">1,7 (Activated Carbon)</text>
</g>
<!-- 3,0 (Zinc Chloride)&#45;&gt;1,7 (Activated Carbon) -->
<g id="edge2" class="edge">
<title>3,0 (Zinc Chloride)&#45;&gt;1,7 (Activated Carbon)</title>
<path fill="none" stroke="black" stroke-width="1.52" d="M357.18,-18C321.17,-18 279.84,-18 241.67,-18"/>
<polygon fill="black" stroke="black" stroke-width="1.52" points="241.52,-14.5 231.52,-18 241.52,-21.5 241.52,-14.5"/>
<text text-anchor="middle" x="299.43" y="-6.8" font-family="Times,serif" font-size="14.00">zinc&#45;chloride*39680</text>
</g>
</g>
</svg>
