<?xml version="1.0" encoding="UTF-8" standalone="no"?>
<!DOCTYPE svg PUBLIC "-//W3C//DTD SVG 1.1//EN"
 "http://www.w3.org/Graphics/SVG/1.1/DTD/svg11.dtd">
<!-- Generated by graphviz version 2.43.0 (0)
 -->
<!-- Title: %3 Pages: 1 -->
<svg width="1600pt" height="44pt"
 viewBox="0.00 0.00 1600.18 44.00" xmlns="http://www.w3.org/2000/svg" xmlns:xlink="http://www.w3.org/1999/xlink">
<g id="graph0" class="graph" transform="scale(1 1) rotate(0) translate(4 40)">
<title>%3</title>
<polygon fill="white" stroke="transparent" points="-4,4 -4,-40 1596.18,-40 1596.18,4 -4,4"/>
<!-- &#45;7,&#45;3 (Ulric Manure) -->
<g id="node1" class="node">
<title>&#45;7,&#45;3 (Ulric Manure)</title>
<ellipse fill="none" stroke="black" cx="773.54" cy="-18" rx="102.88" ry="18"/>
<text text-anchor="middle" x="773.54" y="-14.3" font-family="Times,serif" font-size="14.00">&#45;7,&#45;3 (Ulric Manure)</text>
</g>
<!-- &#45;6,4 (Urea) -->
<g id="node2" class="node">
<title>&#45;6,4 (Urea)</title>
<ellipse fill="none" stroke="black" cx="1009.33" cy="-18" rx="61.19" ry="18"/>
<text text-anchor="middle" x="1009.33" y="-14.3" font-family="Times,serif" font-size="14.00">&#45;6,4 (Urea)</text>
</g>
<!-- &#45;7,&#45;3 (Ulric Manure)&#45;&gt;&#45;6,4 (Urea) -->
<g id="edge1" class="edge">
<title>&#45;7,&#45;3 (Ulric Manure)&#45;&gt;&#45;6,4 (Urea)</title>
<path fill="none" stroke="black" stroke-width="2.47" d="M876.27,-18C897,-18 918.36,-18 937.73,-18"/>
<polygon fill="black" stroke="black" stroke-width="2.47" points="937.97,-21.5 947.97,-18 937.97,-14.5 937.97,-21.5"/>
<text text-anchor="middle" x="907" y="-6.8" font-family="Times,serif" font-size="14.00">manure*150640</text>
</g>
<!-- &#45;4,2 (This line not currently using manure, Ralesia seeds) -->
<g id="node3" class="node">
<title>&#45;4,2 (This line not currently using manure, Ralesia seeds)</title>
<ellipse fill="none" stroke="black" cx="276.88" cy="-18" rx="276.75" ry="18"/>
<text text-anchor="middle" x="276.88" y="-14.3" font-family="Times,serif" font-size="14.00">&#45;4,2 (This line not currently using manure, Ralesia seeds)</text>
</g>
<!-- &#45;7,&#45;3 (Ulric Manure)&#45;&gt;&#45;4,2 (This line not currently using manure, Ralesia seeds) -->
<g id="edge2" class="edge">
<title>&#45;7,&#45;3 (Ulric Manure)&#45;&gt;&#45;4,2 (This line not currently using manure, Ralesia seeds)</title>
<path fill="none" stroke="black" stroke-width="0.45" d="M670.63,-18C638.81,-18 602.07,-18 564.09,-18"/>
<polygon fill="black" stroke="black" stroke-width="0.45" points="563.88,-14.5 553.88,-18 563.88,-21.5 563.88,-14.5"/>
<text text-anchor="middle" x="617.36" y="-6.8" font-family="Times,serif" font-size="14.00">manure*27320</text>
</g>
<!-- 1,&#45;2 (Sulphur production, Sulphur Production) -->
<g id="node4" class="node">
<title>1,&#45;2 (Sulphur production, Sulphur Production)</title>
<ellipse fill="none" stroke="black" cx="1367.3" cy="-18" rx="224.76" ry="18"/>
<text text-anchor="middle" x="1367.3" y="-14.3" font-family="Times,serif" font-size="14.00">1,&#45;2 (Sulphur production, Sulphur Production)</text>
</g>
<!-- 1,&#45;2 (Sulphur production, Sulphur Production)&#45;&gt;&#45;6,4 (Urea) -->
<g id="edge3" class="edge">
<title>1,&#45;2 (Sulphur production, Sulphur Production)&#45;&gt;&#45;6,4 (Urea)</title>
<path fill="none" stroke="black" stroke-width="0.08" d="M1142.37,-18C1120.36,-18 1099.34,-18 1080.77,-18"/>
<polygon fill="black" stroke="black" stroke-width="0.08" points="1080.72,-14.5 1070.72,-18 1080.72,-21.5 1080.72,-14.5"/>
<text text-anchor="middle" x="1087.07" y="-6.8" font-family="Times,serif" font-size="14.00">manure*5008</text>
</g>
</g>
</svg>
