<?xml version="1.0" encoding="UTF-8" standalone="no"?>
<!DOCTYPE svg PUBLIC "-//W3C//DTD SVG 1.1//EN"
 "http://www.w3.org/Graphics/SVG/1.1/DTD/svg11.dtd">
<!-- Generated by graphviz version 2.43.0 (0)
 -->
<!-- Title: %3 Pages: 1 -->
<svg width="691pt" height="435pt"
 viewBox="0.00 0.00 691.28 434.64" xmlns="http://www.w3.org/2000/svg" xmlns:xlink="http://www.w3.org/1999/xlink">
<g id="graph0" class="graph" transform="scale(1 1) rotate(0) translate(4 430.64)">
<title>%3</title>
<polygon fill="white" stroke="transparent" points="-4,4 -4,-430.64 687.28,-430.64 687.28,4 -4,4"/>
<!-- 5,3 (Ash) -->
<g id="node1" class="node">
<title>5,3 (Ash)</title>
<ellipse fill="none" stroke="black" cx="83.19" cy="-408.64" rx="51.99" ry="18"/>
<text text-anchor="middle" x="83.19" y="-404.94" font-family="Times,serif" font-size="14.00">5,3 (Ash)</text>
</g>
<!-- 3,6 (Phosphoric Acid and Phosphine gas) -->
<g id="node2" class="node">
<title>3,6 (Phosphoric Acid and Phosphine gas)</title>
<ellipse fill="none" stroke="black" cx="421.5" cy="-213.32" rx="200.36" ry="18"/>
<text text-anchor="middle" x="421.5" y="-209.62" font-family="Times,serif" font-size="14.00">3,6 (Phosphoric Acid and Phosphine gas)</text>
</g>
<!-- 5,3 (Ash)&#45;&gt;3,6 (Phosphoric Acid and Phosphine gas) -->
<g id="edge1" class="edge">
<title>5,3 (Ash)&#45;&gt;3,6 (Phosphoric Acid and Phosphine gas)</title>
<path fill="none" stroke="black" stroke-width="0.76" d="M110.02,-393.15C169.25,-358.96 311.46,-276.85 381.35,-236.5"/>
<polygon fill="black" stroke="black" stroke-width="0.76" points="383.4,-239.36 390.31,-231.33 379.9,-233.3 383.4,-239.36"/>
<text text-anchor="middle" x="207.18" y="-318.63" font-family="Times,serif" font-size="14.00">ash*20336</text>
</g>
<!-- 5,2 (Raw Fiber) -->
<g id="node3" class="node">
<title>5,2 (Raw Fiber)</title>
<ellipse fill="none" stroke="black" cx="83.19" cy="-18" rx="83.39" ry="18"/>
<text text-anchor="middle" x="83.19" y="-14.3" font-family="Times,serif" font-size="14.00">5,2 (Raw Fiber)</text>
</g>
<!-- 5,3 (Ash)&#45;&gt;5,2 (Raw Fiber) -->
<g id="edge4" class="edge">
<title>5,3 (Ash)&#45;&gt;5,2 (Raw Fiber)</title>
<path fill="none" stroke="black" stroke-width="1.24" d="M83.19,-390.58C83.19,-328.37 83.19,-122.59 83.19,-46.56"/>
<polygon fill="black" stroke="black" stroke-width="1.24" points="86.69,-46.32 83.19,-36.32 79.69,-46.32 86.69,-46.32"/>
<text text-anchor="middle" x="44.69" y="-222.37" font-family="Times,serif" font-size="14.00">ash*33232</text>
</g>
<!-- 3,6 (Phosphoric Acid and Phosphine gas)&#45;&gt;5,2 (Raw Fiber) -->
<g id="edge2" class="edge">
<title>3,6 (Phosphoric Acid and Phosphine gas)&#45;&gt;5,2 (Raw Fiber)</title>
<path fill="none" stroke="black" stroke-width="1.24" d="M390.58,-195.47C328.58,-159.67 189.21,-79.21 121.53,-40.13"/>
<polygon fill="black" stroke="black" stroke-width="1.24" points="122.88,-36.87 112.47,-34.9 119.38,-42.93 122.88,-36.87"/>
<text text-anchor="middle" x="217.55" y="-121.6" font-family="Times,serif" font-size="14.00">ash*33232</text>
</g>
<!-- 4,15 (Half an Ash) -->
<g id="node4" class="node">
<title>4,15 (Half an Ash)</title>
<ellipse fill="none" stroke="black" cx="588.39" cy="-213.32" rx="94.78" ry="18"/>
<text text-anchor="middle" x="588.39" y="-209.62" font-family="Times,serif" font-size="14.00">4,15 (Half an Ash)</text>
</g>
<!-- 4,15 (Half an Ash)&#45;&gt;3,6 (Phosphoric Acid and Phosphine gas) -->
<g id="edge3" class="edge">
<title>4,15 (Half an Ash)&#45;&gt;3,6 (Phosphoric Acid and Phosphine gas)</title>
<path fill="none" stroke="black" stroke-width="0.76" d="M493.24,-213.32C493.17,-213.32 493.1,-213.32 493.02,-213.32"/>
<polygon fill="black" stroke="black" stroke-width="0.76" points="502.81,-209.83 492.81,-213.32 502.8,-216.83 502.81,-209.83"/>
<text text-anchor="middle" x="454.63" y="-217.12" font-family="Times,serif" font-size="14.00">ash*20432</text>
</g>
</g>
</svg>
