<?xml version="1.0" encoding="UTF-8" standalone="no"?>
<!DOCTYPE svg PUBLIC "-//W3C//DTD SVG 1.1//EN"
 "http://www.w3.org/Graphics/SVG/1.1/DTD/svg11.dtd">
<!-- Generated by graphviz version 2.43.0 (0)
 -->
<!-- Title: %3 Pages: 1 -->
<svg width="1076pt" height="843pt"
 viewBox="0.00 0.00 1076.10 843.46" xmlns="http://www.w3.org/2000/svg" xmlns:xlink="http://www.w3.org/1999/xlink">
<g id="graph0" class="graph" transform="scale(1 1) rotate(0) translate(4 839.46)">
<title>%3</title>
<polygon fill="white" stroke="transparent" points="-4,4 -4,-839.46 1072.1,-839.46 1072.1,4 -4,4"/>
<!-- &#45;3,&#45;3 (Zinc Plates, 32 to consume four belts) -->
<g id="node1" class="node">
<title>&#45;3,&#45;3 (Zinc Plates, 32 to consume four belts)</title>
<ellipse fill="none" stroke="black" cx="383.2" cy="-410.36" rx="213.66" ry="18"/>
<text text-anchor="middle" x="383.2" y="-406.66" font-family="Times,serif" font-size="14.00">&#45;3,&#45;3 (Zinc Plates, 32 to consume four belts)</text>
</g>
<!-- 4,6 (Circuit substrate and Doped silicon) -->
<g id="node2" class="node">
<title>4,6 (Circuit substrate and Doped silicon)</title>
<ellipse fill="none" stroke="black" cx="868.56" cy="-410.36" rx="199.56" ry="18"/>
<text text-anchor="middle" x="868.56" y="-406.66" font-family="Times,serif" font-size="14.00">4,6 (Circuit substrate and Doped silicon)</text>
</g>
<!-- &#45;3,&#45;3 (Zinc Plates, 32 to consume four belts)&#45;&gt;4,6 (Circuit substrate and Doped silicon) -->
<g id="edge1" class="edge">
<title>&#45;3,&#45;3 (Zinc Plates, 32 to consume four belts)&#45;&gt;4,6 (Circuit substrate and Doped silicon)</title>
<path fill="none" stroke="black" stroke-width="1.78" d="M597.15,-410.36C617.68,-410.36 638.48,-410.36 658.97,-410.36"/>
<polygon fill="black" stroke="black" stroke-width="1.78" points="659,-413.86 669,-410.36 659,-406.86 659,-413.86"/>
<text text-anchor="middle" x="628.06" y="-399.16" font-family="Times,serif" font-size="14.00">zinc&#45;plate*180000</text>
</g>
<!-- 0,0 (LE BUS) -->
<g id="node3" class="node">
<title>0,0 (LE BUS)</title>
<ellipse fill="none" stroke="black" cx="118.91" cy="-817.46" rx="71.49" ry="18"/>
<text text-anchor="middle" x="118.91" y="-813.76" font-family="Times,serif" font-size="14.00">0,0 (LE BUS)</text>
</g>
<!-- &#45;3,&#45;3 (Zinc Plates, 32 to consume four belts)&#45;&gt;0,0 (LE BUS) -->
<g id="edge2" class="edge">
<title>&#45;3,&#45;3 (Zinc Plates, 32 to consume four belts)&#45;&gt;0,0 (LE BUS)</title>
<path fill="none" stroke="black" stroke-width="0.48" d="M371.5,-428.38C329.46,-493.15 185.84,-714.36 136.06,-791.03"/>
<polygon fill="black" stroke="black" stroke-width="0.48" points="132.98,-789.36 130.47,-799.65 138.85,-793.17 132.98,-789.36"/>
<text text-anchor="middle" x="193.28" y="-613.51" font-family="Times,serif" font-size="14.00">zinc&#45;plate*48512</text>
</g>
<!-- 3,0 (Zinc Chloride) -->
<g id="node4" class="node">
<title>3,0 (Zinc Chloride)</title>
<ellipse fill="none" stroke="black" cx="97.49" cy="-18" rx="97.48" ry="18"/>
<text text-anchor="middle" x="97.49" y="-14.3" font-family="Times,serif" font-size="14.00">3,0 (Zinc Chloride)</text>
</g>
<!-- &#45;3,&#45;3 (Zinc Plates, 32 to consume four belts)&#45;&gt;3,0 (Zinc Chloride) -->
<g id="edge3" class="edge">
<title>&#45;3,&#45;3 (Zinc Plates, 32 to consume four belts)&#45;&gt;3,0 (Zinc Chloride)</title>
<path fill="none" stroke="black" stroke-width="0.74" d="M369.99,-392.22C324.01,-329.08 170.81,-118.69 116.66,-44.32"/>
<polygon fill="black" stroke="black" stroke-width="0.74" points="119.27,-41.97 110.56,-35.95 113.62,-46.09 119.27,-41.97"/>
<text text-anchor="middle" x="182.83" y="-222.07" font-family="Times,serif" font-size="14.00">zinc&#45;plate*75328</text>
</g>
</g>
</svg>
