<?xml version="1.0" encoding="UTF-8" standalone="no"?>
<!DOCTYPE svg PUBLIC "-//W3C//DTD SVG 1.1//EN"
 "http://www.w3.org/Graphics/SVG/1.1/DTD/svg11.dtd">
<!-- Generated by graphviz version 2.43.0 (0)
 -->
<!-- Title: %3 Pages: 1 -->
<svg width="971pt" height="812pt"
 viewBox="0.00 0.00 970.83 812.17" xmlns="http://www.w3.org/2000/svg" xmlns:xlink="http://www.w3.org/1999/xlink">
<g id="graph0" class="graph" transform="scale(1 1) rotate(0) translate(4 808.17)">
<title>%3</title>
<polygon fill="white" stroke="transparent" points="-4,4 -4,-808.17 966.83,-808.17 966.83,4 -4,4"/>
<!-- &#45;3,2 (Lead and Solder) -->
<g id="node1" class="node">
<title>&#45;3,2 (Lead and Solder)</title>
<ellipse fill="none" stroke="black" cx="465.11" cy="-423.95" rx="113.98" ry="18"/>
<text text-anchor="middle" x="465.11" y="-420.25" font-family="Times,serif" font-size="14.00">&#45;3,2 (Lead and Solder)</text>
</g>
<!-- 0,0 (LE BUS) -->
<g id="node2" class="node">
<title>0,0 (LE BUS)</title>
<ellipse fill="none" stroke="black" cx="891.33" cy="-423.95" rx="71.49" ry="18"/>
<text text-anchor="middle" x="891.33" y="-420.25" font-family="Times,serif" font-size="14.00">0,0 (LE BUS)</text>
</g>
<!-- &#45;3,2 (Lead and Solder)&#45;&gt;0,0 (LE BUS) -->
<g id="edge1" class="edge">
<title>&#45;3,2 (Lead and Solder)&#45;&gt;0,0 (LE BUS)</title>
<path fill="none" stroke="black" d="M579.05,-423.95C651.61,-423.95 743.92,-423.95 809.3,-423.95"/>
<polygon fill="black" stroke="black" points="809.56,-427.45 819.56,-423.95 809.56,-420.45 809.56,-427.45"/>
<text text-anchor="middle" x="755.68" y="-427.75" font-family="Times,serif" font-size="14.00">lead&#45;plate*49840</text>
</g>
<!-- 3,3 (Random electronic components, Small Parts) -->
<g id="node3" class="node">
<title>3,3 (Random electronic components, Small Parts)</title>
<ellipse fill="none" stroke="black" cx="240.48" cy="-786.17" rx="240.46" ry="18"/>
<text text-anchor="middle" x="240.48" y="-782.47" font-family="Times,serif" font-size="14.00">3,3 (Random electronic components, Small Parts)</text>
</g>
<!-- &#45;3,2 (Lead and Solder)&#45;&gt;3,3 (Random electronic components, Small Parts) -->
<g id="edge2" class="edge">
<title>&#45;3,2 (Lead and Solder)&#45;&gt;3,3 (Random electronic components, Small Parts)</title>
<path fill="none" stroke="black" stroke-width="1.66" d="M453.97,-441.92C417.37,-500.93 300.67,-689.11 257.1,-759.37"/>
<polygon fill="black" stroke="black" stroke-width="1.66" points="253.98,-757.76 251.69,-768.1 259.93,-761.45 253.98,-757.76"/>
<text text-anchor="middle" x="294.04" y="-604.44" font-family="Times,serif" font-size="14.00">lead&#45;plate*82640</text>
</g>
<!-- &#45;7,&#45;2 (Uranium Processing) -->
<g id="node4" class="node">
<title>&#45;7,&#45;2 (Uranium Processing)</title>
<ellipse fill="none" stroke="black" cx="335.25" cy="-18" rx="135.68" ry="18"/>
<text text-anchor="middle" x="335.25" y="-14.3" font-family="Times,serif" font-size="14.00">&#45;7,&#45;2 (Uranium Processing)</text>
</g>
<!-- &#45;3,2 (Lead and Solder)&#45;&gt;&#45;7,&#45;2 (Uranium Processing) -->
<g id="edge3" class="edge">
<title>&#45;3,2 (Lead and Solder)&#45;&gt;&#45;7,&#45;2 (Uranium Processing)</title>
<path fill="none" stroke="black" stroke-width="0.34" d="M459.28,-405.72C438.64,-341.2 368.96,-123.39 344.13,-45.76"/>
<polygon fill="black" stroke="black" stroke-width="0.34" points="347.45,-44.64 341.07,-36.18 340.78,-46.77 347.45,-44.64"/>
<text text-anchor="middle" x="340.21" y="-229.54" font-family="Times,serif" font-size="14.00">lead&#45;plate*17040</text>
</g>
</g>
</svg>
