<?xml version="1.0" encoding="UTF-8" standalone="no"?>
<!DOCTYPE svg PUBLIC "-//W3C//DTD SVG 1.1//EN"
 "http://www.w3.org/Graphics/SVG/1.1/DTD/svg11.dtd">
<!-- Generated by graphviz version 2.43.0 (0)
 -->
<!-- Title: %3 Pages: 1 -->
<svg width="1100pt" height="44pt"
 viewBox="0.00 0.00 1099.62 44.00" xmlns="http://www.w3.org/2000/svg" xmlns:xlink="http://www.w3.org/1999/xlink">
<g id="graph0" class="graph" transform="scale(1 1) rotate(0) translate(4 40)">
<title>%3</title>
<polygon fill="white" stroke="transparent" points="-4,4 -4,-40 1095.62,-40 1095.62,4 -4,4"/>
<!-- &#45;6,&#45;4 (High&#45;Power Resistors, Ceramic Capacitor, Inductor) -->
<g id="node1" class="node">
<title>&#45;6,&#45;4 (High&#45;Power Resistors, Ceramic Capacitor, Inductor)</title>
<ellipse fill="none" stroke="black" cx="563.36" cy="-18" rx="278.35" ry="18"/>
<text text-anchor="middle" x="563.36" y="-14.3" font-family="Times,serif" font-size="14.00">&#45;6,&#45;4 (High&#45;Power Resistors, Ceramic Capacitor, Inductor)</text>
</g>
<!-- 0,0 (LE BUS) -->
<g id="node2" class="node">
<title>0,0 (LE BUS)</title>
<ellipse fill="none" stroke="black" cx="1020.12" cy="-18" rx="71.49" ry="18"/>
<text text-anchor="middle" x="1020.12" y="-14.3" font-family="Times,serif" font-size="14.00">0,0 (LE BUS)</text>
</g>
<!-- &#45;6,&#45;4 (High&#45;Power Resistors, Ceramic Capacitor, Inductor)&#45;&gt;0,0 (LE BUS) -->
<g id="edge1" class="edge">
<title>&#45;6,&#45;4 (High&#45;Power Resistors, Ceramic Capacitor, Inductor)&#45;&gt;0,0 (LE BUS)</title>
<path fill="none" stroke="black" stroke-width="1.11" d="M841.56,-18C876.57,-18 909.93,-18 938.14,-18"/>
<polygon fill="black" stroke="black" stroke-width="1.11" points="938.3,-21.5 948.3,-18 938.3,-14.5 938.3,-21.5"/>
<text text-anchor="middle" x="889.85" y="-6.8" font-family="Times,serif" font-size="14.00">resistor1*6145</text>
</g>
<!-- 2,5 (Simple Circuits) -->
<g id="node3" class="node">
<title>2,5 (Simple Circuits)</title>
<ellipse fill="none" stroke="black" cx="106.59" cy="-18" rx="106.68" ry="18"/>
<text text-anchor="middle" x="106.59" y="-14.3" font-family="Times,serif" font-size="14.00">2,5 (Simple Circuits)</text>
</g>
<!-- &#45;6,&#45;4 (High&#45;Power Resistors, Ceramic Capacitor, Inductor)&#45;&gt;2,5 (Simple Circuits) -->
<g id="edge2" class="edge">
<title>&#45;6,&#45;4 (High&#45;Power Resistors, Ceramic Capacitor, Inductor)&#45;&gt;2,5 (Simple Circuits)</title>
<path fill="none" stroke="black" stroke-width="0.89" d="M285.15,-18C263.74,-18 242.94,-18 223.55,-18"/>
<polygon fill="black" stroke="black" stroke-width="0.89" points="223.55,-14.5 213.55,-18 223.55,-21.5 223.55,-14.5"/>
<text text-anchor="middle" x="227.35" y="-6.8" font-family="Times,serif" font-size="14.00">resistor1*4932</text>
</g>
</g>
</svg>
