<?xml version="1.0" encoding="UTF-8" standalone="no"?>
<!DOCTYPE svg PUBLIC "-//W3C//DTD SVG 1.1//EN"
 "http://www.w3.org/Graphics/SVG/1.1/DTD/svg11.dtd">
<!-- Generated by graphviz version 2.43.0 (0)
 -->
<!-- Title: %3 Pages: 1 -->
<svg width="1107pt" height="731pt"
 viewBox="0.00 0.00 1106.89 731.50" xmlns="http://www.w3.org/2000/svg" xmlns:xlink="http://www.w3.org/1999/xlink">
<g id="graph0" class="graph" transform="scale(1 1) rotate(0) translate(4 727.5)">
<title>%3</title>
<polygon fill="white" stroke="transparent" points="-4,4 -4,-727.5 1102.89,-727.5 1102.89,4 -4,4"/>
<!-- &#45;1,8 (Fibre via. moss) -->
<g id="node1" class="node">
<title>&#45;1,8 (Fibre via. moss)</title>
<ellipse fill="none" stroke="black" cx="815.54" cy="-361.75" rx="109.38" ry="18"/>
<text text-anchor="middle" x="815.54" y="-358.05" font-family="Times,serif" font-size="14.00">&#45;1,8 (Fibre via. moss)</text>
</g>
<!-- 4,1 (item=filtration&#45;media Filtration Media) -->
<g id="node2" class="node">
<title>4,1 (item=filtration&#45;media Filtration Media)</title>
<ellipse fill="none" stroke="black" cx="471.79" cy="-18" rx="214.46" ry="18"/>
<text text-anchor="middle" x="471.79" y="-14.3" font-family="Times,serif" font-size="14.00">4,1 (item=filtration&#45;media Filtration Media)</text>
</g>
<!-- &#45;1,8 (Fibre via. moss)&#45;&gt;4,1 (item=filtration&#45;media Filtration Media) -->
<g id="edge1" class="edge">
<title>&#45;1,8 (Fibre via. moss)&#45;&gt;4,1 (item=filtration&#45;media Filtration Media)</title>
<path fill="none" stroke="black" stroke-width="2.6" d="M797.54,-343.75C740.47,-286.69 563.45,-109.66 497.18,-43.39"/>
<polygon fill="black" stroke="black" stroke-width="2.6" points="499.57,-40.83 490.02,-36.23 494.62,-45.78 499.57,-40.83"/>
<text text-anchor="middle" x="588.36" y="-197.37" font-family="Times,serif" font-size="14.00">raw&#45;fiber*11456</text>
</g>
<!-- &#45;3,1 (Logistic science pack, Automation Science) -->
<g id="node4" class="node">
<title>&#45;3,1 (Logistic science pack, Automation Science)</title>
<ellipse fill="none" stroke="black" cx="471.79" cy="-705.5" rx="233.96" ry="18"/>
<text text-anchor="middle" x="471.79" y="-701.8" font-family="Times,serif" font-size="14.00">&#45;3,1 (Logistic science pack, Automation Science)</text>
</g>
<!-- &#45;1,8 (Fibre via. moss)&#45;&gt;&#45;3,1 (Logistic science pack, Automation Science) -->
<g id="edge3" class="edge">
<title>&#45;1,8 (Fibre via. moss)&#45;&gt;&#45;3,1 (Logistic science pack, Automation Science)</title>
<path fill="none" stroke="black" stroke-width="0.24" d="M797.54,-379.75C740.47,-436.81 563.45,-613.83 497.18,-680.11"/>
<polygon fill="black" stroke="black" stroke-width="0.24" points="494.62,-677.72 490.02,-687.26 499.57,-682.67 494.62,-677.72"/>
<text text-anchor="middle" x="592.86" y="-533.73" font-family="Times,serif" font-size="14.00">raw&#45;fiber*1056</text>
</g>
<!-- 0,0 (LE BUS) -->
<g id="node5" class="node">
<title>0,0 (LE BUS)</title>
<ellipse fill="none" stroke="black" cx="978.26" cy="-216.51" rx="71.49" ry="18"/>
<text text-anchor="middle" x="978.26" y="-212.81" font-family="Times,serif" font-size="14.00">0,0 (LE BUS)</text>
</g>
<!-- &#45;1,8 (Fibre via. moss)&#45;&gt;0,0 (LE BUS) -->
<g id="edge4" class="edge">
<title>&#45;1,8 (Fibre via. moss)&#45;&gt;0,0 (LE BUS)</title>
<path fill="none" stroke="black" stroke-width="1.93" d="M835.49,-343.94C864.44,-318.1 918.18,-270.14 950.83,-240.99"/>
<polygon fill="black" stroke="black" stroke-width="1.93" points="953.52,-243.28 958.65,-234.01 948.86,-238.06 953.52,-243.28"/>
<text text-anchor="middle" x="838.66" y="-296.27" font-family="Times,serif" font-size="14.00">raw&#45;fiber*8512</text>
</g>
<!-- 4,2 (More fiberboard) -->
<g id="node6" class="node">
<title>4,2 (More fiberboard)</title>
<ellipse fill="none" stroke="black" cx="987.75" cy="-468.5" rx="111.28" ry="18"/>
<text text-anchor="middle" x="987.75" y="-464.8" font-family="Times,serif" font-size="14.00">4,2 (More fiberboard)</text>
</g>
<!-- &#45;1,8 (Fibre via. moss)&#45;&gt;4,2 (More fiberboard) -->
<g id="edge6" class="edge">
<title>&#45;1,8 (Fibre via. moss)&#45;&gt;4,2 (More fiberboard)</title>
<path fill="none" stroke="black" stroke-width="0.45" d="M843.97,-379.38C873.23,-397.51 918.91,-425.83 950.92,-445.67"/>
<polygon fill="black" stroke="black" stroke-width="0.45" points="949.21,-448.73 959.55,-451.02 952.9,-442.78 949.21,-448.73"/>
<text text-anchor="middle" x="842.94" y="-416.32" font-family="Times,serif" font-size="14.00">raw&#45;fiber*2000</text>
</g>
<!-- 4,5 (Yet More Raw Fiber) -->
<g id="node3" class="node">
<title>4,5 (Yet More Raw Fiber)</title>
<ellipse fill="none" stroke="black" cx="128.04" cy="-361.75" rx="128.08" ry="18"/>
<text text-anchor="middle" x="128.04" y="-358.05" font-family="Times,serif" font-size="14.00">4,5 (Yet More Raw Fiber)</text>
</g>
<!-- 4,5 (Yet More Raw Fiber)&#45;&gt;4,1 (item=filtration&#45;media Filtration Media) -->
<g id="edge2" class="edge">
<title>4,5 (Yet More Raw Fiber)&#45;&gt;4,1 (item=filtration&#45;media Filtration Media)</title>
<path fill="none" stroke="black" stroke-width="0.53" d="M146.04,-343.75C203.1,-286.69 380.12,-109.66 446.4,-43.39"/>
<polygon fill="black" stroke="black" stroke-width="0.53" points="448.96,-45.78 453.55,-36.23 444.01,-40.83 448.96,-45.78"/>
<text text-anchor="middle" x="241.72" y="-197.37" font-family="Times,serif" font-size="14.00">raw&#45;fiber*2336</text>
</g>
<!-- 4,5 (Yet More Raw Fiber)&#45;&gt;&#45;3,1 (Logistic science pack, Automation Science) -->
<g id="edge5" class="edge">
<title>4,5 (Yet More Raw Fiber)&#45;&gt;&#45;3,1 (Logistic science pack, Automation Science)</title>
<path fill="none" stroke="black" stroke-width="0.24" d="M146.04,-379.75C203.1,-436.81 380.12,-613.83 446.4,-680.11"/>
<polygon fill="black" stroke="black" stroke-width="0.24" points="444.01,-682.67 453.55,-687.26 448.96,-677.72 444.01,-682.67"/>
<text text-anchor="middle" x="241.72" y="-533.73" font-family="Times,serif" font-size="14.00">raw&#45;fiber*1040</text>
</g>
</g>
</svg>
