<?xml version="1.0" encoding="UTF-8" standalone="no"?>
<!DOCTYPE svg PUBLIC "-//W3C//DTD SVG 1.1//EN"
 "http://www.w3.org/Graphics/SVG/1.1/DTD/svg11.dtd">
<!-- Generated by graphviz version 2.43.0 (0)
 -->
<!-- Title: %3 Pages: 1 -->
<svg width="2966pt" height="2551pt"
 viewBox="0.00 0.00 2966.13 2550.59" xmlns="http://www.w3.org/2000/svg" xmlns:xlink="http://www.w3.org/1999/xlink">
<g id="graph0" class="graph" transform="scale(1 1) rotate(0) translate(4 2546.59)">
<title>%3</title>
<polygon fill="white" stroke="transparent" points="-4,4 -4,-2546.59 2962.13,-2546.59 2962.13,4 -4,4"/>
<!-- &#45;2,8 (syngas from coal dust and also wood) -->
<g id="node1" class="node">
<title>&#45;2,8 (syngas from coal dust and also wood)</title>
<ellipse fill="none" stroke="black" cx="208.63" cy="-1628.02" rx="208.76" ry="18"/>
<text text-anchor="middle" x="208.63" y="-1624.32" font-family="Times,serif" font-size="14.00">&#45;2,8 (syngas from coal dust and also wood)</text>
</g>
<!-- 0,0 (LE BUS) -->
<g id="node2" class="node">
<title>0,0 (LE BUS)</title>
<ellipse fill="none" stroke="black" cx="1243.33" cy="-2524.59" rx="71.49" ry="18"/>
<text text-anchor="middle" x="1243.33" y="-2520.89" font-family="Times,serif" font-size="14.00">0,0 (LE BUS)</text>
</g>
<!-- &#45;2,8 (syngas from coal dust and also wood)&#45;&gt;0,0 (LE BUS) -->
<g id="edge1" class="edge">
<title>&#45;2,8 (syngas from coal dust and also wood)&#45;&gt;0,0 (LE BUS)</title>
<path fill="none" stroke="black" stroke-width="3.22" d="M229.77,-1646.34C361.13,-1760.16 1065.07,-2370.13 1215.17,-2500.19"/>
<polygon fill="black" stroke="black" stroke-width="3.22" points="1213.23,-2503.14 1223.08,-2507.04 1217.81,-2497.85 1213.23,-2503.14"/>
<text text-anchor="middle" x="647.47" y="-2077.06" font-family="Times,serif" font-size="14.00">syngas&#45;barrel*28298</text>
</g>
<!-- 3,1 (Mining Brick) -->
<g id="node4" class="node">
<title>3,1 (Mining Brick)</title>
<ellipse fill="none" stroke="black" cx="2488.71" cy="-586.75" rx="94.78" ry="18"/>
<text text-anchor="middle" x="2488.71" y="-583.05" font-family="Times,serif" font-size="14.00">3,1 (Mining Brick)</text>
</g>
<!-- &#45;2,8 (syngas from coal dust and also wood)&#45;&gt;3,1 (Mining Brick) -->
<g id="edge19" class="edge">
<title>&#45;2,8 (syngas from coal dust and also wood)&#45;&gt;3,1 (Mining Brick)</title>
<path fill="none" stroke="black" stroke-width="1.11" d="M247.73,-1610.17C521.39,-1485.19 2147.77,-742.45 2442.82,-607.7"/>
<polygon fill="black" stroke="black" stroke-width="1.11" points="2444.31,-610.87 2451.95,-603.53 2441.4,-604.5 2444.31,-610.87"/>
<text text-anchor="middle" x="1274.77" y="-1112.73" font-family="Times,serif" font-size="14.00">syngas&#45;barrel*9728</text>
</g>
<!-- 4,&#45;2 (Ceramic) -->
<g id="node6" class="node">
<title>4,&#45;2 (Ceramic)</title>
<ellipse fill="none" stroke="black" cx="1243.33" cy="-18" rx="76.89" ry="18"/>
<text text-anchor="middle" x="1243.33" y="-14.3" font-family="Times,serif" font-size="14.00">4,&#45;2 (Ceramic)</text>
</g>
<!-- &#45;2,8 (syngas from coal dust and also wood)&#45;&gt;4,&#45;2 (Ceramic) -->
<g id="edge22" class="edge">
<title>&#45;2,8 (syngas from coal dust and also wood)&#45;&gt;4,&#45;2 (Ceramic)</title>
<path fill="none" stroke="black" stroke-width="0.18" d="M220.25,-1609.94C324.72,-1447.38 1101.24,-239.1 1226.34,-44.44"/>
<polygon fill="black" stroke="black" stroke-width="0.18" points="1229.34,-46.25 1231.8,-35.94 1223.45,-42.46 1229.34,-46.25"/>
<text text-anchor="middle" x="652.79" y="-830.99" font-family="Times,serif" font-size="14.00">syngas&#45;barrel*1547</text>
</g>
<!-- &#45;2,7 (item=borax Borax) -->
<g id="node7" class="node">
<title>&#45;2,7 (item=borax Borax)</title>
<ellipse fill="none" stroke="black" cx="208.63" cy="-914.57" rx="123.48" ry="18"/>
<text text-anchor="middle" x="208.63" y="-910.87" font-family="Times,serif" font-size="14.00">&#45;2,7 (item=borax Borax)</text>
</g>
<!-- &#45;2,8 (syngas from coal dust and also wood)&#45;&gt;&#45;2,7 (item=borax Borax) -->
<g id="edge23" class="edge">
<title>&#45;2,8 (syngas from coal dust and also wood)&#45;&gt;&#45;2,7 (item=borax Borax)</title>
<path fill="none" stroke="black" stroke-width="0.72" d="M208.63,-1609.67C208.63,-1512.8 208.63,-1060.95 208.63,-942.86"/>
<polygon fill="black" stroke="black" stroke-width="0.72" points="212.13,-942.8 208.63,-932.8 205.13,-942.8 212.13,-942.8"/>
<text text-anchor="middle" x="138.13" y="-1280.07" font-family="Times,serif" font-size="14.00">syngas&#45;barrel*6368</text>
</g>
<!-- 2,6 (Refined Syngas) -->
<g id="node8" class="node">
<title>2,6 (Refined Syngas)</title>
<ellipse fill="none" stroke="black" cx="594.35" cy="-2228.21" rx="107.48" ry="18"/>
<text text-anchor="middle" x="594.35" y="-2224.51" font-family="Times,serif" font-size="14.00">2,6 (Refined Syngas)</text>
</g>
<!-- &#45;2,8 (syngas from coal dust and also wood)&#45;&gt;2,6 (Refined Syngas) -->
<g id="edge17" class="edge">
<title>&#45;2,8 (syngas from coal dust and also wood)&#45;&gt;2,6 (Refined Syngas)</title>
<path fill="none" stroke="black" stroke-width="0.54" d="M220.39,-1646.31C275.84,-1732.6 511.38,-2099.11 577.2,-2201.53"/>
<polygon fill="black" stroke="black" stroke-width="0.54" points="574.34,-2203.55 582.69,-2210.07 580.23,-2199.76 574.34,-2203.55"/>
<text text-anchor="middle" x="328.29" y="-1927.72" font-family="Times,serif" font-size="14.00">syngas&#45;barrel*4768</text>
</g>
<!-- 2,&#45;2 (Tin Plate, Organic Solvent) -->
<g id="node10" class="node">
<title>2,&#45;2 (Tin Plate, Organic Solvent)</title>
<ellipse fill="none" stroke="black" cx="1949.52" cy="-2423.06" rx="159.77" ry="18"/>
<text text-anchor="middle" x="1949.52" y="-2419.36" font-family="Times,serif" font-size="14.00">2,&#45;2 (Tin Plate, Organic Solvent)</text>
</g>
<!-- &#45;2,8 (syngas from coal dust and also wood)&#45;&gt;2,&#45;2 (Tin Plate, Organic Solvent) -->
<g id="edge32" class="edge">
<title>&#45;2,8 (syngas from coal dust and also wood)&#45;&gt;2,&#45;2 (Tin Plate, Organic Solvent)</title>
<path fill="none" stroke="black" stroke-width="0.09" d="M247.43,-1645.74C476.4,-1750.3 1649.55,-2286.07 1901.73,-2401.23"/>
<polygon fill="black" stroke="black" stroke-width="0.09" points="1900.45,-2404.49 1911,-2405.46 1903.36,-2398.13 1900.45,-2404.49"/>
<text text-anchor="middle" x="1008.58" y="-2027.29" font-family="Times,serif" font-size="14.00">syngas&#45;barrel*768</text>
</g>
<!-- 0,0 (LE BUS)&#45;&gt;0,0 (LE BUS) -->
<g id="edge10" class="edge">
<title>0,0 (LE BUS)&#45;&gt;0,0 (LE BUS)</title>
<path fill="none" stroke="black" stroke-width="0.34" d="M1310.07,-2531.06C1323.35,-2530.33 1332.82,-2528.18 1332.82,-2524.59 1332.82,-2522.01 1327.93,-2520.17 1320.25,-2519.07"/>
<polygon fill="black" stroke="black" stroke-width="0.34" points="1320.35,-2515.57 1310.07,-2518.12 1319.7,-2522.54 1320.35,-2515.57"/>
<text text-anchor="middle" x="1403.32" y="-2520.89" font-family="Times,serif" font-size="14.00">syngas&#45;barrel*3007</text>
</g>
<!-- 0,0 (LE BUS)&#45;&gt;3,1 (Mining Brick) -->
<g id="edge18" class="edge">
<title>0,0 (LE BUS)&#45;&gt;3,1 (Mining Brick)</title>
<path fill="none" stroke="black" stroke-width="0.24" d="M1254.86,-2506.64C1371.2,-2325.62 2331.37,-831.57 2471.63,-613.31"/>
<polygon fill="black" stroke="black" stroke-width="0.24" points="2474.7,-615.01 2477.17,-604.7 2468.82,-611.22 2474.7,-615.01"/>
<text text-anchor="middle" x="1792.75" y="-1563.78" font-family="Times,serif" font-size="14.00">syngas&#45;barrel*2141</text>
</g>
<!-- 0,0 (LE BUS)&#45;&gt;4,&#45;2 (Ceramic) -->
<g id="edge31" class="edge">
<title>0,0 (LE BUS)&#45;&gt;4,&#45;2 (Ceramic)</title>
<path fill="none" stroke="black" stroke-width="0.02" d="M1243.33,-2506.56C1243.33,-2296.04 1243.33,-308.49 1243.33,-46.46"/>
<polygon fill="black" stroke="black" stroke-width="0.02" points="1246.83,-46.25 1243.33,-36.25 1239.83,-46.25 1246.83,-46.25"/>
<text text-anchor="middle" x="1177.33" y="-1280.31" font-family="Times,serif" font-size="14.00">syngas&#45;barrel*216</text>
</g>
<!-- 0,0 (LE BUS)&#45;&gt;&#45;2,7 (item=borax Borax) -->
<g id="edge21" class="edge">
<title>0,0 (LE BUS)&#45;&gt;&#45;2,7 (item=borax Borax)</title>
<path fill="none" stroke="black" stroke-width="0.2" d="M1231.89,-2506.78C1128.13,-2345.33 350.87,-1135.89 225.64,-941.04"/>
<polygon fill="black" stroke="black" stroke-width="0.2" points="228.53,-939.05 220.17,-932.53 222.64,-942.84 228.53,-939.05"/>
<text text-anchor="middle" x="658.26" y="-1727.71" font-family="Times,serif" font-size="14.00">syngas&#45;barrel*1735</text>
</g>
<!-- 0,0 (LE BUS)&#45;&gt;2,6 (Refined Syngas) -->
<g id="edge25" class="edge">
<title>0,0 (LE BUS)&#45;&gt;2,6 (Refined Syngas)</title>
<path fill="none" stroke="black" stroke-width="0.1" d="M1208.44,-2508.66C1099.26,-2458.79 764.08,-2305.73 640.63,-2249.35"/>
<polygon fill="black" stroke="black" stroke-width="0.1" points="641.97,-2246.11 631.42,-2245.14 639.06,-2252.48 641.97,-2246.11"/>
<text text-anchor="middle" x="858.53" y="-2382.8" font-family="Times,serif" font-size="14.00">syngas&#45;barrel*854</text>
</g>
<!-- 0,0 (LE BUS)&#45;&gt;2,&#45;2 (Tin Plate, Organic Solvent) -->
<g id="edge30" class="edge">
<title>0,0 (LE BUS)&#45;&gt;2,&#45;2 (Tin Plate, Organic Solvent)</title>
<path fill="none" stroke="black" stroke-width="0.01" d="M1305.69,-2515.62C1425.87,-2498.35 1690.9,-2460.24 1840.75,-2438.69"/>
<polygon fill="black" stroke="black" stroke-width="0.01" points="1841.5,-2442.12 1850.9,-2437.24 1840.5,-2435.19 1841.5,-2442.12"/>
<text text-anchor="middle" x="1507.22" y="-2480.96" font-family="Times,serif" font-size="14.00">syngas&#45;barrel*121</text>
</g>
<!-- 4,0 (item=raw&#45;borax Raw Borax mine (no consumers?)) -->
<g id="node11" class="node">
<title>4,0 (item=raw&#45;borax Raw Borax mine (no consumers?))</title>
<ellipse fill="none" stroke="black" cx="2689.71" cy="-1271.3" rx="268.35" ry="18"/>
<text text-anchor="middle" x="2689.71" y="-1267.6" font-family="Times,serif" font-size="14.00">4,0 (item=raw&#45;borax Raw Borax mine (no consumers?))</text>
</g>
<!-- 0,0 (LE BUS)&#45;&gt;4,0 (item=raw&#45;borax Raw Borax mine (no consumers?)) -->
<g id="edge26" class="edge">
<title>0,0 (LE BUS)&#45;&gt;4,0 (item=raw&#45;borax Raw Borax mine (no consumers?))</title>
<path fill="none" stroke="black" stroke-width="0.03" d="M1263.5,-2507.11C1422.58,-2369.26 2473.85,-1458.34 2661.18,-1296.02"/>
<polygon fill="black" stroke="black" stroke-width="0.03" points="2663.69,-1298.47 2668.95,-1289.28 2659.1,-1293.18 2663.69,-1298.47"/>
<text text-anchor="middle" x="1896.34" y="-1905.37" font-family="Times,serif" font-size="14.00">syngas&#45;barrel*226</text>
</g>
<!-- 0,6 (Flue Gas Disposal, Syngas From Flue Gas) -->
<g id="node3" class="node">
<title>0,6 (Flue Gas Disposal, Syngas From Flue Gas)</title>
<ellipse fill="none" stroke="black" cx="1949.52" cy="-119.53" rx="229.36" ry="18"/>
<text text-anchor="middle" x="1949.52" y="-115.83" font-family="Times,serif" font-size="14.00">0,6 (Flue Gas Disposal, Syngas From Flue Gas)</text>
</g>
<!-- 0,6 (Flue Gas Disposal, Syngas From Flue Gas)&#45;&gt;0,0 (LE BUS) -->
<g id="edge6" class="edge">
<title>0,6 (Flue Gas Disposal, Syngas From Flue Gas)&#45;&gt;0,0 (LE BUS)</title>
<path fill="none" stroke="black" stroke-width="0.91" d="M1944.14,-137.85C1883.34,-344.93 1326.07,-2242.78 1251.55,-2496.58"/>
<polygon fill="black" stroke="black" stroke-width="0.91" points="1248.1,-2495.91 1248.64,-2506.49 1254.82,-2497.88 1248.1,-2495.91"/>
<text text-anchor="middle" x="1527.35" y="-1321.02" font-family="Times,serif" font-size="14.00">syngas&#45;barrel*7982</text>
</g>
<!-- 0,6 (Flue Gas Disposal, Syngas From Flue Gas)&#45;&gt;3,1 (Mining Brick) -->
<g id="edge2" class="edge">
<title>0,6 (Flue Gas Disposal, Syngas From Flue Gas)&#45;&gt;3,1 (Mining Brick)</title>
<path fill="none" stroke="black" stroke-width="1" d="M1970.32,-137.56C2053.82,-209.91 2364.67,-479.26 2460.44,-562.25"/>
<polygon fill="black" stroke="black" stroke-width="1" points="2458.4,-565.12 2468.25,-569.02 2462.99,-559.83 2458.4,-565.12"/>
<text text-anchor="middle" x="2144.88" y="-353.71" font-family="Times,serif" font-size="14.00">syngas&#45;barrel*8782</text>
</g>
<!-- 0,6 (Flue Gas Disposal, Syngas From Flue Gas)&#45;&gt;4,&#45;2 (Ceramic) -->
<g id="edge20" class="edge">
<title>0,6 (Flue Gas Disposal, Syngas From Flue Gas)&#45;&gt;4,&#45;2 (Ceramic)</title>
<path fill="none" stroke="black" stroke-width="0.3" d="M1839.56,-103.73C1694.96,-82.93 1444.59,-46.94 1319.32,-28.93"/>
<polygon fill="black" stroke="black" stroke-width="0.3" points="1319.45,-25.41 1309.05,-27.45 1318.45,-32.34 1319.45,-25.41"/>
<text text-anchor="middle" x="1508.94" y="-70.13" font-family="Times,serif" font-size="14.00">syngas&#45;barrel*2639</text>
</g>
<!-- 0,6 (Flue Gas Disposal, Syngas From Flue Gas)&#45;&gt;&#45;2,7 (item=borax Borax) -->
<g id="edge8" class="edge">
<title>0,6 (Flue Gas Disposal, Syngas From Flue Gas)&#45;&gt;&#45;2,7 (item=borax Borax)</title>
<path fill="none" stroke="black" stroke-width="0.81" d="M1910.3,-137.44C1680.08,-242.58 505.75,-778.88 255.55,-893.14"/>
<polygon fill="black" stroke="black" stroke-width="0.81" points="254.01,-890 246.37,-897.34 256.92,-896.37 254.01,-890"/>
<text text-anchor="middle" x="1012.43" y="-519.09" font-family="Times,serif" font-size="14.00">syngas&#45;barrel*7104</text>
</g>
<!-- 0,6 (Flue Gas Disposal, Syngas From Flue Gas)&#45;&gt;2,6 (Refined Syngas) -->
<g id="edge11" class="edge">
<title>0,6 (Flue Gas Disposal, Syngas From Flue Gas)&#45;&gt;2,6 (Refined Syngas)</title>
<path fill="none" stroke="black" stroke-width="0.29" d="M1937.8,-137.76C1814.63,-329.43 758.7,-1972.48 611.39,-2201.7"/>
<polygon fill="black" stroke="black" stroke-width="0.29" points="608.44,-2199.82 605.97,-2210.13 614.33,-2203.61 608.44,-2199.82"/>
<text text-anchor="middle" x="1204.09" y="-1173.53" font-family="Times,serif" font-size="14.00">syngas&#45;barrel*2576</text>
</g>
<!-- 0,6 (Flue Gas Disposal, Syngas From Flue Gas)&#45;&gt;2,&#45;2 (Tin Plate, Organic Solvent) -->
<g id="edge28" class="edge">
<title>0,6 (Flue Gas Disposal, Syngas From Flue Gas)&#45;&gt;2,&#45;2 (Tin Plate, Organic Solvent)</title>
<path fill="none" stroke="black" stroke-width="0.04" d="M1949.52,-137.74C1949.52,-339.03 1949.52,-2146.28 1949.52,-2394.78"/>
<polygon fill="black" stroke="black" stroke-width="0.04" points="1946.02,-2394.82 1949.52,-2404.82 1953.02,-2394.82 1946.02,-2394.82"/>
<text text-anchor="middle" x="1883.52" y="-1270.06" font-family="Times,serif" font-size="14.00">syngas&#45;barrel*364</text>
</g>
<!-- &#45;5,&#45;1 (Coal and Coke and Syngas and Ash and Coke Oven Gas and...) -->
<g id="node5" class="node">
<title>&#45;5,&#45;1 (Coal and Coke and Syngas and Ash and Coke Oven Gas and...)</title>
<ellipse fill="none" stroke="black" cx="594.35" cy="-314.38" rx="325.74" ry="18"/>
<text text-anchor="middle" x="594.35" y="-310.68" font-family="Times,serif" font-size="14.00">&#45;5,&#45;1 (Coal and Coke and Syngas and Ash and Coke Oven Gas and...)</text>
</g>
<!-- &#45;5,&#45;1 (Coal and Coke and Syngas and Ash and Coke Oven Gas and...)&#45;&gt;0,0 (LE BUS) -->
<g id="edge4" class="edge">
<title>&#45;5,&#45;1 (Coal and Coke and Syngas and Ash and Coke Oven Gas and...)&#45;&gt;0,0 (LE BUS)</title>
<path fill="none" stroke="black" stroke-width="6.39" d="M599.67,-332.49C657.26,-528.63 1164.46,-2255.98 1235.16,-2496.77"/>
<polygon fill="black" stroke="black" stroke-width="6.39" points="1229.84,-2498.5 1238.02,-2506.51 1240.57,-2495.34 1229.84,-2498.5"/>
<text text-anchor="middle" x="842.42" y="-1418.43" font-family="Times,serif" font-size="14.00">syngas&#45;barrel*56178</text>
</g>
<!-- &#45;5,&#45;1 (Coal and Coke and Syngas and Ash and Coke Oven Gas and...)&#45;&gt;3,1 (Mining Brick) -->
<g id="edge3" class="edge">
<title>&#45;5,&#45;1 (Coal and Coke and Syngas and Ash and Coke Oven Gas and...)&#45;&gt;3,1 (Mining Brick)</title>
<path fill="none" stroke="black" stroke-width="2.89" d="M711.42,-331.21C1061.77,-381.58 2096.62,-530.37 2402.58,-574.36"/>
<polygon fill="black" stroke="black" stroke-width="2.89" points="2402.32,-577.86 2412.72,-575.82 2403.32,-570.93 2402.32,-577.86"/>
<text text-anchor="middle" x="1482" y="-456.59" font-family="Times,serif" font-size="14.00">syngas&#45;barrel*25363</text>
</g>
<!-- &#45;5,&#45;1 (Coal and Coke and Syngas and Ash and Coke Oven Gas and...)&#45;&gt;4,&#45;2 (Ceramic) -->
<g id="edge5" class="edge">
<title>&#45;5,&#45;1 (Coal and Coke and Syngas and Ash and Coke Oven Gas and...)&#45;&gt;4,&#45;2 (Ceramic)</title>
<path fill="none" stroke="black" stroke-width="0.88" d="M633.49,-296.51C747.42,-244.48 1078.42,-93.31 1198.85,-38.31"/>
<polygon fill="black" stroke="black" stroke-width="0.88" points="1200.52,-41.4 1208.16,-34.06 1197.61,-35.03 1200.52,-41.4"/>
<text text-anchor="middle" x="845.67" y="-171.21" font-family="Times,serif" font-size="14.00">syngas&#45;barrel*7765</text>
</g>
<!-- &#45;5,&#45;1 (Coal and Coke and Syngas and Ash and Coke Oven Gas and...)&#45;&gt;&#45;2,7 (item=borax Borax) -->
<g id="edge7" class="edge">
<title>&#45;5,&#45;1 (Coal and Coke and Syngas and Ash and Coke Oven Gas and...)&#45;&gt;&#45;2,7 (item=borax Borax)</title>
<path fill="none" stroke="black" stroke-width="2.07" d="M582.6,-332.67C527.14,-418.96 291.6,-785.47 225.78,-887.89"/>
<polygon fill="black" stroke="black" stroke-width="2.07" points="222.76,-886.12 220.29,-896.42 228.65,-889.9 222.76,-886.12"/>
<text text-anchor="middle" x="329.19" y="-614.08" font-family="Times,serif" font-size="14.00">syngas&#45;barrel*18169</text>
</g>
<!-- &#45;5,&#45;1 (Coal and Coke and Syngas and Ash and Coke Oven Gas and...)&#45;&gt;2,6 (Refined Syngas) -->
<g id="edge9" class="edge">
<title>&#45;5,&#45;1 (Coal and Coke and Syngas and Ash and Coke Oven Gas and...)&#45;&gt;2,6 (Refined Syngas)</title>
<path fill="none" stroke="black" stroke-width="1.4" d="M594.35,-332.4C594.35,-511.91 594.35,-1976.32 594.35,-2199.69"/>
<polygon fill="black" stroke="black" stroke-width="1.4" points="590.85,-2199.93 594.35,-2209.93 597.85,-2199.93 590.85,-2199.93"/>
<text text-anchor="middle" x="519.35" y="-1269.85" font-family="Times,serif" font-size="14.00">syngas&#45;barrel*12308</text>
</g>
<!-- &#45;5,&#45;1 (Coal and Coke and Syngas and Ash and Coke Oven Gas and...)&#45;&gt;2,&#45;2 (Tin Plate, Organic Solvent) -->
<g id="edge24" class="edge">
<title>&#45;5,&#45;1 (Coal and Coke and Syngas and Ash and Coke Oven Gas and...)&#45;&gt;2,&#45;2 (Tin Plate, Organic Solvent)</title>
<path fill="none" stroke="black" stroke-width="0.19" d="M606.07,-332.61C729.24,-524.27 1785.17,-2167.33 1932.48,-2396.55"/>
<polygon fill="black" stroke="black" stroke-width="0.19" points="1929.54,-2398.45 1937.89,-2404.97 1935.43,-2394.67 1929.54,-2398.45"/>
<text text-anchor="middle" x="1198.77" y="-1368.38" font-family="Times,serif" font-size="14.00">syngas&#45;barrel*1710</text>
</g>
<!-- 2,7 (Mystery petrochemicals) -->
<g id="node9" class="node">
<title>2,7 (Mystery petrochemicals)</title>
<ellipse fill="none" stroke="black" cx="2488.71" cy="-1955.85" rx="147.57" ry="18"/>
<text text-anchor="middle" x="2488.71" y="-1952.15" font-family="Times,serif" font-size="14.00">2,7 (Mystery petrochemicals)</text>
</g>
<!-- 2,7 (Mystery petrochemicals)&#45;&gt;0,0 (LE BUS) -->
<g id="edge16" class="edge">
<title>2,7 (Mystery petrochemicals)&#45;&gt;0,0 (LE BUS)</title>
<path fill="none" stroke="black" stroke-width="3.81" d="M2450.41,-1973.33C2267.36,-2056.93 1482.36,-2415.43 1287.33,-2504.5"/>
<polygon fill="black" stroke="black" stroke-width="3.81" points="1285.6,-2501.44 1277.96,-2508.78 1288.51,-2507.81 1285.6,-2501.44"/>
<text text-anchor="middle" x="1793.87" y="-2242.72" font-family="Times,serif" font-size="14.00">syngas&#45;barrel*33519</text>
</g>
<!-- 2,7 (Mystery petrochemicals)&#45;&gt;3,1 (Mining Brick) -->
<g id="edge14" class="edge">
<title>2,7 (Mystery petrochemicals)&#45;&gt;3,1 (Mining Brick)</title>
<path fill="none" stroke="black" stroke-width="1.88" d="M2488.71,-1937.78C2488.71,-1791.13 2488.71,-796.47 2488.71,-615.1"/>
<polygon fill="black" stroke="black" stroke-width="1.88" points="2492.21,-615.02 2488.71,-605.02 2485.21,-615.02 2492.21,-615.02"/>
<text text-anchor="middle" x="2413.71" y="-1280.24" font-family="Times,serif" font-size="14.00">syngas&#45;barrel*16515</text>
</g>
<!-- 2,7 (Mystery petrochemicals)&#45;&gt;4,&#45;2 (Ceramic) -->
<g id="edge13" class="edge">
<title>2,7 (Mystery petrochemicals)&#45;&gt;4,&#45;2 (Ceramic)</title>
<path fill="none" stroke="black" stroke-width="0.48" d="M2477.17,-1937.9C2360.84,-1756.87 1400.67,-262.82 1260.4,-44.56"/>
<polygon fill="black" stroke="black" stroke-width="0.48" points="1263.22,-42.48 1254.87,-35.96 1257.33,-46.26 1263.22,-42.48"/>
<text text-anchor="middle" x="1798.29" y="-995.03" font-family="Times,serif" font-size="14.00">syngas&#45;barrel*4192</text>
</g>
<!-- 2,7 (Mystery petrochemicals)&#45;&gt;&#45;2,7 (item=borax Borax) -->
<g id="edge15" class="edge">
<title>2,7 (Mystery petrochemicals)&#45;&gt;&#45;2,7 (item=borax Borax)</title>
<path fill="none" stroke="black" stroke-width="1.11" d="M2450.56,-1938.43C2180.06,-1814.89 553.72,-1072.17 255.56,-936"/>
<polygon fill="black" stroke="black" stroke-width="1.11" points="256.88,-932.75 246.33,-931.78 253.97,-939.12 256.88,-932.75"/>
<text text-anchor="middle" x="1282.56" y="-1441.01" font-family="Times,serif" font-size="14.00">syngas&#45;barrel*9762</text>
</g>
<!-- 2,7 (Mystery petrochemicals)&#45;&gt;2,6 (Refined Syngas) -->
<g id="edge12" class="edge">
<title>2,7 (Mystery petrochemicals)&#45;&gt;2,6 (Refined Syngas)</title>
<path fill="none" stroke="black" stroke-width="0.66" d="M2393.14,-1969.59C2067.74,-2016.37 1005.41,-2169.11 686,-2215.04"/>
<polygon fill="black" stroke="black" stroke-width="0.66" points="685.26,-2211.61 675.86,-2216.49 686.26,-2218.54 685.26,-2211.61"/>
<text text-anchor="middle" x="1469.07" y="-2096.11" font-family="Times,serif" font-size="14.00">syngas&#45;barrel*5776</text>
</g>
<!-- 2,7 (Mystery petrochemicals)&#45;&gt;2,&#45;2 (Tin Plate, Organic Solvent) -->
<g id="edge27" class="edge">
<title>2,7 (Mystery petrochemicals)&#45;&gt;2,&#45;2 (Tin Plate, Organic Solvent)</title>
<path fill="none" stroke="black" stroke-width="0.05" d="M2467.9,-1973.87C2384.41,-2046.22 2073.63,-2315.51 1977.82,-2398.53"/>
<polygon fill="black" stroke="black" stroke-width="0.05" points="1975.53,-2395.89 1970.26,-2405.08 1980.11,-2401.18 1975.53,-2395.89"/>
<text text-anchor="middle" x="2156.86" y="-2190" font-family="Times,serif" font-size="14.00">syngas&#45;barrel*432</text>
</g>
<!-- 2,7 (Mystery petrochemicals)&#45;&gt;4,0 (item=raw&#45;borax Raw Borax mine (no consumers?)) -->
<g id="edge29" class="edge">
<title>2,7 (Mystery petrochemicals)&#45;&gt;4,0 (item=raw&#45;borax Raw Borax mine (no consumers?))</title>
<path fill="none" stroke="black" stroke-width="0.03" d="M2494.08,-1937.54C2521.75,-1843.31 2648.08,-1413.06 2681.55,-1299.07"/>
<polygon fill="black" stroke="black" stroke-width="0.03" points="2684.95,-1299.93 2684.41,-1289.34 2678.23,-1297.95 2684.95,-1299.93"/>
<text text-anchor="middle" x="2521.82" y="-1622.11" font-family="Times,serif" font-size="14.00">syngas&#45;barrel*256</text>
</g>
</g>
</svg>
