<?xml version="1.0" encoding="UTF-8" standalone="no"?>
<!DOCTYPE svg PUBLIC "-//W3C//DTD SVG 1.1//EN"
 "http://www.w3.org/Graphics/SVG/1.1/DTD/svg11.dtd">
<!-- Generated by graphviz version 2.43.0 (0)
 -->
<!-- Title: %3 Pages: 1 -->
<svg width="4480pt" height="3817pt"
 viewBox="0.00 0.00 4479.76 3816.86" xmlns="http://www.w3.org/2000/svg" xmlns:xlink="http://www.w3.org/1999/xlink">
<g id="graph0" class="graph" transform="scale(1 1) rotate(0) translate(4 3812.86)">
<title>%3</title>
<polygon fill="white" stroke="transparent" points="-4,4 -4,-3812.86 4475.76,-3812.86 4475.76,4 -4,4"/>
<!-- &#45;2,7 (item=borax Borax) -->
<g id="node1" class="node">
<title>&#45;2,7 (item=borax Borax)</title>
<ellipse fill="none" stroke="black" cx="3487.56" cy="-673.15" rx="123.48" ry="18"/>
<text text-anchor="middle" x="3487.56" y="-669.45" font-family="Times,serif" font-size="14.00">&#45;2,7 (item=borax Borax)</text>
</g>
<!-- 4,3 (item=nexelit&#45;plate Nexelit platery) -->
<g id="node2" class="node">
<title>4,3 (item=nexelit&#45;plate Nexelit platery)</title>
<ellipse fill="none" stroke="black" cx="2977.94" cy="-245.53" rx="194.17" ry="18"/>
<text text-anchor="middle" x="2977.94" y="-241.83" font-family="Times,serif" font-size="14.00">4,3 (item=nexelit&#45;plate Nexelit platery)</text>
</g>
<!-- &#45;2,7 (item=borax Borax)&#45;&gt;4,3 (item=nexelit&#45;plate Nexelit platery) -->
<g id="edge1" class="edge">
<title>&#45;2,7 (item=borax Borax)&#45;&gt;4,3 (item=nexelit&#45;plate Nexelit platery)</title>
<path fill="none" stroke="black" stroke-width="0.13" d="M3466.31,-655.32C3385.85,-587.81 3099.78,-347.77 3007.13,-270.02"/>
<polygon fill="black" stroke="black" stroke-width="0.13" points="3009.19,-267.18 2999.28,-263.44 3004.69,-272.55 3009.19,-267.18"/>
<text text-anchor="middle" x="3194.72" y="-466.47" font-family="Times,serif" font-size="14.00">borax*6640</text>
</g>
<!-- 6,3 (Things from molten) -->
<g id="node3" class="node">
<title>6,3 (Things from molten)</title>
<ellipse fill="none" stroke="black" cx="3539.07" cy="-434.62" rx="126.18" ry="18"/>
<text text-anchor="middle" x="3539.07" y="-430.92" font-family="Times,serif" font-size="14.00">6,3 (Things from molten)</text>
</g>
<!-- &#45;2,7 (item=borax Borax)&#45;&gt;6,3 (Things from molten) -->
<g id="edge2" class="edge">
<title>&#45;2,7 (item=borax Borax)&#45;&gt;6,3 (Things from molten)</title>
<path fill="none" stroke="black" stroke-width="0.08" d="M3491.51,-654.83C3500.47,-613.36 3522.34,-512.09 3533.01,-462.67"/>
<polygon fill="black" stroke="black" stroke-width="0.08" points="3536.48,-463.19 3535.17,-452.68 3529.64,-461.71 3536.48,-463.19"/>
<text text-anchor="middle" x="3470.26" y="-562.55" font-family="Times,serif" font-size="14.00">borax*4160</text>
</g>
<!-- &#45;6,8 (Copper plate duplicate) -->
<g id="node5" class="node">
<title>&#45;6,8 (Copper plate duplicate)</title>
<ellipse fill="none" stroke="black" cx="3820.19" cy="-1249.28" rx="143.77" ry="18"/>
<text text-anchor="middle" x="3820.19" y="-1245.58" font-family="Times,serif" font-size="14.00">&#45;6,8 (Copper plate duplicate)</text>
</g>
<!-- &#45;2,7 (item=borax Borax)&#45;&gt;&#45;6,8 (Copper plate duplicate) -->
<g id="edge16" class="edge">
<title>&#45;2,7 (item=borax Borax)&#45;&gt;&#45;6,8 (Copper plate duplicate)</title>
<path fill="none" stroke="black" stroke-width="1.95" d="M3498.06,-691.34C3546.31,-774.91 3746.78,-1122.13 3804.54,-1222.19"/>
<polygon fill="black" stroke="black" stroke-width="1.95" points="3801.65,-1224.17 3809.68,-1231.08 3807.71,-1220.67 3801.65,-1224.17"/>
<text text-anchor="middle" x="3604.8" y="-960.57" font-family="Times,serif" font-size="14.00">borax*96720</text>
</g>
<!-- 1,12 (Molten Iron) -->
<g id="node6" class="node">
<title>1,12 (Molten Iron)</title>
<ellipse fill="none" stroke="black" cx="2352.8" cy="-18" rx="95.58" ry="18"/>
<text text-anchor="middle" x="2352.8" y="-14.3" font-family="Times,serif" font-size="14.00">1,12 (Molten Iron)</text>
</g>
<!-- &#45;2,7 (item=borax Borax)&#45;&gt;1,12 (Molten Iron) -->
<g id="edge4" class="edge">
<title>&#45;2,7 (item=borax Borax)&#45;&gt;1,12 (Molten Iron)</title>
<path fill="none" stroke="black" stroke-width="2.67" d="M3457.2,-655.63C3298.8,-564.17 2567.51,-141.96 2391.15,-40.14"/>
<polygon fill="black" stroke="black" stroke-width="2.67" points="2392.87,-37.09 2382.46,-35.12 2389.37,-43.15 2392.87,-37.09"/>
<text text-anchor="middle" x="2873.18" y="-351.68" font-family="Times,serif" font-size="14.00">borax*132480</text>
</g>
<!-- &#45;1,10 (Iron Plates) -->
<g id="node7" class="node">
<title>&#45;1,10 (Iron Plates)</title>
<ellipse fill="none" stroke="black" cx="1687.54" cy="-18" rx="94.78" ry="18"/>
<text text-anchor="middle" x="1687.54" y="-14.3" font-family="Times,serif" font-size="14.00">&#45;1,10 (Iron Plates)</text>
</g>
<!-- &#45;2,7 (item=borax Borax)&#45;&gt;&#45;1,10 (Iron Plates) -->
<g id="edge22" class="edge">
<title>&#45;2,7 (item=borax Borax)&#45;&gt;&#45;1,10 (Iron Plates)</title>
<path fill="none" stroke="black" stroke-width="2.23" d="M3441.25,-656.3C3191.62,-565.44 2007.62,-134.5 1740.97,-37.44"/>
<polygon fill="black" stroke="black" stroke-width="2.23" points="1742.1,-34.13 1731.51,-34 1739.71,-40.71 1742.1,-34.13"/>
<text text-anchor="middle" x="2540.11" y="-350.67" font-family="Times,serif" font-size="14.00">borax*110400</text>
</g>
<!-- &#45;4,&#45;4 (Aluminium) -->
<g id="node8" class="node">
<title>&#45;4,&#45;4 (Aluminium)</title>
<ellipse fill="none" stroke="black" cx="1062.41" cy="-245.53" rx="90.98" ry="18"/>
<text text-anchor="middle" x="1062.41" y="-241.83" font-family="Times,serif" font-size="14.00">&#45;4,&#45;4 (Aluminium)</text>
</g>
<!-- &#45;2,7 (item=borax Borax)&#45;&gt;&#45;4,&#45;4 (Aluminium) -->
<g id="edge6" class="edge">
<title>&#45;2,7 (item=borax Borax)&#45;&gt;&#45;4,&#45;4 (Aluminium)</title>
<path fill="none" stroke="black" stroke-width="1" d="M3408.59,-659.23C3041.64,-594.52 1505.47,-323.66 1140.46,-259.29"/>
<polygon fill="black" stroke="black" stroke-width="1" points="1140.97,-255.83 1130.52,-257.54 1139.76,-262.72 1140.97,-255.83"/>
<text text-anchor="middle" x="2228.03" y="-463.06" font-family="Times,serif" font-size="14.00">borax*49680</text>
</g>
<!-- 3,9 (Copper, molten &amp; plate) -->
<g id="node9" class="node">
<title>3,9 (Copper, molten &amp; plate)</title>
<ellipse fill="none" stroke="black" cx="552.79" cy="-673.15" rx="143.77" ry="18"/>
<text text-anchor="middle" x="552.79" y="-669.45" font-family="Times,serif" font-size="14.00">3,9 (Copper, molten &amp; plate)</text>
</g>
<!-- &#45;2,7 (item=borax Borax)&#45;&gt;3,9 (Copper, molten &amp; plate) -->
<g id="edge15" class="edge">
<title>&#45;2,7 (item=borax Borax)&#45;&gt;3,9 (Copper, molten &amp; plate)</title>
<path fill="none" stroke="black" stroke-width="2.58" d="M3363.79,-673.15C2894.36,-673.15 1224.13,-673.15 706.73,-673.15"/>
<polygon fill="black" stroke="black" stroke-width="2.58" points="706.58,-669.65 696.58,-673.15 706.58,-676.65 706.58,-669.65"/>
<text text-anchor="middle" x="1984.26" y="-676.95" font-family="Times,serif" font-size="14.00">borax*127840</text>
</g>
<!-- &#45;1,11 (Steel Plate (from molten)) -->
<g id="node10" class="node">
<title>&#45;1,11 (Steel Plate (from molten))</title>
<ellipse fill="none" stroke="black" cx="220.16" cy="-1249.28" rx="161.37" ry="18"/>
<text text-anchor="middle" x="220.16" y="-1245.58" font-family="Times,serif" font-size="14.00">&#45;1,11 (Steel Plate (from molten))</text>
</g>
<!-- &#45;2,7 (item=borax Borax)&#45;&gt;&#45;1,11 (Steel Plate (from molten)) -->
<g id="edge26" class="edge">
<title>&#45;2,7 (item=borax Borax)&#45;&gt;&#45;1,11 (Steel Plate (from molten))</title>
<path fill="none" stroke="black" stroke-width="1.52" d="M3408.81,-687.04C2967.27,-764.89 801.52,-1146.77 316.61,-1232.27"/>
<polygon fill="black" stroke="black" stroke-width="1.52" points="315.73,-1228.87 306.49,-1234.06 316.95,-1235.77 315.73,-1228.87"/>
<text text-anchor="middle" x="1816.21" y="-963.46" font-family="Times,serif" font-size="14.00">borax*75360</text>
</g>
<!-- 8,1 (Molten Copper) -->
<g id="node11" class="node">
<title>8,1 (Molten Copper)</title>
<ellipse fill="none" stroke="black" cx="104.64" cy="-1904.43" rx="104.78" ry="18"/>
<text text-anchor="middle" x="104.64" y="-1900.73" font-family="Times,serif" font-size="14.00">8,1 (Molten Copper)</text>
</g>
<!-- &#45;2,7 (item=borax Borax)&#45;&gt;8,1 (Molten Copper) -->
<g id="edge11" class="edge">
<title>&#45;2,7 (item=borax Borax)&#45;&gt;8,1 (Molten Copper)</title>
<path fill="none" stroke="black" stroke-width="0.39" d="M3441.34,-689.97C3068.93,-825.52 561.31,-1738.22 159.04,-1884.63"/>
<polygon fill="black" stroke="black" stroke-width="0.39" points="157.58,-1881.44 149.38,-1888.15 159.98,-1888.02 157.58,-1881.44"/>
<text text-anchor="middle" x="1753.69" y="-1291.1" font-family="Times,serif" font-size="14.00">borax*19200</text>
</g>
<!-- &#45;4,&#45;7 (Nexelit from raw) -->
<g id="node12" class="node">
<title>&#45;4,&#45;7 (Nexelit from raw)</title>
<ellipse fill="none" stroke="black" cx="220.16" cy="-2559.58" rx="120.48" ry="18"/>
<text text-anchor="middle" x="220.16" y="-2555.88" font-family="Times,serif" font-size="14.00">&#45;4,&#45;7 (Nexelit from raw)</text>
</g>
<!-- &#45;2,7 (item=borax Borax)&#45;&gt;&#45;4,&#45;7 (Nexelit from raw) -->
<g id="edge12" class="edge">
<title>&#45;2,7 (item=borax Borax)&#45;&gt;&#45;4,&#45;7 (Nexelit from raw)</title>
<path fill="none" stroke="black" stroke-width="0.2" d="M3457.3,-690.62C3150.41,-867.8 605.44,-2337.14 259.13,-2537.08"/>
<polygon fill="black" stroke="black" stroke-width="0.2" points="257.35,-2534.07 250.44,-2542.1 260.85,-2540.13 257.35,-2534.07"/>
<text text-anchor="middle" x="1811.71" y="-1617.65" font-family="Times,serif" font-size="14.00">borax*10080</text>
</g>
<!-- &#45;5,8 (Moar Molten Iron) -->
<g id="node13" class="node">
<title>&#45;5,8 (Moar Molten Iron)</title>
<ellipse fill="none" stroke="black" cx="552.79" cy="-3135.71" rx="120.48" ry="18"/>
<text text-anchor="middle" x="552.79" y="-3132.01" font-family="Times,serif" font-size="14.00">&#45;5,8 (Moar Molten Iron)</text>
</g>
<!-- &#45;2,7 (item=borax Borax)&#45;&gt;&#45;5,8 (Moar Molten Iron) -->
<g id="edge18" class="edge">
<title>&#45;2,7 (item=borax Borax)&#45;&gt;&#45;5,8 (Moar Molten Iron)</title>
<path fill="none" stroke="black" stroke-width="0.8" d="M3466.03,-691.21C3216.29,-900.77 871.79,-2868.04 582.1,-3111.12"/>
<polygon fill="black" stroke="black" stroke-width="0.8" points="579.55,-3108.69 574.14,-3117.8 584.05,-3114.05 579.55,-3108.69"/>
<text text-anchor="middle" x="1977.57" y="-1889.96" font-family="Times,serif" font-size="14.00">borax*39760</text>
</g>
<!-- &#45;2,9 (molten steel) -->
<g id="node14" class="node">
<title>&#45;2,9 (molten steel)</title>
<ellipse fill="none" stroke="black" cx="1062.41" cy="-3563.33" rx="95.58" ry="18"/>
<text text-anchor="middle" x="1062.41" y="-3559.63" font-family="Times,serif" font-size="14.00">&#45;2,9 (molten steel)</text>
</g>
<!-- &#45;2,7 (item=borax Borax)&#45;&gt;&#45;2,9 (molten steel) -->
<g id="edge25" class="edge">
<title>&#45;2,7 (item=borax Borax)&#45;&gt;&#45;2,9 (molten steel)</title>
<path fill="none" stroke="black" stroke-width="1.27" d="M3472.39,-691.23C3279.67,-920.9 1311.91,-3265.99 1083.91,-3537.7"/>
<polygon fill="black" stroke="black" stroke-width="1.27" points="1081.14,-3535.56 1077.39,-3545.47 1086.5,-3540.06 1081.14,-3535.56"/>
<text text-anchor="middle" x="2231.65" y="-2118.27" font-family="Times,serif" font-size="14.00">borax*63200</text>
</g>
<!-- 3,12 (reserved &#45; Candle, reserved &#45; Candle, reserved &#45; Candle) -->
<g id="node15" class="node">
<title>3,12 (reserved &#45; Candle, reserved &#45; Candle, reserved &#45; Candle)</title>
<ellipse fill="none" stroke="black" cx="1687.54" cy="-3790.86" rx="298.15" ry="18"/>
<text text-anchor="middle" x="1687.54" y="-3787.16" font-family="Times,serif" font-size="14.00">3,12 (reserved &#45; Candle, reserved &#45; Candle, reserved &#45; Candle)</text>
</g>
<!-- &#45;2,7 (item=borax Borax)&#45;&gt;3,12 (reserved &#45; Candle, reserved &#45; Candle, reserved &#45; Candle) -->
<g id="edge35" class="edge">
<title>&#45;2,7 (item=borax Borax)&#45;&gt;3,12 (reserved &#45; Candle, reserved &#45; Candle, reserved &#45; Candle)</title>
<path fill="none" stroke="black" stroke-width="0.05" d="M3476.99,-691.46C3337.96,-932.25 1871.67,-3471.95 1703.28,-3763.61"/>
<polygon fill="black" stroke="black" stroke-width="0.05" points="1700.01,-3762.27 1698.04,-3772.68 1706.08,-3765.77 1700.01,-3762.27"/>
<text text-anchor="middle" x="2548.13" y="-2231.34" font-family="Times,serif" font-size="14.00">borax*2480</text>
</g>
<!-- &#45;4,&#45;1 (fluid=boric&#45;acid Boron products) -->
<g id="node16" class="node">
<title>&#45;4,&#45;1 (fluid=boric&#45;acid Boron products)</title>
<ellipse fill="none" stroke="black" cx="2352.8" cy="-3790.86" rx="189.57" ry="18"/>
<text text-anchor="middle" x="2352.8" y="-3787.16" font-family="Times,serif" font-size="14.00">&#45;4,&#45;1 (fluid=boric&#45;acid Boron products)</text>
</g>
<!-- &#45;2,7 (item=borax Borax)&#45;&gt;&#45;4,&#45;1 (fluid=boric&#45;acid Boron products) -->
<g id="edge30" class="edge">
<title>&#45;2,7 (item=borax Borax)&#45;&gt;&#45;4,&#45;1 (fluid=boric&#45;acid Boron products)</title>
<path fill="none" stroke="black" stroke-width="0.31" d="M3480.89,-691.46C3393.29,-932.14 2469.79,-3469.44 2362.88,-3763.18"/>
<polygon fill="black" stroke="black" stroke-width="0.31" points="2359.55,-3762.08 2359.42,-3772.68 2366.13,-3764.48 2359.55,-3762.08"/>
<text text-anchor="middle" x="2875.39" y="-2231.12" font-family="Times,serif" font-size="14.00">borax*15600</text>
</g>
<!-- &#45;3,2 (Lead and Solder) -->
<g id="node17" class="node">
<title>&#45;3,2 (Lead and Solder)</title>
<ellipse fill="none" stroke="black" cx="3738.63" cy="-673.86" rx="113.98" ry="18"/>
<text text-anchor="middle" x="3738.63" y="-670.16" font-family="Times,serif" font-size="14.00">&#45;3,2 (Lead and Solder)</text>
</g>
<!-- &#45;2,7 (item=borax Borax)&#45;&gt;&#45;3,2 (Lead and Solder) -->
<g id="edge24" class="edge">
<title>&#45;2,7 (item=borax Borax)&#45;&gt;&#45;3,2 (Lead and Solder)</title>
<path fill="none" stroke="black" stroke-width="0.42" d="M3611.25,-673.5C3612.37,-673.5 3613.48,-673.51 3614.6,-673.51"/>
<polygon fill="black" stroke="black" stroke-width="0.42" points="3614.6,-677.01 3624.61,-673.54 3614.62,-670.01 3614.6,-677.01"/>
<text text-anchor="middle" x="3659.43" y="-677.31" font-family="Times,serif" font-size="14.00">borax*20800</text>
</g>
<!-- 2,10 (Nickel plate and Nichrome) -->
<g id="node18" class="node">
<title>2,10 (Nickel plate and Nichrome)</title>
<ellipse fill="none" stroke="black" cx="2977.94" cy="-3563.33" rx="165.17" ry="18"/>
<text text-anchor="middle" x="2977.94" y="-3559.63" font-family="Times,serif" font-size="14.00">2,10 (Nickel plate and Nichrome)</text>
</g>
<!-- &#45;2,7 (item=borax Borax)&#45;&gt;2,10 (Nickel plate and Nichrome) -->
<g id="edge28" class="edge">
<title>&#45;2,7 (item=borax Borax)&#45;&gt;2,10 (Nickel plate and Nichrome)</title>
<path fill="none" stroke="black" stroke-width="0.63" d="M3484.37,-691.23C3443.99,-920.21 3032.83,-3252.03 2982.9,-3535.22"/>
<polygon fill="black" stroke="black" stroke-width="0.63" points="2979.44,-3534.66 2981.15,-3545.12 2986.34,-3535.88 2979.44,-3534.66"/>
<text text-anchor="middle" x="3187.13" y="-2117.02" font-family="Times,serif" font-size="14.00">borax*31440</text>
</g>
<!-- 4,6 (Circuit substrate and Doped silicon) -->
<g id="node19" class="node">
<title>4,6 (Circuit substrate and Doped silicon)</title>
<ellipse fill="none" stroke="black" cx="3487.56" cy="-3135.71" rx="199.56" ry="18"/>
<text text-anchor="middle" x="3487.56" y="-3132.01" font-family="Times,serif" font-size="14.00">4,6 (Circuit substrate and Doped silicon)</text>
</g>
<!-- &#45;2,7 (item=borax Borax)&#45;&gt;4,6 (Circuit substrate and Doped silicon) -->
<g id="edge29" class="edge">
<title>&#45;2,7 (item=borax Borax)&#45;&gt;4,6 (Circuit substrate and Doped silicon)</title>
<path fill="none" stroke="black" stroke-width="0.04" d="M3487.56,-691.21C3487.56,-899.74 3487.56,-2848.6 3487.56,-3107.38"/>
<polygon fill="black" stroke="black" stroke-width="0.04" points="3484.06,-3107.47 3487.56,-3117.47 3491.06,-3107.47 3484.06,-3107.47"/>
<text text-anchor="middle" x="3445.56" y="-1903.09" font-family="Times,serif" font-size="14.00">borax*2080</text>
</g>
<!-- &#45;7,&#45;8 (Tin mk2) -->
<g id="node20" class="node">
<title>&#45;7,&#45;8 (Tin mk2)</title>
<ellipse fill="none" stroke="black" cx="3820.19" cy="-2559.58" rx="78.79" ry="18"/>
<text text-anchor="middle" x="3820.19" y="-2555.88" font-family="Times,serif" font-size="14.00">&#45;7,&#45;8 (Tin mk2)</text>
</g>
<!-- &#45;2,7 (item=borax Borax)&#45;&gt;&#45;7,&#45;8 (Tin mk2) -->
<g id="edge32" class="edge">
<title>&#45;2,7 (item=borax Borax)&#45;&gt;&#45;7,&#45;8 (Tin mk2)</title>
<path fill="none" stroke="black" stroke-width="0.56" d="M3490.74,-691.22C3522.17,-869.48 3776.45,-2311.55 3815.23,-2531.49"/>
<polygon fill="black" stroke="black" stroke-width="0.56" points="3811.83,-2532.34 3817.01,-2541.58 3818.72,-2531.12 3811.83,-2532.34"/>
<text text-anchor="middle" x="3606.49" y="-1615.16" font-family="Times,serif" font-size="14.00">borax*27680</text>
</g>
<!-- 4,0 (item=raw&#45;borax item=borax Borax and raw borax) -->
<g id="node4" class="node">
<title>4,0 (item=raw&#45;borax item=borax Borax and raw borax)</title>
<ellipse fill="none" stroke="black" cx="3935.71" cy="-1904.43" rx="268.35" ry="18"/>
<text text-anchor="middle" x="3935.71" y="-1900.73" font-family="Times,serif" font-size="14.00">4,0 (item=raw&#45;borax item=borax Borax and raw borax)</text>
</g>
<!-- 4,0 (item=raw&#45;borax item=borax Borax and raw borax)&#45;&gt;4,3 (item=nexelit&#45;plate Nexelit platery) -->
<g id="edge13" class="edge">
<title>4,0 (item=raw&#45;borax item=borax Borax and raw borax)&#45;&gt;4,3 (item=nexelit&#45;plate Nexelit platery)</title>
<path fill="none" stroke="black" stroke-width="0.17" d="M3925.28,-1886.37C3829.79,-1720.98 3108.22,-471.19 2993.34,-272.2"/>
<polygon fill="black" stroke="black" stroke-width="0.17" points="2996.36,-270.44 2988.33,-263.53 2990.3,-273.94 2996.36,-270.44"/>
<text text-anchor="middle" x="3417.31" y="-1083.08" font-family="Times,serif" font-size="14.00">borax*8480</text>
</g>
<!-- 4,0 (item=raw&#45;borax item=borax Borax and raw borax)&#45;&gt;&#45;6,8 (Copper plate duplicate) -->
<g id="edge3" class="edge">
<title>4,0 (item=raw&#45;borax item=borax Borax and raw borax)&#45;&gt;&#45;6,8 (Copper plate duplicate)</title>
<path fill="none" stroke="black" stroke-width="2.02" d="M3932.5,-1886.23C3916.43,-1795.12 3844.78,-1388.74 3825.16,-1277.51"/>
<polygon fill="black" stroke="black" stroke-width="2.02" points="3828.56,-1276.64 3823.38,-1267.4 3821.67,-1277.85 3828.56,-1276.64"/>
<text text-anchor="middle" x="3827.83" y="-1585.67" font-family="Times,serif" font-size="14.00">borax*100080</text>
</g>
<!-- 4,0 (item=raw&#45;borax item=borax Borax and raw borax)&#45;&gt;1,12 (Molten Iron) -->
<g id="edge9" class="edge">
<title>4,0 (item=raw&#45;borax item=borax Borax and raw borax)&#45;&gt;1,12 (Molten Iron)</title>
<path fill="none" stroke="black" stroke-width="3.09" d="M3920.55,-1886.37C3770.45,-1707.49 2552.5,-255.99 2374.48,-43.84"/>
<polygon fill="black" stroke="black" stroke-width="3.09" points="2377.02,-41.42 2367.91,-36.01 2371.66,-45.92 2377.02,-41.42"/>
<text text-anchor="middle" x="3096.52" y="-968.9" font-family="Times,serif" font-size="14.00">borax*153360</text>
</g>
<!-- 4,0 (item=raw&#45;borax item=borax Borax and raw borax)&#45;&gt;&#45;1,10 (Iron Plates) -->
<g id="edge5" class="edge">
<title>4,0 (item=raw&#45;borax item=borax Borax and raw borax)&#45;&gt;&#45;1,10 (Iron Plates)</title>
<path fill="none" stroke="black" stroke-width="1.92" d="M3914.18,-1886.37C3700.46,-1707.04 1962.52,-248.73 1716.47,-42.27"/>
<polygon fill="black" stroke="black" stroke-width="1.92" points="1718.58,-39.47 1708.67,-35.72 1714.08,-44.83 1718.58,-39.47"/>
<text text-anchor="middle" x="2768.82" y="-968.12" font-family="Times,serif" font-size="14.00">borax*95440</text>
</g>
<!-- 4,0 (item=raw&#45;borax item=borax Borax and raw borax)&#45;&gt;&#45;4,&#45;4 (Aluminium) -->
<g id="edge10" class="edge">
<title>4,0 (item=raw&#45;borax item=borax Borax and raw borax)&#45;&gt;&#45;4,&#45;4 (Aluminium)</title>
<path fill="none" stroke="black" stroke-width="1.4" d="M3904.42,-1886.37C3615.8,-1719.73 1420.55,-452.31 1101.13,-267.89"/>
<polygon fill="black" stroke="black" stroke-width="1.4" points="1102.64,-264.72 1092.23,-262.75 1099.14,-270.78 1102.64,-264.72"/>
<text text-anchor="middle" x="2456.27" y="-1080.93" font-family="Times,serif" font-size="14.00">borax*69360</text>
</g>
<!-- 4,0 (item=raw&#45;borax item=borax Borax and raw borax)&#45;&gt;3,9 (Copper, molten &amp; plate) -->
<g id="edge7" class="edge">
<title>4,0 (item=raw&#45;borax item=borax Borax and raw borax)&#45;&gt;3,9 (Copper, molten &amp; plate)</title>
<path fill="none" stroke="black" stroke-width="2" d="M3886.91,-1886.67C3506.28,-1748.13 1016.91,-842.08 609.23,-693.69"/>
<polygon fill="black" stroke="black" stroke-width="2" points="610.3,-690.36 599.71,-690.23 607.91,-696.94 610.3,-690.36"/>
<text text-anchor="middle" x="2201.57" y="-1293.98" font-family="Times,serif" font-size="14.00">borax*98960</text>
</g>
<!-- 4,0 (item=raw&#45;borax item=borax Borax and raw borax)&#45;&gt;&#45;1,11 (Steel Plate (from molten)) -->
<g id="edge8" class="edge">
<title>4,0 (item=raw&#45;borax item=borax Borax and raw borax)&#45;&gt;&#45;1,11 (Steel Plate (from molten))</title>
<path fill="none" stroke="black" stroke-width="1.65" d="M3840.13,-1887.58C3320.5,-1795.95 839.56,-1358.5 316.94,-1266.34"/>
<polygon fill="black" stroke="black" stroke-width="1.65" points="317.25,-1262.85 306.79,-1264.56 316.03,-1269.74 317.25,-1262.85"/>
<text text-anchor="middle" x="2032.03" y="-1580.76" font-family="Times,serif" font-size="14.00">borax*82080</text>
</g>
<!-- 4,0 (item=raw&#45;borax item=borax Borax and raw borax)&#45;&gt;8,1 (Molten Copper) -->
<g id="edge19" class="edge">
<title>4,0 (item=raw&#45;borax item=borax Borax and raw borax)&#45;&gt;8,1 (Molten Copper)</title>
<path fill="none" stroke="black" stroke-width="0.45" d="M3667.07,-1904.43C2903.65,-1904.43 742.77,-1904.43 219.7,-1904.43"/>
<polygon fill="black" stroke="black" stroke-width="0.45" points="219.51,-1900.93 209.51,-1904.43 219.51,-1907.93 219.51,-1900.93"/>
<text text-anchor="middle" x="1896.89" y="-1908.23" font-family="Times,serif" font-size="14.00">borax*22160</text>
</g>
<!-- 4,0 (item=raw&#45;borax item=borax Borax and raw borax)&#45;&gt;&#45;4,&#45;7 (Nexelit from raw) -->
<g id="edge23" class="edge">
<title>4,0 (item=raw&#45;borax item=borax Borax and raw borax)&#45;&gt;&#45;4,&#45;7 (Nexelit from raw)</title>
<path fill="none" stroke="black" stroke-width="0.41" d="M3840.13,-1921.28C3317.53,-2013.43 811.09,-2455.39 308.15,-2544.07"/>
<polygon fill="black" stroke="black" stroke-width="0.41" points="307.3,-2540.66 298.06,-2545.85 308.51,-2547.56 307.3,-2540.66"/>
<text text-anchor="middle" x="2027.64" y="-2236.48" font-family="Times,serif" font-size="14.00">borax*20160</text>
</g>
<!-- 4,0 (item=raw&#45;borax item=borax Borax and raw borax)&#45;&gt;&#45;5,8 (Moar Molten Iron) -->
<g id="edge14" class="edge">
<title>4,0 (item=raw&#45;borax item=borax Borax and raw borax)&#45;&gt;&#45;5,8 (Moar Molten Iron)</title>
<path fill="none" stroke="black" stroke-width="1.56" d="M3886.91,-1922.19C3505.98,-2060.84 1012.97,-2968.22 608.26,-3115.52"/>
<polygon fill="black" stroke="black" stroke-width="1.56" points="607.02,-3112.25 598.82,-3118.96 609.41,-3118.83 607.02,-3112.25"/>
<text text-anchor="middle" x="2201.08" y="-2522.66" font-family="Times,serif" font-size="14.00">borax*77600</text>
</g>
<!-- 4,0 (item=raw&#45;borax item=borax Borax and raw borax)&#45;&gt;&#45;2,9 (molten steel) -->
<g id="edge17" class="edge">
<title>4,0 (item=raw&#45;borax item=borax Borax and raw borax)&#45;&gt;&#45;2,9 (molten steel)</title>
<path fill="none" stroke="black" stroke-width="0.86" d="M3904.42,-1922.5C3615.8,-2089.13 1420.55,-3356.56 1101.13,-3540.98"/>
<polygon fill="black" stroke="black" stroke-width="0.86" points="1099.14,-3538.08 1092.23,-3546.12 1102.64,-3544.15 1099.14,-3538.08"/>
<text text-anchor="middle" x="2456.27" y="-2735.54" font-family="Times,serif" font-size="14.00">borax*42560</text>
</g>
<!-- 4,0 (item=raw&#45;borax item=borax Borax and raw borax)&#45;&gt;3,12 (reserved &#45; Candle, reserved &#45; Candle, reserved &#45; Candle) -->
<g id="edge20" class="edge">
<title>4,0 (item=raw&#45;borax item=borax Borax and raw borax)&#45;&gt;3,12 (reserved &#45; Candle, reserved &#45; Candle, reserved &#45; Candle)</title>
<path fill="none" stroke="black" stroke-width="0.17" d="M3914.18,-1922.5C3700.57,-2101.73 1964.32,-3558.62 1716.85,-3766.27"/>
<polygon fill="black" stroke="black" stroke-width="0.17" points="1714.41,-3763.75 1709,-3772.86 1718.91,-3769.11 1714.41,-3763.75"/>
<text text-anchor="middle" x="2773.52" y="-2848.18" font-family="Times,serif" font-size="14.00">borax*8560</text>
</g>
<!-- 4,0 (item=raw&#45;borax item=borax Borax and raw borax)&#45;&gt;&#45;4,&#45;1 (fluid=boric&#45;acid Boron products) -->
<g id="edge21" class="edge">
<title>4,0 (item=raw&#45;borax item=borax Borax and raw borax)&#45;&gt;&#45;4,&#45;1 (fluid=boric&#45;acid Boron products)</title>
<path fill="none" stroke="black" stroke-width="1.42" d="M3920.55,-1922.5C3770.45,-2101.38 2552.5,-3552.87 2374.48,-3765.02"/>
<polygon fill="black" stroke="black" stroke-width="1.42" points="2371.66,-3762.95 2367.91,-3772.86 2377.02,-3767.45 2371.66,-3762.95"/>
<text text-anchor="middle" x="3101.02" y="-2847.56" font-family="Times,serif" font-size="14.00">borax*70640</text>
</g>
<!-- 4,0 (item=raw&#45;borax item=borax Borax and raw borax)&#45;&gt;2,10 (Nickel plate and Nichrome) -->
<g id="edge27" class="edge">
<title>4,0 (item=raw&#45;borax item=borax Borax and raw borax)&#45;&gt;2,10 (Nickel plate and Nichrome)</title>
<path fill="none" stroke="black" stroke-width="0.57" d="M3925.28,-1922.5C3829.79,-2087.89 3108.22,-3337.67 2993.34,-3536.66"/>
<polygon fill="black" stroke="black" stroke-width="0.57" points="2990.3,-3534.92 2988.33,-3545.34 2996.36,-3538.42 2990.3,-3534.92"/>
<text text-anchor="middle" x="3412.81" y="-2733.38" font-family="Times,serif" font-size="14.00">borax*28160</text>
</g>
<!-- 4,0 (item=raw&#45;borax item=borax Borax and raw borax)&#45;&gt;4,6 (Circuit substrate and Doped silicon) -->
<g id="edge36" class="edge">
<title>4,0 (item=raw&#45;borax item=borax Borax and raw borax)&#45;&gt;4,6 (Circuit substrate and Doped silicon)</title>
<path fill="none" stroke="black" stroke-width="0.1" d="M3929.02,-1922.79C3878.63,-2061.24 3558.63,-2940.45 3497.6,-3108.11"/>
<polygon fill="black" stroke="black" stroke-width="0.1" points="3494.25,-3107.1 3494.12,-3117.69 3500.82,-3109.49 3494.25,-3107.1"/>
<text text-anchor="middle" x="3671.31" y="-2519.25" font-family="Times,serif" font-size="14.00">borax*4960</text>
</g>
<!-- 4,0 (item=raw&#45;borax item=borax Borax and raw borax)&#45;&gt;&#45;7,&#45;8 (Tin mk2) -->
<g id="edge31" class="edge">
<title>4,0 (item=raw&#45;borax item=borax Borax and raw borax)&#45;&gt;&#45;7,&#45;8 (Tin mk2)</title>
<path fill="none" stroke="black" stroke-width="0.92" d="M3932.5,-1922.64C3916.43,-2013.74 3844.78,-2420.12 3825.16,-2531.36"/>
<polygon fill="black" stroke="black" stroke-width="0.92" points="3821.67,-2531.01 3823.38,-2541.46 3828.56,-2532.22 3821.67,-2531.01"/>
<text text-anchor="middle" x="3832.33" y="-2230.8" font-family="Times,serif" font-size="14.00">borax*45440</text>
</g>
<!-- &#45;4,&#45;8 (item=silver&#45;plate Even even more silver?) -->
<g id="node21" class="node">
<title>&#45;4,&#45;8 (item=silver&#45;plate Even even more silver?)</title>
<ellipse fill="none" stroke="black" cx="4238.43" cy="-1796.98" rx="233.16" ry="18"/>
<text text-anchor="middle" x="4238.43" y="-1793.28" font-family="Times,serif" font-size="14.00">&#45;4,&#45;8 (item=silver&#45;plate Even even more silver?)</text>
</g>
<!-- 4,0 (item=raw&#45;borax item=borax Borax and raw borax)&#45;&gt;&#45;4,&#45;8 (item=silver&#45;plate Even even more silver?) -->
<g id="edge33" class="edge">
<title>4,0 (item=raw&#45;borax item=borax Borax and raw borax)&#45;&gt;&#45;4,&#45;8 (item=silver&#45;plate Even even more silver?)</title>
<path fill="none" stroke="black" stroke-width="0.16" d="M3985.7,-1886.69C4038.88,-1867.81 4122.96,-1837.97 4179.37,-1817.94"/>
<polygon fill="black" stroke="black" stroke-width="0.16" points="4180.62,-1821.21 4188.87,-1814.57 4178.28,-1814.62 4180.62,-1821.21"/>
<text text-anchor="middle" x="4040.53" y="-1856.12" font-family="Times,serif" font-size="14.00">borax*8080</text>
</g>
<!-- 0,0 (LE BUS) -->
<g id="node22" class="node">
<title>0,0 (LE BUS)</title>
<ellipse fill="none" stroke="black" cx="4224.72" cy="-2173.1" rx="71.49" ry="18"/>
<text text-anchor="middle" x="4224.72" y="-2169.4" font-family="Times,serif" font-size="14.00">0,0 (LE BUS)</text>
</g>
<!-- 4,0 (item=raw&#45;borax item=borax Borax and raw borax)&#45;&gt;0,0 (LE BUS) -->
<g id="edge34" class="edge">
<title>4,0 (item=raw&#45;borax item=borax Borax and raw borax)&#45;&gt;0,0 (LE BUS)</title>
<path fill="none" stroke="black" stroke-width="0.28" d="M3955.12,-1922.48C4005.53,-1969.33 4140.64,-2094.94 4198.19,-2148.43"/>
<polygon fill="black" stroke="black" stroke-width="0.28" points="4196.07,-2151.24 4205.77,-2155.49 4200.83,-2146.11 4196.07,-2151.24"/>
<text text-anchor="middle" x="4030.15" y="-2039.25" font-family="Times,serif" font-size="14.00">borax*13920</text>
</g>
</g>
</svg>
