<?xml version="1.0" encoding="UTF-8" standalone="no"?>
<!DOCTYPE svg PUBLIC "-//W3C//DTD SVG 1.1//EN"
 "http://www.w3.org/Graphics/SVG/1.1/DTD/svg11.dtd">
<!-- Generated by graphviz version 2.43.0 (0)
 -->
<!-- Title: %3 Pages: 1 -->
<svg width="1276pt" height="44pt"
 viewBox="0.00 0.00 1275.75 44.00" xmlns="http://www.w3.org/2000/svg" xmlns:xlink="http://www.w3.org/1999/xlink">
<g id="graph0" class="graph" transform="scale(1 1) rotate(0) translate(4 40)">
<title>%3</title>
<polygon fill="white" stroke="transparent" points="-4,4 -4,-40 1271.75,-40 1271.75,4 -4,4"/>
<!-- &#45;3,&#45;3 (Zinc Plates, 32 to consume four belts) -->
<g id="node1" class="node">
<title>&#45;3,&#45;3 (Zinc Plates, 32 to consume four belts)</title>
<ellipse fill="none" stroke="black" cx="684.9" cy="-18" rx="213.66" ry="18"/>
<text text-anchor="middle" x="684.9" y="-14.3" font-family="Times,serif" font-size="14.00">&#45;3,&#45;3 (Zinc Plates, 32 to consume four belts)</text>
</g>
<!-- 3,0 (Zinc Chloride) -->
<g id="node2" class="node">
<title>3,0 (Zinc Chloride)</title>
<ellipse fill="none" stroke="black" cx="1170.26" cy="-18" rx="97.48" ry="18"/>
<text text-anchor="middle" x="1170.26" y="-14.3" font-family="Times,serif" font-size="14.00">3,0 (Zinc Chloride)</text>
</g>
<!-- &#45;3,&#45;3 (Zinc Plates, 32 to consume four belts)&#45;&gt;3,0 (Zinc Chloride) -->
<g id="edge1" class="edge">
<title>&#45;3,&#45;3 (Zinc Plates, 32 to consume four belts)&#45;&gt;3,0 (Zinc Chloride)</title>
<path fill="none" stroke="black" stroke-width="1.49" d="M898.84,-18C955.43,-18 1014.13,-18 1062.41,-18"/>
<polygon fill="black" stroke="black" stroke-width="1.49" points="1062.54,-21.5 1072.54,-18 1062.54,-14.5 1062.54,-21.5"/>
<text text-anchor="middle" x="980.62" y="-6.8" font-family="Times,serif" font-size="14.00">zinc&#45;plate*175536</text>
</g>
<!-- 4,6 (Circuit substrate and Doped silicon) -->
<g id="node3" class="node">
<title>4,6 (Circuit substrate and Doped silicon)</title>
<ellipse fill="none" stroke="black" cx="199.53" cy="-18" rx="199.56" ry="18"/>
<text text-anchor="middle" x="199.53" y="-14.3" font-family="Times,serif" font-size="14.00">4,6 (Circuit substrate and Doped silicon)</text>
</g>
<!-- &#45;3,&#45;3 (Zinc Plates, 32 to consume four belts)&#45;&gt;4,6 (Circuit substrate and Doped silicon) -->
<g id="edge2" class="edge">
<title>&#45;3,&#45;3 (Zinc Plates, 32 to consume four belts)&#45;&gt;4,6 (Circuit substrate and Doped silicon)</title>
<path fill="none" stroke="black" stroke-width="0.51" d="M470.95,-18C450.42,-18 429.61,-18 409.12,-18"/>
<polygon fill="black" stroke="black" stroke-width="0.51" points="409.09,-14.5 399.09,-18 409.09,-21.5 409.09,-14.5"/>
<text text-anchor="middle" x="409.79" y="-6.8" font-family="Times,serif" font-size="14.00">zinc&#45;plate*60000</text>
</g>
</g>
</svg>
