<?xml version="1.0" encoding="UTF-8" standalone="no"?>
<!DOCTYPE svg PUBLIC "-//W3C//DTD SVG 1.1//EN"
 "http://www.w3.org/Graphics/SVG/1.1/DTD/svg11.dtd">
<!-- Generated by graphviz version 2.43.0 (0)
 -->
<!-- Title: %3 Pages: 1 -->
<svg width="2981pt" height="2156pt"
 viewBox="0.00 0.00 2980.96 2156.14" xmlns="http://www.w3.org/2000/svg" xmlns:xlink="http://www.w3.org/1999/xlink">
<g id="graph0" class="graph" transform="scale(1 1) rotate(0) translate(4 2152.14)">
<title>%3</title>
<polygon fill="white" stroke="transparent" points="-4,4 -4,-2152.14 2976.96,-2152.14 2976.96,4 -4,4"/>
<!-- 10,7 (Sulfur) -->
<g id="node1" class="node">
<title>10,7 (Sulfur)</title>
<ellipse fill="none" stroke="black" cx="355.37" cy="-1074.07" rx="69.59" ry="18"/>
<text text-anchor="middle" x="355.37" y="-1070.37" font-family="Times,serif" font-size="14.00">10,7 (Sulfur)</text>
</g>
<!-- &#45;5,2 (Optical fiber) -->
<g id="node2" class="node">
<title>&#45;5,2 (Optical fiber)</title>
<ellipse fill="none" stroke="black" cx="1411.45" cy="-18" rx="96.38" ry="18"/>
<text text-anchor="middle" x="1411.45" y="-14.3" font-family="Times,serif" font-size="14.00">&#45;5,2 (Optical fiber)</text>
</g>
<!-- 10,7 (Sulfur)&#45;&gt;&#45;5,2 (Optical fiber) -->
<g id="edge1" class="edge">
<title>10,7 (Sulfur)&#45;&gt;&#45;5,2 (Optical fiber)</title>
<path fill="none" stroke="black" stroke-width="0.59" d="M372.82,-1056.62C496.39,-933.06 1238.68,-190.76 1386.03,-43.42"/>
<polygon fill="black" stroke="black" stroke-width="0.59" points="1388.76,-45.63 1393.36,-36.09 1383.81,-40.68 1388.76,-45.63"/>
<text text-anchor="middle" x="832.43" y="-553.82" font-family="Times,serif" font-size="14.00">sulfur*28720</text>
</g>
<!-- 3,3 (Random electronic components, Small Parts) -->
<g id="node3" class="node">
<title>3,3 (Random electronic components, Small Parts)</title>
<ellipse fill="none" stroke="black" cx="2467.52" cy="-1074.07" rx="240.46" ry="18"/>
<text text-anchor="middle" x="2467.52" y="-1070.37" font-family="Times,serif" font-size="14.00">3,3 (Random electronic components, Small Parts)</text>
</g>
<!-- 10,7 (Sulfur)&#45;&gt;3,3 (Random electronic components, Small Parts) -->
<g id="edge2" class="edge">
<title>10,7 (Sulfur)&#45;&gt;3,3 (Random electronic components, Small Parts)</title>
<path fill="none" stroke="black" stroke-width="0.51" d="M425.05,-1074.07C702.18,-1074.07 1734.62,-1074.07 2216.64,-1074.07"/>
<polygon fill="black" stroke="black" stroke-width="0.51" points="2216.86,-1077.57 2226.86,-1074.07 2216.86,-1070.57 2216.86,-1077.57"/>
<text text-anchor="middle" x="1273.84" y="-1077.87" font-family="Times,serif" font-size="14.00">sulfur*24560</text>
</g>
<!-- 4,6 (Circuit substrate and Doped silicon) -->
<g id="node4" class="node">
<title>4,6 (Circuit substrate and Doped silicon)</title>
<ellipse fill="none" stroke="black" cx="2326.03" cy="-546.04" rx="199.56" ry="18"/>
<text text-anchor="middle" x="2326.03" y="-542.34" font-family="Times,serif" font-size="14.00">4,6 (Circuit substrate and Doped silicon)</text>
</g>
<!-- 10,7 (Sulfur)&#45;&gt;4,6 (Circuit substrate and Doped silicon) -->
<g id="edge3" class="edge">
<title>10,7 (Sulfur)&#45;&gt;4,6 (Circuit substrate and Doped silicon)</title>
<path fill="none" stroke="black" stroke-width="0.18" d="M404.09,-1061.02C668.6,-990.14 1932.2,-651.56 2252.23,-565.81"/>
<polygon fill="black" stroke="black" stroke-width="0.18" points="2253.57,-569.07 2262.32,-563.11 2251.76,-562.31 2253.57,-569.07"/>
<text text-anchor="middle" x="1285.66" y="-817.21" font-family="Times,serif" font-size="14.00">sulfur*8880</text>
</g>
<!-- 4,&#45;8 (REOOOOOOOOOOOOOO) -->
<g id="node6" class="node">
<title>4,&#45;8 (REOOOOOOOOOOOOOO)</title>
<ellipse fill="none" stroke="black" cx="883.41" cy="-159.49" rx="154.07" ry="18"/>
<text text-anchor="middle" x="883.41" y="-155.79" font-family="Times,serif" font-size="14.00">4,&#45;8 (REOOOOOOOOOOOOOO)</text>
</g>
<!-- 10,7 (Sulfur)&#45;&gt;4,&#45;8 (REOOOOOOOOOOOOOO) -->
<g id="edge10" class="edge">
<title>10,7 (Sulfur)&#45;&gt;4,&#45;8 (REOOOOOOOOOOOOOO)</title>
<path fill="none" stroke="black" stroke-width="1.61" d="M365.69,-1056.21C431.13,-942.85 788.49,-323.89 867.81,-186.51"/>
<polygon fill="black" stroke="black" stroke-width="1.61" points="871.06,-187.87 873.03,-177.46 865,-184.37 871.06,-187.87"/>
<text text-anchor="middle" x="569.75" y="-625.16" font-family="Times,serif" font-size="14.00">sulfur*77760</text>
</g>
<!-- &#45;1,7 (Rayon) -->
<g id="node7" class="node">
<title>&#45;1,7 (Rayon)</title>
<ellipse fill="none" stroke="black" cx="496.86" cy="-546.04" rx="66.89" ry="18"/>
<text text-anchor="middle" x="496.86" y="-542.34" font-family="Times,serif" font-size="14.00">&#45;1,7 (Rayon)</text>
</g>
<!-- 10,7 (Sulfur)&#45;&gt;&#45;1,7 (Rayon) -->
<g id="edge17" class="edge">
<title>10,7 (Sulfur)&#45;&gt;&#45;1,7 (Rayon)</title>
<path fill="none" stroke="black" stroke-width="1.57" d="M360.25,-1055.89C381.23,-977.59 463.99,-668.71 489.4,-573.87"/>
<polygon fill="black" stroke="black" stroke-width="1.57" points="492.8,-574.7 492.01,-564.14 486.04,-572.89 492.8,-574.7"/>
<text text-anchor="middle" x="377.82" y="-818.68" font-family="Times,serif" font-size="14.00">sulfur*76240</text>
</g>
<!-- &#45;7,&#45;2 (Uranium Processing) -->
<g id="node8" class="node">
<title>&#45;7,&#45;2 (Uranium Processing)</title>
<ellipse fill="none" stroke="black" cx="496.86" cy="-1602.11" rx="135.68" ry="18"/>
<text text-anchor="middle" x="496.86" y="-1598.41" font-family="Times,serif" font-size="14.00">&#45;7,&#45;2 (Uranium Processing)</text>
</g>
<!-- 10,7 (Sulfur)&#45;&gt;&#45;7,&#45;2 (Uranium Processing) -->
<g id="edge27" class="edge">
<title>10,7 (Sulfur)&#45;&gt;&#45;7,&#45;2 (Uranium Processing)</title>
<path fill="none" stroke="black" stroke-width="0.32" d="M360.25,-1092.25C381.23,-1170.55 463.99,-1479.44 489.4,-1574.27"/>
<polygon fill="black" stroke="black" stroke-width="0.32" points="486.04,-1575.25 492.01,-1584.01 492.8,-1573.44 486.04,-1575.25"/>
<text text-anchor="middle" x="377.82" y="-1337.06" font-family="Times,serif" font-size="14.00">sulfur*15280</text>
</g>
<!-- &#45;1,&#45;2 (Aramid fiber) -->
<g id="node9" class="node">
<title>&#45;1,&#45;2 (Aramid fiber)</title>
<ellipse fill="none" stroke="black" cx="883.41" cy="-1988.65" rx="99.38" ry="18"/>
<text text-anchor="middle" x="883.41" y="-1984.95" font-family="Times,serif" font-size="14.00">&#45;1,&#45;2 (Aramid fiber)</text>
</g>
<!-- 10,7 (Sulfur)&#45;&gt;&#45;1,&#45;2 (Aramid fiber) -->
<g id="edge26" class="edge">
<title>10,7 (Sulfur)&#45;&gt;&#45;1,&#45;2 (Aramid fiber)</title>
<path fill="none" stroke="black" stroke-width="0.06" d="M365.69,-1091.93C431.13,-1205.29 788.49,-1824.25 867.81,-1961.64"/>
<polygon fill="black" stroke="black" stroke-width="0.06" points="865,-1963.77 873.03,-1970.68 871.06,-1960.27 865,-1963.77"/>
<text text-anchor="middle" x="574.25" y="-1530.58" font-family="Times,serif" font-size="14.00">sulfur*2800</text>
</g>
<!-- 2,0 (Sodium Sulfate) -->
<g id="node11" class="node">
<title>2,0 (Sodium Sulfate)</title>
<ellipse fill="none" stroke="black" cx="1411.45" cy="-2130.14" rx="106.68" ry="18"/>
<text text-anchor="middle" x="1411.45" y="-2126.44" font-family="Times,serif" font-size="14.00">2,0 (Sodium Sulfate)</text>
</g>
<!-- 10,7 (Sulfur)&#45;&gt;2,0 (Sodium Sulfate) -->
<g id="edge20" class="edge">
<title>10,7 (Sulfur)&#45;&gt;2,0 (Sodium Sulfate)</title>
<path fill="none" stroke="black" stroke-width="4.24" d="M372.82,-1091.52C496.39,-1215.09 1238.68,-1957.38 1386.03,-2104.73"/>
<polygon fill="black" stroke="black" stroke-width="4.24" points="1383.66,-2107.61 1393.36,-2112.06 1388.92,-2102.36 1383.66,-2107.61"/>
<text text-anchor="middle" x="827.93" y="-1601.92" font-family="Times,serif" font-size="14.00">sulfur*205600</text>
</g>
<!-- 4,12 (Molten Glass) -->
<g id="node12" class="node">
<title>4,12 (Molten Glass)</title>
<ellipse fill="none" stroke="black" cx="1939.48" cy="-1988.65" rx="102.08" ry="18"/>
<text text-anchor="middle" x="1939.48" y="-1984.95" font-family="Times,serif" font-size="14.00">4,12 (Molten Glass)</text>
</g>
<!-- 10,7 (Sulfur)&#45;&gt;4,12 (Molten Glass) -->
<g id="edge29" class="edge">
<title>10,7 (Sulfur)&#45;&gt;4,12 (Molten Glass)</title>
<path fill="none" stroke="black" stroke-width="0.56" d="M383.88,-1090.53C575.85,-1201.36 1679.11,-1838.33 1900.72,-1966.27"/>
<polygon fill="black" stroke="black" stroke-width="0.56" points="1899.01,-1969.33 1909.42,-1971.3 1902.51,-1963.27 1899.01,-1969.33"/>
<text text-anchor="middle" x="1095.3" y="-1532.2" font-family="Times,serif" font-size="14.00">sulfur*26960</text>
</g>
<!-- 6,4 (Electronic components) -->
<g id="node13" class="node">
<title>6,4 (Electronic components)</title>
<ellipse fill="none" stroke="black" cx="141.69" cy="-1074.07" rx="141.88" ry="18"/>
<text text-anchor="middle" x="141.69" y="-1070.37" font-family="Times,serif" font-size="14.00">6,4 (Electronic components)</text>
</g>
<!-- 10,7 (Sulfur)&#45;&gt;6,4 (Electronic components) -->
<g id="edge18" class="edge">
<title>10,7 (Sulfur)&#45;&gt;6,4 (Electronic components)</title>
<path fill="none" stroke="black" stroke-width="0.21" d="M285.7,-1074.07C285.61,-1074.07 285.52,-1074.07 285.43,-1074.07"/>
<polygon fill="black" stroke="black" stroke-width="0.21" points="293.5,-1070.57 283.5,-1074.07 293.5,-1077.57 293.5,-1070.57"/>
<text text-anchor="middle" x="238.56" y="-1077.87" font-family="Times,serif" font-size="14.00">sulfur*10240</text>
</g>
<!-- &#45;2,&#45;11 (Sulfurest) -->
<g id="node5" class="node">
<title>&#45;2,&#45;11 (Sulfurest)</title>
<ellipse fill="none" stroke="black" cx="1939.48" cy="-159.49" rx="89.88" ry="18"/>
<text text-anchor="middle" x="1939.48" y="-155.79" font-family="Times,serif" font-size="14.00">&#45;2,&#45;11 (Sulfurest)</text>
</g>
<!-- &#45;2,&#45;11 (Sulfurest)&#45;&gt;&#45;5,2 (Optical fiber) -->
<g id="edge9" class="edge">
<title>&#45;2,&#45;11 (Sulfurest)&#45;&gt;&#45;5,2 (Optical fiber)</title>
<path fill="none" stroke="black" stroke-width="0.48" d="M1885.45,-145.01C1787.67,-118.81 1581.75,-63.63 1476.45,-35.42"/>
<polygon fill="black" stroke="black" stroke-width="0.48" points="1477.15,-31.98 1466.58,-32.77 1475.34,-38.74 1477.15,-31.98"/>
<text text-anchor="middle" x="1633.95" y="-94.01" font-family="Times,serif" font-size="14.00">sulfur*23440</text>
</g>
<!-- &#45;2,&#45;11 (Sulfurest)&#45;&gt;3,3 (Random electronic components, Small Parts) -->
<g id="edge14" class="edge">
<title>&#45;2,&#45;11 (Sulfurest)&#45;&gt;3,3 (Random electronic components, Small Parts)</title>
<path fill="none" stroke="black" stroke-width="1.91" d="M1950.03,-177.76C2016.1,-292.2 2372.74,-909.91 2451.93,-1047.08"/>
<polygon fill="black" stroke="black" stroke-width="1.91" points="2448.91,-1048.85 2456.94,-1055.76 2454.97,-1045.35 2448.91,-1048.85"/>
<text text-anchor="middle" x="2153.98" y="-616.22" font-family="Times,serif" font-size="14.00">sulfur*92560</text>
</g>
<!-- &#45;2,&#45;11 (Sulfurest)&#45;&gt;4,6 (Circuit substrate and Doped silicon) -->
<g id="edge28" class="edge">
<title>&#45;2,&#45;11 (Sulfurest)&#45;&gt;4,6 (Circuit substrate and Doped silicon)</title>
<path fill="none" stroke="black" stroke-width="0.09" d="M1957.35,-177.36C2019.67,-239.67 2227.56,-447.57 2300.48,-520.49"/>
<polygon fill="black" stroke="black" stroke-width="0.09" points="2298.36,-523.31 2307.9,-527.91 2303.31,-518.36 2298.36,-523.31"/>
<text text-anchor="middle" x="2086.42" y="-352.72" font-family="Times,serif" font-size="14.00">sulfur*4160</text>
</g>
<!-- &#45;2,&#45;11 (Sulfurest)&#45;&gt;4,&#45;8 (REOOOOOOOOOOOOOO) -->
<g id="edge4" class="edge">
<title>&#45;2,&#45;11 (Sulfurest)&#45;&gt;4,&#45;8 (REOOOOOOOOOOOOOO)</title>
<path fill="none" stroke="black" stroke-width="1.22" d="M1849.44,-159.49C1671.73,-159.49 1273.58,-159.49 1047.83,-159.49"/>
<polygon fill="black" stroke="black" stroke-width="1.22" points="1047.54,-155.99 1037.54,-159.49 1047.54,-162.99 1047.54,-155.99"/>
<text text-anchor="middle" x="1401.63" y="-163.29" font-family="Times,serif" font-size="14.00">sulfur*58960</text>
</g>
<!-- &#45;2,&#45;11 (Sulfurest)&#45;&gt;&#45;1,7 (Rayon) -->
<g id="edge5" class="edge">
<title>&#45;2,&#45;11 (Sulfurest)&#45;&gt;&#45;1,7 (Rayon)</title>
<path fill="none" stroke="black" stroke-width="1.76" d="M1885.56,-173.93C1659.26,-234.57 787.14,-468.26 554.29,-530.65"/>
<polygon fill="black" stroke="black" stroke-width="1.76" points="553.09,-527.35 544.33,-533.32 554.9,-534.11 553.09,-527.35"/>
<text text-anchor="middle" x="1172.93" y="-356.09" font-family="Times,serif" font-size="14.00">sulfur*85280</text>
</g>
<!-- &#45;2,&#45;11 (Sulfurest)&#45;&gt;&#45;7,&#45;2 (Uranium Processing) -->
<g id="edge6" class="edge">
<title>&#45;2,&#45;11 (Sulfurest)&#45;&gt;&#45;7,&#45;2 (Uranium Processing)</title>
<path fill="none" stroke="black" stroke-width="0.42" d="M1921.76,-177.21C1770.64,-328.33 699.59,-1399.37 521.83,-1577.14"/>
<polygon fill="black" stroke="black" stroke-width="0.42" points="519.33,-1574.69 514.73,-1584.24 524.28,-1579.64 519.33,-1574.69"/>
<text text-anchor="middle" x="1174.8" y="-880.97" font-family="Times,serif" font-size="14.00">sulfur*20400</text>
</g>
<!-- &#45;2,&#45;11 (Sulfurest)&#45;&gt;&#45;1,&#45;2 (Aramid fiber) -->
<g id="edge7" class="edge">
<title>&#45;2,&#45;11 (Sulfurest)&#45;&gt;&#45;1,&#45;2 (Aramid fiber)</title>
<path fill="none" stroke="black" stroke-width="0.31" d="M1929.03,-177.59C1827.71,-353.08 1021.27,-1749.88 898.94,-1961.76"/>
<polygon fill="black" stroke="black" stroke-width="0.31" points="895.76,-1960.27 893.79,-1970.68 901.82,-1963.77 895.76,-1960.27"/>
<text text-anchor="middle" x="1366.98" y="-1058.48" font-family="Times,serif" font-size="14.00">sulfur*14960</text>
</g>
<!-- &#45;2,&#45;11 (Sulfurest)&#45;&gt;2,0 (Sodium Sulfate) -->
<g id="edge13" class="edge">
<title>&#45;2,&#45;11 (Sulfurest)&#45;&gt;2,0 (Sodium Sulfate)</title>
<path fill="none" stroke="black" stroke-width="5.89" d="M1934.59,-177.74C1885.34,-361.55 1479.37,-1876.66 1418.95,-2102.13"/>
<polygon fill="black" stroke="black" stroke-width="5.89" points="1413.94,-2100.89 1416.34,-2111.88 1423.91,-2103.56 1413.94,-2100.89"/>
<text text-anchor="middle" x="1625.27" y="-1143.73" font-family="Times,serif" font-size="14.00">sulfur*285520</text>
</g>
<!-- &#45;2,&#45;11 (Sulfurest)&#45;&gt;4,12 (Molten Glass) -->
<g id="edge21" class="edge">
<title>&#45;2,&#45;11 (Sulfurest)&#45;&gt;4,12 (Molten Glass)</title>
<path fill="none" stroke="black" stroke-width="0.53" d="M1939.48,-177.59C1939.48,-352.65 1939.48,-1742.9 1939.48,-1960.15"/>
<polygon fill="black" stroke="black" stroke-width="0.53" points="1935.98,-1960.4 1939.48,-1970.4 1942.98,-1960.4 1935.98,-1960.4"/>
<text text-anchor="middle" x="1892.48" y="-1072.67" font-family="Times,serif" font-size="14.00">sulfur*25440</text>
</g>
<!-- &#45;3,&#45;12 (Sulfurer) -->
<g id="node10" class="node">
<title>&#45;3,&#45;12 (Sulfurer)</title>
<ellipse fill="none" stroke="black" cx="2326.03" cy="-1602.11" rx="85.29" ry="18"/>
<text text-anchor="middle" x="2326.03" y="-1598.41" font-family="Times,serif" font-size="14.00">&#45;3,&#45;12 (Sulfurer)</text>
</g>
<!-- &#45;3,&#45;12 (Sulfurer)&#45;&gt;&#45;5,2 (Optical fiber) -->
<g id="edge22" class="edge">
<title>&#45;3,&#45;12 (Sulfurer)&#45;&gt;&#45;5,2 (Optical fiber)</title>
<path fill="none" stroke="black" stroke-width="0.33" d="M2315.6,-1584.04C2222.78,-1423.27 1539.03,-238.98 1426.96,-44.88"/>
<polygon fill="black" stroke="black" stroke-width="0.33" points="1429.95,-43.06 1421.92,-36.15 1423.89,-46.56 1429.95,-43.06"/>
<text text-anchor="middle" x="1824.28" y="-818.26" font-family="Times,serif" font-size="14.00">sulfur*16160</text>
</g>
<!-- &#45;3,&#45;12 (Sulfurer)&#45;&gt;3,3 (Random electronic components, Small Parts) -->
<g id="edge16" class="edge">
<title>&#45;3,&#45;12 (Sulfurer)&#45;&gt;3,3 (Random electronic components, Small Parts)</title>
<path fill="none" stroke="black" stroke-width="0.3" d="M2330.9,-1583.93C2351.88,-1505.62 2434.65,-1196.74 2460.06,-1101.91"/>
<polygon fill="black" stroke="black" stroke-width="0.3" points="2463.46,-1102.74 2462.67,-1092.17 2456.7,-1100.92 2463.46,-1102.74"/>
<text text-anchor="middle" x="2348.48" y="-1346.72" font-family="Times,serif" font-size="14.00">sulfur*14400</text>
</g>
<!-- &#45;3,&#45;12 (Sulfurer)&#45;&gt;4,6 (Circuit substrate and Doped silicon) -->
<g id="edge23" class="edge">
<title>&#45;3,&#45;12 (Sulfurer)&#45;&gt;4,6 (Circuit substrate and Doped silicon)</title>
<path fill="none" stroke="black" stroke-width="0.04" d="M2326.03,-1583.78C2326.03,-1458.45 2326.03,-728.37 2326.03,-574.5"/>
<polygon fill="black" stroke="black" stroke-width="0.04" points="2329.53,-574.05 2326.03,-564.05 2322.53,-574.05 2329.53,-574.05"/>
<text text-anchor="middle" x="2283.53" y="-1082.94" font-family="Times,serif" font-size="14.00">sulfur*2080</text>
</g>
<!-- &#45;3,&#45;12 (Sulfurer)&#45;&gt;4,&#45;8 (REOOOOOOOOOOOOOO) -->
<g id="edge25" class="edge">
<title>&#45;3,&#45;12 (Sulfurer)&#45;&gt;4,&#45;8 (REOOOOOOOOOOOOOO)</title>
<path fill="none" stroke="black" stroke-width="0.6" d="M2308.31,-1584.39C2157.35,-1433.42 1088.39,-364.47 908.94,-185.02"/>
<polygon fill="black" stroke="black" stroke-width="0.6" points="911.31,-182.44 901.77,-177.84 906.36,-187.39 911.31,-182.44"/>
<text text-anchor="middle" x="1561.63" y="-888.5" font-family="Times,serif" font-size="14.00">sulfur*29200</text>
</g>
<!-- &#45;3,&#45;12 (Sulfurer)&#45;&gt;&#45;1,7 (Rayon) -->
<g id="edge12" class="edge">
<title>&#45;3,&#45;12 (Sulfurer)&#45;&gt;&#45;1,7 (Rayon)</title>
<path fill="none" stroke="black" stroke-width="2.8" d="M2296.56,-1585.09C2082.86,-1461.71 772.67,-705.27 534.11,-567.54"/>
<polygon fill="black" stroke="black" stroke-width="2.8" points="535.54,-564.33 525.13,-562.36 532.04,-570.39 535.54,-564.33"/>
<text text-anchor="middle" x="1466.84" y="-1080.12" font-family="Times,serif" font-size="14.00">sulfur*135760</text>
</g>
<!-- &#45;3,&#45;12 (Sulfurer)&#45;&gt;&#45;7,&#45;2 (Uranium Processing) -->
<g id="edge15" class="edge">
<title>&#45;3,&#45;12 (Sulfurer)&#45;&gt;&#45;7,&#45;2 (Uranium Processing)</title>
<path fill="none" stroke="black" stroke-width="0.21" d="M2240.87,-1602.11C1952.18,-1602.11 1008.42,-1602.11 643.11,-1602.11"/>
<polygon fill="black" stroke="black" stroke-width="0.21" points="643,-1598.61 633,-1602.11 643,-1605.61 643,-1598.61"/>
<text text-anchor="middle" x="1394.99" y="-1605.91" font-family="Times,serif" font-size="14.00">sulfur*10240</text>
</g>
<!-- &#45;3,&#45;12 (Sulfurer)&#45;&gt;&#45;1,&#45;2 (Aramid fiber) -->
<g id="edge19" class="edge">
<title>&#45;3,&#45;12 (Sulfurer)&#45;&gt;&#45;1,&#45;2 (Aramid fiber)</title>
<path fill="none" stroke="black" stroke-width="0.22" d="M2272.98,-1616.32C2050.61,-1675.9 1193.9,-1905.46 949.09,-1971.06"/>
<polygon fill="black" stroke="black" stroke-width="0.22" points="948.02,-1967.72 939.27,-1973.69 949.83,-1974.48 948.02,-1967.72"/>
<text text-anchor="middle" x="1564.03" y="-1797.49" font-family="Times,serif" font-size="14.00">sulfur*10800</text>
</g>
<!-- &#45;3,&#45;12 (Sulfurer)&#45;&gt;2,0 (Sodium Sulfate) -->
<g id="edge8" class="edge">
<title>&#45;3,&#45;12 (Sulfurer)&#45;&gt;2,0 (Sodium Sulfate)</title>
<path fill="none" stroke="black" stroke-width="1.67" d="M2296.64,-1619.08C2162.02,-1696.8 1604.35,-2018.77 1450.76,-2107.44"/>
<polygon fill="black" stroke="black" stroke-width="1.67" points="1448.56,-2104.67 1441.65,-2112.7 1452.06,-2110.73 1448.56,-2104.67"/>
<text text-anchor="middle" x="1826.7" y="-1867.06" font-family="Times,serif" font-size="14.00">sulfur*80720</text>
</g>
<!-- &#45;3,&#45;12 (Sulfurer)&#45;&gt;4,12 (Molten Glass) -->
<g id="edge11" class="edge">
<title>&#45;3,&#45;12 (Sulfurer)&#45;&gt;4,12 (Molten Glass)</title>
<path fill="none" stroke="black" stroke-width="0.8" d="M2308.42,-1619.72C2246.43,-1681.71 2038.15,-1889.98 1965.08,-1963.06"/>
<polygon fill="black" stroke="black" stroke-width="0.8" points="1962.24,-1960.94 1957.64,-1970.49 1967.19,-1965.89 1962.24,-1960.94"/>
<text text-anchor="middle" x="2089.75" y="-1795.19" font-family="Times,serif" font-size="14.00">sulfur*38640</text>
</g>
<!-- &#45;3,0 (item=lab&#45;instrument Laboratory instruments, Lead Mining) -->
<g id="node15" class="node">
<title>&#45;3,0 (item=lab&#45;instrument Laboratory instruments, Lead Mining)</title>
<ellipse fill="none" stroke="black" cx="2659.69" cy="-1794.74" rx="313.04" ry="18"/>
<text text-anchor="middle" x="2659.69" y="-1791.04" font-family="Times,serif" font-size="14.00">&#45;3,0 (item=lab&#45;instrument Laboratory instruments, Lead Mining)</text>
</g>
<!-- &#45;3,&#45;12 (Sulfurer)&#45;&gt;&#45;3,0 (item=lab&#45;instrument Laboratory instruments, Lead Mining) -->
<g id="edge30" class="edge">
<title>&#45;3,&#45;12 (Sulfurer)&#45;&gt;&#45;3,0 (item=lab&#45;instrument Laboratory instruments, Lead Mining)</title>
<path fill="none" stroke="black" stroke-width="0.52" d="M2355.35,-1619.03C2415.31,-1653.65 2552.02,-1732.58 2619.91,-1771.78"/>
<polygon fill="black" stroke="black" stroke-width="0.52" points="2618.21,-1774.84 2628.62,-1776.81 2621.71,-1768.78 2618.21,-1774.84"/>
<text text-anchor="middle" x="2440.63" y="-1699.2" font-family="Times,serif" font-size="14.00">sulfur*25040</text>
</g>
<!-- 5,&#45;2 (Lubricant) -->
<g id="node14" class="node">
<title>5,&#45;2 (Lubricant)</title>
<ellipse fill="none" stroke="black" cx="2622.71" cy="-1074.07" rx="83.39" ry="18"/>
<text text-anchor="middle" x="2622.71" y="-1070.37" font-family="Times,serif" font-size="14.00">5,&#45;2 (Lubricant)</text>
</g>
<!-- 5,&#45;2 (Lubricant)&#45;&gt;3,3 (Random electronic components, Small Parts) -->
<g id="edge24" class="edge">
<title>5,&#45;2 (Lubricant)&#45;&gt;3,3 (Random electronic components, Small Parts)</title>
<path fill="none" stroke="black" stroke-width="0.05" d="M2539.21,-1074.07C2539.14,-1074.07 2539.06,-1074.07 2538.99,-1074.07"/>
<polygon fill="black" stroke="black" stroke-width="0.05" points="2548.78,-1070.58 2538.78,-1074.07 2548.77,-1077.58 2548.78,-1070.58"/>
<text text-anchor="middle" x="2496.6" y="-1077.87" font-family="Times,serif" font-size="14.00">sulfur*2400</text>
</g>
</g>
</svg>
