<?xml version="1.0" encoding="UTF-8" standalone="no"?>
<!DOCTYPE svg PUBLIC "-//W3C//DTD SVG 1.1//EN"
 "http://www.w3.org/Graphics/SVG/1.1/DTD/svg11.dtd">
<!-- Generated by graphviz version 2.43.0 (0)
 -->
<!-- Title: %3 Pages: 1 -->
<svg width="2010pt" height="1728pt"
 viewBox="0.00 0.00 2010.45 1727.82" xmlns="http://www.w3.org/2000/svg" xmlns:xlink="http://www.w3.org/1999/xlink">
<g id="graph0" class="graph" transform="scale(1 1) rotate(0) translate(4 1723.82)">
<title>%3</title>
<polygon fill="white" stroke="transparent" points="-4,4 -4,-1723.82 2006.45,-1723.82 2006.45,4 -4,4"/>
<!-- 1,6 (Sodium Hydroxide, These new bullets are fun, Limestone) -->
<g id="node1" class="node">
<title>1,6 (Sodium Hydroxide, These new bullets are fun, Limestone)</title>
<ellipse fill="none" stroke="black" cx="301.57" cy="-1077.67" rx="301.65" ry="18"/>
<text text-anchor="middle" x="301.57" y="-1073.97" font-family="Times,serif" font-size="14.00">1,6 (Sodium Hydroxide, These new bullets are fun, Limestone)</text>
</g>
<!-- 4,1 (item=filtration&#45;media Filtration Media) -->
<g id="node2" class="node">
<title>4,1 (item=filtration&#45;media Filtration Media)</title>
<ellipse fill="none" stroke="black" cx="1448.23" cy="-163.24" rx="214.46" ry="18"/>
<text text-anchor="middle" x="1448.23" y="-159.54" font-family="Times,serif" font-size="14.00">4,1 (item=filtration&#45;media Filtration Media)</text>
</g>
<!-- 1,6 (Sodium Hydroxide, These new bullets are fun, Limestone)&#45;&gt;4,1 (item=filtration&#45;media Filtration Media) -->
<g id="edge1" class="edge">
<title>1,6 (Sodium Hydroxide, These new bullets are fun, Limestone)&#45;&gt;4,1 (item=filtration&#45;media Filtration Media)</title>
<path fill="none" stroke="black" stroke-width="0.68" d="M324.22,-1059.61C467.88,-945.04 1251.64,-320.01 1417.42,-187.81"/>
<polygon fill="black" stroke="black" stroke-width="0.68" points="1420.08,-190.16 1425.71,-181.19 1415.71,-184.69 1420.08,-190.16"/>
<text text-anchor="middle" x="785.32" y="-627.51" font-family="Times,serif" font-size="14.00">sodium&#45;hydroxide*5182</text>
</g>
<!-- 1,7 (Activated Carbon) -->
<g id="node4" class="node">
<title>1,7 (Activated Carbon)</title>
<ellipse fill="none" stroke="black" cx="811.88" cy="-1484.62" rx="115.88" ry="18"/>
<text text-anchor="middle" x="811.88" y="-1480.92" font-family="Times,serif" font-size="14.00">1,7 (Activated Carbon)</text>
</g>
<!-- 1,6 (Sodium Hydroxide, These new bullets are fun, Limestone)&#45;&gt;1,7 (Activated Carbon) -->
<g id="edge13" class="edge">
<title>1,6 (Sodium Hydroxide, These new bullets are fun, Limestone)&#45;&gt;1,7 (Activated Carbon)</title>
<path fill="none" stroke="black" stroke-width="0.47" d="M324.16,-1095.68C406.17,-1161.08 688.3,-1386.07 781.63,-1460.5"/>
<polygon fill="black" stroke="black" stroke-width="0.47" points="779.56,-1463.32 789.56,-1466.82 783.92,-1457.85 779.56,-1463.32"/>
<text text-anchor="middle" x="467.4" y="-1281.89" font-family="Times,serif" font-size="14.00">sodium&#45;hydroxide*3568</text>
</g>
<!-- 7,1 (item=aerogel item=clean&#45;rf&#45;gel Aerogel) -->
<g id="node5" class="node">
<title>7,1 (item=aerogel item=clean&#45;rf&#45;gel Aerogel)</title>
<ellipse fill="none" stroke="black" cx="301.57" cy="-424.96" rx="220.96" ry="18"/>
<text text-anchor="middle" x="301.57" y="-421.26" font-family="Times,serif" font-size="14.00">7,1 (item=aerogel item=clean&#45;rf&#45;gel Aerogel)</text>
</g>
<!-- 1,6 (Sodium Hydroxide, These new bullets are fun, Limestone)&#45;&gt;7,1 (item=aerogel item=clean&#45;rf&#45;gel Aerogel) -->
<g id="edge3" class="edge">
<title>1,6 (Sodium Hydroxide, These new bullets are fun, Limestone)&#45;&gt;7,1 (item=aerogel item=clean&#45;rf&#45;gel Aerogel)</title>
<path fill="none" stroke="black" stroke-width="0.89" d="M301.57,-1059.53C301.57,-968.77 301.57,-563.9 301.57,-453.08"/>
<polygon fill="black" stroke="black" stroke-width="0.89" points="305.07,-453.01 301.57,-443.01 298.07,-453.01 305.07,-453.01"/>
<text text-anchor="middle" x="216.07" y="-760.1" font-family="Times,serif" font-size="14.00">sodium&#45;hydroxide*6800</text>
</g>
<!-- &#45;3,1 (Logistic science pack, Automation Science) -->
<g id="node6" class="node">
<title>&#45;3,1 (Logistic science pack, Automation Science)</title>
<ellipse fill="none" stroke="black" cx="1448.23" cy="-1339.38" rx="233.96" ry="18"/>
<text text-anchor="middle" x="1448.23" y="-1335.68" font-family="Times,serif" font-size="14.00">&#45;3,1 (Logistic science pack, Automation Science)</text>
</g>
<!-- 1,6 (Sodium Hydroxide, These new bullets are fun, Limestone)&#45;&gt;&#45;3,1 (Logistic science pack, Automation Science) -->
<g id="edge12" class="edge">
<title>1,6 (Sodium Hydroxide, These new bullets are fun, Limestone)&#45;&gt;&#45;3,1 (Logistic science pack, Automation Science)</title>
<path fill="none" stroke="black" stroke-width="0.13" d="M378.14,-1095.14C583.99,-1142.13 1148.21,-1270.91 1363.35,-1320.01"/>
<polygon fill="black" stroke="black" stroke-width="0.13" points="1362.8,-1323.48 1373.33,-1322.29 1364.36,-1316.65 1362.8,-1323.48"/>
<text text-anchor="middle" x="785.25" y="-1211.38" font-family="Times,serif" font-size="14.00">sodium&#45;hydroxide*1008</text>
</g>
<!-- 4,2 (More fiberboard) -->
<g id="node8" class="node">
<title>4,2 (More fiberboard)</title>
<ellipse fill="none" stroke="black" cx="136.57" cy="-1157.13" rx="111.28" ry="18"/>
<text text-anchor="middle" x="136.57" y="-1153.43" font-family="Times,serif" font-size="14.00">4,2 (More fiberboard)</text>
</g>
<!-- 1,6 (Sodium Hydroxide, These new bullets are fun, Limestone)&#45;&gt;4,2 (More fiberboard) -->
<g id="edge7" class="edge">
<title>1,6 (Sodium Hydroxide, These new bullets are fun, Limestone)&#45;&gt;4,2 (More fiberboard)</title>
<path fill="none" stroke="black" stroke-width="0.3" d="M264.13,-1095.7C239.57,-1107.52 207.33,-1123.05 181.41,-1135.54"/>
<polygon fill="black" stroke="black" stroke-width="0.3" points="179.66,-1132.49 172.17,-1139.99 182.69,-1138.8 179.66,-1132.49"/>
<text text-anchor="middle" x="137.27" y="-1119.42" font-family="Times,serif" font-size="14.00">sodium&#45;hydroxide*2256</text>
</g>
<!-- 4,4 (Hydrogen Chloride, item=nylon Nylon/Nylon parts) -->
<g id="node3" class="node">
<title>4,4 (Hydrogen Chloride, item=nylon Nylon/Nylon parts)</title>
<ellipse fill="none" stroke="black" cx="1731.43" cy="-751.31" rx="271.05" ry="18"/>
<text text-anchor="middle" x="1731.43" y="-747.61" font-family="Times,serif" font-size="14.00">4,4 (Hydrogen Chloride, item=nylon Nylon/Nylon parts)</text>
</g>
<!-- 4,4 (Hydrogen Chloride, item=nylon Nylon/Nylon parts)&#45;&gt;4,1 (item=filtration&#45;media Filtration Media) -->
<g id="edge6" class="edge">
<title>4,4 (Hydrogen Chloride, item=nylon Nylon/Nylon parts)&#45;&gt;4,1 (item=filtration&#45;media Filtration Media)</title>
<path fill="none" stroke="black" stroke-width="1.99" d="M1722.64,-733.07C1681.8,-648.26 1510.44,-292.43 1461.39,-190.58"/>
<polygon fill="black" stroke="black" stroke-width="1.99" points="1464.4,-188.76 1456.91,-181.27 1458.09,-191.8 1464.4,-188.76"/>
<text text-anchor="middle" x="1502.02" y="-465.63" font-family="Times,serif" font-size="14.00">sodium&#45;hydroxide*15216</text>
</g>
<!-- 4,4 (Hydrogen Chloride, item=nylon Nylon/Nylon parts)&#45;&gt;1,7 (Activated Carbon) -->
<g id="edge2" class="edge">
<title>4,4 (Hydrogen Chloride, item=nylon Nylon/Nylon parts)&#45;&gt;1,7 (Activated Carbon)</title>
<path fill="none" stroke="black" stroke-width="3.96" d="M1708.7,-769.44C1584.09,-868.8 984.39,-1347.05 842.17,-1460.47"/>
<polygon fill="black" stroke="black" stroke-width="3.96" points="839.86,-1457.83 834.23,-1466.8 844.23,-1463.31 839.86,-1457.83"/>
<text text-anchor="middle" x="1185.43" y="-1118.75" font-family="Times,serif" font-size="14.00">sodium&#45;hydroxide*30253</text>
</g>
<!-- 4,4 (Hydrogen Chloride, item=nylon Nylon/Nylon parts)&#45;&gt;7,1 (item=aerogel item=clean&#45;rf&#45;gel Aerogel) -->
<g id="edge9" class="edge">
<title>4,4 (Hydrogen Chloride, item=nylon Nylon/Nylon parts)&#45;&gt;7,1 (item=aerogel item=clean&#45;rf&#45;gel Aerogel)</title>
<path fill="none" stroke="black" stroke-width="1" d="M1655.56,-734C1410.71,-678.11 642.55,-502.78 385.97,-444.22"/>
<polygon fill="black" stroke="black" stroke-width="1" points="386.49,-440.75 375.96,-441.94 384.93,-447.57 386.49,-440.75"/>
<text text-anchor="middle" x="935.27" y="-592.91" font-family="Times,serif" font-size="14.00">sodium&#45;hydroxide*7632</text>
</g>
<!-- 4,4 (Hydrogen Chloride, item=nylon Nylon/Nylon parts)&#45;&gt;&#45;3,1 (Logistic science pack, Automation Science) -->
<g id="edge4" class="edge">
<title>4,4 (Hydrogen Chloride, item=nylon Nylon/Nylon parts)&#45;&gt;&#45;3,1 (Logistic science pack, Automation Science)</title>
<path fill="none" stroke="black" stroke-width="0.13" d="M1722.64,-769.56C1681.8,-854.36 1510.44,-1210.19 1461.39,-1312.04"/>
<polygon fill="black" stroke="black" stroke-width="0.13" points="1458.09,-1310.82 1456.91,-1321.35 1464.4,-1313.86 1458.09,-1310.82"/>
<text text-anchor="middle" x="1506.52" y="-1044.6" font-family="Times,serif" font-size="14.00">sodium&#45;hydroxide*1008</text>
</g>
<!-- 4,12 (Molten Glass) -->
<g id="node7" class="node">
<title>4,12 (Molten Glass)</title>
<ellipse fill="none" stroke="black" cx="1899.24" cy="-644.06" rx="102.08" ry="18"/>
<text text-anchor="middle" x="1899.24" y="-640.36" font-family="Times,serif" font-size="14.00">4,12 (Molten Glass)</text>
</g>
<!-- 4,4 (Hydrogen Chloride, item=nylon Nylon/Nylon parts)&#45;&gt;4,12 (Molten Glass) -->
<g id="edge5" class="edge">
<title>4,4 (Hydrogen Chloride, item=nylon Nylon/Nylon parts)&#45;&gt;4,12 (Molten Glass)</title>
<path fill="none" stroke="black" stroke-width="0.99" d="M1759.51,-733.36C1787.96,-715.18 1832.08,-686.98 1863.11,-667.15"/>
<polygon fill="black" stroke="black" stroke-width="0.99" points="1865.35,-669.87 1871.89,-661.54 1861.58,-663.97 1865.35,-669.87"/>
<text text-anchor="middle" x="1725.81" y="-704.05" font-family="Times,serif" font-size="14.00">sodium&#45;hydroxide*7600</text>
</g>
<!-- 0,0 (LE BUS) -->
<g id="node10" class="node">
<title>0,0 (LE BUS)</title>
<ellipse fill="none" stroke="black" cx="1895.2" cy="-888.84" rx="71.49" ry="18"/>
<text text-anchor="middle" x="1895.2" y="-885.14" font-family="Times,serif" font-size="14.00">0,0 (LE BUS)</text>
</g>
<!-- 4,4 (Hydrogen Chloride, item=nylon Nylon/Nylon parts)&#45;&gt;0,0 (LE BUS) -->
<g id="edge10" class="edge">
<title>4,4 (Hydrogen Chloride, item=nylon Nylon/Nylon parts)&#45;&gt;0,0 (LE BUS)</title>
<path fill="none" stroke="black" stroke-width="0.27" d="M1752.84,-769.29C1782.01,-793.79 1834.33,-837.72 1866.77,-864.96"/>
<polygon fill="black" stroke="black" stroke-width="0.27" points="1864.65,-867.76 1874.56,-871.51 1869.15,-862.4 1864.65,-867.76"/>
<text text-anchor="middle" x="1724.3" y="-820.93" font-family="Times,serif" font-size="14.00">sodium&#45;hydroxide*2032</text>
</g>
<!-- 3,11 (Sap, Sodium Hydroxide) -->
<g id="node9" class="node">
<title>3,11 (Sap, Sodium Hydroxide)</title>
<ellipse fill="none" stroke="black" cx="762.31" cy="-1701.82" rx="150.57" ry="18"/>
<text text-anchor="middle" x="762.31" y="-1698.12" font-family="Times,serif" font-size="14.00">3,11 (Sap, Sodium Hydroxide)</text>
</g>
<!-- 3,11 (Sap, Sodium Hydroxide)&#45;&gt;1,7 (Activated Carbon) -->
<g id="edge8" class="edge">
<title>3,11 (Sap, Sodium Hydroxide)&#45;&gt;1,7 (Activated Carbon)</title>
<path fill="none" stroke="black" stroke-width="1.05" d="M766.45,-1683.68C775.09,-1645.83 795.08,-1558.22 805.43,-1512.9"/>
<polygon fill="black" stroke="black" stroke-width="1.05" points="808.9,-1513.4 807.72,-1502.87 802.08,-1511.84 808.9,-1513.4"/>
<text text-anchor="middle" x="700.44" y="-1602.09" font-family="Times,serif" font-size="14.00">sodium&#45;hydroxide*8000</text>
</g>
<!-- &#45;5,2 (Optical fiber) -->
<g id="node11" class="node">
<title>&#45;5,2 (Optical fiber)</title>
<ellipse fill="none" stroke="black" cx="811.88" cy="-18" rx="96.38" ry="18"/>
<text text-anchor="middle" x="811.88" y="-14.3" font-family="Times,serif" font-size="14.00">&#45;5,2 (Optical fiber)</text>
</g>
<!-- &#45;5,2 (Optical fiber)&#45;&gt;4,1 (item=filtration&#45;media Filtration Media) -->
<g id="edge14" class="edge">
<title>&#45;5,2 (Optical fiber)&#45;&gt;4,1 (item=filtration&#45;media Filtration Media)</title>
<path fill="none" stroke="black" stroke-width="1.01" d="M872.9,-31.93C987.27,-58.03 1234.06,-114.36 1364.11,-144.04"/>
<polygon fill="black" stroke="black" stroke-width="1.01" points="1363.51,-147.5 1374.04,-146.31 1365.07,-140.67 1363.51,-147.5"/>
<text text-anchor="middle" x="1033.01" y="-91.78" font-family="Times,serif" font-size="14.00">sodium&#45;hydroxide*7712</text>
</g>
<!-- &#45;5,2 (Optical fiber)&#45;&gt;7,1 (item=aerogel item=clean&#45;rf&#45;gel Aerogel) -->
<g id="edge11" class="edge">
<title>&#45;5,2 (Optical fiber)&#45;&gt;7,1 (item=aerogel item=clean&#45;rf&#45;gel Aerogel)</title>
<path fill="none" stroke="black" stroke-width="1.15" d="M789.63,-35.75C708.16,-100.72 426.06,-325.68 332.21,-400.53"/>
<polygon fill="black" stroke="black" stroke-width="1.15" points="329.87,-397.91 324.24,-406.89 334.24,-403.39 329.87,-397.91"/>
<text text-anchor="middle" x="475.42" y="-221.94" font-family="Times,serif" font-size="14.00">sodium&#45;hydroxide*8784</text>
</g>
</g>
</svg>
