<?xml version="1.0" encoding="UTF-8" standalone="no"?>
<!DOCTYPE svg PUBLIC "-//W3C//DTD SVG 1.1//EN"
 "http://www.w3.org/Graphics/SVG/1.1/DTD/svg11.dtd">
<!-- Generated by graphviz version 2.43.0 (0)
 -->
<!-- Title: %3 Pages: 1 -->
<svg width="1414pt" height="632pt"
 viewBox="0.00 0.00 1414.33 632.19" xmlns="http://www.w3.org/2000/svg" xmlns:xlink="http://www.w3.org/1999/xlink">
<g id="graph0" class="graph" transform="scale(1 1) rotate(0) translate(4 628.19)">
<title>%3</title>
<polygon fill="white" stroke="transparent" points="-4,4 -4,-628.19 1410.33,-628.19 1410.33,4 -4,4"/>
<!-- 10,5 () -->
<g id="node1" class="node">
<title>10,5 ()</title>
<ellipse fill="none" stroke="black" cx="683.08" cy="-312.1" rx="40.89" ry="18"/>
<text text-anchor="middle" x="683.08" y="-308.4" font-family="Times,serif" font-size="14.00">10,5 ()</text>
</g>
<!-- 2,8 (Graphite) -->
<g id="node2" class="node">
<title>2,8 (Graphite)</title>
<ellipse fill="none" stroke="black" cx="388.99" cy="-18" rx="76.09" ry="18"/>
<text text-anchor="middle" x="388.99" y="-14.3" font-family="Times,serif" font-size="14.00">2,8 (Graphite)</text>
</g>
<!-- 10,5 ()&#45;&gt;2,8 (Graphite) -->
<g id="edge1" class="edge">
<title>10,5 ()&#45;&gt;2,8 (Graphite)</title>
<path fill="none" stroke="black" stroke-width="1.6" d="M666.43,-295.44C617.24,-246.25 472.39,-101.4 413.9,-42.91"/>
<polygon fill="black" stroke="black" stroke-width="1.6" points="416.11,-40.17 406.56,-35.58 411.16,-45.12 416.11,-40.17"/>
<text text-anchor="middle" x="475.17" y="-172.98" font-family="Times,serif" font-size="14.00">raw&#45;coal*1110960</text>
</g>
<!-- &#45;5,&#45;1 (Coal and Coke and Syngas and Ash and Coke Oven Gas and...) -->
<g id="node3" class="node">
<title>&#45;5,&#45;1 (Coal and Coke and Syngas and Ash and Coke Oven Gas and...)</title>
<ellipse fill="none" stroke="black" cx="1080.71" cy="-312.1" rx="325.74" ry="18"/>
<text text-anchor="middle" x="1080.71" y="-308.4" font-family="Times,serif" font-size="14.00">&#45;5,&#45;1 (Coal and Coke and Syngas and Ash and Coke Oven Gas and...)</text>
</g>
<!-- 10,5 ()&#45;&gt;&#45;5,&#45;1 (Coal and Coke and Syngas and Ash and Coke Oven Gas and...) -->
<g id="edge2" class="edge">
<title>10,5 ()&#45;&gt;&#45;5,&#45;1 (Coal and Coke and Syngas and Ash and Coke Oven Gas and...)</title>
<path fill="none" stroke="black" stroke-width="1.18" d="M724.14,-312.1C730.49,-312.1 737.43,-312.1 744.87,-312.1"/>
<polygon fill="black" stroke="black" stroke-width="1.18" points="744.94,-315.6 754.94,-312.1 744.94,-308.6 744.94,-315.6"/>
<text text-anchor="middle" x="674.01" y="-315.9" font-family="Times,serif" font-size="14.00">raw&#45;coal*818640</text>
</g>
<!-- 3,&#45;2 (Steam for tin, Coke from raw coal) -->
<g id="node4" class="node">
<title>3,&#45;2 (Steam for tin, Coke from raw coal)</title>
<ellipse fill="none" stroke="black" cx="388.99" cy="-606.19" rx="194.97" ry="18"/>
<text text-anchor="middle" x="388.99" y="-602.49" font-family="Times,serif" font-size="14.00">3,&#45;2 (Steam for tin, Coke from raw coal)</text>
</g>
<!-- 10,5 ()&#45;&gt;3,&#45;2 (Steam for tin, Coke from raw coal) -->
<g id="edge3" class="edge">
<title>10,5 ()&#45;&gt;3,&#45;2 (Steam for tin, Coke from raw coal)</title>
<path fill="none" stroke="black" stroke-width="2.18" d="M666.43,-328.75C617.35,-377.83 473.07,-522.11 414.32,-580.86"/>
<polygon fill="black" stroke="black" stroke-width="2.18" points="411.53,-578.7 406.94,-588.24 416.48,-583.65 411.53,-578.7"/>
<text text-anchor="middle" x="475.37" y="-458.61" font-family="Times,serif" font-size="14.00">raw&#45;coal*1519440</text>
</g>
<!-- 6,&#45;3 (B Coal Mine) -->
<g id="node5" class="node">
<title>6,&#45;3 (B Coal Mine)</title>
<ellipse fill="none" stroke="black" cx="94.89" cy="-312.1" rx="94.78" ry="18"/>
<text text-anchor="middle" x="94.89" y="-308.4" font-family="Times,serif" font-size="14.00">6,&#45;3 (B Coal Mine)</text>
</g>
<!-- 6,&#45;3 (B Coal Mine)&#45;&gt;2,8 (Graphite) -->
<g id="edge5" class="edge">
<title>6,&#45;3 (B Coal Mine)&#45;&gt;2,8 (Graphite)</title>
<path fill="none" stroke="black" stroke-width="0" d="M112.85,-294.14C163.21,-243.77 305.94,-101.05 363.98,-43.01"/>
<polygon fill="black" stroke="black" stroke-width="0" points="366.67,-45.27 371.27,-35.72 361.72,-40.32 366.67,-45.27"/>
<text text-anchor="middle" x="186.91" y="-172.38" font-family="Times,serif" font-size="14.00">raw&#45;coal*2640</text>
</g>
<!-- 6,&#45;3 (B Coal Mine)&#45;&gt;3,&#45;2 (Steam for tin, Coke from raw coal) -->
<g id="edge4" class="edge">
<title>6,&#45;3 (B Coal Mine)&#45;&gt;3,&#45;2 (Steam for tin, Coke from raw coal)</title>
<path fill="none" stroke="black" stroke-width="0.04" d="M112.85,-330.05C163.09,-380.3 305.26,-522.47 363.57,-580.77"/>
<polygon fill="black" stroke="black" stroke-width="0.04" points="361.35,-583.5 370.89,-588.1 366.3,-578.55 361.35,-583.5"/>
<text text-anchor="middle" x="182.21" y="-459.21" font-family="Times,serif" font-size="14.00">raw&#45;coal*25680</text>
</g>
</g>
</svg>
