<?xml version="1.0" encoding="UTF-8" standalone="no"?>
<!DOCTYPE svg PUBLIC "-//W3C//DTD SVG 1.1//EN"
 "http://www.w3.org/Graphics/SVG/1.1/DTD/svg11.dtd">
<!-- Generated by graphviz version 2.43.0 (0)
 -->
<!-- Title: %3 Pages: 1 -->
<svg width="1044pt" height="44pt"
 viewBox="0.00 0.00 1043.72 44.00" xmlns="http://www.w3.org/2000/svg" xmlns:xlink="http://www.w3.org/1999/xlink">
<g id="graph0" class="graph" transform="scale(1 1) rotate(0) translate(4 40)">
<title>%3</title>
<polygon fill="white" stroke="transparent" points="-4,4 -4,-40 1039.72,-40 1039.72,4 -4,4"/>
<!-- 3,3 (Random electronic components, Small Parts) -->
<g id="node1" class="node">
<title>3,3 (Random electronic components, Small Parts)</title>
<ellipse fill="none" stroke="black" cx="538.66" cy="-18" rx="240.46" ry="18"/>
<text text-anchor="middle" x="538.66" y="-14.3" font-family="Times,serif" font-size="14.00">3,3 (Random electronic components, Small Parts)</text>
</g>
<!-- 0,0 (LE BUS) -->
<g id="node2" class="node">
<title>0,0 (LE BUS)</title>
<ellipse fill="none" stroke="black" cx="964.23" cy="-18" rx="71.49" ry="18"/>
<text text-anchor="middle" x="964.23" y="-14.3" font-family="Times,serif" font-size="14.00">0,0 (LE BUS)</text>
</g>
<!-- 3,3 (Random electronic components, Small Parts)&#45;&gt;0,0 (LE BUS) -->
<g id="edge1" class="edge">
<title>3,3 (Random electronic components, Small Parts)&#45;&gt;0,0 (LE BUS)</title>
<path fill="none" stroke="black" stroke-width="0.56" d="M779.42,-18C816.27,-18 851.97,-18 882.01,-18"/>
<polygon fill="black" stroke="black" stroke-width="0.56" points="882.4,-21.5 892.4,-18 882.4,-14.5 882.4,-21.5"/>
<text text-anchor="middle" x="830.72" y="-6.8" font-family="Times,serif" font-size="14.00">battery*4000</text>
</g>
<!-- 5,1 (Complex circuits) -->
<g id="node3" class="node">
<title>5,1 (Complex circuits)</title>
<ellipse fill="none" stroke="black" cx="113.09" cy="-18" rx="113.18" ry="18"/>
<text text-anchor="middle" x="113.09" y="-14.3" font-family="Times,serif" font-size="14.00">5,1 (Complex circuits)</text>
</g>
<!-- 3,3 (Random electronic components, Small Parts)&#45;&gt;5,1 (Complex circuits) -->
<g id="edge2" class="edge">
<title>3,3 (Random electronic components, Small Parts)&#45;&gt;5,1 (Complex circuits)</title>
<path fill="none" stroke="black" stroke-width="1.44" d="M297.89,-18C276.75,-18 255.99,-18 236.45,-18"/>
<polygon fill="black" stroke="black" stroke-width="1.44" points="236.35,-14.5 226.35,-18 236.35,-21.5 236.35,-14.5"/>
<text text-anchor="middle" x="240.92" y="-6.8" font-family="Times,serif" font-size="14.00">battery*10240</text>
</g>
</g>
</svg>
