<?xml version="1.0" encoding="UTF-8" standalone="no"?>
<!DOCTYPE svg PUBLIC "-//W3C//DTD SVG 1.1//EN"
 "http://www.w3.org/Graphics/SVG/1.1/DTD/svg11.dtd">
<!-- Generated by graphviz version 2.43.0 (0)
 -->
<!-- Title: %3 Pages: 1 -->
<svg width="1695pt" height="1174pt"
 viewBox="0.00 0.00 1695.35 1174.04" xmlns="http://www.w3.org/2000/svg" xmlns:xlink="http://www.w3.org/1999/xlink">
<g id="graph0" class="graph" transform="scale(1 1) rotate(0) translate(4 1170.04)">
<title>%3</title>
<polygon fill="white" stroke="transparent" points="-4,4 -4,-1170.04 1691.35,-1170.04 1691.35,4 -4,4"/>
<!-- &#45;6,4 (Urea) -->
<g id="node1" class="node">
<title>&#45;6,4 (Urea)</title>
<ellipse fill="none" stroke="black" cx="1315.93" cy="-583.02" rx="61.19" ry="18"/>
<text text-anchor="middle" x="1315.93" y="-579.32" font-family="Times,serif" font-size="14.00">&#45;6,4 (Urea)</text>
</g>
<!-- 1,4 (Casein and Melamine) -->
<g id="node2" class="node">
<title>1,4 (Casein and Melamine)</title>
<ellipse fill="none" stroke="black" cx="1150.44" cy="-982.55" rx="135.38" ry="18"/>
<text text-anchor="middle" x="1150.44" y="-978.85" font-family="Times,serif" font-size="14.00">1,4 (Casein and Melamine)</text>
</g>
<!-- &#45;6,4 (Urea)&#45;&gt;1,4 (Casein and Melamine) -->
<g id="edge1" class="edge">
<title>&#45;6,4 (Urea)&#45;&gt;1,4 (Casein and Melamine)</title>
<path fill="none" stroke="black" stroke-width="4.37" d="M1308.49,-600.96C1282.25,-664.32 1193.8,-877.85 1161.97,-954.7"/>
<polygon fill="black" stroke="black" stroke-width="4.37" points="1158.33,-953.5 1158.04,-964.2 1165.39,-956.42 1158.33,-953.5"/>
<text text-anchor="middle" x="1188.23" y="-781.63" font-family="Times,serif" font-size="14.00">urea*300960</text>
</g>
<!-- &#45;5,2 (Optical fiber) -->
<g id="node3" class="node">
<title>&#45;5,2 (Optical fiber)</title>
<ellipse fill="none" stroke="black" cx="1150.44" cy="-183.49" rx="96.38" ry="18"/>
<text text-anchor="middle" x="1150.44" y="-179.79" font-family="Times,serif" font-size="14.00">&#45;5,2 (Optical fiber)</text>
</g>
<!-- &#45;6,4 (Urea)&#45;&gt;&#45;5,2 (Optical fiber) -->
<g id="edge2" class="edge">
<title>&#45;6,4 (Urea)&#45;&gt;&#45;5,2 (Optical fiber)</title>
<path fill="none" stroke="black" stroke-width="2.14" d="M1308.49,-565.08C1282.25,-501.72 1193.8,-288.19 1161.97,-211.34"/>
<polygon fill="black" stroke="black" stroke-width="2.14" points="1165.1,-209.74 1158.04,-201.84 1158.63,-212.42 1165.1,-209.74"/>
<text text-anchor="middle" x="1188.23" y="-392.01" font-family="Times,serif" font-size="14.00">urea*147840</text>
</g>
<!-- 0,0 (LE BUS) -->
<g id="node4" class="node">
<title>0,0 (LE BUS)</title>
<ellipse fill="none" stroke="black" cx="351.37" cy="-982.55" rx="71.49" ry="18"/>
<text text-anchor="middle" x="351.37" y="-978.85" font-family="Times,serif" font-size="14.00">0,0 (LE BUS)</text>
</g>
<!-- &#45;6,4 (Urea)&#45;&gt;0,0 (LE BUS) -->
<g id="edge3" class="edge">
<title>&#45;6,4 (Urea)&#45;&gt;0,0 (LE BUS)</title>
<path fill="none" stroke="black" stroke-width="3.04" d="M1280.45,-597.72C1132.66,-658.93 565.76,-893.75 398.25,-963.14"/>
<polygon fill="black" stroke="black" stroke-width="3.04" points="396.62,-960.02 388.72,-967.08 399.3,-966.49 396.62,-960.02"/>
<text text-anchor="middle" x="792.35" y="-784.23" font-family="Times,serif" font-size="14.00">urea*209520</text>
</g>
<!-- 2,4 (Formica and Phenolic boards) -->
<g id="node6" class="node">
<title>2,4 (Formica and Phenolic boards)</title>
<ellipse fill="none" stroke="black" cx="750.91" cy="-18" rx="169.77" ry="18"/>
<text text-anchor="middle" x="750.91" y="-14.3" font-family="Times,serif" font-size="14.00">2,4 (Formica and Phenolic boards)</text>
</g>
<!-- &#45;6,4 (Urea)&#45;&gt;2,4 (Formica and Phenolic boards) -->
<g id="edge5" class="edge">
<title>&#45;6,4 (Urea)&#45;&gt;2,4 (Formica and Phenolic boards)</title>
<path fill="none" stroke="black" stroke-width="1.26" d="M1298.4,-565.49C1216.7,-483.79 873.17,-140.27 776.38,-43.48"/>
<polygon fill="black" stroke="black" stroke-width="1.26" points="778.62,-40.76 769.07,-36.17 773.67,-45.71 778.62,-40.76"/>
<text text-anchor="middle" x="994.89" y="-308.29" font-family="Times,serif" font-size="14.00">urea*86880</text>
</g>
<!-- &#45;1,7 (Rayon) -->
<g id="node8" class="node">
<title>&#45;1,7 (Rayon)</title>
<ellipse fill="none" stroke="black" cx="351.37" cy="-183.49" rx="66.89" ry="18"/>
<text text-anchor="middle" x="351.37" y="-179.79" font-family="Times,serif" font-size="14.00">&#45;1,7 (Rayon)</text>
</g>
<!-- &#45;6,4 (Urea)&#45;&gt;&#45;1,7 (Rayon) -->
<g id="edge7" class="edge">
<title>&#45;6,4 (Urea)&#45;&gt;&#45;1,7 (Rayon)</title>
<path fill="none" stroke="black" stroke-width="1.39" d="M1280.45,-568.33C1132.41,-507.01 563.85,-271.5 397.4,-202.56"/>
<polygon fill="black" stroke="black" stroke-width="1.39" points="398.52,-199.23 387.94,-198.64 395.84,-205.7 398.52,-199.23"/>
<text text-anchor="middle" x="796.43" y="-389.24" font-family="Times,serif" font-size="14.00">urea*96000</text>
</g>
<!-- &#45;5,7 (Grod Products) -->
<g id="node9" class="node">
<title>&#45;5,7 (Grod Products)</title>
<ellipse fill="none" stroke="black" cx="1520.79" cy="-392.91" rx="105.08" ry="18"/>
<text text-anchor="middle" x="1520.79" y="-389.21" font-family="Times,serif" font-size="14.00">&#45;5,7 (Grod Products)</text>
</g>
<!-- &#45;6,4 (Urea)&#45;&gt;&#45;5,7 (Grod Products) -->
<g id="edge10" class="edge">
<title>&#45;6,4 (Urea)&#45;&gt;&#45;5,7 (Grod Products)</title>
<path fill="none" stroke="black" stroke-width="0.39" d="M1334.47,-565.81C1370.91,-532 1451.97,-456.77 1494.14,-417.63"/>
<polygon fill="black" stroke="black" stroke-width="0.39" points="1496.59,-420.13 1501.54,-410.76 1491.83,-415 1496.59,-420.13"/>
<text text-anchor="middle" x="1371.8" y="-495.52" font-family="Times,serif" font-size="14.00">urea*26880</text>
</g>
<!-- &#45;6,&#45;2 (item=fertilizer Fertiliser) -->
<g id="node10" class="node">
<title>&#45;6,&#45;2 (item=fertilizer Fertiliser)</title>
<ellipse fill="none" stroke="black" cx="1531.36" cy="-723.57" rx="155.97" ry="18"/>
<text text-anchor="middle" x="1531.36" y="-719.87" font-family="Times,serif" font-size="14.00">&#45;6,&#45;2 (item=fertilizer Fertiliser)</text>
</g>
<!-- &#45;6,4 (Urea)&#45;&gt;&#45;6,&#45;2 (item=fertilizer Fertiliser) -->
<g id="edge11" class="edge">
<title>&#45;6,4 (Urea)&#45;&gt;&#45;6,&#45;2 (item=fertilizer Fertiliser)</title>
<path fill="none" stroke="black" stroke-width="0.61" d="M1341.49,-599.7C1379.75,-624.66 1452.08,-671.85 1495.58,-700.23"/>
<polygon fill="black" stroke="black" stroke-width="0.61" points="1493.85,-703.28 1504.14,-705.81 1497.68,-697.41 1493.85,-703.28"/>
<text text-anchor="middle" x="1376.03" y="-653.76" font-family="Times,serif" font-size="14.00">urea*41760</text>
</g>
<!-- &#45;3,8 (Urea) -->
<g id="node5" class="node">
<title>&#45;3,8 (Urea)</title>
<ellipse fill="none" stroke="black" cx="750.91" cy="-1148.04" rx="61.19" ry="18"/>
<text text-anchor="middle" x="750.91" y="-1144.34" font-family="Times,serif" font-size="14.00">&#45;3,8 (Urea)</text>
</g>
<!-- &#45;3,8 (Urea)&#45;&gt;1,4 (Casein and Melamine) -->
<g id="edge4" class="edge">
<title>&#45;3,8 (Urea)&#45;&gt;1,4 (Casein and Melamine)</title>
<path fill="none" stroke="black" stroke-width="0.9" d="M786.36,-1133.36C857.29,-1103.98 1016.89,-1037.87 1099.2,-1003.78"/>
<polygon fill="black" stroke="black" stroke-width="0.9" points="1100.94,-1006.84 1108.84,-999.78 1098.26,-1000.38 1100.94,-1006.84"/>
<text text-anchor="middle" x="900.28" y="-1072.37" font-family="Times,serif" font-size="14.00">urea*61696</text>
</g>
<!-- &#45;3,8 (Urea)&#45;&gt;&#45;5,2 (Optical fiber) -->
<g id="edge9" class="edge">
<title>&#45;3,8 (Urea)&#45;&gt;&#45;5,2 (Optical fiber)</title>
<path fill="none" stroke="black" stroke-width="0.23" d="M758.35,-1130.06C807.02,-1012.57 1079.5,-354.76 1138.97,-211.17"/>
<polygon fill="black" stroke="black" stroke-width="0.23" points="1142.28,-212.32 1142.88,-201.74 1135.82,-209.64 1142.28,-212.32"/>
<text text-anchor="middle" x="906.16" y="-674.42" font-family="Times,serif" font-size="14.00">urea*15936</text>
</g>
<!-- &#45;3,8 (Urea)&#45;&gt;0,0 (LE BUS) -->
<g id="edge15" class="edge">
<title>&#45;3,8 (Urea)&#45;&gt;0,0 (LE BUS)</title>
<path fill="none" stroke="black" stroke-width="0.05" d="M715.45,-1133.36C643.24,-1103.45 479.11,-1035.46 398.22,-1001.96"/>
<polygon fill="black" stroke="black" stroke-width="0.05" points="399.36,-998.64 388.78,-998.05 396.68,-1005.11 399.36,-998.64"/>
<text text-anchor="middle" x="518.83" y="-1071.46" font-family="Times,serif" font-size="14.00">urea*3136</text>
</g>
<!-- &#45;3,8 (Urea)&#45;&gt;2,4 (Formica and Phenolic boards) -->
<g id="edge14" class="edge">
<title>&#45;3,8 (Urea)&#45;&gt;2,4 (Formica and Phenolic boards)</title>
<path fill="none" stroke="black" stroke-width="0.07" d="M750.91,-1129.84C750.91,-999.27 750.91,-206.08 750.91,-46.11"/>
<polygon fill="black" stroke="black" stroke-width="0.07" points="754.41,-46.1 750.91,-36.1 747.41,-46.1 754.41,-46.1"/>
<text text-anchor="middle" x="712.91" y="-591.77" font-family="Times,serif" font-size="14.00">urea*4832</text>
</g>
<!-- 1,3 (item=korlex&#45;food&#45;01 Korlex food) -->
<g id="node7" class="node">
<title>1,3 (item=korlex&#45;food&#45;01 Korlex food)</title>
<ellipse fill="none" stroke="black" cx="185.88" cy="-583.02" rx="185.77" ry="18"/>
<text text-anchor="middle" x="185.88" y="-579.32" font-family="Times,serif" font-size="14.00">1,3 (item=korlex&#45;food&#45;01 Korlex food)</text>
</g>
<!-- 1,3 (item=korlex&#45;food&#45;01 Korlex food)&#45;&gt;1,4 (Casein and Melamine) -->
<g id="edge8" class="edge">
<title>1,3 (item=korlex&#45;food&#45;01 Korlex food)&#45;&gt;1,4 (Casein and Melamine)</title>
<path fill="none" stroke="black" stroke-width="0.34" d="M228.26,-600.58C384.75,-665.39 929.78,-891.16 1099.55,-961.47"/>
<polygon fill="black" stroke="black" stroke-width="0.34" points="1098.43,-964.8 1109.01,-965.39 1101.11,-958.33 1098.43,-964.8"/>
<text text-anchor="middle" x="621.41" y="-784.82" font-family="Times,serif" font-size="14.00">urea*23680</text>
</g>
<!-- 1,3 (item=korlex&#45;food&#45;01 Korlex food)&#45;&gt;&#45;5,2 (Optical fiber) -->
<g id="edge6" class="edge">
<title>1,3 (item=korlex&#45;food&#45;01 Korlex food)&#45;&gt;&#45;5,2 (Optical fiber)</title>
<path fill="none" stroke="black" stroke-width="0.06" d="M228.26,-565.47C385.21,-500.46 932.97,-273.57 1101.03,-203.96"/>
<polygon fill="black" stroke="black" stroke-width="0.06" points="1102.71,-207.05 1110.61,-199.99 1100.03,-200.58 1102.71,-207.05"/>
<text text-anchor="middle" x="626.64" y="-388.51" font-family="Times,serif" font-size="14.00">urea*4320</text>
</g>
<!-- 1,3 (item=korlex&#45;food&#45;01 Korlex food)&#45;&gt;2,4 (Formica and Phenolic boards) -->
<g id="edge12" class="edge">
<title>1,3 (item=korlex&#45;food&#45;01 Korlex food)&#45;&gt;2,4 (Formica and Phenolic boards)</title>
<path fill="none" stroke="black" stroke-width="0.07" d="M204.04,-564.86C286.89,-482.01 629.14,-139.77 725.53,-43.37"/>
<polygon fill="black" stroke="black" stroke-width="0.07" points="728.22,-45.64 732.81,-36.09 723.27,-40.69 728.22,-45.64"/>
<text text-anchor="middle" x="426.79" y="-307.92" font-family="Times,serif" font-size="14.00">urea*5104</text>
</g>
<!-- 1,3 (item=korlex&#45;food&#45;01 Korlex food)&#45;&gt;&#45;1,7 (Rayon) -->
<g id="edge13" class="edge">
<title>1,3 (item=korlex&#45;food&#45;01 Korlex food)&#45;&gt;&#45;1,7 (Rayon)</title>
<path fill="none" stroke="black" stroke-width="0.08" d="M193.42,-564.82C219.81,-501.12 308.1,-287.98 339.86,-211.28"/>
<polygon fill="black" stroke="black" stroke-width="0.08" points="343.2,-212.38 343.79,-201.8 336.73,-209.7 343.2,-212.38"/>
<text text-anchor="middle" x="228.64" y="-391.85" font-family="Times,serif" font-size="14.00">urea*5344</text>
</g>
</g>
</svg>
