<?xml version="1.0" encoding="UTF-8" standalone="no"?>
<!DOCTYPE svg PUBLIC "-//W3C//DTD SVG 1.1//EN"
 "http://www.w3.org/Graphics/SVG/1.1/DTD/svg11.dtd">
<!-- Generated by graphviz version 2.43.0 (0)
 -->
<!-- Title: %3 Pages: 1 -->
<svg width="604pt" height="470pt"
 viewBox="0.00 0.00 604.01 469.76" xmlns="http://www.w3.org/2000/svg" xmlns:xlink="http://www.w3.org/1999/xlink">
<g id="graph0" class="graph" transform="scale(1 1) rotate(0) translate(4 465.76)">
<title>%3</title>
<polygon fill="white" stroke="transparent" points="-4,4 -4,-465.76 600.01,-465.76 600.01,4 -4,4"/>
<!-- &#45;6,7 (Iron ore dust) -->
<g id="node1" class="node">
<title>&#45;6,7 (Iron ore dust)</title>
<ellipse fill="none" stroke="black" cx="345.8" cy="-18" rx="98.58" ry="18"/>
<text text-anchor="middle" x="345.8" y="-14.3" font-family="Times,serif" font-size="14.00">&#45;6,7 (Iron ore dust)</text>
</g>
<!-- &#45;2,9 (molten steel) -->
<g id="node2" class="node">
<title>&#45;2,9 (molten steel)</title>
<ellipse fill="none" stroke="black" cx="95.54" cy="-99.31" rx="95.58" ry="18"/>
<text text-anchor="middle" x="95.54" y="-95.61" font-family="Times,serif" font-size="14.00">&#45;2,9 (molten steel)</text>
</g>
<!-- &#45;6,7 (Iron ore dust)&#45;&gt;&#45;2,9 (molten steel) -->
<g id="edge1" class="edge">
<title>&#45;6,7 (Iron ore dust)&#45;&gt;&#45;2,9 (molten steel)</title>
<path fill="none" stroke="black" stroke-width="1.03" d="M297.25,-33.77C256.02,-47.17 196.77,-66.42 153.14,-80.6"/>
<polygon fill="black" stroke="black" stroke-width="1.03" points="151.96,-77.3 143.53,-83.72 154.12,-83.96 151.96,-77.3"/>
<text text-anchor="middle" x="148.2" y="-60.99" font-family="Times,serif" font-size="14.00">iron&#45;ore&#45;dust*145104</text>
</g>
<!-- 1,12 (Molten Iron) -->
<g id="node3" class="node">
<title>1,12 (Molten Iron)</title>
<ellipse fill="none" stroke="black" cx="500.47" cy="-230.88" rx="95.58" ry="18"/>
<text text-anchor="middle" x="500.47" y="-227.18" font-family="Times,serif" font-size="14.00">1,12 (Molten Iron)</text>
</g>
<!-- &#45;6,7 (Iron ore dust)&#45;&gt;1,12 (Molten Iron) -->
<g id="edge2" class="edge">
<title>&#45;6,7 (Iron ore dust)&#45;&gt;1,12 (Molten Iron)</title>
<path fill="none" stroke="black" stroke-width="1.73" d="M358.99,-36.15C386.38,-73.86 449.54,-160.79 481.38,-204.61"/>
<polygon fill="black" stroke="black" stroke-width="1.73" points="478.6,-206.74 487.31,-212.78 484.27,-202.63 478.6,-206.74"/>
<text text-anchor="middle" x="343.18" y="-124.18" font-family="Times,serif" font-size="14.00">iron&#45;ore&#45;dust*243408</text>
</g>
<!-- &#45;1,10 (Iron Plates) -->
<g id="node5" class="node">
<title>&#45;1,10 (Iron Plates)</title>
<ellipse fill="none" stroke="black" cx="95.54" cy="-362.45" rx="94.78" ry="18"/>
<text text-anchor="middle" x="95.54" y="-358.75" font-family="Times,serif" font-size="14.00">&#45;1,10 (Iron Plates)</text>
</g>
<!-- &#45;6,7 (Iron ore dust)&#45;&gt;&#45;1,10 (Iron Plates) -->
<g id="edge5" class="edge">
<title>&#45;6,7 (Iron ore dust)&#45;&gt;&#45;1,10 (Iron Plates)</title>
<path fill="none" stroke="black" stroke-width="2.14" d="M332.7,-36.03C291.31,-93 163.24,-269.26 114.57,-336.25"/>
<polygon fill="black" stroke="black" stroke-width="2.14" points="111.56,-334.45 108.51,-344.59 117.22,-338.56 111.56,-334.45"/>
<text text-anchor="middle" x="146.64" y="-189.94" font-family="Times,serif" font-size="14.00">iron&#45;ore&#45;dust*302160</text>
</g>
<!-- 1,10 (Iron Ore Dust) -->
<g id="node4" class="node">
<title>1,10 (Iron Ore Dust)</title>
<ellipse fill="none" stroke="black" cx="345.8" cy="-443.76" rx="104.78" ry="18"/>
<text text-anchor="middle" x="345.8" y="-440.06" font-family="Times,serif" font-size="14.00">1,10 (Iron Ore Dust)</text>
</g>
<!-- 1,10 (Iron Ore Dust)&#45;&gt;&#45;2,9 (molten steel) -->
<g id="edge3" class="edge">
<title>1,10 (Iron Ore Dust)&#45;&gt;&#45;2,9 (molten steel)</title>
<path fill="none" stroke="black" stroke-width="0.3" d="M332.7,-425.73C291.31,-368.76 163.24,-192.5 114.57,-125.51"/>
<polygon fill="black" stroke="black" stroke-width="0.3" points="117.22,-123.2 108.51,-117.17 111.56,-127.32 117.22,-123.2"/>
<text text-anchor="middle" x="151.14" y="-279.42" font-family="Times,serif" font-size="14.00">iron&#45;ore&#45;dust*42120</text>
</g>
<!-- 1,10 (Iron Ore Dust)&#45;&gt;1,12 (Molten Iron) -->
<g id="edge4" class="edge">
<title>1,10 (Iron Ore Dust)&#45;&gt;1,12 (Molten Iron)</title>
<path fill="none" stroke="black" stroke-width="0.62" d="M358.99,-425.61C386.38,-387.91 449.54,-300.97 481.38,-257.15"/>
<polygon fill="black" stroke="black" stroke-width="0.62" points="484.27,-259.13 487.31,-248.99 478.6,-255.02 484.27,-259.13"/>
<text text-anchor="middle" x="347.68" y="-345.18" font-family="Times,serif" font-size="14.00">iron&#45;ore&#45;dust*88000</text>
</g>
<!-- 1,10 (Iron Ore Dust)&#45;&gt;&#45;1,10 (Iron Plates) -->
<g id="edge6" class="edge">
<title>1,10 (Iron Ore Dust)&#45;&gt;&#45;1,10 (Iron Plates)</title>
<path fill="none" stroke="black" stroke-width="0.18" d="M296.65,-427.79C255.5,-414.42 196.69,-395.31 153.29,-381.21"/>
<polygon fill="black" stroke="black" stroke-width="0.18" points="154.31,-377.87 143.72,-378.1 152.15,-384.52 154.31,-377.87"/>
<text text-anchor="middle" x="152.47" y="-408.3" font-family="Times,serif" font-size="14.00">iron&#45;ore&#45;dust*25536</text>
</g>
</g>
</svg>
