<?xml version="1.0" encoding="UTF-8" standalone="no"?>
<!DOCTYPE svg PUBLIC "-//W3C//DTD SVG 1.1//EN"
 "http://www.w3.org/Graphics/SVG/1.1/DTD/svg11.dtd">
<!-- Generated by graphviz version 2.43.0 (0)
 -->
<!-- Title: %3 Pages: 1 -->
<svg width="4096pt" height="3727pt"
 viewBox="0.00 0.00 4095.76 3727.44" xmlns="http://www.w3.org/2000/svg" xmlns:xlink="http://www.w3.org/1999/xlink">
<g id="graph0" class="graph" transform="scale(1 1) rotate(0) translate(4 3723.44)">
<title>%3</title>
<polygon fill="white" stroke="transparent" points="-4,4 -4,-3723.44 4091.76,-3723.44 4091.76,4 -4,4"/>
<!-- &#45;2,4 (fluid=drilling&#45;fluid&#45;0 Drilling fluid 1, Biomass) -->
<g id="node1" class="node">
<title>&#45;2,4 (fluid=drilling&#45;fluid&#45;0 Drilling fluid 1, Biomass)</title>
<ellipse fill="none" stroke="black" cx="248.93" cy="-2564.52" rx="248.86" ry="18"/>
<text text-anchor="middle" x="248.93" y="-2560.82" font-family="Times,serif" font-size="14.00">&#45;2,4 (fluid=drilling&#45;fluid&#45;0 Drilling fluid 1, Biomass)</text>
</g>
<!-- 0,10 (item=meat Meat) -->
<g id="node2" class="node">
<title>0,10 (item=meat Meat)</title>
<ellipse fill="none" stroke="black" cx="648.16" cy="-3162.01" rx="120.48" ry="18"/>
<text text-anchor="middle" x="648.16" y="-3158.31" font-family="Times,serif" font-size="14.00">0,10 (item=meat Meat)</text>
</g>
<!-- &#45;2,4 (fluid=drilling&#45;fluid&#45;0 Drilling fluid 1, Biomass)&#45;&gt;0,10 (item=meat Meat) -->
<g id="edge1" class="edge">
<title>&#45;2,4 (fluid=drilling&#45;fluid&#45;0 Drilling fluid 1, Biomass)&#45;&gt;0,10 (item=meat Meat)</title>
<path fill="none" stroke="black" stroke-width="2.03" d="M261.09,-2582.73C318.49,-2668.63 562.29,-3033.49 630.41,-3135.45"/>
<polygon fill="black" stroke="black" stroke-width="2.03" points="627.63,-3137.58 636.09,-3143.95 633.45,-3133.69 627.63,-3137.58"/>
<text text-anchor="middle" x="385.75" y="-2862.89" font-family="Times,serif" font-size="14.00">biomass*148528</text>
</g>
<!-- &#45;3,8 (Urea) -->
<g id="node3" class="node">
<title>&#45;3,8 (Urea)</title>
<ellipse fill="none" stroke="black" cx="3651.98" cy="-2564.52" rx="61.19" ry="18"/>
<text text-anchor="middle" x="3651.98" y="-2560.82" font-family="Times,serif" font-size="14.00">&#45;3,8 (Urea)</text>
</g>
<!-- &#45;2,4 (fluid=drilling&#45;fluid&#45;0 Drilling fluid 1, Biomass)&#45;&gt;&#45;3,8 (Urea) -->
<g id="edge2" class="edge">
<title>&#45;2,4 (fluid=drilling&#45;fluid&#45;0 Drilling fluid 1, Biomass)&#45;&gt;&#45;3,8 (Urea)</title>
<path fill="none" stroke="black" stroke-width="2.47" d="M498.13,-2564.52C1201.99,-2564.52 3179.95,-2564.52 3580.65,-2564.52"/>
<polygon fill="black" stroke="black" stroke-width="2.47" points="3580.66,-2568.02 3590.66,-2564.52 3580.66,-2561.02 3580.66,-2568.02"/>
<text text-anchor="middle" x="1979.39" y="-2568.32" font-family="Times,serif" font-size="14.00">biomass*180624</text>
</g>
<!-- 0,9 (Auog Brains) -->
<g id="node5" class="node">
<title>0,9 (Auog Brains)</title>
<ellipse fill="none" stroke="black" cx="108.74" cy="-1859.72" rx="91.78" ry="18"/>
<text text-anchor="middle" x="108.74" y="-1856.02" font-family="Times,serif" font-size="14.00">0,9 (Auog Brains)</text>
</g>
<!-- &#45;2,4 (fluid=drilling&#45;fluid&#45;0 Drilling fluid 1, Biomass)&#45;&gt;0,9 (Auog Brains) -->
<g id="edge20" class="edge">
<title>&#45;2,4 (fluid=drilling&#45;fluid&#45;0 Drilling fluid 1, Biomass)&#45;&gt;0,9 (Auog Brains)</title>
<path fill="none" stroke="black" stroke-width="0.74" d="M245.32,-2546.39C226.29,-2450.69 137.5,-2004.32 114.29,-1887.67"/>
<polygon fill="black" stroke="black" stroke-width="0.74" points="117.7,-1886.86 112.32,-1877.73 110.84,-1888.22 117.7,-1886.86"/>
<text text-anchor="middle" x="124.31" y="-2220.83" font-family="Times,serif" font-size="14.00">biomass*54544</text>
</g>
<!-- &#45;1,6 (Flimble&#39;s Slaughterhouse and Daycare Centre, Auog Products) -->
<g id="node6" class="node">
<title>&#45;1,6 (Flimble&#39;s Slaughterhouse and Daycare Centre, Auog Products)</title>
<ellipse fill="none" stroke="black" cx="2655.25" cy="-158.19" rx="325.74" ry="18"/>
<text text-anchor="middle" x="2655.25" y="-154.49" font-family="Times,serif" font-size="14.00">&#45;1,6 (Flimble&#39;s Slaughterhouse and Daycare Centre, Auog Products)</text>
</g>
<!-- &#45;2,4 (fluid=drilling&#45;fluid&#45;0 Drilling fluid 1, Biomass)&#45;&gt;&#45;1,6 (Flimble&#39;s Slaughterhouse and Daycare Centre, Auog Products) -->
<g id="edge6" class="edge">
<title>&#45;2,4 (fluid=drilling&#45;fluid&#45;0 Drilling fluid 1, Biomass)&#45;&gt;&#45;1,6 (Flimble&#39;s Slaughterhouse and Daycare Centre, Auog Products)</title>
<path fill="none" stroke="black" stroke-width="2.82" d="M266.91,-2546.53C473.05,-2340.4 2386.22,-427.23 2629.79,-183.66"/>
<polygon fill="black" stroke="black" stroke-width="2.82" points="2632.53,-185.87 2637.13,-176.32 2627.58,-180.92 2632.53,-185.87"/>
<text text-anchor="middle" x="1388.35" y="-1368.9" font-family="Times,serif" font-size="14.00">biomass*206880</text>
</g>
<!-- &#45;4,2 (This line not currently using manure, Ralesia seeds) -->
<g id="node7" class="node">
<title>&#45;4,2 (This line not currently using manure, Ralesia seeds)</title>
<ellipse fill="none" stroke="black" cx="1950.46" cy="-18" rx="276.75" ry="18"/>
<text text-anchor="middle" x="1950.46" y="-14.3" font-family="Times,serif" font-size="14.00">&#45;4,2 (This line not currently using manure, Ralesia seeds)</text>
</g>
<!-- &#45;2,4 (fluid=drilling&#45;fluid&#45;0 Drilling fluid 1, Biomass)&#45;&gt;&#45;4,2 (This line not currently using manure, Ralesia seeds) -->
<g id="edge12" class="edge">
<title>&#45;2,4 (fluid=drilling&#45;fluid&#45;0 Drilling fluid 1, Biomass)&#45;&gt;&#45;4,2 (This line not currently using manure, Ralesia seeds)</title>
<path fill="none" stroke="black" stroke-width="0.63" d="M261.17,-2546.2C404.5,-2331.69 1761.36,-301.01 1932.7,-44.57"/>
<polygon fill="black" stroke="black" stroke-width="0.63" points="1935.65,-46.46 1938.29,-36.2 1929.83,-42.57 1935.65,-46.46"/>
<text text-anchor="middle" x="1041.44" y="-1299.18" font-family="Times,serif" font-size="14.00">biomass*45888</text>
</g>
<!-- &#45;7,&#45;4 (Isomer&#39;s Slaughterhouse and Daycare Centre, Bone Meal) -->
<g id="node8" class="node">
<title>&#45;7,&#45;4 (Isomer&#39;s Slaughterhouse and Daycare Centre, Bone Meal)</title>
<ellipse fill="none" stroke="black" cx="3651.98" cy="-1154.92" rx="307.35" ry="18"/>
<text text-anchor="middle" x="3651.98" y="-1151.22" font-family="Times,serif" font-size="14.00">&#45;7,&#45;4 (Isomer&#39;s Slaughterhouse and Daycare Centre, Bone Meal)</text>
</g>
<!-- &#45;2,4 (fluid=drilling&#45;fluid&#45;0 Drilling fluid 1, Biomass)&#45;&gt;&#45;7,&#45;4 (Isomer&#39;s Slaughterhouse and Daycare Centre, Bone Meal) -->
<g id="edge7" class="edge">
<title>&#45;2,4 (fluid=drilling&#45;fluid&#45;0 Drilling fluid 1, Biomass)&#45;&gt;&#45;7,&#45;4 (Isomer&#39;s Slaughterhouse and Daycare Centre, Bone Meal)</title>
<path fill="none" stroke="black" stroke-width="2.08" d="M291.96,-2546.69C654.86,-2396.38 3200.66,-1341.87 3599.48,-1176.67"/>
<polygon fill="black" stroke="black" stroke-width="2.08" points="3600.87,-1179.89 3608.77,-1172.83 3598.19,-1173.42 3600.87,-1179.89"/>
<text text-anchor="middle" x="1885.72" y="-1865.48" font-family="Times,serif" font-size="14.00">biomass*152208</text>
</g>
<!-- &#45;5,5 (fluid=flue&#45;gas Flue gas) -->
<g id="node9" class="node">
<title>&#45;5,5 (fluid=flue&#45;gas Flue gas)</title>
<ellipse fill="none" stroke="black" cx="1245.66" cy="-158.19" rx="145.67" ry="18"/>
<text text-anchor="middle" x="1245.66" y="-154.49" font-family="Times,serif" font-size="14.00">&#45;5,5 (fluid=flue&#45;gas Flue gas)</text>
</g>
<!-- &#45;2,4 (fluid=drilling&#45;fluid&#45;0 Drilling fluid 1, Biomass)&#45;&gt;&#45;5,5 (fluid=flue&#45;gas Flue gas) -->
<g id="edge26" class="edge">
<title>&#45;2,4 (fluid=drilling&#45;fluid&#45;0 Drilling fluid 1, Biomass)&#45;&gt;&#45;5,5 (fluid=flue&#45;gas Flue gas)</title>
<path fill="none" stroke="black" stroke-width="0.91" d="M256.52,-2546.19C342.38,-2338.9 1129.65,-438.27 1234.21,-185.84"/>
<polygon fill="black" stroke="black" stroke-width="0.91" points="1237.57,-186.88 1238.16,-176.3 1231.1,-184.2 1237.57,-186.88"/>
<text text-anchor="middle" x="689.86" y="-1369.81" font-family="Times,serif" font-size="14.00">biomass*66464</text>
</g>
<!-- 2,4 (Formica and Phenolic boards) -->
<g id="node10" class="node">
<title>2,4 (Formica and Phenolic boards)</title>
<ellipse fill="none" stroke="black" cx="1245.66" cy="-3561.25" rx="169.77" ry="18"/>
<text text-anchor="middle" x="1245.66" y="-3557.55" font-family="Times,serif" font-size="14.00">2,4 (Formica and Phenolic boards)</text>
</g>
<!-- &#45;2,4 (fluid=drilling&#45;fluid&#45;0 Drilling fluid 1, Biomass)&#45;&gt;2,4 (Formica and Phenolic boards) -->
<g id="edge13" class="edge">
<title>&#45;2,4 (fluid=drilling&#45;fluid&#45;0 Drilling fluid 1, Biomass)&#45;&gt;2,4 (Formica and Phenolic boards)</title>
<path fill="none" stroke="black" stroke-width="1.19" d="M267.08,-2582.67C388.14,-2703.73 1078.1,-3393.69 1220.1,-3535.69"/>
<polygon fill="black" stroke="black" stroke-width="1.19" points="1218.02,-3538.56 1227.56,-3543.15 1222.97,-3533.61 1218.02,-3538.56"/>
<text text-anchor="middle" x="688.09" y="-3062.98" font-family="Times,serif" font-size="14.00">biomass*86992</text>
</g>
<!-- 4,6 (Circuit substrate and Doped silicon) -->
<g id="node11" class="node">
<title>4,6 (Circuit substrate and Doped silicon)</title>
<ellipse fill="none" stroke="black" cx="1950.46" cy="-3701.44" rx="199.56" ry="18"/>
<text text-anchor="middle" x="1950.46" y="-3697.74" font-family="Times,serif" font-size="14.00">4,6 (Circuit substrate and Doped silicon)</text>
</g>
<!-- &#45;2,4 (fluid=drilling&#45;fluid&#45;0 Drilling fluid 1, Biomass)&#45;&gt;4,6 (Circuit substrate and Doped silicon) -->
<g id="edge14" class="edge">
<title>&#45;2,4 (fluid=drilling&#45;fluid&#45;0 Drilling fluid 1, Biomass)&#45;&gt;4,6 (Circuit substrate and Doped silicon)</title>
<path fill="none" stroke="black" stroke-width="0.82" d="M276,-2582.61C473.49,-2714.56 1691.05,-3528.11 1915.06,-3677.79"/>
<polygon fill="black" stroke="black" stroke-width="0.82" points="1913.24,-3680.78 1923.5,-3683.43 1917.13,-3674.96 1913.24,-3680.78"/>
<text text-anchor="middle" x="1040.03" y="-3134" font-family="Times,serif" font-size="14.00">biomass*60000</text>
</g>
<!-- 3,4 (Depot) -->
<g id="node12" class="node">
<title>3,4 (Depot)</title>
<ellipse fill="none" stroke="black" cx="2655.25" cy="-3561.25" rx="63.09" ry="18"/>
<text text-anchor="middle" x="2655.25" y="-3557.55" font-family="Times,serif" font-size="14.00">3,4 (Depot)</text>
</g>
<!-- &#45;2,4 (fluid=drilling&#45;fluid&#45;0 Drilling fluid 1, Biomass)&#45;&gt;3,4 (Depot) -->
<g id="edge28" class="edge">
<title>&#45;2,4 (fluid=drilling&#45;fluid&#45;0 Drilling fluid 1, Biomass)&#45;&gt;3,4 (Depot)</title>
<path fill="none" stroke="black" stroke-width="1.37" d="M291.97,-2582.35C586.99,-2704.55 2307.64,-3417.26 2609.92,-3542.47"/>
<polygon fill="black" stroke="black" stroke-width="1.37" points="2608.68,-3545.75 2619.26,-3546.34 2611.36,-3539.28 2608.68,-3545.75"/>
<text text-anchor="middle" x="1390.95" y="-3066.21" font-family="Times,serif" font-size="14.00">biomass*100032</text>
</g>
<!-- &#45;6,&#45;2 (item=fertilizer Fertiliser) -->
<g id="node13" class="node">
<title>&#45;6,&#45;2 (item=fertilizer Fertiliser)</title>
<ellipse fill="none" stroke="black" cx="648.16" cy="-557.43" rx="155.97" ry="18"/>
<text text-anchor="middle" x="648.16" y="-553.73" font-family="Times,serif" font-size="14.00">&#45;6,&#45;2 (item=fertilizer Fertiliser)</text>
</g>
<!-- &#45;2,4 (fluid=drilling&#45;fluid&#45;0 Drilling fluid 1, Biomass)&#45;&gt;&#45;6,&#45;2 (item=fertilizer Fertiliser) -->
<g id="edge16" class="edge">
<title>&#45;2,4 (fluid=drilling&#45;fluid&#45;0 Drilling fluid 1, Biomass)&#45;&gt;&#45;6,&#45;2 (item=fertilizer Fertiliser)</title>
<path fill="none" stroke="black" stroke-width="0.93" d="M252.56,-2546.24C289.56,-2360.26 597.4,-812.64 642.62,-585.27"/>
<polygon fill="black" stroke="black" stroke-width="0.93" points="646.06,-585.95 644.58,-575.46 639.19,-584.58 646.06,-585.95"/>
<text text-anchor="middle" x="392.09" y="-1569.56" font-family="Times,serif" font-size="14.00">biomass*68000</text>
</g>
<!-- &#45;3,&#45;2 (Depot) -->
<g id="node17" class="node">
<title>&#45;3,&#45;2 (Depot)</title>
<ellipse fill="none" stroke="black" cx="3252.75" cy="-3162.01" rx="68.79" ry="18"/>
<text text-anchor="middle" x="3252.75" y="-3158.31" font-family="Times,serif" font-size="14.00">&#45;3,&#45;2 (Depot)</text>
</g>
<!-- &#45;2,4 (fluid=drilling&#45;fluid&#45;0 Drilling fluid 1, Biomass)&#45;&gt;&#45;3,&#45;2 (Depot) -->
<g id="edge32" class="edge">
<title>&#45;2,4 (fluid=drilling&#45;fluid&#45;0 Drilling fluid 1, Biomass)&#45;&gt;&#45;3,&#45;2 (Depot)</title>
<path fill="none" stroke="black" stroke-width="0.34" d="M333.99,-2581.44C775.23,-2669.21 2798,-3071.56 3187.69,-3149.07"/>
<polygon fill="black" stroke="black" stroke-width="0.34" points="3187.17,-3152.54 3197.66,-3151.06 3188.54,-3145.67 3187.17,-3152.54"/>
<text text-anchor="middle" x="1705.34" y="-2869.05" font-family="Times,serif" font-size="14.00">biomass*25008</text>
</g>
<!-- &#45;5,&#45;3 (Biomass (from Seaweed)) -->
<g id="node4" class="node">
<title>&#45;5,&#45;3 (Biomass (from Seaweed))</title>
<ellipse fill="none" stroke="black" cx="3792.18" cy="-1859.72" rx="155.97" ry="18"/>
<text text-anchor="middle" x="3792.18" y="-1856.02" font-family="Times,serif" font-size="14.00">&#45;5,&#45;3 (Biomass (from Seaweed))</text>
</g>
<!-- &#45;5,&#45;3 (Biomass (from Seaweed))&#45;&gt;0,10 (item=meat Meat) -->
<g id="edge9" class="edge">
<title>&#45;5,&#45;3 (Biomass (from Seaweed))&#45;&gt;0,10 (item=meat Meat)</title>
<path fill="none" stroke="black" stroke-width="1.61" d="M3750.11,-1877.15C3407.12,-2019.22 1073.06,-2986.01 698.76,-3141.06"/>
<polygon fill="black" stroke="black" stroke-width="1.61" points="697.17,-3137.93 689.27,-3144.99 699.84,-3144.4 697.17,-3137.93"/>
<text text-anchor="middle" x="2164.43" y="-2512.9" font-family="Times,serif" font-size="14.00">biomass*118208</text>
</g>
<!-- &#45;5,&#45;3 (Biomass (from Seaweed))&#45;&gt;&#45;3,8 (Urea) -->
<g id="edge11" class="edge">
<title>&#45;5,&#45;3 (Biomass (from Seaweed))&#45;&gt;&#45;3,8 (Urea)</title>
<path fill="none" stroke="black" stroke-width="1.6" d="M3788.57,-1877.85C3769.54,-1973.55 3680.75,-2419.92 3657.54,-2536.57"/>
<polygon fill="black" stroke="black" stroke-width="1.6" points="3654.09,-2536.02 3655.57,-2546.51 3660.95,-2537.38 3654.09,-2536.02"/>
<text text-anchor="middle" x="3663.06" y="-2211.01" font-family="Times,serif" font-size="14.00">biomass*117152</text>
</g>
<!-- &#45;5,&#45;3 (Biomass (from Seaweed))&#45;&gt;0,9 (Auog Brains) -->
<g id="edge3" class="edge">
<title>&#45;5,&#45;3 (Biomass (from Seaweed))&#45;&gt;0,9 (Auog Brains)</title>
<path fill="none" stroke="black" stroke-width="1.17" d="M3635.96,-1859.72C3014.03,-1859.72 722.92,-1859.72 210.74,-1859.72"/>
<polygon fill="black" stroke="black" stroke-width="1.17" points="210.42,-1856.22 200.42,-1859.72 210.42,-1863.22 210.42,-1856.22"/>
<text text-anchor="middle" x="1867.85" y="-1848.52" font-family="Times,serif" font-size="14.00">biomass*85904</text>
</g>
<!-- &#45;5,&#45;3 (Biomass (from Seaweed))&#45;&gt;&#45;1,6 (Flimble&#39;s Slaughterhouse and Daycare Centre, Auog Products) -->
<g id="edge4" class="edge">
<title>&#45;5,&#45;3 (Biomass (from Seaweed))&#45;&gt;&#45;1,6 (Flimble&#39;s Slaughterhouse and Daycare Centre, Auog Products)</title>
<path fill="none" stroke="black" stroke-width="1.69" d="M3780.18,-1841.76C3668.28,-1674.3 2808.47,-387.49 2673.15,-184.98"/>
<polygon fill="black" stroke="black" stroke-width="1.69" points="2675.9,-182.79 2667.43,-176.42 2670.08,-186.68 2675.9,-182.79"/>
<text text-anchor="middle" x="3166.67" y="-1017.17" font-family="Times,serif" font-size="14.00">biomass*124048</text>
</g>
<!-- &#45;5,&#45;3 (Biomass (from Seaweed))&#45;&gt;&#45;4,2 (This line not currently using manure, Ralesia seeds) -->
<g id="edge5" class="edge">
<title>&#45;5,&#45;3 (Biomass (from Seaweed))&#45;&gt;&#45;4,2 (This line not currently using manure, Ralesia seeds)</title>
<path fill="none" stroke="black" stroke-width="0.44" d="M3774.25,-1841.79C3598.32,-1665.86 2182.72,-250.27 1975.69,-43.23"/>
<polygon fill="black" stroke="black" stroke-width="0.44" points="1978.12,-40.71 1968.57,-36.12 1973.17,-45.66 1978.12,-40.71"/>
<text text-anchor="middle" x="2819.47" y="-946.31" font-family="Times,serif" font-size="14.00">biomass*32064</text>
</g>
<!-- &#45;5,&#45;3 (Biomass (from Seaweed))&#45;&gt;&#45;7,&#45;4 (Isomer&#39;s Slaughterhouse and Daycare Centre, Bone Meal) -->
<g id="edge10" class="edge">
<title>&#45;5,&#45;3 (Biomass (from Seaweed))&#45;&gt;&#45;7,&#45;4 (Isomer&#39;s Slaughterhouse and Daycare Centre, Bone Meal)</title>
<path fill="none" stroke="black" stroke-width="1.58" d="M3788.57,-1841.59C3769.54,-1745.9 3680.75,-1299.53 3657.54,-1182.88"/>
<polygon fill="black" stroke="black" stroke-width="1.58" points="3660.95,-1182.06 3655.57,-1172.94 3654.09,-1183.43 3660.95,-1182.06"/>
<text text-anchor="middle" x="3663.06" y="-1516.03" font-family="Times,serif" font-size="14.00">biomass*115600</text>
</g>
<!-- &#45;5,&#45;3 (Biomass (from Seaweed))&#45;&gt;&#45;5,5 (fluid=flue&#45;gas Flue gas) -->
<g id="edge8" class="edge">
<title>&#45;5,&#45;3 (Biomass (from Seaweed))&#45;&gt;&#45;5,5 (fluid=flue&#45;gas Flue gas)</title>
<path fill="none" stroke="black" stroke-width="3.63" d="M3765.3,-1841.76C3513.3,-1673.38 1567.67,-373.35 1280.91,-181.75"/>
<polygon fill="black" stroke="black" stroke-width="3.63" points="1282.8,-178.8 1272.54,-176.15 1278.91,-184.62 1282.8,-178.8"/>
<text text-anchor="middle" x="2463.11" y="-1015.56" font-family="Times,serif" font-size="14.00">biomass*265856</text>
</g>
<!-- &#45;5,&#45;3 (Biomass (from Seaweed))&#45;&gt;2,4 (Formica and Phenolic boards) -->
<g id="edge18" class="edge">
<title>&#45;5,&#45;3 (Biomass (from Seaweed))&#45;&gt;2,4 (Formica and Phenolic boards)</title>
<path fill="none" stroke="black" stroke-width="1.43" d="M3765.3,-1877.68C3513.3,-2046.06 1567.67,-3346.09 1280.91,-3537.69"/>
<polygon fill="black" stroke="black" stroke-width="1.43" points="1278.91,-3534.82 1272.54,-3543.29 1282.8,-3540.64 1278.91,-3534.82"/>
<text text-anchor="middle" x="2463.11" y="-2711.49" font-family="Times,serif" font-size="14.00">biomass*104704</text>
</g>
<!-- &#45;5,&#45;3 (Biomass (from Seaweed))&#45;&gt;4,6 (Circuit substrate and Doped silicon) -->
<g id="edge29" class="edge">
<title>&#45;5,&#45;3 (Biomass (from Seaweed))&#45;&gt;4,6 (Circuit substrate and Doped silicon)</title>
<path fill="none" stroke="black" stroke-width="0.55" d="M3774.25,-1877.65C3598.32,-2053.58 2182.72,-3469.18 1975.69,-3676.21"/>
<polygon fill="black" stroke="black" stroke-width="0.55" points="1973.17,-3673.78 1968.57,-3683.33 1978.12,-3678.73 1973.17,-3673.78"/>
<text text-anchor="middle" x="2819.47" y="-2780.73" font-family="Times,serif" font-size="14.00">biomass*40000</text>
</g>
<!-- &#45;5,&#45;3 (Biomass (from Seaweed))&#45;&gt;3,4 (Depot) -->
<g id="edge15" class="edge">
<title>&#45;5,&#45;3 (Biomass (from Seaweed))&#45;&gt;3,4 (Depot)</title>
<path fill="none" stroke="black" stroke-width="0.68" d="M3780.18,-1877.68C3668.16,-2045.32 2806.67,-3334.64 2672.73,-3535.09"/>
<polygon fill="black" stroke="black" stroke-width="0.68" points="2669.72,-3533.3 2667.08,-3543.56 2675.54,-3537.19 2669.72,-3533.3"/>
<text text-anchor="middle" x="3170.95" y="-2710.19" font-family="Times,serif" font-size="14.00">biomass*50016</text>
</g>
<!-- &#45;5,&#45;3 (Biomass (from Seaweed))&#45;&gt;&#45;6,&#45;2 (item=fertilizer Fertiliser) -->
<g id="edge19" class="edge">
<title>&#45;5,&#45;3 (Biomass (from Seaweed))&#45;&gt;&#45;6,&#45;2 (item=fertilizer Fertiliser)</title>
<path fill="none" stroke="black" stroke-width="0.68" d="M3750.11,-1842.3C3407.3,-1700.3 1075.6,-734.48 699.37,-578.64"/>
<polygon fill="black" stroke="black" stroke-width="0.68" points="700.66,-575.38 690.08,-574.79 697.98,-581.85 700.66,-575.38"/>
<text text-anchor="middle" x="2169.24" y="-1214.27" font-family="Times,serif" font-size="14.00">biomass*50000</text>
</g>
<!-- 3,10 (Anotherr depot) -->
<g id="node14" class="node">
<title>3,10 (Anotherr depot)</title>
<ellipse fill="none" stroke="black" cx="3975.97" cy="-1859.72" rx="111.58" ry="18"/>
<text text-anchor="middle" x="3975.97" y="-1856.02" font-family="Times,serif" font-size="14.00">3,10 (Anotherr depot)</text>
</g>
<!-- &#45;5,&#45;3 (Biomass (from Seaweed))&#45;&gt;3,10 (Anotherr depot) -->
<g id="edge17" class="edge">
<title>&#45;5,&#45;3 (Biomass (from Seaweed))&#45;&gt;3,10 (Anotherr depot)</title>
<path fill="none" stroke="black" stroke-width="1.37" d="M3948.45,-1859.72C3948.52,-1859.72 3948.58,-1859.72 3948.65,-1859.72"/>
<polygon fill="black" stroke="black" stroke-width="1.37" points="3938.84,-1863.23 3948.84,-1859.72 3938.84,-1856.23 3938.84,-1863.23"/>
<text text-anchor="middle" x="4008.55" y="-1863.52" font-family="Times,serif" font-size="14.00">biomass*100032</text>
</g>
<!-- &#45;5,&#45;3 (Biomass (from Seaweed))&#45;&gt;&#45;3,&#45;2 (Depot) -->
<g id="edge27" class="edge">
<title>&#45;5,&#45;3 (Biomass (from Seaweed))&#45;&gt;&#45;3,&#45;2 (Depot)</title>
<path fill="none" stroke="black" stroke-width="0.34" d="M3784.55,-1878.13C3725.1,-2021.66 3336.23,-2960.49 3264.21,-3134.34"/>
<polygon fill="black" stroke="black" stroke-width="0.34" points="3260.88,-3133.23 3260.29,-3143.81 3267.35,-3135.91 3260.88,-3133.23"/>
<text text-anchor="middle" x="3468.88" y="-2510.04" font-family="Times,serif" font-size="14.00">biomass*25008</text>
</g>
<!-- &#45;1,7 (Rayon) -->
<g id="node15" class="node">
<title>&#45;1,7 (Rayon)</title>
<ellipse fill="none" stroke="black" cx="3252.75" cy="-557.43" rx="66.89" ry="18"/>
<text text-anchor="middle" x="3252.75" y="-553.73" font-family="Times,serif" font-size="14.00">&#45;1,7 (Rayon)</text>
</g>
<!-- &#45;1,7 (Rayon)&#45;&gt;&#45;3,8 (Urea) -->
<g id="edge21" class="edge">
<title>&#45;1,7 (Rayon)&#45;&gt;&#45;3,8 (Urea)</title>
<path fill="none" stroke="black" stroke-width="0.06" d="M3256.39,-575.7C3293.38,-761.69 3601.22,-2309.31 3646.45,-2536.67"/>
<polygon fill="black" stroke="black" stroke-width="0.06" points="3643.02,-2537.36 3648.4,-2546.49 3649.88,-2536 3643.02,-2537.36"/>
<text text-anchor="middle" x="3400.42" y="-1559.99" font-family="Times,serif" font-size="14.00">biomass*4256</text>
</g>
<!-- &#45;1,7 (Rayon)&#45;&gt;&#45;1,6 (Flimble&#39;s Slaughterhouse and Daycare Centre, Auog Products) -->
<g id="edge22" class="edge">
<title>&#45;1,7 (Rayon)&#45;&gt;&#45;1,6 (Flimble&#39;s Slaughterhouse and Daycare Centre, Auog Products)</title>
<path fill="none" stroke="black" stroke-width="0.03" d="M3227.46,-540.53C3132.95,-477.38 2800.36,-255.15 2690.66,-181.85"/>
<polygon fill="black" stroke="black" stroke-width="0.03" points="2692.5,-178.87 2682.24,-176.23 2688.61,-184.69 2692.5,-178.87"/>
<text text-anchor="middle" x="2908.06" y="-364.99" font-family="Times,serif" font-size="14.00">biomass*2208</text>
</g>
<!-- &#45;1,7 (Rayon)&#45;&gt;&#45;4,2 (This line not currently using manure, Ralesia seeds) -->
<g id="edge23" class="edge">
<title>&#45;1,7 (Rayon)&#45;&gt;&#45;4,2 (This line not currently using manure, Ralesia seeds)</title>
<path fill="none" stroke="black" stroke-width="0.01" d="M3216.22,-542.3C3033.46,-466.6 2218.7,-129.11 2003,-39.76"/>
<polygon fill="black" stroke="black" stroke-width="0.01" points="2004.06,-36.41 1993.48,-35.82 2001.38,-42.88 2004.06,-36.41"/>
<text text-anchor="middle" x="2563.11" y="-294.83" font-family="Times,serif" font-size="14.00">biomass*544</text>
</g>
<!-- &#45;1,7 (Rayon)&#45;&gt;&#45;7,&#45;4 (Isomer&#39;s Slaughterhouse and Daycare Centre, Bone Meal) -->
<g id="edge24" class="edge">
<title>&#45;1,7 (Rayon)&#45;&gt;&#45;7,&#45;4 (Isomer&#39;s Slaughterhouse and Daycare Centre, Bone Meal)</title>
<path fill="none" stroke="black" stroke-width="0.03" d="M3264.7,-575.31C3321.69,-660.6 3565.93,-1026.14 3634.2,-1128.31"/>
<polygon fill="black" stroke="black" stroke-width="0.03" points="3631.42,-1130.45 3639.89,-1136.82 3637.24,-1126.56 3631.42,-1130.45"/>
<text text-anchor="middle" x="3398.45" y="-855.61" font-family="Times,serif" font-size="14.00">biomass*2048</text>
</g>
<!-- &#45;5,&#45;4 (low priority (slaked)? lime) -->
<g id="node16" class="node">
<title>&#45;5,&#45;4 (low priority (slaked)? lime)</title>
<ellipse fill="none" stroke="black" cx="248.93" cy="-1154.92" rx="162.47" ry="18"/>
<text text-anchor="middle" x="248.93" y="-1151.22" font-family="Times,serif" font-size="14.00">&#45;5,&#45;4 (low priority (slaked)? lime)</text>
</g>
<!-- &#45;5,&#45;4 (low priority (slaked)? lime)&#45;&gt;0,9 (Auog Brains) -->
<g id="edge30" class="edge">
<title>&#45;5,&#45;4 (low priority (slaked)? lime)&#45;&gt;0,9 (Auog Brains)</title>
<path fill="none" stroke="black" stroke-width="0.04" d="M245.32,-1173.06C226.29,-1268.75 137.5,-1715.12 114.29,-1831.77"/>
<polygon fill="black" stroke="black" stroke-width="0.04" points="110.84,-1831.22 112.32,-1841.71 117.7,-1832.59 110.84,-1831.22"/>
<text text-anchor="middle" x="128.81" y="-1506.21" font-family="Times,serif" font-size="14.00">biomass*2688</text>
</g>
<!-- &#45;5,&#45;4 (low priority (slaked)? lime)&#45;&gt;&#45;1,6 (Flimble&#39;s Slaughterhouse and Daycare Centre, Auog Products) -->
<g id="edge25" class="edge">
<title>&#45;5,&#45;4 (low priority (slaked)? lime)&#45;&gt;&#45;1,6 (Flimble&#39;s Slaughterhouse and Daycare Centre, Auog Products)</title>
<path fill="none" stroke="black" stroke-width="0.03" d="M290.95,-1137.52C580.62,-1017.53 2279.48,-313.84 2602.3,-180.13"/>
<polygon fill="black" stroke="black" stroke-width="0.03" points="2603.98,-183.22 2611.88,-176.16 2601.31,-176.75 2603.98,-183.22"/>
<text text-anchor="middle" x="1395.62" y="-662.62" font-family="Times,serif" font-size="14.00">biomass*2384</text>
</g>
<!-- &#45;5,&#45;4 (low priority (slaked)? lime)&#45;&gt;&#45;4,2 (This line not currently using manure, Ralesia seeds) -->
<g id="edge33" class="edge">
<title>&#45;5,&#45;4 (low priority (slaked)? lime)&#45;&gt;&#45;4,2 (This line not currently using manure, Ralesia seeds)</title>
<path fill="none" stroke="black" stroke-width="0.01" d="M275.65,-1137.07C472.06,-1005.83 1690.79,-191.51 1915.02,-41.68"/>
<polygon fill="black" stroke="black" stroke-width="0.01" points="1917.1,-44.5 1923.47,-36.03 1913.21,-38.68 1917.1,-44.5"/>
<text text-anchor="middle" x="1048.84" y="-593.17" font-family="Times,serif" font-size="14.00">biomass*512</text>
</g>
<!-- &#45;5,&#45;4 (low priority (slaked)? lime)&#45;&gt;&#45;5,5 (fluid=flue&#45;gas Flue gas) -->
<g id="edge31" class="edge">
<title>&#45;5,&#45;4 (low priority (slaked)? lime)&#45;&gt;&#45;5,5 (fluid=flue&#45;gas Flue gas)</title>
<path fill="none" stroke="black" stroke-width="0.68" d="M267.08,-1136.77C388.14,-1015.71 1078.1,-325.76 1220.1,-183.75"/>
<polygon fill="black" stroke="black" stroke-width="0.68" points="1222.97,-185.84 1227.56,-176.29 1218.02,-180.89 1222.97,-185.84"/>
<text text-anchor="middle" x="688.09" y="-664.06" font-family="Times,serif" font-size="14.00">biomass*50064</text>
</g>
<!-- &#45;5,&#45;4 (low priority (slaked)? lime)&#45;&gt;&#45;6,&#45;2 (item=fertilizer Fertiliser) -->
<g id="edge34" class="edge">
<title>&#45;5,&#45;4 (low priority (slaked)? lime)&#45;&gt;&#45;6,&#45;2 (item=fertilizer Fertiliser)</title>
<path fill="none" stroke="black" stroke-width="0.03" d="M261.09,-1136.72C318.49,-1050.81 562.29,-685.95 630.41,-583.99"/>
<polygon fill="black" stroke="black" stroke-width="0.03" points="633.45,-585.75 636.09,-575.49 627.63,-581.86 633.45,-585.75"/>
<text text-anchor="middle" x="394.75" y="-864.15" font-family="Times,serif" font-size="14.00">biomass*2000</text>
</g>
</g>
</svg>
