<?xml version="1.0" encoding="UTF-8" standalone="no"?>
<!DOCTYPE svg PUBLIC "-//W3C//DTD SVG 1.1//EN"
 "http://www.w3.org/Graphics/SVG/1.1/DTD/svg11.dtd">
<!-- Generated by graphviz version 2.43.0 (0)
 -->
<!-- Title: %3 Pages: 1 -->
<svg width="5138pt" height="4842pt"
 viewBox="0.00 0.00 5137.87 4841.89" xmlns="http://www.w3.org/2000/svg" xmlns:xlink="http://www.w3.org/1999/xlink">
<g id="graph0" class="graph" transform="scale(1 1) rotate(0) translate(4 4837.89)">
<title>%3</title>
<polygon fill="white" stroke="transparent" points="-4,4 -4,-4837.89 5133.87,-4837.89 5133.87,4 -4,4"/>
<!-- &#45;2,4 (fluid=drilling&#45;fluid&#45;0 Drilling fluid 1, Biomass) -->
<g id="node1" class="node">
<title>&#45;2,4 (fluid=drilling&#45;fluid&#45;0 Drilling fluid 1, Biomass)</title>
<ellipse fill="none" stroke="black" cx="3151.15" cy="-4750.45" rx="248.86" ry="18"/>
<text text-anchor="middle" x="3151.15" y="-4746.75" font-family="Times,serif" font-size="14.00">&#45;2,4 (fluid=drilling&#45;fluid&#45;0 Drilling fluid 1, Biomass)</text>
</g>
<!-- 0,9 (Auog Brains) -->
<g id="node2" class="node">
<title>0,9 (Auog Brains)</title>
<ellipse fill="none" stroke="black" cx="1593.27" cy="-4621.37" rx="91.78" ry="18"/>
<text text-anchor="middle" x="1593.27" y="-4617.67" font-family="Times,serif" font-size="14.00">0,9 (Auog Brains)</text>
</g>
<!-- &#45;2,4 (fluid=drilling&#45;fluid&#45;0 Drilling fluid 1, Biomass)&#45;&gt;0,9 (Auog Brains) -->
<g id="edge1" class="edge">
<title>&#45;2,4 (fluid=drilling&#45;fluid&#45;0 Drilling fluid 1, Biomass)&#45;&gt;0,9 (Auog Brains)</title>
<path fill="none" stroke="black" stroke-width="1.19" d="M2987.37,-4736.88C2662.62,-4709.97 1946.23,-4650.61 1688.22,-4629.23"/>
<polygon fill="black" stroke="black" stroke-width="1.19" points="1688.38,-4625.73 1678.12,-4628.4 1687.8,-4632.71 1688.38,-4625.73"/>
<text text-anchor="middle" x="2282.29" y="-4686.86" font-family="Times,serif" font-size="14.00">biomass*57920</text>
</g>
<!-- &#45;7,&#45;4 (Isomer&#39;s Slaughterhouse and Daycare Centre, Bone Meal, Auog theft) -->
<g id="node4" class="node">
<title>&#45;7,&#45;4 (Isomer&#39;s Slaughterhouse and Daycare Centre, Bone Meal, Auog theft)</title>
<ellipse fill="none" stroke="black" cx="1593.27" cy="-212.53" rx="362.04" ry="18"/>
<text text-anchor="middle" x="1593.27" y="-208.83" font-family="Times,serif" font-size="14.00">&#45;7,&#45;4 (Isomer&#39;s Slaughterhouse and Daycare Centre, Bone Meal, Auog theft)</text>
</g>
<!-- &#45;2,4 (fluid=drilling&#45;fluid&#45;0 Drilling fluid 1, Biomass)&#45;&gt;&#45;7,&#45;4 (Isomer&#39;s Slaughterhouse and Daycare Centre, Bone Meal, Auog theft) -->
<g id="edge13" class="edge">
<title>&#45;2,4 (fluid=drilling&#45;fluid&#45;0 Drilling fluid 1, Biomass)&#45;&gt;&#45;7,&#45;4 (Isomer&#39;s Slaughterhouse and Daycare Centre, Bone Meal, Auog theft)</title>
<path fill="none" stroke="black" stroke-width="1.32" d="M3144.87,-4732.17C3042.78,-4434.81 1728.1,-605.28 1602.84,-240.4"/>
<polygon fill="black" stroke="black" stroke-width="1.32" points="1606.12,-239.16 1599.56,-230.84 1599.5,-241.44 1606.12,-239.16"/>
<text text-anchor="middle" x="2318.35" y="-2490.08" font-family="Times,serif" font-size="14.00">biomass*64160</text>
</g>
<!-- &#45;4,2 (This line not currently using manure, Ralesia seeds) -->
<g id="node5" class="node">
<title>&#45;4,2 (This line not currently using manure, Ralesia seeds)</title>
<ellipse fill="none" stroke="black" cx="929.89" cy="-4187.96" rx="276.75" ry="18"/>
<text text-anchor="middle" x="929.89" y="-4184.26" font-family="Times,serif" font-size="14.00">&#45;4,2 (This line not currently using manure, Ralesia seeds)</text>
</g>
<!-- &#45;2,4 (fluid=drilling&#45;fluid&#45;0 Drilling fluid 1, Biomass)&#45;&gt;&#45;4,2 (This line not currently using manure, Ralesia seeds) -->
<g id="edge12" class="edge">
<title>&#45;2,4 (fluid=drilling&#45;fluid&#45;0 Drilling fluid 1, Biomass)&#45;&gt;&#45;4,2 (This line not currently using manure, Ralesia seeds)</title>
<path fill="none" stroke="black" stroke-width="0.77" d="M3082.54,-4733.08C2755.55,-4650.28 1356.77,-4296.06 1008.61,-4207.89"/>
<polygon fill="black" stroke="black" stroke-width="0.77" points="1009.41,-4204.48 998.86,-4205.42 1007.69,-4211.27 1009.41,-4204.48"/>
<text text-anchor="middle" x="1990.07" y="-4474.29" font-family="Times,serif" font-size="14.00">biomass*37680</text>
</g>
<!-- &#45;1,6 (Flimble&#39;s Slaughterhouse and Daycare Centre, Auog Products) -->
<g id="node6" class="node">
<title>&#45;1,6 (Flimble&#39;s Slaughterhouse and Daycare Centre, Auog Products)</title>
<ellipse fill="none" stroke="black" cx="3876.82" cy="-4432.15" rx="325.74" ry="18"/>
<text text-anchor="middle" x="3876.82" y="-4428.45" font-family="Times,serif" font-size="14.00">&#45;1,6 (Flimble&#39;s Slaughterhouse and Daycare Centre, Auog Products)</text>
</g>
<!-- &#45;2,4 (fluid=drilling&#45;fluid&#45;0 Drilling fluid 1, Biomass)&#45;&gt;&#45;1,6 (Flimble&#39;s Slaughterhouse and Daycare Centre, Auog Products) -->
<g id="edge4" class="edge">
<title>&#45;2,4 (fluid=drilling&#45;fluid&#45;0 Drilling fluid 1, Biomass)&#45;&gt;&#45;1,6 (Flimble&#39;s Slaughterhouse and Daycare Centre, Auog Products)</title>
<path fill="none" stroke="black" stroke-width="1.76" d="M3191.72,-4732.66C3315.89,-4678.19 3690.58,-4513.84 3826.7,-4454.13"/>
<polygon fill="black" stroke="black" stroke-width="1.76" points="3828.33,-4457.23 3836.08,-4450.01 3825.52,-4450.82 3828.33,-4457.23"/>
<text text-anchor="middle" x="3453.71" y="-4597.19" font-family="Times,serif" font-size="14.00">biomass*85680</text>
</g>
<!-- 0,10 (item=meat Meat) -->
<g id="node8" class="node">
<title>0,10 (item=meat Meat)</title>
<ellipse fill="none" stroke="black" cx="929.89" cy="-645.94" rx="120.48" ry="18"/>
<text text-anchor="middle" x="929.89" y="-642.24" font-family="Times,serif" font-size="14.00">0,10 (item=meat Meat)</text>
</g>
<!-- &#45;2,4 (fluid=drilling&#45;fluid&#45;0 Drilling fluid 1, Biomass)&#45;&gt;0,10 (item=meat Meat) -->
<g id="edge9" class="edge">
<title>&#45;2,4 (fluid=drilling&#45;fluid&#45;0 Drilling fluid 1, Biomass)&#45;&gt;0,10 (item=meat Meat)</title>
<path fill="none" stroke="black" stroke-width="1.42" d="M3141.24,-4732.15C2988.99,-4450.83 1129.87,-1015.47 944.72,-673.34"/>
<polygon fill="black" stroke="black" stroke-width="1.42" points="947.57,-671.25 939.73,-664.13 941.42,-674.59 947.57,-671.25"/>
<text text-anchor="middle" x="1987.48" y="-2706.55" font-family="Times,serif" font-size="14.00">biomass*69280</text>
</g>
<!-- &#45;3,8 (Urea) -->
<g id="node9" class="node">
<title>&#45;3,8 (Urea)</title>
<ellipse fill="none" stroke="black" cx="3876.82" cy="-401.75" rx="61.19" ry="18"/>
<text text-anchor="middle" x="3876.82" y="-398.05" font-family="Times,serif" font-size="14.00">&#45;3,8 (Urea)</text>
</g>
<!-- &#45;2,4 (fluid=drilling&#45;fluid&#45;0 Drilling fluid 1, Biomass)&#45;&gt;&#45;3,8 (Urea) -->
<g id="edge24" class="edge">
<title>&#45;2,4 (fluid=drilling&#45;fluid&#45;0 Drilling fluid 1, Biomass)&#45;&gt;&#45;3,8 (Urea)</title>
<path fill="none" stroke="black" stroke-width="1.44" d="M3154.22,-4732.01C3202.84,-4440.65 3811.99,-790.22 3872.06,-430.27"/>
<polygon fill="black" stroke="black" stroke-width="1.44" points="3875.55,-430.59 3873.75,-420.15 3868.65,-429.44 3875.55,-430.59"/>
<text text-anchor="middle" x="3457.64" y="-2584.94" font-family="Times,serif" font-size="14.00">biomass*70320</text>
</g>
<!-- &#45;6,&#45;2 (item=fertilizer Fertiliser) -->
<g id="node11" class="node">
<title>&#45;6,&#45;2 (item=fertilizer Fertiliser)</title>
<ellipse fill="none" stroke="black" cx="2361.44" cy="-18" rx="155.97" ry="18"/>
<text text-anchor="middle" x="2361.44" y="-14.3" font-family="Times,serif" font-size="14.00">&#45;6,&#45;2 (item=fertilizer Fertiliser)</text>
</g>
<!-- &#45;2,4 (fluid=drilling&#45;fluid&#45;0 Drilling fluid 1, Biomass)&#45;&gt;&#45;6,&#45;2 (item=fertilizer Fertiliser) -->
<g id="edge34" class="edge">
<title>&#45;2,4 (fluid=drilling&#45;fluid&#45;0 Drilling fluid 1, Biomass)&#45;&gt;&#45;6,&#45;2 (item=fertilizer Fertiliser)</title>
<path fill="none" stroke="black" stroke-width="5.04" d="M3148.13,-4732.37C3097.6,-4429.57 2428.89,-422.24 2366.15,-46.25"/>
<polygon fill="black" stroke="black" stroke-width="5.04" points="2370.47,-45.33 2364.47,-36.19 2361.77,-46.78 2370.47,-45.33"/>
<text text-anchor="middle" x="2697.14" y="-2393.11" font-family="Times,serif" font-size="14.00">biomass*245760</text>
</g>
<!-- 2,4 (Formica and Phenolic boards) -->
<g id="node12" class="node">
<title>2,4 (Formica and Phenolic boards)</title>
<ellipse fill="none" stroke="black" cx="4459.81" cy="-3895.46" rx="169.77" ry="18"/>
<text text-anchor="middle" x="4459.81" y="-3891.76" font-family="Times,serif" font-size="14.00">2,4 (Formica and Phenolic boards)</text>
</g>
<!-- &#45;2,4 (fluid=drilling&#45;fluid&#45;0 Drilling fluid 1, Biomass)&#45;&gt;2,4 (Formica and Phenolic boards) -->
<g id="edge18" class="edge">
<title>&#45;2,4 (fluid=drilling&#45;fluid&#45;0 Drilling fluid 1, Biomass)&#45;&gt;2,4 (Formica and Phenolic boards)</title>
<path fill="none" stroke="black" stroke-width="1.43" d="M3178.78,-4732.4C3347.11,-4622.42 4233.65,-4043.22 4423.86,-3918.95"/>
<polygon fill="black" stroke="black" stroke-width="1.43" points="4425.93,-3921.78 4432.38,-3913.38 4422.1,-3915.92 4425.93,-3921.78"/>
<text text-anchor="middle" x="3745.82" y="-4329.47" font-family="Times,serif" font-size="14.00">biomass*69760</text>
</g>
<!-- &#45;5,5 (fluid=flue&#45;gas Flue gas) -->
<g id="node14" class="node">
<title>&#45;5,5 (fluid=flue&#45;gas Flue gas)</title>
<ellipse fill="none" stroke="black" cx="2361.44" cy="-4815.89" rx="145.67" ry="18"/>
<text text-anchor="middle" x="2361.44" y="-4812.19" font-family="Times,serif" font-size="14.00">&#45;5,5 (fluid=flue&#45;gas Flue gas)</text>
</g>
<!-- &#45;2,4 (fluid=drilling&#45;fluid&#45;0 Drilling fluid 1, Biomass)&#45;&gt;&#45;5,5 (fluid=flue&#45;gas Flue gas) -->
<g id="edge57" class="edge">
<title>&#45;2,4 (fluid=drilling&#45;fluid&#45;0 Drilling fluid 1, Biomass)&#45;&gt;&#45;5,5 (fluid=flue&#45;gas Flue gas)</title>
<path fill="none" stroke="black" stroke-width="4.24" d="M2987.04,-4764.05C2840.34,-4776.21 2628.17,-4793.79 2492.53,-4805.03"/>
<polygon fill="black" stroke="black" stroke-width="4.24" points="2492.15,-4801.34 2482.49,-4805.86 2492.76,-4808.73 2492.15,-4801.34"/>
<text text-anchor="middle" x="2679.78" y="-4788.34" font-family="Times,serif" font-size="14.00">biomass*206720</text>
</g>
<!-- 7,0 (item=bhoddos Bhoddos) -->
<g id="node16" class="node">
<title>7,0 (item=bhoddos Bhoddos)</title>
<ellipse fill="none" stroke="black" cx="4836.96" cy="-3198.55" rx="145.67" ry="18"/>
<text text-anchor="middle" x="4836.96" y="-3194.85" font-family="Times,serif" font-size="14.00">7,0 (item=bhoddos Bhoddos)</text>
</g>
<!-- &#45;2,4 (fluid=drilling&#45;fluid&#45;0 Drilling fluid 1, Biomass)&#45;&gt;7,0 (item=bhoddos Bhoddos) -->
<g id="edge54" class="edge">
<title>&#45;2,4 (fluid=drilling&#45;fluid&#45;0 Drilling fluid 1, Biomass)&#45;&gt;7,0 (item=bhoddos Bhoddos)</title>
<path fill="none" stroke="black" stroke-width="0.51" d="M3170.66,-4732.49C3343.33,-4573.54 4608.21,-3409.13 4809.88,-3223.48"/>
<polygon fill="black" stroke="black" stroke-width="0.51" points="4812.41,-3225.91 4817.39,-3216.56 4807.67,-3220.76 4812.41,-3225.91"/>
<text text-anchor="middle" x="3934.77" y="-3981.78" font-family="Times,serif" font-size="14.00">biomass*25040</text>
</g>
<!-- 1,3 (item=korlex&#45;food&#45;01 Korlex food) -->
<g id="node17" class="node">
<title>1,3 (item=korlex&#45;food&#45;01 Korlex food)</title>
<ellipse fill="none" stroke="black" cx="185.88" cy="-2020.74" rx="185.77" ry="18"/>
<text text-anchor="middle" x="185.88" y="-2017.04" font-family="Times,serif" font-size="14.00">1,3 (item=korlex&#45;food&#45;01 Korlex food)</text>
</g>
<!-- &#45;2,4 (fluid=drilling&#45;fluid&#45;0 Drilling fluid 1, Biomass)&#45;&gt;1,3 (item=korlex&#45;food&#45;01 Korlex food) -->
<g id="edge23" class="edge">
<title>&#45;2,4 (fluid=drilling&#45;fluid&#45;0 Drilling fluid 1, Biomass)&#45;&gt;1,3 (item=korlex&#45;food&#45;01 Korlex food)</title>
<path fill="none" stroke="black" stroke-width="0.13" d="M3131.43,-4732.3C2889.36,-4509.46 495.16,-2305.45 213,-2045.7"/>
<polygon fill="black" stroke="black" stroke-width="0.13" points="215.36,-2043.12 205.63,-2038.92 210.62,-2048.27 215.36,-2043.12"/>
<text text-anchor="middle" x="1621.21" y="-3392.8" font-family="Times,serif" font-size="14.00">biomass*6240</text>
</g>
<!-- &#45;4,&#45;10 (Biomass 2) -->
<g id="node3" class="node">
<title>&#45;4,&#45;10 (Biomass 2)</title>
<ellipse fill="none" stroke="black" cx="443.18" cy="-1271.26" rx="94.78" ry="18"/>
<text text-anchor="middle" x="443.18" y="-1267.56" font-family="Times,serif" font-size="14.00">&#45;4,&#45;10 (Biomass 2)</text>
</g>
<!-- &#45;4,&#45;10 (Biomass 2)&#45;&gt;0,9 (Auog Brains) -->
<g id="edge25" class="edge">
<title>&#45;4,&#45;10 (Biomass 2)&#45;&gt;0,9 (Auog Brains)</title>
<path fill="none" stroke="black" stroke-width="1.03" d="M449.37,-1289.29C534.81,-1538.18 1478.08,-4285.84 1583.68,-4593.42"/>
<polygon fill="black" stroke="black" stroke-width="1.03" points="1580.52,-4595 1587.08,-4603.32 1587.14,-4592.73 1580.52,-4595"/>
<text text-anchor="middle" x="961.02" y="-2945.15" font-family="Times,serif" font-size="14.00">biomass*50160</text>
</g>
<!-- &#45;4,&#45;10 (Biomass 2)&#45;&gt;&#45;7,&#45;4 (Isomer&#39;s Slaughterhouse and Daycare Centre, Bone Meal, Auog theft) -->
<g id="edge2" class="edge">
<title>&#45;4,&#45;10 (Biomass 2)&#45;&gt;&#45;7,&#45;4 (Isomer&#39;s Slaughterhouse and Daycare Centre, Bone Meal, Auog theft)</title>
<path fill="none" stroke="black" stroke-width="1.21" d="M462.66,-1253.33C598.8,-1128 1407.11,-383.9 1566.13,-237.52"/>
<polygon fill="black" stroke="black" stroke-width="1.21" points="1568.63,-239.97 1573.62,-230.62 1563.89,-234.82 1568.63,-239.97"/>
<text text-anchor="middle" x="958.89" y="-749.22" font-family="Times,serif" font-size="14.00">biomass*59040</text>
</g>
<!-- &#45;4,&#45;10 (Biomass 2)&#45;&gt;&#45;4,2 (This line not currently using manure, Ralesia seeds) -->
<g id="edge3" class="edge">
<title>&#45;4,&#45;10 (Biomass 2)&#45;&gt;&#45;4,2 (This line not currently using manure, Ralesia seeds)</title>
<path fill="none" stroke="black" stroke-width="0.6" d="M446.22,-1289.51C484.81,-1520.71 877.87,-3876.22 925.23,-4160.02"/>
<polygon fill="black" stroke="black" stroke-width="0.6" points="921.78,-4160.65 926.88,-4169.93 928.69,-4159.49 921.78,-4160.65"/>
<text text-anchor="middle" x="630.23" y="-2728.56" font-family="Times,serif" font-size="14.00">biomass*29280</text>
</g>
<!-- &#45;4,&#45;10 (Biomass 2)&#45;&gt;&#45;1,6 (Flimble&#39;s Slaughterhouse and Daycare Centre, Auog Products) -->
<g id="edge10" class="edge">
<title>&#45;4,&#45;10 (Biomass 2)&#45;&gt;&#45;1,6 (Flimble&#39;s Slaughterhouse and Daycare Centre, Auog Products)</title>
<path fill="none" stroke="black" stroke-width="1.26" d="M462.49,-1289.04C723.23,-1529.06 3541.63,-4123.58 3849.56,-4407.05"/>
<polygon fill="black" stroke="black" stroke-width="1.26" points="3847.43,-4409.85 3857.16,-4414.05 3852.17,-4404.7 3847.43,-4409.85"/>
<text text-anchor="middle" x="2100.52" y="-2851.85" font-family="Times,serif" font-size="14.00">biomass*61680</text>
</g>
<!-- &#45;4,&#45;10 (Biomass 2)&#45;&gt;0,10 (item=meat Meat) -->
<g id="edge32" class="edge">
<title>&#45;4,&#45;10 (Biomass 2)&#45;&gt;0,10 (item=meat Meat)</title>
<path fill="none" stroke="black" stroke-width="0.62" d="M457.22,-1253.22C526.05,-1164.79 827.75,-777.16 909.43,-672.22"/>
<polygon fill="black" stroke="black" stroke-width="0.62" points="912.41,-674.09 915.79,-664.05 906.89,-669.79 912.41,-674.09"/>
<text text-anchor="middle" x="627.83" y="-966.52" font-family="Times,serif" font-size="14.00">biomass*30480</text>
</g>
<!-- &#45;4,&#45;10 (Biomass 2)&#45;&gt;&#45;3,8 (Urea) -->
<g id="edge6" class="edge">
<title>&#45;4,&#45;10 (Biomass 2)&#45;&gt;&#45;3,8 (Urea)</title>
<path fill="none" stroke="black" stroke-width="0.98" d="M500.27,-1256.8C911.13,-1152.76 3412.36,-519.36 3820.52,-416"/>
<polygon fill="black" stroke="black" stroke-width="0.98" points="3821.5,-419.37 3830.33,-413.52 3819.78,-412.58 3821.5,-419.37"/>
<text text-anchor="middle" x="2104.89" y="-840.2" font-family="Times,serif" font-size="14.00">biomass*48000</text>
</g>
<!-- &#45;4,&#45;10 (Biomass 2)&#45;&gt;&#45;6,&#45;2 (item=fertilizer Fertiliser) -->
<g id="edge19" class="edge">
<title>&#45;4,&#45;10 (Biomass 2)&#45;&gt;&#45;6,&#45;2 (item=fertilizer Fertiliser)</title>
<path fill="none" stroke="black" stroke-width="8.42" d="M469.93,-1253.78C681.55,-1115.52 2083.56,-199.55 2325.81,-41.28"/>
<polygon fill="black" stroke="black" stroke-width="8.42" points="2329.91,-47.4 2334.26,-35.76 2321.85,-35.06 2329.91,-47.4"/>
<text text-anchor="middle" x="1337.87" y="-651.33" font-family="Times,serif" font-size="14.00">biomass*410640</text>
</g>
<!-- &#45;4,&#45;10 (Biomass 2)&#45;&gt;2,4 (Formica and Phenolic boards) -->
<g id="edge8" class="edge">
<title>&#45;4,&#45;10 (Biomass 2)&#45;&gt;2,4 (Formica and Phenolic boards)</title>
<path fill="none" stroke="black" stroke-width="0.3" d="M469.89,-1288.71C798.02,-1503.09 4045.53,-3624.79 4423.9,-3872"/>
<polygon fill="black" stroke="black" stroke-width="0.3" points="4422.26,-3875.11 4432.55,-3877.65 4426.09,-3869.25 4422.26,-3875.11"/>
<text text-anchor="middle" x="2391.4" y="-2584.15" font-family="Times,serif" font-size="14.00">biomass*14640</text>
</g>
<!-- &#45;4,&#45;10 (Biomass 2)&#45;&gt;&#45;5,5 (fluid=flue&#45;gas Flue gas) -->
<g id="edge41" class="edge">
<title>&#45;4,&#45;10 (Biomass 2)&#45;&gt;&#45;5,5 (fluid=flue&#45;gas Flue gas)</title>
<path fill="none" stroke="black" stroke-width="5.07" d="M453.04,-1289.49C592.95,-1548.02 2176.84,-4474.79 2346.7,-4788.66"/>
<polygon fill="black" stroke="black" stroke-width="5.07" points="2342.86,-4790.89 2351.52,-4797.57 2350.67,-4786.67 2342.86,-4790.89"/>
<text text-anchor="middle" x="1339.87" y="-3042.88" font-family="Times,serif" font-size="14.00">biomass*247440</text>
</g>
<!-- &#45;4,&#45;10 (Biomass 2)&#45;&gt;1,3 (item=korlex&#45;food&#45;01 Korlex food) -->
<g id="edge30" class="edge">
<title>&#45;4,&#45;10 (Biomass 2)&#45;&gt;1,3 (item=korlex&#45;food&#45;01 Korlex food)</title>
<path fill="none" stroke="black" stroke-width="0.35" d="M436.95,-1289.42C402.68,-1389.23 237.25,-1871.1 195.48,-1992.78"/>
<polygon fill="black" stroke="black" stroke-width="0.35" points="192.09,-1991.89 192.15,-2002.49 198.71,-1994.17 192.09,-1991.89"/>
<text text-anchor="middle" x="260.71" y="-1644.9" font-family="Times,serif" font-size="14.00">biomass*17280</text>
</g>
<!-- 4,6 (Circuit substrate and Doped silicon) -->
<g id="node18" class="node">
<title>4,6 (Circuit substrate and Doped silicon)</title>
<ellipse fill="none" stroke="black" cx="4459.81" cy="-938.43" rx="199.56" ry="18"/>
<text text-anchor="middle" x="4459.81" y="-934.73" font-family="Times,serif" font-size="14.00">4,6 (Circuit substrate and Doped silicon)</text>
</g>
<!-- &#45;4,&#45;10 (Biomass 2)&#45;&gt;4,6 (Circuit substrate and Doped silicon) -->
<g id="edge59" class="edge">
<title>&#45;4,&#45;10 (Biomass 2)&#45;&gt;4,6 (Circuit substrate and Doped silicon)</title>
<path fill="none" stroke="black" stroke-width="0.21" d="M530.34,-1264.04C1039.95,-1221.81 3634.4,-1006.83 4302.65,-951.46"/>
<polygon fill="black" stroke="black" stroke-width="0.21" points="4303.15,-954.93 4312.83,-950.61 4302.58,-947.95 4303.15,-954.93"/>
<text text-anchor="middle" x="2361" y="-1111.55" font-family="Times,serif" font-size="14.00">biomass*10080</text>
</g>
<!-- 8,&#45;8 (Moar bhoddos) -->
<g id="node19" class="node">
<title>8,&#45;8 (Moar bhoddos)</title>
<ellipse fill="none" stroke="black" cx="185.88" cy="-2813.15" rx="104.78" ry="18"/>
<text text-anchor="middle" x="185.88" y="-2809.45" font-family="Times,serif" font-size="14.00">8,&#45;8 (Moar bhoddos)</text>
</g>
<!-- &#45;4,&#45;10 (Biomass 2)&#45;&gt;8,&#45;8 (Moar bhoddos) -->
<g id="edge36" class="edge">
<title>&#45;4,&#45;10 (Biomass 2)&#45;&gt;8,&#45;8 (Moar bhoddos)</title>
<path fill="none" stroke="black" stroke-width="1.03" d="M440.16,-1289.38C413.79,-1447.4 223.06,-2590.39 190.58,-2785.01"/>
<polygon fill="black" stroke="black" stroke-width="1.03" points="187.1,-2784.58 188.91,-2795.02 194.01,-2785.73 187.1,-2784.58"/>
<text text-anchor="middle" x="370.87" y="-2041" font-family="Times,serif" font-size="14.00">biomass*50400</text>
</g>
<!-- 5,&#45;1 (Drilling Fluid Type 2, I think my maths is backwards) -->
<g id="node7" class="node">
<title>5,&#45;1 (Drilling Fluid Type 2, I think my maths is backwards)</title>
<ellipse fill="none" stroke="black" cx="4836.96" cy="-1635.34" rx="282.15" ry="18"/>
<text text-anchor="middle" x="4836.96" y="-1631.64" font-family="Times,serif" font-size="14.00">5,&#45;1 (Drilling Fluid Type 2, I think my maths is backwards)</text>
</g>
<!-- 5,&#45;1 (Drilling Fluid Type 2, I think my maths is backwards)&#45;&gt;0,9 (Auog Brains) -->
<g id="edge14" class="edge">
<title>5,&#45;1 (Drilling Fluid Type 2, I think my maths is backwards)&#45;&gt;0,9 (Auog Brains)</title>
<path fill="none" stroke="black" stroke-width="0.48" d="M4817.09,-1653.63C4561.27,-1889.13 1916.7,-4323.63 1620.25,-4596.53"/>
<polygon fill="black" stroke="black" stroke-width="0.48" points="1617.53,-4594.28 1612.55,-4603.62 1622.27,-4599.43 1617.53,-4594.28"/>
<text text-anchor="middle" x="3163.17" y="-3128.88" font-family="Times,serif" font-size="14.00">biomass*23488</text>
</g>
<!-- 5,&#45;1 (Drilling Fluid Type 2, I think my maths is backwards)&#45;&gt;&#45;7,&#45;4 (Isomer&#39;s Slaughterhouse and Daycare Centre, Bone Meal, Auog theft) -->
<g id="edge11" class="edge">
<title>5,&#45;1 (Drilling Fluid Type 2, I think my maths is backwards)&#45;&gt;&#45;7,&#45;4 (Isomer&#39;s Slaughterhouse and Daycare Centre, Bone Meal, Auog theft)</title>
<path fill="none" stroke="black" stroke-width="0.35" d="M4796.24,-1617.48C4451.5,-1466.26 2024.79,-401.81 1643.61,-234.61"/>
<polygon fill="black" stroke="black" stroke-width="0.35" points="1644.77,-231.29 1634.21,-230.48 1641.96,-237.71 1644.77,-231.29"/>
<text text-anchor="middle" x="3164.42" y="-929.84" font-family="Times,serif" font-size="14.00">biomass*17072</text>
</g>
<!-- 5,&#45;1 (Drilling Fluid Type 2, I think my maths is backwards)&#45;&gt;&#45;4,2 (This line not currently using manure, Ralesia seeds) -->
<g id="edge53" class="edge">
<title>5,&#45;1 (Drilling Fluid Type 2, I think my maths is backwards)&#45;&gt;&#45;4,2 (This line not currently using manure, Ralesia seeds)</title>
<path fill="none" stroke="black" stroke-width="0.05" d="M4809.39,-1653.35C4481.79,-1867.39 1338.15,-3921.23 965.86,-4164.46"/>
<polygon fill="black" stroke="black" stroke-width="0.05" points="963.8,-4161.62 957.34,-4170.02 967.62,-4167.48 963.8,-4161.62"/>
<text text-anchor="middle" x="2836.62" y="-2912.7" font-family="Times,serif" font-size="14.00">biomass*2592</text>
</g>
<!-- 5,&#45;1 (Drilling Fluid Type 2, I think my maths is backwards)&#45;&gt;&#45;1,6 (Flimble&#39;s Slaughterhouse and Daycare Centre, Auog Products) -->
<g id="edge16" class="edge">
<title>5,&#45;1 (Drilling Fluid Type 2, I think my maths is backwards)&#45;&gt;&#45;1,6 (Flimble&#39;s Slaughterhouse and Daycare Centre, Auog Products)</title>
<path fill="none" stroke="black" stroke-width="0.53" d="M4830.7,-1653.57C4753.27,-1879.12 3981.61,-4126.88 3886.43,-4404.15"/>
<polygon fill="black" stroke="black" stroke-width="0.53" points="3883.03,-4403.26 3883.1,-4413.86 3889.65,-4405.53 3883.03,-4403.26"/>
<text text-anchor="middle" x="4303.07" y="-3032.66" font-family="Times,serif" font-size="14.00">biomass*25952</text>
</g>
<!-- 5,&#45;1 (Drilling Fluid Type 2, I think my maths is backwards)&#45;&gt;0,10 (item=meat Meat) -->
<g id="edge5" class="edge">
<title>5,&#45;1 (Drilling Fluid Type 2, I think my maths is backwards)&#45;&gt;0,10 (item=meat Meat)</title>
<path fill="none" stroke="black" stroke-width="0.3" d="M4767.9,-1617.85C4290.58,-1496.98 1486.06,-786.78 1001.27,-664.01"/>
<polygon fill="black" stroke="black" stroke-width="0.3" points="1001.81,-660.54 991.25,-661.47 1000.09,-667.32 1001.81,-660.54"/>
<text text-anchor="middle" x="2829.09" y="-1144.73" font-family="Times,serif" font-size="14.00">biomass*14864</text>
</g>
<!-- 5,&#45;1 (Drilling Fluid Type 2, I think my maths is backwards)&#45;&gt;&#45;3,8 (Urea) -->
<g id="edge15" class="edge">
<title>5,&#45;1 (Drilling Fluid Type 2, I think my maths is backwards)&#45;&gt;&#45;3,8 (Urea)</title>
<path fill="none" stroke="black" stroke-width="0.26" d="M4822.64,-1616.94C4714.24,-1477.67 4023.51,-590.22 3896.78,-427.39"/>
<polygon fill="black" stroke="black" stroke-width="0.26" points="3899.43,-425.1 3890.52,-419.36 3893.9,-429.4 3899.43,-425.1"/>
<text text-anchor="middle" x="4304.21" y="-1025.97" font-family="Times,serif" font-size="14.00">biomass*12832</text>
</g>
<!-- 5,&#45;1 (Drilling Fluid Type 2, I think my maths is backwards)&#45;&gt;&#45;6,&#45;2 (item=fertilizer Fertiliser) -->
<g id="edge58" class="edge">
<title>5,&#45;1 (Drilling Fluid Type 2, I think my maths is backwards)&#45;&gt;&#45;6,&#45;2 (item=fertilizer Fertiliser)</title>
<path fill="none" stroke="black" stroke-width="0.68" d="M4809.16,-1617.18C4557.85,-1452.99 2680.96,-226.76 2397.3,-41.43"/>
<polygon fill="black" stroke="black" stroke-width="0.68" points="2398.92,-38.31 2388.63,-35.77 2395.09,-44.17 2398.92,-38.31"/>
<text text-anchor="middle" x="3547.73" y="-833.1" font-family="Times,serif" font-size="14.00">biomass*33232</text>
</g>
<!-- 5,&#45;1 (Drilling Fluid Type 2, I think my maths is backwards)&#45;&gt;7,0 (item=bhoddos Bhoddos) -->
<g id="edge40" class="edge">
<title>5,&#45;1 (Drilling Fluid Type 2, I think my maths is backwards)&#45;&gt;7,0 (item=bhoddos Bhoddos)</title>
<path fill="none" stroke="black" stroke-width="1.03" d="M4836.96,-1653.44C4836.96,-1812.67 4836.96,-2973.7 4836.96,-3170.3"/>
<polygon fill="black" stroke="black" stroke-width="1.03" points="4833.46,-3170.41 4836.96,-3180.41 4840.46,-3170.41 4833.46,-3170.41"/>
<text text-anchor="middle" x="4781.46" y="-2400.67" font-family="Times,serif" font-size="14.00">biomass*50160</text>
</g>
<!-- 5,&#45;1 (Drilling Fluid Type 2, I think my maths is backwards)&#45;&gt;1,3 (item=korlex&#45;food&#45;01 Korlex food) -->
<g id="edge38" class="edge">
<title>5,&#45;1 (Drilling Fluid Type 2, I think my maths is backwards)&#45;&gt;1,3 (item=korlex&#45;food&#45;01 Korlex food)</title>
<path fill="none" stroke="black" stroke-width="0.08" d="M4664.52,-1649.63C3925.76,-1710.84 1033.98,-1950.46 337.43,-2008.18"/>
<polygon fill="black" stroke="black" stroke-width="0.08" points="337.01,-2004.7 327.33,-2009.02 337.59,-2011.68 337.01,-2004.7"/>
<text text-anchor="middle" x="2449.97" y="-1832.71" font-family="Times,serif" font-size="14.00">biomass*4032</text>
</g>
<!-- 5,&#45;1 (Drilling Fluid Type 2, I think my maths is backwards)&#45;&gt;4,6 (Circuit substrate and Doped silicon) -->
<g id="edge45" class="edge">
<title>5,&#45;1 (Drilling Fluid Type 2, I think my maths is backwards)&#45;&gt;4,6 (Circuit substrate and Doped silicon)</title>
<path fill="none" stroke="black" stroke-width="0.21" d="M4827.07,-1617.06C4775.35,-1521.49 4536.12,-1079.43 4474.38,-965.35"/>
<polygon fill="black" stroke="black" stroke-width="0.21" points="4477.44,-963.65 4469.6,-956.52 4471.29,-966.98 4477.44,-963.65"/>
<text text-anchor="middle" x="4595.22" y="-1295" font-family="Times,serif" font-size="14.00">biomass*10000</text>
</g>
<!-- &#45;1,7 (Rayon) -->
<g id="node10" class="node">
<title>&#45;1,7 (Rayon)</title>
<ellipse fill="none" stroke="black" cx="3151.15" cy="-83.44" rx="66.89" ry="18"/>
<text text-anchor="middle" x="3151.15" y="-79.74" font-family="Times,serif" font-size="14.00">&#45;1,7 (Rayon)</text>
</g>
<!-- &#45;1,7 (Rayon)&#45;&gt;0,9 (Auog Brains) -->
<g id="edge35" class="edge">
<title>&#45;1,7 (Rayon)&#45;&gt;0,9 (Auog Brains)</title>
<path fill="none" stroke="black" stroke-width="0.14" d="M3144.87,-101.72C3042.78,-399.08 1728.1,-4228.62 1602.84,-4593.49"/>
<polygon fill="black" stroke="black" stroke-width="0.14" points="1599.5,-4592.45 1599.56,-4603.05 1606.12,-4594.73 1599.5,-4592.45"/>
<text text-anchor="middle" x="2322.85" y="-2351.41" font-family="Times,serif" font-size="14.00">biomass*6624</text>
</g>
<!-- &#45;1,7 (Rayon)&#45;&gt;&#45;7,&#45;4 (Isomer&#39;s Slaughterhouse and Daycare Centre, Bone Meal, Auog theft) -->
<g id="edge37" class="edge">
<title>&#45;1,7 (Rayon)&#45;&gt;&#45;7,&#45;4 (Isomer&#39;s Slaughterhouse and Daycare Centre, Bone Meal, Auog theft)</title>
<path fill="none" stroke="black" stroke-width="0.17" d="M3086.68,-88.78C2867.14,-106.97 2142.75,-167 1789.89,-196.23"/>
<polygon fill="black" stroke="black" stroke-width="0.17" points="1789.5,-192.75 1779.82,-197.07 1790.07,-199.73 1789.5,-192.75"/>
<text text-anchor="middle" x="2387.29" y="-146.31" font-family="Times,serif" font-size="14.00">biomass*8400</text>
</g>
<!-- &#45;1,7 (Rayon)&#45;&gt;&#45;4,2 (This line not currently using manure, Ralesia seeds) -->
<g id="edge43" class="edge">
<title>&#45;1,7 (Rayon)&#45;&gt;&#45;4,2 (This line not currently using manure, Ralesia seeds)</title>
<path fill="none" stroke="black" stroke-width="0.05" d="M3141.48,-101.29C2990.99,-379.38 1130.07,-3818.06 944.74,-4160.52"/>
<polygon fill="black" stroke="black" stroke-width="0.05" points="941.43,-4159.29 939.74,-4169.75 947.58,-4162.62 941.43,-4159.29"/>
<text text-anchor="middle" x="1992.11" y="-2134.71" font-family="Times,serif" font-size="14.00">biomass*2432</text>
</g>
<!-- &#45;1,7 (Rayon)&#45;&gt;&#45;1,6 (Flimble&#39;s Slaughterhouse and Daycare Centre, Auog Products) -->
<g id="edge56" class="edge">
<title>&#45;1,7 (Rayon)&#45;&gt;&#45;1,6 (Flimble&#39;s Slaughterhouse and Daycare Centre, Auog Products)</title>
<path fill="none" stroke="black" stroke-width="0.1" d="M3154.22,-101.88C3202.84,-393.24 3811.99,-4043.68 3872.06,-4403.62"/>
<polygon fill="black" stroke="black" stroke-width="0.1" points="3868.65,-4404.45 3873.75,-4413.74 3875.55,-4403.3 3868.65,-4404.45"/>
<text text-anchor="middle" x="3462.14" y="-2256.55" font-family="Times,serif" font-size="14.00">biomass*4704</text>
</g>
<!-- &#45;1,7 (Rayon)&#45;&gt;0,10 (item=meat Meat) -->
<g id="edge21" class="edge">
<title>&#45;1,7 (Rayon)&#45;&gt;0,10 (item=meat Meat)</title>
<path fill="none" stroke="black" stroke-width="0.39" d="M3102.16,-95.84C2814.24,-168.75 1343.01,-541.32 1000.99,-627.93"/>
<polygon fill="black" stroke="black" stroke-width="0.39" points="1000.04,-624.56 991.2,-630.41 1001.76,-631.35 1000.04,-624.56"/>
<text text-anchor="middle" x="1996.08" y="-365.69" font-family="Times,serif" font-size="14.00">biomass*19072</text>
</g>
<!-- &#45;1,7 (Rayon)&#45;&gt;&#45;3,8 (Urea) -->
<g id="edge39" class="edge">
<title>&#45;1,7 (Rayon)&#45;&gt;&#45;3,8 (Urea)</title>
<path fill="none" stroke="black" stroke-width="0.34" d="M3186.15,-98.79C3306.16,-151.43 3700.86,-324.57 3833.16,-382.6"/>
<polygon fill="black" stroke="black" stroke-width="0.34" points="3832.02,-385.92 3842.59,-386.73 3834.84,-379.51 3832.02,-385.92"/>
<text text-anchor="middle" x="3454.15" y="-244.49" font-family="Times,serif" font-size="14.00">biomass*16784</text>
</g>
<!-- &#45;1,7 (Rayon)&#45;&gt;&#45;6,&#45;2 (item=fertilizer Fertiliser) -->
<g id="edge7" class="edge">
<title>&#45;1,7 (Rayon)&#45;&gt;&#45;6,&#45;2 (item=fertilizer Fertiliser)</title>
<path fill="none" stroke="black" stroke-width="1.36" d="M3086.85,-78.11C2959.11,-67.52 2670.85,-43.64 2498.64,-29.37"/>
<polygon fill="black" stroke="black" stroke-width="1.36" points="2498.74,-25.87 2488.49,-28.53 2498.17,-32.84 2498.74,-25.87"/>
<text text-anchor="middle" x="2737.25" y="-57.54" font-family="Times,serif" font-size="14.00">biomass*66464</text>
</g>
<!-- &#45;1,7 (Rayon)&#45;&gt;2,4 (Formica and Phenolic boards) -->
<g id="edge49" class="edge">
<title>&#45;1,7 (Rayon)&#45;&gt;2,4 (Formica and Phenolic boards)</title>
<path fill="none" stroke="black" stroke-width="0.11" d="M3157.42,-101.71C3249.96,-371.29 4336.86,-3537.32 4450.26,-3867.64"/>
<polygon fill="black" stroke="black" stroke-width="0.11" points="4447.05,-3869.07 4453.61,-3877.39 4453.68,-3866.8 4447.05,-3869.07"/>
<text text-anchor="middle" x="3752.84" y="-1988.48" font-family="Times,serif" font-size="14.00">biomass*5424</text>
</g>
<!-- &#45;1,7 (Rayon)&#45;&gt;4,6 (Circuit substrate and Doped silicon) -->
<g id="edge33" class="edge">
<title>&#45;1,7 (Rayon)&#45;&gt;4,6 (Circuit substrate and Doped silicon)</title>
<path fill="none" stroke="black" stroke-width="0.21" d="M3176.7,-100.13C3339.67,-206.61 4233.01,-790.25 4423.91,-914.97"/>
<polygon fill="black" stroke="black" stroke-width="0.21" points="4422.18,-918.02 4432.46,-920.56 4426,-912.16 4422.18,-918.02"/>
<text text-anchor="middle" x="3744.8" y="-511.35" font-family="Times,serif" font-size="14.00">biomass*10000</text>
</g>
<!-- &#45;5,&#45;3 (Biomass (from Seaweed)) -->
<g id="node13" class="node">
<title>&#45;5,&#45;3 (Biomass (from Seaweed))</title>
<ellipse fill="none" stroke="black" cx="443.18" cy="-3562.63" rx="155.97" ry="18"/>
<text text-anchor="middle" x="443.18" y="-3558.93" font-family="Times,serif" font-size="14.00">&#45;5,&#45;3 (Biomass (from Seaweed))</text>
</g>
<!-- &#45;5,&#45;3 (Biomass (from Seaweed))&#45;&gt;0,9 (Auog Brains) -->
<g id="edge51" class="edge">
<title>&#45;5,&#45;3 (Biomass (from Seaweed))&#45;&gt;0,9 (Auog Brains)</title>
<path fill="none" stroke="black" stroke-width="0.31" d="M462.66,-3580.56C598.94,-3706.02 1408.83,-4451.58 1566.63,-4596.84"/>
<polygon fill="black" stroke="black" stroke-width="0.31" points="1564.33,-4599.48 1574.06,-4603.68 1569.07,-4594.33 1564.33,-4599.48"/>
<text text-anchor="middle" x="959.15" y="-4092.5" font-family="Times,serif" font-size="14.00">biomass*14880</text>
</g>
<!-- &#45;5,&#45;3 (Biomass (from Seaweed))&#45;&gt;&#45;7,&#45;4 (Isomer&#39;s Slaughterhouse and Daycare Centre, Bone Meal, Auog theft) -->
<g id="edge26" class="edge">
<title>&#45;5,&#45;3 (Biomass (from Seaweed))&#45;&gt;&#45;7,&#45;4 (Isomer&#39;s Slaughterhouse and Daycare Centre, Bone Meal, Auog theft)</title>
<path fill="none" stroke="black" stroke-width="0.44" d="M449.37,-3544.61C534.81,-3295.71 1478.08,-548.06 1583.68,-240.47"/>
<polygon fill="black" stroke="black" stroke-width="0.44" points="1587.14,-241.16 1587.08,-230.57 1580.52,-238.89 1587.14,-241.16"/>
<text text-anchor="middle" x="961.02" y="-1896.34" font-family="Times,serif" font-size="14.00">biomass*21600</text>
</g>
<!-- &#45;5,&#45;3 (Biomass (from Seaweed))&#45;&gt;&#45;4,2 (This line not currently using manure, Ralesia seeds) -->
<g id="edge52" class="edge">
<title>&#45;5,&#45;3 (Biomass (from Seaweed))&#45;&gt;&#45;4,2 (This line not currently using manure, Ralesia seeds)</title>
<path fill="none" stroke="black" stroke-width="0.05" d="M457.22,-3580.67C526.05,-3669.1 827.75,-4056.73 909.43,-4161.68"/>
<polygon fill="black" stroke="black" stroke-width="0.05" points="906.89,-4164.1 915.79,-4169.84 912.41,-4159.8 906.89,-4164.1"/>
<text text-anchor="middle" x="632.33" y="-3874.97" font-family="Times,serif" font-size="14.00">biomass*2400</text>
</g>
<!-- &#45;5,&#45;3 (Biomass (from Seaweed))&#45;&gt;&#45;1,6 (Flimble&#39;s Slaughterhouse and Daycare Centre, Auog Products) -->
<g id="edge29" class="edge">
<title>&#45;5,&#45;3 (Biomass (from Seaweed))&#45;&gt;&#45;1,6 (Flimble&#39;s Slaughterhouse and Daycare Centre, Auog Products)</title>
<path fill="none" stroke="black" stroke-width="0.41" d="M507.95,-3579.03C933.81,-3686.88 3329.89,-4293.65 3797.64,-4412.1"/>
<polygon fill="black" stroke="black" stroke-width="0.41" points="3796.8,-4415.49 3807.35,-4414.55 3798.52,-4408.71 3796.8,-4415.49"/>
<text text-anchor="middle" x="2097.3" y="-3999.36" font-family="Times,serif" font-size="14.00">biomass*20240</text>
</g>
<!-- &#45;5,&#45;3 (Biomass (from Seaweed))&#45;&gt;0,10 (item=meat Meat) -->
<g id="edge28" class="edge">
<title>&#45;5,&#45;3 (Biomass (from Seaweed))&#45;&gt;0,10 (item=meat Meat)</title>
<path fill="none" stroke="black" stroke-width="0.53" d="M446.22,-3544.39C484.81,-3313.18 877.87,-957.67 925.23,-673.87"/>
<polygon fill="black" stroke="black" stroke-width="0.53" points="928.69,-674.4 926.88,-663.96 921.78,-673.24 928.69,-674.4"/>
<text text-anchor="middle" x="630.23" y="-2112.93" font-family="Times,serif" font-size="14.00">biomass*25680</text>
</g>
<!-- &#45;5,&#45;3 (Biomass (from Seaweed))&#45;&gt;&#45;3,8 (Urea) -->
<g id="edge27" class="edge">
<title>&#45;5,&#45;3 (Biomass (from Seaweed))&#45;&gt;&#45;3,8 (Urea)</title>
<path fill="none" stroke="black" stroke-width="0.48" d="M462.91,-3544.46C726.55,-3301.77 3547.73,-704.69 3850.52,-425.95"/>
<polygon fill="black" stroke="black" stroke-width="0.48" points="3852.99,-428.43 3857.98,-419.08 3848.25,-423.28 3852.99,-428.43"/>
<text text-anchor="middle" x="2101.22" y="-1989.01" font-family="Times,serif" font-size="14.00">biomass*23280</text>
</g>
<!-- &#45;5,&#45;3 (Biomass (from Seaweed))&#45;&gt;&#45;6,&#45;2 (item=fertilizer Fertiliser) -->
<g id="edge17" class="edge">
<title>&#45;5,&#45;3 (Biomass (from Seaweed))&#45;&gt;&#45;6,&#45;2 (item=fertilizer Fertiliser)</title>
<path fill="none" stroke="black" stroke-width="6.02" d="M453.04,-3544.4C592.95,-3285.87 2176.84,-359.1 2346.7,-45.23"/>
<polygon fill="black" stroke="black" stroke-width="6.02" points="2351.4,-47.62 2351.52,-36.32 2342.13,-42.6 2351.4,-47.62"/>
<text text-anchor="middle" x="1339.87" y="-1798.62" font-family="Times,serif" font-size="14.00">biomass*293840</text>
</g>
<!-- &#45;5,&#45;3 (Biomass (from Seaweed))&#45;&gt;2,4 (Formica and Phenolic boards) -->
<g id="edge61" class="edge">
<title>&#45;5,&#45;3 (Biomass (from Seaweed))&#45;&gt;2,4 (Formica and Phenolic boards)</title>
<path fill="none" stroke="black" stroke-width="0.24" d="M570.02,-3573.14C1165.96,-3622.52 3685.07,-3831.26 4316.05,-3883.55"/>
<polygon fill="black" stroke="black" stroke-width="0.24" points="4315.85,-3887.04 4326.11,-3884.38 4316.43,-3880.07 4315.85,-3887.04"/>
<text text-anchor="middle" x="2387.54" y="-3732.14" font-family="Times,serif" font-size="14.00">biomass*11600</text>
</g>
<!-- &#45;5,&#45;3 (Biomass (from Seaweed))&#45;&gt;&#45;5,5 (fluid=flue&#45;gas Flue gas) -->
<g id="edge20" class="edge">
<title>&#45;5,&#45;3 (Biomass (from Seaweed))&#45;&gt;&#45;5,5 (fluid=flue&#45;gas Flue gas)</title>
<path fill="none" stroke="black" stroke-width="3.34" d="M470.67,-3580.59C684.8,-3720.49 2084.11,-4634.71 2325.88,-4792.66"/>
<polygon fill="black" stroke="black" stroke-width="3.34" points="2324.03,-4795.63 2334.31,-4798.17 2327.85,-4789.77 2324.03,-4795.63"/>
<text text-anchor="middle" x="1338.27" y="-4190.43" font-family="Times,serif" font-size="14.00">biomass*162800</text>
</g>
<!-- &#45;5,&#45;3 (Biomass (from Seaweed))&#45;&gt;1,3 (item=korlex&#45;food&#45;01 Korlex food) -->
<g id="edge31" class="edge">
<title>&#45;5,&#45;3 (Biomass (from Seaweed))&#45;&gt;1,3 (item=korlex&#45;food&#45;01 Korlex food)</title>
<path fill="none" stroke="black" stroke-width="0.13" d="M440.16,-3544.51C413.79,-3386.49 223.06,-2243.5 190.58,-2048.88"/>
<polygon fill="black" stroke="black" stroke-width="0.13" points="194.01,-2048.16 188.91,-2038.87 187.1,-2049.31 194.01,-2048.16"/>
<text text-anchor="middle" x="366.37" y="-2800.5" font-family="Times,serif" font-size="14.00">biomass*6240</text>
</g>
<!-- &#45;5,&#45;3 (Biomass (from Seaweed))&#45;&gt;8,&#45;8 (Moar bhoddos) -->
<g id="edge50" class="edge">
<title>&#45;5,&#45;3 (Biomass (from Seaweed))&#45;&gt;8,&#45;8 (Moar bhoddos)</title>
<path fill="none" stroke="black" stroke-width="0.52" d="M436.95,-3544.48C402.68,-3444.66 237.25,-2962.79 195.48,-2841.11"/>
<polygon fill="black" stroke="black" stroke-width="0.52" points="198.71,-2839.73 192.15,-2831.4 192.09,-2842 198.71,-2839.73"/>
<text text-anchor="middle" x="260.71" y="-3196.59" font-family="Times,serif" font-size="14.00">biomass*25120</text>
</g>
<!-- &#45;5,&#45;4 (low priority (slaked)? lime) -->
<g id="node15" class="node">
<title>&#45;5,&#45;4 (low priority (slaked)? lime)</title>
<ellipse fill="none" stroke="black" cx="4967.39" cy="-2416.95" rx="162.47" ry="18"/>
<text text-anchor="middle" x="4967.39" y="-2413.25" font-family="Times,serif" font-size="14.00">&#45;5,&#45;4 (low priority (slaked)? lime)</text>
</g>
<!-- &#45;5,&#45;4 (low priority (slaked)? lime)&#45;&gt;0,9 (Auog Brains) -->
<g id="edge48" class="edge">
<title>&#45;5,&#45;4 (low priority (slaked)? lime)&#45;&gt;0,9 (Auog Brains)</title>
<path fill="none" stroke="black" stroke-width="0.14" d="M4939.98,-2434.85C4639.7,-2631.03 1966.56,-4377.48 1628.39,-4598.42"/>
<polygon fill="black" stroke="black" stroke-width="0.14" points="1626.4,-4595.54 1619.95,-4603.94 1630.23,-4601.4 1626.4,-4595.54"/>
<text text-anchor="middle" x="3233.18" y="-3520.44" font-family="Times,serif" font-size="14.00">biomass*6640</text>
</g>
<!-- &#45;5,&#45;4 (low priority (slaked)? lime)&#45;&gt;&#45;7,&#45;4 (Isomer&#39;s Slaughterhouse and Daycare Centre, Bone Meal, Auog theft) -->
<g id="edge55" class="edge">
<title>&#45;5,&#45;4 (low priority (slaked)? lime)&#45;&gt;&#45;7,&#45;4 (Isomer&#39;s Slaughterhouse and Daycare Centre, Bone Meal, Auog theft)</title>
<path fill="none" stroke="black" stroke-width="0.17" d="M4939.98,-2399.04C4640.01,-2203.06 1972.08,-460.02 1629.44,-236.16"/>
<polygon fill="black" stroke="black" stroke-width="0.17" points="1631.17,-233.1 1620.88,-230.56 1627.34,-238.96 1631.17,-233.1"/>
<text text-anchor="middle" x="3233.71" y="-1321.4" font-family="Times,serif" font-size="14.00">biomass*8480</text>
</g>
<!-- &#45;5,&#45;4 (low priority (slaked)? lime)&#45;&gt;&#45;4,2 (This line not currently using manure, Ralesia seeds) -->
<g id="edge46" class="edge">
<title>&#45;5,&#45;4 (low priority (slaked)? lime)&#45;&gt;&#45;4,2 (This line not currently using manure, Ralesia seeds)</title>
<path fill="none" stroke="black" stroke-width="0.02" d="M4927.43,-2434.47C4537.39,-2605.56 1414.27,-3975.49 979.95,-4166"/>
<polygon fill="black" stroke="black" stroke-width="0.02" points="978.24,-4162.93 970.49,-4170.15 981.05,-4169.34 978.24,-4162.93"/>
<text text-anchor="middle" x="2902.69" y="-3304.04" font-family="Times,serif" font-size="14.00">biomass*1200</text>
</g>
<!-- &#45;5,&#45;4 (low priority (slaked)? lime)&#45;&gt;&#45;1,6 (Flimble&#39;s Slaughterhouse and Daycare Centre, Auog Products) -->
<g id="edge60" class="edge">
<title>&#45;5,&#45;4 (low priority (slaked)? lime)&#45;&gt;&#45;1,6 (Flimble&#39;s Slaughterhouse and Daycare Centre, Auog Products)</title>
<path fill="none" stroke="black" stroke-width="0.08" d="M4957.63,-2434.98C4857.2,-2620.56 4013.12,-4180.28 3891.41,-4405.17"/>
<polygon fill="black" stroke="black" stroke-width="0.08" points="3888.3,-4403.57 3886.62,-4414.03 3894.46,-4406.9 3888.3,-4403.57"/>
<text text-anchor="middle" x="4373.52" y="-3423.88" font-family="Times,serif" font-size="14.00">biomass*4080</text>
</g>
<!-- &#45;5,&#45;4 (low priority (slaked)? lime)&#45;&gt;0,10 (item=meat Meat) -->
<g id="edge47" class="edge">
<title>&#45;5,&#45;4 (low priority (slaked)? lime)&#45;&gt;0,10 (item=meat Meat)</title>
<path fill="none" stroke="black" stroke-width="0.22" d="M4927.43,-2399.42C4536.88,-2228.11 1406.13,-854.83 978.27,-667.16"/>
<polygon fill="black" stroke="black" stroke-width="0.22" points="979.52,-663.88 968.95,-663.07 976.71,-670.29 979.52,-663.88"/>
<text text-anchor="middle" x="2897.35" y="-1537.09" font-family="Times,serif" font-size="14.00">biomass*10560</text>
</g>
<!-- &#45;5,&#45;4 (low priority (slaked)? lime)&#45;&gt;&#45;3,8 (Urea) -->
<g id="edge44" class="edge">
<title>&#45;5,&#45;4 (low priority (slaked)? lime)&#45;&gt;&#45;3,8 (Urea)</title>
<path fill="none" stroke="black" stroke-width="0.13" d="M4957.63,-2398.91C4857.14,-2213.23 4012.24,-651.99 3891.23,-428.37"/>
<polygon fill="black" stroke="black" stroke-width="0.13" points="3894.3,-426.7 3886.46,-419.57 3888.14,-430.03 3894.3,-426.7"/>
<text text-anchor="middle" x="4373.43" y="-1417.44" font-family="Times,serif" font-size="14.00">biomass*6480</text>
</g>
<!-- &#45;5,&#45;4 (low priority (slaked)? lime)&#45;&gt;2,4 (Formica and Phenolic boards) -->
<g id="edge42" class="edge">
<title>&#45;5,&#45;4 (low priority (slaked)? lime)&#45;&gt;2,4 (Formica and Phenolic boards)</title>
<path fill="none" stroke="black" stroke-width="0.06" d="M4961.15,-2435.11C4908.19,-2589.37 4534.13,-3679 4469.36,-3867.66"/>
<polygon fill="black" stroke="black" stroke-width="0.06" points="4466.04,-3866.55 4466.1,-3877.14 4472.66,-3868.82 4466.04,-3866.55"/>
<text text-anchor="middle" x="4664.26" y="-3155.18" font-family="Times,serif" font-size="14.00">biomass*3040</text>
</g>
<!-- &#45;5,&#45;4 (low priority (slaked)? lime)&#45;&gt;7,0 (item=bhoddos Bhoddos) -->
<g id="edge22" class="edge">
<title>&#45;5,&#45;4 (low priority (slaked)? lime)&#45;&gt;7,0 (item=bhoddos Bhoddos)</title>
<path fill="none" stroke="black" stroke-width="0.52" d="M4964.36,-2435.12C4947.22,-2537.79 4862.56,-3045.17 4841.64,-3170.51"/>
<polygon fill="black" stroke="black" stroke-width="0.52" points="4838.17,-3170.04 4839.98,-3180.48 4845.07,-3171.19 4838.17,-3170.04"/>
<text text-anchor="middle" x="4847.5" y="-2806.62" font-family="Times,serif" font-size="14.00">biomass*25120</text>
</g>
</g>
</svg>
