<?xml version="1.0" encoding="UTF-8" standalone="no"?>
<!DOCTYPE svg PUBLIC "-//W3C//DTD SVG 1.1//EN"
 "http://www.w3.org/Graphics/SVG/1.1/DTD/svg11.dtd">
<!-- Generated by graphviz version 2.43.0 (0)
 -->
<!-- Title: %3 Pages: 1 -->
<svg width="911pt" height="470pt"
 viewBox="0.00 0.00 910.60 469.76" xmlns="http://www.w3.org/2000/svg" xmlns:xlink="http://www.w3.org/1999/xlink">
<g id="graph0" class="graph" transform="scale(1 1) rotate(0) translate(4 465.76)">
<title>%3</title>
<polygon fill="white" stroke="transparent" points="-4,4 -4,-465.76 906.6,-465.76 906.6,4 -4,4"/>
<!-- &#45;6,7 (Iron ore dust) -->
<g id="node1" class="node">
<title>&#45;6,7 (Iron ore dust)</title>
<ellipse fill="none" stroke="black" cx="154" cy="-99.31" rx="98.58" ry="18"/>
<text text-anchor="middle" x="154" y="-95.61" font-family="Times,serif" font-size="14.00">&#45;6,7 (Iron ore dust)</text>
</g>
<!-- 1,12 (Molten Iron) -->
<g id="node2" class="node">
<title>1,12 (Molten Iron)</title>
<ellipse fill="none" stroke="black" cx="154" cy="-362.45" rx="95.58" ry="18"/>
<text text-anchor="middle" x="154" y="-358.75" font-family="Times,serif" font-size="14.00">1,12 (Molten Iron)</text>
</g>
<!-- &#45;6,7 (Iron ore dust)&#45;&gt;1,12 (Molten Iron) -->
<g id="edge1" class="edge">
<title>&#45;6,7 (Iron ore dust)&#45;&gt;1,12 (Molten Iron)</title>
<path fill="none" stroke="black" stroke-width="4.53" d="M154,-117.4C154,-162.37 154,-279.53 154,-333.93"/>
<polygon fill="black" stroke="black" stroke-width="4.53" points="150.03,-334.24 154,-344.24 157.97,-334.24 150.03,-334.24"/>
<text text-anchor="middle" x="77" y="-229.47" font-family="Times,serif" font-size="14.00">iron&#45;ore&#45;dust*633696</text>
</g>
<!-- &#45;2,9 (molten steel) -->
<g id="node4" class="node">
<title>&#45;2,9 (molten steel)</title>
<ellipse fill="none" stroke="black" cx="404.26" cy="-18" rx="95.58" ry="18"/>
<text text-anchor="middle" x="404.26" y="-14.3" font-family="Times,serif" font-size="14.00">&#45;2,9 (molten steel)</text>
</g>
<!-- &#45;6,7 (Iron ore dust)&#45;&gt;&#45;2,9 (molten steel) -->
<g id="edge3" class="edge">
<title>&#45;6,7 (Iron ore dust)&#45;&gt;&#45;2,9 (molten steel)</title>
<path fill="none" stroke="black" stroke-width="0.25" d="M202.55,-83.54C243.78,-70.14 303.03,-50.89 346.65,-36.72"/>
<polygon fill="black" stroke="black" stroke-width="0.25" points="347.84,-40.01 356.27,-33.59 345.68,-33.35 347.84,-40.01"/>
<text text-anchor="middle" x="202.1" y="-63.93" font-family="Times,serif" font-size="14.00">iron&#45;ore&#45;dust*35040</text>
</g>
<!-- &#45;1,10 (Iron Plates) -->
<g id="node5" class="node">
<title>&#45;1,10 (Iron Plates)</title>
<ellipse fill="none" stroke="black" cx="404.26" cy="-443.76" rx="94.78" ry="18"/>
<text text-anchor="middle" x="404.26" y="-440.06" font-family="Times,serif" font-size="14.00">&#45;1,10 (Iron Plates)</text>
</g>
<!-- &#45;6,7 (Iron ore dust)&#45;&gt;&#45;1,10 (Iron Plates) -->
<g id="edge5" class="edge">
<title>&#45;6,7 (Iron ore dust)&#45;&gt;&#45;1,10 (Iron Plates)</title>
<path fill="none" stroke="black" stroke-width="1.26" d="M167.1,-117.35C208.49,-174.31 336.55,-350.58 385.22,-417.57"/>
<polygon fill="black" stroke="black" stroke-width="1.26" points="382.57,-419.87 391.28,-425.91 388.24,-415.76 382.57,-419.87"/>
<text text-anchor="middle" x="199.16" y="-271.26" font-family="Times,serif" font-size="14.00">iron&#45;ore&#45;dust*175968</text>
</g>
<!-- 1,10 (Iron Ore Dust) -->
<g id="node3" class="node">
<title>1,10 (Iron Ore Dust)</title>
<ellipse fill="none" stroke="black" cx="558.92" cy="-230.88" rx="104.78" ry="18"/>
<text text-anchor="middle" x="558.92" y="-227.18" font-family="Times,serif" font-size="14.00">1,10 (Iron Ore Dust)</text>
</g>
<!-- 1,10 (Iron Ore Dust)&#45;&gt;1,12 (Molten Iron) -->
<g id="edge4" class="edge">
<title>1,10 (Iron Ore Dust)&#45;&gt;1,12 (Molten Iron)</title>
<path fill="none" stroke="black" stroke-width="0.26" d="M509.68,-246.88C434.59,-271.28 291.79,-317.68 211.86,-343.65"/>
<polygon fill="black" stroke="black" stroke-width="0.26" points="210.39,-340.45 201.96,-346.87 212.55,-347.1 210.39,-340.45"/>
<text text-anchor="middle" x="288.27" y="-299.07" font-family="Times,serif" font-size="14.00">iron&#45;ore&#45;dust*36064</text>
</g>
<!-- 1,10 (Iron Ore Dust)&#45;&gt;&#45;2,9 (molten steel) -->
<g id="edge2" class="edge">
<title>1,10 (Iron Ore Dust)&#45;&gt;&#45;2,9 (molten steel)</title>
<path fill="none" stroke="black" stroke-width="0.09" d="M545.74,-212.73C518.34,-175.03 455.18,-88.09 423.34,-44.27"/>
<polygon fill="black" stroke="black" stroke-width="0.09" points="426.12,-42.14 417.41,-36.1 420.46,-46.25 426.12,-42.14"/>
<text text-anchor="middle" x="412.04" y="-132.3" font-family="Times,serif" font-size="14.00">iron&#45;ore&#45;dust*12400</text>
</g>
<!-- 1,10 (Iron Ore Dust)&#45;&gt;&#45;1,10 (Iron Plates) -->
<g id="edge6" class="edge">
<title>1,10 (Iron Ore Dust)&#45;&gt;&#45;1,10 (Iron Plates)</title>
<path fill="none" stroke="black" stroke-width="0.54" d="M545.74,-249.03C518.34,-286.74 455.18,-373.67 423.34,-417.5"/>
<polygon fill="black" stroke="black" stroke-width="0.54" points="420.46,-415.51 417.41,-425.66 426.12,-419.63 420.46,-415.51"/>
<text text-anchor="middle" x="412.04" y="-337.06" font-family="Times,serif" font-size="14.00">iron&#45;ore&#45;dust*75248</text>
</g>
<!-- &#45;7,&#45;2 (Uranium Processing) -->
<g id="node6" class="node">
<title>&#45;7,&#45;2 (Uranium Processing)</title>
<ellipse fill="none" stroke="black" cx="766.76" cy="-230.88" rx="135.68" ry="18"/>
<text text-anchor="middle" x="766.76" y="-227.18" font-family="Times,serif" font-size="14.00">&#45;7,&#45;2 (Uranium Processing)</text>
</g>
<!-- 1,10 (Iron Ore Dust)&#45;&gt;&#45;7,&#45;2 (Uranium Processing) -->
<g id="edge7" class="edge">
<title>1,10 (Iron Ore Dust)&#45;&gt;&#45;7,&#45;2 (Uranium Processing)</title>
<path fill="none" stroke="black" stroke-width="0.07" d="M663.76,-230.88C663.81,-230.88 663.86,-230.88 663.91,-230.88"/>
<polygon fill="black" stroke="black" stroke-width="0.07" points="654.06,-234.39 664.06,-230.88 654.06,-227.39 654.06,-234.39"/>
<text text-anchor="middle" x="736.33" y="-234.68" font-family="Times,serif" font-size="14.00">iron&#45;ore&#45;dust*10016</text>
</g>
</g>
</svg>
