<?xml version="1.0" encoding="UTF-8" standalone="no"?>
<!DOCTYPE svg PUBLIC "-//W3C//DTD SVG 1.1//EN"
 "http://www.w3.org/Graphics/SVG/1.1/DTD/svg11.dtd">
<!-- Generated by graphviz version 2.43.0 (0)
 -->
<!-- Title: %3 Pages: 1 -->
<svg width="1079pt" height="44pt"
 viewBox="0.00 0.00 1078.82 44.00" xmlns="http://www.w3.org/2000/svg" xmlns:xlink="http://www.w3.org/1999/xlink">
<g id="graph0" class="graph" transform="scale(1 1) rotate(0) translate(4 40)">
<title>%3</title>
<polygon fill="white" stroke="transparent" points="-4,4 -4,-40 1074.82,-40 1074.82,4 -4,4"/>
<!-- &#45;1,7 (Rayon) -->
<g id="node1" class="node">
<title>&#45;1,7 (Rayon)</title>
<ellipse fill="none" stroke="black" cx="450.92" cy="-18" rx="66.89" ry="18"/>
<text text-anchor="middle" x="450.92" y="-14.3" font-family="Times,serif" font-size="14.00">&#45;1,7 (Rayon)</text>
</g>
<!-- 3,3 (Random electronic components, Small Parts) -->
<g id="node2" class="node">
<title>3,3 (Random electronic components, Small Parts)</title>
<ellipse fill="none" stroke="black" cx="830.34" cy="-18" rx="240.46" ry="18"/>
<text text-anchor="middle" x="830.34" y="-14.3" font-family="Times,serif" font-size="14.00">3,3 (Random electronic components, Small Parts)</text>
</g>
<!-- &#45;1,7 (Rayon)&#45;&gt;3,3 (Random electronic components, Small Parts) -->
<g id="edge1" class="edge">
<title>&#45;1,7 (Rayon)&#45;&gt;3,3 (Random electronic components, Small Parts)</title>
<path fill="none" stroke="black" stroke-width="1.47" d="M517.88,-18C536.14,-18 557.07,-18 579.24,-18"/>
<polygon fill="black" stroke="black" stroke-width="1.47" points="579.52,-21.5 589.52,-18 579.52,-14.5 579.52,-21.5"/>
<text text-anchor="middle" x="548.56" y="-6.8" font-family="Times,serif" font-size="14.00">rayon*19680</text>
</g>
<!-- 0,0 (LE BUS) -->
<g id="node3" class="node">
<title>0,0 (LE BUS)</title>
<ellipse fill="none" stroke="black" cx="71.49" cy="-18" rx="71.49" ry="18"/>
<text text-anchor="middle" x="71.49" y="-14.3" font-family="Times,serif" font-size="14.00">0,0 (LE BUS)</text>
</g>
<!-- &#45;1,7 (Rayon)&#45;&gt;0,0 (LE BUS) -->
<g id="edge2" class="edge">
<title>&#45;1,7 (Rayon)&#45;&gt;0,0 (LE BUS)</title>
<path fill="none" stroke="black" stroke-width="0.53" d="M383.96,-18C319.71,-18 222.54,-18 153.65,-18"/>
<polygon fill="black" stroke="black" stroke-width="0.53" points="153.27,-14.5 143.27,-18 153.27,-21.5 153.27,-14.5"/>
<text text-anchor="middle" x="226.8" y="-21.8" font-family="Times,serif" font-size="14.00">rayon*7184</text>
</g>
</g>
</svg>
