<?xml version="1.0" encoding="UTF-8" standalone="no"?>
<!DOCTYPE svg PUBLIC "-//W3C//DTD SVG 1.1//EN"
 "http://www.w3.org/Graphics/SVG/1.1/DTD/svg11.dtd">
<!-- Generated by graphviz version 2.43.0 (0)
 -->
<!-- Title: %3 Pages: 1 -->
<svg width="2594pt" height="1312pt"
 viewBox="0.00 0.00 2594.10 1311.86" xmlns="http://www.w3.org/2000/svg" xmlns:xlink="http://www.w3.org/1999/xlink">
<g id="graph0" class="graph" transform="scale(1 1) rotate(0) translate(4 1307.86)">
<title>%3</title>
<polygon fill="white" stroke="transparent" points="-4,4 -4,-1307.86 2590.1,-1307.86 2590.1,4 -4,4"/>
<!-- 1,8 (A copper mine, Salt) -->
<g id="node1" class="node">
<title>1,8 (A copper mine, Salt)</title>
<ellipse fill="none" stroke="black" cx="1123.8" cy="-575.42" rx="126.18" ry="18"/>
<text text-anchor="middle" x="1123.8" y="-571.72" font-family="Times,serif" font-size="14.00">1,8 (A copper mine, Salt)</text>
</g>
<!-- 4,4 (Hydrogen Chloride, item=nylon Nylon/Nylon parts) -->
<g id="node2" class="node">
<title>4,4 (Hydrogen Chloride, item=nylon Nylon/Nylon parts)</title>
<ellipse fill="none" stroke="black" cx="786.15" cy="-110.69" rx="271.05" ry="18"/>
<text text-anchor="middle" x="786.15" y="-106.99" font-family="Times,serif" font-size="14.00">4,4 (Hydrogen Chloride, item=nylon Nylon/Nylon parts)</text>
</g>
<!-- 1,8 (A copper mine, Salt)&#45;&gt;4,4 (Hydrogen Chloride, item=nylon Nylon/Nylon parts) -->
<g id="edge1" class="edge">
<title>1,8 (A copper mine, Salt)&#45;&gt;4,4 (Hydrogen Chloride, item=nylon Nylon/Nylon parts)</title>
<path fill="none" stroke="black" stroke-width="1.01" d="M1110.77,-557.48C1058.92,-486.11 867.04,-222.01 805.37,-137.14"/>
<polygon fill="black" stroke="black" stroke-width="1.01" points="808.03,-134.85 799.33,-128.82 802.37,-138.96 808.03,-134.85"/>
<text text-anchor="middle" x="918.57" y="-351.11" font-family="Times,serif" font-size="14.00">salt*10640</text>
</g>
<!-- &#45;6,&#45;1 (item=agar Agar) -->
<g id="node3" class="node">
<title>&#45;6,&#45;1 (item=agar Agar)</title>
<ellipse fill="none" stroke="black" cx="1151.47" cy="-241.76" rx="115.88" ry="18"/>
<text text-anchor="middle" x="1151.47" y="-238.06" font-family="Times,serif" font-size="14.00">&#45;6,&#45;1 (item=agar Agar)</text>
</g>
<!-- 1,8 (A copper mine, Salt)&#45;&gt;&#45;6,&#45;1 (item=agar Agar) -->
<g id="edge2" class="edge">
<title>1,8 (A copper mine, Salt)&#45;&gt;&#45;6,&#45;1 (item=agar Agar)</title>
<path fill="none" stroke="black" stroke-width="1" d="M1125.33,-557C1129.91,-501.74 1143.57,-337.05 1149.1,-270.31"/>
<polygon fill="black" stroke="black" stroke-width="1" points="1152.61,-270.37 1149.95,-260.11 1145.64,-269.79 1152.61,-270.37"/>
<text text-anchor="middle" x="1097.72" y="-417.46" font-family="Times,serif" font-size="14.00">salt*10560</text>
</g>
<!-- 1,6 (Sodium Hydroxide, These new bullets are fun, Limestone) -->
<g id="node4" class="node">
<title>1,6 (Sodium Hydroxide, These new bullets are fun, Limestone)</title>
<ellipse fill="none" stroke="black" cx="1697.44" cy="-1285.86" rx="301.65" ry="18"/>
<text text-anchor="middle" x="1697.44" y="-1282.16" font-family="Times,serif" font-size="14.00">1,6 (Sodium Hydroxide, These new bullets are fun, Limestone)</text>
</g>
<!-- 1,8 (A copper mine, Salt)&#45;&gt;1,6 (Sodium Hydroxide, These new bullets are fun, Limestone) -->
<g id="edge3" class="edge">
<title>1,8 (A copper mine, Salt)&#45;&gt;1,6 (Sodium Hydroxide, These new bullets are fun, Limestone)</title>
<path fill="none" stroke="black" stroke-width="1.52" d="M1138.27,-593.33C1215.99,-689.6 1583.92,-1145.26 1676.34,-1259.72"/>
<polygon fill="black" stroke="black" stroke-width="1.52" points="1673.75,-1262.08 1682.75,-1267.67 1679.19,-1257.69 1673.75,-1262.08"/>
<text text-anchor="middle" x="1367.8" y="-930.33" font-family="Times,serif" font-size="14.00">salt*16000</text>
</g>
<!-- 2,0 (Sodium Sulfate) -->
<g id="node8" class="node">
<title>2,0 (Sodium Sulfate)</title>
<ellipse fill="none" stroke="black" cx="786.15" cy="-1040.15" rx="106.68" ry="18"/>
<text text-anchor="middle" x="786.15" y="-1036.45" font-family="Times,serif" font-size="14.00">2,0 (Sodium Sulfate)</text>
</g>
<!-- 1,8 (A copper mine, Salt)&#45;&gt;2,0 (Sodium Sulfate) -->
<g id="edge13" class="edge">
<title>1,8 (A copper mine, Salt)&#45;&gt;2,0 (Sodium Sulfate)</title>
<path fill="none" stroke="black" stroke-width="0.51" d="M1110.77,-593.35C1058.86,-664.8 866.6,-929.42 805.16,-1013.98"/>
<polygon fill="black" stroke="black" stroke-width="0.51" points="802.19,-1012.12 799.14,-1022.27 807.85,-1016.24 802.19,-1012.12"/>
<text text-anchor="middle" x="922.97" y="-807.47" font-family="Times,serif" font-size="14.00">salt*5360</text>
</g>
<!-- 2,1 (Niobium plates) -->
<g id="node9" class="node">
<title>2,1 (Niobium plates)</title>
<ellipse fill="none" stroke="black" cx="1375.23" cy="-18" rx="105.88" ry="18"/>
<text text-anchor="middle" x="1375.23" y="-14.3" font-family="Times,serif" font-size="14.00">2,1 (Niobium plates)</text>
</g>
<!-- 1,8 (A copper mine, Salt)&#45;&gt;2,1 (Niobium plates) -->
<g id="edge10" class="edge">
<title>1,8 (A copper mine, Salt)&#45;&gt;2,1 (Niobium plates)</title>
<path fill="none" stroke="black" stroke-width="0.38" d="M1132.02,-557.19C1168.84,-475.56 1318.69,-143.34 1362.9,-45.34"/>
<polygon fill="black" stroke="black" stroke-width="0.38" points="1366.15,-46.64 1367.07,-36.09 1359.77,-43.77 1366.15,-46.64"/>
<text text-anchor="middle" x="1212.46" y="-305.06" font-family="Times,serif" font-size="14.00">salt*4000</text>
</g>
<!-- &#45;5,2 (Optical fiber) -->
<g id="node10" class="node">
<title>&#45;5,2 (Optical fiber)</title>
<ellipse fill="none" stroke="black" cx="1375.23" cy="-465.51" rx="96.38" ry="18"/>
<text text-anchor="middle" x="1375.23" y="-461.81" font-family="Times,serif" font-size="14.00">&#45;5,2 (Optical fiber)</text>
</g>
<!-- 1,8 (A copper mine, Salt)&#45;&gt;&#45;5,2 (Optical fiber) -->
<g id="edge14" class="edge">
<title>1,8 (A copper mine, Salt)&#45;&gt;&#45;5,2 (Optical fiber)</title>
<path fill="none" stroke="black" stroke-width="0.51" d="M1163.09,-558.24C1207.63,-538.77 1280.23,-507.04 1327.86,-486.22"/>
<polygon fill="black" stroke="black" stroke-width="0.51" points="1329.28,-489.42 1337.04,-482.2 1326.48,-483 1329.28,-489.42"/>
<text text-anchor="middle" x="1210.47" y="-526.03" font-family="Times,serif" font-size="14.00">salt*5400</text>
</g>
<!-- 2,7 (Mystery petrochemicals) -->
<g id="node11" class="node">
<title>2,7 (Mystery petrochemicals)</title>
<ellipse fill="none" stroke="black" cx="239.83" cy="-288.2" rx="147.57" ry="18"/>
<text text-anchor="middle" x="239.83" y="-284.5" font-family="Times,serif" font-size="14.00">2,7 (Mystery petrochemicals)</text>
</g>
<!-- 1,8 (A copper mine, Salt)&#45;&gt;2,7 (Mystery petrochemicals) -->
<g id="edge9" class="edge">
<title>1,8 (A copper mine, Salt)&#45;&gt;2,7 (Mystery petrochemicals)</title>
<path fill="none" stroke="black" stroke-width="0.51" d="M1072.78,-558.84C920.11,-509.23 467.23,-362.08 301.49,-308.23"/>
<polygon fill="black" stroke="black" stroke-width="0.51" points="302.52,-304.89 291.93,-305.13 300.36,-311.54 302.52,-304.89"/>
<text text-anchor="middle" x="652.13" y="-437.34" font-family="Times,serif" font-size="14.00">salt*5320</text>
</g>
<!-- &#45;4,7 (Powdered Quartz/Salt) -->
<g id="node5" class="node">
<title>&#45;4,7 (Powdered Quartz/Salt)</title>
<ellipse fill="none" stroke="black" cx="1598.99" cy="-241.76" rx="139.98" ry="18"/>
<text text-anchor="middle" x="1598.99" y="-238.06" font-family="Times,serif" font-size="14.00">&#45;4,7 (Powdered Quartz/Salt)</text>
</g>
<!-- &#45;4,7 (Powdered Quartz/Salt)&#45;&gt;&#45;6,&#45;1 (item=agar Agar) -->
<g id="edge11" class="edge">
<title>&#45;4,7 (Powdered Quartz/Salt)&#45;&gt;&#45;6,&#45;1 (item=agar Agar)</title>
<path fill="none" stroke="black" stroke-width="0.76" d="M1459.23,-241.76C1401.05,-241.76 1334,-241.76 1277.36,-241.76"/>
<polygon fill="black" stroke="black" stroke-width="0.76" points="1277.28,-238.26 1267.28,-241.76 1277.28,-245.26 1277.28,-238.26"/>
<text text-anchor="middle" x="1333.3" y="-245.56" font-family="Times,serif" font-size="14.00">salt*8000</text>
</g>
<!-- 1,&#45;1 (fluid=molten&#45;glass Glass, When space, make quartz separate with regular priority, Quartz) -->
<g id="node6" class="node">
<title>1,&#45;1 (fluid=molten&#45;glass Glass, When space, make quartz separate with regular priority, Quartz)</title>
<ellipse fill="none" stroke="black" cx="2128.54" cy="-241.76" rx="457.62" ry="18"/>
<text text-anchor="middle" x="2128.54" y="-238.06" font-family="Times,serif" font-size="14.00">1,&#45;1 (fluid=molten&#45;glass Glass, When space, make quartz separate with regular priority, Quartz)</text>
</g>
<!-- &#45;4,7 (Powdered Quartz/Salt)&#45;&gt;1,&#45;1 (fluid=molten&#45;glass Glass, When space, make quartz separate with regular priority, Quartz) -->
<g id="edge4" class="edge">
<title>&#45;4,7 (Powdered Quartz/Salt)&#45;&gt;1,&#45;1 (fluid=molten&#45;glass Glass, When space, make quartz separate with regular priority, Quartz)</title>
<path fill="none" stroke="black" stroke-width="4.78" d="M1738.81,-241.76C1738.89,-241.76 1738.97,-241.76 1739.04,-241.76"/>
<polygon fill="black" stroke="black" stroke-width="4.78" points="1729.28,-245.94 1739.27,-241.76 1729.27,-237.58 1729.28,-245.94"/>
<text text-anchor="middle" x="1778.43" y="-245.56" font-family="Times,serif" font-size="14.00">salt*50224</text>
</g>
<!-- &#45;4,7 (Powdered Quartz/Salt)&#45;&gt;2,1 (Niobium plates) -->
<g id="edge6" class="edge">
<title>&#45;4,7 (Powdered Quartz/Salt)&#45;&gt;2,1 (Niobium plates)</title>
<path fill="none" stroke="black" stroke-width="0.38" d="M1581.05,-223.82C1541.37,-184.14 1446.02,-88.79 1400.39,-43.16"/>
<polygon fill="black" stroke="black" stroke-width="0.38" points="1402.79,-40.61 1393.25,-36.02 1397.84,-45.56 1402.79,-40.61"/>
<text text-anchor="middle" x="1455.72" y="-137.29" font-family="Times,serif" font-size="14.00">salt*4000</text>
</g>
<!-- &#45;4,7 (Powdered Quartz/Salt)&#45;&gt;&#45;5,2 (Optical fiber) -->
<g id="edge7" class="edge">
<title>&#45;4,7 (Powdered Quartz/Salt)&#45;&gt;&#45;5,2 (Optical fiber)</title>
<path fill="none" stroke="black" stroke-width="0.95" d="M1581.05,-259.69C1541.27,-299.47 1445.54,-395.2 1400.05,-440.69"/>
<polygon fill="black" stroke="black" stroke-width="0.95" points="1397.53,-438.26 1392.94,-447.8 1402.48,-443.21 1397.53,-438.26"/>
<text text-anchor="middle" x="1451.05" y="-353.99" font-family="Times,serif" font-size="14.00">salt*10000</text>
</g>
<!-- 3,5 (item=molybdenum&#45;plate Molybdenum plate) -->
<g id="node7" class="node">
<title>3,5 (item=molybdenum&#45;plate Molybdenum plate)</title>
<ellipse fill="none" stroke="black" cx="239.83" cy="-862.64" rx="239.66" ry="18"/>
<text text-anchor="middle" x="239.83" y="-858.94" font-family="Times,serif" font-size="14.00">3,5 (item=molybdenum&#45;plate Molybdenum plate)</text>
</g>
<!-- 3,5 (item=molybdenum&#45;plate Molybdenum plate)&#45;&gt;4,4 (Hydrogen Chloride, item=nylon Nylon/Nylon parts) -->
<g id="edge8" class="edge">
<title>3,5 (item=molybdenum&#45;plate Molybdenum plate)&#45;&gt;4,4 (Hydrogen Chloride, item=nylon Nylon/Nylon parts)</title>
<path fill="none" stroke="black" stroke-width="0.72" d="M253.06,-844.42C326.11,-743.88 679.91,-256.92 766.83,-137.28"/>
<polygon fill="black" stroke="black" stroke-width="0.72" points="769.8,-139.14 772.85,-129 764.14,-135.03 769.8,-139.14"/>
<text text-anchor="middle" x="474.95" y="-494.65" font-family="Times,serif" font-size="14.00">salt*7520</text>
</g>
<!-- 3,5 (item=molybdenum&#45;plate Molybdenum plate)&#45;&gt;2,0 (Sodium Sulfate) -->
<g id="edge5" class="edge">
<title>3,5 (item=molybdenum&#45;plate Molybdenum plate)&#45;&gt;2,0 (Sodium Sulfate)</title>
<path fill="none" stroke="black" stroke-width="0.4" d="M293.96,-880.22C396.94,-913.69 620.31,-986.26 727.05,-1020.94"/>
<polygon fill="black" stroke="black" stroke-width="0.4" points="726.1,-1024.32 736.7,-1024.08 728.27,-1017.66 726.1,-1024.32"/>
<text text-anchor="middle" x="475.5" y="-954.38" font-family="Times,serif" font-size="14.00">salt*4176</text>
</g>
<!-- 3,5 (item=molybdenum&#45;plate Molybdenum plate)&#45;&gt;2,7 (Mystery petrochemicals) -->
<g id="edge12" class="edge">
<title>3,5 (item=molybdenum&#45;plate Molybdenum plate)&#45;&gt;2,7 (Mystery petrochemicals)</title>
<path fill="none" stroke="black" stroke-width="0.57" d="M239.83,-844.5C239.83,-761.51 239.83,-417.76 239.83,-316.43"/>
<polygon fill="black" stroke="black" stroke-width="0.57" points="243.33,-316.34 239.83,-306.34 236.33,-316.34 243.33,-316.34"/>
<text text-anchor="middle" x="204.83" y="-584.26" font-family="Times,serif" font-size="14.00">salt*5952</text>
</g>
</g>
</svg>
