<?xml version="1.0" encoding="UTF-8" standalone="no"?>
<!DOCTYPE svg PUBLIC "-//W3C//DTD SVG 1.1//EN"
 "http://www.w3.org/Graphics/SVG/1.1/DTD/svg11.dtd">
<!-- Generated by graphviz version 2.43.0 (0)
 -->
<!-- Title: %3 Pages: 1 -->
<svg width="813pt" height="564pt"
 viewBox="0.00 0.00 812.89 563.64" xmlns="http://www.w3.org/2000/svg" xmlns:xlink="http://www.w3.org/1999/xlink">
<g id="graph0" class="graph" transform="scale(1 1) rotate(0) translate(4 559.64)">
<title>%3</title>
<polygon fill="white" stroke="transparent" points="-4,4 -4,-559.64 808.89,-559.64 808.89,4 -4,4"/>
<!-- &#45;2,&#45;3 (Trains) -->
<g id="node1" class="node">
<title>&#45;2,&#45;3 (Trains)</title>
<ellipse fill="none" stroke="black" cx="278.18" cy="-18" rx="70.39" ry="18"/>
<text text-anchor="middle" x="278.18" y="-14.3" font-family="Times,serif" font-size="14.00">&#45;2,&#45;3 (Trains)</text>
</g>
<!-- &#45;6,&#45;4 (High&#45;Power Resistors, Ceramic Capacitor, Inductor) -->
<g id="node2" class="node">
<title>&#45;6,&#45;4 (High&#45;Power Resistors, Ceramic Capacitor, Inductor)</title>
<ellipse fill="none" stroke="black" cx="278.18" cy="-537.64" rx="278.35" ry="18"/>
<text text-anchor="middle" x="278.18" y="-533.94" font-family="Times,serif" font-size="14.00">&#45;6,&#45;4 (High&#45;Power Resistors, Ceramic Capacitor, Inductor)</text>
</g>
<!-- &#45;2,&#45;3 (Trains)&#45;&gt;&#45;6,&#45;4 (High&#45;Power Resistors, Ceramic Capacitor, Inductor) -->
<g id="edge1" class="edge">
<title>&#45;2,&#45;3 (Trains)&#45;&gt;&#45;6,&#45;4 (High&#45;Power Resistors, Ceramic Capacitor, Inductor)</title>
<path fill="none" stroke="black" stroke-width="1.12" d="M278.18,-36.19C278.18,-113.51 278.18,-415.26 278.18,-509.42"/>
<polygon fill="black" stroke="black" stroke-width="1.12" points="274.68,-509.6 278.18,-519.6 281.68,-509.6 274.68,-509.6"/>
<text text-anchor="middle" x="228.18" y="-276.6" font-family="Times,serif" font-size="14.00">ceramic*8448</text>
</g>
<!-- 4,&#45;2 (Ceramic) -->
<g id="node3" class="node">
<title>4,&#45;2 (Ceramic)</title>
<ellipse fill="none" stroke="black" cx="728.2" cy="-277.82" rx="76.89" ry="18"/>
<text text-anchor="middle" x="728.2" y="-274.12" font-family="Times,serif" font-size="14.00">4,&#45;2 (Ceramic)</text>
</g>
<!-- 4,&#45;2 (Ceramic)&#45;&gt;&#45;2,&#45;3 (Trains) -->
<g id="edge3" class="edge">
<title>4,&#45;2 (Ceramic)&#45;&gt;&#45;2,&#45;3 (Trains)</title>
<path fill="none" stroke="black" stroke-width="0.78" d="M699.02,-260.97C620.2,-215.47 403.07,-90.11 315.51,-39.55"/>
<polygon fill="black" stroke="black" stroke-width="0.78" points="317.12,-36.44 306.71,-34.47 313.62,-42.5 317.12,-36.44"/>
<text text-anchor="middle" x="457.26" y="-154.06" font-family="Times,serif" font-size="14.00">ceramic*5904</text>
</g>
<!-- 4,&#45;2 (Ceramic)&#45;&gt;&#45;6,&#45;4 (High&#45;Power Resistors, Ceramic Capacitor, Inductor) -->
<g id="edge2" class="edge">
<title>4,&#45;2 (Ceramic)&#45;&gt;&#45;6,&#45;4 (High&#45;Power Resistors, Ceramic Capacitor, Inductor)</title>
<path fill="none" stroke="black" stroke-width="1.1" d="M699.02,-294.67C620.97,-339.73 407.29,-463.1 318.1,-514.59"/>
<polygon fill="black" stroke="black" stroke-width="1.1" points="316.27,-511.6 309.36,-519.64 319.77,-517.67 316.27,-511.6"/>
<text text-anchor="middle" x="458.56" y="-408.43" font-family="Times,serif" font-size="14.00">ceramic*8336</text>
</g>
</g>
</svg>
