<?xml version="1.0" encoding="UTF-8" standalone="no"?>
<!DOCTYPE svg PUBLIC "-//W3C//DTD SVG 1.1//EN"
 "http://www.w3.org/Graphics/SVG/1.1/DTD/svg11.dtd">
<!-- Generated by graphviz version 2.43.0 (0)
 -->
<!-- Title: %3 Pages: 1 -->
<svg width="1376pt" height="1125pt"
 viewBox="0.00 0.00 1376.04 1124.68" xmlns="http://www.w3.org/2000/svg" xmlns:xlink="http://www.w3.org/1999/xlink">
<g id="graph0" class="graph" transform="scale(1 1) rotate(0) translate(4 1120.68)">
<title>%3</title>
<polygon fill="white" stroke="transparent" points="-4,4 -4,-1120.68 1372.04,-1120.68 1372.04,4 -4,4"/>
<!-- 5,13 (Moss (from nothing)) -->
<g id="node1" class="node">
<title>5,13 (Moss (from nothing))</title>
<ellipse fill="none" stroke="black" cx="661.04" cy="-552.59" rx="135.68" ry="18"/>
<text text-anchor="middle" x="661.04" y="-548.89" font-family="Times,serif" font-size="14.00">5,13 (Moss (from nothing))</text>
</g>
<!-- 7,&#45;2 (item=guts Auog guts) -->
<g id="node2" class="node">
<title>7,&#45;2 (item=guts Auog guts)</title>
<ellipse fill="none" stroke="black" cx="1230.9" cy="-552.59" rx="137.28" ry="18"/>
<text text-anchor="middle" x="1230.9" y="-548.89" font-family="Times,serif" font-size="14.00">7,&#45;2 (item=guts Auog guts)</text>
</g>
<!-- 5,13 (Moss (from nothing))&#45;&gt;7,&#45;2 (item=guts Auog guts) -->
<g id="edge1" class="edge">
<title>5,13 (Moss (from nothing))&#45;&gt;7,&#45;2 (item=guts Auog guts)</title>
<path fill="none" stroke="black" stroke-width="1.57" d="M797.18,-552.59C883.41,-552.59 994.91,-552.59 1083.26,-552.59"/>
<polygon fill="black" stroke="black" stroke-width="1.57" points="1083.37,-556.09 1093.37,-552.59 1083.37,-549.09 1083.37,-556.09"/>
<text text-anchor="middle" x="895.72" y="-556.39" font-family="Times,serif" font-size="14.00">moss*50896</text>
</g>
<!-- &#45;7,&#45;4 (Isomer&#39;s Slaughterhouse and Daycare Centre, Bone Meal, Auog theft) -->
<g id="node3" class="node">
<title>&#45;7,&#45;4 (Isomer&#39;s Slaughterhouse and Daycare Centre, Bone Meal, Auog theft)</title>
<ellipse fill="none" stroke="black" cx="823.88" cy="-1098.68" rx="362.04" ry="18"/>
<text text-anchor="middle" x="823.88" y="-1094.98" font-family="Times,serif" font-size="14.00">&#45;7,&#45;4 (Isomer&#39;s Slaughterhouse and Daycare Centre, Bone Meal, Auog theft)</text>
</g>
<!-- 5,13 (Moss (from nothing))&#45;&gt;&#45;7,&#45;4 (Isomer&#39;s Slaughterhouse and Daycare Centre, Bone Meal, Auog theft) -->
<g id="edge2" class="edge">
<title>5,13 (Moss (from nothing))&#45;&gt;&#45;7,&#45;4 (Isomer&#39;s Slaughterhouse and Daycare Centre, Bone Meal, Auog theft)</title>
<path fill="none" stroke="black" stroke-width="1.68" d="M666.46,-570.76C690.37,-650.93 786.52,-973.39 815.54,-1070.73"/>
<polygon fill="black" stroke="black" stroke-width="1.68" points="812.23,-1071.86 818.44,-1080.45 818.94,-1069.86 812.23,-1071.86"/>
<text text-anchor="middle" x="696.5" y="-824.54" font-family="Times,serif" font-size="14.00">moss*54720</text>
</g>
<!-- &#45;3,8 (Urea) -->
<g id="node4" class="node">
<title>&#45;3,8 (Urea)</title>
<ellipse fill="none" stroke="black" cx="230.01" cy="-925.34" rx="61.19" ry="18"/>
<text text-anchor="middle" x="230.01" y="-921.64" font-family="Times,serif" font-size="14.00">&#45;3,8 (Urea)</text>
</g>
<!-- 5,13 (Moss (from nothing))&#45;&gt;&#45;3,8 (Urea) -->
<g id="edge3" class="edge">
<title>5,13 (Moss (from nothing))&#45;&gt;&#45;3,8 (Urea)</title>
<path fill="none" stroke="black" stroke-width="1.44" d="M640.25,-570.57C569.53,-631.73 338.2,-831.78 257.83,-901.29"/>
<polygon fill="black" stroke="black" stroke-width="1.44" points="255.37,-898.79 250.09,-907.98 259.95,-904.08 255.37,-898.79"/>
<text text-anchor="middle" x="404.54" y="-739.73" font-family="Times,serif" font-size="14.00">moss*46880</text>
</g>
<!-- 0,9 (Auog Brains) -->
<g id="node5" class="node">
<title>0,9 (Auog Brains)</title>
<ellipse fill="none" stroke="black" cx="91.64" cy="-575.33" rx="91.78" ry="18"/>
<text text-anchor="middle" x="91.64" y="-571.63" font-family="Times,serif" font-size="14.00">0,9 (Auog Brains)</text>
</g>
<!-- 5,13 (Moss (from nothing))&#45;&gt;0,9 (Auog Brains) -->
<g id="edge4" class="edge">
<title>5,13 (Moss (from nothing))&#45;&gt;0,9 (Auog Brains)</title>
<path fill="none" stroke="black" stroke-width="0.81" d="M530.77,-557.79C427.67,-561.91 285.83,-567.57 191.57,-571.34"/>
<polygon fill="black" stroke="black" stroke-width="0.81" points="191.31,-567.85 181.46,-571.74 191.59,-574.84 191.31,-567.85"/>
<text text-anchor="middle" x="316.67" y="-568.37" font-family="Times,serif" font-size="14.00">moss*26320</text>
</g>
<!-- 0,10 (item=meat Meat) -->
<g id="node6" class="node">
<title>0,10 (item=meat Meat)</title>
<ellipse fill="none" stroke="black" cx="239.06" cy="-169.62" rx="120.48" ry="18"/>
<text text-anchor="middle" x="239.06" y="-165.92" font-family="Times,serif" font-size="14.00">0,10 (item=meat Meat)</text>
</g>
<!-- 5,13 (Moss (from nothing))&#45;&gt;0,10 (item=meat Meat) -->
<g id="edge5" class="edge">
<title>5,13 (Moss (from nothing))&#45;&gt;0,10 (item=meat Meat)</title>
<path fill="none" stroke="black" stroke-width="0.31" d="M641.26,-534.63C572.73,-472.44 345.42,-266.14 266.41,-194.44"/>
<polygon fill="black" stroke="black" stroke-width="0.31" points="268.56,-191.67 258.81,-187.54 263.86,-196.85 268.56,-191.67"/>
<text text-anchor="middle" x="409.33" y="-368.33" font-family="Times,serif" font-size="14.00">moss*10096</text>
</g>
<!-- &#45;1,6 (Flimble&#39;s Slaughterhouse and Daycare Centre, Auog Products) -->
<g id="node7" class="node">
<title>&#45;1,6 (Flimble&#39;s Slaughterhouse and Daycare Centre, Auog Products)</title>
<ellipse fill="none" stroke="black" cx="858.4" cy="-18" rx="325.74" ry="18"/>
<text text-anchor="middle" x="858.4" y="-14.3" font-family="Times,serif" font-size="14.00">&#45;1,6 (Flimble&#39;s Slaughterhouse and Daycare Centre, Auog Products)</text>
</g>
<!-- 5,13 (Moss (from nothing))&#45;&gt;&#45;1,6 (Flimble&#39;s Slaughterhouse and Daycare Centre, Auog Products) -->
<g id="edge6" class="edge">
<title>5,13 (Moss (from nothing))&#45;&gt;&#45;1,6 (Flimble&#39;s Slaughterhouse and Daycare Centre, Auog Products)</title>
<path fill="none" stroke="black" stroke-width="0.19" d="M667.72,-534.5C696.86,-455.57 812.95,-141.11 848.2,-45.63"/>
<polygon fill="black" stroke="black" stroke-width="0.19" points="851.55,-46.68 851.73,-36.09 844.98,-44.26 851.55,-46.68"/>
<text text-anchor="middle" x="717.96" y="-293.86" font-family="Times,serif" font-size="14.00">moss*6048</text>
</g>
</g>
</svg>
