<?xml version="1.0" encoding="UTF-8" standalone="no"?>
<!DOCTYPE svg PUBLIC "-//W3C//DTD SVG 1.1//EN"
 "http://www.w3.org/Graphics/SVG/1.1/DTD/svg11.dtd">
<!-- Generated by graphviz version 2.43.0 (0)
 -->
<!-- Title: %3 Pages: 1 -->
<svg width="1415pt" height="1236pt"
 viewBox="0.00 0.00 1415.03 1236.24" xmlns="http://www.w3.org/2000/svg" xmlns:xlink="http://www.w3.org/1999/xlink">
<g id="graph0" class="graph" transform="scale(1 1) rotate(0) translate(4 1232.24)">
<title>%3</title>
<polygon fill="white" stroke="transparent" points="-4,4 -4,-1232.24 1411.03,-1232.24 1411.03,4 -4,4"/>
<!-- 0,5 (Titanium Processing (Grade 4)) -->
<g id="node1" class="node">
<title>0,5 (Titanium Processing (Grade 4))</title>
<ellipse fill="none" stroke="black" cx="724.73" cy="-611.25" rx="176.57" ry="18"/>
<text text-anchor="middle" x="724.73" y="-607.55" font-family="Times,serif" font-size="14.00">0,5 (Titanium Processing (Grade 4))</text>
</g>
<!-- 0,0 (LE BUS) -->
<g id="node2" class="node">
<title>0,0 (LE BUS)</title>
<ellipse fill="none" stroke="black" cx="1335.53" cy="-611.25" rx="71.49" ry="18"/>
<text text-anchor="middle" x="1335.53" y="-607.55" font-family="Times,serif" font-size="14.00">0,0 (LE BUS)</text>
</g>
<!-- 0,5 (Titanium Processing (Grade 4))&#45;&gt;0,0 (LE BUS) -->
<g id="edge1" class="edge">
<title>0,5 (Titanium Processing (Grade 4))&#45;&gt;0,0 (LE BUS)</title>
<path fill="none" stroke="black" stroke-width="3.67" d="M901.81,-611.25C1017.82,-611.25 1164.02,-611.25 1253.59,-611.25"/>
<polygon fill="black" stroke="black" stroke-width="3.67" points="1253.68,-614.75 1263.68,-611.25 1253.68,-607.75 1253.68,-614.75"/>
<text text-anchor="middle" x="996.2" y="-615.05" font-family="Times,serif" font-size="14.00">titanium&#45;plate*108400</text>
</g>
<!-- &#45;4,1 (item=ulric Ulrics) -->
<g id="node3" class="node">
<title>&#45;4,1 (item=ulric Ulrics)</title>
<ellipse fill="none" stroke="black" cx="1274.5" cy="-877.38" rx="118.08" ry="18"/>
<text text-anchor="middle" x="1274.5" y="-873.68" font-family="Times,serif" font-size="14.00">&#45;4,1 (item=ulric Ulrics)</text>
</g>
<!-- 0,5 (Titanium Processing (Grade 4))&#45;&gt;&#45;4,1 (item=ulric Ulrics) -->
<g id="edge2" class="edge">
<title>0,5 (Titanium Processing (Grade 4))&#45;&gt;&#45;4,1 (item=ulric Ulrics)</title>
<path fill="none" stroke="black" stroke-width="0.49" d="M761.23,-628.92C858.42,-675.97 1123.34,-804.21 1229.56,-855.63"/>
<polygon fill="black" stroke="black" stroke-width="0.49" points="1228.21,-858.86 1238.74,-860.07 1231.26,-852.56 1228.21,-858.86"/>
<text text-anchor="middle" x="918.39" y="-746.07" font-family="Times,serif" font-size="14.00">titanium&#45;plate*14400</text>
</g>
<!-- 2,13 (Polybutadiene) -->
<g id="node4" class="node">
<title>2,13 (Polybutadiene)</title>
<ellipse fill="none" stroke="black" cx="1075.48" cy="-1111.31" rx="106.68" ry="18"/>
<text text-anchor="middle" x="1075.48" y="-1107.61" font-family="Times,serif" font-size="14.00">2,13 (Polybutadiene)</text>
</g>
<!-- 0,5 (Titanium Processing (Grade 4))&#45;&gt;2,13 (Polybutadiene) -->
<g id="edge3" class="edge">
<title>0,5 (Titanium Processing (Grade 4))&#45;&gt;2,13 (Polybutadiene)</title>
<path fill="none" stroke="black" stroke-width="0.85" d="M737.42,-629.34C790.43,-704.92 994.32,-995.59 1057.02,-1084.99"/>
<polygon fill="black" stroke="black" stroke-width="0.85" points="1054.2,-1087.06 1062.8,-1093.24 1059.93,-1083.04 1054.2,-1087.06"/>
<text text-anchor="middle" x="820.22" y="-860.97" font-family="Times,serif" font-size="14.00">titanium&#45;plate*25040</text>
</g>
<!-- &#45;3,8 (Urea) -->
<g id="node5" class="node">
<title>&#45;3,8 (Urea)</title>
<ellipse fill="none" stroke="black" cx="844.3" cy="-1210.24" rx="61.19" ry="18"/>
<text text-anchor="middle" x="844.3" y="-1206.54" font-family="Times,serif" font-size="14.00">&#45;3,8 (Urea)</text>
</g>
<!-- 0,5 (Titanium Processing (Grade 4))&#45;&gt;&#45;3,8 (Urea) -->
<g id="edge4" class="edge">
<title>0,5 (Titanium Processing (Grade 4))&#45;&gt;&#45;3,8 (Urea)</title>
<path fill="none" stroke="black" stroke-width="0.63" d="M728.37,-629.5C745.48,-715.19 817.84,-1077.72 838.67,-1182.04"/>
<polygon fill="black" stroke="black" stroke-width="0.63" points="835.29,-1183 840.68,-1192.12 842.16,-1181.63 835.29,-1183"/>
<text text-anchor="middle" x="706.52" y="-909.57" font-family="Times,serif" font-size="14.00">titanium&#45;plate*18720</text>
</g>
<!-- &#45;7,&#45;4 (Isomer&#39;s Slaughterhouse and Daycare Centre, Bone Meal, Auog theft) -->
<g id="node6" class="node">
<title>&#45;7,&#45;4 (Isomer&#39;s Slaughterhouse and Daycare Centre, Bone Meal, Auog theft)</title>
<ellipse fill="none" stroke="black" cx="362.02" cy="-1102.7" rx="362.04" ry="18"/>
<text text-anchor="middle" x="362.02" y="-1099" font-family="Times,serif" font-size="14.00">&#45;7,&#45;4 (Isomer&#39;s Slaughterhouse and Daycare Centre, Bone Meal, Auog theft)</text>
</g>
<!-- 0,5 (Titanium Processing (Grade 4))&#45;&gt;&#45;7,&#45;4 (Isomer&#39;s Slaughterhouse and Daycare Centre, Bone Meal, Auog theft) -->
<g id="edge5" class="edge">
<title>0,5 (Titanium Processing (Grade 4))&#45;&gt;&#45;7,&#45;4 (Isomer&#39;s Slaughterhouse and Daycare Centre, Bone Meal, Auog theft)</title>
<path fill="none" stroke="black" stroke-width="0.57" d="M711.39,-629.32C656.35,-703.9 446.72,-987.93 381.5,-1076.3"/>
<polygon fill="black" stroke="black" stroke-width="0.57" points="378.6,-1074.33 375.48,-1084.46 384.23,-1078.49 378.6,-1074.33"/>
<text text-anchor="middle" x="469.45" y="-856.61" font-family="Times,serif" font-size="14.00">titanium&#45;plate*16720</text>
</g>
<!-- &#45;1,&#45;2 (Aramid fiber) -->
<g id="node7" class="node">
<title>&#45;1,&#45;2 (Aramid fiber)</title>
<ellipse fill="none" stroke="black" cx="114.4" cy="-635.29" rx="99.38" ry="18"/>
<text text-anchor="middle" x="114.4" y="-631.59" font-family="Times,serif" font-size="14.00">&#45;1,&#45;2 (Aramid fiber)</text>
</g>
<!-- 0,5 (Titanium Processing (Grade 4))&#45;&gt;&#45;1,&#45;2 (Aramid fiber) -->
<g id="edge6" class="edge">
<title>0,5 (Titanium Processing (Grade 4))&#45;&gt;&#45;1,&#45;2 (Aramid fiber)</title>
<path fill="none" stroke="black" stroke-width="1.52" d="M559.57,-617.76C452.27,-621.98 315.5,-627.37 222.05,-631.05"/>
<polygon fill="black" stroke="black" stroke-width="1.52" points="221.86,-627.56 212.01,-631.45 222.14,-634.55 221.86,-627.56"/>
<text text-anchor="middle" x="313.81" y="-628.2" font-family="Times,serif" font-size="14.00">titanium&#45;plate*44800</text>
</g>
<!-- 0,10 (item=meat Meat) -->
<g id="node8" class="node">
<title>0,10 (item=meat Meat)</title>
<ellipse fill="none" stroke="black" cx="177.53" cy="-339.86" rx="120.48" ry="18"/>
<text text-anchor="middle" x="177.53" y="-336.16" font-family="Times,serif" font-size="14.00">0,10 (item=meat Meat)</text>
</g>
<!-- 0,5 (Titanium Processing (Grade 4))&#45;&gt;0,10 (item=meat Meat) -->
<g id="edge7" class="edge">
<title>0,5 (Titanium Processing (Grade 4))&#45;&gt;0,10 (item=meat Meat)</title>
<path fill="none" stroke="black" stroke-width="0.35" d="M688.83,-593.44C592.24,-545.54 327.04,-414.01 221.6,-361.72"/>
<polygon fill="black" stroke="black" stroke-width="0.35" points="223.01,-358.51 212.5,-357.21 219.9,-364.79 223.01,-358.51"/>
<text text-anchor="middle" x="378.21" y="-481.38" font-family="Times,serif" font-size="14.00">titanium&#45;plate*10480</text>
</g>
<!-- &#45;1,6 (Flimble&#39;s Slaughterhouse and Daycare Centre, Auog Products) -->
<g id="node9" class="node">
<title>&#45;1,6 (Flimble&#39;s Slaughterhouse and Daycare Centre, Auog Products)</title>
<ellipse fill="none" stroke="black" cx="579.36" cy="-18" rx="325.74" ry="18"/>
<text text-anchor="middle" x="579.36" y="-14.3" font-family="Times,serif" font-size="14.00">&#45;1,6 (Flimble&#39;s Slaughterhouse and Daycare Centre, Auog Products)</text>
</g>
<!-- 0,5 (Titanium Processing (Grade 4))&#45;&gt;&#45;1,6 (Flimble&#39;s Slaughterhouse and Daycare Centre, Auog Products) -->
<g id="edge8" class="edge">
<title>0,5 (Titanium Processing (Grade 4))&#45;&gt;&#45;1,6 (Flimble&#39;s Slaughterhouse and Daycare Centre, Auog Products)</title>
<path fill="none" stroke="black" stroke-width="0.51" d="M720.3,-593.17C699.51,-508.31 611.53,-149.32 586.21,-45.95"/>
<polygon fill="black" stroke="black" stroke-width="0.51" points="589.6,-45.11 583.82,-36.23 582.8,-46.77 589.6,-45.11"/>
<text text-anchor="middle" x="576.25" y="-323.36" font-family="Times,serif" font-size="14.00">titanium&#45;plate*15120</text>
</g>
<!-- 0,9 (Auog Brains) -->
<g id="node10" class="node">
<title>0,9 (Auog Brains)</title>
<ellipse fill="none" stroke="black" cx="1060.97" cy="-101.33" rx="91.78" ry="18"/>
<text text-anchor="middle" x="1060.97" y="-97.63" font-family="Times,serif" font-size="14.00">0,9 (Auog Brains)</text>
</g>
<!-- 0,5 (Titanium Processing (Grade 4))&#45;&gt;0,9 (Auog Brains) -->
<g id="edge9" class="edge">
<title>0,5 (Titanium Processing (Grade 4))&#45;&gt;0,9 (Auog Brains)</title>
<path fill="none" stroke="black" stroke-width="0.57" d="M736.7,-593.1C787.25,-516.43 983.49,-218.83 1043.46,-127.88"/>
<polygon fill="black" stroke="black" stroke-width="0.57" points="1046.56,-129.53 1049.14,-119.26 1040.72,-125.68 1046.56,-129.53"/>
<text text-anchor="middle" x="813.08" y="-364.29" font-family="Times,serif" font-size="14.00">titanium&#45;plate*16800</text>
</g>
<!-- &#45;9,&#45;10 (Bedding and cages) -->
<g id="node11" class="node">
<title>&#45;9,&#45;10 (Bedding and cages)</title>
<ellipse fill="none" stroke="black" cx="1267.23" cy="-330.59" rx="134.58" ry="18"/>
<text text-anchor="middle" x="1267.23" y="-326.89" font-family="Times,serif" font-size="14.00">&#45;9,&#45;10 (Bedding and cages)</text>
</g>
<!-- 0,5 (Titanium Processing (Grade 4))&#45;&gt;&#45;9,&#45;10 (Bedding and cages) -->
<g id="edge10" class="edge">
<title>0,5 (Titanium Processing (Grade 4))&#45;&gt;&#45;9,&#45;10 (Bedding and cages)</title>
<path fill="none" stroke="black" stroke-width="0.85" d="M759.08,-593.48C854.04,-544.35 1119.97,-406.77 1224.38,-352.76"/>
<polygon fill="black" stroke="black" stroke-width="0.85" points="1226.11,-355.8 1233.38,-348.1 1222.89,-349.58 1226.11,-355.8"/>
<text text-anchor="middle" x="914.73" y="-476.92" font-family="Times,serif" font-size="14.00">titanium&#45;plate*25040</text>
</g>
</g>
</svg>
