<?xml version="1.0" encoding="UTF-8" standalone="no"?>
<!DOCTYPE svg PUBLIC "-//W3C//DTD SVG 1.1//EN"
 "http://www.w3.org/Graphics/SVG/1.1/DTD/svg11.dtd">
<!-- Generated by graphviz version 2.43.0 (0)
 -->
<!-- Title: %3 Pages: 1 -->
<svg width="1025pt" height="848pt"
 viewBox="0.00 0.00 1024.75 847.54" xmlns="http://www.w3.org/2000/svg" xmlns:xlink="http://www.w3.org/1999/xlink">
<g id="graph0" class="graph" transform="scale(1 1) rotate(0) translate(4 843.54)">
<title>%3</title>
<polygon fill="white" stroke="transparent" points="-4,4 -4,-843.54 1020.75,-843.54 1020.75,4 -4,4"/>
<!-- 0,7 (Coal Gas) -->
<g id="node1" class="node">
<title>0,7 (Coal Gas)</title>
<ellipse fill="none" stroke="black" cx="629.31" cy="-18" rx="76.09" ry="18"/>
<text text-anchor="middle" x="629.31" y="-14.3" font-family="Times,serif" font-size="14.00">0,7 (Coal Gas)</text>
</g>
<!-- 4,10 (Fluid Recycling) -->
<g id="node2" class="node">
<title>4,10 (Fluid Recycling)</title>
<ellipse fill="none" stroke="black" cx="157" cy="-171.46" rx="112.38" ry="18"/>
<text text-anchor="middle" x="157" y="-167.76" font-family="Times,serif" font-size="14.00">4,10 (Fluid Recycling)</text>
</g>
<!-- 0,7 (Coal Gas)&#45;&gt;4,10 (Fluid Recycling) -->
<g id="edge1" class="edge">
<title>0,7 (Coal Gas)&#45;&gt;4,10 (Fluid Recycling)</title>
<path fill="none" stroke="black" stroke-width="0.32" d="M584.45,-32.58C498.85,-60.39 312.22,-121.03 216.39,-152.16"/>
<polygon fill="black" stroke="black" stroke-width="0.32" points="215.28,-148.85 206.85,-155.27 217.44,-155.5 215.28,-148.85"/>
<text text-anchor="middle" x="321.92" y="-96.17" font-family="Times,serif" font-size="14.00">flue&#45;gas&#45;barrel*14823</text>
</g>
<!-- 0,6 (Flue Gas Disposal, Syngas From Flue Gas) -->
<g id="node4" class="node">
<title>0,6 (Flue Gas Disposal, Syngas From Flue Gas)</title>
<ellipse fill="none" stroke="black" cx="629.31" cy="-821.54" rx="229.36" ry="18"/>
<text text-anchor="middle" x="629.31" y="-817.84" font-family="Times,serif" font-size="14.00">0,6 (Flue Gas Disposal, Syngas From Flue Gas)</text>
</g>
<!-- 0,7 (Coal Gas)&#45;&gt;0,6 (Flue Gas Disposal, Syngas From Flue Gas) -->
<g id="edge6" class="edge">
<title>0,7 (Coal Gas)&#45;&gt;0,6 (Flue Gas Disposal, Syngas From Flue Gas)</title>
<path fill="none" stroke="black" stroke-width="0.67" d="M629.31,-36.29C629.31,-141.05 629.31,-664.66 629.31,-793.07"/>
<polygon fill="black" stroke="black" stroke-width="0.67" points="625.81,-793.27 629.31,-803.27 632.81,-793.27 625.81,-793.27"/>
<text text-anchor="middle" x="550.81" y="-418.48" font-family="Times,serif" font-size="14.00">flue&#45;gas&#45;barrel*30904</text>
</g>
<!-- &#45;5,5 (fluid=flue&#45;gas Flue gas) -->
<g id="node3" class="node">
<title>&#45;5,5 (fluid=flue&#45;gas Flue gas)</title>
<ellipse fill="none" stroke="black" cx="157" cy="-668.08" rx="145.67" ry="18"/>
<text text-anchor="middle" x="157" y="-664.38" font-family="Times,serif" font-size="14.00">&#45;5,5 (fluid=flue&#45;gas Flue gas)</text>
</g>
<!-- &#45;5,5 (fluid=flue&#45;gas Flue gas)&#45;&gt;4,10 (Fluid Recycling) -->
<g id="edge5" class="edge">
<title>&#45;5,5 (fluid=flue&#45;gas Flue gas)&#45;&gt;4,10 (Fluid Recycling)</title>
<path fill="none" stroke="black" stroke-width="1.14" d="M157,-649.81C157,-574.9 157,-290.84 157,-199.75"/>
<polygon fill="black" stroke="black" stroke-width="1.14" points="160.5,-199.63 157,-189.63 153.5,-199.63 160.5,-199.63"/>
<text text-anchor="middle" x="78.5" y="-428.58" font-family="Times,serif" font-size="14.00">flue&#45;gas&#45;barrel*52423</text>
</g>
<!-- &#45;5,5 (fluid=flue&#45;gas Flue gas)&#45;&gt;0,6 (Flue Gas Disposal, Syngas From Flue Gas) -->
<g id="edge2" class="edge">
<title>&#45;5,5 (fluid=flue&#45;gas Flue gas)&#45;&gt;0,6 (Flue Gas Disposal, Syngas From Flue Gas)</title>
<path fill="none" stroke="black" stroke-width="2.77" d="M208.9,-684.94C295.92,-713.21 470.99,-770.1 565.43,-800.78"/>
<polygon fill="black" stroke="black" stroke-width="2.77" points="564.56,-804.18 575.15,-803.94 566.72,-797.52 564.56,-804.18"/>
<text text-anchor="middle" x="304.16" y="-746.66" font-family="Times,serif" font-size="14.00">flue&#45;gas&#45;barrel*127188</text>
</g>
<!-- &#45;2,9 (molten steel) -->
<g id="node5" class="node">
<title>&#45;2,9 (molten steel)</title>
<ellipse fill="none" stroke="black" cx="921.21" cy="-419.77" rx="95.58" ry="18"/>
<text text-anchor="middle" x="921.21" y="-416.07" font-family="Times,serif" font-size="14.00">&#45;2,9 (molten steel)</text>
</g>
<!-- &#45;2,9 (molten steel)&#45;&gt;4,10 (Fluid Recycling) -->
<g id="edge3" class="edge">
<title>&#45;2,9 (molten steel)&#45;&gt;4,10 (Fluid Recycling)</title>
<path fill="none" stroke="black" stroke-width="0.38" d="M873.11,-404.14C739.32,-360.67 362.98,-238.39 216.44,-190.78"/>
<polygon fill="black" stroke="black" stroke-width="0.38" points="217.3,-187.38 206.71,-187.61 215.14,-194.03 217.3,-187.38"/>
<text text-anchor="middle" x="466.28" y="-301.26" font-family="Times,serif" font-size="14.00">flue&#45;gas&#45;barrel*17199</text>
</g>
<!-- &#45;2,9 (molten steel)&#45;&gt;0,6 (Flue Gas Disposal, Syngas From Flue Gas) -->
<g id="edge4" class="edge">
<title>&#45;2,9 (molten steel)&#45;&gt;0,6 (Flue Gas Disposal, Syngas From Flue Gas)</title>
<path fill="none" stroke="black" stroke-width="0.71" d="M908.1,-437.81C861.51,-501.93 703.81,-719 648.59,-794.99"/>
<polygon fill="black" stroke="black" stroke-width="0.71" points="645.43,-793.4 642.38,-803.54 651.09,-797.51 645.43,-793.4"/>
<text text-anchor="middle" x="699.85" y="-620.2" font-family="Times,serif" font-size="14.00">flue&#45;gas&#45;barrel*32524</text>
</g>
</g>
</svg>
