<?xml version="1.0" encoding="UTF-8" standalone="no"?>
<!DOCTYPE svg PUBLIC "-//W3C//DTD SVG 1.1//EN"
 "http://www.w3.org/Graphics/SVG/1.1/DTD/svg11.dtd">
<!-- Generated by graphviz version 2.43.0 (0)
 -->
<!-- Title: %3 Pages: 1 -->
<svg width="1521pt" height="1188pt"
 viewBox="0.00 0.00 1520.95 1187.99" xmlns="http://www.w3.org/2000/svg" xmlns:xlink="http://www.w3.org/1999/xlink">
<g id="graph0" class="graph" transform="scale(1 1) rotate(0) translate(4 1183.99)">
<title>%3</title>
<polygon fill="white" stroke="transparent" points="-4,4 -4,-1183.99 1516.95,-1183.99 1516.95,4 -4,4"/>
<!-- &#45;7,&#45;8 (Tin mk2) -->
<g id="node1" class="node">
<title>&#45;7,&#45;8 (Tin mk2)</title>
<ellipse fill="none" stroke="black" cx="811.12" cy="-590.05" rx="78.79" ry="18"/>
<text text-anchor="middle" x="811.12" y="-586.35" font-family="Times,serif" font-size="14.00">&#45;7,&#45;8 (Tin mk2)</text>
</g>
<!-- 0,0 (LE BUS) -->
<g id="node2" class="node">
<title>0,0 (LE BUS)</title>
<ellipse fill="none" stroke="black" cx="1383.26" cy="-590.05" rx="71.49" ry="18"/>
<text text-anchor="middle" x="1383.26" y="-586.35" font-family="Times,serif" font-size="14.00">0,0 (LE BUS)</text>
</g>
<!-- &#45;7,&#45;8 (Tin mk2)&#45;&gt;0,0 (LE BUS) -->
<g id="edge1" class="edge">
<title>&#45;7,&#45;8 (Tin mk2)&#45;&gt;0,0 (LE BUS)</title>
<path fill="none" stroke="black" stroke-width="1.71" d="M889.77,-590.05C997.89,-590.05 1191.48,-590.05 1301.31,-590.05"/>
<polygon fill="black" stroke="black" stroke-width="1.71" points="1301.34,-593.55 1311.34,-590.05 1301.34,-586.55 1301.34,-593.55"/>
<text text-anchor="middle" x="1035.04" y="-593.85" font-family="Times,serif" font-size="14.00">tin&#45;plate*105040</text>
</g>
<!-- &#45;6,&#45;4 (High&#45;Power Resistors, Ceramic Capacitor, Inductor) -->
<g id="node3" class="node">
<title>&#45;6,&#45;4 (High&#45;Power Resistors, Ceramic Capacitor, Inductor)</title>
<ellipse fill="none" stroke="black" cx="1234.78" cy="-974.57" rx="278.35" ry="18"/>
<text text-anchor="middle" x="1234.78" y="-970.87" font-family="Times,serif" font-size="14.00">&#45;6,&#45;4 (High&#45;Power Resistors, Ceramic Capacitor, Inductor)</text>
</g>
<!-- &#45;7,&#45;8 (Tin mk2)&#45;&gt;&#45;6,&#45;4 (High&#45;Power Resistors, Ceramic Capacitor, Inductor) -->
<g id="edge2" class="edge">
<title>&#45;7,&#45;8 (Tin mk2)&#45;&gt;&#45;6,&#45;4 (High&#45;Power Resistors, Ceramic Capacitor, Inductor)</title>
<path fill="none" stroke="black" stroke-width="2.26" d="M830.43,-607.57C898.5,-669.36 1127.56,-877.25 1207.21,-949.54"/>
<polygon fill="black" stroke="black" stroke-width="2.26" points="1205.11,-952.37 1214.87,-956.5 1209.82,-947.18 1205.11,-952.37"/>
<text text-anchor="middle" x="958.32" y="-782.35" font-family="Times,serif" font-size="14.00">tin&#45;plate*138880</text>
</g>
<!-- 6,4 (Electronic components) -->
<g id="node4" class="node">
<title>6,4 (Electronic components)</title>
<ellipse fill="none" stroke="black" cx="796.3" cy="-1161.99" rx="141.88" ry="18"/>
<text text-anchor="middle" x="796.3" y="-1158.29" font-family="Times,serif" font-size="14.00">6,4 (Electronic components)</text>
</g>
<!-- &#45;7,&#45;8 (Tin mk2)&#45;&gt;6,4 (Electronic components) -->
<g id="edge3" class="edge">
<title>&#45;7,&#45;8 (Tin mk2)&#45;&gt;6,4 (Electronic components)</title>
<path fill="none" stroke="black" stroke-width="2.38" d="M810.65,-608.11C808.51,-690.73 799.64,-1032.99 797.03,-1133.88"/>
<polygon fill="black" stroke="black" stroke-width="2.38" points="793.53,-1133.84 796.77,-1143.92 800.53,-1134.02 793.53,-1133.84"/>
<text text-anchor="middle" x="743.34" y="-874.8" font-family="Times,serif" font-size="14.00">tin&#45;plate*145840</text>
</g>
<!-- 4,6 (Circuit substrate and Doped silicon) -->
<g id="node5" class="node">
<title>4,6 (Circuit substrate and Doped silicon)</title>
<ellipse fill="none" stroke="black" cx="421.91" cy="-1009.39" rx="199.56" ry="18"/>
<text text-anchor="middle" x="421.91" y="-1005.69" font-family="Times,serif" font-size="14.00">4,6 (Circuit substrate and Doped silicon)</text>
</g>
<!-- &#45;7,&#45;8 (Tin mk2)&#45;&gt;4,6 (Circuit substrate and Doped silicon) -->
<g id="edge4" class="edge">
<title>&#45;7,&#45;8 (Tin mk2)&#45;&gt;4,6 (Circuit substrate and Doped silicon)</title>
<path fill="none" stroke="black" stroke-width="0.15" d="M794.65,-607.8C733.24,-673.96 517.51,-906.39 445.5,-983.97"/>
<polygon fill="black" stroke="black" stroke-width="0.15" points="442.84,-981.69 438.61,-991.4 447.97,-986.46 442.84,-981.69"/>
<text text-anchor="middle" x="568.57" y="-799.69" font-family="Times,serif" font-size="14.00">tin&#45;plate*9440</text>
</g>
<!-- 3,3 (Random electronic components, Small Parts) -->
<g id="node6" class="node">
<title>3,3 (Random electronic components, Small Parts)</title>
<ellipse fill="none" stroke="black" cx="240.48" cy="-548.74" rx="240.46" ry="18"/>
<text text-anchor="middle" x="240.48" y="-545.04" font-family="Times,serif" font-size="14.00">3,3 (Random electronic components, Small Parts)</text>
</g>
<!-- &#45;7,&#45;8 (Tin mk2)&#45;&gt;3,3 (Random electronic components, Small Parts) -->
<g id="edge5" class="edge">
<title>&#45;7,&#45;8 (Tin mk2)&#45;&gt;3,3 (Random electronic components, Small Parts)</title>
<path fill="none" stroke="black" stroke-width="0.98" d="M735.93,-584.6C656.85,-578.88 529.42,-569.66 423.61,-562"/>
<polygon fill="black" stroke="black" stroke-width="0.98" points="423.67,-558.49 413.44,-561.26 423.16,-565.47 423.67,-558.49"/>
<text text-anchor="middle" x="523.77" y="-577.1" font-family="Times,serif" font-size="14.00">tin&#45;plate*60000</text>
</g>
<!-- 1,3 (item=korlex&#45;food&#45;01 Korlex food) -->
<g id="node7" class="node">
<title>1,3 (item=korlex&#45;food&#45;01 Korlex food)</title>
<ellipse fill="none" stroke="black" cx="475.22" cy="-126.9" rx="185.77" ry="18"/>
<text text-anchor="middle" x="475.22" y="-123.2" font-family="Times,serif" font-size="14.00">1,3 (item=korlex&#45;food&#45;01 Korlex food)</text>
</g>
<!-- &#45;7,&#45;8 (Tin mk2)&#45;&gt;1,3 (item=korlex&#45;food&#45;01 Korlex food) -->
<g id="edge6" class="edge">
<title>&#45;7,&#45;8 (Tin mk2)&#45;&gt;1,3 (item=korlex&#45;food&#45;01 Korlex food)</title>
<path fill="none" stroke="black" stroke-width="0.15" d="M798.16,-572.17C746.57,-501.05 555.68,-237.85 494.34,-153.26"/>
<polygon fill="black" stroke="black" stroke-width="0.15" points="497.03,-151.01 488.32,-144.97 491.36,-155.12 497.03,-151.01"/>
<text text-anchor="middle" x="594.75" y="-366.52" font-family="Times,serif" font-size="14.00">tin&#45;plate*9120</text>
</g>
<!-- 9,4 (Ulric fooder) -->
<g id="node8" class="node">
<title>9,4 (Ulric fooder)</title>
<ellipse fill="none" stroke="black" cx="800.99" cy="-18" rx="90.98" ry="18"/>
<text text-anchor="middle" x="800.99" y="-14.3" font-family="Times,serif" font-size="14.00">9,4 (Ulric fooder)</text>
</g>
<!-- &#45;7,&#45;8 (Tin mk2)&#45;&gt;9,4 (Ulric fooder) -->
<g id="edge7" class="edge">
<title>&#45;7,&#45;8 (Tin mk2)&#45;&gt;9,4 (Ulric fooder)</title>
<path fill="none" stroke="black" stroke-width="0.46" d="M810.8,-571.98C809.34,-489.34 803.28,-147.02 801.49,-46.11"/>
<polygon fill="black" stroke="black" stroke-width="0.46" points="804.99,-46.01 801.31,-36.07 797.99,-46.13 804.99,-46.01"/>
<text text-anchor="middle" x="750.15" y="-312.85" font-family="Times,serif" font-size="14.00">tin&#45;plate*28080</text>
</g>
<!-- &#45;4,8 (Moar Ulric Food) -->
<g id="node9" class="node">
<title>&#45;4,8 (Moar Ulric Food)</title>
<ellipse fill="none" stroke="black" cx="1068.18" cy="-78.91" rx="113.98" ry="18"/>
<text text-anchor="middle" x="1068.18" y="-75.21" font-family="Times,serif" font-size="14.00">&#45;4,8 (Moar Ulric Food)</text>
</g>
<!-- &#45;7,&#45;8 (Tin mk2)&#45;&gt;&#45;4,8 (Moar Ulric Food) -->
<g id="edge8" class="edge">
<title>&#45;7,&#45;8 (Tin mk2)&#45;&gt;&#45;4,8 (Moar Ulric Food)</title>
<path fill="none" stroke="black" stroke-width="0.46" d="M820.12,-572.15C858.48,-495.87 1008.52,-197.54 1054.63,-105.86"/>
<polygon fill="black" stroke="black" stroke-width="0.46" points="1057.76,-107.43 1059.12,-96.92 1051.5,-104.28 1057.76,-107.43"/>
<text text-anchor="middle" x="881.37" y="-342.81" font-family="Times,serif" font-size="14.00">tin&#45;plate*28160</text>
</g>
<!-- 5,8 (Ulric Food, Sandcastings) -->
<g id="node10" class="node">
<title>5,8 (Ulric Food, Sandcastings)</title>
<ellipse fill="none" stroke="black" cx="1308.91" cy="-308.01" rx="151.37" ry="18"/>
<text text-anchor="middle" x="1308.91" y="-304.31" font-family="Times,serif" font-size="14.00">5,8 (Ulric Food, Sandcastings)</text>
</g>
<!-- &#45;7,&#45;8 (Tin mk2)&#45;&gt;5,8 (Ulric Food, Sandcastings) -->
<g id="edge9" class="edge">
<title>&#45;7,&#45;8 (Tin mk2)&#45;&gt;5,8 (Ulric Food, Sandcastings)</title>
<path fill="none" stroke="black" stroke-width="0.46" d="M840.77,-573.25C925.93,-525 1171.38,-385.93 1268.58,-330.86"/>
<polygon fill="black" stroke="black" stroke-width="0.46" points="1270.54,-333.77 1277.51,-325.8 1267.09,-327.68 1270.54,-333.77"/>
<text text-anchor="middle" x="998.67" y="-455.85" font-family="Times,serif" font-size="14.00">tin&#45;plate*28080</text>
</g>
</g>
</svg>
