<?xml version="1.0" encoding="UTF-8" standalone="no"?>
<!DOCTYPE svg PUBLIC "-//W3C//DTD SVG 1.1//EN"
 "http://www.w3.org/Graphics/SVG/1.1/DTD/svg11.dtd">
<!-- Generated by graphviz version 2.43.0 (0)
 -->
<!-- Title: %3 Pages: 1 -->
<svg width="2000pt" height="1482pt"
 viewBox="0.00 0.00 1999.68 1482.39" xmlns="http://www.w3.org/2000/svg" xmlns:xlink="http://www.w3.org/1999/xlink">
<g id="graph0" class="graph" transform="scale(1 1) rotate(0) translate(4 1478.39)">
<title>%3</title>
<polygon fill="white" stroke="transparent" points="-4,4 -4,-1478.39 1995.68,-1478.39 1995.68,4 -4,4"/>
<!-- 4,5 (Yet More Raw Fiber) -->
<g id="node1" class="node">
<title>4,5 (Yet More Raw Fiber)</title>
<ellipse fill="none" stroke="black" cx="295.07" cy="-1057.26" rx="128.08" ry="18"/>
<text text-anchor="middle" x="295.07" y="-1053.56" font-family="Times,serif" font-size="14.00">4,5 (Yet More Raw Fiber)</text>
</g>
<!-- &#45;5,&#45;2 (item=auog Auog beach resort and cannibal workhouse) -->
<g id="node2" class="node">
<title>&#45;5,&#45;2 (item=auog Auog beach resort and cannibal workhouse)</title>
<ellipse fill="none" stroke="black" cx="295.07" cy="-417.12" rx="295.15" ry="18"/>
<text text-anchor="middle" x="295.07" y="-413.42" font-family="Times,serif" font-size="14.00">&#45;5,&#45;2 (item=auog Auog beach resort and cannibal workhouse)</text>
</g>
<!-- 4,5 (Yet More Raw Fiber)&#45;&gt;&#45;5,&#45;2 (item=auog Auog beach resort and cannibal workhouse) -->
<g id="edge1" class="edge">
<title>4,5 (Yet More Raw Fiber)&#45;&gt;&#45;5,&#45;2 (item=auog Auog beach resort and cannibal workhouse)</title>
<path fill="none" stroke="black" stroke-width="3.03" d="M295.07,-1039.14C295.07,-949.73 295.07,-555.64 295.07,-445.7"/>
<polygon fill="black" stroke="black" stroke-width="3.03" points="298.57,-445.4 295.07,-435.4 291.57,-445.4 298.57,-445.4"/>
<text text-anchor="middle" x="236.07" y="-746.22" font-family="Times,serif" font-size="14.00">raw&#45;fiber*53152</text>
</g>
<!-- &#45;1,7 (Rayon) -->
<g id="node6" class="node">
<title>&#45;1,7 (Rayon)</title>
<ellipse fill="none" stroke="black" cx="795.56" cy="-1456.39" rx="66.89" ry="18"/>
<text text-anchor="middle" x="795.56" y="-1452.69" font-family="Times,serif" font-size="14.00">&#45;1,7 (Rayon)</text>
</g>
<!-- 4,5 (Yet More Raw Fiber)&#45;&gt;&#45;1,7 (Rayon) -->
<g id="edge8" class="edge">
<title>4,5 (Yet More Raw Fiber)&#45;&gt;&#45;1,7 (Rayon)</title>
<path fill="none" stroke="black" stroke-width="0.57" d="M317.55,-1075.19C398.43,-1139.69 674.68,-1359.99 765.99,-1432.81"/>
<polygon fill="black" stroke="black" stroke-width="0.57" points="763.99,-1435.69 773.99,-1439.19 768.35,-1430.22 763.99,-1435.69"/>
<text text-anchor="middle" x="482.77" y="-1257.8" font-family="Times,serif" font-size="14.00">raw&#45;fiber*10016</text>
</g>
<!-- 4,1 (item=filtration&#45;media Filtration Media) -->
<g id="node7" class="node">
<title>4,1 (item=filtration&#45;media Filtration Media)</title>
<ellipse fill="none" stroke="black" cx="1419.65" cy="-1313.94" rx="214.46" ry="18"/>
<text text-anchor="middle" x="1419.65" y="-1310.24" font-family="Times,serif" font-size="14.00">4,1 (item=filtration&#45;media Filtration Media)</text>
</g>
<!-- 4,5 (Yet More Raw Fiber)&#45;&gt;4,1 (item=filtration&#45;media Filtration Media) -->
<g id="edge6" class="edge">
<title>4,5 (Yet More Raw Fiber)&#45;&gt;4,1 (item=filtration&#45;media Filtration Media)</title>
<path fill="none" stroke="black" stroke-width="0.58" d="M362.47,-1072.65C557.33,-1117.12 1121.15,-1245.81 1335.55,-1294.75"/>
<polygon fill="black" stroke="black" stroke-width="0.58" points="1334.96,-1298.2 1345.49,-1297.02 1336.52,-1291.38 1334.96,-1298.2"/>
<text text-anchor="middle" x="790.01" y="-1187.5" font-family="Times,serif" font-size="14.00">raw&#45;fiber*10112</text>
</g>
<!-- 2,4 (Formica and Phenolic boards) -->
<g id="node8" class="node">
<title>2,4 (Formica and Phenolic boards)</title>
<ellipse fill="none" stroke="black" cx="1419.65" cy="-160.45" rx="169.77" ry="18"/>
<text text-anchor="middle" x="1419.65" y="-156.75" font-family="Times,serif" font-size="14.00">2,4 (Formica and Phenolic boards)</text>
</g>
<!-- 4,5 (Yet More Raw Fiber)&#45;&gt;2,4 (Formica and Phenolic boards) -->
<g id="edge11" class="edge">
<title>4,5 (Yet More Raw Fiber)&#45;&gt;2,4 (Formica and Phenolic boards)</title>
<path fill="none" stroke="black" stroke-width="0.29" d="M317.54,-1039.35C458.96,-926.57 1225.4,-315.36 1388.94,-184.94"/>
<polygon fill="black" stroke="black" stroke-width="0.29" points="1391.5,-187.37 1397.13,-178.4 1387.13,-181.9 1391.5,-187.37"/>
<text text-anchor="middle" x="798.74" y="-615.94" font-family="Times,serif" font-size="14.00">raw&#45;fiber*5008</text>
</g>
<!-- &#45;1,8 (Fibre via. moss) -->
<g id="node3" class="node">
<title>&#45;1,8 (Fibre via. moss)</title>
<ellipse fill="none" stroke="black" cx="1697.4" cy="-737.19" rx="109.38" ry="18"/>
<text text-anchor="middle" x="1697.4" y="-733.49" font-family="Times,serif" font-size="14.00">&#45;1,8 (Fibre via. moss)</text>
</g>
<!-- &#45;1,8 (Fibre via. moss)&#45;&gt;&#45;5,&#45;2 (item=auog Auog beach resort and cannibal workhouse) -->
<g id="edge5" class="edge">
<title>&#45;1,8 (Fibre via. moss)&#45;&gt;&#45;5,&#45;2 (item=auog Auog beach resort and cannibal workhouse)</title>
<path fill="none" stroke="black" stroke-width="2" d="M1633.04,-722.5C1405.73,-670.62 640.44,-495.95 381.52,-436.85"/>
<polygon fill="black" stroke="black" stroke-width="2" points="381.95,-433.36 371.42,-434.55 380.39,-440.19 381.95,-433.36"/>
<text text-anchor="middle" x="948.28" y="-583.48" font-family="Times,serif" font-size="14.00">raw&#45;fiber*35008</text>
</g>
<!-- 4,2 (More fiberboard) -->
<g id="node4" class="node">
<title>4,2 (More fiberboard)</title>
<ellipse fill="none" stroke="black" cx="1880.54" cy="-737.19" rx="111.28" ry="18"/>
<text text-anchor="middle" x="1880.54" y="-733.49" font-family="Times,serif" font-size="14.00">4,2 (More fiberboard)</text>
</g>
<!-- &#45;1,8 (Fibre via. moss)&#45;&gt;4,2 (More fiberboard) -->
<g id="edge2" class="edge">
<title>&#45;1,8 (Fibre via. moss)&#45;&gt;4,2 (More fiberboard)</title>
<path fill="none" stroke="black" stroke-width="0.74" d="M1806.84,-737.19C1806.91,-737.19 1806.99,-737.19 1807.07,-737.19"/>
<polygon fill="black" stroke="black" stroke-width="0.74" points="1797.3,-740.7 1807.3,-737.19 1797.29,-733.7 1797.3,-740.7"/>
<text text-anchor="middle" x="1865.95" y="-740.99" font-family="Times,serif" font-size="14.00">raw&#45;fiber*12896</text>
</g>
<!-- &#45;1,8 (Fibre via. moss)&#45;&gt;&#45;1,7 (Rayon) -->
<g id="edge4" class="edge">
<title>&#45;1,8 (Fibre via. moss)&#45;&gt;&#45;1,7 (Rayon)</title>
<path fill="none" stroke="black" stroke-width="0.29" d="M1675.1,-754.97C1552.89,-852.43 964.64,-1321.55 825.23,-1432.72"/>
<polygon fill="black" stroke="black" stroke-width="0.29" points="822.71,-1430.26 817.07,-1439.23 827.07,-1435.73 822.71,-1430.26"/>
<text text-anchor="middle" x="1195.67" y="-1097.65" font-family="Times,serif" font-size="14.00">raw&#45;fiber*5008</text>
</g>
<!-- &#45;1,8 (Fibre via. moss)&#45;&gt;4,1 (item=filtration&#45;media Filtration Media) -->
<g id="edge9" class="edge">
<title>&#45;1,8 (Fibre via. moss)&#45;&gt;4,1 (item=filtration&#45;media Filtration Media)</title>
<path fill="none" stroke="black" stroke-width="0.86" d="M1688.63,-755.41C1648.38,-838.98 1481.28,-1185.96 1432.86,-1286.52"/>
<polygon fill="black" stroke="black" stroke-width="0.86" points="1429.61,-1285.19 1428.42,-1295.72 1435.91,-1288.23 1429.61,-1285.19"/>
<text text-anchor="middle" x="1501.74" y="-1024.76" font-family="Times,serif" font-size="14.00">raw&#45;fiber*15136</text>
</g>
<!-- &#45;1,8 (Fibre via. moss)&#45;&gt;2,4 (Formica and Phenolic boards) -->
<g id="edge7" class="edge">
<title>&#45;1,8 (Fibre via. moss)&#45;&gt;2,4 (Formica and Phenolic boards)</title>
<path fill="none" stroke="black" stroke-width="0.87" d="M1688.63,-718.98C1648.38,-635.41 1481.28,-288.43 1432.86,-187.87"/>
<polygon fill="black" stroke="black" stroke-width="0.87" points="1435.91,-186.15 1428.42,-178.66 1429.61,-189.19 1435.91,-186.15"/>
<text text-anchor="middle" x="1501.74" y="-457.22" font-family="Times,serif" font-size="14.00">raw&#45;fiber*15200</text>
</g>
<!-- 6,2 () -->
<g id="node5" class="node">
<title>6,2 ()</title>
<ellipse fill="none" stroke="black" cx="795.56" cy="-18" rx="35.19" ry="18"/>
<text text-anchor="middle" x="795.56" y="-14.3" font-family="Times,serif" font-size="14.00">6,2 ()</text>
</g>
<!-- 6,2 ()&#45;&gt;&#45;5,&#45;2 (item=auog Auog beach resort and cannibal workhouse) -->
<g id="edge3" class="edge">
<title>6,2 ()&#45;&gt;&#45;5,&#45;2 (item=auog Auog beach resort and cannibal workhouse)</title>
<path fill="none" stroke="black" stroke-width="1.21" d="M776.55,-33.16C700.72,-93.63 419.43,-317.95 325.69,-392.71"/>
<polygon fill="black" stroke="black" stroke-width="1.21" points="323.36,-390.08 317.73,-399.06 327.73,-395.56 323.36,-390.08"/>
<text text-anchor="middle" x="492.12" y="-216.73" font-family="Times,serif" font-size="14.00">raw&#45;fiber*21264</text>
</g>
<!-- 6,2 ()&#45;&gt;2,4 (Formica and Phenolic boards) -->
<g id="edge10" class="edge">
<title>6,2 ()&#45;&gt;2,4 (Formica and Phenolic boards)</title>
<path fill="none" stroke="black" stroke-width="0.57" d="M827.8,-25.36C922.07,-46.88 1199.32,-110.16 1338.29,-141.88"/>
<polygon fill="black" stroke="black" stroke-width="0.57" points="1337.53,-145.29 1348.05,-144.1 1339.08,-138.47 1337.53,-145.29"/>
<text text-anchor="middle" x="1024.04" y="-87.42" font-family="Times,serif" font-size="14.00">raw&#45;fiber*10000</text>
</g>
</g>
</svg>
