<?xml version="1.0" encoding="UTF-8" standalone="no"?>
<!DOCTYPE svg PUBLIC "-//W3C//DTD SVG 1.1//EN"
 "http://www.w3.org/Graphics/SVG/1.1/DTD/svg11.dtd">
<!-- Generated by graphviz version 2.43.0 (0)
 -->
<!-- Title: %3 Pages: 1 -->
<svg width="1674pt" height="825pt"
 viewBox="0.00 0.00 1673.99 825.28" xmlns="http://www.w3.org/2000/svg" xmlns:xlink="http://www.w3.org/1999/xlink">
<g id="graph0" class="graph" transform="scale(1 1) rotate(0) translate(4 821.28)">
<title>%3</title>
<polygon fill="white" stroke="transparent" points="-4,4 -4,-821.28 1669.99,-821.28 1669.99,4 -4,4"/>
<!-- 5,3 (Ash) -->
<g id="node1" class="node">
<title>5,3 (Ash)</title>
<ellipse fill="none" stroke="black" cx="373.07" cy="-799.28" rx="51.99" ry="18"/>
<text text-anchor="middle" x="373.07" y="-795.58" font-family="Times,serif" font-size="14.00">5,3 (Ash)</text>
</g>
<!-- 5,2 (Raw Fiber) -->
<g id="node2" class="node">
<title>5,2 (Raw Fiber)</title>
<ellipse fill="none" stroke="black" cx="824.15" cy="-799.28" rx="83.39" ry="18"/>
<text text-anchor="middle" x="824.15" y="-795.58" font-family="Times,serif" font-size="14.00">5,2 (Raw Fiber)</text>
</g>
<!-- 5,3 (Ash)&#45;&gt;5,2 (Raw Fiber) -->
<g id="edge1" class="edge">
<title>5,3 (Ash)&#45;&gt;5,2 (Raw Fiber)</title>
<path fill="none" stroke="black" stroke-width="1.23" d="M425.26,-799.28C499.81,-799.28 637.98,-799.28 730.5,-799.28"/>
<polygon fill="black" stroke="black" stroke-width="1.23" points="730.71,-802.78 740.71,-799.28 730.71,-795.78 730.71,-802.78"/>
<text text-anchor="middle" x="539.38" y="-803.08" font-family="Times,serif" font-size="14.00">ash*25840</text>
</g>
<!-- 4,&#45;2 (Ceramic) -->
<g id="node4" class="node">
<title>4,&#45;2 (Ceramic)</title>
<ellipse fill="none" stroke="black" cx="373.07" cy="-18" rx="76.89" ry="18"/>
<text text-anchor="middle" x="373.07" y="-14.3" font-family="Times,serif" font-size="14.00">4,&#45;2 (Ceramic)</text>
</g>
<!-- 5,3 (Ash)&#45;&gt;4,&#45;2 (Ceramic) -->
<g id="edge8" class="edge">
<title>5,3 (Ash)&#45;&gt;4,&#45;2 (Ceramic)</title>
<path fill="none" stroke="black" stroke-width="0.53" d="M373.07,-781.12C373.07,-678.6 373.07,-172.34 373.07,-46.4"/>
<polygon fill="black" stroke="black" stroke-width="0.53" points="376.57,-46.06 373.07,-36.06 369.57,-46.06 376.57,-46.06"/>
<text text-anchor="middle" x="334.57" y="-417.56" font-family="Times,serif" font-size="14.00">ash*11200</text>
</g>
<!-- 3,6 (Phosphoric Acid and Phosphine gas) -->
<g id="node5" class="node">
<title>3,6 (Phosphoric Acid and Phosphine gas)</title>
<ellipse fill="none" stroke="black" cx="1049.69" cy="-408.64" rx="200.36" ry="18"/>
<text text-anchor="middle" x="1049.69" y="-404.94" font-family="Times,serif" font-size="14.00">3,6 (Phosphoric Acid and Phosphine gas)</text>
</g>
<!-- 5,3 (Ash)&#45;&gt;3,6 (Phosphoric Acid and Phosphine gas) -->
<g id="edge12" class="edge">
<title>5,3 (Ash)&#45;&gt;3,6 (Phosphoric Acid and Phosphine gas)</title>
<path fill="none" stroke="black" stroke-width="0.91" d="M400.02,-783.73C504.8,-723.23 885.53,-503.42 1010.01,-431.55"/>
<polygon fill="black" stroke="black" stroke-width="0.91" points="1011.95,-434.47 1018.86,-426.44 1008.45,-428.41 1011.95,-434.47"/>
<text text-anchor="middle" x="666.51" y="-611.44" font-family="Times,serif" font-size="14.00">ash*19056</text>
</g>
<!-- 2,7 (Mystery petrochemicals) -->
<g id="node3" class="node">
<title>2,7 (Mystery petrochemicals)</title>
<ellipse fill="none" stroke="black" cx="147.54" cy="-408.64" rx="147.57" ry="18"/>
<text text-anchor="middle" x="147.54" y="-404.94" font-family="Times,serif" font-size="14.00">2,7 (Mystery petrochemicals)</text>
</g>
<!-- 2,7 (Mystery petrochemicals)&#45;&gt;4,&#45;2 (Ceramic) -->
<g id="edge2" class="edge">
<title>2,7 (Mystery petrochemicals)&#45;&gt;4,&#45;2 (Ceramic)</title>
<path fill="none" stroke="black" stroke-width="0.51" d="M157.96,-390.58C194.19,-327.84 314.7,-119.1 357.68,-44.66"/>
<polygon fill="black" stroke="black" stroke-width="0.51" points="360.79,-46.28 362.76,-35.87 354.73,-42.78 360.79,-46.28"/>
<text text-anchor="middle" x="219.32" y="-221.42" font-family="Times,serif" font-size="14.00">ash*10767</text>
</g>
<!-- 2,7 (Mystery petrochemicals)&#45;&gt;3,6 (Phosphoric Acid and Phosphine gas) -->
<g id="edge7" class="edge">
<title>2,7 (Mystery petrochemicals)&#45;&gt;3,6 (Phosphoric Acid and Phosphine gas)</title>
<path fill="none" stroke="black" stroke-width="0.51" d="M295.25,-408.64C443.07,-408.64 671.91,-408.64 838.81,-408.64"/>
<polygon fill="black" stroke="black" stroke-width="0.51" points="839.21,-412.14 849.21,-408.64 839.21,-405.14 839.21,-412.14"/>
<text text-anchor="middle" x="528.53" y="-412.44" font-family="Times,serif" font-size="14.00">ash*10784</text>
</g>
<!-- 3,6 (Phosphoric Acid and Phosphine gas)&#45;&gt;5,2 (Raw Fiber) -->
<g id="edge4" class="edge">
<title>3,6 (Phosphoric Acid and Phosphine gas)&#45;&gt;5,2 (Raw Fiber)</title>
<path fill="none" stroke="black" stroke-width="3.69" d="M1039.26,-426.7C1003.04,-489.44 882.52,-698.18 839.54,-772.63"/>
<polygon fill="black" stroke="black" stroke-width="3.69" points="836.43,-771.01 834.46,-781.42 842.5,-774.51 836.43,-771.01"/>
<text text-anchor="middle" x="900.9" y="-603.46" font-family="Times,serif" font-size="14.00">ash*77360</text>
</g>
<!-- 3,6 (Phosphoric Acid and Phosphine gas)&#45;&gt;3,6 (Phosphoric Acid and Phosphine gas) -->
<g id="edge3" class="edge">
<title>3,6 (Phosphoric Acid and Phosphine gas)&#45;&gt;3,6 (Phosphoric Acid and Phosphine gas)</title>
<path fill="none" stroke="black" stroke-width="2.24" d="M1241.17,-413.91C1257.61,-412.79 1267.87,-411.03 1267.87,-408.64 1267.87,-406.79 1261.73,-405.32 1251.34,-404.23"/>
<polygon fill="black" stroke="black" stroke-width="2.24" points="1251.43,-400.73 1241.17,-403.38 1250.84,-407.7 1251.43,-400.73"/>
<text text-anchor="middle" x="1306.37" y="-404.94" font-family="Times,serif" font-size="14.00">ash*46992</text>
</g>
<!-- 4,15 (Half an Ash) -->
<g id="node6" class="node">
<title>4,15 (Half an Ash)</title>
<ellipse fill="none" stroke="black" cx="824.15" cy="-18" rx="94.78" ry="18"/>
<text text-anchor="middle" x="824.15" y="-14.3" font-family="Times,serif" font-size="14.00">4,15 (Half an Ash)</text>
</g>
<!-- 4,15 (Half an Ash)&#45;&gt;5,2 (Raw Fiber) -->
<g id="edge13" class="edge">
<title>4,15 (Half an Ash)&#45;&gt;5,2 (Raw Fiber)</title>
<path fill="none" stroke="black" stroke-width="0.45" d="M824.15,-36.16C824.15,-138.69 824.15,-644.94 824.15,-770.88"/>
<polygon fill="black" stroke="black" stroke-width="0.45" points="820.65,-771.22 824.15,-781.22 827.65,-771.22 820.65,-771.22"/>
<text text-anchor="middle" x="790.15" y="-407.32" font-family="Times,serif" font-size="14.00">ash*9472</text>
</g>
<!-- 4,15 (Half an Ash)&#45;&gt;4,&#45;2 (Ceramic) -->
<g id="edge11" class="edge">
<title>4,15 (Half an Ash)&#45;&gt;4,&#45;2 (Ceramic)</title>
<path fill="none" stroke="black" stroke-width="0.38" d="M729.04,-18C649.63,-18 537.36,-18 460.25,-18"/>
<polygon fill="black" stroke="black" stroke-width="0.38" points="460.09,-14.5 450.09,-18 460.09,-21.5 460.09,-14.5"/>
<text text-anchor="middle" x="560.65" y="-21.8" font-family="Times,serif" font-size="14.00">ash*7888</text>
</g>
<!-- 4,15 (Half an Ash)&#45;&gt;3,6 (Phosphoric Acid and Phosphine gas) -->
<g id="edge5" class="edge">
<title>4,15 (Half an Ash)&#45;&gt;3,6 (Phosphoric Acid and Phosphine gas)</title>
<path fill="none" stroke="black" stroke-width="1.22" d="M834.57,-36.06C870.71,-98.65 990.76,-306.58 1034,-381.47"/>
<polygon fill="black" stroke="black" stroke-width="1.22" points="1031.08,-383.42 1039.11,-390.33 1037.14,-379.91 1031.08,-383.42"/>
<text text-anchor="middle" x="895.79" y="-212.56" font-family="Times,serif" font-size="14.00">ash*25552</text>
</g>
<!-- 0,3 () -->
<g id="node7" class="node">
<title>0,3 ()</title>
<ellipse fill="none" stroke="black" cx="1630.89" cy="-231.09" rx="35.19" ry="18"/>
<text text-anchor="middle" x="1630.89" y="-227.39" font-family="Times,serif" font-size="14.00">0,3 ()</text>
</g>
<!-- &#45;2,8 (syngas from coal dust and also wood) -->
<g id="node8" class="node">
<title>&#45;2,8 (syngas from coal dust and also wood)</title>
<ellipse fill="none" stroke="black" cx="1319.73" cy="-284.61" rx="208.76" ry="18"/>
<text text-anchor="middle" x="1319.73" y="-280.91" font-family="Times,serif" font-size="14.00">&#45;2,8 (syngas from coal dust and also wood)</text>
</g>
<!-- 0,3 ()&#45;&gt;&#45;2,8 (syngas from coal dust and also wood) -->
<g id="edge6" class="edge">
<title>0,3 ()&#45;&gt;&#45;2,8 (syngas from coal dust and also wood)</title>
<path fill="none" stroke="black" stroke-width="0.36" d="M1597.59,-236.82C1556.3,-243.92 1483.98,-256.36 1423.47,-266.77"/>
<polygon fill="black" stroke="black" stroke-width="0.36" points="1422.75,-263.34 1413.48,-268.49 1423.93,-270.24 1422.75,-263.34"/>
<text text-anchor="middle" x="1476.53" y="-255.6" font-family="Times,serif" font-size="14.00">ash*7504</text>
</g>
<!-- &#45;2,8 (syngas from coal dust and also wood)&#45;&gt;3,6 (Phosphoric Acid and Phosphine gas) -->
<g id="edge10" class="edge">
<title>&#45;2,8 (syngas from coal dust and also wood)&#45;&gt;3,6 (Phosphoric Acid and Phosphine gas)</title>
<path fill="none" stroke="black" stroke-width="0.48" d="M1281.04,-302.38C1232.71,-324.58 1150.03,-362.56 1097.71,-386.59"/>
<polygon fill="black" stroke="black" stroke-width="0.48" points="1095.93,-383.55 1088.31,-390.9 1098.85,-389.91 1095.93,-383.55"/>
<text text-anchor="middle" x="1150.87" y="-348.29" font-family="Times,serif" font-size="14.00">ash*10144</text>
</g>
<!-- 0,8 (Tar from Coke) -->
<g id="node9" class="node">
<title>0,8 (Tar from Coke)</title>
<ellipse fill="none" stroke="black" cx="1340.13" cy="-716.29" rx="100.98" ry="18"/>
<text text-anchor="middle" x="1340.13" y="-712.59" font-family="Times,serif" font-size="14.00">0,8 (Tar from Coke)</text>
</g>
<!-- 0,8 (Tar from Coke)&#45;&gt;3,6 (Phosphoric Acid and Phosphine gas) -->
<g id="edge9" class="edge">
<title>0,8 (Tar from Coke)&#45;&gt;3,6 (Phosphoric Acid and Phosphine gas)</title>
<path fill="none" stroke="black" stroke-width="0.48" d="M1323.26,-698.42C1274.14,-646.4 1131.13,-494.91 1073.84,-434.22"/>
<polygon fill="black" stroke="black" stroke-width="0.48" points="1076.38,-431.82 1066.97,-426.95 1071.29,-436.62 1076.38,-431.82"/>
<text text-anchor="middle" x="1160.05" y="-570.12" font-family="Times,serif" font-size="14.00">ash*10048</text>
</g>
</g>
</svg>
