<?xml version="1.0" encoding="UTF-8" standalone="no"?>
<!DOCTYPE svg PUBLIC "-//W3C//DTD SVG 1.1//EN"
 "http://www.w3.org/Graphics/SVG/1.1/DTD/svg11.dtd">
<!-- Generated by graphviz version 2.43.0 (0)
 -->
<!-- Title: %3 Pages: 1 -->
<svg width="1625pt" height="1268pt"
 viewBox="0.00 0.00 1624.78 1267.78" xmlns="http://www.w3.org/2000/svg" xmlns:xlink="http://www.w3.org/1999/xlink">
<g id="graph0" class="graph" transform="scale(1 1) rotate(0) translate(4 1263.78)">
<title>%3</title>
<polygon fill="white" stroke="transparent" points="-4,4 -4,-1263.78 1620.78,-1263.78 1620.78,4 -4,4"/>
<!-- &#45;5,1 (Acetylene) -->
<g id="node1" class="node">
<title>&#45;5,1 (Acetylene)</title>
<ellipse fill="none" stroke="black" cx="178" cy="-357.57" rx="83.39" ry="18"/>
<text text-anchor="middle" x="178" y="-353.87" font-family="Times,serif" font-size="14.00">&#45;5,1 (Acetylene)</text>
</g>
<!-- 8,&#45;2 (Lead mine) -->
<g id="node2" class="node">
<title>8,&#45;2 (Lead mine)</title>
<ellipse fill="none" stroke="black" cx="1134.79" cy="-139.19" rx="86.38" ry="18"/>
<text text-anchor="middle" x="1134.79" y="-135.49" font-family="Times,serif" font-size="14.00">8,&#45;2 (Lead mine)</text>
</g>
<!-- &#45;5,1 (Acetylene)&#45;&gt;8,&#45;2 (Lead mine) -->
<g id="edge1" class="edge">
<title>&#45;5,1 (Acetylene)&#45;&gt;8,&#45;2 (Lead mine)</title>
<path fill="none" stroke="black" stroke-width="3.37" d="M235.34,-344.49C402.12,-306.42 886.57,-195.85 1066.47,-154.79"/>
<polygon fill="black" stroke="black" stroke-width="3.37" points="1067.38,-158.17 1076.35,-152.53 1065.82,-151.34 1067.38,-158.17"/>
<text text-anchor="middle" x="561.91" y="-253.44" font-family="Times,serif" font-size="14.00">acetylene&#45;barrel*166040</text>
</g>
<!-- &#45;3,5 (fluid=arqad&#45;honey Honey) -->
<g id="node4" class="node">
<title>&#45;3,5 (fluid=arqad&#45;honey Honey)</title>
<ellipse fill="none" stroke="black" cx="178" cy="-902.21" rx="157.07" ry="18"/>
<text text-anchor="middle" x="178" y="-898.51" font-family="Times,serif" font-size="14.00">&#45;3,5 (fluid=arqad&#45;honey Honey)</text>
</g>
<!-- &#45;5,1 (Acetylene)&#45;&gt;&#45;3,5 (fluid=arqad&#45;honey Honey) -->
<g id="edge8" class="edge">
<title>&#45;5,1 (Acetylene)&#45;&gt;&#45;3,5 (fluid=arqad&#45;honey Honey)</title>
<path fill="none" stroke="black" stroke-width="2.22" d="M178,-375.69C178,-455.49 178,-775.95 178,-873.73"/>
<polygon fill="black" stroke="black" stroke-width="2.22" points="174.5,-874.02 178,-884.02 181.5,-874.02 174.5,-874.02"/>
<text text-anchor="middle" x="89" y="-628.51" font-family="Times,serif" font-size="14.00">acetylene&#45;barrel*109280</text>
</g>
<!-- 0,0 (LE BUS) -->
<g id="node7" class="node">
<title>0,0 (LE BUS)</title>
<ellipse fill="none" stroke="black" cx="1134.79" cy="-1120.59" rx="71.49" ry="18"/>
<text text-anchor="middle" x="1134.79" y="-1116.89" font-family="Times,serif" font-size="14.00">0,0 (LE BUS)</text>
</g>
<!-- &#45;5,1 (Acetylene)&#45;&gt;0,0 (LE BUS) -->
<g id="edge10" class="edge">
<title>&#45;5,1 (Acetylene)&#45;&gt;0,0 (LE BUS)</title>
<path fill="none" stroke="black" stroke-width="0.66" d="M200.24,-375.31C327.2,-476.56 959.67,-980.94 1104.99,-1096.83"/>
<polygon fill="black" stroke="black" stroke-width="0.66" points="1103.09,-1099.78 1113.09,-1103.28 1107.45,-1094.31 1103.09,-1099.78"/>
<text text-anchor="middle" x="568.12" y="-739.87" font-family="Times,serif" font-size="14.00">acetylene&#45;barrel*32760</text>
</g>
<!-- &#45;6,5 (Acetelyne) -->
<g id="node3" class="node">
<title>&#45;6,5 (Acetelyne)</title>
<ellipse fill="none" stroke="black" cx="603.81" cy="-1241.78" rx="83.39" ry="18"/>
<text text-anchor="middle" x="603.81" y="-1238.08" font-family="Times,serif" font-size="14.00">&#45;6,5 (Acetelyne)</text>
</g>
<!-- &#45;6,5 (Acetelyne)&#45;&gt;8,&#45;2 (Lead mine) -->
<g id="edge6" class="edge">
<title>&#45;6,5 (Acetelyne)&#45;&gt;8,&#45;2 (Lead mine)</title>
<path fill="none" stroke="black" stroke-width="2.48" d="M612.59,-1223.56C674.6,-1094.79 1046.55,-322.44 1121.6,-166.59"/>
<polygon fill="black" stroke="black" stroke-width="2.48" points="1124.92,-167.76 1126.1,-157.23 1118.61,-164.72 1124.92,-167.76"/>
<text text-anchor="middle" x="778.09" y="-698.88" font-family="Times,serif" font-size="14.00">acetylene&#45;barrel*122520</text>
</g>
<!-- &#45;6,5 (Acetelyne)&#45;&gt;&#45;3,5 (fluid=arqad&#45;honey Honey) -->
<g id="edge2" class="edge">
<title>&#45;6,5 (Acetelyne)&#45;&gt;&#45;3,5 (fluid=arqad&#45;honey Honey)</title>
<path fill="none" stroke="black" stroke-width="1.64" d="M581.82,-1224.24C511.1,-1167.85 289.48,-991.11 208.24,-926.32"/>
<polygon fill="black" stroke="black" stroke-width="1.64" points="210.38,-923.55 200.38,-920.05 206.01,-929.02 210.38,-923.55"/>
<text text-anchor="middle" x="310.53" y="-1079.08" font-family="Times,serif" font-size="14.00">acetylene&#45;barrel*80760</text>
</g>
<!-- &#45;6,5 (Acetelyne)&#45;&gt;0,0 (LE BUS) -->
<g id="edge7" class="edge">
<title>&#45;6,5 (Acetelyne)&#45;&gt;0,0 (LE BUS)</title>
<path fill="none" stroke="black" stroke-width="0.63" d="M661.14,-1228.7C761.32,-1205.83 967.45,-1158.78 1071.6,-1135.01"/>
<polygon fill="black" stroke="black" stroke-width="0.63" points="1072.69,-1138.35 1081.66,-1132.72 1071.13,-1131.53 1072.69,-1138.35"/>
<text text-anchor="middle" x="781.87" y="-1185.65" font-family="Times,serif" font-size="14.00">acetylene&#45;barrel*31200</text>
</g>
<!-- &#45;2,6 (Wrong ratio of Calcium Carbide to Acetalene) -->
<g id="node5" class="node">
<title>&#45;2,6 (Wrong ratio of Calcium Carbide to Acetalene)</title>
<ellipse fill="none" stroke="black" cx="1371.1" cy="-629.89" rx="245.86" ry="18"/>
<text text-anchor="middle" x="1371.1" y="-626.19" font-family="Times,serif" font-size="14.00">&#45;2,6 (Wrong ratio of Calcium Carbide to Acetalene)</text>
</g>
<!-- &#45;2,6 (Wrong ratio of Calcium Carbide to Acetalene)&#45;&gt;8,&#45;2 (Lead mine) -->
<g id="edge3" class="edge">
<title>&#45;2,6 (Wrong ratio of Calcium Carbide to Acetalene)&#45;&gt;8,&#45;2 (Lead mine)</title>
<path fill="none" stroke="black" stroke-width="1.04" d="M1362.41,-611.84C1326.65,-537.6 1190.77,-255.44 1147.86,-166.33"/>
<polygon fill="black" stroke="black" stroke-width="1.04" points="1150.93,-164.63 1143.44,-157.14 1144.62,-167.67 1150.93,-164.63"/>
<text text-anchor="middle" x="1170.63" y="-392.89" font-family="Times,serif" font-size="14.00">acetylene&#45;barrel*51504</text>
</g>
<!-- &#45;2,6 (Wrong ratio of Calcium Carbide to Acetalene)&#45;&gt;&#45;3,5 (fluid=arqad&#45;honey Honey) -->
<g id="edge5" class="edge">
<title>&#45;2,6 (Wrong ratio of Calcium Carbide to Acetalene)&#45;&gt;&#45;3,5 (fluid=arqad&#45;honey Honey)</title>
<path fill="none" stroke="black" stroke-width="0.36" d="M1295.56,-647.13C1082.41,-695.78 477.58,-833.83 258.49,-883.84"/>
<polygon fill="black" stroke="black" stroke-width="0.36" points="257.64,-880.44 248.67,-886.08 259.2,-887.27 257.64,-880.44"/>
<text text-anchor="middle" x="692.53" y="-769.28" font-family="Times,serif" font-size="14.00">acetylene&#45;barrel*17584</text>
</g>
<!-- &#45;2,6 (Wrong ratio of Calcium Carbide to Acetalene)&#45;&gt;0,0 (LE BUS) -->
<g id="edge11" class="edge">
<title>&#45;2,6 (Wrong ratio of Calcium Carbide to Acetalene)&#45;&gt;0,0 (LE BUS)</title>
<path fill="none" stroke="black" stroke-width="0.05" d="M1362.41,-647.94C1326.65,-722.18 1190.77,-1004.35 1147.86,-1093.45"/>
<polygon fill="black" stroke="black" stroke-width="0.05" points="1144.62,-1092.11 1143.44,-1102.64 1150.93,-1095.15 1144.62,-1092.11"/>
<text text-anchor="middle" x="1175.13" y="-874.49" font-family="Times,serif" font-size="14.00">acetylene&#45;barrel*2320</text>
</g>
<!-- &#45;5,&#45;4 (low priority (slaked)? lime) -->
<g id="node6" class="node">
<title>&#45;5,&#45;4 (low priority (slaked)? lime)</title>
<ellipse fill="none" stroke="black" cx="603.81" cy="-18" rx="162.47" ry="18"/>
<text text-anchor="middle" x="603.81" y="-14.3" font-family="Times,serif" font-size="14.00">&#45;5,&#45;4 (low priority (slaked)? lime)</text>
</g>
<!-- &#45;5,&#45;4 (low priority (slaked)? lime)&#45;&gt;8,&#45;2 (Lead mine) -->
<g id="edge12" class="edge">
<title>&#45;5,&#45;4 (low priority (slaked)? lime)&#45;&gt;8,&#45;2 (Lead mine)</title>
<path fill="none" stroke="black" stroke-width="0.24" d="M674.87,-34.22C777.43,-57.63 965.67,-100.59 1066.6,-123.63"/>
<polygon fill="black" stroke="black" stroke-width="0.24" points="1065.86,-127.05 1076.39,-125.86 1067.42,-120.22 1065.86,-127.05"/>
<text text-anchor="middle" x="786.24" y="-82.72" font-family="Times,serif" font-size="14.00">acetylene&#45;barrel*11594</text>
</g>
<!-- &#45;5,&#45;4 (low priority (slaked)? lime)&#45;&gt;&#45;3,5 (fluid=arqad&#45;honey Honey) -->
<g id="edge13" class="edge">
<title>&#45;5,&#45;4 (low priority (slaked)? lime)&#45;&gt;&#45;3,5 (fluid=arqad&#45;honey Honey)</title>
<path fill="none" stroke="black" stroke-width="0.18" d="M595.11,-36.06C541.49,-147.41 256.04,-740.16 191.14,-874.93"/>
<polygon fill="black" stroke="black" stroke-width="0.18" points="187.87,-873.65 186.68,-884.17 194.18,-876.68 187.87,-873.65"/>
<text text-anchor="middle" x="313.12" y="-459.3" font-family="Times,serif" font-size="14.00">acetylene&#45;barrel*8993</text>
</g>
<!-- &#45;5,&#45;4 (low priority (slaked)? lime)&#45;&gt;0,0 (LE BUS) -->
<g id="edge4" class="edge">
<title>&#45;5,&#45;4 (low priority (slaked)? lime)&#45;&gt;0,0 (LE BUS)</title>
<path fill="none" stroke="black" stroke-width="0.12" d="M612.59,-36.22C674.6,-164.99 1046.55,-937.35 1121.6,-1093.19"/>
<polygon fill="black" stroke="black" stroke-width="0.12" points="1118.61,-1095.06 1126.1,-1102.55 1124.92,-1092.02 1118.61,-1095.06"/>
<text text-anchor="middle" x="787.09" y="-568.5" font-family="Times,serif" font-size="14.00">acetylene&#45;barrel*5920</text>
</g>
<!-- 5,&#45;2 (Lubricant) -->
<g id="node8" class="node">
<title>5,&#45;2 (Lubricant)</title>
<ellipse fill="none" stroke="black" cx="1526.29" cy="-629.89" rx="83.39" ry="18"/>
<text text-anchor="middle" x="1526.29" y="-626.19" font-family="Times,serif" font-size="14.00">5,&#45;2 (Lubricant)</text>
</g>
<!-- 5,&#45;2 (Lubricant)&#45;&gt;&#45;2,6 (Wrong ratio of Calcium Carbide to Acetalene) -->
<g id="edge9" class="edge">
<title>5,&#45;2 (Lubricant)&#45;&gt;&#45;2,6 (Wrong ratio of Calcium Carbide to Acetalene)</title>
<path fill="none" stroke="black" stroke-width="0.01" d="M1442.79,-629.89C1442.72,-629.89 1442.65,-629.89 1442.57,-629.89"/>
<polygon fill="black" stroke="black" stroke-width="0.01" points="1452.36,-626.4 1442.36,-629.89 1452.36,-633.4 1452.36,-626.4"/>
<text text-anchor="middle" x="1367.18" y="-633.69" font-family="Times,serif" font-size="14.00">acetylene&#45;barrel*640</text>
</g>
</g>
</svg>
