<?xml version="1.0" encoding="UTF-8" standalone="no"?>
<!DOCTYPE svg PUBLIC "-//W3C//DTD SVG 1.1//EN"
 "http://www.w3.org/Graphics/SVG/1.1/DTD/svg11.dtd">
<!-- Generated by graphviz version 2.43.0 (0)
 -->
<!-- Title: %3 Pages: 1 -->
<svg width="779pt" height="44pt"
 viewBox="0.00 0.00 778.54 44.00" xmlns="http://www.w3.org/2000/svg" xmlns:xlink="http://www.w3.org/1999/xlink">
<g id="graph0" class="graph" transform="scale(1 1) rotate(0) translate(4 40)">
<title>%3</title>
<polygon fill="white" stroke="transparent" points="-4,4 -4,-40 774.54,-40 774.54,4 -4,4"/>
<!-- 1,1 (Moondrops) -->
<g id="node1" class="node">
<title>1,1 (Moondrops)</title>
<ellipse fill="none" stroke="black" cx="437.27" cy="-18" rx="87.18" ry="18"/>
<text text-anchor="middle" x="437.27" y="-14.3" font-family="Times,serif" font-size="14.00">1,1 (Moondrops)</text>
</g>
<!-- 1,0 () -->
<g id="node2" class="node">
<title>1,0 ()</title>
<ellipse fill="none" stroke="black" cx="735.45" cy="-18" rx="35.19" ry="18"/>
<text text-anchor="middle" x="735.45" y="-14.3" font-family="Times,serif" font-size="14.00">1,0 ()</text>
</g>
<!-- 1,1 (Moondrops)&#45;&gt;1,0 () -->
<g id="edge1" class="edge">
<title>1,1 (Moondrops)&#45;&gt;1,0 ()</title>
<path fill="none" stroke="black" stroke-width="1.33" d="M524.72,-18C578.97,-18 646.43,-18 690.19,-18"/>
<polygon fill="black" stroke="black" stroke-width="1.33" points="690.24,-21.5 700.24,-18 690.24,-14.5 690.24,-21.5"/>
<text text-anchor="middle" x="638.45" y="-6.8" font-family="Times,serif" font-size="14.00">moondrop*12048</text>
</g>
<!-- &#45;3,4 (Lard from Cottonguts) -->
<g id="node3" class="node">
<title>&#45;3,4 (Lard from Cottonguts)</title>
<ellipse fill="none" stroke="black" cx="139.09" cy="-18" rx="139.18" ry="18"/>
<text text-anchor="middle" x="139.09" y="-14.3" font-family="Times,serif" font-size="14.00">&#45;3,4 (Lard from Cottonguts)</text>
</g>
<!-- 1,1 (Moondrops)&#45;&gt;&#45;3,4 (Lard from Cottonguts) -->
<g id="edge2" class="edge">
<title>1,1 (Moondrops)&#45;&gt;&#45;3,4 (Lard from Cottonguts)</title>
<path fill="none" stroke="black" stroke-width="0.67" d="M349.82,-18C330.55,-18 309.61,-18 288.65,-18"/>
<polygon fill="black" stroke="black" stroke-width="0.67" points="288.37,-14.5 278.37,-18 288.37,-21.5 288.37,-14.5"/>
<text text-anchor="middle" x="290.49" y="-6.8" font-family="Times,serif" font-size="14.00">moondrop*6032</text>
</g>
</g>
</svg>
