<?xml version="1.0" encoding="UTF-8" standalone="no"?>
<!DOCTYPE svg PUBLIC "-//W3C//DTD SVG 1.1//EN"
 "http://www.w3.org/Graphics/SVG/1.1/DTD/svg11.dtd">
<!-- Generated by graphviz version 2.43.0 (0)
 -->
<!-- Title: %3 Pages: 1 -->
<svg width="703pt" height="44pt"
 viewBox="0.00 0.00 703.15 44.00" xmlns="http://www.w3.org/2000/svg" xmlns:xlink="http://www.w3.org/1999/xlink">
<g id="graph0" class="graph" transform="scale(1 1) rotate(0) translate(4 40)">
<title>%3</title>
<polygon fill="white" stroke="transparent" points="-4,4 -4,-40 699.15,-40 699.15,4 -4,4"/>
<!-- 9,7 () -->
<g id="node1" class="node">
<title>9,7 ()</title>
<ellipse fill="none" stroke="black" cx="339.78" cy="-18" rx="35.19" ry="18"/>
<text text-anchor="middle" x="339.78" y="-14.3" font-family="Times,serif" font-size="14.00">9,7 ()</text>
</g>
<!-- &#45;2,5 (Rare Earth Oxides) -->
<g id="node2" class="node">
<title>&#45;2,5 (Rare Earth Oxides)</title>
<ellipse fill="none" stroke="black" cx="571.01" cy="-18" rx="124.28" ry="18"/>
<text text-anchor="middle" x="571.01" y="-14.3" font-family="Times,serif" font-size="14.00">&#45;2,5 (Rare Earth Oxides)</text>
</g>
<!-- 9,7 ()&#45;&gt;&#45;2,5 (Rare Earth Oxides) -->
<g id="edge1" class="edge">
<title>9,7 ()&#45;&gt;&#45;2,5 (Rare Earth Oxides)</title>
<path fill="none" stroke="black" stroke-width="1.42" d="M374.9,-18C392.01,-18 413.79,-18 436.58,-18"/>
<polygon fill="black" stroke="black" stroke-width="1.42" points="436.75,-21.5 446.75,-18 436.75,-14.5 436.75,-21.5"/>
<text text-anchor="middle" x="324.74" y="-21.8" font-family="Times,serif" font-size="14.00">rare&#45;earth&#45;ore*139376</text>
</g>
<!-- 4,11 (Cobalt Extract) -->
<g id="node3" class="node">
<title>4,11 (Cobalt Extract)</title>
<ellipse fill="none" stroke="black" cx="108.54" cy="-18" rx="108.58" ry="18"/>
<text text-anchor="middle" x="108.54" y="-14.3" font-family="Times,serif" font-size="14.00">4,11 (Cobalt Extract)</text>
</g>
<!-- 9,7 ()&#45;&gt;4,11 (Cobalt Extract) -->
<g id="edge2" class="edge">
<title>9,7 ()&#45;&gt;4,11 (Cobalt Extract)</title>
<path fill="none" stroke="black" stroke-width="0.58" d="M304.66,-18C283.64,-18 255.57,-18 227.25,-18"/>
<polygon fill="black" stroke="black" stroke-width="0.58" points="227.23,-14.5 217.23,-18 227.23,-21.5 227.23,-14.5"/>
<text text-anchor="middle" x="227.7" y="-6.8" font-family="Times,serif" font-size="14.00">rare&#45;earth&#45;ore*57088</text>
</g>
</g>
</svg>
