<?xml version="1.0" encoding="UTF-8" standalone="no"?>
<!DOCTYPE svg PUBLIC "-//W3C//DTD SVG 1.1//EN"
 "http://www.w3.org/Graphics/SVG/1.1/DTD/svg11.dtd">
<!-- Generated by graphviz version 2.43.0 (0)
 -->
<!-- Title: %3 Pages: 1 -->
<svg width="1109pt" height="44pt"
 viewBox="0.00 0.00 1109.37 44.00" xmlns="http://www.w3.org/2000/svg" xmlns:xlink="http://www.w3.org/1999/xlink">
<g id="graph0" class="graph" transform="scale(1 1) rotate(0) translate(4 40)">
<title>%3</title>
<polygon fill="white" stroke="transparent" points="-4,4 -4,-40 1105.37,-40 1105.37,4 -4,4"/>
<!-- 4,4 (Hydrogen Chloride, item=nylon Nylon/Nylon parts) -->
<g id="node1" class="node">
<title>4,4 (Hydrogen Chloride, item=nylon Nylon/Nylon parts)</title>
<ellipse fill="none" stroke="black" cx="554.91" cy="-18" rx="271.05" ry="18"/>
<text text-anchor="middle" x="554.91" y="-14.3" font-family="Times,serif" font-size="14.00">4,4 (Hydrogen Chloride, item=nylon Nylon/Nylon parts)</text>
</g>
<!-- 3,0 (Zinc Chloride) -->
<g id="node2" class="node">
<title>3,0 (Zinc Chloride)</title>
<ellipse fill="none" stroke="black" cx="1003.87" cy="-18" rx="97.48" ry="18"/>
<text text-anchor="middle" x="1003.87" y="-14.3" font-family="Times,serif" font-size="14.00">3,0 (Zinc Chloride)</text>
</g>
<!-- 4,4 (Hydrogen Chloride, item=nylon Nylon/Nylon parts)&#45;&gt;3,0 (Zinc Chloride) -->
<g id="edge1" class="edge">
<title>4,4 (Hydrogen Chloride, item=nylon Nylon/Nylon parts)&#45;&gt;3,0 (Zinc Chloride)</title>
<path fill="none" stroke="black" stroke-width="1.94" d="M826.11,-18C850.53,-18 874.19,-18 895.84,-18"/>
<polygon fill="black" stroke="black" stroke-width="1.94" points="895.98,-21.5 905.98,-18 895.97,-14.5 895.98,-21.5"/>
<text text-anchor="middle" x="860.97" y="-6.8" font-family="Times,serif" font-size="14.00">hydrogen&#45;chloride&#45;barrel*15696</text>
</g>
<!-- 2,1 (Niobium plates) -->
<g id="node3" class="node">
<title>2,1 (Niobium plates)</title>
<ellipse fill="none" stroke="black" cx="105.94" cy="-18" rx="105.88" ry="18"/>
<text text-anchor="middle" x="105.94" y="-14.3" font-family="Times,serif" font-size="14.00">2,1 (Niobium plates)</text>
</g>
<!-- 4,4 (Hydrogen Chloride, item=nylon Nylon/Nylon parts)&#45;&gt;2,1 (Niobium plates) -->
<g id="edge2" class="edge">
<title>4,4 (Hydrogen Chloride, item=nylon Nylon/Nylon parts)&#45;&gt;2,1 (Niobium plates)</title>
<path fill="none" stroke="black" stroke-width="0.06" d="M283.71,-18C262.29,-18 241.47,-18 222.06,-18"/>
<polygon fill="black" stroke="black" stroke-width="0.06" points="222.05,-14.5 212.05,-18 222.05,-21.5 222.05,-14.5"/>
<text text-anchor="middle" x="199.88" y="-6.8" font-family="Times,serif" font-size="14.00">hydrogen&#45;chloride&#45;barrel*464</text>
</g>
</g>
</svg>
