<?xml version="1.0" encoding="UTF-8" standalone="no"?>
<!DOCTYPE svg PUBLIC "-//W3C//DTD SVG 1.1//EN"
 "http://www.w3.org/Graphics/SVG/1.1/DTD/svg11.dtd">
<!-- Generated by graphviz version 2.43.0 (0)
 -->
<!-- Title: %3 Pages: 1 -->
<svg width="670pt" height="44pt"
 viewBox="0.00 0.00 670.00 44.00" xmlns="http://www.w3.org/2000/svg" xmlns:xlink="http://www.w3.org/1999/xlink">
<g id="graph0" class="graph" transform="scale(1 1) rotate(0) translate(4 40)">
<title>%3</title>
<polygon fill="white" stroke="transparent" points="-4,4 -4,-40 666,-40 666,4 -4,4"/>
<!-- 4,&#45;1 (Fluid) -->
<g id="node1" class="node">
<title>4,&#45;1 (Fluid)</title>
<ellipse fill="none" stroke="black" cx="329.38" cy="-18" rx="61.99" ry="18"/>
<text text-anchor="middle" x="329.38" y="-14.3" font-family="Times,serif" font-size="14.00">4,&#45;1 (Fluid)</text>
</g>
<!-- &#45;1,&#45;2 (Aramid fiber) -->
<g id="node2" class="node">
<title>&#45;1,&#45;2 (Aramid fiber)</title>
<ellipse fill="none" stroke="black" cx="562.56" cy="-18" rx="99.38" ry="18"/>
<text text-anchor="middle" x="562.56" y="-14.3" font-family="Times,serif" font-size="14.00">&#45;1,&#45;2 (Aramid fiber)</text>
</g>
<!-- 4,&#45;1 (Fluid)&#45;&gt;&#45;1,&#45;2 (Aramid fiber) -->
<g id="edge1" class="edge">
<title>4,&#45;1 (Fluid)&#45;&gt;&#45;1,&#45;2 (Aramid fiber)</title>
<path fill="none" stroke="black" stroke-width="1.63" d="M391.25,-18C410.24,-18 431.73,-18 452.91,-18"/>
<polygon fill="black" stroke="black" stroke-width="1.63" points="452.94,-21.5 462.94,-18 452.94,-14.5 452.94,-21.5"/>
<text text-anchor="middle" x="422.08" y="-6.8" font-family="Times,serif" font-size="14.00">tpa&#45;barrel*2280</text>
</g>
<!-- &#45;5,2 (Optical fiber) -->
<g id="node3" class="node">
<title>&#45;5,2 (Optical fiber)</title>
<ellipse fill="none" stroke="black" cx="96.19" cy="-18" rx="96.38" ry="18"/>
<text text-anchor="middle" x="96.19" y="-14.3" font-family="Times,serif" font-size="14.00">&#45;5,2 (Optical fiber)</text>
</g>
<!-- 4,&#45;1 (Fluid)&#45;&gt;&#45;5,2 (Optical fiber) -->
<g id="edge2" class="edge">
<title>4,&#45;1 (Fluid)&#45;&gt;&#45;5,2 (Optical fiber)</title>
<path fill="none" stroke="black" stroke-width="0.37" d="M267.5,-18C247.61,-18 224.97,-18 202.81,-18"/>
<polygon fill="black" stroke="black" stroke-width="0.37" points="202.68,-14.5 192.68,-18 202.68,-21.5 202.68,-14.5"/>
<text text-anchor="middle" x="208.66" y="-6.8" font-family="Times,serif" font-size="14.00">tpa&#45;barrel*512</text>
</g>
</g>
</svg>
