<?xml version="1.0" encoding="UTF-8" standalone="no"?>
<!DOCTYPE svg PUBLIC "-//W3C//DTD SVG 1.1//EN"
 "http://www.w3.org/Graphics/SVG/1.1/DTD/svg11.dtd">
<!-- Generated by graphviz version 2.43.0 (0)
 -->
<!-- Title: %3 Pages: 1 -->
<svg width="1046pt" height="44pt"
 viewBox="0.00 0.00 1046.32 44.00" xmlns="http://www.w3.org/2000/svg" xmlns:xlink="http://www.w3.org/1999/xlink">
<g id="graph0" class="graph" transform="scale(1 1) rotate(0) translate(4 40)">
<title>%3</title>
<polygon fill="white" stroke="transparent" points="-4,4 -4,-40 1042.32,-40 1042.32,4 -4,4"/>
<!-- 4,6 (Circuit substrate and Doped silicon) -->
<g id="node1" class="node">
<title>4,6 (Circuit substrate and Doped silicon)</title>
<ellipse fill="none" stroke="black" cx="554.91" cy="-18" rx="199.56" ry="18"/>
<text text-anchor="middle" x="554.91" y="-14.3" font-family="Times,serif" font-size="14.00">4,6 (Circuit substrate and Doped silicon)</text>
</g>
<!-- &#45;2,&#45;3 (Trains) -->
<g id="node2" class="node">
<title>&#45;2,&#45;3 (Trains)</title>
<ellipse fill="none" stroke="black" cx="968.13" cy="-18" rx="70.39" ry="18"/>
<text text-anchor="middle" x="968.13" y="-14.3" font-family="Times,serif" font-size="14.00">&#45;2,&#45;3 (Trains)</text>
</g>
<!-- 4,6 (Circuit substrate and Doped silicon)&#45;&gt;&#45;2,&#45;3 (Trains) -->
<g id="edge1" class="edge">
<title>4,6 (Circuit substrate and Doped silicon)&#45;&gt;&#45;2,&#45;3 (Trains)</title>
<path fill="none" stroke="black" stroke-width="0.14" d="M754.56,-18C801.69,-18 849.3,-18 887.58,-18"/>
<polygon fill="black" stroke="black" stroke-width="0.14" points="887.6,-21.5 897.6,-18 887.6,-14.5 887.6,-21.5"/>
<text text-anchor="middle" x="843.57" y="-6.8" font-family="Times,serif" font-size="14.00">light&#45;n*2128</text>
</g>
<!-- 6,4 (Electronic components) -->
<g id="node3" class="node">
<title>6,4 (Electronic components)</title>
<ellipse fill="none" stroke="black" cx="141.69" cy="-18" rx="141.88" ry="18"/>
<text text-anchor="middle" x="141.69" y="-14.3" font-family="Times,serif" font-size="14.00">6,4 (Electronic components)</text>
</g>
<!-- 4,6 (Circuit substrate and Doped silicon)&#45;&gt;6,4 (Electronic components) -->
<g id="edge2" class="edge">
<title>4,6 (Circuit substrate and Doped silicon)&#45;&gt;6,4 (Electronic components)</title>
<path fill="none" stroke="black" stroke-width="1.86" d="M355.26,-18C334.53,-18 313.71,-18 293.63,-18"/>
<polygon fill="black" stroke="black" stroke-width="1.86" points="293.52,-14.5 283.52,-18 293.52,-21.5 293.52,-14.5"/>
<text text-anchor="middle" x="299.7" y="-6.8" font-family="Times,serif" font-size="14.00">light&#45;n*27296</text>
</g>
</g>
</svg>
