<?xml version="1.0" encoding="UTF-8" standalone="no"?>
<!DOCTYPE svg PUBLIC "-//W3C//DTD SVG 1.1//EN"
 "http://www.w3.org/Graphics/SVG/1.1/DTD/svg11.dtd">
<!-- Generated by graphviz version 2.43.0 (0)
 -->
<!-- Title: %3 Pages: 1 -->
<svg width="763pt" height="587pt"
 viewBox="0.00 0.00 763.16 586.71" xmlns="http://www.w3.org/2000/svg" xmlns:xlink="http://www.w3.org/1999/xlink">
<g id="graph0" class="graph" transform="scale(1 1) rotate(0) translate(4 582.71)">
<title>%3</title>
<polygon fill="white" stroke="transparent" points="-4,4 -4,-582.71 759.16,-582.71 759.16,4 -4,4"/>
<!-- &#45;6,&#45;3 (Chromite Sand) -->
<g id="node1" class="node">
<title>&#45;6,&#45;3 (Chromite Sand)</title>
<ellipse fill="none" stroke="black" cx="286.69" cy="-296.34" rx="110.48" ry="18"/>
<text text-anchor="middle" x="286.69" y="-292.64" font-family="Times,serif" font-size="14.00">&#45;6,&#45;3 (Chromite Sand)</text>
</g>
<!-- 4,13 (Chromium processing) -->
<g id="node2" class="node">
<title>4,13 (Chromium processing)</title>
<ellipse fill="none" stroke="black" cx="612.17" cy="-296.34" rx="142.97" ry="18"/>
<text text-anchor="middle" x="612.17" y="-292.64" font-family="Times,serif" font-size="14.00">4,13 (Chromium processing)</text>
</g>
<!-- &#45;6,&#45;3 (Chromite Sand)&#45;&gt;4,13 (Chromium processing) -->
<g id="edge1" class="edge">
<title>&#45;6,&#45;3 (Chromite Sand)&#45;&gt;4,13 (Chromium processing)</title>
<path fill="none" stroke="black" stroke-width="0.59" d="M397.34,-296.34C417.13,-296.34 438.08,-296.34 458.82,-296.34"/>
<polygon fill="black" stroke="black" stroke-width="0.59" points="458.98,-299.84 468.98,-296.34 458.98,-292.84 458.98,-299.84"/>
<text text-anchor="middle" x="428.08" y="-285.14" font-family="Times,serif" font-size="14.00">chromite&#45;sand*76708</text>
</g>
<!-- 2,10 (Nickel plate) -->
<g id="node3" class="node">
<title>2,10 (Nickel plate)</title>
<ellipse fill="none" stroke="black" cx="96.84" cy="-560.71" rx="96.68" ry="18"/>
<text text-anchor="middle" x="96.84" y="-557.01" font-family="Times,serif" font-size="14.00">2,10 (Nickel plate)</text>
</g>
<!-- &#45;6,&#45;3 (Chromite Sand)&#45;&gt;2,10 (Nickel plate) -->
<g id="edge2" class="edge">
<title>&#45;6,&#45;3 (Chromite Sand)&#45;&gt;2,10 (Nickel plate)</title>
<path fill="none" stroke="black" stroke-width="1.9" d="M273.64,-314.51C240.71,-360.37 154.12,-480.95 115.68,-534.47"/>
<polygon fill="black" stroke="black" stroke-width="1.9" points="112.72,-532.6 109.73,-542.77 118.41,-536.68 112.72,-532.6"/>
<text text-anchor="middle" x="113.16" y="-428.29" font-family="Times,serif" font-size="14.00">chromite&#45;sand*248495</text>
</g>
<!-- 0,0 (LE BUS) -->
<g id="node4" class="node">
<title>0,0 (LE BUS)</title>
<ellipse fill="none" stroke="black" cx="117.99" cy="-18" rx="71.49" ry="18"/>
<text text-anchor="middle" x="117.99" y="-14.3" font-family="Times,serif" font-size="14.00">0,0 (LE BUS)</text>
</g>
<!-- &#45;6,&#45;3 (Chromite Sand)&#45;&gt;0,0 (LE BUS) -->
<g id="edge3" class="edge">
<title>&#45;6,&#45;3 (Chromite Sand)&#45;&gt;0,0 (LE BUS)</title>
<path fill="none" stroke="black" stroke-width="0.52" d="M275.62,-278.08C246.6,-230.19 168.19,-100.82 134.13,-44.64"/>
<polygon fill="black" stroke="black" stroke-width="0.52" points="137.05,-42.71 128.88,-35.97 131.07,-46.33 137.05,-42.71"/>
<text text-anchor="middle" x="127.88" y="-165.16" font-family="Times,serif" font-size="14.00">chromite&#45;sand*67816</text>
</g>
</g>
</svg>
