<?xml version="1.0" encoding="UTF-8" standalone="no"?>
<!DOCTYPE svg PUBLIC "-//W3C//DTD SVG 1.1//EN"
 "http://www.w3.org/Graphics/SVG/1.1/DTD/svg11.dtd">
<!-- Generated by graphviz version 2.43.0 (0)
 -->
<!-- Title: %3 Pages: 1 -->
<svg width="1560pt" height="1242pt"
 viewBox="0.00 0.00 1559.79 1242.37" xmlns="http://www.w3.org/2000/svg" xmlns:xlink="http://www.w3.org/1999/xlink">
<g id="graph0" class="graph" transform="scale(1 1) rotate(0) translate(4 1238.37)">
<title>%3</title>
<polygon fill="white" stroke="transparent" points="-4,4 -4,-1238.37 1555.79,-1238.37 1555.79,4 -4,4"/>
<!-- &#45;1,10 (Iron Plates) -->
<g id="node1" class="node">
<title>&#45;1,10 (Iron Plates)</title>
<ellipse fill="none" stroke="black" cx="1176.75" cy="-136.68" rx="94.78" ry="18"/>
<text text-anchor="middle" x="1176.75" y="-132.98" font-family="Times,serif" font-size="14.00">&#45;1,10 (Iron Plates)</text>
</g>
<!-- 5,2 (Raw Fiber) -->
<g id="node2" class="node">
<title>5,2 (Raw Fiber)</title>
<ellipse fill="none" stroke="black" cx="656.8" cy="-18" rx="83.39" ry="18"/>
<text text-anchor="middle" x="656.8" y="-14.3" font-family="Times,serif" font-size="14.00">5,2 (Raw Fiber)</text>
</g>
<!-- &#45;1,10 (Iron Plates)&#45;&gt;5,2 (Raw Fiber) -->
<g id="edge1" class="edge">
<title>&#45;1,10 (Iron Plates)&#45;&gt;5,2 (Raw Fiber)</title>
<path fill="none" stroke="black" stroke-width="0.55" d="M1116.09,-122.83C1018.22,-100.49 826.17,-56.66 724.18,-33.38"/>
<polygon fill="black" stroke="black" stroke-width="0.55" points="724.82,-29.94 714.29,-31.12 723.27,-36.76 724.82,-29.94"/>
<text text-anchor="middle" x="834.13" y="-81.9" font-family="Times,serif" font-size="14.00">dirty&#45;water&#45;barrel*6816</text>
</g>
<!-- &#45;3,1 (Logistic science pack, Automation Science) -->
<g id="node7" class="node">
<title>&#45;3,1 (Logistic science pack, Automation Science)</title>
<ellipse fill="none" stroke="black" cx="1176.75" cy="-1097.69" rx="233.96" ry="18"/>
<text text-anchor="middle" x="1176.75" y="-1093.99" font-family="Times,serif" font-size="14.00">&#45;3,1 (Logistic science pack, Automation Science)</text>
</g>
<!-- &#45;1,10 (Iron Plates)&#45;&gt;&#45;3,1 (Logistic science pack, Automation Science) -->
<g id="edge9" class="edge">
<title>&#45;1,10 (Iron Plates)&#45;&gt;&#45;3,1 (Logistic science pack, Automation Science)</title>
<path fill="none" stroke="black" stroke-width="0.08" d="M1176.75,-155.02C1176.75,-273 1176.75,-924.78 1176.75,-1069.31"/>
<polygon fill="black" stroke="black" stroke-width="0.08" points="1173.25,-1069.55 1176.75,-1079.55 1180.25,-1069.55 1173.25,-1069.55"/>
<text text-anchor="middle" x="1090.75" y="-615.96" font-family="Times,serif" font-size="14.00">dirty&#45;water&#45;barrel*1024</text>
</g>
<!-- 1,12 (Molten Iron) -->
<g id="node3" class="node">
<title>1,12 (Molten Iron)</title>
<ellipse fill="none" stroke="black" cx="656.8" cy="-1216.37" rx="95.58" ry="18"/>
<text text-anchor="middle" x="656.8" y="-1212.67" font-family="Times,serif" font-size="14.00">1,12 (Molten Iron)</text>
</g>
<!-- 1,12 (Molten Iron)&#45;&gt;5,2 (Raw Fiber) -->
<g id="edge4" class="edge">
<title>1,12 (Molten Iron)&#45;&gt;5,2 (Raw Fiber)</title>
<path fill="none" stroke="black" stroke-width="2.33" d="M656.8,-1198.02C656.8,-1062.23 656.8,-213.82 656.8,-46.6"/>
<polygon fill="black" stroke="black" stroke-width="2.33" points="660.3,-46.38 656.8,-36.38 653.3,-46.38 660.3,-46.38"/>
<text text-anchor="middle" x="566.3" y="-626.11" font-family="Times,serif" font-size="14.00">dirty&#45;water&#45;barrel*28848</text>
</g>
<!-- 4,10 (Fluid Recycling) -->
<g id="node4" class="node">
<title>4,10 (Fluid Recycling)</title>
<ellipse fill="none" stroke="black" cx="239.83" cy="-883.85" rx="112.38" ry="18"/>
<text text-anchor="middle" x="239.83" y="-880.15" font-family="Times,serif" font-size="14.00">4,10 (Fluid Recycling)</text>
</g>
<!-- 1,12 (Molten Iron)&#45;&gt;4,10 (Fluid Recycling) -->
<g id="edge2" class="edge">
<title>1,12 (Molten Iron)&#45;&gt;4,10 (Fluid Recycling)</title>
<path fill="none" stroke="black" stroke-width="1.33" d="M634.67,-1198.72C565.07,-1143.21 350.42,-972.04 270.35,-908.19"/>
<polygon fill="black" stroke="black" stroke-width="1.33" points="272.15,-905.15 262.15,-901.65 267.79,-910.62 272.15,-905.15"/>
<text text-anchor="middle" x="362.01" y="-1057.26" font-family="Times,serif" font-size="14.00">dirty&#45;water&#45;barrel*16504</text>
</g>
<!-- 1,12 (Molten Iron)&#45;&gt;&#45;3,1 (Logistic science pack, Automation Science) -->
<g id="edge7" class="edge">
<title>1,12 (Molten Iron)&#45;&gt;&#45;3,1 (Logistic science pack, Automation Science)</title>
<path fill="none" stroke="black" stroke-width="0.12" d="M717.72,-1202.46C810.33,-1181.33 986.86,-1141.03 1091.96,-1117.05"/>
<polygon fill="black" stroke="black" stroke-width="0.12" points="1092.93,-1120.41 1101.9,-1114.78 1091.37,-1113.59 1092.93,-1120.41"/>
<text text-anchor="middle" x="818.84" y="-1163.55" font-family="Times,serif" font-size="14.00">dirty&#45;water&#45;barrel*1536</text>
</g>
<!-- 3,9 (Copper, molten &amp; plate) -->
<g id="node5" class="node">
<title>3,9 (Copper, molten &amp; plate)</title>
<ellipse fill="none" stroke="black" cx="1408.15" cy="-617.18" rx="143.77" ry="18"/>
<text text-anchor="middle" x="1408.15" y="-613.48" font-family="Times,serif" font-size="14.00">3,9 (Copper, molten &amp; plate)</text>
</g>
<!-- 3,9 (Copper, molten &amp; plate)&#45;&gt;5,2 (Raw Fiber) -->
<g id="edge5" class="edge">
<title>3,9 (Copper, molten &amp; plate)&#45;&gt;5,2 (Raw Fiber)</title>
<path fill="none" stroke="black" stroke-width="0.91" d="M1385.66,-599.25C1277.42,-512.93 810.2,-140.33 686.79,-41.91"/>
<polygon fill="black" stroke="black" stroke-width="0.91" points="688.83,-39.07 678.83,-35.57 684.47,-44.54 688.83,-39.07"/>
<text text-anchor="middle" x="945.73" y="-324.38" font-family="Times,serif" font-size="14.00">dirty&#45;water&#45;barrel*11304</text>
</g>
<!-- 3,9 (Copper, molten &amp; plate)&#45;&gt;4,10 (Fluid Recycling) -->
<g id="edge3" class="edge">
<title>3,9 (Copper, molten &amp; plate)&#45;&gt;4,10 (Fluid Recycling)</title>
<path fill="none" stroke="black" stroke-width="2.49" d="M1339,-632.97C1133.32,-679.91 526.55,-818.4 314.22,-866.87"/>
<polygon fill="black" stroke="black" stroke-width="2.49" points="313.38,-863.47 304.41,-869.1 314.94,-870.29 313.38,-863.47"/>
<text text-anchor="middle" x="736.11" y="-753.72" font-family="Times,serif" font-size="14.00">dirty&#45;water&#45;barrel*30912</text>
</g>
<!-- 3,9 (Copper, molten &amp; plate)&#45;&gt;&#45;3,1 (Logistic science pack, Automation Science) -->
<g id="edge8" class="edge">
<title>3,9 (Copper, molten &amp; plate)&#45;&gt;&#45;3,1 (Logistic science pack, Automation Science)</title>
<path fill="none" stroke="black" stroke-width="0.04" d="M1399.36,-635.43C1363.99,-708.88 1231.94,-983.09 1189.78,-1070.64"/>
<polygon fill="black" stroke="black" stroke-width="0.04" points="1186.61,-1069.15 1185.42,-1079.68 1192.92,-1072.19 1186.61,-1069.15"/>
<text text-anchor="middle" x="1213.07" y="-856.84" font-family="Times,serif" font-size="14.00">dirty&#45;water&#45;barrel*512</text>
</g>
<!-- 3,5 (item=molybdenum&#45;plate Molybdenum plate) -->
<g id="node6" class="node">
<title>3,5 (item=molybdenum&#45;plate Molybdenum plate)</title>
<ellipse fill="none" stroke="black" cx="239.83" cy="-350.52" rx="239.66" ry="18"/>
<text text-anchor="middle" x="239.83" y="-346.82" font-family="Times,serif" font-size="14.00">3,5 (item=molybdenum&#45;plate Molybdenum plate)</text>
</g>
<!-- 3,5 (item=molybdenum&#45;plate Molybdenum plate)&#45;&gt;5,2 (Raw Fiber) -->
<g id="edge10" class="edge">
<title>3,5 (item=molybdenum&#45;plate Molybdenum plate)&#45;&gt;5,2 (Raw Fiber)</title>
<path fill="none" stroke="black" stroke-width="0.05" d="M262.54,-332.41C332.89,-276.31 547.17,-105.43 626.68,-42.02"/>
<polygon fill="black" stroke="black" stroke-width="0.05" points="629.19,-44.5 634.82,-35.52 624.82,-39.02 629.19,-44.5"/>
<text text-anchor="middle" x="363.11" y="-191.01" font-family="Times,serif" font-size="14.00">dirty&#45;water&#45;barrel*672</text>
</g>
<!-- 3,5 (item=molybdenum&#45;plate Molybdenum plate)&#45;&gt;4,10 (Fluid Recycling) -->
<g id="edge6" class="edge">
<title>3,5 (item=molybdenum&#45;plate Molybdenum plate)&#45;&gt;4,10 (Fluid Recycling)</title>
<path fill="none" stroke="black" stroke-width="2.08" d="M239.83,-368.57C239.83,-447.15 239.83,-759.76 239.83,-855.7"/>
<polygon fill="black" stroke="black" stroke-width="2.08" points="236.33,-855.8 239.83,-865.8 243.33,-855.8 236.33,-855.8"/>
<text text-anchor="middle" x="149.33" y="-615.94" font-family="Times,serif" font-size="14.00">dirty&#45;water&#45;barrel*25824</text>
</g>
</g>
</svg>
