<?xml version="1.0" encoding="UTF-8" standalone="no"?>
<!DOCTYPE svg PUBLIC "-//W3C//DTD SVG 1.1//EN"
 "http://www.w3.org/Graphics/SVG/1.1/DTD/svg11.dtd">
<!-- Generated by graphviz version 2.43.0 (0)
 -->
<!-- Title: %3 Pages: 1 -->
<svg width="888pt" height="664pt"
 viewBox="0.00 0.00 887.74 664.04" xmlns="http://www.w3.org/2000/svg" xmlns:xlink="http://www.w3.org/1999/xlink">
<g id="graph0" class="graph" transform="scale(1 1) rotate(0) translate(4 660.04)">
<title>%3</title>
<polygon fill="white" stroke="transparent" points="-4,4 -4,-660.04 883.74,-660.04 883.74,4 -4,4"/>
<!-- 4,2 (More fiberboard) -->
<g id="node1" class="node">
<title>4,2 (More fiberboard)</title>
<ellipse fill="none" stroke="black" cx="639.01" cy="-18" rx="111.28" ry="18"/>
<text text-anchor="middle" x="639.01" y="-14.3" font-family="Times,serif" font-size="14.00">4,2 (More fiberboard)</text>
</g>
<!-- 5,&#45;2 (Lubricant) -->
<g id="node2" class="node">
<title>5,&#45;2 (Lubricant)</title>
<ellipse fill="none" stroke="black" cx="281.03" cy="-18" rx="83.39" ry="18"/>
<text text-anchor="middle" x="281.03" y="-14.3" font-family="Times,serif" font-size="14.00">5,&#45;2 (Lubricant)</text>
</g>
<!-- 4,2 (More fiberboard)&#45;&gt;5,&#45;2 (Lubricant) -->
<g id="edge1" class="edge">
<title>4,2 (More fiberboard)&#45;&gt;5,&#45;2 (Lubricant)</title>
<path fill="none" stroke="black" stroke-width="1.87" d="M527.7,-18C478.56,-18 421.44,-18 374.54,-18"/>
<polygon fill="black" stroke="black" stroke-width="1.87" points="374.39,-14.5 364.39,-18 374.39,-21.5 374.39,-14.5"/>
<text text-anchor="middle" x="451.12" y="-6.8" font-family="Times,serif" font-size="14.00">creosote&#45;barrel*82720</text>
</g>
<!-- 4,&#45;1 (Fluid) -->
<g id="node3" class="node">
<title>4,&#45;1 (Fluid)</title>
<ellipse fill="none" stroke="black" cx="818" cy="-328.02" rx="61.99" ry="18"/>
<text text-anchor="middle" x="818" y="-324.32" font-family="Times,serif" font-size="14.00">4,&#45;1 (Fluid)</text>
</g>
<!-- 4,2 (More fiberboard)&#45;&gt;4,&#45;1 (Fluid) -->
<g id="edge2" class="edge">
<title>4,2 (More fiberboard)&#45;&gt;4,&#45;1 (Fluid)</title>
<path fill="none" stroke="black" stroke-width="0.46" d="M649.4,-36.01C679.49,-88.13 766.78,-239.32 802.49,-301.17"/>
<polygon fill="black" stroke="black" stroke-width="0.46" points="799.54,-303.05 807.57,-309.96 805.6,-299.55 799.54,-303.05"/>
<text text-anchor="middle" x="645.45" y="-172.39" font-family="Times,serif" font-size="14.00">creosote&#45;barrel*20200</text>
</g>
<!-- 0,0 (LE BUS) -->
<g id="node4" class="node">
<title>0,0 (LE BUS)</title>
<ellipse fill="none" stroke="black" cx="639.01" cy="-638.04" rx="71.49" ry="18"/>
<text text-anchor="middle" x="639.01" y="-634.34" font-family="Times,serif" font-size="14.00">0,0 (LE BUS)</text>
</g>
<!-- 4,2 (More fiberboard)&#45;&gt;0,0 (LE BUS) -->
<g id="edge5" class="edge">
<title>4,2 (More fiberboard)&#45;&gt;0,0 (LE BUS)</title>
<path fill="none" stroke="black" stroke-width="2.59" d="M639.01,-36.22C639.01,-123.92 639.01,-502.73 639.01,-609.77"/>
<polygon fill="black" stroke="black" stroke-width="2.59" points="635.51,-609.81 639.01,-619.81 642.51,-609.81 635.51,-609.81"/>
<text text-anchor="middle" x="554.01" y="-326.8" font-family="Times,serif" font-size="14.00">creosote&#45;barrel*114822</text>
</g>
<!-- 4,12 (Molten Glass) -->
<g id="node5" class="node">
<title>4,12 (Molten Glass)</title>
<ellipse fill="none" stroke="black" cx="102.04" cy="-328.02" rx="102.08" ry="18"/>
<text text-anchor="middle" x="102.04" y="-324.32" font-family="Times,serif" font-size="14.00">4,12 (Molten Glass)</text>
</g>
<!-- 4,2 (More fiberboard)&#45;&gt;4,12 (Molten Glass) -->
<g id="edge8" class="edge">
<title>4,2 (More fiberboard)&#45;&gt;4,12 (Molten Glass)</title>
<path fill="none" stroke="black" stroke-width="0.42" d="M608.99,-35.33C517.66,-88.06 243.17,-246.54 140.95,-305.55"/>
<polygon fill="black" stroke="black" stroke-width="0.42" points="139.09,-302.59 132.18,-310.62 142.59,-308.65 139.09,-302.59"/>
<text text-anchor="middle" x="294.47" y="-174.24" font-family="Times,serif" font-size="14.00">creosote&#45;barrel*18400</text>
</g>
<!-- 5,8 (Ulric Food, Sandcastings) -->
<g id="node6" class="node">
<title>5,8 (Ulric Food, Sandcastings)</title>
<ellipse fill="none" stroke="black" cx="281.03" cy="-638.04" rx="151.37" ry="18"/>
<text text-anchor="middle" x="281.03" y="-634.34" font-family="Times,serif" font-size="14.00">5,8 (Ulric Food, Sandcastings)</text>
</g>
<!-- 4,2 (More fiberboard)&#45;&gt;5,8 (Ulric Food, Sandcastings) -->
<g id="edge6" class="edge">
<title>4,2 (More fiberboard)&#45;&gt;5,8 (Ulric Food, Sandcastings)</title>
<path fill="none" stroke="black" stroke-width="0.49" d="M628.49,-36.22C577.65,-124.28 357.38,-505.8 296.61,-611.05"/>
<polygon fill="black" stroke="black" stroke-width="0.49" points="293.52,-609.4 291.55,-619.81 299.58,-612.9 293.52,-609.4"/>
<text text-anchor="middle" x="382.05" y="-327.44" font-family="Times,serif" font-size="14.00">creosote&#45;barrel*21680</text>
</g>
<!-- 0,0 (LE BUS)&#45;&gt;5,&#45;2 (Lubricant) -->
<g id="edge7" class="edge">
<title>0,0 (LE BUS)&#45;&gt;5,&#45;2 (Lubricant)</title>
<path fill="none" stroke="black" stroke-width="1.83" d="M628.68,-620.15C578.16,-532.64 357.04,-149.66 296.44,-44.69"/>
<polygon fill="black" stroke="black" stroke-width="1.83" points="299.43,-42.87 291.4,-35.96 293.37,-46.37 299.43,-42.87"/>
<text text-anchor="middle" x="543.06" y="-336.22" font-family="Times,serif" font-size="14.00">creosote&#45;barrel*81144</text>
</g>
<!-- 0,0 (LE BUS)&#45;&gt;4,&#45;1 (Fluid) -->
<g id="edge3" class="edge">
<title>0,0 (LE BUS)&#45;&gt;4,&#45;1 (Fluid)</title>
<path fill="none" stroke="black" stroke-width="0.31" d="M649.4,-620.03C679.49,-567.91 766.78,-416.72 802.49,-354.87"/>
<polygon fill="black" stroke="black" stroke-width="0.31" points="805.6,-356.49 807.57,-346.08 799.54,-352.99 805.6,-356.49"/>
<text text-anchor="middle" x="645.45" y="-491.25" font-family="Times,serif" font-size="14.00">creosote&#45;barrel*13632</text>
</g>
<!-- 0,0 (LE BUS)&#45;&gt;4,12 (Molten Glass) -->
<g id="edge4" class="edge">
<title>0,0 (LE BUS)&#45;&gt;4,12 (Molten Glass)</title>
<path fill="none" stroke="black" stroke-width="0.58" d="M610.14,-621.37C519.95,-569.3 243.4,-409.63 140.84,-350.42"/>
<polygon fill="black" stroke="black" stroke-width="0.58" points="142.45,-347.31 132.04,-345.34 138.95,-353.37 142.45,-347.31"/>
<text text-anchor="middle" x="294.99" y="-489.69" font-family="Times,serif" font-size="14.00">creosote&#45;barrel*25568</text>
</g>
<!-- 0,0 (LE BUS)&#45;&gt;5,8 (Ulric Food, Sandcastings) -->
<g id="edge9" class="edge">
<title>0,0 (LE BUS)&#45;&gt;5,8 (Ulric Food, Sandcastings)</title>
<path fill="none" stroke="black" stroke-width="0.46" d="M567.43,-638.04C531.55,-638.04 486.55,-638.04 442.92,-638.04"/>
<polygon fill="black" stroke="black" stroke-width="0.46" points="442.75,-634.54 432.75,-638.04 442.75,-641.54 442.75,-634.54"/>
<text text-anchor="middle" x="505.17" y="-626.84" font-family="Times,serif" font-size="14.00">creosote&#45;barrel*20552</text>
</g>
</g>
</svg>
