<?xml version="1.0" encoding="UTF-8" standalone="no"?>
<!DOCTYPE svg PUBLIC "-//W3C//DTD SVG 1.1//EN"
 "http://www.w3.org/Graphics/SVG/1.1/DTD/svg11.dtd">
<!-- Generated by graphviz version 2.43.0 (0)
 -->
<!-- Title: %3 Pages: 1 -->
<svg width="770pt" height="419pt"
 viewBox="0.00 0.00 769.91 418.69" xmlns="http://www.w3.org/2000/svg" xmlns:xlink="http://www.w3.org/1999/xlink">
<g id="graph0" class="graph" transform="scale(1 1) rotate(0) translate(4 414.69)">
<title>%3</title>
<polygon fill="white" stroke="transparent" points="-4,4 -4,-414.69 765.91,-414.69 765.91,4 -4,4"/>
<!-- 4,2 (More fiberboard) -->
<g id="node1" class="node">
<title>4,2 (More fiberboard)</title>
<ellipse fill="none" stroke="black" cx="111.14" cy="-205.34" rx="111.28" ry="18"/>
<text text-anchor="middle" x="111.14" y="-201.64" font-family="Times,serif" font-size="14.00">4,2 (More fiberboard)</text>
</g>
<!-- 0,0 (LE BUS) -->
<g id="node2" class="node">
<title>0,0 (LE BUS)</title>
<ellipse fill="none" stroke="black" cx="485.83" cy="-205.34" rx="71.49" ry="18"/>
<text text-anchor="middle" x="485.83" y="-201.64" font-family="Times,serif" font-size="14.00">0,0 (LE BUS)</text>
</g>
<!-- 4,2 (More fiberboard)&#45;&gt;0,0 (LE BUS) -->
<g id="edge1" class="edge">
<title>4,2 (More fiberboard)&#45;&gt;0,0 (LE BUS)</title>
<path fill="none" stroke="black" stroke-width="3.08" d="M222.29,-205.34C280.67,-205.34 350.94,-205.34 404.23,-205.34"/>
<polygon fill="black" stroke="black" stroke-width="3.08" points="404.32,-208.84 414.32,-205.34 404.32,-201.84 404.32,-208.84"/>
<text text-anchor="middle" x="313.26" y="-194.14" font-family="Times,serif" font-size="14.00">creosote&#45;barrel*24000</text>
</g>
<!-- 5,8 (Ulric Food) -->
<g id="node4" class="node">
<title>5,8 (Ulric Food)</title>
<ellipse fill="none" stroke="black" cx="298.48" cy="-392.69" rx="83.39" ry="18"/>
<text text-anchor="middle" x="298.48" y="-388.99" font-family="Times,serif" font-size="14.00">5,8 (Ulric Food)</text>
</g>
<!-- 4,2 (More fiberboard)&#45;&gt;5,8 (Ulric Food) -->
<g id="edge6" class="edge">
<title>4,2 (More fiberboard)&#45;&gt;5,8 (Ulric Food)</title>
<path fill="none" stroke="black" stroke-width="0.16" d="M129.1,-223.31C162.76,-256.97 235.37,-329.57 273.67,-367.87"/>
<polygon fill="black" stroke="black" stroke-width="0.16" points="271.3,-370.46 280.85,-375.05 276.25,-365.51 271.3,-370.46"/>
<text text-anchor="middle" x="125.39" y="-299.39" font-family="Times,serif" font-size="14.00">creosote&#45;barrel*1280</text>
</g>
<!-- 5,&#45;2 (Lubricant) -->
<g id="node5" class="node">
<title>5,&#45;2 (Lubricant)</title>
<ellipse fill="none" stroke="black" cx="298.48" cy="-18" rx="83.39" ry="18"/>
<text text-anchor="middle" x="298.48" y="-14.3" font-family="Times,serif" font-size="14.00">5,&#45;2 (Lubricant)</text>
</g>
<!-- 4,2 (More fiberboard)&#45;&gt;5,&#45;2 (Lubricant) -->
<g id="edge5" class="edge">
<title>4,2 (More fiberboard)&#45;&gt;5,&#45;2 (Lubricant)</title>
<path fill="none" stroke="black" stroke-width="0.88" d="M129.1,-187.38C162.76,-153.72 235.37,-81.12 273.67,-42.82"/>
<polygon fill="black" stroke="black" stroke-width="0.88" points="276.25,-45.18 280.85,-35.64 271.3,-40.23 276.25,-45.18"/>
<text text-anchor="middle" x="125.39" y="-118.9" font-family="Times,serif" font-size="14.00">creosote&#45;barrel*6840</text>
</g>
<!-- 4,12 (Molten Glass) -->
<g id="node3" class="node">
<title>4,12 (Molten Glass)</title>
<ellipse fill="none" stroke="black" cx="659.87" cy="-205.34" rx="102.08" ry="18"/>
<text text-anchor="middle" x="659.87" y="-201.64" font-family="Times,serif" font-size="14.00">4,12 (Molten Glass)</text>
</g>
<!-- 0,0 (LE BUS)&#45;&gt;4,12 (Molten Glass) -->
<g id="edge2" class="edge">
<title>0,0 (LE BUS)&#45;&gt;4,12 (Molten Glass)</title>
<path fill="none" stroke="black" stroke-width="0.26" d="M557.37,-205.34C557.42,-205.34 557.47,-205.34 557.51,-205.34"/>
<polygon fill="black" stroke="black" stroke-width="0.26" points="547.66,-208.85 557.65,-205.34 547.65,-201.85 547.66,-208.85"/>
<text text-anchor="middle" x="481.44" y="-209.14" font-family="Times,serif" font-size="14.00">creosote&#45;barrel*2000</text>
</g>
<!-- 0,0 (LE BUS)&#45;&gt;5,8 (Ulric Food) -->
<g id="edge3" class="edge">
<title>0,0 (LE BUS)&#45;&gt;5,8 (Ulric Food)</title>
<path fill="none" stroke="black" stroke-width="0.52" d="M468.2,-222.97C434.73,-256.44 361.87,-329.3 323.41,-367.76"/>
<polygon fill="black" stroke="black" stroke-width="0.52" points="320.8,-365.43 316.2,-374.97 325.75,-370.38 320.8,-365.43"/>
<text text-anchor="middle" x="319.81" y="-299.17" font-family="Times,serif" font-size="14.00">creosote&#45;barrel*4064</text>
</g>
<!-- 0,0 (LE BUS)&#45;&gt;5,&#45;2 (Lubricant) -->
<g id="edge4" class="edge">
<title>0,0 (LE BUS)&#45;&gt;5,&#45;2 (Lubricant)</title>
<path fill="none" stroke="black" stroke-width="1.1" d="M468.2,-187.72C434.73,-154.25 361.87,-81.39 323.41,-42.93"/>
<polygon fill="black" stroke="black" stroke-width="1.1" points="325.75,-40.31 316.2,-35.71 320.8,-45.26 325.75,-40.31"/>
<text text-anchor="middle" x="319.81" y="-119.12" font-family="Times,serif" font-size="14.00">creosote&#45;barrel*8576</text>
</g>
</g>
</svg>
