<?xml version="1.0" encoding="UTF-8" standalone="no"?>
<!DOCTYPE svg PUBLIC "-//W3C//DTD SVG 1.1//EN"
 "http://www.w3.org/Graphics/SVG/1.1/DTD/svg11.dtd">
<!-- Generated by graphviz version 2.43.0 (0)
 -->
<!-- Title: %3 Pages: 1 -->
<svg width="640pt" height="589pt"
 viewBox="0.00 0.00 639.61 588.96" xmlns="http://www.w3.org/2000/svg" xmlns:xlink="http://www.w3.org/1999/xlink">
<g id="graph0" class="graph" transform="scale(1 1) rotate(0) translate(4 584.96)">
<title>%3</title>
<polygon fill="white" stroke="transparent" points="-4,4 -4,-584.96 635.61,-584.96 635.61,4 -4,4"/>
<!-- &#45;9,&#45;10 (Bedding and cages) -->
<g id="node1" class="node">
<title>&#45;9,&#45;10 (Bedding and cages)</title>
<ellipse fill="none" stroke="black" cx="250.88" cy="-291.56" rx="134.58" ry="18"/>
<text text-anchor="middle" x="250.88" y="-287.86" font-family="Times,serif" font-size="14.00">&#45;9,&#45;10 (Bedding and cages)</text>
</g>
<!-- 0,0 (LE BUS) -->
<g id="node2" class="node">
<title>0,0 (LE BUS)</title>
<ellipse fill="none" stroke="black" cx="560.11" cy="-291.56" rx="71.49" ry="18"/>
<text text-anchor="middle" x="560.11" y="-287.86" font-family="Times,serif" font-size="14.00">0,0 (LE BUS)</text>
</g>
<!-- &#45;9,&#45;10 (Bedding and cages)&#45;&gt;0,0 (LE BUS) -->
<g id="edge1" class="edge">
<title>&#45;9,&#45;10 (Bedding and cages)&#45;&gt;0,0 (LE BUS)</title>
<path fill="none" stroke="black" stroke-width="1.91" d="M385.62,-291.56C417.07,-291.56 449.64,-291.56 478.01,-291.56"/>
<polygon fill="black" stroke="black" stroke-width="1.91" points="478.25,-295.06 488.25,-291.56 478.25,-288.06 478.25,-295.06"/>
<text text-anchor="middle" x="431.81" y="-280.36" font-family="Times,serif" font-size="14.00">bedding*30592</text>
</g>
<!-- &#45;8,&#45;11 (Fetal serum) -->
<g id="node3" class="node">
<title>&#45;8,&#45;11 (Fetal serum)</title>
<ellipse fill="none" stroke="black" cx="102.69" cy="-562.96" rx="102.88" ry="18"/>
<text text-anchor="middle" x="102.69" y="-559.26" font-family="Times,serif" font-size="14.00">&#45;8,&#45;11 (Fetal serum)</text>
</g>
<!-- &#45;9,&#45;10 (Bedding and cages)&#45;&gt;&#45;8,&#45;11 (Fetal serum) -->
<g id="edge2" class="edge">
<title>&#45;9,&#45;10 (Bedding and cages)&#45;&gt;&#45;8,&#45;11 (Fetal serum)</title>
<path fill="none" stroke="black" stroke-width="0.47" d="M240.93,-309.79C215.41,-356.53 147.54,-480.82 117.43,-535.97"/>
<polygon fill="black" stroke="black" stroke-width="0.47" points="114.32,-534.36 112.6,-544.81 120.47,-537.72 114.32,-534.36"/>
<text text-anchor="middle" x="128.68" y="-426.68" font-family="Times,serif" font-size="14.00">bedding*7536</text>
</g>
<!-- &#45;9,&#45;11 (Bones mk2) -->
<g id="node4" class="node">
<title>&#45;9,&#45;11 (Bones mk2)</title>
<ellipse fill="none" stroke="black" cx="106.7" cy="-18" rx="98.28" ry="18"/>
<text text-anchor="middle" x="106.7" y="-14.3" font-family="Times,serif" font-size="14.00">&#45;9,&#45;11 (Bones mk2)</text>
</g>
<!-- &#45;9,&#45;10 (Bedding and cages)&#45;&gt;&#45;9,&#45;11 (Bones mk2) -->
<g id="edge3" class="edge">
<title>&#45;9,&#45;10 (Bedding and cages)&#45;&gt;&#45;9,&#45;11 (Bones mk2)</title>
<path fill="none" stroke="black" stroke-width="0.63" d="M241.2,-273.18C216.31,-225.96 150.02,-100.19 120.83,-44.81"/>
<polygon fill="black" stroke="black" stroke-width="0.63" points="123.91,-43.15 116.15,-35.94 117.72,-46.41 123.91,-43.15"/>
<text text-anchor="middle" x="126.02" y="-162.8" font-family="Times,serif" font-size="14.00">bedding*10048</text>
</g>
</g>
</svg>
