<?xml version="1.0" encoding="UTF-8" standalone="no"?>
<!DOCTYPE svg PUBLIC "-//W3C//DTD SVG 1.1//EN"
 "http://www.w3.org/Graphics/SVG/1.1/DTD/svg11.dtd">
<!-- Generated by graphviz version 2.43.0 (0)
 -->
<!-- Title: %3 Pages: 1 -->
<svg width="1156pt" height="965pt"
 viewBox="0.00 0.00 1156.34 964.86" xmlns="http://www.w3.org/2000/svg" xmlns:xlink="http://www.w3.org/1999/xlink">
<g id="graph0" class="graph" transform="scale(1 1) rotate(0) translate(4 960.86)">
<title>%3</title>
<polygon fill="white" stroke="transparent" points="-4,4 -4,-960.86 1152.34,-960.86 1152.34,4 -4,4"/>
<!-- &#45;1,6 (Flimble&#39;s Slaughterhouse and Daycare Centre, Auog Products) -->
<g id="node1" class="node">
<title>&#45;1,6 (Flimble&#39;s Slaughterhouse and Daycare Centre, Auog Products)</title>
<ellipse fill="none" stroke="black" cx="531.92" cy="-18" rx="325.74" ry="18"/>
<text text-anchor="middle" x="531.92" y="-14.3" font-family="Times,serif" font-size="14.00">&#45;1,6 (Flimble&#39;s Slaughterhouse and Daycare Centre, Auog Products)</text>
</g>
<!-- 0,0 (LE BUS) -->
<g id="node2" class="node">
<title>0,0 (LE BUS)</title>
<ellipse fill="none" stroke="black" cx="71.49" cy="-478.43" rx="71.49" ry="18"/>
<text text-anchor="middle" x="71.49" y="-474.73" font-family="Times,serif" font-size="14.00">0,0 (LE BUS)</text>
</g>
<!-- &#45;1,6 (Flimble&#39;s Slaughterhouse and Daycare Centre, Auog Products)&#45;&gt;0,0 (LE BUS) -->
<g id="edge1" class="edge">
<title>&#45;1,6 (Flimble&#39;s Slaughterhouse and Daycare Centre, Auog Products)&#45;&gt;0,0 (LE BUS)</title>
<path fill="none" stroke="black" stroke-width="0.14" d="M513.87,-36.05C442.44,-107.48 179.39,-370.54 96.61,-453.32"/>
<polygon fill="black" stroke="black" stroke-width="0.14" points="93.77,-451.21 89.17,-460.75 98.72,-456.16 93.77,-451.21"/>
<text text-anchor="middle" x="262.74" y="-248.48" font-family="Times,serif" font-size="14.00">bones*4029</text>
</g>
<!-- &#45;6,&#45;2 (item=fertilizer Fertiliser) -->
<g id="node3" class="node">
<title>&#45;6,&#45;2 (item=fertilizer Fertiliser)</title>
<ellipse fill="none" stroke="black" cx="992.35" cy="-478.43" rx="155.97" ry="18"/>
<text text-anchor="middle" x="992.35" y="-474.73" font-family="Times,serif" font-size="14.00">&#45;6,&#45;2 (item=fertilizer Fertiliser)</text>
</g>
<!-- &#45;1,6 (Flimble&#39;s Slaughterhouse and Daycare Centre, Auog Products)&#45;&gt;&#45;6,&#45;2 (item=fertilizer Fertiliser) -->
<g id="edge2" class="edge">
<title>&#45;1,6 (Flimble&#39;s Slaughterhouse and Daycare Centre, Auog Products)&#45;&gt;&#45;6,&#45;2 (item=fertilizer Fertiliser)</title>
<path fill="none" stroke="black" stroke-width="0.2" d="M549.97,-36.05C621.33,-107.4 883.87,-369.94 966.96,-453.04"/>
<polygon fill="black" stroke="black" stroke-width="0.2" points="964.88,-455.91 974.43,-460.51 969.83,-450.96 964.88,-455.91"/>
<text text-anchor="middle" x="715.97" y="-248.34" font-family="Times,serif" font-size="14.00">bones*5826</text>
</g>
<!-- &#45;9,&#45;11 (Bones mk2) -->
<g id="node4" class="node">
<title>&#45;9,&#45;11 (Bones mk2)</title>
<ellipse fill="none" stroke="black" cx="531.92" cy="-938.86" rx="98.28" ry="18"/>
<text text-anchor="middle" x="531.92" y="-935.16" font-family="Times,serif" font-size="14.00">&#45;9,&#45;11 (Bones mk2)</text>
</g>
<!-- &#45;9,&#45;11 (Bones mk2)&#45;&gt;0,0 (LE BUS) -->
<g id="edge3" class="edge">
<title>&#45;9,&#45;11 (Bones mk2)&#45;&gt;0,0 (LE BUS)</title>
<path fill="none" stroke="black" stroke-width="1.96" d="M514.16,-921.09C443.07,-850.01 179.01,-585.95 96.38,-503.32"/>
<polygon fill="black" stroke="black" stroke-width="1.96" points="98.51,-500.49 88.96,-495.9 93.56,-505.44 98.51,-500.49"/>
<text text-anchor="middle" x="258.27" y="-716" font-family="Times,serif" font-size="14.00">bones*55856</text>
</g>
<!-- &#45;9,&#45;11 (Bones mk2)&#45;&gt;&#45;6,&#45;2 (item=fertilizer Fertiliser) -->
<g id="edge4" class="edge">
<title>&#45;9,&#45;11 (Bones mk2)&#45;&gt;&#45;6,&#45;2 (item=fertilizer Fertiliser)</title>
<path fill="none" stroke="black" stroke-width="1.7" d="M549.69,-921.09C620.62,-850.17 883.65,-587.14 966.91,-503.88"/>
<polygon fill="black" stroke="black" stroke-width="1.7" points="969.8,-505.94 974.39,-496.39 964.85,-500.99 969.8,-505.94"/>
<text text-anchor="middle" x="711.3" y="-716.29" font-family="Times,serif" font-size="14.00">bones*48368</text>
</g>
</g>
</svg>
