<?xml version="1.0" encoding="UTF-8" standalone="no"?>
<!DOCTYPE svg PUBLIC "-//W3C//DTD SVG 1.1//EN"
 "http://www.w3.org/Graphics/SVG/1.1/DTD/svg11.dtd">
<!-- Generated by graphviz version 2.43.0 (0)
 -->
<!-- Title: %3 Pages: 1 -->
<svg width="1679pt" height="1385pt"
 viewBox="0.00 0.00 1679.41 1384.71" xmlns="http://www.w3.org/2000/svg" xmlns:xlink="http://www.w3.org/1999/xlink">
<g id="graph0" class="graph" transform="scale(1 1) rotate(0) translate(4 1380.71)">
<title>%3</title>
<polygon fill="white" stroke="transparent" points="-4,4 -4,-1380.71 1675.41,-1380.71 1675.41,4 -4,4"/>
<!-- &#45;4,&#45;3 (Breath Deeply. Exhale. (Hot Air)) -->
<g id="node1" class="node">
<title>&#45;4,&#45;3 (Breath Deeply. Exhale. (Hot Air))</title>
<ellipse fill="none" stroke="black" cx="852.28" cy="-687.51" rx="190.37" ry="18"/>
<text text-anchor="middle" x="852.28" y="-683.81" font-family="Times,serif" font-size="14.00">&#45;4,&#45;3 (Breath Deeply. Exhale. (Hot Air))</text>
</g>
<!-- &#45;5,5 (fluid=flue&#45;gas Flue gas) -->
<g id="node2" class="node">
<title>&#45;5,5 (fluid=flue&#45;gas Flue gas)</title>
<ellipse fill="none" stroke="black" cx="1525.83" cy="-687.51" rx="145.67" ry="18"/>
<text text-anchor="middle" x="1525.83" y="-683.81" font-family="Times,serif" font-size="14.00">&#45;5,5 (fluid=flue&#45;gas Flue gas)</text>
</g>
<!-- &#45;4,&#45;3 (Breath Deeply. Exhale. (Hot Air))&#45;&gt;&#45;5,5 (fluid=flue&#45;gas Flue gas) -->
<g id="edge1" class="edge">
<title>&#45;4,&#45;3 (Breath Deeply. Exhale. (Hot Air))&#45;&gt;&#45;5,5 (fluid=flue&#45;gas Flue gas)</title>
<path fill="none" stroke="black" stroke-width="0.93" d="M1043.04,-687.51C1146.35,-687.51 1272.4,-687.51 1369.79,-687.51"/>
<polygon fill="black" stroke="black" stroke-width="0.93" points="1370.02,-691.01 1380.02,-687.51 1370.02,-684.01 1370.02,-691.01"/>
<text text-anchor="middle" x="1136.92" y="-691.31" font-family="Times,serif" font-size="14.00">hot&#45;air&#45;barrel*2328</text>
</g>
<!-- &#45;4,0 (item=lens Optical sets) -->
<g id="node3" class="node">
<title>&#45;4,0 (item=lens Optical sets)</title>
<ellipse fill="none" stroke="black" cx="1431.26" cy="-1031.66" rx="143.77" ry="18"/>
<text text-anchor="middle" x="1431.26" y="-1027.96" font-family="Times,serif" font-size="14.00">&#45;4,0 (item=lens Optical sets)</text>
</g>
<!-- &#45;4,&#45;3 (Breath Deeply. Exhale. (Hot Air))&#45;&gt;&#45;4,0 (item=lens Optical sets) -->
<g id="edge2" class="edge">
<title>&#45;4,&#45;3 (Breath Deeply. Exhale. (Hot Air))&#45;&gt;&#45;4,0 (item=lens Optical sets)</title>
<path fill="none" stroke="black" stroke-width="4.12" d="M882.19,-705.29C979.15,-762.92 1284.76,-944.58 1392.89,-1008.85"/>
<polygon fill="black" stroke="black" stroke-width="4.12" points="1391.09,-1011.98 1401.53,-1013.99 1394.78,-1005.78 1391.09,-1011.98"/>
<text text-anchor="middle" x="1063.54" y="-860.87" font-family="Times,serif" font-size="14.00">hot&#45;air&#45;barrel*10280</text>
</g>
<!-- 3,9 (Copper, molten &amp; plate) -->
<g id="node4" class="node">
<title>3,9 (Copper, molten &amp; plate)</title>
<ellipse fill="none" stroke="black" cx="1175.84" cy="-1278.25" rx="143.77" ry="18"/>
<text text-anchor="middle" x="1175.84" y="-1274.55" font-family="Times,serif" font-size="14.00">3,9 (Copper, molten &amp; plate)</text>
</g>
<!-- &#45;4,&#45;3 (Breath Deeply. Exhale. (Hot Air))&#45;&gt;3,9 (Copper, molten &amp; plate) -->
<g id="edge3" class="edge">
<title>&#45;4,&#45;3 (Breath Deeply. Exhale. (Hot Air))&#45;&gt;3,9 (Copper, molten &amp; plate)</title>
<path fill="none" stroke="black" stroke-width="1.36" d="M862.14,-705.51C908.52,-790.18 1105.01,-1148.93 1160.93,-1251.03"/>
<polygon fill="black" stroke="black" stroke-width="1.36" points="1158.02,-1253.01 1165.9,-1260.1 1164.16,-1249.64 1158.02,-1253.01"/>
<text text-anchor="middle" x="942.04" y="-982.07" font-family="Times,serif" font-size="14.00">hot&#45;air&#45;barrel*3384</text>
</g>
<!-- 7,2 (advanced sand castings (mold)) -->
<g id="node5" class="node">
<title>7,2 (advanced sand castings (mold))</title>
<ellipse fill="none" stroke="black" cx="796.13" cy="-1358.71" rx="178.17" ry="18"/>
<text text-anchor="middle" x="796.13" y="-1355.01" font-family="Times,serif" font-size="14.00">7,2 (advanced sand castings (mold))</text>
</g>
<!-- &#45;4,&#45;3 (Breath Deeply. Exhale. (Hot Air))&#45;&gt;7,2 (advanced sand castings (mold)) -->
<g id="edge4" class="edge">
<title>&#45;4,&#45;3 (Breath Deeply. Exhale. (Hot Air))&#45;&gt;7,2 (advanced sand castings (mold))</title>
<path fill="none" stroke="black" stroke-width="0.38" d="M850.75,-705.81C842.99,-798.62 807.96,-1217.3 798.49,-1330.45"/>
<polygon fill="black" stroke="black" stroke-width="0.38" points="795,-1330.17 797.66,-1340.42 801.98,-1330.75 795,-1330.17"/>
<text text-anchor="middle" x="759.62" y="-1021.93" font-family="Times,serif" font-size="14.00">hot&#45;air&#45;barrel*960</text>
</g>
<!-- 3,13 (Rubber) -->
<g id="node6" class="node">
<title>3,13 (Rubber)</title>
<ellipse fill="none" stroke="black" cx="490.69" cy="-1255.76" rx="75.29" ry="18"/>
<text text-anchor="middle" x="490.69" y="-1252.06" font-family="Times,serif" font-size="14.00">3,13 (Rubber)</text>
</g>
<!-- &#45;4,&#45;3 (Breath Deeply. Exhale. (Hot Air))&#45;&gt;3,13 (Rubber) -->
<g id="edge5" class="edge">
<title>&#45;4,&#45;3 (Breath Deeply. Exhale. (Hot Air))&#45;&gt;3,13 (Rubber)</title>
<path fill="none" stroke="black" stroke-width="1.19" d="M840.66,-705.77C787.79,-788.85 569.89,-1131.3 507.47,-1229.39"/>
<polygon fill="black" stroke="black" stroke-width="1.19" points="504.5,-1227.53 502.09,-1237.85 510.41,-1231.29 504.5,-1227.53"/>
<text text-anchor="middle" x="604.57" y="-971.38" font-family="Times,serif" font-size="14.00">hot&#45;air&#45;barrel*2976</text>
</g>
<!-- 3,5 (item=molybdenum&#45;plate Molybdenum plate) -->
<g id="node7" class="node">
<title>3,5 (item=molybdenum&#45;plate Molybdenum plate)</title>
<ellipse fill="none" stroke="black" cx="239.83" cy="-967.8" rx="239.66" ry="18"/>
<text text-anchor="middle" x="239.83" y="-964.1" font-family="Times,serif" font-size="14.00">3,5 (item=molybdenum&#45;plate Molybdenum plate)</text>
</g>
<!-- &#45;4,&#45;3 (Breath Deeply. Exhale. (Hot Air))&#45;&gt;3,5 (item=molybdenum&#45;plate Molybdenum plate) -->
<g id="edge6" class="edge">
<title>&#45;4,&#45;3 (Breath Deeply. Exhale. (Hot Air))&#45;&gt;3,5 (item=molybdenum&#45;plate Molybdenum plate)</title>
<path fill="none" stroke="black" stroke-width="0.63" d="M813.51,-705.25C706.24,-754.35 405.7,-891.88 287.98,-945.76"/>
<polygon fill="black" stroke="black" stroke-width="0.63" points="286.47,-942.6 278.83,-949.95 289.38,-948.97 286.47,-942.6"/>
<text text-anchor="middle" x="481.25" y="-829.31" font-family="Times,serif" font-size="14.00">hot&#45;air&#45;barrel*1576</text>
</g>
<!-- 0,0 (LE BUS) -->
<g id="node8" class="node">
<title>0,0 (LE BUS)</title>
<ellipse fill="none" stroke="black" cx="185.32" cy="-593.57" rx="71.49" ry="18"/>
<text text-anchor="middle" x="185.32" y="-589.87" font-family="Times,serif" font-size="14.00">0,0 (LE BUS)</text>
</g>
<!-- &#45;4,&#45;3 (Breath Deeply. Exhale. (Hot Air))&#45;&gt;0,0 (LE BUS) -->
<g id="edge7" class="edge">
<title>&#45;4,&#45;3 (Breath Deeply. Exhale. (Hot Air))&#45;&gt;0,0 (LE BUS)</title>
<path fill="none" stroke="black" stroke-width="1.22" d="M745.86,-672.52C609.17,-653.27 375.56,-620.37 257.76,-603.78"/>
<polygon fill="black" stroke="black" stroke-width="1.22" points="258.15,-600.3 247.76,-602.37 257.18,-607.23 258.15,-600.3"/>
<text text-anchor="middle" x="432.31" y="-641.95" font-family="Times,serif" font-size="14.00">hot&#45;air&#45;barrel*3040</text>
</g>
<!-- 4,6 (Circuit substrate and Doped silicon) -->
<g id="node9" class="node">
<title>4,6 (Circuit substrate and Doped silicon)</title>
<ellipse fill="none" stroke="black" cx="315.76" cy="-280.32" rx="199.56" ry="18"/>
<text text-anchor="middle" x="315.76" y="-276.62" font-family="Times,serif" font-size="14.00">4,6 (Circuit substrate and Doped silicon)</text>
</g>
<!-- &#45;4,&#45;3 (Breath Deeply. Exhale. (Hot Air))&#45;&gt;4,6 (Circuit substrate and Doped silicon) -->
<g id="edge8" class="edge">
<title>&#45;4,&#45;3 (Breath Deeply. Exhale. (Hot Air))&#45;&gt;4,6 (Circuit substrate and Doped silicon)</title>
<path fill="none" stroke="black" stroke-width="0.87" d="M828.54,-669.49C742.33,-604.06 445.78,-378.99 347.6,-304.48"/>
<polygon fill="black" stroke="black" stroke-width="0.87" points="349.62,-301.62 339.54,-298.36 345.39,-307.19 349.62,-301.62"/>
<text text-anchor="middle" x="518.57" y="-490.78" font-family="Times,serif" font-size="14.00">hot&#45;air&#45;barrel*2168</text>
</g>
<!-- &#45;1,10 (Iron Plates) -->
<g id="node10" class="node">
<title>&#45;1,10 (Iron Plates)</title>
<ellipse fill="none" stroke="black" cx="603.97" cy="-61.41" rx="94.78" ry="18"/>
<text text-anchor="middle" x="603.97" y="-57.71" font-family="Times,serif" font-size="14.00">&#45;1,10 (Iron Plates)</text>
</g>
<!-- &#45;4,&#45;3 (Breath Deeply. Exhale. (Hot Air))&#45;&gt;&#45;1,10 (Iron Plates) -->
<g id="edge9" class="edge">
<title>&#45;4,&#45;3 (Breath Deeply. Exhale. (Hot Air))&#45;&gt;&#45;1,10 (Iron Plates)</title>
<path fill="none" stroke="black" stroke-width="0.61" d="M845.12,-669.45C810.15,-581.26 657.32,-195.91 614.92,-89"/>
<polygon fill="black" stroke="black" stroke-width="0.61" points="618.11,-87.55 611.17,-79.54 611.6,-90.13 618.11,-87.55"/>
<text text-anchor="middle" x="660.52" y="-383.02" font-family="Times,serif" font-size="14.00">hot&#45;air&#45;barrel*1512</text>
</g>
<!-- &#45;1,11 (Steel Plate (from molten)) -->
<g id="node11" class="node">
<title>&#45;1,11 (Steel Plate (from molten))</title>
<ellipse fill="none" stroke="black" cx="925.9" cy="-18" rx="161.37" ry="18"/>
<text text-anchor="middle" x="925.9" y="-14.3" font-family="Times,serif" font-size="14.00">&#45;1,11 (Steel Plate (from molten))</text>
</g>
<!-- &#45;4,&#45;3 (Breath Deeply. Exhale. (Hot Air))&#45;&gt;&#45;1,11 (Steel Plate (from molten)) -->
<g id="edge10" class="edge">
<title>&#45;4,&#45;3 (Breath Deeply. Exhale. (Hot Air))&#45;&gt;&#45;1,11 (Steel Plate (from molten))</title>
<path fill="none" stroke="black" stroke-width="0.4" d="M854.29,-669.25C864.47,-576.67 910.39,-159.05 922.8,-46.19"/>
<polygon fill="black" stroke="black" stroke-width="0.4" points="926.28,-46.56 923.9,-36.24 919.33,-45.8 926.28,-46.56"/>
<text text-anchor="middle" x="819.05" y="-361.52" font-family="Times,serif" font-size="14.00">hot&#45;air&#45;barrel*1008</text>
</g>
<!-- 0,12 (Phosphate mining) -->
<g id="node12" class="node">
<title>0,12 (Phosphate mining)</title>
<ellipse fill="none" stroke="black" cx="1255.06" cy="-147.66" rx="124.58" ry="18"/>
<text text-anchor="middle" x="1255.06" y="-143.96" font-family="Times,serif" font-size="14.00">0,12 (Phosphate mining)</text>
</g>
<!-- &#45;4,&#45;3 (Breath Deeply. Exhale. (Hot Air))&#45;&gt;0,12 (Phosphate mining) -->
<g id="edge11" class="edge">
<title>&#45;4,&#45;3 (Breath Deeply. Exhale. (Hot Air))&#45;&gt;0,12 (Phosphate mining)</title>
<path fill="none" stroke="black" stroke-width="0.18" d="M865.68,-669.55C925.12,-589.89 1165.06,-268.29 1235.52,-173.86"/>
<polygon fill="black" stroke="black" stroke-width="0.18" points="1238.44,-175.8 1241.61,-165.69 1232.83,-171.62 1238.44,-175.8"/>
<text text-anchor="middle" x="985.6" y="-425.5" font-family="Times,serif" font-size="14.00">hot&#45;air&#45;barrel*456</text>
</g>
<!-- 2,1 (Niobium plates) -->
<g id="node13" class="node">
<title>2,1 (Niobium plates)</title>
<ellipse fill="none" stroke="black" cx="1449.61" cy="-376.28" rx="105.88" ry="18"/>
<text text-anchor="middle" x="1449.61" y="-372.58" font-family="Times,serif" font-size="14.00">2,1 (Niobium plates)</text>
</g>
<!-- &#45;4,&#45;3 (Breath Deeply. Exhale. (Hot Air))&#45;&gt;2,1 (Niobium plates) -->
<g id="edge12" class="edge">
<title>&#45;4,&#45;3 (Breath Deeply. Exhale. (Hot Air))&#45;&gt;2,1 (Niobium plates)</title>
<path fill="none" stroke="black" stroke-width="0.1" d="M886.54,-669.66C989.38,-616.08 1295.21,-456.73 1407.58,-398.18"/>
<polygon fill="black" stroke="black" stroke-width="0.1" points="1409.34,-401.21 1416.59,-393.48 1406.11,-395 1409.34,-401.21"/>
<text text-anchor="middle" x="1082.06" y="-537.72" font-family="Times,serif" font-size="14.00">hot&#45;air&#45;barrel*240</text>
</g>
</g>
</svg>
