<?xml version="1.0" encoding="UTF-8" standalone="no"?>
<!DOCTYPE svg PUBLIC "-//W3C//DTD SVG 1.1//EN"
 "http://www.w3.org/Graphics/SVG/1.1/DTD/svg11.dtd">
<!-- Generated by graphviz version 2.43.0 (0)
 -->
<!-- Title: %3 Pages: 1 -->
<svg width="1107pt" height="808pt"
 viewBox="0.00 0.00 1107.00 807.63" xmlns="http://www.w3.org/2000/svg" xmlns:xlink="http://www.w3.org/1999/xlink">
<g id="graph0" class="graph" transform="scale(1 1) rotate(0) translate(4 803.63)">
<title>%3</title>
<polygon fill="white" stroke="transparent" points="-4,4 -4,-803.63 1103,-803.63 1103,4 -4,4"/>
<!-- 3,&#45;8 (Agar) -->
<g id="node1" class="node">
<title>3,&#45;8 (Agar)</title>
<ellipse fill="none" stroke="black" cx="645.69" cy="-18" rx="59.59" ry="18"/>
<text text-anchor="middle" x="645.69" y="-14.3" font-family="Times,serif" font-size="14.00">3,&#45;8 (Agar)</text>
</g>
<!-- &#45;5,0 (item=small&#45;lampitem=petri&#45;dish Lamptri dishes) -->
<g id="node2" class="node">
<title>&#45;5,0 (item=small&#45;lampitem=petri&#45;dish Lamptri dishes)</title>
<ellipse fill="none" stroke="black" cx="263.88" cy="-399.81" rx="263.75" ry="18"/>
<text text-anchor="middle" x="263.88" y="-396.11" font-family="Times,serif" font-size="14.00">&#45;5,0 (item=small&#45;lampitem=petri&#45;dish Lamptri dishes)</text>
</g>
<!-- 3,&#45;8 (Agar)&#45;&gt;&#45;5,0 (item=small&#45;lampitem=petri&#45;dish Lamptri dishes) -->
<g id="edge1" class="edge">
<title>3,&#45;8 (Agar)&#45;&gt;&#45;5,0 (item=small&#45;lampitem=petri&#45;dish Lamptri dishes)</title>
<path fill="none" stroke="black" stroke-width="1.05" d="M628.29,-35.4C567.2,-96.49 362.29,-301.41 289.66,-374.03"/>
<polygon fill="black" stroke="black" stroke-width="1.05" points="286.86,-371.88 282.26,-381.43 291.81,-376.83 286.86,-371.88"/>
<text text-anchor="middle" x="416.48" y="-208.51" font-family="Times,serif" font-size="14.00">agar*75520</text>
</g>
<!-- 0,0 (LE BUS) -->
<g id="node4" class="node">
<title>0,0 (LE BUS)</title>
<ellipse fill="none" stroke="black" cx="1027.51" cy="-399.81" rx="71.49" ry="18"/>
<text text-anchor="middle" x="1027.51" y="-396.11" font-family="Times,serif" font-size="14.00">0,0 (LE BUS)</text>
</g>
<!-- 3,&#45;8 (Agar)&#45;&gt;0,0 (LE BUS) -->
<g id="edge4" class="edge">
<title>3,&#45;8 (Agar)&#45;&gt;0,0 (LE BUS)</title>
<path fill="none" stroke="black" stroke-width="0.06" d="M663.09,-35.4C724.46,-96.77 930.99,-303.3 1002.72,-375.02"/>
<polygon fill="black" stroke="black" stroke-width="0.06" points="1000.46,-377.72 1010.01,-382.31 1005.41,-372.77 1000.46,-377.72"/>
<text text-anchor="middle" x="794.9" y="-209.01" font-family="Times,serif" font-size="14.00">agar*4160</text>
</g>
<!-- &#45;6,&#45;1 (item=agar Agar) -->
<g id="node3" class="node">
<title>&#45;6,&#45;1 (item=agar Agar)</title>
<ellipse fill="none" stroke="black" cx="645.69" cy="-781.63" rx="115.88" ry="18"/>
<text text-anchor="middle" x="645.69" y="-777.93" font-family="Times,serif" font-size="14.00">&#45;6,&#45;1 (item=agar Agar)</text>
</g>
<!-- &#45;6,&#45;1 (item=agar Agar)&#45;&gt;&#45;5,0 (item=small&#45;lampitem=petri&#45;dish Lamptri dishes) -->
<g id="edge2" class="edge">
<title>&#45;6,&#45;1 (item=agar Agar)&#45;&gt;&#45;5,0 (item=small&#45;lampitem=petri&#45;dish Lamptri dishes)</title>
<path fill="none" stroke="black" stroke-width="2.78" d="M627.79,-763.73C566.05,-701.99 361.88,-497.82 289.55,-425.49"/>
<polygon fill="black" stroke="black" stroke-width="2.78" points="291.73,-422.72 282.19,-418.12 286.78,-427.67 291.73,-422.72"/>
<text text-anchor="middle" x="411.67" y="-598.41" font-family="Times,serif" font-size="14.00">agar*199840</text>
</g>
<!-- &#45;6,&#45;1 (item=agar Agar)&#45;&gt;0,0 (LE BUS) -->
<g id="edge3" class="edge">
<title>&#45;6,&#45;1 (item=agar Agar)&#45;&gt;0,0 (LE BUS)</title>
<path fill="none" stroke="black" stroke-width="0.12" d="M663.59,-763.73C725.47,-701.85 930.44,-496.88 1002.33,-424.99"/>
<polygon fill="black" stroke="black" stroke-width="0.12" points="1005.04,-427.23 1009.64,-417.68 1000.1,-422.28 1005.04,-427.23"/>
<text text-anchor="middle" x="794.96" y="-598.16" font-family="Times,serif" font-size="14.00">agar*8320</text>
</g>
</g>
</svg>
