<?xml version="1.0" encoding="UTF-8" standalone="no"?>
<!DOCTYPE svg PUBLIC "-//W3C//DTD SVG 1.1//EN"
 "http://www.w3.org/Graphics/SVG/1.1/DTD/svg11.dtd">
<!-- Generated by graphviz version 2.43.0 (0)
 -->
<!-- Title: %3 Pages: 1 -->
<svg width="1722pt" height="1115pt"
 viewBox="0.00 0.00 1722.39 1115.30" xmlns="http://www.w3.org/2000/svg" xmlns:xlink="http://www.w3.org/1999/xlink">
<g id="graph0" class="graph" transform="scale(1 1) rotate(0) translate(4 1111.3)">
<title>%3</title>
<polygon fill="white" stroke="transparent" points="-4,4 -4,-1111.3 1718.39,-1111.3 1718.39,4 -4,4"/>
<!-- &#45;3,8 (Urea) -->
<g id="node1" class="node">
<title>&#45;3,8 (Urea)</title>
<ellipse fill="none" stroke="black" cx="1200.43" cy="-553.65" rx="61.19" ry="18"/>
<text text-anchor="middle" x="1200.43" y="-549.95" font-family="Times,serif" font-size="14.00">&#45;3,8 (Urea)</text>
</g>
<!-- 0,0 (LE BUS) -->
<g id="node2" class="node">
<title>0,0 (LE BUS)</title>
<ellipse fill="none" stroke="black" cx="993.56" cy="-124.09" rx="71.49" ry="18"/>
<text text-anchor="middle" x="993.56" y="-120.39" font-family="Times,serif" font-size="14.00">0,0 (LE BUS)</text>
</g>
<!-- &#45;3,8 (Urea)&#45;&gt;0,0 (LE BUS) -->
<g id="edge1" class="edge">
<title>&#45;3,8 (Urea)&#45;&gt;0,0 (LE BUS)</title>
<path fill="none" stroke="black" stroke-width="0.34" d="M1191.8,-535.74C1159.47,-468.6 1045.35,-231.62 1006.57,-151.1"/>
<polygon fill="black" stroke="black" stroke-width="0.34" points="1009.72,-149.57 1002.22,-142.08 1003.41,-152.61 1009.72,-149.57"/>
<text text-anchor="middle" x="1056.68" y="-347.22" font-family="Times,serif" font-size="14.00">urea*16256</text>
</g>
<!-- 4,9 (Cyanic Acid, Ammonia is a by&#45;product) -->
<g id="node4" class="node">
<title>4,9 (Cyanic Acid, Ammonia is a by&#45;product)</title>
<ellipse fill="none" stroke="black" cx="993.56" cy="-983.21" rx="210.66" ry="18"/>
<text text-anchor="middle" x="993.56" y="-979.51" font-family="Times,serif" font-size="14.00">4,9 (Cyanic Acid, Ammonia is a by&#45;product)</text>
</g>
<!-- &#45;3,8 (Urea)&#45;&gt;4,9 (Cyanic Acid, Ammonia is a by&#45;product) -->
<g id="edge3" class="edge">
<title>&#45;3,8 (Urea)&#45;&gt;4,9 (Cyanic Acid, Ammonia is a by&#45;product)</title>
<path fill="none" stroke="black" stroke-width="0.28" d="M1191.8,-571.56C1159.47,-638.7 1045.35,-875.67 1006.57,-956.2"/>
<polygon fill="black" stroke="black" stroke-width="0.28" points="1003.41,-954.69 1002.22,-965.22 1009.72,-957.73 1003.41,-954.69"/>
<text text-anchor="middle" x="1056.68" y="-767.68" font-family="Times,serif" font-size="14.00">urea*13248</text>
</g>
<!-- 2,4 (Formica and Phenolic boards) -->
<g id="node5" class="node">
<title>2,4 (Formica and Phenolic boards)</title>
<ellipse fill="none" stroke="black" cx="528.74" cy="-18" rx="169.77" ry="18"/>
<text text-anchor="middle" x="528.74" y="-14.3" font-family="Times,serif" font-size="14.00">2,4 (Formica and Phenolic boards)</text>
</g>
<!-- &#45;3,8 (Urea)&#45;&gt;2,4 (Formica and Phenolic boards) -->
<g id="edge4" class="edge">
<title>&#45;3,8 (Urea)&#45;&gt;2,4 (Formica and Phenolic boards)</title>
<path fill="none" stroke="black" stroke-width="0.09" d="M1179.21,-536.73C1081.53,-458.84 674.88,-134.54 559.43,-42.47"/>
<polygon fill="black" stroke="black" stroke-width="0.09" points="561.32,-39.5 551.32,-36 556.95,-44.97 561.32,-39.5"/>
<text text-anchor="middle" x="831.32" y="-293.4" font-family="Times,serif" font-size="14.00">urea*4304</text>
</g>
<!-- 1,4 (Casein and Melamine) -->
<g id="node6" class="node">
<title>1,4 (Casein and Melamine)</title>
<ellipse fill="none" stroke="black" cx="155.99" cy="-315.26" rx="135.38" ry="18"/>
<text text-anchor="middle" x="155.99" y="-311.56" font-family="Times,serif" font-size="14.00">1,4 (Casein and Melamine)</text>
</g>
<!-- &#45;3,8 (Urea)&#45;&gt;1,4 (Casein and Melamine) -->
<g id="edge7" class="edge">
<title>&#45;3,8 (Urea)&#45;&gt;1,4 (Casein and Melamine)</title>
<path fill="none" stroke="black" stroke-width="0.16" d="M1151.8,-542.55C985.48,-504.59 438.34,-379.71 233.94,-333.06"/>
<polygon fill="black" stroke="black" stroke-width="0.16" points="234.7,-329.64 224.17,-330.83 233.14,-336.46 234.7,-329.64"/>
<text text-anchor="middle" x="654.87" y="-441.6" font-family="Times,serif" font-size="14.00">urea*7472</text>
</g>
<!-- &#45;6,&#45;2 (item=fertilizer Fertiliser) -->
<g id="node7" class="node">
<title>&#45;6,&#45;2 (item=fertilizer Fertiliser)</title>
<ellipse fill="none" stroke="black" cx="155.99" cy="-792.04" rx="155.97" ry="18"/>
<text text-anchor="middle" x="155.99" y="-788.34" font-family="Times,serif" font-size="14.00">&#45;6,&#45;2 (item=fertilizer Fertiliser)</text>
</g>
<!-- &#45;3,8 (Urea)&#45;&gt;&#45;6,&#45;2 (item=fertilizer Fertiliser) -->
<g id="edge9" class="edge">
<title>&#45;3,8 (Urea)&#45;&gt;&#45;6,&#45;2 (item=fertilizer Fertiliser)</title>
<path fill="none" stroke="black" stroke-width="0" d="M1151.8,-564.75C986.17,-602.55 442.89,-726.55 236.51,-773.66"/>
<polygon fill="black" stroke="black" stroke-width="0" points="235.61,-770.27 226.64,-775.91 237.17,-777.1 235.61,-770.27"/>
<text text-anchor="middle" x="660.65" y="-673" font-family="Times,serif" font-size="14.00">urea*144</text>
</g>
<!-- 7,1 (item=aerogel item=clean&#45;rf&#45;gel Aerogel) -->
<g id="node8" class="node">
<title>7,1 (item=aerogel item=clean&#45;rf&#45;gel Aerogel)</title>
<ellipse fill="none" stroke="black" cx="1493.41" cy="-553.65" rx="220.96" ry="18"/>
<text text-anchor="middle" x="1493.41" y="-549.95" font-family="Times,serif" font-size="14.00">7,1 (item=aerogel item=clean&#45;rf&#45;gel Aerogel)</text>
</g>
<!-- &#45;3,8 (Urea)&#45;&gt;7,1 (item=aerogel item=clean&#45;rf&#45;gel Aerogel) -->
<g id="edge11" class="edge">
<title>&#45;3,8 (Urea)&#45;&gt;7,1 (item=aerogel item=clean&#45;rf&#45;gel Aerogel)</title>
<path fill="none" stroke="black" stroke-width="0" d="M1261.84,-553.65C1261.95,-553.65 1262.05,-553.65 1262.16,-553.65"/>
<polygon fill="black" stroke="black" stroke-width="0" points="1262.17,-557.15 1272.17,-553.65 1262.17,-550.15 1262.17,-557.15"/>
<text text-anchor="middle" x="1262" y="-542.45" font-family="Times,serif" font-size="14.00">urea*160</text>
</g>
<!-- &#45;6,4 (Urea) -->
<g id="node3" class="node">
<title>&#45;6,4 (Urea)</title>
<ellipse fill="none" stroke="black" cx="528.74" cy="-1089.3" rx="61.19" ry="18"/>
<text text-anchor="middle" x="528.74" y="-1085.6" font-family="Times,serif" font-size="14.00">&#45;6,4 (Urea)</text>
</g>
<!-- &#45;6,4 (Urea)&#45;&gt;0,0 (LE BUS) -->
<g id="edge2" class="edge">
<title>&#45;6,4 (Urea)&#45;&gt;0,0 (LE BUS)</title>
<path fill="none" stroke="black" stroke-width="0.81" d="M537.41,-1071.3C594.09,-953.61 911.71,-294.06 980.44,-151.33"/>
<polygon fill="black" stroke="black" stroke-width="0.81" points="983.77,-152.49 984.96,-141.96 977.46,-149.45 983.77,-152.49"/>
<text text-anchor="middle" x="716.43" y="-615.12" font-family="Times,serif" font-size="14.00">urea*38840</text>
</g>
<!-- &#45;6,4 (Urea)&#45;&gt;4,9 (Cyanic Acid, Ammonia is a by&#45;product) -->
<g id="edge6" class="edge">
<title>&#45;6,4 (Urea)&#45;&gt;4,9 (Cyanic Acid, Ammonia is a by&#45;product)</title>
<path fill="none" stroke="black" stroke-width="4.48" d="M577.17,-1078.25C655.85,-1060.29 812.41,-1024.56 909.53,-1002.39"/>
<polygon fill="black" stroke="black" stroke-width="4.48" points="910.45,-1006.2 919.33,-1000.15 908.7,-998.55 910.45,-1006.2"/>
<text text-anchor="middle" x="696.35" y="-1044.12" font-family="Times,serif" font-size="14.00">urea*213720</text>
</g>
<!-- &#45;6,4 (Urea)&#45;&gt;2,4 (Formica and Phenolic boards) -->
<g id="edge8" class="edge">
<title>&#45;6,4 (Urea)&#45;&gt;2,4 (Formica and Phenolic boards)</title>
<path fill="none" stroke="black" stroke-width="0.94" d="M528.74,-1071.15C528.74,-945.22 528.74,-201.85 528.74,-46.46"/>
<polygon fill="black" stroke="black" stroke-width="0.94" points="532.24,-46.31 528.74,-36.31 525.24,-46.31 532.24,-46.31"/>
<text text-anchor="middle" x="486.24" y="-562.61" font-family="Times,serif" font-size="14.00">urea*44600</text>
</g>
<!-- &#45;6,4 (Urea)&#45;&gt;1,4 (Casein and Melamine) -->
<g id="edge5" class="edge">
<title>&#45;6,4 (Urea)&#45;&gt;1,4 (Casein and Melamine)</title>
<path fill="none" stroke="black" stroke-width="3.53" d="M520.08,-1071.31C471.07,-969.53 228.69,-466.23 169.19,-342.69"/>
<polygon fill="black" stroke="black" stroke-width="3.53" points="172.26,-340.99 164.77,-333.5 165.95,-344.03 172.26,-340.99"/>
<text text-anchor="middle" x="297.63" y="-710.8" font-family="Times,serif" font-size="14.00">urea*168440</text>
</g>
<!-- &#45;6,4 (Urea)&#45;&gt;&#45;6,&#45;2 (item=fertilizer Fertiliser) -->
<g id="edge10" class="edge">
<title>&#45;6,4 (Urea)&#45;&gt;&#45;6,&#45;2 (item=fertilizer Fertiliser)</title>
<path fill="none" stroke="black" stroke-width="0.36" d="M507.36,-1072.25C444.5,-1022.12 260.1,-875.07 186.67,-816.51"/>
<polygon fill="black" stroke="black" stroke-width="0.36" points="188.69,-813.64 178.69,-810.14 184.33,-819.11 188.69,-813.64"/>
<text text-anchor="middle" x="304.52" y="-948.18" font-family="Times,serif" font-size="14.00">urea*17215</text>
</g>
</g>
</svg>
