<?xml version="1.0" encoding="UTF-8" standalone="no"?>
<!DOCTYPE svg PUBLIC "-//W3C//DTD SVG 1.1//EN"
 "http://www.w3.org/Graphics/SVG/1.1/DTD/svg11.dtd">
<!-- Generated by graphviz version 2.43.0 (0)
 -->
<!-- Title: %3 Pages: 1 -->
<svg width="998pt" height="44pt"
 viewBox="0.00 0.00 998.22 44.00" xmlns="http://www.w3.org/2000/svg" xmlns:xlink="http://www.w3.org/1999/xlink">
<g id="graph0" class="graph" transform="scale(1 1) rotate(0) translate(4 40)">
<title>%3</title>
<polygon fill="white" stroke="transparent" points="-4,4 -4,-40 994.22,-40 994.22,4 -4,4"/>
<!-- 4,5 (Yet More Raw Fiber) -->
<g id="node1" class="node">
<title>4,5 (Yet More Raw Fiber)</title>
<ellipse fill="none" stroke="black" cx="128.04" cy="-18" rx="128.08" ry="18"/>
<text text-anchor="middle" x="128.04" y="-14.3" font-family="Times,serif" font-size="14.00">4,5 (Yet More Raw Fiber)</text>
</g>
<!-- 1,3 (item=korlex&#45;food&#45;01 Korlex food) -->
<g id="node2" class="node">
<title>1,3 (item=korlex&#45;food&#45;01 Korlex food)</title>
<ellipse fill="none" stroke="black" cx="513.96" cy="-18" rx="185.77" ry="18"/>
<text text-anchor="middle" x="513.96" y="-14.3" font-family="Times,serif" font-size="14.00">1,3 (item=korlex&#45;food&#45;01 Korlex food)</text>
</g>
<!-- 4,5 (Yet More Raw Fiber)&#45;&gt;1,3 (item=korlex&#45;food&#45;01 Korlex food) -->
<g id="edge1" class="edge">
<title>4,5 (Yet More Raw Fiber)&#45;&gt;1,3 (item=korlex&#45;food&#45;01 Korlex food)</title>
<path fill="none" stroke="black" stroke-width="1.04" d="M256.28,-18C276.07,-18 296.89,-18 317.76,-18"/>
<polygon fill="black" stroke="black" stroke-width="1.04" points="318,-21.5 328,-18 318,-14.5 318,-21.5"/>
<text text-anchor="middle" x="287.02" y="-6.8" font-family="Times,serif" font-size="14.00">kicalk&#45;seeds*20256</text>
</g>
<!-- &#45;1,8 (Fibre via. moss) -->
<g id="node3" class="node">
<title>&#45;1,8 (Fibre via. moss)</title>
<ellipse fill="none" stroke="black" cx="881.03" cy="-18" rx="109.38" ry="18"/>
<text text-anchor="middle" x="881.03" y="-14.3" font-family="Times,serif" font-size="14.00">&#45;1,8 (Fibre via. moss)</text>
</g>
<!-- &#45;1,8 (Fibre via. moss)&#45;&gt;1,3 (item=korlex&#45;food&#45;01 Korlex food) -->
<g id="edge2" class="edge">
<title>&#45;1,8 (Fibre via. moss)&#45;&gt;1,3 (item=korlex&#45;food&#45;01 Korlex food)</title>
<path fill="none" stroke="black" stroke-width="0.96" d="M771.4,-18C751.88,-18 731.03,-18 709.96,-18"/>
<polygon fill="black" stroke="black" stroke-width="0.96" points="709.94,-14.5 699.94,-18 709.94,-21.5 709.94,-14.5"/>
<text text-anchor="middle" x="705.93" y="-6.8" font-family="Times,serif" font-size="14.00">kicalk&#45;seeds*18800</text>
</g>
</g>
</svg>
