<?xml version="1.0" encoding="UTF-8" standalone="no"?>
<!DOCTYPE svg PUBLIC "-//W3C//DTD SVG 1.1//EN"
 "http://www.w3.org/Graphics/SVG/1.1/DTD/svg11.dtd">
<!-- Generated by graphviz version 2.43.0 (0)
 -->
<!-- Title: %3 Pages: 1 -->
<svg width="873pt" height="44pt"
 viewBox="0.00 0.00 873.44 44.00" xmlns="http://www.w3.org/2000/svg" xmlns:xlink="http://www.w3.org/1999/xlink">
<g id="graph0" class="graph" transform="scale(1 1) rotate(0) translate(4 40)">
<title>%3</title>
<polygon fill="white" stroke="transparent" points="-4,4 -4,-40 869.44,-40 869.44,4 -4,4"/>
<!-- &#45;6,&#45;3 (Chromite Sand) -->
<g id="node1" class="node">
<title>&#45;6,&#45;3 (Chromite Sand)</title>
<ellipse fill="none" stroke="black" cx="468.46" cy="-18" rx="110.48" ry="18"/>
<text text-anchor="middle" x="468.46" y="-14.3" font-family="Times,serif" font-size="14.00">&#45;6,&#45;3 (Chromite Sand)</text>
</g>
<!-- 0,0 (LE BUS) -->
<g id="node2" class="node">
<title>0,0 (LE BUS)</title>
<ellipse fill="none" stroke="black" cx="793.94" cy="-18" rx="71.49" ry="18"/>
<text text-anchor="middle" x="793.94" y="-14.3" font-family="Times,serif" font-size="14.00">0,0 (LE BUS)</text>
</g>
<!-- &#45;6,&#45;3 (Chromite Sand)&#45;&gt;0,0 (LE BUS) -->
<g id="edge1" class="edge">
<title>&#45;6,&#45;3 (Chromite Sand)&#45;&gt;0,0 (LE BUS)</title>
<path fill="none" stroke="black" stroke-width="0.71" d="M579.11,-18C622.77,-18 672.03,-18 712.35,-18"/>
<polygon fill="black" stroke="black" stroke-width="0.71" points="712.4,-21.5 722.4,-18 712.4,-14.5 712.4,-21.5"/>
<text text-anchor="middle" x="645.73" y="-6.8" font-family="Times,serif" font-size="14.00">chromite&#45;sand*12512</text>
</g>
<!-- 4,13 (Chromium processing) -->
<g id="node3" class="node">
<title>4,13 (Chromium processing)</title>
<ellipse fill="none" stroke="black" cx="142.99" cy="-18" rx="142.97" ry="18"/>
<text text-anchor="middle" x="142.99" y="-14.3" font-family="Times,serif" font-size="14.00">4,13 (Chromium processing)</text>
</g>
<!-- &#45;6,&#45;3 (Chromite Sand)&#45;&gt;4,13 (Chromium processing) -->
<g id="edge2" class="edge">
<title>&#45;6,&#45;3 (Chromite Sand)&#45;&gt;4,13 (Chromium processing)</title>
<path fill="none" stroke="black" stroke-width="1.29" d="M357.82,-18C338.02,-18 317.08,-18 296.33,-18"/>
<polygon fill="black" stroke="black" stroke-width="1.29" points="296.17,-14.5 286.17,-18 296.17,-21.5 296.17,-14.5"/>
<text text-anchor="middle" x="288.58" y="-6.8" font-family="Times,serif" font-size="14.00">chromite&#45;sand*22624</text>
</g>
</g>
</svg>
