<?xml version="1.0" encoding="UTF-8" standalone="no"?>
<!DOCTYPE svg PUBLIC "-//W3C//DTD SVG 1.1//EN"
 "http://www.w3.org/Graphics/SVG/1.1/DTD/svg11.dtd">
<!-- Generated by graphviz version 2.43.0 (0)
 -->
<!-- Title: %3 Pages: 1 -->
<svg width="1186pt" height="1037pt"
 viewBox="0.00 0.00 1186.19 1037.35" xmlns="http://www.w3.org/2000/svg" xmlns:xlink="http://www.w3.org/1999/xlink">
<g id="graph0" class="graph" transform="scale(1 1) rotate(0) translate(4 1033.35)">
<title>%3</title>
<polygon fill="white" stroke="transparent" points="-4,4 -4,-1033.35 1182.19,-1033.35 1182.19,4 -4,4"/>
<!-- 4,&#45;2 (Ceramic) -->
<g id="node1" class="node">
<title>4,&#45;2 (Ceramic)</title>
<ellipse fill="none" stroke="black" cx="607.43" cy="-511.01" rx="76.89" ry="18"/>
<text text-anchor="middle" x="607.43" y="-507.31" font-family="Times,serif" font-size="14.00">4,&#45;2 (Ceramic)</text>
</g>
<!-- &#45;2,&#45;3 (Trains) -->
<g id="node2" class="node">
<title>&#45;2,&#45;3 (Trains)</title>
<ellipse fill="none" stroke="black" cx="1108" cy="-511.01" rx="70.39" ry="18"/>
<text text-anchor="middle" x="1108" y="-507.31" font-family="Times,serif" font-size="14.00">&#45;2,&#45;3 (Trains)</text>
</g>
<!-- 4,&#45;2 (Ceramic)&#45;&gt;&#45;2,&#45;3 (Trains) -->
<g id="edge1" class="edge">
<title>4,&#45;2 (Ceramic)&#45;&gt;&#45;2,&#45;3 (Trains)</title>
<path fill="none" stroke="black" stroke-width="0.09" d="M684.28,-511.01C777.22,-511.01 932.95,-511.01 1027.5,-511.01"/>
<polygon fill="black" stroke="black" stroke-width="0.09" points="1027.59,-514.51 1037.59,-511.01 1027.59,-507.51 1027.59,-514.51"/>
<text text-anchor="middle" x="799.39" y="-514.81" font-family="Times,serif" font-size="14.00">ore&#45;nickel*2032</text>
</g>
<!-- 2,10 (Nickel plate) -->
<g id="node3" class="node">
<title>2,10 (Nickel plate)</title>
<ellipse fill="none" stroke="black" cx="456.87" cy="-704.96" rx="96.68" ry="18"/>
<text text-anchor="middle" x="456.87" y="-701.26" font-family="Times,serif" font-size="14.00">2,10 (Nickel plate)</text>
</g>
<!-- 4,&#45;2 (Ceramic)&#45;&gt;2,10 (Nickel plate) -->
<g id="edge2" class="edge">
<title>4,&#45;2 (Ceramic)&#45;&gt;2,10 (Nickel plate)</title>
<path fill="none" stroke="black" stroke-width="3.22" d="M593.54,-528.91C566.76,-563.4 507.92,-639.2 476.91,-679.15"/>
<polygon fill="black" stroke="black" stroke-width="3.22" points="474.1,-677.06 470.73,-687.11 479.63,-681.35 474.1,-677.06"/>
<text text-anchor="middle" x="474.22" y="-607.83" font-family="Times,serif" font-size="14.00">ore&#45;nickel*71760</text>
</g>
<!-- 4,11 (Cobalt Extract) -->
<g id="node5" class="node">
<title>4,11 (Cobalt Extract)</title>
<ellipse fill="none" stroke="black" cx="520.78" cy="-18" rx="108.58" ry="18"/>
<text text-anchor="middle" x="520.78" y="-14.3" font-family="Times,serif" font-size="14.00">4,11 (Cobalt Extract)</text>
</g>
<!-- 4,&#45;2 (Ceramic)&#45;&gt;4,11 (Cobalt Extract) -->
<g id="edge4" class="edge">
<title>4,&#45;2 (Ceramic)&#45;&gt;4,11 (Cobalt Extract)</title>
<path fill="none" stroke="black" stroke-width="0.23" d="M604.25,-492.88C591.18,-418.51 541.61,-136.51 525.72,-46.09"/>
<polygon fill="black" stroke="black" stroke-width="0.23" points="529.13,-45.28 523.95,-36.04 522.23,-46.49 529.13,-45.28"/>
<text text-anchor="middle" x="508.48" y="-273.28" font-family="Times,serif" font-size="14.00">ore&#45;nickel*5216</text>
</g>
<!-- &#45;3,&#45;1 (item=boron&#45;trioxide Boron products 2) -->
<g id="node4" class="node">
<title>&#45;3,&#45;1 (item=boron&#45;trioxide Boron products 2)</title>
<ellipse fill="none" stroke="black" cx="219.03" cy="-1011.35" rx="219.06" ry="18"/>
<text text-anchor="middle" x="219.03" y="-1007.65" font-family="Times,serif" font-size="14.00">&#45;3,&#45;1 (item=boron&#45;trioxide Boron products 2)</text>
</g>
<!-- &#45;3,&#45;1 (item=boron&#45;trioxide Boron products 2)&#45;&gt;2,10 (Nickel plate) -->
<g id="edge3" class="edge">
<title>&#45;3,&#45;1 (item=boron&#45;trioxide Boron products 2)&#45;&gt;2,10 (Nickel plate)</title>
<path fill="none" stroke="black" stroke-width="0.46" d="M233.2,-993.11C273.6,-941.06 389.51,-791.75 436.61,-731.07"/>
<polygon fill="black" stroke="black" stroke-width="0.46" points="439.41,-733.16 442.78,-723.12 433.88,-728.87 439.41,-733.16"/>
<text text-anchor="middle" x="273.9" y="-865.89" font-family="Times,serif" font-size="14.00">ore&#45;nickel*10208</text>
</g>
</g>
</svg>
