<?xml version="1.0" encoding="UTF-8" standalone="no"?>
<!DOCTYPE svg PUBLIC "-//W3C//DTD SVG 1.1//EN"
 "http://www.w3.org/Graphics/SVG/1.1/DTD/svg11.dtd">
<!-- Generated by graphviz version 2.43.0 (0)
 -->
<!-- Title: %3 Pages: 1 -->
<svg width="1384pt" height="1148pt"
 viewBox="0.00 0.00 1384.40 1148.02" xmlns="http://www.w3.org/2000/svg" xmlns:xlink="http://www.w3.org/1999/xlink">
<g id="graph0" class="graph" transform="scale(1 1) rotate(0) translate(4 1144.02)">
<title>%3</title>
<polygon fill="white" stroke="transparent" points="-4,4 -4,-1144.02 1380.4,-1144.02 1380.4,4 -4,4"/>
<!-- &#45;3,2 (Lead and Solder) -->
<g id="node1" class="node">
<title>&#45;3,2 (Lead and Solder)</title>
<ellipse fill="none" stroke="black" cx="749.11" cy="-570.24" rx="113.98" ry="18"/>
<text text-anchor="middle" x="749.11" y="-566.54" font-family="Times,serif" font-size="14.00">&#45;3,2 (Lead and Solder)</text>
</g>
<!-- 0,0 (LE BUS) -->
<g id="node2" class="node">
<title>0,0 (LE BUS)</title>
<ellipse fill="none" stroke="black" cx="1304.91" cy="-570.24" rx="71.49" ry="18"/>
<text text-anchor="middle" x="1304.91" y="-566.54" font-family="Times,serif" font-size="14.00">0,0 (LE BUS)</text>
</g>
<!-- &#45;3,2 (Lead and Solder)&#45;&gt;0,0 (LE BUS) -->
<g id="edge1" class="edge">
<title>&#45;3,2 (Lead and Solder)&#45;&gt;0,0 (LE BUS)</title>
<path fill="none" stroke="black" stroke-width="2.65" d="M862.93,-570.24C970.02,-570.24 1127.77,-570.24 1222.99,-570.24"/>
<polygon fill="black" stroke="black" stroke-width="2.65" points="1223.15,-573.74 1233.15,-570.24 1223.15,-566.74 1223.15,-573.74"/>
<text text-anchor="middle" x="994.46" y="-574.04" font-family="Times,serif" font-size="14.00">solder*33600</text>
</g>
<!-- 0,9 (Auog Brains) -->
<g id="node3" class="node">
<title>0,9 (Auog Brains)</title>
<ellipse fill="none" stroke="black" cx="1255.9" cy="-798.43" rx="91.78" ry="18"/>
<text text-anchor="middle" x="1255.9" y="-794.73" font-family="Times,serif" font-size="14.00">0,9 (Auog Brains)</text>
</g>
<!-- &#45;3,2 (Lead and Solder)&#45;&gt;0,9 (Auog Brains) -->
<g id="edge2" class="edge">
<title>&#45;3,2 (Lead and Solder)&#45;&gt;0,9 (Auog Brains)</title>
<path fill="none" stroke="black" stroke-width="0.49" d="M787.21,-587.39C878.75,-628.61 1110.84,-733.11 1209.92,-777.72"/>
<polygon fill="black" stroke="black" stroke-width="0.49" points="1208.53,-780.94 1219.09,-781.85 1211.41,-774.55 1208.53,-780.94"/>
<text text-anchor="middle" x="954.56" y="-686.36" font-family="Times,serif" font-size="14.00">solder*6240</text>
</g>
<!-- 7,&#45;2 (item=guts Auog guts) -->
<g id="node4" class="node">
<title>7,&#45;2 (item=guts Auog guts)</title>
<ellipse fill="none" stroke="black" cx="1065.94" cy="-1026.89" rx="137.28" ry="18"/>
<text text-anchor="middle" x="1065.94" y="-1023.19" font-family="Times,serif" font-size="14.00">7,&#45;2 (item=guts Auog guts)</text>
</g>
<!-- &#45;3,2 (Lead and Solder)&#45;&gt;7,&#45;2 (item=guts Auog guts) -->
<g id="edge3" class="edge">
<title>&#45;3,2 (Lead and Solder)&#45;&gt;7,&#45;2 (item=guts Auog guts)</title>
<path fill="none" stroke="black" stroke-width="0.81" d="M761.53,-588.14C810.37,-658.54 989.39,-916.55 1047.55,-1000.39"/>
<polygon fill="black" stroke="black" stroke-width="0.81" points="1044.69,-1002.4 1053.26,-1008.62 1050.44,-998.41 1044.69,-1002.4"/>
<text text-anchor="middle" x="856.04" y="-798.07" font-family="Times,serif" font-size="14.00">solder*10240</text>
</g>
<!-- &#45;3,8 (Urea) -->
<g id="node5" class="node">
<title>&#45;3,8 (Urea)</title>
<ellipse fill="none" stroke="black" cx="815.84" cy="-1122.02" rx="61.19" ry="18"/>
<text text-anchor="middle" x="815.84" y="-1118.32" font-family="Times,serif" font-size="14.00">&#45;3,8 (Urea)</text>
</g>
<!-- &#45;3,2 (Lead and Solder)&#45;&gt;&#45;3,8 (Urea) -->
<g id="edge4" class="edge">
<title>&#45;3,2 (Lead and Solder)&#45;&gt;&#45;3,8 (Urea)</title>
<path fill="none" stroke="black" stroke-width="0.82" d="M751.3,-588.29C761.03,-668.76 800.51,-995.22 812.42,-1093.74"/>
<polygon fill="black" stroke="black" stroke-width="0.82" points="808.97,-1094.32 813.64,-1103.83 815.92,-1093.48 808.97,-1094.32"/>
<text text-anchor="middle" x="733.36" y="-844.81" font-family="Times,serif" font-size="14.00">solder*10400</text>
</g>
<!-- &#45;7,&#45;4 (Isomer&#39;s Slaughterhouse and Daycare Centre, Bone Meal, Auog theft) -->
<g id="node6" class="node">
<title>&#45;7,&#45;4 (Isomer&#39;s Slaughterhouse and Daycare Centre, Bone Meal, Auog theft)</title>
<ellipse fill="none" stroke="black" cx="362.02" cy="-969.07" rx="362.04" ry="18"/>
<text text-anchor="middle" x="362.02" y="-965.37" font-family="Times,serif" font-size="14.00">&#45;7,&#45;4 (Isomer&#39;s Slaughterhouse and Daycare Centre, Bone Meal, Auog theft)</text>
</g>
<!-- &#45;3,2 (Lead and Solder)&#45;&gt;&#45;7,&#45;4 (Isomer&#39;s Slaughterhouse and Daycare Centre, Bone Meal, Auog theft) -->
<g id="edge5" class="edge">
<title>&#45;3,2 (Lead and Solder)&#45;&gt;&#45;7,&#45;4 (Isomer&#39;s Slaughterhouse and Daycare Centre, Bone Meal, Auog theft)</title>
<path fill="none" stroke="black" stroke-width="0.66" d="M731.73,-588.15C669.72,-652.05 459.22,-868.92 386.76,-943.57"/>
<polygon fill="black" stroke="black" stroke-width="0.66" points="384.25,-941.14 379.8,-950.75 389.27,-946.01 384.25,-941.14"/>
<text text-anchor="middle" x="515.25" y="-769.66" font-family="Times,serif" font-size="14.00">solder*8320</text>
</g>
<!-- 0,10 (item=meat Meat) -->
<g id="node7" class="node">
<title>0,10 (item=meat Meat)</title>
<ellipse fill="none" stroke="black" cx="204.06" cy="-461.51" rx="120.48" ry="18"/>
<text text-anchor="middle" x="204.06" y="-457.81" font-family="Times,serif" font-size="14.00">0,10 (item=meat Meat)</text>
</g>
<!-- &#45;3,2 (Lead and Solder)&#45;&gt;0,10 (item=meat Meat) -->
<g id="edge6" class="edge">
<title>&#45;3,2 (Lead and Solder)&#45;&gt;0,10 (item=meat Meat)</title>
<path fill="none" stroke="black" stroke-width="0.33" d="M678.42,-556.14C577.68,-536.04 393.25,-499.25 286.46,-477.94"/>
<polygon fill="black" stroke="black" stroke-width="0.33" points="286.86,-474.46 276.37,-475.93 285.49,-481.32 286.86,-474.46"/>
<text text-anchor="middle" x="438.44" y="-520.84" font-family="Times,serif" font-size="14.00">solder*4160</text>
</g>
<!-- &#45;4,1 (item=ulric Ulrics) -->
<g id="node8" class="node">
<title>&#45;4,1 (item=ulric Ulrics)</title>
<ellipse fill="none" stroke="black" cx="344.58" cy="-189.11" rx="118.08" ry="18"/>
<text text-anchor="middle" x="344.58" y="-185.41" font-family="Times,serif" font-size="14.00">&#45;4,1 (item=ulric Ulrics)</text>
</g>
<!-- &#45;3,2 (Lead and Solder)&#45;&gt;&#45;4,1 (item=ulric Ulrics) -->
<g id="edge7" class="edge">
<title>&#45;3,2 (Lead and Solder)&#45;&gt;&#45;4,1 (item=ulric Ulrics)</title>
<path fill="none" stroke="black" stroke-width="0.49" d="M730.14,-552.37C664.45,-490.48 446.54,-285.17 370.8,-213.81"/>
<polygon fill="black" stroke="black" stroke-width="0.49" points="373.19,-211.25 363.51,-206.94 368.39,-216.35 373.19,-211.25"/>
<text text-anchor="middle" x="506.47" y="-386.89" font-family="Times,serif" font-size="14.00">solder*6160</text>
</g>
<!-- &#45;1,6 (Flimble&#39;s Slaughterhouse and Daycare Centre, Auog Products) -->
<g id="node9" class="node">
<title>&#45;1,6 (Flimble&#39;s Slaughterhouse and Daycare Centre, Auog Products)</title>
<ellipse fill="none" stroke="black" cx="811.83" cy="-18" rx="325.74" ry="18"/>
<text text-anchor="middle" x="811.83" y="-14.3" font-family="Times,serif" font-size="14.00">&#45;1,6 (Flimble&#39;s Slaughterhouse and Daycare Centre, Auog Products)</text>
</g>
<!-- &#45;3,2 (Lead and Solder)&#45;&gt;&#45;1,6 (Flimble&#39;s Slaughterhouse and Daycare Centre, Auog Products) -->
<g id="edge8" class="edge">
<title>&#45;3,2 (Lead and Solder)&#45;&gt;&#45;1,6 (Flimble&#39;s Slaughterhouse and Daycare Centre, Auog Products)</title>
<path fill="none" stroke="black" stroke-width="0.79" d="M751.16,-552.18C760.31,-471.64 797.41,-144.9 808.61,-46.3"/>
<polygon fill="black" stroke="black" stroke-width="0.79" points="812.11,-46.53 809.76,-36.2 805.15,-45.74 812.11,-46.53"/>
<text text-anchor="middle" x="731.39" y="-303.04" font-family="Times,serif" font-size="14.00">solder*10080</text>
</g>
<!-- &#45;9,&#45;10 (Bedding and cages) -->
<g id="node10" class="node">
<title>&#45;9,&#45;10 (Bedding and cages)</title>
<ellipse fill="none" stroke="black" cx="1236.8" cy="-303.66" rx="134.58" ry="18"/>
<text text-anchor="middle" x="1236.8" y="-299.96" font-family="Times,serif" font-size="14.00">&#45;9,&#45;10 (Bedding and cages)</text>
</g>
<!-- &#45;3,2 (Lead and Solder)&#45;&gt;&#45;9,&#45;10 (Bedding and cages) -->
<g id="edge9" class="edge">
<title>&#45;3,2 (Lead and Solder)&#45;&gt;&#45;9,&#45;10 (Bedding and cages)</title>
<path fill="none" stroke="black" stroke-width="1.97" d="M781.11,-552.75C866.63,-506.01 1100.44,-378.2 1195.65,-326.16"/>
<polygon fill="black" stroke="black" stroke-width="1.97" points="1197.59,-329.09 1204.69,-321.22 1194.23,-322.94 1197.59,-329.09"/>
<text text-anchor="middle" x="939.88" y="-443.26" font-family="Times,serif" font-size="14.00">solder*25040</text>
</g>
</g>
</svg>
