<?xml version="1.0" encoding="UTF-8" standalone="no"?>
<!DOCTYPE svg PUBLIC "-//W3C//DTD SVG 1.1//EN"
 "http://www.w3.org/Graphics/SVG/1.1/DTD/svg11.dtd">
<!-- Generated by graphviz version 2.43.0 (0)
 -->
<!-- Title: %3 Pages: 1 -->
<svg width="954pt" height="865pt"
 viewBox="0.00 0.00 953.51 864.56" xmlns="http://www.w3.org/2000/svg" xmlns:xlink="http://www.w3.org/1999/xlink">
<g id="graph0" class="graph" transform="scale(1 1) rotate(0) translate(4 860.56)">
<title>%3</title>
<polygon fill="white" stroke="transparent" points="-4,4 -4,-860.56 949.51,-860.56 949.51,4 -4,4"/>
<!-- 4,13 (Chromium processing) -->
<g id="node1" class="node">
<title>4,13 (Chromium processing)</title>
<ellipse fill="none" stroke="black" cx="469.25" cy="-428.97" rx="142.97" ry="18"/>
<text text-anchor="middle" x="469.25" y="-425.27" font-family="Times,serif" font-size="14.00">4,13 (Chromium processing)</text>
</g>
<!-- 4,&#45;1 (Fluid) -->
<g id="node2" class="node">
<title>4,&#45;1 (Fluid)</title>
<ellipse fill="none" stroke="black" cx="883.77" cy="-428.97" rx="61.99" ry="18"/>
<text text-anchor="middle" x="883.77" y="-425.27" font-family="Times,serif" font-size="14.00">4,&#45;1 (Fluid)</text>
</g>
<!-- 4,13 (Chromium processing)&#45;&gt;4,&#45;1 (Fluid) -->
<g id="edge1" class="edge">
<title>4,13 (Chromium processing)&#45;&gt;4,&#45;1 (Fluid)</title>
<path fill="none" stroke="black" stroke-width="0.51" d="M612.48,-428.97C679.65,-428.97 756.76,-428.97 811.56,-428.97"/>
<polygon fill="black" stroke="black" stroke-width="0.51" points="811.87,-432.47 821.87,-428.97 811.87,-425.47 811.87,-432.47"/>
<text text-anchor="middle" x="743.02" y="-417.77" font-family="Times,serif" font-size="14.00">chromium*22080</text>
</g>
<!-- 2,&#45;1 (Ammonia) -->
<g id="node3" class="node">
<title>2,&#45;1 (Ammonia)</title>
<ellipse fill="none" stroke="black" cx="533.01" cy="-838.56" rx="81.49" ry="18"/>
<text text-anchor="middle" x="533.01" y="-834.86" font-family="Times,serif" font-size="14.00">2,&#45;1 (Ammonia)</text>
</g>
<!-- 4,13 (Chromium processing)&#45;&gt;2,&#45;1 (Ammonia) -->
<g id="edge2" class="edge">
<title>4,13 (Chromium processing)&#45;&gt;2,&#45;1 (Ammonia)</title>
<path fill="none" stroke="black" stroke-width="1.27" d="M472.07,-447.1C482.13,-511.72 516.29,-731.11 528.57,-810.01"/>
<polygon fill="black" stroke="black" stroke-width="1.27" points="525.16,-810.83 530.15,-820.17 532.07,-809.76 525.16,-810.83"/>
<text text-anchor="middle" x="438.32" y="-632.35" font-family="Times,serif" font-size="14.00">chromium*55600</text>
</g>
<!-- 0,0 (LE BUS) -->
<g id="node4" class="node">
<title>0,0 (LE BUS)</title>
<ellipse fill="none" stroke="black" cx="71.49" cy="-545.66" rx="71.49" ry="18"/>
<text text-anchor="middle" x="71.49" y="-541.96" font-family="Times,serif" font-size="14.00">0,0 (LE BUS)</text>
</g>
<!-- 4,13 (Chromium processing)&#45;&gt;0,0 (LE BUS) -->
<g id="edge3" class="edge">
<title>4,13 (Chromium processing)&#45;&gt;0,0 (LE BUS)</title>
<path fill="none" stroke="black" stroke-width="1.76" d="M412.68,-445.57C337.04,-467.76 203.73,-506.87 128.08,-529.06"/>
<polygon fill="black" stroke="black" stroke-width="1.76" points="126.86,-525.77 118.25,-531.95 128.83,-532.49 126.86,-525.77"/>
<text text-anchor="middle" x="208.38" y="-491.11" font-family="Times,serif" font-size="14.00">chromium*77120</text>
</g>
<!-- 4,6 (Circuit substrate and Doped silicon) -->
<g id="node5" class="node">
<title>4,6 (Circuit substrate and Doped silicon)</title>
<ellipse fill="none" stroke="black" cx="415.13" cy="-18" rx="199.56" ry="18"/>
<text text-anchor="middle" x="415.13" y="-14.3" font-family="Times,serif" font-size="14.00">4,6 (Circuit substrate and Doped silicon)</text>
</g>
<!-- 4,13 (Chromium processing)&#45;&gt;4,6 (Circuit substrate and Doped silicon) -->
<g id="edge4" class="edge">
<title>4,13 (Chromium processing)&#45;&gt;4,6 (Circuit substrate and Doped silicon)</title>
<path fill="none" stroke="black" stroke-width="0.46" d="M466.85,-410.78C458.32,-345.95 429.33,-125.81 418.91,-46.65"/>
<polygon fill="black" stroke="black" stroke-width="0.46" points="422.34,-45.9 417.56,-36.45 415.4,-46.82 422.34,-45.9"/>
<text text-anchor="middle" x="380.88" y="-232.52" font-family="Times,serif" font-size="14.00">chromium*20000</text>
</g>
</g>
</svg>
