<?xml version="1.0" encoding="UTF-8" standalone="no"?>
<!DOCTYPE svg PUBLIC "-//W3C//DTD SVG 1.1//EN"
 "http://www.w3.org/Graphics/SVG/1.1/DTD/svg11.dtd">
<!-- Generated by graphviz version 2.43.0 (0)
 -->
<!-- Title: %3 Pages: 1 -->
<svg width="1087pt" height="745pt"
 viewBox="0.00 0.00 1087.29 744.63" xmlns="http://www.w3.org/2000/svg" xmlns:xlink="http://www.w3.org/1999/xlink">
<g id="graph0" class="graph" transform="scale(1 1) rotate(0) translate(4 740.63)">
<title>%3</title>
<polygon fill="white" stroke="transparent" points="-4,4 -4,-740.63 1083.29,-740.63 1083.29,4 -4,4"/>
<!-- 2,8 (Graphite) -->
<g id="node1" class="node">
<title>2,8 (Graphite)</title>
<ellipse fill="none" stroke="black" cx="513.34" cy="-402.87" rx="76.09" ry="18"/>
<text text-anchor="middle" x="513.34" y="-399.17" font-family="Times,serif" font-size="14.00">2,8 (Graphite)</text>
</g>
<!-- 2,&#45;2 (Tin Plate, Organic Solvent) -->
<g id="node2" class="node">
<title>2,&#45;2 (Tin Plate, Organic Solvent)</title>
<ellipse fill="none" stroke="black" cx="919.41" cy="-402.87" rx="159.77" ry="18"/>
<text text-anchor="middle" x="919.41" y="-399.17" font-family="Times,serif" font-size="14.00">2,&#45;2 (Tin Plate, Organic Solvent)</text>
</g>
<!-- 2,8 (Graphite)&#45;&gt;2,&#45;2 (Tin Plate, Organic Solvent) -->
<g id="edge1" class="edge">
<title>2,8 (Graphite)&#45;&gt;2,&#45;2 (Tin Plate, Organic Solvent)</title>
<path fill="none" stroke="black" stroke-width="1.48" d="M589.72,-402.87C634.7,-402.87 693.5,-402.87 748.97,-402.87"/>
<polygon fill="black" stroke="black" stroke-width="1.48" points="749.28,-406.37 759.28,-402.87 749.28,-399.37 749.28,-406.37"/>
<text text-anchor="middle" x="697.59" y="-391.67" font-family="Times,serif" font-size="14.00">graphite*44768</text>
</g>
<!-- &#45;4,&#45;4 (Reserved For Aluminium Ore Drop, Aluminium) -->
<g id="node3" class="node">
<title>&#45;4,&#45;4 (Reserved For Aluminium Ore Drop, Aluminium)</title>
<ellipse fill="none" stroke="black" cx="258.03" cy="-718.63" rx="258.05" ry="18"/>
<text text-anchor="middle" x="258.03" y="-714.93" font-family="Times,serif" font-size="14.00">&#45;4,&#45;4 (Reserved For Aluminium Ore Drop, Aluminium)</text>
</g>
<!-- 2,8 (Graphite)&#45;&gt;&#45;4,&#45;4 (Reserved For Aluminium Ore Drop, Aluminium) -->
<g id="edge2" class="edge">
<title>2,8 (Graphite)&#45;&gt;&#45;4,&#45;4 (Reserved For Aluminium Ore Drop, Aluminium)</title>
<path fill="none" stroke="black" stroke-width="1.39" d="M498.88,-420.75C455.97,-473.81 329.24,-630.56 278.94,-692.77"/>
<polygon fill="black" stroke="black" stroke-width="1.39" points="276.21,-690.58 272.64,-700.56 281.65,-694.98 276.21,-690.58"/>
<text text-anchor="middle" x="332.41" y="-560.56" font-family="Times,serif" font-size="14.00">graphite*42144</text>
</g>
<!-- &#45;3,2 (Lead and Solder) -->
<g id="node4" class="node">
<title>&#45;3,2 (Lead and Solder)</title>
<ellipse fill="none" stroke="black" cx="383.83" cy="-18" rx="113.98" ry="18"/>
<text text-anchor="middle" x="383.83" y="-14.3" font-family="Times,serif" font-size="14.00">&#45;3,2 (Lead and Solder)</text>
</g>
<!-- 2,8 (Graphite)&#45;&gt;&#45;3,2 (Lead and Solder) -->
<g id="edge3" class="edge">
<title>2,8 (Graphite)&#45;&gt;&#45;3,2 (Lead and Solder)</title>
<path fill="none" stroke="black" stroke-width="0.13" d="M507.26,-384.82C486.49,-323.08 418.16,-120.01 393.12,-45.62"/>
<polygon fill="black" stroke="black" stroke-width="0.13" points="396.4,-44.37 389.89,-36.01 389.76,-46.6 396.4,-44.37"/>
<text text-anchor="middle" x="398.19" y="-219.02" font-family="Times,serif" font-size="14.00">graphite*4032</text>
</g>
</g>
</svg>
