<?xml version="1.0" encoding="UTF-8" standalone="no"?>
<!DOCTYPE svg PUBLIC "-//W3C//DTD SVG 1.1//EN"
 "http://www.w3.org/Graphics/SVG/1.1/DTD/svg11.dtd">
<!-- Generated by graphviz version 2.43.0 (0)
 -->
<!-- Title: %3 Pages: 1 -->
<svg width="1286pt" height="44pt"
 viewBox="0.00 0.00 1286.40 44.00" xmlns="http://www.w3.org/2000/svg" xmlns:xlink="http://www.w3.org/1999/xlink">
<g id="graph0" class="graph" transform="scale(1 1) rotate(0) translate(4 40)">
<title>%3</title>
<polygon fill="white" stroke="transparent" points="-4,4 -4,-40 1282.4,-40 1282.4,4 -4,4"/>
<!-- 0,7 (Coal Gas) -->
<g id="node1" class="node">
<title>0,7 (Coal Gas)</title>
<ellipse fill="none" stroke="black" cx="664.1" cy="-18" rx="76.09" ry="18"/>
<text text-anchor="middle" x="664.1" y="-14.3" font-family="Times,serif" font-size="14.00">0,7 (Coal Gas)</text>
</g>
<!-- 0,0 (LE BUS) -->
<g id="node2" class="node">
<title>0,0 (LE BUS)</title>
<ellipse fill="none" stroke="black" cx="933.43" cy="-18" rx="71.49" ry="18"/>
<text text-anchor="middle" x="933.43" y="-14.3" font-family="Times,serif" font-size="14.00">0,0 (LE BUS)</text>
</g>
<!-- 0,7 (Coal Gas)&#45;&gt;0,0 (LE BUS) -->
<g id="edge1" class="edge">
<title>0,7 (Coal Gas)&#45;&gt;0,0 (LE BUS)</title>
<path fill="none" stroke="black" stroke-width="2.8" d="M740.2,-18C774.88,-18 816.01,-18 851.38,-18"/>
<polygon fill="black" stroke="black" stroke-width="2.8" points="851.68,-21.5 861.68,-18 851.68,-14.5 851.68,-21.5"/>
<text text-anchor="middle" x="795.79" y="-6.8" font-family="Times,serif" font-size="14.00">coal&#45;gas&#45;barrel*243136</text>
</g>
<!-- &#45;4,&#45;4 (Reserved For Aluminium Ore Drop, Aluminium) -->
<g id="node3" class="node">
<title>&#45;4,&#45;4 (Reserved For Aluminium Ore Drop, Aluminium)</title>
<ellipse fill="none" stroke="black" cx="258.03" cy="-18" rx="258.05" ry="18"/>
<text text-anchor="middle" x="258.03" y="-14.3" font-family="Times,serif" font-size="14.00">&#45;4,&#45;4 (Reserved For Aluminium Ore Drop, Aluminium)</text>
</g>
<!-- 0,7 (Coal Gas)&#45;&gt;&#45;4,&#45;4 (Reserved For Aluminium Ore Drop, Aluminium) -->
<g id="edge2" class="edge">
<title>0,7 (Coal Gas)&#45;&gt;&#45;4,&#45;4 (Reserved For Aluminium Ore Drop, Aluminium)</title>
<path fill="none" stroke="black" stroke-width="0.16" d="M587.72,-18C569.19,-18 548.32,-18 526.3,-18"/>
<polygon fill="black" stroke="black" stroke-width="0.16" points="526.11,-14.5 516.11,-18 526.11,-21.5 526.11,-14.5"/>
<text text-anchor="middle" x="517.51" y="-6.8" font-family="Times,serif" font-size="14.00">coal&#45;gas&#45;barrel*14089</text>
</g>
<!-- 0,8 (Tar from Coke) -->
<g id="node4" class="node">
<title>0,8 (Tar from Coke)</title>
<ellipse fill="none" stroke="black" cx="1177.66" cy="-18" rx="100.98" ry="18"/>
<text text-anchor="middle" x="1177.66" y="-14.3" font-family="Times,serif" font-size="14.00">0,8 (Tar from Coke)</text>
</g>
<!-- 0,8 (Tar from Coke)&#45;&gt;0,0 (LE BUS) -->
<g id="edge3" class="edge">
<title>0,8 (Tar from Coke)&#45;&gt;0,0 (LE BUS)</title>
<path fill="none" stroke="black" stroke-width="0.04" d="M1076.91,-18C1056.43,-18 1035.13,-18 1015.4,-18"/>
<polygon fill="black" stroke="black" stroke-width="0.04" points="1015.24,-14.5 1005.24,-18 1015.24,-21.5 1015.24,-14.5"/>
<text text-anchor="middle" x="1008.91" y="-6.8" font-family="Times,serif" font-size="14.00">coal&#45;gas&#45;barrel*3232</text>
</g>
</g>
</svg>
