<?xml version="1.0" encoding="UTF-8" standalone="no"?>
<!DOCTYPE svg PUBLIC "-//W3C//DTD SVG 1.1//EN"
 "http://www.w3.org/Graphics/SVG/1.1/DTD/svg11.dtd">
<!-- Generated by graphviz version 2.43.0 (0)
 -->
<!-- Title: %3 Pages: 1 -->
<svg width="907pt" height="650pt"
 viewBox="0.00 0.00 907.12 650.38" xmlns="http://www.w3.org/2000/svg" xmlns:xlink="http://www.w3.org/1999/xlink">
<g id="graph0" class="graph" transform="scale(1 1) rotate(0) translate(4 646.38)">
<title>%3</title>
<polygon fill="white" stroke="transparent" points="-4,4 -4,-646.38 903.12,-646.38 903.12,4 -4,4"/>
<!-- 5,8 (Ulric Food) -->
<g id="node1" class="node">
<title>5,8 (Ulric Food)</title>
<ellipse fill="none" stroke="black" cx="388.41" cy="-333.69" rx="83.39" ry="18"/>
<text text-anchor="middle" x="388.41" y="-329.99" font-family="Times,serif" font-size="14.00">5,8 (Ulric Food)</text>
</g>
<!-- &#45;1,11 (Steel Plate (from molten)) -->
<g id="node2" class="node">
<title>&#45;1,11 (Steel Plate (from molten))</title>
<ellipse fill="none" stroke="black" cx="737.94" cy="-333.69" rx="161.37" ry="18"/>
<text text-anchor="middle" x="737.94" y="-329.99" font-family="Times,serif" font-size="14.00">&#45;1,11 (Steel Plate (from molten))</text>
</g>
<!-- 5,8 (Ulric Food)&#45;&gt;&#45;1,11 (Steel Plate (from molten)) -->
<g id="edge1" class="edge">
<title>5,8 (Ulric Food)&#45;&gt;&#45;1,11 (Steel Plate (from molten))</title>
<path fill="none" stroke="black" stroke-width="2.28" d="M471.69,-333.69C500.23,-333.69 533.32,-333.69 566.25,-333.69"/>
<polygon fill="black" stroke="black" stroke-width="2.28" points="566.46,-337.19 576.46,-333.69 566.46,-330.19 566.46,-337.19"/>
<text text-anchor="middle" x="518.97" y="-322.49" font-family="Times,serif" font-size="14.00">sand&#45;casting*20080</text>
</g>
<!-- 4,3 (item=nexelit&#45;plate Nexelit platery) -->
<g id="node3" class="node">
<title>4,3 (item=nexelit&#45;plate Nexelit platery)</title>
<ellipse fill="none" stroke="black" cx="194.33" cy="-624.38" rx="194.17" ry="18"/>
<text text-anchor="middle" x="194.33" y="-620.68" font-family="Times,serif" font-size="14.00">4,3 (item=nexelit&#45;plate Nexelit platery)</text>
</g>
<!-- 5,8 (Ulric Food)&#45;&gt;4,3 (item=nexelit&#45;plate Nexelit platery) -->
<g id="edge2" class="edge">
<title>5,8 (Ulric Food)&#45;&gt;4,3 (item=nexelit&#45;plate Nexelit platery)</title>
<path fill="none" stroke="black" stroke-width="0.23" d="M376.27,-351.87C343.12,-401.53 250.94,-539.6 212.02,-597.88"/>
<polygon fill="black" stroke="black" stroke-width="0.23" points="209.11,-595.94 206.47,-606.2 214.93,-599.83 209.11,-595.94"/>
<text text-anchor="middle" x="227.65" y="-478.68" font-family="Times,serif" font-size="14.00">sand&#45;casting*2040</text>
</g>
<!-- 3,9 (Copper, molten &amp; plate) -->
<g id="node4" class="node">
<title>3,9 (Copper, molten &amp; plate)</title>
<ellipse fill="none" stroke="black" cx="238.39" cy="-18" rx="143.77" ry="18"/>
<text text-anchor="middle" x="238.39" y="-14.3" font-family="Times,serif" font-size="14.00">3,9 (Copper, molten &amp; plate)</text>
</g>
<!-- 5,8 (Ulric Food)&#45;&gt;3,9 (Copper, molten &amp; plate) -->
<g id="edge3" class="edge">
<title>5,8 (Ulric Food)&#45;&gt;3,9 (Copper, molten &amp; plate)</title>
<path fill="none" stroke="black" stroke-width="0.49" d="M379.7,-315.35C354.47,-262.27 281.27,-108.23 251.35,-45.29"/>
<polygon fill="black" stroke="black" stroke-width="0.49" points="254.39,-43.52 246.94,-35.99 248.07,-46.53 254.39,-43.52"/>
<text text-anchor="middle" x="249.02" y="-184.12" font-family="Times,serif" font-size="14.00">sand&#45;casting*4320</text>
</g>
</g>
</svg>
