<?xml version="1.0" encoding="UTF-8" standalone="no"?>
<!DOCTYPE svg PUBLIC "-//W3C//DTD SVG 1.1//EN"
 "http://www.w3.org/Graphics/SVG/1.1/DTD/svg11.dtd">
<!-- Generated by graphviz version 2.43.0 (0)
 -->
<!-- Title: %3 Pages: 1 -->
<svg width="1118pt" height="44pt"
 viewBox="0.00 0.00 1117.81 44.00" xmlns="http://www.w3.org/2000/svg" xmlns:xlink="http://www.w3.org/1999/xlink">
<g id="graph0" class="graph" transform="scale(1 1) rotate(0) translate(4 40)">
<title>%3</title>
<polygon fill="white" stroke="transparent" points="-4,4 -4,-40 1113.81,-40 1113.81,4 -4,4"/>
<!-- 4,13 (Chromium processing) -->
<g id="node1" class="node">
<title>4,13 (Chromium processing)</title>
<ellipse fill="none" stroke="black" cx="614.05" cy="-18" rx="142.97" ry="18"/>
<text text-anchor="middle" x="614.05" y="-14.3" font-family="Times,serif" font-size="14.00">4,13 (Chromium processing)</text>
</g>
<!-- 2,&#45;1 (Ammonia) -->
<g id="node2" class="node">
<title>2,&#45;1 (Ammonia)</title>
<ellipse fill="none" stroke="black" cx="1028.57" cy="-18" rx="81.49" ry="18"/>
<text text-anchor="middle" x="1028.57" y="-14.3" font-family="Times,serif" font-size="14.00">2,&#45;1 (Ammonia)</text>
</g>
<!-- 4,13 (Chromium processing)&#45;&gt;2,&#45;1 (Ammonia) -->
<g id="edge1" class="edge">
<title>4,13 (Chromium processing)&#45;&gt;2,&#45;1 (Ammonia)</title>
<path fill="none" stroke="black" stroke-width="0.76" d="M757.29,-18C816.97,-18 884.52,-18 937.28,-18"/>
<polygon fill="black" stroke="black" stroke-width="0.76" points="937.29,-21.5 947.29,-18 937.29,-14.5 937.29,-21.5"/>
<text text-anchor="middle" x="876.03" y="-6.8" font-family="Times,serif" font-size="14.00">chromium*6160</text>
</g>
<!-- 4,6 (Circuit substrate and Doped silicon) -->
<g id="node3" class="node">
<title>4,6 (Circuit substrate and Doped silicon)</title>
<ellipse fill="none" stroke="black" cx="199.53" cy="-18" rx="199.56" ry="18"/>
<text text-anchor="middle" x="199.53" y="-14.3" font-family="Times,serif" font-size="14.00">4,6 (Circuit substrate and Doped silicon)</text>
</g>
<!-- 4,13 (Chromium processing)&#45;&gt;4,6 (Circuit substrate and Doped silicon) -->
<g id="edge2" class="edge">
<title>4,13 (Chromium processing)&#45;&gt;4,6 (Circuit substrate and Doped silicon)</title>
<path fill="none" stroke="black" stroke-width="1.24" d="M470.82,-18C450.91,-18 430.12,-18 409.31,-18"/>
<polygon fill="black" stroke="black" stroke-width="1.24" points="409.09,-14.5 399.09,-18 409.09,-21.5 409.09,-14.5"/>
<text text-anchor="middle" x="409.06" y="-6.8" font-family="Times,serif" font-size="14.00">chromium*10000</text>
</g>
</g>
</svg>
