<?xml version="1.0" encoding="UTF-8" standalone="no"?>
<!DOCTYPE svg PUBLIC "-//W3C//DTD SVG 1.1//EN"
 "http://www.w3.org/Graphics/SVG/1.1/DTD/svg11.dtd">
<!-- Generated by graphviz version 2.43.0 (0)
 -->
<!-- Title: %3 Pages: 1 -->
<svg width="916pt" height="44pt"
 viewBox="0.00 0.00 916.33 44.00" xmlns="http://www.w3.org/2000/svg" xmlns:xlink="http://www.w3.org/1999/xlink">
<g id="graph0" class="graph" transform="scale(1 1) rotate(0) translate(4 40)">
<title>%3</title>
<polygon fill="white" stroke="transparent" points="-4,4 -4,-40 912.33,-40 912.33,4 -4,4"/>
<!-- 2,10 (Nickel plate) -->
<g id="node1" class="node">
<title>2,10 (Nickel plate)</title>
<ellipse fill="none" stroke="black" cx="96.84" cy="-18" rx="96.68" ry="18"/>
<text text-anchor="middle" x="96.84" y="-14.3" font-family="Times,serif" font-size="14.00">2,10 (Nickel plate)</text>
</g>
<!-- 0,0 (LE BUS) -->
<g id="node2" class="node">
<title>0,0 (LE BUS)</title>
<ellipse fill="none" stroke="black" cx="337.18" cy="-18" rx="71.49" ry="18"/>
<text text-anchor="middle" x="337.18" y="-14.3" font-family="Times,serif" font-size="14.00">0,0 (LE BUS)</text>
</g>
<!-- 2,10 (Nickel plate)&#45;&gt;0,0 (LE BUS) -->
<g id="edge1" class="edge">
<title>2,10 (Nickel plate)&#45;&gt;0,0 (LE BUS)</title>
<path fill="none" stroke="black" stroke-width="0.65" d="M193.9,-18C214.31,-18 235.65,-18 255.44,-18"/>
<polygon fill="black" stroke="black" stroke-width="0.65" points="255.63,-21.5 265.63,-18 255.63,-14.5 255.63,-21.5"/>
<text text-anchor="middle" x="224.67" y="-6.8" font-family="Times,serif" font-size="14.00">sand*6112</text>
</g>
<!-- &#45;3,&#45;3 (Zinc Plates, 32 to consume four belts) -->
<g id="node3" class="node">
<title>&#45;3,&#45;3 (Zinc Plates, 32 to consume four belts)</title>
<ellipse fill="none" stroke="black" cx="694.5" cy="-18" rx="213.66" ry="18"/>
<text text-anchor="middle" x="694.5" y="-14.3" font-family="Times,serif" font-size="14.00">&#45;3,&#45;3 (Zinc Plates, 32 to consume four belts)</text>
</g>
<!-- &#45;3,&#45;3 (Zinc Plates, 32 to consume four belts)&#45;&gt;0,0 (LE BUS) -->
<g id="edge2" class="edge">
<title>&#45;3,&#45;3 (Zinc Plates, 32 to consume four belts)&#45;&gt;0,0 (LE BUS)</title>
<path fill="none" stroke="black" stroke-width="1.35" d="M480.46,-18C458.88,-18 438.03,-18 419.22,-18"/>
<polygon fill="black" stroke="black" stroke-width="1.35" points="418.99,-14.5 408.99,-18 418.99,-21.5 418.99,-14.5"/>
<text text-anchor="middle" x="428.34" y="-6.8" font-family="Times,serif" font-size="14.00">sand*12576</text>
</g>
</g>
</svg>
