<?xml version="1.0" encoding="UTF-8" standalone="no"?>
<!DOCTYPE svg PUBLIC "-//W3C//DTD SVG 1.1//EN"
 "http://www.w3.org/Graphics/SVG/1.1/DTD/svg11.dtd">
<!-- Generated by graphviz version 2.43.0 (0)
 -->
<!-- Title: %3 Pages: 1 -->
<svg width="738pt" height="44pt"
 viewBox="0.00 0.00 738.25 44.00" xmlns="http://www.w3.org/2000/svg" xmlns:xlink="http://www.w3.org/1999/xlink">
<g id="graph0" class="graph" transform="scale(1 1) rotate(0) translate(4 40)">
<title>%3</title>
<polygon fill="white" stroke="transparent" points="-4,4 -4,-40 734.25,-40 734.25,4 -4,4"/>
<!-- 0,0 (LE BUS) -->
<g id="node1" class="node">
<title>0,0 (LE BUS)</title>
<ellipse fill="none" stroke="black" cx="342.38" cy="-18" rx="71.49" ry="18"/>
<text text-anchor="middle" x="342.38" y="-14.3" font-family="Times,serif" font-size="14.00">0,0 (LE BUS)</text>
</g>
<!-- 3,5 (Molybdenum plate) -->
<g id="node2" class="node">
<title>3,5 (Molybdenum plate)</title>
<ellipse fill="none" stroke="black" cx="608.06" cy="-18" rx="122.38" ry="18"/>
<text text-anchor="middle" x="608.06" y="-14.3" font-family="Times,serif" font-size="14.00">3,5 (Molybdenum plate)</text>
</g>
<!-- 0,0 (LE BUS)&#45;&gt;3,5 (Molybdenum plate) -->
<g id="edge1" class="edge">
<title>0,0 (LE BUS)&#45;&gt;3,5 (Molybdenum plate)</title>
<path fill="none" stroke="black" stroke-width="1.95" d="M413.92,-18C433.03,-18 454.3,-18 475.56,-18"/>
<polygon fill="black" stroke="black" stroke-width="1.95" points="475.66,-21.5 485.65,-18 475.65,-14.5 475.66,-21.5"/>
<text text-anchor="middle" x="444.74" y="-6.8" font-family="Times,serif" font-size="14.00">molybdenum&#45;ore*1011840</text>
</g>
<!-- 4,&#45;2 (Ceramic) -->
<g id="node3" class="node">
<title>4,&#45;2 (Ceramic)</title>
<ellipse fill="none" stroke="black" cx="76.69" cy="-18" rx="76.89" ry="18"/>
<text text-anchor="middle" x="76.69" y="-14.3" font-family="Times,serif" font-size="14.00">4,&#45;2 (Ceramic)</text>
</g>
<!-- 0,0 (LE BUS)&#45;&gt;4,&#45;2 (Ceramic) -->
<g id="edge2" class="edge">
<title>0,0 (LE BUS)&#45;&gt;4,&#45;2 (Ceramic)</title>
<path fill="none" stroke="black" stroke-width="0.05" d="M270.83,-18C237.82,-18 198.33,-18 163.62,-18"/>
<polygon fill="black" stroke="black" stroke-width="0.05" points="163.49,-14.5 153.49,-18 163.49,-21.5 163.49,-14.5"/>
<text text-anchor="middle" x="174.23" y="-6.8" font-family="Times,serif" font-size="14.00">molybdenum&#45;ore*25040</text>
</g>
</g>
</svg>
