<?xml version="1.0" encoding="UTF-8" standalone="no"?>
<!DOCTYPE svg PUBLIC "-//W3C//DTD SVG 1.1//EN"
 "http://www.w3.org/Graphics/SVG/1.1/DTD/svg11.dtd">
<!-- Generated by graphviz version 2.43.0 (0)
 -->
<!-- Title: %3 Pages: 1 -->
<svg width="703pt" height="44pt"
 viewBox="0.00 0.00 703.15 44.00" xmlns="http://www.w3.org/2000/svg" xmlns:xlink="http://www.w3.org/1999/xlink">
<g id="graph0" class="graph" transform="scale(1 1) rotate(0) translate(4 40)">
<title>%3</title>
<polygon fill="white" stroke="transparent" points="-4,4 -4,-40 699.15,-40 699.15,4 -4,4"/>
<!-- 0,9 (Auog Brains) -->
<g id="node1" class="node">
<title>0,9 (Auog Brains)</title>
<ellipse fill="none" stroke="black" cx="361.22" cy="-18" rx="91.78" ry="18"/>
<text text-anchor="middle" x="361.22" y="-14.3" font-family="Times,serif" font-size="14.00">0,9 (Auog Brains)</text>
</g>
<!-- 0,0 (LE BUS) -->
<g id="node2" class="node">
<title>0,0 (LE BUS)</title>
<ellipse fill="none" stroke="black" cx="623.66" cy="-18" rx="71.49" ry="18"/>
<text text-anchor="middle" x="623.66" y="-14.3" font-family="Times,serif" font-size="14.00">0,0 (LE BUS)</text>
</g>
<!-- 0,9 (Auog Brains)&#45;&gt;0,0 (LE BUS) -->
<g id="edge1" class="edge">
<title>0,9 (Auog Brains)&#45;&gt;0,0 (LE BUS)</title>
<path fill="none" stroke="black" d="M453.01,-18C481.84,-18 513.47,-18 541.58,-18"/>
<polygon fill="black" stroke="black" points="541.77,-21.5 551.77,-18 541.77,-14.5 541.77,-21.5"/>
<text text-anchor="middle" x="497.3" y="-6.8" font-family="Times,serif" font-size="14.00">brain*2016</text>
</g>
<!-- &#45;4,&#45;2 (For Science!) -->
<g id="node3" class="node">
<title>&#45;4,&#45;2 (For Science!)</title>
<ellipse fill="none" stroke="black" cx="98.79" cy="-18" rx="98.58" ry="18"/>
<text text-anchor="middle" x="98.79" y="-14.3" font-family="Times,serif" font-size="14.00">&#45;4,&#45;2 (For Science!)</text>
</g>
<!-- 0,9 (Auog Brains)&#45;&gt;&#45;4,&#45;2 (For Science!) -->
<g id="edge2" class="edge">
<title>0,9 (Auog Brains)&#45;&gt;&#45;4,&#45;2 (For Science!)</title>
<path fill="none" stroke="black" d="M269.44,-18C249.5,-18 228.21,-18 207.68,-18"/>
<polygon fill="black" stroke="black" points="207.67,-14.5 197.67,-18 207.67,-21.5 207.67,-14.5"/>
<text text-anchor="middle" x="238.56" y="-6.8" font-family="Times,serif" font-size="14.00">brain*2016</text>
</g>
</g>
</svg>
