<?xml version="1.0" encoding="UTF-8" standalone="no"?>
<!DOCTYPE svg PUBLIC "-//W3C//DTD SVG 1.1//EN"
 "http://www.w3.org/Graphics/SVG/1.1/DTD/svg11.dtd">
<!-- Generated by graphviz version 2.43.0 (0)
 -->
<!-- Title: %3 Pages: 1 -->
<svg width="723pt" height="44pt"
 viewBox="0.00 0.00 723.30 44.00" xmlns="http://www.w3.org/2000/svg" xmlns:xlink="http://www.w3.org/1999/xlink">
<g id="graph0" class="graph" transform="scale(1 1) rotate(0) translate(4 40)">
<title>%3</title>
<polygon fill="white" stroke="transparent" points="-4,4 -4,-40 719.3,-40 719.3,4 -4,4"/>
<!-- &#45;8,&#45;11 (Fetal serum) -->
<g id="node1" class="node">
<title>&#45;8,&#45;11 (Fetal serum)</title>
<ellipse fill="none" stroke="black" cx="370.97" cy="-18" rx="102.88" ry="18"/>
<text text-anchor="middle" x="370.97" y="-14.3" font-family="Times,serif" font-size="14.00">&#45;8,&#45;11 (Fetal serum)</text>
</g>
<!-- 0,0 (LE BUS) -->
<g id="node2" class="node">
<title>0,0 (LE BUS)</title>
<ellipse fill="none" stroke="black" cx="643.81" cy="-18" rx="71.49" ry="18"/>
<text text-anchor="middle" x="643.81" y="-14.3" font-family="Times,serif" font-size="14.00">0,0 (LE BUS)</text>
</g>
<!-- &#45;8,&#45;11 (Fetal serum)&#45;&gt;0,0 (LE BUS) -->
<g id="edge1" class="edge">
<title>&#45;8,&#45;11 (Fetal serum)&#45;&gt;0,0 (LE BUS)</title>
<path fill="none" stroke="black" stroke-width="1.03" d="M473.73,-18C502.92,-18 534.31,-18 562.08,-18"/>
<polygon fill="black" stroke="black" stroke-width="1.03" points="562.13,-21.5 572.13,-18 562.13,-14.5 562.13,-21.5"/>
<text text-anchor="middle" x="517.9" y="-6.8" font-family="Times,serif" font-size="14.00">fetal&#45;serum&#45;barrel*2694</text>
</g>
<!-- &#45;9,&#45;11 (Bones mk2) -->
<g id="node3" class="node">
<title>&#45;9,&#45;11 (Bones mk2)</title>
<ellipse fill="none" stroke="black" cx="98.14" cy="-18" rx="98.28" ry="18"/>
<text text-anchor="middle" x="98.14" y="-14.3" font-family="Times,serif" font-size="14.00">&#45;9,&#45;11 (Bones mk2)</text>
</g>
<!-- &#45;8,&#45;11 (Fetal serum)&#45;&gt;&#45;9,&#45;11 (Bones mk2) -->
<g id="edge2" class="edge">
<title>&#45;8,&#45;11 (Fetal serum)&#45;&gt;&#45;9,&#45;11 (Bones mk2)</title>
<path fill="none" stroke="black" stroke-width="0.97" d="M268.22,-18C248.06,-18 226.85,-18 206.52,-18"/>
<polygon fill="black" stroke="black" stroke-width="0.97" points="206.29,-14.5 196.29,-18 206.29,-21.5 206.29,-14.5"/>
<text text-anchor="middle" x="194.12" y="-6.8" font-family="Times,serif" font-size="14.00">fetal&#45;serum&#45;barrel*2532</text>
</g>
</g>
</svg>
