<?xml version="1.0" encoding="UTF-8" standalone="no"?>
<!DOCTYPE svg PUBLIC "-//W3C//DTD SVG 1.1//EN"
 "http://www.w3.org/Graphics/SVG/1.1/DTD/svg11.dtd">
<!-- Generated by graphviz version 2.43.0 (0)
 -->
<!-- Title: %3 Pages: 1 -->
<svg width="1037pt" height="44pt"
 viewBox="0.00 0.00 1036.57 44.00" xmlns="http://www.w3.org/2000/svg" xmlns:xlink="http://www.w3.org/1999/xlink">
<g id="graph0" class="graph" transform="scale(1 1) rotate(0) translate(4 40)">
<title>%3</title>
<polygon fill="white" stroke="transparent" points="-4,4 -4,-40 1032.57,-40 1032.57,4 -4,4"/>
<!-- &#45;4,&#45;4 (Reserved For Aluminium Ore Drop, Aluminium) -->
<g id="node1" class="node">
<title>&#45;4,&#45;4 (Reserved For Aluminium Ore Drop, Aluminium)</title>
<ellipse fill="none" stroke="black" cx="499.66" cy="-18" rx="258.05" ry="18"/>
<text text-anchor="middle" x="499.66" y="-14.3" font-family="Times,serif" font-size="14.00">&#45;4,&#45;4 (Reserved For Aluminium Ore Drop, Aluminium)</text>
</g>
<!-- &#45;1,&#45;2 (Aramid fiber) -->
<g id="node2" class="node">
<title>&#45;1,&#45;2 (Aramid fiber)</title>
<ellipse fill="none" stroke="black" cx="929.13" cy="-18" rx="99.38" ry="18"/>
<text text-anchor="middle" x="929.13" y="-14.3" font-family="Times,serif" font-size="14.00">&#45;1,&#45;2 (Aramid fiber)</text>
</g>
<!-- &#45;4,&#45;4 (Reserved For Aluminium Ore Drop, Aluminium)&#45;&gt;&#45;1,&#45;2 (Aramid fiber) -->
<g id="edge1" class="edge">
<title>&#45;4,&#45;4 (Reserved For Aluminium Ore Drop, Aluminium)&#45;&gt;&#45;1,&#45;2 (Aramid fiber)</title>
<path fill="none" stroke="black" stroke-width="0.46" d="M757.85,-18C779.26,-18 800.07,-18 819.38,-18"/>
<polygon fill="black" stroke="black" stroke-width="0.46" points="819.64,-21.5 829.64,-18 819.64,-14.5 819.64,-21.5"/>
<text text-anchor="middle" x="788.62" y="-6.8" font-family="Times,serif" font-size="14.00">aluminium&#45;plate*2640</text>
</g>
<!-- &#45;2,&#45;3 (Trains) -->
<g id="node3" class="node">
<title>&#45;2,&#45;3 (Trains)</title>
<ellipse fill="none" stroke="black" cx="70.19" cy="-18" rx="70.39" ry="18"/>
<text text-anchor="middle" x="70.19" y="-14.3" font-family="Times,serif" font-size="14.00">&#45;2,&#45;3 (Trains)</text>
</g>
<!-- &#45;4,&#45;4 (Reserved For Aluminium Ore Drop, Aluminium)&#45;&gt;&#45;2,&#45;3 (Trains) -->
<g id="edge2" class="edge">
<title>&#45;4,&#45;4 (Reserved For Aluminium Ore Drop, Aluminium)&#45;&gt;&#45;2,&#45;3 (Trains)</title>
<path fill="none" stroke="black" stroke-width="1.54" d="M241.47,-18C208.66,-18 177.26,-18 150.52,-18"/>
<polygon fill="black" stroke="black" stroke-width="1.54" points="150.5,-14.5 140.5,-18 150.5,-21.5 150.5,-14.5"/>
<text text-anchor="middle" x="156" y="-6.8" font-family="Times,serif" font-size="14.00">aluminium&#45;plate*8816</text>
</g>
</g>
</svg>
