<?xml version="1.0" encoding="UTF-8" standalone="no"?>
<!DOCTYPE svg PUBLIC "-//W3C//DTD SVG 1.1//EN"
 "http://www.w3.org/Graphics/SVG/1.1/DTD/svg11.dtd">
<!-- Generated by graphviz version 2.43.0 (0)
 -->
<!-- Title: %3 Pages: 1 -->
<svg width="592pt" height="530pt"
 viewBox="0.00 0.00 591.73 530.26" xmlns="http://www.w3.org/2000/svg" xmlns:xlink="http://www.w3.org/1999/xlink">
<g id="graph0" class="graph" transform="scale(1 1) rotate(0) translate(4 526.26)">
<title>%3</title>
<polygon fill="white" stroke="transparent" points="-4,4 -4,-526.26 587.73,-526.26 587.73,4 -4,4"/>
<!-- &#45;1,&#45;2 (Aramid fiber) -->
<g id="node1" class="node">
<title>&#45;1,&#45;2 (Aramid fiber)</title>
<ellipse fill="none" stroke="black" cx="236.8" cy="-262.96" rx="99.38" ry="18"/>
<text text-anchor="middle" x="236.8" y="-259.26" font-family="Times,serif" font-size="14.00">&#45;1,&#45;2 (Aramid fiber)</text>
</g>
<!-- 0,0 (LE BUS) -->
<g id="node2" class="node">
<title>0,0 (LE BUS)</title>
<ellipse fill="none" stroke="black" cx="512.23" cy="-262.96" rx="71.49" ry="18"/>
<text text-anchor="middle" x="512.23" y="-259.26" font-family="Times,serif" font-size="14.00">0,0 (LE BUS)</text>
</g>
<!-- &#45;1,&#45;2 (Aramid fiber)&#45;&gt;0,0 (LE BUS) -->
<g id="edge1" class="edge">
<title>&#45;1,&#45;2 (Aramid fiber)&#45;&gt;0,0 (LE BUS)</title>
<path fill="none" stroke="black" stroke-width="0.77" d="M336.63,-262.96C367.34,-262.96 400.77,-262.96 430.15,-262.96"/>
<polygon fill="black" stroke="black" stroke-width="0.77" points="430.36,-266.46 440.36,-262.96 430.36,-259.46 430.36,-266.46"/>
<text text-anchor="middle" x="383.39" y="-251.76" font-family="Times,serif" font-size="14.00">aramid*6096</text>
</g>
<!-- &#45;3,9 (Silicon Wafers) -->
<g id="node3" class="node">
<title>&#45;3,9 (Silicon Wafers)</title>
<ellipse fill="none" stroke="black" cx="103.99" cy="-504.26" rx="103.98" ry="18"/>
<text text-anchor="middle" x="103.99" y="-500.56" font-family="Times,serif" font-size="14.00">&#45;3,9 (Silicon Wafers)</text>
</g>
<!-- &#45;1,&#45;2 (Aramid fiber)&#45;&gt;&#45;3,9 (Silicon Wafers) -->
<g id="edge2" class="edge">
<title>&#45;1,&#45;2 (Aramid fiber)&#45;&gt;&#45;3,9 (Silicon Wafers)</title>
<path fill="none" stroke="black" stroke-width="0.96" d="M226.82,-281.1C203.64,-323.21 146.07,-427.8 118.79,-477.37"/>
<polygon fill="black" stroke="black" stroke-width="0.96" points="115.66,-475.79 113.91,-486.24 121.8,-479.17 115.66,-475.79"/>
<text text-anchor="middle" x="125.8" y="-383.03" font-family="Times,serif" font-size="14.00">aramid*7616</text>
</g>
<!-- &#45;5,2 (Optical fiber) -->
<g id="node4" class="node">
<title>&#45;5,2 (Optical fiber)</title>
<ellipse fill="none" stroke="black" cx="110.88" cy="-18" rx="96.38" ry="18"/>
<text text-anchor="middle" x="110.88" y="-14.3" font-family="Times,serif" font-size="14.00">&#45;5,2 (Optical fiber)</text>
</g>
<!-- &#45;1,&#45;2 (Aramid fiber)&#45;&gt;&#45;5,2 (Optical fiber) -->
<g id="edge3" class="edge">
<title>&#45;1,&#45;2 (Aramid fiber)&#45;&gt;&#45;5,2 (Optical fiber)</title>
<path fill="none" stroke="black" stroke-width="1.27" d="M227.54,-244.95C205.66,-202.39 150.68,-95.42 124.78,-45.04"/>
<polygon fill="black" stroke="black" stroke-width="1.27" points="127.83,-43.33 120.15,-36.04 121.61,-46.53 127.83,-43.33"/>
<text text-anchor="middle" x="124.66" y="-148.8" font-family="Times,serif" font-size="14.00">aramid*10064</text>
</g>
</g>
</svg>
