<?xml version="1.0" encoding="UTF-8" standalone="no"?>
<!DOCTYPE svg PUBLIC "-//W3C//DTD SVG 1.1//EN"
 "http://www.w3.org/Graphics/SVG/1.1/DTD/svg11.dtd">
<!-- Generated by graphviz version 2.43.0 (0)
 -->
<!-- Title: %3 Pages: 1 -->
<svg width="1048pt" height="44pt"
 viewBox="0.00 0.00 1047.62 44.00" xmlns="http://www.w3.org/2000/svg" xmlns:xlink="http://www.w3.org/1999/xlink">
<g id="graph0" class="graph" transform="scale(1 1) rotate(0) translate(4 40)">
<title>%3</title>
<polygon fill="white" stroke="transparent" points="-4,4 -4,-40 1043.62,-40 1043.62,4 -4,4"/>
<!-- 4,6 (Circuit substrate and Doped silicon) -->
<g id="node1" class="node">
<title>4,6 (Circuit substrate and Doped silicon)</title>
<ellipse fill="none" stroke="black" cx="484.71" cy="-18" rx="199.56" ry="18"/>
<text text-anchor="middle" x="484.71" y="-14.3" font-family="Times,serif" font-size="14.00">4,6 (Circuit substrate and Doped silicon)</text>
</g>
<!-- 6,4 (Electronic components) -->
<g id="node2" class="node">
<title>6,4 (Electronic components)</title>
<ellipse fill="none" stroke="black" cx="897.93" cy="-18" rx="141.88" ry="18"/>
<text text-anchor="middle" x="897.93" y="-14.3" font-family="Times,serif" font-size="14.00">6,4 (Electronic components)</text>
</g>
<!-- 4,6 (Circuit substrate and Doped silicon)&#45;&gt;6,4 (Electronic components) -->
<g id="edge1" class="edge">
<title>4,6 (Circuit substrate and Doped silicon)&#45;&gt;6,4 (Electronic components)</title>
<path fill="none" stroke="black" stroke-width="1.71" d="M684.36,-18C705.09,-18 725.91,-18 745.99,-18"/>
<polygon fill="black" stroke="black" stroke-width="1.71" points="746.1,-21.5 756.1,-18 746.1,-14.5 746.1,-21.5"/>
<text text-anchor="middle" x="715.18" y="-6.8" font-family="Times,serif" font-size="14.00">light&#45;n*73408</text>
</g>
<!-- 0,0 (LE BUS) -->
<g id="node3" class="node">
<title>0,0 (LE BUS)</title>
<ellipse fill="none" stroke="black" cx="71.49" cy="-18" rx="71.49" ry="18"/>
<text text-anchor="middle" x="71.49" y="-14.3" font-family="Times,serif" font-size="14.00">0,0 (LE BUS)</text>
</g>
<!-- 4,6 (Circuit substrate and Doped silicon)&#45;&gt;0,0 (LE BUS) -->
<g id="edge2" class="edge">
<title>4,6 (Circuit substrate and Doped silicon)&#45;&gt;0,0 (LE BUS)</title>
<path fill="none" stroke="black" stroke-width="0.29" d="M285.06,-18C238.7,-18 191.87,-18 153.92,-18"/>
<polygon fill="black" stroke="black" stroke-width="0.29" points="153.46,-14.5 143.46,-18 153.46,-21.5 153.46,-14.5"/>
<text text-anchor="middle" x="219.49" y="-6.8" font-family="Times,serif" font-size="14.00">light&#45;n*12224</text>
</g>
</g>
</svg>
