<?xml version="1.0" encoding="UTF-8" standalone="no"?>
<!DOCTYPE svg PUBLIC "-//W3C//DTD SVG 1.1//EN"
 "http://www.w3.org/Graphics/SVG/1.1/DTD/svg11.dtd">
<!-- Generated by graphviz version 2.43.0 (0)
 -->
<!-- Title: %3 Pages: 1 -->
<svg width="2728pt" height="2227pt"
 viewBox="0.00 0.00 2727.52 2227.48" xmlns="http://www.w3.org/2000/svg" xmlns:xlink="http://www.w3.org/1999/xlink">
<g id="graph0" class="graph" transform="scale(1 1) rotate(0) translate(4 2223.48)">
<title>%3</title>
<polygon fill="white" stroke="transparent" points="-4,4 -4,-2223.48 2723.52,-2223.48 2723.52,4 -4,4"/>
<!-- 3,3 (DO NOT CONNECT THESE WIRES, Landfill Drive&#45;Thru, Small Parts) -->
<g id="node1" class="node">
<title>3,3 (DO NOT CONNECT THESE WIRES, Landfill Drive&#45;Thru, Small Parts)</title>
<ellipse fill="none" stroke="black" cx="1377.87" cy="-18" rx="350.94" ry="18"/>
<text text-anchor="middle" x="1377.87" y="-14.3" font-family="Times,serif" font-size="14.00">3,3 (DO NOT CONNECT THESE WIRES, Landfill Drive&#45;Thru, Small Parts)</text>
</g>
<!-- 1,8 (A copper mine, Salt) -->
<g id="node2" class="node">
<title>1,8 (A copper mine, Salt)</title>
<ellipse fill="none" stroke="black" cx="631.07" cy="-149.68" rx="126.18" ry="18"/>
<text text-anchor="middle" x="631.07" y="-145.98" font-family="Times,serif" font-size="14.00">1,8 (A copper mine, Salt)</text>
</g>
<!-- 3,3 (DO NOT CONNECT THESE WIRES, Landfill Drive&#45;Thru, Small Parts)&#45;&gt;1,8 (A copper mine, Salt) -->
<g id="edge1" class="edge">
<title>3,3 (DO NOT CONNECT THESE WIRES, Landfill Drive&#45;Thru, Small Parts)&#45;&gt;1,8 (A copper mine, Salt)</title>
<path fill="none" stroke="black" stroke-width="1.4" d="M1279.47,-35.35C1133.36,-61.11 861.2,-109.1 720.47,-133.92"/>
<polygon fill="black" stroke="black" stroke-width="1.4" points="719.81,-130.48 710.57,-135.66 721.03,-137.37 719.81,-130.48"/>
<text text-anchor="middle" x="949.97" y="-88.43" font-family="Times,serif" font-size="14.00">stone*132928</text>
</g>
<!-- 0,0 (LE BUS) -->
<g id="node3" class="node">
<title>0,0 (LE BUS)</title>
<ellipse fill="none" stroke="black" cx="2293.95" cy="-1109.74" rx="71.49" ry="18"/>
<text text-anchor="middle" x="2293.95" y="-1106.04" font-family="Times,serif" font-size="14.00">0,0 (LE BUS)</text>
</g>
<!-- 3,3 (DO NOT CONNECT THESE WIRES, Landfill Drive&#45;Thru, Small Parts)&#45;&gt;0,0 (LE BUS) -->
<g id="edge2" class="edge">
<title>3,3 (DO NOT CONNECT THESE WIRES, Landfill Drive&#45;Thru, Small Parts)&#45;&gt;0,0 (LE BUS)</title>
<path fill="none" stroke="black" stroke-width="3.5" d="M1393.01,-36.04C1500.31,-163.92 2145.55,-932.89 2272.34,-1083.98"/>
<polygon fill="black" stroke="black" stroke-width="3.5" points="2269.85,-1086.47 2278.96,-1091.88 2275.22,-1081.97 2269.85,-1086.47"/>
<text text-anchor="middle" x="1782.67" y="-563.81" font-family="Times,serif" font-size="14.00">stone*332320</text>
</g>
<!-- 3,9 (Copper, molten &amp; plate) -->
<g id="node4" class="node">
<title>3,9 (Copper, molten &amp; plate)</title>
<ellipse fill="none" stroke="black" cx="143.64" cy="-730.58" rx="143.77" ry="18"/>
<text text-anchor="middle" x="143.64" y="-726.88" font-family="Times,serif" font-size="14.00">3,9 (Copper, molten &amp; plate)</text>
</g>
<!-- 3,9 (Copper, molten &amp; plate)&#45;&gt;1,8 (A copper mine, Salt) -->
<g id="edge9" class="edge">
<title>3,9 (Copper, molten &amp; plate)&#45;&gt;1,8 (A copper mine, Salt)</title>
<path fill="none" stroke="black" stroke-width="1.43" d="M158.76,-712.56C229.33,-628.46 526.32,-274.52 609.4,-175.51"/>
<polygon fill="black" stroke="black" stroke-width="1.43" points="612.14,-177.69 615.89,-167.78 606.78,-173.19 612.14,-177.69"/>
<text text-anchor="middle" x="334.08" y="-447.84" font-family="Times,serif" font-size="14.00">stone*135856</text>
</g>
<!-- 3,9 (Copper, molten &amp; plate)&#45;&gt;0,0 (LE BUS) -->
<g id="edge3" class="edge">
<title>3,9 (Copper, molten &amp; plate)&#45;&gt;0,0 (LE BUS)</title>
<path fill="none" stroke="black" stroke-width="0.37" d="M226.94,-745.27C574.69,-806.59 1907.1,-1041.53 2225.38,-1097.65"/>
<polygon fill="black" stroke="black" stroke-width="0.37" points="2224.93,-1101.13 2235.38,-1099.42 2226.14,-1094.23 2224.93,-1101.13"/>
<text text-anchor="middle" x="1180.66" y="-925.26" font-family="Times,serif" font-size="14.00">stone*35072</text>
</g>
<!-- &#45;3,2 (Lead and Solder) -->
<g id="node5" class="node">
<title>&#45;3,2 (Lead and Solder)</title>
<ellipse fill="none" stroke="black" cx="2034.59" cy="-397.16" rx="113.98" ry="18"/>
<text text-anchor="middle" x="2034.59" y="-393.46" font-family="Times,serif" font-size="14.00">&#45;3,2 (Lead and Solder)</text>
</g>
<!-- &#45;3,2 (Lead and Solder)&#45;&gt;1,8 (A copper mine, Salt) -->
<g id="edge15" class="edge">
<title>&#45;3,2 (Lead and Solder)&#45;&gt;1,8 (A copper mine, Salt)</title>
<path fill="none" stroke="black" stroke-width="0.7" d="M1958.13,-383.68C1717.8,-341.3 978.31,-210.91 720.69,-165.48"/>
<polygon fill="black" stroke="black" stroke-width="0.7" points="721.08,-162 710.63,-163.71 719.87,-168.89 721.08,-162"/>
<text text-anchor="middle" x="1293.91" y="-278.38" font-family="Times,serif" font-size="14.00">stone*66464</text>
</g>
<!-- &#45;3,2 (Lead and Solder)&#45;&gt;0,0 (LE BUS) -->
<g id="edge4" class="edge">
<title>&#45;3,2 (Lead and Solder)&#45;&gt;0,0 (LE BUS)</title>
<path fill="none" stroke="black" stroke-width="0.11" d="M2041.13,-415.13C2076.1,-511.2 2240.96,-964.16 2283.77,-1081.78"/>
<polygon fill="black" stroke="black" stroke-width="0.11" points="2280.6,-1083.29 2287.31,-1091.49 2287.18,-1080.9 2280.6,-1083.29"/>
<text text-anchor="middle" x="2116.95" y="-752.25" font-family="Times,serif" font-size="14.00">stone*10752</text>
</g>
<!-- &#45;6,7 (Iron ore dust) -->
<g id="node6" class="node">
<title>&#45;6,7 (Iron ore dust)</title>
<ellipse fill="none" stroke="black" cx="143.64" cy="-1488.9" rx="98.58" ry="18"/>
<text text-anchor="middle" x="143.64" y="-1485.2" font-family="Times,serif" font-size="14.00">&#45;6,7 (Iron ore dust)</text>
</g>
<!-- &#45;6,7 (Iron ore dust)&#45;&gt;1,8 (A copper mine, Salt) -->
<g id="edge5" class="edge">
<title>&#45;6,7 (Iron ore dust)&#45;&gt;1,8 (A copper mine, Salt)</title>
<path fill="none" stroke="black" stroke-width="4.51" d="M150.25,-1470.73C203.1,-1325.53 556.51,-354.54 620.99,-177.39"/>
<polygon fill="black" stroke="black" stroke-width="4.51" points="624.7,-178.73 624.41,-167.98 617.28,-176.03 624.7,-178.73"/>
<text text-anchor="middle" x="335.62" y="-827.86" font-family="Times,serif" font-size="14.00">stone*428480</text>
</g>
<!-- &#45;6,7 (Iron ore dust)&#45;&gt;0,0 (LE BUS) -->
<g id="edge8" class="edge">
<title>&#45;6,7 (Iron ore dust)&#45;&gt;0,0 (LE BUS)</title>
<path fill="none" stroke="black" stroke-width="0.98" d="M214.88,-1476.34C542.52,-1418.57 1902.37,-1178.79 2225.05,-1121.89"/>
<polygon fill="black" stroke="black" stroke-width="0.98" points="2225.95,-1125.29 2235.19,-1120.1 2224.74,-1118.39 2225.95,-1125.29"/>
<text text-anchor="middle" x="1174.46" y="-1302.92" font-family="Times,serif" font-size="14.00">stone*92640</text>
</g>
<!-- &#45;6,&#45;3 (Chromite Sand) -->
<g id="node7" class="node">
<title>&#45;6,&#45;3 (Chromite Sand)</title>
<ellipse fill="none" stroke="black" cx="631.07" cy="-2069.8" rx="110.48" ry="18"/>
<text text-anchor="middle" x="631.07" y="-2066.1" font-family="Times,serif" font-size="14.00">&#45;6,&#45;3 (Chromite Sand)</text>
</g>
<!-- &#45;6,&#45;3 (Chromite Sand)&#45;&gt;1,8 (A copper mine, Salt) -->
<g id="edge12" class="edge">
<title>&#45;6,&#45;3 (Chromite Sand)&#45;&gt;1,8 (A copper mine, Salt)</title>
<path fill="none" stroke="black" stroke-width="0.05" d="M631.07,-2051.72C631.07,-1871.53 631.07,-400.87 631.07,-177.95"/>
<polygon fill="black" stroke="black" stroke-width="0.05" points="634.57,-177.74 631.07,-167.74 627.57,-177.74 634.57,-177.74"/>
<text text-anchor="middle" x="590.07" y="-1118.63" font-family="Times,serif" font-size="14.00">stone*5200</text>
</g>
<!-- &#45;6,&#45;3 (Chromite Sand)&#45;&gt;0,0 (LE BUS) -->
<g id="edge6" class="edge">
<title>&#45;6,&#45;3 (Chromite Sand)&#45;&gt;0,0 (LE BUS)</title>
<path fill="none" stroke="black" stroke-width="0.02" d="M661.36,-2052.32C864.76,-1934.88 2030.85,-1261.64 2256.24,-1131.51"/>
<polygon fill="black" stroke="black" stroke-width="0.02" points="2258.15,-1134.45 2265.06,-1126.42 2254.65,-1128.39 2258.15,-1134.45"/>
<text text-anchor="middle" x="1417.8" y="-1595.72" font-family="Times,serif" font-size="14.00">stone*2240</text>
</g>
<!-- &#45;3,&#45;3 (Zinc Plates, 32 to consume four belts) -->
<g id="node8" class="node">
<title>&#45;3,&#45;3 (Zinc Plates, 32 to consume four belts)</title>
<ellipse fill="none" stroke="black" cx="1377.87" cy="-2201.48" rx="213.66" ry="18"/>
<text text-anchor="middle" x="1377.87" y="-2197.78" font-family="Times,serif" font-size="14.00">&#45;3,&#45;3 (Zinc Plates, 32 to consume four belts)</text>
</g>
<!-- &#45;3,&#45;3 (Zinc Plates, 32 to consume four belts)&#45;&gt;1,8 (A copper mine, Salt) -->
<g id="edge14" class="edge">
<title>&#45;3,&#45;3 (Zinc Plates, 32 to consume four belts)&#45;&gt;1,8 (A copper mine, Salt)</title>
<path fill="none" stroke="black" stroke-width="0.28" d="M1371.3,-2183.43C1303.09,-1996.03 725.05,-407.88 641.2,-177.5"/>
<polygon fill="black" stroke="black" stroke-width="0.28" points="644.4,-176.05 637.69,-167.85 637.82,-178.44 644.4,-176.05"/>
<text text-anchor="middle" x="960.75" y="-1184.27" font-family="Times,serif" font-size="14.00">stone*27047</text>
</g>
<!-- &#45;3,&#45;3 (Zinc Plates, 32 to consume four belts)&#45;&gt;0,0 (LE BUS) -->
<g id="edge7" class="edge">
<title>&#45;3,&#45;3 (Zinc Plates, 32 to consume four belts)&#45;&gt;0,0 (LE BUS)</title>
<path fill="none" stroke="black" stroke-width="0.63" d="M1393.01,-2183.45C1500.31,-2055.56 2145.55,-1286.6 2272.34,-1135.5"/>
<polygon fill="black" stroke="black" stroke-width="0.63" points="2275.22,-1137.51 2278.96,-1127.6 2269.85,-1133.01 2275.22,-1137.51"/>
<text text-anchor="middle" x="1787.17" y="-1663.27" font-family="Times,serif" font-size="14.00">stone*59960</text>
</g>
<!-- 1,10 (Iron Ore Dust) -->
<g id="node9" class="node">
<title>1,10 (Iron Ore Dust)</title>
<ellipse fill="none" stroke="black" cx="2034.59" cy="-1822.33" rx="104.78" ry="18"/>
<text text-anchor="middle" x="2034.59" y="-1818.63" font-family="Times,serif" font-size="14.00">1,10 (Iron Ore Dust)</text>
</g>
<!-- 1,10 (Iron Ore Dust)&#45;&gt;1,8 (A copper mine, Salt) -->
<g id="edge13" class="edge">
<title>1,10 (Iron Ore Dust)&#45;&gt;1,8 (A copper mine, Salt)</title>
<path fill="none" stroke="black" stroke-width="0.64" d="M2019.54,-1804.39C1880.3,-1638.45 817.92,-372.36 652.65,-175.4"/>
<polygon fill="black" stroke="black" stroke-width="0.64" points="655.2,-172.99 646.09,-167.58 649.84,-177.49 655.2,-172.99"/>
<text text-anchor="middle" x="1290.6" y="-993.7" font-family="Times,serif" font-size="14.00">stone*60400</text>
</g>
<!-- 1,10 (Iron Ore Dust)&#45;&gt;0,0 (LE BUS) -->
<g id="edge10" class="edge">
<title>1,10 (Iron Ore Dust)&#45;&gt;0,0 (LE BUS)</title>
<path fill="none" stroke="black" stroke-width="0.29" d="M2041.13,-1804.36C2076.1,-1708.29 2240.96,-1255.33 2283.77,-1137.7"/>
<polygon fill="black" stroke="black" stroke-width="0.29" points="2287.18,-1138.58 2287.31,-1127.99 2280.6,-1136.19 2287.18,-1138.58"/>
<text text-anchor="middle" x="2116.95" y="-1474.83" font-family="Times,serif" font-size="14.00">stone*27696</text>
</g>
<!-- 0,5 (Titanium Processing (Grade 4)) -->
<g id="node10" class="node">
<title>0,5 (Titanium Processing (Grade 4))</title>
<ellipse fill="none" stroke="black" cx="2542.73" cy="-1109.74" rx="176.57" ry="18"/>
<text text-anchor="middle" x="2542.73" y="-1106.04" font-family="Times,serif" font-size="14.00">0,5 (Titanium Processing (Grade 4))</text>
</g>
<!-- 0,5 (Titanium Processing (Grade 4))&#45;&gt;0,0 (LE BUS) -->
<g id="edge11" class="edge">
<title>0,5 (Titanium Processing (Grade 4))&#45;&gt;0,0 (LE BUS)</title>
<path fill="none" stroke="black" stroke-width="0.08" d="M2365.91,-1109.74C2365.83,-1109.74 2365.75,-1109.74 2365.67,-1109.74"/>
<polygon fill="black" stroke="black" stroke-width="0.08" points="2375.44,-1106.25 2365.43,-1109.74 2375.43,-1113.25 2375.44,-1106.25"/>
<text text-anchor="middle" x="2324.79" y="-1113.54" font-family="Times,serif" font-size="14.00">stone*8000</text>
</g>
</g>
</svg>
