<?xml version="1.0" encoding="UTF-8" standalone="no"?>
<!DOCTYPE svg PUBLIC "-//W3C//DTD SVG 1.1//EN"
 "http://www.w3.org/Graphics/SVG/1.1/DTD/svg11.dtd">
<!-- Generated by graphviz version 2.43.0 (0)
 -->
<!-- Title: %3 Pages: 1 -->
<svg width="1283pt" height="873pt"
 viewBox="0.00 0.00 1282.76 873.04" xmlns="http://www.w3.org/2000/svg" xmlns:xlink="http://www.w3.org/1999/xlink">
<g id="graph0" class="graph" transform="scale(1 1) rotate(0) translate(4 869.04)">
<title>%3</title>
<polygon fill="white" stroke="transparent" points="-4,4 -4,-869.04 1278.76,-869.04 1278.76,4 -4,4"/>
<!-- 2,10 (Nickel plate) -->
<g id="node1" class="node">
<title>2,10 (Nickel plate)</title>
<ellipse fill="none" stroke="black" cx="96.84" cy="-432.52" rx="96.68" ry="18"/>
<text text-anchor="middle" x="96.84" y="-428.82" font-family="Times,serif" font-size="14.00">2,10 (Nickel plate)</text>
</g>
<!-- 4,&#45;1 (Fluid) -->
<g id="node2" class="node">
<title>4,&#45;1 (Fluid)</title>
<ellipse fill="none" stroke="black" cx="327.43" cy="-432.52" rx="61.99" ry="18"/>
<text text-anchor="middle" x="327.43" y="-428.82" font-family="Times,serif" font-size="14.00">4,&#45;1 (Fluid)</text>
</g>
<!-- 2,10 (Nickel plate)&#45;&gt;4,&#45;1 (Fluid) -->
<g id="edge1" class="edge">
<title>2,10 (Nickel plate)&#45;&gt;4,&#45;1 (Fluid)</title>
<path fill="none" stroke="black" stroke-width="0.19" d="M193.96,-432.52C214.61,-432.52 236.06,-432.52 255.56,-432.52"/>
<polygon fill="black" stroke="black" stroke-width="0.19" points="255.57,-436.02 265.57,-432.52 255.57,-429.02 255.57,-436.02"/>
<text text-anchor="middle" x="224.76" y="-421.32" font-family="Times,serif" font-size="14.00">chromium*2176</text>
</g>
<!-- 4,13 (Chromium processing) -->
<g id="node3" class="node">
<title>4,13 (Chromium processing)</title>
<ellipse fill="none" stroke="black" cx="1075.22" cy="-432.52" rx="142.97" ry="18"/>
<text text-anchor="middle" x="1075.22" y="-428.82" font-family="Times,serif" font-size="14.00">4,13 (Chromium processing)</text>
</g>
<!-- 4,13 (Chromium processing)&#45;&gt;4,&#45;1 (Fluid) -->
<g id="edge4" class="edge">
<title>4,13 (Chromium processing)&#45;&gt;4,&#45;1 (Fluid)</title>
<path fill="none" stroke="black" stroke-width="0.93" d="M931.93,-432.52C772.7,-432.52 521.94,-432.52 399.51,-432.52"/>
<polygon fill="black" stroke="black" stroke-width="0.93" points="399.5,-429.02 389.5,-432.52 399.5,-436.02 399.5,-429.02"/>
<text text-anchor="middle" x="603.72" y="-436.32" font-family="Times,serif" font-size="14.00">chromium*10480</text>
</g>
<!-- &#45;2,&#45;3 (Trains) -->
<g id="node4" class="node">
<title>&#45;2,&#45;3 (Trains)</title>
<ellipse fill="none" stroke="black" cx="1075.22" cy="-18" rx="70.39" ry="18"/>
<text text-anchor="middle" x="1075.22" y="-14.3" font-family="Times,serif" font-size="14.00">&#45;2,&#45;3 (Trains)</text>
</g>
<!-- 4,13 (Chromium processing)&#45;&gt;&#45;2,&#45;3 (Trains) -->
<g id="edge2" class="edge">
<title>4,13 (Chromium processing)&#45;&gt;&#45;2,&#45;3 (Trains)</title>
<path fill="none" stroke="black" stroke-width="1.1" d="M1075.22,-414.44C1075.22,-349.26 1075.22,-125.94 1075.22,-46.41"/>
<polygon fill="black" stroke="black" stroke-width="1.1" points="1078.72,-46.17 1075.22,-36.17 1071.72,-46.17 1078.72,-46.17"/>
<text text-anchor="middle" x="1013.22" y="-234.23" font-family="Times,serif" font-size="14.00">chromium*12440</text>
</g>
<!-- 4,6 (Circuit substrate and Doped silicon) -->
<g id="node5" class="node">
<title>4,6 (Circuit substrate and Doped silicon)</title>
<ellipse fill="none" stroke="black" cx="1075.22" cy="-847.04" rx="199.56" ry="18"/>
<text text-anchor="middle" x="1075.22" y="-843.34" font-family="Times,serif" font-size="14.00">4,6 (Circuit substrate and Doped silicon)</text>
</g>
<!-- 4,13 (Chromium processing)&#45;&gt;4,6 (Circuit substrate and Doped silicon) -->
<g id="edge3" class="edge">
<title>4,13 (Chromium processing)&#45;&gt;4,6 (Circuit substrate and Doped silicon)</title>
<path fill="none" stroke="black" stroke-width="1.77" d="M1075.22,-450.6C1075.22,-515.78 1075.22,-739.1 1075.22,-818.63"/>
<polygon fill="black" stroke="black" stroke-width="1.77" points="1071.72,-818.87 1075.22,-828.87 1078.72,-818.87 1071.72,-818.87"/>
<text text-anchor="middle" x="1013.22" y="-638.41" font-family="Times,serif" font-size="14.00">chromium*20000</text>
</g>
</g>
</svg>
