<?xml version="1.0" encoding="UTF-8" standalone="no"?>
<!DOCTYPE svg PUBLIC "-//W3C//DTD SVG 1.1//EN"
 "http://www.w3.org/Graphics/SVG/1.1/DTD/svg11.dtd">
<!-- Generated by graphviz version 2.43.0 (0)
 -->
<!-- Title: %3 Pages: 1 -->
<svg width="703pt" height="565pt"
 viewBox="0.00 0.00 702.84 565.27" xmlns="http://www.w3.org/2000/svg" xmlns:xlink="http://www.w3.org/1999/xlink">
<g id="graph0" class="graph" transform="scale(1 1) rotate(0) translate(4 561.27)">
<title>%3</title>
<polygon fill="white" stroke="transparent" points="-4,4 -4,-561.27 698.84,-561.27 698.84,4 -4,4"/>
<!-- 1,1 (Moondrops) -->
<g id="node1" class="node">
<title>1,1 (Moondrops)</title>
<ellipse fill="none" stroke="black" cx="304.37" cy="-291.09" rx="87.18" ry="18"/>
<text text-anchor="middle" x="304.37" y="-287.39" font-family="Times,serif" font-size="14.00">1,1 (Moondrops)</text>
</g>
<!-- 1,0 (Moondrops?) -->
<g id="node2" class="node">
<title>1,0 (Moondrops?)</title>
<ellipse fill="none" stroke="black" cx="602.55" cy="-291.09" rx="92.08" ry="18"/>
<text text-anchor="middle" x="602.55" y="-287.39" font-family="Times,serif" font-size="14.00">1,0 (Moondrops?)</text>
</g>
<!-- 1,1 (Moondrops)&#45;&gt;1,0 (Moondrops?) -->
<g id="edge1" class="edge">
<title>1,1 (Moondrops)&#45;&gt;1,0 (Moondrops?)</title>
<path fill="none" stroke="black" stroke-width="1.09" d="M391.82,-291.09C425.68,-291.09 464.69,-291.09 499.87,-291.09"/>
<polygon fill="black" stroke="black" stroke-width="1.09" points="500.17,-294.59 510.17,-291.09 500.17,-287.59 500.17,-294.59"/>
<text text-anchor="middle" x="445.85" y="-279.89" font-family="Times,serif" font-size="14.00">moondrop*24064</text>
</g>
<!-- &#45;3,4 (Lard from Cottonguts) -->
<g id="node3" class="node">
<title>&#45;3,4 (Lard from Cottonguts)</title>
<ellipse fill="none" stroke="black" cx="139.09" cy="-539.27" rx="139.18" ry="18"/>
<text text-anchor="middle" x="139.09" y="-535.57" font-family="Times,serif" font-size="14.00">&#45;3,4 (Lard from Cottonguts)</text>
</g>
<!-- 1,1 (Moondrops)&#45;&gt;&#45;3,4 (Lard from Cottonguts) -->
<g id="edge2" class="edge">
<title>1,1 (Moondrops)&#45;&gt;&#45;3,4 (Lard from Cottonguts)</title>
<path fill="none" stroke="black" stroke-width="1.37" d="M292.49,-308.94C263.79,-352.03 190.59,-461.94 156.74,-512.76"/>
<polygon fill="black" stroke="black" stroke-width="1.37" points="153.72,-510.98 151.09,-521.25 159.55,-514.86 153.72,-510.98"/>
<text text-anchor="middle" x="162.61" y="-414.65" font-family="Times,serif" font-size="14.00">moondrop*30224</text>
</g>
<!-- 4,7 (Cottonguts) -->
<g id="node4" class="node">
<title>4,7 (Cottonguts)</title>
<ellipse fill="none" stroke="black" cx="184.65" cy="-18" rx="87.18" ry="18"/>
<text text-anchor="middle" x="184.65" y="-14.3" font-family="Times,serif" font-size="14.00">4,7 (Cottonguts)</text>
</g>
<!-- 1,1 (Moondrops)&#45;&gt;4,7 (Cottonguts) -->
<g id="edge3" class="edge">
<title>1,1 (Moondrops)&#45;&gt;4,7 (Cottonguts)</title>
<path fill="none" stroke="black" stroke-width="0.54" d="M296.33,-272.75C275.76,-225.82 221.11,-101.17 196.71,-45.51"/>
<polygon fill="black" stroke="black" stroke-width="0.54" points="199.88,-44.02 192.66,-36.26 193.47,-46.83 199.88,-44.02"/>
<text text-anchor="middle" x="184.52" y="-162.93" font-family="Times,serif" font-size="14.00">moondrop*12048</text>
</g>
</g>
</svg>
