<?xml version="1.0" encoding="UTF-8" standalone="no"?>
<!DOCTYPE svg PUBLIC "-//W3C//DTD SVG 1.1//EN"
 "http://www.w3.org/Graphics/SVG/1.1/DTD/svg11.dtd">
<!-- Generated by graphviz version 2.43.0 (0)
 -->
<!-- Title: %3 Pages: 1 -->
<svg width="1604pt" height="44pt"
 viewBox="0.00 0.00 1604.08 44.00" xmlns="http://www.w3.org/2000/svg" xmlns:xlink="http://www.w3.org/1999/xlink">
<g id="graph0" class="graph" transform="scale(1 1) rotate(0) translate(4 40)">
<title>%3</title>
<polygon fill="white" stroke="transparent" points="-4,4 -4,-40 1600.08,-40 1600.08,4 -4,4"/>
<!-- 4,&#45;1 (Fluid) -->
<g id="node1" class="node">
<title>4,&#45;1 (Fluid)</title>
<ellipse fill="none" stroke="black" cx="623.4" cy="-18" rx="61.99" ry="18"/>
<text text-anchor="middle" x="623.4" y="-14.3" font-family="Times,serif" font-size="14.00">4,&#45;1 (Fluid)</text>
</g>
<!-- 4,4 (Hydrogen Chloride, item=nylon Nylon/Nylon parts) -->
<g id="node2" class="node">
<title>4,4 (Hydrogen Chloride, item=nylon Nylon/Nylon parts)</title>
<ellipse fill="none" stroke="black" cx="1028.17" cy="-18" rx="271.05" ry="18"/>
<text text-anchor="middle" x="1028.17" y="-14.3" font-family="Times,serif" font-size="14.00">4,4 (Hydrogen Chloride, item=nylon Nylon/Nylon parts)</text>
</g>
<!-- 4,&#45;1 (Fluid)&#45;&gt;4,4 (Hydrogen Chloride, item=nylon Nylon/Nylon parts) -->
<g id="edge1" class="edge">
<title>4,&#45;1 (Fluid)&#45;&gt;4,4 (Hydrogen Chloride, item=nylon Nylon/Nylon parts)</title>
<path fill="none" stroke="black" stroke-width="1.76" d="M685.32,-18C703.36,-18 724.33,-18 746.85,-18"/>
<polygon fill="black" stroke="black" stroke-width="1.76" points="746.95,-21.5 756.95,-18 746.95,-14.5 746.95,-21.5"/>
<text text-anchor="middle" x="716.09" y="-6.8" font-family="Times,serif" font-size="14.00">benzene&#45;barrel*2992</text>
</g>
<!-- &#45;2,&#45;3 (Trains) -->
<g id="node4" class="node">
<title>&#45;2,&#45;3 (Trains)</title>
<ellipse fill="none" stroke="black" cx="70.19" cy="-18" rx="70.39" ry="18"/>
<text text-anchor="middle" x="70.19" y="-14.3" font-family="Times,serif" font-size="14.00">&#45;2,&#45;3 (Trains)</text>
</g>
<!-- 4,&#45;1 (Fluid)&#45;&gt;&#45;2,&#45;3 (Trains) -->
<g id="edge3" class="edge">
<title>4,&#45;1 (Fluid)&#45;&gt;&#45;2,&#45;3 (Trains)</title>
<path fill="none" stroke="black" stroke-width="0.59" d="M561.55,-18C461.07,-18 262.42,-18 150.94,-18"/>
<polygon fill="black" stroke="black" stroke-width="0.59" points="150.76,-14.5 140.76,-18 150.76,-21.5 150.76,-14.5"/>
<text text-anchor="middle" x="280.75" y="-21.8" font-family="Times,serif" font-size="14.00">benzene&#45;barrel*1000</text>
</g>
<!-- 4,10 (Fluid Recycling) -->
<g id="node3" class="node">
<title>4,10 (Fluid Recycling)</title>
<ellipse fill="none" stroke="black" cx="1483.64" cy="-18" rx="112.38" ry="18"/>
<text text-anchor="middle" x="1483.64" y="-14.3" font-family="Times,serif" font-size="14.00">4,10 (Fluid Recycling)</text>
</g>
<!-- 4,10 (Fluid Recycling)&#45;&gt;4,4 (Hydrogen Chloride, item=nylon Nylon/Nylon parts) -->
<g id="edge2" class="edge">
<title>4,10 (Fluid Recycling)&#45;&gt;4,4 (Hydrogen Chloride, item=nylon Nylon/Nylon parts)</title>
<path fill="none" stroke="black" stroke-width="0.65" d="M1371.05,-18C1351.84,-18 1331.14,-18 1309.76,-18"/>
<polygon fill="black" stroke="black" stroke-width="0.65" points="1309.56,-14.5 1299.56,-18 1309.56,-21.5 1309.56,-14.5"/>
<text text-anchor="middle" x="1302.66" y="-6.8" font-family="Times,serif" font-size="14.00">benzene&#45;barrel*1108</text>
</g>
</g>
</svg>
