<?xml version="1.0" encoding="UTF-8" standalone="no"?>
<!DOCTYPE svg PUBLIC "-//W3C//DTD SVG 1.1//EN"
 "http://www.w3.org/Graphics/SVG/1.1/DTD/svg11.dtd">
<!-- Generated by graphviz version 2.43.0 (0)
 -->
<!-- Title: %3 Pages: 1 -->
<svg width="1042pt" height="44pt"
 viewBox="0.00 0.00 1042.42 44.00" xmlns="http://www.w3.org/2000/svg" xmlns:xlink="http://www.w3.org/1999/xlink">
<g id="graph0" class="graph" transform="scale(1 1) rotate(0) translate(4 40)">
<title>%3</title>
<polygon fill="white" stroke="transparent" points="-4,4 -4,-40 1038.42,-40 1038.42,4 -4,4"/>
<!-- 4,&#45;1 (Fluid) -->
<g id="node1" class="node">
<title>4,&#45;1 (Fluid)</title>
<ellipse fill="none" stroke="black" cx="61.74" cy="-18" rx="61.99" ry="18"/>
<text text-anchor="middle" x="61.74" y="-14.3" font-family="Times,serif" font-size="14.00">4,&#45;1 (Fluid)</text>
</g>
<!-- 4,4 (Hydrogen Chloride, item=nylon Nylon/Nylon parts) -->
<g id="node2" class="node">
<title>4,4 (Hydrogen Chloride, item=nylon Nylon/Nylon parts)</title>
<ellipse fill="none" stroke="black" cx="466.51" cy="-18" rx="271.05" ry="18"/>
<text text-anchor="middle" x="466.51" y="-14.3" font-family="Times,serif" font-size="14.00">4,4 (Hydrogen Chloride, item=nylon Nylon/Nylon parts)</text>
</g>
<!-- 4,&#45;1 (Fluid)&#45;&gt;4,4 (Hydrogen Chloride, item=nylon Nylon/Nylon parts) -->
<g id="edge1" class="edge">
<title>4,&#45;1 (Fluid)&#45;&gt;4,4 (Hydrogen Chloride, item=nylon Nylon/Nylon parts)</title>
<path fill="none" stroke="black" stroke-width="1.46" d="M123.66,-18C141.7,-18 162.67,-18 185.19,-18"/>
<polygon fill="black" stroke="black" stroke-width="1.46" points="185.29,-21.5 195.29,-18 185.29,-14.5 185.29,-21.5"/>
<text text-anchor="middle" x="154.43" y="-6.8" font-family="Times,serif" font-size="14.00">benzene&#45;barrel*2992</text>
</g>
<!-- 4,10 (Fluid Recycling) -->
<g id="node3" class="node">
<title>4,10 (Fluid Recycling)</title>
<ellipse fill="none" stroke="black" cx="921.98" cy="-18" rx="112.38" ry="18"/>
<text text-anchor="middle" x="921.98" y="-14.3" font-family="Times,serif" font-size="14.00">4,10 (Fluid Recycling)</text>
</g>
<!-- 4,10 (Fluid Recycling)&#45;&gt;4,4 (Hydrogen Chloride, item=nylon Nylon/Nylon parts) -->
<g id="edge2" class="edge">
<title>4,10 (Fluid Recycling)&#45;&gt;4,4 (Hydrogen Chloride, item=nylon Nylon/Nylon parts)</title>
<path fill="none" stroke="black" stroke-width="0.54" d="M809.39,-18C790.18,-18 769.48,-18 748.1,-18"/>
<polygon fill="black" stroke="black" stroke-width="0.54" points="747.9,-14.5 737.9,-18 747.9,-21.5 747.9,-14.5"/>
<text text-anchor="middle" x="741" y="-6.8" font-family="Times,serif" font-size="14.00">benzene&#45;barrel*1108</text>
</g>
</g>
</svg>
