<?xml version="1.0" encoding="UTF-8" standalone="no"?>
<!DOCTYPE svg PUBLIC "-//W3C//DTD SVG 1.1//EN"
 "http://www.w3.org/Graphics/SVG/1.1/DTD/svg11.dtd">
<!-- Generated by graphviz version 2.43.0 (0)
 -->
<!-- Title: %3 Pages: 1 -->
<svg width="1560pt" height="1320pt"
 viewBox="0.00 0.00 1560.31 1320.49" xmlns="http://www.w3.org/2000/svg" xmlns:xlink="http://www.w3.org/1999/xlink">
<g id="graph0" class="graph" transform="scale(1 1) rotate(0) translate(4 1316.49)">
<title>%3</title>
<polygon fill="white" stroke="transparent" points="-4,4 -4,-1316.49 1556.31,-1316.49 1556.31,4 -4,4"/>
<!-- &#45;4,&#45;3 (Breath Deeply. Exhale. (Hot Air)) -->
<g id="node1" class="node">
<title>&#45;4,&#45;3 (Breath Deeply. Exhale. (Hot Air))</title>
<ellipse fill="none" stroke="black" cx="767.65" cy="-641.43" rx="190.37" ry="18"/>
<text text-anchor="middle" x="767.65" y="-637.73" font-family="Times,serif" font-size="14.00">&#45;4,&#45;3 (Breath Deeply. Exhale. (Hot Air))</text>
</g>
<!-- 0,3 () -->
<g id="node2" class="node">
<title>0,3 ()</title>
<ellipse fill="none" stroke="black" cx="1423.19" cy="-641.43" rx="35.19" ry="18"/>
<text text-anchor="middle" x="1423.19" y="-637.73" font-family="Times,serif" font-size="14.00">0,3 ()</text>
</g>
<!-- &#45;4,&#45;3 (Breath Deeply. Exhale. (Hot Air))&#45;&gt;0,3 () -->
<g id="edge1" class="edge">
<title>&#45;4,&#45;3 (Breath Deeply. Exhale. (Hot Air))&#45;&gt;0,3 ()</title>
<path fill="none" stroke="black" stroke-width="0.39" d="M958.14,-641.43C1103.3,-641.43 1292.3,-641.43 1377.74,-641.43"/>
<polygon fill="black" stroke="black" stroke-width="0.39" points="1377.88,-644.93 1387.88,-641.43 1377.88,-637.93 1377.88,-644.93"/>
<text text-anchor="middle" x="1098.44" y="-645.23" font-family="Times,serif" font-size="14.00">hot&#45;air&#45;barrel*3248</text>
</g>
<!-- &#45;5,5 (fluid=flue&#45;gas Flue gas) -->
<g id="node3" class="node">
<title>&#45;5,5 (fluid=flue&#45;gas Flue gas)</title>
<ellipse fill="none" stroke="black" cx="1375.09" cy="-887.91" rx="145.67" ry="18"/>
<text text-anchor="middle" x="1375.09" y="-884.21" font-family="Times,serif" font-size="14.00">&#45;5,5 (fluid=flue&#45;gas Flue gas)</text>
</g>
<!-- &#45;4,&#45;3 (Breath Deeply. Exhale. (Hot Air))&#45;&gt;&#45;5,5 (fluid=flue&#45;gas Flue gas) -->
<g id="edge2" class="edge">
<title>&#45;4,&#45;3 (Breath Deeply. Exhale. (Hot Air))&#45;&gt;&#45;5,5 (fluid=flue&#45;gas Flue gas)</title>
<path fill="none" stroke="black" stroke-width="6.4" d="M811.34,-659.16C920.61,-703.5 1205.45,-819.07 1323.1,-866.81"/>
<polygon fill="black" stroke="black" stroke-width="6.4" points="1321.24,-872.1 1332.61,-870.67 1325.45,-861.72 1321.24,-872.1"/>
<text text-anchor="middle" x="993.22" y="-766.78" font-family="Times,serif" font-size="14.00">hot&#45;air&#45;barrel*52778</text>
</g>
<!-- &#45;4,0 (IRON PATCH, item=lens Optical sets) -->
<g id="node4" class="node">
<title>&#45;4,0 (IRON PATCH, item=lens Optical sets)</title>
<ellipse fill="none" stroke="black" cx="1100.85" cy="-1205.99" rx="209.86" ry="18"/>
<text text-anchor="middle" x="1100.85" y="-1202.29" font-family="Times,serif" font-size="14.00">&#45;4,0 (IRON PATCH, item=lens Optical sets)</text>
</g>
<!-- &#45;4,&#45;3 (Breath Deeply. Exhale. (Hot Air))&#45;&gt;&#45;4,0 (IRON PATCH, item=lens Optical sets) -->
<g id="edge3" class="edge">
<title>&#45;4,&#45;3 (Breath Deeply. Exhale. (Hot Air))&#45;&gt;&#45;4,0 (IRON PATCH, item=lens Optical sets)</title>
<path fill="none" stroke="black" stroke-width="0.97" d="M778.36,-659.58C826.97,-741.95 1027.02,-1080.89 1085.02,-1179.17"/>
<polygon fill="black" stroke="black" stroke-width="0.97" points="1082.08,-1181.08 1090.18,-1187.91 1088.11,-1177.52 1082.08,-1181.08"/>
<text text-anchor="middle" x="862.19" y="-923.17" font-family="Times,serif" font-size="14.00">hot&#45;air&#45;barrel*7976</text>
</g>
<!-- 0,12 (Phosphate mining) -->
<g id="node5" class="node">
<title>0,12 (Phosphate mining)</title>
<ellipse fill="none" stroke="black" cx="710.53" cy="-1294.49" rx="124.58" ry="18"/>
<text text-anchor="middle" x="710.53" y="-1290.79" font-family="Times,serif" font-size="14.00">0,12 (Phosphate mining)</text>
</g>
<!-- &#45;4,&#45;3 (Breath Deeply. Exhale. (Hot Air))&#45;&gt;0,12 (Phosphate mining) -->
<g id="edge4" class="edge">
<title>&#45;4,&#45;3 (Breath Deeply. Exhale. (Hot Air))&#45;&gt;0,12 (Phosphate mining)</title>
<path fill="none" stroke="black" stroke-width="0.4" d="M766.06,-659.58C758.12,-750.39 722.69,-1155.47 712.99,-1266.35"/>
<polygon fill="black" stroke="black" stroke-width="0.4" points="709.49,-1266.16 712.11,-1276.43 716.46,-1266.77 709.49,-1266.16"/>
<text text-anchor="middle" x="670.02" y="-966.77" font-family="Times,serif" font-size="14.00">hot&#45;air&#45;barrel*3264</text>
</g>
<!-- 3,9 (Copper, molten &amp; plate) -->
<g id="node6" class="node">
<title>3,9 (Copper, molten &amp; plate)</title>
<ellipse fill="none" stroke="black" cx="393.96" cy="-1180.04" rx="143.77" ry="18"/>
<text text-anchor="middle" x="393.96" y="-1176.34" font-family="Times,serif" font-size="14.00">3,9 (Copper, molten &amp; plate)</text>
</g>
<!-- &#45;4,&#45;3 (Breath Deeply. Exhale. (Hot Air))&#45;&gt;3,9 (Copper, molten &amp; plate) -->
<g id="edge5" class="edge">
<title>&#45;4,&#45;3 (Breath Deeply. Exhale. (Hot Air))&#45;&gt;3,9 (Copper, molten &amp; plate)</title>
<path fill="none" stroke="black" stroke-width="0.46" d="M755,-659.66C699.55,-739.59 477.74,-1059.29 412.26,-1153.68"/>
<polygon fill="black" stroke="black" stroke-width="0.46" points="409.24,-1151.88 406.42,-1162.09 414.99,-1155.87 409.24,-1151.88"/>
<text text-anchor="middle" x="514.13" y="-910.47" font-family="Times,serif" font-size="14.00">hot&#45;air&#45;barrel*3816</text>
</g>
<!-- &#45;1,11 (Steel Plate (from molten)) -->
<g id="node7" class="node">
<title>&#45;1,11 (Steel Plate (from molten))</title>
<ellipse fill="none" stroke="black" cx="161.19" cy="-890.31" rx="161.37" ry="18"/>
<text text-anchor="middle" x="161.19" y="-886.61" font-family="Times,serif" font-size="14.00">&#45;1,11 (Steel Plate (from molten))</text>
</g>
<!-- &#45;4,&#45;3 (Breath Deeply. Exhale. (Hot Air))&#45;&gt;&#45;1,11 (Steel Plate (from molten)) -->
<g id="edge6" class="edge">
<title>&#45;4,&#45;3 (Breath Deeply. Exhale. (Hot Air))&#45;&gt;&#45;1,11 (Steel Plate (from molten))</title>
<path fill="none" stroke="black" stroke-width="1.89" d="M724.52,-659.13C615.81,-703.74 330.91,-820.66 213.21,-868.96"/>
<polygon fill="black" stroke="black" stroke-width="1.89" points="211.61,-865.84 203.69,-872.87 214.27,-872.31 211.61,-865.84"/>
<text text-anchor="middle" x="394.87" y="-767.85" font-family="Times,serif" font-size="14.00">hot&#45;air&#45;barrel*15600</text>
</g>
<!-- &#45;1,10 (Iron Plates) -->
<g id="node8" class="node">
<title>&#45;1,10 (Iron Plates)</title>
<ellipse fill="none" stroke="black" cx="116.14" cy="-568.79" rx="94.78" ry="18"/>
<text text-anchor="middle" x="116.14" y="-565.09" font-family="Times,serif" font-size="14.00">&#45;1,10 (Iron Plates)</text>
</g>
<!-- &#45;4,&#45;3 (Breath Deeply. Exhale. (Hot Air))&#45;&gt;&#45;1,10 (Iron Plates) -->
<g id="edge7" class="edge">
<title>&#45;4,&#45;3 (Breath Deeply. Exhale. (Hot Air))&#45;&gt;&#45;1,10 (Iron Plates)</title>
<path fill="none" stroke="black" stroke-width="0.46" d="M644.34,-627.68C517.39,-613.53 322.49,-591.8 208.33,-579.07"/>
<polygon fill="black" stroke="black" stroke-width="0.46" points="208.54,-575.57 198.21,-577.94 207.76,-582.53 208.54,-575.57"/>
<text text-anchor="middle" x="356.83" y="-607.18" font-family="Times,serif" font-size="14.00">hot&#45;air&#45;barrel*3792</text>
</g>
<!-- 2,10 (Nickel plate) -->
<g id="node9" class="node">
<title>2,10 (Nickel plate)</title>
<ellipse fill="none" stroke="black" cx="196.6" cy="-319.49" rx="96.68" ry="18"/>
<text text-anchor="middle" x="196.6" y="-315.79" font-family="Times,serif" font-size="14.00">2,10 (Nickel plate)</text>
</g>
<!-- &#45;4,&#45;3 (Breath Deeply. Exhale. (Hot Air))&#45;&gt;2,10 (Nickel plate) -->
<g id="edge8" class="edge">
<title>&#45;4,&#45;3 (Breath Deeply. Exhale. (Hot Air))&#45;&gt;2,10 (Nickel plate)</title>
<path fill="none" stroke="black" stroke-width="0.19" d="M736.13,-623.67C638.78,-568.78 342.97,-402.01 235.85,-341.62"/>
<polygon fill="black" stroke="black" stroke-width="0.19" points="237.41,-338.48 226.98,-336.62 233.97,-344.58 237.41,-338.48"/>
<text text-anchor="middle" x="416.49" y="-486.44" font-family="Times,serif" font-size="14.00">hot&#45;air&#45;barrel*1528</text>
</g>
<!-- &#45;2,&#45;3 (Trains) -->
<g id="node10" class="node">
<title>&#45;2,&#45;3 (Trains)</title>
<ellipse fill="none" stroke="black" cx="348.95" cy="-137.02" rx="70.39" ry="18"/>
<text text-anchor="middle" x="348.95" y="-133.32" font-family="Times,serif" font-size="14.00">&#45;2,&#45;3 (Trains)</text>
</g>
<!-- &#45;4,&#45;3 (Breath Deeply. Exhale. (Hot Air))&#45;&gt;&#45;2,&#45;3 (Trains) -->
<g id="edge9" class="edge">
<title>&#45;4,&#45;3 (Breath Deeply. Exhale. (Hot Air))&#45;&gt;&#45;2,&#45;3 (Trains)</title>
<path fill="none" stroke="black" stroke-width="0.35" d="M752.75,-623.48C689.6,-547.41 443.95,-251.47 370.08,-162.47"/>
<polygon fill="black" stroke="black" stroke-width="0.35" points="372.76,-160.22 363.68,-154.76 367.37,-164.69 372.76,-160.22"/>
<text text-anchor="middle" x="491.91" y="-396.78" font-family="Times,serif" font-size="14.00">hot&#45;air&#45;barrel*2910</text>
</g>
<!-- 2,1 (Niobium plates) -->
<g id="node11" class="node">
<title>2,1 (Niobium plates)</title>
<ellipse fill="none" stroke="black" cx="564.99" cy="-18" rx="105.88" ry="18"/>
<text text-anchor="middle" x="564.99" y="-14.3" font-family="Times,serif" font-size="14.00">2,1 (Niobium plates)</text>
</g>
<!-- &#45;4,&#45;3 (Breath Deeply. Exhale. (Hot Air))&#45;&gt;2,1 (Niobium plates) -->
<g id="edge10" class="edge">
<title>&#45;4,&#45;3 (Breath Deeply. Exhale. (Hot Air))&#45;&gt;2,1 (Niobium plates)</title>
<path fill="none" stroke="black" stroke-width="0.1" d="M761.69,-623.11C732.97,-534.74 608.69,-152.43 574.01,-45.74"/>
<polygon fill="black" stroke="black" stroke-width="0.1" points="577.27,-44.45 570.85,-36.02 570.61,-46.61 577.27,-44.45"/>
<text text-anchor="middle" x="602.85" y="-338.23" font-family="Times,serif" font-size="14.00">hot&#45;air&#45;barrel*864</text>
</g>
<!-- 3,5 (item=molybdenum&#45;plate Molybdenum plate) -->
<g id="node12" class="node">
<title>3,5 (item=molybdenum&#45;plate Molybdenum plate)</title>
<ellipse fill="none" stroke="black" cx="975.72" cy="-19.79" rx="239.66" ry="18"/>
<text text-anchor="middle" x="975.72" y="-16.09" font-family="Times,serif" font-size="14.00">3,5 (item=molybdenum&#45;plate Molybdenum plate)</text>
</g>
<!-- &#45;4,&#45;3 (Breath Deeply. Exhale. (Hot Air))&#45;&gt;3,5 (item=molybdenum&#45;plate Molybdenum plate) -->
<g id="edge11" class="edge">
<title>&#45;4,&#45;3 (Breath Deeply. Exhale. (Hot Air))&#45;&gt;3,5 (item=molybdenum&#45;plate Molybdenum plate)</title>
<path fill="none" stroke="black" stroke-width="0.24" d="M773.76,-623.17C803.23,-535.15 930.58,-154.67 966.35,-47.8"/>
<polygon fill="black" stroke="black" stroke-width="0.24" points="969.75,-48.65 969.61,-38.06 963.12,-46.43 969.75,-48.65"/>
<text text-anchor="middle" x="800.56" y="-339.28" font-family="Times,serif" font-size="14.00">hot&#45;air&#45;barrel*2000</text>
</g>
<!-- 4,6 (Circuit substrate and Doped silicon) -->
<g id="node13" class="node">
<title>4,6 (Circuit substrate and Doped silicon)</title>
<ellipse fill="none" stroke="black" cx="1352.78" cy="-345.86" rx="199.56" ry="18"/>
<text text-anchor="middle" x="1352.78" y="-342.16" font-family="Times,serif" font-size="14.00">4,6 (Circuit substrate and Doped silicon)</text>
</g>
<!-- &#45;4,&#45;3 (Breath Deeply. Exhale. (Hot Air))&#45;&gt;4,6 (Circuit substrate and Doped silicon) -->
<g id="edge12" class="edge">
<title>&#45;4,&#45;3 (Breath Deeply. Exhale. (Hot Air))&#45;&gt;4,6 (Circuit substrate and Doped silicon)</title>
<path fill="none" stroke="black" stroke-width="0.15" d="M802.93,-623.61C904.35,-572.38 1196.54,-424.79 1308.45,-368.26"/>
<polygon fill="black" stroke="black" stroke-width="0.15" points="1310.1,-371.34 1317.45,-363.71 1306.95,-365.1 1310.1,-371.34"/>
<text text-anchor="middle" x="986.19" y="-499.73" font-family="Times,serif" font-size="14.00">hot&#45;air&#45;barrel*1248</text>
</g>
</g>
</svg>
