<?xml version="1.0" encoding="UTF-8" standalone="no"?>
<!DOCTYPE svg PUBLIC "-//W3C//DTD SVG 1.1//EN"
 "http://www.w3.org/Graphics/SVG/1.1/DTD/svg11.dtd">
<!-- Generated by graphviz version 2.43.0 (0)
 -->
<!-- Title: %3 Pages: 1 -->
<svg width="725pt" height="780pt"
 viewBox="0.00 0.00 725.14 779.80" xmlns="http://www.w3.org/2000/svg" xmlns:xlink="http://www.w3.org/1999/xlink">
<g id="graph0" class="graph" transform="scale(1 1) rotate(0) translate(4 775.8)">
<title>%3</title>
<polygon fill="white" stroke="transparent" points="-4,4 -4,-775.8 721.14,-775.8 721.14,4 -4,4"/>
<!-- 8,8 (Glass and lamps) -->
<g id="node1" class="node">
<title>8,8 (Glass and lamps)</title>
<ellipse fill="none" stroke="black" cx="322.76" cy="-403.61" rx="111.28" ry="18"/>
<text text-anchor="middle" x="322.76" y="-399.91" font-family="Times,serif" font-size="14.00">8,8 (Glass and lamps)</text>
</g>
<!-- &#45;6,4 (Urea) -->
<g id="node2" class="node">
<title>&#45;6,4 (Urea)</title>
<ellipse fill="none" stroke="black" cx="112" cy="-281.93" rx="61.19" ry="18"/>
<text text-anchor="middle" x="112" y="-278.23" font-family="Times,serif" font-size="14.00">&#45;6,4 (Urea)</text>
</g>
<!-- 8,8 (Glass and lamps)&#45;&gt;&#45;6,4 (Urea) -->
<g id="edge1" class="edge">
<title>8,8 (Glass and lamps)&#45;&gt;&#45;6,4 (Urea)</title>
<path fill="none" stroke="black" stroke-width="0.82" d="M292.57,-386.18C254.58,-364.24 189.39,-326.61 148.6,-303.06"/>
<polygon fill="black" stroke="black" stroke-width="0.82" points="150.2,-299.94 139.79,-297.97 146.7,-306 150.2,-299.94"/>
<text text-anchor="middle" x="155.58" y="-348.42" font-family="Times,serif" font-size="14.00">small&#45;lamp*14720</text>
</g>
<!-- 7,8 (Raw fibre 2) -->
<g id="node3" class="node">
<title>7,8 (Raw fibre 2)</title>
<ellipse fill="none" stroke="black" cx="282.35" cy="-18" rx="89.08" ry="18"/>
<text text-anchor="middle" x="282.35" y="-14.3" font-family="Times,serif" font-size="14.00">7,8 (Raw fibre 2)</text>
</g>
<!-- 8,8 (Glass and lamps)&#45;&gt;7,8 (Raw fibre 2) -->
<g id="edge2" class="edge">
<title>8,8 (Glass and lamps)&#45;&gt;7,8 (Raw fibre 2)</title>
<path fill="none" stroke="black" stroke-width="0.71" d="M320.87,-385.53C314.4,-323.8 293.15,-121.04 285.3,-46.13"/>
<polygon fill="black" stroke="black" stroke-width="0.71" points="288.76,-45.62 284.24,-36.04 281.8,-46.35 288.76,-45.62"/>
<text text-anchor="middle" x="238.08" y="-219.63" font-family="Times,serif" font-size="14.00">small&#45;lamp*12800</text>
</g>
<!-- 0,0 (LE BUS) -->
<g id="node4" class="node">
<title>0,0 (LE BUS)</title>
<ellipse fill="none" stroke="black" cx="112" cy="-525.3" rx="71.49" ry="18"/>
<text text-anchor="middle" x="112" y="-521.6" font-family="Times,serif" font-size="14.00">0,0 (LE BUS)</text>
</g>
<!-- 8,8 (Glass and lamps)&#45;&gt;0,0 (LE BUS) -->
<g id="edge5" class="edge">
<title>8,8 (Glass and lamps)&#45;&gt;0,0 (LE BUS)</title>
<path fill="none" stroke="black" stroke-width="1.97" d="M292.57,-421.05C254.89,-442.8 190.47,-479.99 149.63,-503.57"/>
<polygon fill="black" stroke="black" stroke-width="1.97" points="147.7,-500.64 140.79,-508.68 151.2,-506.71 147.7,-500.64"/>
<text text-anchor="middle" x="156.1" y="-466.11" font-family="Times,serif" font-size="14.00">small&#45;lamp*35360</text>
</g>
<!-- &#45;3,7 (Sea sprouts) -->
<g id="node5" class="node">
<title>&#45;3,7 (Sea sprouts)</title>
<ellipse fill="none" stroke="black" cx="492.21" cy="-153.32" rx="92.88" ry="18"/>
<text text-anchor="middle" x="492.21" y="-149.62" font-family="Times,serif" font-size="14.00">&#45;3,7 (Sea sprouts)</text>
</g>
<!-- 8,8 (Glass and lamps)&#45;&gt;&#45;3,7 (Sea sprouts) -->
<g id="edge4" class="edge">
<title>8,8 (Glass and lamps)&#45;&gt;&#45;3,7 (Sea sprouts)</title>
<path fill="none" stroke="black" stroke-width="1.54" d="M334.95,-385.61C364.37,-342.15 439.41,-231.31 474.11,-180.06"/>
<polygon fill="black" stroke="black" stroke-width="1.54" points="477.2,-181.74 479.9,-171.5 471.4,-177.81 477.2,-181.74"/>
<text text-anchor="middle" x="339.53" y="-286.63" font-family="Times,serif" font-size="14.00">small&#45;lamp*27520</text>
</g>
<!-- 0,&#45;8 (Raw fibre 2 duplicate) -->
<g id="node6" class="node">
<title>0,&#45;8 (Raw fibre 2 duplicate)</title>
<ellipse fill="none" stroke="black" cx="579.35" cy="-435.68" rx="137.58" ry="18"/>
<text text-anchor="middle" x="579.35" y="-431.98" font-family="Times,serif" font-size="14.00">0,&#45;8 (Raw fibre 2 duplicate)</text>
</g>
<!-- 8,8 (Glass and lamps)&#45;&gt;0,&#45;8 (Raw fibre 2 duplicate) -->
<g id="edge6" class="edge">
<title>8,8 (Glass and lamps)&#45;&gt;0,&#45;8 (Raw fibre 2 duplicate)</title>
<path fill="none" stroke="black" stroke-width="1" d="M411.07,-414.65C429.83,-416.99 449.86,-419.5 469.32,-421.93"/>
<polygon fill="black" stroke="black" stroke-width="1" points="469.08,-425.42 479.44,-423.19 469.95,-418.48 469.08,-425.42"/>
<text text-anchor="middle" x="505.19" y="-407.09" font-family="Times,serif" font-size="14.00">small&#45;lamp*17920</text>
</g>
<!-- 1,3 (item=korlex&#45;food&#45;01 Korlex food) -->
<g id="node7" class="node">
<title>1,3 (item=korlex&#45;food&#45;01 Korlex food)</title>
<ellipse fill="none" stroke="black" cx="372.22" cy="-753.8" rx="185.77" ry="18"/>
<text text-anchor="middle" x="372.22" y="-750.1" font-family="Times,serif" font-size="14.00">1,3 (item=korlex&#45;food&#45;01 Korlex food)</text>
</g>
<!-- 8,8 (Glass and lamps)&#45;&gt;1,3 (item=korlex&#45;food&#45;01 Korlex food) -->
<g id="edge7" class="edge">
<title>8,8 (Glass and lamps)&#45;&gt;1,3 (item=korlex&#45;food&#45;01 Korlex food)</title>
<path fill="none" stroke="black" stroke-width="0.92" d="M325.35,-421.95C333.46,-479.39 358.43,-656.14 368.22,-725.47"/>
<polygon fill="black" stroke="black" stroke-width="0.92" points="364.79,-726.23 369.66,-735.64 371.72,-725.25 364.79,-726.23"/>
<text text-anchor="middle" x="281.79" y="-577.51" font-family="Times,serif" font-size="14.00">small&#45;lamp*16560</text>
</g>
<!-- 0,0 (LE BUS)&#45;&gt;&#45;6,4 (Urea) -->
<g id="edge3" class="edge">
<title>0,0 (LE BUS)&#45;&gt;&#45;6,4 (Urea)</title>
<path fill="none" stroke="black" stroke-width="0.03" d="M112,-507C112,-464.88 112,-360.8 112,-310.3"/>
<polygon fill="black" stroke="black" stroke-width="0.03" points="115.5,-310.1 112,-300.1 108.5,-310.1 115.5,-310.1"/>
<text text-anchor="middle" x="56" y="-412.45" font-family="Times,serif" font-size="14.00">small&#45;lamp*528</text>
</g>
</g>
</svg>
