<?xml version="1.0" encoding="UTF-8" standalone="no"?>
<!DOCTYPE svg PUBLIC "-//W3C//DTD SVG 1.1//EN"
 "http://www.w3.org/Graphics/SVG/1.1/DTD/svg11.dtd">
<!-- Generated by graphviz version 2.43.0 (0)
 -->
<!-- Title: %3 Pages: 1 -->
<svg width="938pt" height="730pt"
 viewBox="0.00 0.00 937.57 729.84" xmlns="http://www.w3.org/2000/svg" xmlns:xlink="http://www.w3.org/1999/xlink">
<g id="graph0" class="graph" transform="scale(1 1) rotate(0) translate(4 725.84)">
<title>%3</title>
<polygon fill="white" stroke="transparent" points="-4,4 -4,-725.84 933.57,-725.84 933.57,4 -4,4"/>
<!-- &#45;4,7 (Powdered Quartz/Salt) -->
<g id="node1" class="node">
<title>&#45;4,7 (Powdered Quartz/Salt)</title>
<ellipse fill="none" stroke="black" cx="484.61" cy="-18" rx="139.98" ry="18"/>
<text text-anchor="middle" x="484.61" y="-14.3" font-family="Times,serif" font-size="14.00">&#45;4,7 (Powdered Quartz/Salt)</text>
</g>
<!-- 6,4 (Electronic components) -->
<g id="node2" class="node">
<title>6,4 (Electronic components)</title>
<ellipse fill="none" stroke="black" cx="141.69" cy="-360.92" rx="141.88" ry="18"/>
<text text-anchor="middle" x="141.69" y="-357.22" font-family="Times,serif" font-size="14.00">6,4 (Electronic components)</text>
</g>
<!-- &#45;4,7 (Powdered Quartz/Salt)&#45;&gt;6,4 (Electronic components) -->
<g id="edge1" class="edge">
<title>&#45;4,7 (Powdered Quartz/Salt)&#45;&gt;6,4 (Electronic components)</title>
<path fill="none" stroke="black" stroke-width="0.16" d="M466.65,-35.95C409.73,-92.88 233.13,-269.48 167.02,-335.59"/>
<polygon fill="black" stroke="black" stroke-width="0.16" points="164.47,-333.18 159.88,-342.73 169.42,-338.13 164.47,-333.18"/>
<text text-anchor="middle" x="234.34" y="-189.57" font-family="Times,serif" font-size="14.00">powdered&#45;quartz*8672</text>
</g>
<!-- 4,12 (Molten Glass) -->
<g id="node4" class="node">
<title>4,12 (Molten Glass)</title>
<ellipse fill="none" stroke="black" cx="827.53" cy="-360.92" rx="102.08" ry="18"/>
<text text-anchor="middle" x="827.53" y="-357.22" font-family="Times,serif" font-size="14.00">4,12 (Molten Glass)</text>
</g>
<!-- &#45;4,7 (Powdered Quartz/Salt)&#45;&gt;4,12 (Molten Glass) -->
<g id="edge3" class="edge">
<title>&#45;4,7 (Powdered Quartz/Salt)&#45;&gt;4,12 (Molten Glass)</title>
<path fill="none" stroke="black" stroke-width="0.55" d="M502.56,-35.95C559.62,-93.01 736.91,-270.3 802.66,-336.05"/>
<polygon fill="black" stroke="black" stroke-width="0.55" points="800.21,-338.55 809.75,-343.14 805.16,-333.6 800.21,-338.55"/>
<text text-anchor="middle" x="565.61" y="-189.8" font-family="Times,serif" font-size="14.00">powdered&#45;quartz*30144</text>
</g>
<!-- &#45;4,&#45;8 (item=silver&#45;plate Even even more silver?) -->
<g id="node3" class="node">
<title>&#45;4,&#45;8 (item=silver&#45;plate Even even more silver?)</title>
<ellipse fill="none" stroke="black" cx="484.61" cy="-703.84" rx="233.16" ry="18"/>
<text text-anchor="middle" x="484.61" y="-700.14" font-family="Times,serif" font-size="14.00">&#45;4,&#45;8 (item=silver&#45;plate Even even more silver?)</text>
</g>
<!-- &#45;4,&#45;8 (item=silver&#45;plate Even even more silver?)&#45;&gt;6,4 (Electronic components) -->
<g id="edge4" class="edge">
<title>&#45;4,&#45;8 (item=silver&#45;plate Even even more silver?)&#45;&gt;6,4 (Electronic components)</title>
<path fill="none" stroke="black" stroke-width="0.12" d="M466.65,-685.89C409.73,-628.96 233.13,-452.36 167.02,-386.25"/>
<polygon fill="black" stroke="black" stroke-width="0.12" points="169.42,-383.71 159.88,-379.11 164.47,-388.66 169.42,-383.71"/>
<text text-anchor="middle" x="234.34" y="-539.87" font-family="Times,serif" font-size="14.00">powdered&#45;quartz*6312</text>
</g>
<!-- &#45;4,&#45;8 (item=silver&#45;plate Even even more silver?)&#45;&gt;4,12 (Molten Glass) -->
<g id="edge2" class="edge">
<title>&#45;4,&#45;8 (item=silver&#45;plate Even even more silver?)&#45;&gt;4,12 (Molten Glass)</title>
<path fill="none" stroke="black" stroke-width="3.17" d="M502.56,-685.89C559.62,-628.83 736.91,-451.54 802.66,-385.79"/>
<polygon fill="black" stroke="black" stroke-width="3.17" points="805.16,-388.24 809.75,-378.7 800.21,-383.29 805.16,-388.24"/>
<text text-anchor="middle" x="561.11" y="-539.64" font-family="Times,serif" font-size="14.00">powdered&#45;quartz*172440</text>
</g>
</g>
</svg>
