<?xml version="1.0" encoding="UTF-8" standalone="no"?>
<!DOCTYPE svg PUBLIC "-//W3C//DTD SVG 1.1//EN"
 "http://www.w3.org/Graphics/SVG/1.1/DTD/svg11.dtd">
<!-- Generated by graphviz version 2.43.0 (0)
 -->
<!-- Title: %3 Pages: 1 -->
<svg width="3666pt" height="3248pt"
 viewBox="0.00 0.00 3666.36 3248.33" xmlns="http://www.w3.org/2000/svg" xmlns:xlink="http://www.w3.org/1999/xlink">
<g id="graph0" class="graph" transform="scale(1 1) rotate(0) translate(4 3244.33)">
<title>%3</title>
<polygon fill="white" stroke="transparent" points="-4,4 -4,-3244.33 3662.36,-3244.33 3662.36,4 -4,4"/>
<!-- 0,0 (LE BUS) -->
<g id="node1" class="node">
<title>0,0 (LE BUS)</title>
<ellipse fill="none" stroke="black" cx="241.39" cy="-907.13" rx="71.49" ry="18"/>
<text text-anchor="middle" x="241.39" y="-903.43" font-family="Times,serif" font-size="14.00">0,0 (LE BUS)</text>
</g>
<!-- 1,8 (HCl, Salt) -->
<g id="node2" class="node">
<title>1,8 (HCl, Salt)</title>
<ellipse fill="none" stroke="black" cx="3365.38" cy="-1620.16" rx="77.19" ry="18"/>
<text text-anchor="middle" x="3365.38" y="-1616.46" font-family="Times,serif" font-size="14.00">1,8 (HCl, Salt)</text>
</g>
<!-- 0,0 (LE BUS)&#45;&gt;1,8 (HCl, Salt) -->
<g id="edge1" class="edge">
<title>0,0 (LE BUS)&#45;&gt;1,8 (HCl, Salt)</title>
<path fill="none" stroke="black" stroke-width="0.17" d="M294.63,-919.28C667.83,-1004.47 2888.83,-1511.39 3299.94,-1605.23"/>
<polygon fill="black" stroke="black" stroke-width="0.17" points="3299.35,-1608.68 3309.88,-1607.5 3300.91,-1601.86 3299.35,-1608.68"/>
<text text-anchor="middle" x="1751.78" y="-1266.06" font-family="Times,serif" font-size="14.00">stone*10665</text>
</g>
<!-- 3,9 (Copper, molten &amp; plate) -->
<g id="node3" class="node">
<title>3,9 (Copper, molten &amp; plate)</title>
<ellipse fill="none" stroke="black" cx="3202.63" cy="-907.13" rx="143.77" ry="18"/>
<text text-anchor="middle" x="3202.63" y="-903.43" font-family="Times,serif" font-size="14.00">3,9 (Copper, molten &amp; plate)</text>
</g>
<!-- 3,9 (Copper, molten &amp; plate)&#45;&gt;0,0 (LE BUS) -->
<g id="edge2" class="edge">
<title>3,9 (Copper, molten &amp; plate)&#45;&gt;0,0 (LE BUS)</title>
<path fill="none" stroke="black" stroke-width="0.12" d="M3058.8,-907.13C2533.72,-907.13 729.65,-907.13 323.18,-907.13"/>
<polygon fill="black" stroke="black" stroke-width="0.12" points="322.98,-903.63 312.98,-907.13 322.98,-910.63 322.98,-903.63"/>
<text text-anchor="middle" x="1649.99" y="-910.93" font-family="Times,serif" font-size="14.00">stone*7680</text>
</g>
<!-- 3,9 (Copper, molten &amp; plate)&#45;&gt;1,8 (HCl, Salt) -->
<g id="edge11" class="edge">
<title>3,9 (Copper, molten &amp; plate)&#45;&gt;1,8 (HCl, Salt)</title>
<path fill="none" stroke="black" stroke-width="0.41" d="M3206.82,-925.48C3228.91,-1022.29 3331.99,-1473.87 3358.92,-1591.89"/>
<polygon fill="black" stroke="black" stroke-width="0.41" points="3355.58,-1592.97 3361.22,-1601.94 3362.4,-1591.41 3355.58,-1592.97"/>
<text text-anchor="middle" x="3237.37" y="-1262.48" font-family="Times,serif" font-size="14.00">stone*25760</text>
</g>
<!-- 0,&#45;7 (Salt (stone/gravel destruction)) -->
<g id="node8" class="node">
<title>0,&#45;7 (Salt (stone/gravel destruction))</title>
<ellipse fill="none" stroke="black" cx="1356.33" cy="-18" rx="180.07" ry="18"/>
<text text-anchor="middle" x="1356.33" y="-14.3" font-family="Times,serif" font-size="14.00">0,&#45;7 (Salt (stone/gravel destruction))</text>
</g>
<!-- 3,9 (Copper, molten &amp; plate)&#45;&gt;0,&#45;7 (Salt (stone/gravel destruction)) -->
<g id="edge10" class="edge">
<title>3,9 (Copper, molten &amp; plate)&#45;&gt;0,&#45;7 (Salt (stone/gravel destruction))</title>
<path fill="none" stroke="black" stroke-width="2.41" d="M3166.17,-889.57C2933.7,-777.63 1660.4,-164.43 1402.06,-40.02"/>
<polygon fill="black" stroke="black" stroke-width="2.41" points="1403.48,-36.82 1392.95,-35.64 1400.44,-43.13 1403.48,-36.82"/>
<text text-anchor="middle" x="2234.11" y="-468.6" font-family="Times,serif" font-size="14.00">stone*150048</text>
</g>
<!-- &#45;6,7 (Iron ore dust) -->
<g id="node4" class="node">
<title>&#45;6,7 (Iron ore dust)</title>
<ellipse fill="none" stroke="black" cx="1356.33" cy="-3222.33" rx="98.58" ry="18"/>
<text text-anchor="middle" x="1356.33" y="-3218.63" font-family="Times,serif" font-size="14.00">&#45;6,7 (Iron ore dust)</text>
</g>
<!-- &#45;6,7 (Iron ore dust)&#45;&gt;0,0 (LE BUS) -->
<g id="edge18" class="edge">
<title>&#45;6,7 (Iron ore dust)&#45;&gt;0,0 (LE BUS)</title>
<path fill="none" stroke="black" stroke-width="0.63" d="M1347.67,-3204.36C1250.92,-3003.44 372.84,-1180.1 254.55,-934.46"/>
<polygon fill="black" stroke="black" stroke-width="0.63" points="257.56,-932.66 250.07,-925.17 251.26,-935.69 257.56,-932.66"/>
<text text-anchor="middle" x="755.61" y="-2073.21" font-family="Times,serif" font-size="14.00">stone*39312</text>
</g>
<!-- &#45;6,7 (Iron ore dust)&#45;&gt;1,8 (HCl, Salt) -->
<g id="edge3" class="edge">
<title>&#45;6,7 (Iron ore dust)&#45;&gt;1,8 (HCl, Salt)</title>
<path fill="none" stroke="black" stroke-width="4.2" d="M1378.54,-3204.61C1580.92,-3043.22 3102.88,-1829.5 3335.57,-1643.93"/>
<polygon fill="black" stroke="black" stroke-width="4.2" points="3338.08,-1646.64 3343.6,-1637.53 3333.49,-1640.89 3338.08,-1646.64"/>
<text text-anchor="middle" x="2307.06" y="-2428.07" font-family="Times,serif" font-size="14.00">stone*261840</text>
</g>
<!-- 2,14 (Latex) -->
<g id="node6" class="node">
<title>2,14 (Latex)</title>
<ellipse fill="none" stroke="black" cx="697.39" cy="-2905" rx="66.89" ry="18"/>
<text text-anchor="middle" x="697.39" y="-2901.3" font-family="Times,serif" font-size="14.00">2,14 (Latex)</text>
</g>
<!-- &#45;6,7 (Iron ore dust)&#45;&gt;2,14 (Latex) -->
<g id="edge14" class="edge">
<title>&#45;6,7 (Iron ore dust)&#45;&gt;2,14 (Latex)</title>
<path fill="none" stroke="black" stroke-width="1.21" d="M1321.36,-3205.49C1209.58,-3151.66 861.12,-2983.85 739.66,-2925.35"/>
<polygon fill="black" stroke="black" stroke-width="1.21" points="740.83,-2922.03 730.3,-2920.85 737.79,-2928.34 740.83,-2922.03"/>
<text text-anchor="middle" x="985.01" y="-3069.22" font-family="Times,serif" font-size="14.00">stone*75600</text>
</g>
<!-- &#45;6,7 (Iron ore dust)&#45;&gt;0,&#45;7 (Salt (stone/gravel destruction)) -->
<g id="edge6" class="edge">
<title>&#45;6,7 (Iron ore dust)&#45;&gt;0,&#45;7 (Salt (stone/gravel destruction))</title>
<path fill="none" stroke="black" stroke-width="3.61" d="M1356.33,-3204.31C1356.33,-2961.82 1356.33,-348.92 1356.33,-46.49"/>
<polygon fill="black" stroke="black" stroke-width="3.61" points="1359.83,-46.35 1356.33,-36.35 1352.83,-46.35 1359.83,-46.35"/>
<text text-anchor="middle" x="1306.33" y="-1629.2" font-family="Times,serif" font-size="14.00">stone*225072</text>
</g>
<!-- &#45;1,12 (I can&#39;t believe it&#39;s more latex duplicates) -->
<g id="node12" class="node">
<title>&#45;1,12 (I can&#39;t believe it&#39;s more latex duplicates)</title>
<ellipse fill="none" stroke="black" cx="2087.69" cy="-3222.33" rx="229.36" ry="18"/>
<text text-anchor="middle" x="2087.69" y="-3218.63" font-family="Times,serif" font-size="14.00">&#45;1,12 (I can&#39;t believe it&#39;s more latex duplicates)</text>
</g>
<!-- &#45;6,7 (Iron ore dust)&#45;&gt;&#45;1,12 (I can&#39;t believe it&#39;s more latex duplicates) -->
<g id="edge29" class="edge">
<title>&#45;6,7 (Iron ore dust)&#45;&gt;&#45;1,12 (I can&#39;t believe it&#39;s more latex duplicates)</title>
<path fill="none" stroke="black" stroke-width="0.41" d="M1455.34,-3222.33C1555.56,-3222.33 1714.33,-3222.33 1847.7,-3222.33"/>
<polygon fill="black" stroke="black" stroke-width="0.41" points="1848.08,-3225.83 1858.08,-3222.33 1848.08,-3218.83 1848.08,-3225.83"/>
<text text-anchor="middle" x="1606.02" y="-3226.13" font-family="Times,serif" font-size="14.00">stone*25280</text>
</g>
<!-- &#45;4,&#45;8 (item=silver&#45;plate Even even more silver?) -->
<g id="node5" class="node">
<title>&#45;4,&#45;8 (item=silver&#45;plate Even even more silver?)</title>
<ellipse fill="none" stroke="black" cx="3202.63" cy="-2333.19" rx="233.16" ry="18"/>
<text text-anchor="middle" x="3202.63" y="-2329.49" font-family="Times,serif" font-size="14.00">&#45;4,&#45;8 (item=silver&#45;plate Even even more silver?)</text>
</g>
<!-- &#45;4,&#45;8 (item=silver&#45;plate Even even more silver?)&#45;&gt;0,0 (LE BUS) -->
<g id="edge24" class="edge">
<title>&#45;4,&#45;8 (item=silver&#45;plate Even even more silver?)&#45;&gt;0,0 (LE BUS)</title>
<path fill="none" stroke="black" stroke-width="0.33" d="M3165.46,-2315.29C2849.72,-2163.24 621,-1089.94 284.02,-927.67"/>
<polygon fill="black" stroke="black" stroke-width="0.33" points="285.14,-924.32 274.61,-923.13 282.1,-930.63 285.14,-924.32"/>
<text text-anchor="middle" x="1679.24" y="-1625.28" font-family="Times,serif" font-size="14.00">stone*20712</text>
</g>
<!-- &#45;4,&#45;8 (item=silver&#45;plate Even even more silver?)&#45;&gt;1,8 (HCl, Salt) -->
<g id="edge17" class="edge">
<title>&#45;4,&#45;8 (item=silver&#45;plate Even even more silver?)&#45;&gt;1,8 (HCl, Salt)</title>
<path fill="none" stroke="black" stroke-width="0.84" d="M3206.82,-2314.85C3228.91,-2218.04 3331.99,-1766.45 3358.92,-1648.44"/>
<polygon fill="black" stroke="black" stroke-width="0.84" points="3362.4,-1648.91 3361.22,-1638.38 3355.58,-1647.35 3362.4,-1648.91"/>
<text text-anchor="middle" x="3237.37" y="-1985.45" font-family="Times,serif" font-size="14.00">stone*52080</text>
</g>
<!-- &#45;4,&#45;8 (item=silver&#45;plate Even even more silver?)&#45;&gt;2,14 (Latex) -->
<g id="edge4" class="edge">
<title>&#45;4,&#45;8 (item=silver&#45;plate Even even more silver?)&#45;&gt;2,14 (Latex)</title>
<path fill="none" stroke="black" stroke-width="0.4" d="M3127.65,-2350.31C2754.08,-2435.57 1098.13,-2813.53 758.42,-2891.07"/>
<polygon fill="black" stroke="black" stroke-width="0.4" points="757.49,-2887.69 748.52,-2893.33 759.05,-2894.52 757.49,-2887.69"/>
<text text-anchor="middle" x="1897.54" y="-2624.49" font-family="Times,serif" font-size="14.00">stone*25152</text>
</g>
<!-- &#45;4,&#45;8 (item=silver&#45;plate Even even more silver?)&#45;&gt;0,&#45;7 (Salt (stone/gravel destruction)) -->
<g id="edge15" class="edge">
<title>&#45;4,&#45;8 (item=silver&#45;plate Even even more silver?)&#45;&gt;0,&#45;7 (Salt (stone/gravel destruction))</title>
<path fill="none" stroke="black" stroke-width="2.41" d="M3188.04,-2314.89C3026.14,-2111.88 1568.04,-283.48 1376.95,-43.86"/>
<polygon fill="black" stroke="black" stroke-width="2.41" points="1379.66,-41.65 1370.69,-36.01 1374.19,-46.01 1379.66,-41.65"/>
<text text-anchor="middle" x="2232.49" y="-1183.18" font-family="Times,serif" font-size="14.00">stone*150048</text>
</g>
<!-- &#45;4,&#45;8 (item=silver&#45;plate Even even more silver?)&#45;&gt;&#45;1,12 (I can&#39;t believe it&#39;s more latex duplicates) -->
<g id="edge20" class="edge">
<title>&#45;4,&#45;8 (item=silver&#45;plate Even even more silver?)&#45;&gt;&#45;1,12 (I can&#39;t believe it&#39;s more latex duplicates)</title>
<path fill="none" stroke="black" stroke-width="1.22" d="M3180.11,-2351.15C3039.39,-2463.37 2281.72,-3067.6 2118.63,-3197.65"/>
<polygon fill="black" stroke="black" stroke-width="1.22" points="2116.09,-3195.2 2110.46,-3204.17 2120.46,-3200.67 2116.09,-3195.2"/>
<text text-anchor="middle" x="2603.87" y="-2778.2" font-family="Times,serif" font-size="14.00">stone*75840</text>
</g>
<!-- &#45;6,8 (Copper plate duplicate) -->
<g id="node7" class="node">
<title>&#45;6,8 (Copper plate duplicate)</title>
<ellipse fill="none" stroke="black" cx="241.39" cy="-2333.19" rx="143.77" ry="18"/>
<text text-anchor="middle" x="241.39" y="-2329.49" font-family="Times,serif" font-size="14.00">&#45;6,8 (Copper plate duplicate)</text>
</g>
<!-- &#45;6,8 (Copper plate duplicate)&#45;&gt;0,0 (LE BUS) -->
<g id="edge5" class="edge">
<title>&#45;6,8 (Copper plate duplicate)&#45;&gt;0,0 (LE BUS)</title>
<path fill="none" stroke="black" stroke-width="0.24" d="M241.39,-2315.16C241.39,-2164.85 241.39,-1120.82 241.39,-935.29"/>
<polygon fill="black" stroke="black" stroke-width="0.24" points="244.89,-935.24 241.39,-925.24 237.89,-935.24 244.89,-935.24"/>
<text text-anchor="middle" x="286.89" y="-1629.03" font-family="Times,serif" font-size="14.00">stone*14928</text>
</g>
<!-- &#45;6,8 (Copper plate duplicate)&#45;&gt;1,8 (HCl, Salt) -->
<g id="edge7" class="edge">
<title>&#45;6,8 (Copper plate duplicate)&#45;&gt;1,8 (HCl, Salt)</title>
<path fill="none" stroke="black" stroke-width="1.25" d="M310.65,-2317.39C727.22,-2222.31 2895.21,-1727.48 3300.18,-1635.04"/>
<polygon fill="black" stroke="black" stroke-width="1.25" points="3301.01,-1638.44 3309.98,-1632.81 3299.45,-1631.62 3301.01,-1638.44"/>
<text text-anchor="middle" x="1759.91" y="-1980.01" font-family="Times,serif" font-size="14.00">stone*77840</text>
</g>
<!-- &#45;6,8 (Copper plate duplicate)&#45;&gt;2,14 (Latex) -->
<g id="edge25" class="edge">
<title>&#45;6,8 (Copper plate duplicate)&#45;&gt;2,14 (Latex)</title>
<path fill="none" stroke="black" stroke-width="0.8" d="M255.79,-2351.25C322.2,-2434.53 599.03,-2781.66 676.92,-2879.33"/>
<polygon fill="black" stroke="black" stroke-width="0.8" points="674.24,-2881.58 683.21,-2887.22 679.71,-2877.22 674.24,-2881.58"/>
<text text-anchor="middle" x="420.85" y="-2619.09" font-family="Times,serif" font-size="14.00">stone*50096</text>
</g>
<!-- 1,10 (Iron Ore Dust) -->
<g id="node9" class="node">
<title>1,10 (Iron Ore Dust)</title>
<ellipse fill="none" stroke="black" cx="2746.63" cy="-2905" rx="104.78" ry="18"/>
<text text-anchor="middle" x="2746.63" y="-2901.3" font-family="Times,serif" font-size="14.00">1,10 (Iron Ore Dust)</text>
</g>
<!-- 1,10 (Iron Ore Dust)&#45;&gt;0,0 (LE BUS) -->
<g id="edge16" class="edge">
<title>1,10 (Iron Ore Dust)&#45;&gt;0,0 (LE BUS)</title>
<path fill="none" stroke="black" stroke-width="0.51" d="M2724.21,-2887.12C2492.46,-2702.3 536.98,-1142.86 271.24,-930.94"/>
<polygon fill="black" stroke="black" stroke-width="0.51" points="273.19,-928.02 263.19,-924.52 268.82,-933.49 273.19,-928.02"/>
<text text-anchor="middle" x="1452.23" y="-1912.83" font-family="Times,serif" font-size="14.00">stone*31728</text>
</g>
<!-- 1,10 (Iron Ore Dust)&#45;&gt;1,8 (HCl, Salt) -->
<g id="edge8" class="edge">
<title>1,10 (Iron Ore Dust)&#45;&gt;1,8 (HCl, Salt)</title>
<path fill="none" stroke="black" stroke-width="1.24" d="M2755.38,-2886.84C2823.6,-2745.16 3270.07,-1818.07 3352.35,-1647.21"/>
<polygon fill="black" stroke="black" stroke-width="1.24" points="3355.54,-1648.65 3356.73,-1638.12 3349.23,-1645.61 3355.54,-1648.65"/>
<text text-anchor="middle" x="3008.36" y="-2270.82" font-family="Times,serif" font-size="14.00">stone*77024</text>
</g>
<!-- 1,10 (Iron Ore Dust)&#45;&gt;2,14 (Latex) -->
<g id="edge22" class="edge">
<title>1,10 (Iron Ore Dust)&#45;&gt;2,14 (Latex)</title>
<path fill="none" stroke="black" stroke-width="1.62" d="M2641.84,-2905C2280.41,-2905 1090.82,-2905 774.96,-2905"/>
<polygon fill="black" stroke="black" stroke-width="1.62" points="774.54,-2901.5 764.54,-2905 774.54,-2908.5 774.54,-2901.5"/>
<text text-anchor="middle" x="1658.4" y="-2908.8" font-family="Times,serif" font-size="14.00">stone*101040</text>
</g>
<!-- 1,10 (Iron Ore Dust)&#45;&gt;0,&#45;7 (Salt (stone/gravel destruction)) -->
<g id="edge21" class="edge">
<title>1,10 (Iron Ore Dust)&#45;&gt;0,&#45;7 (Salt (stone/gravel destruction))</title>
<path fill="none" stroke="black" stroke-width="1.61" d="M2737.93,-2886.94C2627.67,-2657.98 1503.85,-324.34 1369.45,-45.25"/>
<polygon fill="black" stroke="black" stroke-width="1.61" points="1372.58,-43.69 1365.09,-36.2 1366.27,-46.72 1372.58,-43.69"/>
<text text-anchor="middle" x="2003.69" y="-1469.89" font-family="Times,serif" font-size="14.00">stone*100032</text>
</g>
<!-- 1,10 (Iron Ore Dust)&#45;&gt;&#45;1,12 (I can&#39;t believe it&#39;s more latex duplicates) -->
<g id="edge13" class="edge">
<title>1,10 (Iron Ore Dust)&#45;&gt;&#45;1,12 (I can&#39;t believe it&#39;s more latex duplicates)</title>
<path fill="none" stroke="black" stroke-width="0.4" d="M2711.2,-2922.06C2600.22,-2975.51 2259.23,-3139.72 2134.24,-3199.91"/>
<polygon fill="black" stroke="black" stroke-width="0.4" points="2132.41,-3196.91 2124.92,-3204.4 2135.45,-3203.21 2132.41,-3196.91"/>
<text text-anchor="middle" x="2377.22" y="-3064.79" font-family="Times,serif" font-size="14.00">stone*25072</text>
</g>
<!-- &#45;3,2 (Lead and Solder) -->
<g id="node10" class="node">
<title>&#45;3,2 (Lead and Solder)</title>
<ellipse fill="none" stroke="black" cx="697.39" cy="-335.33" rx="113.98" ry="18"/>
<text text-anchor="middle" x="697.39" y="-331.63" font-family="Times,serif" font-size="14.00">&#45;3,2 (Lead and Solder)</text>
</g>
<!-- &#45;3,2 (Lead and Solder)&#45;&gt;1,8 (HCl, Salt) -->
<g id="edge9" class="edge">
<title>&#45;3,2 (Lead and Solder)&#45;&gt;1,8 (HCl, Salt)</title>
<path fill="none" stroke="black" stroke-width="1.23" d="M733.09,-352.52C1024.1,-492.66 3004.16,-1446.21 3322.28,-1599.41"/>
<polygon fill="black" stroke="black" stroke-width="1.23" points="3321.1,-1602.73 3331.63,-1603.91 3324.14,-1596.42 3321.1,-1602.73"/>
<text text-anchor="middle" x="1982.18" y="-979.77" font-family="Times,serif" font-size="14.00">stone*76720</text>
</g>
<!-- &#45;3,2 (Lead and Solder)&#45;&gt;0,&#45;7 (Salt (stone/gravel destruction)) -->
<g id="edge19" class="edge">
<title>&#45;3,2 (Lead and Solder)&#45;&gt;0,&#45;7 (Salt (stone/gravel destruction))</title>
<path fill="none" stroke="black" stroke-width="0.4" d="M733.28,-318.04C844.92,-264.28 1185.94,-100.05 1310.32,-40.16"/>
<polygon fill="black" stroke="black" stroke-width="0.4" points="1312.1,-43.18 1319.59,-35.69 1309.06,-36.88 1312.1,-43.18"/>
<text text-anchor="middle" x="976.3" y="-182.9" font-family="Times,serif" font-size="14.00">stone*25040</text>
</g>
<!-- 8,1 (Molten Copper) -->
<g id="node11" class="node">
<title>8,1 (Molten Copper)</title>
<ellipse fill="none" stroke="black" cx="2746.63" cy="-335.33" rx="104.78" ry="18"/>
<text text-anchor="middle" x="2746.63" y="-331.63" font-family="Times,serif" font-size="14.00">8,1 (Molten Copper)</text>
</g>
<!-- 8,1 (Molten Copper)&#45;&gt;1,8 (HCl, Salt) -->
<g id="edge12" class="edge">
<title>8,1 (Molten Copper)&#45;&gt;1,8 (HCl, Salt)</title>
<path fill="none" stroke="black" stroke-width="0.42" d="M2755.38,-353.49C2823.6,-495.16 3270.07,-1422.26 3352.35,-1593.12"/>
<polygon fill="black" stroke="black" stroke-width="0.42" points="3349.23,-1594.71 3356.73,-1602.2 3355.54,-1591.68 3349.23,-1594.71"/>
<text text-anchor="middle" x="3008.36" y="-977.11" font-family="Times,serif" font-size="14.00">stone*26000</text>
</g>
<!-- 8,1 (Molten Copper)&#45;&gt;0,&#45;7 (Salt (stone/gravel destruction)) -->
<g id="edge30" class="edge">
<title>8,1 (Molten Copper)&#45;&gt;0,&#45;7 (Salt (stone/gravel destruction))</title>
<path fill="none" stroke="black" stroke-width="0.4" d="M2683.28,-320.87C2457.47,-269.33 1691.99,-94.61 1438.56,-36.77"/>
<polygon fill="black" stroke="black" stroke-width="0.4" points="1439.21,-33.33 1428.68,-34.51 1437.65,-40.15 1439.21,-33.33"/>
<text text-anchor="middle" x="2015.42" y="-182.62" font-family="Times,serif" font-size="14.00">stone*25008</text>
</g>
<!-- &#45;6,&#45;3 (Chromite Sand) -->
<g id="node13" class="node">
<title>&#45;6,&#45;3 (Chromite Sand)</title>
<ellipse fill="none" stroke="black" cx="3547.87" cy="-1620.16" rx="110.48" ry="18"/>
<text text-anchor="middle" x="3547.87" y="-1616.46" font-family="Times,serif" font-size="14.00">&#45;6,&#45;3 (Chromite Sand)</text>
</g>
<!-- &#45;6,&#45;3 (Chromite Sand)&#45;&gt;1,8 (HCl, Salt) -->
<g id="edge23" class="edge">
<title>&#45;6,&#45;3 (Chromite Sand)&#45;&gt;1,8 (HCl, Salt)</title>
<path fill="none" stroke="black" stroke-width="0.42" d="M3437.24,-1620.16C3437.16,-1620.16 3437.09,-1620.16 3437.01,-1620.16"/>
<polygon fill="black" stroke="black" stroke-width="0.42" points="3446.79,-1616.67 3436.79,-1620.16 3446.79,-1623.67 3446.79,-1616.67"/>
<text text-anchor="middle" x="3391.63" y="-1623.96" font-family="Times,serif" font-size="14.00">stone*26096</text>
</g>
<!-- &#45;6,&#45;8 (Convenient tin ore , fluid=z3&#45;reagent Help, how do I make Z3?) -->
<g id="node14" class="node">
<title>&#45;6,&#45;8 (Convenient tin ore , fluid=z3&#45;reagent Help, how do I make Z3?)</title>
<ellipse fill="none" stroke="black" cx="2087.69" cy="-18" rx="332.54" ry="18"/>
<text text-anchor="middle" x="2087.69" y="-14.3" font-family="Times,serif" font-size="14.00">&#45;6,&#45;8 (Convenient tin ore , fluid=z3&#45;reagent Help, how do I make Z3?)</text>
</g>
<!-- &#45;6,&#45;8 (Convenient tin ore , fluid=z3&#45;reagent Help, how do I make Z3?)&#45;&gt;1,8 (HCl, Salt) -->
<g id="edge31" class="edge">
<title>&#45;6,&#45;8 (Convenient tin ore , fluid=z3&#45;reagent Help, how do I make Z3?)&#45;&gt;1,8 (HCl, Salt)</title>
<path fill="none" stroke="black" stroke-width="0.4" d="M2102.04,-35.99C2231.17,-197.92 3191.82,-1402.53 3344.85,-1594.43"/>
<polygon fill="black" stroke="black" stroke-width="0.4" points="3342.16,-1596.67 3351.14,-1602.31 3347.64,-1592.31 3342.16,-1596.67"/>
<text text-anchor="middle" x="2677.95" y="-819.01" font-family="Times,serif" font-size="14.00">stone*25152</text>
</g>
<!-- &#45;6,&#45;8 (Convenient tin ore , fluid=z3&#45;reagent Help, how do I make Z3?)&#45;&gt;0,&#45;7 (Salt (stone/gravel destruction)) -->
<g id="edge26" class="edge">
<title>&#45;6,&#45;8 (Convenient tin ore , fluid=z3&#45;reagent Help, how do I make Z3?)&#45;&gt;0,&#45;7 (Salt (stone/gravel destruction))</title>
<path fill="none" stroke="black" stroke-width="0.4" d="M1754.91,-18C1683.48,-18 1610.37,-18 1546.58,-18"/>
<polygon fill="black" stroke="black" stroke-width="0.4" points="1546.43,-14.5 1536.43,-18 1546.43,-21.5 1546.43,-14.5"/>
<text text-anchor="middle" x="1605.25" y="-21.8" font-family="Times,serif" font-size="14.00">stone*25008</text>
</g>
<!-- &#45;7,&#45;8 (Tin mk2) -->
<g id="node15" class="node">
<title>&#45;7,&#45;8 (Tin mk2)</title>
<ellipse fill="none" stroke="black" cx="78.64" cy="-1620.16" rx="78.79" ry="18"/>
<text text-anchor="middle" x="78.64" y="-1616.46" font-family="Times,serif" font-size="14.00">&#45;7,&#45;8 (Tin mk2)</text>
</g>
<!-- &#45;7,&#45;8 (Tin mk2)&#45;&gt;0,0 (LE BUS) -->
<g id="edge27" class="edge">
<title>&#45;7,&#45;8 (Tin mk2)&#45;&gt;0,0 (LE BUS)</title>
<path fill="none" stroke="black" stroke-width="0.06" d="M82.75,-1602.18C104.67,-1506.15 207.93,-1053.72 234.92,-935.47"/>
<polygon fill="black" stroke="black" stroke-width="0.06" points="238.41,-935.92 237.22,-925.39 231.58,-934.36 238.41,-935.92"/>
<text text-anchor="middle" x="117.83" y="-1272.63" font-family="Times,serif" font-size="14.00">stone*3568</text>
</g>
<!-- &#45;7,&#45;8 (Tin mk2)&#45;&gt;0,&#45;7 (Salt (stone/gravel destruction)) -->
<g id="edge28" class="edge">
<title>&#45;7,&#45;8 (Tin mk2)&#45;&gt;0,&#45;7 (Salt (stone/gravel destruction))</title>
<path fill="none" stroke="black" stroke-width="1.2" d="M92.77,-1602.44C220.96,-1441.7 1181.59,-237.11 1335.54,-44.06"/>
<polygon fill="black" stroke="black" stroke-width="1.2" points="1338.37,-46.13 1341.87,-36.13 1332.89,-41.77 1338.37,-46.13"/>
<text text-anchor="middle" x="668.66" y="-827.05" font-family="Times,serif" font-size="14.00">stone*75024</text>
</g>
</g>
</svg>
