<?xml version="1.0" encoding="UTF-8" standalone="no"?>
<!DOCTYPE svg PUBLIC "-//W3C//DTD SVG 1.1//EN"
 "http://www.w3.org/Graphics/SVG/1.1/DTD/svg11.dtd">
<!-- Generated by graphviz version 2.43.0 (0)
 -->
<!-- Title: %3 Pages: 1 -->
<svg width="1761pt" height="44pt"
 viewBox="0.00 0.00 1760.83 44.00" xmlns="http://www.w3.org/2000/svg" xmlns:xlink="http://www.w3.org/1999/xlink">
<g id="graph0" class="graph" transform="scale(1 1) rotate(0) translate(4 40)">
<title>%3</title>
<polygon fill="white" stroke="transparent" points="-4,4 -4,-40 1756.83,-40 1756.83,4 -4,4"/>
<!-- 4,&#45;2 (Ceramic) -->
<g id="node1" class="node">
<title>4,&#45;2 (Ceramic)</title>
<ellipse fill="none" stroke="black" cx="706.2" cy="-18" rx="76.89" ry="18"/>
<text text-anchor="middle" x="706.2" y="-14.3" font-family="Times,serif" font-size="14.00">4,&#45;2 (Ceramic)</text>
</g>
<!-- 2,10 (Nickel plate) -->
<g id="node2" class="node">
<title>2,10 (Nickel plate)</title>
<ellipse fill="none" stroke="black" cx="951.73" cy="-18" rx="96.68" ry="18"/>
<text text-anchor="middle" x="951.73" y="-14.3" font-family="Times,serif" font-size="14.00">2,10 (Nickel plate)</text>
</g>
<!-- 4,&#45;2 (Ceramic)&#45;&gt;2,10 (Nickel plate) -->
<g id="edge1" class="edge">
<title>4,&#45;2 (Ceramic)&#45;&gt;2,10 (Nickel plate)</title>
<path fill="none" stroke="black" stroke-width="2.48" d="M783.22,-18C802.67,-18 823.92,-18 844.57,-18"/>
<polygon fill="black" stroke="black" stroke-width="2.48" points="844.65,-21.5 854.65,-18 844.65,-14.5 844.65,-21.5"/>
<text text-anchor="middle" x="813.89" y="-6.8" font-family="Times,serif" font-size="14.00">ore&#45;nickel*80672</text>
</g>
<!-- 4,11 (Cobalt Extract) -->
<g id="node5" class="node">
<title>4,11 (Cobalt Extract)</title>
<ellipse fill="none" stroke="black" cx="108.54" cy="-18" rx="108.58" ry="18"/>
<text text-anchor="middle" x="108.54" y="-14.3" font-family="Times,serif" font-size="14.00">4,11 (Cobalt Extract)</text>
</g>
<!-- 4,&#45;2 (Ceramic)&#45;&gt;4,11 (Cobalt Extract) -->
<g id="edge3" class="edge">
<title>4,&#45;2 (Ceramic)&#45;&gt;4,11 (Cobalt Extract)</title>
<path fill="none" stroke="black" stroke-width="0.16" d="M629.29,-18C527.51,-18 347.04,-18 227.58,-18"/>
<polygon fill="black" stroke="black" stroke-width="0.16" points="227.29,-14.5 217.29,-18 227.29,-21.5 227.29,-14.5"/>
<text text-anchor="middle" x="371.94" y="-21.8" font-family="Times,serif" font-size="14.00">ore&#45;nickel*5152</text>
</g>
<!-- &#45;3,&#45;1 (item=boron&#45;trioxide Boron products) -->
<g id="node3" class="node">
<title>&#45;3,&#45;1 (item=boron&#45;trioxide Boron products)</title>
<ellipse fill="none" stroke="black" cx="1330.51" cy="-18" rx="209.86" ry="18"/>
<text text-anchor="middle" x="1330.51" y="-14.3" font-family="Times,serif" font-size="14.00">&#45;3,&#45;1 (item=boron&#45;trioxide Boron products)</text>
</g>
<!-- &#45;3,&#45;1 (item=boron&#45;trioxide Boron products)&#45;&gt;2,10 (Nickel plate) -->
<g id="edge4" class="edge">
<title>&#45;3,&#45;1 (item=boron&#45;trioxide Boron products)&#45;&gt;2,10 (Nickel plate)</title>
<path fill="none" stroke="black" stroke-width="1.24" d="M1120.35,-18C1099.16,-18 1078.31,-18 1058.9,-18"/>
<polygon fill="black" stroke="black" stroke-width="1.24" points="1058.88,-14.5 1048.88,-18 1058.88,-21.5 1058.88,-14.5"/>
<text text-anchor="middle" x="1059.12" y="-6.8" font-family="Times,serif" font-size="14.00">ore&#45;nickel*40448</text>
</g>
<!-- &#45;2,&#45;3 (Trains) -->
<g id="node4" class="node">
<title>&#45;2,&#45;3 (Trains)</title>
<ellipse fill="none" stroke="black" cx="1682.63" cy="-18" rx="70.39" ry="18"/>
<text text-anchor="middle" x="1682.63" y="-14.3" font-family="Times,serif" font-size="14.00">&#45;2,&#45;3 (Trains)</text>
</g>
<!-- &#45;3,&#45;1 (item=boron&#45;trioxide Boron products)&#45;&gt;&#45;2,&#45;3 (Trains) -->
<g id="edge2" class="edge">
<title>&#45;3,&#45;1 (item=boron&#45;trioxide Boron products)&#45;&gt;&#45;2,&#45;3 (Trains)</title>
<path fill="none" stroke="black" stroke-width="0.13" d="M1540.68,-18C1562.27,-18 1583.15,-18 1601.96,-18"/>
<polygon fill="black" stroke="black" stroke-width="0.13" points="1602.18,-21.5 1612.18,-18 1602.18,-14.5 1602.18,-21.5"/>
<text text-anchor="middle" x="1571.32" y="-6.8" font-family="Times,serif" font-size="14.00">ore&#45;nickel*4080</text>
</g>
</g>
</svg>
