<?xml version="1.0" encoding="UTF-8" standalone="no"?>
<!DOCTYPE svg PUBLIC "-//W3C//DTD SVG 1.1//EN"
 "http://www.w3.org/Graphics/SVG/1.1/DTD/svg11.dtd">
<!-- Generated by graphviz version 2.43.0 (0)
 -->
<!-- Title: %3 Pages: 1 -->
<svg width="1114pt" height="838pt"
 viewBox="0.00 0.00 1113.88 837.76" xmlns="http://www.w3.org/2000/svg" xmlns:xlink="http://www.w3.org/1999/xlink">
<g id="graph0" class="graph" transform="scale(1 1) rotate(0) translate(4 833.76)">
<title>%3</title>
<polygon fill="white" stroke="transparent" points="-4,4 -4,-833.76 1109.88,-833.76 1109.88,4 -4,4"/>
<!-- 3,&#45;1 (Nitrogen, Oxygen) -->
<g id="node1" class="node">
<title>3,&#45;1 (Nitrogen, Oxygen)</title>
<ellipse fill="none" stroke="black" cx="609.47" cy="-414.52" rx="120.48" ry="18"/>
<text text-anchor="middle" x="609.47" y="-410.82" font-family="Times,serif" font-size="14.00">3,&#45;1 (Nitrogen, Oxygen)</text>
</g>
<!-- &#45;2,9 (molten steel) -->
<g id="node2" class="node">
<title>&#45;2,9 (molten steel)</title>
<ellipse fill="none" stroke="black" cx="1010.34" cy="-414.52" rx="95.58" ry="18"/>
<text text-anchor="middle" x="1010.34" y="-410.82" font-family="Times,serif" font-size="14.00">&#45;2,9 (molten steel)</text>
</g>
<!-- 3,&#45;1 (Nitrogen, Oxygen)&#45;&gt;&#45;2,9 (molten steel) -->
<g id="edge1" class="edge">
<title>3,&#45;1 (Nitrogen, Oxygen)&#45;&gt;&#45;2,9 (molten steel)</title>
<path fill="none" stroke="black" stroke-width="2.79" d="M729.74,-414.52C785.32,-414.52 850.73,-414.52 904.42,-414.52"/>
<polygon fill="black" stroke="black" stroke-width="2.79" points="904.65,-418.02 914.65,-414.52 904.65,-411.02 904.65,-418.02"/>
<text text-anchor="middle" x="817.08" y="-403.32" font-family="Times,serif" font-size="14.00">oxygen&#45;barrel*78334</text>
</g>
<!-- 2,10 (Nickel plate and Nichrome) -->
<g id="node3" class="node">
<title>2,10 (Nickel plate and Nichrome)</title>
<ellipse fill="none" stroke="black" cx="663.25" cy="-811.76" rx="165.17" ry="18"/>
<text text-anchor="middle" x="663.25" y="-808.06" font-family="Times,serif" font-size="14.00">2,10 (Nickel plate and Nichrome)</text>
</g>
<!-- 3,&#45;1 (Nitrogen, Oxygen)&#45;&gt;2,10 (Nickel plate and Nichrome) -->
<g id="edge2" class="edge">
<title>3,&#45;1 (Nitrogen, Oxygen)&#45;&gt;2,10 (Nickel plate and Nichrome)</title>
<path fill="none" stroke="black" stroke-width="0.82" d="M611.92,-432.62C620.46,-495.69 648.95,-706.15 659.38,-783.19"/>
<polygon fill="black" stroke="black" stroke-width="0.82" points="655.98,-784.11 660.79,-793.55 662.91,-783.18 655.98,-784.11"/>
<text text-anchor="middle" x="560.15" y="-611.7" font-family="Times,serif" font-size="14.00">oxygen&#45;barrel*22965</text>
</g>
<!-- &#45;2,8 (syngas from coal dust and also wood) -->
<g id="node4" class="node">
<title>&#45;2,8 (syngas from coal dust and also wood)</title>
<ellipse fill="none" stroke="black" cx="208.63" cy="-409.32" rx="208.76" ry="18"/>
<text text-anchor="middle" x="208.63" y="-405.62" font-family="Times,serif" font-size="14.00">&#45;2,8 (syngas from coal dust and also wood)</text>
</g>
<!-- 3,&#45;1 (Nitrogen, Oxygen)&#45;&gt;&#45;2,8 (syngas from coal dust and also wood) -->
<g id="edge3" class="edge">
<title>3,&#45;1 (Nitrogen, Oxygen)&#45;&gt;&#45;2,8 (syngas from coal dust and also wood)</title>
<path fill="none" stroke="black" stroke-width="0.01" d="M489.48,-412.96C469.07,-412.69 447.34,-412.41 425.34,-412.13"/>
<polygon fill="black" stroke="black" stroke-width="0.01" points="425.26,-408.63 415.22,-412 425.17,-415.63 425.26,-408.63"/>
<text text-anchor="middle" x="424.16" y="-401.34" font-family="Times,serif" font-size="14.00">oxygen&#45;barrel*224</text>
</g>
<!-- 2,&#45;2 (Tin Plate, Organic Solvent) -->
<g id="node5" class="node">
<title>2,&#45;2 (Tin Plate, Organic Solvent)</title>
<ellipse fill="none" stroke="black" cx="668.4" cy="-18" rx="159.77" ry="18"/>
<text text-anchor="middle" x="668.4" y="-14.3" font-family="Times,serif" font-size="14.00">2,&#45;2 (Tin Plate, Organic Solvent)</text>
</g>
<!-- 3,&#45;1 (Nitrogen, Oxygen)&#45;&gt;2,&#45;2 (Tin Plate, Organic Solvent) -->
<g id="edge4" class="edge">
<title>3,&#45;1 (Nitrogen, Oxygen)&#45;&gt;2,&#45;2 (Tin Plate, Organic Solvent)</title>
<path fill="none" stroke="black" stroke-width="0.38" d="M612.15,-396.45C621.51,-333.49 652.73,-123.42 664.16,-46.52"/>
<polygon fill="black" stroke="black" stroke-width="0.38" points="667.69,-46.58 665.7,-36.17 660.77,-45.55 667.69,-46.58"/>
<text text-anchor="middle" x="562.66" y="-225.28" font-family="Times,serif" font-size="14.00">oxygen&#45;barrel*10693</text>
</g>
</g>
</svg>
