<?xml version="1.0" encoding="UTF-8" standalone="no"?>
<!DOCTYPE svg PUBLIC "-//W3C//DTD SVG 1.1//EN"
 "http://www.w3.org/Graphics/SVG/1.1/DTD/svg11.dtd">
<!-- Generated by graphviz version 2.43.0 (0)
 -->
<!-- Title: %3 Pages: 1 -->
<svg width="853pt" height="688pt"
 viewBox="0.00 0.00 853.29 688.46" xmlns="http://www.w3.org/2000/svg" xmlns:xlink="http://www.w3.org/1999/xlink">
<g id="graph0" class="graph" transform="scale(1 1) rotate(0) translate(4 684.46)">
<title>%3</title>
<polygon fill="white" stroke="transparent" points="-4,4 -4,-684.46 849.29,-684.46 849.29,4 -4,4"/>
<!-- 0,0 (LE BUS) -->
<g id="node1" class="node">
<title>0,0 (LE BUS)</title>
<ellipse fill="none" stroke="black" cx="71.49" cy="-340.23" rx="71.49" ry="18"/>
<text text-anchor="middle" x="71.49" y="-336.53" font-family="Times,serif" font-size="14.00">0,0 (LE BUS)</text>
</g>
<!-- &#45;6,&#45;9 (Burnination) -->
<g id="node2" class="node">
<title>&#45;6,&#45;9 (Burnination)</title>
<ellipse fill="none" stroke="black" cx="691.25" cy="-340.23" rx="96.38" ry="18"/>
<text text-anchor="middle" x="691.25" y="-336.53" font-family="Times,serif" font-size="14.00">&#45;6,&#45;9 (Burnination)</text>
</g>
<!-- 0,0 (LE BUS)&#45;&gt;&#45;6,&#45;9 (Burnination) -->
<g id="edge1" class="edge">
<title>0,0 (LE BUS)&#45;&gt;&#45;6,&#45;9 (Burnination)</title>
<path fill="none" stroke="black" stroke-width="1.69" d="M143.19,-340.23C251.77,-340.23 458.6,-340.23 584.79,-340.23"/>
<polygon fill="black" stroke="black" stroke-width="1.69" points="584.86,-343.73 594.86,-340.23 584.86,-336.73 584.86,-343.73"/>
<text text-anchor="middle" x="320.99" y="-344.03" font-family="Times,serif" font-size="14.00">sand*75440</text>
</g>
<!-- &#45;7,&#45;2 (Uranium Processing) -->
<g id="node3" class="node">
<title>&#45;7,&#45;2 (Uranium Processing)</title>
<ellipse fill="none" stroke="black" cx="691.25" cy="-18" rx="135.68" ry="18"/>
<text text-anchor="middle" x="691.25" y="-14.3" font-family="Times,serif" font-size="14.00">&#45;7,&#45;2 (Uranium Processing)</text>
</g>
<!-- &#45;7,&#45;2 (Uranium Processing)&#45;&gt;&#45;6,&#45;9 (Burnination) -->
<g id="edge2" class="edge">
<title>&#45;7,&#45;2 (Uranium Processing)&#45;&gt;&#45;6,&#45;9 (Burnination)</title>
<path fill="none" stroke="black" stroke-width="0.74" d="M691.25,-36.25C691.25,-89.86 691.25,-247.19 691.25,-311.91"/>
<polygon fill="black" stroke="black" stroke-width="0.74" points="687.75,-312.18 691.25,-322.18 694.75,-312.18 687.75,-312.18"/>
<text text-anchor="middle" x="648.25" y="-177.88" font-family="Times,serif" font-size="14.00">sand*32912</text>
</g>
<!-- 4,&#45;8 (REOOOOOOOOOOOOOO) -->
<g id="node4" class="node">
<title>4,&#45;8 (REOOOOOOOOOOOOOO)</title>
<ellipse fill="none" stroke="black" cx="691.25" cy="-662.46" rx="154.07" ry="18"/>
<text text-anchor="middle" x="691.25" y="-658.76" font-family="Times,serif" font-size="14.00">4,&#45;8 (REOOOOOOOOOOOOOO)</text>
</g>
<!-- 4,&#45;8 (REOOOOOOOOOOOOOO)&#45;&gt;&#45;6,&#45;9 (Burnination) -->
<g id="edge3" class="edge">
<title>4,&#45;8 (REOOOOOOOOOOOOOO)&#45;&gt;&#45;6,&#45;9 (Burnination)</title>
<path fill="none" stroke="black" stroke-width="0.57" d="M691.25,-644.21C691.25,-590.59 691.25,-433.27 691.25,-368.54"/>
<polygon fill="black" stroke="black" stroke-width="0.57" points="694.75,-368.28 691.25,-358.28 687.75,-368.28 694.75,-368.28"/>
<text text-anchor="middle" x="648.25" y="-510.17" font-family="Times,serif" font-size="14.00">sand*25400</text>
</g>
</g>
</svg>
