<?xml version="1.0" encoding="UTF-8" standalone="no"?>
<!DOCTYPE svg PUBLIC "-//W3C//DTD SVG 1.1//EN"
 "http://www.w3.org/Graphics/SVG/1.1/DTD/svg11.dtd">
<!-- Generated by graphviz version 2.43.0 (0)
 -->
<!-- Title: %3 Pages: 1 -->
<svg width="1150pt" height="44pt"
 viewBox="0.00 0.00 1149.66 44.00" xmlns="http://www.w3.org/2000/svg" xmlns:xlink="http://www.w3.org/1999/xlink">
<g id="graph0" class="graph" transform="scale(1 1) rotate(0) translate(4 40)">
<title>%3</title>
<polygon fill="white" stroke="transparent" points="-4,4 -4,-40 1145.66,-40 1145.66,4 -4,4"/>
<!-- 0,7 (Coal Gas) -->
<g id="node1" class="node">
<title>0,7 (Coal Gas)</title>
<ellipse fill="none" stroke="black" cx="477.56" cy="-18" rx="76.09" ry="18"/>
<text text-anchor="middle" x="477.56" y="-14.3" font-family="Times,serif" font-size="14.00">0,7 (Coal Gas)</text>
</g>
<!-- &#45;4,&#45;4 (Reserved For Aluminium Ore Drop, Aluminium) -->
<g id="node2" class="node">
<title>&#45;4,&#45;4 (Reserved For Aluminium Ore Drop, Aluminium)</title>
<ellipse fill="none" stroke="black" cx="883.63" cy="-18" rx="258.05" ry="18"/>
<text text-anchor="middle" x="883.63" y="-14.3" font-family="Times,serif" font-size="14.00">&#45;4,&#45;4 (Reserved For Aluminium Ore Drop, Aluminium)</text>
</g>
<!-- 0,7 (Coal Gas)&#45;&gt;&#45;4,&#45;4 (Reserved For Aluminium Ore Drop, Aluminium) -->
<g id="edge1" class="edge">
<title>0,7 (Coal Gas)&#45;&gt;&#45;4,&#45;4 (Reserved For Aluminium Ore Drop, Aluminium)</title>
<path fill="none" stroke="black" stroke-width="1.25" d="M553.94,-18C572.47,-18 593.34,-18 615.36,-18"/>
<polygon fill="black" stroke="black" stroke-width="1.25" points="615.55,-21.5 625.55,-18 615.55,-14.5 615.55,-21.5"/>
<text text-anchor="middle" x="584.65" y="-6.8" font-family="Times,serif" font-size="14.00">coal&#45;gas&#45;barrel*8000</text>
</g>
<!-- 0,0 (LE BUS) -->
<g id="node3" class="node">
<title>0,0 (LE BUS)</title>
<ellipse fill="none" stroke="black" cx="71.49" cy="-18" rx="71.49" ry="18"/>
<text text-anchor="middle" x="71.49" y="-14.3" font-family="Times,serif" font-size="14.00">0,0 (LE BUS)</text>
</g>
<!-- 0,7 (Coal Gas)&#45;&gt;0,0 (LE BUS) -->
<g id="edge2" class="edge">
<title>0,7 (Coal Gas)&#45;&gt;0,0 (LE BUS)</title>
<path fill="none" stroke="black" stroke-width="0.75" d="M401.19,-18C330.57,-18 225.91,-18 153.54,-18"/>
<polygon fill="black" stroke="black" stroke-width="0.75" points="153.1,-14.5 143.1,-18 153.1,-21.5 153.1,-14.5"/>
<text text-anchor="middle" x="314.61" y="-6.8" font-family="Times,serif" font-size="14.00">coal&#45;gas&#45;barrel*4824</text>
</g>
</g>
</svg>
