<?xml version="1.0" encoding="UTF-8" standalone="no"?>
<!DOCTYPE svg PUBLIC "-//W3C//DTD SVG 1.1//EN"
 "http://www.w3.org/Graphics/SVG/1.1/DTD/svg11.dtd">
<!-- Generated by graphviz version 2.43.0 (0)
 -->
<!-- Title: %3 Pages: 1 -->
<svg width="1487pt" height="1066pt"
 viewBox="0.00 0.00 1487.38 1065.94" xmlns="http://www.w3.org/2000/svg" xmlns:xlink="http://www.w3.org/1999/xlink">
<g id="graph0" class="graph" transform="scale(1 1) rotate(0) translate(4 1061.94)">
<title>%3</title>
<polygon fill="white" stroke="transparent" points="-4,4 -4,-1061.94 1483.38,-1061.94 1483.38,4 -4,4"/>
<!-- 1,6 (Sodium Hydroxide, These new bullets are fun, Limestone) -->
<g id="node1" class="node">
<title>1,6 (Sodium Hydroxide, These new bullets are fun, Limestone)</title>
<ellipse fill="none" stroke="black" cx="301.57" cy="-213.17" rx="301.65" ry="18"/>
<text text-anchor="middle" x="301.57" y="-209.47" font-family="Times,serif" font-size="14.00">1,6 (Sodium Hydroxide, These new bullets are fun, Limestone)</text>
</g>
<!-- &#45;5,&#45;4 (low priority (slaked)? lime) -->
<g id="node2" class="node">
<title>&#45;5,&#45;4 (low priority (slaked)? lime)</title>
<ellipse fill="none" stroke="black" cx="301.57" cy="-844.77" rx="162.47" ry="18"/>
<text text-anchor="middle" x="301.57" y="-841.07" font-family="Times,serif" font-size="14.00">&#45;5,&#45;4 (low priority (slaked)? lime)</text>
</g>
<!-- 1,6 (Sodium Hydroxide, These new bullets are fun, Limestone)&#45;&gt;&#45;5,&#45;4 (low priority (slaked)? lime) -->
<g id="edge1" class="edge">
<title>1,6 (Sodium Hydroxide, These new bullets are fun, Limestone)&#45;&gt;&#45;5,&#45;4 (low priority (slaked)? lime)</title>
<path fill="none" stroke="black" stroke-width="0.06" d="M301.57,-231.39C301.57,-320.17 301.57,-707.52 301.57,-816.27"/>
<polygon fill="black" stroke="black" stroke-width="0.06" points="298.07,-816.47 301.57,-826.47 305.07,-816.47 298.07,-816.47"/>
<text text-anchor="middle" x="249.57" y="-527.63" font-family="Times,serif" font-size="14.00">limestone*704</text>
</g>
<!-- &#45;2,6 (Wrong ratio of Calcium Carbide to Acetalene) -->
<g id="node4" class="node">
<title>&#45;2,6 (Wrong ratio of Calcium Carbide to Acetalene)</title>
<ellipse fill="none" stroke="black" cx="902.25" cy="-18" rx="245.86" ry="18"/>
<text text-anchor="middle" x="902.25" y="-14.3" font-family="Times,serif" font-size="14.00">&#45;2,6 (Wrong ratio of Calcium Carbide to Acetalene)</text>
</g>
<!-- 1,6 (Sodium Hydroxide, These new bullets are fun, Limestone)&#45;&gt;&#45;2,6 (Wrong ratio of Calcium Carbide to Acetalene) -->
<g id="edge7" class="edge">
<title>1,6 (Sodium Hydroxide, These new bullets are fun, Limestone)&#45;&gt;&#45;2,6 (Wrong ratio of Calcium Carbide to Acetalene)</title>
<path fill="none" stroke="black" stroke-width="0.34" d="M356.21,-195.42C467.46,-159.27 719.78,-77.29 838.39,-38.75"/>
<polygon fill="black" stroke="black" stroke-width="0.34" points="839.64,-42.02 848.07,-35.6 837.48,-35.37 839.64,-42.02"/>
<text text-anchor="middle" x="540.8" y="-120.89" font-family="Times,serif" font-size="14.00">limestone*4314</text>
</g>
<!-- 0,0 (LE BUS) -->
<g id="node5" class="node">
<title>0,0 (LE BUS)</title>
<ellipse fill="none" stroke="black" cx="902.25" cy="-1039.94" rx="71.49" ry="18"/>
<text text-anchor="middle" x="902.25" y="-1036.24" font-family="Times,serif" font-size="14.00">0,0 (LE BUS)</text>
</g>
<!-- 1,6 (Sodium Hydroxide, These new bullets are fun, Limestone)&#45;&gt;0,0 (LE BUS) -->
<g id="edge4" class="edge">
<title>1,6 (Sodium Hydroxide, These new bullets are fun, Limestone)&#45;&gt;0,0 (LE BUS)</title>
<path fill="none" stroke="black" stroke-width="0.52" d="M314.68,-231.21C392.25,-337.98 791.05,-886.88 883.22,-1013.74"/>
<polygon fill="black" stroke="black" stroke-width="0.52" points="880.61,-1016.11 889.32,-1022.14 886.27,-1011.99 880.61,-1016.11"/>
<text text-anchor="middle" x="542.45" y="-626.28" font-family="Times,serif" font-size="14.00">limestone*6513</text>
</g>
<!-- 1,5 (Limestone) -->
<g id="node3" class="node">
<title>1,5 (Limestone)</title>
<ellipse fill="none" stroke="black" cx="1273.49" cy="-528.97" rx="83.39" ry="18"/>
<text text-anchor="middle" x="1273.49" y="-525.27" font-family="Times,serif" font-size="14.00">1,5 (Limestone)</text>
</g>
<!-- 1,5 (Limestone)&#45;&gt;&#45;5,&#45;4 (low priority (slaked)? lime) -->
<g id="edge2" class="edge">
<title>1,5 (Limestone)&#45;&gt;&#45;5,&#45;4 (low priority (slaked)? lime)</title>
<path fill="none" stroke="black" stroke-width="0.25" d="M1227.27,-543.99C1068.45,-595.59 544.92,-765.7 363.85,-824.53"/>
<polygon fill="black" stroke="black" stroke-width="0.25" points="362.64,-821.24 354.21,-827.66 364.8,-827.9 362.64,-821.24"/>
<text text-anchor="middle" x="739.06" y="-688.06" font-family="Times,serif" font-size="14.00">limestone*3216</text>
</g>
<!-- 1,5 (Limestone)&#45;&gt;&#45;2,6 (Wrong ratio of Calcium Carbide to Acetalene) -->
<g id="edge3" class="edge">
<title>1,5 (Limestone)&#45;&gt;&#45;2,6 (Wrong ratio of Calcium Carbide to Acetalene)</title>
<path fill="none" stroke="black" stroke-width="1.6" d="M1260.5,-511.08C1204.93,-434.59 987.1,-134.78 921.22,-44.11"/>
<polygon fill="black" stroke="black" stroke-width="1.6" points="924.04,-42.04 915.34,-36.01 918.38,-46.15 924.04,-42.04"/>
<text text-anchor="middle" x="1029.86" y="-281.4" font-family="Times,serif" font-size="14.00">limestone*20176</text>
</g>
<!-- 1,5 (Limestone)&#45;&gt;0,0 (LE BUS) -->
<g id="edge5" class="edge">
<title>1,5 (Limestone)&#45;&gt;0,0 (LE BUS)</title>
<path fill="none" stroke="black" stroke-width="4.06" d="M1260.5,-546.85C1204.92,-623.35 987.05,-923.23 921.2,-1013.86"/>
<polygon fill="black" stroke="black" stroke-width="4.06" points="918.14,-1012.02 915.14,-1022.2 923.9,-1016.2 918.14,-1012.02"/>
<text text-anchor="middle" x="1029.85" y="-784.16" font-family="Times,serif" font-size="14.00">limestone*51248</text>
</g>
<!-- 2,14 (Latex) -->
<g id="node6" class="node">
<title>2,14 (Latex)</title>
<ellipse fill="none" stroke="black" cx="1412.44" cy="-528.97" rx="66.89" ry="18"/>
<text text-anchor="middle" x="1412.44" y="-525.27" font-family="Times,serif" font-size="14.00">2,14 (Latex)</text>
</g>
<!-- 1,5 (Limestone)&#45;&gt;2,14 (Latex) -->
<g id="edge6" class="edge">
<title>1,5 (Limestone)&#45;&gt;2,14 (Latex)</title>
<path fill="none" stroke="black" stroke-width="0.17" d="M1356.72,-528.97C1356.78,-528.97 1356.84,-528.97 1356.9,-528.97"/>
<polygon fill="black" stroke="black" stroke-width="0.17" points="1347.07,-532.47 1357.07,-528.97 1347.07,-525.47 1347.07,-532.47"/>
<text text-anchor="middle" x="1413.31" y="-532.77" font-family="Times,serif" font-size="14.00">limestone*2112</text>
</g>
</g>
</svg>
