<?xml version="1.0" encoding="UTF-8" standalone="no"?>
<!DOCTYPE svg PUBLIC "-//W3C//DTD SVG 1.1//EN"
 "http://www.w3.org/Graphics/SVG/1.1/DTD/svg11.dtd">
<!-- Generated by graphviz version 2.43.0 (0)
 -->
<!-- Title: %3 Pages: 1 -->
<svg width="728pt" height="635pt"
 viewBox="0.00 0.00 728.11 635.03" xmlns="http://www.w3.org/2000/svg" xmlns:xlink="http://www.w3.org/1999/xlink">
<g id="graph0" class="graph" transform="scale(1 1) rotate(0) translate(4 631.03)">
<title>%3</title>
<polygon fill="white" stroke="transparent" points="-4,4 -4,-631.03 724.11,-631.03 724.11,4 -4,4"/>
<!-- &#45;2,9 (molten steel) -->
<g id="node1" class="node">
<title>&#45;2,9 (molten steel)</title>
<ellipse fill="none" stroke="black" cx="319.89" cy="-321.15" rx="95.58" ry="18"/>
<text text-anchor="middle" x="319.89" y="-317.45" font-family="Times,serif" font-size="14.00">&#45;2,9 (molten steel)</text>
</g>
<!-- 0,0 (LE BUS) -->
<g id="node2" class="node">
<title>0,0 (LE BUS)</title>
<ellipse fill="none" stroke="black" cx="648.62" cy="-321.15" rx="71.49" ry="18"/>
<text text-anchor="middle" x="648.62" y="-317.45" font-family="Times,serif" font-size="14.00">0,0 (LE BUS)</text>
</g>
<!-- &#45;2,9 (molten steel)&#45;&gt;0,0 (LE BUS) -->
<g id="edge1" class="edge">
<title>&#45;2,9 (molten steel)&#45;&gt;0,0 (LE BUS)</title>
<path fill="none" stroke="black" stroke-width="1.74" d="M415.85,-321.15C463.78,-321.15 521.14,-321.15 566.93,-321.15"/>
<polygon fill="black" stroke="black" stroke-width="1.74" points="567.11,-324.65 577.11,-321.15 567.11,-317.65 567.11,-324.65"/>
<text text-anchor="middle" x="491.39" y="-309.95" font-family="Times,serif" font-size="14.00">molten&#45;steel&#45;barrel*11912</text>
</g>
<!-- &#45;1,11 (Steel Plate (from molten)) -->
<g id="node3" class="node">
<title>&#45;1,11 (Steel Plate (from molten))</title>
<ellipse fill="none" stroke="black" cx="161.19" cy="-609.03" rx="161.37" ry="18"/>
<text text-anchor="middle" x="161.19" y="-605.33" font-family="Times,serif" font-size="14.00">&#45;1,11 (Steel Plate (from molten))</text>
</g>
<!-- &#45;2,9 (molten steel)&#45;&gt;&#45;1,11 (Steel Plate (from molten)) -->
<g id="edge2" class="edge">
<title>&#45;2,9 (molten steel)&#45;&gt;&#45;1,11 (Steel Plate (from molten))</title>
<path fill="none" stroke="black" stroke-width="1.19" d="M309.96,-339.16C282.96,-388.13 208.09,-523.95 176.05,-582.07"/>
<polygon fill="black" stroke="black" stroke-width="1.19" points="172.87,-580.58 171.11,-591.03 179,-583.96 172.87,-580.58"/>
<text text-anchor="middle" x="153" y="-464.42" font-family="Times,serif" font-size="14.00">molten&#45;steel&#45;barrel*8118</text>
</g>
<!-- 6,3 (Things from molten) -->
<g id="node4" class="node">
<title>6,3 (Things from molten)</title>
<ellipse fill="none" stroke="black" cx="192.77" cy="-18" rx="126.18" ry="18"/>
<text text-anchor="middle" x="192.77" y="-14.3" font-family="Times,serif" font-size="14.00">6,3 (Things from molten)</text>
</g>
<!-- &#45;2,9 (molten steel)&#45;&gt;6,3 (Things from molten) -->
<g id="edge3" class="edge">
<title>&#45;2,9 (molten steel)&#45;&gt;6,3 (Things from molten)</title>
<path fill="none" stroke="black" stroke-width="0.07" d="M312.32,-303.1C290.95,-252.14 230.07,-106.97 204.41,-45.76"/>
<polygon fill="black" stroke="black" stroke-width="0.07" points="207.55,-44.21 200.46,-36.34 201.1,-46.92 207.55,-44.21"/>
<text text-anchor="middle" x="172.86" y="-178.23" font-family="Times,serif" font-size="14.00">molten&#45;steel&#45;barrel*512</text>
</g>
</g>
</svg>
