<?xml version="1.0" encoding="UTF-8" standalone="no"?>
<!DOCTYPE svg PUBLIC "-//W3C//DTD SVG 1.1//EN"
 "http://www.w3.org/Graphics/SVG/1.1/DTD/svg11.dtd">
<!-- Generated by graphviz version 2.43.0 (0)
 -->
<!-- Title: %3 Pages: 1 -->
<svg width="549pt" height="464pt"
 viewBox="0.00 0.00 549.12 464.02" xmlns="http://www.w3.org/2000/svg" xmlns:xlink="http://www.w3.org/1999/xlink">
<g id="graph0" class="graph" transform="scale(1 1) rotate(0) translate(4 460.02)">
<title>%3</title>
<polygon fill="white" stroke="transparent" points="-4,4 -4,-460.02 545.12,-460.02 545.12,4 -4,4"/>
<!-- 3,&#45;2 () -->
<g id="node1" class="node">
<title>3,&#45;2 ()</title>
<ellipse fill="none" stroke="black" cx="235.14" cy="-224.55" rx="38.19" ry="18"/>
<text text-anchor="middle" x="235.14" y="-220.85" font-family="Times,serif" font-size="14.00">3,&#45;2 ()</text>
</g>
<!-- 0,0 (LE BUS) -->
<g id="node2" class="node">
<title>0,0 (LE BUS)</title>
<ellipse fill="none" stroke="black" cx="469.62" cy="-224.55" rx="71.49" ry="18"/>
<text text-anchor="middle" x="469.62" y="-220.85" font-family="Times,serif" font-size="14.00">0,0 (LE BUS)</text>
</g>
<!-- 3,&#45;2 ()&#45;&gt;0,0 (LE BUS) -->
<g id="edge1" class="edge">
<title>3,&#45;2 ()&#45;&gt;0,0 (LE BUS)</title>
<path fill="none" stroke="black" stroke-width="0.5" d="M273.59,-224.55C304.49,-224.55 348.96,-224.55 387.74,-224.55"/>
<polygon fill="black" stroke="black" stroke-width="0.5" points="387.98,-228.05 397.98,-224.55 387.98,-221.05 387.98,-228.05"/>
<text text-anchor="middle" x="330.67" y="-213.35" font-family="Times,serif" font-size="14.00">rare&#45;earth&#45;ore*6096</text>
</g>
<!-- 4,11 (Cobalt Extract) -->
<g id="node3" class="node">
<title>4,11 (Cobalt Extract)</title>
<ellipse fill="none" stroke="black" cx="138.11" cy="-438.02" rx="108.58" ry="18"/>
<text text-anchor="middle" x="138.11" y="-434.32" font-family="Times,serif" font-size="14.00">4,11 (Cobalt Extract)</text>
</g>
<!-- 3,&#45;2 ()&#45;&gt;4,11 (Cobalt Extract) -->
<g id="edge2" class="edge">
<title>3,&#45;2 ()&#45;&gt;4,11 (Cobalt Extract)</title>
<path fill="none" stroke="black" stroke-width="2.17" d="M227.03,-242.38C210.1,-279.65 170.85,-365.99 150.64,-410.46"/>
<polygon fill="black" stroke="black" stroke-width="2.17" points="147.35,-409.23 146.4,-419.79 153.73,-412.13 147.35,-409.23"/>
<text text-anchor="middle" x="112.34" y="-330.22" font-family="Times,serif" font-size="14.00">rare&#45;earth&#45;ore*26496</text>
</g>
<!-- &#45;2,5 (Rare Earth Oxides) -->
<g id="node4" class="node">
<title>&#45;2,5 (Rare Earth Oxides)</title>
<ellipse fill="none" stroke="black" cx="124.14" cy="-18" rx="124.28" ry="18"/>
<text text-anchor="middle" x="124.14" y="-14.3" font-family="Times,serif" font-size="14.00">&#45;2,5 (Rare Earth Oxides)</text>
</g>
<!-- 3,&#45;2 ()&#45;&gt;&#45;2,5 (Rare Earth Oxides) -->
<g id="edge3" class="edge">
<title>3,&#45;2 ()&#45;&gt;&#45;2,5 (Rare Earth Oxides)</title>
<path fill="none" stroke="black" stroke-width="0.33" d="M225.67,-206.94C206.27,-170.84 161.89,-88.24 138.76,-45.2"/>
<polygon fill="black" stroke="black" stroke-width="0.33" points="141.71,-43.31 133.9,-36.15 135.55,-46.62 141.71,-43.31"/>
<text text-anchor="middle" x="110.22" y="-129.87" font-family="Times,serif" font-size="14.00">rare&#45;earth&#45;ore*4048</text>
</g>
</g>
</svg>
