<?xml version="1.0" encoding="UTF-8" standalone="no"?>
<!DOCTYPE svg PUBLIC "-//W3C//DTD SVG 1.1//EN"
 "http://www.w3.org/Graphics/SVG/1.1/DTD/svg11.dtd">
<!-- Generated by graphviz version 2.43.0 (0)
 -->
<!-- Title: %3 Pages: 1 -->
<svg width="1964pt" height="1429pt"
 viewBox="0.00 0.00 1964.03 1429.26" xmlns="http://www.w3.org/2000/svg" xmlns:xlink="http://www.w3.org/1999/xlink">
<g id="graph0" class="graph" transform="scale(1 1) rotate(0) translate(4 1425.26)">
<title>%3</title>
<polygon fill="white" stroke="transparent" points="-4,4 -4,-1425.26 1960.03,-1425.26 1960.03,4 -4,4"/>
<!-- 1,8 (A copper mine, Salt) -->
<g id="node1" class="node">
<title>1,8 (A copper mine, Salt)</title>
<ellipse fill="none" stroke="black" cx="972.56" cy="-718.22" rx="126.18" ry="18"/>
<text text-anchor="middle" x="972.56" y="-714.52" font-family="Times,serif" font-size="14.00">1,8 (A copper mine, Salt)</text>
</g>
<!-- 4,4 (Hydrogen Chloride, item=nylon Nylon/Nylon parts) -->
<g id="node2" class="node">
<title>4,4 (Hydrogen Chloride, item=nylon Nylon/Nylon parts)</title>
<ellipse fill="none" stroke="black" cx="1685.01" cy="-718.22" rx="271.05" ry="18"/>
<text text-anchor="middle" x="1685.01" y="-714.52" font-family="Times,serif" font-size="14.00">4,4 (Hydrogen Chloride, item=nylon Nylon/Nylon parts)</text>
</g>
<!-- 1,8 (A copper mine, Salt)&#45;&gt;4,4 (Hydrogen Chloride, item=nylon Nylon/Nylon parts) -->
<g id="edge1" class="edge">
<title>1,8 (A copper mine, Salt)&#45;&gt;4,4 (Hydrogen Chloride, item=nylon Nylon/Nylon parts)</title>
<path fill="none" stroke="black" stroke-width="1.7" d="M1098.7,-718.22C1183.2,-718.22 1297.9,-718.22 1403.44,-718.22"/>
<polygon fill="black" stroke="black" stroke-width="1.7" points="1403.62,-721.72 1413.62,-718.22 1403.62,-714.72 1403.62,-721.72"/>
<text text-anchor="middle" x="1211.57" y="-722.02" font-family="Times,serif" font-size="14.00">salt*25568</text>
</g>
<!-- 2,7 (Mystery petrochemicals) -->
<g id="node3" class="node">
<title>2,7 (Mystery petrochemicals)</title>
<ellipse fill="none" stroke="black" cx="1330.36" cy="-1334.31" rx="147.57" ry="18"/>
<text text-anchor="middle" x="1330.36" y="-1330.61" font-family="Times,serif" font-size="14.00">2,7 (Mystery petrochemicals)</text>
</g>
<!-- 1,8 (A copper mine, Salt)&#45;&gt;2,7 (Mystery petrochemicals) -->
<g id="edge2" class="edge">
<title>1,8 (A copper mine, Salt)&#45;&gt;2,7 (Mystery petrochemicals)</title>
<path fill="none" stroke="black" stroke-width="1.78" d="M983.08,-736.33C1033.89,-823.82 1254.05,-1202.91 1314.79,-1307.5"/>
<polygon fill="black" stroke="black" stroke-width="1.78" points="1311.79,-1309.31 1319.84,-1316.2 1317.85,-1305.8 1311.79,-1309.31"/>
<text text-anchor="middle" x="1109.43" y="-1025.71" font-family="Times,serif" font-size="14.00">salt*26800</text>
</g>
<!-- 1,6 (Sodium Hydroxide, These new bullets are fun, Limestone) -->
<g id="node4" class="node">
<title>1,6 (Sodium Hydroxide, These new bullets are fun, Limestone)</title>
<ellipse fill="none" stroke="black" cx="593.88" cy="-1044.2" rx="301.65" ry="18"/>
<text text-anchor="middle" x="593.88" y="-1040.5" font-family="Times,serif" font-size="14.00">1,6 (Sodium Hydroxide, These new bullets are fun, Limestone)</text>
</g>
<!-- 1,8 (A copper mine, Salt)&#45;&gt;1,6 (Sodium Hydroxide, These new bullets are fun, Limestone) -->
<g id="edge3" class="edge">
<title>1,8 (A copper mine, Salt)&#45;&gt;1,6 (Sodium Hydroxide, These new bullets are fun, Limestone)</title>
<path fill="none" stroke="black" stroke-width="1.05" d="M951.93,-735.98C888.48,-790.61 696.04,-956.26 622.7,-1019.4"/>
<polygon fill="black" stroke="black" stroke-width="1.05" points="620.06,-1017.05 614.76,-1026.23 624.62,-1022.36 620.06,-1017.05"/>
<text text-anchor="middle" x="747.82" y="-881.49" font-family="Times,serif" font-size="14.00">salt*15792</text>
</g>
<!-- 2,1 (Niobium plates) -->
<g id="node5" class="node">
<title>2,1 (Niobium plates)</title>
<ellipse fill="none" stroke="black" cx="391.5" cy="-305.98" rx="105.88" ry="18"/>
<text text-anchor="middle" x="391.5" y="-302.28" font-family="Times,serif" font-size="14.00">2,1 (Niobium plates)</text>
</g>
<!-- 1,8 (A copper mine, Salt)&#45;&gt;2,1 (Niobium plates) -->
<g id="edge4" class="edge">
<title>1,8 (A copper mine, Salt)&#45;&gt;2,1 (Niobium plates)</title>
<path fill="none" stroke="black" stroke-width="0.44" d="M947.59,-700.51C854.84,-634.7 530.02,-404.25 424.72,-329.55"/>
<polygon fill="black" stroke="black" stroke-width="0.44" points="426.55,-326.56 416.37,-323.63 422.5,-332.27 426.55,-326.56"/>
<text text-anchor="middle" x="651.16" y="-518.83" font-family="Times,serif" font-size="14.00">salt*6560</text>
</g>
<!-- &#45;6,&#45;1 (item=agar Agar) -->
<g id="node6" class="node">
<title>&#45;6,&#45;1 (item=agar Agar)</title>
<ellipse fill="none" stroke="black" cx="841.15" cy="-18" rx="115.88" ry="18"/>
<text text-anchor="middle" x="841.15" y="-14.3" font-family="Times,serif" font-size="14.00">&#45;6,&#45;1 (item=agar Agar)</text>
</g>
<!-- 1,8 (A copper mine, Salt)&#45;&gt;&#45;6,&#45;1 (item=agar Agar) -->
<g id="edge5" class="edge">
<title>1,8 (A copper mine, Salt)&#45;&gt;&#45;6,&#45;1 (item=agar Agar)</title>
<path fill="none" stroke="black" stroke-width="0.81" d="M969.18,-700.21C951.36,-605.24 868.29,-162.63 846.43,-46.15"/>
<polygon fill="black" stroke="black" stroke-width="0.81" points="849.85,-45.4 844.56,-36.21 842.97,-46.69 849.85,-45.4"/>
<text text-anchor="middle" x="868.31" y="-376.98" font-family="Times,serif" font-size="14.00">salt*12160</text>
</g>
<!-- 2,0 (Sodium Sulfate) -->
<g id="node8" class="node">
<title>2,0 (Sodium Sulfate)</title>
<ellipse fill="none" stroke="black" cx="1365.16" cy="-123.7" rx="106.68" ry="18"/>
<text text-anchor="middle" x="1365.16" y="-120" font-family="Times,serif" font-size="14.00">2,0 (Sodium Sulfate)</text>
</g>
<!-- 1,8 (A copper mine, Salt)&#45;&gt;2,0 (Sodium Sulfate) -->
<g id="edge7" class="edge">
<title>1,8 (A copper mine, Salt)&#45;&gt;2,0 (Sodium Sulfate)</title>
<path fill="none" stroke="black" stroke-width="0.68" d="M984.53,-700.1C1040.97,-614.63 1280.71,-251.59 1347.7,-150.14"/>
<polygon fill="black" stroke="black" stroke-width="0.68" points="1350.7,-151.95 1353.28,-141.68 1344.85,-148.1 1350.7,-151.95"/>
<text text-anchor="middle" x="1126.61" y="-428.92" font-family="Times,serif" font-size="14.00">salt*10256</text>
</g>
<!-- 0,5 (Titanium Processing (Grade 4)) -->
<g id="node7" class="node">
<title>0,5 (Titanium Processing (Grade 4))</title>
<ellipse fill="none" stroke="black" cx="176.78" cy="-1403.26" rx="176.57" ry="18"/>
<text text-anchor="middle" x="176.78" y="-1399.56" font-family="Times,serif" font-size="14.00">0,5 (Titanium Processing (Grade 4))</text>
</g>
<!-- 0,5 (Titanium Processing (Grade 4))&#45;&gt;1,6 (Sodium Hydroxide, These new bullets are fun, Limestone) -->
<g id="edge6" class="edge">
<title>0,5 (Titanium Processing (Grade 4))&#45;&gt;1,6 (Sodium Hydroxide, These new bullets are fun, Limestone)</title>
<path fill="none" stroke="black" stroke-width="0.53" d="M197.75,-1385.21C266.67,-1325.88 486.27,-1136.85 565.24,-1068.86"/>
<polygon fill="black" stroke="black" stroke-width="0.53" points="567.58,-1071.47 572.87,-1062.29 563.01,-1066.16 567.58,-1071.47"/>
<text text-anchor="middle" x="346.5" y="-1230.83" font-family="Times,serif" font-size="14.00">salt*8000</text>
</g>
</g>
</svg>
