<?xml version="1.0" encoding="UTF-8" standalone="no"?>
<!DOCTYPE svg PUBLIC "-//W3C//DTD SVG 1.1//EN"
 "http://www.w3.org/Graphics/SVG/1.1/DTD/svg11.dtd">
<!-- Generated by graphviz version 2.43.0 (0)
 -->
<!-- Title: %3 Pages: 1 -->
<svg width="946pt" height="44pt"
 viewBox="0.00 0.00 945.58 44.00" xmlns="http://www.w3.org/2000/svg" xmlns:xlink="http://www.w3.org/1999/xlink">
<g id="graph0" class="graph" transform="scale(1 1) rotate(0) translate(4 40)">
<title>%3</title>
<polygon fill="white" stroke="transparent" points="-4,4 -4,-40 941.58,-40 941.58,4 -4,4"/>
<!-- 4,&#45;1 (Fluid) -->
<g id="node1" class="node">
<title>4,&#45;1 (Fluid)</title>
<ellipse fill="none" stroke="black" cx="532.81" cy="-18" rx="61.99" ry="18"/>
<text text-anchor="middle" x="532.81" y="-14.3" font-family="Times,serif" font-size="14.00">4,&#45;1 (Fluid)</text>
</g>
<!-- 0,0 (LE BUS) -->
<g id="node2" class="node">
<title>0,0 (LE BUS)</title>
<ellipse fill="none" stroke="black" cx="866.09" cy="-18" rx="71.49" ry="18"/>
<text text-anchor="middle" x="866.09" y="-14.3" font-family="Times,serif" font-size="14.00">0,0 (LE BUS)</text>
</g>
<!-- 4,&#45;1 (Fluid)&#45;&gt;0,0 (LE BUS) -->
<g id="edge1" class="edge">
<title>4,&#45;1 (Fluid)&#45;&gt;0,0 (LE BUS)</title>
<path fill="none" stroke="black" stroke-width="1.5" d="M594.71,-18C648.08,-18 725.54,-18 784.06,-18"/>
<polygon fill="black" stroke="black" stroke-width="1.5" points="784.38,-21.5 794.38,-18 784.38,-14.5 784.38,-21.5"/>
<text text-anchor="middle" x="689.38" y="-6.8" font-family="Times,serif" font-size="14.00">hydrogen&#45;peroxide&#45;barrel*3000</text>
</g>
<!-- 4,6 (Circuit substrate and Doped silicon) -->
<g id="node3" class="node">
<title>4,6 (Circuit substrate and Doped silicon)</title>
<ellipse fill="none" stroke="black" cx="199.53" cy="-18" rx="199.56" ry="18"/>
<text text-anchor="middle" x="199.53" y="-14.3" font-family="Times,serif" font-size="14.00">4,6 (Circuit substrate and Doped silicon)</text>
</g>
<!-- 4,&#45;1 (Fluid)&#45;&gt;4,6 (Circuit substrate and Doped silicon) -->
<g id="edge2" class="edge">
<title>4,&#45;1 (Fluid)&#45;&gt;4,6 (Circuit substrate and Doped silicon)</title>
<path fill="none" stroke="black" stroke-width="0.5" d="M470.9,-18C452.7,-18 431.7,-18 409.6,-18"/>
<polygon fill="black" stroke="black" stroke-width="0.5" points="409.37,-14.5 399.37,-18 409.37,-21.5 409.37,-14.5"/>
<text text-anchor="middle" x="553.25" y="-21.8" font-family="Times,serif" font-size="14.00">hydrogen&#45;peroxide&#45;barrel*1000</text>
</g>
</g>
</svg>
