<?xml version="1.0" encoding="UTF-8" standalone="no"?>
<!DOCTYPE svg PUBLIC "-//W3C//DTD SVG 1.1//EN"
 "http://www.w3.org/Graphics/SVG/1.1/DTD/svg11.dtd">
<!-- Generated by graphviz version 2.43.0 (0)
 -->
<!-- Title: %3 Pages: 1 -->
<svg width="1201pt" height="904pt"
 viewBox="0.00 0.00 1201.45 904.29" xmlns="http://www.w3.org/2000/svg" xmlns:xlink="http://www.w3.org/1999/xlink">
<g id="graph0" class="graph" transform="scale(1 1) rotate(0) translate(4 900.29)">
<title>%3</title>
<polygon fill="white" stroke="transparent" points="-4,4 -4,-900.29 1197.45,-900.29 1197.45,4 -4,4"/>
<!-- &#45;2,&#45;3 (Trains) -->
<g id="node1" class="node">
<title>&#45;2,&#45;3 (Trains)</title>
<ellipse fill="none" stroke="black" cx="616.65" cy="-447.15" rx="70.39" ry="18"/>
<text text-anchor="middle" x="616.65" y="-443.45" font-family="Times,serif" font-size="14.00">&#45;2,&#45;3 (Trains)</text>
</g>
<!-- 3,9 (Copper, molten &amp; plate) -->
<g id="node2" class="node">
<title>3,9 (Copper, molten &amp; plate)</title>
<ellipse fill="none" stroke="black" cx="1049.81" cy="-447.15" rx="143.77" ry="18"/>
<text text-anchor="middle" x="1049.81" y="-443.45" font-family="Times,serif" font-size="14.00">3,9 (Copper, molten &amp; plate)</text>
</g>
<!-- &#45;2,&#45;3 (Trains)&#45;&gt;3,9 (Copper, molten &amp; plate) -->
<g id="edge1" class="edge">
<title>&#45;2,&#45;3 (Trains)&#45;&gt;3,9 (Copper, molten &amp; plate)</title>
<path fill="none" stroke="black" stroke-width="0.64" d="M687.21,-447.15C743.53,-447.15 824.52,-447.15 895.67,-447.15"/>
<polygon fill="black" stroke="black" stroke-width="0.64" points="896.09,-450.65 906.09,-447.15 896.09,-443.65 896.09,-450.65"/>
<text text-anchor="middle" x="824.69" y="-435.95" font-family="Times,serif" font-size="14.00">sand&#45;casting*4080</text>
</g>
<!-- &#45;1,10 (Iron Plates) -->
<g id="node3" class="node">
<title>&#45;1,10 (Iron Plates)</title>
<ellipse fill="none" stroke="black" cx="943.19" cy="-731.76" rx="94.78" ry="18"/>
<text text-anchor="middle" x="943.19" y="-728.06" font-family="Times,serif" font-size="14.00">&#45;1,10 (Iron Plates)</text>
</g>
<!-- &#45;2,&#45;3 (Trains)&#45;&gt;&#45;1,10 (Iron Plates) -->
<g id="edge2" class="edge">
<title>&#45;2,&#45;3 (Trains)&#45;&gt;&#45;1,10 (Iron Plates)</title>
<path fill="none" stroke="black" stroke-width="1.58" d="M636.59,-464.53C692.36,-513.14 850.12,-650.64 914.89,-707.1"/>
<polygon fill="black" stroke="black" stroke-width="1.58" points="912.84,-709.95 922.68,-713.88 917.44,-704.67 912.84,-709.95"/>
<text text-anchor="middle" x="704.74" y="-589.61" font-family="Times,serif" font-size="14.00">sand&#45;casting*10032</text>
</g>
<!-- &#45;1,11 (Steel Plate (from molten)) -->
<g id="node4" class="node">
<title>&#45;1,11 (Steel Plate (from molten))</title>
<ellipse fill="none" stroke="black" cx="658.38" cy="-878.29" rx="161.37" ry="18"/>
<text text-anchor="middle" x="658.38" y="-874.59" font-family="Times,serif" font-size="14.00">&#45;1,11 (Steel Plate (from molten))</text>
</g>
<!-- &#45;2,&#45;3 (Trains)&#45;&gt;&#45;1,11 (Steel Plate (from molten)) -->
<g id="edge3" class="edge">
<title>&#45;2,&#45;3 (Trains)&#45;&gt;&#45;1,11 (Steel Plate (from molten))</title>
<path fill="none" stroke="black" stroke-width="3.18" d="M618.42,-465.4C624.95,-532.89 647.77,-768.66 655.67,-850.25"/>
<polygon fill="black" stroke="black" stroke-width="3.18" points="652.19,-850.66 656.64,-860.28 659.16,-849.99 652.19,-850.66"/>
<text text-anchor="middle" x="566.04" y="-661.63" font-family="Times,serif" font-size="14.00">sand&#45;casting*20160</text>
</g>
<!-- 2,&#45;2 (Tin Plate, Organic Solvent) -->
<g id="node5" class="node">
<title>2,&#45;2 (Tin Plate, Organic Solvent)</title>
<ellipse fill="none" stroke="black" cx="302.63" cy="-745.51" rx="159.77" ry="18"/>
<text text-anchor="middle" x="302.63" y="-741.81" font-family="Times,serif" font-size="14.00">2,&#45;2 (Tin Plate, Organic Solvent)</text>
</g>
<!-- &#45;2,&#45;3 (Trains)&#45;&gt;2,&#45;2 (Tin Plate, Organic Solvent) -->
<g id="edge4" class="edge">
<title>&#45;2,&#45;3 (Trains)&#45;&gt;2,&#45;2 (Tin Plate, Organic Solvent)</title>
<path fill="none" stroke="black" stroke-width="0.32" d="M597.95,-464.92C544.52,-515.69 391.05,-661.5 329.07,-720.39"/>
<polygon fill="black" stroke="black" stroke-width="0.32" points="326.47,-718.03 321.64,-727.45 331.3,-723.1 326.47,-718.03"/>
<text text-anchor="middle" x="397.01" y="-596.46" font-family="Times,serif" font-size="14.00">sand&#45;casting*2016</text>
</g>
<!-- 4,3 (item=nexelit&#45;plate Nexelit platery) -->
<g id="node6" class="node">
<title>4,3 (item=nexelit&#45;plate Nexelit platery)</title>
<ellipse fill="none" stroke="black" cx="194.33" cy="-350.87" rx="194.17" ry="18"/>
<text text-anchor="middle" x="194.33" y="-347.17" font-family="Times,serif" font-size="14.00">4,3 (item=nexelit&#45;plate Nexelit platery)</text>
</g>
<!-- &#45;2,&#45;3 (Trains)&#45;&gt;4,3 (item=nexelit&#45;plate Nexelit platery) -->
<g id="edge5" class="edge">
<title>&#45;2,&#45;3 (Trains)&#45;&gt;4,3 (item=nexelit&#45;plate Nexelit platery)</title>
<path fill="none" stroke="black" stroke-width="0.32" d="M564.02,-435.15C492.13,-418.76 362.47,-389.2 277.4,-369.81"/>
<polygon fill="black" stroke="black" stroke-width="0.32" points="278.04,-366.36 267.51,-367.55 276.48,-373.19 278.04,-366.36"/>
<text text-anchor="middle" x="354.21" y="-406.28" font-family="Times,serif" font-size="14.00">sand&#45;casting*2016</text>
</g>
<!-- &#45;4,&#45;4 (Reserved For Aluminium Ore Drop, Aluminium) -->
<g id="node7" class="node">
<title>&#45;4,&#45;4 (Reserved For Aluminium Ore Drop, Aluminium)</title>
<ellipse fill="none" stroke="black" cx="557.89" cy="-18" rx="258.05" ry="18"/>
<text text-anchor="middle" x="557.89" y="-14.3" font-family="Times,serif" font-size="14.00">&#45;4,&#45;4 (Reserved For Aluminium Ore Drop, Aluminium)</text>
</g>
<!-- &#45;2,&#45;3 (Trains)&#45;&gt;&#45;4,&#45;4 (Reserved For Aluminium Ore Drop, Aluminium) -->
<g id="edge6" class="edge">
<title>&#45;2,&#45;3 (Trains)&#45;&gt;&#45;4,&#45;4 (Reserved For Aluminium Ore Drop, Aluminium)</title>
<path fill="none" stroke="black" stroke-width="0.32" d="M614.17,-428.99C604.99,-361.96 572.98,-128.2 561.79,-46.47"/>
<polygon fill="black" stroke="black" stroke-width="0.32" points="565.23,-45.84 560.41,-36.41 558.3,-46.79 565.23,-45.84"/>
<text text-anchor="middle" x="521.48" y="-241.53" font-family="Times,serif" font-size="14.00">sand&#45;casting*2016</text>
</g>
<!-- 2,10 (Nickel plate) -->
<g id="node8" class="node">
<title>2,10 (Nickel plate)</title>
<ellipse fill="none" stroke="black" cx="941.9" cy="-161.08" rx="96.68" ry="18"/>
<text text-anchor="middle" x="941.9" y="-157.38" font-family="Times,serif" font-size="14.00">2,10 (Nickel plate)</text>
</g>
<!-- &#45;2,&#45;3 (Trains)&#45;&gt;2,10 (Nickel plate) -->
<g id="edge7" class="edge">
<title>&#45;2,&#45;3 (Trains)&#45;&gt;2,10 (Nickel plate)</title>
<path fill="none" stroke="black" stroke-width="0.64" d="M636.51,-429.69C692.06,-380.83 849.2,-242.61 913.72,-185.87"/>
<polygon fill="black" stroke="black" stroke-width="0.64" points="916.28,-188.28 921.48,-179.05 911.66,-183.02 916.28,-188.28"/>
<text text-anchor="middle" x="708.61" y="-311.58" font-family="Times,serif" font-size="14.00">sand&#45;casting*4032</text>
</g>
</g>
</svg>
