<?xml version="1.0" encoding="UTF-8" standalone="no"?>
<!DOCTYPE svg PUBLIC "-//W3C//DTD SVG 1.1//EN"
 "http://www.w3.org/Graphics/SVG/1.1/DTD/svg11.dtd">
<!-- Generated by graphviz version 2.43.0 (0)
 -->
<!-- Title: %3 Pages: 1 -->
<svg width="2137pt" height="1538pt"
 viewBox="0.00 0.00 2136.63 1538.16" xmlns="http://www.w3.org/2000/svg" xmlns:xlink="http://www.w3.org/1999/xlink">
<g id="graph0" class="graph" transform="scale(1 1) rotate(0) translate(4 1534.16)">
<title>%3</title>
<polygon fill="white" stroke="transparent" points="-4,4 -4,-1534.16 2132.63,-1534.16 2132.63,4 -4,4"/>
<!-- 3,1 (Mining Brick) -->
<g id="node1" class="node">
<title>3,1 (Mining Brick)</title>
<ellipse fill="none" stroke="black" cx="408.12" cy="-303.36" rx="94.78" ry="18"/>
<text text-anchor="middle" x="408.12" y="-299.66" font-family="Times,serif" font-size="14.00">3,1 (Mining Brick)</text>
</g>
<!-- 0,0 (LE BUS) -->
<g id="node2" class="node">
<title>0,0 (LE BUS)</title>
<ellipse fill="none" stroke="black" cx="71.49" cy="-348.3" rx="71.49" ry="18"/>
<text text-anchor="middle" x="71.49" y="-344.6" font-family="Times,serif" font-size="14.00">0,0 (LE BUS)</text>
</g>
<!-- 3,1 (Mining Brick)&#45;&gt;0,0 (LE BUS) -->
<g id="edge1" class="edge">
<title>3,1 (Mining Brick)&#45;&gt;0,0 (LE BUS)</title>
<path fill="none" stroke="black" stroke-width="3.64" d="M330.47,-313.73C274.54,-321.19 199.56,-331.2 144.68,-338.53"/>
<polygon fill="black" stroke="black" stroke-width="3.64" points="144.12,-335.07 134.67,-339.87 145.05,-342.01 144.12,-335.07"/>
<text text-anchor="middle" x="177.07" y="-314.93" font-family="Times,serif" font-size="14.00">tar&#45;barrel*12840</text>
</g>
<!-- 0,7 (Coal Gas) -->
<g id="node3" class="node">
<title>0,7 (Coal Gas)</title>
<ellipse fill="none" stroke="black" cx="408.12" cy="-1226.8" rx="76.09" ry="18"/>
<text text-anchor="middle" x="408.12" y="-1223.1" font-family="Times,serif" font-size="14.00">0,7 (Coal Gas)</text>
</g>
<!-- 3,1 (Mining Brick)&#45;&gt;0,7 (Coal Gas) -->
<g id="edge2" class="edge">
<title>3,1 (Mining Brick)&#45;&gt;0,7 (Coal Gas)</title>
<path fill="none" stroke="black" stroke-width="1.99" d="M408.12,-321.39C408.12,-435.5 408.12,-1057.06 408.12,-1198.25"/>
<polygon fill="black" stroke="black" stroke-width="1.99" points="404.62,-1198.65 408.12,-1208.65 411.62,-1198.65 404.62,-1198.65"/>
<text text-anchor="middle" x="352.12" y="-763.62" font-family="Times,serif" font-size="14.00">tar&#45;barrel*7000</text>
</g>
<!-- 3,13 (Rubber) -->
<g id="node4" class="node">
<title>3,13 (Rubber)</title>
<ellipse fill="none" stroke="black" cx="1286.37" cy="-18" rx="75.29" ry="18"/>
<text text-anchor="middle" x="1286.37" y="-14.3" font-family="Times,serif" font-size="14.00">3,13 (Rubber)</text>
</g>
<!-- 3,1 (Mining Brick)&#45;&gt;3,13 (Rubber) -->
<g id="edge3" class="edge">
<title>3,1 (Mining Brick)&#45;&gt;3,13 (Rubber)</title>
<path fill="none" stroke="black" stroke-width="1.35" d="M456.28,-287.71C607.56,-238.56 1072.69,-87.43 1232.1,-35.63"/>
<polygon fill="black" stroke="black" stroke-width="1.35" points="1233.27,-38.93 1241.7,-32.51 1231.11,-32.27 1233.27,-38.93"/>
<text text-anchor="middle" x="788.19" y="-165.47" font-family="Times,serif" font-size="14.00">tar&#45;barrel*4752</text>
</g>
<!-- 3,6 (Phosphoric Acid and Phosphine gas) -->
<g id="node7" class="node">
<title>3,6 (Phosphoric Acid and Phosphine gas)</title>
<ellipse fill="none" stroke="black" cx="255.41" cy="-59.77" rx="200.36" ry="18"/>
<text text-anchor="middle" x="255.41" y="-56.07" font-family="Times,serif" font-size="14.00">3,6 (Phosphoric Acid and Phosphine gas)</text>
</g>
<!-- 3,1 (Mining Brick)&#45;&gt;3,6 (Phosphoric Acid and Phosphine gas) -->
<g id="edge6" class="edge">
<title>3,1 (Mining Brick)&#45;&gt;3,6 (Phosphoric Acid and Phosphine gas)</title>
<path fill="none" stroke="black" stroke-width="0.13" d="M396.89,-285.45C370.37,-243.14 303.73,-136.84 272.31,-86.71"/>
<polygon fill="black" stroke="black" stroke-width="0.13" points="275.14,-84.65 266.87,-78.04 269.21,-88.37 275.14,-84.65"/>
<text text-anchor="middle" x="283.1" y="-189.88" font-family="Times,serif" font-size="14.00">tar&#45;barrel*448</text>
</g>
<!-- 1,&#45;1 (fluid=molten&#45;glass Glass, When space, make quartz separate with regular priority, Quartz) -->
<g id="node8" class="node">
<title>1,&#45;1 (fluid=molten&#45;glass Glass, When space, make quartz separate with regular priority, Quartz)</title>
<ellipse fill="none" stroke="black" cx="1286.37" cy="-1512.16" rx="457.62" ry="18"/>
<text text-anchor="middle" x="1286.37" y="-1508.46" font-family="Times,serif" font-size="14.00">1,&#45;1 (fluid=molten&#45;glass Glass, When space, make quartz separate with regular priority, Quartz)</text>
</g>
<!-- 3,1 (Mining Brick)&#45;&gt;1,&#45;1 (fluid=molten&#45;glass Glass, When space, make quartz separate with regular priority, Quartz) -->
<g id="edge7" class="edge">
<title>3,1 (Mining Brick)&#45;&gt;1,&#45;1 (fluid=molten&#45;glass Glass, When space, make quartz separate with regular priority, Quartz)</title>
<path fill="none" stroke="black" stroke-width="0.69" d="M421.22,-321.38C520.07,-457.43 1148.26,-1322.07 1267.01,-1485.52"/>
<polygon fill="black" stroke="black" stroke-width="0.69" points="1264.48,-1487.99 1273.19,-1494.03 1270.15,-1483.88 1264.48,-1487.99"/>
<text text-anchor="middle" x="788.12" y="-907.25" font-family="Times,serif" font-size="14.00">tar&#45;barrel*2432</text>
</g>
<!-- 0,8 (Tar from Coke) -->
<g id="node5" class="node">
<title>0,8 (Tar from Coke)</title>
<ellipse fill="none" stroke="black" cx="1829.15" cy="-765.08" rx="100.98" ry="18"/>
<text text-anchor="middle" x="1829.15" y="-761.38" font-family="Times,serif" font-size="14.00">0,8 (Tar from Coke)</text>
</g>
<!-- 0,8 (Tar from Coke)&#45;&gt;0,7 (Coal Gas) -->
<g id="edge8" class="edge">
<title>0,8 (Tar from Coke)&#45;&gt;0,7 (Coal Gas)</title>
<path fill="none" stroke="black" stroke-width="0.52" d="M1780.23,-780.97C1563.6,-851.36 691.22,-1134.81 462.99,-1208.97"/>
<polygon fill="black" stroke="black" stroke-width="0.52" points="461.67,-1205.72 453.24,-1212.14 463.83,-1212.38 461.67,-1205.72"/>
<text text-anchor="middle" x="1065.61" y="-998.77" font-family="Times,serif" font-size="14.00">tar&#45;barrel*1816</text>
</g>
<!-- 0,8 (Tar from Coke)&#45;&gt;3,13 (Rubber) -->
<g id="edge5" class="edge">
<title>0,8 (Tar from Coke)&#45;&gt;3,13 (Rubber)</title>
<path fill="none" stroke="black" stroke-width="0.22" d="M1816,-746.98C1743.35,-646.98 1391.16,-162.24 1305.28,-44.03"/>
<polygon fill="black" stroke="black" stroke-width="0.22" points="1308.05,-41.89 1299.34,-35.86 1302.39,-46.01 1308.05,-41.89"/>
<text text-anchor="middle" x="1509.14" y="-399.31" font-family="Times,serif" font-size="14.00">tar&#45;barrel*784</text>
</g>
<!-- &#45;3,2 (Lead and Solder) -->
<g id="node6" class="node">
<title>&#45;3,2 (Lead and Solder)</title>
<ellipse fill="none" stroke="black" cx="2014.89" cy="-765.08" rx="113.98" ry="18"/>
<text text-anchor="middle" x="2014.89" y="-761.38" font-family="Times,serif" font-size="14.00">&#45;3,2 (Lead and Solder)</text>
</g>
<!-- 0,8 (Tar from Coke)&#45;&gt;&#45;3,2 (Lead and Solder) -->
<g id="edge4" class="edge">
<title>0,8 (Tar from Coke)&#45;&gt;&#45;3,2 (Lead and Solder)</title>
<path fill="none" stroke="black" stroke-width="0.23" d="M1929.9,-765.08C1929.94,-765.08 1929.99,-765.08 1930.03,-765.08"/>
<polygon fill="black" stroke="black" stroke-width="0.23" points="1920.16,-768.59 1930.16,-765.08 1920.15,-761.59 1920.16,-768.59"/>
<text text-anchor="middle" x="1981.46" y="-768.88" font-family="Times,serif" font-size="14.00">tar&#45;barrel*824</text>
</g>
<!-- 0,8 (Tar from Coke)&#45;&gt;1,&#45;1 (fluid=molten&#45;glass Glass, When space, make quartz separate with regular priority, Quartz) -->
<g id="edge9" class="edge">
<title>0,8 (Tar from Coke)&#45;&gt;1,&#45;1 (fluid=molten&#45;glass Glass, When space, make quartz separate with regular priority, Quartz)</title>
<path fill="none" stroke="black" stroke-width="0.23" d="M1816,-783.17C1743.42,-883.07 1391.92,-1366.87 1305.56,-1485.74"/>
<polygon fill="black" stroke="black" stroke-width="0.23" points="1302.63,-1483.82 1299.58,-1493.96 1308.29,-1487.93 1302.63,-1483.82"/>
<text text-anchor="middle" x="1509.28" y="-1138.26" font-family="Times,serif" font-size="14.00">tar&#45;barrel*816</text>
</g>
</g>
</svg>
