<?xml version="1.0" encoding="UTF-8" standalone="no"?>
<!DOCTYPE svg PUBLIC "-//W3C//DTD SVG 1.1//EN"
 "http://www.w3.org/Graphics/SVG/1.1/DTD/svg11.dtd">
<!-- Generated by graphviz version 2.43.0 (0)
 -->
<!-- Title: %3 Pages: 1 -->
<svg width="808pt" height="44pt"
 viewBox="0.00 0.00 807.79 44.00" xmlns="http://www.w3.org/2000/svg" xmlns:xlink="http://www.w3.org/1999/xlink">
<g id="graph0" class="graph" transform="scale(1 1) rotate(0) translate(4 40)">
<title>%3</title>
<polygon fill="white" stroke="transparent" points="-4,4 -4,-40 803.79,-40 803.79,4 -4,4"/>
<!-- 2,0 (Sodium Sulfate) -->
<g id="node1" class="node">
<title>2,0 (Sodium Sulfate)</title>
<ellipse fill="none" stroke="black" cx="426.87" cy="-18" rx="106.68" ry="18"/>
<text text-anchor="middle" x="426.87" y="-14.3" font-family="Times,serif" font-size="14.00">2,0 (Sodium Sulfate)</text>
</g>
<!-- &#45;2,&#45;3 (Trains) -->
<g id="node2" class="node">
<title>&#45;2,&#45;3 (Trains)</title>
<ellipse fill="none" stroke="black" cx="729.6" cy="-18" rx="70.39" ry="18"/>
<text text-anchor="middle" x="729.6" y="-14.3" font-family="Times,serif" font-size="14.00">&#45;2,&#45;3 (Trains)</text>
</g>
<!-- 2,0 (Sodium Sulfate)&#45;&gt;&#45;2,&#45;3 (Trains) -->
<g id="edge1" class="edge">
<title>2,0 (Sodium Sulfate)&#45;&gt;&#45;2,&#45;3 (Trains)</title>
<path fill="none" stroke="black" stroke-width="1.63" d="M533.6,-18C571.56,-18 613.63,-18 649.03,-18"/>
<polygon fill="black" stroke="black" stroke-width="1.63" points="649.31,-21.5 659.31,-18 649.31,-14.5 649.31,-21.5"/>
<text text-anchor="middle" x="591.32" y="-6.8" font-family="Times,serif" font-size="14.00">sulfuric&#45;acid&#45;barrel*1488</text>
</g>
<!-- &#45;2,5 (Rare Earth Oxides) -->
<g id="node3" class="node">
<title>&#45;2,5 (Rare Earth Oxides)</title>
<ellipse fill="none" stroke="black" cx="124.14" cy="-18" rx="124.28" ry="18"/>
<text text-anchor="middle" x="124.14" y="-14.3" font-family="Times,serif" font-size="14.00">&#45;2,5 (Rare Earth Oxides)</text>
</g>
<!-- 2,0 (Sodium Sulfate)&#45;&gt;&#45;2,5 (Rare Earth Oxides) -->
<g id="edge2" class="edge">
<title>2,0 (Sodium Sulfate)&#45;&gt;&#45;2,5 (Rare Earth Oxides)</title>
<path fill="none" stroke="black" stroke-width="0.37" d="M320.14,-18C300.17,-18 279.06,-18 258.39,-18"/>
<polygon fill="black" stroke="black" stroke-width="0.37" points="258.28,-14.5 248.28,-18 258.28,-21.5 258.28,-14.5"/>
<text text-anchor="middle" x="246.76" y="-6.8" font-family="Times,serif" font-size="14.00">sulfuric&#45;acid&#45;barrel*336</text>
</g>
</g>
</svg>
