<?xml version="1.0" encoding="UTF-8" standalone="no"?>
<!DOCTYPE svg PUBLIC "-//W3C//DTD SVG 1.1//EN"
 "http://www.w3.org/Graphics/SVG/1.1/DTD/svg11.dtd">
<!-- Generated by graphviz version 2.43.0 (0)
 -->
<!-- Title: %3 Pages: 1 -->
<svg width="1389pt" height="1132pt"
 viewBox="0.00 0.00 1389.38 1132.24" xmlns="http://www.w3.org/2000/svg" xmlns:xlink="http://www.w3.org/1999/xlink">
<g id="graph0" class="graph" transform="scale(1 1) rotate(0) translate(4 1128.24)">
<title>%3</title>
<polygon fill="white" stroke="transparent" points="-4,4 -4,-1128.24 1385.38,-1128.24 1385.38,4 -4,4"/>
<!-- 9,&#45;7 (Filtration mediaer) -->
<g id="node1" class="node">
<title>9,&#45;7 (Filtration mediaer)</title>
<ellipse fill="none" stroke="black" cx="1051" cy="-125.77" rx="122.68" ry="18"/>
<text text-anchor="middle" x="1051" y="-122.07" font-family="Times,serif" font-size="14.00">9,&#45;7 (Filtration mediaer)</text>
</g>
<!-- 0,0 (LE BUS) -->
<g id="node2" class="node">
<title>0,0 (LE BUS)</title>
<ellipse fill="none" stroke="black" cx="578.83" cy="-18" rx="71.49" ry="18"/>
<text text-anchor="middle" x="578.83" y="-14.3" font-family="Times,serif" font-size="14.00">0,0 (LE BUS)</text>
</g>
<!-- 9,&#45;7 (Filtration mediaer)&#45;&gt;0,0 (LE BUS) -->
<g id="edge1" class="edge">
<title>9,&#45;7 (Filtration mediaer)&#45;&gt;0,0 (LE BUS)</title>
<path fill="none" stroke="black" stroke-width="1.67" d="M984.35,-110.56C893.3,-89.77 731.17,-52.77 641.98,-32.41"/>
<polygon fill="black" stroke="black" stroke-width="1.67" points="642.53,-28.95 632,-30.14 640.97,-35.77 642.53,-28.95"/>
<text text-anchor="middle" x="731.67" y="-75.29" font-family="Times,serif" font-size="14.00">filtration&#45;media*21216</text>
</g>
<!-- 3,&#45;1 (Nitrogen, Oxygen) -->
<g id="node3" class="node">
<title>3,&#45;1 (Nitrogen, Oxygen)</title>
<ellipse fill="none" stroke="black" cx="1261.14" cy="-562.12" rx="120.48" ry="18"/>
<text text-anchor="middle" x="1261.14" y="-558.42" font-family="Times,serif" font-size="14.00">3,&#45;1 (Nitrogen, Oxygen)</text>
</g>
<!-- 9,&#45;7 (Filtration mediaer)&#45;&gt;3,&#45;1 (Nitrogen, Oxygen) -->
<g id="edge2" class="edge">
<title>9,&#45;7 (Filtration mediaer)&#45;&gt;3,&#45;1 (Nitrogen, Oxygen)</title>
<path fill="none" stroke="black" stroke-width="1.85" d="M1059.77,-143.96C1092.61,-212.16 1208.54,-452.89 1247.93,-534.68"/>
<polygon fill="black" stroke="black" stroke-width="1.85" points="1244.85,-536.36 1252.34,-543.85 1251.15,-533.32 1244.85,-536.36"/>
<text text-anchor="middle" x="1072.35" y="-343.12" font-family="Times,serif" font-size="14.00">filtration&#45;media*23504</text>
</g>
<!-- 3,5 (Molybdenum plate) -->
<g id="node4" class="node">
<title>3,5 (Molybdenum plate)</title>
<ellipse fill="none" stroke="black" cx="200.18" cy="-319.96" rx="122.38" ry="18"/>
<text text-anchor="middle" x="200.18" y="-316.26" font-family="Times,serif" font-size="14.00">3,5 (Molybdenum plate)</text>
</g>
<!-- 9,&#45;7 (Filtration mediaer)&#45;&gt;3,5 (Molybdenum plate) -->
<g id="edge3" class="edge">
<title>9,&#45;7 (Filtration mediaer)&#45;&gt;3,5 (Molybdenum plate)</title>
<path fill="none" stroke="black" stroke-width="0.79" d="M984.6,-140.93C829.07,-176.43 441.92,-264.79 276.78,-302.48"/>
<polygon fill="black" stroke="black" stroke-width="0.79" points="275.68,-299.14 266.71,-304.78 277.24,-305.97 275.68,-299.14"/>
<text text-anchor="middle" x="549.19" y="-225.5" font-family="Times,serif" font-size="14.00">filtration&#45;media*10000</text>
</g>
<!-- 3,6 (Phosphoric Acid and Phosphine gas) -->
<g id="node5" class="node">
<title>3,6 (Phosphoric Acid and Phosphine gas)</title>
<ellipse fill="none" stroke="black" cx="200.18" cy="-804.28" rx="200.36" ry="18"/>
<text text-anchor="middle" x="200.18" y="-800.58" font-family="Times,serif" font-size="14.00">3,6 (Phosphoric Acid and Phosphine gas)</text>
</g>
<!-- 9,&#45;7 (Filtration mediaer)&#45;&gt;3,6 (Phosphoric Acid and Phosphine gas) -->
<g id="edge4" class="edge">
<title>9,&#45;7 (Filtration mediaer)&#45;&gt;3,6 (Phosphoric Acid and Phosphine gas)</title>
<path fill="none" stroke="black" stroke-width="0.81" d="M1028.68,-143.57C911.32,-237.16 365.9,-672.12 230.61,-780.01"/>
<polygon fill="black" stroke="black" stroke-width="0.81" points="228.3,-777.38 222.66,-786.35 232.66,-782.85 228.3,-777.38"/>
<text text-anchor="middle" x="548.15" y="-465.59" font-family="Times,serif" font-size="14.00">filtration&#45;media*10336</text>
</g>
<!-- 9,&#45;8 (Cyanic acid from coal) -->
<g id="node7" class="node">
<title>9,&#45;8 (Cyanic acid from coal)</title>
<ellipse fill="none" stroke="black" cx="578.83" cy="-1106.24" rx="137.58" ry="18"/>
<text text-anchor="middle" x="578.83" y="-1102.54" font-family="Times,serif" font-size="14.00">9,&#45;8 (Cyanic acid from coal)</text>
</g>
<!-- 9,&#45;7 (Filtration mediaer)&#45;&gt;9,&#45;8 (Cyanic acid from coal) -->
<g id="edge9" class="edge">
<title>9,&#45;7 (Filtration mediaer)&#45;&gt;9,&#45;8 (Cyanic acid from coal)</title>
<path fill="none" stroke="black" stroke-width="0.17" d="M1042.2,-144.05C984.57,-263.73 661.34,-934.92 591.95,-1079"/>
<polygon fill="black" stroke="black" stroke-width="0.17" points="588.76,-1077.56 587.58,-1088.09 595.07,-1080.6 588.76,-1077.56"/>
<text text-anchor="middle" x="740.08" y="-615.33" font-family="Times,serif" font-size="14.00">filtration&#45;media*2160</text>
</g>
<!-- 4,1 (item=filtration&#45;media Filtration Media) -->
<g id="node6" class="node">
<title>4,1 (item=filtration&#45;media Filtration Media)</title>
<ellipse fill="none" stroke="black" cx="1051" cy="-998.47" rx="214.46" ry="18"/>
<text text-anchor="middle" x="1051" y="-994.77" font-family="Times,serif" font-size="14.00">4,1 (item=filtration&#45;media Filtration Media)</text>
</g>
<!-- 4,1 (item=filtration&#45;media Filtration Media)&#45;&gt;0,0 (LE BUS) -->
<g id="edge5" class="edge">
<title>4,1 (item=filtration&#45;media Filtration Media)&#45;&gt;0,0 (LE BUS)</title>
<path fill="none" stroke="black" stroke-width="1" d="M1042.2,-980.19C984.57,-860.52 661.34,-189.32 591.95,-45.24"/>
<polygon fill="black" stroke="black" stroke-width="1" points="595.07,-43.65 587.58,-36.15 588.76,-46.68 595.07,-43.65"/>
<text text-anchor="middle" x="735.58" y="-516.51" font-family="Times,serif" font-size="14.00">filtration&#45;media*12640</text>
</g>
<!-- 4,1 (item=filtration&#45;media Filtration Media)&#45;&gt;3,&#45;1 (Nitrogen, Oxygen) -->
<g id="edge6" class="edge">
<title>4,1 (item=filtration&#45;media Filtration Media)&#45;&gt;3,&#45;1 (Nitrogen, Oxygen)</title>
<path fill="none" stroke="black" stroke-width="2.87" d="M1059.77,-980.28C1092.61,-912.08 1208.54,-671.35 1247.93,-589.56"/>
<polygon fill="black" stroke="black" stroke-width="2.87" points="1251.15,-590.92 1252.34,-580.39 1244.85,-587.88 1251.15,-590.92"/>
<text text-anchor="middle" x="1072.35" y="-788.72" font-family="Times,serif" font-size="14.00">filtration&#45;media*36416</text>
</g>
<!-- 4,1 (item=filtration&#45;media Filtration Media)&#45;&gt;3,5 (Molybdenum plate) -->
<g id="edge7" class="edge">
<title>4,1 (item=filtration&#45;media Filtration Media)&#45;&gt;3,5 (Molybdenum plate)</title>
<path fill="none" stroke="black" stroke-width="0.16" d="M1028.25,-980.32C909.95,-885.99 365.57,-451.85 230.55,-344.18"/>
<polygon fill="black" stroke="black" stroke-width="0.16" points="232.62,-341.35 222.61,-337.85 228.25,-346.82 232.62,-341.35"/>
<text text-anchor="middle" x="552.4" y="-666.05" font-family="Times,serif" font-size="14.00">filtration&#45;media*2000</text>
</g>
<!-- 4,1 (item=filtration&#45;media Filtration Media)&#45;&gt;3,6 (Phosphoric Acid and Phosphine gas) -->
<g id="edge8" class="edge">
<title>4,1 (item=filtration&#45;media Filtration Media)&#45;&gt;3,6 (Phosphoric Acid and Phosphine gas)</title>
<path fill="none" stroke="black" stroke-width="0.51" d="M976.62,-981.49C818.47,-945.4 449.78,-861.25 283.8,-823.36"/>
<polygon fill="black" stroke="black" stroke-width="0.51" points="284.17,-819.86 273.64,-821.04 282.61,-826.68 284.17,-819.86"/>
<text text-anchor="middle" x="553.21" y="-906.23" font-family="Times,serif" font-size="14.00">filtration&#45;media*6480</text>
</g>
<!-- 4,1 (item=filtration&#45;media Filtration Media)&#45;&gt;9,&#45;8 (Cyanic acid from coal) -->
<g id="edge10" class="edge">
<title>4,1 (item=filtration&#45;media Filtration Media)&#45;&gt;9,&#45;8 (Cyanic acid from coal)</title>
<path fill="none" stroke="black" stroke-width="0.17" d="M976.97,-1015.37C889.91,-1035.24 746.04,-1068.08 657.17,-1088.36"/>
<polygon fill="black" stroke="black" stroke-width="0.17" points="656.38,-1084.95 647.41,-1090.59 657.94,-1091.78 656.38,-1084.95"/>
<text text-anchor="middle" x="740.07" y="-1055.67" font-family="Times,serif" font-size="14.00">filtration&#45;media*2144</text>
</g>
</g>
</svg>
