<?xml version="1.0" encoding="UTF-8" standalone="no"?>
<!DOCTYPE svg PUBLIC "-//W3C//DTD SVG 1.1//EN"
 "http://www.w3.org/Graphics/SVG/1.1/DTD/svg11.dtd">
<!-- Generated by graphviz version 2.43.0 (0)
 -->
<!-- Title: %3 Pages: 1 -->
<svg width="522pt" height="456pt"
 viewBox="0.00 0.00 522.47 456.37" xmlns="http://www.w3.org/2000/svg" xmlns:xlink="http://www.w3.org/1999/xlink">
<g id="graph0" class="graph" transform="scale(1 1) rotate(0) translate(4 452.37)">
<title>%3</title>
<polygon fill="white" stroke="transparent" points="-4,4 -4,-452.37 518.47,-452.37 518.47,4 -4,4"/>
<!-- 4,&#45;1 (Fluid) -->
<g id="node1" class="node">
<title>4,&#45;1 (Fluid)</title>
<ellipse fill="none" stroke="black" cx="209.79" cy="-224.94" rx="61.99" ry="18"/>
<text text-anchor="middle" x="209.79" y="-221.24" font-family="Times,serif" font-size="14.00">4,&#45;1 (Fluid)</text>
</g>
<!-- 0,0 (LE BUS) -->
<g id="node2" class="node">
<title>0,0 (LE BUS)</title>
<ellipse fill="none" stroke="black" cx="442.97" cy="-224.94" rx="71.49" ry="18"/>
<text text-anchor="middle" x="442.97" y="-221.24" font-family="Times,serif" font-size="14.00">0,0 (LE BUS)</text>
</g>
<!-- 4,&#45;1 (Fluid)&#45;&gt;0,0 (LE BUS) -->
<g id="edge1" class="edge">
<title>4,&#45;1 (Fluid)&#45;&gt;0,0 (LE BUS)</title>
<path fill="none" stroke="black" stroke-width="0.28" d="M271.67,-224.94C299.06,-224.94 331.68,-224.94 361.05,-224.94"/>
<polygon fill="black" stroke="black" stroke-width="0.28" points="361.3,-228.44 371.3,-224.94 361.3,-221.44 361.3,-228.44"/>
<text text-anchor="middle" x="316.36" y="-213.74" font-family="Times,serif" font-size="14.00">tpa&#45;barrel*1000</text>
</g>
<!-- &#45;1,&#45;2 (Aramid fiber) -->
<g id="node3" class="node">
<title>&#45;1,&#45;2 (Aramid fiber)</title>
<ellipse fill="none" stroke="black" cx="99.44" cy="-430.37" rx="99.38" ry="18"/>
<text text-anchor="middle" x="99.44" y="-426.67" font-family="Times,serif" font-size="14.00">&#45;1,&#45;2 (Aramid fiber)</text>
</g>
<!-- 4,&#45;1 (Fluid)&#45;&gt;&#45;1,&#45;2 (Aramid fiber) -->
<g id="edge2" class="edge">
<title>4,&#45;1 (Fluid)&#45;&gt;&#45;1,&#45;2 (Aramid fiber)</title>
<path fill="none" stroke="black" stroke-width="1.61" d="M200.19,-242.81C180.79,-278.93 136.81,-360.8 113.91,-403.43"/>
<polygon fill="black" stroke="black" stroke-width="1.61" points="110.75,-401.92 109.1,-412.39 116.91,-405.24 110.75,-401.92"/>
<text text-anchor="middle" x="99.55" y="-326.92" font-family="Times,serif" font-size="14.00">tpa&#45;barrel*5840</text>
</g>
<!-- &#45;5,2 (Optical fiber) -->
<g id="node4" class="node">
<title>&#45;5,2 (Optical fiber)</title>
<ellipse fill="none" stroke="black" cx="102.31" cy="-18" rx="96.38" ry="18"/>
<text text-anchor="middle" x="102.31" y="-14.3" font-family="Times,serif" font-size="14.00">&#45;5,2 (Optical fiber)</text>
</g>
<!-- 4,&#45;1 (Fluid)&#45;&gt;&#45;5,2 (Optical fiber) -->
<g id="edge3" class="edge">
<title>4,&#45;1 (Fluid)&#45;&gt;&#45;5,2 (Optical fiber)</title>
<path fill="none" stroke="black" stroke-width="1.11" d="M200.44,-206.94C181.54,-170.55 138.71,-88.08 116.41,-45.14"/>
<polygon fill="black" stroke="black" stroke-width="1.11" points="119.43,-43.37 111.72,-36.11 113.22,-46.6 119.43,-43.37"/>
<text text-anchor="middle" x="100.92" y="-129.84" font-family="Times,serif" font-size="14.00">tpa&#45;barrel*4024</text>
</g>
</g>
</svg>
