<?xml version="1.0" encoding="UTF-8" standalone="no"?>
<!DOCTYPE svg PUBLIC "-//W3C//DTD SVG 1.1//EN"
 "http://www.w3.org/Graphics/SVG/1.1/DTD/svg11.dtd">
<!-- Generated by graphviz version 2.43.0 (0)
 -->
<!-- Title: %3 Pages: 1 -->
<svg width="1091pt" height="44pt"
 viewBox="0.00 0.00 1091.17 44.00" xmlns="http://www.w3.org/2000/svg" xmlns:xlink="http://www.w3.org/1999/xlink">
<g id="graph0" class="graph" transform="scale(1 1) rotate(0) translate(4 40)">
<title>%3</title>
<polygon fill="white" stroke="transparent" points="-4,4 -4,-40 1087.17,-40 1087.17,4 -4,4"/>
<!-- 0,0 (LE BUS) -->
<g id="node1" class="node">
<title>0,0 (LE BUS)</title>
<ellipse fill="none" stroke="black" cx="460.02" cy="-18" rx="71.49" ry="18"/>
<text text-anchor="middle" x="460.02" y="-14.3" font-family="Times,serif" font-size="14.00">0,0 (LE BUS)</text>
</g>
<!-- 3,5 (item=molybdenum&#45;plate Molybdenum plate) -->
<g id="node2" class="node">
<title>3,5 (item=molybdenum&#45;plate Molybdenum plate)</title>
<ellipse fill="none" stroke="black" cx="843.34" cy="-18" rx="239.66" ry="18"/>
<text text-anchor="middle" x="843.34" y="-14.3" font-family="Times,serif" font-size="14.00">3,5 (item=molybdenum&#45;plate Molybdenum plate)</text>
</g>
<!-- 0,0 (LE BUS)&#45;&gt;3,5 (item=molybdenum&#45;plate Molybdenum plate) -->
<g id="edge1" class="edge">
<title>0,0 (LE BUS)&#45;&gt;3,5 (item=molybdenum&#45;plate Molybdenum plate)</title>
<path fill="none" stroke="black" stroke-width="1.01" d="M531.67,-18C550.08,-18 570.97,-18 593,-18"/>
<polygon fill="black" stroke="black" stroke-width="1.01" points="593.2,-21.5 603.2,-18 593.2,-14.5 593.2,-21.5"/>
<text text-anchor="middle" x="562.34" y="-6.8" font-family="Times,serif" font-size="14.00">molybdenum&#45;ore*25440</text>
</g>
<!-- 4,&#45;2 (Ceramic) -->
<g id="node3" class="node">
<title>4,&#45;2 (Ceramic)</title>
<ellipse fill="none" stroke="black" cx="76.69" cy="-18" rx="76.89" ry="18"/>
<text text-anchor="middle" x="76.69" y="-14.3" font-family="Times,serif" font-size="14.00">4,&#45;2 (Ceramic)</text>
</g>
<!-- 0,0 (LE BUS)&#45;&gt;4,&#45;2 (Ceramic) -->
<g id="edge2" class="edge">
<title>0,0 (LE BUS)&#45;&gt;4,&#45;2 (Ceramic)</title>
<path fill="none" stroke="black" stroke-width="0.99" d="M388.37,-18C324.78,-18 231.7,-18 163.83,-18"/>
<polygon fill="black" stroke="black" stroke-width="0.99" points="163.58,-14.5 153.58,-18 163.58,-21.5 163.58,-14.5"/>
<text text-anchor="middle" x="276.1" y="-6.8" font-family="Times,serif" font-size="14.00">molybdenum&#45;ore*25040</text>
</g>
</g>
</svg>
