<?xml version="1.0" encoding="UTF-8" standalone="no"?>
<!DOCTYPE svg PUBLIC "-//W3C//DTD SVG 1.1//EN"
 "http://www.w3.org/Graphics/SVG/1.1/DTD/svg11.dtd">
<!-- Generated by graphviz version 2.43.0 (0)
 -->
<!-- Title: %3 Pages: 1 -->
<svg width="890pt" height="741pt"
 viewBox="0.00 0.00 890.19 741.29" xmlns="http://www.w3.org/2000/svg" xmlns:xlink="http://www.w3.org/1999/xlink">
<g id="graph0" class="graph" transform="scale(1 1) rotate(0) translate(4 737.29)">
<title>%3</title>
<polygon fill="white" stroke="transparent" points="-4,4 -4,-737.29 886.19,-737.29 886.19,4 -4,4"/>
<!-- 4,3 (item=nexelit&#45;plate Nexelit platery) -->
<g id="node1" class="node">
<title>4,3 (item=nexelit&#45;plate Nexelit platery)</title>
<ellipse fill="none" stroke="black" cx="557.39" cy="-18" rx="194.17" ry="18"/>
<text text-anchor="middle" x="557.39" y="-14.3" font-family="Times,serif" font-size="14.00">4,3 (item=nexelit&#45;plate Nexelit platery)</text>
</g>
<!-- 2,7 (Mystery petrochemicals) -->
<g id="node2" class="node">
<title>2,7 (Mystery petrochemicals)</title>
<ellipse fill="none" stroke="black" cx="147.54" cy="-151.17" rx="147.57" ry="18"/>
<text text-anchor="middle" x="147.54" y="-147.47" font-family="Times,serif" font-size="14.00">2,7 (Mystery petrochemicals)</text>
</g>
<!-- 4,3 (item=nexelit&#45;plate Nexelit platery)&#45;&gt;2,7 (Mystery petrochemicals) -->
<g id="edge1" class="edge">
<title>4,3 (item=nexelit&#45;plate Nexelit platery)&#45;&gt;2,7 (Mystery petrochemicals)</title>
<path fill="none" stroke="black" stroke-width="0.3" d="M503.81,-35.41C427.96,-60.05 289.62,-105 209.47,-131.05"/>
<polygon fill="black" stroke="black" stroke-width="0.3" points="207.94,-127.86 199.51,-134.28 210.11,-134.52 207.94,-127.86"/>
<text text-anchor="middle" x="290.14" y="-87.03" font-family="Times,serif" font-size="14.00">nexelit&#45;plate*9024</text>
</g>
<!-- 0,0 (LE BUS) -->
<g id="node4" class="node">
<title>0,0 (LE BUS)</title>
<ellipse fill="none" stroke="black" cx="810.7" cy="-366.64" rx="71.49" ry="18"/>
<text text-anchor="middle" x="810.7" y="-362.94" font-family="Times,serif" font-size="14.00">0,0 (LE BUS)</text>
</g>
<!-- 4,3 (item=nexelit&#45;plate Nexelit platery)&#45;&gt;0,0 (LE BUS) -->
<g id="edge5" class="edge">
<title>4,3 (item=nexelit&#45;plate Nexelit platery)&#45;&gt;0,0 (LE BUS)</title>
<path fill="none" stroke="black" stroke-width="0.83" d="M570.65,-36.25C612.55,-93.91 742.17,-272.32 791.43,-340.13"/>
<polygon fill="black" stroke="black" stroke-width="0.83" points="788.86,-342.54 797.57,-348.57 794.52,-338.42 788.86,-342.54"/>
<text text-anchor="middle" x="610.04" y="-191.99" font-family="Times,serif" font-size="14.00">nexelit&#45;plate*24560</text>
</g>
<!-- 4,&#45;1 (Fluid) -->
<g id="node5" class="node">
<title>4,&#45;1 (Fluid)</title>
<ellipse fill="none" stroke="black" cx="147.54" cy="-582.12" rx="61.99" ry="18"/>
<text text-anchor="middle" x="147.54" y="-578.42" font-family="Times,serif" font-size="14.00">4,&#45;1 (Fluid)</text>
</g>
<!-- 4,3 (item=nexelit&#45;plate Nexelit platery)&#45;&gt;4,&#45;1 (Fluid) -->
<g id="edge6" class="edge">
<title>4,3 (item=nexelit&#45;plate Nexelit platery)&#45;&gt;4,&#45;1 (Fluid)</title>
<path fill="none" stroke="black" stroke-width="0.22" d="M544.22,-36.13C484.24,-118.69 236.81,-459.24 166.34,-556.23"/>
<polygon fill="black" stroke="black" stroke-width="0.22" points="163.5,-554.19 160.46,-564.34 169.17,-558.3 163.5,-554.19"/>
<text text-anchor="middle" x="288.78" y="-299.98" font-family="Times,serif" font-size="14.00">nexelit&#45;plate*6560</text>
</g>
<!-- &#45;4,&#45;7 (Nexelit from raw) -->
<g id="node3" class="node">
<title>&#45;4,&#45;7 (Nexelit from raw)</title>
<ellipse fill="none" stroke="black" cx="557.39" cy="-715.29" rx="120.48" ry="18"/>
<text text-anchor="middle" x="557.39" y="-711.59" font-family="Times,serif" font-size="14.00">&#45;4,&#45;7 (Nexelit from raw)</text>
</g>
<!-- &#45;4,&#45;7 (Nexelit from raw)&#45;&gt;2,7 (Mystery petrochemicals) -->
<g id="edge2" class="edge">
<title>&#45;4,&#45;7 (Nexelit from raw)&#45;&gt;2,7 (Mystery petrochemicals)</title>
<path fill="none" stroke="black" stroke-width="1.25" d="M544.22,-697.16C484.3,-614.69 237.36,-274.8 166.58,-177.38"/>
<polygon fill="black" stroke="black" stroke-width="1.25" points="169.37,-175.27 160.66,-169.23 163.71,-179.38 169.37,-175.27"/>
<text text-anchor="middle" x="284.4" y="-441.07" font-family="Times,serif" font-size="14.00">nexelit&#45;plate*37200</text>
</g>
<!-- &#45;4,&#45;7 (Nexelit from raw)&#45;&gt;0,0 (LE BUS) -->
<g id="edge3" class="edge">
<title>&#45;4,&#45;7 (Nexelit from raw)&#45;&gt;0,0 (LE BUS)</title>
<path fill="none" stroke="black" stroke-width="2.64" d="M570.65,-697.03C612.55,-639.38 742.17,-460.96 791.43,-393.16"/>
<polygon fill="black" stroke="black" stroke-width="2.64" points="794.52,-394.86 797.57,-384.72 788.86,-390.75 794.52,-394.86"/>
<text text-anchor="middle" x="610.04" y="-548.9" font-family="Times,serif" font-size="14.00">nexelit&#45;plate*78240</text>
</g>
<!-- &#45;4,&#45;7 (Nexelit from raw)&#45;&gt;4,&#45;1 (Fluid) -->
<g id="edge4" class="edge">
<title>&#45;4,&#45;7 (Nexelit from raw)&#45;&gt;4,&#45;1 (Fluid)</title>
<path fill="none" stroke="black" stroke-width="0.76" d="M506.73,-698.83C428.06,-673.27 277.42,-624.32 198.54,-598.69"/>
<polygon fill="black" stroke="black" stroke-width="0.76" points="199.42,-595.3 188.83,-595.53 197.26,-601.95 199.42,-595.3"/>
<text text-anchor="middle" x="281.63" y="-652.56" font-family="Times,serif" font-size="14.00">nexelit&#45;plate*22400</text>
</g>
</g>
</svg>
