<?xml version="1.0" encoding="UTF-8" standalone="no"?>
<!DOCTYPE svg PUBLIC "-//W3C//DTD SVG 1.1//EN"
 "http://www.w3.org/Graphics/SVG/1.1/DTD/svg11.dtd">
<!-- Generated by graphviz version 2.43.0 (0)
 -->
<!-- Title: %3 Pages: 1 -->
<svg width="4775pt" height="4342pt"
 viewBox="0.00 0.00 4774.70 4342.12" xmlns="http://www.w3.org/2000/svg" xmlns:xlink="http://www.w3.org/1999/xlink">
<g id="graph0" class="graph" transform="scale(1 1) rotate(0) translate(4 4338.12)">
<title>%3</title>
<polygon fill="white" stroke="transparent" points="-4,4 -4,-4338.12 4770.7,-4338.12 4770.7,4 -4,4"/>
<!-- 3,16 (More Coke) -->
<g id="node1" class="node">
<title>3,16 (More Coke)</title>
<ellipse fill="none" stroke="black" cx="218.11" cy="-2831.15" rx="90.98" ry="18"/>
<text text-anchor="middle" x="218.11" y="-2827.45" font-family="Times,serif" font-size="14.00">3,16 (More Coke)</text>
</g>
<!-- &#45;6,&#45;4 (High&#45;Power Resistors, Ceramic Capacitor, Inductor) -->
<g id="node2" class="node">
<title>&#45;6,&#45;4 (High&#45;Power Resistors, Ceramic Capacitor, Inductor)</title>
<ellipse fill="none" stroke="black" cx="2261.98" cy="-18" rx="278.35" ry="18"/>
<text text-anchor="middle" x="2261.98" y="-14.3" font-family="Times,serif" font-size="14.00">&#45;6,&#45;4 (High&#45;Power Resistors, Ceramic Capacitor, Inductor)</text>
</g>
<!-- 3,16 (More Coke)&#45;&gt;&#45;6,&#45;4 (High&#45;Power Resistors, Ceramic Capacitor, Inductor) -->
<g id="edge1" class="edge">
<title>3,16 (More Coke)&#45;&gt;&#45;6,&#45;4 (High&#45;Power Resistors, Ceramic Capacitor, Inductor)</title>
<path fill="none" stroke="black" stroke-width="0.57" d="M231.16,-2813.19C394.79,-2587.98 2045.26,-316.3 2242.7,-44.54"/>
<polygon fill="black" stroke="black" stroke-width="0.57" points="2245.82,-46.21 2248.86,-36.06 2240.15,-42.1 2245.82,-46.21"/>
<text text-anchor="middle" x="1194.43" y="-1432.67" font-family="Times,serif" font-size="14.00">coke*12672</text>
</g>
<!-- &#45;2,9 (molten steel) -->
<g id="node4" class="node">
<title>&#45;2,9 (molten steel)</title>
<ellipse fill="none" stroke="black" cx="1597.89" cy="-123.18" rx="95.58" ry="18"/>
<text text-anchor="middle" x="1597.89" y="-119.48" font-family="Times,serif" font-size="14.00">&#45;2,9 (molten steel)</text>
</g>
<!-- 3,16 (More Coke)&#45;&gt;&#45;2,9 (molten steel) -->
<g id="edge12" class="edge">
<title>3,16 (More Coke)&#45;&gt;&#45;2,9 (molten steel)</title>
<path fill="none" stroke="black" stroke-width="1.22" d="M227.28,-2813.14C339.59,-2592.73 1447.4,-418.54 1584.08,-150.28"/>
<polygon fill="black" stroke="black" stroke-width="1.22" points="1587.28,-151.72 1588.7,-141.22 1581.04,-148.54 1587.28,-151.72"/>
<text text-anchor="middle" x="863.18" y="-1485.51" font-family="Times,serif" font-size="14.00">coke*27136</text>
</g>
<!-- &#45;5,1 (Acetylene) -->
<g id="node6" class="node">
<title>&#45;5,1 (Acetylene)</title>
<ellipse fill="none" stroke="black" cx="523.36" cy="-3430.24" rx="83.39" ry="18"/>
<text text-anchor="middle" x="523.36" y="-3426.54" font-family="Times,serif" font-size="14.00">&#45;5,1 (Acetylene)</text>
</g>
<!-- 3,16 (More Coke)&#45;&gt;&#45;5,1 (Acetylene) -->
<g id="edge32" class="edge">
<title>3,16 (More Coke)&#45;&gt;&#45;5,1 (Acetylene)</title>
<path fill="none" stroke="black" stroke-width="1.44" d="M227.24,-2849.08C270.73,-2934.43 456.81,-3299.64 509.44,-3402.93"/>
<polygon fill="black" stroke="black" stroke-width="1.44" points="506.45,-3404.77 514.11,-3412.09 512.69,-3401.59 506.45,-3404.77"/>
<text text-anchor="middle" x="325.84" y="-3129.81" font-family="Times,serif" font-size="14.00">coke*32192</text>
</g>
<!-- &#45;2,6 (Wrong ratio of Calcium Carbide to Acetalene) -->
<g id="node7" class="node">
<title>&#45;2,6 (Wrong ratio of Calcium Carbide to Acetalene)</title>
<ellipse fill="none" stroke="black" cx="998.8" cy="-428.43" rx="245.86" ry="18"/>
<text text-anchor="middle" x="998.8" y="-424.73" font-family="Times,serif" font-size="14.00">&#45;2,6 (Wrong ratio of Calcium Carbide to Acetalene)</text>
</g>
<!-- 3,16 (More Coke)&#45;&gt;&#45;2,6 (Wrong ratio of Calcium Carbide to Acetalene) -->
<g id="edge4" class="edge">
<title>3,16 (More Coke)&#45;&gt;&#45;2,6 (Wrong ratio of Calcium Carbide to Acetalene)</title>
<path fill="none" stroke="black" stroke-width="1.2" d="M224.05,-2812.85C291.31,-2605.88 907.93,-708.09 989.83,-456.04"/>
<polygon fill="black" stroke="black" stroke-width="1.2" points="993.16,-457.11 992.92,-446.51 986.51,-454.94 993.16,-457.11"/>
<text text-anchor="middle" x="564.44" y="-1638.25" font-family="Times,serif" font-size="14.00">coke*26848</text>
</g>
<!-- 2,5 (Simple Circuits) -->
<g id="node8" class="node">
<title>2,5 (Simple Circuits)</title>
<ellipse fill="none" stroke="black" cx="523.36" cy="-903.87" rx="106.68" ry="18"/>
<text text-anchor="middle" x="523.36" y="-900.17" font-family="Times,serif" font-size="14.00">2,5 (Simple Circuits)</text>
</g>
<!-- 3,16 (More Coke)&#45;&gt;2,5 (Simple Circuits) -->
<g id="edge28" class="edge">
<title>3,16 (More Coke)&#45;&gt;2,5 (Simple Circuits)</title>
<path fill="none" stroke="black" stroke-width="0.83" d="M220.98,-2813C249.64,-2632.05 483.66,-1154.53 518.92,-931.92"/>
<polygon fill="black" stroke="black" stroke-width="0.83" points="522.38,-932.42 520.49,-922 515.47,-931.33 522.38,-932.42"/>
<text text-anchor="middle" x="327.45" y="-1876.26" font-family="Times,serif" font-size="14.00">coke*18560</text>
</g>
<!-- &#45;5,&#45;4 (low priority (slaked)? lime) -->
<g id="node9" class="node">
<title>&#45;5,&#45;4 (low priority (slaked)? lime)</title>
<ellipse fill="none" stroke="black" cx="218.11" cy="-1502.96" rx="162.47" ry="18"/>
<text text-anchor="middle" x="218.11" y="-1499.26" font-family="Times,serif" font-size="14.00">&#45;5,&#45;4 (low priority (slaked)? lime)</text>
</g>
<!-- 3,16 (More Coke)&#45;&gt;&#45;5,&#45;4 (low priority (slaked)? lime) -->
<g id="edge24" class="edge">
<title>3,16 (More Coke)&#45;&gt;&#45;5,&#45;4 (low priority (slaked)? lime)</title>
<path fill="none" stroke="black" stroke-width="1.57" d="M218.11,-2812.88C218.11,-2668.22 218.11,-1708.8 218.11,-1531.21"/>
<polygon fill="black" stroke="black" stroke-width="1.57" points="221.61,-1531.1 218.11,-1521.1 214.61,-1531.1 221.61,-1531.1"/>
<text text-anchor="middle" x="260.61" y="-2175.85" font-family="Times,serif" font-size="14.00">coke*35008</text>
</g>
<!-- 0,8 (Tar from Coke) -->
<g id="node10" class="node">
<title>0,8 (Tar from Coke)</title>
<ellipse fill="none" stroke="black" cx="4000.61" cy="-903.87" rx="100.98" ry="18"/>
<text text-anchor="middle" x="4000.61" y="-900.17" font-family="Times,serif" font-size="14.00">0,8 (Tar from Coke)</text>
</g>
<!-- 3,16 (More Coke)&#45;&gt;0,8 (Tar from Coke) -->
<g id="edge7" class="edge">
<title>3,16 (More Coke)&#45;&gt;0,8 (Tar from Coke)</title>
<path fill="none" stroke="black" stroke-width="1.41" d="M251.1,-2814.35C597.69,-2637.75 3566.63,-1125 3958.07,-925.55"/>
<polygon fill="black" stroke="black" stroke-width="1.41" points="3959.78,-928.61 3967.1,-920.95 3956.6,-922.37 3959.78,-928.61"/>
<text text-anchor="middle" x="2062.08" y="-1873.75" font-family="Times,serif" font-size="14.00">coke*31440</text>
</g>
<!-- 2,10 (Nickel plate) -->
<g id="node11" class="node">
<title>2,10 (Nickel plate)</title>
<ellipse fill="none" stroke="black" cx="112.93" cy="-2167.06" rx="96.68" ry="18"/>
<text text-anchor="middle" x="112.93" y="-2163.36" font-family="Times,serif" font-size="14.00">2,10 (Nickel plate)</text>
</g>
<!-- 3,16 (More Coke)&#45;&gt;2,10 (Nickel plate) -->
<g id="edge17" class="edge">
<title>3,16 (More Coke)&#45;&gt;2,10 (Nickel plate)</title>
<path fill="none" stroke="black" stroke-width="0.59" d="M215.24,-2813.05C200.71,-2721.31 135.22,-2307.8 117.41,-2195.36"/>
<polygon fill="black" stroke="black" stroke-width="0.59" points="120.81,-2194.48 115.79,-2185.15 113.9,-2195.57 120.81,-2194.48"/>
<text text-anchor="middle" x="123.82" y="-2508" font-family="Times,serif" font-size="14.00">coke*13184</text>
</g>
<!-- 2,&#45;1 (Ammonia) -->
<g id="node12" class="node">
<title>2,&#45;1 (Ammonia)</title>
<ellipse fill="none" stroke="black" cx="998.8" cy="-3905.68" rx="81.49" ry="18"/>
<text text-anchor="middle" x="998.8" y="-3901.98" font-family="Times,serif" font-size="14.00">2,&#45;1 (Ammonia)</text>
</g>
<!-- 3,16 (More Coke)&#45;&gt;2,&#45;1 (Ammonia) -->
<g id="edge9" class="edge">
<title>3,16 (More Coke)&#45;&gt;2,&#45;1 (Ammonia)</title>
<path fill="none" stroke="black" stroke-width="0.82" d="M231.33,-2849.35C323.57,-2976.3 870.33,-3728.86 979.75,-3879.46"/>
<polygon fill="black" stroke="black" stroke-width="0.82" points="977.05,-3881.7 985.76,-3887.73 982.71,-3877.58 977.05,-3881.7"/>
<text text-anchor="middle" x="563.04" y="-3368.21" font-family="Times,serif" font-size="14.00">coke*18224</text>
</g>
<!-- &#45;2,&#45;3 (Trains) -->
<g id="node13" class="node">
<title>&#45;2,&#45;3 (Trains)</title>
<ellipse fill="none" stroke="black" cx="2926.08" cy="-123.18" rx="70.39" ry="18"/>
<text text-anchor="middle" x="2926.08" y="-119.48" font-family="Times,serif" font-size="14.00">&#45;2,&#45;3 (Trains)</text>
</g>
<!-- 3,16 (More Coke)&#45;&gt;&#45;2,&#45;3 (Trains) -->
<g id="edge10" class="edge">
<title>3,16 (More Coke)&#45;&gt;&#45;2,&#45;3 (Trains)</title>
<path fill="none" stroke="black" stroke-width="0.65" d="M236.12,-2813.14C457.08,-2592.18 2641.57,-407.69 2900.95,-148.31"/>
<polygon fill="black" stroke="black" stroke-width="0.65" points="2903.79,-150.42 2908.39,-140.87 2898.84,-145.47 2903.79,-150.42"/>
<text text-anchor="middle" x="1526.03" y="-1484.53" font-family="Times,serif" font-size="14.00">coke*14448</text>
</g>
<!-- 1,6 (Sodium Hydroxide, These new bullets are fun, Limestone) -->
<g id="node14" class="node">
<title>1,6 (Sodium Hydroxide, These new bullets are fun, Limestone)</title>
<ellipse fill="none" stroke="black" cx="1597.89" cy="-4210.93" rx="301.65" ry="18"/>
<text text-anchor="middle" x="1597.89" y="-4207.23" font-family="Times,serif" font-size="14.00">1,6 (Sodium Hydroxide, These new bullets are fun, Limestone)</text>
</g>
<!-- 3,16 (More Coke)&#45;&gt;1,6 (Sodium Hydroxide, These new bullets are fun, Limestone) -->
<g id="edge22" class="edge">
<title>3,16 (More Coke)&#45;&gt;1,6 (Sodium Hydroxide, These new bullets are fun, Limestone)</title>
<path fill="none" stroke="black" stroke-width="1.1" d="M235.81,-2848.85C382.73,-2995.78 1399.27,-4012.32 1572.74,-4185.79"/>
<polygon fill="black" stroke="black" stroke-width="1.1" points="1570.37,-4188.36 1579.91,-4192.96 1575.32,-4183.41 1570.37,-4188.36"/>
<text text-anchor="middle" x="861.77" y="-3521.12" font-family="Times,serif" font-size="14.00">coke*24560</text>
</g>
<!-- &#45;4,&#45;2 (For Science!) -->
<g id="node15" class="node">
<title>&#45;4,&#45;2 (For Science!)</title>
<ellipse fill="none" stroke="black" cx="2261.98" cy="-4316.12" rx="98.58" ry="18"/>
<text text-anchor="middle" x="2261.98" y="-4312.42" font-family="Times,serif" font-size="14.00">&#45;4,&#45;2 (For Science!)</text>
</g>
<!-- 3,16 (More Coke)&#45;&gt;&#45;4,&#45;2 (For Science!) -->
<g id="edge36" class="edge">
<title>3,16 (More Coke)&#45;&gt;&#45;4,&#45;2 (For Science!)</title>
<path fill="none" stroke="black" stroke-width="0.34" d="M242.13,-2848.6C452.95,-3001.78 1986.35,-4115.86 2229.53,-4292.54"/>
<polygon fill="black" stroke="black" stroke-width="0.34" points="2227.8,-4295.61 2237.95,-4298.65 2231.92,-4289.94 2227.8,-4295.61"/>
<text text-anchor="middle" x="1197.83" y="-3574.37" font-family="Times,serif" font-size="14.00">coke*7504</text>
</g>
<!-- 1,12 (Molten Iron) -->
<g id="node17" class="node">
<title>1,12 (Molten Iron)</title>
<ellipse fill="none" stroke="black" cx="2926.08" cy="-4210.93" rx="95.58" ry="18"/>
<text text-anchor="middle" x="2926.08" y="-4207.23" font-family="Times,serif" font-size="14.00">1,12 (Molten Iron)</text>
</g>
<!-- 3,16 (More Coke)&#45;&gt;1,12 (Molten Iron) -->
<g id="edge31" class="edge">
<title>3,16 (More Coke)&#45;&gt;1,12 (Molten Iron)</title>
<path fill="none" stroke="black" stroke-width="0.49" d="M251.37,-2848.1C536.31,-2993.28 2563.48,-4026.18 2883.57,-4189.27"/>
<polygon fill="black" stroke="black" stroke-width="0.49" points="2882.04,-4192.42 2892.54,-4193.84 2885.22,-4186.18 2882.04,-4192.42"/>
<text text-anchor="middle" x="1524.97" y="-3522.49" font-family="Times,serif" font-size="14.00">coke*10816</text>
</g>
<!-- 4,&#45;2 (Ceramic) -->
<g id="node18" class="node">
<title>4,&#45;2 (Ceramic)</title>
<ellipse fill="none" stroke="black" cx="76.69" cy="-2877.1" rx="76.89" ry="18"/>
<text text-anchor="middle" x="76.69" y="-2873.4" font-family="Times,serif" font-size="14.00">4,&#45;2 (Ceramic)</text>
</g>
<!-- 3,16 (More Coke)&#45;&gt;4,&#45;2 (Ceramic) -->
<g id="edge19" class="edge">
<title>3,16 (More Coke)&#45;&gt;4,&#45;2 (Ceramic)</title>
<path fill="none" stroke="black" stroke-width="0.32" d="M170.63,-2846.58C158.09,-2850.65 144.47,-2855.08 131.58,-2859.27"/>
<polygon fill="black" stroke="black" stroke-width="0.32" points="130.33,-2856 121.9,-2862.41 132.49,-2862.65 130.33,-2856"/>
<text text-anchor="middle" x="189.1" y="-2856.73" font-family="Times,serif" font-size="14.00">coke*7184</text>
</g>
<!-- &#45;1,7 (Rayon) -->
<g id="node19" class="node">
<title>&#45;1,7 (Rayon)</title>
<ellipse fill="none" stroke="black" cx="4305.86" cy="-1502.96" rx="66.89" ry="18"/>
<text text-anchor="middle" x="4305.86" y="-1499.26" font-family="Times,serif" font-size="14.00">&#45;1,7 (Rayon)</text>
</g>
<!-- 3,16 (More Coke)&#45;&gt;&#45;1,7 (Rayon) -->
<g id="edge37" class="edge">
<title>3,16 (More Coke)&#45;&gt;&#45;1,7 (Rayon)</title>
<path fill="none" stroke="black" stroke-width="0.11" d="M265.43,-2815.78C688.03,-2678.47 3808.94,-1664.42 4253.28,-1520.05"/>
<polygon fill="black" stroke="black" stroke-width="0.11" points="4254.55,-1523.32 4262.98,-1516.9 4252.38,-1516.66 4254.55,-1523.32"/>
<text text-anchor="middle" x="2221.35" y="-2171.71" font-family="Times,serif" font-size="14.00">coke*2528</text>
</g>
<!-- 3,10 () -->
<g id="node20" class="node">
<title>3,10 ()</title>
<ellipse fill="none" stroke="black" cx="3525.17" cy="-3905.68" rx="40.89" ry="18"/>
<text text-anchor="middle" x="3525.17" y="-3901.98" font-family="Times,serif" font-size="14.00">3,10 ()</text>
</g>
<!-- 3,16 (More Coke)&#45;&gt;3,10 () -->
<g id="edge42" class="edge">
<title>3,16 (More Coke)&#45;&gt;3,10 ()</title>
<path fill="none" stroke="black" stroke-width="0.11" d="M265.49,-2846.55C640.55,-2968.41 3124.6,-3775.53 3482.29,-3891.75"/>
<polygon fill="black" stroke="black" stroke-width="0.11" points="3481.42,-3895.15 3492.01,-3894.91 3483.58,-3888.49 3481.42,-3895.15"/>
<text text-anchor="middle" x="1835.89" y="-3372.95" font-family="Times,serif" font-size="14.00">coke*2512</text>
</g>
<!-- &#45;3,&#45;2 (Depot) -->
<g id="node21" class="node">
<title>&#45;3,&#45;2 (Depot)</title>
<ellipse fill="none" stroke="black" cx="4000.61" cy="-3430.24" rx="68.79" ry="18"/>
<text text-anchor="middle" x="4000.61" y="-3426.54" font-family="Times,serif" font-size="14.00">&#45;3,&#45;2 (Depot)</text>
</g>
<!-- 3,16 (More Coke)&#45;&gt;&#45;3,&#45;2 (Depot) -->
<g id="edge35" class="edge">
<title>3,16 (More Coke)&#45;&gt;&#45;3,&#45;2 (Depot)</title>
<path fill="none" stroke="black" stroke-width="0.11" d="M289.46,-2842.45C764.4,-2917.68 3463.85,-3345.23 3931.55,-3419.31"/>
<polygon fill="black" stroke="black" stroke-width="0.11" points="3931.12,-3422.78 3941.54,-3420.89 3932.21,-3415.87 3931.12,-3422.78"/>
<text text-anchor="middle" x="2072.51" y="-3134.68" font-family="Times,serif" font-size="14.00">coke*2528</text>
</g>
<!-- 3,4 () -->
<g id="node22" class="node">
<title>3,4 ()</title>
<ellipse fill="none" stroke="black" cx="4305.86" cy="-2831.15" rx="35.19" ry="18"/>
<text text-anchor="middle" x="4305.86" y="-2827.45" font-family="Times,serif" font-size="14.00">3,4 ()</text>
</g>
<!-- 3,16 (More Coke)&#45;&gt;3,4 () -->
<g id="edge47" class="edge">
<title>3,16 (More Coke)&#45;&gt;3,4 ()</title>
<path fill="none" stroke="black" stroke-width="0.13" d="M309.22,-2831.15C871.3,-2831.15 3856.75,-2831.15 4260.63,-2831.15"/>
<polygon fill="black" stroke="black" stroke-width="0.13" points="4260.76,-2834.65 4270.76,-2831.15 4260.76,-2827.65 4260.76,-2834.65"/>
<text text-anchor="middle" x="2246.92" y="-2834.95" font-family="Times,serif" font-size="14.00">coke*2800</text>
</g>
<!-- 2,8 (Graphite) -->
<g id="node3" class="node">
<title>2,8 (Graphite)</title>
<ellipse fill="none" stroke="black" cx="4411.04" cy="-2167.06" rx="76.09" ry="18"/>
<text text-anchor="middle" x="4411.04" y="-2163.36" font-family="Times,serif" font-size="14.00">2,8 (Graphite)</text>
</g>
<!-- 2,8 (Graphite)&#45;&gt;&#45;2,9 (molten steel) -->
<g id="edge2" class="edge">
<title>2,8 (Graphite)&#45;&gt;&#45;2,9 (molten steel)</title>
<path fill="none" stroke="black" stroke-width="1.35" d="M4387.15,-2149.7C4132.59,-1964.75 1924.17,-360.24 1630.18,-146.64"/>
<polygon fill="black" stroke="black" stroke-width="1.35" points="1632.19,-143.78 1622.04,-140.73 1628.07,-149.44 1632.19,-143.78"/>
<text text-anchor="middle" x="2966.16" y="-1151.97" font-family="Times,serif" font-size="14.00">coke*30049</text>
</g>
<!-- 2,8 (Graphite)&#45;&gt;&#45;5,1 (Acetylene) -->
<g id="edge29" class="edge">
<title>2,8 (Graphite)&#45;&gt;&#45;5,1 (Acetylene)</title>
<path fill="none" stroke="black" stroke-width="3.78" d="M4366.04,-2181.68C3966.01,-2311.66 1023.79,-3267.64 579.49,-3412"/>
<polygon fill="black" stroke="black" stroke-width="3.78" points="578.19,-3408.75 569.76,-3415.17 580.36,-3415.4 578.19,-3408.75"/>
<text text-anchor="middle" x="2430.26" y="-2800.64" font-family="Times,serif" font-size="14.00">coke*84335</text>
</g>
<!-- 2,8 (Graphite)&#45;&gt;&#45;2,6 (Wrong ratio of Calcium Carbide to Acetalene) -->
<g id="edge46" class="edge">
<title>2,8 (Graphite)&#45;&gt;&#45;2,6 (Wrong ratio of Calcium Carbide to Acetalene)</title>
<path fill="none" stroke="black" stroke-width="1.79" d="M4378.91,-2150.68C4057,-1986.66 1417.44,-641.74 1042.93,-450.92"/>
<polygon fill="black" stroke="black" stroke-width="1.79" points="1044.5,-447.79 1034.01,-446.37 1041.33,-454.03 1044.5,-447.79"/>
<text text-anchor="middle" x="2668.42" y="-1304.6" font-family="Times,serif" font-size="14.00">coke*40009</text>
</g>
<!-- 2,8 (Graphite)&#45;&gt;2,5 (Simple Circuits) -->
<g id="edge5" class="edge">
<title>2,8 (Graphite)&#45;&gt;2,5 (Simple Circuits)</title>
<path fill="none" stroke="black" stroke-width="1" d="M4366.04,-2152.44C3966.85,-2022.73 1036.22,-1070.51 582.34,-923.04"/>
<polygon fill="black" stroke="black" stroke-width="1" points="583.29,-919.67 572.7,-919.91 581.13,-926.32 583.29,-919.67"/>
<text text-anchor="middle" x="2431.69" y="-1541.54" font-family="Times,serif" font-size="14.00">coke*22261</text>
</g>
<!-- 2,8 (Graphite)&#45;&gt;&#45;5,&#45;4 (low priority (slaked)? lime) -->
<g id="edge45" class="edge">
<title>2,8 (Graphite)&#45;&gt;&#45;5,&#45;4 (low priority (slaked)? lime)</title>
<path fill="none" stroke="black" stroke-width="0.45" d="M4347.69,-2157.02C3876.11,-2082.33 914.91,-1613.33 321.55,-1519.35"/>
<polygon fill="black" stroke="black" stroke-width="0.45" points="321.73,-1515.83 311.3,-1517.72 320.63,-1522.74 321.73,-1515.83"/>
<text text-anchor="middle" x="2292.12" y="-1841.98" font-family="Times,serif" font-size="14.00">coke*10016</text>
</g>
<!-- 2,8 (Graphite)&#45;&gt;2,10 (Nickel plate) -->
<g id="edge44" class="edge">
<title>2,8 (Graphite)&#45;&gt;2,10 (Nickel plate)</title>
<path fill="none" stroke="black" stroke-width="2.57" d="M4334.62,-2167.06C3816.92,-2167.06 826.17,-2167.06 220.05,-2167.06"/>
<polygon fill="black" stroke="black" stroke-width="2.57" points="220.01,-2163.56 210.01,-2167.06 220.01,-2170.56 220.01,-2163.56"/>
<text text-anchor="middle" x="2319.83" y="-2170.86" font-family="Times,serif" font-size="14.00">coke*57384</text>
</g>
<!-- 2,8 (Graphite)&#45;&gt;2,&#45;1 (Ammonia) -->
<g id="edge34" class="edge">
<title>2,8 (Graphite)&#45;&gt;2,&#45;1 (Ammonia)</title>
<path fill="none" stroke="black" stroke-width="7.79" d="M4378.91,-2183.43C4056.24,-2347.84 1404.96,-3698.73 1040.32,-3884.53"/>
<polygon fill="black" stroke="black" stroke-width="7.79" points="1037.22,-3878.46 1031.4,-3889.07 1043.41,-3890.61 1037.22,-3878.46"/>
<text text-anchor="middle" x="2662.61" y="-3037.78" font-family="Times,serif" font-size="14.00">coke*173726</text>
</g>
<!-- 2,8 (Graphite)&#45;&gt;1,6 (Sodium Hydroxide, These new bullets are fun, Limestone) -->
<g id="edge41" class="edge">
<title>2,8 (Graphite)&#45;&gt;1,6 (Sodium Hydroxide, These new bullets are fun, Limestone)</title>
<path fill="none" stroke="black" stroke-width="0.36" d="M4387.15,-2184.42C4132.86,-2369.17 1928.75,-3970.55 1631.1,-4186.81"/>
<polygon fill="black" stroke="black" stroke-width="0.36" points="1628.88,-4184.09 1622.85,-4192.8 1633,-4189.75 1628.88,-4184.09"/>
<text text-anchor="middle" x="2971.12" y="-3189.41" font-family="Times,serif" font-size="14.00">coke*8000</text>
</g>
<!-- 2,8 (Graphite)&#45;&gt;&#45;4,&#45;2 (For Science!) -->
<g id="edge18" class="edge">
<title>2,8 (Graphite)&#45;&gt;&#45;4,&#45;2 (For Science!)</title>
<path fill="none" stroke="black" stroke-width="0.12" d="M4393.43,-2184.67C4202.16,-2375.94 2513.24,-4064.86 2287,-4291.1"/>
<polygon fill="black" stroke="black" stroke-width="0.12" points="2284.46,-4288.69 2279.86,-4298.24 2289.41,-4293.64 2284.46,-4288.69"/>
<text text-anchor="middle" x="3302.21" y="-3241.69" font-family="Times,serif" font-size="14.00">coke*2624</text>
</g>
<!-- &#45;1,10 (Iron Plates) -->
<g id="node16" class="node">
<title>&#45;1,10 (Iron Plates)</title>
<ellipse fill="none" stroke="black" cx="4619.86" cy="-1987.59" rx="94.78" ry="18"/>
<text text-anchor="middle" x="4619.86" y="-1983.89" font-family="Times,serif" font-size="14.00">&#45;1,10 (Iron Plates)</text>
</g>
<!-- 2,8 (Graphite)&#45;&gt;&#45;1,10 (Iron Plates) -->
<g id="edge14" class="edge">
<title>2,8 (Graphite)&#45;&gt;&#45;1,10 (Iron Plates)</title>
<path fill="none" stroke="black" stroke-width="1.15" d="M4431.44,-2149.52C4468.95,-2117.29 4548.9,-2048.57 4591.6,-2011.88"/>
<polygon fill="black" stroke="black" stroke-width="1.15" points="4594.07,-2014.37 4599.37,-2005.2 4589.51,-2009.06 4594.07,-2014.37"/>
<text text-anchor="middle" x="4469.02" y="-2084.5" font-family="Times,serif" font-size="14.00">coke*25590</text>
</g>
<!-- 2,8 (Graphite)&#45;&gt;1,12 (Molten Iron) -->
<g id="edge16" class="edge">
<title>2,8 (Graphite)&#45;&gt;1,12 (Molten Iron)</title>
<path fill="none" stroke="black" stroke-width="0.27" d="M4397.98,-2185.04C4262.08,-2372.08 3108.38,-3960.01 2945.23,-4184.57"/>
<polygon fill="black" stroke="black" stroke-width="0.27" points="2942.28,-4182.69 2939.23,-4192.83 2947.94,-4186.8 2942.28,-4182.69"/>
<text text-anchor="middle" x="3633.61" y="-3188.6" font-family="Times,serif" font-size="14.00">coke*5920</text>
</g>
<!-- 2,8 (Graphite)&#45;&gt;&#45;1,7 (Rayon) -->
<g id="edge21" class="edge">
<title>2,8 (Graphite)&#45;&gt;&#45;1,7 (Rayon)</title>
<path fill="none" stroke="black" stroke-width="0.17" d="M4408.17,-2148.95C4393.64,-2057.21 4328.15,-1643.7 4310.34,-1531.26"/>
<polygon fill="black" stroke="black" stroke-width="0.17" points="4313.75,-1530.38 4308.73,-1521.05 4306.83,-1531.48 4313.75,-1530.38"/>
<text text-anchor="middle" x="4321.26" y="-1843.91" font-family="Times,serif" font-size="14.00">coke*3754</text>
</g>
<!-- 2,8 (Graphite)&#45;&gt;3,10 () -->
<g id="edge50" class="edge">
<title>2,8 (Graphite)&#45;&gt;3,10 ()</title>
<path fill="none" stroke="black" stroke-width="1.12" d="M4401.84,-2185.12C4315.22,-2355.13 3643.9,-3672.66 3538.95,-3878.64"/>
<polygon fill="black" stroke="black" stroke-width="1.12" points="3535.67,-3877.35 3534.25,-3887.85 3541.91,-3880.53 3535.67,-3877.35"/>
<text text-anchor="middle" x="3927.89" y="-3035.68" font-family="Times,serif" font-size="14.00">coke*25015</text>
</g>
<!-- 2,8 (Graphite)&#45;&gt;&#45;3,&#45;2 (Depot) -->
<g id="edge48" class="edge">
<title>2,8 (Graphite)&#45;&gt;&#45;3,&#45;2 (Depot)</title>
<path fill="none" stroke="black" stroke-width="1.12" d="M4405.08,-2185.4C4359.41,-2325.97 4065.21,-3231.43 4009.65,-3402.41"/>
<polygon fill="black" stroke="black" stroke-width="1.12" points="4006.24,-3401.58 4006.48,-3412.17 4012.9,-3403.74 4006.24,-3401.58"/>
<text text-anchor="middle" x="4164.87" y="-2797.71" font-family="Times,serif" font-size="14.00">coke*25019</text>
</g>
<!-- 2,8 (Graphite)&#45;&gt;3,4 () -->
<g id="edge43" class="edge">
<title>2,8 (Graphite)&#45;&gt;3,4 ()</title>
<path fill="none" stroke="black" stroke-width="1.12" d="M4408.17,-2185.17C4393.64,-2276.9 4328.15,-2690.41 4310.34,-2802.85"/>
<polygon fill="black" stroke="black" stroke-width="1.12" points="4306.83,-2802.64 4308.73,-2813.06 4313.75,-2803.73 4306.83,-2802.64"/>
<text text-anchor="middle" x="4316.76" y="-2497.81" font-family="Times,serif" font-size="14.00">coke*25002</text>
</g>
<!-- 3,9 (Copper, molten &amp; plate) -->
<g id="node23" class="node">
<title>3,9 (Copper, molten &amp; plate)</title>
<ellipse fill="none" stroke="black" cx="4623.06" cy="-2297.88" rx="143.77" ry="18"/>
<text text-anchor="middle" x="4623.06" y="-2294.18" font-family="Times,serif" font-size="14.00">3,9 (Copper, molten &amp; plate)</text>
</g>
<!-- 2,8 (Graphite)&#45;&gt;3,9 (Copper, molten &amp; plate) -->
<g id="edge39" class="edge">
<title>2,8 (Graphite)&#45;&gt;3,9 (Copper, molten &amp; plate)</title>
<path fill="none" stroke="black" stroke-width="0.49" d="M4438.33,-2183.89C4475.81,-2207.02 4543.38,-2248.72 4585.58,-2274.76"/>
<polygon fill="black" stroke="black" stroke-width="0.49" points="4583.84,-2277.79 4594.18,-2280.07 4587.51,-2271.84 4583.84,-2277.79"/>
<text text-anchor="middle" x="4469.45" y="-2233.13" font-family="Times,serif" font-size="14.00">coke*10912</text>
</g>
<!-- 2,12 (Yet more coke) -->
<g id="node5" class="node">
<title>2,12 (Yet more coke)</title>
<ellipse fill="none" stroke="black" cx="3525.17" cy="-428.43" rx="106.68" ry="18"/>
<text text-anchor="middle" x="3525.17" y="-424.73" font-family="Times,serif" font-size="14.00">2,12 (Yet more coke)</text>
</g>
<!-- 2,12 (Yet more coke)&#45;&gt;&#45;6,&#45;4 (High&#45;Power Resistors, Ceramic Capacitor, Inductor) -->
<g id="edge20" class="edge">
<title>2,12 (Yet more coke)&#45;&gt;&#45;6,&#45;4 (High&#45;Power Resistors, Ceramic Capacitor, Inductor)</title>
<path fill="none" stroke="black" stroke-width="0.72" d="M3475.65,-412.34C3278.23,-348.2 2547.29,-110.7 2325.93,-38.78"/>
<polygon fill="black" stroke="black" stroke-width="0.72" points="2326.99,-35.44 2316.4,-35.68 2324.82,-42.1 2326.99,-35.44"/>
<text text-anchor="middle" x="2858.29" y="-229.36" font-family="Times,serif" font-size="14.00">coke*16160</text>
</g>
<!-- 2,12 (Yet more coke)&#45;&gt;&#45;2,9 (molten steel) -->
<g id="edge30" class="edge">
<title>2,12 (Yet more coke)&#45;&gt;&#45;2,9 (molten steel)</title>
<path fill="none" stroke="black" stroke-width="1.32" d="M3447.23,-416.09C3138.09,-367.13 1999.58,-186.8 1681.13,-136.37"/>
<polygon fill="black" stroke="black" stroke-width="1.32" points="1681.48,-132.88 1671.05,-134.77 1680.38,-139.79 1681.48,-132.88"/>
<text text-anchor="middle" x="2521.68" y="-280.03" font-family="Times,serif" font-size="14.00">coke*29488</text>
</g>
<!-- 2,12 (Yet more coke)&#45;&gt;&#45;5,1 (Acetylene) -->
<g id="edge3" class="edge">
<title>2,12 (Yet more coke)&#45;&gt;&#45;5,1 (Acetylene)</title>
<path fill="none" stroke="black" stroke-width="1.08" d="M3507.16,-446.44C3272.7,-680.91 822.97,-3130.64 548.35,-3405.25"/>
<polygon fill="black" stroke="black" stroke-width="1.08" points="545.81,-3402.84 541.21,-3412.39 550.76,-3407.79 545.81,-3402.84"/>
<text text-anchor="middle" x="1985.26" y="-1929.65" font-family="Times,serif" font-size="14.00">coke*24144</text>
</g>
<!-- 2,12 (Yet more coke)&#45;&gt;&#45;2,6 (Wrong ratio of Calcium Carbide to Acetalene) -->
<g id="edge23" class="edge">
<title>2,12 (Yet more coke)&#45;&gt;&#45;2,6 (Wrong ratio of Calcium Carbide to Acetalene)</title>
<path fill="none" stroke="black" stroke-width="1.21" d="M3418.23,-428.43C3045.64,-428.43 1797.89,-428.43 1254.88,-428.43"/>
<polygon fill="black" stroke="black" stroke-width="1.21" points="1254.56,-424.93 1244.56,-428.43 1254.56,-431.93 1254.56,-424.93"/>
<text text-anchor="middle" x="2294.05" y="-432.23" font-family="Times,serif" font-size="14.00">coke*26944</text>
</g>
<!-- 2,12 (Yet more coke)&#45;&gt;2,5 (Simple Circuits) -->
<g id="edge33" class="edge">
<title>2,12 (Yet more coke)&#45;&gt;2,5 (Simple Circuits)</title>
<path fill="none" stroke="black" stroke-width="0.72" d="M3447.19,-440.78C3028.96,-507.03 1054.14,-819.81 611.53,-889.91"/>
<polygon fill="black" stroke="black" stroke-width="0.72" points="610.69,-886.5 601.36,-891.52 611.79,-893.41 610.69,-886.5"/>
<text text-anchor="middle" x="1986.86" y="-669.15" font-family="Times,serif" font-size="14.00">coke*16080</text>
</g>
<!-- 2,12 (Yet more coke)&#45;&gt;&#45;5,&#45;4 (low priority (slaked)? lime) -->
<g id="edge6" class="edge">
<title>2,12 (Yet more coke)&#45;&gt;&#45;5,&#45;4 (low priority (slaked)? lime)</title>
<path fill="none" stroke="black" stroke-width="1.2" d="M3475.85,-444.46C3100.57,-566.4 698.89,-1346.75 280.29,-1482.76"/>
<polygon fill="black" stroke="black" stroke-width="1.2" points="279.2,-1479.43 270.77,-1485.85 281.37,-1486.09 279.2,-1479.43"/>
<text text-anchor="middle" x="1835.57" y="-967.41" font-family="Times,serif" font-size="14.00">coke*26816</text>
</g>
<!-- 2,12 (Yet more coke)&#45;&gt;0,8 (Tar from Coke) -->
<g id="edge25" class="edge">
<title>2,12 (Yet more coke)&#45;&gt;0,8 (Tar from Coke)</title>
<path fill="none" stroke="black" stroke-width="1.56" d="M3542.94,-446.2C3615.68,-518.94 3890.85,-794.12 3975.61,-878.87"/>
<polygon fill="black" stroke="black" stroke-width="1.56" points="3973.2,-881.42 3982.75,-886.01 3978.15,-876.47 3973.2,-881.42"/>
<text text-anchor="middle" x="3716.77" y="-666.34" font-family="Times,serif" font-size="14.00">coke*34752</text>
</g>
<!-- 2,12 (Yet more coke)&#45;&gt;2,10 (Nickel plate) -->
<g id="edge8" class="edge">
<title>2,12 (Yet more coke)&#45;&gt;2,10 (Nickel plate)</title>
<path fill="none" stroke="black" stroke-width="0.84" d="M3491.4,-445.64C3161.74,-613.61 522,-1958.63 155.17,-2145.53"/>
<polygon fill="black" stroke="black" stroke-width="0.84" points="153.52,-2142.45 146.2,-2150.11 156.7,-2148.68 153.52,-2142.45"/>
<text text-anchor="middle" x="1780.78" y="-1299.39" font-family="Times,serif" font-size="14.00">coke*18800</text>
</g>
<!-- 2,12 (Yet more coke)&#45;&gt;2,&#45;1 (Ammonia) -->
<g id="edge15" class="edge">
<title>2,12 (Yet more coke)&#45;&gt;2,&#45;1 (Ammonia)</title>
<path fill="none" stroke="black" stroke-width="0.36" d="M3512.18,-446.31C3327.82,-700.06 1239.85,-3573.9 1017.88,-3879.43"/>
<polygon fill="black" stroke="black" stroke-width="0.36" points="1014.9,-3877.56 1011.86,-3887.71 1020.57,-3881.68 1014.9,-3877.56"/>
<text text-anchor="middle" x="2227.03" y="-2151.67" font-family="Times,serif" font-size="14.00">coke*8016</text>
</g>
<!-- 2,12 (Yet more coke)&#45;&gt;&#45;2,&#45;3 (Trains) -->
<g id="edge26" class="edge">
<title>2,12 (Yet more coke)&#45;&gt;&#45;2,&#45;3 (Trains)</title>
<path fill="none" stroke="black" stroke-width="0.66" d="M3491.24,-411.15C3388.08,-358.58 3078.37,-200.78 2966.74,-143.9"/>
<polygon fill="black" stroke="black" stroke-width="0.66" points="2968.31,-140.77 2957.81,-139.35 2965.13,-147.01 2968.31,-140.77"/>
<text text-anchor="middle" x="3186.49" y="-281.32" font-family="Times,serif" font-size="14.00">coke*14784</text>
</g>
<!-- 2,12 (Yet more coke)&#45;&gt;1,6 (Sodium Hydroxide, These new bullets are fun, Limestone) -->
<g id="edge11" class="edge">
<title>2,12 (Yet more coke)&#45;&gt;1,6 (Sodium Hydroxide, These new bullets are fun, Limestone)</title>
<path fill="none" stroke="black" stroke-width="1.2" d="M3515.93,-446.57C3379.64,-714.05 1779.01,-3855.46 1611.96,-4183.32"/>
<polygon fill="black" stroke="black" stroke-width="1.2" points="1608.65,-4182.1 1607.23,-4192.59 1614.89,-4185.27 1608.65,-4182.1"/>
<text text-anchor="middle" x="2521.44" y="-2318.74" font-family="Times,serif" font-size="14.00">coke*26768</text>
</g>
<!-- 2,12 (Yet more coke)&#45;&gt;&#45;4,&#45;2 (For Science!) -->
<g id="edge13" class="edge">
<title>2,12 (Yet more coke)&#45;&gt;&#45;4,&#45;2 (For Science!)</title>
<path fill="none" stroke="black" stroke-width="0.12" d="M3519.26,-446.63C3430.87,-718.66 2379.71,-3953.8 2271.04,-4288.23"/>
<polygon fill="black" stroke="black" stroke-width="0.12" points="2267.6,-4287.5 2267.84,-4298.09 2274.26,-4289.66 2267.6,-4287.5"/>
<text text-anchor="middle" x="2857.15" y="-2371.23" font-family="Times,serif" font-size="14.00">coke*2704</text>
</g>
<!-- 2,12 (Yet more coke)&#45;&gt;1,12 (Molten Iron) -->
<g id="edge49" class="edge">
<title>2,12 (Yet more coke)&#45;&gt;1,12 (Molten Iron)</title>
<path fill="none" stroke="black" stroke-width="0.24" d="M3522.3,-446.57C3479.97,-713.79 2983.36,-3849.27 2930.61,-4182.34"/>
<polygon fill="black" stroke="black" stroke-width="0.24" points="2927.09,-4182.17 2928.98,-4192.59 2934.01,-4183.27 2927.09,-4182.17"/>
<text text-anchor="middle" x="3188.45" y="-2318.25" font-family="Times,serif" font-size="14.00">coke*5312</text>
</g>
<!-- 2,12 (Yet more coke)&#45;&gt;3,10 () -->
<g id="edge27" class="edge">
<title>2,12 (Yet more coke)&#45;&gt;3,10 ()</title>
<path fill="none" stroke="black" stroke-width="0.6" d="M3525.17,-446.73C3525.17,-702.52 3525.17,-3559.99 3525.17,-3877.13"/>
<polygon fill="black" stroke="black" stroke-width="0.6" points="3521.67,-3877.33 3525.17,-3887.33 3528.67,-3877.33 3521.67,-3877.33"/>
<text text-anchor="middle" x="3482.67" y="-2165.73" font-family="Times,serif" font-size="14.00">coke*13328</text>
</g>
<!-- 2,12 (Yet more coke)&#45;&gt;&#45;3,&#45;2 (Depot) -->
<g id="edge40" class="edge">
<title>2,12 (Yet more coke)&#45;&gt;&#45;3,&#45;2 (Depot)</title>
<path fill="none" stroke="black" stroke-width="0.24" d="M3528.02,-446.44C3565.01,-679.98 3950.09,-3111.26 3996.12,-3401.88"/>
<polygon fill="black" stroke="black" stroke-width="0.24" points="3992.7,-3402.7 3997.72,-3412.02 3999.62,-3401.6 3992.7,-3402.7"/>
<text text-anchor="middle" x="3724.07" y="-1927.96" font-family="Times,serif" font-size="14.00">coke*5376</text>
</g>
<!-- 2,12 (Yet more coke)&#45;&gt;3,4 () -->
<g id="edge38" class="edge">
<title>2,12 (Yet more coke)&#45;&gt;3,4 ()</title>
<path fill="none" stroke="black" stroke-width="0.24" d="M3531.11,-446.73C3598.37,-653.71 4215.02,-2551.58 4296.9,-2803.56"/>
<polygon fill="black" stroke="black" stroke-width="0.24" points="4293.67,-2804.96 4300.09,-2813.39 4300.33,-2802.8 4293.67,-2804.96"/>
<text text-anchor="middle" x="3876.01" y="-1628.95" font-family="Times,serif" font-size="14.00">coke*5344</text>
</g>
</g>
</svg>
