<?xml version="1.0" encoding="UTF-8" standalone="no"?>
<!DOCTYPE svg PUBLIC "-//W3C//DTD SVG 1.1//EN"
 "http://www.w3.org/Graphics/SVG/1.1/DTD/svg11.dtd">
<!-- Generated by graphviz version 2.43.0 (0)
 -->
<!-- Title: %3 Pages: 1 -->
<svg width="1147pt" height="808pt"
 viewBox="0.00 0.00 1146.65 807.52" xmlns="http://www.w3.org/2000/svg" xmlns:xlink="http://www.w3.org/1999/xlink">
<g id="graph0" class="graph" transform="scale(1 1) rotate(0) translate(4 803.52)">
<title>%3</title>
<polygon fill="white" stroke="transparent" points="-4,4 -4,-803.52 1142.65,-803.52 1142.65,4 -4,4"/>
<!-- 1,7 (Activated Carbon) -->
<g id="node1" class="node">
<title>1,7 (Activated Carbon)</title>
<ellipse fill="none" stroke="black" cx="614.29" cy="-388.89" rx="115.88" ry="18"/>
<text text-anchor="middle" x="614.29" y="-385.19" font-family="Times,serif" font-size="14.00">1,7 (Activated Carbon)</text>
</g>
<!-- 2,6 (Refined Syngas) -->
<g id="node2" class="node">
<title>2,6 (Refined Syngas)</title>
<ellipse fill="none" stroke="black" cx="1031.41" cy="-388.89" rx="107.48" ry="18"/>
<text text-anchor="middle" x="1031.41" y="-385.19" font-family="Times,serif" font-size="14.00">2,6 (Refined Syngas)</text>
</g>
<!-- 1,7 (Activated Carbon)&#45;&gt;2,6 (Refined Syngas) -->
<g id="edge1" class="edge">
<title>1,7 (Activated Carbon)&#45;&gt;2,6 (Refined Syngas)</title>
<path fill="none" stroke="black" stroke-width="2.9" d="M730.21,-388.89C787.41,-388.89 856.27,-388.89 913.71,-388.89"/>
<polygon fill="black" stroke="black" stroke-width="2.9" points="913.93,-392.39 923.93,-388.89 913.93,-385.39 913.93,-392.39"/>
<text text-anchor="middle" x="821.96" y="-377.69" font-family="Times,serif" font-size="14.00">active&#45;carbon*36000</text>
</g>
<!-- 4,1 (item=filtration&#45;media Filtration Media) -->
<g id="node3" class="node">
<title>4,1 (item=filtration&#45;media Filtration Media)</title>
<ellipse fill="none" stroke="black" cx="755.12" cy="-781.52" rx="214.46" ry="18"/>
<text text-anchor="middle" x="755.12" y="-777.82" font-family="Times,serif" font-size="14.00">4,1 (item=filtration&#45;media Filtration Media)</text>
</g>
<!-- 1,7 (Activated Carbon)&#45;&gt;4,1 (item=filtration&#45;media Filtration Media) -->
<g id="edge2" class="edge">
<title>1,7 (Activated Carbon)&#45;&gt;4,1 (item=filtration&#45;media Filtration Media)</title>
<path fill="none" stroke="black" stroke-width="1.21" d="M620.8,-407.04C643.28,-469.7 717.72,-677.24 744.99,-753.28"/>
<polygon fill="black" stroke="black" stroke-width="1.21" points="741.85,-754.87 748.52,-763.11 748.44,-752.51 741.85,-754.87"/>
<text text-anchor="middle" x="608.9" y="-583.96" font-family="Times,serif" font-size="14.00">active&#45;carbon*15008</text>
</g>
<!-- 0,6 (Flue Gas Disposal, Syngas From Flue Gas) -->
<g id="node4" class="node">
<title>0,6 (Flue Gas Disposal, Syngas From Flue Gas)</title>
<ellipse fill="none" stroke="black" cx="229.43" cy="-549.72" rx="229.36" ry="18"/>
<text text-anchor="middle" x="229.43" y="-546.02" font-family="Times,serif" font-size="14.00">0,6 (Flue Gas Disposal, Syngas From Flue Gas)</text>
</g>
<!-- 1,7 (Activated Carbon)&#45;&gt;0,6 (Flue Gas Disposal, Syngas From Flue Gas) -->
<g id="edge3" class="edge">
<title>1,7 (Activated Carbon)&#45;&gt;0,6 (Flue Gas Disposal, Syngas From Flue Gas)</title>
<path fill="none" stroke="black" stroke-width="0.65" d="M573.83,-405.8C503.6,-435.15 359.2,-495.49 281.56,-527.94"/>
<polygon fill="black" stroke="black" stroke-width="0.65" points="279.85,-524.86 271.97,-531.94 282.55,-531.32 279.85,-524.86"/>
<text text-anchor="middle" x="358.2" y="-470.67" font-family="Times,serif" font-size="14.00">active&#45;carbon*8096</text>
</g>
<!-- 0,12 (Phosphate mining) -->
<g id="node5" class="node">
<title>0,12 (Phosphate mining)</title>
<ellipse fill="none" stroke="black" cx="357.79" cy="-59.96" rx="124.58" ry="18"/>
<text text-anchor="middle" x="357.79" y="-56.26" font-family="Times,serif" font-size="14.00">0,12 (Phosphate mining)</text>
</g>
<!-- 1,7 (Activated Carbon)&#45;&gt;0,12 (Phosphate mining) -->
<g id="edge4" class="edge">
<title>1,7 (Activated Carbon)&#45;&gt;0,12 (Phosphate mining)</title>
<path fill="none" stroke="black" stroke-width="0.07" d="M600.14,-370.74C557.22,-315.7 428.42,-150.54 378.18,-86.11"/>
<polygon fill="black" stroke="black" stroke-width="0.07" points="380.81,-83.79 371.9,-78.06 375.29,-88.1 380.81,-83.79"/>
<text text-anchor="middle" x="424.16" y="-232.22" font-family="Times,serif" font-size="14.00">active&#45;carbon*848</text>
</g>
<!-- 2,&#45;2 (Tin Plate, Organic Solvent) -->
<g id="node6" class="node">
<title>2,&#45;2 (Tin Plate, Organic Solvent)</title>
<ellipse fill="none" stroke="black" cx="805.16" cy="-18" rx="159.77" ry="18"/>
<text text-anchor="middle" x="805.16" y="-14.3" font-family="Times,serif" font-size="14.00">2,&#45;2 (Tin Plate, Organic Solvent)</text>
</g>
<!-- 1,7 (Activated Carbon)&#45;&gt;2,&#45;2 (Tin Plate, Organic Solvent) -->
<g id="edge5" class="edge">
<title>1,7 (Activated Carbon)&#45;&gt;2,&#45;2 (Tin Plate, Organic Solvent)</title>
<path fill="none" stroke="black" stroke-width="0.17" d="M623.63,-370.75C654.64,-310.48 754.37,-116.7 791.27,-45"/>
<polygon fill="black" stroke="black" stroke-width="0.17" points="794.38,-46.6 795.84,-36.1 788.16,-43.4 794.38,-46.6"/>
<text text-anchor="middle" x="637.95" y="-211.67" font-family="Times,serif" font-size="14.00">active&#45;carbon*2096</text>
</g>
</g>
</svg>
