<?xml version="1.0" encoding="UTF-8" standalone="no"?>
<!DOCTYPE svg PUBLIC "-//W3C//DTD SVG 1.1//EN"
 "http://www.w3.org/Graphics/SVG/1.1/DTD/svg11.dtd">
<!-- Generated by graphviz version 2.43.0 (0)
 -->
<!-- Title: %3 Pages: 1 -->
<svg width="1775pt" height="1541pt"
 viewBox="0.00 0.00 1774.88 1541.45" xmlns="http://www.w3.org/2000/svg" xmlns:xlink="http://www.w3.org/1999/xlink">
<g id="graph0" class="graph" transform="scale(1 1) rotate(0) translate(4 1537.45)">
<title>%3</title>
<polygon fill="white" stroke="transparent" points="-4,4 -4,-1537.45 1770.88,-1537.45 1770.88,4 -4,4"/>
<!-- 0,0 (LE BUS) -->
<g id="node1" class="node">
<title>0,0 (LE BUS)</title>
<ellipse fill="none" stroke="black" cx="180.03" cy="-553.62" rx="71.49" ry="18"/>
<text text-anchor="middle" x="180.03" y="-549.92" font-family="Times,serif" font-size="14.00">0,0 (LE BUS)</text>
</g>
<!-- 1,8 (HCl, Salt) -->
<g id="node2" class="node">
<title>1,8 (HCl, Salt)</title>
<ellipse fill="none" stroke="black" cx="1542.16" cy="-1175.68" rx="77.19" ry="18"/>
<text text-anchor="middle" x="1542.16" y="-1171.98" font-family="Times,serif" font-size="14.00">1,8 (HCl, Salt)</text>
</g>
<!-- 0,0 (LE BUS)&#45;&gt;1,8 (HCl, Salt) -->
<g id="edge1" class="edge">
<title>0,0 (LE BUS)&#45;&gt;1,8 (HCl, Salt)</title>
<path fill="none" stroke="black" stroke-width="1.18" d="M214.73,-569.46C401.7,-654.85 1288.57,-1059.87 1497.84,-1155.44"/>
<polygon fill="black" stroke="black" stroke-width="1.18" points="1496.45,-1158.65 1507,-1159.62 1499.36,-1152.28 1496.45,-1158.65"/>
<text text-anchor="middle" x="807.78" y="-866.25" font-family="Times,serif" font-size="14.00">gravel*50575</text>
</g>
<!-- 0,&#45;7 (Salt (stone/gravel destruction)) -->
<g id="node4" class="node">
<title>0,&#45;7 (Salt (stone/gravel destruction))</title>
<ellipse fill="none" stroke="black" cx="180.03" cy="-979.83" rx="180.07" ry="18"/>
<text text-anchor="middle" x="180.03" y="-976.13" font-family="Times,serif" font-size="14.00">0,&#45;7 (Salt (stone/gravel destruction))</text>
</g>
<!-- 0,0 (LE BUS)&#45;&gt;0,&#45;7 (Salt (stone/gravel destruction)) -->
<g id="edge3" class="edge">
<title>0,0 (LE BUS)&#45;&gt;0,&#45;7 (Salt (stone/gravel destruction))</title>
<path fill="none" stroke="black" stroke-width="0.68" d="M180.03,-571.66C180.03,-638.09 180.03,-869.44 180.03,-951.06"/>
<polygon fill="black" stroke="black" stroke-width="0.68" points="176.53,-951.55 180.03,-961.55 183.53,-951.55 176.53,-951.55"/>
<text text-anchor="middle" x="131.53" y="-765.16" font-family="Times,serif" font-size="14.00">gravel*29207</text>
</g>
<!-- &#45;6,&#45;1 (item=agar Agar) -->
<g id="node7" class="node">
<title>&#45;6,&#45;1 (item=agar Agar)</title>
<ellipse fill="none" stroke="black" cx="1542.16" cy="-357.77" rx="115.88" ry="18"/>
<text text-anchor="middle" x="1542.16" y="-354.07" font-family="Times,serif" font-size="14.00">&#45;6,&#45;1 (item=agar Agar)</text>
</g>
<!-- 0,0 (LE BUS)&#45;&gt;&#45;6,&#45;1 (item=agar Agar) -->
<g id="edge7" class="edge">
<title>0,0 (LE BUS)&#45;&gt;&#45;6,&#45;1 (item=agar Agar)</title>
<path fill="none" stroke="black" stroke-width="0.29" d="M242.55,-544.63C460.12,-513.34 1185.13,-409.1 1446.88,-371.47"/>
<polygon fill="black" stroke="black" stroke-width="0.29" points="1447.72,-374.89 1457.12,-370 1446.72,-367.96 1447.72,-374.89"/>
<text text-anchor="middle" x="796.22" y="-461.85" font-family="Times,serif" font-size="14.00">gravel*12351</text>
</g>
<!-- &#45;6,7 (Iron ore dust) -->
<g id="node3" class="node">
<title>&#45;6,7 (Iron ore dust)</title>
<ellipse fill="none" stroke="black" cx="798.17" cy="-18" rx="98.58" ry="18"/>
<text text-anchor="middle" x="798.17" y="-14.3" font-family="Times,serif" font-size="14.00">&#45;6,7 (Iron ore dust)</text>
</g>
<!-- &#45;6,7 (Iron ore dust)&#45;&gt;1,8 (HCl, Salt) -->
<g id="edge2" class="edge">
<title>&#45;6,7 (Iron ore dust)&#45;&gt;1,8 (HCl, Salt)</title>
<path fill="none" stroke="black" stroke-width="1.77" d="M809.85,-36.18C895.22,-169.03 1422.34,-989.24 1524.88,-1148.79"/>
<polygon fill="black" stroke="black" stroke-width="1.77" points="1522.15,-1151.01 1530.5,-1157.53 1528.04,-1147.23 1522.15,-1151.01"/>
<text text-anchor="middle" x="1118.87" y="-596.29" font-family="Times,serif" font-size="14.00">gravel*75568</text>
</g>
<!-- &#45;6,7 (Iron ore dust)&#45;&gt;0,&#45;7 (Salt (stone/gravel destruction)) -->
<g id="edge4" class="edge">
<title>&#45;6,7 (Iron ore dust)&#45;&gt;0,&#45;7 (Salt (stone/gravel destruction))</title>
<path fill="none" stroke="black" stroke-width="1.05" d="M786.64,-35.93C711.2,-153.32 288.1,-811.68 197.23,-953.08"/>
<polygon fill="black" stroke="black" stroke-width="1.05" points="194.19,-951.33 191.73,-961.64 200.08,-955.12 194.19,-951.33"/>
<text text-anchor="middle" x="443.43" y="-498.31" font-family="Times,serif" font-size="14.00">gravel*45024</text>
</g>
<!-- &#45;6,7 (Iron ore dust)&#45;&gt;&#45;6,&#45;1 (item=agar Agar) -->
<g id="edge13" class="edge">
<title>&#45;6,7 (Iron ore dust)&#45;&gt;&#45;6,&#45;1 (item=agar Agar)</title>
<path fill="none" stroke="black" stroke-width="1.42" d="M834.81,-34.73C958.05,-91.02 1357.57,-273.47 1495.12,-336.29"/>
<polygon fill="black" stroke="black" stroke-width="1.42" points="1494.01,-339.63 1504.56,-340.6 1496.92,-333.26 1494.01,-339.63"/>
<text text-anchor="middle" x="1116.46" y="-189.31" font-family="Times,serif" font-size="14.00">gravel*60480</text>
</g>
<!-- &#45;6,8 (Copper plate duplicate) -->
<g id="node5" class="node">
<title>&#45;6,8 (Copper plate duplicate)</title>
<ellipse fill="none" stroke="black" cx="410.46" cy="-195.06" rx="143.77" ry="18"/>
<text text-anchor="middle" x="410.46" y="-191.36" font-family="Times,serif" font-size="14.00">&#45;6,8 (Copper plate duplicate)</text>
</g>
<!-- &#45;6,8 (Copper plate duplicate)&#45;&gt;1,8 (HCl, Salt) -->
<g id="edge5" class="edge">
<title>&#45;6,8 (Copper plate duplicate)&#45;&gt;1,8 (HCl, Salt)</title>
<path fill="none" stroke="black" stroke-width="3.7" d="M431.07,-212.92C568.81,-332.26 1355.15,-1013.63 1514.14,-1151.39"/>
<polygon fill="black" stroke="black" stroke-width="3.7" points="1512.21,-1154.36 1522.06,-1158.26 1516.8,-1149.07 1512.21,-1154.36"/>
<text text-anchor="middle" x="919.6" y="-685.95" font-family="Times,serif" font-size="14.00">gravel*157872</text>
</g>
<!-- &#45;6,8 (Copper plate duplicate)&#45;&gt;0,&#45;7 (Salt (stone/gravel destruction)) -->
<g id="edge9" class="edge">
<title>&#45;6,8 (Copper plate duplicate)&#45;&gt;0,&#45;7 (Salt (stone/gravel destruction))</title>
<path fill="none" stroke="black" stroke-width="0.7" d="M405.11,-213.3C374.81,-316.49 224.95,-826.85 188.19,-952.06"/>
<polygon fill="black" stroke="black" stroke-width="0.7" points="184.82,-951.11 185.36,-961.69 191.54,-953.08 184.82,-951.11"/>
<text text-anchor="middle" x="248.15" y="-586.48" font-family="Times,serif" font-size="14.00">gravel*30016</text>
</g>
<!-- &#45;6,8 (Copper plate duplicate)&#45;&gt;&#45;6,&#45;1 (item=agar Agar) -->
<g id="edge20" class="edge">
<title>&#45;6,8 (Copper plate duplicate)&#45;&gt;&#45;6,&#45;1 (item=agar Agar)</title>
<path fill="none" stroke="black" stroke-width="0.37" d="M505.01,-208.65C717.97,-239.27 1233.28,-313.36 1446.91,-344.08"/>
<polygon fill="black" stroke="black" stroke-width="0.37" points="1446.46,-347.55 1456.85,-345.51 1447.45,-340.62 1446.46,-347.55"/>
<text text-anchor="middle" x="927.46" y="-280.16" font-family="Times,serif" font-size="14.00">gravel*15968</text>
</g>
<!-- 1,10 (Iron Ore Dust) -->
<g id="node6" class="node">
<title>1,10 (Iron Ore Dust)</title>
<ellipse fill="none" stroke="black" cx="1662.24" cy="-766.72" rx="104.78" ry="18"/>
<text text-anchor="middle" x="1662.24" y="-763.02" font-family="Times,serif" font-size="14.00">1,10 (Iron Ore Dust)</text>
</g>
<!-- 1,10 (Iron Ore Dust)&#45;&gt;1,8 (HCl, Salt) -->
<g id="edge6" class="edge">
<title>1,10 (Iron Ore Dust)&#45;&gt;1,8 (HCl, Salt)</title>
<path fill="none" stroke="black" stroke-width="2.12" d="M1656.93,-784.82C1637.94,-849.47 1573.4,-1069.29 1550.39,-1147.65"/>
<polygon fill="black" stroke="black" stroke-width="2.12" points="1547.01,-1146.74 1547.55,-1157.32 1553.73,-1148.71 1547.01,-1146.74"/>
<text text-anchor="middle" x="1555.16" y="-970.04" font-family="Times,serif" font-size="14.00">gravel*90464</text>
</g>
<!-- 1,10 (Iron Ore Dust)&#45;&gt;0,&#45;7 (Salt (stone/gravel destruction)) -->
<g id="edge15" class="edge">
<title>1,10 (Iron Ore Dust)&#45;&gt;0,&#45;7 (Salt (stone/gravel destruction))</title>
<path fill="none" stroke="black" stroke-width="0.35" d="M1581.76,-778.3C1333.68,-813.96 580.21,-922.3 292.94,-963.6"/>
<polygon fill="black" stroke="black" stroke-width="0.35" points="292.32,-960.15 282.92,-965.04 293.31,-967.08 292.32,-960.15"/>
<text text-anchor="middle" x="985.85" y="-874.75" font-family="Times,serif" font-size="14.00">gravel*15008</text>
</g>
<!-- 3,9 (Copper, molten &amp; plate) -->
<g id="node8" class="node">
<title>3,9 (Copper, molten &amp; plate)</title>
<ellipse fill="none" stroke="black" cx="410.46" cy="-1338.39" rx="143.77" ry="18"/>
<text text-anchor="middle" x="410.46" y="-1334.69" font-family="Times,serif" font-size="14.00">3,9 (Copper, molten &amp; plate)</text>
</g>
<!-- 3,9 (Copper, molten &amp; plate)&#45;&gt;1,8 (HCl, Salt) -->
<g id="edge11" class="edge">
<title>3,9 (Copper, molten &amp; plate)&#45;&gt;1,8 (HCl, Salt)</title>
<path fill="none" stroke="black" stroke-width="2.61" d="M505.01,-1324.8C724.57,-1293.23 1265.52,-1215.45 1465.89,-1186.64"/>
<polygon fill="black" stroke="black" stroke-width="2.61" points="1466.63,-1190.07 1476.03,-1185.19 1465.63,-1183.14 1466.63,-1190.07"/>
<text text-anchor="middle" x="932.45" y="-1259.52" font-family="Times,serif" font-size="14.00">gravel*111360</text>
</g>
<!-- 3,9 (Copper, molten &amp; plate)&#45;&gt;0,&#45;7 (Salt (stone/gravel destruction)) -->
<g id="edge8" class="edge">
<title>3,9 (Copper, molten &amp; plate)&#45;&gt;0,&#45;7 (Salt (stone/gravel destruction))</title>
<path fill="none" stroke="black" stroke-width="1.05" d="M398.72,-1320.12C360.89,-1261.25 242.08,-1076.38 197.32,-1006.73"/>
<polygon fill="black" stroke="black" stroke-width="1.05" points="200.11,-1004.59 191.75,-998.07 194.22,-1008.38 200.11,-1004.59"/>
<text text-anchor="middle" x="249.52" y="-1167.22" font-family="Times,serif" font-size="14.00">gravel*45024</text>
</g>
<!-- 3,9 (Copper, molten &amp; plate)&#45;&gt;&#45;6,&#45;1 (item=agar Agar) -->
<g id="edge14" class="edge">
<title>3,9 (Copper, molten &amp; plate)&#45;&gt;&#45;6,&#45;1 (item=agar Agar)</title>
<path fill="none" stroke="black" stroke-width="1.07" d="M431.07,-1320.53C568.66,-1201.31 1353.47,-521.27 1513.62,-382.5"/>
<polygon fill="black" stroke="black" stroke-width="1.07" points="1516.35,-384.77 1521.61,-375.57 1511.76,-379.48 1516.35,-384.77"/>
<text text-anchor="middle" x="923.85" y="-855.32" font-family="Times,serif" font-size="14.00">gravel*45600</text>
</g>
<!-- &#45;3,&#45;8 () -->
<g id="node9" class="node">
<title>&#45;3,&#45;8 ()</title>
<ellipse fill="none" stroke="black" cx="1220.05" cy="-78.66" rx="40.89" ry="18"/>
<text text-anchor="middle" x="1220.05" y="-74.96" font-family="Times,serif" font-size="14.00">&#45;3,&#45;8 ()</text>
</g>
<!-- &#45;3,&#45;8 ()&#45;&gt;1,8 (HCl, Salt) -->
<g id="edge17" class="edge">
<title>&#45;3,&#45;8 ()&#45;&gt;1,8 (HCl, Salt)</title>
<path fill="none" stroke="black" stroke-width="0.21" d="M1225.37,-96.78C1262.91,-224.64 1487.7,-990.19 1533.87,-1147.45"/>
<polygon fill="black" stroke="black" stroke-width="0.21" points="1530.59,-1148.7 1536.77,-1157.31 1537.31,-1146.73 1530.59,-1148.7"/>
<text text-anchor="middle" x="1335.62" y="-625.92" font-family="Times,serif" font-size="14.00">gravel*9120</text>
</g>
<!-- &#45;3,&#45;8 ()&#45;&gt;&#45;6,&#45;1 (item=agar Agar) -->
<g id="edge10" class="edge">
<title>&#45;3,&#45;8 ()&#45;&gt;&#45;6,&#45;1 (item=agar Agar)</title>
<path fill="none" stroke="black" stroke-width="0.21" d="M1238.76,-94.87C1292.71,-141.62 1448.85,-276.91 1513.55,-332.98"/>
<polygon fill="black" stroke="black" stroke-width="0.21" points="1511.49,-335.82 1521.34,-339.73 1516.07,-330.53 1511.49,-335.82"/>
<text text-anchor="middle" x="1332.15" y="-217.72" font-family="Times,serif" font-size="14.00">gravel*9120</text>
</g>
<!-- 8,1 (Molten Copper) -->
<g id="node10" class="node">
<title>8,1 (Molten Copper)</title>
<ellipse fill="none" stroke="black" cx="798.17" cy="-1515.45" rx="104.78" ry="18"/>
<text text-anchor="middle" x="798.17" y="-1511.75" font-family="Times,serif" font-size="14.00">8,1 (Molten Copper)</text>
</g>
<!-- 8,1 (Molten Copper)&#45;&gt;1,8 (HCl, Salt) -->
<g id="edge12" class="edge">
<title>8,1 (Molten Copper)&#45;&gt;1,8 (HCl, Salt)</title>
<path fill="none" stroke="black" stroke-width="0.71" d="M835.06,-1498.6C959.33,-1441.85 1362.39,-1257.78 1497.53,-1196.06"/>
<polygon fill="black" stroke="black" stroke-width="0.71" points="1499.15,-1199.17 1506.79,-1191.83 1496.24,-1192.8 1499.15,-1199.17"/>
<text text-anchor="middle" x="1117.8" y="-1351.13" font-family="Times,serif" font-size="14.00">gravel*30128</text>
</g>
<!-- 8,1 (Molten Copper)&#45;&gt;0,&#45;7 (Salt (stone/gravel destruction)) -->
<g id="edge18" class="edge">
<title>8,1 (Molten Copper)&#45;&gt;0,&#45;7 (Salt (stone/gravel destruction))</title>
<path fill="none" stroke="black" stroke-width="0.35" d="M777.6,-1497.63C685.93,-1418.2 314.44,-1096.3 208.41,-1004.42"/>
<polygon fill="black" stroke="black" stroke-width="0.35" points="210.53,-1001.62 200.68,-997.72 205.94,-1006.91 210.53,-1001.62"/>
<text text-anchor="middle" x="444.51" y="-1254.83" font-family="Times,serif" font-size="14.00">gravel*15008</text>
</g>
<!-- &#45;6,&#45;3 (Chromite Sand) -->
<g id="node11" class="node">
<title>&#45;6,&#45;3 (Chromite Sand)</title>
<ellipse fill="none" stroke="black" cx="1220.05" cy="-1454.79" rx="110.48" ry="18"/>
<text text-anchor="middle" x="1220.05" y="-1451.09" font-family="Times,serif" font-size="14.00">&#45;6,&#45;3 (Chromite Sand)</text>
</g>
<!-- &#45;6,&#45;3 (Chromite Sand)&#45;&gt;1,8 (HCl, Salt) -->
<g id="edge16" class="edge">
<title>&#45;6,&#45;3 (Chromite Sand)&#45;&gt;1,8 (HCl, Salt)</title>
<path fill="none" stroke="black" stroke-width="0.07" d="M1240.69,-1436.91C1296.48,-1388.56 1450.38,-1255.21 1514.04,-1200.05"/>
<polygon fill="black" stroke="black" stroke-width="0.07" points="1516.43,-1202.61 1521.69,-1193.41 1511.84,-1197.32 1516.43,-1202.61"/>
<text text-anchor="middle" x="1333.36" y="-1322.28" font-family="Times,serif" font-size="14.00">gravel*3010</text>
</g>
<!-- &#45;6,&#45;3 (Chromite Sand)&#45;&gt;0,&#45;7 (Salt (stone/gravel destruction)) -->
<g id="edge19" class="edge">
<title>&#45;6,&#45;3 (Chromite Sand)&#45;&gt;0,&#45;7 (Salt (stone/gravel destruction))</title>
<path fill="none" stroke="black" stroke-width="0.07" d="M1182.73,-1437.75C1024.1,-1365.31 405.91,-1082.99 228.11,-1001.79"/>
<polygon fill="black" stroke="black" stroke-width="0.07" points="229.3,-998.49 218.75,-997.52 226.39,-1004.85 229.3,-998.49"/>
<text text-anchor="middle" x="661.42" y="-1223.57" font-family="Times,serif" font-size="14.00">gravel*3134</text>
</g>
</g>
</svg>
