<?xml version="1.0" encoding="UTF-8" standalone="no"?>
<!DOCTYPE svg PUBLIC "-//W3C//DTD SVG 1.1//EN"
 "http://www.w3.org/Graphics/SVG/1.1/DTD/svg11.dtd">
<!-- Generated by graphviz version 2.43.0 (0)
 -->
<!-- Title: %3 Pages: 1 -->
<svg width="824pt" height="671pt"
 viewBox="0.00 0.00 824.30 671.19" xmlns="http://www.w3.org/2000/svg" xmlns:xlink="http://www.w3.org/1999/xlink">
<g id="graph0" class="graph" transform="scale(1 1) rotate(0) translate(4 667.19)">
<title>%3</title>
<polygon fill="white" stroke="transparent" points="-4,4 -4,-667.19 820.3,-667.19 820.3,4 -4,4"/>
<!-- 3,&#45;1 (Nitrogen, Oxygen) -->
<g id="node1" class="node">
<title>3,&#45;1 (Nitrogen, Oxygen)</title>
<ellipse fill="none" stroke="black" cx="363.43" cy="-315.22" rx="120.48" ry="18"/>
<text text-anchor="middle" x="363.43" y="-311.52" font-family="Times,serif" font-size="14.00">3,&#45;1 (Nitrogen, Oxygen)</text>
</g>
<!-- 1,12 (Molten Iron) -->
<g id="node2" class="node">
<title>1,12 (Molten Iron)</title>
<ellipse fill="none" stroke="black" cx="720.76" cy="-315.22" rx="95.58" ry="18"/>
<text text-anchor="middle" x="720.76" y="-311.52" font-family="Times,serif" font-size="14.00">1,12 (Molten Iron)</text>
</g>
<!-- 3,&#45;1 (Nitrogen, Oxygen)&#45;&gt;1,12 (Molten Iron) -->
<g id="edge1" class="edge">
<title>3,&#45;1 (Nitrogen, Oxygen)&#45;&gt;1,12 (Molten Iron)</title>
<path fill="none" stroke="black" stroke-width="2.31" d="M483.91,-315.22C526.4,-315.22 573.82,-315.22 615,-315.22"/>
<polygon fill="black" stroke="black" stroke-width="2.31" points="615.05,-318.72 625.05,-315.22 615.05,-311.72 615.05,-318.72"/>
<text text-anchor="middle" x="549.45" y="-304.02" font-family="Times,serif" font-size="14.00">oxygen&#45;barrel*117426</text>
</g>
<!-- &#45;2,9 (molten steel) -->
<g id="node3" class="node">
<title>&#45;2,9 (molten steel)</title>
<ellipse fill="none" stroke="black" cx="226.31" cy="-645.19" rx="95.58" ry="18"/>
<text text-anchor="middle" x="226.31" y="-641.49" font-family="Times,serif" font-size="14.00">&#45;2,9 (molten steel)</text>
</g>
<!-- 3,&#45;1 (Nitrogen, Oxygen)&#45;&gt;&#45;2,9 (molten steel) -->
<g id="edge2" class="edge">
<title>3,&#45;1 (Nitrogen, Oxygen)&#45;&gt;&#45;2,9 (molten steel)</title>
<path fill="none" stroke="black" stroke-width="0.58" d="M355.87,-333.43C333.06,-388.3 264.91,-552.3 237.71,-617.76"/>
<polygon fill="black" stroke="black" stroke-width="0.58" points="234.46,-616.45 233.86,-627.03 240.93,-619.14 234.46,-616.45"/>
<text text-anchor="middle" x="221.29" y="-479.39" font-family="Times,serif" font-size="14.00">oxygen&#45;barrel*29630</text>
</g>
<!-- 2,10 (Nickel plate and Nichrome) -->
<g id="node4" class="node">
<title>2,10 (Nickel plate and Nichrome)</title>
<ellipse fill="none" stroke="black" cx="165.09" cy="-18" rx="165.17" ry="18"/>
<text text-anchor="middle" x="165.09" y="-14.3" font-family="Times,serif" font-size="14.00">2,10 (Nickel plate and Nichrome)</text>
</g>
<!-- 3,&#45;1 (Nitrogen, Oxygen)&#45;&gt;2,10 (Nickel plate and Nichrome) -->
<g id="edge3" class="edge">
<title>3,&#45;1 (Nitrogen, Oxygen)&#45;&gt;2,10 (Nickel plate and Nichrome)</title>
<path fill="none" stroke="black" stroke-width="0.11" d="M351.32,-297.07C317.64,-246.6 222.72,-104.37 182.96,-44.78"/>
<polygon fill="black" stroke="black" stroke-width="0.11" points="185.75,-42.66 177.29,-36.29 179.93,-46.55 185.75,-42.66"/>
<text text-anchor="middle" x="196.14" y="-174.73" font-family="Times,serif" font-size="14.00">oxygen&#45;barrel*5706</text>
</g>
</g>
</svg>
