<?xml version="1.0" encoding="UTF-8" standalone="no"?>
<!DOCTYPE svg PUBLIC "-//W3C//DTD SVG 1.1//EN"
 "http://www.w3.org/Graphics/SVG/1.1/DTD/svg11.dtd">
<!-- Generated by graphviz version 2.43.0 (0)
 -->
<!-- Title: %3 Pages: 1 -->
<svg width="1650pt" height="808pt"
 viewBox="0.00 0.00 1649.56 807.63" xmlns="http://www.w3.org/2000/svg" xmlns:xlink="http://www.w3.org/1999/xlink">
<g id="graph0" class="graph" transform="scale(1 1) rotate(0) translate(4 803.63)">
<title>%3</title>
<polygon fill="white" stroke="transparent" points="-4,4 -4,-803.63 1645.56,-803.63 1645.56,4 -4,4"/>
<!-- 0,0 (LE BUS) -->
<g id="node1" class="node">
<title>0,0 (LE BUS)</title>
<ellipse fill="none" stroke="black" cx="1027.51" cy="-399.81" rx="71.49" ry="18"/>
<text text-anchor="middle" x="1027.51" y="-396.11" font-family="Times,serif" font-size="14.00">0,0 (LE BUS)</text>
</g>
<!-- &#45;3,7 (item=sea&#45;sponge&#45;sprouts Also Borax) -->
<g id="node2" class="node">
<title>&#45;3,7 (item=sea&#45;sponge&#45;sprouts Also Borax)</title>
<ellipse fill="none" stroke="black" cx="645.69" cy="-18" rx="209.06" ry="18"/>
<text text-anchor="middle" x="645.69" y="-14.3" font-family="Times,serif" font-size="14.00">&#45;3,7 (item=sea&#45;sponge&#45;sprouts Also Borax)</text>
</g>
<!-- 0,0 (LE BUS)&#45;&gt;&#45;3,7 (item=sea&#45;sponge&#45;sprouts Also Borax) -->
<g id="edge1" class="edge">
<title>0,0 (LE BUS)&#45;&gt;&#45;3,7 (item=sea&#45;sponge&#45;sprouts Also Borax)</title>
<path fill="none" stroke="black" stroke-width="1.62" d="M1009.86,-382.16C948.44,-320.75 743.9,-116.21 671.42,-43.73"/>
<polygon fill="black" stroke="black" stroke-width="1.62" points="673.59,-40.94 664.04,-36.35 668.64,-45.89 673.59,-40.94"/>
<text text-anchor="middle" x="780.14" y="-216.75" font-family="Times,serif" font-size="14.00">small&#45;lamp*4685</text>
</g>
<!-- &#45;6,4 (Urea) -->
<g id="node3" class="node">
<title>&#45;6,4 (Urea)</title>
<ellipse fill="none" stroke="black" cx="645.69" cy="-781.63" rx="61.19" ry="18"/>
<text text-anchor="middle" x="645.69" y="-777.93" font-family="Times,serif" font-size="14.00">&#45;6,4 (Urea)</text>
</g>
<!-- 0,0 (LE BUS)&#45;&gt;&#45;6,4 (Urea) -->
<g id="edge2" class="edge">
<title>0,0 (LE BUS)&#45;&gt;&#45;6,4 (Urea)</title>
<path fill="none" stroke="black" stroke-width="0.74" d="M1009.86,-417.46C948.16,-479.16 742.01,-685.31 670.43,-756.89"/>
<polygon fill="black" stroke="black" stroke-width="0.74" points="667.75,-754.62 663.15,-764.17 672.7,-759.57 667.75,-754.62"/>
<text text-anchor="middle" x="779.64" y="-590.98" font-family="Times,serif" font-size="14.00">small&#45;lamp*2125</text>
</g>
<!-- 4,4 (Hydrogen Chloride, item=nylon Nylon/Nylon parts) -->
<g id="node5" class="node">
<title>4,4 (Hydrogen Chloride, item=nylon Nylon/Nylon parts)</title>
<ellipse fill="none" stroke="black" cx="1370.53" cy="-399.81" rx="271.05" ry="18"/>
<text text-anchor="middle" x="1370.53" y="-396.11" font-family="Times,serif" font-size="14.00">4,4 (Hydrogen Chloride, item=nylon Nylon/Nylon parts)</text>
</g>
<!-- 0,0 (LE BUS)&#45;&gt;4,4 (Hydrogen Chloride, item=nylon Nylon/Nylon parts) -->
<g id="edge4" class="edge">
<title>0,0 (LE BUS)&#45;&gt;4,4 (Hydrogen Chloride, item=nylon Nylon/Nylon parts)</title>
<path fill="none" stroke="black" stroke-width="0.18" d="M1099.42,-399.81C1099.46,-399.81 1099.51,-399.81 1099.56,-399.81"/>
<polygon fill="black" stroke="black" stroke-width="0.18" points="1089.71,-403.32 1099.71,-399.81 1089.71,-396.32 1089.71,-403.32"/>
<text text-anchor="middle" x="1043.49" y="-403.61" font-family="Times,serif" font-size="14.00">small&#45;lamp*521</text>
</g>
<!-- &#45;5,0 (item=small&#45;lampitem=petri&#45;dish Lamptri dishes) -->
<g id="node4" class="node">
<title>&#45;5,0 (item=small&#45;lampitem=petri&#45;dish Lamptri dishes)</title>
<ellipse fill="none" stroke="black" cx="263.88" cy="-399.81" rx="263.75" ry="18"/>
<text text-anchor="middle" x="263.88" y="-396.11" font-family="Times,serif" font-size="14.00">&#45;5,0 (item=small&#45;lampitem=petri&#45;dish Lamptri dishes)</text>
</g>
<!-- &#45;5,0 (item=small&#45;lampitem=petri&#45;dish Lamptri dishes)&#45;&gt;&#45;3,7 (item=sea&#45;sponge&#45;sprouts Also Borax) -->
<g id="edge5" class="edge">
<title>&#45;5,0 (item=small&#45;lampitem=petri&#45;dish Lamptri dishes)&#45;&gt;&#45;3,7 (item=sea&#45;sponge&#45;sprouts Also Borax)</title>
<path fill="none" stroke="black" stroke-width="0.71" d="M282.04,-381.66C344.09,-319.6 547.89,-115.8 620.07,-43.62"/>
<polygon fill="black" stroke="black" stroke-width="0.71" points="622.83,-45.82 627.42,-36.27 617.88,-40.87 622.83,-45.82"/>
<text text-anchor="middle" x="390.55" y="-216.44" font-family="Times,serif" font-size="14.00">small&#45;lamp*2037</text>
</g>
<!-- &#45;5,0 (item=small&#45;lampitem=petri&#45;dish Lamptri dishes)&#45;&gt;&#45;6,4 (Urea) -->
<g id="edge3" class="edge">
<title>&#45;5,0 (item=small&#45;lampitem=petri&#45;dish Lamptri dishes)&#45;&gt;&#45;6,4 (Urea)</title>
<path fill="none" stroke="black" stroke-width="1.76" d="M282.04,-417.97C344.38,-480.32 549.77,-685.71 621.06,-757"/>
<polygon fill="black" stroke="black" stroke-width="1.76" points="618.76,-759.65 628.3,-764.24 623.71,-754.7 618.76,-759.65"/>
<text text-anchor="middle" x="391.05" y="-591.28" font-family="Times,serif" font-size="14.00">small&#45;lamp*5067</text>
</g>
</g>
</svg>
