<?xml version="1.0" encoding="UTF-8" standalone="no"?>
<!DOCTYPE svg PUBLIC "-//W3C//DTD SVG 1.1//EN"
 "http://www.w3.org/Graphics/SVG/1.1/DTD/svg11.dtd">
<!-- Generated by graphviz version 2.43.0 (0)
 -->
<!-- Title: %3 Pages: 1 -->
<svg width="1158pt" height="819pt"
 viewBox="0.00 0.00 1158.17 819.35" xmlns="http://www.w3.org/2000/svg" xmlns:xlink="http://www.w3.org/1999/xlink">
<g id="graph0" class="graph" transform="scale(1 1) rotate(0) translate(4 815.35)">
<title>%3</title>
<polygon fill="white" stroke="transparent" points="-4,4 -4,-815.35 1154.17,-815.35 1154.17,4 -4,4"/>
<!-- 1,7 (Activated Carbon) -->
<g id="node1" class="node">
<title>1,7 (Activated Carbon)</title>
<ellipse fill="none" stroke="black" cx="625.81" cy="-385.56" rx="115.88" ry="18"/>
<text text-anchor="middle" x="625.81" y="-381.86" font-family="Times,serif" font-size="14.00">1,7 (Activated Carbon)</text>
</g>
<!-- 2,6 (Refined Syngas) -->
<g id="node2" class="node">
<title>2,6 (Refined Syngas)</title>
<ellipse fill="none" stroke="black" cx="1042.93" cy="-385.56" rx="107.48" ry="18"/>
<text text-anchor="middle" x="1042.93" y="-381.86" font-family="Times,serif" font-size="14.00">2,6 (Refined Syngas)</text>
</g>
<!-- 1,7 (Activated Carbon)&#45;&gt;2,6 (Refined Syngas) -->
<g id="edge1" class="edge">
<title>1,7 (Activated Carbon)&#45;&gt;2,6 (Refined Syngas)</title>
<path fill="none" stroke="black" stroke-width="1.57" d="M741.73,-385.56C798.92,-385.56 867.79,-385.56 925.23,-385.56"/>
<polygon fill="black" stroke="black" stroke-width="1.57" points="925.44,-389.06 935.44,-385.56 925.44,-382.06 925.44,-389.06"/>
<text text-anchor="middle" x="833.48" y="-374.36" font-family="Times,serif" font-size="14.00">active&#45;carbon*16000</text>
</g>
<!-- 0,6 (Flue Gas Disposal, Syngas From Flue Gas) -->
<g id="node3" class="node">
<title>0,6 (Flue Gas Disposal, Syngas From Flue Gas)</title>
<ellipse fill="none" stroke="black" cx="713.56" cy="-793.35" rx="229.36" ry="18"/>
<text text-anchor="middle" x="713.56" y="-789.65" font-family="Times,serif" font-size="14.00">0,6 (Flue Gas Disposal, Syngas From Flue Gas)</text>
</g>
<!-- 1,7 (Activated Carbon)&#45;&gt;0,6 (Flue Gas Disposal, Syngas From Flue Gas) -->
<g id="edge2" class="edge">
<title>1,7 (Activated Carbon)&#45;&gt;0,6 (Flue Gas Disposal, Syngas From Flue Gas)</title>
<path fill="none" stroke="black" stroke-width="1.42" d="M629.7,-403.61C643.54,-467.94 690.54,-686.38 707.44,-764.92"/>
<polygon fill="black" stroke="black" stroke-width="1.42" points="704.09,-766.01 709.62,-775.05 710.94,-764.53 704.09,-766.01"/>
<text text-anchor="middle" x="594.57" y="-588.07" font-family="Times,serif" font-size="14.00">active&#45;carbon*14480</text>
</g>
<!-- 4,1 (item=filtration&#45;media Filtration Media) -->
<g id="node4" class="node">
<title>4,1 (item=filtration&#45;media Filtration Media)</title>
<ellipse fill="none" stroke="black" cx="214.48" cy="-454.81" rx="214.46" ry="18"/>
<text text-anchor="middle" x="214.48" y="-451.11" font-family="Times,serif" font-size="14.00">4,1 (item=filtration&#45;media Filtration Media)</text>
</g>
<!-- 1,7 (Activated Carbon)&#45;&gt;4,1 (item=filtration&#45;media Filtration Media) -->
<g id="edge3" class="edge">
<title>1,7 (Activated Carbon)&#45;&gt;4,1 (item=filtration&#45;media Filtration Media)</title>
<path fill="none" stroke="black" stroke-width="0.99" d="M546.99,-398.83C482.73,-409.65 391.38,-425.03 320.68,-436.93"/>
<polygon fill="black" stroke="black" stroke-width="0.99" points="319.68,-433.55 310.4,-438.66 320.84,-440.46 319.68,-433.55"/>
<text text-anchor="middle" x="359.83" y="-421.68" font-family="Times,serif" font-size="14.00">active&#45;carbon*10016</text>
</g>
<!-- 0,0 (LE BUS) -->
<g id="node5" class="node">
<title>0,0 (LE BUS)</title>
<ellipse fill="none" stroke="black" cx="425.74" cy="-19.56" rx="71.49" ry="18"/>
<text text-anchor="middle" x="425.74" y="-15.86" font-family="Times,serif" font-size="14.00">0,0 (LE BUS)</text>
</g>
<!-- 1,7 (Activated Carbon)&#45;&gt;0,0 (LE BUS) -->
<g id="edge4" class="edge">
<title>1,7 (Activated Carbon)&#45;&gt;0,0 (LE BUS)</title>
<path fill="none" stroke="black" stroke-width="0.43" d="M615.89,-367.41C583.29,-307.78 479.35,-117.64 440.54,-46.64"/>
<polygon fill="black" stroke="black" stroke-width="0.43" points="443.59,-44.92 435.72,-37.82 437.44,-48.27 443.59,-44.92"/>
<text text-anchor="middle" x="458.71" y="-210.83" font-family="Times,serif" font-size="14.00">active&#45;carbon*4336</text>
</g>
<!-- 4,10 (Fluid Recycling) -->
<g id="node6" class="node">
<title>4,10 (Fluid Recycling)</title>
<ellipse fill="none" stroke="black" cx="823.01" cy="-18" rx="112.38" ry="18"/>
<text text-anchor="middle" x="823.01" y="-14.3" font-family="Times,serif" font-size="14.00">4,10 (Fluid Recycling)</text>
</g>
<!-- 1,7 (Activated Carbon)&#45;&gt;4,10 (Fluid Recycling) -->
<g id="edge5" class="edge">
<title>1,7 (Activated Carbon)&#45;&gt;4,10 (Fluid Recycling)</title>
<path fill="none" stroke="black" stroke-width="0.59" d="M635.46,-367.59C667.5,-307.86 770.53,-115.81 808.65,-44.76"/>
<polygon fill="black" stroke="black" stroke-width="0.59" points="811.74,-46.41 813.38,-35.94 805.57,-43.1 811.74,-46.41"/>
<text text-anchor="middle" x="652.55" y="-209.97" font-family="Times,serif" font-size="14.00">active&#45;carbon*5984</text>
</g>
</g>
</svg>
