<?xml version="1.0" encoding="UTF-8" standalone="no"?>
<!DOCTYPE svg PUBLIC "-//W3C//DTD SVG 1.1//EN"
 "http://www.w3.org/Graphics/SVG/1.1/DTD/svg11.dtd">
<!-- Generated by graphviz version 2.43.0 (0)
 -->
<!-- Title: %3 Pages: 1 -->
<svg width="758pt" height="44pt"
 viewBox="0.00 0.00 758.40 44.00" xmlns="http://www.w3.org/2000/svg" xmlns:xlink="http://www.w3.org/1999/xlink">
<g id="graph0" class="graph" transform="scale(1 1) rotate(0) translate(4 40)">
<title>%3</title>
<polygon fill="white" stroke="transparent" points="-4,4 -4,-40 754.4,-40 754.4,4 -4,4"/>
<!-- 2,10 (Nickel plate and Nichrome) -->
<g id="node1" class="node">
<title>2,10 (Nickel plate and Nichrome)</title>
<ellipse fill="none" stroke="black" cx="370.32" cy="-18" rx="165.17" ry="18"/>
<text text-anchor="middle" x="370.32" y="-14.3" font-family="Times,serif" font-size="14.00">2,10 (Nickel plate and Nichrome)</text>
</g>
<!-- 0,0 (LE BUS) -->
<g id="node2" class="node">
<title>0,0 (LE BUS)</title>
<ellipse fill="none" stroke="black" cx="678.9" cy="-18" rx="71.49" ry="18"/>
<text text-anchor="middle" x="678.9" y="-14.3" font-family="Times,serif" font-size="14.00">0,0 (LE BUS)</text>
</g>
<!-- 2,10 (Nickel plate and Nichrome)&#45;&gt;0,0 (LE BUS) -->
<g id="edge1" class="edge">
<title>2,10 (Nickel plate and Nichrome)&#45;&gt;0,0 (LE BUS)</title>
<path fill="none" stroke="black" stroke-width="1.32" d="M535.45,-18C556.83,-18 577.93,-18 597.1,-18"/>
<polygon fill="black" stroke="black" stroke-width="1.32" points="597.24,-21.5 607.24,-18 597.24,-14.5 597.24,-21.5"/>
<text text-anchor="middle" x="566.28" y="-6.8" font-family="Times,serif" font-size="14.00">nickel&#45;plate*8200</text>
</g>
<!-- 4,&#45;1 (Fluid) -->
<g id="node3" class="node">
<title>4,&#45;1 (Fluid)</title>
<ellipse fill="none" stroke="black" cx="61.74" cy="-18" rx="61.99" ry="18"/>
<text text-anchor="middle" x="61.74" y="-14.3" font-family="Times,serif" font-size="14.00">4,&#45;1 (Fluid)</text>
</g>
<!-- 2,10 (Nickel plate and Nichrome)&#45;&gt;4,&#45;1 (Fluid) -->
<g id="edge2" class="edge">
<title>2,10 (Nickel plate and Nichrome)&#45;&gt;4,&#45;1 (Fluid)</title>
<path fill="none" stroke="black" stroke-width="0.68" d="M205.19,-18C180.08,-18 155.35,-18 133.69,-18"/>
<polygon fill="black" stroke="black" stroke-width="0.68" points="133.64,-14.5 123.64,-18 133.64,-21.5 133.64,-14.5"/>
<text text-anchor="middle" x="137.94" y="-6.8" font-family="Times,serif" font-size="14.00">nickel&#45;plate*4240</text>
</g>
</g>
</svg>
