<?xml version="1.0" encoding="UTF-8" standalone="no"?>
<!DOCTYPE svg PUBLIC "-//W3C//DTD SVG 1.1//EN"
 "http://www.w3.org/Graphics/SVG/1.1/DTD/svg11.dtd">
<!-- Generated by graphviz version 2.43.0 (0)
 -->
<!-- Title: %3 Pages: 1 -->
<svg width="1347pt" height="44pt"
 viewBox="0.00 0.00 1346.59 44.00" xmlns="http://www.w3.org/2000/svg" xmlns:xlink="http://www.w3.org/1999/xlink">
<g id="graph0" class="graph" transform="scale(1 1) rotate(0) translate(4 40)">
<title>%3</title>
<polygon fill="white" stroke="transparent" points="-4,4 -4,-40 1342.59,-40 1342.59,4 -4,4"/>
<!-- 8,1 (Molten Copper) -->
<g id="node1" class="node">
<title>8,1 (Molten Copper)</title>
<ellipse fill="none" stroke="black" cx="565.31" cy="-18" rx="104.78" ry="18"/>
<text text-anchor="middle" x="565.31" y="-14.3" font-family="Times,serif" font-size="14.00">8,1 (Molten Copper)</text>
</g>
<!-- 3,12 (reserved &#45; Candle, reserved &#45; Candle, reserved &#45; Candle) -->
<g id="node2" class="node">
<title>3,12 (reserved &#45; Candle, reserved &#45; Candle, reserved &#45; Candle)</title>
<ellipse fill="none" stroke="black" cx="1040.27" cy="-18" rx="298.15" ry="18"/>
<text text-anchor="middle" x="1040.27" y="-14.3" font-family="Times,serif" font-size="14.00">3,12 (reserved &#45; Candle, reserved &#45; Candle, reserved &#45; Candle)</text>
</g>
<!-- 8,1 (Molten Copper)&#45;&gt;3,12 (reserved &#45; Candle, reserved &#45; Candle, reserved &#45; Candle) -->
<g id="edge1" class="edge">
<title>8,1 (Molten Copper)&#45;&gt;3,12 (reserved &#45; Candle, reserved &#45; Candle, reserved &#45; Candle)</title>
<path fill="none" stroke="black" stroke-width="0.58" d="M670.13,-18C689.11,-18 709.76,-18 731.28,-18"/>
<polygon fill="black" stroke="black" stroke-width="0.58" points="731.56,-21.5 741.56,-18 731.56,-14.5 731.56,-21.5"/>
<text text-anchor="middle" x="700.7" y="-6.8" font-family="Times,serif" font-size="14.00">molten&#45;copper&#45;barrel*1680</text>
</g>
<!-- &#45;8,&#45;3 (Duralumin) -->
<g id="node3" class="node">
<title>&#45;8,&#45;3 (Duralumin)</title>
<ellipse fill="none" stroke="black" cx="90.34" cy="-18" rx="90.18" ry="18"/>
<text text-anchor="middle" x="90.34" y="-14.3" font-family="Times,serif" font-size="14.00">&#45;8,&#45;3 (Duralumin)</text>
</g>
<!-- 8,1 (Molten Copper)&#45;&gt;&#45;8,&#45;3 (Duralumin) -->
<g id="edge2" class="edge">
<title>8,1 (Molten Copper)&#45;&gt;&#45;8,&#45;3 (Duralumin)</title>
<path fill="none" stroke="black" stroke-width="1.42" d="M460.49,-18C380.35,-18 270.55,-18 191.37,-18"/>
<polygon fill="black" stroke="black" stroke-width="1.42" points="190.9,-14.5 180.9,-18 190.9,-21.5 190.9,-14.5"/>
<text text-anchor="middle" x="325.93" y="-6.8" font-family="Times,serif" font-size="14.00">molten&#45;copper&#45;barrel*4160</text>
</g>
</g>
</svg>
