<?xml version="1.0" encoding="UTF-8" standalone="no"?>
<!DOCTYPE svg PUBLIC "-//W3C//DTD SVG 1.1//EN"
 "http://www.w3.org/Graphics/SVG/1.1/DTD/svg11.dtd">
<!-- Generated by graphviz version 2.43.0 (0)
 -->
<!-- Title: %3 Pages: 1 -->
<svg width="5474pt" height="5496pt"
 viewBox="0.00 0.00 5473.60 5496.01" xmlns="http://www.w3.org/2000/svg" xmlns:xlink="http://www.w3.org/1999/xlink">
<g id="graph0" class="graph" transform="scale(1 1) rotate(0) translate(4 5492.01)">
<title>%3</title>
<polygon fill="white" stroke="transparent" points="-4,4 -4,-5492.01 5469.6,-5492.01 5469.6,4 -4,4"/>
<!-- &#45;1,10 (Iron Plates) -->
<g id="node1" class="node">
<title>&#45;1,10 (Iron Plates)</title>
<ellipse fill="none" stroke="black" cx="2226.31" cy="-1812.47" rx="94.78" ry="18"/>
<text text-anchor="middle" x="2226.31" y="-1808.77" font-family="Times,serif" font-size="14.00">&#45;1,10 (Iron Plates)</text>
</g>
<!-- &#45;4,&#45;2 (For Science!) -->
<g id="node2" class="node">
<title>&#45;4,&#45;2 (For Science!)</title>
<ellipse fill="none" stroke="black" cx="3181.8" cy="-428.2" rx="98.58" ry="18"/>
<text text-anchor="middle" x="3181.8" y="-424.5" font-family="Times,serif" font-size="14.00">&#45;4,&#45;2 (For Science!)</text>
</g>
<!-- &#45;1,10 (Iron Plates)&#45;&gt;&#45;4,&#45;2 (For Science!) -->
<g id="edge1" class="edge">
<title>&#45;1,10 (Iron Plates)&#45;&gt;&#45;4,&#45;2 (For Science!)</title>
<path fill="none" stroke="black" stroke-width="0.37" d="M2238.74,-1794.46C2340.92,-1646.43 3041.61,-631.3 3163.68,-454.45"/>
<polygon fill="black" stroke="black" stroke-width="0.37" points="3166.56,-456.43 3169.36,-446.21 3160.8,-452.46 3166.56,-456.43"/>
<text text-anchor="middle" x="2640.71" y="-1128.25" font-family="Times,serif" font-size="14.00">iron&#45;plate*10000</text>
</g>
<!-- 2,0 (Sodium Sulfate) -->
<g id="node3" class="node">
<title>2,0 (Sodium Sulfate)</title>
<ellipse fill="none" stroke="black" cx="1657.73" cy="-1596.84" rx="106.68" ry="18"/>
<text text-anchor="middle" x="1657.73" y="-1593.14" font-family="Times,serif" font-size="14.00">2,0 (Sodium Sulfate)</text>
</g>
<!-- &#45;1,10 (Iron Plates)&#45;&gt;2,0 (Sodium Sulfate) -->
<g id="edge2" class="edge">
<title>&#45;1,10 (Iron Plates)&#45;&gt;2,0 (Sodium Sulfate)</title>
<path fill="none" stroke="black" stroke-width="0.19" d="M2183.57,-1796.26C2081.31,-1757.48 1822.72,-1659.41 1710.76,-1616.95"/>
<polygon fill="black" stroke="black" stroke-width="0.19" points="1711.94,-1613.65 1701.35,-1613.38 1709.46,-1620.2 1711.94,-1613.65"/>
<text text-anchor="middle" x="1891.17" y="-1710.4" font-family="Times,serif" font-size="14.00">iron&#45;plate*5040</text>
</g>
<!-- 0,0 (LE BUS) -->
<g id="node4" class="node">
<title>0,0 (LE BUS)</title>
<ellipse fill="none" stroke="black" cx="2629.55" cy="-2267.63" rx="71.49" ry="18"/>
<text text-anchor="middle" x="2629.55" y="-2263.93" font-family="Times,serif" font-size="14.00">0,0 (LE BUS)</text>
</g>
<!-- &#45;1,10 (Iron Plates)&#45;&gt;0,0 (LE BUS) -->
<g id="edge3" class="edge">
<title>&#45;1,10 (Iron Plates)&#45;&gt;0,0 (LE BUS)</title>
<path fill="none" stroke="black" stroke-width="0.57" d="M2242.11,-1830.31C2304.54,-1900.78 2534.07,-2159.86 2607.09,-2242.28"/>
<polygon fill="black" stroke="black" stroke-width="0.57" points="2604.6,-2244.75 2613.85,-2249.91 2609.84,-2240.11 2604.6,-2244.75"/>
<text text-anchor="middle" x="2364.1" y="-2040.1" font-family="Times,serif" font-size="14.00">iron&#45;plate*15160</text>
</g>
<!-- 3,3 (Small Parts) -->
<g id="node9" class="node">
<title>3,3 (Small Parts)</title>
<ellipse fill="none" stroke="black" cx="1054.07" cy="-1670.13" rx="89.08" ry="18"/>
<text text-anchor="middle" x="1054.07" y="-1666.43" font-family="Times,serif" font-size="14.00">3,3 (Small Parts)</text>
</g>
<!-- &#45;1,10 (Iron Plates)&#45;&gt;3,3 (Small Parts) -->
<g id="edge38" class="edge">
<title>&#45;1,10 (Iron Plates)&#45;&gt;3,3 (Small Parts)</title>
<path fill="none" stroke="black" stroke-width="1.89" d="M2146.2,-1802.74C1934.27,-1777.01 1360.17,-1707.3 1140.85,-1680.67"/>
<polygon fill="black" stroke="black" stroke-width="1.89" points="1141.03,-1677.17 1130.68,-1679.43 1140.19,-1684.11 1141.03,-1677.17"/>
<text text-anchor="middle" x="1583.02" y="-1745.51" font-family="Times,serif" font-size="14.00">iron&#45;plate*50480</text>
</g>
<!-- 2,5 (Simple Circuits) -->
<g id="node10" class="node">
<title>2,5 (Simple Circuits)</title>
<ellipse fill="none" stroke="black" cx="553.62" cy="-2015.57" rx="106.68" ry="18"/>
<text text-anchor="middle" x="553.62" y="-2011.87" font-family="Times,serif" font-size="14.00">2,5 (Simple Circuits)</text>
</g>
<!-- &#45;1,10 (Iron Plates)&#45;&gt;2,5 (Simple Circuits) -->
<g id="edge31" class="edge">
<title>&#45;1,10 (Iron Plates)&#45;&gt;2,5 (Simple Circuits)</title>
<path fill="none" stroke="black" stroke-width="0.32" d="M2146.19,-1822.2C1869.04,-1855.85 951.45,-1967.26 650.3,-2003.83"/>
<polygon fill="black" stroke="black" stroke-width="0.32" points="649.78,-2000.37 640.28,-2005.05 650.63,-2007.32 649.78,-2000.37"/>
<text text-anchor="middle" x="1342.25" y="-1916.81" font-family="Times,serif" font-size="14.00">iron&#45;plate*8520</text>
</g>
<!-- 4,1 (item=filtration&#45;media Filtration Media) -->
<g id="node12" class="node">
<title>4,1 (item=filtration&#45;media Filtration Media)</title>
<ellipse fill="none" stroke="black" cx="271.03" cy="-2554.01" rx="214.46" ry="18"/>
<text text-anchor="middle" x="271.03" y="-2550.31" font-family="Times,serif" font-size="14.00">4,1 (item=filtration&#45;media Filtration Media)</text>
</g>
<!-- &#45;1,10 (Iron Plates)&#45;&gt;4,1 (item=filtration&#45;media Filtration Media) -->
<g id="edge10" class="edge">
<title>&#45;1,10 (Iron Plates)&#45;&gt;4,1 (item=filtration&#45;media Filtration Media)</title>
<path fill="none" stroke="black" stroke-width="0.37" d="M2183.65,-1828.65C1929.36,-1925.09 614.7,-2423.67 326.79,-2532.86"/>
<polygon fill="black" stroke="black" stroke-width="0.37" points="325.49,-2529.61 317.38,-2536.43 327.97,-2536.15 325.49,-2529.61"/>
<text text-anchor="middle" x="1194.72" y="-2184.55" font-family="Times,serif" font-size="14.00">iron&#45;plate*10000</text>
</g>
<!-- 4,4 (Hydrogen Chloride, item=nylon Nylon/Nylon parts) -->
<g id="node13" class="node">
<title>4,4 (Hydrogen Chloride, item=nylon Nylon/Nylon parts)</title>
<ellipse fill="none" stroke="black" cx="271.03" cy="-3162.1" rx="271.05" ry="18"/>
<text text-anchor="middle" x="271.03" y="-3158.4" font-family="Times,serif" font-size="14.00">4,4 (Hydrogen Chloride, item=nylon Nylon/Nylon parts)</text>
</g>
<!-- &#45;1,10 (Iron Plates)&#45;&gt;4,4 (Hydrogen Chloride, item=nylon Nylon/Nylon parts) -->
<g id="edge32" class="edge">
<title>&#45;1,10 (Iron Plates)&#45;&gt;4,4 (Hydrogen Chloride, item=nylon Nylon/Nylon parts)</title>
<path fill="none" stroke="black" stroke-width="0.31" d="M2200.87,-1830.03C1991.06,-1974.85 548.1,-2970.85 305.59,-3138.25"/>
<polygon fill="black" stroke="black" stroke-width="0.31" points="303.39,-3135.51 297.15,-3144.07 307.37,-3141.27 303.39,-3135.51"/>
<text text-anchor="middle" x="1197.23" y="-2487.94" font-family="Times,serif" font-size="14.00">iron&#45;plate*8320</text>
</g>
<!-- 7,&#45;2 (item=guts Auog guts) -->
<g id="node17" class="node">
<title>7,&#45;2 (item=guts Auog guts)</title>
<ellipse fill="none" stroke="black" cx="553.62" cy="-3700.54" rx="137.28" ry="18"/>
<text text-anchor="middle" x="553.62" y="-3696.84" font-family="Times,serif" font-size="14.00">7,&#45;2 (item=guts Auog guts)</text>
</g>
<!-- &#45;1,10 (Iron Plates)&#45;&gt;7,&#45;2 (item=guts Auog guts) -->
<g id="edge35" class="edge">
<title>&#45;1,10 (Iron Plates)&#45;&gt;7,&#45;2 (item=guts Auog guts)</title>
<path fill="none" stroke="black" stroke-width="0.11" d="M2210.55,-1830.25C2053.04,-2008.04 763.58,-3463.54 576.28,-3674.97"/>
<polygon fill="black" stroke="black" stroke-width="0.11" points="573.61,-3672.69 569.6,-3682.5 578.85,-3677.34 573.61,-3672.69"/>
<text text-anchor="middle" x="1337.41" y="-2756.41" font-family="Times,serif" font-size="14.00">iron&#45;plate*3000</text>
</g>
<!-- 2,12 (Yet more coke) -->
<g id="node18" class="node">
<title>2,12 (Yet more coke)</title>
<ellipse fill="none" stroke="black" cx="1054.07" cy="-4045.98" rx="106.68" ry="18"/>
<text text-anchor="middle" x="1054.07" y="-4042.28" font-family="Times,serif" font-size="14.00">2,12 (Yet more coke)</text>
</g>
<!-- &#45;1,10 (Iron Plates)&#45;&gt;2,12 (Yet more coke) -->
<g id="edge16" class="edge">
<title>&#45;1,10 (Iron Plates)&#45;&gt;2,12 (Yet more coke)</title>
<path fill="none" stroke="black" stroke-width="1.1" d="M2216.87,-1830.45C2113.54,-2027.33 1193.91,-3779.54 1068.27,-4018.93"/>
<polygon fill="black" stroke="black" stroke-width="1.1" points="1065.05,-4017.52 1063.5,-4028 1071.25,-4020.77 1065.05,-4017.52"/>
<text text-anchor="middle" x="1582.07" y="-2928.49" font-family="Times,serif" font-size="14.00">iron&#45;plate*29400</text>
</g>
<!-- 3,16 (More Coke) -->
<g id="node21" class="node">
<title>3,16 (More Coke)</title>
<ellipse fill="none" stroke="black" cx="1657.73" cy="-4119.27" rx="90.98" ry="18"/>
<text text-anchor="middle" x="1657.73" y="-4115.57" font-family="Times,serif" font-size="14.00">3,16 (More Coke)</text>
</g>
<!-- &#45;1,10 (Iron Plates)&#45;&gt;3,16 (More Coke) -->
<g id="edge37" class="edge">
<title>&#45;1,10 (Iron Plates)&#45;&gt;3,16 (More Coke)</title>
<path fill="none" stroke="black" stroke-width="0.37" d="M2221.81,-1830.7C2172.13,-2032.27 1726.05,-3842.1 1664.71,-4090.96"/>
<polygon fill="black" stroke="black" stroke-width="0.37" points="1661.23,-4090.46 1662.23,-4101.01 1668.02,-4092.14 1661.23,-4090.46"/>
<text text-anchor="middle" x="1887.26" y="-2964.63" font-family="Times,serif" font-size="14.00">iron&#45;plate*9880</text>
</g>
<!-- 3,15 (Even Yet More Coke) -->
<g id="node25" class="node">
<title>3,15 (Even Yet More Coke)</title>
<ellipse fill="none" stroke="black" cx="2226.31" cy="-3903.64" rx="135.38" ry="18"/>
<text text-anchor="middle" x="2226.31" y="-3899.94" font-family="Times,serif" font-size="14.00">3,15 (Even Yet More Coke)</text>
</g>
<!-- &#45;1,10 (Iron Plates)&#45;&gt;3,15 (Even Yet More Coke) -->
<g id="edge36" class="edge">
<title>&#45;1,10 (Iron Plates)&#45;&gt;3,15 (Even Yet More Coke)</title>
<path fill="none" stroke="black" stroke-width="0.13" d="M2226.31,-1830.55C2226.31,-2020.05 2226.31,-3640.3 2226.31,-3875.27"/>
<polygon fill="black" stroke="black" stroke-width="0.13" points="2222.81,-3875.41 2226.31,-3885.41 2229.81,-3875.41 2222.81,-3875.41"/>
<text text-anchor="middle" x="2170.31" y="-2856.71" font-family="Times,serif" font-size="14.00">iron&#45;plate*3520</text>
</g>
<!-- &#45;5,0 (item=small&#45;lampitem=petri&#45;dish Lamptri dishes) -->
<g id="node28" class="node">
<title>&#45;5,0 (item=small&#45;lampitem=petri&#45;dish Lamptri dishes)</title>
<ellipse fill="none" stroke="black" cx="2629.55" cy="-3448.48" rx="263.75" ry="18"/>
<text text-anchor="middle" x="2629.55" y="-3444.78" font-family="Times,serif" font-size="14.00">&#45;5,0 (item=small&#45;lampitem=petri&#45;dish Lamptri dishes)</text>
</g>
<!-- &#45;1,10 (Iron Plates)&#45;&gt;&#45;5,0 (item=small&#45;lampitem=petri&#45;dish Lamptri dishes) -->
<g id="edge39" class="edge">
<title>&#45;1,10 (Iron Plates)&#45;&gt;&#45;5,0 (item=small&#45;lampitem=petri&#45;dish Lamptri dishes)</title>
<path fill="none" stroke="black" stroke-width="0.12" d="M2230.77,-1830.56C2271.12,-1994.3 2572.91,-3218.71 2622.62,-3420.39"/>
<polygon fill="black" stroke="black" stroke-width="0.12" points="2619.26,-3421.35 2625.05,-3430.23 2626.05,-3419.68 2619.26,-3421.35"/>
<text text-anchor="middle" x="2370.7" y="-2629.28" font-family="Times,serif" font-size="14.00">iron&#45;plate*3240</text>
</g>
<!-- 0,11 () -->
<g id="node5" class="node">
<title>0,11 ()</title>
<ellipse fill="none" stroke="black" cx="2775.07" cy="-2858.05" rx="40.89" ry="18"/>
<text text-anchor="middle" x="2775.07" y="-2854.35" font-family="Times,serif" font-size="14.00">0,11 ()</text>
</g>
<!-- 0,11 ()&#45;&gt;2,0 (Sodium Sulfate) -->
<g id="edge34" class="edge">
<title>0,11 ()&#45;&gt;2,0 (Sodium Sulfate)</title>
<path fill="none" stroke="black" stroke-width="0.08" d="M2760.12,-2841.18C2639.67,-2705.21 1828.21,-1789.27 1680.71,-1622.77"/>
<polygon fill="black" stroke="black" stroke-width="0.08" points="1683.06,-1620.15 1673.81,-1614.99 1677.82,-1624.79 1683.06,-1620.15"/>
<text text-anchor="middle" x="2164.42" y="-2235.78" font-family="Times,serif" font-size="14.00">iron&#45;plate*2160</text>
</g>
<!-- 0,11 ()&#45;&gt;0,0 (LE BUS) -->
<g id="edge21" class="edge">
<title>0,11 ()&#45;&gt;0,0 (LE BUS)</title>
<path fill="none" stroke="black" stroke-width="0.27" d="M2770.64,-2840.06C2749.84,-2755.69 2661.94,-2399.04 2636.48,-2295.76"/>
<polygon fill="black" stroke="black" stroke-width="0.27" points="2639.81,-2294.65 2634.02,-2285.77 2633.01,-2296.32 2639.81,-2294.65"/>
<text text-anchor="middle" x="2647.56" y="-2571.71" font-family="Times,serif" font-size="14.00">iron&#45;plate*7200</text>
</g>
<!-- &#45;4,1 (item=ulric Ulrics) -->
<g id="node6" class="node">
<title>&#45;4,1 (item=ulric Ulrics)</title>
<ellipse fill="none" stroke="black" cx="3856.47" cy="-18" rx="118.08" ry="18"/>
<text text-anchor="middle" x="3856.47" y="-14.3" font-family="Times,serif" font-size="14.00">&#45;4,1 (item=ulric Ulrics)</text>
</g>
<!-- 0,11 ()&#45;&gt;&#45;4,1 (item=ulric Ulrics) -->
<g id="edge4" class="edge">
<title>0,11 ()&#45;&gt;&#45;4,1 (item=ulric Ulrics)</title>
<path fill="none" stroke="black" stroke-width="0.53" d="M2781.84,-2840.29C2867.51,-2615.28 3739.96,-323.99 3845.94,-45.64"/>
<polygon fill="black" stroke="black" stroke-width="0.53" points="3849.23,-46.84 3849.52,-36.25 3842.69,-44.35 3849.23,-46.84"/>
<text text-anchor="middle" x="3253.39" y="-1446.77" font-family="Times,serif" font-size="14.00">iron&#45;plate*14080</text>
</g>
<!-- &#45;7,&#45;4 (Isomer&#39;s Slaughterhouse and Daycare Centre, Bone Meal) -->
<g id="node7" class="node">
<title>&#45;7,&#45;4 (Isomer&#39;s Slaughterhouse and Daycare Centre, Bone Meal)</title>
<ellipse fill="none" stroke="black" cx="4217.25" cy="-360.31" rx="307.35" ry="18"/>
<text text-anchor="middle" x="4217.25" y="-356.61" font-family="Times,serif" font-size="14.00">&#45;7,&#45;4 (Isomer&#39;s Slaughterhouse and Daycare Centre, Bone Meal)</text>
</g>
<!-- 0,11 ()&#45;&gt;&#45;7,&#45;4 (Isomer&#39;s Slaughterhouse and Daycare Centre, Bone Meal) -->
<g id="edge5" class="edge">
<title>0,11 ()&#45;&gt;&#45;7,&#45;4 (Isomer&#39;s Slaughterhouse and Daycare Centre, Bone Meal)</title>
<path fill="none" stroke="black" stroke-width="0.51" d="M2785.25,-2840.43C2905.49,-2632.19 4053.35,-644.17 4201.52,-387.55"/>
<polygon fill="black" stroke="black" stroke-width="0.51" points="4204.77,-388.93 4206.74,-378.52 4198.71,-385.43 4204.77,-388.93"/>
<text text-anchor="middle" x="3432.89" y="-1617.79" font-family="Times,serif" font-size="14.00">iron&#45;plate*13560</text>
</g>
<!-- 1,9 (Ammunition) -->
<g id="node8" class="node">
<title>1,9 (Ammunition)</title>
<ellipse fill="none" stroke="black" cx="4513.36" cy="-726.26" rx="91.78" ry="18"/>
<text text-anchor="middle" x="4513.36" y="-722.56" font-family="Times,serif" font-size="14.00">1,9 (Ammunition)</text>
</g>
<!-- 0,11 ()&#45;&gt;1,9 (Ammunition) -->
<g id="edge6" class="edge">
<title>0,11 ()&#45;&gt;1,9 (Ammunition)</title>
<path fill="none" stroke="black" stroke-width="0.17" d="M2789.06,-2840.89C2942.28,-2652.99 4305.81,-980.8 4492.27,-752.13"/>
<polygon fill="black" stroke="black" stroke-width="0.17" points="4495.03,-754.28 4498.64,-744.32 4489.61,-749.85 4495.03,-754.28"/>
<text text-anchor="middle" x="3584.67" y="-1800.31" font-family="Times,serif" font-size="14.00">iron&#45;plate*4560</text>
</g>
<!-- 0,11 ()&#45;&gt;3,3 (Small Parts) -->
<g id="edge7" class="edge">
<title>0,11 ()&#45;&gt;3,3 (Small Parts)</title>
<path fill="none" stroke="black" stroke-width="7.84" d="M2753,-2842.82C2570.33,-2716.73 1310.05,-1846.82 1087.58,-1693.27"/>
<polygon fill="black" stroke="black" stroke-width="7.84" points="1091.36,-1687.53 1079.23,-1687.5 1083.56,-1698.82 1091.36,-1687.53"/>
<text text-anchor="middle" x="1855.29" y="-2271.84" font-family="Times,serif" font-size="14.00">iron&#45;plate*209240</text>
</g>
<!-- 0,11 ()&#45;&gt;2,5 (Simple Circuits) -->
<g id="edge8" class="edge">
<title>0,11 ()&#45;&gt;2,5 (Simple Circuits)</title>
<path fill="none" stroke="black" stroke-width="1.25" d="M2743.67,-2846.14C2500.43,-2753.9 918.1,-2153.8 606.75,-2035.72"/>
<polygon fill="black" stroke="black" stroke-width="1.25" points="607.66,-2032.32 597.06,-2032.04 605.17,-2038.86 607.66,-2032.32"/>
<text text-anchor="middle" x="1614.71" y="-2444.73" font-family="Times,serif" font-size="14.00">iron&#45;plate*33480</text>
</g>
<!-- &#45;1,6 (Flimble&#39;s Slaughterhouse and Daycare Centre, Auog Products) -->
<g id="node11" class="node">
<title>&#45;1,6 (Flimble&#39;s Slaughterhouse and Daycare Centre, Auog Products)</title>
<ellipse fill="none" stroke="black" cx="4768.94" cy="-1143.04" rx="325.74" ry="18"/>
<text text-anchor="middle" x="4768.94" y="-1139.34" font-family="Times,serif" font-size="14.00">&#45;1,6 (Flimble&#39;s Slaughterhouse and Daycare Centre, Auog Products)</text>
</g>
<!-- 0,11 ()&#45;&gt;&#45;1,6 (Flimble&#39;s Slaughterhouse and Daycare Centre, Auog Products) -->
<g id="edge9" class="edge">
<title>0,11 ()&#45;&gt;&#45;1,6 (Flimble&#39;s Slaughterhouse and Daycare Centre, Auog Products)</title>
<path fill="none" stroke="black" stroke-width="0.77" d="M2793.85,-2841.9C2981.11,-2680.84 4510.51,-1365.33 4740.13,-1167.83"/>
<polygon fill="black" stroke="black" stroke-width="0.77" points="4742.44,-1170.45 4747.74,-1161.27 4737.88,-1165.14 4742.44,-1170.45"/>
<text text-anchor="middle" x="3706.49" y="-2008.66" font-family="Times,serif" font-size="14.00">iron&#45;plate*20640</text>
</g>
<!-- 0,11 ()&#45;&gt;4,1 (item=filtration&#45;media Filtration Media) -->
<g id="edge25" class="edge">
<title>0,11 ()&#45;&gt;4,1 (item=filtration&#45;media Filtration Media)</title>
<path fill="none" stroke="black" stroke-width="0.67" d="M2735.49,-2853.25C2464.13,-2820.3 875.53,-2627.41 403.34,-2570.07"/>
<polygon fill="black" stroke="black" stroke-width="0.67" points="403.42,-2566.56 393.07,-2568.83 402.57,-2573.51 403.42,-2566.56"/>
<text text-anchor="middle" x="1508.91" y="-2715.46" font-family="Times,serif" font-size="14.00">iron&#45;plate*17760</text>
</g>
<!-- 0,11 ()&#45;&gt;4,4 (Hydrogen Chloride, item=nylon Nylon/Nylon parts) -->
<g id="edge11" class="edge">
<title>0,11 ()&#45;&gt;4,4 (Hydrogen Chloride, item=nylon Nylon/Nylon parts)</title>
<path fill="none" stroke="black" stroke-width="4.05" d="M2735.49,-2862.86C2465.69,-2895.62 893.75,-3086.49 411.59,-3145.03"/>
<polygon fill="black" stroke="black" stroke-width="4.05" points="410.94,-3141.54 401.44,-3146.27 411.8,-3148.58 410.94,-3141.54"/>
<text text-anchor="middle" x="1508.54" y="-3007.75" font-family="Times,serif" font-size="14.00">iron&#45;plate*108040</text>
</g>
<!-- 2,2 () -->
<g id="node14" class="node">
<title>2,2 ()</title>
<ellipse fill="none" stroke="black" cx="4947.28" cy="-1537.03" rx="35.19" ry="18"/>
<text text-anchor="middle" x="4947.28" y="-1533.33" font-family="Times,serif" font-size="14.00">2,2 ()</text>
</g>
<!-- 0,11 ()&#45;&gt;2,2 () -->
<g id="edge12" class="edge">
<title>0,11 ()&#45;&gt;2,2 ()</title>
<path fill="none" stroke="black" stroke-width="0.85" d="M2799.1,-2843.44C3018.14,-2710.23 4666.91,-1707.54 4915.84,-1556.15"/>
<polygon fill="black" stroke="black" stroke-width="0.85" points="4917.7,-1559.12 4924.42,-1550.93 4914.06,-1553.13 4917.7,-1559.12"/>
<text text-anchor="middle" x="3796.97" y="-2203.6" font-family="Times,serif" font-size="14.00">iron&#45;plate*22560</text>
</g>
<!-- 2,14 (Latex) -->
<g id="node15" class="node">
<title>2,14 (Latex)</title>
<ellipse fill="none" stroke="black" cx="5005.77" cy="-1700.93" rx="66.89" ry="18"/>
<text text-anchor="middle" x="5005.77" y="-1697.23" font-family="Times,serif" font-size="14.00">2,14 (Latex)</text>
</g>
<!-- 0,11 ()&#45;&gt;2,14 (Latex) -->
<g id="edge13" class="edge">
<title>0,11 ()&#45;&gt;2,14 (Latex)</title>
<path fill="none" stroke="black" stroke-width="0.94" d="M2801.68,-2844.25C3031.94,-2724.81 4685.8,-1866.91 4965.61,-1721.76"/>
<polygon fill="black" stroke="black" stroke-width="0.94" points="4967.34,-1724.81 4974.61,-1717.09 4964.12,-1718.59 4967.34,-1724.81"/>
<text text-anchor="middle" x="3823.14" y="-2286.81" font-family="Times,serif" font-size="14.00">iron&#45;plate*25080</text>
</g>
<!-- &#45;3,8 (Urea) -->
<g id="node16" class="node">
<title>&#45;3,8 (Urea)</title>
<ellipse fill="none" stroke="black" cx="5063.37" cy="-1892.47" rx="61.19" ry="18"/>
<text text-anchor="middle" x="5063.37" y="-1888.77" font-family="Times,serif" font-size="14.00">&#45;3,8 (Urea)</text>
</g>
<!-- 0,11 ()&#45;&gt;&#45;3,8 (Urea) -->
<g id="edge14" class="edge">
<title>0,11 ()&#45;&gt;&#45;3,8 (Urea)</title>
<path fill="none" stroke="black" stroke-width="0.5" d="M2804.84,-2845.49C3049.2,-2742.38 4722.88,-2036.15 5018.73,-1911.31"/>
<polygon fill="black" stroke="black" stroke-width="0.5" points="5020.42,-1914.39 5028.27,-1907.28 5017.69,-1907.94 5020.42,-1914.39"/>
<text text-anchor="middle" x="3851.28" y="-2382.2" font-family="Times,serif" font-size="14.00">iron&#45;plate*13440</text>
</g>
<!-- 0,11 ()&#45;&gt;7,&#45;2 (item=guts Auog guts) -->
<g id="edge15" class="edge">
<title>0,11 ()&#45;&gt;7,&#45;2 (item=guts Auog guts)</title>
<path fill="none" stroke="black" stroke-width="0.53" d="M2743.67,-2869.96C2500.83,-2962.06 923.33,-3560.33 608.31,-3679.8"/>
<polygon fill="black" stroke="black" stroke-width="0.53" points="607.04,-3676.54 598.93,-3683.36 609.52,-3683.08 607.04,-3676.54"/>
<text text-anchor="middle" x="1615.49" y="-3278.68" font-family="Times,serif" font-size="14.00">iron&#45;plate*14040</text>
</g>
<!-- 0,11 ()&#45;&gt;2,12 (Yet more coke) -->
<g id="edge26" class="edge">
<title>0,11 ()&#45;&gt;2,12 (Yet more coke)</title>
<path fill="none" stroke="black" stroke-width="1.39" d="M2753,-2873.29C2570.43,-2999.31 1311.39,-3868.36 1087.94,-4022.6"/>
<polygon fill="black" stroke="black" stroke-width="1.39" points="1085.78,-4019.83 1079.54,-4028.39 1089.76,-4025.59 1085.78,-4019.83"/>
<text text-anchor="middle" x="1859.97" y="-3451.74" font-family="Times,serif" font-size="14.00">iron&#45;plate*37200</text>
</g>
<!-- 0,9 (Auog Brains) -->
<g id="node19" class="node">
<title>0,9 (Auog Brains)</title>
<ellipse fill="none" stroke="black" cx="5115.57" cy="-2111.02" rx="91.78" ry="18"/>
<text text-anchor="middle" x="5115.57" y="-2107.32" font-family="Times,serif" font-size="14.00">0,9 (Auog Brains)</text>
</g>
<!-- 0,11 ()&#45;&gt;0,9 (Auog Brains) -->
<g id="edge17" class="edge">
<title>0,11 ()&#45;&gt;0,9 (Auog Brains)</title>
<path fill="none" stroke="black" stroke-width="0.29" d="M2808.61,-2847.35C3065.83,-2765.25 4724.66,-2235.79 5057.48,-2129.57"/>
<polygon fill="black" stroke="black" stroke-width="0.29" points="5058.93,-2132.78 5067.39,-2126.4 5056.8,-2126.11 5058.93,-2132.78"/>
<text text-anchor="middle" x="3877.04" y="-2492.26" font-family="Times,serif" font-size="14.00">iron&#45;plate*7680</text>
</g>
<!-- &#45;6,1 (Coke and Coal Dust from Biomass (needs Iron plates)) -->
<g id="node20" class="node">
<title>&#45;6,1 (Coke and Coal Dust from Biomass (needs Iron plates))</title>
<ellipse fill="none" stroke="black" cx="5179.62" cy="-2555.77" rx="285.95" ry="18"/>
<text text-anchor="middle" x="5179.62" y="-2552.07" font-family="Times,serif" font-size="14.00">&#45;6,1 (Coke and Coal Dust from Biomass (needs Iron plates))</text>
</g>
<!-- 0,11 ()&#45;&gt;&#45;6,1 (Coke and Coal Dust from Biomass (needs Iron plates)) -->
<g id="edge18" class="edge">
<title>0,11 ()&#45;&gt;&#45;6,1 (Coke and Coal Dust from Biomass (needs Iron plates))</title>
<path fill="none" stroke="black" stroke-width="2.55" d="M2814.8,-2853.06C3078.1,-2819.96 4575.18,-2631.76 5041.18,-2573.18"/>
<polygon fill="black" stroke="black" stroke-width="2.55" points="5041.84,-2576.62 5051.32,-2571.9 5040.96,-2569.68 5041.84,-2576.62"/>
<text text-anchor="middle" x="3867.49" y="-2716.92" font-family="Times,serif" font-size="14.00">iron&#45;plate*68200</text>
</g>
<!-- 0,11 ()&#45;&gt;3,16 (More Coke) -->
<g id="edge19" class="edge">
<title>0,11 ()&#45;&gt;3,16 (More Coke)</title>
<path fill="none" stroke="black" stroke-width="2.35" d="M2760.12,-2874.93C2639.67,-3010.9 1828.21,-3926.84 1680.71,-4093.34"/>
<polygon fill="black" stroke="black" stroke-width="2.35" points="1677.82,-4091.31 1673.81,-4101.12 1683.06,-4095.96 1677.82,-4091.31"/>
<text text-anchor="middle" x="2159.92" y="-3487.93" font-family="Times,serif" font-size="14.00">iron&#45;plate*62680</text>
</g>
<!-- &#45;1,8 (Fibre via. moss) -->
<g id="node22" class="node">
<title>&#45;1,8 (Fibre via. moss)</title>
<ellipse fill="none" stroke="black" cx="5188.36" cy="-3022.54" rx="109.38" ry="18"/>
<text text-anchor="middle" x="5188.36" y="-3018.84" font-family="Times,serif" font-size="14.00">&#45;1,8 (Fibre via. moss)</text>
</g>
<!-- 0,11 ()&#45;&gt;&#45;1,8 (Fibre via. moss) -->
<g id="edge20" class="edge">
<title>0,11 ()&#45;&gt;&#45;1,8 (Fibre via. moss)</title>
<path fill="none" stroke="black" stroke-width="0.09" d="M2815.7,-2860.82C3087.6,-2879.36 4645.54,-2985.55 5077.39,-3014.98"/>
<polygon fill="black" stroke="black" stroke-width="0.09" points="5077.17,-3018.47 5087.38,-3015.66 5077.64,-3011.49 5077.17,-3018.47"/>
<text text-anchor="middle" x="3890.54" y="-2941.7" font-family="Times,serif" font-size="14.00">iron&#45;plate*2400</text>
</g>
<!-- 4,3 (item=nexelit&#45;plate Nexelit platery) -->
<g id="node23" class="node">
<title>4,3 (item=nexelit&#45;plate Nexelit platery)</title>
<ellipse fill="none" stroke="black" cx="5152.55" cy="-3396.19" rx="194.17" ry="18"/>
<text text-anchor="middle" x="5152.55" y="-3392.49" font-family="Times,serif" font-size="14.00">4,3 (item=nexelit&#45;plate Nexelit platery)</text>
</g>
<!-- 0,11 ()&#45;&gt;4,3 (item=nexelit&#45;plate Nexelit platery) -->
<g id="edge22" class="edge">
<title>0,11 ()&#45;&gt;4,3 (item=nexelit&#45;plate Nexelit platery)</title>
<path fill="none" stroke="black" stroke-width="0.38" d="M2811.94,-2866.4C3076.17,-2926.21 4682.33,-3289.76 5068.92,-3377.26"/>
<polygon fill="black" stroke="black" stroke-width="0.38" points="5068.39,-3380.73 5078.91,-3379.52 5069.93,-3373.9 5068.39,-3380.73"/>
<text text-anchor="middle" x="3879.93" y="-3125.63" font-family="Times,serif" font-size="14.00">iron&#45;plate*10200</text>
</g>
<!-- 0,10 (item=meat Meat) -->
<g id="node24" class="node">
<title>0,10 (item=meat Meat)</title>
<ellipse fill="none" stroke="black" cx="5076.21" cy="-3774.97" rx="120.48" ry="18"/>
<text text-anchor="middle" x="5076.21" y="-3771.27" font-family="Times,serif" font-size="14.00">0,10 (item=meat Meat)</text>
</g>
<!-- 0,11 ()&#45;&gt;0,10 (item=meat Meat) -->
<g id="edge23" class="edge">
<title>0,11 ()&#45;&gt;0,10 (item=meat Meat)</title>
<path fill="none" stroke="black" stroke-width="0.09" d="M2805.43,-2870.15C3050.84,-2967.94 4709.02,-3628.66 5024.45,-3754.35"/>
<polygon fill="black" stroke="black" stroke-width="0.09" points="5023.23,-3757.63 5033.82,-3758.08 5025.82,-3751.13 5023.23,-3757.63"/>
<text text-anchor="middle" x="3858.94" y="-3316.05" font-family="Times,serif" font-size="14.00">iron&#45;plate*2520</text>
</g>
<!-- 0,11 ()&#45;&gt;3,15 (Even Yet More Coke) -->
<g id="edge24" class="edge">
<title>0,11 ()&#45;&gt;3,15 (Even Yet More Coke)</title>
<path fill="none" stroke="black" stroke-width="2.32" d="M2765.78,-2875.76C2701.21,-2998.79 2319.77,-3725.56 2240.66,-3876.28"/>
<polygon fill="black" stroke="black" stroke-width="2.32" points="2237.45,-3874.88 2235.9,-3885.37 2243.64,-3878.14 2237.45,-3874.88"/>
<text text-anchor="middle" x="2442.72" y="-3379.82" font-family="Times,serif" font-size="14.00">iron&#45;plate*62040</text>
</g>
<!-- 4,6 (Circuit substrate and Doped silicon) -->
<g id="node26" class="node">
<title>4,6 (Circuit substrate and Doped silicon)</title>
<ellipse fill="none" stroke="black" cx="4958.84" cy="-4148.55" rx="199.56" ry="18"/>
<text text-anchor="middle" x="4958.84" y="-4144.85" font-family="Times,serif" font-size="14.00">4,6 (Circuit substrate and Doped silicon)</text>
</g>
<!-- 0,11 ()&#45;&gt;4,6 (Circuit substrate and Doped silicon) -->
<g id="edge27" class="edge">
<title>0,11 ()&#45;&gt;4,6 (Circuit substrate and Doped silicon)</title>
<path fill="none" stroke="black" stroke-width="0.08" d="M2799.6,-2872.55C3019.21,-3002.33 4646.05,-3963.71 4919.79,-4125.48"/>
<polygon fill="black" stroke="black" stroke-width="0.08" points="4918.2,-4128.61 4928.59,-4130.68 4921.77,-4122.58 4918.2,-4128.61"/>
<text text-anchor="middle" x="3803.7" y="-3502.81" font-family="Times,serif" font-size="14.00">iron&#45;plate*2040</text>
</g>
<!-- 6,4 (Electronic components) -->
<g id="node27" class="node">
<title>6,4 (Electronic components)</title>
<ellipse fill="none" stroke="black" cx="4792.86" cy="-4526.74" rx="141.88" ry="18"/>
<text text-anchor="middle" x="4792.86" y="-4523.04" font-family="Times,serif" font-size="14.00">6,4 (Electronic components)</text>
</g>
<!-- 0,11 ()&#45;&gt;6,4 (Electronic components) -->
<g id="edge28" class="edge">
<title>0,11 ()&#45;&gt;6,4 (Electronic components)</title>
<path fill="none" stroke="black" stroke-width="0.38" d="M2794.4,-2874.03C2985.22,-3031.84 4529.98,-4309.34 4763.37,-4502.35"/>
<polygon fill="black" stroke="black" stroke-width="0.38" points="4761.18,-4505.08 4771.11,-4508.75 4765.64,-4499.68 4761.18,-4505.08"/>
<text text-anchor="middle" x="3718.38" y="-3691.99" font-family="Times,serif" font-size="14.00">iron&#45;plate*10080</text>
</g>
<!-- 0,11 ()&#45;&gt;&#45;5,0 (item=small&#45;lampitem=petri&#45;dish Lamptri dishes) -->
<g id="edge29" class="edge">
<title>0,11 ()&#45;&gt;&#45;5,0 (item=small&#45;lampitem=petri&#45;dish Lamptri dishes)</title>
<path fill="none" stroke="black" stroke-width="0.24" d="M2770.64,-2876.05C2749.84,-2960.42 2661.94,-3317.06 2636.48,-3420.34"/>
<polygon fill="black" stroke="black" stroke-width="0.24" points="2633.01,-3419.79 2634.02,-3430.33 2639.81,-3421.46 2633.01,-3419.79"/>
<text text-anchor="middle" x="2647.56" y="-3152" font-family="Times,serif" font-size="14.00">iron&#45;plate*6360</text>
</g>
<!-- &#45;3,&#45;3 (Zinc Plates, 32 to consume four belts) -->
<g id="node29" class="node">
<title>&#45;3,&#45;3 (Zinc Plates, 32 to consume four belts)</title>
<ellipse fill="none" stroke="black" cx="4577.75" cy="-4895.92" rx="213.66" ry="18"/>
<text text-anchor="middle" x="4577.75" y="-4892.22" font-family="Times,serif" font-size="14.00">&#45;3,&#45;3 (Zinc Plates, 32 to consume four belts)</text>
</g>
<!-- 0,11 ()&#45;&gt;&#45;3,&#45;3 (Zinc Plates, 32 to consume four belts) -->
<g id="edge30" class="edge">
<title>0,11 ()&#45;&gt;&#45;3,&#45;3 (Zinc Plates, 32 to consume four belts)</title>
<path fill="none" stroke="black" stroke-width="2.49" d="M2790.12,-2875.06C2951.37,-3057.35 4358.56,-4648.13 4555.02,-4870.22"/>
<polygon fill="black" stroke="black" stroke-width="2.49" points="4552.49,-4872.65 4561.74,-4877.82 4557.74,-4868.01 4552.49,-4872.65"/>
<text text-anchor="middle" x="3612.07" y="-3876.44" font-family="Times,serif" font-size="14.00">iron&#45;plate*66600</text>
</g>
<!-- 1,&#45;1 (fluid=molten&#45;glass Glass, When space, make quartz separate with regular priority, Quartz) -->
<g id="node30" class="node">
<title>1,&#45;1 (fluid=molten&#45;glass Glass, When space, make quartz separate with regular priority, Quartz)</title>
<ellipse fill="none" stroke="black" cx="4107.46" cy="-5470.01" rx="457.62" ry="18"/>
<text text-anchor="middle" x="4107.46" y="-5466.31" font-family="Times,serif" font-size="14.00">1,&#45;1 (fluid=molten&#45;glass Glass, When space, make quartz separate with regular priority, Quartz)</text>
</g>
<!-- 0,11 ()&#45;&gt;1,&#45;1 (fluid=molten&#45;glass Glass, When space, make quartz separate with regular priority, Quartz) -->
<g id="edge33" class="edge">
<title>0,11 ()&#45;&gt;1,&#45;1 (fluid=molten&#45;glass Glass, When space, make quartz separate with regular priority, Quartz)</title>
<path fill="none" stroke="black" stroke-width="1.52" d="M2784.11,-2875.77C2893.39,-3089.99 3959.03,-5179.04 4093.53,-5442.71"/>
<polygon fill="black" stroke="black" stroke-width="1.52" points="4090.59,-5444.65 4098.25,-5451.97 4096.82,-5441.47 4090.59,-5444.65"/>
<text text-anchor="middle" x="3378.32" y="-4163.04" font-family="Times,serif" font-size="14.00">iron&#45;plate*40680</text>
</g>
</g>
</svg>
