<?xml version="1.0" encoding="UTF-8" standalone="no"?>
<!DOCTYPE svg PUBLIC "-//W3C//DTD SVG 1.1//EN"
 "http://www.w3.org/Graphics/SVG/1.1/DTD/svg11.dtd">
<!-- Generated by graphviz version 2.43.0 (0)
 -->
<!-- Title: %3 Pages: 1 -->
<svg width="5643pt" height="5434pt"
 viewBox="0.00 0.00 5642.85 5434.45" xmlns="http://www.w3.org/2000/svg" xmlns:xlink="http://www.w3.org/1999/xlink">
<g id="graph0" class="graph" transform="scale(1 1) rotate(0) translate(4 5430.45)">
<title>%3</title>
<polygon fill="white" stroke="transparent" points="-4,4 -4,-5430.45 5638.85,-5430.45 5638.85,4 -4,4"/>
<!-- 7,&#45;6 (Coalier &#39;n&#39; dustier) -->
<g id="node1" class="node">
<title>7,&#45;6 (Coalier &#39;n&#39; dustier)</title>
<ellipse fill="none" stroke="black" cx="5069.69" cy="-3628.91" rx="120.78" ry="18"/>
<text text-anchor="middle" x="5069.69" y="-3625.21" font-family="Times,serif" font-size="14.00">7,&#45;6 (Coalier &#39;n&#39; dustier)</text>
</g>
<!-- 1,7 (Activated Carbon) -->
<g id="node2" class="node">
<title>1,7 (Activated Carbon)</title>
<ellipse fill="none" stroke="black" cx="2446.21" cy="-5143.57" rx="115.88" ry="18"/>
<text text-anchor="middle" x="2446.21" y="-5139.87" font-family="Times,serif" font-size="14.00">1,7 (Activated Carbon)</text>
</g>
<!-- 7,&#45;6 (Coalier &#39;n&#39; dustier)&#45;&gt;1,7 (Activated Carbon) -->
<g id="edge1" class="edge">
<title>7,&#45;6 (Coalier &#39;n&#39; dustier)&#45;&gt;1,7 (Activated Carbon)</title>
<path fill="none" stroke="black" stroke-width="1.9" d="M5039.32,-3646.44C4769.82,-3802.04 2790.5,-4944.8 2485.6,-5120.83"/>
<polygon fill="black" stroke="black" stroke-width="1.9" points="2483.58,-5117.96 2476.67,-5125.99 2487.08,-5124.02 2483.58,-5117.96"/>
<text text-anchor="middle" x="3699.46" y="-4387.44" font-family="Times,serif" font-size="14.00">coal&#45;dust*173360</text>
</g>
<!-- &#45;2,8 (syngas from coal dust and also wood) -->
<g id="node4" class="node">
<title>&#45;2,8 (syngas from coal dust and also wood)</title>
<ellipse fill="none" stroke="black" cx="1427.12" cy="-349.12" rx="208.76" ry="18"/>
<text text-anchor="middle" x="1427.12" y="-345.42" font-family="Times,serif" font-size="14.00">&#45;2,8 (syngas from coal dust and also wood)</text>
</g>
<!-- 7,&#45;6 (Coalier &#39;n&#39; dustier)&#45;&gt;&#45;2,8 (syngas from coal dust and also wood) -->
<g id="edge9" class="edge">
<title>7,&#45;6 (Coalier &#39;n&#39; dustier)&#45;&gt;&#45;2,8 (syngas from coal dust and also wood)</title>
<path fill="none" stroke="black" stroke-width="5.09" d="M5049.65,-3610.86C4775.43,-3363.95 1773.98,-661.43 1454.6,-373.86"/>
<polygon fill="black" stroke="black" stroke-width="5.09" points="1457.55,-370.53 1447.14,-367.15 1451.6,-377.15 1457.55,-370.53"/>
<text text-anchor="middle" x="3189.12" y="-1996.16" font-family="Times,serif" font-size="14.00">coal&#45;dust*464480</text>
</g>
<!-- &#45;3,9 (Silicon Wafers) -->
<g id="node6" class="node">
<title>&#45;3,9 (Silicon Wafers)</title>
<ellipse fill="none" stroke="black" cx="194.98" cy="-3116.55" rx="103.98" ry="18"/>
<text text-anchor="middle" x="194.98" y="-3112.85" font-family="Times,serif" font-size="14.00">&#45;3,9 (Silicon Wafers)</text>
</g>
<!-- 7,&#45;6 (Coalier &#39;n&#39; dustier)&#45;&gt;&#45;3,9 (Silicon Wafers) -->
<g id="edge16" class="edge">
<title>7,&#45;6 (Coalier &#39;n&#39; dustier)&#45;&gt;&#45;3,9 (Silicon Wafers)</title>
<path fill="none" stroke="black" stroke-width="0.3" d="M4970.66,-3618.5C4342.93,-3552.52 923.49,-3193.12 294.45,-3127.01"/>
<polygon fill="black" stroke="black" stroke-width="0.3" points="294.37,-3123.48 284.06,-3125.92 293.64,-3130.44 294.37,-3123.48"/>
<text text-anchor="middle" x="2574.06" y="-3376.55" font-family="Times,serif" font-size="14.00">coal&#45;dust*27840</text>
</g>
<!-- &#45;4,&#45;13 (Carbon activationer) -->
<g id="node7" class="node">
<title>&#45;4,&#45;13 (Carbon activationer)</title>
<ellipse fill="none" stroke="black" cx="5292.48" cy="-2580.79" rx="139.18" ry="18"/>
<text text-anchor="middle" x="5292.48" y="-2577.09" font-family="Times,serif" font-size="14.00">&#45;4,&#45;13 (Carbon activationer)</text>
</g>
<!-- 7,&#45;6 (Coalier &#39;n&#39; dustier)&#45;&gt;&#45;4,&#45;13 (Carbon activationer) -->
<g id="edge21" class="edge">
<title>7,&#45;6 (Coalier &#39;n&#39; dustier)&#45;&gt;&#45;4,&#45;13 (Carbon activationer)</title>
<path fill="none" stroke="black" stroke-width="1.58" d="M5073.56,-3610.72C5099.99,-3486.35 5253.99,-2761.84 5286.47,-2609.06"/>
<polygon fill="black" stroke="black" stroke-width="1.58" points="5289.94,-2609.58 5288.59,-2599.07 5283.09,-2608.12 5289.94,-2609.58"/>
<text text-anchor="middle" x="5117.01" y="-3113.69" font-family="Times,serif" font-size="14.00">coal&#45;dust*144160</text>
</g>
<!-- 5,5 (Silicon) -->
<g id="node13" class="node">
<title>5,5 (Silicon)</title>
<ellipse fill="none" stroke="black" cx="3511.88" cy="-130.01" rx="66.09" ry="18"/>
<text text-anchor="middle" x="3511.88" y="-126.31" font-family="Times,serif" font-size="14.00">5,5 (Silicon)</text>
</g>
<!-- 7,&#45;6 (Coalier &#39;n&#39; dustier)&#45;&gt;5,5 (Silicon) -->
<g id="edge23" class="edge">
<title>7,&#45;6 (Coalier &#39;n&#39; dustier)&#45;&gt;5,5 (Silicon)</title>
<path fill="none" stroke="black" stroke-width="0.12" d="M5061.68,-3610.92C4948.12,-3355.85 3663.06,-469.56 3524.05,-157.34"/>
<polygon fill="black" stroke="black" stroke-width="0.12" points="3527.2,-155.8 3519.93,-148.09 3520.8,-158.65 3527.2,-155.8"/>
<text text-anchor="middle" x="4234.37" y="-1887.93" font-family="Times,serif" font-size="14.00">coal&#45;dust*11040</text>
</g>
<!-- 9,&#45;6 (Coal &#39;n&#39; dust) -->
<g id="node3" class="node">
<title>9,&#45;6 (Coal &#39;n&#39; dust)</title>
<ellipse fill="none" stroke="black" cx="1427.12" cy="-4812.45" rx="95.58" ry="18"/>
<text text-anchor="middle" x="1427.12" y="-4808.75" font-family="Times,serif" font-size="14.00">9,&#45;6 (Coal &#39;n&#39; dust)</text>
</g>
<!-- 9,&#45;6 (Coal &#39;n&#39; dust)&#45;&gt;1,7 (Activated Carbon) -->
<g id="edge10" class="edge">
<title>9,&#45;6 (Coal &#39;n&#39; dust)&#45;&gt;1,7 (Activated Carbon)</title>
<path fill="none" stroke="black" stroke-width="1.47" d="M1475.25,-4828.09C1643.08,-4882.62 2202.28,-5064.31 2386.67,-5124.22"/>
<polygon fill="black" stroke="black" stroke-width="1.47" points="2385.61,-5127.56 2396.2,-5127.32 2387.77,-5120.9 2385.61,-5127.56"/>
<text text-anchor="middle" x="1867.96" y="-4979.96" font-family="Times,serif" font-size="14.00">coal&#45;dust*134080</text>
</g>
<!-- 9,&#45;6 (Coal &#39;n&#39; dust)&#45;&gt;&#45;2,8 (syngas from coal dust and also wood) -->
<g id="edge2" class="edge">
<title>9,&#45;6 (Coal &#39;n&#39; dust)&#45;&gt;&#45;2,8 (syngas from coal dust and also wood)</title>
<path fill="none" stroke="black" stroke-width="5.45" d="M1427.12,-4794C1427.12,-4498.27 1427.12,-742.56 1427.12,-377.6"/>
<polygon fill="black" stroke="black" stroke-width="5.45" points="1431.89,-377.57 1427.12,-367.57 1422.35,-377.57 1431.89,-377.57"/>
<text text-anchor="middle" x="1364.12" y="-2589.6" font-family="Times,serif" font-size="14.00">coal&#45;dust*497840</text>
</g>
<!-- 9,&#45;6 (Coal &#39;n&#39; dust)&#45;&gt;&#45;3,9 (Silicon Wafers) -->
<g id="edge27" class="edge">
<title>9,&#45;6 (Coal &#39;n&#39; dust)&#45;&gt;&#45;3,9 (Silicon Wafers)</title>
<path fill="none" stroke="black" stroke-width="0.17" d="M1414.12,-4794.55C1292.73,-4627.47 359.13,-3342.48 213.94,-3142.64"/>
<polygon fill="black" stroke="black" stroke-width="0.17" points="216.7,-3140.49 207.99,-3134.46 211.03,-3144.6 216.7,-3140.49"/>
<text text-anchor="middle" x="755.53" y="-3972.4" font-family="Times,serif" font-size="14.00">coal&#45;dust*15520</text>
</g>
<!-- 9,&#45;6 (Coal &#39;n&#39; dust)&#45;&gt;&#45;4,&#45;13 (Carbon activationer) -->
<g id="edge4" class="edge">
<title>9,&#45;6 (Coal &#39;n&#39; dust)&#45;&gt;&#45;4,&#45;13 (Carbon activationer)</title>
<path fill="none" stroke="black" stroke-width="1.71" d="M1456.84,-4795.29C1792.61,-4601.44 4868.1,-2825.8 5252.98,-2603.59"/>
<polygon fill="black" stroke="black" stroke-width="1.71" points="5254.92,-2606.51 5261.83,-2598.48 5251.42,-2600.45 5254.92,-2606.51"/>
<text text-anchor="middle" x="3291.91" y="-3703.24" font-family="Times,serif" font-size="14.00">coal&#45;dust*156160</text>
</g>
<!-- 9,&#45;6 (Coal &#39;n&#39; dust)&#45;&gt;5,5 (Silicon) -->
<g id="edge19" class="edge">
<title>9,&#45;6 (Coal &#39;n&#39; dust)&#45;&gt;5,5 (Silicon)</title>
<path fill="none" stroke="black" stroke-width="0.14" d="M1435.31,-4794.07C1570.43,-4490.59 3335.72,-525.67 3499.69,-157.38"/>
<polygon fill="black" stroke="black" stroke-width="0.14" points="3503,-158.55 3503.87,-147.99 3496.61,-155.7 3503,-158.55"/>
<text text-anchor="middle" x="2409" y="-2479.53" font-family="Times,serif" font-size="14.00">coal&#45;dust*12640</text>
</g>
<!-- &#45;5,&#45;1 (Coal and Coke and Syngas and Ash and Coke Oven Gas and...) -->
<g id="node5" class="node">
<title>&#45;5,&#45;1 (Coal and Coke and Syngas and Ash and Coke Oven Gas and...)</title>
<ellipse fill="none" stroke="black" cx="630.82" cy="-4095.45" rx="325.74" ry="18"/>
<text text-anchor="middle" x="630.82" y="-4091.75" font-family="Times,serif" font-size="14.00">&#45;5,&#45;1 (Coal and Coke and Syngas and Ash and Coke Oven Gas and...)</text>
</g>
<!-- &#45;5,&#45;1 (Coal and Coke and Syngas and Ash and Coke Oven Gas and...)&#45;&gt;1,7 (Activated Carbon) -->
<g id="edge13" class="edge">
<title>&#45;5,&#45;1 (Coal and Coke and Syngas and Ash and Coke Oven Gas and...)&#45;&gt;1,7 (Activated Carbon)</title>
<path fill="none" stroke="black" stroke-width="1.38" d="M661.94,-4113.42C879.06,-4238.78 2165.54,-4981.52 2407.12,-5121"/>
<polygon fill="black" stroke="black" stroke-width="1.38" points="2405.51,-5124.11 2415.92,-5126.08 2409.01,-5118.05 2405.51,-5124.11"/>
<text text-anchor="middle" x="1471.53" y="-4621.01" font-family="Times,serif" font-size="14.00">coal&#45;dust*125920</text>
</g>
<!-- &#45;5,&#45;1 (Coal and Coke and Syngas and Ash and Coke Oven Gas and...)&#45;&gt;&#45;2,8 (syngas from coal dust and also wood) -->
<g id="edge7" class="edge">
<title>&#45;5,&#45;1 (Coal and Coke and Syngas and Ash and Coke Oven Gas and...)&#45;&gt;&#45;2,8 (syngas from coal dust and also wood)</title>
<path fill="none" stroke="black" stroke-width="5.58" d="M634.72,-4077.06C691.6,-3809.48 1351.06,-706.98 1421.11,-377.42"/>
<polygon fill="black" stroke="black" stroke-width="5.58" points="1425.96,-378.07 1423.27,-367.27 1416.41,-376.03 1425.96,-378.07"/>
<text text-anchor="middle" x="964.92" y="-2231.04" font-family="Times,serif" font-size="14.00">coal&#45;dust*509600</text>
</g>
<!-- &#45;5,&#45;1 (Coal and Coke and Syngas and Ash and Coke Oven Gas and...)&#45;&gt;&#45;3,9 (Silicon Wafers) -->
<g id="edge3" class="edge">
<title>&#45;5,&#45;1 (Coal and Coke and Syngas and Ash and Coke Oven Gas and...)&#45;&gt;&#45;3,9 (Silicon Wafers)</title>
<path fill="none" stroke="black" stroke-width="0.35" d="M622.69,-4077.2C569.55,-3957.84 271.73,-3288.94 207.28,-3144.18"/>
<polygon fill="black" stroke="black" stroke-width="0.35" points="210.32,-3142.39 203.05,-3134.68 203.92,-3145.24 210.32,-3142.39"/>
<text text-anchor="middle" x="356.49" y="-3614.49" font-family="Times,serif" font-size="14.00">coal&#45;dust*31760</text>
</g>
<!-- &#45;5,&#45;1 (Coal and Coke and Syngas and Ash and Coke Oven Gas and...)&#45;&gt;&#45;4,&#45;13 (Carbon activationer) -->
<g id="edge5" class="edge">
<title>&#45;5,&#45;1 (Coal and Coke and Syngas and Ash and Coke Oven Gas and...)&#45;&gt;&#45;4,&#45;13 (Carbon activationer)</title>
<path fill="none" stroke="black" stroke-width="1.58" d="M685.6,-4077.65C1170.19,-3920.2 4718.5,-2767.28 5230.89,-2600.8"/>
<polygon fill="black" stroke="black" stroke-width="1.58" points="5232.25,-2604.03 5240.68,-2597.62 5230.09,-2597.38 5232.25,-2604.03"/>
<text text-anchor="middle" x="2895.24" y="-3343.03" font-family="Times,serif" font-size="14.00">coal&#45;dust*143840</text>
</g>
<!-- &#45;5,&#45;1 (Coal and Coke and Syngas and Ash and Coke Oven Gas and...)&#45;&gt;5,5 (Silicon) -->
<g id="edge24" class="edge">
<title>&#45;5,&#45;1 (Coal and Coke and Syngas and Ash and Coke Oven Gas and...)&#45;&gt;5,5 (Silicon)</title>
<path fill="none" stroke="black" stroke-width="0.17" d="M643.98,-4077.33C843.71,-3802.42 3252.68,-486.77 3492.65,-156.47"/>
<polygon fill="black" stroke="black" stroke-width="0.17" points="3495.77,-158.13 3498.82,-147.98 3490.11,-154.02 3495.77,-158.13"/>
<text text-anchor="middle" x="2009.82" y="-2120.7" font-family="Times,serif" font-size="14.00">coal&#45;dust*15680</text>
</g>
<!-- 0,0 (LE BUS) -->
<g id="node8" class="node">
<title>0,0 (LE BUS)</title>
<ellipse fill="none" stroke="black" cx="1355.38" cy="-224.85" rx="71.49" ry="18"/>
<text text-anchor="middle" x="1355.38" y="-221.15" font-family="Times,serif" font-size="14.00">0,0 (LE BUS)</text>
</g>
<!-- 0,0 (LE BUS)&#45;&gt;&#45;2,8 (syngas from coal dust and also wood) -->
<g id="edge6" class="edge">
<title>0,0 (LE BUS)&#45;&gt;&#45;2,8 (syngas from coal dust and also wood)</title>
<path fill="none" stroke="black" stroke-width="0.23" d="M1365.81,-242.92C1377.82,-263.72 1397.66,-298.1 1411.51,-322.08"/>
<polygon fill="black" stroke="black" stroke-width="0.23" points="1408.65,-324.12 1416.68,-331.03 1414.71,-320.62 1408.65,-324.12"/>
<text text-anchor="middle" x="1330.16" y="-286.3" font-family="Times,serif" font-size="14.00">coal&#45;dust*21284</text>
</g>
<!-- 2,8 (Graphite) -->
<g id="node9" class="node">
<title>2,8 (Graphite)</title>
<ellipse fill="none" stroke="black" cx="4439.86" cy="-665.77" rx="76.09" ry="18"/>
<text text-anchor="middle" x="4439.86" y="-662.07" font-family="Times,serif" font-size="14.00">2,8 (Graphite)</text>
</g>
<!-- 2,8 (Graphite)&#45;&gt;1,7 (Activated Carbon) -->
<g id="edge12" class="edge">
<title>2,8 (Graphite)&#45;&gt;1,7 (Activated Carbon)</title>
<path fill="none" stroke="black" stroke-width="1.22" d="M4431.83,-683.82C4301.15,-977.31 2617.93,-4757.89 2458.34,-5116.34"/>
<polygon fill="black" stroke="black" stroke-width="1.22" points="2455.13,-5114.94 2454.26,-5125.5 2461.53,-5117.79 2455.13,-5114.94"/>
<text text-anchor="middle" x="3382.08" y="-2903.88" font-family="Times,serif" font-size="14.00">coal&#45;dust*111200</text>
</g>
<!-- 2,8 (Graphite)&#45;&gt;&#45;2,8 (syngas from coal dust and also wood) -->
<g id="edge14" class="edge">
<title>2,8 (Graphite)&#45;&gt;&#45;2,8 (syngas from coal dust and also wood)</title>
<path fill="none" stroke="black" stroke-width="3.58" d="M4370.19,-658.45C3984.09,-617.87 2105.17,-420.39 1569.76,-364.12"/>
<polygon fill="black" stroke="black" stroke-width="3.58" points="1569.98,-360.62 1559.67,-363.05 1569.25,-367.58 1569.98,-360.62"/>
<text text-anchor="middle" x="2906.98" y="-515.08" font-family="Times,serif" font-size="14.00">coal&#45;dust*326560</text>
</g>
<!-- 2,8 (Graphite)&#45;&gt;&#45;4,&#45;13 (Carbon activationer) -->
<g id="edge8" class="edge">
<title>2,8 (Graphite)&#45;&gt;&#45;4,&#45;13 (Carbon activationer)</title>
<path fill="none" stroke="black" stroke-width="1.25" d="M4447.89,-683.81C4528.02,-863.79 5182.89,-2334.64 5280.36,-2553.58"/>
<polygon fill="black" stroke="black" stroke-width="1.25" points="5277.19,-2555.06 5284.46,-2562.78 5283.59,-2552.22 5277.19,-2555.06"/>
<text text-anchor="middle" x="4801.13" y="-1622.49" font-family="Times,serif" font-size="14.00">coal&#45;dust*114000</text>
</g>
<!-- 2,8 (Graphite)&#45;&gt;5,5 (Silicon) -->
<g id="edge39" class="edge">
<title>2,8 (Graphite)&#45;&gt;5,5 (Silicon)</title>
<path fill="none" stroke="black" stroke-width="0.06" d="M4410.81,-649C4274.89,-570.53 3701.89,-239.71 3549.33,-151.63"/>
<polygon fill="black" stroke="black" stroke-width="0.06" points="3550.72,-148.39 3540.31,-146.42 3547.22,-154.45 3550.72,-148.39"/>
<text text-anchor="middle" x="3926.07" y="-404.11" font-family="Times,serif" font-size="14.00">coal&#45;dust*5600</text>
</g>
<!-- &#45;7,5 () -->
<g id="node10" class="node">
<title>&#45;7,5 ()</title>
<ellipse fill="none" stroke="black" cx="5069.69" cy="-1532.67" rx="38.19" ry="18"/>
<text text-anchor="middle" x="5069.69" y="-1528.97" font-family="Times,serif" font-size="14.00">&#45;7,5 ()</text>
</g>
<!-- &#45;7,5 ()&#45;&gt;1,7 (Activated Carbon) -->
<g id="edge11" class="edge">
<title>&#45;7,5 ()&#45;&gt;1,7 (Activated Carbon)</title>
<path fill="none" stroke="black" stroke-width="0.32" d="M5057.11,-1549.98C4871.6,-1805.32 2692.84,-4804.13 2465.38,-5117.19"/>
<polygon fill="black" stroke="black" stroke-width="0.32" points="2462.27,-5115.52 2459.22,-5125.67 2467.93,-5119.63 2462.27,-5115.52"/>
<text text-anchor="middle" x="3702.75" y="-3337.39" font-family="Times,serif" font-size="14.00">coal&#45;dust*29360</text>
</g>
<!-- &#45;7,5 ()&#45;&gt;&#45;2,8 (syngas from coal dust and also wood) -->
<g id="edge15" class="edge">
<title>&#45;7,5 ()&#45;&gt;&#45;2,8 (syngas from coal dust and also wood)</title>
<path fill="none" stroke="black" stroke-width="0.48" d="M5037.93,-1522.34C4710.06,-1415.81 1945.4,-517.52 1490.39,-369.68"/>
<polygon fill="black" stroke="black" stroke-width="0.48" points="1491.29,-366.29 1480.7,-366.53 1489.13,-372.95 1491.29,-366.29"/>
<text text-anchor="middle" x="3205.66" y="-949.81" font-family="Times,serif" font-size="14.00">coal&#45;dust*44240</text>
</g>
<!-- &#45;7,5 ()&#45;&gt;&#45;3,9 (Silicon Wafers) -->
<g id="edge36" class="edge">
<title>&#45;7,5 ()&#45;&gt;&#45;3,9 (Silicon Wafers)</title>
<path fill="none" stroke="black" stroke-width="0.04" d="M5037.92,-1542.99C4647.34,-1669.89 777.83,-2927.18 253.64,-3097.49"/>
<polygon fill="black" stroke="black" stroke-width="0.04" points="252.44,-3094.21 244.01,-3100.63 254.6,-3100.86 252.44,-3094.21"/>
<text text-anchor="middle" x="2591.78" y="-2324.04" font-family="Times,serif" font-size="14.00">coal&#45;dust*3760</text>
</g>
<!-- &#45;7,5 ()&#45;&gt;&#45;4,&#45;13 (Carbon activationer) -->
<g id="edge25" class="edge">
<title>&#45;7,5 ()&#45;&gt;&#45;4,&#45;13 (Carbon activationer)</title>
<path fill="none" stroke="black" stroke-width="0.23" d="M5073.56,-1550.86C5099.99,-1675.23 5253.99,-2399.73 5286.47,-2552.51"/>
<polygon fill="black" stroke="black" stroke-width="0.23" points="5283.09,-2553.45 5288.59,-2562.5 5289.94,-2552 5283.09,-2553.45"/>
<text text-anchor="middle" x="5121.51" y="-2055.48" font-family="Times,serif" font-size="14.00">coal&#45;dust*21440</text>
</g>
<!-- &#45;7,5 ()&#45;&gt;5,5 (Silicon) -->
<g id="edge35" class="edge">
<title>&#45;7,5 ()&#45;&gt;5,5 (Silicon)</title>
<path fill="none" stroke="black" stroke-width="0.03" d="M5051.93,-1516.67C4894.01,-1374.48 3731.9,-328.11 3538.98,-154.41"/>
<polygon fill="black" stroke="black" stroke-width="0.03" points="3541.05,-151.56 3531.28,-147.47 3536.37,-156.76 3541.05,-151.56"/>
<text text-anchor="middle" x="4241.46" y="-839.34" font-family="Times,serif" font-size="14.00">coal&#45;dust*2640</text>
</g>
<!-- 4,14 (A Coal mine, Coke oven gas wasted by venting, Coke direct from mine, A Coal mine?, A Coal mine?!) -->
<g id="node11" class="node">
<title>4,14 (A Coal mine, Coke oven gas wasted by venting, Coke direct from mine, A Coal mine?, A Coal mine?!)</title>
<ellipse fill="none" stroke="black" cx="3511.88" cy="-5031.57" rx="503.91" ry="18"/>
<text text-anchor="middle" x="3511.88" y="-5027.87" font-family="Times,serif" font-size="14.00">4,14 (A Coal mine, Coke oven gas wasted by venting, Coke direct from mine, A Coal mine?, A Coal mine?!)</text>
</g>
<!-- 4,14 (A Coal mine, Coke oven gas wasted by venting, Coke direct from mine, A Coal mine?, A Coal mine?!)&#45;&gt;1,7 (Activated Carbon) -->
<g id="edge17" class="edge">
<title>4,14 (A Coal mine, Coke oven gas wasted by venting, Coke direct from mine, A Coal mine?, A Coal mine?!)&#45;&gt;1,7 (Activated Carbon)</title>
<path fill="none" stroke="black" stroke-width="0.17" d="M3349.45,-5048.64C3128.46,-5071.87 2739.24,-5112.77 2552.29,-5132.42"/>
<polygon fill="black" stroke="black" stroke-width="0.17" points="2551.76,-5128.96 2542.18,-5133.49 2552.49,-5135.92 2551.76,-5128.96"/>
<text text-anchor="middle" x="2892.37" y="-5094.33" font-family="Times,serif" font-size="14.00">coal&#45;dust*15696</text>
</g>
<!-- 4,14 (A Coal mine, Coke oven gas wasted by venting, Coke direct from mine, A Coal mine?, A Coal mine?!)&#45;&gt;&#45;2,8 (syngas from coal dust and also wood) -->
<g id="edge29" class="edge">
<title>4,14 (A Coal mine, Coke oven gas wasted by venting, Coke direct from mine, A Coal mine?, A Coal mine?!)&#45;&gt;&#45;2,8 (syngas from coal dust and also wood)</title>
<path fill="none" stroke="black" stroke-width="0.55" d="M3503.7,-5013.19C3368.61,-4709.78 1604.21,-746.86 1439.44,-376.79"/>
<polygon fill="black" stroke="black" stroke-width="0.55" points="1442.6,-375.28 1435.34,-367.57 1436.21,-378.13 1442.6,-375.28"/>
<text text-anchor="middle" x="2413.07" y="-2698.79" font-family="Times,serif" font-size="14.00">coal&#45;dust*50560</text>
</g>
<!-- 4,14 (A Coal mine, Coke oven gas wasted by venting, Coke direct from mine, A Coal mine?, A Coal mine?!)&#45;&gt;&#45;4,&#45;13 (Carbon activationer) -->
<g id="edge28" class="edge">
<title>4,14 (A Coal mine, Coke oven gas wasted by venting, Coke direct from mine, A Coal mine?, A Coal mine?!)&#45;&gt;&#45;4,&#45;13 (Carbon activationer)</title>
<path fill="none" stroke="black" stroke-width="0.08" d="M3525.19,-5013.25C3677.65,-4803.4 5092.06,-2856.63 5273.38,-2607.08"/>
<polygon fill="black" stroke="black" stroke-width="0.08" points="5276.26,-2609.07 5279.3,-2598.92 5270.59,-2604.95 5276.26,-2609.07"/>
<text text-anchor="middle" x="4345.28" y="-3813.96" font-family="Times,serif" font-size="14.00">coal&#45;dust*7376</text>
</g>
<!-- 3,&#45;2 (Steam for tin, Coke from raw coal) -->
<g id="node12" class="node">
<title>3,&#45;2 (Steam for tin, Coke from raw coal)</title>
<ellipse fill="none" stroke="black" cx="194.98" cy="-2045.02" rx="194.97" ry="18"/>
<text text-anchor="middle" x="194.98" y="-2041.32" font-family="Times,serif" font-size="14.00">3,&#45;2 (Steam for tin, Coke from raw coal)</text>
</g>
<!-- 3,&#45;2 (Steam for tin, Coke from raw coal)&#45;&gt;1,7 (Activated Carbon) -->
<g id="edge38" class="edge">
<title>3,&#45;2 (Steam for tin, Coke from raw coal)&#45;&gt;1,7 (Activated Carbon)</title>
<path fill="none" stroke="black" stroke-width="0.14" d="M208.2,-2063.21C382.25,-2302.77 2219.56,-4831.6 2427.16,-5117.34"/>
<polygon fill="black" stroke="black" stroke-width="0.14" points="2424.37,-5119.46 2433.08,-5125.5 2430.04,-5115.35 2424.37,-5119.46"/>
<text text-anchor="middle" x="1259.18" y="-3594.08" font-family="Times,serif" font-size="14.00">coal&#45;dust*12640</text>
</g>
<!-- 3,&#45;2 (Steam for tin, Coke from raw coal)&#45;&gt;&#45;2,8 (syngas from coal dust and also wood) -->
<g id="edge18" class="edge">
<title>3,&#45;2 (Steam for tin, Coke from raw coal)&#45;&gt;&#45;2,8 (syngas from coal dust and also wood)</title>
<path fill="none" stroke="black" stroke-width="1.38" d="M208.19,-2026.84C330.37,-1858.67 1262.17,-576.17 1407.96,-375.5"/>
<polygon fill="black" stroke="black" stroke-width="1.38" points="1410.89,-377.42 1413.94,-367.27 1405.23,-373.3 1410.89,-377.42"/>
<text text-anchor="middle" x="745.08" y="-1204.97" font-family="Times,serif" font-size="14.00">coal&#45;dust*125840</text>
</g>
<!-- 3,&#45;2 (Steam for tin, Coke from raw coal)&#45;&gt;&#45;3,9 (Silicon Wafers) -->
<g id="edge37" class="edge">
<title>3,&#45;2 (Steam for tin, Coke from raw coal)&#45;&gt;&#45;3,9 (Silicon Wafers)</title>
<path fill="none" stroke="black" stroke-width="0.28" d="M194.98,-2063.17C194.98,-2189.13 194.98,-2932.67 194.98,-3088.09"/>
<polygon fill="black" stroke="black" stroke-width="0.28" points="191.48,-3088.24 194.98,-3098.24 198.48,-3088.24 191.48,-3088.24"/>
<text text-anchor="middle" x="136.48" y="-2579.43" font-family="Times,serif" font-size="14.00">coal&#45;dust*25200</text>
</g>
<!-- 8,&#45;9 (Coke from raw coal duplicacte) -->
<g id="node14" class="node">
<title>8,&#45;9 (Coke from raw coal duplicacte)</title>
<ellipse fill="none" stroke="black" cx="4439.86" cy="-4495.8" rx="178.97" ry="18"/>
<text text-anchor="middle" x="4439.86" y="-4492.1" font-family="Times,serif" font-size="14.00">8,&#45;9 (Coke from raw coal duplicacte)</text>
</g>
<!-- 8,&#45;9 (Coke from raw coal duplicacte)&#45;&gt;1,7 (Activated Carbon) -->
<g id="edge30" class="edge">
<title>8,&#45;9 (Coke from raw coal duplicacte)&#45;&gt;1,7 (Activated Carbon)</title>
<path fill="none" stroke="black" stroke-width="0.53" d="M4386.79,-4513.04C4106.77,-4604.03 2802.57,-5027.79 2506.23,-5124.07"/>
<polygon fill="black" stroke="black" stroke-width="0.53" points="2504.95,-5120.81 2496.52,-5127.23 2507.11,-5127.47 2504.95,-5120.81"/>
<text text-anchor="middle" x="3388.01" y="-4822.36" font-family="Times,serif" font-size="14.00">coal&#45;dust*48480</text>
</g>
<!-- 8,&#45;9 (Coke from raw coal duplicacte)&#45;&gt;&#45;2,8 (syngas from coal dust and also wood) -->
<g id="edge20" class="edge">
<title>8,&#45;9 (Coke from raw coal duplicacte)&#45;&gt;&#45;2,8 (syngas from coal dust and also wood)</title>
<path fill="none" stroke="black" stroke-width="1.1" d="M4426.76,-4477.76C4222.43,-4196.54 1693.65,-715.97 1446.52,-375.82"/>
<polygon fill="black" stroke="black" stroke-width="1.1" points="1449.2,-373.55 1440.49,-367.52 1443.53,-377.67 1449.2,-373.55"/>
<text text-anchor="middle" x="2873.64" y="-2430.59" font-family="Times,serif" font-size="14.00">coal&#45;dust*100640</text>
</g>
<!-- 8,&#45;9 (Coke from raw coal duplicacte)&#45;&gt;&#45;4,&#45;13 (Carbon activationer) -->
<g id="edge40" class="edge">
<title>8,&#45;9 (Coke from raw coal duplicacte)&#45;&gt;&#45;4,&#45;13 (Carbon activationer)</title>
<path fill="none" stroke="black" stroke-width="0.26" d="M4447.89,-4477.76C4528.02,-4297.79 5182.89,-2826.93 5280.36,-2608"/>
<polygon fill="black" stroke="black" stroke-width="0.26" points="5283.59,-2609.36 5284.46,-2598.8 5277.19,-2606.51 5283.59,-2609.36"/>
<text text-anchor="middle" x="4805.63" y="-3546.68" font-family="Times,serif" font-size="14.00">coal&#45;dust*23440</text>
</g>
<!-- &#45;6,1 (Coke and Coal Dust from Biomass (needs Iron plates)) -->
<g id="node15" class="node">
<title>&#45;6,1 (Coke and Coal Dust from Biomass (needs Iron plates))</title>
<ellipse fill="none" stroke="black" cx="2446.21" cy="-18" rx="285.95" ry="18"/>
<text text-anchor="middle" x="2446.21" y="-14.3" font-family="Times,serif" font-size="14.00">&#45;6,1 (Coke and Coal Dust from Biomass (needs Iron plates))</text>
</g>
<!-- &#45;6,1 (Coke and Coal Dust from Biomass (needs Iron plates))&#45;&gt;1,7 (Activated Carbon) -->
<g id="edge22" class="edge">
<title>&#45;6,1 (Coke and Coal Dust from Biomass (needs Iron plates))&#45;&gt;1,7 (Activated Carbon)</title>
<path fill="none" stroke="black" stroke-width="0.13" d="M2446.21,-36.05C2446.21,-352.22 2446.21,-4719.86 2446.21,-5115.01"/>
<polygon fill="black" stroke="black" stroke-width="0.13" points="2442.71,-5115.3 2446.21,-5125.3 2449.71,-5115.3 2442.71,-5115.3"/>
<text text-anchor="middle" x="2387.71" y="-2579.33" font-family="Times,serif" font-size="14.00">coal&#45;dust*12080</text>
</g>
<!-- &#45;6,1 (Coke and Coal Dust from Biomass (needs Iron plates))&#45;&gt;&#45;2,8 (syngas from coal dust and also wood) -->
<g id="edge33" class="edge">
<title>&#45;6,1 (Coke and Coal Dust from Biomass (needs Iron plates))&#45;&gt;&#45;2,8 (syngas from coal dust and also wood)</title>
<path fill="none" stroke="black" stroke-width="0.27" d="M2391.78,-35.69C2217.85,-92.2 1676.02,-268.25 1490.32,-328.59"/>
<polygon fill="black" stroke="black" stroke-width="0.27" points="1489.13,-325.3 1480.7,-331.72 1491.29,-331.95 1489.13,-325.3"/>
<text text-anchor="middle" x="1882.55" y="-185.94" font-family="Times,serif" font-size="14.00">coal&#45;dust*25040</text>
</g>
<!-- 3,16 (More Coke) -->
<g id="node16" class="node">
<title>3,16 (More Coke)</title>
<ellipse fill="none" stroke="black" cx="630.82" cy="-1066.12" rx="90.98" ry="18"/>
<text text-anchor="middle" x="630.82" y="-1062.42" font-family="Times,serif" font-size="14.00">3,16 (More Coke)</text>
</g>
<!-- 3,16 (More Coke)&#45;&gt;1,7 (Activated Carbon) -->
<g id="edge26" class="edge">
<title>3,16 (More Coke)&#45;&gt;1,7 (Activated Carbon)</title>
<path fill="none" stroke="black" stroke-width="0.08" d="M638.91,-1084.3C763.34,-1363.77 2282.77,-4776.48 2434.09,-5116.35"/>
<polygon fill="black" stroke="black" stroke-width="0.08" points="2430.9,-5117.79 2438.17,-5125.5 2437.3,-5114.94 2430.9,-5117.79"/>
<text text-anchor="middle" x="1482.5" y="-3104.12" font-family="Times,serif" font-size="14.00">coal&#45;dust*7760</text>
</g>
<!-- 3,16 (More Coke)&#45;&gt;&#45;2,8 (syngas from coal dust and also wood) -->
<g id="edge32" class="edge">
<title>3,16 (More Coke)&#45;&gt;&#45;2,8 (syngas from coal dust and also wood)</title>
<path fill="none" stroke="black" stroke-width="0.27" d="M650.5,-1048.4C757.95,-951.65 1273.42,-487.52 1399.33,-374.15"/>
<polygon fill="black" stroke="black" stroke-width="0.27" points="1401.96,-376.49 1407.05,-367.19 1397.28,-371.28 1401.96,-376.49"/>
<text text-anchor="middle" x="966.42" y="-715.07" font-family="Times,serif" font-size="14.00">coal&#45;dust*25040</text>
</g>
<!-- 3,15 (Even Yet More Coke) -->
<g id="node17" class="node">
<title>3,15 (Even Yet More Coke)</title>
<ellipse fill="none" stroke="black" cx="5499.67" cy="-2580.79" rx="135.38" ry="18"/>
<text text-anchor="middle" x="5499.67" y="-2577.09" font-family="Times,serif" font-size="14.00">3,15 (Even Yet More Coke)</text>
</g>
<!-- 3,15 (Even Yet More Coke)&#45;&gt;&#45;4,&#45;13 (Carbon activationer) -->
<g id="edge31" class="edge">
<title>3,15 (Even Yet More Coke)&#45;&gt;&#45;4,&#45;13 (Carbon activationer)</title>
<path fill="none" stroke="black" stroke-width="0.23" d="M5364.36,-2580.79C5364.28,-2580.79 5364.21,-2580.79 5364.13,-2580.79"/>
<polygon fill="black" stroke="black" stroke-width="0.23" points="5373.9,-2577.29 5363.9,-2580.79 5373.9,-2584.29 5373.9,-2577.29"/>
<text text-anchor="middle" x="5305.74" y="-2584.59" font-family="Times,serif" font-size="14.00">coal&#45;dust*20960</text>
</g>
<!-- 4,3 (item=nexelit&#45;plate Nexelit platery) -->
<g id="node18" class="node">
<title>4,3 (item=nexelit&#45;plate Nexelit platery)</title>
<ellipse fill="none" stroke="black" cx="2418.38" cy="-5408.45" rx="194.17" ry="18"/>
<text text-anchor="middle" x="2418.38" y="-5404.75" font-family="Times,serif" font-size="14.00">4,3 (item=nexelit&#45;plate Nexelit platery)</text>
</g>
<!-- 4,3 (item=nexelit&#45;plate Nexelit platery)&#45;&gt;1,7 (Activated Carbon) -->
<g id="edge34" class="edge">
<title>4,3 (item=nexelit&#45;plate Nexelit platery)&#45;&gt;1,7 (Activated Carbon)</title>
<path fill="none" stroke="black" stroke-width="0.08" d="M2420.29,-5390.24C2425.06,-5344.88 2437.49,-5226.54 2443.23,-5171.94"/>
<polygon fill="black" stroke="black" stroke-width="0.08" points="2446.72,-5172.22 2444.29,-5161.91 2439.76,-5171.49 2446.72,-5172.22"/>
<text text-anchor="middle" x="2377.76" y="-5284.89" font-family="Times,serif" font-size="14.00">coal&#45;dust*7504</text>
</g>
</g>
</svg>
