<?xml version="1.0" encoding="UTF-8" standalone="no"?>
<!DOCTYPE svg PUBLIC "-//W3C//DTD SVG 1.1//EN"
 "http://www.w3.org/Graphics/SVG/1.1/DTD/svg11.dtd">
<!-- Generated by graphviz version 2.43.0 (0)
 -->
<!-- Title: %3 Pages: 1 -->
<svg width="732pt" height="669pt"
 viewBox="0.00 0.00 731.68 668.92" xmlns="http://www.w3.org/2000/svg" xmlns:xlink="http://www.w3.org/1999/xlink">
<g id="graph0" class="graph" transform="scale(1 1) rotate(0) translate(4 664.92)">
<title>%3</title>
<polygon fill="white" stroke="transparent" points="-4,4 -4,-664.92 727.68,-664.92 727.68,4 -4,4"/>
<!-- 2,10 (Nickel plate and Nichrome) -->
<g id="node1" class="node">
<title>2,10 (Nickel plate and Nichrome)</title>
<ellipse fill="none" stroke="black" cx="306.56" cy="-319.4" rx="165.17" ry="18"/>
<text text-anchor="middle" x="306.56" y="-315.7" font-family="Times,serif" font-size="14.00">2,10 (Nickel plate and Nichrome)</text>
</g>
<!-- 4,&#45;1 (Fluid) -->
<g id="node2" class="node">
<title>4,&#45;1 (Fluid)</title>
<ellipse fill="none" stroke="black" cx="661.94" cy="-319.4" rx="61.99" ry="18"/>
<text text-anchor="middle" x="661.94" y="-315.7" font-family="Times,serif" font-size="14.00">4,&#45;1 (Fluid)</text>
</g>
<!-- 2,10 (Nickel plate and Nichrome)&#45;&gt;4,&#45;1 (Fluid) -->
<g id="edge1" class="edge">
<title>2,10 (Nickel plate and Nichrome)&#45;&gt;4,&#45;1 (Fluid)</title>
<path fill="none" stroke="black" stroke-width="0.39" d="M471.76,-319.4C513.16,-319.4 555.46,-319.4 589.63,-319.4"/>
<polygon fill="black" stroke="black" stroke-width="0.39" points="589.96,-322.9 599.96,-319.4 589.96,-315.9 589.96,-322.9"/>
<text text-anchor="middle" x="530.7" y="-308.2" font-family="Times,serif" font-size="14.00">nickel&#45;plate*24000</text>
</g>
<!-- 0,0 (LE BUS) -->
<g id="node3" class="node">
<title>0,0 (LE BUS)</title>
<ellipse fill="none" stroke="black" cx="159.49" cy="-642.92" rx="71.49" ry="18"/>
<text text-anchor="middle" x="159.49" y="-639.22" font-family="Times,serif" font-size="14.00">0,0 (LE BUS)</text>
</g>
<!-- 2,10 (Nickel plate and Nichrome)&#45;&gt;0,0 (LE BUS) -->
<g id="edge2" class="edge">
<title>2,10 (Nickel plate and Nichrome)&#45;&gt;0,0 (LE BUS)</title>
<path fill="none" stroke="black" stroke-width="2.11" d="M298.23,-337.73C273.61,-391.89 201.07,-551.47 171.87,-615.69"/>
<polygon fill="black" stroke="black" stroke-width="2.11" points="168.68,-614.25 167.73,-624.8 175.06,-617.15 168.68,-614.25"/>
<text text-anchor="middle" x="163.05" y="-480.51" font-family="Times,serif" font-size="14.00">nickel&#45;plate*129600</text>
</g>
<!-- 9,0 (Iron / Nickel mine) -->
<g id="node4" class="node">
<title>9,0 (Iron / Nickel mine)</title>
<ellipse fill="none" stroke="black" cx="118.29" cy="-18" rx="118.08" ry="18"/>
<text text-anchor="middle" x="118.29" y="-14.3" font-family="Times,serif" font-size="14.00">9,0 (Iron / Nickel mine)</text>
</g>
<!-- 2,10 (Nickel plate and Nichrome)&#45;&gt;9,0 (Iron / Nickel mine) -->
<g id="edge3" class="edge">
<title>2,10 (Nickel plate and Nichrome)&#45;&gt;9,0 (Iron / Nickel mine)</title>
<path fill="none" stroke="black" stroke-width="0.49" d="M295.07,-301C263.02,-249.7 172.57,-104.9 134.99,-44.73"/>
<polygon fill="black" stroke="black" stroke-width="0.49" points="137.9,-42.79 129.63,-36.16 131.96,-46.5 137.9,-42.79"/>
<text text-anchor="middle" x="147.53" y="-176.67" font-family="Times,serif" font-size="14.00">nickel&#45;plate*30240</text>
</g>
</g>
</svg>
