<?xml version="1.0" encoding="UTF-8" standalone="no"?>
<!DOCTYPE svg PUBLIC "-//W3C//DTD SVG 1.1//EN"
 "http://www.w3.org/Graphics/SVG/1.1/DTD/svg11.dtd">
<!-- Generated by graphviz version 2.43.0 (0)
 -->
<!-- Title: %3 Pages: 1 -->
<svg width="2279pt" height="965pt"
 viewBox="0.00 0.00 2279.30 964.86" xmlns="http://www.w3.org/2000/svg" xmlns:xlink="http://www.w3.org/1999/xlink">
<g id="graph0" class="graph" transform="scale(1 1) rotate(0) translate(4 960.86)">
<title>%3</title>
<polygon fill="white" stroke="transparent" points="-4,4 -4,-960.86 2275.3,-960.86 2275.3,4 -4,4"/>
<!-- 8,&#45;1 () -->
<g id="node1" class="node">
<title>8,&#45;1 ()</title>
<ellipse fill="none" stroke="black" cx="786.05" cy="-938.86" rx="38.19" ry="18"/>
<text text-anchor="middle" x="786.05" y="-935.16" font-family="Times,serif" font-size="14.00">8,&#45;1 ()</text>
</g>
<!-- 2,8 (Graphite) -->
<g id="node2" class="node">
<title>2,8 (Graphite)</title>
<ellipse fill="none" stroke="black" cx="1246.48" cy="-478.43" rx="76.09" ry="18"/>
<text text-anchor="middle" x="1246.48" y="-474.73" font-family="Times,serif" font-size="14.00">2,8 (Graphite)</text>
</g>
<!-- 8,&#45;1 ()&#45;&gt;2,8 (Graphite) -->
<g id="edge1" class="edge">
<title>8,&#45;1 ()&#45;&gt;2,8 (Graphite)</title>
<path fill="none" stroke="black" stroke-width="0.62" d="M802.44,-922.47C871.34,-853.57 1137.86,-587.05 1221.33,-503.58"/>
<polygon fill="black" stroke="black" stroke-width="0.62" points="1224.23,-505.63 1228.83,-496.08 1219.28,-500.68 1224.23,-505.63"/>
<text text-anchor="middle" x="955.89" y="-716.83" font-family="Times,serif" font-size="14.00">raw&#45;coal*87504</text>
</g>
<!-- &#45;5,&#45;1 (Coal and Coke and Syngas and Ash and Coke Oven Gas and...) -->
<g id="node4" class="node">
<title>&#45;5,&#45;1 (Coal and Coke and Syngas and Ash and Coke Oven Gas and...)</title>
<ellipse fill="none" stroke="black" cx="325.62" cy="-478.43" rx="325.74" ry="18"/>
<text text-anchor="middle" x="325.62" y="-474.73" font-family="Times,serif" font-size="14.00">&#45;5,&#45;1 (Coal and Coke and Syngas and Ash and Coke Oven Gas and...)</text>
</g>
<!-- 8,&#45;1 ()&#45;&gt;&#45;5,&#45;1 (Coal and Coke and Syngas and Ash and Coke Oven Gas and...) -->
<g id="edge3" class="edge">
<title>8,&#45;1 ()&#45;&gt;&#45;5,&#45;1 (Coal and Coke and Syngas and Ash and Coke Oven Gas and...)</title>
<path fill="none" stroke="black" stroke-width="1.62" d="M769.66,-922.47C700.85,-853.65 434.91,-587.72 351.08,-503.89"/>
<polygon fill="black" stroke="black" stroke-width="1.62" points="353.32,-501.18 343.77,-496.58 348.37,-506.13 353.32,-501.18"/>
<text text-anchor="middle" x="499.87" y="-716.98" font-family="Times,serif" font-size="14.00">raw&#45;coal*229296</text>
</g>
<!-- 6,&#45;3 (Mine Me) -->
<g id="node3" class="node">
<title>6,&#45;3 (Mine Me)</title>
<ellipse fill="none" stroke="black" cx="786.05" cy="-18" rx="79.09" ry="18"/>
<text text-anchor="middle" x="786.05" y="-14.3" font-family="Times,serif" font-size="14.00">6,&#45;3 (Mine Me)</text>
</g>
<!-- 6,&#45;3 (Mine Me)&#45;&gt;2,8 (Graphite) -->
<g id="edge2" class="edge">
<title>6,&#45;3 (Mine Me)&#45;&gt;2,8 (Graphite)</title>
<path fill="none" stroke="black" stroke-width="2.19" d="M803.82,-35.77C874.82,-106.77 1138.37,-370.32 1221.32,-453.26"/>
<polygon fill="black" stroke="black" stroke-width="2.19" points="1219.22,-456.12 1228.77,-460.72 1224.17,-451.17 1219.22,-456.12"/>
<text text-anchor="middle" x="952.07" y="-248.32" font-family="Times,serif" font-size="14.00">raw&#45;coal*309600</text>
</g>
<!-- 6,&#45;3 (Mine Me)&#45;&gt;&#45;5,&#45;1 (Coal and Coke and Syngas and Ash and Coke Oven Gas and...) -->
<g id="edge5" class="edge">
<title>6,&#45;3 (Mine Me)&#45;&gt;&#45;5,&#45;1 (Coal and Coke and Syngas and Ash and Coke Oven Gas and...)</title>
<path fill="none" stroke="black" stroke-width="0.54" d="M768.28,-35.77C697.44,-106.61 434.92,-369.13 351.35,-452.7"/>
<polygon fill="black" stroke="black" stroke-width="0.54" points="348.43,-450.67 343.83,-460.22 353.38,-455.62 348.43,-450.67"/>
<text text-anchor="middle" x="503.82" y="-248.03" font-family="Times,serif" font-size="14.00">raw&#45;coal*76032</text>
</g>
<!-- &#45;6,6 (coal pickup train station, item=ore&#45;chromium The loneliest chromium, titanium pickup station) -->
<g id="node5" class="node">
<title>&#45;6,6 (coal pickup train station, item=ore&#45;chromium The loneliest chromium, titanium pickup station)</title>
<ellipse fill="none" stroke="black" cx="1794.89" cy="-478.43" rx="476.32" ry="18"/>
<text text-anchor="middle" x="1794.89" y="-474.73" font-family="Times,serif" font-size="14.00">&#45;6,6 (coal pickup train station, item=ore&#45;chromium The loneliest chromium, titanium pickup station)</text>
</g>
<!-- &#45;6,6 (coal pickup train station, item=ore&#45;chromium The loneliest chromium, titanium pickup station)&#45;&gt;2,8 (Graphite) -->
<g id="edge4" class="edge">
<title>&#45;6,6 (coal pickup train station, item=ore&#45;chromium The loneliest chromium, titanium pickup station)&#45;&gt;2,8 (Graphite)</title>
<path fill="none" stroke="black" stroke-width="0.04" d="M1318.46,-478.43C1318.42,-478.43 1318.37,-478.43 1318.33,-478.43"/>
<polygon fill="black" stroke="black" stroke-width="0.04" points="1328.21,-474.94 1318.2,-478.43 1328.2,-481.94 1328.21,-474.94"/>
<text text-anchor="middle" x="1266.89" y="-482.23" font-family="Times,serif" font-size="14.00">raw&#45;coal*5056</text>
</g>
</g>
</svg>
