<?xml version="1.0" encoding="UTF-8" standalone="no"?>
<!DOCTYPE svg PUBLIC "-//W3C//DTD SVG 1.1//EN"
 "http://www.w3.org/Graphics/SVG/1.1/DTD/svg11.dtd">
<!-- Generated by graphviz version 2.43.0 (0)
 -->
<!-- Title: %3 Pages: 1 -->
<svg width="1438pt" height="1064pt"
 viewBox="0.00 0.00 1437.84 1064.41" xmlns="http://www.w3.org/2000/svg" xmlns:xlink="http://www.w3.org/1999/xlink">
<g id="graph0" class="graph" transform="scale(1 1) rotate(0) translate(4 1060.41)">
<title>%3</title>
<polygon fill="white" stroke="transparent" points="-4,4 -4,-1060.41 1433.84,-1060.41 1433.84,4 -4,4"/>
<!-- &#45;3,2 (Lead and Solder) -->
<g id="node1" class="node">
<title>&#45;3,2 (Lead and Solder)</title>
<ellipse fill="none" stroke="black" cx="611.06" cy="-528" rx="113.98" ry="18"/>
<text text-anchor="middle" x="611.06" y="-524.3" font-family="Times,serif" font-size="14.00">&#45;3,2 (Lead and Solder)</text>
</g>
<!-- &#45;7,&#45;4 (Isomer&#39;s Slaughterhouse and Daycare Centre, Bone Meal) -->
<g id="node2" class="node">
<title>&#45;7,&#45;4 (Isomer&#39;s Slaughterhouse and Daycare Centre, Bone Meal)</title>
<ellipse fill="none" stroke="black" cx="1122.42" cy="-528" rx="307.35" ry="18"/>
<text text-anchor="middle" x="1122.42" y="-524.3" font-family="Times,serif" font-size="14.00">&#45;7,&#45;4 (Isomer&#39;s Slaughterhouse and Daycare Centre, Bone Meal)</text>
</g>
<!-- &#45;3,2 (Lead and Solder)&#45;&gt;&#45;7,&#45;4 (Isomer&#39;s Slaughterhouse and Daycare Centre, Bone Meal) -->
<g id="edge1" class="edge">
<title>&#45;3,2 (Lead and Solder)&#45;&gt;&#45;7,&#45;4 (Isomer&#39;s Slaughterhouse and Daycare Centre, Bone Meal)</title>
<path fill="none" stroke="black" stroke-width="1.12" d="M724.87,-528C749.48,-528 776.66,-528 804.92,-528"/>
<polygon fill="black" stroke="black" stroke-width="1.12" points="804.95,-531.5 814.95,-528 804.95,-524.5 804.95,-531.5"/>
<text text-anchor="middle" x="764.89" y="-516.8" font-family="Times,serif" font-size="14.00">solder*4032</text>
</g>
<!-- 0,0 (LE BUS) -->
<g id="node3" class="node">
<title>0,0 (LE BUS)</title>
<ellipse fill="none" stroke="black" cx="886.96" cy="-958.55" rx="71.49" ry="18"/>
<text text-anchor="middle" x="886.96" y="-954.85" font-family="Times,serif" font-size="14.00">0,0 (LE BUS)</text>
</g>
<!-- &#45;3,2 (Lead and Solder)&#45;&gt;0,0 (LE BUS) -->
<g id="edge2" class="edge">
<title>&#45;3,2 (Lead and Solder)&#45;&gt;0,0 (LE BUS)</title>
<path fill="none" stroke="black" stroke-width="0.56" d="M622.56,-545.95C665.77,-613.38 818.51,-851.73 869.92,-931.97"/>
<polygon fill="black" stroke="black" stroke-width="0.56" points="867.06,-933.99 875.4,-940.52 872.96,-930.21 867.06,-933.99"/>
<text text-anchor="middle" x="702.24" y="-742.76" font-family="Times,serif" font-size="14.00">solder*2000</text>
</g>
<!-- &#45;4,1 (item=ulric Ulrics) -->
<g id="node4" class="node">
<title>&#45;4,1 (item=ulric Ulrics)</title>
<ellipse fill="none" stroke="black" cx="579.8" cy="-1038.41" rx="118.08" ry="18"/>
<text text-anchor="middle" x="579.8" y="-1034.71" font-family="Times,serif" font-size="14.00">&#45;4,1 (item=ulric Ulrics)</text>
</g>
<!-- &#45;3,2 (Lead and Solder)&#45;&gt;&#45;4,1 (item=ulric Ulrics) -->
<g id="edge3" class="edge">
<title>&#45;3,2 (Lead and Solder)&#45;&gt;&#45;4,1 (item=ulric Ulrics)</title>
<path fill="none" stroke="black" stroke-width="1.12" d="M609.95,-546.17C605.28,-622.44 587.23,-917.13 581.53,-1010.12"/>
<polygon fill="black" stroke="black" stroke-width="1.12" points="578.04,-1010 580.92,-1020.19 585.02,-1010.43 578.04,-1010"/>
<text text-anchor="middle" x="551.74" y="-781.94" font-family="Times,serif" font-size="14.00">solder*4016</text>
</g>
<!-- &#45;3,8 (Urea) -->
<g id="node5" class="node">
<title>&#45;3,8 (Urea)</title>
<ellipse fill="none" stroke="black" cx="292.76" cy="-928.22" rx="61.19" ry="18"/>
<text text-anchor="middle" x="292.76" y="-924.52" font-family="Times,serif" font-size="14.00">&#45;3,8 (Urea)</text>
</g>
<!-- &#45;3,2 (Lead and Solder)&#45;&gt;&#45;3,8 (Urea) -->
<g id="edge4" class="edge">
<title>&#45;3,2 (Lead and Solder)&#45;&gt;&#45;3,8 (Urea)</title>
<path fill="none" stroke="black" stroke-width="1.12" d="M596.77,-545.98C545.86,-609.98 373.3,-826.96 313.42,-902.24"/>
<polygon fill="black" stroke="black" stroke-width="1.12" points="310.5,-900.29 307.02,-910.3 315.98,-904.65 310.5,-900.29"/>
<text text-anchor="middle" x="411.09" y="-727.91" font-family="Times,serif" font-size="14.00">solder*4032</text>
</g>
<!-- 0,10 (item=meat Meat) -->
<g id="node6" class="node">
<title>0,10 (item=meat Meat)</title>
<ellipse fill="none" stroke="black" cx="120.24" cy="-671.48" rx="120.48" ry="18"/>
<text text-anchor="middle" x="120.24" y="-667.78" font-family="Times,serif" font-size="14.00">0,10 (item=meat Meat)</text>
</g>
<!-- &#45;3,2 (Lead and Solder)&#45;&gt;0,10 (item=meat Meat) -->
<g id="edge5" class="edge">
<title>&#45;3,2 (Lead and Solder)&#45;&gt;0,10 (item=meat Meat)</title>
<path fill="none" stroke="black" stroke-width="0.56" d="M556.66,-543.9C465.57,-570.53 282.59,-624.02 185,-652.54"/>
<polygon fill="black" stroke="black" stroke-width="0.56" points="183.88,-649.23 175.26,-655.39 185.84,-655.95 183.88,-649.23"/>
<text text-anchor="middle" x="326.83" y="-602.02" font-family="Times,serif" font-size="14.00">solder*2016</text>
</g>
<!-- 7,&#45;2 (item=guts Auog guts) -->
<g id="node7" class="node">
<title>7,&#45;2 (item=guts Auog guts)</title>
<ellipse fill="none" stroke="black" cx="157.21" cy="-292.39" rx="137.28" ry="18"/>
<text text-anchor="middle" x="157.21" y="-288.69" font-family="Times,serif" font-size="14.00">7,&#45;2 (item=guts Auog guts)</text>
</g>
<!-- &#45;3,2 (Lead and Solder)&#45;&gt;7,&#45;2 (item=guts Auog guts) -->
<g id="edge6" class="edge">
<title>&#45;3,2 (Lead and Solder)&#45;&gt;7,&#45;2 (item=guts Auog guts)</title>
<path fill="none" stroke="black" stroke-width="1.12" d="M577.69,-510.68C496.73,-468.65 289.95,-361.3 200.04,-314.62"/>
<polygon fill="black" stroke="black" stroke-width="1.12" points="201.43,-311.4 190.94,-309.9 198.21,-317.61 201.43,-311.4"/>
<text text-anchor="middle" x="344.86" y="-416.45" font-family="Times,serif" font-size="14.00">solder*4032</text>
</g>
<!-- &#45;1,6 (Flimble&#39;s Slaughterhouse and Daycare Centre, Auog Products) -->
<g id="node8" class="node">
<title>&#45;1,6 (Flimble&#39;s Slaughterhouse and Daycare Centre, Auog Products)</title>
<ellipse fill="none" stroke="black" cx="648.32" cy="-18" rx="325.74" ry="18"/>
<text text-anchor="middle" x="648.32" y="-14.3" font-family="Times,serif" font-size="14.00">&#45;1,6 (Flimble&#39;s Slaughterhouse and Daycare Centre, Auog Products)</text>
</g>
<!-- &#45;3,2 (Lead and Solder)&#45;&gt;&#45;1,6 (Flimble&#39;s Slaughterhouse and Daycare Centre, Auog Products) -->
<g id="edge7" class="edge">
<title>&#45;3,2 (Lead and Solder)&#45;&gt;&#45;1,6 (Flimble&#39;s Slaughterhouse and Daycare Centre, Auog Products)</title>
<path fill="none" stroke="black" stroke-width="1.39" d="M612.39,-509.85C617.95,-433.64 639.46,-139.18 646.25,-46.26"/>
<polygon fill="black" stroke="black" stroke-width="1.39" points="649.75,-46.43 646.99,-36.2 642.77,-45.92 649.75,-46.43"/>
<text text-anchor="middle" x="585.32" y="-281.86" font-family="Times,serif" font-size="14.00">solder*5008</text>
</g>
</g>
</svg>
