<?xml version="1.0" encoding="UTF-8" standalone="no"?>
<!DOCTYPE svg PUBLIC "-//W3C//DTD SVG 1.1//EN"
 "http://www.w3.org/Graphics/SVG/1.1/DTD/svg11.dtd">
<!-- Generated by graphviz version 2.43.0 (0)
 -->
<!-- Title: %3 Pages: 1 -->
<svg width="1784pt" height="824pt"
 viewBox="0.00 0.00 1783.99 823.83" xmlns="http://www.w3.org/2000/svg" xmlns:xlink="http://www.w3.org/1999/xlink">
<g id="graph0" class="graph" transform="scale(1 1) rotate(0) translate(4 819.83)">
<title>%3</title>
<polygon fill="white" stroke="transparent" points="-4,4 -4,-819.83 1779.99,-819.83 1779.99,4 -4,4"/>
<!-- 2,&#45;1 (Ammonia) -->
<g id="node1" class="node">
<title>2,&#45;1 (Ammonia)</title>
<ellipse fill="none" stroke="black" cx="838.5" cy="-331.96" rx="81.49" ry="18"/>
<text text-anchor="middle" x="838.5" y="-328.26" font-family="Times,serif" font-size="14.00">2,&#45;1 (Ammonia)</text>
</g>
<!-- 2,1 (Niobium plates) -->
<g id="node2" class="node">
<title>2,1 (Niobium plates)</title>
<ellipse fill="none" stroke="black" cx="524.54" cy="-18" rx="105.88" ry="18"/>
<text text-anchor="middle" x="524.54" y="-14.3" font-family="Times,serif" font-size="14.00">2,1 (Niobium plates)</text>
</g>
<!-- 2,&#45;1 (Ammonia)&#45;&gt;2,1 (Niobium plates) -->
<g id="edge1" class="edge">
<title>2,&#45;1 (Ammonia)&#45;&gt;2,1 (Niobium plates)</title>
<path fill="none" stroke="black" stroke-width="0.64" d="M820.72,-314.18C767.85,-261.31 611.47,-104.93 549.88,-43.34"/>
<polygon fill="black" stroke="black" stroke-width="0.64" points="552.06,-40.57 542.51,-35.97 547.11,-45.52 552.06,-40.57"/>
<text text-anchor="middle" x="606.8" y="-182.56" font-family="Times,serif" font-size="14.00">ammonia&#45;barrel*1760</text>
</g>
<!-- 1,&#45;1 (fluid=molten&#45;glass Glass, When space, make quartz separate with regular priority, Quartz) -->
<g id="node3" class="node">
<title>1,&#45;1 (fluid=molten&#45;glass Glass, When space, make quartz separate with regular priority, Quartz)</title>
<ellipse fill="none" stroke="black" cx="1318.43" cy="-46.9" rx="457.62" ry="18"/>
<text text-anchor="middle" x="1318.43" y="-43.2" font-family="Times,serif" font-size="14.00">1,&#45;1 (fluid=molten&#45;glass Glass, When space, make quartz separate with regular priority, Quartz)</text>
</g>
<!-- 2,&#45;1 (Ammonia)&#45;&gt;1,&#45;1 (fluid=molten&#45;glass Glass, When space, make quartz separate with regular priority, Quartz) -->
<g id="edge2" class="edge">
<title>2,&#45;1 (Ammonia)&#45;&gt;1,&#45;1 (fluid=molten&#45;glass Glass, When space, make quartz separate with regular priority, Quartz)</title>
<path fill="none" stroke="black" stroke-width="1.5" d="M867.08,-314.98C949.19,-266.21 1185.83,-125.66 1279.55,-70"/>
<polygon fill="black" stroke="black" stroke-width="1.5" points="1281.35,-73 1288.16,-64.88 1277.77,-66.98 1281.35,-73"/>
<text text-anchor="middle" x="994.81" y="-196.29" font-family="Times,serif" font-size="14.00">ammonia&#45;barrel*4112</text>
</g>
<!-- &#45;4,4 (item=ammonium&#45;chloride Ammonium chloride) -->
<g id="node4" class="node">
<title>&#45;4,4 (item=ammonium&#45;chloride Ammonium chloride)</title>
<ellipse fill="none" stroke="black" cx="1227.73" cy="-797.83" rx="254.55" ry="18"/>
<text text-anchor="middle" x="1227.73" y="-794.13" font-family="Times,serif" font-size="14.00">&#45;4,4 (item=ammonium&#45;chloride Ammonium chloride)</text>
</g>
<!-- 2,&#45;1 (Ammonia)&#45;&gt;&#45;4,4 (item=ammonium&#45;chloride Ammonium chloride) -->
<g id="edge3" class="edge">
<title>2,&#45;1 (Ammonia)&#45;&gt;&#45;4,4 (item=ammonium&#45;chloride Ammonium chloride)</title>
<path fill="none" stroke="black" stroke-width="2.96" d="M853.52,-349.93C913.41,-421.63 1135.38,-687.3 1206.01,-771.83"/>
<polygon fill="black" stroke="black" stroke-width="2.96" points="1203.45,-774.23 1212.55,-779.66 1208.82,-769.74 1203.45,-774.23"/>
<text text-anchor="middle" x="951.26" y="-564.68" font-family="Times,serif" font-size="14.00">ammonia&#45;barrel*8088</text>
</g>
<!-- 0,0 (LE BUS) -->
<g id="node6" class="node">
<title>0,0 (LE BUS)</title>
<ellipse fill="none" stroke="black" cx="524.54" cy="-645.91" rx="71.49" ry="18"/>
<text text-anchor="middle" x="524.54" y="-642.21" font-family="Times,serif" font-size="14.00">0,0 (LE BUS)</text>
</g>
<!-- 2,&#45;1 (Ammonia)&#45;&gt;0,0 (LE BUS) -->
<g id="edge5" class="edge">
<title>2,&#45;1 (Ammonia)&#45;&gt;0,0 (LE BUS)</title>
<path fill="none" stroke="black" stroke-width="0.37" d="M820.72,-349.74C767.72,-402.73 610.73,-559.72 549.45,-621.01"/>
<polygon fill="black" stroke="black" stroke-width="0.37" points="546.72,-618.78 542.12,-628.33 551.67,-623.73 546.72,-618.78"/>
<text text-anchor="middle" x="606.58" y="-489.17" font-family="Times,serif" font-size="14.00">ammonia&#45;barrel*1000</text>
</g>
<!-- 4,9 (Cyanic Acid, Ammonia is a by&#45;product) -->
<g id="node5" class="node">
<title>4,9 (Cyanic Acid, Ammonia is a by&#45;product)</title>
<ellipse fill="none" stroke="black" cx="210.58" cy="-331.96" rx="210.66" ry="18"/>
<text text-anchor="middle" x="210.58" y="-328.26" font-family="Times,serif" font-size="14.00">4,9 (Cyanic Acid, Ammonia is a by&#45;product)</text>
</g>
<!-- 4,9 (Cyanic Acid, Ammonia is a by&#45;product)&#45;&gt;2,1 (Niobium plates) -->
<g id="edge4" class="edge">
<title>4,9 (Cyanic Acid, Ammonia is a by&#45;product)&#45;&gt;2,1 (Niobium plates)</title>
<path fill="none" stroke="black" stroke-width="0.17" d="M228.82,-313.72C282.16,-260.38 437.97,-104.57 499.31,-43.23"/>
<polygon fill="black" stroke="black" stroke-width="0.17" points="502.05,-45.44 506.64,-35.9 497.1,-40.49 502.05,-45.44"/>
<text text-anchor="middle" x="290.06" y="-182.28" font-family="Times,serif" font-size="14.00">ammonia&#45;barrel*456</text>
</g>
<!-- 4,9 (Cyanic Acid, Ammonia is a by&#45;product)&#45;&gt;0,0 (LE BUS) -->
<g id="edge6" class="edge">
<title>4,9 (Cyanic Acid, Ammonia is a by&#45;product)&#45;&gt;0,0 (LE BUS)</title>
<path fill="none" stroke="black" stroke-width="0.37" d="M228.82,-350.19C282.28,-403.66 438.7,-560.07 499.74,-621.11"/>
<polygon fill="black" stroke="black" stroke-width="0.37" points="497.48,-623.81 507.03,-628.41 502.43,-618.86 497.48,-623.81"/>
<text text-anchor="middle" x="285.78" y="-489.45" font-family="Times,serif" font-size="14.00">ammonia&#45;barrel*1000</text>
</g>
</g>
</svg>
