<?xml version="1.0" encoding="UTF-8" standalone="no"?>
<!DOCTYPE svg PUBLIC "-//W3C//DTD SVG 1.1//EN"
 "http://www.w3.org/Graphics/SVG/1.1/DTD/svg11.dtd">
<!-- Generated by graphviz version 2.43.0 (0)
 -->
<!-- Title: %3 Pages: 1 -->
<svg width="2859pt" height="2233pt"
 viewBox="0.00 0.00 2859.19 2233.48" xmlns="http://www.w3.org/2000/svg" xmlns:xlink="http://www.w3.org/1999/xlink">
<g id="graph0" class="graph" transform="scale(1 1) rotate(0) translate(4 2229.48)">
<title>%3</title>
<polygon fill="white" stroke="transparent" points="-4,4 -4,-2229.48 2855.19,-2229.48 2855.19,4 -4,4"/>
<!-- &#45;5,&#45;1 (Coal and Coke and Syngas and Ash and Coke Oven Gas and...) -->
<g id="node1" class="node">
<title>&#45;5,&#45;1 (Coal and Coke and Syngas and Ash and Coke Oven Gas and...)</title>
<ellipse fill="none" stroke="black" cx="2350.74" cy="-1789.32" rx="325.74" ry="18"/>
<text text-anchor="middle" x="2350.74" y="-1785.62" font-family="Times,serif" font-size="14.00">&#45;5,&#45;1 (Coal and Coke and Syngas and Ash and Coke Oven Gas and...)</text>
</g>
<!-- 0,0 (LE BUS) -->
<g id="node2" class="node">
<title>0,0 (LE BUS)</title>
<ellipse fill="none" stroke="black" cx="1775.2" cy="-2207.48" rx="71.49" ry="18"/>
<text text-anchor="middle" x="1775.2" y="-2203.78" font-family="Times,serif" font-size="14.00">0,0 (LE BUS)</text>
</g>
<!-- &#45;5,&#45;1 (Coal and Coke and Syngas and Ash and Coke Oven Gas and...)&#45;&gt;0,0 (LE BUS) -->
<g id="edge1" class="edge">
<title>&#45;5,&#45;1 (Coal and Coke and Syngas and Ash and Coke Oven Gas and...)&#45;&gt;0,0 (LE BUS)</title>
<path fill="none" stroke="black" stroke-width="3.11" d="M2326.01,-1807.29C2233.83,-1874.27 1910.21,-2109.39 1807.05,-2184.34"/>
<polygon fill="black" stroke="black" stroke-width="3.11" points="1804.92,-2181.56 1798.88,-2190.27 1809.03,-2187.23 1804.92,-2181.56"/>
<text text-anchor="middle" x="1996.03" y="-1999.61" font-family="Times,serif" font-size="14.00">syngas&#45;barrel*5472</text>
</g>
<!-- 2,6 (Refined Syngas) -->
<g id="node3" class="node">
<title>2,6 (Refined Syngas)</title>
<ellipse fill="none" stroke="black" cx="488.26" cy="-1789.32" rx="107.48" ry="18"/>
<text text-anchor="middle" x="488.26" y="-1785.62" font-family="Times,serif" font-size="14.00">2,6 (Refined Syngas)</text>
</g>
<!-- &#45;5,&#45;1 (Coal and Coke and Syngas and Ash and Coke Oven Gas and...)&#45;&gt;2,6 (Refined Syngas) -->
<g id="edge2" class="edge">
<title>&#45;5,&#45;1 (Coal and Coke and Syngas and Ash and Coke Oven Gas and...)&#45;&gt;2,6 (Refined Syngas)</title>
<path fill="none" stroke="black" stroke-width="0.57" d="M2024.99,-1789.32C1602.38,-1789.32 886.06,-1789.32 605.71,-1789.32"/>
<polygon fill="black" stroke="black" stroke-width="0.57" points="605.52,-1785.82 595.52,-1789.32 605.52,-1792.82 605.52,-1785.82"/>
<text text-anchor="middle" x="1244.85" y="-1793.12" font-family="Times,serif" font-size="14.00">syngas&#45;barrel*1008</text>
</g>
<!-- &#45;2,7 (item=borax Borax) -->
<g id="node6" class="node">
<title>&#45;2,7 (item=borax Borax)</title>
<ellipse fill="none" stroke="black" cx="2350.74" cy="-436.15" rx="123.48" ry="18"/>
<text text-anchor="middle" x="2350.74" y="-432.45" font-family="Times,serif" font-size="14.00">&#45;2,7 (item=borax Borax)</text>
</g>
<!-- &#45;5,&#45;1 (Coal and Coke and Syngas and Ash and Coke Oven Gas and...)&#45;&gt;&#45;2,7 (item=borax Borax) -->
<g id="edge6" class="edge">
<title>&#45;5,&#45;1 (Coal and Coke and Syngas and Ash and Coke Oven Gas and...)&#45;&gt;&#45;2,7 (item=borax Borax)</title>
<path fill="none" stroke="black" stroke-width="0.39" d="M2350.74,-1771.22C2350.74,-1625.46 2350.74,-644.21 2350.74,-464.42"/>
<polygon fill="black" stroke="black" stroke-width="0.39" points="2354.24,-464.19 2350.74,-454.19 2347.24,-464.19 2354.24,-464.19"/>
<text text-anchor="middle" x="2284.74" y="-1121.62" font-family="Times,serif" font-size="14.00">syngas&#45;barrel*688</text>
</g>
<!-- 4,0 (item=raw&#45;borax item=borax Borax and raw borax) -->
<g id="node7" class="node">
<title>4,0 (item=raw&#45;borax item=borax Borax and raw borax)</title>
<ellipse fill="none" stroke="black" cx="268.43" cy="-1112.74" rx="268.35" ry="18"/>
<text text-anchor="middle" x="268.43" y="-1109.04" font-family="Times,serif" font-size="14.00">4,0 (item=raw&#45;borax item=borax Borax and raw borax)</text>
</g>
<!-- &#45;5,&#45;1 (Coal and Coke and Syngas and Ash and Coke Oven Gas and...)&#45;&gt;4,0 (item=raw&#45;borax item=borax Borax and raw borax) -->
<g id="edge7" class="edge">
<title>&#45;5,&#45;1 (Coal and Coke and Syngas and Ash and Coke Oven Gas and...)&#45;&gt;4,0 (item=raw&#45;borax item=borax Borax and raw borax)</title>
<path fill="none" stroke="black" stroke-width="0.68" d="M2296.12,-1771.57C2005.85,-1677.26 645.81,-1235.36 332.78,-1133.65"/>
<polygon fill="black" stroke="black" stroke-width="0.68" points="333.55,-1130.22 322.96,-1130.46 331.39,-1136.88 333.55,-1130.22"/>
<text text-anchor="middle" x="1243.95" y="-1456.41" font-family="Times,serif" font-size="14.00">syngas&#45;barrel*1200</text>
</g>
<!-- 3,1 (Mining Brick) -->
<g id="node9" class="node">
<title>3,1 (Mining Brick)</title>
<ellipse fill="none" stroke="black" cx="1063.8" cy="-18" rx="94.78" ry="18"/>
<text text-anchor="middle" x="1063.8" y="-14.3" font-family="Times,serif" font-size="14.00">3,1 (Mining Brick)</text>
</g>
<!-- &#45;5,&#45;1 (Coal and Coke and Syngas and Ash and Coke Oven Gas and...)&#45;&gt;3,1 (Mining Brick) -->
<g id="edge13" class="edge">
<title>&#45;5,&#45;1 (Coal and Coke and Syngas and Ash and Coke Oven Gas and...)&#45;&gt;3,1 (Mining Brick)</title>
<path fill="none" stroke="black" stroke-width="1.85" d="M2337.59,-1771.22C2212.32,-1598.81 1231.56,-248.9 1082.71,-44.02"/>
<polygon fill="black" stroke="black" stroke-width="1.85" points="1085.52,-41.94 1076.81,-35.91 1079.86,-46.06 1085.52,-41.94"/>
<text text-anchor="middle" x="1639.65" y="-911.42" font-family="Times,serif" font-size="14.00">syngas&#45;barrel*3264</text>
</g>
<!-- 0,0 (LE BUS)&#45;&gt;0,0 (LE BUS) -->
<g id="edge10" class="edge">
<title>0,0 (LE BUS)&#45;&gt;0,0 (LE BUS)</title>
<path fill="none" stroke="black" stroke-width="0.29" d="M1841.94,-2213.95C1855.23,-2213.22 1864.7,-2211.06 1864.7,-2207.48 1864.7,-2204.9 1859.8,-2203.06 1852.12,-2201.96"/>
<polygon fill="black" stroke="black" stroke-width="0.29" points="1852.23,-2198.45 1841.94,-2201 1851.57,-2205.42 1852.23,-2198.45"/>
<text text-anchor="middle" x="1930.7" y="-2203.78" font-family="Times,serif" font-size="14.00">syngas&#45;barrel*503</text>
</g>
<!-- 0,0 (LE BUS)&#45;&gt;2,6 (Refined Syngas) -->
<g id="edge5" class="edge">
<title>0,0 (LE BUS)&#45;&gt;2,6 (Refined Syngas)</title>
<path fill="none" stroke="black" stroke-width="0.07" d="M1731.28,-2193.2C1538.53,-2130.58 767.5,-1880.05 547.28,-1808.5"/>
<polygon fill="black" stroke="black" stroke-width="0.07" points="548.11,-1805.09 537.52,-1805.33 545.95,-1811.75 548.11,-1805.09"/>
<text text-anchor="middle" x="1073.28" y="-2004.65" font-family="Times,serif" font-size="14.00">syngas&#45;barrel*121</text>
</g>
<!-- 0,6 (Flue Gas Disposal, Syngas From Flue Gas) -->
<g id="node4" class="node">
<title>0,6 (Flue Gas Disposal, Syngas From Flue Gas)</title>
<ellipse fill="none" stroke="black" cx="1063.8" cy="-2207.48" rx="229.36" ry="18"/>
<text text-anchor="middle" x="1063.8" y="-2203.78" font-family="Times,serif" font-size="14.00">0,6 (Flue Gas Disposal, Syngas From Flue Gas)</text>
</g>
<!-- 0,6 (Flue Gas Disposal, Syngas From Flue Gas)&#45;&gt;0,0 (LE BUS) -->
<g id="edge18" class="edge">
<title>0,6 (Flue Gas Disposal, Syngas From Flue Gas)&#45;&gt;0,0 (LE BUS)</title>
<path fill="none" stroke="black" stroke-width="0.48" d="M1293.3,-2207.48C1430.57,-2207.48 1596.64,-2207.48 1693.65,-2207.48"/>
<polygon fill="black" stroke="black" stroke-width="0.48" points="1693.68,-2210.98 1703.68,-2207.48 1693.68,-2203.98 1693.68,-2210.98"/>
<text text-anchor="middle" x="1427.47" y="-2211.28" font-family="Times,serif" font-size="14.00">syngas&#45;barrel*848</text>
</g>
<!-- 0,6 (Flue Gas Disposal, Syngas From Flue Gas)&#45;&gt;2,6 (Refined Syngas) -->
<g id="edge3" class="edge">
<title>0,6 (Flue Gas Disposal, Syngas From Flue Gas)&#45;&gt;2,6 (Refined Syngas)</title>
<path fill="none" stroke="black" stroke-width="0.06" d="M1039.07,-2189.51C947.09,-2122.68 624.73,-1888.48 520.82,-1812.97"/>
<polygon fill="black" stroke="black" stroke-width="0.06" points="522.73,-1810.04 512.58,-1806.99 518.61,-1815.7 522.73,-1810.04"/>
<text text-anchor="middle" x="713.94" y="-2005.04" font-family="Times,serif" font-size="14.00">syngas&#45;barrel*110</text>
</g>
<!-- &#45;2,8 (syngas from coal dust and also wood) -->
<g id="node5" class="node">
<title>&#45;2,8 (syngas from coal dust and also wood)</title>
<ellipse fill="none" stroke="black" cx="2570.58" cy="-1112.74" rx="208.76" ry="18"/>
<text text-anchor="middle" x="2570.58" y="-1109.04" font-family="Times,serif" font-size="14.00">&#45;2,8 (syngas from coal dust and also wood)</text>
</g>
<!-- &#45;2,8 (syngas from coal dust and also wood)&#45;&gt;0,0 (LE BUS) -->
<g id="edge4" class="edge">
<title>&#45;2,8 (syngas from coal dust and also wood)&#45;&gt;0,0 (LE BUS)</title>
<path fill="none" stroke="black" stroke-width="3.2" d="M2557.44,-1130.83C2464.36,-1258.93 1905.16,-2028.6 1794.3,-2181.19"/>
<polygon fill="black" stroke="black" stroke-width="3.2" points="1791.26,-2179.42 1788.22,-2189.57 1796.92,-2183.53 1791.26,-2179.42"/>
<text text-anchor="middle" x="2105.37" y="-1659.81" font-family="Times,serif" font-size="14.00">syngas&#45;barrel*5632</text>
</g>
<!-- &#45;2,8 (syngas from coal dust and also wood)&#45;&gt;&#45;2,7 (item=borax Borax) -->
<g id="edge8" class="edge">
<title>&#45;2,8 (syngas from coal dust and also wood)&#45;&gt;&#45;2,7 (item=borax Borax)</title>
<path fill="none" stroke="black" stroke-width="1.18" d="M2564.7,-1094.64C2534.47,-1001.61 2396.57,-577.2 2359.78,-463.98"/>
<polygon fill="black" stroke="black" stroke-width="1.18" points="2363.06,-462.73 2356.64,-454.31 2356.4,-464.9 2363.06,-462.73"/>
<text text-anchor="middle" x="2391.74" y="-783.11" font-family="Times,serif" font-size="14.00">syngas&#45;barrel*2080</text>
</g>
<!-- &#45;2,8 (syngas from coal dust and also wood)&#45;&gt;3,1 (Mining Brick) -->
<g id="edge15" class="edge">
<title>&#45;2,8 (syngas from coal dust and also wood)&#45;&gt;3,1 (Mining Brick)</title>
<path fill="none" stroke="black" stroke-width="1.85" d="M2545.68,-1094.65C2368.29,-965.77 1297.15,-187.54 1096.26,-41.58"/>
<polygon fill="black" stroke="black" stroke-width="1.85" points="1098.03,-38.54 1087.88,-35.5 1093.91,-44.21 1098.03,-38.54"/>
<text text-anchor="middle" x="1750.47" y="-571.92" font-family="Times,serif" font-size="14.00">syngas&#45;barrel*3248</text>
</g>
<!-- 4,&#45;2 (Ceramic) -->
<g id="node10" class="node">
<title>4,&#45;2 (Ceramic)</title>
<ellipse fill="none" stroke="black" cx="2719.27" cy="-1112.74" rx="76.89" ry="18"/>
<text text-anchor="middle" x="2719.27" y="-1109.04" font-family="Times,serif" font-size="14.00">4,&#45;2 (Ceramic)</text>
</g>
<!-- &#45;2,8 (syngas from coal dust and also wood)&#45;&gt;4,&#45;2 (Ceramic) -->
<g id="edge12" class="edge">
<title>&#45;2,8 (syngas from coal dust and also wood)&#45;&gt;4,&#45;2 (Ceramic)</title>
<path fill="none" stroke="black" stroke-width="0.29" d="M2719.16,-1112.74C2719.18,-1112.74 2719.2,-1112.74 2719.21,-1112.74"/>
<polygon fill="black" stroke="black" stroke-width="0.29" points="2709.25,-1116.27 2719.24,-1112.74 2709.23,-1109.27 2709.25,-1116.27"/>
<text text-anchor="middle" x="2785.19" y="-1116.54" font-family="Times,serif" font-size="14.00">syngas&#45;barrel*512</text>
</g>
<!-- 4,10 (Fluid Recycling) -->
<g id="node8" class="node">
<title>4,10 (Fluid Recycling)</title>
<ellipse fill="none" stroke="black" cx="1775.2" cy="-18" rx="112.38" ry="18"/>
<text text-anchor="middle" x="1775.2" y="-14.3" font-family="Times,serif" font-size="14.00">4,10 (Fluid Recycling)</text>
</g>
<!-- 4,10 (Fluid Recycling)&#45;&gt;0,0 (LE BUS) -->
<g id="edge9" class="edge">
<title>4,10 (Fluid Recycling)&#45;&gt;0,0 (LE BUS)</title>
<path fill="none" stroke="black" stroke-width="1.65" d="M1775.2,-36.27C1775.2,-231.94 1775.2,-1938.19 1775.2,-2179.22"/>
<polygon fill="black" stroke="black" stroke-width="1.65" points="1771.7,-2179.28 1775.2,-2189.28 1778.7,-2179.28 1771.7,-2179.28"/>
<text text-anchor="middle" x="1704.7" y="-1111.54" font-family="Times,serif" font-size="14.00">syngas&#45;barrel*2910</text>
</g>
<!-- 4,10 (Fluid Recycling)&#45;&gt;&#45;2,7 (item=borax Borax) -->
<g id="edge20" class="edge">
<title>4,10 (Fluid Recycling)&#45;&gt;&#45;2,7 (item=borax Borax)</title>
<path fill="none" stroke="black" stroke-width="0.3" d="M1799.57,-35.7C1891.03,-102.15 2213.99,-336.8 2318.12,-412.45"/>
<polygon fill="black" stroke="black" stroke-width="0.3" points="2316.23,-415.4 2326.37,-418.45 2320.34,-409.74 2316.23,-415.4"/>
<text text-anchor="middle" x="1992.84" y="-227.88" font-family="Times,serif" font-size="14.00">syngas&#45;barrel*528</text>
</g>
<!-- 4,10 (Fluid Recycling)&#45;&gt;3,1 (Mining Brick) -->
<g id="edge11" class="edge">
<title>4,10 (Fluid Recycling)&#45;&gt;3,1 (Mining Brick)</title>
<path fill="none" stroke="black" stroke-width="0.55" d="M1662.48,-18C1526.93,-18 1301.19,-18 1169.05,-18"/>
<polygon fill="black" stroke="black" stroke-width="0.55" points="1168.92,-14.5 1158.92,-18 1168.92,-21.5 1168.92,-14.5"/>
<text text-anchor="middle" x="1349.77" y="-21.8" font-family="Times,serif" font-size="14.00">syngas&#45;barrel*970</text>
</g>
<!-- 2,7 (Mystery petrochemicals) -->
<g id="node11" class="node">
<title>2,7 (Mystery petrochemicals)</title>
<ellipse fill="none" stroke="black" cx="488.26" cy="-436.15" rx="147.57" ry="18"/>
<text text-anchor="middle" x="488.26" y="-432.45" font-family="Times,serif" font-size="14.00">2,7 (Mystery petrochemicals)</text>
</g>
<!-- 2,7 (Mystery petrochemicals)&#45;&gt;0,0 (LE BUS) -->
<g id="edge16" class="edge">
<title>2,7 (Mystery petrochemicals)&#45;&gt;0,0 (LE BUS)</title>
<path fill="none" stroke="black" stroke-width="2.41" d="M501.42,-454.26C626.68,-626.67 1607.45,-1976.58 1756.3,-2181.45"/>
<polygon fill="black" stroke="black" stroke-width="2.41" points="1753.48,-2183.53 1762.19,-2189.57 1759.15,-2179.42 1753.48,-2183.53"/>
<text text-anchor="middle" x="1058.36" y="-1321.66" font-family="Times,serif" font-size="14.00">syngas&#45;barrel*4244</text>
</g>
<!-- 2,7 (Mystery petrochemicals)&#45;&gt;&#45;2,7 (item=borax Borax) -->
<g id="edge19" class="edge">
<title>2,7 (Mystery petrochemicals)&#45;&gt;&#45;2,7 (item=borax Borax)</title>
<path fill="none" stroke="black" stroke-width="0.3" d="M635.96,-436.15C989.13,-436.15 1878.17,-436.15 2216.87,-436.15"/>
<polygon fill="black" stroke="black" stroke-width="0.3" points="2216.97,-439.65 2226.97,-436.15 2216.97,-432.65 2216.97,-439.65"/>
<text text-anchor="middle" x="1360.42" y="-439.95" font-family="Times,serif" font-size="14.00">syngas&#45;barrel*520</text>
</g>
<!-- 2,7 (Mystery petrochemicals)&#45;&gt;4,0 (item=raw&#45;borax item=borax Borax and raw borax) -->
<g id="edge17" class="edge">
<title>2,7 (Mystery petrochemicals)&#45;&gt;4,0 (item=raw&#45;borax item=borax Borax and raw borax)</title>
<path fill="none" stroke="black" stroke-width="0.3" d="M482.38,-454.25C452.16,-547.28 314.25,-971.69 277.47,-1084.91"/>
<polygon fill="black" stroke="black" stroke-width="0.3" points="274.09,-1083.99 274.32,-1094.59 280.74,-1086.16 274.09,-1083.99"/>
<text text-anchor="middle" x="313.92" y="-773.38" font-family="Times,serif" font-size="14.00">syngas&#45;barrel*520</text>
</g>
<!-- 2,7 (Mystery petrochemicals)&#45;&gt;3,1 (Mining Brick) -->
<g id="edge14" class="edge">
<title>2,7 (Mystery petrochemicals)&#45;&gt;3,1 (Mining Brick)</title>
<path fill="none" stroke="black" stroke-width="0.46" d="M512.99,-418.19C605.07,-351.28 928.06,-116.62 1031.6,-41.39"/>
<polygon fill="black" stroke="black" stroke-width="0.46" points="1033.77,-44.14 1039.8,-35.44 1029.66,-38.48 1033.77,-44.14"/>
<text text-anchor="middle" x="706.3" y="-233.59" font-family="Times,serif" font-size="14.00">syngas&#45;barrel*816</text>
</g>
</g>
</svg>
