<?xml version="1.0" encoding="UTF-8" standalone="no"?>
<!DOCTYPE svg PUBLIC "-//W3C//DTD SVG 1.1//EN"
 "http://www.w3.org/Graphics/SVG/1.1/DTD/svg11.dtd">
<!-- Generated by graphviz version 2.43.0 (0)
 -->
<!-- Title: %3 Pages: 1 -->
<svg width="821pt" height="44pt"
 viewBox="0.00 0.00 820.79 44.00" xmlns="http://www.w3.org/2000/svg" xmlns:xlink="http://www.w3.org/1999/xlink">
<g id="graph0" class="graph" transform="scale(1 1) rotate(0) translate(4 40)">
<title>%3</title>
<polygon fill="white" stroke="transparent" points="-4,4 -4,-40 816.79,-40 816.79,4 -4,4"/>
<!-- 3,&#45;1 (Nitrogen, Oxygen) -->
<g id="node1" class="node">
<title>3,&#45;1 (Nitrogen, Oxygen)</title>
<ellipse fill="none" stroke="black" cx="389.17" cy="-18" rx="120.48" ry="18"/>
<text text-anchor="middle" x="389.17" y="-14.3" font-family="Times,serif" font-size="14.00">3,&#45;1 (Nitrogen, Oxygen)</text>
</g>
<!-- 1,7 (Activated Carbon) -->
<g id="node2" class="node">
<title>1,7 (Activated Carbon)</title>
<ellipse fill="none" stroke="black" cx="697.1" cy="-18" rx="115.88" ry="18"/>
<text text-anchor="middle" x="697.1" y="-14.3" font-family="Times,serif" font-size="14.00">1,7 (Activated Carbon)</text>
</g>
<!-- 3,&#45;1 (Nitrogen, Oxygen)&#45;&gt;1,7 (Activated Carbon) -->
<g id="edge1" class="edge">
<title>3,&#45;1 (Nitrogen, Oxygen)&#45;&gt;1,7 (Activated Carbon)</title>
<path fill="none" stroke="black" stroke-width="1.02" d="M509.55,-18C529.75,-18 550.76,-18 571.1,-18"/>
<polygon fill="black" stroke="black" stroke-width="1.02" points="571.35,-21.5 581.35,-18 571.35,-14.5 571.35,-21.5"/>
<text text-anchor="middle" x="540.33" y="-6.8" font-family="Times,serif" font-size="14.00">nitrogen&#45;barrel*73700</text>
</g>
<!-- 2,&#45;1 (Ammonia) -->
<g id="node3" class="node">
<title>2,&#45;1 (Ammonia)</title>
<ellipse fill="none" stroke="black" cx="81.24" cy="-18" rx="81.49" ry="18"/>
<text text-anchor="middle" x="81.24" y="-14.3" font-family="Times,serif" font-size="14.00">2,&#45;1 (Ammonia)</text>
</g>
<!-- 3,&#45;1 (Nitrogen, Oxygen)&#45;&gt;2,&#45;1 (Ammonia) -->
<g id="edge2" class="edge">
<title>3,&#45;1 (Nitrogen, Oxygen)&#45;&gt;2,&#45;1 (Ammonia)</title>
<path fill="none" stroke="black" stroke-width="0.98" d="M268.8,-18C236.82,-18 202.81,-18 172.66,-18"/>
<polygon fill="black" stroke="black" stroke-width="0.98" points="172.59,-14.5 162.59,-18 172.59,-21.5 172.59,-14.5"/>
<text text-anchor="middle" x="180.48" y="-6.8" font-family="Times,serif" font-size="14.00">nitrogen&#45;barrel*70500</text>
</g>
</g>
</svg>
