<?xml version="1.0" encoding="UTF-8" standalone="no"?>
<!DOCTYPE svg PUBLIC "-//W3C//DTD SVG 1.1//EN"
 "http://www.w3.org/Graphics/SVG/1.1/DTD/svg11.dtd">
<!-- Generated by graphviz version 2.43.0 (0)
 -->
<!-- Title: %3 Pages: 1 -->
<svg width="1207pt" height="933pt"
 viewBox="0.00 0.00 1206.95 932.96" xmlns="http://www.w3.org/2000/svg" xmlns:xlink="http://www.w3.org/1999/xlink">
<g id="graph0" class="graph" transform="scale(1 1) rotate(0) translate(4 928.96)">
<title>%3</title>
<polygon fill="white" stroke="transparent" points="-4,4 -4,-928.96 1202.95,-928.96 1202.95,4 -4,4"/>
<!-- 3,11 (Sap, Sodium Hydroxide) -->
<g id="node1" class="node">
<title>3,11 (Sap, Sodium Hydroxide)</title>
<ellipse fill="none" stroke="black" cx="679.79" cy="-466.14" rx="150.57" ry="18"/>
<text text-anchor="middle" x="679.79" y="-462.44" font-family="Times,serif" font-size="14.00">3,11 (Sap, Sodium Hydroxide)</text>
</g>
<!-- 2,14 (Latex) -->
<g id="node2" class="node">
<title>2,14 (Latex)</title>
<ellipse fill="none" stroke="black" cx="1132.01" cy="-466.14" rx="66.89" ry="18"/>
<text text-anchor="middle" x="1132.01" y="-462.44" font-family="Times,serif" font-size="14.00">2,14 (Latex)</text>
</g>
<!-- 3,11 (Sap, Sodium Hydroxide)&#45;&gt;2,14 (Latex) -->
<g id="edge1" class="edge">
<title>3,11 (Sap, Sodium Hydroxide)&#45;&gt;2,14 (Latex)</title>
<path fill="none" stroke="black" stroke-width="1.74" d="M830.69,-466.14C905.72,-466.14 993.21,-466.14 1054.53,-466.14"/>
<polygon fill="black" stroke="black" stroke-width="1.74" points="1054.9,-469.64 1064.9,-466.14 1054.9,-462.64 1054.9,-469.64"/>
<text text-anchor="middle" x="900.11" y="-469.94" font-family="Times,serif" font-size="14.00">saps*75472</text>
</g>
<!-- 0,0 (LE BUS) -->
<g id="node3" class="node">
<title>0,0 (LE BUS)</title>
<ellipse fill="none" stroke="black" cx="780.65" cy="-906.96" rx="71.49" ry="18"/>
<text text-anchor="middle" x="780.65" y="-903.26" font-family="Times,serif" font-size="14.00">0,0 (LE BUS)</text>
</g>
<!-- 3,11 (Sap, Sodium Hydroxide)&#45;&gt;0,0 (LE BUS) -->
<g id="edge2" class="edge">
<title>3,11 (Sap, Sodium Hydroxide)&#45;&gt;0,0 (LE BUS)</title>
<path fill="none" stroke="black" stroke-width="0.35" d="M683.94,-484.24C699.6,-552.69 755.27,-796 774.25,-878.99"/>
<polygon fill="black" stroke="black" stroke-width="0.35" points="770.89,-879.99 776.53,-888.95 777.71,-878.43 770.89,-879.99"/>
<text text-anchor="middle" x="686.59" y="-685.42" font-family="Times,serif" font-size="14.00">saps*15088</text>
</g>
<!-- &#45;1,12 (I can&#39;t believe it&#39;s more latex duplicates) -->
<g id="node4" class="node">
<title>&#45;1,12 (I can&#39;t believe it&#39;s more latex duplicates)</title>
<ellipse fill="none" stroke="black" cx="229.43" cy="-507.03" rx="229.36" ry="18"/>
<text text-anchor="middle" x="229.43" y="-503.33" font-family="Times,serif" font-size="14.00">&#45;1,12 (I can&#39;t believe it&#39;s more latex duplicates)</text>
</g>
<!-- 3,11 (Sap, Sodium Hydroxide)&#45;&gt;&#45;1,12 (I can&#39;t believe it&#39;s more latex duplicates) -->
<g id="edge3" class="edge">
<title>3,11 (Sap, Sodium Hydroxide)&#45;&gt;&#45;1,12 (I can&#39;t believe it&#39;s more latex duplicates)</title>
<path fill="none" stroke="black" stroke-width="1.49" d="M559.7,-477.04C507.58,-481.77 445.79,-487.39 389.83,-492.47"/>
<polygon fill="black" stroke="black" stroke-width="1.49" points="389.46,-488.99 379.82,-493.38 390.1,-495.96 389.46,-488.99"/>
<text text-anchor="middle" x="432.26" y="-473.55" font-family="Times,serif" font-size="14.00">saps*64720</text>
</g>
<!-- 0,12 (Latex duplicate) -->
<g id="node5" class="node">
<title>0,12 (Latex duplicate)</title>
<ellipse fill="none" stroke="black" cx="740.38" cy="-18" rx="112.38" ry="18"/>
<text text-anchor="middle" x="740.38" y="-14.3" font-family="Times,serif" font-size="14.00">0,12 (Latex duplicate)</text>
</g>
<!-- 3,11 (Sap, Sodium Hydroxide)&#45;&gt;0,12 (Latex duplicate) -->
<g id="edge4" class="edge">
<title>3,11 (Sap, Sodium Hydroxide)&#45;&gt;0,12 (Latex duplicate)</title>
<path fill="none" stroke="black" stroke-width="0.43" d="M682.24,-448.02C691.6,-378.84 725.1,-131.03 736.53,-46.49"/>
<polygon fill="black" stroke="black" stroke-width="0.43" points="740.03,-46.73 737.9,-36.35 733.09,-45.79 740.03,-46.73"/>
<text text-anchor="middle" x="666.89" y="-251.06" font-family="Times,serif" font-size="14.00">saps*18496</text>
</g>
</g>
</svg>
