<?xml version="1.0" encoding="UTF-8" standalone="no"?>
<!DOCTYPE svg PUBLIC "-//W3C//DTD SVG 1.1//EN"
 "http://www.w3.org/Graphics/SVG/1.1/DTD/svg11.dtd">
<!-- Generated by graphviz version 2.43.0 (0)
 -->
<!-- Title: %3 Pages: 1 -->
<svg width="675pt" height="575pt"
 viewBox="0.00 0.00 675.39 575.13" xmlns="http://www.w3.org/2000/svg" xmlns:xlink="http://www.w3.org/1999/xlink">
<g id="graph0" class="graph" transform="scale(1 1) rotate(0) translate(4 571.13)">
<title>%3</title>
<polygon fill="white" stroke="transparent" points="-4,4 -4,-571.13 671.39,-571.13 671.39,4 -4,4"/>
<!-- 8,3 (Nylon mk2) -->
<g id="node1" class="node">
<title>8,3 (Nylon mk2)</title>
<ellipse fill="none" stroke="black" cx="297.07" cy="-293.87" rx="85.29" ry="18"/>
<text text-anchor="middle" x="297.07" y="-290.17" font-family="Times,serif" font-size="14.00">8,3 (Nylon mk2)</text>
</g>
<!-- 0,0 (LE BUS) -->
<g id="node2" class="node">
<title>0,0 (LE BUS)</title>
<ellipse fill="none" stroke="black" cx="595.9" cy="-293.87" rx="71.49" ry="18"/>
<text text-anchor="middle" x="595.9" y="-290.17" font-family="Times,serif" font-size="14.00">0,0 (LE BUS)</text>
</g>
<!-- 8,3 (Nylon mk2)&#45;&gt;0,0 (LE BUS) -->
<g id="edge1" class="edge">
<title>8,3 (Nylon mk2)&#45;&gt;0,0 (LE BUS)</title>
<path fill="none" stroke="black" stroke-width="2.03" d="M382.3,-293.87C423.65,-293.87 473.09,-293.87 513.99,-293.87"/>
<polygon fill="black" stroke="black" stroke-width="2.03" points="514.2,-297.37 524.2,-293.87 514.2,-290.37 514.2,-297.37"/>
<text text-anchor="middle" x="470.9" y="-282.67" font-family="Times,serif" font-size="14.00">nylon*34240</text>
</g>
<!-- 6,4 (Electronic components) -->
<g id="node3" class="node">
<title>6,4 (Electronic components)</title>
<ellipse fill="none" stroke="black" cx="141.69" cy="-549.13" rx="141.88" ry="18"/>
<text text-anchor="middle" x="141.69" y="-545.43" font-family="Times,serif" font-size="14.00">6,4 (Electronic components)</text>
</g>
<!-- 8,3 (Nylon mk2)&#45;&gt;6,4 (Electronic components) -->
<g id="edge2" class="edge">
<title>8,3 (Nylon mk2)&#45;&gt;6,4 (Electronic components)</title>
<path fill="none" stroke="black" stroke-width="0.37" d="M286.14,-311.82C259.29,-355.93 189.96,-469.82 158.12,-522.13"/>
<polygon fill="black" stroke="black" stroke-width="0.37" points="155.02,-520.5 152.81,-530.86 161,-524.14 155.02,-520.5"/>
<text text-anchor="middle" x="181.13" y="-420.77" font-family="Times,serif" font-size="14.00">nylon*6320</text>
</g>
<!-- &#45;5,2 (Optical fiber) -->
<g id="node4" class="node">
<title>&#45;5,2 (Optical fiber)</title>
<ellipse fill="none" stroke="black" cx="182.2" cy="-18" rx="96.38" ry="18"/>
<text text-anchor="middle" x="182.2" y="-14.3" font-family="Times,serif" font-size="14.00">&#45;5,2 (Optical fiber)</text>
</g>
<!-- 8,3 (Nylon mk2)&#45;&gt;&#45;5,2 (Optical fiber) -->
<g id="edge3" class="edge">
<title>8,3 (Nylon mk2)&#45;&gt;&#45;5,2 (Optical fiber)</title>
<path fill="none" stroke="black" stroke-width="0.6" d="M289.53,-275.77C269.89,-228.62 217.07,-101.75 193.65,-45.5"/>
<polygon fill="black" stroke="black" stroke-width="0.6" points="196.84,-44.05 189.76,-36.17 190.37,-46.74 196.84,-44.05"/>
<text text-anchor="middle" x="196.09" y="-164.44" font-family="Times,serif" font-size="14.00">nylon*10080</text>
</g>
</g>
</svg>
