<?xml version="1.0" encoding="UTF-8" standalone="no"?>
<!DOCTYPE svg PUBLIC "-//W3C//DTD SVG 1.1//EN"
 "http://www.w3.org/Graphics/SVG/1.1/DTD/svg11.dtd">
<!-- Generated by graphviz version 2.43.0 (0)
 -->
<!-- Title: %3 Pages: 1 -->
<svg width="698pt" height="639pt"
 viewBox="0.00 0.00 698.12 638.68" xmlns="http://www.w3.org/2000/svg" xmlns:xlink="http://www.w3.org/1999/xlink">
<g id="graph0" class="graph" transform="scale(1 1) rotate(0) translate(4 634.68)">
<title>%3</title>
<polygon fill="white" stroke="transparent" points="-4,4 -4,-634.68 694.12,-634.68 694.12,4 -4,4"/>
<!-- 2,&#45;2 (Tin Plate, Organic Solvent) -->
<g id="node1" class="node">
<title>2,&#45;2 (Tin Plate, Organic Solvent)</title>
<ellipse fill="none" stroke="black" cx="280.8" cy="-313.03" rx="159.77" ry="18"/>
<text text-anchor="middle" x="280.8" y="-309.33" font-family="Times,serif" font-size="14.00">2,&#45;2 (Tin Plate, Organic Solvent)</text>
</g>
<!-- 0,0 (LE BUS) -->
<g id="node2" class="node">
<title>0,0 (LE BUS)</title>
<ellipse fill="none" stroke="black" cx="618.62" cy="-313.03" rx="71.49" ry="18"/>
<text text-anchor="middle" x="618.62" y="-309.33" font-family="Times,serif" font-size="14.00">0,0 (LE BUS)</text>
</g>
<!-- 2,&#45;2 (Tin Plate, Organic Solvent)&#45;&gt;0,0 (LE BUS) -->
<g id="edge1" class="edge">
<title>2,&#45;2 (Tin Plate, Organic Solvent)&#45;&gt;0,0 (LE BUS)</title>
<path fill="none" stroke="black" stroke-width="2.07" d="M440.81,-313.03C474.06,-313.03 507.78,-313.03 536.79,-313.03"/>
<polygon fill="black" stroke="black" stroke-width="2.07" points="536.84,-316.53 546.84,-313.03 536.84,-309.53 536.84,-316.53"/>
<text text-anchor="middle" x="488.8" y="-301.83" font-family="Times,serif" font-size="14.00">organic&#45;solvent&#45;barrel*9744</text>
</g>
<!-- &#45;5,2 (Optical fiber) -->
<g id="node3" class="node">
<title>&#45;5,2 (Optical fiber)</title>
<ellipse fill="none" stroke="black" cx="124.8" cy="-612.68" rx="96.38" ry="18"/>
<text text-anchor="middle" x="124.8" y="-608.98" font-family="Times,serif" font-size="14.00">&#45;5,2 (Optical fiber)</text>
</g>
<!-- 2,&#45;2 (Tin Plate, Organic Solvent)&#45;&gt;&#45;5,2 (Optical fiber) -->
<g id="edge2" class="edge">
<title>2,&#45;2 (Tin Plate, Organic Solvent)&#45;&gt;&#45;5,2 (Optical fiber)</title>
<path fill="none" stroke="black" stroke-width="0.56" d="M271.27,-331.32C244.77,-382.22 170.08,-525.69 138.83,-585.73"/>
<polygon fill="black" stroke="black" stroke-width="0.56" points="135.71,-584.14 134.2,-594.62 141.92,-587.37 135.71,-584.14"/>
<text text-anchor="middle" x="104.55" y="-462.33" font-family="Times,serif" font-size="14.00">organic&#45;solvent&#45;barrel*2608</text>
</g>
<!-- 2,1 (Niobium plates) -->
<g id="node4" class="node">
<title>2,1 (Niobium plates)</title>
<ellipse fill="none" stroke="black" cx="116.22" cy="-18" rx="105.88" ry="18"/>
<text text-anchor="middle" x="116.22" y="-14.3" font-family="Times,serif" font-size="14.00">2,1 (Niobium plates)</text>
</g>
<!-- 2,&#45;2 (Tin Plate, Organic Solvent)&#45;&gt;2,1 (Niobium plates) -->
<g id="edge3" class="edge">
<title>2,&#45;2 (Tin Plate, Organic Solvent)&#45;&gt;2,1 (Niobium plates)</title>
<path fill="none" stroke="black" stroke-width="0.37" d="M270.75,-295.01C242.86,-245.02 164.37,-104.31 131.25,-44.95"/>
<polygon fill="black" stroke="black" stroke-width="0.37" points="134.27,-43.18 126.34,-36.15 128.16,-46.59 134.27,-43.18"/>
<text text-anchor="middle" x="100.5" y="-173.78" font-family="Times,serif" font-size="14.00">organic&#45;solvent&#45;barrel*1744</text>
</g>
</g>
</svg>
