<?xml version="1.0" encoding="UTF-8" standalone="no"?>
<!DOCTYPE svg PUBLIC "-//W3C//DTD SVG 1.1//EN"
 "http://www.w3.org/Graphics/SVG/1.1/DTD/svg11.dtd">
<!-- Generated by graphviz version 2.43.0 (0)
 -->
<!-- Title: %3 Pages: 1 -->
<svg width="911pt" height="523pt"
 viewBox="0.00 0.00 911.49 522.96" xmlns="http://www.w3.org/2000/svg" xmlns:xlink="http://www.w3.org/1999/xlink">
<g id="graph0" class="graph" transform="scale(1 1) rotate(0) translate(4 518.96)">
<title>%3</title>
<polygon fill="white" stroke="transparent" points="-4,4 -4,-518.96 907.49,-518.96 907.49,4 -4,4"/>
<!-- 4,2 (More fiberboard) -->
<g id="node1" class="node">
<title>4,2 (More fiberboard)</title>
<ellipse fill="none" stroke="black" cx="631.04" cy="-257.48" rx="111.28" ry="18"/>
<text text-anchor="middle" x="631.04" y="-253.78" font-family="Times,serif" font-size="14.00">4,2 (More fiberboard)</text>
</g>
<!-- &#45;2,&#45;3 (Trains) -->
<g id="node2" class="node">
<title>&#45;2,&#45;3 (Trains)</title>
<ellipse fill="none" stroke="black" cx="773.24" cy="-257.48" rx="70.39" ry="18"/>
<text text-anchor="middle" x="773.24" y="-253.78" font-family="Times,serif" font-size="14.00">&#45;2,&#45;3 (Trains)</text>
</g>
<!-- 4,2 (More fiberboard)&#45;&gt;&#45;2,&#45;3 (Trains) -->
<g id="edge1" class="edge">
<title>4,2 (More fiberboard)&#45;&gt;&#45;2,&#45;3 (Trains)</title>
<path fill="none" stroke="black" stroke-width="3.67" d="M742.38,-257.48C742.45,-257.48 742.53,-257.48 742.6,-257.48"/>
<polygon fill="black" stroke="black" stroke-width="3.67" points="732.81,-260.98 742.81,-257.48 732.8,-253.98 732.81,-260.98"/>
<text text-anchor="middle" x="822.99" y="-261.28" font-family="Times,serif" font-size="14.00">creosote&#45;barrel*25000</text>
</g>
<!-- 4,&#45;1 (Fluid) -->
<g id="node4" class="node">
<title>4,&#45;1 (Fluid)</title>
<ellipse fill="none" stroke="black" cx="391.57" cy="-18" rx="61.99" ry="18"/>
<text text-anchor="middle" x="391.57" y="-14.3" font-family="Times,serif" font-size="14.00">4,&#45;1 (Fluid)</text>
</g>
<!-- 4,2 (More fiberboard)&#45;&gt;4,&#45;1 (Fluid) -->
<g id="edge3" class="edge">
<title>4,2 (More fiberboard)&#45;&gt;4,&#45;1 (Fluid)</title>
<path fill="none" stroke="black" stroke-width="0.15" d="M613.04,-239.48C570.71,-197.15 464.77,-91.2 416.38,-42.81"/>
<polygon fill="black" stroke="black" stroke-width="0.15" points="418.67,-40.15 409.12,-35.56 413.72,-45.1 418.67,-40.15"/>
<text text-anchor="middle" x="438.71" y="-144.95" font-family="Times,serif" font-size="14.00">creosote&#45;barrel*1000</text>
</g>
<!-- 5,&#45;2 (Lubricant) -->
<g id="node5" class="node">
<title>5,&#45;2 (Lubricant)</title>
<ellipse fill="none" stroke="black" cx="391.57" cy="-496.96" rx="83.39" ry="18"/>
<text text-anchor="middle" x="391.57" y="-493.26" font-family="Times,serif" font-size="14.00">5,&#45;2 (Lubricant)</text>
</g>
<!-- 4,2 (More fiberboard)&#45;&gt;5,&#45;2 (Lubricant) -->
<g id="edge5" class="edge">
<title>4,2 (More fiberboard)&#45;&gt;5,&#45;2 (Lubricant)</title>
<path fill="none" stroke="black" stroke-width="0.2" d="M613.04,-275.48C570.81,-317.71 465.29,-423.24 416.73,-471.79"/>
<polygon fill="black" stroke="black" stroke-width="0.2" points="414.04,-469.53 409.45,-479.08 418.99,-474.48 414.04,-469.53"/>
<text text-anchor="middle" x="438.89" y="-377.44" font-family="Times,serif" font-size="14.00">creosote&#45;barrel*1368</text>
</g>
<!-- &#45;1,5 (Train stops for bus brick) -->
<g id="node3" class="node">
<title>&#45;1,5 (Train stops for bus brick)</title>
<ellipse fill="none" stroke="black" cx="152.09" cy="-257.48" rx="152.17" ry="18"/>
<text text-anchor="middle" x="152.09" y="-253.78" font-family="Times,serif" font-size="14.00">&#45;1,5 (Train stops for bus brick)</text>
</g>
<!-- &#45;1,5 (Train stops for bus brick)&#45;&gt;4,&#45;1 (Fluid) -->
<g id="edge2" class="edge">
<title>&#45;1,5 (Train stops for bus brick)&#45;&gt;4,&#45;1 (Fluid)</title>
<path fill="none" stroke="black" stroke-width="0.59" d="M170.09,-239.48C212.42,-197.15 318.36,-91.2 366.75,-42.81"/>
<polygon fill="black" stroke="black" stroke-width="0.59" points="369.41,-45.1 374.01,-35.56 364.46,-40.15 369.41,-45.1"/>
<text text-anchor="middle" x="192.42" y="-144.95" font-family="Times,serif" font-size="14.00">creosote&#45;barrel*4000</text>
</g>
<!-- &#45;1,5 (Train stops for bus brick)&#45;&gt;5,&#45;2 (Lubricant) -->
<g id="edge4" class="edge">
<title>&#45;1,5 (Train stops for bus brick)&#45;&gt;5,&#45;2 (Lubricant)</title>
<path fill="none" stroke="black" stroke-width="0.4" d="M170.09,-275.48C212.32,-317.71 317.85,-423.24 366.4,-471.79"/>
<polygon fill="black" stroke="black" stroke-width="0.4" points="364.14,-474.48 373.68,-479.08 369.09,-469.53 364.14,-474.48"/>
<text text-anchor="middle" x="192.24" y="-377.44" font-family="Times,serif" font-size="14.00">creosote&#45;barrel*2720</text>
</g>
</g>
</svg>
