<?xml version="1.0" encoding="UTF-8" standalone="no"?>
<!DOCTYPE svg PUBLIC "-//W3C//DTD SVG 1.1//EN"
 "http://www.w3.org/Graphics/SVG/1.1/DTD/svg11.dtd">
<!-- Generated by graphviz version 2.43.0 (0)
 -->
<!-- Title: %3 Pages: 1 -->
<svg width="954pt" height="768pt"
 viewBox="0.00 0.00 954.18 767.75" xmlns="http://www.w3.org/2000/svg" xmlns:xlink="http://www.w3.org/1999/xlink">
<g id="graph0" class="graph" transform="scale(1 1) rotate(0) translate(4 763.75)">
<title>%3</title>
<polygon fill="white" stroke="transparent" points="-4,4 -4,-763.75 950.18,-763.75 950.18,4 -4,4"/>
<!-- 4,13 (Chromium processing) -->
<g id="node1" class="node">
<title>4,13 (Chromium processing)</title>
<ellipse fill="none" stroke="black" cx="450.42" cy="-411.78" rx="142.97" ry="18"/>
<text text-anchor="middle" x="450.42" y="-408.08" font-family="Times,serif" font-size="14.00">4,13 (Chromium processing)</text>
</g>
<!-- 2,&#45;1 (Ammonia) -->
<g id="node2" class="node">
<title>2,&#45;1 (Ammonia)</title>
<ellipse fill="none" stroke="black" cx="864.94" cy="-411.78" rx="81.49" ry="18"/>
<text text-anchor="middle" x="864.94" y="-408.08" font-family="Times,serif" font-size="14.00">2,&#45;1 (Ammonia)</text>
</g>
<!-- 4,13 (Chromium processing)&#45;&gt;2,&#45;1 (Ammonia) -->
<g id="edge1" class="edge">
<title>4,13 (Chromium processing)&#45;&gt;2,&#45;1 (Ammonia)</title>
<path fill="none" stroke="black" stroke-width="1.65" d="M593.65,-411.78C653.34,-411.78 720.89,-411.78 773.65,-411.78"/>
<polygon fill="black" stroke="black" stroke-width="1.65" points="773.66,-415.28 783.66,-411.78 773.66,-408.28 773.66,-415.28"/>
<text text-anchor="middle" x="714.65" y="-400.58" font-family="Times,serif" font-size="14.00">chromium*26880</text>
</g>
<!-- 4,6 (Circuit substrate and Doped silicon) -->
<g id="node3" class="node">
<title>4,6 (Circuit substrate and Doped silicon)</title>
<ellipse fill="none" stroke="black" cx="199.53" cy="-741.75" rx="199.56" ry="18"/>
<text text-anchor="middle" x="199.53" y="-738.05" font-family="Times,serif" font-size="14.00">4,6 (Circuit substrate and Doped silicon)</text>
</g>
<!-- 4,13 (Chromium processing)&#45;&gt;4,6 (Circuit substrate and Doped silicon) -->
<g id="edge2" class="edge">
<title>4,13 (Chromium processing)&#45;&gt;4,6 (Circuit substrate and Doped silicon)</title>
<path fill="none" stroke="black" stroke-width="1.22" d="M436.57,-429.99C394.59,-485.2 268.62,-650.88 219.48,-715.52"/>
<polygon fill="black" stroke="black" stroke-width="1.22" points="216.6,-713.52 213.34,-723.6 222.17,-717.75 216.6,-713.52"/>
<text text-anchor="middle" x="266.03" y="-576.56" font-family="Times,serif" font-size="14.00">chromium*20000</text>
</g>
<!-- 4,&#45;1 (Fluid) -->
<g id="node4" class="node">
<title>4,&#45;1 (Fluid)</title>
<ellipse fill="none" stroke="black" cx="320.94" cy="-18" rx="61.99" ry="18"/>
<text text-anchor="middle" x="320.94" y="-14.3" font-family="Times,serif" font-size="14.00">4,&#45;1 (Fluid)</text>
</g>
<!-- 4,13 (Chromium processing)&#45;&gt;4,&#45;1 (Fluid) -->
<g id="edge3" class="edge">
<title>4,13 (Chromium processing)&#45;&gt;4,&#45;1 (Fluid)</title>
<path fill="none" stroke="black" stroke-width="0.13" d="M444.43,-393.58C423.72,-330.59 355.01,-121.63 330.08,-45.8"/>
<polygon fill="black" stroke="black" stroke-width="0.13" points="333.31,-44.42 326.86,-36.01 326.66,-46.6 333.31,-44.42"/>
<text text-anchor="middle" x="329.76" y="-223.49" font-family="Times,serif" font-size="14.00">chromium*2120</text>
</g>
</g>
</svg>
