<?xml version="1.0" encoding="UTF-8" standalone="no"?>
<!DOCTYPE svg PUBLIC "-//W3C//DTD SVG 1.1//EN"
 "http://www.w3.org/Graphics/SVG/1.1/DTD/svg11.dtd">
<!-- Generated by graphviz version 2.43.0 (0)
 -->
<!-- Title: %3 Pages: 1 -->
<svg width="1027pt" height="757pt"
 viewBox="0.00 0.00 1027.35 757.03" xmlns="http://www.w3.org/2000/svg" xmlns:xlink="http://www.w3.org/1999/xlink">
<g id="graph0" class="graph" transform="scale(1 1) rotate(0) translate(4 753.03)">
<title>%3</title>
<polygon fill="white" stroke="transparent" points="-4,4 -4,-753.03 1023.35,-753.03 1023.35,4 -4,4"/>
<!-- 4,&#45;8 (REOOOOOOOOOOOOOO) -->
<g id="node1" class="node">
<title>4,&#45;8 (REOOOOOOOOOOOOOO)</title>
<ellipse fill="none" stroke="black" cx="560.8" cy="-18" rx="154.07" ry="18"/>
<text text-anchor="middle" x="560.8" y="-14.3" font-family="Times,serif" font-size="14.00">4,&#45;8 (REOOOOOOOOOOOOOO)</text>
</g>
<!-- 0,0 (LE BUS) -->
<g id="node2" class="node">
<title>0,0 (LE BUS)</title>
<ellipse fill="none" stroke="black" cx="141.69" cy="-154.18" rx="71.49" ry="18"/>
<text text-anchor="middle" x="141.69" y="-150.48" font-family="Times,serif" font-size="14.00">0,0 (LE BUS)</text>
</g>
<!-- 4,&#45;8 (REOOOOOOOOOOOOOO)&#45;&gt;0,0 (LE BUS) -->
<g id="edge1" class="edge">
<title>4,&#45;8 (REOOOOOOOOOOOOOO)&#45;&gt;0,0 (LE BUS)</title>
<path fill="none" stroke="black" stroke-width="0.41" d="M508.56,-34.97C428.6,-60.95 276.61,-110.34 195.63,-136.65"/>
<polygon fill="black" stroke="black" stroke-width="0.41" points="194.07,-133.48 185.64,-139.89 196.23,-140.13 194.07,-133.48"/>
<text text-anchor="middle" x="318.6" y="-89.61" font-family="Times,serif" font-size="14.00">reo*7200</text>
</g>
<!-- 4,6 (Circuit substrate and Doped silicon) -->
<g id="node3" class="node">
<title>4,6 (Circuit substrate and Doped silicon)</title>
<ellipse fill="none" stroke="black" cx="819.82" cy="-374.51" rx="199.56" ry="18"/>
<text text-anchor="middle" x="819.82" y="-370.81" font-family="Times,serif" font-size="14.00">4,6 (Circuit substrate and Doped silicon)</text>
</g>
<!-- 4,&#45;8 (REOOOOOOOOOOOOOO)&#45;&gt;4,6 (Circuit substrate and Doped silicon) -->
<g id="edge2" class="edge">
<title>4,&#45;8 (REOOOOOOOOOOOOOO)&#45;&gt;4,6 (Circuit substrate and Doped silicon)</title>
<path fill="none" stroke="black" stroke-width="1.66" d="M574,-36.17C616.61,-94.82 750.62,-279.27 800.69,-348.19"/>
<polygon fill="black" stroke="black" stroke-width="1.66" points="797.93,-350.35 806.64,-356.38 803.6,-346.23 797.93,-350.35"/>
<text text-anchor="middle" x="649.34" y="-195.98" font-family="Times,serif" font-size="14.00">reo*29440</text>
</g>
<!-- 6,4 (Electronic components) -->
<g id="node5" class="node">
<title>6,4 (Electronic components)</title>
<ellipse fill="none" stroke="black" cx="141.69" cy="-594.85" rx="141.88" ry="18"/>
<text text-anchor="middle" x="141.69" y="-591.15" font-family="Times,serif" font-size="14.00">6,4 (Electronic components)</text>
</g>
<!-- 4,&#45;8 (REOOOOOOOOOOOOOO)&#45;&gt;6,4 (Electronic components) -->
<g id="edge6" class="edge">
<title>4,&#45;8 (REOOOOOOOOOOOOOO)&#45;&gt;6,4 (Electronic components)</title>
<path fill="none" stroke="black" stroke-width="0.12" d="M547.56,-36.22C486.58,-120.15 232.6,-469.72 160.72,-568.66"/>
<polygon fill="black" stroke="black" stroke-width="0.12" points="157.76,-566.77 154.72,-576.92 163.43,-570.88 157.76,-566.77"/>
<text text-anchor="middle" x="320.64" y="-306.24" font-family="Times,serif" font-size="14.00">reo*2160</text>
</g>
<!-- &#45;2,5 (Rare Earth Oxides) -->
<g id="node4" class="node">
<title>&#45;2,5 (Rare Earth Oxides)</title>
<ellipse fill="none" stroke="black" cx="560.8" cy="-731.03" rx="124.28" ry="18"/>
<text text-anchor="middle" x="560.8" y="-727.33" font-family="Times,serif" font-size="14.00">&#45;2,5 (Rare Earth Oxides)</text>
</g>
<!-- &#45;2,5 (Rare Earth Oxides)&#45;&gt;0,0 (LE BUS) -->
<g id="edge4" class="edge">
<title>&#45;2,5 (Rare Earth Oxides)&#45;&gt;0,0 (LE BUS)</title>
<path fill="none" stroke="black" stroke-width="1.93" d="M547.56,-712.81C486.58,-628.88 232.6,-279.31 160.72,-180.37"/>
<polygon fill="black" stroke="black" stroke-width="1.93" points="163.43,-178.14 154.72,-172.11 157.76,-182.26 163.43,-178.14"/>
<text text-anchor="middle" x="316.14" y="-450.39" font-family="Times,serif" font-size="14.00">reo*34176</text>
</g>
<!-- &#45;2,5 (Rare Earth Oxides)&#45;&gt;4,6 (Circuit substrate and Doped silicon) -->
<g id="edge3" class="edge">
<title>&#45;2,5 (Rare Earth Oxides)&#45;&gt;4,6 (Circuit substrate and Doped silicon)</title>
<path fill="none" stroke="black" stroke-width="1.39" d="M574,-712.86C616.61,-654.21 750.62,-469.76 800.69,-400.84"/>
<polygon fill="black" stroke="black" stroke-width="1.39" points="803.6,-402.79 806.64,-392.65 797.93,-398.68 803.6,-402.79"/>
<text text-anchor="middle" x="649.34" y="-560.65" font-family="Times,serif" font-size="14.00">reo*24544</text>
</g>
<!-- &#45;2,5 (Rare Earth Oxides)&#45;&gt;6,4 (Electronic components) -->
<g id="edge5" class="edge">
<title>&#45;2,5 (Rare Earth Oxides)&#45;&gt;6,4 (Electronic components)</title>
<path fill="none" stroke="black" stroke-width="0.48" d="M509.82,-714.47C432.5,-689.34 285.79,-641.67 202.83,-614.72"/>
<polygon fill="black" stroke="black" stroke-width="0.48" points="203.88,-611.38 193.29,-611.62 201.72,-618.04 203.88,-611.38"/>
<text text-anchor="middle" x="322.83" y="-668.39" font-family="Times,serif" font-size="14.00">reo*8576</text>
</g>
</g>
</svg>
