<?xml version="1.0" encoding="UTF-8" standalone="no"?>
<!DOCTYPE svg PUBLIC "-//W3C//DTD SVG 1.1//EN"
 "http://www.w3.org/Graphics/SVG/1.1/DTD/svg11.dtd">
<!-- Generated by graphviz version 2.43.0 (0)
 -->
<!-- Title: %3 Pages: 1 -->
<svg width="1014pt" height="44pt"
 viewBox="0.00 0.00 1014.47 44.00" xmlns="http://www.w3.org/2000/svg" xmlns:xlink="http://www.w3.org/1999/xlink">
<g id="graph0" class="graph" transform="scale(1 1) rotate(0) translate(4 40)">
<title>%3</title>
<polygon fill="white" stroke="transparent" points="-4,4 -4,-40 1010.47,-40 1010.47,4 -4,4"/>
<!-- 2,10 (Nickel plate) -->
<g id="node1" class="node">
<title>2,10 (Nickel plate)</title>
<ellipse fill="none" stroke="black" cx="567.91" cy="-18" rx="96.68" ry="18"/>
<text text-anchor="middle" x="567.91" y="-14.3" font-family="Times,serif" font-size="14.00">2,10 (Nickel plate)</text>
</g>
<!-- &#45;2,&#45;3 (Trains) -->
<g id="node2" class="node">
<title>&#45;2,&#45;3 (Trains)</title>
<ellipse fill="none" stroke="black" cx="936.28" cy="-18" rx="70.39" ry="18"/>
<text text-anchor="middle" x="936.28" y="-14.3" font-family="Times,serif" font-size="14.00">&#45;2,&#45;3 (Trains)</text>
</g>
<!-- 2,10 (Nickel plate)&#45;&gt;&#45;2,&#45;3 (Trains) -->
<g id="edge1" class="edge">
<title>2,10 (Nickel plate)&#45;&gt;&#45;2,&#45;3 (Trains)</title>
<path fill="none" stroke="black" stroke-width="1.18" d="M665.17,-18C724.57,-18 799.62,-18 855.69,-18"/>
<polygon fill="black" stroke="black" stroke-width="1.18" points="855.93,-21.5 865.93,-18 855.93,-14.5 855.93,-21.5"/>
<text text-anchor="middle" x="789.18" y="-6.8" font-family="Times,serif" font-size="14.00">chromium*7152</text>
</g>
<!-- 4,6 (Circuit substrate and Doped silicon) -->
<g id="node3" class="node">
<title>4,6 (Circuit substrate and Doped silicon)</title>
<ellipse fill="none" stroke="black" cx="199.53" cy="-18" rx="199.56" ry="18"/>
<text text-anchor="middle" x="199.53" y="-14.3" font-family="Times,serif" font-size="14.00">4,6 (Circuit substrate and Doped silicon)</text>
</g>
<!-- 2,10 (Nickel plate)&#45;&gt;4,6 (Circuit substrate and Doped silicon) -->
<g id="edge2" class="edge">
<title>2,10 (Nickel plate)&#45;&gt;4,6 (Circuit substrate and Doped silicon)</title>
<path fill="none" stroke="black" stroke-width="0.82" d="M470.64,-18C451.5,-18 430.74,-18 409.51,-18"/>
<polygon fill="black" stroke="black" stroke-width="0.82" points="409.39,-14.5 399.39,-18 409.39,-21.5 409.39,-14.5"/>
<text text-anchor="middle" x="411.32" y="-6.8" font-family="Times,serif" font-size="14.00">chromium*5008</text>
</g>
</g>
</svg>
