<?xml version="1.0" encoding="UTF-8" standalone="no"?>
<!DOCTYPE svg PUBLIC "-//W3C//DTD SVG 1.1//EN"
 "http://www.w3.org/Graphics/SVG/1.1/DTD/svg11.dtd">
<!-- Generated by graphviz version 2.43.0 (0)
 -->
<!-- Title: %3 Pages: 1 -->
<svg width="1183pt" height="1023pt"
 viewBox="0.00 0.00 1183.30 1022.60" xmlns="http://www.w3.org/2000/svg" xmlns:xlink="http://www.w3.org/1999/xlink">
<g id="graph0" class="graph" transform="scale(1 1) rotate(0) translate(4 1018.6)">
<title>%3</title>
<polygon fill="white" stroke="transparent" points="-4,4 -4,-1018.6 1179.3,-1018.6 1179.3,4 -4,4"/>
<!-- 3,7 (Wood) -->
<g id="node1" class="node">
<title>3,7 (Wood)</title>
<ellipse fill="none" stroke="black" cx="694.44" cy="-548.3" rx="61.19" ry="18"/>
<text text-anchor="middle" x="694.44" y="-544.6" font-family="Times,serif" font-size="14.00">3,7 (Wood)</text>
</g>
<!-- 6,&#45;2 (item=yaedols Yaedlols (self priming)) -->
<g id="node2" class="node">
<title>6,&#45;2 (item=yaedols Yaedlols (self priming))</title>
<ellipse fill="none" stroke="black" cx="382.97" cy="-236.83" rx="208.76" ry="18"/>
<text text-anchor="middle" x="382.97" y="-233.13" font-family="Times,serif" font-size="14.00">6,&#45;2 (item=yaedols Yaedlols (self priming))</text>
</g>
<!-- 3,7 (Wood)&#45;&gt;6,&#45;2 (item=yaedols Yaedlols (self priming)) -->
<g id="edge1" class="edge">
<title>3,7 (Wood)&#45;&gt;6,&#45;2 (item=yaedols Yaedlols (self priming))</title>
<path fill="none" stroke="black" stroke-width="3.09" d="M676.8,-530.66C624.48,-478.34 469.94,-323.8 408.54,-262.4"/>
<polygon fill="black" stroke="black" stroke-width="3.09" points="410.74,-259.65 401.19,-255.05 405.79,-264.6 410.74,-259.65"/>
<text text-anchor="middle" x="497.67" y="-400.33" font-family="Times,serif" font-size="14.00">wood*50160</text>
</g>
<!-- &#45;6,4 (Urea) -->
<g id="node3" class="node">
<title>&#45;6,4 (Urea)</title>
<ellipse fill="none" stroke="black" cx="647.8" cy="-18" rx="61.19" ry="18"/>
<text text-anchor="middle" x="647.8" y="-14.3" font-family="Times,serif" font-size="14.00">&#45;6,4 (Urea)</text>
</g>
<!-- 3,7 (Wood)&#45;&gt;&#45;6,4 (Urea) -->
<g id="edge2" class="edge">
<title>3,7 (Wood)&#45;&gt;&#45;6,4 (Urea)</title>
<path fill="none" stroke="black" stroke-width="1.24" d="M692.84,-530.05C685.93,-451.48 658.69,-141.82 650.29,-46.25"/>
<polygon fill="black" stroke="black" stroke-width="1.24" points="653.77,-45.83 649.4,-36.18 646.79,-46.45 653.77,-45.83"/>
<text text-anchor="middle" x="626.56" y="-291.95" font-family="Times,serif" font-size="14.00">wood*20080</text>
</g>
<!-- 0,0 (LE BUS) -->
<g id="node4" class="node">
<title>0,0 (LE BUS)</title>
<ellipse fill="none" stroke="black" cx="71.49" cy="-548.3" rx="71.49" ry="18"/>
<text text-anchor="middle" x="71.49" y="-544.6" font-family="Times,serif" font-size="14.00">0,0 (LE BUS)</text>
</g>
<!-- 3,7 (Wood)&#45;&gt;0,0 (LE BUS) -->
<g id="edge3" class="edge">
<title>3,7 (Wood)&#45;&gt;0,0 (LE BUS)</title>
<path fill="none" stroke="black" stroke-width="1.3" d="M633.29,-548.3C520.62,-548.3 280.2,-548.3 153.51,-548.3"/>
<polygon fill="black" stroke="black" stroke-width="1.3" points="153.47,-544.8 143.47,-548.3 153.47,-551.8 153.47,-544.8"/>
<text text-anchor="middle" x="348.4" y="-552.1" font-family="Times,serif" font-size="14.00">wood*21040</text>
</g>
<!-- 5,8 (Ulric Food) -->
<g id="node5" class="node">
<title>5,8 (Ulric Food)</title>
<ellipse fill="none" stroke="black" cx="382.97" cy="-859.78" rx="83.39" ry="18"/>
<text text-anchor="middle" x="382.97" y="-856.08" font-family="Times,serif" font-size="14.00">5,8 (Ulric Food)</text>
</g>
<!-- 3,7 (Wood)&#45;&gt;5,8 (Ulric Food) -->
<g id="edge8" class="edge">
<title>3,7 (Wood)&#45;&gt;5,8 (Ulric Food)</title>
<path fill="none" stroke="black" stroke-width="0.56" d="M676.8,-565.94C624.35,-618.39 469.21,-773.53 408.11,-834.64"/>
<polygon fill="black" stroke="black" stroke-width="0.56" points="405.4,-832.4 400.8,-841.95 410.35,-837.35 405.4,-832.4"/>
<text text-anchor="middle" x="501.96" y="-704.09" font-family="Times,serif" font-size="14.00">wood*9040</text>
</g>
<!-- &#45;3,4 (Lard from Cottonguts) -->
<g id="node6" class="node">
<title>&#45;3,4 (Lard from Cottonguts)</title>
<ellipse fill="none" stroke="black" cx="855.41" cy="-190.31" rx="139.18" ry="18"/>
<text text-anchor="middle" x="855.41" y="-186.61" font-family="Times,serif" font-size="14.00">&#45;3,4 (Lard from Cottonguts)</text>
</g>
<!-- 3,7 (Wood)&#45;&gt;&#45;3,4 (Lard from Cottonguts) -->
<g id="edge5" class="edge">
<title>3,7 (Wood)&#45;&gt;&#45;3,4 (Lard from Cottonguts)</title>
<path fill="none" stroke="black" stroke-width="0.62" d="M702.65,-530.06C728.96,-471.53 811.39,-288.21 842.95,-218.02"/>
<polygon fill="black" stroke="black" stroke-width="0.62" points="846.31,-219.07 847.22,-208.52 839.93,-216.2 846.31,-219.07"/>
<text text-anchor="middle" x="727.8" y="-377.84" font-family="Times,serif" font-size="14.00">wood*10000</text>
</g>
<!-- 3,6 (Phosphoric Acid and Phosphine gas) -->
<g id="node7" class="node">
<title>3,6 (Phosphoric Acid and Phosphine gas)</title>
<ellipse fill="none" stroke="black" cx="975.11" cy="-575.19" rx="200.36" ry="18"/>
<text text-anchor="middle" x="975.11" y="-571.49" font-family="Times,serif" font-size="14.00">3,6 (Phosphoric Acid and Phosphine gas)</text>
</g>
<!-- 3,7 (Wood)&#45;&gt;3,6 (Phosphoric Acid and Phosphine gas) -->
<g id="edge6" class="edge">
<title>3,7 (Wood)&#45;&gt;3,6 (Phosphoric Acid and Phosphine gas)</title>
<path fill="none" stroke="black" stroke-width="0.62" d="M752.6,-553.88C774.74,-556 801.09,-558.52 827.78,-561.08"/>
<polygon fill="black" stroke="black" stroke-width="0.62" points="827.73,-564.59 838.02,-562.06 828.4,-557.62 827.73,-564.59"/>
<text text-anchor="middle" x="835.19" y="-546.28" font-family="Times,serif" font-size="14.00">wood*10080</text>
</g>
<!-- &#45;3,7 (item=sea&#45;sponge&#45;sprouts Also Borax) -->
<g id="node8" class="node">
<title>&#45;3,7 (item=sea&#45;sponge&#45;sprouts Also Borax)</title>
<ellipse fill="none" stroke="black" cx="770.77" cy="-996.6" rx="209.06" ry="18"/>
<text text-anchor="middle" x="770.77" y="-992.9" font-family="Times,serif" font-size="14.00">&#45;3,7 (item=sea&#45;sponge&#45;sprouts Also Borax)</text>
</g>
<!-- 3,7 (Wood)&#45;&gt;&#45;3,7 (item=sea&#45;sponge&#45;sprouts Also Borax) -->
<g id="edge7" class="edge">
<title>3,7 (Wood)&#45;&gt;&#45;3,7 (item=sea&#45;sponge&#45;sprouts Also Borax)</title>
<path fill="none" stroke="black" stroke-width="0.62" d="M697.53,-566.43C709.32,-635.71 751.6,-884.03 765.96,-968.35"/>
<polygon fill="black" stroke="black" stroke-width="0.62" points="762.51,-968.98 767.64,-978.25 769.42,-967.8 762.51,-968.98"/>
<text text-anchor="middle" x="686.74" y="-771.19" font-family="Times,serif" font-size="14.00">wood*10000</text>
</g>
<!-- 0,0 (LE BUS)&#45;&gt;6,&#45;2 (item=yaedols Yaedlols (self priming)) -->
<g id="edge9" class="edge">
<title>0,0 (LE BUS)&#45;&gt;6,&#45;2 (item=yaedols Yaedlols (self priming))</title>
<path fill="none" stroke="black" stroke-width="0.41" d="M89.13,-530.66C141.46,-478.34 295.99,-323.8 357.4,-262.4"/>
<polygon fill="black" stroke="black" stroke-width="0.41" points="360.15,-264.6 364.75,-255.05 355.2,-259.65 360.15,-264.6"/>
<text text-anchor="middle" x="182.76" y="-400.33" font-family="Times,serif" font-size="14.00">wood*6630</text>
</g>
<!-- 0,0 (LE BUS)&#45;&gt;5,8 (Ulric Food) -->
<g id="edge4" class="edge">
<title>0,0 (LE BUS)&#45;&gt;5,8 (Ulric Food)</title>
<path fill="none" stroke="black" stroke-width="0.56" d="M89.13,-565.94C141.58,-618.39 296.72,-773.53 357.83,-834.64"/>
<polygon fill="black" stroke="black" stroke-width="0.56" points="355.59,-837.35 365.14,-841.95 360.54,-832.4 355.59,-837.35"/>
<text text-anchor="middle" x="182.98" y="-704.09" font-family="Times,serif" font-size="14.00">wood*9060</text>
</g>
</g>
</svg>
