<?xml version="1.0" encoding="UTF-8" standalone="no"?>
<!DOCTYPE svg PUBLIC "-//W3C//DTD SVG 1.1//EN"
 "http://www.w3.org/Graphics/SVG/1.1/DTD/svg11.dtd">
<!-- Generated by graphviz version 2.43.0 (0)
 -->
<!-- Title: %3 Pages: 1 -->
<svg width="1265pt" height="982pt"
 viewBox="0.00 0.00 1265.16 982.36" xmlns="http://www.w3.org/2000/svg" xmlns:xlink="http://www.w3.org/1999/xlink">
<g id="graph0" class="graph" transform="scale(1 1) rotate(0) translate(4 978.36)">
<title>%3</title>
<polygon fill="white" stroke="transparent" points="-4,4 -4,-978.36 1261.16,-978.36 1261.16,4 -4,4"/>
<!-- 2,10 (Nickel plate and Nichrome) -->
<g id="node1" class="node">
<title>2,10 (Nickel plate and Nichrome)</title>
<ellipse fill="none" stroke="black" cx="717.85" cy="-488.45" rx="165.17" ry="18"/>
<text text-anchor="middle" x="717.85" y="-484.75" font-family="Times,serif" font-size="14.00">2,10 (Nickel plate and Nichrome)</text>
</g>
<!-- 4,&#45;1 (Fluid) -->
<g id="node2" class="node">
<title>4,&#45;1 (Fluid)</title>
<ellipse fill="none" stroke="black" cx="1195.41" cy="-488.45" rx="61.99" ry="18"/>
<text text-anchor="middle" x="1195.41" y="-484.75" font-family="Times,serif" font-size="14.00">4,&#45;1 (Fluid)</text>
</g>
<!-- 2,10 (Nickel plate and Nichrome)&#45;&gt;4,&#45;1 (Fluid) -->
<g id="edge1" class="edge">
<title>2,10 (Nickel plate and Nichrome)&#45;&gt;4,&#45;1 (Fluid)</title>
<path fill="none" stroke="black" stroke-width="0.92" d="M883.2,-488.45C965.15,-488.45 1059.88,-488.45 1123.31,-488.45"/>
<polygon fill="black" stroke="black" stroke-width="0.92" points="1123.6,-491.95 1133.6,-488.45 1123.6,-484.95 1123.6,-491.95"/>
<text text-anchor="middle" x="943.75" y="-492.25" font-family="Times,serif" font-size="14.00">nichrome*12720</text>
</g>
<!-- 0,0 (LE BUS) -->
<g id="node3" class="node">
<title>0,0 (LE BUS)</title>
<ellipse fill="none" stroke="black" cx="813.39" cy="-956.36" rx="71.49" ry="18"/>
<text text-anchor="middle" x="813.39" y="-952.66" font-family="Times,serif" font-size="14.00">0,0 (LE BUS)</text>
</g>
<!-- 2,10 (Nickel plate and Nichrome)&#45;&gt;0,0 (LE BUS) -->
<g id="edge2" class="edge">
<title>2,10 (Nickel plate and Nichrome)&#45;&gt;0,0 (LE BUS)</title>
<path fill="none" stroke="black" stroke-width="0.45" d="M721.53,-506.5C736.13,-578.01 789.97,-841.64 807.69,-928.44"/>
<polygon fill="black" stroke="black" stroke-width="0.45" points="804.28,-929.26 809.71,-938.36 811.14,-927.86 804.28,-929.26"/>
<text text-anchor="middle" x="709.61" y="-721.27" font-family="Times,serif" font-size="14.00">nichrome*6240</text>
</g>
<!-- 3,3 (Random electronic components, Small Parts) -->
<g id="node4" class="node">
<title>3,3 (Random electronic components, Small Parts)</title>
<ellipse fill="none" stroke="black" cx="240.48" cy="-502.1" rx="240.46" ry="18"/>
<text text-anchor="middle" x="240.48" y="-498.4" font-family="Times,serif" font-size="14.00">3,3 (Random electronic components, Small Parts)</text>
</g>
<!-- 2,10 (Nickel plate and Nichrome)&#45;&gt;3,3 (Random electronic components, Small Parts) -->
<g id="edge3" class="edge">
<title>2,10 (Nickel plate and Nichrome)&#45;&gt;3,3 (Random electronic components, Small Parts)</title>
<path fill="none" stroke="black" stroke-width="1.19" d="M557.89,-493.02C531.47,-493.78 503.6,-494.57 475.78,-495.37"/>
<polygon fill="black" stroke="black" stroke-width="1.19" points="475.44,-491.88 465.54,-495.66 475.64,-498.87 475.44,-491.88"/>
<text text-anchor="middle" x="487.09" y="-482.99" font-family="Times,serif" font-size="14.00">nichrome*16480</text>
</g>
<!-- 8,3 (Nylon mk2) -->
<g id="node5" class="node">
<title>8,3 (Nylon mk2)</title>
<ellipse fill="none" stroke="black" cx="799.98" cy="-18" rx="85.29" ry="18"/>
<text text-anchor="middle" x="799.98" y="-14.3" font-family="Times,serif" font-size="14.00">8,3 (Nylon mk2)</text>
</g>
<!-- 2,10 (Nickel plate and Nichrome)&#45;&gt;8,3 (Nylon mk2) -->
<g id="edge4" class="edge">
<title>2,10 (Nickel plate and Nichrome)&#45;&gt;8,3 (Nylon mk2)</title>
<path fill="none" stroke="black" stroke-width="1.44" d="M721.02,-470.29C733.57,-398.4 779.84,-133.34 795.08,-46.07"/>
<polygon fill="black" stroke="black" stroke-width="1.44" points="798.55,-46.55 796.82,-36.1 791.65,-45.35 798.55,-46.55"/>
<text text-anchor="middle" x="698.55" y="-261.98" font-family="Times,serif" font-size="14.00">nichrome*20000</text>
</g>
</g>
</svg>
