<?xml version="1.0" encoding="UTF-8" standalone="no"?>
<!DOCTYPE svg PUBLIC "-//W3C//DTD SVG 1.1//EN"
 "http://www.w3.org/Graphics/SVG/1.1/DTD/svg11.dtd">
<!-- Generated by graphviz version 2.43.0 (0)
 -->
<!-- Title: %3 Pages: 1 -->
<svg width="6824pt" height="6402pt"
 viewBox="0.00 0.00 6824.30 6402.45" xmlns="http://www.w3.org/2000/svg" xmlns:xlink="http://www.w3.org/1999/xlink">
<g id="graph0" class="graph" transform="scale(1 1) rotate(0) translate(4 6398.45)">
<title>%3</title>
<polygon fill="white" stroke="transparent" points="-4,4 -4,-6398.45 6820.3,-6398.45 6820.3,4 -4,4"/>
<!-- 0,11 () -->
<g id="node1" class="node">
<title>0,11 ()</title>
<ellipse fill="none" stroke="black" cx="6159.09" cy="-1708.91" rx="40.89" ry="18"/>
<text text-anchor="middle" x="6159.09" y="-1705.21" font-family="Times,serif" font-size="14.00">0,11 ()</text>
</g>
<!-- 2,2 () -->
<g id="node2" class="node">
<title>2,2 ()</title>
<ellipse fill="none" stroke="black" cx="5720.51" cy="-1073.53" rx="35.19" ry="18"/>
<text text-anchor="middle" x="5720.51" y="-1069.83" font-family="Times,serif" font-size="14.00">2,2 ()</text>
</g>
<!-- 0,11 ()&#45;&gt;2,2 () -->
<g id="edge1" class="edge">
<title>0,11 ()&#45;&gt;2,2 ()</title>
<path fill="none" stroke="black" stroke-width="0.76" d="M6147.13,-1691.59C6086.23,-1603.37 5810.65,-1204.11 5738.07,-1098.97"/>
<polygon fill="black" stroke="black" stroke-width="0.76" points="5740.81,-1096.78 5732.25,-1090.54 5735.05,-1100.76 5740.81,-1096.78"/>
<text text-anchor="middle" x="5882.1" y="-1399.08" font-family="Times,serif" font-size="14.00">iron&#45;plate*58360</text>
</g>
<!-- 4,4 (Hydrogen Chloride, item=nylon Nylon/Nylon parts) -->
<g id="node3" class="node">
<title>4,4 (Hydrogen Chloride, item=nylon Nylon/Nylon parts)</title>
<ellipse fill="none" stroke="black" cx="6432.86" cy="-2430.8" rx="271.05" ry="18"/>
<text text-anchor="middle" x="6432.86" y="-2427.1" font-family="Times,serif" font-size="14.00">4,4 (Hydrogen Chloride, item=nylon Nylon/Nylon parts)</text>
</g>
<!-- 0,11 ()&#45;&gt;4,4 (Hydrogen Chloride, item=nylon Nylon/Nylon parts) -->
<g id="edge2" class="edge">
<title>0,11 ()&#45;&gt;4,4 (Hydrogen Chloride, item=nylon Nylon/Nylon parts)</title>
<path fill="none" stroke="black" stroke-width="2.34" d="M6165.85,-1726.76C6202.54,-1823.49 6377.55,-2284.95 6422.38,-2403.16"/>
<polygon fill="black" stroke="black" stroke-width="2.34" points="6419.14,-2404.5 6425.96,-2412.61 6425.69,-2402.01 6419.14,-2404.5"/>
<text text-anchor="middle" x="6229.12" y="-2068.76" font-family="Times,serif" font-size="14.00">iron&#45;plate*181000</text>
</g>
<!-- 2,12 (Yet more coke) -->
<g id="node4" class="node">
<title>2,12 (Yet more coke)</title>
<ellipse fill="none" stroke="black" cx="5142.62" cy="-561.56" rx="106.68" ry="18"/>
<text text-anchor="middle" x="5142.62" y="-557.86" font-family="Times,serif" font-size="14.00">2,12 (Yet more coke)</text>
</g>
<!-- 0,11 ()&#45;&gt;2,12 (Yet more coke) -->
<g id="edge3" class="edge">
<title>0,11 ()&#45;&gt;2,12 (Yet more coke)</title>
<path fill="none" stroke="black" stroke-width="1.88" d="M6143.93,-1691.8C6029.65,-1562.81 5304.09,-743.83 5165.48,-587.37"/>
<polygon fill="black" stroke="black" stroke-width="1.88" points="5167.86,-584.78 5158.61,-579.61 5162.63,-589.42 5167.86,-584.78"/>
<text text-anchor="middle" x="5589.71" y="-1143.39" font-family="Times,serif" font-size="14.00">iron&#45;plate*145120</text>
</g>
<!-- 2,5 (Simple Circuits) -->
<g id="node5" class="node">
<title>2,5 (Simple Circuits)</title>
<ellipse fill="none" stroke="black" cx="4459" cy="-202.77" rx="106.68" ry="18"/>
<text text-anchor="middle" x="4459" y="-199.07" font-family="Times,serif" font-size="14.00">2,5 (Simple Circuits)</text>
</g>
<!-- 0,11 ()&#45;&gt;2,5 (Simple Circuits) -->
<g id="edge4" class="edge">
<title>0,11 ()&#45;&gt;2,5 (Simple Circuits)</title>
<path fill="none" stroke="black" stroke-width="0.48" d="M6140.86,-1692.77C5972.64,-1543.74 4692.18,-409.35 4486.76,-227.36"/>
<polygon fill="black" stroke="black" stroke-width="0.48" points="4488.92,-224.6 4479.11,-220.58 4484.27,-229.84 4488.92,-224.6"/>
<text text-anchor="middle" x="5253.31" y="-963.87" font-family="Times,serif" font-size="14.00">iron&#45;plate*37120</text>
</g>
<!-- 4,3 (item=nexelit&#45;plate Nexelit platery) -->
<g id="node6" class="node">
<title>4,3 (item=nexelit&#45;plate Nexelit platery)</title>
<ellipse fill="none" stroke="black" cx="3709.37" cy="-18" rx="194.17" ry="18"/>
<text text-anchor="middle" x="3709.37" y="-14.3" font-family="Times,serif" font-size="14.00">4,3 (item=nexelit&#45;plate Nexelit platery)</text>
</g>
<!-- 0,11 ()&#45;&gt;4,3 (item=nexelit&#45;plate Nexelit platery) -->
<g id="edge5" class="edge">
<title>0,11 ()&#45;&gt;4,3 (item=nexelit&#45;plate Nexelit platery)</title>
<path fill="none" stroke="black" stroke-width="0.4" d="M6136.78,-1693.52C5909.96,-1536.95 4023.8,-235.03 3744.01,-41.91"/>
<polygon fill="black" stroke="black" stroke-width="0.4" points="3745.69,-38.81 3735.47,-36.01 3741.71,-44.57 3745.69,-38.81"/>
<text text-anchor="middle" x="4879.9" y="-871.51" font-family="Times,serif" font-size="14.00">iron&#45;plate*30840</text>
</g>
<!-- 3,3 (DO NOT CONNECT THESE WIRES, Landfill Drive&#45;Thru, Small Parts) -->
<g id="node7" class="node">
<title>3,3 (DO NOT CONNECT THESE WIRES, Landfill Drive&#45;Thru, Small Parts)</title>
<ellipse fill="none" stroke="black" cx="2937.32" cy="-18" rx="350.94" ry="18"/>
<text text-anchor="middle" x="2937.32" y="-14.3" font-family="Times,serif" font-size="14.00">3,3 (DO NOT CONNECT THESE WIRES, Landfill Drive&#45;Thru, Small Parts)</text>
</g>
<!-- 0,11 ()&#45;&gt;3,3 (DO NOT CONNECT THESE WIRES, Landfill Drive&#45;Thru, Small Parts) -->
<g id="edge6" class="edge">
<title>0,11 ()&#45;&gt;3,3 (DO NOT CONNECT THESE WIRES, Landfill Drive&#45;Thru, Small Parts)</title>
<path fill="none" stroke="black" stroke-width="10.83" d="M6132.68,-1695.06C5847.54,-1545.4 3342.15,-230.47 2980.7,-40.77"/>
<polygon fill="black" stroke="black" stroke-width="10.83" points="2984.85,-32.24 2971.59,-35.99 2976.04,-49.03 2984.85,-32.24"/>
<text text-anchor="middle" x="4491.69" y="-871.71" font-family="Times,serif" font-size="14.00">iron&#45;plate*836528</text>
</g>
<!-- 3,16 (More Coke) -->
<g id="node8" class="node">
<title>3,16 (More Coke)</title>
<ellipse fill="none" stroke="black" cx="2187.7" cy="-202.77" rx="90.98" ry="18"/>
<text text-anchor="middle" x="2187.7" y="-199.07" font-family="Times,serif" font-size="14.00">3,16 (More Coke)</text>
</g>
<!-- 0,11 ()&#45;&gt;3,16 (More Coke) -->
<g id="edge7" class="edge">
<title>0,11 ()&#45;&gt;3,16 (More Coke)</title>
<path fill="none" stroke="black" stroke-width="1.8" d="M6127.99,-1697.12C5783.25,-1566.38 2680.33,-389.6 2239.66,-222.47"/>
<polygon fill="black" stroke="black" stroke-width="1.8" points="2240.64,-219.1 2230.05,-218.83 2238.16,-225.65 2240.64,-219.1"/>
<text text-anchor="middle" x="4118.82" y="-963.6" font-family="Times,serif" font-size="14.00">iron&#45;plate*138680</text>
</g>
<!-- &#45;6,1 (Coke and Coal Dust from Biomass (needs Iron plates)) -->
<g id="node10" class="node">
<title>&#45;6,1 (Coke and Coal Dust from Biomass (needs Iron plates))</title>
<ellipse fill="none" stroke="black" cx="1504.08" cy="-561.56" rx="285.95" ry="18"/>
<text text-anchor="middle" x="1504.08" y="-557.86" font-family="Times,serif" font-size="14.00">&#45;6,1 (Coke and Coal Dust from Biomass (needs Iron plates))</text>
</g>
<!-- 0,11 ()&#45;&gt;&#45;6,1 (Coke and Coal Dust from Biomass (needs Iron plates)) -->
<g id="edge9" class="edge">
<title>0,11 ()&#45;&gt;&#45;6,1 (Coke and Coal Dust from Biomass (needs Iron plates))</title>
<path fill="none" stroke="black" stroke-width="1.94" d="M6123.3,-1700.09C5727.47,-1602.53 2169.92,-725.67 1585.23,-581.56"/>
<polygon fill="black" stroke="black" stroke-width="1.94" points="1585.75,-578.08 1575.2,-579.09 1584.07,-584.88 1585.75,-578.08"/>
<text text-anchor="middle" x="3789.27" y="-1144.63" font-family="Times,serif" font-size="14.00">iron&#45;plate*150160</text>
</g>
<!-- &#45;3,8 (Urea) -->
<g id="node11" class="node">
<title>&#45;3,8 (Urea)</title>
<ellipse fill="none" stroke="black" cx="926.18" cy="-1073.53" rx="61.19" ry="18"/>
<text text-anchor="middle" x="926.18" y="-1069.83" font-family="Times,serif" font-size="14.00">&#45;3,8 (Urea)</text>
</g>
<!-- 0,11 ()&#45;&gt;&#45;3,8 (Urea) -->
<g id="edge25" class="edge">
<title>0,11 ()&#45;&gt;&#45;3,8 (Urea)</title>
<path fill="none" stroke="black" stroke-width="0.4" d="M6119.6,-1704.12C5672.55,-1649.84 1568.78,-1151.55 993.14,-1081.66"/>
<polygon fill="black" stroke="black" stroke-width="0.4" points="993.29,-1078.15 982.94,-1080.42 992.44,-1085.1 993.29,-1078.15"/>
<text text-anchor="middle" x="3495.87" y="-1396.69" font-family="Times,serif" font-size="14.00">iron&#45;plate*30800</text>
</g>
<!-- 0,10 (item=meat Meat) -->
<g id="node12" class="node">
<title>0,10 (item=meat Meat)</title>
<ellipse fill="none" stroke="black" cx="487.61" cy="-1708.91" rx="120.48" ry="18"/>
<text text-anchor="middle" x="487.61" y="-1705.21" font-family="Times,serif" font-size="14.00">0,10 (item=meat Meat)</text>
</g>
<!-- 0,11 ()&#45;&gt;0,10 (item=meat Meat) -->
<g id="edge15" class="edge">
<title>0,11 ()&#45;&gt;0,10 (item=meat Meat)</title>
<path fill="none" stroke="black" stroke-width="0.28" d="M6117.89,-1708.91C5654.3,-1708.91 1419.11,-1708.91 618.02,-1708.91"/>
<polygon fill="black" stroke="black" stroke-width="0.28" points="617.9,-1705.41 607.9,-1708.91 617.9,-1712.41 617.9,-1705.41"/>
<text text-anchor="middle" x="3307.46" y="-1712.71" font-family="Times,serif" font-size="14.00">iron&#45;plate*21720</text>
</g>
<!-- &#45;1,&#45;2 (Aramid fiber) -->
<g id="node13" class="node">
<title>&#45;1,&#45;2 (Aramid fiber)</title>
<ellipse fill="none" stroke="black" cx="213.83" cy="-2430.8" rx="99.38" ry="18"/>
<text text-anchor="middle" x="213.83" y="-2427.1" font-family="Times,serif" font-size="14.00">&#45;1,&#45;2 (Aramid fiber)</text>
</g>
<!-- 0,11 ()&#45;&gt;&#45;1,&#45;2 (Aramid fiber) -->
<g id="edge47" class="edge">
<title>0,11 ()&#45;&gt;&#45;1,&#45;2 (Aramid fiber)</title>
<path fill="none" stroke="black" stroke-width="0.03" d="M6119.55,-1713.72C5643.78,-1771.48 1021.54,-2332.73 306.53,-2419.54"/>
<polygon fill="black" stroke="black" stroke-width="0.03" points="306.04,-2416.08 296.54,-2420.76 306.89,-2423.03 306.04,-2416.08"/>
<text text-anchor="middle" x="3157.04" y="-2070.43" font-family="Times,serif" font-size="14.00">iron&#45;plate*2280</text>
</g>
<!-- &#45;4,&#45;2 (For Science!) -->
<g id="node14" class="node">
<title>&#45;4,&#45;2 (For Science!)</title>
<ellipse fill="none" stroke="black" cx="120.77" cy="-3197.23" rx="98.58" ry="18"/>
<text text-anchor="middle" x="120.77" y="-3193.53" font-family="Times,serif" font-size="14.00">&#45;4,&#45;2 (For Science!)</text>
</g>
<!-- 0,11 ()&#45;&gt;&#45;4,&#45;2 (For Science!) -->
<g id="edge45" class="edge">
<title>0,11 ()&#45;&gt;&#45;4,&#45;2 (For Science!)</title>
<path fill="none" stroke="black" stroke-width="0.07" d="M6123.25,-1717.75C5658.81,-1832.22 826.45,-3023.29 189.85,-3180.2"/>
<polygon fill="black" stroke="black" stroke-width="0.07" points="188.78,-3176.86 179.9,-3182.65 190.45,-3183.66 188.78,-3176.86"/>
<text text-anchor="middle" x="3100.55" y="-2452.77" font-family="Times,serif" font-size="14.00">iron&#45;plate*5160</text>
</g>
<!-- &#45;3,&#45;3 (Zinc Plates, 32 to consume four belts) -->
<g id="node15" class="node">
<title>&#45;3,&#45;3 (Zinc Plates, 32 to consume four belts)</title>
<ellipse fill="none" stroke="black" cx="213.83" cy="-3963.65" rx="213.66" ry="18"/>
<text text-anchor="middle" x="213.83" y="-3959.95" font-family="Times,serif" font-size="14.00">&#45;3,&#45;3 (Zinc Plates, 32 to consume four belts)</text>
</g>
<!-- 0,11 ()&#45;&gt;&#45;3,&#45;3 (Zinc Plates, 32 to consume four belts) -->
<g id="edge18" class="edge">
<title>0,11 ()&#45;&gt;&#45;3,&#45;3 (Zinc Plates, 32 to consume four belts)</title>
<path fill="none" stroke="black" stroke-width="1.96" d="M6127.81,-1720.78C5692.37,-1885.92 847.31,-3723.41 269.97,-3942.36"/>
<polygon fill="black" stroke="black" stroke-width="1.96" points="268.31,-3939.25 260.21,-3946.07 270.8,-3945.79 268.31,-3939.25"/>
<text text-anchor="middle" x="3133.89" y="-2835.37" font-family="Times,serif" font-size="14.00">iron&#45;plate*151080</text>
</g>
<!-- 4,1 (item=filtration&#45;media Filtration Media) -->
<g id="node16" class="node">
<title>4,1 (item=filtration&#45;media Filtration Media)</title>
<ellipse fill="none" stroke="black" cx="487.61" cy="-4685.54" rx="214.46" ry="18"/>
<text text-anchor="middle" x="487.61" y="-4681.84" font-family="Times,serif" font-size="14.00">4,1 (item=filtration&#45;media Filtration Media)</text>
</g>
<!-- 0,11 ()&#45;&gt;4,1 (item=filtration&#45;media Filtration Media) -->
<g id="edge22" class="edge">
<title>0,11 ()&#45;&gt;4,1 (item=filtration&#45;media Filtration Media)</title>
<path fill="none" stroke="black" stroke-width="0.43" d="M6132.54,-1722.85C5736.37,-1930.77 1032.18,-4399.72 530.8,-4662.86"/>
<polygon fill="black" stroke="black" stroke-width="0.43" points="528.94,-4659.89 521.71,-4667.64 532.19,-4666.09 528.94,-4659.89"/>
<text text-anchor="middle" x="3271.17" y="-3181.66" font-family="Times,serif" font-size="14.00">iron&#45;plate*33240</text>
</g>
<!-- 0,0 (LE BUS) -->
<g id="node17" class="node">
<title>0,0 (LE BUS)</title>
<ellipse fill="none" stroke="black" cx="926.18" cy="-5320.93" rx="71.49" ry="18"/>
<text text-anchor="middle" x="926.18" y="-5317.23" font-family="Times,serif" font-size="14.00">0,0 (LE BUS)</text>
</g>
<!-- 0,11 ()&#45;&gt;0,0 (LE BUS) -->
<g id="edge27" class="edge">
<title>0,11 ()&#45;&gt;0,0 (LE BUS)</title>
<path fill="none" stroke="black" stroke-width="0.99" d="M6136.89,-1724.23C5785.98,-1966.45 1385.63,-5003.8 959.33,-5298.05"/>
<polygon fill="black" stroke="black" stroke-width="0.99" points="957.06,-5295.36 950.82,-5303.92 961.04,-5301.12 957.06,-5295.36"/>
<text text-anchor="middle" x="3487.61" y="-3514.94" font-family="Times,serif" font-size="14.00">iron&#45;plate*76120</text>
</g>
<!-- &#45;4,1 () -->
<g id="node18" class="node">
<title>&#45;4,1 ()</title>
<ellipse fill="none" stroke="black" cx="1504.08" cy="-5832.89" rx="38.19" ry="18"/>
<text text-anchor="middle" x="1504.08" y="-5829.19" font-family="Times,serif" font-size="14.00">&#45;4,1 ()</text>
</g>
<!-- 0,11 ()&#45;&gt;&#45;4,1 () -->
<g id="edge30" class="edge">
<title>0,11 ()&#45;&gt;&#45;4,1 ()</title>
<path fill="none" stroke="black" stroke-width="0.25" d="M6140.82,-1725.1C5838.74,-1992.72 1887.83,-5492.92 1529.97,-5809.95"/>
<polygon fill="black" stroke="black" stroke-width="0.25" points="1527.58,-5807.4 1522.42,-5816.65 1532.22,-5812.63 1527.58,-5807.4"/>
<text text-anchor="middle" x="3774.89" y="-3771.33" font-family="Times,serif" font-size="14.00">iron&#45;plate*18960</text>
</g>
<!-- &#45;1,6 (Flimble&#39;s Slaughterhouse and Daycare Centre, Auog Products) -->
<g id="node20" class="node">
<title>&#45;1,6 (Flimble&#39;s Slaughterhouse and Daycare Centre, Auog Products)</title>
<ellipse fill="none" stroke="black" cx="2187.7" cy="-6191.69" rx="325.74" ry="18"/>
<text text-anchor="middle" x="2187.7" y="-6187.99" font-family="Times,serif" font-size="14.00">&#45;1,6 (Flimble&#39;s Slaughterhouse and Daycare Centre, Auog Products)</text>
</g>
<!-- 0,11 ()&#45;&gt;&#45;1,6 (Flimble&#39;s Slaughterhouse and Daycare Centre, Auog Products) -->
<g id="edge44" class="edge">
<title>0,11 ()&#45;&gt;&#45;1,6 (Flimble&#39;s Slaughterhouse and Daycare Centre, Auog Products)</title>
<path fill="none" stroke="black" stroke-width="0.21" d="M6143.91,-1726.05C5889.56,-2013.14 2520.5,-5816.03 2210.51,-6165.94"/>
<polygon fill="black" stroke="black" stroke-width="0.21" points="2207.77,-6163.75 2203.76,-6173.56 2213.01,-6168.39 2207.77,-6163.75"/>
<text text-anchor="middle" x="4116.71" y="-3949.79" font-family="Times,serif" font-size="14.00">iron&#45;plate*15960</text>
</g>
<!-- 2,0 (Sodium Sulfate) -->
<g id="node21" class="node">
<title>2,0 (Sodium Sulfate)</title>
<ellipse fill="none" stroke="black" cx="2937.32" cy="-6376.45" rx="106.68" ry="18"/>
<text text-anchor="middle" x="2937.32" y="-6372.75" font-family="Times,serif" font-size="14.00">2,0 (Sodium Sulfate)</text>
</g>
<!-- 0,11 ()&#45;&gt;2,0 (Sodium Sulfate) -->
<g id="edge37" class="edge">
<title>0,11 ()&#45;&gt;2,0 (Sodium Sulfate)</title>
<path fill="none" stroke="black" stroke-width="0.13" d="M6147.1,-1726.28C5943.24,-2021.62 3204.71,-5989.07 2955.45,-6350.18"/>
<polygon fill="black" stroke="black" stroke-width="0.13" points="2952.52,-6348.27 2949.72,-6358.49 2958.28,-6352.25 2952.52,-6348.27"/>
<text text-anchor="middle" x="4490.77" y="-4042.03" font-family="Times,serif" font-size="14.00">iron&#45;plate*10320</text>
</g>
<!-- &#45;1,7 (Rayon) -->
<g id="node22" class="node">
<title>&#45;1,7 (Rayon)</title>
<ellipse fill="none" stroke="black" cx="3709.37" cy="-6376.45" rx="66.89" ry="18"/>
<text text-anchor="middle" x="3709.37" y="-6372.75" font-family="Times,serif" font-size="14.00">&#45;1,7 (Rayon)</text>
</g>
<!-- 0,11 ()&#45;&gt;&#45;1,7 (Rayon) -->
<g id="edge41" class="edge">
<title>0,11 ()&#45;&gt;&#45;1,7 (Rayon)</title>
<path fill="none" stroke="black" stroke-width="0.05" d="M6149.72,-1726.76C5992.87,-2025.62 3915.56,-5983.6 3723.57,-6349.4"/>
<polygon fill="black" stroke="black" stroke-width="0.05" points="3720.34,-6348.03 3718.79,-6358.51 3726.54,-6351.28 3720.34,-6348.03"/>
<text text-anchor="middle" x="4880.65" y="-4041.88" font-family="Times,serif" font-size="14.00">iron&#45;plate*4200</text>
</g>
<!-- 3,15 (Even Yet More Coke) -->
<g id="node23" class="node">
<title>3,15 (Even Yet More Coke)</title>
<ellipse fill="none" stroke="black" cx="4459" cy="-6191.69" rx="135.38" ry="18"/>
<text text-anchor="middle" x="4459" y="-6187.99" font-family="Times,serif" font-size="14.00">3,15 (Even Yet More Coke)</text>
</g>
<!-- 0,11 ()&#45;&gt;3,15 (Even Yet More Coke) -->
<g id="edge35" class="edge">
<title>0,11 ()&#45;&gt;3,15 (Even Yet More Coke)</title>
<path fill="none" stroke="black" stroke-width="1.53" d="M6152.24,-1726.98C6040.83,-2020.72 4606.14,-5803.71 4469.44,-6164.15"/>
<polygon fill="black" stroke="black" stroke-width="1.53" points="4466.13,-6163 4465.86,-6173.59 4472.68,-6165.48 4466.13,-6163"/>
<text text-anchor="middle" x="5245.84" y="-3949.36" font-family="Times,serif" font-size="14.00">iron&#45;plate*118200</text>
</g>
<!-- &#45;7,&#45;4 (Isomer&#39;s Slaughterhouse and Daycare Centre, Bone Meal) -->
<g id="node24" class="node">
<title>&#45;7,&#45;4 (Isomer&#39;s Slaughterhouse and Daycare Centre, Bone Meal)</title>
<ellipse fill="none" stroke="black" cx="5142.62" cy="-5832.89" rx="307.35" ry="18"/>
<text text-anchor="middle" x="5142.62" y="-5829.19" font-family="Times,serif" font-size="14.00">&#45;7,&#45;4 (Isomer&#39;s Slaughterhouse and Daycare Centre, Bone Meal)</text>
</g>
<!-- 0,11 ()&#45;&gt;&#45;7,&#45;4 (Isomer&#39;s Slaughterhouse and Daycare Centre, Bone Meal) -->
<g id="edge38" class="edge">
<title>0,11 ()&#45;&gt;&#45;7,&#45;4 (Isomer&#39;s Slaughterhouse and Daycare Centre, Bone Meal)</title>
<path fill="none" stroke="black" stroke-width="0.23" d="M6154.67,-1726.85C6085.83,-2006.12 5235.06,-5457.83 5149.54,-5804.82"/>
<polygon fill="black" stroke="black" stroke-width="0.23" points="5146.12,-5804.05 5147.13,-5814.6 5152.92,-5805.73 5146.12,-5804.05"/>
<text text-anchor="middle" x="5591.6" y="-3769.64" font-family="Times,serif" font-size="14.00">iron&#45;plate*17520</text>
</g>
<!-- &#45;5,0 (item=small&#45;lampitem=petri&#45;dish Lamptri dishes) -->
<g id="node25" class="node">
<title>&#45;5,0 (item=small&#45;lampitem=petri&#45;dish Lamptri dishes)</title>
<ellipse fill="none" stroke="black" cx="5720.51" cy="-5320.93" rx="263.75" ry="18"/>
<text text-anchor="middle" x="5720.51" y="-5317.23" font-family="Times,serif" font-size="14.00">&#45;5,0 (item=small&#45;lampitem=petri&#45;dish Lamptri dishes)</text>
</g>
<!-- 0,11 ()&#45;&gt;&#45;5,0 (item=small&#45;lampitem=petri&#45;dish Lamptri dishes) -->
<g id="edge42" class="edge">
<title>0,11 ()&#45;&gt;&#45;5,0 (item=small&#45;lampitem=petri&#45;dish Lamptri dishes)</title>
<path fill="none" stroke="black" stroke-width="0.19" d="M6156.88,-1727.06C6125.25,-1987.59 5763.1,-4970.15 5723.94,-5292.7"/>
<polygon fill="black" stroke="black" stroke-width="0.19" points="5720.46,-5292.3 5722.73,-5302.65 5727.41,-5293.14 5720.46,-5292.3"/>
<text text-anchor="middle" x="5879.91" y="-3513.68" font-family="Times,serif" font-size="14.00">iron&#45;plate*15000</text>
</g>
<!-- 4,6 (Circuit substrate and Doped silicon) -->
<g id="node26" class="node">
<title>4,6 (Circuit substrate and Doped silicon)</title>
<ellipse fill="none" stroke="black" cx="6159.09" cy="-4685.54" rx="199.56" ry="18"/>
<text text-anchor="middle" x="6159.09" y="-4681.84" font-family="Times,serif" font-size="14.00">4,6 (Circuit substrate and Doped silicon)</text>
</g>
<!-- 0,11 ()&#45;&gt;4,6 (Circuit substrate and Doped silicon) -->
<g id="edge50" class="edge">
<title>0,11 ()&#45;&gt;4,6 (Circuit substrate and Doped silicon)</title>
<path fill="none" stroke="black" stroke-width="0.03" d="M6159.09,-1727.15C6159.09,-1960.98 6159.09,-4369.55 6159.09,-4657.45"/>
<polygon fill="black" stroke="black" stroke-width="0.03" points="6155.59,-4657.49 6159.09,-4667.49 6162.59,-4657.49 6155.59,-4657.49"/>
<text text-anchor="middle" x="6103.09" y="-3196.1" font-family="Times,serif" font-size="14.00">iron&#45;plate*2040</text>
</g>
<!-- 1,9 (Ammunition) -->
<g id="node27" class="node">
<title>1,9 (Ammunition)</title>
<ellipse fill="none" stroke="black" cx="6432.86" cy="-3963.65" rx="91.78" ry="18"/>
<text text-anchor="middle" x="6432.86" y="-3959.95" font-family="Times,serif" font-size="14.00">1,9 (Ammunition)</text>
</g>
<!-- 0,11 ()&#45;&gt;1,9 (Ammunition) -->
<g id="edge48" class="edge">
<title>0,11 ()&#45;&gt;1,9 (Ammunition)</title>
<path fill="none" stroke="black" stroke-width="0.03" d="M6161.29,-1727.06C6185.39,-1925.52 6399.57,-3689.43 6429.41,-3935.26"/>
<polygon fill="black" stroke="black" stroke-width="0.03" points="6425.98,-3936 6430.66,-3945.51 6432.93,-3935.16 6425.98,-3936"/>
<text text-anchor="middle" x="6239.35" y="-2834.96" font-family="Times,serif" font-size="14.00">iron&#45;plate*2040</text>
</g>
<!-- &#45;5,2 (Optical fiber) -->
<g id="node28" class="node">
<title>&#45;5,2 (Optical fiber)</title>
<ellipse fill="none" stroke="black" cx="6308.01" cy="-1630.75" rx="96.38" ry="18"/>
<text text-anchor="middle" x="6308.01" y="-1627.05" font-family="Times,serif" font-size="14.00">&#45;5,2 (Optical fiber)</text>
</g>
<!-- 0,11 ()&#45;&gt;&#45;5,2 (Optical fiber) -->
<g id="edge49" class="edge">
<title>0,11 ()&#45;&gt;&#45;5,2 (Optical fiber)</title>
<path fill="none" stroke="black" stroke-width="0.13" d="M6185.71,-1694.94C6208.14,-1683.17 6240.61,-1666.13 6266.46,-1652.56"/>
<polygon fill="black" stroke="black" stroke-width="0.13" points="6268.42,-1655.48 6275.65,-1647.74 6265.17,-1649.29 6268.42,-1655.48"/>
<text text-anchor="middle" x="6165.59" y="-1677.55" font-family="Times,serif" font-size="14.00">iron&#45;plate*10080</text>
</g>
<!-- &#45;1,10 (Iron Plates) -->
<g id="node9" class="node">
<title>&#45;1,10 (Iron Plates)</title>
<ellipse fill="none" stroke="black" cx="6525.92" cy="-3197.23" rx="94.78" ry="18"/>
<text text-anchor="middle" x="6525.92" y="-3193.53" font-family="Times,serif" font-size="14.00">&#45;1,10 (Iron Plates)</text>
</g>
<!-- &#45;1,10 (Iron Plates)&#45;&gt;2,2 () -->
<g id="edge20" class="edge">
<title>&#45;1,10 (Iron Plates)&#45;&gt;2,2 ()</title>
<path fill="none" stroke="black" stroke-width="0.92" d="M6519.08,-3179.19C6446.52,-2987.87 5819.5,-1334.54 5730.9,-1100.92"/>
<polygon fill="black" stroke="black" stroke-width="0.92" points="5734.13,-1099.56 5727.31,-1091.46 5727.58,-1102.05 5734.13,-1099.56"/>
<text text-anchor="middle" x="6064.49" y="-2143.86" font-family="Times,serif" font-size="14.00">iron&#45;plate*71400</text>
</g>
<!-- &#45;1,10 (Iron Plates)&#45;&gt;4,4 (Hydrogen Chloride, item=nylon Nylon/Nylon parts) -->
<g id="edge13" class="edge">
<title>&#45;1,10 (Iron Plates)&#45;&gt;4,4 (Hydrogen Chloride, item=nylon Nylon/Nylon parts)</title>
<path fill="none" stroke="black" stroke-width="1.55" d="M6523.71,-3179.04C6511.41,-3077.71 6451.34,-2582.97 6436.29,-2459.01"/>
<polygon fill="black" stroke="black" stroke-width="1.55" points="6439.73,-2458.32 6435.05,-2448.82 6432.78,-2459.17 6439.73,-2458.32"/>
<text text-anchor="middle" x="6415" y="-2822.82" font-family="Times,serif" font-size="14.00">iron&#45;plate*119480</text>
</g>
<!-- &#45;1,10 (Iron Plates)&#45;&gt;2,12 (Yet more coke) -->
<g id="edge14" class="edge">
<title>&#45;1,10 (Iron Plates)&#45;&gt;2,12 (Yet more coke)</title>
<path fill="none" stroke="black" stroke-width="1.6" d="M6516.35,-3178.99C6401.81,-2960.76 5295.47,-852.8 5156.86,-588.69"/>
<polygon fill="black" stroke="black" stroke-width="1.6" points="5159.91,-586.98 5152.17,-579.75 5153.71,-590.23 5159.91,-586.98"/>
<text text-anchor="middle" x="5771.6" y="-1887.64" font-family="Times,serif" font-size="14.00">iron&#45;plate*123400</text>
</g>
<!-- &#45;1,10 (Iron Plates)&#45;&gt;2,5 (Simple Circuits) -->
<g id="edge11" class="edge">
<title>&#45;1,10 (Iron Plates)&#45;&gt;2,5 (Simple Circuits)</title>
<path fill="none" stroke="black" stroke-width="0.79" d="M6513.52,-3179.26C6352.4,-2945.84 4672,-511.36 4477.35,-229.36"/>
<polygon fill="black" stroke="black" stroke-width="0.79" points="4480.1,-227.18 4471.54,-220.94 4474.34,-231.16 4480.1,-227.18"/>
<text text-anchor="middle" x="5434.94" y="-1708.11" font-family="Times,serif" font-size="14.00">iron&#45;plate*60840</text>
</g>
<!-- &#45;1,10 (Iron Plates)&#45;&gt;4,3 (item=nexelit&#45;plate Nexelit platery) -->
<g id="edge8" class="edge">
<title>&#45;1,10 (Iron Plates)&#45;&gt;4,3 (item=nexelit&#45;plate Nexelit platery)</title>
<path fill="none" stroke="black" stroke-width="0.26" d="M6510.08,-3179.35C6296.42,-2938.17 3988.88,-333.5 3732.48,-44.09"/>
<polygon fill="black" stroke="black" stroke-width="0.26" points="3734.75,-41.37 3725.5,-36.2 3729.51,-46.01 3734.75,-41.37"/>
<text text-anchor="middle" x="5060.78" y="-1615.52" font-family="Times,serif" font-size="14.00">iron&#45;plate*20040</text>
</g>
<!-- &#45;1,10 (Iron Plates)&#45;&gt;3,3 (DO NOT CONNECT THESE WIRES, Landfill Drive&#45;Thru, Small Parts) -->
<g id="edge19" class="edge">
<title>&#45;1,10 (Iron Plates)&#45;&gt;3,3 (DO NOT CONNECT THESE WIRES, Landfill Drive&#45;Thru, Small Parts)</title>
<path fill="none" stroke="black" stroke-width="7.16" d="M6505.74,-3179.35C6233.24,-2937.93 3287.64,-328.36 2965.8,-43.24"/>
<polygon fill="black" stroke="black" stroke-width="7.16" points="2969.51,-38.14 2957.87,-36.2 2961.19,-47.53 2969.51,-38.14"/>
<text text-anchor="middle" x="4670.77" y="-1615.09" font-family="Times,serif" font-size="14.00">iron&#45;plate*553160</text>
</g>
<!-- &#45;1,10 (Iron Plates)&#45;&gt;3,16 (More Coke) -->
<g id="edge21" class="edge">
<title>&#45;1,10 (Iron Plates)&#45;&gt;3,16 (More Coke)</title>
<path fill="none" stroke="black" stroke-width="1.86" d="M6500.72,-3179.83C6166.07,-2948.84 2605.45,-491.12 2221.25,-225.92"/>
<polygon fill="black" stroke="black" stroke-width="1.86" points="2223.23,-223.04 2213.02,-220.24 2219.26,-228.8 2223.23,-223.04"/>
<text text-anchor="middle" x="4295.98" y="-1706.68" font-family="Times,serif" font-size="14.00">iron&#45;plate*143440</text>
</g>
<!-- &#45;1,10 (Iron Plates)&#45;&gt;&#45;6,1 (Coke and Coal Dust from Biomass (needs Iron plates)) -->
<g id="edge12" class="edge">
<title>&#45;1,10 (Iron Plates)&#45;&gt;&#45;6,1 (Coke and Coal Dust from Biomass (needs Iron plates))</title>
<path fill="none" stroke="black" stroke-width="1.63" d="M6493.52,-3180.22C6088.43,-2967.61 2012.8,-828.56 1547.31,-584.25"/>
<polygon fill="black" stroke="black" stroke-width="1.63" points="1548.69,-581.02 1538.21,-579.47 1545.44,-587.22 1548.69,-581.02"/>
<text text-anchor="middle" x="3955.42" y="-1886.04" font-family="Times,serif" font-size="14.00">iron&#45;plate*125520</text>
</g>
<!-- &#45;1,10 (Iron Plates)&#45;&gt;&#45;3,8 (Urea) -->
<g id="edge10" class="edge">
<title>&#45;1,10 (Iron Plates)&#45;&gt;&#45;3,8 (Urea)</title>
<path fill="none" stroke="black" stroke-width="0.2" d="M6483.27,-3181.05C5995.93,-2996.23 1486.44,-1286 973.6,-1091.51"/>
<polygon fill="black" stroke="black" stroke-width="0.2" points="974.51,-1088.11 963.92,-1087.84 972.03,-1094.66 974.51,-1088.11"/>
<text text-anchor="middle" x="3667.94" y="-2140.08" font-family="Times,serif" font-size="14.00">iron&#45;plate*15760</text>
</g>
<!-- &#45;1,10 (Iron Plates)&#45;&gt;0,10 (item=meat Meat) -->
<g id="edge32" class="edge">
<title>&#45;1,10 (Iron Plates)&#45;&gt;0,10 (item=meat Meat)</title>
<path fill="none" stroke="black" stroke-width="0.27" d="M6467.61,-3182.85C5890.01,-3040.49 1202.17,-1885.04 560.32,-1726.84"/>
<polygon fill="black" stroke="black" stroke-width="0.27" points="560.83,-1723.36 550.28,-1724.36 559.15,-1730.15 560.83,-1723.36"/>
<text text-anchor="middle" x="3453.47" y="-2458.65" font-family="Times,serif" font-size="14.00">iron&#45;plate*20760</text>
</g>
<!-- &#45;1,10 (Iron Plates)&#45;&gt;&#45;1,&#45;2 (Aramid fiber) -->
<g id="edge16" class="edge">
<title>&#45;1,10 (Iron Plates)&#45;&gt;&#45;1,&#45;2 (Aramid fiber)</title>
<path fill="none" stroke="black" stroke-width="0.05" d="M6445.83,-3187.5C5770.29,-3105.48 1031.82,-2530.12 306.8,-2442.09"/>
<polygon fill="black" stroke="black" stroke-width="0.05" points="307.02,-2438.59 296.67,-2440.86 306.18,-2445.54 307.02,-2438.59"/>
<text text-anchor="middle" x="3320.31" y="-2818.59" font-family="Times,serif" font-size="14.00">iron&#45;plate*4120</text>
</g>
<!-- &#45;1,10 (Iron Plates)&#45;&gt;&#45;4,&#45;2 (For Science!) -->
<g id="edge17" class="edge">
<title>&#45;1,10 (Iron Plates)&#45;&gt;&#45;4,&#45;2 (For Science!)</title>
<path fill="none" stroke="black" stroke-width="0.36" d="M6430.72,-3197.23C5701.43,-3197.23 1007.65,-3197.23 229.88,-3197.23"/>
<polygon fill="black" stroke="black" stroke-width="0.36" points="229.81,-3193.73 219.81,-3197.23 229.81,-3200.73 229.81,-3193.73"/>
<text text-anchor="middle" x="3269.8" y="-3201.03" font-family="Times,serif" font-size="14.00">iron&#45;plate*27760</text>
</g>
<!-- &#45;1,10 (Iron Plates)&#45;&gt;&#45;3,&#45;3 (Zinc Plates, 32 to consume four belts) -->
<g id="edge36" class="edge">
<title>&#45;1,10 (Iron Plates)&#45;&gt;&#45;3,&#45;3 (Zinc Plates, 32 to consume four belts)</title>
<path fill="none" stroke="black" stroke-width="1.64" d="M6445.83,-3206.95C5781.45,-3287.62 1187.25,-3845.46 345.98,-3947.61"/>
<polygon fill="black" stroke="black" stroke-width="1.64" points="345.46,-3944.14 335.95,-3948.82 346.3,-3951.09 345.46,-3944.14"/>
<text text-anchor="middle" x="3330.9" y="-3581.08" font-family="Times,serif" font-size="14.00">iron&#45;plate*126840</text>
</g>
<!-- &#45;1,10 (Iron Plates)&#45;&gt;4,1 (item=filtration&#45;media Filtration Media) -->
<g id="edge26" class="edge">
<title>&#45;1,10 (Iron Plates)&#45;&gt;4,1 (item=filtration&#45;media Filtration Media)</title>
<path fill="none" stroke="black" stroke-width="0.36" d="M6467.61,-3211.6C5891.98,-3353.48 1234.05,-4501.55 567.02,-4665.96"/>
<polygon fill="black" stroke="black" stroke-width="0.36" points="565.9,-4662.63 557.03,-4668.43 567.58,-4669.43 565.9,-4662.63"/>
<text text-anchor="middle" x="3456.82" y="-3942.58" font-family="Times,serif" font-size="14.00">iron&#45;plate*27560</text>
</g>
<!-- &#45;1,10 (Iron Plates)&#45;&gt;0,0 (LE BUS) -->
<g id="edge23" class="edge">
<title>&#45;1,10 (Iron Plates)&#45;&gt;0,0 (LE BUS)</title>
<path fill="none" stroke="black" stroke-width="0.99" d="M6483.27,-3213.4C5996.44,-3398.03 1495.82,-5104.89 975.22,-5302.33"/>
<polygon fill="black" stroke="black" stroke-width="0.99" points="973.84,-5299.11 965.73,-5305.93 976.32,-5305.66 973.84,-5299.11"/>
<text text-anchor="middle" x="3668.75" y="-4261.67" font-family="Times,serif" font-size="14.00">iron&#45;plate*76520</text>
</g>
<!-- &#45;1,10 (Iron Plates)&#45;&gt;&#45;4,1 () -->
<g id="edge24" class="edge">
<title>&#45;1,10 (Iron Plates)&#45;&gt;&#45;4,1 ()</title>
<path fill="none" stroke="black" stroke-width="0.2" d="M6493.52,-3214.23C6085.81,-3428.21 1960,-5593.61 1538.74,-5814.7"/>
<polygon fill="black" stroke="black" stroke-width="0.2" points="1536.98,-5811.67 1529.76,-5819.42 1540.24,-5817.87 1536.98,-5811.67"/>
<text text-anchor="middle" x="3955.63" y="-4518.26" font-family="Times,serif" font-size="14.00">iron&#45;plate*15640</text>
</g>
<!-- &#45;1,8 (Fibre via. moss) -->
<g id="node19" class="node">
<title>&#45;1,8 (Fibre via. moss)</title>
<ellipse fill="none" stroke="black" cx="6707.11" cy="-3197.23" rx="109.38" ry="18"/>
<text text-anchor="middle" x="6707.11" y="-3193.53" font-family="Times,serif" font-size="14.00">&#45;1,8 (Fibre via. moss)</text>
</g>
<!-- &#45;1,10 (Iron Plates)&#45;&gt;&#45;1,8 (Fibre via. moss) -->
<g id="edge28" class="edge">
<title>&#45;1,10 (Iron Plates)&#45;&gt;&#45;1,8 (Fibre via. moss)</title>
<path fill="none" stroke="black" stroke-width="0.14" d="M6621.03,-3197.23C6621.07,-3197.23 6621.11,-3197.23 6621.16,-3197.23"/>
<polygon fill="black" stroke="black" stroke-width="0.14" points="6611.29,-3200.73 6621.28,-3197.23 6611.28,-3193.73 6611.29,-3200.73"/>
<text text-anchor="middle" x="6681.59" y="-3201.03" font-family="Times,serif" font-size="14.00">iron&#45;plate*10480</text>
</g>
<!-- &#45;1,10 (Iron Plates)&#45;&gt;&#45;1,6 (Flimble&#39;s Slaughterhouse and Daycare Centre, Auog Products) -->
<g id="edge29" class="edge">
<title>&#45;1,10 (Iron Plates)&#45;&gt;&#45;1,6 (Flimble&#39;s Slaughterhouse and Daycare Centre, Auog Products)</title>
<path fill="none" stroke="black" stroke-width="0.27" d="M6500.72,-3214.62C6166.33,-3445.43 2610.92,-5899.56 2222.14,-6167.91"/>
<polygon fill="black" stroke="black" stroke-width="0.27" points="2220.04,-6165.11 2213.8,-6173.67 2224.02,-6170.87 2220.04,-6165.11"/>
<text text-anchor="middle" x="4300.93" y="-4695.07" font-family="Times,serif" font-size="14.00">iron&#45;plate*20920</text>
</g>
<!-- &#45;1,10 (Iron Plates)&#45;&gt;2,0 (Sodium Sulfate) -->
<g id="edge31" class="edge">
<title>&#45;1,10 (Iron Plates)&#45;&gt;2,0 (Sodium Sulfate)</title>
<path fill="none" stroke="black" stroke-width="0.16" d="M6505.74,-3215.11C6233.1,-3456.65 3284.62,-6068.77 2965.31,-6351.65"/>
<polygon fill="black" stroke="black" stroke-width="0.16" points="2962.61,-6349.37 2957.44,-6358.62 2967.25,-6354.61 2962.61,-6349.37"/>
<text text-anchor="middle" x="4675.03" y="-4787.18" font-family="Times,serif" font-size="14.00">iron&#45;plate*12200</text>
</g>
<!-- &#45;1,10 (Iron Plates)&#45;&gt;&#45;1,7 (Rayon) -->
<g id="edge33" class="edge">
<title>&#45;1,10 (Iron Plates)&#45;&gt;&#45;1,7 (Rayon)</title>
<path fill="none" stroke="black" stroke-width="0.03" d="M6510.08,-3215.11C6296.31,-3456.41 3986.51,-6063.62 3732.09,-6350.81"/>
<polygon fill="black" stroke="black" stroke-width="0.03" points="3729.18,-6348.82 3725.17,-6358.62 3734.42,-6353.46 3729.18,-6348.82"/>
<text text-anchor="middle" x="5065.09" y="-4786.76" font-family="Times,serif" font-size="14.00">iron&#45;plate*2280</text>
</g>
<!-- &#45;1,10 (Iron Plates)&#45;&gt;3,15 (Even Yet More Coke) -->
<g id="edge34" class="edge">
<title>&#45;1,10 (Iron Plates)&#45;&gt;3,15 (Even Yet More Coke)</title>
<path fill="none" stroke="black" stroke-width="1.64" d="M6513.52,-3215.19C6352.4,-3448.62 4672,-5883.09 4477.35,-6165.09"/>
<polygon fill="black" stroke="black" stroke-width="1.64" points="4474.34,-6163.3 4471.54,-6173.51 4480.1,-6167.27 4474.34,-6163.3"/>
<text text-anchor="middle" x="5430.44" y="-4693.94" font-family="Times,serif" font-size="14.00">iron&#45;plate*126680</text>
</g>
<!-- &#45;1,10 (Iron Plates)&#45;&gt;&#45;7,&#45;4 (Isomer&#39;s Slaughterhouse and Daycare Centre, Bone Meal) -->
<g id="edge40" class="edge">
<title>&#45;1,10 (Iron Plates)&#45;&gt;&#45;7,&#45;4 (Isomer&#39;s Slaughterhouse and Daycare Centre, Bone Meal)</title>
<path fill="none" stroke="black" stroke-width="0.22" d="M6516.35,-3215.46C6401.81,-3433.7 5295.47,-5541.65 5156.86,-5805.76"/>
<polygon fill="black" stroke="black" stroke-width="0.22" points="5153.71,-5804.22 5152.17,-5814.7 5159.91,-5807.47 5153.71,-5804.22"/>
<text text-anchor="middle" x="5776.1" y="-4514.41" font-family="Times,serif" font-size="14.00">iron&#45;plate*17240</text>
</g>
<!-- &#45;1,10 (Iron Plates)&#45;&gt;&#45;5,0 (item=small&#45;lampitem=petri&#45;dish Lamptri dishes) -->
<g id="edge39" class="edge">
<title>&#45;1,10 (Iron Plates)&#45;&gt;&#45;5,0 (item=small&#45;lampitem=petri&#45;dish Lamptri dishes)</title>
<path fill="none" stroke="black" stroke-width="0.26" d="M6519.08,-3215.27C6446.56,-3406.49 5820.15,-5058.2 5731.04,-5293.16"/>
<polygon fill="black" stroke="black" stroke-width="0.26" points="5727.7,-5292.1 5727.42,-5302.69 5734.24,-5294.59 5727.7,-5292.1"/>
<text text-anchor="middle" x="6064.56" y="-4258.01" font-family="Times,serif" font-size="14.00">iron&#45;plate*19880</text>
</g>
<!-- &#45;1,10 (Iron Plates)&#45;&gt;4,6 (Circuit substrate and Doped silicon) -->
<g id="edge43" class="edge">
<title>&#45;1,10 (Iron Plates)&#45;&gt;4,6 (Circuit substrate and Doped silicon)</title>
<path fill="none" stroke="black" stroke-width="0.03" d="M6521.48,-3215.24C6483.47,-3369.46 6213.12,-4466.33 6166.06,-4657.24"/>
<polygon fill="black" stroke="black" stroke-width="0.03" points="6162.63,-4656.54 6163.64,-4667.08 6169.43,-4658.21 6162.63,-4656.54"/>
<text text-anchor="middle" x="6287.77" y="-3925.04" font-family="Times,serif" font-size="14.00">iron&#45;plate*2240</text>
</g>
<!-- &#45;1,10 (Iron Plates)&#45;&gt;1,9 (Ammunition) -->
<g id="edge46" class="edge">
<title>&#45;1,10 (Iron Plates)&#45;&gt;1,9 (Ammunition)</title>
<path fill="none" stroke="black" stroke-width="0.05" d="M6523.71,-3215.42C6511.41,-3316.75 6451.34,-3811.48 6436.29,-3935.44"/>
<polygon fill="black" stroke="black" stroke-width="0.05" points="6432.78,-3935.28 6435.05,-3945.63 6439.73,-3936.13 6432.78,-3935.28"/>
<text text-anchor="middle" x="6424" y="-3579.23" font-family="Times,serif" font-size="14.00">iron&#45;plate*4080</text>
</g>
</g>
</svg>
