<?xml version="1.0" encoding="UTF-8" standalone="no"?>
<!DOCTYPE svg PUBLIC "-//W3C//DTD SVG 1.1//EN"
 "http://www.w3.org/Graphics/SVG/1.1/DTD/svg11.dtd">
<!-- Generated by graphviz version 2.43.0 (0)
 -->
<!-- Title: %3 Pages: 1 -->
<svg width="1637pt" height="645pt"
 viewBox="0.00 0.00 1636.86 645.43" xmlns="http://www.w3.org/2000/svg" xmlns:xlink="http://www.w3.org/1999/xlink">
<g id="graph0" class="graph" transform="scale(1 1) rotate(0) translate(4 641.43)">
<title>%3</title>
<polygon fill="white" stroke="transparent" points="-4,4 -4,-641.43 1632.86,-641.43 1632.86,4 -4,4"/>
<!-- 4,15 () -->
<g id="node1" class="node">
<title>4,15 ()</title>
<ellipse fill="none" stroke="black" cx="1023.96" cy="-18" rx="40.89" ry="18"/>
<text text-anchor="middle" x="1023.96" y="-14.3" font-family="Times,serif" font-size="14.00">4,15 ()</text>
</g>
<!-- 5,2 (Raw Fiber) -->
<g id="node2" class="node">
<title>5,2 (Raw Fiber)</title>
<ellipse fill="none" stroke="black" cx="723.24" cy="-318.72" rx="83.39" ry="18"/>
<text text-anchor="middle" x="723.24" y="-315.02" font-family="Times,serif" font-size="14.00">5,2 (Raw Fiber)</text>
</g>
<!-- 4,15 ()&#45;&gt;5,2 (Raw Fiber) -->
<g id="edge1" class="edge">
<title>4,15 ()&#45;&gt;5,2 (Raw Fiber)</title>
<path fill="none" stroke="black" stroke-width="1.2" d="M1007.36,-34.6C957.3,-84.66 807.56,-234.4 748.04,-293.92"/>
<polygon fill="black" stroke="black" stroke-width="1.2" points="745.51,-291.5 740.91,-301.05 750.46,-296.45 745.51,-291.5"/>
<text text-anchor="middle" x="839.2" y="-168.06" font-family="Times,serif" font-size="14.00">ash*54032</text>
</g>
<!-- 3,6 (Phosphoric Acid and Phosphine gas) -->
<g id="node4" class="node">
<title>3,6 (Phosphoric Acid and Phosphine gas)</title>
<ellipse fill="none" stroke="black" cx="1324.68" cy="-318.72" rx="200.36" ry="18"/>
<text text-anchor="middle" x="1324.68" y="-315.02" font-family="Times,serif" font-size="14.00">3,6 (Phosphoric Acid and Phosphine gas)</text>
</g>
<!-- 4,15 ()&#45;&gt;3,6 (Phosphoric Acid and Phosphine gas) -->
<g id="edge5" class="edge">
<title>4,15 ()&#45;&gt;3,6 (Phosphoric Acid and Phosphine gas)</title>
<path fill="none" stroke="black" stroke-width="0.78" d="M1040.55,-34.6C1090.5,-84.54 1239.65,-233.69 1299.46,-293.5"/>
<polygon fill="black" stroke="black" stroke-width="0.78" points="1297.08,-296.07 1306.63,-300.67 1302.03,-291.12 1297.08,-296.07"/>
<text text-anchor="middle" x="1131.51" y="-167.85" font-family="Times,serif" font-size="14.00">ash*35104</text>
</g>
<!-- 5,3 (Ash) -->
<g id="node3" class="node">
<title>5,3 (Ash)</title>
<ellipse fill="none" stroke="black" cx="1023.96" cy="-619.43" rx="51.99" ry="18"/>
<text text-anchor="middle" x="1023.96" y="-615.73" font-family="Times,serif" font-size="14.00">5,3 (Ash)</text>
</g>
<!-- 5,3 (Ash)&#45;&gt;5,2 (Raw Fiber) -->
<g id="edge2" class="edge">
<title>5,3 (Ash)&#45;&gt;5,2 (Raw Fiber)</title>
<path fill="none" stroke="black" stroke-width="1.12" d="M1006.93,-602.4C956.53,-552 807.92,-403.39 748.35,-343.83"/>
<polygon fill="black" stroke="black" stroke-width="1.12" points="750.76,-341.28 741.21,-336.69 745.81,-346.23 750.76,-341.28"/>
<text text-anchor="middle" x="839.14" y="-476.92" font-family="Times,serif" font-size="14.00">ash*50336</text>
</g>
<!-- 5,3 (Ash)&#45;&gt;3,6 (Phosphoric Acid and Phosphine gas) -->
<g id="edge7" class="edge">
<title>5,3 (Ash)&#45;&gt;3,6 (Phosphoric Acid and Phosphine gas)</title>
<path fill="none" stroke="black" stroke-width="1.14" d="M1040.99,-602.4C1091.39,-552 1240,-403.39 1299.56,-343.83"/>
<polygon fill="black" stroke="black" stroke-width="1.14" points="1302.11,-346.23 1306.7,-336.69 1297.16,-341.28 1302.11,-346.23"/>
<text text-anchor="middle" x="1131.78" y="-476.92" font-family="Times,serif" font-size="14.00">ash*51200</text>
</g>
<!-- 3,6 (Phosphoric Acid and Phosphine gas)&#45;&gt;5,2 (Raw Fiber) -->
<g id="edge4" class="edge">
<title>3,6 (Phosphoric Acid and Phosphine gas)&#45;&gt;5,2 (Raw Fiber)</title>
<path fill="none" stroke="black" stroke-width="1.04" d="M1124.41,-318.72C1020.58,-318.72 898.72,-318.72 816.78,-318.72"/>
<polygon fill="black" stroke="black" stroke-width="1.04" points="816.74,-315.22 806.74,-318.72 816.74,-322.22 816.74,-315.22"/>
<text text-anchor="middle" x="932.09" y="-322.52" font-family="Times,serif" font-size="14.00">ash*46944</text>
</g>
<!-- 3,6 (Phosphoric Acid and Phosphine gas)&#45;&gt;3,6 (Phosphoric Acid and Phosphine gas) -->
<g id="edge3" class="edge">
<title>3,6 (Phosphoric Acid and Phosphine gas)&#45;&gt;3,6 (Phosphoric Acid and Phosphine gas)</title>
<path fill="none" stroke="black" stroke-width="3.02" d="M1516.16,-323.98C1532.59,-322.86 1542.86,-321.11 1542.86,-318.72 1542.86,-316.87 1536.72,-315.4 1526.33,-314.31"/>
<polygon fill="black" stroke="black" stroke-width="3.02" points="1526.42,-310.8 1516.16,-313.45 1525.83,-317.78 1526.42,-310.8"/>
<text text-anchor="middle" x="1585.86" y="-315.02" font-family="Times,serif" font-size="14.00">ash*135568</text>
</g>
<!-- 4,&#45;2 (Ceramic) -->
<g id="node7" class="node">
<title>4,&#45;2 (Ceramic)</title>
<ellipse fill="none" stroke="black" cx="1459.47" cy="-207.83" rx="76.89" ry="18"/>
<text text-anchor="middle" x="1459.47" y="-204.13" font-family="Times,serif" font-size="14.00">4,&#45;2 (Ceramic)</text>
</g>
<!-- 3,6 (Phosphoric Acid and Phosphine gas)&#45;&gt;4,&#45;2 (Ceramic) -->
<g id="edge9" class="edge">
<title>3,6 (Phosphoric Acid and Phosphine gas)&#45;&gt;4,&#45;2 (Ceramic)</title>
<path fill="none" stroke="black" stroke-width="0.24" d="M1346.63,-300.65C1369.52,-281.83 1405.5,-252.23 1430.66,-231.54"/>
<polygon fill="black" stroke="black" stroke-width="0.24" points="1432.91,-234.21 1438.41,-225.15 1428.47,-228.8 1432.91,-234.21"/>
<text text-anchor="middle" x="1350.14" y="-269.9" font-family="Times,serif" font-size="14.00">ash*10688</text>
</g>
<!-- 0,7 (Coal Gas) -->
<g id="node5" class="node">
<title>0,7 (Coal Gas)</title>
<ellipse fill="none" stroke="black" cx="1459.31" cy="-430.23" rx="76.09" ry="18"/>
<text text-anchor="middle" x="1459.31" y="-426.53" font-family="Times,serif" font-size="14.00">0,7 (Coal Gas)</text>
</g>
<!-- 0,7 (Coal Gas)&#45;&gt;3,6 (Phosphoric Acid and Phosphine gas) -->
<g id="edge6" class="edge">
<title>0,7 (Coal Gas)&#45;&gt;3,6 (Phosphoric Acid and Phosphine gas)</title>
<path fill="none" stroke="black" stroke-width="0.23" d="M1438.28,-412.81C1415.72,-394.13 1379.73,-364.31 1354.31,-343.26"/>
<polygon fill="black" stroke="black" stroke-width="0.23" points="1356.39,-340.44 1346.46,-336.76 1351.93,-345.83 1356.39,-340.44"/>
<text text-anchor="middle" x="1357.79" y="-381.83" font-family="Times,serif" font-size="14.00">ash*10480</text>
</g>
<!-- &#45;5,&#45;1 (Coal and Coke and Syngas and Ash and Coke Oven Gas and...) -->
<g id="node6" class="node">
<title>&#45;5,&#45;1 (Coal and Coke and Syngas and Ash and Coke Oven Gas and...)</title>
<ellipse fill="none" stroke="black" cx="325.62" cy="-318.72" rx="325.74" ry="18"/>
<text text-anchor="middle" x="325.62" y="-315.02" font-family="Times,serif" font-size="14.00">&#45;5,&#45;1 (Coal and Coke and Syngas and Ash and Coke Oven Gas and...)</text>
</g>
<!-- &#45;5,&#45;1 (Coal and Coke and Syngas and Ash and Coke Oven Gas and...)&#45;&gt;5,2 (Raw Fiber) -->
<g id="edge8" class="edge">
<title>&#45;5,&#45;1 (Coal and Coke and Syngas and Ash and Coke Oven Gas and...)&#45;&gt;5,2 (Raw Fiber)</title>
<path fill="none" stroke="black" stroke-width="0.22" d="M651.7,-318.72C651.78,-318.72 651.86,-318.72 651.94,-318.72"/>
<polygon fill="black" stroke="black" stroke-width="0.22" points="642.19,-322.22 652.19,-318.72 642.19,-315.22 642.19,-322.22"/>
<text text-anchor="middle" x="690.32" y="-322.52" font-family="Times,serif" font-size="14.00">ash*10032</text>
</g>
</g>
</svg>
