<?xml version="1.0" encoding="UTF-8" standalone="no"?>
<!DOCTYPE svg PUBLIC "-//W3C//DTD SVG 1.1//EN"
 "http://www.w3.org/Graphics/SVG/1.1/DTD/svg11.dtd">
<!-- Generated by graphviz version 2.43.0 (0)
 -->
<!-- Title: %3 Pages: 1 -->
<svg width="855pt" height="44pt"
 viewBox="0.00 0.00 854.59 44.00" xmlns="http://www.w3.org/2000/svg" xmlns:xlink="http://www.w3.org/1999/xlink">
<g id="graph0" class="graph" transform="scale(1 1) rotate(0) translate(4 40)">
<title>%3</title>
<polygon fill="white" stroke="transparent" points="-4,4 -4,-40 850.59,-40 850.59,4 -4,4"/>
<!-- &#45;5,&#45;4 (low priority (slaked)? lime) -->
<g id="node1" class="node">
<title>&#45;5,&#45;4 (low priority (slaked)? lime)</title>
<ellipse fill="none" stroke="black" cx="408.02" cy="-18" rx="162.47" ry="18"/>
<text text-anchor="middle" x="408.02" y="-14.3" font-family="Times,serif" font-size="14.00">&#45;5,&#45;4 (low priority (slaked)? lime)</text>
</g>
<!-- 4,12 (Molten Glass) -->
<g id="node2" class="node">
<title>4,12 (Molten Glass)</title>
<ellipse fill="none" stroke="black" cx="744.55" cy="-18" rx="102.08" ry="18"/>
<text text-anchor="middle" x="744.55" y="-14.3" font-family="Times,serif" font-size="14.00">4,12 (Molten Glass)</text>
</g>
<!-- &#45;5,&#45;4 (low priority (slaked)? lime)&#45;&gt;4,12 (Molten Glass) -->
<g id="edge1" class="edge">
<title>&#45;5,&#45;4 (low priority (slaked)? lime)&#45;&gt;4,12 (Molten Glass)</title>
<path fill="none" stroke="black" stroke-width="1.71" d="M570.86,-18C591.58,-18 612.4,-18 632.08,-18"/>
<polygon fill="black" stroke="black" stroke-width="1.71" points="632.26,-21.5 642.26,-18 632.26,-14.5 632.26,-21.5"/>
<text text-anchor="middle" x="601.47" y="-6.8" font-family="Times,serif" font-size="14.00">lime*274640</text>
</g>
<!-- 0,0 (LE BUS) -->
<g id="node3" class="node">
<title>0,0 (LE BUS)</title>
<ellipse fill="none" stroke="black" cx="71.49" cy="-18" rx="71.49" ry="18"/>
<text text-anchor="middle" x="71.49" y="-14.3" font-family="Times,serif" font-size="14.00">0,0 (LE BUS)</text>
</g>
<!-- &#45;5,&#45;4 (low priority (slaked)? lime)&#45;&gt;0,0 (LE BUS) -->
<g id="edge2" class="edge">
<title>&#45;5,&#45;4 (low priority (slaked)? lime)&#45;&gt;0,0 (LE BUS)</title>
<path fill="none" stroke="black" stroke-width="0.29" d="M245.18,-18C213.2,-18 180.96,-18 153.09,-18"/>
<polygon fill="black" stroke="black" stroke-width="0.29" points="153.03,-14.5 143.03,-18 153.03,-21.5 153.03,-14.5"/>
<text text-anchor="middle" x="199.13" y="-6.8" font-family="Times,serif" font-size="14.00">lime*47120</text>
</g>
</g>
</svg>
