<?xml version="1.0" encoding="UTF-8" standalone="no"?>
<!DOCTYPE svg PUBLIC "-//W3C//DTD SVG 1.1//EN"
 "http://www.w3.org/Graphics/SVG/1.1/DTD/svg11.dtd">
<!-- Generated by graphviz version 2.43.0 (0)
 -->
<!-- Title: %3 Pages: 1 -->
<svg width="1357pt" height="44pt"
 viewBox="0.00 0.00 1356.99 44.00" xmlns="http://www.w3.org/2000/svg" xmlns:xlink="http://www.w3.org/1999/xlink">
<g id="graph0" class="graph" transform="scale(1 1) rotate(0) translate(4 40)">
<title>%3</title>
<polygon fill="white" stroke="transparent" points="-4,4 -4,-40 1352.99,-40 1352.99,4 -4,4"/>
<!-- 2,10 (Nickel plate and Nichrome) -->
<g id="node1" class="node">
<title>2,10 (Nickel plate and Nichrome)</title>
<ellipse fill="none" stroke="black" cx="569.86" cy="-18" rx="165.17" ry="18"/>
<text text-anchor="middle" x="569.86" y="-14.3" font-family="Times,serif" font-size="14.00">2,10 (Nickel plate and Nichrome)</text>
</g>
<!-- 4,4 (Hydrogen Chloride, item=nylon Nylon/Nylon parts) -->
<g id="node2" class="node">
<title>4,4 (Hydrogen Chloride, item=nylon Nylon/Nylon parts)</title>
<ellipse fill="none" stroke="black" cx="1077.97" cy="-18" rx="271.05" ry="18"/>
<text text-anchor="middle" x="1077.97" y="-14.3" font-family="Times,serif" font-size="14.00">4,4 (Hydrogen Chloride, item=nylon Nylon/Nylon parts)</text>
</g>
<!-- 2,10 (Nickel plate and Nichrome)&#45;&gt;4,4 (Hydrogen Chloride, item=nylon Nylon/Nylon parts) -->
<g id="edge1" class="edge">
<title>2,10 (Nickel plate and Nichrome)&#45;&gt;4,4 (Hydrogen Chloride, item=nylon Nylon/Nylon parts)</title>
<path fill="none" stroke="black" stroke-width="1.61" d="M735.18,-18C754.97,-18 775.58,-18 796.44,-18"/>
<polygon fill="black" stroke="black" stroke-width="1.61" points="796.7,-21.5 806.7,-18 796.7,-14.5 796.7,-21.5"/>
<text text-anchor="middle" x="765.81" y="-6.8" font-family="Times,serif" font-size="14.00">nichrome*17400</text>
</g>
<!-- 4,&#45;1 (Fluid) -->
<g id="node3" class="node">
<title>4,&#45;1 (Fluid)</title>
<ellipse fill="none" stroke="black" cx="61.74" cy="-18" rx="61.99" ry="18"/>
<text text-anchor="middle" x="61.74" y="-14.3" font-family="Times,serif" font-size="14.00">4,&#45;1 (Fluid)</text>
</g>
<!-- 2,10 (Nickel plate and Nichrome)&#45;&gt;4,&#45;1 (Fluid) -->
<g id="edge2" class="edge">
<title>2,10 (Nickel plate and Nichrome)&#45;&gt;4,&#45;1 (Fluid)</title>
<path fill="none" stroke="black" stroke-width="0.39" d="M404.54,-18C313,-18 203.9,-18 133.77,-18"/>
<polygon fill="black" stroke="black" stroke-width="0.39" points="133.71,-14.5 123.71,-18 133.71,-21.5 133.71,-14.5"/>
<text text-anchor="middle" x="214.15" y="-21.8" font-family="Times,serif" font-size="14.00">nichrome*4160</text>
</g>
</g>
</svg>
