<?xml version="1.0" encoding="UTF-8" standalone="no"?>
<!DOCTYPE svg PUBLIC "-//W3C//DTD SVG 1.1//EN"
 "http://www.w3.org/Graphics/SVG/1.1/DTD/svg11.dtd">
<!-- Generated by graphviz version 2.43.0 (0)
 -->
<!-- Title: %3 Pages: 1 -->
<svg width="715pt" height="531pt"
 viewBox="0.00 0.00 714.97 530.74" xmlns="http://www.w3.org/2000/svg" xmlns:xlink="http://www.w3.org/1999/xlink">
<g id="graph0" class="graph" transform="scale(1 1) rotate(0) translate(4 526.74)">
<title>%3</title>
<polygon fill="white" stroke="transparent" points="-4,4 -4,-526.74 710.97,-526.74 710.97,4 -4,4"/>
<!-- 4,2 (More fiberboard) -->
<g id="node1" class="node">
<title>4,2 (More fiberboard)</title>
<ellipse fill="none" stroke="black" cx="504.72" cy="-18" rx="111.28" ry="18"/>
<text text-anchor="middle" x="504.72" y="-14.3" font-family="Times,serif" font-size="14.00">4,2 (More fiberboard)</text>
</g>
<!-- 0,0 (LE BUS) -->
<g id="node2" class="node">
<title>0,0 (LE BUS)</title>
<ellipse fill="none" stroke="black" cx="504.72" cy="-504.74" rx="71.49" ry="18"/>
<text text-anchor="middle" x="504.72" y="-501.04" font-family="Times,serif" font-size="14.00">0,0 (LE BUS)</text>
</g>
<!-- 4,2 (More fiberboard)&#45;&gt;0,0 (LE BUS) -->
<g id="edge1" class="edge">
<title>4,2 (More fiberboard)&#45;&gt;0,0 (LE BUS)</title>
<path fill="none" stroke="black" stroke-width="4.84" d="M504.72,-36.19C504.72,-109.92 504.72,-386.78 504.72,-476.49"/>
<polygon fill="black" stroke="black" stroke-width="4.84" points="500.49,-476.71 504.72,-486.71 508.95,-476.71 500.49,-476.71"/>
<text text-anchor="middle" x="419.72" y="-245.14" font-family="Times,serif" font-size="14.00">creosote&#45;barrel*149317</text>
</g>
<!-- 5,&#45;2 (Lubricant) -->
<g id="node3" class="node">
<title>5,&#45;2 (Lubricant)</title>
<ellipse fill="none" stroke="black" cx="223.7" cy="-18" rx="83.39" ry="18"/>
<text text-anchor="middle" x="223.7" y="-14.3" font-family="Times,serif" font-size="14.00">5,&#45;2 (Lubricant)</text>
</g>
<!-- 4,2 (More fiberboard)&#45;&gt;5,&#45;2 (Lubricant) -->
<g id="edge2" class="edge">
<title>4,2 (More fiberboard)&#45;&gt;5,&#45;2 (Lubricant)</title>
<path fill="none" stroke="black" stroke-width="1.49" d="M393.25,-18C368.18,-18 341.81,-18 317.54,-18"/>
<polygon fill="black" stroke="black" stroke-width="1.49" points="317.28,-14.5 307.28,-18 317.28,-21.5 317.28,-14.5"/>
<text text-anchor="middle" x="315.15" y="-6.8" font-family="Times,serif" font-size="14.00">creosote&#45;barrel*45907</text>
</g>
<!-- 4,&#45;1 (Fluid) -->
<g id="node4" class="node">
<title>4,&#45;1 (Fluid)</title>
<ellipse fill="none" stroke="black" cx="645.23" cy="-261.37" rx="61.99" ry="18"/>
<text text-anchor="middle" x="645.23" y="-257.67" font-family="Times,serif" font-size="14.00">4,&#45;1 (Fluid)</text>
</g>
<!-- 4,2 (More fiberboard)&#45;&gt;4,&#45;1 (Fluid) -->
<g id="edge3" class="edge">
<title>4,2 (More fiberboard)&#45;&gt;4,&#45;1 (Fluid)</title>
<path fill="none" stroke="black" stroke-width="0.41" d="M515.28,-36.29C539.86,-78.87 601,-184.77 629.78,-234.62"/>
<polygon fill="black" stroke="black" stroke-width="0.41" points="626.89,-236.61 634.92,-243.52 632.96,-233.11 626.89,-236.61"/>
<text text-anchor="middle" x="492.03" y="-139.25" font-family="Times,serif" font-size="14.00">creosote&#45;barrel*12504</text>
</g>
<!-- 5,8 (Ulric Food) -->
<g id="node5" class="node">
<title>5,8 (Ulric Food)</title>
<ellipse fill="none" stroke="black" cx="83.19" cy="-261.37" rx="83.39" ry="18"/>
<text text-anchor="middle" x="83.19" y="-257.67" font-family="Times,serif" font-size="14.00">5,8 (Ulric Food)</text>
</g>
<!-- 4,2 (More fiberboard)&#45;&gt;5,8 (Ulric Food) -->
<g id="edge6" class="edge">
<title>4,2 (More fiberboard)&#45;&gt;5,8 (Ulric Food)</title>
<path fill="none" stroke="black" stroke-width="0.4" d="M474.4,-35.5C399.17,-78.94 204,-191.62 121.22,-239.41"/>
<polygon fill="black" stroke="black" stroke-width="0.4" points="119.3,-236.48 112.39,-244.51 122.8,-242.54 119.3,-236.48"/>
<text text-anchor="middle" x="217.31" y="-141.26" font-family="Times,serif" font-size="14.00">creosote&#45;barrel*12272</text>
</g>
<!-- 4,12 (Molten Glass) -->
<g id="node6" class="node">
<title>4,12 (Molten Glass)</title>
<ellipse fill="none" stroke="black" cx="223.7" cy="-504.74" rx="102.08" ry="18"/>
<text text-anchor="middle" x="223.7" y="-501.04" font-family="Times,serif" font-size="14.00">4,12 (Molten Glass)</text>
</g>
<!-- 4,2 (More fiberboard)&#45;&gt;4,12 (Molten Glass) -->
<g id="edge8" class="edge">
<title>4,2 (More fiberboard)&#45;&gt;4,12 (Molten Glass)</title>
<path fill="none" stroke="black" stroke-width="0.22" d="M494.21,-36.19C451.43,-110.29 290.17,-389.61 239.23,-477.85"/>
<polygon fill="black" stroke="black" stroke-width="0.22" points="236.08,-476.3 234.11,-486.71 242.14,-479.8 236.08,-476.3"/>
<text text-anchor="middle" x="290.72" y="-260.82" font-family="Times,serif" font-size="14.00">creosote&#45;barrel*6800</text>
</g>
<!-- 0,0 (LE BUS)&#45;&gt;5,&#45;2 (Lubricant) -->
<g id="edge4" class="edge">
<title>0,0 (LE BUS)&#45;&gt;5,&#45;2 (Lubricant)</title>
<path fill="none" stroke="black" stroke-width="0.99" d="M494.38,-486.84C451.87,-413.2 290.31,-133.37 239.26,-44.95"/>
<polygon fill="black" stroke="black" stroke-width="0.99" points="242.16,-42.97 234.13,-36.06 236.1,-46.47 242.16,-42.97"/>
<text text-anchor="middle" x="447.32" y="-269.69" font-family="Times,serif" font-size="14.00">creosote&#45;barrel*30504</text>
</g>
<!-- 0,0 (LE BUS)&#45;&gt;4,&#45;1 (Fluid) -->
<g id="edge5" class="edge">
<title>0,0 (LE BUS)&#45;&gt;4,&#45;1 (Fluid)</title>
<path fill="none" stroke="black" stroke-width="0.26" d="M515.05,-486.84C539.46,-444.56 600.82,-338.29 629.72,-288.23"/>
<polygon fill="black" stroke="black" stroke-width="0.26" points="632.91,-289.7 634.88,-279.29 626.85,-286.2 632.91,-289.7"/>
<text text-anchor="middle" x="496.38" y="-391.34" font-family="Times,serif" font-size="14.00">creosote&#45;barrel*8062</text>
</g>
<!-- 0,0 (LE BUS)&#45;&gt;5,8 (Ulric Food) -->
<g id="edge7" class="edge">
<title>0,0 (LE BUS)&#45;&gt;5,8 (Ulric Food)</title>
<path fill="none" stroke="black" stroke-width="0.27" d="M476.08,-488.2C402.13,-445.51 204.8,-331.58 121.33,-283.38"/>
<polygon fill="black" stroke="black" stroke-width="0.27" points="122.84,-280.22 112.43,-278.25 119.34,-286.28 122.84,-280.22"/>
<text text-anchor="middle" x="222.7" y="-389.59" font-family="Times,serif" font-size="14.00">creosote&#45;barrel*8458</text>
</g>
<!-- 0,0 (LE BUS)&#45;&gt;4,12 (Molten Glass) -->
<g id="edge9" class="edge">
<title>0,0 (LE BUS)&#45;&gt;4,12 (Molten Glass)</title>
<path fill="none" stroke="black" stroke-width="0.13" d="M433.08,-504.74C403.6,-504.74 368.76,-504.74 336.04,-504.74"/>
<polygon fill="black" stroke="black" stroke-width="0.13" points="335.96,-501.24 325.96,-504.74 335.96,-508.24 335.96,-501.24"/>
<text text-anchor="middle" x="384.56" y="-493.54" font-family="Times,serif" font-size="14.00">creosote&#45;barrel*4000</text>
</g>
</g>
</svg>
