<?xml version="1.0" encoding="UTF-8" standalone="no"?>
<!DOCTYPE svg PUBLIC "-//W3C//DTD SVG 1.1//EN"
 "http://www.w3.org/Graphics/SVG/1.1/DTD/svg11.dtd">
<!-- Generated by graphviz version 2.43.0 (0)
 -->
<!-- Title: %3 Pages: 1 -->
<svg width="1426pt" height="991pt"
 viewBox="0.00 0.00 1426.38 991.17" xmlns="http://www.w3.org/2000/svg" xmlns:xlink="http://www.w3.org/1999/xlink">
<g id="graph0" class="graph" transform="scale(1 1) rotate(0) translate(4 987.17)">
<title>%3</title>
<polygon fill="white" stroke="transparent" points="-4,4 -4,-987.17 1422.38,-987.17 1422.38,4 -4,4"/>
<!-- &#45;7,0 (Ulric manure duplicate) -->
<g id="node1" class="node">
<title>&#45;7,0 (Ulric manure duplicate)</title>
<ellipse fill="none" stroke="black" cx="276.88" cy="-198.89" rx="145.67" ry="18"/>
<text text-anchor="middle" x="276.88" y="-195.19" font-family="Times,serif" font-size="14.00">&#45;7,0 (Ulric manure duplicate)</text>
</g>
<!-- &#45;4,2 (This line not currently using manure, Ralesia seeds) -->
<g id="node2" class="node">
<title>&#45;4,2 (This line not currently using manure, Ralesia seeds)</title>
<ellipse fill="none" stroke="black" cx="276.88" cy="-784.28" rx="276.75" ry="18"/>
<text text-anchor="middle" x="276.88" y="-780.58" font-family="Times,serif" font-size="14.00">&#45;4,2 (This line not currently using manure, Ralesia seeds)</text>
</g>
<!-- &#45;7,0 (Ulric manure duplicate)&#45;&gt;&#45;4,2 (This line not currently using manure, Ralesia seeds) -->
<g id="edge1" class="edge">
<title>&#45;7,0 (Ulric manure duplicate)&#45;&gt;&#45;4,2 (This line not currently using manure, Ralesia seeds)</title>
<path fill="none" stroke="black" stroke-width="0.34" d="M276.88,-217.05C276.88,-301.12 276.88,-652.76 276.88,-755.79"/>
<polygon fill="black" stroke="black" stroke-width="0.34" points="273.38,-756.04 276.88,-766.04 280.38,-756.04 273.38,-756.04"/>
<text text-anchor="middle" x="223.38" y="-490.22" font-family="Times,serif" font-size="14.00">manure*30160</text>
</g>
<!-- &#45;6,4 (Urea) -->
<g id="node3" class="node">
<title>&#45;6,4 (Urea)</title>
<ellipse fill="none" stroke="black" cx="833.61" cy="-18" rx="61.19" ry="18"/>
<text text-anchor="middle" x="833.61" y="-14.3" font-family="Times,serif" font-size="14.00">&#45;6,4 (Urea)</text>
</g>
<!-- &#45;7,0 (Ulric manure duplicate)&#45;&gt;&#45;6,4 (Urea) -->
<g id="edge2" class="edge">
<title>&#45;7,0 (Ulric manure duplicate)&#45;&gt;&#45;6,4 (Urea)</title>
<path fill="none" stroke="black" stroke-width="3.19" d="M328.75,-182.04C435.18,-147.46 677.09,-68.86 782.69,-34.54"/>
<polygon fill="black" stroke="black" stroke-width="3.19" points="784.05,-37.78 792.48,-31.36 781.89,-31.12 784.05,-37.78"/>
<text text-anchor="middle" x="497.72" y="-112.09" font-family="Times,serif" font-size="14.00">manure*284880</text>
</g>
<!-- 0,&#45;8 (Raw fibre 2 duplicate) -->
<g id="node5" class="node">
<title>0,&#45;8 (Raw fibre 2 duplicate)</title>
<ellipse fill="none" stroke="black" cx="833.61" cy="-965.17" rx="137.58" ry="18"/>
<text text-anchor="middle" x="833.61" y="-961.47" font-family="Times,serif" font-size="14.00">0,&#45;8 (Raw fibre 2 duplicate)</text>
</g>
<!-- &#45;7,0 (Ulric manure duplicate)&#45;&gt;0,&#45;8 (Raw fibre 2 duplicate) -->
<g id="edge8" class="edge">
<title>&#45;7,0 (Ulric manure duplicate)&#45;&gt;0,&#45;8 (Raw fibre 2 duplicate)</title>
<path fill="none" stroke="black" stroke-width="0.28" d="M290.09,-217.08C364.07,-318.9 726.69,-818.01 814.45,-938.81"/>
<polygon fill="black" stroke="black" stroke-width="0.28" points="811.81,-941.12 820.52,-947.15 817.47,-937.01 811.81,-941.12"/>
<text text-anchor="middle" x="498.77" y="-581.74" font-family="Times,serif" font-size="14.00">manure*25040</text>
</g>
<!-- 11,6 (Ralesia 2) -->
<g id="node8" class="node">
<title>11,6 (Ralesia 2)</title>
<ellipse fill="none" stroke="black" cx="151.32" cy="-107.67" rx="83.39" ry="18"/>
<text text-anchor="middle" x="151.32" y="-103.97" font-family="Times,serif" font-size="14.00">11,6 (Ralesia 2)</text>
</g>
<!-- &#45;7,0 (Ulric manure duplicate)&#45;&gt;11,6 (Ralesia 2) -->
<g id="edge9" class="edge">
<title>&#45;7,0 (Ulric manure duplicate)&#45;&gt;11,6 (Ralesia 2)</title>
<path fill="none" stroke="black" stroke-width="0.28" d="M252.37,-181.09C232.71,-166.81 204.96,-146.65 183.51,-131.06"/>
<polygon fill="black" stroke="black" stroke-width="0.28" points="185.49,-128.17 175.34,-125.12 181.37,-133.83 185.49,-128.17"/>
<text text-anchor="middle" x="164.44" y="-159.88" font-family="Times,serif" font-size="14.00">manure*25040</text>
</g>
<!-- &#45;7,&#45;3 (Ulric Manure) -->
<g id="node4" class="node">
<title>&#45;7,&#45;3 (Ulric Manure)</title>
<ellipse fill="none" stroke="black" cx="1177.69" cy="-491.58" rx="102.88" ry="18"/>
<text text-anchor="middle" x="1177.69" y="-487.88" font-family="Times,serif" font-size="14.00">&#45;7,&#45;3 (Ulric Manure)</text>
</g>
<!-- &#45;7,&#45;3 (Ulric Manure)&#45;&gt;&#45;4,2 (This line not currently using manure, Ralesia seeds) -->
<g id="edge3" class="edge">
<title>&#45;7,&#45;3 (Ulric Manure)&#45;&gt;&#45;4,2 (This line not currently using manure, Ralesia seeds)</title>
<path fill="none" stroke="black" stroke-width="0.54" d="M1128.62,-507.53C976.36,-557 511.97,-707.89 340.97,-763.45"/>
<polygon fill="black" stroke="black" stroke-width="0.54" points="339.78,-760.16 331.35,-766.58 341.94,-766.82 339.78,-760.16"/>
<text text-anchor="middle" x="681.29" y="-639.29" font-family="Times,serif" font-size="14.00">manure*48000</text>
</g>
<!-- &#45;7,&#45;3 (Ulric Manure)&#45;&gt;&#45;6,4 (Urea) -->
<g id="edge4" class="edge">
<title>&#45;7,&#45;3 (Ulric Manure)&#45;&gt;&#45;6,4 (Urea)</title>
<path fill="none" stroke="black" stroke-width="3.53" d="M1164.62,-473.6C1111.93,-401.07 914.92,-129.91 852.62,-44.17"/>
<polygon fill="black" stroke="black" stroke-width="3.53" points="855.4,-42.04 846.69,-36 849.74,-46.15 855.4,-42.04"/>
<text text-anchor="middle" x="950.62" y="-262.68" font-family="Times,serif" font-size="14.00">manure*315600</text>
</g>
<!-- &#45;7,&#45;3 (Ulric Manure)&#45;&gt;0,&#45;8 (Raw fibre 2 duplicate) -->
<g id="edge5" class="edge">
<title>&#45;7,&#45;3 (Ulric Manure)&#45;&gt;0,&#45;8 (Raw fibre 2 duplicate)</title>
<path fill="none" stroke="black" stroke-width="0.28" d="M1164.62,-509.57C1111.93,-582.1 914.92,-853.26 852.62,-939"/>
<polygon fill="black" stroke="black" stroke-width="0.28" points="849.74,-937.02 846.69,-947.17 855.4,-941.13 849.74,-937.02"/>
<text text-anchor="middle" x="955.12" y="-728.09" font-family="Times,serif" font-size="14.00">manure*25040</text>
</g>
<!-- 7,8 (Raw fibre 2) -->
<g id="node6" class="node">
<title>7,8 (Raw fibre 2)</title>
<ellipse fill="none" stroke="black" cx="1329.34" cy="-380.72" rx="89.08" ry="18"/>
<text text-anchor="middle" x="1329.34" y="-377.02" font-family="Times,serif" font-size="14.00">7,8 (Raw fibre 2)</text>
</g>
<!-- &#45;7,&#45;3 (Ulric Manure)&#45;&gt;7,8 (Raw fibre 2) -->
<g id="edge6" class="edge">
<title>&#45;7,&#45;3 (Ulric Manure)&#45;&gt;7,8 (Raw fibre 2)</title>
<path fill="none" stroke="black" stroke-width="0.28" d="M1201.72,-474.02C1227.45,-455.21 1268.43,-425.25 1296.99,-404.37"/>
<polygon fill="black" stroke="black" stroke-width="0.28" points="1299.41,-406.93 1305.42,-398.21 1295.28,-401.28 1299.41,-406.93"/>
<text text-anchor="middle" x="1195.85" y="-442.99" font-family="Times,serif" font-size="14.00">manure*25040</text>
</g>
<!-- 11,4 (Rennea) -->
<g id="node7" class="node">
<title>11,4 (Rennea)</title>
<ellipse fill="none" stroke="black" cx="1326.9" cy="-615.88" rx="75.29" ry="18"/>
<text text-anchor="middle" x="1326.9" y="-612.18" font-family="Times,serif" font-size="14.00">11,4 (Rennea)</text>
</g>
<!-- &#45;7,&#45;3 (Ulric Manure)&#45;&gt;11,4 (Rennea) -->
<g id="edge7" class="edge">
<title>&#45;7,&#45;3 (Ulric Manure)&#45;&gt;11,4 (Rennea)</title>
<path fill="none" stroke="black" stroke-width="0.28" d="M1199.07,-509.39C1225.14,-531.11 1269.32,-567.91 1298.3,-592.05"/>
<polygon fill="black" stroke="black" stroke-width="0.28" points="1296.12,-594.79 1306.04,-598.5 1300.6,-589.41 1296.12,-594.79"/>
<text text-anchor="middle" x="1195.18" y="-554.52" font-family="Times,serif" font-size="14.00">manure*25040</text>
</g>
</g>
</svg>
