<?xml version="1.0" encoding="UTF-8" standalone="no"?>
<!DOCTYPE svg PUBLIC "-//W3C//DTD SVG 1.1//EN"
 "http://www.w3.org/Graphics/SVG/1.1/DTD/svg11.dtd">
<!-- Generated by graphviz version 2.43.0 (0)
 -->
<!-- Title: %3 Pages: 1 -->
<svg width="611pt" height="434pt"
 viewBox="0.00 0.00 610.59 434.04" xmlns="http://www.w3.org/2000/svg" xmlns:xlink="http://www.w3.org/1999/xlink">
<g id="graph0" class="graph" transform="scale(1 1) rotate(0) translate(4 430.04)">
<title>%3</title>
<polygon fill="white" stroke="transparent" points="-4,4 -4,-430.04 606.59,-430.04 606.59,4 -4,4"/>
<!-- 0,0 (LE BUS) -->
<g id="node1" class="node">
<title>0,0 (LE BUS)</title>
<ellipse fill="none" stroke="black" cx="269.92" cy="-203.28" rx="71.49" ry="18"/>
<text text-anchor="middle" x="269.92" y="-199.58" font-family="Times,serif" font-size="14.00">0,0 (LE BUS)</text>
</g>
<!-- 6,13 () -->
<g id="node2" class="node">
<title>6,13 ()</title>
<ellipse fill="none" stroke="black" cx="492.71" cy="-203.28" rx="40.89" ry="18"/>
<text text-anchor="middle" x="492.71" y="-199.58" font-family="Times,serif" font-size="14.00">6,13 ()</text>
</g>
<!-- 0,0 (LE BUS)&#45;&gt;6,13 () -->
<g id="edge1" class="edge">
<title>0,0 (LE BUS)&#45;&gt;6,13 ()</title>
<path fill="none" stroke="black" stroke-width="0.92" d="M341.64,-203.28C374.18,-203.28 411.92,-203.28 441.54,-203.28"/>
<polygon fill="black" stroke="black" stroke-width="0.92" points="441.65,-206.78 451.65,-203.28 441.65,-199.78 441.65,-206.78"/>
<text text-anchor="middle" x="497.09" y="-207.08" font-family="Times,serif" font-size="14.00">py&#45;construction&#45;robot&#45;01*390</text>
</g>
<!-- 9,&#45;2 () -->
<g id="node3" class="node">
<title>9,&#45;2 ()</title>
<ellipse fill="none" stroke="black" cx="182.15" cy="-408.04" rx="38.19" ry="18"/>
<text text-anchor="middle" x="182.15" y="-404.34" font-family="Times,serif" font-size="14.00">9,&#45;2 ()</text>
</g>
<!-- 0,0 (LE BUS)&#45;&gt;9,&#45;2 () -->
<g id="edge2" class="edge">
<title>0,0 (LE BUS)&#45;&gt;9,&#45;2 ()</title>
<path fill="none" stroke="black" stroke-width="1.23" d="M262.13,-221.45C246.67,-257.51 212.04,-338.31 193.84,-380.77"/>
<polygon fill="black" stroke="black" stroke-width="1.23" points="190.52,-379.64 189.79,-390.21 196.95,-382.39 190.52,-379.64"/>
<text text-anchor="middle" x="122.48" y="-304.91" font-family="Times,serif" font-size="14.00">py&#45;construction&#45;robot&#45;01*518</text>
</g>
<!-- 6,&#45;3 (Mine Me) -->
<g id="node4" class="node">
<title>6,&#45;3 (Mine Me)</title>
<ellipse fill="none" stroke="black" cx="146.2" cy="-18" rx="79.09" ry="18"/>
<text text-anchor="middle" x="146.2" y="-14.3" font-family="Times,serif" font-size="14.00">6,&#45;3 (Mine Me)</text>
</g>
<!-- 0,0 (LE BUS)&#45;&gt;6,&#45;3 (Mine Me) -->
<g id="edge3" class="edge">
<title>0,0 (LE BUS)&#45;&gt;6,&#45;3 (Mine Me)</title>
<path fill="none" stroke="black" stroke-width="0.85" d="M258.06,-185.51C236.22,-152.81 189.56,-82.93 163.94,-44.57"/>
<polygon fill="black" stroke="black" stroke-width="0.85" points="166.67,-42.36 158.21,-35.98 160.85,-46.24 166.67,-42.36"/>
<text text-anchor="middle" x="105.5" y="-118.84" font-family="Times,serif" font-size="14.00">py&#45;construction&#45;robot&#45;01*358</text>
</g>
</g>
</svg>
