<?xml version="1.0" encoding="UTF-8" standalone="no"?>
<!DOCTYPE svg PUBLIC "-//W3C//DTD SVG 1.1//EN"
 "http://www.w3.org/Graphics/SVG/1.1/DTD/svg11.dtd">
<!-- Generated by graphviz version 2.43.0 (0)
 -->
<!-- Title: %3 Pages: 1 -->
<svg width="1064pt" height="113pt"
 viewBox="0.00 0.00 1063.95 113.00" xmlns="http://www.w3.org/2000/svg" xmlns:xlink="http://www.w3.org/1999/xlink">
<g id="graph0" class="graph" transform="scale(1 1) rotate(0) translate(4 109)">
<title>%3</title>
<polygon fill="white" stroke="transparent" points="-4,4 -4,-109 1059.95,-109 1059.95,4 -4,4"/>
<!-- &#45;2,8 (syngas from coal dust and also wood) -->
<g id="node1" class="node">
<title>&#45;2,8 (syngas from coal dust and also wood)</title>
<ellipse fill="none" stroke="black" cx="621.93" cy="-87" rx="208.76" ry="18"/>
<text text-anchor="middle" x="621.93" y="-83.3" font-family="Times,serif" font-size="14.00">&#45;2,8 (syngas from coal dust and also wood)</text>
</g>
<!-- 4,&#45;2 (Ceramic) -->
<g id="node2" class="node">
<title>4,&#45;2 (Ceramic)</title>
<ellipse fill="none" stroke="black" cx="979.25" cy="-87" rx="76.89" ry="18"/>
<text text-anchor="middle" x="979.25" y="-83.3" font-family="Times,serif" font-size="14.00">4,&#45;2 (Ceramic)</text>
</g>
<!-- &#45;2,8 (syngas from coal dust and also wood)&#45;&gt;4,&#45;2 (Ceramic) -->
<g id="edge1" class="edge">
<title>&#45;2,8 (syngas from coal dust and also wood)&#45;&gt;4,&#45;2 (Ceramic)</title>
<path fill="none" stroke="black" stroke-width="1.84" d="M830.56,-87C852.21,-87 873.25,-87 892.37,-87"/>
<polygon fill="black" stroke="black" stroke-width="1.84" points="892.49,-90.5 902.49,-87 892.49,-83.5 892.49,-90.5"/>
<text text-anchor="middle" x="861.47" y="-75.8" font-family="Times,serif" font-size="14.00">ash*18352</text>
</g>
<!-- 4,10 (Fluid Recycling) -->
<g id="node3" class="node">
<title>4,10 (Fluid Recycling)</title>
<ellipse fill="none" stroke="black" cx="112.44" cy="-18" rx="112.38" ry="18"/>
<text text-anchor="middle" x="112.44" y="-14.3" font-family="Times,serif" font-size="14.00">4,10 (Fluid Recycling)</text>
</g>
<!-- 3,6 (Phosphoric Acid and Phosphine gas) -->
<g id="node4" class="node">
<title>3,6 (Phosphoric Acid and Phosphine gas)</title>
<ellipse fill="none" stroke="black" cx="497.06" cy="-18" rx="200.36" ry="18"/>
<text text-anchor="middle" x="497.06" y="-14.3" font-family="Times,serif" font-size="14.00">3,6 (Phosphoric Acid and Phosphine gas)</text>
</g>
<!-- 4,10 (Fluid Recycling)&#45;&gt;3,6 (Phosphoric Acid and Phosphine gas) -->
<g id="edge2" class="edge">
<title>4,10 (Fluid Recycling)&#45;&gt;3,6 (Phosphoric Acid and Phosphine gas)</title>
<path fill="none" stroke="black" stroke-width="0.16" d="M224.98,-18C244.5,-18 265.36,-18 286.51,-18"/>
<polygon fill="black" stroke="black" stroke-width="0.16" points="286.58,-21.5 296.58,-18 286.58,-14.5 286.58,-21.5"/>
<text text-anchor="middle" x="255.75" y="-6.8" font-family="Times,serif" font-size="14.00">ash*1584</text>
</g>
</g>
</svg>
