<?xml version="1.0" encoding="UTF-8" standalone="no"?>
<!DOCTYPE svg PUBLIC "-//W3C//DTD SVG 1.1//EN"
 "http://www.w3.org/Graphics/SVG/1.1/DTD/svg11.dtd">
<!-- Generated by graphviz version 2.43.0 (0)
 -->
<!-- Title: %3 Pages: 1 -->
<svg width="720pt" height="44pt"
 viewBox="0.00 0.00 720.05 44.00" xmlns="http://www.w3.org/2000/svg" xmlns:xlink="http://www.w3.org/1999/xlink">
<g id="graph0" class="graph" transform="scale(1 1) rotate(0) translate(4 40)">
<title>%3</title>
<polygon fill="white" stroke="transparent" points="-4,4 -4,-40 716.05,-40 716.05,4 -4,4"/>
<!-- 0,7 (Coal Gas) -->
<g id="node1" class="node">
<title>0,7 (Coal Gas)</title>
<ellipse fill="none" stroke="black" cx="76.04" cy="-18" rx="76.09" ry="18"/>
<text text-anchor="middle" x="76.04" y="-14.3" font-family="Times,serif" font-size="14.00">0,7 (Coal Gas)</text>
</g>
<!-- 4,10 (Fluid Recycling) -->
<g id="node2" class="node">
<title>4,10 (Fluid Recycling)</title>
<ellipse fill="none" stroke="black" cx="336.53" cy="-18" rx="112.38" ry="18"/>
<text text-anchor="middle" x="336.53" y="-14.3" font-family="Times,serif" font-size="14.00">4,10 (Fluid Recycling)</text>
</g>
<!-- 0,7 (Coal Gas)&#45;&gt;4,10 (Fluid Recycling) -->
<g id="edge1" class="edge">
<title>0,7 (Coal Gas)&#45;&gt;4,10 (Fluid Recycling)</title>
<path fill="none" stroke="black" stroke-width="0.18" d="M152.44,-18C171.66,-18 192.78,-18 213.65,-18"/>
<polygon fill="black" stroke="black" stroke-width="0.18" points="213.86,-21.5 223.86,-18 213.86,-14.5 213.86,-21.5"/>
<text text-anchor="middle" x="183.04" y="-6.8" font-family="Times,serif" font-size="14.00">flue&#45;gas&#45;barrel*3494</text>
</g>
<!-- &#45;2,9 (molten steel) -->
<g id="node3" class="node">
<title>&#45;2,9 (molten steel)</title>
<ellipse fill="none" stroke="black" cx="616.51" cy="-18" rx="95.58" ry="18"/>
<text text-anchor="middle" x="616.51" y="-14.3" font-family="Times,serif" font-size="14.00">&#45;2,9 (molten steel)</text>
</g>
<!-- &#45;2,9 (molten steel)&#45;&gt;4,10 (Fluid Recycling) -->
<g id="edge2" class="edge">
<title>&#45;2,9 (molten steel)&#45;&gt;4,10 (Fluid Recycling)</title>
<path fill="none" stroke="black" stroke-width="1.82" d="M520.94,-18C501.06,-18 479.85,-18 459.16,-18"/>
<polygon fill="black" stroke="black" stroke-width="1.82" points="459.05,-14.5 449.05,-18 459.05,-21.5 459.05,-14.5"/>
<text text-anchor="middle" x="450.8" y="-6.8" font-family="Times,serif" font-size="14.00">flue&#45;gas&#45;barrel*34914</text>
</g>
</g>
</svg>
