<?xml version="1.0" encoding="UTF-8" standalone="no"?>
<!DOCTYPE svg PUBLIC "-//W3C//DTD SVG 1.1//EN"
 "http://www.w3.org/Graphics/SVG/1.1/DTD/svg11.dtd">
<!-- Generated by graphviz version 2.43.0 (0)
 -->
<!-- Title: %3 Pages: 1 -->
<svg width="677pt" height="511pt"
 viewBox="0.00 0.00 676.81 511.08" xmlns="http://www.w3.org/2000/svg" xmlns:xlink="http://www.w3.org/1999/xlink">
<g id="graph0" class="graph" transform="scale(1 1) rotate(0) translate(4 507.08)">
<title>%3</title>
<polygon fill="white" stroke="transparent" points="-4,4 -4,-507.08 672.81,-507.08 672.81,4 -4,4"/>
<!-- 9,0 (Iron / Nickel mine) -->
<g id="node1" class="node">
<title>9,0 (Iron / Nickel mine)</title>
<ellipse fill="none" stroke="black" cx="392.54" cy="-18" rx="118.08" ry="18"/>
<text text-anchor="middle" x="392.54" y="-14.3" font-family="Times,serif" font-size="14.00">9,0 (Iron / Nickel mine)</text>
</g>
<!-- &#45;6,7 (Iron ore dust) -->
<g id="node2" class="node">
<title>&#45;6,7 (Iron ore dust)</title>
<ellipse fill="none" stroke="black" cx="118" cy="-107.2" rx="98.58" ry="18"/>
<text text-anchor="middle" x="118" y="-103.5" font-family="Times,serif" font-size="14.00">&#45;6,7 (Iron ore dust)</text>
</g>
<!-- 9,0 (Iron / Nickel mine)&#45;&gt;&#45;6,7 (Iron ore dust) -->
<g id="edge1" class="edge">
<title>9,0 (Iron / Nickel mine)&#45;&gt;&#45;6,7 (Iron ore dust)</title>
<path fill="none" stroke="black" stroke-width="3.02" d="M342.19,-34.36C295.31,-49.59 225.47,-72.29 176.22,-88.29"/>
<polygon fill="black" stroke="black" stroke-width="3.02" points="175.08,-84.98 166.65,-91.4 177.25,-91.63 175.08,-84.98"/>
<text text-anchor="middle" x="195.7" y="-65.13" font-family="Times,serif" font-size="14.00">iron&#45;ore*2053440</text>
</g>
<!-- 1,10 (Iron Ore Dust) -->
<g id="node4" class="node">
<title>1,10 (Iron Ore Dust)</title>
<ellipse fill="none" stroke="black" cx="392.54" cy="-485.08" rx="104.78" ry="18"/>
<text text-anchor="middle" x="392.54" y="-481.38" font-family="Times,serif" font-size="14.00">1,10 (Iron Ore Dust)</text>
</g>
<!-- 9,0 (Iron / Nickel mine)&#45;&gt;1,10 (Iron Ore Dust) -->
<g id="edge6" class="edge">
<title>9,0 (Iron / Nickel mine)&#45;&gt;1,10 (Iron Ore Dust)</title>
<path fill="none" stroke="black" stroke-width="0.3" d="M392.54,-36.02C392.54,-107.25 392.54,-369.44 392.54,-456.66"/>
<polygon fill="black" stroke="black" stroke-width="0.3" points="389.04,-456.86 392.54,-466.86 396.04,-456.86 389.04,-456.86"/>
<text text-anchor="middle" x="333.54" y="-250.14" font-family="Times,serif" font-size="14.00">iron&#45;ore*204360</text>
</g>
<!-- &#45;10,&#45;4 () -->
<g id="node3" class="node">
<title>&#45;10,&#45;4 ()</title>
<ellipse fill="none" stroke="black" cx="118" cy="-395.88" rx="46.59" ry="18"/>
<text text-anchor="middle" x="118" y="-392.18" font-family="Times,serif" font-size="14.00">&#45;10,&#45;4 ()</text>
</g>
<!-- &#45;10,&#45;4 ()&#45;&gt;&#45;6,7 (Iron ore dust) -->
<g id="edge4" class="edge">
<title>&#45;10,&#45;4 ()&#45;&gt;&#45;6,7 (Iron ore dust)</title>
<path fill="none" stroke="black" stroke-width="1.23" d="M118,-377.82C118,-329.02 118,-194.2 118,-135.33"/>
<polygon fill="black" stroke="black" stroke-width="1.23" points="121.5,-135.26 118,-125.26 114.5,-135.26 121.5,-135.26"/>
<text text-anchor="middle" x="59" y="-260.37" font-family="Times,serif" font-size="14.00">iron&#45;ore*835632</text>
</g>
<!-- &#45;10,&#45;4 ()&#45;&gt;1,10 (Iron Ore Dust) -->
<g id="edge2" class="edge">
<title>&#45;10,&#45;4 ()&#45;&gt;1,10 (Iron Ore Dust)</title>
<path fill="none" stroke="black" stroke-width="0.36" d="M153.89,-407.54C199.55,-422.37 279.02,-448.2 333.62,-465.94"/>
<polygon fill="black" stroke="black" stroke-width="0.36" points="332.59,-469.28 343.18,-469.04 334.75,-462.62 332.59,-469.28"/>
<text text-anchor="middle" x="184.76" y="-440.54" font-family="Times,serif" font-size="14.00">iron&#45;ore*244512</text>
</g>
<!-- 2,13 (Polybutadiene) -->
<g id="node5" class="node">
<title>2,13 (Polybutadiene)</title>
<ellipse fill="none" stroke="black" cx="562.22" cy="-251.54" rx="106.68" ry="18"/>
<text text-anchor="middle" x="562.22" y="-247.84" font-family="Times,serif" font-size="14.00">2,13 (Polybutadiene)</text>
</g>
<!-- 2,13 (Polybutadiene)&#45;&gt;&#45;6,7 (Iron ore dust) -->
<g id="edge3" class="edge">
<title>2,13 (Polybutadiene)&#45;&gt;&#45;6,7 (Iron ore dust)</title>
<path fill="none" stroke="black" stroke-width="0.91" d="M512.98,-235.54C430.35,-208.69 264.19,-154.7 176.02,-126.06"/>
<polygon fill="black" stroke="black" stroke-width="0.91" points="177.04,-122.71 166.44,-122.94 174.87,-129.36 177.04,-122.71"/>
<text text-anchor="middle" x="285.5" y="-184.6" font-family="Times,serif" font-size="14.00">iron&#45;ore*614832</text>
</g>
<!-- 2,13 (Polybutadiene)&#45;&gt;1,10 (Iron Ore Dust) -->
<g id="edge5" class="edge">
<title>2,13 (Polybutadiene)&#45;&gt;1,10 (Iron Ore Dust)</title>
<path fill="none" stroke="black" stroke-width="0.18" d="M549.19,-269.48C519.46,-310.4 446.5,-410.82 411.66,-458.77"/>
<polygon fill="black" stroke="black" stroke-width="0.18" points="408.67,-456.94 405.62,-467.08 414.33,-461.05 408.67,-456.94"/>
<text text-anchor="middle" x="421.43" y="-367.92" font-family="Times,serif" font-size="14.00">iron&#45;ore*121392</text>
</g>
</g>
</svg>
