<?xml version="1.0" encoding="UTF-8" standalone="no"?>
<!DOCTYPE svg PUBLIC "-//W3C//DTD SVG 1.1//EN"
 "http://www.w3.org/Graphics/SVG/1.1/DTD/svg11.dtd">
<!-- Generated by graphviz version 2.43.0 (0)
 -->
<!-- Title: %3 Pages: 1 -->
<svg width="1616pt" height="1179pt"
 viewBox="0.00 0.00 1616.35 1179.04" xmlns="http://www.w3.org/2000/svg" xmlns:xlink="http://www.w3.org/1999/xlink">
<g id="graph0" class="graph" transform="scale(1 1) rotate(0) translate(4 1175.04)">
<title>%3</title>
<polygon fill="white" stroke="transparent" points="-4,4 -4,-1175.04 1612.35,-1175.04 1612.35,4 -4,4"/>
<!-- 0,5 (Titanium Processing (Grade 4)) -->
<g id="node1" class="node">
<title>0,5 (Titanium Processing (Grade 4))</title>
<ellipse fill="none" stroke="black" cx="708.32" cy="-584.99" rx="176.57" ry="18"/>
<text text-anchor="middle" x="708.32" y="-581.29" font-family="Times,serif" font-size="14.00">0,5 (Titanium Processing (Grade 4))</text>
</g>
<!-- &#45;1,6 (Flimble&#39;s Slaughterhouse and Daycare Centre, Auog Products) -->
<g id="node2" class="node">
<title>&#45;1,6 (Flimble&#39;s Slaughterhouse and Daycare Centre, Auog Products)</title>
<ellipse fill="none" stroke="black" cx="1282.73" cy="-584.99" rx="325.74" ry="18"/>
<text text-anchor="middle" x="1282.73" y="-581.29" font-family="Times,serif" font-size="14.00">&#45;1,6 (Flimble&#39;s Slaughterhouse and Daycare Centre, Auog Products)</text>
</g>
<!-- 0,5 (Titanium Processing (Grade 4))&#45;&gt;&#45;1,6 (Flimble&#39;s Slaughterhouse and Daycare Centre, Auog Products) -->
<g id="edge1" class="edge">
<title>0,5 (Titanium Processing (Grade 4))&#45;&gt;&#45;1,6 (Flimble&#39;s Slaughterhouse and Daycare Centre, Auog Products)</title>
<path fill="none" stroke="black" stroke-width="1.83" d="M885.35,-584.99C905.2,-584.99 925.87,-584.99 946.91,-584.99"/>
<polygon fill="black" stroke="black" stroke-width="1.83" points="946.93,-588.49 956.93,-584.99 946.93,-581.49 946.93,-588.49"/>
<text text-anchor="middle" x="916.13" y="-573.79" font-family="Times,serif" font-size="14.00">titanium&#45;plate*15088</text>
</g>
<!-- &#45;7,&#45;4 (Isomer&#39;s Slaughterhouse and Daycare Centre, Bone Meal) -->
<g id="node3" class="node">
<title>&#45;7,&#45;4 (Isomer&#39;s Slaughterhouse and Daycare Centre, Bone Meal)</title>
<ellipse fill="none" stroke="black" cx="793.49" cy="-1153.04" rx="307.35" ry="18"/>
<text text-anchor="middle" x="793.49" y="-1149.34" font-family="Times,serif" font-size="14.00">&#45;7,&#45;4 (Isomer&#39;s Slaughterhouse and Daycare Centre, Bone Meal)</text>
</g>
<!-- 0,5 (Titanium Processing (Grade 4))&#45;&gt;&#45;7,&#45;4 (Isomer&#39;s Slaughterhouse and Daycare Centre, Bone Meal) -->
<g id="edge2" class="edge">
<title>0,5 (Titanium Processing (Grade 4))&#45;&gt;&#45;7,&#45;4 (Isomer&#39;s Slaughterhouse and Daycare Centre, Bone Meal)</title>
<path fill="none" stroke="black" stroke-width="0.98" d="M711.06,-603.25C723.44,-685.79 774.21,-1024.43 789.27,-1124.85"/>
<polygon fill="black" stroke="black" stroke-width="0.98" points="785.82,-1125.48 790.77,-1134.86 792.74,-1124.45 785.82,-1125.48"/>
<text text-anchor="middle" x="677.66" y="-867.85" font-family="Times,serif" font-size="14.00">titanium&#45;plate*8112</text>
</g>
<!-- &#45;4,1 (item=ulric Ulrics) -->
<g id="node4" class="node">
<title>&#45;4,1 (item=ulric Ulrics)</title>
<ellipse fill="none" stroke="black" cx="254.05" cy="-936.53" rx="118.08" ry="18"/>
<text text-anchor="middle" x="254.05" y="-932.83" font-family="Times,serif" font-size="14.00">&#45;4,1 (item=ulric Ulrics)</text>
</g>
<!-- 0,5 (Titanium Processing (Grade 4))&#45;&gt;&#45;4,1 (item=ulric Ulrics) -->
<g id="edge3" class="edge">
<title>0,5 (Titanium Processing (Grade 4))&#45;&gt;&#45;4,1 (item=ulric Ulrics)</title>
<path fill="none" stroke="black" stroke-width="0.98" d="M685.17,-602.9C609.67,-661.33 370.54,-846.39 284.92,-912.65"/>
<polygon fill="black" stroke="black" stroke-width="0.98" points="282.66,-909.97 276.89,-918.86 286.94,-915.51 282.66,-909.97"/>
<text text-anchor="middle" x="412.54" y="-761.58" font-family="Times,serif" font-size="14.00">titanium&#45;plate*8112</text>
</g>
<!-- 7,&#45;2 (item=guts Auog guts) -->
<g id="node5" class="node">
<title>7,&#45;2 (item=guts Auog guts)</title>
<ellipse fill="none" stroke="black" cx="137.14" cy="-524.24" rx="137.28" ry="18"/>
<text text-anchor="middle" x="137.14" y="-520.54" font-family="Times,serif" font-size="14.00">7,&#45;2 (item=guts Auog guts)</text>
</g>
<!-- 0,5 (Titanium Processing (Grade 4))&#45;&gt;7,&#45;2 (item=guts Auog guts) -->
<g id="edge4" class="edge">
<title>0,5 (Titanium Processing (Grade 4))&#45;&gt;7,&#45;2 (item=guts Auog guts)</title>
<path fill="none" stroke="black" stroke-width="1.49" d="M585.79,-571.96C487.64,-561.52 350.86,-546.97 254.2,-536.69"/>
<polygon fill="black" stroke="black" stroke-width="1.49" points="254.4,-533.19 244.09,-535.61 253.66,-540.15 254.4,-533.19"/>
<text text-anchor="middle" x="342.99" y="-558.12" font-family="Times,serif" font-size="14.00">titanium&#45;plate*12288</text>
</g>
<!-- 0,9 (Auog Brains) -->
<g id="node6" class="node">
<title>0,9 (Auog Brains)</title>
<ellipse fill="none" stroke="black" cx="318.19" cy="-163.4" rx="91.78" ry="18"/>
<text text-anchor="middle" x="318.19" y="-159.7" font-family="Times,serif" font-size="14.00">0,9 (Auog Brains)</text>
</g>
<!-- 0,5 (Titanium Processing (Grade 4))&#45;&gt;0,9 (Auog Brains) -->
<g id="edge5" class="edge">
<title>0,5 (Titanium Processing (Grade 4))&#45;&gt;0,9 (Auog Brains)</title>
<path fill="none" stroke="black" stroke-width="0.49" d="M691.56,-566.87C629.66,-499.98 413.82,-266.74 341.79,-188.9"/>
<polygon fill="black" stroke="black" stroke-width="0.49" points="344.25,-186.41 334.89,-181.45 339.11,-191.16 344.25,-186.41"/>
<text text-anchor="middle" x="444.17" y="-381.69" font-family="Times,serif" font-size="14.00">titanium&#45;plate*4048</text>
</g>
<!-- &#45;3,8 (Urea) -->
<g id="node7" class="node">
<title>&#45;3,8 (Urea)</title>
<ellipse fill="none" stroke="black" cx="616.31" cy="-18" rx="61.19" ry="18"/>
<text text-anchor="middle" x="616.31" y="-14.3" font-family="Times,serif" font-size="14.00">&#45;3,8 (Urea)</text>
</g>
<!-- 0,5 (Titanium Processing (Grade 4))&#45;&gt;&#45;3,8 (Urea) -->
<g id="edge6" class="edge">
<title>0,5 (Titanium Processing (Grade 4))&#45;&gt;&#45;3,8 (Urea)</title>
<path fill="none" stroke="black" stroke-width="0.98" d="M705.36,-566.77C691.99,-484.38 637.14,-146.37 620.88,-46.14"/>
<polygon fill="black" stroke="black" stroke-width="0.98" points="624.32,-45.47 619.26,-36.15 617.41,-46.59 624.32,-45.47"/>
<text text-anchor="middle" x="590.62" y="-310.25" font-family="Times,serif" font-size="14.00">titanium&#45;plate*8128</text>
</g>
<!-- 0,10 (item=meat Meat) -->
<g id="node8" class="node">
<title>0,10 (item=meat Meat)</title>
<ellipse fill="none" stroke="black" cx="970.87" cy="-74.1" rx="120.48" ry="18"/>
<text text-anchor="middle" x="970.87" y="-70.4" font-family="Times,serif" font-size="14.00">0,10 (item=meat Meat)</text>
</g>
<!-- 0,5 (Titanium Processing (Grade 4))&#45;&gt;0,10 (item=meat Meat) -->
<g id="edge7" class="edge">
<title>0,5 (Titanium Processing (Grade 4))&#45;&gt;0,10 (item=meat Meat)</title>
<path fill="none" stroke="black" stroke-width="0.25" d="M717.67,-566.81C757.1,-490.07 910.06,-192.43 957.05,-100.98"/>
<polygon fill="black" stroke="black" stroke-width="0.25" points="960.18,-102.55 961.63,-92.06 953.95,-99.35 960.18,-102.55"/>
<text text-anchor="middle" x="764.86" y="-337.69" font-family="Times,serif" font-size="14.00">titanium&#45;plate*2032</text>
</g>
</g>
</svg>
