<?xml version="1.0" encoding="UTF-8" standalone="no"?>
<!DOCTYPE svg PUBLIC "-//W3C//DTD SVG 1.1//EN"
 "http://www.w3.org/Graphics/SVG/1.1/DTD/svg11.dtd">
<!-- Generated by graphviz version 2.43.0 (0)
 -->
<!-- Title: %3 Pages: 1 -->
<svg width="1049pt" height="44pt"
 viewBox="0.00 0.00 1048.92 44.00" xmlns="http://www.w3.org/2000/svg" xmlns:xlink="http://www.w3.org/1999/xlink">
<g id="graph0" class="graph" transform="scale(1 1) rotate(0) translate(4 40)">
<title>%3</title>
<polygon fill="white" stroke="transparent" points="-4,4 -4,-40 1044.92,-40 1044.92,4 -4,4"/>
<!-- 1,7 (Activated Carbon) -->
<g id="node1" class="node">
<title>1,7 (Activated Carbon)</title>
<ellipse fill="none" stroke="black" cx="586.75" cy="-18" rx="115.88" ry="18"/>
<text text-anchor="middle" x="586.75" y="-14.3" font-family="Times,serif" font-size="14.00">1,7 (Activated Carbon)</text>
</g>
<!-- &#45;1,7 (Rayon) -->
<g id="node2" class="node">
<title>&#45;1,7 (Rayon)</title>
<ellipse fill="none" stroke="black" cx="973.98" cy="-18" rx="66.89" ry="18"/>
<text text-anchor="middle" x="973.98" y="-14.3" font-family="Times,serif" font-size="14.00">&#45;1,7 (Rayon)</text>
</g>
<!-- 1,7 (Activated Carbon)&#45;&gt;&#45;1,7 (Rayon) -->
<g id="edge1" class="edge">
<title>1,7 (Activated Carbon)&#45;&gt;&#45;1,7 (Rayon)</title>
<path fill="none" stroke="black" stroke-width="1.5" d="M702.67,-18C765.39,-18 841.15,-18 896.65,-18"/>
<polygon fill="black" stroke="black" stroke-width="1.5" points="896.77,-21.5 906.77,-18 896.77,-14.5 896.77,-21.5"/>
<text text-anchor="middle" x="752.66" y="-21.8" font-family="Times,serif" font-size="14.00">sulfur*12080</text>
</g>
<!-- 4,6 (Circuit substrate and Doped silicon) -->
<g id="node3" class="node">
<title>4,6 (Circuit substrate and Doped silicon)</title>
<ellipse fill="none" stroke="black" cx="199.53" cy="-18" rx="199.56" ry="18"/>
<text text-anchor="middle" x="199.53" y="-14.3" font-family="Times,serif" font-size="14.00">4,6 (Circuit substrate and Doped silicon)</text>
</g>
<!-- 1,7 (Activated Carbon)&#45;&gt;4,6 (Circuit substrate and Doped silicon) -->
<g id="edge2" class="edge">
<title>1,7 (Activated Carbon)&#45;&gt;4,6 (Circuit substrate and Doped silicon)</title>
<path fill="none" stroke="black" stroke-width="0.5" d="M470.84,-18C451.22,-18 430.32,-18 409.17,-18"/>
<polygon fill="black" stroke="black" stroke-width="0.5" points="409.1,-14.5 399.1,-18 409.1,-21.5 409.1,-14.5"/>
<text text-anchor="middle" x="440" y="-6.8" font-family="Times,serif" font-size="14.00">sulfur*4048</text>
</g>
</g>
</svg>
