<?xml version="1.0" encoding="UTF-8" standalone="no"?>
<!DOCTYPE svg PUBLIC "-//W3C//DTD SVG 1.1//EN"
 "http://www.w3.org/Graphics/SVG/1.1/DTD/svg11.dtd">
<!-- Generated by graphviz version 2.43.0 (0)
 -->
<!-- Title: %3 Pages: 1 -->
<svg width="1250pt" height="44pt"
 viewBox="0.00 0.00 1249.75 44.00" xmlns="http://www.w3.org/2000/svg" xmlns:xlink="http://www.w3.org/1999/xlink">
<g id="graph0" class="graph" transform="scale(1 1) rotate(0) translate(4 40)">
<title>%3</title>
<polygon fill="white" stroke="transparent" points="-4,4 -4,-40 1245.75,-40 1245.75,4 -4,4"/>
<!-- &#45;3,&#45;3 (Zinc Plates, 32 to consume four belts) -->
<g id="node1" class="node">
<title>&#45;3,&#45;3 (Zinc Plates, 32 to consume four belts)</title>
<ellipse fill="none" stroke="black" cx="556.86" cy="-18" rx="213.66" ry="18"/>
<text text-anchor="middle" x="556.86" y="-14.3" font-family="Times,serif" font-size="14.00">&#45;3,&#45;3 (Zinc Plates, 32 to consume four belts)</text>
</g>
<!-- 4,6 (Circuit substrate and Doped silicon) -->
<g id="node2" class="node">
<title>4,6 (Circuit substrate and Doped silicon)</title>
<ellipse fill="none" stroke="black" cx="1042.22" cy="-18" rx="199.56" ry="18"/>
<text text-anchor="middle" x="1042.22" y="-14.3" font-family="Times,serif" font-size="14.00">4,6 (Circuit substrate and Doped silicon)</text>
</g>
<!-- &#45;3,&#45;3 (Zinc Plates, 32 to consume four belts)&#45;&gt;4,6 (Circuit substrate and Doped silicon) -->
<g id="edge1" class="edge">
<title>&#45;3,&#45;3 (Zinc Plates, 32 to consume four belts)&#45;&gt;4,6 (Circuit substrate and Doped silicon)</title>
<path fill="none" stroke="black" stroke-width="1.71" d="M770.8,-18C791.33,-18 812.14,-18 832.63,-18"/>
<polygon fill="black" stroke="black" stroke-width="1.71" points="832.66,-21.5 842.66,-18 832.66,-14.5 832.66,-21.5"/>
<text text-anchor="middle" x="801.72" y="-6.8" font-family="Times,serif" font-size="14.00">zinc&#45;plate*20000</text>
</g>
<!-- 0,0 (LE BUS) -->
<g id="node3" class="node">
<title>0,0 (LE BUS)</title>
<ellipse fill="none" stroke="black" cx="71.49" cy="-18" rx="71.49" ry="18"/>
<text text-anchor="middle" x="71.49" y="-14.3" font-family="Times,serif" font-size="14.00">0,0 (LE BUS)</text>
</g>
<!-- &#45;3,&#45;3 (Zinc Plates, 32 to consume four belts)&#45;&gt;0,0 (LE BUS) -->
<g id="edge2" class="edge">
<title>&#45;3,&#45;3 (Zinc Plates, 32 to consume four belts)&#45;&gt;0,0 (LE BUS)</title>
<path fill="none" stroke="black" stroke-width="0.29" d="M342.91,-18C275.72,-18 205.55,-18 153.4,-18"/>
<polygon fill="black" stroke="black" stroke-width="0.29" points="153.21,-14.5 143.21,-18 153.21,-21.5 153.21,-14.5"/>
<text text-anchor="middle" x="276.15" y="-6.8" font-family="Times,serif" font-size="14.00">zinc&#45;plate*3408</text>
</g>
</g>
</svg>
