<?xml version="1.0" encoding="UTF-8" standalone="no"?>
<!DOCTYPE svg PUBLIC "-//W3C//DTD SVG 1.1//EN"
 "http://www.w3.org/Graphics/SVG/1.1/DTD/svg11.dtd">
<!-- Generated by graphviz version 2.43.0 (0)
 -->
<!-- Title: %3 Pages: 1 -->
<svg width="1185pt" height="44pt"
 viewBox="0.00 0.00 1184.76 44.00" xmlns="http://www.w3.org/2000/svg" xmlns:xlink="http://www.w3.org/1999/xlink">
<g id="graph0" class="graph" transform="scale(1 1) rotate(0) translate(4 40)">
<title>%3</title>
<polygon fill="white" stroke="transparent" points="-4,4 -4,-40 1180.76,-40 1180.76,4 -4,4"/>
<!-- 4,&#45;1 (Fluid) -->
<g id="node1" class="node">
<title>4,&#45;1 (Fluid)</title>
<ellipse fill="none" stroke="black" cx="500.96" cy="-18" rx="61.99" ry="18"/>
<text text-anchor="middle" x="500.96" y="-14.3" font-family="Times,serif" font-size="14.00">4,&#45;1 (Fluid)</text>
</g>
<!-- 4,4 (Hydrogen Chloride, item=nylon Nylon/Nylon parts) -->
<g id="node2" class="node">
<title>4,4 (Hydrogen Chloride, item=nylon Nylon/Nylon parts)</title>
<ellipse fill="none" stroke="black" cx="905.73" cy="-18" rx="271.05" ry="18"/>
<text text-anchor="middle" x="905.73" y="-14.3" font-family="Times,serif" font-size="14.00">4,4 (Hydrogen Chloride, item=nylon Nylon/Nylon parts)</text>
</g>
<!-- 4,&#45;1 (Fluid)&#45;&gt;4,4 (Hydrogen Chloride, item=nylon Nylon/Nylon parts) -->
<g id="edge1" class="edge">
<title>4,&#45;1 (Fluid)&#45;&gt;4,4 (Hydrogen Chloride, item=nylon Nylon/Nylon parts)</title>
<path fill="none" stroke="black" stroke-width="1.75" d="M562.88,-18C580.92,-18 601.89,-18 624.41,-18"/>
<polygon fill="black" stroke="black" stroke-width="1.75" points="624.51,-21.5 634.51,-18 624.51,-14.5 624.51,-21.5"/>
<text text-anchor="middle" x="593.65" y="-6.8" font-family="Times,serif" font-size="14.00">benzene&#45;barrel*8010</text>
</g>
<!-- &#45;5,2 (Optical fiber) -->
<g id="node3" class="node">
<title>&#45;5,2 (Optical fiber)</title>
<ellipse fill="none" stroke="black" cx="96.19" cy="-18" rx="96.38" ry="18"/>
<text text-anchor="middle" x="96.19" y="-14.3" font-family="Times,serif" font-size="14.00">&#45;5,2 (Optical fiber)</text>
</g>
<!-- 4,&#45;1 (Fluid)&#45;&gt;&#45;5,2 (Optical fiber) -->
<g id="edge2" class="edge">
<title>4,&#45;1 (Fluid)&#45;&gt;&#45;5,2 (Optical fiber)</title>
<path fill="none" stroke="black" stroke-width="0.25" d="M439.05,-18C376.44,-18 278.44,-18 203.22,-18"/>
<polygon fill="black" stroke="black" stroke-width="0.25" points="202.77,-14.5 192.77,-18 202.77,-21.5 202.77,-14.5"/>
<text text-anchor="middle" x="358.88" y="-6.8" font-family="Times,serif" font-size="14.00">benzene&#45;barrel*1120</text>
</g>
</g>
</svg>
