<?xml version="1.0" encoding="UTF-8" standalone="no"?>
<!DOCTYPE svg PUBLIC "-//W3C//DTD SVG 1.1//EN"
 "http://www.w3.org/Graphics/SVG/1.1/DTD/svg11.dtd">
<!-- Generated by graphviz version 2.43.0 (0)
 -->
<!-- Title: %3 Pages: 1 -->
<svg width="528pt" height="460pt"
 viewBox="0.00 0.00 528.23 460.05" xmlns="http://www.w3.org/2000/svg" xmlns:xlink="http://www.w3.org/1999/xlink">
<g id="graph0" class="graph" transform="scale(1 1) rotate(0) translate(4 456.05)">
<title>%3</title>
<polygon fill="white" stroke="transparent" points="-4,4 -4,-456.05 524.23,-456.05 524.23,4 -4,4"/>
<!-- 0,0 (LE BUS) -->
<g id="node1" class="node">
<title>0,0 (LE BUS)</title>
<ellipse fill="none" stroke="black" cx="231.8" cy="-238.89" rx="71.49" ry="18"/>
<text text-anchor="middle" x="231.8" y="-235.19" font-family="Times,serif" font-size="14.00">0,0 (LE BUS)</text>
</g>
<!-- 8,2 (Tar) -->
<g id="node2" class="node">
<title>8,2 (Tar)</title>
<ellipse fill="none" stroke="black" cx="470.18" cy="-238.89" rx="50.09" ry="18"/>
<text text-anchor="middle" x="470.18" y="-235.19" font-family="Times,serif" font-size="14.00">8,2 (Tar)</text>
</g>
<!-- 0,0 (LE BUS)&#45;&gt;8,2 (Tar) -->
<g id="edge1" class="edge">
<title>0,0 (LE BUS)&#45;&gt;8,2 (Tar)</title>
<path fill="none" stroke="black" stroke-width="1.79" d="M303.32,-238.89C337.23,-238.89 377.3,-238.89 409.67,-238.89"/>
<polygon fill="black" stroke="black" stroke-width="1.79" points="409.9,-242.39 419.9,-238.89 409.9,-235.39 409.9,-242.39"/>
<text text-anchor="middle" x="356.5" y="-227.69" font-family="Times,serif" font-size="14.00">drill&#45;head*16160</text>
</g>
<!-- 3,1 (Mining Brick) -->
<g id="node3" class="node">
<title>3,1 (Mining Brick)</title>
<ellipse fill="none" stroke="black" cx="94.89" cy="-434.05" rx="94.78" ry="18"/>
<text text-anchor="middle" x="94.89" y="-430.35" font-family="Times,serif" font-size="14.00">3,1 (Mining Brick)</text>
</g>
<!-- 0,0 (LE BUS)&#45;&gt;3,1 (Mining Brick) -->
<g id="edge2" class="edge">
<title>0,0 (LE BUS)&#45;&gt;3,1 (Mining Brick)</title>
<path fill="none" stroke="black" stroke-width="0.09" d="M219.16,-256.9C194.86,-291.54 141.53,-367.56 113.29,-407.82"/>
<polygon fill="black" stroke="black" stroke-width="0.09" points="110.37,-405.88 107.5,-416.08 116.1,-409.9 110.37,-405.88"/>
<text text-anchor="middle" x="114.72" y="-336.16" font-family="Times,serif" font-size="14.00">drill&#45;head*840</text>
</g>
<!-- 4,16 () -->
<g id="node4" class="node">
<title>4,16 ()</title>
<ellipse fill="none" stroke="black" cx="142.17" cy="-18" rx="40.89" ry="18"/>
<text text-anchor="middle" x="142.17" y="-14.3" font-family="Times,serif" font-size="14.00">4,16 ()</text>
</g>
<!-- 0,0 (LE BUS)&#45;&gt;4,16 () -->
<g id="edge3" class="edge">
<title>0,0 (LE BUS)&#45;&gt;4,16 ()</title>
<path fill="none" stroke="black" stroke-width="1.11" d="M224.46,-220.82C208.77,-182.13 171.84,-91.12 153.26,-45.33"/>
<polygon fill="black" stroke="black" stroke-width="1.11" points="156.48,-43.97 149.48,-36.02 150,-46.6 156.48,-43.97"/>
<text text-anchor="middle" x="128.36" y="-136.87" font-family="Times,serif" font-size="14.00">drill&#45;head*10040</text>
</g>
</g>
</svg>
