<?xml version="1.0" encoding="UTF-8" standalone="no"?>
<!DOCTYPE svg PUBLIC "-//W3C//DTD SVG 1.1//EN"
 "http://www.w3.org/Graphics/SVG/1.1/DTD/svg11.dtd">
<!-- Generated by graphviz version 2.43.0 (0)
 -->
<!-- Title: %3 Pages: 1 -->
<svg width="843pt" height="44pt"
 viewBox="0.00 0.00 842.89 44.00" xmlns="http://www.w3.org/2000/svg" xmlns:xlink="http://www.w3.org/1999/xlink">
<g id="graph0" class="graph" transform="scale(1 1) rotate(0) translate(4 40)">
<title>%3</title>
<polygon fill="white" stroke="transparent" points="-4,4 -4,-40 838.89,-40 838.89,4 -4,4"/>
<!-- 2,1 (Niobium plates) -->
<g id="node1" class="node">
<title>2,1 (Niobium plates)</title>
<ellipse fill="none" stroke="black" cx="449.62" cy="-18" rx="105.88" ry="18"/>
<text text-anchor="middle" x="449.62" y="-14.3" font-family="Times,serif" font-size="14.00">2,1 (Niobium plates)</text>
</g>
<!-- 0,0 (LE BUS) -->
<g id="node2" class="node">
<title>0,0 (LE BUS)</title>
<ellipse fill="none" stroke="black" cx="763.4" cy="-18" rx="71.49" ry="18"/>
<text text-anchor="middle" x="763.4" y="-14.3" font-family="Times,serif" font-size="14.00">0,0 (LE BUS)</text>
</g>
<!-- 2,1 (Niobium plates)&#45;&gt;0,0 (LE BUS) -->
<g id="edge1" class="edge">
<title>2,1 (Niobium plates)&#45;&gt;0,0 (LE BUS)</title>
<path fill="none" stroke="black" stroke-width="1.91" d="M555.85,-18C596.98,-18 643.31,-18 681.74,-18"/>
<polygon fill="black" stroke="black" stroke-width="1.91" points="681.85,-21.5 691.85,-18 681.85,-14.5 681.85,-21.5"/>
<text text-anchor="middle" x="618.8" y="-6.8" font-family="Times,serif" font-size="14.00">niobium&#45;plate*42192</text>
</g>
<!-- &#45;7,&#45;2 (Uranium Processing) -->
<g id="node3" class="node">
<title>&#45;7,&#45;2 (Uranium Processing)</title>
<ellipse fill="none" stroke="black" cx="135.84" cy="-18" rx="135.68" ry="18"/>
<text text-anchor="middle" x="135.84" y="-14.3" font-family="Times,serif" font-size="14.00">&#45;7,&#45;2 (Uranium Processing)</text>
</g>
<!-- 2,1 (Niobium plates)&#45;&gt;&#45;7,&#45;2 (Uranium Processing) -->
<g id="edge2" class="edge">
<title>2,1 (Niobium plates)&#45;&gt;&#45;7,&#45;2 (Uranium Processing)</title>
<path fill="none" stroke="black" stroke-width="0.09" d="M343.39,-18C323.6,-18 302.61,-18 281.87,-18"/>
<polygon fill="black" stroke="black" stroke-width="0.09" points="281.72,-14.5 271.72,-18 281.72,-21.5 281.72,-14.5"/>
<text text-anchor="middle" x="277.13" y="-6.8" font-family="Times,serif" font-size="14.00">niobium&#45;plate*2032</text>
</g>
</g>
</svg>
