<?xml version="1.0" encoding="UTF-8" standalone="no"?>
<!DOCTYPE svg PUBLIC "-//W3C//DTD SVG 1.1//EN"
 "http://www.w3.org/Graphics/SVG/1.1/DTD/svg11.dtd">
<!-- Generated by graphviz version 2.43.0 (0)
 -->
<!-- Title: %3 Pages: 1 -->
<svg width="1274pt" height="44pt"
 viewBox="0.00 0.00 1273.80 44.00" xmlns="http://www.w3.org/2000/svg" xmlns:xlink="http://www.w3.org/1999/xlink">
<g id="graph0" class="graph" transform="scale(1 1) rotate(0) translate(4 40)">
<title>%3</title>
<polygon fill="white" stroke="transparent" points="-4,4 -4,-40 1269.8,-40 1269.8,4 -4,4"/>
<!-- &#45;4,2 (This line not currently using manure, Ralesia seeds) -->
<g id="node1" class="node">
<title>&#45;4,2 (This line not currently using manure, Ralesia seeds)</title>
<ellipse fill="none" stroke="black" cx="614.05" cy="-18" rx="276.75" ry="18"/>
<text text-anchor="middle" x="614.05" y="-14.3" font-family="Times,serif" font-size="14.00">&#45;4,2 (This line not currently using manure, Ralesia seeds)</text>
</g>
<!-- 5,8 (Ulric Food, Sandcastings) -->
<g id="node2" class="node">
<title>5,8 (Ulric Food, Sandcastings)</title>
<ellipse fill="none" stroke="black" cx="1114.36" cy="-18" rx="151.37" ry="18"/>
<text text-anchor="middle" x="1114.36" y="-14.3" font-family="Times,serif" font-size="14.00">5,8 (Ulric Food, Sandcastings)</text>
</g>
<!-- &#45;4,2 (This line not currently using manure, Ralesia seeds)&#45;&gt;5,8 (Ulric Food, Sandcastings) -->
<g id="edge1" class="edge">
<title>&#45;4,2 (This line not currently using manure, Ralesia seeds)&#45;&gt;5,8 (Ulric Food, Sandcastings)</title>
<path fill="none" stroke="black" stroke-width="0.93" d="M891.28,-18C912.11,-18 932.69,-18 952.42,-18"/>
<polygon fill="black" stroke="black" stroke-width="0.93" points="952.66,-21.5 962.66,-18 952.66,-14.5 952.66,-21.5"/>
<text text-anchor="middle" x="921.85" y="-6.8" font-family="Times,serif" font-size="14.00">ralesias*42432</text>
</g>
<!-- &#45;4,8 (Moar Ulric Food) -->
<g id="node3" class="node">
<title>&#45;4,8 (Moar Ulric Food)</title>
<ellipse fill="none" stroke="black" cx="113.74" cy="-18" rx="113.98" ry="18"/>
<text text-anchor="middle" x="113.74" y="-14.3" font-family="Times,serif" font-size="14.00">&#45;4,8 (Moar Ulric Food)</text>
</g>
<!-- &#45;4,2 (This line not currently using manure, Ralesia seeds)&#45;&gt;&#45;4,8 (Moar Ulric Food) -->
<g id="edge2" class="edge">
<title>&#45;4,2 (This line not currently using manure, Ralesia seeds)&#45;&gt;&#45;4,8 (Moar Ulric Food)</title>
<path fill="none" stroke="black" stroke-width="1.07" d="M336.83,-18C302.19,-18 268.25,-18 237.71,-18"/>
<polygon fill="black" stroke="black" stroke-width="1.07" points="237.49,-14.5 227.49,-18 237.49,-21.5 237.49,-14.5"/>
<text text-anchor="middle" x="287.27" y="-6.8" font-family="Times,serif" font-size="14.00">ralesias*48464</text>
</g>
</g>
</svg>
