<?xml version="1.0" encoding="UTF-8" standalone="no"?>
<!DOCTYPE svg PUBLIC "-//W3C//DTD SVG 1.1//EN"
 "http://www.w3.org/Graphics/SVG/1.1/DTD/svg11.dtd">
<!-- Generated by graphviz version 2.43.0 (0)
 -->
<!-- Title: %3 Pages: 1 -->
<svg width="789pt" height="760pt"
 viewBox="0.00 0.00 788.94 759.82" xmlns="http://www.w3.org/2000/svg" xmlns:xlink="http://www.w3.org/1999/xlink">
<g id="graph0" class="graph" transform="scale(1 1) rotate(0) translate(4 755.82)">
<title>%3</title>
<polygon fill="white" stroke="transparent" points="-4,4 -4,-755.82 784.94,-755.82 784.94,4 -4,4"/>
<!-- &#45;4,&#45;8 (item=silver&#45;plate Even even more silver?) -->
<g id="node1" class="node">
<title>&#45;4,&#45;8 (item=silver&#45;plate Even even more silver?)</title>
<ellipse fill="none" stroke="black" cx="301.43" cy="-374.35" rx="233.16" ry="18"/>
<text text-anchor="middle" x="301.43" y="-370.65" font-family="Times,serif" font-size="14.00">&#45;4,&#45;8 (item=silver&#45;plate Even even more silver?)</text>
</g>
<!-- 0,0 (LE BUS) -->
<g id="node2" class="node">
<title>0,0 (LE BUS)</title>
<ellipse fill="none" stroke="black" cx="709.45" cy="-374.35" rx="71.49" ry="18"/>
<text text-anchor="middle" x="709.45" y="-370.65" font-family="Times,serif" font-size="14.00">0,0 (LE BUS)</text>
</g>
<!-- &#45;4,&#45;8 (item=silver&#45;plate Even even more silver?)&#45;&gt;0,0 (LE BUS) -->
<g id="edge1" class="edge">
<title>&#45;4,&#45;8 (item=silver&#45;plate Even even more silver?)&#45;&gt;0,0 (LE BUS)</title>
<path fill="none" stroke="black" stroke-width="1.27" d="M534.93,-374.35C567.97,-374.35 599.96,-374.35 627.32,-374.35"/>
<polygon fill="black" stroke="black" stroke-width="1.27" points="627.58,-377.85 637.58,-374.35 627.58,-370.85 627.58,-377.85"/>
<text text-anchor="middle" x="581.13" y="-363.15" font-family="Times,serif" font-size="14.00">silver&#45;plate*33072</text>
</g>
<!-- &#45;5,2 (Optical fiber) -->
<g id="node3" class="node">
<title>&#45;5,2 (Optical fiber)</title>
<ellipse fill="none" stroke="black" cx="108.39" cy="-733.82" rx="96.38" ry="18"/>
<text text-anchor="middle" x="108.39" y="-730.12" font-family="Times,serif" font-size="14.00">&#45;5,2 (Optical fiber)</text>
</g>
<!-- &#45;4,&#45;8 (item=silver&#45;plate Even even more silver?)&#45;&gt;&#45;5,2 (Optical fiber) -->
<g id="edge2" class="edge">
<title>&#45;4,&#45;8 (item=silver&#45;plate Even even more silver?)&#45;&gt;&#45;5,2 (Optical fiber)</title>
<path fill="none" stroke="black" stroke-width="0.77" d="M291.59,-392.67C259.96,-451.56 160.77,-636.27 123.1,-706.42"/>
<polygon fill="black" stroke="black" stroke-width="0.77" points="119.86,-705.07 118.21,-715.54 126.02,-708.38 119.86,-705.07"/>
<text text-anchor="middle" x="140.85" y="-553.35" font-family="Times,serif" font-size="14.00">silver&#45;plate*20016</text>
</g>
<!-- &#45;8,&#45;11 (Fetal serum) -->
<g id="node4" class="node">
<title>&#45;8,&#45;11 (Fetal serum)</title>
<ellipse fill="none" stroke="black" cx="102.69" cy="-18" rx="102.88" ry="18"/>
<text text-anchor="middle" x="102.69" y="-14.3" font-family="Times,serif" font-size="14.00">&#45;8,&#45;11 (Fetal serum)</text>
</g>
<!-- &#45;4,&#45;8 (item=silver&#45;plate Even even more silver?)&#45;&gt;&#45;8,&#45;11 (Fetal serum) -->
<g id="edge3" class="edge">
<title>&#45;4,&#45;8 (item=silver&#45;plate Even even more silver?)&#45;&gt;&#45;8,&#45;11 (Fetal serum)</title>
<path fill="none" stroke="black" stroke-width="0.96" d="M291.3,-356.19C258.74,-297.81 156.62,-114.7 117.84,-45.16"/>
<polygon fill="black" stroke="black" stroke-width="0.96" points="120.73,-43.15 112.8,-36.12 114.61,-46.56 120.73,-43.15"/>
<text text-anchor="middle" x="138.07" y="-204.47" font-family="Times,serif" font-size="14.00">silver&#45;plate*25008</text>
</g>
</g>
</svg>
