<?xml version="1.0" encoding="UTF-8" standalone="no"?>
<!DOCTYPE svg PUBLIC "-//W3C//DTD SVG 1.1//EN"
 "http://www.w3.org/Graphics/SVG/1.1/DTD/svg11.dtd">
<!-- Generated by graphviz version 2.43.0 (0)
 -->
<!-- Title: %3 Pages: 1 -->
<svg width="1065pt" height="832pt"
 viewBox="0.00 0.00 1064.91 832.33" xmlns="http://www.w3.org/2000/svg" xmlns:xlink="http://www.w3.org/1999/xlink">
<g id="graph0" class="graph" transform="scale(1 1) rotate(0) translate(4 828.33)">
<title>%3</title>
<polygon fill="white" stroke="transparent" points="-4,4 -4,-828.33 1060.91,-828.33 1060.91,4 -4,4"/>
<!-- &#45;3,&#45;3 (Zinc Plates) -->
<g id="node1" class="node">
<title>&#45;3,&#45;3 (Zinc Plates)</title>
<ellipse fill="none" stroke="black" cx="580" cy="-423.35" rx="92.88" ry="18"/>
<text text-anchor="middle" x="580" y="-419.65" font-family="Times,serif" font-size="14.00">&#45;3,&#45;3 (Zinc Plates)</text>
</g>
<!-- 0,0 (LE BUS) -->
<g id="node2" class="node">
<title>0,0 (LE BUS)</title>
<ellipse fill="none" stroke="black" cx="985.42" cy="-423.35" rx="71.49" ry="18"/>
<text text-anchor="middle" x="985.42" y="-419.65" font-family="Times,serif" font-size="14.00">0,0 (LE BUS)</text>
</g>
<!-- &#45;3,&#45;3 (Zinc Plates)&#45;&gt;0,0 (LE BUS) -->
<g id="edge1" class="edge">
<title>&#45;3,&#45;3 (Zinc Plates)&#45;&gt;0,0 (LE BUS)</title>
<path fill="none" stroke="black" stroke-width="1.27" d="M673.01,-423.35C742.61,-423.35 836.9,-423.35 903.63,-423.35"/>
<polygon fill="black" stroke="black" stroke-width="1.27" points="903.68,-426.85 913.68,-423.35 903.68,-419.85 903.68,-426.85"/>
<text text-anchor="middle" x="820.82" y="-412.15" font-family="Times,serif" font-size="14.00">zinc&#45;plate*155280</text>
</g>
<!-- 3,0 (Zinc Chloride) -->
<g id="node3" class="node">
<title>3,0 (Zinc Chloride)</title>
<ellipse fill="none" stroke="black" cx="713" cy="-806.33" rx="97.48" ry="18"/>
<text text-anchor="middle" x="713" y="-802.63" font-family="Times,serif" font-size="14.00">3,0 (Zinc Chloride)</text>
</g>
<!-- &#45;3,&#45;3 (Zinc Plates)&#45;&gt;3,0 (Zinc Chloride) -->
<g id="edge2" class="edge">
<title>&#45;3,&#45;3 (Zinc Plates)&#45;&gt;3,0 (Zinc Chloride)</title>
<path fill="none" stroke="black" stroke-width="1.66" d="M586.32,-441.57C607.72,-503.18 677.5,-704.11 703.3,-778.39"/>
<polygon fill="black" stroke="black" stroke-width="1.66" points="700.05,-779.71 706.64,-788.01 706.66,-777.41 700.05,-779.71"/>
<text text-anchor="middle" x="579.81" y="-613.78" font-family="Times,serif" font-size="14.00">zinc&#45;plate*202160</text>
</g>
<!-- 4,6 (Circuit substrate and Doped silicon) -->
<g id="node4" class="node">
<title>4,6 (Circuit substrate and Doped silicon)</title>
<ellipse fill="none" stroke="black" cx="199.53" cy="-563.39" rx="199.56" ry="18"/>
<text text-anchor="middle" x="199.53" y="-559.69" font-family="Times,serif" font-size="14.00">4,6 (Circuit substrate and Doped silicon)</text>
</g>
<!-- &#45;3,&#45;3 (Zinc Plates)&#45;&gt;4,6 (Circuit substrate and Doped silicon) -->
<g id="edge3" class="edge">
<title>&#45;3,&#45;3 (Zinc Plates)&#45;&gt;4,6 (Circuit substrate and Doped silicon)</title>
<path fill="none" stroke="black" stroke-width="0.74" d="M536.35,-439.42C467.38,-464.8 333.16,-514.21 256.62,-542.38"/>
<polygon fill="black" stroke="black" stroke-width="0.74" points="255.3,-539.14 247.13,-545.87 257.72,-545.7 255.3,-539.14"/>
<text text-anchor="middle" x="335.99" y="-494.7" font-family="Times,serif" font-size="14.00">zinc&#45;plate*90000</text>
</g>
<!-- 3,3 (Random electronic components, Small Parts) -->
<g id="node5" class="node">
<title>3,3 (Random electronic components, Small Parts)</title>
<ellipse fill="none" stroke="black" cx="572.52" cy="-18" rx="240.46" ry="18"/>
<text text-anchor="middle" x="572.52" y="-14.3" font-family="Times,serif" font-size="14.00">3,3 (Random electronic components, Small Parts)</text>
</g>
<!-- &#45;3,&#45;3 (Zinc Plates)&#45;&gt;3,3 (Random electronic components, Small Parts) -->
<g id="edge4" class="edge">
<title>&#45;3,&#45;3 (Zinc Plates)&#45;&gt;3,3 (Random electronic components, Small Parts)</title>
<path fill="none" stroke="black" stroke-width="0.33" d="M579.66,-405.15C578.48,-340.85 574.48,-124.12 573.04,-46.2"/>
<polygon fill="black" stroke="black" stroke-width="0.33" points="576.54,-46.09 572.86,-36.15 569.54,-46.22 576.54,-46.09"/>
<text text-anchor="middle" x="515.85" y="-229.47" font-family="Times,serif" font-size="14.00">zinc&#45;plate*40000</text>
</g>
</g>
</svg>
