<?xml version="1.0" encoding="UTF-8" standalone="no"?>
<!DOCTYPE svg PUBLIC "-//W3C//DTD SVG 1.1//EN"
 "http://www.w3.org/Graphics/SVG/1.1/DTD/svg11.dtd">
<!-- Generated by graphviz version 2.43.0 (0)
 -->
<!-- Title: %3 Pages: 1 -->
<svg width="693pt" height="44pt"
 viewBox="0.00 0.00 692.75 44.00" xmlns="http://www.w3.org/2000/svg" xmlns:xlink="http://www.w3.org/1999/xlink">
<g id="graph0" class="graph" transform="scale(1 1) rotate(0) translate(4 40)">
<title>%3</title>
<polygon fill="white" stroke="transparent" points="-4,4 -4,-40 688.75,-40 688.75,4 -4,4"/>
<!-- 0,0 (LE BUS) -->
<g id="node1" class="node">
<title>0,0 (LE BUS)</title>
<ellipse fill="none" stroke="black" cx="71.49" cy="-18" rx="71.49" ry="18"/>
<text text-anchor="middle" x="71.49" y="-14.3" font-family="Times,serif" font-size="14.00">0,0 (LE BUS)</text>
</g>
<!-- &#45;4,&#45;7 (Nexelit from raw) -->
<g id="node2" class="node">
<title>&#45;4,&#45;7 (Nexelit from raw)</title>
<ellipse fill="none" stroke="black" cx="335.23" cy="-18" rx="120.48" ry="18"/>
<text text-anchor="middle" x="335.23" y="-14.3" font-family="Times,serif" font-size="14.00">&#45;4,&#45;7 (Nexelit from raw)</text>
</g>
<!-- 0,0 (LE BUS)&#45;&gt;&#45;4,&#45;7 (Nexelit from raw) -->
<g id="edge1" class="edge">
<title>0,0 (LE BUS)&#45;&gt;&#45;4,&#45;7 (Nexelit from raw)</title>
<path fill="none" stroke="black" stroke-width="1.08" d="M143.21,-18C162.3,-18 183.54,-18 204.73,-18"/>
<polygon fill="black" stroke="black" stroke-width="1.08" points="204.78,-21.5 214.78,-18 204.78,-14.5 204.78,-21.5"/>
<text text-anchor="middle" x="173.97" y="-6.8" font-family="Times,serif" font-size="14.00">nexelit&#45;ore*35462</text>
</g>
<!-- &#45;7,&#45;8 (Tin mk2) -->
<g id="node3" class="node">
<title>&#45;7,&#45;8 (Tin mk2)</title>
<ellipse fill="none" stroke="black" cx="606.11" cy="-18" rx="78.79" ry="18"/>
<text text-anchor="middle" x="606.11" y="-14.3" font-family="Times,serif" font-size="14.00">&#45;7,&#45;8 (Tin mk2)</text>
</g>
<!-- &#45;7,&#45;8 (Tin mk2)&#45;&gt;&#45;4,&#45;7 (Nexelit from raw) -->
<g id="edge2" class="edge">
<title>&#45;7,&#45;8 (Tin mk2)&#45;&gt;&#45;4,&#45;7 (Nexelit from raw)</title>
<path fill="none" stroke="black" stroke-width="0.92" d="M527.39,-18C507.98,-18 486.66,-18 465.51,-18"/>
<polygon fill="black" stroke="black" stroke-width="0.92" points="465.48,-14.5 455.48,-18 465.48,-21.5 465.48,-14.5"/>
<text text-anchor="middle" x="464.2" y="-6.8" font-family="Times,serif" font-size="14.00">nexelit&#45;ore*30192</text>
</g>
</g>
</svg>
