<?xml version="1.0" encoding="UTF-8" standalone="no"?>
<!DOCTYPE svg PUBLIC "-//W3C//DTD SVG 1.1//EN"
 "http://www.w3.org/Graphics/SVG/1.1/DTD/svg11.dtd">
<!-- Generated by graphviz version 2.43.0 (0)
 -->
<!-- Title: %3 Pages: 1 -->
<svg width="1231pt" height="44pt"
 viewBox="0.00 0.00 1230.90 44.00" xmlns="http://www.w3.org/2000/svg" xmlns:xlink="http://www.w3.org/1999/xlink">
<g id="graph0" class="graph" transform="scale(1 1) rotate(0) translate(4 40)">
<title>%3</title>
<polygon fill="white" stroke="transparent" points="-4,4 -4,-40 1226.9,-40 1226.9,4 -4,4"/>
<!-- 4,13 (Chromium processing) -->
<g id="node1" class="node">
<title>4,13 (Chromium processing)</title>
<ellipse fill="none" stroke="black" cx="695.94" cy="-18" rx="142.97" ry="18"/>
<text text-anchor="middle" x="695.94" y="-14.3" font-family="Times,serif" font-size="14.00">4,13 (Chromium processing)</text>
</g>
<!-- 0,0 (LE BUS) -->
<g id="node2" class="node">
<title>0,0 (LE BUS)</title>
<ellipse fill="none" stroke="black" cx="1151.41" cy="-18" rx="71.49" ry="18"/>
<text text-anchor="middle" x="1151.41" y="-14.3" font-family="Times,serif" font-size="14.00">0,0 (LE BUS)</text>
</g>
<!-- 4,13 (Chromium processing)&#45;&gt;0,0 (LE BUS) -->
<g id="edge1" class="edge">
<title>4,13 (Chromium processing)&#45;&gt;0,0 (LE BUS)</title>
<path fill="none" stroke="black" stroke-width="0.9" d="M839.12,-18C915.13,-18 1005.78,-18 1069.78,-18"/>
<polygon fill="black" stroke="black" stroke-width="0.9" points="1069.82,-21.5 1079.82,-18 1069.82,-14.5 1069.82,-21.5"/>
<text text-anchor="middle" x="1013.45" y="-21.8" font-family="Times,serif" font-size="14.00">fecr&#45;alloy*29520</text>
</g>
<!-- 3,3 (Random electronic components, Small Parts) -->
<g id="node3" class="node">
<title>3,3 (Random electronic components, Small Parts)</title>
<ellipse fill="none" stroke="black" cx="240.48" cy="-18" rx="240.46" ry="18"/>
<text text-anchor="middle" x="240.48" y="-14.3" font-family="Times,serif" font-size="14.00">3,3 (Random electronic components, Small Parts)</text>
</g>
<!-- 4,13 (Chromium processing)&#45;&gt;3,3 (Random electronic components, Small Parts) -->
<g id="edge2" class="edge">
<title>4,13 (Chromium processing)&#45;&gt;3,3 (Random electronic components, Small Parts)</title>
<path fill="none" stroke="black" stroke-width="1.1" d="M552.77,-18C532.96,-18 512.15,-18 491.07,-18"/>
<polygon fill="black" stroke="black" stroke-width="1.1" points="491.04,-14.5 481.04,-18 491.04,-21.5 491.04,-14.5"/>
<text text-anchor="middle" x="492.42" y="-6.8" font-family="Times,serif" font-size="14.00">fecr&#45;alloy*36160</text>
</g>
</g>
</svg>
