<?xml version="1.0" encoding="UTF-8" standalone="no"?>
<!DOCTYPE svg PUBLIC "-//W3C//DTD SVG 1.1//EN"
 "http://www.w3.org/Graphics/SVG/1.1/DTD/svg11.dtd">
<!-- Generated by graphviz version 2.43.0 (0)
 -->
<!-- Title: %3 Pages: 1 -->
<svg width="785pt" height="598pt"
 viewBox="0.00 0.00 785.46 598.35" xmlns="http://www.w3.org/2000/svg" xmlns:xlink="http://www.w3.org/1999/xlink">
<g id="graph0" class="graph" transform="scale(1 1) rotate(0) translate(4 594.35)">
<title>%3</title>
<polygon fill="white" stroke="transparent" points="-4,4 -4,-594.35 781.46,-594.35 781.46,4 -4,4"/>
<!-- 3,&#45;2 () -->
<g id="node1" class="node">
<title>3,&#45;2 ()</title>
<ellipse fill="none" stroke="black" cx="360.99" cy="-307.86" rx="38.19" ry="18"/>
<text text-anchor="middle" x="360.99" y="-304.16" font-family="Times,serif" font-size="14.00">3,&#45;2 ()</text>
</g>
<!-- 2,0 (Sodium Sulfate) -->
<g id="node2" class="node">
<title>2,0 (Sodium Sulfate)</title>
<ellipse fill="none" stroke="black" cx="670.87" cy="-307.86" rx="106.68" ry="18"/>
<text text-anchor="middle" x="670.87" y="-304.16" font-family="Times,serif" font-size="14.00">2,0 (Sodium Sulfate)</text>
</g>
<!-- 3,&#45;2 ()&#45;&gt;2,0 (Sodium Sulfate) -->
<g id="edge1" class="edge">
<title>3,&#45;2 ()&#45;&gt;2,0 (Sodium Sulfate)</title>
<path fill="none" stroke="black" stroke-width="2.13" d="M399.61,-307.86C438.18,-307.86 499.4,-307.86 553.93,-307.86"/>
<polygon fill="black" stroke="black" stroke-width="2.13" points="554.03,-311.36 564.03,-307.86 554.03,-304.36 554.03,-311.36"/>
<text text-anchor="middle" x="500.27" y="-296.66" font-family="Times,serif" font-size="14.00">sulfur*20288</text>
</g>
<!-- 4,6 (Circuit substrate and Doped silicon) -->
<g id="node3" class="node">
<title>4,6 (Circuit substrate and Doped silicon)</title>
<ellipse fill="none" stroke="black" cx="199.53" cy="-572.35" rx="199.56" ry="18"/>
<text text-anchor="middle" x="199.53" y="-568.65" font-family="Times,serif" font-size="14.00">4,6 (Circuit substrate and Doped silicon)</text>
</g>
<!-- 3,&#45;2 ()&#45;&gt;4,6 (Circuit substrate and Doped silicon) -->
<g id="edge2" class="edge">
<title>3,&#45;2 ()&#45;&gt;4,6 (Circuit substrate and Doped silicon)</title>
<path fill="none" stroke="black" stroke-width="0.33" d="M350.4,-325.22C322.87,-370.3 248.96,-491.39 215.9,-545.54"/>
<polygon fill="black" stroke="black" stroke-width="0.33" points="212.81,-543.88 210.59,-554.24 218.79,-547.53 212.81,-543.88"/>
<text text-anchor="middle" x="240.65" y="-439.18" font-family="Times,serif" font-size="14.00">sulfur*3152</text>
</g>
<!-- 6,4 (Electronic components) -->
<g id="node4" class="node">
<title>6,4 (Electronic components)</title>
<ellipse fill="none" stroke="black" cx="251.42" cy="-18" rx="141.88" ry="18"/>
<text text-anchor="middle" x="251.42" y="-14.3" font-family="Times,serif" font-size="14.00">6,4 (Electronic components)</text>
</g>
<!-- 3,&#45;2 ()&#45;&gt;6,4 (Electronic components) -->
<g id="edge3" class="edge">
<title>3,&#45;2 ()&#45;&gt;6,4 (Electronic components)</title>
<path fill="none" stroke="black" stroke-width="0.54" d="M354.14,-289.73C335.54,-240.52 284.02,-104.23 261.82,-45.51"/>
<polygon fill="black" stroke="black" stroke-width="0.54" points="265.08,-44.24 258.27,-36.13 258.54,-46.72 265.08,-44.24"/>
<text text-anchor="middle" x="265.48" y="-171.42" font-family="Times,serif" font-size="14.00">sulfur*5104</text>
</g>
</g>
</svg>
