<?xml version="1.0" encoding="UTF-8" standalone="no"?>
<!DOCTYPE svg PUBLIC "-//W3C//DTD SVG 1.1//EN"
 "http://www.w3.org/Graphics/SVG/1.1/DTD/svg11.dtd">
<!-- Generated by graphviz version 2.43.0 (0)
 -->
<!-- Title: %3 Pages: 1 -->
<svg width="1162pt" height="44pt"
 viewBox="0.00 0.00 1162.12 44.00" xmlns="http://www.w3.org/2000/svg" xmlns:xlink="http://www.w3.org/1999/xlink">
<g id="graph0" class="graph" transform="scale(1 1) rotate(0) translate(4 40)">
<title>%3</title>
<polygon fill="white" stroke="transparent" points="-4,4 -4,-40 1158.12,-40 1158.12,4 -4,4"/>
<!-- 0,10 (item=meat Meat) -->
<g id="node1" class="node">
<title>0,10 (item=meat Meat)</title>
<ellipse fill="none" stroke="black" cx="572.71" cy="-18" rx="120.48" ry="18"/>
<text text-anchor="middle" x="572.71" y="-14.3" font-family="Times,serif" font-size="14.00">0,10 (item=meat Meat)</text>
</g>
<!-- 0,0 (LE BUS) -->
<g id="node2" class="node">
<title>0,0 (LE BUS)</title>
<ellipse fill="none" stroke="black" cx="836.44" cy="-18" rx="71.49" ry="18"/>
<text text-anchor="middle" x="836.44" y="-14.3" font-family="Times,serif" font-size="14.00">0,0 (LE BUS)</text>
</g>
<!-- 0,10 (item=meat Meat)&#45;&gt;0,0 (LE BUS) -->
<g id="edge1" class="edge">
<title>0,10 (item=meat Meat)&#45;&gt;0,0 (LE BUS)</title>
<path fill="none" stroke="black" stroke-width="2.53" d="M693,-18C713.94,-18 735.27,-18 754.86,-18"/>
<polygon fill="black" stroke="black" stroke-width="2.53" points="754.93,-21.5 764.93,-18 754.93,-14.5 754.93,-21.5"/>
<text text-anchor="middle" x="723.93" y="-6.8" font-family="Times,serif" font-size="14.00">meat*68144</text>
</g>
<!-- 1,3 (item=korlex&#45;food&#45;01 Korlex food) -->
<g id="node3" class="node">
<title>1,3 (item=korlex&#45;food&#45;01 Korlex food)</title>
<ellipse fill="none" stroke="black" cx="185.88" cy="-18" rx="185.77" ry="18"/>
<text text-anchor="middle" x="185.88" y="-14.3" font-family="Times,serif" font-size="14.00">1,3 (item=korlex&#45;food&#45;01 Korlex food)</text>
</g>
<!-- 0,10 (item=meat Meat)&#45;&gt;1,3 (item=korlex&#45;food&#45;01 Korlex food) -->
<g id="edge2" class="edge">
<title>0,10 (item=meat Meat)&#45;&gt;1,3 (item=korlex&#45;food&#45;01 Korlex food)</title>
<path fill="none" stroke="black" stroke-width="0.39" d="M452.44,-18C430.02,-18 406.07,-18 382.06,-18"/>
<polygon fill="black" stroke="black" stroke-width="0.39" points="381.77,-14.5 371.77,-18 381.77,-21.5 381.77,-14.5"/>
<text text-anchor="middle" x="417.25" y="-6.8" font-family="Times,serif" font-size="14.00">meat*10480</text>
</g>
<!-- 4,7 (Cottonguts) -->
<g id="node4" class="node">
<title>4,7 (Cottonguts)</title>
<ellipse fill="none" stroke="black" cx="1067.03" cy="-18" rx="87.18" ry="18"/>
<text text-anchor="middle" x="1067.03" y="-14.3" font-family="Times,serif" font-size="14.00">4,7 (Cottonguts)</text>
</g>
<!-- 4,7 (Cottonguts)&#45;&gt;0,0 (LE BUS) -->
<g id="edge3" class="edge">
<title>4,7 (Cottonguts)&#45;&gt;0,0 (LE BUS)</title>
<path fill="none" stroke="black" stroke-width="0.08" d="M979.85,-18C959.56,-18 938.03,-18 917.99,-18"/>
<polygon fill="black" stroke="black" stroke-width="0.08" points="917.97,-14.5 907.97,-18 917.97,-21.5 917.97,-14.5"/>
<text text-anchor="middle" x="948.92" y="-6.8" font-family="Times,serif" font-size="14.00">meat*2160</text>
</g>
</g>
</svg>
