<?xml version="1.0" encoding="UTF-8" standalone="no"?>
<!DOCTYPE svg PUBLIC "-//W3C//DTD SVG 1.1//EN"
 "http://www.w3.org/Graphics/SVG/1.1/DTD/svg11.dtd">
<!-- Generated by graphviz version 2.43.0 (0)
 -->
<!-- Title: %3 Pages: 1 -->
<svg width="3117pt" height="2545pt"
 viewBox="0.00 0.00 3117.24 2545.08" xmlns="http://www.w3.org/2000/svg" xmlns:xlink="http://www.w3.org/1999/xlink">
<g id="graph0" class="graph" transform="scale(1 1) rotate(0) translate(4 2541.08)">
<title>%3</title>
<polygon fill="white" stroke="transparent" points="-4,4 -4,-2541.08 3113.24,-2541.08 3113.24,4 -4,4"/>
<!-- &#45;1,10 (Iron Plates) -->
<g id="node1" class="node">
<title>&#45;1,10 (Iron Plates)</title>
<ellipse fill="none" stroke="black" cx="1044.84" cy="-2446.4" rx="94.78" ry="18"/>
<text text-anchor="middle" x="1044.84" y="-2442.7" font-family="Times,serif" font-size="14.00">&#45;1,10 (Iron Plates)</text>
</g>
<!-- 0,0 (LE BUS) -->
<g id="node2" class="node">
<title>0,0 (LE BUS)</title>
<ellipse fill="none" stroke="black" cx="2606.98" cy="-1853.96" rx="71.49" ry="18"/>
<text text-anchor="middle" x="2606.98" y="-1850.26" font-family="Times,serif" font-size="14.00">0,0 (LE BUS)</text>
</g>
<!-- &#45;1,10 (Iron Plates)&#45;&gt;0,0 (LE BUS) -->
<g id="edge1" class="edge">
<title>&#45;1,10 (Iron Plates)&#45;&gt;0,0 (LE BUS)</title>
<path fill="none" stroke="black" stroke-width="0.6" d="M1087.43,-2430.25C1308.22,-2346.51 2321.32,-1962.3 2557.61,-1872.68"/>
<polygon fill="black" stroke="black" stroke-width="0.6" points="2559.2,-1875.83 2567.31,-1869.01 2556.71,-1869.28 2559.2,-1875.83"/>
<text text-anchor="middle" x="1732.02" y="-2155.27" font-family="Times,serif" font-size="14.00">dirty&#45;water&#45;barrel*13048</text>
</g>
<!-- 4,3 (item=nexelit&#45;plate Nexelit platery) -->
<g id="node3" class="node">
<title>4,3 (item=nexelit&#45;plate Nexelit platery)</title>
<ellipse fill="none" stroke="black" cx="1643.39" cy="-2519.08" rx="194.17" ry="18"/>
<text text-anchor="middle" x="1643.39" y="-2515.38" font-family="Times,serif" font-size="14.00">4,3 (item=nexelit&#45;plate Nexelit platery)</text>
</g>
<!-- &#45;1,10 (Iron Plates)&#45;&gt;4,3 (item=nexelit&#45;plate Nexelit platery) -->
<g id="edge19" class="edge">
<title>&#45;1,10 (Iron Plates)&#45;&gt;4,3 (item=nexelit&#45;plate Nexelit platery)</title>
<path fill="none" stroke="black" stroke-width="0.05" d="M1124.94,-2456.13C1224.84,-2468.26 1396.87,-2489.15 1515.19,-2503.51"/>
<polygon fill="black" stroke="black" stroke-width="0.05" points="1515.04,-2507.02 1525.39,-2504.75 1515.89,-2500.07 1515.04,-2507.02"/>
<text text-anchor="middle" x="1234.07" y="-2483.62" font-family="Times,serif" font-size="14.00">dirty&#45;water&#45;barrel*1088</text>
</g>
<!-- 7,&#45;1 (Aromatics, Need more Benzene? Look no further!) -->
<g id="node5" class="node">
<title>7,&#45;1 (Aromatics, Need more Benzene? Look no further!)</title>
<ellipse fill="none" stroke="black" cx="2751.27" cy="-1268.54" rx="268.35" ry="18"/>
<text text-anchor="middle" x="2751.27" y="-1264.84" font-family="Times,serif" font-size="14.00">7,&#45;1 (Aromatics, Need more Benzene? Look no further!)</text>
</g>
<!-- &#45;1,10 (Iron Plates)&#45;&gt;7,&#45;1 (Aromatics, Need more Benzene? Look no further!) -->
<g id="edge6" class="edge">
<title>&#45;1,10 (Iron Plates)&#45;&gt;7,&#45;1 (Aromatics, Need more Benzene? Look no further!)</title>
<path fill="none" stroke="black" stroke-width="3.83" d="M1070.29,-2428.84C1263.19,-2295.68 2493.71,-1446.32 2716.66,-1292.43"/>
<polygon fill="black" stroke="black" stroke-width="3.83" points="2718.81,-1295.2 2725.05,-1286.64 2714.83,-1289.44 2718.81,-1295.2"/>
<text text-anchor="middle" x="1802.97" y="-1864.43" font-family="Times,serif" font-size="14.00">dirty&#45;water&#45;barrel*83031</text>
</g>
<!-- &#45;3,1 (Logistic science pack, Automation Science) -->
<g id="node14" class="node">
<title>&#45;3,1 (Logistic science pack, Automation Science)</title>
<ellipse fill="none" stroke="black" cx="1643.39" cy="-18" rx="233.96" ry="18"/>
<text text-anchor="middle" x="1643.39" y="-14.3" font-family="Times,serif" font-size="14.00">&#45;3,1 (Logistic science pack, Automation Science)</text>
</g>
<!-- &#45;1,10 (Iron Plates)&#45;&gt;&#45;3,1 (Logistic science pack, Automation Science) -->
<g id="edge31" class="edge">
<title>&#45;1,10 (Iron Plates)&#45;&gt;&#45;3,1 (Logistic science pack, Automation Science)</title>
<path fill="none" stroke="black" stroke-width="0.05" d="M1049.31,-2428.25C1100.41,-2220.94 1573.18,-302.83 1636.41,-46.31"/>
<polygon fill="black" stroke="black" stroke-width="0.05" points="1639.88,-46.84 1638.88,-36.29 1633.09,-45.16 1639.88,-46.84"/>
<text text-anchor="middle" x="1256.86" y="-1241.08" font-family="Times,serif" font-size="14.00">dirty&#45;water&#45;barrel*1016</text>
</g>
<!-- 0,0 (LE BUS)&#45;&gt;4,3 (item=nexelit&#45;plate Nexelit platery) -->
<g id="edge2" class="edge">
<title>0,0 (LE BUS)&#45;&gt;4,3 (item=nexelit&#45;plate Nexelit platery)</title>
<path fill="none" stroke="black" stroke-width="0.36" d="M2582.19,-1871.07C2450.34,-1962.08 1831.58,-2389.18 1677.97,-2495.21"/>
<polygon fill="black" stroke="black" stroke-width="0.36" points="1675.59,-2492.6 1669.35,-2501.16 1679.57,-2498.36 1675.59,-2492.6"/>
<text text-anchor="middle" x="2044.08" y="-2186.94" font-family="Times,serif" font-size="14.00">dirty&#45;water&#45;barrel*7820</text>
</g>
<!-- 0,0 (LE BUS)&#45;&gt;7,&#45;1 (Aromatics, Need more Benzene? Look no further!) -->
<g id="edge9" class="edge">
<title>0,0 (LE BUS)&#45;&gt;7,&#45;1 (Aromatics, Need more Benzene? Look no further!)</title>
<path fill="none" stroke="black" stroke-width="2.91" d="M2611.45,-1835.8C2632.2,-1751.64 2719.03,-1399.36 2744.32,-1296.72"/>
<polygon fill="black" stroke="black" stroke-width="2.91" points="2747.78,-1297.33 2746.77,-1286.78 2740.98,-1295.65 2747.78,-1297.33"/>
<text text-anchor="middle" x="2587.39" y="-1570.06" font-family="Times,serif" font-size="14.00">dirty&#45;water&#45;barrel*63117</text>
</g>
<!-- 5,2 (Raw Fiber) -->
<g id="node7" class="node">
<title>5,2 (Raw Fiber)</title>
<ellipse fill="none" stroke="black" cx="548.63" cy="-433.19" rx="83.39" ry="18"/>
<text text-anchor="middle" x="548.63" y="-429.49" font-family="Times,serif" font-size="14.00">5,2 (Raw Fiber)</text>
</g>
<!-- 0,0 (LE BUS)&#45;&gt;5,2 (Raw Fiber) -->
<g id="edge5" class="edge">
<title>0,0 (LE BUS)&#45;&gt;5,2 (Raw Fiber)</title>
<path fill="none" stroke="black" stroke-width="0.11" d="M2582.43,-1837.02C2368.94,-1689.66 829.26,-626.9 582.07,-456.27"/>
<polygon fill="black" stroke="black" stroke-width="0.11" points="584.05,-453.38 573.83,-450.58 580.07,-459.14 584.05,-453.38"/>
<text text-anchor="middle" x="1496.25" y="-1150.45" font-family="Times,serif" font-size="14.00">dirty&#45;water&#45;barrel*2397</text>
</g>
<!-- 0,0 (LE BUS)&#45;&gt;&#45;3,1 (Logistic science pack, Automation Science) -->
<g id="edge17" class="edge">
<title>0,0 (LE BUS)&#45;&gt;&#45;3,1 (Logistic science pack, Automation Science)</title>
<path fill="none" stroke="black" stroke-width="0.15" d="M2597.59,-1836.09C2505.82,-1661.23 1769.3,-257.9 1657.57,-45.02"/>
<polygon fill="black" stroke="black" stroke-width="0.15" points="1660.61,-43.29 1652.87,-36.06 1654.41,-46.54 1660.61,-43.29"/>
<text text-anchor="middle" x="2041.58" y="-944.35" font-family="Times,serif" font-size="14.00">dirty&#45;water&#45;barrel*3224</text>
</g>
<!-- &#45;2,7 (item=borax Borax) -->
<g id="node4" class="node">
<title>&#45;2,7 (item=borax Borax)</title>
<ellipse fill="none" stroke="black" cx="2207.15" cy="-2305.27" rx="123.48" ry="18"/>
<text text-anchor="middle" x="2207.15" y="-2301.57" font-family="Times,serif" font-size="14.00">&#45;2,7 (item=borax Borax)</text>
</g>
<!-- &#45;2,7 (item=borax Borax)&#45;&gt;0,0 (LE BUS) -->
<g id="edge12" class="edge">
<title>&#45;2,7 (item=borax Borax)&#45;&gt;0,0 (LE BUS)</title>
<path fill="none" stroke="black" stroke-width="1.22" d="M2223.07,-2287.3C2285.2,-2217.17 2511.48,-1961.76 2584.26,-1879.6"/>
<polygon fill="black" stroke="black" stroke-width="1.22" points="2587,-1881.79 2591.01,-1871.98 2581.76,-1877.15 2587,-1881.79"/>
<text text-anchor="middle" x="2313.17" y="-2087.25" font-family="Times,serif" font-size="14.00">dirty&#45;water&#45;barrel*26386</text>
</g>
<!-- &#45;2,7 (item=borax Borax)&#45;&gt;4,3 (item=nexelit&#45;plate Nexelit platery) -->
<g id="edge18" class="edge">
<title>&#45;2,7 (item=borax Borax)&#45;&gt;4,3 (item=nexelit&#45;plate Nexelit platery)</title>
<path fill="none" stroke="black" stroke-width="0.03" d="M2162.44,-2322.23C2060.46,-2360.9 1810.85,-2455.57 1699.09,-2497.95"/>
<polygon fill="black" stroke="black" stroke-width="0.03" points="1697.78,-2494.71 1689.68,-2501.52 1700.27,-2501.25 1697.78,-2494.71"/>
<text text-anchor="middle" x="1849.27" y="-2413.89" font-family="Times,serif" font-size="14.00">dirty&#45;water&#45;barrel*576</text>
</g>
<!-- &#45;2,7 (item=borax Borax)&#45;&gt;7,&#45;1 (Aromatics, Need more Benzene? Look no further!) -->
<g id="edge3" class="edge">
<title>&#45;2,7 (item=borax Borax)&#45;&gt;7,&#45;1 (Aromatics, Need more Benzene? Look no further!)</title>
<path fill="none" stroke="black" stroke-width="3.48" d="M2216.59,-2287.28C2281.29,-2164.01 2658.78,-1444.76 2737.06,-1295.61"/>
<polygon fill="black" stroke="black" stroke-width="3.48" points="2740.23,-1297.1 2741.78,-1286.62 2734.03,-1293.85 2740.23,-1297.1"/>
<text text-anchor="middle" x="2386.33" y="-1795.24" font-family="Times,serif" font-size="14.00">dirty&#45;water&#45;barrel*75491</text>
</g>
<!-- &#45;2,7 (item=borax Borax)&#45;&gt;&#45;3,1 (Logistic science pack, Automation Science) -->
<g id="edge32" class="edge">
<title>&#45;2,7 (item=borax Borax)&#45;&gt;&#45;3,1 (Logistic science pack, Automation Science)</title>
<path fill="none" stroke="black" stroke-width="0.02" d="M2202.69,-2287.19C2153.43,-2087.33 1711.13,-292.83 1650.31,-46.08"/>
<polygon fill="black" stroke="black" stroke-width="0.02" points="1653.64,-44.98 1647.85,-36.11 1646.85,-46.66 1653.64,-44.98"/>
<text text-anchor="middle" x="1845" y="-1170.44" font-family="Times,serif" font-size="14.00">dirty&#45;water&#45;barrel*512</text>
</g>
<!-- 1,12 (Molten Iron) -->
<g id="node6" class="node">
<title>1,12 (Molten Iron)</title>
<ellipse fill="none" stroke="black" cx="2207.15" cy="-231.81" rx="95.58" ry="18"/>
<text text-anchor="middle" x="2207.15" y="-228.11" font-family="Times,serif" font-size="14.00">1,12 (Molten Iron)</text>
</g>
<!-- 1,12 (Molten Iron)&#45;&gt;0,0 (LE BUS) -->
<g id="edge8" class="edge">
<title>1,12 (Molten Iron)&#45;&gt;0,0 (LE BUS)</title>
<path fill="none" stroke="black" stroke-width="0.93" d="M2211.64,-250.02C2251.93,-413.48 2550.88,-1626.37 2600.12,-1826.15"/>
<polygon fill="black" stroke="black" stroke-width="0.93" points="2596.73,-1827.01 2602.52,-1835.88 2603.52,-1825.34 2596.73,-1827.01"/>
<text text-anchor="middle" x="2315.38" y="-1041.88" font-family="Times,serif" font-size="14.00">dirty&#45;water&#45;barrel*20144</text>
</g>
<!-- 1,12 (Molten Iron)&#45;&gt;7,&#45;1 (Aromatics, Need more Benzene? Look no further!) -->
<g id="edge4" class="edge">
<title>1,12 (Molten Iron)&#45;&gt;7,&#45;1 (Aromatics, Need more Benzene? Look no further!)</title>
<path fill="none" stroke="black" stroke-width="7.38" d="M2216.59,-249.8C2281.29,-373.07 2658.78,-1092.32 2737.06,-1241.47"/>
<polygon fill="black" stroke="black" stroke-width="7.38" points="2731.42,-1244.6 2741.78,-1250.46 2742.85,-1238.6 2731.42,-1244.6"/>
<text text-anchor="middle" x="2381.83" y="-749.43" font-family="Times,serif" font-size="14.00">dirty&#45;water&#45;barrel*160080</text>
</g>
<!-- 4,10 (Fluid Recycling) -->
<g id="node10" class="node">
<title>4,10 (Fluid Recycling)</title>
<ellipse fill="none" stroke="black" cx="268.43" cy="-1570.01" rx="112.38" ry="18"/>
<text text-anchor="middle" x="268.43" y="-1566.31" font-family="Times,serif" font-size="14.00">4,10 (Fluid Recycling)</text>
</g>
<!-- 1,12 (Molten Iron)&#45;&gt;4,10 (Fluid Recycling) -->
<g id="edge11" class="edge">
<title>1,12 (Molten Iron)&#45;&gt;4,10 (Fluid Recycling)</title>
<path fill="none" stroke="black" stroke-width="1.44" d="M2181.93,-249.22C1973.78,-392.89 541.65,-1381.42 302.31,-1546.62"/>
<polygon fill="black" stroke="black" stroke-width="1.44" points="300.23,-1543.8 293.99,-1552.36 304.21,-1549.56 300.23,-1543.8"/>
<text text-anchor="middle" x="1151.62" y="-901.72" font-family="Times,serif" font-size="14.00">dirty&#45;water&#45;barrel*31176</text>
</g>
<!-- 1,12 (Molten Iron)&#45;&gt;&#45;3,1 (Logistic science pack, Automation Science) -->
<g id="edge23" class="edge">
<title>1,12 (Molten Iron)&#45;&gt;&#45;3,1 (Logistic science pack, Automation Science)</title>
<path fill="none" stroke="black" stroke-width="0.05" d="M2164.31,-215.56C2063.69,-177.4 1812.27,-82.05 1699.58,-39.31"/>
<polygon fill="black" stroke="black" stroke-width="0.05" points="1700.68,-35.98 1690.08,-35.71 1698.19,-42.53 1700.68,-35.98"/>
<text text-anchor="middle" x="1845.95" y="-131.24" font-family="Times,serif" font-size="14.00">dirty&#45;water&#45;barrel*1016</text>
</g>
<!-- 3,9 (Copper, molten &amp; plate) -->
<g id="node8" class="node">
<title>3,9 (Copper, molten &amp; plate)</title>
<ellipse fill="none" stroke="black" cx="2606.98" cy="-683.12" rx="143.77" ry="18"/>
<text text-anchor="middle" x="2606.98" y="-679.42" font-family="Times,serif" font-size="14.00">3,9 (Copper, molten &amp; plate)</text>
</g>
<!-- 3,9 (Copper, molten &amp; plate)&#45;&gt;0,0 (LE BUS) -->
<g id="edge7" class="edge">
<title>3,9 (Copper, molten &amp; plate)&#45;&gt;0,0 (LE BUS)</title>
<path fill="none" stroke="black" stroke-width="0.53" d="M2606.98,-701.51C2606.98,-835.46 2606.98,-1660.45 2606.98,-1825.31"/>
<polygon fill="black" stroke="black" stroke-width="0.53" points="2603.48,-1825.61 2606.98,-1835.61 2610.48,-1825.61 2603.48,-1825.61"/>
<text text-anchor="middle" x="2516.48" y="-1252.21" font-family="Times,serif" font-size="14.00">dirty&#45;water&#45;barrel*11429</text>
</g>
<!-- 3,9 (Copper, molten &amp; plate)&#45;&gt;7,&#45;1 (Aromatics, Need more Benzene? Look no further!) -->
<g id="edge14" class="edge">
<title>3,9 (Copper, molten &amp; plate)&#45;&gt;7,&#45;1 (Aromatics, Need more Benzene? Look no further!)</title>
<path fill="none" stroke="black" stroke-width="3.24" d="M2611.45,-701.28C2632.2,-785.44 2719.03,-1137.72 2744.32,-1240.36"/>
<polygon fill="black" stroke="black" stroke-width="3.24" points="2740.98,-1241.43 2746.77,-1250.3 2747.78,-1239.75 2740.98,-1241.43"/>
<text text-anchor="middle" x="2587.39" y="-974.62" font-family="Times,serif" font-size="14.00">dirty&#45;water&#45;barrel*70294</text>
</g>
<!-- 3,9 (Copper, molten &amp; plate)&#45;&gt;4,10 (Fluid Recycling) -->
<g id="edge20" class="edge">
<title>3,9 (Copper, molten &amp; plate)&#45;&gt;4,10 (Fluid Recycling)</title>
<path fill="none" stroke="black" stroke-width="2.42" d="M2561.83,-700.24C2268.85,-811.35 639.23,-1429.38 321.96,-1549.71"/>
<polygon fill="black" stroke="black" stroke-width="2.42" points="320.64,-1546.47 312.53,-1553.28 323.12,-1553.01 320.64,-1546.47"/>
<text text-anchor="middle" x="1351.4" y="-1128.77" font-family="Times,serif" font-size="14.00">dirty&#45;water&#45;barrel*52411</text>
</g>
<!-- 3,9 (Copper, molten &amp; plate)&#45;&gt;&#45;3,1 (Logistic science pack, Automation Science) -->
<g id="edge36" class="edge">
<title>3,9 (Copper, molten &amp; plate)&#45;&gt;&#45;3,1 (Logistic science pack, Automation Science)</title>
<path fill="none" stroke="black" stroke-width="0.05" d="M2581.2,-665.33C2447.39,-572.96 1832.16,-148.3 1678.33,-42.12"/>
<polygon fill="black" stroke="black" stroke-width="0.05" points="1679.91,-38.96 1669.69,-36.16 1675.93,-44.72 1679.91,-38.96"/>
<text text-anchor="middle" x="2043.77" y="-357.52" font-family="Times,serif" font-size="14.00">dirty&#45;water&#45;barrel*1032</text>
</g>
<!-- &#45;3,&#45;1 (item=boron&#45;trioxide Boron products 2) -->
<g id="node9" class="node">
<title>&#45;3,&#45;1 (item=boron&#45;trioxide Boron products 2)</title>
<ellipse fill="none" stroke="black" cx="1044.84" cy="-90.68" rx="219.06" ry="18"/>
<text text-anchor="middle" x="1044.84" y="-86.98" font-family="Times,serif" font-size="14.00">&#45;3,&#45;1 (item=boron&#45;trioxide Boron products 2)</text>
</g>
<!-- &#45;3,&#45;1 (item=boron&#45;trioxide Boron products 2)&#45;&gt;0,0 (LE BUS) -->
<g id="edge15" class="edge">
<title>&#45;3,&#45;1 (item=boron&#45;trioxide Boron products 2)&#45;&gt;0,0 (LE BUS)</title>
<path fill="none" stroke="black" stroke-width="0.28" d="M1060.81,-108.7C1212.93,-280.42 2404.53,-1625.44 2584.29,-1828.36"/>
<polygon fill="black" stroke="black" stroke-width="0.28" points="2581.93,-1830.97 2591.18,-1836.13 2587.17,-1826.33 2581.93,-1830.97"/>
<text text-anchor="middle" x="1736.55" y="-972.33" font-family="Times,serif" font-size="14.00">dirty&#45;water&#45;barrel*6000</text>
</g>
<!-- &#45;3,&#45;1 (item=boron&#45;trioxide Boron products 2)&#45;&gt;7,&#45;1 (Aromatics, Need more Benzene? Look no further!) -->
<g id="edge22" class="edge">
<title>&#45;3,&#45;1 (item=boron&#45;trioxide Boron products 2)&#45;&gt;7,&#45;1 (Aromatics, Need more Benzene? Look no further!)</title>
<path fill="none" stroke="black" stroke-width="1.15" d="M1070.96,-108.71C1266.06,-243.38 2494.23,-1091.12 2716.73,-1244.7"/>
<polygon fill="black" stroke="black" stroke-width="1.15" points="2714.88,-1247.68 2725.1,-1250.48 2718.86,-1241.92 2714.88,-1247.68"/>
<text text-anchor="middle" x="1803.35" y="-680.5" font-family="Times,serif" font-size="14.00">dirty&#45;water&#45;barrel*25000</text>
</g>
<!-- &#45;3,&#45;1 (item=boron&#45;trioxide Boron products 2)&#45;&gt;5,2 (Raw Fiber) -->
<g id="edge10" class="edge">
<title>&#45;3,&#45;1 (item=boron&#45;trioxide Boron products 2)&#45;&gt;5,2 (Raw Fiber)</title>
<path fill="none" stroke="black" stroke-width="0.05" d="M1018.86,-108.61C935.6,-166.08 675.42,-345.67 582.24,-409.99"/>
<polygon fill="black" stroke="black" stroke-width="0.05" points="580,-407.28 573.76,-415.84 583.98,-413.04 580,-407.28"/>
<text text-anchor="middle" x="714.55" y="-263.1" font-family="Times,serif" font-size="14.00">dirty&#45;water&#45;barrel*1000</text>
</g>
<!-- &#45;3,&#45;1 (item=boron&#45;trioxide Boron products 2)&#45;&gt;&#45;3,1 (Logistic science pack, Automation Science) -->
<g id="edge33" class="edge">
<title>&#45;3,&#45;1 (item=boron&#45;trioxide Boron products 2)&#45;&gt;&#45;3,1 (Logistic science pack, Automation Science)</title>
<path fill="none" stroke="black" stroke-width="0.05" d="M1167.77,-75.75C1266.77,-63.73 1405.78,-46.85 1507.96,-34.44"/>
<polygon fill="black" stroke="black" stroke-width="0.05" points="1508.54,-37.9 1518.04,-33.22 1507.7,-30.95 1508.54,-37.9"/>
<text text-anchor="middle" x="1251.87" y="-58.9" font-family="Times,serif" font-size="14.00">dirty&#45;water&#45;barrel*1008</text>
</g>
<!-- 3,11 (Sap, Sodium Hydroxide) -->
<g id="node11" class="node">
<title>3,11 (Sap, Sodium Hydroxide)</title>
<ellipse fill="none" stroke="black" cx="2742.59" cy="-233.54" rx="150.57" ry="18"/>
<text text-anchor="middle" x="2742.59" y="-229.84" font-family="Times,serif" font-size="14.00">3,11 (Sap, Sodium Hydroxide)</text>
</g>
<!-- 2,14 (Latex) -->
<g id="node12" class="node">
<title>2,14 (Latex)</title>
<ellipse fill="none" stroke="black" cx="3032.32" cy="-233.54" rx="66.89" ry="18"/>
<text text-anchor="middle" x="3032.32" y="-229.84" font-family="Times,serif" font-size="14.00">2,14 (Latex)</text>
</g>
<!-- 3,11 (Sap, Sodium Hydroxide)&#45;&gt;2,14 (Latex) -->
<g id="edge13" class="edge">
<title>3,11 (Sap, Sodium Hydroxide)&#45;&gt;2,14 (Latex)</title>
<path fill="none" stroke="black" stroke-width="0.03" d="M2893.39,-233.54C2914.72,-233.54 2935.88,-233.54 2955.01,-233.54"/>
<polygon fill="black" stroke="black" stroke-width="0.03" points="2955.12,-237.04 2965.12,-233.54 2955.12,-230.04 2955.12,-237.04"/>
<text text-anchor="middle" x="2924.2" y="-222.34" font-family="Times,serif" font-size="14.00">dirty&#45;water&#45;barrel*736</text>
</g>
<!-- 4,0 (item=raw&#45;borax item=borax Borax and raw borax) -->
<g id="node13" class="node">
<title>4,0 (item=raw&#45;borax item=borax Borax and raw borax)</title>
<ellipse fill="none" stroke="black" cx="268.43" cy="-967.07" rx="268.35" ry="18"/>
<text text-anchor="middle" x="268.43" y="-963.37" font-family="Times,serif" font-size="14.00">4,0 (item=raw&#45;borax item=borax Borax and raw borax)</text>
</g>
<!-- 4,0 (item=raw&#45;borax item=borax Borax and raw borax)&#45;&gt;0,0 (LE BUS) -->
<g id="edge25" class="edge">
<title>4,0 (item=raw&#45;borax item=borax Borax and raw borax)&#45;&gt;0,0 (LE BUS)</title>
<path fill="none" stroke="black" stroke-width="0.13" d="M315.4,-984.88C614.62,-1098.36 2251.57,-1719.17 2557.66,-1835.26"/>
<polygon fill="black" stroke="black" stroke-width="0.13" points="2556.57,-1838.59 2567.16,-1838.86 2559.05,-1832.04 2556.57,-1838.59"/>
<text text-anchor="middle" x="1350.53" y="-1413.87" font-family="Times,serif" font-size="14.00">dirty&#45;water&#45;barrel*2892</text>
</g>
<!-- 4,0 (item=raw&#45;borax item=borax Borax and raw borax)&#45;&gt;4,3 (item=nexelit&#45;plate Nexelit platery) -->
<g id="edge21" class="edge">
<title>4,0 (item=raw&#45;borax item=borax Borax and raw borax)&#45;&gt;4,3 (item=nexelit&#45;plate Nexelit platery)</title>
<path fill="none" stroke="black" stroke-width="0.03" d="M284.58,-985.31C426.13,-1145.08 1453.95,-2305.24 1620.59,-2493.34"/>
<polygon fill="black" stroke="black" stroke-width="0.03" points="1618.19,-2495.92 1627.45,-2501.08 1623.43,-2491.28 1618.19,-2495.92"/>
<text text-anchor="middle" x="871.09" y="-1743.13" font-family="Times,serif" font-size="14.00">dirty&#45;water&#45;barrel*680</text>
</g>
<!-- 4,0 (item=raw&#45;borax item=borax Borax and raw borax)&#45;&gt;7,&#45;1 (Aromatics, Need more Benzene? Look no further!) -->
<g id="edge26" class="edge">
<title>4,0 (item=raw&#45;borax item=borax Borax and raw borax)&#45;&gt;7,&#45;1 (Aromatics, Need more Benzene? Look no further!)</title>
<path fill="none" stroke="black" stroke-width="0.12" d="M398.42,-982.85C823.74,-1034.5 2171.73,-1198.17 2611.23,-1251.54"/>
<polygon fill="black" stroke="black" stroke-width="0.12" points="2611.09,-1255.04 2621.44,-1252.78 2611.94,-1248.1 2611.09,-1255.04"/>
<text text-anchor="middle" x="1418.83" y="-1105.99" font-family="Times,serif" font-size="14.00">dirty&#45;water&#45;barrel*2618</text>
</g>
<!-- 4,0 (item=raw&#45;borax item=borax Borax and raw borax)&#45;&gt;5,2 (Raw Fiber) -->
<g id="edge16" class="edge">
<title>4,0 (item=raw&#45;borax item=borax Borax and raw borax)&#45;&gt;5,2 (Raw Fiber)</title>
<path fill="none" stroke="black" stroke-width="0.03" d="M277.91,-949C319.36,-870.02 484.77,-554.86 534.45,-460.21"/>
<polygon fill="black" stroke="black" stroke-width="0.03" points="537.6,-461.73 539.15,-451.25 531.4,-458.48 537.6,-461.73"/>
<text text-anchor="middle" x="324.68" y="-708.4" font-family="Times,serif" font-size="14.00">dirty&#45;water&#45;barrel*560</text>
</g>
<!-- 4,0 (item=raw&#45;borax item=borax Borax and raw borax)&#45;&gt;4,10 (Fluid Recycling) -->
<g id="edge24" class="edge">
<title>4,0 (item=raw&#45;borax item=borax Borax and raw borax)&#45;&gt;4,10 (Fluid Recycling)</title>
<path fill="none" stroke="black" stroke-width="0.42" d="M268.43,-985.11C268.43,-1070.75 268.43,-1436.35 268.43,-1541.57"/>
<polygon fill="black" stroke="black" stroke-width="0.42" points="264.93,-1541.74 268.43,-1551.74 271.93,-1541.74 264.93,-1541.74"/>
<text text-anchor="middle" x="182.43" y="-1267.14" font-family="Times,serif" font-size="14.00">dirty&#45;water&#45;barrel*9112</text>
</g>
<!-- 4,0 (item=raw&#45;borax item=borax Borax and raw borax)&#45;&gt;&#45;3,1 (Logistic science pack, Automation Science) -->
<g id="edge35" class="edge">
<title>4,0 (item=raw&#45;borax item=borax Borax and raw borax)&#45;&gt;&#45;3,1 (Logistic science pack, Automation Science)</title>
<path fill="none" stroke="black" stroke-width="0.02" d="M294.67,-948.96C465.24,-831.22 1415.71,-175.16 1609.06,-41.7"/>
<polygon fill="black" stroke="black" stroke-width="0.02" points="1611.19,-44.48 1617.43,-35.92 1607.21,-38.72 1611.19,-44.48"/>
<text text-anchor="middle" x="870.36" y="-499.13" font-family="Times,serif" font-size="14.00">dirty&#45;water&#45;barrel*513</text>
</g>
<!-- 3,5 (item=molybdenum&#45;plate Molybdenum plate) -->
<g id="node15" class="node">
<title>3,5 (item=molybdenum&#45;plate Molybdenum plate)</title>
<ellipse fill="none" stroke="black" cx="548.63" cy="-2103.89" rx="239.66" ry="18"/>
<text text-anchor="middle" x="548.63" y="-2100.19" font-family="Times,serif" font-size="14.00">3,5 (item=molybdenum&#45;plate Molybdenum plate)</text>
</g>
<!-- 3,5 (item=molybdenum&#45;plate Molybdenum plate)&#45;&gt;0,0 (LE BUS) -->
<g id="edge27" class="edge">
<title>3,5 (item=molybdenum&#45;plate Molybdenum plate)&#45;&gt;0,0 (LE BUS)</title>
<path fill="none" stroke="black" stroke-width="0.06" d="M675.06,-2088.54C1062.51,-2041.49 2225.62,-1900.27 2532.22,-1863.04"/>
<polygon fill="black" stroke="black" stroke-width="0.06" points="2532.83,-1866.49 2542.33,-1861.81 2531.98,-1859.54 2532.83,-1866.49"/>
<text text-anchor="middle" x="1517.64" y="-1979.59" font-family="Times,serif" font-size="14.00">dirty&#45;water&#45;barrel*1280</text>
</g>
<!-- 3,5 (item=molybdenum&#45;plate Molybdenum plate)&#45;&gt;7,&#45;1 (Aromatics, Need more Benzene? Look no further!) -->
<g id="edge29" class="edge">
<title>3,5 (item=molybdenum&#45;plate Molybdenum plate)&#45;&gt;7,&#45;1 (Aromatics, Need more Benzene? Look no further!)</title>
<path fill="none" stroke="black" stroke-width="2.8" d="M595.4,-2086.15C880.47,-1978.04 2382.39,-1408.44 2694.45,-1290.09"/>
<polygon fill="black" stroke="black" stroke-width="2.8" points="2696.09,-1293.21 2704.19,-1286.39 2693.6,-1286.67 2696.09,-1293.21"/>
<text text-anchor="middle" x="1554.42" y="-1691.92" font-family="Times,serif" font-size="14.00">dirty&#45;water&#45;barrel*60795</text>
</g>
<!-- 3,5 (item=molybdenum&#45;plate Molybdenum plate)&#45;&gt;4,10 (Fluid Recycling) -->
<g id="edge28" class="edge">
<title>3,5 (item=molybdenum&#45;plate Molybdenum plate)&#45;&gt;4,10 (Fluid Recycling)</title>
<path fill="none" stroke="black" stroke-width="1.81" d="M539.14,-2085.82C497.69,-2006.84 332.29,-1691.68 282.61,-1597.03"/>
<polygon fill="black" stroke="black" stroke-width="1.81" points="285.65,-1595.3 277.91,-1588.08 279.46,-1598.56 285.65,-1595.3"/>
<text text-anchor="middle" x="320.38" y="-1845.23" font-family="Times,serif" font-size="14.00">dirty&#45;water&#45;barrel*39175</text>
</g>
<!-- 3,5 (item=molybdenum&#45;plate Molybdenum plate)&#45;&gt;&#45;3,1 (Logistic science pack, Automation Science) -->
<g id="edge34" class="edge">
<title>3,5 (item=molybdenum&#45;plate Molybdenum plate)&#45;&gt;&#45;3,1 (Logistic science pack, Automation Science)</title>
<path fill="none" stroke="black" stroke-width="0.12" d="M558.09,-2085.86C657.45,-1896.55 1508.05,-275.86 1629.08,-45.26"/>
<polygon fill="black" stroke="black" stroke-width="0.12" points="1632.29,-46.67 1633.84,-36.19 1626.1,-43.42 1632.29,-46.67"/>
<text text-anchor="middle" x="1007.59" y="-1069.36" font-family="Times,serif" font-size="14.00">dirty&#45;water&#45;barrel*2552</text>
</g>
<!-- 4,13 (Chromium processing) -->
<g id="node16" class="node">
<title>4,13 (Chromium processing)</title>
<ellipse fill="none" stroke="black" cx="2966.26" cy="-1268.54" rx="142.97" ry="18"/>
<text text-anchor="middle" x="2966.26" y="-1264.84" font-family="Times,serif" font-size="14.00">4,13 (Chromium processing)</text>
</g>
<!-- 4,13 (Chromium processing)&#45;&gt;7,&#45;1 (Aromatics, Need more Benzene? Look no further!) -->
<g id="edge30" class="edge">
<title>4,13 (Chromium processing)&#45;&gt;7,&#45;1 (Aromatics, Need more Benzene? Look no further!)</title>
<path fill="none" stroke="black" stroke-width="0.1" d="M2823.16,-1268.54C2823.08,-1268.54 2823,-1268.54 2822.92,-1268.54"/>
<polygon fill="black" stroke="black" stroke-width="0.1" points="2832.69,-1265.04 2822.69,-1268.54 2832.69,-1272.04 2832.69,-1265.04"/>
<text text-anchor="middle" x="2737.04" y="-1272.34" font-family="Times,serif" font-size="14.00">dirty&#45;water&#45;barrel*2071</text>
</g>
</g>
</svg>
