<?xml version="1.0" encoding="UTF-8" standalone="no"?>
<!DOCTYPE svg PUBLIC "-//W3C//DTD SVG 1.1//EN"
 "http://www.w3.org/Graphics/SVG/1.1/DTD/svg11.dtd">
<!-- Generated by graphviz version 2.43.0 (0)
 -->
<!-- Title: %3 Pages: 1 -->
<svg width="873pt" height="699pt"
 viewBox="0.00 0.00 873.34 699.05" xmlns="http://www.w3.org/2000/svg" xmlns:xlink="http://www.w3.org/1999/xlink">
<g id="graph0" class="graph" transform="scale(1 1) rotate(0) translate(4 695.05)">
<title>%3</title>
<polygon fill="white" stroke="transparent" points="-4,4 -4,-695.05 869.34,-695.05 869.34,4 -4,4"/>
<!-- 1,4 (Casein and Melamine) -->
<g id="node1" class="node">
<title>1,4 (Casein and Melamine)</title>
<ellipse fill="none" stroke="black" cx="392.33" cy="-369.07" rx="135.38" ry="18"/>
<text text-anchor="middle" x="392.33" y="-365.37" font-family="Times,serif" font-size="14.00">1,4 (Casein and Melamine)</text>
</g>
<!-- &#45;5,2 (Optical fiber) -->
<g id="node2" class="node">
<title>&#45;5,2 (Optical fiber)</title>
<ellipse fill="none" stroke="black" cx="769.15" cy="-369.07" rx="96.38" ry="18"/>
<text text-anchor="middle" x="769.15" y="-365.37" font-family="Times,serif" font-size="14.00">&#45;5,2 (Optical fiber)</text>
</g>
<!-- 1,4 (Casein and Melamine)&#45;&gt;&#45;5,2 (Optical fiber) -->
<g id="edge1" class="edge">
<title>1,4 (Casein and Melamine)&#45;&gt;&#45;5,2 (Optical fiber)</title>
<path fill="none" stroke="black" stroke-width="0.91" d="M527.57,-369.07C571.93,-369.07 620.58,-369.07 662.52,-369.07"/>
<polygon fill="black" stroke="black" stroke-width="0.91" points="662.75,-372.57 672.75,-369.07 662.75,-365.57 662.75,-372.57"/>
<text text-anchor="middle" x="595.05" y="-357.87" font-family="Times,serif" font-size="14.00">melamine*184640</text>
</g>
<!-- 2,4 (Formica and Phenolic boards) -->
<g id="node3" class="node">
<title>2,4 (Formica and Phenolic boards)</title>
<ellipse fill="none" stroke="black" cx="169.63" cy="-673.05" rx="169.77" ry="18"/>
<text text-anchor="middle" x="169.63" y="-669.35" font-family="Times,serif" font-size="14.00">2,4 (Formica and Phenolic boards)</text>
</g>
<!-- 1,4 (Casein and Melamine)&#45;&gt;2,4 (Formica and Phenolic boards) -->
<g id="edge2" class="edge">
<title>1,4 (Casein and Melamine)&#45;&gt;2,4 (Formica and Phenolic boards)</title>
<path fill="none" stroke="black" stroke-width="2.02" d="M379.06,-387.18C341.31,-438.71 233.15,-586.35 188.88,-646.78"/>
<polygon fill="black" stroke="black" stroke-width="2.02" points="185.92,-644.91 182.83,-655.04 191.56,-649.05 185.92,-644.91"/>
<text text-anchor="middle" x="218.47" y="-520.78" font-family="Times,serif" font-size="14.00">melamine*411120</text>
</g>
<!-- 0,0 (LE BUS) -->
<g id="node4" class="node">
<title>0,0 (LE BUS)</title>
<ellipse fill="none" stroke="black" cx="255.42" cy="-18" rx="71.49" ry="18"/>
<text text-anchor="middle" x="255.42" y="-14.3" font-family="Times,serif" font-size="14.00">0,0 (LE BUS)</text>
</g>
<!-- 1,4 (Casein and Melamine)&#45;&gt;0,0 (LE BUS) -->
<g id="edge3" class="edge">
<title>1,4 (Casein and Melamine)&#45;&gt;0,0 (LE BUS)</title>
<path fill="none" stroke="black" stroke-width="0.07" d="M385.16,-350.69C362.61,-292.87 293.03,-114.44 266.16,-45.54"/>
<polygon fill="black" stroke="black" stroke-width="0.07" points="269.41,-44.24 262.52,-36.2 262.89,-46.79 269.41,-44.24"/>
<text text-anchor="middle" x="264.66" y="-201.92" font-family="Times,serif" font-size="14.00">melamine*14720</text>
</g>
</g>
</svg>
