<?xml version="1.0" encoding="UTF-8" standalone="no"?>
<!DOCTYPE svg PUBLIC "-//W3C//DTD SVG 1.1//EN"
 "http://www.w3.org/Graphics/SVG/1.1/DTD/svg11.dtd">
<!-- Generated by graphviz version 2.43.0 (0)
 -->
<!-- Title: %3 Pages: 1 -->
<svg width="716pt" height="588pt"
 viewBox="0.00 0.00 715.63 587.82" xmlns="http://www.w3.org/2000/svg" xmlns:xlink="http://www.w3.org/1999/xlink">
<g id="graph0" class="graph" transform="scale(1 1) rotate(0) translate(4 583.82)">
<title>%3</title>
<polygon fill="white" stroke="transparent" points="-4,4 -4,-583.82 711.63,-583.82 711.63,4 -4,4"/>
<!-- 2,13 (Polybutadiene) -->
<g id="node1" class="node">
<title>2,13 (Polybutadiene)</title>
<ellipse fill="none" stroke="black" cx="463.28" cy="-18" rx="106.68" ry="18"/>
<text text-anchor="middle" x="463.28" y="-14.3" font-family="Times,serif" font-size="14.00">2,13 (Polybutadiene)</text>
</g>
<!-- &#45;6,7 (Iron ore dust) -->
<g id="node2" class="node">
<title>&#45;6,7 (Iron ore dust)</title>
<ellipse fill="none" stroke="black" cx="143.64" cy="-121.86" rx="98.58" ry="18"/>
<text text-anchor="middle" x="143.64" y="-118.16" font-family="Times,serif" font-size="14.00">&#45;6,7 (Iron ore dust)</text>
</g>
<!-- 2,13 (Polybutadiene)&#45;&gt;&#45;6,7 (Iron ore dust) -->
<g id="edge1" class="edge">
<title>2,13 (Polybutadiene)&#45;&gt;&#45;6,7 (Iron ore dust)</title>
<path fill="none" stroke="black" stroke-width="4.01" d="M414.04,-34C356.89,-52.57 262.74,-83.16 201.98,-102.9"/>
<polygon fill="black" stroke="black" stroke-width="4.01" points="200.58,-99.67 192.15,-106.1 202.75,-106.35 200.58,-99.67"/>
<text text-anchor="middle" x="244.51" y="-72.25" font-family="Times,serif" font-size="14.00">iron&#45;ore*2315952</text>
</g>
<!-- 1,10 (Iron Ore Dust) -->
<g id="node5" class="node">
<title>1,10 (Iron Ore Dust)</title>
<ellipse fill="none" stroke="black" cx="463.28" cy="-561.82" rx="104.78" ry="18"/>
<text text-anchor="middle" x="463.28" y="-558.12" font-family="Times,serif" font-size="14.00">1,10 (Iron Ore Dust)</text>
</g>
<!-- 2,13 (Polybutadiene)&#45;&gt;1,10 (Iron Ore Dust) -->
<g id="edge5" class="edge">
<title>2,13 (Polybutadiene)&#45;&gt;1,10 (Iron Ore Dust)</title>
<path fill="none" stroke="black" stroke-width="0.35" d="M463.28,-36.09C463.28,-115.77 463.28,-435.74 463.28,-533.38"/>
<polygon fill="black" stroke="black" stroke-width="0.35" points="459.79,-533.66 463.28,-543.66 466.79,-533.66 459.79,-533.66"/>
<text text-anchor="middle" x="404.28" y="-288.54" font-family="Times,serif" font-size="14.00">iron&#45;ore*202992</text>
</g>
<!-- &#45;4,0 (item=lens Optical sets) -->
<g id="node3" class="node">
<title>&#45;4,0 (item=lens Optical sets)</title>
<ellipse fill="none" stroke="black" cx="143.64" cy="-457.96" rx="143.77" ry="18"/>
<text text-anchor="middle" x="143.64" y="-454.26" font-family="Times,serif" font-size="14.00">&#45;4,0 (item=lens Optical sets)</text>
</g>
<!-- &#45;4,0 (item=lens Optical sets)&#45;&gt;&#45;6,7 (Iron ore dust) -->
<g id="edge2" class="edge">
<title>&#45;4,0 (item=lens Optical sets)&#45;&gt;&#45;6,7 (Iron ore dust)</title>
<path fill="none" stroke="black" stroke-width="0.14" d="M143.64,-439.89C143.64,-384.61 143.64,-217.46 143.64,-150.27"/>
<polygon fill="black" stroke="black" stroke-width="0.14" points="147.14,-150.02 143.64,-140.02 140.14,-150.02 147.14,-150.02"/>
<text text-anchor="middle" x="89.14" y="-298.88" font-family="Times,serif" font-size="14.00">iron&#45;ore*80650</text>
</g>
<!-- &#45;4,0 (item=lens Optical sets)&#45;&gt;1,10 (Iron Ore Dust) -->
<g id="edge6" class="edge">
<title>&#45;4,0 (item=lens Optical sets)&#45;&gt;1,10 (Iron Ore Dust)</title>
<path fill="none" stroke="black" stroke-width="0.07" d="M195.35,-474.76C252.59,-493.36 344.67,-523.28 404.58,-542.74"/>
<polygon fill="black" stroke="black" stroke-width="0.07" points="403.68,-546.13 414.27,-545.89 405.84,-539.47 403.68,-546.13"/>
<text text-anchor="middle" x="245.46" y="-512.55" font-family="Times,serif" font-size="14.00">iron&#45;ore*40450</text>
</g>
<!-- &#45;10,&#45;4 () -->
<g id="node4" class="node">
<title>&#45;10,&#45;4 ()</title>
<ellipse fill="none" stroke="black" cx="660.84" cy="-289.91" rx="46.59" ry="18"/>
<text text-anchor="middle" x="660.84" y="-286.21" font-family="Times,serif" font-size="14.00">&#45;10,&#45;4 ()</text>
</g>
<!-- &#45;10,&#45;4 ()&#45;&gt;&#45;6,7 (Iron ore dust) -->
<g id="edge4" class="edge">
<title>&#45;10,&#45;4 ()&#45;&gt;&#45;6,7 (Iron ore dust)</title>
<path fill="none" stroke="black" stroke-width="0.73" d="M624.88,-278.23C536.8,-249.61 309.61,-175.79 201.92,-140.8"/>
<polygon fill="black" stroke="black" stroke-width="0.73" points="202.78,-137.4 192.19,-137.64 200.62,-144.05 202.78,-137.4"/>
<text text-anchor="middle" x="354.4" y="-213.31" font-family="Times,serif" font-size="14.00">iron&#45;ore*419008</text>
</g>
<!-- &#45;10,&#45;4 ()&#45;&gt;1,10 (Iron Ore Dust) -->
<g id="edge3" class="edge">
<title>&#45;10,&#45;4 ()&#45;&gt;1,10 (Iron Ore Dust)</title>
<path fill="none" stroke="black" stroke-width="0.7" d="M648.18,-307.33C614.47,-353.73 522.38,-480.49 482.32,-535.62"/>
<polygon fill="black" stroke="black" stroke-width="0.7" points="479.4,-533.69 476.35,-543.83 485.06,-537.8 479.4,-533.69"/>
<text text-anchor="middle" x="506.25" y="-425.28" font-family="Times,serif" font-size="14.00">iron&#45;ore*404416</text>
</g>
</g>
</svg>
