<?xml version="1.0" encoding="UTF-8" standalone="no"?>
<!DOCTYPE svg PUBLIC "-//W3C//DTD SVG 1.1//EN"
 "http://www.w3.org/Graphics/SVG/1.1/DTD/svg11.dtd">
<!-- Generated by graphviz version 2.43.0 (0)
 -->
<!-- Title: %3 Pages: 1 -->
<svg width="1921pt" height="908pt"
 viewBox="0.00 0.00 1920.96 907.63" xmlns="http://www.w3.org/2000/svg" xmlns:xlink="http://www.w3.org/1999/xlink">
<g id="graph0" class="graph" transform="scale(1 1) rotate(0) translate(4 903.63)">
<title>%3</title>
<polygon fill="white" stroke="transparent" points="-4,4 -4,-903.63 1916.96,-903.63 1916.96,4 -4,4"/>
<!-- 0,8 (Tar from Coke) -->
<g id="node1" class="node">
<title>0,8 (Tar from Coke)</title>
<ellipse fill="none" stroke="black" cx="260.63" cy="-18" rx="100.98" ry="18"/>
<text text-anchor="middle" x="260.63" y="-14.3" font-family="Times,serif" font-size="14.00">0,8 (Tar from Coke)</text>
</g>
<!-- 0,3 () -->
<g id="node2" class="node">
<title>0,3 ()</title>
<ellipse fill="none" stroke="black" cx="35.1" cy="-408.64" rx="35.19" ry="18"/>
<text text-anchor="middle" x="35.1" y="-404.94" font-family="Times,serif" font-size="14.00">0,3 ()</text>
</g>
<!-- 0,8 (Tar from Coke)&#45;&gt;0,3 () -->
<g id="edge1" class="edge">
<title>0,8 (Tar from Coke)&#45;&gt;0,3 ()</title>
<path fill="none" stroke="black" stroke-width="0.16" d="M250.21,-36.06C213.9,-98.94 92.91,-308.5 50.19,-382.49"/>
<polygon fill="black" stroke="black" stroke-width="0.16" points="47.12,-380.81 45.15,-391.22 53.19,-384.31 47.12,-380.81"/>
<text text-anchor="middle" x="98.7" y="-213.08" font-family="Times,serif" font-size="14.00">tar&#45;barrel*880</text>
</g>
<!-- 4,&#45;1 (Fluid) -->
<g id="node4" class="node">
<title>4,&#45;1 (Fluid)</title>
<ellipse fill="none" stroke="black" cx="711.71" cy="-18" rx="61.99" ry="18"/>
<text text-anchor="middle" x="711.71" y="-14.3" font-family="Times,serif" font-size="14.00">4,&#45;1 (Fluid)</text>
</g>
<!-- 0,8 (Tar from Coke)&#45;&gt;4,&#45;1 (Fluid) -->
<g id="edge9" class="edge">
<title>0,8 (Tar from Coke)&#45;&gt;4,&#45;1 (Fluid)</title>
<path fill="none" stroke="black" stroke-width="0.18" d="M361.58,-18C446.04,-18 564.46,-18 639.63,-18"/>
<polygon fill="black" stroke="black" stroke-width="0.18" points="639.94,-21.5 649.94,-18 639.94,-14.5 639.94,-21.5"/>
<text text-anchor="middle" x="449.11" y="-21.8" font-family="Times,serif" font-size="14.00">tar&#45;barrel*960</text>
</g>
<!-- 0,7 (Coal Gas) -->
<g id="node6" class="node">
<title>0,7 (Coal Gas)</title>
<ellipse fill="none" stroke="black" cx="260.63" cy="-799.28" rx="76.09" ry="18"/>
<text text-anchor="middle" x="260.63" y="-795.58" font-family="Times,serif" font-size="14.00">0,7 (Coal Gas)</text>
</g>
<!-- 0,8 (Tar from Coke)&#45;&gt;0,7 (Coal Gas) -->
<g id="edge10" class="edge">
<title>0,8 (Tar from Coke)&#45;&gt;0,7 (Coal Gas)</title>
<path fill="none" stroke="black" stroke-width="0.15" d="M260.63,-36.16C260.63,-138.69 260.63,-644.94 260.63,-770.88"/>
<polygon fill="black" stroke="black" stroke-width="0.15" points="257.13,-771.22 260.63,-781.22 264.13,-771.22 257.13,-771.22"/>
<text text-anchor="middle" x="209.13" y="-407.32" font-family="Times,serif" font-size="14.00">tar&#45;barrel*812</text>
</g>
<!-- 3,6 (Phosphoric Acid and Phosphine gas) -->
<g id="node7" class="node">
<title>3,6 (Phosphoric Acid and Phosphine gas)</title>
<ellipse fill="none" stroke="black" cx="711.71" cy="-799.28" rx="200.36" ry="18"/>
<text text-anchor="middle" x="711.71" y="-795.58" font-family="Times,serif" font-size="14.00">3,6 (Phosphoric Acid and Phosphine gas)</text>
</g>
<!-- 0,8 (Tar from Coke)&#45;&gt;3,6 (Phosphoric Acid and Phosphine gas) -->
<g id="edge8" class="edge">
<title>0,8 (Tar from Coke)&#45;&gt;3,6 (Phosphoric Acid and Phosphine gas)</title>
<path fill="none" stroke="black" stroke-width="0.02" d="M271.12,-36.16C330.55,-139.1 624.96,-649.02 696.18,-772.38"/>
<polygon fill="black" stroke="black" stroke-width="0.02" points="693.25,-774.31 701.28,-781.22 699.31,-770.81 693.25,-774.31"/>
<text text-anchor="middle" x="432.15" y="-393.07" font-family="Times,serif" font-size="14.00">tar&#45;barrel*112</text>
</g>
<!-- 3,1 (Mining Brick) -->
<g id="node3" class="node">
<title>3,1 (Mining Brick)</title>
<ellipse fill="none" stroke="black" cx="937.25" cy="-408.64" rx="94.78" ry="18"/>
<text text-anchor="middle" x="937.25" y="-404.94" font-family="Times,serif" font-size="14.00">3,1 (Mining Brick)</text>
</g>
<!-- 3,1 (Mining Brick)&#45;&gt;0,3 () -->
<g id="edge4" class="edge">
<title>3,1 (Mining Brick)&#45;&gt;0,3 ()</title>
<path fill="none" stroke="black" stroke-width="5.24" d="M841.98,-408.64C649.74,-408.64 221.72,-408.64 80.95,-408.64"/>
<polygon fill="black" stroke="black" stroke-width="5.24" points="80.54,-404.06 70.54,-408.64 80.54,-413.23 80.54,-404.06"/>
<text text-anchor="middle" x="400.97" y="-412.44" font-family="Times,serif" font-size="14.00">tar&#45;barrel*27992</text>
</g>
<!-- 3,1 (Mining Brick)&#45;&gt;4,&#45;1 (Fluid) -->
<g id="edge2" class="edge">
<title>3,1 (Mining Brick)&#45;&gt;4,&#45;1 (Fluid)</title>
<path fill="none" stroke="black" stroke-width="2.4" d="M926.82,-390.58C890.6,-327.84 770.08,-119.1 727.1,-44.66"/>
<polygon fill="black" stroke="black" stroke-width="2.4" points="730.06,-42.78 722.02,-35.87 723.99,-46.28 730.06,-42.78"/>
<text text-anchor="middle" x="766.46" y="-221.42" font-family="Times,serif" font-size="14.00">tar&#45;barrel*12840</text>
</g>
<!-- 1,&#45;1 (fluid=molten&#45;glass Glass, When space, make quartz separate with regular priority, Quartz) -->
<g id="node5" class="node">
<title>1,&#45;1 (fluid=molten&#45;glass Glass, When space, make quartz separate with regular priority, Quartz)</title>
<ellipse fill="none" stroke="black" cx="1455.4" cy="-259.48" rx="457.62" ry="18"/>
<text text-anchor="middle" x="1455.4" y="-255.78" font-family="Times,serif" font-size="14.00">1,&#45;1 (fluid=molten&#45;glass Glass, When space, make quartz separate with regular priority, Quartz)</text>
</g>
<!-- 3,1 (Mining Brick)&#45;&gt;1,&#45;1 (fluid=molten&#45;glass Glass, When space, make quartz separate with regular priority, Quartz) -->
<g id="edge3" class="edge">
<title>3,1 (Mining Brick)&#45;&gt;1,&#45;1 (fluid=molten&#45;glass Glass, When space, make quartz separate with regular priority, Quartz)</title>
<path fill="none" stroke="black" stroke-width="0.46" d="M989.78,-393.52C1083.09,-366.66 1277.84,-310.6 1383.5,-280.18"/>
<polygon fill="black" stroke="black" stroke-width="0.46" points="1384.48,-283.54 1393.12,-277.41 1382.55,-276.81 1384.48,-283.54"/>
<text text-anchor="middle" x="1130.64" y="-340.65" font-family="Times,serif" font-size="14.00">tar&#45;barrel*2440</text>
</g>
<!-- 3,1 (Mining Brick)&#45;&gt;0,7 (Coal Gas) -->
<g id="edge5" class="edge">
<title>3,1 (Mining Brick)&#45;&gt;0,7 (Coal Gas)</title>
<path fill="none" stroke="black" stroke-width="0.71" d="M907.3,-425.93C798,-489.04 420.62,-706.92 298.84,-777.23"/>
<polygon fill="black" stroke="black" stroke-width="0.71" points="296.76,-774.38 289.85,-782.41 300.26,-780.45 296.76,-774.38"/>
<text text-anchor="middle" x="547.07" y="-605.38" font-family="Times,serif" font-size="14.00">tar&#45;barrel*3800</text>
</g>
<!-- 3,1 (Mining Brick)&#45;&gt;3,6 (Phosphoric Acid and Phosphine gas) -->
<g id="edge6" class="edge">
<title>3,1 (Mining Brick)&#45;&gt;3,6 (Phosphoric Acid and Phosphine gas)</title>
<path fill="none" stroke="black" stroke-width="0.35" d="M926.82,-426.7C890.68,-489.3 770.63,-697.23 727.4,-772.11"/>
<polygon fill="black" stroke="black" stroke-width="0.35" points="724.25,-770.56 722.28,-780.97 730.32,-774.06 724.25,-770.56"/>
<text text-anchor="middle" x="771.11" y="-603.21" font-family="Times,serif" font-size="14.00">tar&#45;barrel*1864</text>
</g>
<!-- &#45;3,2 (Lead and Solder) -->
<g id="node8" class="node">
<title>&#45;3,2 (Lead and Solder)</title>
<ellipse fill="none" stroke="black" cx="1345.2" cy="-881.63" rx="113.98" ry="18"/>
<text text-anchor="middle" x="1345.2" y="-877.93" font-family="Times,serif" font-size="14.00">&#45;3,2 (Lead and Solder)</text>
</g>
<!-- 3,1 (Mining Brick)&#45;&gt;&#45;3,2 (Lead and Solder) -->
<g id="edge7" class="edge">
<title>3,1 (Mining Brick)&#45;&gt;&#45;3,2 (Lead and Solder)</title>
<path fill="none" stroke="black" stroke-width="0.32" d="M952.74,-426.61C1015.34,-499.19 1249.74,-770.95 1323.1,-856.01"/>
<polygon fill="black" stroke="black" stroke-width="0.32" points="1320.51,-858.36 1329.69,-863.64 1325.81,-853.79 1320.51,-858.36"/>
<text text-anchor="middle" x="1081.92" y="-645.11" font-family="Times,serif" font-size="14.00">tar&#45;barrel*1736</text>
</g>
</g>
</svg>
