<?xml version="1.0" encoding="UTF-8" standalone="no"?>
<!DOCTYPE svg PUBLIC "-//W3C//DTD SVG 1.1//EN"
 "http://www.w3.org/Graphics/SVG/1.1/DTD/svg11.dtd">
<!-- Generated by graphviz version 2.43.0 (0)
 -->
<!-- Title: %3 Pages: 1 -->
<svg width="1031pt" height="929pt"
 viewBox="0.00 0.00 1030.80 929.30" xmlns="http://www.w3.org/2000/svg" xmlns:xlink="http://www.w3.org/1999/xlink">
<g id="graph0" class="graph" transform="scale(1 1) rotate(0) translate(4 925.3)">
<title>%3</title>
<polygon fill="white" stroke="transparent" points="-4,4 -4,-925.3 1026.8,-925.3 1026.8,4 -4,4"/>
<!-- 0,0 (LE BUS) -->
<g id="node1" class="node">
<title>0,0 (LE BUS)</title>
<ellipse fill="none" stroke="black" cx="480.24" cy="-457.78" rx="71.49" ry="18"/>
<text text-anchor="middle" x="480.24" y="-454.08" font-family="Times,serif" font-size="14.00">0,0 (LE BUS)</text>
</g>
<!-- 0,9 (Auog Brains) -->
<g id="node2" class="node">
<title>0,9 (Auog Brains)</title>
<ellipse fill="none" stroke="black" cx="931.15" cy="-457.78" rx="91.78" ry="18"/>
<text text-anchor="middle" x="931.15" y="-454.08" font-family="Times,serif" font-size="14.00">0,9 (Auog Brains)</text>
</g>
<!-- 0,0 (LE BUS)&#45;&gt;0,9 (Auog Brains) -->
<g id="edge1" class="edge">
<title>0,0 (LE BUS)&#45;&gt;0,9 (Auog Brains)</title>
<path fill="none" stroke="black" stroke-width="1.64" d="M552.19,-457.78C626.97,-457.78 744.67,-457.78 829.06,-457.78"/>
<polygon fill="black" stroke="black" stroke-width="1.64" points="829.18,-461.28 839.18,-457.78 829.18,-454.28 829.18,-461.28"/>
<text text-anchor="middle" x="646.12" y="-461.58" font-family="Times,serif" font-size="14.00">moss*20000</text>
</g>
<!-- 7,&#45;2 (item=guts Auog guts) -->
<g id="node3" class="node">
<title>7,&#45;2 (item=guts Auog guts)</title>
<ellipse fill="none" stroke="black" cx="549.83" cy="-903.3" rx="137.28" ry="18"/>
<text text-anchor="middle" x="549.83" y="-899.6" font-family="Times,serif" font-size="14.00">7,&#45;2 (item=guts Auog guts)</text>
</g>
<!-- 0,0 (LE BUS)&#45;&gt;7,&#45;2 (item=guts Auog guts) -->
<g id="edge2" class="edge">
<title>0,0 (LE BUS)&#45;&gt;7,&#45;2 (item=guts Auog guts)</title>
<path fill="none" stroke="black" stroke-width="0.72" d="M483.05,-475.8C493.79,-544.57 532.28,-790.93 545.4,-874.97"/>
<polygon fill="black" stroke="black" stroke-width="0.72" points="541.98,-875.72 546.98,-885.06 548.89,-874.63 541.98,-875.72"/>
<text text-anchor="middle" x="474.23" y="-679.18" font-family="Times,serif" font-size="14.00">moss*8784</text>
</g>
<!-- &#45;3,8 (Urea) -->
<g id="node4" class="node">
<title>&#45;3,8 (Urea)</title>
<ellipse fill="none" stroke="black" cx="61.09" cy="-624.05" rx="61.19" ry="18"/>
<text text-anchor="middle" x="61.09" y="-620.35" font-family="Times,serif" font-size="14.00">&#45;3,8 (Urea)</text>
</g>
<!-- 0,0 (LE BUS)&#45;&gt;&#45;3,8 (Urea) -->
<g id="edge3" class="edge">
<title>0,0 (LE BUS)&#45;&gt;&#45;3,8 (Urea)</title>
<path fill="none" stroke="black" stroke-width="0.82" d="M441.56,-473.13C364.07,-503.86 190.13,-572.86 107.01,-605.83"/>
<polygon fill="black" stroke="black" stroke-width="0.82" points="105.59,-602.63 97.58,-609.57 108.17,-609.14 105.59,-602.63"/>
<text text-anchor="middle" x="229.79" y="-543.28" font-family="Times,serif" font-size="14.00">moss*10000</text>
</g>
<!-- &#45;7,&#45;4 (Isomer&#39;s Slaughterhouse and Daycare Centre, Bone Meal) -->
<g id="node5" class="node">
<title>&#45;7,&#45;4 (Isomer&#39;s Slaughterhouse and Daycare Centre, Bone Meal)</title>
<ellipse fill="none" stroke="black" cx="380.65" cy="-18" rx="307.35" ry="18"/>
<text text-anchor="middle" x="380.65" y="-14.3" font-family="Times,serif" font-size="14.00">&#45;7,&#45;4 (Isomer&#39;s Slaughterhouse and Daycare Centre, Bone Meal)</text>
</g>
<!-- 0,0 (LE BUS)&#45;&gt;&#45;7,&#45;4 (Isomer&#39;s Slaughterhouse and Daycare Centre, Bone Meal) -->
<g id="edge4" class="edge">
<title>0,0 (LE BUS)&#45;&gt;&#45;7,&#45;4 (Isomer&#39;s Slaughterhouse and Daycare Centre, Bone Meal)</title>
<path fill="none" stroke="black" stroke-width="0.82" d="M476.15,-439.72C460.7,-371.52 405.85,-129.3 387.04,-46.22"/>
<polygon fill="black" stroke="black" stroke-width="0.82" points="390.45,-45.43 384.83,-36.45 383.62,-46.98 390.45,-45.43"/>
<text text-anchor="middle" x="387.09" y="-246.77" font-family="Times,serif" font-size="14.00">moss*10000</text>
</g>
</g>
</svg>
