<?xml version="1.0" encoding="UTF-8" standalone="no"?>
<!DOCTYPE svg PUBLIC "-//W3C//DTD SVG 1.1//EN"
 "http://www.w3.org/Graphics/SVG/1.1/DTD/svg11.dtd">
<!-- Generated by graphviz version 2.43.0 (0)
 -->
<!-- Title: %3 Pages: 1 -->
<svg width="4694pt" height="4113pt"
 viewBox="0.00 0.00 4693.91 4113.26" xmlns="http://www.w3.org/2000/svg" xmlns:xlink="http://www.w3.org/1999/xlink">
<g id="graph0" class="graph" transform="scale(1 1) rotate(0) translate(4 4109.26)">
<title>%3</title>
<polygon fill="white" stroke="transparent" points="-4,4 -4,-4109.26 4689.91,-4109.26 4689.91,4 -4,4"/>
<!-- 3,16 (More Coke) -->
<g id="node1" class="node">
<title>3,16 (More Coke)</title>
<ellipse fill="none" stroke="black" cx="4329.07" cy="-2052.63" rx="90.98" ry="18"/>
<text text-anchor="middle" x="4329.07" y="-2048.93" font-family="Times,serif" font-size="14.00">3,16 (More Coke)</text>
</g>
<!-- 1,6 (Sodium Hydroxide, These new bullets are fun, Limestone) -->
<g id="node2" class="node">
<title>1,6 (Sodium Hydroxide, These new bullets are fun, Limestone)</title>
<ellipse fill="none" stroke="black" cx="904.73" cy="-3554.69" rx="301.65" ry="18"/>
<text text-anchor="middle" x="904.73" y="-3550.99" font-family="Times,serif" font-size="14.00">1,6 (Sodium Hydroxide, These new bullets are fun, Limestone)</text>
</g>
<!-- 3,16 (More Coke)&#45;&gt;1,6 (Sodium Hydroxide, These new bullets are fun, Limestone) -->
<g id="edge1" class="edge">
<title>3,16 (More Coke)&#45;&gt;1,6 (Sodium Hydroxide, These new bullets are fun, Limestone)</title>
<path fill="none" stroke="black" stroke-width="1.02" d="M4291.49,-2069.12C3947.54,-2219.99 1349.54,-3359.58 954.91,-3532.68"/>
<polygon fill="black" stroke="black" stroke-width="1.02" points="953.21,-3529.6 945.46,-3536.82 956.03,-3536.01 953.21,-3529.6"/>
<text text-anchor="middle" x="2580.7" y="-2804.7" font-family="Times,serif" font-size="14.00">coke*13344</text>
</g>
<!-- 3,10 (Anotherr depot) -->
<g id="node4" class="node">
<title>3,10 (Anotherr depot)</title>
<ellipse fill="none" stroke="black" cx="491.93" cy="-1080.94" rx="111.58" ry="18"/>
<text text-anchor="middle" x="491.93" y="-1077.24" font-family="Times,serif" font-size="14.00">3,10 (Anotherr depot)</text>
</g>
<!-- 3,16 (More Coke)&#45;&gt;3,10 (Anotherr depot) -->
<g id="edge23" class="edge">
<title>3,16 (More Coke)&#45;&gt;3,10 (Anotherr depot)</title>
<path fill="none" stroke="black" stroke-width="0.41" d="M4272.98,-2038.43C3840.61,-1928.94 1042.05,-1220.24 561.97,-1098.67"/>
<polygon fill="black" stroke="black" stroke-width="0.41" points="562.6,-1095.22 552.05,-1096.16 560.89,-1102.01 562.6,-1095.22"/>
<text text-anchor="middle" x="2379.47" y="-1572.35" font-family="Times,serif" font-size="14.00">coke*5312</text>
</g>
<!-- &#45;5,&#45;4 (low priority (slaked)? lime) -->
<g id="node6" class="node">
<title>&#45;5,&#45;4 (low priority (slaked)? lime)</title>
<ellipse fill="none" stroke="black" cx="1467.37" cy="-3922.28" rx="162.47" ry="18"/>
<text text-anchor="middle" x="1467.37" y="-3918.58" font-family="Times,serif" font-size="14.00">&#45;5,&#45;4 (low priority (slaked)? lime)</text>
</g>
<!-- 3,16 (More Coke)&#45;&gt;&#45;5,&#45;4 (low priority (slaked)? lime) -->
<g id="edge16" class="edge">
<title>3,16 (More Coke)&#45;&gt;&#45;5,&#45;4 (low priority (slaked)? lime)</title>
<path fill="none" stroke="black" stroke-width="0.81" d="M4302.57,-2069.95C4034.33,-2245.2 1813.82,-3695.93 1503.36,-3898.76"/>
<polygon fill="black" stroke="black" stroke-width="0.81" points="1501.19,-3896 1494.73,-3904.4 1505.02,-3901.86 1501.19,-3896"/>
<text text-anchor="middle" x="2860.46" y="-2988.16" font-family="Times,serif" font-size="14.00">coke*10640</text>
</g>
<!-- 4,&#45;2 (Ceramic) -->
<g id="node7" class="node">
<title>4,&#45;2 (Ceramic)</title>
<ellipse fill="none" stroke="black" cx="904.73" cy="-550.57" rx="76.89" ry="18"/>
<text text-anchor="middle" x="904.73" y="-546.87" font-family="Times,serif" font-size="14.00">4,&#45;2 (Ceramic)</text>
</g>
<!-- 3,16 (More Coke)&#45;&gt;4,&#45;2 (Ceramic) -->
<g id="edge4" class="edge">
<title>3,16 (More Coke)&#45;&gt;4,&#45;2 (Ceramic)</title>
<path fill="none" stroke="black" stroke-width="0.61" d="M4291.49,-2036.15C3946.18,-1884.68 1328.99,-736.68 950.34,-570.58"/>
<polygon fill="black" stroke="black" stroke-width="0.61" points="951.61,-567.32 941.05,-566.51 948.8,-573.73 951.61,-567.32"/>
<text text-anchor="middle" x="2582.91" y="-1307.16" font-family="Times,serif" font-size="14.00">coke*8016</text>
</g>
<!-- 1,12 (Molten Iron) -->
<g id="node9" class="node">
<title>1,12 (Molten Iron)</title>
<ellipse fill="none" stroke="black" cx="4218.45" cy="-1389.72" rx="95.58" ry="18"/>
<text text-anchor="middle" x="4218.45" y="-1386.02" font-family="Times,serif" font-size="14.00">1,12 (Molten Iron)</text>
</g>
<!-- 3,16 (More Coke)&#45;&gt;1,12 (Molten Iron) -->
<g id="edge6" class="edge">
<title>3,16 (More Coke)&#45;&gt;1,12 (Molten Iron)</title>
<path fill="none" stroke="black" stroke-width="0.41" d="M4326.06,-2034.56C4310.78,-1942.98 4241.9,-1530.21 4223.17,-1417.97"/>
<polygon fill="black" stroke="black" stroke-width="0.41" points="4226.57,-1417.07 4221.47,-1407.78 4219.66,-1418.22 4226.57,-1417.07"/>
<text text-anchor="middle" x="4236.61" y="-1730.06" font-family="Times,serif" font-size="14.00">coke*5376</text>
</g>
<!-- &#45;2,6 (Wrong ratio of Calcium Carbide to Acetalene) -->
<g id="node10" class="node">
<title>&#45;2,6 (Wrong ratio of Calcium Carbide to Acetalene)</title>
<ellipse fill="none" stroke="black" cx="3404.12" cy="-3761.8" rx="245.86" ry="18"/>
<text text-anchor="middle" x="3404.12" y="-3758.1" font-family="Times,serif" font-size="14.00">&#45;2,6 (Wrong ratio of Calcium Carbide to Acetalene)</text>
</g>
<!-- 3,16 (More Coke)&#45;&gt;&#45;2,6 (Wrong ratio of Calcium Carbide to Acetalene) -->
<g id="edge25" class="edge">
<title>3,16 (More Coke)&#45;&gt;&#45;2,6 (Wrong ratio of Calcium Carbide to Acetalene)</title>
<path fill="none" stroke="black" stroke-width="0.82" d="M4319.31,-2070.67C4228.27,-2238.89 3528.73,-3531.53 3418.67,-3734.9"/>
<polygon fill="black" stroke="black" stroke-width="0.82" points="3415.57,-3733.29 3413.88,-3743.75 3421.72,-3736.63 3415.57,-3733.29"/>
<text text-anchor="middle" x="3826.49" y="-2906.59" font-family="Times,serif" font-size="14.00">coke*10768</text>
</g>
<!-- 0,8 (Tar from Coke) -->
<g id="node12" class="node">
<title>0,8 (Tar from Coke)</title>
<ellipse fill="none" stroke="black" cx="3898.58" cy="-798.65" rx="100.98" ry="18"/>
<text text-anchor="middle" x="3898.58" y="-794.95" font-family="Times,serif" font-size="14.00">0,8 (Tar from Coke)</text>
</g>
<!-- 3,16 (More Coke)&#45;&gt;0,8 (Tar from Coke) -->
<g id="edge10" class="edge">
<title>3,16 (More Coke)&#45;&gt;0,8 (Tar from Coke)</title>
<path fill="none" stroke="black" stroke-width="0.82" d="M4322.82,-2034.42C4274.94,-1894.96 3966.68,-997.02 3908.16,-826.56"/>
<polygon fill="black" stroke="black" stroke-width="0.82" points="3911.45,-825.36 3904.89,-817.04 3904.83,-827.64 3911.45,-825.36"/>
<text text-anchor="middle" x="4072.99" y="-1434.29" font-family="Times,serif" font-size="14.00">coke*10720</text>
</g>
<!-- 2,5 (Simple Circuits) -->
<g id="node14" class="node">
<title>2,5 (Simple Circuits)</title>
<ellipse fill="none" stroke="black" cx="3898.58" cy="-3306.61" rx="106.68" ry="18"/>
<text text-anchor="middle" x="3898.58" y="-3302.91" font-family="Times,serif" font-size="14.00">2,5 (Simple Circuits)</text>
</g>
<!-- 3,16 (More Coke)&#45;&gt;2,5 (Simple Circuits) -->
<g id="edge11" class="edge">
<title>3,16 (More Coke)&#45;&gt;2,5 (Simple Circuits)</title>
<path fill="none" stroke="black" stroke-width="1.22" d="M4322.82,-2070.84C4274.94,-2210.3 3966.68,-3108.25 3908.16,-3278.7"/>
<polygon fill="black" stroke="black" stroke-width="1.22" points="3904.83,-3277.63 3904.89,-3288.22 3911.45,-3279.9 3904.83,-3277.63"/>
<text text-anchor="middle" x="4072.99" y="-2678.57" font-family="Times,serif" font-size="14.00">coke*15968</text>
</g>
<!-- &#45;2,9 (molten steel) -->
<g id="node15" class="node">
<title>&#45;2,9 (molten steel)</title>
<ellipse fill="none" stroke="black" cx="4218.45" cy="-2715.54" rx="95.58" ry="18"/>
<text text-anchor="middle" x="4218.45" y="-2711.84" font-family="Times,serif" font-size="14.00">&#45;2,9 (molten steel)</text>
</g>
<!-- 3,16 (More Coke)&#45;&gt;&#45;2,9 (molten steel) -->
<g id="edge19" class="edge">
<title>3,16 (More Coke)&#45;&gt;&#45;2,9 (molten steel)</title>
<path fill="none" stroke="black" stroke-width="1.22" d="M4326.06,-2070.71C4310.78,-2162.28 4241.9,-2575.05 4223.17,-2687.29"/>
<polygon fill="black" stroke="black" stroke-width="1.22" points="4219.66,-2687.04 4221.47,-2697.48 4226.57,-2688.19 4219.66,-2687.04"/>
<text text-anchor="middle" x="4232.11" y="-2382.8" font-family="Times,serif" font-size="14.00">coke*15968</text>
</g>
<!-- 2,10 (Nickel plate) -->
<g id="node16" class="node">
<title>2,10 (Nickel plate)</title>
<ellipse fill="none" stroke="black" cx="3404.12" cy="-343.47" rx="96.68" ry="18"/>
<text text-anchor="middle" x="3404.12" y="-339.77" font-family="Times,serif" font-size="14.00">2,10 (Nickel plate)</text>
</g>
<!-- 3,16 (More Coke)&#45;&gt;2,10 (Nickel plate) -->
<g id="edge31" class="edge">
<title>3,16 (More Coke)&#45;&gt;2,10 (Nickel plate)</title>
<path fill="none" stroke="black" stroke-width="0.4" d="M4319.31,-2034.59C4228.27,-1866.37 3528.73,-573.73 3418.67,-370.36"/>
<polygon fill="black" stroke="black" stroke-width="0.4" points="3421.72,-368.64 3413.88,-361.51 3415.57,-371.97 3421.72,-368.64"/>
<text text-anchor="middle" x="3830.99" y="-1206.28" font-family="Times,serif" font-size="14.00">coke*5280</text>
</g>
<!-- &#45;3,&#45;2 (Depot) -->
<g id="node17" class="node">
<title>&#45;3,&#45;2 (Depot)</title>
<ellipse fill="none" stroke="black" cx="4537.57" cy="-1873.18" rx="68.79" ry="18"/>
<text text-anchor="middle" x="4537.57" y="-1869.48" font-family="Times,serif" font-size="14.00">&#45;3,&#45;2 (Depot)</text>
</g>
<!-- 3,16 (More Coke)&#45;&gt;&#45;3,&#45;2 (Depot) -->
<g id="edge14" class="edge">
<title>3,16 (More Coke)&#45;&gt;&#45;3,&#45;2 (Depot)</title>
<path fill="none" stroke="black" stroke-width="0.21" d="M4349.83,-2034.77C4387.56,-2002.29 4467.43,-1933.55 4509.81,-1897.08"/>
<polygon fill="black" stroke="black" stroke-width="0.21" points="4512.21,-1899.62 4517.51,-1890.45 4507.65,-1894.32 4512.21,-1899.62"/>
<text text-anchor="middle" x="4391.82" y="-1969.72" font-family="Times,serif" font-size="14.00">coke*2688</text>
</g>
<!-- &#45;1,10 (Iron Plates) -->
<g id="node19" class="node">
<title>&#45;1,10 (Iron Plates)</title>
<ellipse fill="none" stroke="black" cx="491.93" cy="-3024.33" rx="94.78" ry="18"/>
<text text-anchor="middle" x="491.93" y="-3020.63" font-family="Times,serif" font-size="14.00">&#45;1,10 (Iron Plates)</text>
</g>
<!-- 3,16 (More Coke)&#45;&gt;&#45;1,10 (Iron Plates) -->
<g id="edge38" class="edge">
<title>3,16 (More Coke)&#45;&gt;&#45;1,10 (Iron Plates)</title>
<path fill="none" stroke="black" stroke-width="0.2" d="M4272.98,-2066.84C3839.57,-2176.59 1028.67,-2888.41 558.57,-3007.45"/>
<polygon fill="black" stroke="black" stroke-width="0.2" points="557.7,-3004.06 548.87,-3009.91 559.42,-3010.85 557.7,-3004.06"/>
<text text-anchor="middle" x="2377.77" y="-2540.95" font-family="Times,serif" font-size="14.00">coke*2656</text>
</g>
<!-- 3,4 (Depot) -->
<g id="node20" class="node">
<title>3,4 (Depot)</title>
<ellipse fill="none" stroke="black" cx="2788.65" cy="-4031.76" rx="63.09" ry="18"/>
<text text-anchor="middle" x="2788.65" y="-4028.06" font-family="Times,serif" font-size="14.00">3,4 (Depot)</text>
</g>
<!-- 3,16 (More Coke)&#45;&gt;3,4 (Depot) -->
<g id="edge47" class="edge">
<title>3,16 (More Coke)&#45;&gt;3,4 (Depot)</title>
<path fill="none" stroke="black" stroke-width="0.2" d="M4315.05,-2070.65C4171.95,-2254.5 2978.63,-3787.69 2808.75,-4005.95"/>
<polygon fill="black" stroke="black" stroke-width="0.2" points="2805.87,-4003.95 2802.49,-4013.99 2811.39,-4008.25 2805.87,-4003.95"/>
<text text-anchor="middle" x="3523.9" y="-3042.1" font-family="Times,serif" font-size="14.00">coke*2656</text>
</g>
<!-- 3,9 (Copper, molten &amp; plate) -->
<g id="node21" class="node">
<title>3,9 (Copper, molten &amp; plate)</title>
<ellipse fill="none" stroke="black" cx="4542.27" cy="-2157.49" rx="143.77" ry="18"/>
<text text-anchor="middle" x="4542.27" y="-2153.79" font-family="Times,serif" font-size="14.00">3,9 (Copper, molten &amp; plate)</text>
</g>
<!-- 3,16 (More Coke)&#45;&gt;3,9 (Copper, molten &amp; plate) -->
<g id="edge30" class="edge">
<title>3,16 (More Coke)&#45;&gt;3,9 (Copper, molten &amp; plate)</title>
<path fill="none" stroke="black" stroke-width="0.61" d="M4363.33,-2069.48C4399.8,-2087.42 4457.67,-2115.88 4497.68,-2135.55"/>
<polygon fill="black" stroke="black" stroke-width="0.61" points="4496.16,-2138.71 4506.68,-2139.98 4499.25,-2132.43 4496.16,-2138.71"/>
<text text-anchor="middle" x="4392.5" y="-2106.32" font-family="Times,serif" font-size="14.00">coke*8000</text>
</g>
<!-- &#45;4,&#45;2 (For Science!) -->
<g id="node22" class="node">
<title>&#45;4,&#45;2 (For Science!)</title>
<ellipse fill="none" stroke="black" cx="2118.87" cy="-18" rx="98.58" ry="18"/>
<text text-anchor="middle" x="2118.87" y="-14.3" font-family="Times,serif" font-size="14.00">&#45;4,&#45;2 (For Science!)</text>
</g>
<!-- 3,16 (More Coke)&#45;&gt;&#45;4,&#45;2 (For Science!) -->
<g id="edge39" class="edge">
<title>3,16 (More Coke)&#45;&gt;&#45;4,&#45;2 (For Science!)</title>
<path fill="none" stroke="black" stroke-width="0.48" d="M4309.63,-2034.73C4106.86,-1848.07 2381.62,-259.88 2145.59,-42.59"/>
<polygon fill="black" stroke="black" stroke-width="0.48" points="2147.85,-39.92 2138.13,-35.72 2143.11,-45.07 2147.85,-39.92"/>
<text text-anchor="middle" x="3189.61" y="-1042.46" font-family="Times,serif" font-size="14.00">coke*6304</text>
</g>
<!-- 2,12 (Yet more coke) -->
<g id="node3" class="node">
<title>2,12 (Yet more coke)</title>
<ellipse fill="none" stroke="black" cx="273.71" cy="-1716.59" rx="106.68" ry="18"/>
<text text-anchor="middle" x="273.71" y="-1712.89" font-family="Times,serif" font-size="14.00">2,12 (Yet more coke)</text>
</g>
<!-- 2,12 (Yet more coke)&#45;&gt;1,6 (Sodium Hydroxide, These new bullets are fun, Limestone) -->
<g id="edge15" class="edge">
<title>2,12 (Yet more coke)&#45;&gt;1,6 (Sodium Hydroxide, These new bullets are fun, Limestone)</title>
<path fill="none" stroke="black" stroke-width="0.97" d="M279.95,-1734.79C340.43,-1910.96 821.4,-3311.97 895.23,-3527.03"/>
<polygon fill="black" stroke="black" stroke-width="0.97" points="891.97,-3528.31 898.53,-3536.63 898.59,-3526.03 891.97,-3528.31"/>
<text text-anchor="middle" x="545.09" y="-2634.71" font-family="Times,serif" font-size="14.00">coke*12736</text>
</g>
<!-- 2,12 (Yet more coke)&#45;&gt;3,10 (Anotherr depot) -->
<g id="edge2" class="edge">
<title>2,12 (Yet more coke)&#45;&gt;3,10 (Anotherr depot)</title>
<path fill="none" stroke="black" stroke-width="0.78" d="M279.89,-1698.59C310.43,-1609.64 445.25,-1216.91 482.42,-1108.65"/>
<polygon fill="black" stroke="black" stroke-width="0.78" points="485.76,-1109.68 485.7,-1099.08 479.14,-1107.4 485.76,-1109.68"/>
<text text-anchor="middle" x="338.65" y="-1407.42" font-family="Times,serif" font-size="14.00">coke*10176</text>
</g>
<!-- 2,12 (Yet more coke)&#45;&gt;&#45;5,&#45;4 (low priority (slaked)? lime) -->
<g id="edge28" class="edge">
<title>2,12 (Yet more coke)&#45;&gt;&#45;5,&#45;4 (low priority (slaked)? lime)</title>
<path fill="none" stroke="black" stroke-width="0.77" d="M283.49,-1734.67C389.52,-1930.6 1324.15,-3657.63 1452.72,-3895.23"/>
<polygon fill="black" stroke="black" stroke-width="0.77" points="1449.76,-3897.11 1457.6,-3904.24 1455.92,-3893.78 1449.76,-3897.11"/>
<text text-anchor="middle" x="825.61" y="-2818.75" font-family="Times,serif" font-size="14.00">coke*10112</text>
</g>
<!-- 4,12 (Molten Glass) -->
<g id="node8" class="node">
<title>4,12 (Molten Glass)</title>
<ellipse fill="none" stroke="black" cx="102.04" cy="-1687.95" rx="102.08" ry="18"/>
<text text-anchor="middle" x="102.04" y="-1684.25" font-family="Times,serif" font-size="14.00">4,12 (Molten Glass)</text>
</g>
<!-- 2,12 (Yet more coke)&#45;&gt;4,12 (Molten Glass) -->
<g id="edge5" class="edge">
<title>2,12 (Yet more coke)&#45;&gt;4,12 (Molten Glass)</title>
<path fill="none" stroke="black" stroke-width="0.2" d="M197.66,-1703.91C193.9,-1703.28 190.11,-1702.64 186.32,-1702.01"/>
<polygon fill="black" stroke="black" stroke-width="0.2" points="186.77,-1698.54 176.33,-1700.35 185.62,-1705.44 186.77,-1698.54"/>
<text text-anchor="middle" x="229.99" y="-1691.76" font-family="Times,serif" font-size="14.00">coke*2560</text>
</g>
<!-- 2,12 (Yet more coke)&#45;&gt;1,12 (Molten Iron) -->
<g id="edge22" class="edge">
<title>2,12 (Yet more coke)&#45;&gt;1,12 (Molten Iron)</title>
<path fill="none" stroke="black" stroke-width="0.39" d="M369.75,-1708.64C910.88,-1663.8 3574.28,-1443.1 4120.46,-1397.84"/>
<polygon fill="black" stroke="black" stroke-width="0.39" points="4120.99,-1401.31 4130.67,-1397 4120.42,-1394.34 4120.99,-1401.31"/>
<text text-anchor="middle" x="2207.11" y="-1557.04" font-family="Times,serif" font-size="14.00">coke*5072</text>
</g>
<!-- 2,12 (Yet more coke)&#45;&gt;&#45;2,6 (Wrong ratio of Calcium Carbide to Acetalene) -->
<g id="edge7" class="edge">
<title>2,12 (Yet more coke)&#45;&gt;&#45;2,6 (Wrong ratio of Calcium Carbide to Acetalene)</title>
<path fill="none" stroke="black" stroke-width="0.59" d="M300.77,-1734.28C586.14,-1920.71 3038.73,-3523.08 3367.69,-3738"/>
<polygon fill="black" stroke="black" stroke-width="0.59" points="3366.09,-3741.13 3376.37,-3743.67 3369.92,-3735.27 3366.09,-3741.13"/>
<text text-anchor="middle" x="1796.23" y="-2739.94" font-family="Times,serif" font-size="14.00">coke*7680</text>
</g>
<!-- 2,12 (Yet more coke)&#45;&gt;0,8 (Tar from Coke) -->
<g id="edge29" class="edge">
<title>2,12 (Yet more coke)&#45;&gt;0,8 (Tar from Coke)</title>
<path fill="none" stroke="black" stroke-width="1.35" d="M332.86,-1701.62C760.37,-1593.36 3373.71,-931.57 3830.49,-815.89"/>
<polygon fill="black" stroke="black" stroke-width="1.35" points="3831.42,-819.27 3840.25,-813.42 3829.7,-812.49 3831.42,-819.27"/>
<text text-anchor="middle" x="2039.17" y="-1262.56" font-family="Times,serif" font-size="14.00">coke*17696</text>
</g>
<!-- 2,&#45;1 (Ammonia) -->
<g id="node13" class="node">
<title>2,&#45;1 (Ammonia)</title>
<ellipse fill="none" stroke="black" cx="273.71" cy="-2388.67" rx="81.49" ry="18"/>
<text text-anchor="middle" x="273.71" y="-2384.97" font-family="Times,serif" font-size="14.00">2,&#45;1 (Ammonia)</text>
</g>
<!-- 2,12 (Yet more coke)&#45;&gt;2,&#45;1 (Ammonia) -->
<g id="edge9" class="edge">
<title>2,12 (Yet more coke)&#45;&gt;2,&#45;1 (Ammonia)</title>
<path fill="none" stroke="black" stroke-width="0.2" d="M273.71,-1734.92C273.71,-1827.76 273.71,-2246.24 273.71,-2360.03"/>
<polygon fill="black" stroke="black" stroke-width="0.2" points="270.21,-2360.36 273.71,-2370.36 277.21,-2360.36 270.21,-2360.36"/>
<text text-anchor="middle" x="235.71" y="-2051.27" font-family="Times,serif" font-size="14.00">coke*2576</text>
</g>
<!-- 2,12 (Yet more coke)&#45;&gt;2,5 (Simple Circuits) -->
<g id="edge18" class="edge">
<title>2,12 (Yet more coke)&#45;&gt;2,5 (Simple Circuits)</title>
<path fill="none" stroke="black" stroke-width="0.82" d="M312.27,-1733.51C672.95,-1891.72 3451.3,-3110.42 3850.8,-3285.65"/>
<polygon fill="black" stroke="black" stroke-width="0.82" points="3849.49,-3288.9 3860.06,-3289.71 3852.3,-3282.49 3849.49,-3288.9"/>
<text text-anchor="middle" x="2039.03" y="-2513.38" font-family="Times,serif" font-size="14.00">coke*10720</text>
</g>
<!-- 2,12 (Yet more coke)&#45;&gt;&#45;2,9 (molten steel) -->
<g id="edge36" class="edge">
<title>2,12 (Yet more coke)&#45;&gt;&#45;2,9 (molten steel)</title>
<path fill="none" stroke="black" stroke-width="0.77" d="M332.92,-1731.59C783.97,-1845.81 3672.36,-2577.25 4151.23,-2698.52"/>
<polygon fill="black" stroke="black" stroke-width="0.77" points="4150.55,-2701.96 4161.11,-2701.02 4152.27,-2695.17 4150.55,-2701.96"/>
<text text-anchor="middle" x="2199.58" y="-2218.85" font-family="Times,serif" font-size="14.00">coke*10112</text>
</g>
<!-- 2,12 (Yet more coke)&#45;&gt;2,10 (Nickel plate) -->
<g id="edge13" class="edge">
<title>2,12 (Yet more coke)&#45;&gt;2,10 (Nickel plate)</title>
<path fill="none" stroke="black" stroke-width="0.58" d="M312.16,-1699.73C642.13,-1554.99 2993.28,-523.68 3356.93,-364.17"/>
<polygon fill="black" stroke="black" stroke-width="0.58" points="3358.38,-367.35 3366.13,-360.13 3355.57,-360.94 3358.38,-367.35"/>
<text text-anchor="middle" x="1796.54" y="-1035.75" font-family="Times,serif" font-size="14.00">coke*7584</text>
</g>
<!-- &#45;6,&#45;4 (High&#45;Power Resistors, Ceramic Capacitor, Inductor) -->
<g id="node18" class="node">
<title>&#45;6,&#45;4 (High&#45;Power Resistors, Ceramic Capacitor, Inductor)</title>
<ellipse fill="none" stroke="black" cx="2788.65" cy="-73.5" rx="278.35" ry="18"/>
<text text-anchor="middle" x="2788.65" y="-69.8" font-family="Times,serif" font-size="14.00">&#45;6,&#45;4 (High&#45;Power Resistors, Ceramic Capacitor, Inductor)</text>
</g>
<!-- 2,12 (Yet more coke)&#45;&gt;&#45;6,&#45;4 (High&#45;Power Resistors, Ceramic Capacitor, Inductor) -->
<g id="edge27" class="edge">
<title>2,12 (Yet more coke)&#45;&gt;&#45;6,&#45;4 (High&#45;Power Resistors, Ceramic Capacitor, Inductor)</title>
<path fill="none" stroke="black" stroke-width="0.8" d="M300.67,-1698.98C550.91,-1535.49 2464.95,-284.98 2752.53,-97.1"/>
<polygon fill="black" stroke="black" stroke-width="0.8" points="2754.48,-100 2760.94,-91.6 2750.66,-94.14 2754.48,-100"/>
<text text-anchor="middle" x="1484.1" y="-901.84" font-family="Times,serif" font-size="14.00">coke*10496</text>
</g>
<!-- 2,12 (Yet more coke)&#45;&gt;&#45;1,10 (Iron Plates) -->
<g id="edge21" class="edge">
<title>2,12 (Yet more coke)&#45;&gt;&#45;1,10 (Iron Plates)</title>
<path fill="none" stroke="black" stroke-width="0.58" d="M276.79,-1735.08C300.82,-1879.06 457.85,-2820.08 487.21,-2996.02"/>
<polygon fill="black" stroke="black" stroke-width="0.58" points="483.78,-2996.76 488.88,-3006.05 490.69,-2995.61 483.78,-2996.76"/>
<text text-anchor="middle" x="344" y="-2354.35" font-family="Times,serif" font-size="14.00">coke*7632</text>
</g>
<!-- &#45;6,1 (Coke and Coal Dust from Biomass (needs Iron plates)) -->
<g id="node5" class="node">
<title>&#45;6,1 (Coke and Coal Dust from Biomass (needs Iron plates))</title>
<ellipse fill="none" stroke="black" cx="2118.87" cy="-4087.26" rx="285.95" ry="18"/>
<text text-anchor="middle" x="2118.87" y="-4083.56" font-family="Times,serif" font-size="14.00">&#45;6,1 (Coke and Coal Dust from Biomass (needs Iron plates))</text>
</g>
<!-- &#45;6,1 (Coke and Coal Dust from Biomass (needs Iron plates))&#45;&gt;1,6 (Sodium Hydroxide, These new bullets are fun, Limestone) -->
<g id="edge40" class="edge">
<title>&#45;6,1 (Coke and Coal Dust from Biomass (needs Iron plates))&#45;&gt;1,6 (Sodium Hydroxide, These new bullets are fun, Limestone)</title>
<path fill="none" stroke="black" stroke-width="0.31" d="M2078.13,-4069.39C1895.85,-3989.44 1155.36,-3664.63 954.95,-3576.72"/>
<polygon fill="black" stroke="black" stroke-width="0.31" points="956.11,-3573.4 945.54,-3572.59 953.29,-3579.82 956.11,-3573.4"/>
<text text-anchor="middle" x="1478.54" y="-3826.86" font-family="Times,serif" font-size="14.00">coke*4000</text>
</g>
<!-- &#45;6,1 (Coke and Coal Dust from Biomass (needs Iron plates))&#45;&gt;&#45;5,&#45;4 (low priority (slaked)? lime) -->
<g id="edge3" class="edge">
<title>&#45;6,1 (Coke and Coal Dust from Biomass (needs Iron plates))&#45;&gt;&#45;5,&#45;4 (low priority (slaked)? lime)</title>
<path fill="none" stroke="black" stroke-width="2.29" d="M2049.77,-4069.76C1926.69,-4038.6 1670.5,-3973.72 1542.93,-3941.41"/>
<polygon fill="black" stroke="black" stroke-width="2.29" points="1543.41,-3937.93 1532.85,-3938.86 1541.69,-3944.71 1543.41,-3937.93"/>
<text text-anchor="middle" x="1753.85" y="-4009.39" font-family="Times,serif" font-size="14.00">coke*30000</text>
</g>
<!-- &#45;6,1 (Coke and Coal Dust from Biomass (needs Iron plates))&#45;&gt;&#45;2,6 (Wrong ratio of Calcium Carbide to Acetalene) -->
<g id="edge35" class="edge">
<title>&#45;6,1 (Coke and Coal Dust from Biomass (needs Iron plates))&#45;&gt;&#45;2,6 (Wrong ratio of Calcium Carbide to Acetalene)</title>
<path fill="none" stroke="black" stroke-width="3.05" d="M2187.97,-4069.77C2408.23,-4013.99 3092.9,-3840.61 3325.71,-3781.65"/>
<polygon fill="black" stroke="black" stroke-width="3.05" points="3326.63,-3785.03 3335.46,-3779.18 3324.91,-3778.24 3326.63,-3785.03"/>
<text text-anchor="middle" x="2714.34" y="-3929.51" font-family="Times,serif" font-size="14.00">coke*40000</text>
</g>
<!-- &#45;6,1 (Coke and Coal Dust from Biomass (needs Iron plates))&#45;&gt;2,5 (Simple Circuits) -->
<g id="edge37" class="edge">
<title>&#45;6,1 (Coke and Coal Dust from Biomass (needs Iron plates))&#45;&gt;2,5 (Simple Circuits)</title>
<path fill="none" stroke="black" stroke-width="0.38" d="M2159.82,-4069.3C2397.24,-3965.16 3595.45,-3439.58 3850.71,-3327.61"/>
<polygon fill="black" stroke="black" stroke-width="0.38" points="3852.33,-3330.72 3860.09,-3323.5 3849.52,-3324.31 3852.33,-3330.72"/>
<text text-anchor="middle" x="2967.26" y="-3702.26" font-family="Times,serif" font-size="14.00">coke*5008</text>
</g>
<!-- &#45;6,1 (Coke and Coal Dust from Biomass (needs Iron plates))&#45;&gt;&#45;2,9 (molten steel) -->
<g id="edge12" class="edge">
<title>&#45;6,1 (Coke and Coal Dust from Biomass (needs Iron plates))&#45;&gt;&#45;2,9 (molten steel)</title>
<path fill="none" stroke="black" stroke-width="1.53" d="M2146.58,-4069.17C2373.86,-3920.68 3929.29,-2904.46 4183.39,-2738.45"/>
<polygon fill="black" stroke="black" stroke-width="1.53" points="4185.42,-2741.31 4191.87,-2732.91 4181.59,-2735.45 4185.42,-2741.31"/>
<text text-anchor="middle" x="3122.48" y="-3407.61" font-family="Times,serif" font-size="14.00">coke*20000</text>
</g>
<!-- &#45;6,1 (Coke and Coal Dust from Biomass (needs Iron plates))&#45;&gt;3,4 (Depot) -->
<g id="edge26" class="edge">
<title>&#45;6,1 (Coke and Coal Dust from Biomass (needs Iron plates))&#45;&gt;3,4 (Depot)</title>
<path fill="none" stroke="black" stroke-width="1.91" d="M2292.23,-4072.9C2430.69,-4061.43 2617.6,-4045.94 2717.95,-4037.62"/>
<polygon fill="black" stroke="black" stroke-width="1.91" points="2718.3,-4041.11 2727.98,-4036.79 2717.72,-4034.13 2718.3,-4041.11"/>
<text text-anchor="middle" x="2462.59" y="-4059.06" font-family="Times,serif" font-size="14.00">coke*25008</text>
</g>
<!-- 2,8 (Graphite) -->
<g id="node11" class="node">
<title>2,8 (Graphite)</title>
<ellipse fill="none" stroke="black" cx="1467.37" cy="-182.98" rx="76.09" ry="18"/>
<text text-anchor="middle" x="1467.37" y="-179.28" font-family="Times,serif" font-size="14.00">2,8 (Graphite)</text>
</g>
<!-- 2,8 (Graphite)&#45;&gt;1,6 (Sodium Hydroxide, These new bullets are fun, Limestone) -->
<g id="edge33" class="edge">
<title>2,8 (Graphite)&#45;&gt;1,6 (Sodium Hydroxide, These new bullets are fun, Limestone)</title>
<path fill="none" stroke="black" stroke-width="0.31" d="M1464.34,-201.13C1422.54,-451.62 961.08,-3217 909.42,-3526.56"/>
<polygon fill="black" stroke="black" stroke-width="0.31" points="905.95,-3526.09 907.76,-3536.53 912.86,-3527.24 905.95,-3526.09"/>
<text text-anchor="middle" x="1148.88" y="-1867.64" font-family="Times,serif" font-size="14.00">coke*4000</text>
</g>
<!-- 2,8 (Graphite)&#45;&gt;&#45;5,&#45;4 (low priority (slaked)? lime) -->
<g id="edge24" class="edge">
<title>2,8 (Graphite)&#45;&gt;&#45;5,&#45;4 (low priority (slaked)? lime)</title>
<path fill="none" stroke="black" stroke-width="0.76" d="M1467.37,-201.34C1467.37,-468.42 1467.37,-3565.1 1467.37,-3894.04"/>
<polygon fill="black" stroke="black" stroke-width="0.76" points="1463.87,-3894.17 1467.37,-3904.17 1470.87,-3894.17 1463.87,-3894.17"/>
<text text-anchor="middle" x="1424.87" y="-2051.49" font-family="Times,serif" font-size="14.00">coke*10000</text>
</g>
<!-- 2,8 (Graphite)&#45;&gt;4,&#45;2 (Ceramic) -->
<g id="edge34" class="edge">
<title>2,8 (Graphite)&#45;&gt;4,&#45;2 (Ceramic)</title>
<path fill="none" stroke="black" stroke-width="0.24" d="M1441.36,-199.98C1349.9,-259.73 1043.05,-460.2 939.32,-527.97"/>
<polygon fill="black" stroke="black" stroke-width="0.24" points="937.24,-525.15 930.78,-533.55 941.07,-531.01 937.24,-525.15"/>
<text text-anchor="middle" x="1152.34" y="-367.77" font-family="Times,serif" font-size="14.00">coke*3120</text>
</g>
<!-- 2,8 (Graphite)&#45;&gt;1,12 (Molten Iron) -->
<g id="edge32" class="edge">
<title>2,8 (Graphite)&#45;&gt;1,12 (Molten Iron)</title>
<path fill="none" stroke="black" stroke-width="0.24" d="M1503.66,-198.91C1800.96,-329.31 3832.6,-1220.47 4170.78,-1368.81"/>
<polygon fill="black" stroke="black" stroke-width="0.24" points="4169.73,-1372.17 4180.29,-1372.98 4172.54,-1365.76 4169.73,-1372.17"/>
<text text-anchor="middle" x="2799.22" y="-787.66" font-family="Times,serif" font-size="14.00">coke*3120</text>
</g>
<!-- 2,8 (Graphite)&#45;&gt;&#45;2,6 (Wrong ratio of Calcium Carbide to Acetalene) -->
<g id="edge42" class="edge">
<title>2,8 (Graphite)&#45;&gt;&#45;2,6 (Wrong ratio of Calcium Carbide to Acetalene)</title>
<path fill="none" stroke="black" stroke-width="1.53" d="M1477.1,-200.97C1616.93,-459.35 3219.2,-3420.09 3389.49,-3734.76"/>
<polygon fill="black" stroke="black" stroke-width="1.53" points="3386.48,-3736.56 3394.32,-3743.68 3392.64,-3733.22 3386.48,-3736.56"/>
<text text-anchor="middle" x="2390.79" y="-1971.66" font-family="Times,serif" font-size="14.00">coke*20024</text>
</g>
<!-- 2,8 (Graphite)&#45;&gt;0,8 (Tar from Coke) -->
<g id="edge8" class="edge">
<title>2,8 (Graphite)&#45;&gt;0,8 (Tar from Coke)</title>
<path fill="none" stroke="black" stroke-width="10.39" d="M1519.55,-196.2C1833.98,-275.82 3474.48,-691.25 3830.41,-781.39"/>
<polygon fill="black" stroke="black" stroke-width="10.39" points="3828.39,-790.25 3840.31,-783.9 3832.85,-772.63 3828.39,-790.25"/>
<text text-anchor="middle" x="2627.98" y="-492.59" font-family="Times,serif" font-size="14.00">coke*136153</text>
</g>
<!-- 2,8 (Graphite)&#45;&gt;2,&#45;1 (Ammonia) -->
<g id="edge20" class="edge">
<title>2,8 (Graphite)&#45;&gt;2,&#45;1 (Ammonia)</title>
<path fill="none" stroke="black" stroke-width="0.91" d="M1457.58,-201.06C1351.55,-396.99 416.93,-2124.02 288.35,-2361.62"/>
<polygon fill="black" stroke="black" stroke-width="0.91" points="285.15,-2360.17 283.47,-2370.63 291.31,-2363.5 285.15,-2360.17"/>
<text text-anchor="middle" x="830.46" y="-1285.14" font-family="Times,serif" font-size="14.00">coke*11920</text>
</g>
<!-- 2,8 (Graphite)&#45;&gt;2,5 (Simple Circuits) -->
<g id="edge43" class="edge">
<title>2,8 (Graphite)&#45;&gt;2,5 (Simple Circuits)</title>
<path fill="none" stroke="black" stroke-width="0.38" d="M1481.34,-200.94C1667.54,-440.17 3655.59,-2994.42 3878.32,-3280.59"/>
<polygon fill="black" stroke="black" stroke-width="0.38" points="3875.77,-3283 3884.67,-3288.74 3881.29,-3278.7 3875.77,-3283"/>
<text text-anchor="middle" x="2641.83" y="-1744.56" font-family="Times,serif" font-size="14.00">coke*5040</text>
</g>
<!-- 2,8 (Graphite)&#45;&gt;&#45;2,9 (molten steel) -->
<g id="edge46" class="edge">
<title>2,8 (Graphite)&#45;&gt;&#45;2,9 (molten steel)</title>
<path fill="none" stroke="black" stroke-width="0.76" d="M1486.4,-200.51C1714.64,-410.61 3923.07,-2443.62 4191.73,-2690.94"/>
<polygon fill="black" stroke="black" stroke-width="0.76" points="4189.38,-2693.53 4199.11,-2697.73 4194.12,-2688.38 4189.38,-2693.53"/>
<text text-anchor="middle" x="2796.57" y="-1449.52" font-family="Times,serif" font-size="14.00">coke*10011</text>
</g>
<!-- 2,8 (Graphite)&#45;&gt;2,10 (Nickel plate) -->
<g id="edge41" class="edge">
<title>2,8 (Graphite)&#45;&gt;2,10 (Nickel plate)</title>
<path fill="none" stroke="black" stroke-width="2.77" d="M1539.17,-188.93C1835.51,-213.49 2963.82,-306.98 3305.49,-335.3"/>
<polygon fill="black" stroke="black" stroke-width="2.77" points="3305.36,-338.8 3315.62,-336.13 3305.94,-331.82 3305.36,-338.8"/>
<text text-anchor="middle" x="2379.83" y="-265.92" font-family="Times,serif" font-size="14.00">coke*36370</text>
</g>
<!-- 2,8 (Graphite)&#45;&gt;&#45;6,&#45;4 (High&#45;Power Resistors, Ceramic Capacitor, Inductor) -->
<g id="edge17" class="edge">
<title>2,8 (Graphite)&#45;&gt;&#45;6,&#45;4 (High&#45;Power Resistors, Ceramic Capacitor, Inductor)</title>
<path fill="none" stroke="black" stroke-width="0.48" d="M1539.34,-177.02C1740.25,-160.37 2311.69,-113.02 2607.01,-88.55"/>
<polygon fill="black" stroke="black" stroke-width="0.48" points="2607.72,-92 2617.39,-87.69 2607.14,-85.03 2607.72,-92"/>
<text text-anchor="middle" x="2035.17" y="-136.59" font-family="Times,serif" font-size="14.00">coke*6240</text>
</g>
<!-- 2,8 (Graphite)&#45;&gt;&#45;4,&#45;2 (For Science!) -->
<g id="edge44" class="edge">
<title>2,8 (Graphite)&#45;&gt;&#45;4,&#45;2 (For Science!)</title>
<path fill="none" stroke="black" stroke-width="0.17" d="M1519.31,-169.83C1636.24,-140.22 1920.13,-68.33 2050.88,-35.22"/>
<polygon fill="black" stroke="black" stroke-width="0.17" points="2051.95,-38.56 2060.78,-32.71 2050.23,-31.77 2051.95,-38.56"/>
<text text-anchor="middle" x="1747.09" y="-106.32" font-family="Times,serif" font-size="14.00">coke*2240</text>
</g>
<!-- &#45;2,&#45;3 (Trains) -->
<g id="node23" class="node">
<title>&#45;2,&#45;3 (Trains)</title>
<ellipse fill="none" stroke="black" cx="4010.79" cy="-3393.95" rx="70.39" ry="18"/>
<text text-anchor="middle" x="4010.79" y="-3390.25" font-family="Times,serif" font-size="14.00">&#45;2,&#45;3 (Trains)</text>
</g>
<!-- &#45;2,&#45;3 (Trains)&#45;&gt;2,5 (Simple Circuits) -->
<g id="edge45" class="edge">
<title>&#45;2,&#45;3 (Trains)&#45;&gt;2,5 (Simple Circuits)</title>
<path fill="none" stroke="black" stroke-width="0.38" d="M3988.62,-3376.69C3971.71,-3363.53 3948.21,-3345.24 3929.45,-3330.64"/>
<polygon fill="black" stroke="black" stroke-width="0.38" points="3931.52,-3327.81 3921.48,-3324.43 3927.22,-3333.33 3931.52,-3327.81"/>
<text text-anchor="middle" x="3921.04" y="-3357.47" font-family="Times,serif" font-size="14.00">coke*5040</text>
</g>
</g>
</svg>
