<?xml version="1.0" encoding="UTF-8" standalone="no"?>
<!DOCTYPE svg PUBLIC "-//W3C//DTD SVG 1.1//EN"
 "http://www.w3.org/Graphics/SVG/1.1/DTD/svg11.dtd">
<!-- Generated by graphviz version 2.43.0 (0)
 -->
<!-- Title: %3 Pages: 1 -->
<svg width="1750pt" height="1511pt"
 viewBox="0.00 0.00 1750.47 1510.62" xmlns="http://www.w3.org/2000/svg" xmlns:xlink="http://www.w3.org/1999/xlink">
<g id="graph0" class="graph" transform="scale(1 1) rotate(0) translate(4 1506.62)">
<title>%3</title>
<polygon fill="white" stroke="transparent" points="-4,4 -4,-1506.62 1746.47,-1506.62 1746.47,4 -4,4"/>
<!-- 1,5 (Limestone) -->
<g id="node1" class="node">
<title>1,5 (Limestone)</title>
<ellipse fill="none" stroke="black" cx="1392.33" cy="-163.24" rx="83.39" ry="18"/>
<text text-anchor="middle" x="1392.33" y="-159.54" font-family="Times,serif" font-size="14.00">1,5 (Limestone)</text>
</g>
<!-- 0,0 (LE BUS) -->
<g id="node2" class="node">
<title>0,0 (LE BUS)</title>
<ellipse fill="none" stroke="black" cx="755.99" cy="-18" rx="71.49" ry="18"/>
<text text-anchor="middle" x="755.99" y="-14.3" font-family="Times,serif" font-size="14.00">0,0 (LE BUS)</text>
</g>
<!-- 1,5 (Limestone)&#45;&gt;0,0 (LE BUS) -->
<g id="edge1" class="edge">
<title>1,5 (Limestone)&#45;&gt;0,0 (LE BUS)</title>
<path fill="none" stroke="black" stroke-width="3.13" d="M1335.02,-150.16C1216.01,-123 942.91,-60.66 819.08,-32.4"/>
<polygon fill="black" stroke="black" stroke-width="3.13" points="819.53,-28.91 809,-30.1 817.97,-35.74 819.53,-28.91"/>
<text text-anchor="middle" x="1011.55" y="-95.08" font-family="Times,serif" font-size="14.00">limestone*238624</text>
</g>
<!-- 2,14 (Latex) -->
<g id="node3" class="node">
<title>2,14 (Latex)</title>
<ellipse fill="none" stroke="black" cx="1675.53" cy="-751.31" rx="66.89" ry="18"/>
<text text-anchor="middle" x="1675.53" y="-747.61" font-family="Times,serif" font-size="14.00">2,14 (Latex)</text>
</g>
<!-- 1,5 (Limestone)&#45;&gt;2,14 (Latex) -->
<g id="edge2" class="edge">
<title>1,5 (Limestone)&#45;&gt;2,14 (Latex)</title>
<path fill="none" stroke="black" stroke-width="3.35" d="M1400.96,-181.16C1441.55,-265.45 1613.54,-622.58 1662.48,-724.22"/>
<polygon fill="black" stroke="black" stroke-width="3.35" points="1659.34,-725.75 1666.83,-733.24 1665.64,-722.71 1659.34,-725.75"/>
<text text-anchor="middle" x="1466.22" y="-456.49" font-family="Times,serif" font-size="14.00">limestone*255888</text>
</g>
<!-- &#45;2,6 (Wrong ratio of Calcium Carbide to Acetalene) -->
<g id="node5" class="node">
<title>&#45;2,6 (Wrong ratio of Calcium Carbide to Acetalene)</title>
<ellipse fill="none" stroke="black" cx="245.68" cy="-424.96" rx="245.86" ry="18"/>
<text text-anchor="middle" x="245.68" y="-421.26" font-family="Times,serif" font-size="14.00">&#45;2,6 (Wrong ratio of Calcium Carbide to Acetalene)</text>
</g>
<!-- 1,5 (Limestone)&#45;&gt;&#45;2,6 (Wrong ratio of Calcium Carbide to Acetalene) -->
<g id="edge4" class="edge">
<title>1,5 (Limestone)&#45;&gt;&#45;2,6 (Wrong ratio of Calcium Carbide to Acetalene)</title>
<path fill="none" stroke="black" stroke-width="1.45" d="M1335.08,-176.31C1147.91,-219.03 553.45,-354.71 330.89,-405.51"/>
<polygon fill="black" stroke="black" stroke-width="1.45" points="329.86,-402.15 320.89,-407.79 331.42,-408.98 329.86,-402.15"/>
<text text-anchor="middle" x="767.48" y="-294.71" font-family="Times,serif" font-size="14.00">limestone*110736</text>
</g>
<!-- &#45;5,&#45;4 (low priority (slaked)? lime) -->
<g id="node6" class="node">
<title>&#45;5,&#45;4 (low priority (slaked)? lime)</title>
<ellipse fill="none" stroke="black" cx="245.68" cy="-1077.67" rx="162.47" ry="18"/>
<text text-anchor="middle" x="245.68" y="-1073.97" font-family="Times,serif" font-size="14.00">&#45;5,&#45;4 (low priority (slaked)? lime)</text>
</g>
<!-- 1,5 (Limestone)&#45;&gt;&#45;5,&#45;4 (low priority (slaked)? lime) -->
<g id="edge6" class="edge">
<title>1,5 (Limestone)&#45;&gt;&#45;5,&#45;4 (low priority (slaked)? lime)</title>
<path fill="none" stroke="black" stroke-width="0.36" d="M1370.45,-180.69C1228.71,-293.72 441.3,-921.67 276.09,-1053.42"/>
<polygon fill="black" stroke="black" stroke-width="0.36" points="273.9,-1050.69 268.26,-1059.66 278.26,-1056.16 273.9,-1050.69"/>
<text text-anchor="middle" x="762.27" y="-620.85" font-family="Times,serif" font-size="14.00">limestone*27488</text>
</g>
<!-- 4,12 (Molten Glass) -->
<g id="node7" class="node">
<title>4,12 (Molten Glass)</title>
<ellipse fill="none" stroke="black" cx="755.99" cy="-1484.62" rx="102.08" ry="18"/>
<text text-anchor="middle" x="755.99" y="-1480.92" font-family="Times,serif" font-size="14.00">4,12 (Molten Glass)</text>
</g>
<!-- 1,5 (Limestone)&#45;&gt;4,12 (Molten Glass) -->
<g id="edge8" class="edge">
<title>1,5 (Limestone)&#45;&gt;4,12 (Molten Glass)</title>
<path fill="none" stroke="black" stroke-width="0.05" d="M1383.58,-181.42C1314.13,-325.62 852.77,-1283.65 769.02,-1457.57"/>
<polygon fill="black" stroke="black" stroke-width="0.05" points="765.86,-1456.05 764.68,-1466.58 772.17,-1459.09 765.86,-1456.05"/>
<text text-anchor="middle" x="1019.8" y="-823.29" font-family="Times,serif" font-size="14.00">limestone*4080</text>
</g>
<!-- 1,6 (Sodium Hydroxide, These new bullets are fun, Limestone) -->
<g id="node4" class="node">
<title>1,6 (Sodium Hydroxide, These new bullets are fun, Limestone)</title>
<ellipse fill="none" stroke="black" cx="1392.33" cy="-1339.38" rx="301.65" ry="18"/>
<text text-anchor="middle" x="1392.33" y="-1335.68" font-family="Times,serif" font-size="14.00">1,6 (Sodium Hydroxide, These new bullets are fun, Limestone)</text>
</g>
<!-- 1,6 (Sodium Hydroxide, These new bullets are fun, Limestone)&#45;&gt;0,0 (LE BUS) -->
<g id="edge7" class="edge">
<title>1,6 (Sodium Hydroxide, These new bullets are fun, Limestone)&#45;&gt;0,0 (LE BUS)</title>
<path fill="none" stroke="black" stroke-width="0.42" d="M1383.58,-1321.21C1314.13,-1177 852.77,-218.97 769.02,-45.05"/>
<polygon fill="black" stroke="black" stroke-width="0.42" points="772.17,-43.53 764.68,-36.04 765.86,-46.57 772.17,-43.53"/>
<text text-anchor="middle" x="1015.3" y="-686.93" font-family="Times,serif" font-size="14.00">limestone*31843</text>
</g>
<!-- 1,6 (Sodium Hydroxide, These new bullets are fun, Limestone)&#45;&gt;2,14 (Latex) -->
<g id="edge3" class="edge">
<title>1,6 (Sodium Hydroxide, These new bullets are fun, Limestone)&#45;&gt;2,14 (Latex)</title>
<path fill="none" stroke="black" stroke-width="0.81" d="M1401.12,-1321.14C1441.96,-1236.33 1613.32,-880.5 1662.36,-778.65"/>
<polygon fill="black" stroke="black" stroke-width="0.81" points="1665.66,-779.87 1666.85,-769.34 1659.35,-776.83 1665.66,-779.87"/>
<text text-anchor="middle" x="1470.74" y="-1053.7" font-family="Times,serif" font-size="14.00">limestone*62103</text>
</g>
<!-- 1,6 (Sodium Hydroxide, These new bullets are fun, Limestone)&#45;&gt;&#45;2,6 (Wrong ratio of Calcium Carbide to Acetalene) -->
<g id="edge9" class="edge">
<title>1,6 (Sodium Hydroxide, These new bullets are fun, Limestone)&#45;&gt;&#45;2,6 (Wrong ratio of Calcium Carbide to Acetalene)</title>
<path fill="none" stroke="black" stroke-width="0.34" d="M1369.68,-1321.32C1226.02,-1206.75 442.26,-581.73 276.49,-449.53"/>
<polygon fill="black" stroke="black" stroke-width="0.34" points="278.19,-446.41 268.19,-442.91 273.83,-451.88 278.19,-446.41"/>
<text text-anchor="middle" x="762.09" y="-889.22" font-family="Times,serif" font-size="14.00">limestone*25980</text>
</g>
<!-- 1,6 (Sodium Hydroxide, These new bullets are fun, Limestone)&#45;&gt;&#45;5,&#45;4 (low priority (slaked)? lime) -->
<g id="edge5" class="edge">
<title>1,6 (Sodium Hydroxide, These new bullets are fun, Limestone)&#45;&gt;&#45;5,&#45;4 (low priority (slaked)? lime)</title>
<path fill="none" stroke="black" stroke-width="0.06" d="M1315.76,-1321.91C1108.68,-1274.64 538.92,-1144.6 326.72,-1096.16"/>
<polygon fill="black" stroke="black" stroke-width="0.06" points="327.42,-1092.73 316.89,-1093.92 325.86,-1099.56 327.42,-1092.73"/>
<text text-anchor="middle" x="764.74" y="-1212.83" font-family="Times,serif" font-size="14.00">limestone*4528</text>
</g>
<!-- 1,6 (Sodium Hydroxide, These new bullets are fun, Limestone)&#45;&gt;4,12 (Molten Glass) -->
<g id="edge10" class="edge">
<title>1,6 (Sodium Hydroxide, These new bullets are fun, Limestone)&#45;&gt;4,12 (Molten Glass)</title>
<path fill="none" stroke="black" stroke-width="0.03" d="M1315.89,-1356.83C1192.23,-1385.05 949.94,-1440.35 828.71,-1468.03"/>
<polygon fill="black" stroke="black" stroke-width="0.03" points="827.75,-1464.65 818.78,-1470.29 829.31,-1471.48 827.75,-1464.65"/>
<text text-anchor="middle" x="1015.8" y="-1416.23" font-family="Times,serif" font-size="14.00">limestone*2016</text>
</g>
</g>
</svg>
