<?xml version="1.0" encoding="UTF-8" standalone="no"?>
<!DOCTYPE svg PUBLIC "-//W3C//DTD SVG 1.1//EN"
 "http://www.w3.org/Graphics/SVG/1.1/DTD/svg11.dtd">
<!-- Generated by graphviz version 2.43.0 (0)
 -->
<!-- Title: %3 Pages: 1 -->
<svg width="1025pt" height="664pt"
 viewBox="0.00 0.00 1024.51 664.04" xmlns="http://www.w3.org/2000/svg" xmlns:xlink="http://www.w3.org/1999/xlink">
<g id="graph0" class="graph" transform="scale(1 1) rotate(0) translate(4 660.04)">
<title>%3</title>
<polygon fill="white" stroke="transparent" points="-4,4 -4,-660.04 1020.51,-660.04 1020.51,4 -4,4"/>
<!-- 4,2 (More fiberboard) -->
<g id="node1" class="node">
<title>4,2 (More fiberboard)</title>
<ellipse fill="none" stroke="black" cx="611.02" cy="-638.04" rx="111.28" ry="18"/>
<text text-anchor="middle" x="611.02" y="-634.34" font-family="Times,serif" font-size="14.00">4,2 (More fiberboard)</text>
</g>
<!-- 5,&#45;2 (Lubricant) -->
<g id="node2" class="node">
<title>5,&#45;2 (Lubricant)</title>
<ellipse fill="none" stroke="black" cx="790.01" cy="-328.02" rx="83.39" ry="18"/>
<text text-anchor="middle" x="790.01" y="-324.32" font-family="Times,serif" font-size="14.00">5,&#45;2 (Lubricant)</text>
</g>
<!-- 4,2 (More fiberboard)&#45;&gt;5,&#45;2 (Lubricant) -->
<g id="edge1" class="edge">
<title>4,2 (More fiberboard)&#45;&gt;5,&#45;2 (Lubricant)</title>
<path fill="none" stroke="black" stroke-width="2.33" d="M621.42,-620.03C651.51,-567.91 738.8,-416.72 774.51,-354.87"/>
<polygon fill="black" stroke="black" stroke-width="2.33" points="777.62,-356.49 779.59,-346.08 771.56,-352.99 777.62,-356.49"/>
<text text-anchor="middle" x="612.97" y="-491.25" font-family="Times,serif" font-size="14.00">creosote&#45;barrel*113880</text>
</g>
<!-- 0,0 (LE BUS) -->
<g id="node3" class="node">
<title>0,0 (LE BUS)</title>
<ellipse fill="none" stroke="black" cx="74.06" cy="-328.02" rx="71.49" ry="18"/>
<text text-anchor="middle" x="74.06" y="-324.32" font-family="Times,serif" font-size="14.00">0,0 (LE BUS)</text>
</g>
<!-- 4,2 (More fiberboard)&#45;&gt;0,0 (LE BUS) -->
<g id="edge3" class="edge">
<title>4,2 (More fiberboard)&#45;&gt;0,0 (LE BUS)</title>
<path fill="none" stroke="black" stroke-width="2.62" d="M581,-620.7C489.24,-567.73 212.6,-408.01 111.54,-349.66"/>
<polygon fill="black" stroke="black" stroke-width="2.62" points="113.29,-346.63 102.88,-344.66 109.79,-352.69 113.29,-346.63"/>
<text text-anchor="middle" x="261.27" y="-488.98" font-family="Times,serif" font-size="14.00">creosote&#45;barrel*128222</text>
</g>
<!-- 4,&#45;1 (Fluid) -->
<g id="node5" class="node">
<title>4,&#45;1 (Fluid)</title>
<ellipse fill="none" stroke="black" cx="253.05" cy="-638.04" rx="61.99" ry="18"/>
<text text-anchor="middle" x="253.05" y="-634.34" font-family="Times,serif" font-size="14.00">4,&#45;1 (Fluid)</text>
</g>
<!-- 4,2 (More fiberboard)&#45;&gt;4,&#45;1 (Fluid) -->
<g id="edge7" class="edge">
<title>4,2 (More fiberboard)&#45;&gt;4,&#45;1 (Fluid)</title>
<path fill="none" stroke="black" stroke-width="0.79" d="M499.72,-638.04C442.79,-638.04 375.14,-638.04 325.1,-638.04"/>
<polygon fill="black" stroke="black" stroke-width="0.79" points="325.02,-634.54 315.02,-638.04 325.02,-641.54 325.02,-634.54"/>
<text text-anchor="middle" x="412.41" y="-626.84" font-family="Times,serif" font-size="14.00">creosote&#45;barrel*38720</text>
</g>
<!-- 5,8 (Ulric Food, Sandcastings) -->
<g id="node6" class="node">
<title>5,8 (Ulric Food, Sandcastings)</title>
<ellipse fill="none" stroke="black" cx="611.02" cy="-18" rx="151.37" ry="18"/>
<text text-anchor="middle" x="611.02" y="-14.3" font-family="Times,serif" font-size="14.00">5,8 (Ulric Food, Sandcastings)</text>
</g>
<!-- 4,2 (More fiberboard)&#45;&gt;5,8 (Ulric Food, Sandcastings) -->
<g id="edge6" class="edge">
<title>4,2 (More fiberboard)&#45;&gt;5,8 (Ulric Food, Sandcastings)</title>
<path fill="none" stroke="black" stroke-width="0.33" d="M611.02,-619.81C611.02,-532.11 611.02,-153.3 611.02,-46.27"/>
<polygon fill="black" stroke="black" stroke-width="0.33" points="614.52,-46.22 611.02,-36.22 607.52,-46.22 614.52,-46.22"/>
<text text-anchor="middle" x="530.52" y="-336.84" font-family="Times,serif" font-size="14.00">creosote&#45;barrel*16400</text>
</g>
<!-- 4,12 (Molten Glass) -->
<g id="node7" class="node">
<title>4,12 (Molten Glass)</title>
<ellipse fill="none" stroke="black" cx="253.05" cy="-18" rx="102.08" ry="18"/>
<text text-anchor="middle" x="253.05" y="-14.3" font-family="Times,serif" font-size="14.00">4,12 (Molten Glass)</text>
</g>
<!-- 4,2 (More fiberboard)&#45;&gt;4,12 (Molten Glass) -->
<g id="edge9" class="edge">
<title>4,2 (More fiberboard)&#45;&gt;4,12 (Molten Glass)</title>
<path fill="none" stroke="black" stroke-width="0.36" d="M600.5,-619.81C549.61,-531.66 328.91,-149.39 268.42,-44.63"/>
<polygon fill="black" stroke="black" stroke-width="0.36" points="271.43,-42.83 263.39,-35.92 265.36,-46.33 271.43,-42.83"/>
<text text-anchor="middle" x="353.96" y="-336.02" font-family="Times,serif" font-size="14.00">creosote&#45;barrel*17600</text>
</g>
<!-- 8,2 (Tar) -->
<g id="node4" class="node">
<title>8,2 (Tar)</title>
<ellipse fill="none" stroke="black" cx="912.06" cy="-328.02" rx="50.09" ry="18"/>
<text text-anchor="middle" x="912.06" y="-324.32" font-family="Times,serif" font-size="14.00">8,2 (Tar)</text>
</g>
<!-- 5,&#45;2 (Lubricant)&#45;&gt;8,2 (Tar) -->
<g id="edge4" class="edge">
<title>5,&#45;2 (Lubricant)&#45;&gt;8,2 (Tar)</title>
<path fill="none" stroke="black" stroke-width="0.01" d="M873.44,-328.02C873.48,-328.02 873.53,-328.02 873.57,-328.02"/>
<polygon fill="black" stroke="black" stroke-width="0.01" points="863.7,-331.53 873.69,-328.02 863.69,-324.53 863.7,-331.53"/>
<text text-anchor="middle" x="945.01" y="-331.82" font-family="Times,serif" font-size="14.00">creosote&#45;barrel*400</text>
</g>
<!-- 0,0 (LE BUS)&#45;&gt;5,&#45;2 (Lubricant) -->
<g id="edge2" class="edge">
<title>0,0 (LE BUS)&#45;&gt;5,&#45;2 (Lubricant)</title>
<path fill="none" stroke="black" stroke-width="2.28" d="M145.65,-328.02C275.95,-328.02 551.72,-328.02 696.61,-328.02"/>
<polygon fill="black" stroke="black" stroke-width="2.28" points="696.81,-331.52 706.81,-328.02 696.81,-324.52 696.81,-331.52"/>
<text text-anchor="middle" x="336.13" y="-316.82" font-family="Times,serif" font-size="14.00">creosote&#45;barrel*111608</text>
</g>
<!-- 0,0 (LE BUS)&#45;&gt;4,&#45;1 (Fluid) -->
<g id="edge5" class="edge">
<title>0,0 (LE BUS)&#45;&gt;4,&#45;1 (Fluid)</title>
<path fill="none" stroke="black" stroke-width="0.63" d="M84.46,-346.03C114.55,-398.14 201.84,-549.33 237.54,-611.18"/>
<polygon fill="black" stroke="black" stroke-width="0.63" points="234.59,-613.07 242.62,-619.98 240.65,-609.57 234.59,-613.07"/>
<text text-anchor="middle" x="80.5" y="-482.4" font-family="Times,serif" font-size="14.00">creosote&#45;barrel*30640</text>
</g>
<!-- 0,0 (LE BUS)&#45;&gt;5,8 (Ulric Food, Sandcastings) -->
<g id="edge10" class="edge">
<title>0,0 (LE BUS)&#45;&gt;5,8 (Ulric Food, Sandcastings)</title>
<path fill="none" stroke="black" stroke-width="0.36" d="M102.93,-311.35C192.9,-259.4 468.37,-100.36 571.5,-40.82"/>
<polygon fill="black" stroke="black" stroke-width="0.36" points="573.44,-43.74 580.35,-35.71 569.94,-37.68 573.44,-43.74"/>
<text text-anchor="middle" x="256.71" y="-179.89" font-family="Times,serif" font-size="14.00">creosote&#45;barrel*17728</text>
</g>
<!-- 0,0 (LE BUS)&#45;&gt;4,12 (Molten Glass) -->
<g id="edge8" class="edge">
<title>0,0 (LE BUS)&#45;&gt;4,12 (Molten Glass)</title>
<path fill="none" stroke="black" stroke-width="0.29" d="M84.46,-310.01C114.55,-257.89 201.84,-106.7 237.54,-44.85"/>
<polygon fill="black" stroke="black" stroke-width="0.29" points="240.65,-46.47 242.62,-36.06 234.59,-42.97 240.65,-46.47"/>
<text text-anchor="middle" x="80.5" y="-181.23" font-family="Times,serif" font-size="14.00">creosote&#45;barrel*14440</text>
</g>
</g>
</svg>
