<?xml version="1.0" encoding="UTF-8" standalone="no"?>
<!DOCTYPE svg PUBLIC "-//W3C//DTD SVG 1.1//EN"
 "http://www.w3.org/Graphics/SVG/1.1/DTD/svg11.dtd">
<!-- Generated by graphviz version 2.43.0 (0)
 -->
<!-- Title: %3 Pages: 1 -->
<svg width="1371pt" height="1076pt"
 viewBox="0.00 0.00 1370.68 1075.62" xmlns="http://www.w3.org/2000/svg" xmlns:xlink="http://www.w3.org/1999/xlink">
<g id="graph0" class="graph" transform="scale(1 1) rotate(0) translate(4 1071.62)">
<title>%3</title>
<polygon fill="white" stroke="transparent" points="-4,4 -4,-1071.62 1366.68,-1071.62 1366.68,4 -4,4"/>
<!-- &#45;7,&#45;8 (Tin mk2) -->
<g id="node1" class="node">
<title>&#45;7,&#45;8 (Tin mk2)</title>
<ellipse fill="none" stroke="black" cx="711.41" cy="-535.25" rx="78.79" ry="18"/>
<text text-anchor="middle" x="711.41" y="-531.55" font-family="Times,serif" font-size="14.00">&#45;7,&#45;8 (Tin mk2)</text>
</g>
<!-- 0,0 (LE BUS) -->
<g id="node2" class="node">
<title>0,0 (LE BUS)</title>
<ellipse fill="none" stroke="black" cx="1243.12" cy="-535.25" rx="71.49" ry="18"/>
<text text-anchor="middle" x="1243.12" y="-531.55" font-family="Times,serif" font-size="14.00">0,0 (LE BUS)</text>
</g>
<!-- &#45;7,&#45;8 (Tin mk2)&#45;&gt;0,0 (LE BUS) -->
<g id="edge1" class="edge">
<title>&#45;7,&#45;8 (Tin mk2)&#45;&gt;0,0 (LE BUS)</title>
<path fill="none" stroke="black" stroke-width="1.85" d="M790.15,-535.25C889.65,-535.25 1060.07,-535.25 1161.1,-535.25"/>
<polygon fill="black" stroke="black" stroke-width="1.85" points="1161.26,-538.75 1171.26,-535.25 1161.26,-531.75 1161.26,-538.75"/>
<text text-anchor="middle" x="919.62" y="-539.05" font-family="Times,serif" font-size="14.00">tin&#45;plate*66240</text>
</g>
<!-- &#45;6,&#45;4 (High&#45;Power Resistors, Ceramic Capacitor, Inductor) -->
<g id="node3" class="node">
<title>&#45;6,&#45;4 (High&#45;Power Resistors, Ceramic Capacitor, Inductor)</title>
<ellipse fill="none" stroke="black" cx="1084.5" cy="-914.09" rx="278.35" ry="18"/>
<text text-anchor="middle" x="1084.5" y="-910.39" font-family="Times,serif" font-size="14.00">&#45;6,&#45;4 (High&#45;Power Resistors, Ceramic Capacitor, Inductor)</text>
</g>
<!-- &#45;7,&#45;8 (Tin mk2)&#45;&gt;&#45;6,&#45;4 (High&#45;Power Resistors, Ceramic Capacitor, Inductor) -->
<g id="edge2" class="edge">
<title>&#45;7,&#45;8 (Tin mk2)&#45;&gt;&#45;6,&#45;4 (High&#45;Power Resistors, Ceramic Capacitor, Inductor)</title>
<path fill="none" stroke="black" stroke-width="1.42" d="M728.9,-553.01C789.23,-614.27 988.74,-816.84 1059.41,-888.61"/>
<polygon fill="black" stroke="black" stroke-width="1.42" points="1057.1,-891.25 1066.61,-895.92 1062.09,-886.34 1057.1,-891.25"/>
<text text-anchor="middle" x="838.16" y="-724.61" font-family="Times,serif" font-size="14.00">tin&#45;plate*50800</text>
</g>
<!-- 4,6 (Circuit substrate and Doped silicon) -->
<g id="node4" class="node">
<title>4,6 (Circuit substrate and Doped silicon)</title>
<ellipse fill="none" stroke="black" cx="576.73" cy="-1049.62" rx="199.56" ry="18"/>
<text text-anchor="middle" x="576.73" y="-1045.92" font-family="Times,serif" font-size="14.00">4,6 (Circuit substrate and Doped silicon)</text>
</g>
<!-- &#45;7,&#45;8 (Tin mk2)&#45;&gt;4,6 (Circuit substrate and Doped silicon) -->
<g id="edge3" class="edge">
<title>&#45;7,&#45;8 (Tin mk2)&#45;&gt;4,6 (Circuit substrate and Doped silicon)</title>
<path fill="none" stroke="black" stroke-width="0.3" d="M706.69,-553.25C686.66,-629.78 608.46,-928.42 584.05,-1021.65"/>
<polygon fill="black" stroke="black" stroke-width="0.3" points="580.62,-1020.93 581.48,-1031.49 587.39,-1022.71 580.62,-1020.93"/>
<text text-anchor="middle" x="589.37" y="-791.25" font-family="Times,serif" font-size="14.00">tin&#45;plate*10880</text>
</g>
<!-- 1,3 (item=korlex&#45;food&#45;01 Korlex food) -->
<g id="node5" class="node">
<title>1,3 (item=korlex&#45;food&#45;01 Korlex food)</title>
<ellipse fill="none" stroke="black" cx="233.66" cy="-768.65" rx="185.77" ry="18"/>
<text text-anchor="middle" x="233.66" y="-764.95" font-family="Times,serif" font-size="14.00">1,3 (item=korlex&#45;food&#45;01 Korlex food)</text>
</g>
<!-- &#45;7,&#45;8 (Tin mk2)&#45;&gt;1,3 (item=korlex&#45;food&#45;01 Korlex food) -->
<g id="edge4" class="edge">
<title>&#45;7,&#45;8 (Tin mk2)&#45;&gt;1,3 (item=korlex&#45;food&#45;01 Korlex food)</title>
<path fill="none" stroke="black" stroke-width="0.1" d="M677.81,-551.66C593.75,-592.73 374.21,-699.98 278.91,-746.55"/>
<polygon fill="black" stroke="black" stroke-width="0.1" points="277.26,-743.46 269.81,-750.99 280.33,-749.75 277.26,-743.46"/>
<text text-anchor="middle" x="426.86" y="-652.9" font-family="Times,serif" font-size="14.00">tin&#45;plate*3680</text>
</g>
<!-- 3,3 (Random electronic components, Small Parts) -->
<g id="node6" class="node">
<title>3,3 (Random electronic components, Small Parts)</title>
<ellipse fill="none" stroke="black" cx="240.48" cy="-288.38" rx="240.46" ry="18"/>
<text text-anchor="middle" x="240.48" y="-284.68" font-family="Times,serif" font-size="14.00">3,3 (Random electronic components, Small Parts)</text>
</g>
<!-- &#45;7,&#45;8 (Tin mk2)&#45;&gt;3,3 (Random electronic components, Small Parts) -->
<g id="edge5" class="edge">
<title>&#45;7,&#45;8 (Tin mk2)&#45;&gt;3,3 (Random electronic components, Small Parts)</title>
<path fill="none" stroke="black" stroke-width="0.84" d="M679.78,-518.66C597.55,-475.56 376.98,-359.93 283.4,-310.88"/>
<polygon fill="black" stroke="black" stroke-width="0.84" points="284.96,-307.75 274.48,-306.2 281.71,-313.95 284.96,-307.75"/>
<text text-anchor="middle" x="425.59" y="-418.57" font-family="Times,serif" font-size="14.00">tin&#45;plate*30000</text>
</g>
<!-- 6,4 (Electronic components) -->
<g id="node7" class="node">
<title>6,4 (Electronic components)</title>
<ellipse fill="none" stroke="black" cx="588.22" cy="-18" rx="141.88" ry="18"/>
<text text-anchor="middle" x="588.22" y="-14.3" font-family="Times,serif" font-size="14.00">6,4 (Electronic components)</text>
</g>
<!-- &#45;7,&#45;8 (Tin mk2)&#45;&gt;6,4 (Electronic components) -->
<g id="edge6" class="edge">
<title>&#45;7,&#45;8 (Tin mk2)&#45;&gt;6,4 (Electronic components)</title>
<path fill="none" stroke="black" stroke-width="2.44" d="M707.1,-517.14C688.77,-440.18 617.25,-139.88 594.92,-46.12"/>
<polygon fill="black" stroke="black" stroke-width="2.44" points="598.28,-45.14 592.56,-36.23 591.47,-46.77 598.28,-45.14"/>
<text text-anchor="middle" x="595.01" y="-285.43" font-family="Times,serif" font-size="14.00">tin&#45;plate*87440</text>
</g>
<!-- 5,8 (Ulric Food, Sandcastings) -->
<g id="node8" class="node">
<title>5,8 (Ulric Food, Sandcastings)</title>
<ellipse fill="none" stroke="black" cx="944.07" cy="-57.13" rx="151.37" ry="18"/>
<text text-anchor="middle" x="944.07" y="-53.43" font-family="Times,serif" font-size="14.00">5,8 (Ulric Food, Sandcastings)</text>
</g>
<!-- &#45;7,&#45;8 (Tin mk2)&#45;&gt;5,8 (Ulric Food, Sandcastings) -->
<g id="edge7" class="edge">
<title>&#45;7,&#45;8 (Tin mk2)&#45;&gt;5,8 (Ulric Food, Sandcastings)</title>
<path fill="none" stroke="black" stroke-width="0.53" d="M720.25,-517.09C755.77,-444.09 888.28,-171.78 930.82,-84.34"/>
<polygon fill="black" stroke="black" stroke-width="0.53" points="933.99,-85.83 935.22,-75.31 927.7,-82.77 933.99,-85.83"/>
<text text-anchor="middle" x="769.53" y="-304.52" font-family="Times,serif" font-size="14.00">tin&#45;plate*19040</text>
</g>
<!-- &#45;4,8 (Moar Ulric Food) -->
<g id="node9" class="node">
<title>&#45;4,8 (Moar Ulric Food)</title>
<ellipse fill="none" stroke="black" cx="1182.1" cy="-287.93" rx="113.98" ry="18"/>
<text text-anchor="middle" x="1182.1" y="-284.23" font-family="Times,serif" font-size="14.00">&#45;4,8 (Moar Ulric Food)</text>
</g>
<!-- &#45;7,&#45;8 (Tin mk2)&#45;&gt;&#45;4,8 (Moar Ulric Food) -->
<g id="edge8" class="edge">
<title>&#45;7,&#45;8 (Tin mk2)&#45;&gt;&#45;4,8 (Moar Ulric Food)</title>
<path fill="none" stroke="black" stroke-width="0.53" d="M743.02,-518.63C825.43,-475.34 1046.83,-359 1139.94,-310.08"/>
<polygon fill="black" stroke="black" stroke-width="0.53" points="1141.84,-313.04 1149.07,-305.29 1138.59,-306.84 1141.84,-313.04"/>
<text text-anchor="middle" x="885.48" y="-418.16" font-family="Times,serif" font-size="14.00">tin&#45;plate*19040</text>
</g>
</g>
</svg>
