<?xml version="1.0" encoding="UTF-8" standalone="no"?>
<!DOCTYPE svg PUBLIC "-//W3C//DTD SVG 1.1//EN"
 "http://www.w3.org/Graphics/SVG/1.1/DTD/svg11.dtd">
<!-- Generated by graphviz version 2.43.0 (0)
 -->
<!-- Title: %3 Pages: 1 -->
<svg width="773pt" height="44pt"
 viewBox="0.00 0.00 773.34 44.00" xmlns="http://www.w3.org/2000/svg" xmlns:xlink="http://www.w3.org/1999/xlink">
<g id="graph0" class="graph" transform="scale(1 1) rotate(0) translate(4 40)">
<title>%3</title>
<polygon fill="white" stroke="transparent" points="-4,4 -4,-40 769.34,-40 769.34,4 -4,4"/>
<!-- 3,12 () -->
<g id="node1" class="node">
<title>3,12 ()</title>
<ellipse fill="none" stroke="black" cx="365.12" cy="-18" rx="40.89" ry="18"/>
<text text-anchor="middle" x="365.12" y="-14.3" font-family="Times,serif" font-size="14.00">3,12 ()</text>
</g>
<!-- 3,9 (Copper, molten &amp; plate) -->
<g id="node2" class="node">
<title>3,9 (Copper, molten &amp; plate)</title>
<ellipse fill="none" stroke="black" cx="621.71" cy="-18" rx="143.77" ry="18"/>
<text text-anchor="middle" x="621.71" y="-14.3" font-family="Times,serif" font-size="14.00">3,9 (Copper, molten &amp; plate)</text>
</g>
<!-- 3,12 ()&#45;&gt;3,9 (Copper, molten &amp; plate) -->
<g id="edge1" class="edge">
<title>3,12 ()&#45;&gt;3,9 (Copper, molten &amp; plate)</title>
<path fill="none" stroke="black" stroke-width="1.96" d="M406.35,-18C423.75,-18 445.19,-18 467.74,-18"/>
<polygon fill="black" stroke="black" stroke-width="1.96" points="467.81,-21.5 477.81,-18 467.81,-14.5 467.81,-21.5"/>
<text text-anchor="middle" x="437.04" y="-6.8" font-family="Times,serif" font-size="14.00">copper&#45;ore*237720</text>
</g>
<!-- 4,11 (Cobalt Extract) -->
<g id="node3" class="node">
<title>4,11 (Cobalt Extract)</title>
<ellipse fill="none" stroke="black" cx="108.54" cy="-18" rx="108.58" ry="18"/>
<text text-anchor="middle" x="108.54" y="-14.3" font-family="Times,serif" font-size="14.00">4,11 (Cobalt Extract)</text>
</g>
<!-- 3,12 ()&#45;&gt;4,11 (Cobalt Extract) -->
<g id="edge2" class="edge">
<title>3,12 ()&#45;&gt;4,11 (Cobalt Extract)</title>
<path fill="none" stroke="black" stroke-width="0.04" d="M323.9,-18C297.6,-18 262.05,-18 227.42,-18"/>
<polygon fill="black" stroke="black" stroke-width="0.04" points="227.2,-14.5 217.2,-18 227.2,-21.5 227.2,-14.5"/>
<text text-anchor="middle" x="275.66" y="-6.8" font-family="Times,serif" font-size="14.00">copper&#45;ore*5160</text>
</g>
</g>
</svg>
