<?xml version="1.0" encoding="UTF-8" standalone="no"?>
<!DOCTYPE svg PUBLIC "-//W3C//DTD SVG 1.1//EN"
 "http://www.w3.org/Graphics/SVG/1.1/DTD/svg11.dtd">
<!-- Generated by graphviz version 2.43.0 (0)
 -->
<!-- Title: %3 Pages: 1 -->
<svg width="2524pt" height="2212pt"
 viewBox="0.00 0.00 2524.33 2211.62" xmlns="http://www.w3.org/2000/svg" xmlns:xlink="http://www.w3.org/1999/xlink">
<g id="graph0" class="graph" transform="scale(1 1) rotate(0) translate(4 2207.62)">
<title>%3</title>
<polygon fill="white" stroke="transparent" points="-4,4 -4,-2207.62 2520.33,-2207.62 2520.33,4 -4,4"/>
<!-- &#45;2,7 (item=borax Borax) -->
<g id="node1" class="node">
<title>&#45;2,7 (item=borax Borax)</title>
<ellipse fill="none" stroke="black" cx="1615.01" cy="-230.11" rx="123.48" ry="18"/>
<text text-anchor="middle" x="1615.01" y="-226.41" font-family="Times,serif" font-size="14.00">&#45;2,7 (item=borax Borax)</text>
</g>
<!-- 4,3 (item=nexelit&#45;plate Nexelit platery) -->
<g id="node2" class="node">
<title>4,3 (item=nexelit&#45;plate Nexelit platery)</title>
<ellipse fill="none" stroke="black" cx="1040.82" cy="-147.56" rx="194.17" ry="18"/>
<text text-anchor="middle" x="1040.82" y="-143.86" font-family="Times,serif" font-size="14.00">4,3 (item=nexelit&#45;plate Nexelit platery)</text>
</g>
<!-- &#45;2,7 (item=borax Borax)&#45;&gt;4,3 (item=nexelit&#45;plate Nexelit platery) -->
<g id="edge1" class="edge">
<title>&#45;2,7 (item=borax Borax)&#45;&gt;4,3 (item=nexelit&#45;plate Nexelit platery)</title>
<path fill="none" stroke="black" stroke-width="0.16" d="M1526.87,-217.44C1427.49,-203.15 1265.53,-179.87 1156.16,-164.14"/>
<polygon fill="black" stroke="black" stroke-width="0.16" points="1156.47,-160.65 1146.08,-162.69 1155.48,-167.58 1156.47,-160.65"/>
<text text-anchor="middle" x="1299.52" y="-194.59" font-family="Times,serif" font-size="14.00">borax*2040</text>
</g>
<!-- 3,9 (Copper, molten &amp; plate) -->
<g id="node3" class="node">
<title>3,9 (Copper, molten &amp; plate)</title>
<ellipse fill="none" stroke="black" cx="2053.42" cy="-609.99" rx="143.77" ry="18"/>
<text text-anchor="middle" x="2053.42" y="-606.29" font-family="Times,serif" font-size="14.00">3,9 (Copper, molten &amp; plate)</text>
</g>
<!-- &#45;2,7 (item=borax Borax)&#45;&gt;3,9 (Copper, molten &amp; plate) -->
<g id="edge2" class="edge">
<title>&#45;2,7 (item=borax Borax)&#45;&gt;3,9 (Copper, molten &amp; plate)</title>
<path fill="none" stroke="black" stroke-width="4.7" d="M1635.57,-247.93C1706.75,-309.61 1942.85,-514.19 2024.97,-585.34"/>
<polygon fill="black" stroke="black" stroke-width="4.7" points="2022.4,-588.56 2032.65,-592 2027.79,-582.34 2022.4,-588.56"/>
<text text-anchor="middle" x="1783.77" y="-420.44" font-family="Times,serif" font-size="14.00">borax*59040</text>
</g>
<!-- 1,12 (Molten Iron) -->
<g id="node5" class="node">
<title>1,12 (Molten Iron)</title>
<ellipse fill="none" stroke="black" cx="513.15" cy="-388.54" rx="95.58" ry="18"/>
<text text-anchor="middle" x="513.15" y="-384.84" font-family="Times,serif" font-size="14.00">1,12 (Molten Iron)</text>
</g>
<!-- &#45;2,7 (item=borax Borax)&#45;&gt;1,12 (Molten Iron) -->
<g id="edge7" class="edge">
<title>&#45;2,7 (item=borax Borax)&#45;&gt;1,12 (Molten Iron)</title>
<path fill="none" stroke="black" stroke-width="2.88" d="M1526.71,-242.81C1319.55,-272.59 804.42,-346.66 599.36,-376.14"/>
<polygon fill="black" stroke="black" stroke-width="2.88" points="598.64,-372.71 589.24,-377.6 599.64,-379.64 598.64,-372.71"/>
<text text-anchor="middle" x="1016.53" y="-313.28" font-family="Times,serif" font-size="14.00">borax*36160</text>
</g>
<!-- 2,&#45;2 (Tin Plate, Organic Solvent) -->
<g id="node6" class="node">
<title>2,&#45;2 (Tin Plate, Organic Solvent)</title>
<ellipse fill="none" stroke="black" cx="199.53" cy="-876.54" rx="159.77" ry="18"/>
<text text-anchor="middle" x="199.53" y="-872.84" font-family="Times,serif" font-size="14.00">2,&#45;2 (Tin Plate, Organic Solvent)</text>
</g>
<!-- &#45;2,7 (item=borax Borax)&#45;&gt;2,&#45;2 (Tin Plate, Organic Solvent) -->
<g id="edge5" class="edge">
<title>&#45;2,7 (item=borax Borax)&#45;&gt;2,&#45;2 (Tin Plate, Organic Solvent)</title>
<path fill="none" stroke="black" stroke-width="0.98" d="M1577.15,-247.4C1379.5,-337.67 466.82,-754.48 247.17,-854.78"/>
<polygon fill="black" stroke="black" stroke-width="0.98" points="245.48,-851.71 237.84,-859.05 248.39,-858.08 245.48,-851.71"/>
<text text-anchor="middle" x="865.66" y="-554.89" font-family="Times,serif" font-size="14.00">borax*12360</text>
</g>
<!-- 4,6 (Circuit substrate and Doped silicon) -->
<g id="node7" class="node">
<title>4,6 (Circuit substrate and Doped silicon)</title>
<ellipse fill="none" stroke="black" cx="199.53" cy="-1456.63" rx="199.56" ry="18"/>
<text text-anchor="middle" x="199.53" y="-1452.93" font-family="Times,serif" font-size="14.00">4,6 (Circuit substrate and Doped silicon)</text>
</g>
<!-- &#45;2,7 (item=borax Borax)&#45;&gt;4,6 (Circuit substrate and Doped silicon) -->
<g id="edge6" class="edge">
<title>&#45;2,7 (item=borax Borax)&#45;&gt;4,6 (Circuit substrate and Doped silicon)</title>
<path fill="none" stroke="black" stroke-width="0.37" d="M1594.46,-247.92C1436.17,-385.08 412.31,-1272.26 227.95,-1432.01"/>
<polygon fill="black" stroke="black" stroke-width="0.37" points="225.56,-1429.45 220.29,-1438.65 230.14,-1434.74 225.56,-1429.45"/>
<text text-anchor="middle" x="869.2" y="-843.77" font-family="Times,serif" font-size="14.00">borax*4600</text>
</g>
<!-- &#45;1,10 (Iron Plates) -->
<g id="node8" class="node">
<title>&#45;1,10 (Iron Plates)</title>
<ellipse fill="none" stroke="black" cx="513.15" cy="-1944.64" rx="94.78" ry="18"/>
<text text-anchor="middle" x="513.15" y="-1940.94" font-family="Times,serif" font-size="14.00">&#45;1,10 (Iron Plates)</text>
</g>
<!-- &#45;2,7 (item=borax Borax)&#45;&gt;&#45;1,10 (Iron Plates) -->
<g id="edge13" class="edge">
<title>&#45;2,7 (item=borax Borax)&#45;&gt;&#45;1,10 (Iron Plates)</title>
<path fill="none" stroke="black" stroke-width="4.14" d="M1603.38,-248.21C1494.88,-417.04 660.77,-1714.94 530.3,-1917.96"/>
<polygon fill="black" stroke="black" stroke-width="4.14" points="527.15,-1916.17 524.78,-1926.54 533.24,-1920.09 527.15,-1916.17"/>
<text text-anchor="middle" x="1020.34" y="-1086.89" font-family="Times,serif" font-size="14.00">borax*51920</text>
</g>
<!-- &#45;1,11 (Steel Plate (from molten)) -->
<g id="node9" class="node">
<title>&#45;1,11 (Steel Plate (from molten))</title>
<ellipse fill="none" stroke="black" cx="1711.88" cy="-18" rx="161.37" ry="18"/>
<text text-anchor="middle" x="1711.88" y="-14.3" font-family="Times,serif" font-size="14.00">&#45;1,11 (Steel Plate (from molten))</text>
</g>
<!-- &#45;2,7 (item=borax Borax)&#45;&gt;&#45;1,11 (Steel Plate (from molten)) -->
<g id="edge9" class="edge">
<title>&#45;2,7 (item=borax Borax)&#45;&gt;&#45;1,11 (Steel Plate (from molten))</title>
<path fill="none" stroke="black" stroke-width="1.61" d="M1623.27,-212.03C1640.29,-174.77 1679.33,-89.28 1699.43,-45.27"/>
<polygon fill="black" stroke="black" stroke-width="1.61" points="1702.67,-46.59 1703.64,-36.04 1696.31,-43.68 1702.67,-46.59"/>
<text text-anchor="middle" x="1614.85" y="-132.45" font-family="Times,serif" font-size="14.00">borax*20240</text>
</g>
<!-- &#45;2,9 (molten steel) -->
<g id="node10" class="node">
<title>&#45;2,9 (molten steel)</title>
<ellipse fill="none" stroke="black" cx="1040.82" cy="-2185.62" rx="95.58" ry="18"/>
<text text-anchor="middle" x="1040.82" y="-2181.92" font-family="Times,serif" font-size="14.00">&#45;2,9 (molten steel)</text>
</g>
<!-- &#45;2,7 (item=borax Borax)&#45;&gt;&#45;2,9 (molten steel) -->
<g id="edge11" class="edge">
<title>&#45;2,7 (item=borax Borax)&#45;&gt;&#45;2,9 (molten steel)</title>
<path fill="none" stroke="black" stroke-width="1.17" d="M1609.69,-248.22C1556.14,-430.63 1114.68,-1934.09 1048.99,-2157.82"/>
<polygon fill="black" stroke="black" stroke-width="1.17" points="1045.6,-2156.92 1046.15,-2167.5 1052.32,-2158.89 1045.6,-2156.92"/>
<text text-anchor="middle" x="1282.84" y="-1206.82" font-family="Times,serif" font-size="14.00">borax*14720</text>
</g>
<!-- 2,10 (Nickel plate) -->
<g id="node11" class="node">
<title>2,10 (Nickel plate)</title>
<ellipse fill="none" stroke="black" cx="1615.01" cy="-2103.06" rx="96.68" ry="18"/>
<text text-anchor="middle" x="1615.01" y="-2099.36" font-family="Times,serif" font-size="14.00">2,10 (Nickel plate)</text>
</g>
<!-- &#45;2,7 (item=borax Borax)&#45;&gt;2,10 (Nickel plate) -->
<g id="edge14" class="edge">
<title>&#45;2,7 (item=borax Borax)&#45;&gt;2,10 (Nickel plate)</title>
<path fill="none" stroke="black" stroke-width="0.33" d="M1615.01,-248.35C1615.01,-426.56 1615.01,-1855.56 1615.01,-2074.86"/>
<polygon fill="black" stroke="black" stroke-width="0.33" points="1611.51,-2074.92 1615.01,-2084.92 1618.51,-2074.92 1611.51,-2074.92"/>
<text text-anchor="middle" x="1573.01" y="-1165.41" font-family="Times,serif" font-size="14.00">borax*4080</text>
</g>
<!-- &#45;4,&#45;4 (Reserved For Aluminium Ore Drop, Aluminium) -->
<g id="node13" class="node">
<title>&#45;4,&#45;4 (Reserved For Aluminium Ore Drop, Aluminium)</title>
<ellipse fill="none" stroke="black" cx="2053.42" cy="-1723.18" rx="258.05" ry="18"/>
<text text-anchor="middle" x="2053.42" y="-1719.48" font-family="Times,serif" font-size="14.00">&#45;4,&#45;4 (Reserved For Aluminium Ore Drop, Aluminium)</text>
</g>
<!-- &#45;2,7 (item=borax Borax)&#45;&gt;&#45;4,&#45;4 (Reserved For Aluminium Ore Drop, Aluminium) -->
<g id="edge18" class="edge">
<title>&#45;2,7 (item=borax Borax)&#45;&gt;&#45;4,&#45;4 (Reserved For Aluminium Ore Drop, Aluminium)</title>
<path fill="none" stroke="black" stroke-width="0.52" d="M1620.32,-248.19C1665.79,-403.06 1989.53,-1505.59 2045.26,-1695.39"/>
<polygon fill="black" stroke="black" stroke-width="0.52" points="2041.95,-1696.56 2048.13,-1705.17 2048.67,-1694.59 2041.95,-1696.56"/>
<text text-anchor="middle" x="1790.79" y="-975.59" font-family="Times,serif" font-size="14.00">borax*6480</text>
</g>
<!-- &#45;3,&#45;1 (item=boron&#45;trioxide Boron products 2) -->
<g id="node4" class="node">
<title>&#45;3,&#45;1 (item=boron&#45;trioxide Boron products 2)</title>
<ellipse fill="none" stroke="black" cx="2216.85" cy="-1166.59" rx="219.06" ry="18"/>
<text text-anchor="middle" x="2216.85" y="-1162.89" font-family="Times,serif" font-size="14.00">&#45;3,&#45;1 (item=boron&#45;trioxide Boron products 2)</text>
</g>
<!-- &#45;3,&#45;1 (item=boron&#45;trioxide Boron products 2)&#45;&gt;4,3 (item=nexelit&#45;plate Nexelit platery) -->
<g id="edge10" class="edge">
<title>&#45;3,&#45;1 (item=boron&#45;trioxide Boron products 2)&#45;&gt;4,3 (item=nexelit&#45;plate Nexelit platery)</title>
<path fill="none" stroke="black" stroke-width="0.09" d="M2195.94,-1148.47C2054.11,-1025.57 1233.93,-314.88 1069.52,-172.42"/>
<polygon fill="black" stroke="black" stroke-width="0.09" points="1071.6,-169.6 1061.76,-165.69 1067.02,-174.89 1071.6,-169.6"/>
<text text-anchor="middle" x="1590.73" y="-664.24" font-family="Times,serif" font-size="14.00">borax*1072</text>
</g>
<!-- &#45;3,&#45;1 (item=boron&#45;trioxide Boron products 2)&#45;&gt;3,9 (Copper, molten &amp; plate) -->
<g id="edge3" class="edge">
<title>&#45;3,&#45;1 (item=boron&#45;trioxide Boron products 2)&#45;&gt;3,9 (Copper, molten &amp; plate)</title>
<path fill="none" stroke="black" stroke-width="0.63" d="M2211.5,-1148.39C2187.62,-1067.04 2090.56,-736.49 2061.61,-637.89"/>
<polygon fill="black" stroke="black" stroke-width="0.63" points="2064.9,-636.67 2058.72,-628.06 2058.18,-638.64 2064.9,-636.67"/>
<text text-anchor="middle" x="2094.56" y="-896.94" font-family="Times,serif" font-size="14.00">borax*7872</text>
</g>
<!-- &#45;3,&#45;1 (item=boron&#45;trioxide Boron products 2)&#45;&gt;1,12 (Molten Iron) -->
<g id="edge4" class="edge">
<title>&#45;3,&#45;1 (item=boron&#45;trioxide Boron products 2)&#45;&gt;1,12 (Molten Iron)</title>
<path fill="none" stroke="black" stroke-width="0.98" d="M2177.65,-1148.69C1950.37,-1044.89 803.23,-521.01 558.95,-409.45"/>
<polygon fill="black" stroke="black" stroke-width="0.98" points="560.19,-406.17 549.64,-405.2 557.29,-412.54 560.19,-406.17"/>
<text text-anchor="middle" x="1321.8" y="-782.87" font-family="Times,serif" font-size="14.00">borax*12256</text>
</g>
<!-- &#45;3,&#45;1 (item=boron&#45;trioxide Boron products 2)&#45;&gt;2,&#45;2 (Tin Plate, Organic Solvent) -->
<g id="edge20" class="edge">
<title>&#45;3,&#45;1 (item=boron&#45;trioxide Boron products 2)&#45;&gt;2,&#45;2 (Tin Plate, Organic Solvent)</title>
<path fill="none" stroke="black" stroke-width="0.15" d="M2108.03,-1150.94C1757.24,-1100.51 658.63,-942.55 308.14,-892.16"/>
<polygon fill="black" stroke="black" stroke-width="0.15" points="308.64,-888.69 298.24,-890.73 307.64,-895.62 308.64,-888.69"/>
<text text-anchor="middle" x="1166.09" y="-1025.35" font-family="Times,serif" font-size="14.00">borax*1824</text>
</g>
<!-- &#45;3,&#45;1 (item=boron&#45;trioxide Boron products 2)&#45;&gt;4,6 (Circuit substrate and Doped silicon) -->
<g id="edge16" class="edge">
<title>&#45;3,&#45;1 (item=boron&#45;trioxide Boron products 2)&#45;&gt;4,6 (Circuit substrate and Doped silicon)</title>
<path fill="none" stroke="black" stroke-width="0.12" d="M2108.03,-1182.23C1759.78,-1232.3 674.48,-1388.35 315.86,-1439.91"/>
<polygon fill="black" stroke="black" stroke-width="0.12" points="315.12,-1436.48 305.72,-1441.37 316.11,-1443.41 315.12,-1436.48"/>
<text text-anchor="middle" x="1169.94" y="-1314.87" font-family="Times,serif" font-size="14.00">borax*1568</text>
</g>
<!-- &#45;3,&#45;1 (item=boron&#45;trioxide Boron products 2)&#45;&gt;&#45;1,10 (Iron Plates) -->
<g id="edge8" class="edge">
<title>&#45;3,&#45;1 (item=boron&#45;trioxide Boron products 2)&#45;&gt;&#45;1,10 (Iron Plates)</title>
<path fill="none" stroke="black" stroke-width="0.6" d="M2177.65,-1184.49C1950.37,-1288.29 803.23,-1812.16 558.95,-1923.73"/>
<polygon fill="black" stroke="black" stroke-width="0.6" points="557.29,-1920.64 549.64,-1927.97 560.19,-1927 557.29,-1920.64"/>
<text text-anchor="middle" x="1326.3" y="-1557.91" font-family="Times,serif" font-size="14.00">borax*7472</text>
</g>
<!-- &#45;3,&#45;1 (item=boron&#45;trioxide Boron products 2)&#45;&gt;&#45;2,9 (molten steel) -->
<g id="edge12" class="edge">
<title>&#45;3,&#45;1 (item=boron&#45;trioxide Boron products 2)&#45;&gt;&#45;2,9 (molten steel)</title>
<path fill="none" stroke="black" stroke-width="0.19" d="M2195.94,-1184.71C2053.96,-1307.73 1232.17,-2019.81 1068.99,-2161.21"/>
<polygon fill="black" stroke="black" stroke-width="0.19" points="1066.56,-2158.69 1061.3,-2167.88 1071.14,-2163.98 1066.56,-2158.69"/>
<text text-anchor="middle" x="1590.46" y="-1676.76" font-family="Times,serif" font-size="14.00">borax*2400</text>
</g>
<!-- &#45;3,&#45;1 (item=boron&#45;trioxide Boron products 2)&#45;&gt;2,10 (Nickel plate) -->
<g id="edge17" class="edge">
<title>&#45;3,&#45;1 (item=boron&#45;trioxide Boron products 2)&#45;&gt;2,10 (Nickel plate)</title>
<path fill="none" stroke="black" stroke-width="0.11" d="M2205.1,-1184.87C2130.35,-1301.19 1721.5,-1937.36 1632.23,-2076.27"/>
<polygon fill="black" stroke="black" stroke-width="0.11" points="1629.06,-2074.74 1626.59,-2085.04 1634.95,-2078.52 1629.06,-2074.74"/>
<text text-anchor="middle" x="1876.66" y="-1634.37" font-family="Times,serif" font-size="14.00">borax*1408</text>
</g>
<!-- &#45;3,2 (Lead and Solder) -->
<g id="node12" class="node">
<title>&#45;3,2 (Lead and Solder)</title>
<ellipse fill="none" stroke="black" cx="2402.59" cy="-1166.59" rx="113.98" ry="18"/>
<text text-anchor="middle" x="2402.59" y="-1162.89" font-family="Times,serif" font-size="14.00">&#45;3,2 (Lead and Solder)</text>
</g>
<!-- &#45;3,&#45;1 (item=boron&#45;trioxide Boron products 2)&#45;&gt;&#45;3,2 (Lead and Solder) -->
<g id="edge15" class="edge">
<title>&#45;3,&#45;1 (item=boron&#45;trioxide Boron products 2)&#45;&gt;&#45;3,2 (Lead and Solder)</title>
<path fill="none" stroke="black" stroke-width="0.13" d="M2402.45,-1166.59C2402.48,-1166.59 2402.5,-1166.59 2402.51,-1166.59"/>
<polygon fill="black" stroke="black" stroke-width="0.13" points="2392.56,-1170.11 2402.55,-1166.59 2392.55,-1163.11 2392.56,-1170.11"/>
<text text-anchor="middle" x="2360.48" y="-1170.39" font-family="Times,serif" font-size="14.00">borax*1600</text>
</g>
<!-- &#45;3,&#45;1 (item=boron&#45;trioxide Boron products 2)&#45;&gt;&#45;4,&#45;4 (Reserved For Aluminium Ore Drop, Aluminium) -->
<g id="edge19" class="edge">
<title>&#45;3,&#45;1 (item=boron&#45;trioxide Boron products 2)&#45;&gt;&#45;4,&#45;4 (Reserved For Aluminium Ore Drop, Aluminium)</title>
<path fill="none" stroke="black" stroke-width="0.15" d="M2211.5,-1184.79C2187.62,-1266.14 2090.56,-1596.68 2061.61,-1695.29"/>
<polygon fill="black" stroke="black" stroke-width="0.15" points="2058.18,-1694.54 2058.72,-1705.12 2064.9,-1696.51 2058.18,-1694.54"/>
<text text-anchor="middle" x="2094.56" y="-1443.84" font-family="Times,serif" font-size="14.00">borax*1920</text>
</g>
</g>
</svg>
