<?xml version="1.0" encoding="UTF-8" standalone="no"?>
<!DOCTYPE svg PUBLIC "-//W3C//DTD SVG 1.1//EN"
 "http://www.w3.org/Graphics/SVG/1.1/DTD/svg11.dtd">
<!-- Generated by graphviz version 2.43.0 (0)
 -->
<!-- Title: %3 Pages: 1 -->
<svg width="687pt" height="528pt"
 viewBox="0.00 0.00 687.29 528.06" xmlns="http://www.w3.org/2000/svg" xmlns:xlink="http://www.w3.org/1999/xlink">
<g id="graph0" class="graph" transform="scale(1 1) rotate(0) translate(4 524.06)">
<title>%3</title>
<polygon fill="white" stroke="transparent" points="-4,4 -4,-524.06 683.29,-524.06 683.29,4 -4,4"/>
<!-- 0,0 (LE BUS) -->
<g id="node1" class="node">
<title>0,0 (LE BUS)</title>
<ellipse fill="none" stroke="black" cx="307.02" cy="-278.69" rx="71.49" ry="18"/>
<text text-anchor="middle" x="307.02" y="-274.99" font-family="Times,serif" font-size="14.00">0,0 (LE BUS)</text>
</g>
<!-- 0,9 (Auog Brains) -->
<g id="node2" class="node">
<title>0,9 (Auog Brains)</title>
<ellipse fill="none" stroke="black" cx="587.65" cy="-278.69" rx="91.78" ry="18"/>
<text text-anchor="middle" x="587.65" y="-274.99" font-family="Times,serif" font-size="14.00">0,9 (Auog Brains)</text>
</g>
<!-- 0,0 (LE BUS)&#45;&gt;0,9 (Auog Brains) -->
<g id="edge1" class="edge">
<title>0,0 (LE BUS)&#45;&gt;0,9 (Auog Brains)</title>
<path fill="none" stroke="black" stroke-width="1.05" d="M378.56,-278.69C411,-278.69 449.96,-278.69 485.41,-278.69"/>
<polygon fill="black" stroke="black" stroke-width="1.05" points="485.8,-282.19 495.8,-278.69 485.8,-275.19 485.8,-282.19"/>
<text text-anchor="middle" x="431.99" y="-267.49" font-family="Times,serif" font-size="14.00">moss*10000</text>
</g>
<!-- 7,&#45;2 (item=guts Auog guts) -->
<g id="node3" class="node">
<title>7,&#45;2 (item=guts Auog guts)</title>
<ellipse fill="none" stroke="black" cx="137.14" cy="-502.06" rx="137.28" ry="18"/>
<text text-anchor="middle" x="137.14" y="-498.36" font-family="Times,serif" font-size="14.00">7,&#45;2 (item=guts Auog guts)</text>
</g>
<!-- 0,0 (LE BUS)&#45;&gt;7,&#45;2 (item=guts Auog guts) -->
<g id="edge2" class="edge">
<title>0,0 (LE BUS)&#45;&gt;7,&#45;2 (item=guts Auog guts)</title>
<path fill="none" stroke="black" stroke-width="0.9" d="M293.4,-296.59C263.46,-335.97 191.78,-430.22 156.89,-476.1"/>
<polygon fill="black" stroke="black" stroke-width="0.9" points="154.09,-474 150.82,-484.08 159.66,-478.24 154.09,-474"/>
<text text-anchor="middle" x="185.14" y="-390.15" font-family="Times,serif" font-size="14.00">moss*8544</text>
</g>
<!-- &#45;3,8 (Urea) -->
<g id="node4" class="node">
<title>&#45;3,8 (Urea)</title>
<ellipse fill="none" stroke="black" cx="203.13" cy="-18" rx="61.19" ry="18"/>
<text text-anchor="middle" x="203.13" y="-14.3" font-family="Times,serif" font-size="14.00">&#45;3,8 (Urea)</text>
</g>
<!-- 0,0 (LE BUS)&#45;&gt;&#45;3,8 (Urea) -->
<g id="edge3" class="edge">
<title>0,0 (LE BUS)&#45;&gt;&#45;3,8 (Urea)</title>
<path fill="none" stroke="black" stroke-width="1.05" d="M299.88,-260.77C282.05,-216.03 235.48,-99.17 214.12,-45.58"/>
<polygon fill="black" stroke="black" stroke-width="1.05" points="217.27,-44.04 210.32,-36.04 210.77,-46.63 217.27,-44.04"/>
<text text-anchor="middle" x="212.5" y="-156.98" font-family="Times,serif" font-size="14.00">moss*10000</text>
</g>
</g>
</svg>
