<?xml version="1.0" encoding="UTF-8" standalone="no"?>
<!DOCTYPE svg PUBLIC "-//W3C//DTD SVG 1.1//EN"
 "http://www.w3.org/Graphics/SVG/1.1/DTD/svg11.dtd">
<!-- Generated by graphviz version 2.43.0 (0)
 -->
<!-- Title: %3 Pages: 1 -->
<svg width="1668pt" height="973pt"
 viewBox="0.00 0.00 1668.04 973.00" xmlns="http://www.w3.org/2000/svg" xmlns:xlink="http://www.w3.org/1999/xlink">
<g id="graph0" class="graph" transform="scale(1 1) rotate(0) translate(4 969)">
<title>%3</title>
<polygon fill="white" stroke="transparent" points="-4,4 -4,-969 1664.04,-969 1664.04,4 -4,4"/>
<!-- 3,12 (Copper mine, No, Copper OURS, Comrade) -->
<g id="node1" class="node">
<title>3,12 (Copper mine, No, Copper OURS, Comrade)</title>
<ellipse fill="none" stroke="black" cx="237.23" cy="-175.97" rx="237.46" ry="18"/>
<text text-anchor="middle" x="237.23" y="-172.27" font-family="Times,serif" font-size="14.00">3,12 (Copper mine, No, Copper OURS, Comrade)</text>
</g>
<!-- 8,1 (Molten Copper) -->
<g id="node2" class="node">
<title>8,1 (Molten Copper)</title>
<ellipse fill="none" stroke="black" cx="237.23" cy="-687.18" rx="104.78" ry="18"/>
<text text-anchor="middle" x="237.23" y="-683.48" font-family="Times,serif" font-size="14.00">8,1 (Molten Copper)</text>
</g>
<!-- 3,12 (Copper mine, No, Copper OURS, Comrade)&#45;&gt;8,1 (Molten Copper) -->
<g id="edge1" class="edge">
<title>3,12 (Copper mine, No, Copper OURS, Comrade)&#45;&gt;8,1 (Molten Copper)</title>
<path fill="none" stroke="black" stroke-width="0.53" d="M237.23,-194.17C237.23,-270.56 237.23,-565.71 237.23,-658.85"/>
<polygon fill="black" stroke="black" stroke-width="0.53" points="233.73,-658.93 237.23,-668.93 240.73,-658.93 233.73,-658.93"/>
<text text-anchor="middle" x="172.73" y="-430.31" font-family="Times,serif" font-size="14.00">copper&#45;ore*51840</text>
</g>
<!-- 4,11 (Cobalt Extract) -->
<g id="node3" class="node">
<title>4,11 (Cobalt Extract)</title>
<ellipse fill="none" stroke="black" cx="723.41" cy="-18" rx="108.58" ry="18"/>
<text text-anchor="middle" x="723.41" y="-14.3" font-family="Times,serif" font-size="14.00">4,11 (Cobalt Extract)</text>
</g>
<!-- 3,12 (Copper mine, No, Copper OURS, Comrade)&#45;&gt;4,11 (Cobalt Extract) -->
<g id="edge2" class="edge">
<title>3,12 (Copper mine, No, Copper OURS, Comrade)&#45;&gt;4,11 (Cobalt Extract)</title>
<path fill="none" stroke="black" stroke-width="0.16" d="M291.59,-158.31C383.48,-128.45 568.83,-68.23 664.02,-37.3"/>
<polygon fill="black" stroke="black" stroke-width="0.16" points="665.35,-40.55 673.78,-34.13 663.19,-33.89 665.35,-40.55"/>
<text text-anchor="middle" x="413.3" y="-101.6" font-family="Times,serif" font-size="14.00">copper&#45;ore*15720</text>
</g>
<!-- 3,9 (Copper, molten &amp; plate) -->
<g id="node5" class="node">
<title>3,9 (Copper, molten &amp; plate)</title>
<ellipse fill="none" stroke="black" cx="723.41" cy="-845.15" rx="143.77" ry="18"/>
<text text-anchor="middle" x="723.41" y="-841.45" font-family="Times,serif" font-size="14.00">3,9 (Copper, molten &amp; plate)</text>
</g>
<!-- 3,12 (Copper mine, No, Copper OURS, Comrade)&#45;&gt;3,9 (Copper, molten &amp; plate) -->
<g id="edge5" class="edge">
<title>3,12 (Copper mine, No, Copper OURS, Comrade)&#45;&gt;3,9 (Copper, molten &amp; plate)</title>
<path fill="none" stroke="black" stroke-width="0.43" d="M250.49,-194.22C318.05,-287.22 624.05,-708.39 704.17,-818.66"/>
<polygon fill="black" stroke="black" stroke-width="0.43" points="701.46,-820.89 710.17,-826.92 707.12,-816.77 701.46,-820.89"/>
<text text-anchor="middle" x="412.83" y="-510.24" font-family="Times,serif" font-size="14.00">copper&#45;ore*41880</text>
</g>
<!-- 1,8 (A copper mine, Salt) -->
<g id="node4" class="node">
<title>1,8 (A copper mine, Salt)</title>
<ellipse fill="none" stroke="black" cx="1023.89" cy="-431.57" rx="126.18" ry="18"/>
<text text-anchor="middle" x="1023.89" y="-427.87" font-family="Times,serif" font-size="14.00">1,8 (A copper mine, Salt)</text>
</g>
<!-- 1,8 (A copper mine, Salt)&#45;&gt;8,1 (Molten Copper) -->
<g id="edge6" class="edge">
<title>1,8 (A copper mine, Salt)&#45;&gt;8,1 (Molten Copper)</title>
<path fill="none" stroke="black" stroke-width="1.25" d="M972.88,-448.15C833.18,-493.54 444.92,-619.69 296.22,-668.01"/>
<polygon fill="black" stroke="black" stroke-width="1.25" points="294.78,-664.8 286.35,-671.22 296.94,-671.45 294.78,-664.8"/>
<text text-anchor="middle" x="565.55" y="-561.88" font-family="Times,serif" font-size="14.00">copper&#45;ore*121328</text>
</g>
<!-- 1,8 (A copper mine, Salt)&#45;&gt;4,11 (Cobalt Extract) -->
<g id="edge4" class="edge">
<title>1,8 (A copper mine, Salt)&#45;&gt;4,11 (Cobalt Extract)</title>
<path fill="none" stroke="black" stroke-width="0.37" d="M1010.79,-413.54C963.15,-347.97 799,-122.04 742.61,-44.43"/>
<polygon fill="black" stroke="black" stroke-width="0.37" points="745.3,-42.16 736.59,-36.13 739.63,-46.28 745.3,-42.16"/>
<text text-anchor="middle" x="812.2" y="-232.78" font-family="Times,serif" font-size="14.00">copper&#45;ore*36448</text>
</g>
<!-- 1,8 (A copper mine, Salt)&#45;&gt;3,9 (Copper, molten &amp; plate) -->
<g id="edge3" class="edge">
<title>1,8 (A copper mine, Salt)&#45;&gt;3,9 (Copper, molten &amp; plate)</title>
<path fill="none" stroke="black" stroke-width="5.78" d="M1010.79,-449.61C963.15,-515.18 799,-741.11 742.61,-818.72"/>
<polygon fill="black" stroke="black" stroke-width="5.78" points="738.37,-815.95 736.59,-827.02 746.56,-821.9 738.37,-815.95"/>
<text text-anchor="middle" x="807.7" y="-637.97" font-family="Times,serif" font-size="14.00">copper&#45;ore*562400</text>
</g>
<!-- 5,&#45;1 (Drilling Fluid Type 2, I think my maths is backwards) -->
<g id="node7" class="node">
<title>5,&#45;1 (Drilling Fluid Type 2, I think my maths is backwards)</title>
<ellipse fill="none" stroke="black" cx="1377.97" cy="-431.57" rx="282.15" ry="18"/>
<text text-anchor="middle" x="1377.97" y="-427.87" font-family="Times,serif" font-size="14.00">5,&#45;1 (Drilling Fluid Type 2, I think my maths is backwards)</text>
</g>
<!-- 1,8 (A copper mine, Salt)&#45;&gt;5,&#45;1 (Drilling Fluid Type 2, I think my maths is backwards) -->
<g id="edge8" class="edge">
<title>1,8 (A copper mine, Salt)&#45;&gt;5,&#45;1 (Drilling Fluid Type 2, I think my maths is backwards)</title>
<path fill="none" stroke="black" stroke-width="0.26" d="M1150.22,-431.57C1150.27,-431.57 1150.32,-431.57 1150.37,-431.57"/>
<polygon fill="black" stroke="black" stroke-width="0.26" points="1140.52,-435.08 1150.52,-431.57 1140.52,-428.08 1140.52,-435.08"/>
<text text-anchor="middle" x="1214.8" y="-435.37" font-family="Times,serif" font-size="14.00">copper&#45;ore*25008</text>
</g>
<!-- 3,&#45;2 () -->
<g id="node6" class="node">
<title>3,&#45;2 ()</title>
<ellipse fill="none" stroke="black" cx="147.96" cy="-752.04" rx="38.19" ry="18"/>
<text text-anchor="middle" x="147.96" y="-748.34" font-family="Times,serif" font-size="14.00">3,&#45;2 ()</text>
</g>
<!-- 3,&#45;2 ()&#45;&gt;8,1 (Molten Copper) -->
<g id="edge7" class="edge">
<title>3,&#45;2 ()&#45;&gt;8,1 (Molten Copper)</title>
<path fill="none" stroke="black" stroke-width="0.11" d="M169.11,-736.67C179.73,-728.95 192.84,-719.43 204.7,-710.81"/>
<polygon fill="black" stroke="black" stroke-width="0.11" points="207.04,-713.44 213.07,-704.73 202.92,-707.78 207.04,-713.44"/>
<text text-anchor="middle" x="122.41" y="-712.54" font-family="Times,serif" font-size="14.00">copper&#45;ore*10536</text>
</g>
<!-- 5,6 () -->
<g id="node8" class="node">
<title>5,6 ()</title>
<ellipse fill="none" stroke="black" cx="756.51" cy="-947" rx="35.19" ry="18"/>
<text text-anchor="middle" x="756.51" y="-943.3" font-family="Times,serif" font-size="14.00">5,6 ()</text>
</g>
<!-- 5,6 ()&#45;&gt;3,9 (Copper, molten &amp; plate) -->
<g id="edge9" class="edge">
<title>5,6 ()&#45;&gt;3,9 (Copper, molten &amp; plate)</title>
<path fill="none" stroke="black" stroke-width="0.1" d="M750.59,-928.79C745.56,-913.3 738.24,-890.79 732.47,-873.02"/>
<polygon fill="black" stroke="black" stroke-width="0.1" points="735.7,-871.63 729.28,-863.2 729.04,-873.79 735.7,-871.63"/>
<text text-anchor="middle" x="677.03" y="-904.71" font-family="Times,serif" font-size="14.00">copper&#45;ore*10200</text>
</g>
</g>
</svg>
