<?xml version="1.0" encoding="UTF-8" standalone="no"?>
<!DOCTYPE svg PUBLIC "-//W3C//DTD SVG 1.1//EN"
 "http://www.w3.org/Graphics/SVG/1.1/DTD/svg11.dtd">
<!-- Generated by graphviz version 2.43.0 (0)
 -->
<!-- Title: %3 Pages: 1 -->
<svg width="893pt" height="44pt"
 viewBox="0.00 0.00 892.93 44.00" xmlns="http://www.w3.org/2000/svg" xmlns:xlink="http://www.w3.org/1999/xlink">
<g id="graph0" class="graph" transform="scale(1 1) rotate(0) translate(4 40)">
<title>%3</title>
<polygon fill="white" stroke="transparent" points="-4,4 -4,-40 888.93,-40 888.93,4 -4,4"/>
<!-- 3,12 (Copper mine) -->
<g id="node1" class="node">
<title>3,12 (Copper mine)</title>
<ellipse fill="none" stroke="black" cx="424.92" cy="-18" rx="100.98" ry="18"/>
<text text-anchor="middle" x="424.92" y="-14.3" font-family="Times,serif" font-size="14.00">3,12 (Copper mine)</text>
</g>
<!-- 3,9 (Copper, molten &amp; plate) -->
<g id="node2" class="node">
<title>3,9 (Copper, molten &amp; plate)</title>
<ellipse fill="none" stroke="black" cx="741.3" cy="-18" rx="143.77" ry="18"/>
<text text-anchor="middle" x="741.3" y="-14.3" font-family="Times,serif" font-size="14.00">3,9 (Copper, molten &amp; plate)</text>
</g>
<!-- 3,12 (Copper mine)&#45;&gt;3,9 (Copper, molten &amp; plate) -->
<g id="edge1" class="edge">
<title>3,12 (Copper mine)&#45;&gt;3,9 (Copper, molten &amp; plate)</title>
<path fill="none" stroke="black" stroke-width="1.96" d="M525.89,-18C545.47,-18 566.41,-18 587.25,-18"/>
<polygon fill="black" stroke="black" stroke-width="1.96" points="587.46,-21.5 597.46,-18 587.46,-14.5 587.46,-21.5"/>
<text text-anchor="middle" x="556.57" y="-6.8" font-family="Times,serif" font-size="14.00">copper&#45;ore*264960</text>
</g>
<!-- 4,11 (Cobalt Extract) -->
<g id="node3" class="node">
<title>4,11 (Cobalt Extract)</title>
<ellipse fill="none" stroke="black" cx="108.54" cy="-18" rx="108.58" ry="18"/>
<text text-anchor="middle" x="108.54" y="-14.3" font-family="Times,serif" font-size="14.00">4,11 (Cobalt Extract)</text>
</g>
<!-- 3,12 (Copper mine)&#45;&gt;4,11 (Cobalt Extract) -->
<g id="edge2" class="edge">
<title>3,12 (Copper mine)&#45;&gt;4,11 (Cobalt Extract)</title>
<path fill="none" stroke="black" stroke-width="0.04" d="M323.94,-18C293.27,-18 259.27,-18 227.52,-18"/>
<polygon fill="black" stroke="black" stroke-width="0.04" points="227.3,-14.5 217.3,-18 227.3,-21.5 227.3,-14.5"/>
<text text-anchor="middle" x="275.73" y="-6.8" font-family="Times,serif" font-size="14.00">copper&#45;ore*5160</text>
</g>
</g>
</svg>
