<?xml version="1.0" encoding="UTF-8" standalone="no"?>
<!DOCTYPE svg PUBLIC "-//W3C//DTD SVG 1.1//EN"
 "http://www.w3.org/Graphics/SVG/1.1/DTD/svg11.dtd">
<!-- Generated by graphviz version 2.43.0 (0)
 -->
<!-- Title: %3 Pages: 1 -->
<svg width="1000pt" height="863pt"
 viewBox="0.00 0.00 999.81 863.34" xmlns="http://www.w3.org/2000/svg" xmlns:xlink="http://www.w3.org/1999/xlink">
<g id="graph0" class="graph" transform="scale(1 1) rotate(0) translate(4 859.34)">
<title>%3</title>
<polygon fill="white" stroke="transparent" points="-4,4 -4,-859.34 995.81,-859.34 995.81,4 -4,4"/>
<!-- 4,4 (Hydrogen Chloride, item=nylon Nylon/Nylon parts) -->
<g id="node1" class="node">
<title>4,4 (Hydrogen Chloride, item=nylon Nylon/Nylon parts)</title>
<ellipse fill="none" stroke="black" cx="365.41" cy="-421.08" rx="271.05" ry="18"/>
<text text-anchor="middle" x="365.41" y="-417.38" font-family="Times,serif" font-size="14.00">4,4 (Hydrogen Chloride, item=nylon Nylon/Nylon parts)</text>
</g>
<!-- 6,4 (Electronic components) -->
<g id="node2" class="node">
<title>6,4 (Electronic components)</title>
<ellipse fill="none" stroke="black" cx="850.12" cy="-421.08" rx="141.88" ry="18"/>
<text text-anchor="middle" x="850.12" y="-417.38" font-family="Times,serif" font-size="14.00">6,4 (Electronic components)</text>
</g>
<!-- 4,4 (Hydrogen Chloride, item=nylon Nylon/Nylon parts)&#45;&gt;6,4 (Electronic components) -->
<g id="edge1" class="edge">
<title>4,4 (Hydrogen Chloride, item=nylon Nylon/Nylon parts)&#45;&gt;6,4 (Electronic components)</title>
<path fill="none" stroke="black" stroke-width="1.38" d="M636.46,-421.08C657.48,-421.08 678.22,-421.08 698.02,-421.08"/>
<polygon fill="black" stroke="black" stroke-width="1.38" points="698.28,-424.58 708.28,-421.08 698.28,-417.58 698.28,-424.58"/>
<text text-anchor="middle" x="667.24" y="-409.88" font-family="Times,serif" font-size="14.00">nylon*14520</text>
</g>
<!-- 0,0 (LE BUS) -->
<g id="node3" class="node">
<title>0,0 (LE BUS)</title>
<ellipse fill="none" stroke="black" cx="117.07" cy="-837.34" rx="71.49" ry="18"/>
<text text-anchor="middle" x="117.07" y="-833.64" font-family="Times,serif" font-size="14.00">0,0 (LE BUS)</text>
</g>
<!-- 4,4 (Hydrogen Chloride, item=nylon Nylon/Nylon parts)&#45;&gt;0,0 (LE BUS) -->
<g id="edge2" class="edge">
<title>4,4 (Hydrogen Chloride, item=nylon Nylon/Nylon parts)&#45;&gt;0,0 (LE BUS)</title>
<path fill="none" stroke="black" stroke-width="0.67" d="M354.58,-439.23C315.28,-505.09 180.09,-731.7 133.22,-810.27"/>
<polygon fill="black" stroke="black" stroke-width="0.67" points="130.08,-808.71 127.96,-819.09 136.09,-812.3 130.08,-808.71"/>
<text text-anchor="middle" x="202.9" y="-628.55" font-family="Times,serif" font-size="14.00">nylon*7120</text>
</g>
<!-- &#45;5,2 (Optical fiber) -->
<g id="node4" class="node">
<title>&#45;5,2 (Optical fiber)</title>
<ellipse fill="none" stroke="black" cx="96.19" cy="-18" rx="96.38" ry="18"/>
<text text-anchor="middle" x="96.19" y="-14.3" font-family="Times,serif" font-size="14.00">&#45;5,2 (Optical fiber)</text>
</g>
<!-- 4,4 (Hydrogen Chloride, item=nylon Nylon/Nylon parts)&#45;&gt;&#45;5,2 (Optical fiber) -->
<g id="edge3" class="edge">
<title>4,4 (Hydrogen Chloride, item=nylon Nylon/Nylon parts)&#45;&gt;&#45;5,2 (Optical fiber)</title>
<path fill="none" stroke="black" stroke-width="0.95" d="M353.32,-402.97C310.35,-338.65 164.9,-120.87 113.98,-44.63"/>
<polygon fill="black" stroke="black" stroke-width="0.95" points="116.71,-42.42 108.25,-36.05 110.89,-46.31 116.71,-42.42"/>
<text text-anchor="middle" x="188.15" y="-227.6" font-family="Times,serif" font-size="14.00">nylon*10040</text>
</g>
</g>
</svg>
