<?xml version="1.0" encoding="UTF-8" standalone="no"?>
<!DOCTYPE svg PUBLIC "-//W3C//DTD SVG 1.1//EN"
 "http://www.w3.org/Graphics/SVG/1.1/DTD/svg11.dtd">
<!-- Generated by graphviz version 2.43.0 (0)
 -->
<!-- Title: %3 Pages: 1 -->
<svg width="1964pt" height="1763pt"
 viewBox="0.00 0.00 1963.83 1763.25" xmlns="http://www.w3.org/2000/svg" xmlns:xlink="http://www.w3.org/1999/xlink">
<g id="graph0" class="graph" transform="scale(1 1) rotate(0) translate(4 1759.25)">
<title>%3</title>
<polygon fill="white" stroke="transparent" points="-4,4 -4,-1759.25 1959.83,-1759.25 1959.83,4 -4,4"/>
<!-- 4,4 (Hydrogen Chloride, item=nylon Nylon/Nylon parts) -->
<g id="node1" class="node">
<title>4,4 (Hydrogen Chloride, item=nylon Nylon/Nylon parts)</title>
<ellipse fill="none" stroke="black" cx="1637.1" cy="-269.78" rx="271.05" ry="18"/>
<text text-anchor="middle" x="1637.1" y="-266.08" font-family="Times,serif" font-size="14.00">4,4 (Hydrogen Chloride, item=nylon Nylon/Nylon parts)</text>
</g>
<!-- 1,7 (Activated Carbon) -->
<g id="node2" class="node">
<title>1,7 (Activated Carbon)</title>
<ellipse fill="none" stroke="black" cx="1029.26" cy="-18" rx="115.88" ry="18"/>
<text text-anchor="middle" x="1029.26" y="-14.3" font-family="Times,serif" font-size="14.00">1,7 (Activated Carbon)</text>
</g>
<!-- 4,4 (Hydrogen Chloride, item=nylon Nylon/Nylon parts)&#45;&gt;1,7 (Activated Carbon) -->
<g id="edge1" class="edge">
<title>4,4 (Hydrogen Chloride, item=nylon Nylon/Nylon parts)&#45;&gt;1,7 (Activated Carbon)</title>
<path fill="none" stroke="black" stroke-width="3.18" d="M1593.88,-251.87C1484.4,-206.52 1196.6,-87.32 1079.7,-38.89"/>
<polygon fill="black" stroke="black" stroke-width="3.18" points="1080.83,-35.58 1070.26,-34.98 1078.16,-42.04 1080.83,-35.58"/>
<text text-anchor="middle" x="1246.79" y="-149.18" font-family="Times,serif" font-size="14.00">sodium&#45;hydroxide*36848</text>
</g>
<!-- &#45;1,7 (Rayon) -->
<g id="node4" class="node">
<title>&#45;1,7 (Rayon)</title>
<ellipse fill="none" stroke="black" cx="1888.88" cy="-877.62" rx="66.89" ry="18"/>
<text text-anchor="middle" x="1888.88" y="-873.92" font-family="Times,serif" font-size="14.00">&#45;1,7 (Rayon)</text>
</g>
<!-- 4,4 (Hydrogen Chloride, item=nylon Nylon/Nylon parts)&#45;&gt;&#45;1,7 (Rayon) -->
<g id="edge3" class="edge">
<title>4,4 (Hydrogen Chloride, item=nylon Nylon/Nylon parts)&#45;&gt;&#45;1,7 (Rayon)</title>
<path fill="none" stroke="black" stroke-width="0.92" d="M1644.64,-287.97C1680.55,-374.66 1834.33,-745.93 1877.55,-850.26"/>
<polygon fill="black" stroke="black" stroke-width="0.92" points="1874.32,-851.6 1881.38,-859.5 1880.78,-848.92 1874.32,-851.6"/>
<text text-anchor="middle" x="1671.09" y="-572.91" font-family="Times,serif" font-size="14.00">sodium&#45;hydroxide*10720</text>
</g>
<!-- 4,1 (item=filtration&#45;media Filtration Media) -->
<g id="node5" class="node">
<title>4,1 (item=filtration&#45;media Filtration Media)</title>
<ellipse fill="none" stroke="black" cx="421.41" cy="-269.78" rx="214.46" ry="18"/>
<text text-anchor="middle" x="421.41" y="-266.08" font-family="Times,serif" font-size="14.00">4,1 (item=filtration&#45;media Filtration Media)</text>
</g>
<!-- 4,4 (Hydrogen Chloride, item=nylon Nylon/Nylon parts)&#45;&gt;4,1 (item=filtration&#45;media Filtration Media) -->
<g id="edge5" class="edge">
<title>4,4 (Hydrogen Chloride, item=nylon Nylon/Nylon parts)&#45;&gt;4,1 (item=filtration&#45;media Filtration Media)</title>
<path fill="none" stroke="black" stroke-width="0.36" d="M1365.79,-269.78C1149.36,-269.78 849.81,-269.78 646.53,-269.78"/>
<polygon fill="black" stroke="black" stroke-width="0.36" points="646.32,-266.28 636.32,-269.78 646.32,-273.28 646.32,-266.28"/>
<text text-anchor="middle" x="920.66" y="-273.58" font-family="Times,serif" font-size="14.00">sodium&#45;hydroxide*4128</text>
</g>
<!-- 2,4 (Formica and Phenolic boards) -->
<g id="node6" class="node">
<title>2,4 (Formica and Phenolic boards)</title>
<ellipse fill="none" stroke="black" cx="169.63" cy="-877.62" rx="169.77" ry="18"/>
<text text-anchor="middle" x="169.63" y="-873.92" font-family="Times,serif" font-size="14.00">2,4 (Formica and Phenolic boards)</text>
</g>
<!-- 4,4 (Hydrogen Chloride, item=nylon Nylon/Nylon parts)&#45;&gt;2,4 (Formica and Phenolic boards) -->
<g id="edge6" class="edge">
<title>4,4 (Hydrogen Chloride, item=nylon Nylon/Nylon parts)&#45;&gt;2,4 (Formica and Phenolic boards)</title>
<path fill="none" stroke="black" stroke-width="1.36" d="M1593.98,-287.64C1382.09,-375.41 452.22,-760.57 221.56,-856.12"/>
<polygon fill="black" stroke="black" stroke-width="1.36" points="219.95,-852.99 212.05,-860.05 222.63,-859.46 219.95,-852.99"/>
<text text-anchor="middle" x="817.77" y="-575.68" font-family="Times,serif" font-size="14.00">sodium&#45;hydroxide*15728</text>
</g>
<!-- 4,2 (More fiberboard) -->
<g id="node7" class="node">
<title>4,2 (More fiberboard)</title>
<ellipse fill="none" stroke="black" cx="421.41" cy="-1485.47" rx="111.28" ry="18"/>
<text text-anchor="middle" x="421.41" y="-1481.77" font-family="Times,serif" font-size="14.00">4,2 (More fiberboard)</text>
</g>
<!-- 4,4 (Hydrogen Chloride, item=nylon Nylon/Nylon parts)&#45;&gt;4,2 (More fiberboard) -->
<g id="edge11" class="edge">
<title>4,4 (Hydrogen Chloride, item=nylon Nylon/Nylon parts)&#45;&gt;4,2 (More fiberboard)</title>
<path fill="none" stroke="black" stroke-width="0.36" d="M1618.97,-287.91C1481.73,-425.15 607.27,-1299.61 446.72,-1460.16"/>
<polygon fill="black" stroke="black" stroke-width="0.36" points="443.8,-1458.13 439.2,-1467.68 448.75,-1463.08 443.8,-1458.13"/>
<text text-anchor="middle" x="947.35" y="-877.83" font-family="Times,serif" font-size="14.00">sodium&#45;hydroxide*4208</text>
</g>
<!-- &#45;2,&#45;3 (Trains) -->
<g id="node8" class="node">
<title>&#45;2,&#45;3 (Trains)</title>
<ellipse fill="none" stroke="black" cx="1029.26" cy="-1737.25" rx="70.39" ry="18"/>
<text text-anchor="middle" x="1029.26" y="-1733.55" font-family="Times,serif" font-size="14.00">&#45;2,&#45;3 (Trains)</text>
</g>
<!-- 4,4 (Hydrogen Chloride, item=nylon Nylon/Nylon parts)&#45;&gt;&#45;2,&#45;3 (Trains) -->
<g id="edge12" class="edge">
<title>4,4 (Hydrogen Chloride, item=nylon Nylon/Nylon parts)&#45;&gt;&#45;2,&#45;3 (Trains)</title>
<path fill="none" stroke="black" stroke-width="0.19" d="M1629.64,-287.8C1566.22,-440.92 1118.25,-1522.4 1040.69,-1709.65"/>
<polygon fill="black" stroke="black" stroke-width="0.19" points="1037.38,-1708.49 1036.79,-1719.07 1043.85,-1711.17 1037.38,-1708.49"/>
<text text-anchor="middle" x="1249.66" y="-1002.53" font-family="Times,serif" font-size="14.00">sodium&#45;hydroxide*2160</text>
</g>
<!-- 1,6 (Sodium Hydroxide, These new bullets are fun, Limestone) -->
<g id="node3" class="node">
<title>1,6 (Sodium Hydroxide, These new bullets are fun, Limestone)</title>
<ellipse fill="none" stroke="black" cx="1637.1" cy="-1485.47" rx="301.65" ry="18"/>
<text text-anchor="middle" x="1637.1" y="-1481.77" font-family="Times,serif" font-size="14.00">1,6 (Sodium Hydroxide, These new bullets are fun, Limestone)</text>
</g>
<!-- 1,6 (Sodium Hydroxide, These new bullets are fun, Limestone)&#45;&gt;1,7 (Activated Carbon) -->
<g id="edge2" class="edge">
<title>1,6 (Sodium Hydroxide, These new bullets are fun, Limestone)&#45;&gt;1,7 (Activated Carbon)</title>
<path fill="none" stroke="black" stroke-width="3.56" d="M1629.64,-1467.44C1566.22,-1314.33 1118.25,-232.84 1040.69,-45.59"/>
<polygon fill="black" stroke="black" stroke-width="3.56" points="1043.85,-44.08 1036.79,-36.18 1037.38,-46.76 1043.85,-44.08"/>
<text text-anchor="middle" x="1245.16" y="-760.32" font-family="Times,serif" font-size="14.00">sodium&#45;hydroxide*41280</text>
</g>
<!-- 1,6 (Sodium Hydroxide, These new bullets are fun, Limestone)&#45;&gt;&#45;1,7 (Rayon) -->
<g id="edge4" class="edge">
<title>1,6 (Sodium Hydroxide, These new bullets are fun, Limestone)&#45;&gt;&#45;1,7 (Rayon)</title>
<path fill="none" stroke="black" stroke-width="0.18" d="M1644.64,-1467.28C1680.55,-1380.59 1834.33,-1009.32 1877.55,-904.99"/>
<polygon fill="black" stroke="black" stroke-width="0.18" points="1880.78,-906.32 1881.38,-895.74 1874.32,-903.64 1880.78,-906.32"/>
<text text-anchor="middle" x="1675.59" y="-1189.93" font-family="Times,serif" font-size="14.00">sodium&#45;hydroxide*2032</text>
</g>
<!-- 1,6 (Sodium Hydroxide, These new bullets are fun, Limestone)&#45;&gt;4,1 (item=filtration&#45;media Filtration Media) -->
<g id="edge7" class="edge">
<title>1,6 (Sodium Hydroxide, These new bullets are fun, Limestone)&#45;&gt;4,1 (item=filtration&#45;media Filtration Media)</title>
<path fill="none" stroke="black" stroke-width="0.39" d="M1618.97,-1467.34C1481.74,-1330.11 607.38,-455.75 446.75,-295.11"/>
<polygon fill="black" stroke="black" stroke-width="0.39" points="449.19,-292.61 439.65,-288.01 444.24,-297.56 449.19,-292.61"/>
<text text-anchor="middle" x="1118.36" y="-885.03" font-family="Times,serif" font-size="14.00">sodium&#45;hydroxide*4480</text>
</g>
<!-- 1,6 (Sodium Hydroxide, These new bullets are fun, Limestone)&#45;&gt;2,4 (Formica and Phenolic boards) -->
<g id="edge8" class="edge">
<title>1,6 (Sodium Hydroxide, These new bullets are fun, Limestone)&#45;&gt;2,4 (Formica and Phenolic boards)</title>
<path fill="none" stroke="black" stroke-width="0.96" d="M1593.98,-1467.61C1382.09,-1379.84 452.22,-994.68 221.56,-899.13"/>
<polygon fill="black" stroke="black" stroke-width="0.96" points="222.63,-895.79 212.05,-895.19 219.95,-902.25 222.63,-895.79"/>
<text text-anchor="middle" x="817.77" y="-1187.17" font-family="Times,serif" font-size="14.00">sodium&#45;hydroxide*11104</text>
</g>
<!-- 1,6 (Sodium Hydroxide, These new bullets are fun, Limestone)&#45;&gt;4,2 (More fiberboard) -->
<g id="edge9" class="edge">
<title>1,6 (Sodium Hydroxide, These new bullets are fun, Limestone)&#45;&gt;4,2 (More fiberboard)</title>
<path fill="none" stroke="black" stroke-width="0.37" d="M1335.42,-1485.47C1079.73,-1485.47 726.2,-1485.47 542.78,-1485.47"/>
<polygon fill="black" stroke="black" stroke-width="0.37" points="542.56,-1481.97 532.56,-1485.47 542.56,-1488.97 542.56,-1481.97"/>
<text text-anchor="middle" x="853.6" y="-1489.27" font-family="Times,serif" font-size="14.00">sodium&#45;hydroxide*4320</text>
</g>
<!-- 1,6 (Sodium Hydroxide, These new bullets are fun, Limestone)&#45;&gt;&#45;2,&#45;3 (Trains) -->
<g id="edge10" class="edge">
<title>1,6 (Sodium Hydroxide, These new bullets are fun, Limestone)&#45;&gt;&#45;2,&#45;3 (Trains)</title>
<path fill="none" stroke="black" stroke-width="0.18" d="M1593.88,-1503.37C1483.19,-1549.22 1190.23,-1670.57 1075.9,-1717.93"/>
<polygon fill="black" stroke="black" stroke-width="0.18" points="1074.26,-1714.82 1066.36,-1721.88 1076.94,-1721.28 1074.26,-1714.82"/>
<text text-anchor="middle" x="1249.39" y="-1614.45" font-family="Times,serif" font-size="14.00">sodium&#45;hydroxide*2080</text>
</g>
</g>
</svg>
