<?xml version="1.0" encoding="UTF-8" standalone="no"?>
<!DOCTYPE svg PUBLIC "-//W3C//DTD SVG 1.1//EN"
 "http://www.w3.org/Graphics/SVG/1.1/DTD/svg11.dtd">
<!-- Generated by graphviz version 2.43.0 (0)
 -->
<!-- Title: %3 Pages: 1 -->
<svg width="1148pt" height="802pt"
 viewBox="0.00 0.00 1148.08 802.24" xmlns="http://www.w3.org/2000/svg" xmlns:xlink="http://www.w3.org/1999/xlink">
<g id="graph0" class="graph" transform="scale(1 1) rotate(0) translate(4 798.24)">
<title>%3</title>
<polygon fill="white" stroke="transparent" points="-4,4 -4,-798.24 1144.08,-798.24 1144.08,4 -4,4"/>
<!-- 1,0 (Moondrops?) -->
<g id="node1" class="node">
<title>1,0 (Moondrops?)</title>
<ellipse fill="none" stroke="black" cx="533.83" cy="-401.37" rx="92.08" ry="18"/>
<text text-anchor="middle" x="533.83" y="-397.67" font-family="Times,serif" font-size="14.00">1,0 (Moondrops?)</text>
</g>
<!-- 7,1 (item=aerogel item=clean&#45;rf&#45;gel Aerogel) -->
<g id="node2" class="node">
<title>7,1 (item=aerogel item=clean&#45;rf&#45;gel Aerogel)</title>
<ellipse fill="none" stroke="black" cx="919.1" cy="-401.37" rx="220.96" ry="18"/>
<text text-anchor="middle" x="919.1" y="-397.67" font-family="Times,serif" font-size="14.00">7,1 (item=aerogel item=clean&#45;rf&#45;gel Aerogel)</text>
</g>
<!-- 1,0 (Moondrops?)&#45;&gt;7,1 (item=aerogel item=clean&#45;rf&#45;gel Aerogel) -->
<g id="edge1" class="edge">
<title>1,0 (Moondrops?)&#45;&gt;7,1 (item=aerogel item=clean&#45;rf&#45;gel Aerogel)</title>
<path fill="none" stroke="black" stroke-width="1.38" d="M626.6,-401.37C645.53,-401.37 666.24,-401.37 687.62,-401.37"/>
<polygon fill="black" stroke="black" stroke-width="1.38" points="687.83,-404.87 697.83,-401.37 687.83,-397.87 687.83,-404.87"/>
<text text-anchor="middle" x="616.36" y="-390.17" font-family="Times,serif" font-size="14.00">methane&#45;barrel*14176</text>
</g>
<!-- 4,6 (Circuit substrate and Doped silicon) -->
<g id="node3" class="node">
<title>4,6 (Circuit substrate and Doped silicon)</title>
<ellipse fill="none" stroke="black" cx="444.94" cy="-776.24" rx="199.56" ry="18"/>
<text text-anchor="middle" x="444.94" y="-772.54" font-family="Times,serif" font-size="14.00">4,6 (Circuit substrate and Doped silicon)</text>
</g>
<!-- 1,0 (Moondrops?)&#45;&gt;4,6 (Circuit substrate and Doped silicon) -->
<g id="edge2" class="edge">
<title>1,0 (Moondrops?)&#45;&gt;4,6 (Circuit substrate and Doped silicon)</title>
<path fill="none" stroke="black" stroke-width="0.94" d="M529.54,-419.45C515.23,-479.81 469.02,-674.68 451.64,-748"/>
<polygon fill="black" stroke="black" stroke-width="0.94" points="448.19,-747.37 449.29,-757.91 455,-748.98 448.19,-747.37"/>
<text text-anchor="middle" x="413.59" y="-587.52" font-family="Times,serif" font-size="14.00">methane&#45;barrel*9664</text>
</g>
<!-- 2,4 (Formica and Phenolic boards) -->
<g id="node4" class="node">
<title>2,4 (Formica and Phenolic boards)</title>
<ellipse fill="none" stroke="black" cx="169.63" cy="-275.67" rx="169.77" ry="18"/>
<text text-anchor="middle" x="169.63" y="-271.97" font-family="Times,serif" font-size="14.00">2,4 (Formica and Phenolic boards)</text>
</g>
<!-- 1,0 (Moondrops?)&#45;&gt;2,4 (Formica and Phenolic boards) -->
<g id="edge3" class="edge">
<title>1,0 (Moondrops?)&#45;&gt;2,4 (Formica and Phenolic boards)</title>
<path fill="none" stroke="black" stroke-width="1.59" d="M488.07,-385.57C422.43,-362.92 301.5,-321.18 229.03,-296.17"/>
<polygon fill="black" stroke="black" stroke-width="1.59" points="230.17,-292.86 219.57,-292.91 227.88,-299.48 230.17,-292.86"/>
<text text-anchor="middle" x="277.05" y="-344.67" font-family="Times,serif" font-size="14.00">methane&#45;barrel*16392</text>
</g>
<!-- 0,0 (LE BUS) -->
<g id="node5" class="node">
<title>0,0 (LE BUS)</title>
<ellipse fill="none" stroke="black" cx="572.11" cy="-18" rx="71.49" ry="18"/>
<text text-anchor="middle" x="572.11" y="-14.3" font-family="Times,serif" font-size="14.00">0,0 (LE BUS)</text>
</g>
<!-- 1,0 (Moondrops?)&#45;&gt;0,0 (LE BUS) -->
<g id="edge4" class="edge">
<title>1,0 (Moondrops?)&#45;&gt;0,0 (LE BUS)</title>
<path fill="none" stroke="black" stroke-width="0.1" d="M535.65,-383.13C541.79,-321.58 561.81,-121.15 569.27,-46.43"/>
<polygon fill="black" stroke="black" stroke-width="0.1" points="572.77,-46.64 570.28,-36.34 565.8,-45.95 572.77,-46.64"/>
<text text-anchor="middle" x="475.46" y="-218.58" font-family="Times,serif" font-size="14.00">methane&#45;barrel*1000</text>
</g>
</g>
</svg>
