<?xml version="1.0" encoding="UTF-8" standalone="no"?>
<!DOCTYPE svg PUBLIC "-//W3C//DTD SVG 1.1//EN"
 "http://www.w3.org/Graphics/SVG/1.1/DTD/svg11.dtd">
<!-- Generated by graphviz version 2.43.0 (0)
 -->
<!-- Title: %3 Pages: 1 -->
<svg width="1098pt" height="44pt"
 viewBox="0.00 0.00 1098.32 44.00" xmlns="http://www.w3.org/2000/svg" xmlns:xlink="http://www.w3.org/1999/xlink">
<g id="graph0" class="graph" transform="scale(1 1) rotate(0) translate(4 40)">
<title>%3</title>
<polygon fill="white" stroke="transparent" points="-4,4 -4,-40 1094.32,-40 1094.32,4 -4,4"/>
<!-- &#45;6,&#45;4 (High&#45;Power Resistors, Ceramic Capacitor, Inductor) -->
<g id="node1" class="node">
<title>&#45;6,&#45;4 (High&#45;Power Resistors, Ceramic Capacitor, Inductor)</title>
<ellipse fill="none" stroke="black" cx="526.96" cy="-18" rx="278.35" ry="18"/>
<text text-anchor="middle" x="526.96" y="-14.3" font-family="Times,serif" font-size="14.00">&#45;6,&#45;4 (High&#45;Power Resistors, Ceramic Capacitor, Inductor)</text>
</g>
<!-- 2,5 (Simple Circuits) -->
<g id="node2" class="node">
<title>2,5 (Simple Circuits)</title>
<ellipse fill="none" stroke="black" cx="983.73" cy="-18" rx="106.68" ry="18"/>
<text text-anchor="middle" x="983.73" y="-14.3" font-family="Times,serif" font-size="14.00">2,5 (Simple Circuits)</text>
</g>
<!-- &#45;6,&#45;4 (High&#45;Power Resistors, Ceramic Capacitor, Inductor)&#45;&gt;2,5 (Simple Circuits) -->
<g id="edge1" class="edge">
<title>&#45;6,&#45;4 (High&#45;Power Resistors, Ceramic Capacitor, Inductor)&#45;&gt;2,5 (Simple Circuits)</title>
<path fill="none" stroke="black" stroke-width="1.72" d="M805.17,-18C826.58,-18 847.38,-18 866.76,-18"/>
<polygon fill="black" stroke="black" stroke-width="1.72" points="866.76,-21.5 876.76,-18 866.76,-14.5 866.76,-21.5"/>
<text text-anchor="middle" x="835.96" y="-6.8" font-family="Times,serif" font-size="14.00">resistor1*24662</text>
</g>
<!-- &#45;2,&#45;3 (Trains) -->
<g id="node3" class="node">
<title>&#45;2,&#45;3 (Trains)</title>
<ellipse fill="none" stroke="black" cx="70.19" cy="-18" rx="70.39" ry="18"/>
<text text-anchor="middle" x="70.19" y="-14.3" font-family="Times,serif" font-size="14.00">&#45;2,&#45;3 (Trains)</text>
</g>
<!-- &#45;6,&#45;4 (High&#45;Power Resistors, Ceramic Capacitor, Inductor)&#45;&gt;&#45;2,&#45;3 (Trains) -->
<g id="edge2" class="edge">
<title>&#45;6,&#45;4 (High&#45;Power Resistors, Ceramic Capacitor, Inductor)&#45;&gt;&#45;2,&#45;3 (Trains)</title>
<path fill="none" stroke="black" stroke-width="0.28" d="M248.75,-18C213.25,-18 179.44,-18 150.97,-18"/>
<polygon fill="black" stroke="black" stroke-width="0.28" points="150.74,-14.5 140.74,-18 150.74,-21.5 150.74,-14.5"/>
<text text-anchor="middle" x="199.86" y="-6.8" font-family="Times,serif" font-size="14.00">resistor1*4064</text>
</g>
</g>
</svg>
