<?xml version="1.0" encoding="UTF-8" standalone="no"?>
<!DOCTYPE svg PUBLIC "-//W3C//DTD SVG 1.1//EN"
 "http://www.w3.org/Graphics/SVG/1.1/DTD/svg11.dtd">
<!-- Generated by graphviz version 2.43.0 (0)
 -->
<!-- Title: %3 Pages: 1 -->
<svg width="4514pt" height="3146pt"
 viewBox="0.00 0.00 4514.41 3146.43" xmlns="http://www.w3.org/2000/svg" xmlns:xlink="http://www.w3.org/1999/xlink">
<g id="graph0" class="graph" transform="scale(1 1) rotate(0) translate(4 3142.43)">
<title>%3</title>
<polygon fill="white" stroke="transparent" points="-4,4 -4,-3142.43 4510.41,-3142.43 4510.41,4 -4,4"/>
<!-- 10,5 () -->
<g id="node1" class="node">
<title>10,5 ()</title>
<ellipse fill="none" stroke="black" cx="476.41" cy="-610.51" rx="40.89" ry="18"/>
<text text-anchor="middle" x="476.41" y="-606.81" font-family="Times,serif" font-size="14.00">10,5 ()</text>
</g>
<!-- 2,8 (Graphite) -->
<g id="node2" class="node">
<title>2,8 (Graphite)</title>
<ellipse fill="none" stroke="black" cx="1291.93" cy="-18" rx="76.09" ry="18"/>
<text text-anchor="middle" x="1291.93" y="-14.3" font-family="Times,serif" font-size="14.00">2,8 (Graphite)</text>
</g>
<!-- 10,5 ()&#45;&gt;2,8 (Graphite) -->
<g id="edge1" class="edge">
<title>10,5 ()&#45;&gt;2,8 (Graphite)</title>
<path fill="none" stroke="black" stroke-width="2.07" d="M497.8,-594.97C609.45,-513.85 1125.21,-139.13 1259.76,-41.38"/>
<polygon fill="black" stroke="black" stroke-width="2.07" points="1262.03,-44.05 1268.06,-35.34 1257.91,-38.39 1262.03,-44.05"/>
<text text-anchor="middle" x="818.28" y="-321.97" font-family="Times,serif" font-size="14.00">raw&#45;coal*409200</text>
</g>
<!-- 3,&#45;2 (Steam for tin, Coke from raw coal) -->
<g id="node4" class="node">
<title>3,&#45;2 (Steam for tin, Coke from raw coal)</title>
<ellipse fill="none" stroke="black" cx="2299.97" cy="-3120.43" rx="194.97" ry="18"/>
<text text-anchor="middle" x="2299.97" y="-3116.73" font-family="Times,serif" font-size="14.00">3,&#45;2 (Steam for tin, Coke from raw coal)</text>
</g>
<!-- 10,5 ()&#45;&gt;3,&#45;2 (Steam for tin, Coke from raw coal) -->
<g id="edge3" class="edge">
<title>10,5 ()&#45;&gt;3,&#45;2 (Steam for tin, Coke from raw coal)</title>
<path fill="none" stroke="black" stroke-width="4.96" d="M489.03,-627.88C639.94,-835.59 2096.9,-2840.93 2280.9,-3094.19"/>
<polygon fill="black" stroke="black" stroke-width="4.96" points="2277.52,-3096.91 2286.91,-3102.45 2284.54,-3091.81 2277.52,-3096.91"/>
<text text-anchor="middle" x="1324.47" y="-1864.83" font-family="Times,serif" font-size="14.00">raw&#45;coal*981840</text>
</g>
<!-- 7,&#45;6 (Coalier &#39;n&#39; dustier) -->
<g id="node6" class="node">
<title>7,&#45;6 (Coalier &#39;n&#39; dustier)</title>
<ellipse fill="none" stroke="black" cx="2299.97" cy="-18" rx="120.78" ry="18"/>
<text text-anchor="middle" x="2299.97" y="-14.3" font-family="Times,serif" font-size="14.00">7,&#45;6 (Coalier &#39;n&#39; dustier)</text>
</g>
<!-- 10,5 ()&#45;&gt;7,&#45;6 (Coalier &#39;n&#39; dustier) -->
<g id="edge16" class="edge">
<title>10,5 ()&#45;&gt;7,&#45;6 (Coalier &#39;n&#39; dustier)</title>
<path fill="none" stroke="black" stroke-width="0.52" d="M509.62,-599.72C727.4,-528.96 1951.47,-131.24 2239.35,-37.7"/>
<polygon fill="black" stroke="black" stroke-width="0.52" points="2240.76,-40.92 2249.19,-34.5 2238.6,-34.26 2240.76,-40.92"/>
<text text-anchor="middle" x="1313.98" y="-322.51" font-family="Times,serif" font-size="14.00">raw&#45;coal*102960</text>
</g>
<!-- 8,&#45;9 (Coke from raw coal duplicacte) -->
<g id="node7" class="node">
<title>8,&#45;9 (Coke from raw coal duplicacte)</title>
<ellipse fill="none" stroke="black" cx="3426.99" cy="-1569.22" rx="178.97" ry="18"/>
<text text-anchor="middle" x="3426.99" y="-1565.52" font-family="Times,serif" font-size="14.00">8,&#45;9 (Coke from raw coal duplicacte)</text>
</g>
<!-- 10,5 ()&#45;&gt;8,&#45;9 (Coke from raw coal duplicacte) -->
<g id="edge6" class="edge">
<title>10,5 ()&#45;&gt;8,&#45;9 (Coke from raw coal duplicacte)</title>
<path fill="none" stroke="black" stroke-width="3.81" d="M509.54,-621.28C803.7,-716.86 2966.38,-1419.55 3364.2,-1548.81"/>
<polygon fill="black" stroke="black" stroke-width="3.81" points="3363.23,-1552.18 3373.82,-1551.94 3365.39,-1545.52 3363.23,-1552.18"/>
<text text-anchor="middle" x="1876.37" y="-1088.85" font-family="Times,serif" font-size="14.00">raw&#45;coal*753600</text>
</g>
<!-- &#45;5,&#45;1 (Coal and Coke and Syngas and Ash and Coke Oven Gas and...) -->
<g id="node8" class="node">
<title>&#45;5,&#45;1 (Coal and Coke and Syngas and Ash and Coke Oven Gas and...)</title>
<ellipse fill="none" stroke="black" cx="1291.93" cy="-3120.43" rx="325.74" ry="18"/>
<text text-anchor="middle" x="1291.93" y="-3116.73" font-family="Times,serif" font-size="14.00">&#45;5,&#45;1 (Coal and Coke and Syngas and Ash and Coke Oven Gas and...)</text>
</g>
<!-- 10,5 ()&#45;&gt;&#45;5,&#45;1 (Coal and Coke and Syngas and Ash and Coke Oven Gas and...) -->
<g id="edge7" class="edge">
<title>10,5 ()&#45;&gt;&#45;5,&#45;1 (Coal and Coke and Syngas and Ash and Coke Oven Gas and...)</title>
<path fill="none" stroke="black" stroke-width="0.91" d="M482.27,-628.57C550.8,-839.47 1198.06,-2831.53 1282.8,-3092.32"/>
<polygon fill="black" stroke="black" stroke-width="0.91" points="1279.57,-3093.73 1285.99,-3102.16 1286.23,-3091.56 1279.57,-3093.73"/>
<text text-anchor="middle" x="822.04" y="-1864.24" font-family="Times,serif" font-size="14.00">raw&#45;coal*180240</text>
</g>
<!-- 9,&#45;6 (Coal &#39;n&#39; dust) -->
<g id="node10" class="node">
<title>9,&#45;6 (Coal &#39;n&#39; dust)</title>
<ellipse fill="none" stroke="black" cx="164.91" cy="-1569.22" rx="95.58" ry="18"/>
<text text-anchor="middle" x="164.91" y="-1565.52" font-family="Times,serif" font-size="14.00">9,&#45;6 (Coal &#39;n&#39; dust)</text>
</g>
<!-- 10,5 ()&#45;&gt;9,&#45;6 (Coal &#39;n&#39; dust) -->
<g id="edge19" class="edge">
<title>10,5 ()&#45;&gt;9,&#45;6 (Coal &#39;n&#39; dust)</title>
<path fill="none" stroke="black" stroke-width="0.26" d="M470.6,-628.39C432.7,-745.05 220.64,-1397.68 173.99,-1541.27"/>
<polygon fill="black" stroke="black" stroke-width="0.26" points="170.56,-1540.49 170.8,-1551.08 177.22,-1542.65 170.56,-1540.49"/>
<text text-anchor="middle" x="266.29" y="-1088.63" font-family="Times,serif" font-size="14.00">raw&#45;coal*50880</text>
</g>
<!-- 6,&#45;3 (B Coal Mine) -->
<g id="node3" class="node">
<title>6,&#45;3 (B Coal Mine)</title>
<ellipse fill="none" stroke="black" cx="3115.49" cy="-2527.92" rx="94.78" ry="18"/>
<text text-anchor="middle" x="3115.49" y="-2524.22" font-family="Times,serif" font-size="14.00">6,&#45;3 (B Coal Mine)</text>
</g>
<!-- 6,&#45;3 (B Coal Mine)&#45;&gt;2,8 (Graphite) -->
<g id="edge2" class="edge">
<title>6,&#45;3 (B Coal Mine)&#45;&gt;2,8 (Graphite)</title>
<path fill="none" stroke="black" stroke-width="1.6" d="M3102.37,-2509.86C2948.76,-2298.43 1494.59,-296.94 1310.96,-44.19"/>
<polygon fill="black" stroke="black" stroke-width="1.6" points="1313.68,-41.98 1304.97,-35.94 1308.01,-46.09 1313.68,-41.98"/>
<text text-anchor="middle" x="2146.17" y="-1280.83" font-family="Times,serif" font-size="14.00">raw&#45;coal*317040</text>
</g>
<!-- 6,&#45;3 (B Coal Mine)&#45;&gt;3,&#45;2 (Steam for tin, Coke from raw coal) -->
<g id="edge15" class="edge">
<title>6,&#45;3 (B Coal Mine)&#45;&gt;3,&#45;2 (Steam for tin, Coke from raw coal)</title>
<path fill="none" stroke="black" stroke-width="0.66" d="M3091.09,-2545.65C2973.74,-2630.91 2467.7,-2998.57 2333.01,-3096.43"/>
<polygon fill="black" stroke="black" stroke-width="0.66" points="2330.71,-3093.77 2324.68,-3102.48 2334.83,-3099.43 2330.71,-3093.77"/>
<text text-anchor="middle" x="2651.55" y="-2824.84" font-family="Times,serif" font-size="14.00">raw&#45;coal*130560</text>
</g>
<!-- 6,&#45;3 (B Coal Mine)&#45;&gt;7,&#45;6 (Coalier &#39;n&#39; dustier) -->
<g id="edge5" class="edge">
<title>6,&#45;3 (B Coal Mine)&#45;&gt;7,&#45;6 (Coalier &#39;n&#39; dustier)</title>
<path fill="none" stroke="black" stroke-width="0.79" d="M3109.63,-2509.86C3041.1,-2298.96 2393.84,-306.9 2309.1,-46.11"/>
<polygon fill="black" stroke="black" stroke-width="0.79" points="2312.33,-44.7 2305.91,-36.27 2305.67,-46.87 2312.33,-44.7"/>
<text text-anchor="middle" x="2648.87" y="-1281.79" font-family="Times,serif" font-size="14.00">raw&#45;coal*155760</text>
</g>
<!-- 6,&#45;3 (B Coal Mine)&#45;&gt;8,&#45;9 (Coke from raw coal duplicacte) -->
<g id="edge12" class="edge">
<title>6,&#45;3 (B Coal Mine)&#45;&gt;8,&#45;9 (Coke from raw coal duplicacte)</title>
<path fill="none" stroke="black" stroke-width="1.18" d="M3121.44,-2509.62C3159.72,-2391.81 3371.37,-1740.41 3417.93,-1597.1"/>
<polygon fill="black" stroke="black" stroke-width="1.18" points="3421.35,-1597.91 3421.11,-1587.31 3414.7,-1595.74 3421.35,-1597.91"/>
<text text-anchor="middle" x="3209.19" y="-2057.16" font-family="Times,serif" font-size="14.00">raw&#45;coal*234000</text>
</g>
<!-- 6,&#45;3 (B Coal Mine)&#45;&gt;&#45;5,&#45;1 (Coal and Coke and Syngas and Ash and Coke Oven Gas and...) -->
<g id="edge14" class="edge">
<title>6,&#45;3 (B Coal Mine)&#45;&gt;&#45;5,&#45;1 (Coal and Coke and Syngas and Ash and Coke Oven Gas and...)</title>
<path fill="none" stroke="black" stroke-width="0.78" d="M3067.19,-2543.61C2814.47,-2625.73 1645.14,-3005.67 1356.48,-3099.46"/>
<polygon fill="black" stroke="black" stroke-width="0.78" points="1355.02,-3096.25 1346.59,-3102.67 1357.18,-3102.91 1355.02,-3096.25"/>
<text text-anchor="middle" x="2151.33" y="-2825.34" font-family="Times,serif" font-size="14.00">raw&#45;coal*154320</text>
</g>
<!-- 6,&#45;3 (B Coal Mine)&#45;&gt;9,&#45;6 (Coal &#39;n&#39; dust) -->
<g id="edge10" class="edge">
<title>6,&#45;3 (B Coal Mine)&#45;&gt;9,&#45;6 (Coal &#39;n&#39; dust)</title>
<path fill="none" stroke="black" stroke-width="0.53" d="M3067.65,-2512.37C2721.3,-2399.84 600.89,-1710.88 222.62,-1587.97"/>
<polygon fill="black" stroke="black" stroke-width="0.53" points="223.56,-1584.59 212.97,-1584.83 221.4,-1591.25 223.56,-1584.59"/>
<text text-anchor="middle" x="1584.63" y="-2053.97" font-family="Times,serif" font-size="14.00">raw&#45;coal*104400</text>
</g>
<!-- 8,&#45;1 () -->
<g id="node5" class="node">
<title>8,&#45;1 ()</title>
<ellipse fill="none" stroke="black" cx="3115.49" cy="-610.51" rx="38.19" ry="18"/>
<text text-anchor="middle" x="3115.49" y="-606.81" font-family="Times,serif" font-size="14.00">8,&#45;1 ()</text>
</g>
<!-- 8,&#45;1 ()&#45;&gt;2,8 (Graphite) -->
<g id="edge4" class="edge">
<title>8,&#45;1 ()&#45;&gt;2,8 (Graphite)</title>
<path fill="none" stroke="black" stroke-width="0.51" d="M3083.84,-600.23C2868.94,-530.4 1624.16,-125.95 1346.73,-35.81"/>
<polygon fill="black" stroke="black" stroke-width="0.51" points="1347.49,-32.37 1336.89,-32.61 1345.32,-39.03 1347.49,-32.37"/>
<text text-anchor="middle" x="2154.79" y="-321.82" font-family="Times,serif" font-size="14.00">raw&#45;coal*100368</text>
</g>
<!-- 8,&#45;1 ()&#45;&gt;3,&#45;2 (Steam for tin, Coke from raw coal) -->
<g id="edge8" class="edge">
<title>8,&#45;1 ()&#45;&gt;3,&#45;2 (Steam for tin, Coke from raw coal)</title>
<path fill="none" stroke="black" stroke-width="0.26" d="M3109.63,-628.57C3041.1,-839.47 2393.84,-2831.53 2309.1,-3092.32"/>
<polygon fill="black" stroke="black" stroke-width="0.26" points="2305.67,-3091.56 2305.91,-3102.16 2312.33,-3093.73 2305.67,-3091.56"/>
<text text-anchor="middle" x="2653.37" y="-1864.24" font-family="Times,serif" font-size="14.00">raw&#45;coal*51072</text>
</g>
<!-- 8,&#45;1 ()&#45;&gt;7,&#45;6 (Coalier &#39;n&#39; dustier) -->
<g id="edge13" class="edge">
<title>8,&#45;1 ()&#45;&gt;7,&#45;6 (Coalier &#39;n&#39; dustier)</title>
<path fill="none" stroke="black" stroke-width="0.51" d="M3094.51,-595.27C2983.88,-514.89 2468.17,-140.2 2332.66,-41.75"/>
<polygon fill="black" stroke="black" stroke-width="0.51" points="2334.44,-38.72 2324.29,-35.67 2330.32,-44.38 2334.44,-38.72"/>
<text text-anchor="middle" x="2653.09" y="-322.31" font-family="Times,serif" font-size="14.00">raw&#45;coal*101184</text>
</g>
<!-- 8,&#45;1 ()&#45;&gt;8,&#45;9 (Coke from raw coal duplicacte) -->
<g id="edge11" class="edge">
<title>8,&#45;1 ()&#45;&gt;8,&#45;9 (Coke from raw coal duplicacte)</title>
<path fill="none" stroke="black" stroke-width="0.79" d="M3121.3,-628.39C3159.21,-745.05 3371.26,-1397.68 3417.92,-1541.27"/>
<polygon fill="black" stroke="black" stroke-width="0.79" points="3414.68,-1542.65 3421.1,-1551.08 3421.34,-1540.49 3414.68,-1542.65"/>
<text text-anchor="middle" x="3209.11" y="-1088.63" font-family="Times,serif" font-size="14.00">raw&#45;coal*157248</text>
</g>
<!-- 8,&#45;1 ()&#45;&gt;&#45;5,&#45;1 (Coal and Coke and Syngas and Ash and Coke Oven Gas and...) -->
<g id="edge18" class="edge">
<title>8,&#45;1 ()&#45;&gt;&#45;5,&#45;1 (Coal and Coke and Syngas and Ash and Coke Oven Gas and...)</title>
<path fill="none" stroke="black" stroke-width="1.03" d="M3102.87,-627.88C2952.04,-835.48 1496.5,-2838.87 1311.28,-3093.79"/>
<polygon fill="black" stroke="black" stroke-width="1.03" points="1308.28,-3091.97 1305.23,-3102.12 1313.94,-3096.09 1308.28,-3091.97"/>
<text text-anchor="middle" x="2146.58" y="-1864.64" font-family="Times,serif" font-size="14.00">raw&#45;coal*204672</text>
</g>
<!-- 8,&#45;1 ()&#45;&gt;9,&#45;6 (Coal &#39;n&#39; dust) -->
<g id="edge17" class="edge">
<title>8,&#45;1 ()&#45;&gt;9,&#45;6 (Coal &#39;n&#39; dust)</title>
<path fill="none" stroke="black" stroke-width="0.77" d="M3083.86,-620.79C2794.38,-714.85 607.1,-1425.54 222.55,-1550.49"/>
<polygon fill="black" stroke="black" stroke-width="0.77" points="221.44,-1547.17 213.01,-1553.59 223.6,-1553.82 221.44,-1547.17"/>
<text text-anchor="middle" x="1592.7" y="-1089.44" font-family="Times,serif" font-size="14.00">raw&#45;coal*152784</text>
</g>
<!-- &#45;6,6 (coal pickup train station, item=ore&#45;chromium The loneliest chromium, titanium pickup station) -->
<g id="node9" class="node">
<title>&#45;6,6 (coal pickup train station, item=ore&#45;chromium The loneliest chromium, titanium pickup station)</title>
<ellipse fill="none" stroke="black" cx="476.41" cy="-2527.92" rx="476.32" ry="18"/>
<text text-anchor="middle" x="476.41" y="-2524.22" font-family="Times,serif" font-size="14.00">&#45;6,6 (coal pickup train station, item=ore&#45;chromium The loneliest chromium, titanium pickup station)</text>
</g>
<!-- &#45;6,6 (coal pickup train station, item=ore&#45;chromium The loneliest chromium, titanium pickup station)&#45;&gt;2,8 (Graphite) -->
<g id="edge22" class="edge">
<title>&#45;6,6 (coal pickup train station, item=ore&#45;chromium The loneliest chromium, titanium pickup station)&#45;&gt;2,8 (Graphite)</title>
<path fill="none" stroke="black" stroke-width="0.03" d="M482.27,-2509.86C550.8,-2298.96 1198.06,-306.9 1282.8,-46.11"/>
<polygon fill="black" stroke="black" stroke-width="0.03" points="1286.23,-46.87 1285.99,-36.27 1279.57,-44.7 1286.23,-46.87"/>
<text text-anchor="middle" x="831.04" y="-1281.79" font-family="Times,serif" font-size="14.00">raw&#45;coal*5536</text>
</g>
<!-- &#45;6,6 (coal pickup train station, item=ore&#45;chromium The loneliest chromium, titanium pickup station)&#45;&gt;7,&#45;6 (Coalier &#39;n&#39; dustier) -->
<g id="edge21" class="edge">
<title>&#45;6,6 (coal pickup train station, item=ore&#45;chromium The loneliest chromium, titanium pickup station)&#45;&gt;7,&#45;6 (Coalier &#39;n&#39; dustier)</title>
<path fill="none" stroke="black" stroke-width="0.26" d="M489.53,-2509.86C643.14,-2298.43 2097.31,-296.94 2280.94,-44.19"/>
<polygon fill="black" stroke="black" stroke-width="0.26" points="2283.89,-46.09 2286.93,-35.94 2278.22,-41.98 2283.89,-46.09"/>
<text text-anchor="middle" x="1329.23" y="-1280.83" font-family="Times,serif" font-size="14.00">raw&#45;coal*50656</text>
</g>
<!-- &#45;6,6 (coal pickup train station, item=ore&#45;chromium The loneliest chromium, titanium pickup station)&#45;&gt;&#45;5,&#45;1 (Coal and Coke and Syngas and Ash and Coke Oven Gas and...) -->
<g id="edge20" class="edge">
<title>&#45;6,6 (coal pickup train station, item=ore&#45;chromium The loneliest chromium, titanium pickup station)&#45;&gt;&#45;5,&#45;1 (Coal and Coke and Syngas and Ash and Coke Oven Gas and...)</title>
<path fill="none" stroke="black" stroke-width="0.39" d="M501.26,-2545.98C619.33,-2631.76 1123.43,-2998.01 1258.52,-3096.15"/>
<polygon fill="black" stroke="black" stroke-width="0.39" points="1256.72,-3099.18 1266.87,-3102.22 1260.84,-3093.52 1256.72,-3099.18"/>
<text text-anchor="middle" x="823.89" y="-2824.86" font-family="Times,serif" font-size="14.00">raw&#45;coal*76544</text>
</g>
<!-- &#45;6,6 (coal pickup train station, item=ore&#45;chromium The loneliest chromium, titanium pickup station)&#45;&gt;9,&#45;6 (Coal &#39;n&#39; dust) -->
<g id="edge9" class="edge">
<title>&#45;6,6 (coal pickup train station, item=ore&#45;chromium The loneliest chromium, titanium pickup station)&#45;&gt;9,&#45;6 (Coal &#39;n&#39; dust)</title>
<path fill="none" stroke="black" stroke-width="0.26" d="M470.46,-2509.62C432.18,-2391.81 220.53,-1740.41 173.97,-1597.1"/>
<polygon fill="black" stroke="black" stroke-width="0.26" points="177.21,-1595.74 170.79,-1587.31 170.55,-1597.91 177.21,-1595.74"/>
<text text-anchor="middle" x="266.22" y="-2057.16" font-family="Times,serif" font-size="14.00">raw&#45;coal*50816</text>
</g>
<!-- 4,14 (A Coal mine, Coke oven gas wasted by venting, Coke direct from mine, A Coal mine?, A Coal mine?!) -->
<g id="node11" class="node">
<title>4,14 (A Coal mine, Coke oven gas wasted by venting, Coke direct from mine, A Coal mine?, A Coal mine?!)</title>
<ellipse fill="none" stroke="black" cx="4002.7" cy="-1569.22" rx="503.91" ry="18"/>
<text text-anchor="middle" x="4002.7" y="-1565.52" font-family="Times,serif" font-size="14.00">4,14 (A Coal mine, Coke oven gas wasted by venting, Coke direct from mine, A Coal mine?, A Coal mine?!)</text>
</g>
<!-- 4,14 (A Coal mine, Coke oven gas wasted by venting, Coke direct from mine, A Coal mine?, A Coal mine?!)&#45;&gt;8,&#45;9 (Coke from raw coal duplicacte) -->
<g id="edge23" class="edge">
<title>4,14 (A Coal mine, Coke oven gas wasted by venting, Coke direct from mine, A Coal mine?, A Coal mine?!)&#45;&gt;8,&#45;9 (Coke from raw coal duplicacte)</title>
<path fill="none" stroke="black" stroke-width="0.13" d="M3498.74,-1569.22C3498.7,-1569.22 3498.66,-1569.22 3498.62,-1569.22"/>
<polygon fill="black" stroke="black" stroke-width="0.13" points="3508.49,-1565.72 3498.49,-1569.22 3508.49,-1572.72 3508.49,-1565.72"/>
<text text-anchor="middle" x="3442.68" y="-1573.02" font-family="Times,serif" font-size="14.00">raw&#45;coal*25200</text>
</g>
</g>
</svg>
