<?xml version="1.0" encoding="UTF-8" standalone="no"?>
<!DOCTYPE svg PUBLIC "-//W3C//DTD SVG 1.1//EN"
 "http://www.w3.org/Graphics/SVG/1.1/DTD/svg11.dtd">
<!-- Generated by graphviz version 2.43.0 (0)
 -->
<!-- Title: %3 Pages: 1 -->
<svg width="2008pt" height="923pt"
 viewBox="0.00 0.00 2007.59 923.43" xmlns="http://www.w3.org/2000/svg" xmlns:xlink="http://www.w3.org/1999/xlink">
<g id="graph0" class="graph" transform="scale(1 1) rotate(0) translate(4 919.43)">
<title>%3</title>
<polygon fill="white" stroke="transparent" points="-4,4 -4,-919.43 2003.59,-919.43 2003.59,4 -4,4"/>
<!-- 8,6 () -->
<g id="node1" class="node">
<title>8,6 ()</title>
<ellipse fill="none" stroke="black" cx="761.3" cy="-759.33" rx="35.19" ry="18"/>
<text text-anchor="middle" x="761.3" y="-755.63" font-family="Times,serif" font-size="14.00">8,6 ()</text>
</g>
<!-- &#45;2,&#45;10 (Iron ore dust duplicate) -->
<g id="node2" class="node">
<title>&#45;2,&#45;10 (Iron ore dust duplicate)</title>
<ellipse fill="none" stroke="black" cx="920.18" cy="-429.4" rx="153.27" ry="18"/>
<text text-anchor="middle" x="920.18" y="-425.7" font-family="Times,serif" font-size="14.00">&#45;2,&#45;10 (Iron ore dust duplicate)</text>
</g>
<!-- 8,6 ()&#45;&gt;&#45;2,&#45;10 (Iron ore dust duplicate) -->
<g id="edge1" class="edge">
<title>8,6 ()&#45;&gt;&#45;2,&#45;10 (Iron ore dust duplicate)</title>
<path fill="none" stroke="black" stroke-width="1.13" d="M769.84,-741.59C796.02,-687.23 875.27,-522.67 906.92,-456.95"/>
<polygon fill="black" stroke="black" stroke-width="1.13" points="910.22,-458.16 911.4,-447.63 903.91,-455.13 910.22,-458.16"/>
<text text-anchor="middle" x="779.38" y="-603.07" font-family="Times,serif" font-size="14.00">iron&#45;ore*712080</text>
</g>
<!-- &#45;6,7 (Iron ore dust) -->
<g id="node4" class="node">
<title>&#45;6,7 (Iron ore dust)</title>
<ellipse fill="none" stroke="black" cx="118" cy="-612.5" rx="98.58" ry="18"/>
<text text-anchor="middle" x="118" y="-608.8" font-family="Times,serif" font-size="14.00">&#45;6,7 (Iron ore dust)</text>
</g>
<!-- 8,6 ()&#45;&gt;&#45;6,7 (Iron ore dust) -->
<g id="edge5" class="edge">
<title>8,6 ()&#45;&gt;&#45;6,7 (Iron ore dust)</title>
<path fill="none" stroke="black" stroke-width="1.51" d="M728.96,-751.94C629.9,-729.34 329.02,-660.66 189.92,-628.91"/>
<polygon fill="black" stroke="black" stroke-width="1.51" points="190.32,-625.41 179.79,-626.6 188.76,-632.24 190.32,-625.41"/>
<text text-anchor="middle" x="400.44" y="-694.23" font-family="Times,serif" font-size="14.00">iron&#45;ore*949200</text>
</g>
<!-- 1,10 (Iron Ore Dust) -->
<g id="node8" class="node">
<title>1,10 (Iron Ore Dust)</title>
<ellipse fill="none" stroke="black" cx="871.43" cy="-897.43" rx="104.78" ry="18"/>
<text text-anchor="middle" x="871.43" y="-893.73" font-family="Times,serif" font-size="14.00">1,10 (Iron Ore Dust)</text>
</g>
<!-- 8,6 ()&#45;&gt;1,10 (Iron Ore Dust) -->
<g id="edge11" class="edge">
<title>8,6 ()&#45;&gt;1,10 (Iron Ore Dust)</title>
<path fill="none" stroke="black" stroke-width="0.13" d="M774.8,-776.26C793.75,-800.02 828.39,-843.46 850.64,-871.36"/>
<polygon fill="black" stroke="black" stroke-width="0.13" points="848.15,-873.84 857.12,-879.48 853.62,-869.48 848.15,-873.84"/>
<text text-anchor="middle" x="758.22" y="-827.61" font-family="Times,serif" font-size="14.00">iron&#45;ore*80880</text>
</g>
<!-- 10,8 () -->
<g id="node3" class="node">
<title>10,8 ()</title>
<ellipse fill="none" stroke="black" cx="761.3" cy="-99.48" rx="40.89" ry="18"/>
<text text-anchor="middle" x="761.3" y="-95.78" font-family="Times,serif" font-size="14.00">10,8 ()</text>
</g>
<!-- 10,8 ()&#45;&gt;&#45;2,&#45;10 (Iron ore dust duplicate) -->
<g id="edge8" class="edge">
<title>10,8 ()&#45;&gt;&#45;2,&#45;10 (Iron ore dust duplicate)</title>
<path fill="none" stroke="black" stroke-width="1.35" d="M769.84,-117.22C796.02,-171.58 875.27,-336.14 906.92,-401.86"/>
<polygon fill="black" stroke="black" stroke-width="1.35" points="903.91,-403.68 911.4,-411.17 910.22,-400.65 903.91,-403.68"/>
<text text-anchor="middle" x="779.38" y="-263.34" font-family="Times,serif" font-size="14.00">iron&#45;ore*851280</text>
</g>
<!-- 10,8 ()&#45;&gt;&#45;6,7 (Iron ore dust) -->
<g id="edge2" class="edge">
<title>10,8 ()&#45;&gt;&#45;6,7 (Iron ore dust)</title>
<path fill="none" stroke="black" stroke-width="1.79" d="M741.34,-115.4C648.65,-189.32 259.98,-499.27 148.19,-588.42"/>
<polygon fill="black" stroke="black" stroke-width="1.79" points="145.97,-585.72 140.33,-594.69 150.33,-591.19 145.97,-585.72"/>
<text text-anchor="middle" x="381.27" y="-355.71" font-family="Times,serif" font-size="14.00">iron&#45;ore*1126560</text>
</g>
<!-- 11,8 () -->
<g id="node5" class="node">
<title>11,8 ()</title>
<ellipse fill="none" stroke="black" cx="404.29" cy="-840.81" rx="40.89" ry="18"/>
<text text-anchor="middle" x="404.29" y="-837.11" font-family="Times,serif" font-size="14.00">11,8 ()</text>
</g>
<!-- 11,8 ()&#45;&gt;&#45;2,&#45;10 (Iron ore dust duplicate) -->
<g id="edge7" class="edge">
<title>11,8 ()&#45;&gt;&#45;2,&#45;10 (Iron ore dust duplicate)</title>
<path fill="none" stroke="black" stroke-width="2.09" d="M424.2,-824.93C503.11,-762.01 794.25,-529.83 889.67,-453.74"/>
<polygon fill="black" stroke="black" stroke-width="2.09" points="892.13,-456.25 897.77,-447.28 887.76,-450.78 892.13,-456.25"/>
<text text-anchor="middle" x="593.44" y="-643.13" font-family="Times,serif" font-size="14.00">iron&#45;ore*1312320</text>
</g>
<!-- 11,8 ()&#45;&gt;&#45;6,7 (Iron ore dust) -->
<g id="edge3" class="edge">
<title>11,8 ()&#45;&gt;&#45;6,7 (Iron ore dust)</title>
<path fill="none" stroke="black" stroke-width="1.96" d="M384.16,-824.76C334.67,-785.28 206.82,-683.33 148.19,-636.57"/>
<polygon fill="black" stroke="black" stroke-width="1.96" points="150.06,-633.59 140.06,-630.09 145.69,-639.06 150.06,-633.59"/>
<text text-anchor="middle" x="202.67" y="-734.46" font-family="Times,serif" font-size="14.00">iron&#45;ore*1230960</text>
</g>
<!-- &#45;5,&#45;7 (fluid=propene Propene) -->
<g id="node6" class="node">
<title>&#45;5,&#45;7 (fluid=propene Propene)</title>
<ellipse fill="none" stroke="black" cx="404.29" cy="-18" rx="149.47" ry="18"/>
<text text-anchor="middle" x="404.29" y="-14.3" font-family="Times,serif" font-size="14.00">&#45;5,&#45;7 (fluid=propene Propene)</text>
</g>
<!-- &#45;5,&#45;7 (fluid=propene Propene)&#45;&gt;&#45;2,&#45;10 (Iron ore dust duplicate) -->
<g id="edge4" class="edge">
<title>&#45;5,&#45;7 (fluid=propene Propene)&#45;&gt;&#45;2,&#45;10 (Iron ore dust duplicate)</title>
<path fill="none" stroke="black" stroke-width="0.84" d="M426.79,-35.94C509.25,-101.7 794.99,-329.57 889.54,-404.97"/>
<polygon fill="black" stroke="black" stroke-width="0.84" points="887.56,-407.87 897.56,-411.37 891.93,-402.4 887.56,-407.87"/>
<text text-anchor="middle" x="599.16" y="-224.25" font-family="Times,serif" font-size="14.00">iron&#45;ore*527811</text>
</g>
<!-- &#45;5,&#45;7 (fluid=propene Propene)&#45;&gt;&#45;6,7 (Iron ore dust) -->
<g id="edge9" class="edge">
<title>&#45;5,&#45;7 (fluid=propene Propene)&#45;&gt;&#45;6,7 (Iron ore dust)</title>
<path fill="none" stroke="black" stroke-width="0.49" d="M395.57,-36.12C354.49,-121.42 180.29,-483.16 131.03,-585.45"/>
<polygon fill="black" stroke="black" stroke-width="0.49" points="127.84,-583.99 126.66,-594.52 134.15,-587.03 127.84,-583.99"/>
<text text-anchor="middle" x="204.3" y="-314.58" font-family="Times,serif" font-size="14.00">iron&#45;ore*308068</text>
</g>
<!-- 7,6 () -->
<g id="node7" class="node">
<title>7,6 ()</title>
<ellipse fill="none" stroke="black" cx="118" cy="-246.31" rx="35.19" ry="18"/>
<text text-anchor="middle" x="118" y="-242.61" font-family="Times,serif" font-size="14.00">7,6 ()</text>
</g>
<!-- 7,6 ()&#45;&gt;&#45;2,&#45;10 (Iron ore dust duplicate) -->
<g id="edge6" class="edge">
<title>7,6 ()&#45;&gt;&#45;2,&#45;10 (Iron ore dust duplicate)</title>
<path fill="none" stroke="black" stroke-width="0.25" d="M150.44,-253.72C267.11,-280.35 667.56,-371.75 840.07,-411.12"/>
<polygon fill="black" stroke="black" stroke-width="0.25" points="839.33,-414.54 849.86,-413.35 840.89,-407.72 839.33,-414.54"/>
<text text-anchor="middle" x="436.26" y="-336.22" font-family="Times,serif" font-size="14.00">iron&#45;ore*156240</text>
</g>
<!-- 7,6 ()&#45;&gt;&#45;6,7 (Iron ore dust) -->
<g id="edge10" class="edge">
<title>7,6 ()&#45;&gt;&#45;6,7 (Iron ore dust)</title>
<path fill="none" stroke="black" stroke-width="0.42" d="M118,-264.47C118,-323.77 118,-512.05 118,-584.09"/>
<polygon fill="black" stroke="black" stroke-width="0.42" points="114.5,-584.23 118,-594.23 121.5,-584.23 114.5,-584.23"/>
<text text-anchor="middle" x="59" y="-428.08" font-family="Times,serif" font-size="14.00">iron&#45;ore*264000</text>
</g>
<!-- 4,14 (A Coal mine, Coke oven gas wasted by venting, Coke direct from mine, A Coal mine?, A Coal mine?!) -->
<g id="node9" class="node">
<title>4,14 (A Coal mine, Coke oven gas wasted by venting, Coke direct from mine, A Coal mine?, A Coal mine?!)</title>
<ellipse fill="none" stroke="black" cx="1495.89" cy="-429.4" rx="503.91" ry="18"/>
<text text-anchor="middle" x="1495.89" y="-425.7" font-family="Times,serif" font-size="14.00">4,14 (A Coal mine, Coke oven gas wasted by venting, Coke direct from mine, A Coal mine?, A Coal mine?!)</text>
</g>
<!-- 4,14 (A Coal mine, Coke oven gas wasted by venting, Coke direct from mine, A Coal mine?, A Coal mine?!)&#45;&gt;&#45;2,&#45;10 (Iron ore dust duplicate) -->
<g id="edge12" class="edge">
<title>4,14 (A Coal mine, Coke oven gas wasted by venting, Coke direct from mine, A Coal mine?, A Coal mine?!)&#45;&gt;&#45;2,&#45;10 (Iron ore dust duplicate)</title>
<path fill="none" stroke="black" stroke-width="0.05" d="M991.93,-429.4C991.89,-429.4 991.84,-429.4 991.8,-429.4"/>
<polygon fill="black" stroke="black" stroke-width="0.05" points="1001.68,-425.91 991.67,-429.4 1001.67,-432.91 1001.68,-425.91"/>
<text text-anchor="middle" x="937.37" y="-433.2" font-family="Times,serif" font-size="14.00">iron&#45;ore*32592</text>
</g>
</g>
</svg>
