<?xml version="1.0" encoding="UTF-8" standalone="no"?>
<!DOCTYPE svg PUBLIC "-//W3C//DTD SVG 1.1//EN"
 "http://www.w3.org/Graphics/SVG/1.1/DTD/svg11.dtd">
<!-- Generated by graphviz version 2.43.0 (0)
 -->
<!-- Title: %3 Pages: 1 -->
<svg width="968pt" height="745pt"
 viewBox="0.00 0.00 967.68 745.31" xmlns="http://www.w3.org/2000/svg" xmlns:xlink="http://www.w3.org/1999/xlink">
<g id="graph0" class="graph" transform="scale(1 1) rotate(0) translate(4 741.31)">
<title>%3</title>
<polygon fill="white" stroke="transparent" points="-4,4 -4,-741.31 963.68,-741.31 963.68,4 -4,4"/>
<!-- 3,&#45;1 (Nitrogen, Oxygen) -->
<g id="node1" class="node">
<title>3,&#45;1 (Nitrogen, Oxygen)</title>
<ellipse fill="none" stroke="black" cx="512.01" cy="-368.6" rx="120.48" ry="18"/>
<text text-anchor="middle" x="512.01" y="-364.9" font-family="Times,serif" font-size="14.00">3,&#45;1 (Nitrogen, Oxygen)</text>
</g>
<!-- &#45;2,9 (molten steel) -->
<g id="node2" class="node">
<title>&#45;2,9 (molten steel)</title>
<ellipse fill="none" stroke="black" cx="864.13" cy="-368.6" rx="95.58" ry="18"/>
<text text-anchor="middle" x="864.13" y="-364.9" font-family="Times,serif" font-size="14.00">&#45;2,9 (molten steel)</text>
</g>
<!-- 3,&#45;1 (Nitrogen, Oxygen)&#45;&gt;&#45;2,9 (molten steel) -->
<g id="edge1" class="edge">
<title>3,&#45;1 (Nitrogen, Oxygen)&#45;&gt;&#45;2,9 (molten steel)</title>
<path fill="none" stroke="black" stroke-width="2.46" d="M632.7,-368.6C673.45,-368.6 718.6,-368.6 758.13,-368.6"/>
<polygon fill="black" stroke="black" stroke-width="2.46" points="758.32,-372.1 768.32,-368.6 758.32,-365.1 758.32,-372.1"/>
<text text-anchor="middle" x="695.41" y="-357.4" font-family="Times,serif" font-size="14.00">oxygen&#45;barrel*114417</text>
</g>
<!-- 2,10 (Nickel plate) -->
<g id="node3" class="node">
<title>2,10 (Nickel plate)</title>
<ellipse fill="none" stroke="black" cx="543.49" cy="-719.31" rx="96.68" ry="18"/>
<text text-anchor="middle" x="543.49" y="-715.61" font-family="Times,serif" font-size="14.00">2,10 (Nickel plate)</text>
</g>
<!-- 3,&#45;1 (Nitrogen, Oxygen)&#45;&gt;2,10 (Nickel plate) -->
<g id="edge2" class="edge">
<title>3,&#45;1 (Nitrogen, Oxygen)&#45;&gt;2,10 (Nickel plate)</title>
<path fill="none" stroke="black" stroke-width="0.16" d="M513.66,-386.96C518.82,-444.49 534.71,-621.51 540.94,-690.95"/>
<polygon fill="black" stroke="black" stroke-width="0.16" points="537.48,-691.48 541.86,-701.13 544.45,-690.86 537.48,-691.48"/>
<text text-anchor="middle" x="456.3" y="-542.75" font-family="Times,serif" font-size="14.00">oxygen&#45;barrel*7406</text>
</g>
<!-- 2,&#45;2 (Tin Plate, Organic Solvent) -->
<g id="node4" class="node">
<title>2,&#45;2 (Tin Plate, Organic Solvent)</title>
<ellipse fill="none" stroke="black" cx="159.89" cy="-367.3" rx="159.77" ry="18"/>
<text text-anchor="middle" x="159.89" y="-363.6" font-family="Times,serif" font-size="14.00">2,&#45;2 (Tin Plate, Organic Solvent)</text>
</g>
<!-- 3,&#45;1 (Nitrogen, Oxygen)&#45;&gt;2,&#45;2 (Tin Plate, Organic Solvent) -->
<g id="edge3" class="edge">
<title>3,&#45;1 (Nitrogen, Oxygen)&#45;&gt;2,&#45;2 (Tin Plate, Organic Solvent)</title>
<path fill="none" stroke="black" stroke-width="0.09" d="M391.32,-368.15C371.56,-368.08 350.76,-368 330.07,-367.92"/>
<polygon fill="black" stroke="black" stroke-width="0.09" points="329.94,-364.42 319.93,-367.89 329.92,-371.42 329.94,-364.42"/>
<text text-anchor="middle" x="325.2" y="-356.84" font-family="Times,serif" font-size="14.00">oxygen&#45;barrel*4416</text>
</g>
<!-- 1,12 (Molten Iron) -->
<g id="node5" class="node">
<title>1,12 (Molten Iron)</title>
<ellipse fill="none" stroke="black" cx="544.78" cy="-18" rx="95.58" ry="18"/>
<text text-anchor="middle" x="544.78" y="-14.3" font-family="Times,serif" font-size="14.00">1,12 (Molten Iron)</text>
</g>
<!-- 3,&#45;1 (Nitrogen, Oxygen)&#45;&gt;1,12 (Molten Iron) -->
<g id="edge4" class="edge">
<title>3,&#45;1 (Nitrogen, Oxygen)&#45;&gt;1,12 (Molten Iron)</title>
<path fill="none" stroke="black" stroke-width="1.28" d="M513.72,-350.24C519.1,-292.73 535.64,-115.77 542.13,-46.36"/>
<polygon fill="black" stroke="black" stroke-width="1.28" points="545.64,-46.46 543.08,-36.17 538.67,-45.81 545.64,-46.46"/>
<text text-anchor="middle" x="452.43" y="-202.1" font-family="Times,serif" font-size="14.00">oxygen&#45;barrel*59717</text>
</g>
</g>
</svg>
