<?xml version="1.0" encoding="UTF-8" standalone="no"?>
<!DOCTYPE svg PUBLIC "-//W3C//DTD SVG 1.1//EN"
 "http://www.w3.org/Graphics/SVG/1.1/DTD/svg11.dtd">
<!-- Generated by graphviz version 2.43.0 (0)
 -->
<!-- Title: %3 Pages: 1 -->
<svg width="634pt" height="545pt"
 viewBox="0.00 0.00 634.38 544.92" xmlns="http://www.w3.org/2000/svg" xmlns:xlink="http://www.w3.org/1999/xlink">
<g id="graph0" class="graph" transform="scale(1 1) rotate(0) translate(4 540.92)">
<title>%3</title>
<polygon fill="white" stroke="transparent" points="-4,4 -4,-540.92 630.38,-540.92 630.38,4 -4,4"/>
<!-- 3,&#45;1 (Nitrogen, Oxygen) -->
<g id="node1" class="node">
<title>3,&#45;1 (Nitrogen, Oxygen)</title>
<ellipse fill="none" stroke="black" cx="241.76" cy="-268.78" rx="120.48" ry="18"/>
<text text-anchor="middle" x="241.76" y="-265.08" font-family="Times,serif" font-size="14.00">3,&#45;1 (Nitrogen, Oxygen)</text>
</g>
<!-- 1,12 (Molten Iron) -->
<g id="node2" class="node">
<title>1,12 (Molten Iron)</title>
<ellipse fill="none" stroke="black" cx="530.84" cy="-268.78" rx="95.58" ry="18"/>
<text text-anchor="middle" x="530.84" y="-265.08" font-family="Times,serif" font-size="14.00">1,12 (Molten Iron)</text>
</g>
<!-- 3,&#45;1 (Nitrogen, Oxygen)&#45;&gt;1,12 (Molten Iron) -->
<g id="edge1" class="edge">
<title>3,&#45;1 (Nitrogen, Oxygen)&#45;&gt;1,12 (Molten Iron)</title>
<path fill="none" stroke="black" stroke-width="1.19" d="M362.26,-268.78C383.07,-268.78 404.56,-268.78 424.94,-268.78"/>
<polygon fill="black" stroke="black" stroke-width="1.19" points="425.17,-272.28 435.17,-268.78 425.17,-265.28 425.17,-272.28"/>
<text text-anchor="middle" x="393.6" y="-257.58" font-family="Times,serif" font-size="14.00">oxygen&#45;barrel*15600</text>
</g>
<!-- 2,10 (Nickel plate) -->
<g id="node3" class="node">
<title>2,10 (Nickel plate)</title>
<ellipse fill="none" stroke="black" cx="96.84" cy="-518.92" rx="96.68" ry="18"/>
<text text-anchor="middle" x="96.84" y="-515.22" font-family="Times,serif" font-size="14.00">2,10 (Nickel plate)</text>
</g>
<!-- 3,&#45;1 (Nitrogen, Oxygen)&#45;&gt;2,10 (Nickel plate) -->
<g id="edge2" class="edge">
<title>3,&#45;1 (Nitrogen, Oxygen)&#45;&gt;2,10 (Nickel plate)</title>
<path fill="none" stroke="black" stroke-width="0.21" d="M231.33,-286.77C206.22,-330.11 142.26,-440.52 112.5,-491.88"/>
<polygon fill="black" stroke="black" stroke-width="0.21" points="109.35,-490.35 107.36,-500.76 115.41,-493.86 109.35,-490.35"/>
<text text-anchor="middle" x="100.92" y="-393.13" font-family="Times,serif" font-size="14.00">oxygen&#45;barrel*2726</text>
</g>
<!-- &#45;2,9 (molten steel) -->
<g id="node4" class="node">
<title>&#45;2,9 (molten steel)</title>
<ellipse fill="none" stroke="black" cx="97.97" cy="-18" rx="95.58" ry="18"/>
<text text-anchor="middle" x="97.97" y="-14.3" font-family="Times,serif" font-size="14.00">&#45;2,9 (molten steel)</text>
</g>
<!-- 3,&#45;1 (Nitrogen, Oxygen)&#45;&gt;&#45;2,9 (molten steel) -->
<g id="edge3" class="edge">
<title>3,&#45;1 (Nitrogen, Oxygen)&#45;&gt;&#45;2,9 (molten steel)</title>
<path fill="none" stroke="black" stroke-width="1.6" d="M231.42,-250.75C206.5,-207.29 143.03,-96.6 113.51,-45.11"/>
<polygon fill="black" stroke="black" stroke-width="1.6" points="116.42,-43.14 108.41,-36.21 110.35,-46.63 116.42,-43.14"/>
<text text-anchor="middle" x="96.96" y="-151.73" font-family="Times,serif" font-size="14.00">oxygen&#45;barrel*20880</text>
</g>
</g>
</svg>
