<?xml version="1.0" encoding="UTF-8" standalone="no"?>
<!DOCTYPE svg PUBLIC "-//W3C//DTD SVG 1.1//EN"
 "http://www.w3.org/Graphics/SVG/1.1/DTD/svg11.dtd">
<!-- Generated by graphviz version 2.43.0 (0)
 -->
<!-- Title: %3 Pages: 1 -->
<svg width="1635pt" height="1161pt"
 viewBox="0.00 0.00 1634.61 1160.68" xmlns="http://www.w3.org/2000/svg" xmlns:xlink="http://www.w3.org/1999/xlink">
<g id="graph0" class="graph" transform="scale(1 1) rotate(0) translate(4 1156.68)">
<title>%3</title>
<polygon fill="white" stroke="transparent" points="-4,4 -4,-1156.68 1630.61,-1156.68 1630.61,4 -4,4"/>
<!-- 1,6 (Sodium Hydroxide, These new bullets are fun, Limestone) -->
<g id="node1" class="node">
<title>1,6 (Sodium Hydroxide, These new bullets are fun, Limestone)</title>
<ellipse fill="none" stroke="black" cx="393.85" cy="-18" rx="301.65" ry="18"/>
<text text-anchor="middle" x="393.85" y="-14.3" font-family="Times,serif" font-size="14.00">1,6 (Sodium Hydroxide, These new bullets are fun, Limestone)</text>
</g>
<!-- 0,0 (LE BUS) -->
<g id="node2" class="node">
<title>0,0 (LE BUS)</title>
<ellipse fill="none" stroke="black" cx="71.49" cy="-576.34" rx="71.49" ry="18"/>
<text text-anchor="middle" x="71.49" y="-572.64" font-family="Times,serif" font-size="14.00">0,0 (LE BUS)</text>
</g>
<!-- 1,6 (Sodium Hydroxide, These new bullets are fun, Limestone)&#45;&gt;0,0 (LE BUS) -->
<g id="edge1" class="edge">
<title>1,6 (Sodium Hydroxide, These new bullets are fun, Limestone)&#45;&gt;0,0 (LE BUS)</title>
<path fill="none" stroke="black" stroke-width="0.91" d="M383.31,-36.26C336,-118.2 143.16,-452.2 86.95,-549.58"/>
<polygon fill="black" stroke="black" stroke-width="0.91" points="83.76,-548.09 81.79,-558.5 89.82,-551.59 83.76,-548.09"/>
<text text-anchor="middle" x="174.13" y="-296.72" font-family="Times,serif" font-size="14.00">limestone*54167</text>
</g>
<!-- &#45;5,&#45;4 (low priority (slaked)? lime) -->
<g id="node4" class="node">
<title>&#45;5,&#45;4 (low priority (slaked)? lime)</title>
<ellipse fill="none" stroke="black" cx="1038.57" cy="-18" rx="162.47" ry="18"/>
<text text-anchor="middle" x="1038.57" y="-14.3" font-family="Times,serif" font-size="14.00">&#45;5,&#45;4 (low priority (slaked)? lime)</text>
</g>
<!-- 1,6 (Sodium Hydroxide, These new bullets are fun, Limestone)&#45;&gt;&#45;5,&#45;4 (low priority (slaked)? lime) -->
<g id="edge3" class="edge">
<title>1,6 (Sodium Hydroxide, These new bullets are fun, Limestone)&#45;&gt;&#45;5,&#45;4 (low priority (slaked)? lime)</title>
<path fill="none" stroke="black" stroke-width="0.53" d="M695.45,-18C753.94,-18 813.36,-18 865.94,-18"/>
<polygon fill="black" stroke="black" stroke-width="0.53" points="866.02,-21.5 876.02,-18 866.02,-14.5 866.02,-21.5"/>
<text text-anchor="middle" x="811.19" y="-6.8" font-family="Times,serif" font-size="14.00">limestone*31936</text>
</g>
<!-- &#45;2,6 (Wrong ratio of Calcium Carbide to Acetalene) -->
<g id="node6" class="node">
<title>&#45;2,6 (Wrong ratio of Calcium Carbide to Acetalene)</title>
<ellipse fill="none" stroke="black" cx="393.85" cy="-1134.68" rx="245.86" ry="18"/>
<text text-anchor="middle" x="393.85" y="-1130.98" font-family="Times,serif" font-size="14.00">&#45;2,6 (Wrong ratio of Calcium Carbide to Acetalene)</text>
</g>
<!-- 1,6 (Sodium Hydroxide, These new bullets are fun, Limestone)&#45;&gt;&#45;2,6 (Wrong ratio of Calcium Carbide to Acetalene) -->
<g id="edge6" class="edge">
<title>1,6 (Sodium Hydroxide, These new bullets are fun, Limestone)&#45;&gt;&#45;2,6 (Wrong ratio of Calcium Carbide to Acetalene)</title>
<path fill="none" stroke="black" stroke-width="0.62" d="M393.85,-36.45C393.85,-166.61 393.85,-945.98 393.85,-1105.98"/>
<polygon fill="black" stroke="black" stroke-width="0.62" points="390.35,-1106.42 393.85,-1116.42 397.35,-1106.42 390.35,-1106.42"/>
<text text-anchor="middle" x="332.85" y="-575.02" font-family="Times,serif" font-size="14.00">limestone*37013</text>
</g>
<!-- 4,12 (Molten Glass) -->
<g id="node7" class="node">
<title>4,12 (Molten Glass)</title>
<ellipse fill="none" stroke="black" cx="1038.57" cy="-1134.68" rx="102.08" ry="18"/>
<text text-anchor="middle" x="1038.57" y="-1130.98" font-family="Times,serif" font-size="14.00">4,12 (Molten Glass)</text>
</g>
<!-- 1,6 (Sodium Hydroxide, These new bullets are fun, Limestone)&#45;&gt;4,12 (Molten Glass) -->
<g id="edge7" class="edge">
<title>1,6 (Sodium Hydroxide, These new bullets are fun, Limestone)&#45;&gt;4,12 (Molten Glass)</title>
<path fill="none" stroke="black" stroke-width="0.07" d="M404.24,-35.99C478.8,-165.14 932.11,-950.29 1022.79,-1107.35"/>
<polygon fill="black" stroke="black" stroke-width="0.07" points="1019.97,-1109.47 1028,-1116.38 1026.03,-1105.97 1019.97,-1109.47"/>
<text text-anchor="middle" x="657.01" y="-575.47" font-family="Times,serif" font-size="14.00">limestone*4064</text>
</g>
<!-- 1,5 (Limestone) -->
<g id="node3" class="node">
<title>1,5 (Limestone)</title>
<ellipse fill="none" stroke="black" cx="1360.93" cy="-576.34" rx="83.39" ry="18"/>
<text text-anchor="middle" x="1360.93" y="-572.64" font-family="Times,serif" font-size="14.00">1,5 (Limestone)</text>
</g>
<!-- 1,5 (Limestone)&#45;&gt;0,0 (LE BUS) -->
<g id="edge4" class="edge">
<title>1,5 (Limestone)&#45;&gt;0,0 (LE BUS)</title>
<path fill="none" stroke="black" stroke-width="3.97" d="M1277.32,-576.34C1043.48,-576.34 384.75,-576.34 153.21,-576.34"/>
<polygon fill="black" stroke="black" stroke-width="3.97" points="153.17,-572.84 143.17,-576.34 153.17,-579.84 153.17,-572.84"/>
<text text-anchor="middle" x="780.77" y="-580.14" font-family="Times,serif" font-size="14.00">limestone*237696</text>
</g>
<!-- 1,5 (Limestone)&#45;&gt;&#45;5,&#45;4 (low priority (slaked)? lime) -->
<g id="edge2" class="edge">
<title>1,5 (Limestone)&#45;&gt;&#45;5,&#45;4 (low priority (slaked)? lime)</title>
<path fill="none" stroke="black" stroke-width="1.94" d="M1350.57,-558.4C1303.59,-477.03 1110.43,-142.46 1054.07,-44.85"/>
<polygon fill="black" stroke="black" stroke-width="1.94" points="1057.08,-43.07 1049.05,-36.16 1051.02,-46.57 1057.08,-43.07"/>
<text text-anchor="middle" x="1136.82" y="-305.42" font-family="Times,serif" font-size="14.00">limestone*116160</text>
</g>
<!-- 2,10 (Nickel plate) -->
<g id="node5" class="node">
<title>2,10 (Nickel plate)</title>
<ellipse fill="none" stroke="black" cx="1529.77" cy="-576.34" rx="96.68" ry="18"/>
<text text-anchor="middle" x="1529.77" y="-572.64" font-family="Times,serif" font-size="14.00">2,10 (Nickel plate)</text>
</g>
<!-- 1,5 (Limestone)&#45;&gt;2,10 (Nickel plate) -->
<g id="edge5" class="edge">
<title>1,5 (Limestone)&#45;&gt;2,10 (Nickel plate)</title>
<path fill="none" stroke="black" stroke-width="0.52" d="M1444.36,-576.34C1444.44,-576.34 1444.53,-576.34 1444.61,-576.34"/>
<polygon fill="black" stroke="black" stroke-width="0.52" points="1434.86,-579.85 1444.86,-576.34 1434.86,-572.85 1434.86,-579.85"/>
<text text-anchor="middle" x="1505.48" y="-580.14" font-family="Times,serif" font-size="14.00">limestone*31184</text>
</g>
<!-- 1,5 (Limestone)&#45;&gt;&#45;2,6 (Wrong ratio of Calcium Carbide to Acetalene) -->
<g id="edge9" class="edge">
<title>1,5 (Limestone)&#45;&gt;&#45;2,6 (Wrong ratio of Calcium Carbide to Acetalene)</title>
<path fill="none" stroke="black" stroke-width="0.34" d="M1331.72,-593.2C1192.4,-673.64 595.46,-1018.29 434.16,-1111.41"/>
<polygon fill="black" stroke="black" stroke-width="0.34" points="431.96,-1108.64 425.05,-1116.67 435.46,-1114.7 431.96,-1108.64"/>
<text text-anchor="middle" x="821.94" y="-856.11" font-family="Times,serif" font-size="14.00">limestone*20112</text>
</g>
<!-- 1,5 (Limestone)&#45;&gt;4,12 (Molten Glass) -->
<g id="edge8" class="edge">
<title>1,5 (Limestone)&#45;&gt;4,12 (Molten Glass)</title>
<path fill="none" stroke="black" stroke-width="0.1" d="M1350.57,-594.29C1303.59,-675.66 1110.43,-1010.22 1054.07,-1107.83"/>
<polygon fill="black" stroke="black" stroke-width="0.1" points="1051.02,-1106.11 1049.05,-1116.52 1057.08,-1109.61 1051.02,-1106.11"/>
<text text-anchor="middle" x="1145.82" y="-854.86" font-family="Times,serif" font-size="14.00">limestone*6144</text>
</g>
</g>
</svg>
