<?xml version="1.0" encoding="UTF-8" standalone="no"?>
<!DOCTYPE svg PUBLIC "-//W3C//DTD SVG 1.1//EN"
 "http://www.w3.org/Graphics/SVG/1.1/DTD/svg11.dtd">
<!-- Generated by graphviz version 2.43.0 (0)
 -->
<!-- Title: %3 Pages: 1 -->
<svg width="1120pt" height="44pt"
 viewBox="0.00 0.00 1120.41 44.00" xmlns="http://www.w3.org/2000/svg" xmlns:xlink="http://www.w3.org/1999/xlink">
<g id="graph0" class="graph" transform="scale(1 1) rotate(0) translate(4 40)">
<title>%3</title>
<polygon fill="white" stroke="transparent" points="-4,4 -4,-40 1116.41,-40 1116.41,4 -4,4"/>
<!-- &#45;3,4 (Lard from Cottonguts) -->
<g id="node1" class="node">
<title>&#45;3,4 (Lard from Cottonguts)</title>
<ellipse fill="none" stroke="black" cx="502.26" cy="-18" rx="139.18" ry="18"/>
<text text-anchor="middle" x="502.26" y="-14.3" font-family="Times,serif" font-size="14.00">&#45;3,4 (Lard from Cottonguts)</text>
</g>
<!-- 4,6 (Circuit substrate and Doped silicon) -->
<g id="node2" class="node">
<title>4,6 (Circuit substrate and Doped silicon)</title>
<ellipse fill="none" stroke="black" cx="912.88" cy="-18" rx="199.56" ry="18"/>
<text text-anchor="middle" x="912.88" y="-14.3" font-family="Times,serif" font-size="14.00">4,6 (Circuit substrate and Doped silicon)</text>
</g>
<!-- &#45;3,4 (Lard from Cottonguts)&#45;&gt;4,6 (Circuit substrate and Doped silicon) -->
<g id="edge1" class="edge">
<title>&#45;3,4 (Lard from Cottonguts)&#45;&gt;4,6 (Circuit substrate and Doped silicon)</title>
<path fill="none" stroke="black" stroke-width="1.42" d="M641.57,-18C661.35,-18 682.06,-18 702.82,-18"/>
<polygon fill="black" stroke="black" stroke-width="1.42" points="703.02,-21.5 713.02,-18 703.02,-14.5 703.02,-21.5"/>
<text text-anchor="middle" x="672.19" y="-6.8" font-family="Times,serif" font-size="14.00">mukmoux&#45;fat*22592</text>
</g>
<!-- 1,9 (Ammunition) -->
<g id="node3" class="node">
<title>1,9 (Ammunition)</title>
<ellipse fill="none" stroke="black" cx="91.64" cy="-18" rx="91.78" ry="18"/>
<text text-anchor="middle" x="91.64" y="-14.3" font-family="Times,serif" font-size="14.00">1,9 (Ammunition)</text>
</g>
<!-- &#45;3,4 (Lard from Cottonguts)&#45;&gt;1,9 (Ammunition) -->
<g id="edge2" class="edge">
<title>&#45;3,4 (Lard from Cottonguts)&#45;&gt;1,9 (Ammunition)</title>
<path fill="none" stroke="black" stroke-width="0.58" d="M362.96,-18C307.47,-18 244.77,-18 193.64,-18"/>
<polygon fill="black" stroke="black" stroke-width="0.58" points="193.58,-14.5 183.58,-18 193.58,-21.5 193.58,-14.5"/>
<text text-anchor="middle" x="278.3" y="-6.8" font-family="Times,serif" font-size="14.00">mukmoux&#45;fat*9168</text>
</g>
</g>
</svg>
