<?xml version="1.0" encoding="UTF-8" standalone="no"?>
<!DOCTYPE svg PUBLIC "-//W3C//DTD SVG 1.1//EN"
 "http://www.w3.org/Graphics/SVG/1.1/DTD/svg11.dtd">
<!-- Generated by graphviz version 2.43.0 (0)
 -->
<!-- Title: %3 Pages: 1 -->
<svg width="2445pt" height="2249pt"
 viewBox="0.00 0.00 2445.07 2248.75" xmlns="http://www.w3.org/2000/svg" xmlns:xlink="http://www.w3.org/1999/xlink">
<g id="graph0" class="graph" transform="scale(1 1) rotate(0) translate(4 2244.75)">
<title>%3</title>
<polygon fill="white" stroke="transparent" points="-4,4 -4,-2244.75 2441.07,-2244.75 2441.07,4 -4,4"/>
<!-- &#45;5,&#45;7 (fluid=propene Propene) -->
<g id="node1" class="node">
<title>&#45;5,&#45;7 (fluid=propene Propene)</title>
<ellipse fill="none" stroke="black" cx="149.49" cy="-806.61" rx="149.47" ry="18"/>
<text text-anchor="middle" x="149.49" y="-802.91" font-family="Times,serif" font-size="14.00">&#45;5,&#45;7 (fluid=propene Propene)</text>
</g>
<!-- 0,0 (LE BUS) -->
<g id="node2" class="node">
<title>0,0 (LE BUS)</title>
<ellipse fill="none" stroke="black" cx="2155" cy="-518.26" rx="71.49" ry="18"/>
<text text-anchor="middle" x="2155" y="-514.56" font-family="Times,serif" font-size="14.00">0,0 (LE BUS)</text>
</g>
<!-- &#45;5,&#45;7 (fluid=propene Propene)&#45;&gt;0,0 (LE BUS) -->
<g id="edge1" class="edge">
<title>&#45;5,&#45;7 (fluid=propene Propene)&#45;&gt;0,0 (LE BUS)</title>
<path fill="none" stroke="black" stroke-width="0.36" d="M245.54,-792.8C592.6,-742.9 1777.24,-572.57 2082.68,-528.65"/>
<polygon fill="black" stroke="black" stroke-width="0.36" points="2083.35,-532.09 2092.75,-527.21 2082.35,-525.17 2083.35,-532.09"/>
<text text-anchor="middle" x="1099.61" y="-664.52" font-family="Times,serif" font-size="14.00">copper&#45;ore*31891</text>
</g>
<!-- &#45;6,8 (Copper plate duplicate) -->
<g id="node4" class="node">
<title>&#45;6,8 (Copper plate duplicate)</title>
<ellipse fill="none" stroke="black" cx="488.76" cy="-278.69" rx="143.77" ry="18"/>
<text text-anchor="middle" x="488.76" y="-274.99" font-family="Times,serif" font-size="14.00">&#45;6,8 (Copper plate duplicate)</text>
</g>
<!-- &#45;5,&#45;7 (fluid=propene Propene)&#45;&gt;&#45;6,8 (Copper plate duplicate) -->
<g id="edge21" class="edge">
<title>&#45;5,&#45;7 (fluid=propene Propene)&#45;&gt;&#45;6,8 (Copper plate duplicate)</title>
<path fill="none" stroke="black" stroke-width="0.62" d="M161.17,-788.43C211.68,-709.83 411.55,-398.82 471.61,-305.38"/>
<polygon fill="black" stroke="black" stroke-width="0.62" points="474.67,-307.09 477.13,-296.78 468.78,-303.3 474.67,-307.09"/>
<text text-anchor="middle" x="251.89" y="-550.71" font-family="Times,serif" font-size="14.00">copper&#45;ore*54522</text>
</g>
<!-- 3,9 (Copper, molten &amp; plate) -->
<g id="node5" class="node">
<title>3,9 (Copper, molten &amp; plate)</title>
<ellipse fill="none" stroke="black" cx="1059.59" cy="-18" rx="143.77" ry="18"/>
<text text-anchor="middle" x="1059.59" y="-14.3" font-family="Times,serif" font-size="14.00">3,9 (Copper, molten &amp; plate)</text>
</g>
<!-- &#45;5,&#45;7 (fluid=propene Propene)&#45;&gt;3,9 (Copper, molten &amp; plate) -->
<g id="edge3" class="edge">
<title>&#45;5,&#45;7 (fluid=propene Propene)&#45;&gt;3,9 (Copper, molten &amp; plate)</title>
<path fill="none" stroke="black" stroke-width="2.47" d="M170.21,-788.65C289.93,-684.91 892.68,-162.63 1031.18,-42.61"/>
<polygon fill="black" stroke="black" stroke-width="2.47" points="1033.63,-45.12 1038.9,-35.92 1029.05,-39.83 1033.63,-45.12"/>
<text text-anchor="middle" x="531.69" y="-419.43" font-family="Times,serif" font-size="14.00">copper&#45;ore*217649</text>
</g>
<!-- 8,1 (Molten Copper) -->
<g id="node7" class="node">
<title>8,1 (Molten Copper)</title>
<ellipse fill="none" stroke="black" cx="149.49" cy="-1434.14" rx="104.78" ry="18"/>
<text text-anchor="middle" x="149.49" y="-1430.44" font-family="Times,serif" font-size="14.00">8,1 (Molten Copper)</text>
</g>
<!-- &#45;5,&#45;7 (fluid=propene Propene)&#45;&gt;8,1 (Molten Copper) -->
<g id="edge8" class="edge">
<title>&#45;5,&#45;7 (fluid=propene Propene)&#45;&gt;8,1 (Molten Copper)</title>
<path fill="none" stroke="black" stroke-width="0.71" d="M149.49,-824.71C149.49,-912.92 149.49,-1297.77 149.49,-1405.83"/>
<polygon fill="black" stroke="black" stroke-width="0.71" points="145.99,-1405.97 149.49,-1415.97 152.99,-1405.97 145.99,-1405.97"/>
<text text-anchor="middle" x="84.99" y="-1119.07" font-family="Times,serif" font-size="14.00">copper&#45;ore*62695</text>
</g>
<!-- 9,&#45;10 (Copper plate yet again) -->
<g id="node8" class="node">
<title>9,&#45;10 (Copper plate yet again)</title>
<ellipse fill="none" stroke="black" cx="488.76" cy="-1962.06" rx="149.47" ry="18"/>
<text text-anchor="middle" x="488.76" y="-1958.36" font-family="Times,serif" font-size="14.00">9,&#45;10 (Copper plate yet again)</text>
</g>
<!-- &#45;5,&#45;7 (fluid=propene Propene)&#45;&gt;9,&#45;10 (Copper plate yet again) -->
<g id="edge5" class="edge">
<title>&#45;5,&#45;7 (fluid=propene Propene)&#45;&gt;9,&#45;10 (Copper plate yet again)</title>
<path fill="none" stroke="black" stroke-width="0.85" d="M154.82,-824.76C193.67,-957.08 433.16,-1772.72 480.6,-1934.27"/>
<polygon fill="black" stroke="black" stroke-width="0.85" points="477.27,-1935.34 483.44,-1943.95 483.98,-1933.37 477.27,-1935.34"/>
<text text-anchor="middle" x="253.21" y="-1383.31" font-family="Times,serif" font-size="14.00">copper&#45;ore*75001</text>
</g>
<!-- 4,11 (Cobalt Extract) -->
<g id="node9" class="node">
<title>4,11 (Cobalt Extract)</title>
<ellipse fill="none" stroke="black" cx="1059.59" cy="-2222.75" rx="108.58" ry="18"/>
<text text-anchor="middle" x="1059.59" y="-2219.05" font-family="Times,serif" font-size="14.00">4,11 (Cobalt Extract)</text>
</g>
<!-- &#45;5,&#45;7 (fluid=propene Propene)&#45;&gt;4,11 (Cobalt Extract) -->
<g id="edge11" class="edge">
<title>&#45;5,&#45;7 (fluid=propene Propene)&#45;&gt;4,11 (Cobalt Extract)</title>
<path fill="none" stroke="black" stroke-width="0.26" d="M161.16,-824.77C257.94,-975.36 926.67,-2015.92 1042.51,-2196.17"/>
<polygon fill="black" stroke="black" stroke-width="0.26" points="1039.69,-2198.26 1048.04,-2204.78 1045.58,-2194.48 1039.69,-2198.26"/>
<text text-anchor="middle" x="537.33" y="-1514.27" font-family="Times,serif" font-size="14.00">copper&#45;ore*23186</text>
</g>
<!-- 8,&#45;10 (Copper plate duplicater) -->
<g id="node10" class="node">
<title>8,&#45;10 (Copper plate duplicater)</title>
<ellipse fill="none" stroke="black" cx="1680.74" cy="-2133.44" rx="154.07" ry="18"/>
<text text-anchor="middle" x="1680.74" y="-2129.74" font-family="Times,serif" font-size="14.00">8,&#45;10 (Copper plate duplicater)</text>
</g>
<!-- &#45;5,&#45;7 (fluid=propene Propene)&#45;&gt;8,&#45;10 (Copper plate duplicater) -->
<g id="edge15" class="edge">
<title>&#45;5,&#45;7 (fluid=propene Propene)&#45;&gt;8,&#45;10 (Copper plate duplicater)</title>
<path fill="none" stroke="black" stroke-width="0.49" d="M170.26,-824.61C337.2,-969.26 1458.77,-1941.1 1652.31,-2108.81"/>
<polygon fill="black" stroke="black" stroke-width="0.49" points="1650.23,-2111.63 1660.07,-2115.54 1654.81,-2106.34 1650.23,-2111.63"/>
<text text-anchor="middle" x="846.79" y="-1470.51" font-family="Times,serif" font-size="14.00">copper&#45;ore*43128</text>
</g>
<!-- 10,5 () -->
<g id="node3" class="node">
<title>10,5 ()</title>
<ellipse fill="none" stroke="black" cx="2331.79" cy="-1120.37" rx="40.89" ry="18"/>
<text text-anchor="middle" x="2331.79" y="-1116.67" font-family="Times,serif" font-size="14.00">10,5 ()</text>
</g>
<!-- 10,5 ()&#45;&gt;0,0 (LE BUS) -->
<g id="edge7" class="edge">
<title>10,5 ()&#45;&gt;0,0 (LE BUS)</title>
<path fill="none" stroke="black" stroke-width="0.16" d="M2326.5,-1102.35C2301.37,-1016.75 2193.97,-651 2163.24,-546.34"/>
<polygon fill="black" stroke="black" stroke-width="0.16" points="2166.53,-545.11 2160.35,-536.5 2159.81,-547.08 2166.53,-545.11"/>
<text text-anchor="middle" x="2180.37" y="-828.15" font-family="Times,serif" font-size="14.00">copper&#45;ore*14400</text>
</g>
<!-- 10,5 ()&#45;&gt;&#45;6,8 (Copper plate duplicate) -->
<g id="edge2" class="edge">
<title>10,5 ()&#45;&gt;&#45;6,8 (Copper plate duplicate)</title>
<path fill="none" stroke="black" stroke-width="1.4" d="M2303.21,-1107.32C2094.14,-1011.84 801.26,-421.4 536.21,-300.36"/>
<polygon fill="black" stroke="black" stroke-width="1.4" points="537.41,-297.06 526.86,-296.09 534.5,-303.43 537.41,-297.06"/>
<text text-anchor="middle" x="1350.71" y="-707.64" font-family="Times,serif" font-size="14.00">copper&#45;ore*123600</text>
</g>
<!-- 10,5 ()&#45;&gt;3,9 (Copper, molten &amp; plate) -->
<g id="edge6" class="edge">
<title>10,5 ()&#45;&gt;3,9 (Copper, molten &amp; plate)</title>
<path fill="none" stroke="black" stroke-width="2.55" d="M2312.82,-1103.94C2169.82,-980.02 1261.94,-193.34 1088.28,-42.86"/>
<polygon fill="black" stroke="black" stroke-width="2.55" points="1090.42,-40.09 1080.57,-36.18 1085.84,-45.38 1090.42,-40.09"/>
<text text-anchor="middle" x="1631.55" y="-577.2" font-family="Times,serif" font-size="14.00">copper&#45;ore*224640</text>
</g>
<!-- 10,5 ()&#45;&gt;8,1 (Molten Copper) -->
<g id="edge18" class="edge">
<title>10,5 ()&#45;&gt;8,1 (Molten Copper)</title>
<path fill="none" stroke="black" stroke-width="1.07" d="M2292.52,-1126.02C2037.42,-1162.7 614.24,-1367.32 239.78,-1421.16"/>
<polygon fill="black" stroke="black" stroke-width="1.07" points="239.2,-1417.71 229.8,-1422.6 240.2,-1424.64 239.2,-1417.71"/>
<text text-anchor="middle" x="1201.65" y="-1277.39" font-family="Times,serif" font-size="14.00">copper&#45;ore*94560</text>
</g>
<!-- 10,5 ()&#45;&gt;9,&#45;10 (Copper plate yet again) -->
<g id="edge9" class="edge">
<title>10,5 ()&#45;&gt;9,&#45;10 (Copper plate yet again)</title>
<path fill="none" stroke="black" stroke-width="2.52" d="M2303.21,-1133.43C2094.25,-1228.86 802.65,-1818.71 536.64,-1940.2"/>
<polygon fill="black" stroke="black" stroke-width="2.52" points="534.89,-1937.14 527.25,-1944.48 537.8,-1943.51 534.89,-1937.14"/>
<text text-anchor="middle" x="1350.93" y="-1540.61" font-family="Times,serif" font-size="14.00">copper&#45;ore*221760</text>
</g>
<!-- 10,5 ()&#45;&gt;4,11 (Cobalt Extract) -->
<g id="edge19" class="edge">
<title>10,5 ()&#45;&gt;4,11 (Cobalt Extract)</title>
<path fill="none" stroke="black" stroke-width="0.13" d="M2312.82,-1136.81C2169.66,-1260.86 1260.01,-2049.08 1087.73,-2198.37"/>
<polygon fill="black" stroke="black" stroke-width="0.13" points="1085.35,-2195.79 1080.09,-2204.99 1089.94,-2201.08 1085.35,-2195.79"/>
<text text-anchor="middle" x="1635.78" y="-1671.39" font-family="Times,serif" font-size="14.00">copper&#45;ore*11760</text>
</g>
<!-- 10,5 ()&#45;&gt;8,&#45;10 (Copper plate duplicater) -->
<g id="edge16" class="edge">
<title>10,5 ()&#45;&gt;8,&#45;10 (Copper plate duplicater)</title>
<path fill="none" stroke="black" stroke-width="0.49" d="M2320.49,-1137.96C2243.09,-1258.4 1791.46,-1961.15 1697.76,-2106.96"/>
<polygon fill="black" stroke="black" stroke-width="0.49" points="1694.81,-2105.07 1692.35,-2115.37 1700.7,-2108.85 1694.81,-2105.07"/>
<text text-anchor="middle" x="1944.63" y="-1626.26" font-family="Times,serif" font-size="14.00">copper&#45;ore*42960</text>
</g>
<!-- 5,&#45;1 (Drilling Fluid Type 2, I think my maths is backwards) -->
<g id="node11" class="node">
<title>5,&#45;1 (Drilling Fluid Type 2, I think my maths is backwards)</title>
<ellipse fill="none" stroke="black" cx="2155" cy="-1722.49" rx="282.15" ry="18"/>
<text text-anchor="middle" x="2155" y="-1718.79" font-family="Times,serif" font-size="14.00">5,&#45;1 (Drilling Fluid Type 2, I think my maths is backwards)</text>
</g>
<!-- 10,5 ()&#45;&gt;5,&#45;1 (Drilling Fluid Type 2, I think my maths is backwards) -->
<g id="edge22" class="edge">
<title>10,5 ()&#45;&gt;5,&#45;1 (Drilling Fluid Type 2, I think my maths is backwards)</title>
<path fill="none" stroke="black" stroke-width="0.29" d="M2326.5,-1138.39C2301.37,-1224 2193.97,-1589.75 2163.24,-1694.41"/>
<polygon fill="black" stroke="black" stroke-width="0.29" points="2159.81,-1693.67 2160.35,-1704.25 2166.53,-1695.64 2159.81,-1693.67"/>
<text text-anchor="middle" x="2180.37" y="-1420.2" font-family="Times,serif" font-size="14.00">copper&#45;ore*25200</text>
</g>
<!-- 7,3 (Copper mine) -->
<g id="node6" class="node">
<title>7,3 (Copper mine)</title>
<ellipse fill="none" stroke="black" cx="1680.74" cy="-107.31" rx="94.78" ry="18"/>
<text text-anchor="middle" x="1680.74" y="-103.61" font-family="Times,serif" font-size="14.00">7,3 (Copper mine)</text>
</g>
<!-- 7,3 (Copper mine)&#45;&gt;0,0 (LE BUS) -->
<g id="edge10" class="edge">
<title>7,3 (Copper mine)&#45;&gt;0,0 (LE BUS)</title>
<path fill="none" stroke="black" stroke-width="0.8" d="M1701.11,-124.97C1776.68,-190.44 2040.94,-419.43 2127.39,-494.34"/>
<polygon fill="black" stroke="black" stroke-width="0.8" points="2125.11,-496.99 2134.96,-500.89 2129.69,-491.7 2125.11,-496.99"/>
<text text-anchor="middle" x="1849.75" y="-313.45" font-family="Times,serif" font-size="14.00">copper&#45;ore*70880</text>
</g>
<!-- 7,3 (Copper mine)&#45;&gt;&#45;6,8 (Copper plate duplicate) -->
<g id="edge14" class="edge">
<title>7,3 (Copper mine)&#45;&gt;&#45;6,8 (Copper plate duplicate)</title>
<path fill="none" stroke="black" stroke-width="1.31" d="M1604.81,-118.22C1398.81,-147.84 828.99,-229.77 593.1,-263.69"/>
<polygon fill="black" stroke="black" stroke-width="1.31" points="592.54,-260.23 583.14,-265.12 593.54,-267.16 592.54,-260.23"/>
<text text-anchor="middle" x="1029.96" y="-194.76" font-family="Times,serif" font-size="14.00">copper&#45;ore*115520</text>
</g>
<!-- 7,3 (Copper mine)&#45;&gt;3,9 (Copper, molten &amp; plate) -->
<g id="edge12" class="edge">
<title>7,3 (Copper mine)&#45;&gt;3,9 (Copper, molten &amp; plate)</title>
<path fill="none" stroke="black" stroke-width="1.61" d="M1604.88,-96.4C1494.36,-80.51 1288.68,-50.94 1163.95,-33.01"/>
<polygon fill="black" stroke="black" stroke-width="1.61" points="1164.4,-29.53 1154,-31.57 1163.4,-36.46 1164.4,-29.53"/>
<text text-anchor="middle" x="1315.42" y="-68.5" font-family="Times,serif" font-size="14.00">copper&#45;ore*142160</text>
</g>
<!-- 7,3 (Copper mine)&#45;&gt;8,1 (Molten Copper) -->
<g id="edge4" class="edge">
<title>7,3 (Copper mine)&#45;&gt;8,1 (Molten Copper)</title>
<path fill="none" stroke="black" stroke-width="1.94" d="M1660.25,-125.06C1494.23,-268.91 370.5,-1242.64 177.63,-1409.76"/>
<polygon fill="black" stroke="black" stroke-width="1.94" points="175.17,-1407.26 169.9,-1416.45 179.75,-1412.55 175.17,-1407.26"/>
<text text-anchor="middle" x="849.94" y="-771.21" font-family="Times,serif" font-size="14.00">copper&#45;ore*170720</text>
</g>
<!-- 7,3 (Copper mine)&#45;&gt;9,&#45;10 (Copper plate yet again) -->
<g id="edge20" class="edge">
<title>7,3 (Copper mine)&#45;&gt;9,&#45;10 (Copper plate yet again)</title>
<path fill="none" stroke="black" stroke-width="1.45" d="M1669.13,-125.37C1555.49,-302.19 642.66,-1722.59 505.88,-1935.41"/>
<polygon fill="black" stroke="black" stroke-width="1.45" points="502.77,-1933.79 500.3,-1944.1 508.65,-1937.58 502.77,-1933.79"/>
<text text-anchor="middle" x="1018.51" y="-1034.19" font-family="Times,serif" font-size="14.00">copper&#45;ore*127440</text>
</g>
<!-- 7,3 (Copper mine)&#45;&gt;4,11 (Cobalt Extract) -->
<g id="edge13" class="edge">
<title>7,3 (Copper mine)&#45;&gt;4,11 (Cobalt Extract)</title>
<path fill="none" stroke="black" stroke-width="0.76" d="M1675.37,-125.6C1619.02,-317.5 1136.83,-1959.68 1067.8,-2194.77"/>
<polygon fill="black" stroke="black" stroke-width="0.76" points="1064.37,-2194.02 1064.91,-2204.61 1071.09,-2196 1064.37,-2194.02"/>
<text text-anchor="middle" x="1307.08" y="-1163.98" font-family="Times,serif" font-size="14.00">copper&#45;ore*66960</text>
</g>
<!-- 7,3 (Copper mine)&#45;&gt;8,&#45;10 (Copper plate duplicater) -->
<g id="edge17" class="edge">
<title>7,3 (Copper mine)&#45;&gt;8,&#45;10 (Copper plate duplicater)</title>
<path fill="none" stroke="black" stroke-width="0.47" d="M1680.74,-125.44C1680.74,-311.66 1680.74,-1874 1680.74,-2104.96"/>
<polygon fill="black" stroke="black" stroke-width="0.47" points="1677.24,-2105.22 1680.74,-2115.22 1684.24,-2105.22 1677.24,-2105.22"/>
<text text-anchor="middle" x="1616.24" y="-1119" font-family="Times,serif" font-size="14.00">copper&#45;ore*41360</text>
</g>
<!-- 7,3 (Copper mine)&#45;&gt;5,&#45;1 (Drilling Fluid Type 2, I think my maths is backwards) -->
<g id="edge23" class="edge">
<title>7,3 (Copper mine)&#45;&gt;5,&#45;1 (Drilling Fluid Type 2, I think my maths is backwards)</title>
<path fill="none" stroke="black" stroke-width="0.28" d="M1686.06,-125.45C1733.85,-288.2 2088.46,-1495.88 2146.86,-1694.79"/>
<polygon fill="black" stroke="black" stroke-width="0.28" points="2143.54,-1695.88 2149.71,-1704.49 2150.25,-1693.91 2143.54,-1695.88"/>
<text text-anchor="middle" x="1851.96" y="-913.92" font-family="Times,serif" font-size="14.00">copper&#45;ore*25040</text>
</g>
</g>
</svg>
