<?xml version="1.0" encoding="UTF-8" standalone="no"?>
<!DOCTYPE svg PUBLIC "-//W3C//DTD SVG 1.1//EN"
 "http://www.w3.org/Graphics/SVG/1.1/DTD/svg11.dtd">
<!-- Generated by graphviz version 2.43.0 (0)
 -->
<!-- Title: %3 Pages: 1 -->
<svg width="617pt" height="444pt"
 viewBox="0.00 0.00 617.28 443.99" xmlns="http://www.w3.org/2000/svg" xmlns:xlink="http://www.w3.org/1999/xlink">
<g id="graph0" class="graph" transform="scale(1 1) rotate(0) translate(4 439.99)">
<title>%3</title>
<polygon fill="white" stroke="transparent" points="-4,4 -4,-439.99 613.28,-439.99 613.28,4 -4,4"/>
<!-- 3,&#45;2 () -->
<g id="node1" class="node">
<title>3,&#45;2 ()</title>
<ellipse fill="none" stroke="black" cx="266.25" cy="-231.47" rx="38.19" ry="18"/>
<text text-anchor="middle" x="266.25" y="-227.77" font-family="Times,serif" font-size="14.00">3,&#45;2 ()</text>
</g>
<!-- 4,11 (Cobalt Extract) -->
<g id="node2" class="node">
<title>4,11 (Cobalt Extract)</title>
<ellipse fill="none" stroke="black" cx="500.74" cy="-231.47" rx="108.58" ry="18"/>
<text text-anchor="middle" x="500.74" y="-227.77" font-family="Times,serif" font-size="14.00">4,11 (Cobalt Extract)</text>
</g>
<!-- 3,&#45;2 ()&#45;&gt;4,11 (Cobalt Extract) -->
<g id="edge1" class="edge">
<title>3,&#45;2 ()&#45;&gt;4,11 (Cobalt Extract)</title>
<path fill="none" stroke="black" stroke-width="1.51" d="M304.71,-231.47C326.06,-231.47 353.9,-231.47 381.86,-231.47"/>
<polygon fill="black" stroke="black" stroke-width="1.51" points="382.15,-234.97 392.15,-231.47 382.15,-227.97 382.15,-234.97"/>
<text text-anchor="middle" x="381.53" y="-220.27" font-family="Times,serif" font-size="14.00">rare&#45;earth&#45;ore*10304</text>
</g>
<!-- &#45;2,5 (Rare Earth Oxides) -->
<g id="node3" class="node">
<title>&#45;2,5 (Rare Earth Oxides)</title>
<ellipse fill="none" stroke="black" cx="124.14" cy="-417.99" rx="124.28" ry="18"/>
<text text-anchor="middle" x="124.14" y="-414.29" font-family="Times,serif" font-size="14.00">&#45;2,5 (Rare Earth Oxides)</text>
</g>
<!-- 3,&#45;2 ()&#45;&gt;&#45;2,5 (Rare Earth Oxides) -->
<g id="edge2" class="edge">
<title>3,&#45;2 ()&#45;&gt;&#45;2,5 (Rare Earth Oxides)</title>
<path fill="none" stroke="black" stroke-width="0.3" d="M253.14,-248.68C228.16,-281.47 173.63,-353.04 144.09,-391.8"/>
<polygon fill="black" stroke="black" stroke-width="0.3" points="141.12,-389.92 137.85,-400 146.69,-394.16 141.12,-389.92"/>
<text text-anchor="middle" x="126.62" y="-324.04" font-family="Times,serif" font-size="14.00">rare&#45;earth&#45;ore*2048</text>
</g>
<!-- 0,0 (LE BUS) -->
<g id="node4" class="node">
<title>0,0 (LE BUS)</title>
<ellipse fill="none" stroke="black" cx="169.23" cy="-18" rx="71.49" ry="18"/>
<text text-anchor="middle" x="169.23" y="-14.3" font-family="Times,serif" font-size="14.00">0,0 (LE BUS)</text>
</g>
<!-- 3,&#45;2 ()&#45;&gt;0,0 (LE BUS) -->
<g id="edge3" class="edge">
<title>3,&#45;2 ()&#45;&gt;0,0 (LE BUS)</title>
<path fill="none" stroke="black" stroke-width="1.19" d="M258.15,-213.64C241.17,-176.28 201.77,-89.6 181.61,-45.23"/>
<polygon fill="black" stroke="black" stroke-width="1.19" points="184.7,-43.59 177.38,-35.93 178.33,-46.48 184.7,-43.59"/>
<text text-anchor="middle" x="147.88" y="-133.24" font-family="Times,serif" font-size="14.00">rare&#45;earth&#45;ore*8160</text>
</g>
</g>
</svg>
