<?xml version="1.0" encoding="UTF-8" standalone="no"?>
<!DOCTYPE svg PUBLIC "-//W3C//DTD SVG 1.1//EN"
 "http://www.w3.org/Graphics/SVG/1.1/DTD/svg11.dtd">
<!-- Generated by graphviz version 2.43.0 (0)
 -->
<!-- Title: %3 Pages: 1 -->
<svg width="1330pt" height="860pt"
 viewBox="0.00 0.00 1330.09 859.68" xmlns="http://www.w3.org/2000/svg" xmlns:xlink="http://www.w3.org/1999/xlink">
<g id="graph0" class="graph" transform="scale(1 1) rotate(0) translate(4 855.68)">
<title>%3</title>
<polygon fill="white" stroke="transparent" points="-4,4 -4,-855.68 1326.09,-855.68 1326.09,4 -4,4"/>
<!-- &#45;3,8 (Urea) -->
<g id="node1" class="node">
<title>&#45;3,8 (Urea)</title>
<ellipse fill="none" stroke="black" cx="876.04" cy="-18" rx="61.19" ry="18"/>
<text text-anchor="middle" x="876.04" y="-14.3" font-family="Times,serif" font-size="14.00">&#45;3,8 (Urea)</text>
</g>
<!-- 0,0 (LE BUS) -->
<g id="node2" class="node">
<title>0,0 (LE BUS)</title>
<ellipse fill="none" stroke="black" cx="405.1" cy="-18" rx="71.49" ry="18"/>
<text text-anchor="middle" x="405.1" y="-14.3" font-family="Times,serif" font-size="14.00">0,0 (LE BUS)</text>
</g>
<!-- &#45;3,8 (Urea)&#45;&gt;0,0 (LE BUS) -->
<g id="edge1" class="edge">
<title>&#45;3,8 (Urea)&#45;&gt;0,0 (LE BUS)</title>
<path fill="none" stroke="black" stroke-width="0.17" d="M814.47,-18C730.6,-18 580.23,-18 486.94,-18"/>
<polygon fill="black" stroke="black" stroke-width="0.17" points="486.7,-14.5 476.7,-18 486.7,-21.5 486.7,-14.5"/>
<text text-anchor="middle" x="612.71" y="-21.8" font-family="Times,serif" font-size="14.00">urea*5424</text>
</g>
<!-- 4,9 (Cyanic Acid, Ammonia is a by&#45;product) -->
<g id="node4" class="node">
<title>4,9 (Cyanic Acid, Ammonia is a by&#45;product)</title>
<ellipse fill="none" stroke="black" cx="1111.51" cy="-425.84" rx="210.66" ry="18"/>
<text text-anchor="middle" x="1111.51" y="-422.14" font-family="Times,serif" font-size="14.00">4,9 (Cyanic Acid, Ammonia is a by&#45;product)</text>
</g>
<!-- &#45;3,8 (Urea)&#45;&gt;4,9 (Cyanic Acid, Ammonia is a by&#45;product) -->
<g id="edge3" class="edge">
<title>&#45;3,8 (Urea)&#45;&gt;4,9 (Cyanic Acid, Ammonia is a by&#45;product)</title>
<path fill="none" stroke="black" stroke-width="0.27" d="M886.31,-35.79C923.48,-100.17 1051.16,-321.33 1095.88,-398.78"/>
<polygon fill="black" stroke="black" stroke-width="0.27" points="1092.88,-400.59 1100.92,-407.5 1098.95,-397.09 1092.88,-400.59"/>
<text text-anchor="middle" x="953.1" y="-221.09" font-family="Times,serif" font-size="14.00">urea*8800</text>
</g>
<!-- 2,4 (Formica and Phenolic boards) -->
<g id="node5" class="node">
<title>2,4 (Formica and Phenolic boards)</title>
<ellipse fill="none" stroke="black" cx="169.63" cy="-425.84" rx="169.77" ry="18"/>
<text text-anchor="middle" x="169.63" y="-422.14" font-family="Times,serif" font-size="14.00">2,4 (Formica and Phenolic boards)</text>
</g>
<!-- &#45;3,8 (Urea)&#45;&gt;2,4 (Formica and Phenolic boards) -->
<g id="edge4" class="edge">
<title>&#45;3,8 (Urea)&#45;&gt;2,4 (Formica and Phenolic boards)</title>
<path fill="none" stroke="black" stroke-width="0.07" d="M847.91,-34.24C738.03,-97.68 337.48,-328.93 209.35,-402.91"/>
<polygon fill="black" stroke="black" stroke-width="0.07" points="207.51,-399.93 200.6,-407.97 211.01,-406 207.51,-399.93"/>
<text text-anchor="middle" x="490.63" y="-222.38" font-family="Times,serif" font-size="14.00">urea*2224</text>
</g>
<!-- 1,4 (Casein and Melamine) -->
<g id="node6" class="node">
<title>1,4 (Casein and Melamine)</title>
<ellipse fill="none" stroke="black" cx="405.1" cy="-833.68" rx="135.38" ry="18"/>
<text text-anchor="middle" x="405.1" y="-829.98" font-family="Times,serif" font-size="14.00">1,4 (Casein and Melamine)</text>
</g>
<!-- &#45;3,8 (Urea)&#45;&gt;1,4 (Casein and Melamine) -->
<g id="edge6" class="edge">
<title>&#45;3,8 (Urea)&#45;&gt;1,4 (Casein and Melamine)</title>
<path fill="none" stroke="black" stroke-width="0.16" d="M865.76,-35.8C805.14,-140.8 494.26,-679.26 420.71,-806.64"/>
<polygon fill="black" stroke="black" stroke-width="0.16" points="417.62,-805.01 415.65,-815.42 423.68,-808.51 417.62,-805.01"/>
<text text-anchor="middle" x="605.24" y="-410.02" font-family="Times,serif" font-size="14.00">urea*5088</text>
</g>
<!-- &#45;6,4 (Urea) -->
<g id="node3" class="node">
<title>&#45;6,4 (Urea)</title>
<ellipse fill="none" stroke="black" cx="876.04" cy="-833.68" rx="61.19" ry="18"/>
<text text-anchor="middle" x="876.04" y="-829.98" font-family="Times,serif" font-size="14.00">&#45;6,4 (Urea)</text>
</g>
<!-- &#45;6,4 (Urea)&#45;&gt;0,0 (LE BUS) -->
<g id="edge2" class="edge">
<title>&#45;6,4 (Urea)&#45;&gt;0,0 (LE BUS)</title>
<path fill="none" stroke="black" stroke-width="0.58" d="M865.76,-815.89C805.07,-710.77 493.59,-171.26 420.48,-44.63"/>
<polygon fill="black" stroke="black" stroke-width="0.58" points="423.47,-42.82 415.44,-35.91 417.41,-46.32 423.47,-42.82"/>
<text text-anchor="middle" x="600.62" y="-434.06" font-family="Times,serif" font-size="14.00">urea*19120</text>
</g>
<!-- &#45;6,4 (Urea)&#45;&gt;4,9 (Cyanic Acid, Ammonia is a by&#45;product) -->
<g id="edge7" class="edge">
<title>&#45;6,4 (Urea)&#45;&gt;4,9 (Cyanic Acid, Ammonia is a by&#45;product)</title>
<path fill="none" stroke="black" stroke-width="3.39" d="M886.31,-815.9C923.48,-751.52 1051.16,-530.36 1095.88,-452.9"/>
<polygon fill="black" stroke="black" stroke-width="3.39" points="1098.95,-454.6 1100.92,-444.19 1092.88,-451.1 1098.95,-454.6"/>
<text text-anchor="middle" x="944.1" y="-638.2" font-family="Times,serif" font-size="14.00">urea*111079</text>
</g>
<!-- &#45;6,4 (Urea)&#45;&gt;2,4 (Formica and Phenolic boards) -->
<g id="edge8" class="edge">
<title>&#45;6,4 (Urea)&#45;&gt;2,4 (Formica and Phenolic boards)</title>
<path fill="none" stroke="black" stroke-width="0.91" d="M847.91,-817.44C738.03,-754 337.48,-522.75 209.35,-448.77"/>
<polygon fill="black" stroke="black" stroke-width="0.91" points="211.01,-445.69 200.6,-443.72 207.51,-451.75 211.01,-445.69"/>
<text text-anchor="middle" x="486.13" y="-636.91" font-family="Times,serif" font-size="14.00">urea*29840</text>
</g>
<!-- &#45;6,4 (Urea)&#45;&gt;1,4 (Casein and Melamine) -->
<g id="edge5" class="edge">
<title>&#45;6,4 (Urea)&#45;&gt;1,4 (Casein and Melamine)</title>
<path fill="none" stroke="black" stroke-width="2.45" d="M814.47,-833.68C747.85,-833.68 639.27,-833.68 550.67,-833.68"/>
<polygon fill="black" stroke="black" stroke-width="2.45" points="550.52,-830.18 540.52,-833.68 550.52,-837.18 550.52,-830.18"/>
<text text-anchor="middle" x="640.07" y="-837.48" font-family="Times,serif" font-size="14.00">urea*80240</text>
</g>
</g>
</svg>
