<?xml version="1.0" encoding="UTF-8" standalone="no"?>
<!DOCTYPE svg PUBLIC "-//W3C//DTD SVG 1.1//EN"
 "http://www.w3.org/Graphics/SVG/1.1/DTD/svg11.dtd">
<!-- Generated by graphviz version 2.43.0 (0)
 -->
<!-- Title: %3 Pages: 1 -->
<svg width="1198pt" height="861pt"
 viewBox="0.00 0.00 1197.59 861.31" xmlns="http://www.w3.org/2000/svg" xmlns:xlink="http://www.w3.org/1999/xlink">
<g id="graph0" class="graph" transform="scale(1 1) rotate(0) translate(4 857.31)">
<title>%3</title>
<polygon fill="white" stroke="transparent" points="-4,4 -4,-857.31 1193.59,-857.31 1193.59,4 -4,4"/>
<!-- 4,5 (Yet More Raw Fiber) -->
<g id="node1" class="node">
<title>4,5 (Yet More Raw Fiber)</title>
<ellipse fill="none" stroke="black" cx="895.31" cy="-426.66" rx="128.08" ry="18"/>
<text text-anchor="middle" x="895.31" y="-422.96" font-family="Times,serif" font-size="14.00">4,5 (Yet More Raw Fiber)</text>
</g>
<!-- &#45;3,1 (Logistic science pack, Automation Science) -->
<g id="node2" class="node">
<title>&#45;3,1 (Logistic science pack, Automation Science)</title>
<ellipse fill="none" stroke="black" cx="598.4" cy="-18" rx="233.96" ry="18"/>
<text text-anchor="middle" x="598.4" y="-14.3" font-family="Times,serif" font-size="14.00">&#45;3,1 (Logistic science pack, Automation Science)</text>
</g>
<!-- 4,5 (Yet More Raw Fiber)&#45;&gt;&#45;3,1 (Logistic science pack, Automation Science) -->
<g id="edge1" class="edge">
<title>4,5 (Yet More Raw Fiber)&#45;&gt;&#45;3,1 (Logistic science pack, Automation Science)</title>
<path fill="none" stroke="black" stroke-width="0.23" d="M882.17,-408.57C834.94,-343.57 673.68,-121.61 617.72,-44.58"/>
<polygon fill="black" stroke="black" stroke-width="0.23" points="620.44,-42.37 611.73,-36.34 614.77,-46.49 620.44,-42.37"/>
<text text-anchor="middle" x="695.44" y="-230.38" font-family="Times,serif" font-size="14.00">raw&#45;fiber*2064</text>
</g>
<!-- 4,1 (item=filtration&#45;media Filtration Media) -->
<g id="node4" class="node">
<title>4,1 (item=filtration&#45;media Filtration Media)</title>
<ellipse fill="none" stroke="black" cx="598.4" cy="-835.31" rx="214.46" ry="18"/>
<text text-anchor="middle" x="598.4" y="-831.61" font-family="Times,serif" font-size="14.00">4,1 (item=filtration&#45;media Filtration Media)</text>
</g>
<!-- 4,5 (Yet More Raw Fiber)&#45;&gt;4,1 (item=filtration&#45;media Filtration Media) -->
<g id="edge7" class="edge">
<title>4,5 (Yet More Raw Fiber)&#45;&gt;4,1 (item=filtration&#45;media Filtration Media)</title>
<path fill="none" stroke="black" stroke-width="0.51" d="M882.17,-444.74C834.94,-509.74 673.68,-731.7 617.72,-808.73"/>
<polygon fill="black" stroke="black" stroke-width="0.51" points="614.77,-806.82 611.73,-816.97 620.44,-810.94 614.77,-806.82"/>
<text text-anchor="middle" x="695.44" y="-630.53" font-family="Times,serif" font-size="14.00">raw&#45;fiber*4464</text>
</g>
<!-- 0,0 (LE BUS) -->
<g id="node5" class="node">
<title>0,0 (LE BUS)</title>
<ellipse fill="none" stroke="black" cx="118" cy="-174.09" rx="71.49" ry="18"/>
<text text-anchor="middle" x="118" y="-170.39" font-family="Times,serif" font-size="14.00">0,0 (LE BUS)</text>
</g>
<!-- 4,5 (Yet More Raw Fiber)&#45;&gt;0,0 (LE BUS) -->
<g id="edge4" class="edge">
<title>4,5 (Yet More Raw Fiber)&#45;&gt;0,0 (LE BUS)</title>
<path fill="none" stroke="black" stroke-width="0.23" d="M844.31,-410.08C704.29,-364.59 314.87,-238.06 171.7,-191.54"/>
<polygon fill="black" stroke="black" stroke-width="0.23" points="172.42,-188.09 161.83,-188.33 170.25,-194.75 172.42,-188.09"/>
<text text-anchor="middle" x="453.5" y="-304.61" font-family="Times,serif" font-size="14.00">raw&#45;fiber*2016</text>
</g>
<!-- 4,2 (More fiberboard) -->
<g id="node6" class="node">
<title>4,2 (More fiberboard)</title>
<ellipse fill="none" stroke="black" cx="1078.45" cy="-426.66" rx="111.28" ry="18"/>
<text text-anchor="middle" x="1078.45" y="-422.96" font-family="Times,serif" font-size="14.00">4,2 (More fiberboard)</text>
</g>
<!-- 4,5 (Yet More Raw Fiber)&#45;&gt;4,2 (More fiberboard) -->
<g id="edge5" class="edge">
<title>4,5 (Yet More Raw Fiber)&#45;&gt;4,2 (More fiberboard)</title>
<path fill="none" stroke="black" stroke-width="0.23" d="M1023.5,-426.66C1023.56,-426.66 1023.62,-426.66 1023.68,-426.66"/>
<polygon fill="black" stroke="black" stroke-width="0.23" points="1013.86,-430.16 1023.86,-426.66 1013.86,-423.16 1013.86,-430.16"/>
<text text-anchor="middle" x="1078.09" y="-430.46" font-family="Times,serif" font-size="14.00">raw&#45;fiber*2016</text>
</g>
<!-- &#45;1,8 (Fibre via. moss) -->
<g id="node3" class="node">
<title>&#45;1,8 (Fibre via. moss)</title>
<ellipse fill="none" stroke="black" cx="118" cy="-679.22" rx="109.38" ry="18"/>
<text text-anchor="middle" x="118" y="-675.52" font-family="Times,serif" font-size="14.00">&#45;1,8 (Fibre via. moss)</text>
</g>
<!-- &#45;1,8 (Fibre via. moss)&#45;&gt;&#45;3,1 (Logistic science pack, Automation Science) -->
<g id="edge6" class="edge">
<title>&#45;1,8 (Fibre via. moss)&#45;&gt;&#45;3,1 (Logistic science pack, Automation Science)</title>
<path fill="none" stroke="black" stroke-width="0.23" d="M131.1,-661.19C197.86,-569.29 500.22,-153.13 579.38,-44.18"/>
<polygon fill="black" stroke="black" stroke-width="0.23" points="582.27,-46.16 585.32,-36.01 576.61,-42.05 582.27,-46.16"/>
<text text-anchor="middle" x="300.74" y="-356.48" font-family="Times,serif" font-size="14.00">raw&#45;fiber*2064</text>
</g>
<!-- &#45;1,8 (Fibre via. moss)&#45;&gt;4,1 (item=filtration&#45;media Filtration Media) -->
<g id="edge2" class="edge">
<title>&#45;1,8 (Fibre via. moss)&#45;&gt;4,1 (item=filtration&#45;media Filtration Media)</title>
<path fill="none" stroke="black" stroke-width="4.4" d="M167.6,-695.33C255.44,-723.88 438.2,-783.26 535.02,-814.72"/>
<polygon fill="black" stroke="black" stroke-width="4.4" points="533.99,-818.43 544.69,-817.86 536.37,-811.1 533.99,-818.43"/>
<text text-anchor="middle" x="292.31" y="-758.83" font-family="Times,serif" font-size="14.00">raw&#45;fiber*38768</text>
</g>
<!-- &#45;1,8 (Fibre via. moss)&#45;&gt;0,0 (LE BUS) -->
<g id="edge3" class="edge">
<title>&#45;1,8 (Fibre via. moss)&#45;&gt;0,0 (LE BUS)</title>
<path fill="none" stroke="black" stroke-width="1.16" d="M118,-660.94C118,-585.14 118,-295.11 118,-202.62"/>
<polygon fill="black" stroke="black" stroke-width="1.16" points="121.5,-202.34 118,-192.34 114.5,-202.34 121.5,-202.34"/>
<text text-anchor="middle" x="59" y="-435.58" font-family="Times,serif" font-size="14.00">raw&#45;fiber*10256</text>
</g>
</g>
</svg>
