<?xml version="1.0" encoding="UTF-8" standalone="no"?>
<!DOCTYPE svg PUBLIC "-//W3C//DTD SVG 1.1//EN"
 "http://www.w3.org/Graphics/SVG/1.1/DTD/svg11.dtd">
<!-- Generated by graphviz version 2.43.0 (0)
 -->
<!-- Title: %3 Pages: 1 -->
<svg width="2945pt" height="1615pt"
 viewBox="0.00 0.00 2944.74 1615.10" xmlns="http://www.w3.org/2000/svg" xmlns:xlink="http://www.w3.org/1999/xlink">
<g id="graph0" class="graph" transform="scale(1 1) rotate(0) translate(4 1611.1)">
<title>%3</title>
<polygon fill="white" stroke="transparent" points="-4,4 -4,-1611.1 2940.74,-1611.1 2940.74,4 -4,4"/>
<!-- 2,8 (Graphite) -->
<g id="node1" class="node">
<title>2,8 (Graphite)</title>
<ellipse fill="none" stroke="black" cx="1553.96" cy="-173.59" rx="76.09" ry="18"/>
<text text-anchor="middle" x="1553.96" y="-169.89" font-family="Times,serif" font-size="14.00">2,8 (Graphite)</text>
</g>
<!-- &#45;2,8 (syngas from coal dust and also wood) -->
<g id="node2" class="node">
<title>&#45;2,8 (syngas from coal dust and also wood)</title>
<ellipse fill="none" stroke="black" cx="1857.33" cy="-803.55" rx="208.76" ry="18"/>
<text text-anchor="middle" x="1857.33" y="-799.85" font-family="Times,serif" font-size="14.00">&#45;2,8 (syngas from coal dust and also wood)</text>
</g>
<!-- 2,8 (Graphite)&#45;&gt;&#45;2,8 (syngas from coal dust and also wood) -->
<g id="edge1" class="edge">
<title>2,8 (Graphite)&#45;&gt;&#45;2,8 (syngas from coal dust and also wood)</title>
<path fill="none" stroke="black" stroke-width="4.41" d="M1562.71,-191.76C1605.48,-280.58 1792.54,-669 1844.12,-776.11"/>
<polygon fill="black" stroke="black" stroke-width="4.41" points="1840.73,-777.97 1848.54,-785.3 1847.69,-774.62 1840.73,-777.97"/>
<text text-anchor="middle" x="1640.41" y="-487.74" font-family="Times,serif" font-size="14.00">coal&#45;dust*136384</text>
</g>
<!-- &#45;3,9 (Silicon Wafers) -->
<g id="node6" class="node">
<title>&#45;3,9 (Silicon Wafers)</title>
<ellipse fill="none" stroke="black" cx="872.28" cy="-1589.1" rx="103.98" ry="18"/>
<text text-anchor="middle" x="872.28" y="-1585.4" font-family="Times,serif" font-size="14.00">&#45;3,9 (Silicon Wafers)</text>
</g>
<!-- 2,8 (Graphite)&#45;&gt;&#45;3,9 (Silicon Wafers) -->
<g id="edge5" class="edge">
<title>2,8 (Graphite)&#45;&gt;&#45;3,9 (Silicon Wafers)</title>
<path fill="none" stroke="black" stroke-width="0.17" d="M1545.34,-191.49C1473.38,-340.91 972.94,-1380.09 885.35,-1561.97"/>
<polygon fill="black" stroke="black" stroke-width="0.17" points="882.12,-1560.6 880.94,-1571.13 888.43,-1563.64 882.12,-1560.6"/>
<text text-anchor="middle" x="1161.34" y="-880.53" font-family="Times,serif" font-size="14.00">coal&#45;dust*5376</text>
</g>
<!-- 1,7 (Activated Carbon) -->
<g id="node7" class="node">
<title>1,7 (Activated Carbon)</title>
<ellipse fill="none" stroke="black" cx="872.28" cy="-18" rx="115.88" ry="18"/>
<text text-anchor="middle" x="872.28" y="-14.3" font-family="Times,serif" font-size="14.00">1,7 (Activated Carbon)</text>
</g>
<!-- 2,8 (Graphite)&#45;&gt;1,7 (Activated Carbon) -->
<g id="edge8" class="edge">
<title>2,8 (Graphite)&#45;&gt;1,7 (Activated Carbon)</title>
<path fill="none" stroke="black" stroke-width="0.25" d="M1499.04,-161.05C1377.56,-133.33 1085.89,-66.76 947.54,-35.18"/>
<polygon fill="black" stroke="black" stroke-width="0.25" points="947.98,-31.69 937.45,-32.87 946.42,-38.51 947.98,-31.69"/>
<text text-anchor="middle" x="1169.29" y="-101.92" font-family="Times,serif" font-size="14.00">coal&#45;dust*7728</text>
</g>
<!-- 5,5 (Silicon) -->
<g id="node8" class="node">
<title>5,5 (Silicon)</title>
<ellipse fill="none" stroke="black" cx="325.62" cy="-453.95" rx="66.09" ry="18"/>
<text text-anchor="middle" x="325.62" y="-450.25" font-family="Times,serif" font-size="14.00">5,5 (Silicon)</text>
</g>
<!-- 2,8 (Graphite)&#45;&gt;5,5 (Silicon) -->
<g id="edge10" class="edge">
<title>2,8 (Graphite)&#45;&gt;5,5 (Silicon)</title>
<path fill="none" stroke="black" stroke-width="0.18" d="M1499.19,-186.09C1297.65,-232.09 597.92,-391.8 386.55,-440.04"/>
<polygon fill="black" stroke="black" stroke-width="0.18" points="385.54,-436.68 376.56,-442.32 387.09,-443.51 385.54,-436.68"/>
<text text-anchor="middle" x="888.87" y="-316.86" font-family="Times,serif" font-size="14.00">coal&#45;dust*5408</text>
</g>
<!-- &#45;5,&#45;1 (Coal and Coke and Syngas and Ash and Coke Oven Gas and...) -->
<g id="node3" class="node">
<title>&#45;5,&#45;1 (Coal and Coke and Syngas and Ash and Coke Oven Gas and...)</title>
<ellipse fill="none" stroke="black" cx="325.62" cy="-1153.15" rx="325.74" ry="18"/>
<text text-anchor="middle" x="325.62" y="-1149.45" font-family="Times,serif" font-size="14.00">&#45;5,&#45;1 (Coal and Coke and Syngas and Ash and Coke Oven Gas and...)</text>
</g>
<!-- &#45;5,&#45;1 (Coal and Coke and Syngas and Ash and Coke Oven Gas and...)&#45;&gt;&#45;2,8 (syngas from coal dust and also wood) -->
<g id="edge2" class="edge">
<title>&#45;5,&#45;1 (Coal and Coke and Syngas and Ash and Coke Oven Gas and...)&#45;&gt;&#45;2,8 (syngas from coal dust and also wood)</title>
<path fill="none" stroke="black" stroke-width="3.91" d="M402.37,-1135.64C661.54,-1076.48 1503.19,-884.38 1773.16,-822.76"/>
<polygon fill="black" stroke="black" stroke-width="3.91" points="1774.32,-826.09 1783.29,-820.45 1772.76,-819.26 1774.32,-826.09"/>
<text text-anchor="middle" x="1024.76" y="-983" font-family="Times,serif" font-size="14.00">coal&#45;dust*120944</text>
</g>
<!-- &#45;5,&#45;1 (Coal and Coke and Syngas and Ash and Coke Oven Gas and...)&#45;&gt;&#45;3,9 (Silicon Wafers) -->
<g id="edge9" class="edge">
<title>&#45;5,&#45;1 (Coal and Coke and Syngas and Ash and Coke Oven Gas and...)&#45;&gt;&#45;3,9 (Silicon Wafers)</title>
<path fill="none" stroke="black" stroke-width="0.07" d="M348.41,-1171.33C435,-1240.38 743.6,-1486.48 841.94,-1564.91"/>
<polygon fill="black" stroke="black" stroke-width="0.07" points="840,-1567.83 850,-1571.33 844.36,-1562.36 840,-1567.83"/>
<text text-anchor="middle" x="541.18" y="-1371.92" font-family="Times,serif" font-size="14.00">coal&#45;dust*2096</text>
</g>
<!-- &#45;5,&#45;1 (Coal and Coke and Syngas and Ash and Coke Oven Gas and...)&#45;&gt;1,7 (Activated Carbon) -->
<g id="edge7" class="edge">
<title>&#45;5,&#45;1 (Coal and Coke and Syngas and Ash and Coke Oven Gas and...)&#45;&gt;1,7 (Activated Carbon)</title>
<path fill="none" stroke="black" stroke-width="0.27" d="M334.43,-1134.86C397.72,-1003.44 782.83,-203.75 859.15,-45.28"/>
<polygon fill="black" stroke="black" stroke-width="0.27" points="862.34,-46.71 863.53,-36.18 856.04,-43.67 862.34,-46.71"/>
<text text-anchor="middle" x="542.79" y="-593.87" font-family="Times,serif" font-size="14.00">coal&#45;dust*8336</text>
</g>
<!-- &#45;5,&#45;1 (Coal and Coke and Syngas and Ash and Coke Oven Gas and...)&#45;&gt;5,5 (Silicon) -->
<g id="edge11" class="edge">
<title>&#45;5,&#45;1 (Coal and Coke and Syngas and Ash and Coke Oven Gas and...)&#45;&gt;5,5 (Silicon)</title>
<path fill="none" stroke="black" stroke-width="0.54" d="M325.62,-1134.81C325.62,-1039.32 325.62,-598.97 325.62,-482.35"/>
<polygon fill="black" stroke="black" stroke-width="0.54" points="329.12,-482.1 325.62,-472.1 322.12,-482.1 329.12,-482.1"/>
<text text-anchor="middle" x="267.12" y="-812.38" font-family="Times,serif" font-size="14.00">coal&#45;dust*16768</text>
</g>
<!-- 4,14 (A Coal mine, Coke oven gas wasted by venting, Coke direct from mine, A Coal mine?, A Coal mine?!) -->
<g id="node4" class="node">
<title>4,14 (A Coal mine, Coke oven gas wasted by venting, Coke direct from mine, A Coal mine?, A Coal mine?!)</title>
<ellipse fill="none" stroke="black" cx="2433.04" cy="-803.55" rx="503.91" ry="18"/>
<text text-anchor="middle" x="2433.04" y="-799.85" font-family="Times,serif" font-size="14.00">4,14 (A Coal mine, Coke oven gas wasted by venting, Coke direct from mine, A Coal mine?, A Coal mine?!)</text>
</g>
<!-- 4,14 (A Coal mine, Coke oven gas wasted by venting, Coke direct from mine, A Coal mine?, A Coal mine?!)&#45;&gt;&#45;2,8 (syngas from coal dust and also wood) -->
<g id="edge3" class="edge">
<title>4,14 (A Coal mine, Coke oven gas wasted by venting, Coke direct from mine, A Coal mine?, A Coal mine?!)&#45;&gt;&#45;2,8 (syngas from coal dust and also wood)</title>
<path fill="none" stroke="black" stroke-width="0.58" d="M1929.08,-803.55C1929.04,-803.55 1929,-803.55 1928.95,-803.55"/>
<polygon fill="black" stroke="black" stroke-width="0.58" points="1938.83,-800.06 1928.83,-803.55 1938.82,-807.06 1938.83,-800.06"/>
<text text-anchor="middle" x="1870.52" y="-807.35" font-family="Times,serif" font-size="14.00">coal&#45;dust*17872</text>
</g>
<!-- &#45;7,5 () -->
<g id="node5" class="node">
<title>&#45;7,5 ()</title>
<ellipse fill="none" stroke="black" cx="1553.96" cy="-1433.51" rx="38.19" ry="18"/>
<text text-anchor="middle" x="1553.96" y="-1429.81" font-family="Times,serif" font-size="14.00">&#45;7,5 ()</text>
</g>
<!-- &#45;7,5 ()&#45;&gt;&#45;2,8 (syngas from coal dust and also wood) -->
<g id="edge4" class="edge">
<title>&#45;7,5 ()&#45;&gt;&#45;2,8 (syngas from coal dust and also wood)</title>
<path fill="none" stroke="black" stroke-width="0.53" d="M1562.55,-1415.68C1605,-1327.52 1792.4,-938.38 1844.09,-831.05"/>
<polygon fill="black" stroke="black" stroke-width="0.53" points="1847.34,-832.37 1848.53,-821.84 1841.03,-829.33 1847.34,-832.37"/>
<text text-anchor="middle" x="1644.82" y="-1127.16" font-family="Times,serif" font-size="14.00">coal&#45;dust*16320</text>
</g>
<!-- &#45;7,5 ()&#45;&gt;&#45;3,9 (Silicon Wafers) -->
<g id="edge6" class="edge">
<title>&#45;7,5 ()&#45;&gt;&#45;3,9 (Silicon Wafers)</title>
<path fill="none" stroke="black" stroke-width="0.08" d="M1519.22,-1441.44C1413.04,-1465.68 1091.2,-1539.14 945.43,-1572.41"/>
<polygon fill="black" stroke="black" stroke-width="0.08" points="944.21,-1569.1 935.24,-1574.73 945.77,-1575.92 944.21,-1569.1"/>
<text text-anchor="middle" x="1178.32" y="-1510.73" font-family="Times,serif" font-size="14.00">coal&#45;dust*2592</text>
</g>
</g>
</svg>
