<?xml version="1.0" encoding="UTF-8" standalone="no"?>
<!DOCTYPE svg PUBLIC "-//W3C//DTD SVG 1.1//EN"
 "http://www.w3.org/Graphics/SVG/1.1/DTD/svg11.dtd">
<!-- Generated by graphviz version 2.43.0 (0)
 -->
<!-- Title: %3 Pages: 1 -->
<svg width="5277pt" height="4679pt"
 viewBox="0.00 0.00 5276.63 4678.75" xmlns="http://www.w3.org/2000/svg" xmlns:xlink="http://www.w3.org/1999/xlink">
<g id="graph0" class="graph" transform="scale(1 1) rotate(0) translate(4 4674.75)">
<title>%3</title>
<polygon fill="white" stroke="transparent" points="-4,4 -4,-4674.75 5272.63,-4674.75 5272.63,4 -4,4"/>
<!-- &#45;7,&#45;7 (Borax) -->
<g id="node1" class="node">
<title>&#45;7,&#45;7 (Borax)</title>
<ellipse fill="none" stroke="black" cx="4805.9" cy="-2335.38" rx="68.49" ry="18"/>
<text text-anchor="middle" x="4805.9" y="-2331.68" font-family="Times,serif" font-size="14.00">&#45;7,&#45;7 (Borax)</text>
</g>
<!-- &#45;4,&#45;4 (Aluminium) -->
<g id="node2" class="node">
<title>&#45;4,&#45;4 (Aluminium)</title>
<ellipse fill="none" stroke="black" cx="218.32" cy="-2994.97" rx="90.98" ry="18"/>
<text text-anchor="middle" x="218.32" y="-2991.27" font-family="Times,serif" font-size="14.00">&#45;4,&#45;4 (Aluminium)</text>
</g>
<!-- &#45;7,&#45;7 (Borax)&#45;&gt;&#45;4,&#45;4 (Aluminium) -->
<g id="edge1" class="edge">
<title>&#45;7,&#45;7 (Borax)&#45;&gt;&#45;4,&#45;4 (Aluminium)</title>
<path fill="none" stroke="black" stroke-width="4.38" d="M4745.8,-2344.02C4252.76,-2414.91 878.42,-2900.06 301.99,-2982.94"/>
<polygon fill="black" stroke="black" stroke-width="4.38" points="301.45,-2979.15 292.09,-2984.36 302.54,-2986.73 301.45,-2979.15"/>
<text text-anchor="middle" x="2472.9" y="-2667.28" font-family="Times,serif" font-size="14.00">borax*160800</text>
</g>
<!-- 1,12 (Molten Iron) -->
<g id="node4" class="node">
<title>1,12 (Molten Iron)</title>
<ellipse fill="none" stroke="black" cx="1492.12" cy="-4465.01" rx="95.58" ry="18"/>
<text text-anchor="middle" x="1492.12" y="-4461.31" font-family="Times,serif" font-size="14.00">1,12 (Molten Iron)</text>
</g>
<!-- &#45;7,&#45;7 (Borax)&#45;&gt;1,12 (Molten Iron) -->
<g id="edge14" class="edge">
<title>&#45;7,&#45;7 (Borax)&#45;&gt;1,12 (Molten Iron)</title>
<path fill="none" stroke="black" stroke-width="4.07" d="M4779.71,-2352.21C4488.73,-2539.21 1864.72,-4225.56 1527.7,-4442.15"/>
<polygon fill="black" stroke="black" stroke-width="4.07" points="1525.77,-4439.16 1519.28,-4447.56 1529.62,-4445.15 1525.77,-4439.16"/>
<text text-anchor="middle" x="3102.71" y="-3400.98" font-family="Times,serif" font-size="14.00">borax*149280</text>
</g>
<!-- &#45;5,8 (Moar Molten Iron) -->
<g id="node5" class="node">
<title>&#45;5,8 (Moar Molten Iron)</title>
<ellipse fill="none" stroke="black" cx="931.53" cy="-4104.74" rx="120.48" ry="18"/>
<text text-anchor="middle" x="931.53" y="-4101.04" font-family="Times,serif" font-size="14.00">&#45;5,8 (Moar Molten Iron)</text>
</g>
<!-- &#45;7,&#45;7 (Borax)&#45;&gt;&#45;5,8 (Moar Molten Iron) -->
<g id="edge9" class="edge">
<title>&#45;7,&#45;7 (Borax)&#45;&gt;&#45;5,8 (Moar Molten Iron)</title>
<path fill="none" stroke="black" stroke-width="1.86" d="M4771.52,-2351.08C4414.75,-2514.01 1393,-3894 978.57,-4083.26"/>
<polygon fill="black" stroke="black" stroke-width="1.86" points="976.91,-4080.17 969.26,-4087.51 979.81,-4086.54 976.91,-4080.17"/>
<text text-anchor="middle" x="2828.54" y="-3220.97" font-family="Times,serif" font-size="14.00">borax*68160</text>
</g>
<!-- &#45;4,&#45;11 (Molten ironer) -->
<g id="node6" class="node">
<title>&#45;4,&#45;11 (Molten ironer)</title>
<ellipse fill="none" stroke="black" cx="4711.07" cy="-1675.78" rx="110.48" ry="18"/>
<text text-anchor="middle" x="4711.07" y="-1672.08" font-family="Times,serif" font-size="14.00">&#45;4,&#45;11 (Molten ironer)</text>
</g>
<!-- &#45;7,&#45;7 (Borax)&#45;&gt;&#45;4,&#45;11 (Molten ironer) -->
<g id="edge4" class="edge">
<title>&#45;7,&#45;7 (Borax)&#45;&gt;&#45;4,&#45;11 (Molten ironer)</title>
<path fill="none" stroke="black" stroke-width="3.12" d="M4803.27,-2317.05C4790.08,-2225.33 4731.25,-1816.19 4715.15,-1704.2"/>
<polygon fill="black" stroke="black" stroke-width="3.12" points="4718.58,-1703.42 4713.69,-1694.02 4711.65,-1704.42 4718.58,-1703.42"/>
<text text-anchor="middle" x="4708.21" y="-2014.42" font-family="Times,serif" font-size="14.00">borax*114480</text>
</g>
<!-- &#45;4,&#45;7 (Nexelit from raw) -->
<g id="node8" class="node">
<title>&#45;4,&#45;7 (Nexelit from raw)</title>
<ellipse fill="none" stroke="black" cx="2131.51" cy="-4652.75" rx="120.48" ry="18"/>
<text text-anchor="middle" x="2131.51" y="-4649.05" font-family="Times,serif" font-size="14.00">&#45;4,&#45;7 (Nexelit from raw)</text>
</g>
<!-- &#45;7,&#45;7 (Borax)&#45;&gt;&#45;4,&#45;7 (Nexelit from raw) -->
<g id="edge49" class="edge">
<title>&#45;7,&#45;7 (Borax)&#45;&gt;&#45;4,&#45;7 (Nexelit from raw)</title>
<path fill="none" stroke="black" stroke-width="0.69" d="M4785.91,-2352.7C4556.82,-2551.21 2430.61,-4393.58 2159.83,-4628.21"/>
<polygon fill="black" stroke="black" stroke-width="0.69" points="2157.28,-4625.79 2152.01,-4634.98 2161.86,-4631.08 2157.28,-4625.79"/>
<text text-anchor="middle" x="3426.37" y="-3494.25" font-family="Times,serif" font-size="14.00">borax*25200</text>
</g>
<!-- 8,&#45;10 (Copper plate duplicater) -->
<g id="node9" class="node">
<title>8,&#45;10 (Copper plate duplicater)</title>
<ellipse fill="none" stroke="black" cx="2797.88" cy="-4652.75" rx="154.07" ry="18"/>
<text text-anchor="middle" x="2797.88" y="-4649.05" font-family="Times,serif" font-size="14.00">8,&#45;10 (Copper plate duplicater)</text>
</g>
<!-- &#45;7,&#45;7 (Borax)&#45;&gt;8,&#45;10 (Copper plate duplicater) -->
<g id="edge36" class="edge">
<title>&#45;7,&#45;7 (Borax)&#45;&gt;8,&#45;10 (Copper plate duplicater)</title>
<path fill="none" stroke="black" stroke-width="0.14" d="M4790.61,-2353.03C4617.47,-2552.84 3028.6,-4386.5 2820.36,-4626.81"/>
<polygon fill="black" stroke="black" stroke-width="0.14" points="2817.44,-4624.84 2813.54,-4634.69 2822.73,-4629.42 2817.44,-4624.84"/>
<text text-anchor="middle" x="3763.48" y="-3493.72" font-family="Times,serif" font-size="14.00">borax*5040</text>
</g>
<!-- &#45;1,11 (Steel Plate (from molten)) -->
<g id="node10" class="node">
<title>&#45;1,11 (Steel Plate (from molten))</title>
<ellipse fill="none" stroke="black" cx="3437.27" cy="-4465.01" rx="161.37" ry="18"/>
<text text-anchor="middle" x="3437.27" y="-4461.31" font-family="Times,serif" font-size="14.00">&#45;1,11 (Steel Plate (from molten))</text>
</g>
<!-- &#45;7,&#45;7 (Borax)&#45;&gt;&#45;1,11 (Steel Plate (from molten)) -->
<g id="edge20" class="edge">
<title>&#45;7,&#45;7 (Borax)&#45;&gt;&#45;1,11 (Steel Plate (from molten))</title>
<path fill="none" stroke="black" stroke-width="4.8" d="M4794.48,-2353.15C4671.99,-2543.75 3602.47,-4207.95 3454.28,-4438.55"/>
<polygon fill="black" stroke="black" stroke-width="4.8" points="3450.71,-4436.33 3448.84,-4447.01 3457.77,-4440.87 3450.71,-4436.33"/>
<text text-anchor="middle" x="4073.38" y="-3399.65" font-family="Times,serif" font-size="14.00">borax*176160</text>
</g>
<!-- &#45;7,&#45;8 (Tin mk2) -->
<g id="node11" class="node">
<title>&#45;7,&#45;8 (Tin mk2)</title>
<ellipse fill="none" stroke="black" cx="3997.86" cy="-4104.74" rx="78.79" ry="18"/>
<text text-anchor="middle" x="3997.86" y="-4101.04" font-family="Times,serif" font-size="14.00">&#45;7,&#45;8 (Tin mk2)</text>
</g>
<!-- &#45;7,&#45;7 (Borax)&#45;&gt;&#45;7,&#45;8 (Tin mk2) -->
<g id="edge11" class="edge">
<title>&#45;7,&#45;7 (Borax)&#45;&gt;&#45;7,&#45;8 (Tin mk2)</title>
<path fill="none" stroke="black" stroke-width="2.05" d="M4797.64,-2353.46C4719.19,-2525.25 4106.27,-3867.36 4010.44,-4077.19"/>
<polygon fill="black" stroke="black" stroke-width="2.05" points="4007.13,-4076.03 4006.15,-4086.58 4013.49,-4078.94 4007.13,-4076.03"/>
<text text-anchor="middle" x="4357.54" y="-3219.13" font-family="Times,serif" font-size="14.00">borax*75120</text>
</g>
<!-- 9,&#45;10 (Copper plate yet again) -->
<g id="node12" class="node">
<title>9,&#45;10 (Copper plate yet again)</title>
<ellipse fill="none" stroke="black" cx="4434.24" cy="-3601.13" rx="149.47" ry="18"/>
<text text-anchor="middle" x="4434.24" y="-3597.43" font-family="Times,serif" font-size="14.00">9,&#45;10 (Copper plate yet again)</text>
</g>
<!-- &#45;7,&#45;7 (Borax)&#45;&gt;9,&#45;10 (Copper plate yet again) -->
<g id="edge12" class="edge">
<title>&#45;7,&#45;7 (Borax)&#45;&gt;9,&#45;10 (Copper plate yet again)</title>
<path fill="none" stroke="black" stroke-width="0.83" d="M4800.51,-2353.76C4759.15,-2494.61 4492.74,-3401.91 4442.43,-3573.24"/>
<polygon fill="black" stroke="black" stroke-width="0.83" points="4439.02,-3572.44 4439.56,-3583.02 4445.74,-3574.41 4439.02,-3572.44"/>
<text text-anchor="middle" x="4574.97" y="-2952.3" font-family="Times,serif" font-size="14.00">borax*30480</text>
</g>
<!-- 3,9 (Copper, molten &amp; plate) -->
<g id="node13" class="node">
<title>3,9 (Copper, molten &amp; plate)</title>
<ellipse fill="none" stroke="black" cx="4711.07" cy="-2994.97" rx="143.77" ry="18"/>
<text text-anchor="middle" x="4711.07" y="-2991.27" font-family="Times,serif" font-size="14.00">3,9 (Copper, molten &amp; plate)</text>
</g>
<!-- &#45;7,&#45;7 (Borax)&#45;&gt;3,9 (Copper, molten &amp; plate) -->
<g id="edge13" class="edge">
<title>&#45;7,&#45;7 (Borax)&#45;&gt;3,9 (Copper, molten &amp; plate)</title>
<path fill="none" stroke="black" stroke-width="2.69" d="M4803.27,-2353.71C4790.08,-2445.43 4731.25,-2854.57 4715.15,-2966.55"/>
<polygon fill="black" stroke="black" stroke-width="2.69" points="4711.65,-2966.33 4713.69,-2976.73 4718.58,-2967.33 4711.65,-2966.33"/>
<text text-anchor="middle" x="4712.71" y="-2663.93" font-family="Times,serif" font-size="14.00">borax*98640</text>
</g>
<!-- &#45;6,8 (Copper plate duplicate) -->
<g id="node14" class="node">
<title>&#45;6,8 (Copper plate duplicate)</title>
<ellipse fill="none" stroke="black" cx="4434.24" cy="-1069.62" rx="143.77" ry="18"/>
<text text-anchor="middle" x="4434.24" y="-1065.92" font-family="Times,serif" font-size="14.00">&#45;6,8 (Copper plate duplicate)</text>
</g>
<!-- &#45;7,&#45;7 (Borax)&#45;&gt;&#45;6,8 (Copper plate duplicate) -->
<g id="edge26" class="edge">
<title>&#45;7,&#45;7 (Borax)&#45;&gt;&#45;6,8 (Copper plate duplicate)</title>
<path fill="none" stroke="black" stroke-width="0.96" d="M4800.51,-2317C4759.15,-2176.15 4492.74,-1268.84 4442.43,-1097.51"/>
<polygon fill="black" stroke="black" stroke-width="0.96" points="4445.74,-1096.34 4439.56,-1087.73 4439.02,-1098.31 4445.74,-1096.34"/>
<text text-anchor="middle" x="4574.97" y="-1711.05" font-family="Times,serif" font-size="14.00">borax*35280</text>
</g>
<!-- 8,1 (Molten Copper) -->
<g id="node15" class="node">
<title>8,1 (Molten Copper)</title>
<ellipse fill="none" stroke="black" cx="3997.86" cy="-566.01" rx="104.78" ry="18"/>
<text text-anchor="middle" x="3997.86" y="-562.31" font-family="Times,serif" font-size="14.00">8,1 (Molten Copper)</text>
</g>
<!-- &#45;7,&#45;7 (Borax)&#45;&gt;8,1 (Molten Copper) -->
<g id="edge31" class="edge">
<title>&#45;7,&#45;7 (Borax)&#45;&gt;8,1 (Molten Copper)</title>
<path fill="none" stroke="black" stroke-width="1.04" d="M4797.64,-2317.29C4719.19,-2145.5 4106.27,-803.39 4010.44,-593.56"/>
<polygon fill="black" stroke="black" stroke-width="1.04" points="4013.49,-591.82 4006.15,-584.17 4007.13,-594.72 4013.49,-591.82"/>
<text text-anchor="middle" x="4357.54" y="-1459.22" font-family="Times,serif" font-size="14.00">borax*38160</text>
</g>
<!-- &#45;1,10 (Iron Plates) -->
<g id="node16" class="node">
<title>&#45;1,10 (Iron Plates)</title>
<ellipse fill="none" stroke="black" cx="3437.27" cy="-205.74" rx="94.78" ry="18"/>
<text text-anchor="middle" x="3437.27" y="-202.04" font-family="Times,serif" font-size="14.00">&#45;1,10 (Iron Plates)</text>
</g>
<!-- &#45;7,&#45;7 (Borax)&#45;&gt;&#45;1,10 (Iron Plates) -->
<g id="edge57" class="edge">
<title>&#45;7,&#45;7 (Borax)&#45;&gt;&#45;1,10 (Iron Plates)</title>
<path fill="none" stroke="black" stroke-width="0.71" d="M4794.48,-2317.61C4671.99,-2127 3602.47,-462.8 3454.28,-232.21"/>
<polygon fill="black" stroke="black" stroke-width="0.71" points="3457.19,-230.26 3448.84,-223.74 3451.3,-234.04 3457.19,-230.26"/>
<text text-anchor="middle" x="4077.88" y="-1278.71" font-family="Times,serif" font-size="14.00">borax*26160</text>
</g>
<!-- 2,10 (Nickel plate and Nichrome) -->
<g id="node17" class="node">
<title>2,10 (Nickel plate and Nichrome)</title>
<ellipse fill="none" stroke="black" cx="2797.88" cy="-18" rx="165.17" ry="18"/>
<text text-anchor="middle" x="2797.88" y="-14.3" font-family="Times,serif" font-size="14.00">2,10 (Nickel plate and Nichrome)</text>
</g>
<!-- &#45;7,&#45;7 (Borax)&#45;&gt;2,10 (Nickel plate and Nichrome) -->
<g id="edge19" class="edge">
<title>&#45;7,&#45;7 (Borax)&#45;&gt;2,10 (Nickel plate and Nichrome)</title>
<path fill="none" stroke="black" stroke-width="1.33" d="M4790.61,-2317.73C4617.47,-2117.91 3028.6,-284.26 2820.36,-43.94"/>
<polygon fill="black" stroke="black" stroke-width="1.33" points="2822.73,-41.33 2813.54,-36.07 2817.44,-45.92 2822.73,-41.33"/>
<text text-anchor="middle" x="3758.98" y="-1184.63" font-family="Times,serif" font-size="14.00">borax*48960</text>
</g>
<!-- &#45;4,&#45;1 (fluid=boric&#45;acid Boron products) -->
<g id="node18" class="node">
<title>&#45;4,&#45;1 (fluid=boric&#45;acid Boron products)</title>
<ellipse fill="none" stroke="black" cx="2131.51" cy="-18" rx="189.57" ry="18"/>
<text text-anchor="middle" x="2131.51" y="-14.3" font-family="Times,serif" font-size="14.00">&#45;4,&#45;1 (fluid=boric&#45;acid Boron products)</text>
</g>
<!-- &#45;7,&#45;7 (Borax)&#45;&gt;&#45;4,&#45;1 (fluid=boric&#45;acid Boron products) -->
<g id="edge21" class="edge">
<title>&#45;7,&#45;7 (Borax)&#45;&gt;&#45;4,&#45;1 (fluid=boric&#45;acid Boron products)</title>
<path fill="none" stroke="black" stroke-width="1.97" d="M4785.91,-2318.06C4556.94,-2119.65 2432.81,-279.08 2160.25,-42.91"/>
<polygon fill="black" stroke="black" stroke-width="1.97" points="2162.23,-39.99 2152.38,-36.09 2157.64,-45.28 2162.23,-39.99"/>
<text text-anchor="middle" x="3426.58" y="-1184.28" font-family="Times,serif" font-size="14.00">borax*72240</text>
</g>
<!-- &#45;2,9 (molten steel) -->
<g id="node19" class="node">
<title>&#45;2,9 (molten steel)</title>
<ellipse fill="none" stroke="black" cx="1492.12" cy="-205.74" rx="95.58" ry="18"/>
<text text-anchor="middle" x="1492.12" y="-202.04" font-family="Times,serif" font-size="14.00">&#45;2,9 (molten steel)</text>
</g>
<!-- &#45;7,&#45;7 (Borax)&#45;&gt;&#45;2,9 (molten steel) -->
<g id="edge35" class="edge">
<title>&#45;7,&#45;7 (Borax)&#45;&gt;&#45;2,9 (molten steel)</title>
<path fill="none" stroke="black" stroke-width="2.2" d="M4779.71,-2318.54C4488.73,-2131.54 1864.72,-445.19 1527.7,-228.61"/>
<polygon fill="black" stroke="black" stroke-width="2.2" points="1529.59,-225.65 1519.28,-223.19 1525.8,-231.54 1529.59,-225.65"/>
<text text-anchor="middle" x="3107.21" y="-1277.38" font-family="Times,serif" font-size="14.00">borax*80640</text>
</g>
<!-- 0,0 (LE BUS) -->
<g id="node20" class="node">
<title>0,0 (LE BUS)</title>
<ellipse fill="none" stroke="black" cx="5036.01" cy="-1871.98" rx="71.49" ry="18"/>
<text text-anchor="middle" x="5036.01" y="-1868.28" font-family="Times,serif" font-size="14.00">0,0 (LE BUS)</text>
</g>
<!-- &#45;7,&#45;7 (Borax)&#45;&gt;0,0 (LE BUS) -->
<g id="edge29" class="edge">
<title>&#45;7,&#45;7 (Borax)&#45;&gt;0,0 (LE BUS)</title>
<path fill="none" stroke="black" stroke-width="1.1" d="M4814.78,-2317.49C4850.01,-2246.54 4980.1,-1984.58 5022.53,-1899.13"/>
<polygon fill="black" stroke="black" stroke-width="1.1" points="5025.72,-1900.57 5027.03,-1890.05 5019.45,-1897.45 5025.72,-1900.57"/>
<text text-anchor="middle" x="4872.16" y="-2112.11" font-family="Times,serif" font-size="14.00">borax*40320</text>
</g>
<!-- 3,12 (reserved &#45; Candle, reserved &#45; Candle, reserved &#45; Candle) -->
<g id="node21" class="node">
<title>3,12 (reserved &#45; Candle, reserved &#45; Candle, reserved &#45; Candle)</title>
<ellipse fill="none" stroke="black" cx="931.53" cy="-566.01" rx="298.15" ry="18"/>
<text text-anchor="middle" x="931.53" y="-562.31" font-family="Times,serif" font-size="14.00">3,12 (reserved &#45; Candle, reserved &#45; Candle, reserved &#45; Candle)</text>
</g>
<!-- &#45;7,&#45;7 (Borax)&#45;&gt;3,12 (reserved &#45; Candle, reserved &#45; Candle, reserved &#45; Candle) -->
<g id="edge51" class="edge">
<title>&#45;7,&#45;7 (Borax)&#45;&gt;3,12 (reserved &#45; Candle, reserved &#45; Candle, reserved &#45; Candle)</title>
<path fill="none" stroke="black" stroke-width="0.18" d="M4771.52,-2319.68C4415.13,-2156.91 1399.37,-779.67 979.89,-588.09"/>
<polygon fill="black" stroke="black" stroke-width="0.18" points="981.3,-584.89 970.75,-583.92 978.39,-591.26 981.3,-584.89"/>
<text text-anchor="middle" x="2833.7" y="-1457.68" font-family="Times,serif" font-size="14.00">borax*6480</text>
</g>
<!-- 6,3 (Things from molten) -->
<g id="node22" class="node">
<title>6,3 (Things from molten)</title>
<ellipse fill="none" stroke="black" cx="495.15" cy="-1069.62" rx="126.18" ry="18"/>
<text text-anchor="middle" x="495.15" y="-1065.92" font-family="Times,serif" font-size="14.00">6,3 (Things from molten)</text>
</g>
<!-- &#45;7,&#45;7 (Borax)&#45;&gt;6,3 (Things from molten) -->
<g id="edge56" class="edge">
<title>&#45;7,&#45;7 (Borax)&#45;&gt;6,3 (Things from molten)</title>
<path fill="none" stroke="black" stroke-width="0.06" d="M4760.05,-2321.91C4333.51,-2196.67 1063.85,-1236.61 560.19,-1088.72"/>
<polygon fill="black" stroke="black" stroke-width="0.06" points="561.12,-1085.35 550.54,-1085.89 559.14,-1092.06 561.12,-1085.35"/>
<text text-anchor="middle" x="2618.12" y="-1709.12" font-family="Times,serif" font-size="14.00">borax*2160</text>
</g>
<!-- 4,3 (item=nexelit&#45;plate Nexelit platery) -->
<g id="node24" class="node">
<title>4,3 (item=nexelit&#45;plate Nexelit platery)</title>
<ellipse fill="none" stroke="black" cx="5074.3" cy="-2207.39" rx="194.17" ry="18"/>
<text text-anchor="middle" x="5074.3" y="-2203.69" font-family="Times,serif" font-size="14.00">4,3 (item=nexelit&#45;plate Nexelit platery)</text>
</g>
<!-- &#45;7,&#45;7 (Borax)&#45;&gt;4,3 (item=nexelit&#45;plate Nexelit platery) -->
<g id="edge46" class="edge">
<title>&#45;7,&#45;7 (Borax)&#45;&gt;4,3 (item=nexelit&#45;plate Nexelit platery)</title>
<path fill="none" stroke="black" stroke-width="0.29" d="M4839.08,-2319.55C4886.45,-2296.97 4973.67,-2255.38 5027.56,-2229.68"/>
<polygon fill="black" stroke="black" stroke-width="0.29" points="5029.37,-2232.69 5036.89,-2225.23 5026.35,-2226.37 5029.37,-2232.69"/>
<text text-anchor="middle" x="4886.82" y="-2278.42" font-family="Times,serif" font-size="14.00">borax*10800</text>
</g>
<!-- 4,6 (Circuit substrate and Doped silicon) -->
<g id="node25" class="node">
<title>4,6 (Circuit substrate and Doped silicon)</title>
<ellipse fill="none" stroke="black" cx="5055.62" cy="-2672.26" rx="199.56" ry="18"/>
<text text-anchor="middle" x="5055.62" y="-2668.56" font-family="Times,serif" font-size="14.00">4,6 (Circuit substrate and Doped silicon)</text>
</g>
<!-- &#45;7,&#45;7 (Borax)&#45;&gt;4,6 (Circuit substrate and Doped silicon) -->
<g id="edge54" class="edge">
<title>&#45;7,&#45;7 (Borax)&#45;&gt;4,6 (Circuit substrate and Doped silicon)</title>
<path fill="none" stroke="black" stroke-width="0.07" d="M4819.33,-2353.49C4860.83,-2409.47 4987.16,-2579.9 5036.03,-2645.83"/>
<polygon fill="black" stroke="black" stroke-width="0.07" points="5033.37,-2648.11 5042.13,-2654.06 5038.99,-2643.94 5033.37,-2648.11"/>
<text text-anchor="middle" x="4885.68" y="-2503.46" font-family="Times,serif" font-size="14.00">borax*2640</text>
</g>
<!-- &#45;2,7 (item=borax Borax) -->
<g id="node3" class="node">
<title>&#45;2,7 (item=borax Borax)</title>
<ellipse fill="none" stroke="black" cx="123.49" cy="-2335.38" rx="123.48" ry="18"/>
<text text-anchor="middle" x="123.49" y="-2331.68" font-family="Times,serif" font-size="14.00">&#45;2,7 (item=borax Borax)</text>
</g>
<!-- &#45;2,7 (item=borax Borax)&#45;&gt;&#45;4,&#45;4 (Aluminium) -->
<g id="edge15" class="edge">
<title>&#45;2,7 (item=borax Borax)&#45;&gt;&#45;4,&#45;4 (Aluminium)</title>
<path fill="none" stroke="black" stroke-width="0.84" d="M126.12,-2353.71C139.31,-2445.43 198.14,-2854.57 214.24,-2966.55"/>
<polygon fill="black" stroke="black" stroke-width="0.84" points="210.81,-2967.33 215.7,-2976.73 217.74,-2966.33 210.81,-2967.33"/>
<text text-anchor="middle" x="123.68" y="-2663.93" font-family="Times,serif" font-size="14.00">borax*30960</text>
</g>
<!-- &#45;2,7 (item=borax Borax)&#45;&gt;1,12 (Molten Iron) -->
<g id="edge2" class="edge">
<title>&#45;2,7 (item=borax Borax)&#45;&gt;1,12 (Molten Iron)</title>
<path fill="none" stroke="black" stroke-width="1.43" d="M135.11,-2353.47C258.6,-2545.61 1327.08,-4208.2 1475.13,-4438.57"/>
<polygon fill="black" stroke="black" stroke-width="1.43" points="1472.22,-4440.51 1480.57,-4447.03 1478.11,-4436.73 1472.22,-4440.51"/>
<text text-anchor="middle" x="758.62" y="-3399.82" font-family="Times,serif" font-size="14.00">borax*52400</text>
</g>
<!-- &#45;2,7 (item=borax Borax)&#45;&gt;&#45;5,8 (Moar Molten Iron) -->
<g id="edge3" class="edge">
<title>&#45;2,7 (item=borax Borax)&#45;&gt;&#45;5,8 (Moar Molten Iron)</title>
<path fill="none" stroke="black" stroke-width="0.99" d="M131.75,-2353.46C210.2,-2525.25 823.12,-3867.36 918.95,-4077.19"/>
<polygon fill="black" stroke="black" stroke-width="0.99" points="915.9,-4078.94 923.24,-4086.58 922.27,-4076.03 915.9,-4078.94"/>
<text text-anchor="middle" x="478.85" y="-3219.13" font-family="Times,serif" font-size="14.00">borax*36400</text>
</g>
<!-- &#45;2,7 (item=borax Borax)&#45;&gt;&#45;4,&#45;11 (Molten ironer) -->
<g id="edge23" class="edge">
<title>&#45;2,7 (item=borax Borax)&#45;&gt;&#45;4,&#45;11 (Molten ironer)</title>
<path fill="none" stroke="black" stroke-width="1.62" d="M211.54,-2322.72C788.66,-2239.74 4025.58,-1774.34 4617.96,-1689.17"/>
<polygon fill="black" stroke="black" stroke-width="1.62" points="4618.76,-1692.59 4628.16,-1687.7 4617.77,-1685.66 4618.76,-1692.59"/>
<text text-anchor="middle" x="2368.25" y="-2009.74" font-family="Times,serif" font-size="14.00">borax*59360</text>
</g>
<!-- &#45;2,7 (item=borax Borax)&#45;&gt;&#45;4,&#45;7 (Nexelit from raw) -->
<g id="edge39" class="edge">
<title>&#45;2,7 (item=borax Borax)&#45;&gt;&#45;4,&#45;7 (Nexelit from raw)</title>
<path fill="none" stroke="black" stroke-width="0.27" d="M139.07,-2353.36C313.68,-2554.87 1901.02,-4386.76 2109.05,-4626.84"/>
<polygon fill="black" stroke="black" stroke-width="0.27" points="2106.67,-4629.44 2115.87,-4634.7 2111.96,-4624.85 2106.67,-4629.44"/>
<text text-anchor="middle" x="1077.56" y="-3493.9" font-family="Times,serif" font-size="14.00">borax*10080</text>
</g>
<!-- &#45;2,7 (item=borax Borax)&#45;&gt;8,&#45;10 (Copper plate duplicater) -->
<g id="edge48" class="edge">
<title>&#45;2,7 (item=borax Borax)&#45;&gt;8,&#45;10 (Copper plate duplicater)</title>
<path fill="none" stroke="black" stroke-width="0.4" d="M144.24,-2353.36C377.14,-2555.17 2497.19,-4392.2 2769.2,-4627.9"/>
<polygon fill="black" stroke="black" stroke-width="0.4" points="2767.2,-4630.8 2777.05,-4634.7 2771.79,-4625.51 2767.2,-4630.8"/>
<text text-anchor="middle" x="1410.22" y="-3494.43" font-family="Times,serif" font-size="14.00">borax*14560</text>
</g>
<!-- &#45;2,7 (item=borax Borax)&#45;&gt;&#45;1,11 (Steel Plate (from molten)) -->
<g id="edge8" class="edge">
<title>&#45;2,7 (item=borax Borax)&#45;&gt;&#45;1,11 (Steel Plate (from molten))</title>
<path fill="none" stroke="black" stroke-width="0.72" d="M151.14,-2353.15C449.05,-2544.6 3060.38,-4222.8 3400.75,-4441.54"/>
<polygon fill="black" stroke="black" stroke-width="0.72" points="3398.96,-4444.55 3409.26,-4447.01 3402.74,-4438.66 3398.96,-4444.55"/>
<text text-anchor="middle" x="1729.44" y="-3401.14" font-family="Times,serif" font-size="14.00">borax*26320</text>
</g>
<!-- &#45;2,7 (item=borax Borax)&#45;&gt;&#45;7,&#45;8 (Tin mk2) -->
<g id="edge22" class="edge">
<title>&#45;2,7 (item=borax Borax)&#45;&gt;&#45;7,&#45;8 (Tin mk2)</title>
<path fill="none" stroke="black" stroke-width="1.29" d="M161.21,-2352.6C533.73,-2522.73 3548.39,-3899.48 3953.01,-4084.26"/>
<polygon fill="black" stroke="black" stroke-width="1.29" points="3951.8,-4087.56 3962.35,-4088.53 3954.71,-4081.19 3951.8,-4087.56"/>
<text text-anchor="middle" x="2010.61" y="-3222.23" font-family="Times,serif" font-size="14.00">borax*47200</text>
</g>
<!-- &#45;2,7 (item=borax Borax)&#45;&gt;9,&#45;10 (Copper plate yet again) -->
<g id="edge42" class="edge">
<title>&#45;2,7 (item=borax Borax)&#45;&gt;9,&#45;10 (Copper plate yet again)</title>
<path fill="none" stroke="black" stroke-width="1.2" d="M178.78,-2351.61C641.33,-2487.43 3862.45,-3433.23 4367.64,-3581.57"/>
<polygon fill="black" stroke="black" stroke-width="1.2" points="4366.76,-3584.96 4377.34,-3584.42 4368.73,-3578.24 4366.76,-3584.96"/>
<text text-anchor="middle" x="2226.71" y="-2970.39" font-family="Times,serif" font-size="14.00">borax*43920</text>
</g>
<!-- &#45;2,7 (item=borax Borax)&#45;&gt;3,9 (Copper, molten &amp; plate) -->
<g id="edge47" class="edge">
<title>&#45;2,7 (item=borax Borax)&#45;&gt;3,9 (Copper, molten &amp; plate)</title>
<path fill="none" stroke="black" stroke-width="0.86" d="M211.54,-2348.04C784.95,-2430.48 3983.99,-2890.43 4606.19,-2979.89"/>
<polygon fill="black" stroke="black" stroke-width="0.86" points="4606.09,-2983.41 4616.48,-2981.37 4607.08,-2976.48 4606.09,-2983.41"/>
<text text-anchor="middle" x="2362.37" y="-2667.76" font-family="Times,serif" font-size="14.00">borax*31440</text>
</g>
<!-- &#45;2,7 (item=borax Borax)&#45;&gt;&#45;6,8 (Copper plate duplicate) -->
<g id="edge16" class="edge">
<title>&#45;2,7 (item=borax Borax)&#45;&gt;&#45;6,8 (Copper plate duplicate)</title>
<path fill="none" stroke="black" stroke-width="0.65" d="M178.78,-2319.14C641.45,-2183.29 3864.14,-1237.02 4368.04,-1089.06"/>
<polygon fill="black" stroke="black" stroke-width="0.65" points="4369.1,-1092.4 4377.71,-1086.22 4367.13,-1085.68 4369.1,-1092.4"/>
<text text-anchor="middle" x="2226.91" y="-1707.9" font-family="Times,serif" font-size="14.00">borax*23760</text>
</g>
<!-- &#45;2,7 (item=borax Borax)&#45;&gt;8,1 (Molten Copper) -->
<g id="edge34" class="edge">
<title>&#45;2,7 (item=borax Borax)&#45;&gt;8,1 (Molten Copper)</title>
<path fill="none" stroke="black" stroke-width="0.47" d="M161.21,-2318.15C533.34,-2148.2 3542.05,-774.17 3951.73,-587.08"/>
<polygon fill="black" stroke="black" stroke-width="0.47" points="3953.28,-590.22 3960.92,-582.88 3950.37,-583.85 3953.28,-590.22"/>
<text text-anchor="middle" x="2009.97" y="-1456.41" font-family="Times,serif" font-size="14.00">borax*17360</text>
</g>
<!-- &#45;2,7 (item=borax Borax)&#45;&gt;&#45;1,10 (Iron Plates) -->
<g id="edge18" class="edge">
<title>&#45;2,7 (item=borax Borax)&#45;&gt;&#45;1,10 (Iron Plates)</title>
<path fill="none" stroke="black" stroke-width="0.27" d="M151.14,-2317.61C449.21,-2126.05 3063.21,-446.13 3401.3,-228.86"/>
<polygon fill="black" stroke="black" stroke-width="0.27" points="3403.67,-231.49 3410.19,-223.14 3399.89,-225.6 3403.67,-231.49"/>
<text text-anchor="middle" x="1729.72" y="-1277.03" font-family="Times,serif" font-size="14.00">borax*10080</text>
</g>
<!-- &#45;2,7 (item=borax Borax)&#45;&gt;2,10 (Nickel plate and Nichrome) -->
<g id="edge52" class="edge">
<title>&#45;2,7 (item=borax Borax)&#45;&gt;2,10 (Nickel plate and Nichrome)</title>
<path fill="none" stroke="black" stroke-width="0.12" d="M144.24,-2317.4C377.14,-2115.59 2497.19,-278.56 2769.2,-42.86"/>
<polygon fill="black" stroke="black" stroke-width="0.12" points="2771.79,-45.24 2777.05,-36.05 2767.2,-39.95 2771.79,-45.24"/>
<text text-anchor="middle" x="1414.72" y="-1183.93" font-family="Times,serif" font-size="14.00">borax*4320</text>
</g>
<!-- &#45;2,7 (item=borax Borax)&#45;&gt;&#45;4,&#45;1 (fluid=boric&#45;acid Boron products) -->
<g id="edge30" class="edge">
<title>&#45;2,7 (item=borax Borax)&#45;&gt;&#45;4,&#45;1 (fluid=boric&#45;acid Boron products)</title>
<path fill="none" stroke="black" stroke-width="0.29" d="M139.07,-2317.4C313.68,-2115.89 1901.02,-283.99 2109.05,-43.91"/>
<polygon fill="black" stroke="black" stroke-width="0.29" points="2111.96,-45.9 2115.87,-36.05 2106.67,-41.31 2111.96,-45.9"/>
<text text-anchor="middle" x="1077.56" y="-1184.45" font-family="Times,serif" font-size="14.00">borax*10560</text>
</g>
<!-- &#45;2,7 (item=borax Borax)&#45;&gt;&#45;2,9 (molten steel) -->
<g id="edge40" class="edge">
<title>&#45;2,7 (item=borax Borax)&#45;&gt;&#45;2,9 (molten steel)</title>
<path fill="none" stroke="black" stroke-width="0.57" d="M135.11,-2317.29C258.6,-2125.15 1327.08,-462.55 1475.13,-232.18"/>
<polygon fill="black" stroke="black" stroke-width="0.57" points="1478.11,-234.03 1480.57,-223.72 1472.22,-230.24 1478.11,-234.03"/>
<text text-anchor="middle" x="758.62" y="-1278.53" font-family="Times,serif" font-size="14.00">borax*20960</text>
</g>
<!-- &#45;2,7 (item=borax Borax)&#45;&gt;3,12 (reserved &#45; Candle, reserved &#45; Candle, reserved &#45; Candle) -->
<g id="edge53" class="edge">
<title>&#45;2,7 (item=borax Borax)&#45;&gt;3,12 (reserved &#45; Candle, reserved &#45; Candle, reserved &#45; Candle)</title>
<path fill="none" stroke="black" stroke-width="0.06" d="M131.75,-2317.29C210.2,-2145.5 823.12,-803.39 918.95,-593.56"/>
<polygon fill="black" stroke="black" stroke-width="0.06" points="922.27,-594.72 923.24,-584.17 915.9,-591.82 922.27,-594.72"/>
<text text-anchor="middle" x="483.35" y="-1459.22" font-family="Times,serif" font-size="14.00">borax*2080</text>
</g>
<!-- &#45;2,7 (item=borax Borax)&#45;&gt;6,3 (Things from molten) -->
<g id="edge43" class="edge">
<title>&#45;2,7 (item=borax Borax)&#45;&gt;6,3 (Things from molten)</title>
<path fill="none" stroke="black" stroke-width="0.06" d="M128.89,-2317C170.24,-2176.15 436.65,-1268.84 486.96,-1097.51"/>
<polygon fill="black" stroke="black" stroke-width="0.06" points="490.37,-1098.31 489.83,-1087.73 483.66,-1096.34 490.37,-1098.31"/>
<text text-anchor="middle" x="265.92" y="-1711.05" font-family="Times,serif" font-size="14.00">borax*2080</text>
</g>
<!-- &#45;3,2 (Lead and Solder) -->
<g id="node23" class="node">
<title>&#45;3,2 (Lead and Solder)</title>
<ellipse fill="none" stroke="black" cx="218.32" cy="-1675.78" rx="113.98" ry="18"/>
<text text-anchor="middle" x="218.32" y="-1672.08" font-family="Times,serif" font-size="14.00">&#45;3,2 (Lead and Solder)</text>
</g>
<!-- &#45;2,7 (item=borax Borax)&#45;&gt;&#45;3,2 (Lead and Solder) -->
<g id="edge44" class="edge">
<title>&#45;2,7 (item=borax Borax)&#45;&gt;&#45;3,2 (Lead and Solder)</title>
<path fill="none" stroke="black" stroke-width="0.14" d="M126.12,-2317.05C139.31,-2225.33 198.14,-1816.19 214.24,-1704.2"/>
<polygon fill="black" stroke="black" stroke-width="0.14" points="217.74,-1704.42 215.7,-1694.02 210.81,-1703.42 217.74,-1704.42"/>
<text text-anchor="middle" x="128.18" y="-2014.42" font-family="Times,serif" font-size="14.00">borax*5040</text>
</g>
<!-- 4,0 (item=raw&#45;borax item=borax Borax and raw borax) -->
<g id="node7" class="node">
<title>4,0 (item=raw&#45;borax item=borax Borax and raw borax)</title>
<ellipse fill="none" stroke="black" cx="495.15" cy="-3601.13" rx="268.35" ry="18"/>
<text text-anchor="middle" x="495.15" y="-3597.43" font-family="Times,serif" font-size="14.00">4,0 (item=raw&#45;borax item=borax Borax and raw borax)</text>
</g>
<!-- 4,0 (item=raw&#45;borax item=borax Borax and raw borax)&#45;&gt;&#45;4,&#45;4 (Aluminium) -->
<g id="edge25" class="edge">
<title>4,0 (item=raw&#45;borax item=borax Borax and raw borax)&#45;&gt;&#45;4,&#45;4 (Aluminium)</title>
<path fill="none" stroke="black" stroke-width="0.33" d="M486.86,-3582.99C447.38,-3496.54 278.3,-3126.3 230.79,-3022.26"/>
<polygon fill="black" stroke="black" stroke-width="0.33" points="233.91,-3020.68 226.58,-3013.04 227.55,-3023.59 233.91,-3020.68"/>
<text text-anchor="middle" x="312.32" y="-3306.42" font-family="Times,serif" font-size="14.00">borax*12000</text>
</g>
<!-- 4,0 (item=raw&#45;borax item=borax Borax and raw borax)&#45;&gt;1,12 (Molten Iron) -->
<g id="edge7" class="edge">
<title>4,0 (item=raw&#45;borax item=borax Borax and raw borax)&#45;&gt;1,12 (Molten Iron)</title>
<path fill="none" stroke="black" stroke-width="1.42" d="M515.97,-3619.17C643.31,-3729.51 1316.36,-4312.71 1463.63,-4440.33"/>
<polygon fill="black" stroke="black" stroke-width="1.42" points="1461.57,-4443.17 1471.41,-4447.07 1466.15,-4437.88 1461.57,-4443.17"/>
<text text-anchor="middle" x="943.3" y="-4033.55" font-family="Times,serif" font-size="14.00">borax*52320</text>
</g>
<!-- 4,0 (item=raw&#45;borax item=borax Borax and raw borax)&#45;&gt;&#45;5,8 (Moar Molten Iron) -->
<g id="edge27" class="edge">
<title>4,0 (item=raw&#45;borax item=borax Borax and raw borax)&#45;&gt;&#45;5,8 (Moar Molten Iron)</title>
<path fill="none" stroke="black" stroke-width="0.56" d="M510.94,-3619.35C577.1,-3695.7 832.15,-3990.05 909.3,-4079.08"/>
<polygon fill="black" stroke="black" stroke-width="0.56" points="906.8,-4081.54 915.99,-4086.81 912.09,-4076.96 906.8,-4081.54"/>
<text text-anchor="middle" x="663.62" y="-3853.02" font-family="Times,serif" font-size="14.00">borax*20720</text>
</g>
<!-- 4,0 (item=raw&#45;borax item=borax Borax and raw borax)&#45;&gt;&#45;4,&#45;11 (Molten ironer) -->
<g id="edge10" class="edge">
<title>4,0 (item=raw&#45;borax item=borax Borax and raw borax)&#45;&gt;&#45;4,&#45;11 (Molten ironer)</title>
<path fill="none" stroke="black" stroke-width="1.61" d="M534.19,-3583.3C931.28,-3401.96 4232.3,-1894.43 4664.46,-1697.07"/>
<polygon fill="black" stroke="black" stroke-width="1.61" points="4666.21,-1700.12 4673.85,-1692.78 4663.3,-1693.75 4666.21,-1700.12"/>
<text text-anchor="middle" x="2552.83" y="-2643.98" font-family="Times,serif" font-size="14.00">borax*58960</text>
</g>
<!-- 4,0 (item=raw&#45;borax item=borax Borax and raw borax)&#45;&gt;&#45;4,&#45;7 (Nexelit from raw) -->
<g id="edge5" class="edge">
<title>4,0 (item=raw&#45;borax item=borax Borax and raw borax)&#45;&gt;&#45;4,&#45;7 (Nexelit from raw)</title>
<path fill="none" stroke="black" stroke-width="0.14" d="M523.21,-3619.16C718.71,-3744.81 1876.22,-4488.69 2095.62,-4629.69"/>
<polygon fill="black" stroke="black" stroke-width="0.14" points="2093.89,-4632.74 2104.2,-4635.2 2097.68,-4626.85 2093.89,-4632.74"/>
<text text-anchor="middle" x="1267.41" y="-4128.23" font-family="Times,serif" font-size="14.00">borax*5040</text>
</g>
<!-- 4,0 (item=raw&#45;borax item=borax Borax and raw borax)&#45;&gt;8,&#45;10 (Copper plate duplicater) -->
<g id="edge6" class="edge">
<title>4,0 (item=raw&#45;borax item=borax Borax and raw borax)&#45;&gt;8,&#45;10 (Copper plate duplicater)</title>
<path fill="none" stroke="black" stroke-width="0.33" d="M534.15,-3618.94C808.65,-3744.3 2447.97,-4492.95 2750.05,-4630.91"/>
<polygon fill="black" stroke="black" stroke-width="0.33" points="2748.87,-4634.21 2759.42,-4635.19 2751.77,-4627.85 2748.87,-4634.21"/>
<text text-anchor="middle" x="1595.6" y="-4128.72" font-family="Times,serif" font-size="14.00">borax*12080</text>
</g>
<!-- 4,0 (item=raw&#45;borax item=borax Borax and raw borax)&#45;&gt;&#45;1,11 (Steel Plate (from molten)) -->
<g id="edge33" class="edge">
<title>4,0 (item=raw&#45;borax item=borax Borax and raw borax)&#45;&gt;&#45;1,11 (Steel Plate (from molten))</title>
<path fill="none" stroke="black" stroke-width="0.7" d="M554.92,-3618.68C931.55,-3729.27 2973.27,-4328.77 3370.34,-4445.36"/>
<polygon fill="black" stroke="black" stroke-width="0.7" points="3369.38,-4448.73 3379.96,-4448.19 3371.35,-4442.01 3369.38,-4448.73"/>
<text text-anchor="middle" x="1916.13" y="-4035.82" font-family="Times,serif" font-size="14.00">borax*25840</text>
</g>
<!-- 4,0 (item=raw&#45;borax item=borax Borax and raw borax)&#45;&gt;&#45;7,&#45;8 (Tin mk2) -->
<g id="edge45" class="edge">
<title>4,0 (item=raw&#45;borax item=borax Borax and raw borax)&#45;&gt;&#45;7,&#45;8 (Tin mk2)</title>
<path fill="none" stroke="black" stroke-width="0.99" d="M608.71,-3617.46C1150.96,-3695.42 3469.05,-4028.71 3921.22,-4093.72"/>
<polygon fill="black" stroke="black" stroke-width="0.99" points="3920.84,-4097.2 3931.24,-4095.16 3921.84,-4090.28 3920.84,-4097.2"/>
<text text-anchor="middle" x="2218.46" y="-3859.39" font-family="Times,serif" font-size="14.00">borax*36320</text>
</g>
<!-- 4,0 (item=raw&#45;borax item=borax Borax and raw borax)&#45;&gt;9,&#45;10 (Copper plate yet again) -->
<g id="edge28" class="edge">
<title>4,0 (item=raw&#45;borax item=borax Borax and raw borax)&#45;&gt;9,&#45;10 (Copper plate yet again)</title>
<path fill="none" stroke="black" stroke-width="1.13" d="M763.96,-3601.13C1523.75,-3601.13 3671,-3601.13 4274.62,-3601.13"/>
<polygon fill="black" stroke="black" stroke-width="1.13" points="4274.7,-3604.63 4284.7,-3601.13 4274.7,-3597.63 4274.7,-3604.63"/>
<text text-anchor="middle" x="2472.79" y="-3604.93" font-family="Times,serif" font-size="14.00">borax*41440</text>
</g>
<!-- 4,0 (item=raw&#45;borax item=borax Borax and raw borax)&#45;&gt;3,9 (Copper, molten &amp; plate) -->
<g id="edge41" class="edge">
<title>4,0 (item=raw&#45;borax item=borax Borax and raw borax)&#45;&gt;3,9 (Copper, molten &amp; plate)</title>
<path fill="none" stroke="black" stroke-width="0.67" d="M608.73,-3584.8C1211.11,-3498.19 4026.48,-3093.4 4606.43,-3010.02"/>
<polygon fill="black" stroke="black" stroke-width="0.67" points="4607.05,-3013.46 4616.45,-3008.57 4606.05,-3006.53 4607.05,-3013.46"/>
<text text-anchor="middle" x="2561.08" y="-3301.21" font-family="Times,serif" font-size="14.00">borax*24480</text>
</g>
<!-- 4,0 (item=raw&#45;borax item=borax Borax and raw borax)&#45;&gt;&#45;6,8 (Copper plate duplicate) -->
<g id="edge37" class="edge">
<title>4,0 (item=raw&#45;borax item=borax Borax and raw borax)&#45;&gt;&#45;6,8 (Copper plate duplicate)</title>
<path fill="none" stroke="black" stroke-width="0.42" d="M523.21,-3583.09C854.97,-3369.88 4022.84,-1334.02 4398,-1092.92"/>
<polygon fill="black" stroke="black" stroke-width="0.42" points="4400.06,-1095.75 4406.59,-1087.4 4396.28,-1089.86 4400.06,-1095.75"/>
<text text-anchor="middle" x="2414.11" y="-2341.8" font-family="Times,serif" font-size="14.00">borax*15600</text>
</g>
<!-- 4,0 (item=raw&#45;borax item=borax Borax and raw borax)&#45;&gt;8,1 (Molten Copper) -->
<g id="edge17" class="edge">
<title>4,0 (item=raw&#45;borax item=borax Borax and raw borax)&#45;&gt;8,1 (Molten Copper)</title>
<path fill="none" stroke="black" stroke-width="0.35" d="M516.16,-3582.92C790.03,-3345.62 3654.01,-863.96 3969.66,-590.45"/>
<polygon fill="black" stroke="black" stroke-width="0.35" points="3972.18,-592.89 3977.45,-583.7 3967.6,-587.6 3972.18,-592.89"/>
<text text-anchor="middle" x="2196.41" y="-2090.49" font-family="Times,serif" font-size="14.00">borax*12880</text>
</g>
<!-- 4,0 (item=raw&#45;borax item=borax Borax and raw borax)&#45;&gt;&#45;1,10 (Iron Plates) -->
<g id="edge55" class="edge">
<title>4,0 (item=raw&#45;borax item=borax Borax and raw borax)&#45;&gt;&#45;1,10 (Iron Plates)</title>
<path fill="none" stroke="black" stroke-width="0.14" d="M510.98,-3582.86C730.21,-3329.85 3157.02,-529.17 3415.08,-231.34"/>
<polygon fill="black" stroke="black" stroke-width="0.14" points="3417.86,-233.49 3421.76,-223.64 3412.57,-228.9 3417.86,-233.49"/>
<text text-anchor="middle" x="1921.03" y="-1910.9" font-family="Times,serif" font-size="14.00">borax*5040</text>
</g>
<!-- 4,0 (item=raw&#45;borax item=borax Borax and raw borax)&#45;&gt;2,10 (Nickel plate and Nichrome) -->
<g id="edge58" class="edge">
<title>4,0 (item=raw&#45;borax item=borax Borax and raw borax)&#45;&gt;2,10 (Nickel plate and Nichrome)</title>
<path fill="none" stroke="black" stroke-width="0.12" d="M506.72,-3583.12C673.05,-3324.3 2579.9,-357.2 2780.79,-44.6"/>
<polygon fill="black" stroke="black" stroke-width="0.12" points="2783.77,-46.44 2786.23,-36.13 2777.88,-42.65 2783.77,-46.44"/>
<text text-anchor="middle" x="1601.75" y="-1817.66" font-family="Times,serif" font-size="14.00">borax*4320</text>
</g>
<!-- 4,0 (item=raw&#45;borax item=borax Borax and raw borax)&#45;&gt;&#45;4,&#45;1 (fluid=boric&#45;acid Boron products) -->
<g id="edge38" class="edge">
<title>4,0 (item=raw&#45;borax item=borax Borax and raw borax)&#45;&gt;&#45;4,&#45;1 (fluid=boric&#45;acid Boron products)</title>
<path fill="none" stroke="black" stroke-width="0.88" d="M503.37,-3583.12C621.45,-3324.56 1973.93,-363.05 2118.93,-45.53"/>
<polygon fill="black" stroke="black" stroke-width="0.88" points="2122.26,-46.68 2123.23,-36.13 2115.89,-43.77 2122.26,-46.68"/>
<text text-anchor="middle" x="1264.65" y="-1818.13" font-family="Times,serif" font-size="14.00">borax*32400</text>
</g>
<!-- 4,0 (item=raw&#45;borax item=borax Borax and raw borax)&#45;&gt;&#45;2,9 (molten steel) -->
<g id="edge24" class="edge">
<title>4,0 (item=raw&#45;borax item=borax Borax and raw borax)&#45;&gt;&#45;2,9 (molten steel)</title>
<path fill="none" stroke="black" stroke-width="1" d="M500.51,-3582.86C574.58,-3330.6 1392.27,-545.8 1483.81,-234.07"/>
<polygon fill="black" stroke="black" stroke-width="1" points="1487.29,-234.61 1486.75,-224.03 1480.58,-232.64 1487.29,-234.61"/>
<text text-anchor="middle" x="945.66" y="-1912.26" font-family="Times,serif" font-size="14.00">borax*36880</text>
</g>
<!-- 4,0 (item=raw&#45;borax item=borax Borax and raw borax)&#45;&gt;3,12 (reserved &#45; Candle, reserved &#45; Candle, reserved &#45; Candle) -->
<g id="edge32" class="edge">
<title>4,0 (item=raw&#45;borax item=borax Borax and raw borax)&#45;&gt;3,12 (reserved &#45; Candle, reserved &#45; Candle, reserved &#45; Candle)</title>
<path fill="none" stroke="black" stroke-width="0.06" d="M497.77,-3582.92C531.73,-3346.67 885.52,-886.01 927.47,-594.23"/>
<polygon fill="black" stroke="black" stroke-width="0.06" points="930.98,-594.46 928.94,-584.06 924.05,-593.46 930.98,-594.46"/>
<text text-anchor="middle" x="670.62" y="-2092.38" font-family="Times,serif" font-size="14.00">borax*2080</text>
</g>
<!-- 4,0 (item=raw&#45;borax item=borax Borax and raw borax)&#45;&gt;&#45;3,2 (Lead and Solder) -->
<g id="edge50" class="edge">
<title>4,0 (item=raw&#45;borax item=borax Borax and raw borax)&#45;&gt;&#45;3,2 (Lead and Solder)</title>
<path fill="none" stroke="black" stroke-width="0.41" d="M492.54,-3583C466.55,-3402.23 254.33,-1926.19 222.35,-1703.8"/>
<polygon fill="black" stroke="black" stroke-width="0.41" points="225.82,-1703.29 220.93,-1693.89 218.89,-1704.29 225.82,-1703.29"/>
<text text-anchor="middle" x="310.95" y="-2647.2" font-family="Times,serif" font-size="14.00">borax*15200</text>
</g>
</g>
</svg>
