<?xml version="1.0" encoding="UTF-8" standalone="no"?>
<!DOCTYPE svg PUBLIC "-//W3C//DTD SVG 1.1//EN"
 "http://www.w3.org/Graphics/SVG/1.1/DTD/svg11.dtd">
<!-- Generated by graphviz version 2.43.0 (0)
 -->
<!-- Title: %3 Pages: 1 -->
<svg width="1173pt" height="786pt"
 viewBox="0.00 0.00 1173.21 785.73" xmlns="http://www.w3.org/2000/svg" xmlns:xlink="http://www.w3.org/1999/xlink">
<g id="graph0" class="graph" transform="scale(1 1) rotate(0) translate(4 781.73)">
<title>%3</title>
<polygon fill="white" stroke="transparent" points="-4,4 -4,-781.73 1169.21,-781.73 1169.21,4 -4,4"/>
<!-- 2,8 (Graphite) -->
<g id="node1" class="node">
<title>2,8 (Graphite)</title>
<ellipse fill="none" stroke="black" cx="599.25" cy="-390.85" rx="76.09" ry="18"/>
<text text-anchor="middle" x="599.25" y="-387.15" font-family="Times,serif" font-size="14.00">2,8 (Graphite)</text>
</g>
<!-- 2,&#45;2 (Tin Plate, Organic Solvent) -->
<g id="node2" class="node">
<title>2,&#45;2 (Tin Plate, Organic Solvent)</title>
<ellipse fill="none" stroke="black" cx="1005.32" cy="-390.85" rx="159.77" ry="18"/>
<text text-anchor="middle" x="1005.32" y="-387.15" font-family="Times,serif" font-size="14.00">2,&#45;2 (Tin Plate, Organic Solvent)</text>
</g>
<!-- 2,8 (Graphite)&#45;&gt;2,&#45;2 (Tin Plate, Organic Solvent) -->
<g id="edge1" class="edge">
<title>2,8 (Graphite)&#45;&gt;2,&#45;2 (Tin Plate, Organic Solvent)</title>
<path fill="none" stroke="black" stroke-width="1.76" d="M675.63,-390.85C720.62,-390.85 779.42,-390.85 834.88,-390.85"/>
<polygon fill="black" stroke="black" stroke-width="1.76" points="835.2,-394.35 845.2,-390.85 835.2,-387.35 835.2,-394.35"/>
<text text-anchor="middle" x="783.51" y="-379.65" font-family="Times,serif" font-size="14.00">graphite*20672</text>
</g>
<!-- &#45;3,9 (Silicon Wafers) -->
<g id="node3" class="node">
<title>&#45;3,9 (Silicon Wafers)</title>
<ellipse fill="none" stroke="black" cx="769.02" cy="-759.73" rx="103.98" ry="18"/>
<text text-anchor="middle" x="769.02" y="-756.03" font-family="Times,serif" font-size="14.00">&#45;3,9 (Silicon Wafers)</text>
</g>
<!-- 2,8 (Graphite)&#45;&gt;&#45;3,9 (Silicon Wafers) -->
<g id="edge2" class="edge">
<title>2,8 (Graphite)&#45;&gt;&#45;3,9 (Silicon Wafers)</title>
<path fill="none" stroke="black" stroke-width="1.98" d="M607.56,-408.89C635.09,-468.71 723.48,-660.78 756.46,-732.44"/>
<polygon fill="black" stroke="black" stroke-width="1.98" points="753.37,-734.1 760.73,-741.72 759.73,-731.18 753.37,-734.1"/>
<text text-anchor="middle" x="625.51" y="-574.46" font-family="Times,serif" font-size="14.00">graphite*23264</text>
</g>
<!-- 4,13 (Chromium processing) -->
<g id="node4" class="node">
<title>4,13 (Chromium processing)</title>
<ellipse fill="none" stroke="black" cx="348.19" cy="-710.01" rx="142.97" ry="18"/>
<text text-anchor="middle" x="348.19" y="-706.31" font-family="Times,serif" font-size="14.00">4,13 (Chromium processing)</text>
</g>
<!-- 2,8 (Graphite)&#45;&gt;4,13 (Chromium processing) -->
<g id="edge3" class="edge">
<title>2,8 (Graphite)&#45;&gt;4,13 (Chromium processing)</title>
<path fill="none" stroke="black" stroke-width="0.54" d="M585.04,-408.92C542.84,-462.56 418.22,-620.99 368.76,-683.86"/>
<polygon fill="black" stroke="black" stroke-width="0.54" points="366,-681.71 362.56,-691.74 371.5,-686.04 366,-681.71"/>
<text text-anchor="middle" x="424.9" y="-550.19" font-family="Times,serif" font-size="14.00">graphite*6384</text>
</g>
<!-- &#45;4,&#45;4 (Reserved For Aluminium Ore Drop, Aluminium) -->
<g id="node5" class="node">
<title>&#45;4,&#45;4 (Reserved For Aluminium Ore Drop, Aluminium)</title>
<ellipse fill="none" stroke="black" cx="258.03" cy="-170.72" rx="258.05" ry="18"/>
<text text-anchor="middle" x="258.03" y="-167.02" font-family="Times,serif" font-size="14.00">&#45;4,&#45;4 (Reserved For Aluminium Ore Drop, Aluminium)</text>
</g>
<!-- 2,8 (Graphite)&#45;&gt;&#45;4,&#45;4 (Reserved For Aluminium Ore Drop, Aluminium) -->
<g id="edge4" class="edge">
<title>2,8 (Graphite)&#45;&gt;&#45;4,&#45;4 (Reserved For Aluminium Ore Drop, Aluminium)</title>
<path fill="none" stroke="black" stroke-width="0.54" d="M573.04,-373.94C512.73,-335.03 363.99,-239.07 294.67,-194.36"/>
<polygon fill="black" stroke="black" stroke-width="0.54" points="296.53,-191.39 286.23,-188.91 292.73,-197.27 296.53,-191.39"/>
<text text-anchor="middle" x="381.86" y="-287.95" font-family="Times,serif" font-size="14.00">graphite*6400</text>
</g>
<!-- &#45;3,2 (Lead and Solder) -->
<g id="node6" class="node">
<title>&#45;3,2 (Lead and Solder)</title>
<ellipse fill="none" stroke="black" cx="760.11" cy="-18" rx="113.98" ry="18"/>
<text text-anchor="middle" x="760.11" y="-14.3" font-family="Times,serif" font-size="14.00">&#45;3,2 (Lead and Solder)</text>
</g>
<!-- 2,8 (Graphite)&#45;&gt;&#45;3,2 (Lead and Solder) -->
<g id="edge5" class="edge">
<title>2,8 (Graphite)&#45;&gt;&#45;3,2 (Lead and Solder)</title>
<path fill="none" stroke="black" stroke-width="0.17" d="M607.01,-372.87C632.97,-312.71 716.88,-118.22 748.19,-45.64"/>
<polygon fill="black" stroke="black" stroke-width="0.17" points="751.5,-46.81 752.25,-36.24 745.07,-44.04 751.5,-46.81"/>
<text text-anchor="middle" x="625.6" y="-213.06" font-family="Times,serif" font-size="14.00">graphite*2032</text>
</g>
</g>
</svg>
