<?xml version="1.0" encoding="UTF-8" standalone="no"?>
<!DOCTYPE svg PUBLIC "-//W3C//DTD SVG 1.1//EN"
 "http://www.w3.org/Graphics/SVG/1.1/DTD/svg11.dtd">
<!-- Generated by graphviz version 2.43.0 (0)
 -->
<!-- Title: %3 Pages: 1 -->
<svg width="846pt" height="44pt"
 viewBox="0.00 0.00 846.14 44.00" xmlns="http://www.w3.org/2000/svg" xmlns:xlink="http://www.w3.org/1999/xlink">
<g id="graph0" class="graph" transform="scale(1 1) rotate(0) translate(4 40)">
<title>%3</title>
<polygon fill="white" stroke="transparent" points="-4,4 -4,-40 842.14,-40 842.14,4 -4,4"/>
<!-- 6,4 (Electronic components) -->
<g id="node1" class="node">
<title>6,4 (Electronic components)</title>
<ellipse fill="none" stroke="black" cx="439.87" cy="-18" rx="141.88" ry="18"/>
<text text-anchor="middle" x="439.87" y="-14.3" font-family="Times,serif" font-size="14.00">6,4 (Electronic components)</text>
</g>
<!-- 0,0 (LE BUS) -->
<g id="node2" class="node">
<title>0,0 (LE BUS)</title>
<ellipse fill="none" stroke="black" cx="766.64" cy="-18" rx="71.49" ry="18"/>
<text text-anchor="middle" x="766.64" y="-14.3" font-family="Times,serif" font-size="14.00">0,0 (LE BUS)</text>
</g>
<!-- 6,4 (Electronic components)&#45;&gt;0,0 (LE BUS) -->
<g id="edge1" class="edge">
<title>6,4 (Electronic components)&#45;&gt;0,0 (LE BUS)</title>
<path fill="none" stroke="black" stroke-width="0.88" d="M581.77,-18C616.9,-18 653.38,-18 684.55,-18"/>
<polygon fill="black" stroke="black" stroke-width="0.88" points="684.91,-21.5 694.91,-18 684.91,-14.5 684.91,-21.5"/>
<text text-anchor="middle" x="633.16" y="-6.8" font-family="Times,serif" font-size="14.00">capacitor2*12144</text>
</g>
<!-- 5,1 (Complex circuits) -->
<g id="node3" class="node">
<title>5,1 (Complex circuits)</title>
<ellipse fill="none" stroke="black" cx="113.09" cy="-18" rx="113.18" ry="18"/>
<text text-anchor="middle" x="113.09" y="-14.3" font-family="Times,serif" font-size="14.00">5,1 (Complex circuits)</text>
</g>
<!-- 6,4 (Electronic components)&#45;&gt;5,1 (Complex circuits) -->
<g id="edge2" class="edge">
<title>6,4 (Electronic components)&#45;&gt;5,1 (Complex circuits)</title>
<path fill="none" stroke="black" stroke-width="1.12" d="M297.96,-18C277.48,-18 256.54,-18 236.46,-18"/>
<polygon fill="black" stroke="black" stroke-width="1.12" points="236.36,-14.5 226.36,-18 236.36,-21.5 236.36,-14.5"/>
<text text-anchor="middle" x="235.46" y="-6.8" font-family="Times,serif" font-size="14.00">capacitor2*15392</text>
</g>
</g>
</svg>
