<?xml version="1.0" encoding="UTF-8" standalone="no"?>
<!DOCTYPE svg PUBLIC "-//W3C//DTD SVG 1.1//EN"
 "http://www.w3.org/Graphics/SVG/1.1/DTD/svg11.dtd">
<!-- Generated by graphviz version 2.43.0 (0)
 -->
<!-- Title: %3 Pages: 1 -->
<svg width="1521pt" height="1320pt"
 viewBox="0.00 0.00 1520.92 1319.69" xmlns="http://www.w3.org/2000/svg" xmlns:xlink="http://www.w3.org/1999/xlink">
<g id="graph0" class="graph" transform="scale(1 1) rotate(0) translate(4 1315.69)">
<title>%3</title>
<polygon fill="white" stroke="transparent" points="-4,4 -4,-1315.69 1516.92,-1315.69 1516.92,4 -4,4"/>
<!-- &#45;1,8 (Fibre via. moss) -->
<g id="node1" class="node">
<title>&#45;1,8 (Fibre via. moss)</title>
<ellipse fill="none" stroke="black" cx="109.19" cy="-655.84" rx="109.38" ry="18"/>
<text text-anchor="middle" x="109.19" y="-652.14" font-family="Times,serif" font-size="14.00">&#45;1,8 (Fibre via. moss)</text>
</g>
<!-- 2,4 (Formica and Phenolic boards) -->
<g id="node2" class="node">
<title>2,4 (Formica and Phenolic boards)</title>
<ellipse fill="none" stroke="black" cx="296.01" cy="-204.82" rx="169.77" ry="18"/>
<text text-anchor="middle" x="296.01" y="-201.12" font-family="Times,serif" font-size="14.00">2,4 (Formica and Phenolic boards)</text>
</g>
<!-- &#45;1,8 (Fibre via. moss)&#45;&gt;2,4 (Formica and Phenolic boards) -->
<g id="edge1" class="edge">
<title>&#45;1,8 (Fibre via. moss)&#45;&gt;2,4 (Formica and Phenolic boards)</title>
<path fill="none" stroke="black" stroke-width="2.09" d="M116.63,-637.89C145.45,-568.3 249.9,-316.14 284.67,-232.21"/>
<polygon fill="black" stroke="black" stroke-width="2.09" points="287.96,-233.41 288.55,-222.83 281.49,-230.73 287.96,-233.41"/>
<text text-anchor="middle" x="141.65" y="-438.85" font-family="Times,serif" font-size="14.00">raw&#45;fiber*38560</text>
</g>
<!-- 4,2 (More fiberboard) -->
<g id="node4" class="node">
<title>4,2 (More fiberboard)</title>
<ellipse fill="none" stroke="black" cx="296.01" cy="-1106.87" rx="111.28" ry="18"/>
<text text-anchor="middle" x="296.01" y="-1103.17" font-family="Times,serif" font-size="14.00">4,2 (More fiberboard)</text>
</g>
<!-- &#45;1,8 (Fibre via. moss)&#45;&gt;4,2 (More fiberboard) -->
<g id="edge9" class="edge">
<title>&#45;1,8 (Fibre via. moss)&#45;&gt;4,2 (More fiberboard)</title>
<path fill="none" stroke="black" stroke-width="1.27" d="M116.63,-673.8C145.45,-743.39 249.9,-995.55 284.67,-1079.48"/>
<polygon fill="black" stroke="black" stroke-width="1.27" points="281.49,-1080.96 288.55,-1088.86 287.96,-1078.28 281.49,-1080.96"/>
<text text-anchor="middle" x="141.65" y="-880.44" font-family="Times,serif" font-size="14.00">raw&#45;fiber*23536</text>
</g>
<!-- 4,1 (item=filtration&#45;media Filtration Media) -->
<g id="node6" class="node">
<title>4,1 (item=filtration&#45;media Filtration Media)</title>
<ellipse fill="none" stroke="black" cx="1198.06" cy="-204.82" rx="214.46" ry="18"/>
<text text-anchor="middle" x="1198.06" y="-201.12" font-family="Times,serif" font-size="14.00">4,1 (item=filtration&#45;media Filtration Media)</text>
</g>
<!-- &#45;1,8 (Fibre via. moss)&#45;&gt;4,1 (item=filtration&#45;media Filtration Media) -->
<g id="edge5" class="edge">
<title>&#45;1,8 (Fibre via. moss)&#45;&gt;4,1 (item=filtration&#45;media Filtration Media)</title>
<path fill="none" stroke="black" stroke-width="2.71" d="M149.89,-638.99C318,-569.35 958.27,-304.14 1146.02,-226.38"/>
<polygon fill="black" stroke="black" stroke-width="2.71" points="1147.5,-229.55 1155.4,-222.49 1144.82,-223.08 1147.5,-229.55"/>
<text text-anchor="middle" x="588.95" y="-436.48" font-family="Times,serif" font-size="14.00">raw&#45;fiber*50144</text>
</g>
<!-- &#45;1,7 (Rayon) -->
<g id="node7" class="node">
<title>&#45;1,7 (Rayon)</title>
<ellipse fill="none" stroke="black" cx="747.03" cy="-1293.69" rx="66.89" ry="18"/>
<text text-anchor="middle" x="747.03" y="-1289.99" font-family="Times,serif" font-size="14.00">&#45;1,7 (Rayon)</text>
</g>
<!-- &#45;1,8 (Fibre via. moss)&#45;&gt;&#45;1,7 (Rayon) -->
<g id="edge6" class="edge">
<title>&#45;1,8 (Fibre via. moss)&#45;&gt;&#45;1,7 (Rayon)</title>
<path fill="none" stroke="black" stroke-width="0.81" d="M127.25,-673.91C217.34,-764 617.93,-1164.59 722.17,-1268.83"/>
<polygon fill="black" stroke="black" stroke-width="0.81" points="719.89,-1271.49 729.43,-1276.09 724.84,-1266.54 719.89,-1271.49"/>
<text text-anchor="middle" x="365.71" y="-975.17" font-family="Times,serif" font-size="14.00">raw&#45;fiber*15024</text>
</g>
<!-- 0,0 (LE BUS) -->
<g id="node8" class="node">
<title>0,0 (LE BUS)</title>
<ellipse fill="none" stroke="black" cx="1198.06" cy="-1106.87" rx="71.49" ry="18"/>
<text text-anchor="middle" x="1198.06" y="-1103.17" font-family="Times,serif" font-size="14.00">0,0 (LE BUS)</text>
</g>
<!-- &#45;1,8 (Fibre via. moss)&#45;&gt;0,0 (LE BUS) -->
<g id="edge11" class="edge">
<title>&#45;1,8 (Fibre via. moss)&#45;&gt;0,0 (LE BUS)</title>
<path fill="none" stroke="black" stroke-width="0.23" d="M149.89,-672.7C319.63,-743.01 970.76,-1012.72 1151.37,-1087.53"/>
<polygon fill="black" stroke="black" stroke-width="0.23" points="1150.27,-1090.86 1160.85,-1091.46 1152.95,-1084.4 1150.27,-1090.86"/>
<text text-anchor="middle" x="596.13" y="-883.91" font-family="Times,serif" font-size="14.00">raw&#45;fiber*4208</text>
</g>
<!-- 6,2 (Raw Fiber&#39;s cojoined twin) -->
<g id="node3" class="node">
<title>6,2 (Raw Fiber&#39;s cojoined twin)</title>
<ellipse fill="none" stroke="black" cx="747.03" cy="-18" rx="155.17" ry="18"/>
<text text-anchor="middle" x="747.03" y="-14.3" font-family="Times,serif" font-size="14.00">6,2 (Raw Fiber&#39;s cojoined twin)</text>
</g>
<!-- 6,2 (Raw Fiber&#39;s cojoined twin)&#45;&gt;2,4 (Formica and Phenolic boards) -->
<g id="edge3" class="edge">
<title>6,2 (Raw Fiber&#39;s cojoined twin)&#45;&gt;2,4 (Formica and Phenolic boards)</title>
<path fill="none" stroke="black" stroke-width="1.18" d="M705.01,-35.41C622.19,-69.71 438.13,-145.95 347.9,-183.33"/>
<polygon fill="black" stroke="black" stroke-width="1.18" points="346.32,-180.19 338.42,-187.25 349,-186.66 346.32,-180.19"/>
<text text-anchor="middle" x="467.46" y="-113.17" font-family="Times,serif" font-size="14.00">raw&#45;fiber*21888</text>
</g>
<!-- 6,2 (Raw Fiber&#39;s cojoined twin)&#45;&gt;4,2 (More fiberboard) -->
<g id="edge2" class="edge">
<title>6,2 (Raw Fiber&#39;s cojoined twin)&#45;&gt;4,2 (More fiberboard)</title>
<path fill="none" stroke="black" stroke-width="0.59" d="M739.58,-35.99C686.96,-163.02 371.64,-924.28 307.42,-1079.32"/>
<polygon fill="black" stroke="black" stroke-width="0.59" points="304.15,-1078.06 303.56,-1088.64 310.62,-1080.74 304.15,-1078.06"/>
<text text-anchor="middle" x="464.5" y="-561.46" font-family="Times,serif" font-size="14.00">raw&#45;fiber*10864</text>
</g>
<!-- 6,2 (Raw Fiber&#39;s cojoined twin)&#45;&gt;4,1 (item=filtration&#45;media Filtration Media) -->
<g id="edge8" class="edge">
<title>6,2 (Raw Fiber&#39;s cojoined twin)&#45;&gt;4,1 (item=filtration&#45;media Filtration Media)</title>
<path fill="none" stroke="black" stroke-width="0.81" d="M789.06,-35.41C871.77,-69.67 1055.47,-145.76 1145.82,-183.18"/>
<polygon fill="black" stroke="black" stroke-width="0.81" points="1144.74,-186.52 1155.32,-187.12 1147.42,-180.06 1144.74,-186.52"/>
<text text-anchor="middle" x="908.44" y="-113.1" font-family="Times,serif" font-size="14.00">raw&#45;fiber*14912</text>
</g>
<!-- 4,5 (Yet More Raw Fiber) -->
<g id="node5" class="node">
<title>4,5 (Yet More Raw Fiber)</title>
<ellipse fill="none" stroke="black" cx="1384.88" cy="-655.84" rx="128.08" ry="18"/>
<text text-anchor="middle" x="1384.88" y="-652.14" font-family="Times,serif" font-size="14.00">4,5 (Yet More Raw Fiber)</text>
</g>
<!-- 4,5 (Yet More Raw Fiber)&#45;&gt;2,4 (Formica and Phenolic boards) -->
<g id="edge13" class="edge">
<title>4,5 (Yet More Raw Fiber)&#45;&gt;2,4 (Formica and Phenolic boards)</title>
<path fill="none" stroke="black" stroke-width="1.02" d="M1343.52,-638.71C1174.28,-568.61 534.58,-303.64 347.62,-226.2"/>
<polygon fill="black" stroke="black" stroke-width="1.02" points="348.86,-222.92 338.29,-222.33 346.19,-229.39 348.86,-222.92"/>
<text text-anchor="middle" x="786.57" y="-436.26" font-family="Times,serif" font-size="14.00">raw&#45;fiber*18784</text>
</g>
<!-- 4,5 (Yet More Raw Fiber)&#45;&gt;4,2 (More fiberboard) -->
<g id="edge12" class="edge">
<title>4,5 (Yet More Raw Fiber)&#45;&gt;4,2 (More fiberboard)</title>
<path fill="none" stroke="black" stroke-width="0.44" d="M1343.52,-672.97C1173.79,-743.28 530.89,-1009.58 346.02,-1086.16"/>
<polygon fill="black" stroke="black" stroke-width="0.44" points="344.44,-1083.02 336.54,-1090.08 347.12,-1089.49 344.44,-1083.02"/>
<text text-anchor="middle" x="790.27" y="-883.37" font-family="Times,serif" font-size="14.00">raw&#45;fiber*8208</text>
</g>
<!-- 4,5 (Yet More Raw Fiber)&#45;&gt;4,1 (item=filtration&#45;media Filtration Media) -->
<g id="edge4" class="edge">
<title>4,5 (Yet More Raw Fiber)&#45;&gt;4,1 (item=filtration&#45;media Filtration Media)</title>
<path fill="none" stroke="black" stroke-width="0.91" d="M1377.32,-637.61C1348.4,-567.77 1244.55,-317.05 1209.62,-232.72"/>
<polygon fill="black" stroke="black" stroke-width="0.91" points="1212.77,-231.19 1205.71,-223.29 1206.3,-233.86 1212.77,-231.19"/>
<text text-anchor="middle" x="1234.47" y="-438.96" font-family="Times,serif" font-size="14.00">raw&#45;fiber*16880</text>
</g>
<!-- 4,5 (Yet More Raw Fiber)&#45;&gt;&#45;1,7 (Rayon) -->
<g id="edge7" class="edge">
<title>4,5 (Yet More Raw Fiber)&#45;&gt;&#45;1,7 (Rayon)</title>
<path fill="none" stroke="black" stroke-width="0.81" d="M1366.82,-673.91C1276.73,-764 876.14,-1164.59 771.9,-1268.83"/>
<polygon fill="black" stroke="black" stroke-width="0.81" points="769.23,-1266.54 764.64,-1276.09 774.18,-1271.49 769.23,-1266.54"/>
<text text-anchor="middle" x="1010.36" y="-975.17" font-family="Times,serif" font-size="14.00">raw&#45;fiber*15024</text>
</g>
<!-- 4,5 (Yet More Raw Fiber)&#45;&gt;0,0 (LE BUS) -->
<g id="edge10" class="edge">
<title>4,5 (Yet More Raw Fiber)&#45;&gt;0,0 (LE BUS)</title>
<path fill="none" stroke="black" stroke-width="0.12" d="M1377.32,-674.08C1348.33,-744.08 1244.08,-995.77 1209.38,-1079.54"/>
<polygon fill="black" stroke="black" stroke-width="0.12" points="1206.1,-1078.32 1205.5,-1088.9 1212.56,-1081 1206.1,-1078.32"/>
<text text-anchor="middle" x="1238.85" y="-880.61" font-family="Times,serif" font-size="14.00">raw&#45;fiber*2144</text>
</g>
</g>
</svg>
