<?xml version="1.0" encoding="UTF-8" standalone="no"?>
<!DOCTYPE svg PUBLIC "-//W3C//DTD SVG 1.1//EN"
 "http://www.w3.org/Graphics/SVG/1.1/DTD/svg11.dtd">
<!-- Generated by graphviz version 2.43.0 (0)
 -->
<!-- Title: %3 Pages: 1 -->
<svg width="3577pt" height="2935pt"
 viewBox="0.00 0.00 3577.29 2935.13" xmlns="http://www.w3.org/2000/svg" xmlns:xlink="http://www.w3.org/1999/xlink">
<g id="graph0" class="graph" transform="scale(1 1) rotate(0) translate(4 2931.13)">
<title>%3</title>
<polygon fill="white" stroke="transparent" points="-4,4 -4,-2931.13 3573.29,-2931.13 3573.29,4 -4,4"/>
<!-- 8,&#45;10 (Copper plate duplicater) -->
<g id="node1" class="node">
<title>8,&#45;10 (Copper plate duplicater)</title>
<ellipse fill="none" stroke="black" cx="399.87" cy="-2317.93" rx="154.07" ry="18"/>
<text text-anchor="middle" x="399.87" y="-2314.23" font-family="Times,serif" font-size="14.00">8,&#45;10 (Copper plate duplicater)</text>
</g>
<!-- 4,3 (item=nexelit&#45;plate Nexelit platery) -->
<g id="node2" class="node">
<title>4,3 (item=nexelit&#45;plate Nexelit platery)</title>
<ellipse fill="none" stroke="black" cx="2548.4" cy="-2543.75" rx="194.17" ry="18"/>
<text text-anchor="middle" x="2548.4" y="-2540.05" font-family="Times,serif" font-size="14.00">4,3 (item=nexelit&#45;plate Nexelit platery)</text>
</g>
<!-- 8,&#45;10 (Copper plate duplicater)&#45;&gt;4,3 (item=nexelit&#45;plate Nexelit platery) -->
<g id="edge1" class="edge">
<title>8,&#45;10 (Copper plate duplicater)&#45;&gt;4,3 (item=nexelit&#45;plate Nexelit platery)</title>
<path fill="none" stroke="black" stroke-width="1.13" d="M514.63,-2329.99C879.64,-2368.35 2013.12,-2487.49 2409.69,-2529.17"/>
<polygon fill="black" stroke="black" stroke-width="1.13" points="2409.47,-2532.66 2419.78,-2530.23 2410.2,-2525.7 2409.47,-2532.66"/>
<text text-anchor="middle" x="1371.66" y="-2433.38" font-family="Times,serif" font-size="14.00">dirty&#45;water&#45;barrel*14960</text>
</g>
<!-- 7,&#45;1 (Aromatics, Need more Benzene? Look no further!) -->
<g id="node7" class="node">
<title>7,&#45;1 (Aromatics, Need more Benzene? Look no further!)</title>
<ellipse fill="none" stroke="black" cx="399.87" cy="-609.2" rx="268.35" ry="18"/>
<text text-anchor="middle" x="399.87" y="-605.5" font-family="Times,serif" font-size="14.00">7,&#45;1 (Aromatics, Need more Benzene? Look no further!)</text>
</g>
<!-- 8,&#45;10 (Copper plate duplicater)&#45;&gt;7,&#45;1 (Aromatics, Need more Benzene? Look no further!) -->
<g id="edge36" class="edge">
<title>8,&#45;10 (Copper plate duplicater)&#45;&gt;7,&#45;1 (Aromatics, Need more Benzene? Look no further!)</title>
<path fill="none" stroke="black" stroke-width="0.37" d="M399.87,-2299.89C399.87,-2132.05 399.87,-844.53 399.87,-637.31"/>
<polygon fill="black" stroke="black" stroke-width="0.37" points="403.37,-637.24 399.87,-627.24 396.37,-637.24 403.37,-637.24"/>
<text text-anchor="middle" x="313.87" y="-1472.4" font-family="Times,serif" font-size="14.00">dirty&#45;water&#45;barrel*4880</text>
</g>
<!-- 5,2 (Raw Fiber) -->
<g id="node11" class="node">
<title>5,2 (Raw Fiber)</title>
<ellipse fill="none" stroke="black" cx="849.04" cy="-2722.36" rx="83.39" ry="18"/>
<text text-anchor="middle" x="849.04" y="-2718.66" font-family="Times,serif" font-size="14.00">5,2 (Raw Fiber)</text>
</g>
<!-- 8,&#45;10 (Copper plate duplicater)&#45;&gt;5,2 (Raw Fiber) -->
<g id="edge41" class="edge">
<title>8,&#45;10 (Copper plate duplicater)&#45;&gt;5,2 (Raw Fiber)</title>
<path fill="none" stroke="black" stroke-width="0.21" d="M419.75,-2335.83C491.79,-2400.69 739.26,-2623.52 821.91,-2697.94"/>
<polygon fill="black" stroke="black" stroke-width="0.21" points="819.61,-2700.57 829.39,-2704.66 824.3,-2695.37 819.61,-2700.57"/>
<text text-anchor="middle" x="534.83" y="-2520.68" font-family="Times,serif" font-size="14.00">dirty&#45;water&#45;barrel*2768</text>
</g>
<!-- 4,10 (Fluid Recycling) -->
<g id="node13" class="node">
<title>4,10 (Fluid Recycling)</title>
<ellipse fill="none" stroke="black" cx="1423.87" cy="-18" rx="112.38" ry="18"/>
<text text-anchor="middle" x="1423.87" y="-14.3" font-family="Times,serif" font-size="14.00">4,10 (Fluid Recycling)</text>
</g>
<!-- 8,&#45;10 (Copper plate duplicater)&#45;&gt;4,10 (Fluid Recycling) -->
<g id="edge40" class="edge">
<title>8,&#45;10 (Copper plate duplicater)&#45;&gt;4,10 (Fluid Recycling)</title>
<path fill="none" stroke="black" stroke-width="0.35" d="M407.97,-2299.75C497.53,-2098.58 1302.42,-290.77 1411.62,-45.5"/>
<polygon fill="black" stroke="black" stroke-width="0.35" points="1414.89,-46.77 1415.76,-36.21 1408.49,-43.92 1414.89,-46.77"/>
<text text-anchor="middle" x="823.79" y="-1176.42" font-family="Times,serif" font-size="14.00">dirty&#45;water&#45;barrel*4592</text>
</g>
<!-- 1,12 (Molten Iron) -->
<g id="node3" class="node">
<title>1,12 (Molten Iron)</title>
<ellipse fill="none" stroke="black" cx="2024.97" cy="-2845.95" rx="95.58" ry="18"/>
<text text-anchor="middle" x="2024.97" y="-2842.25" font-family="Times,serif" font-size="14.00">1,12 (Molten Iron)</text>
</g>
<!-- 1,12 (Molten Iron)&#45;&gt;4,3 (item=nexelit&#45;plate Nexelit platery) -->
<g id="edge2" class="edge">
<title>1,12 (Molten Iron)&#45;&gt;4,3 (item=nexelit&#45;plate Nexelit platery)</title>
<path fill="none" stroke="black" stroke-width="2.35" d="M2054.61,-2828.84C2143.51,-2777.51 2407.99,-2624.82 2508.78,-2566.62"/>
<polygon fill="black" stroke="black" stroke-width="2.35" points="2510.54,-2569.65 2517.45,-2561.62 2507.04,-2563.59 2510.54,-2569.65"/>
<text text-anchor="middle" x="2191.19" y="-2701.53" font-family="Times,serif" font-size="14.00">dirty&#45;water&#45;barrel*31240</text>
</g>
<!-- &#45;3,7 (Sea sprouts) -->
<g id="node5" class="node">
<title>&#45;3,7 (Sea sprouts)</title>
<ellipse fill="none" stroke="black" cx="2548.4" cy="-383.38" rx="92.88" ry="18"/>
<text text-anchor="middle" x="2548.4" y="-379.68" font-family="Times,serif" font-size="14.00">&#45;3,7 (Sea sprouts)</text>
</g>
<!-- 1,12 (Molten Iron)&#45;&gt;&#45;3,7 (Sea sprouts) -->
<g id="edge10" class="edge">
<title>1,12 (Molten Iron)&#45;&gt;&#45;3,7 (Sea sprouts)</title>
<path fill="none" stroke="black" stroke-width="0.53" d="M2028.8,-2827.89C2073.13,-2619.37 2487.37,-670.49 2542.38,-411.72"/>
<polygon fill="black" stroke="black" stroke-width="0.53" points="2545.87,-412.13 2544.52,-401.62 2539.02,-410.68 2545.87,-412.13"/>
<text text-anchor="middle" x="2199.59" y="-1623.6" font-family="Times,serif" font-size="14.00">dirty&#45;water&#45;barrel*7000</text>
</g>
<!-- 1,12 (Molten Iron)&#45;&gt;7,&#45;1 (Aromatics, Need more Benzene? Look no further!) -->
<g id="edge34" class="edge">
<title>1,12 (Molten Iron)&#45;&gt;7,&#45;1 (Aromatics, Need more Benzene? Look no further!)</title>
<path fill="none" stroke="black" stroke-width="0.79" d="M2011.88,-2827.95C1868.49,-2630.59 591.21,-872.55 419.04,-635.58"/>
<polygon fill="black" stroke="black" stroke-width="0.79" points="421.66,-633.24 412.95,-627.2 416,-637.35 421.66,-633.24"/>
<text text-anchor="middle" x="1124.96" y="-1735.57" font-family="Times,serif" font-size="14.00">dirty&#45;water&#45;barrel*10520</text>
</g>
<!-- 1,12 (Molten Iron)&#45;&gt;5,2 (Raw Fiber) -->
<g id="edge18" class="edge">
<title>1,12 (Molten Iron)&#45;&gt;5,2 (Raw Fiber)</title>
<path fill="none" stroke="black" stroke-width="1.22" d="M1941.34,-2837.16C1725.57,-2814.48 1151.77,-2754.18 934.25,-2731.31"/>
<polygon fill="black" stroke="black" stroke-width="1.22" points="934.48,-2727.82 924.17,-2730.25 933.75,-2734.78 934.48,-2727.82"/>
<text text-anchor="middle" x="1347.3" y="-2788.04" font-family="Times,serif" font-size="14.00">dirty&#45;water&#45;barrel*16256</text>
</g>
<!-- 1,12 (Molten Iron)&#45;&gt;4,10 (Fluid Recycling) -->
<g id="edge44" class="edge">
<title>1,12 (Molten Iron)&#45;&gt;4,10 (Fluid Recycling)</title>
<path fill="none" stroke="black" stroke-width="0.66" d="M2021.13,-2827.89C1973.1,-2601.94 1489.52,-326.88 1429.89,-46.32"/>
<polygon fill="black" stroke="black" stroke-width="0.66" points="1433.23,-45.21 1427.73,-36.16 1426.38,-46.67 1433.23,-45.21"/>
<text text-anchor="middle" x="1639.51" y="-1440.91" font-family="Times,serif" font-size="14.00">dirty&#45;water&#45;barrel*8792</text>
</g>
<!-- &#45;5,8 (Moar Molten Iron) -->
<g id="node4" class="node">
<title>&#45;5,8 (Moar Molten Iron)</title>
<ellipse fill="none" stroke="black" cx="2903.67" cy="-2054.77" rx="120.48" ry="18"/>
<text text-anchor="middle" x="2903.67" y="-2051.07" font-family="Times,serif" font-size="14.00">&#45;5,8 (Moar Molten Iron)</text>
</g>
<!-- &#45;5,8 (Moar Molten Iron)&#45;&gt;4,3 (item=nexelit&#45;plate Nexelit platery) -->
<g id="edge6" class="edge">
<title>&#45;5,8 (Moar Molten Iron)&#45;&gt;4,3 (item=nexelit&#45;plate Nexelit platery)</title>
<path fill="none" stroke="black" stroke-width="3.12" d="M2890.6,-2072.75C2836.69,-2146.95 2631.36,-2429.56 2567.49,-2517.48"/>
<polygon fill="black" stroke="black" stroke-width="3.12" points="2564.63,-2515.45 2561.59,-2525.6 2570.29,-2519.57 2564.63,-2515.45"/>
<text text-anchor="middle" x="2638.54" y="-2298.92" font-family="Times,serif" font-size="14.00">dirty&#45;water&#45;barrel*41472</text>
</g>
<!-- &#45;5,8 (Moar Molten Iron)&#45;&gt;&#45;3,7 (Sea sprouts) -->
<g id="edge3" class="edge">
<title>&#45;5,8 (Moar Molten Iron)&#45;&gt;&#45;3,7 (Sea sprouts)</title>
<path fill="none" stroke="black" stroke-width="0.6" d="M2899.8,-2036.57C2864.45,-1870.26 2597.79,-615.73 2554.37,-411.46"/>
<polygon fill="black" stroke="black" stroke-width="0.6" points="2557.76,-410.57 2552.26,-401.52 2550.91,-412.02 2557.76,-410.57"/>
<text text-anchor="middle" x="2641.08" y="-1227.81" font-family="Times,serif" font-size="14.00">dirty&#45;water&#45;barrel*8000</text>
</g>
<!-- &#45;5,8 (Moar Molten Iron)&#45;&gt;7,&#45;1 (Aromatics, Need more Benzene? Look no further!) -->
<g id="edge11" class="edge">
<title>&#45;5,8 (Moar Molten Iron)&#45;&gt;7,&#45;1 (Aromatics, Need more Benzene? Look no further!)</title>
<path fill="none" stroke="black" stroke-width="1" d="M2873.36,-2037.27C2611.73,-1886.22 737.32,-804.03 439.66,-632.17"/>
<polygon fill="black" stroke="black" stroke-width="1" points="441.33,-629.1 430.92,-627.13 437.83,-635.16 441.33,-629.1"/>
<text text-anchor="middle" x="1566.01" y="-1338.52" font-family="Times,serif" font-size="14.00">dirty&#45;water&#45;barrel*13232</text>
</g>
<!-- &#45;5,8 (Moar Molten Iron)&#45;&gt;5,2 (Raw Fiber) -->
<g id="edge15" class="edge">
<title>&#45;5,8 (Moar Molten Iron)&#45;&gt;5,2 (Raw Fiber)</title>
<path fill="none" stroke="black" stroke-width="0.8" d="M2853.13,-2071.19C2571.73,-2162.62 1200.04,-2608.31 905.01,-2704.17"/>
<polygon fill="black" stroke="black" stroke-width="0.8" points="903.8,-2700.88 895.38,-2707.3 905.97,-2707.54 903.8,-2700.88"/>
<text text-anchor="middle" x="1788.57" y="-2391.48" font-family="Times,serif" font-size="14.00">dirty&#45;water&#45;barrel*10664</text>
</g>
<!-- &#45;5,8 (Moar Molten Iron)&#45;&gt;4,10 (Fluid Recycling) -->
<g id="edge19" class="edge">
<title>&#45;5,8 (Moar Molten Iron)&#45;&gt;4,10 (Fluid Recycling)</title>
<path fill="none" stroke="black" stroke-width="0.85" d="M2890.65,-2036.85C2755.22,-1850.46 1605.54,-268.05 1442.95,-44.27"/>
<polygon fill="black" stroke="black" stroke-width="0.85" points="1445.68,-42.07 1436.97,-36.04 1440.02,-46.18 1445.68,-42.07"/>
<text text-anchor="middle" x="2076.3" y="-1044.36" font-family="Times,serif" font-size="14.00">dirty&#45;water&#45;barrel*11296</text>
</g>
<!-- &#45;4,&#45;11 (Molten ironer) -->
<g id="node6" class="node">
<title>&#45;4,&#45;11 (Molten ironer)</title>
<ellipse fill="none" stroke="black" cx="3029.33" cy="-1463.57" rx="110.48" ry="18"/>
<text text-anchor="middle" x="3029.33" y="-1459.87" font-family="Times,serif" font-size="14.00">&#45;4,&#45;11 (Molten ironer)</text>
</g>
<!-- &#45;4,&#45;11 (Molten ironer)&#45;&gt;4,3 (item=nexelit&#45;plate Nexelit platery) -->
<g id="edge16" class="edge">
<title>&#45;4,&#45;11 (Molten ironer)&#45;&gt;4,3 (item=nexelit&#45;plate Nexelit platery)</title>
<path fill="none" stroke="black" stroke-width="6.6" d="M3021.18,-1481.86C2964.48,-1609.23 2628.88,-2362.98 2560.54,-2516.47"/>
<polygon fill="black" stroke="black" stroke-width="6.6" points="2555.22,-2514.22 2556.44,-2525.7 2565.78,-2518.92 2555.22,-2514.22"/>
<text text-anchor="middle" x="2700.36" y="-2002.97" font-family="Times,serif" font-size="14.00">dirty&#45;water&#45;barrel*87640</text>
</g>
<!-- &#45;4,&#45;11 (Molten ironer)&#45;&gt;&#45;3,7 (Sea sprouts) -->
<g id="edge33" class="edge">
<title>&#45;4,&#45;11 (Molten ironer)&#45;&gt;&#45;3,7 (Sea sprouts)</title>
<path fill="none" stroke="black" stroke-width="0.23" d="M3021.18,-1445.27C2964.48,-1317.9 2628.88,-564.15 2560.54,-410.66"/>
<polygon fill="black" stroke="black" stroke-width="0.23" points="2563.7,-409.14 2556.44,-401.43 2557.31,-411.99 2563.7,-409.14"/>
<text text-anchor="middle" x="2704.86" y="-931.76" font-family="Times,serif" font-size="14.00">dirty&#45;water&#45;barrel*3000</text>
</g>
<!-- &#45;4,&#45;11 (Molten ironer)&#45;&gt;7,&#45;1 (Aromatics, Need more Benzene? Look no further!) -->
<g id="edge4" class="edge">
<title>&#45;4,&#45;11 (Molten ironer)&#45;&gt;7,&#45;1 (Aromatics, Need more Benzene? Look no further!)</title>
<path fill="none" stroke="black" stroke-width="2.3" d="M2979.73,-1447.45C2654.6,-1341.81 829.85,-748.91 463.81,-629.98"/>
<polygon fill="black" stroke="black" stroke-width="2.3" points="464.76,-626.61 454.17,-626.84 462.6,-633.26 464.76,-626.61"/>
<text text-anchor="middle" x="1631.27" y="-1042.51" font-family="Times,serif" font-size="14.00">dirty&#45;water&#45;barrel*30512</text>
</g>
<!-- &#45;4,&#45;11 (Molten ironer)&#45;&gt;5,2 (Raw Fiber) -->
<g id="edge9" class="edge">
<title>&#45;4,&#45;11 (Molten ironer)&#45;&gt;5,2 (Raw Fiber)</title>
<path fill="none" stroke="black" stroke-width="1.49" d="M2998.92,-1481.12C2757.77,-1620.35 1156.56,-2544.81 887.4,-2700.21"/>
<polygon fill="black" stroke="black" stroke-width="1.49" points="885.31,-2697.38 878.4,-2705.41 888.81,-2703.44 885.31,-2697.38"/>
<text text-anchor="middle" x="1852.66" y="-2094.46" font-family="Times,serif" font-size="14.00">dirty&#45;water&#45;barrel*19840</text>
</g>
<!-- &#45;4,&#45;11 (Molten ironer)&#45;&gt;4,10 (Fluid Recycling) -->
<g id="edge26" class="edge">
<title>&#45;4,&#45;11 (Molten ironer)&#45;&gt;4,10 (Fluid Recycling)</title>
<path fill="none" stroke="black" stroke-width="0.9" d="M3009.61,-1445.81C2841.35,-1294.31 1648.3,-220.08 1451.36,-42.76"/>
<polygon fill="black" stroke="black" stroke-width="0.9" points="1453.53,-40 1443.75,-35.91 1448.84,-45.2 1453.53,-40"/>
<text text-anchor="middle" x="2139.99" y="-748.08" font-family="Times,serif" font-size="14.00">dirty&#45;water&#45;barrel*11960</text>
</g>
<!-- &#45;3,1 (Logistic science pack, Automation Science) -->
<g id="node16" class="node">
<title>&#45;3,1 (Logistic science pack, Automation Science)</title>
<ellipse fill="none" stroke="black" cx="3335.31" cy="-1463.57" rx="233.96" ry="18"/>
<text text-anchor="middle" x="3335.31" y="-1459.87" font-family="Times,serif" font-size="14.00">&#45;3,1 (Logistic science pack, Automation Science)</text>
</g>
<!-- &#45;4,&#45;11 (Molten ironer)&#45;&gt;&#45;3,1 (Logistic science pack, Automation Science) -->
<g id="edge24" class="edge">
<title>&#45;4,&#45;11 (Molten ironer)&#45;&gt;&#45;3,1 (Logistic science pack, Automation Science)</title>
<path fill="none" stroke="black" stroke-width="0.04" d="M3140.23,-1463.57C3140.27,-1463.57 3140.31,-1463.57 3140.36,-1463.57"/>
<polygon fill="black" stroke="black" stroke-width="0.04" points="3130.49,-1467.07 3140.48,-1463.57 3130.48,-1460.07 3130.49,-1467.07"/>
<text text-anchor="middle" x="3221.79" y="-1467.37" font-family="Times,serif" font-size="14.00">dirty&#45;water&#45;barrel*512</text>
</g>
<!-- 3,9 (Copper, molten &amp; plate) -->
<g id="node8" class="node">
<title>3,9 (Copper, molten &amp; plate)</title>
<ellipse fill="none" stroke="black" cx="849.04" cy="-204.77" rx="143.77" ry="18"/>
<text text-anchor="middle" x="849.04" y="-201.07" font-family="Times,serif" font-size="14.00">3,9 (Copper, molten &amp; plate)</text>
</g>
<!-- 3,9 (Copper, molten &amp; plate)&#45;&gt;4,3 (item=nexelit&#45;plate Nexelit platery) -->
<g id="edge14" class="edge">
<title>3,9 (Copper, molten &amp; plate)&#45;&gt;4,3 (item=nexelit&#45;plate Nexelit platery)</title>
<path fill="none" stroke="black" stroke-width="2.43" d="M862.22,-222.92C1009.92,-426.21 2352.02,-2273.45 2529.14,-2517.23"/>
<polygon fill="black" stroke="black" stroke-width="2.43" points="2526.46,-2519.5 2535.17,-2525.53 2532.12,-2515.38 2526.46,-2519.5"/>
<text text-anchor="middle" x="1605.18" y="-1373.88" font-family="Times,serif" font-size="14.00">dirty&#45;water&#45;barrel*32240</text>
</g>
<!-- 3,9 (Copper, molten &amp; plate)&#45;&gt;&#45;3,7 (Sea sprouts) -->
<g id="edge32" class="edge">
<title>3,9 (Copper, molten &amp; plate)&#45;&gt;&#45;3,7 (Sea sprouts)</title>
<path fill="none" stroke="black" stroke-width="0.23" d="M959.23,-216.35C1272.87,-249.32 2166.49,-343.24 2456.38,-373.71"/>
<polygon fill="black" stroke="black" stroke-width="0.23" points="2456.13,-377.2 2466.44,-374.77 2456.86,-370.24 2456.13,-377.2"/>
<text text-anchor="middle" x="1621.8" y="-298.83" font-family="Times,serif" font-size="14.00">dirty&#45;water&#45;barrel*3000</text>
</g>
<!-- 3,9 (Copper, molten &amp; plate)&#45;&gt;7,&#45;1 (Aromatics, Need more Benzene? Look no further!) -->
<g id="edge5" class="edge">
<title>3,9 (Copper, molten &amp; plate)&#45;&gt;7,&#45;1 (Aromatics, Need more Benzene? Look no further!)</title>
<path fill="none" stroke="black" stroke-width="1.07" d="M829.16,-222.67C757.28,-287.39 510.78,-509.34 427.56,-584.27"/>
<polygon fill="black" stroke="black" stroke-width="1.07" points="425.12,-581.76 420.03,-591.05 429.81,-586.96 425.12,-581.76"/>
<text text-anchor="middle" x="537.86" y="-407.27" font-family="Times,serif" font-size="14.00">dirty&#45;water&#45;barrel*14136</text>
</g>
<!-- 3,9 (Copper, molten &amp; plate)&#45;&gt;5,2 (Raw Fiber) -->
<g id="edge30" class="edge">
<title>3,9 (Copper, molten &amp; plate)&#45;&gt;5,2 (Raw Fiber)</title>
<path fill="none" stroke="black" stroke-width="0.68" d="M849.04,-222.89C849.04,-434.33 849.04,-2430.6 849.04,-2693.77"/>
<polygon fill="black" stroke="black" stroke-width="0.68" points="845.54,-2694.03 849.04,-2704.03 852.54,-2694.03 845.54,-2694.03"/>
<text text-anchor="middle" x="763.04" y="-1462.13" font-family="Times,serif" font-size="14.00">dirty&#45;water&#45;barrel*9016</text>
</g>
<!-- 3,9 (Copper, molten &amp; plate)&#45;&gt;4,10 (Fluid Recycling) -->
<g id="edge20" class="edge">
<title>3,9 (Copper, molten &amp; plate)&#45;&gt;4,10 (Fluid Recycling)</title>
<path fill="none" stroke="black" stroke-width="0.9" d="M900.81,-187.95C1007.53,-153.27 1251.45,-74.02 1364.42,-37.32"/>
<polygon fill="black" stroke="black" stroke-width="0.9" points="1365.53,-40.64 1373.96,-34.22 1363.36,-33.98 1365.53,-40.64"/>
<text text-anchor="middle" x="1042.11" y="-116.43" font-family="Times,serif" font-size="14.00">dirty&#45;water&#45;barrel*11880</text>
</g>
<!-- 3,5 (Molybdenum plate) -->
<g id="node9" class="node">
<title>3,5 (Molybdenum plate)</title>
<ellipse fill="none" stroke="black" cx="1423.87" cy="-2909.13" rx="122.38" ry="18"/>
<text text-anchor="middle" x="1423.87" y="-2905.43" font-family="Times,serif" font-size="14.00">3,5 (Molybdenum plate)</text>
</g>
<!-- 3,5 (Molybdenum plate)&#45;&gt;4,3 (item=nexelit&#45;plate Nexelit platery) -->
<g id="edge7" class="edge">
<title>3,5 (Molybdenum plate)&#45;&gt;4,3 (item=nexelit&#45;plate Nexelit platery)</title>
<path fill="none" stroke="black" stroke-width="0.43" d="M1474.37,-2892.72C1657.18,-2833.32 2284.16,-2629.6 2485.57,-2564.16"/>
<polygon fill="black" stroke="black" stroke-width="0.43" points="2486.69,-2567.48 2495.12,-2561.06 2484.53,-2560.82 2486.69,-2567.48"/>
<text text-anchor="middle" x="1893.97" y="-2732.24" font-family="Times,serif" font-size="14.00">dirty&#45;water&#45;barrel*5736</text>
</g>
<!-- 3,5 (Molybdenum plate)&#45;&gt;7,&#45;1 (Aromatics, Need more Benzene? Look no further!) -->
<g id="edge43" class="edge">
<title>3,5 (Molybdenum plate)&#45;&gt;7,&#45;1 (Aromatics, Need more Benzene? Look no further!)</title>
<path fill="none" stroke="black" stroke-width="0.28" d="M1415.77,-2890.95C1326.21,-2689.78 521.32,-881.97 412.12,-636.7"/>
<polygon fill="black" stroke="black" stroke-width="0.28" points="415.24,-635.13 407.98,-627.41 408.85,-637.97 415.24,-635.13"/>
<text text-anchor="middle" x="827.94" y="-1767.63" font-family="Times,serif" font-size="14.00">dirty&#45;water&#45;barrel*3664</text>
</g>
<!-- 3,5 (Molybdenum plate)&#45;&gt;5,2 (Raw Fiber) -->
<g id="edge38" class="edge">
<title>3,5 (Molybdenum plate)&#45;&gt;5,2 (Raw Fiber)</title>
<path fill="none" stroke="black" stroke-width="0.41" d="M1373.36,-2892.72C1266.19,-2857.9 1016.7,-2776.83 904.93,-2740.52"/>
<polygon fill="black" stroke="black" stroke-width="0.41" points="905.79,-2737.12 895.2,-2737.36 903.63,-2743.77 905.79,-2737.12"/>
<text text-anchor="middle" x="1053.15" y="-2820.42" font-family="Times,serif" font-size="14.00">dirty&#45;water&#45;barrel*5376</text>
</g>
<!-- 3,5 (Molybdenum plate)&#45;&gt;4,10 (Fluid Recycling) -->
<g id="edge13" class="edge">
<title>3,5 (Molybdenum plate)&#45;&gt;4,10 (Fluid Recycling)</title>
<path fill="none" stroke="black" stroke-width="3.84" d="M1423.87,-2891.05C1423.87,-2662.1 1423.87,-331.71 1423.87,-46.55"/>
<polygon fill="black" stroke="black" stroke-width="3.84" points="1427.37,-46.22 1423.87,-36.22 1420.37,-46.22 1427.37,-46.22"/>
<text text-anchor="middle" x="1333.37" y="-1472.6" font-family="Times,serif" font-size="14.00">dirty&#45;water&#45;barrel*50976</text>
</g>
<!-- 9,&#45;10 (Copper plate yet again) -->
<g id="node10" class="node">
<title>9,&#45;10 (Copper plate yet again)</title>
<ellipse fill="none" stroke="black" cx="2903.67" cy="-872.36" rx="149.47" ry="18"/>
<text text-anchor="middle" x="2903.67" y="-868.66" font-family="Times,serif" font-size="14.00">9,&#45;10 (Copper plate yet again)</text>
</g>
<!-- 9,&#45;10 (Copper plate yet again)&#45;&gt;4,3 (item=nexelit&#45;plate Nexelit platery) -->
<g id="edge22" class="edge">
<title>9,&#45;10 (Copper plate yet again)&#45;&gt;4,3 (item=nexelit&#45;plate Nexelit platery)</title>
<path fill="none" stroke="black" stroke-width="2.73" d="M2899.8,-890.56C2864.45,-1056.87 2597.79,-2311.4 2554.37,-2515.67"/>
<polygon fill="black" stroke="black" stroke-width="2.73" points="2550.91,-2515.11 2552.26,-2525.62 2557.76,-2516.56 2550.91,-2515.11"/>
<text text-anchor="middle" x="2636.58" y="-1706.92" font-family="Times,serif" font-size="14.00">dirty&#45;water&#45;barrel*36288</text>
</g>
<!-- 9,&#45;10 (Copper plate yet again)&#45;&gt;&#45;3,7 (Sea sprouts) -->
<g id="edge27" class="edge">
<title>9,&#45;10 (Copper plate yet again)&#45;&gt;&#45;3,7 (Sea sprouts)</title>
<path fill="none" stroke="black" stroke-width="0.08" d="M2890.6,-854.38C2836.68,-780.17 2631.32,-497.51 2567.46,-409.62"/>
<polygon fill="black" stroke="black" stroke-width="0.08" points="2570.11,-407.3 2561.4,-401.27 2564.44,-411.42 2570.11,-407.3"/>
<text text-anchor="middle" x="2643.03" y="-635.8" font-family="Times,serif" font-size="14.00">dirty&#45;water&#45;barrel*1000</text>
</g>
<!-- 9,&#45;10 (Copper plate yet again)&#45;&gt;7,&#45;1 (Aromatics, Need more Benzene? Look no further!) -->
<g id="edge8" class="edge">
<title>9,&#45;10 (Copper plate yet again)&#45;&gt;7,&#45;1 (Aromatics, Need more Benzene? Look no further!)</title>
<path fill="none" stroke="black" stroke-width="0.87" d="M2790.81,-860.5C2387.64,-818.13 1017.9,-674.16 554.53,-625.46"/>
<polygon fill="black" stroke="black" stroke-width="0.87" points="554.74,-621.96 544.43,-624.4 554.01,-628.92 554.74,-621.96"/>
<text text-anchor="middle" x="1582.17" y="-746.78" font-family="Times,serif" font-size="14.00">dirty&#45;water&#45;barrel*11608</text>
</g>
<!-- 9,&#45;10 (Copper plate yet again)&#45;&gt;5,2 (Raw Fiber) -->
<g id="edge29" class="edge">
<title>9,&#45;10 (Copper plate yet again)&#45;&gt;5,2 (Raw Fiber)</title>
<path fill="none" stroke="black" stroke-width="0.68" d="M2883.66,-890.37C2687.09,-1067.37 1103.3,-2493.42 876.13,-2697.96"/>
<polygon fill="black" stroke="black" stroke-width="0.68" points="873.72,-2695.43 868.63,-2704.72 878.4,-2700.63 873.72,-2695.43"/>
<text text-anchor="middle" x="1793.9" y="-1797.97" font-family="Times,serif" font-size="14.00">dirty&#45;water&#45;barrel*9000</text>
</g>
<!-- 9,&#45;10 (Copper plate yet again)&#45;&gt;4,10 (Fluid Recycling) -->
<g id="edge23" class="edge">
<title>9,&#45;10 (Copper plate yet again)&#45;&gt;4,10 (Fluid Recycling)</title>
<path fill="none" stroke="black" stroke-width="0.51" d="M2873.1,-854.71C2684.01,-745.54 1674.87,-162.92 1462.94,-40.56"/>
<polygon fill="black" stroke="black" stroke-width="0.51" points="1464.43,-37.38 1454.02,-35.41 1460.93,-43.44 1464.43,-37.38"/>
<text text-anchor="middle" x="2082.02" y="-451.44" font-family="Times,serif" font-size="14.00">dirty&#45;water&#45;barrel*6712</text>
</g>
<!-- &#45;1,10 (Iron Plates) -->
<g id="node12" class="node">
<title>&#45;1,10 (Iron Plates)</title>
<ellipse fill="none" stroke="black" cx="154.04" cy="-1765.77" rx="94.78" ry="18"/>
<text text-anchor="middle" x="154.04" y="-1762.07" font-family="Times,serif" font-size="14.00">&#45;1,10 (Iron Plates)</text>
</g>
<!-- &#45;1,10 (Iron Plates)&#45;&gt;4,3 (item=nexelit&#45;plate Nexelit platery) -->
<g id="edge12" class="edge">
<title>&#45;1,10 (Iron Plates)&#45;&gt;4,3 (item=nexelit&#45;plate Nexelit platery)</title>
<path fill="none" stroke="black" stroke-width="0.59" d="M202.13,-1781.4C504.62,-1879.68 2142.33,-2411.81 2485.37,-2523.27"/>
<polygon fill="black" stroke="black" stroke-width="0.59" points="2484.31,-2526.6 2494.9,-2526.36 2486.47,-2519.94 2484.31,-2526.6"/>
<text text-anchor="middle" x="1257.75" y="-2156.13" font-family="Times,serif" font-size="14.00">dirty&#45;water&#45;barrel*7792</text>
</g>
<!-- &#45;1,10 (Iron Plates)&#45;&gt;&#45;3,7 (Sea sprouts) -->
<g id="edge42" class="edge">
<title>&#45;1,10 (Iron Plates)&#45;&gt;&#45;3,7 (Sea sprouts)</title>
<path fill="none" stroke="black" stroke-width="0.23" d="M183.88,-1748.54C437.18,-1602.3 2224.59,-570.34 2510.01,-405.55"/>
<polygon fill="black" stroke="black" stroke-width="0.23" points="2511.86,-408.52 2518.77,-400.49 2508.36,-402.46 2511.86,-408.52"/>
<text text-anchor="middle" x="1260.94" y="-1080.85" font-family="Times,serif" font-size="14.00">dirty&#45;water&#45;barrel*3000</text>
</g>
<!-- &#45;1,10 (Iron Plates)&#45;&gt;7,&#45;1 (Aromatics, Need more Benzene? Look no further!) -->
<g id="edge46" class="edge">
<title>&#45;1,10 (Iron Plates)&#45;&gt;7,&#45;1 (Aromatics, Need more Benzene? Look no further!)</title>
<path fill="none" stroke="black" stroke-width="0.26" d="M157.9,-1747.6C186.02,-1615.29 359.24,-800.36 393.86,-637.51"/>
<polygon fill="black" stroke="black" stroke-width="0.26" points="397.36,-637.84 396.02,-627.33 390.52,-636.38 397.36,-637.84"/>
<text text-anchor="middle" x="189.88" y="-1196.36" font-family="Times,serif" font-size="14.00">dirty&#45;water&#45;barrel*3488</text>
</g>
<!-- &#45;1,10 (Iron Plates)&#45;&gt;5,2 (Raw Fiber) -->
<g id="edge37" class="edge">
<title>&#45;1,10 (Iron Plates)&#45;&gt;5,2 (Raw Fiber)</title>
<path fill="none" stroke="black" stroke-width="0.84" d="M166.99,-1783.61C251.82,-1900.36 727.53,-2555.12 829.71,-2695.75"/>
<polygon fill="black" stroke="black" stroke-width="0.84" points="827.18,-2698.23 835.89,-2704.26 832.84,-2694.11 827.18,-2698.23"/>
<text text-anchor="middle" x="407.85" y="-2243.48" font-family="Times,serif" font-size="14.00">dirty&#45;water&#45;barrel*11112</text>
</g>
<!-- 4,&#45;8 (REOOOOOOOOOOOOOO) -->
<g id="node14" class="node">
<title>4,&#45;8 (REOOOOOOOOOOOOOO)</title>
<ellipse fill="none" stroke="black" cx="154.04" cy="-1161.36" rx="154.07" ry="18"/>
<text text-anchor="middle" x="154.04" y="-1157.66" font-family="Times,serif" font-size="14.00">4,&#45;8 (REOOOOOOOOOOOOOO)</text>
</g>
<!-- 4,&#45;8 (REOOOOOOOOOOOOOO)&#45;&gt;4,3 (item=nexelit&#45;plate Nexelit platery) -->
<g id="edge17" class="edge">
<title>4,&#45;8 (REOOOOOOOOOOOOOO)&#45;&gt;4,3 (item=nexelit&#45;plate Nexelit platery)</title>
<path fill="none" stroke="black" stroke-width="0.49" d="M184.75,-1179.09C440.73,-1326.88 2217.75,-2352.85 2508.27,-2520.58"/>
<polygon fill="black" stroke="black" stroke-width="0.49" points="2506.8,-2523.77 2517.21,-2525.74 2510.3,-2517.71 2506.8,-2523.77"/>
<text text-anchor="middle" x="1260.51" y="-1853.63" font-family="Times,serif" font-size="14.00">dirty&#45;water&#45;barrel*6440</text>
</g>
<!-- 4,&#45;8 (REOOOOOOOOOOOOOO)&#45;&gt;7,&#45;1 (Aromatics, Need more Benzene? Look no further!) -->
<g id="edge45" class="edge">
<title>4,&#45;8 (REOOOOOOOOOOOOOO)&#45;&gt;7,&#45;1 (Aromatics, Need more Benzene? Look no further!)</title>
<path fill="none" stroke="black" stroke-width="0.08" d="M162.08,-1143.3C198.04,-1062.53 344.27,-734.09 387.67,-636.61"/>
<polygon fill="black" stroke="black" stroke-width="0.08" points="390.9,-637.96 391.77,-627.4 384.51,-635.11 390.9,-637.96"/>
<text text-anchor="middle" x="188.87" y="-893.76" font-family="Times,serif" font-size="14.00">dirty&#45;water&#45;barrel*1000</text>
</g>
<!-- 4,&#45;8 (REOOOOOOOOOOOOOO)&#45;&gt;5,2 (Raw Fiber) -->
<g id="edge47" class="edge">
<title>4,&#45;8 (REOOOOOOOOOOOOOO)&#45;&gt;5,2 (Raw Fiber)</title>
<path fill="none" stroke="black" stroke-width="0.05" d="M162.08,-1179.43C232.98,-1338.68 750.61,-2501.29 836.87,-2695.02"/>
<polygon fill="black" stroke="black" stroke-width="0.05" points="833.71,-2696.53 840.97,-2704.24 840.1,-2693.68 833.71,-2696.53"/>
<text text-anchor="middle" x="417.97" y="-1941.03" font-family="Times,serif" font-size="14.00">dirty&#45;water&#45;barrel*600</text>
</g>
<!-- &#45;6,8 (Copper plate duplicate) -->
<g id="node15" class="node">
<title>&#45;6,8 (Copper plate duplicate)</title>
<ellipse fill="none" stroke="black" cx="2024.97" cy="-81.18" rx="143.77" ry="18"/>
<text text-anchor="middle" x="2024.97" y="-77.48" font-family="Times,serif" font-size="14.00">&#45;6,8 (Copper plate duplicate)</text>
</g>
<!-- &#45;6,8 (Copper plate duplicate)&#45;&gt;4,3 (item=nexelit&#45;plate Nexelit platery) -->
<g id="edge21" class="edge">
<title>&#45;6,8 (Copper plate duplicate)&#45;&gt;4,3 (item=nexelit&#45;plate Nexelit platery)</title>
<path fill="none" stroke="black" stroke-width="1.99" d="M2028.8,-99.24C2073.13,-307.76 2487.37,-2256.64 2542.38,-2515.41"/>
<polygon fill="black" stroke="black" stroke-width="1.99" points="2539.02,-2516.45 2544.52,-2525.51 2545.87,-2515 2539.02,-2516.45"/>
<text text-anchor="middle" x="2195.09" y="-1311.13" font-family="Times,serif" font-size="14.00">dirty&#45;water&#45;barrel*26376</text>
</g>
<!-- &#45;6,8 (Copper plate duplicate)&#45;&gt;&#45;3,7 (Sea sprouts) -->
<g id="edge25" class="edge">
<title>&#45;6,8 (Copper plate duplicate)&#45;&gt;&#45;3,7 (Sea sprouts)</title>
<path fill="none" stroke="black" stroke-width="0.23" d="M2055.76,-98.95C2146.07,-151.1 2410.19,-303.59 2509.79,-361.09"/>
<polygon fill="black" stroke="black" stroke-width="0.23" points="2508.22,-364.23 2518.63,-366.19 2511.72,-358.16 2508.22,-364.23"/>
<text text-anchor="middle" x="2196.77" y="-233.82" font-family="Times,serif" font-size="14.00">dirty&#45;water&#45;barrel*3000</text>
</g>
<!-- &#45;6,8 (Copper plate duplicate)&#45;&gt;7,&#45;1 (Aromatics, Need more Benzene? Look no further!) -->
<g id="edge35" class="edge">
<title>&#45;6,8 (Copper plate duplicate)&#45;&gt;7,&#45;1 (Aromatics, Need more Benzene? Look no further!)</title>
<path fill="none" stroke="black" stroke-width="0.45" d="M1973.19,-98C1733.19,-175.98 729.35,-502.15 464.29,-588.27"/>
<polygon fill="black" stroke="black" stroke-width="0.45" points="462.86,-585.06 454.43,-591.48 465.02,-591.71 462.86,-585.06"/>
<text text-anchor="middle" x="1132.74" y="-346.94" font-family="Times,serif" font-size="14.00">dirty&#45;water&#45;barrel*5992</text>
</g>
<!-- &#45;6,8 (Copper plate duplicate)&#45;&gt;5,2 (Raw Fiber) -->
<g id="edge31" class="edge">
<title>&#45;6,8 (Copper plate duplicate)&#45;&gt;5,2 (Raw Fiber)</title>
<path fill="none" stroke="black" stroke-width="0.37" d="M2016.83,-99.45C1919.51,-318.03 979.91,-2428.42 861.32,-2694.77"/>
<polygon fill="black" stroke="black" stroke-width="0.37" points="858.02,-2693.57 857.15,-2704.13 864.42,-2696.41 858.02,-2693.57"/>
<text text-anchor="middle" x="1353.07" y="-1400.91" font-family="Times,serif" font-size="14.00">dirty&#45;water&#45;barrel*4960</text>
</g>
<!-- &#45;6,8 (Copper plate duplicate)&#45;&gt;4,10 (Fluid Recycling) -->
<g id="edge39" class="edge">
<title>&#45;6,8 (Copper plate duplicate)&#45;&gt;4,10 (Fluid Recycling)</title>
<path fill="none" stroke="black" stroke-width="0.7" d="M1914.72,-69.59C1804.56,-58.01 1636.46,-40.34 1528.37,-28.98"/>
<polygon fill="black" stroke="black" stroke-width="0.7" points="1528.41,-25.47 1518.1,-27.9 1527.68,-32.43 1528.41,-25.47"/>
<text text-anchor="middle" x="1635.54" y="-53.09" font-family="Times,serif" font-size="14.00">dirty&#45;water&#45;barrel*9272</text>
</g>
<!-- 6,&#45;3 (B Coal Mine) -->
<g id="node17" class="node">
<title>6,&#45;3 (B Coal Mine)</title>
<ellipse fill="none" stroke="black" cx="3070.24" cy="-265.57" rx="94.78" ry="18"/>
<text text-anchor="middle" x="3070.24" y="-261.87" font-family="Times,serif" font-size="14.00">6,&#45;3 (B Coal Mine)</text>
</g>
<!-- 9,&#45;6 (Coal &#39;n&#39; dust) -->
<g id="node18" class="node">
<title>9,&#45;6 (Coal &#39;n&#39; dust)</title>
<ellipse fill="none" stroke="black" cx="3332.67" cy="-265.57" rx="95.58" ry="18"/>
<text text-anchor="middle" x="3332.67" y="-261.87" font-family="Times,serif" font-size="14.00">9,&#45;6 (Coal &#39;n&#39; dust)</text>
</g>
<!-- 6,&#45;3 (B Coal Mine)&#45;&gt;9,&#45;6 (Coal &#39;n&#39; dust) -->
<g id="edge28" class="edge">
<title>6,&#45;3 (B Coal Mine)&#45;&gt;9,&#45;6 (Coal &#39;n&#39; dust)</title>
<path fill="none" stroke="black" stroke-width="0.08" d="M3165.35,-265.57C3185.31,-265.57 3206.47,-265.57 3226.78,-265.57"/>
<polygon fill="black" stroke="black" stroke-width="0.08" points="3227,-269.07 3237,-265.57 3227,-262.07 3227,-269.07"/>
<text text-anchor="middle" x="3196.07" y="-254.37" font-family="Times,serif" font-size="14.00">dirty&#45;water&#45;barrel*1000</text>
</g>
</g>
</svg>
