<?xml version="1.0" encoding="UTF-8" standalone="no"?>
<!DOCTYPE svg PUBLIC "-//W3C//DTD SVG 1.1//EN"
 "http://www.w3.org/Graphics/SVG/1.1/DTD/svg11.dtd">
<!-- Generated by graphviz version 2.43.0 (0)
 -->
<!-- Title: %3 Pages: 1 -->
<svg width="1020pt" height="44pt"
 viewBox="0.00 0.00 1019.78 44.00" xmlns="http://www.w3.org/2000/svg" xmlns:xlink="http://www.w3.org/1999/xlink">
<g id="graph0" class="graph" transform="scale(1 1) rotate(0) translate(4 40)">
<title>%3</title>
<polygon fill="white" stroke="transparent" points="-4,4 -4,-40 1015.78,-40 1015.78,4 -4,4"/>
<!-- 0,7 (Coal Gas) -->
<g id="node1" class="node">
<title>0,7 (Coal Gas)</title>
<ellipse fill="none" stroke="black" cx="447.27" cy="-18" rx="76.09" ry="18"/>
<text text-anchor="middle" x="447.27" y="-14.3" font-family="Times,serif" font-size="14.00">0,7 (Coal Gas)</text>
</g>
<!-- 0,0 (LE BUS) -->
<g id="node2" class="node">
<title>0,0 (LE BUS)</title>
<ellipse fill="none" stroke="black" cx="666.81" cy="-18" rx="71.49" ry="18"/>
<text text-anchor="middle" x="666.81" y="-14.3" font-family="Times,serif" font-size="14.00">0,0 (LE BUS)</text>
</g>
<!-- 0,7 (Coal Gas)&#45;&gt;0,0 (LE BUS) -->
<g id="edge1" class="edge">
<title>0,7 (Coal Gas)&#45;&gt;0,0 (LE BUS)</title>
<path fill="none" stroke="black" stroke-width="2.85" d="M523.44,-18C543.35,-18 564.91,-18 585.1,-18"/>
<polygon fill="black" stroke="black" stroke-width="2.85" points="585.2,-21.5 595.2,-18 585.2,-14.5 585.2,-21.5"/>
<text text-anchor="middle" x="554.27" y="-6.8" font-family="Times,serif" font-size="14.00">coal&#45;gas&#45;barrel*74269</text>
</g>
<!-- &#45;4,&#45;4 (Aluminium) -->
<g id="node4" class="node">
<title>&#45;4,&#45;4 (Aluminium)</title>
<ellipse fill="none" stroke="black" cx="90.99" cy="-18" rx="90.98" ry="18"/>
<text text-anchor="middle" x="90.99" y="-14.3" font-family="Times,serif" font-size="14.00">&#45;4,&#45;4 (Aluminium)</text>
</g>
<!-- 0,7 (Coal Gas)&#45;&gt;&#45;4,&#45;4 (Aluminium) -->
<g id="edge3" class="edge">
<title>0,7 (Coal Gas)&#45;&gt;&#45;4,&#45;4 (Aluminium)</title>
<path fill="none" stroke="black" stroke-width="0.03" d="M370.84,-18C318.66,-18 248.98,-18 192.21,-18"/>
<polygon fill="black" stroke="black" stroke-width="0.03" points="192.13,-14.5 182.13,-18 192.13,-21.5 192.13,-14.5"/>
<text text-anchor="middle" x="281.52" y="-6.8" font-family="Times,serif" font-size="14.00">coal&#45;gas&#45;barrel*695</text>
</g>
<!-- 0,8 (Tar from Coke) -->
<g id="node3" class="node">
<title>0,8 (Tar from Coke)</title>
<ellipse fill="none" stroke="black" cx="911.04" cy="-18" rx="100.98" ry="18"/>
<text text-anchor="middle" x="911.04" y="-14.3" font-family="Times,serif" font-size="14.00">0,8 (Tar from Coke)</text>
</g>
<!-- 0,8 (Tar from Coke)&#45;&gt;0,0 (LE BUS) -->
<g id="edge2" class="edge">
<title>0,8 (Tar from Coke)&#45;&gt;0,0 (LE BUS)</title>
<path fill="none" stroke="black" stroke-width="0.12" d="M810.29,-18C789.81,-18 768.51,-18 748.78,-18"/>
<polygon fill="black" stroke="black" stroke-width="0.12" points="748.62,-14.5 738.62,-18 748.62,-21.5 748.62,-14.5"/>
<text text-anchor="middle" x="742.29" y="-6.8" font-family="Times,serif" font-size="14.00">coal&#45;gas&#45;barrel*3248</text>
</g>
</g>
</svg>
