<?xml version="1.0" encoding="UTF-8" standalone="no"?>
<!DOCTYPE svg PUBLIC "-//W3C//DTD SVG 1.1//EN"
 "http://www.w3.org/Graphics/SVG/1.1/DTD/svg11.dtd">
<!-- Generated by graphviz version 2.43.0 (0)
 -->
<!-- Title: %3 Pages: 1 -->
<svg width="751pt" height="44pt"
 viewBox="0.00 0.00 750.60 44.00" xmlns="http://www.w3.org/2000/svg" xmlns:xlink="http://www.w3.org/1999/xlink">
<g id="graph0" class="graph" transform="scale(1 1) rotate(0) translate(4 40)">
<title>%3</title>
<polygon fill="white" stroke="transparent" points="-4,4 -4,-40 746.6,-40 746.6,4 -4,4"/>
<!-- 7,0 (item=bhoddos Bhoddos) -->
<g id="node1" class="node">
<title>7,0 (item=bhoddos Bhoddos)</title>
<ellipse fill="none" stroke="black" cx="374.87" cy="-18" rx="145.67" ry="18"/>
<text text-anchor="middle" x="374.87" y="-14.3" font-family="Times,serif" font-size="14.00">7,0 (item=bhoddos Bhoddos)</text>
</g>
<!-- 0,0 (LE BUS) -->
<g id="node2" class="node">
<title>0,0 (LE BUS)</title>
<ellipse fill="none" stroke="black" cx="671.1" cy="-18" rx="71.49" ry="18"/>
<text text-anchor="middle" x="671.1" y="-14.3" font-family="Times,serif" font-size="14.00">0,0 (LE BUS)</text>
</g>
<!-- 7,0 (item=bhoddos Bhoddos)&#45;&gt;0,0 (LE BUS) -->
<g id="edge1" class="edge">
<title>7,0 (item=bhoddos Bhoddos)&#45;&gt;0,0 (LE BUS)</title>
<path fill="none" stroke="black" stroke-width="0.5" d="M520.82,-18C544.29,-18 567.83,-18 589.09,-18"/>
<polygon fill="black" stroke="black" stroke-width="0.5" points="589.33,-21.5 599.33,-18 589.33,-14.5 589.33,-21.5"/>
<text text-anchor="middle" x="554.95" y="-6.8" font-family="Times,serif" font-size="14.00">bhoddos*10000</text>
</g>
<!-- 8,4 (Phagnots) -->
<g id="node3" class="node">
<title>8,4 (Phagnots)</title>
<ellipse fill="none" stroke="black" cx="78.64" cy="-18" rx="78.79" ry="18"/>
<text text-anchor="middle" x="78.64" y="-14.3" font-family="Times,serif" font-size="14.00">8,4 (Phagnots)</text>
</g>
<!-- 7,0 (item=bhoddos Bhoddos)&#45;&gt;8,4 (Phagnots) -->
<g id="edge2" class="edge">
<title>7,0 (item=bhoddos Bhoddos)&#45;&gt;8,4 (Phagnots)</title>
<path fill="none" stroke="black" stroke-width="1.5" d="M228.93,-18C207.91,-18 186.83,-18 167.39,-18"/>
<polygon fill="black" stroke="black" stroke-width="1.5" points="167.39,-14.5 157.39,-18 167.39,-21.5 167.39,-14.5"/>
<text text-anchor="middle" x="170.16" y="-6.8" font-family="Times,serif" font-size="14.00">bhoddos*30240</text>
</g>
</g>
</svg>
