<?xml version="1.0" encoding="UTF-8" standalone="no"?>
<!DOCTYPE svg PUBLIC "-//W3C//DTD SVG 1.1//EN"
 "http://www.w3.org/Graphics/SVG/1.1/DTD/svg11.dtd">
<!-- Generated by graphviz version 2.43.0 (0)
 -->
<!-- Title: %3 Pages: 1 -->
<svg width="930pt" height="744pt"
 viewBox="0.00 0.00 930.26 743.73" xmlns="http://www.w3.org/2000/svg" xmlns:xlink="http://www.w3.org/1999/xlink">
<g id="graph0" class="graph" transform="scale(1 1) rotate(0) translate(4 739.73)">
<title>%3</title>
<polygon fill="white" stroke="transparent" points="-4,4 -4,-739.73 926.26,-739.73 926.26,4 -4,4"/>
<!-- &#45;2,0 (Glassware) -->
<g id="node1" class="node">
<title>&#45;2,0 (Glassware)</title>
<ellipse fill="none" stroke="black" cx="458.34" cy="-395.78" rx="86.38" ry="18"/>
<text text-anchor="middle" x="458.34" y="-392.08" font-family="Times,serif" font-size="14.00">&#45;2,0 (Glassware)</text>
</g>
<!-- 0,0 (LE BUS) -->
<g id="node2" class="node">
<title>0,0 (LE BUS)</title>
<ellipse fill="none" stroke="black" cx="850.76" cy="-395.78" rx="71.49" ry="18"/>
<text text-anchor="middle" x="850.76" y="-392.08" font-family="Times,serif" font-size="14.00">0,0 (LE BUS)</text>
</g>
<!-- &#45;2,0 (Glassware)&#45;&gt;0,0 (LE BUS) -->
<g id="edge1" class="edge">
<title>&#45;2,0 (Glassware)&#45;&gt;0,0 (LE BUS)</title>
<path fill="none" stroke="black" stroke-width="2.04" d="M544.94,-395.78C611.68,-395.78 703.33,-395.78 768.86,-395.78"/>
<polygon fill="black" stroke="black" stroke-width="2.04" points="769.15,-399.28 779.15,-395.78 769.15,-392.28 769.15,-399.28"/>
<text text-anchor="middle" x="613.9" y="-399.58" font-family="Times,serif" font-size="14.00">flask*53520</text>
</g>
<!-- &#45;3,1 (Logistic science pack, Automation Science) -->
<g id="node3" class="node">
<title>&#45;3,1 (Logistic science pack, Automation Science)</title>
<ellipse fill="none" stroke="black" cx="233.98" cy="-717.73" rx="233.96" ry="18"/>
<text text-anchor="middle" x="233.98" y="-714.03" font-family="Times,serif" font-size="14.00">&#45;3,1 (Logistic science pack, Automation Science)</text>
</g>
<!-- &#45;2,0 (Glassware)&#45;&gt;&#45;3,1 (Logistic science pack, Automation Science) -->
<g id="edge2" class="edge">
<title>&#45;2,0 (Glassware)&#45;&gt;&#45;3,1 (Logistic science pack, Automation Science)</title>
<path fill="none" stroke="black" stroke-width="0.57" d="M445.63,-414.01C407.92,-468.13 296.49,-628.03 252.32,-691.42"/>
<polygon fill="black" stroke="black" stroke-width="0.57" points="249.39,-689.5 246.55,-699.7 255.13,-693.5 249.39,-689.5"/>
<text text-anchor="middle" x="305.98" y="-556.51" font-family="Times,serif" font-size="14.00">flask*15056</text>
</g>
<!-- &#45;8,&#45;11 (Fetal serum) -->
<g id="node4" class="node">
<title>&#45;8,&#45;11 (Fetal serum)</title>
<ellipse fill="none" stroke="black" cx="352.13" cy="-18" rx="102.88" ry="18"/>
<text text-anchor="middle" x="352.13" y="-14.3" font-family="Times,serif" font-size="14.00">&#45;8,&#45;11 (Fetal serum)</text>
</g>
<!-- &#45;2,0 (Glassware)&#45;&gt;&#45;8,&#45;11 (Fetal serum) -->
<g id="edge3" class="edge">
<title>&#45;2,0 (Glassware)&#45;&gt;&#45;8,&#45;11 (Fetal serum)</title>
<path fill="none" stroke="black" stroke-width="0.38" d="M453.22,-377.56C436.08,-316.59 380.65,-119.44 359.99,-45.95"/>
<polygon fill="black" stroke="black" stroke-width="0.38" points="363.28,-44.72 357.21,-36.04 356.54,-46.61 363.28,-44.72"/>
<text text-anchor="middle" x="363.61" y="-215.55" font-family="Times,serif" font-size="14.00">flask*10048</text>
</g>
</g>
</svg>
