<?xml version="1.0" encoding="UTF-8" standalone="no"?>
<!DOCTYPE svg PUBLIC "-//W3C//DTD SVG 1.1//EN"
 "http://www.w3.org/Graphics/SVG/1.1/DTD/svg11.dtd">
<!-- Generated by graphviz version 2.43.0 (0)
 -->
<!-- Title: %3 Pages: 1 -->
<svg width="722pt" height="648pt"
 viewBox="0.00 0.00 721.56 647.68" xmlns="http://www.w3.org/2000/svg" xmlns:xlink="http://www.w3.org/1999/xlink">
<g id="graph0" class="graph" transform="scale(1 1) rotate(0) translate(4 643.68)">
<title>%3</title>
<polygon fill="white" stroke="transparent" points="-4,4 -4,-643.68 717.56,-643.68 717.56,4 -4,4"/>
<!-- 2,0 (Sodium Sulfate) -->
<g id="node1" class="node">
<title>2,0 (Sodium Sulfate)</title>
<ellipse fill="none" stroke="black" cx="339.33" cy="-318.95" rx="106.68" ry="18"/>
<text text-anchor="middle" x="339.33" y="-315.25" font-family="Times,serif" font-size="14.00">2,0 (Sodium Sulfate)</text>
</g>
<!-- 0,0 (LE BUS) -->
<g id="node2" class="node">
<title>0,0 (LE BUS)</title>
<ellipse fill="none" stroke="black" cx="642.06" cy="-318.95" rx="71.49" ry="18"/>
<text text-anchor="middle" x="642.06" y="-315.25" font-family="Times,serif" font-size="14.00">0,0 (LE BUS)</text>
</g>
<!-- 2,0 (Sodium Sulfate)&#45;&gt;0,0 (LE BUS) -->
<g id="edge1" class="edge">
<title>2,0 (Sodium Sulfate)&#45;&gt;0,0 (LE BUS)</title>
<path fill="none" stroke="black" stroke-width="2.17" d="M446.06,-318.95C483.56,-318.95 525.07,-318.95 560.19,-318.95"/>
<polygon fill="black" stroke="black" stroke-width="2.17" points="560.4,-322.45 570.4,-318.95 560.4,-315.45 560.4,-322.45"/>
<text text-anchor="middle" x="503.13" y="-307.75" font-family="Times,serif" font-size="14.00">sulfuric&#45;acid&#45;barrel*1040</text>
</g>
<!-- 1,9 (Ammunition) -->
<g id="node3" class="node">
<title>1,9 (Ammunition)</title>
<ellipse fill="none" stroke="black" cx="339.01" cy="-621.68" rx="91.78" ry="18"/>
<text text-anchor="middle" x="339.01" y="-617.98" font-family="Times,serif" font-size="14.00">1,9 (Ammunition)</text>
</g>
<!-- 2,0 (Sodium Sulfate)&#45;&gt;1,9 (Ammunition) -->
<g id="edge2" class="edge">
<title>2,0 (Sodium Sulfate)&#45;&gt;1,9 (Ammunition)</title>
<path fill="none" stroke="black" stroke-width="1.27" d="M339.31,-336.98C339.26,-387.66 339.11,-531.65 339.04,-593.2"/>
<polygon fill="black" stroke="black" stroke-width="1.27" points="335.54,-593.36 339.03,-603.36 342.54,-593.37 335.54,-593.36"/>
<text text-anchor="middle" x="254.18" y="-468.89" font-family="Times,serif" font-size="14.00">sulfuric&#45;acid&#45;barrel*608</text>
</g>
<!-- &#45;3,6 () -->
<g id="node4" class="node">
<title>&#45;3,6 ()</title>
<ellipse fill="none" stroke="black" cx="38.35" cy="-351.39" rx="38.19" ry="18"/>
<text text-anchor="middle" x="38.35" y="-347.69" font-family="Times,serif" font-size="14.00">&#45;3,6 ()</text>
</g>
<!-- 2,0 (Sodium Sulfate)&#45;&gt;&#45;3,6 () -->
<g id="edge3" class="edge">
<title>2,0 (Sodium Sulfate)&#45;&gt;&#45;3,6 ()</title>
<path fill="none" stroke="black" stroke-width="0.3" d="M249.44,-328.64C195.71,-334.43 129.62,-341.55 85.86,-346.27"/>
<polygon fill="black" stroke="black" stroke-width="0.3" points="85.35,-342.8 75.78,-347.35 86.1,-349.76 85.35,-342.8"/>
<text text-anchor="middle" x="252.65" y="-341.25" font-family="Times,serif" font-size="14.00">sulfuric&#45;acid&#45;barrel*144</text>
</g>
<!-- &#45;2,5 (Rare Earth Oxides) -->
<g id="node5" class="node">
<title>&#45;2,5 (Rare Earth Oxides)</title>
<ellipse fill="none" stroke="black" cx="306.58" cy="-18" rx="124.28" ry="18"/>
<text text-anchor="middle" x="306.58" y="-14.3" font-family="Times,serif" font-size="14.00">&#45;2,5 (Rare Earth Oxides)</text>
</g>
<!-- 2,0 (Sodium Sulfate)&#45;&gt;&#45;2,5 (Rare Earth Oxides) -->
<g id="edge4" class="edge">
<title>2,0 (Sodium Sulfate)&#45;&gt;&#45;2,5 (Rare Earth Oxides)</title>
<path fill="none" stroke="black" stroke-width="0.26" d="M337.33,-300.58C331.8,-249.77 316.28,-107.14 309.64,-46.19"/>
<polygon fill="black" stroke="black" stroke-width="0.26" points="313.11,-45.69 308.55,-36.13 306.15,-46.45 313.11,-45.69"/>
<text text-anchor="middle" x="238.49" y="-177.18" font-family="Times,serif" font-size="14.00">sulfuric&#45;acid&#45;barrel*126</text>
</g>
</g>
</svg>
