<?xml version="1.0" encoding="UTF-8" standalone="no"?>
<!DOCTYPE svg PUBLIC "-//W3C//DTD SVG 1.1//EN"
 "http://www.w3.org/Graphics/SVG/1.1/DTD/svg11.dtd">
<!-- Generated by graphviz version 2.43.0 (0)
 -->
<!-- Title: %3 Pages: 1 -->
<svg width="1301pt" height="790pt"
 viewBox="0.00 0.00 1301.10 790.48" xmlns="http://www.w3.org/2000/svg" xmlns:xlink="http://www.w3.org/1999/xlink">
<g id="graph0" class="graph" transform="scale(1 1) rotate(0) translate(4 786.48)">
<title>%3</title>
<polygon fill="white" stroke="transparent" points="-4,4 -4,-786.48 1297.1,-786.48 1297.1,4 -4,4"/>
<!-- &#45;3,8 (Urea) -->
<g id="node1" class="node">
<title>&#45;3,8 (Urea)</title>
<ellipse fill="none" stroke="black" cx="210.58" cy="-160.56" rx="61.19" ry="18"/>
<text text-anchor="middle" x="210.58" y="-156.86" font-family="Times,serif" font-size="14.00">&#45;3,8 (Urea)</text>
</g>
<!-- 4,9 (Cyanic Acid, Ammonia is a by&#45;product) -->
<g id="node2" class="node">
<title>4,9 (Cyanic Acid, Ammonia is a by&#45;product)</title>
<ellipse fill="none" stroke="black" cx="210.58" cy="-621.91" rx="210.66" ry="18"/>
<text text-anchor="middle" x="210.58" y="-618.21" font-family="Times,serif" font-size="14.00">4,9 (Cyanic Acid, Ammonia is a by&#45;product)</text>
</g>
<!-- &#45;3,8 (Urea)&#45;&gt;4,9 (Cyanic Acid, Ammonia is a by&#45;product) -->
<g id="edge1" class="edge">
<title>&#45;3,8 (Urea)&#45;&gt;4,9 (Cyanic Acid, Ammonia is a by&#45;product)</title>
<path fill="none" stroke="black" stroke-width="1.34" d="M210.58,-178.65C210.58,-249.34 210.58,-507.34 210.58,-593.6"/>
<polygon fill="black" stroke="black" stroke-width="1.34" points="207.08,-593.7 210.58,-603.7 214.08,-593.7 207.08,-593.7"/>
<text text-anchor="middle" x="163.58" y="-389.93" font-family="Times,serif" font-size="14.00">urea*126640</text>
</g>
<!-- 0,0 (LE BUS) -->
<g id="node4" class="node">
<title>0,0 (LE BUS)</title>
<ellipse fill="none" stroke="black" cx="649.35" cy="-18" rx="71.49" ry="18"/>
<text text-anchor="middle" x="649.35" y="-14.3" font-family="Times,serif" font-size="14.00">0,0 (LE BUS)</text>
</g>
<!-- &#45;3,8 (Urea)&#45;&gt;0,0 (LE BUS) -->
<g id="edge3" class="edge">
<title>&#45;3,8 (Urea)&#45;&gt;0,0 (LE BUS)</title>
<path fill="none" stroke="black" stroke-width="0.03" d="M251.86,-147.15C331.64,-121.23 506.95,-64.27 595.66,-35.44"/>
<polygon fill="black" stroke="black" stroke-width="0.03" points="596.83,-38.74 605.26,-32.32 594.67,-32.09 596.83,-38.74"/>
<text text-anchor="middle" x="385.76" y="-95.1" font-family="Times,serif" font-size="14.00">urea*2512</text>
</g>
<!-- &#45;6,&#45;2 (item=fertilizer Fertiliser) -->
<g id="node7" class="node">
<title>&#45;6,&#45;2 (item=fertilizer Fertiliser)</title>
<ellipse fill="none" stroke="black" cx="649.35" cy="-764.48" rx="155.97" ry="18"/>
<text text-anchor="middle" x="649.35" y="-760.78" font-family="Times,serif" font-size="14.00">&#45;6,&#45;2 (item=fertilizer Fertiliser)</text>
</g>
<!-- &#45;3,8 (Urea)&#45;&gt;&#45;6,&#45;2 (item=fertilizer Fertiliser) -->
<g id="edge7" class="edge">
<title>&#45;3,8 (Urea)&#45;&gt;&#45;6,&#45;2 (item=fertilizer Fertiliser)</title>
<path fill="none" stroke="black" stroke-width="0.11" d="M223.48,-178.31C285.78,-264.07 555.72,-635.61 630.23,-738.17"/>
<polygon fill="black" stroke="black" stroke-width="0.11" points="627.53,-740.4 636.24,-746.44 633.2,-736.29 627.53,-740.4"/>
<text text-anchor="middle" x="384.35" y="-462.04" font-family="Times,serif" font-size="14.00">urea*10144</text>
</g>
<!-- &#45;6,4 (Urea) -->
<g id="node3" class="node">
<title>&#45;6,4 (Urea)</title>
<ellipse fill="none" stroke="black" cx="920.52" cy="-391.24" rx="61.19" ry="18"/>
<text text-anchor="middle" x="920.52" y="-387.54" font-family="Times,serif" font-size="14.00">&#45;6,4 (Urea)</text>
</g>
<!-- &#45;6,4 (Urea)&#45;&gt;4,9 (Cyanic Acid, Ammonia is a by&#45;product) -->
<g id="edge2" class="edge">
<title>&#45;6,4 (Urea)&#45;&gt;4,9 (Cyanic Acid, Ammonia is a by&#45;product)</title>
<path fill="none" stroke="black" stroke-width="6.36" d="M879.29,-404.64C760.51,-443.23 417.01,-554.84 274.12,-601.27"/>
<polygon fill="black" stroke="black" stroke-width="6.36" points="271.97,-596.11 264.18,-604.5 275.41,-606.7 271.97,-596.11"/>
<text text-anchor="middle" x="529.7" y="-506.75" font-family="Times,serif" font-size="14.00">urea*601720</text>
</g>
<!-- &#45;6,4 (Urea)&#45;&gt;0,0 (LE BUS) -->
<g id="edge4" class="edge">
<title>&#45;6,4 (Urea)&#45;&gt;0,0 (LE BUS)</title>
<path fill="none" stroke="black" stroke-width="0.03" d="M907.44,-373.24C863.41,-312.63 720.42,-115.82 668.45,-44.29"/>
<polygon fill="black" stroke="black" stroke-width="0.03" points="671.01,-41.85 662.3,-35.82 665.34,-45.97 671.01,-41.85"/>
<text text-anchor="middle" x="749.95" y="-212.56" font-family="Times,serif" font-size="14.00">urea*2520</text>
</g>
<!-- 2,4 (Formica and Phenolic boards) -->
<g id="node5" class="node">
<title>2,4 (Formica and Phenolic boards)</title>
<ellipse fill="none" stroke="black" cx="1090.96" cy="-99.3" rx="169.77" ry="18"/>
<text text-anchor="middle" x="1090.96" y="-95.6" font-family="Times,serif" font-size="14.00">2,4 (Formica and Phenolic boards)</text>
</g>
<!-- &#45;6,4 (Urea)&#45;&gt;2,4 (Formica and Phenolic boards) -->
<g id="edge5" class="edge">
<title>&#45;6,4 (Urea)&#45;&gt;2,4 (Formica and Phenolic boards)</title>
<path fill="none" stroke="black" stroke-width="0.04" d="M930.93,-373.42C959.74,-324.06 1040.71,-185.37 1075.14,-126.39"/>
<polygon fill="black" stroke="black" stroke-width="0.04" points="1078.23,-128.04 1080.25,-117.64 1072.19,-124.51 1078.23,-128.04"/>
<text text-anchor="middle" x="965.03" y="-253.7" font-family="Times,serif" font-size="14.00">urea*3360</text>
</g>
<!-- 1,4 (Casein and Melamine) -->
<g id="node6" class="node">
<title>1,4 (Casein and Melamine)</title>
<ellipse fill="none" stroke="black" cx="1157.91" cy="-464.52" rx="135.38" ry="18"/>
<text text-anchor="middle" x="1157.91" y="-460.82" font-family="Times,serif" font-size="14.00">1,4 (Casein and Melamine)</text>
</g>
<!-- &#45;6,4 (Urea)&#45;&gt;1,4 (Casein and Melamine) -->
<g id="edge6" class="edge">
<title>&#45;6,4 (Urea)&#45;&gt;1,4 (Casein and Melamine)</title>
<path fill="none" stroke="black" stroke-width="0.4" d="M962.96,-404.34C999.51,-415.62 1052.78,-432.06 1094.4,-444.91"/>
<polygon fill="black" stroke="black" stroke-width="0.4" points="1093.59,-448.32 1104.17,-447.93 1095.65,-441.64 1093.59,-448.32"/>
<text text-anchor="middle" x="986.18" y="-428.43" font-family="Times,serif" font-size="14.00">urea*37680</text>
</g>
<!-- &#45;6,4 (Urea)&#45;&gt;&#45;6,&#45;2 (item=fertilizer Fertiliser) -->
<g id="edge9" class="edge">
<title>&#45;6,4 (Urea)&#45;&gt;&#45;6,&#45;2 (item=fertilizer Fertiliser)</title>
<path fill="none" stroke="black" stroke-width="0.09" d="M907.44,-409.24C863.42,-469.83 720.5,-666.55 668.49,-738.13"/>
<polygon fill="black" stroke="black" stroke-width="0.09" points="665.66,-736.07 662.62,-746.22 671.32,-740.19 665.66,-736.07"/>
<text text-anchor="middle" x="749.97" y="-577.48" font-family="Times,serif" font-size="14.00">urea*8280</text>
</g>
<!-- &#45;5,2 (Optical fiber) -->
<g id="node8" class="node">
<title>&#45;5,2 (Optical fiber)</title>
<ellipse fill="none" stroke="black" cx="1053.45" cy="-746.27" rx="96.38" ry="18"/>
<text text-anchor="middle" x="1053.45" y="-742.57" font-family="Times,serif" font-size="14.00">&#45;5,2 (Optical fiber)</text>
</g>
<!-- &#45;6,4 (Urea)&#45;&gt;&#45;5,2 (Optical fiber) -->
<g id="edge8" class="edge">
<title>&#45;6,4 (Urea)&#45;&gt;&#45;5,2 (Optical fiber)</title>
<path fill="none" stroke="black" stroke-width="0.62" d="M927.3,-409.33C949.03,-467.38 1017.1,-649.18 1043.16,-718.78"/>
<polygon fill="black" stroke="black" stroke-width="0.62" points="1039.9,-720.07 1046.68,-728.21 1046.46,-717.62 1039.9,-720.07"/>
<text text-anchor="middle" x="942.73" y="-567.86" font-family="Times,serif" font-size="14.00">urea*58200</text>
</g>
</g>
</svg>
