<?xml version="1.0" encoding="UTF-8" standalone="no"?>
<!DOCTYPE svg PUBLIC "-//W3C//DTD SVG 1.1//EN"
 "http://www.w3.org/Graphics/SVG/1.1/DTD/svg11.dtd">
<!-- Generated by graphviz version 2.43.0 (0)
 -->
<!-- Title: %3 Pages: 1 -->
<svg width="1077pt" height="716pt"
 viewBox="0.00 0.00 1077.41 715.66" xmlns="http://www.w3.org/2000/svg" xmlns:xlink="http://www.w3.org/1999/xlink">
<g id="graph0" class="graph" transform="scale(1 1) rotate(0) translate(4 711.66)">
<title>%3</title>
<polygon fill="white" stroke="transparent" points="-4,4 -4,-711.66 1073.41,-711.66 1073.41,4 -4,4"/>
<!-- 9,0 (Iron / Nickel mine) -->
<g id="node1" class="node">
<title>9,0 (Iron / Nickel mine)</title>
<ellipse fill="none" stroke="black" cx="436.65" cy="-327.2" rx="118.08" ry="18"/>
<text text-anchor="middle" x="436.65" y="-323.5" font-family="Times,serif" font-size="14.00">9,0 (Iron / Nickel mine)</text>
</g>
<!-- 4,11 (Cobalt Extract) -->
<g id="node2" class="node">
<title>4,11 (Cobalt Extract)</title>
<ellipse fill="none" stroke="black" cx="735.48" cy="-327.2" rx="108.58" ry="18"/>
<text text-anchor="middle" x="735.48" y="-323.5" font-family="Times,serif" font-size="14.00">4,11 (Cobalt Extract)</text>
</g>
<!-- 9,0 (Iron / Nickel mine)&#45;&gt;4,11 (Cobalt Extract) -->
<g id="edge1" class="edge">
<title>9,0 (Iron / Nickel mine)&#45;&gt;4,11 (Cobalt Extract)</title>
<path fill="none" stroke="black" stroke-width="2.61" d="M555.19,-327.2C575.4,-327.2 596.4,-327.2 616.62,-327.2"/>
<polygon fill="black" stroke="black" stroke-width="2.61" points="616.8,-330.7 626.8,-327.2 616.8,-323.7 616.8,-330.7"/>
<text text-anchor="middle" x="585.91" y="-316" font-family="Times,serif" font-size="14.00">ore&#45;nickel*48720</text>
</g>
<!-- 0,0 (LE BUS) -->
<g id="node3" class="node">
<title>0,0 (LE BUS)</title>
<ellipse fill="none" stroke="black" cx="241.79" cy="-689.66" rx="71.49" ry="18"/>
<text text-anchor="middle" x="241.79" y="-685.96" font-family="Times,serif" font-size="14.00">0,0 (LE BUS)</text>
</g>
<!-- 9,0 (Iron / Nickel mine)&#45;&gt;0,0 (LE BUS) -->
<g id="edge2" class="edge">
<title>9,0 (Iron / Nickel mine)&#45;&gt;0,0 (LE BUS)</title>
<path fill="none" stroke="black" stroke-width="0.57" d="M426.99,-345.17C395.31,-404.11 294.42,-591.77 256.44,-662.41"/>
<polygon fill="black" stroke="black" stroke-width="0.57" points="253.17,-661.11 251.51,-671.58 259.33,-664.43 253.17,-661.11"/>
<text text-anchor="middle" x="280.72" y="-507.59" font-family="Times,serif" font-size="14.00">ore&#45;nickel*10680</text>
</g>
<!-- 2,10 (Nickel plate and Nichrome) -->
<g id="node4" class="node">
<title>2,10 (Nickel plate and Nichrome)</title>
<ellipse fill="none" stroke="black" cx="165.09" cy="-18" rx="165.17" ry="18"/>
<text text-anchor="middle" x="165.09" y="-14.3" font-family="Times,serif" font-size="14.00">2,10 (Nickel plate and Nichrome)</text>
</g>
<!-- 9,0 (Iron / Nickel mine)&#45;&gt;2,10 (Nickel plate and Nichrome) -->
<g id="edge3" class="edge">
<title>9,0 (Iron / Nickel mine)&#45;&gt;2,10 (Nickel plate and Nichrome)</title>
<path fill="none" stroke="black" stroke-width="0.55" d="M420.88,-309.24C374.94,-256.94 241.15,-104.6 187.61,-43.65"/>
<polygon fill="black" stroke="black" stroke-width="0.55" points="190.13,-41.21 180.9,-36.01 184.87,-45.83 190.13,-41.21"/>
<text text-anchor="middle" x="243.25" y="-180.24" font-family="Times,serif" font-size="14.00">ore&#45;nickel*10200</text>
</g>
<!-- 4,&#45;2 (Ceramic) -->
<g id="node5" class="node">
<title>4,&#45;2 (Ceramic)</title>
<ellipse fill="none" stroke="black" cx="992.72" cy="-327.2" rx="76.89" ry="18"/>
<text text-anchor="middle" x="992.72" y="-323.5" font-family="Times,serif" font-size="14.00">4,&#45;2 (Ceramic)</text>
</g>
<!-- 4,&#45;2 (Ceramic)&#45;&gt;4,11 (Cobalt Extract) -->
<g id="edge4" class="edge">
<title>4,&#45;2 (Ceramic)&#45;&gt;4,11 (Cobalt Extract)</title>
<path fill="none" stroke="black" stroke-width="0.27" d="M915.89,-327.2C896.55,-327.2 875.33,-327.2 854.46,-327.2"/>
<polygon fill="black" stroke="black" stroke-width="0.27" points="854.25,-323.7 844.25,-327.2 854.25,-330.7 854.25,-323.7"/>
<text text-anchor="middle" x="856.92" y="-316" font-family="Times,serif" font-size="14.00">ore&#45;nickel*5056</text>
</g>
</g>
</svg>
