<?xml version="1.0" encoding="UTF-8" standalone="no"?>
<!DOCTYPE svg PUBLIC "-//W3C//DTD SVG 1.1//EN"
 "http://www.w3.org/Graphics/SVG/1.1/DTD/svg11.dtd">
<!-- Generated by graphviz version 2.43.0 (0)
 -->
<!-- Title: %3 Pages: 1 -->
<svg width="1211pt" height="44pt"
 viewBox="0.00 0.00 1210.76 44.00" xmlns="http://www.w3.org/2000/svg" xmlns:xlink="http://www.w3.org/1999/xlink">
<g id="graph0" class="graph" transform="scale(1 1) rotate(0) translate(4 40)">
<title>%3</title>
<polygon fill="white" stroke="transparent" points="-4,4 -4,-40 1206.76,-40 1206.76,4 -4,4"/>
<!-- 0,0 (LE BUS) -->
<g id="node1" class="node">
<title>0,0 (LE BUS)</title>
<ellipse fill="none" stroke="black" cx="659.55" cy="-18" rx="71.49" ry="18"/>
<text text-anchor="middle" x="659.55" y="-14.3" font-family="Times,serif" font-size="14.00">0,0 (LE BUS)</text>
</g>
<!-- 6,4 (Electronic components) -->
<g id="node2" class="node">
<title>6,4 (Electronic components)</title>
<ellipse fill="none" stroke="black" cx="1061.07" cy="-18" rx="141.88" ry="18"/>
<text text-anchor="middle" x="1061.07" y="-14.3" font-family="Times,serif" font-size="14.00">6,4 (Electronic components)</text>
</g>
<!-- 0,0 (LE BUS)&#45;&gt;6,4 (Electronic components) -->
<g id="edge1" class="edge">
<title>0,0 (LE BUS)&#45;&gt;6,4 (Electronic components)</title>
<path fill="none" stroke="black" stroke-width="0.13" d="M731.33,-18C780.69,-18 848.09,-18 909.09,-18"/>
<polygon fill="black" stroke="black" stroke-width="0.13" points="909.21,-21.5 919.21,-18 909.21,-14.5 909.21,-21.5"/>
<text text-anchor="middle" x="820.21" y="-6.8" font-family="Times,serif" font-size="14.00">ore&#45;aluminium*10224</text>
</g>
<!-- &#45;4,&#45;4 (Reserved For Aluminium Ore Drop, Aluminium) -->
<g id="node3" class="node">
<title>&#45;4,&#45;4 (Reserved For Aluminium Ore Drop, Aluminium)</title>
<ellipse fill="none" stroke="black" cx="258.03" cy="-18" rx="258.05" ry="18"/>
<text text-anchor="middle" x="258.03" y="-14.3" font-family="Times,serif" font-size="14.00">&#45;4,&#45;4 (Reserved For Aluminium Ore Drop, Aluminium)</text>
</g>
<!-- 0,0 (LE BUS)&#45;&gt;&#45;4,&#45;4 (Reserved For Aluminium Ore Drop, Aluminium) -->
<g id="edge2" class="edge">
<title>0,0 (LE BUS)&#45;&gt;&#45;4,&#45;4 (Reserved For Aluminium Ore Drop, Aluminium)</title>
<path fill="none" stroke="black" stroke-width="1.87" d="M587.76,-18C569.38,-18 548.49,-18 526.36,-18"/>
<polygon fill="black" stroke="black" stroke-width="1.87" points="526.1,-14.5 516.1,-18 526.1,-21.5 526.1,-14.5"/>
<text text-anchor="middle" x="515.81" y="-6.8" font-family="Times,serif" font-size="14.00">ore&#45;aluminium*146352</text>
</g>
</g>
</svg>
