<?xml version="1.0" encoding="UTF-8" standalone="no"?>
<!DOCTYPE svg PUBLIC "-//W3C//DTD SVG 1.1//EN"
 "http://www.w3.org/Graphics/SVG/1.1/DTD/svg11.dtd">
<!-- Generated by graphviz version 2.43.0 (0)
 -->
<!-- Title: %3 Pages: 1 -->
<svg width="1319pt" height="1028pt"
 viewBox="0.00 0.00 1318.75 1028.48" xmlns="http://www.w3.org/2000/svg" xmlns:xlink="http://www.w3.org/1999/xlink">
<g id="graph0" class="graph" transform="scale(1 1) rotate(0) translate(4 1024.48)">
<title>%3</title>
<polygon fill="white" stroke="transparent" points="-4,4 -4,-1024.48 1314.75,-1024.48 1314.75,4 -4,4"/>
<!-- 3,9 (Copper, molten &amp; plate) -->
<g id="node1" class="node">
<title>3,9 (Copper, molten &amp; plate)</title>
<ellipse fill="none" stroke="black" cx="703.03" cy="-528.83" rx="143.77" ry="18"/>
<text text-anchor="middle" x="703.03" y="-525.13" font-family="Times,serif" font-size="14.00">3,9 (Copper, molten &amp; plate)</text>
</g>
<!-- 3,3 (Small Parts) -->
<g id="node2" class="node">
<title>3,3 (Small Parts)</title>
<ellipse fill="none" stroke="black" cx="1221.71" cy="-528.83" rx="89.08" ry="18"/>
<text text-anchor="middle" x="1221.71" y="-525.13" font-family="Times,serif" font-size="14.00">3,3 (Small Parts)</text>
</g>
<!-- 3,9 (Copper, molten &amp; plate)&#45;&gt;3,3 (Small Parts) -->
<g id="edge1" class="edge">
<title>3,9 (Copper, molten &amp; plate)&#45;&gt;3,3 (Small Parts)</title>
<path fill="none" stroke="black" stroke-width="1.6" d="M846.82,-528.83C934.48,-528.83 1044.27,-528.83 1122.33,-528.83"/>
<polygon fill="black" stroke="black" stroke-width="1.6" points="1122.65,-532.33 1132.65,-528.83 1122.65,-525.33 1122.65,-532.33"/>
<text text-anchor="middle" x="1055.58" y="-532.63" font-family="Times,serif" font-size="14.00">copper&#45;plate*36520</text>
</g>
<!-- 0,0 (LE BUS) -->
<g id="node3" class="node">
<title>0,0 (LE BUS)</title>
<ellipse fill="none" stroke="black" cx="1170.45" cy="-753.66" rx="71.49" ry="18"/>
<text text-anchor="middle" x="1170.45" y="-749.96" font-family="Times,serif" font-size="14.00">0,0 (LE BUS)</text>
</g>
<!-- 3,9 (Copper, molten &amp; plate)&#45;&gt;0,0 (LE BUS) -->
<g id="edge2" class="edge">
<title>3,9 (Copper, molten &amp; plate)&#45;&gt;0,0 (LE BUS)</title>
<path fill="none" stroke="black" stroke-width="1.8" d="M739.32,-546.29C824.46,-587.24 1036.73,-689.34 1127.82,-733.15"/>
<polygon fill="black" stroke="black" stroke-width="1.8" points="1126.5,-736.4 1137.03,-737.58 1129.53,-730.09 1126.5,-736.4"/>
<text text-anchor="middle" x="862.57" y="-643.52" font-family="Times,serif" font-size="14.00">copper&#45;plate*41080</text>
</g>
<!-- 7,1 (item=aerogel item=clean&#45;rf&#45;gel Aerogel) -->
<g id="node4" class="node">
<title>7,1 (item=aerogel item=clean&#45;rf&#45;gel Aerogel)</title>
<ellipse fill="none" stroke="black" cx="914.42" cy="-1002.48" rx="220.96" ry="18"/>
<text text-anchor="middle" x="914.42" y="-998.78" font-family="Times,serif" font-size="14.00">7,1 (item=aerogel item=clean&#45;rf&#45;gel Aerogel)</text>
</g>
<!-- 3,9 (Copper, molten &amp; plate)&#45;&gt;7,1 (item=aerogel item=clean&#45;rf&#45;gel Aerogel) -->
<g id="edge3" class="edge">
<title>3,9 (Copper, molten &amp; plate)&#45;&gt;7,1 (item=aerogel item=clean&#45;rf&#45;gel Aerogel)</title>
<path fill="none" stroke="black" stroke-width="0.66" d="M711.06,-546.82C743.3,-619.06 863.49,-888.36 902.27,-975.26"/>
<polygon fill="black" stroke="black" stroke-width="0.66" points="899.11,-976.77 906.38,-984.47 905.5,-973.91 899.11,-976.77"/>
<text text-anchor="middle" x="735.66" y="-764.84" font-family="Times,serif" font-size="14.00">copper&#45;plate*15000</text>
</g>
<!-- 2,4 (Formica and Phenolic boards) -->
<g id="node5" class="node">
<title>2,4 (Formica and Phenolic boards)</title>
<ellipse fill="none" stroke="black" cx="467.14" cy="-990.77" rx="169.77" ry="18"/>
<text text-anchor="middle" x="467.14" y="-987.07" font-family="Times,serif" font-size="14.00">2,4 (Formica and Phenolic boards)</text>
</g>
<!-- 3,9 (Copper, molten &amp; plate)&#45;&gt;2,4 (Formica and Phenolic boards) -->
<g id="edge4" class="edge">
<title>3,9 (Copper, molten &amp; plate)&#45;&gt;2,4 (Formica and Phenolic boards)</title>
<path fill="none" stroke="black" stroke-width="2.31" d="M693.78,-546.94C657.45,-618.09 524.34,-878.75 480.93,-963.76"/>
<polygon fill="black" stroke="black" stroke-width="2.31" points="477.75,-962.29 476.32,-972.79 483.99,-965.47 477.75,-962.29"/>
<text text-anchor="middle" x="516.36" y="-759.15" font-family="Times,serif" font-size="14.00">copper&#45;plate*52640</text>
</g>
<!-- 6,4 (Electronic components) -->
<g id="node6" class="node">
<title>6,4 (Electronic components)</title>
<ellipse fill="none" stroke="black" cx="217.53" cy="-711.37" rx="141.88" ry="18"/>
<text text-anchor="middle" x="217.53" y="-707.67" font-family="Times,serif" font-size="14.00">6,4 (Electronic components)</text>
</g>
<!-- 3,9 (Copper, molten &amp; plate)&#45;&gt;6,4 (Electronic components) -->
<g id="edge5" class="edge">
<title>3,9 (Copper, molten &amp; plate)&#45;&gt;6,4 (Electronic components)</title>
<path fill="none" stroke="black" stroke-width="0.32" d="M657.35,-546C567.78,-579.68 369.39,-654.28 272.68,-690.64"/>
<polygon fill="black" stroke="black" stroke-width="0.32" points="271.21,-687.45 263.08,-694.24 273.67,-694 271.21,-687.45"/>
<text text-anchor="middle" x="398.52" y="-622.12" font-family="Times,serif" font-size="14.00">copper&#45;plate*7320</text>
</g>
<!-- &#45;5,0 (item=small&#45;lampitem=petri&#45;dish Lamptri dishes) -->
<g id="node7" class="node">
<title>&#45;5,0 (item=small&#45;lampitem=petri&#45;dish Lamptri dishes)</title>
<ellipse fill="none" stroke="black" cx="263.88" cy="-252.83" rx="263.75" ry="18"/>
<text text-anchor="middle" x="263.88" y="-249.13" font-family="Times,serif" font-size="14.00">&#45;5,0 (item=small&#45;lampitem=petri&#45;dish Lamptri dishes)</text>
</g>
<!-- 3,9 (Copper, molten &amp; plate)&#45;&gt;&#45;5,0 (item=small&#45;lampitem=petri&#45;dish Lamptri dishes) -->
<g id="edge6" class="edge">
<title>3,9 (Copper, molten &amp; plate)&#45;&gt;&#45;5,0 (item=small&#45;lampitem=petri&#45;dish Lamptri dishes)</title>
<path fill="none" stroke="black" stroke-width="0.71" d="M674.89,-511.15C598.55,-463.17 387.53,-330.55 301.31,-276.36"/>
<polygon fill="black" stroke="black" stroke-width="0.71" points="302.96,-273.27 292.64,-270.91 299.24,-279.19 302.96,-273.27"/>
<text text-anchor="middle" x="417.1" y="-397.55" font-family="Times,serif" font-size="14.00">copper&#45;plate*16240</text>
</g>
<!-- &#45;6,&#45;4 (High&#45;Power Resistors, Ceramic Capacitor, Inductor) -->
<g id="node8" class="node">
<title>&#45;6,&#45;4 (High&#45;Power Resistors, Ceramic Capacitor, Inductor)</title>
<ellipse fill="none" stroke="black" cx="792.91" cy="-18" rx="278.35" ry="18"/>
<text text-anchor="middle" x="792.91" y="-14.3" font-family="Times,serif" font-size="14.00">&#45;6,&#45;4 (High&#45;Power Resistors, Ceramic Capacitor, Inductor)</text>
</g>
<!-- 3,9 (Copper, molten &amp; plate)&#45;&gt;&#45;6,&#45;4 (High&#45;Power Resistors, Ceramic Capacitor, Inductor) -->
<g id="edge7" class="edge">
<title>3,9 (Copper, molten &amp; plate)&#45;&gt;&#45;6,&#45;4 (High&#45;Power Resistors, Ceramic Capacitor, Inductor)</title>
<path fill="none" stroke="black" stroke-width="0.14" d="M706.23,-510.65C719.66,-434.32 771.56,-139.38 787.93,-46.31"/>
<polygon fill="black" stroke="black" stroke-width="0.14" points="791.42,-46.68 789.71,-36.23 784.53,-45.47 791.42,-46.68"/>
<text text-anchor="middle" x="680.58" y="-282.28" font-family="Times,serif" font-size="14.00">copper&#45;plate*3120</text>
</g>
<!-- 2,5 (Simple Circuits) -->
<g id="node9" class="node">
<title>2,5 (Simple Circuits)</title>
<ellipse fill="none" stroke="black" cx="1154.18" cy="-272.92" rx="106.68" ry="18"/>
<text text-anchor="middle" x="1154.18" y="-269.22" font-family="Times,serif" font-size="14.00">2,5 (Simple Circuits)</text>
</g>
<!-- 3,9 (Copper, molten &amp; plate)&#45;&gt;2,5 (Simple Circuits) -->
<g id="edge8" class="edge">
<title>3,9 (Copper, molten &amp; plate)&#45;&gt;2,5 (Simple Circuits)</title>
<path fill="none" stroke="black" stroke-width="0.47" d="M734.04,-511.24C813.83,-465.98 1026.17,-345.53 1114.63,-295.35"/>
<polygon fill="black" stroke="black" stroke-width="0.47" points="1116.58,-298.27 1123.55,-290.29 1113.12,-292.18 1116.58,-298.27"/>
<text text-anchor="middle" x="853.34" y="-407.1" font-family="Times,serif" font-size="14.00">copper&#45;plate*10640</text>
</g>
</g>
</svg>
