<?xml version="1.0" encoding="UTF-8" standalone="no"?>
<!DOCTYPE svg PUBLIC "-//W3C//DTD SVG 1.1//EN"
 "http://www.w3.org/Graphics/SVG/1.1/DTD/svg11.dtd">
<!-- Generated by graphviz version 2.43.0 (0)
 -->
<!-- Title: %3 Pages: 1 -->
<svg width="1161pt" height="44pt"
 viewBox="0.00 0.00 1161.36 44.00" xmlns="http://www.w3.org/2000/svg" xmlns:xlink="http://www.w3.org/1999/xlink">
<g id="graph0" class="graph" transform="scale(1 1) rotate(0) translate(4 40)">
<title>%3</title>
<polygon fill="white" stroke="transparent" points="-4,4 -4,-40 1157.36,-40 1157.36,4 -4,4"/>
<!-- &#45;4,2 (This line not currently using manure, Ralesia seeds) -->
<g id="node1" class="node">
<title>&#45;4,2 (This line not currently using manure, Ralesia seeds)</title>
<ellipse fill="none" stroke="black" cx="627.05" cy="-18" rx="276.75" ry="18"/>
<text text-anchor="middle" x="627.05" y="-14.3" font-family="Times,serif" font-size="14.00">&#45;4,2 (This line not currently using manure, Ralesia seeds)</text>
</g>
<!-- &#45;4,1 () -->
<g id="node2" class="node">
<title>&#45;4,1 ()</title>
<ellipse fill="none" stroke="black" cx="1115.01" cy="-18" rx="38.19" ry="18"/>
<text text-anchor="middle" x="1115.01" y="-14.3" font-family="Times,serif" font-size="14.00">&#45;4,1 ()</text>
</g>
<!-- &#45;4,2 (This line not currently using manure, Ralesia seeds)&#45;&gt;&#45;4,1 () -->
<g id="edge1" class="edge">
<title>&#45;4,2 (This line not currently using manure, Ralesia seeds)&#45;&gt;&#45;4,1 ()</title>
<path fill="none" stroke="black" stroke-width="1.88" d="M904.18,-18C966.89,-18 1026.63,-18 1066.4,-18"/>
<polygon fill="black" stroke="black" stroke-width="1.88" points="1066.57,-21.5 1076.57,-18 1066.57,-14.5 1066.57,-21.5"/>
<text text-anchor="middle" x="985.29" y="-6.8" font-family="Times,serif" font-size="14.00">ralesia&#45;seeds*236224</text>
</g>
<!-- &#45;3,4 (Lard from Cottonguts) -->
<g id="node3" class="node">
<title>&#45;3,4 (Lard from Cottonguts)</title>
<ellipse fill="none" stroke="black" cx="139.09" cy="-18" rx="139.18" ry="18"/>
<text text-anchor="middle" x="139.09" y="-14.3" font-family="Times,serif" font-size="14.00">&#45;3,4 (Lard from Cottonguts)</text>
</g>
<!-- &#45;4,2 (This line not currently using manure, Ralesia seeds)&#45;&gt;&#45;3,4 (Lard from Cottonguts) -->
<g id="edge2" class="edge">
<title>&#45;4,2 (This line not currently using manure, Ralesia seeds)&#45;&gt;&#45;3,4 (Lard from Cottonguts)</title>
<path fill="none" stroke="black" stroke-width="0.12" d="M349.92,-18C328.88,-18 308.18,-18 288.45,-18"/>
<polygon fill="black" stroke="black" stroke-width="0.12" points="288.23,-14.5 278.23,-18 288.23,-21.5 288.23,-14.5"/>
<text text-anchor="middle" x="282.94" y="-6.8" font-family="Times,serif" font-size="14.00">ralesia&#45;seeds*15056</text>
</g>
</g>
</svg>
