<?xml version="1.0" encoding="UTF-8" standalone="no"?>
<!DOCTYPE svg PUBLIC "-//W3C//DTD SVG 1.1//EN"
 "http://www.w3.org/Graphics/SVG/1.1/DTD/svg11.dtd">
<!-- Generated by graphviz version 2.43.0 (0)
 -->
<!-- Title: %3 Pages: 1 -->
<svg width="752pt" height="44pt"
 viewBox="0.00 0.00 751.90 44.00" xmlns="http://www.w3.org/2000/svg" xmlns:xlink="http://www.w3.org/1999/xlink">
<g id="graph0" class="graph" transform="scale(1 1) rotate(0) translate(4 40)">
<title>%3</title>
<polygon fill="white" stroke="transparent" points="-4,4 -4,-40 747.9,-40 747.9,4 -4,4"/>
<!-- 5,5 (Silicon) -->
<g id="node1" class="node">
<title>5,5 (Silicon)</title>
<ellipse fill="none" stroke="black" cx="402.17" cy="-18" rx="66.09" ry="18"/>
<text text-anchor="middle" x="402.17" y="-14.3" font-family="Times,serif" font-size="14.00">5,5 (Silicon)</text>
</g>
<!-- 0,0 (LE BUS) -->
<g id="node2" class="node">
<title>0,0 (LE BUS)</title>
<ellipse fill="none" stroke="black" cx="672.4" cy="-18" rx="71.49" ry="18"/>
<text text-anchor="middle" x="672.4" y="-14.3" font-family="Times,serif" font-size="14.00">0,0 (LE BUS)</text>
</g>
<!-- 5,5 (Silicon)&#45;&gt;0,0 (LE BUS) -->
<g id="edge1" class="edge">
<title>5,5 (Silicon)&#45;&gt;0,0 (LE BUS)</title>
<path fill="none" stroke="black" stroke-width="1.23" d="M468.62,-18C505.35,-18 551.29,-18 590.25,-18"/>
<polygon fill="black" stroke="black" stroke-width="1.23" points="590.52,-21.5 600.52,-18 590.52,-14.5 590.52,-21.5"/>
<text text-anchor="middle" x="529.44" y="-6.8" font-family="Times,serif" font-size="14.00">silicon*20304</text>
</g>
<!-- 2,6 (Refined Syngas, Nisi) -->
<g id="node3" class="node">
<title>2,6 (Refined Syngas, Nisi)</title>
<ellipse fill="none" stroke="black" cx="131.94" cy="-18" rx="131.88" ry="18"/>
<text text-anchor="middle" x="131.94" y="-14.3" font-family="Times,serif" font-size="14.00">2,6 (Refined Syngas, Nisi)</text>
</g>
<!-- 5,5 (Silicon)&#45;&gt;2,6 (Refined Syngas, Nisi) -->
<g id="edge2" class="edge">
<title>5,5 (Silicon)&#45;&gt;2,6 (Refined Syngas, Nisi)</title>
<path fill="none" stroke="black" stroke-width="0.77" d="M335.72,-18C316.9,-18 295.66,-18 274.18,-18"/>
<polygon fill="black" stroke="black" stroke-width="0.77" points="273.96,-14.5 263.96,-18 273.96,-21.5 273.96,-14.5"/>
<text text-anchor="middle" x="280.45" y="-6.8" font-family="Times,serif" font-size="14.00">silicon*12768</text>
</g>
</g>
</svg>
