<?xml version="1.0" encoding="UTF-8" standalone="no"?>
<!DOCTYPE svg PUBLIC "-//W3C//DTD SVG 1.1//EN"
 "http://www.w3.org/Graphics/SVG/1.1/DTD/svg11.dtd">
<!-- Generated by graphviz version 2.43.0 (0)
 -->
<!-- Title: %3 Pages: 1 -->
<svg width="819pt" height="44pt"
 viewBox="0.00 0.00 819.49 44.00" xmlns="http://www.w3.org/2000/svg" xmlns:xlink="http://www.w3.org/1999/xlink">
<g id="graph0" class="graph" transform="scale(1 1) rotate(0) translate(4 40)">
<title>%3</title>
<polygon fill="white" stroke="transparent" points="-4,4 -4,-40 815.49,-40 815.49,4 -4,4"/>
<!-- &#45;1,11 (Steel Plate (from molten)) -->
<g id="node1" class="node">
<title>&#45;1,11 (Steel Plate (from molten))</title>
<ellipse fill="none" stroke="black" cx="395.02" cy="-18" rx="161.37" ry="18"/>
<text text-anchor="middle" x="395.02" y="-14.3" font-family="Times,serif" font-size="14.00">&#45;1,11 (Steel Plate (from molten))</text>
</g>
<!-- 1,9 (Ammunition) -->
<g id="node2" class="node">
<title>1,9 (Ammunition)</title>
<ellipse fill="none" stroke="black" cx="719.85" cy="-18" rx="91.78" ry="18"/>
<text text-anchor="middle" x="719.85" y="-14.3" font-family="Times,serif" font-size="14.00">1,9 (Ammunition)</text>
</g>
<!-- &#45;1,11 (Steel Plate (from molten))&#45;&gt;1,9 (Ammunition) -->
<g id="edge1" class="edge">
<title>&#45;1,11 (Steel Plate (from molten))&#45;&gt;1,9 (Ammunition)</title>
<path fill="none" stroke="black" stroke-width="0.62" d="M556.48,-18C577.36,-18 598.27,-18 617.81,-18"/>
<polygon fill="black" stroke="black" stroke-width="0.62" points="617.9,-21.5 627.9,-18 617.9,-14.5 617.9,-21.5"/>
<text text-anchor="middle" x="587.15" y="-6.8" font-family="Times,serif" font-size="14.00">steel&#45;plate*22304</text>
</g>
<!-- &#45;2,&#45;3 (Trains) -->
<g id="node3" class="node">
<title>&#45;2,&#45;3 (Trains)</title>
<ellipse fill="none" stroke="black" cx="70.19" cy="-18" rx="70.39" ry="18"/>
<text text-anchor="middle" x="70.19" y="-14.3" font-family="Times,serif" font-size="14.00">&#45;2,&#45;3 (Trains)</text>
</g>
<!-- &#45;1,11 (Steel Plate (from molten))&#45;&gt;&#45;2,&#45;3 (Trains) -->
<g id="edge2" class="edge">
<title>&#45;1,11 (Steel Plate (from molten))&#45;&gt;&#45;2,&#45;3 (Trains)</title>
<path fill="none" stroke="black" stroke-width="1.38" d="M233.56,-18C204.87,-18 176.14,-18 150.96,-18"/>
<polygon fill="black" stroke="black" stroke-width="1.38" points="150.76,-14.5 140.76,-18 150.76,-21.5 150.76,-14.5"/>
<text text-anchor="middle" x="160.51" y="-6.8" font-family="Times,serif" font-size="14.00">steel&#45;plate*50224</text>
</g>
</g>
</svg>
