<?xml version="1.0" encoding="UTF-8" standalone="no"?>
<!DOCTYPE svg PUBLIC "-//W3C//DTD SVG 1.1//EN"
 "http://www.w3.org/Graphics/SVG/1.1/DTD/svg11.dtd">
<!-- Generated by graphviz version 2.43.0 (0)
 -->
<!-- Title: %3 Pages: 1 -->
<svg width="826pt" height="693pt"
 viewBox="0.00 0.00 825.77 693.43" xmlns="http://www.w3.org/2000/svg" xmlns:xlink="http://www.w3.org/1999/xlink">
<g id="graph0" class="graph" transform="scale(1 1) rotate(0) translate(4 689.43)">
<title>%3</title>
<polygon fill="white" stroke="transparent" points="-4,4 -4,-689.43 821.77,-689.43 821.77,4 -4,4"/>
<!-- 4,&#45;2 (Ceramic) -->
<g id="node1" class="node">
<title>4,&#45;2 (Ceramic)</title>
<ellipse fill="none" stroke="black" cx="421.56" cy="-18" rx="76.89" ry="18"/>
<text text-anchor="middle" x="421.56" y="-14.3" font-family="Times,serif" font-size="14.00">4,&#45;2 (Ceramic)</text>
</g>
<!-- 2,10 (Nickel plate) -->
<g id="node2" class="node">
<title>2,10 (Nickel plate)</title>
<ellipse fill="none" stroke="black" cx="96.84" cy="-342.72" rx="96.68" ry="18"/>
<text text-anchor="middle" x="96.84" y="-339.02" font-family="Times,serif" font-size="14.00">2,10 (Nickel plate)</text>
</g>
<!-- 4,&#45;2 (Ceramic)&#45;&gt;2,10 (Nickel plate) -->
<g id="edge1" class="edge">
<title>4,&#45;2 (Ceramic)&#45;&gt;2,10 (Nickel plate)</title>
<path fill="none" stroke="black" stroke-width="2.86" d="M403.64,-35.92C349.08,-90.47 184.93,-254.63 121.88,-317.68"/>
<polygon fill="black" stroke="black" stroke-width="2.86" points="119.3,-315.3 114.71,-324.85 124.25,-320.25 119.3,-315.3"/>
<text text-anchor="middle" x="197.26" y="-180.6" font-family="Times,serif" font-size="14.00">ore&#45;nickel*183872</text>
</g>
<!-- 0,0 (LE BUS) -->
<g id="node4" class="node">
<title>0,0 (LE BUS)</title>
<ellipse fill="none" stroke="black" cx="746.27" cy="-342.72" rx="71.49" ry="18"/>
<text text-anchor="middle" x="746.27" y="-339.02" font-family="Times,serif" font-size="14.00">0,0 (LE BUS)</text>
</g>
<!-- 4,&#45;2 (Ceramic)&#45;&gt;0,0 (LE BUS) -->
<g id="edge3" class="edge">
<title>4,&#45;2 (Ceramic)&#45;&gt;0,0 (LE BUS)</title>
<path fill="none" stroke="black" stroke-width="0.13" d="M439.48,-35.92C494.16,-90.6 658.95,-255.4 721.67,-318.12"/>
<polygon fill="black" stroke="black" stroke-width="0.13" points="719.26,-320.65 728.8,-325.25 724.21,-315.7 719.26,-320.65"/>
<text text-anchor="middle" x="524.08" y="-180.82" font-family="Times,serif" font-size="14.00">ore&#45;nickel*8320</text>
</g>
<!-- &#45;3,&#45;1 (item=boron&#45;trioxide Boron products 2) -->
<g id="node3" class="node">
<title>&#45;3,&#45;1 (item=boron&#45;trioxide Boron products 2)</title>
<ellipse fill="none" stroke="black" cx="421.56" cy="-667.43" rx="219.06" ry="18"/>
<text text-anchor="middle" x="421.56" y="-663.73" font-family="Times,serif" font-size="14.00">&#45;3,&#45;1 (item=boron&#45;trioxide Boron products 2)</text>
</g>
<!-- &#45;3,&#45;1 (item=boron&#45;trioxide Boron products 2)&#45;&gt;2,10 (Nickel plate) -->
<g id="edge2" class="edge">
<title>&#45;3,&#45;1 (item=boron&#45;trioxide Boron products 2)&#45;&gt;2,10 (Nickel plate)</title>
<path fill="none" stroke="black" stroke-width="0.95" d="M403.17,-649.04C348.12,-593.99 184.56,-430.44 121.77,-367.65"/>
<polygon fill="black" stroke="black" stroke-width="0.95" points="124.18,-365.1 114.63,-360.5 119.23,-370.05 124.18,-365.1"/>
<text text-anchor="middle" x="201.47" y="-512.14" font-family="Times,serif" font-size="14.00">ore&#45;nickel*60720</text>
</g>
<!-- &#45;3,&#45;1 (item=boron&#45;trioxide Boron products 2)&#45;&gt;0,0 (LE BUS) -->
<g id="edge4" class="edge">
<title>&#45;3,&#45;1 (item=boron&#45;trioxide Boron products 2)&#45;&gt;0,0 (LE BUS)</title>
<path fill="none" stroke="black" stroke-width="0.06" d="M439.94,-649.04C494.99,-593.99 658.55,-430.44 721.34,-367.65"/>
<polygon fill="black" stroke="black" stroke-width="0.06" points="723.89,-370.05 728.48,-360.5 718.94,-365.1 723.89,-370.05"/>
<text text-anchor="middle" x="524.14" y="-512.14" font-family="Times,serif" font-size="14.00">ore&#45;nickel*4096</text>
</g>
</g>
</svg>
