<?xml version="1.0" encoding="UTF-8" standalone="no"?>
<!DOCTYPE svg PUBLIC "-//W3C//DTD SVG 1.1//EN"
 "http://www.w3.org/Graphics/SVG/1.1/DTD/svg11.dtd">
<!-- Generated by graphviz version 2.43.0 (0)
 -->
<!-- Title: %3 Pages: 1 -->
<svg width="1349pt" height="1038pt"
 viewBox="0.00 0.00 1349.47 1037.59" xmlns="http://www.w3.org/2000/svg" xmlns:xlink="http://www.w3.org/1999/xlink">
<g id="graph0" class="graph" transform="scale(1 1) rotate(0) translate(4 1033.59)">
<title>%3</title>
<polygon fill="white" stroke="transparent" points="-4,4 -4,-1033.59 1345.47,-1033.59 1345.47,4 -4,4"/>
<!-- 5,13 (Moss (from nothing)) -->
<g id="node1" class="node">
<title>5,13 (Moss (from nothing))</title>
<ellipse fill="none" stroke="black" cx="710.52" cy="-560.72" rx="135.68" ry="18"/>
<text text-anchor="middle" x="710.52" y="-557.02" font-family="Times,serif" font-size="14.00">5,13 (Moss (from nothing))</text>
</g>
<!-- &#45;3,8 (Urea) -->
<g id="node2" class="node">
<title>&#45;3,8 (Urea)</title>
<ellipse fill="none" stroke="black" cx="1280.37" cy="-560.72" rx="61.19" ry="18"/>
<text text-anchor="middle" x="1280.37" y="-557.02" font-family="Times,serif" font-size="14.00">&#45;3,8 (Urea)</text>
</g>
<!-- 5,13 (Moss (from nothing))&#45;&gt;&#45;3,8 (Urea) -->
<g id="edge1" class="edge">
<title>5,13 (Moss (from nothing))&#45;&gt;&#45;3,8 (Urea)</title>
<path fill="none" stroke="black" stroke-width="1.02" d="M846.65,-560.72C960.46,-560.72 1118.3,-560.72 1208.83,-560.72"/>
<polygon fill="black" stroke="black" stroke-width="1.02" points="1208.99,-564.22 1218.99,-560.72 1208.99,-557.22 1208.99,-564.22"/>
<text text-anchor="middle" x="983.24" y="-564.52" font-family="Times,serif" font-size="14.00">moss*34720</text>
</g>
<!-- 0,9 (Auog Brains) -->
<g id="node3" class="node">
<title>0,9 (Auog Brains)</title>
<ellipse fill="none" stroke="black" cx="1086.45" cy="-988.99" rx="91.78" ry="18"/>
<text text-anchor="middle" x="1086.45" y="-985.29" font-family="Times,serif" font-size="14.00">0,9 (Auog Brains)</text>
</g>
<!-- 5,13 (Moss (from nothing))&#45;&gt;0,9 (Auog Brains) -->
<g id="edge2" class="edge">
<title>5,13 (Moss (from nothing))&#45;&gt;0,9 (Auog Brains)</title>
<path fill="none" stroke="black" stroke-width="1.58" d="M726.43,-578.85C785.88,-646.58 995.06,-884.88 1064.13,-963.56"/>
<polygon fill="black" stroke="black" stroke-width="1.58" points="1061.52,-965.89 1070.74,-971.09 1066.78,-961.27 1061.52,-965.89"/>
<text text-anchor="middle" x="850.78" y="-775.01" font-family="Times,serif" font-size="14.00">moss*53488</text>
</g>
<!-- &#45;7,&#45;4 (Isomer&#39;s Slaughterhouse and Daycare Centre, Bone Meal, Auog theft) -->
<g id="node4" class="node">
<title>&#45;7,&#45;4 (Isomer&#39;s Slaughterhouse and Daycare Centre, Bone Meal, Auog theft)</title>
<ellipse fill="none" stroke="black" cx="362.02" cy="-1011.59" rx="362.04" ry="18"/>
<text text-anchor="middle" x="362.02" y="-1007.89" font-family="Times,serif" font-size="14.00">&#45;7,&#45;4 (Isomer&#39;s Slaughterhouse and Daycare Centre, Bone Meal, Auog theft)</text>
</g>
<!-- 5,13 (Moss (from nothing))&#45;&gt;&#45;7,&#45;4 (Isomer&#39;s Slaughterhouse and Daycare Centre, Bone Meal, Auog theft) -->
<g id="edge3" class="edge">
<title>5,13 (Moss (from nothing))&#45;&gt;&#45;7,&#45;4 (Isomer&#39;s Slaughterhouse and Daycare Centre, Bone Meal, Auog theft)</title>
<path fill="none" stroke="black" stroke-width="1.14" d="M696.64,-578.68C642.6,-648.59 446.05,-902.88 382.2,-985.48"/>
<polygon fill="black" stroke="black" stroke-width="1.14" points="379.28,-983.54 375.93,-993.59 384.82,-987.82 379.28,-983.54"/>
<text text-anchor="middle" x="494.92" y="-785.88" font-family="Times,serif" font-size="14.00">moss*38496</text>
</g>
<!-- 0,10 (item=meat Meat) -->
<g id="node5" class="node">
<title>0,10 (item=meat Meat)</title>
<ellipse fill="none" stroke="black" cx="214.82" cy="-279.62" rx="120.48" ry="18"/>
<text text-anchor="middle" x="214.82" y="-275.92" font-family="Times,serif" font-size="14.00">0,10 (item=meat Meat)</text>
</g>
<!-- 5,13 (Moss (from nothing))&#45;&gt;0,10 (item=meat Meat) -->
<g id="edge4" class="edge">
<title>5,13 (Moss (from nothing))&#45;&gt;0,10 (item=meat Meat)</title>
<path fill="none" stroke="black" stroke-width="1.08" d="M679.51,-543.14C593.27,-494.23 350.64,-356.64 254.64,-302.2"/>
<polygon fill="black" stroke="black" stroke-width="1.08" points="256.24,-299.09 245.81,-297.2 252.79,-305.18 256.24,-299.09"/>
<text text-anchor="middle" x="422.57" y="-426.47" font-family="Times,serif" font-size="14.00">moss*36736</text>
</g>
<!-- &#45;1,6 (Flimble&#39;s Slaughterhouse and Daycare Centre, Auog Products) -->
<g id="node6" class="node">
<title>&#45;1,6 (Flimble&#39;s Slaughterhouse and Daycare Centre, Auog Products)</title>
<ellipse fill="none" stroke="black" cx="884.26" cy="-18" rx="325.74" ry="18"/>
<text text-anchor="middle" x="884.26" y="-14.3" font-family="Times,serif" font-size="14.00">&#45;1,6 (Flimble&#39;s Slaughterhouse and Daycare Centre, Auog Products)</text>
</g>
<!-- 5,13 (Moss (from nothing))&#45;&gt;&#45;1,6 (Flimble&#39;s Slaughterhouse and Daycare Centre, Auog Products) -->
<g id="edge5" class="edge">
<title>5,13 (Moss (from nothing))&#45;&gt;&#45;1,6 (Flimble&#39;s Slaughterhouse and Daycare Centre, Auog Products)</title>
<path fill="none" stroke="black" stroke-width="0.18" d="M716.3,-542.67C741.81,-462.99 844.4,-142.52 875.37,-45.79"/>
<polygon fill="black" stroke="black" stroke-width="0.18" points="878.74,-46.72 878.46,-36.13 872.08,-44.58 878.74,-46.72"/>
<text text-anchor="middle" x="755.83" y="-298.03" font-family="Times,serif" font-size="14.00">moss*6032</text>
</g>
</g>
</svg>
