<?xml version="1.0" encoding="UTF-8" standalone="no"?>
<!DOCTYPE svg PUBLIC "-//W3C//DTD SVG 1.1//EN"
 "http://www.w3.org/Graphics/SVG/1.1/DTD/svg11.dtd">
<!-- Generated by graphviz version 2.43.0 (0)
 -->
<!-- Title: %3 Pages: 1 -->
<svg width="1221pt" height="44pt"
 viewBox="0.00 0.00 1220.51 44.00" xmlns="http://www.w3.org/2000/svg" xmlns:xlink="http://www.w3.org/1999/xlink">
<g id="graph0" class="graph" transform="scale(1 1) rotate(0) translate(4 40)">
<title>%3</title>
<polygon fill="white" stroke="transparent" points="-4,4 -4,-40 1216.51,-40 1216.51,4 -4,4"/>
<!-- 2,10 (Nickel plate) -->
<g id="node1" class="node">
<title>2,10 (Nickel plate)</title>
<ellipse fill="none" stroke="black" cx="501.61" cy="-18" rx="96.68" ry="18"/>
<text text-anchor="middle" x="501.61" y="-14.3" font-family="Times,serif" font-size="14.00">2,10 (Nickel plate)</text>
</g>
<!-- 4,4 (Hydrogen Chloride, item=nylon Nylon/Nylon parts) -->
<g id="node2" class="node">
<title>4,4 (Hydrogen Chloride, item=nylon Nylon/Nylon parts)</title>
<ellipse fill="none" stroke="black" cx="941.48" cy="-18" rx="271.05" ry="18"/>
<text text-anchor="middle" x="941.48" y="-14.3" font-family="Times,serif" font-size="14.00">4,4 (Hydrogen Chloride, item=nylon Nylon/Nylon parts)</text>
</g>
<!-- 2,10 (Nickel plate)&#45;&gt;4,4 (Hydrogen Chloride, item=nylon Nylon/Nylon parts) -->
<g id="edge1" class="edge">
<title>2,10 (Nickel plate)&#45;&gt;4,4 (Hydrogen Chloride, item=nylon Nylon/Nylon parts)</title>
<path fill="none" stroke="black" stroke-width="1.02" d="M598.69,-18C617.58,-18 638.25,-18 659.79,-18"/>
<polygon fill="black" stroke="black" stroke-width="1.02" points="660.08,-21.5 670.08,-18 660.08,-14.5 660.08,-21.5"/>
<text text-anchor="middle" x="629.24" y="-6.8" font-family="Times,serif" font-size="14.00">nichrome*4160</text>
</g>
<!-- 4,&#45;1 (Fluid) -->
<g id="node3" class="node">
<title>4,&#45;1 (Fluid)</title>
<ellipse fill="none" stroke="black" cx="61.74" cy="-18" rx="61.99" ry="18"/>
<text text-anchor="middle" x="61.74" y="-14.3" font-family="Times,serif" font-size="14.00">4,&#45;1 (Fluid)</text>
</g>
<!-- 2,10 (Nickel plate)&#45;&gt;4,&#45;1 (Fluid) -->
<g id="edge2" class="edge">
<title>2,10 (Nickel plate)&#45;&gt;4,&#45;1 (Fluid)</title>
<path fill="none" stroke="black" stroke-width="0.98" d="M404.54,-18C322.74,-18 207.57,-18 133.78,-18"/>
<polygon fill="black" stroke="black" stroke-width="0.98" points="133.65,-14.5 123.65,-18 133.65,-21.5 133.65,-14.5"/>
<text text-anchor="middle" x="214.16" y="-21.8" font-family="Times,serif" font-size="14.00">nichrome*4023</text>
</g>
</g>
</svg>
