<?xml version="1.0" encoding="UTF-8" standalone="no"?>
<!DOCTYPE svg PUBLIC "-//W3C//DTD SVG 1.1//EN"
 "http://www.w3.org/Graphics/SVG/1.1/DTD/svg11.dtd">
<!-- Generated by graphviz version 2.43.0 (0)
 -->
<!-- Title: %3 Pages: 1 -->
<svg width="1048pt" height="44pt"
 viewBox="0.00 0.00 1047.62 44.00" xmlns="http://www.w3.org/2000/svg" xmlns:xlink="http://www.w3.org/1999/xlink">
<g id="graph0" class="graph" transform="scale(1 1) rotate(0) translate(4 40)">
<title>%3</title>
<polygon fill="white" stroke="transparent" points="-4,4 -4,-40 1043.62,-40 1043.62,4 -4,4"/>
<!-- 4,6 (Circuit substrate and Doped silicon) -->
<g id="node1" class="node">
<title>4,6 (Circuit substrate and Doped silicon)</title>
<ellipse fill="none" stroke="black" cx="554.91" cy="-18" rx="199.56" ry="18"/>
<text text-anchor="middle" x="554.91" y="-14.3" font-family="Times,serif" font-size="14.00">4,6 (Circuit substrate and Doped silicon)</text>
</g>
<!-- 0,0 (LE BUS) -->
<g id="node2" class="node">
<title>0,0 (LE BUS)</title>
<ellipse fill="none" stroke="black" cx="968.13" cy="-18" rx="71.49" ry="18"/>
<text text-anchor="middle" x="968.13" y="-14.3" font-family="Times,serif" font-size="14.00">0,0 (LE BUS)</text>
</g>
<!-- 4,6 (Circuit substrate and Doped silicon)&#45;&gt;0,0 (LE BUS) -->
<g id="edge1" class="edge">
<title>4,6 (Circuit substrate and Doped silicon)&#45;&gt;0,0 (LE BUS)</title>
<path fill="none" stroke="black" stroke-width="0.7" d="M754.56,-18C800.92,-18 847.75,-18 885.7,-18"/>
<polygon fill="black" stroke="black" stroke-width="0.7" points="886.16,-21.5 896.16,-18 886.16,-14.5 886.16,-21.5"/>
<text text-anchor="middle" x="845.13" y="-6.8" font-family="Times,serif" font-size="14.00">p&#45;dope*12192</text>
</g>
<!-- 6,4 (Electronic components) -->
<g id="node3" class="node">
<title>6,4 (Electronic components)</title>
<ellipse fill="none" stroke="black" cx="141.69" cy="-18" rx="141.88" ry="18"/>
<text text-anchor="middle" x="141.69" y="-14.3" font-family="Times,serif" font-size="14.00">6,4 (Electronic components)</text>
</g>
<!-- 4,6 (Circuit substrate and Doped silicon)&#45;&gt;6,4 (Electronic components) -->
<g id="edge2" class="edge">
<title>4,6 (Circuit substrate and Doped silicon)&#45;&gt;6,4 (Electronic components)</title>
<path fill="none" stroke="black" stroke-width="1.3" d="M355.26,-18C334.53,-18 313.71,-18 293.63,-18"/>
<polygon fill="black" stroke="black" stroke-width="1.3" points="293.52,-14.5 283.52,-18 293.52,-21.5 293.52,-14.5"/>
<text text-anchor="middle" x="299.45" y="-6.8" font-family="Times,serif" font-size="14.00">p&#45;dope*22848</text>
</g>
</g>
</svg>
