<?xml version="1.0" encoding="UTF-8" standalone="no"?>
<!DOCTYPE svg PUBLIC "-//W3C//DTD SVG 1.1//EN"
 "http://www.w3.org/Graphics/SVG/1.1/DTD/svg11.dtd">
<!-- Generated by graphviz version 2.43.0 (0)
 -->
<!-- Title: %3 Pages: 1 -->
<svg width="5751pt" height="5170pt"
 viewBox="0.00 0.00 5750.74 5169.57" xmlns="http://www.w3.org/2000/svg" xmlns:xlink="http://www.w3.org/1999/xlink">
<g id="graph0" class="graph" transform="scale(1 1) rotate(0) translate(4 5165.57)">
<title>%3</title>
<polygon fill="white" stroke="transparent" points="-4,4 -4,-5165.57 5746.74,-5165.57 5746.74,4 -4,4"/>
<!-- 2,8 (Graphite) -->
<g id="node1" class="node">
<title>2,8 (Graphite)</title>
<ellipse fill="none" stroke="black" cx="5383.47" cy="-2580.79" rx="76.09" ry="18"/>
<text text-anchor="middle" x="5383.47" y="-2577.09" font-family="Times,serif" font-size="14.00">2,8 (Graphite)</text>
</g>
<!-- 0,8 (Tar from Coke) -->
<g id="node2" class="node">
<title>0,8 (Tar from Coke)</title>
<ellipse fill="none" stroke="black" cx="1518.11" cy="-349.12" rx="100.98" ry="18"/>
<text text-anchor="middle" x="1518.11" y="-345.42" font-family="Times,serif" font-size="14.00">0,8 (Tar from Coke)</text>
</g>
<!-- 2,8 (Graphite)&#45;&gt;0,8 (Tar from Coke) -->
<g id="edge1" class="edge">
<title>2,8 (Graphite)&#45;&gt;0,8 (Tar from Coke)</title>
<path fill="none" stroke="black" stroke-width="3.62" d="M5354.58,-2564.11C5022.81,-2372.56 1938.35,-591.75 1556.78,-371.44"/>
<polygon fill="black" stroke="black" stroke-width="3.62" points="1558.43,-368.36 1548.02,-366.39 1554.93,-374.42 1558.43,-368.36"/>
<text text-anchor="middle" x="3413.18" y="-1471.58" font-family="Times,serif" font-size="14.00">coke*56751</text>
</g>
<!-- &#45;2,9 (molten steel) -->
<g id="node6" class="node">
<title>&#45;2,9 (molten steel)</title>
<ellipse fill="none" stroke="black" cx="285.97" cy="-3116.55" rx="95.58" ry="18"/>
<text text-anchor="middle" x="285.97" y="-3112.85" font-family="Times,serif" font-size="14.00">&#45;2,9 (molten steel)</text>
</g>
<!-- 2,8 (Graphite)&#45;&gt;&#45;2,9 (molten steel) -->
<g id="edge4" class="edge">
<title>2,8 (Graphite)&#45;&gt;&#45;2,9 (molten steel)</title>
<path fill="none" stroke="black" stroke-width="1.41" d="M5313.83,-2588.11C4756.2,-2646.72 1021.51,-3039.25 379.76,-3106.7"/>
<polygon fill="black" stroke="black" stroke-width="1.41" points="379.21,-3103.24 369.63,-3107.76 379.94,-3110.2 379.21,-3103.24"/>
<text text-anchor="middle" x="2804.29" y="-2851.2" font-family="Times,serif" font-size="14.00">coke*22051</text>
</g>
<!-- &#45;2,6 (Wrong ratio of Calcium Carbide to Acetalene) -->
<g id="node8" class="node">
<title>&#45;2,6 (Wrong ratio of Calcium Carbide to Acetalene)</title>
<ellipse fill="none" stroke="black" cx="5160.68" cy="-3628.91" rx="245.86" ry="18"/>
<text text-anchor="middle" x="5160.68" y="-3625.21" font-family="Times,serif" font-size="14.00">&#45;2,6 (Wrong ratio of Calcium Carbide to Acetalene)</text>
</g>
<!-- 2,8 (Graphite)&#45;&gt;&#45;2,6 (Wrong ratio of Calcium Carbide to Acetalene) -->
<g id="edge10" class="edge">
<title>2,8 (Graphite)&#45;&gt;&#45;2,6 (Wrong ratio of Calcium Carbide to Acetalene)</title>
<path fill="none" stroke="black" stroke-width="7.35" d="M5379.6,-2598.98C5353.17,-2723.35 5199.17,-3447.85 5166.69,-3600.63"/>
<polygon fill="black" stroke="black" stroke-width="7.35" points="5160.36,-3599.51 5164.57,-3610.63 5172.94,-3602.18 5160.36,-3599.51"/>
<text text-anchor="middle" x="5226.15" y="-3103.6" font-family="Times,serif" font-size="14.00">coke*115344</text>
</g>
<!-- &#45;4,&#45;2 (For Science!) -->
<g id="node10" class="node">
<title>&#45;4,&#45;2 (For Science!)</title>
<ellipse fill="none" stroke="black" cx="4530.85" cy="-4495.8" rx="98.58" ry="18"/>
<text text-anchor="middle" x="4530.85" y="-4492.1" font-family="Times,serif" font-size="14.00">&#45;4,&#45;2 (For Science!)</text>
</g>
<!-- 2,8 (Graphite)&#45;&gt;&#45;4,&#45;2 (For Science!) -->
<g id="edge27" class="edge">
<title>2,8 (Graphite)&#45;&gt;&#45;4,&#45;2 (For Science!)</title>
<path fill="none" stroke="black" stroke-width="0.13" d="M5375.44,-2598.82C5295.31,-2778.8 4640.44,-4249.65 4542.97,-4468.59"/>
<polygon fill="black" stroke="black" stroke-width="0.13" points="4539.74,-4467.23 4538.87,-4477.79 4546.13,-4470.08 4539.74,-4467.23"/>
<text text-anchor="middle" x="4921.2" y="-3537.51" font-family="Times,serif" font-size="14.00">coke*2080</text>
</g>
<!-- 4,&#45;2 (Ceramic) -->
<g id="node15" class="node">
<title>4,&#45;2 (Ceramic)</title>
<ellipse fill="none" stroke="black" cx="5160.68" cy="-1532.67" rx="76.89" ry="18"/>
<text text-anchor="middle" x="5160.68" y="-1528.97" font-family="Times,serif" font-size="14.00">4,&#45;2 (Ceramic)</text>
</g>
<!-- 2,8 (Graphite)&#45;&gt;4,&#45;2 (Ceramic) -->
<g id="edge21" class="edge">
<title>2,8 (Graphite)&#45;&gt;4,&#45;2 (Ceramic)</title>
<path fill="none" stroke="black" stroke-width="0.13" d="M5379.6,-2562.59C5353.17,-2438.22 5199.17,-1713.72 5166.69,-1560.94"/>
<polygon fill="black" stroke="black" stroke-width="0.13" points="5170.07,-1560 5164.57,-1550.95 5163.23,-1561.46 5170.07,-1560"/>
<text text-anchor="middle" x="5235.15" y="-2065.57" font-family="Times,serif" font-size="14.00">coke*2024</text>
</g>
<!-- 3,9 (Copper, molten &amp; plate) -->
<g id="node17" class="node">
<title>3,9 (Copper, molten &amp; plate)</title>
<ellipse fill="none" stroke="black" cx="5599.11" cy="-2580.79" rx="143.77" ry="18"/>
<text text-anchor="middle" x="5599.11" y="-2577.09" font-family="Times,serif" font-size="14.00">3,9 (Copper, molten &amp; plate)</text>
</g>
<!-- 2,8 (Graphite)&#45;&gt;3,9 (Copper, molten &amp; plate) -->
<g id="edge30" class="edge">
<title>2,8 (Graphite)&#45;&gt;3,9 (Copper, molten &amp; plate)</title>
<path fill="none" stroke="black" stroke-width="0.64" d="M5459.8,-2580.79C5459.86,-2580.79 5459.92,-2580.79 5459.98,-2580.79"/>
<polygon fill="black" stroke="black" stroke-width="0.64" points="5450.16,-2584.29 5460.16,-2580.79 5450.16,-2577.29 5450.16,-2584.29"/>
<text text-anchor="middle" x="5502.39" y="-2584.59" font-family="Times,serif" font-size="14.00">coke*10088</text>
</g>
<!-- 2,12 (Yet more coke) -->
<g id="node3" class="node">
<title>2,12 (Yet more coke)</title>
<ellipse fill="none" stroke="black" cx="721.81" cy="-4095.45" rx="106.68" ry="18"/>
<text text-anchor="middle" x="721.81" y="-4091.75" font-family="Times,serif" font-size="14.00">2,12 (Yet more coke)</text>
</g>
<!-- 2,12 (Yet more coke)&#45;&gt;0,8 (Tar from Coke) -->
<g id="edge5" class="edge">
<title>2,12 (Yet more coke)&#45;&gt;0,8 (Tar from Coke)</title>
<path fill="none" stroke="black" stroke-width="1.35" d="M725.72,-4077.06C782.59,-3809.48 1442.05,-706.98 1512.1,-377.42"/>
<polygon fill="black" stroke="black" stroke-width="1.35" points="1515.6,-377.78 1514.26,-367.27 1508.75,-376.32 1515.6,-377.78"/>
<text text-anchor="middle" x="1076.41" y="-2231.04" font-family="Times,serif" font-size="14.00">coke*21184</text>
</g>
<!-- &#45;5,&#45;4 (low priority (slaked)? lime) -->
<g id="node4" class="node">
<title>&#45;5,&#45;4 (low priority (slaked)? lime)</title>
<ellipse fill="none" stroke="black" cx="2537.21" cy="-18" rx="162.47" ry="18"/>
<text text-anchor="middle" x="2537.21" y="-14.3" font-family="Times,serif" font-size="14.00">&#45;5,&#45;4 (low priority (slaked)? lime)</text>
</g>
<!-- 2,12 (Yet more coke)&#45;&gt;&#45;5,&#45;4 (low priority (slaked)? lime) -->
<g id="edge2" class="edge">
<title>2,12 (Yet more coke)&#45;&gt;&#45;5,&#45;4 (low priority (slaked)? lime)</title>
<path fill="none" stroke="black" stroke-width="0.28" d="M729.9,-4077.27C854.33,-3797.8 2373.76,-385.1 2525.09,-45.22"/>
<polygon fill="black" stroke="black" stroke-width="0.28" points="2528.29,-46.63 2529.16,-36.07 2521.9,-43.78 2528.29,-46.63"/>
<text text-anchor="middle" x="1589.49" y="-2065.05" font-family="Times,serif" font-size="14.00">coke*4352</text>
</g>
<!-- 2,12 (Yet more coke)&#45;&gt;&#45;2,9 (molten steel) -->
<g id="edge9" class="edge">
<title>2,12 (Yet more coke)&#45;&gt;&#45;2,9 (molten steel)</title>
<path fill="none" stroke="black" stroke-width="0.54" d="M713.68,-4077.2C660.54,-3957.84 362.72,-3288.94 298.27,-3144.18"/>
<polygon fill="black" stroke="black" stroke-width="0.54" points="301.31,-3142.39 294.04,-3134.68 294.91,-3145.24 301.31,-3142.39"/>
<text text-anchor="middle" x="467.98" y="-3614.49" font-family="Times,serif" font-size="14.00">coke*8512</text>
</g>
<!-- 2,5 (Simple Circuits) -->
<g id="node11" class="node">
<title>2,5 (Simple Circuits)</title>
<ellipse fill="none" stroke="black" cx="1518.11" cy="-4812.45" rx="106.68" ry="18"/>
<text text-anchor="middle" x="1518.11" y="-4808.75" font-family="Times,serif" font-size="14.00">2,5 (Simple Circuits)</text>
</g>
<!-- 2,12 (Yet more coke)&#45;&gt;2,5 (Simple Circuits) -->
<g id="edge16" class="edge">
<title>2,12 (Yet more coke)&#45;&gt;2,5 (Simple Circuits)</title>
<path fill="none" stroke="black" stroke-width="0.07" d="M741.49,-4113.18C849.06,-4210.03 1365.53,-4675.07 1490.73,-4787.8"/>
<polygon fill="black" stroke="black" stroke-width="0.07" points="1488.63,-4790.61 1498.41,-4794.7 1493.32,-4785.41 1488.63,-4790.61"/>
<text text-anchor="middle" x="1078.11" y="-4454.29" font-family="Times,serif" font-size="14.00">coke*1024</text>
</g>
<!-- 6,4 (Electronic components) -->
<g id="node13" class="node">
<title>6,4 (Electronic components)</title>
<ellipse fill="none" stroke="black" cx="2537.21" cy="-5143.57" rx="141.88" ry="18"/>
<text text-anchor="middle" x="2537.21" y="-5139.87" font-family="Times,serif" font-size="14.00">6,4 (Electronic components)</text>
</g>
<!-- 2,12 (Yet more coke)&#45;&gt;6,4 (Electronic components) -->
<g id="edge23" class="edge">
<title>2,12 (Yet more coke)&#45;&gt;6,4 (Electronic components)</title>
<path fill="none" stroke="black" stroke-width="0.29" d="M751.8,-4112.77C965.38,-4236.08 2254.31,-4980.24 2497.61,-5120.71"/>
<polygon fill="black" stroke="black" stroke-width="0.29" points="2496.06,-5123.86 2506.47,-5125.83 2499.56,-5117.8 2496.06,-5123.86"/>
<text text-anchor="middle" x="1586.7" y="-4620.54" font-family="Times,serif" font-size="14.00">coke*4576</text>
</g>
<!-- 3,16 (More Coke) -->
<g id="node5" class="node">
<title>3,16 (More Coke)</title>
<ellipse fill="none" stroke="black" cx="721.81" cy="-1066.12" rx="90.98" ry="18"/>
<text text-anchor="middle" x="721.81" y="-1062.42" font-family="Times,serif" font-size="14.00">3,16 (More Coke)</text>
</g>
<!-- 3,16 (More Coke)&#45;&gt;0,8 (Tar from Coke) -->
<g id="edge12" class="edge">
<title>3,16 (More Coke)&#45;&gt;0,8 (Tar from Coke)</title>
<path fill="none" stroke="black" stroke-width="0.16" d="M741.49,-1048.4C849.06,-951.54 1365.53,-486.51 1490.73,-373.78"/>
<polygon fill="black" stroke="black" stroke-width="0.16" points="1493.32,-376.16 1498.41,-366.87 1488.63,-370.96 1493.32,-376.16"/>
<text text-anchor="middle" x="1078.11" y="-714.89" font-family="Times,serif" font-size="14.00">coke*2496</text>
</g>
<!-- 3,16 (More Coke)&#45;&gt;&#45;2,9 (molten steel) -->
<g id="edge3" class="edge">
<title>3,16 (More Coke)&#45;&gt;&#45;2,9 (molten steel)</title>
<path fill="none" stroke="black" stroke-width="0.31" d="M717.97,-1084.16C678.19,-1271.34 341.15,-2856.96 291.96,-3088.41"/>
<polygon fill="black" stroke="black" stroke-width="0.31" points="288.49,-3087.89 289.83,-3098.4 295.34,-3089.34 288.49,-3087.89"/>
<text text-anchor="middle" x="466.97" y="-2090.08" font-family="Times,serif" font-size="14.00">coke*4832</text>
</g>
<!-- &#45;5,1 (Acetylene) -->
<g id="node16" class="node">
<title>&#45;5,1 (Acetylene)</title>
<ellipse fill="none" stroke="black" cx="596.25" cy="-974.9" rx="83.39" ry="18"/>
<text text-anchor="middle" x="596.25" y="-971.2" font-family="Times,serif" font-size="14.00">&#45;5,1 (Acetylene)</text>
</g>
<!-- 3,16 (More Coke)&#45;&gt;&#45;5,1 (Acetylene) -->
<g id="edge25" class="edge">
<title>3,16 (More Coke)&#45;&gt;&#45;5,1 (Acetylene)</title>
<path fill="none" stroke="black" stroke-width="1.6" d="M697.9,-1048.75C678.17,-1034.42 650.01,-1013.96 628.33,-998.21"/>
<polygon fill="black" stroke="black" stroke-width="1.6" points="630.22,-995.26 620.08,-992.21 626.11,-1000.92 630.22,-995.26"/>
<text text-anchor="middle" x="620.61" y="-1027.28" font-family="Times,serif" font-size="14.00">coke*25120</text>
</g>
<!-- 4,14 (A Coal mine, Coke oven gas wasted by venting, Coke direct from mine, A Coal mine?, A Coal mine?!) -->
<g id="node7" class="node">
<title>4,14 (A Coal mine, Coke oven gas wasted by venting, Coke direct from mine, A Coal mine?, A Coal mine?!)</title>
<ellipse fill="none" stroke="black" cx="4530.85" cy="-665.77" rx="503.91" ry="18"/>
<text text-anchor="middle" x="4530.85" y="-662.07" font-family="Times,serif" font-size="14.00">4,14 (A Coal mine, Coke oven gas wasted by venting, Coke direct from mine, A Coal mine?, A Coal mine?!)</text>
</g>
<!-- 4,14 (A Coal mine, Coke oven gas wasted by venting, Coke direct from mine, A Coal mine?, A Coal mine?!)&#45;&gt;0,8 (Tar from Coke) -->
<g id="edge24" class="edge">
<title>4,14 (A Coal mine, Coke oven gas wasted by venting, Coke direct from mine, A Coal mine?, A Coal mine?!)&#45;&gt;0,8 (Tar from Coke)</title>
<path fill="none" stroke="black" stroke-width="4.15" d="M4368.61,-648.72C3820.77,-591.14 2049.45,-404.97 1614.99,-359.31"/>
<polygon fill="black" stroke="black" stroke-width="4.15" points="1615.31,-355.69 1604.98,-358.25 1614.55,-362.91 1615.31,-355.69"/>
<text text-anchor="middle" x="2949.3" y="-507.81" font-family="Times,serif" font-size="14.00">coke*65072</text>
</g>
<!-- 4,14 (A Coal mine, Coke oven gas wasted by venting, Coke direct from mine, A Coal mine?, A Coal mine?!)&#45;&gt;&#45;5,&#45;4 (low priority (slaked)? lime) -->
<g id="edge29" class="edge">
<title>4,14 (A Coal mine, Coke oven gas wasted by venting, Coke direct from mine, A Coal mine?, A Coal mine?!)&#45;&gt;&#45;5,&#45;4 (low priority (slaked)? lime)</title>
<path fill="none" stroke="black" stroke-width="0.13" d="M4475.71,-647.86C4192.24,-555.75 2900.6,-136.07 2599.9,-38.37"/>
<polygon fill="black" stroke="black" stroke-width="0.13" points="2600.63,-34.93 2590.04,-35.17 2598.47,-41.59 2600.63,-34.93"/>
<text text-anchor="middle" x="3499.8" y="-346.91" font-family="Times,serif" font-size="14.00">coke*2032</text>
</g>
<!-- 4,14 (A Coal mine, Coke oven gas wasted by venting, Coke direct from mine, A Coal mine?, A Coal mine?!)&#45;&gt;&#45;2,9 (molten steel) -->
<g id="edge15" class="edge">
<title>4,14 (A Coal mine, Coke oven gas wasted by venting, Coke direct from mine, A Coal mine?, A Coal mine?!)&#45;&gt;&#45;2,9 (molten steel)</title>
<path fill="none" stroke="black" stroke-width="0.85" d="M4499.72,-683.75C4137.4,-892.93 726.97,-2861.95 324.68,-3094.21"/>
<polygon fill="black" stroke="black" stroke-width="0.85" points="322.65,-3091.34 315.74,-3099.37 326.15,-3097.4 322.65,-3091.34"/>
<text text-anchor="middle" x="2369.7" y="-1892.78" font-family="Times,serif" font-size="14.00">coke*13392</text>
</g>
<!-- 4,14 (A Coal mine, Coke oven gas wasted by venting, Coke direct from mine, A Coal mine?, A Coal mine?!)&#45;&gt;&#45;2,6 (Wrong ratio of Calcium Carbide to Acetalene) -->
<g id="edge6" class="edge">
<title>4,14 (A Coal mine, Coke oven gas wasted by venting, Coke direct from mine, A Coal mine?, A Coal mine?!)&#45;&gt;&#45;2,6 (Wrong ratio of Calcium Carbide to Acetalene)</title>
<path fill="none" stroke="black" stroke-width="4.04" d="M4534.71,-683.93C4584.16,-916.58 5093.3,-3311.89 5154.65,-3600.5"/>
<polygon fill="black" stroke="black" stroke-width="4.04" points="5151.25,-3601.53 5156.79,-3610.58 5158.16,-3600.06 5151.25,-3601.53"/>
<text text-anchor="middle" x="4802.18" y="-2146.01" font-family="Times,serif" font-size="14.00">coke*63312</text>
</g>
<!-- 4,14 (A Coal mine, Coke oven gas wasted by venting, Coke direct from mine, A Coal mine?, A Coal mine?!)&#45;&gt;&#45;4,&#45;2 (For Science!) -->
<g id="edge13" class="edge">
<title>4,14 (A Coal mine, Coke oven gas wasted by venting, Coke direct from mine, A Coal mine?, A Coal mine?!)&#45;&gt;&#45;4,&#45;2 (For Science!)</title>
<path fill="none" stroke="black" stroke-width="0.13" d="M4530.85,-684.14C4530.85,-954.85 4530.85,-4132.83 4530.85,-4467.36"/>
<polygon fill="black" stroke="black" stroke-width="0.13" points="4527.35,-4467.65 4530.85,-4477.65 4534.35,-4467.65 4527.35,-4467.65"/>
<text text-anchor="middle" x="4492.85" y="-2579.55" font-family="Times,serif" font-size="14.00">coke*2064</text>
</g>
<!-- 4,14 (A Coal mine, Coke oven gas wasted by venting, Coke direct from mine, A Coal mine?, A Coal mine?!)&#45;&gt;2,5 (Simple Circuits) -->
<g id="edge14" class="edge">
<title>4,14 (A Coal mine, Coke oven gas wasted by venting, Coke direct from mine, A Coal mine?, A Coal mine?!)&#45;&gt;2,5 (Simple Circuits)</title>
<path fill="none" stroke="black" stroke-width="0.14" d="M4517.75,-683.81C4313.32,-965.18 1782.07,-4449.15 1537.14,-4786.27"/>
<polygon fill="black" stroke="black" stroke-width="0.14" points="1534.21,-4784.34 1531.16,-4794.49 1539.87,-4788.46 1534.21,-4784.34"/>
<text text-anchor="middle" x="2989.44" y="-2738.84" font-family="Times,serif" font-size="14.00">coke*2144</text>
</g>
<!-- 4,14 (A Coal mine, Coke oven gas wasted by venting, Coke direct from mine, A Coal mine?, A Coal mine?!)&#45;&gt;6,4 (Electronic components) -->
<g id="edge19" class="edge">
<title>4,14 (A Coal mine, Coke oven gas wasted by venting, Coke direct from mine, A Coal mine?, A Coal mine?!)&#45;&gt;6,4 (Electronic components)</title>
<path fill="none" stroke="black" stroke-width="0.18" d="M4522.82,-683.82C4392.15,-977.31 2708.92,-4757.89 2549.33,-5116.34"/>
<polygon fill="black" stroke="black" stroke-width="0.18" points="2546.12,-5114.94 2545.25,-5125.5 2552.52,-5117.79 2546.12,-5114.94"/>
<text text-anchor="middle" x="3498.08" y="-2903.88" font-family="Times,serif" font-size="14.00">coke*2784</text>
</g>
<!-- &#45;6,&#45;4 (High&#45;Power Resistors, Ceramic Capacitor, Inductor) -->
<g id="node14" class="node">
<title>&#45;6,&#45;4 (High&#45;Power Resistors, Ceramic Capacitor, Inductor)</title>
<ellipse fill="none" stroke="black" cx="3602.87" cy="-130.01" rx="278.35" ry="18"/>
<text text-anchor="middle" x="3602.87" y="-126.31" font-family="Times,serif" font-size="14.00">&#45;6,&#45;4 (High&#45;Power Resistors, Ceramic Capacitor, Inductor)</text>
</g>
<!-- 4,14 (A Coal mine, Coke oven gas wasted by venting, Coke direct from mine, A Coal mine?, A Coal mine?!)&#45;&gt;&#45;6,&#45;4 (High&#45;Power Resistors, Ceramic Capacitor, Inductor) -->
<g id="edge26" class="edge">
<title>4,14 (A Coal mine, Coke oven gas wasted by venting, Coke direct from mine, A Coal mine?, A Coal mine?!)&#45;&gt;&#45;6,&#45;4 (High&#45;Power Resistors, Ceramic Capacitor, Inductor)</title>
<path fill="none" stroke="black" stroke-width="0.14" d="M4499.71,-647.8C4360.95,-567.68 3798.99,-243.23 3643.13,-153.25"/>
<polygon fill="black" stroke="black" stroke-width="0.14" points="3644.72,-150.12 3634.31,-148.15 3641.22,-156.18 3644.72,-150.12"/>
<text text-anchor="middle" x="4033.42" y="-404.32" font-family="Times,serif" font-size="14.00">coke*2256</text>
</g>
<!-- 3,15 (Even Yet More Coke) -->
<g id="node9" class="node">
<title>3,15 (Even Yet More Coke)</title>
<ellipse fill="none" stroke="black" cx="3602.87" cy="-5031.57" rx="135.38" ry="18"/>
<text text-anchor="middle" x="3602.87" y="-5027.87" font-family="Times,serif" font-size="14.00">3,15 (Even Yet More Coke)</text>
</g>
<!-- 3,15 (Even Yet More Coke)&#45;&gt;0,8 (Tar from Coke) -->
<g id="edge7" class="edge">
<title>3,15 (Even Yet More Coke)&#45;&gt;0,8 (Tar from Coke)</title>
<path fill="none" stroke="black" stroke-width="0.79" d="M3594.69,-5013.19C3459.57,-4709.7 1694.28,-744.79 1530.3,-376.5"/>
<polygon fill="black" stroke="black" stroke-width="0.79" points="1533.39,-374.82 1526.12,-367.11 1526.99,-377.67 1533.39,-374.82"/>
<text text-anchor="middle" x="2520" y="-2698.64" font-family="Times,serif" font-size="14.00">coke*12432</text>
</g>
<!-- 3,15 (Even Yet More Coke)&#45;&gt;&#45;2,9 (molten steel) -->
<g id="edge11" class="edge">
<title>3,15 (Even Yet More Coke)&#45;&gt;&#45;2,9 (molten steel)</title>
<path fill="none" stroke="black" stroke-width="0.47" d="M3572.41,-5013.98C3261.74,-4834.61 671.91,-3339.38 324.46,-3138.78"/>
<polygon fill="black" stroke="black" stroke-width="0.47" points="326.16,-3135.72 315.75,-3133.75 322.66,-3141.78 326.16,-3135.72"/>
<text text-anchor="middle" x="1910.44" y="-4080.18" font-family="Times,serif" font-size="14.00">coke*7360</text>
</g>
<!-- 3,15 (Even Yet More Coke)&#45;&gt;&#45;4,&#45;2 (For Science!) -->
<g id="edge8" class="edge">
<title>3,15 (Even Yet More Coke)&#45;&gt;&#45;4,&#45;2 (For Science!)</title>
<path fill="none" stroke="black" stroke-width="0.13" d="M3633.48,-5013.89C3771.77,-4934.05 4338.1,-4607.08 4492.06,-4518.19"/>
<polygon fill="black" stroke="black" stroke-width="0.13" points="4493.86,-4521.2 4500.77,-4513.17 4490.36,-4515.14 4493.86,-4521.2"/>
<text text-anchor="middle" x="4024.77" y="-4769.84" font-family="Times,serif" font-size="14.00">coke*2048</text>
</g>
<!-- 3,15 (Even Yet More Coke)&#45;&gt;2,5 (Simple Circuits) -->
<g id="edge22" class="edge">
<title>3,15 (Even Yet More Coke)&#45;&gt;2,5 (Simple Circuits)</title>
<path fill="none" stroke="black" stroke-width="0.13" d="M3496.62,-5020.4C3137.25,-4982.63 1970.14,-4859.96 1618.98,-4823.05"/>
<polygon fill="black" stroke="black" stroke-width="0.13" points="1619.14,-4819.55 1608.83,-4821.98 1618.41,-4826.51 1619.14,-4819.55"/>
<text text-anchor="middle" x="2519.8" y="-4925.53" font-family="Times,serif" font-size="14.00">coke*2096</text>
</g>
<!-- 3,15 (Even Yet More Coke)&#45;&gt;6,4 (Electronic components) -->
<g id="edge18" class="edge">
<title>3,15 (Even Yet More Coke)&#45;&gt;6,4 (Electronic components)</title>
<path fill="none" stroke="black" stroke-width="0.15" d="M3496.31,-5042.77C3296.37,-5063.78 2866.32,-5108.98 2656.82,-5131"/>
<polygon fill="black" stroke="black" stroke-width="0.15" points="2656.28,-5127.54 2646.7,-5132.06 2657.01,-5134.5 2656.28,-5127.54"/>
<text text-anchor="middle" x="3038.56" y="-5090.68" font-family="Times,serif" font-size="14.00">coke*2320</text>
</g>
<!-- 3,15 (Even Yet More Coke)&#45;&gt;&#45;6,&#45;4 (High&#45;Power Resistors, Ceramic Capacitor, Inductor) -->
<g id="edge20" class="edge">
<title>3,15 (Even Yet More Coke)&#45;&gt;&#45;6,&#45;4 (High&#45;Power Resistors, Ceramic Capacitor, Inductor)</title>
<path fill="none" stroke="black" stroke-width="0.16" d="M3602.87,-5013.33C3602.87,-4703.41 3602.87,-542.84 3602.87,-158.42"/>
<polygon fill="black" stroke="black" stroke-width="0.16" points="3606.37,-158.39 3602.87,-148.39 3599.37,-158.39 3606.37,-158.39"/>
<text text-anchor="middle" x="3564.87" y="-2589.67" font-family="Times,serif" font-size="14.00">coke*2480</text>
</g>
<!-- 3,15 (Even Yet More Coke)&#45;&gt;4,&#45;2 (Ceramic) -->
<g id="edge31" class="edge">
<title>3,15 (Even Yet More Coke)&#45;&gt;4,&#45;2 (Ceramic)</title>
<path fill="none" stroke="black" stroke-width="0.13" d="M3610.88,-5013.58C3724.45,-4758.51 5009.51,-1872.21 5148.51,-1560"/>
<polygon fill="black" stroke="black" stroke-width="0.13" points="5151.76,-1561.31 5152.63,-1550.75 5145.37,-1558.46 5151.76,-1561.31"/>
<text text-anchor="middle" x="4341.7" y="-3290.59" font-family="Times,serif" font-size="14.00">coke*2016</text>
</g>
<!-- &#45;6,1 (Coke and Coal Dust from Biomass (needs Iron plates)) -->
<g id="node12" class="node">
<title>&#45;6,1 (Coke and Coal Dust from Biomass (needs Iron plates))</title>
<ellipse fill="none" stroke="black" cx="285.97" cy="-2045.02" rx="285.95" ry="18"/>
<text text-anchor="middle" x="285.97" y="-2041.32" font-family="Times,serif" font-size="14.00">&#45;6,1 (Coke and Coal Dust from Biomass (needs Iron plates))</text>
</g>
<!-- &#45;6,1 (Coke and Coal Dust from Biomass (needs Iron plates))&#45;&gt;0,8 (Tar from Coke) -->
<g id="edge28" class="edge">
<title>&#45;6,1 (Coke and Coal Dust from Biomass (needs Iron plates))&#45;&gt;0,8 (Tar from Coke)</title>
<path fill="none" stroke="black" stroke-width="0.8" d="M299.18,-2026.84C421.43,-1858.58 1354.13,-574.83 1499.18,-375.18"/>
<polygon fill="black" stroke="black" stroke-width="0.8" points="1502.08,-377.15 1505.12,-367.01 1496.41,-373.04 1502.08,-377.15"/>
<text text-anchor="middle" x="856.68" y="-1204.81" font-family="Times,serif" font-size="14.00">coke*12496</text>
</g>
<!-- &#45;6,1 (Coke and Coal Dust from Biomass (needs Iron plates))&#45;&gt;&#45;2,9 (molten steel) -->
<g id="edge17" class="edge">
<title>&#45;6,1 (Coke and Coal Dust from Biomass (needs Iron plates))&#45;&gt;&#45;2,9 (molten steel)</title>
<path fill="none" stroke="black" stroke-width="0.61" d="M285.97,-2063.17C285.97,-2189.13 285.97,-2932.67 285.97,-3088.09"/>
<polygon fill="black" stroke="black" stroke-width="0.61" points="282.47,-3088.24 285.97,-3098.24 289.47,-3088.24 282.47,-3088.24"/>
<text text-anchor="middle" x="247.97" y="-2579.43" font-family="Times,serif" font-size="14.00">coke*9504</text>
</g>
</g>
</svg>
