<?xml version="1.0" encoding="UTF-8" standalone="no"?>
<!DOCTYPE svg PUBLIC "-//W3C//DTD SVG 1.1//EN"
 "http://www.w3.org/Graphics/SVG/1.1/DTD/svg11.dtd">
<!-- Generated by graphviz version 2.43.0 (0)
 -->
<!-- Title: %3 Pages: 1 -->
<svg width="1603pt" height="558pt"
 viewBox="0.00 0.00 1602.64 558.47" xmlns="http://www.w3.org/2000/svg" xmlns:xlink="http://www.w3.org/1999/xlink">
<g id="graph0" class="graph" transform="scale(1 1) rotate(0) translate(4 554.47)">
<title>%3</title>
<polygon fill="white" stroke="transparent" points="-4,4 -4,-554.47 1598.64,-554.47 1598.64,4 -4,4"/>
<!-- 3,9 (Copper, molten &amp; plate) -->
<g id="node1" class="node">
<title>3,9 (Copper, molten &amp; plate)</title>
<ellipse fill="none" stroke="black" cx="894.29" cy="-275.23" rx="143.77" ry="18"/>
<text text-anchor="middle" x="894.29" y="-271.53" font-family="Times,serif" font-size="14.00">3,9 (Copper, molten &amp; plate)</text>
</g>
<!-- 0,0 (LE BUS) -->
<g id="node2" class="node">
<title>0,0 (LE BUS)</title>
<ellipse fill="none" stroke="black" cx="1480.9" cy="-275.23" rx="71.49" ry="18"/>
<text text-anchor="middle" x="1480.9" y="-271.53" font-family="Times,serif" font-size="14.00">0,0 (LE BUS)</text>
</g>
<!-- 3,9 (Copper, molten &amp; plate)&#45;&gt;0,0 (LE BUS) -->
<g id="edge1" class="edge">
<title>3,9 (Copper, molten &amp; plate)&#45;&gt;0,0 (LE BUS)</title>
<path fill="none" stroke="black" stroke-width="1" d="M1038.16,-275.23C1151.62,-275.23 1305.77,-275.23 1399.04,-275.23"/>
<polygon fill="black" stroke="black" stroke-width="1" points="1399.27,-278.73 1409.27,-275.23 1399.27,-271.73 1399.27,-278.73"/>
<text text-anchor="middle" x="1173.1" y="-279.03" font-family="Times,serif" font-size="14.00">stone*25168</text>
</g>
<!-- 1,8 (A copper mine, Salt) -->
<g id="node4" class="node">
<title>1,8 (A copper mine, Salt)</title>
<ellipse fill="none" stroke="black" cx="489.26" cy="-275.23" rx="126.18" ry="18"/>
<text text-anchor="middle" x="489.26" y="-271.53" font-family="Times,serif" font-size="14.00">1,8 (A copper mine, Salt)</text>
</g>
<!-- 3,9 (Copper, molten &amp; plate)&#45;&gt;1,8 (A copper mine, Salt) -->
<g id="edge3" class="edge">
<title>3,9 (Copper, molten &amp; plate)&#45;&gt;1,8 (A copper mine, Salt)</title>
<path fill="none" stroke="black" stroke-width="1.02" d="M750.64,-275.23C709.95,-275.23 665.8,-275.23 625.57,-275.23"/>
<polygon fill="black" stroke="black" stroke-width="1.02" points="625.43,-271.73 615.43,-275.23 625.43,-278.73 625.43,-271.73"/>
<text text-anchor="middle" x="688.1" y="-264.03" font-family="Times,serif" font-size="14.00">stone*25584</text>
</g>
<!-- &#45;3,2 (Lead and Solder) -->
<g id="node3" class="node">
<title>&#45;3,2 (Lead and Solder)</title>
<ellipse fill="none" stroke="black" cx="1480.9" cy="-18" rx="113.98" ry="18"/>
<text text-anchor="middle" x="1480.9" y="-14.3" font-family="Times,serif" font-size="14.00">&#45;3,2 (Lead and Solder)</text>
</g>
<!-- &#45;3,2 (Lead and Solder)&#45;&gt;0,0 (LE BUS) -->
<g id="edge2" class="edge">
<title>&#45;3,2 (Lead and Solder)&#45;&gt;0,0 (LE BUS)</title>
<path fill="none" stroke="black" stroke-width="0.6" d="M1480.9,-36.09C1480.9,-80.27 1480.9,-193.96 1480.9,-247.09"/>
<polygon fill="black" stroke="black" stroke-width="0.6" points="1477.4,-247.17 1480.9,-257.17 1484.4,-247.17 1477.4,-247.17"/>
<text text-anchor="middle" x="1435.4" y="-145.39" font-family="Times,serif" font-size="14.00">stone*15080</text>
</g>
<!-- &#45;6,7 (Iron ore dust) -->
<g id="node5" class="node">
<title>&#45;6,7 (Iron ore dust)</title>
<ellipse fill="none" stroke="black" cx="1480.9" cy="-532.47" rx="98.58" ry="18"/>
<text text-anchor="middle" x="1480.9" y="-528.77" font-family="Times,serif" font-size="14.00">&#45;6,7 (Iron ore dust)</text>
</g>
<!-- &#45;6,7 (Iron ore dust)&#45;&gt;0,0 (LE BUS) -->
<g id="edge4" class="edge">
<title>&#45;6,7 (Iron ore dust)&#45;&gt;0,0 (LE BUS)</title>
<path fill="none" stroke="black" stroke-width="3.02" d="M1480.9,-514.38C1480.9,-470.19 1480.9,-356.5 1480.9,-303.38"/>
<polygon fill="black" stroke="black" stroke-width="3.02" points="1484.4,-303.3 1480.9,-293.3 1477.4,-303.3 1484.4,-303.3"/>
<text text-anchor="middle" x="1526.4" y="-412.68" font-family="Times,serif" font-size="14.00">stone*75568</text>
</g>
<!-- &#45;3,&#45;3 (Zinc Plates, 32 to consume four belts) -->
<g id="node6" class="node">
<title>&#45;3,&#45;3 (Zinc Plates, 32 to consume four belts)</title>
<ellipse fill="none" stroke="black" cx="907.5" cy="-396.23" rx="213.66" ry="18"/>
<text text-anchor="middle" x="907.5" y="-392.53" font-family="Times,serif" font-size="14.00">&#45;3,&#45;3 (Zinc Plates, 32 to consume four belts)</text>
</g>
<!-- 3,11 (Sap, Sodium Hydroxide) -->
<g id="node7" class="node">
<title>3,11 (Sap, Sodium Hydroxide)</title>
<ellipse fill="none" stroke="black" cx="1344.12" cy="-396.23" rx="150.57" ry="18"/>
<text text-anchor="middle" x="1344.12" y="-392.53" font-family="Times,serif" font-size="14.00">3,11 (Sap, Sodium Hydroxide)</text>
</g>
<!-- &#45;3,&#45;3 (Zinc Plates, 32 to consume four belts)&#45;&gt;3,11 (Sap, Sodium Hydroxide) -->
<g id="edge5" class="edge">
<title>&#45;3,&#45;3 (Zinc Plates, 32 to consume four belts)&#45;&gt;3,11 (Sap, Sodium Hydroxide)</title>
<path fill="none" stroke="black" stroke-width="0.2" d="M1121.33,-396.23C1142.13,-396.23 1162.97,-396.23 1183.12,-396.23"/>
<polygon fill="black" stroke="black" stroke-width="0.2" points="1183.27,-399.73 1193.27,-396.23 1183.27,-392.73 1183.27,-399.73"/>
<text text-anchor="middle" x="1152.23" y="-385.03" font-family="Times,serif" font-size="14.00">stone*5024</text>
</g>
<!-- &#45;3,3 (Lead dust (silver plate)) -->
<g id="node8" class="node">
<title>&#45;3,3 (Lead dust (silver plate))</title>
<ellipse fill="none" stroke="black" cx="145.59" cy="-275.23" rx="145.67" ry="18"/>
<text text-anchor="middle" x="145.59" y="-271.53" font-family="Times,serif" font-size="14.00">&#45;3,3 (Lead dust (silver plate))</text>
</g>
<!-- &#45;3,3 (Lead dust (silver plate))&#45;&gt;1,8 (A copper mine, Salt) -->
<g id="edge6" class="edge">
<title>&#45;3,3 (Lead dust (silver plate))&#45;&gt;1,8 (A copper mine, Salt)</title>
<path fill="none" stroke="black" stroke-width="1.01" d="M291.34,-275.23C311.76,-275.23 332.69,-275.23 352.93,-275.23"/>
<polygon fill="black" stroke="black" stroke-width="1.01" points="353.12,-278.73 363.12,-275.23 353.12,-271.73 353.12,-278.73"/>
<text text-anchor="middle" x="322.13" y="-264.03" font-family="Times,serif" font-size="14.00">stone*25184</text>
</g>
<!-- 0,5 (Titanium Processing (Grade 4)) -->
<g id="node9" class="node">
<title>0,5 (Titanium Processing (Grade 4))</title>
<ellipse fill="none" stroke="black" cx="996.34" cy="-144.23" rx="176.57" ry="18"/>
<text text-anchor="middle" x="996.34" y="-140.53" font-family="Times,serif" font-size="14.00">0,5 (Titanium Processing (Grade 4))</text>
</g>
<!-- 2,14 (Latex) -->
<g id="node10" class="node">
<title>2,14 (Latex)</title>
<ellipse fill="none" stroke="black" cx="1312.07" cy="-144.23" rx="66.89" ry="18"/>
<text text-anchor="middle" x="1312.07" y="-140.53" font-family="Times,serif" font-size="14.00">2,14 (Latex)</text>
</g>
<!-- 0,5 (Titanium Processing (Grade 4))&#45;&gt;2,14 (Latex) -->
<g id="edge7" class="edge">
<title>0,5 (Titanium Processing (Grade 4))&#45;&gt;2,14 (Latex)</title>
<path fill="none" stroke="black" stroke-width="0.15" d="M1173.13,-144.23C1194.75,-144.23 1215.89,-144.23 1234.89,-144.23"/>
<polygon fill="black" stroke="black" stroke-width="0.15" points="1234.92,-147.73 1244.92,-144.23 1234.92,-140.73 1234.92,-147.73"/>
<text text-anchor="middle" x="1204.01" y="-133.03" font-family="Times,serif" font-size="14.00">stone*3744</text>
</g>
</g>
</svg>
