<?xml version="1.0" encoding="UTF-8" standalone="no"?>
<!DOCTYPE svg PUBLIC "-//W3C//DTD SVG 1.1//EN"
 "http://www.w3.org/Graphics/SVG/1.1/DTD/svg11.dtd">
<!-- Generated by graphviz version 2.43.0 (0)
 -->
<!-- Title: %3 Pages: 1 -->
<svg width="2087pt" height="1561pt"
 viewBox="0.00 0.00 2086.52 1560.57" xmlns="http://www.w3.org/2000/svg" xmlns:xlink="http://www.w3.org/1999/xlink">
<g id="graph0" class="graph" transform="scale(1 1) rotate(0) translate(4 1556.57)">
<title>%3</title>
<polygon fill="white" stroke="transparent" points="-4,4 -4,-1556.57 2082.52,-1556.57 2082.52,4 -4,4"/>
<!-- 0,&#45;8 (Raw fibre 2 duplicate) -->
<g id="node1" class="node">
<title>0,&#45;8 (Raw fibre 2 duplicate)</title>
<ellipse fill="none" stroke="black" cx="1703.8" cy="-776.28" rx="137.58" ry="18"/>
<text text-anchor="middle" x="1703.8" y="-772.58" font-family="Times,serif" font-size="14.00">0,&#45;8 (Raw fibre 2 duplicate)</text>
</g>
<!-- 0,0 (LE BUS) -->
<g id="node2" class="node">
<title>0,0 (LE BUS)</title>
<ellipse fill="none" stroke="black" cx="261.46" cy="-307.64" rx="71.49" ry="18"/>
<text text-anchor="middle" x="261.46" y="-303.94" font-family="Times,serif" font-size="14.00">0,0 (LE BUS)</text>
</g>
<!-- 0,&#45;8 (Raw fibre 2 duplicate)&#45;&gt;0,0 (LE BUS) -->
<g id="edge1" class="edge">
<title>0,&#45;8 (Raw fibre 2 duplicate)&#45;&gt;0,0 (LE BUS)</title>
<path fill="none" stroke="black" stroke-width="5.12" d="M1652.04,-759.47C1428.07,-686.69 543.41,-399.25 315.33,-325.14"/>
<polygon fill="black" stroke="black" stroke-width="5.12" points="316.5,-320.81 305.6,-321.98 313.73,-329.33 316.5,-320.81"/>
<text text-anchor="middle" x="920.19" y="-546.1" font-family="Times,serif" font-size="14.00">raw&#45;fiber*227200</text>
</g>
<!-- 4,1 (item=filtration&#45;media Filtration Media) -->
<g id="node4" class="node">
<title>4,1 (item=filtration&#45;media Filtration Media)</title>
<ellipse fill="none" stroke="black" cx="660.11" cy="-18" rx="214.46" ry="18"/>
<text text-anchor="middle" x="660.11" y="-14.3" font-family="Times,serif" font-size="14.00">4,1 (item=filtration&#45;media Filtration Media)</text>
</g>
<!-- 0,&#45;8 (Raw fibre 2 duplicate)&#45;&gt;4,1 (item=filtration&#45;media Filtration Media) -->
<g id="edge6" class="edge">
<title>0,&#45;8 (Raw fibre 2 duplicate)&#45;&gt;4,1 (item=filtration&#45;media Filtration Media)</title>
<path fill="none" stroke="black" stroke-width="3.52" d="M1679.29,-758.47C1540.52,-657.65 854.05,-158.9 693.67,-42.38"/>
<polygon fill="black" stroke="black" stroke-width="3.52" points="695.29,-39.23 685.14,-36.18 691.18,-44.89 695.29,-39.23"/>
<text text-anchor="middle" x="1122.98" y="-404.22" font-family="Times,serif" font-size="14.00">raw&#45;fiber*155920</text>
</g>
<!-- 4,2 (More fiberboard) -->
<g id="node6" class="node">
<title>4,2 (More fiberboard)</title>
<ellipse fill="none" stroke="black" cx="1152.88" cy="-1534.57" rx="111.28" ry="18"/>
<text text-anchor="middle" x="1152.88" y="-1530.87" font-family="Times,serif" font-size="14.00">4,2 (More fiberboard)</text>
</g>
<!-- 0,&#45;8 (Raw fibre 2 duplicate)&#45;&gt;4,2 (More fiberboard) -->
<g id="edge14" class="edge">
<title>0,&#45;8 (Raw fibre 2 duplicate)&#45;&gt;4,2 (More fiberboard)</title>
<path fill="none" stroke="black" stroke-width="0.99" d="M1690.73,-794.28C1617.6,-894.93 1259.46,-1387.87 1172.11,-1508.09"/>
<polygon fill="black" stroke="black" stroke-width="0.99" points="1169.12,-1506.25 1166.07,-1516.4 1174.78,-1510.37 1169.12,-1506.25"/>
<text text-anchor="middle" x="1372.42" y="-1154.98" font-family="Times,serif" font-size="14.00">raw&#45;fiber*43840</text>
</g>
<!-- 2,4 (Formica and Phenolic boards) -->
<g id="node7" class="node">
<title>2,4 (Formica and Phenolic boards)</title>
<ellipse fill="none" stroke="black" cx="1551.53" cy="-307.64" rx="169.77" ry="18"/>
<text text-anchor="middle" x="1551.53" y="-303.94" font-family="Times,serif" font-size="14.00">2,4 (Formica and Phenolic boards)</text>
</g>
<!-- 0,&#45;8 (Raw fibre 2 duplicate)&#45;&gt;2,4 (Formica and Phenolic boards) -->
<g id="edge9" class="edge">
<title>0,&#45;8 (Raw fibre 2 duplicate)&#45;&gt;2,4 (Formica and Phenolic boards)</title>
<path fill="none" stroke="black" stroke-width="1.08" d="M1697.93,-758.2C1674.63,-686.51 1588.69,-422 1560.53,-335.33"/>
<polygon fill="black" stroke="black" stroke-width="1.08" points="1563.81,-334.1 1557.39,-325.67 1557.15,-336.26 1563.81,-334.1"/>
<text text-anchor="middle" x="1570.23" y="-550.56" font-family="Times,serif" font-size="14.00">raw&#45;fiber*47920</text>
</g>
<!-- &#45;1,7 (Rayon) -->
<g id="node10" class="node">
<title>&#45;1,7 (Rayon)</title>
<ellipse fill="none" stroke="black" cx="261.46" cy="-1244.93" rx="66.89" ry="18"/>
<text text-anchor="middle" x="261.46" y="-1241.23" font-family="Times,serif" font-size="14.00">&#45;1,7 (Rayon)</text>
</g>
<!-- 0,&#45;8 (Raw fibre 2 duplicate)&#45;&gt;&#45;1,7 (Rayon) -->
<g id="edge11" class="edge">
<title>0,&#45;8 (Raw fibre 2 duplicate)&#45;&gt;&#45;1,7 (Rayon)</title>
<path fill="none" stroke="black" stroke-width="2.45" d="M1652.04,-793.1C1427.57,-866.03 539.49,-1154.59 313.83,-1227.91"/>
<polygon fill="black" stroke="black" stroke-width="2.45" points="312.64,-1224.62 304.21,-1231.04 314.8,-1231.28 312.64,-1224.62"/>
<text text-anchor="middle" x="919.44" y="-1014.31" font-family="Times,serif" font-size="14.00">raw&#45;fiber*108720</text>
</g>
<!-- &#45;9,&#45;10 (Bedding and cages) -->
<g id="node11" class="node">
<title>&#45;9,&#45;10 (Bedding and cages)</title>
<ellipse fill="none" stroke="black" cx="1910.34" cy="-776.28" rx="134.58" ry="18"/>
<text text-anchor="middle" x="1910.34" y="-772.58" font-family="Times,serif" font-size="14.00">&#45;9,&#45;10 (Bedding and cages)</text>
</g>
<!-- 0,&#45;8 (Raw fibre 2 duplicate)&#45;&gt;&#45;9,&#45;10 (Bedding and cages) -->
<g id="edge22" class="edge">
<title>0,&#45;8 (Raw fibre 2 duplicate)&#45;&gt;&#45;9,&#45;10 (Bedding and cages)</title>
<path fill="none" stroke="black" stroke-width="0.56" d="M1841.85,-776.28C1841.93,-776.28 1842,-776.28 1842.07,-776.28"/>
<polygon fill="black" stroke="black" stroke-width="0.56" points="1832.3,-779.79 1842.29,-776.28 1832.29,-772.79 1832.3,-779.79"/>
<text text-anchor="middle" x="1900.96" y="-780.08" font-family="Times,serif" font-size="14.00">raw&#45;fiber*25040</text>
</g>
<!-- 4,5 (Yet More Raw Fiber) -->
<g id="node3" class="node">
<title>4,5 (Yet More Raw Fiber)</title>
<ellipse fill="none" stroke="black" cx="1152.88" cy="-18" rx="128.08" ry="18"/>
<text text-anchor="middle" x="1152.88" y="-14.3" font-family="Times,serif" font-size="14.00">4,5 (Yet More Raw Fiber)</text>
</g>
<!-- 4,5 (Yet More Raw Fiber)&#45;&gt;0,0 (LE BUS) -->
<g id="edge15" class="edge">
<title>4,5 (Yet More Raw Fiber)&#45;&gt;0,0 (LE BUS)</title>
<path fill="none" stroke="black" stroke-width="0.6" d="M1101.75,-34.61C945.39,-85.42 474.58,-238.39 315.02,-290.24"/>
<polygon fill="black" stroke="black" stroke-width="0.6" points="313.84,-286.94 305.41,-293.36 316,-293.6 313.84,-286.94"/>
<text text-anchor="middle" x="649.38" y="-166.23" font-family="Times,serif" font-size="14.00">raw&#45;fiber*26656</text>
</g>
<!-- 4,5 (Yet More Raw Fiber)&#45;&gt;4,1 (item=filtration&#45;media Filtration Media) -->
<g id="edge2" class="edge">
<title>4,5 (Yet More Raw Fiber)&#45;&gt;4,1 (item=filtration&#45;media Filtration Media)</title>
<path fill="none" stroke="black" stroke-width="0.54" d="M1024.7,-18C981.97,-18 933.02,-18 885.16,-18"/>
<polygon fill="black" stroke="black" stroke-width="0.54" points="884.96,-14.5 874.96,-18 884.96,-21.5 884.96,-14.5"/>
<text text-anchor="middle" x="954.93" y="-6.8" font-family="Times,serif" font-size="14.00">raw&#45;fiber*23776</text>
</g>
<!-- 4,5 (Yet More Raw Fiber)&#45;&gt;4,2 (More fiberboard) -->
<g id="edge10" class="edge">
<title>4,5 (Yet More Raw Fiber)&#45;&gt;4,2 (More fiberboard)</title>
<path fill="none" stroke="black" stroke-width="0.33" d="M1152.88,-36.09C1152.88,-192.38 1152.88,-1313.39 1152.88,-1506.33"/>
<polygon fill="black" stroke="black" stroke-width="0.33" points="1149.38,-1506.5 1152.88,-1516.5 1156.38,-1506.5 1149.38,-1506.5"/>
<text text-anchor="middle" x="1093.88" y="-775.01" font-family="Times,serif" font-size="14.00">raw&#45;fiber*14448</text>
</g>
<!-- 4,5 (Yet More Raw Fiber)&#45;&gt;2,4 (Formica and Phenolic boards) -->
<g id="edge17" class="edge">
<title>4,5 (Yet More Raw Fiber)&#45;&gt;2,4 (Formica and Phenolic boards)</title>
<path fill="none" stroke="black" stroke-width="0.36" d="M1177.21,-35.68C1245.74,-85.47 1440.4,-226.9 1518.51,-283.65"/>
<polygon fill="black" stroke="black" stroke-width="0.36" points="1516.86,-286.77 1527,-289.82 1520.97,-281.11 1516.86,-286.77"/>
<text text-anchor="middle" x="1288.86" y="-163.46" font-family="Times,serif" font-size="14.00">raw&#45;fiber*15888</text>
</g>
<!-- 4,5 (Yet More Raw Fiber)&#45;&gt;&#45;1,7 (Rayon) -->
<g id="edge26" class="edge">
<title>4,5 (Yet More Raw Fiber)&#45;&gt;&#45;1,7 (Rayon)</title>
<path fill="none" stroke="black" stroke-width="0.69" d="M1139.58,-36.3C1039.15,-174.53 400.29,-1053.85 280.72,-1218.41"/>
<polygon fill="black" stroke="black" stroke-width="0.69" points="277.55,-1216.82 274.51,-1226.97 283.22,-1220.94 277.55,-1216.82"/>
<text text-anchor="middle" x="651.15" y="-631.16" font-family="Times,serif" font-size="14.00">raw&#45;fiber*30816</text>
</g>
<!-- 7,8 (Raw fibre 2) -->
<g id="node5" class="node">
<title>7,8 (Raw fibre 2)</title>
<ellipse fill="none" stroke="black" cx="660.11" cy="-1534.57" rx="89.08" ry="18"/>
<text text-anchor="middle" x="660.11" y="-1530.87" font-family="Times,serif" font-size="14.00">7,8 (Raw fibre 2)</text>
</g>
<!-- 7,8 (Raw fibre 2)&#45;&gt;0,0 (LE BUS) -->
<g id="edge5" class="edge">
<title>7,8 (Raw fibre 2)&#45;&gt;0,0 (LE BUS)</title>
<path fill="none" stroke="black" stroke-width="2.01" d="M654.17,-1516.27C609.34,-1378.31 324.68,-502.21 270.4,-335.14"/>
<polygon fill="black" stroke="black" stroke-width="2.01" points="273.72,-334.02 267.3,-325.59 267.06,-336.19 273.72,-334.02"/>
<text text-anchor="middle" x="403.28" y="-929.51" font-family="Times,serif" font-size="14.00">raw&#45;fiber*88960</text>
</g>
<!-- 7,8 (Raw fibre 2)&#45;&gt;4,1 (item=filtration&#45;media Filtration Media) -->
<g id="edge19" class="edge">
<title>7,8 (Raw fibre 2)&#45;&gt;4,1 (item=filtration&#45;media Filtration Media)</title>
<path fill="none" stroke="black" stroke-width="0.81" d="M660.11,-1516.48C660.11,-1360.19 660.11,-239.18 660.11,-46.24"/>
<polygon fill="black" stroke="black" stroke-width="0.81" points="663.62,-46.06 660.11,-36.06 656.62,-46.06 663.62,-46.06"/>
<text text-anchor="middle" x="601.11" y="-785.16" font-family="Times,serif" font-size="14.00">raw&#45;fiber*36000</text>
</g>
<!-- 7,8 (Raw fibre 2)&#45;&gt;4,2 (More fiberboard) -->
<g id="edge3" class="edge">
<title>7,8 (Raw fibre 2)&#45;&gt;4,2 (More fiberboard)</title>
<path fill="none" stroke="black" stroke-width="0.29" d="M749.35,-1534.57C828.18,-1534.57 943.86,-1534.57 1031.17,-1534.57"/>
<polygon fill="black" stroke="black" stroke-width="0.29" points="1031.4,-1538.07 1041.4,-1534.57 1031.4,-1531.07 1031.4,-1538.07"/>
<text text-anchor="middle" x="831.26" y="-1538.37" font-family="Times,serif" font-size="14.00">raw&#45;fiber*12640</text>
</g>
<!-- 7,8 (Raw fibre 2)&#45;&gt;2,4 (Formica and Phenolic boards) -->
<g id="edge4" class="edge">
<title>7,8 (Raw fibre 2)&#45;&gt;2,4 (Formica and Phenolic boards)</title>
<path fill="none" stroke="black" stroke-width="0.89" d="M673.06,-1516.75C772.35,-1380.09 1412.43,-499.1 1532.23,-334.21"/>
<polygon fill="black" stroke="black" stroke-width="0.89" points="1535.41,-335.78 1538.46,-325.63 1529.75,-331.66 1535.41,-335.78"/>
<text text-anchor="middle" x="1043.64" y="-929.28" font-family="Times,serif" font-size="14.00">raw&#45;fiber*39520</text>
</g>
<!-- 7,8 (Raw fibre 2)&#45;&gt;&#45;1,7 (Rayon) -->
<g id="edge12" class="edge">
<title>7,8 (Raw fibre 2)&#45;&gt;&#45;1,7 (Rayon)</title>
<path fill="none" stroke="black" stroke-width="2.47" d="M636.08,-1517.1C567.43,-1467.23 370.5,-1324.15 293.17,-1267.97"/>
<polygon fill="black" stroke="black" stroke-width="2.47" points="294.93,-1264.92 284.78,-1261.87 290.81,-1270.58 294.93,-1264.92"/>
<text text-anchor="middle" x="401.12" y="-1396.33" font-family="Times,serif" font-size="14.00">raw&#45;fiber*109680</text>
</g>
<!-- 6,2 (Raw Fiber&#39;s cojoined twin) -->
<g id="node8" class="node">
<title>6,2 (Raw Fiber&#39;s cojoined twin)</title>
<ellipse fill="none" stroke="black" cx="1551.53" cy="-1244.93" rx="155.17" ry="18"/>
<text text-anchor="middle" x="1551.53" y="-1241.23" font-family="Times,serif" font-size="14.00">6,2 (Raw Fiber&#39;s cojoined twin)</text>
</g>
<!-- 6,2 (Raw Fiber&#39;s cojoined twin)&#45;&gt;0,0 (LE BUS) -->
<g id="edge21" class="edge">
<title>6,2 (Raw Fiber&#39;s cojoined twin)&#45;&gt;0,0 (LE BUS)</title>
<path fill="none" stroke="black" stroke-width="0.18" d="M1526.91,-1227.04C1366.77,-1110.69 473.99,-462.05 293.34,-330.8"/>
<polygon fill="black" stroke="black" stroke-width="0.18" points="295.19,-327.82 285.04,-324.77 291.08,-333.48 295.19,-327.82"/>
<text text-anchor="middle" x="855.63" y="-782.72" font-family="Times,serif" font-size="14.00">raw&#45;fiber*8096</text>
</g>
<!-- 6,2 (Raw Fiber&#39;s cojoined twin)&#45;&gt;4,1 (item=filtration&#45;media Filtration Media) -->
<g id="edge25" class="edge">
<title>6,2 (Raw Fiber&#39;s cojoined twin)&#45;&gt;4,1 (item=filtration&#45;media Filtration Media)</title>
<path fill="none" stroke="black" stroke-width="0.11" d="M1538.24,-1226.63C1437.81,-1088.4 799.02,-209.19 679.4,-44.54"/>
<polygon fill="black" stroke="black" stroke-width="0.11" points="682.19,-42.43 673.48,-36.4 676.53,-46.55 682.19,-42.43"/>
<text text-anchor="middle" x="1054.32" y="-639.39" font-family="Times,serif" font-size="14.00">raw&#45;fiber*4960</text>
</g>
<!-- 6,2 (Raw Fiber&#39;s cojoined twin)&#45;&gt;4,2 (More fiberboard) -->
<g id="edge7" class="edge">
<title>6,2 (Raw Fiber&#39;s cojoined twin)&#45;&gt;4,2 (More fiberboard)</title>
<path fill="none" stroke="black" stroke-width="0.05" d="M1526.89,-1262.83C1458,-1312.88 1263.31,-1454.33 1185.55,-1510.83"/>
<polygon fill="black" stroke="black" stroke-width="0.05" points="1183.13,-1508.26 1177.1,-1516.97 1187.24,-1513.92 1183.13,-1508.26"/>
<text text-anchor="middle" x="1301.72" y="-1390.63" font-family="Times,serif" font-size="14.00">raw&#45;fiber*2064</text>
</g>
<!-- 6,2 (Raw Fiber&#39;s cojoined twin)&#45;&gt;2,4 (Formica and Phenolic boards) -->
<g id="edge18" class="edge">
<title>6,2 (Raw Fiber&#39;s cojoined twin)&#45;&gt;2,4 (Formica and Phenolic boards)</title>
<path fill="none" stroke="black" stroke-width="0.14" d="M1551.53,-1226.62C1551.53,-1110.56 1551.53,-477.3 1551.53,-335.72"/>
<polygon fill="black" stroke="black" stroke-width="0.14" points="1555.03,-335.68 1551.53,-325.68 1548.03,-335.68 1555.03,-335.68"/>
<text text-anchor="middle" x="1497.03" y="-784.97" font-family="Times,serif" font-size="14.00">raw&#45;fiber*6064</text>
</g>
<!-- &#45;1,8 (Fibre via. moss) -->
<g id="node9" class="node">
<title>&#45;1,8 (Fibre via. moss)</title>
<ellipse fill="none" stroke="black" cx="109.19" cy="-776.28" rx="109.38" ry="18"/>
<text text-anchor="middle" x="109.19" y="-772.58" font-family="Times,serif" font-size="14.00">&#45;1,8 (Fibre via. moss)</text>
</g>
<!-- &#45;1,8 (Fibre via. moss)&#45;&gt;0,0 (LE BUS) -->
<g id="edge16" class="edge">
<title>&#45;1,8 (Fibre via. moss)&#45;&gt;0,0 (LE BUS)</title>
<path fill="none" stroke="black" stroke-width="0.57" d="M115.07,-758.2C138.36,-686.51 224.31,-422 252.46,-335.33"/>
<polygon fill="black" stroke="black" stroke-width="0.57" points="255.84,-336.26 255.6,-325.67 249.18,-334.1 255.84,-336.26"/>
<text text-anchor="middle" x="124.77" y="-550.56" font-family="Times,serif" font-size="14.00">raw&#45;fiber*25360</text>
</g>
<!-- &#45;1,8 (Fibre via. moss)&#45;&gt;4,1 (item=filtration&#45;media Filtration Media) -->
<g id="edge8" class="edge">
<title>&#45;1,8 (Fibre via. moss)&#45;&gt;4,1 (item=filtration&#45;media Filtration Media)</title>
<path fill="none" stroke="black" stroke-width="0.94" d="M122.27,-758.29C195.39,-657.64 553.53,-164.7 640.88,-44.48"/>
<polygon fill="black" stroke="black" stroke-width="0.94" points="643.87,-46.31 646.92,-36.16 638.21,-42.2 643.87,-46.31"/>
<text text-anchor="middle" x="322.57" y="-405.18" font-family="Times,serif" font-size="14.00">raw&#45;fiber*41520</text>
</g>
<!-- &#45;1,8 (Fibre via. moss)&#45;&gt;4,2 (More fiberboard) -->
<g id="edge20" class="edge">
<title>&#45;1,8 (Fibre via. moss)&#45;&gt;4,2 (More fiberboard)</title>
<path fill="none" stroke="black" stroke-width="0.23" d="M133.45,-793.91C271.78,-894.41 960.24,-1394.6 1119.81,-1510.54"/>
<polygon fill="black" stroke="black" stroke-width="0.23" points="1118.14,-1513.65 1128.29,-1516.7 1122.25,-1507.99 1118.14,-1513.65"/>
<text text-anchor="middle" x="567.63" y="-1156.03" font-family="Times,serif" font-size="14.00">raw&#45;fiber*10400</text>
</g>
<!-- &#45;1,8 (Fibre via. moss)&#45;&gt;2,4 (Formica and Phenolic boards) -->
<g id="edge13" class="edge">
<title>&#45;1,8 (Fibre via. moss)&#45;&gt;2,4 (Formica and Phenolic boards)</title>
<path fill="none" stroke="black" stroke-width="0.67" d="M158.84,-760.15C376.62,-689.39 1247.31,-406.48 1489.02,-327.95"/>
<polygon fill="black" stroke="black" stroke-width="0.67" points="1490.27,-331.22 1498.7,-324.8 1488.11,-324.56 1490.27,-331.22"/>
<text text-anchor="middle" x="764.93" y="-547.85" font-family="Times,serif" font-size="14.00">raw&#45;fiber*29840</text>
</g>
<!-- &#45;1,8 (Fibre via. moss)&#45;&gt;&#45;1,7 (Rayon) -->
<g id="edge23" class="edge">
<title>&#45;1,8 (Fibre via. moss)&#45;&gt;&#45;1,7 (Rayon)</title>
<path fill="none" stroke="black" stroke-width="0.35" d="M115.07,-794.37C138.36,-866.06 224.31,-1130.57 252.46,-1217.23"/>
<polygon fill="black" stroke="black" stroke-width="0.35" points="249.18,-1218.47 255.6,-1226.9 255.84,-1216.3 249.18,-1218.47"/>
<text text-anchor="middle" x="124.77" y="-1009.6" font-family="Times,serif" font-size="14.00">raw&#45;fiber*15440</text>
</g>
<!-- &#45;1,&#45;2 (Aramid fiber) -->
<g id="node12" class="node">
<title>&#45;1,&#45;2 (Aramid fiber)</title>
<ellipse fill="none" stroke="black" cx="1754.99" cy="-156.28" rx="99.38" ry="18"/>
<text text-anchor="middle" x="1754.99" y="-152.58" font-family="Times,serif" font-size="14.00">&#45;1,&#45;2 (Aramid fiber)</text>
</g>
<!-- 0,7 (Coal Gas) -->
<g id="node13" class="node">
<title>0,7 (Coal Gas)</title>
<ellipse fill="none" stroke="black" cx="2002.48" cy="-156.28" rx="76.09" ry="18"/>
<text text-anchor="middle" x="2002.48" y="-152.58" font-family="Times,serif" font-size="14.00">0,7 (Coal Gas)</text>
</g>
<!-- &#45;1,&#45;2 (Aramid fiber)&#45;&gt;0,7 (Coal Gas) -->
<g id="edge24" class="edge">
<title>&#45;1,&#45;2 (Aramid fiber)&#45;&gt;0,7 (Coal Gas)</title>
<path fill="none" stroke="black" stroke-width="0.05" d="M1854.58,-156.28C1874.94,-156.28 1896.21,-156.28 1916.06,-156.28"/>
<polygon fill="black" stroke="black" stroke-width="0.05" points="1916.3,-159.78 1926.3,-156.28 1916.3,-152.78 1916.3,-159.78"/>
<text text-anchor="middle" x="1885.32" y="-145.08" font-family="Times,serif" font-size="14.00">raw&#45;fiber*2080</text>
</g>
</g>
</svg>
