<?xml version="1.0" encoding="UTF-8" standalone="no"?>
<!DOCTYPE svg PUBLIC "-//W3C//DTD SVG 1.1//EN"
 "http://www.w3.org/Graphics/SVG/1.1/DTD/svg11.dtd">
<!-- Generated by graphviz version 2.43.0 (0)
 -->
<!-- Title: %3 Pages: 1 -->
<svg width="794pt" height="664pt"
 viewBox="0.00 0.00 793.97 664.45" xmlns="http://www.w3.org/2000/svg" xmlns:xlink="http://www.w3.org/1999/xlink">
<g id="graph0" class="graph" transform="scale(1 1) rotate(0) translate(4 660.45)">
<title>%3</title>
<polygon fill="white" stroke="transparent" points="-4,4 -4,-660.45 789.97,-660.45 789.97,4 -4,4"/>
<!-- &#45;6,&#45;3 (Chromite Sand) -->
<g id="node1" class="node">
<title>&#45;6,&#45;3 (Chromite Sand)</title>
<ellipse fill="none" stroke="black" cx="282.67" cy="-553.79" rx="110.48" ry="18"/>
<text text-anchor="middle" x="282.67" y="-550.09" font-family="Times,serif" font-size="14.00">&#45;6,&#45;3 (Chromite Sand)</text>
</g>
<!-- &#45;2,&#45;3 (Trains) -->
<g id="node2" class="node">
<title>&#45;2,&#45;3 (Trains)</title>
<ellipse fill="none" stroke="black" cx="511.39" cy="-325.07" rx="70.39" ry="18"/>
<text text-anchor="middle" x="511.39" y="-321.37" font-family="Times,serif" font-size="14.00">&#45;2,&#45;3 (Trains)</text>
</g>
<!-- &#45;6,&#45;3 (Chromite Sand)&#45;&gt;&#45;2,&#45;3 (Trains) -->
<g id="edge1" class="edge">
<title>&#45;6,&#45;3 (Chromite Sand)&#45;&gt;&#45;2,&#45;3 (Trains)</title>
<path fill="none" stroke="black" stroke-width="0.2" d="M300.61,-535.84C341.21,-495.24 440.18,-396.27 486.59,-349.86"/>
<polygon fill="black" stroke="black" stroke-width="0.2" points="489.24,-352.16 493.84,-342.62 484.29,-347.21 489.24,-352.16"/>
<text text-anchor="middle" x="349.6" y="-446.65" font-family="Times,serif" font-size="14.00">gravel*6149</text>
</g>
<!-- 1,8 (Salt) -->
<g id="node6" class="node">
<title>1,8 (Salt)</title>
<ellipse fill="none" stroke="black" cx="53.95" cy="-325.07" rx="53.89" ry="18"/>
<text text-anchor="middle" x="53.95" y="-321.37" font-family="Times,serif" font-size="14.00">1,8 (Salt)</text>
</g>
<!-- &#45;6,&#45;3 (Chromite Sand)&#45;&gt;1,8 (Salt) -->
<g id="edge6" class="edge">
<title>&#45;6,&#45;3 (Chromite Sand)&#45;&gt;1,8 (Salt)</title>
<path fill="none" stroke="black" stroke-width="0.1" d="M264.72,-535.84C224.02,-495.14 124.66,-395.79 78.4,-349.52"/>
<polygon fill="black" stroke="black" stroke-width="0.1" points="80.73,-346.9 71.18,-342.31 75.78,-351.85 80.73,-346.9"/>
<text text-anchor="middle" x="127.56" y="-446.48" font-family="Times,serif" font-size="14.00">gravel*3056</text>
</g>
<!-- 2,0 (Sodium Sulfate) -->
<g id="node3" class="node">
<title>2,0 (Sodium Sulfate)</title>
<ellipse fill="none" stroke="black" cx="550.27" cy="-18" rx="106.68" ry="18"/>
<text text-anchor="middle" x="550.27" y="-14.3" font-family="Times,serif" font-size="14.00">2,0 (Sodium Sulfate)</text>
</g>
<!-- &#45;2,&#45;3 (Trains)&#45;&gt;2,0 (Sodium Sulfate) -->
<g id="edge2" class="edge">
<title>&#45;2,&#45;3 (Trains)&#45;&gt;2,0 (Sodium Sulfate)</title>
<path fill="none" stroke="black" stroke-width="1.05" d="M513.7,-306.78C520.23,-255.26 538.79,-108.63 546.67,-46.44"/>
<polygon fill="black" stroke="black" stroke-width="1.05" points="550.18,-46.55 547.97,-36.19 543.24,-45.67 550.18,-46.55"/>
<text text-anchor="middle" x="481.69" y="-180.41" font-family="Times,serif" font-size="14.00">gravel*32160</text>
</g>
<!-- &#45;2,&#45;3 (Trains)&#45;&gt;1,8 (Salt) -->
<g id="edge5" class="edge">
<title>&#45;2,&#45;3 (Trains)&#45;&gt;1,8 (Salt)</title>
<path fill="none" stroke="black" stroke-width="2.78" d="M440.91,-325.07C352.77,-325.07 203.13,-325.07 118.07,-325.07"/>
<polygon fill="black" stroke="black" stroke-width="2.78" points="118.02,-321.57 108.02,-325.07 118.02,-328.57 118.02,-321.57"/>
<text text-anchor="middle" x="230.99" y="-328.87" font-family="Times,serif" font-size="14.00">gravel*85251</text>
</g>
<!-- &#45;6,7 () -->
<g id="node4" class="node">
<title>&#45;6,7 ()</title>
<ellipse fill="none" stroke="black" cx="669.13" cy="-196.42" rx="38.19" ry="18"/>
<text text-anchor="middle" x="669.13" y="-192.72" font-family="Times,serif" font-size="14.00">&#45;6,7 ()</text>
</g>
<!-- &#45;6,7 ()&#45;&gt;&#45;2,&#45;3 (Trains) -->
<g id="edge3" class="edge">
<title>&#45;6,7 ()&#45;&gt;&#45;2,&#45;3 (Trains)</title>
<path fill="none" stroke="black" stroke-width="1.96" d="M649.79,-212.19C622.52,-234.43 572.57,-275.17 540.73,-301.14"/>
<polygon fill="black" stroke="black" stroke-width="1.96" points="538.19,-298.69 532.65,-307.73 542.61,-304.12 538.19,-298.69"/>
<text text-anchor="middle" x="546.76" y="-260.47" font-family="Times,serif" font-size="14.00">gravel*60020</text>
</g>
<!-- 3,9 (Copper, molten &amp; plate) -->
<g id="node5" class="node">
<title>3,9 (Copper, molten &amp; plate)</title>
<ellipse fill="none" stroke="black" cx="282.67" cy="-96.35" rx="143.77" ry="18"/>
<text text-anchor="middle" x="282.67" y="-92.65" font-family="Times,serif" font-size="14.00">3,9 (Copper, molten &amp; plate)</text>
</g>
<!-- 3,9 (Copper, molten &amp; plate)&#45;&gt;&#45;2,&#45;3 (Trains) -->
<g id="edge4" class="edge">
<title>3,9 (Copper, molten &amp; plate)&#45;&gt;&#45;2,&#45;3 (Trains)</title>
<path fill="none" stroke="black" stroke-width="1.45" d="M300.61,-114.29C341.21,-154.9 440.18,-253.86 486.59,-300.27"/>
<polygon fill="black" stroke="black" stroke-width="1.45" points="484.29,-302.92 493.84,-307.52 489.24,-297.97 484.29,-302.92"/>
<text text-anchor="middle" x="345.1" y="-211.08" font-family="Times,serif" font-size="14.00">gravel*44553</text>
</g>
<!-- 3,9 (Copper, molten &amp; plate)&#45;&gt;1,8 (Salt) -->
<g id="edge9" class="edge">
<title>3,9 (Copper, molten &amp; plate)&#45;&gt;1,8 (Salt)</title>
<path fill="none" stroke="black" stroke-width="0.49" d="M264.72,-114.29C224.02,-154.99 124.66,-254.35 78.4,-300.62"/>
<polygon fill="black" stroke="black" stroke-width="0.49" points="75.78,-298.28 71.18,-307.83 80.73,-303.23 75.78,-298.28"/>
<text text-anchor="middle" x="123.06" y="-211.25" font-family="Times,serif" font-size="14.00">gravel*15008</text>
</g>
<!-- 1,10 (Iron Ore Dust) -->
<g id="node7" class="node">
<title>1,10 (Iron Ore Dust)</title>
<ellipse fill="none" stroke="black" cx="681.33" cy="-408.57" rx="104.78" ry="18"/>
<text text-anchor="middle" x="681.33" y="-404.87" font-family="Times,serif" font-size="14.00">1,10 (Iron Ore Dust)</text>
</g>
<!-- 1,10 (Iron Ore Dust)&#45;&gt;&#45;2,&#45;3 (Trains) -->
<g id="edge7" class="edge">
<title>1,10 (Iron Ore Dust)&#45;&gt;&#45;2,&#45;3 (Trains)</title>
<path fill="none" stroke="black" stroke-width="0.49" d="M646.53,-391.47C619.57,-378.22 582.11,-359.82 553.47,-345.75"/>
<polygon fill="black" stroke="black" stroke-width="0.49" points="554.64,-342.42 544.12,-341.15 551.55,-348.7 554.64,-342.42"/>
<text text-anchor="middle" x="551.5" y="-372.41" font-family="Times,serif" font-size="14.00">gravel*15008</text>
</g>
<!-- 2,10 (Nickel plate) -->
<g id="node8" class="node">
<title>2,10 (Nickel plate)</title>
<ellipse fill="none" stroke="black" cx="542.85" cy="-638.45" rx="96.68" ry="18"/>
<text text-anchor="middle" x="542.85" y="-634.75" font-family="Times,serif" font-size="14.00">2,10 (Nickel plate)</text>
</g>
<!-- 2,10 (Nickel plate)&#45;&gt;&#45;2,&#45;3 (Trains) -->
<g id="edge8" class="edge">
<title>2,10 (Nickel plate)&#45;&gt;&#45;2,&#45;3 (Trains)</title>
<path fill="none" stroke="black" stroke-width="0.49" d="M541.02,-620.25C535.76,-567.89 520.58,-416.61 514.23,-353.38"/>
<polygon fill="black" stroke="black" stroke-width="0.49" points="517.7,-352.92 513.22,-343.32 510.74,-353.62 517.7,-352.92"/>
<text text-anchor="middle" x="479.12" y="-490.61" font-family="Times,serif" font-size="14.00">gravel*15008</text>
</g>
</g>
</svg>
