<?xml version="1.0" encoding="UTF-8" standalone="no"?>
<!DOCTYPE svg PUBLIC "-//W3C//DTD SVG 1.1//EN"
 "http://www.w3.org/Graphics/SVG/1.1/DTD/svg11.dtd">
<!-- Generated by graphviz version 2.43.0 (0)
 -->
<!-- Title: %3 Pages: 1 -->
<svg width="3630pt" height="3430pt"
 viewBox="0.00 0.00 3630.10 3429.67" xmlns="http://www.w3.org/2000/svg" xmlns:xlink="http://www.w3.org/1999/xlink">
<g id="graph0" class="graph" transform="scale(1 1) rotate(0) translate(4 3425.67)">
<title>%3</title>
<polygon fill="white" stroke="transparent" points="-4,4 -4,-3425.67 3626.1,-3425.67 3626.1,4 -4,4"/>
<!-- 3,9 (Copper, molten &amp; plate) -->
<g id="node1" class="node">
<title>3,9 (Copper, molten &amp; plate)</title>
<ellipse fill="none" stroke="black" cx="3426.06" cy="-1096.69" rx="143.77" ry="18"/>
<text text-anchor="middle" x="3426.06" y="-1092.99" font-family="Times,serif" font-size="14.00">3,9 (Copper, molten &amp; plate)</text>
</g>
<!-- 0,0 (LE BUS) -->
<g id="node2" class="node">
<title>0,0 (LE BUS)</title>
<ellipse fill="none" stroke="black" cx="3097.15" cy="-565.49" rx="71.49" ry="18"/>
<text text-anchor="middle" x="3097.15" y="-561.79" font-family="Times,serif" font-size="14.00">0,0 (LE BUS)</text>
</g>
<!-- 3,9 (Copper, molten &amp; plate)&#45;&gt;0,0 (LE BUS) -->
<g id="edge1" class="edge">
<title>3,9 (Copper, molten &amp; plate)&#45;&gt;0,0 (LE BUS)</title>
<path fill="none" stroke="black" stroke-width="3.68" d="M3414.93,-1078.71C3366.22,-1000.05 3171.72,-685.92 3113.62,-592.09"/>
<polygon fill="black" stroke="black" stroke-width="3.68" points="3116.52,-590.13 3108.28,-583.47 3110.57,-593.81 3116.52,-590.13"/>
<text text-anchor="middle" x="3188.77" y="-839.2" font-family="Times,serif" font-size="14.00">copper&#45;plate*224400</text>
</g>
<!-- 3,3 (Random electronic components, Small Parts) -->
<g id="node3" class="node">
<title>3,3 (Random electronic components, Small Parts)</title>
<ellipse fill="none" stroke="black" cx="2598.57" cy="-3232.69" rx="240.46" ry="18"/>
<text text-anchor="middle" x="2598.57" y="-3228.99" font-family="Times,serif" font-size="14.00">3,3 (Random electronic components, Small Parts)</text>
</g>
<!-- 3,9 (Copper, molten &amp; plate)&#45;&gt;3,3 (Random electronic components, Small Parts) -->
<g id="edge2" class="edge">
<title>3,9 (Copper, molten &amp; plate)&#45;&gt;3,3 (Random electronic components, Small Parts)</title>
<path fill="none" stroke="black" stroke-width="2.1" d="M3419.03,-1114.84C3344.48,-1307.26 2700.27,-2970.17 2609.24,-3205.13"/>
<polygon fill="black" stroke="black" stroke-width="2.1" points="2605.9,-3204.07 2605.56,-3214.66 2612.43,-3206.6 2605.9,-3204.07"/>
<text text-anchor="middle" x="2938.64" y="-2163.78" font-family="Times,serif" font-size="14.00">copper&#45;plate*128160</text>
</g>
<!-- 7,1 (item=aerogel item=clean&#45;rf&#45;gel Aerogel) -->
<g id="node5" class="node">
<title>7,1 (item=aerogel item=clean&#45;rf&#45;gel Aerogel)</title>
<ellipse fill="none" stroke="black" cx="2598.57" cy="-188.98" rx="220.96" ry="18"/>
<text text-anchor="middle" x="2598.57" y="-185.28" font-family="Times,serif" font-size="14.00">7,1 (item=aerogel item=clean&#45;rf&#45;gel Aerogel)</text>
</g>
<!-- 3,9 (Copper, molten &amp; plate)&#45;&gt;7,1 (item=aerogel item=clean&#45;rf&#45;gel Aerogel) -->
<g id="edge13" class="edge">
<title>3,9 (Copper, molten &amp; plate)&#45;&gt;7,1 (item=aerogel item=clean&#45;rf&#45;gel Aerogel)</title>
<path fill="none" stroke="black" stroke-width="0.25" d="M3409.53,-1078.56C3305.68,-964.64 2743.75,-348.23 2621.89,-214.56"/>
<polygon fill="black" stroke="black" stroke-width="0.25" points="2624.46,-212.19 2615.14,-207.15 2619.29,-216.9 2624.46,-212.19"/>
<text text-anchor="middle" x="2944.71" y="-650.36" font-family="Times,serif" font-size="14.00">copper&#45;plate*15120</text>
</g>
<!-- 2,&#45;1 (Ammonia) -->
<g id="node6" class="node">
<title>2,&#45;1 (Ammonia)</title>
<ellipse fill="none" stroke="black" cx="3540.86" cy="-1710.83" rx="81.49" ry="18"/>
<text text-anchor="middle" x="3540.86" y="-1707.13" font-family="Times,serif" font-size="14.00">2,&#45;1 (Ammonia)</text>
</g>
<!-- 3,9 (Copper, molten &amp; plate)&#45;&gt;2,&#45;1 (Ammonia) -->
<g id="edge7" class="edge">
<title>3,9 (Copper, molten &amp; plate)&#45;&gt;2,&#45;1 (Ammonia)</title>
<path fill="none" stroke="black" stroke-width="2.85" d="M3429.43,-1114.74C3445.67,-1201.61 3515.81,-1576.82 3535.63,-1682.84"/>
<polygon fill="black" stroke="black" stroke-width="2.85" points="3532.21,-1683.6 3537.49,-1692.79 3539.09,-1682.31 3532.21,-1683.6"/>
<text text-anchor="middle" x="3407.03" y="-1402.59" font-family="Times,serif" font-size="14.00">copper&#45;plate*173600</text>
</g>
<!-- &#45;5,0 (item=small&#45;lampitem=petri&#45;dish Lamptri dishes) -->
<g id="node8" class="node">
<title>&#45;5,0 (item=small&#45;lampitem=petri&#45;dish Lamptri dishes)</title>
<ellipse fill="none" stroke="black" cx="1997.64" cy="-18" rx="263.75" ry="18"/>
<text text-anchor="middle" x="1997.64" y="-14.3" font-family="Times,serif" font-size="14.00">&#45;5,0 (item=small&#45;lampitem=petri&#45;dish Lamptri dishes)</text>
</g>
<!-- 3,9 (Copper, molten &amp; plate)&#45;&gt;&#45;5,0 (item=small&#45;lampitem=petri&#45;dish Lamptri dishes) -->
<g id="edge9" class="edge">
<title>3,9 (Copper, molten &amp; plate)&#45;&gt;&#45;5,0 (item=small&#45;lampitem=petri&#45;dish Lamptri dishes)</title>
<path fill="none" stroke="black" stroke-width="0.73" d="M3402.46,-1078.87C3234.65,-952.14 2223.17,-188.31 2029.63,-42.16"/>
<polygon fill="black" stroke="black" stroke-width="0.73" points="2031.64,-39.29 2021.55,-36.06 2027.42,-44.88 2031.64,-39.29"/>
<text text-anchor="middle" x="2645.05" y="-564.32" font-family="Times,serif" font-size="14.00">copper&#45;plate*44560</text>
</g>
<!-- 6,4 (Electronic components) -->
<g id="node9" class="node">
<title>6,4 (Electronic components)</title>
<ellipse fill="none" stroke="black" cx="3097.15" cy="-2856.18" rx="141.88" ry="18"/>
<text text-anchor="middle" x="3097.15" y="-2852.48" font-family="Times,serif" font-size="14.00">6,4 (Electronic components)</text>
</g>
<!-- 3,9 (Copper, molten &amp; plate)&#45;&gt;6,4 (Electronic components) -->
<g id="edge28" class="edge">
<title>3,9 (Copper, molten &amp; plate)&#45;&gt;6,4 (Electronic components)</title>
<path fill="none" stroke="black" stroke-width="0.47" d="M3422.64,-1114.97C3390.51,-1286.85 3141.73,-2617.71 3102.39,-2828.18"/>
<polygon fill="black" stroke="black" stroke-width="0.47" points="3098.92,-2827.66 3100.53,-2838.13 3105.8,-2828.95 3098.92,-2827.66"/>
<text text-anchor="middle" x="3191.51" y="-1975.38" font-family="Times,serif" font-size="14.00">copper&#45;plate*28720</text>
</g>
<!-- 8,8 (Glass and lamps) -->
<g id="node10" class="node">
<title>8,8 (Glass and lamps)</title>
<ellipse fill="none" stroke="black" cx="1375.52" cy="-75.65" rx="111.28" ry="18"/>
<text text-anchor="middle" x="1375.52" y="-71.95" font-family="Times,serif" font-size="14.00">8,8 (Glass and lamps)</text>
</g>
<!-- 3,9 (Copper, molten &amp; plate)&#45;&gt;8,8 (Glass and lamps) -->
<g id="edge20" class="edge">
<title>3,9 (Copper, molten &amp; plate)&#45;&gt;8,8 (Glass and lamps)</title>
<path fill="none" stroke="black" stroke-width="2.88" d="M3390.9,-1079.19C3145.55,-957.02 1691.23,-232.85 1419.31,-97.45"/>
<polygon fill="black" stroke="black" stroke-width="2.88" points="1420.65,-94.21 1410.14,-92.88 1417.53,-100.47 1420.65,-94.21"/>
<text text-anchor="middle" x="2329.6" y="-592.12" font-family="Times,serif" font-size="14.00">copper&#45;plate*175280</text>
</g>
<!-- &#45;1,12 (I can&#39;t believe it&#39;s more latex duplicates) -->
<g id="node11" class="node">
<title>&#45;1,12 (I can&#39;t believe it&#39;s more latex duplicates)</title>
<ellipse fill="none" stroke="black" cx="816.24" cy="-354.14" rx="229.36" ry="18"/>
<text text-anchor="middle" x="816.24" y="-350.44" font-family="Times,serif" font-size="14.00">&#45;1,12 (I can&#39;t believe it&#39;s more latex duplicates)</text>
</g>
<!-- 3,9 (Copper, molten &amp; plate)&#45;&gt;&#45;1,12 (I can&#39;t believe it&#39;s more latex duplicates) -->
<g id="edge29" class="edge">
<title>3,9 (Copper, molten &amp; plate)&#45;&gt;&#45;1,12 (I can&#39;t believe it&#39;s more latex duplicates)</title>
<path fill="none" stroke="black" stroke-width="0.41" d="M3367.89,-1080.14C3024.41,-982.41 1263.47,-481.38 887.09,-374.29"/>
<polygon fill="black" stroke="black" stroke-width="0.41" points="887.98,-370.91 877.41,-371.54 886.07,-377.64 887.98,-370.91"/>
<text text-anchor="middle" x="2056.49" y="-731.02" font-family="Times,serif" font-size="14.00">copper&#45;plate*25040</text>
</g>
<!-- &#45;5,2 (Optical fiber) -->
<g id="node12" class="node">
<title>&#45;5,2 (Optical fiber)</title>
<ellipse fill="none" stroke="black" cx="395.33" cy="-815.85" rx="96.38" ry="18"/>
<text text-anchor="middle" x="395.33" y="-812.15" font-family="Times,serif" font-size="14.00">&#45;5,2 (Optical fiber)</text>
</g>
<!-- 3,9 (Copper, molten &amp; plate)&#45;&gt;&#45;5,2 (Optical fiber) -->
<g id="edge14" class="edge">
<title>3,9 (Copper, molten &amp; plate)&#45;&gt;&#45;5,2 (Optical fiber)</title>
<path fill="none" stroke="black" stroke-width="0.68" d="M3310.49,-1085.98C2823.11,-1040.82 940.01,-866.33 491.58,-824.77"/>
<polygon fill="black" stroke="black" stroke-width="0.68" points="491.85,-821.28 481.57,-823.85 491.21,-828.25 491.85,-821.28"/>
<text text-anchor="middle" x="1830.04" y="-959.18" font-family="Times,serif" font-size="14.00">copper&#45;plate*41200</text>
</g>
<!-- 2,4 (Formica and Phenolic boards) -->
<g id="node13" class="node">
<title>2,4 (Formica and Phenolic boards)</title>
<ellipse fill="none" stroke="black" cx="169.63" cy="-1398.44" rx="169.77" ry="18"/>
<text text-anchor="middle" x="169.63" y="-1394.74" font-family="Times,serif" font-size="14.00">2,4 (Formica and Phenolic boards)</text>
</g>
<!-- 3,9 (Copper, molten &amp; plate)&#45;&gt;2,4 (Formica and Phenolic boards) -->
<g id="edge18" class="edge">
<title>3,9 (Copper, molten &amp; plate)&#45;&gt;2,4 (Formica and Phenolic boards)</title>
<path fill="none" stroke="black" stroke-width="0.48" d="M3310.16,-1107.43C2811.29,-1153.66 847.81,-1335.6 307.76,-1385.65"/>
<polygon fill="black" stroke="black" stroke-width="0.48" points="307.22,-1382.18 297.58,-1386.59 307.86,-1389.15 307.22,-1382.18"/>
<text text-anchor="middle" x="1737.96" y="-1250.34" font-family="Times,serif" font-size="14.00">copper&#45;plate*29520</text>
</g>
<!-- 2,14 (Latex) -->
<g id="node14" class="node">
<title>2,14 (Latex)</title>
<ellipse fill="none" stroke="black" cx="169.63" cy="-2023.22" rx="66.89" ry="18"/>
<text text-anchor="middle" x="169.63" y="-2019.52" font-family="Times,serif" font-size="14.00">2,14 (Latex)</text>
</g>
<!-- 3,9 (Copper, molten &amp; plate)&#45;&gt;2,14 (Latex) -->
<g id="edge17" class="edge">
<title>3,9 (Copper, molten &amp; plate)&#45;&gt;2,14 (Latex)</title>
<path fill="none" stroke="black" stroke-width="0.82" d="M3368.15,-1113.17C2968.09,-1227 618.76,-1895.44 225.47,-2007.34"/>
<polygon fill="black" stroke="black" stroke-width="0.82" points="224.4,-2004 215.74,-2010.11 226.32,-2010.74 224.4,-2004"/>
<text text-anchor="middle" x="1725.81" y="-1564.05" font-family="Times,serif" font-size="14.00">copper&#45;plate*50080</text>
</g>
<!-- 4,6 (Circuit substrate and Doped silicon) -->
<g id="node15" class="node">
<title>4,6 (Circuit substrate and Doped silicon)</title>
<ellipse fill="none" stroke="black" cx="395.33" cy="-2605.81" rx="199.56" ry="18"/>
<text text-anchor="middle" x="395.33" y="-2602.11" font-family="Times,serif" font-size="14.00">4,6 (Circuit substrate and Doped silicon)</text>
</g>
<!-- 3,9 (Copper, molten &amp; plate)&#45;&gt;4,6 (Circuit substrate and Doped silicon) -->
<g id="edge31" class="edge">
<title>3,9 (Copper, molten &amp; plate)&#45;&gt;4,6 (Circuit substrate and Doped silicon)</title>
<path fill="none" stroke="black" stroke-width="0.03" d="M3390.97,-1114.16C3079.42,-1269.3 789.82,-2409.39 440.08,-2583.53"/>
<polygon fill="black" stroke="black" stroke-width="0.03" points="438.4,-2580.46 431.01,-2588.05 441.52,-2586.73 438.4,-2580.46"/>
<text text-anchor="middle" x="1849.03" y="-1852.65" font-family="Times,serif" font-size="14.00">copper&#45;plate*2080</text>
</g>
<!-- &#45;6,&#45;4 (High&#45;Power Resistors, Ceramic Capacitor, Inductor) -->
<g id="node16" class="node">
<title>&#45;6,&#45;4 (High&#45;Power Resistors, Ceramic Capacitor, Inductor)</title>
<ellipse fill="none" stroke="black" cx="816.24" cy="-3067.53" rx="278.35" ry="18"/>
<text text-anchor="middle" x="816.24" y="-3063.83" font-family="Times,serif" font-size="14.00">&#45;6,&#45;4 (High&#45;Power Resistors, Ceramic Capacitor, Inductor)</text>
</g>
<!-- 3,9 (Copper, molten &amp; plate)&#45;&gt;&#45;6,&#45;4 (High&#45;Power Resistors, Ceramic Capacitor, Inductor) -->
<g id="edge26" class="edge">
<title>3,9 (Copper, molten &amp; plate)&#45;&gt;&#45;6,&#45;4 (High&#45;Power Resistors, Ceramic Capacitor, Inductor)</title>
<path fill="none" stroke="black" stroke-width="0.47" d="M3402.3,-1114.64C3159.26,-1298.17 1128.19,-2831.96 848.2,-3043.4"/>
<polygon fill="black" stroke="black" stroke-width="0.47" points="845.94,-3040.72 840.07,-3049.54 850.16,-3046.31 845.94,-3040.72"/>
<text text-anchor="middle" x="2054.25" y="-2082.82" font-family="Times,serif" font-size="14.00">copper&#45;plate*28880</text>
</g>
<!-- 2,5 (Simple Circuits) -->
<g id="node17" class="node">
<title>2,5 (Simple Circuits)</title>
<ellipse fill="none" stroke="black" cx="1375.52" cy="-3346.02" rx="106.68" ry="18"/>
<text text-anchor="middle" x="1375.52" y="-3342.32" font-family="Times,serif" font-size="14.00">2,5 (Simple Circuits)</text>
</g>
<!-- 3,9 (Copper, molten &amp; plate)&#45;&gt;2,5 (Simple Circuits) -->
<g id="edge25" class="edge">
<title>3,9 (Copper, molten &amp; plate)&#45;&gt;2,5 (Simple Circuits)</title>
<path fill="none" stroke="black" stroke-width="0.27" d="M3409.55,-1114.8C3228.35,-1313.57 1612.09,-3086.52 1398.74,-3320.56"/>
<polygon fill="black" stroke="black" stroke-width="0.27" points="1395.89,-3318.48 1391.74,-3328.23 1401.07,-3323.2 1395.89,-3318.48"/>
<text text-anchor="middle" x="2333.14" y="-2221.48" font-family="Times,serif" font-size="14.00">copper&#45;plate*16160</text>
</g>
<!-- &#45;6,8 (Copper plate duplicate) -->
<g id="node4" class="node">
<title>&#45;6,8 (Copper plate duplicate)</title>
<ellipse fill="none" stroke="black" cx="1997.64" cy="-3403.67" rx="143.77" ry="18"/>
<text text-anchor="middle" x="1997.64" y="-3399.97" font-family="Times,serif" font-size="14.00">&#45;6,8 (Copper plate duplicate)</text>
</g>
<!-- &#45;6,8 (Copper plate duplicate)&#45;&gt;0,0 (LE BUS) -->
<g id="edge4" class="edge">
<title>&#45;6,8 (Copper plate duplicate)&#45;&gt;0,0 (LE BUS)</title>
<path fill="none" stroke="black" stroke-width="2.38" d="M2004.66,-3385.55C2092.6,-3158.55 2978.81,-870.97 3086.46,-593.09"/>
<polygon fill="black" stroke="black" stroke-width="2.38" points="3089.75,-594.31 3090.09,-583.72 3083.22,-591.78 3089.75,-594.31"/>
<text text-anchor="middle" x="2470.06" y="-1993.12" font-family="Times,serif" font-size="14.00">copper&#45;plate*144880</text>
</g>
<!-- &#45;6,8 (Copper plate duplicate)&#45;&gt;3,3 (Random electronic components, Small Parts) -->
<g id="edge5" class="edge">
<title>&#45;6,8 (Copper plate duplicate)&#45;&gt;3,3 (Random electronic components, Small Parts)</title>
<path fill="none" stroke="black" stroke-width="2.26" d="M2055.8,-3387.12C2166.54,-3355.61 2407.27,-3287.12 2527.4,-3252.94"/>
<polygon fill="black" stroke="black" stroke-width="2.26" points="2528.58,-3256.24 2537.24,-3250.14 2526.67,-3249.51 2528.58,-3256.24"/>
<text text-anchor="middle" x="2216.1" y="-3323.83" font-family="Times,serif" font-size="14.00">copper&#45;plate*137840</text>
</g>
<!-- &#45;6,8 (Copper plate duplicate)&#45;&gt;7,1 (item=aerogel item=clean&#45;rf&#45;gel Aerogel) -->
<g id="edge3" class="edge">
<title>&#45;6,8 (Copper plate duplicate)&#45;&gt;7,1 (item=aerogel item=clean&#45;rf&#45;gel Aerogel)</title>
<path fill="none" stroke="black" stroke-width="0.74" d="M2001.02,-3385.59C2046.52,-3142.2 2537.01,-518.28 2593.31,-217.1"/>
<polygon fill="black" stroke="black" stroke-width="0.74" points="2596.8,-217.48 2595.2,-207.01 2589.92,-216.19 2596.8,-217.48"/>
<text text-anchor="middle" x="2226.17" y="-1805.14" font-family="Times,serif" font-size="14.00">copper&#45;plate*45360</text>
</g>
<!-- &#45;6,8 (Copper plate duplicate)&#45;&gt;2,&#45;1 (Ammonia) -->
<g id="edge6" class="edge">
<title>&#45;6,8 (Copper plate duplicate)&#45;&gt;2,&#45;1 (Ammonia)</title>
<path fill="none" stroke="black" stroke-width="2.2" d="M2014.18,-3385.52C2167.44,-3217.4 3337.79,-1933.59 3517.68,-1736.26"/>
<polygon fill="black" stroke="black" stroke-width="2.2" points="3520.44,-1738.43 3524.59,-1728.68 3515.27,-1733.72 3520.44,-1738.43"/>
<text text-anchor="middle" x="2690.43" y="-2564.69" font-family="Times,serif" font-size="14.00">copper&#45;plate*134320</text>
</g>
<!-- &#45;6,8 (Copper plate duplicate)&#45;&gt;&#45;5,0 (item=small&#45;lampitem=petri&#45;dish Lamptri dishes) -->
<g id="edge19" class="edge">
<title>&#45;6,8 (Copper plate duplicate)&#45;&gt;&#45;5,0 (item=small&#45;lampitem=petri&#45;dish Lamptri dishes)</title>
<path fill="none" stroke="black" stroke-width="0.49" d="M1997.64,-3385.45C1997.64,-3133.92 1997.64,-357.09 1997.64,-46.24"/>
<polygon fill="black" stroke="black" stroke-width="0.49" points="2001.14,-46.23 1997.64,-36.23 1994.14,-46.23 2001.14,-46.23"/>
<text text-anchor="middle" x="1926.64" y="-1719.65" font-family="Times,serif" font-size="14.00">copper&#45;plate*30080</text>
</g>
<!-- &#45;6,8 (Copper plate duplicate)&#45;&gt;6,4 (Electronic components) -->
<g id="edge27" class="edge">
<title>&#45;6,8 (Copper plate duplicate)&#45;&gt;6,4 (Electronic components)</title>
<path fill="none" stroke="black" stroke-width="0.69" d="M2032.98,-3386.07C2195.66,-3305.07 2872.26,-2968.16 3052.74,-2878.29"/>
<polygon fill="black" stroke="black" stroke-width="0.69" points="3054.56,-2881.3 3061.95,-2873.71 3051.44,-2875.03 3054.56,-2881.3"/>
<text text-anchor="middle" x="2471.86" y="-3135.98" font-family="Times,serif" font-size="14.00">copper&#45;plate*42160</text>
</g>
<!-- &#45;6,8 (Copper plate duplicate)&#45;&gt;8,8 (Glass and lamps) -->
<g id="edge11" class="edge">
<title>&#45;6,8 (Copper plate duplicate)&#45;&gt;8,8 (Glass and lamps)</title>
<path fill="none" stroke="black" stroke-width="2.46" d="M1994.22,-3385.36C1947.54,-3135.68 1438.29,-411.42 1380.8,-103.85"/>
<polygon fill="black" stroke="black" stroke-width="2.46" points="1384.22,-103.13 1378.94,-93.94 1377.34,-104.41 1384.22,-103.13"/>
<text text-anchor="middle" x="1612.01" y="-1748.41" font-family="Times,serif" font-size="14.00">copper&#45;plate*149840</text>
</g>
<!-- &#45;6,8 (Copper plate duplicate)&#45;&gt;&#45;1,12 (I can&#39;t believe it&#39;s more latex duplicates) -->
<g id="edge12" class="edge">
<title>&#45;6,8 (Copper plate duplicate)&#45;&gt;&#45;1,12 (I can&#39;t believe it&#39;s more latex duplicates)</title>
<path fill="none" stroke="black" stroke-width="0.82" d="M1990.55,-3385.38C1898.5,-3147.77 938.9,-670.76 826.89,-381.63"/>
<polygon fill="black" stroke="black" stroke-width="0.82" points="830.15,-380.33 823.27,-372.27 823.62,-382.86 830.15,-380.33"/>
<text text-anchor="middle" x="1337.72" y="-1887.3" font-family="Times,serif" font-size="14.00">copper&#45;plate*50080</text>
</g>
<!-- &#45;6,8 (Copper plate duplicate)&#45;&gt;&#45;5,2 (Optical fiber) -->
<g id="edge21" class="edge">
<title>&#45;6,8 (Copper plate duplicate)&#45;&gt;&#45;5,2 (Optical fiber)</title>
<path fill="none" stroke="black" stroke-width="0.51" d="M1986.33,-3385.41C1852.54,-3169.33 573.53,-1103.65 412.06,-842.87"/>
<polygon fill="black" stroke="black" stroke-width="0.51" points="414.83,-840.69 406.59,-834.03 408.88,-844.38 414.83,-840.69"/>
<text text-anchor="middle" x="1128.2" y="-2117.94" font-family="Times,serif" font-size="14.00">copper&#45;plate*30800</text>
</g>
<!-- &#45;6,8 (Copper plate duplicate)&#45;&gt;2,4 (Formica and Phenolic boards) -->
<g id="edge15" class="edge">
<title>&#45;6,8 (Copper plate duplicate)&#45;&gt;2,4 (Formica and Phenolic boards)</title>
<path fill="none" stroke="black" stroke-width="0.63" d="M1981.28,-3385.72C1812.6,-3200.69 392.49,-1642.91 192.91,-1423.97"/>
<polygon fill="black" stroke="black" stroke-width="0.63" points="195.39,-1421.51 186.07,-1416.47 190.22,-1426.22 195.39,-1421.51"/>
<text text-anchor="middle" x="1016.09" y="-2408.65" font-family="Times,serif" font-size="14.00">copper&#45;plate*38240</text>
</g>
<!-- &#45;6,8 (Copper plate duplicate)&#45;&gt;2,14 (Latex) -->
<g id="edge23" class="edge">
<title>&#45;6,8 (Copper plate duplicate)&#45;&gt;2,14 (Latex)</title>
<path fill="none" stroke="black" stroke-width="0.82" d="M1973.86,-3385.71C1777.28,-3237.26 422.82,-2214.42 200.48,-2046.52"/>
<polygon fill="black" stroke="black" stroke-width="0.82" points="202.27,-2043.49 192.19,-2040.25 198.06,-2049.07 202.27,-2043.49"/>
<text text-anchor="middle" x="1016.17" y="-2719.92" font-family="Times,serif" font-size="14.00">copper&#45;plate*50080</text>
</g>
<!-- &#45;6,8 (Copper plate duplicate)&#45;&gt;4,6 (Circuit substrate and Doped silicon) -->
<g id="edge22" class="edge">
<title>&#45;6,8 (Copper plate duplicate)&#45;&gt;4,6 (Circuit substrate and Doped silicon)</title>
<path fill="none" stroke="black" stroke-width="0.07" d="M1962.3,-3386.08C1752.82,-3281.77 675,-2745.07 440.43,-2628.27"/>
<polygon fill="black" stroke="black" stroke-width="0.07" points="441.68,-2624.98 431.17,-2623.66 438.56,-2631.25 441.68,-2624.98"/>
<text text-anchor="middle" x="1134.87" y="-3010.97" font-family="Times,serif" font-size="14.00">copper&#45;plate*4160</text>
</g>
<!-- &#45;6,8 (Copper plate duplicate)&#45;&gt;&#45;6,&#45;4 (High&#45;Power Resistors, Ceramic Capacitor, Inductor) -->
<g id="edge24" class="edge">
<title>&#45;6,8 (Copper plate duplicate)&#45;&gt;&#45;6,&#45;4 (High&#45;Power Resistors, Ceramic Capacitor, Inductor)</title>
<path fill="none" stroke="black" stroke-width="0.36" d="M1939.46,-3387.11C1742.78,-3331.15 1103.01,-3149.13 887.7,-3087.87"/>
<polygon fill="black" stroke="black" stroke-width="0.36" points="888.66,-3084.5 878.08,-3085.13 886.74,-3091.23 888.66,-3084.5"/>
<text text-anchor="middle" x="1342.58" y="-3241.29" font-family="Times,serif" font-size="14.00">copper&#45;plate*22240</text>
</g>
<!-- &#45;6,8 (Copper plate duplicate)&#45;&gt;2,5 (Simple Circuits) -->
<g id="edge30" class="edge">
<title>&#45;6,8 (Copper plate duplicate)&#45;&gt;2,5 (Simple Circuits)</title>
<path fill="none" stroke="black" stroke-width="0.1" d="M1882.08,-3392.96C1766.57,-3382.26 1590.56,-3365.95 1479.36,-3355.64"/>
<polygon fill="black" stroke="black" stroke-width="0.1" points="1479.42,-3352.13 1469.14,-3354.7 1478.78,-3359.1 1479.42,-3352.13"/>
<text text-anchor="middle" x="1614.22" y="-3378.1" font-family="Times,serif" font-size="14.00">copper&#45;plate*6080</text>
</g>
<!-- &#45;2,5 (Rare Earth Oxides) -->
<g id="node7" class="node">
<title>&#45;2,5 (Rare Earth Oxides)</title>
<ellipse fill="none" stroke="black" cx="3426.06" cy="-2324.98" rx="124.28" ry="18"/>
<text text-anchor="middle" x="3426.06" y="-2321.28" font-family="Times,serif" font-size="14.00">&#45;2,5 (Rare Earth Oxides)</text>
</g>
<!-- &#45;2,5 (Rare Earth Oxides)&#45;&gt;3,3 (Random electronic components, Small Parts) -->
<g id="edge16" class="edge">
<title>&#45;2,5 (Rare Earth Oxides)&#45;&gt;3,3 (Random electronic components, Small Parts)</title>
<path fill="none" stroke="black" stroke-width="0.09" d="M3409.53,-2343.11C3305.68,-2457.03 2743.75,-3073.44 2621.89,-3207.11"/>
<polygon fill="black" stroke="black" stroke-width="0.09" points="2619.29,-3204.77 2615.14,-3214.51 2624.46,-3209.48 2619.29,-3204.77"/>
<text text-anchor="middle" x="2949.21" y="-2778.91" font-family="Times,serif" font-size="14.00">copper&#45;plate*5344</text>
</g>
<!-- &#45;2,5 (Rare Earth Oxides)&#45;&gt;2,&#45;1 (Ammonia) -->
<g id="edge8" class="edge">
<title>&#45;2,5 (Rare Earth Oxides)&#45;&gt;2,&#45;1 (Ammonia)</title>
<path fill="none" stroke="black" stroke-width="0.2" d="M3429.43,-2306.93C3445.67,-2220.06 3515.81,-1844.85 3535.63,-1738.83"/>
<polygon fill="black" stroke="black" stroke-width="0.2" points="3539.09,-1739.36 3537.49,-1728.88 3532.21,-1738.07 3539.09,-1739.36"/>
<text text-anchor="middle" x="3411.53" y="-2026.68" font-family="Times,serif" font-size="14.00">copper&#45;plate*12256</text>
</g>
<!-- &#45;2,5 (Rare Earth Oxides)&#45;&gt;6,4 (Electronic components) -->
<g id="edge10" class="edge">
<title>&#45;2,5 (Rare Earth Oxides)&#45;&gt;6,4 (Electronic components)</title>
<path fill="none" stroke="black" stroke-width="0.04" d="M3414.93,-2342.96C3366.22,-2421.62 3171.72,-2735.75 3113.62,-2829.58"/>
<polygon fill="black" stroke="black" stroke-width="0.04" points="3110.57,-2827.86 3108.28,-2838.2 3116.52,-2831.54 3110.57,-2827.86"/>
<text text-anchor="middle" x="3197.77" y="-2590.07" font-family="Times,serif" font-size="14.00">copper&#45;plate*2352</text>
</g>
</g>
</svg>
