<?xml version="1.0" encoding="UTF-8" standalone="no"?>
<!DOCTYPE svg PUBLIC "-//W3C//DTD SVG 1.1//EN"
 "http://www.w3.org/Graphics/SVG/1.1/DTD/svg11.dtd">
<!-- Generated by graphviz version 2.43.0 (0)
 -->
<!-- Title: %3 Pages: 1 -->
<svg width="734pt" height="521pt"
 viewBox="0.00 0.00 733.58 521.30" xmlns="http://www.w3.org/2000/svg" xmlns:xlink="http://www.w3.org/1999/xlink">
<g id="graph0" class="graph" transform="scale(1 1) rotate(0) translate(4 517.3)">
<title>%3</title>
<polygon fill="white" stroke="transparent" points="-4,4 -4,-517.3 729.58,-517.3 729.58,4 -4,4"/>
<!-- 5,8 (Ulric Food, Sandcastings) -->
<g id="node1" class="node">
<title>5,8 (Ulric Food, Sandcastings)</title>
<ellipse fill="none" stroke="black" cx="341.34" cy="-18" rx="151.37" ry="18"/>
<text text-anchor="middle" x="341.34" y="-14.3" font-family="Times,serif" font-size="14.00">5,8 (Ulric Food, Sandcastings)</text>
</g>
<!-- &#45;7,&#45;3 (Ulric Manure) -->
<g id="node2" class="node">
<title>&#45;7,&#45;3 (Ulric Manure)</title>
<ellipse fill="none" stroke="black" cx="102.69" cy="-256.65" rx="102.88" ry="18"/>
<text text-anchor="middle" x="102.69" y="-252.95" font-family="Times,serif" font-size="14.00">&#45;7,&#45;3 (Ulric Manure)</text>
</g>
<!-- 5,8 (Ulric Food, Sandcastings)&#45;&gt;&#45;7,&#45;3 (Ulric Manure) -->
<g id="edge1" class="edge">
<title>5,8 (Ulric Food, Sandcastings)&#45;&gt;&#45;7,&#45;3 (Ulric Manure)</title>
<path fill="none" stroke="black" stroke-width="1.07" d="M323.4,-35.94C281.32,-78.02 176.16,-183.19 127.77,-231.57"/>
<polygon fill="black" stroke="black" stroke-width="1.07" points="125.11,-229.29 120.51,-238.83 130.06,-234.24 125.11,-229.29"/>
<text text-anchor="middle" x="154.59" y="-137.55" font-family="Times,serif" font-size="14.00">ulric&#45;food&#45;01*40000</text>
</g>
<!-- &#45;7,0 (Ulric manure duplicate) -->
<g id="node4" class="node">
<title>&#45;7,0 (Ulric manure duplicate)</title>
<ellipse fill="none" stroke="black" cx="579.99" cy="-256.65" rx="145.67" ry="18"/>
<text text-anchor="middle" x="579.99" y="-252.95" font-family="Times,serif" font-size="14.00">&#45;7,0 (Ulric manure duplicate)</text>
</g>
<!-- 5,8 (Ulric Food, Sandcastings)&#45;&gt;&#45;7,0 (Ulric manure duplicate) -->
<g id="edge4" class="edge">
<title>5,8 (Ulric Food, Sandcastings)&#45;&gt;&#45;7,0 (Ulric manure duplicate)</title>
<path fill="none" stroke="black" stroke-width="0.8" d="M359.28,-35.94C401.26,-77.92 506.02,-182.67 554.56,-231.22"/>
<polygon fill="black" stroke="black" stroke-width="0.8" points="552.3,-233.91 561.85,-238.51 557.25,-228.96 552.3,-233.91"/>
<text text-anchor="middle" x="385.92" y="-137.38" font-family="Times,serif" font-size="14.00">ulric&#45;food&#45;01*30000</text>
</g>
<!-- &#45;4,8 (Moar Ulric Food) -->
<g id="node3" class="node">
<title>&#45;4,8 (Moar Ulric Food)</title>
<ellipse fill="none" stroke="black" cx="341.34" cy="-495.3" rx="113.98" ry="18"/>
<text text-anchor="middle" x="341.34" y="-491.6" font-family="Times,serif" font-size="14.00">&#45;4,8 (Moar Ulric Food)</text>
</g>
<!-- &#45;4,8 (Moar Ulric Food)&#45;&gt;&#45;7,&#45;3 (Ulric Manure) -->
<g id="edge3" class="edge">
<title>&#45;4,8 (Moar Ulric Food)&#45;&gt;&#45;7,&#45;3 (Ulric Manure)</title>
<path fill="none" stroke="black" stroke-width="1.07" d="M323.4,-477.37C281.32,-435.28 176.16,-330.12 127.77,-281.73"/>
<polygon fill="black" stroke="black" stroke-width="1.07" points="130.06,-279.07 120.51,-274.47 125.11,-284.02 130.06,-279.07"/>
<text text-anchor="middle" x="154.59" y="-383.35" font-family="Times,serif" font-size="14.00">ulric&#45;food&#45;01*40000</text>
</g>
<!-- &#45;4,8 (Moar Ulric Food)&#45;&gt;&#45;7,0 (Ulric manure duplicate) -->
<g id="edge2" class="edge">
<title>&#45;4,8 (Moar Ulric Food)&#45;&gt;&#45;7,0 (Ulric manure duplicate)</title>
<path fill="none" stroke="black" stroke-width="1.07" d="M359.28,-477.37C401.26,-435.38 506.02,-330.63 554.56,-282.09"/>
<polygon fill="black" stroke="black" stroke-width="1.07" points="557.25,-284.34 561.85,-274.8 552.3,-279.39 557.25,-284.34"/>
<text text-anchor="middle" x="385.92" y="-383.53" font-family="Times,serif" font-size="14.00">ulric&#45;food&#45;01*40000</text>
</g>
</g>
</svg>
