<?xml version="1.0" encoding="UTF-8" standalone="no"?>
<!DOCTYPE svg PUBLIC "-//W3C//DTD SVG 1.1//EN"
 "http://www.w3.org/Graphics/SVG/1.1/DTD/svg11.dtd">
<!-- Generated by graphviz version 2.43.0 (0)
 -->
<!-- Title: %3 Pages: 1 -->
<svg width="1289pt" height="848pt"
 viewBox="0.00 0.00 1289.02 847.54" xmlns="http://www.w3.org/2000/svg" xmlns:xlink="http://www.w3.org/1999/xlink">
<g id="graph0" class="graph" transform="scale(1 1) rotate(0) translate(4 843.54)">
<title>%3</title>
<polygon fill="white" stroke="transparent" points="-4,4 -4,-843.54 1285.02,-843.54 1285.02,4 -4,4"/>
<!-- &#45;6,&#45;6 (Seaweed (no biomass)) -->
<g id="node1" class="node">
<title>&#45;6,&#45;6 (Seaweed (no biomass))</title>
<ellipse fill="none" stroke="black" cx="993.64" cy="-419.77" rx="144.07" ry="18"/>
<text text-anchor="middle" x="993.64" y="-416.07" font-family="Times,serif" font-size="14.00">&#45;6,&#45;6 (Seaweed (no biomass))</text>
</g>
<!-- 2,14 (Latex) -->
<g id="node2" class="node">
<title>2,14 (Latex)</title>
<ellipse fill="none" stroke="black" cx="701.74" cy="-18" rx="66.89" ry="18"/>
<text text-anchor="middle" x="701.74" y="-14.3" font-family="Times,serif" font-size="14.00">2,14 (Latex)</text>
</g>
<!-- &#45;6,&#45;6 (Seaweed (no biomass))&#45;&gt;2,14 (Latex) -->
<g id="edge1" class="edge">
<title>&#45;6,&#45;6 (Seaweed (no biomass))&#45;&gt;2,14 (Latex)</title>
<path fill="none" stroke="black" stroke-width="3.02" d="M980.53,-401.72C933.94,-337.61 776.23,-120.54 721.02,-44.54"/>
<polygon fill="black" stroke="black" stroke-width="3.02" points="723.52,-42.03 714.81,-35.99 717.86,-46.14 723.52,-42.03"/>
<text text-anchor="middle" x="789.28" y="-226.93" font-family="Times,serif" font-size="14.00">seaweed*168720</text>
</g>
<!-- 1,3 (item=korlex&#45;food&#45;01 Korlex food) -->
<g id="node3" class="node">
<title>1,3 (item=korlex&#45;food&#45;01 Korlex food)</title>
<ellipse fill="none" stroke="black" cx="701.74" cy="-821.54" rx="185.77" ry="18"/>
<text text-anchor="middle" x="701.74" y="-817.84" font-family="Times,serif" font-size="14.00">1,3 (item=korlex&#45;food&#45;01 Korlex food)</text>
</g>
<!-- &#45;6,&#45;6 (Seaweed (no biomass))&#45;&gt;1,3 (item=korlex&#45;food&#45;01 Korlex food) -->
<g id="edge2" class="edge">
<title>&#45;6,&#45;6 (Seaweed (no biomass))&#45;&gt;1,3 (item=korlex&#45;food&#45;01 Korlex food)</title>
<path fill="none" stroke="black" stroke-width="0.67" d="M980.53,-437.81C933.94,-501.93 776.23,-719 721.02,-794.99"/>
<polygon fill="black" stroke="black" stroke-width="0.67" points="717.86,-793.4 714.81,-803.54 723.52,-797.51 717.86,-793.4"/>
<text text-anchor="middle" x="793.78" y="-620.2" font-family="Times,serif" font-size="14.00">seaweed*37440</text>
</g>
<!-- 0,0 (LE BUS) -->
<g id="node4" class="node">
<title>0,0 (LE BUS)</title>
<ellipse fill="none" stroke="black" cx="1160.02" cy="-272.8" rx="71.49" ry="18"/>
<text text-anchor="middle" x="1160.02" y="-269.1" font-family="Times,serif" font-size="14.00">0,0 (LE BUS)</text>
</g>
<!-- &#45;6,&#45;6 (Seaweed (no biomass))&#45;&gt;0,0 (LE BUS) -->
<g id="edge3" class="edge">
<title>&#45;6,&#45;6 (Seaweed (no biomass))&#45;&gt;0,0 (LE BUS)</title>
<path fill="none" stroke="black" stroke-width="0.19" d="M1014.04,-401.75C1043.84,-375.42 1099.35,-326.39 1132.67,-296.96"/>
<polygon fill="black" stroke="black" stroke-width="0.19" points="1135.05,-299.53 1140.22,-290.29 1130.41,-294.28 1135.05,-299.53"/>
<text text-anchor="middle" x="1016.35" y="-353.16" font-family="Times,serif" font-size="14.00">seaweed*10480</text>
</g>
<!-- &#45;1,12 (I can&#39;t believe it&#39;s more latex duplicates) -->
<g id="node5" class="node">
<title>&#45;1,12 (I can&#39;t believe it&#39;s more latex duplicates)</title>
<ellipse fill="none" stroke="black" cx="229.43" cy="-171.46" rx="229.36" ry="18"/>
<text text-anchor="middle" x="229.43" y="-167.76" font-family="Times,serif" font-size="14.00">&#45;1,12 (I can&#39;t believe it&#39;s more latex duplicates)</text>
</g>
<!-- &#45;6,&#45;6 (Seaweed (no biomass))&#45;&gt;&#45;1,12 (I can&#39;t believe it&#39;s more latex duplicates) -->
<g id="edge4" class="edge">
<title>&#45;6,&#45;6 (Seaweed (no biomass))&#45;&gt;&#45;1,12 (I can&#39;t believe it&#39;s more latex duplicates)</title>
<path fill="none" stroke="black" stroke-width="1.93" d="M941.71,-402.9C806.08,-358.83 441.47,-240.36 293.32,-192.22"/>
<polygon fill="black" stroke="black" stroke-width="1.93" points="294.05,-188.78 283.46,-189.02 291.89,-195.44 294.05,-188.78"/>
<text text-anchor="middle" x="556.02" y="-301.36" font-family="Times,serif" font-size="14.00">seaweed*107840</text>
</g>
<!-- 0,12 (Latex duplicate) -->
<g id="node7" class="node">
<title>0,12 (Latex duplicate)</title>
<ellipse fill="none" stroke="black" cx="1168.58" cy="-526.7" rx="112.38" ry="18"/>
<text text-anchor="middle" x="1168.58" y="-523" font-family="Times,serif" font-size="14.00">0,12 (Latex duplicate)</text>
</g>
<!-- &#45;6,&#45;6 (Seaweed (no biomass))&#45;&gt;0,12 (Latex duplicate) -->
<g id="edge8" class="edge">
<title>&#45;6,&#45;6 (Seaweed (no biomass))&#45;&gt;0,12 (Latex duplicate)</title>
<path fill="none" stroke="black" stroke-width="0.82" d="M1022.53,-437.43C1052.24,-455.59 1098.66,-483.96 1131.17,-503.83"/>
<polygon fill="black" stroke="black" stroke-width="0.82" points="1129.59,-506.97 1139.94,-509.19 1133.24,-500.99 1129.59,-506.97"/>
<text text-anchor="middle" x="1019.85" y="-474.43" font-family="Times,serif" font-size="14.00">seaweed*45600</text>
</g>
<!-- &#45;5,&#45;3 (Biomass (from Seaweed)) -->
<g id="node6" class="node">
<title>&#45;5,&#45;3 (Biomass (from Seaweed))</title>
<ellipse fill="none" stroke="black" cx="229.43" cy="-668.08" rx="155.97" ry="18"/>
<text text-anchor="middle" x="229.43" y="-664.38" font-family="Times,serif" font-size="14.00">&#45;5,&#45;3 (Biomass (from Seaweed))</text>
</g>
<!-- &#45;5,&#45;3 (Biomass (from Seaweed))&#45;&gt;2,14 (Latex) -->
<g id="edge7" class="edge">
<title>&#45;5,&#45;3 (Biomass (from Seaweed))&#45;&gt;2,14 (Latex)</title>
<path fill="none" stroke="black" stroke-width="0.54" d="M242.55,-650.01C308.63,-559.06 604.81,-151.41 682.84,-44"/>
<polygon fill="black" stroke="black" stroke-width="0.54" points="685.85,-45.82 688.9,-35.67 680.19,-41.71 685.85,-45.82"/>
<text text-anchor="middle" x="405.7" y="-350.81" font-family="Times,serif" font-size="14.00">seaweed*30192</text>
</g>
<!-- &#45;5,&#45;3 (Biomass (from Seaweed))&#45;&gt;1,3 (item=korlex&#45;food&#45;01 Korlex food) -->
<g id="edge5" class="edge">
<title>&#45;5,&#45;3 (Biomass (from Seaweed))&#45;&gt;1,3 (item=korlex&#45;food&#45;01 Korlex food)</title>
<path fill="none" stroke="black" stroke-width="0.02" d="M281.78,-685.08C369.23,-713.5 544.69,-770.51 638.76,-801.07"/>
<polygon fill="black" stroke="black" stroke-width="0.02" points="637.84,-804.45 648.43,-804.22 640,-797.8 637.84,-804.45"/>
<text text-anchor="middle" x="412.27" y="-746.88" font-family="Times,serif" font-size="14.00">seaweed*992</text>
</g>
<!-- &#45;5,&#45;3 (Biomass (from Seaweed))&#45;&gt;&#45;1,12 (I can&#39;t believe it&#39;s more latex duplicates) -->
<g id="edge6" class="edge">
<title>&#45;5,&#45;3 (Biomass (from Seaweed))&#45;&gt;&#45;1,12 (I can&#39;t believe it&#39;s more latex duplicates)</title>
<path fill="none" stroke="black" stroke-width="0.82" d="M229.43,-649.81C229.43,-574.9 229.43,-290.84 229.43,-199.75"/>
<polygon fill="black" stroke="black" stroke-width="0.82" points="232.93,-199.63 229.43,-189.63 225.93,-199.63 232.93,-199.63"/>
<text text-anchor="middle" x="172.43" y="-428.58" font-family="Times,serif" font-size="14.00">seaweed*45872</text>
</g>
</g>
</svg>
