<?xml version="1.0" encoding="UTF-8" standalone="no"?>
<!DOCTYPE svg PUBLIC "-//W3C//DTD SVG 1.1//EN"
 "http://www.w3.org/Graphics/SVG/1.1/DTD/svg11.dtd">
<!-- Generated by graphviz version 2.43.0 (0)
 -->
<!-- Title: %3 Pages: 1 -->
<svg width="955pt" height="44pt"
 viewBox="0.00 0.00 955.33 44.00" xmlns="http://www.w3.org/2000/svg" xmlns:xlink="http://www.w3.org/1999/xlink">
<g id="graph0" class="graph" transform="scale(1 1) rotate(0) translate(4 40)">
<title>%3</title>
<polygon fill="white" stroke="transparent" points="-4,4 -4,-40 951.33,-40 951.33,4 -4,4"/>
<!-- &#45;5,0 (item=small&#45;lampitem=petri&#45;dish Lamptri dishes) -->
<g id="node1" class="node">
<title>&#45;5,0 (item=small&#45;lampitem=petri&#45;dish Lamptri dishes)</title>
<ellipse fill="none" stroke="black" cx="478.86" cy="-18" rx="263.75" ry="18"/>
<text text-anchor="middle" x="478.86" y="-14.3" font-family="Times,serif" font-size="14.00">&#45;5,0 (item=small&#45;lampitem=petri&#45;dish Lamptri dishes)</text>
</g>
<!-- &#45;6,4 (Urea) -->
<g id="node2" class="node">
<title>&#45;6,4 (Urea)</title>
<ellipse fill="none" stroke="black" cx="886.23" cy="-18" rx="61.19" ry="18"/>
<text text-anchor="middle" x="886.23" y="-14.3" font-family="Times,serif" font-size="14.00">&#45;6,4 (Urea)</text>
</g>
<!-- &#45;5,0 (item=small&#45;lampitem=petri&#45;dish Lamptri dishes)&#45;&gt;&#45;6,4 (Urea) -->
<g id="edge1" class="edge">
<title>&#45;5,0 (item=small&#45;lampitem=petri&#45;dish Lamptri dishes)&#45;&gt;&#45;6,4 (Urea)</title>
<path fill="none" stroke="black" stroke-width="1.43" d="M742.9,-18C769.01,-18 793.68,-18 814.94,-18"/>
<polygon fill="black" stroke="black" stroke-width="1.43" points="815.1,-21.5 825.1,-18 815.1,-14.5 815.1,-21.5"/>
<text text-anchor="middle" x="778.92" y="-6.8" font-family="Times,serif" font-size="14.00">petri&#45;dish*5004</text>
</g>
<!-- 0,0 (LE BUS) -->
<g id="node3" class="node">
<title>0,0 (LE BUS)</title>
<ellipse fill="none" stroke="black" cx="71.49" cy="-18" rx="71.49" ry="18"/>
<text text-anchor="middle" x="71.49" y="-14.3" font-family="Times,serif" font-size="14.00">0,0 (LE BUS)</text>
</g>
<!-- &#45;5,0 (item=small&#45;lampitem=petri&#45;dish Lamptri dishes)&#45;&gt;0,0 (LE BUS) -->
<g id="edge2" class="edge">
<title>&#45;5,0 (item=small&#45;lampitem=petri&#45;dish Lamptri dishes)&#45;&gt;0,0 (LE BUS)</title>
<path fill="none" stroke="black" stroke-width="0.57" d="M214.83,-18C192.93,-18 172.04,-18 153.33,-18"/>
<polygon fill="black" stroke="black" stroke-width="0.57" points="153.17,-14.5 143.17,-18 153.17,-21.5 153.17,-14.5"/>
<text text-anchor="middle" x="156.08" y="-6.8" font-family="Times,serif" font-size="14.00">petri&#45;dish*2004</text>
</g>
</g>
</svg>
