<?xml version="1.0" encoding="UTF-8" standalone="no"?>
<!DOCTYPE svg PUBLIC "-//W3C//DTD SVG 1.1//EN"
 "http://www.w3.org/Graphics/SVG/1.1/DTD/svg11.dtd">
<!-- Generated by graphviz version 2.43.0 (0)
 -->
<!-- Title: %3 Pages: 1 -->
<svg width="1096pt" height="44pt"
 viewBox="0.00 0.00 1095.72 44.00" xmlns="http://www.w3.org/2000/svg" xmlns:xlink="http://www.w3.org/1999/xlink">
<g id="graph0" class="graph" transform="scale(1 1) rotate(0) translate(4 40)">
<title>%3</title>
<polygon fill="white" stroke="transparent" points="-4,4 -4,-40 1091.72,-40 1091.72,4 -4,4"/>
<!-- 0,0 (LE BUS) -->
<g id="node1" class="node">
<title>0,0 (LE BUS)</title>
<ellipse fill="none" stroke="black" cx="476.26" cy="-18" rx="71.49" ry="18"/>
<text text-anchor="middle" x="476.26" y="-14.3" font-family="Times,serif" font-size="14.00">0,0 (LE BUS)</text>
</g>
<!-- &#45;3,1 (Logistic science pack, Automation Science) -->
<g id="node2" class="node">
<title>&#45;3,1 (Logistic science pack, Automation Science)</title>
<ellipse fill="none" stroke="black" cx="853.74" cy="-18" rx="233.96" ry="18"/>
<text text-anchor="middle" x="853.74" y="-14.3" font-family="Times,serif" font-size="14.00">&#45;3,1 (Logistic science pack, Automation Science)</text>
</g>
<!-- 0,0 (LE BUS)&#45;&gt;&#45;3,1 (Logistic science pack, Automation Science) -->
<g id="edge1" class="edge">
<title>0,0 (LE BUS)&#45;&gt;&#45;3,1 (Logistic science pack, Automation Science)</title>
<path fill="none" stroke="black" stroke-width="0.99" d="M548.15,-18C566.61,-18 587.52,-18 609.54,-18"/>
<polygon fill="black" stroke="black" stroke-width="0.99" points="609.73,-21.5 619.73,-18 609.73,-14.5 609.73,-21.5"/>
<text text-anchor="middle" x="578.85" y="-6.8" font-family="Times,serif" font-size="14.00">flask*5504</text>
</g>
<!-- &#45;4,&#45;2 (For Science!) -->
<g id="node3" class="node">
<title>&#45;4,&#45;2 (For Science!)</title>
<ellipse fill="none" stroke="black" cx="98.79" cy="-18" rx="98.58" ry="18"/>
<text text-anchor="middle" x="98.79" y="-14.3" font-family="Times,serif" font-size="14.00">&#45;4,&#45;2 (For Science!)</text>
</g>
<!-- 0,0 (LE BUS)&#45;&gt;&#45;4,&#45;2 (For Science!) -->
<g id="edge2" class="edge">
<title>0,0 (LE BUS)&#45;&gt;&#45;4,&#45;2 (For Science!)</title>
<path fill="none" stroke="black" stroke-width="1.01" d="M404.38,-18C348.84,-18 271.06,-18 207.87,-18"/>
<polygon fill="black" stroke="black" stroke-width="1.01" points="207.86,-14.5 197.86,-18 207.86,-21.5 207.86,-14.5"/>
<text text-anchor="middle" x="267.62" y="-21.8" font-family="Times,serif" font-size="14.00">flask*5592</text>
</g>
</g>
</svg>
