<?xml version="1.0" encoding="UTF-8" standalone="no"?>
<!DOCTYPE svg PUBLIC "-//W3C//DTD SVG 1.1//EN"
 "http://www.w3.org/Graphics/SVG/1.1/DTD/svg11.dtd">
<!-- Generated by graphviz version 2.43.0 (0)
 -->
<!-- Title: %3 Pages: 1 -->
<svg width="1465pt" height="584pt"
 viewBox="0.00 0.00 1465.32 583.73" xmlns="http://www.w3.org/2000/svg" xmlns:xlink="http://www.w3.org/1999/xlink">
<g id="graph0" class="graph" transform="scale(1 1) rotate(0) translate(4 579.73)">
<title>%3</title>
<polygon fill="white" stroke="transparent" points="-4,4 -4,-579.73 1461.32,-579.73 1461.32,4 -4,4"/>
<!-- 0,0 (LE BUS) -->
<g id="node1" class="node">
<title>0,0 (LE BUS)</title>
<ellipse fill="none" stroke="black" cx="71.49" cy="-287.87" rx="71.49" ry="18"/>
<text text-anchor="middle" x="71.49" y="-284.17" font-family="Times,serif" font-size="14.00">0,0 (LE BUS)</text>
</g>
<!-- 2,0 (Sodium Sulfate) -->
<g id="node2" class="node">
<title>2,0 (Sodium Sulfate)</title>
<ellipse fill="none" stroke="black" cx="321.58" cy="-287.87" rx="106.68" ry="18"/>
<text text-anchor="middle" x="321.58" y="-284.17" font-family="Times,serif" font-size="14.00">2,0 (Sodium Sulfate)</text>
</g>
<!-- 0,0 (LE BUS)&#45;&gt;2,0 (Sodium Sulfate) -->
<g id="edge1" class="edge">
<title>0,0 (LE BUS)&#45;&gt;2,0 (Sodium Sulfate)</title>
<path fill="none" stroke="black" stroke-width="0.43" d="M143.16,-287.87C162.38,-287.87 183.68,-287.87 204.67,-287.87"/>
<polygon fill="black" stroke="black" stroke-width="0.43" points="204.94,-291.37 214.94,-287.87 204.94,-284.37 204.94,-291.37"/>
<text text-anchor="middle" x="173.92" y="-276.67" font-family="Times,serif" font-size="14.00">sulfur*5010</text>
</g>
<!-- 3,&#45;2 () -->
<g id="node3" class="node">
<title>3,&#45;2 ()</title>
<ellipse fill="none" stroke="black" cx="1009.58" cy="-287.87" rx="38.19" ry="18"/>
<text text-anchor="middle" x="1009.58" y="-284.17" font-family="Times,serif" font-size="14.00">3,&#45;2 ()</text>
</g>
<!-- 3,&#45;2 ()&#45;&gt;2,0 (Sodium Sulfate) -->
<g id="edge2" class="edge">
<title>3,&#45;2 ()&#45;&gt;2,0 (Sodium Sulfate)</title>
<path fill="none" stroke="black" stroke-width="3.01" d="M971.12,-287.87C870.6,-287.87 596.93,-287.87 438.74,-287.87"/>
<polygon fill="black" stroke="black" stroke-width="3.01" points="438.49,-284.37 428.49,-287.87 438.49,-291.37 438.49,-284.37"/>
<text text-anchor="middle" x="657.93" y="-291.67" font-family="Times,serif" font-size="14.00">sulfur*35424</text>
</g>
<!-- 4,6 (Circuit substrate and Doped silicon) -->
<g id="node4" class="node">
<title>4,6 (Circuit substrate and Doped silicon)</title>
<ellipse fill="none" stroke="black" cx="857.27" cy="-18" rx="199.56" ry="18"/>
<text text-anchor="middle" x="857.27" y="-14.3" font-family="Times,serif" font-size="14.00">4,6 (Circuit substrate and Doped silicon)</text>
</g>
<!-- 3,&#45;2 ()&#45;&gt;4,6 (Circuit substrate and Doped silicon) -->
<g id="edge3" class="edge">
<title>3,&#45;2 ()&#45;&gt;4,6 (Circuit substrate and Doped silicon)</title>
<path fill="none" stroke="black" stroke-width="0.27" d="M999.59,-270.16C973.56,-224.05 903.56,-100.01 872.49,-44.96"/>
<polygon fill="black" stroke="black" stroke-width="0.27" points="875.47,-43.11 867.5,-36.13 869.37,-46.55 875.47,-43.11"/>
<text text-anchor="middle" x="893.54" y="-161.36" font-family="Times,serif" font-size="14.00">sulfur*3152</text>
</g>
<!-- 6,4 (Electronic components) -->
<g id="node5" class="node">
<title>6,4 (Electronic components)</title>
<ellipse fill="none" stroke="black" cx="1315.63" cy="-336.41" rx="141.88" ry="18"/>
<text text-anchor="middle" x="1315.63" y="-332.71" font-family="Times,serif" font-size="14.00">6,4 (Electronic components)</text>
</g>
<!-- 3,&#45;2 ()&#45;&gt;6,4 (Electronic components) -->
<g id="edge4" class="edge">
<title>3,&#45;2 ()&#45;&gt;6,4 (Electronic components)</title>
<path fill="none" stroke="black" stroke-width="0.86" d="M1046.19,-293.67C1088.11,-300.32 1158.52,-311.49 1216.85,-320.74"/>
<polygon fill="black" stroke="black" stroke-width="0.86" points="1216.42,-324.22 1226.84,-322.33 1217.52,-317.3 1216.42,-324.22"/>
<text text-anchor="middle" x="1084.52" y="-311.01" font-family="Times,serif" font-size="14.00">sulfur*10144</text>
</g>
<!-- 4,12 (Molten Glass) -->
<g id="node6" class="node">
<title>4,12 (Molten Glass)</title>
<ellipse fill="none" stroke="black" cx="857.27" cy="-557.73" rx="102.08" ry="18"/>
<text text-anchor="middle" x="857.27" y="-554.03" font-family="Times,serif" font-size="14.00">4,12 (Molten Glass)</text>
</g>
<!-- 3,&#45;2 ()&#45;&gt;4,12 (Molten Glass) -->
<g id="edge5" class="edge">
<title>3,&#45;2 ()&#45;&gt;4,12 (Molten Glass)</title>
<path fill="none" stroke="black" stroke-width="0.43" d="M999.59,-305.57C973.56,-351.69 903.56,-475.72 872.49,-530.77"/>
<polygon fill="black" stroke="black" stroke-width="0.43" points="869.37,-529.18 867.5,-539.61 875.47,-532.62 869.37,-529.18"/>
<text text-anchor="middle" x="893.54" y="-421.97" font-family="Times,serif" font-size="14.00">sulfur*5024</text>
</g>
</g>
</svg>
