<?xml version="1.0" encoding="UTF-8" standalone="no"?>
<!DOCTYPE svg PUBLIC "-//W3C//DTD SVG 1.1//EN"
 "http://www.w3.org/Graphics/SVG/1.1/DTD/svg11.dtd">
<!-- Generated by graphviz version 2.43.0 (0)
 -->
<!-- Title: %3 Pages: 1 -->
<svg width="3033pt" height="2454pt"
 viewBox="0.00 0.00 3032.90 2453.93" xmlns="http://www.w3.org/2000/svg" xmlns:xlink="http://www.w3.org/1999/xlink">
<g id="graph0" class="graph" transform="scale(1 1) rotate(0) translate(4 2449.93)">
<title>%3</title>
<polygon fill="white" stroke="transparent" points="-4,4 -4,-2449.93 3028.9,-2449.93 3028.9,4 -4,4"/>
<!-- 4,2 (More fiberboard) -->
<g id="node1" class="node">
<title>4,2 (More fiberboard)</title>
<ellipse fill="none" stroke="black" cx="111.14" cy="-1319.54" rx="111.28" ry="18"/>
<text text-anchor="middle" x="111.14" y="-1315.84" font-family="Times,serif" font-size="14.00">4,2 (More fiberboard)</text>
</g>
<!-- 0,0 (LE BUS) -->
<g id="node2" class="node">
<title>0,0 (LE BUS)</title>
<ellipse fill="none" stroke="black" cx="889.13" cy="-1945.74" rx="71.49" ry="18"/>
<text text-anchor="middle" x="889.13" y="-1942.04" font-family="Times,serif" font-size="14.00">0,0 (LE BUS)</text>
</g>
<!-- 4,2 (More fiberboard)&#45;&gt;0,0 (LE BUS) -->
<g id="edge1" class="edge">
<title>4,2 (More fiberboard)&#45;&gt;0,0 (LE BUS)</title>
<path fill="none" stroke="black" stroke-width="0.05" d="M133.17,-1337.27C243.28,-1425.9 733.62,-1820.57 859.56,-1921.94"/>
<polygon fill="black" stroke="black" stroke-width="0.05" points="857.67,-1924.92 867.66,-1928.46 862.06,-1919.46 857.67,-1924.92"/>
<text text-anchor="middle" x="444.87" y="-1633.41" font-family="Times,serif" font-size="14.00">tar&#45;barrel*816</text>
</g>
<!-- 3,1 (Mining Brick) -->
<g id="node3" class="node">
<title>3,1 (Mining Brick)</title>
<ellipse fill="none" stroke="black" cx="1818.55" cy="-2162.3" rx="94.78" ry="18"/>
<text text-anchor="middle" x="1818.55" y="-2158.6" font-family="Times,serif" font-size="14.00">3,1 (Mining Brick)</text>
</g>
<!-- 3,1 (Mining Brick)&#45;&gt;0,0 (LE BUS) -->
<g id="edge2" class="edge">
<title>3,1 (Mining Brick)&#45;&gt;0,0 (LE BUS)</title>
<path fill="none" stroke="black" stroke-width="3.73" d="M1758.28,-2148.26C1590.86,-2109.25 1121.28,-1999.83 951.43,-1960.26"/>
<polygon fill="black" stroke="black" stroke-width="3.73" points="952.18,-1956.84 941.65,-1957.98 950.59,-1963.66 952.18,-1956.84"/>
<text text-anchor="middle" x="1294.36" y="-2058.06" font-family="Times,serif" font-size="14.00">tar&#45;barrel*59749</text>
</g>
<!-- 1,&#45;1 (fluid=molten&#45;glass Glass, When space, make quartz separate with regular priority, Quartz) -->
<g id="node4" class="node">
<title>1,&#45;1 (fluid=molten&#45;glass Glass, When space, make quartz separate with regular priority, Quartz)</title>
<ellipse fill="none" stroke="black" cx="2567.34" cy="-1570.68" rx="457.62" ry="18"/>
<text text-anchor="middle" x="2567.34" y="-1566.98" font-family="Times,serif" font-size="14.00">1,&#45;1 (fluid=molten&#45;glass Glass, When space, make quartz separate with regular priority, Quartz)</text>
</g>
<!-- 3,1 (Mining Brick)&#45;&gt;1,&#45;1 (fluid=molten&#45;glass Glass, When space, make quartz separate with regular priority, Quartz) -->
<g id="edge3" class="edge">
<title>3,1 (Mining Brick)&#45;&gt;1,&#45;1 (fluid=molten&#45;glass Glass, When space, make quartz separate with regular priority, Quartz)</title>
<path fill="none" stroke="black" stroke-width="0.42" d="M1840.96,-2144.59C1948.48,-2059.64 2411.39,-1693.89 2536.22,-1595.26"/>
<polygon fill="black" stroke="black" stroke-width="0.42" points="2538.61,-1597.84 2544.28,-1588.89 2534.27,-1592.35 2538.61,-1597.84"/>
<text text-anchor="middle" x="2132.59" y="-1873.73" font-family="Times,serif" font-size="14.00">tar&#45;barrel*6768</text>
</g>
<!-- 3,6 (Phosphoric Acid and Phosphine gas) -->
<g id="node6" class="node">
<title>3,6 (Phosphoric Acid and Phosphine gas)</title>
<ellipse fill="none" stroke="black" cx="1877.91" cy="-2427.93" rx="200.36" ry="18"/>
<text text-anchor="middle" x="1877.91" y="-2424.23" font-family="Times,serif" font-size="14.00">3,6 (Phosphoric Acid and Phosphine gas)</text>
</g>
<!-- 3,1 (Mining Brick)&#45;&gt;3,6 (Phosphoric Acid and Phosphine gas) -->
<g id="edge5" class="edge">
<title>3,1 (Mining Brick)&#45;&gt;3,6 (Phosphoric Acid and Phosphine gas)</title>
<path fill="none" stroke="black" stroke-width="0.32" d="M1822.63,-2180.56C1832.82,-2226.16 1859.44,-2345.3 1871.64,-2399.88"/>
<polygon fill="black" stroke="black" stroke-width="0.32" points="1868.28,-2400.9 1873.88,-2409.9 1875.12,-2399.37 1868.28,-2400.9"/>
<text text-anchor="middle" x="1791.13" y="-2294.02" font-family="Times,serif" font-size="14.00">tar&#45;barrel*5080</text>
</g>
<!-- 0,7 (Coal Gas) -->
<g id="node7" class="node">
<title>0,7 (Coal Gas)</title>
<ellipse fill="none" stroke="black" cx="478.96" cy="-1084.07" rx="76.09" ry="18"/>
<text text-anchor="middle" x="478.96" y="-1080.37" font-family="Times,serif" font-size="14.00">0,7 (Coal Gas)</text>
</g>
<!-- 3,1 (Mining Brick)&#45;&gt;0,7 (Coal Gas) -->
<g id="edge7" class="edge">
<title>3,1 (Mining Brick)&#45;&gt;0,7 (Coal Gas)</title>
<path fill="none" stroke="black" stroke-width="3.38" d="M1796.69,-2144.71C1640.06,-2018.64 689.53,-1253.56 508.67,-1107.98"/>
<polygon fill="black" stroke="black" stroke-width="3.38" points="510.63,-1105.07 500.64,-1101.52 506.24,-1110.52 510.63,-1105.07"/>
<text text-anchor="middle" x="1092.18" y="-1630.14" font-family="Times,serif" font-size="14.00">tar&#45;barrel*54015</text>
</g>
<!-- &#45;3,2 (Lead and Solder) -->
<g id="node8" class="node">
<title>&#45;3,2 (Lead and Solder)</title>
<ellipse fill="none" stroke="black" cx="2571.66" cy="-616.37" rx="113.98" ry="18"/>
<text text-anchor="middle" x="2571.66" y="-612.67" font-family="Times,serif" font-size="14.00">&#45;3,2 (Lead and Solder)</text>
</g>
<!-- 3,1 (Mining Brick)&#45;&gt;&#45;3,2 (Lead and Solder) -->
<g id="edge8" class="edge">
<title>3,1 (Mining Brick)&#45;&gt;&#45;3,2 (Lead and Solder)</title>
<path fill="none" stroke="black" stroke-width="0.79" d="M1827.4,-2144.13C1904.7,-1985.46 2464.52,-836.3 2558.33,-643.72"/>
<polygon fill="black" stroke="black" stroke-width="0.79" points="2561.57,-645.07 2562.8,-634.55 2555.27,-642.01 2561.57,-645.07"/>
<text text-anchor="middle" x="2132.37" y="-1397.73" font-family="Times,serif" font-size="14.00">tar&#45;barrel*12672</text>
</g>
<!-- 4,&#45;1 (Fluid) -->
<g id="node9" class="node">
<title>4,&#45;1 (Fluid)</title>
<ellipse fill="none" stroke="black" cx="1828.24" cy="-18" rx="61.99" ry="18"/>
<text text-anchor="middle" x="1828.24" y="-14.3" font-family="Times,serif" font-size="14.00">4,&#45;1 (Fluid)</text>
</g>
<!-- 3,1 (Mining Brick)&#45;&gt;4,&#45;1 (Fluid) -->
<g id="edge10" class="edge">
<title>3,1 (Mining Brick)&#45;&gt;4,&#45;1 (Fluid)</title>
<path fill="none" stroke="black" stroke-width="2.65" d="M1818.63,-2144.09C1819.5,-1951.1 1827.04,-284.85 1828.11,-46.37"/>
<polygon fill="black" stroke="black" stroke-width="2.65" points="1831.61,-46.12 1828.16,-36.1 1824.61,-46.09 1831.61,-46.12"/>
<text text-anchor="middle" x="1762.87" y="-1099.03" font-family="Times,serif" font-size="14.00">tar&#45;barrel*42414</text>
</g>
<!-- 0,8 (Tar from Coke) -->
<g id="node5" class="node">
<title>0,8 (Tar from Coke)</title>
<ellipse fill="none" stroke="black" cx="896.9" cy="-226.15" rx="100.98" ry="18"/>
<text text-anchor="middle" x="896.9" y="-222.45" font-family="Times,serif" font-size="14.00">0,8 (Tar from Coke)</text>
</g>
<!-- 0,8 (Tar from Coke)&#45;&gt;0,0 (LE BUS) -->
<g id="edge4" class="edge">
<title>0,8 (Tar from Coke)&#45;&gt;0,0 (LE BUS)</title>
<path fill="none" stroke="black" stroke-width="0.2" d="M896.82,-244.29C896.06,-413.21 890.2,-1708.92 889.26,-1917.45"/>
<polygon fill="black" stroke="black" stroke-width="0.2" points="885.76,-1917.57 889.21,-1927.59 892.76,-1917.61 885.76,-1917.57"/>
<text text-anchor="middle" x="837.04" y="-1084.67" font-family="Times,serif" font-size="14.00">tar&#45;barrel*3232</text>
</g>
<!-- 0,8 (Tar from Coke)&#45;&gt;1,&#45;1 (fluid=molten&#45;glass Glass, When space, make quartz separate with regular priority, Quartz) -->
<g id="edge6" class="edge">
<title>0,8 (Tar from Coke)&#45;&gt;1,&#45;1 (fluid=molten&#45;glass Glass, When space, make quartz separate with regular priority, Quartz)</title>
<path fill="none" stroke="black" stroke-width="0.05" d="M918.94,-243.89C1099.03,-388.83 2327.14,-1377.34 2536.9,-1546.17"/>
<polygon fill="black" stroke="black" stroke-width="0.05" points="2534.77,-1548.95 2544.76,-1552.5 2539.16,-1543.5 2534.77,-1548.95"/>
<text text-anchor="middle" x="1676.42" y="-898.83" font-family="Times,serif" font-size="14.00">tar&#45;barrel*800</text>
</g>
<!-- 0,8 (Tar from Coke)&#45;&gt;0,7 (Coal Gas) -->
<g id="edge9" class="edge">
<title>0,8 (Tar from Coke)&#45;&gt;0,7 (Coal Gas)</title>
<path fill="none" stroke="black" stroke-width="0.25" d="M887.98,-244.46C834.49,-354.27 556.45,-925.01 492.21,-1056.87"/>
<polygon fill="black" stroke="black" stroke-width="0.25" points="489.03,-1055.4 487.8,-1065.93 495.33,-1058.47 489.03,-1055.4"/>
<text text-anchor="middle" x="634.1" y="-654.46" font-family="Times,serif" font-size="14.00">tar&#45;barrel*4064</text>
</g>
<!-- 0,8 (Tar from Coke)&#45;&gt;&#45;3,2 (Lead and Solder) -->
<g id="edge12" class="edge">
<title>0,8 (Tar from Coke)&#45;&gt;&#45;3,2 (Lead and Solder)</title>
<path fill="none" stroke="black" stroke-width="0.05" d="M958.5,-240.5C1217.32,-300.8 2216.41,-533.6 2497.62,-599.12"/>
<polygon fill="black" stroke="black" stroke-width="0.05" points="2497.18,-602.61 2507.72,-601.47 2498.77,-595.8 2497.18,-602.61"/>
<text text-anchor="middle" x="1676.56" y="-423.61" font-family="Times,serif" font-size="14.00">tar&#45;barrel*800</text>
</g>
<!-- 0,8 (Tar from Coke)&#45;&gt;4,&#45;1 (Fluid) -->
<g id="edge11" class="edge">
<title>0,8 (Tar from Coke)&#45;&gt;4,&#45;1 (Fluid)</title>
<path fill="none" stroke="black" stroke-width="0.1" d="M959.82,-212.08C1130.83,-173.87 1602.46,-68.46 1769.03,-31.23"/>
<polygon fill="black" stroke="black" stroke-width="0.1" points="1770.09,-34.58 1779.09,-28.99 1768.56,-27.75 1770.09,-34.58"/>
<text text-anchor="middle" x="1308.43" y="-125.46" font-family="Times,serif" font-size="14.00">tar&#45;barrel*1616</text>
</g>
</g>
</svg>
