<?xml version="1.0" encoding="UTF-8" standalone="no"?>
<!DOCTYPE svg PUBLIC "-//W3C//DTD SVG 1.1//EN"
 "http://www.w3.org/Graphics/SVG/1.1/DTD/svg11.dtd">
<!-- Generated by graphviz version 2.43.0 (0)
 -->
<!-- Title: %3 Pages: 1 -->
<svg width="2945pt" height="589pt"
 viewBox="0.00 0.00 2945.26 589.32" xmlns="http://www.w3.org/2000/svg" xmlns:xlink="http://www.w3.org/1999/xlink">
<g id="graph0" class="graph" transform="scale(1 1) rotate(0) translate(4 585.32)">
<title>%3</title>
<polygon fill="white" stroke="transparent" points="-4,4 -4,-585.32 2941.26,-585.32 2941.26,4 -4,4"/>
<!-- &#45;1,5 (Train stops for bus brick) -->
<g id="node1" class="node">
<title>&#45;1,5 (Train stops for bus brick)</title>
<ellipse fill="none" stroke="black" cx="1158.16" cy="-290.66" rx="152.17" ry="18"/>
<text text-anchor="middle" x="1158.16" y="-286.96" font-family="Times,serif" font-size="14.00">&#45;1,5 (Train stops for bus brick)</text>
</g>
<!-- &#45;2,8 (syngas from coal dust and also wood) -->
<g id="node2" class="node">
<title>&#45;2,8 (syngas from coal dust and also wood)</title>
<ellipse fill="none" stroke="black" cx="1590.88" cy="-290.66" rx="208.76" ry="18"/>
<text text-anchor="middle" x="1590.88" y="-286.96" font-family="Times,serif" font-size="14.00">&#45;2,8 (syngas from coal dust and also wood)</text>
</g>
<!-- &#45;1,5 (Train stops for bus brick)&#45;&gt;&#45;2,8 (syngas from coal dust and also wood) -->
<g id="edge1" class="edge">
<title>&#45;1,5 (Train stops for bus brick)&#45;&gt;&#45;2,8 (syngas from coal dust and also wood)</title>
<path fill="none" stroke="black" stroke-width="0.93" d="M1310.42,-290.66C1330.4,-290.66 1351.18,-290.66 1371.99,-290.66"/>
<polygon fill="black" stroke="black" stroke-width="0.93" points="1372.2,-294.16 1382.2,-290.66 1372.2,-287.16 1372.2,-294.16"/>
<text text-anchor="middle" x="1341.2" y="-279.46" font-family="Times,serif" font-size="14.00">wood*20846</text>
</g>
<!-- &#45;6,&#45;2 (item=fertilizer Fertiliser) -->
<g id="node7" class="node">
<title>&#45;6,&#45;2 (item=fertilizer Fertiliser)</title>
<ellipse fill="none" stroke="black" cx="155.99" cy="-290.66" rx="155.97" ry="18"/>
<text text-anchor="middle" x="155.99" y="-286.96" font-family="Times,serif" font-size="14.00">&#45;6,&#45;2 (item=fertilizer Fertiliser)</text>
</g>
<!-- &#45;1,5 (Train stops for bus brick)&#45;&gt;&#45;6,&#45;2 (item=fertilizer Fertiliser) -->
<g id="edge6" class="edge">
<title>&#45;1,5 (Train stops for bus brick)&#45;&gt;&#45;6,&#45;2 (item=fertilizer Fertiliser)</title>
<path fill="none" stroke="black" stroke-width="0.09" d="M1005.95,-290.66C821.71,-290.66 512.53,-290.66 322.21,-290.66"/>
<polygon fill="black" stroke="black" stroke-width="0.09" points="322.11,-287.16 312.11,-290.66 322.11,-294.16 322.11,-287.16"/>
<text text-anchor="middle" x="623.58" y="-294.46" font-family="Times,serif" font-size="14.00">wood*2016</text>
</g>
<!-- 3,7 (Wood) -->
<g id="node3" class="node">
<title>3,7 (Wood)</title>
<ellipse fill="none" stroke="black" cx="2404.97" cy="-290.66" rx="61.19" ry="18"/>
<text text-anchor="middle" x="2404.97" y="-286.96" font-family="Times,serif" font-size="14.00">3,7 (Wood)</text>
</g>
<!-- 3,7 (Wood)&#45;&gt;&#45;2,8 (syngas from coal dust and also wood) -->
<g id="edge4" class="edge">
<title>3,7 (Wood)&#45;&gt;&#45;2,8 (syngas from coal dust and also wood)</title>
<path fill="none" stroke="black" stroke-width="1.87" d="M2343.78,-290.66C2231.91,-290.66 1989.38,-290.66 1809.65,-290.66"/>
<polygon fill="black" stroke="black" stroke-width="1.87" points="1809.53,-287.16 1799.53,-290.66 1809.53,-294.16 1809.53,-287.16"/>
<text text-anchor="middle" x="2031.72" y="-294.46" font-family="Times,serif" font-size="14.00">wood*41960</text>
</g>
<!-- 5,8 (Ulric Food) -->
<g id="node4" class="node">
<title>5,8 (Ulric Food)</title>
<ellipse fill="none" stroke="black" cx="2213.32" cy="-18" rx="83.39" ry="18"/>
<text text-anchor="middle" x="2213.32" y="-14.3" font-family="Times,serif" font-size="14.00">5,8 (Ulric Food)</text>
</g>
<!-- 3,7 (Wood)&#45;&gt;5,8 (Ulric Food) -->
<g id="edge2" class="edge">
<title>3,7 (Wood)&#45;&gt;5,8 (Ulric Food)</title>
<path fill="none" stroke="black" stroke-width="0.41" d="M2392.4,-272.77C2359.44,-225.88 2270.41,-99.22 2231.71,-44.16"/>
<polygon fill="black" stroke="black" stroke-width="0.41" points="2234.56,-42.12 2225.94,-35.96 2228.83,-46.15 2234.56,-42.12"/>
<text text-anchor="middle" x="2271.55" y="-162.26" font-family="Times,serif" font-size="14.00">wood*9160</text>
</g>
<!-- 3,6 (Phosphoric Acid and Phosphine gas) -->
<g id="node5" class="node">
<title>3,6 (Phosphoric Acid and Phosphine gas)</title>
<ellipse fill="none" stroke="black" cx="2737.08" cy="-262.75" rx="200.36" ry="18"/>
<text text-anchor="middle" x="2737.08" y="-259.05" font-family="Times,serif" font-size="14.00">3,6 (Phosphoric Acid and Phosphine gas)</text>
</g>
<!-- 3,7 (Wood)&#45;&gt;3,6 (Phosphoric Acid and Phosphine gas) -->
<g id="edge3" class="edge">
<title>3,7 (Wood)&#45;&gt;3,6 (Phosphoric Acid and Phosphine gas)</title>
<path fill="none" stroke="black" stroke-width="2.26" d="M2463.96,-285.7C2496.66,-282.95 2539.02,-279.39 2580.58,-275.9"/>
<polygon fill="black" stroke="black" stroke-width="2.26" points="2580.88,-279.39 2590.55,-275.06 2580.29,-272.41 2580.88,-279.39"/>
<text text-anchor="middle" x="2567.27" y="-284.6" font-family="Times,serif" font-size="14.00">wood*50720</text>
</g>
<!-- &#45;3,4 (Lard from Cottonguts) -->
<g id="node6" class="node">
<title>&#45;3,4 (Lard from Cottonguts)</title>
<ellipse fill="none" stroke="black" cx="2213.32" cy="-563.32" rx="139.18" ry="18"/>
<text text-anchor="middle" x="2213.32" y="-559.62" font-family="Times,serif" font-size="14.00">&#45;3,4 (Lard from Cottonguts)</text>
</g>
<!-- 3,7 (Wood)&#45;&gt;&#45;3,4 (Lard from Cottonguts) -->
<g id="edge5" class="edge">
<title>3,7 (Wood)&#45;&gt;&#45;3,4 (Lard from Cottonguts)</title>
<path fill="none" stroke="black" stroke-width="0.45" d="M2392.4,-308.55C2359.44,-355.45 2270.41,-482.1 2231.71,-537.17"/>
<polygon fill="black" stroke="black" stroke-width="0.45" points="2228.83,-535.17 2225.94,-545.37 2234.56,-539.2 2228.83,-535.17"/>
<text text-anchor="middle" x="2267.05" y="-426.66" font-family="Times,serif" font-size="14.00">wood*10000</text>
</g>
</g>
</svg>
