<?xml version="1.0" encoding="UTF-8" standalone="no"?>
<!DOCTYPE svg PUBLIC "-//W3C//DTD SVG 1.1//EN"
 "http://www.w3.org/Graphics/SVG/1.1/DTD/svg11.dtd">
<!-- Generated by graphviz version 2.43.0 (0)
 -->
<!-- Title: %3 Pages: 1 -->
<svg width="1477pt" height="1249pt"
 viewBox="0.00 0.00 1477.10 1249.15" xmlns="http://www.w3.org/2000/svg" xmlns:xlink="http://www.w3.org/1999/xlink">
<g id="graph0" class="graph" transform="scale(1 1) rotate(0) translate(4 1245.15)">
<title>%3</title>
<polygon fill="white" stroke="transparent" points="-4,4 -4,-1245.15 1473.1,-1245.15 1473.1,4 -4,4"/>
<!-- 0,5 (Titanium Processing (Grade 4)) -->
<g id="node1" class="node">
<title>0,5 (Titanium Processing (Grade 4))</title>
<ellipse fill="none" stroke="black" cx="740.01" cy="-627.35" rx="176.57" ry="18"/>
<text text-anchor="middle" x="740.01" y="-623.65" font-family="Times,serif" font-size="14.00">0,5 (Titanium Processing (Grade 4))</text>
</g>
<!-- &#45;4,1 (item=ulric Ulrics) -->
<g id="node2" class="node">
<title>&#45;4,1 (item=ulric Ulrics)</title>
<ellipse fill="none" stroke="black" cx="1350.81" cy="-627.35" rx="118.08" ry="18"/>
<text text-anchor="middle" x="1350.81" y="-623.65" font-family="Times,serif" font-size="14.00">&#45;4,1 (item=ulric Ulrics)</text>
</g>
<!-- 0,5 (Titanium Processing (Grade 4))&#45;&gt;&#45;4,1 (item=ulric Ulrics) -->
<g id="edge1" class="edge">
<title>0,5 (Titanium Processing (Grade 4))&#45;&gt;&#45;4,1 (item=ulric Ulrics)</title>
<path fill="none" stroke="black" stroke-width="0.78" d="M917.09,-627.35C1014.61,-627.35 1133.47,-627.35 1222.08,-627.35"/>
<polygon fill="black" stroke="black" stroke-width="0.78" points="1222.19,-630.85 1232.19,-627.35 1222.19,-623.85 1222.19,-630.85"/>
<text text-anchor="middle" x="1146.58" y="-631.15" font-family="Times,serif" font-size="14.00">titanium&#45;plate*18176</text>
</g>
<!-- 7,&#45;2 (item=guts Auog guts) -->
<g id="node3" class="node">
<title>7,&#45;2 (item=guts Auog guts)</title>
<ellipse fill="none" stroke="black" cx="1264.9" cy="-939.71" rx="137.28" ry="18"/>
<text text-anchor="middle" x="1264.9" y="-936.01" font-family="Times,serif" font-size="14.00">7,&#45;2 (item=guts Auog guts)</text>
</g>
<!-- 0,5 (Titanium Processing (Grade 4))&#45;&gt;7,&#45;2 (item=guts Auog guts) -->
<g id="edge2" class="edge">
<title>0,5 (Titanium Processing (Grade 4))&#45;&gt;7,&#45;2 (item=guts Auog guts)</title>
<path fill="none" stroke="black" stroke-width="1.05" d="M770.11,-645.27C860,-698.76 1126.35,-857.27 1226.37,-916.79"/>
<polygon fill="black" stroke="black" stroke-width="1.05" points="1224.86,-919.96 1235.24,-922.06 1228.44,-913.94 1224.86,-919.96"/>
<text text-anchor="middle" x="921.24" y="-784.83" font-family="Times,serif" font-size="14.00">titanium&#45;plate*24528</text>
</g>
<!-- &#45;3,8 (Urea) -->
<g id="node4" class="node">
<title>&#45;3,8 (Urea)</title>
<ellipse fill="none" stroke="black" cx="1080.25" cy="-1134.61" rx="61.19" ry="18"/>
<text text-anchor="middle" x="1080.25" y="-1130.91" font-family="Times,serif" font-size="14.00">&#45;3,8 (Urea)</text>
</g>
<!-- 0,5 (Titanium Processing (Grade 4))&#45;&gt;&#45;3,8 (Urea) -->
<g id="edge3" class="edge">
<title>0,5 (Titanium Processing (Grade 4))&#45;&gt;&#45;3,8 (Urea)</title>
<path fill="none" stroke="black" stroke-width="1.04" d="M752.12,-645.41C803.28,-721.68 1001.85,-1017.72 1062.53,-1108.2"/>
<polygon fill="black" stroke="black" stroke-width="1.04" points="1059.81,-1110.42 1068.29,-1116.78 1065.62,-1106.52 1059.81,-1110.42"/>
<text text-anchor="middle" x="830.32" y="-880.6" font-family="Times,serif" font-size="14.00">titanium&#45;plate*24320</text>
</g>
<!-- 0,9 (Auog Brains) -->
<g id="node5" class="node">
<title>0,9 (Auog Brains)</title>
<ellipse fill="none" stroke="black" cx="874.58" cy="-1223.15" rx="91.78" ry="18"/>
<text text-anchor="middle" x="874.58" y="-1219.45" font-family="Times,serif" font-size="14.00">0,9 (Auog Brains)</text>
</g>
<!-- 0,5 (Titanium Processing (Grade 4))&#45;&gt;0,9 (Auog Brains) -->
<g id="edge4" class="edge">
<title>0,5 (Titanium Processing (Grade 4))&#45;&gt;0,9 (Auog Brains)</title>
<path fill="none" stroke="black" stroke-width="0.61" d="M744.11,-645.51C763.36,-730.74 844.8,-1091.34 868.24,-1195.1"/>
<polygon fill="black" stroke="black" stroke-width="0.61" points="864.89,-1196.15 870.51,-1205.13 871.72,-1194.61 864.89,-1196.15"/>
<text text-anchor="middle" x="729.18" y="-924.11" font-family="Times,serif" font-size="14.00">titanium&#45;plate*14320</text>
</g>
<!-- &#45;7,&#45;4 (Isomer&#39;s Slaughterhouse and Daycare Centre, Bone Meal, Auog theft) -->
<g id="node6" class="node">
<title>&#45;7,&#45;4 (Isomer&#39;s Slaughterhouse and Daycare Centre, Bone Meal, Auog theft)</title>
<ellipse fill="none" stroke="black" cx="375.62" cy="-1117.56" rx="362.04" ry="18"/>
<text text-anchor="middle" x="375.62" y="-1113.86" font-family="Times,serif" font-size="14.00">&#45;7,&#45;4 (Isomer&#39;s Slaughterhouse and Daycare Centre, Bone Meal, Auog theft)</text>
</g>
<!-- 0,5 (Titanium Processing (Grade 4))&#45;&gt;&#45;7,&#45;4 (Isomer&#39;s Slaughterhouse and Daycare Centre, Bone Meal, Auog theft) -->
<g id="edge5" class="edge">
<title>0,5 (Titanium Processing (Grade 4))&#45;&gt;&#45;7,&#45;4 (Isomer&#39;s Slaughterhouse and Daycare Centre, Bone Meal, Auog theft)</title>
<path fill="none" stroke="black" stroke-width="1.06" d="M726.61,-645.38C671.31,-719.77 460.72,-1003.09 395.2,-1091.23"/>
<polygon fill="black" stroke="black" stroke-width="1.06" points="392.3,-1089.25 389.15,-1099.37 397.92,-1093.43 392.3,-1089.25"/>
<text text-anchor="middle" x="483.9" y="-872.1" font-family="Times,serif" font-size="14.00">titanium&#45;plate*24672</text>
</g>
<!-- 0,10 (item=meat Meat) -->
<g id="node7" class="node">
<title>0,10 (item=meat Meat)</title>
<ellipse fill="none" stroke="black" cx="129.37" cy="-641.65" rx="120.48" ry="18"/>
<text text-anchor="middle" x="129.37" y="-637.95" font-family="Times,serif" font-size="14.00">0,10 (item=meat Meat)</text>
</g>
<!-- 0,5 (Titanium Processing (Grade 4))&#45;&gt;0,10 (item=meat Meat) -->
<g id="edge6" class="edge">
<title>0,5 (Titanium Processing (Grade 4))&#45;&gt;0,10 (item=meat Meat)</title>
<path fill="none" stroke="black" stroke-width="0.43" d="M567.47,-631.39C469.33,-633.69 348.46,-636.52 258.55,-638.63"/>
<polygon fill="black" stroke="black" stroke-width="0.43" points="258.21,-635.13 248.3,-638.87 258.38,-642.13 258.21,-635.13"/>
<text text-anchor="middle" x="336.01" y="-638.81" font-family="Times,serif" font-size="14.00">titanium&#45;plate*10112</text>
</g>
<!-- &#45;1,6 (Flimble&#39;s Slaughterhouse and Daycare Centre, Auog Products) -->
<g id="node8" class="node">
<title>&#45;1,6 (Flimble&#39;s Slaughterhouse and Daycare Centre, Auog Products)</title>
<ellipse fill="none" stroke="black" cx="325.62" cy="-178.62" rx="325.74" ry="18"/>
<text text-anchor="middle" x="325.62" y="-174.92" font-family="Times,serif" font-size="14.00">&#45;1,6 (Flimble&#39;s Slaughterhouse and Daycare Centre, Auog Products)</text>
</g>
<!-- 0,5 (Titanium Processing (Grade 4))&#45;&gt;&#45;1,6 (Flimble&#39;s Slaughterhouse and Daycare Centre, Auog Products) -->
<g id="edge7" class="edge">
<title>0,5 (Titanium Processing (Grade 4))&#45;&gt;&#45;1,6 (Flimble&#39;s Slaughterhouse and Daycare Centre, Auog Products)</title>
<path fill="none" stroke="black" stroke-width="1.08" d="M723.25,-609.21C658.56,-539.16 424.98,-286.21 349.4,-204.36"/>
<polygon fill="black" stroke="black" stroke-width="1.08" points="351.94,-201.96 342.59,-196.99 346.8,-206.71 351.94,-201.96"/>
<text text-anchor="middle" x="459.32" y="-410.59" font-family="Times,serif" font-size="14.00">titanium&#45;plate*25168</text>
</g>
<!-- &#45;1,&#45;2 (Aramid fiber) -->
<g id="node9" class="node">
<title>&#45;1,&#45;2 (Aramid fiber)</title>
<ellipse fill="none" stroke="black" cx="782.06" cy="-18" rx="99.38" ry="18"/>
<text text-anchor="middle" x="782.06" y="-14.3" font-family="Times,serif" font-size="14.00">&#45;1,&#45;2 (Aramid fiber)</text>
</g>
<!-- 0,5 (Titanium Processing (Grade 4))&#45;&gt;&#45;1,&#45;2 (Aramid fiber) -->
<g id="edge8" class="edge">
<title>0,5 (Titanium Processing (Grade 4))&#45;&gt;&#45;1,&#45;2 (Aramid fiber)</title>
<path fill="none" stroke="black" stroke-width="1.81" d="M741.27,-609.12C747.25,-522.48 772.8,-152.27 780.1,-46.39"/>
<polygon fill="black" stroke="black" stroke-width="1.81" points="783.61,-46.38 780.81,-36.17 776.63,-45.9 783.61,-46.38"/>
<text text-anchor="middle" x="683.69" y="-331.55" font-family="Times,serif" font-size="14.00">titanium&#45;plate*42384</text>
</g>
<!-- &#45;9,&#45;10 (Bedding and cages) -->
<g id="node10" class="node">
<title>&#45;9,&#45;10 (Bedding and cages)</title>
<ellipse fill="none" stroke="black" cx="1069.93" cy="-113.32" rx="134.58" ry="18"/>
<text text-anchor="middle" x="1069.93" y="-109.62" font-family="Times,serif" font-size="14.00">&#45;9,&#45;10 (Bedding and cages)</text>
</g>
<!-- 0,5 (Titanium Processing (Grade 4))&#45;&gt;&#45;9,&#45;10 (Bedding and cages) -->
<g id="edge9" class="edge">
<title>0,5 (Titanium Processing (Grade 4))&#45;&gt;&#45;9,&#45;10 (Bedding and cages)</title>
<path fill="none" stroke="black" stroke-width="1.07" d="M751.56,-609.36C800.89,-532.49 994.14,-231.4 1052.89,-139.86"/>
<polygon fill="black" stroke="black" stroke-width="1.07" points="1055.84,-141.74 1058.3,-131.43 1049.95,-137.96 1055.84,-141.74"/>
<text text-anchor="middle" x="825.22" y="-378.41" font-family="Times,serif" font-size="14.00">titanium&#45;plate*25008</text>
</g>
<!-- 2,13 (Polybutadiene) -->
<g id="node11" class="node">
<title>2,13 (Polybutadiene)</title>
<ellipse fill="none" stroke="black" cx="1279.86" cy="-341.62" rx="106.68" ry="18"/>
<text text-anchor="middle" x="1279.86" y="-337.92" font-family="Times,serif" font-size="14.00">2,13 (Polybutadiene)</text>
</g>
<!-- 0,5 (Titanium Processing (Grade 4))&#45;&gt;2,13 (Polybutadiene) -->
<g id="edge10" class="edge">
<title>0,5 (Titanium Processing (Grade 4))&#45;&gt;2,13 (Polybutadiene)</title>
<path fill="none" stroke="black" stroke-width="1.07" d="M773.78,-609.48C868.22,-559.49 1134.9,-418.34 1238.23,-363.65"/>
<polygon fill="black" stroke="black" stroke-width="1.07" points="1239.93,-366.71 1247.13,-358.94 1236.66,-360.53 1239.93,-366.71"/>
<text text-anchor="middle" x="929" y="-490.37" font-family="Times,serif" font-size="14.00">titanium&#45;plate*25040</text>
</g>
</g>
</svg>
