<?xml version="1.0" encoding="UTF-8" standalone="no"?>
<!DOCTYPE svg PUBLIC "-//W3C//DTD SVG 1.1//EN"
 "http://www.w3.org/Graphics/SVG/1.1/DTD/svg11.dtd">
<!-- Generated by graphviz version 2.43.0 (0)
 -->
<!-- Title: %3 Pages: 1 -->
<svg width="1861pt" height="1293pt"
 viewBox="0.00 0.00 1861.09 1293.42" xmlns="http://www.w3.org/2000/svg" xmlns:xlink="http://www.w3.org/1999/xlink">
<g id="graph0" class="graph" transform="scale(1 1) rotate(0) translate(4 1289.42)">
<title>%3</title>
<polygon fill="white" stroke="transparent" points="-4,4 -4,-1289.42 1857.09,-1289.42 1857.09,4 -4,4"/>
<!-- 3,&#45;1 (Nitrogen, Oxygen) -->
<g id="node1" class="node">
<title>3,&#45;1 (Nitrogen, Oxygen)</title>
<ellipse fill="none" stroke="black" cx="1106.45" cy="-637.99" rx="120.48" ry="18"/>
<text text-anchor="middle" x="1106.45" y="-634.29" font-family="Times,serif" font-size="14.00">3,&#45;1 (Nitrogen, Oxygen)</text>
</g>
<!-- 2,10 (Nickel plate) -->
<g id="node2" class="node">
<title>2,10 (Nickel plate)</title>
<ellipse fill="none" stroke="black" cx="1756.24" cy="-637.99" rx="96.68" ry="18"/>
<text text-anchor="middle" x="1756.24" y="-634.29" font-family="Times,serif" font-size="14.00">2,10 (Nickel plate)</text>
</g>
<!-- 3,&#45;1 (Nitrogen, Oxygen)&#45;&gt;2,10 (Nickel plate) -->
<g id="edge1" class="edge">
<title>3,&#45;1 (Nitrogen, Oxygen)&#45;&gt;2,10 (Nickel plate)</title>
<path fill="none" stroke="black" stroke-width="1.3" d="M1226.76,-637.99C1347.85,-637.99 1532.84,-637.99 1649.03,-637.99"/>
<polygon fill="black" stroke="black" stroke-width="1.3" points="1649.36,-641.49 1659.36,-637.99 1649.36,-634.49 1649.36,-641.49"/>
<text text-anchor="middle" x="1357.4" y="-641.79" font-family="Times,serif" font-size="14.00">nitrogen&#45;barrel*19900</text>
</g>
<!-- 1,7 (Activated Carbon) -->
<g id="node3" class="node">
<title>1,7 (Activated Carbon)</title>
<ellipse fill="none" stroke="black" cx="1267.87" cy="-1267.42" rx="115.88" ry="18"/>
<text text-anchor="middle" x="1267.87" y="-1263.72" font-family="Times,serif" font-size="14.00">1,7 (Activated Carbon)</text>
</g>
<!-- 3,&#45;1 (Nitrogen, Oxygen)&#45;&gt;1,7 (Activated Carbon) -->
<g id="edge2" class="edge">
<title>3,&#45;1 (Nitrogen, Oxygen)&#45;&gt;1,7 (Activated Carbon)</title>
<path fill="none" stroke="black" stroke-width="1.07" d="M1111.1,-656.15C1133.82,-744.71 1232.99,-1131.42 1260.67,-1239.35"/>
<polygon fill="black" stroke="black" stroke-width="1.07" points="1257.32,-1240.37 1263.2,-1249.19 1264.1,-1238.63 1257.32,-1240.37"/>
<text text-anchor="middle" x="1105.39" y="-951.55" font-family="Times,serif" font-size="14.00">nitrogen&#45;barrel*16400</text>
</g>
<!-- 1,&#45;1 (fluid=molten&#45;glass Glass, When space, make quartz separate with regular priority, Quartz) -->
<g id="node4" class="node">
<title>1,&#45;1 (fluid=molten&#45;glass Glass, When space, make quartz separate with regular priority, Quartz)</title>
<ellipse fill="none" stroke="black" cx="457.56" cy="-603.56" rx="457.62" ry="18"/>
<text text-anchor="middle" x="457.56" y="-599.86" font-family="Times,serif" font-size="14.00">1,&#45;1 (fluid=molten&#45;glass Glass, When space, make quartz separate with regular priority, Quartz)</text>
</g>
<!-- 3,&#45;1 (Nitrogen, Oxygen)&#45;&gt;1,&#45;1 (fluid=molten&#45;glass Glass, When space, make quartz separate with regular priority, Quartz) -->
<g id="edge3" class="edge">
<title>3,&#45;1 (Nitrogen, Oxygen)&#45;&gt;1,&#45;1 (fluid=molten&#45;glass Glass, When space, make quartz separate with regular priority, Quartz)</title>
<path fill="none" stroke="black" stroke-width="0.33" d="M993.05,-631.97C922.84,-628.25 829.34,-623.29 740.14,-618.55"/>
<polygon fill="black" stroke="black" stroke-width="0.33" points="740.3,-615.06 730.12,-618.02 739.92,-622.05 740.3,-615.06"/>
<text text-anchor="middle" x="790.59" y="-629.06" font-family="Times,serif" font-size="14.00">nitrogen&#45;barrel*5100</text>
</g>
<!-- 2,&#45;1 (Ammonia) -->
<g id="node5" class="node">
<title>2,&#45;1 (Ammonia)</title>
<ellipse fill="none" stroke="black" cx="1301" cy="-18" rx="81.49" ry="18"/>
<text text-anchor="middle" x="1301" y="-14.3" font-family="Times,serif" font-size="14.00">2,&#45;1 (Ammonia)</text>
</g>
<!-- 3,&#45;1 (Nitrogen, Oxygen)&#45;&gt;2,&#45;1 (Ammonia) -->
<g id="edge4" class="edge">
<title>3,&#45;1 (Nitrogen, Oxygen)&#45;&gt;2,&#45;1 (Ammonia)</title>
<path fill="none" stroke="black" stroke-width="1.29" d="M1112.16,-619.77C1139.71,-531.99 1258.78,-152.53 1292.23,-45.94"/>
<polygon fill="black" stroke="black" stroke-width="1.29" points="1295.63,-46.81 1295.28,-36.22 1288.95,-44.71 1295.63,-46.81"/>
<text text-anchor="middle" x="1121.7" y="-336.66" font-family="Times,serif" font-size="14.00">nitrogen&#45;barrel*19750</text>
</g>
</g>
</svg>
