<?xml version="1.0" encoding="UTF-8" standalone="no"?>
<!DOCTYPE svg PUBLIC "-//W3C//DTD SVG 1.1//EN"
 "http://www.w3.org/Graphics/SVG/1.1/DTD/svg11.dtd">
<!-- Generated by graphviz version 2.43.0 (0)
 -->
<!-- Title: %3 Pages: 1 -->
<svg width="4310pt" height="3815pt"
 viewBox="0.00 0.00 4310.03 3814.52" xmlns="http://www.w3.org/2000/svg" xmlns:xlink="http://www.w3.org/1999/xlink">
<g id="graph0" class="graph" transform="scale(1 1) rotate(0) translate(4 3810.52)">
<title>%3</title>
<polygon fill="white" stroke="transparent" points="-4,4 -4,-3810.52 4306.03,-3810.52 4306.03,4 -4,4"/>
<!-- 0,0 (LE BUS) -->
<g id="node1" class="node">
<title>0,0 (LE BUS)</title>
<ellipse fill="none" stroke="black" cx="1048.57" cy="-3535.94" rx="71.49" ry="18"/>
<text text-anchor="middle" x="1048.57" y="-3532.24" font-family="Times,serif" font-size="14.00">0,0 (LE BUS)</text>
</g>
<!-- 2,0 (Sodium Sulfate) -->
<g id="node2" class="node">
<title>2,0 (Sodium Sulfate)</title>
<ellipse fill="none" stroke="black" cx="1991.2" cy="-18" rx="106.68" ry="18"/>
<text text-anchor="middle" x="1991.2" y="-14.3" font-family="Times,serif" font-size="14.00">2,0 (Sodium Sulfate)</text>
</g>
<!-- 0,0 (LE BUS)&#45;&gt;2,0 (Sodium Sulfate) -->
<g id="edge1" class="edge">
<title>0,0 (LE BUS)&#45;&gt;2,0 (Sodium Sulfate)</title>
<path fill="none" stroke="black" stroke-width="0.56" d="M1053.42,-3517.85C1122.1,-3261.52 1898.95,-362.26 1983.71,-45.95"/>
<polygon fill="black" stroke="black" stroke-width="0.56" points="1987.12,-46.75 1986.33,-36.18 1980.36,-44.93 1987.12,-46.75"/>
<text text-anchor="middle" x="1479.06" y="-1785.7" font-family="Times,serif" font-size="14.00">salt*15840</text>
</g>
<!-- 4,4 (Hydrogen Chloride, item=nylon Nylon/Nylon parts) -->
<g id="node4" class="node">
<title>4,4 (Hydrogen Chloride, item=nylon Nylon/Nylon parts)</title>
<ellipse fill="none" stroke="black" cx="3876.46" cy="-1903.26" rx="271.05" ry="18"/>
<text text-anchor="middle" x="3876.46" y="-1899.56" font-family="Times,serif" font-size="14.00">4,4 (Hydrogen Chloride, item=nylon Nylon/Nylon parts)</text>
</g>
<!-- 0,0 (LE BUS)&#45;&gt;4,4 (Hydrogen Chloride, item=nylon Nylon/Nylon parts) -->
<g id="edge7" class="edge">
<title>0,0 (LE BUS)&#45;&gt;4,4 (Hydrogen Chloride, item=nylon Nylon/Nylon parts)</title>
<path fill="none" stroke="black" stroke-width="0.74" d="M1077.48,-3519.25C1353.09,-3360.12 3513.51,-2112.8 3836.2,-1926.5"/>
<polygon fill="black" stroke="black" stroke-width="0.74" points="3838.29,-1929.33 3845.2,-1921.3 3834.79,-1923.27 3838.29,-1929.33"/>
<text text-anchor="middle" x="2417.34" y="-2726.68" font-family="Times,serif" font-size="14.00">salt*20723</text>
</g>
<!-- 1,6 (Sodium Hydroxide, These new bullets are fun, Limestone) -->
<g id="node5" class="node">
<title>1,6 (Sodium Hydroxide, These new bullets are fun, Limestone)</title>
<ellipse fill="none" stroke="black" cx="2933.83" cy="-3535.94" rx="301.65" ry="18"/>
<text text-anchor="middle" x="2933.83" y="-3532.24" font-family="Times,serif" font-size="14.00">1,6 (Sodium Hydroxide, These new bullets are fun, Limestone)</text>
</g>
<!-- 0,0 (LE BUS)&#45;&gt;1,6 (Sodium Hydroxide, These new bullets are fun, Limestone) -->
<g id="edge13" class="edge">
<title>0,0 (LE BUS)&#45;&gt;1,6 (Sodium Hydroxide, These new bullets are fun, Limestone)</title>
<path fill="none" stroke="black" stroke-width="0.74" d="M1120.17,-3535.94C1363.81,-3535.94 2170.53,-3535.94 2621.62,-3535.94"/>
<polygon fill="black" stroke="black" stroke-width="0.74" points="2621.88,-3539.44 2631.88,-3535.94 2621.88,-3532.44 2621.88,-3539.44"/>
<text text-anchor="middle" x="1831.4" y="-3539.74" font-family="Times,serif" font-size="14.00">salt*20688</text>
</g>
<!-- 2,7 (Mystery petrochemicals) -->
<g id="node6" class="node">
<title>2,7 (Mystery petrochemicals)</title>
<ellipse fill="none" stroke="black" cx="358.52" cy="-960.63" rx="147.57" ry="18"/>
<text text-anchor="middle" x="358.52" y="-956.93" font-family="Times,serif" font-size="14.00">2,7 (Mystery petrochemicals)</text>
</g>
<!-- 0,0 (LE BUS)&#45;&gt;2,7 (Mystery petrochemicals) -->
<g id="edge6" class="edge">
<title>0,0 (LE BUS)&#45;&gt;2,7 (Mystery petrochemicals)</title>
<path fill="none" stroke="black" stroke-width="0.55" d="M1043.7,-3517.77C986.17,-3303.05 436.89,-1253.13 366.03,-988.68"/>
<polygon fill="black" stroke="black" stroke-width="0.55" points="369.33,-987.47 363.37,-978.72 362.57,-989.29 369.33,-987.47"/>
<text text-anchor="middle" x="665.37" y="-2257.02" font-family="Times,serif" font-size="14.00">salt*15580</text>
</g>
<!-- 1,&#45;1 (fluid=molten&#45;glass Glass, When space, make quartz separate with regular priority, Quartz) -->
<g id="node7" class="node">
<title>1,&#45;1 (fluid=molten&#45;glass Glass, When space, make quartz separate with regular priority, Quartz)</title>
<ellipse fill="none" stroke="black" cx="1991.2" cy="-3788.52" rx="457.62" ry="18"/>
<text text-anchor="middle" x="1991.2" y="-3784.82" font-family="Times,serif" font-size="14.00">1,&#45;1 (fluid=molten&#45;glass Glass, When space, make quartz separate with regular priority, Quartz)</text>
</g>
<!-- 0,0 (LE BUS)&#45;&gt;1,&#45;1 (fluid=molten&#45;glass Glass, When space, make quartz separate with regular priority, Quartz) -->
<g id="edge20" class="edge">
<title>0,0 (LE BUS)&#45;&gt;1,&#45;1 (fluid=molten&#45;glass Glass, When space, make quartz separate with regular priority, Quartz)</title>
<path fill="none" stroke="black" stroke-width="0.21" d="M1097.59,-3549.08C1251.85,-3590.41 1728.14,-3718.03 1914.92,-3768.08"/>
<polygon fill="black" stroke="black" stroke-width="0.21" points="1914.1,-3771.48 1924.67,-3770.69 1915.91,-3764.72 1914.1,-3771.48"/>
<text text-anchor="middle" x="1471.26" y="-3662.38" font-family="Times,serif" font-size="14.00">salt*5952</text>
</g>
<!-- &#45;6,&#45;1 (item=agar Agar) -->
<g id="node11" class="node">
<title>&#45;6,&#45;1 (item=agar Agar)</title>
<ellipse fill="none" stroke="black" cx="3623.88" cy="-2845.89" rx="115.88" ry="18"/>
<text text-anchor="middle" x="3623.88" y="-2842.19" font-family="Times,serif" font-size="14.00">&#45;6,&#45;1 (item=agar Agar)</text>
</g>
<!-- 0,0 (LE BUS)&#45;&gt;&#45;6,&#45;1 (item=agar Agar) -->
<g id="edge14" class="edge">
<title>0,0 (LE BUS)&#45;&gt;&#45;6,&#45;1 (item=agar Agar)</title>
<path fill="none" stroke="black" stroke-width="0.18" d="M1097.72,-3522.77C1416.17,-3437.44 3185.92,-2963.24 3556.02,-2864.07"/>
<polygon fill="black" stroke="black" stroke-width="0.18" points="3557.03,-2867.42 3565.79,-2861.45 3555.22,-2860.66 3557.03,-2867.42"/>
<text text-anchor="middle" x="2291.87" y="-3197.22" font-family="Times,serif" font-size="14.00">salt*5040</text>
</g>
<!-- &#45;5,2 (Optical fiber) -->
<g id="node13" class="node">
<title>&#45;5,2 (Optical fiber)</title>
<ellipse fill="none" stroke="black" cx="2933.83" cy="-270.58" rx="96.38" ry="18"/>
<text text-anchor="middle" x="2933.83" y="-266.88" font-family="Times,serif" font-size="14.00">&#45;5,2 (Optical fiber)</text>
</g>
<!-- 0,0 (LE BUS)&#45;&gt;&#45;5,2 (Optical fiber) -->
<g id="edge21" class="edge">
<title>0,0 (LE BUS)&#45;&gt;&#45;5,2 (Optical fiber)</title>
<path fill="none" stroke="black" stroke-width="0.36" d="M1058.94,-3517.98C1200.52,-3272.75 2746.67,-594.74 2918.36,-297.36"/>
<polygon fill="black" stroke="black" stroke-width="0.36" points="2921.5,-298.93 2923.47,-288.52 2915.43,-295.43 2921.5,-298.93"/>
<text text-anchor="middle" x="1949.15" y="-1911.47" font-family="Times,serif" font-size="14.00">salt*10176</text>
</g>
<!-- 1,8 (A copper mine, Salt) -->
<g id="node3" class="node">
<title>1,8 (A copper mine, Salt)</title>
<ellipse fill="none" stroke="black" cx="3623.88" cy="-960.63" rx="126.18" ry="18"/>
<text text-anchor="middle" x="3623.88" y="-956.93" font-family="Times,serif" font-size="14.00">1,8 (A copper mine, Salt)</text>
</g>
<!-- 1,8 (A copper mine, Salt)&#45;&gt;2,0 (Sodium Sulfate) -->
<g id="edge5" class="edge">
<title>1,8 (A copper mine, Salt)&#45;&gt;2,0 (Sodium Sulfate)</title>
<path fill="none" stroke="black" stroke-width="2.23" d="M3593.44,-943.05C3392.36,-826.96 2256.3,-171.06 2030.3,-40.57"/>
<polygon fill="black" stroke="black" stroke-width="2.23" points="2031.84,-37.42 2021.43,-35.45 2028.34,-43.48 2031.84,-37.42"/>
<text text-anchor="middle" x="2772.37" y="-495.61" font-family="Times,serif" font-size="14.00">salt*62868</text>
</g>
<!-- 1,8 (A copper mine, Salt)&#45;&gt;4,4 (Hydrogen Chloride, item=nylon Nylon/Nylon parts) -->
<g id="edge2" class="edge">
<title>1,8 (A copper mine, Salt)&#45;&gt;4,4 (Hydrogen Chloride, item=nylon Nylon/Nylon parts)</title>
<path fill="none" stroke="black" stroke-width="2.77" d="M3628.7,-978.62C3659.71,-1094.33 3830.99,-1733.57 3868.99,-1875.38"/>
<polygon fill="black" stroke="black" stroke-width="2.77" points="3865.62,-1876.33 3871.59,-1885.08 3872.38,-1874.52 3865.62,-1876.33"/>
<text text-anchor="middle" x="3709.34" y="-1430.8" font-family="Times,serif" font-size="14.00">salt*77881</text>
</g>
<!-- 1,8 (A copper mine, Salt)&#45;&gt;1,6 (Sodium Hydroxide, These new bullets are fun, Limestone) -->
<g id="edge3" class="edge">
<title>1,8 (A copper mine, Salt)&#45;&gt;1,6 (Sodium Hydroxide, These new bullets are fun, Limestone)</title>
<path fill="none" stroke="black" stroke-width="4.25" d="M3619.01,-978.8C3561.48,-1193.52 3012.2,-3243.44 2941.34,-3507.89"/>
<polygon fill="black" stroke="black" stroke-width="4.25" points="2937.67,-3507.23 2938.68,-3517.85 2944.85,-3509.15 2937.67,-3507.23"/>
<text text-anchor="middle" x="3236.18" y="-2247.15" font-family="Times,serif" font-size="14.00">salt*119543</text>
</g>
<!-- 1,8 (A copper mine, Salt)&#45;&gt;2,7 (Mystery petrochemicals) -->
<g id="edge4" class="edge">
<title>1,8 (A copper mine, Salt)&#45;&gt;2,7 (Mystery petrochemicals)</title>
<path fill="none" stroke="black" stroke-width="3.66" d="M3497.38,-960.63C2987.1,-960.63 1080.63,-960.63 516.64,-960.63"/>
<polygon fill="black" stroke="black" stroke-width="3.66" points="516.4,-957.13 506.4,-960.63 516.4,-964.13 516.4,-957.13"/>
<text text-anchor="middle" x="1963.01" y="-964.43" font-family="Times,serif" font-size="14.00">salt*102979</text>
</g>
<!-- 1,8 (A copper mine, Salt)&#45;&gt;1,&#45;1 (fluid=molten&#45;glass Glass, When space, make quartz separate with regular priority, Quartz) -->
<g id="edge8" class="edge">
<title>1,8 (A copper mine, Salt)&#45;&gt;1,&#45;1 (fluid=molten&#45;glass Glass, When space, make quartz separate with regular priority, Quartz)</title>
<path fill="none" stroke="black" stroke-width="0.56" d="M3613.45,-978.69C3482.81,-1204.97 2165.63,-3486.4 2006.84,-3761.43"/>
<polygon fill="black" stroke="black" stroke-width="0.56" points="2003.65,-3759.95 2001.68,-3770.36 2009.71,-3763.45 2003.65,-3759.95"/>
<text text-anchor="middle" x="2770.65" y="-2373.86" font-family="Times,serif" font-size="14.00">salt*15888</text>
</g>
<!-- 2,1 (Niobium plates) -->
<g id="node9" class="node">
<title>2,1 (Niobium plates)</title>
<ellipse fill="none" stroke="black" cx="105.94" cy="-1903.26" rx="105.88" ry="18"/>
<text text-anchor="middle" x="105.94" y="-1899.56" font-family="Times,serif" font-size="14.00">2,1 (Niobium plates)</text>
</g>
<!-- 1,8 (A copper mine, Salt)&#45;&gt;2,1 (Niobium plates) -->
<g id="edge24" class="edge">
<title>1,8 (A copper mine, Salt)&#45;&gt;2,1 (Niobium plates)</title>
<path fill="none" stroke="black" stroke-width="0.28" d="M3564.3,-976.59C3142.92,-1089.5 616.37,-1766.49 172.5,-1885.42"/>
<polygon fill="black" stroke="black" stroke-width="0.28" points="171.46,-1882.08 162.71,-1888.05 173.27,-1888.84 171.46,-1882.08"/>
<text text-anchor="middle" x="1833.4" y="-1434.81" font-family="Times,serif" font-size="14.00">salt*8000</text>
</g>
<!-- 1,8 (A copper mine, Salt)&#45;&gt;&#45;6,&#45;1 (item=agar Agar) -->
<g id="edge16" class="edge">
<title>1,8 (A copper mine, Salt)&#45;&gt;&#45;6,&#45;1 (item=agar Agar)</title>
<path fill="none" stroke="black" stroke-width="2.73" d="M3623.88,-978.68C3623.88,-1156.74 3623.88,-2596.51 3623.88,-2817.47"/>
<polygon fill="black" stroke="black" stroke-width="2.73" points="3620.38,-2817.61 3623.88,-2827.61 3627.38,-2817.61 3620.38,-2817.61"/>
<text text-anchor="middle" x="3584.38" y="-1886.88" font-family="Times,serif" font-size="14.00">salt*76703</text>
</g>
<!-- 1,8 (A copper mine, Salt)&#45;&gt;&#45;5,2 (Optical fiber) -->
<g id="edge22" class="edge">
<title>1,8 (A copper mine, Salt)&#45;&gt;&#45;5,2 (Optical fiber)</title>
<path fill="none" stroke="black" stroke-width="1.67" d="M3605.78,-942.53C3510.77,-847.52 3069.91,-406.66 2959.14,-295.89"/>
<polygon fill="black" stroke="black" stroke-width="1.67" points="2961.29,-293.09 2951.74,-288.49 2956.34,-298.04 2961.29,-293.09"/>
<text text-anchor="middle" x="3242.96" y="-623.01" font-family="Times,serif" font-size="14.00">salt*47102</text>
</g>
<!-- &#45;3,7 (item=sea&#45;sponge&#45;sprouts Also Borax) -->
<g id="node8" class="node">
<title>&#45;3,7 (item=sea&#45;sponge&#45;sprouts Also Borax)</title>
<ellipse fill="none" stroke="black" cx="1048.57" cy="-270.58" rx="209.06" ry="18"/>
<text text-anchor="middle" x="1048.57" y="-266.88" font-family="Times,serif" font-size="14.00">&#45;3,7 (item=sea&#45;sponge&#45;sprouts Also Borax)</text>
</g>
<!-- &#45;3,7 (item=sea&#45;sponge&#45;sprouts Also Borax)&#45;&gt;2,0 (Sodium Sulfate) -->
<g id="edge17" class="edge">
<title>&#45;3,7 (item=sea&#45;sponge&#45;sprouts Also Borax)&#45;&gt;2,0 (Sodium Sulfate)</title>
<path fill="none" stroke="black" stroke-width="0.55" d="M1112.62,-253.41C1283.75,-207.56 1750.43,-82.51 1924.53,-35.86"/>
<polygon fill="black" stroke="black" stroke-width="0.55" points="1925.58,-39.21 1934.34,-33.24 1923.77,-32.44 1925.58,-39.21"/>
<text text-anchor="middle" x="1479.08" y="-148.44" font-family="Times,serif" font-size="14.00">salt*15424</text>
</g>
<!-- &#45;3,7 (item=sea&#45;sponge&#45;sprouts Also Borax)&#45;&gt;4,4 (Hydrogen Chloride, item=nylon Nylon/Nylon parts) -->
<g id="edge15" class="edge">
<title>&#45;3,7 (item=sea&#45;sponge&#45;sprouts Also Borax)&#45;&gt;4,4 (Hydrogen Chloride, item=nylon Nylon/Nylon parts)</title>
<path fill="none" stroke="black" stroke-width="0.36" d="M1079.84,-288.63C1365.26,-453.42 3515.33,-1694.76 3836.4,-1880.13"/>
<polygon fill="black" stroke="black" stroke-width="0.36" points="3834.95,-1883.34 3845.36,-1885.3 3838.45,-1877.27 3834.95,-1883.34"/>
<text text-anchor="middle" x="2418.62" y="-1088.18" font-family="Times,serif" font-size="14.00">salt*10224</text>
</g>
<!-- &#45;3,7 (item=sea&#45;sponge&#45;sprouts Also Borax)&#45;&gt;1,6 (Sodium Hydroxide, These new bullets are fun, Limestone) -->
<g id="edge18" class="edge">
<title>&#45;3,7 (item=sea&#45;sponge&#45;sprouts Also Borax)&#45;&gt;1,6 (Sodium Hydroxide, These new bullets are fun, Limestone)</title>
<path fill="none" stroke="black" stroke-width="0.36" d="M1059.17,-288.94C1202.12,-536.54 2745.28,-3209.36 2918.11,-3508.72"/>
<polygon fill="black" stroke="black" stroke-width="0.36" points="2915.22,-3510.72 2923.26,-3517.63 2921.29,-3507.22 2915.22,-3510.72"/>
<text text-anchor="middle" x="1949.14" y="-1887.63" font-family="Times,serif" font-size="14.00">salt*10208</text>
</g>
<!-- &#45;3,7 (item=sea&#45;sponge&#45;sprouts Also Borax)&#45;&gt;2,7 (Mystery petrochemicals) -->
<g id="edge11" class="edge">
<title>&#45;3,7 (item=sea&#45;sponge&#45;sprouts Also Borax)&#45;&gt;2,7 (Mystery petrochemicals)</title>
<path fill="none" stroke="black" stroke-width="0.91" d="M1030.47,-288.68C935.46,-383.69 494.6,-824.54 383.83,-935.32"/>
<polygon fill="black" stroke="black" stroke-width="0.91" points="381.03,-933.17 376.43,-942.72 385.98,-938.12 381.03,-933.17"/>
<text text-anchor="middle" x="667.65" y="-615.8" font-family="Times,serif" font-size="14.00">salt*25696</text>
</g>
<!-- &#45;3,7 (item=sea&#45;sponge&#45;sprouts Also Borax)&#45;&gt;2,1 (Niobium plates) -->
<g id="edge9" class="edge">
<title>&#45;3,7 (item=sea&#45;sponge&#45;sprouts Also Borax)&#45;&gt;2,1 (Niobium plates)</title>
<path fill="none" stroke="black" stroke-width="0.14" d="M1038.14,-288.63C943.61,-452.36 235.48,-1678.89 121.43,-1876.44"/>
<polygon fill="black" stroke="black" stroke-width="0.14" points="118.27,-1874.89 116.31,-1885.3 124.34,-1878.39 118.27,-1874.89"/>
<text text-anchor="middle" x="544.79" y="-1086.33" font-family="Times,serif" font-size="14.00">salt*4000</text>
</g>
<!-- &#45;3,7 (item=sea&#45;sponge&#45;sprouts Also Borax)&#45;&gt;&#45;6,&#45;1 (item=agar Agar) -->
<g id="edge12" class="edge">
<title>&#45;3,7 (item=sea&#45;sponge&#45;sprouts Also Borax)&#45;&gt;&#45;6,&#45;1 (item=agar Agar)</title>
<path fill="none" stroke="black" stroke-width="0.18" d="M1066.74,-288.75C1282.2,-504.21 3345.61,-2567.62 3598.51,-2820.52"/>
<polygon fill="black" stroke="black" stroke-width="0.18" points="3596.24,-2823.2 3605.79,-2827.79 3601.19,-2818.25 3596.24,-2823.2"/>
<text text-anchor="middle" x="2297.63" y="-1558.44" font-family="Times,serif" font-size="14.00">salt*5184</text>
</g>
<!-- 3,5 (item=molybdenum&#45;plate Molybdenum plate) -->
<g id="node10" class="node">
<title>3,5 (item=molybdenum&#45;plate Molybdenum plate)</title>
<ellipse fill="none" stroke="black" cx="358.52" cy="-2845.89" rx="239.66" ry="18"/>
<text text-anchor="middle" x="358.52" y="-2842.19" font-family="Times,serif" font-size="14.00">3,5 (item=molybdenum&#45;plate Molybdenum plate)</text>
</g>
<!-- 3,5 (item=molybdenum&#45;plate Molybdenum plate)&#45;&gt;2,0 (Sodium Sulfate) -->
<g id="edge10" class="edge">
<title>3,5 (item=molybdenum&#45;plate Molybdenum plate)&#45;&gt;2,0 (Sodium Sulfate)</title>
<path fill="none" stroke="black" stroke-width="0.8" d="M368.94,-2827.83C499.59,-2601.55 1816.77,-320.12 1975.56,-45.09"/>
<polygon fill="black" stroke="black" stroke-width="0.8" points="1978.75,-46.57 1980.72,-36.16 1972.68,-43.07 1978.75,-46.57"/>
<text text-anchor="middle" x="1132.75" y="-1440.26" font-family="Times,serif" font-size="14.00">salt*22624</text>
</g>
<!-- 3,5 (item=molybdenum&#45;plate Molybdenum plate)&#45;&gt;2,7 (Mystery petrochemicals) -->
<g id="edge26" class="edge">
<title>3,5 (item=molybdenum&#45;plate Molybdenum plate)&#45;&gt;2,7 (Mystery petrochemicals)</title>
<path fill="none" stroke="black" stroke-width="0.27" d="M358.52,-2827.83C358.52,-2649.77 358.52,-1210.01 358.52,-989.04"/>
<polygon fill="black" stroke="black" stroke-width="0.27" points="362.02,-988.91 358.52,-978.91 355.02,-988.91 362.02,-988.91"/>
<text text-anchor="middle" x="323.52" y="-1912.24" font-family="Times,serif" font-size="14.00">salt*7552</text>
</g>
<!-- 3,5 (item=molybdenum&#45;plate Molybdenum plate)&#45;&gt;2,1 (Niobium plates) -->
<g id="edge23" class="edge">
<title>3,5 (item=molybdenum&#45;plate Molybdenum plate)&#45;&gt;2,1 (Niobium plates)</title>
<path fill="none" stroke="black" stroke-width="0.14" d="M353.59,-2827.48C322.28,-2710.64 151.32,-2072.61 113.39,-1931.07"/>
<polygon fill="black" stroke="black" stroke-width="0.14" points="116.77,-1930.15 110.8,-1921.4 110.01,-1931.96 116.77,-1930.15"/>
<text text-anchor="middle" x="198.49" y="-2383.08" font-family="Times,serif" font-size="14.00">salt*4000</text>
</g>
<!-- 3,5 (item=molybdenum&#45;plate Molybdenum plate)&#45;&gt;&#45;5,2 (Optical fiber) -->
<g id="edge25" class="edge">
<title>3,5 (item=molybdenum&#45;plate Molybdenum plate)&#45;&gt;&#45;5,2 (Optical fiber)</title>
<path fill="none" stroke="black" stroke-width="0.27" d="M376.69,-2827.71C592.26,-2612.14 2657.68,-546.72 2908.85,-295.55"/>
<polygon fill="black" stroke="black" stroke-width="0.27" points="2911.47,-297.88 2916.07,-288.33 2906.52,-292.93 2911.47,-297.88"/>
<text text-anchor="middle" x="1607.77" y="-1565.43" font-family="Times,serif" font-size="14.00">salt*7520</text>
</g>
<!-- 0,5 (Titanium Processing (Grade 4)) -->
<g id="node12" class="node">
<title>0,5 (Titanium Processing (Grade 4))</title>
<ellipse fill="none" stroke="black" cx="4125.24" cy="-1903.26" rx="176.57" ry="18"/>
<text text-anchor="middle" x="4125.24" y="-1899.56" font-family="Times,serif" font-size="14.00">0,5 (Titanium Processing (Grade 4))</text>
</g>
<!-- 0,5 (Titanium Processing (Grade 4))&#45;&gt;4,4 (Hydrogen Chloride, item=nylon Nylon/Nylon parts) -->
<g id="edge19" class="edge">
<title>0,5 (Titanium Processing (Grade 4))&#45;&gt;4,4 (Hydrogen Chloride, item=nylon Nylon/Nylon parts)</title>
<path fill="none" stroke="black" stroke-width="0.51" d="M3948.42,-1903.26C3948.34,-1903.26 3948.26,-1903.26 3948.18,-1903.26"/>
<polygon fill="black" stroke="black" stroke-width="0.51" points="3957.94,-1899.76 3947.94,-1903.26 3957.94,-1906.76 3957.94,-1899.76"/>
<text text-anchor="middle" x="3908.8" y="-1907.06" font-family="Times,serif" font-size="14.00">salt*14320</text>
</g>
</g>
</svg>
