<?xml version="1.0" encoding="UTF-8" standalone="no"?>
<!DOCTYPE svg PUBLIC "-//W3C//DTD SVG 1.1//EN"
 "http://www.w3.org/Graphics/SVG/1.1/DTD/svg11.dtd">
<!-- Generated by graphviz version 2.43.0 (0)
 -->
<!-- Title: %3 Pages: 1 -->
<svg width="1345pt" height="937pt"
 viewBox="0.00 0.00 1344.72 937.08" xmlns="http://www.w3.org/2000/svg" xmlns:xlink="http://www.w3.org/1999/xlink">
<g id="graph0" class="graph" transform="scale(1 1) rotate(0) translate(4 933.08)">
<title>%3</title>
<polygon fill="white" stroke="transparent" points="-4,4 -4,-933.08 1340.72,-933.08 1340.72,4 -4,4"/>
<!-- &#45;1,8 (Fibre via. moss) -->
<g id="node1" class="node">
<title>&#45;1,8 (Fibre via. moss)</title>
<ellipse fill="none" stroke="black" cx="1007.41" cy="-18" rx="109.38" ry="18"/>
<text text-anchor="middle" x="1007.41" y="-14.3" font-family="Times,serif" font-size="14.00">&#45;1,8 (Fibre via. moss)</text>
</g>
<!-- 4,1 (item=filtration&#45;media Filtration Media) -->
<g id="node2" class="node">
<title>4,1 (item=filtration&#45;media Filtration Media)</title>
<ellipse fill="none" stroke="black" cx="491.79" cy="-18" rx="214.46" ry="18"/>
<text text-anchor="middle" x="491.79" y="-14.3" font-family="Times,serif" font-size="14.00">4,1 (item=filtration&#45;media Filtration Media)</text>
</g>
<!-- &#45;1,8 (Fibre via. moss)&#45;&gt;4,1 (item=filtration&#45;media Filtration Media) -->
<g id="edge1" class="edge">
<title>&#45;1,8 (Fibre via. moss)&#45;&gt;4,1 (item=filtration&#45;media Filtration Media)</title>
<path fill="none" stroke="black" stroke-width="6.57" d="M898.06,-18C845.1,-18 779.45,-18 716.49,-18"/>
<polygon fill="black" stroke="black" stroke-width="6.57" points="716.41,-12.25 706.41,-18 716.41,-23.75 716.41,-12.25"/>
<text text-anchor="middle" x="807.27" y="-6.8" font-family="Times,serif" font-size="14.00">raw&#45;fiber*215776</text>
</g>
<!-- 0,0 (LE BUS) -->
<g id="node3" class="node">
<title>0,0 (LE BUS)</title>
<ellipse fill="none" stroke="black" cx="1265.22" cy="-464.54" rx="71.49" ry="18"/>
<text text-anchor="middle" x="1265.22" y="-460.84" font-family="Times,serif" font-size="14.00">0,0 (LE BUS)</text>
</g>
<!-- &#45;1,8 (Fibre via. moss)&#45;&gt;0,0 (LE BUS) -->
<g id="edge2" class="edge">
<title>&#45;1,8 (Fibre via. moss)&#45;&gt;0,0 (LE BUS)</title>
<path fill="none" stroke="black" stroke-width="0.25" d="M1017.84,-36.06C1057.84,-105.34 1201.65,-354.43 1249.57,-437.42"/>
<polygon fill="black" stroke="black" stroke-width="0.25" points="1246.64,-439.35 1254.67,-446.26 1252.7,-435.85 1246.64,-439.35"/>
<text text-anchor="middle" x="1079.2" y="-240.54" font-family="Times,serif" font-size="14.00">raw&#45;fiber*8192</text>
</g>
<!-- &#45;3,1 (Logistic science pack, Automation Science) -->
<g id="node4" class="node">
<title>&#45;3,1 (Logistic science pack, Automation Science)</title>
<ellipse fill="none" stroke="black" cx="233.98" cy="-464.54" rx="233.96" ry="18"/>
<text text-anchor="middle" x="233.98" y="-460.84" font-family="Times,serif" font-size="14.00">&#45;3,1 (Logistic science pack, Automation Science)</text>
</g>
<!-- &#45;1,8 (Fibre via. moss)&#45;&gt;&#45;3,1 (Logistic science pack, Automation Science) -->
<g id="edge3" class="edge">
<title>&#45;1,8 (Fibre via. moss)&#45;&gt;&#45;3,1 (Logistic science pack, Automation Science)</title>
<path fill="none" stroke="black" stroke-width="0.12" d="M977.09,-35.5C856.42,-105.18 410.21,-362.8 273.83,-441.53"/>
<polygon fill="black" stroke="black" stroke-width="0.12" points="271.84,-438.64 264.93,-446.67 275.34,-444.7 271.84,-438.64"/>
<text text-anchor="middle" x="570.96" y="-242.32" font-family="Times,serif" font-size="14.00">raw&#45;fiber*4096</text>
</g>
<!-- 4,2 (More fiberboard) -->
<g id="node5" class="node">
<title>4,2 (More fiberboard)</title>
<ellipse fill="none" stroke="black" cx="491.79" cy="-911.08" rx="111.28" ry="18"/>
<text text-anchor="middle" x="491.79" y="-907.38" font-family="Times,serif" font-size="14.00">4,2 (More fiberboard)</text>
</g>
<!-- &#45;1,8 (Fibre via. moss)&#45;&gt;4,2 (More fiberboard) -->
<g id="edge4" class="edge">
<title>&#45;1,8 (Fibre via. moss)&#45;&gt;4,2 (More fiberboard)</title>
<path fill="none" stroke="black" stroke-width="0.06" d="M996.88,-36.24C931.88,-148.82 585.6,-748.61 507.46,-883.94"/>
<polygon fill="black" stroke="black" stroke-width="0.06" points="504.28,-882.46 502.31,-892.87 510.34,-885.96 504.28,-882.46"/>
<text text-anchor="middle" x="697.67" y="-463.89" font-family="Times,serif" font-size="14.00">raw&#45;fiber*2064</text>
</g>
<!-- 4,5 (Yet More Raw Fiber) -->
<g id="node6" class="node">
<title>4,5 (Yet More Raw Fiber)</title>
<ellipse fill="none" stroke="black" cx="1007.41" cy="-911.08" rx="128.08" ry="18"/>
<text text-anchor="middle" x="1007.41" y="-907.38" font-family="Times,serif" font-size="14.00">4,5 (Yet More Raw Fiber)</text>
</g>
<!-- 4,5 (Yet More Raw Fiber)&#45;&gt;4,1 (item=filtration&#45;media Filtration Media) -->
<g id="edge8" class="edge">
<title>4,5 (Yet More Raw Fiber)&#45;&gt;4,1 (item=filtration&#45;media Filtration Media)</title>
<path fill="none" stroke="black" stroke-width="0.77" d="M996.88,-892.84C931.88,-780.27 585.6,-180.48 507.46,-45.14"/>
<polygon fill="black" stroke="black" stroke-width="0.77" points="510.34,-43.13 502.31,-36.22 504.28,-46.63 510.34,-43.13"/>
<text text-anchor="middle" x="811.17" y="-472.79" font-family="Times,serif" font-size="14.00">raw&#45;fiber*25328</text>
</g>
<!-- 4,5 (Yet More Raw Fiber)&#45;&gt;0,0 (LE BUS) -->
<g id="edge7" class="edge">
<title>4,5 (Yet More Raw Fiber)&#45;&gt;0,0 (LE BUS)</title>
<path fill="none" stroke="black" stroke-width="0.12" d="M1017.84,-893.03C1057.84,-823.74 1201.65,-574.65 1249.57,-491.66"/>
<polygon fill="black" stroke="black" stroke-width="0.12" points="1252.7,-493.24 1254.67,-482.82 1246.64,-489.74 1252.7,-493.24"/>
<text text-anchor="middle" x="1079.2" y="-696.14" font-family="Times,serif" font-size="14.00">raw&#45;fiber*4032</text>
</g>
<!-- 4,5 (Yet More Raw Fiber)&#45;&gt;&#45;3,1 (Logistic science pack, Automation Science) -->
<g id="edge6" class="edge">
<title>4,5 (Yet More Raw Fiber)&#45;&gt;&#45;3,1 (Logistic science pack, Automation Science)</title>
<path fill="none" stroke="black" stroke-width="0.03" d="M977.09,-893.58C856.42,-823.91 410.21,-566.29 273.83,-487.55"/>
<polygon fill="black" stroke="black" stroke-width="0.03" points="275.34,-484.38 264.93,-482.41 271.84,-490.44 275.34,-484.38"/>
<text text-anchor="middle" x="570.96" y="-694.37" font-family="Times,serif" font-size="14.00">raw&#45;fiber*1088</text>
</g>
<!-- 4,5 (Yet More Raw Fiber)&#45;&gt;4,2 (More fiberboard) -->
<g id="edge5" class="edge">
<title>4,5 (Yet More Raw Fiber)&#45;&gt;4,2 (More fiberboard)</title>
<path fill="none" stroke="black" stroke-width="0.06" d="M879.29,-911.08C797.92,-911.08 693.24,-911.08 613.19,-911.08"/>
<polygon fill="black" stroke="black" stroke-width="0.06" points="613.06,-907.58 603.06,-911.08 613.06,-914.58 613.06,-907.58"/>
<text text-anchor="middle" x="691.74" y="-914.88" font-family="Times,serif" font-size="14.00">raw&#45;fiber*2080</text>
</g>
</g>
</svg>
