<?xml version="1.0" encoding="UTF-8" standalone="no"?>
<!DOCTYPE svg PUBLIC "-//W3C//DTD SVG 1.1//EN"
 "http://www.w3.org/Graphics/SVG/1.1/DTD/svg11.dtd">
<!-- Generated by graphviz version 2.43.0 (0)
 -->
<!-- Title: %3 Pages: 1 -->
<svg width="1438pt" height="965pt"
 viewBox="0.00 0.00 1438.24 964.86" xmlns="http://www.w3.org/2000/svg" xmlns:xlink="http://www.w3.org/1999/xlink">
<g id="graph0" class="graph" transform="scale(1 1) rotate(0) translate(4 960.86)">
<title>%3</title>
<polygon fill="white" stroke="transparent" points="-4,4 -4,-960.86 1434.24,-960.86 1434.24,4 -4,4"/>
<!-- &#45;6,6 (coal pickup train station, titanium pickup station) -->
<g id="node1" class="node">
<title>&#45;6,6 (coal pickup train station, titanium pickup station)</title>
<ellipse fill="none" stroke="black" cx="786.05" cy="-938.86" rx="264.55" ry="18"/>
<text text-anchor="middle" x="786.05" y="-935.16" font-family="Times,serif" font-size="14.00">&#45;6,6 (coal pickup train station, titanium pickup station)</text>
</g>
<!-- 2,8 (Graphite) -->
<g id="node2" class="node">
<title>2,8 (Graphite)</title>
<ellipse fill="none" stroke="black" cx="1246.48" cy="-478.43" rx="76.09" ry="18"/>
<text text-anchor="middle" x="1246.48" y="-474.73" font-family="Times,serif" font-size="14.00">2,8 (Graphite)</text>
</g>
<!-- &#45;6,6 (coal pickup train station, titanium pickup station)&#45;&gt;2,8 (Graphite) -->
<g id="edge1" class="edge">
<title>&#45;6,6 (coal pickup train station, titanium pickup station)&#45;&gt;2,8 (Graphite)</title>
<path fill="none" stroke="black" stroke-width="1.47" d="M804.1,-920.81C875.53,-849.38 1138.59,-586.32 1221.37,-503.54"/>
<polygon fill="black" stroke="black" stroke-width="1.47" points="1224.21,-505.65 1228.8,-496.11 1219.26,-500.7 1224.21,-505.65"/>
<text text-anchor="middle" x="952.23" y="-715.98" font-family="Times,serif" font-size="14.00">raw&#45;coal*158624</text>
</g>
<!-- &#45;5,&#45;1 (Coal and Coke and Syngas and Ash and Coke Oven Gas and...) -->
<g id="node4" class="node">
<title>&#45;5,&#45;1 (Coal and Coke and Syngas and Ash and Coke Oven Gas and...)</title>
<ellipse fill="none" stroke="black" cx="325.62" cy="-478.43" rx="325.74" ry="18"/>
<text text-anchor="middle" x="325.62" y="-474.73" font-family="Times,serif" font-size="14.00">&#45;5,&#45;1 (Coal and Coke and Syngas and Ash and Coke Oven Gas and...)</text>
</g>
<!-- &#45;6,6 (coal pickup train station, titanium pickup station)&#45;&gt;&#45;5,&#45;1 (Coal and Coke and Syngas and Ash and Coke Oven Gas and...) -->
<g id="edge3" class="edge">
<title>&#45;6,6 (coal pickup train station, titanium pickup station)&#45;&gt;&#45;5,&#45;1 (Coal and Coke and Syngas and Ash and Coke Oven Gas and...)</title>
<path fill="none" stroke="black" stroke-width="1.19" d="M768,-920.81C696.73,-849.54 434.7,-587.51 351.3,-504.11"/>
<polygon fill="black" stroke="black" stroke-width="1.19" points="353.34,-501.2 343.8,-496.6 348.39,-506.15 353.34,-501.2"/>
<text text-anchor="middle" x="499.15" y="-716.26" font-family="Times,serif" font-size="14.00">raw&#45;coal*129056</text>
</g>
<!-- 4,14 (A Coal mine) -->
<g id="node3" class="node">
<title>4,14 (A Coal mine)</title>
<ellipse fill="none" stroke="black" cx="786.05" cy="-18" rx="96.68" ry="18"/>
<text text-anchor="middle" x="786.05" y="-14.3" font-family="Times,serif" font-size="14.00">4,14 (A Coal mine)</text>
</g>
<!-- 4,14 (A Coal mine)&#45;&gt;2,8 (Graphite) -->
<g id="edge2" class="edge">
<title>4,14 (A Coal mine)&#45;&gt;2,8 (Graphite)</title>
<path fill="none" stroke="black" stroke-width="0.93" d="M803.82,-35.77C874.82,-106.77 1138.37,-370.32 1221.32,-453.26"/>
<polygon fill="black" stroke="black" stroke-width="0.93" points="1219.22,-456.12 1228.77,-460.72 1224.17,-451.17 1219.22,-456.12"/>
<text text-anchor="middle" x="952.07" y="-248.32" font-family="Times,serif" font-size="14.00">raw&#45;coal*100533</text>
</g>
<!-- 4,14 (A Coal mine)&#45;&gt;&#45;5,&#45;1 (Coal and Coke and Syngas and Ash and Coke Oven Gas and...) -->
<g id="edge5" class="edge">
<title>4,14 (A Coal mine)&#45;&gt;&#45;5,&#45;1 (Coal and Coke and Syngas and Ash and Coke Oven Gas and...)</title>
<path fill="none" stroke="black" stroke-width="1.22" d="M768.28,-35.77C697.44,-106.61 434.92,-369.13 351.35,-452.7"/>
<polygon fill="black" stroke="black" stroke-width="1.22" points="348.43,-450.67 343.83,-460.22 353.38,-455.62 348.43,-450.67"/>
<text text-anchor="middle" x="499.32" y="-248.03" font-family="Times,serif" font-size="14.00">raw&#45;coal*132432</text>
</g>
<!-- 1,11 () -->
<g id="node5" class="node">
<title>1,11 ()</title>
<ellipse fill="none" stroke="black" cx="1359.43" cy="-478.43" rx="40.89" ry="18"/>
<text text-anchor="middle" x="1359.43" y="-474.73" font-family="Times,serif" font-size="14.00">1,11 ()</text>
</g>
<!-- 1,11 ()&#45;&gt;2,8 (Graphite) -->
<g id="edge4" class="edge">
<title>1,11 ()&#45;&gt;2,8 (Graphite)</title>
<path fill="none" stroke="black" stroke-width="0.19" d="M1318.33,-478.43C1318.27,-478.43 1318.21,-478.43 1318.14,-478.43"/>
<polygon fill="black" stroke="black" stroke-width="0.19" points="1327.96,-474.94 1317.95,-478.43 1327.95,-481.94 1327.96,-474.94"/>
<text text-anchor="middle" x="1374.24" y="-482.23" font-family="Times,serif" font-size="14.00">raw&#45;coal*20360</text>
</g>
</g>
</svg>
