<?xml version="1.0" encoding="UTF-8" standalone="no"?>
<!DOCTYPE svg PUBLIC "-//W3C//DTD SVG 1.1//EN"
 "http://www.w3.org/Graphics/SVG/1.1/DTD/svg11.dtd">
<!-- Generated by graphviz version 2.43.0 (0)
 -->
<!-- Title: %3 Pages: 1 -->
<svg width="2150pt" height="1825pt"
 viewBox="0.00 0.00 2149.91 1825.27" xmlns="http://www.w3.org/2000/svg" xmlns:xlink="http://www.w3.org/1999/xlink">
<g id="graph0" class="graph" transform="scale(1 1) rotate(0) translate(4 1821.27)">
<title>%3</title>
<polygon fill="white" stroke="transparent" points="-4,4 -4,-1821.27 2145.91,-1821.27 2145.91,4 -4,4"/>
<!-- &#45;6,4 (Urea) -->
<g id="node1" class="node">
<title>&#45;6,4 (Urea)</title>
<ellipse fill="none" stroke="black" cx="1859.33" cy="-908.63" rx="61.19" ry="18"/>
<text text-anchor="middle" x="1859.33" y="-904.93" font-family="Times,serif" font-size="14.00">&#45;6,4 (Urea)</text>
</g>
<!-- 0,0 (LE BUS) -->
<g id="node2" class="node">
<title>0,0 (LE BUS)</title>
<ellipse fill="none" stroke="black" cx="831.48" cy="-1799.27" rx="71.49" ry="18"/>
<text text-anchor="middle" x="831.48" y="-1795.57" font-family="Times,serif" font-size="14.00">0,0 (LE BUS)</text>
</g>
<!-- &#45;6,4 (Urea)&#45;&gt;0,0 (LE BUS) -->
<g id="edge1" class="edge">
<title>&#45;6,4 (Urea)&#45;&gt;0,0 (LE BUS)</title>
<path fill="none" stroke="black" stroke-width="1.14" d="M1839.26,-926.03C1711.23,-1036.97 1009.27,-1645.21 859.57,-1774.93"/>
<polygon fill="black" stroke="black" stroke-width="1.14" points="856.95,-1772.57 851.68,-1781.77 861.53,-1777.86 856.95,-1772.57"/>
<text text-anchor="middle" x="1302.42" y="-1354.28" font-family="Times,serif" font-size="14.00">urea*100800</text>
</g>
<!-- &#45;5,2 (Optical fiber) -->
<g id="node5" class="node">
<title>&#45;5,2 (Optical fiber)</title>
<ellipse fill="none" stroke="black" cx="96.19" cy="-1162.14" rx="96.38" ry="18"/>
<text text-anchor="middle" x="96.19" y="-1158.44" font-family="Times,serif" font-size="14.00">&#45;5,2 (Optical fiber)</text>
</g>
<!-- &#45;6,4 (Urea)&#45;&gt;&#45;5,2 (Optical fiber) -->
<g id="edge10" class="edge">
<title>&#45;6,4 (Urea)&#45;&gt;&#45;5,2 (Optical fiber)</title>
<path fill="none" stroke="black" stroke-width="1.99" d="M1804.14,-916.57C1550.3,-953.07 494.08,-1104.93 182.85,-1149.68"/>
<polygon fill="black" stroke="black" stroke-width="1.99" points="181.94,-1146.27 172.54,-1151.16 182.93,-1153.2 181.94,-1146.27"/>
<text text-anchor="middle" x="946.5" y="-1036.92" font-family="Times,serif" font-size="14.00">urea*175920</text>
</g>
<!-- &#45;6,&#45;2 (item=fertilizer Fertiliser) -->
<g id="node6" class="node">
<title>&#45;6,&#45;2 (item=fertilizer Fertiliser)</title>
<ellipse fill="none" stroke="black" cx="1716.49" cy="-1395.1" rx="155.97" ry="18"/>
<text text-anchor="middle" x="1716.49" y="-1391.4" font-family="Times,serif" font-size="14.00">&#45;6,&#45;2 (item=fertilizer Fertiliser)</text>
</g>
<!-- &#45;6,4 (Urea)&#45;&gt;&#45;6,&#45;2 (item=fertilizer Fertiliser) -->
<g id="edge11" class="edge">
<title>&#45;6,4 (Urea)&#45;&gt;&#45;6,&#45;2 (item=fertilizer Fertiliser)</title>
<path fill="none" stroke="black" stroke-width="0.91" d="M1853.99,-926.82C1832.31,-1000.65 1750.78,-1278.34 1724.62,-1367.42"/>
<polygon fill="black" stroke="black" stroke-width="0.91" points="1721.24,-1366.5 1721.78,-1377.08 1727.96,-1368.48 1721.24,-1366.5"/>
<text text-anchor="middle" x="1746.81" y="-1150.92" font-family="Times,serif" font-size="14.00">urea*80720</text>
</g>
<!-- 4,9 (Cyanic Acid, Ammonia is a by&#45;product) -->
<g id="node7" class="node">
<title>4,9 (Cyanic Acid, Ammonia is a by&#45;product)</title>
<ellipse fill="none" stroke="black" cx="1333.32" cy="-1727.12" rx="210.66" ry="18"/>
<text text-anchor="middle" x="1333.32" y="-1723.42" font-family="Times,serif" font-size="14.00">4,9 (Cyanic Acid, Ammonia is a by&#45;product)</text>
</g>
<!-- &#45;6,4 (Urea)&#45;&gt;4,9 (Cyanic Acid, Ammonia is a by&#45;product) -->
<g id="edge6" class="edge">
<title>&#45;6,4 (Urea)&#45;&gt;4,9 (Cyanic Acid, Ammonia is a by&#45;product)</title>
<path fill="none" stroke="black" stroke-width="10.59" d="M1847.85,-926.49C1780.07,-1031.97 1432.21,-1573.24 1350.52,-1700.37"/>
<polygon fill="black" stroke="black" stroke-width="10.59" points="1342.71,-1695.37 1345.1,-1708.79 1358.3,-1705.39 1342.71,-1695.37"/>
<text text-anchor="middle" x="1552.19" y="-1317.23" font-family="Times,serif" font-size="14.00">urea*936160</text>
</g>
<!-- &#45;1,7 (Rayon) -->
<g id="node8" class="node">
<title>&#45;1,7 (Rayon)</title>
<ellipse fill="none" stroke="black" cx="96.19" cy="-655.13" rx="66.89" ry="18"/>
<text text-anchor="middle" x="96.19" y="-651.43" font-family="Times,serif" font-size="14.00">&#45;1,7 (Rayon)</text>
</g>
<!-- &#45;6,4 (Urea)&#45;&gt;&#45;1,7 (Rayon) -->
<g id="edge7" class="edge">
<title>&#45;6,4 (Urea)&#45;&gt;&#45;1,7 (Rayon)</title>
<path fill="none" stroke="black" stroke-width="1.66" d="M1804.14,-900.7C1545.44,-863.5 453.32,-706.48 165.8,-665.14"/>
<polygon fill="black" stroke="black" stroke-width="1.66" points="165.91,-661.62 155.51,-663.66 164.91,-668.55 165.91,-661.62"/>
<text text-anchor="middle" x="937.97" y="-786.72" font-family="Times,serif" font-size="14.00">urea*146560</text>
</g>
<!-- 1,4 (Casein and Melamine) -->
<g id="node9" class="node">
<title>1,4 (Casein and Melamine)</title>
<ellipse fill="none" stroke="black" cx="1716.49" cy="-422.17" rx="135.38" ry="18"/>
<text text-anchor="middle" x="1716.49" y="-418.47" font-family="Times,serif" font-size="14.00">1,4 (Casein and Melamine)</text>
</g>
<!-- &#45;6,4 (Urea)&#45;&gt;1,4 (Casein and Melamine) -->
<g id="edge8" class="edge">
<title>&#45;6,4 (Urea)&#45;&gt;1,4 (Casein and Melamine)</title>
<path fill="none" stroke="black" stroke-width="3.22" d="M1853.99,-890.45C1832.31,-816.62 1750.78,-538.93 1724.62,-449.85"/>
<polygon fill="black" stroke="black" stroke-width="3.22" points="1727.96,-448.79 1721.78,-440.18 1721.24,-450.77 1727.96,-448.79"/>
<text text-anchor="middle" x="1742.31" y="-673.95" font-family="Times,serif" font-size="14.00">urea*285040</text>
</g>
<!-- 7,1 (item=aerogel item=clean&#45;rf&#45;gel Aerogel) -->
<g id="node10" class="node">
<title>7,1 (item=aerogel item=clean&#45;rf&#45;gel Aerogel)</title>
<ellipse fill="none" stroke="black" cx="831.48" cy="-18" rx="220.96" ry="18"/>
<text text-anchor="middle" x="831.48" y="-14.3" font-family="Times,serif" font-size="14.00">7,1 (item=aerogel item=clean&#45;rf&#45;gel Aerogel)</text>
</g>
<!-- &#45;6,4 (Urea)&#45;&gt;7,1 (item=aerogel item=clean&#45;rf&#45;gel Aerogel) -->
<g id="edge9" class="edge">
<title>&#45;6,4 (Urea)&#45;&gt;7,1 (item=aerogel item=clean&#45;rf&#45;gel Aerogel)</title>
<path fill="none" stroke="black" stroke-width="0.12" d="M1839.26,-891.24C1711.37,-780.43 1010.9,-173.46 860.09,-42.79"/>
<polygon fill="black" stroke="black" stroke-width="0.12" points="862.38,-40.14 852.53,-36.24 857.8,-45.43 862.38,-40.14"/>
<text text-anchor="middle" x="1307.18" y="-470.82" font-family="Times,serif" font-size="14.00">urea*10720</text>
</g>
<!-- 2,4 (Formica and Phenolic boards) -->
<g id="node11" class="node">
<title>2,4 (Formica and Phenolic boards)</title>
<ellipse fill="none" stroke="black" cx="1333.32" cy="-90.15" rx="169.77" ry="18"/>
<text text-anchor="middle" x="1333.32" y="-86.45" font-family="Times,serif" font-size="14.00">2,4 (Formica and Phenolic boards)</text>
</g>
<!-- &#45;6,4 (Urea)&#45;&gt;2,4 (Formica and Phenolic boards) -->
<g id="edge13" class="edge">
<title>&#45;6,4 (Urea)&#45;&gt;2,4 (Formica and Phenolic boards)</title>
<path fill="none" stroke="black" stroke-width="0.45" d="M1847.85,-890.78C1780.06,-785.3 1432.16,-243.94 1350.5,-116.87"/>
<polygon fill="black" stroke="black" stroke-width="0.45" points="1353.22,-114.65 1344.87,-108.13 1347.34,-118.43 1353.22,-114.65"/>
<text text-anchor="middle" x="1556.68" y="-507.63" font-family="Times,serif" font-size="14.00">urea*39600</text>
</g>
<!-- &#45;5,7 (Grod Products) -->
<g id="node12" class="node">
<title>&#45;5,7 (Grod Products)</title>
<ellipse fill="none" stroke="black" cx="2036.62" cy="-908.63" rx="105.08" ry="18"/>
<text text-anchor="middle" x="2036.62" y="-904.93" font-family="Times,serif" font-size="14.00">&#45;5,7 (Grod Products)</text>
</g>
<!-- &#45;6,4 (Urea)&#45;&gt;&#45;5,7 (Grod Products) -->
<g id="edge18" class="edge">
<title>&#45;6,4 (Urea)&#45;&gt;&#45;5,7 (Grod Products)</title>
<path fill="none" stroke="black" stroke-width="0.31" d="M1920.84,-908.63C1920.95,-908.63 1921.05,-908.63 1921.16,-908.63"/>
<polygon fill="black" stroke="black" stroke-width="0.31" points="1921.2,-912.13 1931.2,-908.63 1921.2,-905.13 1921.2,-912.13"/>
<text text-anchor="middle" x="1963.5" y="-912.43" font-family="Times,serif" font-size="14.00">urea*27120</text>
</g>
<!-- 1,3 (item=korlex&#45;food&#45;01 Korlex food) -->
<g id="node3" class="node">
<title>1,3 (item=korlex&#45;food&#45;01 Korlex food)</title>
<ellipse fill="none" stroke="black" cx="370.3" cy="-1588.65" rx="185.77" ry="18"/>
<text text-anchor="middle" x="370.3" y="-1584.95" font-family="Times,serif" font-size="14.00">1,3 (item=korlex&#45;food&#45;01 Korlex food)</text>
</g>
<!-- 1,3 (item=korlex&#45;food&#45;01 Korlex food)&#45;&gt;0,0 (LE BUS) -->
<g id="edge2" class="edge">
<title>1,3 (item=korlex&#45;food&#45;01 Korlex food)&#45;&gt;0,0 (LE BUS)</title>
<path fill="none" stroke="black" stroke-width="0.06" d="M409.22,-1606.43C494.6,-1645.42 697.86,-1738.25 787.6,-1779.23"/>
<polygon fill="black" stroke="black" stroke-width="0.06" points="786.4,-1782.53 796.95,-1783.5 789.31,-1776.16 786.4,-1782.53"/>
<text text-anchor="middle" x="560.41" y="-1696.63" font-family="Times,serif" font-size="14.00">urea*5232</text>
</g>
<!-- 1,3 (item=korlex&#45;food&#45;01 Korlex food)&#45;&gt;&#45;5,2 (Optical fiber) -->
<g id="edge4" class="edge">
<title>1,3 (item=korlex&#45;food&#45;01 Korlex food)&#45;&gt;&#45;5,2 (Optical fiber)</title>
<path fill="none" stroke="black" stroke-width="0.02" d="M358.69,-1570.6C315.62,-1503.58 164.74,-1268.8 113.43,-1188.96"/>
<polygon fill="black" stroke="black" stroke-width="0.02" points="116.3,-1186.95 107.95,-1180.43 110.41,-1190.74 116.3,-1186.95"/>
<text text-anchor="middle" x="198.06" y="-1383.58" font-family="Times,serif" font-size="14.00">urea*2032</text>
</g>
<!-- 1,3 (item=korlex&#45;food&#45;01 Korlex food)&#45;&gt;&#45;6,&#45;2 (item=fertilizer Fertiliser) -->
<g id="edge21" class="edge">
<title>1,3 (item=korlex&#45;food&#45;01 Korlex food)&#45;&gt;&#45;6,&#45;2 (item=fertilizer Fertiliser)</title>
<path fill="none" stroke="black" stroke-width="0.03" d="M474.25,-1573.71C723.93,-1537.81 1355.43,-1447.01 1608.83,-1410.58"/>
<polygon fill="black" stroke="black" stroke-width="0.03" points="1609.39,-1414.04 1618.79,-1409.15 1608.39,-1407.11 1609.39,-1414.04"/>
<text text-anchor="middle" x="1003.54" y="-1495.94" font-family="Times,serif" font-size="14.00">urea*2512</text>
</g>
<!-- 1,3 (item=korlex&#45;food&#45;01 Korlex food)&#45;&gt;4,9 (Cyanic Acid, Ammonia is a by&#45;product) -->
<g id="edge15" class="edge">
<title>1,3 (item=korlex&#45;food&#45;01 Korlex food)&#45;&gt;4,9 (Cyanic Acid, Ammonia is a by&#45;product)</title>
<path fill="none" stroke="black" stroke-width="0.1" d="M474.27,-1603.6C654.89,-1629.57 1025.42,-1682.85 1215.36,-1710.15"/>
<polygon fill="black" stroke="black" stroke-width="0.1" points="1214.98,-1713.64 1225.38,-1711.6 1215.98,-1706.71 1214.98,-1713.64"/>
<text text-anchor="middle" x="806.81" y="-1660.68" font-family="Times,serif" font-size="14.00">urea*8828</text>
</g>
<!-- 1,3 (item=korlex&#45;food&#45;01 Korlex food)&#45;&gt;1,4 (Casein and Melamine) -->
<g id="edge12" class="edge">
<title>1,3 (item=korlex&#45;food&#45;01 Korlex food)&#45;&gt;1,4 (Casein and Melamine)</title>
<path fill="none" stroke="black" stroke-width="0.08" d="M391.17,-1570.56C545.64,-1436.71 1510.09,-601.02 1688.22,-446.67"/>
<polygon fill="black" stroke="black" stroke-width="0.08" points="1690.6,-449.23 1695.87,-440.04 1686.02,-443.94 1690.6,-449.23"/>
<text text-anchor="middle" x="1001.7" y="-1012.42" font-family="Times,serif" font-size="14.00">urea*7392</text>
</g>
<!-- 1,3 (item=korlex&#45;food&#45;01 Korlex food)&#45;&gt;2,4 (Formica and Phenolic boards) -->
<g id="edge17" class="edge">
<title>1,3 (item=korlex&#45;food&#45;01 Korlex food)&#45;&gt;2,4 (Formica and Phenolic boards)</title>
<path fill="none" stroke="black" stroke-width="0.02" d="M381.95,-1570.51C482.04,-1414.77 1195.81,-304.13 1316.13,-116.92"/>
<polygon fill="black" stroke="black" stroke-width="0.02" points="1319.24,-118.54 1321.71,-108.23 1313.35,-114.75 1319.24,-118.54"/>
<text text-anchor="middle" x="811.04" y="-847.52" font-family="Times,serif" font-size="14.00">urea*2064</text>
</g>
<!-- &#45;3,8 (Urea) -->
<g id="node4" class="node">
<title>&#45;3,8 (Urea)</title>
<ellipse fill="none" stroke="black" cx="370.3" cy="-228.62" rx="61.19" ry="18"/>
<text text-anchor="middle" x="370.3" y="-224.92" font-family="Times,serif" font-size="14.00">&#45;3,8 (Urea)</text>
</g>
<!-- &#45;3,8 (Urea)&#45;&gt;0,0 (LE BUS) -->
<g id="edge3" class="edge">
<title>&#45;3,8 (Urea)&#45;&gt;0,0 (LE BUS)</title>
<path fill="none" stroke="black" stroke-width="0.34" d="M375.64,-246.8C422.66,-406.96 765.85,-1575.73 823.33,-1771.49"/>
<polygon fill="black" stroke="black" stroke-width="0.34" points="820.03,-1772.69 826.2,-1781.29 826.75,-1770.71 820.03,-1772.69"/>
<text text-anchor="middle" x="556.98" y="-1012.94" font-family="Times,serif" font-size="14.00">urea*30352</text>
</g>
<!-- &#45;3,8 (Urea)&#45;&gt;&#45;6,&#45;2 (item=fertilizer Fertiliser) -->
<g id="edge5" class="edge">
<title>&#45;3,8 (Urea)&#45;&gt;&#45;6,&#45;2 (item=fertilizer Fertiliser)</title>
<path fill="none" stroke="black" stroke-width="0.06" d="M390.11,-245.78C541.12,-376.64 1509.26,-1215.53 1688.1,-1370.5"/>
<polygon fill="black" stroke="black" stroke-width="0.06" points="1685.94,-1373.25 1695.78,-1377.16 1690.52,-1367.96 1685.94,-1373.25"/>
<text text-anchor="middle" x="1001.11" y="-811.94" font-family="Times,serif" font-size="14.00">urea*5104</text>
</g>
<!-- &#45;3,8 (Urea)&#45;&gt;4,9 (Cyanic Acid, Ammonia is a by&#45;product) -->
<g id="edge19" class="edge">
<title>&#45;3,8 (Urea)&#45;&gt;4,9 (Cyanic Acid, Ammonia is a by&#45;product)</title>
<path fill="none" stroke="black" stroke-width="0.46" d="M381.78,-246.49C481.27,-401.3 1196.38,-1514.03 1316.29,-1700.6"/>
<polygon fill="black" stroke="black" stroke-width="0.46" points="1313.34,-1702.5 1321.69,-1709.02 1319.23,-1698.71 1313.34,-1702.5"/>
<text text-anchor="middle" x="806.54" y="-977.35" font-family="Times,serif" font-size="14.00">urea*40944</text>
</g>
<!-- &#45;3,8 (Urea)&#45;&gt;&#45;1,7 (Rayon) -->
<g id="edge20" class="edge">
<title>&#45;3,8 (Urea)&#45;&gt;&#45;1,7 (Rayon)</title>
<path fill="none" stroke="black" stroke-width="0.11" d="M358.87,-246.4C315.94,-313.2 164.19,-549.32 113.11,-628.8"/>
<polygon fill="black" stroke="black" stroke-width="0.11" points="110.13,-626.97 107.67,-637.27 116.02,-630.75 110.13,-626.97"/>
<text text-anchor="middle" x="193.49" y="-441.4" font-family="Times,serif" font-size="14.00">urea*10096</text>
</g>
<!-- &#45;3,8 (Urea)&#45;&gt;1,4 (Casein and Melamine) -->
<g id="edge16" class="edge">
<title>&#45;3,8 (Urea)&#45;&gt;1,4 (Casein and Melamine)</title>
<path fill="none" stroke="black" stroke-width="0.27" d="M425.58,-236.56C630.13,-265.97 1346.06,-368.91 1614.13,-407.45"/>
<polygon fill="black" stroke="black" stroke-width="0.27" points="1613.85,-410.95 1624.24,-408.91 1614.84,-404.02 1613.85,-410.95"/>
<text text-anchor="middle" x="977.35" y="-325.81" font-family="Times,serif" font-size="14.00">urea*24224</text>
</g>
<!-- &#45;3,8 (Urea)&#45;&gt;7,1 (item=aerogel item=clean&#45;rf&#45;gel Aerogel) -->
<g id="edge14" class="edge">
<title>&#45;3,8 (Urea)&#45;&gt;7,1 (item=aerogel item=clean&#45;rf&#45;gel Aerogel)</title>
<path fill="none" stroke="black" stroke-width="0.02" d="M403.46,-213.47C483.83,-176.77 689.28,-82.94 783.25,-40.03"/>
<polygon fill="black" stroke="black" stroke-width="0.02" points="784.89,-43.13 792.53,-35.79 781.98,-36.76 784.89,-43.13"/>
<text text-anchor="middle" x="555.36" y="-130.55" font-family="Times,serif" font-size="14.00">urea*2000</text>
</g>
<!-- &#45;3,8 (Urea)&#45;&gt;2,4 (Formica and Phenolic boards) -->
<g id="edge22" class="edge">
<title>&#45;3,8 (Urea)&#45;&gt;2,4 (Formica and Phenolic boards)</title>
<path fill="none" stroke="black" stroke-width="0.02" d="M425.53,-220.67C579.58,-198.53 1016.16,-135.76 1222.58,-106.08"/>
<polygon fill="black" stroke="black" stroke-width="0.02" points="1223.13,-109.53 1232.53,-104.65 1222.14,-102.6 1223.13,-109.53"/>
<text text-anchor="middle" x="786.06" y="-167.18" font-family="Times,serif" font-size="14.00">urea*1328</text>
</g>
</g>
</svg>
