<?xml version="1.0" encoding="UTF-8" standalone="no"?>
<!DOCTYPE svg PUBLIC "-//W3C//DTD SVG 1.1//EN"
 "http://www.w3.org/Graphics/SVG/1.1/DTD/svg11.dtd">
<!-- Generated by graphviz version 2.43.0 (0)
 -->
<!-- Title: %3 Pages: 1 -->
<svg width="830pt" height="609pt"
 viewBox="0.00 0.00 830.40 609.02" xmlns="http://www.w3.org/2000/svg" xmlns:xlink="http://www.w3.org/1999/xlink">
<g id="graph0" class="graph" transform="scale(1 1) rotate(0) translate(4 605.02)">
<title>%3</title>
<polygon fill="white" stroke="transparent" points="-4,4 -4,-605.02 826.4,-605.02 826.4,4 -4,4"/>
<!-- 0,10 (item=meat Meat) -->
<g id="node1" class="node">
<title>0,10 (item=meat Meat)</title>
<ellipse fill="none" stroke="black" cx="468.39" cy="-18" rx="120.48" ry="18"/>
<text text-anchor="middle" x="468.39" y="-14.3" font-family="Times,serif" font-size="14.00">0,10 (item=meat Meat)</text>
</g>
<!-- 1,3 (item=korlex&#45;food&#45;01 Korlex food) -->
<g id="node2" class="node">
<title>1,3 (item=korlex&#45;food&#45;01 Korlex food)</title>
<ellipse fill="none" stroke="black" cx="185.88" cy="-300.51" rx="185.77" ry="18"/>
<text text-anchor="middle" x="185.88" y="-296.81" font-family="Times,serif" font-size="14.00">1,3 (item=korlex&#45;food&#45;01 Korlex food)</text>
</g>
<!-- 0,10 (item=meat Meat)&#45;&gt;1,3 (item=korlex&#45;food&#45;01 Korlex food) -->
<g id="edge1" class="edge">
<title>0,10 (item=meat Meat)&#45;&gt;1,3 (item=korlex&#45;food&#45;01 Korlex food)</title>
<path fill="none" stroke="black" stroke-width="0.85" d="M450.29,-36.1C401.56,-84.84 267.48,-218.92 211.24,-275.16"/>
<polygon fill="black" stroke="black" stroke-width="0.85" points="208.43,-273.01 203.83,-282.56 213.38,-277.96 208.43,-273.01"/>
<text text-anchor="middle" x="286.76" y="-159.43" font-family="Times,serif" font-size="14.00">meat*29600</text>
</g>
<!-- 0,0 (LE BUS) -->
<g id="node3" class="node">
<title>0,0 (LE BUS)</title>
<ellipse fill="none" stroke="black" cx="750.91" cy="-300.51" rx="71.49" ry="18"/>
<text text-anchor="middle" x="750.91" y="-296.81" font-family="Times,serif" font-size="14.00">0,0 (LE BUS)</text>
</g>
<!-- 0,10 (item=meat Meat)&#45;&gt;0,0 (LE BUS) -->
<g id="edge2" class="edge">
<title>0,10 (item=meat Meat)&#45;&gt;0,0 (LE BUS)</title>
<path fill="none" stroke="black" stroke-width="2.84" d="M486.5,-36.1C535.35,-84.95 669.95,-219.56 725.95,-275.56"/>
<polygon fill="black" stroke="black" stroke-width="2.84" points="723.77,-278.33 733.32,-282.92 728.72,-273.38 723.77,-278.33"/>
<text text-anchor="middle" x="562.22" y="-159.63" font-family="Times,serif" font-size="14.00">meat*98448</text>
</g>
<!-- 4,7 (Cottonguts) -->
<g id="node4" class="node">
<title>4,7 (Cottonguts)</title>
<ellipse fill="none" stroke="black" cx="468.39" cy="-583.02" rx="87.18" ry="18"/>
<text text-anchor="middle" x="468.39" y="-579.32" font-family="Times,serif" font-size="14.00">4,7 (Cottonguts)</text>
</g>
<!-- 4,7 (Cottonguts)&#45;&gt;1,3 (item=korlex&#45;food&#45;01 Korlex food) -->
<g id="edge4" class="edge">
<title>4,7 (Cottonguts)&#45;&gt;1,3 (item=korlex&#45;food&#45;01 Korlex food)</title>
<path fill="none" stroke="black" stroke-width="0.16" d="M450.72,-565.35C402.28,-516.91 267.27,-381.89 211,-325.63"/>
<polygon fill="black" stroke="black" stroke-width="0.16" points="213.46,-323.14 203.91,-318.54 208.51,-328.09 213.46,-323.14"/>
<text text-anchor="middle" x="291.36" y="-449.29" font-family="Times,serif" font-size="14.00">meat*5440</text>
</g>
<!-- 4,7 (Cottonguts)&#45;&gt;0,0 (LE BUS) -->
<g id="edge3" class="edge">
<title>4,7 (Cottonguts)&#45;&gt;0,0 (LE BUS)</title>
<path fill="none" stroke="black" stroke-width="0.15" d="M486.07,-565.35C534.52,-516.89 669.61,-381.8 725.85,-325.57"/>
<polygon fill="black" stroke="black" stroke-width="0.15" points="728.64,-327.72 733.24,-318.18 723.69,-322.77 728.64,-327.72"/>
<text text-anchor="middle" x="566.46" y="-449.26" font-family="Times,serif" font-size="14.00">meat*5200</text>
</g>
</g>
</svg>
