<?xml version="1.0" encoding="UTF-8" standalone="no"?>
<!DOCTYPE svg PUBLIC "-//W3C//DTD SVG 1.1//EN"
 "http://www.w3.org/Graphics/SVG/1.1/DTD/svg11.dtd">
<!-- Generated by graphviz version 2.43.0 (0)
 -->
<!-- Title: %3 Pages: 1 -->
<svg width="1092pt" height="742pt"
 viewBox="0.00 0.00 1092.31 741.53" xmlns="http://www.w3.org/2000/svg" xmlns:xlink="http://www.w3.org/1999/xlink">
<g id="graph0" class="graph" transform="scale(1 1) rotate(0) translate(4 737.53)">
<title>%3</title>
<polygon fill="white" stroke="transparent" points="-4,4 -4,-737.53 1088.31,-737.53 1088.31,4 -4,4"/>
<!-- 2,8 (Graphite) -->
<g id="node1" class="node">
<title>2,8 (Graphite)</title>
<ellipse fill="none" stroke="black" cx="518.36" cy="-329.64" rx="76.09" ry="18"/>
<text text-anchor="middle" x="518.36" y="-325.94" font-family="Times,serif" font-size="14.00">2,8 (Graphite)</text>
</g>
<!-- 2,&#45;2 (Tin Plate, Organic Solvent) -->
<g id="node2" class="node">
<title>2,&#45;2 (Tin Plate, Organic Solvent)</title>
<ellipse fill="none" stroke="black" cx="924.43" cy="-329.64" rx="159.77" ry="18"/>
<text text-anchor="middle" x="924.43" y="-325.94" font-family="Times,serif" font-size="14.00">2,&#45;2 (Tin Plate, Organic Solvent)</text>
</g>
<!-- 2,8 (Graphite)&#45;&gt;2,&#45;2 (Tin Plate, Organic Solvent) -->
<g id="edge1" class="edge">
<title>2,8 (Graphite)&#45;&gt;2,&#45;2 (Tin Plate, Organic Solvent)</title>
<path fill="none" stroke="black" stroke-width="1.61" d="M594.74,-329.64C639.72,-329.64 698.52,-329.64 753.99,-329.64"/>
<polygon fill="black" stroke="black" stroke-width="1.61" points="754.3,-333.14 764.3,-329.64 754.3,-326.14 754.3,-333.14"/>
<text text-anchor="middle" x="702.61" y="-318.44" font-family="Times,serif" font-size="14.00">graphite*24560</text>
</g>
<!-- &#45;3,9 (Silicon Wafers) -->
<g id="node3" class="node">
<title>&#45;3,9 (Silicon Wafers)</title>
<ellipse fill="none" stroke="black" cx="391.94" cy="-715.53" rx="103.98" ry="18"/>
<text text-anchor="middle" x="391.94" y="-711.83" font-family="Times,serif" font-size="14.00">&#45;3,9 (Silicon Wafers)</text>
</g>
<!-- 2,8 (Graphite)&#45;&gt;&#45;3,9 (Silicon Wafers) -->
<g id="edge2" class="edge">
<title>2,8 (Graphite)&#45;&gt;&#45;3,9 (Silicon Wafers)</title>
<path fill="none" stroke="black" stroke-width="0.21" d="M512.43,-347.74C492.15,-409.64 425.44,-613.25 401.01,-687.84"/>
<polygon fill="black" stroke="black" stroke-width="0.21" points="397.64,-686.88 397.85,-697.48 404.29,-689.06 397.64,-686.88"/>
<text text-anchor="middle" x="404.72" y="-521.59" font-family="Times,serif" font-size="14.00">graphite*3152</text>
</g>
<!-- &#45;4,&#45;4 (Reserved For Aluminium Ore Drop, Aluminium) -->
<g id="node4" class="node">
<title>&#45;4,&#45;4 (Reserved For Aluminium Ore Drop, Aluminium)</title>
<ellipse fill="none" stroke="black" cx="258.03" cy="-18" rx="258.05" ry="18"/>
<text text-anchor="middle" x="258.03" y="-14.3" font-family="Times,serif" font-size="14.00">&#45;4,&#45;4 (Reserved For Aluminium Ore Drop, Aluminium)</text>
</g>
<!-- 2,8 (Graphite)&#45;&gt;&#45;4,&#45;4 (Reserved For Aluminium Ore Drop, Aluminium) -->
<g id="edge3" class="edge">
<title>2,8 (Graphite)&#45;&gt;&#45;4,&#45;4 (Reserved For Aluminium Ore Drop, Aluminium)</title>
<path fill="none" stroke="black" stroke-width="1.18" d="M503.24,-311.54C459.2,-258.83 330.94,-105.29 279.62,-43.85"/>
<polygon fill="black" stroke="black" stroke-width="1.18" points="282.29,-41.58 273.19,-36.15 276.92,-46.07 282.29,-41.58"/>
<text text-anchor="middle" x="334.93" y="-181.5" font-family="Times,serif" font-size="14.00">graphite*17936</text>
</g>
</g>
</svg>
