<?xml version="1.0" encoding="UTF-8" standalone="no"?>
<!DOCTYPE svg PUBLIC "-//W3C//DTD SVG 1.1//EN"
 "http://www.w3.org/Graphics/SVG/1.1/DTD/svg11.dtd">
<!-- Generated by graphviz version 2.43.0 (0)
 -->
<!-- Title: %3 Pages: 1 -->
<svg width="1664pt" height="1073pt"
 viewBox="0.00 0.00 1664.29 1072.74" xmlns="http://www.w3.org/2000/svg" xmlns:xlink="http://www.w3.org/1999/xlink">
<g id="graph0" class="graph" transform="scale(1 1) rotate(0) translate(4 1068.74)">
<title>%3</title>
<polygon fill="white" stroke="transparent" points="-4,4 -4,-1068.74 1660.29,-1068.74 1660.29,4 -4,4"/>
<!-- 0,0 (LE BUS) -->
<g id="node1" class="node">
<title>0,0 (LE BUS)</title>
<ellipse fill="none" stroke="black" cx="400.95" cy="-352.06" rx="71.49" ry="18"/>
<text text-anchor="middle" x="400.95" y="-348.36" font-family="Times,serif" font-size="14.00">0,0 (LE BUS)</text>
</g>
<!-- 2,0 (Sodium Sulfate) -->
<g id="node2" class="node">
<title>2,0 (Sodium Sulfate)</title>
<ellipse fill="none" stroke="black" cx="143.64" cy="-203.5" rx="106.68" ry="18"/>
<text text-anchor="middle" x="143.64" y="-199.8" font-family="Times,serif" font-size="14.00">2,0 (Sodium Sulfate)</text>
</g>
<!-- 0,0 (LE BUS)&#45;&gt;2,0 (Sodium Sulfate) -->
<g id="edge1" class="edge">
<title>0,0 (LE BUS)&#45;&gt;2,0 (Sodium Sulfate)</title>
<path fill="none" stroke="black" stroke-width="1.17" d="M371.93,-335.31C325.56,-308.54 234.69,-256.07 182.67,-226.04"/>
<polygon fill="black" stroke="black" stroke-width="1.17" points="184.15,-222.85 173.74,-220.88 180.65,-228.91 184.15,-222.85"/>
<text text-anchor="middle" x="228.8" y="-284.48" font-family="Times,serif" font-size="14.00">gravel*22944</text>
</g>
<!-- 1,8 (A copper mine, Salt) -->
<g id="node4" class="node">
<title>1,8 (A copper mine, Salt)</title>
<ellipse fill="none" stroke="black" cx="578.87" cy="-231.63" rx="126.18" ry="18"/>
<text text-anchor="middle" x="578.87" y="-227.93" font-family="Times,serif" font-size="14.00">1,8 (A copper mine, Salt)</text>
</g>
<!-- 0,0 (LE BUS)&#45;&gt;1,8 (A copper mine, Salt) -->
<g id="edge3" class="edge">
<title>0,0 (LE BUS)&#45;&gt;1,8 (A copper mine, Salt)</title>
<path fill="none" stroke="black" stroke-width="1.13" d="M426.06,-335.06C456.97,-314.14 509.61,-278.51 544.31,-255.02"/>
<polygon fill="black" stroke="black" stroke-width="1.13" points="546.4,-257.83 552.72,-249.32 542.48,-252.03 546.4,-257.83"/>
<text text-anchor="middle" x="436.69" y="-298.84" font-family="Times,serif" font-size="14.00">gravel*22196</text>
</g>
<!-- &#45;6,&#45;1 (item=agar Agar) -->
<g id="node5" class="node">
<title>&#45;6,&#45;1 (item=agar Agar)</title>
<ellipse fill="none" stroke="black" cx="940.16" cy="-841.88" rx="115.88" ry="18"/>
<text text-anchor="middle" x="940.16" y="-838.18" font-family="Times,serif" font-size="14.00">&#45;6,&#45;1 (item=agar Agar)</text>
</g>
<!-- 0,0 (LE BUS)&#45;&gt;&#45;6,&#45;1 (item=agar Agar) -->
<g id="edge4" class="edge">
<title>0,0 (LE BUS)&#45;&gt;&#45;6,&#45;1 (item=agar Agar)</title>
<path fill="none" stroke="black" stroke-width="0.71" d="M420.14,-369.5C501.43,-443.34 817.6,-730.55 912.85,-817.08"/>
<polygon fill="black" stroke="black" stroke-width="0.71" points="910.6,-819.76 920.35,-823.89 915.3,-814.57 910.6,-819.76"/>
<text text-anchor="middle" x="618" y="-597.09" font-family="Times,serif" font-size="14.00">gravel*13884</text>
</g>
<!-- 3,9 (Copper, molten &amp; plate) -->
<g id="node3" class="node">
<title>3,9 (Copper, molten &amp; plate)</title>
<ellipse fill="none" stroke="black" cx="143.64" cy="-500.62" rx="143.77" ry="18"/>
<text text-anchor="middle" x="143.64" y="-496.92" font-family="Times,serif" font-size="14.00">3,9 (Copper, molten &amp; plate)</text>
</g>
<!-- 3,9 (Copper, molten &amp; plate)&#45;&gt;0,0 (LE BUS) -->
<g id="edge2" class="edge">
<title>3,9 (Copper, molten &amp; plate)&#45;&gt;0,0 (LE BUS)</title>
<path fill="none" stroke="black" stroke-width="2.3" d="M174.16,-483C221.38,-455.74 312.02,-403.41 363.26,-373.83"/>
<polygon fill="black" stroke="black" stroke-width="2.3" points="365.13,-376.78 372.04,-368.75 361.63,-370.72 365.13,-376.78"/>
<text text-anchor="middle" x="220.21" y="-432.21" font-family="Times,serif" font-size="14.00">gravel*45024</text>
</g>
<!-- 3,9 (Copper, molten &amp; plate)&#45;&gt;2,0 (Sodium Sulfate) -->
<g id="edge6" class="edge">
<title>3,9 (Copper, molten &amp; plate)&#45;&gt;2,0 (Sodium Sulfate)</title>
<path fill="none" stroke="black" stroke-width="0.77" d="M143.64,-482.48C143.64,-432.55 143.64,-292.75 143.64,-232.14"/>
<polygon fill="black" stroke="black" stroke-width="0.77" points="147.14,-231.78 143.64,-221.78 140.14,-231.78 147.14,-231.78"/>
<text text-anchor="middle" x="95.14" y="-361.11" font-family="Times,serif" font-size="14.00">gravel*15024</text>
</g>
<!-- &#45;6,7 (Iron ore dust) -->
<g id="node6" class="node">
<title>&#45;6,7 (Iron ore dust)</title>
<ellipse fill="none" stroke="black" cx="741.78" cy="-1046.74" rx="98.58" ry="18"/>
<text text-anchor="middle" x="741.78" y="-1043.04" font-family="Times,serif" font-size="14.00">&#45;6,7 (Iron ore dust)</text>
</g>
<!-- &#45;6,7 (Iron ore dust)&#45;&gt;0,0 (LE BUS) -->
<g id="edge5" class="edge">
<title>&#45;6,7 (Iron ore dust)&#45;&gt;0,0 (LE BUS)</title>
<path fill="none" stroke="black" stroke-width="0.77" d="M732.84,-1028.51C686.15,-933.35 470.34,-493.49 414.28,-379.24"/>
<polygon fill="black" stroke="black" stroke-width="0.77" points="417.34,-377.53 409.8,-370.1 411.06,-380.62 417.34,-377.53"/>
<text text-anchor="middle" x="525.06" y="-707.68" font-family="Times,serif" font-size="14.00">gravel*15008</text>
</g>
<!-- 1,&#45;1 (fluid=molten&#45;glass Glass, When space, make quartz separate with regular priority, Quartz) -->
<g id="node7" class="node">
<title>1,&#45;1 (fluid=molten&#45;glass Glass, When space, make quartz separate with regular priority, Quartz)</title>
<ellipse fill="none" stroke="black" cx="1198.74" cy="-18" rx="457.62" ry="18"/>
<text text-anchor="middle" x="1198.74" y="-14.3" font-family="Times,serif" font-size="14.00">1,&#45;1 (fluid=molten&#45;glass Glass, When space, make quartz separate with regular priority, Quartz)</text>
</g>
<!-- 1,&#45;1 (fluid=molten&#45;glass Glass, When space, make quartz separate with regular priority, Quartz)&#45;&gt;1,8 (A copper mine, Salt) -->
<g id="edge7" class="edge">
<title>1,&#45;1 (fluid=molten&#45;glass Glass, When space, make quartz separate with regular priority, Quartz)&#45;&gt;1,8 (A copper mine, Salt)</title>
<path fill="none" stroke="black" stroke-width="0.15" d="M1146.69,-35.94C1031.89,-75.5 757.61,-170.03 637.22,-211.52"/>
<polygon fill="black" stroke="black" stroke-width="0.15" points="635.75,-208.32 627.43,-214.89 638.03,-214.94 635.75,-208.32"/>
<text text-anchor="middle" x="847.95" y="-127.53" font-family="Times,serif" font-size="14.00">gravel*3008</text>
</g>
</g>
</svg>
