<?xml version="1.0" encoding="UTF-8" standalone="no"?>
<!DOCTYPE svg PUBLIC "-//W3C//DTD SVG 1.1//EN"
 "http://www.w3.org/Graphics/SVG/1.1/DTD/svg11.dtd">
<!-- Generated by graphviz version 2.43.0 (0)
 -->
<!-- Title: %3 Pages: 1 -->
<svg width="880pt" height="710pt"
 viewBox="0.00 0.00 879.72 710.36" xmlns="http://www.w3.org/2000/svg" xmlns:xlink="http://www.w3.org/1999/xlink">
<g id="graph0" class="graph" transform="scale(1 1) rotate(0) translate(4 706.36)">
<title>%3</title>
<polygon fill="white" stroke="transparent" points="-4,4 -4,-706.36 875.72,-706.36 875.72,4 -4,4"/>
<!-- 6,3 (Things from molten) -->
<g id="node1" class="node">
<title>6,3 (Things from molten)</title>
<ellipse fill="none" stroke="black" cx="415.6" cy="-353.02" rx="126.18" ry="18"/>
<text text-anchor="middle" x="415.6" y="-349.32" font-family="Times,serif" font-size="14.00">6,3 (Things from molten)</text>
</g>
<!-- &#45;4,&#45;7 (Nexelit from raw) -->
<g id="node2" class="node">
<title>&#45;4,&#45;7 (Nexelit from raw)</title>
<ellipse fill="none" stroke="black" cx="751.48" cy="-353.02" rx="120.48" ry="18"/>
<text text-anchor="middle" x="751.48" y="-349.32" font-family="Times,serif" font-size="14.00">&#45;4,&#45;7 (Nexelit from raw)</text>
</g>
<!-- 6,3 (Things from molten)&#45;&gt;&#45;4,&#45;7 (Nexelit from raw) -->
<g id="edge1" class="edge">
<title>6,3 (Things from molten)&#45;&gt;&#45;4,&#45;7 (Nexelit from raw)</title>
<path fill="none" stroke="black" stroke-width="3.48" d="M542.1,-353.02C567.88,-353.02 595.04,-353.02 620.95,-353.02"/>
<polygon fill="black" stroke="black" stroke-width="3.48" points="621.2,-356.52 631.2,-353.02 621.2,-349.52 621.2,-356.52"/>
<text text-anchor="middle" x="581.53" y="-341.82" font-family="Times,serif" font-size="14.00">iron&#45;stick*134960</text>
</g>
<!-- 0,&#45;8 (Raw fibre 2 duplicate) -->
<g id="node3" class="node">
<title>0,&#45;8 (Raw fibre 2 duplicate)</title>
<ellipse fill="none" stroke="black" cx="360.61" cy="-684.36" rx="137.58" ry="18"/>
<text text-anchor="middle" x="360.61" y="-680.66" font-family="Times,serif" font-size="14.00">0,&#45;8 (Raw fibre 2 duplicate)</text>
</g>
<!-- 6,3 (Things from molten)&#45;&gt;0,&#45;8 (Raw fibre 2 duplicate) -->
<g id="edge2" class="edge">
<title>6,3 (Things from molten)&#45;&gt;0,&#45;8 (Raw fibre 2 duplicate)</title>
<path fill="none" stroke="black" stroke-width="0.26" d="M412.57,-371.3C403.46,-426.18 376.31,-589.73 365.31,-656"/>
<polygon fill="black" stroke="black" stroke-width="0.26" points="361.82,-655.69 363.63,-666.13 368.72,-656.84 361.82,-655.69"/>
<text text-anchor="middle" x="329.44" y="-517.45" font-family="Times,serif" font-size="14.00">iron&#45;stick*10080</text>
</g>
<!-- 7,8 (Raw fibre 2) -->
<g id="node4" class="node">
<title>7,8 (Raw fibre 2)</title>
<ellipse fill="none" stroke="black" cx="89.04" cy="-274.46" rx="89.08" ry="18"/>
<text text-anchor="middle" x="89.04" y="-270.76" font-family="Times,serif" font-size="14.00">7,8 (Raw fibre 2)</text>
</g>
<!-- 6,3 (Things from molten)&#45;&gt;7,8 (Raw fibre 2) -->
<g id="edge3" class="edge">
<title>6,3 (Things from molten)&#45;&gt;7,8 (Raw fibre 2)</title>
<path fill="none" stroke="black" stroke-width="0.13" d="M351.08,-337.5C294.88,-323.98 213.68,-304.44 156.6,-290.71"/>
<polygon fill="black" stroke="black" stroke-width="0.13" points="157.13,-287.24 146.59,-288.3 155.5,-294.04 157.13,-287.24"/>
<text text-anchor="middle" x="198.84" y="-317.9" font-family="Times,serif" font-size="14.00">iron&#45;stick*5040</text>
</g>
<!-- 6,&#45;1 (Clay) -->
<g id="node5" class="node">
<title>6,&#45;1 (Clay)</title>
<ellipse fill="none" stroke="black" cx="439.63" cy="-18" rx="58.49" ry="18"/>
<text text-anchor="middle" x="439.63" y="-14.3" font-family="Times,serif" font-size="14.00">6,&#45;1 (Clay)</text>
</g>
<!-- 6,3 (Things from molten)&#45;&gt;6,&#45;1 (Clay) -->
<g id="edge4" class="edge">
<title>6,3 (Things from molten)&#45;&gt;6,&#45;1 (Clay)</title>
<path fill="none" stroke="black" stroke-width="0.13" d="M416.89,-335C420.85,-279.9 432.8,-113.29 437.6,-46.32"/>
<polygon fill="black" stroke="black" stroke-width="0.13" points="441.11,-46.33 438.33,-36.1 434.13,-45.82 441.11,-46.33"/>
<text text-anchor="middle" x="372.25" y="-194.46" font-family="Times,serif" font-size="14.00">iron&#45;stick*5120</text>
</g>
</g>
</svg>
