<?xml version="1.0" encoding="UTF-8" standalone="no"?>
<!DOCTYPE svg PUBLIC "-//W3C//DTD SVG 1.1//EN"
 "http://www.w3.org/Graphics/SVG/1.1/DTD/svg11.dtd">
<!-- Generated by graphviz version 2.43.0 (0)
 -->
<!-- Title: %3 Pages: 1 -->
<svg width="1364pt" height="44pt"
 viewBox="0.00 0.00 1364.14 44.00" xmlns="http://www.w3.org/2000/svg" xmlns:xlink="http://www.w3.org/1999/xlink">
<g id="graph0" class="graph" transform="scale(1 1) rotate(0) translate(4 40)">
<title>%3</title>
<polygon fill="white" stroke="transparent" points="-4,4 -4,-40 1360.14,-40 1360.14,4 -4,4"/>
<!-- 4,4 (Hydrogen Chloride, item=nylon Nylon/Nylon parts) -->
<g id="node1" class="node">
<title>4,4 (Hydrogen Chloride, item=nylon Nylon/Nylon parts)</title>
<ellipse fill="none" stroke="black" cx="614.05" cy="-18" rx="271.05" ry="18"/>
<text text-anchor="middle" x="614.05" y="-14.3" font-family="Times,serif" font-size="14.00">4,4 (Hydrogen Chloride, item=nylon Nylon/Nylon parts)</text>
</g>
<!-- 4,6 (Circuit substrate and Doped silicon) -->
<g id="node2" class="node">
<title>4,6 (Circuit substrate and Doped silicon)</title>
<ellipse fill="none" stroke="black" cx="1156.61" cy="-18" rx="199.56" ry="18"/>
<text text-anchor="middle" x="1156.61" y="-14.3" font-family="Times,serif" font-size="14.00">4,6 (Circuit substrate and Doped silicon)</text>
</g>
<!-- 4,4 (Hydrogen Chloride, item=nylon Nylon/Nylon parts)&#45;&gt;4,6 (Circuit substrate and Doped silicon) -->
<g id="edge1" class="edge">
<title>4,4 (Hydrogen Chloride, item=nylon Nylon/Nylon parts)&#45;&gt;4,6 (Circuit substrate and Doped silicon)</title>
<path fill="none" stroke="black" stroke-width="0.73" d="M885.33,-18C905.95,-18 926.58,-18 946.72,-18"/>
<polygon fill="black" stroke="black" stroke-width="0.73" points="946.89,-21.5 956.89,-18 946.89,-14.5 946.89,-21.5"/>
<text text-anchor="middle" x="916.03" y="-6.8" font-family="Times,serif" font-size="14.00">nylon&#45;parts*13600</text>
</g>
<!-- 0,0 (LE BUS) -->
<g id="node3" class="node">
<title>0,0 (LE BUS)</title>
<ellipse fill="none" stroke="black" cx="71.49" cy="-18" rx="71.49" ry="18"/>
<text text-anchor="middle" x="71.49" y="-14.3" font-family="Times,serif" font-size="14.00">0,0 (LE BUS)</text>
</g>
<!-- 4,4 (Hydrogen Chloride, item=nylon Nylon/Nylon parts)&#45;&gt;0,0 (LE BUS) -->
<g id="edge2" class="edge">
<title>4,4 (Hydrogen Chloride, item=nylon Nylon/Nylon parts)&#45;&gt;0,0 (LE BUS)</title>
<path fill="none" stroke="black" stroke-width="1.27" d="M342.77,-18C273.75,-18 204.72,-18 153.57,-18"/>
<polygon fill="black" stroke="black" stroke-width="1.27" points="153.26,-14.5 143.26,-18 153.26,-21.5 153.26,-14.5"/>
<text text-anchor="middle" x="248.17" y="-6.8" font-family="Times,serif" font-size="14.00">nylon&#45;parts*23680</text>
</g>
</g>
</svg>
