<?xml version="1.0" encoding="UTF-8" standalone="no"?>
<!DOCTYPE svg PUBLIC "-//W3C//DTD SVG 1.1//EN"
 "http://www.w3.org/Graphics/SVG/1.1/DTD/svg11.dtd">
<!-- Generated by graphviz version 2.43.0 (0)
 -->
<!-- Title: %3 Pages: 1 -->
<svg width="734pt" height="44pt"
 viewBox="0.00 0.00 733.70 44.00" xmlns="http://www.w3.org/2000/svg" xmlns:xlink="http://www.w3.org/1999/xlink">
<g id="graph0" class="graph" transform="scale(1 1) rotate(0) translate(4 40)">
<title>%3</title>
<polygon fill="white" stroke="transparent" points="-4,4 -4,-40 729.7,-40 729.7,4 -4,4"/>
<!-- &#45;6,&#45;3 (Chromite Sand) -->
<g id="node1" class="node">
<title>&#45;6,&#45;3 (Chromite Sand)</title>
<ellipse fill="none" stroke="black" cx="376.17" cy="-18" rx="110.48" ry="18"/>
<text text-anchor="middle" x="376.17" y="-14.3" font-family="Times,serif" font-size="14.00">&#45;6,&#45;3 (Chromite Sand)</text>
</g>
<!-- &#45;2,&#45;3 (Trains) -->
<g id="node2" class="node">
<title>&#45;2,&#45;3 (Trains)</title>
<ellipse fill="none" stroke="black" cx="655.5" cy="-18" rx="70.39" ry="18"/>
<text text-anchor="middle" x="655.5" y="-14.3" font-family="Times,serif" font-size="14.00">&#45;2,&#45;3 (Trains)</text>
</g>
<!-- &#45;6,&#45;3 (Chromite Sand)&#45;&gt;&#45;2,&#45;3 (Trains) -->
<g id="edge1" class="edge">
<title>&#45;6,&#45;3 (Chromite Sand)&#45;&gt;&#45;2,&#45;3 (Trains)</title>
<path fill="none" stroke="black" stroke-width="0.29" d="M486.97,-18C516.28,-18 547.36,-18 574.75,-18"/>
<polygon fill="black" stroke="black" stroke-width="0.29" points="575.05,-21.5 585.05,-18 575.05,-14.5 575.05,-21.5"/>
<text text-anchor="middle" x="530.86" y="-6.8" font-family="Times,serif" font-size="14.00">chromite&#45;sand*35728</text>
</g>
<!-- 2,10 (Nickel plate) -->
<g id="node3" class="node">
<title>2,10 (Nickel plate)</title>
<ellipse fill="none" stroke="black" cx="96.84" cy="-18" rx="96.68" ry="18"/>
<text text-anchor="middle" x="96.84" y="-14.3" font-family="Times,serif" font-size="14.00">2,10 (Nickel plate)</text>
</g>
<!-- &#45;6,&#45;3 (Chromite Sand)&#45;&gt;2,10 (Nickel plate) -->
<g id="edge2" class="edge">
<title>&#45;6,&#45;3 (Chromite Sand)&#45;&gt;2,10 (Nickel plate)</title>
<path fill="none" stroke="black" stroke-width="1.71" d="M265.37,-18C245.18,-18 224.14,-18 204.05,-18"/>
<polygon fill="black" stroke="black" stroke-width="1.71" points="203.95,-14.5 193.95,-18 203.95,-21.5 203.95,-14.5"/>
<text text-anchor="middle" x="275.46" y="-6.8" font-family="Times,serif" font-size="14.00">chromite&#45;sand*212192</text>
</g>
</g>
</svg>
