<?xml version="1.0" encoding="UTF-8" standalone="no"?>
<!DOCTYPE svg PUBLIC "-//W3C//DTD SVG 1.1//EN"
 "http://www.w3.org/Graphics/SVG/1.1/DTD/svg11.dtd">
<!-- Generated by graphviz version 2.43.0 (0)
 -->
<!-- Title: %3 Pages: 1 -->
<svg width="2906pt" height="1048pt"
 viewBox="0.00 0.00 2905.58 1047.55" xmlns="http://www.w3.org/2000/svg" xmlns:xlink="http://www.w3.org/1999/xlink">
<g id="graph0" class="graph" transform="scale(1 1) rotate(0) translate(4 1043.55)">
<title>%3</title>
<polygon fill="white" stroke="transparent" points="-4,4 -4,-1043.55 2901.58,-1043.55 2901.58,4 -4,4"/>
<!-- 2,10 (Nickel plate) -->
<g id="node1" class="node">
<title>2,10 (Nickel plate)</title>
<ellipse fill="none" stroke="black" cx="96.84" cy="-643.39" rx="96.68" ry="18"/>
<text text-anchor="middle" x="96.84" y="-639.69" font-family="Times,serif" font-size="14.00">2,10 (Nickel plate)</text>
</g>
<!-- &#45;2,&#45;3 (Trains) -->
<g id="node2" class="node">
<title>&#45;2,&#45;3 (Trains)</title>
<ellipse fill="none" stroke="black" cx="1294.94" cy="-409.68" rx="70.39" ry="18"/>
<text text-anchor="middle" x="1294.94" y="-405.98" font-family="Times,serif" font-size="14.00">&#45;2,&#45;3 (Trains)</text>
</g>
<!-- 2,10 (Nickel plate)&#45;&gt;&#45;2,&#45;3 (Trains) -->
<g id="edge1" class="edge">
<title>2,10 (Nickel plate)&#45;&gt;&#45;2,&#45;3 (Trains)</title>
<path fill="none" stroke="black" stroke-width="0.38" d="M163.82,-630.33C374.13,-589.3 1019.7,-463.37 1228.82,-422.58"/>
<polygon fill="black" stroke="black" stroke-width="0.38" points="1229.59,-425.99 1238.74,-420.64 1228.25,-419.12 1229.59,-425.99"/>
<text text-anchor="middle" x="650.82" y="-530.25" font-family="Times,serif" font-size="14.00">stone*10640</text>
</g>
<!-- &#45;6,7 (Iron ore dust) -->
<g id="node3" class="node">
<title>&#45;6,7 (Iron ore dust)</title>
<ellipse fill="none" stroke="black" cx="1294.94" cy="-877.11" rx="98.58" ry="18"/>
<text text-anchor="middle" x="1294.94" y="-873.41" font-family="Times,serif" font-size="14.00">&#45;6,7 (Iron ore dust)</text>
</g>
<!-- &#45;6,7 (Iron ore dust)&#45;&gt;&#45;2,&#45;3 (Trains) -->
<g id="edge6" class="edge">
<title>&#45;6,7 (Iron ore dust)&#45;&gt;&#45;2,&#45;3 (Trains)</title>
<path fill="none" stroke="black" stroke-width="2.82" d="M1294.94,-859.07C1294.94,-787.79 1294.94,-525.4 1294.94,-438.12"/>
<polygon fill="black" stroke="black" stroke-width="2.82" points="1298.44,-437.91 1294.94,-427.91 1291.44,-437.91 1298.44,-437.91"/>
<text text-anchor="middle" x="1249.44" y="-652.4" font-family="Times,serif" font-size="14.00">stone*79376</text>
</g>
<!-- 1,8 (A copper mine, Salt) -->
<g id="node4" class="node">
<title>1,8 (A copper mine, Salt)</title>
<ellipse fill="none" stroke="black" cx="2014.24" cy="-643.39" rx="126.18" ry="18"/>
<text text-anchor="middle" x="2014.24" y="-639.69" font-family="Times,serif" font-size="14.00">1,8 (A copper mine, Salt)</text>
</g>
<!-- &#45;6,7 (Iron ore dust)&#45;&gt;1,8 (A copper mine, Salt) -->
<g id="edge2" class="edge">
<title>&#45;6,7 (Iron ore dust)&#45;&gt;1,8 (A copper mine, Salt)</title>
<path fill="none" stroke="black" stroke-width="1.79" d="M1343.54,-861.32C1470.82,-819.96 1813.76,-708.53 1953.62,-663.09"/>
<polygon fill="black" stroke="black" stroke-width="1.79" points="1954.9,-666.35 1963.33,-659.94 1952.74,-659.7 1954.9,-666.35"/>
<text text-anchor="middle" x="1603.08" y="-766" font-family="Times,serif" font-size="14.00">stone*50352</text>
</g>
<!-- 3,9 (Copper, molten &amp; plate) -->
<g id="node5" class="node">
<title>3,9 (Copper, molten &amp; plate)</title>
<ellipse fill="none" stroke="black" cx="1739.49" cy="-265.24" rx="143.77" ry="18"/>
<text text-anchor="middle" x="1739.49" y="-261.54" font-family="Times,serif" font-size="14.00">3,9 (Copper, molten &amp; plate)</text>
</g>
<!-- 3,9 (Copper, molten &amp; plate)&#45;&gt;&#45;2,&#45;3 (Trains) -->
<g id="edge3" class="edge">
<title>3,9 (Copper, molten &amp; plate)&#45;&gt;&#45;2,&#45;3 (Trains)</title>
<path fill="none" stroke="black" stroke-width="0.65" d="M1687.63,-282.09C1602.5,-309.75 1434.03,-364.49 1348.08,-392.41"/>
<polygon fill="black" stroke="black" stroke-width="0.65" points="1346.95,-389.1 1338.52,-395.52 1349.11,-395.76 1346.95,-389.1"/>
<text text-anchor="middle" x="1472.35" y="-341.05" font-family="Times,serif" font-size="14.00">stone*18192</text>
</g>
<!-- 3,9 (Copper, molten &amp; plate)&#45;&gt;1,8 (A copper mine, Salt) -->
<g id="edge8" class="edge">
<title>3,9 (Copper, molten &amp; plate)&#45;&gt;1,8 (A copper mine, Salt)</title>
<path fill="none" stroke="black" stroke-width="0.89" d="M1752.56,-283.22C1797.04,-344.44 1942.68,-544.89 1995.17,-617.14"/>
<polygon fill="black" stroke="black" stroke-width="0.89" points="1992.39,-619.27 2001.09,-625.3 1998.05,-615.15 1992.39,-619.27"/>
<text text-anchor="middle" x="1828.36" y="-453.98" font-family="Times,serif" font-size="14.00">stone*25104</text>
</g>
<!-- &#45;3,&#45;3 (Zinc Plates, 32 to consume four belts) -->
<g id="node6" class="node">
<title>&#45;3,&#45;3 (Zinc Plates, 32 to consume four belts)</title>
<ellipse fill="none" stroke="black" cx="1739.49" cy="-1021.55" rx="213.66" ry="18"/>
<text text-anchor="middle" x="1739.49" y="-1017.85" font-family="Times,serif" font-size="14.00">&#45;3,&#45;3 (Zinc Plates, 32 to consume four belts)</text>
</g>
<!-- &#45;3,&#45;3 (Zinc Plates, 32 to consume four belts)&#45;&gt;&#45;2,&#45;3 (Trains) -->
<g id="edge4" class="edge">
<title>&#45;3,&#45;3 (Zinc Plates, 32 to consume four belts)&#45;&gt;&#45;2,&#45;3 (Trains)</title>
<path fill="none" stroke="black" stroke-width="0.54" d="M1726.43,-1003.57C1663.23,-916.59 1389.2,-539.41 1314.06,-435.99"/>
<polygon fill="black" stroke="black" stroke-width="0.54" points="1316.72,-433.69 1308.01,-427.66 1311.05,-437.81 1316.72,-433.69"/>
<text text-anchor="middle" x="1474.75" y="-723.58" font-family="Times,serif" font-size="14.00">stone*15126</text>
</g>
<!-- &#45;3,&#45;3 (Zinc Plates, 32 to consume four belts)&#45;&gt;1,8 (A copper mine, Salt) -->
<g id="edge9" class="edge">
<title>&#45;3,&#45;3 (Zinc Plates, 32 to consume four belts)&#45;&gt;1,8 (A copper mine, Salt)</title>
<path fill="none" stroke="black" stroke-width="0.19" d="M1752.56,-1003.57C1797.04,-942.35 1942.68,-741.89 1995.17,-669.65"/>
<polygon fill="black" stroke="black" stroke-width="0.19" points="1998.05,-671.64 2001.09,-661.49 1992.39,-667.52 1998.05,-671.64"/>
<text text-anchor="middle" x="1832.86" y="-840.41" font-family="Times,serif" font-size="14.00">stone*5328</text>
</g>
<!-- &#45;6,&#45;3 (Chromite Sand) -->
<g id="node7" class="node">
<title>&#45;6,&#45;3 (Chromite Sand)</title>
<ellipse fill="none" stroke="black" cx="2278.05" cy="-18" rx="110.48" ry="18"/>
<text text-anchor="middle" x="2278.05" y="-14.3" font-family="Times,serif" font-size="14.00">&#45;6,&#45;3 (Chromite Sand)</text>
</g>
<!-- &#45;6,&#45;3 (Chromite Sand)&#45;&gt;1,8 (A copper mine, Salt) -->
<g id="edge5" class="edge">
<title>&#45;6,&#45;3 (Chromite Sand)&#45;&gt;1,8 (A copper mine, Salt)</title>
<path fill="none" stroke="black" stroke-width="0.57" d="M2270.44,-36.04C2233.29,-124.12 2070.92,-509.04 2025.87,-615.83"/>
<polygon fill="black" stroke="black" stroke-width="0.57" points="2022.55,-614.7 2021.88,-625.28 2028.99,-617.42 2022.55,-614.7"/>
<text text-anchor="middle" x="2102.66" y="-329.74" font-family="Times,serif" font-size="14.00">stone*16127</text>
</g>
<!-- &#45;3,2 (Lead and Solder) -->
<g id="node8" class="node">
<title>&#45;3,2 (Lead and Solder)</title>
<ellipse fill="none" stroke="black" cx="1144.68" cy="-300.5" rx="113.98" ry="18"/>
<text text-anchor="middle" x="1144.68" y="-296.8" font-family="Times,serif" font-size="14.00">&#45;3,2 (Lead and Solder)</text>
</g>
<!-- &#45;3,2 (Lead and Solder)&#45;&gt;&#45;2,&#45;3 (Trains) -->
<g id="edge7" class="edge">
<title>&#45;3,2 (Lead and Solder)&#45;&gt;&#45;2,&#45;3 (Trains)</title>
<path fill="none" stroke="black" stroke-width="1.1" d="M1169.15,-318.29C1194.78,-336.91 1235.12,-366.21 1263.18,-386.6"/>
<polygon fill="black" stroke="black" stroke-width="1.1" points="1261.32,-389.58 1271.47,-392.62 1265.43,-383.91 1261.32,-389.58"/>
<text text-anchor="middle" x="1170.67" y="-356.25" font-family="Times,serif" font-size="14.00">stone*30928</text>
</g>
<!-- 0,5 (Titanium Processing (Grade 4)) -->
<g id="node9" class="node">
<title>0,5 (Titanium Processing (Grade 4))</title>
<ellipse fill="none" stroke="black" cx="2467.68" cy="-320.41" rx="176.57" ry="18"/>
<text text-anchor="middle" x="2467.68" y="-316.71" font-family="Times,serif" font-size="14.00">0,5 (Titanium Processing (Grade 4))</text>
</g>
<!-- 0,5 (Titanium Processing (Grade 4))&#45;&gt;1,8 (A copper mine, Salt) -->
<g id="edge10" class="edge">
<title>0,5 (Titanium Processing (Grade 4))&#45;&gt;1,8 (A copper mine, Salt)</title>
<path fill="none" stroke="black" stroke-width="0.9" d="M2442.65,-338.24C2365.93,-392.89 2133.98,-558.11 2047.35,-619.81"/>
<polygon fill="black" stroke="black" stroke-width="0.9" points="2045.3,-616.97 2039.19,-625.62 2049.36,-622.67 2045.3,-616.97"/>
<text text-anchor="middle" x="2199.5" y="-482.83" font-family="Times,serif" font-size="14.00">stone*25213</text>
</g>
<!-- 3,3 (electrolysis power, DO NOT CONNECT THESE WIRES, Landfill Drive&#45;Thru, Small Parts) -->
<g id="node10" class="node">
<title>3,3 (electrolysis power, DO NOT CONNECT THESE WIRES, Landfill Drive&#45;Thru, Small Parts)</title>
<ellipse fill="none" stroke="black" cx="2456.92" cy="-993.41" rx="440.82" ry="18"/>
<text text-anchor="middle" x="2456.92" y="-989.71" font-family="Times,serif" font-size="14.00">3,3 (electrolysis power, DO NOT CONNECT THESE WIRES, Landfill Drive&#45;Thru, Small Parts)</text>
</g>
<!-- 3,3 (electrolysis power, DO NOT CONNECT THESE WIRES, Landfill Drive&#45;Thru, Small Parts)&#45;&gt;1,8 (A copper mine, Salt) -->
<g id="edge11" class="edge">
<title>3,3 (electrolysis power, DO NOT CONNECT THESE WIRES, Landfill Drive&#45;Thru, Small Parts)&#45;&gt;1,8 (A copper mine, Salt)</title>
<path fill="none" stroke="black" stroke-width="1.18" d="M2434.05,-975.33C2360.28,-917 2128.52,-733.76 2044.8,-667.55"/>
<polygon fill="black" stroke="black" stroke-width="1.18" points="2046.72,-664.61 2036.71,-661.16 2042.38,-670.11 2046.72,-664.61"/>
<text text-anchor="middle" x="2193.92" y="-825.24" font-family="Times,serif" font-size="14.00">stone*33232</text>
</g>
</g>
</svg>
