<?xml version="1.0" encoding="UTF-8" standalone="no"?>
<!DOCTYPE svg PUBLIC "-//W3C//DTD SVG 1.1//EN"
 "http://www.w3.org/Graphics/SVG/1.1/DTD/svg11.dtd">
<!-- Generated by graphviz version 2.43.0 (0)
 -->
<!-- Title: %3 Pages: 1 -->
<svg width="1983pt" height="1396pt"
 viewBox="0.00 0.00 1982.97 1395.82" xmlns="http://www.w3.org/2000/svg" xmlns:xlink="http://www.w3.org/1999/xlink">
<g id="graph0" class="graph" transform="scale(1 1) rotate(0) translate(4 1391.82)">
<title>%3</title>
<polygon fill="white" stroke="transparent" points="-4,4 -4,-1391.82 1978.97,-1391.82 1978.97,4 -4,4"/>
<!-- 1,6 (Sodium Hydroxide, Limestone) -->
<g id="node1" class="node">
<title>1,6 (Sodium Hydroxide, Limestone)</title>
<ellipse fill="none" stroke="black" cx="735.71" cy="-1369.82" rx="175.47" ry="18"/>
<text text-anchor="middle" x="735.71" y="-1366.12" font-family="Times,serif" font-size="14.00">1,6 (Sodium Hydroxide, Limestone)</text>
</g>
<!-- 2,14 (Latex) -->
<g id="node2" class="node">
<title>2,14 (Latex)</title>
<ellipse fill="none" stroke="black" cx="257.76" cy="-1171.85" rx="66.89" ry="18"/>
<text text-anchor="middle" x="257.76" y="-1168.15" font-family="Times,serif" font-size="14.00">2,14 (Latex)</text>
</g>
<!-- 1,6 (Sodium Hydroxide, Limestone)&#45;&gt;2,14 (Latex) -->
<g id="edge1" class="edge">
<title>1,6 (Sodium Hydroxide, Limestone)&#45;&gt;2,14 (Latex)</title>
<path fill="none" stroke="black" stroke-width="0.03" d="M693.29,-1352.25C603.82,-1315.19 396.4,-1229.28 303.82,-1190.93"/>
<polygon fill="black" stroke="black" stroke-width="0.03" points="305.01,-1187.63 294.43,-1187.04 302.33,-1194.1 305.01,-1187.63"/>
<text text-anchor="middle" x="442.06" y="-1275.39" font-family="Times,serif" font-size="14.00">limestone*2096</text>
</g>
<!-- 4,12 (Molten Glass) -->
<g id="node4" class="node">
<title>4,12 (Molten Glass)</title>
<ellipse fill="none" stroke="black" cx="1213.65" cy="-1171.85" rx="102.08" ry="18"/>
<text text-anchor="middle" x="1213.65" y="-1168.15" font-family="Times,serif" font-size="14.00">4,12 (Molten Glass)</text>
</g>
<!-- 1,6 (Sodium Hydroxide, Limestone)&#45;&gt;4,12 (Molten Glass) -->
<g id="edge7" class="edge">
<title>1,6 (Sodium Hydroxide, Limestone)&#45;&gt;4,12 (Molten Glass)</title>
<path fill="none" stroke="black" stroke-width="0.03" d="M778.12,-1352.25C866.47,-1315.66 1069.82,-1231.43 1164.05,-1192.4"/>
<polygon fill="black" stroke="black" stroke-width="0.03" points="1165.46,-1195.6 1173.36,-1188.54 1162.78,-1189.13 1165.46,-1195.6"/>
<text text-anchor="middle" x="914.58" y="-1276.13" font-family="Times,serif" font-size="14.00">limestone*2064</text>
</g>
<!-- 10,6 (Limestone 2) -->
<g id="node3" class="node">
<title>10,6 (Limestone 2)</title>
<ellipse fill="none" stroke="black" cx="1411.62" cy="-693.91" rx="98.28" ry="18"/>
<text text-anchor="middle" x="1411.62" y="-690.21" font-family="Times,serif" font-size="14.00">10,6 (Limestone 2)</text>
</g>
<!-- 10,6 (Limestone 2)&#45;&gt;2,14 (Latex) -->
<g id="edge3" class="edge">
<title>10,6 (Limestone 2)&#45;&gt;2,14 (Latex)</title>
<path fill="none" stroke="black" stroke-width="1.99" d="M1371.56,-710.5C1195.52,-783.42 490.9,-1075.28 303.65,-1152.84"/>
<polygon fill="black" stroke="black" stroke-width="1.99" points="302.26,-1149.63 294.36,-1156.69 304.94,-1156.1 302.26,-1149.63"/>
<text text-anchor="middle" x="772.11" y="-935.47" font-family="Times,serif" font-size="14.00">limestone*129440</text>
</g>
<!-- 10,6 (Limestone 2)&#45;&gt;4,12 (Molten Glass) -->
<g id="edge2" class="edge">
<title>10,6 (Limestone 2)&#45;&gt;4,12 (Molten Glass)</title>
<path fill="none" stroke="black" stroke-width="0.63" d="M1404.1,-712.06C1373.9,-784.96 1261.34,-1056.7 1225.02,-1144.39"/>
<polygon fill="black" stroke="black" stroke-width="0.63" points="1221.77,-1143.1 1221.17,-1153.68 1228.23,-1145.78 1221.77,-1143.1"/>
<text text-anchor="middle" x="1253.56" y="-932.02" font-family="Times,serif" font-size="14.00">limestone*40880</text>
</g>
<!-- &#45;5,&#45;4 (low priority (slaked)? lime) -->
<g id="node5" class="node">
<title>&#45;5,&#45;4 (low priority (slaked)? lime)</title>
<ellipse fill="none" stroke="black" cx="1213.65" cy="-215.97" rx="162.47" ry="18"/>
<text text-anchor="middle" x="1213.65" y="-212.27" font-family="Times,serif" font-size="14.00">&#45;5,&#45;4 (low priority (slaked)? lime)</text>
</g>
<!-- 10,6 (Limestone 2)&#45;&gt;&#45;5,&#45;4 (low priority (slaked)? lime) -->
<g id="edge4" class="edge">
<title>10,6 (Limestone 2)&#45;&gt;&#45;5,&#45;4 (low priority (slaked)? lime)</title>
<path fill="none" stroke="black" stroke-width="4.33" d="M1404.1,-675.76C1373.9,-602.86 1261.34,-331.12 1225.02,-243.44"/>
<polygon fill="black" stroke="black" stroke-width="4.33" points="1228.5,-241.93 1221.17,-234.14 1221.5,-244.83 1228.5,-241.93"/>
<text text-anchor="middle" x="1249.06" y="-463.4" font-family="Times,serif" font-size="14.00">limestone*281680</text>
</g>
<!-- 3,&#45;8 (Agar) -->
<g id="node7" class="node">
<title>3,&#45;8 (Agar)</title>
<ellipse fill="none" stroke="black" cx="59.79" cy="-693.91" rx="59.59" ry="18"/>
<text text-anchor="middle" x="59.79" y="-690.21" font-family="Times,serif" font-size="14.00">3,&#45;8 (Agar)</text>
</g>
<!-- 10,6 (Limestone 2)&#45;&gt;3,&#45;8 (Agar) -->
<g id="edge11" class="edge">
<title>10,6 (Limestone 2)&#45;&gt;3,&#45;8 (Agar)</title>
<path fill="none" stroke="black" stroke-width="1.54" d="M1313.31,-693.91C1053.74,-693.91 354.6,-693.91 130.17,-693.91"/>
<polygon fill="black" stroke="black" stroke-width="1.54" points="129.85,-690.41 119.85,-693.91 129.85,-697.41 129.85,-690.41"/>
<text text-anchor="middle" x="656.24" y="-697.71" font-family="Times,serif" font-size="14.00">limestone*100160</text>
</g>
<!-- &#45;1,12 (I can&#39;t believe it&#39;s more latex duplicates) -->
<g id="node8" class="node">
<title>&#45;1,12 (I can&#39;t believe it&#39;s more latex duplicates)</title>
<ellipse fill="none" stroke="black" cx="735.71" cy="-18" rx="229.36" ry="18"/>
<text text-anchor="middle" x="735.71" y="-14.3" font-family="Times,serif" font-size="14.00">&#45;1,12 (I can&#39;t believe it&#39;s more latex duplicates)</text>
</g>
<!-- 10,6 (Limestone 2)&#45;&gt;&#45;1,12 (I can&#39;t believe it&#39;s more latex duplicates) -->
<g id="edge13" class="edge">
<title>10,6 (Limestone 2)&#45;&gt;&#45;1,12 (I can&#39;t believe it&#39;s more latex duplicates)</title>
<path fill="none" stroke="black" stroke-width="0.39" d="M1393.89,-676.18C1301.03,-583.32 870.89,-153.18 761.21,-43.51"/>
<polygon fill="black" stroke="black" stroke-width="0.39" points="763.42,-40.77 753.88,-36.17 758.47,-45.72 763.42,-40.77"/>
<text text-anchor="middle" x="1016.55" y="-363.64" font-family="Times,serif" font-size="14.00">limestone*25200</text>
</g>
<!-- &#45;2,6 (Wrong ratio of Calcium Carbide to Acetalene) -->
<g id="node9" class="node">
<title>&#45;2,6 (Wrong ratio of Calcium Carbide to Acetalene)</title>
<ellipse fill="none" stroke="black" cx="1729.29" cy="-693.91" rx="245.86" ry="18"/>
<text text-anchor="middle" x="1729.29" y="-690.21" font-family="Times,serif" font-size="14.00">&#45;2,6 (Wrong ratio of Calcium Carbide to Acetalene)</text>
</g>
<!-- 10,6 (Limestone 2)&#45;&gt;&#45;2,6 (Wrong ratio of Calcium Carbide to Acetalene) -->
<g id="edge10" class="edge">
<title>10,6 (Limestone 2)&#45;&gt;&#45;2,6 (Wrong ratio of Calcium Carbide to Acetalene)</title>
<path fill="none" stroke="black" stroke-width="0.47" d="M1509.96,-693.91C1510,-693.91 1510.05,-693.91 1510.09,-693.91"/>
<polygon fill="black" stroke="black" stroke-width="0.47" points="1500.23,-697.42 1510.23,-693.91 1500.23,-690.42 1500.23,-697.42"/>
<text text-anchor="middle" x="1571.02" y="-697.71" font-family="Times,serif" font-size="14.00">limestone*30240</text>
</g>
<!-- 1,5 (Limestone) -->
<g id="node6" class="node">
<title>1,5 (Limestone)</title>
<ellipse fill="none" stroke="black" cx="257.76" cy="-215.97" rx="83.39" ry="18"/>
<text text-anchor="middle" x="257.76" y="-212.27" font-family="Times,serif" font-size="14.00">1,5 (Limestone)</text>
</g>
<!-- 1,5 (Limestone)&#45;&gt;2,14 (Latex) -->
<g id="edge6" class="edge">
<title>1,5 (Limestone)&#45;&gt;2,14 (Latex)</title>
<path fill="none" stroke="black" stroke-width="1.08" d="M257.76,-234.21C257.76,-351.56 257.76,-999.87 257.76,-1143.62"/>
<polygon fill="black" stroke="black" stroke-width="1.08" points="254.26,-1143.81 257.76,-1153.81 261.26,-1143.81 254.26,-1143.81"/>
<text text-anchor="middle" x="196.76" y="-692.71" font-family="Times,serif" font-size="14.00">limestone*70400</text>
</g>
<!-- 1,5 (Limestone)&#45;&gt;4,12 (Molten Glass) -->
<g id="edge9" class="edge">
<title>1,5 (Limestone)&#45;&gt;4,12 (Molten Glass)</title>
<path fill="none" stroke="black" stroke-width="0.17" d="M275.59,-233.79C392.6,-350.81 1050.45,-1008.66 1188.31,-1146.52"/>
<polygon fill="black" stroke="black" stroke-width="0.17" points="1186.02,-1149.17 1195.56,-1153.77 1190.97,-1144.22 1186.02,-1149.17"/>
<text text-anchor="middle" x="670.95" y="-678.95" font-family="Times,serif" font-size="14.00">limestone*10880</text>
</g>
<!-- 1,5 (Limestone)&#45;&gt;&#45;5,&#45;4 (low priority (slaked)? lime) -->
<g id="edge12" class="edge">
<title>1,5 (Limestone)&#45;&gt;&#45;5,&#45;4 (low priority (slaked)? lime)</title>
<path fill="none" stroke="black" stroke-width="1.18" d="M341.34,-215.97C496.98,-215.97 834.15,-215.97 1040.73,-215.97"/>
<polygon fill="black" stroke="black" stroke-width="1.18" points="1040.77,-219.47 1050.77,-215.97 1040.77,-212.47 1040.77,-219.47"/>
<text text-anchor="middle" x="630.03" y="-219.77" font-family="Times,serif" font-size="14.00">limestone*76800</text>
</g>
<!-- 1,5 (Limestone)&#45;&gt;3,&#45;8 (Agar) -->
<g id="edge5" class="edge">
<title>1,5 (Limestone)&#45;&gt;3,&#45;8 (Agar)</title>
<path fill="none" stroke="black" stroke-width="0.39" d="M250.25,-234.12C220.02,-307.1 107.24,-579.37 71.05,-666.74"/>
<polygon fill="black" stroke="black" stroke-width="0.39" points="67.81,-665.42 67.22,-676 74.28,-668.1 67.81,-665.42"/>
<text text-anchor="middle" x="99.65" y="-454.23" font-family="Times,serif" font-size="14.00">limestone*25040</text>
</g>
<!-- 1,5 (Limestone)&#45;&gt;&#45;1,12 (I can&#39;t believe it&#39;s more latex duplicates) -->
<g id="edge8" class="edge">
<title>1,5 (Limestone)&#45;&gt;&#45;1,12 (I can&#39;t believe it&#39;s more latex duplicates)</title>
<path fill="none" stroke="black" stroke-width="0.77" d="M296.47,-199.94C381.96,-164.53 586.94,-79.62 683.6,-39.58"/>
<polygon fill="black" stroke="black" stroke-width="0.77" points="684.98,-42.8 692.88,-35.74 682.31,-36.33 684.98,-42.8"/>
<text text-anchor="middle" x="429.03" y="-123.56" font-family="Times,serif" font-size="14.00">limestone*50080</text>
</g>
</g>
</svg>
