<?xml version="1.0" encoding="UTF-8" standalone="no"?>
<!DOCTYPE svg PUBLIC "-//W3C//DTD SVG 1.1//EN"
 "http://www.w3.org/Graphics/SVG/1.1/DTD/svg11.dtd">
<!-- Generated by graphviz version 2.43.0 (0)
 -->
<!-- Title: %3 Pages: 1 -->
<svg width="1674pt" height="1378pt"
 viewBox="0.00 0.00 1674.45 1377.91" xmlns="http://www.w3.org/2000/svg" xmlns:xlink="http://www.w3.org/1999/xlink">
<g id="graph0" class="graph" transform="scale(1 1) rotate(0) translate(4 1373.91)">
<title>%3</title>
<polygon fill="white" stroke="transparent" points="-4,4 -4,-1373.91 1670.45,-1373.91 1670.45,4 -4,4"/>
<!-- 4,&#45;1 (Fluid) -->
<g id="node1" class="node">
<title>4,&#45;1 (Fluid)</title>
<ellipse fill="none" stroke="black" cx="1451.46" cy="-684.95" rx="61.99" ry="18"/>
<text text-anchor="middle" x="1451.46" y="-681.25" font-family="Times,serif" font-size="14.00">4,&#45;1 (Fluid)</text>
</g>
<!-- 8,3 (Nylon mk2) -->
<g id="node2" class="node">
<title>8,3 (Nylon mk2)</title>
<ellipse fill="none" stroke="black" cx="151" cy="-981.78" rx="85.29" ry="18"/>
<text text-anchor="middle" x="151" y="-978.08" font-family="Times,serif" font-size="14.00">8,3 (Nylon mk2)</text>
</g>
<!-- 4,&#45;1 (Fluid)&#45;&gt;8,3 (Nylon mk2) -->
<g id="edge1" class="edge">
<title>4,&#45;1 (Fluid)&#45;&gt;8,3 (Nylon mk2)</title>
<path fill="none" stroke="black" stroke-width="4.82" d="M1402.47,-696.14C1202.84,-741.7 450.54,-913.41 219.14,-966.22"/>
<polygon fill="black" stroke="black" stroke-width="4.82" points="217.98,-962.16 209.17,-968.5 219.86,-970.39 217.98,-962.16"/>
<text text-anchor="middle" x="730.81" y="-834.98" font-family="Times,serif" font-size="14.00">benzene&#45;barrel*14160</text>
</g>
<!-- 0,0 (LE BUS) -->
<g id="node3" class="node">
<title>0,0 (LE BUS)</title>
<ellipse fill="none" stroke="black" cx="1594.96" cy="-684.95" rx="71.49" ry="18"/>
<text text-anchor="middle" x="1594.96" y="-681.25" font-family="Times,serif" font-size="14.00">0,0 (LE BUS)</text>
</g>
<!-- 4,&#45;1 (Fluid)&#45;&gt;0,0 (LE BUS) -->
<g id="edge2" class="edge">
<title>4,&#45;1 (Fluid)&#45;&gt;0,0 (LE BUS)</title>
<path fill="none" stroke="black" stroke-width="0.34" d="M1513.57,-684.95C1513.67,-684.95 1513.77,-684.95 1513.87,-684.95"/>
<polygon fill="black" stroke="black" stroke-width="0.34" points="1513.16,-688.45 1523.16,-684.95 1513.16,-681.45 1513.16,-688.45"/>
<text text-anchor="middle" x="1438.22" y="-688.75" font-family="Times,serif" font-size="14.00">benzene&#45;barrel*1000</text>
</g>
<!-- 4,4 (Hydrogen Chloride, item=nylon Nylon/Nylon parts) -->
<g id="node4" class="node">
<title>4,4 (Hydrogen Chloride, item=nylon Nylon/Nylon parts)</title>
<ellipse fill="none" stroke="black" cx="1193.89" cy="-1219.81" rx="271.05" ry="18"/>
<text text-anchor="middle" x="1193.89" y="-1216.11" font-family="Times,serif" font-size="14.00">4,4 (Hydrogen Chloride, item=nylon Nylon/Nylon parts)</text>
</g>
<!-- 4,&#45;1 (Fluid)&#45;&gt;4,4 (Hydrogen Chloride, item=nylon Nylon/Nylon parts) -->
<g id="edge3" class="edge">
<title>4,&#45;1 (Fluid)&#45;&gt;4,4 (Hydrogen Chloride, item=nylon Nylon/Nylon parts)</title>
<path fill="none" stroke="black" stroke-width="0.79" d="M1442.75,-703.06C1404.68,-782.1 1252.9,-1097.28 1207.06,-1192.45"/>
<polygon fill="black" stroke="black" stroke-width="0.79" points="1203.79,-1191.18 1202.61,-1201.71 1210.1,-1194.22 1203.79,-1191.18"/>
<text text-anchor="middle" x="1249.41" y="-951.55" font-family="Times,serif" font-size="14.00">benzene&#45;barrel*2328</text>
</g>
<!-- &#45;5,2 (Optical fiber) -->
<g id="node5" class="node">
<title>&#45;5,2 (Optical fiber)</title>
<ellipse fill="none" stroke="black" cx="1193.89" cy="-150.1" rx="96.38" ry="18"/>
<text text-anchor="middle" x="1193.89" y="-146.4" font-family="Times,serif" font-size="14.00">&#45;5,2 (Optical fiber)</text>
</g>
<!-- 4,&#45;1 (Fluid)&#45;&gt;&#45;5,2 (Optical fiber) -->
<g id="edge4" class="edge">
<title>4,&#45;1 (Fluid)&#45;&gt;&#45;5,2 (Optical fiber)</title>
<path fill="none" stroke="black" stroke-width="1.06" d="M1442.75,-666.85C1404.68,-587.81 1252.9,-272.63 1207.06,-177.45"/>
<polygon fill="black" stroke="black" stroke-width="1.06" points="1210.1,-175.69 1202.61,-168.2 1203.79,-178.72 1210.1,-175.69"/>
<text text-anchor="middle" x="1249.41" y="-425.95" font-family="Times,serif" font-size="14.00">benzene&#45;barrel*3104</text>
</g>
<!-- 3,3 (Random electronic components, Small Parts) -->
<g id="node8" class="node">
<title>3,3 (Random electronic components, Small Parts)</title>
<ellipse fill="none" stroke="black" cx="615.13" cy="-18" rx="240.46" ry="18"/>
<text text-anchor="middle" x="615.13" y="-14.3" font-family="Times,serif" font-size="14.00">3,3 (Random electronic components, Small Parts)</text>
</g>
<!-- 4,&#45;1 (Fluid)&#45;&gt;3,3 (Random electronic components, Small Parts) -->
<g id="edge9" class="edge">
<title>4,&#45;1 (Fluid)&#45;&gt;3,3 (Random electronic components, Small Parts)</title>
<path fill="none" stroke="black" stroke-width="1.02" d="M1429.95,-667.8C1315.63,-576.63 779.54,-149.11 645.54,-42.25"/>
<polygon fill="black" stroke="black" stroke-width="1.02" points="647.66,-39.47 637.66,-35.97 643.3,-44.94 647.66,-39.47"/>
<text text-anchor="middle" x="962.25" y="-358.83" font-family="Times,serif" font-size="14.00">benzene&#45;barrel*2992</text>
</g>
<!-- 4,10 (Fluid Recycling) -->
<g id="node6" class="node">
<title>4,10 (Fluid Recycling)</title>
<ellipse fill="none" stroke="black" cx="151" cy="-388.13" rx="112.38" ry="18"/>
<text text-anchor="middle" x="151" y="-384.43" font-family="Times,serif" font-size="14.00">4,10 (Fluid Recycling)</text>
</g>
<!-- 4,10 (Fluid Recycling)&#45;&gt;8,3 (Nylon mk2) -->
<g id="edge6" class="edge">
<title>4,10 (Fluid Recycling)&#45;&gt;8,3 (Nylon mk2)</title>
<path fill="none" stroke="black" stroke-width="1.62" d="M151,-406.22C151,-491.05 151,-849.65 151,-953.49"/>
<polygon fill="black" stroke="black" stroke-width="1.62" points="147.5,-953.54 151,-963.54 154.5,-953.54 147.5,-953.54"/>
<text text-anchor="middle" x="75.5" y="-683.66" font-family="Times,serif" font-size="14.00">benzene&#45;barrel*4746</text>
</g>
<!-- 4,10 (Fluid Recycling)&#45;&gt;4,4 (Hydrogen Chloride, item=nylon Nylon/Nylon parts) -->
<g id="edge5" class="edge">
<title>4,10 (Fluid Recycling)&#45;&gt;4,4 (Hydrogen Chloride, item=nylon Nylon/Nylon parts)</title>
<path fill="none" stroke="black" stroke-width="0.08" d="M173.26,-405.89C307.41,-512.86 1007.38,-1071.07 1163.15,-1195.29"/>
<polygon fill="black" stroke="black" stroke-width="0.08" points="1161.39,-1198.37 1171.39,-1201.87 1165.76,-1192.9 1161.39,-1198.37"/>
<text text-anchor="middle" x="597.21" y="-804.39" font-family="Times,serif" font-size="14.00">benzene&#45;barrel*240</text>
</g>
<!-- 4,10 (Fluid Recycling)&#45;&gt;&#45;5,2 (Optical fiber) -->
<g id="edge10" class="edge">
<title>4,10 (Fluid Recycling)&#45;&gt;&#45;5,2 (Optical fiber)</title>
<path fill="none" stroke="black" stroke-width="0.36" d="M215.84,-373.33C400.88,-331.1 930.45,-210.23 1122.89,-166.3"/>
<polygon fill="black" stroke="black" stroke-width="0.36" points="1123.93,-169.66 1132.9,-164.02 1122.37,-162.83 1123.93,-169.66"/>
<text text-anchor="middle" x="593.87" y="-273.62" font-family="Times,serif" font-size="14.00">benzene&#45;barrel*1056</text>
</g>
<!-- 4,10 (Fluid Recycling)&#45;&gt;3,3 (Random electronic components, Small Parts) -->
<g id="edge11" class="edge">
<title>4,10 (Fluid Recycling)&#45;&gt;3,3 (Random electronic components, Small Parts)</title>
<path fill="none" stroke="black" stroke-width="0.23" d="M173.39,-370.28C249.34,-309.71 497.34,-111.93 584.5,-42.42"/>
<polygon fill="black" stroke="black" stroke-width="0.23" points="586.79,-45.08 592.43,-36.11 582.42,-39.61 586.79,-45.08"/>
<text text-anchor="middle" x="307.94" y="-210.15" font-family="Times,serif" font-size="14.00">benzene&#45;barrel*672</text>
</g>
<!-- 7,&#45;1 (Aromatics, Need more Benzene? Look no further!) -->
<g id="node7" class="node">
<title>7,&#45;1 (Aromatics, Need more Benzene? Look no further!)</title>
<ellipse fill="none" stroke="black" cx="615.13" cy="-1351.91" rx="268.35" ry="18"/>
<text text-anchor="middle" x="615.13" y="-1348.21" font-family="Times,serif" font-size="14.00">7,&#45;1 (Aromatics, Need more Benzene? Look no further!)</text>
</g>
<!-- 7,&#45;1 (Aromatics, Need more Benzene? Look no further!)&#45;&gt;8,3 (Nylon mk2) -->
<g id="edge7" class="edge">
<title>7,&#45;1 (Aromatics, Need more Benzene? Look no further!)&#45;&gt;8,3 (Nylon mk2)</title>
<path fill="none" stroke="black" stroke-width="0.61" d="M592.43,-1333.8C515.82,-1272.71 266.83,-1074.14 180.66,-1005.43"/>
<polygon fill="black" stroke="black" stroke-width="0.61" points="182.85,-1002.7 172.84,-999.2 178.48,-1008.17 182.85,-1002.7"/>
<text text-anchor="middle" x="311.05" y="-1173.42" font-family="Times,serif" font-size="14.00">benzene&#45;barrel*1792</text>
</g>
<!-- 7,&#45;1 (Aromatics, Need more Benzene? Look no further!)&#45;&gt;4,4 (Hydrogen Chloride, item=nylon Nylon/Nylon parts) -->
<g id="edge8" class="edge">
<title>7,&#45;1 (Aromatics, Need more Benzene? Look no further!)&#45;&gt;4,4 (Hydrogen Chloride, item=nylon Nylon/Nylon parts)</title>
<path fill="none" stroke="black" stroke-width="0.07" d="M691.09,-1334.57C798.71,-1310.01 994.99,-1265.21 1107.85,-1239.45"/>
<polygon fill="black" stroke="black" stroke-width="0.07" points="1108.87,-1242.81 1117.84,-1237.17 1107.31,-1235.98 1108.87,-1242.81"/>
<text text-anchor="middle" x="828.47" y="-1290.81" font-family="Times,serif" font-size="14.00">benzene&#45;barrel*208</text>
</g>
</g>
</svg>
