<?xml version="1.0" encoding="UTF-8" standalone="no"?>
<!DOCTYPE svg PUBLIC "-//W3C//DTD SVG 1.1//EN"
 "http://www.w3.org/Graphics/SVG/1.1/DTD/svg11.dtd">
<!-- Generated by graphviz version 2.43.0 (0)
 -->
<!-- Title: %3 Pages: 1 -->
<svg width="2534pt" height="2151pt"
 viewBox="0.00 0.00 2534.39 2151.18" xmlns="http://www.w3.org/2000/svg" xmlns:xlink="http://www.w3.org/1999/xlink">
<g id="graph0" class="graph" transform="scale(1 1) rotate(0) translate(4 2147.18)">
<title>%3</title>
<polygon fill="white" stroke="transparent" points="-4,4 -4,-2147.18 2530.39,-2147.18 2530.39,4 -4,4"/>
<!-- &#45;2,7 (item=borax Borax) -->
<g id="node1" class="node">
<title>&#45;2,7 (item=borax Borax)</title>
<ellipse fill="none" stroke="black" cx="1790.31" cy="-1984.02" rx="123.48" ry="18"/>
<text text-anchor="middle" x="1790.31" y="-1980.32" font-family="Times,serif" font-size="14.00">&#45;2,7 (item=borax Borax)</text>
</g>
<!-- 4,3 (item=nexelit&#45;plate Nexelit platery) -->
<g id="node2" class="node">
<title>4,3 (item=nexelit&#45;plate Nexelit platery)</title>
<ellipse fill="none" stroke="black" cx="351.09" cy="-544.79" rx="194.17" ry="18"/>
<text text-anchor="middle" x="351.09" y="-541.09" font-family="Times,serif" font-size="14.00">4,3 (item=nexelit&#45;plate Nexelit platery)</text>
</g>
<!-- &#45;2,7 (item=borax Borax)&#45;&gt;4,3 (item=nexelit&#45;plate Nexelit platery) -->
<g id="edge1" class="edge">
<title>&#45;2,7 (item=borax Borax)&#45;&gt;4,3 (item=nexelit&#45;plate Nexelit platery)</title>
<path fill="none" stroke="black" stroke-width="3.88" d="M1772.38,-1966.09C1620.8,-1814.51 555.38,-749.09 376.53,-570.24"/>
<polygon fill="black" stroke="black" stroke-width="3.88" points="378.93,-567.69 369.38,-563.09 373.98,-572.64 378.93,-567.69"/>
<text text-anchor="middle" x="983.96" y="-1271.96" font-family="Times,serif" font-size="14.00">dirty&#45;water&#45;barrel*31984</text>
</g>
<!-- 4,10 (Fluid Recycling) -->
<g id="node4" class="node">
<title>4,10 (Fluid Recycling)</title>
<ellipse fill="none" stroke="black" cx="351.09" cy="-1598.38" rx="112.38" ry="18"/>
<text text-anchor="middle" x="351.09" y="-1594.68" font-family="Times,serif" font-size="14.00">4,10 (Fluid Recycling)</text>
</g>
<!-- &#45;2,7 (item=borax Borax)&#45;&gt;4,10 (Fluid Recycling) -->
<g id="edge10" class="edge">
<title>&#45;2,7 (item=borax Borax)&#45;&gt;4,10 (Fluid Recycling)</title>
<path fill="none" stroke="black" stroke-width="1.68" d="M1731.21,-1968.19C1500.87,-1906.47 664,-1682.23 418.94,-1616.56"/>
<polygon fill="black" stroke="black" stroke-width="1.68" points="419.66,-1613.13 409.1,-1613.93 417.85,-1619.9 419.66,-1613.13"/>
<text text-anchor="middle" x="984.58" y="-1796.18" font-family="Times,serif" font-size="14.00">dirty&#45;water&#45;barrel*13832</text>
</g>
<!-- 5,2 (Raw Fiber) -->
<g id="node5" class="node">
<title>5,2 (Raw Fiber)</title>
<ellipse fill="none" stroke="black" cx="1263.52" cy="-2125.18" rx="83.39" ry="18"/>
<text text-anchor="middle" x="1263.52" y="-2121.48" font-family="Times,serif" font-size="14.00">5,2 (Raw Fiber)</text>
</g>
<!-- &#45;2,7 (item=borax Borax)&#45;&gt;5,2 (Raw Fiber) -->
<g id="edge20" class="edge">
<title>&#45;2,7 (item=borax Borax)&#45;&gt;5,2 (Raw Fiber)</title>
<path fill="none" stroke="black" stroke-width="1.64" d="M1731.16,-1999.87C1630.89,-2026.74 1428.45,-2080.98 1325.98,-2108.44"/>
<polygon fill="black" stroke="black" stroke-width="1.64" points="1324.83,-2105.12 1316.08,-2111.09 1326.64,-2111.89 1324.83,-2105.12"/>
<text text-anchor="middle" x="1438.07" y="-2057.96" font-family="Times,serif" font-size="14.00">dirty&#45;water&#45;barrel*13520</text>
</g>
<!-- &#45;2,&#45;3 (Trains) -->
<g id="node8" class="node">
<title>&#45;2,&#45;3 (Trains)</title>
<ellipse fill="none" stroke="black" cx="2175.95" cy="-544.79" rx="70.39" ry="18"/>
<text text-anchor="middle" x="2175.95" y="-541.09" font-family="Times,serif" font-size="14.00">&#45;2,&#45;3 (Trains)</text>
</g>
<!-- &#45;2,7 (item=borax Borax)&#45;&gt;&#45;2,&#45;3 (Trains) -->
<g id="edge6" class="edge">
<title>&#45;2,7 (item=borax Borax)&#45;&gt;&#45;2,&#45;3 (Trains)</title>
<path fill="none" stroke="black" stroke-width="1.07" d="M1795.19,-1965.83C1835.86,-1814.04 2118.45,-759.41 2168.41,-572.94"/>
<polygon fill="black" stroke="black" stroke-width="1.07" points="2171.85,-573.64 2171.06,-563.07 2165.09,-571.82 2171.85,-573.64"/>
<text text-anchor="middle" x="1895.8" y="-1273.18" font-family="Times,serif" font-size="14.00">dirty&#45;water&#45;barrel*8848</text>
</g>
<!-- &#45;3,7 (item=sea&#45;sponge&#45;sprouts Also Borax) -->
<g id="node10" class="node">
<title>&#45;3,7 (item=sea&#45;sponge&#45;sprouts Also Borax)</title>
<ellipse fill="none" stroke="black" cx="2317.11" cy="-1071.59" rx="209.06" ry="18"/>
<text text-anchor="middle" x="2317.11" y="-1067.89" font-family="Times,serif" font-size="14.00">&#45;3,7 (item=sea&#45;sponge&#45;sprouts Also Borax)</text>
</g>
<!-- &#45;2,7 (item=borax Borax)&#45;&gt;&#45;3,7 (item=sea&#45;sponge&#45;sprouts Also Borax) -->
<g id="edge17" class="edge">
<title>&#45;2,7 (item=borax Borax)&#45;&gt;&#45;3,7 (item=sea&#45;sponge&#45;sprouts Also Borax)</title>
<path fill="none" stroke="black" stroke-width="0.37" d="M1800.84,-1965.8C1866.75,-1851.63 2222.55,-1235.37 2301.56,-1098.52"/>
<polygon fill="black" stroke="black" stroke-width="0.37" points="2304.59,-1100.27 2306.56,-1089.86 2298.53,-1096.77 2304.59,-1100.27"/>
<text text-anchor="middle" x="1965.2" y="-1535.96" font-family="Times,serif" font-size="14.00">dirty&#45;water&#45;barrel*3088</text>
</g>
<!-- 3,9 (Copper, molten &amp; plate) -->
<g id="node3" class="node">
<title>3,9 (Copper, molten &amp; plate)</title>
<ellipse fill="none" stroke="black" cx="736.73" cy="-1984.02" rx="143.77" ry="18"/>
<text text-anchor="middle" x="736.73" y="-1980.32" font-family="Times,serif" font-size="14.00">3,9 (Copper, molten &amp; plate)</text>
</g>
<!-- 3,9 (Copper, molten &amp; plate)&#45;&gt;4,3 (item=nexelit&#45;plate Nexelit platery) -->
<g id="edge8" class="edge">
<title>3,9 (Copper, molten &amp; plate)&#45;&gt;4,3 (item=nexelit&#45;plate Nexelit platery)</title>
<path fill="none" stroke="black" stroke-width="2.49" d="M731.85,-1965.83C691.18,-1814.04 408.59,-759.41 358.63,-572.94"/>
<polygon fill="black" stroke="black" stroke-width="2.49" points="361.95,-571.82 355.98,-563.07 355.19,-573.64 361.95,-571.82"/>
<text text-anchor="middle" x="454.74" y="-1273.18" font-family="Times,serif" font-size="14.00">dirty&#45;water&#45;barrel*20497</text>
</g>
<!-- 3,9 (Copper, molten &amp; plate)&#45;&gt;4,10 (Fluid Recycling) -->
<g id="edge2" class="edge">
<title>3,9 (Copper, molten &amp; plate)&#45;&gt;4,10 (Fluid Recycling)</title>
<path fill="none" stroke="black" stroke-width="1.76" d="M718.64,-1965.94C656.14,-1903.44 449.12,-1696.42 376.52,-1623.81"/>
<polygon fill="black" stroke="black" stroke-width="1.76" points="378.68,-1621.02 369.13,-1616.43 373.73,-1625.97 378.68,-1621.02"/>
<text text-anchor="middle" x="457.08" y="-1798.68" font-family="Times,serif" font-size="14.00">dirty&#45;water&#45;barrel*14520</text>
</g>
<!-- 3,9 (Copper, molten &amp; plate)&#45;&gt;5,2 (Raw Fiber) -->
<g id="edge3" class="edge">
<title>3,9 (Copper, molten &amp; plate)&#45;&gt;5,2 (Raw Fiber)</title>
<path fill="none" stroke="black" stroke-width="1.13" d="M797.67,-2000.35C898.58,-2027.39 1099.33,-2081.18 1201.16,-2108.47"/>
<polygon fill="black" stroke="black" stroke-width="1.13" points="1200.43,-2111.9 1211,-2111.1 1202.24,-2105.13 1200.43,-2111.9"/>
<text text-anchor="middle" x="913.42" y="-2058.21" font-family="Times,serif" font-size="14.00">dirty&#45;water&#45;barrel*9317</text>
</g>
<!-- 3,9 (Copper, molten &amp; plate)&#45;&gt;&#45;2,&#45;3 (Trains) -->
<g id="edge13" class="edge">
<title>3,9 (Copper, molten &amp; plate)&#45;&gt;&#45;2,&#45;3 (Trains)</title>
<path fill="none" stroke="black" stroke-width="0.79" d="M754.66,-1966.09C906.39,-1814.35 1973.9,-746.85 2151.07,-569.68"/>
<polygon fill="black" stroke="black" stroke-width="0.79" points="2153.55,-572.15 2158.14,-562.6 2148.6,-567.2 2153.55,-572.15"/>
<text text-anchor="middle" x="1366.86" y="-1271.68" font-family="Times,serif" font-size="14.00">dirty&#45;water&#45;barrel*6500</text>
</g>
<!-- 3,9 (Copper, molten &amp; plate)&#45;&gt;&#45;3,7 (item=sea&#45;sponge&#45;sprouts Also Borax) -->
<g id="edge29" class="edge">
<title>3,9 (Copper, molten &amp; plate)&#45;&gt;&#45;3,7 (item=sea&#45;sponge&#45;sprouts Also Borax)</title>
<path fill="none" stroke="black" stroke-width="0.12" d="M767.23,-1966.41C964.12,-1852.74 2054.24,-1223.36 2277.25,-1094.6"/>
<polygon fill="black" stroke="black" stroke-width="0.12" points="2279.11,-1097.57 2286.02,-1089.54 2275.61,-1091.51 2279.11,-1097.57"/>
<text text-anchor="middle" x="1436.24" y="-1534.3" font-family="Times,serif" font-size="14.00">dirty&#45;water&#45;barrel*1000</text>
</g>
<!-- 1,12 (Molten Iron) -->
<g id="node6" class="node">
<title>1,12 (Molten Iron)</title>
<ellipse fill="none" stroke="black" cx="1790.31" cy="-159.15" rx="95.58" ry="18"/>
<text text-anchor="middle" x="1790.31" y="-155.45" font-family="Times,serif" font-size="14.00">1,12 (Molten Iron)</text>
</g>
<!-- 1,12 (Molten Iron)&#45;&gt;4,3 (item=nexelit&#45;plate Nexelit platery) -->
<g id="edge4" class="edge">
<title>1,12 (Molten Iron)&#45;&gt;4,3 (item=nexelit&#45;plate Nexelit platery)</title>
<path fill="none" stroke="black" stroke-width="3.1" d="M1735.21,-173.92C1512.48,-233.6 678.48,-457.07 424.77,-525.05"/>
<polygon fill="black" stroke="black" stroke-width="3.1" points="423.67,-521.72 414.92,-527.69 425.48,-528.48 423.67,-521.72"/>
<text text-anchor="middle" x="989.49" y="-353.28" font-family="Times,serif" font-size="14.00">dirty&#45;water&#45;barrel*25584</text>
</g>
<!-- 1,12 (Molten Iron)&#45;&gt;4,10 (Fluid Recycling) -->
<g id="edge21" class="edge">
<title>1,12 (Molten Iron)&#45;&gt;4,10 (Fluid Recycling)</title>
<path fill="none" stroke="black" stroke-width="1.09" d="M1772.38,-177.09C1620.64,-328.82 553.14,-1396.33 375.97,-1573.5"/>
<polygon fill="black" stroke="black" stroke-width="1.09" points="373.49,-1571.03 368.89,-1580.57 378.44,-1575.98 373.49,-1571.03"/>
<text text-anchor="middle" x="988.17" y="-879.09" font-family="Times,serif" font-size="14.00">dirty&#45;water&#45;barrel*8992</text>
</g>
<!-- 1,12 (Molten Iron)&#45;&gt;5,2 (Raw Fiber) -->
<g id="edge15" class="edge">
<title>1,12 (Molten Iron)&#45;&gt;5,2 (Raw Fiber)</title>
<path fill="none" stroke="black" stroke-width="1.19" d="M1785.43,-177.36C1736.3,-360.75 1331.28,-1872.29 1271.01,-2097.23"/>
<polygon fill="black" stroke="black" stroke-width="1.19" points="1267.61,-2096.39 1268.4,-2106.96 1274.37,-2098.21 1267.61,-2096.39"/>
<text text-anchor="middle" x="1442.22" y="-1141.1" font-family="Times,serif" font-size="14.00">dirty&#45;water&#45;barrel*9792</text>
</g>
<!-- 1,12 (Molten Iron)&#45;&gt;&#45;2,&#45;3 (Trains) -->
<g id="edge18" class="edge">
<title>1,12 (Molten Iron)&#45;&gt;&#45;2,&#45;3 (Trains)</title>
<path fill="none" stroke="black" stroke-width="0.33" d="M1808.14,-176.98C1870.46,-239.3 2078.67,-447.51 2150.97,-519.81"/>
<polygon fill="black" stroke="black" stroke-width="0.33" points="2148.77,-522.56 2158.32,-527.16 2153.72,-517.61 2148.77,-522.56"/>
<text text-anchor="middle" x="1893.55" y="-352.19" font-family="Times,serif" font-size="14.00">dirty&#45;water&#45;barrel*2704</text>
</g>
<!-- &#45;2,9 (molten steel) -->
<g id="node7" class="node">
<title>&#45;2,9 (molten steel)</title>
<ellipse fill="none" stroke="black" cx="2175.95" cy="-1598.38" rx="95.58" ry="18"/>
<text text-anchor="middle" x="2175.95" y="-1594.68" font-family="Times,serif" font-size="14.00">&#45;2,9 (molten steel)</text>
</g>
<!-- &#45;2,9 (molten steel)&#45;&gt;4,3 (item=nexelit&#45;plate Nexelit platery) -->
<g id="edge14" class="edge">
<title>&#45;2,9 (molten steel)&#45;&gt;4,3 (item=nexelit&#45;plate Nexelit platery)</title>
<path fill="none" stroke="black" stroke-width="0.91" d="M2146.18,-1581.19C1932.63,-1457.9 635.75,-709.14 390.93,-567.8"/>
<polygon fill="black" stroke="black" stroke-width="0.91" points="392.43,-564.62 382.02,-562.65 388.93,-570.68 392.43,-564.62"/>
<text text-anchor="middle" x="1182.56" y="-1078.3" font-family="Times,serif" font-size="14.00">dirty&#45;water&#45;barrel*7494</text>
</g>
<!-- &#45;2,9 (molten steel)&#45;&gt;4,10 (Fluid Recycling) -->
<g id="edge5" class="edge">
<title>&#45;2,9 (molten steel)&#45;&gt;4,10 (Fluid Recycling)</title>
<path fill="none" stroke="black" stroke-width="0.47" d="M2080.41,-1598.38C1773.94,-1598.38 815.68,-1598.38 473.8,-1598.38"/>
<polygon fill="black" stroke="black" stroke-width="0.47" points="473.62,-1594.88 463.62,-1598.38 473.62,-1601.88 473.62,-1594.88"/>
<text text-anchor="middle" x="1191.1" y="-1602.18" font-family="Times,serif" font-size="14.00">dirty&#45;water&#45;barrel*3857</text>
</g>
<!-- &#45;2,9 (molten steel)&#45;&gt;5,2 (Raw Fiber) -->
<g id="edge7" class="edge">
<title>&#45;2,9 (molten steel)&#45;&gt;5,2 (Raw Fiber)</title>
<path fill="none" stroke="black" stroke-width="0.38" d="M2146.11,-1615.61C2010.74,-1693.77 1454.34,-2015.01 1302.15,-2102.87"/>
<polygon fill="black" stroke="black" stroke-width="0.38" points="1300.04,-2100.05 1293.13,-2108.08 1303.54,-2106.11 1300.04,-2100.05"/>
<text text-anchor="middle" x="1638.13" y="-1863.04" font-family="Times,serif" font-size="14.00">dirty&#45;water&#45;barrel*3142</text>
</g>
<!-- &#45;2,9 (molten steel)&#45;&gt;&#45;2,&#45;3 (Trains) -->
<g id="edge16" class="edge">
<title>&#45;2,9 (molten steel)&#45;&gt;&#45;2,&#45;3 (Trains)</title>
<path fill="none" stroke="black" stroke-width="0.15" d="M2175.95,-1580.1C2175.95,-1455.08 2175.95,-726.79 2175.95,-573.22"/>
<polygon fill="black" stroke="black" stroke-width="0.15" points="2179.45,-573.17 2175.95,-563.17 2172.45,-573.17 2179.45,-573.17"/>
<text text-anchor="middle" x="2089.95" y="-1080.46" font-family="Times,serif" font-size="14.00">dirty&#45;water&#45;barrel*1200</text>
</g>
<!-- &#45;2,9 (molten steel)&#45;&gt;&#45;3,7 (item=sea&#45;sponge&#45;sprouts Also Borax) -->
<g id="edge30" class="edge">
<title>&#45;2,9 (molten steel)&#45;&gt;&#45;3,7 (item=sea&#45;sponge&#45;sprouts Also Borax)</title>
<path fill="none" stroke="black" stroke-width="0.05" d="M2180.81,-1580.25C2201.75,-1502.12 2284.32,-1193.97 2309.67,-1099.36"/>
<polygon fill="black" stroke="black" stroke-width="0.05" points="2313.06,-1100.21 2312.27,-1089.65 2306.3,-1098.4 2313.06,-1100.21"/>
<text text-anchor="middle" x="2163.74" y="-1343.61" font-family="Times,serif" font-size="14.00">dirty&#45;water&#45;barrel*429</text>
</g>
<!-- &#45;1,10 (Iron Plates) -->
<g id="node9" class="node">
<title>&#45;1,10 (Iron Plates)</title>
<ellipse fill="none" stroke="black" cx="1263.52" cy="-18" rx="94.78" ry="18"/>
<text text-anchor="middle" x="1263.52" y="-14.3" font-family="Times,serif" font-size="14.00">&#45;1,10 (Iron Plates)</text>
</g>
<!-- &#45;1,10 (Iron Plates)&#45;&gt;4,3 (item=nexelit&#45;plate Nexelit platery) -->
<g id="edge12" class="edge">
<title>&#45;1,10 (Iron Plates)&#45;&gt;4,3 (item=nexelit&#45;plate Nexelit platery)</title>
<path fill="none" stroke="black" stroke-width="1.65" d="M1233.68,-35.23C1098.62,-113.2 544.51,-433.12 390.79,-521.87"/>
<polygon fill="black" stroke="black" stroke-width="1.65" points="389,-518.86 382.09,-526.89 392.5,-524.93 389,-518.86"/>
<text text-anchor="middle" x="721.74" y="-282.35" font-family="Times,serif" font-size="14.00">dirty&#45;water&#45;barrel*13632</text>
</g>
<!-- &#45;1,10 (Iron Plates)&#45;&gt;4,10 (Fluid Recycling) -->
<g id="edge19" class="edge">
<title>&#45;1,10 (Iron Plates)&#45;&gt;4,10 (Fluid Recycling)</title>
<path fill="none" stroke="black" stroke-width="1.26" d="M1253.12,-36.02C1160.51,-196.42 478.37,-1377.92 366.57,-1571.57"/>
<polygon fill="black" stroke="black" stroke-width="1.26" points="363.51,-1569.87 361.54,-1580.28 369.57,-1573.37 363.51,-1569.87"/>
<text text-anchor="middle" x="719.34" y="-807.59" font-family="Times,serif" font-size="14.00">dirty&#45;water&#45;barrel*10351</text>
</g>
<!-- &#45;1,10 (Iron Plates)&#45;&gt;5,2 (Raw Fiber) -->
<g id="edge9" class="edge">
<title>&#45;1,10 (Iron Plates)&#45;&gt;5,2 (Raw Fiber)</title>
<path fill="none" stroke="black" stroke-width="0.84" d="M1263.52,-36.22C1263.52,-227.27 1263.52,-1861.51 1263.52,-2096.96"/>
<polygon fill="black" stroke="black" stroke-width="0.84" points="1260.02,-2097.1 1263.52,-2107.1 1267.02,-2097.1 1260.02,-2097.1"/>
<text text-anchor="middle" x="1177.52" y="-1055.39" font-family="Times,serif" font-size="14.00">dirty&#45;water&#45;barrel*6956</text>
</g>
<!-- &#45;1,10 (Iron Plates)&#45;&gt;&#45;2,&#45;3 (Trains) -->
<g id="edge11" class="edge">
<title>&#45;1,10 (Iron Plates)&#45;&gt;&#45;2,&#45;3 (Trains)</title>
<path fill="none" stroke="black" stroke-width="0.33" d="M1293.36,-35.23C1429.04,-113.56 1987.61,-436.05 2138.33,-523.07"/>
<polygon fill="black" stroke="black" stroke-width="0.33" points="2136.84,-526.26 2147.25,-528.22 2140.34,-520.19 2136.84,-526.26"/>
<text text-anchor="middle" x="1629.84" y="-282.95" font-family="Times,serif" font-size="14.00">dirty&#45;water&#45;barrel*2720</text>
</g>
<!-- 3,5 (item=molybdenum&#45;plate Molybdenum plate) -->
<g id="node11" class="node">
<title>3,5 (item=molybdenum&#45;plate Molybdenum plate)</title>
<ellipse fill="none" stroke="black" cx="736.73" cy="-159.15" rx="239.66" ry="18"/>
<text text-anchor="middle" x="736.73" y="-155.45" font-family="Times,serif" font-size="14.00">3,5 (item=molybdenum&#45;plate Molybdenum plate)</text>
</g>
<!-- 3,5 (item=molybdenum&#45;plate Molybdenum plate)&#45;&gt;4,3 (item=nexelit&#45;plate Nexelit platery) -->
<g id="edge22" class="edge">
<title>3,5 (item=molybdenum&#45;plate Molybdenum plate)&#45;&gt;4,3 (item=nexelit&#45;plate Nexelit platery)</title>
<path fill="none" stroke="black" stroke-width="1.19" d="M718.64,-177.24C656.14,-239.74 449.12,-446.76 376.52,-519.36"/>
<polygon fill="black" stroke="black" stroke-width="1.19" points="373.73,-517.2 369.13,-526.75 378.68,-522.15 373.73,-517.2"/>
<text text-anchor="middle" x="461.58" y="-352.1" font-family="Times,serif" font-size="14.00">dirty&#45;water&#45;barrel*9808</text>
</g>
<!-- 3,5 (item=molybdenum&#45;plate Molybdenum plate)&#45;&gt;4,10 (Fluid Recycling) -->
<g id="edge23" class="edge">
<title>3,5 (item=molybdenum&#45;plate Molybdenum plate)&#45;&gt;4,10 (Fluid Recycling)</title>
<path fill="none" stroke="black" stroke-width="0.41" d="M731.85,-177.35C691.18,-329.13 408.59,-1383.77 358.63,-1570.24"/>
<polygon fill="black" stroke="black" stroke-width="0.41" points="355.19,-1569.54 355.98,-1580.11 361.95,-1571.35 355.19,-1569.54"/>
<text text-anchor="middle" x="459.24" y="-877.6" font-family="Times,serif" font-size="14.00">dirty&#45;water&#45;barrel*3344</text>
</g>
<!-- 3,5 (item=molybdenum&#45;plate Molybdenum plate)&#45;&gt;5,2 (Raw Fiber) -->
<g id="edge25" class="edge">
<title>3,5 (item=molybdenum&#45;plate Molybdenum plate)&#45;&gt;5,2 (Raw Fiber)</title>
<path fill="none" stroke="black" stroke-width="0.26" d="M741.6,-177.36C790.74,-360.75 1195.76,-1872.29 1256.03,-2097.23"/>
<polygon fill="black" stroke="black" stroke-width="0.26" points="1252.67,-2098.21 1258.64,-2106.96 1259.43,-2096.39 1252.67,-2098.21"/>
<text text-anchor="middle" x="912.82" y="-1141.1" font-family="Times,serif" font-size="14.00">dirty&#45;water&#45;barrel*2176</text>
</g>
<!-- 3,5 (item=molybdenum&#45;plate Molybdenum plate)&#45;&gt;&#45;2,&#45;3 (Trains) -->
<g id="edge24" class="edge">
<title>3,5 (item=molybdenum&#45;plate Molybdenum plate)&#45;&gt;&#45;2,&#45;3 (Trains)</title>
<path fill="none" stroke="black" stroke-width="0.2" d="M801.83,-176.6C1043.53,-241.36 1887.2,-467.42 2117.49,-529.13"/>
<polygon fill="black" stroke="black" stroke-width="0.2" points="2116.79,-532.56 2127.35,-531.77 2118.6,-525.8 2116.79,-532.56"/>
<text text-anchor="middle" x="1373.66" y="-356.66" font-family="Times,serif" font-size="14.00">dirty&#45;water&#45;barrel*1648</text>
</g>
<!-- &#45;3,&#45;1 (item=boron&#45;trioxide Boron products) -->
<g id="node12" class="node">
<title>&#45;3,&#45;1 (item=boron&#45;trioxide Boron products)</title>
<ellipse fill="none" stroke="black" cx="209.93" cy="-1071.59" rx="209.86" ry="18"/>
<text text-anchor="middle" x="209.93" y="-1067.89" font-family="Times,serif" font-size="14.00">&#45;3,&#45;1 (item=boron&#45;trioxide Boron products)</text>
</g>
<!-- &#45;3,&#45;1 (item=boron&#45;trioxide Boron products)&#45;&gt;4,3 (item=nexelit&#45;plate Nexelit platery) -->
<g id="edge26" class="edge">
<title>&#45;3,&#45;1 (item=boron&#45;trioxide Boron products)&#45;&gt;4,3 (item=nexelit&#45;plate Nexelit platery)</title>
<path fill="none" stroke="black" stroke-width="0.73" d="M214.79,-1053.45C235.72,-975.33 318.29,-667.18 343.64,-572.57"/>
<polygon fill="black" stroke="black" stroke-width="0.73" points="347.04,-573.42 346.25,-562.85 340.28,-571.6 347.04,-573.42"/>
<text text-anchor="middle" x="193.22" y="-816.81" font-family="Times,serif" font-size="14.00">dirty&#45;water&#45;barrel*6000</text>
</g>
<!-- &#45;3,&#45;1 (item=boron&#45;trioxide Boron products)&#45;&gt;4,10 (Fluid Recycling) -->
<g id="edge28" class="edge">
<title>&#45;3,&#45;1 (item=boron&#45;trioxide Boron products)&#45;&gt;4,10 (Fluid Recycling)</title>
<path fill="none" stroke="black" stroke-width="0.21" d="M214.79,-1089.72C235.72,-1167.85 318.29,-1476 343.64,-1570.61"/>
<polygon fill="black" stroke="black" stroke-width="0.21" points="340.28,-1571.57 346.25,-1580.32 347.04,-1569.76 340.28,-1571.57"/>
<text text-anchor="middle" x="193.22" y="-1333.97" font-family="Times,serif" font-size="14.00">dirty&#45;water&#45;barrel*1744</text>
</g>
<!-- &#45;3,&#45;1 (item=boron&#45;trioxide Boron products)&#45;&gt;5,2 (Raw Fiber) -->
<g id="edge27" class="edge">
<title>&#45;3,&#45;1 (item=boron&#45;trioxide Boron products)&#45;&gt;5,2 (Raw Fiber)</title>
<path fill="none" stroke="black" stroke-width="0.31" d="M228.22,-1089.88C354.12,-1215.78 1091.85,-1953.51 1238.27,-2099.92"/>
<polygon fill="black" stroke="black" stroke-width="0.31" points="1236,-2102.61 1245.55,-2107.21 1240.95,-2097.66 1236,-2102.61"/>
<text text-anchor="middle" x="647.24" y="-1598.7" font-family="Times,serif" font-size="14.00">dirty&#45;water&#45;barrel*2520</text>
</g>
</g>
</svg>
