<?xml version="1.0" encoding="UTF-8" standalone="no"?>
<!DOCTYPE svg PUBLIC "-//W3C//DTD SVG 1.1//EN"
 "http://www.w3.org/Graphics/SVG/1.1/DTD/svg11.dtd">
<!-- Generated by graphviz version 2.43.0 (0)
 -->
<!-- Title: %3 Pages: 1 -->
<svg width="682pt" height="586pt"
 viewBox="0.00 0.00 682.31 586.00" xmlns="http://www.w3.org/2000/svg" xmlns:xlink="http://www.w3.org/1999/xlink">
<g id="graph0" class="graph" transform="scale(1 1) rotate(0) translate(4 582)">
<title>%3</title>
<polygon fill="white" stroke="transparent" points="-4,4 -4,-582 678.31,-582 678.31,4 -4,4"/>
<!-- &#45;4,&#45;4 (Aluminium) -->
<g id="node1" class="node">
<title>&#45;4,&#45;4 (Aluminium)</title>
<ellipse fill="none" stroke="black" cx="298.14" cy="-279.44" rx="90.98" ry="18"/>
<text text-anchor="middle" x="298.14" y="-275.74" font-family="Times,serif" font-size="14.00">&#45;4,&#45;4 (Aluminium)</text>
</g>
<!-- 0,0 (LE BUS) -->
<g id="node2" class="node">
<title>0,0 (LE BUS)</title>
<ellipse fill="none" stroke="black" cx="602.82" cy="-279.44" rx="71.49" ry="18"/>
<text text-anchor="middle" x="602.82" y="-275.74" font-family="Times,serif" font-size="14.00">0,0 (LE BUS)</text>
</g>
<!-- &#45;4,&#45;4 (Aluminium)&#45;&gt;0,0 (LE BUS) -->
<g id="edge1" class="edge">
<title>&#45;4,&#45;4 (Aluminium)&#45;&gt;0,0 (LE BUS)</title>
<path fill="none" stroke="black" stroke-width="1.77" d="M389.14,-279.44C431,-279.44 480.29,-279.44 520.97,-279.44"/>
<polygon fill="black" stroke="black" stroke-width="1.77" points="521.12,-282.94 531.12,-279.44 521.12,-275.94 521.12,-282.94"/>
<text text-anchor="middle" x="455.06" y="-268.24" font-family="Times,serif" font-size="14.00">aluminium&#45;plate*91552</text>
</g>
<!-- &#45;1,&#45;2 (Aramid fiber) -->
<g id="node3" class="node">
<title>&#45;1,&#45;2 (Aramid fiber)</title>
<ellipse fill="none" stroke="black" cx="179.32" cy="-560" rx="99.38" ry="18"/>
<text text-anchor="middle" x="179.32" y="-556.3" font-family="Times,serif" font-size="14.00">&#45;1,&#45;2 (Aramid fiber)</text>
</g>
<!-- &#45;4,&#45;4 (Aluminium)&#45;&gt;&#45;1,&#45;2 (Aramid fiber) -->
<g id="edge2" class="edge">
<title>&#45;4,&#45;4 (Aluminium)&#45;&gt;&#45;1,&#45;2 (Aramid fiber)</title>
<path fill="none" stroke="black" stroke-width="0.17" d="M290.52,-297.42C270.33,-345.11 215.28,-475.09 191.05,-532.33"/>
<polygon fill="black" stroke="black" stroke-width="0.17" points="187.7,-531.24 187.03,-541.81 194.15,-533.97 187.7,-531.24"/>
<text text-anchor="middle" x="160.78" y="-418.67" font-family="Times,serif" font-size="14.00">aluminium&#45;plate*8656</text>
</g>
<!-- 6,4 (Electronic components) -->
<g id="node4" class="node">
<title>6,4 (Electronic components)</title>
<ellipse fill="none" stroke="black" cx="141.69" cy="-18" rx="141.88" ry="18"/>
<text text-anchor="middle" x="141.69" y="-14.3" font-family="Times,serif" font-size="14.00">6,4 (Electronic components)</text>
</g>
<!-- &#45;4,&#45;4 (Aluminium)&#45;&gt;6,4 (Electronic components) -->
<g id="edge3" class="edge">
<title>&#45;4,&#45;4 (Aluminium)&#45;&gt;6,4 (Electronic components)</title>
<path fill="none" stroke="black" stroke-width="1.06" d="M287.38,-261.47C260.42,-216.42 189.82,-98.43 157.84,-44.99"/>
<polygon fill="black" stroke="black" stroke-width="1.06" points="160.65,-42.88 152.52,-36.1 154.65,-46.47 160.65,-42.88"/>
<text text-anchor="middle" x="138.11" y="-157.03" font-family="Times,serif" font-size="14.00">aluminium&#45;plate*54768</text>
</g>
</g>
</svg>
