<?xml version="1.0" encoding="UTF-8" standalone="no"?>
<!DOCTYPE svg PUBLIC "-//W3C//DTD SVG 1.1//EN"
 "http://www.w3.org/Graphics/SVG/1.1/DTD/svg11.dtd">
<!-- Generated by graphviz version 2.43.0 (0)
 -->
<!-- Title: %3 Pages: 1 -->
<svg width="1217pt" height="44pt"
 viewBox="0.00 0.00 1217.37 44.00" xmlns="http://www.w3.org/2000/svg" xmlns:xlink="http://www.w3.org/1999/xlink">
<g id="graph0" class="graph" transform="scale(1 1) rotate(0) translate(4 40)">
<title>%3</title>
<polygon fill="white" stroke="transparent" points="-4,4 -4,-40 1213.37,-40 1213.37,4 -4,4"/>
<!-- 9,0 (Iron / Nickel mine) -->
<g id="node1" class="node">
<title>9,0 (Iron / Nickel mine)</title>
<ellipse fill="none" stroke="black" cx="632.76" cy="-18" rx="118.08" ry="18"/>
<text text-anchor="middle" x="632.76" y="-14.3" font-family="Times,serif" font-size="14.00">9,0 (Iron / Nickel mine)</text>
</g>
<!-- 2,10 (Nickel plate and Nichrome) -->
<g id="node2" class="node">
<title>2,10 (Nickel plate and Nichrome)</title>
<ellipse fill="none" stroke="black" cx="1044.28" cy="-18" rx="165.17" ry="18"/>
<text text-anchor="middle" x="1044.28" y="-14.3" font-family="Times,serif" font-size="14.00">2,10 (Nickel plate and Nichrome)</text>
</g>
<!-- 9,0 (Iron / Nickel mine)&#45;&gt;2,10 (Nickel plate and Nichrome) -->
<g id="edge1" class="edge">
<title>9,0 (Iron / Nickel mine)&#45;&gt;2,10 (Nickel plate and Nichrome)</title>
<path fill="none" stroke="black" stroke-width="2.61" d="M751.23,-18C787.9,-18 829.1,-18 868.77,-18"/>
<polygon fill="black" stroke="black" stroke-width="2.61" points="868.82,-21.5 878.82,-18 868.82,-14.5 868.82,-21.5"/>
<text text-anchor="middle" x="810" y="-6.8" font-family="Times,serif" font-size="14.00">ore&#45;nickel*782880</text>
</g>
<!-- 4,11 (Cobalt Extract) -->
<g id="node3" class="node">
<title>4,11 (Cobalt Extract)</title>
<ellipse fill="none" stroke="black" cx="333.93" cy="-18" rx="108.58" ry="18"/>
<text text-anchor="middle" x="333.93" y="-14.3" font-family="Times,serif" font-size="14.00">4,11 (Cobalt Extract)</text>
</g>
<!-- 9,0 (Iron / Nickel mine)&#45;&gt;4,11 (Cobalt Extract) -->
<g id="edge2" class="edge">
<title>9,0 (Iron / Nickel mine)&#45;&gt;4,11 (Cobalt Extract)</title>
<path fill="none" stroke="black" stroke-width="0.37" d="M514.22,-18C494.01,-18 473.01,-18 452.79,-18"/>
<polygon fill="black" stroke="black" stroke-width="0.37" points="452.61,-14.5 442.61,-18 452.61,-21.5 452.61,-14.5"/>
<text text-anchor="middle" x="450.75" y="-6.8" font-family="Times,serif" font-size="14.00">ore&#45;nickel*112080</text>
</g>
<!-- 4,&#45;2 (Ceramic) -->
<g id="node4" class="node">
<title>4,&#45;2 (Ceramic)</title>
<ellipse fill="none" stroke="black" cx="76.69" cy="-18" rx="76.89" ry="18"/>
<text text-anchor="middle" x="76.69" y="-14.3" font-family="Times,serif" font-size="14.00">4,&#45;2 (Ceramic)</text>
</g>
<!-- 4,&#45;2 (Ceramic)&#45;&gt;4,11 (Cobalt Extract) -->
<g id="edge3" class="edge">
<title>4,&#45;2 (Ceramic)&#45;&gt;4,11 (Cobalt Extract)</title>
<path fill="none" stroke="black" stroke-width="0.02" d="M153.52,-18C172.86,-18 194.07,-18 214.95,-18"/>
<polygon fill="black" stroke="black" stroke-width="0.02" points="215.16,-21.5 225.16,-18 215.16,-14.5 215.16,-21.5"/>
<text text-anchor="middle" x="184.24" y="-6.8" font-family="Times,serif" font-size="14.00">ore&#45;nickel*5168</text>
</g>
</g>
</svg>
