<?xml version="1.0" encoding="UTF-8" standalone="no"?>
<!DOCTYPE svg PUBLIC "-//W3C//DTD SVG 1.1//EN"
 "http://www.w3.org/Graphics/SVG/1.1/DTD/svg11.dtd">
<!-- Generated by graphviz version 2.43.0 (0)
 -->
<!-- Title: %3 Pages: 1 -->
<svg width="912pt" height="749pt"
 viewBox="0.00 0.00 911.93 748.61" xmlns="http://www.w3.org/2000/svg" xmlns:xlink="http://www.w3.org/1999/xlink">
<g id="graph0" class="graph" transform="scale(1 1) rotate(0) translate(4 744.61)">
<title>%3</title>
<polygon fill="white" stroke="transparent" points="-4,4 -4,-744.61 907.93,-744.61 907.93,4 -4,4"/>
<!-- 4,&#45;2 (Ceramic) -->
<g id="node1" class="node">
<title>4,&#45;2 (Ceramic)</title>
<ellipse fill="none" stroke="black" cx="443.26" cy="-390.45" rx="76.89" ry="18"/>
<text text-anchor="middle" x="443.26" y="-386.75" font-family="Times,serif" font-size="14.00">4,&#45;2 (Ceramic)</text>
</g>
<!-- 0,0 (LE BUS) -->
<g id="node2" class="node">
<title>0,0 (LE BUS)</title>
<ellipse fill="none" stroke="black" cx="832.43" cy="-390.45" rx="71.49" ry="18"/>
<text text-anchor="middle" x="832.43" y="-386.75" font-family="Times,serif" font-size="14.00">0,0 (LE BUS)</text>
</g>
<!-- 4,&#45;2 (Ceramic)&#45;&gt;0,0 (LE BUS) -->
<g id="edge1" class="edge">
<title>4,&#45;2 (Ceramic)&#45;&gt;0,0 (LE BUS)</title>
<path fill="none" stroke="black" stroke-width="0.56" d="M520.15,-390.45C586.62,-390.45 682.46,-390.45 750.39,-390.45"/>
<polygon fill="black" stroke="black" stroke-width="0.56" points="750.63,-393.95 760.63,-390.45 750.63,-386.95 750.63,-393.95"/>
<text text-anchor="middle" x="583.77" y="-394.25" font-family="Times,serif" font-size="14.00">cermet*14896</text>
</g>
<!-- 3,3 (Random electronic components, Small Parts) -->
<g id="node3" class="node">
<title>3,3 (Random electronic components, Small Parts)</title>
<ellipse fill="none" stroke="black" cx="240.48" cy="-722.61" rx="240.46" ry="18"/>
<text text-anchor="middle" x="240.48" y="-718.91" font-family="Times,serif" font-size="14.00">3,3 (Random electronic components, Small Parts)</text>
</g>
<!-- 4,&#45;2 (Ceramic)&#45;&gt;3,3 (Random electronic components, Small Parts) -->
<g id="edge2" class="edge">
<title>4,&#45;2 (Ceramic)&#45;&gt;3,3 (Random electronic components, Small Parts)</title>
<path fill="none" stroke="black" stroke-width="1.89" d="M432.36,-408.3C398.81,-463.26 296.97,-630.08 256.91,-695.69"/>
<polygon fill="black" stroke="black" stroke-width="1.89" points="253.91,-693.9 251.68,-704.26 259.88,-697.55 253.91,-693.9"/>
<text text-anchor="middle" x="293.14" y="-555.8" font-family="Times,serif" font-size="14.00">cermet*50000</text>
</g>
<!-- 6,4 (Electronic components) -->
<g id="node4" class="node">
<title>6,4 (Electronic components)</title>
<ellipse fill="none" stroke="black" cx="330.39" cy="-18" rx="141.88" ry="18"/>
<text text-anchor="middle" x="330.39" y="-14.3" font-family="Times,serif" font-size="14.00">6,4 (Electronic components)</text>
</g>
<!-- 4,&#45;2 (Ceramic)&#45;&gt;6,4 (Electronic components) -->
<g id="edge3" class="edge">
<title>4,&#45;2 (Ceramic)&#45;&gt;6,4 (Electronic components)</title>
<path fill="none" stroke="black" stroke-width="0.54" d="M437.82,-372.48C419.64,-312.51 360.97,-118.9 338.9,-46.06"/>
<polygon fill="black" stroke="black" stroke-width="0.54" points="342.17,-44.78 335.92,-36.22 335.47,-46.81 342.17,-44.78"/>
<text text-anchor="middle" x="336.86" y="-213.07" font-family="Times,serif" font-size="14.00">cermet*14320</text>
</g>
</g>
</svg>
