<?xml version="1.0" encoding="UTF-8" standalone="no"?>
<!DOCTYPE svg PUBLIC "-//W3C//DTD SVG 1.1//EN"
 "http://www.w3.org/Graphics/SVG/1.1/DTD/svg11.dtd">
<!-- Generated by graphviz version 2.43.0 (0)
 -->
<!-- Title: %3 Pages: 1 -->
<svg width="647pt" height="287pt"
 viewBox="0.00 0.00 646.84 287.37" xmlns="http://www.w3.org/2000/svg" xmlns:xlink="http://www.w3.org/1999/xlink">
<g id="graph0" class="graph" transform="scale(1 1) rotate(0) translate(4 283.37)">
<title>%3</title>
<polygon fill="white" stroke="transparent" points="-4,4 -4,-283.37 642.84,-283.37 642.84,4 -4,4"/>
<!-- 4,2 (More fiberboard) -->
<g id="node1" class="node">
<title>4,2 (More fiberboard)</title>
<ellipse fill="none" stroke="black" cx="152" cy="-261.37" rx="111.28" ry="18"/>
<text text-anchor="middle" x="152" y="-257.67" font-family="Times,serif" font-size="14.00">4,2 (More fiberboard)</text>
</g>
<!-- 0,0 (LE BUS) -->
<g id="node2" class="node">
<title>0,0 (LE BUS)</title>
<ellipse fill="none" stroke="black" cx="362.76" cy="-139.68" rx="71.49" ry="18"/>
<text text-anchor="middle" x="362.76" y="-135.98" font-family="Times,serif" font-size="14.00">0,0 (LE BUS)</text>
</g>
<!-- 4,2 (More fiberboard)&#45;&gt;0,0 (LE BUS) -->
<g id="edge1" class="edge">
<title>4,2 (More fiberboard)&#45;&gt;0,0 (LE BUS)</title>
<path fill="none" stroke="black" stroke-width="2.27" d="M182.2,-243.93C219.87,-222.18 284.29,-184.99 325.13,-161.41"/>
<polygon fill="black" stroke="black" stroke-width="2.27" points="327.06,-164.34 333.97,-156.3 323.56,-158.27 327.06,-164.34"/>
<text text-anchor="middle" x="173.17" y="-206.47" font-family="Times,serif" font-size="14.00">creosote&#45;barrel*16780</text>
</g>
<!-- 5,&#45;2 (Lubricant) -->
<g id="node4" class="node">
<title>5,&#45;2 (Lubricant)</title>
<ellipse fill="none" stroke="black" cx="152" cy="-18" rx="83.39" ry="18"/>
<text text-anchor="middle" x="152" y="-14.3" font-family="Times,serif" font-size="14.00">5,&#45;2 (Lubricant)</text>
</g>
<!-- 4,2 (More fiberboard)&#45;&gt;5,&#45;2 (Lubricant) -->
<g id="edge4" class="edge">
<title>4,2 (More fiberboard)&#45;&gt;5,&#45;2 (Lubricant)</title>
<path fill="none" stroke="black" stroke-width="0.55" d="M152,-243.08C152,-200.95 152,-96.87 152,-46.38"/>
<polygon fill="black" stroke="black" stroke-width="0.55" points="155.5,-46.17 152,-36.17 148.5,-46.17 155.5,-46.17"/>
<text text-anchor="middle" x="76" y="-148.53" font-family="Times,serif" font-size="14.00">creosote&#45;barrel*4060</text>
</g>
<!-- 4,12 (Molten Glass) -->
<g id="node3" class="node">
<title>4,12 (Molten Glass)</title>
<ellipse fill="none" stroke="black" cx="536.8" cy="-139.68" rx="102.08" ry="18"/>
<text text-anchor="middle" x="536.8" y="-135.98" font-family="Times,serif" font-size="14.00">4,12 (Molten Glass)</text>
</g>
<!-- 0,0 (LE BUS)&#45;&gt;4,12 (Molten Glass) -->
<g id="edge2" class="edge">
<title>0,0 (LE BUS)&#45;&gt;4,12 (Molten Glass)</title>
<path fill="none" stroke="black" stroke-width="0.14" d="M434.31,-139.68C434.35,-139.68 434.4,-139.68 434.45,-139.68"/>
<polygon fill="black" stroke="black" stroke-width="0.14" points="424.59,-143.19 434.59,-139.68 424.58,-136.19 424.59,-143.19"/>
<text text-anchor="middle" x="358.38" y="-143.48" font-family="Times,serif" font-size="14.00">creosote&#45;barrel*1000</text>
</g>
<!-- 0,0 (LE BUS)&#45;&gt;5,&#45;2 (Lubricant) -->
<g id="edge3" class="edge">
<title>0,0 (LE BUS)&#45;&gt;5,&#45;2 (Lubricant)</title>
<path fill="none" stroke="black" stroke-width="1.04" d="M333.9,-123.02C296.61,-101.49 231.6,-63.96 190.23,-40.07"/>
<polygon fill="black" stroke="black" stroke-width="1.04" points="191.94,-37.02 181.53,-35.05 188.44,-43.08 191.94,-37.02"/>
<text text-anchor="middle" x="186.07" y="-85.35" font-family="Times,serif" font-size="14.00">creosote&#45;barrel*7672</text>
</g>
</g>
</svg>
