<?xml version="1.0" encoding="UTF-8" standalone="no"?>
<!DOCTYPE svg PUBLIC "-//W3C//DTD SVG 1.1//EN"
 "http://www.w3.org/Graphics/SVG/1.1/DTD/svg11.dtd">
<!-- Generated by graphviz version 2.43.0 (0)
 -->
<!-- Title: %3 Pages: 1 -->
<svg width="968pt" height="745pt"
 viewBox="0.00 0.00 967.68 745.31" xmlns="http://www.w3.org/2000/svg" xmlns:xlink="http://www.w3.org/1999/xlink">
<g id="graph0" class="graph" transform="scale(1 1) rotate(0) translate(4 741.31)">
<title>%3</title>
<polygon fill="white" stroke="transparent" points="-4,4 -4,-741.31 963.68,-741.31 963.68,4 -4,4"/>
<!-- 3,&#45;1 (Nitrogen, Oxygen) -->
<g id="node1" class="node">
<title>3,&#45;1 (Nitrogen, Oxygen)</title>
<ellipse fill="none" stroke="black" cx="512.01" cy="-368.72" rx="120.48" ry="18"/>
<text text-anchor="middle" x="512.01" y="-365.02" font-family="Times,serif" font-size="14.00">3,&#45;1 (Nitrogen, Oxygen)</text>
</g>
<!-- 1,12 (Molten Iron) -->
<g id="node2" class="node">
<title>1,12 (Molten Iron)</title>
<ellipse fill="none" stroke="black" cx="864.13" cy="-368.72" rx="95.58" ry="18"/>
<text text-anchor="middle" x="864.13" y="-365.02" font-family="Times,serif" font-size="14.00">1,12 (Molten Iron)</text>
</g>
<!-- 3,&#45;1 (Nitrogen, Oxygen)&#45;&gt;1,12 (Molten Iron) -->
<g id="edge1" class="edge">
<title>3,&#45;1 (Nitrogen, Oxygen)&#45;&gt;1,12 (Molten Iron)</title>
<path fill="none" stroke="black" stroke-width="1.6" d="M632.7,-368.72C673.45,-368.72 718.6,-368.72 758.13,-368.72"/>
<polygon fill="black" stroke="black" stroke-width="1.6" points="758.32,-372.22 768.32,-368.72 758.32,-365.22 758.32,-372.22"/>
<text text-anchor="middle" x="695.41" y="-357.52" font-family="Times,serif" font-size="14.00">oxygen&#45;barrel*12068</text>
</g>
<!-- &#45;2,9 (molten steel) -->
<g id="node3" class="node">
<title>&#45;2,9 (molten steel)</title>
<ellipse fill="none" stroke="black" cx="544.78" cy="-719.31" rx="95.58" ry="18"/>
<text text-anchor="middle" x="544.78" y="-715.61" font-family="Times,serif" font-size="14.00">&#45;2,9 (molten steel)</text>
</g>
<!-- 3,&#45;1 (Nitrogen, Oxygen)&#45;&gt;&#45;2,9 (molten steel) -->
<g id="edge2" class="edge">
<title>3,&#45;1 (Nitrogen, Oxygen)&#45;&gt;&#45;2,9 (molten steel)</title>
<path fill="none" stroke="black" stroke-width="1.82" d="M513.72,-387.07C519.1,-444.58 535.64,-621.54 542.13,-690.96"/>
<polygon fill="black" stroke="black" stroke-width="1.82" points="538.67,-691.51 543.08,-701.14 545.64,-690.86 538.67,-691.51"/>
<text text-anchor="middle" x="452.43" y="-542.81" font-family="Times,serif" font-size="14.00">oxygen&#45;barrel*13722</text>
</g>
<!-- 2,&#45;2 (Tin Plate, Organic Solvent) -->
<g id="node4" class="node">
<title>2,&#45;2 (Tin Plate, Organic Solvent)</title>
<ellipse fill="none" stroke="black" cx="159.89" cy="-370.02" rx="159.77" ry="18"/>
<text text-anchor="middle" x="159.89" y="-366.32" font-family="Times,serif" font-size="14.00">2,&#45;2 (Tin Plate, Organic Solvent)</text>
</g>
<!-- 3,&#45;1 (Nitrogen, Oxygen)&#45;&gt;2,&#45;2 (Tin Plate, Organic Solvent) -->
<g id="edge3" class="edge">
<title>3,&#45;1 (Nitrogen, Oxygen)&#45;&gt;2,&#45;2 (Tin Plate, Organic Solvent)</title>
<path fill="none" stroke="black" stroke-width="0.19" d="M391.32,-369.16C371.56,-369.23 350.76,-369.31 330.07,-369.39"/>
<polygon fill="black" stroke="black" stroke-width="0.19" points="329.92,-365.89 319.93,-369.42 329.94,-372.89 329.92,-365.89"/>
<text text-anchor="middle" x="325.2" y="-358.07" font-family="Times,serif" font-size="14.00">oxygen&#45;barrel*1429</text>
</g>
<!-- 2,10 (Nickel plate) -->
<g id="node5" class="node">
<title>2,10 (Nickel plate)</title>
<ellipse fill="none" stroke="black" cx="543.49" cy="-18" rx="96.68" ry="18"/>
<text text-anchor="middle" x="543.49" y="-14.3" font-family="Times,serif" font-size="14.00">2,10 (Nickel plate)</text>
</g>
<!-- 3,&#45;1 (Nitrogen, Oxygen)&#45;&gt;2,10 (Nickel plate) -->
<g id="edge4" class="edge">
<title>3,&#45;1 (Nitrogen, Oxygen)&#45;&gt;2,10 (Nickel plate)</title>
<path fill="none" stroke="black" stroke-width="0.39" d="M513.66,-350.35C518.82,-292.83 534.71,-115.8 540.94,-46.37"/>
<polygon fill="black" stroke="black" stroke-width="0.39" points="544.45,-46.45 541.86,-36.18 537.48,-45.83 544.45,-46.45"/>
<text text-anchor="middle" x="456.3" y="-202.16" font-family="Times,serif" font-size="14.00">oxygen&#45;barrel*2946</text>
</g>
</g>
</svg>
