<?xml version="1.0" encoding="UTF-8" standalone="no"?>
<!DOCTYPE svg PUBLIC "-//W3C//DTD SVG 1.1//EN"
 "http://www.w3.org/Graphics/SVG/1.1/DTD/svg11.dtd">
<!-- Generated by graphviz version 2.43.0 (0)
 -->
<!-- Title: %3 Pages: 1 -->
<svg width="1275pt" height="44pt"
 viewBox="0.00 0.00 1275.10 44.00" xmlns="http://www.w3.org/2000/svg" xmlns:xlink="http://www.w3.org/1999/xlink">
<g id="graph0" class="graph" transform="scale(1 1) rotate(0) translate(4 40)">
<title>%3</title>
<polygon fill="white" stroke="transparent" points="-4,4 -4,-40 1271.1,-40 1271.1,4 -4,4"/>
<!-- 7,&#45;2 (item=guts Auog guts) -->
<g id="node1" class="node">
<title>7,&#45;2 (item=guts Auog guts)</title>
<ellipse fill="none" stroke="black" cx="137.14" cy="-18" rx="137.28" ry="18"/>
<text text-anchor="middle" x="137.14" y="-14.3" font-family="Times,serif" font-size="14.00">7,&#45;2 (item=guts Auog guts)</text>
</g>
<!-- &#45;4,&#45;2 (For Science!) -->
<g id="node2" class="node">
<title>&#45;4,&#45;2 (For Science!)</title>
<ellipse fill="none" stroke="black" cx="445.07" cy="-18" rx="98.58" ry="18"/>
<text text-anchor="middle" x="445.07" y="-14.3" font-family="Times,serif" font-size="14.00">&#45;4,&#45;2 (For Science!)</text>
</g>
<!-- 7,&#45;2 (item=guts Auog guts)&#45;&gt;&#45;4,&#45;2 (For Science!) -->
<g id="edge1" class="edge">
<title>7,&#45;2 (item=guts Auog guts)&#45;&gt;&#45;4,&#45;2 (For Science!)</title>
<path fill="none" stroke="black" stroke-width="1.44" d="M274.44,-18C294.93,-18 315.81,-18 335.62,-18"/>
<polygon fill="black" stroke="black" stroke-width="1.44" points="335.87,-21.5 345.87,-18 335.87,-14.5 335.87,-21.5"/>
<text text-anchor="middle" x="305.03" y="-6.8" font-family="Times,serif" font-size="14.00">guts*61824</text>
</g>
<!-- &#45;1,6 (Flimble&#39;s Slaughterhouse and Daycare Centre, Auog Products) -->
<g id="node3" class="node">
<title>&#45;1,6 (Flimble&#39;s Slaughterhouse and Daycare Centre, Auog Products)</title>
<ellipse fill="none" stroke="black" cx="941.48" cy="-18" rx="325.74" ry="18"/>
<text text-anchor="middle" x="941.48" y="-14.3" font-family="Times,serif" font-size="14.00">&#45;1,6 (Flimble&#39;s Slaughterhouse and Daycare Centre, Auog Products)</text>
</g>
<!-- &#45;1,6 (Flimble&#39;s Slaughterhouse and Daycare Centre, Auog Products)&#45;&gt;&#45;4,&#45;2 (For Science!) -->
<g id="edge2" class="edge">
<title>&#45;1,6 (Flimble&#39;s Slaughterhouse and Daycare Centre, Auog Products)&#45;&gt;&#45;4,&#45;2 (For Science!)</title>
<path fill="none" stroke="black" stroke-width="0.56" d="M615.56,-18C594.06,-18 573.43,-18 554.4,-18"/>
<polygon fill="black" stroke="black" stroke-width="0.56" points="554.3,-14.5 544.3,-18 554.3,-21.5 554.3,-14.5"/>
<text text-anchor="middle" x="584.98" y="-6.8" font-family="Times,serif" font-size="14.00">guts*23968</text>
</g>
</g>
</svg>
