<?xml version="1.0" encoding="UTF-8" standalone="no"?>
<!DOCTYPE svg PUBLIC "-//W3C//DTD SVG 1.1//EN"
 "http://www.w3.org/Graphics/SVG/1.1/DTD/svg11.dtd">
<!-- Generated by graphviz version 2.43.0 (0)
 -->
<!-- Title: %3 Pages: 1 -->
<svg width="907pt" height="44pt"
 viewBox="0.00 0.00 907.23 44.00" xmlns="http://www.w3.org/2000/svg" xmlns:xlink="http://www.w3.org/1999/xlink">
<g id="graph0" class="graph" transform="scale(1 1) rotate(0) translate(4 40)">
<title>%3</title>
<polygon fill="white" stroke="transparent" points="-4,4 -4,-40 903.23,-40 903.23,4 -4,4"/>
<!-- &#45;2,5 (Rare Earth Oxides) -->
<g id="node1" class="node">
<title>&#45;2,5 (Rare Earth Oxides)</title>
<ellipse fill="none" stroke="black" cx="124.14" cy="-18" rx="124.28" ry="18"/>
<text text-anchor="middle" x="124.14" y="-14.3" font-family="Times,serif" font-size="14.00">&#45;2,5 (Rare Earth Oxides)</text>
</g>
<!-- 4,13 (Chromium processing) -->
<g id="node2" class="node">
<title>4,13 (Chromium processing)</title>
<ellipse fill="none" stroke="black" cx="463.27" cy="-18" rx="142.97" ry="18"/>
<text text-anchor="middle" x="463.27" y="-14.3" font-family="Times,serif" font-size="14.00">4,13 (Chromium processing)</text>
</g>
<!-- &#45;2,5 (Rare Earth Oxides)&#45;&gt;4,13 (Chromium processing) -->
<g id="edge1" class="edge">
<title>&#45;2,5 (Rare Earth Oxides)&#45;&gt;4,13 (Chromium processing)</title>
<path fill="none" stroke="black" stroke-width="0.11" d="M248.49,-18C268.55,-18 289.53,-18 310.17,-18"/>
<polygon fill="black" stroke="black" stroke-width="0.11" points="310.28,-21.5 320.28,-18 310.28,-14.5 310.28,-21.5"/>
<text text-anchor="middle" x="279.33" y="-6.8" font-family="Times,serif" font-size="14.00">chromite&#45;sand*15040</text>
</g>
<!-- &#45;6,&#45;3 (Chromite Sand) -->
<g id="node3" class="node">
<title>&#45;6,&#45;3 (Chromite Sand)</title>
<ellipse fill="none" stroke="black" cx="788.74" cy="-18" rx="110.48" ry="18"/>
<text text-anchor="middle" x="788.74" y="-14.3" font-family="Times,serif" font-size="14.00">&#45;6,&#45;3 (Chromite Sand)</text>
</g>
<!-- &#45;6,&#45;3 (Chromite Sand)&#45;&gt;4,13 (Chromium processing) -->
<g id="edge2" class="edge">
<title>&#45;6,&#45;3 (Chromite Sand)&#45;&gt;4,13 (Chromium processing)</title>
<path fill="none" stroke="black" stroke-width="1.89" d="M678.1,-18C658.3,-18 637.35,-18 616.61,-18"/>
<polygon fill="black" stroke="black" stroke-width="1.89" points="616.45,-14.5 606.45,-18 616.45,-21.5 616.45,-14.5"/>
<text text-anchor="middle" x="688.1" y="-6.8" font-family="Times,serif" font-size="14.00">chromite&#45;sand*260288</text>
</g>
</g>
</svg>
