<?xml version="1.0" encoding="UTF-8" standalone="no"?>
<!DOCTYPE svg PUBLIC "-//W3C//DTD SVG 1.1//EN"
 "http://www.w3.org/Graphics/SVG/1.1/DTD/svg11.dtd">
<!-- Generated by graphviz version 2.43.0 (0)
 -->
<!-- Title: %3 Pages: 1 -->
<svg width="1724pt" height="1426pt"
 viewBox="0.00 0.00 1724.43 1425.91" xmlns="http://www.w3.org/2000/svg" xmlns:xlink="http://www.w3.org/1999/xlink">
<g id="graph0" class="graph" transform="scale(1 1) rotate(0) translate(4 1421.91)">
<title>%3</title>
<polygon fill="white" stroke="transparent" points="-4,4 -4,-1421.91 1720.43,-1421.91 1720.43,4 -4,4"/>
<!-- &#45;4,2 (This line not currently using manure, Ralesia seeds) -->
<g id="node1" class="node">
<title>&#45;4,2 (This line not currently using manure, Ralesia seeds)</title>
<ellipse fill="none" stroke="black" cx="1362.5" cy="-154.85" rx="276.75" ry="18"/>
<text text-anchor="middle" x="1362.5" y="-151.15" font-family="Times,serif" font-size="14.00">&#45;4,2 (This line not currently using manure, Ralesia seeds)</text>
</g>
<!-- &#45;4,1 (item=ulric Ulrics) -->
<g id="node2" class="node">
<title>&#45;4,1 (item=ulric Ulrics)</title>
<ellipse fill="none" stroke="black" cx="762.91" cy="-18" rx="118.08" ry="18"/>
<text text-anchor="middle" x="762.91" y="-14.3" font-family="Times,serif" font-size="14.00">&#45;4,1 (item=ulric Ulrics)</text>
</g>
<!-- &#45;4,2 (This line not currently using manure, Ralesia seeds)&#45;&gt;&#45;4,1 (item=ulric Ulrics) -->
<g id="edge1" class="edge">
<title>&#45;4,2 (This line not currently using manure, Ralesia seeds)&#45;&gt;&#45;4,1 (item=ulric Ulrics)</title>
<path fill="none" stroke="black" stroke-width="2.15" d="M1286.56,-137.52C1171.28,-111.21 953.39,-61.48 838.38,-35.23"/>
<polygon fill="black" stroke="black" stroke-width="2.15" points="839.12,-31.81 828.59,-32.99 837.56,-38.63 839.12,-31.81"/>
<text text-anchor="middle" x="985.47" y="-90.17" font-family="Times,serif" font-size="14.00">ralesia&#45;seeds*104960</text>
</g>
<!-- 4,7 (Cottonguts) -->
<g id="node4" class="node">
<title>4,7 (Cottonguts)</title>
<ellipse fill="none" stroke="black" cx="1629.34" cy="-708.96" rx="87.18" ry="18"/>
<text text-anchor="middle" x="1629.34" y="-705.26" font-family="Times,serif" font-size="14.00">4,7 (Cottonguts)</text>
</g>
<!-- &#45;4,2 (This line not currently using manure, Ralesia seeds)&#45;&gt;4,7 (Cottonguts) -->
<g id="edge10" class="edge">
<title>&#45;4,2 (This line not currently using manure, Ralesia seeds)&#45;&gt;4,7 (Cottonguts)</title>
<path fill="none" stroke="black" stroke-width="0.1" d="M1371.22,-172.97C1410.3,-254.12 1569.34,-584.36 1616.25,-681.78"/>
<polygon fill="black" stroke="black" stroke-width="0.1" points="1613.19,-683.48 1620.68,-690.97 1619.49,-680.44 1613.19,-683.48"/>
<text text-anchor="middle" x="1425.74" y="-431.18" font-family="Times,serif" font-size="14.00">ralesia&#45;seeds*5024</text>
</g>
<!-- 5,&#45;1 (Drilling Fluid Type 2, I think my maths is backwards) -->
<g id="node5" class="node">
<title>5,&#45;1 (Drilling Fluid Type 2, I think my maths is backwards)</title>
<ellipse fill="none" stroke="black" cx="282.07" cy="-401.45" rx="282.15" ry="18"/>
<text text-anchor="middle" x="282.07" y="-397.75" font-family="Times,serif" font-size="14.00">5,&#45;1 (Drilling Fluid Type 2, I think my maths is backwards)</text>
</g>
<!-- &#45;4,2 (This line not currently using manure, Ralesia seeds)&#45;&gt;5,&#45;1 (Drilling Fluid Type 2, I think my maths is backwards) -->
<g id="edge7" class="edge">
<title>&#45;4,2 (This line not currently using manure, Ralesia seeds)&#45;&gt;5,&#45;1 (Drilling Fluid Type 2, I think my maths is backwards)</title>
<path fill="none" stroke="black" stroke-width="2.35" d="M1286.52,-172.19C1091.46,-216.71 573.93,-334.84 368.18,-381.8"/>
<polygon fill="black" stroke="black" stroke-width="2.35" points="367.3,-378.41 358.32,-384.05 368.85,-385.23 367.3,-378.41"/>
<text text-anchor="middle" x="750.35" y="-280.8" font-family="Times,serif" font-size="14.00">ralesia&#45;seeds*114448</text>
</g>
<!-- &#45;3,4 (Lard from Cottonguts) -->
<g id="node6" class="node">
<title>&#45;3,4 (Lard from Cottonguts)</title>
<ellipse fill="none" stroke="black" cx="282.07" cy="-1016.46" rx="139.18" ry="18"/>
<text text-anchor="middle" x="282.07" y="-1012.76" font-family="Times,serif" font-size="14.00">&#45;3,4 (Lard from Cottonguts)</text>
</g>
<!-- &#45;4,2 (This line not currently using manure, Ralesia seeds)&#45;&gt;&#45;3,4 (Lard from Cottonguts) -->
<g id="edge9" class="edge">
<title>&#45;4,2 (This line not currently using manure, Ralesia seeds)&#45;&gt;&#45;3,4 (Lard from Cottonguts)</title>
<path fill="none" stroke="black" stroke-width="0.21" d="M1339.93,-172.85C1201.8,-283.01 471.1,-865.72 312.48,-992.22"/>
<polygon fill="black" stroke="black" stroke-width="0.21" points="310.15,-989.59 304.52,-998.56 314.52,-995.06 310.15,-989.59"/>
<text text-anchor="middle" x="753.7" y="-586.33" font-family="Times,serif" font-size="14.00">ralesia&#45;seeds*10048</text>
</g>
<!-- 0,0 (LE BUS) -->
<g id="node7" class="node">
<title>0,0 (LE BUS)</title>
<ellipse fill="none" stroke="black" cx="762.91" cy="-1399.91" rx="71.49" ry="18"/>
<text text-anchor="middle" x="762.91" y="-1396.21" font-family="Times,serif" font-size="14.00">0,0 (LE BUS)</text>
</g>
<!-- &#45;4,2 (This line not currently using manure, Ralesia seeds)&#45;&gt;0,0 (LE BUS) -->
<g id="edge8" class="edge">
<title>&#45;4,2 (This line not currently using manure, Ralesia seeds)&#45;&gt;0,0 (LE BUS)</title>
<path fill="none" stroke="black" stroke-width="0.29" d="M1353.79,-172.93C1287.07,-311.47 857.33,-1203.85 776.13,-1372.45"/>
<polygon fill="black" stroke="black" stroke-width="0.29" points="772.89,-1371.12 771.7,-1381.65 779.19,-1374.16 772.89,-1371.12"/>
<text text-anchor="middle" x="992.46" y="-776.49" font-family="Times,serif" font-size="14.00">ralesia&#45;seeds*14288</text>
</g>
<!-- 11,6 (Ralesia 2) -->
<g id="node3" class="node">
<title>11,6 (Ralesia 2)</title>
<ellipse fill="none" stroke="black" cx="1362.5" cy="-1263.06" rx="83.39" ry="18"/>
<text text-anchor="middle" x="1362.5" y="-1259.36" font-family="Times,serif" font-size="14.00">11,6 (Ralesia 2)</text>
</g>
<!-- 11,6 (Ralesia 2)&#45;&gt;&#45;4,1 (item=ulric Ulrics) -->
<g id="edge6" class="edge">
<title>11,6 (Ralesia 2)&#45;&gt;&#45;4,1 (item=ulric Ulrics)</title>
<path fill="none" stroke="black" stroke-width="1.48" d="M1353.79,-1244.98C1287.07,-1106.44 857.33,-214.07 776.13,-45.46"/>
<polygon fill="black" stroke="black" stroke-width="1.48" points="779.19,-43.75 771.7,-36.26 772.89,-46.79 779.19,-43.75"/>
<text text-anchor="middle" x="992.46" y="-649.02" font-family="Times,serif" font-size="14.00">ralesia&#45;seeds*72160</text>
</g>
<!-- 11,6 (Ralesia 2)&#45;&gt;4,7 (Cottonguts) -->
<g id="edge2" class="edge">
<title>11,6 (Ralesia 2)&#45;&gt;4,7 (Cottonguts)</title>
<path fill="none" stroke="black" stroke-width="0.21" d="M1371.22,-1244.94C1410.3,-1163.79 1569.34,-833.55 1616.25,-736.13"/>
<polygon fill="black" stroke="black" stroke-width="0.21" points="1619.49,-737.47 1620.68,-726.94 1613.19,-734.43 1619.49,-737.47"/>
<text text-anchor="middle" x="1421.24" y="-994.34" font-family="Times,serif" font-size="14.00">ralesia&#45;seeds*10080</text>
</g>
<!-- 11,6 (Ralesia 2)&#45;&gt;5,&#45;1 (Drilling Fluid Type 2, I think my maths is backwards) -->
<g id="edge3" class="edge">
<title>11,6 (Ralesia 2)&#45;&gt;5,&#45;1 (Drilling Fluid Type 2, I think my maths is backwards)</title>
<path fill="none" stroke="black" stroke-width="2.34" d="M1340.43,-1245.46C1203.72,-1136.44 473.06,-553.76 313.05,-426.16"/>
<polygon fill="black" stroke="black" stroke-width="2.34" points="315.02,-423.25 305.02,-419.75 310.66,-428.72 315.02,-423.25"/>
<text text-anchor="middle" x="749.74" y="-839.61" font-family="Times,serif" font-size="14.00">ralesia&#45;seeds*114000</text>
</g>
<!-- 11,6 (Ralesia 2)&#45;&gt;&#45;3,4 (Lard from Cottonguts) -->
<g id="edge4" class="edge">
<title>11,6 (Ralesia 2)&#45;&gt;&#45;3,4 (Lard from Cottonguts)</title>
<path fill="none" stroke="black" stroke-width="0.31" d="M1305.17,-1249.97C1124.68,-1208.78 567.85,-1081.69 360.74,-1034.41"/>
<polygon fill="black" stroke="black" stroke-width="0.31" points="361.37,-1030.97 350.85,-1032.16 359.82,-1037.79 361.37,-1030.97"/>
<text text-anchor="middle" x="760.45" y="-1145.99" font-family="Times,serif" font-size="14.00">ralesia&#45;seeds*15120</text>
</g>
<!-- 11,6 (Ralesia 2)&#45;&gt;0,0 (LE BUS) -->
<g id="edge5" class="edge">
<title>11,6 (Ralesia 2)&#45;&gt;0,0 (LE BUS)</title>
<path fill="none" stroke="black" stroke-width="0.56" d="M1305.01,-1276.18C1192.22,-1301.92 942.78,-1358.86 825.79,-1385.56"/>
<polygon fill="black" stroke="black" stroke-width="0.56" points="824.87,-1382.18 815.9,-1387.82 826.43,-1389 824.87,-1382.18"/>
<text text-anchor="middle" x="992.9" y="-1334.67" font-family="Times,serif" font-size="14.00">ralesia&#45;seeds*27360</text>
</g>
</g>
</svg>
