<?xml version="1.0" encoding="UTF-8" standalone="no"?>
<!DOCTYPE svg PUBLIC "-//W3C//DTD SVG 1.1//EN"
 "http://www.w3.org/Graphics/SVG/1.1/DTD/svg11.dtd">
<!-- Generated by graphviz version 2.43.0 (0)
 -->
<!-- Title: %3 Pages: 1 -->
<svg width="874pt" height="706pt"
 viewBox="0.00 0.00 874.22 705.53" xmlns="http://www.w3.org/2000/svg" xmlns:xlink="http://www.w3.org/1999/xlink">
<g id="graph0" class="graph" transform="scale(1 1) rotate(0) translate(4 701.53)">
<title>%3</title>
<polygon fill="white" stroke="transparent" points="-4,4 -4,-701.53 870.22,-701.53 870.22,4 -4,4"/>
<!-- 2,8 (Graphite) -->
<g id="node1" class="node">
<title>2,8 (Graphite)</title>
<ellipse fill="none" stroke="black" cx="442.55" cy="-346.55" rx="76.09" ry="18"/>
<text text-anchor="middle" x="442.55" y="-342.85" font-family="Times,serif" font-size="14.00">2,8 (Graphite)</text>
</g>
<!-- &#45;7,&#45;8 (Tin mk2) -->
<g id="node2" class="node">
<title>&#45;7,&#45;8 (Tin mk2)</title>
<ellipse fill="none" stroke="black" cx="787.57" cy="-346.55" rx="78.79" ry="18"/>
<text text-anchor="middle" x="787.57" y="-342.85" font-family="Times,serif" font-size="14.00">&#45;7,&#45;8 (Tin mk2)</text>
</g>
<!-- 2,8 (Graphite)&#45;&gt;&#45;7,&#45;8 (Tin mk2) -->
<g id="edge1" class="edge">
<title>2,8 (Graphite)&#45;&gt;&#45;7,&#45;8 (Tin mk2)</title>
<path fill="none" stroke="black" stroke-width="2.95" d="M518.69,-346.55C571.75,-346.55 642.72,-346.55 698.42,-346.55"/>
<polygon fill="black" stroke="black" stroke-width="2.95" points="698.63,-350.05 708.63,-346.55 698.63,-343.05 698.63,-350.05"/>
<text text-anchor="middle" x="639.06" y="-335.35" font-family="Times,serif" font-size="14.00">graphite*222400</text>
</g>
<!-- 2,&#45;2 (Tin Plate, Organic Solvent) -->
<g id="node3" class="node">
<title>2,&#45;2 (Tin Plate, Organic Solvent)</title>
<ellipse fill="none" stroke="black" cx="657.02" cy="-616.82" rx="159.77" ry="18"/>
<text text-anchor="middle" x="657.02" y="-613.12" font-family="Times,serif" font-size="14.00">2,&#45;2 (Tin Plate, Organic Solvent)</text>
</g>
<!-- 2,8 (Graphite)&#45;&gt;2,&#45;2 (Tin Plate, Organic Solvent) -->
<g id="edge2" class="edge">
<title>2,8 (Graphite)&#45;&gt;2,&#45;2 (Tin Plate, Organic Solvent)</title>
<path fill="none" stroke="black" stroke-width="0.03" d="M456.62,-364.29C493.42,-410.66 592.65,-535.71 636.13,-590.5"/>
<polygon fill="black" stroke="black" stroke-width="0.03" points="633.65,-593.01 642.61,-598.67 639.14,-588.66 633.65,-593.01"/>
<text text-anchor="middle" x="494.38" y="-481.19" font-family="Times,serif" font-size="14.00">graphite*2160</text>
</g>
<!-- &#45;4,&#45;4 (Aluminium) -->
<g id="node4" class="node">
<title>&#45;4,&#45;4 (Aluminium)</title>
<ellipse fill="none" stroke="black" cx="352.17" cy="-679.53" rx="90.98" ry="18"/>
<text text-anchor="middle" x="352.17" y="-675.83" font-family="Times,serif" font-size="14.00">&#45;4,&#45;4 (Aluminium)</text>
</g>
<!-- 2,8 (Graphite)&#45;&gt;&#45;4,&#45;4 (Aluminium) -->
<g id="edge3" class="edge">
<title>2,8 (Graphite)&#45;&gt;&#45;4,&#45;4 (Aluminium)</title>
<path fill="none" stroke="black" stroke-width="2.6" d="M437.56,-364.93C422.56,-420.19 377.8,-585.11 359.8,-651.44"/>
<polygon fill="black" stroke="black" stroke-width="2.6" points="356.39,-650.64 357.15,-661.21 363.14,-652.48 356.39,-650.64"/>
<text text-anchor="middle" x="337.68" y="-511.99" font-family="Times,serif" font-size="14.00">graphite*196160</text>
</g>
<!-- &#45;3,9 (Silicon Wafers) -->
<g id="node5" class="node">
<title>&#45;3,9 (Silicon Wafers)</title>
<ellipse fill="none" stroke="black" cx="145.2" cy="-521.56" rx="103.98" ry="18"/>
<text text-anchor="middle" x="145.2" y="-517.86" font-family="Times,serif" font-size="14.00">&#45;3,9 (Silicon Wafers)</text>
</g>
<!-- 2,8 (Graphite)&#45;&gt;&#45;3,9 (Silicon Wafers) -->
<g id="edge4" class="edge">
<title>2,8 (Graphite)&#45;&gt;&#45;3,9 (Silicon Wafers)</title>
<path fill="none" stroke="black" stroke-width="0.38" d="M414.04,-363.33C360.39,-394.91 244.41,-463.17 183.82,-498.83"/>
<polygon fill="black" stroke="black" stroke-width="0.38" points="181.79,-495.96 174.95,-504.05 185.34,-501.99 181.79,-495.96"/>
<text text-anchor="middle" x="242.43" y="-434.88" font-family="Times,serif" font-size="14.00">graphite*28880</text>
</g>
<!-- &#45;3,2 (Lead and Solder) -->
<g id="node6" class="node">
<title>&#45;3,2 (Lead and Solder)</title>
<ellipse fill="none" stroke="black" cx="113.74" cy="-242.03" rx="113.98" ry="18"/>
<text text-anchor="middle" x="113.74" y="-238.33" font-family="Times,serif" font-size="14.00">&#45;3,2 (Lead and Solder)</text>
</g>
<!-- 2,8 (Graphite)&#45;&gt;&#45;3,2 (Lead and Solder) -->
<g id="edge5" class="edge">
<title>2,8 (Graphite)&#45;&gt;&#45;3,2 (Lead and Solder)</title>
<path fill="none" stroke="black" stroke-width="0.29" d="M396.83,-332.02C338.76,-313.56 238.38,-281.65 174.07,-261.21"/>
<polygon fill="black" stroke="black" stroke-width="0.29" points="175.05,-257.85 164.46,-258.15 172.93,-264.52 175.05,-257.85"/>
<text text-anchor="middle" x="228.95" y="-300.41" font-family="Times,serif" font-size="14.00">graphite*22160</text>
</g>
<!-- 4,13 (Chromium processing) -->
<g id="node7" class="node">
<title>4,13 (Chromium processing)</title>
<ellipse fill="none" stroke="black" cx="337.22" cy="-18" rx="142.97" ry="18"/>
<text text-anchor="middle" x="337.22" y="-14.3" font-family="Times,serif" font-size="14.00">4,13 (Chromium processing)</text>
</g>
<!-- 2,8 (Graphite)&#45;&gt;4,13 (Chromium processing) -->
<g id="edge6" class="edge">
<title>2,8 (Graphite)&#45;&gt;4,13 (Chromium processing)</title>
<path fill="none" stroke="black" stroke-width="0.71" d="M436.74,-328.42C419.26,-273.89 367.08,-111.16 346.1,-45.71"/>
<polygon fill="black" stroke="black" stroke-width="0.71" points="349.4,-44.53 343.01,-36.08 342.73,-46.67 349.4,-44.53"/>
<text text-anchor="middle" x="334.92" y="-190.87" font-family="Times,serif" font-size="14.00">graphite*53520</text>
</g>
<!-- 6,4 (Electronic components) -->
<g id="node8" class="node">
<title>6,4 (Electronic components)</title>
<ellipse fill="none" stroke="black" cx="670.97" cy="-87.96" rx="141.88" ry="18"/>
<text text-anchor="middle" x="670.97" y="-84.26" font-family="Times,serif" font-size="14.00">6,4 (Electronic components)</text>
</g>
<!-- 2,8 (Graphite)&#45;&gt;6,4 (Electronic components) -->
<g id="edge7" class="edge">
<title>2,8 (Graphite)&#45;&gt;6,4 (Electronic components)</title>
<path fill="none" stroke="black" stroke-width="0.03" d="M458.25,-328.78C497.94,-283.85 602.41,-165.58 648.53,-113.36"/>
<polygon fill="black" stroke="black" stroke-width="0.03" points="651.16,-115.67 655.16,-105.86 645.91,-111.04 651.16,-115.67"/>
<text text-anchor="middle" x="501.39" y="-224.87" font-family="Times,serif" font-size="14.00">graphite*2400</text>
</g>
</g>
</svg>
