<?xml version="1.0" encoding="UTF-8" standalone="no"?>
<!DOCTYPE svg PUBLIC "-//W3C//DTD SVG 1.1//EN"
 "http://www.w3.org/Graphics/SVG/1.1/DTD/svg11.dtd">
<!-- Generated by graphviz version 2.43.0 (0)
 -->
<!-- Title: %3 Pages: 1 -->
<svg width="1019pt" height="1015pt"
 viewBox="0.00 0.00 1018.87 1015.48" xmlns="http://www.w3.org/2000/svg" xmlns:xlink="http://www.w3.org/1999/xlink">
<g id="graph0" class="graph" transform="scale(1 1) rotate(0) translate(4 1011.48)">
<title>%3</title>
<polygon fill="white" stroke="transparent" points="-4,4 -4,-1011.48 1014.87,-1011.48 1014.87,4 -4,4"/>
<!-- 3,&#45;1 (Nitrogen, Oxygen) -->
<g id="node1" class="node">
<title>3,&#45;1 (Nitrogen, Oxygen)</title>
<ellipse fill="none" stroke="black" cx="464.81" cy="-541.98" rx="120.48" ry="18"/>
<text text-anchor="middle" x="464.81" y="-538.28" font-family="Times,serif" font-size="14.00">3,&#45;1 (Nitrogen, Oxygen)</text>
</g>
<!-- 2,&#45;1 (Ammonia) -->
<g id="node2" class="node">
<title>2,&#45;1 (Ammonia)</title>
<ellipse fill="none" stroke="black" cx="929.63" cy="-541.98" rx="81.49" ry="18"/>
<text text-anchor="middle" x="929.63" y="-538.28" font-family="Times,serif" font-size="14.00">2,&#45;1 (Ammonia)</text>
</g>
<!-- 3,&#45;1 (Nitrogen, Oxygen)&#45;&gt;2,&#45;1 (Ammonia) -->
<g id="edge1" class="edge">
<title>3,&#45;1 (Nitrogen, Oxygen)&#45;&gt;2,&#45;1 (Ammonia)</title>
<path fill="none" stroke="black" stroke-width="2.54" d="M585.12,-541.98C664.12,-541.98 765.84,-541.98 838.22,-541.98"/>
<polygon fill="black" stroke="black" stroke-width="2.54" points="838.24,-545.48 848.24,-541.98 838.24,-538.48 838.24,-545.48"/>
<text text-anchor="middle" x="754.17" y="-530.78" font-family="Times,serif" font-size="14.00">nitrogen&#45;barrel*112385</text>
</g>
<!-- 1,7 (Activated Carbon) -->
<g id="node3" class="node">
<title>1,7 (Activated Carbon)</title>
<ellipse fill="none" stroke="black" cx="339.09" cy="-989.48" rx="115.88" ry="18"/>
<text text-anchor="middle" x="339.09" y="-985.78" font-family="Times,serif" font-size="14.00">1,7 (Activated Carbon)</text>
</g>
<!-- 3,&#45;1 (Nitrogen, Oxygen)&#45;&gt;1,7 (Activated Carbon) -->
<g id="edge2" class="edge">
<title>3,&#45;1 (Nitrogen, Oxygen)&#45;&gt;1,7 (Activated Carbon)</title>
<path fill="none" stroke="black" stroke-width="0.64" d="M459.73,-560.08C440.3,-629.23 370.66,-877.11 347.01,-961.28"/>
<polygon fill="black" stroke="black" stroke-width="0.64" points="343.57,-960.58 344.24,-971.15 350.31,-962.47 343.57,-960.58"/>
<text text-anchor="middle" x="322.87" y="-764.48" font-family="Times,serif" font-size="14.00">nitrogen&#45;barrel*28557</text>
</g>
<!-- &#45;4,&#45;13 (Carbon activationer) -->
<g id="node4" class="node">
<title>&#45;4,&#45;13 (Carbon activationer)</title>
<ellipse fill="none" stroke="black" cx="274.62" cy="-270.68" rx="139.18" ry="18"/>
<text text-anchor="middle" x="274.62" y="-266.98" font-family="Times,serif" font-size="14.00">&#45;4,&#45;13 (Carbon activationer)</text>
</g>
<!-- 3,&#45;1 (Nitrogen, Oxygen)&#45;&gt;&#45;4,&#45;13 (Carbon activationer) -->
<g id="edge3" class="edge">
<title>3,&#45;1 (Nitrogen, Oxygen)&#45;&gt;&#45;4,&#45;13 (Carbon activationer)</title>
<path fill="none" stroke="black" stroke-width="0.8" d="M452.04,-523.76C419.22,-476.94 331.82,-352.27 293.3,-297.32"/>
<polygon fill="black" stroke="black" stroke-width="0.8" points="295.95,-295 287.34,-288.82 290.21,-299.02 295.95,-295"/>
<text text-anchor="middle" x="292.17" y="-414.34" font-family="Times,serif" font-size="14.00">nitrogen&#45;barrel*35284</text>
</g>
<!-- 3,0 (Zinc Chloride) -->
<g id="node5" class="node">
<title>3,0 (Zinc Chloride)</title>
<ellipse fill="none" stroke="black" cx="97.49" cy="-18" rx="97.48" ry="18"/>
<text text-anchor="middle" x="97.49" y="-14.3" font-family="Times,serif" font-size="14.00">3,0 (Zinc Chloride)</text>
</g>
<!-- 3,0 (Zinc Chloride)&#45;&gt;&#45;4,&#45;13 (Carbon activationer) -->
<g id="edge4" class="edge">
<title>3,0 (Zinc Chloride)&#45;&gt;&#45;4,&#45;13 (Carbon activationer)</title>
<path fill="none" stroke="black" stroke-width="0.02" d="M110.23,-36.17C141.12,-80.24 220.14,-192.96 256.19,-244.39"/>
<polygon fill="black" stroke="black" stroke-width="0.02" points="253.39,-246.49 262,-252.67 259.12,-242.47 253.39,-246.49"/>
<text text-anchor="middle" x="107.21" y="-144.08" font-family="Times,serif" font-size="14.00">nitrogen&#45;barrel*1000</text>
</g>
</g>
</svg>
