<?xml version="1.0" encoding="UTF-8" standalone="no"?>
<!DOCTYPE svg PUBLIC "-//W3C//DTD SVG 1.1//EN"
 "http://www.w3.org/Graphics/SVG/1.1/DTD/svg11.dtd">
<!-- Generated by graphviz version 2.43.0 (0)
 -->
<!-- Title: %3 Pages: 1 -->
<svg width="1206pt" height="44pt"
 viewBox="0.00 0.00 1206.21 44.00" xmlns="http://www.w3.org/2000/svg" xmlns:xlink="http://www.w3.org/1999/xlink">
<g id="graph0" class="graph" transform="scale(1 1) rotate(0) translate(4 40)">
<title>%3</title>
<polygon fill="white" stroke="transparent" points="-4,4 -4,-40 1202.21,-40 1202.21,4 -4,4"/>
<!-- 0,0 (LE BUS) -->
<g id="node1" class="node">
<title>0,0 (LE BUS)</title>
<ellipse fill="none" stroke="black" cx="498.36" cy="-18" rx="71.49" ry="18"/>
<text text-anchor="middle" x="498.36" y="-14.3" font-family="Times,serif" font-size="14.00">0,0 (LE BUS)</text>
</g>
<!-- &#45;6,&#45;4 (High&#45;Power Resistors, Ceramic Capacitor, Inductor) -->
<g id="node2" class="node">
<title>&#45;6,&#45;4 (High&#45;Power Resistors, Ceramic Capacitor, Inductor)</title>
<ellipse fill="none" stroke="black" cx="920.03" cy="-18" rx="278.35" ry="18"/>
<text text-anchor="middle" x="920.03" y="-14.3" font-family="Times,serif" font-size="14.00">&#45;6,&#45;4 (High&#45;Power Resistors, Ceramic Capacitor, Inductor)</text>
</g>
<!-- 0,0 (LE BUS)&#45;&gt;&#45;6,&#45;4 (High&#45;Power Resistors, Ceramic Capacitor, Inductor) -->
<g id="edge1" class="edge">
<title>0,0 (LE BUS)&#45;&gt;&#45;6,&#45;4 (High&#45;Power Resistors, Ceramic Capacitor, Inductor)</title>
<path fill="none" stroke="black" stroke-width="0.72" d="M569.89,-18C588.31,-18 609.3,-18 631.64,-18"/>
<polygon fill="black" stroke="black" stroke-width="0.72" points="631.64,-21.5 641.64,-18 631.64,-14.5 631.64,-21.5"/>
<text text-anchor="middle" x="600.77" y="-6.8" font-family="Times,serif" font-size="14.00">ceramic*7584</text>
</g>
<!-- 4,&#45;2 (Ceramic) -->
<g id="node3" class="node">
<title>4,&#45;2 (Ceramic)</title>
<ellipse fill="none" stroke="black" cx="76.69" cy="-18" rx="76.89" ry="18"/>
<text text-anchor="middle" x="76.69" y="-14.3" font-family="Times,serif" font-size="14.00">4,&#45;2 (Ceramic)</text>
</g>
<!-- 4,&#45;2 (Ceramic)&#45;&gt;0,0 (LE BUS) -->
<g id="edge2" class="edge">
<title>4,&#45;2 (Ceramic)&#45;&gt;0,0 (LE BUS)</title>
<path fill="none" stroke="black" stroke-width="1.28" d="M153.54,-18C228,-18 340.51,-18 416.59,-18"/>
<polygon fill="black" stroke="black" stroke-width="1.28" points="416.61,-21.5 426.61,-18 416.61,-14.5 416.61,-21.5"/>
<text text-anchor="middle" x="230.57" y="-21.8" font-family="Times,serif" font-size="14.00">ceramic*13424</text>
</g>
</g>
</svg>
