<?xml version="1.0" encoding="UTF-8" standalone="no"?>
<!DOCTYPE svg PUBLIC "-//W3C//DTD SVG 1.1//EN"
 "http://www.w3.org/Graphics/SVG/1.1/DTD/svg11.dtd">
<!-- Generated by graphviz version 2.43.0 (0)
 -->
<!-- Title: %3 Pages: 1 -->
<svg width="1015pt" height="44pt"
 viewBox="0.00 0.00 1015.23 44.00" xmlns="http://www.w3.org/2000/svg" xmlns:xlink="http://www.w3.org/1999/xlink">
<g id="graph0" class="graph" transform="scale(1 1) rotate(0) translate(4 40)">
<title>%3</title>
<polygon fill="white" stroke="transparent" points="-4,4 -4,-40 1011.23,-40 1011.23,4 -4,4"/>
<!-- 3,1 (Mining Brick) -->
<g id="node1" class="node">
<title>3,1 (Mining Brick)</title>
<ellipse fill="none" stroke="black" cx="474.57" cy="-18" rx="94.78" ry="18"/>
<text text-anchor="middle" x="474.57" y="-14.3" font-family="Times,serif" font-size="14.00">3,1 (Mining Brick)</text>
</g>
<!-- 2,1 (Niobium plates) -->
<g id="node2" class="node">
<title>2,1 (Niobium plates)</title>
<ellipse fill="none" stroke="black" cx="747.4" cy="-18" rx="105.88" ry="18"/>
<text text-anchor="middle" x="747.4" y="-14.3" font-family="Times,serif" font-size="14.00">2,1 (Niobium plates)</text>
</g>
<!-- 3,1 (Mining Brick)&#45;&gt;2,1 (Niobium plates) -->
<g id="edge1" class="edge">
<title>3,1 (Mining Brick)&#45;&gt;2,1 (Niobium plates)</title>
<path fill="none" stroke="black" stroke-width="1.49" d="M569.61,-18C589.43,-18 610.54,-18 631.04,-18"/>
<polygon fill="black" stroke="black" stroke-width="1.49" points="631.04,-21.5 641.04,-18 631.04,-14.5 631.04,-21.5"/>
<text text-anchor="middle" x="600.32" y="-6.8" font-family="Times,serif" font-size="14.00">niobium&#45;ore*54240</text>
</g>
<!-- 9,5 (Niobium complex 2) -->
<g id="node3" class="node">
<title>9,5 (Niobium complex 2)</title>
<ellipse fill="none" stroke="black" cx="124.79" cy="-18" rx="124.58" ry="18"/>
<text text-anchor="middle" x="124.79" y="-14.3" font-family="Times,serif" font-size="14.00">9,5 (Niobium complex 2)</text>
</g>
<!-- 3,1 (Mining Brick)&#45;&gt;9,5 (Niobium complex 2) -->
<g id="edge2" class="edge">
<title>3,1 (Mining Brick)&#45;&gt;9,5 (Niobium complex 2)</title>
<path fill="none" stroke="black" stroke-width="1.39" d="M379.45,-18C342.62,-18 299.78,-18 259.86,-18"/>
<polygon fill="black" stroke="black" stroke-width="1.39" points="259.78,-14.5 249.78,-18 259.78,-21.5 259.78,-14.5"/>
<text text-anchor="middle" x="319.66" y="-6.8" font-family="Times,serif" font-size="14.00">niobium&#45;ore*50320</text>
</g>
<!-- 1,11 () -->
<g id="node4" class="node">
<title>1,11 ()</title>
<ellipse fill="none" stroke="black" cx="966.29" cy="-18" rx="40.89" ry="18"/>
<text text-anchor="middle" x="966.29" y="-14.3" font-family="Times,serif" font-size="14.00">1,11 ()</text>
</g>
<!-- 1,11 ()&#45;&gt;2,1 (Niobium plates) -->
<g id="edge3" class="edge">
<title>1,11 ()&#45;&gt;2,1 (Niobium plates)</title>
<path fill="none" stroke="black" stroke-width="0.12" d="M925.12,-18C907.4,-18 885.7,-18 863.64,-18"/>
<polygon fill="black" stroke="black" stroke-width="0.12" points="863.48,-14.5 853.48,-18 863.48,-21.5 863.48,-14.5"/>
<text text-anchor="middle" x="862.13" y="-6.8" font-family="Times,serif" font-size="14.00">niobium&#45;ore*4320</text>
</g>
</g>
</svg>
