<?xml version="1.0" encoding="UTF-8" standalone="no"?>
<!DOCTYPE svg PUBLIC "-//W3C//DTD SVG 1.1//EN"
 "http://www.w3.org/Graphics/SVG/1.1/DTD/svg11.dtd">
<!-- Generated by graphviz version 2.43.0 (0)
 -->
<!-- Title: %3 Pages: 1 -->
<svg width="836pt" height="44pt"
 viewBox="0.00 0.00 836.39 44.00" xmlns="http://www.w3.org/2000/svg" xmlns:xlink="http://www.w3.org/1999/xlink">
<g id="graph0" class="graph" transform="scale(1 1) rotate(0) translate(4 40)">
<title>%3</title>
<polygon fill="white" stroke="transparent" points="-4,4 -4,-40 832.39,-40 832.39,4 -4,4"/>
<!-- 4,11 (Cobalt Extract) -->
<g id="node1" class="node">
<title>4,11 (Cobalt Extract)</title>
<ellipse fill="none" stroke="black" cx="444.42" cy="-18" rx="108.58" ry="18"/>
<text text-anchor="middle" x="444.42" y="-14.3" font-family="Times,serif" font-size="14.00">4,11 (Cobalt Extract)</text>
</g>
<!-- 0,0 (LE BUS) -->
<g id="node2" class="node">
<title>0,0 (LE BUS)</title>
<ellipse fill="none" stroke="black" cx="756.9" cy="-18" rx="71.49" ry="18"/>
<text text-anchor="middle" x="756.9" y="-14.3" font-family="Times,serif" font-size="14.00">0,0 (LE BUS)</text>
</g>
<!-- 4,11 (Cobalt Extract)&#45;&gt;0,0 (LE BUS) -->
<g id="edge1" class="edge">
<title>4,11 (Cobalt Extract)&#45;&gt;0,0 (LE BUS)</title>
<path fill="none" stroke="black" stroke-width="1.67" d="M553.27,-18C593.2,-18 637.68,-18 674.87,-18"/>
<polygon fill="black" stroke="black" stroke-width="1.67" points="675.15,-21.5 685.15,-18 675.15,-14.5 675.15,-21.5"/>
<text text-anchor="middle" x="614.07" y="-6.8" font-family="Times,serif" font-size="14.00">cobalt&#45;extract*12480</text>
</g>
<!-- 2,6 (Refined Syngas, Nisi) -->
<g id="node3" class="node">
<title>2,6 (Refined Syngas, Nisi)</title>
<ellipse fill="none" stroke="black" cx="131.94" cy="-18" rx="131.88" ry="18"/>
<text text-anchor="middle" x="131.94" y="-14.3" font-family="Times,serif" font-size="14.00">2,6 (Refined Syngas, Nisi)</text>
</g>
<!-- 4,11 (Cobalt Extract)&#45;&gt;2,6 (Refined Syngas, Nisi) -->
<g id="edge2" class="edge">
<title>4,11 (Cobalt Extract)&#45;&gt;2,6 (Refined Syngas, Nisi)</title>
<path fill="none" stroke="black" stroke-width="0.33" d="M335.57,-18C315.74,-18 294.78,-18 274.16,-18"/>
<polygon fill="black" stroke="black" stroke-width="0.33" points="274.07,-14.5 264.07,-18 274.07,-21.5 274.07,-14.5"/>
<text text-anchor="middle" x="269.36" y="-6.8" font-family="Times,serif" font-size="14.00">cobalt&#45;extract*2480</text>
</g>
</g>
</svg>
