<?xml version="1.0" encoding="UTF-8" standalone="no"?>
<!DOCTYPE svg PUBLIC "-//W3C//DTD SVG 1.1//EN"
 "http://www.w3.org/Graphics/SVG/1.1/DTD/svg11.dtd">
<!-- Generated by graphviz version 2.43.0 (0)
 -->
<!-- Title: %3 Pages: 1 -->
<svg width="1060pt" height="613pt"
 viewBox="0.00 0.00 1059.79 613.40" xmlns="http://www.w3.org/2000/svg" xmlns:xlink="http://www.w3.org/1999/xlink">
<g id="graph0" class="graph" transform="scale(1 1) rotate(0) translate(4 609.4)">
<title>%3</title>
<polygon fill="white" stroke="transparent" points="-4,4 -4,-609.4 1055.79,-609.4 1055.79,4 -4,4"/>
<!-- 4,2 (More fiberboard) -->
<g id="node1" class="node">
<title>4,2 (More fiberboard)</title>
<ellipse fill="none" stroke="black" cx="214.84" cy="-126.74" rx="111.28" ry="18"/>
<text text-anchor="middle" x="214.84" y="-123.04" font-family="Times,serif" font-size="14.00">4,2 (More fiberboard)</text>
</g>
<!-- 5,&#45;2 (Lubricant) -->
<g id="node2" class="node">
<title>5,&#45;2 (Lubricant)</title>
<ellipse fill="none" stroke="black" cx="214.84" cy="-478.65" rx="83.39" ry="18"/>
<text text-anchor="middle" x="214.84" y="-474.95" font-family="Times,serif" font-size="14.00">5,&#45;2 (Lubricant)</text>
</g>
<!-- 4,2 (More fiberboard)&#45;&gt;5,&#45;2 (Lubricant) -->
<g id="edge1" class="edge">
<title>4,2 (More fiberboard)&#45;&gt;5,&#45;2 (Lubricant)</title>
<path fill="none" stroke="black" stroke-width="1.28" d="M214.84,-145.17C214.84,-202.89 214.84,-380.52 214.84,-450.19"/>
<polygon fill="black" stroke="black" stroke-width="1.28" points="211.34,-450.41 214.84,-460.41 218.34,-450.41 211.34,-450.41"/>
<text text-anchor="middle" x="134.34" y="-301.48" font-family="Times,serif" font-size="14.00">creosote&#45;barrel*11644</text>
</g>
<!-- &#45;2,&#45;3 (Trains) -->
<g id="node3" class="node">
<title>&#45;2,&#45;3 (Trains)</title>
<ellipse fill="none" stroke="black" cx="99.8" cy="-43.17" rx="70.39" ry="18"/>
<text text-anchor="middle" x="99.8" y="-39.47" font-family="Times,serif" font-size="14.00">&#45;2,&#45;3 (Trains)</text>
</g>
<!-- 4,2 (More fiberboard)&#45;&gt;&#45;2,&#45;3 (Trains) -->
<g id="edge2" class="edge">
<title>4,2 (More fiberboard)&#45;&gt;&#45;2,&#45;3 (Trains)</title>
<path fill="none" stroke="black" stroke-width="3.68" d="M190.44,-109.02C173.28,-96.55 150.16,-79.75 131.56,-66.24"/>
<polygon fill="black" stroke="black" stroke-width="3.68" points="133.52,-63.34 123.37,-60.29 129.41,-69 133.52,-63.34"/>
<text text-anchor="middle" x="80.5" y="-91.43" font-family="Times,serif" font-size="14.00">creosote&#45;barrel*33536</text>
</g>
<!-- 4,&#45;1 (Fluid) -->
<g id="node4" class="node">
<title>4,&#45;1 (Fluid)</title>
<ellipse fill="none" stroke="black" cx="549.52" cy="-18" rx="61.99" ry="18"/>
<text text-anchor="middle" x="549.52" y="-14.3" font-family="Times,serif" font-size="14.00">4,&#45;1 (Fluid)</text>
</g>
<!-- 4,2 (More fiberboard)&#45;&gt;4,&#45;1 (Fluid) -->
<g id="edge3" class="edge">
<title>4,2 (More fiberboard)&#45;&gt;4,&#45;1 (Fluid)</title>
<path fill="none" stroke="black" stroke-width="0.82" d="M264.58,-110.58C327.41,-90.17 434.96,-55.22 498.42,-34.6"/>
<polygon fill="black" stroke="black" stroke-width="0.82" points="499.79,-37.84 508.22,-31.42 497.63,-31.18 499.79,-37.84"/>
<text text-anchor="middle" x="305.5" y="-76.39" font-family="Times,serif" font-size="14.00">creosote&#45;barrel*7504</text>
</g>
<!-- 5,8 (Ulric Food) -->
<g id="node6" class="node">
<title>5,8 (Ulric Food)</title>
<ellipse fill="none" stroke="black" cx="549.52" cy="-587.4" rx="83.39" ry="18"/>
<text text-anchor="middle" x="549.52" y="-583.7" font-family="Times,serif" font-size="14.00">5,8 (Ulric Food)</text>
</g>
<!-- 4,2 (More fiberboard)&#45;&gt;5,8 (Ulric Food) -->
<g id="edge5" class="edge">
<title>4,2 (More fiberboard)&#45;&gt;5,8 (Ulric Food)</title>
<path fill="none" stroke="black" stroke-width="0.2" d="M227.96,-144.8C279.66,-215.97 469.51,-477.27 530.51,-561.23"/>
<polygon fill="black" stroke="black" stroke-width="0.2" points="527.78,-563.43 536.49,-569.46 533.44,-559.31 527.78,-563.43"/>
<text text-anchor="middle" x="303.23" y="-356.82" font-family="Times,serif" font-size="14.00">creosote&#45;barrel*1856</text>
</g>
<!-- &#45;1,5 (Train stops for bus brick) -->
<g id="node5" class="node">
<title>&#45;1,5 (Train stops for bus brick)</title>
<ellipse fill="none" stroke="black" cx="756.36" cy="-302.7" rx="152.17" ry="18"/>
<text text-anchor="middle" x="756.36" y="-299" font-family="Times,serif" font-size="14.00">&#45;1,5 (Train stops for bus brick)</text>
</g>
<!-- &#45;1,5 (Train stops for bus brick)&#45;&gt;5,&#45;2 (Lubricant) -->
<g id="edge4" class="edge">
<title>&#45;1,5 (Train stops for bus brick)&#45;&gt;5,&#45;2 (Lubricant)</title>
<path fill="none" stroke="black" stroke-width="1.29" d="M703.95,-319.73C601.61,-352.98 376.03,-426.27 270.86,-460.45"/>
<polygon fill="black" stroke="black" stroke-width="1.29" points="269.5,-457.21 261.07,-463.63 271.66,-463.87 269.5,-457.21"/>
<text text-anchor="middle" x="406.91" y="-393.89" font-family="Times,serif" font-size="14.00">creosote&#45;barrel*11776</text>
</g>
<!-- &#45;1,5 (Train stops for bus brick)&#45;&gt;4,&#45;1 (Fluid) -->
<g id="edge6" class="edge">
<title>&#45;1,5 (Train stops for bus brick)&#45;&gt;4,&#45;1 (Fluid)</title>
<path fill="none" stroke="black" stroke-width="0.54" d="M743.11,-284.46C707.49,-235.43 609.6,-100.69 568.29,-43.84"/>
<polygon fill="black" stroke="black" stroke-width="0.54" points="571.11,-41.76 562.4,-35.73 565.44,-45.87 571.11,-41.76"/>
<text text-anchor="middle" x="579.7" y="-167.95" font-family="Times,serif" font-size="14.00">creosote&#45;barrel*4960</text>
</g>
<!-- &#45;1,5 (Train stops for bus brick)&#45;&gt;5,8 (Ulric Food) -->
<g id="edge7" class="edge">
<title>&#45;1,5 (Train stops for bus brick)&#45;&gt;5,8 (Ulric Food)</title>
<path fill="none" stroke="black" stroke-width="0.09" d="M743.11,-320.94C707.57,-369.85 610.06,-504.06 568.59,-561.15"/>
<polygon fill="black" stroke="black" stroke-width="0.09" points="565.71,-559.16 562.66,-569.31 571.37,-563.27 565.71,-559.16"/>
<text text-anchor="middle" x="584.35" y="-444.84" font-family="Times,serif" font-size="14.00">creosote&#45;barrel*800</text>
</g>
<!-- 4,12 (Molten Glass) -->
<g id="node7" class="node">
<title>4,12 (Molten Glass)</title>
<ellipse fill="none" stroke="black" cx="930.4" cy="-302.7" rx="102.08" ry="18"/>
<text text-anchor="middle" x="930.4" y="-299" font-family="Times,serif" font-size="14.00">4,12 (Molten Glass)</text>
</g>
<!-- &#45;1,5 (Train stops for bus brick)&#45;&gt;4,12 (Molten Glass) -->
<g id="edge8" class="edge">
<title>&#45;1,5 (Train stops for bus brick)&#45;&gt;4,12 (Molten Glass)</title>
<path fill="none" stroke="black" stroke-width="0.09" d="M908.71,-302.7C908.76,-302.7 908.82,-302.7 908.87,-302.7"/>
<polygon fill="black" stroke="black" stroke-width="0.09" points="899.02,-306.2 909.02,-302.7 899.02,-299.2 899.02,-306.2"/>
<text text-anchor="middle" x="980.29" y="-306.5" font-family="Times,serif" font-size="14.00">creosote&#45;barrel*864</text>
</g>
</g>
</svg>
