<?xml version="1.0" encoding="UTF-8" standalone="no"?>
<!DOCTYPE svg PUBLIC "-//W3C//DTD SVG 1.1//EN"
 "http://www.w3.org/Graphics/SVG/1.1/DTD/svg11.dtd">
<!-- Generated by graphviz version 2.43.0 (0)
 -->
<!-- Title: %3 Pages: 1 -->
<svg width="861pt" height="44pt"
 viewBox="0.00 0.00 861.09 44.00" xmlns="http://www.w3.org/2000/svg" xmlns:xlink="http://www.w3.org/1999/xlink">
<g id="graph0" class="graph" transform="scale(1 1) rotate(0) translate(4 40)">
<title>%3</title>
<polygon fill="white" stroke="transparent" points="-4,4 -4,-40 857.09,-40 857.09,4 -4,4"/>
<!-- 2,&#45;2 (Tin Plate, Organic Solvent) -->
<g id="node1" class="node">
<title>2,&#45;2 (Tin Plate, Organic Solvent)</title>
<ellipse fill="none" stroke="black" cx="443.77" cy="-18" rx="159.77" ry="18"/>
<text text-anchor="middle" x="443.77" y="-14.3" font-family="Times,serif" font-size="14.00">2,&#45;2 (Tin Plate, Organic Solvent)</text>
</g>
<!-- 0,0 (LE BUS) -->
<g id="node2" class="node">
<title>0,0 (LE BUS)</title>
<ellipse fill="none" stroke="black" cx="781.59" cy="-18" rx="71.49" ry="18"/>
<text text-anchor="middle" x="781.59" y="-14.3" font-family="Times,serif" font-size="14.00">0,0 (LE BUS)</text>
</g>
<!-- 2,&#45;2 (Tin Plate, Organic Solvent)&#45;&gt;0,0 (LE BUS) -->
<g id="edge1" class="edge">
<title>2,&#45;2 (Tin Plate, Organic Solvent)&#45;&gt;0,0 (LE BUS)</title>
<path fill="none" stroke="black" stroke-width="1.76" d="M603.78,-18C637.03,-18 670.75,-18 699.76,-18"/>
<polygon fill="black" stroke="black" stroke-width="1.76" points="699.81,-21.5 709.81,-18 699.81,-14.5 699.81,-21.5"/>
<text text-anchor="middle" x="651.77" y="-6.8" font-family="Times,serif" font-size="14.00">organic&#45;solvent&#45;barrel*1600</text>
</g>
<!-- 2,1 (Niobium plates) -->
<g id="node3" class="node">
<title>2,1 (Niobium plates)</title>
<ellipse fill="none" stroke="black" cx="105.94" cy="-18" rx="105.88" ry="18"/>
<text text-anchor="middle" x="105.94" y="-14.3" font-family="Times,serif" font-size="14.00">2,1 (Niobium plates)</text>
</g>
<!-- 2,&#45;2 (Tin Plate, Organic Solvent)&#45;&gt;2,1 (Niobium plates) -->
<g id="edge2" class="edge">
<title>2,&#45;2 (Tin Plate, Organic Solvent)&#45;&gt;2,1 (Niobium plates)</title>
<path fill="none" stroke="black" stroke-width="0.24" d="M283.76,-18C262.89,-18 241.85,-18 221.9,-18"/>
<polygon fill="black" stroke="black" stroke-width="0.24" points="221.89,-14.5 211.89,-18 221.89,-21.5 221.89,-14.5"/>
<text text-anchor="middle" x="204.83" y="-6.8" font-family="Times,serif" font-size="14.00">organic&#45;solvent&#45;barrel*216</text>
</g>
</g>
</svg>
