<?xml version="1.0" encoding="UTF-8" standalone="no"?>
<!DOCTYPE svg PUBLIC "-//W3C//DTD SVG 1.1//EN"
 "http://www.w3.org/Graphics/SVG/1.1/DTD/svg11.dtd">
<!-- Generated by graphviz version 2.43.0 (0)
 -->
<!-- Title: %3 Pages: 1 -->
<svg width="1782pt" height="1377pt"
 viewBox="0.00 0.00 1782.39 1376.67" xmlns="http://www.w3.org/2000/svg" xmlns:xlink="http://www.w3.org/1999/xlink">
<g id="graph0" class="graph" transform="scale(1 1) rotate(0) translate(4 1372.67)">
<title>%3</title>
<polygon fill="white" stroke="transparent" points="-4,4 -4,-1372.67 1778.39,-1372.67 1778.39,4 -4,4"/>
<!-- 0,0 (LE BUS) -->
<g id="node1" class="node">
<title>0,0 (LE BUS)</title>
<ellipse fill="none" stroke="black" cx="200.18" cy="-915.75" rx="71.49" ry="18"/>
<text text-anchor="middle" x="200.18" y="-912.05" font-family="Times,serif" font-size="14.00">0,0 (LE BUS)</text>
</g>
<!-- 3,13 (Rubber) -->
<g id="node2" class="node">
<title>3,13 (Rubber)</title>
<ellipse fill="none" stroke="black" cx="953.48" cy="-18" rx="75.29" ry="18"/>
<text text-anchor="middle" x="953.48" y="-14.3" font-family="Times,serif" font-size="14.00">3,13 (Rubber)</text>
</g>
<!-- 0,0 (LE BUS)&#45;&gt;3,13 (Rubber) -->
<g id="edge1" class="edge">
<title>0,0 (LE BUS)&#45;&gt;3,13 (Rubber)</title>
<path fill="none" stroke="black" stroke-width="1.92" d="M215.23,-897.82C309.68,-785.26 820.3,-176.72 931.92,-43.7"/>
<polygon fill="black" stroke="black" stroke-width="1.92" points="934.65,-45.89 938.4,-35.98 929.29,-41.39 934.65,-45.89"/>
<text text-anchor="middle" x="513.08" y="-474.56" font-family="Times,serif" font-size="14.00">tar&#45;barrel*36945</text>
</g>
<!-- 3,6 (Phosphoric Acid and Phosphine gas) -->
<g id="node4" class="node">
<title>3,6 (Phosphoric Acid and Phosphine gas)</title>
<ellipse fill="none" stroke="black" cx="200.18" cy="-452.92" rx="200.36" ry="18"/>
<text text-anchor="middle" x="200.18" y="-449.22" font-family="Times,serif" font-size="14.00">3,6 (Phosphoric Acid and Phosphine gas)</text>
</g>
<!-- 0,0 (LE BUS)&#45;&gt;3,6 (Phosphoric Acid and Phosphine gas) -->
<g id="edge9" class="edge">
<title>0,0 (LE BUS)&#45;&gt;3,6 (Phosphoric Acid and Phosphine gas)</title>
<path fill="none" stroke="black" stroke-width="0.34" d="M200.18,-897.6C200.18,-826.6 200.18,-567.27 200.18,-481.02"/>
<polygon fill="black" stroke="black" stroke-width="0.34" points="203.68,-480.94 200.18,-470.94 196.68,-480.94 203.68,-480.94"/>
<text text-anchor="middle" x="144.18" y="-693.11" font-family="Times,serif" font-size="14.00">tar&#45;barrel*6614</text>
</g>
<!-- &#45;3,2 (Lead and Solder) -->
<g id="node5" class="node">
<title>&#45;3,2 (Lead and Solder)</title>
<ellipse fill="none" stroke="black" cx="1354.3" cy="-1119.25" rx="113.98" ry="18"/>
<text text-anchor="middle" x="1354.3" y="-1115.55" font-family="Times,serif" font-size="14.00">&#45;3,2 (Lead and Solder)</text>
</g>
<!-- 0,0 (LE BUS)&#45;&gt;&#45;3,2 (Lead and Solder) -->
<g id="edge4" class="edge">
<title>0,0 (LE BUS)&#45;&gt;&#45;3,2 (Lead and Solder)</title>
<path fill="none" stroke="black" stroke-width="0.83" d="M259,-926.12C448.56,-959.54 1044.06,-1064.55 1268.01,-1104.03"/>
<polygon fill="black" stroke="black" stroke-width="0.83" points="1267.61,-1107.52 1278.07,-1105.81 1268.83,-1100.63 1267.61,-1107.52"/>
<text text-anchor="middle" x="703.01" y="-1018.88" font-family="Times,serif" font-size="14.00">tar&#45;barrel*15987</text>
</g>
<!-- 0,7 (Coal Gas) -->
<g id="node7" class="node">
<title>0,7 (Coal Gas)</title>
<ellipse fill="none" stroke="black" cx="1512.6" cy="-684.33" rx="76.09" ry="18"/>
<text text-anchor="middle" x="1512.6" y="-680.63" font-family="Times,serif" font-size="14.00">0,7 (Coal Gas)</text>
</g>
<!-- 0,0 (LE BUS)&#45;&gt;0,7 (Coal Gas) -->
<g id="edge7" class="edge">
<title>0,0 (LE BUS)&#45;&gt;0,7 (Coal Gas)</title>
<path fill="none" stroke="black" stroke-width="1.98" d="M259.12,-905.36C473.16,-867.61 1208.93,-737.88 1441.53,-696.87"/>
<polygon fill="black" stroke="black" stroke-width="1.98" points="1442.32,-700.28 1451.56,-695.1 1441.11,-693.39 1442.32,-700.28"/>
<text text-anchor="middle" x="789.82" y="-804.91" font-family="Times,serif" font-size="14.00">tar&#45;barrel*38056</text>
</g>
<!-- 4,&#45;1 (Fluid) -->
<g id="node8" class="node">
<title>4,&#45;1 (Fluid)</title>
<ellipse fill="none" stroke="black" cx="497.68" cy="-1270.3" rx="61.99" ry="18"/>
<text text-anchor="middle" x="497.68" y="-1266.6" font-family="Times,serif" font-size="14.00">4,&#45;1 (Fluid)</text>
</g>
<!-- 0,0 (LE BUS)&#45;&gt;4,&#45;1 (Fluid) -->
<g id="edge6" class="edge">
<title>0,0 (LE BUS)&#45;&gt;4,&#45;1 (Fluid)</title>
<path fill="none" stroke="black" stroke-width="2.13" d="M215.34,-933.82C264.5,-992.4 419.55,-1177.18 476.46,-1245.01"/>
<polygon fill="black" stroke="black" stroke-width="2.13" points="473.8,-1247.27 482.91,-1252.68 479.16,-1242.77 473.8,-1247.27"/>
<text text-anchor="middle" x="285.4" y="-1093.21" font-family="Times,serif" font-size="14.00">tar&#45;barrel*41020</text>
</g>
<!-- 8,2 (Tar) -->
<g id="node3" class="node">
<title>8,2 (Tar)</title>
<ellipse fill="none" stroke="black" cx="1354.3" cy="-249.42" rx="50.09" ry="18"/>
<text text-anchor="middle" x="1354.3" y="-245.72" font-family="Times,serif" font-size="14.00">8,2 (Tar)</text>
</g>
<!-- 8,2 (Tar)&#45;&gt;0,0 (LE BUS) -->
<g id="edge2" class="edge">
<title>8,2 (Tar)&#45;&gt;0,0 (LE BUS)</title>
<path fill="none" stroke="black" stroke-width="8.46" d="M1327.75,-264.74C1175.72,-352.52 416.12,-791.08 237.73,-894.07"/>
<polygon fill="black" stroke="black" stroke-width="8.46" points="233.91,-887.72 228.96,-899.14 241.32,-900.55 233.91,-887.72"/>
<text text-anchor="middle" x="717.74" y="-583.21" font-family="Times,serif" font-size="14.00">tar&#45;barrel*162784</text>
</g>
<!-- 8,2 (Tar)&#45;&gt;3,13 (Rubber) -->
<g id="edge13" class="edge">
<title>8,2 (Tar)&#45;&gt;3,13 (Rubber)</title>
<path fill="none" stroke="black" stroke-width="0.49" d="M1327.7,-234.05C1258.33,-194 1071.8,-86.31 991.31,-39.84"/>
<polygon fill="black" stroke="black" stroke-width="0.49" points="992.9,-36.72 982.49,-34.75 989.4,-42.78 992.9,-36.72"/>
<text text-anchor="middle" x="1103.5" y="-140.75" font-family="Times,serif" font-size="14.00">tar&#45;barrel*9344</text>
</g>
<!-- 8,2 (Tar)&#45;&gt;3,6 (Phosphoric Acid and Phosphine gas) -->
<g id="edge3" class="edge">
<title>8,2 (Tar)&#45;&gt;3,6 (Phosphoric Acid and Phosphine gas)</title>
<path fill="none" stroke="black" stroke-width="0.09" d="M1309.06,-257.39C1139.89,-287.22 541.97,-392.65 301.47,-435.06"/>
<polygon fill="black" stroke="black" stroke-width="0.09" points="300.57,-431.66 291.33,-436.85 301.79,-438.56 300.57,-431.66"/>
<text text-anchor="middle" x="749.27" y="-350.03" font-family="Times,serif" font-size="14.00">tar&#45;barrel*1800</text>
</g>
<!-- 8,2 (Tar)&#45;&gt;&#45;3,2 (Lead and Solder) -->
<g id="edge14" class="edge">
<title>8,2 (Tar)&#45;&gt;&#45;3,2 (Lead and Solder)</title>
<path fill="none" stroke="black" stroke-width="0.16" d="M1354.3,-267.58C1354.3,-377.69 1354.3,-955.42 1354.3,-1090.83"/>
<polygon fill="black" stroke="black" stroke-width="0.16" points="1350.8,-1091.18 1354.3,-1101.18 1357.8,-1091.18 1350.8,-1091.18"/>
<text text-anchor="middle" x="1298.3" y="-683.01" font-family="Times,serif" font-size="14.00">tar&#45;barrel*3168</text>
</g>
<!-- 8,2 (Tar)&#45;&gt;0,7 (Coal Gas) -->
<g id="edge12" class="edge">
<title>8,2 (Tar)&#45;&gt;0,7 (Coal Gas)</title>
<path fill="none" stroke="black" stroke-width="0.67" d="M1360.81,-267.28C1385.38,-334.79 1472.72,-574.75 1502.54,-656.68"/>
<polygon fill="black" stroke="black" stroke-width="0.67" points="1499.25,-657.88 1505.96,-666.08 1505.83,-655.49 1499.25,-657.88"/>
<text text-anchor="middle" x="1371.17" y="-465.78" font-family="Times,serif" font-size="14.00">tar&#45;barrel*12831</text>
</g>
<!-- 8,2 (Tar)&#45;&gt;4,&#45;1 (Fluid) -->
<g id="edge11" class="edge">
<title>8,2 (Tar)&#45;&gt;4,&#45;1 (Fluid)</title>
<path fill="none" stroke="black" stroke-width="0.46" d="M1339.8,-266.71C1238.8,-387.06 641.2,-1099.26 519.36,-1244.46"/>
<polygon fill="black" stroke="black" stroke-width="0.46" points="516.4,-1242.54 512.66,-1252.45 521.77,-1247.04 516.4,-1242.54"/>
<text text-anchor="middle" x="873.58" y="-759.38" font-family="Times,serif" font-size="14.00">tar&#45;barrel*8864</text>
</g>
<!-- 3,1 (Mining Brick) -->
<g id="node6" class="node">
<title>3,1 (Mining Brick)</title>
<ellipse fill="none" stroke="black" cx="1679.49" cy="-684.33" rx="94.78" ry="18"/>
<text text-anchor="middle" x="1679.49" y="-680.63" font-family="Times,serif" font-size="14.00">3,1 (Mining Brick)</text>
</g>
<!-- 3,1 (Mining Brick)&#45;&gt;0,7 (Coal Gas) -->
<g id="edge5" class="edge">
<title>3,1 (Mining Brick)&#45;&gt;0,7 (Coal Gas)</title>
<path fill="none" stroke="black" stroke-width="0.05" d="M1584.35,-684.33C1584.27,-684.33 1584.2,-684.33 1584.13,-684.33"/>
<polygon fill="black" stroke="black" stroke-width="0.05" points="1593.91,-680.84 1583.91,-684.33 1593.91,-687.84 1593.91,-680.84"/>
<text text-anchor="middle" x="1532.74" y="-688.13" font-family="Times,serif" font-size="14.00">tar&#45;barrel*880</text>
</g>
<!-- 0,8 (Tar from Coke) -->
<g id="node9" class="node">
<title>0,8 (Tar from Coke)</title>
<ellipse fill="none" stroke="black" cx="497.68" cy="-98.37" rx="100.98" ry="18"/>
<text text-anchor="middle" x="497.68" y="-94.67" font-family="Times,serif" font-size="14.00">0,8 (Tar from Coke)</text>
</g>
<!-- 0,8 (Tar from Coke)&#45;&gt;0,0 (LE BUS) -->
<g id="edge8" class="edge">
<title>0,8 (Tar from Coke)&#45;&gt;0,0 (LE BUS)</title>
<path fill="none" stroke="black" stroke-width="0.42" d="M491.05,-116.59C452.49,-222.54 257.18,-759.16 210.3,-887.94"/>
<polygon fill="black" stroke="black" stroke-width="0.42" points="206.96,-886.89 206.83,-897.49 213.54,-889.29 206.96,-886.89"/>
<text text-anchor="middle" x="294.68" y="-506.06" font-family="Times,serif" font-size="14.00">tar&#45;barrel*8160</text>
</g>
<!-- 0,8 (Tar from Coke)&#45;&gt;3,13 (Rubber) -->
<g id="edge20" class="edge">
<title>0,8 (Tar from Coke)&#45;&gt;3,13 (Rubber)</title>
<path fill="none" stroke="black" stroke-width="0.04" d="M569.4,-85.72C655.05,-70.62 797.39,-45.52 882.64,-30.49"/>
<polygon fill="black" stroke="black" stroke-width="0.04" points="883.51,-33.89 892.75,-28.71 882.29,-27 883.51,-33.89"/>
<text text-anchor="middle" x="674.52" y="-61.91" font-family="Times,serif" font-size="14.00">tar&#45;barrel*800</text>
</g>
<!-- 0,8 (Tar from Coke)&#45;&gt;3,6 (Phosphoric Acid and Phosphine gas) -->
<g id="edge15" class="edge">
<title>0,8 (Tar from Coke)&#45;&gt;3,6 (Phosphoric Acid and Phosphine gas)</title>
<path fill="none" stroke="black" stroke-width="0.04" d="M482.52,-116.44C433.48,-174.88 279.03,-358.95 221.8,-427.16"/>
<polygon fill="black" stroke="black" stroke-width="0.04" points="219.06,-424.97 215.31,-434.88 224.42,-429.47 219.06,-424.97"/>
<text text-anchor="middle" x="300.66" y="-275.6" font-family="Times,serif" font-size="14.00">tar&#45;barrel*768</text>
</g>
<!-- 2,&#45;1 (Ammonia) -->
<g id="node10" class="node">
<title>2,&#45;1 (Ammonia)</title>
<ellipse fill="none" stroke="black" cx="953.48" cy="-1350.67" rx="81.49" ry="18"/>
<text text-anchor="middle" x="953.48" y="-1346.97" font-family="Times,serif" font-size="14.00">2,&#45;1 (Ammonia)</text>
</g>
<!-- 2,&#45;1 (Ammonia)&#45;&gt;0,0 (LE BUS) -->
<g id="edge10" class="edge">
<title>2,&#45;1 (Ammonia)&#45;&gt;0,0 (LE BUS)</title>
<path fill="none" stroke="black" stroke-width="1.28" d="M923.95,-1333.62C806.14,-1265.6 369.74,-1013.64 238.05,-937.61"/>
<polygon fill="black" stroke="black" stroke-width="1.28" points="239.51,-934.41 229.1,-932.45 236.01,-940.48 239.51,-934.41"/>
<text text-anchor="middle" x="520.5" y="-1139.41" font-family="Times,serif" font-size="14.00">tar&#45;barrel*24713</text>
</g>
<!-- 2,&#45;1 (Ammonia)&#45;&gt;3,13 (Rubber) -->
<g id="edge17" class="edge">
<title>2,&#45;1 (Ammonia)&#45;&gt;3,13 (Rubber)</title>
<path fill="none" stroke="black" stroke-width="0.14" d="M953.48,-1332.59C953.48,-1188.31 953.48,-224.74 953.48,-46.37"/>
<polygon fill="black" stroke="black" stroke-width="0.14" points="956.98,-46.21 953.48,-36.21 949.98,-46.21 956.98,-46.21"/>
<text text-anchor="middle" x="897.48" y="-693.28" font-family="Times,serif" font-size="14.00">tar&#45;barrel*2656</text>
</g>
<!-- 2,&#45;1 (Ammonia)&#45;&gt;3,6 (Phosphoric Acid and Phosphine gas) -->
<g id="edge19" class="edge">
<title>2,&#45;1 (Ammonia)&#45;&gt;3,6 (Phosphoric Acid and Phosphine gas)</title>
<path fill="none" stroke="black" stroke-width="0.02" d="M938.43,-1332.73C843.99,-1220.18 333.36,-611.63 221.74,-478.61"/>
<polygon fill="black" stroke="black" stroke-width="0.02" points="224.37,-476.3 215.27,-470.89 219.01,-480.8 224.37,-476.3"/>
<text text-anchor="middle" x="528.59" y="-909.47" font-family="Times,serif" font-size="14.00">tar&#45;barrel*352</text>
</g>
<!-- 2,&#45;1 (Ammonia)&#45;&gt;&#45;3,2 (Lead and Solder) -->
<g id="edge18" class="edge">
<title>2,&#45;1 (Ammonia)&#45;&gt;&#45;3,2 (Lead and Solder)</title>
<path fill="none" stroke="black" stroke-width="0.06" d="M982.63,-1333.84C1053.58,-1292.88 1235.28,-1187.97 1315.38,-1141.72"/>
<polygon fill="black" stroke="black" stroke-width="0.06" points="1317.27,-1144.68 1324.18,-1136.65 1313.77,-1138.61 1317.27,-1144.68"/>
<text text-anchor="middle" x="1093.01" y="-1241.58" font-family="Times,serif" font-size="14.00">tar&#45;barrel*1248</text>
</g>
<!-- 2,&#45;1 (Ammonia)&#45;&gt;4,&#45;1 (Fluid) -->
<g id="edge16" class="edge">
<title>2,&#45;1 (Ammonia)&#45;&gt;4,&#45;1 (Fluid)</title>
<path fill="none" stroke="black" stroke-width="0.41" d="M889.63,-1339.41C802.54,-1324.05 647.49,-1296.71 560.8,-1281.42"/>
<polygon fill="black" stroke="black" stroke-width="0.41" points="561.28,-1277.96 550.83,-1279.67 560.07,-1284.85 561.28,-1277.96"/>
<text text-anchor="middle" x="669.21" y="-1314.22" font-family="Times,serif" font-size="14.00">tar&#45;barrel*7840</text>
</g>
</g>
</svg>
