<?xml version="1.0" encoding="UTF-8" standalone="no"?>
<!DOCTYPE svg PUBLIC "-//W3C//DTD SVG 1.1//EN"
 "http://www.w3.org/Graphics/SVG/1.1/DTD/svg11.dtd">
<!-- Generated by graphviz version 2.43.0 (0)
 -->
<!-- Title: %3 Pages: 1 -->
<svg width="4802pt" height="4342pt"
 viewBox="0.00 0.00 4802.26 4342.12" xmlns="http://www.w3.org/2000/svg" xmlns:xlink="http://www.w3.org/1999/xlink">
<g id="graph0" class="graph" transform="scale(1 1) rotate(0) translate(4 4338.12)">
<title>%3</title>
<polygon fill="white" stroke="transparent" points="-4,4 -4,-4338.12 4798.26,-4338.12 4798.26,4 -4,4"/>
<!-- 3,16 (More Coke) -->
<g id="node1" class="node">
<title>3,16 (More Coke)</title>
<ellipse fill="none" stroke="black" cx="245.68" cy="-2831.15" rx="90.98" ry="18"/>
<text text-anchor="middle" x="245.68" y="-2827.45" font-family="Times,serif" font-size="14.00">3,16 (More Coke)</text>
</g>
<!-- &#45;6,&#45;4 (High&#45;Power Resistors, Ceramic Capacitor, Inductor) -->
<g id="node2" class="node">
<title>&#45;6,&#45;4 (High&#45;Power Resistors, Ceramic Capacitor, Inductor)</title>
<ellipse fill="none" stroke="black" cx="1026.37" cy="-428.43" rx="278.35" ry="18"/>
<text text-anchor="middle" x="1026.37" y="-424.73" font-family="Times,serif" font-size="14.00">&#45;6,&#45;4 (High&#45;Power Resistors, Ceramic Capacitor, Inductor)</text>
</g>
<!-- 3,16 (More Coke)&#45;&gt;&#45;6,&#45;4 (High&#45;Power Resistors, Ceramic Capacitor, Inductor) -->
<g id="edge1" class="edge">
<title>3,16 (More Coke)&#45;&gt;&#45;6,&#45;4 (High&#45;Power Resistors, Ceramic Capacitor, Inductor)</title>
<path fill="none" stroke="black" stroke-width="0.5" d="M251.62,-2812.85C318.88,-2605.88 935.5,-708.09 1017.4,-456.04"/>
<polygon fill="black" stroke="black" stroke-width="0.5" points="1020.73,-457.11 1020.49,-446.51 1014.08,-454.94 1020.73,-457.11"/>
<text text-anchor="middle" x="596.51" y="-1638.25" font-family="Times,serif" font-size="14.00">coke*9872</text>
</g>
<!-- &#45;2,9 (molten steel) -->
<g id="node4" class="node">
<title>&#45;2,9 (molten steel)</title>
<ellipse fill="none" stroke="black" cx="550.93" cy="-903.87" rx="95.58" ry="18"/>
<text text-anchor="middle" x="550.93" y="-900.17" font-family="Times,serif" font-size="14.00">&#45;2,9 (molten steel)</text>
</g>
<!-- 3,16 (More Coke)&#45;&gt;&#45;2,9 (molten steel) -->
<g id="edge12" class="edge">
<title>3,16 (More Coke)&#45;&gt;&#45;2,9 (molten steel)</title>
<path fill="none" stroke="black" stroke-width="0.95" d="M248.55,-2813C277.21,-2632.05 511.23,-1154.53 546.49,-931.92"/>
<polygon fill="black" stroke="black" stroke-width="0.95" points="549.95,-932.42 548.06,-922 543.04,-931.33 549.95,-932.42"/>
<text text-anchor="middle" x="355.02" y="-1876.26" font-family="Times,serif" font-size="14.00">coke*18784</text>
</g>
<!-- &#45;5,1 (Acetylene) -->
<g id="node6" class="node">
<title>&#45;5,1 (Acetylene)</title>
<ellipse fill="none" stroke="black" cx="550.93" cy="-3430.24" rx="83.39" ry="18"/>
<text text-anchor="middle" x="550.93" y="-3426.54" font-family="Times,serif" font-size="14.00">&#45;5,1 (Acetylene)</text>
</g>
<!-- 3,16 (More Coke)&#45;&gt;&#45;5,1 (Acetylene) -->
<g id="edge32" class="edge">
<title>3,16 (More Coke)&#45;&gt;&#45;5,1 (Acetylene)</title>
<path fill="none" stroke="black" stroke-width="1.35" d="M254.81,-2849.08C298.3,-2934.43 484.38,-3299.64 537.01,-3402.93"/>
<polygon fill="black" stroke="black" stroke-width="1.35" points="534.02,-3404.77 541.68,-3412.09 540.26,-3401.59 534.02,-3404.77"/>
<text text-anchor="middle" x="353.41" y="-3129.81" font-family="Times,serif" font-size="14.00">coke*26592</text>
</g>
<!-- &#45;2,6 (Wrong ratio of Calcium Carbide to Acetalene) -->
<g id="node7" class="node">
<title>&#45;2,6 (Wrong ratio of Calcium Carbide to Acetalene)</title>
<ellipse fill="none" stroke="black" cx="245.68" cy="-1502.96" rx="245.86" ry="18"/>
<text text-anchor="middle" x="245.68" y="-1499.26" font-family="Times,serif" font-size="14.00">&#45;2,6 (Wrong ratio of Calcium Carbide to Acetalene)</text>
</g>
<!-- 3,16 (More Coke)&#45;&gt;&#45;2,6 (Wrong ratio of Calcium Carbide to Acetalene) -->
<g id="edge4" class="edge">
<title>3,16 (More Coke)&#45;&gt;&#45;2,6 (Wrong ratio of Calcium Carbide to Acetalene)</title>
<path fill="none" stroke="black" stroke-width="0.94" d="M245.68,-2812.88C245.68,-2668.22 245.68,-1708.8 245.68,-1531.21"/>
<polygon fill="black" stroke="black" stroke-width="0.94" points="249.18,-1531.1 245.68,-1521.1 242.18,-1531.1 249.18,-1531.1"/>
<text text-anchor="middle" x="288.18" y="-2175.85" font-family="Times,serif" font-size="14.00">coke*18512</text>
</g>
<!-- 2,5 (Simple Circuits) -->
<g id="node8" class="node">
<title>2,5 (Simple Circuits)</title>
<ellipse fill="none" stroke="black" cx="140.5" cy="-2167.06" rx="106.68" ry="18"/>
<text text-anchor="middle" x="140.5" y="-2163.36" font-family="Times,serif" font-size="14.00">2,5 (Simple Circuits)</text>
</g>
<!-- 3,16 (More Coke)&#45;&gt;2,5 (Simple Circuits) -->
<g id="edge28" class="edge">
<title>3,16 (More Coke)&#45;&gt;2,5 (Simple Circuits)</title>
<path fill="none" stroke="black" stroke-width="0.81" d="M242.81,-2813.05C228.28,-2721.31 162.79,-2307.8 144.98,-2195.36"/>
<polygon fill="black" stroke="black" stroke-width="0.81" points="148.38,-2194.48 143.36,-2185.15 141.47,-2195.57 148.38,-2194.48"/>
<text text-anchor="middle" x="151.39" y="-2508" font-family="Times,serif" font-size="14.00">coke*16048</text>
</g>
<!-- &#45;5,&#45;4 (low priority (slaked)? lime) -->
<g id="node9" class="node">
<title>&#45;5,&#45;4 (low priority (slaked)? lime)</title>
<ellipse fill="none" stroke="black" cx="1026.37" cy="-3905.68" rx="162.47" ry="18"/>
<text text-anchor="middle" x="1026.37" y="-3901.98" font-family="Times,serif" font-size="14.00">&#45;5,&#45;4 (low priority (slaked)? lime)</text>
</g>
<!-- 3,16 (More Coke)&#45;&gt;&#45;5,&#45;4 (low priority (slaked)? lime) -->
<g id="edge24" class="edge">
<title>3,16 (More Coke)&#45;&gt;&#45;5,&#45;4 (low priority (slaked)? lime)</title>
<path fill="none" stroke="black" stroke-width="1.49" d="M258.9,-2849.35C351.14,-2976.3 897.9,-3728.86 1007.32,-3879.46"/>
<polygon fill="black" stroke="black" stroke-width="1.49" points="1004.62,-3881.7 1013.33,-3887.73 1010.28,-3877.58 1004.62,-3881.7"/>
<text text-anchor="middle" x="590.61" y="-3368.21" font-family="Times,serif" font-size="14.00">coke*29456</text>
</g>
<!-- 0,8 (Tar from Coke) -->
<g id="node10" class="node">
<title>0,8 (Tar from Coke)</title>
<ellipse fill="none" stroke="black" cx="4028.18" cy="-903.87" rx="100.98" ry="18"/>
<text text-anchor="middle" x="4028.18" y="-900.17" font-family="Times,serif" font-size="14.00">0,8 (Tar from Coke)</text>
</g>
<!-- 3,16 (More Coke)&#45;&gt;0,8 (Tar from Coke) -->
<g id="edge7" class="edge">
<title>3,16 (More Coke)&#45;&gt;0,8 (Tar from Coke)</title>
<path fill="none" stroke="black" stroke-width="1.32" d="M278.67,-2814.35C625.26,-2637.75 3594.2,-1125 3985.64,-925.55"/>
<polygon fill="black" stroke="black" stroke-width="1.32" points="3987.35,-928.61 3994.67,-920.95 3984.17,-922.37 3987.35,-928.61"/>
<text text-anchor="middle" x="2089.65" y="-1873.75" font-family="Times,serif" font-size="14.00">coke*26128</text>
</g>
<!-- 2,10 (Nickel plate) -->
<g id="node11" class="node">
<title>2,10 (Nickel plate)</title>
<ellipse fill="none" stroke="black" cx="1625.46" cy="-4210.93" rx="96.68" ry="18"/>
<text text-anchor="middle" x="1625.46" y="-4207.23" font-family="Times,serif" font-size="14.00">2,10 (Nickel plate)</text>
</g>
<!-- 3,16 (More Coke)&#45;&gt;2,10 (Nickel plate) -->
<g id="edge17" class="edge">
<title>3,16 (More Coke)&#45;&gt;2,10 (Nickel plate)</title>
<path fill="none" stroke="black" stroke-width="0.67" d="M263.38,-2848.85C410.3,-2995.78 1426.84,-4012.32 1600.31,-4185.79"/>
<polygon fill="black" stroke="black" stroke-width="0.67" points="1597.94,-4188.36 1607.48,-4192.96 1602.89,-4183.41 1597.94,-4188.36"/>
<text text-anchor="middle" x="889.34" y="-3521.12" font-family="Times,serif" font-size="14.00">coke*13184</text>
</g>
<!-- 2,&#45;1 (Ammonia) -->
<g id="node12" class="node">
<title>2,&#45;1 (Ammonia)</title>
<ellipse fill="none" stroke="black" cx="2289.55" cy="-4316.12" rx="81.49" ry="18"/>
<text text-anchor="middle" x="2289.55" y="-4312.42" font-family="Times,serif" font-size="14.00">2,&#45;1 (Ammonia)</text>
</g>
<!-- 3,16 (More Coke)&#45;&gt;2,&#45;1 (Ammonia) -->
<g id="edge9" class="edge">
<title>3,16 (More Coke)&#45;&gt;2,&#45;1 (Ammonia)</title>
<path fill="none" stroke="black" stroke-width="0.92" d="M269.7,-2848.6C480.63,-3001.86 2015.53,-4117.02 2257.48,-4292.81"/>
<polygon fill="black" stroke="black" stroke-width="0.92" points="2255.71,-4295.85 2265.85,-4298.9 2259.82,-4290.19 2255.71,-4295.85"/>
<text text-anchor="middle" x="1221.09" y="-3574.51" font-family="Times,serif" font-size="14.00">coke*18224</text>
</g>
<!-- &#45;2,&#45;3 (Trains) -->
<g id="node13" class="node">
<title>&#45;2,&#45;3 (Trains)</title>
<ellipse fill="none" stroke="black" cx="2953.65" cy="-123.18" rx="70.39" ry="18"/>
<text text-anchor="middle" x="2953.65" y="-119.48" font-family="Times,serif" font-size="14.00">&#45;2,&#45;3 (Trains)</text>
</g>
<!-- 3,16 (More Coke)&#45;&gt;&#45;2,&#45;3 (Trains) -->
<g id="edge10" class="edge">
<title>3,16 (More Coke)&#45;&gt;&#45;2,&#45;3 (Trains)</title>
<path fill="none" stroke="black" stroke-width="0.59" d="M263.69,-2813.14C484.65,-2592.18 2669.14,-407.69 2928.52,-148.31"/>
<polygon fill="black" stroke="black" stroke-width="0.59" points="2931.36,-150.42 2935.96,-140.87 2926.41,-145.47 2931.36,-150.42"/>
<text text-anchor="middle" x="1553.6" y="-1484.53" font-family="Times,serif" font-size="14.00">coke*11632</text>
</g>
<!-- 1,6 (Sodium Hydroxide, These new bullets are fun, Limestone) -->
<g id="node14" class="node">
<title>1,6 (Sodium Hydroxide, These new bullets are fun, Limestone)</title>
<ellipse fill="none" stroke="black" cx="2953.65" cy="-4210.93" rx="301.65" ry="18"/>
<text text-anchor="middle" x="2953.65" y="-4207.23" font-family="Times,serif" font-size="14.00">1,6 (Sodium Hydroxide, These new bullets are fun, Limestone)</text>
</g>
<!-- 3,16 (More Coke)&#45;&gt;1,6 (Sodium Hydroxide, These new bullets are fun, Limestone) -->
<g id="edge22" class="edge">
<title>3,16 (More Coke)&#45;&gt;1,6 (Sodium Hydroxide, These new bullets are fun, Limestone)</title>
<path fill="none" stroke="black" stroke-width="0.96" d="M278.94,-2848.1C563.28,-2992.98 2582.54,-4021.85 2909.1,-4188.23"/>
<polygon fill="black" stroke="black" stroke-width="0.96" points="2907.76,-4191.48 2918.26,-4192.9 2910.94,-4185.24 2907.76,-4191.48"/>
<text text-anchor="middle" x="1551.52" y="-3521.97" font-family="Times,serif" font-size="14.00">coke*18960</text>
</g>
<!-- &#45;4,&#45;2 (For Science!) -->
<g id="node15" class="node">
<title>&#45;4,&#45;2 (For Science!)</title>
<ellipse fill="none" stroke="black" cx="3552.74" cy="-3905.68" rx="98.58" ry="18"/>
<text text-anchor="middle" x="3552.74" y="-3901.98" font-family="Times,serif" font-size="14.00">&#45;4,&#45;2 (For Science!)</text>
</g>
<!-- 3,16 (More Coke)&#45;&gt;&#45;4,&#45;2 (For Science!) -->
<g id="edge36" class="edge">
<title>3,16 (More Coke)&#45;&gt;&#45;4,&#45;2 (For Science!)</title>
<path fill="none" stroke="black" stroke-width="0.38" d="M293.06,-2846.55C663.19,-2966.81 3087.24,-3754.43 3494.66,-3886.81"/>
<polygon fill="black" stroke="black" stroke-width="0.38" points="3493.6,-3890.15 3504.19,-3889.91 3495.76,-3883.49 3493.6,-3890.15"/>
<text text-anchor="middle" x="1855.86" y="-3370.48" font-family="Times,serif" font-size="14.00">coke*7504</text>
</g>
<!-- 1,12 (Molten Iron) -->
<g id="node17" class="node">
<title>1,12 (Molten Iron)</title>
<ellipse fill="none" stroke="black" cx="4333.43" cy="-1502.96" rx="95.58" ry="18"/>
<text text-anchor="middle" x="4333.43" y="-1499.26" font-family="Times,serif" font-size="14.00">1,12 (Molten Iron)</text>
</g>
<!-- 3,16 (More Coke)&#45;&gt;1,12 (Molten Iron) -->
<g id="edge31" class="edge">
<title>3,16 (More Coke)&#45;&gt;1,12 (Molten Iron)</title>
<path fill="none" stroke="black" stroke-width="0.55" d="M293,-2815.78C713.94,-2679.01 3812.02,-1672.38 4275.49,-1521.79"/>
<polygon fill="black" stroke="black" stroke-width="0.55" points="4276.88,-1525.02 4285.31,-1518.6 4274.72,-1518.36 4276.88,-1525.02"/>
<text text-anchor="middle" x="2241.74" y="-2172.58" font-family="Times,serif" font-size="14.00">coke*10816</text>
</g>
<!-- 4,&#45;2 (Ceramic) -->
<g id="node18" class="node">
<title>4,&#45;2 (Ceramic)</title>
<ellipse fill="none" stroke="black" cx="104.26" cy="-2877.1" rx="76.89" ry="18"/>
<text text-anchor="middle" x="104.26" y="-2873.4" font-family="Times,serif" font-size="14.00">4,&#45;2 (Ceramic)</text>
</g>
<!-- 3,16 (More Coke)&#45;&gt;4,&#45;2 (Ceramic) -->
<g id="edge19" class="edge">
<title>3,16 (More Coke)&#45;&gt;4,&#45;2 (Ceramic)</title>
<path fill="none" stroke="black" stroke-width="0.36" d="M198.2,-2846.58C185.66,-2850.65 172.04,-2855.08 159.15,-2859.27"/>
<polygon fill="black" stroke="black" stroke-width="0.36" points="157.9,-2856 149.47,-2862.41 160.06,-2862.65 157.9,-2856"/>
<text text-anchor="middle" x="216.67" y="-2856.73" font-family="Times,serif" font-size="14.00">coke*7184</text>
</g>
<!-- &#45;1,7 (Rayon) -->
<g id="node19" class="node">
<title>&#45;1,7 (Rayon)</title>
<ellipse fill="none" stroke="black" cx="4333.43" cy="-2831.15" rx="66.89" ry="18"/>
<text text-anchor="middle" x="4333.43" y="-2827.45" font-family="Times,serif" font-size="14.00">&#45;1,7 (Rayon)</text>
</g>
<!-- 3,16 (More Coke)&#45;&gt;&#45;1,7 (Rayon) -->
<g id="edge37" class="edge">
<title>3,16 (More Coke)&#45;&gt;&#45;1,7 (Rayon)</title>
<path fill="none" stroke="black" stroke-width="0.13" d="M336.79,-2831.15C885.94,-2831.15 3748.23,-2831.15 4256.28,-2831.15"/>
<polygon fill="black" stroke="black" stroke-width="0.13" points="4256.44,-2834.65 4266.44,-2831.15 4256.44,-2827.65 4256.44,-2834.65"/>
<text text-anchor="middle" x="2258.54" y="-2834.95" font-family="Times,serif" font-size="14.00">coke*2528</text>
</g>
<!-- 3,10 () -->
<g id="node20" class="node">
<title>3,10 ()</title>
<ellipse fill="none" stroke="black" cx="2289.55" cy="-18" rx="40.89" ry="18"/>
<text text-anchor="middle" x="2289.55" y="-14.3" font-family="Times,serif" font-size="14.00">3,10 ()</text>
</g>
<!-- 3,16 (More Coke)&#45;&gt;3,10 () -->
<g id="edge42" class="edge">
<title>3,16 (More Coke)&#45;&gt;3,10 ()</title>
<path fill="none" stroke="black" stroke-width="0.13" d="M258.73,-2813.19C422.53,-2587.74 2076.22,-311.63 2270.87,-43.71"/>
<polygon fill="black" stroke="black" stroke-width="0.13" points="2273.89,-45.51 2276.94,-35.37 2268.23,-41.4 2273.89,-45.51"/>
<text text-anchor="middle" x="1226.8" y="-1432.25" font-family="Times,serif" font-size="14.00">coke*2512</text>
</g>
<!-- &#45;3,&#45;2 (Depot) -->
<g id="node21" class="node">
<title>&#45;3,&#45;2 (Depot)</title>
<ellipse fill="none" stroke="black" cx="1625.46" cy="-123.18" rx="68.79" ry="18"/>
<text text-anchor="middle" x="1625.46" y="-119.48" font-family="Times,serif" font-size="14.00">&#45;3,&#45;2 (Depot)</text>
</g>
<!-- 3,16 (More Coke)&#45;&gt;&#45;3,&#45;2 (Depot) -->
<g id="edge35" class="edge">
<title>3,16 (More Coke)&#45;&gt;&#45;3,&#45;2 (Depot)</title>
<path fill="none" stroke="black" stroke-width="0.13" d="M254.85,-2813.14C367.16,-2592.73 1474.97,-418.54 1611.65,-150.28"/>
<polygon fill="black" stroke="black" stroke-width="0.13" points="1614.85,-151.72 1616.27,-141.22 1608.61,-148.54 1614.85,-151.72"/>
<text text-anchor="middle" x="895.25" y="-1485.51" font-family="Times,serif" font-size="14.00">coke*2528</text>
</g>
<!-- 3,4 () -->
<g id="node22" class="node">
<title>3,4 ()</title>
<ellipse fill="none" stroke="black" cx="4028.18" cy="-3430.24" rx="35.19" ry="18"/>
<text text-anchor="middle" x="4028.18" y="-3426.54" font-family="Times,serif" font-size="14.00">3,4 ()</text>
</g>
<!-- 3,16 (More Coke)&#45;&gt;3,4 () -->
<g id="edge47" class="edge">
<title>3,16 (More Coke)&#45;&gt;3,4 ()</title>
<path fill="none" stroke="black" stroke-width="0.14" d="M317.03,-2842.45C801.48,-2919.18 3600.37,-3362.48 3984.49,-3423.32"/>
<polygon fill="black" stroke="black" stroke-width="0.14" points="3983.96,-3426.78 3994.39,-3424.89 3985.06,-3419.87 3983.96,-3426.78"/>
<text text-anchor="middle" x="2112.76" y="-3136.69" font-family="Times,serif" font-size="14.00">coke*2800</text>
</g>
<!-- 2,8 (Graphite) -->
<g id="node3" class="node">
<title>2,8 (Graphite)</title>
<ellipse fill="none" stroke="black" cx="4438.61" cy="-2167.06" rx="76.09" ry="18"/>
<text text-anchor="middle" x="4438.61" y="-2163.36" font-family="Times,serif" font-size="14.00">2,8 (Graphite)</text>
</g>
<!-- 2,8 (Graphite)&#45;&gt;&#45;2,9 (molten steel) -->
<g id="edge2" class="edge">
<title>2,8 (Graphite)&#45;&gt;&#45;2,9 (molten steel)</title>
<path fill="none" stroke="black" stroke-width="1.52" d="M4393.61,-2152.44C3994,-2022.6 1057.62,-1068.51 608.49,-922.58"/>
<polygon fill="black" stroke="black" stroke-width="1.52" points="609.55,-919.24 598.95,-919.48 607.38,-925.9 609.55,-919.24"/>
<text text-anchor="middle" x="2458.55" y="-1541.31" font-family="Times,serif" font-size="14.00">coke*30049</text>
</g>
<!-- 2,8 (Graphite)&#45;&gt;&#45;5,1 (Acetylene) -->
<g id="edge29" class="edge">
<title>2,8 (Graphite)&#45;&gt;&#45;5,1 (Acetylene)</title>
<path fill="none" stroke="black" stroke-width="4.27" d="M4393.61,-2181.68C3993.58,-2311.66 1051.35,-3267.64 607.06,-3412"/>
<polygon fill="black" stroke="black" stroke-width="4.27" points="605.69,-3408.52 597.33,-3415.17 608,-3415.63 605.69,-3408.52"/>
<text text-anchor="middle" x="2457.83" y="-2800.64" font-family="Times,serif" font-size="14.00">coke*84335</text>
</g>
<!-- 2,8 (Graphite)&#45;&gt;&#45;2,6 (Wrong ratio of Calcium Carbide to Acetalene) -->
<g id="edge46" class="edge">
<title>2,8 (Graphite)&#45;&gt;&#45;2,6 (Wrong ratio of Calcium Carbide to Acetalene)</title>
<path fill="none" stroke="black" stroke-width="1.01" d="M4375.26,-2157.02C3906.37,-2082.76 976.13,-1618.65 359.49,-1520.99"/>
<polygon fill="black" stroke="black" stroke-width="1.01" points="359.69,-1517.48 349.26,-1519.37 358.59,-1524.39 359.69,-1517.48"/>
<text text-anchor="middle" x="2324.87" y="-1842.81" font-family="Times,serif" font-size="14.00">coke*20008</text>
</g>
<!-- 2,8 (Graphite)&#45;&gt;2,5 (Simple Circuits) -->
<g id="edge5" class="edge">
<title>2,8 (Graphite)&#45;&gt;2,5 (Simple Circuits)</title>
<path fill="none" stroke="black" stroke-width="0.87" d="M4362.19,-2167.06C3847.29,-2167.06 886.02,-2167.06 257.66,-2167.06"/>
<polygon fill="black" stroke="black" stroke-width="0.87" points="257.24,-2163.56 247.24,-2167.06 257.24,-2170.56 257.24,-2163.56"/>
<text text-anchor="middle" x="2352.42" y="-2170.86" font-family="Times,serif" font-size="14.00">coke*17237</text>
</g>
<!-- 2,8 (Graphite)&#45;&gt;&#45;5,&#45;4 (low priority (slaked)? lime) -->
<g id="edge45" class="edge">
<title>2,8 (Graphite)&#45;&gt;&#45;5,&#45;4 (low priority (slaked)? lime)</title>
<path fill="none" stroke="black" stroke-width="0.51" d="M4406.47,-2183.43C4084.48,-2347.5 1443.55,-3693.12 1070.19,-3883.35"/>
<polygon fill="black" stroke="black" stroke-width="0.51" points="1068.37,-3880.36 1061.05,-3888.01 1071.55,-3886.59 1068.37,-3880.36"/>
<text text-anchor="middle" x="2695.83" y="-3037.19" font-family="Times,serif" font-size="14.00">coke*10016</text>
</g>
<!-- 2,8 (Graphite)&#45;&gt;2,10 (Nickel plate) -->
<g id="edge44" class="edge">
<title>2,8 (Graphite)&#45;&gt;2,10 (Nickel plate)</title>
<path fill="none" stroke="black" stroke-width="2.03" d="M4414.72,-2184.42C4160.16,-2369.36 1951.74,-3973.87 1657.75,-4187.48"/>
<polygon fill="black" stroke="black" stroke-width="2.03" points="1655.64,-4184.68 1649.61,-4193.39 1659.76,-4190.34 1655.64,-4184.68"/>
<text text-anchor="middle" x="2993.73" y="-3189.75" font-family="Times,serif" font-size="14.00">coke*40028</text>
</g>
<!-- 2,8 (Graphite)&#45;&gt;2,&#45;1 (Ammonia) -->
<g id="edge34" class="edge">
<title>2,8 (Graphite)&#45;&gt;2,&#45;1 (Ammonia)</title>
<path fill="none" stroke="black" stroke-width="8.79" d="M4421,-2184.67C4229.63,-2376.04 2539.07,-4066.6 2314.22,-4291.45"/>
<polygon fill="black" stroke="black" stroke-width="8.79" points="2308.76,-4286.03 2307.13,-4298.54 2319.64,-4296.91 2308.76,-4286.03"/>
<text text-anchor="middle" x="3320.61" y="-3241.86" font-family="Times,serif" font-size="14.00">coke*173726</text>
</g>
<!-- 2,8 (Graphite)&#45;&gt;1,6 (Sodium Hydroxide, These new bullets are fun, Limestone) -->
<g id="edge41" class="edge">
<title>2,8 (Graphite)&#45;&gt;1,6 (Sodium Hydroxide, These new bullets are fun, Limestone)</title>
<path fill="none" stroke="black" stroke-width="0.2" d="M4425.55,-2185.04C4289.65,-2372.08 3135.95,-3960.01 2972.8,-4184.57"/>
<polygon fill="black" stroke="black" stroke-width="0.2" points="2969.85,-4182.69 2966.8,-4192.83 2975.51,-4186.8 2969.85,-4182.69"/>
<text text-anchor="middle" x="3661.18" y="-3188.6" font-family="Times,serif" font-size="14.00">coke*4000</text>
</g>
<!-- 2,8 (Graphite)&#45;&gt;&#45;4,&#45;2 (For Science!) -->
<g id="edge18" class="edge">
<title>2,8 (Graphite)&#45;&gt;&#45;4,&#45;2 (For Science!)</title>
<path fill="none" stroke="black" stroke-width="0.13" d="M4429.41,-2185.12C4342.79,-2355.12 3671.5,-3672.59 3566.53,-3878.62"/>
<polygon fill="black" stroke="black" stroke-width="0.13" points="3563.38,-3877.08 3561.96,-3887.58 3569.62,-3880.26 3563.38,-3877.08"/>
<text text-anchor="middle" x="3959.97" y="-3035.67" font-family="Times,serif" font-size="14.00">coke*2624</text>
</g>
<!-- &#45;1,10 (Iron Plates) -->
<g id="node16" class="node">
<title>&#45;1,10 (Iron Plates)</title>
<ellipse fill="none" stroke="black" cx="4647.43" cy="-1987.59" rx="94.78" ry="18"/>
<text text-anchor="middle" x="4647.43" y="-1983.89" font-family="Times,serif" font-size="14.00">&#45;1,10 (Iron Plates)</text>
</g>
<!-- 2,8 (Graphite)&#45;&gt;&#45;1,10 (Iron Plates) -->
<g id="edge14" class="edge">
<title>2,8 (Graphite)&#45;&gt;&#45;1,10 (Iron Plates)</title>
<path fill="none" stroke="black" stroke-width="1.3" d="M4459.01,-2149.52C4496.52,-2117.29 4576.47,-2048.57 4619.17,-2011.88"/>
<polygon fill="black" stroke="black" stroke-width="1.3" points="4621.64,-2014.37 4626.94,-2005.2 4617.08,-2009.06 4621.64,-2014.37"/>
<text text-anchor="middle" x="4496.59" y="-2084.5" font-family="Times,serif" font-size="14.00">coke*25590</text>
</g>
<!-- 2,8 (Graphite)&#45;&gt;1,12 (Molten Iron) -->
<g id="edge16" class="edge">
<title>2,8 (Graphite)&#45;&gt;1,12 (Molten Iron)</title>
<path fill="none" stroke="black" stroke-width="0.3" d="M4435.74,-2148.95C4421.21,-2057.21 4355.72,-1643.7 4337.91,-1531.26"/>
<polygon fill="black" stroke="black" stroke-width="0.3" points="4341.32,-1530.38 4336.29,-1521.05 4334.4,-1531.48 4341.32,-1530.38"/>
<text text-anchor="middle" x="4348.83" y="-1843.91" font-family="Times,serif" font-size="14.00">coke*5920</text>
</g>
<!-- 2,8 (Graphite)&#45;&gt;&#45;1,7 (Rayon) -->
<g id="edge21" class="edge">
<title>2,8 (Graphite)&#45;&gt;&#45;1,7 (Rayon)</title>
<path fill="none" stroke="black" stroke-width="0.19" d="M4435.74,-2185.17C4421.21,-2276.9 4355.72,-2690.41 4337.91,-2802.85"/>
<polygon fill="black" stroke="black" stroke-width="0.19" points="4334.4,-2802.64 4336.29,-2813.06 4341.32,-2803.73 4334.4,-2802.64"/>
<text text-anchor="middle" x="4348.83" y="-2497.81" font-family="Times,serif" font-size="14.00">coke*3754</text>
</g>
<!-- 2,8 (Graphite)&#45;&gt;3,4 () -->
<g id="edge43" class="edge">
<title>2,8 (Graphite)&#45;&gt;3,4 ()</title>
<path fill="none" stroke="black" stroke-width="1.27" d="M4432.65,-2185.4C4386.98,-2325.97 4092.78,-3231.43 4037.22,-3402.41"/>
<polygon fill="black" stroke="black" stroke-width="1.27" points="4033.81,-3401.58 4034.05,-3412.17 4040.47,-3403.74 4033.81,-3401.58"/>
<text text-anchor="middle" x="4192.44" y="-2797.71" font-family="Times,serif" font-size="14.00">coke*25002</text>
</g>
<!-- 3,9 (Copper, molten &amp; plate) -->
<g id="node23" class="node">
<title>3,9 (Copper, molten &amp; plate)</title>
<ellipse fill="none" stroke="black" cx="4650.63" cy="-2297.88" rx="143.77" ry="18"/>
<text text-anchor="middle" x="4650.63" y="-2294.18" font-family="Times,serif" font-size="14.00">3,9 (Copper, molten &amp; plate)</text>
</g>
<!-- 2,8 (Graphite)&#45;&gt;3,9 (Copper, molten &amp; plate) -->
<g id="edge39" class="edge">
<title>2,8 (Graphite)&#45;&gt;3,9 (Copper, molten &amp; plate)</title>
<path fill="none" stroke="black" stroke-width="0.55" d="M4465.9,-2183.89C4503.38,-2207.02 4570.95,-2248.72 4613.15,-2274.76"/>
<polygon fill="black" stroke="black" stroke-width="0.55" points="4611.41,-2277.79 4621.75,-2280.07 4615.08,-2271.84 4611.41,-2277.79"/>
<text text-anchor="middle" x="4497.02" y="-2233.13" font-family="Times,serif" font-size="14.00">coke*10912</text>
</g>
<!-- 2,12 (Yet more coke) -->
<g id="node5" class="node">
<title>2,12 (Yet more coke)</title>
<ellipse fill="none" stroke="black" cx="3552.74" cy="-428.43" rx="106.68" ry="18"/>
<text text-anchor="middle" x="3552.74" y="-424.73" font-family="Times,serif" font-size="14.00">2,12 (Yet more coke)</text>
</g>
<!-- 2,12 (Yet more coke)&#45;&gt;&#45;6,&#45;4 (High&#45;Power Resistors, Ceramic Capacitor, Inductor) -->
<g id="edge20" class="edge">
<title>2,12 (Yet more coke)&#45;&gt;&#45;6,&#45;4 (High&#45;Power Resistors, Ceramic Capacitor, Inductor)</title>
<path fill="none" stroke="black" stroke-width="0.68" d="M3445.8,-428.43C3080.47,-428.43 1873.75,-428.43 1314.98,-428.43"/>
<polygon fill="black" stroke="black" stroke-width="0.68" points="1314.76,-424.93 1304.76,-428.43 1314.76,-431.93 1314.76,-424.93"/>
<text text-anchor="middle" x="2337.89" y="-432.23" font-family="Times,serif" font-size="14.00">coke*13472</text>
</g>
<!-- 2,12 (Yet more coke)&#45;&gt;&#45;2,9 (molten steel) -->
<g id="edge30" class="edge">
<title>2,12 (Yet more coke)&#45;&gt;&#45;2,9 (molten steel)</title>
<path fill="none" stroke="black" stroke-width="1.22" d="M3474.76,-440.78C3054.92,-507.28 1066.58,-822.2 634.09,-890.7"/>
<polygon fill="black" stroke="black" stroke-width="1.22" points="633.5,-887.25 624.17,-892.27 634.59,-894.17 633.5,-887.25"/>
<text text-anchor="middle" x="2011.92" y="-669.54" font-family="Times,serif" font-size="14.00">coke*24128</text>
</g>
<!-- 2,12 (Yet more coke)&#45;&gt;&#45;5,1 (Acetylene) -->
<g id="edge3" class="edge">
<title>2,12 (Yet more coke)&#45;&gt;&#45;5,1 (Acetylene)</title>
<path fill="none" stroke="black" stroke-width="0.82" d="M3534.73,-446.44C3300.27,-680.91 850.54,-3130.64 575.92,-3405.25"/>
<polygon fill="black" stroke="black" stroke-width="0.82" points="573.38,-3402.84 568.78,-3412.39 578.33,-3407.79 573.38,-3402.84"/>
<text text-anchor="middle" x="2012.83" y="-1929.65" font-family="Times,serif" font-size="14.00">coke*16160</text>
</g>
<!-- 2,12 (Yet more coke)&#45;&gt;&#45;2,6 (Wrong ratio of Calcium Carbide to Acetalene) -->
<g id="edge23" class="edge">
<title>2,12 (Yet more coke)&#45;&gt;&#45;2,6 (Wrong ratio of Calcium Carbide to Acetalene)</title>
<path fill="none" stroke="black" stroke-width="1.36" d="M3503.42,-444.46C3128.63,-566.23 732.84,-1344.68 309.54,-1482.21"/>
<polygon fill="black" stroke="black" stroke-width="1.36" points="308.34,-1478.92 299.91,-1485.34 310.5,-1485.58 308.34,-1478.92"/>
<text text-anchor="middle" x="1863.98" y="-967.14" font-family="Times,serif" font-size="14.00">coke*26944</text>
</g>
<!-- 2,12 (Yet more coke)&#45;&gt;2,5 (Simple Circuits) -->
<g id="edge33" class="edge">
<title>2,12 (Yet more coke)&#45;&gt;2,5 (Simple Circuits)</title>
<path fill="none" stroke="black" stroke-width="0.81" d="M3518.97,-445.64C3189.48,-613.52 552.31,-1957.23 183.32,-2145.24"/>
<polygon fill="black" stroke="black" stroke-width="0.81" points="181.61,-2142.18 174.28,-2149.84 184.78,-2148.42 181.61,-2142.18"/>
<text text-anchor="middle" x="1808.64" y="-1299.24" font-family="Times,serif" font-size="14.00">coke*16080</text>
</g>
<!-- 2,12 (Yet more coke)&#45;&gt;&#45;5,&#45;4 (low priority (slaked)? lime) -->
<g id="edge6" class="edge">
<title>2,12 (Yet more coke)&#45;&gt;&#45;5,&#45;4 (low priority (slaked)? lime)</title>
<path fill="none" stroke="black" stroke-width="0.95" d="M3539.75,-446.31C3355.39,-700.06 1267.42,-3573.9 1045.44,-3879.43"/>
<polygon fill="black" stroke="black" stroke-width="0.95" points="1042.47,-3877.56 1039.43,-3887.71 1048.13,-3881.68 1042.47,-3877.56"/>
<text text-anchor="middle" x="2250.1" y="-2151.67" font-family="Times,serif" font-size="14.00">coke*18832</text>
</g>
<!-- 2,12 (Yet more coke)&#45;&gt;0,8 (Tar from Coke) -->
<g id="edge25" class="edge">
<title>2,12 (Yet more coke)&#45;&gt;0,8 (Tar from Coke)</title>
<path fill="none" stroke="black" stroke-width="1.36" d="M3570.51,-446.2C3643.25,-518.94 3918.42,-794.12 4003.18,-878.87"/>
<polygon fill="black" stroke="black" stroke-width="1.36" points="4000.77,-881.42 4010.32,-886.01 4005.72,-876.47 4000.77,-881.42"/>
<text text-anchor="middle" x="3744.34" y="-666.34" font-family="Times,serif" font-size="14.00">coke*26784</text>
</g>
<!-- 2,12 (Yet more coke)&#45;&gt;2,10 (Nickel plate) -->
<g id="edge8" class="edge">
<title>2,12 (Yet more coke)&#45;&gt;2,10 (Nickel plate)</title>
<path fill="none" stroke="black" stroke-width="0.95" d="M3543.5,-446.57C3407.14,-714.19 1804.95,-3858.67 1639.28,-4183.82"/>
<polygon fill="black" stroke="black" stroke-width="0.95" points="1636.01,-4182.51 1634.59,-4193.01 1642.25,-4185.69 1636.01,-4182.51"/>
<text text-anchor="middle" x="2548.89" y="-2318.99" font-family="Times,serif" font-size="14.00">coke*18800</text>
</g>
<!-- 2,12 (Yet more coke)&#45;&gt;2,&#45;1 (Ammonia) -->
<g id="edge15" class="edge">
<title>2,12 (Yet more coke)&#45;&gt;2,&#45;1 (Ammonia)</title>
<path fill="none" stroke="black" stroke-width="0.41" d="M3546.83,-446.63C3458.44,-718.66 2407.28,-3953.8 2298.61,-4288.23"/>
<polygon fill="black" stroke="black" stroke-width="0.41" points="2295.17,-4287.5 2295.41,-4298.09 2301.83,-4289.66 2295.17,-4287.5"/>
<text text-anchor="middle" x="2884.72" y="-2371.23" font-family="Times,serif" font-size="14.00">coke*8016</text>
</g>
<!-- 2,12 (Yet more coke)&#45;&gt;&#45;2,&#45;3 (Trains) -->
<g id="edge26" class="edge">
<title>2,12 (Yet more coke)&#45;&gt;&#45;2,&#45;3 (Trains)</title>
<path fill="none" stroke="black" stroke-width="0.75" d="M3518.81,-411.15C3415.65,-358.58 3105.94,-200.78 2994.31,-143.9"/>
<polygon fill="black" stroke="black" stroke-width="0.75" points="2995.88,-140.77 2985.38,-139.35 2992.7,-147.01 2995.88,-140.77"/>
<text text-anchor="middle" x="3214.06" y="-281.32" font-family="Times,serif" font-size="14.00">coke*14784</text>
</g>
<!-- 2,12 (Yet more coke)&#45;&gt;1,6 (Sodium Hydroxide, These new bullets are fun, Limestone) -->
<g id="edge11" class="edge">
<title>2,12 (Yet more coke)&#45;&gt;1,6 (Sodium Hydroxide, These new bullets are fun, Limestone)</title>
<path fill="none" stroke="black" stroke-width="1.22" d="M3549.87,-446.57C3507.54,-713.79 3010.93,-3849.27 2958.18,-4182.34"/>
<polygon fill="black" stroke="black" stroke-width="1.22" points="2954.66,-4182.17 2956.55,-4192.59 2961.58,-4183.27 2954.66,-4182.17"/>
<text text-anchor="middle" x="3211.52" y="-2318.25" font-family="Times,serif" font-size="14.00">coke*24112</text>
</g>
<!-- 2,12 (Yet more coke)&#45;&gt;&#45;4,&#45;2 (For Science!) -->
<g id="edge13" class="edge">
<title>2,12 (Yet more coke)&#45;&gt;&#45;4,&#45;2 (For Science!)</title>
<path fill="none" stroke="black" stroke-width="0.14" d="M3552.74,-446.73C3552.74,-702.52 3552.74,-3559.99 3552.74,-3877.13"/>
<polygon fill="black" stroke="black" stroke-width="0.14" points="3549.24,-3877.33 3552.74,-3887.33 3556.24,-3877.33 3549.24,-3877.33"/>
<text text-anchor="middle" x="3514.74" y="-2165.73" font-family="Times,serif" font-size="14.00">coke*2704</text>
</g>
<!-- 2,12 (Yet more coke)&#45;&gt;3,10 () -->
<g id="edge27" class="edge">
<title>2,12 (Yet more coke)&#45;&gt;3,10 ()</title>
<path fill="none" stroke="black" stroke-width="0.67" d="M3503.22,-412.34C3298.99,-345.98 2523.82,-94.12 2332.46,-31.94"/>
<polygon fill="black" stroke="black" stroke-width="0.67" points="2333.35,-28.55 2322.75,-28.79 2331.18,-35.21 2333.35,-28.55"/>
<text text-anchor="middle" x="2875.34" y="-225.94" font-family="Times,serif" font-size="14.00">coke*13328</text>
</g>
<!-- 2,12 (Yet more coke)&#45;&gt;&#45;3,&#45;2 (Depot) -->
<g id="edge40" class="edge">
<title>2,12 (Yet more coke)&#45;&gt;&#45;3,&#45;2 (Depot)</title>
<path fill="none" stroke="black" stroke-width="0.27" d="M3474.8,-416.09C3160.92,-366.37 1992.03,-181.24 1694.64,-134.14"/>
<polygon fill="black" stroke="black" stroke-width="0.27" points="1694.85,-130.63 1684.43,-132.52 1693.76,-137.54 1694.85,-130.63"/>
<text text-anchor="middle" x="2546.72" y="-278.91" font-family="Times,serif" font-size="14.00">coke*5376</text>
</g>
<!-- 2,12 (Yet more coke)&#45;&gt;3,4 () -->
<g id="edge38" class="edge">
<title>2,12 (Yet more coke)&#45;&gt;3,4 ()</title>
<path fill="none" stroke="black" stroke-width="0.14" d="M3555.59,-446.44C3592.58,-679.98 3977.66,-3111.26 4023.69,-3401.88"/>
<polygon fill="black" stroke="black" stroke-width="0.14" points="4020.27,-3402.7 4025.29,-3412.02 4027.19,-3401.6 4020.27,-3402.7"/>
<text text-anchor="middle" x="3751.64" y="-1927.96" font-family="Times,serif" font-size="14.00">coke*2688</text>
</g>
</g>
</svg>
