<?xml version="1.0" encoding="UTF-8" standalone="no"?>
<!DOCTYPE svg PUBLIC "-//W3C//DTD SVG 1.1//EN"
 "http://www.w3.org/Graphics/SVG/1.1/DTD/svg11.dtd">
<!-- Generated by graphviz version 2.43.0 (0)
 -->
<!-- Title: %3 Pages: 1 -->
<svg width="1038pt" height="44pt"
 viewBox="0.00 0.00 1037.98 44.00" xmlns="http://www.w3.org/2000/svg" xmlns:xlink="http://www.w3.org/1999/xlink">
<g id="graph0" class="graph" transform="scale(1 1) rotate(0) translate(4 40)">
<title>%3</title>
<polygon fill="white" stroke="transparent" points="-4,4 -4,-40 1033.98,-40 1033.98,4 -4,4"/>
<!-- 9,0 (Iron / Nickel mine) -->
<g id="node1" class="node">
<title>9,0 (Iron / Nickel mine)</title>
<ellipse fill="none" stroke="black" cx="476.52" cy="-18" rx="118.08" ry="18"/>
<text text-anchor="middle" x="476.52" y="-14.3" font-family="Times,serif" font-size="14.00">9,0 (Iron / Nickel mine)</text>
</g>
<!-- &#45;6,7 (Iron ore dust) -->
<g id="node2" class="node">
<title>&#45;6,7 (Iron ore dust)</title>
<ellipse fill="none" stroke="black" cx="765.6" cy="-18" rx="98.58" ry="18"/>
<text text-anchor="middle" x="765.6" y="-14.3" font-family="Times,serif" font-size="14.00">&#45;6,7 (Iron ore dust)</text>
</g>
<!-- 9,0 (Iron / Nickel mine)&#45;&gt;&#45;6,7 (Iron ore dust) -->
<g id="edge1" class="edge">
<title>9,0 (Iron / Nickel mine)&#45;&gt;&#45;6,7 (Iron ore dust)</title>
<path fill="none" stroke="black" stroke-width="1.94" d="M594.93,-18C615.34,-18 636.47,-18 656.61,-18"/>
<polygon fill="black" stroke="black" stroke-width="1.94" points="656.73,-21.5 666.73,-18 656.73,-14.5 656.73,-21.5"/>
<text text-anchor="middle" x="625.77" y="-6.8" font-family="Times,serif" font-size="14.00">iron&#45;ore*266520</text>
</g>
<!-- 1,10 (Iron Ore Dust) -->
<g id="node3" class="node">
<title>1,10 (Iron Ore Dust)</title>
<ellipse fill="none" stroke="black" cx="104.64" cy="-18" rx="104.78" ry="18"/>
<text text-anchor="middle" x="104.64" y="-14.3" font-family="Times,serif" font-size="14.00">1,10 (Iron Ore Dust)</text>
</g>
<!-- 9,0 (Iron / Nickel mine)&#45;&gt;1,10 (Iron Ore Dust) -->
<g id="edge2" class="edge">
<title>9,0 (Iron / Nickel mine)&#45;&gt;1,10 (Iron Ore Dust)</title>
<path fill="none" stroke="black" stroke-width="0.29" d="M358.09,-18C313.8,-18 263.61,-18 219.64,-18"/>
<polygon fill="black" stroke="black" stroke-width="0.29" points="219.48,-14.5 209.48,-18 219.48,-21.5 219.48,-14.5"/>
<text text-anchor="middle" x="288.86" y="-6.8" font-family="Times,serif" font-size="14.00">iron&#45;ore*40440</text>
</g>
<!-- &#45;10,&#45;4 () -->
<g id="node4" class="node">
<title>&#45;10,&#45;4 ()</title>
<ellipse fill="none" stroke="black" cx="983.19" cy="-18" rx="46.59" ry="18"/>
<text text-anchor="middle" x="983.19" y="-14.3" font-family="Times,serif" font-size="14.00">&#45;10,&#45;4 ()</text>
</g>
<!-- &#45;10,&#45;4 ()&#45;&gt;&#45;6,7 (Iron ore dust) -->
<g id="edge3" class="edge">
<title>&#45;10,&#45;4 ()&#45;&gt;&#45;6,7 (Iron ore dust)</title>
<path fill="none" stroke="black" stroke-width="0.76" d="M936.24,-18C918.12,-18 896.57,-18 875,-18"/>
<polygon fill="black" stroke="black" stroke-width="0.76" points="874.76,-14.5 864.76,-18 874.76,-21.5 874.76,-14.5"/>
<text text-anchor="middle" x="876.12" y="-6.8" font-family="Times,serif" font-size="14.00">iron&#45;ore*104544</text>
</g>
</g>
</svg>
