<?xml version="1.0" encoding="UTF-8" standalone="no"?>
<!DOCTYPE svg PUBLIC "-//W3C//DTD SVG 1.1//EN"
 "http://www.w3.org/Graphics/SVG/1.1/DTD/svg11.dtd">
<!-- Generated by graphviz version 2.43.0 (0)
 -->
<!-- Title: %3 Pages: 1 -->
<svg width="1068pt" height="44pt"
 viewBox="0.00 0.00 1068.42 44.00" xmlns="http://www.w3.org/2000/svg" xmlns:xlink="http://www.w3.org/1999/xlink">
<g id="graph0" class="graph" transform="scale(1 1) rotate(0) translate(4 40)">
<title>%3</title>
<polygon fill="white" stroke="transparent" points="-4,4 -4,-40 1064.42,-40 1064.42,4 -4,4"/>
<!-- &#45;2,2 (Robutt superhighway) -->
<g id="node1" class="node">
<title>&#45;2,2 (Robutt superhighway)</title>
<ellipse fill="none" stroke="black" cx="137.79" cy="-18" rx="137.58" ry="18"/>
<text text-anchor="middle" x="137.79" y="-14.3" font-family="Times,serif" font-size="14.00">&#45;2,2 (Robutt superhighway)</text>
</g>
<!-- &#45;6,&#45;3 (Chromite Sand) -->
<g id="node2" class="node">
<title>&#45;6,&#45;3 (Chromite Sand)</title>
<ellipse fill="none" stroke="black" cx="458.07" cy="-18" rx="110.48" ry="18"/>
<text text-anchor="middle" x="458.07" y="-14.3" font-family="Times,serif" font-size="14.00">&#45;6,&#45;3 (Chromite Sand)</text>
</g>
<!-- &#45;2,2 (Robutt superhighway)&#45;&gt;&#45;6,&#45;3 (Chromite Sand) -->
<g id="edge1" class="edge">
<title>&#45;2,2 (Robutt superhighway)&#45;&gt;&#45;6,&#45;3 (Chromite Sand)</title>
<path fill="none" stroke="black" stroke-width="1.05" d="M275.94,-18C296.36,-18 317.27,-18 337.3,-18"/>
<polygon fill="black" stroke="black" stroke-width="1.05" points="337.37,-21.5 347.37,-18 337.37,-14.5 337.37,-21.5"/>
<text text-anchor="middle" x="306.62" y="-6.8" font-family="Times,serif" font-size="14.00">ore&#45;chromium*181640</text>
</g>
<!-- &#45;3,&#45;1 (item=boron&#45;trioxide Boron products) -->
<g id="node3" class="node">
<title>&#45;3,&#45;1 (item=boron&#45;trioxide Boron products)</title>
<ellipse fill="none" stroke="black" cx="850.49" cy="-18" rx="209.86" ry="18"/>
<text text-anchor="middle" x="850.49" y="-14.3" font-family="Times,serif" font-size="14.00">&#45;3,&#45;1 (item=boron&#45;trioxide Boron products)</text>
</g>
<!-- &#45;3,&#45;1 (item=boron&#45;trioxide Boron products)&#45;&gt;&#45;6,&#45;3 (Chromite Sand) -->
<g id="edge2" class="edge">
<title>&#45;3,&#45;1 (item=boron&#45;trioxide Boron products)&#45;&gt;&#45;6,&#45;3 (Chromite Sand)</title>
<path fill="none" stroke="black" stroke-width="0.95" d="M640.49,-18C619.39,-18 598.5,-18 578.8,-18"/>
<polygon fill="black" stroke="black" stroke-width="0.95" points="578.62,-14.5 568.62,-18 578.62,-21.5 578.62,-14.5"/>
<text text-anchor="middle" x="569.4" y="-6.8" font-family="Times,serif" font-size="14.00">ore&#45;chromium*164128</text>
</g>
</g>
</svg>
