<?xml version="1.0" encoding="UTF-8" standalone="no"?>
<!DOCTYPE svg PUBLIC "-//W3C//DTD SVG 1.1//EN"
 "http://www.w3.org/Graphics/SVG/1.1/DTD/svg11.dtd">
<!-- Generated by graphviz version 2.43.0 (0)
 -->
<!-- Title: %3 Pages: 1 -->
<svg width="933pt" height="44pt"
 viewBox="0.00 0.00 932.58 44.00" xmlns="http://www.w3.org/2000/svg" xmlns:xlink="http://www.w3.org/1999/xlink">
<g id="graph0" class="graph" transform="scale(1 1) rotate(0) translate(4 40)">
<title>%3</title>
<polygon fill="white" stroke="transparent" points="-4,4 -4,-40 928.58,-40 928.58,4 -4,4"/>
<!-- 1,12 (Molten Iron) -->
<g id="node1" class="node">
<title>1,12 (Molten Iron)</title>
<ellipse fill="none" stroke="black" cx="434.67" cy="-18" rx="95.58" ry="18"/>
<text text-anchor="middle" x="434.67" y="-14.3" font-family="Times,serif" font-size="14.00">1,12 (Molten Iron)</text>
</g>
<!-- &#45;1,11 (Steel Plate (from molten)) -->
<g id="node2" class="node">
<title>&#45;1,11 (Steel Plate (from molten))</title>
<ellipse fill="none" stroke="black" cx="763.4" cy="-18" rx="161.37" ry="18"/>
<text text-anchor="middle" x="763.4" y="-14.3" font-family="Times,serif" font-size="14.00">&#45;1,11 (Steel Plate (from molten))</text>
</g>
<!-- 1,12 (Molten Iron)&#45;&gt;&#45;1,11 (Steel Plate (from molten)) -->
<g id="edge1" class="edge">
<title>1,12 (Molten Iron)&#45;&gt;&#45;1,11 (Steel Plate (from molten))</title>
<path fill="none" stroke="black" stroke-width="1.98" d="M530.63,-18C550.02,-18 570.95,-18 592.04,-18"/>
<polygon fill="black" stroke="black" stroke-width="1.98" points="592.06,-21.5 602.06,-18 592.06,-14.5 592.06,-21.5"/>
<text text-anchor="middle" x="561.33" y="-6.8" font-family="Times,serif" font-size="14.00">molten&#45;iron&#45;barrel*58144</text>
</g>
<!-- 2,1 (Niobium plates) -->
<g id="node3" class="node">
<title>2,1 (Niobium plates)</title>
<ellipse fill="none" stroke="black" cx="105.94" cy="-18" rx="105.88" ry="18"/>
<text text-anchor="middle" x="105.94" y="-14.3" font-family="Times,serif" font-size="14.00">2,1 (Niobium plates)</text>
</g>
<!-- 1,12 (Molten Iron)&#45;&gt;2,1 (Niobium plates) -->
<g id="edge2" class="edge">
<title>1,12 (Molten Iron)&#45;&gt;2,1 (Niobium plates)</title>
<path fill="none" stroke="black" stroke-width="0.02" d="M338.7,-18C302.26,-18 260.35,-18 222.23,-18"/>
<polygon fill="black" stroke="black" stroke-width="0.02" points="222.11,-14.5 212.11,-18 222.11,-21.5 222.11,-14.5"/>
<text text-anchor="middle" x="280.47" y="-6.8" font-family="Times,serif" font-size="14.00">molten&#45;iron&#45;barrel*528</text>
</g>
</g>
</svg>
