<?xml version="1.0" encoding="UTF-8" standalone="no"?>
<!DOCTYPE svg PUBLIC "-//W3C//DTD SVG 1.1//EN"
 "http://www.w3.org/Graphics/SVG/1.1/DTD/svg11.dtd">
<!-- Generated by graphviz version 2.43.0 (0)
 -->
<!-- Title: %3 Pages: 1 -->
<svg width="2960pt" height="2394pt"
 viewBox="0.00 0.00 2960.45 2394.47" xmlns="http://www.w3.org/2000/svg" xmlns:xlink="http://www.w3.org/1999/xlink">
<g id="graph0" class="graph" transform="scale(1 1) rotate(0) translate(4 2390.47)">
<title>%3</title>
<polygon fill="white" stroke="transparent" points="-4,4 -4,-2390.47 2956.45,-2390.47 2956.45,4 -4,4"/>
<!-- &#45;2,7 (item=borax Borax) -->
<g id="node1" class="node">
<title>&#45;2,7 (item=borax Borax)</title>
<ellipse fill="none" stroke="black" cx="351.78" cy="-1780.85" rx="123.48" ry="18"/>
<text text-anchor="middle" x="351.78" y="-1777.15" font-family="Times,serif" font-size="14.00">&#45;2,7 (item=borax Borax)</text>
</g>
<!-- 4,3 (item=nexelit&#45;plate Nexelit platery) -->
<g id="node2" class="node">
<title>4,3 (item=nexelit&#45;plate Nexelit platery)</title>
<ellipse fill="none" stroke="black" cx="194.33" cy="-1193.24" rx="194.17" ry="18"/>
<text text-anchor="middle" x="194.33" y="-1189.54" font-family="Times,serif" font-size="14.00">4,3 (item=nexelit&#45;plate Nexelit platery)</text>
</g>
<!-- &#45;2,7 (item=borax Borax)&#45;&gt;4,3 (item=nexelit&#45;plate Nexelit platery) -->
<g id="edge1" class="edge">
<title>&#45;2,7 (item=borax Borax)&#45;&gt;4,3 (item=nexelit&#45;plate Nexelit platery)</title>
<path fill="none" stroke="black" stroke-width="8.39" d="M346.9,-1762.62C324.24,-1678.05 229.31,-1323.76 201.82,-1221.18"/>
<polygon fill="black" stroke="black" stroke-width="8.39" points="208.84,-1219.01 199.16,-1211.25 194.66,-1222.81 208.84,-1219.01"/>
<text text-anchor="middle" x="179.36" y="-1495.7" font-family="Times,serif" font-size="14.00">dirty&#45;water&#45;barrel*175618</text>
</g>
<!-- 5,2 (Raw Fiber) -->
<g id="node4" class="node">
<title>5,2 (Raw Fiber)</title>
<ellipse fill="none" stroke="black" cx="2387.35" cy="-605.62" rx="83.39" ry="18"/>
<text text-anchor="middle" x="2387.35" y="-601.92" font-family="Times,serif" font-size="14.00">5,2 (Raw Fiber)</text>
</g>
<!-- &#45;2,7 (item=borax Borax)&#45;&gt;5,2 (Raw Fiber) -->
<g id="edge10" class="edge">
<title>&#45;2,7 (item=borax Borax)&#45;&gt;5,2 (Raw Fiber)</title>
<path fill="none" stroke="black" stroke-width="0.75" d="M382.14,-1763.33C613.09,-1629.99 2090.83,-776.81 2348.92,-627.8"/>
<polygon fill="black" stroke="black" stroke-width="0.75" points="2351.02,-630.64 2357.93,-622.61 2347.52,-624.57 2351.02,-630.64"/>
<text text-anchor="middle" x="1275.03" y="-1199.37" font-family="Times,serif" font-size="14.00">dirty&#45;water&#45;barrel*15692</text>
</g>
<!-- &#45;3,1 (Logistic science pack, Automation Science (TODO)) -->
<g id="node10" class="node">
<title>&#45;3,1 (Logistic science pack, Automation Science (TODO))</title>
<ellipse fill="none" stroke="black" cx="2387.35" cy="-1780.85" rx="271.85" ry="18"/>
<text text-anchor="middle" x="2387.35" y="-1777.15" font-family="Times,serif" font-size="14.00">&#45;3,1 (Logistic science pack, Automation Science (TODO))</text>
</g>
<!-- &#45;2,7 (item=borax Borax)&#45;&gt;&#45;3,1 (Logistic science pack, Automation Science (TODO)) -->
<g id="edge28" class="edge">
<title>&#45;2,7 (item=borax Borax)&#45;&gt;&#45;3,1 (Logistic science pack, Automation Science (TODO))</title>
<path fill="none" stroke="black" stroke-width="0.1" d="M475.29,-1780.85C794.9,-1780.85 1655.46,-1780.85 2105.06,-1780.85"/>
<polygon fill="black" stroke="black" stroke-width="0.1" points="2105.28,-1784.35 2115.28,-1780.85 2105.28,-1777.35 2105.28,-1784.35"/>
<text text-anchor="middle" x="1204.18" y="-1784.65" font-family="Times,serif" font-size="14.00">dirty&#45;water&#45;barrel*2048</text>
</g>
<!-- &#45;3,7 (item=sea&#45;sponge&#45;sprouts Also Borax) -->
<g id="node12" class="node">
<title>&#45;3,7 (item=sea&#45;sponge&#45;sprouts Also Borax)</title>
<ellipse fill="none" stroke="black" cx="781.95" cy="-2211.02" rx="209.06" ry="18"/>
<text text-anchor="middle" x="781.95" y="-2207.32" font-family="Times,serif" font-size="14.00">&#45;3,7 (item=sea&#45;sponge&#45;sprouts Also Borax)</text>
</g>
<!-- &#45;2,7 (item=borax Borax)&#45;&gt;&#45;3,7 (item=sea&#45;sponge&#45;sprouts Also Borax) -->
<g id="edge17" class="edge">
<title>&#45;2,7 (item=borax Borax)&#45;&gt;&#45;3,7 (item=sea&#45;sponge&#45;sprouts Also Borax)</title>
<path fill="none" stroke="black" stroke-width="0.17" d="M369.72,-1798.79C437.5,-1866.57 678.14,-2107.2 756.84,-2185.91"/>
<polygon fill="black" stroke="black" stroke-width="0.17" points="754.39,-2188.41 763.94,-2193.01 759.34,-2183.46 754.39,-2188.41"/>
<text text-anchor="middle" x="477.28" y="-1996.15" font-family="Times,serif" font-size="14.00">dirty&#45;water&#45;barrel*3544</text>
</g>
<!-- &#45;2,9 (molten steel) -->
<g id="node3" class="node">
<title>&#45;2,9 (molten steel)</title>
<ellipse fill="none" stroke="black" cx="351.78" cy="-605.62" rx="95.58" ry="18"/>
<text text-anchor="middle" x="351.78" y="-601.92" font-family="Times,serif" font-size="14.00">&#45;2,9 (molten steel)</text>
</g>
<!-- &#45;2,9 (molten steel)&#45;&gt;4,3 (item=nexelit&#45;plate Nexelit platery) -->
<g id="edge5" class="edge">
<title>&#45;2,9 (molten steel)&#45;&gt;4,3 (item=nexelit&#45;plate Nexelit platery)</title>
<path fill="none" stroke="black" stroke-width="2.38" d="M346.9,-623.85C324.24,-708.42 229.31,-1062.71 201.82,-1165.3"/>
<polygon fill="black" stroke="black" stroke-width="2.38" points="198.37,-1164.65 199.16,-1175.22 205.13,-1166.46 198.37,-1164.65"/>
<text text-anchor="middle" x="183.86" y="-898.37" font-family="Times,serif" font-size="14.00">dirty&#45;water&#45;barrel*49747</text>
</g>
<!-- &#45;2,9 (molten steel)&#45;&gt;5,2 (Raw Fiber) -->
<g id="edge2" class="edge">
<title>&#45;2,9 (molten steel)&#45;&gt;5,2 (Raw Fiber)</title>
<path fill="none" stroke="black" stroke-width="0.2" d="M447.57,-605.62C790.5,-605.62 1954.59,-605.62 2293.85,-605.62"/>
<polygon fill="black" stroke="black" stroke-width="0.2" points="2293.88,-609.12 2303.88,-605.62 2293.88,-602.12 2293.88,-609.12"/>
<text text-anchor="middle" x="1284.71" y="-609.42" font-family="Times,serif" font-size="14.00">dirty&#45;water&#45;barrel*4184</text>
</g>
<!-- &#45;2,9 (molten steel)&#45;&gt;&#45;3,7 (item=sea&#45;sponge&#45;sprouts Also Borax) -->
<g id="edge23" class="edge">
<title>&#45;2,9 (molten steel)&#45;&gt;&#45;3,7 (item=sea&#45;sponge&#45;sprouts Also Borax)</title>
<path fill="none" stroke="black" stroke-width="0.07" d="M356.62,-623.65C399.94,-785.33 721.26,-1984.52 774.49,-2183.18"/>
<polygon fill="black" stroke="black" stroke-width="0.07" points="771.12,-2184.12 777.09,-2192.87 777.88,-2182.3 771.12,-2184.12"/>
<text text-anchor="middle" x="479.55" y="-1407.21" font-family="Times,serif" font-size="14.00">dirty&#45;water&#45;barrel*1434</text>
</g>
<!-- 4,2 (More fiberboard) -->
<g id="node5" class="node">
<title>4,2 (More fiberboard)</title>
<ellipse fill="none" stroke="black" cx="2645.82" cy="-18.24" rx="111.28" ry="18"/>
<text text-anchor="middle" x="2645.82" y="-14.54" font-family="Times,serif" font-size="14.00">4,2 (More fiberboard)</text>
</g>
<!-- 4,&#45;1 (Fluid) -->
<g id="node6" class="node">
<title>4,&#45;1 (Fluid)</title>
<ellipse fill="none" stroke="black" cx="2890.71" cy="-18.24" rx="61.99" ry="18"/>
<text text-anchor="middle" x="2890.71" y="-14.54" font-family="Times,serif" font-size="14.00">4,&#45;1 (Fluid)</text>
</g>
<!-- 4,2 (More fiberboard)&#45;&gt;4,&#45;1 (Fluid) -->
<g id="edge3" class="edge">
<title>4,2 (More fiberboard)&#45;&gt;4,&#45;1 (Fluid)</title>
<path fill="none" stroke="black" stroke-width="0.02" d="M2757.16,-18.24C2778.04,-18.24 2799.36,-18.24 2818.66,-18.24"/>
<polygon fill="black" stroke="black" stroke-width="0.02" points="2818.85,-21.74 2828.85,-18.24 2818.85,-14.74 2818.85,-21.74"/>
<text text-anchor="middle" x="2787.91" y="-7.04" font-family="Times,serif" font-size="14.00">dirty&#45;water&#45;barrel*512</text>
</g>
<!-- 1,12 (Molten Iron) -->
<g id="node7" class="node">
<title>1,12 (Molten Iron)</title>
<ellipse fill="none" stroke="black" cx="1369.57" cy="-18" rx="95.58" ry="18"/>
<text text-anchor="middle" x="1369.57" y="-14.3" font-family="Times,serif" font-size="14.00">1,12 (Molten Iron)</text>
</g>
<!-- 1,12 (Molten Iron)&#45;&gt;4,3 (item=nexelit&#45;plate Nexelit platery) -->
<g id="edge4" class="edge">
<title>1,12 (Molten Iron)&#45;&gt;4,3 (item=nexelit&#45;plate Nexelit platery)</title>
<path fill="none" stroke="black" stroke-width="1.03" d="M1351.58,-35.99C1217.68,-169.89 377.21,-1010.36 219.74,-1167.83"/>
<polygon fill="black" stroke="black" stroke-width="1.03" points="216.95,-1165.67 212.35,-1175.21 221.9,-1170.62 216.95,-1165.67"/>
<text text-anchor="middle" x="695.16" y="-605.71" font-family="Times,serif" font-size="14.00">dirty&#45;water&#45;barrel*21600</text>
</g>
<!-- 1,12 (Molten Iron)&#45;&gt;5,2 (Raw Fiber) -->
<g id="edge11" class="edge">
<title>1,12 (Molten Iron)&#45;&gt;5,2 (Raw Fiber)</title>
<path fill="none" stroke="black" stroke-width="0.47" d="M1399.48,-35.27C1545.78,-119.74 2185.62,-489.15 2349.17,-583.57"/>
<polygon fill="black" stroke="black" stroke-width="0.47" points="2347.52,-586.66 2357.93,-588.63 2351.02,-580.6 2347.52,-586.66"/>
<text text-anchor="middle" x="1788.32" y="-313.22" font-family="Times,serif" font-size="14.00">dirty&#45;water&#45;barrel*9792</text>
</g>
<!-- 1,12 (Molten Iron)&#45;&gt;&#45;3,7 (item=sea&#45;sponge&#45;sprouts Also Borax) -->
<g id="edge21" class="edge">
<title>1,12 (Molten Iron)&#45;&gt;&#45;3,7 (item=sea&#45;sponge&#45;sprouts Also Borax)</title>
<path fill="none" stroke="black" stroke-width="0.1" d="M1364.66,-36.3C1312.12,-232.39 853.77,-1942.99 789.44,-2183.07"/>
<polygon fill="black" stroke="black" stroke-width="0.1" points="786.04,-2182.23 786.83,-2192.79 792.8,-2184.04 786.04,-2182.23"/>
<text text-anchor="middle" x="991.05" y="-1113.49" font-family="Times,serif" font-size="14.00">dirty&#45;water&#45;barrel*2000</text>
</g>
<!-- &#45;1,10 (Iron Plates) -->
<g id="node8" class="node">
<title>&#45;1,10 (Iron Plates)</title>
<ellipse fill="none" stroke="black" cx="1369.57" cy="-2368.47" rx="94.78" ry="18"/>
<text text-anchor="middle" x="1369.57" y="-2364.77" font-family="Times,serif" font-size="14.00">&#45;1,10 (Iron Plates)</text>
</g>
<!-- &#45;1,10 (Iron Plates)&#45;&gt;4,3 (item=nexelit&#45;plate Nexelit platery) -->
<g id="edge6" class="edge">
<title>&#45;1,10 (Iron Plates)&#45;&gt;4,3 (item=nexelit&#45;plate Nexelit platery)</title>
<path fill="none" stroke="black" stroke-width="5.6" d="M1351.58,-2350.48C1217.68,-2216.58 377.21,-1376.11 219.74,-1218.64"/>
<polygon fill="black" stroke="black" stroke-width="5.6" points="222.89,-1214.86 212.35,-1211.26 215.96,-1221.8 222.89,-1214.86"/>
<text text-anchor="middle" x="690.66" y="-1788.36" font-family="Times,serif" font-size="14.00">dirty&#45;water&#45;barrel*117280</text>
</g>
<!-- &#45;1,10 (Iron Plates)&#45;&gt;5,2 (Raw Fiber) -->
<g id="edge12" class="edge">
<title>&#45;1,10 (Iron Plates)&#45;&gt;5,2 (Raw Fiber)</title>
<path fill="none" stroke="black" stroke-width="0.81" d="M1379.97,-2350.45C1478.89,-2179.12 2252.34,-839.47 2371.86,-632.45"/>
<polygon fill="black" stroke="black" stroke-width="0.81" points="2374.94,-634.12 2376.9,-623.71 2368.87,-630.62 2374.94,-634.12"/>
<text text-anchor="middle" x="1785.42" y="-1495.25" font-family="Times,serif" font-size="14.00">dirty&#45;water&#45;barrel*17040</text>
</g>
<!-- &#45;1,10 (Iron Plates)&#45;&gt;&#45;3,1 (Logistic science pack, Automation Science (TODO)) -->
<g id="edge9" class="edge">
<title>&#45;1,10 (Iron Plates)&#45;&gt;&#45;3,1 (Logistic science pack, Automation Science (TODO))</title>
<path fill="none" stroke="black" stroke-width="0.15" d="M1399.2,-2351.36C1544.33,-2267.57 2179.78,-1900.7 2346.94,-1804.18"/>
<polygon fill="black" stroke="black" stroke-width="0.15" points="2349,-1807.03 2355.91,-1799 2345.5,-1800.97 2349,-1807.03"/>
<text text-anchor="middle" x="1787.07" y="-2081.57" font-family="Times,serif" font-size="14.00">dirty&#45;water&#45;barrel*3088</text>
</g>
<!-- &#45;1,10 (Iron Plates)&#45;&gt;&#45;3,7 (item=sea&#45;sponge&#45;sprouts Also Borax) -->
<g id="edge20" class="edge">
<title>&#45;1,10 (Iron Plates)&#45;&gt;&#45;3,7 (item=sea&#45;sponge&#45;sprouts Also Borax)</title>
<path fill="none" stroke="black" stroke-width="0.07" d="M1314.55,-2353.73C1208.4,-2325.29 975.3,-2262.83 855.79,-2230.8"/>
<polygon fill="black" stroke="black" stroke-width="0.07" points="856.55,-2227.39 845.99,-2228.18 854.74,-2234.15 856.55,-2227.39"/>
<text text-anchor="middle" x="999.17" y="-2296.07" font-family="Times,serif" font-size="14.00">dirty&#45;water&#45;barrel*1552</text>
</g>
<!-- 3,9 (Copper, molten &amp; plate) -->
<g id="node9" class="node">
<title>3,9 (Copper, molten &amp; plate)</title>
<ellipse fill="none" stroke="black" cx="2544.8" cy="-1193.24" rx="143.77" ry="18"/>
<text text-anchor="middle" x="2544.8" y="-1189.54" font-family="Times,serif" font-size="14.00">3,9 (Copper, molten &amp; plate)</text>
</g>
<!-- 3,9 (Copper, molten &amp; plate)&#45;&gt;4,3 (item=nexelit&#45;plate Nexelit platery) -->
<g id="edge8" class="edge">
<title>3,9 (Copper, molten &amp; plate)&#45;&gt;4,3 (item=nexelit&#45;plate Nexelit platery)</title>
<path fill="none" stroke="black" stroke-width="4.87" d="M2400.87,-1193.24C1999.36,-1193.24 865.97,-1193.24 399.16,-1193.24"/>
<polygon fill="black" stroke="black" stroke-width="4.87" points="398.94,-1188.98 388.94,-1193.24 398.94,-1197.49 398.94,-1188.98"/>
<text text-anchor="middle" x="1305.01" y="-1182.04" font-family="Times,serif" font-size="14.00">dirty&#45;water&#45;barrel*101855</text>
</g>
<!-- 3,9 (Copper, molten &amp; plate)&#45;&gt;5,2 (Raw Fiber) -->
<g id="edge7" class="edge">
<title>3,9 (Copper, molten &amp; plate)&#45;&gt;5,2 (Raw Fiber)</title>
<path fill="none" stroke="black" stroke-width="1.27" d="M2539.92,-1175C2517.26,-1090.44 2422.33,-736.14 2394.84,-633.56"/>
<polygon fill="black" stroke="black" stroke-width="1.27" points="2398.15,-632.39 2392.18,-623.64 2391.39,-634.2 2398.15,-632.39"/>
<text text-anchor="middle" x="2376.88" y="-908.08" font-family="Times,serif" font-size="14.00">dirty&#45;water&#45;barrel*26648</text>
</g>
<!-- 3,9 (Copper, molten &amp; plate)&#45;&gt;&#45;3,1 (Logistic science pack, Automation Science (TODO)) -->
<g id="edge15" class="edge">
<title>3,9 (Copper, molten &amp; plate)&#45;&gt;&#45;3,1 (Logistic science pack, Automation Science (TODO))</title>
<path fill="none" stroke="black" stroke-width="0.15" d="M2539.92,-1211.47C2517.26,-1296.03 2422.33,-1650.33 2394.84,-1752.91"/>
<polygon fill="black" stroke="black" stroke-width="0.15" points="2391.39,-1752.27 2392.18,-1762.84 2398.15,-1754.08 2391.39,-1752.27"/>
<text text-anchor="middle" x="2381.38" y="-1485.99" font-family="Times,serif" font-size="14.00">dirty&#45;water&#45;barrel*3072</text>
</g>
<!-- 3,9 (Copper, molten &amp; plate)&#45;&gt;&#45;3,7 (item=sea&#45;sponge&#45;sprouts Also Borax) -->
<g id="edge16" class="edge">
<title>3,9 (Copper, molten &amp; plate)&#45;&gt;&#45;3,7 (item=sea&#45;sponge&#45;sprouts Also Borax)</title>
<path fill="none" stroke="black" stroke-width="0.15" d="M2514.21,-1210.9C2302.84,-1332.93 1060.87,-2049.99 821.77,-2188.03"/>
<polygon fill="black" stroke="black" stroke-width="0.15" points="819.95,-2185.04 813.04,-2193.07 823.45,-2191.1 819.95,-2185.04"/>
<text text-anchor="middle" x="1581.99" y="-1703.27" font-family="Times,serif" font-size="14.00">dirty&#45;water&#45;barrel*3192</text>
</g>
<!-- &#45;3,&#45;1 (item=boron&#45;trioxide Boron products 2) -->
<g id="node11" class="node">
<title>&#45;3,&#45;1 (item=boron&#45;trioxide Boron products 2)</title>
<ellipse fill="none" stroke="black" cx="1957.19" cy="-175.45" rx="219.06" ry="18"/>
<text text-anchor="middle" x="1957.19" y="-171.75" font-family="Times,serif" font-size="14.00">&#45;3,&#45;1 (item=boron&#45;trioxide Boron products 2)</text>
</g>
<!-- &#45;3,&#45;1 (item=boron&#45;trioxide Boron products 2)&#45;&gt;4,3 (item=nexelit&#45;plate Nexelit platery) -->
<g id="edge14" class="edge">
<title>&#45;3,&#45;1 (item=boron&#45;trioxide Boron products 2)&#45;&gt;4,3 (item=nexelit&#45;plate Nexelit platery)</title>
<path fill="none" stroke="black" stroke-width="0.1" d="M1926.22,-193.33C1713.75,-316 472.97,-1032.37 234.11,-1170.27"/>
<polygon fill="black" stroke="black" stroke-width="0.1" points="232.3,-1167.27 225.39,-1175.3 235.8,-1173.33 232.3,-1167.27"/>
<text text-anchor="middle" x="994.16" y="-685.6" font-family="Times,serif" font-size="14.00">dirty&#45;water&#45;barrel*2000</text>
</g>
<!-- &#45;3,&#45;1 (item=boron&#45;trioxide Boron products 2)&#45;&gt;5,2 (Raw Fiber) -->
<g id="edge13" class="edge">
<title>&#45;3,&#45;1 (item=boron&#45;trioxide Boron products 2)&#45;&gt;5,2 (Raw Fiber)</title>
<path fill="none" stroke="black" stroke-width="0.12" d="M1975.39,-193.66C2043.56,-261.82 2283.75,-502.02 2362.29,-580.56"/>
<polygon fill="black" stroke="black" stroke-width="0.12" points="2359.83,-583.05 2369.38,-587.64 2364.78,-578.1 2359.83,-583.05"/>
<text text-anchor="middle" x="2082.84" y="-390.91" font-family="Times,serif" font-size="14.00">dirty&#45;water&#45;barrel*2408</text>
</g>
<!-- 4,13 (Chromium processing) -->
<g id="node13" class="node">
<title>4,13 (Chromium processing)</title>
<ellipse fill="none" stroke="black" cx="781.95" cy="-175.45" rx="142.97" ry="18"/>
<text text-anchor="middle" x="781.95" y="-171.75" font-family="Times,serif" font-size="14.00">4,13 (Chromium processing)</text>
</g>
<!-- 4,13 (Chromium processing)&#45;&gt;4,3 (item=nexelit&#45;plate Nexelit platery) -->
<g id="edge18" class="edge">
<title>4,13 (Chromium processing)&#45;&gt;4,3 (item=nexelit&#45;plate Nexelit platery)</title>
<path fill="none" stroke="black" stroke-width="0.04" d="M771.5,-193.55C700.99,-315.68 294.88,-1019.08 209.92,-1166.24"/>
<polygon fill="black" stroke="black" stroke-width="0.04" points="206.76,-1164.71 204.79,-1175.12 212.82,-1168.21 206.76,-1164.71"/>
<text text-anchor="middle" x="409.21" y="-683.7" font-family="Times,serif" font-size="14.00">dirty&#45;water&#45;barrel*800</text>
</g>
<!-- 4,13 (Chromium processing)&#45;&gt;5,2 (Raw Fiber) -->
<g id="edge27" class="edge">
<title>4,13 (Chromium processing)&#45;&gt;5,2 (Raw Fiber)</title>
<path fill="none" stroke="black" stroke-width="0.03" d="M842.92,-191.79C1096.84,-259.83 2068.95,-520.3 2325.16,-588.95"/>
<polygon fill="black" stroke="black" stroke-width="0.03" points="2324.47,-592.39 2335.04,-591.6 2326.28,-585.63 2324.47,-592.39"/>
<text text-anchor="middle" x="1502.54" y="-394.17" font-family="Times,serif" font-size="14.00">dirty&#45;water&#45;barrel*720</text>
</g>
<!-- 4,13 (Chromium processing)&#45;&gt;&#45;3,7 (item=sea&#45;sponge&#45;sprouts Also Borax) -->
<g id="edge24" class="edge">
<title>4,13 (Chromium processing)&#45;&gt;&#45;3,7 (item=sea&#45;sponge&#45;sprouts Also Borax)</title>
<path fill="none" stroke="black" stroke-width="0.05" d="M781.95,-193.67C781.95,-380.85 781.95,-1952 781.95,-2182.76"/>
<polygon fill="black" stroke="black" stroke-width="0.05" points="778.45,-2183.01 781.95,-2193.01 785.45,-2183.01 778.45,-2183.01"/>
<text text-anchor="middle" x="695.95" y="-1192.02" font-family="Times,serif" font-size="14.00">dirty&#45;water&#45;barrel*1000</text>
</g>
<!-- 3,5 (item=molybdenum&#45;plate Molybdenum plate) -->
<g id="node14" class="node">
<title>3,5 (item=molybdenum&#45;plate Molybdenum plate)</title>
<ellipse fill="none" stroke="black" cx="1957.19" cy="-2211.02" rx="239.66" ry="18"/>
<text text-anchor="middle" x="1957.19" y="-2207.32" font-family="Times,serif" font-size="14.00">3,5 (item=molybdenum&#45;plate Molybdenum plate)</text>
</g>
<!-- 3,5 (item=molybdenum&#45;plate Molybdenum plate)&#45;&gt;4,3 (item=nexelit&#45;plate Nexelit platery) -->
<g id="edge22" class="edge">
<title>3,5 (item=molybdenum&#45;plate Molybdenum plate)&#45;&gt;4,3 (item=nexelit&#45;plate Nexelit platery)</title>
<path fill="none" stroke="black" stroke-width="0.49" d="M1926.22,-2193.14C1713.75,-2070.47 472.97,-1354.1 234.11,-1216.2"/>
<polygon fill="black" stroke="black" stroke-width="0.49" points="235.8,-1213.14 225.39,-1211.17 232.3,-1219.2 235.8,-1213.14"/>
<text text-anchor="middle" x="989.66" y="-1708.47" font-family="Times,serif" font-size="14.00">dirty&#45;water&#45;barrel*10164</text>
</g>
<!-- 3,5 (item=molybdenum&#45;plate Molybdenum plate)&#45;&gt;5,2 (Raw Fiber) -->
<g id="edge19" class="edge">
<title>3,5 (item=molybdenum&#45;plate Molybdenum plate)&#45;&gt;5,2 (Raw Fiber)</title>
<path fill="none" stroke="black" stroke-width="0.31" d="M1962.02,-2192.99C2005.34,-2031.31 2326.66,-832.11 2379.89,-633.46"/>
<polygon fill="black" stroke="black" stroke-width="0.31" points="2383.28,-634.33 2382.49,-623.77 2376.52,-632.52 2383.28,-634.33"/>
<text text-anchor="middle" x="2084.95" y="-1417.02" font-family="Times,serif" font-size="14.00">dirty&#45;water&#45;barrel*6572</text>
</g>
<!-- 3,5 (item=molybdenum&#45;plate Molybdenum plate)&#45;&gt;&#45;3,1 (Logistic science pack, Automation Science (TODO)) -->
<g id="edge25" class="edge">
<title>3,5 (item=molybdenum&#45;plate Molybdenum plate)&#45;&gt;&#45;3,1 (Logistic science pack, Automation Science (TODO))</title>
<path fill="none" stroke="black" stroke-width="0.07" d="M1975.39,-2192.81C2043.56,-2124.65 2283.75,-1884.46 2362.29,-1805.91"/>
<polygon fill="black" stroke="black" stroke-width="0.07" points="2364.78,-1808.37 2369.38,-1798.83 2359.83,-1803.42 2364.78,-1808.37"/>
<text text-anchor="middle" x="2082.84" y="-2003.16" font-family="Times,serif" font-size="14.00">dirty&#45;water&#45;barrel*1536</text>
</g>
<!-- 3,5 (item=molybdenum&#45;plate Molybdenum plate)&#45;&gt;&#45;3,7 (item=sea&#45;sponge&#45;sprouts Also Borax) -->
<g id="edge26" class="edge">
<title>3,5 (item=molybdenum&#45;plate Molybdenum plate)&#45;&gt;&#45;3,7 (item=sea&#45;sponge&#45;sprouts Also Borax)</title>
<path fill="none" stroke="black" stroke-width="0.04" d="M1717.23,-2211.02C1507.46,-2211.02 1205.37,-2211.02 1001.78,-2211.02"/>
<polygon fill="black" stroke="black" stroke-width="0.04" points="1001.56,-2207.52 991.56,-2211.02 1001.56,-2214.52 1001.56,-2207.52"/>
<text text-anchor="middle" x="1278.01" y="-2214.82" font-family="Times,serif" font-size="14.00">dirty&#45;water&#45;barrel*800</text>
</g>
</g>
</svg>
