<?xml version="1.0" encoding="UTF-8" standalone="no"?>
<!DOCTYPE svg PUBLIC "-//W3C//DTD SVG 1.1//EN"
 "http://www.w3.org/Graphics/SVG/1.1/DTD/svg11.dtd">
<!-- Generated by graphviz version 2.43.0 (0)
 -->
<!-- Title: %3 Pages: 1 -->
<svg width="1645pt" height="1096pt"
 viewBox="0.00 0.00 1644.63 1096.18" xmlns="http://www.w3.org/2000/svg" xmlns:xlink="http://www.w3.org/1999/xlink">
<g id="graph0" class="graph" transform="scale(1 1) rotate(0) translate(4 1092.18)">
<title>%3</title>
<polygon fill="white" stroke="transparent" points="-4,4 -4,-1092.18 1640.63,-1092.18 1640.63,4 -4,4"/>
<!-- 11,6 (Ralesia 2) -->
<g id="node1" class="node">
<title>11,6 (Ralesia 2)</title>
<ellipse fill="none" stroke="black" cx="1286.45" cy="-544.09" rx="83.39" ry="18"/>
<text text-anchor="middle" x="1286.45" y="-540.39" font-family="Times,serif" font-size="14.00">11,6 (Ralesia 2)</text>
</g>
<!-- &#45;4,1 (item=ulric Ulrics) -->
<g id="node2" class="node">
<title>&#45;4,1 (item=ulric Ulrics)</title>
<ellipse fill="none" stroke="black" cx="982.71" cy="-18" rx="118.08" ry="18"/>
<text text-anchor="middle" x="982.71" y="-14.3" font-family="Times,serif" font-size="14.00">&#45;4,1 (item=ulric Ulrics)</text>
</g>
<!-- 11,6 (Ralesia 2)&#45;&gt;&#45;4,1 (item=ulric Ulrics) -->
<g id="edge1" class="edge">
<title>11,6 (Ralesia 2)&#45;&gt;&#45;4,1 (item=ulric Ulrics)</title>
<path fill="none" stroke="black" stroke-width="1.1" d="M1276,-525.98C1230.81,-447.73 1052.19,-138.35 998.23,-44.88"/>
<polygon fill="black" stroke="black" stroke-width="1.1" points="1001.15,-42.94 993.12,-36.03 995.09,-46.44 1001.15,-42.94"/>
<text text-anchor="middle" x="1064.61" y="-289.23" font-family="Times,serif" font-size="14.00">ralesia&#45;seeds*45920</text>
</g>
<!-- 5,&#45;1 (Drilling Fluid Type 2, I think my maths is backwards) -->
<g id="node4" class="node">
<title>5,&#45;1 (Drilling Fluid Type 2, I think my maths is backwards)</title>
<ellipse fill="none" stroke="black" cx="982.71" cy="-1070.18" rx="282.15" ry="18"/>
<text text-anchor="middle" x="982.71" y="-1066.48" font-family="Times,serif" font-size="14.00">5,&#45;1 (Drilling Fluid Type 2, I think my maths is backwards)</text>
</g>
<!-- 11,6 (Ralesia 2)&#45;&gt;5,&#45;1 (Drilling Fluid Type 2, I think my maths is backwards) -->
<g id="edge5" class="edge">
<title>11,6 (Ralesia 2)&#45;&gt;5,&#45;1 (Drilling Fluid Type 2, I think my maths is backwards)</title>
<path fill="none" stroke="black" stroke-width="2.11" d="M1276,-562.2C1230.81,-640.46 1052.19,-949.84 998.23,-1043.3"/>
<polygon fill="black" stroke="black" stroke-width="2.11" points="995.09,-1041.74 993.12,-1052.15 1001.15,-1045.24 995.09,-1041.74"/>
<text text-anchor="middle" x="1064.61" y="-806.55" font-family="Times,serif" font-size="14.00">ralesia&#45;seeds*88320</text>
</g>
<!-- 4,7 (Cottonguts) -->
<g id="node5" class="node">
<title>4,7 (Cottonguts)</title>
<ellipse fill="none" stroke="black" cx="375.23" cy="-18" rx="87.18" ry="18"/>
<text text-anchor="middle" x="375.23" y="-14.3" font-family="Times,serif" font-size="14.00">4,7 (Cottonguts)</text>
</g>
<!-- 11,6 (Ralesia 2)&#45;&gt;4,7 (Cottonguts) -->
<g id="edge9" class="edge">
<title>11,6 (Ralesia 2)&#45;&gt;4,7 (Cottonguts)</title>
<path fill="none" stroke="black" stroke-width="0.24" d="M1257.16,-527.18C1122.89,-449.66 566.19,-128.25 413.89,-40.32"/>
<polygon fill="black" stroke="black" stroke-width="0.24" points="415.28,-37.08 404.87,-35.11 411.78,-43.14 415.28,-37.08"/>
<text text-anchor="middle" x="763.03" y="-287.55" font-family="Times,serif" font-size="14.00">ralesia&#45;seeds*10080</text>
</g>
<!-- 0,0 (LE BUS) -->
<g id="node6" class="node">
<title>0,0 (LE BUS)</title>
<ellipse fill="none" stroke="black" cx="71.49" cy="-544.09" rx="71.49" ry="18"/>
<text text-anchor="middle" x="71.49" y="-540.39" font-family="Times,serif" font-size="14.00">0,0 (LE BUS)</text>
</g>
<!-- 11,6 (Ralesia 2)&#45;&gt;0,0 (LE BUS) -->
<g id="edge8" class="edge">
<title>11,6 (Ralesia 2)&#45;&gt;0,0 (LE BUS)</title>
<path fill="none" stroke="black" stroke-width="0.6" d="M1202.94,-544.09C980.23,-544.09 374.11,-544.09 153.33,-544.09"/>
<polygon fill="black" stroke="black" stroke-width="0.6" points="153.11,-540.59 143.11,-544.09 153.11,-547.59 153.11,-540.59"/>
<text text-anchor="middle" x="605.64" y="-532.89" font-family="Times,serif" font-size="14.00">ralesia&#45;seeds*25120</text>
</g>
<!-- &#45;3,4 (Lard from Cottonguts) -->
<g id="node7" class="node">
<title>&#45;3,4 (Lard from Cottonguts)</title>
<ellipse fill="none" stroke="black" cx="1497.54" cy="-544.09" rx="139.18" ry="18"/>
<text text-anchor="middle" x="1497.54" y="-540.39" font-family="Times,serif" font-size="14.00">&#45;3,4 (Lard from Cottonguts)</text>
</g>
<!-- 11,6 (Ralesia 2)&#45;&gt;&#45;3,4 (Lard from Cottonguts) -->
<g id="edge7" class="edge">
<title>11,6 (Ralesia 2)&#45;&gt;&#45;3,4 (Lard from Cottonguts)</title>
<path fill="none" stroke="black" stroke-width="0.48" d="M1369.88,-544.09C1369.94,-544.09 1369.99,-544.09 1370.05,-544.09"/>
<polygon fill="black" stroke="black" stroke-width="0.48" points="1360.23,-547.6 1370.22,-544.09 1360.22,-540.6 1360.23,-547.6"/>
<text text-anchor="middle" x="1442.46" y="-547.89" font-family="Times,serif" font-size="14.00">ralesia&#45;seeds*20240</text>
</g>
<!-- &#45;4,2 (This line not currently using manure, Ralesia seeds) -->
<g id="node3" class="node">
<title>&#45;4,2 (This line not currently using manure, Ralesia seeds)</title>
<ellipse fill="none" stroke="black" cx="375.23" cy="-1070.18" rx="276.75" ry="18"/>
<text text-anchor="middle" x="375.23" y="-1066.48" font-family="Times,serif" font-size="14.00">&#45;4,2 (This line not currently using manure, Ralesia seeds)</text>
</g>
<!-- &#45;4,2 (This line not currently using manure, Ralesia seeds)&#45;&gt;&#45;4,1 (item=ulric Ulrics) -->
<g id="edge4" class="edge">
<title>&#45;4,2 (This line not currently using manure, Ralesia seeds)&#45;&gt;&#45;4,1 (item=ulric Ulrics)</title>
<path fill="none" stroke="black" stroke-width="2" d="M385.78,-1051.92C458.08,-926.69 880.36,-195.29 967.13,-44.99"/>
<polygon fill="black" stroke="black" stroke-width="2" points="970.38,-46.36 972.35,-35.94 964.32,-42.86 970.38,-46.36"/>
<text text-anchor="middle" x="603.95" y="-552.26" font-family="Times,serif" font-size="14.00">ralesia&#45;seeds*83616</text>
</g>
<!-- &#45;4,2 (This line not currently using manure, Ralesia seeds)&#45;&gt;5,&#45;1 (Drilling Fluid Type 2, I think my maths is backwards) -->
<g id="edge2" class="edge">
<title>&#45;4,2 (This line not currently using manure, Ralesia seeds)&#45;&gt;5,&#45;1 (Drilling Fluid Type 2, I think my maths is backwards)</title>
<path fill="none" stroke="black" stroke-width="1.87" d="M652.31,-1070.18C664.9,-1070.18 677.55,-1070.18 690.18,-1070.18"/>
<polygon fill="black" stroke="black" stroke-width="1.87" points="690.3,-1073.68 700.3,-1070.18 690.3,-1066.68 690.3,-1073.68"/>
<text text-anchor="middle" x="671.24" y="-1058.98" font-family="Times,serif" font-size="14.00">ralesia&#45;seeds*78272</text>
</g>
<!-- &#45;4,2 (This line not currently using manure, Ralesia seeds)&#45;&gt;4,7 (Cottonguts) -->
<g id="edge3" class="edge">
<title>&#45;4,2 (This line not currently using manure, Ralesia seeds)&#45;&gt;4,7 (Cottonguts)</title>
<path fill="none" stroke="black" stroke-width="0.24" d="M375.23,-1051.92C375.23,-927.07 375.23,-199.76 375.23,-46.39"/>
<polygon fill="black" stroke="black" stroke-width="0.24" points="378.73,-46.35 375.23,-36.35 371.73,-46.35 378.73,-46.35"/>
<text text-anchor="middle" x="302.73" y="-552.95" font-family="Times,serif" font-size="14.00">ralesia&#45;seeds*10048</text>
</g>
<!-- &#45;4,2 (This line not currently using manure, Ralesia seeds)&#45;&gt;0,0 (LE BUS) -->
<g id="edge6" class="edge">
<title>&#45;4,2 (This line not currently using manure, Ralesia seeds)&#45;&gt;0,0 (LE BUS)</title>
<path fill="none" stroke="black" stroke-width="0.34" d="M364.78,-1052.07C319.6,-973.82 140.98,-664.44 87.01,-570.97"/>
<polygon fill="black" stroke="black" stroke-width="0.34" points="89.94,-569.04 81.91,-562.12 83.87,-572.54 89.94,-569.04"/>
<text text-anchor="middle" x="153.4" y="-815.32" font-family="Times,serif" font-size="14.00">ralesia&#45;seeds*14288</text>
</g>
</g>
</svg>
