<?xml version="1.0" encoding="UTF-8" standalone="no"?>
<!DOCTYPE svg PUBLIC "-//W3C//DTD SVG 1.1//EN"
 "http://www.w3.org/Graphics/SVG/1.1/DTD/svg11.dtd">
<!-- Generated by graphviz version 2.43.0 (0)
 -->
<!-- Title: %3 Pages: 1 -->
<svg width="1111pt" height="44pt"
 viewBox="0.00 0.00 1111.31 44.00" xmlns="http://www.w3.org/2000/svg" xmlns:xlink="http://www.w3.org/1999/xlink">
<g id="graph0" class="graph" transform="scale(1 1) rotate(0) translate(4 40)">
<title>%3</title>
<polygon fill="white" stroke="transparent" points="-4,4 -4,-40 1107.31,-40 1107.31,4 -4,4"/>
<!-- 5,&#45;9 (Chitin, Phosphate rock) -->
<g id="node1" class="node">
<title>5,&#45;9 (Chitin, Phosphate rock)</title>
<ellipse fill="none" stroke="black" cx="487.31" cy="-18" rx="143.77" ry="18"/>
<text text-anchor="middle" x="487.31" y="-14.3" font-family="Times,serif" font-size="14.00">5,&#45;9 (Chitin, Phosphate rock)</text>
</g>
<!-- 3,6 (Phosphoric Acid and Phosphine gas) -->
<g id="node2" class="node">
<title>3,6 (Phosphoric Acid and Phosphine gas)</title>
<ellipse fill="none" stroke="black" cx="903.13" cy="-18" rx="200.36" ry="18"/>
<text text-anchor="middle" x="903.13" y="-14.3" font-family="Times,serif" font-size="14.00">3,6 (Phosphoric Acid and Phosphine gas)</text>
</g>
<!-- 5,&#45;9 (Chitin, Phosphate rock)&#45;&gt;3,6 (Phosphoric Acid and Phosphine gas) -->
<g id="edge1" class="edge">
<title>5,&#45;9 (Chitin, Phosphate rock)&#45;&gt;3,6 (Phosphoric Acid and Phosphine gas)</title>
<path fill="none" stroke="black" stroke-width="1.05" d="M631,-18C650.87,-18 671.61,-18 692.38,-18"/>
<polygon fill="black" stroke="black" stroke-width="1.05" points="692.58,-21.5 702.58,-18 692.58,-14.5 692.58,-21.5"/>
<text text-anchor="middle" x="661.69" y="-6.8" font-family="Times,serif" font-size="14.00">phosphate&#45;rock*179520</text>
</g>
<!-- 0,0 (LE BUS) -->
<g id="node3" class="node">
<title>0,0 (LE BUS)</title>
<ellipse fill="none" stroke="black" cx="71.49" cy="-18" rx="71.49" ry="18"/>
<text text-anchor="middle" x="71.49" y="-14.3" font-family="Times,serif" font-size="14.00">0,0 (LE BUS)</text>
</g>
<!-- 5,&#45;9 (Chitin, Phosphate rock)&#45;&gt;0,0 (LE BUS) -->
<g id="edge2" class="edge">
<title>5,&#45;9 (Chitin, Phosphate rock)&#45;&gt;0,0 (LE BUS)</title>
<path fill="none" stroke="black" stroke-width="0.95" d="M343.63,-18C280.01,-18 207.48,-18 153.31,-18"/>
<polygon fill="black" stroke="black" stroke-width="0.95" points="153.07,-14.5 143.07,-18 153.07,-21.5 153.07,-14.5"/>
<text text-anchor="middle" x="248.47" y="-6.8" font-family="Times,serif" font-size="14.00">phosphate&#45;rock*163600</text>
</g>
</g>
</svg>
