<?xml version="1.0" encoding="UTF-8" standalone="no"?>
<!DOCTYPE svg PUBLIC "-//W3C//DTD SVG 1.1//EN"
 "http://www.w3.org/Graphics/SVG/1.1/DTD/svg11.dtd">
<!-- Generated by graphviz version 2.43.0 (0)
 -->
<!-- Title: %3 Pages: 1 -->
<svg width="636pt" height="44pt"
 viewBox="0.00 0.00 635.56 44.00" xmlns="http://www.w3.org/2000/svg" xmlns:xlink="http://www.w3.org/1999/xlink">
<g id="graph0" class="graph" transform="scale(1 1) rotate(0) translate(4 40)">
<title>%3</title>
<polygon fill="white" stroke="transparent" points="-4,4 -4,-40 631.56,-40 631.56,4 -4,4"/>
<!-- 3,1 (Mining Brick) -->
<g id="node1" class="node">
<title>3,1 (Mining Brick)</title>
<ellipse fill="none" stroke="black" cx="94.89" cy="-18" rx="94.78" ry="18"/>
<text text-anchor="middle" x="94.89" y="-14.3" font-family="Times,serif" font-size="14.00">3,1 (Mining Brick)</text>
</g>
<!-- 2,1 (Niobium plates) -->
<g id="node2" class="node">
<title>2,1 (Niobium plates)</title>
<ellipse fill="none" stroke="black" cx="367.72" cy="-18" rx="105.88" ry="18"/>
<text text-anchor="middle" x="367.72" y="-14.3" font-family="Times,serif" font-size="14.00">2,1 (Niobium plates)</text>
</g>
<!-- 3,1 (Mining Brick)&#45;&gt;2,1 (Niobium plates) -->
<g id="edge1" class="edge">
<title>3,1 (Mining Brick)&#45;&gt;2,1 (Niobium plates)</title>
<path fill="none" stroke="black" stroke-width="1.83" d="M189.93,-18C209.76,-18 230.87,-18 251.36,-18"/>
<polygon fill="black" stroke="black" stroke-width="1.83" points="251.37,-21.5 261.37,-18 251.37,-14.5 251.37,-21.5"/>
<text text-anchor="middle" x="220.65" y="-6.8" font-family="Times,serif" font-size="14.00">niobium&#45;ore*22560</text>
</g>
<!-- 1,11 () -->
<g id="node3" class="node">
<title>1,11 ()</title>
<ellipse fill="none" stroke="black" cx="586.61" cy="-18" rx="40.89" ry="18"/>
<text text-anchor="middle" x="586.61" y="-14.3" font-family="Times,serif" font-size="14.00">1,11 ()</text>
</g>
<!-- 1,11 ()&#45;&gt;2,1 (Niobium plates) -->
<g id="edge2" class="edge">
<title>1,11 ()&#45;&gt;2,1 (Niobium plates)</title>
<path fill="none" stroke="black" stroke-width="0.17" d="M545.44,-18C527.72,-18 506.02,-18 483.96,-18"/>
<polygon fill="black" stroke="black" stroke-width="0.17" points="483.81,-14.5 473.81,-18 483.81,-21.5 483.81,-14.5"/>
<text text-anchor="middle" x="482.45" y="-6.8" font-family="Times,serif" font-size="14.00">niobium&#45;ore*2080</text>
</g>
</g>
</svg>
