<?xml version="1.0" encoding="UTF-8" standalone="no"?>
<!DOCTYPE svg PUBLIC "-//W3C//DTD SVG 1.1//EN"
 "http://www.w3.org/Graphics/SVG/1.1/DTD/svg11.dtd">
<!-- Generated by graphviz version 2.43.0 (0)
 -->
<!-- Title: %3 Pages: 1 -->
<svg width="1363pt" height="949pt"
 viewBox="0.00 0.00 1363.49 949.48" xmlns="http://www.w3.org/2000/svg" xmlns:xlink="http://www.w3.org/1999/xlink">
<g id="graph0" class="graph" transform="scale(1 1) rotate(0) translate(4 945.48)">
<title>%3</title>
<polygon fill="white" stroke="transparent" points="-4,4 -4,-945.48 1359.49,-945.48 1359.49,4 -4,4"/>
<!-- 0,0 (LE BUS) -->
<g id="node1" class="node">
<title>0,0 (LE BUS)</title>
<ellipse fill="none" stroke="black" cx="794.73" cy="-472.48" rx="71.49" ry="18"/>
<text text-anchor="middle" x="794.73" y="-468.78" font-family="Times,serif" font-size="14.00">0,0 (LE BUS)</text>
</g>
<!-- 0,9 (Auog Brains) -->
<g id="node2" class="node">
<title>0,9 (Auog Brains)</title>
<ellipse fill="none" stroke="black" cx="1263.85" cy="-472.48" rx="91.78" ry="18"/>
<text text-anchor="middle" x="1263.85" y="-468.78" font-family="Times,serif" font-size="14.00">0,9 (Auog Brains)</text>
</g>
<!-- 0,0 (LE BUS)&#45;&gt;0,9 (Auog Brains) -->
<g id="edge1" class="edge">
<title>0,0 (LE BUS)&#45;&gt;0,9 (Auog Brains)</title>
<path fill="none" stroke="black" stroke-width="1.27" d="M866.24,-472.48C945.02,-472.48 1072.38,-472.48 1161.68,-472.48"/>
<polygon fill="black" stroke="black" stroke-width="1.27" points="1161.83,-475.98 1171.83,-472.48 1161.83,-468.98 1161.83,-475.98"/>
<text text-anchor="middle" x="969.46" y="-476.28" font-family="Times,serif" font-size="14.00">moss*60000</text>
</g>
<!-- 7,&#45;2 (item=guts Auog guts) -->
<g id="node3" class="node">
<title>7,&#45;2 (item=guts Auog guts)</title>
<ellipse fill="none" stroke="black" cx="1064.79" cy="-856.07" rx="137.28" ry="18"/>
<text text-anchor="middle" x="1064.79" y="-852.37" font-family="Times,serif" font-size="14.00">7,&#45;2 (item=guts Auog guts)</text>
</g>
<!-- 0,0 (LE BUS)&#45;&gt;7,&#45;2 (item=guts Auog guts) -->
<g id="edge2" class="edge">
<title>0,0 (LE BUS)&#45;&gt;7,&#45;2 (item=guts Auog guts)</title>
<path fill="none" stroke="black" stroke-width="1.15" d="M807.22,-490.21C850.58,-551.8 994.82,-756.69 1046.32,-829.83"/>
<polygon fill="black" stroke="black" stroke-width="1.15" points="1043.51,-831.92 1052.13,-838.08 1049.23,-827.89 1043.51,-831.92"/>
<text text-anchor="middle" x="882.27" y="-663.82" font-family="Times,serif" font-size="14.00">moss*54368</text>
</g>
<!-- &#45;3,8 (Urea) -->
<g id="node4" class="node">
<title>&#45;3,8 (Urea)</title>
<ellipse fill="none" stroke="black" cx="665.62" cy="-923.48" rx="61.19" ry="18"/>
<text text-anchor="middle" x="665.62" y="-919.78" font-family="Times,serif" font-size="14.00">&#45;3,8 (Urea)</text>
</g>
<!-- 0,0 (LE BUS)&#45;&gt;&#45;3,8 (Urea) -->
<g id="edge3" class="edge">
<title>0,0 (LE BUS)&#45;&gt;&#45;3,8 (Urea)</title>
<path fill="none" stroke="black" stroke-width="1.27" d="M789.59,-490.44C769.69,-559.95 697.63,-811.65 673.53,-895.83"/>
<polygon fill="black" stroke="black" stroke-width="1.27" points="670.16,-894.89 670.77,-905.47 676.89,-896.82 670.16,-894.89"/>
<text text-anchor="middle" x="687.06" y="-696.94" font-family="Times,serif" font-size="14.00">moss*60000</text>
</g>
<!-- &#45;1,6 (Flimble&#39;s Slaughterhouse and Daycare Centre, Auog Products) -->
<g id="node5" class="node">
<title>&#45;1,6 (Flimble&#39;s Slaughterhouse and Daycare Centre, Auog Products)</title>
<ellipse fill="none" stroke="black" cx="325.62" cy="-471.5" rx="325.74" ry="18"/>
<text text-anchor="middle" x="325.62" y="-467.8" font-family="Times,serif" font-size="14.00">&#45;1,6 (Flimble&#39;s Slaughterhouse and Daycare Centre, Auog Products)</text>
</g>
<!-- 0,0 (LE BUS)&#45;&gt;&#45;1,6 (Flimble&#39;s Slaughterhouse and Daycare Centre, Auog Products) -->
<g id="edge4" class="edge">
<title>0,0 (LE BUS)&#45;&gt;&#45;1,6 (Flimble&#39;s Slaughterhouse and Daycare Centre, Auog Products)</title>
<path fill="none" stroke="black" stroke-width="0.27" d="M723.23,-472.33C704.91,-472.29 683.96,-472.25 661.48,-472.2"/>
<polygon fill="black" stroke="black" stroke-width="0.27" points="661.4,-468.7 651.4,-472.18 661.39,-475.7 661.4,-468.7"/>
<text text-anchor="middle" x="692.35" y="-461.07" font-family="Times,serif" font-size="14.00">moss*12624</text>
</g>
<!-- &#45;7,&#45;4 (Isomer&#39;s Slaughterhouse and Daycare Centre, Bone Meal) -->
<g id="node6" class="node">
<title>&#45;7,&#45;4 (Isomer&#39;s Slaughterhouse and Daycare Centre, Bone Meal)</title>
<ellipse fill="none" stroke="black" cx="910.99" cy="-18" rx="307.35" ry="18"/>
<text text-anchor="middle" x="910.99" y="-14.3" font-family="Times,serif" font-size="14.00">&#45;7,&#45;4 (Isomer&#39;s Slaughterhouse and Daycare Centre, Bone Meal)</text>
</g>
<!-- 0,0 (LE BUS)&#45;&gt;&#45;7,&#45;4 (Isomer&#39;s Slaughterhouse and Daycare Centre, Bone Meal) -->
<g id="edge5" class="edge">
<title>0,0 (LE BUS)&#45;&gt;&#45;7,&#45;4 (Isomer&#39;s Slaughterhouse and Daycare Centre, Bone Meal)</title>
<path fill="none" stroke="black" stroke-width="1.05" d="M799.36,-454.38C817.28,-384.33 882.16,-130.69 903.86,-45.86"/>
<polygon fill="black" stroke="black" stroke-width="1.05" points="907.26,-46.7 906.35,-36.15 900.48,-44.97 907.26,-46.7"/>
<text text-anchor="middle" x="807.11" y="-253.92" font-family="Times,serif" font-size="14.00">moss*50000</text>
</g>
</g>
</svg>
