<?xml version="1.0" encoding="UTF-8" standalone="no"?>
<!DOCTYPE svg PUBLIC "-//W3C//DTD SVG 1.1//EN"
 "http://www.w3.org/Graphics/SVG/1.1/DTD/svg11.dtd">
<!-- Generated by graphviz version 2.43.0 (0)
 -->
<!-- Title: %3 Pages: 1 -->
<svg width="1072pt" height="823pt"
 viewBox="0.00 0.00 1072.47 822.60" xmlns="http://www.w3.org/2000/svg" xmlns:xlink="http://www.w3.org/1999/xlink">
<g id="graph0" class="graph" transform="scale(1 1) rotate(0) translate(4 818.6)">
<title>%3</title>
<polygon fill="white" stroke="transparent" points="-4,4 -4,-818.6 1068.47,-818.6 1068.47,4 -4,4"/>
<!-- 2,8 (Graphite) -->
<g id="node1" class="node">
<title>2,8 (Graphite)</title>
<ellipse fill="none" stroke="black" cx="498.51" cy="-391.05" rx="76.09" ry="18"/>
<text text-anchor="middle" x="498.51" y="-387.35" font-family="Times,serif" font-size="14.00">2,8 (Graphite)</text>
</g>
<!-- 2,&#45;2 (Tin Plate, Organic Solvent) -->
<g id="node2" class="node">
<title>2,&#45;2 (Tin Plate, Organic Solvent)</title>
<ellipse fill="none" stroke="black" cx="904.58" cy="-391.05" rx="159.77" ry="18"/>
<text text-anchor="middle" x="904.58" y="-387.35" font-family="Times,serif" font-size="14.00">2,&#45;2 (Tin Plate, Organic Solvent)</text>
</g>
<!-- 2,8 (Graphite)&#45;&gt;2,&#45;2 (Tin Plate, Organic Solvent) -->
<g id="edge1" class="edge">
<title>2,8 (Graphite)&#45;&gt;2,&#45;2 (Tin Plate, Organic Solvent)</title>
<path fill="none" stroke="black" stroke-width="2.67" d="M574.89,-391.05C619.88,-391.05 678.68,-391.05 734.14,-391.05"/>
<polygon fill="black" stroke="black" stroke-width="2.67" points="734.46,-394.56 744.46,-391.05 734.46,-387.56 734.46,-394.56"/>
<text text-anchor="middle" x="682.77" y="-379.85" font-family="Times,serif" font-size="14.00">graphite*41264</text>
</g>
<!-- &#45;4,&#45;4 (Reserved For Aluminium Ore Drop, Aluminium) -->
<g id="node3" class="node">
<title>&#45;4,&#45;4 (Reserved For Aluminium Ore Drop, Aluminium)</title>
<ellipse fill="none" stroke="black" cx="519.09" cy="-796.6" rx="258.05" ry="18"/>
<text text-anchor="middle" x="519.09" y="-792.9" font-family="Times,serif" font-size="14.00">&#45;4,&#45;4 (Reserved For Aluminium Ore Drop, Aluminium)</text>
</g>
<!-- 2,8 (Graphite)&#45;&gt;&#45;4,&#45;4 (Reserved For Aluminium Ore Drop, Aluminium) -->
<g id="edge2" class="edge">
<title>2,8 (Graphite)&#45;&gt;&#45;4,&#45;4 (Reserved For Aluminium Ore Drop, Aluminium)</title>
<path fill="none" stroke="black" stroke-width="1.41" d="M499.44,-409.27C502.7,-473.6 513.71,-690.43 517.66,-768.39"/>
<polygon fill="black" stroke="black" stroke-width="1.41" points="514.17,-768.63 518.17,-778.44 521.16,-768.28 514.17,-768.63"/>
<text text-anchor="middle" x="452.05" y="-592.63" font-family="Times,serif" font-size="14.00">graphite*21792</text>
</g>
<!-- &#45;3,9 (Silicon Wafers) -->
<g id="node4" class="node">
<title>&#45;3,9 (Silicon Wafers)</title>
<ellipse fill="none" stroke="black" cx="103.99" cy="-487.21" rx="103.98" ry="18"/>
<text text-anchor="middle" x="103.99" y="-483.51" font-family="Times,serif" font-size="14.00">&#45;3,9 (Silicon Wafers)</text>
</g>
<!-- 2,8 (Graphite)&#45;&gt;&#45;3,9 (Silicon Wafers) -->
<g id="edge3" class="edge">
<title>2,8 (Graphite)&#45;&gt;&#45;3,9 (Silicon Wafers)</title>
<path fill="none" stroke="black" stroke-width="0.64" d="M445.31,-404.02C375.36,-421.07 252.27,-451.07 174.59,-470"/>
<polygon fill="black" stroke="black" stroke-width="0.64" points="173.3,-466.71 164.42,-472.48 174.96,-473.51 173.3,-466.71"/>
<text text-anchor="middle" x="257.95" y="-440.81" font-family="Times,serif" font-size="14.00">graphite*9952</text>
</g>
<!-- 6,4 (Electronic components) -->
<g id="node5" class="node">
<title>6,4 (Electronic components)</title>
<ellipse fill="none" stroke="black" cx="232.62" cy="-84.15" rx="141.88" ry="18"/>
<text text-anchor="middle" x="232.62" y="-80.45" font-family="Times,serif" font-size="14.00">6,4 (Electronic components)</text>
</g>
<!-- 2,8 (Graphite)&#45;&gt;6,4 (Electronic components) -->
<g id="edge4" class="edge">
<title>2,8 (Graphite)&#45;&gt;6,4 (Electronic components)</title>
<path fill="none" stroke="black" stroke-width="0.14" d="M483.07,-373.23C438.2,-321.44 307.71,-170.82 255.05,-110.04"/>
<polygon fill="black" stroke="black" stroke-width="0.14" points="257.63,-107.67 248.44,-102.41 252.34,-112.26 257.63,-107.67"/>
<text text-anchor="middle" x="317.06" y="-245.43" font-family="Times,serif" font-size="14.00">graphite*2112</text>
</g>
<!-- &#45;3,2 (Lead and Solder) -->
<g id="node6" class="node">
<title>&#45;3,2 (Lead and Solder)</title>
<ellipse fill="none" stroke="black" cx="658.9" cy="-18" rx="113.98" ry="18"/>
<text text-anchor="middle" x="658.9" y="-14.3" font-family="Times,serif" font-size="14.00">&#45;3,2 (Lead and Solder)</text>
</g>
<!-- 2,8 (Graphite)&#45;&gt;&#45;3,2 (Lead and Solder) -->
<g id="edge5" class="edge">
<title>2,8 (Graphite)&#45;&gt;&#45;3,2 (Lead and Solder)</title>
<path fill="none" stroke="black" stroke-width="0.13" d="M506.25,-373.06C532.13,-312.87 615.79,-118.27 647.01,-45.66"/>
<polygon fill="black" stroke="black" stroke-width="0.13" points="650.32,-46.82 651.05,-36.25 643.89,-44.05 650.32,-46.82"/>
<text text-anchor="middle" x="524.63" y="-213.16" font-family="Times,serif" font-size="14.00">graphite*2032</text>
</g>
</g>
</svg>
