<?xml version="1.0" encoding="UTF-8" standalone="no"?>
<!DOCTYPE svg PUBLIC "-//W3C//DTD SVG 1.1//EN"
 "http://www.w3.org/Graphics/SVG/1.1/DTD/svg11.dtd">
<!-- Generated by graphviz version 2.43.0 (0)
 -->
<!-- Title: %3 Pages: 1 -->
<svg width="1614pt" height="855pt"
 viewBox="0.00 0.00 1613.98 855.38" xmlns="http://www.w3.org/2000/svg" xmlns:xlink="http://www.w3.org/1999/xlink">
<g id="graph0" class="graph" transform="scale(1 1) rotate(0) translate(4 851.38)">
<title>%3</title>
<polygon fill="white" stroke="transparent" points="-4,4 -4,-851.38 1609.98,-851.38 1609.98,4 -4,4"/>
<!-- 0,0 (LE BUS) -->
<g id="node1" class="node">
<title>0,0 (LE BUS)</title>
<ellipse fill="none" stroke="black" cx="434.41" cy="-18" rx="71.49" ry="18"/>
<text text-anchor="middle" x="434.41" y="-14.3" font-family="Times,serif" font-size="14.00">0,0 (LE BUS)</text>
</g>
<!-- 3,6 (Phosphoric Acid and Phosphine gas) -->
<g id="node2" class="node">
<title>3,6 (Phosphoric Acid and Phosphine gas)</title>
<ellipse fill="none" stroke="black" cx="200.18" cy="-423.69" rx="200.36" ry="18"/>
<text text-anchor="middle" x="200.18" y="-419.99" font-family="Times,serif" font-size="14.00">3,6 (Phosphoric Acid and Phosphine gas)</text>
</g>
<!-- 0,0 (LE BUS)&#45;&gt;3,6 (Phosphoric Acid and Phosphine gas) -->
<g id="edge1" class="edge">
<title>0,0 (LE BUS)&#45;&gt;3,6 (Phosphoric Acid and Phosphine gas)</title>
<path fill="none" stroke="black" stroke-width="0.7" d="M424.04,-35.96C386.94,-100.22 260.6,-319.05 215.96,-396.36"/>
<polygon fill="black" stroke="black" stroke-width="0.7" points="212.66,-395.07 210.69,-405.48 218.73,-398.57 212.66,-395.07"/>
<text text-anchor="middle" x="275" y="-219.96" font-family="Times,serif" font-size="14.00">wood*30758</text>
</g>
<!-- 5,8 (Ulric Food) -->
<g id="node3" class="node">
<title>5,8 (Ulric Food)</title>
<ellipse fill="none" stroke="black" cx="902.86" cy="-18" rx="83.39" ry="18"/>
<text text-anchor="middle" x="902.86" y="-14.3" font-family="Times,serif" font-size="14.00">5,8 (Ulric Food)</text>
</g>
<!-- 0,0 (LE BUS)&#45;&gt;5,8 (Ulric Food) -->
<g id="edge2" class="edge">
<title>0,0 (LE BUS)&#45;&gt;5,8 (Ulric Food)</title>
<path fill="none" stroke="black" stroke-width="0.21" d="M506.07,-18C587.26,-18 719.89,-18 809.21,-18"/>
<polygon fill="black" stroke="black" stroke-width="0.21" points="809.34,-21.5 819.34,-18 809.34,-14.5 809.34,-21.5"/>
<text text-anchor="middle" x="617.14" y="-21.8" font-family="Times,serif" font-size="14.00">wood*9128</text>
</g>
<!-- &#45;3,7 (item=sea&#45;sponge&#45;sprouts Also Borax) -->
<g id="node6" class="node">
<title>&#45;3,7 (item=sea&#45;sponge&#45;sprouts Also Borax)</title>
<ellipse fill="none" stroke="black" cx="434.41" cy="-829.38" rx="209.06" ry="18"/>
<text text-anchor="middle" x="434.41" y="-825.68" font-family="Times,serif" font-size="14.00">&#45;3,7 (item=sea&#45;sponge&#45;sprouts Also Borax)</text>
</g>
<!-- 0,0 (LE BUS)&#45;&gt;&#45;3,7 (item=sea&#45;sponge&#45;sprouts Also Borax) -->
<g id="edge9" class="edge">
<title>0,0 (LE BUS)&#45;&gt;&#45;3,7 (item=sea&#45;sponge&#45;sprouts Also Borax)</title>
<path fill="none" stroke="black" stroke-width="0.68" d="M434.41,-36.08C434.41,-141.05 434.41,-671.81 434.41,-801"/>
<polygon fill="black" stroke="black" stroke-width="0.68" points="430.91,-801.26 434.41,-811.26 437.91,-801.26 430.91,-801.26"/>
<text text-anchor="middle" x="479.41" y="-422.34" font-family="Times,serif" font-size="14.00">wood*30030</text>
</g>
<!-- &#45;6,4 (Urea) -->
<g id="node7" class="node">
<title>&#45;6,4 (Urea)</title>
<ellipse fill="none" stroke="black" cx="902.86" cy="-829.38" rx="61.19" ry="18"/>
<text text-anchor="middle" x="902.86" y="-825.68" font-family="Times,serif" font-size="14.00">&#45;6,4 (Urea)</text>
</g>
<!-- 0,0 (LE BUS)&#45;&gt;&#45;6,4 (Urea) -->
<g id="edge6" class="edge">
<title>0,0 (LE BUS)&#45;&gt;&#45;6,4 (Urea)</title>
<path fill="none" stroke="black" stroke-width="0.47" d="M444.85,-36.08C505.7,-141.48 814.4,-676.17 887.38,-802.57"/>
<polygon fill="black" stroke="black" stroke-width="0.47" points="884.57,-804.7 892.6,-811.61 890.63,-801.2 884.57,-804.7"/>
<text text-anchor="middle" x="621.12" y="-423.13" font-family="Times,serif" font-size="14.00">wood*20594</text>
</g>
<!-- 3,7 (Wood) -->
<g id="node4" class="node">
<title>3,7 (Wood)</title>
<ellipse fill="none" stroke="black" cx="1137.09" cy="-423.69" rx="61.19" ry="18"/>
<text text-anchor="middle" x="1137.09" y="-419.99" font-family="Times,serif" font-size="14.00">3,7 (Wood)</text>
</g>
<!-- 3,7 (Wood)&#45;&gt;3,6 (Phosphoric Acid and Phosphine gas) -->
<g id="edge4" class="edge">
<title>3,7 (Wood)&#45;&gt;3,6 (Phosphoric Acid and Phosphine gas)</title>
<path fill="none" stroke="black" stroke-width="1.95" d="M1075.98,-423.69C943.59,-423.69 625.02,-423.69 410.85,-423.69"/>
<polygon fill="black" stroke="black" stroke-width="1.95" points="410.73,-420.19 400.73,-423.69 410.73,-427.19 410.73,-420.19"/>
<text text-anchor="middle" x="788.41" y="-427.49" font-family="Times,serif" font-size="14.00">wood*85480</text>
</g>
<!-- 3,7 (Wood)&#45;&gt;5,8 (Ulric Food) -->
<g id="edge8" class="edge">
<title>3,7 (Wood)&#45;&gt;5,8 (Ulric Food)</title>
<path fill="none" stroke="black" stroke-width="1.86" d="M1126.72,-405.74C1089.62,-341.47 963.28,-122.64 918.64,-45.33"/>
<polygon fill="black" stroke="black" stroke-width="1.86" points="921.41,-43.12 913.37,-36.21 915.34,-46.62 921.41,-43.12"/>
<text text-anchor="middle" x="977.68" y="-229.33" font-family="Times,serif" font-size="14.00">wood*81520</text>
</g>
<!-- &#45;2,8 (syngas from coal dust and also wood) -->
<g id="node5" class="node">
<title>&#45;2,8 (syngas from coal dust and also wood)</title>
<ellipse fill="none" stroke="black" cx="1397.35" cy="-250.19" rx="208.76" ry="18"/>
<text text-anchor="middle" x="1397.35" y="-246.49" font-family="Times,serif" font-size="14.00">&#45;2,8 (syngas from coal dust and also wood)</text>
</g>
<!-- 3,7 (Wood)&#45;&gt;&#45;2,8 (syngas from coal dust and also wood) -->
<g id="edge3" class="edge">
<title>3,7 (Wood)&#45;&gt;&#45;2,8 (syngas from coal dust and also wood)</title>
<path fill="none" stroke="black" stroke-width="0.24" d="M1162.04,-407.06C1208.56,-376.04 1308.65,-309.33 1362.07,-273.72"/>
<polygon fill="black" stroke="black" stroke-width="0.24" points="1364.16,-276.53 1370.54,-268.07 1360.27,-270.7 1364.16,-276.53"/>
<text text-anchor="middle" x="1217.05" y="-344.19" font-family="Times,serif" font-size="14.00">wood*10360</text>
</g>
<!-- 3,7 (Wood)&#45;&gt;&#45;3,7 (item=sea&#45;sponge&#45;sprouts Also Borax) -->
<g id="edge5" class="edge">
<title>3,7 (Wood)&#45;&gt;&#45;3,7 (item=sea&#45;sponge&#45;sprouts Also Borax)</title>
<path fill="none" stroke="black" stroke-width="1.82" d="M1109.11,-439.85C999.93,-502.88 602.28,-732.46 474.35,-806.33"/>
<polygon fill="black" stroke="black" stroke-width="1.82" points="472.52,-803.34 465.61,-811.37 476.02,-809.4 472.52,-803.34"/>
<text text-anchor="middle" x="746.73" y="-626.89" font-family="Times,serif" font-size="14.00">wood*80000</text>
</g>
<!-- 3,7 (Wood)&#45;&gt;&#45;6,4 (Urea) -->
<g id="edge7" class="edge">
<title>3,7 (Wood)&#45;&gt;&#45;6,4 (Urea)</title>
<path fill="none" stroke="black" stroke-width="1.85" d="M1126.72,-441.65C1089.53,-506.06 962.7,-725.74 918.33,-802.58"/>
<polygon fill="black" stroke="black" stroke-width="1.85" points="915.08,-801.23 913.11,-811.64 921.14,-804.73 915.08,-801.23"/>
<text text-anchor="middle" x="977.53" y="-625.92" font-family="Times,serif" font-size="14.00">wood*81080</text>
</g>
<!-- &#45;3,4 (Lard from Cottonguts) -->
<g id="node8" class="node">
<title>&#45;3,4 (Lard from Cottonguts)</title>
<ellipse fill="none" stroke="black" cx="1378.13" cy="-664" rx="139.18" ry="18"/>
<text text-anchor="middle" x="1378.13" y="-660.3" font-family="Times,serif" font-size="14.00">&#45;3,4 (Lard from Cottonguts)</text>
</g>
<!-- 3,7 (Wood)&#45;&gt;&#45;3,4 (Lard from Cottonguts) -->
<g id="edge10" class="edge">
<title>3,7 (Wood)&#45;&gt;&#45;3,4 (Lard from Cottonguts)</title>
<path fill="none" stroke="black" stroke-width="0.23" d="M1154.42,-440.97C1196.42,-482.84 1303.75,-589.84 1352.88,-638.83"/>
<polygon fill="black" stroke="black" stroke-width="0.23" points="1350.42,-641.31 1359.97,-645.9 1355.36,-636.36 1350.42,-641.31"/>
<text text-anchor="middle" x="1208.65" y="-543.7" font-family="Times,serif" font-size="14.00">wood*10000</text>
</g>
</g>
</svg>
