<?xml version="1.0" encoding="UTF-8" standalone="no"?>
<!DOCTYPE svg PUBLIC "-//W3C//DTD SVG 1.1//EN"
 "http://www.w3.org/Graphics/SVG/1.1/DTD/svg11.dtd">
<!-- Generated by graphviz version 2.43.0 (0)
 -->
<!-- Title: %3 Pages: 1 -->
<svg width="854pt" height="776pt"
 viewBox="0.00 0.00 854.00 776.17" xmlns="http://www.w3.org/2000/svg" xmlns:xlink="http://www.w3.org/1999/xlink">
<g id="graph0" class="graph" transform="scale(1 1) rotate(0) translate(4 772.17)">
<title>%3</title>
<polygon fill="white" stroke="transparent" points="-4,4 -4,-772.17 850,-772.17 850,4 -4,4"/>
<!-- 4,3 (item=nexelit&#45;plate Nexelit platery) -->
<g id="node1" class="node">
<title>4,3 (item=nexelit&#45;plate Nexelit platery)</title>
<ellipse fill="none" stroke="black" cx="360.63" cy="-395.38" rx="194.17" ry="18"/>
<text text-anchor="middle" x="360.63" y="-391.68" font-family="Times,serif" font-size="14.00">4,3 (item=nexelit&#45;plate Nexelit platery)</text>
</g>
<!-- 0,0 (LE BUS) -->
<g id="node2" class="node">
<title>0,0 (LE BUS)</title>
<ellipse fill="none" stroke="black" cx="774.5" cy="-395.38" rx="71.49" ry="18"/>
<text text-anchor="middle" x="774.5" y="-391.68" font-family="Times,serif" font-size="14.00">0,0 (LE BUS)</text>
</g>
<!-- 4,3 (item=nexelit&#45;plate Nexelit platery)&#45;&gt;0,0 (LE BUS) -->
<g id="edge1" class="edge">
<title>4,3 (item=nexelit&#45;plate Nexelit platery)&#45;&gt;0,0 (LE BUS)</title>
<path fill="none" stroke="black" stroke-width="0.57" d="M555.15,-395.38C603.6,-395.38 652.96,-395.38 692.56,-395.38"/>
<polygon fill="black" stroke="black" stroke-width="0.57" points="692.67,-398.88 702.67,-395.38 692.67,-391.88 692.67,-398.88"/>
<text text-anchor="middle" x="623.85" y="-384.18" font-family="Times,serif" font-size="14.00">nexelit&#45;plate*2112</text>
</g>
<!-- 2,7 (Mystery petrochemicals) -->
<g id="node3" class="node">
<title>2,7 (Mystery petrochemicals)</title>
<ellipse fill="none" stroke="black" cx="147.54" cy="-750.17" rx="147.57" ry="18"/>
<text text-anchor="middle" x="147.54" y="-746.47" font-family="Times,serif" font-size="14.00">2,7 (Mystery petrochemicals)</text>
</g>
<!-- 4,3 (item=nexelit&#45;plate Nexelit platery)&#45;&gt;2,7 (Mystery petrochemicals) -->
<g id="edge2" class="edge">
<title>4,3 (item=nexelit&#45;plate Nexelit platery)&#45;&gt;2,7 (Mystery petrochemicals)</title>
<path fill="none" stroke="black" stroke-width="1.22" d="M349.77,-413.46C314.86,-471.59 205.36,-653.89 163.78,-723.13"/>
<polygon fill="black" stroke="black" stroke-width="1.22" points="160.52,-721.75 158.38,-732.12 166.52,-725.35 160.52,-721.75"/>
<text text-anchor="middle" x="190.27" y="-572.09" font-family="Times,serif" font-size="14.00">nexelit&#45;plate*4512</text>
</g>
<!-- &#45;4,&#45;2 (For Science!) -->
<g id="node4" class="node">
<title>&#45;4,&#45;2 (For Science!)</title>
<ellipse fill="none" stroke="black" cx="190.7" cy="-18" rx="98.58" ry="18"/>
<text text-anchor="middle" x="190.7" y="-14.3" font-family="Times,serif" font-size="14.00">&#45;4,&#45;2 (For Science!)</text>
</g>
<!-- 4,3 (item=nexelit&#45;plate Nexelit platery)&#45;&gt;&#45;4,&#45;2 (For Science!) -->
<g id="edge3" class="edge">
<title>4,3 (item=nexelit&#45;plate Nexelit platery)&#45;&gt;&#45;4,&#45;2 (For Science!)</title>
<path fill="none" stroke="black" stroke-width="1.21" d="M352.44,-377.17C324.96,-316.15 235.97,-118.52 203.08,-45.47"/>
<polygon fill="black" stroke="black" stroke-width="1.21" points="206.12,-43.7 198.82,-36.02 199.73,-46.57 206.12,-43.7"/>
<text text-anchor="middle" x="211.26" y="-215.12" font-family="Times,serif" font-size="14.00">nexelit&#45;plate*4500</text>
</g>
</g>
</svg>
