<?xml version="1.0" encoding="UTF-8" standalone="no"?>
<!DOCTYPE svg PUBLIC "-//W3C//DTD SVG 1.1//EN"
 "http://www.w3.org/Graphics/SVG/1.1/DTD/svg11.dtd">
<!-- Generated by graphviz version 2.43.0 (0)
 -->
<!-- Title: %3 Pages: 1 -->
<svg width="954pt" height="898pt"
 viewBox="0.00 0.00 954.23 897.97" xmlns="http://www.w3.org/2000/svg" xmlns:xlink="http://www.w3.org/1999/xlink">
<g id="graph0" class="graph" transform="scale(1 1) rotate(0) translate(4 893.97)">
<title>%3</title>
<polygon fill="white" stroke="transparent" points="-4,4 -4,-893.97 950.23,-893.97 950.23,4 -4,4"/>
<!-- 4,4 (Hydrogen Chloride, item=nylon Nylon/Nylon parts) -->
<g id="node1" class="node">
<title>4,4 (Hydrogen Chloride, item=nylon Nylon/Nylon parts)</title>
<ellipse fill="none" stroke="black" cx="390.02" cy="-434.26" rx="271.05" ry="18"/>
<text text-anchor="middle" x="390.02" y="-430.56" font-family="Times,serif" font-size="14.00">4,4 (Hydrogen Chloride, item=nylon Nylon/Nylon parts)</text>
</g>
<!-- 0,0 (LE BUS) -->
<g id="node2" class="node">
<title>0,0 (LE BUS)</title>
<ellipse fill="none" stroke="black" cx="874.74" cy="-434.26" rx="71.49" ry="18"/>
<text text-anchor="middle" x="874.74" y="-430.56" font-family="Times,serif" font-size="14.00">0,0 (LE BUS)</text>
</g>
<!-- 4,4 (Hydrogen Chloride, item=nylon Nylon/Nylon parts)&#45;&gt;0,0 (LE BUS) -->
<g id="edge1" class="edge">
<title>4,4 (Hydrogen Chloride, item=nylon Nylon/Nylon parts)&#45;&gt;0,0 (LE BUS)</title>
<path fill="none" stroke="black" stroke-width="0.5" d="M661.08,-434.26C708.99,-434.26 755.38,-434.26 792.62,-434.26"/>
<polygon fill="black" stroke="black" stroke-width="0.5" points="792.88,-437.77 802.88,-434.26 792.88,-430.77 792.88,-437.77"/>
<text text-anchor="middle" x="747.35" y="-423.06" font-family="Times,serif" font-size="14.00">nylon*4800</text>
</g>
<!-- &#45;5,2 (Optical fiber) -->
<g id="node3" class="node">
<title>&#45;5,2 (Optical fiber)</title>
<ellipse fill="none" stroke="black" cx="181.79" cy="-871.97" rx="96.38" ry="18"/>
<text text-anchor="middle" x="181.79" y="-868.27" font-family="Times,serif" font-size="14.00">&#45;5,2 (Optical fiber)</text>
</g>
<!-- 4,4 (Hydrogen Chloride, item=nylon Nylon/Nylon parts)&#45;&gt;&#45;5,2 (Optical fiber) -->
<g id="edge2" class="edge">
<title>4,4 (Hydrogen Chloride, item=nylon Nylon/Nylon parts)&#45;&gt;&#45;5,2 (Optical fiber)</title>
<path fill="none" stroke="black" stroke-width="2.13" d="M381.34,-452.52C348.8,-520.92 233.92,-762.4 194.89,-844.45"/>
<polygon fill="black" stroke="black" stroke-width="2.13" points="191.65,-843.11 190.51,-853.64 197.97,-846.12 191.65,-843.11"/>
<text text-anchor="middle" x="242.61" y="-652.28" font-family="Times,serif" font-size="14.00">nylon*20240</text>
</g>
<!-- 6,4 (Electronic components) -->
<g id="node4" class="node">
<title>6,4 (Electronic components)</title>
<ellipse fill="none" stroke="black" cx="141.69" cy="-18" rx="141.88" ry="18"/>
<text text-anchor="middle" x="141.69" y="-14.3" font-family="Times,serif" font-size="14.00">6,4 (Electronic components)</text>
</g>
<!-- 4,4 (Hydrogen Chloride, item=nylon Nylon/Nylon parts)&#45;&gt;6,4 (Electronic components) -->
<g id="edge3" class="edge">
<title>4,4 (Hydrogen Chloride, item=nylon Nylon/Nylon parts)&#45;&gt;6,4 (Electronic components)</title>
<path fill="none" stroke="black" stroke-width="0.37" d="M379.19,-416.11C339.9,-350.25 204.71,-123.64 157.84,-45.08"/>
<polygon fill="black" stroke="black" stroke-width="0.37" points="160.7,-43.04 152.57,-36.25 154.69,-46.63 160.7,-43.04"/>
<text text-anchor="middle" x="227.52" y="-234.39" font-family="Times,serif" font-size="14.00">nylon*3480</text>
</g>
</g>
</svg>
