<?xml version="1.0" encoding="UTF-8" standalone="no"?>
<!DOCTYPE svg PUBLIC "-//W3C//DTD SVG 1.1//EN"
 "http://www.w3.org/Graphics/SVG/1.1/DTD/svg11.dtd">
<!-- Generated by graphviz version 2.43.0 (0)
 -->
<!-- Title: %3 Pages: 1 -->
<svg width="1133pt" height="1025pt"
 viewBox="0.00 0.00 1133.46 1025.00" xmlns="http://www.w3.org/2000/svg" xmlns:xlink="http://www.w3.org/1999/xlink">
<g id="graph0" class="graph" transform="scale(1 1) rotate(0) translate(4 1021)">
<title>%3</title>
<polygon fill="white" stroke="transparent" points="-4,4 -4,-1021 1129.46,-1021 1129.46,4 -4,4"/>
<!-- &#45;3,2 (Lead and Solder) -->
<g id="node1" class="node">
<title>&#45;3,2 (Lead and Solder)</title>
<ellipse fill="none" stroke="black" cx="553.01" cy="-516.69" rx="113.98" ry="18"/>
<text text-anchor="middle" x="553.01" y="-512.99" font-family="Times,serif" font-size="14.00">&#45;3,2 (Lead and Solder)</text>
</g>
<!-- &#45;3,8 (Urea) -->
<g id="node2" class="node">
<title>&#45;3,8 (Urea)</title>
<ellipse fill="none" stroke="black" cx="1064.37" cy="-516.69" rx="61.19" ry="18"/>
<text text-anchor="middle" x="1064.37" y="-512.99" font-family="Times,serif" font-size="14.00">&#45;3,8 (Urea)</text>
</g>
<!-- &#45;3,2 (Lead and Solder)&#45;&gt;&#45;3,8 (Urea) -->
<g id="edge1" class="edge">
<title>&#45;3,2 (Lead and Solder)&#45;&gt;&#45;3,8 (Urea)</title>
<path fill="none" stroke="black" stroke-width="0.73" d="M666.81,-516.69C766.64,-516.69 908.69,-516.69 993.2,-516.69"/>
<polygon fill="black" stroke="black" stroke-width="0.73" points="993.22,-520.19 1003.22,-516.69 993.22,-513.19 993.22,-520.19"/>
<text text-anchor="middle" x="786.01" y="-520.49" font-family="Times,serif" font-size="14.00">solder*2016</text>
</g>
<!-- &#45;4,1 () -->
<g id="node3" class="node">
<title>&#45;4,1 ()</title>
<ellipse fill="none" stroke="black" cx="722.92" cy="-999" rx="38.19" ry="18"/>
<text text-anchor="middle" x="722.92" y="-995.3" font-family="Times,serif" font-size="14.00">&#45;4,1 ()</text>
</g>
<!-- &#45;3,2 (Lead and Solder)&#45;&gt;&#45;4,1 () -->
<g id="edge2" class="edge">
<title>&#45;3,2 (Lead and Solder)&#45;&gt;&#45;4,1 ()</title>
<path fill="none" stroke="black" stroke-width="0.72" d="M559.36,-534.72C585.15,-607.92 682.14,-883.24 713.25,-971.55"/>
<polygon fill="black" stroke="black" stroke-width="0.72" points="710.01,-972.87 716.63,-981.14 716.61,-970.54 710.01,-972.87"/>
<text text-anchor="middle" x="592.31" y="-756.93" font-family="Times,serif" font-size="14.00">solder*2000</text>
</g>
<!-- 0,10 (item=meat Meat) -->
<g id="node4" class="node">
<title>0,10 (item=meat Meat)</title>
<ellipse fill="none" stroke="black" cx="120.24" cy="-789.09" rx="120.48" ry="18"/>
<text text-anchor="middle" x="120.24" y="-785.39" font-family="Times,serif" font-size="14.00">0,10 (item=meat Meat)</text>
</g>
<!-- &#45;3,2 (Lead and Solder)&#45;&gt;0,10 (item=meat Meat) -->
<g id="edge3" class="edge">
<title>&#45;3,2 (Lead and Solder)&#45;&gt;0,10 (item=meat Meat)</title>
<path fill="none" stroke="black" stroke-width="0.73" d="M524.95,-534.36C449.33,-581.95 241.34,-712.87 156.74,-766.12"/>
<polygon fill="black" stroke="black" stroke-width="0.73" points="154.84,-763.18 148.24,-771.47 158.56,-769.1 154.84,-763.18"/>
<text text-anchor="middle" x="296.84" y="-654.04" font-family="Times,serif" font-size="14.00">solder*2016</text>
</g>
<!-- &#45;1,6 (Flimble&#39;s Slaughterhouse and Daycare Centre, Auog Products) -->
<g id="node5" class="node">
<title>&#45;1,6 (Flimble&#39;s Slaughterhouse and Daycare Centre, Auog Products)</title>
<ellipse fill="none" stroke="black" cx="439.89" cy="-18" rx="325.74" ry="18"/>
<text text-anchor="middle" x="439.89" y="-14.3" font-family="Times,serif" font-size="14.00">&#45;1,6 (Flimble&#39;s Slaughterhouse and Daycare Centre, Auog Products)</text>
</g>
<!-- &#45;3,2 (Lead and Solder)&#45;&gt;&#45;1,6 (Flimble&#39;s Slaughterhouse and Daycare Centre, Auog Products) -->
<g id="edge4" class="edge">
<title>&#45;3,2 (Lead and Solder)&#45;&gt;&#45;1,6 (Flimble&#39;s Slaughterhouse and Daycare Centre, Auog Products)</title>
<path fill="none" stroke="black" stroke-width="1.82" d="M548.91,-498.65C531.92,-423.73 466.86,-136.9 446.21,-45.88"/>
<polygon fill="black" stroke="black" stroke-width="1.82" points="449.6,-45 443.97,-36.02 442.77,-46.55 449.6,-45"/>
<text text-anchor="middle" x="453.56" y="-276.07" font-family="Times,serif" font-size="14.00">solder*5024</text>
</g>
</g>
</svg>
