<?xml version="1.0" encoding="UTF-8" standalone="no"?>
<!DOCTYPE svg PUBLIC "-//W3C//DTD SVG 1.1//EN"
 "http://www.w3.org/Graphics/SVG/1.1/DTD/svg11.dtd">
<!-- Generated by graphviz version 2.43.0 (0)
 -->
<!-- Title: %3 Pages: 1 -->
<svg width="897pt" height="44pt"
 viewBox="0.00 0.00 896.83 44.00" xmlns="http://www.w3.org/2000/svg" xmlns:xlink="http://www.w3.org/1999/xlink">
<g id="graph0" class="graph" transform="scale(1 1) rotate(0) translate(4 40)">
<title>%3</title>
<polygon fill="white" stroke="transparent" points="-4,4 -4,-40 892.83,-40 892.83,4 -4,4"/>
<!-- &#45;2,9 (molten steel) -->
<g id="node1" class="node">
<title>&#45;2,9 (molten steel)</title>
<ellipse fill="none" stroke="black" cx="398.92" cy="-18" rx="95.58" ry="18"/>
<text text-anchor="middle" x="398.92" y="-14.3" font-family="Times,serif" font-size="14.00">&#45;2,9 (molten steel)</text>
</g>
<!-- &#45;1,11 (Steel Plate (from molten)) -->
<g id="node2" class="node">
<title>&#45;1,11 (Steel Plate (from molten))</title>
<ellipse fill="none" stroke="black" cx="727.65" cy="-18" rx="161.37" ry="18"/>
<text text-anchor="middle" x="727.65" y="-14.3" font-family="Times,serif" font-size="14.00">&#45;1,11 (Steel Plate (from molten))</text>
</g>
<!-- &#45;2,9 (molten steel)&#45;&gt;&#45;1,11 (Steel Plate (from molten)) -->
<g id="edge1" class="edge">
<title>&#45;2,9 (molten steel)&#45;&gt;&#45;1,11 (Steel Plate (from molten))</title>
<path fill="none" stroke="black" stroke-width="1.86" d="M494.89,-18C514.27,-18 535.2,-18 556.29,-18"/>
<polygon fill="black" stroke="black" stroke-width="1.86" points="556.31,-21.5 566.31,-18 556.31,-14.5 556.31,-21.5"/>
<text text-anchor="middle" x="525.59" y="-6.8" font-family="Times,serif" font-size="14.00">molten&#45;steel&#45;barrel*5491</text>
</g>
<!-- &#45;2,&#45;3 (Trains) -->
<g id="node3" class="node">
<title>&#45;2,&#45;3 (Trains)</title>
<ellipse fill="none" stroke="black" cx="70.19" cy="-18" rx="70.39" ry="18"/>
<text text-anchor="middle" x="70.19" y="-14.3" font-family="Times,serif" font-size="14.00">&#45;2,&#45;3 (Trains)</text>
</g>
<!-- &#45;2,9 (molten steel)&#45;&gt;&#45;2,&#45;3 (Trains) -->
<g id="edge2" class="edge">
<title>&#45;2,9 (molten steel)&#45;&gt;&#45;2,&#45;3 (Trains)</title>
<path fill="none" stroke="black" stroke-width="0.14" d="M302.96,-18C254.59,-18 196.62,-18 150.62,-18"/>
<polygon fill="black" stroke="black" stroke-width="0.14" points="150.4,-14.5 140.4,-18 150.4,-21.5 150.4,-14.5"/>
<text text-anchor="middle" x="226.79" y="-6.8" font-family="Times,serif" font-size="14.00">molten&#45;steel&#45;barrel*418</text>
</g>
</g>
</svg>
