<?xml version="1.0" encoding="UTF-8" standalone="no"?>
<!DOCTYPE svg PUBLIC "-//W3C//DTD SVG 1.1//EN"
 "http://www.w3.org/Graphics/SVG/1.1/DTD/svg11.dtd">
<!-- Generated by graphviz version 2.43.0 (0)
 -->
<!-- Title: %3 Pages: 1 -->
<svg width="2366pt" height="2062pt"
 viewBox="0.00 0.00 2365.63 2061.71" xmlns="http://www.w3.org/2000/svg" xmlns:xlink="http://www.w3.org/1999/xlink">
<g id="graph0" class="graph" transform="scale(1 1) rotate(0) translate(4 2057.71)">
<title>%3</title>
<polygon fill="white" stroke="transparent" points="-4,4 -4,-2057.71 2361.63,-2057.71 2361.63,4 -4,4"/>
<!-- &#45;5,&#45;1 (Coal and Coke and Syngas and Ash and Coke Oven Gas and...) -->
<g id="node1" class="node">
<title>&#45;5,&#45;1 (Coal and Coke and Syngas and Ash and Coke Oven Gas and...)</title>
<ellipse fill="none" stroke="black" cx="1060.6" cy="-1859.72" rx="325.74" ry="18"/>
<text text-anchor="middle" x="1060.6" y="-1856.02" font-family="Times,serif" font-size="14.00">&#45;5,&#45;1 (Coal and Coke and Syngas and Ash and Coke Oven Gas and...)</text>
</g>
<!-- 1,7 (Activated Carbon) -->
<g id="node2" class="node">
<title>1,7 (Activated Carbon)</title>
<ellipse fill="none" stroke="black" cx="1711.74" cy="-1590.01" rx="115.88" ry="18"/>
<text text-anchor="middle" x="1711.74" y="-1586.31" font-family="Times,serif" font-size="14.00">1,7 (Activated Carbon)</text>
</g>
<!-- &#45;5,&#45;1 (Coal and Coke and Syngas and Ash and Coke Oven Gas and...)&#45;&gt;1,7 (Activated Carbon) -->
<g id="edge1" class="edge">
<title>&#45;5,&#45;1 (Coal and Coke and Syngas and Ash and Coke Oven Gas and...)&#45;&gt;1,7 (Activated Carbon)</title>
<path fill="none" stroke="black" stroke-width="1.62" d="M1103.83,-1841.82C1219.96,-1793.71 1538.26,-1661.87 1661.8,-1610.69"/>
<polygon fill="black" stroke="black" stroke-width="1.62" points="1663.16,-1613.92 1671.06,-1606.86 1660.48,-1607.45 1663.16,-1613.92"/>
<text text-anchor="middle" x="1324.31" y="-1730.05" font-family="Times,serif" font-size="14.00">coal&#45;dust*81728</text>
</g>
<!-- &#45;2,8 (syngas from coal dust) -->
<g id="node4" class="node">
<title>&#45;2,8 (syngas from coal dust)</title>
<ellipse fill="none" stroke="black" cx="139.74" cy="-938.86" rx="139.98" ry="18"/>
<text text-anchor="middle" x="139.74" y="-935.16" font-family="Times,serif" font-size="14.00">&#45;2,8 (syngas from coal dust)</text>
</g>
<!-- &#45;5,&#45;1 (Coal and Coke and Syngas and Ash and Coke Oven Gas and...)&#45;&gt;&#45;2,8 (syngas from coal dust) -->
<g id="edge4" class="edge">
<title>&#45;5,&#45;1 (Coal and Coke and Syngas and Ash and Coke Oven Gas and...)&#45;&gt;&#45;2,8 (syngas from coal dust)</title>
<path fill="none" stroke="black" stroke-width="1.54" d="M1042.62,-1841.74C928.02,-1727.15 300.27,-1099.4 165.31,-964.43"/>
<polygon fill="black" stroke="black" stroke-width="1.54" points="167.38,-961.55 157.83,-956.96 162.43,-966.5 167.38,-961.55"/>
<text text-anchor="middle" x="545.46" y="-1406.88" font-family="Times,serif" font-size="14.00">coal&#45;dust*77712</text>
</g>
<!-- &#45;3,9 (Silicon Wafers) -->
<g id="node10" class="node">
<title>&#45;3,9 (Silicon Wafers)</title>
<ellipse fill="none" stroke="black" cx="1060.6" cy="-2035.71" rx="103.98" ry="18"/>
<text text-anchor="middle" x="1060.6" y="-2032.01" font-family="Times,serif" font-size="14.00">&#45;3,9 (Silicon Wafers)</text>
</g>
<!-- &#45;5,&#45;1 (Coal and Coke and Syngas and Ash and Coke Oven Gas and...)&#45;&gt;&#45;3,9 (Silicon Wafers) -->
<g id="edge14" class="edge">
<title>&#45;5,&#45;1 (Coal and Coke and Syngas and Ash and Coke Oven Gas and...)&#45;&gt;&#45;3,9 (Silicon Wafers)</title>
<path fill="none" stroke="black" stroke-width="0.09" d="M1060.6,-1877.89C1060.6,-1908.53 1060.6,-1970.7 1060.6,-2007.2"/>
<polygon fill="black" stroke="black" stroke-width="0.09" points="1057.1,-2007.64 1060.6,-2017.64 1064.1,-2007.64 1057.1,-2007.64"/>
<text text-anchor="middle" x="1006.6" y="-1946.35" font-family="Times,serif" font-size="14.00">coal&#45;dust*4496</text>
</g>
<!-- &#45;7,5 (item=ore&#45;chromium The loneliest chromium) -->
<g id="node3" class="node">
<title>&#45;7,5 (item=ore&#45;chromium The loneliest chromium)</title>
<ellipse fill="none" stroke="black" cx="1981.46" cy="-938.86" rx="243.96" ry="18"/>
<text text-anchor="middle" x="1981.46" y="-935.16" font-family="Times,serif" font-size="14.00">&#45;7,5 (item=ore&#45;chromium The loneliest chromium)</text>
</g>
<!-- &#45;7,5 (item=ore&#45;chromium The loneliest chromium)&#45;&gt;1,7 (Activated Carbon) -->
<g id="edge9" class="edge">
<title>&#45;7,5 (item=ore&#45;chromium The loneliest chromium)&#45;&gt;1,7 (Activated Carbon)</title>
<path fill="none" stroke="black" stroke-width="0.4" d="M1973.96,-956.96C1936.38,-1047.68 1768.48,-1453.03 1723.09,-1562.62"/>
<polygon fill="black" stroke="black" stroke-width="0.4" points="1719.8,-1561.42 1719.2,-1572 1726.26,-1564.1 1719.8,-1561.42"/>
<text text-anchor="middle" x="1790.03" y="-1263.59" font-family="Times,serif" font-size="14.00">coal&#45;dust*20304</text>
</g>
<!-- &#45;7,5 (item=ore&#45;chromium The loneliest chromium)&#45;&gt;&#45;2,8 (syngas from coal dust) -->
<g id="edge2" class="edge">
<title>&#45;7,5 (item=ore&#45;chromium The loneliest chromium)&#45;&gt;&#45;2,8 (syngas from coal dust)</title>
<path fill="none" stroke="black" stroke-width="0.75" d="M1737.37,-938.86C1350.35,-938.86 607.27,-938.86 289.67,-938.86"/>
<polygon fill="black" stroke="black" stroke-width="0.75" points="289.48,-935.36 279.48,-938.86 289.48,-942.36 289.48,-935.36"/>
<text text-anchor="middle" x="955.02" y="-942.66" font-family="Times,serif" font-size="14.00">coal&#45;dust*38032</text>
</g>
<!-- &#45;1,5 (Train stops for bus brick) -->
<g id="node9" class="node">
<title>&#45;1,5 (Train stops for bus brick)</title>
<ellipse fill="none" stroke="black" cx="2205.55" cy="-938.86" rx="152.17" ry="18"/>
<text text-anchor="middle" x="2205.55" y="-935.16" font-family="Times,serif" font-size="14.00">&#45;1,5 (Train stops for bus brick)</text>
</g>
<!-- &#45;7,5 (item=ore&#45;chromium The loneliest chromium)&#45;&gt;&#45;1,5 (Train stops for bus brick) -->
<g id="edge11" class="edge">
<title>&#45;7,5 (item=ore&#45;chromium The loneliest chromium)&#45;&gt;&#45;1,5 (Train stops for bus brick)</title>
<path fill="none" stroke="black" stroke-width="0.04" d="M2205.38,-938.86C2205.41,-938.86 2205.43,-938.86 2205.45,-938.86"/>
<polygon fill="black" stroke="black" stroke-width="0.04" points="2195.51,-942.38 2205.5,-938.86 2195.5,-935.38 2195.51,-942.38"/>
<text text-anchor="middle" x="2151.42" y="-942.66" font-family="Times,serif" font-size="14.00">coal&#45;dust*2112</text>
</g>
<!-- 2,8 (Graphite) -->
<g id="node5" class="node">
<title>2,8 (Graphite)</title>
<ellipse fill="none" stroke="black" cx="409.45" cy="-1590.01" rx="76.09" ry="18"/>
<text text-anchor="middle" x="409.45" y="-1586.31" font-family="Times,serif" font-size="14.00">2,8 (Graphite)</text>
</g>
<!-- 2,8 (Graphite)&#45;&gt;1,7 (Activated Carbon) -->
<g id="edge3" class="edge">
<title>2,8 (Graphite)&#45;&gt;1,7 (Activated Carbon)</title>
<path fill="none" stroke="black" stroke-width="2.7" d="M485.57,-1590.01C701.23,-1590.01 1317.95,-1590.01 1585.44,-1590.01"/>
<polygon fill="black" stroke="black" stroke-width="2.7" points="1585.58,-1593.51 1595.58,-1590.01 1585.58,-1586.51 1585.58,-1593.51"/>
<text text-anchor="middle" x="972.51" y="-1593.81" font-family="Times,serif" font-size="14.00">coal&#45;dust*136656</text>
</g>
<!-- 2,8 (Graphite)&#45;&gt;&#45;2,8 (syngas from coal dust) -->
<g id="edge5" class="edge">
<title>2,8 (Graphite)&#45;&gt;&#45;2,8 (syngas from coal dust)</title>
<path fill="none" stroke="black" stroke-width="4.7" d="M401.96,-1571.91C364.38,-1481.18 196.47,-1075.83 151.08,-966.25"/>
<polygon fill="black" stroke="black" stroke-width="4.7" points="154.83,-964.53 147.2,-956.87 147.22,-967.68 154.83,-964.53"/>
<text text-anchor="middle" x="213.52" y="-1272.88" font-family="Times,serif" font-size="14.00">coal&#45;dust*237968</text>
</g>
<!-- 2,12 (Yet more coke) -->
<g id="node6" class="node">
<title>2,12 (Yet more coke)</title>
<ellipse fill="none" stroke="black" cx="1711.74" cy="-287.71" rx="106.68" ry="18"/>
<text text-anchor="middle" x="1711.74" y="-284.01" font-family="Times,serif" font-size="14.00">2,12 (Yet more coke)</text>
</g>
<!-- 2,12 (Yet more coke)&#45;&gt;1,7 (Activated Carbon) -->
<g id="edge6" class="edge">
<title>2,12 (Yet more coke)&#45;&gt;1,7 (Activated Carbon)</title>
<path fill="none" stroke="black" stroke-width="0.33" d="M1711.74,-306.12C1711.74,-449.43 1711.74,-1385.67 1711.74,-1561.55"/>
<polygon fill="black" stroke="black" stroke-width="0.33" points="1708.25,-1561.8 1711.74,-1571.8 1715.25,-1561.8 1708.25,-1561.8"/>
<text text-anchor="middle" x="1653.24" y="-937.64" font-family="Times,serif" font-size="14.00">coal&#45;dust*16576</text>
</g>
<!-- 2,12 (Yet more coke)&#45;&gt;&#45;2,8 (syngas from coal dust) -->
<g id="edge12" class="edge">
<title>2,12 (Yet more coke)&#45;&gt;&#45;2,8 (syngas from coal dust)</title>
<path fill="none" stroke="black" stroke-width="0.32" d="M1671.31,-304.46C1454.69,-394.19 432.42,-817.63 190.95,-917.65"/>
<polygon fill="black" stroke="black" stroke-width="0.32" points="189.26,-914.56 181.36,-921.62 191.94,-921.03 189.26,-914.56"/>
<text text-anchor="middle" x="872.63" y="-614.86" font-family="Times,serif" font-size="14.00">coal&#45;dust*16000</text>
</g>
<!-- 3,16 (More Coke) -->
<g id="node7" class="node">
<title>3,16 (More Coke)</title>
<ellipse fill="none" stroke="black" cx="1060.6" cy="-18" rx="90.98" ry="18"/>
<text text-anchor="middle" x="1060.6" y="-14.3" font-family="Times,serif" font-size="14.00">3,16 (More Coke)</text>
</g>
<!-- 3,16 (More Coke)&#45;&gt;1,7 (Activated Carbon) -->
<g id="edge7" class="edge">
<title>3,16 (More Coke)&#45;&gt;1,7 (Activated Carbon)</title>
<path fill="none" stroke="black" stroke-width="0.05" d="M1068.14,-36.2C1134.57,-196.57 1619.55,-1367.44 1700.35,-1562.5"/>
<polygon fill="black" stroke="black" stroke-width="0.05" points="1697.23,-1564.12 1704.29,-1572.02 1703.7,-1561.44 1697.23,-1564.12"/>
<text text-anchor="middle" x="1330.24" y="-803.15" font-family="Times,serif" font-size="14.00">coal&#45;dust*2576</text>
</g>
<!-- 3,16 (More Coke)&#45;&gt;&#45;2,8 (syngas from coal dust) -->
<g id="edge10" class="edge">
<title>3,16 (More Coke)&#45;&gt;&#45;2,8 (syngas from coal dust)</title>
<path fill="none" stroke="black" stroke-width="0.72" d="M1042.62,-35.98C928.02,-150.57 300.27,-778.32 165.31,-913.29"/>
<polygon fill="black" stroke="black" stroke-width="0.72" points="162.43,-911.22 157.83,-920.76 167.38,-916.17 162.43,-911.22"/>
<text text-anchor="middle" x="545.46" y="-478.44" font-family="Times,serif" font-size="14.00">coal&#45;dust*36336</text>
</g>
<!-- &#45;6,1 (Coke and Coal Dust from Biomass (needs Iron plates)) -->
<g id="node8" class="node">
<title>&#45;6,1 (Coke and Coal Dust from Biomass (needs Iron plates))</title>
<ellipse fill="none" stroke="black" cx="409.45" cy="-287.71" rx="285.95" ry="18"/>
<text text-anchor="middle" x="409.45" y="-284.01" font-family="Times,serif" font-size="14.00">&#45;6,1 (Coke and Coal Dust from Biomass (needs Iron plates))</text>
</g>
<!-- &#45;6,1 (Coke and Coal Dust from Biomass (needs Iron plates))&#45;&gt;1,7 (Activated Carbon) -->
<g id="edge13" class="edge">
<title>&#45;6,1 (Coke and Coal Dust from Biomass (needs Iron plates))&#45;&gt;1,7 (Activated Carbon)</title>
<path fill="none" stroke="black" stroke-width="0.31" d="M427.86,-306.12C571.96,-450.22 1517.71,-1395.97 1686.12,-1564.38"/>
<polygon fill="black" stroke="black" stroke-width="0.31" points="1684,-1567.21 1693.54,-1571.8 1688.95,-1562.26 1684,-1567.21"/>
<text text-anchor="middle" x="998.49" y="-924.05" font-family="Times,serif" font-size="14.00">coal&#45;dust*15712</text>
</g>
<!-- &#45;6,1 (Coke and Coal Dust from Biomass (needs Iron plates))&#45;&gt;&#45;2,8 (syngas from coal dust) -->
<g id="edge8" class="edge">
<title>&#45;6,1 (Coke and Coal Dust from Biomass (needs Iron plates))&#45;&gt;&#45;2,8 (syngas from coal dust)</title>
<path fill="none" stroke="black" stroke-width="0.44" d="M401.96,-305.81C364.38,-396.54 196.47,-801.89 151.08,-911.47"/>
<polygon fill="black" stroke="black" stroke-width="0.44" points="147.79,-910.27 147.2,-920.85 154.26,-912.95 147.79,-910.27"/>
<text text-anchor="middle" x="218.02" y="-612.44" font-family="Times,serif" font-size="14.00">coal&#45;dust*22016</text>
</g>
</g>
</svg>
