<?xml version="1.0" encoding="UTF-8" standalone="no"?>
<!DOCTYPE svg PUBLIC "-//W3C//DTD SVG 1.1//EN"
 "http://www.w3.org/Graphics/SVG/1.1/DTD/svg11.dtd">
<!-- Generated by graphviz version 2.43.0 (0)
 -->
<!-- Title: %3 Pages: 1 -->
<svg width="1095pt" height="774pt"
 viewBox="0.00 0.00 1095.32 774.08" xmlns="http://www.w3.org/2000/svg" xmlns:xlink="http://www.w3.org/1999/xlink">
<g id="graph0" class="graph" transform="scale(1 1) rotate(0) translate(4 770.08)">
<title>%3</title>
<polygon fill="white" stroke="transparent" points="-4,4 -4,-770.08 1091.32,-770.08 1091.32,4 -4,4"/>
<!-- 1,4 (Casein and Melamine) -->
<g id="node1" class="node">
<title>1,4 (Casein and Melamine)</title>
<ellipse fill="none" stroke="black" cx="489.52" cy="-351.49" rx="135.38" ry="18"/>
<text text-anchor="middle" x="489.52" y="-347.79" font-family="Times,serif" font-size="14.00">1,4 (Casein and Melamine)</text>
</g>
<!-- 2,4 (Formica and Phenolic boards) -->
<g id="node2" class="node">
<title>2,4 (Formica and Phenolic boards)</title>
<ellipse fill="none" stroke="black" cx="917.69" cy="-351.49" rx="169.77" ry="18"/>
<text text-anchor="middle" x="917.69" y="-347.79" font-family="Times,serif" font-size="14.00">2,4 (Formica and Phenolic boards)</text>
</g>
<!-- 1,4 (Casein and Melamine)&#45;&gt;2,4 (Formica and Phenolic boards) -->
<g id="edge1" class="edge">
<title>1,4 (Casein and Melamine)&#45;&gt;2,4 (Formica and Phenolic boards)</title>
<path fill="none" stroke="black" stroke-width="2.8" d="M624.99,-351.49C660.75,-351.49 699.91,-351.49 737.62,-351.49"/>
<polygon fill="black" stroke="black" stroke-width="2.8" points="737.69,-354.99 747.69,-351.49 737.69,-347.99 737.69,-354.99"/>
<text text-anchor="middle" x="681.31" y="-340.29" font-family="Times,serif" font-size="14.00">melamine*196429</text>
</g>
<!-- &#45;5,2 (Optical fiber) -->
<g id="node3" class="node">
<title>&#45;5,2 (Optical fiber)</title>
<ellipse fill="none" stroke="black" cx="328.13" cy="-748.08" rx="96.38" ry="18"/>
<text text-anchor="middle" x="328.13" y="-744.38" font-family="Times,serif" font-size="14.00">&#45;5,2 (Optical fiber)</text>
</g>
<!-- 1,4 (Casein and Melamine)&#45;&gt;&#45;5,2 (Optical fiber) -->
<g id="edge2" class="edge">
<title>1,4 (Casein and Melamine)&#45;&gt;&#45;5,2 (Optical fiber)</title>
<path fill="none" stroke="black" stroke-width="0.15" d="M482.16,-369.56C456.43,-432.79 370.34,-644.36 339.36,-720.49"/>
<polygon fill="black" stroke="black" stroke-width="0.15" points="336.05,-719.32 335.53,-729.9 342.54,-721.96 336.05,-719.32"/>
<text text-anchor="middle" x="349.76" y="-548.83" font-family="Times,serif" font-size="14.00">melamine*10799</text>
</g>
<!-- 7,1 (item=aerogel item=clean&#45;rf&#45;gel Aerogel) -->
<g id="node4" class="node">
<title>7,1 (item=aerogel item=clean&#45;rf&#45;gel Aerogel)</title>
<ellipse fill="none" stroke="black" cx="220.98" cy="-18" rx="220.96" ry="18"/>
<text text-anchor="middle" x="220.98" y="-14.3" font-family="Times,serif" font-size="14.00">7,1 (item=aerogel item=clean&#45;rf&#45;gel Aerogel)</text>
</g>
<!-- 1,4 (Casein and Melamine)&#45;&gt;7,1 (item=aerogel item=clean&#45;rf&#45;gel Aerogel) -->
<g id="edge3" class="edge">
<title>1,4 (Casein and Melamine)&#45;&gt;7,1 (item=aerogel item=clean&#45;rf&#45;gel Aerogel)</title>
<path fill="none" stroke="black" stroke-width="0.05" d="M475.08,-333.56C430.46,-278.14 294.6,-109.43 242.05,-44.16"/>
<polygon fill="black" stroke="black" stroke-width="0.05" points="244.49,-41.61 235.49,-36.02 239.04,-46 244.49,-41.61"/>
<text text-anchor="middle" x="302.06" y="-192.66" font-family="Times,serif" font-size="14.00">melamine*3600</text>
</g>
</g>
</svg>
