<?xml version="1.0" encoding="UTF-8" standalone="no"?>
<!DOCTYPE svg PUBLIC "-//W3C//DTD SVG 1.1//EN"
 "http://www.w3.org/Graphics/SVG/1.1/DTD/svg11.dtd">
<!-- Generated by graphviz version 2.43.0 (0)
 -->
<!-- Title: %3 Pages: 1 -->
<svg width="3067pt" height="2551pt"
 viewBox="0.00 0.00 3066.74 2550.59" xmlns="http://www.w3.org/2000/svg" xmlns:xlink="http://www.w3.org/1999/xlink">
<g id="graph0" class="graph" transform="scale(1 1) rotate(0) translate(4 2546.59)">
<title>%3</title>
<polygon fill="white" stroke="transparent" points="-4,4 -4,-2546.59 3062.74,-2546.59 3062.74,4 -4,4"/>
<!-- 3,16 (More Coke) -->
<g id="node1" class="node">
<title>3,16 (More Coke)</title>
<ellipse fill="none" stroke="black" cx="117" cy="-1628.02" rx="90.98" ry="18"/>
<text text-anchor="middle" x="117" y="-1624.32" font-family="Times,serif" font-size="14.00">3,16 (More Coke)</text>
</g>
<!-- 1,7 (Activated Carbon) -->
<g id="node2" class="node">
<title>1,7 (Activated Carbon)</title>
<ellipse fill="none" stroke="black" cx="502.72" cy="-2228.21" rx="115.88" ry="18"/>
<text text-anchor="middle" x="502.72" y="-2224.51" font-family="Times,serif" font-size="14.00">1,7 (Activated Carbon)</text>
</g>
<!-- 3,16 (More Coke)&#45;&gt;1,7 (Activated Carbon) -->
<g id="edge1" class="edge">
<title>3,16 (More Coke)&#45;&gt;1,7 (Activated Carbon)</title>
<path fill="none" stroke="black" stroke-width="0.27" d="M128.54,-1645.98C183.6,-1731.66 419.58,-2098.85 485.54,-2201.47"/>
<polygon fill="black" stroke="black" stroke-width="0.27" points="482.68,-2203.51 491.03,-2210.03 488.57,-2199.72 482.68,-2203.51"/>
<text text-anchor="middle" x="248.54" y="-1927.53" font-family="Times,serif" font-size="14.00">coal&#45;dust*18384</text>
</g>
<!-- &#45;3,9 (Silicon Wafers) -->
<g id="node6" class="node">
<title>&#45;3,9 (Silicon Wafers)</title>
<ellipse fill="none" stroke="black" cx="117" cy="-914.57" rx="103.98" ry="18"/>
<text text-anchor="middle" x="117" y="-910.87" font-family="Times,serif" font-size="14.00">&#45;3,9 (Silicon Wafers)</text>
</g>
<!-- 3,16 (More Coke)&#45;&gt;&#45;3,9 (Silicon Wafers) -->
<g id="edge16" class="edge">
<title>3,16 (More Coke)&#45;&gt;&#45;3,9 (Silicon Wafers)</title>
<path fill="none" stroke="black" stroke-width="0.37" d="M117,-1609.67C117,-1512.8 117,-1060.95 117,-942.86"/>
<polygon fill="black" stroke="black" stroke-width="0.37" points="120.5,-942.8 117,-932.8 113.5,-942.8 120.5,-942.8"/>
<text text-anchor="middle" x="58.5" y="-1280.07" font-family="Times,serif" font-size="14.00">coal&#45;dust*25024</text>
</g>
<!-- &#45;2,8 (syngas from coal dust and also wood) -->
<g id="node8" class="node">
<title>&#45;2,8 (syngas from coal dust and also wood)</title>
<ellipse fill="none" stroke="black" cx="2598.08" cy="-1271.3" rx="208.76" ry="18"/>
<text text-anchor="middle" x="2598.08" y="-1267.6" font-family="Times,serif" font-size="14.00">&#45;2,8 (syngas from coal dust and also wood)</text>
</g>
<!-- 3,16 (More Coke)&#45;&gt;&#45;2,8 (syngas from coal dust and also wood) -->
<g id="edge13" class="edge">
<title>3,16 (More Coke)&#45;&gt;&#45;2,8 (syngas from coal dust and also wood)</title>
<path fill="none" stroke="black" stroke-width="0.47" d="M190.92,-1617.39C542.47,-1566.85 2046.24,-1350.64 2480.33,-1288.22"/>
<polygon fill="black" stroke="black" stroke-width="0.47" points="2480.98,-1291.67 2490.38,-1286.78 2479.99,-1284.74 2480.98,-1291.67"/>
<text text-anchor="middle" x="1277.12" y="-1456.61" font-family="Times,serif" font-size="14.00">coal&#45;dust*32192</text>
</g>
<!-- &#45;5,&#45;1 (Coal and Coke and Syngas and Ash and Coke Oven Gas and...) -->
<g id="node3" class="node">
<title>&#45;5,&#45;1 (Coal and Coke and Syngas and Ash and Coke Oven Gas and...)</title>
<ellipse fill="none" stroke="black" cx="502.72" cy="-314.38" rx="325.74" ry="18"/>
<text text-anchor="middle" x="502.72" y="-310.68" font-family="Times,serif" font-size="14.00">&#45;5,&#45;1 (Coal and Coke and Syngas and Ash and Coke Oven Gas and...)</text>
</g>
<!-- &#45;5,&#45;1 (Coal and Coke and Syngas and Ash and Coke Oven Gas and...)&#45;&gt;1,7 (Activated Carbon) -->
<g id="edge10" class="edge">
<title>&#45;5,&#45;1 (Coal and Coke and Syngas and Ash and Coke Oven Gas and...)&#45;&gt;1,7 (Activated Carbon)</title>
<path fill="none" stroke="black" stroke-width="0.68" d="M502.72,-332.4C502.72,-511.91 502.72,-1976.32 502.72,-2199.69"/>
<polygon fill="black" stroke="black" stroke-width="0.68" points="499.22,-2199.93 502.72,-2209.93 506.22,-2199.93 499.22,-2199.93"/>
<text text-anchor="middle" x="444.22" y="-1269.85" font-family="Times,serif" font-size="14.00">coal&#45;dust*46496</text>
</g>
<!-- 0,0 (LE BUS) -->
<g id="node4" class="node">
<title>0,0 (LE BUS)</title>
<ellipse fill="none" stroke="black" cx="1151.7" cy="-18" rx="71.49" ry="18"/>
<text text-anchor="middle" x="1151.7" y="-14.3" font-family="Times,serif" font-size="14.00">0,0 (LE BUS)</text>
</g>
<!-- &#45;5,&#45;1 (Coal and Coke and Syngas and Ash and Coke Oven Gas and...)&#45;&gt;0,0 (LE BUS) -->
<g id="edge2" class="edge">
<title>&#45;5,&#45;1 (Coal and Coke and Syngas and Ash and Coke Oven Gas and...)&#45;&gt;0,0 (LE BUS)</title>
<path fill="none" stroke="black" stroke-width="0.03" d="M541.86,-296.51C655.92,-244.41 987.56,-92.96 1107.64,-38.12"/>
<polygon fill="black" stroke="black" stroke-width="0.03" points="1109.28,-41.22 1116.92,-33.88 1106.37,-34.85 1109.28,-41.22"/>
<text text-anchor="middle" x="770.75" y="-171.11" font-family="Times,serif" font-size="14.00">coal&#45;dust*2016</text>
</g>
<!-- &#45;5,&#45;1 (Coal and Coke and Syngas and Ash and Coke Oven Gas and...)&#45;&gt;&#45;3,9 (Silicon Wafers) -->
<g id="edge8" class="edge">
<title>&#45;5,&#45;1 (Coal and Coke and Syngas and Ash and Coke Oven Gas and...)&#45;&gt;&#45;3,9 (Silicon Wafers)</title>
<path fill="none" stroke="black" stroke-width="0.49" d="M490.97,-332.67C435.51,-418.96 199.97,-785.47 134.15,-887.89"/>
<polygon fill="black" stroke="black" stroke-width="0.49" points="131.12,-886.12 128.66,-896.42 137.01,-889.9 131.12,-886.12"/>
<text text-anchor="middle" x="254.06" y="-614.08" font-family="Times,serif" font-size="14.00">coal&#45;dust*33712</text>
</g>
<!-- &#45;5,&#45;1 (Coal and Coke and Syngas and Ash and Coke Oven Gas and...)&#45;&gt;&#45;2,8 (syngas from coal dust and also wood) -->
<g id="edge6" class="edge">
<title>&#45;5,&#45;1 (Coal and Coke and Syngas and Ash and Coke Oven Gas and...)&#45;&gt;&#45;2,8 (syngas from coal dust and also wood)</title>
<path fill="none" stroke="black" stroke-width="3.37" d="M542.25,-332.43C802.22,-451.16 2265.41,-1119.37 2550.08,-1249.38"/>
<polygon fill="black" stroke="black" stroke-width="3.37" points="2548.77,-1252.62 2559.32,-1253.6 2551.68,-1246.26 2548.77,-1252.62"/>
<text text-anchor="middle" x="1483.16" y="-794.7" font-family="Times,serif" font-size="14.00">coal&#45;dust*229616</text>
</g>
<!-- 2,8 (Graphite) -->
<g id="node5" class="node">
<title>2,8 (Graphite)</title>
<ellipse fill="none" stroke="black" cx="1857.89" cy="-119.53" rx="76.09" ry="18"/>
<text text-anchor="middle" x="1857.89" y="-115.83" font-family="Times,serif" font-size="14.00">2,8 (Graphite)</text>
</g>
<!-- 2,8 (Graphite)&#45;&gt;1,7 (Activated Carbon) -->
<g id="edge5" class="edge">
<title>2,8 (Graphite)&#45;&gt;1,7 (Activated Carbon)</title>
<path fill="none" stroke="black" stroke-width="2.26" d="M1846.37,-137.45C1724.17,-327.6 667.23,-1972.23 519.77,-2201.68"/>
<polygon fill="black" stroke="black" stroke-width="2.26" points="516.82,-2199.8 514.35,-2210.11 522.71,-2203.59 516.82,-2199.8"/>
<text text-anchor="middle" x="1120.07" y="-1173.36" font-family="Times,serif" font-size="14.00">coal&#45;dust*153951</text>
</g>
<!-- 2,8 (Graphite)&#45;&gt;0,0 (LE BUS) -->
<g id="edge12" class="edge">
<title>2,8 (Graphite)&#45;&gt;0,0 (LE BUS)</title>
<path fill="none" stroke="black" stroke-width="0.05" d="M1792.71,-110.16C1660.55,-91.16 1361.87,-48.22 1223.97,-28.39"/>
<polygon fill="black" stroke="black" stroke-width="0.05" points="1224.32,-24.91 1213.92,-26.95 1223.32,-31.83 1224.32,-24.91"/>
<text text-anchor="middle" x="1454.34" y="-73.08" font-family="Times,serif" font-size="14.00">coal&#45;dust*3536</text>
</g>
<!-- 2,8 (Graphite)&#45;&gt;&#45;3,9 (Silicon Wafers) -->
<g id="edge3" class="edge">
<title>2,8 (Graphite)&#45;&gt;&#45;3,9 (Silicon Wafers)</title>
<path fill="none" stroke="black" stroke-width="1.17" d="M1822.72,-135.6C1602.38,-236.22 413.31,-779.25 163.19,-893.48"/>
<polygon fill="black" stroke="black" stroke-width="1.17" points="161.65,-890.33 154.01,-897.67 164.56,-896.7 161.65,-890.33"/>
<text text-anchor="middle" x="934.45" y="-518.34" font-family="Times,serif" font-size="14.00">coal&#45;dust*80027</text>
</g>
<!-- 2,8 (Graphite)&#45;&gt;&#45;2,8 (syngas from coal dust and also wood) -->
<g id="edge7" class="edge">
<title>2,8 (Graphite)&#45;&gt;&#45;2,8 (syngas from coal dust and also wood)</title>
<path fill="none" stroke="black" stroke-width="8.47" d="M1869.51,-137.63C1954.45,-269.79 2478.87,-1085.81 2580.89,-1244.55"/>
<polygon fill="black" stroke="black" stroke-width="8.47" points="2574.84,-1248.84 2586.48,-1253.24 2587.3,-1240.82 2574.84,-1248.84"/>
<text text-anchor="middle" x="2162.2" y="-694.89" font-family="Times,serif" font-size="14.00">coal&#45;dust*577105</text>
</g>
<!-- &#45;7,5 () -->
<g id="node7" class="node">
<title>&#45;7,5 ()</title>
<ellipse fill="none" stroke="black" cx="1151.7" cy="-2524.59" rx="38.19" ry="18"/>
<text text-anchor="middle" x="1151.7" y="-2520.89" font-family="Times,serif" font-size="14.00">&#45;7,5 ()</text>
</g>
<!-- &#45;7,5 ()&#45;&gt;1,7 (Activated Carbon) -->
<g id="edge11" class="edge">
<title>&#45;7,5 ()&#45;&gt;1,7 (Activated Carbon)</title>
<path fill="none" stroke="black" stroke-width="0.33" d="M1123.81,-2511.86C1022.96,-2465.8 676.5,-2307.57 549.69,-2249.67"/>
<polygon fill="black" stroke="black" stroke-width="0.33" points="550.79,-2246.32 540.24,-2245.35 547.88,-2252.69 550.79,-2246.32"/>
<text text-anchor="middle" x="778.25" y="-2384.56" font-family="Times,serif" font-size="14.00">coal&#45;dust*22768</text>
</g>
<!-- &#45;7,5 ()&#45;&gt;&#45;3,9 (Silicon Wafers) -->
<g id="edge15" class="edge">
<title>&#45;7,5 ()&#45;&gt;&#45;3,9 (Silicon Wafers)</title>
<path fill="none" stroke="black" stroke-width="0.15" d="M1140.6,-2507.33C1038.27,-2348.09 259.52,-1136.33 134.04,-941.09"/>
<polygon fill="black" stroke="black" stroke-width="0.15" points="136.92,-939.09 128.57,-932.57 131.03,-942.87 136.92,-939.09"/>
<text text-anchor="middle" x="578.82" y="-1728.01" font-family="Times,serif" font-size="14.00">coal&#45;dust*10128</text>
</g>
<!-- &#45;7,5 ()&#45;&gt;&#45;2,8 (syngas from coal dust and also wood) -->
<g id="edge4" class="edge">
<title>&#45;7,5 ()&#45;&gt;&#45;2,8 (syngas from coal dust and also wood)</title>
<path fill="none" stroke="black" stroke-width="0.68" d="M1169.98,-2508.74C1322.4,-2376.68 2380.7,-1459.65 2569.34,-1296.19"/>
<polygon fill="black" stroke="black" stroke-width="0.68" points="2571.91,-1298.6 2577.17,-1289.41 2567.32,-1293.31 2571.91,-1298.6"/>
<text text-anchor="middle" x="1811.16" y="-1906.27" font-family="Times,serif" font-size="14.00">coal&#45;dust*46320</text>
</g>
<!-- 4,3 (item=nexelit&#45;plate Nexelit platery) -->
<g id="node9" class="node">
<title>4,3 (item=nexelit&#45;plate Nexelit platery)</title>
<ellipse fill="none" stroke="black" cx="2864.41" cy="-1271.3" rx="194.17" ry="18"/>
<text text-anchor="middle" x="2864.41" y="-1267.6" font-family="Times,serif" font-size="14.00">4,3 (item=nexelit&#45;plate Nexelit platery)</text>
</g>
<!-- 4,3 (item=nexelit&#45;plate Nexelit platery)&#45;&gt;&#45;2,8 (syngas from coal dust and also wood) -->
<g id="edge9" class="edge">
<title>4,3 (item=nexelit&#45;plate Nexelit platery)&#45;&gt;&#45;2,8 (syngas from coal dust and also wood)</title>
<path fill="none" stroke="black" stroke-width="0.22" d="M2669.8,-1271.3C2669.72,-1271.3 2669.64,-1271.3 2669.56,-1271.3"/>
<polygon fill="black" stroke="black" stroke-width="0.22" points="2679.32,-1267.8 2669.32,-1271.3 2679.32,-1274.8 2679.32,-1267.8"/>
<text text-anchor="middle" x="2611.18" y="-1275.1" font-family="Times,serif" font-size="14.00">coal&#45;dust*14944</text>
</g>
<!-- &#45;6,1 (Coke and Coal Dust from Biomass (needs Iron plates)) -->
<g id="node10" class="node">
<title>&#45;6,1 (Coke and Coal Dust from Biomass (needs Iron plates))</title>
<ellipse fill="none" stroke="black" cx="2397.08" cy="-586.75" rx="285.95" ry="18"/>
<text text-anchor="middle" x="2397.08" y="-583.05" font-family="Times,serif" font-size="14.00">&#45;6,1 (Coke and Coal Dust from Biomass (needs Iron plates))</text>
</g>
<!-- &#45;6,1 (Coke and Coal Dust from Biomass (needs Iron plates))&#45;&gt;1,7 (Activated Carbon) -->
<g id="edge19" class="edge">
<title>&#45;6,1 (Coke and Coal Dust from Biomass (needs Iron plates))&#45;&gt;1,7 (Activated Carbon)</title>
<path fill="none" stroke="black" stroke-width="0.06" d="M2376.12,-604.9C2185.3,-770.25 750.23,-2013.74 530.82,-2203.86"/>
<polygon fill="black" stroke="black" stroke-width="0.06" points="528.52,-2201.23 523.25,-2210.42 533.1,-2206.52 528.52,-2201.23"/>
<text text-anchor="middle" x="1399.47" y="-1408.18" font-family="Times,serif" font-size="14.00">coal&#45;dust*3856</text>
</g>
<!-- &#45;6,1 (Coke and Coal Dust from Biomass (needs Iron plates))&#45;&gt;&#45;2,8 (syngas from coal dust and also wood) -->
<g id="edge14" class="edge">
<title>&#45;6,1 (Coke and Coal Dust from Biomass (needs Iron plates))&#45;&gt;&#45;2,8 (syngas from coal dust and also wood)</title>
<path fill="none" stroke="black" stroke-width="0.72" d="M2402.45,-605.06C2430.12,-699.28 2556.45,-1129.53 2589.92,-1243.52"/>
<polygon fill="black" stroke="black" stroke-width="0.72" points="2586.6,-1244.64 2592.78,-1253.25 2593.32,-1242.67 2586.6,-1244.64"/>
<text text-anchor="middle" x="2437.69" y="-928.09" font-family="Times,serif" font-size="14.00">coal&#45;dust*48736</text>
</g>
<!-- 2,12 (Yet more coke) -->
<g id="node11" class="node">
<title>2,12 (Yet more coke)</title>
<ellipse fill="none" stroke="black" cx="1857.89" cy="-2423.06" rx="106.68" ry="18"/>
<text text-anchor="middle" x="1857.89" y="-2419.36" font-family="Times,serif" font-size="14.00">2,12 (Yet more coke)</text>
</g>
<!-- 2,12 (Yet more coke)&#45;&gt;1,7 (Activated Carbon) -->
<g id="edge20" class="edge">
<title>2,12 (Yet more coke)&#45;&gt;1,7 (Activated Carbon)</title>
<path fill="none" stroke="black" stroke-width="0.04" d="M1776.67,-2411.38C1540,-2377.35 851.7,-2278.39 598.04,-2241.92"/>
<polygon fill="black" stroke="black" stroke-width="0.04" points="598.5,-2238.45 588.11,-2240.49 597.51,-2245.38 598.5,-2238.45"/>
<text text-anchor="middle" x="1133.35" y="-2330.45" font-family="Times,serif" font-size="14.00">coal&#45;dust*2992</text>
</g>
<!-- 2,12 (Yet more coke)&#45;&gt;&#45;2,8 (syngas from coal dust and also wood) -->
<g id="edge17" class="edge">
<title>2,12 (Yet more coke)&#45;&gt;&#45;2,8 (syngas from coal dust and also wood)</title>
<path fill="none" stroke="black" stroke-width="0.54" d="M1869.51,-2404.96C1954.45,-2272.8 2478.87,-1456.78 2580.89,-1298.04"/>
<polygon fill="black" stroke="black" stroke-width="0.54" points="2584.01,-1299.65 2586.48,-1289.35 2578.13,-1295.87 2584.01,-1299.65"/>
<text text-anchor="middle" x="2166.7" y="-1855.3" font-family="Times,serif" font-size="14.00">coal&#45;dust*37056</text>
</g>
<!-- 3,15 (Even Yet More Coke) -->
<g id="node12" class="node">
<title>3,15 (Even Yet More Coke)</title>
<ellipse fill="none" stroke="black" cx="2397.08" cy="-1955.85" rx="135.38" ry="18"/>
<text text-anchor="middle" x="2397.08" y="-1952.15" font-family="Times,serif" font-size="14.00">3,15 (Even Yet More Coke)</text>
</g>
<!-- 3,15 (Even Yet More Coke)&#45;&gt;&#45;3,9 (Silicon Wafers) -->
<g id="edge21" class="edge">
<title>3,15 (Even Yet More Coke)&#45;&gt;&#45;3,9 (Silicon Wafers)</title>
<path fill="none" stroke="black" stroke-width="0.37" d="M2358.93,-1938.43C2088.28,-1814.82 460.36,-1071.38 163.46,-935.79"/>
<polygon fill="black" stroke="black" stroke-width="0.37" points="164.81,-932.56 154.26,-931.59 161.9,-938.92 164.81,-932.56"/>
<text text-anchor="middle" x="1202.69" y="-1440.91" font-family="Times,serif" font-size="14.00">coal&#45;dust*25040</text>
</g>
<!-- 3,15 (Even Yet More Coke)&#45;&gt;&#45;2,8 (syngas from coal dust and also wood) -->
<g id="edge18" class="edge">
<title>3,15 (Even Yet More Coke)&#45;&gt;&#45;2,8 (syngas from coal dust and also wood)</title>
<path fill="none" stroke="black" stroke-width="0.25" d="M2402.45,-1937.54C2430.12,-1843.31 2556.45,-1413.06 2589.92,-1299.07"/>
<polygon fill="black" stroke="black" stroke-width="0.25" points="2593.32,-1299.93 2592.78,-1289.34 2586.6,-1297.95 2593.32,-1299.93"/>
<text text-anchor="middle" x="2437.69" y="-1622.11" font-family="Times,serif" font-size="14.00">coal&#45;dust*17104</text>
</g>
</g>
</svg>
