<?xml version="1.0" encoding="UTF-8" standalone="no"?>
<!DOCTYPE svg PUBLIC "-//W3C//DTD SVG 1.1//EN"
 "http://www.w3.org/Graphics/SVG/1.1/DTD/svg11.dtd">
<!-- Generated by graphviz version 2.43.0 (0)
 -->
<!-- Title: %3 Pages: 1 -->
<svg width="1077pt" height="598pt"
 viewBox="0.00 0.00 1076.78 598.13" xmlns="http://www.w3.org/2000/svg" xmlns:xlink="http://www.w3.org/1999/xlink">
<g id="graph0" class="graph" transform="scale(1 1) rotate(0) translate(4 594.13)">
<title>%3</title>
<polygon fill="white" stroke="transparent" points="-4,4 -4,-594.13 1072.78,-594.13 1072.78,4 -4,4"/>
<!-- 2,14 (Latex) -->
<g id="node1" class="node">
<title>2,14 (Latex)</title>
<ellipse fill="none" stroke="black" cx="66.94" cy="-355.88" rx="66.89" ry="18"/>
<text text-anchor="middle" x="66.94" y="-352.18" font-family="Times,serif" font-size="14.00">2,14 (Latex)</text>
</g>
<!-- &#45;2,0 (Glassware) -->
<g id="node2" class="node">
<title>&#45;2,0 (Glassware)</title>
<ellipse fill="none" stroke="black" cx="368.2" cy="-569.42" rx="86.38" ry="18"/>
<text text-anchor="middle" x="368.2" y="-565.72" font-family="Times,serif" font-size="14.00">&#45;2,0 (Glassware)</text>
</g>
<!-- 2,14 (Latex)&#45;&gt;&#45;2,0 (Glassware) -->
<g id="edge1" class="edge">
<title>2,14 (Latex)&#45;&gt;&#45;2,0 (Glassware)</title>
<path fill="none" stroke="black" stroke-width="2.7" d="M90.84,-372.81C144.29,-410.7 273.65,-502.4 334.94,-545.84"/>
<polygon fill="black" stroke="black" stroke-width="2.7" points="333.28,-548.96 343.47,-551.89 337.33,-543.25 333.28,-548.96"/>
<text text-anchor="middle" x="168.89" y="-463.13" font-family="Times,serif" font-size="14.00">latex*35056</text>
</g>
<!-- &#45;1,12 (I can&#39;t believe it&#39;s more latex duplicates) -->
<g id="node3" class="node">
<title>&#45;1,12 (I can&#39;t believe it&#39;s more latex duplicates)</title>
<ellipse fill="none" stroke="black" cx="839.35" cy="-489.15" rx="229.36" ry="18"/>
<text text-anchor="middle" x="839.35" y="-485.45" font-family="Times,serif" font-size="14.00">&#45;1,12 (I can&#39;t believe it&#39;s more latex duplicates)</text>
</g>
<!-- &#45;1,12 (I can&#39;t believe it&#39;s more latex duplicates)&#45;&gt;&#45;2,0 (Glassware) -->
<g id="edge3" class="edge">
<title>&#45;1,12 (I can&#39;t believe it&#39;s more latex duplicates)&#45;&gt;&#45;2,0 (Glassware)</title>
<path fill="none" stroke="black" stroke-width="0.78" d="M743.16,-505.54C655.27,-520.51 526.98,-542.37 445.56,-556.24"/>
<polygon fill="black" stroke="black" stroke-width="0.78" points="444.65,-552.85 435.38,-557.98 445.83,-559.75 444.65,-552.85"/>
<text text-anchor="middle" x="550.36" y="-534.69" font-family="Times,serif" font-size="14.00">latex*10080</text>
</g>
<!-- 3,13 (Rubber) -->
<g id="node4" class="node">
<title>3,13 (Rubber)</title>
<ellipse fill="none" stroke="black" cx="759.08" cy="-18" rx="75.29" ry="18"/>
<text text-anchor="middle" x="759.08" y="-14.3" font-family="Times,serif" font-size="14.00">3,13 (Rubber)</text>
</g>
<!-- &#45;1,12 (I can&#39;t believe it&#39;s more latex duplicates)&#45;&gt;3,13 (Rubber) -->
<g id="edge2" class="edge">
<title>&#45;1,12 (I can&#39;t believe it&#39;s more latex duplicates)&#45;&gt;3,13 (Rubber)</title>
<path fill="none" stroke="black" stroke-width="1.58" d="M836.26,-470.97C823.99,-398.97 778.76,-133.51 763.87,-46.11"/>
<polygon fill="black" stroke="black" stroke-width="1.58" points="767.3,-45.4 762.17,-36.13 760.4,-46.57 767.3,-45.4"/>
<text text-anchor="middle" x="756.06" y="-262.34" font-family="Times,serif" font-size="14.00">latex*20480</text>
</g>
<!-- 0,0 (LE BUS) -->
<g id="node5" class="node">
<title>0,0 (LE BUS)</title>
<ellipse fill="none" stroke="black" cx="956.42" cy="-572.13" rx="71.49" ry="18"/>
<text text-anchor="middle" x="956.42" y="-568.43" font-family="Times,serif" font-size="14.00">0,0 (LE BUS)</text>
</g>
<!-- &#45;1,12 (I can&#39;t believe it&#39;s more latex duplicates)&#45;&gt;0,0 (LE BUS) -->
<g id="edge4" class="edge">
<title>&#45;1,12 (I can&#39;t believe it&#39;s more latex duplicates)&#45;&gt;0,0 (LE BUS)</title>
<path fill="none" stroke="black" stroke-width="0.16" d="M864.75,-507.16C882.13,-519.48 905.32,-535.91 924.03,-549.17"/>
<polygon fill="black" stroke="black" stroke-width="0.16" points="922.08,-552.09 932.27,-555.01 926.13,-546.38 922.08,-552.09"/>
<text text-anchor="middle" x="854.89" y="-531.97" font-family="Times,serif" font-size="14.00">latex*2080</text>
</g>
<!-- 0,12 (Latex duplicate) -->
<g id="node6" class="node">
<title>0,12 (Latex duplicate)</title>
<ellipse fill="none" stroke="black" cx="287.93" cy="-98.27" rx="112.38" ry="18"/>
<text text-anchor="middle" x="287.93" y="-94.57" font-family="Times,serif" font-size="14.00">0,12 (Latex duplicate)</text>
</g>
<!-- 0,12 (Latex duplicate)&#45;&gt;&#45;2,0 (Glassware) -->
<g id="edge6" class="edge">
<title>0,12 (Latex duplicate)&#45;&gt;&#45;2,0 (Glassware)</title>
<path fill="none" stroke="black" stroke-width="0.39" d="M291.03,-116.45C303.29,-188.45 348.52,-453.91 363.41,-541.32"/>
<polygon fill="black" stroke="black" stroke-width="0.39" points="359.98,-542.03 365.11,-551.3 366.88,-540.85 359.98,-542.03"/>
<text text-anchor="middle" x="287.72" y="-332.68" font-family="Times,serif" font-size="14.00">latex*5040</text>
</g>
<!-- 0,12 (Latex duplicate)&#45;&gt;3,13 (Rubber) -->
<g id="edge5" class="edge">
<title>0,12 (Latex duplicate)&#45;&gt;3,13 (Rubber)</title>
<path fill="none" stroke="black" stroke-width="0.4" d="M364.94,-85.15C454.29,-69.93 600.43,-45.03 687.43,-30.21"/>
<polygon fill="black" stroke="black" stroke-width="0.4" points="688.21,-33.63 697.48,-28.5 687.03,-26.73 688.21,-33.63"/>
<text text-anchor="middle" x="486.68" y="-61.48" font-family="Times,serif" font-size="14.00">latex*5200</text>
</g>
</g>
</svg>
