<?xml version="1.0" encoding="UTF-8" standalone="no"?>
<!DOCTYPE svg PUBLIC "-//W3C//DTD SVG 1.1//EN"
 "http://www.w3.org/Graphics/SVG/1.1/DTD/svg11.dtd">
<!-- Generated by graphviz version 2.43.0 (0)
 -->
<!-- Title: %3 Pages: 1 -->
<svg width="618pt" height="44pt"
 viewBox="0.00 0.00 618.01 44.00" xmlns="http://www.w3.org/2000/svg" xmlns:xlink="http://www.w3.org/1999/xlink">
<g id="graph0" class="graph" transform="scale(1 1) rotate(0) translate(4 40)">
<title>%3</title>
<polygon fill="white" stroke="transparent" points="-4,4 -4,-40 614.01,-40 614.01,4 -4,4"/>
<!-- 2,10 (Nickel plate) -->
<g id="node1" class="node">
<title>2,10 (Nickel plate)</title>
<ellipse fill="none" stroke="black" cx="300.78" cy="-18" rx="96.68" ry="18"/>
<text text-anchor="middle" x="300.78" y="-14.3" font-family="Times,serif" font-size="14.00">2,10 (Nickel plate)</text>
</g>
<!-- &#45;2,&#45;3 (Trains) -->
<g id="node2" class="node">
<title>&#45;2,&#45;3 (Trains)</title>
<ellipse fill="none" stroke="black" cx="539.81" cy="-18" rx="70.39" ry="18"/>
<text text-anchor="middle" x="539.81" y="-14.3" font-family="Times,serif" font-size="14.00">&#45;2,&#45;3 (Trains)</text>
</g>
<!-- 2,10 (Nickel plate)&#45;&gt;&#45;2,&#45;3 (Trains) -->
<g id="edge1" class="edge">
<title>2,10 (Nickel plate)&#45;&gt;&#45;2,&#45;3 (Trains)</title>
<path fill="none" stroke="black" stroke-width="1.61" d="M397.66,-18C418.16,-18 439.58,-18 459.39,-18"/>
<polygon fill="black" stroke="black" stroke-width="1.61" points="459.59,-21.5 469.59,-18 459.59,-14.5 459.59,-21.5"/>
<text text-anchor="middle" x="460.02" y="-6.8" font-family="Times,serif" font-size="14.00">nickel&#45;plate*8272</text>
</g>
<!-- 4,&#45;1 (Fluid) -->
<g id="node3" class="node">
<title>4,&#45;1 (Fluid)</title>
<ellipse fill="none" stroke="black" cx="61.74" cy="-18" rx="61.99" ry="18"/>
<text text-anchor="middle" x="61.74" y="-14.3" font-family="Times,serif" font-size="14.00">4,&#45;1 (Fluid)</text>
</g>
<!-- 2,10 (Nickel plate)&#45;&gt;4,&#45;1 (Fluid) -->
<g id="edge2" class="edge">
<title>2,10 (Nickel plate)&#45;&gt;4,&#45;1 (Fluid)</title>
<path fill="none" stroke="black" stroke-width="0.39" d="M203.9,-18C180.55,-18 156,-18 134,-18"/>
<polygon fill="black" stroke="black" stroke-width="0.39" points="133.76,-14.5 123.76,-18 133.76,-21.5 133.76,-14.5"/>
<text text-anchor="middle" x="137.45" y="-6.8" font-family="Times,serif" font-size="14.00">nickel&#45;plate*2000</text>
</g>
</g>
</svg>
