<?xml version="1.0" encoding="UTF-8" standalone="no"?>
<!DOCTYPE svg PUBLIC "-//W3C//DTD SVG 1.1//EN"
 "http://www.w3.org/Graphics/SVG/1.1/DTD/svg11.dtd">
<!-- Generated by graphviz version 2.43.0 (0)
 -->
<!-- Title: %3 Pages: 1 -->
<svg width="1096pt" height="44pt"
 viewBox="0.00 0.00 1095.72 44.00" xmlns="http://www.w3.org/2000/svg" xmlns:xlink="http://www.w3.org/1999/xlink">
<g id="graph0" class="graph" transform="scale(1 1) rotate(0) translate(4 40)">
<title>%3</title>
<polygon fill="white" stroke="transparent" points="-4,4 -4,-40 1091.72,-40 1091.72,4 -4,4"/>
<!-- 0,0 (LE BUS) -->
<g id="node1" class="node">
<title>0,0 (LE BUS)</title>
<ellipse fill="none" stroke="black" cx="611.45" cy="-18" rx="71.49" ry="18"/>
<text text-anchor="middle" x="611.45" y="-14.3" font-family="Times,serif" font-size="14.00">0,0 (LE BUS)</text>
</g>
<!-- &#45;4,&#45;2 (For Science!) -->
<g id="node2" class="node">
<title>&#45;4,&#45;2 (For Science!)</title>
<ellipse fill="none" stroke="black" cx="988.93" cy="-18" rx="98.58" ry="18"/>
<text text-anchor="middle" x="988.93" y="-14.3" font-family="Times,serif" font-size="14.00">&#45;4,&#45;2 (For Science!)</text>
</g>
<!-- 0,0 (LE BUS)&#45;&gt;&#45;4,&#45;2 (For Science!) -->
<g id="edge1" class="edge">
<title>0,0 (LE BUS)&#45;&gt;&#45;4,&#45;2 (For Science!)</title>
<path fill="none" stroke="black" stroke-width="0.48" d="M683.34,-18C738.87,-18 816.66,-18 879.85,-18"/>
<polygon fill="black" stroke="black" stroke-width="0.48" points="879.86,-21.5 889.86,-18 879.86,-14.5 879.86,-21.5"/>
<text text-anchor="middle" x="747.59" y="-21.8" font-family="Times,serif" font-size="14.00">flask*720</text>
</g>
<!-- &#45;3,1 (Logistic science pack, Automation Science) -->
<g id="node3" class="node">
<title>&#45;3,1 (Logistic science pack, Automation Science)</title>
<ellipse fill="none" stroke="black" cx="233.98" cy="-18" rx="233.96" ry="18"/>
<text text-anchor="middle" x="233.98" y="-14.3" font-family="Times,serif" font-size="14.00">&#45;3,1 (Logistic science pack, Automation Science)</text>
</g>
<!-- 0,0 (LE BUS)&#45;&gt;&#45;3,1 (Logistic science pack, Automation Science) -->
<g id="edge2" class="edge">
<title>0,0 (LE BUS)&#45;&gt;&#45;3,1 (Logistic science pack, Automation Science)</title>
<path fill="none" stroke="black" stroke-width="1.52" d="M539.56,-18C521.11,-18 500.19,-18 478.17,-18"/>
<polygon fill="black" stroke="black" stroke-width="1.52" points="477.98,-14.5 467.98,-18 477.98,-21.5 477.98,-14.5"/>
<text text-anchor="middle" x="508.87" y="-6.8" font-family="Times,serif" font-size="14.00">flask*2256</text>
</g>
</g>
</svg>
