<?xml version="1.0" encoding="UTF-8" standalone="no"?>
<!DOCTYPE svg PUBLIC "-//W3C//DTD SVG 1.1//EN"
 "http://www.w3.org/Graphics/SVG/1.1/DTD/svg11.dtd">
<!-- Generated by graphviz version 2.43.0 (0)
 -->
<!-- Title: %3 Pages: 1 -->
<svg width="1766pt" height="1542pt"
 viewBox="0.00 0.00 1765.67 1541.70" xmlns="http://www.w3.org/2000/svg" xmlns:xlink="http://www.w3.org/1999/xlink">
<g id="graph0" class="graph" transform="scale(1 1) rotate(0) translate(4 1537.7)">
<title>%3</title>
<polygon fill="white" stroke="transparent" points="-4,4 -4,-1537.7 1761.67,-1537.7 1761.67,4 -4,4"/>
<!-- 1,7 (Activated Carbon) -->
<g id="node1" class="node">
<title>1,7 (Activated Carbon)</title>
<ellipse fill="none" stroke="black" cx="1419.88" cy="-278.07" rx="115.88" ry="18"/>
<text text-anchor="middle" x="1419.88" y="-274.37" font-family="Times,serif" font-size="14.00">1,7 (Activated Carbon)</text>
</g>
<!-- 2,6 (Refined Syngas, Nisi) -->
<g id="node2" class="node">
<title>2,6 (Refined Syngas, Nisi)</title>
<ellipse fill="none" stroke="black" cx="969.42" cy="-18" rx="131.88" ry="18"/>
<text text-anchor="middle" x="969.42" y="-14.3" font-family="Times,serif" font-size="14.00">2,6 (Refined Syngas, Nisi)</text>
</g>
<!-- 1,7 (Activated Carbon)&#45;&gt;2,6 (Refined Syngas, Nisi) -->
<g id="edge1" class="edge">
<title>1,7 (Activated Carbon)&#45;&gt;2,6 (Refined Syngas, Nisi)</title>
<path fill="none" stroke="black" stroke-width="2.55" d="M1389.63,-260.6C1310.47,-214.9 1097.26,-91.8 1008.76,-40.71"/>
<polygon fill="black" stroke="black" stroke-width="2.55" points="1010.25,-37.53 999.84,-35.56 1006.75,-43.59 1010.25,-37.53"/>
<text text-anchor="middle" x="1125.19" y="-154.46" font-family="Times,serif" font-size="14.00">active&#45;carbon*84000</text>
</g>
<!-- 2,&#45;2 (Tin Plate, Organic Solvent) -->
<g id="node4" class="node">
<title>2,&#45;2 (Tin Plate, Organic Solvent)</title>
<ellipse fill="none" stroke="black" cx="1597.78" cy="-766.85" rx="159.77" ry="18"/>
<text text-anchor="middle" x="1597.78" y="-763.15" font-family="Times,serif" font-size="14.00">2,&#45;2 (Tin Plate, Organic Solvent)</text>
</g>
<!-- 1,7 (Activated Carbon)&#45;&gt;2,&#45;2 (Tin Plate, Organic Solvent) -->
<g id="edge10" class="edge">
<title>1,7 (Activated Carbon)&#45;&gt;2,&#45;2 (Tin Plate, Organic Solvent)</title>
<path fill="none" stroke="black" stroke-width="0.43" d="M1426.42,-296.05C1453.28,-369.85 1555.2,-649.86 1587.74,-739.25"/>
<polygon fill="black" stroke="black" stroke-width="0.43" points="1584.47,-740.51 1591.18,-748.71 1591.05,-738.11 1584.47,-740.51"/>
<text text-anchor="middle" x="1433.08" y="-521.45" font-family="Times,serif" font-size="14.00">active&#45;carbon*14240</text>
</g>
<!-- 0,0 (LE BUS) -->
<g id="node5" class="node">
<title>0,0 (LE BUS)</title>
<ellipse fill="none" stroke="black" cx="457.18" cy="-108.32" rx="71.49" ry="18"/>
<text text-anchor="middle" x="457.18" y="-104.62" font-family="Times,serif" font-size="14.00">0,0 (LE BUS)</text>
</g>
<!-- 1,7 (Activated Carbon)&#45;&gt;0,0 (LE BUS) -->
<g id="edge7" class="edge">
<title>1,7 (Activated Carbon)&#45;&gt;0,0 (LE BUS)</title>
<path fill="none" stroke="black" stroke-width="1.11" d="M1343.13,-264.54C1160.13,-232.27 700.42,-151.21 525.87,-120.43"/>
<polygon fill="black" stroke="black" stroke-width="1.11" points="526.24,-116.94 515.78,-118.65 525.02,-123.84 526.24,-116.94"/>
<text text-anchor="middle" x="860.5" y="-196.29" font-family="Times,serif" font-size="14.00">active&#45;carbon*36480</text>
</g>
<!-- 9,&#45;7 (Filtration mediaer) -->
<g id="node6" class="node">
<title>9,&#45;7 (Filtration mediaer)</title>
<ellipse fill="none" stroke="black" cx="122.84" cy="-506.78" rx="122.68" ry="18"/>
<text text-anchor="middle" x="122.84" y="-503.08" font-family="Times,serif" font-size="14.00">9,&#45;7 (Filtration mediaer)</text>
</g>
<!-- 1,7 (Activated Carbon)&#45;&gt;9,&#45;7 (Filtration mediaer) -->
<g id="edge14" class="edge">
<title>1,7 (Activated Carbon)&#45;&gt;9,&#45;7 (Filtration mediaer)</title>
<path fill="none" stroke="black" stroke-width="0.64" d="M1343.11,-291.61C1116.71,-331.53 452.57,-448.64 211.53,-491.14"/>
<polygon fill="black" stroke="black" stroke-width="0.64" points="210.65,-487.74 201.41,-492.92 211.87,-494.63 210.65,-487.74"/>
<text text-anchor="middle" x="703.32" y="-395.17" font-family="Times,serif" font-size="14.00">active&#45;carbon*20960</text>
</g>
<!-- 4,10 (Fluid Recycling) -->
<g id="node7" class="node">
<title>4,10 (Fluid Recycling)</title>
<ellipse fill="none" stroke="black" cx="122.84" cy="-1026.92" rx="112.38" ry="18"/>
<text text-anchor="middle" x="122.84" y="-1023.22" font-family="Times,serif" font-size="14.00">4,10 (Fluid Recycling)</text>
</g>
<!-- 1,7 (Activated Carbon)&#45;&gt;4,10 (Fluid Recycling) -->
<g id="edge13" class="edge">
<title>1,7 (Activated Carbon)&#45;&gt;4,10 (Fluid Recycling)</title>
<path fill="none" stroke="black" stroke-width="0.27" d="M1389.73,-295.48C1217.22,-395.08 356.19,-892.19 161.86,-1004.39"/>
<polygon fill="black" stroke="black" stroke-width="0.27" points="160.02,-1001.41 153.11,-1009.44 163.52,-1007.47 160.02,-1001.41"/>
<text text-anchor="middle" x="706.29" y="-653.74" font-family="Times,serif" font-size="14.00">active&#45;carbon*9000</text>
</g>
<!-- 0,6 (Flue Gas Disposal, Syngas From Flue Gas) -->
<g id="node8" class="node">
<title>0,6 (Flue Gas Disposal, Syngas From Flue Gas)</title>
<ellipse fill="none" stroke="black" cx="457.18" cy="-1425.37" rx="229.36" ry="18"/>
<text text-anchor="middle" x="457.18" y="-1421.67" font-family="Times,serif" font-size="14.00">0,6 (Flue Gas Disposal, Syngas From Flue Gas)</text>
</g>
<!-- 1,7 (Activated Carbon)&#45;&gt;0,6 (Flue Gas Disposal, Syngas From Flue Gas) -->
<g id="edge12" class="edge">
<title>1,7 (Activated Carbon)&#45;&gt;0,6 (Flue Gas Disposal, Syngas From Flue Gas)</title>
<path fill="none" stroke="black" stroke-width="0.25" d="M1404.76,-296.09C1294.07,-428.01 609.5,-1243.84 478.75,-1399.67"/>
<polygon fill="black" stroke="black" stroke-width="0.25" points="476.02,-1397.48 472.27,-1407.39 481.38,-1401.98 476.02,-1397.48"/>
<text text-anchor="middle" x="872.25" y="-851.68" font-family="Times,serif" font-size="14.00">active&#45;carbon*8240</text>
</g>
<!-- 4,1 (item=filtration&#45;media Filtration Media) -->
<g id="node9" class="node">
<title>4,1 (item=filtration&#45;media Filtration Media)</title>
<ellipse fill="none" stroke="black" cx="969.42" cy="-1515.7" rx="214.46" ry="18"/>
<text text-anchor="middle" x="969.42" y="-1512" font-family="Times,serif" font-size="14.00">4,1 (item=filtration&#45;media Filtration Media)</text>
</g>
<!-- 1,7 (Activated Carbon)&#45;&gt;4,1 (item=filtration&#45;media Filtration Media) -->
<g id="edge11" class="edge">
<title>1,7 (Activated Carbon)&#45;&gt;4,1 (item=filtration&#45;media Filtration Media)</title>
<path fill="none" stroke="black" stroke-width="1.51" d="M1413.34,-296.04C1363.24,-433.69 1040.68,-1319.92 979.45,-1488.15"/>
<polygon fill="black" stroke="black" stroke-width="1.51" points="976.16,-1486.95 976.03,-1497.55 982.74,-1489.35 976.16,-1486.95"/>
<text text-anchor="middle" x="1122.4" y="-895.9" font-family="Times,serif" font-size="14.00">active&#45;carbon*50000</text>
</g>
<!-- &#45;4,&#45;13 (Carbon activationer) -->
<g id="node3" class="node">
<title>&#45;4,&#45;13 (Carbon activationer)</title>
<ellipse fill="none" stroke="black" cx="1419.88" cy="-1255.62" rx="139.18" ry="18"/>
<text text-anchor="middle" x="1419.88" y="-1251.92" font-family="Times,serif" font-size="14.00">&#45;4,&#45;13 (Carbon activationer)</text>
</g>
<!-- &#45;4,&#45;13 (Carbon activationer)&#45;&gt;2,6 (Refined Syngas, Nisi) -->
<g id="edge9" class="edge">
<title>&#45;4,&#45;13 (Carbon activationer)&#45;&gt;2,6 (Refined Syngas, Nisi)</title>
<path fill="none" stroke="black" stroke-width="2.18" d="M1413.16,-1237.17C1362.51,-1098 1040.86,-214.27 979.52,-45.74"/>
<polygon fill="black" stroke="black" stroke-width="2.18" points="982.72,-44.31 976.02,-36.11 976.15,-46.71 982.72,-44.31"/>
<text text-anchor="middle" x="1122.34" y="-645.26" font-family="Times,serif" font-size="14.00">active&#45;carbon*72000</text>
</g>
<!-- &#45;4,&#45;13 (Carbon activationer)&#45;&gt;2,&#45;2 (Tin Plate, Organic Solvent) -->
<g id="edge2" class="edge">
<title>&#45;4,&#45;13 (Carbon activationer)&#45;&gt;2,&#45;2 (Tin Plate, Organic Solvent)</title>
<path fill="none" stroke="black" stroke-width="0.15" d="M1426.53,-1237.35C1453.56,-1163.1 1555.29,-883.6 1587.76,-794.39"/>
<polygon fill="black" stroke="black" stroke-width="0.15" points="1591.06,-795.54 1591.19,-784.95 1584.48,-793.15 1591.06,-795.54"/>
<text text-anchor="middle" x="1437.64" y="-1019.67" font-family="Times,serif" font-size="14.00">active&#45;carbon*4960</text>
</g>
<!-- &#45;4,&#45;13 (Carbon activationer)&#45;&gt;0,0 (LE BUS) -->
<g id="edge3" class="edge">
<title>&#45;4,&#45;13 (Carbon activationer)&#45;&gt;0,0 (LE BUS)</title>
<path fill="none" stroke="black" stroke-width="1.62" d="M1404.76,-1237.6C1294.07,-1105.69 609.5,-289.85 478.75,-134.03"/>
<polygon fill="black" stroke="black" stroke-width="1.62" points="481.38,-131.71 472.27,-126.3 476.02,-136.21 481.38,-131.71"/>
<text text-anchor="middle" x="867.75" y="-689.61" font-family="Times,serif" font-size="14.00">active&#45;carbon*53520</text>
</g>
<!-- &#45;4,&#45;13 (Carbon activationer)&#45;&gt;9,&#45;7 (Filtration mediaer) -->
<g id="edge4" class="edge">
<title>&#45;4,&#45;13 (Carbon activationer)&#45;&gt;9,&#45;7 (Filtration mediaer)</title>
<path fill="none" stroke="black" stroke-width="1.68" d="M1389.41,-1238.03C1216.16,-1138 355.96,-641.37 161.82,-529.28"/>
<polygon fill="black" stroke="black" stroke-width="1.68" points="163.49,-526.2 153.08,-524.23 159.99,-532.27 163.49,-526.2"/>
<text text-anchor="middle" x="701.62" y="-887.46" font-family="Times,serif" font-size="14.00">active&#45;carbon*55460</text>
</g>
<!-- &#45;4,&#45;13 (Carbon activationer)&#45;&gt;4,10 (Fluid Recycling) -->
<g id="edge5" class="edge">
<title>&#45;4,&#45;13 (Carbon activationer)&#45;&gt;4,10 (Fluid Recycling)</title>
<path fill="none" stroke="black" stroke-width="0.15" d="M1337.27,-1241.06C1104.58,-1200.03 445.32,-1083.78 208.7,-1042.06"/>
<polygon fill="black" stroke="black" stroke-width="0.15" points="209.23,-1038.6 198.77,-1040.31 208.01,-1045.49 209.23,-1038.6"/>
<text text-anchor="middle" x="703.49" y="-1145.36" font-family="Times,serif" font-size="14.00">active&#45;carbon*5040</text>
</g>
<!-- &#45;4,&#45;13 (Carbon activationer)&#45;&gt;0,6 (Flue Gas Disposal, Syngas From Flue Gas) -->
<g id="edge6" class="edge">
<title>&#45;4,&#45;13 (Carbon activationer)&#45;&gt;0,6 (Flue Gas Disposal, Syngas From Flue Gas)</title>
<path fill="none" stroke="black" stroke-width="0.47" d="M1337.39,-1270.17C1162.12,-1301.07 753,-1373.21 560.63,-1407.13"/>
<polygon fill="black" stroke="black" stroke-width="0.47" points="559.75,-1403.73 550.51,-1408.92 560.97,-1410.63 559.75,-1403.73"/>
<text text-anchor="middle" x="875.01" y="-1342.45" font-family="Times,serif" font-size="14.00">active&#45;carbon*15600</text>
</g>
<!-- &#45;4,&#45;13 (Carbon activationer)&#45;&gt;4,1 (item=filtration&#45;media Filtration Media) -->
<g id="edge8" class="edge">
<title>&#45;4,&#45;13 (Carbon activationer)&#45;&gt;4,1 (item=filtration&#45;media Filtration Media)</title>
<path fill="none" stroke="black" stroke-width="0.99" d="M1389.27,-1273.29C1309.92,-1319.11 1097.58,-1441.7 1009.04,-1492.82"/>
<polygon fill="black" stroke="black" stroke-width="0.99" points="1007.28,-1489.8 1000.37,-1497.83 1010.78,-1495.86 1007.28,-1489.8"/>
<text text-anchor="middle" x="1125.16" y="-1386.86" font-family="Times,serif" font-size="14.00">active&#45;carbon*32560</text>
</g>
</g>
</svg>
