<?xml version="1.0" encoding="UTF-8" standalone="no"?>
<!DOCTYPE svg PUBLIC "-//W3C//DTD SVG 1.1//EN"
 "http://www.w3.org/Graphics/SVG/1.1/DTD/svg11.dtd">
<!-- Generated by graphviz version 2.43.0 (0)
 -->
<!-- Title: %3 Pages: 1 -->
<svg width="2450pt" height="2114pt"
 viewBox="0.00 0.00 2449.66 2114.40" xmlns="http://www.w3.org/2000/svg" xmlns:xlink="http://www.w3.org/1999/xlink">
<g id="graph0" class="graph" transform="scale(1 1) rotate(0) translate(4 2110.4)">
<title>%3</title>
<polygon fill="white" stroke="transparent" points="-4,4 -4,-2110.4 2445.66,-2110.4 2445.66,4 -4,4"/>
<!-- 4,4 (Hydrogen Chloride, item=nylon Nylon/Nylon parts) -->
<g id="node1" class="node">
<title>4,4 (Hydrogen Chloride, item=nylon Nylon/Nylon parts)</title>
<ellipse fill="none" stroke="black" cx="1291.17" cy="-18" rx="271.05" ry="18"/>
<text text-anchor="middle" x="1291.17" y="-14.3" font-family="Times,serif" font-size="14.00">4,4 (Hydrogen Chloride, item=nylon Nylon/Nylon parts)</text>
</g>
<!-- 4,2 (More fiberboard) -->
<g id="node2" class="node">
<title>4,2 (More fiberboard)</title>
<ellipse fill="none" stroke="black" cx="639.7" cy="-132.87" rx="111.28" ry="18"/>
<text text-anchor="middle" x="639.7" y="-129.17" font-family="Times,serif" font-size="14.00">4,2 (More fiberboard)</text>
</g>
<!-- 4,4 (Hydrogen Chloride, item=nylon Nylon/Nylon parts)&#45;&gt;4,2 (More fiberboard) -->
<g id="edge1" class="edge">
<title>4,4 (Hydrogen Chloride, item=nylon Nylon/Nylon parts)&#45;&gt;4,2 (More fiberboard)</title>
<path fill="none" stroke="black" stroke-width="1.28" d="M1195.39,-34.89C1068.45,-57.27 846.41,-96.42 724.98,-117.83"/>
<polygon fill="black" stroke="black" stroke-width="1.28" points="724.23,-114.41 714.99,-119.6 725.44,-121.31 724.23,-114.41"/>
<text text-anchor="middle" x="870.19" y="-80.16" font-family="Times,serif" font-size="14.00">sodium&#45;hydroxide*25664</text>
</g>
<!-- 0,0 (LE BUS) -->
<g id="node4" class="node">
<title>0,0 (LE BUS)</title>
<ellipse fill="none" stroke="black" cx="1864.06" cy="-348.76" rx="71.49" ry="18"/>
<text text-anchor="middle" x="1864.06" y="-345.06" font-family="Times,serif" font-size="14.00">0,0 (LE BUS)</text>
</g>
<!-- 4,4 (Hydrogen Chloride, item=nylon Nylon/Nylon parts)&#45;&gt;0,0 (LE BUS) -->
<g id="edge9" class="edge">
<title>4,4 (Hydrogen Chloride, item=nylon Nylon/Nylon parts)&#45;&gt;0,0 (LE BUS)</title>
<path fill="none" stroke="black" stroke-width="0.3" d="M1322.37,-36.02C1420.16,-92.48 1720.39,-265.81 1826.46,-327.05"/>
<polygon fill="black" stroke="black" stroke-width="0.3" points="1824.82,-330.15 1835.23,-332.12 1828.32,-324.09 1824.82,-330.15"/>
<text text-anchor="middle" x="1488.92" y="-185.34" font-family="Times,serif" font-size="14.00">sodium&#45;hydroxide*6048</text>
</g>
<!-- 4,12 (Molten Glass) -->
<g id="node5" class="node">
<title>4,12 (Molten Glass)</title>
<ellipse fill="none" stroke="black" cx="214.48" cy="-639.62" rx="102.08" ry="18"/>
<text text-anchor="middle" x="214.48" y="-635.92" font-family="Times,serif" font-size="14.00">4,12 (Molten Glass)</text>
</g>
<!-- 4,4 (Hydrogen Chloride, item=nylon Nylon/Nylon parts)&#45;&gt;4,12 (Molten Glass) -->
<g id="edge3" class="edge">
<title>4,4 (Hydrogen Chloride, item=nylon Nylon/Nylon parts)&#45;&gt;4,12 (Molten Glass)</title>
<path fill="none" stroke="black" stroke-width="0.38" d="M1260.1,-35.93C1105.97,-124.92 423.91,-518.71 253.28,-617.22"/>
<polygon fill="black" stroke="black" stroke-width="0.38" points="251.3,-614.33 244.39,-622.36 254.8,-620.39 251.3,-614.33"/>
<text text-anchor="middle" x="671.19" y="-330.38" font-family="Times,serif" font-size="14.00">sodium&#45;hydroxide*7520</text>
</g>
<!-- 4,1 (item=filtration&#45;media Filtration Media) -->
<g id="node6" class="node">
<title>4,1 (item=filtration&#45;media Filtration Media)</title>
<ellipse fill="none" stroke="black" cx="214.48" cy="-1301.14" rx="214.46" ry="18"/>
<text text-anchor="middle" x="214.48" y="-1297.44" font-family="Times,serif" font-size="14.00">4,1 (item=filtration&#45;media Filtration Media)</text>
</g>
<!-- 4,4 (Hydrogen Chloride, item=nylon Nylon/Nylon parts)&#45;&gt;4,1 (item=filtration&#45;media Filtration Media) -->
<g id="edge12" class="edge">
<title>4,4 (Hydrogen Chloride, item=nylon Nylon/Nylon parts)&#45;&gt;4,1 (item=filtration&#45;media Filtration Media)</title>
<path fill="none" stroke="black" stroke-width="1.12" d="M1275.95,-36.14C1157.06,-177.83 378.1,-1106.15 236.53,-1274.86"/>
<polygon fill="black" stroke="black" stroke-width="1.12" points="233.66,-1272.84 229.91,-1282.75 239.02,-1277.34 233.66,-1272.84"/>
<text text-anchor="middle" x="666.24" y="-659.3" font-family="Times,serif" font-size="14.00">sodium&#45;hydroxide*22400</text>
</g>
<!-- 1,7 (Activated Carbon) -->
<g id="node7" class="node">
<title>1,7 (Activated Carbon)</title>
<ellipse fill="none" stroke="black" cx="639.7" cy="-1807.9" rx="115.88" ry="18"/>
<text text-anchor="middle" x="639.7" y="-1804.2" font-family="Times,serif" font-size="14.00">1,7 (Activated Carbon)</text>
</g>
<!-- 4,4 (Hydrogen Chloride, item=nylon Nylon/Nylon parts)&#45;&gt;1,7 (Activated Carbon) -->
<g id="edge7" class="edge">
<title>4,4 (Hydrogen Chloride, item=nylon Nylon/Nylon parts)&#45;&gt;1,7 (Activated Carbon)</title>
<path fill="none" stroke="black" stroke-width="2.68" d="M1284.61,-36.01C1221.78,-208.63 726.67,-1568.94 649.73,-1780.33"/>
<polygon fill="black" stroke="black" stroke-width="2.68" points="646.42,-1779.19 646.29,-1789.78 653,-1781.58 646.42,-1779.19"/>
<text text-anchor="middle" x="877.17" y="-911.97" font-family="Times,serif" font-size="14.00">sodium&#45;hydroxide*53504</text>
</g>
<!-- 2,4 (Formica and Phenolic boards) -->
<g id="node9" class="node">
<title>2,4 (Formica and Phenolic boards)</title>
<ellipse fill="none" stroke="black" cx="1291.17" cy="-1922.77" rx="169.77" ry="18"/>
<text text-anchor="middle" x="1291.17" y="-1919.07" font-family="Times,serif" font-size="14.00">2,4 (Formica and Phenolic boards)</text>
</g>
<!-- 4,4 (Hydrogen Chloride, item=nylon Nylon/Nylon parts)&#45;&gt;2,4 (Formica and Phenolic boards) -->
<g id="edge8" class="edge">
<title>4,4 (Hydrogen Chloride, item=nylon Nylon/Nylon parts)&#45;&gt;2,4 (Formica and Phenolic boards)</title>
<path fill="none" stroke="black" stroke-width="0.95" d="M1291.17,-36.24C1291.17,-216.24 1291.17,-1672.32 1291.17,-1894.41"/>
<polygon fill="black" stroke="black" stroke-width="0.95" points="1287.67,-1894.59 1291.17,-1904.59 1294.67,-1894.59 1287.67,-1894.59"/>
<text text-anchor="middle" x="1201.17" y="-969.12" font-family="Times,serif" font-size="14.00">sodium&#45;hydroxide*18944</text>
</g>
<!-- &#45;1,7 (Rayon) -->
<g id="node10" class="node">
<title>&#45;1,7 (Rayon)</title>
<ellipse fill="none" stroke="black" cx="1864.06" cy="-1592.01" rx="66.89" ry="18"/>
<text text-anchor="middle" x="1864.06" y="-1588.31" font-family="Times,serif" font-size="14.00">&#45;1,7 (Rayon)</text>
</g>
<!-- 4,4 (Hydrogen Chloride, item=nylon Nylon/Nylon parts)&#45;&gt;&#45;1,7 (Rayon) -->
<g id="edge15" class="edge">
<title>4,4 (Hydrogen Chloride, item=nylon Nylon/Nylon parts)&#45;&gt;&#45;1,7 (Rayon)</title>
<path fill="none" stroke="black" stroke-width="1.15" d="M1297.8,-36.22C1356.24,-196.8 1782.95,-1369.16 1854.03,-1564.46"/>
<polygon fill="black" stroke="black" stroke-width="1.15" points="1850.79,-1565.8 1857.5,-1574 1857.37,-1563.4 1850.79,-1565.8"/>
<text text-anchor="middle" x="1485.92" y="-804.14" font-family="Times,serif" font-size="14.00">sodium&#45;hydroxide*22912</text>
</g>
<!-- 1,6 (Sodium Hydroxide, These new bullets are fun, Limestone) -->
<g id="node3" class="node">
<title>1,6 (Sodium Hydroxide, These new bullets are fun, Limestone)</title>
<ellipse fill="none" stroke="black" cx="2090.31" cy="-970.38" rx="301.65" ry="18"/>
<text text-anchor="middle" x="2090.31" y="-966.68" font-family="Times,serif" font-size="14.00">1,6 (Sodium Hydroxide, These new bullets are fun, Limestone)</text>
</g>
<!-- 1,6 (Sodium Hydroxide, These new bullets are fun, Limestone)&#45;&gt;4,2 (More fiberboard) -->
<g id="edge10" class="edge">
<title>1,6 (Sodium Hydroxide, These new bullets are fun, Limestone)&#45;&gt;4,2 (More fiberboard)</title>
<path fill="none" stroke="black" stroke-width="1.16" d="M2059,-952.31C1870.42,-843.43 886.88,-275.58 678.51,-155.28"/>
<polygon fill="black" stroke="black" stroke-width="1.16" points="680.15,-152.18 669.74,-150.21 676.65,-158.25 680.15,-152.18"/>
<text text-anchor="middle" x="1278.76" y="-557.59" font-family="Times,serif" font-size="14.00">sodium&#45;hydroxide*23232</text>
</g>
<!-- 1,6 (Sodium Hydroxide, These new bullets are fun, Limestone)&#45;&gt;0,0 (LE BUS) -->
<g id="edge2" class="edge">
<title>1,6 (Sodium Hydroxide, These new bullets are fun, Limestone)&#45;&gt;0,0 (LE BUS)</title>
<path fill="none" stroke="black" stroke-width="0.23" d="M2083.66,-952.12C2051.59,-864 1912.85,-482.8 1874.13,-376.42"/>
<polygon fill="black" stroke="black" stroke-width="0.23" points="1877.31,-374.93 1870.6,-366.73 1870.73,-377.32 1877.31,-374.93"/>
<text text-anchor="middle" x="1893.39" y="-668.07" font-family="Times,serif" font-size="14.00">sodium&#45;hydroxide*4576</text>
</g>
<!-- 1,6 (Sodium Hydroxide, These new bullets are fun, Limestone)&#45;&gt;4,12 (Molten Glass) -->
<g id="edge11" class="edge">
<title>1,6 (Sodium Hydroxide, These new bullets are fun, Limestone)&#45;&gt;4,12 (Molten Glass)</title>
<path fill="none" stroke="black" stroke-width="1.28" d="M1993.41,-953.3C1665.72,-895.52 602.46,-708.04 297.15,-654.2"/>
<polygon fill="black" stroke="black" stroke-width="1.28" points="297.5,-650.71 287.04,-652.42 296.28,-657.6 297.5,-650.71"/>
<text text-anchor="middle" x="1055.28" y="-807.55" font-family="Times,serif" font-size="14.00">sodium&#45;hydroxide*25632</text>
</g>
<!-- 1,6 (Sodium Hydroxide, These new bullets are fun, Limestone)&#45;&gt;4,1 (item=filtration&#45;media Filtration Media) -->
<g id="edge4" class="edge">
<title>1,6 (Sodium Hydroxide, These new bullets are fun, Limestone)&#45;&gt;4,1 (item=filtration&#45;media Filtration Media)</title>
<path fill="none" stroke="black" stroke-width="1" d="M1993.41,-987.47C1672.45,-1044.06 645.82,-1225.09 316.91,-1283.08"/>
<polygon fill="black" stroke="black" stroke-width="1" points="316.15,-1279.66 306.91,-1284.85 317.37,-1286.56 316.15,-1279.66"/>
<text text-anchor="middle" x="1065.16" y="-1139.08" font-family="Times,serif" font-size="14.00">sodium&#45;hydroxide*19920</text>
</g>
<!-- 1,6 (Sodium Hydroxide, These new bullets are fun, Limestone)&#45;&gt;1,7 (Activated Carbon) -->
<g id="edge5" class="edge">
<title>1,6 (Sodium Hydroxide, These new bullets are fun, Limestone)&#45;&gt;1,7 (Activated Carbon)</title>
<path fill="none" stroke="black" stroke-width="0.78" d="M2059,-988.46C1870.52,-1097.28 887.94,-1664.58 678.85,-1785.29"/>
<polygon fill="black" stroke="black" stroke-width="0.78" points="676.95,-1782.35 670.04,-1790.38 680.45,-1788.41 676.95,-1782.35"/>
<text text-anchor="middle" x="1278.93" y="-1390.68" font-family="Times,serif" font-size="14.00">sodium&#45;hydroxide*15611</text>
</g>
<!-- &#45;1,&#45;2 (Aramid fiber) -->
<g id="node8" class="node">
<title>&#45;1,&#45;2 (Aramid fiber)</title>
<ellipse fill="none" stroke="black" cx="2261.75" cy="-970.38" rx="99.38" ry="18"/>
<text text-anchor="middle" x="2261.75" y="-966.68" font-family="Times,serif" font-size="14.00">&#45;1,&#45;2 (Aramid fiber)</text>
</g>
<!-- 1,6 (Sodium Hydroxide, These new bullets are fun, Limestone)&#45;&gt;&#45;1,&#45;2 (Aramid fiber) -->
<g id="edge6" class="edge">
<title>1,6 (Sodium Hydroxide, These new bullets are fun, Limestone)&#45;&gt;&#45;1,&#45;2 (Aramid fiber)</title>
<path fill="none" stroke="black" stroke-width="0.91" d="M2261.63,-970.38C2261.65,-970.38 2261.67,-970.38 2261.68,-970.38"/>
<polygon fill="black" stroke="black" stroke-width="0.91" points="2251.73,-973.91 2261.72,-970.38 2251.71,-966.91 2251.73,-973.91"/>
<text text-anchor="middle" x="2351.66" y="-974.18" font-family="Times,serif" font-size="14.00">sodium&#45;hydroxide*18129</text>
</g>
<!-- 1,6 (Sodium Hydroxide, These new bullets are fun, Limestone)&#45;&gt;2,4 (Formica and Phenolic boards) -->
<g id="edge14" class="edge">
<title>1,6 (Sodium Hydroxide, These new bullets are fun, Limestone)&#45;&gt;2,4 (Formica and Phenolic boards)</title>
<path fill="none" stroke="black" stroke-width="1.42" d="M2075.06,-988.56C1976.46,-1106.06 1429.51,-1757.9 1313,-1896.75"/>
<polygon fill="black" stroke="black" stroke-width="1.42" points="1310,-1894.88 1306.25,-1904.79 1315.36,-1899.38 1310,-1894.88"/>
<text text-anchor="middle" x="1604.03" y="-1446.45" font-family="Times,serif" font-size="14.00">sodium&#45;hydroxide*28293</text>
</g>
<!-- 1,6 (Sodium Hydroxide, These new bullets are fun, Limestone)&#45;&gt;&#45;1,7 (Rayon) -->
<g id="edge13" class="edge">
<title>1,6 (Sodium Hydroxide, These new bullets are fun, Limestone)&#45;&gt;&#45;1,7 (Rayon)</title>
<path fill="none" stroke="black" stroke-width="0.87" d="M2083.66,-988.65C2051.59,-1076.76 1912.85,-1457.97 1874.13,-1564.35"/>
<polygon fill="black" stroke="black" stroke-width="0.87" points="1870.73,-1563.45 1870.6,-1574.04 1877.31,-1565.84 1870.73,-1563.45"/>
<text text-anchor="middle" x="1888.89" y="-1280.3" font-family="Times,serif" font-size="14.00">sodium&#45;hydroxide*17306</text>
</g>
<!-- &#45;5,2 (Optical fiber) -->
<g id="node11" class="node">
<title>&#45;5,2 (Optical fiber)</title>
<ellipse fill="none" stroke="black" cx="1320.37" cy="-2088.4" rx="96.38" ry="18"/>
<text text-anchor="middle" x="1320.37" y="-2084.7" font-family="Times,serif" font-size="14.00">&#45;5,2 (Optical fiber)</text>
</g>
<!-- &#45;5,2 (Optical fiber)&#45;&gt;2,4 (Formica and Phenolic boards) -->
<g id="edge16" class="edge">
<title>&#45;5,2 (Optical fiber)&#45;&gt;2,4 (Formica and Phenolic boards)</title>
<path fill="none" stroke="black" stroke-width="0.5" d="M1317.19,-2070.36C1312.12,-2041.61 1302.17,-1985.17 1296.15,-1951.03"/>
<polygon fill="black" stroke="black" stroke-width="0.5" points="1299.53,-1950.03 1294.34,-1940.79 1292.63,-1951.24 1299.53,-1950.03"/>
<text text-anchor="middle" x="1216.67" y="-2014.5" font-family="Times,serif" font-size="14.00">sodium&#45;hydroxide*10000</text>
</g>
</g>
</svg>
