<?xml version="1.0" encoding="UTF-8" standalone="no"?>
<!DOCTYPE svg PUBLIC "-//W3C//DTD SVG 1.1//EN"
 "http://www.w3.org/Graphics/SVG/1.1/DTD/svg11.dtd">
<!-- Generated by graphviz version 2.43.0 (0)
 -->
<!-- Title: %3 Pages: 1 -->
<svg width="1131pt" height="808pt"
 viewBox="0.00 0.00 1130.66 807.63" xmlns="http://www.w3.org/2000/svg" xmlns:xlink="http://www.w3.org/1999/xlink">
<g id="graph0" class="graph" transform="scale(1 1) rotate(0) translate(4 803.63)">
<title>%3</title>
<polygon fill="white" stroke="transparent" points="-4,4 -4,-803.63 1126.66,-803.63 1126.66,4 -4,4"/>
<!-- &#45;6,4 (Urea) -->
<g id="node1" class="node">
<title>&#45;6,4 (Urea)</title>
<ellipse fill="none" stroke="black" cx="835.12" cy="-399.81" rx="61.19" ry="18"/>
<text text-anchor="middle" x="835.12" y="-396.11" font-family="Times,serif" font-size="14.00">&#45;6,4 (Urea)</text>
</g>
<!-- 0,0 (LE BUS) -->
<g id="node2" class="node">
<title>0,0 (LE BUS)</title>
<ellipse fill="none" stroke="black" cx="71.49" cy="-399.81" rx="71.49" ry="18"/>
<text text-anchor="middle" x="71.49" y="-396.11" font-family="Times,serif" font-size="14.00">0,0 (LE BUS)</text>
</g>
<!-- &#45;6,4 (Urea)&#45;&gt;0,0 (LE BUS) -->
<g id="edge1" class="edge">
<title>&#45;6,4 (Urea)&#45;&gt;0,0 (LE BUS)</title>
<path fill="none" stroke="black" stroke-width="3.78" d="M773.92,-399.81C637.35,-399.81 307.64,-399.81 153.5,-399.81"/>
<polygon fill="black" stroke="black" stroke-width="3.78" points="153.15,-396.31 143.15,-399.81 153.15,-403.31 153.15,-396.31"/>
<text text-anchor="middle" x="332.71" y="-403.61" font-family="Times,serif" font-size="14.00">combustion&#45;mixture1&#45;barrel*112575</text>
</g>
<!-- 6,13 () -->
<g id="node3" class="node">
<title>6,13 ()</title>
<ellipse fill="none" stroke="black" cx="453.31" cy="-18" rx="40.89" ry="18"/>
<text text-anchor="middle" x="453.31" y="-14.3" font-family="Times,serif" font-size="14.00">6,13 ()</text>
</g>
<!-- &#45;6,4 (Urea)&#45;&gt;6,13 () -->
<g id="edge6" class="edge">
<title>&#45;6,4 (Urea)&#45;&gt;6,13 ()</title>
<path fill="none" stroke="black" stroke-width="0" d="M817.73,-382.42C756.07,-320.76 547.93,-112.62 477.12,-41.81"/>
<polygon fill="black" stroke="black" stroke-width="0" points="479.49,-39.23 469.94,-34.63 474.54,-44.18 479.49,-39.23"/>
<text text-anchor="middle" x="529.92" y="-215.91" font-family="Times,serif" font-size="14.00">combustion&#45;mixture1&#45;barrel*120</text>
</g>
<!-- 6,8 () -->
<g id="node4" class="node">
<title>6,8 ()</title>
<ellipse fill="none" stroke="black" cx="942.22" cy="-399.81" rx="35.19" ry="18"/>
<text text-anchor="middle" x="942.22" y="-396.11" font-family="Times,serif" font-size="14.00">6,8 ()</text>
</g>
<!-- &#45;6,4 (Urea)&#45;&gt;6,8 () -->
<g id="edge3" class="edge">
<title>&#45;6,4 (Urea)&#45;&gt;6,8 ()</title>
<path fill="none" stroke="black" stroke-width="0" d="M896.49,-399.81C896.6,-399.81 896.71,-399.81 896.82,-399.81"/>
<polygon fill="black" stroke="black" stroke-width="0" points="896.94,-403.31 906.94,-399.81 896.94,-396.31 896.94,-403.31"/>
<text text-anchor="middle" x="1009.66" y="-403.61" font-family="Times,serif" font-size="14.00">combustion&#45;mixture1&#45;barrel*40</text>
</g>
<!-- &#45;5,0 (item=small&#45;lampitem=petri&#45;dish Lamptri dishes) -->
<g id="node5" class="node">
<title>&#45;5,0 (item=small&#45;lampitem=petri&#45;dish Lamptri dishes)</title>
<ellipse fill="none" stroke="black" cx="453.31" cy="-781.63" rx="263.75" ry="18"/>
<text text-anchor="middle" x="453.31" y="-777.93" font-family="Times,serif" font-size="14.00">&#45;5,0 (item=small&#45;lampitem=petri&#45;dish Lamptri dishes)</text>
</g>
<!-- &#45;6,4 (Urea)&#45;&gt;&#45;5,0 (item=small&#45;lampitem=petri&#45;dish Lamptri dishes) -->
<g id="edge4" class="edge">
<title>&#45;6,4 (Urea)&#45;&gt;&#45;5,0 (item=small&#45;lampitem=petri&#45;dish Lamptri dishes)</title>
<path fill="none" stroke="black" stroke-width="0.78" d="M817.73,-417.21C756.64,-478.3 551.72,-683.22 479.09,-755.84"/>
<polygon fill="black" stroke="black" stroke-width="0.78" points="476.29,-753.7 471.7,-763.24 481.24,-758.65 476.29,-753.7"/>
<text text-anchor="middle" x="521.91" y="-590.33" font-family="Times,serif" font-size="14.00">combustion&#45;mixture1&#45;barrel*23157</text>
</g>
<!-- 0,0 (LE BUS)&#45;&gt;6,13 () -->
<g id="edge2" class="edge">
<title>0,0 (LE BUS)&#45;&gt;6,13 ()</title>
<path fill="none" stroke="black" stroke-width="0" d="M89.14,-382.16C151.12,-320.18 358.88,-112.42 429.55,-41.76"/>
<polygon fill="black" stroke="black" stroke-width="0" points="432.12,-44.14 436.71,-34.6 427.17,-39.19 432.12,-44.14"/>
<text text-anchor="middle" x="146.35" y="-215.76" font-family="Times,serif" font-size="14.00">combustion&#45;mixture1&#45;barrel*48</text>
</g>
<!-- 0,0 (LE BUS)&#45;&gt;&#45;5,0 (item=small&#45;lampitem=petri&#45;dish Lamptri dishes) -->
<g id="edge5" class="edge">
<title>0,0 (LE BUS)&#45;&gt;&#45;5,0 (item=small&#45;lampitem=petri&#45;dish Lamptri dishes)</title>
<path fill="none" stroke="black" stroke-width="1.43" d="M89.14,-417.46C150.56,-478.88 355.1,-683.42 427.58,-755.9"/>
<polygon fill="black" stroke="black" stroke-width="1.43" points="425.41,-758.68 434.96,-763.28 430.36,-753.74 425.41,-758.68"/>
<text text-anchor="middle" x="131.86" y="-590.48" font-family="Times,serif" font-size="14.00">combustion&#45;mixture1&#45;barrel*42694</text>
</g>
</g>
</svg>
