<?xml version="1.0" encoding="UTF-8" standalone="no"?>
<!DOCTYPE svg PUBLIC "-//W3C//DTD SVG 1.1//EN"
 "http://www.w3.org/Graphics/SVG/1.1/DTD/svg11.dtd">
<!-- Generated by graphviz version 2.43.0 (0)
 -->
<!-- Title: %3 Pages: 1 -->
<svg width="846pt" height="720pt"
 viewBox="0.00 0.00 845.75 719.91" xmlns="http://www.w3.org/2000/svg" xmlns:xlink="http://www.w3.org/1999/xlink">
<g id="graph0" class="graph" transform="scale(1 1) rotate(0) translate(4 715.91)">
<title>%3</title>
<polygon fill="white" stroke="transparent" points="-4,4 -4,-715.91 841.75,-715.91 841.75,4 -4,4"/>
<!-- &#45;1,12 (I can&#39;t believe it&#39;s more latex duplicates) -->
<g id="node1" class="node">
<title>&#45;1,12 (I can&#39;t believe it&#39;s more latex duplicates)</title>
<ellipse fill="none" stroke="black" cx="424.4" cy="-18" rx="229.36" ry="18"/>
<text text-anchor="middle" x="424.4" y="-14.3" font-family="Times,serif" font-size="14.00">&#45;1,12 (I can&#39;t believe it&#39;s more latex duplicates)</text>
</g>
<!-- &#45;2,0 (Glassware) -->
<g id="node2" class="node">
<title>&#45;2,0 (Glassware)</title>
<ellipse fill="none" stroke="black" cx="86.44" cy="-355.96" rx="86.38" ry="18"/>
<text text-anchor="middle" x="86.44" y="-352.26" font-family="Times,serif" font-size="14.00">&#45;2,0 (Glassware)</text>
</g>
<!-- &#45;1,12 (I can&#39;t believe it&#39;s more latex duplicates)&#45;&gt;&#45;2,0 (Glassware) -->
<g id="edge1" class="edge">
<title>&#45;1,12 (I can&#39;t believe it&#39;s more latex duplicates)&#45;&gt;&#45;2,0 (Glassware)</title>
<path fill="none" stroke="black" stroke-width="0.85" d="M406.23,-36.17C349.71,-92.69 176.89,-265.51 111.69,-330.7"/>
<polygon fill="black" stroke="black" stroke-width="0.85" points="108.89,-328.56 104.29,-338.11 113.84,-333.51 108.89,-328.56"/>
<text text-anchor="middle" x="214.96" y="-187.24" font-family="Times,serif" font-size="14.00">latex*15120</text>
</g>
<!-- 3,13 (Rubber) -->
<g id="node4" class="node">
<title>3,13 (Rubber)</title>
<ellipse fill="none" stroke="black" cx="762.35" cy="-355.96" rx="75.29" ry="18"/>
<text text-anchor="middle" x="762.35" y="-352.26" font-family="Times,serif" font-size="14.00">3,13 (Rubber)</text>
</g>
<!-- &#45;1,12 (I can&#39;t believe it&#39;s more latex duplicates)&#45;&gt;3,13 (Rubber) -->
<g id="edge4" class="edge">
<title>&#45;1,12 (I can&#39;t believe it&#39;s more latex duplicates)&#45;&gt;3,13 (Rubber)</title>
<path fill="none" stroke="black" stroke-width="0.58" d="M442.57,-36.17C499.09,-92.69 671.9,-265.51 737.1,-330.7"/>
<polygon fill="black" stroke="black" stroke-width="0.58" points="734.96,-333.51 744.5,-338.11 739.91,-328.56 734.96,-333.51"/>
<text text-anchor="middle" x="545.83" y="-187.24" font-family="Times,serif" font-size="14.00">latex*10240</text>
</g>
<!-- 2,14 (Latex) -->
<g id="node3" class="node">
<title>2,14 (Latex)</title>
<ellipse fill="none" stroke="black" cx="424.4" cy="-693.91" rx="66.89" ry="18"/>
<text text-anchor="middle" x="424.4" y="-690.21" font-family="Times,serif" font-size="14.00">2,14 (Latex)</text>
</g>
<!-- 2,14 (Latex)&#45;&gt;&#45;2,0 (Glassware) -->
<g id="edge3" class="edge">
<title>2,14 (Latex)&#45;&gt;&#45;2,0 (Glassware)</title>
<path fill="none" stroke="black" stroke-width="0.85" d="M406.7,-676.22C350.72,-620.23 177.27,-446.78 111.8,-381.32"/>
<polygon fill="black" stroke="black" stroke-width="0.85" points="113.92,-378.48 104.37,-373.88 108.97,-383.43 113.92,-378.48"/>
<text text-anchor="middle" x="215.25" y="-532.57" font-family="Times,serif" font-size="14.00">latex*15024</text>
</g>
<!-- 2,14 (Latex)&#45;&gt;3,13 (Rubber) -->
<g id="edge2" class="edge">
<title>2,14 (Latex)&#45;&gt;3,13 (Rubber)</title>
<path fill="none" stroke="black" stroke-width="1.72" d="M442.09,-676.22C498.21,-620.1 672.34,-445.97 737.45,-380.86"/>
<polygon fill="black" stroke="black" stroke-width="1.72" points="740.24,-383.02 744.83,-373.47 735.29,-378.07 740.24,-383.02"/>
<text text-anchor="middle" x="545.77" y="-532.34" font-family="Times,serif" font-size="14.00">latex*30560</text>
</g>
</g>
</svg>
