<?xml version="1.0" encoding="UTF-8" standalone="no"?>
<!DOCTYPE svg PUBLIC "-//W3C//DTD SVG 1.1//EN"
 "http://www.w3.org/Graphics/SVG/1.1/DTD/svg11.dtd">
<!-- Generated by graphviz version 2.43.0 (0)
 -->
<!-- Title: %3 Pages: 1 -->
<svg width="1029pt" height="44pt"
 viewBox="0.00 0.00 1029.42 44.00" xmlns="http://www.w3.org/2000/svg" xmlns:xlink="http://www.w3.org/1999/xlink">
<g id="graph0" class="graph" transform="scale(1 1) rotate(0) translate(4 40)">
<title>%3</title>
<polygon fill="white" stroke="transparent" points="-4,4 -4,-40 1025.42,-40 1025.42,4 -4,4"/>
<!-- 1,9 (Ammunition) -->
<g id="node1" class="node">
<title>1,9 (Ammunition)</title>
<ellipse fill="none" stroke="black" cx="501.61" cy="-18" rx="91.78" ry="18"/>
<text text-anchor="middle" x="501.61" y="-14.3" font-family="Times,serif" font-size="14.00">1,9 (Ammunition)</text>
</g>
<!-- 7,2 (advanced sand castings (mold)) -->
<g id="node2" class="node">
<title>7,2 (advanced sand castings (mold))</title>
<ellipse fill="none" stroke="black" cx="843.34" cy="-18" rx="178.17" ry="18"/>
<text text-anchor="middle" x="843.34" y="-14.3" font-family="Times,serif" font-size="14.00">7,2 (advanced sand castings (mold))</text>
</g>
<!-- 1,9 (Ammunition)&#45;&gt;7,2 (advanced sand castings (mold)) -->
<g id="edge1" class="edge">
<title>1,9 (Ammunition)&#45;&gt;7,2 (advanced sand castings (mold))</title>
<path fill="none" stroke="black" stroke-width="1.8" d="M593.64,-18C612.84,-18 633.74,-18 655,-18"/>
<polygon fill="black" stroke="black" stroke-width="1.8" points="655.13,-21.5 665.13,-18 655.13,-14.5 655.13,-21.5"/>
<text text-anchor="middle" x="624.32" y="-6.8" font-family="Times,serif" font-size="14.00">oleochemicals&#45;barrel*1470</text>
</g>
<!-- 2,&#45;2 (Tin Plate, Organic Solvent) -->
<g id="node3" class="node">
<title>2,&#45;2 (Tin Plate, Organic Solvent)</title>
<ellipse fill="none" stroke="black" cx="159.89" cy="-18" rx="159.77" ry="18"/>
<text text-anchor="middle" x="159.89" y="-14.3" font-family="Times,serif" font-size="14.00">2,&#45;2 (Tin Plate, Organic Solvent)</text>
</g>
<!-- 1,9 (Ammunition)&#45;&gt;2,&#45;2 (Tin Plate, Organic Solvent) -->
<g id="edge2" class="edge">
<title>1,9 (Ammunition)&#45;&gt;2,&#45;2 (Tin Plate, Organic Solvent)</title>
<path fill="none" stroke="black" stroke-width="0.2" d="M409.59,-18C384.94,-18 357.49,-18 330.06,-18"/>
<polygon fill="black" stroke="black" stroke-width="0.2" points="329.96,-14.5 319.96,-18 329.96,-21.5 329.96,-14.5"/>
<text text-anchor="middle" x="324.32" y="-6.8" font-family="Times,serif" font-size="14.00">oleochemicals&#45;barrel*160</text>
</g>
</g>
</svg>
