<?xml version="1.0" encoding="UTF-8" standalone="no"?>
<!DOCTYPE svg PUBLIC "-//W3C//DTD SVG 1.1//EN"
 "http://www.w3.org/Graphics/SVG/1.1/DTD/svg11.dtd">
<!-- Generated by graphviz version 2.43.0 (0)
 -->
<!-- Title: %3 Pages: 1 -->
<svg width="703pt" height="543pt"
 viewBox="0.00 0.00 702.84 543.20" xmlns="http://www.w3.org/2000/svg" xmlns:xlink="http://www.w3.org/1999/xlink">
<g id="graph0" class="graph" transform="scale(1 1) rotate(0) translate(4 539.2)">
<title>%3</title>
<polygon fill="white" stroke="transparent" points="-4,4 -4,-539.2 698.84,-539.2 698.84,4 -4,4"/>
<!-- 1,1 (Moondrops) -->
<g id="node1" class="node">
<title>1,1 (Moondrops)</title>
<ellipse fill="none" stroke="black" cx="257.58" cy="-269.02" rx="87.18" ry="18"/>
<text text-anchor="middle" x="257.58" y="-265.32" font-family="Times,serif" font-size="14.00">1,1 (Moondrops)</text>
</g>
<!-- &#45;3,4 (Lard from Cottonguts) -->
<g id="node2" class="node">
<title>&#45;3,4 (Lard from Cottonguts)</title>
<ellipse fill="none" stroke="black" cx="555.76" cy="-269.02" rx="139.18" ry="18"/>
<text text-anchor="middle" x="555.76" y="-265.32" font-family="Times,serif" font-size="14.00">&#45;3,4 (Lard from Cottonguts)</text>
</g>
<!-- 1,1 (Moondrops)&#45;&gt;&#45;3,4 (Lard from Cottonguts) -->
<g id="edge1" class="edge">
<title>1,1 (Moondrops)&#45;&gt;&#45;3,4 (Lard from Cottonguts)</title>
<path fill="none" stroke="black" stroke-width="1.2" d="M345.03,-269.02C364.3,-269.02 385.24,-269.02 406.19,-269.02"/>
<polygon fill="black" stroke="black" stroke-width="1.2" points="406.47,-272.52 416.47,-269.02 406.47,-265.52 406.47,-272.52"/>
<text text-anchor="middle" x="406.61" y="-257.82" font-family="Times,serif" font-size="14.00">moondrop*36288</text>
</g>
<!-- 1,0 (Moondrops?) -->
<g id="node3" class="node">
<title>1,0 (Moondrops?)</title>
<ellipse fill="none" stroke="black" cx="92.29" cy="-517.2" rx="92.08" ry="18"/>
<text text-anchor="middle" x="92.29" y="-513.5" font-family="Times,serif" font-size="14.00">1,0 (Moondrops?)</text>
</g>
<!-- 1,1 (Moondrops)&#45;&gt;1,0 (Moondrops?) -->
<g id="edge2" class="edge">
<title>1,1 (Moondrops)&#45;&gt;1,0 (Moondrops?)</title>
<path fill="none" stroke="black" stroke-width="0.8" d="M245.69,-286.87C216.99,-329.96 143.79,-439.87 109.95,-490.69"/>
<polygon fill="black" stroke="black" stroke-width="0.8" points="106.92,-488.92 104.29,-499.18 112.75,-492.8 106.92,-488.92"/>
<text text-anchor="middle" x="115.82" y="-392.58" font-family="Times,serif" font-size="14.00">moondrop*24080</text>
</g>
<!-- 4,7 (Cottonguts) -->
<g id="node4" class="node">
<title>4,7 (Cottonguts)</title>
<ellipse fill="none" stroke="black" cx="96.64" cy="-18" rx="87.18" ry="18"/>
<text text-anchor="middle" x="96.64" y="-14.3" font-family="Times,serif" font-size="14.00">4,7 (Cottonguts)</text>
</g>
<!-- 1,1 (Moondrops)&#45;&gt;4,7 (Cottonguts) -->
<g id="edge3" class="edge">
<title>1,1 (Moondrops)&#45;&gt;4,7 (Cottonguts)</title>
<path fill="none" stroke="black" stroke-width="1" d="M246,-250.97C217.99,-207.28 146.44,-95.67 113.59,-44.44"/>
<polygon fill="black" stroke="black" stroke-width="1" points="116.46,-42.42 108.11,-35.89 110.56,-46.2 116.46,-42.42"/>
<text text-anchor="middle" x="117.8" y="-151.5" font-family="Times,serif" font-size="14.00">moondrop*30192</text>
</g>
</g>
</svg>
