<?xml version="1.0" encoding="UTF-8" standalone="no"?>
<!DOCTYPE svg PUBLIC "-//W3C//DTD SVG 1.1//EN"
 "http://www.w3.org/Graphics/SVG/1.1/DTD/svg11.dtd">
<!-- Generated by graphviz version 2.43.0 (0)
 -->
<!-- Title: %3 Pages: 1 -->
<svg width="1555pt" height="1242pt"
 viewBox="0.00 0.00 1555.24 1242.37" xmlns="http://www.w3.org/2000/svg" xmlns:xlink="http://www.w3.org/1999/xlink">
<g id="graph0" class="graph" transform="scale(1 1) rotate(0) translate(4 1238.37)">
<title>%3</title>
<polygon fill="white" stroke="transparent" points="-4,4 -4,-1238.37 1551.24,-1238.37 1551.24,4 -4,4"/>
<!-- &#45;1,10 (Iron Plates) -->
<g id="node1" class="node">
<title>&#45;1,10 (Iron Plates)</title>
<ellipse fill="none" stroke="black" cx="1408.15" cy="-617.18" rx="94.78" ry="18"/>
<text text-anchor="middle" x="1408.15" y="-613.48" font-family="Times,serif" font-size="14.00">&#45;1,10 (Iron Plates)</text>
</g>
<!-- 5,2 (Raw Fiber) -->
<g id="node2" class="node">
<title>5,2 (Raw Fiber)</title>
<ellipse fill="none" stroke="black" cx="239.83" cy="-883.85" rx="83.39" ry="18"/>
<text text-anchor="middle" x="239.83" y="-880.15" font-family="Times,serif" font-size="14.00">5,2 (Raw Fiber)</text>
</g>
<!-- &#45;1,10 (Iron Plates)&#45;&gt;5,2 (Raw Fiber) -->
<g id="edge1" class="edge">
<title>&#45;1,10 (Iron Plates)&#45;&gt;5,2 (Raw Fiber)</title>
<path fill="none" stroke="black" stroke-width="2.31" d="M1347.39,-631.05C1148.19,-676.52 515.75,-820.87 307.24,-868.46"/>
<polygon fill="black" stroke="black" stroke-width="2.31" points="306.31,-865.08 297.34,-870.72 307.86,-871.91 306.31,-865.08"/>
<text text-anchor="middle" x="736.81" y="-753.56" font-family="Times,serif" font-size="14.00">dirty&#45;water&#45;barrel*17136</text>
</g>
<!-- &#45;3,1 (Logistic science pack, Automation Science) -->
<g id="node7" class="node">
<title>&#45;3,1 (Logistic science pack, Automation Science)</title>
<ellipse fill="none" stroke="black" cx="1176.75" cy="-1097.69" rx="233.96" ry="18"/>
<text text-anchor="middle" x="1176.75" y="-1093.99" font-family="Times,serif" font-size="14.00">&#45;3,1 (Logistic science pack, Automation Science)</text>
</g>
<!-- &#45;1,10 (Iron Plates)&#45;&gt;&#45;3,1 (Logistic science pack, Automation Science) -->
<g id="edge9" class="edge">
<title>&#45;1,10 (Iron Plates)&#45;&gt;&#45;3,1 (Logistic science pack, Automation Science)</title>
<path fill="none" stroke="black" stroke-width="0.14" d="M1399.5,-635.14C1364.35,-708.14 1232.05,-982.86 1189.8,-1070.59"/>
<polygon fill="black" stroke="black" stroke-width="0.14" points="1186.63,-1069.11 1185.44,-1079.64 1192.94,-1072.15 1186.63,-1069.11"/>
<text text-anchor="middle" x="1208.65" y="-856.66" font-family="Times,serif" font-size="14.00">dirty&#45;water&#45;barrel*1024</text>
</g>
<!-- 1,12 (Molten Iron) -->
<g id="node3" class="node">
<title>1,12 (Molten Iron)</title>
<ellipse fill="none" stroke="black" cx="656.8" cy="-1216.37" rx="95.58" ry="18"/>
<text text-anchor="middle" x="656.8" y="-1212.67" font-family="Times,serif" font-size="14.00">1,12 (Molten Iron)</text>
</g>
<!-- 1,12 (Molten Iron)&#45;&gt;5,2 (Raw Fiber) -->
<g id="edge4" class="edge">
<title>1,12 (Molten Iron)&#45;&gt;5,2 (Raw Fiber)</title>
<path fill="none" stroke="black" stroke-width="0.53" d="M634.67,-1198.72C564.9,-1143.08 349.42,-971.24 269.8,-907.74"/>
<polygon fill="black" stroke="black" stroke-width="0.53" points="271.65,-904.74 261.65,-901.25 267.28,-910.22 271.65,-904.74"/>
<text text-anchor="middle" x="366.24" y="-1057.03" font-family="Times,serif" font-size="14.00">dirty&#45;water&#45;barrel*3936</text>
</g>
<!-- 4,10 (Fluid Recycling) -->
<g id="node4" class="node">
<title>4,10 (Fluid Recycling)</title>
<ellipse fill="none" stroke="black" cx="656.8" cy="-18" rx="112.38" ry="18"/>
<text text-anchor="middle" x="656.8" y="-14.3" font-family="Times,serif" font-size="14.00">4,10 (Fluid Recycling)</text>
</g>
<!-- 1,12 (Molten Iron)&#45;&gt;4,10 (Fluid Recycling) -->
<g id="edge2" class="edge">
<title>1,12 (Molten Iron)&#45;&gt;4,10 (Fluid Recycling)</title>
<path fill="none" stroke="black" stroke-width="0.85" d="M656.8,-1198.02C656.8,-1062.23 656.8,-213.82 656.8,-46.6"/>
<polygon fill="black" stroke="black" stroke-width="0.85" points="660.3,-46.38 656.8,-36.38 653.3,-46.38 660.3,-46.38"/>
<text text-anchor="middle" x="570.8" y="-626.11" font-family="Times,serif" font-size="14.00">dirty&#45;water&#45;barrel*6312</text>
</g>
<!-- 1,12 (Molten Iron)&#45;&gt;&#45;3,1 (Logistic science pack, Automation Science) -->
<g id="edge7" class="edge">
<title>1,12 (Molten Iron)&#45;&gt;&#45;3,1 (Logistic science pack, Automation Science)</title>
<path fill="none" stroke="black" stroke-width="0.07" d="M717.72,-1202.46C810.33,-1181.33 986.86,-1141.03 1091.96,-1117.05"/>
<polygon fill="black" stroke="black" stroke-width="0.07" points="1092.93,-1120.41 1101.9,-1114.78 1091.37,-1113.59 1092.93,-1120.41"/>
<text text-anchor="middle" x="823.34" y="-1163.55" font-family="Times,serif" font-size="14.00">dirty&#45;water&#45;barrel*512</text>
</g>
<!-- 3,9 (Copper, molten &amp; plate) -->
<g id="node5" class="node">
<title>3,9 (Copper, molten &amp; plate)</title>
<ellipse fill="none" stroke="black" cx="1176.75" cy="-136.68" rx="143.77" ry="18"/>
<text text-anchor="middle" x="1176.75" y="-132.98" font-family="Times,serif" font-size="14.00">3,9 (Copper, molten &amp; plate)</text>
</g>
<!-- 3,9 (Copper, molten &amp; plate)&#45;&gt;5,2 (Raw Fiber) -->
<g id="edge5" class="edge">
<title>3,9 (Copper, molten &amp; plate)&#45;&gt;5,2 (Raw Fiber)</title>
<path fill="none" stroke="black" stroke-width="0.55" d="M1154.05,-154.77C1027.88,-255.4 413.29,-745.52 269.82,-859.93"/>
<polygon fill="black" stroke="black" stroke-width="0.55" points="267.45,-857.34 261.81,-866.32 271.81,-862.82 267.45,-857.34"/>
<text text-anchor="middle" x="625.94" y="-511.15" font-family="Times,serif" font-size="14.00">dirty&#45;water&#45;barrel*4080</text>
</g>
<!-- 3,9 (Copper, molten &amp; plate)&#45;&gt;4,10 (Fluid Recycling) -->
<g id="edge3" class="edge">
<title>3,9 (Copper, molten &amp; plate)&#45;&gt;4,10 (Fluid Recycling)</title>
<path fill="none" stroke="black" stroke-width="2.72" d="M1107.44,-120.86C1009.64,-98.53 831.88,-57.96 731.33,-35.01"/>
<polygon fill="black" stroke="black" stroke-width="2.72" points="732.08,-31.59 721.55,-32.78 730.52,-38.42 732.08,-31.59"/>
<text text-anchor="middle" x="828.88" y="-81.73" font-family="Times,serif" font-size="14.00">dirty&#45;water&#45;barrel*20168</text>
</g>
<!-- 3,5 (item=molybdenum&#45;plate Molybdenum plate) -->
<g id="node6" class="node">
<title>3,5 (item=molybdenum&#45;plate Molybdenum plate)</title>
<ellipse fill="none" stroke="black" cx="239.83" cy="-350.52" rx="239.66" ry="18"/>
<text text-anchor="middle" x="239.83" y="-346.82" font-family="Times,serif" font-size="14.00">3,5 (item=molybdenum&#45;plate Molybdenum plate)</text>
</g>
<!-- 3,5 (item=molybdenum&#45;plate Molybdenum plate)&#45;&gt;5,2 (Raw Fiber) -->
<g id="edge10" class="edge">
<title>3,5 (item=molybdenum&#45;plate Molybdenum plate)&#45;&gt;5,2 (Raw Fiber)</title>
<path fill="none" stroke="black" stroke-width="0.16" d="M239.83,-368.57C239.83,-447.15 239.83,-759.76 239.83,-855.7"/>
<polygon fill="black" stroke="black" stroke-width="0.16" points="236.33,-855.8 239.83,-865.8 243.33,-855.8 236.33,-855.8"/>
<text text-anchor="middle" x="153.83" y="-615.94" font-family="Times,serif" font-size="14.00">dirty&#45;water&#45;barrel*1184</text>
</g>
<!-- 3,5 (item=molybdenum&#45;plate Molybdenum plate)&#45;&gt;4,10 (Fluid Recycling) -->
<g id="edge6" class="edge">
<title>3,5 (item=molybdenum&#45;plate Molybdenum plate)&#45;&gt;4,10 (Fluid Recycling)</title>
<path fill="none" stroke="black" stroke-width="2.56" d="M262.54,-332.41C332.72,-276.44 546.17,-106.23 626.12,-42.46"/>
<polygon fill="black" stroke="black" stroke-width="2.56" points="628.68,-44.9 634.32,-35.93 624.32,-39.43 628.68,-44.9"/>
<text text-anchor="middle" x="353.83" y="-191.24" font-family="Times,serif" font-size="14.00">dirty&#45;water&#45;barrel*18968</text>
</g>
<!-- 0,0 (LE BUS) -->
<g id="node8" class="node">
<title>0,0 (LE BUS)</title>
<ellipse fill="none" stroke="black" cx="1237.37" cy="-442.18" rx="71.49" ry="18"/>
<text text-anchor="middle" x="1237.37" y="-438.48" font-family="Times,serif" font-size="14.00">0,0 (LE BUS)</text>
</g>
<!-- 5,&#45;2 (Lubricant) -->
<g id="node9" class="node">
<title>5,&#45;2 (Lubricant)</title>
<ellipse fill="none" stroke="black" cx="1464.05" cy="-442.18" rx="83.39" ry="18"/>
<text text-anchor="middle" x="1464.05" y="-438.48" font-family="Times,serif" font-size="14.00">5,&#45;2 (Lubricant)</text>
</g>
<!-- 0,0 (LE BUS)&#45;&gt;5,&#45;2 (Lubricant) -->
<g id="edge8" class="edge">
<title>0,0 (LE BUS)&#45;&gt;5,&#45;2 (Lubricant)</title>
<path fill="none" stroke="black" stroke-width="0.11" d="M1309.09,-442.18C1328.51,-442.18 1349.82,-442.18 1370.26,-442.18"/>
<polygon fill="black" stroke="black" stroke-width="0.11" points="1370.53,-445.68 1380.53,-442.18 1370.53,-438.68 1370.53,-445.68"/>
<text text-anchor="middle" x="1298.92" y="-430.98" font-family="Times,serif" font-size="14.00">dirty&#45;water&#45;barrel*784</text>
</g>
</g>
</svg>
