<?xml version="1.0" encoding="UTF-8" standalone="no"?>
<!DOCTYPE svg PUBLIC "-//W3C//DTD SVG 1.1//EN"
 "http://www.w3.org/Graphics/SVG/1.1/DTD/svg11.dtd">
<!-- Generated by graphviz version 2.43.0 (0)
 -->
<!-- Title: %3 Pages: 1 -->
<svg width="2485pt" height="2215pt"
 viewBox="0.00 0.00 2484.89 2214.84" xmlns="http://www.w3.org/2000/svg" xmlns:xlink="http://www.w3.org/1999/xlink">
<g id="graph0" class="graph" transform="scale(1 1) rotate(0) translate(4 2210.84)">
<title>%3</title>
<polygon fill="white" stroke="transparent" points="-4,4 -4,-2210.84 2480.89,-2210.84 2480.89,4 -4,4"/>
<!-- 1,13 (Landfill Drive&#45;Thru) -->
<g id="node1" class="node">
<title>1,13 (Landfill Drive&#45;Thru)</title>
<ellipse fill="none" stroke="black" cx="2262" cy="-620.36" rx="129.18" ry="18"/>
<text text-anchor="middle" x="2262" y="-616.66" font-family="Times,serif" font-size="14.00">1,13 (Landfill Drive&#45;Thru)</text>
</g>
<!-- 2,14 (Latex) -->
<g id="node2" class="node">
<title>2,14 (Latex)</title>
<ellipse fill="none" stroke="black" cx="1953.07" cy="-232.98" rx="66.89" ry="18"/>
<text text-anchor="middle" x="1953.07" y="-229.28" font-family="Times,serif" font-size="14.00">2,14 (Latex)</text>
</g>
<!-- 1,13 (Landfill Drive&#45;Thru)&#45;&gt;2,14 (Latex) -->
<g id="edge1" class="edge">
<title>1,13 (Landfill Drive&#45;Thru)&#45;&gt;2,14 (Latex)</title>
<path fill="none" stroke="black" stroke-width="1.89" d="M2247.72,-602.45C2197.9,-539.98 2031.68,-331.55 1973.44,-258.52"/>
<polygon fill="black" stroke="black" stroke-width="1.89" points="1976.17,-256.33 1967.2,-250.7 1970.7,-260.7 1976.17,-256.33"/>
<text text-anchor="middle" x="2060.58" y="-434.29" font-family="Times,serif" font-size="14.00">stone*328000</text>
</g>
<!-- 0,0 (LE BUS) -->
<g id="node4" class="node">
<title>0,0 (LE BUS)</title>
<ellipse fill="none" stroke="black" cx="1011.18" cy="-18" rx="71.49" ry="18"/>
<text text-anchor="middle" x="1011.18" y="-14.3" font-family="Times,serif" font-size="14.00">0,0 (LE BUS)</text>
</g>
<!-- 1,13 (Landfill Drive&#45;Thru)&#45;&gt;0,0 (LE BUS) -->
<g id="edge4" class="edge">
<title>1,13 (Landfill Drive&#45;Thru)&#45;&gt;0,0 (LE BUS)</title>
<path fill="none" stroke="black" stroke-width="5.07" d="M2225.91,-602.98C2046,-516.34 1246.95,-131.54 1053.47,-38.37"/>
<polygon fill="black" stroke="black" stroke-width="5.07" points="1055.39,-34.37 1044.46,-34.03 1051.54,-42.36 1055.39,-34.37"/>
<text text-anchor="middle" x="1589.69" y="-324.48" font-family="Times,serif" font-size="14.00">stone*880000</text>
</g>
<!-- 3,11 (Sap, Sodium Hydroxide) -->
<g id="node6" class="node">
<title>3,11 (Sap, Sodium Hydroxide)</title>
<ellipse fill="none" stroke="black" cx="2262" cy="-1586.47" rx="150.57" ry="18"/>
<text text-anchor="middle" x="2262" y="-1582.77" font-family="Times,serif" font-size="14.00">3,11 (Sap, Sodium Hydroxide)</text>
</g>
<!-- 1,13 (Landfill Drive&#45;Thru)&#45;&gt;3,11 (Sap, Sodium Hydroxide) -->
<g id="edge7" class="edge">
<title>1,13 (Landfill Drive&#45;Thru)&#45;&gt;3,11 (Sap, Sodium Hydroxide)</title>
<path fill="none" stroke="black" stroke-width="8.93" d="M2262,-638.37C2262,-755.82 2262,-1412.3 2262,-1557.88"/>
<polygon fill="black" stroke="black" stroke-width="8.93" points="2254.18,-1558.2 2262,-1568.2 2269.81,-1558.2 2254.18,-1558.2"/>
<text text-anchor="middle" x="2207.5" y="-1101.93" font-family="Times,serif" font-size="14.00">stone*1550000</text>
</g>
<!-- 1,8 (A copper mine, Salt) -->
<g id="node7" class="node">
<title>1,8 (A copper mine, Salt)</title>
<ellipse fill="none" stroke="black" cx="255.84" cy="-1586.47" rx="126.18" ry="18"/>
<text text-anchor="middle" x="255.84" y="-1582.77" font-family="Times,serif" font-size="14.00">1,8 (A copper mine, Salt)</text>
</g>
<!-- 1,13 (Landfill Drive&#45;Thru)&#45;&gt;1,8 (A copper mine, Salt) -->
<g id="edge5" class="edge">
<title>1,13 (Landfill Drive&#45;Thru)&#45;&gt;1,8 (A copper mine, Salt)</title>
<path fill="none" stroke="black" stroke-width="5.53" d="M2225.89,-637.75C1981.64,-755.37 572.51,-1433.97 301.08,-1564.69"/>
<polygon fill="black" stroke="black" stroke-width="5.53" points="298.81,-1560.41 291.91,-1569.11 303.02,-1569.13 298.81,-1560.41"/>
<text text-anchor="middle" x="1213.49" y="-1090.02" font-family="Times,serif" font-size="14.00">stone*960000</text>
</g>
<!-- 3,9 (Copper, molten &amp; plate) -->
<g id="node3" class="node">
<title>3,9 (Copper, molten &amp; plate)</title>
<ellipse fill="none" stroke="black" cx="1506.66" cy="-18" rx="143.77" ry="18"/>
<text text-anchor="middle" x="1506.66" y="-14.3" font-family="Times,serif" font-size="14.00">3,9 (Copper, molten &amp; plate)</text>
</g>
<!-- 3,9 (Copper, molten &amp; plate)&#45;&gt;2,14 (Latex) -->
<g id="edge15" class="edge">
<title>3,9 (Copper, molten &amp; plate)&#45;&gt;2,14 (Latex)</title>
<path fill="none" stroke="black" stroke-width="0.01" d="M1543.19,-35.59C1625.36,-75.17 1824.36,-170.99 1911.28,-212.85"/>
<polygon fill="black" stroke="black" stroke-width="0.01" points="1909.79,-216.02 1920.32,-217.21 1912.83,-209.72 1909.79,-216.02"/>
<text text-anchor="middle" x="1686.23" y="-128.02" font-family="Times,serif" font-size="14.00">stone*2160</text>
</g>
<!-- 3,9 (Copper, molten &amp; plate)&#45;&gt;0,0 (LE BUS) -->
<g id="edge2" class="edge">
<title>3,9 (Copper, molten &amp; plate)&#45;&gt;0,0 (LE BUS)</title>
<path fill="none" stroke="black" stroke-width="0.01" d="M1363.01,-18C1275.27,-18 1166.22,-18 1092.99,-18"/>
<polygon fill="black" stroke="black" stroke-width="0.01" points="1092.9,-14.5 1082.9,-18 1092.9,-21.5 1092.9,-14.5"/>
<text text-anchor="middle" x="1187" y="-21.8" font-family="Times,serif" font-size="14.00">stone*2320</text>
</g>
<!-- 3,9 (Copper, molten &amp; plate)&#45;&gt;3,11 (Sap, Sodium Hydroxide) -->
<g id="edge17" class="edge">
<title>3,9 (Copper, molten &amp; plate)&#45;&gt;3,11 (Sap, Sodium Hydroxide)</title>
<path fill="none" stroke="black" stroke-width="0.59" d="M1515.4,-36.16C1592.46,-196.17 2155.02,-1364.34 2248.77,-1559.01"/>
<polygon fill="black" stroke="black" stroke-width="0.59" points="2245.74,-1560.78 2253.23,-1568.27 2252.04,-1557.74 2245.74,-1560.78"/>
<text text-anchor="middle" x="1832.09" y="-801.38" font-family="Times,serif" font-size="14.00">stone*102448</text>
</g>
<!-- 3,9 (Copper, molten &amp; plate)&#45;&gt;1,8 (A copper mine, Salt) -->
<g id="edge27" class="edge">
<title>3,9 (Copper, molten &amp; plate)&#45;&gt;1,8 (A copper mine, Salt)</title>
<path fill="none" stroke="black" stroke-width="0.15" d="M1492.18,-36.16C1364.25,-196.57 428.3,-1370.22 276.59,-1560.46"/>
<polygon fill="black" stroke="black" stroke-width="0.15" points="273.65,-1558.52 270.16,-1568.52 279.13,-1562.89 273.65,-1558.52"/>
<text text-anchor="middle" x="838.88" y="-802.11" font-family="Times,serif" font-size="14.00">stone*25408</text>
</g>
<!-- &#45;6,7 (Iron ore dust) -->
<g id="node5" class="node">
<title>&#45;6,7 (Iron ore dust)</title>
<ellipse fill="none" stroke="black" cx="564.77" cy="-232.98" rx="98.58" ry="18"/>
<text text-anchor="middle" x="564.77" y="-229.28" font-family="Times,serif" font-size="14.00">&#45;6,7 (Iron ore dust)</text>
</g>
<!-- &#45;6,7 (Iron ore dust)&#45;&gt;2,14 (Latex) -->
<g id="edge11" class="edge">
<title>&#45;6,7 (Iron ore dust)&#45;&gt;2,14 (Latex)</title>
<path fill="none" stroke="black" stroke-width="0.07" d="M663.78,-232.98C926.79,-232.98 1638.98,-232.98 1875.52,-232.98"/>
<polygon fill="black" stroke="black" stroke-width="0.07" points="1875.76,-236.48 1885.76,-232.98 1875.76,-229.48 1875.76,-236.48"/>
<text text-anchor="middle" x="1224.15" y="-236.78" font-family="Times,serif" font-size="14.00">stone*12848</text>
</g>
<!-- &#45;6,7 (Iron ore dust)&#45;&gt;0,0 (LE BUS) -->
<g id="edge10" class="edge">
<title>&#45;6,7 (Iron ore dust)&#45;&gt;0,0 (LE BUS)</title>
<path fill="none" stroke="black" stroke-width="0.22" d="M599.8,-216.11C680.81,-177.1 880.88,-80.75 968.7,-38.46"/>
<polygon fill="black" stroke="black" stroke-width="0.22" points="970.35,-41.55 977.84,-34.06 967.31,-35.24 970.35,-41.55"/>
<text text-anchor="middle" x="738.75" y="-131.09" font-family="Times,serif" font-size="14.00">stone*38688</text>
</g>
<!-- &#45;6,7 (Iron ore dust)&#45;&gt;3,11 (Sap, Sodium Hydroxide) -->
<g id="edge3" class="edge">
<title>&#45;6,7 (Iron ore dust)&#45;&gt;3,11 (Sap, Sodium Hydroxide)</title>
<path fill="none" stroke="black" stroke-width="2.1" d="M586.85,-250.59C768.88,-395.76 2020.33,-1393.75 2231.71,-1562.32"/>
<polygon fill="black" stroke="black" stroke-width="2.1" points="2229.61,-1565.13 2239.61,-1568.63 2233.98,-1559.65 2229.61,-1565.13"/>
<text text-anchor="middle" x="1359.28" y="-910.25" font-family="Times,serif" font-size="14.00">stone*364944</text>
</g>
<!-- &#45;6,7 (Iron ore dust)&#45;&gt;1,8 (A copper mine, Salt) -->
<g id="edge16" class="edge">
<title>&#45;6,7 (Iron ore dust)&#45;&gt;1,8 (A copper mine, Salt)</title>
<path fill="none" stroke="black" stroke-width="1.54" d="M560.63,-251.09C527.34,-396.96 303.12,-1379.34 262.23,-1558.47"/>
<polygon fill="black" stroke="black" stroke-width="1.54" points="258.77,-1557.9 259.96,-1568.43 265.6,-1559.46 258.77,-1557.9"/>
<text text-anchor="middle" x="361.43" y="-908.58" font-family="Times,serif" font-size="14.00">stone*266528</text>
</g>
<!-- &#45;3,3 (Lead dust (silver plate)) -->
<g id="node8" class="node">
<title>&#45;3,3 (Lead dust (silver plate))</title>
<ellipse fill="none" stroke="black" cx="145.59" cy="-1103.42" rx="145.67" ry="18"/>
<text text-anchor="middle" x="145.59" y="-1099.72" font-family="Times,serif" font-size="14.00">&#45;3,3 (Lead dust (silver plate))</text>
</g>
<!-- &#45;3,3 (Lead dust (silver plate))&#45;&gt;2,14 (Latex) -->
<g id="edge28" class="edge">
<title>&#45;3,3 (Lead dust (silver plate))&#45;&gt;2,14 (Latex)</title>
<path fill="none" stroke="black" stroke-width="0.01" d="M182.1,-1085.83C412.6,-974.83 1664.23,-372.08 1910.86,-253.31"/>
<polygon fill="black" stroke="black" stroke-width="0.01" points="1912.71,-256.3 1920.2,-248.81 1909.67,-249.99 1912.71,-256.3"/>
<text text-anchor="middle" x="1005.48" y="-673.37" font-family="Times,serif" font-size="14.00">stone*2096</text>
</g>
<!-- &#45;3,3 (Lead dust (silver plate))&#45;&gt;3,11 (Sap, Sodium Hydroxide) -->
<g id="edge6" class="edge">
<title>&#45;3,3 (Lead dust (silver plate))&#45;&gt;3,11 (Sap, Sodium Hydroxide)</title>
<path fill="none" stroke="black" stroke-width="0.74" d="M215.1,-1119.28C532.57,-1191.74 1843.72,-1491.01 2182.05,-1568.23"/>
<polygon fill="black" stroke="black" stroke-width="0.74" points="2181.48,-1571.69 2192.01,-1570.5 2183.04,-1564.86 2181.48,-1571.69"/>
<text text-anchor="middle" x="1148.57" y="-1347.56" font-family="Times,serif" font-size="14.00">stone*128272</text>
</g>
<!-- &#45;3,3 (Lead dust (silver plate))&#45;&gt;1,8 (A copper mine, Salt) -->
<g id="edge23" class="edge">
<title>&#45;3,3 (Lead dust (silver plate))&#45;&gt;1,8 (A copper mine, Salt)</title>
<path fill="none" stroke="black" stroke-width="0.3" d="M149.71,-1121.47C166.41,-1194.63 229.11,-1469.35 249.44,-1558.41"/>
<polygon fill="black" stroke="black" stroke-width="0.3" points="246.06,-1559.36 251.7,-1568.33 252.89,-1557.8 246.06,-1559.36"/>
<text text-anchor="middle" x="154.07" y="-1343.74" font-family="Times,serif" font-size="14.00">stone*52832</text>
</g>
<!-- &#45;6,&#45;3 (Chromite Sand) -->
<g id="node9" class="node">
<title>&#45;6,&#45;3 (Chromite Sand)</title>
<ellipse fill="none" stroke="black" cx="255.84" cy="-620.36" rx="110.48" ry="18"/>
<text text-anchor="middle" x="255.84" y="-616.66" font-family="Times,serif" font-size="14.00">&#45;6,&#45;3 (Chromite Sand)</text>
</g>
<!-- &#45;6,&#45;3 (Chromite Sand)&#45;&gt;0,0 (LE BUS) -->
<g id="edge8" class="edge">
<title>&#45;6,&#45;3 (Chromite Sand)&#45;&gt;0,0 (LE BUS)</title>
<path fill="none" stroke="black" stroke-width="0.01" d="M278.04,-602.66C386.18,-516.42 857.69,-140.4 981.38,-41.76"/>
<polygon fill="black" stroke="black" stroke-width="0.01" points="983.71,-44.38 989.35,-35.41 979.34,-38.91 983.71,-44.38"/>
<text text-anchor="middle" x="588.71" y="-326.01" font-family="Times,serif" font-size="14.00">stone*2160</text>
</g>
<!-- &#45;6,&#45;3 (Chromite Sand)&#45;&gt;1,8 (A copper mine, Salt) -->
<g id="edge20" class="edge">
<title>&#45;6,&#45;3 (Chromite Sand)&#45;&gt;1,8 (A copper mine, Salt)</title>
<path fill="none" stroke="black" stroke-width="0.06" d="M255.84,-638.37C255.84,-755.82 255.84,-1412.3 255.84,-1557.88"/>
<polygon fill="black" stroke="black" stroke-width="0.06" points="252.34,-1558.2 255.84,-1568.2 259.34,-1558.2 252.34,-1558.2"/>
<text text-anchor="middle" x="301.34" y="-1086.93" font-family="Times,serif" font-size="14.00">stone*11002</text>
</g>
<!-- 8,1 (Molten Copper) -->
<g id="node10" class="node">
<title>8,1 (Molten Copper)</title>
<ellipse fill="none" stroke="black" cx="2372.25" cy="-1103.42" rx="104.78" ry="18"/>
<text text-anchor="middle" x="2372.25" y="-1099.72" font-family="Times,serif" font-size="14.00">8,1 (Molten Copper)</text>
</g>
<!-- 8,1 (Molten Copper)&#45;&gt;3,11 (Sap, Sodium Hydroxide) -->
<g id="edge9" class="edge">
<title>8,1 (Molten Copper)&#45;&gt;3,11 (Sap, Sodium Hydroxide)</title>
<path fill="none" stroke="black" stroke-width="0.15" d="M2368.13,-1121.47C2351.43,-1194.63 2288.73,-1469.35 2268.4,-1558.41"/>
<polygon fill="black" stroke="black" stroke-width="0.15" points="2264.95,-1557.8 2266.14,-1568.33 2271.77,-1559.36 2264.95,-1557.8"/>
<text text-anchor="middle" x="2272.76" y="-1343.74" font-family="Times,serif" font-size="14.00">stone*25488</text>
</g>
<!-- 8,1 (Molten Copper)&#45;&gt;1,8 (A copper mine, Salt) -->
<g id="edge26" class="edge">
<title>8,1 (Molten Copper)&#45;&gt;1,8 (A copper mine, Salt)</title>
<path fill="none" stroke="black" stroke-width="0.15" d="M2309.2,-1117.81C2002.66,-1187.77 669.18,-1492.13 333.01,-1568.86"/>
<polygon fill="black" stroke="black" stroke-width="0.15" points="331.86,-1565.53 322.89,-1571.17 333.41,-1572.36 331.86,-1565.53"/>
<text text-anchor="middle" x="1275.6" y="-1347.14" font-family="Times,serif" font-size="14.00">stone*25376</text>
</g>
<!-- 1,10 (Iron Ore Dust) -->
<g id="node11" class="node">
<title>1,10 (Iron Ore Dust)</title>
<ellipse fill="none" stroke="black" cx="1953.07" cy="-1973.86" rx="104.78" ry="18"/>
<text text-anchor="middle" x="1953.07" y="-1970.16" font-family="Times,serif" font-size="14.00">1,10 (Iron Ore Dust)</text>
</g>
<!-- 1,10 (Iron Ore Dust)&#45;&gt;3,11 (Sap, Sodium Hydroxide) -->
<g id="edge12" class="edge">
<title>1,10 (Iron Ore Dust)&#45;&gt;3,11 (Sap, Sodium Hydroxide)</title>
<path fill="none" stroke="black" stroke-width="0.45" d="M1967.35,-1955.95C2017.05,-1893.62 2182.63,-1686 2241.22,-1612.52"/>
<polygon fill="black" stroke="black" stroke-width="0.45" points="2244.01,-1614.64 2247.51,-1604.64 2238.54,-1610.27 2244.01,-1614.64"/>
<text text-anchor="middle" x="2058.79" y="-1788.03" font-family="Times,serif" font-size="14.00">stone*77376</text>
</g>
<!-- 1,10 (Iron Ore Dust)&#45;&gt;1,8 (A copper mine, Salt) -->
<g id="edge29" class="edge">
<title>1,10 (Iron Ore Dust)&#45;&gt;1,8 (A copper mine, Salt)</title>
<path fill="none" stroke="black" stroke-width="0.19" d="M1889.89,-1959.44C1626.98,-1899.43 619.99,-1669.59 332.75,-1604.03"/>
<polygon fill="black" stroke="black" stroke-width="0.19" points="333.36,-1600.58 322.83,-1601.76 331.8,-1607.4 333.36,-1600.58"/>
<text text-anchor="middle" x="1065.82" y="-1785.53" font-family="Times,serif" font-size="14.00">stone*33232</text>
</g>
<!-- &#45;3,&#45;3 (Zinc Plates, 32 to consume four belts) -->
<g id="node12" class="node">
<title>&#45;3,&#45;3 (Zinc Plates, 32 to consume four belts)</title>
<ellipse fill="none" stroke="black" cx="564.77" cy="-1973.86" rx="213.66" ry="18"/>
<text text-anchor="middle" x="564.77" y="-1970.16" font-family="Times,serif" font-size="14.00">&#45;3,&#45;3 (Zinc Plates, 32 to consume four belts)</text>
</g>
<!-- &#45;3,&#45;3 (Zinc Plates, 32 to consume four belts)&#45;&gt;0,0 (LE BUS) -->
<g id="edge13" class="edge">
<title>&#45;3,&#45;3 (Zinc Plates, 32 to consume four belts)&#45;&gt;0,0 (LE BUS)</title>
<path fill="none" stroke="black" stroke-width="0.08" d="M568.9,-1955.74C610.52,-1773.4 953.42,-271.07 1004.76,-46.14"/>
<polygon fill="black" stroke="black" stroke-width="0.08" points="1008.23,-46.65 1007.04,-36.12 1001.4,-45.09 1008.23,-46.65"/>
<text text-anchor="middle" x="741.33" y="-1004.74" font-family="Times,serif" font-size="14.00">stone*13072</text>
</g>
<!-- &#45;3,&#45;3 (Zinc Plates, 32 to consume four belts)&#45;&gt;3,11 (Sap, Sodium Hydroxide) -->
<g id="edge18" class="edge">
<title>&#45;3,&#45;3 (Zinc Plates, 32 to consume four belts)&#45;&gt;3,11 (Sap, Sodium Hydroxide)</title>
<path fill="none" stroke="black" stroke-width="0.18" d="M638.79,-1956.96C916.38,-1893.6 1894.36,-1670.38 2181.91,-1604.75"/>
<polygon fill="black" stroke="black" stroke-width="0.18" points="2182.88,-1608.12 2191.85,-1602.49 2181.32,-1601.3 2182.88,-1608.12"/>
<text text-anchor="middle" x="1364.85" y="-1784.66" font-family="Times,serif" font-size="14.00">stone*31722</text>
</g>
<!-- &#45;3,&#45;3 (Zinc Plates, 32 to consume four belts)&#45;&gt;1,8 (A copper mine, Salt) -->
<g id="edge21" class="edge">
<title>&#45;3,&#45;3 (Zinc Plates, 32 to consume four belts)&#45;&gt;1,8 (A copper mine, Salt)</title>
<path fill="none" stroke="black" stroke-width="0.17" d="M550.28,-1955.69C500.32,-1893.04 335.05,-1685.79 276.57,-1612.47"/>
<polygon fill="black" stroke="black" stroke-width="0.17" points="279.27,-1610.24 270.3,-1604.6 273.79,-1614.6 279.27,-1610.24"/>
<text text-anchor="middle" x="367.93" y="-1787.88" font-family="Times,serif" font-size="14.00">stone*29797</text>
</g>
<!-- &#45;3,2 (Lead and Solder) -->
<g id="node13" class="node">
<title>&#45;3,2 (Lead and Solder)</title>
<ellipse fill="none" stroke="black" cx="1011.18" cy="-2188.84" rx="113.98" ry="18"/>
<text text-anchor="middle" x="1011.18" y="-2185.14" font-family="Times,serif" font-size="14.00">&#45;3,2 (Lead and Solder)</text>
</g>
<!-- &#45;3,2 (Lead and Solder)&#45;&gt;0,0 (LE BUS) -->
<g id="edge14" class="edge">
<title>&#45;3,2 (Lead and Solder)&#45;&gt;0,0 (LE BUS)</title>
<path fill="none" stroke="black" stroke-width="0.04" d="M1011.18,-2170.72C1011.18,-1976.81 1011.18,-286.67 1011.18,-46.38"/>
<polygon fill="black" stroke="black" stroke-width="0.04" points="1014.68,-46.04 1011.18,-36.04 1007.68,-46.04 1014.68,-46.04"/>
<text text-anchor="middle" x="970.18" y="-1112.35" font-family="Times,serif" font-size="14.00">stone*7280</text>
</g>
<!-- &#45;3,2 (Lead and Solder)&#45;&gt;3,11 (Sap, Sodium Hydroxide) -->
<g id="edge19" class="edge">
<title>&#45;3,2 (Lead and Solder)&#45;&gt;3,11 (Sap, Sodium Hydroxide)</title>
<path fill="none" stroke="black" stroke-width="0.45" d="M1046.93,-2171.62C1225.18,-2085.78 2017.15,-1704.38 2216.39,-1608.44"/>
<polygon fill="black" stroke="black" stroke-width="0.45" points="2217.93,-1611.58 2225.42,-1604.09 2214.9,-1605.27 2217.93,-1611.58"/>
<text text-anchor="middle" x="1586.16" y="-1893.83" font-family="Times,serif" font-size="14.00">stone*77960</text>
</g>
<!-- &#45;3,2 (Lead and Solder)&#45;&gt;1,8 (A copper mine, Salt) -->
<g id="edge25" class="edge">
<title>&#45;3,2 (Lead and Solder)&#45;&gt;1,8 (A copper mine, Salt)</title>
<path fill="none" stroke="black" stroke-width="0.53" d="M988.98,-2171.13C881.07,-2085.08 411.41,-1710.53 286.46,-1610.9"/>
<polygon fill="black" stroke="black" stroke-width="0.53" points="288.41,-1607.97 278.41,-1604.47 284.04,-1613.44 288.41,-1607.97"/>
<text text-anchor="middle" x="592.22" y="-1894.82" font-family="Times,serif" font-size="14.00">stone*91600</text>
</g>
<!-- 0,5 (Titanium Processing (Grade 4)) -->
<g id="node14" class="node">
<title>0,5 (Titanium Processing (Grade 4))</title>
<ellipse fill="none" stroke="black" cx="1506.66" cy="-2188.84" rx="176.57" ry="18"/>
<text text-anchor="middle" x="1506.66" y="-2185.14" font-family="Times,serif" font-size="14.00">0,5 (Titanium Processing (Grade 4))</text>
</g>
<!-- 0,5 (Titanium Processing (Grade 4))&#45;&gt;0,0 (LE BUS) -->
<g id="edge22" class="edge">
<title>0,5 (Titanium Processing (Grade 4))&#45;&gt;0,0 (LE BUS)</title>
<path fill="none" stroke="black" stroke-width="0.07" d="M1502.52,-2170.72C1458.24,-1976.71 1072.12,-285 1017.57,-46.02"/>
<polygon fill="black" stroke="black" stroke-width="0.07" points="1020.93,-45.01 1015.3,-36.04 1014.11,-46.57 1020.93,-45.01"/>
<text text-anchor="middle" x="1214.55" y="-1112.17" font-family="Times,serif" font-size="14.00">stone*12464</text>
</g>
<!-- 0,5 (Titanium Processing (Grade 4))&#45;&gt;3,11 (Sap, Sodium Hydroxide) -->
<g id="edge30" class="edge">
<title>0,5 (Titanium Processing (Grade 4))&#45;&gt;3,11 (Sap, Sodium Hydroxide)</title>
<path fill="none" stroke="black" stroke-width="0.15" d="M1529.26,-2170.81C1637.96,-2084.12 2106.75,-1710.28 2231.44,-1610.84"/>
<polygon fill="black" stroke="black" stroke-width="0.15" points="2233.84,-1613.4 2239.48,-1604.43 2229.48,-1607.93 2233.84,-1613.4"/>
<text text-anchor="middle" x="1834.85" y="-1894.63" font-family="Times,serif" font-size="14.00">stone*25401</text>
</g>
<!-- 0,5 (Titanium Processing (Grade 4))&#45;&gt;1,8 (A copper mine, Salt) -->
<g id="edge24" class="edge">
<title>0,5 (Titanium Processing (Grade 4))&#45;&gt;1,8 (A copper mine, Salt)</title>
<path fill="none" stroke="black" stroke-width="0.15" d="M1469.9,-2171.13C1289.55,-2084.28 498.98,-1703.56 300.95,-1608.2"/>
<polygon fill="black" stroke="black" stroke-width="0.15" points="302.23,-1604.93 291.7,-1603.74 299.19,-1611.23 302.23,-1604.93"/>
<text text-anchor="middle" x="839.92" y="-1893.47" font-family="Times,serif" font-size="14.00">stone*25368</text>
</g>
</g>
</svg>
