<?xml version="1.0" encoding="UTF-8" standalone="no"?>
<!DOCTYPE svg PUBLIC "-//W3C//DTD SVG 1.1//EN"
 "http://www.w3.org/Graphics/SVG/1.1/DTD/svg11.dtd">
<!-- Generated by graphviz version 2.43.0 (0)
 -->
<!-- Title: %3 Pages: 1 -->
<svg width="1033pt" height="725pt"
 viewBox="0.00 0.00 1033.32 725.28" xmlns="http://www.w3.org/2000/svg" xmlns:xlink="http://www.w3.org/1999/xlink">
<g id="graph0" class="graph" transform="scale(1 1) rotate(0) translate(4 721.28)">
<title>%3</title>
<polygon fill="white" stroke="transparent" points="-4,4 -4,-721.28 1029.32,-721.28 1029.32,4 -4,4"/>
<!-- 3,7 (Wood) -->
<g id="node1" class="node">
<title>3,7 (Wood)</title>
<ellipse fill="none" stroke="black" cx="642.76" cy="-355.2" rx="61.19" ry="18"/>
<text text-anchor="middle" x="642.76" y="-351.5" font-family="Times,serif" font-size="14.00">3,7 (Wood)</text>
</g>
<!-- &#45;6,&#45;2 (item=fertilizer Fertiliser) -->
<g id="node2" class="node">
<title>&#45;6,&#45;2 (item=fertilizer Fertiliser)</title>
<ellipse fill="none" stroke="black" cx="431.62" cy="-64.6" rx="155.97" ry="18"/>
<text text-anchor="middle" x="431.62" y="-60.9" font-family="Times,serif" font-size="14.00">&#45;6,&#45;2 (item=fertilizer Fertiliser)</text>
</g>
<!-- 3,7 (Wood)&#45;&gt;&#45;6,&#45;2 (item=fertilizer Fertiliser) -->
<g id="edge1" class="edge">
<title>3,7 (Wood)&#45;&gt;&#45;6,&#45;2 (item=fertilizer Fertiliser)</title>
<path fill="none" stroke="black" stroke-width="0.15" d="M629.87,-337.46C594.1,-288.23 493.45,-149.71 450.95,-91.2"/>
<polygon fill="black" stroke="black" stroke-width="0.15" points="453.59,-88.88 444.88,-82.85 447.93,-93 453.59,-88.88"/>
<text text-anchor="middle" x="495.41" y="-218.13" font-family="Times,serif" font-size="14.00">wood*10200</text>
</g>
<!-- 5,8 (Ulric Food) -->
<g id="node3" class="node">
<title>5,8 (Ulric Food)</title>
<ellipse fill="none" stroke="black" cx="431.62" cy="-645.8" rx="83.39" ry="18"/>
<text text-anchor="middle" x="431.62" y="-642.1" font-family="Times,serif" font-size="14.00">5,8 (Ulric Food)</text>
</g>
<!-- 3,7 (Wood)&#45;&gt;5,8 (Ulric Food) -->
<g id="edge2" class="edge">
<title>3,7 (Wood)&#45;&gt;5,8 (Ulric Food)</title>
<path fill="none" stroke="black" stroke-width="2.22" d="M629.87,-372.94C594.01,-422.29 492.98,-561.35 450.65,-619.61"/>
<polygon fill="black" stroke="black" stroke-width="2.22" points="447.66,-617.77 444.61,-627.92 453.32,-621.89 447.66,-617.77"/>
<text text-anchor="middle" x="490.76" y="-500.08" font-family="Times,serif" font-size="14.00">wood*153960</text>
</g>
<!-- &#45;6,4 (Urea) -->
<g id="node4" class="node">
<title>&#45;6,4 (Urea)</title>
<ellipse fill="none" stroke="black" cx="90" cy="-175.6" rx="61.19" ry="18"/>
<text text-anchor="middle" x="90" y="-171.9" font-family="Times,serif" font-size="14.00">&#45;6,4 (Urea)</text>
</g>
<!-- 3,7 (Wood)&#45;&gt;&#45;6,4 (Urea) -->
<g id="edge3" class="edge">
<title>3,7 (Wood)&#45;&gt;&#45;6,4 (Urea)</title>
<path fill="none" stroke="black" stroke-width="0.87" d="M601.66,-341.85C502.43,-309.6 249.9,-227.55 141.12,-192.21"/>
<polygon fill="black" stroke="black" stroke-width="0.87" points="141.96,-188.8 131.37,-189.04 139.79,-195.46 141.96,-188.8"/>
<text text-anchor="middle" x="326.39" y="-270.83" font-family="Times,serif" font-size="14.00">wood*60640</text>
</g>
<!-- 6,&#45;2 (item=yaedols Yaedlols (self priming)) -->
<g id="node6" class="node">
<title>6,&#45;2 (item=yaedols Yaedlols (self priming))</title>
<ellipse fill="none" stroke="black" cx="816.69" cy="-18" rx="208.76" ry="18"/>
<text text-anchor="middle" x="816.69" y="-14.3" font-family="Times,serif" font-size="14.00">6,&#45;2 (item=yaedols Yaedlols (self priming))</text>
</g>
<!-- 3,7 (Wood)&#45;&gt;6,&#45;2 (item=yaedols Yaedlols (self priming)) -->
<g id="edge5" class="edge">
<title>3,7 (Wood)&#45;&gt;6,&#45;2 (item=yaedols Yaedlols (self priming))</title>
<path fill="none" stroke="black" stroke-width="4.72" d="M652.11,-337.07C680.89,-281.27 768.29,-111.84 802.62,-45.27"/>
<polygon fill="black" stroke="black" stroke-width="4.72" points="806.38,-47 807.29,-36.22 799.04,-43.21 806.38,-47"/>
<text text-anchor="middle" x="677.87" y="-194.97" font-family="Times,serif" font-size="14.00">wood*327120</text>
</g>
<!-- 4,7 (Cottonguts) -->
<g id="node7" class="node">
<title>4,7 (Cottonguts)</title>
<ellipse fill="none" stroke="black" cx="923.33" cy="-363.65" rx="87.18" ry="18"/>
<text text-anchor="middle" x="923.33" y="-359.95" font-family="Times,serif" font-size="14.00">4,7 (Cottonguts)</text>
</g>
<!-- 3,7 (Wood)&#45;&gt;4,7 (Cottonguts) -->
<g id="edge6" class="edge">
<title>3,7 (Wood)&#45;&gt;4,7 (Cottonguts)</title>
<path fill="none" stroke="black" stroke-width="0.14" d="M703.63,-357.03C739.59,-358.12 785.92,-359.51 826.76,-360.74"/>
<polygon fill="black" stroke="black" stroke-width="0.14" points="826.92,-364.25 837.02,-361.05 827.13,-357.25 826.92,-364.25"/>
<text text-anchor="middle" x="787.7" y="-347.69" font-family="Times,serif" font-size="14.00">wood*10000</text>
</g>
<!-- 3,6 (Phosphoric Acid and Phosphine gas) -->
<g id="node8" class="node">
<title>3,6 (Phosphoric Acid and Phosphine gas)</title>
<ellipse fill="none" stroke="black" cx="811.78" cy="-699.28" rx="200.36" ry="18"/>
<text text-anchor="middle" x="811.78" y="-695.58" font-family="Times,serif" font-size="14.00">3,6 (Phosphoric Acid and Phosphine gas)</text>
</g>
<!-- 3,7 (Wood)&#45;&gt;3,6 (Phosphoric Acid and Phosphine gas) -->
<g id="edge8" class="edge">
<title>3,7 (Wood)&#45;&gt;3,6 (Phosphoric Acid and Phosphine gas)</title>
<path fill="none" stroke="black" stroke-width="0.59" d="M651.6,-373.21C679.38,-429.75 764.95,-603.94 798.29,-671.81"/>
<polygon fill="black" stroke="black" stroke-width="0.59" points="795.26,-673.59 802.81,-681.02 801.55,-670.51 795.26,-673.59"/>
<text text-anchor="middle" x="679.95" y="-526.31" font-family="Times,serif" font-size="14.00">wood*40760</text>
</g>
<!-- 0,0 (LE BUS) -->
<g id="node5" class="node">
<title>0,0 (LE BUS)</title>
<ellipse fill="none" stroke="black" cx="90" cy="-534.8" rx="71.49" ry="18"/>
<text text-anchor="middle" x="90" y="-531.1" font-family="Times,serif" font-size="14.00">0,0 (LE BUS)</text>
</g>
<!-- 0,0 (LE BUS)&#45;&gt;&#45;6,&#45;2 (item=fertilizer Fertiliser) -->
<g id="edge9" class="edge">
<title>0,0 (LE BUS)&#45;&gt;&#45;6,&#45;2 (item=fertilizer Fertiliser)</title>
<path fill="none" stroke="black" stroke-width="0.03" d="M102.97,-516.94C155.23,-445.02 350.45,-176.32 412.54,-90.87"/>
<polygon fill="black" stroke="black" stroke-width="0.03" points="415.4,-92.88 418.45,-82.73 409.74,-88.76 415.4,-92.88"/>
<text text-anchor="middle" x="217.26" y="-307.71" font-family="Times,serif" font-size="14.00">wood*2030</text>
</g>
<!-- 0,0 (LE BUS)&#45;&gt;5,8 (Ulric Food) -->
<g id="edge4" class="edge">
<title>0,0 (LE BUS)&#45;&gt;5,8 (Ulric Food)</title>
<path fill="none" stroke="black" stroke-width="0.13" d="M133.96,-549.08C195.71,-569.15 308.12,-605.67 375.73,-627.64"/>
<polygon fill="black" stroke="black" stroke-width="0.13" points="374.78,-631.01 385.37,-630.77 376.94,-624.35 374.78,-631.01"/>
<text text-anchor="middle" x="214.35" y="-592.16" font-family="Times,serif" font-size="14.00">wood*9002</text>
</g>
<!-- 0,0 (LE BUS)&#45;&gt;&#45;6,4 (Urea) -->
<g id="edge7" class="edge">
<title>0,0 (LE BUS)&#45;&gt;&#45;6,4 (Urea)</title>
<path fill="none" stroke="black" stroke-width="0.15" d="M90,-516.49C90,-458 90,-275.33 90,-204.28"/>
<polygon fill="black" stroke="black" stroke-width="0.15" points="93.5,-203.87 90,-193.87 86.5,-203.87 93.5,-203.87"/>
<text text-anchor="middle" x="45" y="-364.19" font-family="Times,serif" font-size="14.00">wood*10108</text>
</g>
</g>
</svg>
