<?xml version="1.0" encoding="UTF-8" standalone="no"?>
<!DOCTYPE svg PUBLIC "-//W3C//DTD SVG 1.1//EN"
 "http://www.w3.org/Graphics/SVG/1.1/DTD/svg11.dtd">
<!-- Generated by graphviz version 2.43.0 (0)
 -->
<!-- Title: %3 Pages: 1 -->
<svg width="1160pt" height="824pt"
 viewBox="0.00 0.00 1160.02 824.03" xmlns="http://www.w3.org/2000/svg" xmlns:xlink="http://www.w3.org/1999/xlink">
<g id="graph0" class="graph" transform="scale(1 1) rotate(0) translate(4 820.03)">
<title>%3</title>
<polygon fill="white" stroke="transparent" points="-4,4 -4,-820.03 1156.02,-820.03 1156.02,4 -4,4"/>
<!-- 5,8 (Ulric Food) -->
<g id="node1" class="node">
<title>5,8 (Ulric Food)</title>
<ellipse fill="none" stroke="black" cx="589.33" cy="-399.63" rx="83.39" ry="18"/>
<text text-anchor="middle" x="589.33" y="-395.93" font-family="Times,serif" font-size="14.00">5,8 (Ulric Food)</text>
</g>
<!-- &#45;1,11 (Steel Plate (from molten)) -->
<g id="node2" class="node">
<title>&#45;1,11 (Steel Plate (from molten))</title>
<ellipse fill="none" stroke="black" cx="990.83" cy="-399.63" rx="161.37" ry="18"/>
<text text-anchor="middle" x="990.83" y="-395.93" font-family="Times,serif" font-size="14.00">&#45;1,11 (Steel Plate (from molten))</text>
</g>
<!-- 5,8 (Ulric Food)&#45;&gt;&#45;1,11 (Steel Plate (from molten)) -->
<g id="edge1" class="edge">
<title>5,8 (Ulric Food)&#45;&gt;&#45;1,11 (Steel Plate (from molten))</title>
<path fill="none" stroke="black" stroke-width="3.55" d="M673.01,-399.63C715.45,-399.63 768.63,-399.63 819.27,-399.63"/>
<polygon fill="black" stroke="black" stroke-width="3.55" points="819.37,-403.13 829.37,-399.63 819.37,-396.13 819.37,-403.13"/>
<text text-anchor="middle" x="746.14" y="-388.43" font-family="Times,serif" font-size="14.00">sand&#45;casting*60240</text>
</g>
<!-- &#45;8,&#45;3 (Duralumin) -->
<g id="node3" class="node">
<title>&#45;8,&#45;3 (Duralumin)</title>
<ellipse fill="none" stroke="black" cx="867.38" cy="-689.26" rx="90.18" ry="18"/>
<text text-anchor="middle" x="867.38" y="-685.56" font-family="Times,serif" font-size="14.00">&#45;8,&#45;3 (Duralumin)</text>
</g>
<!-- 5,8 (Ulric Food)&#45;&gt;&#45;8,&#45;3 (Duralumin) -->
<g id="edge2" class="edge">
<title>5,8 (Ulric Food)&#45;&gt;&#45;8,&#45;3 (Duralumin)</title>
<path fill="none" stroke="black" stroke-width="0.61" d="M606.3,-417.31C653.81,-466.79 788.23,-606.81 843.35,-664.23"/>
<polygon fill="black" stroke="black" stroke-width="0.61" points="840.83,-666.65 850.28,-671.44 845.88,-661.81 840.83,-666.65"/>
<text text-anchor="middle" x="653.83" y="-544.57" font-family="Times,serif" font-size="14.00">sand&#45;casting*10280</text>
</g>
<!-- &#45;1,10 (Iron Plates) -->
<g id="node4" class="node">
<title>&#45;1,10 (Iron Plates)</title>
<ellipse fill="none" stroke="black" cx="639.12" cy="-798.03" rx="94.78" ry="18"/>
<text text-anchor="middle" x="639.12" y="-794.33" font-family="Times,serif" font-size="14.00">&#45;1,10 (Iron Plates)</text>
</g>
<!-- 5,8 (Ulric Food)&#45;&gt;&#45;1,10 (Iron Plates) -->
<g id="edge3" class="edge">
<title>5,8 (Ulric Food)&#45;&gt;&#45;1,10 (Iron Plates)</title>
<path fill="none" stroke="black" stroke-width="1.77" d="M591.6,-417.78C599.5,-481.04 625.88,-692.11 635.54,-769.37"/>
<polygon fill="black" stroke="black" stroke-width="1.77" points="632.12,-770.28 636.84,-779.77 639.07,-769.41 632.12,-770.28"/>
<text text-anchor="middle" x="542.57" y="-597.38" font-family="Times,serif" font-size="14.00">sand&#45;casting*30040</text>
</g>
<!-- 2,&#45;2 (Tin Plate, Organic Solvent) -->
<g id="node5" class="node">
<title>2,&#45;2 (Tin Plate, Organic Solvent)</title>
<ellipse fill="none" stroke="black" cx="333.89" cy="-709.4" rx="159.77" ry="18"/>
<text text-anchor="middle" x="333.89" y="-705.7" font-family="Times,serif" font-size="14.00">2,&#45;2 (Tin Plate, Organic Solvent)</text>
</g>
<!-- 5,8 (Ulric Food)&#45;&gt;2,&#45;2 (Tin Plate, Organic Solvent) -->
<g id="edge4" class="edge">
<title>5,8 (Ulric Food)&#45;&gt;2,&#45;2 (Tin Plate, Organic Solvent)</title>
<path fill="none" stroke="black" stroke-width="0.12" d="M574.49,-417.62C531.37,-469.91 405.95,-622.01 355.39,-683.33"/>
<polygon fill="black" stroke="black" stroke-width="0.12" points="352.43,-681.41 348.77,-691.36 357.83,-685.87 352.43,-681.41"/>
<text text-anchor="middle" x="398.44" y="-554.27" font-family="Times,serif" font-size="14.00">sand&#45;casting*2000</text>
</g>
<!-- 4,3 (item=nexelit&#45;plate Nexelit platery) -->
<g id="node6" class="node">
<title>4,3 (item=nexelit&#45;plate Nexelit platery)</title>
<ellipse fill="none" stroke="black" cx="194.33" cy="-327.62" rx="194.17" ry="18"/>
<text text-anchor="middle" x="194.33" y="-323.92" font-family="Times,serif" font-size="14.00">4,3 (item=nexelit&#45;plate Nexelit platery)</text>
</g>
<!-- 5,8 (Ulric Food)&#45;&gt;4,3 (item=nexelit&#45;plate Nexelit platery) -->
<g id="edge5" class="edge">
<title>5,8 (Ulric Food)&#45;&gt;4,3 (item=nexelit&#45;plate Nexelit platery)</title>
<path fill="none" stroke="black" stroke-width="0.24" d="M525.43,-387.98C462.45,-376.5 365.35,-358.8 292.56,-345.53"/>
<polygon fill="black" stroke="black" stroke-width="0.24" points="292.93,-342.04 282.46,-343.69 291.67,-348.92 292.93,-342.04"/>
<text text-anchor="middle" x="342.49" y="-370.55" font-family="Times,serif" font-size="14.00">sand&#45;casting*4080</text>
</g>
<!-- 2,10 (Nickel plate and Nichrome) -->
<g id="node7" class="node">
<title>2,10 (Nickel plate and Nichrome)</title>
<ellipse fill="none" stroke="black" cx="464.56" cy="-18" rx="165.17" ry="18"/>
<text text-anchor="middle" x="464.56" y="-14.3" font-family="Times,serif" font-size="14.00">2,10 (Nickel plate and Nichrome)</text>
</g>
<!-- 5,8 (Ulric Food)&#45;&gt;2,10 (Nickel plate and Nichrome) -->
<g id="edge6" class="edge">
<title>5,8 (Ulric Food)&#45;&gt;2,10 (Nickel plate and Nichrome)</title>
<path fill="none" stroke="black" stroke-width="0.24" d="M583.39,-381.48C563.32,-320.08 497.86,-119.86 473.66,-45.84"/>
<polygon fill="black" stroke="black" stroke-width="0.24" points="476.97,-44.68 470.53,-36.26 470.31,-46.85 476.97,-44.68"/>
<text text-anchor="middle" x="462.03" y="-217.46" font-family="Times,serif" font-size="14.00">sand&#45;casting*4040</text>
</g>
<!-- 3,9 (Copper, molten &amp; plate) -->
<g id="node8" class="node">
<title>3,9 (Copper, molten &amp; plate)</title>
<ellipse fill="none" stroke="black" cx="826.61" cy="-75.74" rx="143.77" ry="18"/>
<text text-anchor="middle" x="826.61" y="-72.04" font-family="Times,serif" font-size="14.00">3,9 (Copper, molten &amp; plate)</text>
</g>
<!-- 5,8 (Ulric Food)&#45;&gt;3,9 (Copper, molten &amp; plate) -->
<g id="edge7" class="edge">
<title>5,8 (Ulric Food)&#45;&gt;3,9 (Copper, molten &amp; plate)</title>
<path fill="none" stroke="black" stroke-width="0.48" d="M602.42,-381.75C641.95,-327.79 760.22,-166.35 807.13,-102.32"/>
<polygon fill="black" stroke="black" stroke-width="0.48" points="810.17,-104.09 813.26,-93.96 804.52,-99.96 810.17,-104.09"/>
<text text-anchor="middle" x="638.28" y="-245.84" font-family="Times,serif" font-size="14.00">sand&#45;casting*8080</text>
</g>
</g>
</svg>
