<?xml version="1.0" encoding="UTF-8" standalone="no"?>
<!DOCTYPE svg PUBLIC "-//W3C//DTD SVG 1.1//EN"
 "http://www.w3.org/Graphics/SVG/1.1/DTD/svg11.dtd">
<!-- Generated by graphviz version 2.43.0 (0)
 -->
<!-- Title: %3 Pages: 1 -->
<svg width="1905pt" height="1497pt"
 viewBox="0.00 0.00 1905.41 1496.50" xmlns="http://www.w3.org/2000/svg" xmlns:xlink="http://www.w3.org/1999/xlink">
<g id="graph0" class="graph" transform="scale(1 1) rotate(0) translate(4 1492.5)">
<title>%3</title>
<polygon fill="white" stroke="transparent" points="-4,4 -4,-1492.5 1901.41,-1492.5 1901.41,4 -4,4"/>
<!-- &#45;4,&#45;11 (Molten ironer) -->
<g id="node1" class="node">
<title>&#45;4,&#45;11 (Molten ironer)</title>
<ellipse fill="none" stroke="black" cx="183" cy="-1067.47" rx="110.48" ry="18"/>
<text text-anchor="middle" x="183" y="-1063.77" font-family="Times,serif" font-size="14.00">&#45;4,&#45;11 (Molten ironer)</text>
</g>
<!-- &#45;1,11 (Steel Plate (from molten)) -->
<g id="node2" class="node">
<title>&#45;1,11 (Steel Plate (from molten))</title>
<ellipse fill="none" stroke="black" cx="183" cy="-421.04" rx="161.37" ry="18"/>
<text text-anchor="middle" x="183" y="-417.34" font-family="Times,serif" font-size="14.00">&#45;1,11 (Steel Plate (from molten))</text>
</g>
<!-- &#45;4,&#45;11 (Molten ironer)&#45;&gt;&#45;1,11 (Steel Plate (from molten)) -->
<g id="edge1" class="edge">
<title>&#45;4,&#45;11 (Molten ironer)&#45;&gt;&#45;1,11 (Steel Plate (from molten))</title>
<path fill="none" stroke="black" stroke-width="4.01" d="M183,-1049.16C183,-958.69 183,-559.24 183,-449.19"/>
<polygon fill="black" stroke="black" stroke-width="4.01" points="186.51,-449.19 183,-439.19 179.49,-449.19 186.51,-449.19"/>
<text text-anchor="middle" x="91.5" y="-752.98" font-family="Times,serif" font-size="14.00">molten&#45;iron&#45;barrel*59272</text>
</g>
<!-- 3,12 (reserved &#45; Candle, reserved &#45; Candle, reserved &#45; Candle) -->
<g id="node4" class="node">
<title>3,12 (reserved &#45; Candle, reserved &#45; Candle, reserved &#45; Candle)</title>
<ellipse fill="none" stroke="black" cx="1599.09" cy="-744.25" rx="298.15" ry="18"/>
<text text-anchor="middle" x="1599.09" y="-740.55" font-family="Times,serif" font-size="14.00">3,12 (reserved &#45; Candle, reserved &#45; Candle, reserved &#45; Candle)</text>
</g>
<!-- &#45;4,&#45;11 (Molten ironer)&#45;&gt;3,12 (reserved &#45; Candle, reserved &#45; Candle, reserved &#45; Candle) -->
<g id="edge5" class="edge">
<title>&#45;4,&#45;11 (Molten ironer)&#45;&gt;3,12 (reserved &#45; Candle, reserved &#45; Candle, reserved &#45; Candle)</title>
<path fill="none" stroke="black" stroke-width="0.1" d="M247.53,-1052.74C476.83,-1000.4 1252.55,-823.35 1513,-763.9"/>
<polygon fill="black" stroke="black" stroke-width="0.1" points="1513.82,-767.31 1522.79,-761.67 1512.26,-760.48 1513.82,-767.31"/>
<text text-anchor="middle" x="793.26" y="-912.12" font-family="Times,serif" font-size="14.00">molten&#45;iron&#45;barrel*1536</text>
</g>
<!-- 6,3 (Things from molten) -->
<g id="node6" class="node">
<title>6,3 (Things from molten)</title>
<ellipse fill="none" stroke="black" cx="1318.61" cy="-161.84" rx="126.18" ry="18"/>
<text text-anchor="middle" x="1318.61" y="-158.14" font-family="Times,serif" font-size="14.00">6,3 (Things from molten)</text>
</g>
<!-- &#45;4,&#45;11 (Molten ironer)&#45;&gt;6,3 (Things from molten) -->
<g id="edge9" class="edge">
<title>&#45;4,&#45;11 (Molten ironer)&#45;&gt;6,3 (Things from molten)</title>
<path fill="none" stroke="black" stroke-width="0.07" d="M205.18,-1049.78C346.77,-936.86 1123.73,-317.26 1288.07,-186.2"/>
<polygon fill="black" stroke="black" stroke-width="0.07" points="1290.66,-188.61 1296.3,-179.64 1286.3,-183.14 1290.66,-188.61"/>
<text text-anchor="middle" x="659.62" y="-621.79" font-family="Times,serif" font-size="14.00">molten&#45;iron&#45;barrel*1016</text>
</g>
<!-- 2,1 (Niobium plates) -->
<g id="node7" class="node">
<title>2,1 (Niobium plates)</title>
<ellipse fill="none" stroke="black" cx="688.4" cy="-1470.5" rx="105.88" ry="18"/>
<text text-anchor="middle" x="688.4" y="-1466.8" font-family="Times,serif" font-size="14.00">2,1 (Niobium plates)</text>
</g>
<!-- &#45;4,&#45;11 (Molten ironer)&#45;&gt;2,1 (Niobium plates) -->
<g id="edge10" class="edge">
<title>&#45;4,&#45;11 (Molten ironer)&#45;&gt;2,1 (Niobium plates)</title>
<path fill="none" stroke="black" stroke-width="0.05" d="M205.37,-1085.3C286.59,-1150.08 566,-1372.9 658.44,-1446.61"/>
<polygon fill="black" stroke="black" stroke-width="0.05" points="656.29,-1449.37 666.29,-1452.87 660.65,-1443.9 656.29,-1449.37"/>
<text text-anchor="middle" x="349.4" y="-1269.76" font-family="Times,serif" font-size="14.00">molten&#45;iron&#45;barrel*736</text>
</g>
<!-- &#45;5,8 (Moar Molten Iron) -->
<g id="node3" class="node">
<title>&#45;5,8 (Moar Molten Iron)</title>
<ellipse fill="none" stroke="black" cx="688.4" cy="-18" rx="120.48" ry="18"/>
<text text-anchor="middle" x="688.4" y="-14.3" font-family="Times,serif" font-size="14.00">&#45;5,8 (Moar Molten Iron)</text>
</g>
<!-- &#45;5,8 (Moar Molten Iron)&#45;&gt;&#45;1,11 (Steel Plate (from molten)) -->
<g id="edge3" class="edge">
<title>&#45;5,8 (Moar Molten Iron)&#45;&gt;&#45;1,11 (Steel Plate (from molten))</title>
<path fill="none" stroke="black" stroke-width="1.89" d="M666.03,-35.84C584.9,-100.54 306.03,-322.92 213.28,-396.9"/>
<polygon fill="black" stroke="black" stroke-width="1.89" points="211.03,-394.21 205.4,-403.18 215.4,-399.68 211.03,-394.21"/>
<text text-anchor="middle" x="348.15" y="-220.17" font-family="Times,serif" font-size="14.00">molten&#45;iron&#45;barrel*27896</text>
</g>
<!-- &#45;5,8 (Moar Molten Iron)&#45;&gt;3,12 (reserved &#45; Candle, reserved &#45; Candle, reserved &#45; Candle) -->
<g id="edge2" class="edge">
<title>&#45;5,8 (Moar Molten Iron)&#45;&gt;3,12 (reserved &#45; Candle, reserved &#45; Candle, reserved &#45; Candle)</title>
<path fill="none" stroke="black" stroke-width="0.17" d="M710.91,-35.95C834.17,-134.25 1426.95,-606.98 1568.63,-719.96"/>
<polygon fill="black" stroke="black" stroke-width="0.17" points="1566.55,-722.78 1576.55,-726.28 1570.91,-717.31 1566.55,-722.78"/>
<text text-anchor="middle" x="1052.77" y="-381.76" font-family="Times,serif" font-size="14.00">molten&#45;iron&#45;barrel*2560</text>
</g>
<!-- &#45;5,8 (Moar Molten Iron)&#45;&gt;6,3 (Things from molten) -->
<g id="edge6" class="edge">
<title>&#45;5,8 (Moar Molten Iron)&#45;&gt;6,3 (Things from molten)</title>
<path fill="none" stroke="black" stroke-width="0.07" d="M754.35,-33.05C871.75,-59.85 1116.34,-115.68 1241.38,-144.22"/>
<polygon fill="black" stroke="black" stroke-width="0.07" points="1240.75,-147.66 1251.28,-146.47 1242.31,-140.84 1240.75,-147.66"/>
<text text-anchor="middle" x="910.87" y="-92.44" font-family="Times,serif" font-size="14.00">molten&#45;iron&#45;barrel*1024</text>
</g>
<!-- &#45;5,8 (Moar Molten Iron)&#45;&gt;2,1 (Niobium plates) -->
<g id="edge8" class="edge">
<title>&#45;5,8 (Moar Molten Iron)&#45;&gt;2,1 (Niobium plates)</title>
<path fill="none" stroke="black" stroke-width="0.1" d="M688.4,-36.1C688.4,-188.24 688.4,-1252.64 688.4,-1441.79"/>
<polygon fill="black" stroke="black" stroke-width="0.1" points="684.9,-1442.04 688.4,-1452.04 691.9,-1442.04 684.9,-1442.04"/>
<text text-anchor="middle" x="601.4" y="-742.75" font-family="Times,serif" font-size="14.00">molten&#45;iron&#45;barrel*1544</text>
</g>
<!-- 1,12 (Molten Iron) -->
<g id="node5" class="node">
<title>1,12 (Molten Iron)</title>
<ellipse fill="none" stroke="black" cx="1318.61" cy="-1326.66" rx="95.58" ry="18"/>
<text text-anchor="middle" x="1318.61" y="-1322.96" font-family="Times,serif" font-size="14.00">1,12 (Molten Iron)</text>
</g>
<!-- 1,12 (Molten Iron)&#45;&gt;&#45;1,11 (Steel Plate (from molten)) -->
<g id="edge4" class="edge">
<title>1,12 (Molten Iron)&#45;&gt;&#45;1,11 (Steel Plate (from molten))</title>
<path fill="none" stroke="black" stroke-width="4.46" d="M1296.44,-1308.98C1154.99,-1196.18 379.56,-577.79 214.08,-445.82"/>
<polygon fill="black" stroke="black" stroke-width="4.46" points="216.04,-442.39 205.79,-439.21 211.17,-448.5 216.04,-442.39"/>
<text text-anchor="middle" x="663.76" y="-881.2" font-family="Times,serif" font-size="14.00">molten&#45;iron&#45;barrel*66008</text>
</g>
<!-- 1,12 (Molten Iron)&#45;&gt;3,12 (reserved &#45; Candle, reserved &#45; Candle, reserved &#45; Candle) -->
<g id="edge11" class="edge">
<title>1,12 (Molten Iron)&#45;&gt;3,12 (reserved &#45; Candle, reserved &#45; Candle, reserved &#45; Candle)</title>
<path fill="none" stroke="black" stroke-width="0.03" d="M1327.32,-1308.59C1367.72,-1224.7 1537.1,-872.98 1585.89,-771.67"/>
<polygon fill="black" stroke="black" stroke-width="0.03" points="1589.16,-772.93 1590.35,-762.4 1582.86,-769.89 1589.16,-772.93"/>
<text text-anchor="middle" x="1374.1" y="-1043.93" font-family="Times,serif" font-size="14.00">molten&#45;iron&#45;barrel*512</text>
</g>
<!-- 1,12 (Molten Iron)&#45;&gt;2,1 (Niobium plates) -->
<g id="edge7" class="edge">
<title>1,12 (Molten Iron)&#45;&gt;2,1 (Niobium plates)</title>
<path fill="none" stroke="black" stroke-width="0.04" d="M1257.61,-1340.58C1141.07,-1367.19 887.2,-1425.13 761.68,-1453.78"/>
<polygon fill="black" stroke="black" stroke-width="0.04" points="760.74,-1450.4 751.77,-1456.04 762.29,-1457.23 760.74,-1450.4"/>
<text text-anchor="middle" x="927.14" y="-1400.98" font-family="Times,serif" font-size="14.00">molten&#45;iron&#45;barrel*584</text>
</g>
</g>
</svg>
