<?xml version="1.0" encoding="UTF-8" standalone="no"?>
<!DOCTYPE svg PUBLIC "-//W3C//DTD SVG 1.1//EN"
 "http://www.w3.org/Graphics/SVG/1.1/DTD/svg11.dtd">
<!-- Generated by graphviz version 2.43.0 (0)
 -->
<!-- Title: %3 Pages: 1 -->
<svg width="818pt" height="654pt"
 viewBox="0.00 0.00 818.37 654.08" xmlns="http://www.w3.org/2000/svg" xmlns:xlink="http://www.w3.org/1999/xlink">
<g id="graph0" class="graph" transform="scale(1 1) rotate(0) translate(4 650.08)">
<title>%3</title>
<polygon fill="white" stroke="transparent" points="-4,4 -4,-650.08 814.37,-650.08 814.37,4 -4,4"/>
<!-- &#45;7,&#45;2 (Uranium Processing) -->
<g id="node1" class="node">
<title>&#45;7,&#45;2 (Uranium Processing)</title>
<ellipse fill="none" stroke="black" cx="352.3" cy="-341.41" rx="135.68" ry="18"/>
<text text-anchor="middle" x="352.3" y="-337.71" font-family="Times,serif" font-size="14.00">&#45;7,&#45;2 (Uranium Processing)</text>
</g>
<!-- 8,&#45;8 (Moar bhoddos) -->
<g id="node2" class="node">
<title>8,&#45;8 (Moar bhoddos)</title>
<ellipse fill="none" stroke="black" cx="705.73" cy="-341.41" rx="104.78" ry="18"/>
<text text-anchor="middle" x="705.73" y="-337.71" font-family="Times,serif" font-size="14.00">8,&#45;8 (Moar bhoddos)</text>
</g>
<!-- &#45;7,&#45;2 (Uranium Processing)&#45;&gt;8,&#45;8 (Moar bhoddos) -->
<g id="edge1" class="edge">
<title>&#45;7,&#45;2 (Uranium Processing)&#45;&gt;8,&#45;8 (Moar bhoddos)</title>
<path fill="none" stroke="black" stroke-width="0.84" d="M488.19,-341.41C522.13,-341.41 558.2,-341.41 591,-341.41"/>
<polygon fill="black" stroke="black" stroke-width="0.84" points="591.07,-344.91 601.07,-341.41 591.07,-337.91 591.07,-344.91"/>
<text text-anchor="middle" x="539.59" y="-330.21" font-family="Times,serif" font-size="14.00">fuelrod&#45;mk01*9072</text>
</g>
<!-- 7,0 (item=bhoddos Bhoddos) -->
<g id="node3" class="node">
<title>7,0 (item=bhoddos Bhoddos)</title>
<ellipse fill="none" stroke="black" cx="145.59" cy="-628.08" rx="145.67" ry="18"/>
<text text-anchor="middle" x="145.59" y="-624.38" font-family="Times,serif" font-size="14.00">7,0 (item=bhoddos Bhoddos)</text>
</g>
<!-- &#45;7,&#45;2 (Uranium Processing)&#45;&gt;7,0 (item=bhoddos Bhoddos) -->
<g id="edge2" class="edge">
<title>&#45;7,&#45;2 (Uranium Processing)&#45;&gt;7,0 (item=bhoddos Bhoddos)</title>
<path fill="none" stroke="black" stroke-width="0.84" d="M339.37,-359.34C304.14,-408.19 206.34,-543.82 164.73,-601.53"/>
<polygon fill="black" stroke="black" stroke-width="0.84" points="161.79,-599.63 158.78,-609.78 167.47,-603.72 161.79,-599.63"/>
<text text-anchor="middle" x="182.55" y="-484.24" font-family="Times,serif" font-size="14.00">fuelrod&#45;mk01*9136</text>
</g>
<!-- 0,0 (LE BUS) -->
<g id="node4" class="node">
<title>0,0 (LE BUS)</title>
<ellipse fill="none" stroke="black" cx="209.77" cy="-18" rx="71.49" ry="18"/>
<text text-anchor="middle" x="209.77" y="-14.3" font-family="Times,serif" font-size="14.00">0,0 (LE BUS)</text>
</g>
<!-- &#45;7,&#45;2 (Uranium Processing)&#45;&gt;0,0 (LE BUS) -->
<g id="edge3" class="edge">
<title>&#45;7,&#45;2 (Uranium Processing)&#45;&gt;0,0 (LE BUS)</title>
<path fill="none" stroke="black" stroke-width="1.32" d="M344.23,-323.1C320.42,-269.06 250.35,-110.07 221.94,-45.62"/>
<polygon fill="black" stroke="black" stroke-width="1.32" points="224.99,-43.85 217.75,-36.11 218.58,-46.68 224.99,-43.85"/>
<text text-anchor="middle" x="209.09" y="-188.16" font-family="Times,serif" font-size="14.00">fuelrod&#45;mk01*14368</text>
</g>
</g>
</svg>
