<?xml version="1.0" encoding="UTF-8" standalone="no"?>
<!DOCTYPE svg PUBLIC "-//W3C//DTD SVG 1.1//EN"
 "http://www.w3.org/Graphics/SVG/1.1/DTD/svg11.dtd">
<!-- Generated by graphviz version 2.43.0 (0)
 -->
<!-- Title: %3 Pages: 1 -->
<svg width="970pt" height="631pt"
 viewBox="0.00 0.00 969.73 630.54" xmlns="http://www.w3.org/2000/svg" xmlns:xlink="http://www.w3.org/1999/xlink">
<g id="graph0" class="graph" transform="scale(1 1) rotate(0) translate(4 626.54)">
<title>%3</title>
<polygon fill="white" stroke="transparent" points="-4,4 -4,-626.54 965.73,-626.54 965.73,4 -4,4"/>
<!-- 0,0 (LE BUS) -->
<g id="node1" class="node">
<title>0,0 (LE BUS)</title>
<ellipse fill="none" stroke="black" cx="71.49" cy="-311.27" rx="71.49" ry="18"/>
<text text-anchor="middle" x="71.49" y="-307.57" font-family="Times,serif" font-size="14.00">0,0 (LE BUS)</text>
</g>
<!-- 4,&#45;1 (Fluid) -->
<g id="node2" class="node">
<title>4,&#45;1 (Fluid)</title>
<ellipse fill="none" stroke="black" cx="364.76" cy="-604.54" rx="61.99" ry="18"/>
<text text-anchor="middle" x="364.76" y="-600.84" font-family="Times,serif" font-size="14.00">4,&#45;1 (Fluid)</text>
</g>
<!-- 0,0 (LE BUS)&#45;&gt;4,&#45;1 (Fluid) -->
<g id="edge1" class="edge">
<title>0,0 (LE BUS)&#45;&gt;4,&#45;1 (Fluid)</title>
<path fill="none" stroke="black" stroke-width="0.13" d="M88.96,-328.74C138.88,-378.66 282.28,-522.06 340.13,-579.9"/>
<polygon fill="black" stroke="black" stroke-width="0.13" points="337.84,-582.57 347.39,-587.16 342.79,-577.62 337.84,-582.57"/>
<text text-anchor="middle" x="148.04" y="-458.12" font-family="Times,serif" font-size="14.00">nexelit&#45;plate*2048</text>
</g>
<!-- 2,7 (Mystery petrochemicals) -->
<g id="node4" class="node">
<title>2,7 (Mystery petrochemicals)</title>
<ellipse fill="none" stroke="black" cx="364.76" cy="-18" rx="147.57" ry="18"/>
<text text-anchor="middle" x="364.76" y="-14.3" font-family="Times,serif" font-size="14.00">2,7 (Mystery petrochemicals)</text>
</g>
<!-- 0,0 (LE BUS)&#45;&gt;2,7 (Mystery petrochemicals) -->
<g id="edge3" class="edge">
<title>0,0 (LE BUS)&#45;&gt;2,7 (Mystery petrochemicals)</title>
<path fill="none" stroke="black" stroke-width="0.1" d="M88.96,-293.8C138.64,-244.12 280.93,-101.84 339.3,-43.46"/>
<polygon fill="black" stroke="black" stroke-width="0.1" points="342.05,-45.67 346.64,-36.12 337.1,-40.72 342.05,-45.67"/>
<text text-anchor="middle" x="147.63" y="-172.43" font-family="Times,serif" font-size="14.00">nexelit&#45;plate*1480</text>
</g>
<!-- 4,3 (item=nexelit&#45;plate Nexelit platery) -->
<g id="node3" class="node">
<title>4,3 (item=nexelit&#45;plate Nexelit platery)</title>
<ellipse fill="none" stroke="black" cx="658.03" cy="-311.27" rx="194.17" ry="18"/>
<text text-anchor="middle" x="658.03" y="-307.57" font-family="Times,serif" font-size="14.00">4,3 (item=nexelit&#45;plate Nexelit platery)</text>
</g>
<!-- 4,3 (item=nexelit&#45;plate Nexelit platery)&#45;&gt;0,0 (LE BUS) -->
<g id="edge4" class="edge">
<title>4,3 (item=nexelit&#45;plate Nexelit platery)&#45;&gt;0,0 (LE BUS)</title>
<path fill="none" stroke="black" stroke-width="1.14" d="M463.54,-311.27C358.01,-311.27 233.15,-311.27 153.18,-311.27"/>
<polygon fill="black" stroke="black" stroke-width="1.14" points="153.17,-307.77 143.17,-311.27 153.17,-314.77 153.17,-307.77"/>
<text text-anchor="middle" x="237.36" y="-315.07" font-family="Times,serif" font-size="14.00">nexelit&#45;plate*17344</text>
</g>
<!-- 4,3 (item=nexelit&#45;plate Nexelit platery)&#45;&gt;4,&#45;1 (Fluid) -->
<g id="edge5" class="edge">
<title>4,3 (item=nexelit&#45;plate Nexelit platery)&#45;&gt;4,&#45;1 (Fluid)</title>
<path fill="none" stroke="black" stroke-width="1.49" d="M639.69,-329.61C589.04,-380.26 447.23,-522.07 389.59,-579.71"/>
<polygon fill="black" stroke="black" stroke-width="1.49" points="386.95,-577.4 382.36,-586.94 391.9,-582.35 386.95,-577.4"/>
<text text-anchor="middle" x="443.64" y="-458.46" font-family="Times,serif" font-size="14.00">nexelit&#45;plate*22689</text>
</g>
<!-- 4,3 (item=nexelit&#45;plate Nexelit platery)&#45;&gt;2,7 (Mystery petrochemicals) -->
<g id="edge2" class="edge">
<title>4,3 (item=nexelit&#45;plate Nexelit platery)&#45;&gt;2,7 (Mystery petrochemicals)</title>
<path fill="none" stroke="black" stroke-width="2.52" d="M639.69,-292.92C589.16,-242.4 447.91,-101.14 390.01,-43.24"/>
<polygon fill="black" stroke="black" stroke-width="2.52" points="392.27,-40.56 382.73,-35.96 387.32,-45.51 392.27,-40.56"/>
<text text-anchor="middle" x="443.85" y="-171.88" font-family="Times,serif" font-size="14.00">nexelit&#45;plate*38323</text>
</g>
<!-- &#45;4,&#45;2 (For Science!) -->
<g id="node5" class="node">
<title>&#45;4,&#45;2 (For Science!)</title>
<ellipse fill="none" stroke="black" cx="828.82" cy="-311.27" rx="98.58" ry="18"/>
<text text-anchor="middle" x="828.82" y="-307.57" font-family="Times,serif" font-size="14.00">&#45;4,&#45;2 (For Science!)</text>
</g>
<!-- 4,3 (item=nexelit&#45;plate Nexelit platery)&#45;&gt;&#45;4,&#45;2 (For Science!) -->
<g id="edge6" class="edge">
<title>4,3 (item=nexelit&#45;plate Nexelit platery)&#45;&gt;&#45;4,&#45;2 (For Science!)</title>
<path fill="none" stroke="black" stroke-width="0.62" d="M828.7,-311.27C828.72,-311.27 828.74,-311.27 828.75,-311.27"/>
<polygon fill="black" stroke="black" stroke-width="0.62" points="818.8,-314.79 828.79,-311.27 818.78,-307.79 818.8,-314.79"/>
<text text-anchor="middle" x="895.23" y="-315.07" font-family="Times,serif" font-size="14.00">nexelit&#45;plate*9408</text>
</g>
</g>
</svg>
