<?xml version="1.0" encoding="UTF-8" standalone="no"?>
<!DOCTYPE svg PUBLIC "-//W3C//DTD SVG 1.1//EN"
 "http://www.w3.org/Graphics/SVG/1.1/DTD/svg11.dtd">
<!-- Generated by graphviz version 2.43.0 (0)
 -->
<!-- Title: %3 Pages: 1 -->
<svg width="1493pt" height="44pt"
 viewBox="0.00 0.00 1493.48 44.00" xmlns="http://www.w3.org/2000/svg" xmlns:xlink="http://www.w3.org/1999/xlink">
<g id="graph0" class="graph" transform="scale(1 1) rotate(0) translate(4 40)">
<title>%3</title>
<polygon fill="white" stroke="transparent" points="-4,4 -4,-40 1489.48,-40 1489.48,4 -4,4"/>
<!-- 0,0 (LE BUS) -->
<g id="node1" class="node">
<title>0,0 (LE BUS)</title>
<ellipse fill="none" stroke="black" cx="809.03" cy="-18" rx="71.49" ry="18"/>
<text text-anchor="middle" x="809.03" y="-14.3" font-family="Times,serif" font-size="14.00">0,0 (LE BUS)</text>
</g>
<!-- 3,6 (Phosphoric Acid and Phosphine gas) -->
<g id="node2" class="node">
<title>3,6 (Phosphoric Acid and Phosphine gas)</title>
<ellipse fill="none" stroke="black" cx="1285.3" cy="-18" rx="200.36" ry="18"/>
<text text-anchor="middle" x="1285.3" y="-14.3" font-family="Times,serif" font-size="14.00">3,6 (Phosphoric Acid and Phosphine gas)</text>
</g>
<!-- 0,0 (LE BUS)&#45;&gt;3,6 (Phosphoric Acid and Phosphine gas) -->
<g id="edge1" class="edge">
<title>0,0 (LE BUS)&#45;&gt;3,6 (Phosphoric Acid and Phosphine gas)</title>
<path fill="none" stroke="black" stroke-width="1.03" d="M880.59,-18C932.32,-18 1005.06,-18 1074.63,-18"/>
<polygon fill="black" stroke="black" stroke-width="1.03" points="1074.87,-21.5 1084.87,-18 1074.87,-14.5 1074.87,-21.5"/>
<text text-anchor="middle" x="977.61" y="-6.8" font-family="Times,serif" font-size="14.00">phosphate&#45;rock*88186</text>
</g>
<!-- &#45;6,&#45;8 (Convenient tin ore , fluid=z3&#45;reagent Help, how do I make Z3?) -->
<g id="node3" class="node">
<title>&#45;6,&#45;8 (Convenient tin ore , fluid=z3&#45;reagent Help, how do I make Z3?)</title>
<ellipse fill="none" stroke="black" cx="332.77" cy="-18" rx="332.54" ry="18"/>
<text text-anchor="middle" x="332.77" y="-14.3" font-family="Times,serif" font-size="14.00">&#45;6,&#45;8 (Convenient tin ore , fluid=z3&#45;reagent Help, how do I make Z3?)</text>
</g>
<!-- 0,0 (LE BUS)&#45;&gt;&#45;6,&#45;8 (Convenient tin ore , fluid=z3&#45;reagent Help, how do I make Z3?) -->
<g id="edge2" class="edge">
<title>0,0 (LE BUS)&#45;&gt;&#45;6,&#45;8 (Convenient tin ore , fluid=z3&#45;reagent Help, how do I make Z3?)</title>
<path fill="none" stroke="black" stroke-width="0.97" d="M737.48,-18C719.15,-18 698.19,-18 675.67,-18"/>
<polygon fill="black" stroke="black" stroke-width="0.97" points="675.58,-14.5 665.58,-18 675.58,-21.5 675.58,-14.5"/>
<text text-anchor="middle" x="666.07" y="-6.8" font-family="Times,serif" font-size="14.00">phosphate&#45;rock*83385</text>
</g>
</g>
</svg>
