<?xml version="1.0" encoding="UTF-8" standalone="no"?>
<!DOCTYPE svg PUBLIC "-//W3C//DTD SVG 1.1//EN"
 "http://www.w3.org/Graphics/SVG/1.1/DTD/svg11.dtd">
<!-- Generated by graphviz version 2.43.0 (0)
 -->
<!-- Title: %3 Pages: 1 -->
<svg width="2091pt" height="44pt"
 viewBox="0.00 0.00 2090.89 44.00" xmlns="http://www.w3.org/2000/svg" xmlns:xlink="http://www.w3.org/1999/xlink">
<g id="graph0" class="graph" transform="scale(1 1) rotate(0) translate(4 40)">
<title>%3</title>
<polygon fill="white" stroke="transparent" points="-4,4 -4,-40 2086.89,-40 2086.89,4 -4,4"/>
<!-- &#45;7,&#45;2 (Uranium Processing) -->
<g id="node1" class="node">
<title>&#45;7,&#45;2 (Uranium Processing)</title>
<ellipse fill="none" stroke="black" cx="811.24" cy="-18" rx="135.68" ry="18"/>
<text text-anchor="middle" x="811.24" y="-14.3" font-family="Times,serif" font-size="14.00">&#45;7,&#45;2 (Uranium Processing)</text>
</g>
<!-- 5,&#45;1 (Drilling Fluid Type 2, I think my maths is backwards) -->
<g id="node2" class="node">
<title>5,&#45;1 (Drilling Fluid Type 2, I think my maths is backwards)</title>
<ellipse fill="none" stroke="black" cx="1301.15" cy="-18" rx="282.15" ry="18"/>
<text text-anchor="middle" x="1301.15" y="-14.3" font-family="Times,serif" font-size="14.00">5,&#45;1 (Drilling Fluid Type 2, I think my maths is backwards)</text>
</g>
<!-- &#45;7,&#45;2 (Uranium Processing)&#45;&gt;5,&#45;1 (Drilling Fluid Type 2, I think my maths is backwards) -->
<g id="edge1" class="edge">
<title>&#45;7,&#45;2 (Uranium Processing)&#45;&gt;5,&#45;1 (Drilling Fluid Type 2, I think my maths is backwards)</title>
<path fill="none" stroke="black" stroke-width="1.11" d="M947.38,-18C966.94,-18 987.65,-18 1008.86,-18"/>
<polygon fill="black" stroke="black" stroke-width="1.11" points="1008.97,-21.5 1018.97,-18 1008.97,-14.5 1008.97,-21.5"/>
<text text-anchor="middle" x="978.12" y="-6.8" font-family="Times,serif" font-size="14.00">sand*27655</text>
</g>
<!-- 0,0 (LE BUS) -->
<g id="node4" class="node">
<title>0,0 (LE BUS)</title>
<ellipse fill="none" stroke="black" cx="71.49" cy="-18" rx="71.49" ry="18"/>
<text text-anchor="middle" x="71.49" y="-14.3" font-family="Times,serif" font-size="14.00">0,0 (LE BUS)</text>
</g>
<!-- &#45;7,&#45;2 (Uranium Processing)&#45;&gt;0,0 (LE BUS) -->
<g id="edge3" class="edge">
<title>&#45;7,&#45;2 (Uranium Processing)&#45;&gt;0,0 (LE BUS)</title>
<path fill="none" stroke="black" stroke-width="0.27" d="M675.13,-18C522.52,-18 279.94,-18 153.79,-18"/>
<polygon fill="black" stroke="black" stroke-width="0.27" points="153.43,-14.5 143.43,-18 153.43,-21.5 153.43,-14.5"/>
<text text-anchor="middle" x="375.96" y="-21.8" font-family="Times,serif" font-size="14.00">sand*6672</text>
</g>
<!-- &#45;3,&#45;3 (Zinc Plates, 32 to consume four belts) -->
<g id="node3" class="node">
<title>&#45;3,&#45;3 (Zinc Plates, 32 to consume four belts)</title>
<ellipse fill="none" stroke="black" cx="1869.06" cy="-18" rx="213.66" ry="18"/>
<text text-anchor="middle" x="1869.06" y="-14.3" font-family="Times,serif" font-size="14.00">&#45;3,&#45;3 (Zinc Plates, 32 to consume four belts)</text>
</g>
<!-- &#45;3,&#45;3 (Zinc Plates, 32 to consume four belts)&#45;&gt;5,&#45;1 (Drilling Fluid Type 2, I think my maths is backwards) -->
<g id="edge2" class="edge">
<title>&#45;3,&#45;3 (Zinc Plates, 32 to consume four belts)&#45;&gt;5,&#45;1 (Drilling Fluid Type 2, I think my maths is backwards)</title>
<path fill="none" stroke="black" stroke-width="1.62" d="M1655.16,-18C1635.03,-18 1614.4,-18 1593.71,-18"/>
<polygon fill="black" stroke="black" stroke-width="1.62" points="1593.55,-14.5 1583.55,-18 1593.55,-21.5 1593.55,-14.5"/>
<text text-anchor="middle" x="1624.44" y="-6.8" font-family="Times,serif" font-size="14.00">sand*40232</text>
</g>
</g>
</svg>
