<?xml version="1.0" encoding="UTF-8" standalone="no"?>
<!DOCTYPE svg PUBLIC "-//W3C//DTD SVG 1.1//EN"
 "http://www.w3.org/Graphics/SVG/1.1/DTD/svg11.dtd">
<!-- Generated by graphviz version 2.43.0 (0)
 -->
<!-- Title: %3 Pages: 1 -->
<svg width="739pt" height="645pt"
 viewBox="0.00 0.00 738.88 644.84" xmlns="http://www.w3.org/2000/svg" xmlns:xlink="http://www.w3.org/1999/xlink">
<g id="graph0" class="graph" transform="scale(1 1) rotate(0) translate(4 640.84)">
<title>%3</title>
<polygon fill="white" stroke="transparent" points="-4,4 -4,-640.84 734.88,-640.84 734.88,4 -4,4"/>
<!-- 2,0 (Sodium Sulfate) -->
<g id="node1" class="node">
<title>2,0 (Sodium Sulfate)</title>
<ellipse fill="none" stroke="black" cx="336.51" cy="-316.11" rx="106.68" ry="18"/>
<text text-anchor="middle" x="336.51" y="-312.41" font-family="Times,serif" font-size="14.00">2,0 (Sodium Sulfate)</text>
</g>
<!-- 1,9 (Ammunition) -->
<g id="node2" class="node">
<title>1,9 (Ammunition)</title>
<ellipse fill="none" stroke="black" cx="639.24" cy="-316.11" rx="91.78" ry="18"/>
<text text-anchor="middle" x="639.24" y="-312.41" font-family="Times,serif" font-size="14.00">1,9 (Ammunition)</text>
</g>
<!-- 2,0 (Sodium Sulfate)&#45;&gt;1,9 (Ammunition) -->
<g id="edge1" class="edge">
<title>2,0 (Sodium Sulfate)&#45;&gt;1,9 (Ammunition)</title>
<path fill="none" stroke="black" stroke-width="1.5" d="M443.24,-316.11C473.83,-316.11 507.09,-316.11 537.38,-316.11"/>
<polygon fill="black" stroke="black" stroke-width="1.5" points="537.53,-319.61 547.52,-316.11 537.52,-312.61 537.53,-319.61"/>
<text text-anchor="middle" x="490.31" y="-304.91" font-family="Times,serif" font-size="14.00">sulfuric&#45;acid&#45;barrel*1424</text>
</g>
<!-- 0,0 (LE BUS) -->
<g id="node3" class="node">
<title>0,0 (LE BUS)</title>
<ellipse fill="none" stroke="black" cx="336.19" cy="-618.84" rx="71.49" ry="18"/>
<text text-anchor="middle" x="336.19" y="-615.14" font-family="Times,serif" font-size="14.00">0,0 (LE BUS)</text>
</g>
<!-- 2,0 (Sodium Sulfate)&#45;&gt;0,0 (LE BUS) -->
<g id="edge2" class="edge">
<title>2,0 (Sodium Sulfate)&#45;&gt;0,0 (LE BUS)</title>
<path fill="none" stroke="black" stroke-width="1.5" d="M336.49,-334.14C336.44,-384.81 336.28,-528.8 336.22,-590.36"/>
<polygon fill="black" stroke="black" stroke-width="1.5" points="332.72,-590.51 336.2,-600.52 339.72,-590.52 332.72,-590.51"/>
<text text-anchor="middle" x="246.85" y="-466.05" font-family="Times,serif" font-size="14.00">sulfuric&#45;acid&#45;barrel*1423</text>
</g>
<!-- &#45;3,6 () -->
<g id="node4" class="node">
<title>&#45;3,6 ()</title>
<ellipse fill="none" stroke="black" cx="38.35" cy="-368.49" rx="38.19" ry="18"/>
<text text-anchor="middle" x="38.35" y="-364.79" font-family="Times,serif" font-size="14.00">&#45;3,6 ()</text>
</g>
<!-- 2,0 (Sodium Sulfate)&#45;&gt;&#45;3,6 () -->
<g id="edge3" class="edge">
<title>2,0 (Sodium Sulfate)&#45;&gt;&#45;3,6 ()</title>
<path fill="none" stroke="black" stroke-width="0.57" d="M262.42,-329.12C206.67,-338.92 131.99,-352.04 84.51,-360.38"/>
<polygon fill="black" stroke="black" stroke-width="0.57" points="83.76,-356.96 74.52,-362.13 84.97,-363.85 83.76,-356.96"/>
<text text-anchor="middle" x="88.47" y="-333.55" font-family="Times,serif" font-size="14.00">sulfuric&#45;acid&#45;barrel*543</text>
</g>
<!-- &#45;2,5 (Rare Earth Oxides) -->
<g id="node5" class="node">
<title>&#45;2,5 (Rare Earth Oxides)</title>
<ellipse fill="none" stroke="black" cx="283.81" cy="-18" rx="124.28" ry="18"/>
<text text-anchor="middle" x="283.81" y="-14.3" font-family="Times,serif" font-size="14.00">&#45;2,5 (Rare Earth Oxides)</text>
</g>
<!-- 2,0 (Sodium Sulfate)&#45;&gt;&#45;2,5 (Rare Earth Oxides) -->
<g id="edge4" class="edge">
<title>2,0 (Sodium Sulfate)&#45;&gt;&#45;2,5 (Rare Earth Oxides)</title>
<path fill="none" stroke="black" stroke-width="0.44" d="M333.29,-297.91C324.42,-247.7 299.54,-106.96 288.82,-46.35"/>
<polygon fill="black" stroke="black" stroke-width="0.44" points="292.24,-45.58 287.05,-36.34 285.35,-46.8 292.24,-45.58"/>
<text text-anchor="middle" x="226.06" y="-175.93" font-family="Times,serif" font-size="14.00">sulfuric&#45;acid&#45;barrel*416</text>
</g>
</g>
</svg>
