<?xml version="1.0" encoding="UTF-8" standalone="no"?>
<!DOCTYPE svg PUBLIC "-//W3C//DTD SVG 1.1//EN"
 "http://www.w3.org/Graphics/SVG/1.1/DTD/svg11.dtd">
<!-- Generated by graphviz version 2.43.0 (0)
 -->
<!-- Title: %3 Pages: 1 -->
<svg width="1297pt" height="1191pt"
 viewBox="0.00 0.00 1297.48 1191.33" xmlns="http://www.w3.org/2000/svg" xmlns:xlink="http://www.w3.org/1999/xlink">
<g id="graph0" class="graph" transform="scale(1 1) rotate(0) translate(4 1187.33)">
<title>%3</title>
<polygon fill="white" stroke="transparent" points="-4,4 -4,-1187.33 1293.48,-1187.33 1293.48,4 -4,4"/>
<!-- 2,&#45;1 (Ammonia) -->
<g id="node1" class="node">
<title>2,&#45;1 (Ammonia)</title>
<ellipse fill="none" stroke="black" cx="633.87" cy="-553.6" rx="81.49" ry="18"/>
<text text-anchor="middle" x="633.87" y="-549.9" font-family="Times,serif" font-size="14.00">2,&#45;1 (Ammonia)</text>
</g>
<!-- 8,3 (Nylon mk2) -->
<g id="node2" class="node">
<title>8,3 (Nylon mk2)</title>
<ellipse fill="none" stroke="black" cx="1187.73" cy="-553.6" rx="85.29" ry="18"/>
<text text-anchor="middle" x="1187.73" y="-549.9" font-family="Times,serif" font-size="14.00">8,3 (Nylon mk2)</text>
</g>
<!-- 2,&#45;1 (Ammonia)&#45;&gt;8,3 (Nylon mk2) -->
<g id="edge1" class="edge">
<title>2,&#45;1 (Ammonia)&#45;&gt;8,3 (Nylon mk2)</title>
<path fill="none" stroke="black" stroke-width="1.05" d="M715.29,-553.6C815.64,-553.6 985.9,-553.6 1092.29,-553.6"/>
<polygon fill="black" stroke="black" stroke-width="1.05" points="1092.38,-557.1 1102.38,-553.6 1092.38,-550.1 1092.38,-557.1"/>
<text text-anchor="middle" x="820.79" y="-557.4" font-family="Times,serif" font-size="14.00">ammonia&#45;barrel*17200</text>
</g>
<!-- 4,4 (Hydrogen Chloride, item=nylon Nylon/Nylon parts) -->
<g id="node3" class="node">
<title>4,4 (Hydrogen Chloride, item=nylon Nylon/Nylon parts)</title>
<ellipse fill="none" stroke="black" cx="1018.45" cy="-952.17" rx="271.05" ry="18"/>
<text text-anchor="middle" x="1018.45" y="-948.47" font-family="Times,serif" font-size="14.00">4,4 (Hydrogen Chloride, item=nylon Nylon/Nylon parts)</text>
</g>
<!-- 2,&#45;1 (Ammonia)&#45;&gt;4,4 (Hydrogen Chloride, item=nylon Nylon/Nylon parts) -->
<g id="edge2" class="edge">
<title>2,&#45;1 (Ammonia)&#45;&gt;4,4 (Hydrogen Chloride, item=nylon Nylon/Nylon parts)</title>
<path fill="none" stroke="black" stroke-width="0.14" d="M650.89,-571.24C712.04,-634.62 920.83,-851 993.38,-926.18"/>
<polygon fill="black" stroke="black" stroke-width="0.14" points="991.29,-929.06 1000.75,-933.82 996.32,-924.2 991.29,-929.06"/>
<text text-anchor="middle" x="743.63" y="-752.51" font-family="Times,serif" font-size="14.00">ammonia&#45;barrel*2320</text>
</g>
<!-- 4,&#45;8 (REOOOOOOOOOOOOOO) -->
<g id="node5" class="node">
<title>4,&#45;8 (REOOOOOOOOOOOOOO)</title>
<ellipse fill="none" stroke="black" cx="459.02" cy="-806.28" rx="154.07" ry="18"/>
<text text-anchor="middle" x="459.02" y="-802.58" font-family="Times,serif" font-size="14.00">4,&#45;8 (REOOOOOOOOOOOOOO)</text>
</g>
<!-- 2,&#45;1 (Ammonia)&#45;&gt;4,&#45;8 (REOOOOOOOOOOOOOO) -->
<g id="edge7" class="edge">
<title>2,&#45;1 (Ammonia)&#45;&gt;4,&#45;8 (REOOOOOOOOOOOOOO)</title>
<path fill="none" stroke="black" stroke-width="0.19" d="M621.29,-571.77C590.8,-615.84 512.8,-728.56 477.22,-779.99"/>
<polygon fill="black" stroke="black" stroke-width="0.19" points="474.29,-778.06 471.48,-788.28 480.05,-782.04 474.29,-778.06"/>
<text text-anchor="middle" x="470.75" y="-679.68" font-family="Times,serif" font-size="14.00">ammonia&#45;barrel*3080</text>
</g>
<!-- 0,0 (LE BUS) -->
<g id="node6" class="node">
<title>0,0 (LE BUS)</title>
<ellipse fill="none" stroke="black" cx="80.62" cy="-527.52" rx="71.49" ry="18"/>
<text text-anchor="middle" x="80.62" y="-523.82" font-family="Times,serif" font-size="14.00">0,0 (LE BUS)</text>
</g>
<!-- 2,&#45;1 (Ammonia)&#45;&gt;0,0 (LE BUS) -->
<g id="edge4" class="edge">
<title>2,&#45;1 (Ammonia)&#45;&gt;0,0 (LE BUS)</title>
<path fill="none" stroke="black" stroke-width="0.37" d="M554.31,-549.85C449.55,-544.91 266.38,-536.28 161.15,-531.32"/>
<polygon fill="black" stroke="black" stroke-width="0.37" points="161.05,-527.81 150.9,-530.84 160.72,-534.8 161.05,-527.81"/>
<text text-anchor="middle" x="279.23" y="-544.38" font-family="Times,serif" font-size="14.00">ammonia&#45;barrel*6000</text>
</g>
<!-- 2,1 (Niobium plates) -->
<g id="node7" class="node">
<title>2,1 (Niobium plates)</title>
<ellipse fill="none" stroke="black" cx="155.34" cy="-274.73" rx="105.88" ry="18"/>
<text text-anchor="middle" x="155.34" y="-271.03" font-family="Times,serif" font-size="14.00">2,1 (Niobium plates)</text>
</g>
<!-- 2,&#45;1 (Ammonia)&#45;&gt;2,1 (Niobium plates) -->
<g id="edge5" class="edge">
<title>2,&#45;1 (Ammonia)&#45;&gt;2,1 (Niobium plates)</title>
<path fill="none" stroke="black" stroke-width="2.68" d="M604.65,-536.57C522.07,-488.45 286.91,-351.41 193.89,-297.2"/>
<polygon fill="black" stroke="black" stroke-width="2.68" points="195.48,-294.08 185.08,-292.07 191.96,-300.12 195.48,-294.08"/>
<text text-anchor="middle" x="316.27" y="-420.69" font-family="Times,serif" font-size="14.00">ammonia&#45;barrel*43960</text>
</g>
<!-- 3,3 (Random electronic components, Small Parts) -->
<g id="node8" class="node">
<title>3,3 (Random electronic components, Small Parts)</title>
<ellipse fill="none" stroke="black" cx="492.82" cy="-18" rx="240.46" ry="18"/>
<text text-anchor="middle" x="492.82" y="-14.3" font-family="Times,serif" font-size="14.00">3,3 (Random electronic components, Small Parts)</text>
</g>
<!-- 2,&#45;1 (Ammonia)&#45;&gt;3,3 (Random electronic components, Small Parts) -->
<g id="edge6" class="edge">
<title>2,&#45;1 (Ammonia)&#45;&gt;3,3 (Random electronic components, Small Parts)</title>
<path fill="none" stroke="black" stroke-width="0.23" d="M629.09,-535.47C608.29,-456.48 525.47,-141.98 500.19,-45.97"/>
<polygon fill="black" stroke="black" stroke-width="0.23" points="503.52,-44.9 497.59,-36.12 496.76,-46.68 503.52,-44.9"/>
<text text-anchor="middle" x="486.14" y="-294.52" font-family="Times,serif" font-size="14.00">ammonia&#45;barrel*3720</text>
</g>
<!-- &#45;4,4 (item=ammonium&#45;chloride Ammonium chloride) -->
<g id="node9" class="node">
<title>&#45;4,4 (item=ammonium&#45;chloride Ammonium chloride)</title>
<ellipse fill="none" stroke="black" cx="1029.98" cy="-166.48" rx="254.55" ry="18"/>
<text text-anchor="middle" x="1029.98" y="-162.78" font-family="Times,serif" font-size="14.00">&#45;4,4 (item=ammonium&#45;chloride Ammonium chloride)</text>
</g>
<!-- 2,&#45;1 (Ammonia)&#45;&gt;&#45;4,4 (item=ammonium&#45;chloride Ammonium chloride) -->
<g id="edge8" class="edge">
<title>2,&#45;1 (Ammonia)&#45;&gt;&#45;4,4 (item=ammonium&#45;chloride Ammonium chloride)</title>
<path fill="none" stroke="black" stroke-width="3.32" d="M651.92,-535.96C715.57,-473.75 929.73,-264.46 1004.2,-191.68"/>
<polygon fill="black" stroke="black" stroke-width="3.32" points="1006.66,-194.17 1011.36,-184.67 1001.77,-189.16 1006.66,-194.17"/>
<text text-anchor="middle" x="745.06" y="-367.62" font-family="Times,serif" font-size="14.00">ammonia&#45;barrel*54440</text>
</g>
<!-- 4,9 (Cyanic Acid, Ammonia is a by&#45;product) -->
<g id="node4" class="node">
<title>4,9 (Cyanic Acid, Ammonia is a by&#45;product)</title>
<ellipse fill="none" stroke="black" cx="210.58" cy="-1165.33" rx="210.66" ry="18"/>
<text text-anchor="middle" x="210.58" y="-1161.63" font-family="Times,serif" font-size="14.00">4,9 (Cyanic Acid, Ammonia is a by&#45;product)</text>
</g>
<!-- 4,9 (Cyanic Acid, Ammonia is a by&#45;product)&#45;&gt;4,&#45;8 (REOOOOOOOOOOOOOO) -->
<g id="edge3" class="edge">
<title>4,9 (Cyanic Acid, Ammonia is a by&#45;product)&#45;&gt;4,&#45;8 (REOOOOOOOOOOOOOO)</title>
<path fill="none" stroke="black" stroke-width="0.03" d="M223.24,-1147.03C264.11,-1087.96 392.65,-902.2 440.68,-832.79"/>
<polygon fill="black" stroke="black" stroke-width="0.03" points="443.57,-834.76 446.39,-824.55 437.82,-830.78 443.57,-834.76"/>
<text text-anchor="middle" x="257.96" y="-993.71" font-family="Times,serif" font-size="14.00">ammonia&#45;barrel*556</text>
</g>
</g>
</svg>
