<?xml version="1.0" encoding="UTF-8" standalone="no"?>
<!DOCTYPE svg PUBLIC "-//W3C//DTD SVG 1.1//EN"
 "http://www.w3.org/Graphics/SVG/1.1/DTD/svg11.dtd">
<!-- Generated by graphviz version 2.43.0 (0)
 -->
<!-- Title: %3 Pages: 1 -->
<svg width="1204pt" height="44pt"
 viewBox="0.00 0.00 1203.61 44.00" xmlns="http://www.w3.org/2000/svg" xmlns:xlink="http://www.w3.org/1999/xlink">
<g id="graph0" class="graph" transform="scale(1 1) rotate(0) translate(4 40)">
<title>%3</title>
<polygon fill="white" stroke="transparent" points="-4,4 -4,-40 1199.61,-40 1199.61,4 -4,4"/>
<!-- &#45;2,&#45;3 (Trains) -->
<g id="node1" class="node">
<title>&#45;2,&#45;3 (Trains)</title>
<ellipse fill="none" stroke="black" cx="497.06" cy="-18" rx="70.39" ry="18"/>
<text text-anchor="middle" x="497.06" y="-14.3" font-family="Times,serif" font-size="14.00">&#45;2,&#45;3 (Trains)</text>
</g>
<!-- &#45;6,&#45;4 (High&#45;Power Resistors, Ceramic Capacitor, Inductor) -->
<g id="node2" class="node">
<title>&#45;6,&#45;4 (High&#45;Power Resistors, Ceramic Capacitor, Inductor)</title>
<ellipse fill="none" stroke="black" cx="917.43" cy="-18" rx="278.35" ry="18"/>
<text text-anchor="middle" x="917.43" y="-14.3" font-family="Times,serif" font-size="14.00">&#45;6,&#45;4 (High&#45;Power Resistors, Ceramic Capacitor, Inductor)</text>
</g>
<!-- &#45;2,&#45;3 (Trains)&#45;&gt;&#45;6,&#45;4 (High&#45;Power Resistors, Ceramic Capacitor, Inductor) -->
<g id="edge1" class="edge">
<title>&#45;2,&#45;3 (Trains)&#45;&gt;&#45;6,&#45;4 (High&#45;Power Resistors, Ceramic Capacitor, Inductor)</title>
<path fill="none" stroke="black" stroke-width="1.13" d="M567.42,-18C585.66,-18 606.48,-18 628.65,-18"/>
<polygon fill="black" stroke="black" stroke-width="1.13" points="628.94,-21.5 638.94,-18 628.94,-14.5 628.94,-21.5"/>
<text text-anchor="middle" x="598.04" y="-6.8" font-family="Times,serif" font-size="14.00">ceramic*14928</text>
</g>
<!-- 4,&#45;2 (Ceramic) -->
<g id="node3" class="node">
<title>4,&#45;2 (Ceramic)</title>
<ellipse fill="none" stroke="black" cx="76.69" cy="-18" rx="76.89" ry="18"/>
<text text-anchor="middle" x="76.69" y="-14.3" font-family="Times,serif" font-size="14.00">4,&#45;2 (Ceramic)</text>
</g>
<!-- 4,&#45;2 (Ceramic)&#45;&gt;&#45;2,&#45;3 (Trains) -->
<g id="edge2" class="edge">
<title>4,&#45;2 (Ceramic)&#45;&gt;&#45;2,&#45;3 (Trains)</title>
<path fill="none" stroke="black" stroke-width="0.87" d="M153.8,-18C228.27,-18 340.62,-18 416.31,-18"/>
<polygon fill="black" stroke="black" stroke-width="0.87" points="416.74,-21.5 426.74,-18 416.74,-14.5 416.74,-21.5"/>
<text text-anchor="middle" x="230.55" y="-21.8" font-family="Times,serif" font-size="14.00">ceramic*11488</text>
</g>
</g>
</svg>
