<?xml version="1.0" encoding="UTF-8" standalone="no"?>
<!DOCTYPE svg PUBLIC "-//W3C//DTD SVG 1.1//EN"
 "http://www.w3.org/Graphics/SVG/1.1/DTD/svg11.dtd">
<!-- Generated by graphviz version 2.43.0 (0)
 -->
<!-- Title: %3 Pages: 1 -->
<svg width="1093pt" height="938pt"
 viewBox="0.00 0.00 1093.12 938.03" xmlns="http://www.w3.org/2000/svg" xmlns:xlink="http://www.w3.org/1999/xlink">
<g id="graph0" class="graph" transform="scale(1 1) rotate(0) translate(4 934.03)">
<title>%3</title>
<polygon fill="white" stroke="transparent" points="-4,4 -4,-934.03 1089.12,-934.03 1089.12,4 -4,4"/>
<!-- &#45;2,9 (molten steel) -->
<g id="node1" class="node">
<title>&#45;2,9 (molten steel)</title>
<ellipse fill="none" stroke="black" cx="95.54" cy="-465.02" rx="95.58" ry="18"/>
<text text-anchor="middle" x="95.54" y="-461.32" font-family="Times,serif" font-size="14.00">&#45;2,9 (molten steel)</text>
</g>
<!-- 0,6 (Flue Gas Disposal, Syngas From Flue Gas) -->
<g id="node2" class="node">
<title>0,6 (Flue Gas Disposal, Syngas From Flue Gas)</title>
<ellipse fill="none" stroke="black" cx="855.69" cy="-465.02" rx="229.36" ry="18"/>
<text text-anchor="middle" x="855.69" y="-461.32" font-family="Times,serif" font-size="14.00">0,6 (Flue Gas Disposal, Syngas From Flue Gas)</text>
</g>
<!-- &#45;2,9 (molten steel)&#45;&gt;0,6 (Flue Gas Disposal, Syngas From Flue Gas) -->
<g id="edge1" class="edge">
<title>&#45;2,9 (molten steel)&#45;&gt;0,6 (Flue Gas Disposal, Syngas From Flue Gas)</title>
<path fill="none" stroke="black" stroke-width="1.65" d="M191.43,-465.02C297.45,-465.02 472.25,-465.02 615.93,-465.02"/>
<polygon fill="black" stroke="black" stroke-width="1.65" points="616.22,-468.52 626.22,-465.02 616.22,-461.52 616.22,-468.52"/>
<text text-anchor="middle" x="320.68" y="-468.82" font-family="Times,serif" font-size="14.00">flue&#45;gas&#45;barrel*142488</text>
</g>
<!-- &#45;5,5 (fluid=flue&#45;gas Flue gas) -->
<g id="node3" class="node">
<title>&#45;5,5 (fluid=flue&#45;gas Flue gas)</title>
<ellipse fill="none" stroke="black" cx="855.69" cy="-18" rx="145.67" ry="18"/>
<text text-anchor="middle" x="855.69" y="-14.3" font-family="Times,serif" font-size="14.00">&#45;5,5 (fluid=flue&#45;gas Flue gas)</text>
</g>
<!-- &#45;5,5 (fluid=flue&#45;gas Flue gas)&#45;&gt;0,6 (Flue Gas Disposal, Syngas From Flue Gas) -->
<g id="edge2" class="edge">
<title>&#45;5,5 (fluid=flue&#45;gas Flue gas)&#45;&gt;0,6 (Flue Gas Disposal, Syngas From Flue Gas)</title>
<path fill="none" stroke="black" stroke-width="1.19" d="M855.69,-36.08C855.69,-105.09 855.69,-352.27 855.69,-436.59"/>
<polygon fill="black" stroke="black" stroke-width="1.19" points="852.19,-436.71 855.69,-446.71 859.19,-436.71 852.19,-436.71"/>
<text text-anchor="middle" x="772.69" y="-240.14" font-family="Times,serif" font-size="14.00">flue&#45;gas&#45;barrel*103280</text>
</g>
<!-- 0,7 (Coal Gas) -->
<g id="node4" class="node">
<title>0,7 (Coal Gas)</title>
<ellipse fill="none" stroke="black" cx="855.69" cy="-912.03" rx="76.09" ry="18"/>
<text text-anchor="middle" x="855.69" y="-908.33" font-family="Times,serif" font-size="14.00">0,7 (Coal Gas)</text>
</g>
<!-- 0,7 (Coal Gas)&#45;&gt;0,6 (Flue Gas Disposal, Syngas From Flue Gas) -->
<g id="edge3" class="edge">
<title>0,7 (Coal Gas)&#45;&gt;0,6 (Flue Gas Disposal, Syngas From Flue Gas)</title>
<path fill="none" stroke="black" stroke-width="0.16" d="M855.69,-893.96C855.69,-824.95 855.69,-577.77 855.69,-493.44"/>
<polygon fill="black" stroke="black" stroke-width="0.16" points="859.19,-493.32 855.69,-483.32 852.19,-493.32 859.19,-493.32"/>
<text text-anchor="middle" x="777.19" y="-697.5" font-family="Times,serif" font-size="14.00">flue&#45;gas&#45;barrel*13800</text>
</g>
</g>
</svg>
