<?xml version="1.0" encoding="UTF-8" standalone="no"?>
<!DOCTYPE svg PUBLIC "-//W3C//DTD SVG 1.1//EN"
 "http://www.w3.org/Graphics/SVG/1.1/DTD/svg11.dtd">
<!-- Generated by graphviz version 2.43.0 (0)
 -->
<!-- Title: %3 Pages: 1 -->
<svg width="4095pt" height="3589pt"
 viewBox="0.00 0.00 4094.85 3589.49" xmlns="http://www.w3.org/2000/svg" xmlns:xlink="http://www.w3.org/1999/xlink">
<g id="graph0" class="graph" transform="scale(1 1) rotate(0) translate(4 3585.49)">
<title>%3</title>
<polygon fill="white" stroke="transparent" points="-4,4 -4,-3585.49 4090.85,-3585.49 4090.85,4 -4,4"/>
<!-- 3,9 (Copper, molten &amp; plate) -->
<g id="node1" class="node">
<title>3,9 (Copper, molten &amp; plate)</title>
<ellipse fill="none" stroke="black" cx="1006.64" cy="-3349.67" rx="143.77" ry="18"/>
<text text-anchor="middle" x="1006.64" y="-3345.97" font-family="Times,serif" font-size="14.00">3,9 (Copper, molten &amp; plate)</text>
</g>
<!-- 0,0 (LE BUS) -->
<g id="node2" class="node">
<title>0,0 (LE BUS)</title>
<ellipse fill="none" stroke="black" cx="3706.77" cy="-1790.74" rx="71.49" ry="18"/>
<text text-anchor="middle" x="3706.77" y="-1787.04" font-family="Times,serif" font-size="14.00">0,0 (LE BUS)</text>
</g>
<!-- 3,9 (Copper, molten &amp; plate)&#45;&gt;0,0 (LE BUS) -->
<g id="edge1" class="edge">
<title>3,9 (Copper, molten &amp; plate)&#45;&gt;0,0 (LE BUS)</title>
<path fill="none" stroke="black" stroke-width="3.84" d="M1037.43,-3331.89C1313.82,-3172.32 3364.91,-1988.12 3669.11,-1812.49"/>
<polygon fill="black" stroke="black" stroke-width="3.84" points="3671.09,-1815.39 3678,-1807.36 3667.59,-1809.33 3671.09,-1815.39"/>
<text text-anchor="middle" x="2277.77" y="-2575.99" font-family="Times,serif" font-size="14.00">copper&#45;plate*129760</text>
</g>
<!-- 3,3 (Random electronic components, Small Parts) -->
<g id="node4" class="node">
<title>3,3 (Random electronic components, Small Parts)</title>
<ellipse fill="none" stroke="black" cx="527.73" cy="-633.67" rx="240.46" ry="18"/>
<text text-anchor="middle" x="527.73" y="-629.97" font-family="Times,serif" font-size="14.00">3,3 (Random electronic components, Small Parts)</text>
</g>
<!-- 3,9 (Copper, molten &amp; plate)&#45;&gt;3,3 (Random electronic components, Small Parts) -->
<g id="edge19" class="edge">
<title>3,9 (Copper, molten &amp; plate)&#45;&gt;3,3 (Random electronic components, Small Parts)</title>
<path fill="none" stroke="black" stroke-width="3.09" d="M1003.45,-3331.61C964.51,-3110.76 580.73,-934.21 532.67,-661.65"/>
<polygon fill="black" stroke="black" stroke-width="3.09" points="536.1,-661 530.92,-651.76 529.21,-662.21 536.1,-661"/>
<text text-anchor="middle" x="692.56" y="-2000.43" font-family="Times,serif" font-size="14.00">copper&#45;plate*104240</text>
</g>
<!-- 8,8 (Glass and lamps) -->
<g id="node6" class="node">
<title>8,8 (Glass and lamps)</title>
<ellipse fill="none" stroke="black" cx="3598.22" cy="-2406.41" rx="111.28" ry="18"/>
<text text-anchor="middle" x="3598.22" y="-2402.71" font-family="Times,serif" font-size="14.00">8,8 (Glass and lamps)</text>
</g>
<!-- 3,9 (Copper, molten &amp; plate)&#45;&gt;8,8 (Glass and lamps) -->
<g id="edge4" class="edge">
<title>3,9 (Copper, molten &amp; plate)&#45;&gt;8,8 (Glass and lamps)</title>
<path fill="none" stroke="black" stroke-width="6.67" d="M1053.55,-3332.59C1371.01,-3217.05 3202.32,-2550.51 3543.5,-2426.33"/>
<polygon fill="black" stroke="black" stroke-width="6.67" points="3545.52,-2431.81 3552.92,-2422.9 3541.53,-2420.83 3545.52,-2431.81"/>
<text text-anchor="middle" x="2223.03" y="-2883.26" font-family="Times,serif" font-size="14.00">copper&#45;plate*225360</text>
</g>
<!-- 4,6 (Circuit substrate and Doped silicon) -->
<g id="node8" class="node">
<title>4,6 (Circuit substrate and Doped silicon)</title>
<ellipse fill="none" stroke="black" cx="2219.27" cy="-18" rx="199.56" ry="18"/>
<text text-anchor="middle" x="2219.27" y="-14.3" font-family="Times,serif" font-size="14.00">4,6 (Circuit substrate and Doped silicon)</text>
</g>
<!-- 3,9 (Copper, molten &amp; plate)&#45;&gt;4,6 (Circuit substrate and Doped silicon) -->
<g id="edge47" class="edge">
<title>3,9 (Copper, molten &amp; plate)&#45;&gt;4,6 (Circuit substrate and Doped silicon)</title>
<path fill="none" stroke="black" stroke-width="0.06" d="M1013.31,-3331.34C1104.33,-3081.26 2097.9,-351.45 2209.15,-45.78"/>
<polygon fill="black" stroke="black" stroke-width="0.06" points="2212.47,-46.91 2212.6,-36.31 2205.89,-44.51 2212.47,-46.91"/>
<text text-anchor="middle" x="1544.73" y="-1692.36" font-family="Times,serif" font-size="14.00">copper&#45;plate*2080</text>
</g>
<!-- 2,5 (Simple Circuits) -->
<g id="node9" class="node">
<title>2,5 (Simple Circuits)</title>
<ellipse fill="none" stroke="black" cx="106.59" cy="-1790.74" rx="106.68" ry="18"/>
<text text-anchor="middle" x="106.59" y="-1787.04" font-family="Times,serif" font-size="14.00">2,5 (Simple Circuits)</text>
</g>
<!-- 3,9 (Copper, molten &amp; plate)&#45;&gt;2,5 (Simple Circuits) -->
<g id="edge7" class="edge">
<title>3,9 (Copper, molten &amp; plate)&#45;&gt;2,5 (Simple Circuits)</title>
<path fill="none" stroke="black" stroke-width="1.24" d="M996.22,-3331.62C904.35,-3172.51 233.39,-2010.37 122.19,-1817.76"/>
<polygon fill="black" stroke="black" stroke-width="1.24" points="125.07,-1815.75 117.04,-1808.84 119.01,-1819.25 125.07,-1815.75"/>
<text text-anchor="middle" x="488.2" y="-2578.49" font-family="Times,serif" font-size="14.00">copper&#45;plate*42000</text>
</g>
<!-- &#45;5,0 (Petri dishes) -->
<g id="node10" class="node">
<title>&#45;5,0 (Petri dishes)</title>
<ellipse fill="none" stroke="black" cx="215.15" cy="-2406.41" rx="92.88" ry="18"/>
<text text-anchor="middle" x="215.15" y="-2402.71" font-family="Times,serif" font-size="14.00">&#45;5,0 (Petri dishes)</text>
</g>
<!-- 3,9 (Copper, molten &amp; plate)&#45;&gt;&#45;5,0 (Petri dishes) -->
<g id="edge31" class="edge">
<title>3,9 (Copper, molten &amp; plate)&#45;&gt;&#45;5,0 (Petri dishes)</title>
<path fill="none" stroke="black" stroke-width="0.32" d="M991.53,-3331.67C893.88,-3215.29 352.17,-2569.7 236.77,-2432.18"/>
<polygon fill="black" stroke="black" stroke-width="0.32" points="239.2,-2429.63 230.09,-2424.22 233.84,-2434.13 239.2,-2429.63"/>
<text text-anchor="middle" x="543.15" y="-2885.72" font-family="Times,serif" font-size="14.00">copper&#45;plate*10640</text>
</g>
<!-- &#45;5,2 (Optical fiber) -->
<g id="node11" class="node">
<title>&#45;5,2 (Optical fiber)</title>
<ellipse fill="none" stroke="black" cx="527.73" cy="-2947.82" rx="96.38" ry="18"/>
<text text-anchor="middle" x="527.73" y="-2944.12" font-family="Times,serif" font-size="14.00">&#45;5,2 (Optical fiber)</text>
</g>
<!-- 3,9 (Copper, molten &amp; plate)&#45;&gt;&#45;5,2 (Optical fiber) -->
<g id="edge38" class="edge">
<title>3,9 (Copper, molten &amp; plate)&#45;&gt;&#45;5,2 (Optical fiber)</title>
<path fill="none" stroke="black" stroke-width="0.62" d="M985.13,-3331.62C907.91,-3266.83 644.61,-3045.89 556.63,-2972.07"/>
<polygon fill="black" stroke="black" stroke-width="0.62" points="558.82,-2969.34 548.91,-2965.59 554.32,-2974.7 558.82,-2969.34"/>
<text text-anchor="middle" x="699.88" y="-3155.64" font-family="Times,serif" font-size="14.00">copper&#45;plate*20880</text>
</g>
<!-- 2,4 (Formica and Phenolic boards) -->
<g id="node12" class="node">
<title>2,4 (Formica and Phenolic boards)</title>
<ellipse fill="none" stroke="black" cx="2806.73" cy="-3349.67" rx="169.77" ry="18"/>
<text text-anchor="middle" x="2806.73" y="-3345.97" font-family="Times,serif" font-size="14.00">2,4 (Formica and Phenolic boards)</text>
</g>
<!-- 3,9 (Copper, molten &amp; plate)&#45;&gt;2,4 (Formica and Phenolic boards) -->
<g id="edge26" class="edge">
<title>3,9 (Copper, molten &amp; plate)&#45;&gt;2,4 (Formica and Phenolic boards)</title>
<path fill="none" stroke="black" stroke-width="0.69" d="M1150.52,-3349.67C1476.25,-3349.67 2269.43,-3349.67 2626.86,-3349.67"/>
<polygon fill="black" stroke="black" stroke-width="0.69" points="2627.04,-3353.17 2637.04,-3349.67 2627.04,-3346.17 2627.04,-3353.17"/>
<text text-anchor="middle" x="1817.69" y="-3353.47" font-family="Times,serif" font-size="14.00">copper&#45;plate*23200</text>
</g>
<!-- &#45;6,&#45;4 (High&#45;Power Resistors, Ceramic Capacitor, Inductor) -->
<g id="node13" class="node">
<title>&#45;6,&#45;4 (High&#45;Power Resistors, Ceramic Capacitor, Inductor)</title>
<ellipse fill="none" stroke="black" cx="2219.27" cy="-3563.49" rx="278.35" ry="18"/>
<text text-anchor="middle" x="2219.27" y="-3559.79" font-family="Times,serif" font-size="14.00">&#45;6,&#45;4 (High&#45;Power Resistors, Ceramic Capacitor, Inductor)</text>
</g>
<!-- 3,9 (Copper, molten &amp; plate)&#45;&gt;&#45;6,&#45;4 (High&#45;Power Resistors, Ceramic Capacitor, Inductor) -->
<g id="edge11" class="edge">
<title>3,9 (Copper, molten &amp; plate)&#45;&gt;&#45;6,&#45;4 (High&#45;Power Resistors, Ceramic Capacitor, Inductor)</title>
<path fill="none" stroke="black" stroke-width="0.95" d="M1089.99,-3364.37C1304.55,-3402.2 1875.7,-3502.91 2113.29,-3544.8"/>
<polygon fill="black" stroke="black" stroke-width="0.95" points="2112.86,-3548.28 2123.31,-3546.57 2114.07,-3541.39 2112.86,-3548.28"/>
<text text-anchor="middle" x="1530.64" y="-3458.38" font-family="Times,serif" font-size="14.00">copper&#45;plate*31920</text>
</g>
<!-- 6,4 (Electronic components) -->
<g id="node14" class="node">
<title>6,4 (Electronic components)</title>
<ellipse fill="none" stroke="black" cx="3285.63" cy="-633.67" rx="141.88" ry="18"/>
<text text-anchor="middle" x="3285.63" y="-629.97" font-family="Times,serif" font-size="14.00">6,4 (Electronic components)</text>
</g>
<!-- 3,9 (Copper, molten &amp; plate)&#45;&gt;6,4 (Electronic components) -->
<g id="edge12" class="edge">
<title>3,9 (Copper, molten &amp; plate)&#45;&gt;6,4 (Electronic components)</title>
<path fill="none" stroke="black" stroke-width="1.08" d="M1021.79,-3331.61C1207.56,-3110.21 3042.49,-923.43 3263.82,-659.66"/>
<polygon fill="black" stroke="black" stroke-width="1.08" points="3266.71,-661.67 3270.46,-651.76 3261.35,-657.17 3266.71,-661.67"/>
<text text-anchor="middle" x="2071.81" y="-1999.44" font-family="Times,serif" font-size="14.00">copper&#45;plate*36320</text>
</g>
<!-- 2,&#45;1 (Ammonia) -->
<g id="node19" class="node">
<title>2,&#45;1 (Ammonia)</title>
<ellipse fill="none" stroke="black" cx="1594.1" cy="-3563.49" rx="81.49" ry="18"/>
<text text-anchor="middle" x="1594.1" y="-3559.79" font-family="Times,serif" font-size="14.00">2,&#45;1 (Ammonia)</text>
</g>
<!-- 3,9 (Copper, molten &amp; plate)&#45;&gt;2,&#45;1 (Ammonia) -->
<g id="edge40" class="edge">
<title>3,9 (Copper, molten &amp; plate)&#45;&gt;2,&#45;1 (Ammonia)</title>
<path fill="none" stroke="black" stroke-width="1.79" d="M1053.72,-3366.81C1162.19,-3406.29 1429.03,-3503.41 1542.11,-3544.57"/>
<polygon fill="black" stroke="black" stroke-width="1.79" points="1541,-3547.89 1551.6,-3548.02 1543.4,-3541.31 1541,-3547.89"/>
<text text-anchor="middle" x="1226.91" y="-3459.49" font-family="Times,serif" font-size="14.00">copper&#45;plate*60480</text>
</g>
<!-- 9,&#45;10 (Copper plate yet again) -->
<g id="node3" class="node">
<title>9,&#45;10 (Copper plate yet again)</title>
<ellipse fill="none" stroke="black" cx="1006.64" cy="-231.82" rx="149.47" ry="18"/>
<text text-anchor="middle" x="1006.64" y="-228.12" font-family="Times,serif" font-size="14.00">9,&#45;10 (Copper plate yet again)</text>
</g>
<!-- 9,&#45;10 (Copper plate yet again)&#45;&gt;0,0 (LE BUS) -->
<g id="edge5" class="edge">
<title>9,&#45;10 (Copper plate yet again)&#45;&gt;0,0 (LE BUS)</title>
<path fill="none" stroke="black" stroke-width="1.94" d="M1037.43,-249.6C1313.82,-409.17 3364.91,-1593.37 3669.11,-1769"/>
<polygon fill="black" stroke="black" stroke-width="1.94" points="3667.59,-1772.16 3678,-1774.13 3671.09,-1766.1 3667.59,-1772.16"/>
<text text-anchor="middle" x="2282.27" y="-1013.1" font-family="Times,serif" font-size="14.00">copper&#45;plate*65520</text>
</g>
<!-- 9,&#45;10 (Copper plate yet again)&#45;&gt;3,3 (Random electronic components, Small Parts) -->
<g id="edge2" class="edge">
<title>9,&#45;10 (Copper plate yet again)&#45;&gt;3,3 (Random electronic components, Small Parts)</title>
<path fill="none" stroke="black" stroke-width="2.3" d="M985.13,-249.87C908,-314.58 645.21,-535.09 556.93,-609.17"/>
<polygon fill="black" stroke="black" stroke-width="2.3" points="554.59,-606.56 549.18,-615.67 559.09,-611.92 554.59,-606.56"/>
<text text-anchor="middle" x="700.03" y="-433.32" font-family="Times,serif" font-size="14.00">copper&#45;plate*77520</text>
</g>
<!-- 9,&#45;10 (Copper plate yet again)&#45;&gt;8,8 (Glass and lamps) -->
<g id="edge45" class="edge">
<title>9,&#45;10 (Copper plate yet again)&#45;&gt;8,8 (Glass and lamps)</title>
<path fill="none" stroke="black" stroke-width="1.48" d="M1027.88,-249.64C1258.88,-443.48 3301.36,-2157.32 3569.27,-2382.12"/>
<polygon fill="black" stroke="black" stroke-width="1.48" points="3567.11,-2384.88 3577.02,-2388.63 3571.61,-2379.52 3567.11,-2384.88"/>
<text text-anchor="middle" x="2227.57" y="-1319.68" font-family="Times,serif" font-size="14.00">copper&#45;plate*50080</text>
</g>
<!-- 9,&#45;10 (Copper plate yet again)&#45;&gt;4,6 (Circuit substrate and Doped silicon) -->
<g id="edge46" class="edge">
<title>9,&#45;10 (Copper plate yet again)&#45;&gt;4,6 (Circuit substrate and Doped silicon)</title>
<path fill="none" stroke="black" stroke-width="0.06" d="M1090.94,-216.95C1307.77,-178.72 1884.15,-77.09 2118.28,-35.81"/>
<polygon fill="black" stroke="black" stroke-width="0.06" points="2118.91,-39.25 2128.15,-34.07 2117.7,-32.36 2118.91,-39.25"/>
<text text-anchor="middle" x="1538.11" y="-130.18" font-family="Times,serif" font-size="14.00">copper&#45;plate*2080</text>
</g>
<!-- 9,&#45;10 (Copper plate yet again)&#45;&gt;2,5 (Simple Circuits) -->
<g id="edge17" class="edge">
<title>9,&#45;10 (Copper plate yet again)&#45;&gt;2,5 (Simple Circuits)</title>
<path fill="none" stroke="black" stroke-width="0.62" d="M996.22,-249.87C904.35,-408.98 233.39,-1571.12 122.19,-1763.73"/>
<polygon fill="black" stroke="black" stroke-width="0.62" points="119.01,-1762.24 117.04,-1772.65 125.07,-1765.74 119.01,-1762.24"/>
<text text-anchor="middle" x="488.2" y="-1010.6" font-family="Times,serif" font-size="14.00">copper&#45;plate*21040</text>
</g>
<!-- 9,&#45;10 (Copper plate yet again)&#45;&gt;&#45;5,0 (Petri dishes) -->
<g id="edge8" class="edge">
<title>9,&#45;10 (Copper plate yet again)&#45;&gt;&#45;5,0 (Petri dishes)</title>
<path fill="none" stroke="black" stroke-width="0.65" d="M1000.03,-249.97C929.26,-444.41 311.88,-2140.63 225.24,-2378.7"/>
<polygon fill="black" stroke="black" stroke-width="0.65" points="221.86,-2377.75 221.73,-2388.34 228.44,-2380.14 221.86,-2377.75"/>
<text text-anchor="middle" x="541.63" y="-1318.13" font-family="Times,serif" font-size="14.00">copper&#45;plate*21840</text>
</g>
<!-- 9,&#45;10 (Copper plate yet again)&#45;&gt;&#45;5,2 (Optical fiber) -->
<g id="edge43" class="edge">
<title>9,&#45;10 (Copper plate yet again)&#45;&gt;&#45;5,2 (Optical fiber)</title>
<path fill="none" stroke="black" stroke-width="0.6" d="M1003.45,-249.88C964.51,-470.73 580.73,-2647.28 532.67,-2919.84"/>
<polygon fill="black" stroke="black" stroke-width="0.6" points="529.21,-2919.28 530.92,-2929.73 536.1,-2920.49 529.21,-2919.28"/>
<text text-anchor="middle" x="697.06" y="-1588.66" font-family="Times,serif" font-size="14.00">copper&#45;plate*20320</text>
</g>
<!-- 9,&#45;10 (Copper plate yet again)&#45;&gt;2,4 (Formica and Phenolic boards) -->
<g id="edge21" class="edge">
<title>9,&#45;10 (Copper plate yet again)&#45;&gt;2,4 (Formica and Phenolic boards)</title>
<path fill="none" stroke="black" stroke-width="0.97" d="M1017.21,-250.13C1156.24,-490.93 2622.59,-3030.74 2791,-3322.42"/>
<polygon fill="black" stroke="black" stroke-width="0.97" points="2788.2,-3324.57 2796.23,-3331.48 2794.26,-3321.07 2788.2,-3324.57"/>
<text text-anchor="middle" x="1833.1" y="-1790.07" font-family="Times,serif" font-size="14.00">copper&#45;plate*32880</text>
</g>
<!-- 9,&#45;10 (Copper plate yet again)&#45;&gt;&#45;6,&#45;4 (High&#45;Power Resistors, Ceramic Capacitor, Inductor) -->
<g id="edge14" class="edge">
<title>9,&#45;10 (Copper plate yet again)&#45;&gt;&#45;6,&#45;4 (High&#45;Power Resistors, Ceramic Capacitor, Inductor)</title>
<path fill="none" stroke="black" stroke-width="0.93" d="M1013.31,-250.15C1104.33,-500.22 2097.9,-3230.04 2209.15,-3535.71"/>
<polygon fill="black" stroke="black" stroke-width="0.93" points="2205.89,-3536.98 2212.6,-3545.18 2212.47,-3534.58 2205.89,-3536.98"/>
<text text-anchor="middle" x="1540.23" y="-1896.73" font-family="Times,serif" font-size="14.00">copper&#45;plate*31360</text>
</g>
<!-- 9,&#45;10 (Copper plate yet again)&#45;&gt;6,4 (Electronic components) -->
<g id="edge16" class="edge">
<title>9,&#45;10 (Copper plate yet again)&#45;&gt;6,4 (Electronic components)</title>
<path fill="none" stroke="black" stroke-width="1.17" d="M1091.13,-246.72C1446.87,-309.44 2821.46,-551.82 3192.75,-617.29"/>
<polygon fill="black" stroke="black" stroke-width="1.17" points="3192.2,-620.75 3202.65,-619.04 3193.41,-613.85 3192.2,-620.75"/>
<text text-anchor="middle" x="2070.94" y="-435.8" font-family="Times,serif" font-size="14.00">copper&#45;plate*39600</text>
</g>
<!-- 2,14 (Latex) -->
<g id="node17" class="node">
<title>2,14 (Latex)</title>
<ellipse fill="none" stroke="black" cx="2806.73" cy="-231.82" rx="66.89" ry="18"/>
<text text-anchor="middle" x="2806.73" y="-228.12" font-family="Times,serif" font-size="14.00">2,14 (Latex)</text>
</g>
<!-- 9,&#45;10 (Copper plate yet again)&#45;&gt;2,14 (Latex) -->
<g id="edge42" class="edge">
<title>9,&#45;10 (Copper plate yet again)&#45;&gt;2,14 (Latex)</title>
<path fill="none" stroke="black" stroke-width="0.74" d="M1156.25,-231.82C1522.54,-231.82 2454.43,-231.82 2729.29,-231.82"/>
<polygon fill="black" stroke="black" stroke-width="0.74" points="2729.57,-235.32 2739.57,-231.82 2729.57,-228.32 2729.57,-235.32"/>
<text text-anchor="middle" x="1871.77" y="-235.62" font-family="Times,serif" font-size="14.00">copper&#45;plate*25040</text>
</g>
<!-- &#45;1,12 (I can&#39;t believe it&#39;s more latex duplicates) -->
<g id="node18" class="node">
<title>&#45;1,12 (I can&#39;t believe it&#39;s more latex duplicates)</title>
<ellipse fill="none" stroke="black" cx="1594.1" cy="-18" rx="229.36" ry="18"/>
<text text-anchor="middle" x="1594.1" y="-14.3" font-family="Times,serif" font-size="14.00">&#45;1,12 (I can&#39;t believe it&#39;s more latex duplicates)</text>
</g>
<!-- 9,&#45;10 (Copper plate yet again)&#45;&gt;&#45;1,12 (I can&#39;t believe it&#39;s more latex duplicates) -->
<g id="edge33" class="edge">
<title>9,&#45;10 (Copper plate yet again)&#45;&gt;&#45;1,12 (I can&#39;t believe it&#39;s more latex duplicates)</title>
<path fill="none" stroke="black" stroke-width="0.74" d="M1053.72,-214.68C1160.31,-175.89 1419.84,-81.43 1536.1,-39.11"/>
<polygon fill="black" stroke="black" stroke-width="0.74" points="1537.36,-42.38 1545.56,-35.67 1534.97,-35.8 1537.36,-42.38"/>
<text text-anchor="middle" x="1223.91" y="-130.7" font-family="Times,serif" font-size="14.00">copper&#45;plate*25040</text>
</g>
<!-- 9,&#45;10 (Copper plate yet again)&#45;&gt;2,&#45;1 (Ammonia) -->
<g id="edge39" class="edge">
<title>9,&#45;10 (Copper plate yet again)&#45;&gt;2,&#45;1 (Ammonia)</title>
<path fill="none" stroke="black" stroke-width="2.06" d="M1009.87,-250.15C1053.94,-500.1 1534.83,-3227.35 1589.12,-3535.25"/>
<polygon fill="black" stroke="black" stroke-width="2.06" points="1585.69,-3535.94 1590.87,-3545.18 1592.58,-3534.72 1585.69,-3535.94"/>
<text text-anchor="middle" x="1228.49" y="-1896.5" font-family="Times,serif" font-size="14.00">copper&#45;plate*69440</text>
</g>
<!-- 4,&#45;8 (REOOOOOOOOOOOOOO) -->
<g id="node5" class="node">
<title>4,&#45;8 (REOOOOOOOOOOOOOO)</title>
<ellipse fill="none" stroke="black" cx="3932.81" cy="-1790.74" rx="154.07" ry="18"/>
<text text-anchor="middle" x="3932.81" y="-1787.04" font-family="Times,serif" font-size="14.00">4,&#45;8 (REOOOOOOOOOOOOOO)</text>
</g>
<!-- 4,&#45;8 (REOOOOOOOOOOOOOO)&#45;&gt;0,0 (LE BUS) -->
<g id="edge3" class="edge">
<title>4,&#45;8 (REOOOOOOOOOOOOOO)&#45;&gt;0,0 (LE BUS)</title>
<path fill="none" stroke="black" stroke-width="0.07" d="M3778.6,-1790.74C3778.53,-1790.74 3778.45,-1790.74 3778.37,-1790.74"/>
<polygon fill="black" stroke="black" stroke-width="0.07" points="3788.14,-1787.25 3778.14,-1790.74 3788.14,-1794.25 3788.14,-1787.25"/>
<text text-anchor="middle" x="3711.99" y="-1794.54" font-family="Times,serif" font-size="14.00">copper&#45;plate*2400</text>
</g>
<!-- &#45;6,8 (Copper plate duplicate) -->
<g id="node7" class="node">
<title>&#45;6,8 (Copper plate duplicate)</title>
<ellipse fill="none" stroke="black" cx="3285.63" cy="-2947.82" rx="143.77" ry="18"/>
<text text-anchor="middle" x="3285.63" y="-2944.12" font-family="Times,serif" font-size="14.00">&#45;6,8 (Copper plate duplicate)</text>
</g>
<!-- &#45;6,8 (Copper plate duplicate)&#45;&gt;0,0 (LE BUS) -->
<g id="edge25" class="edge">
<title>&#45;6,8 (Copper plate duplicate)&#45;&gt;0,0 (LE BUS)</title>
<path fill="none" stroke="black" stroke-width="0.81" d="M3292.25,-2929.65C3340.48,-2797.14 3637.76,-1980.35 3696.65,-1818.57"/>
<polygon fill="black" stroke="black" stroke-width="0.81" points="3700.04,-1819.47 3700.17,-1808.88 3693.46,-1817.08 3700.04,-1819.47"/>
<text text-anchor="middle" x="3423.45" y="-2362.91" font-family="Times,serif" font-size="14.00">copper&#45;plate*27280</text>
</g>
<!-- &#45;6,8 (Copper plate duplicate)&#45;&gt;3,3 (Random electronic components, Small Parts) -->
<g id="edge27" class="edge">
<title>&#45;6,8 (Copper plate duplicate)&#45;&gt;3,3 (Random electronic components, Small Parts)</title>
<path fill="none" stroke="black" stroke-width="0.56" d="M3264.23,-2929.87C3023.94,-2728.24 835.66,-892.05 556.9,-658.14"/>
<polygon fill="black" stroke="black" stroke-width="0.56" points="559.12,-655.44 549.21,-651.69 554.62,-660.8 559.12,-655.44"/>
<text text-anchor="middle" x="1981.57" y="-1797.8" font-family="Times,serif" font-size="14.00">copper&#45;plate*19040</text>
</g>
<!-- &#45;6,8 (Copper plate duplicate)&#45;&gt;8,8 (Glass and lamps) -->
<g id="edge15" class="edge">
<title>&#45;6,8 (Copper plate duplicate)&#45;&gt;8,8 (Glass and lamps)</title>
<path fill="none" stroke="black" stroke-width="1.48" d="M3296.03,-2929.81C3342.06,-2850.08 3527.62,-2528.69 3582.72,-2433.26"/>
<polygon fill="black" stroke="black" stroke-width="1.48" points="3585.81,-2434.9 3587.78,-2424.49 3579.75,-2431.4 3585.81,-2434.9"/>
<text text-anchor="middle" x="3368.37" y="-2685.33" font-family="Times,serif" font-size="14.00">copper&#45;plate*50080</text>
</g>
<!-- &#45;6,8 (Copper plate duplicate)&#45;&gt;4,6 (Circuit substrate and Doped silicon) -->
<g id="edge6" class="edge">
<title>&#45;6,8 (Copper plate duplicate)&#45;&gt;4,6 (Circuit substrate and Doped silicon)</title>
<path fill="none" stroke="black" stroke-width="0.06" d="M3278.96,-2929.49C3194.39,-2697.14 2332.39,-328.8 2229.32,-45.64"/>
<polygon fill="black" stroke="black" stroke-width="0.06" points="2232.56,-44.3 2225.85,-36.1 2225.99,-46.7 2232.56,-44.3"/>
<text text-anchor="middle" x="2687.64" y="-1491.37" font-family="Times,serif" font-size="14.00">copper&#45;plate*2160</text>
</g>
<!-- &#45;6,8 (Copper plate duplicate)&#45;&gt;2,5 (Simple Circuits) -->
<g id="edge34" class="edge">
<title>&#45;6,8 (Copper plate duplicate)&#45;&gt;2,5 (Simple Circuits)</title>
<path fill="none" stroke="black" stroke-width="0.61" d="M3238.85,-2930.79C2878.51,-2799.64 548.07,-1951.43 161.03,-1810.56"/>
<polygon fill="black" stroke="black" stroke-width="0.61" points="162.05,-1807.2 151.45,-1807.07 159.65,-1813.78 162.05,-1807.2"/>
<text text-anchor="middle" x="1628.94" y="-2374.48" font-family="Times,serif" font-size="14.00">copper&#45;plate*20640</text>
</g>
<!-- &#45;6,8 (Copper plate duplicate)&#45;&gt;&#45;5,0 (Petri dishes) -->
<g id="edge23" class="edge">
<title>&#45;6,8 (Copper plate duplicate)&#45;&gt;&#45;5,0 (Petri dishes)</title>
<path fill="none" stroke="black" stroke-width="0.38" d="M3202.31,-2933.13C2763.28,-2855.72 722.4,-2495.85 294.12,-2420.34"/>
<polygon fill="black" stroke="black" stroke-width="0.38" points="294.46,-2416.84 284.01,-2418.55 293.25,-2423.74 294.46,-2416.84"/>
<text text-anchor="middle" x="1677.22" y="-2680.53" font-family="Times,serif" font-size="14.00">copper&#45;plate*12720</text>
</g>
<!-- &#45;6,8 (Copper plate duplicate)&#45;&gt;&#45;5,2 (Optical fiber) -->
<g id="edge9" class="edge">
<title>&#45;6,8 (Copper plate duplicate)&#45;&gt;&#45;5,2 (Optical fiber)</title>
<path fill="none" stroke="black" stroke-width="0.3" d="M3141.72,-2947.82C2652.67,-2947.82 1061.38,-2947.82 634.13,-2947.82"/>
<polygon fill="black" stroke="black" stroke-width="0.3" points="633.96,-2944.32 623.96,-2947.82 633.96,-2951.32 633.96,-2944.32"/>
<text text-anchor="middle" x="1816.93" y="-2951.62" font-family="Times,serif" font-size="14.00">copper&#45;plate*10240</text>
</g>
<!-- &#45;6,8 (Copper plate duplicate)&#45;&gt;2,4 (Formica and Phenolic boards) -->
<g id="edge10" class="edge">
<title>&#45;6,8 (Copper plate duplicate)&#45;&gt;2,4 (Formica and Phenolic boards)</title>
<path fill="none" stroke="black" stroke-width="1.36" d="M3264.13,-2965.87C3187,-3030.59 2924.2,-3251.1 2835.92,-3325.17"/>
<polygon fill="black" stroke="black" stroke-width="1.36" points="2833.59,-3322.56 2828.18,-3331.67 2838.09,-3327.93 2833.59,-3322.56"/>
<text text-anchor="middle" x="2979.02" y="-3149.32" font-family="Times,serif" font-size="14.00">copper&#45;plate*46000</text>
</g>
<!-- &#45;6,8 (Copper plate duplicate)&#45;&gt;&#45;6,&#45;4 (High&#45;Power Resistors, Ceramic Capacitor, Inductor) -->
<g id="edge20" class="edge">
<title>&#45;6,8 (Copper plate duplicate)&#45;&gt;&#45;6,&#45;4 (High&#45;Power Resistors, Ceramic Capacitor, Inductor)</title>
<path fill="none" stroke="black" stroke-width="0.79" d="M3255.15,-2965.42C3103.49,-3052.98 2430.68,-3441.43 2259.16,-3540.45"/>
<polygon fill="black" stroke="black" stroke-width="0.79" points="2257.35,-3537.46 2250.44,-3545.49 2260.85,-3543.52 2257.35,-3537.46"/>
<text text-anchor="middle" x="2686.16" y="-3256.74" font-family="Times,serif" font-size="14.00">copper&#45;plate*26720</text>
</g>
<!-- &#45;6,8 (Copper plate duplicate)&#45;&gt;6,4 (Electronic components) -->
<g id="edge22" class="edge">
<title>&#45;6,8 (Copper plate duplicate)&#45;&gt;6,4 (Electronic components)</title>
<path fill="none" stroke="black" stroke-width="0.66" d="M3285.63,-2929.53C3285.63,-2727.21 3285.63,-909.85 3285.63,-661.69"/>
<polygon fill="black" stroke="black" stroke-width="0.66" points="3289.13,-661.67 3285.63,-651.67 3282.13,-661.67 3289.13,-661.67"/>
<text text-anchor="middle" x="3214.63" y="-1799.41" font-family="Times,serif" font-size="14.00">copper&#45;plate*22160</text>
</g>
<!-- &#45;6,8 (Copper plate duplicate)&#45;&gt;2,14 (Latex) -->
<g id="edge49" class="edge">
<title>&#45;6,8 (Copper plate duplicate)&#45;&gt;2,14 (Latex)</title>
<path fill="none" stroke="black" stroke-width="0.74" d="M3282.45,-2929.76C3243.51,-2708.91 2859.72,-532.36 2811.66,-259.8"/>
<polygon fill="black" stroke="black" stroke-width="0.74" points="2815.1,-259.15 2809.92,-249.91 2808.21,-260.36 2815.1,-259.15"/>
<text text-anchor="middle" x="2976.06" y="-1598.58" font-family="Times,serif" font-size="14.00">copper&#45;plate*25040</text>
</g>
<!-- &#45;6,8 (Copper plate duplicate)&#45;&gt;&#45;1,12 (I can&#39;t believe it&#39;s more latex duplicates) -->
<g id="edge44" class="edge">
<title>&#45;6,8 (Copper plate duplicate)&#45;&gt;&#45;1,12 (I can&#39;t believe it&#39;s more latex duplicates)</title>
<path fill="none" stroke="black" stroke-width="0.74" d="M3275.05,-2929.49C3140.77,-2696.91 1770.83,-324.11 1609.58,-44.8"/>
<polygon fill="black" stroke="black" stroke-width="0.74" points="1612.58,-43.01 1604.55,-36.1 1606.52,-46.51 1612.58,-43.01"/>
<text text-anchor="middle" x="2371.31" y="-1490.95" font-family="Times,serif" font-size="14.00">copper&#45;plate*25040</text>
</g>
<!-- &#45;6,8 (Copper plate duplicate)&#45;&gt;2,&#45;1 (Ammonia) -->
<g id="edge37" class="edge">
<title>&#45;6,8 (Copper plate duplicate)&#45;&gt;2,&#45;1 (Ammonia)</title>
<path fill="none" stroke="black" stroke-width="1.19" d="M3238.63,-2964.93C2997.34,-3052.75 1899.41,-3452.36 1646.27,-3544.5"/>
<polygon fill="black" stroke="black" stroke-width="1.19" points="1644.78,-3541.32 1636.58,-3548.03 1647.18,-3547.9 1644.78,-3541.32"/>
<text text-anchor="middle" x="2371.45" y="-3258.52" font-family="Times,serif" font-size="14.00">copper&#45;plate*40080</text>
</g>
<!-- 8,&#45;10 (Copper plate duplicater) -->
<g id="node15" class="node">
<title>8,&#45;10 (Copper plate duplicater)</title>
<ellipse fill="none" stroke="black" cx="215.15" cy="-1175.08" rx="154.07" ry="18"/>
<text text-anchor="middle" x="215.15" y="-1171.38" font-family="Times,serif" font-size="14.00">8,&#45;10 (Copper plate duplicater)</text>
</g>
<!-- 8,&#45;10 (Copper plate duplicater)&#45;&gt;0,0 (LE BUS) -->
<g id="edge30" class="edge">
<title>8,&#45;10 (Copper plate duplicater)&#45;&gt;0,0 (LE BUS)</title>
<path fill="none" stroke="black" stroke-width="0.33" d="M300.59,-1190.14C786.86,-1275.88 3199.03,-1701.22 3638.13,-1778.64"/>
<polygon fill="black" stroke="black" stroke-width="0.33" points="3637.67,-1782.11 3648.13,-1780.4 3638.89,-1775.22 3637.67,-1782.11"/>
<text text-anchor="middle" x="1898.36" y="-1488.19" font-family="Times,serif" font-size="14.00">copper&#45;plate*11200</text>
</g>
<!-- 8,&#45;10 (Copper plate duplicater)&#45;&gt;3,3 (Random electronic components, Small Parts) -->
<g id="edge13" class="edge">
<title>8,&#45;10 (Copper plate duplicater)&#45;&gt;3,3 (Random electronic components, Small Parts)</title>
<path fill="none" stroke="black" stroke-width="0.93" d="M225.55,-1157.06C271.58,-1077.33 457.13,-755.95 512.23,-660.51"/>
<polygon fill="black" stroke="black" stroke-width="0.93" points="515.32,-662.16 517.29,-651.75 509.26,-658.66 515.32,-662.16"/>
<text text-anchor="middle" x="297.89" y="-912.59" font-family="Times,serif" font-size="14.00">copper&#45;plate*31440</text>
</g>
<!-- 8,&#45;10 (Copper plate duplicater)&#45;&gt;2,5 (Simple Circuits) -->
<g id="edge28" class="edge">
<title>8,&#45;10 (Copper plate duplicater)&#45;&gt;2,5 (Simple Circuits)</title>
<path fill="none" stroke="black" stroke-width="0.15" d="M211.96,-1193.17C196.6,-1280.25 130.28,-1656.4 111.54,-1762.68"/>
<polygon fill="black" stroke="black" stroke-width="0.15" points="108.07,-1762.2 109.78,-1772.65 114.96,-1763.41 108.07,-1762.2"/>
<text text-anchor="middle" x="95.25" y="-1481.72" font-family="Times,serif" font-size="14.00">copper&#45;plate*5120</text>
</g>
<!-- 8,&#45;10 (Copper plate duplicater)&#45;&gt;&#45;5,0 (Petri dishes) -->
<g id="edge48" class="edge">
<title>8,&#45;10 (Copper plate duplicater)&#45;&gt;&#45;5,0 (Petri dishes)</title>
<path fill="none" stroke="black" stroke-width="0.06" d="M215.15,-1193.44C215.15,-1331.76 215.15,-2209.39 215.15,-2378.31"/>
<polygon fill="black" stroke="black" stroke-width="0.06" points="211.65,-2378.39 215.15,-2388.39 218.65,-2378.39 211.65,-2378.39"/>
<text text-anchor="middle" x="281.65" y="-1789.67" font-family="Times,serif" font-size="14.00">copper&#45;plate*2160</text>
</g>
<!-- 8,&#45;10 (Copper plate duplicater)&#45;&gt;&#45;5,2 (Optical fiber) -->
<g id="edge32" class="edge">
<title>8,&#45;10 (Copper plate duplicater)&#45;&gt;&#45;5,2 (Optical fiber)</title>
<path fill="none" stroke="black" stroke-width="0.61" d="M218.34,-1193.2C248.66,-1365.15 485.32,-2707.32 522.75,-2919.59"/>
<polygon fill="black" stroke="black" stroke-width="0.61" points="519.34,-2920.38 524.52,-2929.62 526.23,-2919.17 519.34,-2920.38"/>
<text text-anchor="middle" x="299.55" y="-2060.19" font-family="Times,serif" font-size="14.00">copper&#45;plate*20560</text>
</g>
<!-- 8,&#45;10 (Copper plate duplicater)&#45;&gt;&#45;6,&#45;4 (High&#45;Power Resistors, Ceramic Capacitor, Inductor) -->
<g id="edge41" class="edge">
<title>8,&#45;10 (Copper plate duplicater)&#45;&gt;&#45;6,&#45;4 (High&#45;Power Resistors, Ceramic Capacitor, Inductor)</title>
<path fill="none" stroke="black" stroke-width="0.51" d="M230.41,-1193.27C403.39,-1399.42 1992.21,-3292.89 2197.46,-3537.5"/>
<polygon fill="black" stroke="black" stroke-width="0.51" points="2194.8,-3539.78 2203.91,-3545.19 2200.17,-3535.28 2194.8,-3539.78"/>
<text text-anchor="middle" x="1142.94" y="-2369.18" font-family="Times,serif" font-size="14.00">copper&#45;plate*17200</text>
</g>
<!-- 8,&#45;10 (Copper plate duplicater)&#45;&gt;6,4 (Electronic components) -->
<g id="edge36" class="edge">
<title>8,&#45;10 (Copper plate duplicater)&#45;&gt;6,4 (Electronic components)</title>
<path fill="none" stroke="black" stroke-width="0.43" d="M300.48,-1160.03C738.92,-1082.72 2735.52,-730.67 3192.34,-650.12"/>
<polygon fill="black" stroke="black" stroke-width="0.43" points="3193.28,-653.51 3202.52,-648.32 3192.07,-646.61 3193.28,-653.51"/>
<text text-anchor="middle" x="1675.41" y="-908.87" font-family="Times,serif" font-size="14.00">copper&#45;plate*14400</text>
</g>
<!-- 8,&#45;10 (Copper plate duplicater)&#45;&gt;2,14 (Latex) -->
<g id="edge24" class="edge">
<title>8,&#45;10 (Copper plate duplicater)&#45;&gt;2,14 (Latex)</title>
<path fill="none" stroke="black" stroke-width="0.74" d="M262.34,-1157.9C582.15,-1041.5 2428.87,-369.35 2756.91,-249.95"/>
<polygon fill="black" stroke="black" stroke-width="0.74" points="2758.41,-253.13 2766.61,-246.42 2756.02,-246.55 2758.41,-253.13"/>
<text text-anchor="middle" x="1438.63" y="-707.73" font-family="Times,serif" font-size="14.00">copper&#45;plate*25040</text>
</g>
<!-- 8,&#45;10 (Copper plate duplicater)&#45;&gt;2,&#45;1 (Ammonia) -->
<g id="edge35" class="edge">
<title>8,&#45;10 (Copper plate duplicater)&#45;&gt;2,&#45;1 (Ammonia)</title>
<path fill="none" stroke="black" stroke-width="0.47" d="M225.65,-1193.27C344.56,-1399.22 1435.76,-3289.24 1578.68,-3536.79"/>
<polygon fill="black" stroke="black" stroke-width="0.47" points="1575.69,-3538.61 1583.72,-3545.52 1581.75,-3535.11 1575.69,-3538.61"/>
<text text-anchor="middle" x="831.17" y="-2368.83" font-family="Times,serif" font-size="14.00">copper&#45;plate*16000</text>
</g>
<!-- &#45;2,5 (Rare Earth Oxides) -->
<g id="node16" class="node">
<title>&#45;2,5 (Rare Earth Oxides)</title>
<ellipse fill="none" stroke="black" cx="3598.22" cy="-1175.08" rx="124.28" ry="18"/>
<text text-anchor="middle" x="3598.22" y="-1171.38" font-family="Times,serif" font-size="14.00">&#45;2,5 (Rare Earth Oxides)</text>
</g>
<!-- &#45;2,5 (Rare Earth Oxides)&#45;&gt;0,0 (LE BUS) -->
<g id="edge18" class="edge">
<title>&#45;2,5 (Rare Earth Oxides)&#45;&gt;0,0 (LE BUS)</title>
<path fill="none" stroke="black" stroke-width="0.33" d="M3601.41,-1193.17C3616.76,-1280.25 3683.09,-1656.4 3701.83,-1762.68"/>
<polygon fill="black" stroke="black" stroke-width="0.33" points="3698.4,-1763.41 3703.58,-1772.65 3705.29,-1762.2 3698.4,-1763.41"/>
<text text-anchor="middle" x="3580.62" y="-1481.72" font-family="Times,serif" font-size="14.00">copper&#45;plate*10992</text>
</g>
<!-- &#45;2,5 (Rare Earth Oxides)&#45;&gt;6,4 (Electronic components) -->
<g id="edge29" class="edge">
<title>&#45;2,5 (Rare Earth Oxides)&#45;&gt;6,4 (Electronic components)</title>
<path fill="none" stroke="black" stroke-width="0.06" d="M3587.82,-1157.06C3541.78,-1077.33 3356.23,-755.95 3301.13,-660.51"/>
<polygon fill="black" stroke="black" stroke-width="0.06" points="3304.1,-658.66 3296.07,-651.75 3298.04,-662.16 3304.1,-658.66"/>
<text text-anchor="middle" x="3377.97" y="-912.59" font-family="Times,serif" font-size="14.00">copper&#45;plate*2016</text>
</g>
</g>
</svg>
