<?xml version="1.0" encoding="UTF-8" standalone="no"?>
<!DOCTYPE svg PUBLIC "-//W3C//DTD SVG 1.1//EN"
 "http://www.w3.org/Graphics/SVG/1.1/DTD/svg11.dtd">
<!-- Generated by graphviz version 2.43.0 (0)
 -->
<!-- Title: %3 Pages: 1 -->
<svg width="1413pt" height="976pt"
 viewBox="0.00 0.00 1412.80 975.78" xmlns="http://www.w3.org/2000/svg" xmlns:xlink="http://www.w3.org/1999/xlink">
<g id="graph0" class="graph" transform="scale(1 1) rotate(0) translate(4 971.78)">
<title>%3</title>
<polygon fill="white" stroke="transparent" points="-4,4 -4,-971.78 1408.8,-971.78 1408.8,4 -4,4"/>
<!-- &#45;6,5 (Acetelyne) -->
<g id="node1" class="node">
<title>&#45;6,5 (Acetelyne)</title>
<ellipse fill="none" stroke="black" cx="890.14" cy="-18" rx="83.39" ry="18"/>
<text text-anchor="middle" x="890.14" y="-14.3" font-family="Times,serif" font-size="14.00">&#45;6,5 (Acetelyne)</text>
</g>
<!-- 0,0 (LE BUS) -->
<g id="node2" class="node">
<title>0,0 (LE BUS)</title>
<ellipse fill="none" stroke="black" cx="352.18" cy="-18" rx="71.49" ry="18"/>
<text text-anchor="middle" x="352.18" y="-14.3" font-family="Times,serif" font-size="14.00">0,0 (LE BUS)</text>
</g>
<!-- &#45;6,5 (Acetelyne)&#45;&gt;0,0 (LE BUS) -->
<g id="edge1" class="edge">
<title>&#45;6,5 (Acetelyne)&#45;&gt;0,0 (LE BUS)</title>
<path fill="none" stroke="black" stroke-width="0.45" d="M806.67,-18C705.1,-18 534.7,-18 433.91,-18"/>
<polygon fill="black" stroke="black" stroke-width="0.45" points="433.78,-14.5 423.78,-18 433.78,-21.5 433.78,-14.5"/>
<text text-anchor="middle" x="535.79" y="-21.8" font-family="Times,serif" font-size="14.00">acetylene&#45;barrel*34192</text>
</g>
<!-- &#45;3,5 (fluid=arqad&#45;honey Honey) -->
<g id="node4" class="node">
<title>&#45;3,5 (fluid=arqad&#45;honey Honey)</title>
<ellipse fill="none" stroke="black" cx="890.14" cy="-949.78" rx="157.07" ry="18"/>
<text text-anchor="middle" x="890.14" y="-946.08" font-family="Times,serif" font-size="14.00">&#45;3,5 (fluid=arqad&#45;honey Honey)</text>
</g>
<!-- &#45;6,5 (Acetelyne)&#45;&gt;&#45;3,5 (fluid=arqad&#45;honey Honey) -->
<g id="edge3" class="edge">
<title>&#45;6,5 (Acetelyne)&#45;&gt;&#45;3,5 (fluid=arqad&#45;honey Honey)</title>
<path fill="none" stroke="black" stroke-width="3.09" d="M890.14,-36.19C890.14,-151.45 890.14,-779.77 890.14,-921.41"/>
<polygon fill="black" stroke="black" stroke-width="3.09" points="886.64,-921.47 890.14,-931.47 893.64,-921.47 886.64,-921.47"/>
<text text-anchor="middle" x="801.14" y="-482.6" font-family="Times,serif" font-size="14.00">acetylene&#45;barrel*233568</text>
</g>
<!-- &#45;5,1 (Acetylene) -->
<g id="node3" class="node">
<title>&#45;5,1 (Acetylene)</title>
<ellipse fill="none" stroke="black" cx="83.19" cy="-483.89" rx="83.39" ry="18"/>
<text text-anchor="middle" x="83.19" y="-480.19" font-family="Times,serif" font-size="14.00">&#45;5,1 (Acetylene)</text>
</g>
<!-- &#45;5,1 (Acetylene)&#45;&gt;0,0 (LE BUS) -->
<g id="edge6" class="edge">
<title>&#45;5,1 (Acetylene)&#45;&gt;0,0 (LE BUS)</title>
<path fill="none" stroke="black" stroke-width="0.01" d="M93.57,-465.91C134.84,-394.43 287.47,-130.08 336.73,-44.75"/>
<polygon fill="black" stroke="black" stroke-width="0.01" points="339.86,-46.33 341.83,-35.92 333.8,-42.83 339.86,-46.33"/>
<text text-anchor="middle" x="139.65" y="-259.13" font-family="Times,serif" font-size="14.00">acetylene&#45;barrel*928</text>
</g>
<!-- &#45;5,1 (Acetylene)&#45;&gt;&#45;3,5 (fluid=arqad&#45;honey Honey) -->
<g id="edge2" class="edge">
<title>&#45;5,1 (Acetylene)&#45;&gt;&#45;3,5 (fluid=arqad&#45;honey Honey)</title>
<path fill="none" stroke="black" stroke-width="0.78" d="M112.39,-500.75C235.15,-571.62 709.59,-845.54 850.48,-926.88"/>
<polygon fill="black" stroke="black" stroke-width="0.78" points="848.86,-929.99 859.27,-931.96 852.36,-923.93 848.86,-929.99"/>
<text text-anchor="middle" x="396.93" y="-717.62" font-family="Times,serif" font-size="14.00">acetylene&#45;barrel*58784</text>
</g>
<!-- &#45;2,6 (Wrong ratio of Calcium Carbide to Acetalene) -->
<g id="node5" class="node">
<title>&#45;2,6 (Wrong ratio of Calcium Carbide to Acetalene)</title>
<ellipse fill="none" stroke="black" cx="1159.12" cy="-483.89" rx="245.86" ry="18"/>
<text text-anchor="middle" x="1159.12" y="-480.19" font-family="Times,serif" font-size="14.00">&#45;2,6 (Wrong ratio of Calcium Carbide to Acetalene)</text>
</g>
<!-- &#45;2,6 (Wrong ratio of Calcium Carbide to Acetalene)&#45;&gt;0,0 (LE BUS) -->
<g id="edge4" class="edge">
<title>&#45;2,6 (Wrong ratio of Calcium Carbide to Acetalene)&#45;&gt;0,0 (LE BUS)</title>
<path fill="none" stroke="black" stroke-width="0.72" d="M1127.99,-465.91C1001.7,-393.01 527.95,-119.48 390.05,-39.87"/>
<polygon fill="black" stroke="black" stroke-width="0.72" points="391.5,-36.66 381.09,-34.69 388,-42.72 391.5,-36.66"/>
<text text-anchor="middle" x="674.52" y="-256.69" font-family="Times,serif" font-size="14.00">acetylene&#45;barrel*54080</text>
</g>
<!-- &#45;2,6 (Wrong ratio of Calcium Carbide to Acetalene)&#45;&gt;&#45;3,5 (fluid=arqad&#45;honey Honey) -->
<g id="edge5" class="edge">
<title>&#45;2,6 (Wrong ratio of Calcium Carbide to Acetalene)&#45;&gt;&#45;3,5 (fluid=arqad&#45;honey Honey)</title>
<path fill="none" stroke="black" stroke-width="2.9" d="M1148.58,-502.16C1107.11,-573.99 955.06,-837.34 905.72,-922.8"/>
<polygon fill="black" stroke="black" stroke-width="2.9" points="902.58,-921.24 900.61,-931.65 908.64,-924.74 902.58,-921.24"/>
<text text-anchor="middle" x="938.15" y="-716.28" font-family="Times,serif" font-size="14.00">acetylene&#45;barrel*219120</text>
</g>
<!-- &#45;5,&#45;4 (low priority (slaked)? lime) -->
<g id="node6" class="node">
<title>&#45;5,&#45;4 (low priority (slaked)? lime)</title>
<ellipse fill="none" stroke="black" cx="352.18" cy="-949.78" rx="162.47" ry="18"/>
<text text-anchor="middle" x="352.18" y="-946.08" font-family="Times,serif" font-size="14.00">&#45;5,&#45;4 (low priority (slaked)? lime)</text>
</g>
<!-- &#45;5,&#45;4 (low priority (slaked)? lime)&#45;&gt;0,0 (LE BUS) -->
<g id="edge8" class="edge">
<title>&#45;5,&#45;4 (low priority (slaked)? lime)&#45;&gt;0,0 (LE BUS)</title>
<path fill="none" stroke="black" stroke-width="0.01" d="M352.18,-931.59C352.18,-816.33 352.18,-188.01 352.18,-46.37"/>
<polygon fill="black" stroke="black" stroke-width="0.01" points="355.68,-46.31 352.18,-36.31 348.68,-46.31 355.68,-46.31"/>
<text text-anchor="middle" x="276.68" y="-492.78" font-family="Times,serif" font-size="14.00">acetylene&#45;barrel*448</text>
</g>
<!-- &#45;5,&#45;4 (low priority (slaked)? lime)&#45;&gt;&#45;3,5 (fluid=arqad&#45;honey Honey) -->
<g id="edge7" class="edge">
<title>&#45;5,&#45;4 (low priority (slaked)? lime)&#45;&gt;&#45;3,5 (fluid=arqad&#45;honey Honey)</title>
<path fill="none" stroke="black" stroke-width="0.04" d="M514.68,-949.78C580.43,-949.78 656.31,-949.78 722.58,-949.78"/>
<polygon fill="black" stroke="black" stroke-width="0.04" points="722.7,-953.28 732.7,-949.78 722.7,-946.28 722.7,-953.28"/>
<text text-anchor="middle" x="618.63" y="-938.58" font-family="Times,serif" font-size="14.00">acetylene&#45;barrel*2784</text>
</g>
</g>
</svg>
