<?xml version="1.0" encoding="UTF-8" standalone="no"?>
<!DOCTYPE svg PUBLIC "-//W3C//DTD SVG 1.1//EN"
 "http://www.w3.org/Graphics/SVG/1.1/DTD/svg11.dtd">
<!-- Generated by graphviz version 2.43.0 (0)
 -->
<!-- Title: %3 Pages: 1 -->
<svg width="764pt" height="44pt"
 viewBox="0.00 0.00 763.60 44.00" xmlns="http://www.w3.org/2000/svg" xmlns:xlink="http://www.w3.org/1999/xlink">
<g id="graph0" class="graph" transform="scale(1 1) rotate(0) translate(4 40)">
<title>%3</title>
<polygon fill="white" stroke="transparent" points="-4,4 -4,-40 759.6,-40 759.6,4 -4,4"/>
<!-- 2,6 (Refined Syngas) -->
<g id="node1" class="node">
<title>2,6 (Refined Syngas)</title>
<ellipse fill="none" stroke="black" cx="374.87" cy="-18" rx="107.48" ry="18"/>
<text text-anchor="middle" x="374.87" y="-14.3" font-family="Times,serif" font-size="14.00">2,6 (Refined Syngas)</text>
</g>
<!-- 0,8 (Tar from Coke) -->
<g id="node2" class="node">
<title>0,8 (Tar from Coke)</title>
<ellipse fill="none" stroke="black" cx="654.85" cy="-18" rx="100.98" ry="18"/>
<text text-anchor="middle" x="654.85" y="-14.3" font-family="Times,serif" font-size="14.00">0,8 (Tar from Coke)</text>
</g>
<!-- 2,6 (Refined Syngas)&#45;&gt;0,8 (Tar from Coke) -->
<g id="edge1" class="edge">
<title>2,6 (Refined Syngas)&#45;&gt;0,8 (Tar from Coke)</title>
<path fill="none" stroke="black" stroke-width="1.83" d="M482.32,-18C502.37,-18 523.37,-18 543.53,-18"/>
<polygon fill="black" stroke="black" stroke-width="1.83" points="543.68,-21.5 553.68,-18 543.68,-14.5 543.68,-21.5"/>
<text text-anchor="middle" x="512.93" y="-6.8" font-family="Times,serif" font-size="14.00">refsyngas&#45;barrel*17883</text>
</g>
<!-- 3,1 (Mining Brick) -->
<g id="node3" class="node">
<title>3,1 (Mining Brick)</title>
<ellipse fill="none" stroke="black" cx="94.89" cy="-18" rx="94.78" ry="18"/>
<text text-anchor="middle" x="94.89" y="-14.3" font-family="Times,serif" font-size="14.00">3,1 (Mining Brick)</text>
</g>
<!-- 2,6 (Refined Syngas)&#45;&gt;3,1 (Mining Brick) -->
<g id="edge2" class="edge">
<title>2,6 (Refined Syngas)&#45;&gt;3,1 (Mining Brick)</title>
<path fill="none" stroke="black" stroke-width="0.17" d="M267.43,-18C245.36,-18 222.15,-18 200.16,-18"/>
<polygon fill="black" stroke="black" stroke-width="0.17" points="200.16,-14.5 190.16,-18 200.16,-21.5 200.16,-14.5"/>
<text text-anchor="middle" x="193.55" y="-6.8" font-family="Times,serif" font-size="14.00">refsyngas&#45;barrel*1712</text>
</g>
</g>
</svg>
