<?xml version="1.0" encoding="UTF-8" standalone="no"?>
<!DOCTYPE svg PUBLIC "-//W3C//DTD SVG 1.1//EN"
 "http://www.w3.org/Graphics/SVG/1.1/DTD/svg11.dtd">
<!-- Generated by graphviz version 2.43.0 (0)
 -->
<!-- Title: %3 Pages: 1 -->
<svg width="1165pt" height="44pt"
 viewBox="0.00 0.00 1164.61 44.00" xmlns="http://www.w3.org/2000/svg" xmlns:xlink="http://www.w3.org/1999/xlink">
<g id="graph0" class="graph" transform="scale(1 1) rotate(0) translate(4 40)">
<title>%3</title>
<polygon fill="white" stroke="transparent" points="-4,4 -4,-40 1160.61,-40 1160.61,4 -4,4"/>
<!-- &#45;4,&#45;4 (Reserved For Aluminium Ore Drop, Aluminium) -->
<g id="node1" class="node">
<title>&#45;4,&#45;4 (Reserved For Aluminium Ore Drop, Aluminium)</title>
<ellipse fill="none" stroke="black" cx="613.4" cy="-18" rx="258.05" ry="18"/>
<text text-anchor="middle" x="613.4" y="-14.3" font-family="Times,serif" font-size="14.00">&#45;4,&#45;4 (Reserved For Aluminium Ore Drop, Aluminium)</text>
</g>
<!-- 0,0 (LE BUS) -->
<g id="node2" class="node">
<title>0,0 (LE BUS)</title>
<ellipse fill="none" stroke="black" cx="1085.12" cy="-18" rx="71.49" ry="18"/>
<text text-anchor="middle" x="1085.12" y="-14.3" font-family="Times,serif" font-size="14.00">0,0 (LE BUS)</text>
</g>
<!-- &#45;4,&#45;4 (Reserved For Aluminium Ore Drop, Aluminium)&#45;&gt;0,0 (LE BUS) -->
<g id="edge1" class="edge">
<title>&#45;4,&#45;4 (Reserved For Aluminium Ore Drop, Aluminium)&#45;&gt;0,0 (LE BUS)</title>
<path fill="none" stroke="black" stroke-width="1.84" d="M871.69,-18C919.41,-18 965.89,-18 1003.23,-18"/>
<polygon fill="black" stroke="black" stroke-width="1.84" points="1003.51,-21.5 1013.51,-18 1003.51,-14.5 1003.51,-21.5"/>
<text text-anchor="middle" x="937.46" y="-6.8" font-family="Times,serif" font-size="14.00">aluminium&#45;plate*23840</text>
</g>
<!-- 6,4 (Electronic components) -->
<g id="node3" class="node">
<title>6,4 (Electronic components)</title>
<ellipse fill="none" stroke="black" cx="141.69" cy="-18" rx="141.88" ry="18"/>
<text text-anchor="middle" x="141.69" y="-14.3" font-family="Times,serif" font-size="14.00">6,4 (Electronic components)</text>
</g>
<!-- &#45;4,&#45;4 (Reserved For Aluminium Ore Drop, Aluminium)&#45;&gt;6,4 (Electronic components) -->
<g id="edge2" class="edge">
<title>&#45;4,&#45;4 (Reserved For Aluminium Ore Drop, Aluminium)&#45;&gt;6,4 (Electronic components)</title>
<path fill="none" stroke="black" stroke-width="0.16" d="M355.12,-18C334.17,-18 313.46,-18 293.66,-18"/>
<polygon fill="black" stroke="black" stroke-width="0.16" points="293.39,-14.5 283.39,-18 293.39,-21.5 293.39,-14.5"/>
<text text-anchor="middle" x="284.39" y="-6.8" font-family="Times,serif" font-size="14.00">aluminium&#45;plate*2080</text>
</g>
</g>
</svg>
