<?xml version="1.0" encoding="UTF-8" standalone="no"?>
<!DOCTYPE svg PUBLIC "-//W3C//DTD SVG 1.1//EN"
 "http://www.w3.org/Graphics/SVG/1.1/DTD/svg11.dtd">
<!-- Generated by graphviz version 2.43.0 (0)
 -->
<!-- Title: %3 Pages: 1 -->
<svg width="836pt" height="564pt"
 viewBox="0.00 0.00 836.20 563.64" xmlns="http://www.w3.org/2000/svg" xmlns:xlink="http://www.w3.org/1999/xlink">
<g id="graph0" class="graph" transform="scale(1 1) rotate(0) translate(4 559.64)">
<title>%3</title>
<polygon fill="white" stroke="transparent" points="-4,4 -4,-559.64 832.2,-559.64 832.2,4 -4,4"/>
<!-- 4,&#45;2 (Ceramic) -->
<g id="node1" class="node">
<title>4,&#45;2 (Ceramic)</title>
<ellipse fill="none" stroke="black" cx="100" cy="-18" rx="76.89" ry="18"/>
<text text-anchor="middle" x="100" y="-14.3" font-family="Times,serif" font-size="14.00">4,&#45;2 (Ceramic)</text>
</g>
<!-- 0,0 (LE BUS) -->
<g id="node2" class="node">
<title>0,0 (LE BUS)</title>
<ellipse fill="none" stroke="black" cx="100" cy="-537.64" rx="71.49" ry="18"/>
<text text-anchor="middle" x="100" y="-533.94" font-family="Times,serif" font-size="14.00">0,0 (LE BUS)</text>
</g>
<!-- 4,&#45;2 (Ceramic)&#45;&gt;0,0 (LE BUS) -->
<g id="edge1" class="edge">
<title>4,&#45;2 (Ceramic)&#45;&gt;0,0 (LE BUS)</title>
<path fill="none" stroke="black" stroke-width="0.38" d="M100,-36.19C100,-113.51 100,-415.26 100,-509.42"/>
<polygon fill="black" stroke="black" stroke-width="0.38" points="96.5,-509.6 100,-519.6 103.5,-509.6 96.5,-509.6"/>
<text text-anchor="middle" x="50" y="-276.6" font-family="Times,serif" font-size="14.00">ceramic*5312</text>
</g>
<!-- &#45;6,&#45;4 (High&#45;Power Resistors, Ceramic Capacitor, Inductor) -->
<g id="node3" class="node">
<title>&#45;6,&#45;4 (High&#45;Power Resistors, Ceramic Capacitor, Inductor)</title>
<ellipse fill="none" stroke="black" cx="550.02" cy="-277.82" rx="278.35" ry="18"/>
<text text-anchor="middle" x="550.02" y="-274.12" font-family="Times,serif" font-size="14.00">&#45;6,&#45;4 (High&#45;Power Resistors, Ceramic Capacitor, Inductor)</text>
</g>
<!-- 4,&#45;2 (Ceramic)&#45;&gt;&#45;6,&#45;4 (High&#45;Power Resistors, Ceramic Capacitor, Inductor) -->
<g id="edge2" class="edge">
<title>4,&#45;2 (Ceramic)&#45;&gt;&#45;6,&#45;4 (High&#45;Power Resistors, Ceramic Capacitor, Inductor)</title>
<path fill="none" stroke="black" stroke-width="1.37" d="M129.18,-34.85C207.23,-79.91 420.91,-203.28 510.1,-254.77"/>
<polygon fill="black" stroke="black" stroke-width="1.37" points="508.42,-257.85 518.83,-259.81 511.92,-251.78 508.42,-257.85"/>
<text text-anchor="middle" x="265.14" y="-148.61" font-family="Times,serif" font-size="14.00">ceramic*18992</text>
</g>
<!-- 0,0 (LE BUS)&#45;&gt;&#45;6,&#45;4 (High&#45;Power Resistors, Ceramic Capacitor, Inductor) -->
<g id="edge3" class="edge">
<title>0,0 (LE BUS)&#45;&gt;&#45;6,&#45;4 (High&#45;Power Resistors, Ceramic Capacitor, Inductor)</title>
<path fill="none" stroke="black" stroke-width="1.24" d="M128.84,-520.99C206.58,-476.11 420.64,-352.52 510.01,-300.92"/>
<polygon fill="black" stroke="black" stroke-width="1.24" points="511.86,-303.9 518.77,-295.87 508.36,-297.84 511.86,-303.9"/>
<text text-anchor="middle" x="264.92" y="-414.76" font-family="Times,serif" font-size="14.00">ceramic*17184</text>
</g>
</g>
</svg>
