<?xml version="1.0" encoding="UTF-8" standalone="no"?>
<!DOCTYPE svg PUBLIC "-//W3C//DTD SVG 1.1//EN"
 "http://www.w3.org/Graphics/SVG/1.1/DTD/svg11.dtd">
<!-- Generated by graphviz version 2.43.0 (0)
 -->
<!-- Title: %3 Pages: 1 -->
<svg width="802pt" height="44pt"
 viewBox="0.00 0.00 801.94 44.00" xmlns="http://www.w3.org/2000/svg" xmlns:xlink="http://www.w3.org/1999/xlink">
<g id="graph0" class="graph" transform="scale(1 1) rotate(0) translate(4 40)">
<title>%3</title>
<polygon fill="white" stroke="transparent" points="-4,4 -4,-40 797.94,-40 797.94,4 -4,4"/>
<!-- 4,&#45;2 (Ceramic) -->
<g id="node1" class="node">
<title>4,&#45;2 (Ceramic)</title>
<ellipse fill="none" stroke="black" cx="361.87" cy="-18" rx="76.89" ry="18"/>
<text text-anchor="middle" x="361.87" y="-14.3" font-family="Times,serif" font-size="14.00">4,&#45;2 (Ceramic)</text>
</g>
<!-- 6,4 (Electronic components) -->
<g id="node2" class="node">
<title>6,4 (Electronic components)</title>
<ellipse fill="none" stroke="black" cx="652.25" cy="-18" rx="141.88" ry="18"/>
<text text-anchor="middle" x="652.25" y="-14.3" font-family="Times,serif" font-size="14.00">6,4 (Electronic components)</text>
</g>
<!-- 4,&#45;2 (Ceramic)&#45;&gt;6,4 (Electronic components) -->
<g id="edge1" class="edge">
<title>4,&#45;2 (Ceramic)&#45;&gt;6,4 (Electronic components)</title>
<path fill="none" stroke="black" stroke-width="1.79" d="M438.93,-18C458,-18 479.11,-18 500.4,-18"/>
<polygon fill="black" stroke="black" stroke-width="1.79" points="500.52,-21.5 510.52,-18 500.52,-14.5 500.52,-21.5"/>
<text text-anchor="middle" x="469.66" y="-6.8" font-family="Times,serif" font-size="14.00">cermet*33952</text>
</g>
<!-- 0,0 (LE BUS) -->
<g id="node3" class="node">
<title>0,0 (LE BUS)</title>
<ellipse fill="none" stroke="black" cx="71.49" cy="-18" rx="71.49" ry="18"/>
<text text-anchor="middle" x="71.49" y="-14.3" font-family="Times,serif" font-size="14.00">0,0 (LE BUS)</text>
</g>
<!-- 4,&#45;2 (Ceramic)&#45;&gt;0,0 (LE BUS) -->
<g id="edge2" class="edge">
<title>4,&#45;2 (Ceramic)&#45;&gt;0,0 (LE BUS)</title>
<path fill="none" stroke="black" stroke-width="0.21" d="M284.82,-18C244.31,-18 194.64,-18 153.43,-18"/>
<polygon fill="black" stroke="black" stroke-width="0.21" points="153.41,-14.5 143.41,-18 153.41,-21.5 153.41,-14.5"/>
<text text-anchor="middle" x="219.12" y="-6.8" font-family="Times,serif" font-size="14.00">cermet*4000</text>
</g>
</g>
</svg>
