<?xml version="1.0" encoding="UTF-8" standalone="no"?>
<!DOCTYPE svg PUBLIC "-//W3C//DTD SVG 1.1//EN"
 "http://www.w3.org/Graphics/SVG/1.1/DTD/svg11.dtd">
<!-- Generated by graphviz version 2.43.0 (0)
 -->
<!-- Title: %3 Pages: 1 -->
<svg width="1331pt" height="965pt"
 viewBox="0.00 0.00 1330.52 964.86" xmlns="http://www.w3.org/2000/svg" xmlns:xlink="http://www.w3.org/1999/xlink">
<g id="graph0" class="graph" transform="scale(1 1) rotate(0) translate(4 960.86)">
<title>%3</title>
<polygon fill="white" stroke="transparent" points="-4,4 -4,-960.86 1326.52,-960.86 1326.52,4 -4,4"/>
<!-- 8,&#45;1 () -->
<g id="node1" class="node">
<title>8,&#45;1 ()</title>
<ellipse fill="none" stroke="black" cx="536.47" cy="-18" rx="38.19" ry="18"/>
<text text-anchor="middle" x="536.47" y="-14.3" font-family="Times,serif" font-size="14.00">8,&#45;1 ()</text>
</g>
<!-- 2,8 (Graphite) -->
<g id="node2" class="node">
<title>2,8 (Graphite)</title>
<ellipse fill="none" stroke="black" cx="76.04" cy="-478.43" rx="76.09" ry="18"/>
<text text-anchor="middle" x="76.04" y="-474.73" font-family="Times,serif" font-size="14.00">2,8 (Graphite)</text>
</g>
<!-- 8,&#45;1 ()&#45;&gt;2,8 (Graphite) -->
<g id="edge1" class="edge">
<title>8,&#45;1 ()&#45;&gt;2,8 (Graphite)</title>
<path fill="none" stroke="black" stroke-width="0.97" d="M520.09,-34.39C451.18,-103.29 184.67,-369.81 101.19,-453.28"/>
<polygon fill="black" stroke="black" stroke-width="0.97" points="98.29,-451.23 93.7,-460.78 103.24,-456.18 98.29,-451.23"/>
<text text-anchor="middle" x="254.64" y="-247.63" font-family="Times,serif" font-size="14.00">raw&#45;coal*93696</text>
</g>
<!-- &#45;5,&#45;1 (Coal and Coke and Syngas and Ash and Coke Oven Gas and...) -->
<g id="node4" class="node">
<title>&#45;5,&#45;1 (Coal and Coke and Syngas and Ash and Coke Oven Gas and...)</title>
<ellipse fill="none" stroke="black" cx="996.9" cy="-478.43" rx="325.74" ry="18"/>
<text text-anchor="middle" x="996.9" y="-474.73" font-family="Times,serif" font-size="14.00">&#45;5,&#45;1 (Coal and Coke and Syngas and Ash and Coke Oven Gas and...)</text>
</g>
<!-- 8,&#45;1 ()&#45;&gt;&#45;5,&#45;1 (Coal and Coke and Syngas and Ash and Coke Oven Gas and...) -->
<g id="edge4" class="edge">
<title>8,&#45;1 ()&#45;&gt;&#45;5,&#45;1 (Coal and Coke and Syngas and Ash and Coke Oven Gas and...)</title>
<path fill="none" stroke="black" stroke-width="0.26" d="M552.86,-34.39C621.68,-103.21 887.62,-369.14 971.44,-452.97"/>
<polygon fill="black" stroke="black" stroke-width="0.26" points="969.2,-455.68 978.75,-460.28 974.15,-450.73 969.2,-455.68"/>
<text text-anchor="middle" x="706.15" y="-247.48" font-family="Times,serif" font-size="14.00">raw&#45;coal*25104</text>
</g>
<!-- 6,&#45;3 (Mine Me) -->
<g id="node3" class="node">
<title>6,&#45;3 (Mine Me)</title>
<ellipse fill="none" stroke="black" cx="536.47" cy="-938.86" rx="79.09" ry="18"/>
<text text-anchor="middle" x="536.47" y="-935.16" font-family="Times,serif" font-size="14.00">6,&#45;3 (Mine Me)</text>
</g>
<!-- 6,&#45;3 (Mine Me)&#45;&gt;2,8 (Graphite) -->
<g id="edge3" class="edge">
<title>6,&#45;3 (Mine Me)&#45;&gt;2,8 (Graphite)</title>
<path fill="none" stroke="black" stroke-width="1.45" d="M518.71,-921.09C447.7,-850.09 184.16,-586.54 101.21,-503.6"/>
<polygon fill="black" stroke="black" stroke-width="1.45" points="103.3,-500.74 93.76,-496.14 98.35,-505.69 103.3,-500.74"/>
<text text-anchor="middle" x="249.46" y="-716.14" font-family="Times,serif" font-size="14.00">raw&#45;coal*139296</text>
</g>
<!-- 6,&#45;3 (Mine Me)&#45;&gt;&#45;5,&#45;1 (Coal and Coke and Syngas and Ash and Coke Oven Gas and...) -->
<g id="edge2" class="edge">
<title>6,&#45;3 (Mine Me)&#45;&gt;&#45;5,&#45;1 (Coal and Coke and Syngas and Ash and Coke Oven Gas and...)</title>
<path fill="none" stroke="black" stroke-width="1.32" d="M554.24,-921.09C625.09,-850.25 887.6,-587.73 971.17,-504.16"/>
<polygon fill="black" stroke="black" stroke-width="1.32" points="974.1,-506.19 978.69,-496.64 969.15,-501.24 974.1,-506.19"/>
<text text-anchor="middle" x="702.21" y="-716.43" font-family="Times,serif" font-size="14.00">raw&#45;coal*126816</text>
</g>
</g>
</svg>
