<?xml version="1.0" encoding="UTF-8" standalone="no"?>
<!DOCTYPE svg PUBLIC "-//W3C//DTD SVG 1.1//EN"
 "http://www.w3.org/Graphics/SVG/1.1/DTD/svg11.dtd">
<!-- Generated by graphviz version 2.43.0 (0)
 -->
<!-- Title: %3 Pages: 1 -->
<svg width="1557pt" height="1113pt"
 viewBox="0.00 0.00 1557.45 1112.62" xmlns="http://www.w3.org/2000/svg" xmlns:xlink="http://www.w3.org/1999/xlink">
<g id="graph0" class="graph" transform="scale(1 1) rotate(0) translate(4 1108.62)">
<title>%3</title>
<polygon fill="white" stroke="transparent" points="-4,4 -4,-1108.62 1553.45,-1108.62 1553.45,4 -4,4"/>
<!-- &#45;6,7 (Iron ore dust) -->
<g id="node1" class="node">
<title>&#45;6,7 (Iron ore dust)</title>
<ellipse fill="none" stroke="black" cx="1205.77" cy="-552.31" rx="98.58" ry="18"/>
<text text-anchor="middle" x="1205.77" y="-548.61" font-family="Times,serif" font-size="14.00">&#45;6,7 (Iron ore dust)</text>
</g>
<!-- &#45;5,8 (Moar Molten Iron) -->
<g id="node2" class="node">
<title>&#45;5,8 (Moar Molten Iron)</title>
<ellipse fill="none" stroke="black" cx="391.94" cy="-1022.17" rx="120.48" ry="18"/>
<text text-anchor="middle" x="391.94" y="-1018.47" font-family="Times,serif" font-size="14.00">&#45;5,8 (Moar Molten Iron)</text>
</g>
<!-- &#45;6,7 (Iron ore dust)&#45;&gt;&#45;5,8 (Moar Molten Iron) -->
<g id="edge1" class="edge">
<title>&#45;6,7 (Iron ore dust)&#45;&gt;&#45;5,8 (Moar Molten Iron)</title>
<path fill="none" stroke="black" stroke-width="1.2" d="M1175.84,-569.59C1050.97,-641.68 571.51,-918.5 430.91,-999.68"/>
<polygon fill="black" stroke="black" stroke-width="1.2" points="429.05,-996.71 422.14,-1004.74 432.55,-1002.77 429.05,-996.71"/>
<text text-anchor="middle" x="730.87" y="-788.43" font-family="Times,serif" font-size="14.00">iron&#45;ore&#45;dust*98880</text>
</g>
<!-- 1,12 (Molten Iron) -->
<g id="node4" class="node">
<title>1,12 (Molten Iron)</title>
<ellipse fill="none" stroke="black" cx="1078.84" cy="-203.56" rx="95.58" ry="18"/>
<text text-anchor="middle" x="1078.84" y="-199.86" font-family="Times,serif" font-size="14.00">1,12 (Molten Iron)</text>
</g>
<!-- &#45;6,7 (Iron ore dust)&#45;&gt;1,12 (Molten Iron) -->
<g id="edge6" class="edge">
<title>&#45;6,7 (Iron ore dust)&#45;&gt;1,12 (Molten Iron)</title>
<path fill="none" stroke="black" stroke-width="2.49" d="M1199.12,-534.05C1178.26,-476.73 1113.97,-300.09 1088.95,-231.35"/>
<polygon fill="black" stroke="black" stroke-width="2.49" points="1092.13,-229.84 1085.42,-221.64 1085.55,-232.24 1092.13,-229.84"/>
<text text-anchor="middle" x="1067.04" y="-386.5" font-family="Times,serif" font-size="14.00">iron&#45;ore&#45;dust*204960</text>
</g>
<!-- &#45;4,&#45;11 (Molten ironer) -->
<g id="node5" class="node">
<title>&#45;4,&#45;11 (Molten ironer)</title>
<ellipse fill="none" stroke="black" cx="1078.84" cy="-901.06" rx="110.48" ry="18"/>
<text text-anchor="middle" x="1078.84" y="-897.36" font-family="Times,serif" font-size="14.00">&#45;4,&#45;11 (Molten ironer)</text>
</g>
<!-- &#45;6,7 (Iron ore dust)&#45;&gt;&#45;4,&#45;11 (Molten ironer) -->
<g id="edge7" class="edge">
<title>&#45;6,7 (Iron ore dust)&#45;&gt;&#45;4,&#45;11 (Molten ironer)</title>
<path fill="none" stroke="black" stroke-width="2.19" d="M1199.12,-570.57C1178.26,-627.89 1113.97,-804.53 1088.95,-873.27"/>
<polygon fill="black" stroke="black" stroke-width="2.19" points="1085.55,-872.38 1085.42,-882.98 1092.13,-874.78 1085.55,-872.38"/>
<text text-anchor="middle" x="1067.04" y="-725.72" font-family="Times,serif" font-size="14.00">iron&#45;ore&#45;dust*180000</text>
</g>
<!-- &#45;2,9 (molten steel) -->
<g id="node6" class="node">
<title>&#45;2,9 (molten steel)</title>
<ellipse fill="none" stroke="black" cx="757.43" cy="-18" rx="95.58" ry="18"/>
<text text-anchor="middle" x="757.43" y="-14.3" font-family="Times,serif" font-size="14.00">&#45;2,9 (molten steel)</text>
</g>
<!-- &#45;6,7 (Iron ore dust)&#45;&gt;&#45;2,9 (molten steel) -->
<g id="edge5" class="edge">
<title>&#45;6,7 (Iron ore dust)&#45;&gt;&#45;2,9 (molten steel)</title>
<path fill="none" stroke="black" stroke-width="1.24" d="M1190.6,-534.23C1123.93,-454.77 856.87,-136.51 778.91,-43.59"/>
<polygon fill="black" stroke="black" stroke-width="1.24" points="781.48,-41.22 772.37,-35.81 776.12,-45.72 781.48,-41.22"/>
<text text-anchor="middle" x="907.75" y="-292.71" font-family="Times,serif" font-size="14.00">iron&#45;ore&#45;dust*102000</text>
</g>
<!-- &#45;1,10 (Iron Plates) -->
<g id="node8" class="node">
<title>&#45;1,10 (Iron Plates)</title>
<ellipse fill="none" stroke="black" cx="391.94" cy="-82.45" rx="94.78" ry="18"/>
<text text-anchor="middle" x="391.94" y="-78.75" font-family="Times,serif" font-size="14.00">&#45;1,10 (Iron Plates)</text>
</g>
<!-- &#45;6,7 (Iron ore dust)&#45;&gt;&#45;1,10 (Iron Plates) -->
<g id="edge11" class="edge">
<title>&#45;6,7 (Iron ore dust)&#45;&gt;&#45;1,10 (Iron Plates)</title>
<path fill="none" stroke="black" stroke-width="0.31" d="M1175.84,-535.03C1050.83,-462.85 570.43,-185.49 430.44,-104.67"/>
<polygon fill="black" stroke="black" stroke-width="0.31" points="432.12,-101.6 421.71,-99.63 428.62,-107.67 432.12,-101.6"/>
<text text-anchor="middle" x="730.64" y="-323.65" font-family="Times,serif" font-size="14.00">iron&#45;ore&#45;dust*25200</text>
</g>
<!-- 4,13 (Chromium processing) -->
<g id="node9" class="node">
<title>4,13 (Chromium processing)</title>
<ellipse fill="none" stroke="black" cx="153.39" cy="-366.75" rx="142.97" ry="18"/>
<text text-anchor="middle" x="153.39" y="-363.05" font-family="Times,serif" font-size="14.00">4,13 (Chromium processing)</text>
</g>
<!-- &#45;6,7 (Iron ore dust)&#45;&gt;4,13 (Chromium processing) -->
<g id="edge12" class="edge">
<title>&#45;6,7 (Iron ore dust)&#45;&gt;4,13 (Chromium processing)</title>
<path fill="none" stroke="black" stroke-width="0.25" d="M1134.68,-539.77C949.78,-507.17 453.85,-419.72 246.51,-383.17"/>
<polygon fill="black" stroke="black" stroke-width="0.25" points="247.01,-379.7 236.56,-381.41 245.8,-386.59 247.01,-379.7"/>
<text text-anchor="middle" x="618.09" y="-450.27" font-family="Times,serif" font-size="14.00">iron&#45;ore&#45;dust*20160</text>
</g>
<!-- &#45;7,&#45;2 (Uranium Processing) -->
<g id="node10" class="node">
<title>&#45;7,&#45;2 (Uranium Processing)</title>
<ellipse fill="none" stroke="black" cx="1413.61" cy="-552.31" rx="135.68" ry="18"/>
<text text-anchor="middle" x="1413.61" y="-548.61" font-family="Times,serif" font-size="14.00">&#45;7,&#45;2 (Uranium Processing)</text>
</g>
<!-- &#45;6,7 (Iron ore dust)&#45;&gt;&#45;7,&#45;2 (Uranium Processing) -->
<g id="edge13" class="edge">
<title>&#45;6,7 (Iron ore dust)&#45;&gt;&#45;7,&#45;2 (Uranium Processing)</title>
<path fill="none" stroke="black" stroke-width="0.06" d="M1304.82,-552.31C1304.87,-552.31 1304.92,-552.31 1304.98,-552.31"/>
<polygon fill="black" stroke="black" stroke-width="0.06" points="1295.14,-555.82 1305.13,-552.31 1295.13,-548.82 1295.14,-555.82"/>
<text text-anchor="middle" x="1372.9" y="-556.11" font-family="Times,serif" font-size="14.00">iron&#45;ore&#45;dust*5040</text>
</g>
<!-- &#45;2,&#45;10 (Iron ore dust duplicate) -->
<g id="node3" class="node">
<title>&#45;2,&#45;10 (Iron ore dust duplicate)</title>
<ellipse fill="none" stroke="black" cx="153.39" cy="-737.87" rx="153.27" ry="18"/>
<text text-anchor="middle" x="153.39" y="-734.17" font-family="Times,serif" font-size="14.00">&#45;2,&#45;10 (Iron ore dust duplicate)</text>
</g>
<!-- &#45;2,&#45;10 (Iron ore dust duplicate)&#45;&gt;&#45;5,8 (Moar Molten Iron) -->
<g id="edge4" class="edge">
<title>&#45;2,&#45;10 (Iron ore dust duplicate)&#45;&gt;&#45;5,8 (Moar Molten Iron)</title>
<path fill="none" stroke="black" stroke-width="1.02" d="M168.67,-756.09C209.74,-805.03 322.58,-939.51 370.24,-996.31"/>
<polygon fill="black" stroke="black" stroke-width="1.02" points="367.68,-998.7 376.78,-1004.11 373.04,-994.2 367.68,-998.7"/>
<text text-anchor="middle" x="196.96" y="-880" font-family="Times,serif" font-size="14.00">iron&#45;ore&#45;dust*84240</text>
</g>
<!-- &#45;2,&#45;10 (Iron ore dust duplicate)&#45;&gt;1,12 (Molten Iron) -->
<g id="edge2" class="edge">
<title>&#45;2,&#45;10 (Iron ore dust duplicate)&#45;&gt;1,12 (Molten Iron)</title>
<path fill="none" stroke="black" stroke-width="2.15" d="M184.18,-720.1C322.56,-640.2 886.81,-314.43 1040.2,-225.87"/>
<polygon fill="black" stroke="black" stroke-width="2.15" points="1041.96,-228.9 1048.87,-220.87 1038.46,-222.84 1041.96,-228.9"/>
<text text-anchor="middle" x="535.19" y="-476.78" font-family="Times,serif" font-size="14.00">iron&#45;ore&#45;dust*176640</text>
</g>
<!-- &#45;2,&#45;10 (Iron ore dust duplicate)&#45;&gt;&#45;4,&#45;11 (Molten ironer) -->
<g id="edge3" class="edge">
<title>&#45;2,&#45;10 (Iron ore dust duplicate)&#45;&gt;&#45;4,&#45;11 (Molten ironer)</title>
<path fill="none" stroke="black" stroke-width="1.9" d="M238.38,-752.86C414.48,-783.91 817.43,-854.96 993.68,-886.04"/>
<polygon fill="black" stroke="black" stroke-width="1.9" points="993.23,-889.51 1003.68,-887.8 994.44,-882.62 993.23,-889.51"/>
<text text-anchor="middle" x="539.03" y="-823.25" font-family="Times,serif" font-size="14.00">iron&#45;ore&#45;dust*156240</text>
</g>
<!-- &#45;2,&#45;10 (Iron ore dust duplicate)&#45;&gt;&#45;2,9 (molten steel) -->
<g id="edge9" class="edge">
<title>&#45;2,&#45;10 (Iron ore dust duplicate)&#45;&gt;&#45;2,9 (molten steel)</title>
<path fill="none" stroke="black" stroke-width="1.54" d="M168.62,-719.72C250.64,-621.97 639.59,-158.44 735.85,-43.73"/>
<polygon fill="black" stroke="black" stroke-width="1.54" points="738.77,-45.69 742.51,-35.78 733.4,-41.19 738.77,-45.69"/>
<text text-anchor="middle" x="375.23" y="-385.52" font-family="Times,serif" font-size="14.00">iron&#45;ore&#45;dust*126960</text>
</g>
<!-- &#45;2,&#45;10 (Iron ore dust duplicate)&#45;&gt;&#45;1,10 (Iron Plates) -->
<g id="edge15" class="edge">
<title>&#45;2,&#45;10 (Iron ore dust duplicate)&#45;&gt;&#45;1,10 (Iron Plates)</title>
<path fill="none" stroke="black" stroke-width="0.31" d="M160.02,-719.66C193.25,-628.34 341.76,-220.32 381.91,-110.01"/>
<polygon fill="black" stroke="black" stroke-width="0.31" points="385.21,-111.17 385.35,-100.57 378.64,-108.77 385.21,-111.17"/>
<text text-anchor="middle" x="198.46" y="-418.64" font-family="Times,serif" font-size="14.00">iron&#45;ore&#45;dust*25200</text>
</g>
<!-- &#45;2,&#45;10 (Iron ore dust duplicate)&#45;&gt;4,13 (Chromium processing) -->
<g id="edge14" class="edge">
<title>&#45;2,&#45;10 (Iron ore dust duplicate)&#45;&gt;4,13 (Chromium processing)</title>
<path fill="none" stroke="black" stroke-width="0.12" d="M153.39,-719.72C153.39,-659.78 153.39,-467.87 153.39,-395.09"/>
<polygon fill="black" stroke="black" stroke-width="0.12" points="156.89,-394.86 153.39,-384.86 149.89,-394.86 156.89,-394.86"/>
<text text-anchor="middle" x="80.89" y="-561.21" font-family="Times,serif" font-size="14.00">iron&#45;ore&#45;dust*10080</text>
</g>
<!-- 1,10 (Iron Ore Dust) -->
<g id="node7" class="node">
<title>1,10 (Iron Ore Dust)</title>
<ellipse fill="none" stroke="black" cx="757.43" cy="-1086.62" rx="104.78" ry="18"/>
<text text-anchor="middle" x="757.43" y="-1082.92" font-family="Times,serif" font-size="14.00">1,10 (Iron Ore Dust)</text>
</g>
<!-- 1,10 (Iron Ore Dust)&#45;&gt;&#45;5,8 (Moar Molten Iron) -->
<g id="edge8" class="edge">
<title>1,10 (Iron Ore Dust)&#45;&gt;&#45;5,8 (Moar Molten Iron)</title>
<path fill="none" stroke="black" stroke-width="0.05" d="M684.35,-1073.73C625.42,-1063.34 542.36,-1048.7 479.81,-1037.67"/>
<polygon fill="black" stroke="black" stroke-width="0.05" points="480.41,-1034.22 469.95,-1035.93 479.19,-1041.11 480.41,-1034.22"/>
<text text-anchor="middle" x="514.08" y="-1059.5" font-family="Times,serif" font-size="14.00">iron&#45;ore&#45;dust*4416</text>
</g>
<!-- 1,10 (Iron Ore Dust)&#45;&gt;&#45;4,&#45;11 (Molten ironer) -->
<g id="edge10" class="edge">
<title>1,10 (Iron Ore Dust)&#45;&gt;&#45;4,&#45;11 (Molten ironer)</title>
<path fill="none" stroke="black" stroke-width="0.17" d="M787.38,-1069.33C845.72,-1035.64 974.58,-961.25 1039.64,-923.69"/>
<polygon fill="black" stroke="black" stroke-width="0.17" points="1041.47,-926.67 1048.38,-918.64 1037.97,-920.61 1041.47,-926.67"/>
<text text-anchor="middle" x="841.01" y="-1000.31" font-family="Times,serif" font-size="14.00">iron&#45;ore&#45;dust*13680</text>
</g>
</g>
</svg>
