<?xml version="1.0" encoding="UTF-8" standalone="no"?>
<!DOCTYPE svg PUBLIC "-//W3C//DTD SVG 1.1//EN"
 "http://www.w3.org/Graphics/SVG/1.1/DTD/svg11.dtd">
<!-- Generated by graphviz version 2.43.0 (0)
 -->
<!-- Title: %3 Pages: 1 -->
<svg width="1314pt" height="44pt"
 viewBox="0.00 0.00 1314.10 44.00" xmlns="http://www.w3.org/2000/svg" xmlns:xlink="http://www.w3.org/1999/xlink">
<g id="graph0" class="graph" transform="scale(1 1) rotate(0) translate(4 40)">
<title>%3</title>
<polygon fill="white" stroke="transparent" points="-4,4 -4,-40 1310.1,-40 1310.1,4 -4,4"/>
<!-- 3,13 (Rubber) -->
<g id="node1" class="node">
<title>3,13 (Rubber)</title>
<ellipse fill="none" stroke="black" cx="773.94" cy="-18" rx="75.29" ry="18"/>
<text text-anchor="middle" x="773.94" y="-14.3" font-family="Times,serif" font-size="14.00">3,13 (Rubber)</text>
</g>
<!-- 0,0 (LE BUS) -->
<g id="node2" class="node">
<title>0,0 (LE BUS)</title>
<ellipse fill="none" stroke="black" cx="1234.6" cy="-18" rx="71.49" ry="18"/>
<text text-anchor="middle" x="1234.6" y="-14.3" font-family="Times,serif" font-size="14.00">0,0 (LE BUS)</text>
</g>
<!-- 3,13 (Rubber)&#45;&gt;0,0 (LE BUS) -->
<g id="edge1" class="edge">
<title>3,13 (Rubber)&#45;&gt;0,0 (LE BUS)</title>
<path fill="none" stroke="black" stroke-width="1.28" d="M849.49,-18C932.89,-18 1066.67,-18 1152.57,-18"/>
<polygon fill="black" stroke="black" stroke-width="1.28" points="1152.8,-21.5 1162.8,-18 1152.8,-14.5 1152.8,-21.5"/>
<text text-anchor="middle" x="950.53" y="-21.8" font-family="Times,serif" font-size="14.00">rubber*26800</text>
</g>
<!-- &#45;3,0 (item=lab&#45;instrument Laboratory instruments, Lead Mining) -->
<g id="node3" class="node">
<title>&#45;3,0 (item=lab&#45;instrument Laboratory instruments, Lead Mining)</title>
<ellipse fill="none" stroke="black" cx="313.27" cy="-18" rx="313.04" ry="18"/>
<text text-anchor="middle" x="313.27" y="-14.3" font-family="Times,serif" font-size="14.00">&#45;3,0 (item=lab&#45;instrument Laboratory instruments, Lead Mining)</text>
</g>
<!-- 3,13 (Rubber)&#45;&gt;&#45;3,0 (item=lab&#45;instrument Laboratory instruments, Lead Mining) -->
<g id="edge2" class="edge">
<title>3,13 (Rubber)&#45;&gt;&#45;3,0 (item=lab&#45;instrument Laboratory instruments, Lead Mining)</title>
<path fill="none" stroke="black" stroke-width="0.72" d="M698.38,-18C680.01,-18 659.19,-18 636.98,-18"/>
<polygon fill="black" stroke="black" stroke-width="0.72" points="636.68,-14.5 626.68,-18 636.68,-21.5 636.68,-14.5"/>
<text text-anchor="middle" x="642.43" y="-6.8" font-family="Times,serif" font-size="14.00">rubber*15040</text>
</g>
</g>
</svg>
