<?xml version="1.0" encoding="UTF-8" standalone="no"?>
<!DOCTYPE svg PUBLIC "-//W3C//DTD SVG 1.1//EN"
 "http://www.w3.org/Graphics/SVG/1.1/DTD/svg11.dtd">
<!-- Generated by graphviz version 2.43.0 (0)
 -->
<!-- Title: %3 Pages: 1 -->
<svg width="4009pt" height="3478pt"
 viewBox="0.00 0.00 4008.95 3478.31" xmlns="http://www.w3.org/2000/svg" xmlns:xlink="http://www.w3.org/1999/xlink">
<g id="graph0" class="graph" transform="scale(1 1) rotate(0) translate(4 3474.31)">
<title>%3</title>
<polygon fill="white" stroke="transparent" points="-4,4 -4,-3474.31 4004.95,-3474.31 4004.95,4 -4,4"/>
<!-- &#45;5,&#45;3 (Biomass (from Seaweed)) -->
<g id="node1" class="node">
<title>&#45;5,&#45;3 (Biomass (from Seaweed))</title>
<ellipse fill="none" stroke="black" cx="155.99" cy="-2094.14" rx="155.97" ry="18"/>
<text text-anchor="middle" x="155.99" y="-2090.44" font-family="Times,serif" font-size="14.00">&#45;5,&#45;3 (Biomass (from Seaweed))</text>
</g>
<!-- &#45;7,&#45;4 (Isomer&#39;s Slaughterhouse and Daycare Centre, Bone Meal) -->
<g id="node2" class="node">
<title>&#45;7,&#45;4 (Isomer&#39;s Slaughterhouse and Daycare Centre, Bone Meal)</title>
<ellipse fill="none" stroke="black" cx="3422.21" cy="-1032.88" rx="307.35" ry="18"/>
<text text-anchor="middle" x="3422.21" y="-1029.18" font-family="Times,serif" font-size="14.00">&#45;7,&#45;4 (Isomer&#39;s Slaughterhouse and Daycare Centre, Bone Meal)</text>
</g>
<!-- &#45;5,&#45;3 (Biomass (from Seaweed))&#45;&gt;&#45;7,&#45;4 (Isomer&#39;s Slaughterhouse and Daycare Centre, Bone Meal) -->
<g id="edge1" class="edge">
<title>&#45;5,&#45;3 (Biomass (from Seaweed))&#45;&gt;&#45;7,&#45;4 (Isomer&#39;s Slaughterhouse and Daycare Centre, Bone Meal)</title>
<path fill="none" stroke="black" stroke-width="1.13" d="M208.28,-2077.15C589.47,-1953.29 2937.48,-1190.38 3357.82,-1053.8"/>
<polygon fill="black" stroke="black" stroke-width="1.13" points="3358.96,-1057.11 3367.39,-1050.69 3356.8,-1050.45 3358.96,-1057.11"/>
<text text-anchor="middle" x="1723.05" y="-1569.27" font-family="Times,serif" font-size="14.00">biomass*163360</text>
</g>
<!-- &#45;3,8 (Urea) -->
<g id="node3" class="node">
<title>&#45;3,8 (Urea)</title>
<ellipse fill="none" stroke="black" cx="155.99" cy="-1376.17" rx="61.19" ry="18"/>
<text text-anchor="middle" x="155.99" y="-1372.47" font-family="Times,serif" font-size="14.00">&#45;3,8 (Urea)</text>
</g>
<!-- &#45;5,&#45;3 (Biomass (from Seaweed))&#45;&gt;&#45;3,8 (Urea) -->
<g id="edge2" class="edge">
<title>&#45;5,&#45;3 (Biomass (from Seaweed))&#45;&gt;&#45;3,8 (Urea)</title>
<path fill="none" stroke="black" stroke-width="1.31" d="M155.99,-2076.03C155.99,-1979.23 155.99,-1522.78 155.99,-1404.31"/>
<polygon fill="black" stroke="black" stroke-width="1.31" points="159.49,-1404.23 155.99,-1394.23 152.49,-1404.23 159.49,-1404.23"/>
<text text-anchor="middle" x="95.99" y="-1743.97" font-family="Times,serif" font-size="14.00">biomass*188600</text>
</g>
<!-- &#45;1,6 (Flimble&#39;s Slaughterhouse and Daycare Centre, Auog Products) -->
<g id="node5" class="node">
<title>&#45;1,6 (Flimble&#39;s Slaughterhouse and Daycare Centre, Auog Products)</title>
<ellipse fill="none" stroke="black" cx="448.01" cy="-2750.03" rx="325.74" ry="18"/>
<text text-anchor="middle" x="448.01" y="-2746.33" font-family="Times,serif" font-size="14.00">&#45;1,6 (Flimble&#39;s Slaughterhouse and Daycare Centre, Auog Products)</text>
</g>
<!-- &#45;5,&#45;3 (Biomass (from Seaweed))&#45;&gt;&#45;1,6 (Flimble&#39;s Slaughterhouse and Daycare Centre, Auog Products) -->
<g id="edge7" class="edge">
<title>&#45;5,&#45;3 (Biomass (from Seaweed))&#45;&gt;&#45;1,6 (Flimble&#39;s Slaughterhouse and Daycare Centre, Auog Products)</title>
<path fill="none" stroke="black" stroke-width="1.92" d="M164.1,-2112.37C204.79,-2203.75 386.58,-2612.06 435.73,-2722.45"/>
<polygon fill="black" stroke="black" stroke-width="1.92" points="432.67,-2724.18 439.93,-2731.89 439.06,-2721.34 432.67,-2724.18"/>
<text text-anchor="middle" x="239.91" y="-2421.21" font-family="Times,serif" font-size="14.00">biomass*278160</text>
</g>
<!-- &#45;6,&#45;2 (item=fertilizer Fertiliser) -->
<g id="node6" class="node">
<title>&#45;6,&#45;2 (item=fertilizer Fertiliser)</title>
<ellipse fill="none" stroke="black" cx="3000.2" cy="-452.03" rx="155.97" ry="18"/>
<text text-anchor="middle" x="3000.2" y="-448.33" font-family="Times,serif" font-size="14.00">&#45;6,&#45;2 (item=fertilizer Fertiliser)</text>
</g>
<!-- &#45;5,&#45;3 (Biomass (from Seaweed))&#45;&gt;&#45;6,&#45;2 (item=fertilizer Fertiliser) -->
<g id="edge20" class="edge">
<title>&#45;5,&#45;3 (Biomass (from Seaweed))&#45;&gt;&#45;6,&#45;2 (item=fertilizer Fertiliser)</title>
<path fill="none" stroke="black" stroke-width="0.61" d="M186.96,-2076.26C472.21,-1911.57 2638.88,-660.64 2960.37,-475.02"/>
<polygon fill="black" stroke="black" stroke-width="0.61" points="2962.43,-477.88 2969.34,-469.85 2958.93,-471.81 2962.43,-477.88"/>
<text text-anchor="middle" x="1518.17" y="-1279.44" font-family="Times,serif" font-size="14.00">biomass*88000</text>
</g>
<!-- 7,&#45;2 (item=guts Auog guts) -->
<g id="node7" class="node">
<title>7,&#45;2 (item=guts Auog guts)</title>
<ellipse fill="none" stroke="black" cx="2378.42" cy="-93.05" rx="137.28" ry="18"/>
<text text-anchor="middle" x="2378.42" y="-89.35" font-family="Times,serif" font-size="14.00">7,&#45;2 (item=guts Auog guts)</text>
</g>
<!-- &#45;5,&#45;3 (Biomass (from Seaweed))&#45;&gt;7,&#45;2 (item=guts Auog guts) -->
<g id="edge5" class="edge">
<title>&#45;5,&#45;3 (Biomass (from Seaweed))&#45;&gt;7,&#45;2 (item=guts Auog guts)</title>
<path fill="none" stroke="black" stroke-width="1.55" d="M175.88,-2076.23C381.15,-1891.4 2110.89,-333.93 2350.84,-117.88"/>
<polygon fill="black" stroke="black" stroke-width="1.55" points="2353.35,-120.33 2358.44,-111.04 2348.67,-115.13 2353.35,-120.33"/>
<text text-anchor="middle" x="1203.36" y="-1100.85" font-family="Times,serif" font-size="14.00">biomass*224480</text>
</g>
<!-- &#45;4,2 (This line not currently using manure, Ralesia seeds) -->
<g id="node8" class="node">
<title>&#45;4,2 (This line not currently using manure, Ralesia seeds)</title>
<ellipse fill="none" stroke="black" cx="1664.39" cy="-18" rx="276.75" ry="18"/>
<text text-anchor="middle" x="1664.39" y="-14.3" font-family="Times,serif" font-size="14.00">&#45;4,2 (This line not currently using manure, Ralesia seeds)</text>
</g>
<!-- &#45;5,&#45;3 (Biomass (from Seaweed))&#45;&gt;&#45;4,2 (This line not currently using manure, Ralesia seeds) -->
<g id="edge6" class="edge">
<title>&#45;5,&#45;3 (Biomass (from Seaweed))&#45;&gt;&#45;4,2 (This line not currently using manure, Ralesia seeds)</title>
<path fill="none" stroke="black" stroke-width="0.38" d="M169.03,-2076.19C306.06,-1887.58 1480.24,-271.46 1645.17,-44.45"/>
<polygon fill="black" stroke="black" stroke-width="0.38" points="1648.19,-46.25 1651.24,-36.1 1642.53,-42.14 1648.19,-46.25"/>
<text text-anchor="middle" x="851.6" y="-1064.12" font-family="Times,serif" font-size="14.00">biomass*54640</text>
</g>
<!-- &#45;5,5 (fluid=flue&#45;gas Flue gas) -->
<g id="node9" class="node">
<title>&#45;5,5 (fluid=flue&#45;gas Flue gas)</title>
<ellipse fill="none" stroke="black" cx="981.56" cy="-239.86" rx="145.67" ry="18"/>
<text text-anchor="middle" x="981.56" y="-236.16" font-family="Times,serif" font-size="14.00">&#45;5,5 (fluid=flue&#45;gas Flue gas)</text>
</g>
<!-- &#45;5,&#45;3 (Biomass (from Seaweed))&#45;&gt;&#45;5,5 (fluid=flue&#45;gas Flue gas) -->
<g id="edge17" class="edge">
<title>&#45;5,&#45;3 (Biomass (from Seaweed))&#45;&gt;&#45;5,5 (fluid=flue&#45;gas Flue gas)</title>
<path fill="none" stroke="black" stroke-width="3.49" d="M164.02,-2076.08C242.61,-1899.57 873.06,-483.56 969.27,-267.48"/>
<polygon fill="black" stroke="black" stroke-width="3.49" points="972.57,-268.66 973.44,-258.1 966.18,-265.81 972.57,-268.66"/>
<text text-anchor="middle" x="506.65" y="-1175.58" font-family="Times,serif" font-size="14.00">biomass*504360</text>
</g>
<!-- 0,9 (Auog Brains) -->
<g id="node12" class="node">
<title>0,9 (Auog Brains)</title>
<ellipse fill="none" stroke="black" cx="981.56" cy="-3230.45" rx="91.78" ry="18"/>
<text text-anchor="middle" x="981.56" y="-3226.75" font-family="Times,serif" font-size="14.00">0,9 (Auog Brains)</text>
</g>
<!-- &#45;5,&#45;3 (Biomass (from Seaweed))&#45;&gt;0,9 (Auog Brains) -->
<g id="edge16" class="edge">
<title>&#45;5,&#45;3 (Biomass (from Seaweed))&#45;&gt;0,9 (Auog Brains)</title>
<path fill="none" stroke="black" stroke-width="0.57" d="M169.29,-2112.45C265.06,-2244.26 848.79,-3047.71 962.41,-3204.08"/>
<polygon fill="black" stroke="black" stroke-width="0.57" points="959.63,-3206.22 968.34,-3212.25 965.29,-3202.1 959.63,-3206.22"/>
<text text-anchor="middle" x="510.35" y="-2662.06" font-family="Times,serif" font-size="14.00">biomass*82080</text>
</g>
<!-- 3,4 (Depot) -->
<g id="node13" class="node">
<title>3,4 (Depot)</title>
<ellipse fill="none" stroke="black" cx="1664.39" cy="-3452.31" rx="63.09" ry="18"/>
<text text-anchor="middle" x="1664.39" y="-3448.61" font-family="Times,serif" font-size="14.00">3,4 (Depot)</text>
</g>
<!-- &#45;5,&#45;3 (Biomass (from Seaweed))&#45;&gt;3,4 (Depot) -->
<g id="edge28" class="edge">
<title>&#45;5,&#45;3 (Biomass (from Seaweed))&#45;&gt;3,4 (Depot)</title>
<path fill="none" stroke="black" stroke-width="0.38" d="M175.89,-2112.06C338.77,-2258.72 1451.13,-3260.29 1637.83,-3428.39"/>
<polygon fill="black" stroke="black" stroke-width="0.38" points="1635.52,-3431.03 1645.29,-3435.12 1640.2,-3425.82 1635.52,-3431.03"/>
<text text-anchor="middle" x="851.36" y="-2774.03" font-family="Times,serif" font-size="14.00">biomass*55360</text>
</g>
<!-- &#45;3,&#45;2 (Depot) -->
<g id="node14" class="node">
<title>&#45;3,&#45;2 (Depot)</title>
<ellipse fill="none" stroke="black" cx="2378.42" cy="-3377.26" rx="68.79" ry="18"/>
<text text-anchor="middle" x="2378.42" y="-3373.56" font-family="Times,serif" font-size="14.00">&#45;3,&#45;2 (Depot)</text>
</g>
<!-- &#45;5,&#45;3 (Biomass (from Seaweed))&#45;&gt;&#45;3,&#45;2 (Depot) -->
<g id="edge22" class="edge">
<title>&#45;5,&#45;3 (Biomass (from Seaweed))&#45;&gt;&#45;3,&#45;2 (Depot)</title>
<path fill="none" stroke="black" stroke-width="0.61" d="M186.98,-2112.03C433.19,-2254.18 2070.12,-3199.27 2340.61,-3355.43"/>
<polygon fill="black" stroke="black" stroke-width="0.61" points="2339.24,-3358.68 2349.65,-3360.65 2342.74,-3352.62 2339.24,-3358.68"/>
<text text-anchor="middle" x="1208.29" y="-2737.53" font-family="Times,serif" font-size="14.00">biomass*88160</text>
</g>
<!-- 4,6 (Circuit substrate and Doped silicon) -->
<g id="node15" class="node">
<title>4,6 (Circuit substrate and Doped silicon)</title>
<ellipse fill="none" stroke="black" cx="3000.2" cy="-3018.28" rx="199.56" ry="18"/>
<text text-anchor="middle" x="3000.2" y="-3014.58" font-family="Times,serif" font-size="14.00">4,6 (Circuit substrate and Doped silicon)</text>
</g>
<!-- &#45;5,&#45;3 (Biomass (from Seaweed))&#45;&gt;4,6 (Circuit substrate and Doped silicon) -->
<g id="edge24" class="edge">
<title>&#45;5,&#45;3 (Biomass (from Seaweed))&#45;&gt;4,6 (Circuit substrate and Doped silicon)</title>
<path fill="none" stroke="black" stroke-width="0.11" d="M208.4,-2111.17C558.38,-2224.88 2554.35,-2873.41 2936.83,-2997.69"/>
<polygon fill="black" stroke="black" stroke-width="0.11" points="2936.03,-3001.11 2946.62,-3000.87 2938.2,-2994.45 2936.03,-3001.11"/>
<text text-anchor="middle" x="1517.11" y="-2558.23" font-family="Times,serif" font-size="14.00">biomass*15680</text>
</g>
<!-- 3,10 (Anotherr depot) -->
<g id="node16" class="node">
<title>3,10 (Anotherr depot)</title>
<ellipse fill="none" stroke="black" cx="3422.21" cy="-2437.43" rx="111.58" ry="18"/>
<text text-anchor="middle" x="3422.21" y="-2433.73" font-family="Times,serif" font-size="14.00">3,10 (Anotherr depot)</text>
</g>
<!-- &#45;5,&#45;3 (Biomass (from Seaweed))&#45;&gt;3,10 (Anotherr depot) -->
<g id="edge29" class="edge">
<title>&#45;5,&#45;3 (Biomass (from Seaweed))&#45;&gt;3,10 (Anotherr depot)</title>
<path fill="none" stroke="black" stroke-width="0.23" d="M271.75,-2106.31C782.64,-2160 2831.69,-2375.37 3318.21,-2426.5"/>
<polygon fill="black" stroke="black" stroke-width="0.23" points="3318.06,-2430 3328.37,-2427.57 3318.79,-2423.04 3318.06,-2430"/>
<text text-anchor="middle" x="1739.48" y="-2270.2" font-family="Times,serif" font-size="14.00">biomass*32640</text>
</g>
<!-- &#45;2,4 (fluid=drilling&#45;fluid&#45;0 Drilling fluid 1, Biomass) -->
<g id="node4" class="node">
<title>&#45;2,4 (fluid=drilling&#45;fluid&#45;0 Drilling fluid 1, Biomass)</title>
<ellipse fill="none" stroke="black" cx="3571.48" cy="-1735.16" rx="248.86" ry="18"/>
<text text-anchor="middle" x="3571.48" y="-1731.46" font-family="Times,serif" font-size="14.00">&#45;2,4 (fluid=drilling&#45;fluid&#45;0 Drilling fluid 1, Biomass)</text>
</g>
<!-- &#45;2,4 (fluid=drilling&#45;fluid&#45;0 Drilling fluid 1, Biomass)&#45;&gt;&#45;7,&#45;4 (Isomer&#39;s Slaughterhouse and Daycare Centre, Bone Meal) -->
<g id="edge8" class="edge">
<title>&#45;2,4 (fluid=drilling&#45;fluid&#45;0 Drilling fluid 1, Biomass)&#45;&gt;&#45;7,&#45;4 (Isomer&#39;s Slaughterhouse and Daycare Centre, Bone Meal)</title>
<path fill="none" stroke="black" stroke-width="1.15" d="M3567.64,-1717.09C3547.4,-1621.84 3453.04,-1177.93 3428.21,-1061.11"/>
<polygon fill="black" stroke="black" stroke-width="1.15" points="3431.59,-1060.2 3426.09,-1051.15 3424.75,-1061.66 3431.59,-1060.2"/>
<text text-anchor="middle" x="3437.93" y="-1392.9" font-family="Times,serif" font-size="14.00">biomass*165880</text>
</g>
<!-- &#45;2,4 (fluid=drilling&#45;fluid&#45;0 Drilling fluid 1, Biomass)&#45;&gt;&#45;3,8 (Urea) -->
<g id="edge13" class="edge">
<title>&#45;2,4 (fluid=drilling&#45;fluid&#45;0 Drilling fluid 1, Biomass)&#45;&gt;&#45;3,8 (Urea)</title>
<path fill="none" stroke="black" stroke-width="1.35" d="M3430.15,-1720.3C2847.12,-1659.02 639.95,-1427.04 223.86,-1383.31"/>
<polygon fill="black" stroke="black" stroke-width="1.35" points="224.1,-1379.81 213.79,-1382.25 223.37,-1386.77 224.1,-1379.81"/>
<text text-anchor="middle" x="1767.01" y="-1540.6" font-family="Times,serif" font-size="14.00">biomass*195760</text>
</g>
<!-- &#45;2,4 (fluid=drilling&#45;fluid&#45;0 Drilling fluid 1, Biomass)&#45;&gt;&#45;1,6 (Flimble&#39;s Slaughterhouse and Daycare Centre, Auog Products) -->
<g id="edge3" class="edge">
<title>&#45;2,4 (fluid=drilling&#45;fluid&#45;0 Drilling fluid 1, Biomass)&#45;&gt;&#45;1,6 (Flimble&#39;s Slaughterhouse and Daycare Centre, Auog Products)</title>
<path fill="none" stroke="black" stroke-width="2.29" d="M3517.27,-1752.77C3140.9,-1875.06 920.3,-2596.58 512.37,-2729.12"/>
<polygon fill="black" stroke="black" stroke-width="2.29" points="511.23,-2725.81 502.8,-2732.23 513.39,-2732.47 511.23,-2725.81"/>
<text text-anchor="middle" x="1954.82" y="-2244.74" font-family="Times,serif" font-size="14.00">biomass*330560</text>
</g>
<!-- &#45;2,4 (fluid=drilling&#45;fluid&#45;0 Drilling fluid 1, Biomass)&#45;&gt;&#45;6,&#45;2 (item=fertilizer Fertiliser) -->
<g id="edge4" class="edge">
<title>&#45;2,4 (fluid=drilling&#45;fluid&#45;0 Drilling fluid 1, Biomass)&#45;&gt;&#45;6,&#45;2 (item=fertilizer Fertiliser)</title>
<path fill="none" stroke="black" stroke-width="0.72" d="M3563.41,-1717.02C3500.48,-1575.68 3089.06,-651.63 3012.47,-479.58"/>
<polygon fill="black" stroke="black" stroke-width="0.72" points="3015.65,-478.14 3008.39,-470.42 3009.26,-480.98 3015.65,-478.14"/>
<text text-anchor="middle" x="3227.94" y="-1102.1" font-family="Times,serif" font-size="14.00">biomass*104000</text>
</g>
<!-- &#45;2,4 (fluid=drilling&#45;fluid&#45;0 Drilling fluid 1, Biomass)&#45;&gt;7,&#45;2 (item=guts Auog guts) -->
<g id="edge12" class="edge">
<title>&#45;2,4 (fluid=drilling&#45;fluid&#45;0 Drilling fluid 1, Biomass)&#45;&gt;7,&#45;2 (item=guts Auog guts)</title>
<path fill="none" stroke="black" stroke-width="1.72" d="M3558.29,-1716.99C3438.53,-1552.15 2540.6,-316.26 2397.59,-119.44"/>
<polygon fill="black" stroke="black" stroke-width="1.72" points="2400.25,-117.14 2391.54,-111.1 2394.59,-121.25 2400.25,-117.14"/>
<text text-anchor="middle" x="2917.94" y="-922.02" font-family="Times,serif" font-size="14.00">biomass*247880</text>
</g>
<!-- &#45;2,4 (fluid=drilling&#45;fluid&#45;0 Drilling fluid 1, Biomass)&#45;&gt;&#45;4,2 (This line not currently using manure, Ralesia seeds) -->
<g id="edge10" class="edge">
<title>&#45;2,4 (fluid=drilling&#45;fluid&#45;0 Drilling fluid 1, Biomass)&#45;&gt;&#45;4,2 (This line not currently using manure, Ralesia seeds)</title>
<path fill="none" stroke="black" stroke-width="0.45" d="M3551.36,-1717.03C3363,-1547.44 1911.28,-240.31 1692.08,-42.93"/>
<polygon fill="black" stroke="black" stroke-width="0.45" points="1694.29,-40.22 1684.52,-36.12 1689.61,-45.42 1694.29,-40.22"/>
<text text-anchor="middle" x="2566.22" y="-883.78" font-family="Times,serif" font-size="14.00">biomass*65080</text>
</g>
<!-- &#45;2,4 (fluid=drilling&#45;fluid&#45;0 Drilling fluid 1, Biomass)&#45;&gt;&#45;5,5 (fluid=flue&#45;gas Flue gas) -->
<g id="edge9" class="edge">
<title>&#45;2,4 (fluid=drilling&#45;fluid&#45;0 Drilling fluid 1, Biomass)&#45;&gt;&#45;5,5 (fluid=flue&#45;gas Flue gas)</title>
<path fill="none" stroke="black" stroke-width="7.6" d="M3540.13,-1717.06C3269.08,-1560.56 1324.5,-437.86 1021.27,-262.79"/>
<polygon fill="black" stroke="black" stroke-width="7.6" points="1024.37,-256.89 1012.38,-257.66 1017.71,-268.42 1024.37,-256.89"/>
<text text-anchor="middle" x="2216.2" y="-993.72" font-family="Times,serif" font-size="14.00">biomass*1098880</text>
</g>
<!-- &#45;4,5 (item=arqad Arqad, Lead mine) -->
<g id="node10" class="node">
<title>&#45;4,5 (item=arqad Arqad, Lead mine)</title>
<ellipse fill="none" stroke="black" cx="3822.22" cy="-1735.16" rx="178.97" ry="18"/>
<text text-anchor="middle" x="3822.22" y="-1731.46" font-family="Times,serif" font-size="14.00">&#45;4,5 (item=arqad Arqad, Lead mine)</text>
</g>
<!-- &#45;2,4 (fluid=drilling&#45;fluid&#45;0 Drilling fluid 1, Biomass)&#45;&gt;&#45;4,5 (item=arqad Arqad, Lead mine) -->
<g id="edge11" class="edge">
<title>&#45;2,4 (fluid=drilling&#45;fluid&#45;0 Drilling fluid 1, Biomass)&#45;&gt;&#45;4,5 (item=arqad Arqad, Lead mine)</title>
<path fill="none" stroke="black" stroke-width="0.09" d="M3820.62,-1735.16C3820.75,-1735.16 3820.87,-1735.16 3820.99,-1735.16"/>
<polygon fill="black" stroke="black" stroke-width="0.09" points="3811.81,-1738.66 3821.81,-1735.16 3811.81,-1731.66 3811.81,-1738.66"/>
<text text-anchor="middle" x="3876.3" y="-1738.96" font-family="Times,serif" font-size="14.00">biomass*12520</text>
</g>
<!-- &#45;2,4 (fluid=drilling&#45;fluid&#45;0 Drilling fluid 1, Biomass)&#45;&gt;0,9 (Auog Brains) -->
<g id="edge18" class="edge">
<title>&#45;2,4 (fluid=drilling&#45;fluid&#45;0 Drilling fluid 1, Biomass)&#45;&gt;0,9 (Auog Brains)</title>
<path fill="none" stroke="black" stroke-width="0.68" d="M3540.13,-1753.25C3268.65,-1910 1318.38,-3035.99 1019.85,-3208.34"/>
<polygon fill="black" stroke="black" stroke-width="0.68" points="1018.02,-3205.35 1011.11,-3213.39 1021.52,-3211.42 1018.02,-3205.35"/>
<text text-anchor="middle" x="2224.49" y="-2484.6" font-family="Times,serif" font-size="14.00">biomass*98360</text>
</g>
<!-- &#45;2,4 (fluid=drilling&#45;fluid&#45;0 Drilling fluid 1, Biomass)&#45;&gt;3,4 (Depot) -->
<g id="edge21" class="edge">
<title>&#45;2,4 (fluid=drilling&#45;fluid&#45;0 Drilling fluid 1, Biomass)&#45;&gt;3,4 (Depot)</title>
<path fill="none" stroke="black" stroke-width="1.03" d="M3551.36,-1753.28C3362.8,-1923.05 1908.17,-3232.8 1691.38,-3428.01"/>
<polygon fill="black" stroke="black" stroke-width="1.03" points="1688.72,-3425.69 1683.63,-3434.98 1693.41,-3430.89 1688.72,-3425.69"/>
<text text-anchor="middle" x="2561.37" y="-2594.44" font-family="Times,serif" font-size="14.00">biomass*149240</text>
</g>
<!-- &#45;2,4 (fluid=drilling&#45;fluid&#45;0 Drilling fluid 1, Biomass)&#45;&gt;&#45;3,&#45;2 (Depot) -->
<g id="edge27" class="edge">
<title>&#45;2,4 (fluid=drilling&#45;fluid&#45;0 Drilling fluid 1, Biomass)&#45;&gt;&#45;3,&#45;2 (Depot)</title>
<path fill="none" stroke="black" stroke-width="0.44" d="M3558.29,-1753.32C3438.46,-1918.24 2539.66,-3155.34 2397.37,-3351.18"/>
<polygon fill="black" stroke="black" stroke-width="0.44" points="2394.4,-3349.32 2391.35,-3359.47 2400.06,-3353.43 2394.4,-3349.32"/>
<text text-anchor="middle" x="2922.33" y="-2556.05" font-family="Times,serif" font-size="14.00">biomass*64200</text>
</g>
<!-- &#45;2,4 (fluid=drilling&#45;fluid&#45;0 Drilling fluid 1, Biomass)&#45;&gt;4,6 (Circuit substrate and Doped silicon) -->
<g id="edge31" class="edge">
<title>&#45;2,4 (fluid=drilling&#45;fluid&#45;0 Drilling fluid 1, Biomass)&#45;&gt;4,6 (Circuit substrate and Doped silicon)</title>
<path fill="none" stroke="black" stroke-width="0.12" d="M3563.41,-1753.29C3500.48,-1894.63 3089.06,-2818.68 3012.47,-2990.73"/>
<polygon fill="black" stroke="black" stroke-width="0.12" points="3009.26,-2989.33 3008.39,-2999.89 3015.65,-2992.17 3009.26,-2989.33"/>
<text text-anchor="middle" x="3232.44" y="-2375.81" font-family="Times,serif" font-size="14.00">biomass*16840</text>
</g>
<!-- &#45;2,4 (fluid=drilling&#45;fluid&#45;0 Drilling fluid 1, Biomass)&#45;&gt;3,10 (Anotherr depot) -->
<g id="edge26" class="edge">
<title>&#45;2,4 (fluid=drilling&#45;fluid&#45;0 Drilling fluid 1, Biomass)&#45;&gt;3,10 (Anotherr depot)</title>
<path fill="none" stroke="black" stroke-width="0.58" d="M3567.64,-1753.22C3547.4,-1848.47 3453.04,-2292.38 3428.21,-2409.2"/>
<polygon fill="black" stroke="black" stroke-width="0.58" points="3424.75,-2408.65 3426.09,-2419.16 3431.59,-2410.11 3424.75,-2408.65"/>
<text text-anchor="middle" x="3442.43" y="-2085.01" font-family="Times,serif" font-size="14.00">biomass*84120</text>
</g>
<!-- 5,&#45;1 (Drilling Fluid Type 2, I think my maths is backwards) -->
<g id="node11" class="node">
<title>5,&#45;1 (Drilling Fluid Type 2, I think my maths is backwards)</title>
<ellipse fill="none" stroke="black" cx="448.01" cy="-720.28" rx="282.15" ry="18"/>
<text text-anchor="middle" x="448.01" y="-716.58" font-family="Times,serif" font-size="14.00">5,&#45;1 (Drilling Fluid Type 2, I think my maths is backwards)</text>
</g>
<!-- 5,&#45;1 (Drilling Fluid Type 2, I think my maths is backwards)&#45;&gt;&#45;7,&#45;4 (Isomer&#39;s Slaughterhouse and Daycare Centre, Bone Meal) -->
<g id="edge19" class="edge">
<title>5,&#45;1 (Drilling Fluid Type 2, I think my maths is backwards)&#45;&gt;&#45;7,&#45;4 (Isomer&#39;s Slaughterhouse and Daycare Centre, Bone Meal)</title>
<path fill="none" stroke="black" stroke-width="0.08" d="M594.49,-735.67C1095.82,-788.36 2740.65,-961.24 3262.11,-1016.05"/>
<polygon fill="black" stroke="black" stroke-width="0.08" points="3262.03,-1019.56 3272.34,-1017.13 3262.76,-1012.6 3262.03,-1019.56"/>
<text text-anchor="middle" x="1872.8" y="-879.66" font-family="Times,serif" font-size="14.00">biomass*11824</text>
</g>
<!-- 5,&#45;1 (Drilling Fluid Type 2, I think my maths is backwards)&#45;&gt;&#45;3,8 (Urea) -->
<g id="edge25" class="edge">
<title>5,&#45;1 (Drilling Fluid Type 2, I think my maths is backwards)&#45;&gt;&#45;3,8 (Urea)</title>
<path fill="none" stroke="black" stroke-width="0.09" d="M439.89,-738.5C399.21,-829.89 217.42,-1238.2 168.27,-1348.58"/>
<polygon fill="black" stroke="black" stroke-width="0.09" points="164.93,-1347.47 164.06,-1358.03 171.33,-1350.32 164.93,-1347.47"/>
<text text-anchor="middle" x="248.58" y="-1047.34" font-family="Times,serif" font-size="14.00">biomass*12784</text>
</g>
<!-- 5,&#45;1 (Drilling Fluid Type 2, I think my maths is backwards)&#45;&gt;&#45;6,&#45;2 (item=fertilizer Fertiliser) -->
<g id="edge23" class="edge">
<title>5,&#45;1 (Drilling Fluid Type 2, I think my maths is backwards)&#45;&gt;&#45;6,&#45;2 (item=fertilizer Fertiliser)</title>
<path fill="none" stroke="black" stroke-width="0.07" d="M594.86,-704.84C1052.4,-656.75 2447.14,-510.16 2874.43,-465.25"/>
<polygon fill="black" stroke="black" stroke-width="0.07" points="2875.07,-468.7 2884.65,-464.18 2874.34,-461.74 2875.07,-468.7"/>
<text text-anchor="middle" x="1679.15" y="-588.85" font-family="Times,serif" font-size="14.00">biomass*10000</text>
</g>
<!-- 5,&#45;1 (Drilling Fluid Type 2, I think my maths is backwards)&#45;&gt;7,&#45;2 (item=guts Auog guts) -->
<g id="edge14" class="edge">
<title>5,&#45;1 (Drilling Fluid Type 2, I think my maths is backwards)&#45;&gt;7,&#45;2 (item=guts Auog guts)</title>
<path fill="none" stroke="black" stroke-width="0.06" d="M502.42,-702.6C778.85,-612.78 2025.91,-207.59 2317.37,-112.89"/>
<polygon fill="black" stroke="black" stroke-width="0.06" points="2318.5,-116.2 2326.93,-109.78 2316.33,-109.54 2318.5,-116.2"/>
<text text-anchor="middle" x="1358.89" y="-411.54" font-family="Times,serif" font-size="14.00">biomass*8672</text>
</g>
<!-- 5,&#45;1 (Drilling Fluid Type 2, I think my maths is backwards)&#45;&gt;&#45;4,2 (This line not currently using manure, Ralesia seeds) -->
<g id="edge15" class="edge">
<title>5,&#45;1 (Drilling Fluid Type 2, I think my maths is backwards)&#45;&gt;&#45;4,2 (This line not currently using manure, Ralesia seeds)</title>
<path fill="none" stroke="black" stroke-width="0.02" d="M479.3,-702.21C646.87,-605.47 1437.45,-149.02 1624.6,-40.97"/>
<polygon fill="black" stroke="black" stroke-width="0.02" points="1626.4,-43.98 1633.31,-35.95 1622.9,-37.91 1626.4,-43.98"/>
<text text-anchor="middle" x="1000.95" y="-375.39" font-family="Times,serif" font-size="14.00">biomass*2208</text>
</g>
<!-- 5,&#45;1 (Drilling Fluid Type 2, I think my maths is backwards)&#45;&gt;&#45;5,5 (fluid=flue&#45;gas Flue gas) -->
<g id="edge30" class="edge">
<title>5,&#45;1 (Drilling Fluid Type 2, I think my maths is backwards)&#45;&gt;&#45;5,5 (fluid=flue&#45;gas Flue gas)</title>
<path fill="none" stroke="black" stroke-width="0.17" d="M467.95,-702.32C549.74,-628.67 859.63,-349.65 954.08,-264.61"/>
<polygon fill="black" stroke="black" stroke-width="0.17" points="956.43,-267.2 961.52,-257.91 951.75,-262 956.43,-267.2"/>
<text text-anchor="middle" x="655.51" y="-487.27" font-family="Times,serif" font-size="14.00">biomass*25184</text>
</g>
</g>
</svg>
