<?xml version="1.0" encoding="UTF-8" standalone="no"?>
<!DOCTYPE svg PUBLIC "-//W3C//DTD SVG 1.1//EN"
 "http://www.w3.org/Graphics/SVG/1.1/DTD/svg11.dtd">
<!-- Generated by graphviz version 2.43.0 (0)
 -->
<!-- Title: %3 Pages: 1 -->
<svg width="1883pt" height="535pt"
 viewBox="0.00 0.00 1883.27 534.69" xmlns="http://www.w3.org/2000/svg" xmlns:xlink="http://www.w3.org/1999/xlink">
<g id="graph0" class="graph" transform="scale(1 1) rotate(0) translate(4 530.69)">
<title>%3</title>
<polygon fill="white" stroke="transparent" points="-4,4 -4,-530.69 1879.27,-530.69 1879.27,4 -4,4"/>
<!-- 3,3 (Small Parts) -->
<g id="node1" class="node">
<title>3,3 (Small Parts)</title>
<ellipse fill="none" stroke="black" cx="621.68" cy="-263.35" rx="89.08" ry="18"/>
<text text-anchor="middle" x="621.68" y="-259.65" font-family="Times,serif" font-size="14.00">3,3 (Small Parts)</text>
</g>
<!-- 3,2 (Fiberboard) -->
<g id="node2" class="node">
<title>3,2 (Fiberboard)</title>
<ellipse fill="none" stroke="black" cx="443.42" cy="-18" rx="87.18" ry="18"/>
<text text-anchor="middle" x="443.42" y="-14.3" font-family="Times,serif" font-size="14.00">3,2 (Fiberboard)</text>
</g>
<!-- 3,3 (Small Parts)&#45;&gt;3,2 (Fiberboard) -->
<g id="edge1" class="edge">
<title>3,3 (Small Parts)&#45;&gt;3,2 (Fiberboard)</title>
<path fill="none" stroke="black" stroke-width="4.5" d="M608.57,-245.31C577.47,-202.5 499.11,-94.65 462.65,-44.46"/>
<polygon fill="black" stroke="black" stroke-width="4.5" points="465.61,-41.84 456.55,-36.07 459.24,-46.47 465.61,-41.84"/>
<text text-anchor="middle" x="453.61" y="-148.68" font-family="Times,serif" font-size="14.00">small&#45;parts&#45;01*624080</text>
</g>
<!-- 8,2 (Tar) -->
<g id="node4" class="node">
<title>8,2 (Tar)</title>
<ellipse fill="none" stroke="black" cx="443.42" cy="-508.69" rx="50.09" ry="18"/>
<text text-anchor="middle" x="443.42" y="-504.99" font-family="Times,serif" font-size="14.00">8,2 (Tar)</text>
</g>
<!-- 3,3 (Small Parts)&#45;&gt;8,2 (Tar) -->
<g id="edge7" class="edge">
<title>3,3 (Small Parts)&#45;&gt;8,2 (Tar)</title>
<path fill="none" stroke="black" stroke-width="0.15" d="M608.57,-281.39C577.4,-324.29 498.73,-432.57 462.38,-482.6"/>
<polygon fill="black" stroke="black" stroke-width="0.15" points="459.35,-480.81 456.31,-490.96 465.02,-484.92 459.35,-480.81"/>
<text text-anchor="middle" x="457.97" y="-385.79" font-family="Times,serif" font-size="14.00">small&#45;parts&#45;01*20200</text>
</g>
<!-- &#45;4,&#45;2 (For Science!) -->
<g id="node5" class="node">
<title>&#45;4,&#45;2 (For Science!)</title>
<ellipse fill="none" stroke="black" cx="155" cy="-111.71" rx="98.58" ry="18"/>
<text text-anchor="middle" x="155" y="-108.01" font-family="Times,serif" font-size="14.00">&#45;4,&#45;2 (For Science!)</text>
</g>
<!-- 3,3 (Small Parts)&#45;&gt;&#45;4,&#45;2 (For Science!) -->
<g id="edge3" class="edge">
<title>3,3 (Small Parts)&#45;&gt;&#45;4,&#45;2 (For Science!)</title>
<path fill="none" stroke="black" stroke-width="0.91" d="M574.36,-247.97C488.31,-220.01 306.47,-160.93 213.07,-130.58"/>
<polygon fill="black" stroke="black" stroke-width="0.91" points="214.08,-127.23 203.49,-127.47 211.92,-133.89 214.08,-127.23"/>
<text text-anchor="middle" x="311.71" y="-193.08" font-family="Times,serif" font-size="14.00">small&#45;parts&#45;01*126600</text>
</g>
<!-- &#45;3,0 (TODO: Get circuits from the train network instead of this ridiculous belt, item=lab&#45;instrument Laboratory instruments) -->
<g id="node6" class="node">
<title>&#45;3,0 (TODO: Get circuits from the train network instead of this ridiculous belt, item=lab&#45;instrument Laboratory instruments)</title>
<ellipse fill="none" stroke="black" cx="1284.47" cy="-263.35" rx="590.6" ry="18"/>
<text text-anchor="middle" x="1284.47" y="-259.65" font-family="Times,serif" font-size="14.00">&#45;3,0 (TODO: Get circuits from the train network instead of this ridiculous belt, item=lab&#45;instrument Laboratory instruments)</text>
</g>
<!-- 3,3 (Small Parts)&#45;&gt;&#45;3,0 (TODO: Get circuits from the train network instead of this ridiculous belt, item=lab&#45;instrument Laboratory instruments) -->
<g id="edge6" class="edge">
<title>3,3 (Small Parts)&#45;&gt;&#45;3,0 (TODO: Get circuits from the train network instead of this ridiculous belt, item=lab&#45;instrument Laboratory instruments)</title>
<path fill="none" stroke="black" stroke-width="0.14" d="M710.72,-263.35C710.76,-263.35 710.81,-263.35 710.85,-263.35"/>
<polygon fill="black" stroke="black" stroke-width="0.14" points="700.99,-266.85 710.99,-263.35 700.98,-259.85 700.99,-266.85"/>
<text text-anchor="middle" x="788.29" y="-267.15" font-family="Times,serif" font-size="14.00">small&#45;parts&#45;01*20080</text>
</g>
<!-- 6,3 (Things from molten) -->
<g id="node3" class="node">
<title>6,3 (Things from molten)</title>
<ellipse fill="none" stroke="black" cx="155" cy="-414.98" rx="126.18" ry="18"/>
<text text-anchor="middle" x="155" y="-411.28" font-family="Times,serif" font-size="14.00">6,3 (Things from molten)</text>
</g>
<!-- 6,3 (Things from molten)&#45;&gt;3,2 (Fiberboard) -->
<g id="edge4" class="edge">
<title>6,3 (Things from molten)&#45;&gt;3,2 (Fiberboard)</title>
<path fill="none" stroke="black" stroke-width="0.86" d="M168.14,-396.89C214.31,-333.34 369.25,-120.09 424.03,-44.69"/>
<polygon fill="black" stroke="black" stroke-width="0.86" points="427.16,-46.34 430.2,-36.2 421.49,-42.23 427.16,-46.34"/>
<text text-anchor="middle" x="214.09" y="-224.59" font-family="Times,serif" font-size="14.00">small&#45;parts&#45;01*119440</text>
</g>
<!-- 6,3 (Things from molten)&#45;&gt;8,2 (Tar) -->
<g id="edge2" class="edge">
<title>6,3 (Things from molten)&#45;&gt;8,2 (Tar)</title>
<path fill="none" stroke="black" stroke-width="0.15" d="M205.9,-431.52C259.68,-448.99 343.81,-476.33 396.17,-493.34"/>
<polygon fill="black" stroke="black" stroke-width="0.15" points="395.29,-496.73 405.88,-496.49 397.45,-490.08 395.29,-496.73"/>
<text text-anchor="middle" x="223.53" y="-466.23" font-family="Times,serif" font-size="14.00">small&#45;parts&#45;01*20176</text>
</g>
<!-- 6,3 (Things from molten)&#45;&gt;&#45;4,&#45;2 (For Science!) -->
<g id="edge5" class="edge">
<title>6,3 (Things from molten)&#45;&gt;&#45;4,&#45;2 (For Science!)</title>
<path fill="none" stroke="black" stroke-width="0.29" d="M155,-396.92C155,-346.15 155,-201.91 155,-140.24"/>
<polygon fill="black" stroke="black" stroke-width="0.29" points="158.5,-140.07 155,-130.07 151.5,-140.07 158.5,-140.07"/>
<text text-anchor="middle" x="77.5" y="-272.38" font-family="Times,serif" font-size="14.00">small&#45;parts&#45;01*39856</text>
</g>
</g>
</svg>
