<?xml version="1.0" encoding="UTF-8" standalone="no"?>
<!DOCTYPE svg PUBLIC "-//W3C//DTD SVG 1.1//EN"
 "http://www.w3.org/Graphics/SVG/1.1/DTD/svg11.dtd">
<!-- Generated by graphviz version 2.43.0 (0)
 -->
<!-- Title: %3 Pages: 1 -->
<svg width="705pt" height="44pt"
 viewBox="0.00 0.00 704.95 44.00" xmlns="http://www.w3.org/2000/svg" xmlns:xlink="http://www.w3.org/1999/xlink">
<g id="graph0" class="graph" transform="scale(1 1) rotate(0) translate(4 40)">
<title>%3</title>
<polygon fill="white" stroke="transparent" points="-4,4 -4,-40 700.95,-40 700.95,4 -4,4"/>
<!-- 1,9 (Ammunition) -->
<g id="node1" class="node">
<title>1,9 (Ammunition)</title>
<ellipse fill="none" stroke="black" cx="342.62" cy="-18" rx="91.78" ry="18"/>
<text text-anchor="middle" x="342.62" y="-14.3" font-family="Times,serif" font-size="14.00">1,9 (Ammunition)</text>
</g>
<!-- 6,8 () -->
<g id="node2" class="node">
<title>6,8 ()</title>
<ellipse fill="none" stroke="black" cx="547.21" cy="-18" rx="35.19" ry="18"/>
<text text-anchor="middle" x="547.21" y="-14.3" font-family="Times,serif" font-size="14.00">6,8 ()</text>
</g>
<!-- 1,9 (Ammunition)&#45;&gt;6,8 () -->
<g id="edge1" class="edge">
<title>1,9 (Ammunition)&#45;&gt;6,8 ()</title>
<path fill="none" stroke="black" stroke-width="1.62" d="M434.44,-18C457.67,-18 481.63,-18 501.46,-18"/>
<polygon fill="black" stroke="black" stroke-width="1.62" points="501.72,-21.5 511.72,-18 501.72,-14.5 501.72,-21.5"/>
<text text-anchor="middle" x="582.45" y="-21.8" font-family="Times,serif" font-size="14.00">piercing&#45;rounds&#45;magazine*1040</text>
</g>
<!-- &#45;7,&#45;5 () -->
<g id="node3" class="node">
<title>&#45;7,&#45;5 ()</title>
<ellipse fill="none" stroke="black" cx="138.03" cy="-18" rx="40.89" ry="18"/>
<text text-anchor="middle" x="138.03" y="-14.3" font-family="Times,serif" font-size="14.00">&#45;7,&#45;5 ()</text>
</g>
<!-- 1,9 (Ammunition)&#45;&gt;&#45;7,&#45;5 () -->
<g id="edge2" class="edge">
<title>1,9 (Ammunition)&#45;&gt;&#45;7,&#45;5 ()</title>
<path fill="none" stroke="black" stroke-width="0.38" d="M250.8,-18C229.65,-18 207.89,-18 189.2,-18"/>
<polygon fill="black" stroke="black" stroke-width="0.38" points="189.16,-14.5 179.16,-18 189.16,-21.5 189.16,-14.5"/>
<text text-anchor="middle" x="110" y="-21.8" font-family="Times,serif" font-size="14.00">piercing&#45;rounds&#45;magazine*240</text>
</g>
</g>
</svg>
