<?xml version="1.0" encoding="UTF-8" standalone="no"?>
<!DOCTYPE svg PUBLIC "-//W3C//DTD SVG 1.1//EN"
 "http://www.w3.org/Graphics/SVG/1.1/DTD/svg11.dtd">
<!-- Generated by graphviz version 2.43.0 (0)
 -->
<!-- Title: %3 Pages: 1 -->
<svg width="712pt" height="44pt"
 viewBox="0.00 0.00 711.60 44.00" xmlns="http://www.w3.org/2000/svg" xmlns:xlink="http://www.w3.org/1999/xlink">
<g id="graph0" class="graph" transform="scale(1 1) rotate(0) translate(4 40)">
<title>%3</title>
<polygon fill="white" stroke="transparent" points="-4,4 -4,-40 707.6,-40 707.6,4 -4,4"/>
<!-- 2,5 (Simple Circuits) -->
<g id="node1" class="node">
<title>2,5 (Simple Circuits)</title>
<ellipse fill="none" stroke="black" cx="361.87" cy="-18" rx="106.68" ry="18"/>
<text text-anchor="middle" x="361.87" y="-14.3" font-family="Times,serif" font-size="14.00">2,5 (Simple Circuits)</text>
</g>
<!-- 0,0 (LE BUS) -->
<g id="node2" class="node">
<title>0,0 (LE BUS)</title>
<ellipse fill="none" stroke="black" cx="632.11" cy="-18" rx="71.49" ry="18"/>
<text text-anchor="middle" x="632.11" y="-14.3" font-family="Times,serif" font-size="14.00">0,0 (LE BUS)</text>
</g>
<!-- 2,5 (Simple Circuits)&#45;&gt;0,0 (LE BUS) -->
<g id="edge1" class="edge">
<title>2,5 (Simple Circuits)&#45;&gt;0,0 (LE BUS)</title>
<path fill="none" stroke="black" stroke-width="1.87" d="M468.68,-18C495.9,-18 524.72,-18 550.46,-18"/>
<polygon fill="black" stroke="black" stroke-width="1.87" points="550.54,-21.5 560.54,-18 550.54,-14.5 550.54,-21.5"/>
<text text-anchor="middle" x="509.57" y="-6.8" font-family="Times,serif" font-size="14.00">electronic&#45;circuit*28560</text>
</g>
<!-- 1,9 (Ammunition) -->
<g id="node3" class="node">
<title>1,9 (Ammunition)</title>
<ellipse fill="none" stroke="black" cx="91.64" cy="-18" rx="91.78" ry="18"/>
<text text-anchor="middle" x="91.64" y="-14.3" font-family="Times,serif" font-size="14.00">1,9 (Ammunition)</text>
</g>
<!-- 2,5 (Simple Circuits)&#45;&gt;1,9 (Ammunition) -->
<g id="edge2" class="edge">
<title>2,5 (Simple Circuits)&#45;&gt;1,9 (Ammunition)</title>
<path fill="none" stroke="black" stroke-width="0.13" d="M255.07,-18C234.88,-18 213.8,-18 193.76,-18"/>
<polygon fill="black" stroke="black" stroke-width="0.13" points="193.7,-14.5 183.7,-18 193.7,-21.5 193.7,-14.5"/>
<text text-anchor="middle" x="265.41" y="-6.8" font-family="Times,serif" font-size="14.00">electronic&#45;circuit*2016</text>
</g>
</g>
</svg>
