<?xml version="1.0" encoding="UTF-8" standalone="no"?>
<!DOCTYPE svg PUBLIC "-//W3C//DTD SVG 1.1//EN"
 "http://www.w3.org/Graphics/SVG/1.1/DTD/svg11.dtd">
<!-- Generated by graphviz version 2.43.0 (0)
 -->
<!-- Title: %3 Pages: 1 -->
<svg width="986pt" height="853pt"
 viewBox="0.00 0.00 985.76 853.39" xmlns="http://www.w3.org/2000/svg" xmlns:xlink="http://www.w3.org/1999/xlink">
<g id="graph0" class="graph" transform="scale(1 1) rotate(0) translate(4 849.39)">
<title>%3</title>
<polygon fill="white" stroke="transparent" points="-4,4 -4,-849.39 981.76,-849.39 981.76,4 -4,4"/>
<!-- &#45;3,&#45;3 (Zinc Plates) -->
<g id="node1" class="node">
<title>&#45;3,&#45;3 (Zinc Plates)</title>
<ellipse fill="none" stroke="black" cx="500.85" cy="-423.35" rx="92.88" ry="18"/>
<text text-anchor="middle" x="500.85" y="-419.65" font-family="Times,serif" font-size="14.00">&#45;3,&#45;3 (Zinc Plates)</text>
</g>
<!-- 0,0 (LE BUS) -->
<g id="node2" class="node">
<title>0,0 (LE BUS)</title>
<ellipse fill="none" stroke="black" cx="906.27" cy="-423.35" rx="71.49" ry="18"/>
<text text-anchor="middle" x="906.27" y="-419.65" font-family="Times,serif" font-size="14.00">0,0 (LE BUS)</text>
</g>
<!-- &#45;3,&#45;3 (Zinc Plates)&#45;&gt;0,0 (LE BUS) -->
<g id="edge1" class="edge">
<title>&#45;3,&#45;3 (Zinc Plates)&#45;&gt;0,0 (LE BUS)</title>
<path fill="none" stroke="black" stroke-width="1.36" d="M593.86,-423.35C663.46,-423.35 757.75,-423.35 824.48,-423.35"/>
<polygon fill="black" stroke="black" stroke-width="1.36" points="824.53,-426.85 834.53,-423.35 824.53,-419.85 824.53,-426.85"/>
<text text-anchor="middle" x="741.67" y="-412.15" font-family="Times,serif" font-size="14.00">zinc&#45;plate*164000</text>
</g>
<!-- 4,6 (Circuit substrate and Doped silicon) -->
<g id="node3" class="node">
<title>4,6 (Circuit substrate and Doped silicon)</title>
<ellipse fill="none" stroke="black" cx="534.28" cy="-827.39" rx="199.56" ry="18"/>
<text text-anchor="middle" x="534.28" y="-823.69" font-family="Times,serif" font-size="14.00">4,6 (Circuit substrate and Doped silicon)</text>
</g>
<!-- &#45;3,&#45;3 (Zinc Plates)&#45;&gt;4,6 (Circuit substrate and Doped silicon) -->
<g id="edge2" class="edge">
<title>&#45;3,&#45;3 (Zinc Plates)&#45;&gt;4,6 (Circuit substrate and Doped silicon)</title>
<path fill="none" stroke="black" stroke-width="0.66" d="M502.35,-441.5C507.65,-505.59 525.53,-721.62 531.95,-799.28"/>
<polygon fill="black" stroke="black" stroke-width="0.66" points="528.47,-799.62 532.78,-809.3 535.45,-799.04 528.47,-799.62"/>
<text text-anchor="middle" x="456.65" y="-624.19" font-family="Times,serif" font-size="14.00">zinc&#45;plate*80000</text>
</g>
<!-- 3,0 (Zinc Chloride) -->
<g id="node4" class="node">
<title>3,0 (Zinc Chloride)</title>
<ellipse fill="none" stroke="black" cx="97.49" cy="-464.23" rx="97.48" ry="18"/>
<text text-anchor="middle" x="97.49" y="-460.53" font-family="Times,serif" font-size="14.00">3,0 (Zinc Chloride)</text>
</g>
<!-- &#45;3,&#45;3 (Zinc Plates)&#45;&gt;3,0 (Zinc Chloride) -->
<g id="edge3" class="edge">
<title>&#45;3,&#45;3 (Zinc Plates)&#45;&gt;3,0 (Zinc Chloride)</title>
<path fill="none" stroke="black" stroke-width="1.48" d="M418.25,-431.72C353.03,-438.33 261.92,-447.56 193.47,-454.5"/>
<polygon fill="black" stroke="black" stroke-width="1.48" points="192.7,-451.06 183.11,-455.55 193.41,-458.03 192.7,-451.06"/>
<text text-anchor="middle" x="240.86" y="-431.91" font-family="Times,serif" font-size="14.00">zinc&#45;plate*178400</text>
</g>
<!-- 3,3 (Random electronic components, Small Parts) -->
<g id="node5" class="node">
<title>3,3 (Random electronic components, Small Parts)</title>
<ellipse fill="none" stroke="black" cx="493.37" cy="-18" rx="240.46" ry="18"/>
<text text-anchor="middle" x="493.37" y="-14.3" font-family="Times,serif" font-size="14.00">3,3 (Random electronic components, Small Parts)</text>
</g>
<!-- &#45;3,&#45;3 (Zinc Plates)&#45;&gt;3,3 (Random electronic components, Small Parts) -->
<g id="edge4" class="edge">
<title>&#45;3,&#45;3 (Zinc Plates)&#45;&gt;3,3 (Random electronic components, Small Parts)</title>
<path fill="none" stroke="black" stroke-width="0.5" d="M500.51,-405.15C499.32,-340.85 495.33,-124.12 493.89,-46.2"/>
<polygon fill="black" stroke="black" stroke-width="0.5" points="497.39,-46.09 493.71,-36.15 490.39,-46.22 497.39,-46.09"/>
<text text-anchor="middle" x="436.7" y="-229.47" font-family="Times,serif" font-size="14.00">zinc&#45;plate*60000</text>
</g>
</g>
</svg>
