<?xml version="1.0" encoding="UTF-8" standalone="no"?>
<!DOCTYPE svg PUBLIC "-//W3C//DTD SVG 1.1//EN"
 "http://www.w3.org/Graphics/SVG/1.1/DTD/svg11.dtd">
<!-- Generated by graphviz version 2.43.0 (0)
 -->
<!-- Title: %3 Pages: 1 -->
<svg width="1049pt" height="44pt"
 viewBox="0.00 0.00 1048.92 44.00" xmlns="http://www.w3.org/2000/svg" xmlns:xlink="http://www.w3.org/1999/xlink">
<g id="graph0" class="graph" transform="scale(1 1) rotate(0) translate(4 40)">
<title>%3</title>
<polygon fill="white" stroke="transparent" points="-4,4 -4,-40 1044.92,-40 1044.92,4 -4,4"/>
<!-- 3,6 (Phosphoric Acid and Phosphine gas) -->
<g id="node1" class="node">
<title>3,6 (Phosphoric Acid and Phosphine gas)</title>
<ellipse fill="none" stroke="black" cx="555.56" cy="-18" rx="200.36" ry="18"/>
<text text-anchor="middle" x="555.56" y="-14.3" font-family="Times,serif" font-size="14.00">3,6 (Phosphoric Acid and Phosphine gas)</text>
</g>
<!-- 0,0 (LE BUS) -->
<g id="node2" class="node">
<title>0,0 (LE BUS)</title>
<ellipse fill="none" stroke="black" cx="969.43" cy="-18" rx="71.49" ry="18"/>
<text text-anchor="middle" x="969.43" y="-14.3" font-family="Times,serif" font-size="14.00">0,0 (LE BUS)</text>
</g>
<!-- 3,6 (Phosphoric Acid and Phosphine gas)&#45;&gt;0,0 (LE BUS) -->
<g id="edge1" class="edge">
<title>3,6 (Phosphoric Acid and Phosphine gas)&#45;&gt;0,0 (LE BUS)</title>
<path fill="none" stroke="black" stroke-width="1.81" d="M755.82,-18C802.22,-18 849.06,-18 887.01,-18"/>
<polygon fill="black" stroke="black" stroke-width="1.81" points="887.47,-21.5 897.47,-18 887.47,-14.5 887.47,-21.5"/>
<text text-anchor="middle" x="821.42" y="-6.8" font-family="Times,serif" font-size="14.00">phosphoric&#45;acid&#45;barrel*4000</text>
</g>
<!-- 6,4 (Electronic components) -->
<g id="node3" class="node">
<title>6,4 (Electronic components)</title>
<ellipse fill="none" stroke="black" cx="141.69" cy="-18" rx="141.88" ry="18"/>
<text text-anchor="middle" x="141.69" y="-14.3" font-family="Times,serif" font-size="14.00">6,4 (Electronic components)</text>
</g>
<!-- 3,6 (Phosphoric Acid and Phosphine gas)&#45;&gt;6,4 (Electronic components) -->
<g id="edge2" class="edge">
<title>3,6 (Phosphoric Acid and Phosphine gas)&#45;&gt;6,4 (Electronic components)</title>
<path fill="none" stroke="black" stroke-width="0.19" d="M355.29,-18C334.55,-18 313.72,-18 293.64,-18"/>
<polygon fill="black" stroke="black" stroke-width="0.19" points="293.52,-14.5 283.52,-18 293.52,-21.5 293.52,-14.5"/>
<text text-anchor="middle" x="275.71" y="-6.8" font-family="Times,serif" font-size="14.00">phosphoric&#45;acid&#45;barrel*408</text>
</g>
</g>
</svg>
