<?xml version="1.0" encoding="UTF-8" standalone="no"?>
<!DOCTYPE svg PUBLIC "-//W3C//DTD SVG 1.1//EN"
 "http://www.w3.org/Graphics/SVG/1.1/DTD/svg11.dtd">
<!-- Generated by graphviz version 2.43.0 (0)
 -->
<!-- Title: %3 Pages: 1 -->
<svg width="5626pt" height="5112pt"
 viewBox="0.00 0.00 5625.55 5111.72" xmlns="http://www.w3.org/2000/svg" xmlns:xlink="http://www.w3.org/1999/xlink">
<g id="graph0" class="graph" transform="scale(1 1) rotate(0) translate(4 5107.72)">
<title>%3</title>
<polygon fill="white" stroke="transparent" points="-4,4 -4,-5107.72 5621.55,-5107.72 5621.55,4 -4,4"/>
<!-- &#45;5,&#45;3 (Biomass (from Seaweed)) -->
<g id="node1" class="node">
<title>&#45;5,&#45;3 (Biomass (from Seaweed))</title>
<ellipse fill="none" stroke="black" cx="1197.35" cy="-501.92" rx="155.97" ry="18"/>
<text text-anchor="middle" x="1197.35" y="-498.22" font-family="Times,serif" font-size="14.00">&#45;5,&#45;3 (Biomass (from Seaweed))</text>
</g>
<!-- 2,4 (Formica and Phenolic boards) -->
<g id="node2" class="node">
<title>2,4 (Formica and Phenolic boards)</title>
<ellipse fill="none" stroke="black" cx="4736.66" cy="-4041.23" rx="169.77" ry="18"/>
<text text-anchor="middle" x="4736.66" y="-4037.53" font-family="Times,serif" font-size="14.00">2,4 (Formica and Phenolic boards)</text>
</g>
<!-- &#45;5,&#45;3 (Biomass (from Seaweed))&#45;&gt;2,4 (Formica and Phenolic boards) -->
<g id="edge1" class="edge">
<title>&#45;5,&#45;3 (Biomass (from Seaweed))&#45;&gt;2,4 (Formica and Phenolic boards)</title>
<path fill="none" stroke="black" stroke-width="1.26" d="M1215.55,-520.12C1474.08,-778.65 4404.73,-3709.3 4710.84,-4015.41"/>
<polygon fill="black" stroke="black" stroke-width="1.26" points="4708.82,-4018.34 4718.37,-4022.94 4713.77,-4013.39 4708.82,-4018.34"/>
<text text-anchor="middle" x="2907.7" y="-2271.57" font-family="Times,serif" font-size="14.00">biomass*95280</text>
</g>
<!-- 7,&#45;2 (item=guts Auog guts) -->
<g id="node4" class="node">
<title>7,&#45;2 (item=guts Auog guts)</title>
<ellipse fill="none" stroke="black" cx="636.78" cy="-1062.49" rx="137.28" ry="18"/>
<text text-anchor="middle" x="636.78" y="-1058.79" font-family="Times,serif" font-size="14.00">7,&#45;2 (item=guts Auog guts)</text>
</g>
<!-- &#45;5,&#45;3 (Biomass (from Seaweed))&#45;&gt;7,&#45;2 (item=guts Auog guts) -->
<g id="edge24" class="edge">
<title>&#45;5,&#45;3 (Biomass (from Seaweed))&#45;&gt;7,&#45;2 (item=guts Auog guts)</title>
<path fill="none" stroke="black" stroke-width="1.26" d="M1179.34,-519.94C1097.14,-602.14 757.59,-941.68 661.96,-1037.32"/>
<polygon fill="black" stroke="black" stroke-width="1.26" points="659.33,-1035 654.73,-1044.55 664.28,-1039.95 659.33,-1035"/>
<text text-anchor="middle" x="865.15" y="-782.43" font-family="Times,serif" font-size="14.00">biomass*95520</text>
</g>
<!-- 0,10 (item=meat Meat) -->
<g id="node5" class="node">
<title>0,10 (item=meat Meat)</title>
<ellipse fill="none" stroke="black" cx="5096.56" cy="-3334.87" rx="120.48" ry="18"/>
<text text-anchor="middle" x="5096.56" y="-3331.17" font-family="Times,serif" font-size="14.00">0,10 (item=meat Meat)</text>
</g>
<!-- &#45;5,&#45;3 (Biomass (from Seaweed))&#45;&gt;0,10 (item=meat Meat) -->
<g id="edge36" class="edge">
<title>&#45;5,&#45;3 (Biomass (from Seaweed))&#45;&gt;0,10 (item=meat Meat)</title>
<path fill="none" stroke="black" stroke-width="0.35" d="M1222,-519.83C1533.85,-746.4 4706.4,-3051.4 5063.85,-3311.1"/>
<polygon fill="black" stroke="black" stroke-width="0.35" points="5061.85,-3313.97 5072,-3317.02 5065.97,-3308.31 5061.85,-3313.97"/>
<text text-anchor="middle" x="3087.43" y="-1919.26" font-family="Times,serif" font-size="14.00">biomass*26400</text>
</g>
<!-- &#45;5,5 (fluid=flue&#45;gas Flue gas) -->
<g id="node6" class="node">
<title>&#45;5,5 (fluid=flue&#45;gas Flue gas)</title>
<ellipse fill="none" stroke="black" cx="5220.58" cy="-2551.86" rx="145.67" ry="18"/>
<text text-anchor="middle" x="5220.58" y="-2548.16" font-family="Times,serif" font-size="14.00">&#45;5,5 (fluid=flue&#45;gas Flue gas)</text>
</g>
<!-- &#45;5,&#45;3 (Biomass (from Seaweed))&#45;&gt;&#45;5,5 (fluid=flue&#45;gas Flue gas) -->
<g id="edge4" class="edge">
<title>&#45;5,&#45;3 (Biomass (from Seaweed))&#45;&gt;&#45;5,5 (fluid=flue&#45;gas Flue gas)</title>
<path fill="none" stroke="black" stroke-width="2.06" d="M1231.83,-519.49C1598.05,-706.09 4766.64,-2320.57 5176.88,-2529.6"/>
<polygon fill="black" stroke="black" stroke-width="2.06" points="5175.56,-2532.85 5186.06,-2534.27 5178.74,-2526.61 5175.56,-2532.85"/>
<text text-anchor="middle" x="3144.36" y="-1528.34" font-family="Times,serif" font-size="14.00">biomass*155440</text>
</g>
<!-- &#45;7,&#45;4 (Isomer&#39;s Slaughterhouse and Daycare Centre, Bone Meal, Auog theft) -->
<g id="node7" class="node">
<title>&#45;7,&#45;4 (Isomer&#39;s Slaughterhouse and Daycare Centre, Bone Meal, Auog theft)</title>
<ellipse fill="none" stroke="black" cx="5096.56" cy="-1768.85" rx="362.04" ry="18"/>
<text text-anchor="middle" x="5096.56" y="-1765.15" font-family="Times,serif" font-size="14.00">&#45;7,&#45;4 (Isomer&#39;s Slaughterhouse and Daycare Centre, Bone Meal, Auog theft)</text>
</g>
<!-- &#45;5,&#45;3 (Biomass (from Seaweed))&#45;&gt;&#45;7,&#45;4 (Isomer&#39;s Slaughterhouse and Daycare Centre, Bone Meal, Auog theft) -->
<g id="edge18" class="edge">
<title>&#45;5,&#45;3 (Biomass (from Seaweed))&#45;&gt;&#45;7,&#45;4 (Isomer&#39;s Slaughterhouse and Daycare Centre, Bone Meal, Auog theft)</title>
<path fill="none" stroke="black" stroke-width="0.99" d="M1249.89,-518.99C1675.95,-657.43 4561.54,-1595.01 5031.83,-1747.82"/>
<polygon fill="black" stroke="black" stroke-width="0.99" points="5030.93,-1751.21 5041.52,-1750.97 5033.09,-1744.55 5030.93,-1751.21"/>
<text text-anchor="middle" x="3085.36" y="-1137.21" font-family="Times,serif" font-size="14.00">biomass*74640</text>
</g>
<!-- &#45;4,2 (This line not currently using manure, Ralesia seeds) -->
<g id="node8" class="node">
<title>&#45;4,2 (This line not currently using manure, Ralesia seeds)</title>
<ellipse fill="none" stroke="black" cx="276.88" cy="-1768.85" rx="276.75" ry="18"/>
<text text-anchor="middle" x="276.88" y="-1765.15" font-family="Times,serif" font-size="14.00">&#45;4,2 (This line not currently using manure, Ralesia seeds)</text>
</g>
<!-- &#45;5,&#45;3 (Biomass (from Seaweed))&#45;&gt;&#45;4,2 (This line not currently using manure, Ralesia seeds) -->
<g id="edge15" class="edge">
<title>&#45;5,&#45;3 (Biomass (from Seaweed))&#45;&gt;&#45;4,2 (This line not currently using manure, Ralesia seeds)</title>
<path fill="none" stroke="black" stroke-width="0.23" d="M1183.99,-520.32C1081.25,-661.72 417.8,-1574.89 296.05,-1742.46"/>
<polygon fill="black" stroke="black" stroke-width="0.23" points="293.09,-1740.58 290.04,-1750.73 298.75,-1744.7 293.09,-1740.58"/>
<text text-anchor="middle" x="684.52" y="-1135.19" font-family="Times,serif" font-size="14.00">biomass*17200</text>
</g>
<!-- &#45;6,&#45;2 (item=fertilizer Fertiliser) -->
<g id="node9" class="node">
<title>&#45;6,&#45;2 (item=fertilizer Fertiliser)</title>
<ellipse fill="none" stroke="black" cx="4176.09" cy="-501.92" rx="155.97" ry="18"/>
<text text-anchor="middle" x="4176.09" y="-498.22" font-family="Times,serif" font-size="14.00">&#45;6,&#45;2 (item=fertilizer Fertiliser)</text>
</g>
<!-- &#45;5,&#45;3 (Biomass (from Seaweed))&#45;&gt;&#45;6,&#45;2 (item=fertilizer Fertiliser) -->
<g id="edge14" class="edge">
<title>&#45;5,&#45;3 (Biomass (from Seaweed))&#45;&gt;&#45;6,&#45;2 (item=fertilizer Fertiliser)</title>
<path fill="none" stroke="black" stroke-width="1.92" d="M1353.57,-501.92C1864.62,-501.92 3484.02,-501.92 4009.61,-501.92"/>
<polygon fill="black" stroke="black" stroke-width="1.92" points="4009.92,-505.42 4019.92,-501.92 4009.92,-498.42 4009.92,-505.42"/>
<text text-anchor="middle" x="2621.59" y="-505.72" font-family="Times,serif" font-size="14.00">biomass*145280</text>
</g>
<!-- &#45;3,8 (Urea) -->
<g id="node10" class="node">
<title>&#45;3,8 (Urea)</title>
<ellipse fill="none" stroke="black" cx="3469.73" cy="-142.02" rx="61.19" ry="18"/>
<text text-anchor="middle" x="3469.73" y="-138.32" font-family="Times,serif" font-size="14.00">&#45;3,8 (Urea)</text>
</g>
<!-- &#45;5,&#45;3 (Biomass (from Seaweed))&#45;&gt;&#45;3,8 (Urea) -->
<g id="edge26" class="edge">
<title>&#45;5,&#45;3 (Biomass (from Seaweed))&#45;&gt;&#45;3,8 (Urea)</title>
<path fill="none" stroke="black" stroke-width="1.16" d="M1289.25,-487.37C1665.86,-427.72 3086.43,-202.72 3405.74,-152.15"/>
<polygon fill="black" stroke="black" stroke-width="1.16" points="3406.42,-155.59 3415.75,-150.57 3405.32,-148.67 3406.42,-155.59"/>
<text text-anchor="middle" x="2291.99" y="-323.56" font-family="Times,serif" font-size="14.00">biomass*88000</text>
</g>
<!-- 0,9 (Auog Brains) -->
<g id="node12" class="node">
<title>0,9 (Auog Brains)</title>
<ellipse fill="none" stroke="black" cx="2686.72" cy="-18" rx="91.78" ry="18"/>
<text text-anchor="middle" x="2686.72" y="-14.3" font-family="Times,serif" font-size="14.00">0,9 (Auog Brains)</text>
</g>
<!-- &#45;5,&#45;3 (Biomass (from Seaweed))&#45;&gt;0,9 (Auog Brains) -->
<g id="edge29" class="edge">
<title>&#45;5,&#45;3 (Biomass (from Seaweed))&#45;&gt;0,9 (Auog Brains)</title>
<path fill="none" stroke="black" stroke-width="0.25" d="M1249.92,-484.84C1479.2,-410.35 2390.82,-114.14 2629.35,-36.64"/>
<polygon fill="black" stroke="black" stroke-width="0.25" points="2630.78,-39.86 2639.21,-33.44 2628.62,-33.2 2630.78,-39.86"/>
<text text-anchor="middle" x="1884.14" y="-264.54" font-family="Times,serif" font-size="14.00">biomass*18800</text>
</g>
<!-- 7,0 (item=bhoddos Bhoddos) -->
<g id="node13" class="node">
<title>7,0 (item=bhoddos Bhoddos)</title>
<ellipse fill="none" stroke="black" cx="152.86" cy="-2551.86" rx="145.67" ry="18"/>
<text text-anchor="middle" x="152.86" y="-2548.16" font-family="Times,serif" font-size="14.00">7,0 (item=bhoddos Bhoddos)</text>
</g>
<!-- &#45;5,&#45;3 (Biomass (from Seaweed))&#45;&gt;7,0 (item=bhoddos Bhoddos) -->
<g id="edge30" class="edge">
<title>&#45;5,&#45;3 (Biomass (from Seaweed))&#45;&gt;7,0 (item=bhoddos Bhoddos)</title>
<path fill="none" stroke="black" stroke-width="0.51" d="M1188.17,-519.96C1092.67,-707.37 282.69,-2297.05 166.67,-2524.75"/>
<polygon fill="black" stroke="black" stroke-width="0.51" points="163.53,-2523.21 162.11,-2533.71 169.77,-2526.39 163.53,-2523.21"/>
<text text-anchor="middle" x="621.92" y="-1526.15" font-family="Times,serif" font-size="14.00">biomass*38480</text>
</g>
<!-- &#45;1,6 (Flimble&#39;s Slaughterhouse and Daycare Centre, Auog Products) -->
<g id="node14" class="node">
<title>&#45;1,6 (Flimble&#39;s Slaughterhouse and Daycare Centre, Auog Products)</title>
<ellipse fill="none" stroke="black" cx="4176.09" cy="-4601.8" rx="325.74" ry="18"/>
<text text-anchor="middle" x="4176.09" y="-4598.1" font-family="Times,serif" font-size="14.00">&#45;1,6 (Flimble&#39;s Slaughterhouse and Daycare Centre, Auog Products)</text>
</g>
<!-- &#45;5,&#45;3 (Biomass (from Seaweed))&#45;&gt;&#45;1,6 (Flimble&#39;s Slaughterhouse and Daycare Centre, Auog Products) -->
<g id="edge12" class="edge">
<title>&#45;5,&#45;3 (Biomass (from Seaweed))&#45;&gt;&#45;1,6 (Flimble&#39;s Slaughterhouse and Daycare Centre, Auog Products)</title>
<path fill="none" stroke="black" stroke-width="0.62" d="M1210.63,-520.2C1415,-801.49 3912.83,-4239.45 4156.93,-4575.43"/>
<polygon fill="black" stroke="black" stroke-width="0.62" points="4154.18,-4577.59 4162.88,-4583.63 4159.84,-4573.48 4154.18,-4577.59"/>
<text text-anchor="middle" x="2628.28" y="-2551.61" font-family="Times,serif" font-size="14.00">biomass*46640</text>
</g>
<!-- 8,0 (Moar Depot) -->
<g id="node15" class="node">
<title>8,0 (Moar Depot)</title>
<ellipse fill="none" stroke="black" cx="276.88" cy="-3334.87" rx="90.18" ry="18"/>
<text text-anchor="middle" x="276.88" y="-3331.17" font-family="Times,serif" font-size="14.00">8,0 (Moar Depot)</text>
</g>
<!-- &#45;5,&#45;3 (Biomass (from Seaweed))&#45;&gt;8,0 (Moar Depot) -->
<g id="edge41" class="edge">
<title>&#45;5,&#45;3 (Biomass (from Seaweed))&#45;&gt;8,0 (Moar Depot)</title>
<path fill="none" stroke="black" stroke-width="0.08" d="M1191.48,-520.01C1117.89,-746.48 376.68,-3027.69 285.96,-3306.91"/>
<polygon fill="black" stroke="black" stroke-width="0.08" points="282.55,-3306.09 282.79,-3316.68 289.2,-3308.25 282.55,-3306.09"/>
<text text-anchor="middle" x="687.72" y="-1917.26" font-family="Times,serif" font-size="14.00">biomass*5760</text>
</g>
<!-- 1,3 (item=korlex&#45;food&#45;01 Korlex food) -->
<g id="node16" class="node">
<title>1,3 (item=korlex&#45;food&#45;01 Korlex food)</title>
<ellipse fill="none" stroke="black" cx="636.78" cy="-4041.23" rx="185.77" ry="18"/>
<text text-anchor="middle" x="636.78" y="-4037.53" font-family="Times,serif" font-size="14.00">1,3 (item=korlex&#45;food&#45;01 Korlex food)</text>
</g>
<!-- &#45;5,&#45;3 (Biomass (from Seaweed))&#45;&gt;1,3 (item=korlex&#45;food&#45;01 Korlex food) -->
<g id="edge21" class="edge">
<title>&#45;5,&#45;3 (Biomass (from Seaweed))&#45;&gt;1,3 (item=korlex&#45;food&#45;01 Korlex food)</title>
<path fill="none" stroke="black" stroke-width="0.09" d="M1194.47,-520.12C1153.65,-777.88 692.1,-3691.99 641.31,-4012.63"/>
<polygon fill="black" stroke="black" stroke-width="0.09" points="637.79,-4012.51 639.68,-4022.94 644.7,-4013.61 637.79,-4012.51"/>
<text text-anchor="middle" x="866.89" y="-2270.18" font-family="Times,serif" font-size="14.00">biomass*6880</text>
</g>
<!-- &#45;3,&#45;2 (Depot) -->
<g id="node18" class="node">
<title>&#45;3,&#45;2 (Depot)</title>
<ellipse fill="none" stroke="black" cx="1197.35" cy="-4601.8" rx="68.79" ry="18"/>
<text text-anchor="middle" x="1197.35" y="-4598.1" font-family="Times,serif" font-size="14.00">&#45;3,&#45;2 (Depot)</text>
</g>
<!-- &#45;5,&#45;3 (Biomass (from Seaweed))&#45;&gt;&#45;3,&#45;2 (Depot) -->
<g id="edge45" class="edge">
<title>&#45;5,&#45;3 (Biomass (from Seaweed))&#45;&gt;&#45;3,&#45;2 (Depot)</title>
<path fill="none" stroke="black" stroke-width="0.07" d="M1197.35,-520.2C1197.35,-800.94 1197.35,-4225.92 1197.35,-4573.4"/>
<polygon fill="black" stroke="black" stroke-width="0.07" points="1193.85,-4573.63 1197.35,-4583.63 1200.85,-4573.63 1193.85,-4573.63"/>
<text text-anchor="middle" x="1146.35" y="-2550.6" font-family="Times,serif" font-size="14.00">biomass*5600</text>
</g>
<!-- 4,6 (Circuit substrate and Doped silicon) -->
<g id="node19" class="node">
<title>4,6 (Circuit substrate and Doped silicon)</title>
<ellipse fill="none" stroke="black" cx="1903.71" cy="-4961.71" rx="199.56" ry="18"/>
<text text-anchor="middle" x="1903.71" y="-4958.01" font-family="Times,serif" font-size="14.00">4,6 (Circuit substrate and Doped silicon)</text>
</g>
<!-- &#45;5,&#45;3 (Biomass (from Seaweed))&#45;&gt;4,6 (Circuit substrate and Doped silicon) -->
<g id="edge43" class="edge">
<title>&#45;5,&#45;3 (Biomass (from Seaweed))&#45;&gt;4,6 (Circuit substrate and Doped silicon)</title>
<path fill="none" stroke="black" stroke-width="0.22" d="M1200.27,-520.36C1247.08,-815.85 1841.45,-4568.58 1899.21,-4933.25"/>
<polygon fill="black" stroke="black" stroke-width="0.22" points="1895.77,-4933.94 1900.79,-4943.27 1902.69,-4932.85 1895.77,-4933.94"/>
<text text-anchor="middle" x="1494.24" y="-2730.61" font-family="Times,serif" font-size="14.00">biomass*16720</text>
</g>
<!-- 3,4 (Depot) -->
<g id="node21" class="node">
<title>3,4 (Depot)</title>
<ellipse fill="none" stroke="black" cx="2686.72" cy="-5085.72" rx="63.09" ry="18"/>
<text text-anchor="middle" x="2686.72" y="-5082.02" font-family="Times,serif" font-size="14.00">3,4 (Depot)</text>
</g>
<!-- &#45;5,&#45;3 (Biomass (from Seaweed))&#45;&gt;3,4 (Depot) -->
<g id="edge48" class="edge">
<title>&#45;5,&#45;3 (Biomass (from Seaweed))&#45;&gt;3,4 (Depot)</title>
<path fill="none" stroke="black" stroke-width="0.07" d="M1203.2,-519.92C1299.66,-816.78 2558.97,-4692.54 2677.74,-5058.1"/>
<polygon fill="black" stroke="black" stroke-width="0.07" points="2674.43,-5059.23 2680.85,-5067.66 2681.09,-5057.07 2674.43,-5059.23"/>
<text text-anchor="middle" x="1889.47" y="-2792.81" font-family="Times,serif" font-size="14.00">biomass*5600</text>
</g>
<!-- &#45;2,4 (fluid=drilling&#45;fluid&#45;0 Drilling fluid 1, Biomass) -->
<g id="node3" class="node">
<title>&#45;2,4 (fluid=drilling&#45;fluid&#45;0 Drilling fluid 1, Biomass)</title>
<ellipse fill="none" stroke="black" cx="3469.73" cy="-4961.71" rx="248.86" ry="18"/>
<text text-anchor="middle" x="3469.73" y="-4958.01" font-family="Times,serif" font-size="14.00">&#45;2,4 (fluid=drilling&#45;fluid&#45;0 Drilling fluid 1, Biomass)</text>
</g>
<!-- &#45;2,4 (fluid=drilling&#45;fluid&#45;0 Drilling fluid 1, Biomass)&#45;&gt;2,4 (Formica and Phenolic boards) -->
<g id="edge9" class="edge">
<title>&#45;2,4 (fluid=drilling&#45;fluid&#45;0 Drilling fluid 1, Biomass)&#45;&gt;2,4 (Formica and Phenolic boards)</title>
<path fill="none" stroke="black" stroke-width="3.5" d="M3494.47,-4943.73C3652.76,-4828.72 4522.75,-4196.64 4703.69,-4065.18"/>
<polygon fill="black" stroke="black" stroke-width="3.5" points="4705.98,-4067.84 4712.02,-4059.13 4701.87,-4062.17 4705.98,-4067.84"/>
<text text-anchor="middle" x="4039.08" y="-4508.25" font-family="Times,serif" font-size="14.00">biomass*264800</text>
</g>
<!-- &#45;2,4 (fluid=drilling&#45;fluid&#45;0 Drilling fluid 1, Biomass)&#45;&gt;7,&#45;2 (item=guts Auog guts) -->
<g id="edge2" class="edge">
<title>&#45;2,4 (fluid=drilling&#45;fluid&#45;0 Drilling fluid 1, Biomass)&#45;&gt;7,&#45;2 (item=guts Auog guts)</title>
<path fill="none" stroke="black" stroke-width="1.96" d="M3456.46,-4943.45C3257.95,-4670.22 893.82,-1416.27 656.03,-1088.99"/>
<polygon fill="black" stroke="black" stroke-width="1.96" points="658.63,-1086.6 649.92,-1080.57 652.96,-1090.72 658.63,-1086.6"/>
<text text-anchor="middle" x="1996.25" y="-3020.02" font-family="Times,serif" font-size="14.00">biomass*147840</text>
</g>
<!-- &#45;2,4 (fluid=drilling&#45;fluid&#45;0 Drilling fluid 1, Biomass)&#45;&gt;0,10 (item=meat Meat) -->
<g id="edge3" class="edge">
<title>&#45;2,4 (fluid=drilling&#45;fluid&#45;0 Drilling fluid 1, Biomass)&#45;&gt;0,10 (item=meat Meat)</title>
<path fill="none" stroke="black" stroke-width="0.98" d="M3487.72,-4943.71C3651.35,-4780.08 4880.29,-3551.15 5071.57,-3359.86"/>
<polygon fill="black" stroke="black" stroke-width="0.98" points="5074.08,-3362.3 5078.68,-3352.76 5069.13,-3357.35 5074.08,-3362.3"/>
<text text-anchor="middle" x="4224.14" y="-4155.59" font-family="Times,serif" font-size="14.00">biomass*74240</text>
</g>
<!-- &#45;2,4 (fluid=drilling&#45;fluid&#45;0 Drilling fluid 1, Biomass)&#45;&gt;&#45;5,5 (fluid=flue&#45;gas Flue gas) -->
<g id="edge13" class="edge">
<title>&#45;2,4 (fluid=drilling&#45;fluid&#45;0 Drilling fluid 1, Biomass)&#45;&gt;&#45;5,5 (fluid=flue&#45;gas Flue gas)</title>
<path fill="none" stroke="black" stroke-width="7.09" d="M3482.81,-4943.69C3632.58,-4737.56 5020.71,-2826.96 5201.26,-2578.46"/>
<polygon fill="black" stroke="black" stroke-width="7.09" points="5206.53,-2581.75 5207.39,-2570.01 5196.49,-2574.46 5206.53,-2581.75"/>
<text text-anchor="middle" x="4282.03" y="-3764.88" font-family="Times,serif" font-size="14.00">biomass*535920</text>
</g>
<!-- &#45;2,4 (fluid=drilling&#45;fluid&#45;0 Drilling fluid 1, Biomass)&#45;&gt;&#45;7,&#45;4 (Isomer&#39;s Slaughterhouse and Daycare Centre, Bone Meal, Auog theft) -->
<g id="edge5" class="edge">
<title>&#45;2,4 (fluid=drilling&#45;fluid&#45;0 Drilling fluid 1, Biomass)&#45;&gt;&#45;7,&#45;4 (Isomer&#39;s Slaughterhouse and Daycare Centre, Bone Meal, Auog theft)</title>
<path fill="none" stroke="black" stroke-width="1.92" d="M3479.08,-4943.35C3603.55,-4699.06 4931.35,-2093.11 5082.57,-1796.33"/>
<polygon fill="black" stroke="black" stroke-width="1.92" points="5085.84,-1797.62 5087.26,-1787.12 5079.6,-1794.44 5085.84,-1797.62"/>
<text text-anchor="middle" x="4220.82" y="-3373.64" font-family="Times,serif" font-size="14.00">biomass*145280</text>
</g>
<!-- &#45;2,4 (fluid=drilling&#45;fluid&#45;0 Drilling fluid 1, Biomass)&#45;&gt;&#45;4,2 (This line not currently using manure, Ralesia seeds) -->
<g id="edge6" class="edge">
<title>&#45;2,4 (fluid=drilling&#45;fluid&#45;0 Drilling fluid 1, Biomass)&#45;&gt;&#45;4,2 (This line not currently using manure, Ralesia seeds)</title>
<path fill="none" stroke="black" stroke-width="0.81" d="M3451.77,-4943.75C3209.44,-4701.42 591.14,-2083.12 302.65,-1794.62"/>
<polygon fill="black" stroke="black" stroke-width="0.81" points="304.7,-1791.73 295.16,-1787.14 299.75,-1796.68 304.7,-1791.73"/>
<text text-anchor="middle" x="1821.71" y="-3372.99" font-family="Times,serif" font-size="14.00">biomass*61280</text>
</g>
<!-- &#45;2,4 (fluid=drilling&#45;fluid&#45;0 Drilling fluid 1, Biomass)&#45;&gt;&#45;6,&#45;2 (item=fertilizer Fertiliser) -->
<g id="edge7" class="edge">
<title>&#45;2,4 (fluid=drilling&#45;fluid&#45;0 Drilling fluid 1, Biomass)&#45;&gt;&#45;6,&#45;2 (item=fertilizer Fertiliser)</title>
<path fill="none" stroke="black" stroke-width="7.25" d="M3472.65,-4943.27C3519.45,-4647.78 4113.82,-895.05 4171.58,-530.37"/>
<polygon fill="black" stroke="black" stroke-width="7.25" points="4177.86,-531.23 4173.17,-520.36 4165.34,-529.24 4177.86,-531.23"/>
<text text-anchor="middle" x="3762.11" y="-2740.62" font-family="Times,serif" font-size="14.00">biomass*547680</text>
</g>
<!-- &#45;2,4 (fluid=drilling&#45;fluid&#45;0 Drilling fluid 1, Biomass)&#45;&gt;&#45;3,8 (Urea) -->
<g id="edge8" class="edge">
<title>&#45;2,4 (fluid=drilling&#45;fluid&#45;0 Drilling fluid 1, Biomass)&#45;&gt;&#45;3,8 (Urea)</title>
<path fill="none" stroke="black" stroke-width="1.97" d="M3469.73,-4943.28C3469.73,-4634.75 3469.73,-549.57 3469.73,-170.21"/>
<polygon fill="black" stroke="black" stroke-width="1.97" points="3473.23,-170.07 3469.73,-160.07 3466.23,-170.07 3473.23,-170.07"/>
<text text-anchor="middle" x="3409.73" y="-2560.55" font-family="Times,serif" font-size="14.00">biomass*149200</text>
</g>
<!-- &#45;2,4 (fluid=drilling&#45;fluid&#45;0 Drilling fluid 1, Biomass)&#45;&gt;0,9 (Auog Brains) -->
<g id="edge17" class="edge">
<title>&#45;2,4 (fluid=drilling&#45;fluid&#45;0 Drilling fluid 1, Biomass)&#45;&gt;0,9 (Auog Brains)</title>
<path fill="none" stroke="black" stroke-width="0.68" d="M3466.85,-4943.56C3417.63,-4632.8 2752.03,-430.33 2691.17,-46.09"/>
<polygon fill="black" stroke="black" stroke-width="0.68" points="2694.6,-45.4 2689.58,-36.07 2687.69,-46.5 2694.6,-45.4"/>
<text text-anchor="middle" x="3023.51" y="-2498.62" font-family="Times,serif" font-size="14.00">biomass*51680</text>
</g>
<!-- &#45;2,4 (fluid=drilling&#45;fluid&#45;0 Drilling fluid 1, Biomass)&#45;&gt;7,0 (item=bhoddos Bhoddos) -->
<g id="edge11" class="edge">
<title>&#45;2,4 (fluid=drilling&#45;fluid&#45;0 Drilling fluid 1, Biomass)&#45;&gt;7,0 (item=bhoddos Bhoddos)</title>
<path fill="none" stroke="black" stroke-width="1.16" d="M3444.93,-4943.69C3160.09,-4736.74 510.54,-2811.73 185.5,-2575.57"/>
<polygon fill="black" stroke="black" stroke-width="1.16" points="187.55,-2572.74 177.4,-2569.69 183.43,-2578.4 187.55,-2572.74"/>
<text text-anchor="middle" x="1759.72" y="-3763.43" font-family="Times,serif" font-size="14.00">biomass*87520</text>
</g>
<!-- &#45;2,4 (fluid=drilling&#45;fluid&#45;0 Drilling fluid 1, Biomass)&#45;&gt;&#45;1,6 (Flimble&#39;s Slaughterhouse and Daycare Centre, Auog Products) -->
<g id="edge16" class="edge">
<title>&#45;2,4 (fluid=drilling&#45;fluid&#45;0 Drilling fluid 1, Biomass)&#45;&gt;&#45;1,6 (Flimble&#39;s Slaughterhouse and Daycare Centre, Auog Products)</title>
<path fill="none" stroke="black" stroke-width="2.81" d="M3504.75,-4943.86C3622.19,-4884.02 4001.89,-4690.55 4131.92,-4624.3"/>
<polygon fill="black" stroke="black" stroke-width="2.81" points="4133.52,-4627.41 4140.85,-4619.75 4130.35,-4621.17 4133.52,-4627.41"/>
<text text-anchor="middle" x="3758.34" y="-4787.88" font-family="Times,serif" font-size="14.00">biomass*212560</text>
</g>
<!-- &#45;2,4 (fluid=drilling&#45;fluid&#45;0 Drilling fluid 1, Biomass)&#45;&gt;8,0 (Moar Depot) -->
<g id="edge20" class="edge">
<title>&#45;2,4 (fluid=drilling&#45;fluid&#45;0 Drilling fluid 1, Biomass)&#45;&gt;8,0 (Moar Depot)</title>
<path fill="none" stroke="black" stroke-width="0.08" d="M3434.69,-4943.85C3112.62,-4779.75 671.04,-3535.71 319.09,-3356.38"/>
<polygon fill="black" stroke="black" stroke-width="0.08" points="320.49,-3353.16 309.99,-3351.74 317.32,-3359.4 320.49,-3353.16"/>
<text text-anchor="middle" x="1825.89" y="-4153.91" font-family="Times,serif" font-size="14.00">biomass*6160</text>
</g>
<!-- &#45;2,4 (fluid=drilling&#45;fluid&#45;0 Drilling fluid 1, Biomass)&#45;&gt;1,3 (item=korlex&#45;food&#45;01 Korlex food) -->
<g id="edge22" class="edge">
<title>&#45;2,4 (fluid=drilling&#45;fluid&#45;0 Drilling fluid 1, Biomass)&#45;&gt;1,3 (item=korlex&#45;food&#45;01 Korlex food)</title>
<path fill="none" stroke="black" stroke-width="0.1" d="M3415.35,-4944.04C3060.68,-4828.8 1079.3,-4185.01 699.67,-4061.66"/>
<polygon fill="black" stroke="black" stroke-width="0.1" points="700.55,-4058.26 689.95,-4058.5 698.38,-4064.92 700.55,-4058.26"/>
<text text-anchor="middle" x="2006.51" y="-4506.65" font-family="Times,serif" font-size="14.00">biomass*7200</text>
</g>
<!-- &#45;2,4 (fluid=drilling&#45;fluid&#45;0 Drilling fluid 1, Biomass)&#45;&gt;&#45;3,&#45;2 (Depot) -->
<g id="edge31" class="edge">
<title>&#45;2,4 (fluid=drilling&#45;fluid&#45;0 Drilling fluid 1, Biomass)&#45;&gt;&#45;3,&#45;2 (Depot)</title>
<path fill="none" stroke="black" stroke-width="0.16" d="M3366.18,-4945.31C2974.94,-4883.34 1592.47,-4664.38 1266.55,-4612.76"/>
<polygon fill="black" stroke="black" stroke-width="0.16" points="1266.73,-4609.24 1256.31,-4611.13 1265.64,-4616.16 1266.73,-4609.24"/>
<text text-anchor="middle" x="2260.87" y="-4782.83" font-family="Times,serif" font-size="14.00">biomass*12000</text>
</g>
<!-- &#45;2,4 (fluid=drilling&#45;fluid&#45;0 Drilling fluid 1, Biomass)&#45;&gt;4,6 (Circuit substrate and Doped silicon) -->
<g id="edge33" class="edge">
<title>&#45;2,4 (fluid=drilling&#45;fluid&#45;0 Drilling fluid 1, Biomass)&#45;&gt;4,6 (Circuit substrate and Doped silicon)</title>
<path fill="none" stroke="black" stroke-width="0.45" d="M3220.72,-4961.71C2914.54,-4961.71 2400.29,-4961.71 2113.36,-4961.71"/>
<polygon fill="black" stroke="black" stroke-width="0.45" points="2113.25,-4958.21 2103.25,-4961.71 2113.25,-4965.21 2113.25,-4958.21"/>
<text text-anchor="middle" x="2611.54" y="-4965.51" font-family="Times,serif" font-size="14.00">biomass*33680</text>
</g>
<!-- &#45;2,4 (fluid=drilling&#45;fluid&#45;0 Drilling fluid 1, Biomass)&#45;&gt;3,4 (Depot) -->
<g id="edge40" class="edge">
<title>&#45;2,4 (fluid=drilling&#45;fluid&#45;0 Drilling fluid 1, Biomass)&#45;&gt;3,4 (Depot)</title>
<path fill="none" stroke="black" stroke-width="0.07" d="M3366.15,-4978.11C3202.5,-5004.03 2888.73,-5053.73 2752.52,-5075.3"/>
<polygon fill="black" stroke="black" stroke-width="0.07" points="2751.57,-5071.91 2742.25,-5076.93 2752.67,-5078.82 2751.57,-5071.91"/>
<text text-anchor="middle" x="3008.34" y="-5030.5" font-family="Times,serif" font-size="14.00">biomass*5280</text>
</g>
<!-- 5,&#45;1 (Drilling Fluid Type 2, I think my maths is backwards) -->
<g id="node11" class="node">
<title>5,&#45;1 (Drilling Fluid Type 2, I think my maths is backwards)</title>
<ellipse fill="none" stroke="black" cx="4736.66" cy="-1062.49" rx="282.15" ry="18"/>
<text text-anchor="middle" x="4736.66" y="-1058.79" font-family="Times,serif" font-size="14.00">5,&#45;1 (Drilling Fluid Type 2, I think my maths is backwards)</text>
</g>
<!-- 5,&#45;1 (Drilling Fluid Type 2, I think my maths is backwards)&#45;&gt;2,4 (Formica and Phenolic boards) -->
<g id="edge44" class="edge">
<title>5,&#45;1 (Drilling Fluid Type 2, I think my maths is backwards)&#45;&gt;2,4 (Formica and Phenolic boards)</title>
<path fill="none" stroke="black" stroke-width="0.53" d="M4736.66,-1080.74C4736.66,-1314.74 4736.66,-3725.01 4736.66,-4013.11"/>
<polygon fill="black" stroke="black" stroke-width="0.53" points="4733.16,-4013.17 4736.66,-4023.17 4740.16,-4013.17 4733.16,-4013.17"/>
<text text-anchor="middle" x="4681.16" y="-2550.73" font-family="Times,serif" font-size="14.00">biomass*40000</text>
</g>
<!-- 5,&#45;1 (Drilling Fluid Type 2, I think my maths is backwards)&#45;&gt;0,10 (item=meat Meat) -->
<g id="edge32" class="edge">
<title>5,&#45;1 (Drilling Fluid Type 2, I think my maths is backwards)&#45;&gt;0,10 (item=meat Meat)</title>
<path fill="none" stroke="black" stroke-width="0.08" d="M4739.55,-1080.79C4771.25,-1280.89 5053.07,-3060.26 5092.09,-3306.62"/>
<polygon fill="black" stroke="black" stroke-width="0.08" points="5088.65,-3307.25 5093.67,-3316.58 5095.56,-3306.15 5088.65,-3307.25"/>
<text text-anchor="middle" x="4864.82" y="-2197.5" font-family="Times,serif" font-size="14.00">biomass*6208</text>
</g>
<!-- 5,&#45;1 (Drilling Fluid Type 2, I think my maths is backwards)&#45;&gt;&#45;5,5 (fluid=flue&#45;gas Flue gas) -->
<g id="edge19" class="edge">
<title>5,&#45;1 (Drilling Fluid Type 2, I think my maths is backwards)&#45;&gt;&#45;5,5 (fluid=flue&#45;gas Flue gas)</title>
<path fill="none" stroke="black" stroke-width="1.66" d="M4742.51,-1080.52C4792.68,-1234.92 5149.66,-2333.59 5211.47,-2523.83"/>
<polygon fill="black" stroke="black" stroke-width="1.66" points="5208.16,-2524.96 5214.58,-2533.39 5214.82,-2522.8 5208.16,-2524.96"/>
<text text-anchor="middle" x="4916.99" y="-1805.97" font-family="Times,serif" font-size="14.00">biomass*125712</text>
</g>
<!-- 5,&#45;1 (Drilling Fluid Type 2, I think my maths is backwards)&#45;&gt;&#45;7,&#45;4 (Isomer&#39;s Slaughterhouse and Daycare Centre, Bone Meal, Auog theft) -->
<g id="edge28" class="edge">
<title>5,&#45;1 (Drilling Fluid Type 2, I think my maths is backwards)&#45;&gt;&#45;7,&#45;4 (Isomer&#39;s Slaughterhouse and Daycare Centre, Bone Meal, Auog theft)</title>
<path fill="none" stroke="black" stroke-width="0.22" d="M4745.91,-1080.67C4794.93,-1176.86 5024.1,-1626.64 5082.83,-1741.89"/>
<polygon fill="black" stroke="black" stroke-width="0.22" points="5079.71,-1743.48 5087.37,-1750.8 5085.95,-1740.31 5079.71,-1743.48"/>
<text text-anchor="middle" x="4858.87" y="-1415.08" font-family="Times,serif" font-size="14.00">biomass*16320</text>
</g>
<!-- 5,&#45;1 (Drilling Fluid Type 2, I think my maths is backwards)&#45;&gt;&#45;6,&#45;2 (item=fertilizer Fertiliser) -->
<g id="edge35" class="edge">
<title>5,&#45;1 (Drilling Fluid Type 2, I think my maths is backwards)&#45;&gt;&#45;6,&#45;2 (item=fertilizer Fertiliser)</title>
<path fill="none" stroke="black" stroke-width="0.67" d="M4718.64,-1044.48C4636.44,-962.28 4296.9,-622.73 4201.26,-527.1"/>
<polygon fill="black" stroke="black" stroke-width="0.67" points="4203.58,-524.47 4194.04,-519.87 4198.63,-529.42 4203.58,-524.47"/>
<text text-anchor="middle" x="4404.45" y="-789.59" font-family="Times,serif" font-size="14.00">biomass*50272</text>
</g>
<!-- 5,&#45;1 (Drilling Fluid Type 2, I think my maths is backwards)&#45;&gt;&#45;3,8 (Urea) -->
<g id="edge42" class="edge">
<title>5,&#45;1 (Drilling Fluid Type 2, I think my maths is backwards)&#45;&gt;&#45;3,8 (Urea)</title>
<path fill="none" stroke="black" stroke-width="0.04" d="M4711.92,-1044.52C4553.11,-929.14 3678.02,-293.35 3500.97,-164.71"/>
<polygon fill="black" stroke="black" stroke-width="0.04" points="3502.98,-161.85 3492.84,-158.81 3498.87,-167.52 3502.98,-161.85"/>
<text text-anchor="middle" x="4055.44" y="-608.42" font-family="Times,serif" font-size="14.00">biomass*2672</text>
</g>
<!-- 5,&#45;1 (Drilling Fluid Type 2, I think my maths is backwards)&#45;&gt;0,9 (Auog Brains) -->
<g id="edge10" class="edge">
<title>5,&#45;1 (Drilling Fluid Type 2, I think my maths is backwards)&#45;&gt;0,9 (Auog Brains)</title>
<path fill="none" stroke="black" stroke-width="0.08" d="M4701.51,-1044.59C4455.71,-919.34 2996.13,-175.65 2728.77,-39.42"/>
<polygon fill="black" stroke="black" stroke-width="0.08" points="2730.26,-36.26 2719.76,-34.84 2727.09,-42.5 2730.26,-36.26"/>
<text text-anchor="middle" x="3664.14" y="-545.8" font-family="Times,serif" font-size="14.00">biomass*6112</text>
</g>
<!-- 5,&#45;1 (Drilling Fluid Type 2, I think my maths is backwards)&#45;&gt;&#45;1,6 (Flimble&#39;s Slaughterhouse and Daycare Centre, Auog Products) -->
<g id="edge39" class="edge">
<title>5,&#45;1 (Drilling Fluid Type 2, I think my maths is backwards)&#45;&gt;&#45;1,6 (Flimble&#39;s Slaughterhouse and Daycare Centre, Auog Products)</title>
<path fill="none" stroke="black" stroke-width="0.06" d="M4733.77,-1080.69C4692.95,-1338.45 4231.4,-4252.57 4180.61,-4573.2"/>
<polygon fill="black" stroke="black" stroke-width="0.06" points="4177.09,-4573.08 4178.98,-4583.51 4184,-4574.18 4177.09,-4573.08"/>
<text text-anchor="middle" x="4406.19" y="-2830.75" font-family="Times,serif" font-size="14.00">biomass*4416</text>
</g>
<!-- &#45;1,7 (Rayon) -->
<g id="node17" class="node">
<title>&#45;1,7 (Rayon)</title>
<ellipse fill="none" stroke="black" cx="1903.71" cy="-142.02" rx="66.89" ry="18"/>
<text text-anchor="middle" x="1903.71" y="-138.32" font-family="Times,serif" font-size="14.00">&#45;1,7 (Rayon)</text>
</g>
<!-- &#45;1,7 (Rayon)&#45;&gt;2,4 (Formica and Phenolic boards) -->
<g id="edge47" class="edge">
<title>&#45;1,7 (Rayon)&#45;&gt;2,4 (Formica and Phenolic boards)</title>
<path fill="none" stroke="black" stroke-width="0.26" d="M1916.66,-159.83C2112.96,-430.01 4479.37,-3687.1 4717.39,-4014.7"/>
<polygon fill="black" stroke="black" stroke-width="0.26" points="4714.8,-4017.1 4723.51,-4023.13 4720.46,-4012.99 4714.8,-4017.1"/>
<text text-anchor="middle" x="3261.52" y="-2091.07" font-family="Times,serif" font-size="14.00">biomass*20000</text>
</g>
<!-- &#45;1,7 (Rayon)&#45;&gt;0,10 (item=meat Meat) -->
<g id="edge23" class="edge">
<title>&#45;1,7 (Rayon)&#45;&gt;0,10 (item=meat Meat)</title>
<path fill="none" stroke="black" stroke-width="0.08" d="M1921.28,-159.58C2161.29,-399.59 4784.67,-3022.97 5071.21,-3309.51"/>
<polygon fill="black" stroke="black" stroke-width="0.08" points="5069.1,-3312.35 5078.64,-3316.94 5074.05,-3307.4 5069.1,-3312.35"/>
<text text-anchor="middle" x="3445.24" y="-1738.35" font-family="Times,serif" font-size="14.00">biomass*6240</text>
</g>
<!-- &#45;1,7 (Rayon)&#45;&gt;&#45;5,5 (fluid=flue&#45;gas Flue gas) -->
<g id="edge27" class="edge">
<title>&#45;1,7 (Rayon)&#45;&gt;&#45;5,5 (fluid=flue&#45;gas Flue gas)</title>
<path fill="none" stroke="black" stroke-width="1.01" d="M1927.12,-159.02C2204.6,-360.62 4861.82,-2291.21 5187.85,-2528.08"/>
<polygon fill="black" stroke="black" stroke-width="1.01" points="5185.82,-2530.93 5195.96,-2533.98 5189.93,-2525.27 5185.82,-2530.93"/>
<text text-anchor="middle" x="3501.98" y="-1347.35" font-family="Times,serif" font-size="14.00">biomass*76000</text>
</g>
<!-- &#45;1,7 (Rayon)&#45;&gt;&#45;7,&#45;4 (Isomer&#39;s Slaughterhouse and Daycare Centre, Bone Meal, Auog theft) -->
<g id="edge25" class="edge">
<title>&#45;1,7 (Rayon)&#45;&gt;&#45;7,&#45;4 (Isomer&#39;s Slaughterhouse and Daycare Centre, Bone Meal, Auog theft)</title>
<path fill="none" stroke="black" stroke-width="0.1" d="M1935.06,-157.99C2240.96,-313.85 4690.58,-1561.99 5052.07,-1746.18"/>
<polygon fill="black" stroke="black" stroke-width="0.1" points="5050.69,-1749.41 5061.19,-1750.83 5053.87,-1743.17 5050.69,-1749.41"/>
<text text-anchor="middle" x="3442.56" y="-955.88" font-family="Times,serif" font-size="14.00">biomass*7920</text>
</g>
<!-- &#45;1,7 (Rayon)&#45;&gt;&#45;6,&#45;2 (item=fertilizer Fertiliser) -->
<g id="edge37" class="edge">
<title>&#45;1,7 (Rayon)&#45;&gt;&#45;6,&#45;2 (item=fertilizer Fertiliser)</title>
<path fill="none" stroke="black" stroke-width="0.33" d="M1961.59,-151.18C2265.74,-199.35 3680.01,-423.35 4073.98,-485.75"/>
<polygon fill="black" stroke="black" stroke-width="0.33" points="4073.51,-489.22 4083.93,-487.33 4074.6,-482.31 4073.51,-489.22"/>
<text text-anchor="middle" x="2962.29" y="-322.27" font-family="Times,serif" font-size="14.00">biomass*25168</text>
</g>
<!-- &#45;1,7 (Rayon)&#45;&gt;&#45;3,8 (Urea) -->
<g id="edge34" class="edge">
<title>&#45;1,7 (Rayon)&#45;&gt;&#45;3,8 (Urea)</title>
<path fill="none" stroke="black" stroke-width="0.05" d="M1971,-142.02C2226.5,-142.02 3135.34,-142.02 3398.09,-142.02"/>
<polygon fill="black" stroke="black" stroke-width="0.05" points="3398.28,-145.52 3408.28,-142.02 3398.28,-138.52 3398.28,-145.52"/>
<text text-anchor="middle" x="2633.55" y="-145.82" font-family="Times,serif" font-size="14.00">biomass*3728</text>
</g>
<!-- &#45;1,7 (Rayon)&#45;&gt;0,9 (Auog Brains) -->
<g id="edge46" class="edge">
<title>&#45;1,7 (Rayon)&#45;&gt;0,9 (Auog Brains)</title>
<path fill="none" stroke="black" stroke-width="0.03" d="M1961.61,-132.85C2099.22,-111.05 2446.23,-56.09 2605.06,-30.93"/>
<polygon fill="black" stroke="black" stroke-width="0.03" points="2605.92,-34.34 2615.25,-29.32 2604.82,-27.43 2605.92,-34.34"/>
<text text-anchor="middle" x="2232.34" y="-85.69" font-family="Times,serif" font-size="14.00">biomass*2560</text>
</g>
<!-- &#45;5,&#45;4 (low priority (slaked)? lime) -->
<g id="node20" class="node">
<title>&#45;5,&#45;4 (low priority (slaked)? lime)</title>
<ellipse fill="none" stroke="black" cx="5455.07" cy="-2551.86" rx="162.47" ry="18"/>
<text text-anchor="middle" x="5455.07" y="-2548.16" font-family="Times,serif" font-size="14.00">&#45;5,&#45;4 (low priority (slaked)? lime)</text>
</g>
<!-- &#45;5,&#45;4 (low priority (slaked)? lime)&#45;&gt;&#45;5,5 (fluid=flue&#45;gas Flue gas) -->
<g id="edge38" class="edge">
<title>&#45;5,&#45;4 (low priority (slaked)? lime)&#45;&gt;&#45;5,5 (fluid=flue&#45;gas Flue gas)</title>
<path fill="none" stroke="black" stroke-width="0.66" d="M5292.53,-2551.86C5292.45,-2551.86 5292.37,-2551.86 5292.29,-2551.86"/>
<polygon fill="black" stroke="black" stroke-width="0.66" points="5302.06,-2548.36 5292.06,-2551.86 5302.06,-2555.36 5302.06,-2548.36"/>
<text text-anchor="middle" x="5236.91" y="-2555.66" font-family="Times,serif" font-size="14.00">biomass*50080</text>
</g>
</g>
</svg>
