<?xml version="1.0" encoding="UTF-8" standalone="no"?>
<!DOCTYPE svg PUBLIC "-//W3C//DTD SVG 1.1//EN"
 "http://www.w3.org/Graphics/SVG/1.1/DTD/svg11.dtd">
<!-- Generated by graphviz version 2.43.0 (0)
 -->
<!-- Title: %3 Pages: 1 -->
<svg width="456pt" height="44pt"
 viewBox="0.00 0.00 456.17 44.00" xmlns="http://www.w3.org/2000/svg" xmlns:xlink="http://www.w3.org/1999/xlink">
<g id="graph0" class="graph" transform="scale(1 1) rotate(0) translate(4 40)">
<title>%3</title>
<polygon fill="white" stroke="transparent" points="-4,4 -4,-40 452.17,-40 452.17,4 -4,4"/>
<!-- 0,0 (LE BUS) -->
<g id="node1" class="node">
<title>0,0 (LE BUS)</title>
<ellipse fill="none" stroke="black" cx="222.79" cy="-18" rx="71.49" ry="18"/>
<text text-anchor="middle" x="222.79" y="-14.3" font-family="Times,serif" font-size="14.00">0,0 (LE BUS)</text>
</g>
<!-- &#45;7,&#45;5 () -->
<g id="node2" class="node">
<title>&#45;7,&#45;5 ()</title>
<ellipse fill="none" stroke="black" cx="407.23" cy="-18" rx="40.89" ry="18"/>
<text text-anchor="middle" x="407.23" y="-14.3" font-family="Times,serif" font-size="14.00">&#45;7,&#45;5 ()</text>
</g>
<!-- 0,0 (LE BUS)&#45;&gt;&#45;7,&#45;5 () -->
<g id="edge1" class="edge">
<title>0,0 (LE BUS)&#45;&gt;&#45;7,&#45;5 ()</title>
<path fill="none" stroke="black" stroke-width="0.84" d="M294.36,-18C314.86,-18 336.81,-18 355.84,-18"/>
<polygon fill="black" stroke="black" stroke-width="0.84" points="356.09,-21.5 366.09,-18 356.09,-14.5 356.09,-21.5"/>
<text text-anchor="middle" x="325.1" y="-6.8" font-family="Times,serif" font-size="14.00">transport&#45;belt*672</text>
</g>
<!-- 9,&#45;2 () -->
<g id="node3" class="node">
<title>9,&#45;2 ()</title>
<ellipse fill="none" stroke="black" cx="38.35" cy="-18" rx="38.19" ry="18"/>
<text text-anchor="middle" x="38.35" y="-14.3" font-family="Times,serif" font-size="14.00">9,&#45;2 ()</text>
</g>
<!-- 0,0 (LE BUS)&#45;&gt;9,&#45;2 () -->
<g id="edge2" class="edge">
<title>0,0 (LE BUS)&#45;&gt;9,&#45;2 ()</title>
<path fill="none" stroke="black" stroke-width="1.16" d="M151.21,-18C129.76,-18 106.72,-18 87.1,-18"/>
<polygon fill="black" stroke="black" stroke-width="1.16" points="86.88,-14.5 76.88,-18 86.88,-21.5 86.88,-14.5"/>
<text text-anchor="middle" x="85.66" y="-6.8" font-family="Times,serif" font-size="14.00">transport&#45;belt*930</text>
</g>
</g>
</svg>
