<?xml version="1.0" encoding="UTF-8" standalone="no"?>
<!DOCTYPE svg PUBLIC "-//W3C//DTD SVG 1.1//EN"
 "http://www.w3.org/Graphics/SVG/1.1/DTD/svg11.dtd">
<!-- Generated by graphviz version 2.43.0 (0)
 -->
<!-- Title: %3 Pages: 1 -->
<svg width="995pt" height="715pt"
 viewBox="0.00 0.00 994.63 715.16" xmlns="http://www.w3.org/2000/svg" xmlns:xlink="http://www.w3.org/1999/xlink">
<g id="graph0" class="graph" transform="scale(1 1) rotate(0) translate(4 711.16)">
<title>%3</title>
<polygon fill="white" stroke="transparent" points="-4,4 -4,-711.16 990.63,-711.16 990.63,4 -4,4"/>
<!-- &#45;3,8 (Urea) -->
<g id="node1" class="node">
<title>&#45;3,8 (Urea)</title>
<ellipse fill="none" stroke="black" cx="432.37" cy="-347.26" rx="61.19" ry="18"/>
<text text-anchor="middle" x="432.37" y="-343.56" font-family="Times,serif" font-size="14.00">&#45;3,8 (Urea)</text>
</g>
<!-- 4,9 (Cyanic Acid, Ammonia is a by&#45;product) -->
<g id="node2" class="node">
<title>4,9 (Cyanic Acid, Ammonia is a by&#45;product)</title>
<ellipse fill="none" stroke="black" cx="776.04" cy="-347.26" rx="210.66" ry="18"/>
<text text-anchor="middle" x="776.04" y="-343.56" font-family="Times,serif" font-size="14.00">4,9 (Cyanic Acid, Ammonia is a by&#45;product)</text>
</g>
<!-- &#45;3,8 (Urea)&#45;&gt;4,9 (Cyanic Acid, Ammonia is a by&#45;product) -->
<g id="edge1" class="edge">
<title>&#45;3,8 (Urea)&#45;&gt;4,9 (Cyanic Acid, Ammonia is a by&#45;product)</title>
<path fill="none" stroke="black" stroke-width="1.62" d="M493.81,-347.26C511.89,-347.26 532.8,-347.26 554.9,-347.26"/>
<polygon fill="black" stroke="black" stroke-width="1.62" points="555.14,-350.76 565.14,-347.26 555.14,-343.76 555.14,-350.76"/>
<text text-anchor="middle" x="524.36" y="-336.06" font-family="Times,serif" font-size="14.00">urea*11056</text>
</g>
<!-- 1,4 (Casein and Melamine) -->
<g id="node3" class="node">
<title>1,4 (Casein and Melamine)</title>
<ellipse fill="none" stroke="black" cx="467.22" cy="-689.16" rx="135.38" ry="18"/>
<text text-anchor="middle" x="467.22" y="-685.46" font-family="Times,serif" font-size="14.00">1,4 (Casein and Melamine)</text>
</g>
<!-- &#45;3,8 (Urea)&#45;&gt;1,4 (Casein and Melamine) -->
<g id="edge2" class="edge">
<title>&#45;3,8 (Urea)&#45;&gt;1,4 (Casein and Melamine)</title>
<path fill="none" stroke="black" stroke-width="1.55" d="M434.24,-365.64C440,-422.12 457.46,-593.41 464.37,-661.15"/>
<polygon fill="black" stroke="black" stroke-width="1.55" points="460.89,-661.51 465.38,-671.1 467.85,-660.8 460.89,-661.51"/>
<text text-anchor="middle" x="406.81" y="-517.19" font-family="Times,serif" font-size="14.00">urea*10592</text>
</g>
<!-- &#45;5,2 (Optical fiber) -->
<g id="node4" class="node">
<title>&#45;5,2 (Optical fiber)</title>
<ellipse fill="none" stroke="black" cx="136.9" cy="-522.78" rx="96.38" ry="18"/>
<text text-anchor="middle" x="136.9" y="-519.08" font-family="Times,serif" font-size="14.00">&#45;5,2 (Optical fiber)</text>
</g>
<!-- &#45;3,8 (Urea)&#45;&gt;&#45;5,2 (Optical fiber) -->
<g id="edge3" class="edge">
<title>&#45;3,8 (Urea)&#45;&gt;&#45;5,2 (Optical fiber)</title>
<path fill="none" stroke="black" stroke-width="1.12" d="M405.1,-363.45C352.1,-394.94 235.11,-464.44 174.68,-500.34"/>
<polygon fill="black" stroke="black" stroke-width="1.12" points="172.64,-497.47 165.83,-505.59 176.22,-503.49 172.64,-497.47"/>
<text text-anchor="middle" x="251.89" y="-435.7" font-family="Times,serif" font-size="14.00">urea*7616</text>
</g>
<!-- 2,4 (Formica and Phenolic boards) -->
<g id="node5" class="node">
<title>2,4 (Formica and Phenolic boards)</title>
<ellipse fill="none" stroke="black" cx="169.63" cy="-125.71" rx="169.77" ry="18"/>
<text text-anchor="middle" x="169.63" y="-122.01" font-family="Times,serif" font-size="14.00">2,4 (Formica and Phenolic boards)</text>
</g>
<!-- &#45;3,8 (Urea)&#45;&gt;2,4 (Formica and Phenolic boards) -->
<g id="edge4" class="edge">
<title>&#45;3,8 (Urea)&#45;&gt;2,4 (Formica and Phenolic boards)</title>
<path fill="none" stroke="black" stroke-width="0.52" d="M412.19,-330.24C366.01,-291.3 252.52,-195.6 198.77,-150.27"/>
<polygon fill="black" stroke="black" stroke-width="0.52" points="200.88,-147.48 190.98,-143.7 196.37,-152.83 200.88,-147.48"/>
<text text-anchor="middle" x="267.48" y="-244.06" font-family="Times,serif" font-size="14.00">urea*3568</text>
</g>
<!-- &#45;2,&#45;3 (Trains) -->
<g id="node6" class="node">
<title>&#45;2,&#45;3 (Trains)</title>
<ellipse fill="none" stroke="black" cx="530.88" cy="-18" rx="70.39" ry="18"/>
<text text-anchor="middle" x="530.88" y="-14.3" font-family="Times,serif" font-size="14.00">&#45;2,&#45;3 (Trains)</text>
</g>
<!-- &#45;3,8 (Urea)&#45;&gt;&#45;2,&#45;3 (Trains) -->
<g id="edge5" class="edge">
<title>&#45;3,8 (Urea)&#45;&gt;&#45;2,&#45;3 (Trains)</title>
<path fill="none" stroke="black" stroke-width="0.18" d="M437.81,-329.08C454.15,-274.44 502.94,-111.36 522.57,-45.77"/>
<polygon fill="black" stroke="black" stroke-width="0.18" points="525.94,-46.7 525.46,-36.12 519.24,-44.69 525.94,-46.7"/>
<text text-anchor="middle" x="442.19" y="-191.23" font-family="Times,serif" font-size="14.00">urea*1232</text>
</g>
</g>
</svg>
