<?xml version="1.0" encoding="UTF-8" standalone="no"?>
<!DOCTYPE svg PUBLIC "-//W3C//DTD SVG 1.1//EN"
 "http://www.w3.org/Graphics/SVG/1.1/DTD/svg11.dtd">
<!-- Generated by graphviz version 2.43.0 (0)
 -->
<!-- Title: %3 Pages: 1 -->
<svg width="1249pt" height="911pt"
 viewBox="0.00 0.00 1248.68 910.71" xmlns="http://www.w3.org/2000/svg" xmlns:xlink="http://www.w3.org/1999/xlink">
<g id="graph0" class="graph" transform="scale(1 1) rotate(0) translate(4 906.71)">
<title>%3</title>
<polygon fill="white" stroke="transparent" points="-4,4 -4,-906.71 1244.68,-906.71 1244.68,4 -4,4"/>
<!-- 4,12 (Molten Glass) -->
<g id="node1" class="node">
<title>4,12 (Molten Glass)</title>
<ellipse fill="none" stroke="black" cx="654.21" cy="-450.89" rx="102.08" ry="18"/>
<text text-anchor="middle" x="654.21" y="-447.19" font-family="Times,serif" font-size="14.00">4,12 (Molten Glass)</text>
</g>
<!-- &#45;4,0 (item=lens Optical sets) -->
<g id="node2" class="node">
<title>&#45;4,0 (item=lens Optical sets)</title>
<ellipse fill="none" stroke="black" cx="1097.05" cy="-450.89" rx="143.77" ry="18"/>
<text text-anchor="middle" x="1097.05" y="-447.19" font-family="Times,serif" font-size="14.00">&#45;4,0 (item=lens Optical sets)</text>
</g>
<!-- 4,12 (Molten Glass)&#45;&gt;&#45;4,0 (item=lens Optical sets) -->
<g id="edge1" class="edge">
<title>4,12 (Molten Glass)&#45;&gt;&#45;4,0 (item=lens Optical sets)</title>
<path fill="none" stroke="black" stroke-width="1.09" d="M756.36,-450.89C811.65,-450.89 881.08,-450.89 942.81,-450.89"/>
<polygon fill="black" stroke="black" stroke-width="1.09" points="943.05,-454.39 953.05,-450.89 943.05,-447.39 943.05,-454.39"/>
<text text-anchor="middle" x="849.59" y="-439.69" font-family="Times,serif" font-size="14.00">molten&#45;glass&#45;barrel*33280</text>
</g>
<!-- 8,8 (Glass and lamps) -->
<g id="node3" class="node">
<title>8,8 (Glass and lamps)</title>
<ellipse fill="none" stroke="black" cx="981.85" cy="-748.8" rx="111.28" ry="18"/>
<text text-anchor="middle" x="981.85" y="-745.1" font-family="Times,serif" font-size="14.00">8,8 (Glass and lamps)</text>
</g>
<!-- 4,12 (Molten Glass)&#45;&gt;8,8 (Glass and lamps) -->
<g id="edge2" class="edge">
<title>4,12 (Molten Glass)&#45;&gt;8,8 (Glass and lamps)</title>
<path fill="none" stroke="black" stroke-width="1.48" d="M673.72,-468.63C729.48,-519.32 889.6,-664.92 954.27,-723.72"/>
<polygon fill="black" stroke="black" stroke-width="1.48" points="952.27,-726.64 962.02,-730.78 956.98,-721.46 952.27,-726.64"/>
<text text-anchor="middle" x="718.49" y="-599.98" font-family="Times,serif" font-size="14.00">molten&#45;glass&#45;barrel*45200</text>
</g>
<!-- &#45;5,2 (Optical fiber) -->
<g id="node4" class="node">
<title>&#45;5,2 (Optical fiber)</title>
<ellipse fill="none" stroke="black" cx="743.1" cy="-884.71" rx="96.38" ry="18"/>
<text text-anchor="middle" x="743.1" y="-881.01" font-family="Times,serif" font-size="14.00">&#45;5,2 (Optical fiber)</text>
</g>
<!-- 4,12 (Molten Glass)&#45;&gt;&#45;5,2 (Optical fiber) -->
<g id="edge3" class="edge">
<title>4,12 (Molten Glass)&#45;&gt;&#45;5,2 (Optical fiber)</title>
<path fill="none" stroke="black" stroke-width="0.63" d="M657.92,-468.97C671.77,-536.57 720.55,-774.65 737.35,-856.68"/>
<polygon fill="black" stroke="black" stroke-width="0.63" points="733.94,-857.45 739.37,-866.54 740.8,-856.04 733.94,-857.45"/>
<text text-anchor="middle" x="602.14" y="-666.63" font-family="Times,serif" font-size="14.00">molten&#45;glass&#45;barrel*19200</text>
</g>
<!-- &#45;2,0 (Glassware) -->
<g id="node5" class="node">
<title>&#45;2,0 (Glassware)</title>
<ellipse fill="none" stroke="black" cx="492.87" cy="-863.28" rx="86.38" ry="18"/>
<text text-anchor="middle" x="492.87" y="-859.58" font-family="Times,serif" font-size="14.00">&#45;2,0 (Glassware)</text>
</g>
<!-- 4,12 (Molten Glass)&#45;&gt;&#45;2,0 (Glassware) -->
<g id="edge4" class="edge">
<title>4,12 (Molten Glass)&#45;&gt;&#45;2,0 (Glassware)</title>
<path fill="none" stroke="black" stroke-width="3.4" d="M647.17,-468.87C621.75,-533.86 534.53,-756.8 503.74,-835.5"/>
<polygon fill="black" stroke="black" stroke-width="3.4" points="500.33,-834.62 499.94,-845.2 506.85,-837.17 500.33,-834.62"/>
<text text-anchor="middle" x="475.46" y="-640.99" font-family="Times,serif" font-size="14.00">molten&#45;glass&#45;barrel*104120</text>
</g>
<!-- &#45;1,&#45;10 (Petrier dish 2) -->
<g id="node6" class="node">
<title>&#45;1,&#45;10 (Petrier dish 2)</title>
<ellipse fill="none" stroke="black" cx="286.38" cy="-697.48" rx="110.48" ry="18"/>
<text text-anchor="middle" x="286.38" y="-693.78" font-family="Times,serif" font-size="14.00">&#45;1,&#45;10 (Petrier dish 2)</text>
</g>
<!-- 4,12 (Molten Glass)&#45;&gt;&#45;1,&#45;10 (Petrier dish 2) -->
<g id="edge5" class="edge">
<title>4,12 (Molten Glass)&#45;&gt;&#45;1,&#45;10 (Petrier dish 2)</title>
<path fill="none" stroke="black" stroke-width="0.84" d="M628.05,-468.42C563.07,-511.98 394.29,-625.13 321.1,-674.21"/>
<polygon fill="black" stroke="black" stroke-width="0.84" points="319.01,-671.39 312.66,-679.86 322.91,-677.2 319.01,-671.39"/>
<text text-anchor="middle" x="379.07" y="-575.11" font-family="Times,serif" font-size="14.00">molten&#45;glass&#45;barrel*25760</text>
</g>
<!-- 3,3 (Random electronic components, Small Parts) -->
<g id="node7" class="node">
<title>3,3 (Random electronic components, Small Parts)</title>
<ellipse fill="none" stroke="black" cx="240.48" cy="-293" rx="240.46" ry="18"/>
<text text-anchor="middle" x="240.48" y="-289.3" font-family="Times,serif" font-size="14.00">3,3 (Random electronic components, Small Parts)</text>
</g>
<!-- 4,12 (Molten Glass)&#45;&gt;3,3 (Random electronic components, Small Parts) -->
<g id="edge6" class="edge">
<title>4,12 (Molten Glass)&#45;&gt;3,3 (Random electronic components, Small Parts)</title>
<path fill="none" stroke="black" stroke-width="0.2" d="M611.1,-434.44C535.75,-405.68 380.15,-346.3 296.54,-314.39"/>
<polygon fill="black" stroke="black" stroke-width="0.2" points="297.54,-311.03 286.95,-310.74 295.05,-317.57 297.54,-311.03"/>
<text text-anchor="middle" x="362.82" y="-378.21" font-family="Times,serif" font-size="14.00">molten&#45;glass&#45;barrel*6080</text>
</g>
<!-- 0,0 (LE BUS) -->
<g id="node8" class="node">
<title>0,0 (LE BUS)</title>
<ellipse fill="none" stroke="black" cx="506.88" cy="-33.28" rx="71.49" ry="18"/>
<text text-anchor="middle" x="506.88" y="-29.58" font-family="Times,serif" font-size="14.00">0,0 (LE BUS)</text>
</g>
<!-- 4,12 (Molten Glass)&#45;&gt;0,0 (LE BUS) -->
<g id="edge7" class="edge">
<title>4,12 (Molten Glass)&#45;&gt;0,0 (LE BUS)</title>
<path fill="none" stroke="black" stroke-width="0.37" d="M647.79,-432.67C624.57,-366.87 544.92,-141.1 516.81,-61.41"/>
<polygon fill="black" stroke="black" stroke-width="0.37" points="519.97,-59.85 513.34,-51.59 513.37,-62.18 519.97,-59.85"/>
<text text-anchor="middle" x="486.8" y="-250.84" font-family="Times,serif" font-size="14.00">molten&#45;glass&#45;barrel*11400</text>
</g>
<!-- &#45;3,&#45;11 (Petri dish 2) -->
<g id="node9" class="node">
<title>&#45;3,&#45;11 (Petri dish 2)</title>
<ellipse fill="none" stroke="black" cx="747.55" cy="-18" rx="100.98" ry="18"/>
<text text-anchor="middle" x="747.55" y="-14.3" font-family="Times,serif" font-size="14.00">&#45;3,&#45;11 (Petri dish 2)</text>
</g>
<!-- 4,12 (Molten Glass)&#45;&gt;&#45;3,&#45;11 (Petri dish 2) -->
<g id="edge8" class="edge">
<title>4,12 (Molten Glass)&#45;&gt;&#45;3,&#45;11 (Petri dish 2)</title>
<path fill="none" stroke="black" stroke-width="0.87" d="M658.1,-432.84C672.65,-365.39 723.87,-127.82 741.52,-45.97"/>
<polygon fill="black" stroke="black" stroke-width="0.87" points="744.95,-46.64 743.64,-36.13 738.11,-45.16 744.95,-46.64"/>
<text text-anchor="middle" x="604.31" y="-228.2" font-family="Times,serif" font-size="14.00">molten&#45;glass&#45;barrel*26640</text>
</g>
<!-- 2,5 (Simple Circuits) -->
<g id="node10" class="node">
<title>2,5 (Simple Circuits)</title>
<ellipse fill="none" stroke="black" cx="984.89" cy="-156.35" rx="106.68" ry="18"/>
<text text-anchor="middle" x="984.89" y="-152.65" font-family="Times,serif" font-size="14.00">2,5 (Simple Circuits)</text>
</g>
<!-- 4,12 (Molten Glass)&#45;&gt;2,5 (Simple Circuits) -->
<g id="edge9" class="edge">
<title>4,12 (Molten Glass)&#45;&gt;2,5 (Simple Circuits)</title>
<path fill="none" stroke="black" stroke-width="0.13" d="M674.4,-432.9C731.15,-382.36 892.17,-238.94 957.17,-181.04"/>
<polygon fill="black" stroke="black" stroke-width="0.13" points="959.83,-183.36 964.97,-174.1 955.17,-178.13 959.83,-183.36"/>
<text text-anchor="middle" x="724.78" y="-310.77" font-family="Times,serif" font-size="14.00">molten&#45;glass&#45;barrel*4000</text>
</g>
</g>
</svg>
