<?xml version="1.0" encoding="UTF-8" standalone="no"?>
<!DOCTYPE svg PUBLIC "-//W3C//DTD SVG 1.1//EN"
 "http://www.w3.org/Graphics/SVG/1.1/DTD/svg11.dtd">
<!-- Generated by graphviz version 2.43.0 (0)
 -->
<!-- Title: %3 Pages: 1 -->
<svg width="1901pt" height="1307pt"
 viewBox="0.00 0.00 1900.94 1307.31" xmlns="http://www.w3.org/2000/svg" xmlns:xlink="http://www.w3.org/1999/xlink">
<g id="graph0" class="graph" transform="scale(1 1) rotate(0) translate(4 1303.31)">
<title>%3</title>
<polygon fill="white" stroke="transparent" points="-4,4 -4,-1303.31 1896.94,-1303.31 1896.94,4 -4,4"/>
<!-- 8,3 (Nylon mk2) -->
<g id="node1" class="node">
<title>8,3 (Nylon mk2)</title>
<ellipse fill="none" stroke="black" cx="230" cy="-930.77" rx="85.29" ry="18"/>
<text text-anchor="middle" x="230" y="-927.07" font-family="Times,serif" font-size="14.00">8,3 (Nylon mk2)</text>
</g>
<!-- 3,0 (Zinc Chloride) -->
<g id="node2" class="node">
<title>3,0 (Zinc Chloride)</title>
<ellipse fill="none" stroke="black" cx="230" cy="-368.54" rx="97.48" ry="18"/>
<text text-anchor="middle" x="230" y="-364.84" font-family="Times,serif" font-size="14.00">3,0 (Zinc Chloride)</text>
</g>
<!-- 8,3 (Nylon mk2)&#45;&gt;3,0 (Zinc Chloride) -->
<g id="edge1" class="edge">
<title>8,3 (Nylon mk2)&#45;&gt;3,0 (Zinc Chloride)</title>
<path fill="none" stroke="black" stroke-width="3.79" d="M230,-912.7C230,-831.09 230,-496.52 230,-396.75"/>
<polygon fill="black" stroke="black" stroke-width="3.79" points="233.5,-396.55 230,-386.55 226.5,-396.55 233.5,-396.55"/>
<text text-anchor="middle" x="115" y="-658.53" font-family="Times,serif" font-size="14.00">hydrogen&#45;chloride&#45;barrel*41593</text>
</g>
<!-- &#45;4,4 (item=ammonium&#45;chloride Ammonium chloride) -->
<g id="node5" class="node">
<title>&#45;4,4 (item=ammonium&#45;chloride Ammonium chloride)</title>
<ellipse fill="none" stroke="black" cx="1461.64" cy="-649.66" rx="254.55" ry="18"/>
<text text-anchor="middle" x="1461.64" y="-645.96" font-family="Times,serif" font-size="14.00">&#45;4,4 (item=ammonium&#45;chloride Ammonium chloride)</text>
</g>
<!-- 8,3 (Nylon mk2)&#45;&gt;&#45;4,4 (item=ammonium&#45;chloride Ammonium chloride) -->
<g id="edge4" class="edge">
<title>8,3 (Nylon mk2)&#45;&gt;&#45;4,4 (item=ammonium&#45;chloride Ammonium chloride)</title>
<path fill="none" stroke="black" stroke-width="2.2" d="M288.16,-917.5C487.12,-872.08 1141.16,-722.8 1376.4,-669.11"/>
<polygon fill="black" stroke="black" stroke-width="2.2" points="1377.31,-672.5 1386.28,-666.86 1375.75,-665.67 1377.31,-672.5"/>
<text text-anchor="middle" x="717.28" y="-797.1" font-family="Times,serif" font-size="14.00">hydrogen&#45;chloride&#45;barrel*24107</text>
</g>
<!-- 1,4 (Casein and Melamine) -->
<g id="node8" class="node">
<title>1,4 (Casein and Melamine)</title>
<ellipse fill="none" stroke="black" cx="1217.7" cy="-143.11" rx="135.38" ry="18"/>
<text text-anchor="middle" x="1217.7" y="-139.41" font-family="Times,serif" font-size="14.00">1,4 (Casein and Melamine)</text>
</g>
<!-- 8,3 (Nylon mk2)&#45;&gt;1,4 (Casein and Melamine) -->
<g id="edge6" class="edge">
<title>8,3 (Nylon mk2)&#45;&gt;1,4 (Casein and Melamine)</title>
<path fill="none" stroke="black" stroke-width="0.17" d="M252.01,-913.21C380.94,-810.4 1037.5,-286.81 1187.26,-167.38"/>
<polygon fill="black" stroke="black" stroke-width="0.17" points="1189.57,-170.02 1195.2,-161.05 1185.2,-164.55 1189.57,-170.02"/>
<text text-anchor="middle" x="609.14" y="-544.1" font-family="Times,serif" font-size="14.00">hydrogen&#45;chloride&#45;barrel*1840</text>
</g>
<!-- 2,1 (Niobium plates) -->
<g id="node9" class="node">
<title>2,1 (Niobium plates)</title>
<ellipse fill="none" stroke="black" cx="669.57" cy="-1281.31" rx="105.88" ry="18"/>
<text text-anchor="middle" x="669.57" y="-1277.61" font-family="Times,serif" font-size="14.00">2,1 (Niobium plates)</text>
</g>
<!-- 8,3 (Nylon mk2)&#45;&gt;2,1 (Niobium plates) -->
<g id="edge10" class="edge">
<title>8,3 (Nylon mk2)&#45;&gt;2,1 (Niobium plates)</title>
<path fill="none" stroke="black" stroke-width="0.33" d="M252.1,-948.39C324.73,-1006.31 556.15,-1190.87 639.39,-1257.24"/>
<polygon fill="black" stroke="black" stroke-width="0.33" points="637.42,-1260.16 647.42,-1263.66 641.79,-1254.68 637.42,-1260.16"/>
<text text-anchor="middle" x="335.24" y="-1106.62" font-family="Times,serif" font-size="14.00">hydrogen&#45;chloride&#45;barrel*3600</text>
</g>
<!-- 0,0 (LE BUS) -->
<g id="node3" class="node">
<title>0,0 (LE BUS)</title>
<ellipse fill="none" stroke="black" cx="669.57" cy="-18" rx="71.49" ry="18"/>
<text text-anchor="middle" x="669.57" y="-14.3" font-family="Times,serif" font-size="14.00">0,0 (LE BUS)</text>
</g>
<!-- 0,0 (LE BUS)&#45;&gt;3,0 (Zinc Chloride) -->
<g id="edge2" class="edge">
<title>0,0 (LE BUS)&#45;&gt;3,0 (Zinc Chloride)</title>
<path fill="none" stroke="black" stroke-width="2.06" d="M647.77,-35.38C575.5,-93.02 343.65,-277.91 260.25,-344.42"/>
<polygon fill="black" stroke="black" stroke-width="2.06" points="257.83,-341.88 252.19,-350.85 262.19,-347.35 257.83,-341.88"/>
<text text-anchor="middle" x="339.01" y="-193.7" font-family="Times,serif" font-size="14.00">hydrogen&#45;chloride&#45;barrel*22621</text>
</g>
<!-- 0,0 (LE BUS)&#45;&gt;&#45;4,4 (item=ammonium&#45;chloride Ammonium chloride) -->
<g id="edge11" class="edge">
<title>0,0 (LE BUS)&#45;&gt;&#45;4,4 (item=ammonium&#45;chloride Ammonium chloride)</title>
<path fill="none" stroke="black" stroke-width="0.94" d="M691.16,-35.22C801.43,-123.16 1301.47,-521.92 1430.95,-625.18"/>
<polygon fill="black" stroke="black" stroke-width="0.94" points="1428.93,-628.05 1438.93,-631.55 1433.3,-622.58 1428.93,-628.05"/>
<text text-anchor="middle" x="946.06" y="-334" font-family="Times,serif" font-size="14.00">hydrogen&#45;chloride&#45;barrel*10286</text>
</g>
<!-- 0,0 (LE BUS)&#45;&gt;1,4 (Casein and Melamine) -->
<g id="edge12" class="edge">
<title>0,0 (LE BUS)&#45;&gt;1,4 (Casein and Melamine)</title>
<path fill="none" stroke="black" stroke-width="0.09" d="M722.62,-30.11C819.64,-52.25 1026.07,-99.37 1139.32,-125.22"/>
<polygon fill="black" stroke="black" stroke-width="0.09" points="1138.78,-128.69 1149.31,-127.5 1140.34,-121.86 1138.78,-128.69"/>
<text text-anchor="middle" x="824.97" y="-81.46" font-family="Times,serif" font-size="14.00">hydrogen&#45;chloride&#45;barrel*976</text>
</g>
<!-- 0,0 (LE BUS)&#45;&gt;2,1 (Niobium plates) -->
<g id="edge7" class="edge">
<title>0,0 (LE BUS)&#45;&gt;2,1 (Niobium plates)</title>
<path fill="none" stroke="black" stroke-width="0.1" d="M669.57,-36.35C669.57,-176.85 669.57,-1081.58 669.57,-1253.23"/>
<polygon fill="black" stroke="black" stroke-width="0.1" points="666.07,-1253.24 669.57,-1263.24 673.07,-1253.24 666.07,-1253.24"/>
<text text-anchor="middle" x="559.07" y="-648.59" font-family="Times,serif" font-size="14.00">hydrogen&#45;chloride&#45;barrel*1104</text>
</g>
<!-- 1,8 (HCl, Salt) -->
<g id="node4" class="node">
<title>1,8 (HCl, Salt)</title>
<ellipse fill="none" stroke="black" cx="1217.7" cy="-1156.21" rx="77.19" ry="18"/>
<text text-anchor="middle" x="1217.7" y="-1152.51" font-family="Times,serif" font-size="14.00">1,8 (HCl, Salt)</text>
</g>
<!-- 1,8 (HCl, Salt)&#45;&gt;3,0 (Zinc Chloride) -->
<g id="edge3" class="edge">
<title>1,8 (HCl, Salt)&#45;&gt;3,0 (Zinc Chloride)</title>
<path fill="none" stroke="black" stroke-width="1.67" d="M1195.68,-1138.65C1066.62,-1035.73 408.78,-511.12 259.96,-392.43"/>
<polygon fill="black" stroke="black" stroke-width="1.67" points="262.07,-389.64 252.07,-386.14 257.7,-395.11 262.07,-389.64"/>
<text text-anchor="middle" x="612.82" y="-769.34" font-family="Times,serif" font-size="14.00">hydrogen&#45;chloride&#45;barrel*18293</text>
</g>
<!-- 1,8 (HCl, Salt)&#45;&gt;&#45;4,4 (item=ammonium&#45;chloride Ammonium chloride) -->
<g id="edge8" class="edge">
<title>1,8 (HCl, Salt)&#45;&gt;&#45;4,4 (item=ammonium&#45;chloride Ammonium chloride)</title>
<path fill="none" stroke="black" stroke-width="1.28" d="M1226.38,-1138.18C1262.94,-1062.25 1404.54,-768.24 1448.53,-676.89"/>
<polygon fill="black" stroke="black" stroke-width="1.28" points="1451.75,-678.26 1452.94,-667.73 1445.44,-675.22 1451.75,-678.26"/>
<text text-anchor="middle" x="1222.45" y="-911.33" font-family="Times,serif" font-size="14.00">hydrogen&#45;chloride&#45;barrel*14028</text>
</g>
<!-- 1,8 (HCl, Salt)&#45;&gt;1,4 (Casein and Melamine) -->
<g id="edge13" class="edge">
<title>1,8 (HCl, Salt)&#45;&gt;1,4 (Casein and Melamine)</title>
<path fill="none" stroke="black" stroke-width="0.03" d="M1217.7,-1138.19C1217.7,-1016.98 1217.7,-320.65 1217.7,-171.31"/>
<polygon fill="black" stroke="black" stroke-width="0.03" points="1221.2,-171.14 1217.7,-161.14 1214.2,-171.14 1221.2,-171.14"/>
<text text-anchor="middle" x="1111.7" y="-658.55" font-family="Times,serif" font-size="14.00">hydrogen&#45;chloride&#45;barrel*288</text>
</g>
<!-- 1,8 (HCl, Salt)&#45;&gt;2,1 (Niobium plates) -->
<g id="edge9" class="edge">
<title>1,8 (HCl, Salt)&#45;&gt;2,1 (Niobium plates)</title>
<path fill="none" stroke="black" stroke-width="0.29" d="M1162.38,-1168.83C1062.9,-1191.54 853.86,-1239.25 742.7,-1264.62"/>
<polygon fill="black" stroke="black" stroke-width="0.29" points="741.88,-1261.22 732.91,-1266.86 743.44,-1268.04 741.88,-1261.22"/>
<text text-anchor="middle" x="842.04" y="-1220.53" font-family="Times,serif" font-size="14.00">hydrogen&#45;chloride&#45;barrel*3200</text>
</g>
<!-- 8,&#45;2 (Lead mine) -->
<g id="node6" class="node">
<title>8,&#45;2 (Lead mine)</title>
<ellipse fill="none" stroke="black" cx="1563.64" cy="-129.66" rx="86.38" ry="18"/>
<text text-anchor="middle" x="1563.64" y="-125.96" font-family="Times,serif" font-size="14.00">8,&#45;2 (Lead mine)</text>
</g>
<!-- &#45;6,4 (Urea) -->
<g id="node7" class="node">
<title>&#45;6,4 (Urea)</title>
<ellipse fill="none" stroke="black" cx="1783.18" cy="-129.66" rx="61.19" ry="18"/>
<text text-anchor="middle" x="1783.18" y="-125.96" font-family="Times,serif" font-size="14.00">&#45;6,4 (Urea)</text>
</g>
<!-- 8,&#45;2 (Lead mine)&#45;&gt;&#45;6,4 (Urea) -->
<g id="edge5" class="edge">
<title>8,&#45;2 (Lead mine)&#45;&gt;&#45;6,4 (Urea)</title>
<path fill="none" stroke="black" stroke-width="0.05" d="M1650.1,-129.66C1670.53,-129.66 1692.1,-129.66 1711.78,-129.66"/>
<polygon fill="black" stroke="black" stroke-width="0.05" points="1711.89,-133.16 1721.89,-129.66 1711.89,-126.16 1711.89,-133.16"/>
<text text-anchor="middle" x="1786.94" y="-133.46" font-family="Times,serif" font-size="14.00">hydrogen&#45;chloride&#45;barrel*552</text>
</g>
</g>
</svg>
