<?xml version="1.0" encoding="UTF-8" standalone="no"?>
<!DOCTYPE svg PUBLIC "-//W3C//DTD SVG 1.1//EN"
 "http://www.w3.org/Graphics/SVG/1.1/DTD/svg11.dtd">
<!-- Generated by graphviz version 2.43.0 (0)
 -->
<!-- Title: %3 Pages: 1 -->
<svg width="1859pt" height="1505pt"
 viewBox="0.00 0.00 1858.91 1505.12" xmlns="http://www.w3.org/2000/svg" xmlns:xlink="http://www.w3.org/1999/xlink">
<g id="graph0" class="graph" transform="scale(1 1) rotate(0) translate(4 1501.12)">
<title>%3</title>
<polygon fill="white" stroke="transparent" points="-4,4 -4,-1501.12 1854.91,-1501.12 1854.91,4 -4,4"/>
<!-- &#45;4,&#45;3 (Breath Deeply. Exhale. (Hot Air)) -->
<g id="node1" class="node">
<title>&#45;4,&#45;3 (Breath Deeply. Exhale. (Hot Air))</title>
<ellipse fill="none" stroke="black" cx="967.77" cy="-744.1" rx="190.37" ry="18"/>
<text text-anchor="middle" x="967.77" y="-740.4" font-family="Times,serif" font-size="14.00">&#45;4,&#45;3 (Breath Deeply. Exhale. (Hot Air))</text>
</g>
<!-- &#45;5,5 (fluid=flue&#45;gas Flue gas) -->
<g id="node2" class="node">
<title>&#45;5,5 (fluid=flue&#45;gas Flue gas)</title>
<ellipse fill="none" stroke="black" cx="1705.32" cy="-744.1" rx="145.67" ry="18"/>
<text text-anchor="middle" x="1705.32" y="-740.4" font-family="Times,serif" font-size="14.00">&#45;5,5 (fluid=flue&#45;gas Flue gas)</text>
</g>
<!-- &#45;4,&#45;3 (Breath Deeply. Exhale. (Hot Air))&#45;&gt;&#45;5,5 (fluid=flue&#45;gas Flue gas) -->
<g id="edge1" class="edge">
<title>&#45;4,&#45;3 (Breath Deeply. Exhale. (Hot Air))&#45;&gt;&#45;5,5 (fluid=flue&#45;gas Flue gas)</title>
<path fill="none" stroke="black" stroke-width="3.66" d="M1158.67,-744.1C1280.06,-744.1 1435.27,-744.1 1549.27,-744.1"/>
<polygon fill="black" stroke="black" stroke-width="3.66" points="1549.48,-747.6 1559.48,-744.1 1549.48,-740.6 1549.48,-747.6"/>
<text text-anchor="middle" x="1279.97" y="-747.9" font-family="Times,serif" font-size="14.00">hot&#45;air&#45;barrel*27064</text>
</g>
<!-- &#45;4,0 (item=lens Optical sets) -->
<g id="node3" class="node">
<title>&#45;4,0 (item=lens Optical sets)</title>
<ellipse fill="none" stroke="black" cx="1618.62" cy="-1091.06" rx="143.77" ry="18"/>
<text text-anchor="middle" x="1618.62" y="-1087.36" font-family="Times,serif" font-size="14.00">&#45;4,0 (item=lens Optical sets)</text>
</g>
<!-- &#45;4,&#45;3 (Breath Deeply. Exhale. (Hot Air))&#45;&gt;&#45;4,0 (item=lens Optical sets) -->
<g id="edge2" class="edge">
<title>&#45;4,&#45;3 (Breath Deeply. Exhale. (Hot Air))&#45;&gt;&#45;4,0 (item=lens Optical sets)</title>
<path fill="none" stroke="black" stroke-width="3.35" d="M1001.39,-762.03C1110.73,-820.32 1456.11,-1004.43 1576.63,-1068.68"/>
<polygon fill="black" stroke="black" stroke-width="3.35" points="1575.11,-1071.83 1585.59,-1073.45 1578.41,-1065.66 1575.11,-1071.83"/>
<text text-anchor="middle" x="1215.01" y="-919.15" font-family="Times,serif" font-size="14.00">hot&#45;air&#45;barrel*24824</text>
</g>
<!-- 3,9 (Copper, molten &amp; plate) -->
<g id="node4" class="node">
<title>3,9 (Copper, molten &amp; plate)</title>
<ellipse fill="none" stroke="black" cx="1380.51" cy="-1355.35" rx="143.77" ry="18"/>
<text text-anchor="middle" x="1380.51" y="-1351.65" font-family="Times,serif" font-size="14.00">3,9 (Copper, molten &amp; plate)</text>
</g>
<!-- &#45;4,&#45;3 (Breath Deeply. Exhale. (Hot Air))&#45;&gt;3,9 (Copper, molten &amp; plate) -->
<g id="edge3" class="edge">
<title>&#45;4,&#45;3 (Breath Deeply. Exhale. (Hot Air))&#45;&gt;3,9 (Copper, molten &amp; plate)</title>
<path fill="none" stroke="black" stroke-width="0.88" d="M980.12,-762.4C1039.16,-849.83 1292.62,-1225.18 1362.57,-1328.78"/>
<polygon fill="black" stroke="black" stroke-width="0.88" points="1359.71,-1330.8 1368.21,-1337.13 1365.51,-1326.89 1359.71,-1330.8"/>
<text text-anchor="middle" x="1101.85" y="-1049.39" font-family="Times,serif" font-size="14.00">hot&#45;air&#45;barrel*6504</text>
</g>
<!-- &#45;1,11 (Steel Plate (from molten)) -->
<g id="node5" class="node">
<title>&#45;1,11 (Steel Plate (from molten))</title>
<ellipse fill="none" stroke="black" cx="1028.92" cy="-1479.12" rx="161.37" ry="18"/>
<text text-anchor="middle" x="1028.92" y="-1475.42" font-family="Times,serif" font-size="14.00">&#45;1,11 (Steel Plate (from molten))</text>
</g>
<!-- &#45;4,&#45;3 (Breath Deeply. Exhale. (Hot Air))&#45;&gt;&#45;1,11 (Steel Plate (from molten)) -->
<g id="edge4" class="edge">
<title>&#45;4,&#45;3 (Breath Deeply. Exhale. (Hot Air))&#45;&gt;&#45;1,11 (Steel Plate (from molten))</title>
<path fill="none" stroke="black" stroke-width="2.03" d="M969.28,-762.27C977.47,-860.67 1016.49,-1329.75 1026.55,-1450.64"/>
<polygon fill="black" stroke="black" stroke-width="2.03" points="1023.09,-1451.25 1027.41,-1460.92 1030.07,-1450.67 1023.09,-1451.25"/>
<text text-anchor="middle" x="923.92" y="-1110.26" font-family="Times,serif" font-size="14.00">hot&#45;air&#45;barrel*15048</text>
</g>
<!-- 7,2 (advanced sand castings (mold)) -->
<g id="node6" class="node">
<title>7,2 (advanced sand castings (mold))</title>
<ellipse fill="none" stroke="black" cx="630.72" cy="-1400.13" rx="178.17" ry="18"/>
<text text-anchor="middle" x="630.72" y="-1396.43" font-family="Times,serif" font-size="14.00">7,2 (advanced sand castings (mold))</text>
</g>
<!-- &#45;4,&#45;3 (Breath Deeply. Exhale. (Hot Air))&#45;&gt;7,2 (advanced sand castings (mold)) -->
<g id="edge5" class="edge">
<title>&#45;4,&#45;3 (Breath Deeply. Exhale. (Hot Air))&#45;&gt;7,2 (advanced sand castings (mold))</title>
<path fill="none" stroke="black" stroke-width="0.22" d="M958.4,-762.33C911.39,-853.83 701.19,-1262.96 644.72,-1372.87"/>
<polygon fill="black" stroke="black" stroke-width="0.22" points="641.49,-1371.5 640.04,-1381.99 647.72,-1374.7 641.49,-1371.5"/>
<text text-anchor="middle" x="732.06" y="-1071.4" font-family="Times,serif" font-size="14.00">hot&#45;air&#45;barrel*1632</text>
</g>
<!-- 0,0 (LE BUS) -->
<g id="node7" class="node">
<title>0,0 (LE BUS)</title>
<ellipse fill="none" stroke="black" cx="385.19" cy="-1196.41" rx="71.49" ry="18"/>
<text text-anchor="middle" x="385.19" y="-1192.71" font-family="Times,serif" font-size="14.00">0,0 (LE BUS)</text>
</g>
<!-- &#45;4,&#45;3 (Breath Deeply. Exhale. (Hot Air))&#45;&gt;0,0 (LE BUS) -->
<g id="edge6" class="edge">
<title>&#45;4,&#45;3 (Breath Deeply. Exhale. (Hot Air))&#45;&gt;0,0 (LE BUS)</title>
<path fill="none" stroke="black" stroke-width="0.79" d="M944.57,-762.11C853.28,-832.99 518.74,-1092.72 415.65,-1172.77"/>
<polygon fill="black" stroke="black" stroke-width="0.79" points="413.26,-1170.19 407.51,-1179.09 417.56,-1175.72 413.26,-1170.19"/>
<text text-anchor="middle" x="610.61" y="-971.24" font-family="Times,serif" font-size="14.00">hot&#45;air&#45;barrel*5840</text>
</g>
<!-- 3,13 (Rubber) -->
<g id="node8" class="node">
<title>3,13 (Rubber)</title>
<ellipse fill="none" stroke="black" cx="278.39" cy="-1006.27" rx="75.29" ry="18"/>
<text text-anchor="middle" x="278.39" y="-1002.57" font-family="Times,serif" font-size="14.00">3,13 (Rubber)</text>
</g>
<!-- &#45;4,&#45;3 (Breath Deeply. Exhale. (Hot Air))&#45;&gt;3,13 (Rubber) -->
<g id="edge7" class="edge">
<title>&#45;4,&#45;3 (Breath Deeply. Exhale. (Hot Air))&#45;&gt;3,13 (Rubber)</title>
<path fill="none" stroke="black" stroke-width="0.87" d="M921.74,-761.61C797.67,-808.79 457.04,-938.33 328.43,-987.24"/>
<polygon fill="black" stroke="black" stroke-width="0.87" points="326.92,-984.07 318.82,-990.9 329.41,-990.61 326.92,-984.07"/>
<text text-anchor="middle" x="555.58" y="-878.23" font-family="Times,serif" font-size="14.00">hot&#45;air&#45;barrel*6432</text>
</g>
<!-- 3,5 (item=molybdenum&#45;plate Molybdenum plate) -->
<g id="node9" class="node">
<title>3,5 (item=molybdenum&#45;plate Molybdenum plate)</title>
<ellipse fill="none" stroke="black" cx="239.83" cy="-625.43" rx="239.66" ry="18"/>
<text text-anchor="middle" x="239.83" y="-621.73" font-family="Times,serif" font-size="14.00">3,5 (item=molybdenum&#45;plate Molybdenum plate)</text>
</g>
<!-- &#45;4,&#45;3 (Breath Deeply. Exhale. (Hot Air))&#45;&gt;3,5 (item=molybdenum&#45;plate Molybdenum plate) -->
<g id="edge8" class="edge">
<title>&#45;4,&#45;3 (Breath Deeply. Exhale. (Hot Air))&#45;&gt;3,5 (item=molybdenum&#45;plate Molybdenum plate)</title>
<path fill="none" stroke="black" stroke-width="0.44" d="M872.23,-728.53C737.56,-706.57 492.51,-666.62 350.22,-643.43"/>
<polygon fill="black" stroke="black" stroke-width="0.44" points="350.59,-639.94 340.16,-641.79 349.47,-646.85 350.59,-639.94"/>
<text text-anchor="middle" x="541.73" y="-689.78" font-family="Times,serif" font-size="14.00">hot&#45;air&#45;barrel*3272</text>
</g>
<!-- 4,6 (Circuit substrate and Doped silicon) -->
<g id="node10" class="node">
<title>4,6 (Circuit substrate and Doped silicon)</title>
<ellipse fill="none" stroke="black" cx="483.74" cy="-187.6" rx="199.56" ry="18"/>
<text text-anchor="middle" x="483.74" y="-183.9" font-family="Times,serif" font-size="14.00">4,6 (Circuit substrate and Doped silicon)</text>
</g>
<!-- &#45;4,&#45;3 (Breath Deeply. Exhale. (Hot Air))&#45;&gt;4,6 (Circuit substrate and Doped silicon) -->
<g id="edge9" class="edge">
<title>&#45;4,&#45;3 (Breath Deeply. Exhale. (Hot Air))&#45;&gt;4,6 (Circuit substrate and Doped silicon)</title>
<path fill="none" stroke="black" stroke-width="0.44" d="M951.94,-725.9C880.7,-644 589.66,-309.38 506.2,-213.43"/>
<polygon fill="black" stroke="black" stroke-width="0.44" points="508.65,-210.91 499.44,-205.66 503.37,-215.51 508.65,-210.91"/>
<text text-anchor="middle" x="659.57" y="-473.47" font-family="Times,serif" font-size="14.00">hot&#45;air&#45;barrel*3224</text>
</g>
<!-- &#45;1,10 (Iron Plates) -->
<g id="node11" class="node">
<title>&#45;1,10 (Iron Plates)</title>
<ellipse fill="none" stroke="black" cx="807.49" cy="-24.18" rx="94.78" ry="18"/>
<text text-anchor="middle" x="807.49" y="-20.48" font-family="Times,serif" font-size="14.00">&#45;1,10 (Iron Plates)</text>
</g>
<!-- &#45;4,&#45;3 (Breath Deeply. Exhale. (Hot Air))&#45;&gt;&#45;1,10 (Iron Plates) -->
<g id="edge10" class="edge">
<title>&#45;4,&#45;3 (Breath Deeply. Exhale. (Hot Air))&#45;&gt;&#45;1,10 (Iron Plates)</title>
<path fill="none" stroke="black" stroke-width="0.14" d="M963.73,-725.95C942.12,-628.88 840.22,-171.18 813.78,-52.4"/>
<polygon fill="black" stroke="black" stroke-width="0.14" points="817.11,-51.29 811.52,-42.28 810.28,-52.81 817.11,-51.29"/>
<text text-anchor="middle" x="819.25" y="-392.97" font-family="Times,serif" font-size="14.00">hot&#45;air&#45;barrel*1032</text>
</g>
<!-- 0,12 (Phosphate mining) -->
<g id="node12" class="node">
<title>0,12 (Phosphate mining)</title>
<ellipse fill="none" stroke="black" cx="1097.21" cy="-18" rx="124.58" ry="18"/>
<text text-anchor="middle" x="1097.21" y="-14.3" font-family="Times,serif" font-size="14.00">0,12 (Phosphate mining)</text>
</g>
<!-- &#45;4,&#45;3 (Breath Deeply. Exhale. (Hot Air))&#45;&gt;0,12 (Phosphate mining) -->
<g id="edge11" class="edge">
<title>&#45;4,&#45;3 (Breath Deeply. Exhale. (Hot Air))&#45;&gt;0,12 (Phosphate mining)</title>
<path fill="none" stroke="black" stroke-width="0.08" d="M971.03,-725.79C988.49,-627.89 1070.78,-166.27 1092.14,-46.46"/>
<polygon fill="black" stroke="black" stroke-width="0.08" points="1095.65,-46.72 1093.96,-36.26 1088.75,-45.49 1095.65,-46.72"/>
<text text-anchor="middle" x="966.59" y="-389.93" font-family="Times,serif" font-size="14.00">hot&#45;air&#45;barrel*576</text>
</g>
<!-- 2,1 (Niobium plates) -->
<g id="node13" class="node">
<title>2,1 (Niobium plates)</title>
<ellipse fill="none" stroke="black" cx="1376.19" cy="-129.96" rx="105.88" ry="18"/>
<text text-anchor="middle" x="1376.19" y="-126.26" font-family="Times,serif" font-size="14.00">2,1 (Niobium plates)</text>
</g>
<!-- &#45;4,&#45;3 (Breath Deeply. Exhale. (Hot Air))&#45;&gt;2,1 (Niobium plates) -->
<g id="edge12" class="edge">
<title>&#45;4,&#45;3 (Breath Deeply. Exhale. (Hot Air))&#45;&gt;2,1 (Niobium plates)</title>
<path fill="none" stroke="black" stroke-width="0.07" d="M979.77,-726.06C1037.83,-638.75 1289.59,-260.18 1358.63,-156.37"/>
<polygon fill="black" stroke="black" stroke-width="0.07" points="1361.57,-158.27 1364.19,-148.01 1355.74,-154.4 1361.57,-158.27"/>
<text text-anchor="middle" x="1104.2" y="-445.01" font-family="Times,serif" font-size="14.00">hot&#45;air&#45;barrel*552</text>
</g>
<!-- 2,10 (Nickel plate and Nichrome) -->
<g id="node14" class="node">
<title>2,10 (Nickel plate and Nichrome)</title>
<ellipse fill="none" stroke="black" cx="1608.26" cy="-378.37" rx="165.17" ry="18"/>
<text text-anchor="middle" x="1608.26" y="-374.67" font-family="Times,serif" font-size="14.00">2,10 (Nickel plate and Nichrome)</text>
</g>
<!-- &#45;4,&#45;3 (Breath Deeply. Exhale. (Hot Air))&#45;&gt;2,10 (Nickel plate and Nichrome) -->
<g id="edge13" class="edge">
<title>&#45;4,&#45;3 (Breath Deeply. Exhale. (Hot Air))&#45;&gt;2,10 (Nickel plate and Nichrome)</title>
<path fill="none" stroke="black" stroke-width="0.03" d="M999.1,-726.22C1105.08,-665.69 1450.19,-468.63 1568.23,-401.22"/>
<polygon fill="black" stroke="black" stroke-width="0.03" points="1570.04,-404.22 1576.99,-396.22 1566.57,-398.14 1570.04,-404.22"/>
<text text-anchor="middle" x="1218.67" y="-567.52" font-family="Times,serif" font-size="14.00">hot&#45;air&#45;barrel*216</text>
</g>
</g>
</svg>
