<?xml version="1.0" encoding="UTF-8" standalone="no"?>
<!DOCTYPE svg PUBLIC "-//W3C//DTD SVG 1.1//EN"
 "http://www.w3.org/Graphics/SVG/1.1/DTD/svg11.dtd">
<!-- Generated by graphviz version 2.43.0 (0)
 -->
<!-- Title: %3 Pages: 1 -->
<svg width="984pt" height="850pt"
 viewBox="0.00 0.00 984.10 849.87" xmlns="http://www.w3.org/2000/svg" xmlns:xlink="http://www.w3.org/1999/xlink">
<g id="graph0" class="graph" transform="scale(1 1) rotate(0) translate(4 845.87)">
<title>%3</title>
<polygon fill="white" stroke="transparent" points="-4,4 -4,-845.87 980.1,-845.87 980.1,4 -4,4"/>
<!-- 7,6 () -->
<g id="node1" class="node">
<title>7,6 ()</title>
<ellipse fill="none" stroke="black" cx="671" cy="-97.81" rx="35.19" ry="18"/>
<text text-anchor="middle" x="671" y="-94.11" font-family="Times,serif" font-size="14.00">7,6 ()</text>
</g>
<!-- &#45;6,7 (Iron ore dust) -->
<g id="node2" class="node">
<title>&#45;6,7 (Iron ore dust)</title>
<ellipse fill="none" stroke="black" cx="321.35" cy="-18" rx="98.58" ry="18"/>
<text text-anchor="middle" x="321.35" y="-14.3" font-family="Times,serif" font-size="14.00">&#45;6,7 (Iron ore dust)</text>
</g>
<!-- 7,6 ()&#45;&gt;&#45;6,7 (Iron ore dust) -->
<g id="edge1" class="edge">
<title>7,6 ()&#45;&gt;&#45;6,7 (Iron ore dust)</title>
<path fill="none" stroke="black" stroke-width="2.21" d="M638.73,-90.44C583.23,-77.77 468.44,-51.57 393.19,-34.4"/>
<polygon fill="black" stroke="black" stroke-width="2.21" points="393.83,-30.95 383.3,-32.14 392.27,-37.78 393.83,-30.95"/>
<text text-anchor="middle" x="452.46" y="-66.22" font-family="Times,serif" font-size="14.00">iron&#45;ore*1034640</text>
</g>
<!-- 1,10 (Iron Ore Dust) -->
<g id="node5" class="node">
<title>1,10 (Iron Ore Dust)</title>
<ellipse fill="none" stroke="black" cx="671" cy="-744.06" rx="104.78" ry="18"/>
<text text-anchor="middle" x="671" y="-740.36" font-family="Times,serif" font-size="14.00">1,10 (Iron Ore Dust)</text>
</g>
<!-- 7,6 ()&#45;&gt;1,10 (Iron Ore Dust) -->
<g id="edge4" class="edge">
<title>7,6 ()&#45;&gt;1,10 (Iron Ore Dust)</title>
<path fill="none" stroke="black" stroke-width="0.96" d="M671,-116.11C671,-206.56 671,-605.9 671,-715.91"/>
<polygon fill="black" stroke="black" stroke-width="0.96" points="667.5,-715.92 671,-725.92 674.5,-715.92 667.5,-715.92"/>
<text text-anchor="middle" x="612" y="-419.81" font-family="Times,serif" font-size="14.00">iron&#45;ore*450480</text>
</g>
<!-- 11,8 () -->
<g id="node3" class="node">
<title>11,8 ()</title>
<ellipse fill="none" stroke="black" cx="40.95" cy="-241.61" rx="40.89" ry="18"/>
<text text-anchor="middle" x="40.95" y="-237.91" font-family="Times,serif" font-size="14.00">11,8 ()</text>
</g>
<!-- 11,8 ()&#45;&gt;&#45;6,7 (Iron ore dust) -->
<g id="edge2" class="edge">
<title>11,8 ()&#45;&gt;&#45;6,7 (Iron ore dust)</title>
<path fill="none" stroke="black" stroke-width="1.93" d="M61.11,-225.53C109.7,-186.78 233.5,-88.06 291.06,-42.15"/>
<polygon fill="black" stroke="black" stroke-width="1.93" points="293.42,-44.75 299.06,-35.77 289.06,-39.27 293.42,-44.75"/>
<text text-anchor="middle" x="117.09" y="-137.64" font-family="Times,serif" font-size="14.00">iron&#45;ore*906960</text>
</g>
<!-- 11,8 ()&#45;&gt;1,10 (Iron Ore Dust) -->
<g id="edge7" class="edge">
<title>11,8 ()&#45;&gt;1,10 (Iron Ore Dust)</title>
<path fill="none" stroke="black" stroke-width="1.22" d="M60.84,-257.48C152.07,-330.23 530.62,-632.11 640.79,-719.97"/>
<polygon fill="black" stroke="black" stroke-width="1.22" points="638.84,-722.9 648.85,-726.39 643.21,-717.42 638.84,-722.9"/>
<text text-anchor="middle" x="291.82" y="-492.52" font-family="Times,serif" font-size="14.00">iron&#45;ore*571440</text>
</g>
<!-- &#45;5,&#45;7 (fluid=propene Propene) -->
<g id="node4" class="node">
<title>&#45;5,&#45;7 (fluid=propene Propene)</title>
<ellipse fill="none" stroke="black" cx="826.61" cy="-420.93" rx="149.47" ry="18"/>
<text text-anchor="middle" x="826.61" y="-417.23" font-family="Times,serif" font-size="14.00">&#45;5,&#45;7 (fluid=propene Propene)</text>
</g>
<!-- &#45;5,&#45;7 (fluid=propene Propene)&#45;&gt;&#45;6,7 (Iron ore dust) -->
<g id="edge5" class="edge">
<title>&#45;5,&#45;7 (fluid=propene Propene)&#45;&gt;&#45;6,7 (Iron ore dust)</title>
<path fill="none" stroke="black" stroke-width="1.71" d="M804.25,-403.1C723.05,-338.35 443.71,-115.58 351.3,-41.88"/>
<polygon fill="black" stroke="black" stroke-width="1.71" points="353.45,-39.13 343.45,-35.63 349.09,-44.6 353.45,-39.13"/>
<text text-anchor="middle" x="518.77" y="-226.29" font-family="Times,serif" font-size="14.00">iron&#45;ore*802944</text>
</g>
<!-- &#45;5,&#45;7 (fluid=propene Propene)&#45;&gt;1,10 (Iron Ore Dust) -->
<g id="edge3" class="edge">
<title>&#45;5,&#45;7 (fluid=propene Propene)&#45;&gt;1,10 (Iron Ore Dust)</title>
<path fill="none" stroke="black" stroke-width="0.78" d="M817.8,-439.23C791.75,-493.33 714.99,-652.72 684.1,-716.87"/>
<polygon fill="black" stroke="black" stroke-width="0.78" points="680.9,-715.44 679.71,-725.96 687.21,-718.47 680.9,-715.44"/>
<text text-anchor="middle" x="691.95" y="-581.85" font-family="Times,serif" font-size="14.00">iron&#45;ore*367728</text>
</g>
<!-- 8,6 () -->
<g id="node6" class="node">
<title>8,6 ()</title>
<ellipse fill="none" stroke="black" cx="40.95" cy="-600.26" rx="35.19" ry="18"/>
<text text-anchor="middle" x="40.95" y="-596.56" font-family="Times,serif" font-size="14.00">8,6 ()</text>
</g>
<!-- 8,6 ()&#45;&gt;&#45;6,7 (Iron ore dust) -->
<g id="edge6" class="edge">
<title>8,6 ()&#45;&gt;&#45;6,7 (Iron ore dust)</title>
<path fill="none" stroke="black" stroke-width="0.11" d="M49.49,-582.51C89.6,-499.23 259.25,-146.95 308.12,-45.46"/>
<polygon fill="black" stroke="black" stroke-width="0.11" points="311.41,-46.71 312.59,-36.18 305.1,-43.67 311.41,-46.71"/>
<text text-anchor="middle" x="124.31" y="-317.79" font-family="Times,serif" font-size="14.00">iron&#45;ore*52560</text>
</g>
<!-- 8,6 ()&#45;&gt;1,10 (Iron Ore Dust) -->
<g id="edge10" class="edge">
<title>8,6 ()&#45;&gt;1,10 (Iron Ore Dust)</title>
<path fill="none" stroke="black" stroke-width="0.09" d="M73.06,-607.59C169.87,-629.68 460.69,-696.06 597.86,-727.37"/>
<polygon fill="black" stroke="black" stroke-width="0.09" points="597.34,-730.84 607.87,-729.65 598.9,-724.01 597.34,-730.84"/>
<text text-anchor="middle" x="280.96" y="-671.28" font-family="Times,serif" font-size="14.00">iron&#45;ore*40800</text>
</g>
<!-- 10,8 () -->
<g id="node7" class="node">
<title>10,8 ()</title>
<ellipse fill="none" stroke="black" cx="321.35" cy="-823.87" rx="40.89" ry="18"/>
<text text-anchor="middle" x="321.35" y="-820.17" font-family="Times,serif" font-size="14.00">10,8 ()</text>
</g>
<!-- 10,8 ()&#45;&gt;&#45;6,7 (Iron ore dust) -->
<g id="edge9" class="edge">
<title>10,8 ()&#45;&gt;&#45;6,7 (Iron ore dust)</title>
<path fill="none" stroke="black" stroke-width="0.72" d="M321.35,-805.52C321.35,-700.46 321.35,-175.33 321.35,-46.55"/>
<polygon fill="black" stroke="black" stroke-width="0.72" points="324.85,-46.32 321.35,-36.32 317.85,-46.32 324.85,-46.32"/>
<text text-anchor="middle" x="262.35" y="-429.83" font-family="Times,serif" font-size="14.00">iron&#45;ore*340080</text>
</g>
<!-- 10,8 ()&#45;&gt;1,10 (Iron Ore Dust) -->
<g id="edge8" class="edge">
<title>10,8 ()&#45;&gt;1,10 (Iron Ore Dust)</title>
<path fill="none" stroke="black" stroke-width="0.26" d="M357.78,-815.55C414.32,-802.65 524.34,-777.53 597.76,-760.78"/>
<polygon fill="black" stroke="black" stroke-width="0.26" points="598.9,-764.11 607.87,-758.47 597.34,-757.28 598.9,-764.11"/>
<text text-anchor="middle" x="418.77" y="-791.96" font-family="Times,serif" font-size="14.00">iron&#45;ore*124080</text>
</g>
</g>
</svg>
